<?xml version="1.0" encoding="UTF-8" standalone="no"?>
<!DOCTYPE svg PUBLIC "-//W3C//DTD SVG 1.1//EN"
 "http://www.w3.org/Graphics/SVG/1.1/DTD/svg11.dtd">
<!-- Generated by graphviz version 3.0.0 (20220413.0106)
 -->
<!-- Title: include/PascalTokens.hpp Pages: 1 -->
<svg width="470pt" height="140pt"
 viewBox="0.00 0.00 470.00 140.00" xmlns="http://www.w3.org/2000/svg" xmlns:xlink="http://www.w3.org/1999/xlink">
<g id="graph0" class="graph" transform="scale(1 1) rotate(0) translate(4 136)">
<title>include/PascalTokens.hpp</title>
<!-- Node1 -->
<g id="node1" class="node">
<title>Node1</title>
<g id="a_node1"><a xlink:title=" ">
<polygon fill="#bfbfbf" stroke="black" points="74,-112.5 74,-131.5 205,-131.5 205,-112.5 74,-112.5"/>
<text text-anchor="middle" x="139.5" y="-119.5" font-family="Helvetica,sans-Serif" font-size="10.00">include/PascalTokens.hpp</text>
</a>
</g>
</g>
<!-- Node2 -->
<g id="node2" class="node">
<title>Node2</title>
<g id="a_node2"><a xlink:title=" ">
<polygon fill="none" stroke="#bfbfbf" points="117.5,-0.5 117.5,-19.5 161.5,-19.5 161.5,-0.5 117.5,-0.5"/>
<text text-anchor="middle" x="139.5" y="-7.5" font-family="Helvetica,sans-Serif" font-size="10.00">vector</text>
</a>
</g>
</g>
<!-- Node1&#45;&gt;Node2 -->
<g id="edge1" class="edge">
<title>Node1&#45;&gt;Node2</title>
<path fill="none" stroke="midnightblue" d="M139.5,-112.37C139.5,-94.62 139.5,-53.67 139.5,-29.6"/>
<polygon fill="midnightblue" stroke="midnightblue" points="143,-29.59 139.5,-19.59 136,-29.59 143,-29.59"/>
</g>
<!-- Node3 -->
<g id="node3" class="node">
<title>Node3</title>
<g id="a_node3"><a xlink:href="../../de/d32/_token_8hpp.html" target="_top" xlink:title=" ">
<polygon fill="none" stroke="black" points="48.5,-56.5 48.5,-75.5 110.5,-75.5 110.5,-56.5 48.5,-56.5"/>
<text text-anchor="middle" x="79.5" y="-63.5" font-family="Helvetica,sans-Serif" font-size="10.00">Token.hpp</text>
</a>
</g>
</g>
<!-- Node1&#45;&gt;Node3 -->
<g id="edge2" class="edge">
<title>Node1&#45;&gt;Node3</title>
<path fill="none" stroke="midnightblue" d="M129.86,-112.32C120.99,-104.34 107.63,-92.31 96.89,-82.65"/>
<polygon fill="midnightblue" stroke="midnightblue" points="99.09,-79.92 89.32,-75.83 94.41,-85.13 99.09,-79.92"/>
</g>
<!-- Node6 -->
<g id="node6" class="node">
<title>Node6</title>
<g id="a_node6"><a xlink:href="../../d5/df9/_list_8cpp.html" target="_top" xlink:title="Двусвязный список">
<polygon fill="none" stroke="black" points="211,-56.5 211,-75.5 262,-75.5 262,-56.5 211,-56.5"/>
<text text-anchor="middle" x="236.5" y="-63.5" font-family="Helvetica,sans-Serif" font-size="10.00">List.cpp</text>
</a>
</g>
</g>
<!-- Node1&#45;&gt;Node6 -->
<g id="edge5" class="edge">
<title>Node1&#45;&gt;Node6</title>
<path fill="none" stroke="midnightblue" d="M155.08,-112.32C170.5,-103.74 194.31,-90.49 212.21,-80.52"/>
<polygon fill="midnightblue" stroke="midnightblue" points="213.92,-83.58 220.95,-75.65 210.51,-77.46 213.92,-83.58"/>
</g>
<!-- Node4 -->
<g id="node4" class="node">
<title>Node4</title>
<g id="a_node4"><a xlink:title=" ">
<polygon fill="none" stroke="#bfbfbf" points="0,-0.5 0,-19.5 41,-19.5 41,-0.5 0,-0.5"/>
<text text-anchor="middle" x="20.5" y="-7.5" font-family="Helvetica,sans-Serif" font-size="10.00">string</text>
</a>
</g>
</g>
<!-- Node3&#45;&gt;Node4 -->
<g id="edge3" class="edge">
<title>Node3&#45;&gt;Node4</title>
<path fill="none" stroke="midnightblue" d="M70.02,-56.32C61.3,-48.34 48.16,-36.31 37.6,-26.65"/>
<polygon fill="midnightblue" stroke="midnightblue" points="39.89,-24 30.15,-19.83 35.17,-29.17 39.89,-24"/>
</g>
<!-- Node5 -->
<g id="node5" class="node">
<title>Node5</title>
<g id="a_node5"><a xlink:title=" ">
<polygon fill="none" stroke="#bfbfbf" points="59.5,-0.5 59.5,-19.5 99.5,-19.5 99.5,-0.5 59.5,-0.5"/>
<text text-anchor="middle" x="79.5" y="-7.5" font-family="Helvetica,sans-Serif" font-size="10.00">regex</text>
</a>
</g>
</g>
<!-- Node3&#45;&gt;Node5 -->
<g id="edge4" class="edge">
<title>Node3&#45;&gt;Node5</title>
<path fill="none" stroke="midnightblue" d="M79.5,-56.08C79.5,-49.01 79.5,-38.86 79.5,-29.99"/>
<polygon fill="midnightblue" stroke="midnightblue" points="83,-29.75 79.5,-19.75 76,-29.75 83,-29.75"/>
</g>
<!-- Node6&#45;&gt;Node2 -->
<g id="edge8" class="edge">
<title>Node6&#45;&gt;Node2</title>
<path fill="none" stroke="midnightblue" d="M220.92,-56.32C205.5,-47.74 181.69,-34.49 163.79,-24.52"/>
<polygon fill="midnightblue" stroke="midnightblue" points="165.49,-21.46 155.05,-19.65 162.08,-27.58 165.49,-21.46"/>
</g>
<!-- Node7 -->
<g id="node7" class="node">
<title>Node7</title>
<g id="a_node7"><a xlink:title=" ">
<polygon fill="none" stroke="#bfbfbf" points="245,-0.5 245,-19.5 294,-19.5 294,-0.5 245,-0.5"/>
<text text-anchor="middle" x="269.5" y="-7.5" font-family="Helvetica,sans-Serif" font-size="10.00">cstddef</text>
</a>
</g>
</g>
<!-- Node6&#45;&gt;Node7 -->
<g id="edge6" class="edge">
<title>Node6&#45;&gt;Node7</title>
<path fill="none" stroke="midnightblue" d="M241.95,-56.08C246.51,-48.61 253.17,-37.72 258.79,-28.52"/>
<polygon fill="midnightblue" stroke="midnightblue" points="261.92,-30.11 264.15,-19.75 255.95,-26.46 261.92,-30.11"/>
</g>
<!-- Node8 -->
<g id="node8" class="node">
<title>Node8</title>
<g id="a_node8"><a xlink:title=" ">
<polygon fill="none" stroke="#bfbfbf" points="312.5,-0.5 312.5,-19.5 384.5,-19.5 384.5,-0.5 312.5,-0.5"/>
<text text-anchor="middle" x="348.5" y="-7.5" font-family="Helvetica,sans-Serif" font-size="10.00">initializer_list</text>
</a>
</g>
</g>
<!-- Node6&#45;&gt;Node8 -->
<g id="edge7" class="edge">
<title>Node6&#45;&gt;Node8</title>
<path fill="none" stroke="midnightblue" d="M254.49,-56.32C272.54,-47.62 300.55,-34.12 321.3,-24.11"/>
<polygon fill="midnightblue" stroke="midnightblue" points="323.06,-27.15 330.55,-19.65 320.02,-20.84 323.06,-27.15"/>
</g>
<!-- Node9 -->
<g id="node9" class="node">
<title>Node9</title>
<g id="a_node9"><a xlink:title=" ">
<polygon fill="none" stroke="#bfbfbf" points="403,-0.5 403,-19.5 462,-19.5 462,-0.5 403,-0.5"/>
<text text-anchor="middle" x="432.5" y="-7.5" font-family="Helvetica,sans-Serif" font-size="10.00">stdexcept</text>
</a>
</g>
</g>
<!-- Node6&#45;&gt;Node9 -->
<g id="edge9" class="edge">
<title>Node6&#45;&gt;Node9</title>
<path fill="none" stroke="midnightblue" d="M262.12,-57.94C295.37,-48.78 353.72,-32.71 392.74,-21.96"/>
<polygon fill="midnightblue" stroke="midnightblue" points="393.99,-25.24 402.7,-19.21 392.13,-18.49 393.99,-25.24"/>
</g>
<!-- Node10 -->
<g id="node10" class="node">
<title>Node10</title>
<g id="a_node10"><a xlink:title=" ">
<polygon fill="none" stroke="#bfbfbf" points="180,-0.5 180,-19.5 227,-19.5 227,-0.5 180,-0.5"/>
<text text-anchor="middle" x="203.5" y="-7.5" font-family="Helvetica,sans-Serif" font-size="10.00">iterator</text>
</a>
</g>
</g>
<!-- Node6&#45;&gt;Node10 -->
<g id="edge10" class="edge">
<title>Node6&#45;&gt;Node10</title>
<path fill="none" stroke="midnightblue" d="M231.05,-56.08C226.49,-48.61 219.83,-37.72 214.21,-28.52"/>
<polygon fill="midnightblue" stroke="midnightblue" points="217.05,-26.46 208.85,-19.75 211.08,-30.11 217.05,-26.46"/>
</g>
</g>
</svg>
