<?xml version="1.0" encoding="UTF-8" standalone="no"?>
<!DOCTYPE svg PUBLIC "-//W3C//DTD SVG 1.1//EN"
 "http://www.w3.org/Graphics/SVG/1.1/DTD/svg11.dtd">
<!-- Generated by graphviz version 3.0.0 (20220413.0106)
 -->
<!-- Title: include/SyntExp.hpp Pages: 1 -->
<svg width="904pt" height="263pt"
 viewBox="0.00 0.00 904.00 263.00" xmlns="http://www.w3.org/2000/svg" xmlns:xlink="http://www.w3.org/1999/xlink">
<g id="graph0" class="graph" transform="scale(1 1) rotate(0) translate(4 259)">
<title>include/SyntExp.hpp</title>
<!-- Node1 -->
<g id="node1" class="node">
<title>Node1</title>
<g id="a_node1"><a xlink:title=" ">
<polygon fill="#bfbfbf" stroke="black" points="545.5,-235.5 545.5,-254.5 649.5,-254.5 649.5,-235.5 545.5,-235.5"/>
<text text-anchor="middle" x="597.5" y="-242.5" font-family="Helvetica,sans-Serif" font-size="10.00">include/SyntExp.hpp</text>
</a>
</g>
</g>
<!-- Node2 -->
<g id="node2" class="node">
<title>Node2</title>
<g id="a_node2"><a xlink:href="../../db/d42/_visitor_8hpp.html" target="_top" xlink:title=" ">
<polygon fill="none" stroke="black" points="134.5,-174 134.5,-193 230.5,-193 230.5,-174 134.5,-174"/>
<text text-anchor="middle" x="182.5" y="-181" font-family="Helvetica,sans-Serif" font-size="10.00">include/Visitor.hpp</text>
</a>
</g>
</g>
<!-- Node1&#45;&gt;Node2 -->
<g id="edge1" class="edge">
<title>Node1&#45;&gt;Node2</title>
<path fill="none" stroke="midnightblue" d="M535.27,-235.08C451.97,-223.13 305.96,-202.2 230.57,-191.39"/>
<polygon fill="midnightblue" stroke="midnightblue" points="534.96,-238.57 545.36,-236.52 535.96,-231.64 534.96,-238.57"/>
</g>
<!-- Node7 -->
<g id="node7" class="node">
<title>Node7</title>
<g id="a_node7"><a xlink:href="../../d1/daa/_syntax_8cpp.html" target="_top" xlink:title=" ">
<polygon fill="none" stroke="black" points="332.5,-0.5 332.5,-19.5 412.5,-19.5 412.5,-0.5 332.5,-0.5"/>
<text text-anchor="middle" x="372.5" y="-7.5" font-family="Helvetica,sans-Serif" font-size="10.00">src/Syntax.cpp</text>
</a>
</g>
</g>
<!-- Node1&#45;&gt;Node7 -->
<g id="edge16" class="edge">
<title>Node1&#45;&gt;Node7</title>
<path fill="none" stroke="midnightblue" d="M591.65,-225.8C589.07,-217.63 586.05,-207.86 583.5,-199 565.28,-135.81 592.12,-102.38 545.5,-56 510.41,-21.09 451.89,-12.21 412.75,-10.48"/>
<polygon fill="midnightblue" stroke="midnightblue" points="588.34,-226.94 594.71,-235.41 595.01,-224.81 588.34,-226.94"/>
</g>
<!-- Node10 -->
<g id="node10" class="node">
<title>Node10</title>
<g id="a_node10"><a xlink:href="../../dd/de9/test_syntax_8cpp.html" target="_top" xlink:title=" ">
<polygon fill="none" stroke="black" points="400.5,-56.5 400.5,-75.5 536.5,-75.5 536.5,-56.5 400.5,-56.5"/>
<text text-anchor="middle" x="468.5" y="-63.5" font-family="Helvetica,sans-Serif" font-size="10.00">tests/syntax/testSyntax.cpp</text>
</a>
</g>
</g>
<!-- Node1&#45;&gt;Node10 -->
<g id="edge18" class="edge">
<title>Node1&#45;&gt;Node10</title>
<path fill="none" stroke="midnightblue" d="M579.53,-228.76C570.3,-220.46 559.2,-209.72 550.5,-199 515.66,-156.05 484.04,-97.24 472.82,-75.52"/>
<polygon fill="midnightblue" stroke="midnightblue" points="577.23,-231.39 587.05,-235.36 581.85,-226.13 577.23,-231.39"/>
</g>
<!-- Node12 -->
<g id="node12" class="node">
<title>Node12</title>
<g id="a_node12"><a xlink:href="../../dd/d5d/_lexer_8cpp.html" target="_top" xlink:title="Лексер">
<polygon fill="none" stroke="black" points="593,-174 593,-193 668,-193 668,-174 593,-174"/>
<text text-anchor="middle" x="630.5" y="-181" font-family="Helvetica,sans-Serif" font-size="10.00">src/Lexer.cpp</text>
</a>
</g>
</g>
<!-- Node1&#45;&gt;Node12 -->
<g id="edge14" class="edge">
<title>Node1&#45;&gt;Node12</title>
<path fill="none" stroke="midnightblue" d="M607.11,-226.67C613.25,-215.61 620.93,-201.75 625.78,-193.01"/>
<polygon fill="midnightblue" stroke="midnightblue" points="604.02,-225.03 602.23,-235.48 610.14,-228.43 604.02,-225.03"/>
</g>
<!-- Node13 -->
<g id="node13" class="node">
<title>Node13</title>
<g id="a_node13"><a xlink:href="../../d0/d66/_synt_exp_8cpp.html" target="_top" xlink:title=" ">
<polygon fill="none" stroke="black" points="686.5,-174 686.5,-193 772.5,-193 772.5,-174 686.5,-174"/>
<text text-anchor="middle" x="729.5" y="-181" font-family="Helvetica,sans-Serif" font-size="10.00">src/SyntExp.cpp</text>
</a>
</g>
</g>
<!-- Node1&#45;&gt;Node13 -->
<g id="edge15" class="edge">
<title>Node1&#45;&gt;Node13</title>
<path fill="none" stroke="midnightblue" d="M625.61,-231.33C651.24,-219.78 688.39,-203.03 710.62,-193.01"/>
<polygon fill="midnightblue" stroke="midnightblue" points="624.09,-228.17 616.41,-235.48 626.97,-234.56 624.09,-228.17"/>
</g>
<!-- Node14 -->
<g id="node14" class="node">
<title>Node14</title>
<g id="a_node14"><a xlink:href="../../d0/d0f/test_lexer__1_8cpp.html" target="_top" xlink:title="Тесты для лексера">
<polygon fill="none" stroke="black" points="791,-168.5 791,-198.5 896,-198.5 896,-168.5 791,-168.5"/>
<text text-anchor="start" x="799" y="-186.5" font-family="Helvetica,sans-Serif" font-size="10.00">tests/lexer/testLexer</text>
<text text-anchor="middle" x="843.5" y="-175.5" font-family="Helvetica,sans-Serif" font-size="10.00">_1.cpp</text>
</a>
</g>
</g>
<!-- Node1&#45;&gt;Node14 -->
<g id="edge17" class="edge">
<title>Node1&#45;&gt;Node14</title>
<path fill="none" stroke="midnightblue" d="M642.65,-233.08C684.43,-222.97 746.58,-207.94 790.66,-197.28"/>
<polygon fill="midnightblue" stroke="midnightblue" points="641.64,-229.72 632.75,-235.48 643.29,-236.53 641.64,-229.72"/>
</g>
<!-- Node3 -->
<g id="node3" class="node">
<title>Node3</title>
<g id="a_node3"><a xlink:href="../../d3/db4/graph_draw_8cpp.html" target="_top" xlink:title=" ">
<polygon fill="none" stroke="black" points="142,-112.5 142,-131.5 223,-131.5 223,-112.5 142,-112.5"/>
<text text-anchor="middle" x="182.5" y="-119.5" font-family="Helvetica,sans-Serif" font-size="10.00">graphDraw.cpp</text>
</a>
</g>
</g>
<!-- Node2&#45;&gt;Node3 -->
<g id="edge2" class="edge">
<title>Node2&#45;&gt;Node3</title>
<path fill="none" stroke="midnightblue" d="M182.5,-163.82C182.5,-153 182.5,-139.9 182.5,-131.51"/>
<polygon fill="midnightblue" stroke="midnightblue" points="179,-163.98 182.5,-173.98 186,-163.98 179,-163.98"/>
</g>
<!-- Node4 -->
<g id="node4" class="node">
<title>Node4</title>
<g id="a_node4"><a xlink:href="../../d4/dcb/_a_s_t_8hpp.html" target="_top" xlink:title=" ">
<polygon fill="none" stroke="black" points="241.5,-112.5 241.5,-131.5 329.5,-131.5 329.5,-112.5 241.5,-112.5"/>
<text text-anchor="middle" x="285.5" y="-119.5" font-family="Helvetica,sans-Serif" font-size="10.00">include/AST.hpp</text>
</a>
</g>
</g>
<!-- Node2&#45;&gt;Node4 -->
<g id="edge3" class="edge">
<title>Node2&#45;&gt;Node4</title>
<path fill="none" stroke="midnightblue" d="M206.04,-168.9C225.96,-157.4 253.88,-141.27 270.77,-131.51"/>
<polygon fill="midnightblue" stroke="midnightblue" points="204.17,-165.94 197.26,-173.98 207.67,-172 204.17,-165.94"/>
</g>
<!-- Node9 -->
<g id="node9" class="node">
<title>Node9</title>
<g id="a_node9"><a xlink:href="../../dc/d65/_visitor_8cpp.html" target="_top" xlink:title=" ">
<polygon fill="none" stroke="black" points="0,-56.5 0,-75.5 79,-75.5 79,-56.5 0,-56.5"/>
<text text-anchor="middle" x="39.5" y="-63.5" font-family="Helvetica,sans-Serif" font-size="10.00">src/Visitor.cpp</text>
</a>
</g>
</g>
<!-- Node2&#45;&gt;Node9 -->
<g id="edge13" class="edge">
<title>Node2&#45;&gt;Node9</title>
<path fill="none" stroke="midnightblue" d="M126.36,-171.16C102.5,-163.7 76.16,-151.56 58.5,-132 44.01,-115.94 40.53,-89.39 39.72,-75.72"/>
<polygon fill="midnightblue" stroke="midnightblue" points="125.48,-174.55 136.06,-173.98 127.44,-167.83 125.48,-174.55"/>
</g>
<!-- Node11 -->
<g id="node11" class="node">
<title>Node11</title>
<g id="a_node11"><a xlink:href="../../df/d0a/main_8cpp.html" target="_top" xlink:title=" ">
<polygon fill="none" stroke="black" points="67.5,-112.5 67.5,-131.5 123.5,-131.5 123.5,-112.5 67.5,-112.5"/>
<text text-anchor="middle" x="95.5" y="-119.5" font-family="Helvetica,sans-Serif" font-size="10.00">main.cpp</text>
</a>
</g>
</g>
<!-- Node2&#45;&gt;Node11 -->
<g id="edge12" class="edge">
<title>Node2&#45;&gt;Node11</title>
<path fill="none" stroke="midnightblue" d="M161.46,-168.11C144.73,-156.67 121.89,-141.05 107.94,-131.51"/>
<polygon fill="midnightblue" stroke="midnightblue" points="159.8,-171.22 170.04,-173.98 163.76,-165.44 159.8,-171.22"/>
</g>
<!-- Node5 -->
<g id="node5" class="node">
<title>Node5</title>
<g id="a_node5"><a xlink:href="../../d4/d0d/_a_s_t_factory_8hpp.html" target="_top" xlink:title=" ">
<polygon fill="none" stroke="black" points="224.5,-56.5 224.5,-75.5 344.5,-75.5 344.5,-56.5 224.5,-56.5"/>
<text text-anchor="middle" x="284.5" y="-63.5" font-family="Helvetica,sans-Serif" font-size="10.00">include/ASTFactory.hpp</text>
</a>
</g>
</g>
<!-- Node4&#45;&gt;Node5 -->
<g id="edge4" class="edge">
<title>Node4&#45;&gt;Node5</title>
<path fill="none" stroke="midnightblue" d="M285.14,-101.8C284.98,-92.91 284.79,-82.78 284.66,-75.75"/>
<polygon fill="midnightblue" stroke="midnightblue" points="281.65,-102.15 285.33,-112.08 288.65,-102.02 281.65,-102.15"/>
</g>
<!-- Node6 -->
<g id="node6" class="node">
<title>Node6</title>
<g id="a_node6"><a xlink:href="../../d4/dfc/_a_s_t_factory_8cpp.html" target="_top" xlink:title=" ">
<polygon fill="none" stroke="black" points="178,-0.5 178,-19.5 281,-19.5 281,-0.5 178,-0.5"/>
<text text-anchor="middle" x="229.5" y="-7.5" font-family="Helvetica,sans-Serif" font-size="10.00">src/ASTFactory.cpp</text>
</a>
</g>
</g>
<!-- Node4&#45;&gt;Node6 -->
<g id="edge8" class="edge">
<title>Node4&#45;&gt;Node6</title>
<path fill="none" stroke="midnightblue" d="M251.68,-107.96C237.86,-100.76 223.32,-90.32 215.5,-76 205.43,-57.56 216.76,-32.49 224.14,-19.53"/>
<polygon fill="midnightblue" stroke="midnightblue" points="250.5,-111.28 261.03,-112.44 253.52,-104.97 250.5,-111.28"/>
</g>
<!-- Node4&#45;&gt;Node7 -->
<g id="edge9" class="edge">
<title>Node4&#45;&gt;Node7</title>
<path fill="none" stroke="midnightblue" d="M314.62,-107.71C328.2,-100.17 343.53,-89.52 353.5,-76 366.2,-58.78 370.44,-33.19 371.84,-19.84"/>
<polygon fill="midnightblue" stroke="midnightblue" points="312.83,-104.7 305.58,-112.43 316.07,-110.9 312.83,-104.7"/>
</g>
<!-- Node8 -->
<g id="node8" class="node">
<title>Node8</title>
<g id="a_node8"><a xlink:href="../../d0/d91/_a_s_t_8cpp.html" target="_top" xlink:title=" ">
<polygon fill="none" stroke="black" points="97,-56.5 97,-75.5 168,-75.5 168,-56.5 97,-56.5"/>
<text text-anchor="middle" x="132.5" y="-63.5" font-family="Helvetica,sans-Serif" font-size="10.00">src/AST.cpp</text>
</a>
</g>
</g>
<!-- Node4&#45;&gt;Node8 -->
<g id="edge7" class="edge">
<title>Node4&#45;&gt;Node8</title>
<path fill="none" stroke="midnightblue" d="M251.61,-109.04C222.82,-98.88 182.21,-84.55 156.63,-75.52"/>
<polygon fill="midnightblue" stroke="midnightblue" points="250.66,-112.42 261.26,-112.44 252.99,-105.81 250.66,-112.42"/>
</g>
<!-- Node4&#45;&gt;Node9 -->
<g id="edge10" class="edge">
<title>Node4&#45;&gt;Node9</title>
<path fill="none" stroke="midnightblue" d="M236.67,-110.28C190.18,-100.08 121.14,-84.92 78.3,-75.52"/>
<polygon fill="midnightblue" stroke="midnightblue" points="236,-113.72 246.52,-112.44 237.5,-106.88 236,-113.72"/>
</g>
<!-- Node4&#45;&gt;Node10 -->
<g id="edge11" class="edge">
<title>Node4&#45;&gt;Node10</title>
<path fill="none" stroke="midnightblue" d="M324.24,-109.57C358.76,-99.38 408.51,-84.7 439.64,-75.52"/>
<polygon fill="midnightblue" stroke="midnightblue" points="323.1,-106.26 314.5,-112.44 325.08,-112.97 323.1,-106.26"/>
</g>
<!-- Node5&#45;&gt;Node6 -->
<g id="edge5" class="edge">
<title>Node5&#45;&gt;Node6</title>
<path fill="none" stroke="midnightblue" d="M268.21,-49C258.46,-39.43 246.45,-27.64 238.41,-19.75"/>
<polygon fill="midnightblue" stroke="midnightblue" points="265.83,-51.57 275.42,-56.08 270.73,-46.58 265.83,-51.57"/>
</g>
<!-- Node5&#45;&gt;Node7 -->
<g id="edge6" class="edge">
<title>Node5&#45;&gt;Node7</title>
<path fill="none" stroke="midnightblue" d="M307.48,-50.9C323.61,-41 344.68,-28.07 358.4,-19.65"/>
<polygon fill="midnightblue" stroke="midnightblue" points="305.33,-48.11 298.64,-56.32 308.99,-54.08 305.33,-48.11"/>
</g>
</g>
</svg>
