<?xml version="1.0" encoding="UTF-8" standalone="no"?>
<!DOCTYPE svg PUBLIC "-//W3C//DTD SVG 1.1//EN"
 "http://www.w3.org/Graphics/SVG/1.1/DTD/svg11.dtd">
<!-- Generated by graphviz version 3.0.0 (20220413.0106)
 -->
<!-- Title: include/SyntExp.hpp Pages: 1 -->
<svg width="1016pt" height="263pt"
 viewBox="0.00 0.00 1016.00 263.00" xmlns="http://www.w3.org/2000/svg" xmlns:xlink="http://www.w3.org/1999/xlink">
<g id="graph0" class="graph" transform="scale(1 1) rotate(0) translate(4 259)">
<title>include/SyntExp.hpp</title>
<!-- Node1 -->
<g id="node1" class="node">
<title>Node1</title>
<g id="a_node1"><a xlink:title=" ">
<polygon fill="#bfbfbf" stroke="black" points="605.5,-235.5 605.5,-254.5 709.5,-254.5 709.5,-235.5 605.5,-235.5"/>
<text text-anchor="middle" x="657.5" y="-242.5" font-family="Helvetica,sans-Serif" font-size="10.00">include/SyntExp.hpp</text>
</a>
</g>
</g>
<!-- Node2 -->
<g id="node2" class="node">
<title>Node2</title>
<g id="a_node2"><a xlink:href="../../d0/d7c/_analyze_8hpp.html" target="_top" xlink:title=" ">
<polygon fill="none" stroke="black" points="60.5,-56.5 60.5,-75.5 162.5,-75.5 162.5,-56.5 60.5,-56.5"/>
<text text-anchor="middle" x="111.5" y="-63.5" font-family="Helvetica,sans-Serif" font-size="10.00">include/Analyze.hpp</text>
</a>
</g>
</g>
<!-- Node1&#45;&gt;Node2 -->
<g id="edge1" class="edge">
<title>Node1&#45;&gt;Node2</title>
<path fill="none" stroke="midnightblue" d="M594.9,-241.53C472.46,-236.21 210.22,-222.23 176.5,-199 132.54,-168.71 117.03,-99.9 112.82,-75.65"/>
<polygon fill="midnightblue" stroke="midnightblue" points="595.1,-245.04 605.24,-241.97 595.4,-238.05 595.1,-245.04"/>
</g>
<!-- Node5 -->
<g id="node5" class="node">
<title>Node5</title>
<g id="a_node5"><a xlink:href="../../db/d42/_visitor_8hpp.html" target="_top" xlink:title=" ">
<polygon fill="none" stroke="black" points="514.5,-174 514.5,-193 610.5,-193 610.5,-174 514.5,-174"/>
<text text-anchor="middle" x="562.5" y="-181" font-family="Helvetica,sans-Serif" font-size="10.00">include/Visitor.hpp</text>
</a>
</g>
</g>
<!-- Node1&#45;&gt;Node5 -->
<g id="edge4" class="edge">
<title>Node1&#45;&gt;Node5</title>
<path fill="none" stroke="midnightblue" d="M635.29,-230.09C616.95,-218.6 591.52,-202.68 576.09,-193.01"/>
<polygon fill="midnightblue" stroke="midnightblue" points="633.56,-233.13 643.89,-235.48 637.27,-227.2 633.56,-233.13"/>
</g>
<!-- Node9 -->
<g id="node9" class="node">
<title>Node9</title>
<g id="a_node9"><a xlink:href="../../d1/daa/_syntax_8cpp.html" target="_top" xlink:title=" ">
<polygon fill="none" stroke="black" points="188.5,-0.5 188.5,-19.5 268.5,-19.5 268.5,-0.5 188.5,-0.5"/>
<text text-anchor="middle" x="228.5" y="-7.5" font-family="Helvetica,sans-Serif" font-size="10.00">src/Syntax.cpp</text>
</a>
</g>
</g>
<!-- Node1&#45;&gt;Node9 -->
<g id="edge21" class="edge">
<title>Node1&#45;&gt;Node9</title>
<path fill="none" stroke="midnightblue" d="M613.92,-232.77C583.25,-224.46 541.44,-212.32 505.5,-199 380.33,-152.62 306.59,-186.36 231.5,-76 219.93,-59 223.3,-33.32 226.21,-19.89"/>
<polygon fill="midnightblue" stroke="midnightblue" points="613.3,-236.23 623.87,-235.44 615.12,-229.47 613.3,-236.23"/>
</g>
<!-- Node12 -->
<g id="node12" class="node">
<title>Node12</title>
<g id="a_node12"><a xlink:href="../../db/df9/test_semantic_8cpp.html" target="_top" xlink:title=" ">
<polygon fill="none" stroke="black" points="620.5,-56.5 620.5,-75.5 780.5,-75.5 780.5,-56.5 620.5,-56.5"/>
<text text-anchor="middle" x="700.5" y="-63.5" font-family="Helvetica,sans-Serif" font-size="10.00">tests/semantic/testSemantic.cpp</text>
</a>
</g>
</g>
<!-- Node1&#45;&gt;Node12 -->
<g id="edge23" class="edge">
<title>Node1&#45;&gt;Node12</title>
<path fill="none" stroke="midnightblue" d="M654.49,-225.17C651.09,-198.85 647.78,-150 662.5,-112 668.19,-97.32 680.78,-84.01 689.92,-75.75"/>
<polygon fill="midnightblue" stroke="midnightblue" points="651.05,-225.88 655.94,-235.27 657.98,-224.88 651.05,-225.88"/>
</g>
<!-- Node13 -->
<g id="node13" class="node">
<title>Node13</title>
<g id="a_node13"><a xlink:href="../../dd/de9/test_syntax_8cpp.html" target="_top" xlink:title=" ">
<polygon fill="none" stroke="black" points="798.5,-56.5 798.5,-75.5 934.5,-75.5 934.5,-56.5 798.5,-56.5"/>
<text text-anchor="middle" x="866.5" y="-63.5" font-family="Helvetica,sans-Serif" font-size="10.00">tests/syntax/testSyntax.cpp</text>
</a>
</g>
</g>
<!-- Node1&#45;&gt;Node13 -->
<g id="edge24" class="edge">
<title>Node1&#45;&gt;Node13</title>
<path fill="none" stroke="midnightblue" d="M663.39,-225.4C669.37,-208.81 679.98,-184.64 695.5,-168 738.65,-121.73 807.8,-89.9 843.51,-75.58"/>
<polygon fill="midnightblue" stroke="midnightblue" points="660.01,-224.46 660.12,-235.06 666.64,-226.71 660.01,-224.46"/>
</g>
<!-- Node14 -->
<g id="node14" class="node">
<title>Node14</title>
<g id="a_node14"><a xlink:href="../../dd/d5d/_lexer_8cpp.html" target="_top" xlink:title="Лексер">
<polygon fill="none" stroke="black" points="705,-174 705,-193 780,-193 780,-174 705,-174"/>
<text text-anchor="middle" x="742.5" y="-181" font-family="Helvetica,sans-Serif" font-size="10.00">src/Lexer.cpp</text>
</a>
</g>
</g>
<!-- Node1&#45;&gt;Node14 -->
<g id="edge19" class="edge">
<title>Node1&#45;&gt;Node14</title>
<path fill="none" stroke="midnightblue" d="M678.05,-229.61C694.4,-218.17 716.72,-202.55 730.34,-193.01"/>
<polygon fill="midnightblue" stroke="midnightblue" points="675.86,-226.87 669.68,-235.48 679.88,-232.61 675.86,-226.87"/>
</g>
<!-- Node15 -->
<g id="node15" class="node">
<title>Node15</title>
<g id="a_node15"><a xlink:href="../../d0/d66/_synt_exp_8cpp.html" target="_top" xlink:title=" ">
<polygon fill="none" stroke="black" points="798.5,-174 798.5,-193 884.5,-193 884.5,-174 798.5,-174"/>
<text text-anchor="middle" x="841.5" y="-181" font-family="Helvetica,sans-Serif" font-size="10.00">src/SyntExp.cpp</text>
</a>
</g>
</g>
<!-- Node1&#45;&gt;Node15 -->
<g id="edge20" class="edge">
<title>Node1&#45;&gt;Node15</title>
<path fill="none" stroke="midnightblue" d="M693.43,-232.38C729.2,-220.82 783.24,-203.34 815.19,-193.01"/>
<polygon fill="midnightblue" stroke="midnightblue" points="692.3,-229.07 683.86,-235.48 694.45,-235.73 692.3,-229.07"/>
</g>
<!-- Node16 -->
<g id="node16" class="node">
<title>Node16</title>
<g id="a_node16"><a xlink:href="../../d0/d0f/test_lexer__1_8cpp.html" target="_top" xlink:title="Тесты для лексера">
<polygon fill="none" stroke="black" points="903,-168.5 903,-198.5 1008,-198.5 1008,-168.5 903,-168.5"/>
<text text-anchor="start" x="911" y="-186.5" font-family="Helvetica,sans-Serif" font-size="10.00">tests/lexer/testLexer</text>
<text text-anchor="middle" x="955.5" y="-175.5" font-family="Helvetica,sans-Serif" font-size="10.00">_1.cpp</text>
</a>
</g>
</g>
<!-- Node1&#45;&gt;Node16 -->
<g id="edge22" class="edge">
<title>Node1&#45;&gt;Node16</title>
<path fill="none" stroke="midnightblue" d="M715.4,-233.65C763.26,-224.93 832.93,-211.85 893.5,-199 896.53,-198.36 899.63,-197.68 902.77,-196.99"/>
<polygon fill="midnightblue" stroke="midnightblue" points="714.74,-230.21 705.53,-235.44 715.99,-237.1 714.74,-230.21"/>
</g>
<!-- Node3 -->
<g id="node3" class="node">
<title>Node3</title>
<g id="a_node3"><a xlink:href="../../d3/db4/graph_draw_8cpp.html" target="_top" xlink:title=" ">
<polygon fill="none" stroke="black" points="0,-0.5 0,-19.5 81,-19.5 81,-0.5 0,-0.5"/>
<text text-anchor="middle" x="40.5" y="-7.5" font-family="Helvetica,sans-Serif" font-size="10.00">graphDraw.cpp</text>
</a>
</g>
</g>
<!-- Node2&#45;&gt;Node3 -->
<g id="edge2" class="edge">
<title>Node2&#45;&gt;Node3</title>
<path fill="none" stroke="midnightblue" d="M91.91,-50.1C79.13,-40.38 62.89,-28.03 52.11,-19.83"/>
<polygon fill="midnightblue" stroke="midnightblue" points="90.01,-53.06 100.09,-56.32 94.25,-47.48 90.01,-53.06"/>
</g>
<!-- Node4 -->
<g id="node4" class="node">
<title>Node4</title>
<g id="a_node4"><a xlink:href="../../df/d0a/main_8cpp.html" target="_top" xlink:title=" ">
<polygon fill="none" stroke="black" points="99.5,-0.5 99.5,-19.5 155.5,-19.5 155.5,-0.5 99.5,-0.5"/>
<text text-anchor="middle" x="127.5" y="-7.5" font-family="Helvetica,sans-Serif" font-size="10.00">main.cpp</text>
</a>
</g>
</g>
<!-- Node2&#45;&gt;Node4 -->
<g id="edge3" class="edge">
<title>Node2&#45;&gt;Node4</title>
<path fill="none" stroke="midnightblue" d="M117.01,-46.4C119.69,-37.36 122.78,-26.94 124.91,-19.75"/>
<polygon fill="midnightblue" stroke="midnightblue" points="113.63,-45.5 114.14,-56.08 120.34,-47.49 113.63,-45.5"/>
</g>
<!-- Node5&#45;&gt;Node2 -->
<g id="edge16" class="edge">
<title>Node5&#45;&gt;Node2</title>
<path fill="none" stroke="midnightblue" d="M519.13,-171.39C429.46,-148.43 225.35,-96.16 144.94,-75.56"/>
<polygon fill="midnightblue" stroke="midnightblue" points="518.41,-174.82 528.97,-173.91 520.15,-168.04 518.41,-174.82"/>
</g>
<!-- Node6 -->
<g id="node6" class="node">
<title>Node6</title>
<g id="a_node6"><a xlink:href="../../d4/dcb/_a_s_t_8hpp.html" target="_top" xlink:title=" ">
<polygon fill="none" stroke="black" points="446.5,-112.5 446.5,-131.5 534.5,-131.5 534.5,-112.5 446.5,-112.5"/>
<text text-anchor="middle" x="490.5" y="-119.5" font-family="Helvetica,sans-Serif" font-size="10.00">include/AST.hpp</text>
</a>
</g>
</g>
<!-- Node5&#45;&gt;Node6 -->
<g id="edge5" class="edge">
<title>Node5&#45;&gt;Node6</title>
<path fill="none" stroke="midnightblue" d="M544.32,-167.47C530.54,-156.09 512.12,-140.87 500.8,-131.51"/>
<polygon fill="midnightblue" stroke="midnightblue" points="542.25,-170.3 552.18,-173.98 546.71,-164.91 542.25,-170.3"/>
</g>
<!-- Node11 -->
<g id="node11" class="node">
<title>Node11</title>
<g id="a_node11"><a xlink:href="../../dc/d65/_visitor_8cpp.html" target="_top" xlink:title=" ">
<polygon fill="none" stroke="black" points="523,-56.5 523,-75.5 602,-75.5 602,-56.5 523,-56.5"/>
<text text-anchor="middle" x="562.5" y="-63.5" font-family="Helvetica,sans-Serif" font-size="10.00">src/Visitor.cpp</text>
</a>
</g>
</g>
<!-- Node5&#45;&gt;Node11 -->
<g id="edge17" class="edge">
<title>Node5&#45;&gt;Node11</title>
<path fill="none" stroke="midnightblue" d="M562.5,-163.66C562.5,-138.37 562.5,-94.44 562.5,-75.78"/>
<polygon fill="midnightblue" stroke="midnightblue" points="559,-163.82 562.5,-173.82 566,-163.82 559,-163.82"/>
</g>
<!-- Node5&#45;&gt;Node12 -->
<g id="edge18" class="edge">
<title>Node5&#45;&gt;Node12</title>
<path fill="none" stroke="midnightblue" d="M574.64,-165.91C586.31,-150.71 604.99,-128.17 624.5,-112 642.68,-96.93 666.49,-83.71 682.58,-75.56"/>
<polygon fill="midnightblue" stroke="midnightblue" points="571.84,-163.81 568.64,-173.91 577.44,-168.01 571.84,-163.81"/>
</g>
<!-- Node6&#45;&gt;Node2 -->
<g id="edge9" class="edge">
<title>Node6&#45;&gt;Node2</title>
<path fill="none" stroke="midnightblue" d="M436.36,-113.29C363.32,-102.88 234.15,-84.47 162.67,-74.29"/>
<polygon fill="midnightblue" stroke="midnightblue" points="435.89,-116.75 446.28,-114.7 436.88,-109.82 435.89,-116.75"/>
</g>
<!-- Node7 -->
<g id="node7" class="node">
<title>Node7</title>
<g id="a_node7"><a xlink:href="../../d4/d0d/_a_s_t_factory_8hpp.html" target="_top" xlink:title=" ">
<polygon fill="none" stroke="black" points="346.5,-56.5 346.5,-75.5 466.5,-75.5 466.5,-56.5 346.5,-56.5"/>
<text text-anchor="middle" x="406.5" y="-63.5" font-family="Helvetica,sans-Serif" font-size="10.00">include/ASTFactory.hpp</text>
</a>
</g>
</g>
<!-- Node6&#45;&gt;Node7 -->
<g id="edge6" class="edge">
<title>Node6&#45;&gt;Node7</title>
<path fill="none" stroke="midnightblue" d="M468.57,-106.9C453.16,-97 433.05,-84.07 419.96,-75.65"/>
<polygon fill="midnightblue" stroke="midnightblue" points="466.7,-109.86 477,-112.32 470.48,-103.97 466.7,-109.86"/>
</g>
<!-- Node8 -->
<g id="node8" class="node">
<title>Node8</title>
<g id="a_node8"><a xlink:href="../../d4/dfc/_a_s_t_factory_8cpp.html" target="_top" xlink:title=" ">
<polygon fill="none" stroke="black" points="399,-0.5 399,-19.5 502,-19.5 502,-0.5 399,-0.5"/>
<text text-anchor="middle" x="450.5" y="-7.5" font-family="Helvetica,sans-Serif" font-size="10.00">src/ASTFactory.cpp</text>
</a>
</g>
</g>
<!-- Node6&#45;&gt;Node8 -->
<g id="edge11" class="edge">
<title>Node6&#45;&gt;Node8</title>
<path fill="none" stroke="midnightblue" d="M487.59,-102.16C485.21,-88.95 481.28,-71.05 475.5,-56 470.37,-42.65 461.89,-28.41 456.25,-19.61"/>
<polygon fill="midnightblue" stroke="midnightblue" points="484.2,-103.07 489.3,-112.36 491.1,-101.92 484.2,-103.07"/>
</g>
<!-- Node6&#45;&gt;Node9 -->
<g id="edge12" class="edge">
<title>Node6&#45;&gt;Node9</title>
<path fill="none" stroke="midnightblue" d="M436.12,-117.48C373.15,-112.31 274.6,-100.49 247.5,-76 231.27,-61.34 228.6,-33.67 228.35,-19.63"/>
<polygon fill="midnightblue" stroke="midnightblue" points="436.04,-120.98 446.28,-118.28 436.59,-114.01 436.04,-120.98"/>
</g>
<!-- Node10 -->
<g id="node10" class="node">
<title>Node10</title>
<g id="a_node10"><a xlink:href="../../d0/d91/_a_s_t_8cpp.html" target="_top" xlink:title=" ">
<polygon fill="none" stroke="black" points="257,-56.5 257,-75.5 328,-75.5 328,-56.5 257,-56.5"/>
<text text-anchor="middle" x="292.5" y="-63.5" font-family="Helvetica,sans-Serif" font-size="10.00">src/AST.cpp</text>
</a>
</g>
</g>
<!-- Node6&#45;&gt;Node10 -->
<g id="edge10" class="edge">
<title>Node6&#45;&gt;Node10</title>
<path fill="none" stroke="midnightblue" d="M449.06,-109.7C411.69,-99.51 357.56,-84.74 323.73,-75.52"/>
<polygon fill="midnightblue" stroke="midnightblue" points="448.56,-113.19 459.13,-112.44 450.4,-106.44 448.56,-113.19"/>
</g>
<!-- Node6&#45;&gt;Node11 -->
<g id="edge13" class="edge">
<title>Node6&#45;&gt;Node11</title>
<path fill="none" stroke="midnightblue" d="M510.37,-106.1C523.32,-96.38 539.8,-84.03 550.72,-75.83"/>
<polygon fill="midnightblue" stroke="midnightblue" points="507.97,-103.52 502.07,-112.32 512.17,-109.12 507.97,-103.52"/>
</g>
<!-- Node6&#45;&gt;Node12 -->
<g id="edge14" class="edge">
<title>Node6&#45;&gt;Node12</title>
<path fill="none" stroke="midnightblue" d="M533.69,-109.89C573.35,-99.7 631.27,-84.8 667.38,-75.52"/>
<polygon fill="midnightblue" stroke="midnightblue" points="532.59,-106.56 523.78,-112.44 534.33,-113.34 532.59,-106.56"/>
</g>
<!-- Node6&#45;&gt;Node13 -->
<g id="edge15" class="edge">
<title>Node6&#45;&gt;Node13</title>
<path fill="none" stroke="midnightblue" d="M544.65,-113.22C614.39,-103.21 735.2,-85.86 807.31,-75.5"/>
<polygon fill="midnightblue" stroke="midnightblue" points="544.14,-109.76 534.74,-114.65 545.13,-116.69 544.14,-109.76"/>
</g>
<!-- Node7&#45;&gt;Node8 -->
<g id="edge7" class="edge">
<title>Node7&#45;&gt;Node8</title>
<path fill="none" stroke="midnightblue" d="M420.23,-48.14C427.9,-38.74 437.13,-27.4 443.37,-19.75"/>
<polygon fill="midnightblue" stroke="midnightblue" points="417.37,-46.12 413.77,-56.08 422.8,-50.54 417.37,-46.12"/>
</g>
<!-- Node7&#45;&gt;Node9 -->
<g id="edge8" class="edge">
<title>Node7&#45;&gt;Node9</title>
<path fill="none" stroke="midnightblue" d="M368.38,-53.44C334.82,-43.26 286.73,-28.66 256.57,-19.52"/>
<polygon fill="midnightblue" stroke="midnightblue" points="367.71,-56.89 378.3,-56.44 369.74,-50.19 367.71,-56.89"/>
</g>
</g>
</svg>
