<?xml version="1.0" encoding="UTF-8" standalone="no"?>
<!DOCTYPE svg PUBLIC "-//W3C//DTD SVG 1.1//EN"
 "http://www.w3.org/Graphics/SVG/1.1/DTD/svg11.dtd">
<!-- Generated by graphviz version 3.0.0 (20220413.0106)
 -->
<!-- Title: include/SyntExp.hpp Pages: 1 -->
<svg width="869pt" height="95pt"
 viewBox="0.00 0.00 868.50 95.00" xmlns="http://www.w3.org/2000/svg" xmlns:xlink="http://www.w3.org/1999/xlink">
<g id="graph0" class="graph" transform="scale(1 1) rotate(0) translate(4 91)">
<title>include/SyntExp.hpp</title>
<!-- Node1 -->
<g id="node1" class="node">
<title>Node1</title>
<g id="a_node1"><a xlink:title="Исключения анализатора">
<polygon fill="#bfbfbf" stroke="black" points="313.5,-67.5 313.5,-86.5 417.5,-86.5 417.5,-67.5 313.5,-67.5"/>
<text text-anchor="middle" x="365.5" y="-74.5" font-family="Helvetica,sans-Serif" font-size="10.00">include/SyntExp.hpp</text>
</a>
</g>
</g>
<!-- Node2 -->
<g id="node2" class="node">
<title>Node2</title>
<g id="a_node2"><a xlink:href="../../dd/d5d/_lexer_8cpp.html" target="_top" xlink:title=" ">
<polygon fill="none" stroke="black" points="0,-6 0,-25 75,-25 75,-6 0,-6"/>
<text text-anchor="middle" x="37.5" y="-13" font-family="Helvetica,sans-Serif" font-size="10.00">src/Lexer.cpp</text>
</a>
</g>
</g>
<!-- Node1&#45;&gt;Node2 -->
<g id="edge1" class="edge">
<title>Node1&#45;&gt;Node2</title>
<path fill="none" stroke="midnightblue" d="M303.3,-68.59C246.04,-61.17 158.94,-48.35 84.5,-31 77.51,-29.37 70.05,-27.25 63.18,-25.14"/>
<polygon fill="midnightblue" stroke="midnightblue" points="302.92,-72.07 313.28,-69.87 303.81,-65.13 302.92,-72.07"/>
</g>
<!-- Node3 -->
<g id="node3" class="node">
<title>Node3</title>
<g id="a_node3"><a xlink:href="../../dd/d15/_pascal_syntax_8cpp.html" target="_top" xlink:title=" ">
<polygon fill="none" stroke="black" points="93.5,-6 93.5,-25 203.5,-25 203.5,-6 93.5,-6"/>
<text text-anchor="middle" x="148.5" y="-13" font-family="Helvetica,sans-Serif" font-size="10.00">src/PascalSyntax.cpp</text>
</a>
</g>
</g>
<!-- Node1&#45;&gt;Node3 -->
<g id="edge2" class="edge">
<title>Node1&#45;&gt;Node3</title>
<path fill="none" stroke="midnightblue" d="M324.73,-64.82C282.58,-53.26 217.7,-35.47 179.53,-25.01"/>
<polygon fill="midnightblue" stroke="midnightblue" points="323.84,-68.21 334.41,-67.48 325.69,-61.46 323.84,-68.21"/>
</g>
<!-- Node4 -->
<g id="node4" class="node">
<title>Node4</title>
<g id="a_node4"><a xlink:href="../../d0/d66/_synt_exp_8cpp.html" target="_top" xlink:title=" ">
<polygon fill="none" stroke="black" points="221.5,-6 221.5,-25 307.5,-25 307.5,-6 221.5,-6"/>
<text text-anchor="middle" x="264.5" y="-13" font-family="Helvetica,sans-Serif" font-size="10.00">src/SyntExp.cpp</text>
</a>
</g>
</g>
<!-- Node1&#45;&gt;Node4 -->
<g id="edge3" class="edge">
<title>Node1&#45;&gt;Node4</title>
<path fill="none" stroke="midnightblue" d="M342.15,-62.24C322.64,-50.75 295.43,-34.72 278.94,-25.01"/>
<polygon fill="midnightblue" stroke="midnightblue" points="340.64,-65.41 351.03,-67.48 344.19,-59.38 340.64,-65.41"/>
</g>
<!-- Node5 -->
<g id="node5" class="node">
<title>Node5</title>
<g id="a_node5"><a xlink:href="../../dc/d65/_visitor_8cpp.html" target="_top" xlink:title=" ">
<polygon fill="none" stroke="black" points="326,-6 326,-25 405,-25 405,-6 326,-6"/>
<text text-anchor="middle" x="365.5" y="-13" font-family="Helvetica,sans-Serif" font-size="10.00">src/Visitor.cpp</text>
</a>
</g>
</g>
<!-- Node1&#45;&gt;Node5 -->
<g id="edge4" class="edge">
<title>Node1&#45;&gt;Node5</title>
<path fill="none" stroke="midnightblue" d="M365.5,-57.32C365.5,-46.5 365.5,-33.4 365.5,-25.01"/>
<polygon fill="midnightblue" stroke="midnightblue" points="362,-57.48 365.5,-67.48 369,-57.48 362,-57.48"/>
</g>
<!-- Node6 -->
<g id="node6" class="node">
<title>Node6</title>
<g id="a_node6"><a xlink:href="../../d0/d0f/test_lexer__1_8cpp.html" target="_top" xlink:title=" ">
<polygon fill="none" stroke="black" points="423,-0.5 423,-30.5 528,-30.5 528,-0.5 423,-0.5"/>
<text text-anchor="start" x="431" y="-18.5" font-family="Helvetica,sans-Serif" font-size="10.00">tests/lexer/testLexer</text>
<text text-anchor="middle" x="475.5" y="-7.5" font-family="Helvetica,sans-Serif" font-size="10.00">_1.cpp</text>
</a>
</g>
</g>
<!-- Node1&#45;&gt;Node6 -->
<g id="edge5" class="edge">
<title>Node1&#45;&gt;Node6</title>
<path fill="none" stroke="midnightblue" d="M390.38,-62.54C408.04,-52.99 431.69,-40.2 449.58,-30.52"/>
<polygon fill="midnightblue" stroke="midnightblue" points="388.39,-59.64 381.26,-67.48 391.72,-65.8 388.39,-59.64"/>
</g>
<!-- Node7 -->
<g id="node7" class="node">
<title>Node7</title>
<g id="a_node7"><a xlink:href="../../db/df9/test_semantic_8cpp.html" target="_top" xlink:title=" ">
<polygon fill="none" stroke="black" points="546.5,-6 546.5,-25 706.5,-25 706.5,-6 546.5,-6"/>
<text text-anchor="middle" x="626.5" y="-13" font-family="Helvetica,sans-Serif" font-size="10.00">tests/semantic/testSemantic.cpp</text>
</a>
</g>
</g>
<!-- Node1&#45;&gt;Node7 -->
<g id="edge6" class="edge">
<title>Node1&#45;&gt;Node7</title>
<path fill="none" stroke="midnightblue" d="M412.94,-65.19C463.58,-53.64 542.79,-35.58 589.17,-25.01"/>
<polygon fill="midnightblue" stroke="midnightblue" points="411.87,-61.84 402.89,-67.48 413.42,-68.66 411.87,-61.84"/>
</g>
<!-- Node8 -->
<g id="node8" class="node">
<title>Node8</title>
<g id="a_node8"><a xlink:href="../../dd/de9/test_syntax_8cpp.html" target="_top" xlink:title=" ">
<polygon fill="none" stroke="black" points="724.5,-6 724.5,-25 860.5,-25 860.5,-6 724.5,-6"/>
<text text-anchor="middle" x="792.5" y="-13" font-family="Helvetica,sans-Serif" font-size="10.00">tests/syntax/testSyntax.cpp</text>
</a>
</g>
</g>
<!-- Node1&#45;&gt;Node8 -->
<g id="edge7" class="edge">
<title>Node1&#45;&gt;Node8</title>
<path fill="none" stroke="midnightblue" d="M427.51,-69.13C497.59,-61.12 615,-46.91 715.5,-31 726.52,-29.26 738.38,-27.14 749.41,-25.07"/>
<polygon fill="midnightblue" stroke="midnightblue" points="427.06,-65.66 417.52,-70.27 427.85,-72.62 427.06,-65.66"/>
</g>
</g>
</svg>
