<?xml version="1.0" encoding="UTF-8" standalone="no"?>
<!DOCTYPE svg PUBLIC "-//W3C//DTD SVG 1.1//EN"
 "http://www.w3.org/Graphics/SVG/1.1/DTD/svg11.dtd">
<!-- Generated by graphviz version 2.43.0 (0)
 -->
<!-- Title: IToken::getType Pages: 1 -->
<svg width="2588pt" height="294pt"
 viewBox="0.00 0.00 2588.00 294.00" xmlns="http://www.w3.org/2000/svg" xmlns:xlink="http://www.w3.org/1999/xlink">
<g id="graph0" class="graph" transform="scale(1 1) rotate(0) translate(4 290)">
<title>IToken::getType</title>
<!-- Node1 -->
<g id="node1" class="node">
<title>Node1</title>
<g id="a_node1"><a xlink:title="Получение типа токена">
<polygon fill="#bfbfbf" stroke="black" points="2488,-114.5 2488,-133.5 2580,-133.5 2580,-114.5 2488,-114.5"/>
<text text-anchor="middle" x="2534" y="-121.5" font-family="Helvetica,sans-Serif" font-size="10.00">IToken::getType</text>
</a>
</g>
</g>
<!-- Node2 -->
<g id="node2" class="node">
<title>Node2</title>
<g id="a_node2"><a xlink:href="../../da/d5a/class_lexer.html#a473a8abf892384a3e2769651318d7ab1" target="_top" xlink:title="Анализирует текст программы">
<polygon fill="none" stroke="black" points="2303,-228.5 2303,-247.5 2452,-247.5 2452,-228.5 2303,-228.5"/>
<text text-anchor="middle" x="2377.5" y="-235.5" font-family="Helvetica,sans-Serif" font-size="10.00">Lexer::analyzeProgramText</text>
</a>
</g>
</g>
<!-- Node1&#45;&gt;Node2 -->
<g id="edge1" class="edge">
<title>Node1&#45;&gt;Node2</title>
<path fill="none" stroke="midnightblue" d="M2522.26,-142.4C2508.67,-164.04 2483.22,-199.48 2452,-219 2445.74,-222.91 2438.71,-226.02 2431.53,-228.5"/>
<polygon fill="midnightblue" stroke="midnightblue" points="2525.29,-144.16 2527.5,-133.79 2519.31,-140.52 2525.29,-144.16"/>
</g>
<!-- Node6 -->
<g id="node6" class="node">
<title>Node6</title>
<g id="a_node6"><a xlink:href="../../db/dc1/class_token.html#a014ced0a9ea72ae21fad0d4f116d0a73" target="_top" xlink:title=" ">
<polygon fill="none" stroke="black" points="2335,-190.5 2335,-209.5 2420,-209.5 2420,-190.5 2335,-190.5"/>
<text text-anchor="middle" x="2377.5" y="-197.5" font-family="Helvetica,sans-Serif" font-size="10.00">Token::getInfo</text>
</a>
</g>
</g>
<!-- Node1&#45;&gt;Node6 -->
<g id="edge5" class="edge">
<title>Node1&#45;&gt;Node6</title>
<path fill="none" stroke="midnightblue" d="M2511.91,-139.67C2496.05,-150.92 2473.45,-165.82 2452,-176 2439.99,-181.7 2426.28,-186.58 2413.98,-190.42"/>
<polygon fill="midnightblue" stroke="midnightblue" points="2514.35,-142.23 2520.41,-133.54 2510.25,-136.55 2514.35,-142.23"/>
</g>
<!-- Node7 -->
<g id="node7" class="node">
<title>Node7</title>
<g id="a_node7"><a xlink:href="../../d0/dfe/class_syntax_analyzer.html#ab9b415ddd671b4884ab31cdf194f6c64" target="_top" xlink:title=" ">
<polygon fill="none" stroke="black" points="2106,-152.5 2106,-171.5 2267,-171.5 2267,-152.5 2106,-152.5"/>
<text text-anchor="middle" x="2186.5" y="-159.5" font-family="Helvetica,sans-Serif" font-size="10.00">SyntaxAnalyzer::syntaxFactor</text>
</a>
</g>
</g>
<!-- Node1&#45;&gt;Node7 -->
<g id="edge31" class="edge">
<title>Node1&#45;&gt;Node7</title>
<path fill="none" stroke="midnightblue" d="M2477.73,-134.17C2469.13,-135.57 2460.34,-136.9 2452,-138 2390.17,-146.13 2319.84,-152.37 2267.26,-156.45"/>
<polygon fill="midnightblue" stroke="midnightblue" points="2478.4,-137.6 2487.69,-132.5 2477.25,-130.7 2478.4,-137.6"/>
</g>
<!-- Node8 -->
<g id="node8" class="node">
<title>Node8</title>
<g id="a_node8"><a xlink:href="../../d0/dfe/class_syntax_analyzer.html#a7721cf7d36d549f81fd05c40dba02f67" target="_top" xlink:title=" ">
<polygon fill="none" stroke="black" points="1914,-114.5 1914,-133.5 2070,-133.5 2070,-114.5 1914,-114.5"/>
<text text-anchor="middle" x="1992" y="-121.5" font-family="Helvetica,sans-Serif" font-size="10.00">SyntaxAnalyzer::syntaxTerm</text>
</a>
</g>
</g>
<!-- Node1&#45;&gt;Node8 -->
<g id="edge33" class="edge">
<title>Node1&#45;&gt;Node8</title>
<path fill="none" stroke="midnightblue" d="M2477.73,-124C2380.89,-124 2180.39,-124 2070.02,-124"/>
<polygon fill="midnightblue" stroke="midnightblue" points="2477.89,-127.5 2487.89,-124 2477.89,-120.5 2477.89,-127.5"/>
</g>
<!-- Node9 -->
<g id="node9" class="node">
<title>Node9</title>
<g id="a_node9"><a xlink:href="../../d0/dfe/class_syntax_analyzer.html#a920d9565d4aa2e3815ff9e7146f45a0b" target="_top" xlink:title=" ">
<polygon fill="none" stroke="black" points="1690,-114.5 1690,-133.5 1878,-133.5 1878,-114.5 1690,-114.5"/>
<text text-anchor="middle" x="1784" y="-121.5" font-family="Helvetica,sans-Serif" font-size="10.00">SyntaxAnalyzer::syntaxSimpleExpr</text>
</a>
</g>
</g>
<!-- Node1&#45;&gt;Node9 -->
<g id="edge32" class="edge">
<title>Node1&#45;&gt;Node9</title>
<path fill="none" stroke="midnightblue" d="M2477.85,-118.48C2369.6,-108.48 2121.76,-89.78 1914,-105 1888.71,-106.85 1860.86,-110.72 1837.53,-114.49"/>
<polygon fill="midnightblue" stroke="midnightblue" points="2477.6,-121.97 2487.88,-119.42 2478.25,-115 2477.6,-121.97"/>
</g>
<!-- Node10 -->
<g id="node10" class="node">
<title>Node10</title>
<g id="a_node10"><a xlink:href="../../d0/dfe/class_syntax_analyzer.html#a53b0048490647d82a92a77ed1ffb013d" target="_top" xlink:title=" ">
<polygon fill="none" stroke="black" points="1500,-114.5 1500,-133.5 1654,-133.5 1654,-114.5 1500,-114.5"/>
<text text-anchor="middle" x="1577" y="-121.5" font-family="Helvetica,sans-Serif" font-size="10.00">SyntaxAnalyzer::syntaxExpr</text>
</a>
</g>
</g>
<!-- Node1&#45;&gt;Node10 -->
<g id="edge30" class="edge">
<title>Node1&#45;&gt;Node10</title>
<path fill="none" stroke="midnightblue" d="M2497.76,-110.94C2435.88,-89.21 2303.27,-48 2187.5,-48 2187.5,-48 2187.5,-48 1991,-48 1845.74,-48 1676.41,-94.04 1608.47,-114.45"/>
<polygon fill="midnightblue" stroke="midnightblue" points="2496.82,-114.32 2507.42,-114.37 2499.17,-107.72 2496.82,-114.32"/>
</g>
<!-- Node22 -->
<g id="node22" class="node">
<title>Node22</title>
<g id="a_node22"><a xlink:href="../../da/d38/class_code_gen_visitor.html#a419219249ed5080058b6bfb31c67365f" target="_top" xlink:title=" ">
<polygon fill="none" stroke="black" points="2318,-0.5 2318,-19.5 2437,-19.5 2437,-0.5 2318,-0.5"/>
<text text-anchor="middle" x="2377.5" y="-7.5" font-family="Helvetica,sans-Serif" font-size="10.00">CodeGenVisitor::visit</text>
</a>
</g>
</g>
<!-- Node1&#45;&gt;Node22 -->
<g id="edge34" class="edge">
<title>Node1&#45;&gt;Node22</title>
<path fill="none" stroke="midnightblue" d="M2521.2,-106.01C2507.04,-85.75 2481.49,-53.19 2452,-34 2442.55,-27.85 2431.39,-23.15 2420.65,-19.62"/>
<polygon fill="midnightblue" stroke="midnightblue" points="2518.36,-108.05 2526.88,-114.35 2524.15,-104.11 2518.36,-108.05"/>
</g>
<!-- Node3 -->
<g id="node3" class="node">
<title>Node3</title>
<g id="a_node3"><a xlink:href="../../da/d5a/class_lexer.html#afcb6ff36e1b746fec7df3a9ea7f63fff" target="_top" xlink:title="Анализирует файл">
<polygon fill="none" stroke="black" points="2134.5,-228.5 2134.5,-247.5 2238.5,-247.5 2238.5,-228.5 2134.5,-228.5"/>
<text text-anchor="middle" x="2186.5" y="-235.5" font-family="Helvetica,sans-Serif" font-size="10.00">Lexer::analyzeFile</text>
</a>
</g>
</g>
<!-- Node2&#45;&gt;Node3 -->
<g id="edge2" class="edge">
<title>Node2&#45;&gt;Node3</title>
<path fill="none" stroke="midnightblue" d="M2292.74,-238C2274.33,-238 2255.38,-238 2238.71,-238"/>
<polygon fill="midnightblue" stroke="midnightblue" points="2292.89,-241.5 2302.89,-238 2292.89,-234.5 2292.89,-241.5"/>
</g>
<!-- Node4 -->
<g id="node4" class="node">
<title>Node4</title>
<g id="a_node4"><a xlink:href="../../df/d0a/main_8cpp.html#a3c04138a5bfe5d72780bb7e82a18e627" target="_top" xlink:title=" ">
<polygon fill="none" stroke="black" points="0,-226.5 0,-245.5 41,-245.5 41,-226.5 0,-226.5"/>
<text text-anchor="middle" x="20.5" y="-233.5" font-family="Helvetica,sans-Serif" font-size="10.00">main</text>
</a>
</g>
</g>
<!-- Node3&#45;&gt;Node4 -->
<g id="edge3" class="edge">
<title>Node3&#45;&gt;Node4</title>
<path fill="none" stroke="midnightblue" d="M2124.08,-238C2045.48,-238 1905.11,-238 1785,-238 1785,-238 1785,-238 357.5,-238 237.33,-238 92.99,-236.7 41.19,-236.2"/>
<polygon fill="midnightblue" stroke="midnightblue" points="2124.29,-241.5 2134.29,-238 2124.29,-234.5 2124.29,-241.5"/>
</g>
<!-- Node5 -->
<g id="node5" class="node">
<title>Node5</title>
<g id="a_node5"><a xlink:href="../../d0/d0f/test_lexer__1_8cpp.html#a42b988f5ceb814376db8a2df3c933b15" target="_top" xlink:title="Тест разбора простых математических выражений">
<polygon fill="none" stroke="black" points="1971.5,-266.5 1971.5,-285.5 2012.5,-285.5 2012.5,-266.5 1971.5,-266.5"/>
<text text-anchor="middle" x="1992" y="-273.5" font-family="Helvetica,sans-Serif" font-size="10.00">TEST</text>
</a>
</g>
</g>
<!-- Node3&#45;&gt;Node5 -->
<g id="edge4" class="edge">
<title>Node3&#45;&gt;Node5</title>
<path fill="none" stroke="midnightblue" d="M2126.78,-249.59C2088,-257.25 2039.58,-266.8 2012.92,-272.07"/>
<polygon fill="midnightblue" stroke="midnightblue" points="2127.79,-252.96 2136.92,-247.59 2126.44,-246.09 2127.79,-252.96"/>
</g>
<!-- Node6&#45;&gt;Node7 -->
<g id="edge6" class="edge">
<title>Node6&#45;&gt;Node7</title>
<path fill="none" stroke="midnightblue" d="M2324.55,-189.56C2296.55,-183.93 2262.26,-177.03 2234.98,-171.55"/>
<polygon fill="midnightblue" stroke="midnightblue" points="2324.06,-193.03 2334.55,-191.57 2325.44,-186.16 2324.06,-193.03"/>
</g>
<!-- Node7&#45;&gt;Node8 -->
<g id="edge7" class="edge">
<title>Node7&#45;&gt;Node8</title>
<path fill="none" stroke="midnightblue" d="M2127.05,-150.46C2099.59,-145.04 2067.26,-138.66 2041.23,-133.52"/>
<polygon fill="midnightblue" stroke="midnightblue" points="2126.44,-153.91 2136.92,-152.41 2127.79,-147.04 2126.44,-153.91"/>
</g>
<!-- Node8&#45;&gt;Node9 -->
<g id="edge8" class="edge">
<title>Node8&#45;&gt;Node9</title>
<path fill="none" stroke="midnightblue" d="M1903.51,-124C1895.07,-124 1886.5,-124 1878.02,-124"/>
<polygon fill="midnightblue" stroke="midnightblue" points="1903.71,-127.5 1913.71,-124 1903.71,-120.5 1903.71,-127.5"/>
</g>
<!-- Node9&#45;&gt;Node10 -->
<g id="edge9" class="edge">
<title>Node9&#45;&gt;Node10</title>
<path fill="none" stroke="midnightblue" d="M1679.69,-124C1671.07,-124 1662.45,-124 1654.09,-124"/>
<polygon fill="midnightblue" stroke="midnightblue" points="1679.8,-127.5 1689.8,-124 1679.8,-120.5 1679.8,-127.5"/>
</g>
<!-- Node10&#45;&gt;Node7 -->
<g id="edge27" class="edge">
<title>Node10&#45;&gt;Node7</title>
<path fill="none" stroke="midnightblue" d="M1635.77,-135.27C1653.14,-138.26 1672.29,-141.17 1690,-143 1836.21,-158.14 2007.82,-161.54 2105.89,-162.12"/>
<polygon fill="midnightblue" stroke="midnightblue" points="1636.23,-131.8 1625.77,-133.51 1635.01,-138.69 1636.23,-131.8"/>
</g>
<!-- Node11 -->
<g id="node11" class="node">
<title>Node11</title>
<g id="a_node11"><a xlink:href="../../d0/dfe/class_syntax_analyzer.html#ae57b60364b17a4772143fe9a6c3bc2c7" target="_top" xlink:title=" ">
<polygon fill="none" stroke="black" points="1290,-114.5 1290,-133.5 1464,-133.5 1464,-114.5 1290,-114.5"/>
<text text-anchor="middle" x="1377" y="-121.5" font-family="Helvetica,sans-Serif" font-size="10.00">SyntaxAnalyzer::syntaxAssignSt</text>
</a>
</g>
</g>
<!-- Node10&#45;&gt;Node11 -->
<g id="edge10" class="edge">
<title>Node10&#45;&gt;Node11</title>
<path fill="none" stroke="midnightblue" d="M1489.53,-124C1481.1,-124 1472.55,-124 1464.12,-124"/>
<polygon fill="midnightblue" stroke="midnightblue" points="1489.73,-127.5 1499.73,-124 1489.73,-120.5 1489.73,-127.5"/>
</g>
<!-- Node13 -->
<g id="node13" class="node">
<title>Node13</title>
<g id="a_node13"><a xlink:href="../../d0/dfe/class_syntax_analyzer.html#addd3ca96f66a5261f904e2e0c78a898a" target="_top" xlink:title=" ">
<polygon fill="none" stroke="black" points="916.5,-76.5 916.5,-95.5 1065.5,-95.5 1065.5,-76.5 916.5,-76.5"/>
<text text-anchor="middle" x="991" y="-83.5" font-family="Helvetica,sans-Serif" font-size="10.00">SyntaxAnalyzer::syntaxIfSt</text>
</a>
</g>
</g>
<!-- Node10&#45;&gt;Node13 -->
<g id="edge28" class="edge">
<title>Node10&#45;&gt;Node13</title>
<path fill="none" stroke="midnightblue" d="M1517.98,-112.71C1500.68,-109.73 1481.63,-106.84 1464,-105 1323.71,-90.34 1158.86,-86.8 1065.79,-86.06"/>
<polygon fill="midnightblue" stroke="midnightblue" points="1517.49,-116.17 1527.95,-114.46 1518.71,-109.28 1517.49,-116.17"/>
</g>
<!-- Node20 -->
<g id="node20" class="node">
<title>Node20</title>
<g id="a_node20"><a xlink:href="../../d0/dfe/class_syntax_analyzer.html#a35bb1125afde4b827a0dd8f3bce8dc58" target="_top" xlink:title=" ">
<polygon fill="none" stroke="black" points="906,-190.5 906,-209.5 1076,-209.5 1076,-190.5 906,-190.5"/>
<text text-anchor="middle" x="991" y="-197.5" font-family="Helvetica,sans-Serif" font-size="10.00">SyntaxAnalyzer::syntaxWhileSt</text>
</a>
</g>
</g>
<!-- Node10&#45;&gt;Node20 -->
<g id="edge29" class="edge">
<title>Node10&#45;&gt;Node20</title>
<path fill="none" stroke="midnightblue" d="M1512.83,-135.26C1496.92,-137.95 1479.85,-140.7 1464,-143 1328.61,-162.65 1170.67,-180.75 1076.14,-191.07"/>
<polygon fill="midnightblue" stroke="midnightblue" points="1513.83,-138.64 1523.1,-133.51 1512.65,-131.74 1513.83,-138.64"/>
</g>
<!-- Node21 -->
<g id="node21" class="node">
<title>Node21</title>
<g id="a_node21"><a xlink:href="../../d0/dfe/class_syntax_analyzer.html#a9321de68e44f3918a71256a3c1cd481b" target="_top" xlink:title=" ">
<polygon fill="none" stroke="black" points="1296.5,-190.5 1296.5,-209.5 1457.5,-209.5 1457.5,-190.5 1296.5,-190.5"/>
<text text-anchor="middle" x="1377" y="-197.5" font-family="Helvetica,sans-Serif" font-size="10.00">SyntaxAnalyzer::syntaxCallSt</text>
</a>
</g>
</g>
<!-- Node10&#45;&gt;Node21 -->
<g id="edge24" class="edge">
<title>Node10&#45;&gt;Node21</title>
<path fill="none" stroke="midnightblue" d="M1548.56,-138.27C1526.2,-149.52 1493.61,-165.08 1464,-176 1449.02,-181.53 1432.17,-186.49 1417.39,-190.45"/>
<polygon fill="midnightblue" stroke="midnightblue" points="1550.44,-141.24 1557.76,-133.59 1547.26,-135 1550.44,-141.24"/>
</g>
<!-- Node12 -->
<g id="node12" class="node">
<title>Node12</title>
<g id="a_node12"><a xlink:href="../../d0/dfe/class_syntax_analyzer.html#affae37bc1fa3a4016dcffad4affbfcbd" target="_top" xlink:title=" ">
<polygon fill="none" stroke="black" points="1112,-114.5 1112,-133.5 1254,-133.5 1254,-114.5 1112,-114.5"/>
<text text-anchor="middle" x="1183" y="-121.5" font-family="Helvetica,sans-Serif" font-size="10.00">SyntaxAnalyzer::syntaxSt</text>
</a>
</g>
</g>
<!-- Node11&#45;&gt;Node12 -->
<g id="edge11" class="edge">
<title>Node11&#45;&gt;Node12</title>
<path fill="none" stroke="midnightblue" d="M1279.7,-124C1271.06,-124 1262.43,-124 1254.08,-124"/>
<polygon fill="midnightblue" stroke="midnightblue" points="1279.83,-127.5 1289.83,-124 1279.83,-120.5 1279.83,-127.5"/>
</g>
<!-- Node12&#45;&gt;Node13 -->
<g id="edge12" class="edge">
<title>Node12&#45;&gt;Node13</title>
<path fill="none" stroke="midnightblue" d="M1147.64,-111.79C1124.75,-105.96 1093.8,-99.35 1065.52,-94.11"/>
<polygon fill="midnightblue" stroke="midnightblue" points="1146.99,-115.24 1157.55,-114.41 1148.77,-108.47 1146.99,-115.24"/>
</g>
<!-- Node14 -->
<g id="node14" class="node">
<title>Node14</title>
<g id="a_node14"><a xlink:href="../../d0/dfe/class_syntax_analyzer.html#a79a0e444afd499634f445f0b8919dd0f" target="_top" xlink:title=" ">
<polygon fill="none" stroke="black" points="911.5,-152.5 911.5,-171.5 1070.5,-171.5 1070.5,-152.5 911.5,-152.5"/>
<text text-anchor="middle" x="991" y="-159.5" font-family="Helvetica,sans-Serif" font-size="10.00">SyntaxAnalyzer::syntaxStList</text>
</a>
</g>
</g>
<!-- Node12&#45;&gt;Node14 -->
<g id="edge14" class="edge">
<title>Node12&#45;&gt;Node14</title>
<path fill="none" stroke="midnightblue" d="M1123.95,-135.61C1096.93,-141.01 1065.18,-147.36 1039.6,-152.48"/>
<polygon fill="midnightblue" stroke="midnightblue" points="1124.94,-138.98 1134.05,-133.59 1123.56,-132.12 1124.94,-138.98"/>
</g>
<!-- Node12&#45;&gt;Node20 -->
<g id="edge22" class="edge">
<title>Node12&#45;&gt;Node20</title>
<path fill="none" stroke="midnightblue" d="M1112.91,-138.47C1112.6,-138.64 1112.3,-138.82 1112,-139 1093.34,-150.09 1095.23,-161.93 1076,-172 1057.19,-181.85 1033.4,-186.61 1015.95,-190.45"/>
<polygon fill="midnightblue" stroke="midnightblue" points="1114.82,-141.42 1122.05,-133.67 1111.57,-135.22 1114.82,-141.42"/>
</g>
<!-- Node13&#45;&gt;Node12 -->
<g id="edge13" class="edge">
<title>Node13&#45;&gt;Node12</title>
<path fill="none" stroke="midnightblue" d="M1026.48,-98.24C1050.26,-104.29 1082.69,-111.18 1111.79,-116.5"/>
<polygon fill="midnightblue" stroke="midnightblue" points="1027.1,-94.78 1016.54,-95.62 1025.31,-101.55 1027.1,-94.78"/>
</g>
<!-- Node15 -->
<g id="node15" class="node">
<title>Node15</title>
<g id="a_node15"><a xlink:href="../../d0/dfe/class_syntax_analyzer.html#a2c0c19bfe9775405a5b6985cf1c8854c" target="_top" xlink:title=" ">
<polygon fill="none" stroke="black" points="676,-152.5 676,-171.5 870,-171.5 870,-152.5 676,-152.5"/>
<text text-anchor="middle" x="773" y="-159.5" font-family="Helvetica,sans-Serif" font-size="10.00">SyntaxAnalyzer::syntaxCompoundSt</text>
</a>
</g>
</g>
<!-- Node14&#45;&gt;Node15 -->
<g id="edge15" class="edge">
<title>Node14&#45;&gt;Node15</title>
<path fill="none" stroke="midnightblue" d="M901.26,-162C891.01,-162 880.53,-162 870.19,-162"/>
<polygon fill="midnightblue" stroke="midnightblue" points="901.41,-165.5 911.41,-162 901.41,-158.5 901.41,-165.5"/>
</g>
<!-- Node15&#45;&gt;Node12 -->
<g id="edge21" class="edge">
<title>Node15&#45;&gt;Node12</title>
<path fill="none" stroke="midnightblue" d="M843.68,-150.98C863.75,-148.08 885.71,-145.16 906,-143 975.85,-135.58 1055.97,-130.44 1111.83,-127.39"/>
<polygon fill="midnightblue" stroke="midnightblue" points="843.06,-147.54 833.68,-152.45 844.08,-154.46 843.06,-147.54"/>
</g>
<!-- Node16 -->
<g id="node16" class="node">
<title>Node16</title>
<g id="a_node16"><a xlink:href="../../d0/dfe/class_syntax_analyzer.html#aa93b0d722276e335971360e093f19a8e" target="_top" xlink:title=" ">
<polygon fill="none" stroke="black" points="481,-155.5 481,-174.5 640,-174.5 640,-155.5 481,-155.5"/>
<text text-anchor="middle" x="560.5" y="-162.5" font-family="Helvetica,sans-Serif" font-size="10.00">SyntaxAnalyzer::syntaxBlock</text>
</a>
</g>
</g>
<!-- Node15&#45;&gt;Node16 -->
<g id="edge16" class="edge">
<title>Node15&#45;&gt;Node16</title>
<path fill="none" stroke="midnightblue" d="M665.81,-163.51C657.13,-163.64 648.46,-163.76 640.03,-163.88"/>
<polygon fill="midnightblue" stroke="midnightblue" points="666.04,-167.01 675.99,-163.37 665.94,-160.01 666.04,-167.01"/>
</g>
<!-- Node17 -->
<g id="node17" class="node">
<title>Node17</title>
<g id="a_node17"><a xlink:href="../../d0/dfe/class_syntax_analyzer.html#aeb59cd0062ff3238bcf625c7e20fc5ec" target="_top" xlink:title=" ">
<polygon fill="none" stroke="black" points="272,-174.5 272,-193.5 445,-193.5 445,-174.5 272,-174.5"/>
<text text-anchor="middle" x="358.5" y="-181.5" font-family="Helvetica,sans-Serif" font-size="10.00">SyntaxAnalyzer::syntaxProgram</text>
</a>
</g>
</g>
<!-- Node16&#45;&gt;Node17 -->
<g id="edge17" class="edge">
<title>Node16&#45;&gt;Node17</title>
<path fill="none" stroke="midnightblue" d="M470.51,-173.45C462.07,-174.26 453.52,-175.07 445.11,-175.87"/>
<polygon fill="midnightblue" stroke="midnightblue" points="471.12,-176.91 480.74,-172.48 470.46,-169.94 471.12,-176.91"/>
</g>
<!-- Node18 -->
<g id="node18" class="node">
<title>Node18</title>
<g id="a_node18"><a xlink:href="../../d0/dfe/class_syntax_analyzer.html#a0472b9d7f2855f118acf9cb7c67ab5a7" target="_top" xlink:title=" ">
<polygon fill="none" stroke="black" points="77,-183.5 77,-202.5 236,-202.5 236,-183.5 77,-183.5"/>
<text text-anchor="middle" x="156.5" y="-190.5" font-family="Helvetica,sans-Serif" font-size="10.00">SyntaxAnalyzer::parseTokens</text>
</a>
</g>
</g>
<!-- Node17&#45;&gt;Node18 -->
<g id="edge18" class="edge">
<title>Node17&#45;&gt;Node18</title>
<path fill="none" stroke="midnightblue" d="M261.74,-188.31C253.14,-188.7 244.49,-189.09 236.05,-189.47"/>
<polygon fill="midnightblue" stroke="midnightblue" points="261.98,-191.8 271.81,-187.86 261.66,-184.81 261.98,-191.8"/>
</g>
<!-- Node18&#45;&gt;Node4 -->
<g id="edge19" class="edge">
<title>Node18&#45;&gt;Node4</title>
<path fill="none" stroke="midnightblue" d="M115.98,-205.68C91.37,-213.58 60.79,-223.39 41.2,-229.68"/>
<polygon fill="midnightblue" stroke="midnightblue" points="117.31,-208.93 125.76,-202.54 115.17,-202.27 117.31,-208.93"/>
</g>
<!-- Node19 -->
<g id="node19" class="node">
<title>Node19</title>
<g id="a_node19"><a xlink:href="../../dd/de9/test_syntax_8cpp.html#ac491df98e51a6bba8b808af414b6614f" target="_top" xlink:title="Тест синтаксического анализа Паскаля, простой тест">
<polygon fill="none" stroke="black" points="0,-183.5 0,-202.5 41,-202.5 41,-183.5 0,-183.5"/>
<text text-anchor="middle" x="20.5" y="-190.5" font-family="Helvetica,sans-Serif" font-size="10.00">TEST</text>
</a>
</g>
</g>
<!-- Node18&#45;&gt;Node19 -->
<g id="edge20" class="edge">
<title>Node18&#45;&gt;Node19</title>
<path fill="none" stroke="midnightblue" d="M66.72,-193C57.25,-193 48.44,-193 41.16,-193"/>
<polygon fill="midnightblue" stroke="midnightblue" points="66.78,-196.5 76.78,-193 66.78,-189.5 66.78,-196.5"/>
</g>
<!-- Node20&#45;&gt;Node12 -->
<g id="edge23" class="edge">
<title>Node20&#45;&gt;Node12</title>
<path fill="none" stroke="midnightblue" d="M1083.8,-184.9C1095.19,-175.88 1096.55,-166.18 1112,-157 1130.11,-146.24 1153.75,-139.41 1168.39,-133.53"/>
<polygon fill="midnightblue" stroke="midnightblue" points="1081.73,-182.07 1075.2,-190.41 1085.51,-187.96 1081.73,-182.07"/>
</g>
<!-- Node21&#45;&gt;Node7 -->
<g id="edge25" class="edge">
<title>Node21&#45;&gt;Node7</title>
<path fill="none" stroke="midnightblue" d="M1467.82,-198.52C1599.89,-195.91 1854.21,-189.25 2070,-174 2081.56,-173.18 2093.76,-172.13 2105.72,-170.98"/>
<polygon fill="midnightblue" stroke="midnightblue" points="1467.68,-195.02 1457.75,-198.71 1467.81,-202.02 1467.68,-195.02"/>
</g>
<!-- Node21&#45;&gt;Node12 -->
<g id="edge26" class="edge">
<title>Node21&#45;&gt;Node12</title>
<path fill="none" stroke="midnightblue" d="M1341.97,-186.53C1303.52,-171.31 1241.91,-146.92 1208.12,-133.55"/>
<polygon fill="midnightblue" stroke="midnightblue" points="1341.1,-189.95 1351.68,-190.37 1343.67,-183.44 1341.1,-189.95"/>
</g>
</g>
</svg>
