<?xml version="1.0" encoding="UTF-8" standalone="no"?>
<!DOCTYPE svg PUBLIC "-//W3C//DTD SVG 1.1//EN"
 "http://www.w3.org/Graphics/SVG/1.1/DTD/svg11.dtd">
<!-- Generated by graphviz version 3.0.0 (20220413.0106)
 -->
<!-- Title: Queue::push Pages: 1 -->
<svg width="343pt" height="78pt"
 viewBox="0.00 0.00 343.00 77.50" xmlns="http://www.w3.org/2000/svg" xmlns:xlink="http://www.w3.org/1999/xlink">
<g id="graph0" class="graph" transform="scale(1 1) rotate(0) translate(4 73.5)">
<title>Queue::push</title>
<!-- Node1 -->
<g id="node1" class="node">
<title>Node1</title>
<g id="a_node1"><a xlink:title="Вставляет значение в хвост очереди">
<polygon fill="#bfbfbf" stroke="black" points="0,-25 0,-44 71,-44 71,-25 0,-25"/>
<text text-anchor="middle" x="35.5" y="-32" font-family="Helvetica,sans-Serif" font-size="10.00">Queue::push</text>
</a>
</g>
</g>
<!-- Node2 -->
<g id="node2" class="node">
<title>Node2</title>
<g id="a_node2"><a xlink:href="../../d1/d34/class_list.html#a0c471cf5c09edf2dcbdf1f37cac53e45" target="_top" xlink:title="Вставка в конец списка">
<polygon fill="none" stroke="black" points="107,-44 107,-63 188,-63 188,-44 107,-44"/>
<text text-anchor="middle" x="147.5" y="-51" font-family="Helvetica,sans-Serif" font-size="10.00">List::pushBack</text>
</a>
</g>
</g>
<!-- Node1&#45;&gt;Node2 -->
<g id="edge1" class="edge">
<title>Node1&#45;&gt;Node2</title>
<path fill="none" stroke="midnightblue" d="M71,-40.46C79.15,-41.87 88.01,-43.4 96.69,-44.9"/>
<polygon fill="midnightblue" stroke="midnightblue" points="96.29,-48.38 106.74,-46.63 97.48,-41.48 96.29,-48.38"/>
</g>
<!-- Node4 -->
<g id="node4" class="node">
<title>Node4</title>
<g id="a_node4"><a xlink:href="../../dd/d3d/namespacemagic__enum_1_1detail.html#a8e06754b490522d8ae02cd8983e3fcbf" target="_top" xlink:title=" ">
<polygon fill="none" stroke="black" points="229.5,-0.5 229.5,-30.5 329.5,-30.5 329.5,-0.5 229.5,-0.5"/>
<text text-anchor="start" x="237.5" y="-18.5" font-family="Helvetica,sans-Serif" font-size="10.00">magic_enum::detail</text>
<text text-anchor="middle" x="279.5" y="-7.5" font-family="Helvetica,sans-Serif" font-size="10.00">::value</text>
</a>
</g>
</g>
<!-- Node1&#45;&gt;Node4 -->
<g id="edge4" class="edge">
<title>Node1&#45;&gt;Node4</title>
<path fill="none" stroke="midnightblue" d="M71.17,-31.78C109.69,-28.75 172.56,-23.82 218.98,-20.17"/>
<polygon fill="midnightblue" stroke="midnightblue" points="219.52,-23.64 229.22,-19.37 218.97,-16.66 219.52,-23.64"/>
</g>
<!-- Node3 -->
<g id="node3" class="node">
<title>Node3</title>
<g id="a_node3"><a xlink:href="../../dc/d8f/class_node.html#a5f29dc4844746c7e7780933173d31a4a" target="_top" xlink:title="Присоединяет узел pNext в качестве следующего узла">
<polygon fill="none" stroke="black" points="224,-50 224,-69 335,-69 335,-50 224,-50"/>
<text text-anchor="middle" x="279.5" y="-57" font-family="Helvetica,sans-Serif" font-size="10.00">Node::connectAsNext</text>
</a>
</g>
</g>
<!-- Node2&#45;&gt;Node3 -->
<g id="edge2" class="edge">
<title>Node2&#45;&gt;Node3</title>
<path fill="none" stroke="midnightblue" d="M188.21,-55.33C196.26,-55.7 204.92,-56.1 213.59,-56.5"/>
<polygon fill="midnightblue" stroke="midnightblue" points="213.56,-60.01 223.72,-56.97 213.89,-53.01 213.56,-60.01"/>
</g>
<!-- Node2&#45;&gt;Node4 -->
<g id="edge3" class="edge">
<title>Node2&#45;&gt;Node4</title>
<path fill="none" stroke="midnightblue" d="M181.3,-43.91C192.93,-40.51 206.4,-36.58 219.54,-32.74"/>
<polygon fill="midnightblue" stroke="midnightblue" points="220.86,-35.99 229.48,-29.83 218.9,-29.28 220.86,-35.99"/>
</g>
</g>
</svg>
