<?xml version="1.0" encoding="UTF-8" standalone="no"?>
<!DOCTYPE svg PUBLIC "-//W3C//DTD SVG 1.1//EN"
 "http://www.w3.org/Graphics/SVG/1.1/DTD/svg11.dtd">
<!-- Generated by graphviz version 3.0.0 (20220413.0106)
 -->
<!-- Title: Иерархия классов. Графический вид. Pages: 1 -->
<svg width="194pt" height="66pt"
 viewBox="0.00 0.00 194.00 66.00" xmlns="http://www.w3.org/2000/svg" xmlns:xlink="http://www.w3.org/1999/xlink">
<g id="graph0" class="graph" transform="scale(1 1) rotate(0) translate(4 62)">
<title>Иерархия классов. Графический вид.</title>
<!-- Node0 -->
<g id="node1" class="node">
<title>Node0</title>
<g id="a_node1"><a xlink:href="dd/dfe/class_base_token.html" target="_top" xlink:title="Класс&#45;родитель для классов, работающих с токенами">
<polygon fill="none" stroke="black" points="0,-19.5 0,-38.5 66,-38.5 66,-19.5 0,-19.5"/>
<text text-anchor="middle" x="33" y="-26.5" font-family="Helvetica,sans-Serif" font-size="10.00">BaseToken</text>
</a>
</g>
</g>
<!-- Node1 -->
<g id="node2" class="node">
<title>Node1</title>
<g id="a_node2"><a xlink:href="db/dc1/class_token.html" target="_top" xlink:title="Класс, представляющий токен">
<polygon fill="none" stroke="black" points="122,-38.5 122,-57.5 166,-57.5 166,-38.5 122,-38.5"/>
<text text-anchor="middle" x="144" y="-45.5" font-family="Helvetica,sans-Serif" font-size="10.00">Token</text>
</a>
</g>
</g>
<!-- Node0&#45;&gt;Node1 -->
<g id="edge1" class="edge">
<title>Node0&#45;&gt;Node1</title>
<path fill="none" stroke="midnightblue" d="M76.12,-36.34C91.74,-39.07 108.8,-42.04 121.78,-44.3"/>
<polygon fill="midnightblue" stroke="midnightblue" points="76.57,-32.87 66.11,-34.6 75.36,-39.76 76.57,-32.87"/>
</g>
<!-- Node2 -->
<g id="node3" class="node">
<title>Node2</title>
<g id="a_node3"><a xlink:href="dc/dca/class_token_template.html" target="_top" xlink:title="Класс, представляющий шаблон токена">
<polygon fill="none" stroke="black" points="102,-0.5 102,-19.5 186,-19.5 186,-0.5 102,-0.5"/>
<text text-anchor="middle" x="144" y="-7.5" font-family="Helvetica,sans-Serif" font-size="10.00">TokenTemplate</text>
</a>
</g>
</g>
<!-- Node0&#45;&gt;Node2 -->
<g id="edge2" class="edge">
<title>Node0&#45;&gt;Node2</title>
<path fill="none" stroke="midnightblue" d="M76.13,-21.66C84.56,-20.19 93.4,-18.65 101.8,-17.18"/>
<polygon fill="midnightblue" stroke="midnightblue" points="75.36,-18.24 66.11,-23.4 76.57,-25.13 75.36,-18.24"/>
</g>
</g>
</svg>
