<?xml version="1.0" encoding="UTF-8" standalone="no"?>
<!DOCTYPE svg PUBLIC "-//W3C//DTD SVG 1.1//EN"
 "http://www.w3.org/Graphics/SVG/1.1/DTD/svg11.dtd">
<!-- Generated by graphviz version 3.0.0 (20220413.0106)
 -->
<!-- Title: Иерархия классов. Графический вид. Pages: 1 -->
<svg width="435pt" height="207pt"
 viewBox="0.00 0.00 435.00 207.00" xmlns="http://www.w3.org/2000/svg" xmlns:xlink="http://www.w3.org/1999/xlink">
<g id="graph0" class="graph" transform="scale(1 1) rotate(0) translate(4 203)">
<title>Иерархия классов. Графический вид.</title>
<!-- Node0 -->
<g id="node1" class="node">
<title>Node0</title>
<g id="a_node1"><a xlink:title=" ">
<polygon fill="none" stroke="#bfbfbf" points="0,-90 0,-109 79,-109 79,-90 0,-90"/>
<text text-anchor="middle" x="39.5" y="-97" font-family="Helvetica,sans-Serif" font-size="10.00">std::false_type</text>
</a>
</g>
</g>
<!-- Node1 -->
<g id="node2" class="node">
<title>Node1</title>
<g id="a_node2"><a xlink:href="d6/d6c/structmagic__enum_1_1detail_1_1has__is__flags.html" target="_top" xlink:title=" ">
<polygon fill="none" stroke="black" points="115,-168.5 115,-198.5 260,-198.5 260,-168.5 115,-168.5"/>
<text text-anchor="start" x="123" y="-186.5" font-family="Helvetica,sans-Serif" font-size="10.00">magic_enum::detail</text>
<text text-anchor="middle" x="187.5" y="-175.5" font-family="Helvetica,sans-Serif" font-size="10.00">::has_is_flags&lt; T, typename &gt;</text>
</a>
</g>
</g>
<!-- Node0&#45;&gt;Node1 -->
<g id="edge1" class="edge">
<title>Node0&#45;&gt;Node1</title>
<path fill="none" stroke="midnightblue" d="M57.83,-116.46C72.16,-129.7 93.57,-147.77 115,-159.5 121.09,-162.83 127.72,-165.81 134.41,-168.45"/>
<polygon fill="midnightblue" stroke="midnightblue" points="59.94,-113.63 50.27,-109.3 55.13,-118.72 59.94,-113.63"/>
</g>
<!-- Node2 -->
<g id="node3" class="node">
<title>Node2</title>
<g id="a_node3"><a xlink:href="d8/d3a/structmagic__enum_1_1detail_1_1is__scoped__enum.html" target="_top" xlink:title=" ">
<polygon fill="none" stroke="black" points="131.5,-109 131.5,-150 243.5,-150 243.5,-109 131.5,-109"/>
<text text-anchor="start" x="139.5" y="-138" font-family="Helvetica,sans-Serif" font-size="10.00">magic_enum::detail</text>
<text text-anchor="start" x="139.5" y="-127" font-family="Helvetica,sans-Serif" font-size="10.00">::is_scoped_enum&lt; T,</text>
<text text-anchor="middle" x="187.5" y="-116" font-family="Helvetica,sans-Serif" font-size="10.00"> bool &gt;</text>
</a>
</g>
</g>
<!-- Node0&#45;&gt;Node2 -->
<g id="edge2" class="edge">
<title>Node0&#45;&gt;Node2</title>
<path fill="none" stroke="midnightblue" d="M89.29,-109.52C102.78,-112.3 117.53,-115.33 131.36,-118.17"/>
<polygon fill="midnightblue" stroke="midnightblue" points="89.74,-106.05 79.24,-107.46 88.33,-112.9 89.74,-106.05"/>
</g>
<!-- Node4 -->
<g id="node5" class="node">
<title>Node4</title>
<g id="a_node5"><a xlink:href="db/d31/structmagic__enum_1_1detail_1_1is__unscoped__enum.html" target="_top" xlink:title=" ">
<polygon fill="none" stroke="black" points="132,-49 132,-90 243,-90 243,-49 132,-49"/>
<text text-anchor="start" x="140" y="-78" font-family="Helvetica,sans-Serif" font-size="10.00">magic_enum::detail</text>
<text text-anchor="start" x="140" y="-67" font-family="Helvetica,sans-Serif" font-size="10.00">::is_unscoped_enum&lt;</text>
<text text-anchor="middle" x="187.5" y="-56" font-family="Helvetica,sans-Serif" font-size="10.00"> T, bool &gt;</text>
</a>
</g>
</g>
<!-- Node0&#45;&gt;Node4 -->
<g id="edge4" class="edge">
<title>Node0&#45;&gt;Node4</title>
<path fill="none" stroke="midnightblue" d="M89.4,-89.45C103.04,-86.65 117.96,-83.58 131.91,-80.72"/>
<polygon fill="midnightblue" stroke="midnightblue" points="88.33,-86.1 79.24,-91.54 89.74,-92.95 88.33,-86.1"/>
</g>
<!-- Node6 -->
<g id="node7" class="node">
<title>Node6</title>
<g id="a_node7"><a xlink:href="de/db2/structmagic__enum_1_1detail_1_1supported.html" target="_top" xlink:title=" ">
<polygon fill="none" stroke="black" points="137.5,-0.5 137.5,-30.5 237.5,-30.5 237.5,-0.5 137.5,-0.5"/>
<text text-anchor="start" x="145.5" y="-18.5" font-family="Helvetica,sans-Serif" font-size="10.00">magic_enum::detail</text>
<text text-anchor="middle" x="187.5" y="-7.5" font-family="Helvetica,sans-Serif" font-size="10.00">::supported&lt; T &gt;</text>
</a>
</g>
</g>
<!-- Node0&#45;&gt;Node6 -->
<g id="edge6" class="edge">
<title>Node0&#45;&gt;Node6</title>
<path fill="none" stroke="midnightblue" d="M57.83,-82.54C72.16,-69.3 93.57,-51.23 115,-39.5 122.01,-35.66 129.73,-32.29 137.44,-29.38"/>
<polygon fill="midnightblue" stroke="midnightblue" points="55.13,-80.28 50.27,-89.7 59.94,-85.37 55.13,-80.28"/>
</g>
<!-- Node3 -->
<g id="node4" class="node">
<title>Node3</title>
<g id="a_node4"><a xlink:href="d5/d84/structmagic__enum_1_1is__scoped__enum.html" target="_top" xlink:title=" ">
<polygon fill="none" stroke="black" points="301,-114.5 301,-144.5 422,-144.5 422,-114.5 301,-114.5"/>
<text text-anchor="start" x="309" y="-132.5" font-family="Helvetica,sans-Serif" font-size="10.00">magic_enum::is_scoped</text>
<text text-anchor="middle" x="361.5" y="-121.5" font-family="Helvetica,sans-Serif" font-size="10.00">_enum&lt; T &gt;</text>
</a>
</g>
</g>
<!-- Node2&#45;&gt;Node3 -->
<g id="edge3" class="edge">
<title>Node2&#45;&gt;Node3</title>
<path fill="none" stroke="midnightblue" d="M254.28,-129.5C269.57,-129.5 285.77,-129.5 300.78,-129.5"/>
<polygon fill="midnightblue" stroke="midnightblue" points="253.87,-126 243.87,-129.5 253.87,-133 253.87,-126"/>
</g>
<!-- Node5 -->
<g id="node6" class="node">
<title>Node5</title>
<g id="a_node6"><a xlink:href="dd/dfa/structmagic__enum_1_1is__unscoped__enum.html" target="_top" xlink:title=" ">
<polygon fill="none" stroke="black" points="296,-54.5 296,-84.5 427,-84.5 427,-54.5 296,-54.5"/>
<text text-anchor="start" x="304" y="-72.5" font-family="Helvetica,sans-Serif" font-size="10.00">magic_enum::is_unscoped</text>
<text text-anchor="middle" x="361.5" y="-61.5" font-family="Helvetica,sans-Serif" font-size="10.00">_enum&lt; T &gt;</text>
</a>
</g>
</g>
<!-- Node4&#45;&gt;Node5 -->
<g id="edge5" class="edge">
<title>Node4&#45;&gt;Node5</title>
<path fill="none" stroke="midnightblue" d="M253.78,-69.5C267.58,-69.5 282.15,-69.5 295.92,-69.5"/>
<polygon fill="midnightblue" stroke="midnightblue" points="253.39,-66 243.39,-69.5 253.39,-73 253.39,-66"/>
</g>
</g>
</svg>
