<?xml version="1.0" encoding="UTF-8" standalone="no"?>
<!DOCTYPE svg PUBLIC "-//W3C//DTD SVG 1.1//EN"
 "http://www.w3.org/Graphics/SVG/1.1/DTD/svg11.dtd">
<!-- Generated by graphviz version 2.43.0 (0)
 -->
<!-- Title: name Pages: 1 -->
<svg width="1147pt" height="511pt"
 viewBox="0.00 0.00 1147.00 511.48" xmlns="http://www.w3.org/2000/svg" xmlns:xlink="http://www.w3.org/1999/xlink">
<g id="graph0" class="graph" transform="scale(1 1) rotate(0) translate(4 507.48)">
<title>name</title>
<polygon fill="white" stroke="transparent" points="-4,4 -4,-507.48 1143,-507.48 1143,4 -4,4"/>
<!-- n0 -->
<g id="node1" class="node">
<title>n0</title>
<ellipse fill="none" stroke="black" cx="457" cy="-476.61" rx="69.09" ry="26.74"/>
<text text-anchor="middle" x="457" y="-480.41" font-family="Times,serif" font-size="14.00">PROGRAM:</text>
<text text-anchor="middle" x="457" y="-465.41" font-family="Times,serif" font-size="14.00">test</text>
</g>
<!-- n1 -->
<g id="node2" class="node">
<title>n1</title>
<ellipse fill="none" stroke="black" cx="345" cy="-386.87" rx="56.64" ry="26.74"/>
<text text-anchor="middle" x="345" y="-390.67" font-family="Times,serif" font-size="14.00">function:</text>
<text text-anchor="middle" x="345" y="-375.67" font-family="Times,serif" font-size="14.00">add</text>
</g>
<!-- n0&#45;&gt;n1 -->
<g id="edge1" class="edge">
<title>n0&#45;&gt;n1</title>
<path fill="none" stroke="black" d="M427.28,-452.33C413.28,-441.36 396.45,-428.18 381.67,-416.6"/>
<polygon fill="black" stroke="black" points="383.73,-413.76 373.7,-410.35 379.41,-419.27 383.73,-413.76"/>
</g>
<!-- n16 -->
<g id="node17" class="node">
<title>n16</title>
<ellipse fill="none" stroke="black" cx="663" cy="-386.87" rx="44.39" ry="18"/>
<text text-anchor="middle" x="663" y="-383.17" font-family="Times,serif" font-size="14.00">BLOCK</text>
</g>
<!-- n0&#45;&gt;n16 -->
<g id="edge16" class="edge">
<title>n0&#45;&gt;n16</title>
<path fill="none" stroke="black" d="M502.46,-456.25C538.96,-440.7 589.65,-419.11 624.25,-404.38"/>
<polygon fill="black" stroke="black" points="625.72,-407.55 633.55,-400.41 622.98,-401.11 625.72,-407.55"/>
</g>
<!-- n2 -->
<g id="node3" class="node">
<title>n2</title>
<ellipse fill="none" stroke="black" cx="95" cy="-306" rx="56.59" ry="18"/>
<text text-anchor="middle" x="95" y="-302.3" font-family="Times,serif" font-size="14.00">VARDECL</text>
</g>
<!-- n1&#45;&gt;n2 -->
<g id="edge2" class="edge">
<title>n1&#45;&gt;n2</title>
<path fill="none" stroke="black" d="M298.85,-371.31C254.78,-357.41 188.61,-336.53 143.7,-322.37"/>
<polygon fill="black" stroke="black" points="144.49,-318.94 133.9,-319.27 142.38,-325.62 144.49,-318.94"/>
</g>
<!-- n5 -->
<g id="node6" class="node">
<title>n5</title>
<ellipse fill="none" stroke="black" cx="226" cy="-306" rx="56.59" ry="18"/>
<text text-anchor="middle" x="226" y="-302.3" font-family="Times,serif" font-size="14.00">VARDECL</text>
</g>
<!-- n1&#45;&gt;n5 -->
<g id="edge5" class="edge">
<title>n1&#45;&gt;n5</title>
<path fill="none" stroke="black" d="M312.8,-364.53C295.8,-353.26 275.01,-339.48 258.03,-328.23"/>
<polygon fill="black" stroke="black" points="259.81,-325.21 249.55,-322.61 255.95,-331.05 259.81,-325.21"/>
</g>
<!-- n8 -->
<g id="node9" class="node">
<title>n8</title>
<ellipse fill="none" stroke="black" cx="345" cy="-306" rx="44.39" ry="18"/>
<text text-anchor="middle" x="345" y="-302.3" font-family="Times,serif" font-size="14.00">integer</text>
</g>
<!-- n1&#45;&gt;n8 -->
<g id="edge8" class="edge">
<title>n1&#45;&gt;n8</title>
<path fill="none" stroke="black" d="M345,-359.61C345,-351.51 345,-342.57 345,-334.39"/>
<polygon fill="black" stroke="black" points="348.5,-334.22 345,-324.22 341.5,-334.22 348.5,-334.22"/>
</g>
<!-- n9 -->
<g id="node10" class="node">
<title>n9</title>
<ellipse fill="none" stroke="black" cx="451" cy="-306" rx="44.39" ry="18"/>
<text text-anchor="middle" x="451" y="-302.3" font-family="Times,serif" font-size="14.00">BLOCK</text>
</g>
<!-- n1&#45;&gt;n9 -->
<g id="edge9" class="edge">
<title>n1&#45;&gt;n9</title>
<path fill="none" stroke="black" d="M374.53,-363.9C389.48,-352.77 407.56,-339.32 422.38,-328.29"/>
<polygon fill="black" stroke="black" points="424.75,-330.89 430.68,-322.12 420.57,-325.28 424.75,-330.89"/>
</g>
<!-- n3 -->
<g id="node4" class="node">
<title>n3</title>
<ellipse fill="none" stroke="black" cx="27" cy="-234" rx="27" ry="18"/>
<text text-anchor="middle" x="27" y="-230.3" font-family="Times,serif" font-size="14.00">x</text>
</g>
<!-- n2&#45;&gt;n3 -->
<g id="edge3" class="edge">
<title>n2&#45;&gt;n3</title>
<path fill="none" stroke="black" d="M78.88,-288.41C69.75,-279 58.2,-267.12 48.32,-256.94"/>
<polygon fill="black" stroke="black" points="50.63,-254.3 41.15,-249.57 45.61,-259.18 50.63,-254.3"/>
</g>
<!-- n4 -->
<g id="node5" class="node">
<title>n4</title>
<ellipse fill="none" stroke="black" cx="116" cy="-234" rx="44.39" ry="18"/>
<text text-anchor="middle" x="116" y="-230.3" font-family="Times,serif" font-size="14.00">integer</text>
</g>
<!-- n2&#45;&gt;n4 -->
<g id="edge4" class="edge">
<title>n2&#45;&gt;n4</title>
<path fill="none" stroke="black" d="M100.08,-288.05C102.42,-280.26 105.25,-270.82 107.88,-262.08"/>
<polygon fill="black" stroke="black" points="111.3,-262.86 110.82,-252.28 104.59,-260.85 111.3,-262.86"/>
</g>
<!-- n6 -->
<g id="node7" class="node">
<title>n6</title>
<ellipse fill="none" stroke="black" cx="206" cy="-234" rx="27" ry="18"/>
<text text-anchor="middle" x="206" y="-230.3" font-family="Times,serif" font-size="14.00">y</text>
</g>
<!-- n5&#45;&gt;n6 -->
<g id="edge6" class="edge">
<title>n5&#45;&gt;n6</title>
<path fill="none" stroke="black" d="M221.16,-288.05C218.9,-280.14 216.15,-270.54 213.63,-261.69"/>
<polygon fill="black" stroke="black" points="216.91,-260.44 210.8,-251.79 210.18,-262.37 216.91,-260.44"/>
</g>
<!-- n7 -->
<g id="node8" class="node">
<title>n7</title>
<ellipse fill="none" stroke="black" cx="280" cy="-234" rx="28.7" ry="18"/>
<text text-anchor="middle" x="280" y="-230.3" font-family="Times,serif" font-size="14.00">real</text>
</g>
<!-- n5&#45;&gt;n7 -->
<g id="edge7" class="edge">
<title>n5&#45;&gt;n7</title>
<path fill="none" stroke="black" d="M238.8,-288.41C245.65,-279.53 254.2,-268.44 261.74,-258.67"/>
<polygon fill="black" stroke="black" points="264.7,-260.57 268.03,-250.51 259.16,-256.29 264.7,-260.57"/>
</g>
<!-- n10 -->
<g id="node11" class="node">
<title>n10</title>
<ellipse fill="none" stroke="black" cx="398" cy="-234" rx="70.69" ry="18"/>
<text text-anchor="middle" x="398" y="-230.3" font-family="Times,serif" font-size="14.00">COMPOUND</text>
</g>
<!-- n9&#45;&gt;n10 -->
<g id="edge10" class="edge">
<title>n9&#45;&gt;n10</title>
<path fill="none" stroke="black" d="M438.44,-288.41C432.07,-279.99 424.19,-269.58 417.08,-260.2"/>
<polygon fill="black" stroke="black" points="419.67,-257.82 410.84,-251.96 414.08,-262.04 419.67,-257.82"/>
</g>
<!-- n11 -->
<g id="node12" class="node">
<title>n11</title>
<ellipse fill="none" stroke="black" cx="356" cy="-162" rx="40.09" ry="18"/>
<text text-anchor="middle" x="356" y="-158.3" font-family="Times,serif" font-size="14.00">return</text>
</g>
<!-- n10&#45;&gt;n11 -->
<g id="edge11" class="edge">
<title>n10&#45;&gt;n11</title>
<path fill="none" stroke="black" d="M387.83,-216.05C382.88,-207.8 376.82,-197.7 371.32,-188.54"/>
<polygon fill="black" stroke="black" points="374.22,-186.56 366.07,-179.79 368.22,-190.16 374.22,-186.56"/>
</g>
<!-- n15 -->
<g id="node16" class="node">
<title>n15</title>
<ellipse fill="none" stroke="black" cx="441" cy="-162" rx="27" ry="18"/>
<text text-anchor="middle" x="441" y="-158.3" font-family="Times,serif" font-size="14.00">$</text>
</g>
<!-- n10&#45;&gt;n15 -->
<g id="edge15" class="edge">
<title>n10&#45;&gt;n15</title>
<path fill="none" stroke="black" d="M408.41,-216.05C413.68,-207.47 420.18,-196.89 425.99,-187.44"/>
<polygon fill="black" stroke="black" points="429.02,-189.18 431.28,-178.83 423.06,-185.52 429.02,-189.18"/>
</g>
<!-- n12 -->
<g id="node13" class="node">
<title>n12</title>
<ellipse fill="none" stroke="black" cx="356" cy="-90" rx="27" ry="18"/>
<text text-anchor="middle" x="356" y="-86.3" font-family="Times,serif" font-size="14.00">+</text>
</g>
<!-- n11&#45;&gt;n12 -->
<g id="edge12" class="edge">
<title>n11&#45;&gt;n12</title>
<path fill="none" stroke="black" d="M356,-143.7C356,-135.98 356,-126.71 356,-118.11"/>
<polygon fill="black" stroke="black" points="359.5,-118.1 356,-108.1 352.5,-118.1 359.5,-118.1"/>
</g>
<!-- n13 -->
<g id="node14" class="node">
<title>n13</title>
<ellipse fill="none" stroke="black" cx="320" cy="-18" rx="27" ry="18"/>
<text text-anchor="middle" x="320" y="-14.3" font-family="Times,serif" font-size="14.00">x</text>
</g>
<!-- n12&#45;&gt;n13 -->
<g id="edge13" class="edge">
<title>n12&#45;&gt;n13</title>
<path fill="none" stroke="black" d="M347.65,-72.76C343.29,-64.28 337.85,-53.71 332.96,-44.2"/>
<polygon fill="black" stroke="black" points="335.99,-42.44 328.3,-35.15 329.77,-45.64 335.99,-42.44"/>
</g>
<!-- n14 -->
<g id="node15" class="node">
<title>n14</title>
<ellipse fill="none" stroke="black" cx="392" cy="-18" rx="27" ry="18"/>
<text text-anchor="middle" x="392" y="-14.3" font-family="Times,serif" font-size="14.00">y</text>
</g>
<!-- n12&#45;&gt;n14 -->
<g id="edge14" class="edge">
<title>n12&#45;&gt;n14</title>
<path fill="none" stroke="black" d="M364.35,-72.76C368.71,-64.28 374.15,-53.71 379.04,-44.2"/>
<polygon fill="black" stroke="black" points="382.23,-45.64 383.7,-35.15 376.01,-42.44 382.23,-45.64"/>
</g>
<!-- n17 -->
<g id="node18" class="node">
<title>n17</title>
<ellipse fill="none" stroke="black" cx="590" cy="-306" rx="56.59" ry="18"/>
<text text-anchor="middle" x="590" y="-302.3" font-family="Times,serif" font-size="14.00">VARDECL</text>
</g>
<!-- n16&#45;&gt;n17 -->
<g id="edge17" class="edge">
<title>n16&#45;&gt;n17</title>
<path fill="none" stroke="black" d="M647.87,-369.53C637.57,-358.39 623.75,-343.47 612.2,-330.99"/>
<polygon fill="black" stroke="black" points="614.72,-328.55 605.36,-323.59 609.58,-333.31 614.72,-328.55"/>
</g>
<!-- n21 -->
<g id="node22" class="node">
<title>n21</title>
<ellipse fill="none" stroke="black" cx="736" cy="-306" rx="71.49" ry="18"/>
<text text-anchor="middle" x="736" y="-302.3" font-family="Times,serif" font-size="14.00">CONSTDECL</text>
</g>
<!-- n16&#45;&gt;n21 -->
<g id="edge21" class="edge">
<title>n16&#45;&gt;n21</title>
<path fill="none" stroke="black" d="M678.13,-369.53C688.43,-358.39 702.25,-343.47 713.8,-330.99"/>
<polygon fill="black" stroke="black" points="716.42,-333.31 720.64,-323.59 711.28,-328.55 716.42,-333.31"/>
</g>
<!-- n24 -->
<g id="node25" class="node">
<title>n24</title>
<ellipse fill="none" stroke="black" cx="896" cy="-306" rx="70.69" ry="18"/>
<text text-anchor="middle" x="896" y="-302.3" font-family="Times,serif" font-size="14.00">COMPOUND</text>
</g>
<!-- n16&#45;&gt;n24 -->
<g id="edge24" class="edge">
<title>n16&#45;&gt;n24</title>
<path fill="none" stroke="black" d="M695.89,-374.74C734.81,-361.56 800.03,-339.48 845.4,-324.13"/>
<polygon fill="black" stroke="black" points="846.69,-327.39 855.04,-320.86 844.45,-320.76 846.69,-327.39"/>
</g>
<!-- n18 -->
<g id="node19" class="node">
<title>n18</title>
<ellipse fill="none" stroke="black" cx="514" cy="-234" rx="27" ry="18"/>
<text text-anchor="middle" x="514" y="-230.3" font-family="Times,serif" font-size="14.00">x</text>
</g>
<!-- n17&#45;&gt;n18 -->
<g id="edge18" class="edge">
<title>n17&#45;&gt;n18</title>
<path fill="none" stroke="black" d="M572.37,-288.76C561.76,-278.99 548.13,-266.43 536.71,-255.91"/>
<polygon fill="black" stroke="black" points="538.95,-253.22 529.22,-249.02 534.2,-258.37 538.95,-253.22"/>
</g>
<!-- n19 -->
<g id="node20" class="node">
<title>n19</title>
<ellipse fill="none" stroke="black" cx="625" cy="-234" rx="65.79" ry="18"/>
<text text-anchor="middle" x="625" y="-230.3" font-family="Times,serif" font-size="14.00">array[1 .. 5]</text>
</g>
<!-- n17&#45;&gt;n19 -->
<g id="edge19" class="edge">
<title>n17&#45;&gt;n19</title>
<path fill="none" stroke="black" d="M598.47,-288.05C602.5,-280.01 607.4,-270.2 611.89,-261.23"/>
<polygon fill="black" stroke="black" points="615.02,-262.78 616.36,-252.28 608.76,-259.65 615.02,-262.78"/>
</g>
<!-- n20 -->
<g id="node21" class="node">
<title>n20</title>
<ellipse fill="none" stroke="black" cx="625" cy="-162" rx="44.39" ry="18"/>
<text text-anchor="middle" x="625" y="-158.3" font-family="Times,serif" font-size="14.00">integer</text>
</g>
<!-- n19&#45;&gt;n20 -->
<g id="edge20" class="edge">
<title>n19&#45;&gt;n20</title>
<path fill="none" stroke="black" d="M625,-215.7C625,-207.98 625,-198.71 625,-190.11"/>
<polygon fill="black" stroke="black" points="628.5,-190.1 625,-180.1 621.5,-190.1 628.5,-190.1"/>
</g>
<!-- n22 -->
<g id="node23" class="node">
<title>n22</title>
<ellipse fill="none" stroke="black" cx="736" cy="-234" rx="27" ry="18"/>
<text text-anchor="middle" x="736" y="-230.3" font-family="Times,serif" font-size="14.00">a</text>
</g>
<!-- n21&#45;&gt;n22 -->
<g id="edge22" class="edge">
<title>n21&#45;&gt;n22</title>
<path fill="none" stroke="black" d="M736,-287.7C736,-279.98 736,-270.71 736,-262.11"/>
<polygon fill="black" stroke="black" points="739.5,-262.1 736,-252.1 732.5,-262.1 739.5,-262.1"/>
</g>
<!-- n23 -->
<g id="node24" class="node">
<title>n23</title>
<ellipse fill="none" stroke="black" cx="808" cy="-234" rx="27" ry="18"/>
<text text-anchor="middle" x="808" y="-230.3" font-family="Times,serif" font-size="14.00">1</text>
</g>
<!-- n21&#45;&gt;n23 -->
<g id="edge23" class="edge">
<title>n21&#45;&gt;n23</title>
<path fill="none" stroke="black" d="M753.06,-288.41C762.83,-278.91 775.21,-266.88 785.74,-256.65"/>
<polygon fill="black" stroke="black" points="788.28,-259.05 793.01,-249.57 783.4,-254.03 788.28,-259.05"/>
</g>
<!-- n25 -->
<g id="node26" class="node">
<title>n25</title>
<ellipse fill="none" stroke="black" cx="888" cy="-234" rx="27" ry="18"/>
<text text-anchor="middle" x="888" y="-230.3" font-family="Times,serif" font-size="14.00">:=</text>
</g>
<!-- n24&#45;&gt;n25 -->
<g id="edge25" class="edge">
<title>n24&#45;&gt;n25</title>
<path fill="none" stroke="black" d="M894.02,-287.7C893.14,-279.98 892.08,-270.71 891.1,-262.11"/>
<polygon fill="black" stroke="black" points="894.57,-261.64 889.95,-252.1 887.61,-262.44 894.57,-261.64"/>
</g>
<!-- n36 -->
<g id="node37" class="node">
<title>n36</title>
<ellipse fill="none" stroke="black" cx="960" cy="-234" rx="27" ry="18"/>
<text text-anchor="middle" x="960" y="-230.3" font-family="Times,serif" font-size="14.00">$</text>
</g>
<!-- n24&#45;&gt;n36 -->
<g id="edge36" class="edge">
<title>n24&#45;&gt;n36</title>
<path fill="none" stroke="black" d="M911.17,-288.41C919.57,-279.22 930.13,-267.67 939.28,-257.66"/>
<polygon fill="black" stroke="black" points="942.09,-259.78 946.25,-250.04 936.92,-255.06 942.09,-259.78"/>
</g>
<!-- n26 -->
<g id="node27" class="node">
<title>n26</title>
<ellipse fill="none" stroke="black" cx="841" cy="-162" rx="49.29" ry="18"/>
<text text-anchor="middle" x="841" y="-158.3" font-family="Times,serif" font-size="14.00">SELECT</text>
</g>
<!-- n25&#45;&gt;n26 -->
<g id="edge26" class="edge">
<title>n25&#45;&gt;n26</title>
<path fill="none" stroke="black" d="M877.33,-217.12C871.61,-208.59 864.42,-197.89 857.95,-188.25"/>
<polygon fill="black" stroke="black" points="860.76,-186.15 852.28,-179.8 854.95,-190.05 860.76,-186.15"/>
</g>
<!-- n29 -->
<g id="node30" class="node">
<title>n29</title>
<ellipse fill="none" stroke="black" cx="935" cy="-162" rx="27" ry="18"/>
<text text-anchor="middle" x="935" y="-158.3" font-family="Times,serif" font-size="14.00">+</text>
</g>
<!-- n25&#45;&gt;n29 -->
<g id="edge29" class="edge">
<title>n25&#45;&gt;n29</title>
<path fill="none" stroke="black" d="M898.67,-217.12C904.55,-208.34 911.99,-197.26 918.61,-187.42"/>
<polygon fill="black" stroke="black" points="921.71,-189.07 924.38,-178.82 915.9,-185.17 921.71,-189.07"/>
</g>
<!-- n27 -->
<g id="node28" class="node">
<title>n27</title>
<ellipse fill="none" stroke="black" cx="769" cy="-90" rx="27" ry="18"/>
<text text-anchor="middle" x="769" y="-86.3" font-family="Times,serif" font-size="14.00">x</text>
</g>
<!-- n26&#45;&gt;n27 -->
<g id="edge27" class="edge">
<title>n26&#45;&gt;n27</title>
<path fill="none" stroke="black" d="M824.3,-144.76C814.41,-135.14 801.75,-122.84 791.04,-112.43"/>
<polygon fill="black" stroke="black" points="793.27,-109.71 783.66,-105.25 788.39,-114.73 793.27,-109.71"/>
</g>
<!-- n28 -->
<g id="node29" class="node">
<title>n28</title>
<ellipse fill="none" stroke="black" cx="841" cy="-90" rx="27" ry="18"/>
<text text-anchor="middle" x="841" y="-86.3" font-family="Times,serif" font-size="14.00">2</text>
</g>
<!-- n26&#45;&gt;n28 -->
<g id="edge28" class="edge">
<title>n26&#45;&gt;n28</title>
<path fill="none" stroke="black" d="M841,-143.7C841,-135.98 841,-126.71 841,-118.11"/>
<polygon fill="black" stroke="black" points="844.5,-118.1 841,-108.1 837.5,-118.1 844.5,-118.1"/>
</g>
<!-- n30 -->
<g id="node31" class="node">
<title>n30</title>
<ellipse fill="none" stroke="black" cx="935" cy="-90" rx="49.29" ry="18"/>
<text text-anchor="middle" x="935" y="-86.3" font-family="Times,serif" font-size="14.00">SELECT</text>
</g>
<!-- n29&#45;&gt;n30 -->
<g id="edge30" class="edge">
<title>n29&#45;&gt;n30</title>
<path fill="none" stroke="black" d="M935,-143.7C935,-135.98 935,-126.71 935,-118.11"/>
<polygon fill="black" stroke="black" points="938.5,-118.1 935,-108.1 931.5,-118.1 938.5,-118.1"/>
</g>
<!-- n33 -->
<g id="node34" class="node">
<title>n33</title>
<ellipse fill="none" stroke="black" cx="1052" cy="-90" rx="49.29" ry="18"/>
<text text-anchor="middle" x="1052" y="-86.3" font-family="Times,serif" font-size="14.00">SELECT</text>
</g>
<!-- n29&#45;&gt;n33 -->
<g id="edge33" class="edge">
<title>n29&#45;&gt;n33</title>
<path fill="none" stroke="black" d="M954.58,-149.28C972.04,-138.84 997.95,-123.34 1018.66,-110.95"/>
<polygon fill="black" stroke="black" points="1020.69,-113.81 1027.47,-105.68 1017.09,-107.81 1020.69,-113.81"/>
</g>
<!-- n31 -->
<g id="node32" class="node">
<title>n31</title>
<ellipse fill="none" stroke="black" cx="874" cy="-18" rx="27" ry="18"/>
<text text-anchor="middle" x="874" y="-14.3" font-family="Times,serif" font-size="14.00">x</text>
</g>
<!-- n30&#45;&gt;n31 -->
<g id="edge31" class="edge">
<title>n30&#45;&gt;n31</title>
<path fill="none" stroke="black" d="M920.54,-72.41C912.54,-63.22 902.47,-51.67 893.75,-41.66"/>
<polygon fill="black" stroke="black" points="896.31,-39.28 887.1,-34.04 891.04,-43.88 896.31,-39.28"/>
</g>
<!-- n32 -->
<g id="node33" class="node">
<title>n32</title>
<ellipse fill="none" stroke="black" cx="946" cy="-18" rx="27" ry="18"/>
<text text-anchor="middle" x="946" y="-14.3" font-family="Times,serif" font-size="14.00">5</text>
</g>
<!-- n30&#45;&gt;n32 -->
<g id="edge32" class="edge">
<title>n30&#45;&gt;n32</title>
<path fill="none" stroke="black" d="M937.72,-71.7C938.93,-63.98 940.39,-54.71 941.74,-46.11"/>
<polygon fill="black" stroke="black" points="945.22,-46.53 943.31,-36.1 938.3,-45.44 945.22,-46.53"/>
</g>
<!-- n34 -->
<g id="node35" class="node">
<title>n34</title>
<ellipse fill="none" stroke="black" cx="1040" cy="-18" rx="27" ry="18"/>
<text text-anchor="middle" x="1040" y="-14.3" font-family="Times,serif" font-size="14.00">x</text>
</g>
<!-- n33&#45;&gt;n34 -->
<g id="edge34" class="edge">
<title>n33&#45;&gt;n34</title>
<path fill="none" stroke="black" d="M1049.03,-71.7C1047.71,-63.98 1046.12,-54.71 1044.65,-46.11"/>
<polygon fill="black" stroke="black" points="1048.07,-45.37 1042.93,-36.1 1041.17,-46.55 1048.07,-45.37"/>
</g>
<!-- n35 -->
<g id="node36" class="node">
<title>n35</title>
<ellipse fill="none" stroke="black" cx="1112" cy="-18" rx="27" ry="18"/>
<text text-anchor="middle" x="1112" y="-14.3" font-family="Times,serif" font-size="14.00">2</text>
</g>
<!-- n33&#45;&gt;n35 -->
<g id="edge35" class="edge">
<title>n33&#45;&gt;n35</title>
<path fill="none" stroke="black" d="M1066.22,-72.41C1074.09,-63.22 1084,-51.67 1092.58,-41.66"/>
<polygon fill="black" stroke="black" points="1095.26,-43.91 1099.11,-34.04 1089.94,-39.35 1095.26,-43.91"/>
</g>
</g>
</svg>
