<?xml version="1.0" encoding="UTF-8" standalone="no"?>
<!DOCTYPE svg PUBLIC "-//W3C//DTD SVG 1.1//EN"
 "http://www.w3.org/Graphics/SVG/1.1/DTD/svg11.dtd">
<!-- Generated by graphviz version 2.43.0 (0)
 -->
<!-- Title: IVisitor::visit Pages: 1 -->
<svg width="247pt" height="598pt"
 viewBox="0.00 0.00 247.00 598.00" xmlns="http://www.w3.org/2000/svg" xmlns:xlink="http://www.w3.org/1999/xlink">
<g id="graph0" class="graph" transform="scale(1 1) rotate(0) translate(4 594)">
<title>IVisitor::visit</title>
<!-- Node1 -->
<g id="node1" class="node">
<title>Node1</title>
<g id="a_node1"><a xlink:title=" ">
<polygon fill="#bfbfbf" stroke="black" points="161,-285.5 161,-304.5 239,-304.5 239,-285.5 161,-285.5"/>
<text text-anchor="middle" x="200" y="-292.5" font-family="Helvetica,sans-Serif" font-size="10.00">IVisitor::visit</text>
</a>
</g>
</g>
<!-- Node2 -->
<g id="node2" class="node">
<title>Node2</title>
<g id="a_node2"><a xlink:href="../../d2/dc9/class_bin_op_a_s_t.html#aa8fd6e575b06311fb5e1190995670dcf" target="_top" xlink:title=" ">
<polygon fill="none" stroke="black" points="11.5,-570.5 11.5,-589.5 113.5,-589.5 113.5,-570.5 11.5,-570.5"/>
<text text-anchor="middle" x="62.5" y="-577.5" font-family="Helvetica,sans-Serif" font-size="10.00">BinOpAST::accept</text>
</a>
</g>
</g>
<!-- Node1&#45;&gt;Node2 -->
<g id="edge1" class="edge">
<title>Node1&#45;&gt;Node2</title>
<path fill="none" stroke="midnightblue" d="M199.52,-314.69C199.69,-363.43 193.2,-490.84 125,-561 121.26,-564.85 116.76,-567.92 111.92,-570.37"/>
<polygon fill="midnightblue" stroke="midnightblue" points="203.01,-314.5 199.38,-304.55 196.02,-314.6 203.01,-314.5"/>
</g>
<!-- Node3 -->
<g id="node3" class="node">
<title>Node3</title>
<g id="a_node3"><a xlink:href="../../dc/de8/class_un_op_a_s_t.html#a6cda966c30a22dc5e40b7980a2ffcc68" target="_top" xlink:title=" ">
<polygon fill="none" stroke="black" points="12.5,-532.5 12.5,-551.5 112.5,-551.5 112.5,-532.5 12.5,-532.5"/>
<text text-anchor="middle" x="62.5" y="-539.5" font-family="Helvetica,sans-Serif" font-size="10.00">UnOpAST::accept</text>
</a>
</g>
</g>
<!-- Node1&#45;&gt;Node3 -->
<g id="edge2" class="edge">
<title>Node1&#45;&gt;Node3</title>
<path fill="none" stroke="midnightblue" d="M198.41,-315.1C196,-359.13 184.03,-464.8 125,-523 121.1,-526.84 116.44,-529.91 111.45,-532.36"/>
<polygon fill="midnightblue" stroke="midnightblue" points="201.91,-314.99 198.85,-304.85 194.92,-314.69 201.91,-314.99"/>
</g>
<!-- Node4 -->
<g id="node4" class="node">
<title>Node4</title>
<g id="a_node4"><a xlink:href="../../d8/d90/class_number_a_s_t.html#a521b93d7eb553aa30d3f11f0ba5e0754" target="_top" xlink:title=" ">
<polygon fill="none" stroke="black" points="6.5,-494.5 6.5,-513.5 118.5,-513.5 118.5,-494.5 6.5,-494.5"/>
<text text-anchor="middle" x="62.5" y="-501.5" font-family="Helvetica,sans-Serif" font-size="10.00">NumberAST::accept</text>
</a>
</g>
</g>
<!-- Node1&#45;&gt;Node4 -->
<g id="edge3" class="edge">
<title>Node1&#45;&gt;Node4</title>
<path fill="none" stroke="midnightblue" d="M196.92,-314.88C191.82,-353.34 175.24,-438.25 125,-485 120.83,-488.88 115.88,-491.97 110.62,-494.43"/>
<polygon fill="midnightblue" stroke="midnightblue" points="200.39,-315.28 198.11,-304.93 193.44,-314.44 200.39,-315.28"/>
</g>
<!-- Node5 -->
<g id="node5" class="node">
<title>Node5</title>
<g id="a_node5"><a xlink:href="../../da/dbb/class_compound_a_s_t.html#af3df246f456db171a6c152567cfa1582" target="_top" xlink:title=" ">
<polygon fill="none" stroke="black" points="0,-456.5 0,-475.5 125,-475.5 125,-456.5 0,-456.5"/>
<text text-anchor="middle" x="62.5" y="-463.5" font-family="Helvetica,sans-Serif" font-size="10.00">CompoundAST::accept</text>
</a>
</g>
</g>
<!-- Node1&#45;&gt;Node5 -->
<g id="edge4" class="edge">
<title>Node1&#45;&gt;Node5</title>
<path fill="none" stroke="midnightblue" d="M194.73,-314.88C186.74,-347.29 166.46,-411.46 125,-447 120.5,-450.85 115.23,-453.93 109.7,-456.38"/>
<polygon fill="midnightblue" stroke="midnightblue" points="198.21,-315.37 197.06,-304.84 191.39,-313.79 198.21,-315.37"/>
</g>
<!-- Node6 -->
<g id="node6" class="node">
<title>Node6</title>
<g id="a_node6"><a xlink:href="../../d7/db1/class_assign_a_s_t.html#ab237f77d2beb08cc50ea5a96ff1f7df4" target="_top" xlink:title=" ">
<polygon fill="none" stroke="black" points="10,-418.5 10,-437.5 115,-437.5 115,-418.5 10,-418.5"/>
<text text-anchor="middle" x="62.5" y="-425.5" font-family="Helvetica,sans-Serif" font-size="10.00">AssignAST::accept</text>
</a>
</g>
</g>
<!-- Node1&#45;&gt;Node6 -->
<g id="edge5" class="edge">
<title>Node1&#45;&gt;Node6</title>
<path fill="none" stroke="midnightblue" d="M191.66,-313.82C180.85,-339.13 158.25,-383.86 125,-409 119.83,-412.91 113.85,-416.02 107.68,-418.5"/>
<polygon fill="midnightblue" stroke="midnightblue" points="194.9,-315.14 195.46,-304.56 188.43,-312.49 194.9,-315.14"/>
</g>
<!-- Node7 -->
<g id="node7" class="node">
<title>Node7</title>
<g id="a_node7"><a xlink:href="../../dc/dff/class_var_a_s_t.html#aacf5155cef2df2c6404f8861da3b90ae" target="_top" xlink:title=" ">
<polygon fill="none" stroke="black" points="18,-380.5 18,-399.5 107,-399.5 107,-380.5 18,-380.5"/>
<text text-anchor="middle" x="62.5" y="-387.5" font-family="Helvetica,sans-Serif" font-size="10.00">VarAST::accept</text>
</a>
</g>
</g>
<!-- Node1&#45;&gt;Node7 -->
<g id="edge6" class="edge">
<title>Node1&#45;&gt;Node7</title>
<path fill="none" stroke="midnightblue" d="M186,-312.8C172.54,-330.02 150.01,-355.69 125,-371 118.71,-374.85 111.57,-377.98 104.45,-380.5"/>
<polygon fill="midnightblue" stroke="midnightblue" points="188.91,-314.75 192.17,-304.67 183.34,-310.52 188.91,-314.75"/>
</g>
<!-- Node8 -->
<g id="node8" class="node">
<title>Node8</title>
<g id="a_node8"><a xlink:href="../../db/db7/class_no_op_a_s_t.html#a2da3cd0efff2413730213b2495decd7e" target="_top" xlink:title=" ">
<polygon fill="none" stroke="black" points="12.5,-342.5 12.5,-361.5 112.5,-361.5 112.5,-342.5 12.5,-342.5"/>
<text text-anchor="middle" x="62.5" y="-349.5" font-family="Helvetica,sans-Serif" font-size="10.00">NoOpAST::accept</text>
</a>
</g>
</g>
<!-- Node1&#45;&gt;Node8 -->
<g id="edge7" class="edge">
<title>Node1&#45;&gt;Node8</title>
<path fill="none" stroke="midnightblue" d="M173.32,-309.59C159.32,-317.19 141.52,-326.27 125,-333 116.41,-336.5 106.93,-339.73 98.03,-342.49"/>
<polygon fill="midnightblue" stroke="midnightblue" points="175.28,-312.51 182.35,-304.62 171.9,-306.38 175.28,-312.51"/>
</g>
<!-- Node9 -->
<g id="node9" class="node">
<title>Node9</title>
<g id="a_node9"><a xlink:href="../../de/db2/class_program_a_s_t.html#adf015c45c078803cd3115ad34013941e" target="_top" xlink:title=" ">
<polygon fill="none" stroke="black" points="5.5,-304.5 5.5,-323.5 119.5,-323.5 119.5,-304.5 5.5,-304.5"/>
<text text-anchor="middle" x="62.5" y="-311.5" font-family="Helvetica,sans-Serif" font-size="10.00">ProgramAST::accept</text>
</a>
</g>
</g>
<!-- Node1&#45;&gt;Node9 -->
<g id="edge8" class="edge">
<title>Node1&#45;&gt;Node9</title>
<path fill="none" stroke="midnightblue" d="M150.97,-301.73C140.8,-303.16 129.97,-304.68 119.53,-306.14"/>
<polygon fill="midnightblue" stroke="midnightblue" points="151.48,-305.2 160.9,-300.34 150.51,-298.27 151.48,-305.2"/>
</g>
<!-- Node10 -->
<g id="node10" class="node">
<title>Node10</title>
<g id="a_node10"><a xlink:href="../../d0/de0/class_block_a_s_t.html#a7695b1931cd5a767216a789df30bc229" target="_top" xlink:title=" ">
<polygon fill="none" stroke="black" points="12.5,-266.5 12.5,-285.5 112.5,-285.5 112.5,-266.5 12.5,-266.5"/>
<text text-anchor="middle" x="62.5" y="-273.5" font-family="Helvetica,sans-Serif" font-size="10.00">BlockAST::accept</text>
</a>
</g>
</g>
<!-- Node1&#45;&gt;Node10 -->
<g id="edge9" class="edge">
<title>Node1&#45;&gt;Node10</title>
<path fill="none" stroke="midnightblue" d="M150.83,-288.25C138.55,-286.52 125.32,-284.67 112.97,-282.94"/>
<polygon fill="midnightblue" stroke="midnightblue" points="150.51,-291.73 160.9,-289.66 151.48,-284.8 150.51,-291.73"/>
</g>
<!-- Node11 -->
<g id="node11" class="node">
<title>Node11</title>
<g id="a_node11"><a xlink:href="../../d6/d7c/class_var_decl_a_s_t.html#a55b75b733c74659e60b69d770504876e" target="_top" xlink:title=" ">
<polygon fill="none" stroke="black" points="7.5,-228.5 7.5,-247.5 117.5,-247.5 117.5,-228.5 7.5,-228.5"/>
<text text-anchor="middle" x="62.5" y="-235.5" font-family="Helvetica,sans-Serif" font-size="10.00">VarDeclAST::accept</text>
</a>
</g>
</g>
<!-- Node1&#45;&gt;Node11 -->
<g id="edge10" class="edge">
<title>Node1&#45;&gt;Node11</title>
<path fill="none" stroke="midnightblue" d="M173.32,-280.41C159.32,-272.81 141.52,-263.73 125,-257 116.41,-253.5 106.93,-250.27 98.03,-247.51"/>
<polygon fill="midnightblue" stroke="midnightblue" points="171.9,-283.62 182.35,-285.38 175.28,-277.49 171.9,-283.62"/>
</g>
<!-- Node12 -->
<g id="node12" class="node">
<title>Node12</title>
<g id="a_node12"><a xlink:href="../../d2/db9/class_type_spec_a_s_t.html#aac50ec3076900267c5e9d1565e8ab835" target="_top" xlink:title=" ">
<polygon fill="none" stroke="black" points="3,-190.5 3,-209.5 122,-209.5 122,-190.5 3,-190.5"/>
<text text-anchor="middle" x="62.5" y="-197.5" font-family="Helvetica,sans-Serif" font-size="10.00">TypeSpecAST::accept</text>
</a>
</g>
</g>
<!-- Node1&#45;&gt;Node12 -->
<g id="edge11" class="edge">
<title>Node1&#45;&gt;Node12</title>
<path fill="none" stroke="midnightblue" d="M186,-277.2C172.54,-259.98 150.01,-234.31 125,-219 118.71,-215.15 111.57,-212.02 104.45,-209.5"/>
<polygon fill="midnightblue" stroke="midnightblue" points="183.34,-279.48 192.17,-285.33 188.91,-275.25 183.34,-279.48"/>
</g>
<!-- Node13 -->
<g id="node13" class="node">
<title>Node13</title>
<g id="a_node13"><a xlink:href="../../d6/d94/class_const_a_s_t.html#a4d7b08f4c47d235bea5ed0f2b87d3445" target="_top" xlink:title=" ">
<polygon fill="none" stroke="black" points="12,-152.5 12,-171.5 113,-171.5 113,-152.5 12,-152.5"/>
<text text-anchor="middle" x="62.5" y="-159.5" font-family="Helvetica,sans-Serif" font-size="10.00">ConstAST::accept</text>
</a>
</g>
</g>
<!-- Node1&#45;&gt;Node13 -->
<g id="edge12" class="edge">
<title>Node1&#45;&gt;Node13</title>
<path fill="none" stroke="midnightblue" d="M191.66,-276.18C180.85,-250.87 158.25,-206.14 125,-181 119.83,-177.09 113.85,-173.98 107.68,-171.5"/>
<polygon fill="midnightblue" stroke="midnightblue" points="188.43,-277.51 195.46,-285.44 194.9,-274.86 188.43,-277.51"/>
</g>
<!-- Node14 -->
<g id="node14" class="node">
<title>Node14</title>
<g id="a_node14"><a xlink:href="../../d0/d21/class_string_a_s_t.html#af9159f6956aba13305962f6879fe365d" target="_top" xlink:title=" ">
<polygon fill="none" stroke="black" points="12,-114.5 12,-133.5 113,-133.5 113,-114.5 12,-114.5"/>
<text text-anchor="middle" x="62.5" y="-121.5" font-family="Helvetica,sans-Serif" font-size="10.00">StringAST::accept</text>
</a>
</g>
</g>
<!-- Node1&#45;&gt;Node14 -->
<g id="edge13" class="edge">
<title>Node1&#45;&gt;Node14</title>
<path fill="none" stroke="midnightblue" d="M194.73,-275.12C186.74,-242.71 166.46,-178.54 125,-143 120.5,-139.15 115.23,-136.07 109.7,-133.62"/>
<polygon fill="midnightblue" stroke="midnightblue" points="191.39,-276.21 197.06,-285.16 198.21,-274.63 191.39,-276.21"/>
</g>
<!-- Node15 -->
<g id="node15" class="node">
<title>Node15</title>
<g id="a_node15"><a xlink:href="../../da/dd1/class_call_a_s_t.html#aa4260777496618a9e74cb016c836460c" target="_top" xlink:title=" ">
<polygon fill="none" stroke="black" points="16.5,-76.5 16.5,-95.5 108.5,-95.5 108.5,-76.5 16.5,-76.5"/>
<text text-anchor="middle" x="62.5" y="-83.5" font-family="Helvetica,sans-Serif" font-size="10.00">CallAST::accept</text>
</a>
</g>
</g>
<!-- Node1&#45;&gt;Node15 -->
<g id="edge14" class="edge">
<title>Node1&#45;&gt;Node15</title>
<path fill="none" stroke="midnightblue" d="M196.92,-275.12C191.82,-236.66 175.24,-151.75 125,-105 120.34,-100.66 114.7,-97.31 108.76,-94.73"/>
<polygon fill="midnightblue" stroke="midnightblue" points="193.44,-275.56 198.11,-285.07 200.39,-274.72 193.44,-275.56"/>
</g>
<!-- Node16 -->
<g id="node16" class="node">
<title>Node16</title>
<g id="a_node16"><a xlink:href="../../d4/de5/classif_a_s_t.html#a7270503a29c2043b723e06a135765b25" target="_top" xlink:title=" ">
<polygon fill="none" stroke="black" points="22.5,-38.5 22.5,-57.5 102.5,-57.5 102.5,-38.5 22.5,-38.5"/>
<text text-anchor="middle" x="62.5" y="-45.5" font-family="Helvetica,sans-Serif" font-size="10.00">ifAST::accept</text>
</a>
</g>
</g>
<!-- Node1&#45;&gt;Node16 -->
<g id="edge15" class="edge">
<title>Node1&#45;&gt;Node16</title>
<path fill="none" stroke="midnightblue" d="M198.41,-274.9C196,-230.87 184.03,-125.2 125,-67 118.87,-60.96 110.87,-56.83 102.67,-54.02"/>
<polygon fill="midnightblue" stroke="midnightblue" points="194.92,-275.31 198.85,-285.15 201.91,-275.01 194.92,-275.31"/>
</g>
<!-- Node17 -->
<g id="node17" class="node">
<title>Node17</title>
<g id="a_node17"><a xlink:href="../../d4/dae/classwhile_a_s_t.html#a4216bb984c862cb021b68baa6107820b" target="_top" xlink:title=" ">
<polygon fill="none" stroke="black" points="13,-0.5 13,-19.5 112,-19.5 112,-0.5 13,-0.5"/>
<text text-anchor="middle" x="62.5" y="-7.5" font-family="Helvetica,sans-Serif" font-size="10.00">whileAST::accept</text>
</a>
</g>
</g>
<!-- Node1&#45;&gt;Node17 -->
<g id="edge16" class="edge">
<title>Node1&#45;&gt;Node17</title>
<path fill="none" stroke="midnightblue" d="M199.52,-275.31C199.69,-226.57 193.2,-99.16 125,-29 121.26,-25.15 116.76,-22.08 111.92,-19.63"/>
<polygon fill="midnightblue" stroke="midnightblue" points="196.02,-275.4 199.38,-285.45 203.01,-275.5 196.02,-275.4"/>
</g>
</g>
</svg>
