<?xml version="1.0" encoding="UTF-8" standalone="no"?>
<!DOCTYPE svg PUBLIC "-//W3C//DTD SVG 1.1//EN"
 "http://www.w3.org/Graphics/SVG/1.1/DTD/svg11.dtd">
<!-- Generated by graphviz version 2.43.0 (0)
 -->
<!-- Title: include/Token.hpp Pages: 1 -->
<svg width="960pt" height="207pt"
 viewBox="0.00 0.00 959.50 207.00" xmlns="http://www.w3.org/2000/svg" xmlns:xlink="http://www.w3.org/1999/xlink">
<g id="graph0" class="graph" transform="scale(1 1) rotate(0) translate(4 203)">
<title>include/Token.hpp</title>
<!-- Node1 -->
<g id="node1" class="node">
<title>Node1</title>
<g id="a_node1"><a xlink:title=" ">
<polygon fill="#bfbfbf" stroke="black" points="437.5,-179.5 437.5,-198.5 541.5,-198.5 541.5,-179.5 437.5,-179.5"/>
<text text-anchor="middle" x="489.5" y="-186.5" font-family="Helvetica,sans-Serif" font-size="10.00">include/Token.hpp</text>
</a>
</g>
</g>
<!-- Node2 -->
<g id="node2" class="node">
<title>Node2</title>
<g id="a_node2"><a xlink:href="../../d4/dcb/_a_s_t_8hpp.html" target="_top" xlink:title=" ">
<polygon fill="none" stroke="black" points="154.5,-123.5 154.5,-142.5 248.5,-142.5 248.5,-123.5 154.5,-123.5"/>
<text text-anchor="middle" x="201.5" y="-130.5" font-family="Helvetica,sans-Serif" font-size="10.00">include/AST.hpp</text>
</a>
</g>
</g>
<!-- Node1&#45;&gt;Node2 -->
<g id="edge1" class="edge">
<title>Node1&#45;&gt;Node2</title>
<path fill="none" stroke="midnightblue" d="M433.7,-177.54C379.27,-167.33 297.5,-152 246.92,-142.52"/>
<polygon fill="midnightblue" stroke="midnightblue" points="433.39,-181.04 443.87,-179.44 434.68,-174.16 433.39,-181.04"/>
</g>
<!-- Node3 -->
<g id="node3" class="node">
<title>Node3</title>
<g id="a_node3"><a xlink:href="../../df/d3f/_syntax_8hpp.html" target="_top" xlink:title=" ">
<polygon fill="none" stroke="black" points="253.5,-67.5 253.5,-86.5 363.5,-86.5 363.5,-67.5 253.5,-67.5"/>
<text text-anchor="middle" x="308.5" y="-74.5" font-family="Helvetica,sans-Serif" font-size="10.00">include/Syntax.hpp</text>
</a>
</g>
</g>
<!-- Node1&#45;&gt;Node3 -->
<g id="edge22" class="edge">
<title>Node1&#45;&gt;Node3</title>
<path fill="none" stroke="midnightblue" d="M466.48,-174.01C428.48,-150.92 353.77,-105.51 322.64,-86.59"/>
<polygon fill="midnightblue" stroke="midnightblue" points="464.93,-177.17 475.3,-179.37 468.57,-171.18 464.93,-177.17"/>
</g>
<!-- Node4 -->
<g id="node4" class="node">
<title>Node4</title>
<g id="a_node4"><a xlink:href="../../df/d0a/main_8cpp.html" target="_top" xlink:title=" ">
<polygon fill="none" stroke="black" points="521.5,-6 521.5,-25 583.5,-25 583.5,-6 521.5,-6"/>
<text text-anchor="middle" x="552.5" y="-13" font-family="Helvetica,sans-Serif" font-size="10.00">main.cpp</text>
</a>
</g>
</g>
<!-- Node1&#45;&gt;Node4 -->
<g id="edge24" class="edge">
<title>Node1&#45;&gt;Node4</title>
<path fill="none" stroke="midnightblue" d="M507.37,-172.36C526.73,-154.13 556.44,-121.99 568.5,-87 575.94,-65.4 564.72,-38.88 557.6,-25.35"/>
<polygon fill="midnightblue" stroke="midnightblue" points="504.81,-169.96 499.8,-179.3 509.54,-175.13 504.81,-169.96"/>
</g>
<!-- Node7 -->
<g id="node7" class="node">
<title>Node7</title>
<g id="a_node7"><a xlink:href="../../db/d42/_visitor_8hpp.html" target="_top" xlink:title=" ">
<polygon fill="none" stroke="black" points="0,-67.5 0,-86.5 107,-86.5 107,-67.5 0,-67.5"/>
<text text-anchor="middle" x="53.5" y="-74.5" font-family="Helvetica,sans-Serif" font-size="10.00">include/Visitor.hpp</text>
</a>
</g>
</g>
<!-- Node1&#45;&gt;Node7 -->
<g id="edge23" class="edge">
<title>Node1&#45;&gt;Node7</title>
<path fill="none" stroke="midnightblue" d="M427.39,-188.74C356.74,-187.59 239.07,-179.57 145.5,-143 111.62,-129.76 78.41,-101.45 62.77,-86.95"/>
<polygon fill="midnightblue" stroke="midnightblue" points="427.42,-192.24 437.46,-188.86 427.51,-185.24 427.42,-192.24"/>
</g>
<!-- Node10 -->
<g id="node10" class="node">
<title>Node10</title>
<g id="a_node10"><a xlink:href="../../d5/d24/_lexer_8hpp.html" target="_top" xlink:title=" ">
<polygon fill="none" stroke="black" points="616,-123.5 616,-142.5 717,-142.5 717,-123.5 616,-123.5"/>
<text text-anchor="middle" x="666.5" y="-130.5" font-family="Helvetica,sans-Serif" font-size="10.00">include/Lexer.hpp</text>
</a>
</g>
</g>
<!-- Node1&#45;&gt;Node10 -->
<g id="edge11" class="edge">
<title>Node1&#45;&gt;Node10</title>
<path fill="none" stroke="midnightblue" d="M527.4,-176.44C560.78,-166.26 608.6,-151.66 638.59,-142.52"/>
<polygon fill="midnightblue" stroke="midnightblue" points="526.09,-173.18 517.55,-179.44 528.13,-179.87 526.09,-173.18"/>
</g>
<!-- Node14 -->
<g id="node14" class="node">
<title>Node14</title>
<g id="a_node14"><a xlink:href="../../d8/d69/_pascal_tokens_8hpp.html" target="_top" xlink:title=" ">
<polygon fill="none" stroke="black" points="419.5,-67.5 419.5,-86.5 559.5,-86.5 559.5,-67.5 419.5,-67.5"/>
<text text-anchor="middle" x="489.5" y="-74.5" font-family="Helvetica,sans-Serif" font-size="10.00">include/PascalTokens.hpp</text>
</a>
</g>
</g>
<!-- Node1&#45;&gt;Node14 -->
<g id="edge18" class="edge">
<title>Node1&#45;&gt;Node14</title>
<path fill="none" stroke="midnightblue" d="M489.5,-169.35C489.5,-145.25 489.5,-104.31 489.5,-86.59"/>
<polygon fill="midnightblue" stroke="midnightblue" points="486,-169.37 489.5,-179.37 493,-169.37 486,-169.37"/>
</g>
<!-- Node15 -->
<g id="node15" class="node">
<title>Node15</title>
<g id="a_node15"><a xlink:href="../../d1/db6/_token_8cpp.html" target="_top" xlink:title=" ">
<polygon fill="none" stroke="black" points="735.5,-123.5 735.5,-142.5 817.5,-142.5 817.5,-123.5 735.5,-123.5"/>
<text text-anchor="middle" x="776.5" y="-130.5" font-family="Helvetica,sans-Serif" font-size="10.00">src/Token.cpp</text>
</a>
</g>
</g>
<!-- Node1&#45;&gt;Node15 -->
<g id="edge25" class="edge">
<title>Node1&#45;&gt;Node15</title>
<path fill="none" stroke="midnightblue" d="M545.04,-177.55C600.81,-167.06 685.43,-151.13 735.42,-141.73"/>
<polygon fill="midnightblue" stroke="midnightblue" points="544.16,-174.15 534.98,-179.44 545.45,-181.03 544.16,-174.15"/>
</g>
<!-- Node2&#45;&gt;Node3 -->
<g id="edge2" class="edge">
<title>Node2&#45;&gt;Node3</title>
<path fill="none" stroke="midnightblue" d="M227.8,-118.73C247.61,-108.73 274.21,-95.31 291.35,-86.65"/>
<polygon fill="midnightblue" stroke="midnightblue" points="226.04,-115.69 218.69,-123.32 229.2,-121.94 226.04,-115.69"/>
</g>
<!-- Node6 -->
<g id="node6" class="node">
<title>Node6</title>
<g id="a_node6"><a xlink:href="../../dd/de9/test_syntax_8cpp.html" target="_top" xlink:title=" ">
<polygon fill="none" stroke="black" points="315.5,-6 315.5,-25 467.5,-25 467.5,-6 315.5,-6"/>
<text text-anchor="middle" x="391.5" y="-13" font-family="Helvetica,sans-Serif" font-size="10.00">tests/syntax/testSyntax.cpp</text>
</a>
</g>
</g>
<!-- Node2&#45;&gt;Node6 -->
<g id="edge10" class="edge">
<title>Node2&#45;&gt;Node6</title>
<path fill="none" stroke="midnightblue" d="M209.54,-113.62C216.76,-99.08 228.66,-79.26 244.5,-67 272.88,-45.03 311.45,-32.26 341.96,-25.06"/>
<polygon fill="midnightblue" stroke="midnightblue" points="206.18,-112.54 205.12,-123.08 212.52,-115.5 206.18,-112.54"/>
</g>
<!-- Node2&#45;&gt;Node7 -->
<g id="edge6" class="edge">
<title>Node2&#45;&gt;Node7</title>
<path fill="none" stroke="midnightblue" d="M163.39,-120.17C133.93,-110 94.62,-95.59 71.76,-86.52"/>
<polygon fill="midnightblue" stroke="midnightblue" points="162.37,-123.52 172.96,-123.44 164.63,-116.9 162.37,-123.52"/>
</g>
<!-- Node9 -->
<g id="node9" class="node">
<title>Node9</title>
<g id="a_node9"><a xlink:href="../../d0/d91/_a_s_t_8cpp.html" target="_top" xlink:title=" ">
<polygon fill="none" stroke="black" points="125.5,-67.5 125.5,-86.5 197.5,-86.5 197.5,-67.5 125.5,-67.5"/>
<text text-anchor="middle" x="161.5" y="-74.5" font-family="Helvetica,sans-Serif" font-size="10.00">src/AST.cpp</text>
</a>
</g>
</g>
<!-- Node2&#45;&gt;Node9 -->
<g id="edge9" class="edge">
<title>Node2&#45;&gt;Node9</title>
<path fill="none" stroke="midnightblue" d="M188.8,-114.86C181.87,-105.5 173.59,-94.33 167.98,-86.75"/>
<polygon fill="midnightblue" stroke="midnightblue" points="186.13,-117.13 194.89,-123.08 191.75,-112.96 186.13,-117.13"/>
</g>
<!-- Node3&#45;&gt;Node4 -->
<g id="edge3" class="edge">
<title>Node3&#45;&gt;Node4</title>
<path fill="none" stroke="midnightblue" d="M353.43,-65.04C402.24,-53.14 478.93,-34.44 521.47,-24.07"/>
<polygon fill="midnightblue" stroke="midnightblue" points="352.35,-61.71 343.46,-67.48 354,-68.51 352.35,-61.71"/>
</g>
<!-- Node5 -->
<g id="node5" class="node">
<title>Node5</title>
<g id="a_node5"><a xlink:href="../../d1/daa/_syntax_8cpp.html" target="_top" xlink:title=" ">
<polygon fill="none" stroke="black" points="209.5,-6 209.5,-25 297.5,-25 297.5,-6 209.5,-6"/>
<text text-anchor="middle" x="253.5" y="-13" font-family="Helvetica,sans-Serif" font-size="10.00">src/Syntax.cpp</text>
</a>
</g>
</g>
<!-- Node3&#45;&gt;Node5 -->
<g id="edge4" class="edge">
<title>Node3&#45;&gt;Node5</title>
<path fill="none" stroke="midnightblue" d="M293.71,-60C283.3,-48.74 269.77,-34.1 261.37,-25.01"/>
<polygon fill="midnightblue" stroke="midnightblue" points="291.26,-62.51 300.62,-67.48 296.4,-57.76 291.26,-62.51"/>
</g>
<!-- Node3&#45;&gt;Node6 -->
<g id="edge5" class="edge">
<title>Node3&#45;&gt;Node6</title>
<path fill="none" stroke="midnightblue" d="M328.57,-61.61C344.53,-50.17 366.33,-34.55 379.63,-25.01"/>
<polygon fill="midnightblue" stroke="midnightblue" points="326.48,-58.8 320.39,-67.48 330.56,-64.49 326.48,-58.8"/>
</g>
<!-- Node7&#45;&gt;Node2 -->
<g id="edge7" class="edge">
<title>Node7&#45;&gt;Node2</title>
<path fill="none" stroke="midnightblue" d="M91.48,-89.78C120.91,-99.94 160.23,-114.36 183.14,-123.44"/>
<polygon fill="midnightblue" stroke="midnightblue" points="92.52,-86.44 81.92,-86.52 90.25,-93.06 92.52,-86.44"/>
</g>
<!-- Node8 -->
<g id="node8" class="node">
<title>Node8</title>
<g id="a_node8"><a xlink:href="../../dc/d65/_visitor_8cpp.html" target="_top" xlink:title=" ">
<polygon fill="none" stroke="black" points="11,-6 11,-25 96,-25 96,-6 11,-6"/>
<text text-anchor="middle" x="53.5" y="-13" font-family="Helvetica,sans-Serif" font-size="10.00">src/Visitor.cpp</text>
</a>
</g>
</g>
<!-- Node7&#45;&gt;Node8 -->
<g id="edge8" class="edge">
<title>Node7&#45;&gt;Node8</title>
<path fill="none" stroke="midnightblue" d="M53.5,-57.32C53.5,-46.5 53.5,-33.4 53.5,-25.01"/>
<polygon fill="midnightblue" stroke="midnightblue" points="50,-57.48 53.5,-67.48 57,-57.48 50,-57.48"/>
</g>
<!-- Node10&#45;&gt;Node4 -->
<g id="edge12" class="edge">
<title>Node10&#45;&gt;Node4</title>
<path fill="none" stroke="midnightblue" d="M685.77,-116.7C700.4,-103.19 716.18,-83.19 704.5,-67 677,-28.89 619.57,-19.09 583.71,-16.83"/>
<polygon fill="midnightblue" stroke="midnightblue" points="683.21,-114.28 677.94,-123.47 687.79,-119.58 683.21,-114.28"/>
</g>
<!-- Node10&#45;&gt;Node6 -->
<g id="edge17" class="edge">
<title>Node10&#45;&gt;Node6</title>
<path fill="none" stroke="midnightblue" d="M605.63,-128.71C539.14,-123.87 438.36,-112.47 410.5,-87 392.91,-70.92 390.91,-40.43 391.09,-25.38"/>
<polygon fill="midnightblue" stroke="midnightblue" points="605.77,-132.23 615.99,-129.43 606.26,-125.25 605.77,-132.23"/>
</g>
<!-- Node11 -->
<g id="node11" class="node">
<title>Node11</title>
<g id="a_node11"><a xlink:href="../../dd/d5d/_lexer_8cpp.html" target="_top" xlink:title="Лексер">
<polygon fill="none" stroke="black" points="615.5,-67.5 615.5,-86.5 695.5,-86.5 695.5,-67.5 615.5,-67.5"/>
<text text-anchor="middle" x="655.5" y="-74.5" font-family="Helvetica,sans-Serif" font-size="10.00">src/Lexer.cpp</text>
</a>
</g>
</g>
<!-- Node10&#45;&gt;Node11 -->
<g id="edge13" class="edge">
<title>Node10&#45;&gt;Node11</title>
<path fill="none" stroke="midnightblue" d="M662.65,-113.1C660.82,-104.14 658.73,-93.86 657.28,-86.75"/>
<polygon fill="midnightblue" stroke="midnightblue" points="659.26,-113.98 664.68,-123.08 666.12,-112.59 659.26,-113.98"/>
</g>
<!-- Node12 -->
<g id="node12" class="node">
<title>Node12</title>
<g id="a_node12"><a xlink:href="../../dd/d68/lexer_test_rules_8hpp.html" target="_top" xlink:title=" ">
<polygon fill="none" stroke="black" points="789.5,-67.5 789.5,-86.5 951.5,-86.5 951.5,-67.5 789.5,-67.5"/>
<text text-anchor="middle" x="870.5" y="-74.5" font-family="Helvetica,sans-Serif" font-size="10.00">tests/lexer/lexerTestRules.hpp</text>
</a>
</g>
</g>
<!-- Node10&#45;&gt;Node12 -->
<g id="edge14" class="edge">
<title>Node10&#45;&gt;Node12</title>
<path fill="none" stroke="midnightblue" d="M708.7,-120.83C747.22,-110.63 803.32,-95.78 838.33,-86.52"/>
<polygon fill="midnightblue" stroke="midnightblue" points="707.6,-117.5 698.82,-123.44 709.39,-124.27 707.6,-117.5"/>
</g>
<!-- Node13 -->
<g id="node13" class="node">
<title>Node13</title>
<g id="a_node13"><a xlink:href="../../d0/d0f/test_lexer__1_8cpp.html" target="_top" xlink:title="Тесты для лексера">
<polygon fill="none" stroke="black" points="703.5,-0.5 703.5,-30.5 819.5,-30.5 819.5,-0.5 703.5,-0.5"/>
<text text-anchor="start" x="711.5" y="-18.5" font-family="Helvetica,sans-Serif" font-size="10.00">tests/lexer/testLexer</text>
<text text-anchor="middle" x="761.5" y="-7.5" font-family="Helvetica,sans-Serif" font-size="10.00">_1.cpp</text>
</a>
</g>
</g>
<!-- Node10&#45;&gt;Node13 -->
<g id="edge16" class="edge">
<title>Node10&#45;&gt;Node13</title>
<path fill="none" stroke="midnightblue" d="M696.23,-119C710.45,-111.46 726.69,-100.73 737.5,-87 750.7,-70.24 756.85,-45.8 759.56,-30.54"/>
<polygon fill="midnightblue" stroke="midnightblue" points="694.64,-115.88 687.26,-123.49 697.77,-122.14 694.64,-115.88"/>
</g>
<!-- Node12&#45;&gt;Node13 -->
<g id="edge15" class="edge">
<title>Node12&#45;&gt;Node13</title>
<path fill="none" stroke="midnightblue" d="M845.85,-62.54C828.35,-52.99 804.92,-40.2 787.19,-30.52"/>
<polygon fill="midnightblue" stroke="midnightblue" points="844.43,-65.76 854.88,-67.48 847.78,-59.61 844.43,-65.76"/>
</g>
<!-- Node14&#45;&gt;Node4 -->
<g id="edge19" class="edge">
<title>Node14&#45;&gt;Node4</title>
<path fill="none" stroke="midnightblue" d="M506.1,-60.32C518.07,-49.02 533.77,-34.19 543.49,-25.01"/>
<polygon fill="midnightblue" stroke="midnightblue" points="503.39,-58.06 498.53,-67.48 508.2,-63.15 503.39,-58.06"/>
</g>
<!-- Node14&#45;&gt;Node6 -->
<g id="edge21" class="edge">
<title>Node14&#45;&gt;Node6</title>
<path fill="none" stroke="midnightblue" d="M466.84,-62.24C447.91,-50.75 421.51,-34.72 405.51,-25.01"/>
<polygon fill="midnightblue" stroke="midnightblue" points="465.09,-65.28 475.46,-67.48 468.73,-59.29 465.09,-65.28"/>
</g>
<!-- Node14&#45;&gt;Node13 -->
<g id="edge20" class="edge">
<title>Node14&#45;&gt;Node13</title>
<path fill="none" stroke="midnightblue" d="M538.27,-65.33C584.56,-55.21 654.17,-39.98 703.33,-29.22"/>
<polygon fill="midnightblue" stroke="midnightblue" points="537.49,-61.92 528.47,-67.48 538.99,-68.76 537.49,-61.92"/>
</g>
</g>
</svg>
