<?xml version="1.0" encoding="UTF-8" standalone="no"?>
<!DOCTYPE svg PUBLIC "-//W3C//DTD SVG 1.1//EN"
 "http://www.w3.org/Graphics/SVG/1.1/DTD/svg11.dtd">
<!-- Generated by graphviz version 3.0.0 (20220413.0106)
 -->
<!-- Title: PascalSyntaxAnalyzer::syntaxWhileSt Pages: 1 -->
<svg width="1241pt" height="159pt"
 viewBox="0.00 0.00 1241.00 159.00" xmlns="http://www.w3.org/2000/svg" xmlns:xlink="http://www.w3.org/1999/xlink">
<g id="graph0" class="graph" transform="scale(1 1) rotate(0) translate(4 155)">
<title>PascalSyntaxAnalyzer::syntaxWhileSt</title>
<!-- Node1 -->
<g id="node1" class="node">
<title>Node1</title>
<g id="a_node1"><a xlink:title=" ">
<polygon fill="#bfbfbf" stroke="black" points="1120,-71.5 1120,-101.5 1233,-101.5 1233,-71.5 1120,-71.5"/>
<text text-anchor="start" x="1128" y="-89.5" font-family="Helvetica,sans-Serif" font-size="10.00">PascalSyntaxAnalyzer</text>
<text text-anchor="middle" x="1176.5" y="-78.5" font-family="Helvetica,sans-Serif" font-size="10.00">::syntaxWhileSt</text>
</a>
</g>
</g>
<!-- Node2 -->
<g id="node2" class="node">
<title>Node2</title>
<g id="a_node2"><a xlink:href="../../d6/d00/class_pascal_syntax_analyzer.html#af92e2fd2112e0b98c1d419e9068ffd49" target="_top" xlink:title=" ">
<polygon fill="none" stroke="black" points="971,-71.5 971,-101.5 1084,-101.5 1084,-71.5 971,-71.5"/>
<text text-anchor="start" x="979" y="-89.5" font-family="Helvetica,sans-Serif" font-size="10.00">PascalSyntaxAnalyzer</text>
<text text-anchor="middle" x="1027.5" y="-78.5" font-family="Helvetica,sans-Serif" font-size="10.00">::syntaxSt</text>
</a>
</g>
</g>
<!-- Node1&#45;&gt;Node2 -->
<g id="edge1" class="edge">
<title>Node1&#45;&gt;Node2</title>
<path fill="none" stroke="midnightblue" d="M1109.92,-79.78C1101.32,-79.71 1092.57,-79.76 1084.15,-79.93"/>
<polygon fill="midnightblue" stroke="midnightblue" points="1109.88,-83.28 1119.93,-79.93 1109.98,-76.29 1109.88,-83.28"/>
</g>
<!-- Node2&#45;&gt;Node1 -->
<g id="edge15" class="edge">
<title>Node2&#45;&gt;Node1</title>
<path fill="none" stroke="midnightblue" d="M1094.16,-93.22C1102.76,-93.29 1111.51,-93.24 1119.93,-93.07"/>
<polygon fill="midnightblue" stroke="midnightblue" points="1094.2,-89.72 1084.15,-93.07 1094.1,-96.72 1094.2,-89.72"/>
</g>
<!-- Node3 -->
<g id="node3" class="node">
<title>Node3</title>
<g id="a_node3"><a xlink:href="../../d6/d00/class_pascal_syntax_analyzer.html#aeab55be1d74a8810d1ea8aa51ba8e820" target="_top" xlink:title=" ">
<polygon fill="none" stroke="black" points="822,-120.5 822,-150.5 935,-150.5 935,-120.5 822,-120.5"/>
<text text-anchor="start" x="830" y="-138.5" font-family="Helvetica,sans-Serif" font-size="10.00">PascalSyntaxAnalyzer</text>
<text text-anchor="middle" x="878.5" y="-127.5" font-family="Helvetica,sans-Serif" font-size="10.00">::syntaxForSt</text>
</a>
</g>
</g>
<!-- Node2&#45;&gt;Node3 -->
<g id="edge2" class="edge">
<title>Node2&#45;&gt;Node3</title>
<path fill="none" stroke="midnightblue" d="M961.32,-101.51C942.79,-107.52 923.54,-114.34 908.37,-120.38"/>
<polygon fill="midnightblue" stroke="midnightblue" points="962.46,-104.83 970.93,-98.46 960.34,-98.16 962.46,-104.83"/>
</g>
<!-- Node4 -->
<g id="node4" class="node">
<title>Node4</title>
<g id="a_node4"><a xlink:href="../../d6/d00/class_pascal_syntax_analyzer.html#ada2725df1a0f0ca0aab5d02466661f01" target="_top" xlink:title=" ">
<polygon fill="none" stroke="black" points="822,-71.5 822,-101.5 935,-101.5 935,-71.5 822,-71.5"/>
<text text-anchor="start" x="830" y="-89.5" font-family="Helvetica,sans-Serif" font-size="10.00">PascalSyntaxAnalyzer</text>
<text text-anchor="middle" x="878.5" y="-78.5" font-family="Helvetica,sans-Serif" font-size="10.00">::syntaxIfSt</text>
</a>
</g>
</g>
<!-- Node2&#45;&gt;Node4 -->
<g id="edge4" class="edge">
<title>Node2&#45;&gt;Node4</title>
<path fill="none" stroke="midnightblue" d="M960.92,-79.78C952.32,-79.71 943.57,-79.76 935.15,-79.93"/>
<polygon fill="midnightblue" stroke="midnightblue" points="960.88,-83.28 970.93,-79.93 960.98,-76.29 960.88,-83.28"/>
</g>
<!-- Node5 -->
<g id="node5" class="node">
<title>Node5</title>
<g id="a_node5"><a xlink:href="../../d6/d00/class_pascal_syntax_analyzer.html#acdfdfaf0ac3d4ed0be3e240ecc4ff535" target="_top" xlink:title=" ">
<polygon fill="none" stroke="black" points="822,-22.5 822,-52.5 935,-52.5 935,-22.5 822,-22.5"/>
<text text-anchor="start" x="830" y="-40.5" font-family="Helvetica,sans-Serif" font-size="10.00">PascalSyntaxAnalyzer</text>
<text text-anchor="middle" x="878.5" y="-29.5" font-family="Helvetica,sans-Serif" font-size="10.00">::syntaxStList</text>
</a>
</g>
</g>
<!-- Node2&#45;&gt;Node5 -->
<g id="edge6" class="edge">
<title>Node2&#45;&gt;Node5</title>
<path fill="none" stroke="midnightblue" d="M971.28,-68.09C955.9,-62.97 939.38,-57.46 924.65,-52.55"/>
<polygon fill="midnightblue" stroke="midnightblue" points="970.6,-71.56 981.2,-71.4 972.82,-64.92 970.6,-71.56"/>
</g>
<!-- Node3&#45;&gt;Node2 -->
<g id="edge3" class="edge">
<title>Node3&#45;&gt;Node2</title>
<path fill="none" stroke="midnightblue" d="M944.83,-120.44C963.39,-114.42 982.65,-107.59 997.81,-101.54"/>
<polygon fill="midnightblue" stroke="midnightblue" points="943.68,-117.13 935.21,-123.5 945.8,-123.8 943.68,-117.13"/>
</g>
<!-- Node4&#45;&gt;Node2 -->
<g id="edge5" class="edge">
<title>Node4&#45;&gt;Node2</title>
<path fill="none" stroke="midnightblue" d="M945.16,-93.22C953.76,-93.29 962.51,-93.24 970.93,-93.07"/>
<polygon fill="midnightblue" stroke="midnightblue" points="945.2,-89.72 935.15,-93.07 945.1,-96.72 945.2,-89.72"/>
</g>
<!-- Node6 -->
<g id="node6" class="node">
<title>Node6</title>
<g id="a_node6"><a xlink:href="../../d6/d00/class_pascal_syntax_analyzer.html#ada208f0427fef2e977e420bb5e87450a" target="_top" xlink:title=" ">
<polygon fill="none" stroke="black" points="673,-0.5 673,-30.5 786,-30.5 786,-0.5 673,-0.5"/>
<text text-anchor="start" x="681" y="-18.5" font-family="Helvetica,sans-Serif" font-size="10.00">PascalSyntaxAnalyzer</text>
<text text-anchor="middle" x="729.5" y="-7.5" font-family="Helvetica,sans-Serif" font-size="10.00">::syntaxCompoundSt</text>
</a>
</g>
</g>
<!-- Node5&#45;&gt;Node6 -->
<g id="edge7" class="edge">
<title>Node5&#45;&gt;Node6</title>
<path fill="none" stroke="midnightblue" d="M811.92,-27.69C803.32,-26.4 794.57,-25.09 786.15,-23.83"/>
<polygon fill="midnightblue" stroke="midnightblue" points="811.52,-31.16 821.93,-29.18 812.55,-24.24 811.52,-31.16"/>
</g>
<!-- Node6&#45;&gt;Node2 -->
<g id="edge14" class="edge">
<title>Node6&#45;&gt;Node2</title>
<path fill="none" stroke="midnightblue" d="M796.55,-3.68C837.54,0.96 890.67,2.02 935,-13.5 967.8,-24.98 997.61,-53.7 1013.78,-71.5"/>
<polygon fill="midnightblue" stroke="midnightblue" points="795.9,-0.23 786.41,-4.93 796.76,-7.18 795.9,-0.23"/>
</g>
<!-- Node7 -->
<g id="node7" class="node">
<title>Node7</title>
<g id="a_node7"><a xlink:href="../../d6/d00/class_pascal_syntax_analyzer.html#ab01912c3436af8d368fb00fc4f7362d7" target="_top" xlink:title=" ">
<polygon fill="none" stroke="black" points="524,-0.5 524,-30.5 637,-30.5 637,-0.5 524,-0.5"/>
<text text-anchor="start" x="532" y="-18.5" font-family="Helvetica,sans-Serif" font-size="10.00">PascalSyntaxAnalyzer</text>
<text text-anchor="middle" x="580.5" y="-7.5" font-family="Helvetica,sans-Serif" font-size="10.00">::syntaxBlock</text>
</a>
</g>
</g>
<!-- Node6&#45;&gt;Node7 -->
<g id="edge8" class="edge">
<title>Node6&#45;&gt;Node7</title>
<path fill="none" stroke="midnightblue" d="M662.92,-15.5C654.32,-15.5 645.57,-15.5 637.15,-15.5"/>
<polygon fill="midnightblue" stroke="midnightblue" points="662.93,-19 672.93,-15.5 662.93,-12 662.93,-19"/>
</g>
<!-- Node8 -->
<g id="node8" class="node">
<title>Node8</title>
<g id="a_node8"><a xlink:href="../../d6/d00/class_pascal_syntax_analyzer.html#afc7e8b0293dc9d194d6d8ebc708e1718" target="_top" xlink:title=" ">
<polygon fill="none" stroke="black" points="375,-22.5 375,-52.5 488,-52.5 488,-22.5 375,-22.5"/>
<text text-anchor="start" x="383" y="-40.5" font-family="Helvetica,sans-Serif" font-size="10.00">PascalSyntaxAnalyzer</text>
<text text-anchor="middle" x="431.5" y="-29.5" font-family="Helvetica,sans-Serif" font-size="10.00">::syntaxFuncDef</text>
</a>
</g>
</g>
<!-- Node7&#45;&gt;Node8 -->
<g id="edge9" class="edge">
<title>Node7&#45;&gt;Node8</title>
<path fill="none" stroke="midnightblue" d="M513.92,-25.31C505.32,-26.6 496.57,-27.91 488.15,-29.17"/>
<polygon fill="midnightblue" stroke="midnightblue" points="514.55,-28.76 523.93,-23.82 513.52,-21.84 514.55,-28.76"/>
</g>
<!-- Node9 -->
<g id="node9" class="node">
<title>Node9</title>
<g id="a_node9"><a xlink:href="../../d6/d00/class_pascal_syntax_analyzer.html#a99dc990814a355dae3fcb44cb42a1d2a" target="_top" xlink:title=" ">
<polygon fill="none" stroke="black" points="226,-0.5 226,-30.5 339,-30.5 339,-0.5 226,-0.5"/>
<text text-anchor="start" x="234" y="-18.5" font-family="Helvetica,sans-Serif" font-size="10.00">PascalSyntaxAnalyzer</text>
<text text-anchor="middle" x="282.5" y="-7.5" font-family="Helvetica,sans-Serif" font-size="10.00">::syntaxProgram</text>
</a>
</g>
</g>
<!-- Node7&#45;&gt;Node9 -->
<g id="edge13" class="edge">
<title>Node7&#45;&gt;Node9</title>
<path fill="none" stroke="midnightblue" d="M513.76,-13.89C505.1,-13.73 496.34,-13.59 488,-13.5 437.78,-12.95 425.22,-12.95 375,-13.5 363.4,-13.63 350.98,-13.84 339.14,-14.09"/>
<polygon fill="midnightblue" stroke="midnightblue" points="513.79,-17.39 523.86,-14.09 513.93,-10.39 513.79,-17.39"/>
</g>
<!-- Node8&#45;&gt;Node9 -->
<g id="edge10" class="edge">
<title>Node8&#45;&gt;Node9</title>
<path fill="none" stroke="midnightblue" d="M364.92,-27.69C356.32,-26.4 347.57,-25.09 339.15,-23.83"/>
<polygon fill="midnightblue" stroke="midnightblue" points="364.52,-31.16 374.93,-29.18 365.55,-24.24 364.52,-31.16"/>
</g>
<!-- Node10 -->
<g id="node10" class="node">
<title>Node10</title>
<g id="a_node10"><a xlink:href="../../d6/d00/class_pascal_syntax_analyzer.html#a5eb6b9f8834aefdea576873bd6d3ef28" target="_top" xlink:title="Синтаксический анализ токенов, переданных анализатору.">
<polygon fill="none" stroke="black" points="77,-0.5 77,-30.5 190,-30.5 190,-0.5 77,-0.5"/>
<text text-anchor="start" x="85" y="-18.5" font-family="Helvetica,sans-Serif" font-size="10.00">PascalSyntaxAnalyzer</text>
<text text-anchor="middle" x="133.5" y="-7.5" font-family="Helvetica,sans-Serif" font-size="10.00">::analyzeTokens</text>
</a>
</g>
</g>
<!-- Node9&#45;&gt;Node10 -->
<g id="edge11" class="edge">
<title>Node9&#45;&gt;Node10</title>
<path fill="none" stroke="midnightblue" d="M215.92,-15.5C207.32,-15.5 198.57,-15.5 190.15,-15.5"/>
<polygon fill="midnightblue" stroke="midnightblue" points="215.93,-19 225.93,-15.5 215.93,-12 215.93,-19"/>
</g>
<!-- Node11 -->
<g id="node11" class="node">
<title>Node11</title>
<g id="a_node11"><a xlink:href="../../db/df9/test_semantic_8cpp.html#a804faf7fd199a3c491020f1f2caa618b" target="_top" xlink:title="Тест семантического анализа Паскаля">
<polygon fill="none" stroke="black" points="0,-6 0,-25 41,-25 41,-6 0,-6"/>
<text text-anchor="middle" x="20.5" y="-13" font-family="Helvetica,sans-Serif" font-size="10.00">TEST</text>
</a>
</g>
</g>
<!-- Node10&#45;&gt;Node11 -->
<g id="edge12" class="edge">
<title>Node10&#45;&gt;Node11</title>
<path fill="none" stroke="midnightblue" d="M66.58,-15.5C57.37,-15.5 48.56,-15.5 41.21,-15.5"/>
<polygon fill="midnightblue" stroke="midnightblue" points="66.67,-19 76.67,-15.5 66.67,-12 66.67,-19"/>
</g>
</g>
</svg>
