<?xml version="1.0" encoding="UTF-8" standalone="no"?>
<!DOCTYPE svg PUBLIC "-//W3C//DTD SVG 1.1//EN"
 "http://www.w3.org/Graphics/SVG/1.1/DTD/svg11.dtd">
<!-- Generated by graphviz version 3.0.0 (20220413.0106)
 -->
<!-- Title: PascalSyntaxAnalyzer::syntaxCallSt Pages: 1 -->
<svg width="2433pt" height="308pt"
 viewBox="0.00 0.00 2433.00 307.50" xmlns="http://www.w3.org/2000/svg" xmlns:xlink="http://www.w3.org/1999/xlink">
<g id="graph0" class="graph" transform="scale(1 1) rotate(0) translate(4 303.5)">
<title>PascalSyntaxAnalyzer::syntaxCallSt</title>
<!-- Node1 -->
<g id="node1" class="node">
<title>Node1</title>
<g id="a_node1"><a xlink:title=" ">
<polygon fill="#bfbfbf" stroke="black" points="2312,-151.5 2312,-181.5 2425,-181.5 2425,-151.5 2312,-151.5"/>
<text text-anchor="start" x="2320" y="-169.5" font-family="Helvetica,sans-Serif" font-size="10.00">PascalSyntaxAnalyzer</text>
<text text-anchor="middle" x="2368.5" y="-158.5" font-family="Helvetica,sans-Serif" font-size="10.00">::syntaxCallSt</text>
</a>
</g>
</g>
<!-- Node2 -->
<g id="node2" class="node">
<title>Node2</title>
<g id="a_node2"><a xlink:href="../../d6/d00/class_pascal_syntax_analyzer.html#add958b54cb4edebc082e2a246b6adb10" target="_top" xlink:title=" ">
<polygon fill="none" stroke="black" points="2163,-151.5 2163,-181.5 2276,-181.5 2276,-151.5 2163,-151.5"/>
<text text-anchor="start" x="2171" y="-169.5" font-family="Helvetica,sans-Serif" font-size="10.00">PascalSyntaxAnalyzer</text>
<text text-anchor="middle" x="2219.5" y="-158.5" font-family="Helvetica,sans-Serif" font-size="10.00">::syntaxFactor</text>
</a>
</g>
</g>
<!-- Node1&#45;&gt;Node2 -->
<g id="edge1" class="edge">
<title>Node1&#45;&gt;Node2</title>
<path fill="none" stroke="midnightblue" d="M2301.92,-166.5C2293.32,-166.5 2284.57,-166.5 2276.15,-166.5"/>
<polygon fill="midnightblue" stroke="midnightblue" points="2301.93,-170 2311.93,-166.5 2301.93,-163 2301.93,-170"/>
</g>
<!-- Node5 -->
<g id="node5" class="node">
<title>Node5</title>
<g id="a_node5"><a xlink:href="../../d6/d00/class_pascal_syntax_analyzer.html#af92e2fd2112e0b98c1d419e9068ffd49" target="_top" xlink:title=" ">
<polygon fill="none" stroke="black" points="971,-140.5 971,-170.5 1084,-170.5 1084,-140.5 971,-140.5"/>
<text text-anchor="start" x="979" y="-158.5" font-family="Helvetica,sans-Serif" font-size="10.00">PascalSyntaxAnalyzer</text>
<text text-anchor="middle" x="1027.5" y="-147.5" font-family="Helvetica,sans-Serif" font-size="10.00">::syntaxSt</text>
</a>
</g>
</g>
<!-- Node1&#45;&gt;Node5 -->
<g id="edge38" class="edge">
<title>Node1&#45;&gt;Node5</title>
<path fill="none" stroke="midnightblue" d="M2340.72,-187.9C2290.86,-225.5 2179.08,-299.5 2071.5,-299.5 2071.5,-299.5 2071.5,-299.5 1324.5,-299.5 1207.63,-299.5 1088.59,-207.61 1045.43,-170.64"/>
<polygon fill="midnightblue" stroke="midnightblue" points="2342.92,-190.62 2348.74,-181.76 2338.67,-185.06 2342.92,-190.62"/>
</g>
<!-- Node2&#45;&gt;Node2 -->
<g id="edge2" class="edge">
<title>Node2&#45;&gt;Node2</title>
<path fill="none" stroke="midnightblue" d="M2245.8,-191.96C2242.53,-196.68 2233.77,-200 2219.5,-200 2196.09,-200 2187.49,-191.06 2193.71,-181.66"/>
<polygon fill="midnightblue" stroke="midnightblue" points="2249.28,-191.48 2245.29,-181.66 2242.29,-191.82 2249.28,-191.48"/>
</g>
<!-- Node3 -->
<g id="node3" class="node">
<title>Node3</title>
<g id="a_node3"><a xlink:href="../../d6/d00/class_pascal_syntax_analyzer.html#a2c49546e46d84e7785ef131a1cfc7ff7" target="_top" xlink:title=" ">
<polygon fill="none" stroke="black" points="1269,-182.5 1269,-212.5 1382,-212.5 1382,-182.5 1269,-182.5"/>
<text text-anchor="start" x="1277" y="-200.5" font-family="Helvetica,sans-Serif" font-size="10.00">PascalSyntaxAnalyzer</text>
<text text-anchor="middle" x="1325.5" y="-189.5" font-family="Helvetica,sans-Serif" font-size="10.00">::syntaxIter</text>
</a>
</g>
</g>
<!-- Node2&#45;&gt;Node3 -->
<g id="edge3" class="edge">
<title>Node2&#45;&gt;Node3</title>
<path fill="none" stroke="midnightblue" d="M2160.69,-184.39C2101.48,-201.1 2006.48,-223.5 1922.5,-223.5 1922.5,-223.5 1922.5,-223.5 1622.5,-223.5 1538.41,-223.5 1441.4,-212.96 1382.02,-205.3"/>
<polygon fill="midnightblue" stroke="midnightblue" points="2161.94,-187.67 2170.59,-181.55 2160.02,-180.94 2161.94,-187.67"/>
</g>
<!-- Node15 -->
<g id="node15" class="node">
<title>Node15</title>
<g id="a_node15"><a xlink:href="../../d6/d00/class_pascal_syntax_analyzer.html#a2a47b3776a55323696ebcc18a9699b57" target="_top" xlink:title=" ">
<polygon fill="none" stroke="black" points="2014,-88.5 2014,-118.5 2127,-118.5 2127,-88.5 2014,-88.5"/>
<text text-anchor="start" x="2022" y="-106.5" font-family="Helvetica,sans-Serif" font-size="10.00">PascalSyntaxAnalyzer</text>
<text text-anchor="middle" x="2070.5" y="-95.5" font-family="Helvetica,sans-Serif" font-size="10.00">::syntaxTerm</text>
</a>
</g>
</g>
<!-- Node2&#45;&gt;Node15 -->
<g id="edge20" class="edge">
<title>Node2&#45;&gt;Node15</title>
<path fill="none" stroke="midnightblue" d="M2174,-147.43C2152.42,-138.18 2126.87,-127.23 2106.68,-118.58"/>
<polygon fill="midnightblue" stroke="midnightblue" points="2172.72,-150.69 2183.29,-151.41 2175.48,-144.25 2172.72,-150.69"/>
</g>
<!-- Node4 -->
<g id="node4" class="node">
<title>Node4</title>
<g id="a_node4"><a xlink:href="../../d6/d00/class_pascal_syntax_analyzer.html#aeab55be1d74a8810d1ea8aa51ba8e820" target="_top" xlink:title=" ">
<polygon fill="none" stroke="black" points="1120,-182.5 1120,-212.5 1233,-212.5 1233,-182.5 1120,-182.5"/>
<text text-anchor="start" x="1128" y="-200.5" font-family="Helvetica,sans-Serif" font-size="10.00">PascalSyntaxAnalyzer</text>
<text text-anchor="middle" x="1176.5" y="-189.5" font-family="Helvetica,sans-Serif" font-size="10.00">::syntaxForSt</text>
</a>
</g>
</g>
<!-- Node3&#45;&gt;Node4 -->
<g id="edge4" class="edge">
<title>Node3&#45;&gt;Node4</title>
<path fill="none" stroke="midnightblue" d="M1258.92,-197.5C1250.32,-197.5 1241.57,-197.5 1233.15,-197.5"/>
<polygon fill="midnightblue" stroke="midnightblue" points="1258.93,-201 1268.93,-197.5 1258.93,-194 1258.93,-201"/>
</g>
<!-- Node4&#45;&gt;Node5 -->
<g id="edge5" class="edge">
<title>Node4&#45;&gt;Node5</title>
<path fill="none" stroke="midnightblue" d="M1133.18,-179.23C1117.9,-174.27 1100.4,-169.14 1084.14,-164.83"/>
<polygon fill="midnightblue" stroke="midnightblue" points="1132.28,-182.62 1142.88,-182.46 1134.49,-175.98 1132.28,-182.62"/>
</g>
<!-- Node5&#45;&gt;Node4 -->
<g id="edge6" class="edge">
<title>Node5&#45;&gt;Node4</title>
<path fill="none" stroke="midnightblue" d="M1070.82,-173.77C1086.13,-178.74 1103.65,-183.88 1119.93,-188.19"/>
<polygon fill="midnightblue" stroke="midnightblue" points="1071.71,-170.38 1061.12,-170.54 1069.5,-177.02 1071.71,-170.38"/>
</g>
<!-- Node6 -->
<g id="node6" class="node">
<title>Node6</title>
<g id="a_node6"><a xlink:href="../../d6/d00/class_pascal_syntax_analyzer.html#ada2725df1a0f0ca0aab5d02466661f01" target="_top" xlink:title=" ">
<polygon fill="none" stroke="black" points="822,-184.5 822,-214.5 935,-214.5 935,-184.5 822,-184.5"/>
<text text-anchor="start" x="830" y="-202.5" font-family="Helvetica,sans-Serif" font-size="10.00">PascalSyntaxAnalyzer</text>
<text text-anchor="middle" x="878.5" y="-191.5" font-family="Helvetica,sans-Serif" font-size="10.00">::syntaxIfSt</text>
</a>
</g>
</g>
<!-- Node5&#45;&gt;Node6 -->
<g id="edge7" class="edge">
<title>Node5&#45;&gt;Node6</title>
<path fill="none" stroke="midnightblue" d="M961.28,-168.31C943.76,-173.39 925.6,-179.18 910.85,-184.47"/>
<polygon fill="midnightblue" stroke="midnightblue" points="962.26,-171.67 970.93,-165.57 960.35,-164.94 962.26,-171.67"/>
</g>
<!-- Node7 -->
<g id="node7" class="node">
<title>Node7</title>
<g id="a_node7"><a xlink:href="../../d6/d00/class_pascal_syntax_analyzer.html#acdfdfaf0ac3d4ed0be3e240ecc4ff535" target="_top" xlink:title=" ">
<polygon fill="none" stroke="black" points="822,-96.5 822,-126.5 935,-126.5 935,-96.5 822,-96.5"/>
<text text-anchor="start" x="830" y="-114.5" font-family="Helvetica,sans-Serif" font-size="10.00">PascalSyntaxAnalyzer</text>
<text text-anchor="middle" x="878.5" y="-103.5" font-family="Helvetica,sans-Serif" font-size="10.00">::syntaxStList</text>
</a>
</g>
</g>
<!-- Node5&#45;&gt;Node7 -->
<g id="edge9" class="edge">
<title>Node5&#45;&gt;Node7</title>
<path fill="none" stroke="midnightblue" d="M966.68,-137.6C954.49,-133.95 941.78,-130.14 929.95,-126.6"/>
<polygon fill="midnightblue" stroke="midnightblue" points="965.74,-140.97 976.32,-140.48 967.75,-134.26 965.74,-140.97"/>
</g>
<!-- Node14 -->
<g id="node14" class="node">
<title>Node14</title>
<g id="a_node14"><a xlink:href="../../d6/d00/class_pascal_syntax_analyzer.html#a1c3d21ae52633cd67f4a9d98305e303e" target="_top" xlink:title=" ">
<polygon fill="none" stroke="black" points="822,-47.5 822,-77.5 935,-77.5 935,-47.5 822,-47.5"/>
<text text-anchor="start" x="830" y="-65.5" font-family="Helvetica,sans-Serif" font-size="10.00">PascalSyntaxAnalyzer</text>
<text text-anchor="middle" x="878.5" y="-54.5" font-family="Helvetica,sans-Serif" font-size="10.00">::syntaxWhileSt</text>
</a>
</g>
</g>
<!-- Node5&#45;&gt;Node14 -->
<g id="edge18" class="edge">
<title>Node5&#45;&gt;Node14</title>
<path fill="none" stroke="midnightblue" d="M1008.46,-132.95C990.71,-115.95 962.41,-93.51 935.37,-77.71"/>
<polygon fill="midnightblue" stroke="midnightblue" points="1006.29,-135.73 1015.83,-140.34 1011.24,-130.79 1006.29,-135.73"/>
</g>
<!-- Node6&#45;&gt;Node5 -->
<g id="edge8" class="edge">
<title>Node6&#45;&gt;Node5</title>
<path fill="none" stroke="midnightblue" d="M944.63,-186.72C962.11,-181.65 980.23,-175.87 994.96,-170.6"/>
<polygon fill="midnightblue" stroke="midnightblue" points="943.68,-183.35 935.01,-189.45 945.59,-190.08 943.68,-183.35"/>
</g>
<!-- Node8 -->
<g id="node8" class="node">
<title>Node8</title>
<g id="a_node8"><a xlink:href="../../d6/d00/class_pascal_syntax_analyzer.html#ada208f0427fef2e977e420bb5e87450a" target="_top" xlink:title=" ">
<polygon fill="none" stroke="black" points="673,-96.5 673,-126.5 786,-126.5 786,-96.5 673,-96.5"/>
<text text-anchor="start" x="681" y="-114.5" font-family="Helvetica,sans-Serif" font-size="10.00">PascalSyntaxAnalyzer</text>
<text text-anchor="middle" x="729.5" y="-103.5" font-family="Helvetica,sans-Serif" font-size="10.00">::syntaxCompoundSt</text>
</a>
</g>
</g>
<!-- Node7&#45;&gt;Node8 -->
<g id="edge10" class="edge">
<title>Node7&#45;&gt;Node8</title>
<path fill="none" stroke="midnightblue" d="M811.92,-111.5C803.32,-111.5 794.57,-111.5 786.15,-111.5"/>
<polygon fill="midnightblue" stroke="midnightblue" points="811.93,-115 821.93,-111.5 811.93,-108 811.93,-115"/>
</g>
<!-- Node8&#45;&gt;Node5 -->
<g id="edge17" class="edge">
<title>Node8&#45;&gt;Node5</title>
<path fill="none" stroke="midnightblue" d="M791.85,-129.02C801.87,-131.47 812.18,-133.74 822,-135.5 871.86,-144.42 929.33,-149.6 970.62,-152.44"/>
<polygon fill="midnightblue" stroke="midnightblue" points="792.51,-125.58 781.96,-126.53 790.8,-132.37 792.51,-125.58"/>
</g>
<!-- Node9 -->
<g id="node9" class="node">
<title>Node9</title>
<g id="a_node9"><a xlink:href="../../d6/d00/class_pascal_syntax_analyzer.html#ab01912c3436af8d368fb00fc4f7362d7" target="_top" xlink:title=" ">
<polygon fill="none" stroke="black" points="524,-49.5 524,-79.5 637,-79.5 637,-49.5 524,-49.5"/>
<text text-anchor="start" x="532" y="-67.5" font-family="Helvetica,sans-Serif" font-size="10.00">PascalSyntaxAnalyzer</text>
<text text-anchor="middle" x="580.5" y="-56.5" font-family="Helvetica,sans-Serif" font-size="10.00">::syntaxBlock</text>
</a>
</g>
</g>
<!-- Node8&#45;&gt;Node9 -->
<g id="edge11" class="edge">
<title>Node8&#45;&gt;Node9</title>
<path fill="none" stroke="midnightblue" d="M671.84,-93.38C657.5,-88.8 642.27,-83.93 628.47,-79.52"/>
<polygon fill="midnightblue" stroke="midnightblue" points="670.99,-96.79 681.58,-96.5 673.13,-90.12 670.99,-96.79"/>
</g>
<!-- Node10 -->
<g id="node10" class="node">
<title>Node10</title>
<g id="a_node10"><a xlink:href="../../d6/d00/class_pascal_syntax_analyzer.html#afc7e8b0293dc9d194d6d8ebc708e1718" target="_top" xlink:title=" ">
<polygon fill="none" stroke="black" points="375,-27.5 375,-57.5 488,-57.5 488,-27.5 375,-27.5"/>
<text text-anchor="start" x="383" y="-45.5" font-family="Helvetica,sans-Serif" font-size="10.00">PascalSyntaxAnalyzer</text>
<text text-anchor="middle" x="431.5" y="-34.5" font-family="Helvetica,sans-Serif" font-size="10.00">::syntaxFuncDef</text>
</a>
</g>
</g>
<!-- Node9&#45;&gt;Node10 -->
<g id="edge12" class="edge">
<title>Node9&#45;&gt;Node10</title>
<path fill="none" stroke="midnightblue" d="M513.92,-54.69C505.32,-53.4 496.57,-52.09 488.15,-50.83"/>
<polygon fill="midnightblue" stroke="midnightblue" points="513.52,-58.16 523.93,-56.18 514.55,-51.24 513.52,-58.16"/>
</g>
<!-- Node11 -->
<g id="node11" class="node">
<title>Node11</title>
<g id="a_node11"><a xlink:href="../../d6/d00/class_pascal_syntax_analyzer.html#a99dc990814a355dae3fcb44cb42a1d2a" target="_top" xlink:title=" ">
<polygon fill="none" stroke="black" points="226,-49.5 226,-79.5 339,-79.5 339,-49.5 226,-49.5"/>
<text text-anchor="start" x="234" y="-67.5" font-family="Helvetica,sans-Serif" font-size="10.00">PascalSyntaxAnalyzer</text>
<text text-anchor="middle" x="282.5" y="-56.5" font-family="Helvetica,sans-Serif" font-size="10.00">::syntaxProgram</text>
</a>
</g>
</g>
<!-- Node9&#45;&gt;Node11 -->
<g id="edge16" class="edge">
<title>Node9&#45;&gt;Node11</title>
<path fill="none" stroke="midnightblue" d="M513.76,-66.11C505.1,-66.27 496.34,-66.41 488,-66.5 437.78,-67.05 425.22,-67.05 375,-66.5 363.4,-66.37 350.98,-66.16 339.14,-65.91"/>
<polygon fill="midnightblue" stroke="midnightblue" points="513.93,-69.61 523.86,-65.91 513.79,-62.61 513.93,-69.61"/>
</g>
<!-- Node10&#45;&gt;Node11 -->
<g id="edge13" class="edge">
<title>Node10&#45;&gt;Node11</title>
<path fill="none" stroke="midnightblue" d="M364.92,-52.31C356.32,-53.6 347.57,-54.91 339.15,-56.17"/>
<polygon fill="midnightblue" stroke="midnightblue" points="365.55,-55.76 374.93,-50.82 364.52,-48.84 365.55,-55.76"/>
</g>
<!-- Node12 -->
<g id="node12" class="node">
<title>Node12</title>
<g id="a_node12"><a xlink:href="../../d6/d00/class_pascal_syntax_analyzer.html#a5eb6b9f8834aefdea576873bd6d3ef28" target="_top" xlink:title="Синтаксический анализ токенов, переданных анализатору.">
<polygon fill="none" stroke="black" points="77,-49.5 77,-79.5 190,-79.5 190,-49.5 77,-49.5"/>
<text text-anchor="start" x="85" y="-67.5" font-family="Helvetica,sans-Serif" font-size="10.00">PascalSyntaxAnalyzer</text>
<text text-anchor="middle" x="133.5" y="-56.5" font-family="Helvetica,sans-Serif" font-size="10.00">::analyzeTokens</text>
</a>
</g>
</g>
<!-- Node11&#45;&gt;Node12 -->
<g id="edge14" class="edge">
<title>Node11&#45;&gt;Node12</title>
<path fill="none" stroke="midnightblue" d="M215.92,-64.5C207.32,-64.5 198.57,-64.5 190.15,-64.5"/>
<polygon fill="midnightblue" stroke="midnightblue" points="215.93,-68 225.93,-64.5 215.93,-61 215.93,-68"/>
</g>
<!-- Node13 -->
<g id="node13" class="node">
<title>Node13</title>
<g id="a_node13"><a xlink:href="../../db/df9/test_semantic_8cpp.html#a804faf7fd199a3c491020f1f2caa618b" target="_top" xlink:title="Тест семантического анализа Паскаля">
<polygon fill="none" stroke="black" points="0,-55 0,-74 41,-74 41,-55 0,-55"/>
<text text-anchor="middle" x="20.5" y="-62" font-family="Helvetica,sans-Serif" font-size="10.00">TEST</text>
</a>
</g>
</g>
<!-- Node12&#45;&gt;Node13 -->
<g id="edge15" class="edge">
<title>Node12&#45;&gt;Node13</title>
<path fill="none" stroke="midnightblue" d="M66.58,-64.5C57.37,-64.5 48.56,-64.5 41.21,-64.5"/>
<polygon fill="midnightblue" stroke="midnightblue" points="66.67,-68 76.67,-64.5 66.67,-61 66.67,-68"/>
</g>
<!-- Node14&#45;&gt;Node5 -->
<g id="edge19" class="edge">
<title>Node14&#45;&gt;Node5</title>
<path fill="none" stroke="midnightblue" d="M908.22,-81.96C917.03,-86.12 926.6,-90.61 935,-95.5 958.04,-108.91 982.03,-127.19 999.66,-140.27"/>
<polygon fill="midnightblue" stroke="midnightblue" points="909.59,-78.73 899.06,-77.56 906.56,-85.04 909.59,-78.73"/>
</g>
<!-- Node16 -->
<g id="node16" class="node">
<title>Node16</title>
<g id="a_node16"><a xlink:href="../../d6/d00/class_pascal_syntax_analyzer.html#aca0a489432741e00e3d268ccd6452781" target="_top" xlink:title=" ">
<polygon fill="none" stroke="black" points="1865,-88.5 1865,-118.5 1978,-118.5 1978,-88.5 1865,-88.5"/>
<text text-anchor="start" x="1873" y="-106.5" font-family="Helvetica,sans-Serif" font-size="10.00">PascalSyntaxAnalyzer</text>
<text text-anchor="middle" x="1921.5" y="-95.5" font-family="Helvetica,sans-Serif" font-size="10.00">::syntaxSimpleExpr</text>
</a>
</g>
</g>
<!-- Node15&#45;&gt;Node16 -->
<g id="edge21" class="edge">
<title>Node15&#45;&gt;Node16</title>
<path fill="none" stroke="midnightblue" d="M2003.92,-103.5C1995.32,-103.5 1986.57,-103.5 1978.15,-103.5"/>
<polygon fill="midnightblue" stroke="midnightblue" points="2003.93,-107 2013.93,-103.5 2003.93,-100 2003.93,-107"/>
</g>
<!-- Node17 -->
<g id="node17" class="node">
<title>Node17</title>
<g id="a_node17"><a xlink:href="../../d6/d00/class_pascal_syntax_analyzer.html#ad459363d50d2dd23b8b0b2baee6be658" target="_top" xlink:title=" ">
<polygon fill="none" stroke="black" points="1716,-88.5 1716,-118.5 1829,-118.5 1829,-88.5 1716,-88.5"/>
<text text-anchor="start" x="1724" y="-106.5" font-family="Helvetica,sans-Serif" font-size="10.00">PascalSyntaxAnalyzer</text>
<text text-anchor="middle" x="1772.5" y="-95.5" font-family="Helvetica,sans-Serif" font-size="10.00">::syntaxExpr</text>
</a>
</g>
</g>
<!-- Node16&#45;&gt;Node17 -->
<g id="edge22" class="edge">
<title>Node16&#45;&gt;Node17</title>
<path fill="none" stroke="midnightblue" d="M1854.92,-103.5C1846.32,-103.5 1837.57,-103.5 1829.15,-103.5"/>
<polygon fill="midnightblue" stroke="midnightblue" points="1854.93,-107 1864.93,-103.5 1854.93,-100 1854.93,-107"/>
</g>
<!-- Node17&#45;&gt;Node1 -->
<g id="edge26" class="edge">
<title>Node17&#45;&gt;Node1</title>
<path fill="none" stroke="midnightblue" d="M1828.83,-85.85C1840.64,-82.79 1853.14,-80.09 1865,-78.5 1980.41,-63.02 2012.34,-58.18 2127,-78.5 2205.58,-92.43 2292.21,-130.09 2336.96,-151.35"/>
<polygon fill="midnightblue" stroke="midnightblue" points="1827.83,-82.49 1819.09,-88.48 1829.65,-89.25 1827.83,-82.49"/>
</g>
<!-- Node17&#45;&gt;Node2 -->
<g id="edge30" class="edge">
<title>Node17&#45;&gt;Node2</title>
<path fill="none" stroke="midnightblue" d="M1835.24,-121.01C1845.14,-123.43 1855.31,-125.7 1865,-127.5 1969.27,-146.82 2092.74,-157.77 2162.72,-162.89"/>
<polygon fill="midnightblue" stroke="midnightblue" points="1836.01,-117.59 1825.46,-118.54 1834.3,-124.38 1836.01,-117.59"/>
</g>
<!-- Node17&#45;&gt;Node6 -->
<g id="edge31" class="edge">
<title>Node17&#45;&gt;Node6</title>
<path fill="none" stroke="midnightblue" d="M1755.73,-127.27C1739.39,-150.07 1711.82,-183.86 1680,-203.5 1599.61,-253.13 1569.97,-261.5 1475.5,-261.5 1475.5,-261.5 1475.5,-261.5 1175.5,-261.5 1084.14,-261.5 980.23,-232.86 923.03,-214.51"/>
<polygon fill="midnightblue" stroke="midnightblue" points="1758.77,-129.03 1761.63,-118.82 1753.03,-125.02 1758.77,-129.03"/>
</g>
<!-- Node17&#45;&gt;Node14 -->
<g id="edge37" class="edge">
<title>Node17&#45;&gt;Node14</title>
<path fill="none" stroke="midnightblue" d="M1705.9,-88.07C1646.2,-75.39 1555.43,-59.5 1475.5,-59.5 1475.5,-59.5 1475.5,-59.5 1175.5,-59.5 1091.73,-59.5 994.64,-60.72 935.14,-61.6"/>
<polygon fill="midnightblue" stroke="midnightblue" points="1705.43,-91.55 1715.95,-90.24 1706.91,-84.71 1705.43,-91.55"/>
</g>
<!-- Node18 -->
<g id="node18" class="node">
<title>Node18</title>
<g id="a_node18"><a xlink:href="../../d6/d00/class_pascal_syntax_analyzer.html#a1483de526ade4687ddb1d1c0c804b15c" target="_top" xlink:title=" ">
<polygon fill="none" stroke="black" points="1418,-150.5 1418,-180.5 1531,-180.5 1531,-150.5 1418,-150.5"/>
<text text-anchor="start" x="1426" y="-168.5" font-family="Helvetica,sans-Serif" font-size="10.00">PascalSyntaxAnalyzer</text>
<text text-anchor="middle" x="1474.5" y="-157.5" font-family="Helvetica,sans-Serif" font-size="10.00">::syntaxAssignSt</text>
</a>
</g>
</g>
<!-- Node17&#45;&gt;Node18 -->
<g id="edge23" class="edge">
<title>Node17&#45;&gt;Node18</title>
<path fill="none" stroke="midnightblue" d="M1705.95,-117.23C1653.52,-128.21 1580.81,-143.44 1531.18,-153.84"/>
<polygon fill="midnightblue" stroke="midnightblue" points="1706.75,-120.64 1715.82,-115.16 1705.32,-113.79 1706.75,-120.64"/>
</g>
<!-- Node19 -->
<g id="node19" class="node">
<title>Node19</title>
<g id="a_node19"><a xlink:href="../../d6/d00/class_pascal_syntax_analyzer.html#aa85cd72cb0382779d740d228fbeaa8da" target="_top" xlink:title=" ">
<polygon fill="none" stroke="black" points="1567,-0.5 1567,-30.5 1680,-30.5 1680,-0.5 1567,-0.5"/>
<text text-anchor="start" x="1575" y="-18.5" font-family="Helvetica,sans-Serif" font-size="10.00">PascalSyntaxAnalyzer</text>
<text text-anchor="middle" x="1623.5" y="-7.5" font-family="Helvetica,sans-Serif" font-size="10.00">::syntaxConstDecl</text>
</a>
</g>
</g>
<!-- Node17&#45;&gt;Node19 -->
<g id="edge27" class="edge">
<title>Node17&#45;&gt;Node19</title>
<path fill="none" stroke="midnightblue" d="M1739.79,-82.64C1722.33,-71.35 1700.17,-57.33 1680,-45.5 1671.4,-40.46 1661.9,-35.21 1653.23,-30.54"/>
<polygon fill="midnightblue" stroke="midnightblue" points="1738.17,-85.76 1748.46,-88.27 1741.98,-79.89 1738.17,-85.76"/>
</g>
<!-- Node21 -->
<g id="node21" class="node">
<title>Node21</title>
<g id="a_node21"><a xlink:href="../../d6/d00/class_pascal_syntax_analyzer.html#a64ecaf3b371cf72ffcc81058e27ee463" target="_top" xlink:title=" ">
<polygon fill="none" stroke="black" points="1269,-90.5 1269,-120.5 1382,-120.5 1382,-90.5 1269,-90.5"/>
<text text-anchor="start" x="1277" y="-108.5" font-family="Helvetica,sans-Serif" font-size="10.00">PascalSyntaxAnalyzer</text>
<text text-anchor="middle" x="1325.5" y="-97.5" font-family="Helvetica,sans-Serif" font-size="10.00">::syntaxReturnSt</text>
</a>
</g>
</g>
<!-- Node17&#45;&gt;Node21 -->
<g id="edge32" class="edge">
<title>Node17&#45;&gt;Node21</title>
<path fill="none" stroke="midnightblue" d="M1705.49,-103.8C1617.78,-104.19 1464.34,-104.88 1382.18,-105.25"/>
<polygon fill="midnightblue" stroke="midnightblue" points="1705.61,-107.3 1715.59,-103.75 1705.58,-100.3 1705.61,-107.3"/>
</g>
<!-- Node22 -->
<g id="node22" class="node">
<title>Node22</title>
<g id="a_node22"><a xlink:href="../../d6/d00/class_pascal_syntax_analyzer.html#ae443cbc65ec18c6277b095da042ec7a2" target="_top" xlink:title=" ">
<polygon fill="none" stroke="black" points="1567,-164.5 1567,-194.5 1680,-194.5 1680,-164.5 1567,-164.5"/>
<text text-anchor="start" x="1575" y="-182.5" font-family="Helvetica,sans-Serif" font-size="10.00">PascalSyntaxAnalyzer</text>
<text text-anchor="middle" x="1623.5" y="-171.5" font-family="Helvetica,sans-Serif" font-size="10.00">::syntaxSelect</text>
</a>
</g>
</g>
<!-- Node17&#45;&gt;Node22 -->
<g id="edge34" class="edge">
<title>Node17&#45;&gt;Node22</title>
<path fill="none" stroke="midnightblue" d="M1733.31,-123.24C1708.47,-136.09 1676.56,-152.58 1653.73,-164.39"/>
<polygon fill="midnightblue" stroke="midnightblue" points="1735.18,-126.22 1742.46,-118.52 1731.97,-120 1735.18,-126.22"/>
</g>
<!-- Node18&#45;&gt;Node3 -->
<g id="edge24" class="edge">
<title>Node18&#45;&gt;Node3</title>
<path fill="none" stroke="midnightblue" d="M1407.92,-179.78C1399.32,-181.65 1390.57,-183.55 1382.15,-185.39"/>
<polygon fill="midnightblue" stroke="midnightblue" points="1408.9,-183.14 1417.93,-177.6 1407.41,-176.31 1408.9,-183.14"/>
</g>
<!-- Node18&#45;&gt;Node5 -->
<g id="edge25" class="edge">
<title>Node18&#45;&gt;Node5</title>
<path fill="none" stroke="midnightblue" d="M1407.49,-164.02C1319.78,-162.05 1166.34,-158.6 1084.18,-156.75"/>
<polygon fill="midnightblue" stroke="midnightblue" points="1407.51,-167.52 1417.59,-164.24 1407.67,-160.52 1407.51,-167.52"/>
</g>
<!-- Node20 -->
<g id="node20" class="node">
<title>Node20</title>
<g id="a_node20"><a xlink:href="../../d6/d00/class_pascal_syntax_analyzer.html#aa73dd3ea39d6257f4113757061233534" target="_top" xlink:title=" ">
<polygon fill="none" stroke="black" points="1120,-0.5 1120,-30.5 1233,-30.5 1233,-0.5 1120,-0.5"/>
<text text-anchor="start" x="1128" y="-18.5" font-family="Helvetica,sans-Serif" font-size="10.00">PascalSyntaxAnalyzer</text>
<text text-anchor="middle" x="1176.5" y="-7.5" font-family="Helvetica,sans-Serif" font-size="10.00">::syntaxConsts</text>
</a>
</g>
</g>
<!-- Node19&#45;&gt;Node20 -->
<g id="edge28" class="edge">
<title>Node19&#45;&gt;Node20</title>
<path fill="none" stroke="midnightblue" d="M1556.49,-15.5C1468.78,-15.5 1315.34,-15.5 1233.18,-15.5"/>
<polygon fill="midnightblue" stroke="midnightblue" points="1556.59,-19 1566.59,-15.5 1556.59,-12 1556.59,-19"/>
</g>
<!-- Node20&#45;&gt;Node9 -->
<g id="edge29" class="edge">
<title>Node20&#45;&gt;Node9</title>
<path fill="none" stroke="midnightblue" d="M1109.57,-18.62C1038.52,-22.22 922.13,-28.77 822,-37.5 758.59,-43.03 686,-51.47 637.31,-57.44"/>
<polygon fill="midnightblue" stroke="midnightblue" points="1109.91,-22.11 1119.72,-18.11 1109.56,-15.12 1109.91,-22.11"/>
</g>
<!-- Node21&#45;&gt;Node5 -->
<g id="edge33" class="edge">
<title>Node21&#45;&gt;Node5</title>
<path fill="none" stroke="midnightblue" d="M1259,-116.25C1218.86,-122.87 1166.44,-131.58 1120,-139.5 1108.4,-141.48 1095.97,-143.63 1084.13,-145.7"/>
<polygon fill="midnightblue" stroke="midnightblue" points="1259.63,-119.69 1268.93,-114.61 1258.49,-112.78 1259.63,-119.69"/>
</g>
<!-- Node22&#45;&gt;Node2 -->
<g id="edge36" class="edge">
<title>Node22&#45;&gt;Node2</title>
<path fill="none" stroke="midnightblue" d="M1690.42,-178.46C1786.45,-176.88 1970.46,-173.62 2127,-169.5 2138.6,-169.19 2151.02,-168.82 2162.86,-168.44"/>
<polygon fill="midnightblue" stroke="midnightblue" points="1690.22,-174.96 1680.27,-178.62 1690.33,-181.96 1690.22,-174.96"/>
</g>
<!-- Node22&#45;&gt;Node18 -->
<g id="edge35" class="edge">
<title>Node22&#45;&gt;Node18</title>
<path fill="none" stroke="midnightblue" d="M1556.92,-173.25C1548.32,-172.44 1539.57,-171.6 1531.15,-170.8"/>
<polygon fill="midnightblue" stroke="midnightblue" points="1556.64,-176.74 1566.93,-174.21 1557.3,-169.77 1556.64,-176.74"/>
</g>
</g>
</svg>
