<?xml version="1.0" encoding="UTF-8" standalone="no"?>
<!DOCTYPE svg PUBLIC "-//W3C//DTD SVG 1.1//EN"
 "http://www.w3.org/Graphics/SVG/1.1/DTD/svg11.dtd">
<!-- Generated by graphviz version 3.0.0 (20220413.0106)
 -->
<!-- Title: PascalSyntaxAnalyzer::syntaxSelect Pages: 1 -->
<svg width="1321pt" height="993pt"
 viewBox="0.00 0.00 1321.00 993.00" xmlns="http://www.w3.org/2000/svg" xmlns:xlink="http://www.w3.org/1999/xlink">
<g id="graph0" class="graph" transform="scale(1 1) rotate(0) translate(4 989)">
<title>PascalSyntaxAnalyzer::syntaxSelect</title>
<!-- Node1 -->
<g id="node1" class="node">
<title>Node1</title>
<g id="a_node1"><a xlink:title=" ">
<polygon fill="#bfbfbf" stroke="black" points="0,-306 0,-336 113,-336 113,-306 0,-306"/>
<text text-anchor="start" x="8" y="-324" font-family="Helvetica,sans-Serif" font-size="10.00">PascalSyntaxAnalyzer</text>
<text text-anchor="middle" x="56.5" y="-313" font-family="Helvetica,sans-Serif" font-size="10.00">::syntaxSelect</text>
</a>
</g>
</g>
<!-- Node2 -->
<g id="node2" class="node">
<title>Node2</title>
<g id="a_node2"><a xlink:href="../../d7/d7c/class_a_s_t_factory.html#a31d959009ba9e91a58a5c15e986d130b" target="_top" xlink:title=" ">
<polygon fill="none" stroke="black" points="900,-180.5 900,-199.5 1019,-199.5 1019,-180.5 900,-180.5"/>
<text text-anchor="middle" x="959.5" y="-187.5" font-family="Helvetica,sans-Serif" font-size="10.00">ASTFactory::createAST</text>
</a>
</g>
</g>
<!-- Node1&#45;&gt;Node2 -->
<g id="edge1" class="edge">
<title>Node1&#45;&gt;Node2</title>
<path fill="none" stroke="midnightblue" d="M61.21,-305.98C70.59,-270.6 98.19,-180.75 149,-124 219.9,-44.81 247.21,0 353.5,0 353.5,0 353.5,0 653.5,0 783.29,0 903.57,-125.49 944.07,-172.5"/>
<polygon fill="midnightblue" stroke="midnightblue" points="941.55,-174.95 950.69,-180.32 946.9,-170.42 941.55,-174.95"/>
</g>
<!-- Node11 -->
<g id="node11" class="node">
<title>Node11</title>
<g id="a_node11"><a xlink:href="../../d6/d00/class_pascal_syntax_analyzer.html#ae7d30516233d8376e6495263662b7fd9" target="_top" xlink:title="Пропускает текущий токен, если он указанного типа. Иначе выбрасывается исключение">
<polygon fill="none" stroke="black" points="894,-557.5 894,-576.5 1025,-576.5 1025,-557.5 894,-557.5"/>
<text text-anchor="middle" x="959.5" y="-564.5" font-family="Helvetica,sans-Serif" font-size="10.00">PascalSyntaxAnalyzer::eat</text>
</a>
</g>
</g>
<!-- Node1&#45;&gt;Node11 -->
<g id="edge12" class="edge">
<title>Node1&#45;&gt;Node11</title>
<path fill="none" stroke="midnightblue" d="M95.15,-336.11C197.61,-376.57 490.85,-487.95 745,-542 790.69,-551.72 842.75,-557.91 884.02,-561.7"/>
<polygon fill="midnightblue" stroke="midnightblue" points="883.73,-565.19 894,-562.59 884.35,-558.21 883.73,-565.19"/>
</g>
<!-- Node12 -->
<g id="node12" class="node">
<title>Node12</title>
<g id="a_node12"><a xlink:href="../../d6/d00/class_pascal_syntax_analyzer.html#a80fd2f225d07e698794427925fe6473b" target="_top" xlink:title=" ">
<polygon fill="none" stroke="black" points="1061,-552 1061,-582 1174,-582 1174,-552 1061,-552"/>
<text text-anchor="start" x="1069" y="-570" font-family="Helvetica,sans-Serif" font-size="10.00">PascalSyntaxAnalyzer</text>
<text text-anchor="middle" x="1117.5" y="-559" font-family="Helvetica,sans-Serif" font-size="10.00">::getCurTok</text>
</a>
</g>
</g>
<!-- Node1&#45;&gt;Node12 -->
<g id="edge15" class="edge">
<title>Node1&#45;&gt;Node12</title>
<path fill="none" stroke="midnightblue" d="M57.12,-336.12C55.46,-434.95 59.42,-985 353.5,-985 353.5,-985 353.5,-985 802.5,-985 1000.05,-985 1088.66,-682.85 1110.77,-592.33"/>
<polygon fill="midnightblue" stroke="midnightblue" points="1114.23,-592.91 1113.14,-582.37 1107.42,-591.29 1114.23,-592.91"/>
</g>
<!-- Node14 -->
<g id="node14" class="node">
<title>Node14</title>
<g id="a_node14"><a xlink:href="../../d0/d11/class_i_token.html#ab582fbd31b3afc11875dddf2d53a6aa7" target="_top" xlink:title="Устанавливает дополнительный тип токена">
<polygon fill="none" stroke="black" points="908,-262.5 908,-281.5 1011,-281.5 1011,-262.5 908,-262.5"/>
<text text-anchor="middle" x="959.5" y="-269.5" font-family="Helvetica,sans-Serif" font-size="10.00">IToken::setAdvType</text>
</a>
</g>
</g>
<!-- Node1&#45;&gt;Node14 -->
<g id="edge16" class="edge">
<title>Node1&#45;&gt;Node14</title>
<path fill="none" stroke="midnightblue" d="M65.74,-306C79.88,-281.48 110.93,-232.6 149,-203 227.25,-142.16 254.38,-114 353.5,-114 353.5,-114 353.5,-114 653.5,-114 775.32,-114 896.94,-214.61 941.1,-255.26"/>
<polygon fill="midnightblue" stroke="midnightblue" points="938.74,-257.84 948.43,-262.12 943.52,-252.73 938.74,-257.84"/>
</g>
<!-- Node15 -->
<g id="node15" class="node">
<title>Node15</title>
<g id="a_node15"><a xlink:href="../../d6/d00/class_pascal_syntax_analyzer.html#ad459363d50d2dd23b8b0b2baee6be658" target="_top" xlink:title=" ">
<polygon fill="none" stroke="black" points="149,-578 149,-608 262,-608 262,-578 149,-578"/>
<text text-anchor="start" x="157" y="-596" font-family="Helvetica,sans-Serif" font-size="10.00">PascalSyntaxAnalyzer</text>
<text text-anchor="middle" x="205.5" y="-585" font-family="Helvetica,sans-Serif" font-size="10.00">::syntaxExpr</text>
</a>
</g>
</g>
<!-- Node1&#45;&gt;Node15 -->
<g id="edge17" class="edge">
<title>Node1&#45;&gt;Node15</title>
<path fill="none" stroke="midnightblue" d="M62.2,-336.06C73.73,-371.73 105.61,-463.39 149,-531 158.13,-545.23 170.51,-559.4 181.26,-570.6"/>
<polygon fill="midnightblue" stroke="midnightblue" points="178.87,-573.16 188.38,-577.84 183.86,-568.25 178.87,-573.16"/>
</g>
<!-- Node24 -->
<g id="node24" class="node">
<title>Node24</title>
<g id="a_node24"><a xlink:href="../../d6/d00/class_pascal_syntax_analyzer.html#a29143dd884dc4a19bfa64da0ac1640b7" target="_top" xlink:title=" ">
<polygon fill="none" stroke="black" points="745,-219 745,-249 858,-249 858,-219 745,-219"/>
<text text-anchor="start" x="753" y="-237" font-family="Helvetica,sans-Serif" font-size="10.00">PascalSyntaxAnalyzer</text>
<text text-anchor="middle" x="801.5" y="-226" font-family="Helvetica,sans-Serif" font-size="10.00">::syntaxVariable</text>
</a>
</g>
</g>
<!-- Node1&#45;&gt;Node24 -->
<g id="edge60" class="edge">
<title>Node1&#45;&gt;Node24</title>
<path fill="none" stroke="midnightblue" d="M76.3,-305.97C121.31,-271.56 239.98,-190 353.5,-190 353.5,-190 353.5,-190 504.5,-190 584.43,-190 675.2,-205.89 734.9,-218.57"/>
<polygon fill="midnightblue" stroke="midnightblue" points="734.43,-222.05 744.95,-220.74 735.91,-215.21 734.43,-222.05"/>
</g>
<!-- Node3 -->
<g id="node3" class="node">
<title>Node3</title>
<g id="a_node3"><a xlink:href="../../d0/d11/class_i_token.html#aa0b191c52b609726899a0db5115ec0ef" target="_top" xlink:title=" ">
<polygon fill="none" stroke="black" points="1210,-241.5 1210,-260.5 1313,-260.5 1313,-241.5 1210,-241.5"/>
<text text-anchor="middle" x="1261.5" y="-248.5" font-family="Helvetica,sans-Serif" font-size="10.00">IToken::getAdvType</text>
</a>
</g>
</g>
<!-- Node2&#45;&gt;Node3 -->
<g id="edge2" class="edge">
<title>Node2&#45;&gt;Node3</title>
<path fill="none" stroke="midnightblue" d="M1010.6,-199.53C1053.91,-207.85 1118.15,-220.38 1174,-232 1184.95,-234.28 1196.66,-236.8 1207.81,-239.23"/>
<polygon fill="midnightblue" stroke="midnightblue" points="1207.35,-242.71 1217.86,-241.44 1208.85,-235.88 1207.35,-242.71"/>
</g>
<!-- Node4 -->
<g id="node4" class="node">
<title>Node4</title>
<g id="a_node4"><a xlink:href="../../db/dc1/class_token.html#ab9a75d3f89e77051d87462654e7576de" target="_top" xlink:title=" ">
<polygon fill="none" stroke="black" points="1078.5,-165.5 1078.5,-184.5 1156.5,-184.5 1156.5,-165.5 1078.5,-165.5"/>
<text text-anchor="middle" x="1117.5" y="-172.5" font-family="Helvetica,sans-Serif" font-size="10.00">Token::getInfo</text>
</a>
</g>
</g>
<!-- Node2&#45;&gt;Node4 -->
<g id="edge3" class="edge">
<title>Node2&#45;&gt;Node4</title>
<path fill="none" stroke="midnightblue" d="M1019.03,-184.37C1035.34,-182.8 1052.87,-181.12 1068.5,-179.62"/>
<polygon fill="midnightblue" stroke="midnightblue" points="1068.85,-183.1 1078.46,-178.66 1068.18,-176.13 1068.85,-183.1"/>
</g>
<!-- Node6 -->
<g id="node6" class="node">
<title>Node6</title>
<g id="a_node6"><a xlink:href="../../d0/d11/class_i_token.html#a968b6332dda18b7049a4737be3ffd036" target="_top" xlink:title="Получение типа токена">
<polygon fill="none" stroke="black" points="1218.5,-589.5 1218.5,-608.5 1304.5,-608.5 1304.5,-589.5 1218.5,-589.5"/>
<text text-anchor="middle" x="1261.5" y="-596.5" font-family="Helvetica,sans-Serif" font-size="10.00">IToken::getType</text>
</a>
</g>
</g>
<!-- Node2&#45;&gt;Node6 -->
<g id="edge10" class="edge">
<title>Node2&#45;&gt;Node6</title>
<path fill="none" stroke="midnightblue" d="M1000.52,-199.62C1009.17,-202.92 1017.85,-207.28 1025,-213 1048.39,-231.72 1040.44,-248.2 1061,-270 1103.39,-314.96 1136.99,-301.52 1174,-351 1228.78,-424.23 1250.81,-534.92 1257.79,-579.44"/>
<polygon fill="midnightblue" stroke="midnightblue" points="1254.35,-580.11 1259.28,-589.49 1261.28,-579.09 1254.35,-580.11"/>
</g>
<!-- Node10 -->
<g id="node10" class="node">
<title>Node10</title>
<g id="a_node10"><a xlink:href="../../db/dc1/class_token.html#a1f07fa2fffeb2f7ab803ef8b424eae8a" target="_top" xlink:title=" ">
<polygon fill="none" stroke="black" points="1080.5,-241.5 1080.5,-260.5 1154.5,-260.5 1154.5,-241.5 1080.5,-241.5"/>
<text text-anchor="middle" x="1117.5" y="-248.5" font-family="Helvetica,sans-Serif" font-size="10.00">Token::setStr</text>
</a>
</g>
</g>
<!-- Node2&#45;&gt;Node10 -->
<g id="edge11" class="edge">
<title>Node2&#45;&gt;Node10</title>
<path fill="none" stroke="midnightblue" d="M984.88,-199.53C1011.13,-209.8 1053.09,-226.21 1082.56,-237.73"/>
<polygon fill="midnightblue" stroke="midnightblue" points="1081.45,-241.05 1092.04,-241.44 1084,-234.53 1081.45,-241.05"/>
</g>
<!-- Node4&#45;&gt;Node3 -->
<g id="edge4" class="edge">
<title>Node4&#45;&gt;Node3</title>
<path fill="none" stroke="midnightblue" d="M1145.4,-184.51C1154.79,-188.38 1165.19,-193.29 1174,-199 1192.21,-210.8 1191.51,-220.64 1210,-232 1213.18,-233.95 1216.59,-235.76 1220.09,-237.42"/>
<polygon fill="midnightblue" stroke="midnightblue" points="1218.87,-240.7 1229.44,-241.45 1221.65,-234.28 1218.87,-240.7"/>
</g>
<!-- Node5 -->
<g id="node5" class="node">
<title>Node5</title>
<g id="a_node5"><a xlink:href="../../db/dc1/class_token.html#aa5d6826fae7d616e2cfe3e27b5dd594a" target="_top" xlink:title="Возвращает константную ссылку на строковое представление токена">
<polygon fill="none" stroke="black" points="1224.5,-203.5 1224.5,-222.5 1298.5,-222.5 1298.5,-203.5 1224.5,-203.5"/>
<text text-anchor="middle" x="1261.5" y="-210.5" font-family="Helvetica,sans-Serif" font-size="10.00">Token::getStr</text>
</a>
</g>
</g>
<!-- Node4&#45;&gt;Node5 -->
<g id="edge5" class="edge">
<title>Node4&#45;&gt;Node5</title>
<path fill="none" stroke="midnightblue" d="M1154.33,-184.59C1172.66,-189.49 1195.18,-195.52 1214.75,-200.76"/>
<polygon fill="midnightblue" stroke="midnightblue" points="1214.11,-204.21 1224.68,-203.41 1215.92,-197.45 1214.11,-204.21"/>
</g>
<!-- Node4&#45;&gt;Node6 -->
<g id="edge6" class="edge">
<title>Node4&#45;&gt;Node6</title>
<path fill="none" stroke="midnightblue" d="M1131.58,-184.86C1144.35,-195.2 1163.37,-212.63 1174,-232 1239.98,-352.27 1255.9,-521.56 1259.51,-579.03"/>
<polygon fill="midnightblue" stroke="midnightblue" points="1256.03,-579.47 1260.09,-589.26 1263.02,-579.07 1256.03,-579.47"/>
</g>
<!-- Node7 -->
<g id="node7" class="node">
<title>Node7</title>
<g id="a_node7"><a xlink:href="../../db/dc1/class_token.html#a81497d9f05f9c69ba4ab8e9c62a391d1" target="_top" xlink:title=" ">
<polygon fill="none" stroke="black" points="1230,-165.5 1230,-184.5 1293,-184.5 1293,-165.5 1230,-165.5"/>
<text text-anchor="middle" x="1261.5" y="-172.5" font-family="Helvetica,sans-Serif" font-size="10.00">Token::line</text>
</a>
</g>
</g>
<!-- Node4&#45;&gt;Node7 -->
<g id="edge7" class="edge">
<title>Node4&#45;&gt;Node7</title>
<path fill="none" stroke="midnightblue" d="M1156.55,-175C1176.14,-175 1200.03,-175 1219.96,-175"/>
<polygon fill="midnightblue" stroke="midnightblue" points="1219.98,-178.5 1229.98,-175 1219.98,-171.5 1219.98,-178.5"/>
</g>
<!-- Node8 -->
<g id="node8" class="node">
<title>Node8</title>
<g id="a_node8"><a xlink:href="../../db/dc1/class_token.html#a715f99ebacdd636c283d15dc8656631c" target="_top" xlink:title=" ">
<polygon fill="none" stroke="black" points="1229.5,-127.5 1229.5,-146.5 1293.5,-146.5 1293.5,-127.5 1229.5,-127.5"/>
<text text-anchor="middle" x="1261.5" y="-134.5" font-family="Helvetica,sans-Serif" font-size="10.00">Token::pos</text>
</a>
</g>
</g>
<!-- Node4&#45;&gt;Node8 -->
<g id="edge8" class="edge">
<title>Node4&#45;&gt;Node8</title>
<path fill="none" stroke="midnightblue" d="M1154.33,-165.41C1174.1,-160.12 1198.74,-153.53 1219.3,-148.02"/>
<polygon fill="midnightblue" stroke="midnightblue" points="1220.27,-151.39 1229.03,-145.42 1218.46,-144.63 1220.27,-151.39"/>
</g>
<!-- Node9 -->
<g id="node9" class="node">
<title>Node9</title>
<g id="a_node9"><a xlink:href="../../db/dc1/class_token.html#a913f22d91c68c0b0f8c2d593b14deca2" target="_top" xlink:title=" ">
<polygon fill="none" stroke="black" points="1216,-89.5 1216,-108.5 1307,-108.5 1307,-89.5 1216,-89.5"/>
<text text-anchor="middle" x="1261.5" y="-96.5" font-family="Helvetica,sans-Serif" font-size="10.00">Token::posInLine</text>
</a>
</g>
</g>
<!-- Node4&#45;&gt;Node9 -->
<g id="edge9" class="edge">
<title>Node4&#45;&gt;Node9</title>
<path fill="none" stroke="midnightblue" d="M1131.96,-165.43C1149.39,-153.32 1180.97,-132.33 1210,-118 1214.03,-116.01 1218.32,-114.1 1222.64,-112.31"/>
<polygon fill="midnightblue" stroke="midnightblue" points="1224.03,-115.52 1232.03,-108.59 1221.45,-109.02 1224.03,-115.52"/>
</g>
<!-- Node11&#45;&gt;Node12 -->
<g id="edge13" class="edge">
<title>Node11&#45;&gt;Node12</title>
<path fill="none" stroke="midnightblue" d="M1025.3,-567C1033.63,-567 1042.17,-567 1050.52,-567"/>
<polygon fill="midnightblue" stroke="midnightblue" points="1050.59,-570.5 1060.59,-567 1050.59,-563.5 1050.59,-570.5"/>
</g>
<!-- Node13 -->
<g id="node13" class="node">
<title>Node13</title>
<g id="a_node13"><a xlink:href="../../d6/d00/class_pascal_syntax_analyzer.html#ae7d45d4a2d1a4200a1970708da736845" target="_top" xlink:title=" ">
<polygon fill="none" stroke="black" points="1061,-467 1061,-497 1174,-497 1174,-467 1061,-467"/>
<text text-anchor="start" x="1069" y="-485" font-family="Helvetica,sans-Serif" font-size="10.00">PascalSyntaxAnalyzer</text>
<text text-anchor="middle" x="1117.5" y="-474" font-family="Helvetica,sans-Serif" font-size="10.00">::getNextToken</text>
</a>
</g>
</g>
<!-- Node11&#45;&gt;Node13 -->
<g id="edge14" class="edge">
<title>Node11&#45;&gt;Node13</title>
<path fill="none" stroke="midnightblue" d="M978.09,-557.41C1002.61,-544.06 1047.63,-519.53 1079.67,-502.07"/>
<polygon fill="midnightblue" stroke="midnightblue" points="1081.63,-504.98 1088.74,-497.13 1078.29,-498.84 1081.63,-504.98"/>
</g>
<!-- Node15&#45;&gt;Node2 -->
<g id="edge18" class="edge">
<title>Node15&#45;&gt;Node2</title>
<path fill="none" stroke="midnightblue" d="M213.15,-577.63C244.02,-508.66 380.91,-227.15 596,-137 703.39,-91.99 745.08,-107.58 858,-136 887.52,-143.43 917.81,-161.39 937.31,-174.57"/>
<polygon fill="midnightblue" stroke="midnightblue" points="935.51,-177.58 945.72,-180.41 939.5,-171.83 935.51,-177.58"/>
</g>
<!-- Node15&#45;&gt;Node6 -->
<g id="edge21" class="edge">
<title>Node15&#45;&gt;Node6</title>
<path fill="none" stroke="midnightblue" d="M208.59,-608.04C214.95,-648.81 237.46,-763.03 298,-833 366.08,-911.69 398.44,-947 502.5,-947 502.5,-947 502.5,-947 960.5,-947 1021.67,-947 1159.23,-855.54 1174,-838 1230.74,-770.62 1251.59,-663 1258.02,-618.86"/>
<polygon fill="midnightblue" stroke="midnightblue" points="1261.5,-619.23 1259.38,-608.85 1254.56,-618.29 1261.5,-619.23"/>
</g>
<!-- Node15&#45;&gt;Node11 -->
<g id="edge19" class="edge">
<title>Node15&#45;&gt;Node11</title>
<path fill="none" stroke="midnightblue" d="M262.38,-594.22C375.18,-596.2 638.08,-598.28 858,-581 867.94,-580.22 878.41,-579.1 888.67,-577.83"/>
<polygon fill="midnightblue" stroke="midnightblue" points="889.37,-581.26 898.84,-576.51 888.48,-574.32 889.37,-581.26"/>
</g>
<!-- Node15&#45;&gt;Node12 -->
<g id="edge20" class="edge">
<title>Node15&#45;&gt;Node12</title>
<path fill="none" stroke="midnightblue" d="M209.66,-608.14C217.84,-643.66 243.02,-733.01 298,-782 436.34,-905.27 527.67,-890.12 709,-852 859.15,-820.44 908.91,-813.32 1025,-713 1064.42,-678.94 1092.55,-623.65 1106.51,-591.78"/>
<polygon fill="midnightblue" stroke="midnightblue" points="1109.84,-592.89 1110.54,-582.32 1103.4,-590.15 1109.84,-592.89"/>
</g>
<!-- Node16 -->
<g id="node16" class="node">
<title>Node16</title>
<g id="a_node16"><a xlink:href="../../d3/da8/sup_algs_8hpp.html#ae7d62ca130413d4c96863327c1af81a4" target="_top" xlink:title="Возвращает истину, если value находится среди значений cont.">
<polygon fill="none" stroke="black" points="636.5,-823.5 636.5,-842.5 668.5,-842.5 668.5,-823.5 636.5,-823.5"/>
<text text-anchor="middle" x="652.5" y="-830.5" font-family="Helvetica,sans-Serif" font-size="10.00">isIn</text>
</a>
</g>
</g>
<!-- Node15&#45;&gt;Node16 -->
<g id="edge22" class="edge">
<title>Node15&#45;&gt;Node16</title>
<path fill="none" stroke="midnightblue" d="M212.5,-608.2C224.59,-637.1 254.52,-700.45 298,-738 396.22,-822.84 562.72,-832.78 626.03,-833.32"/>
<polygon fill="midnightblue" stroke="midnightblue" points="626.28,-836.82 636.29,-833.34 626.29,-829.82 626.28,-836.82"/>
</g>
<!-- Node17 -->
<g id="node17" class="node">
<title>Node17</title>
<g id="a_node17"><a xlink:href="../../d6/d00/class_pascal_syntax_analyzer.html#aca0a489432741e00e3d268ccd6452781" target="_top" xlink:title=" ">
<polygon fill="none" stroke="black" points="298,-698 298,-728 411,-728 411,-698 298,-698"/>
<text text-anchor="start" x="306" y="-716" font-family="Helvetica,sans-Serif" font-size="10.00">PascalSyntaxAnalyzer</text>
<text text-anchor="middle" x="354.5" y="-705" font-family="Helvetica,sans-Serif" font-size="10.00">::syntaxSimpleExpr</text>
</a>
</g>
</g>
<!-- Node15&#45;&gt;Node17 -->
<g id="edge23" class="edge">
<title>Node15&#45;&gt;Node17</title>
<path fill="none" stroke="midnightblue" d="M225.12,-608.2C250.96,-629.3 297.85,-667.57 327.24,-691.56"/>
<polygon fill="midnightblue" stroke="midnightblue" points="325.07,-694.31 335.03,-697.93 329.5,-688.89 325.07,-694.31"/>
</g>
<!-- Node17&#45;&gt;Node2 -->
<g id="edge24" class="edge">
<title>Node17&#45;&gt;Node2</title>
<path fill="none" stroke="midnightblue" d="M357.71,-697.78C368.68,-627.9 423.85,-335.22 596,-193 686.66,-118.1 741.96,-136.9 858,-156 882.1,-159.97 908.2,-168.95 927.76,-176.68"/>
<polygon fill="midnightblue" stroke="midnightblue" points="926.49,-179.94 937.07,-180.46 929.12,-173.46 926.49,-179.94"/>
</g>
<!-- Node17&#45;&gt;Node6 -->
<g id="edge27" class="edge">
<title>Node17&#45;&gt;Node6</title>
<path fill="none" stroke="midnightblue" d="M366.89,-728.05C403.04,-773.95 520.53,-909 651.5,-909 651.5,-909 651.5,-909 960.5,-909 1123.3,-909 1225.93,-685.5 1253.19,-618.05"/>
<polygon fill="midnightblue" stroke="midnightblue" points="1256.49,-619.2 1256.92,-608.62 1249.99,-616.63 1256.49,-619.2"/>
</g>
<!-- Node17&#45;&gt;Node11 -->
<g id="edge25" class="edge">
<title>Node17&#45;&gt;Node11</title>
<path fill="none" stroke="midnightblue" d="M409.5,-698C421.78,-694.82 434.8,-691.63 447,-689 628.12,-649.9 682.29,-677.83 858,-619 885.66,-609.74 915.04,-593.73 934.85,-581.91"/>
<polygon fill="midnightblue" stroke="midnightblue" points="936.76,-584.84 943.49,-576.66 933.13,-578.86 936.76,-584.84"/>
</g>
<!-- Node17&#45;&gt;Node12 -->
<g id="edge26" class="edge">
<title>Node17&#45;&gt;Node12</title>
<path fill="none" stroke="midnightblue" d="M404.53,-728.08C418.17,-731.82 433.07,-735.47 447,-738 536.81,-754.31 560.22,-757 651.5,-757 651.5,-757 651.5,-757 802.5,-757 930.42,-757 1050.81,-640.15 1096.82,-589.72"/>
<polygon fill="midnightblue" stroke="midnightblue" points="1099.47,-592.01 1103.55,-582.23 1094.26,-587.33 1099.47,-592.01"/>
</g>
<!-- Node17&#45;&gt;Node16 -->
<g id="edge28" class="edge">
<title>Node17&#45;&gt;Node16</title>
<path fill="none" stroke="midnightblue" d="M375.67,-728.04C393.63,-740.88 421.01,-759.09 447,-771 508.94,-799.38 587.26,-818.95 626.58,-827.75"/>
<polygon fill="midnightblue" stroke="midnightblue" points="625.85,-831.17 636.37,-829.89 627.35,-824.33 625.85,-831.17"/>
</g>
<!-- Node18 -->
<g id="node18" class="node">
<title>Node18</title>
<g id="a_node18"><a xlink:href="../../d6/d00/class_pascal_syntax_analyzer.html#a2a47b3776a55323696ebcc18a9699b57" target="_top" xlink:title=" ">
<polygon fill="none" stroke="black" points="447,-698 447,-728 560,-728 560,-698 447,-698"/>
<text text-anchor="start" x="455" y="-716" font-family="Helvetica,sans-Serif" font-size="10.00">PascalSyntaxAnalyzer</text>
<text text-anchor="middle" x="503.5" y="-705" font-family="Helvetica,sans-Serif" font-size="10.00">::syntaxTerm</text>
</a>
</g>
</g>
<!-- Node17&#45;&gt;Node18 -->
<g id="edge29" class="edge">
<title>Node17&#45;&gt;Node18</title>
<path fill="none" stroke="midnightblue" d="M411.07,-713C419.49,-713 428.24,-713 436.84,-713"/>
<polygon fill="midnightblue" stroke="midnightblue" points="436.85,-716.5 446.85,-713 436.85,-709.5 436.85,-716.5"/>
</g>
<!-- Node18&#45;&gt;Node2 -->
<g id="edge30" class="edge">
<title>Node18&#45;&gt;Node2</title>
<path fill="none" stroke="midnightblue" d="M521.01,-697.95C533.88,-685.19 551.03,-665.69 560,-645 607.65,-535.15 551.19,-489.04 596,-378 637.89,-274.22 645.16,-225.57 745,-175 802.51,-145.87 880.12,-163.11 924.18,-177.25"/>
<polygon fill="midnightblue" stroke="midnightblue" points="923.25,-180.63 933.84,-180.48 925.46,-173.99 923.25,-180.63"/>
</g>
<!-- Node18&#45;&gt;Node6 -->
<g id="edge33" class="edge">
<title>Node18&#45;&gt;Node6</title>
<path fill="none" stroke="midnightblue" d="M543.18,-728.09C631.13,-760.11 851.91,-827.48 1025,-771 1120.76,-739.75 1209.91,-653.19 1244.89,-616.16"/>
<polygon fill="midnightblue" stroke="midnightblue" points="1247.63,-618.36 1251.88,-608.66 1242.51,-613.59 1247.63,-618.36"/>
</g>
<!-- Node18&#45;&gt;Node11 -->
<g id="edge31" class="edge">
<title>Node18&#45;&gt;Node11</title>
<path fill="none" stroke="midnightblue" d="M560.06,-708.06C645.9,-699.78 806.3,-681.57 858,-657 894.25,-639.77 927.01,-605.27 944.7,-584.35"/>
<polygon fill="midnightblue" stroke="midnightblue" points="947.47,-586.5 951.13,-576.56 942.07,-582.04 947.47,-586.5"/>
</g>
<!-- Node18&#45;&gt;Node12 -->
<g id="edge32" class="edge">
<title>Node18&#45;&gt;Node12</title>
<path fill="none" stroke="midnightblue" d="M560.15,-712.34C601.32,-711.48 658.75,-709.51 709,-705 775.61,-699.02 793.77,-702.64 858,-684 941.33,-659.81 1032.37,-613.52 1081.06,-586.99"/>
<polygon fill="midnightblue" stroke="midnightblue" points="1082.85,-590 1089.93,-582.12 1079.48,-583.86 1082.85,-590"/>
</g>
<!-- Node18&#45;&gt;Node16 -->
<g id="edge34" class="edge">
<title>Node18&#45;&gt;Node16</title>
<path fill="none" stroke="midnightblue" d="M515.71,-728.13C531.63,-748.72 562.57,-785.69 596,-809 605.3,-815.48 616.63,-820.77 626.62,-824.71"/>
<polygon fill="midnightblue" stroke="midnightblue" points="625.45,-828.01 636.05,-828.2 627.89,-821.45 625.45,-828.01"/>
</g>
<!-- Node19 -->
<g id="node19" class="node">
<title>Node19</title>
<g id="a_node19"><a xlink:href="../../d6/d00/class_pascal_syntax_analyzer.html#add958b54cb4edebc082e2a246b6adb10" target="_top" xlink:title=" ">
<polygon fill="none" stroke="black" points="596,-388 596,-418 709,-418 709,-388 596,-388"/>
<text text-anchor="start" x="604" y="-406" font-family="Helvetica,sans-Serif" font-size="10.00">PascalSyntaxAnalyzer</text>
<text text-anchor="middle" x="652.5" y="-395" font-family="Helvetica,sans-Serif" font-size="10.00">::syntaxFactor</text>
</a>
</g>
</g>
<!-- Node18&#45;&gt;Node19 -->
<g id="edge35" class="edge">
<title>Node18&#45;&gt;Node19</title>
<path fill="none" stroke="midnightblue" d="M519.29,-697.86C531.49,-684.74 548.58,-664.8 560,-645 602.68,-570.97 632.46,-473.32 644.94,-428.04"/>
<polygon fill="midnightblue" stroke="midnightblue" points="648.37,-428.77 647.61,-418.2 641.61,-426.94 648.37,-428.77"/>
</g>
<!-- Node19&#45;&gt;Node1 -->
<g id="edge54" class="edge">
<title>Node19&#45;&gt;Node1</title>
<path fill="none" stroke="midnightblue" d="M595.7,-395.3C485.56,-380.09 240.7,-346.29 123.07,-330.05"/>
<polygon fill="midnightblue" stroke="midnightblue" points="123.5,-326.58 113.12,-328.68 122.54,-333.51 123.5,-326.58"/>
</g>
<!-- Node19&#45;&gt;Node2 -->
<g id="edge36" class="edge">
<title>Node19&#45;&gt;Node2</title>
<path fill="none" stroke="midnightblue" d="M655.54,-387.9C661.49,-350.33 682.56,-252.59 745,-209 786.98,-179.69 845.51,-176.4 890.67,-179.62"/>
<polygon fill="midnightblue" stroke="midnightblue" points="890.42,-183.12 900.68,-180.46 891,-176.14 890.42,-183.12"/>
</g>
<!-- Node19&#45;&gt;Node3 -->
<g id="edge41" class="edge">
<title>Node19&#45;&gt;Node3</title>
<path fill="none" stroke="midnightblue" d="M682.18,-387.87C690.85,-383.2 700.36,-377.97 709,-373 725.25,-363.65 727.5,-357.74 745,-351 926.07,-281.27 983.89,-308.82 1174,-270 1185.19,-267.72 1197.16,-265.16 1208.52,-262.68"/>
<polygon fill="midnightblue" stroke="midnightblue" points="1209.3,-266.09 1218.32,-260.53 1207.8,-259.25 1209.3,-266.09"/>
</g>
<!-- Node19&#45;&gt;Node6 -->
<g id="edge43" class="edge">
<title>Node19&#45;&gt;Node6</title>
<path fill="none" stroke="midnightblue" d="M709.15,-392.11C811.76,-375.33 1033.13,-354.9 1174,-457 1217.28,-488.37 1243.2,-548.65 1254.24,-579.61"/>
<polygon fill="midnightblue" stroke="midnightblue" points="1250.98,-580.9 1257.52,-589.24 1257.61,-578.64 1250.98,-580.9"/>
</g>
<!-- Node19&#45;&gt;Node11 -->
<g id="edge37" class="edge">
<title>Node19&#45;&gt;Node11</title>
<path fill="none" stroke="midnightblue" d="M663.07,-418.23C677.9,-440.59 708.54,-482.09 745,-505 787.14,-531.49 841,-547.02 884.08,-555.92"/>
<polygon fill="midnightblue" stroke="midnightblue" points="883.45,-559.36 893.94,-557.88 884.82,-552.49 883.45,-559.36"/>
</g>
<!-- Node19&#45;&gt;Node12 -->
<g id="edge42" class="edge">
<title>Node19&#45;&gt;Node12</title>
<path fill="none" stroke="midnightblue" d="M669.76,-418.16C687.13,-433.58 716.1,-457.12 745,-471 772.58,-484.24 951.85,-527.91 1050.93,-551.52"/>
<polygon fill="midnightblue" stroke="midnightblue" points="1050.3,-554.97 1060.84,-553.88 1051.92,-548.16 1050.3,-554.97"/>
</g>
<!-- Node19&#45;&gt;Node15 -->
<g id="edge52" class="edge">
<title>Node19&#45;&gt;Node15</title>
<path fill="none" stroke="midnightblue" d="M616.21,-418.07C535.87,-452.37 339.51,-536.21 251.02,-573.99"/>
<polygon fill="midnightblue" stroke="midnightblue" points="249.61,-570.79 241.79,-577.93 252.36,-577.22 249.61,-570.79"/>
</g>
<!-- Node19&#45;&gt;Node19 -->
<g id="edge53" class="edge">
<title>Node19&#45;&gt;Node19</title>
<path fill="none" stroke="midnightblue" d="M626.71,-418.16C620.49,-427.56 629.09,-436.5 652.5,-436.5 666.77,-436.5 675.53,-433.18 678.8,-428.46"/>
<polygon fill="midnightblue" stroke="midnightblue" points="682.28,-427.98 678.29,-418.16 675.29,-428.32 682.28,-427.98"/>
</g>
<!-- Node20 -->
<g id="node20" class="node">
<title>Node20</title>
<g id="a_node20"><a xlink:href="../../d6/d00/class_pascal_syntax_analyzer.html#af42fc8dfb5ba18ea8079d357af1265f7" target="_top" xlink:title="Пропускает текущий токен, если он указанного типа. Иначе выбрасывается исключение">
<polygon fill="none" stroke="black" points="903,-432 903,-462 1016,-462 1016,-432 903,-432"/>
<text text-anchor="start" x="911" y="-450" font-family="Helvetica,sans-Serif" font-size="10.00">PascalSyntaxAnalyzer</text>
<text text-anchor="middle" x="959.5" y="-439" font-family="Helvetica,sans-Serif" font-size="10.00">::eatAdv</text>
</a>
</g>
</g>
<!-- Node19&#45;&gt;Node20 -->
<g id="edge38" class="edge">
<title>Node19&#45;&gt;Node20</title>
<path fill="none" stroke="midnightblue" d="M709.35,-405.9C750.62,-408.6 808.08,-413.52 858,-422 869.91,-424.02 882.49,-426.71 894.57,-429.56"/>
<polygon fill="midnightblue" stroke="midnightblue" points="894.03,-433.03 904.57,-431.99 895.68,-426.23 894.03,-433.03"/>
</g>
<!-- Node21 -->
<g id="node21" class="node">
<title>Node21</title>
<g id="a_node21"><a xlink:href="../../d6/d00/class_pascal_syntax_analyzer.html#a7248708de6944b95154537725f2379d3" target="_top" xlink:title=" ">
<polygon fill="none" stroke="black" points="745,-432 745,-462 858,-462 858,-432 745,-432"/>
<text text-anchor="start" x="753" y="-450" font-family="Helvetica,sans-Serif" font-size="10.00">PascalSyntaxAnalyzer</text>
<text text-anchor="middle" x="801.5" y="-439" font-family="Helvetica,sans-Serif" font-size="10.00">::lookFoward</text>
</a>
</g>
</g>
<!-- Node19&#45;&gt;Node21 -->
<g id="edge44" class="edge">
<title>Node19&#45;&gt;Node21</title>
<path fill="none" stroke="midnightblue" d="M703.68,-418.02C715.49,-421.56 728.2,-425.36 740.4,-429.01"/>
<polygon fill="midnightblue" stroke="midnightblue" points="739.47,-432.38 750.05,-431.9 741.47,-425.68 739.47,-432.38"/>
</g>
<!-- Node23 -->
<g id="node23" class="node">
<title>Node23</title>
<g id="a_node23"><a xlink:href="../../d6/d00/class_pascal_syntax_analyzer.html#a17fc2ae65eb01ca8a797c5af969eebae" target="_top" xlink:title=" ">
<polygon fill="none" stroke="black" points="745,-268 745,-298 858,-298 858,-268 745,-268"/>
<text text-anchor="start" x="753" y="-286" font-family="Helvetica,sans-Serif" font-size="10.00">PascalSyntaxAnalyzer</text>
<text text-anchor="middle" x="801.5" y="-275" font-family="Helvetica,sans-Serif" font-size="10.00">::syntaxCallSt</text>
</a>
</g>
</g>
<!-- Node19&#45;&gt;Node23 -->
<g id="edge46" class="edge">
<title>Node19&#45;&gt;Node23</title>
<path fill="none" stroke="midnightblue" d="M688.31,-387.89C695.65,-383.73 702.98,-378.75 709,-373 731.48,-351.51 722.52,-334.49 745,-313 748.67,-309.49 752.82,-306.28 757.17,-303.35"/>
<polygon fill="midnightblue" stroke="midnightblue" points="759.01,-306.33 765.69,-298.11 755.34,-300.37 759.01,-306.33"/>
</g>
<!-- Node19&#45;&gt;Node24 -->
<g id="edge55" class="edge">
<title>Node19&#45;&gt;Node24</title>
<path fill="none" stroke="midnightblue" d="M659.47,-387.77C671.51,-358.8 701.36,-295.36 745,-258 746.34,-256.85 747.75,-255.75 749.21,-254.69"/>
<polygon fill="midnightblue" stroke="midnightblue" points="751.41,-257.44 757.99,-249.14 747.66,-251.53 751.41,-257.44"/>
</g>
<!-- Node20&#45;&gt;Node12 -->
<g id="edge39" class="edge">
<title>Node20&#45;&gt;Node12</title>
<path fill="none" stroke="midnightblue" d="M1006.84,-462.11C1013.16,-464.98 1019.4,-468.28 1025,-472 1033.12,-477.4 1070.96,-517.69 1095.36,-544.04"/>
<polygon fill="midnightblue" stroke="midnightblue" points="1093.1,-546.75 1102.46,-551.71 1098.24,-541.99 1093.1,-546.75"/>
</g>
<!-- Node20&#45;&gt;Node13 -->
<g id="edge40" class="edge">
<title>Node20&#45;&gt;Node13</title>
<path fill="none" stroke="midnightblue" d="M1016.38,-459.54C1027.54,-462.04 1039.35,-464.69 1050.8,-467.26"/>
<polygon fill="midnightblue" stroke="midnightblue" points="1050.23,-470.72 1060.75,-469.49 1051.76,-463.89 1050.23,-470.72"/>
</g>
<!-- Node22 -->
<g id="node22" class="node">
<title>Node22</title>
<g id="a_node22"><a xlink:href="../../d1/d34/class_list.html#a49c179636e084dfbf7a52acd46acaf01" target="_top" xlink:title=" ">
<polygon fill="none" stroke="black" points="932,-481.5 932,-500.5 987,-500.5 987,-481.5 932,-481.5"/>
<text text-anchor="middle" x="959.5" y="-488.5" font-family="Helvetica,sans-Serif" font-size="10.00">List::size</text>
</a>
</g>
</g>
<!-- Node21&#45;&gt;Node22 -->
<g id="edge45" class="edge">
<title>Node21&#45;&gt;Node22</title>
<path fill="none" stroke="midnightblue" d="M855.75,-462.02C877.55,-468.17 902.22,-475.13 921.93,-480.68"/>
<polygon fill="midnightblue" stroke="midnightblue" points="921.16,-484.11 931.74,-483.45 923.06,-477.37 921.16,-484.11"/>
</g>
<!-- Node23&#45;&gt;Node2 -->
<g id="edge47" class="edge">
<title>Node23&#45;&gt;Node2</title>
<path fill="none" stroke="midnightblue" d="M838.48,-267.88C845.07,-264.81 851.82,-261.45 858,-258 886.71,-241.97 917.78,-220.21 937.65,-205.66"/>
<polygon fill="midnightblue" stroke="midnightblue" points="939.98,-208.29 945.94,-199.53 935.82,-202.66 939.98,-208.29"/>
</g>
<!-- Node23&#45;&gt;Node11 -->
<g id="edge48" class="edge">
<title>Node23&#45;&gt;Node11</title>
<path fill="none" stroke="midnightblue" d="M808.52,-298.07C828.64,-348.4 892.35,-507.66 894,-510 905.39,-526.12 922.19,-540.78 935.79,-551.19"/>
<polygon fill="midnightblue" stroke="midnightblue" points="934.06,-554.26 944.18,-557.4 938.22,-548.63 934.06,-554.26"/>
</g>
<!-- Node23&#45;&gt;Node12 -->
<g id="edge49" class="edge">
<title>Node23&#45;&gt;Node12</title>
<path fill="none" stroke="midnightblue" d="M840.49,-298.13C889.17,-319.24 973.42,-361.83 1025,-422 1051.43,-452.84 1039.03,-471.84 1061,-506 1070,-519.99 1082.26,-533.85 1092.97,-544.81"/>
<polygon fill="midnightblue" stroke="midnightblue" points="1090.53,-547.32 1100.08,-551.9 1095.47,-542.36 1090.53,-547.32"/>
</g>
<!-- Node23&#45;&gt;Node14 -->
<g id="edge50" class="edge">
<title>Node23&#45;&gt;Node14</title>
<path fill="none" stroke="midnightblue" d="M858.38,-279.06C871.14,-278.16 884.76,-277.2 897.72,-276.29"/>
<polygon fill="midnightblue" stroke="midnightblue" points="898.21,-279.76 907.94,-275.57 897.72,-272.78 898.21,-279.76"/>
</g>
<!-- Node23&#45;&gt;Node15 -->
<g id="edge51" class="edge">
<title>Node23&#45;&gt;Node15</title>
<path fill="none" stroke="midnightblue" d="M750.75,-298.04C656.91,-327.82 449.63,-400.39 298,-503 269.78,-522.1 242.62,-550.5 225.33,-570.27"/>
<polygon fill="midnightblue" stroke="midnightblue" points="222.63,-568.04 218.77,-577.9 227.94,-572.6 222.63,-568.04"/>
</g>
<!-- Node24&#45;&gt;Node2 -->
<g id="edge56" class="edge">
<title>Node24&#45;&gt;Node2</title>
<path fill="none" stroke="midnightblue" d="M855.75,-218.98C874.96,-213.56 896.41,-207.51 914.72,-202.35"/>
<polygon fill="midnightblue" stroke="midnightblue" points="915.87,-205.66 924.54,-199.58 913.97,-198.92 915.87,-205.66"/>
</g>
<!-- Node24&#45;&gt;Node11 -->
<g id="edge57" class="edge">
<title>Node24&#45;&gt;Node11</title>
<path fill="none" stroke="midnightblue" d="M848.66,-249.11C852.19,-251.64 855.39,-254.58 858,-258 926.67,-347.91 840.31,-410.41 894,-510 903.28,-527.21 919.92,-541.72 933.98,-551.79"/>
<polygon fill="midnightblue" stroke="midnightblue" points="932.07,-554.73 942.31,-557.47 936.02,-548.95 932.07,-554.73"/>
</g>
<!-- Node24&#45;&gt;Node12 -->
<g id="edge58" class="edge">
<title>Node24&#45;&gt;Node12</title>
<path fill="none" stroke="midnightblue" d="M858.19,-221.34C908.51,-213.47 981.19,-211.59 1025,-253 1107.53,-331.02 1012.65,-403.23 1061,-506 1067.93,-520.74 1079.66,-534.42 1090.56,-545.08"/>
<polygon fill="midnightblue" stroke="midnightblue" points="1088.21,-547.67 1097.9,-551.95 1092.99,-542.56 1088.21,-547.67"/>
</g>
<!-- Node24&#45;&gt;Node14 -->
<g id="edge59" class="edge">
<title>Node24&#45;&gt;Node14</title>
<path fill="none" stroke="midnightblue" d="M858.38,-247.61C875.03,-251.67 893.15,-256.08 909.34,-260.02"/>
<polygon fill="midnightblue" stroke="midnightblue" points="908.6,-263.45 919.14,-262.41 910.25,-256.64 908.6,-263.45"/>
</g>
</g>
</svg>
