<?xml version="1.0" encoding="UTF-8" standalone="no"?>
<!DOCTYPE svg PUBLIC "-//W3C//DTD SVG 1.1//EN"
 "http://www.w3.org/Graphics/SVG/1.1/DTD/svg11.dtd">
<!-- Generated by graphviz version 3.0.0 (20220413.0106)
 -->
<!-- Title: PascalSyntaxAnalyzer::syntaxVariable Pages: 1 -->
<svg width="2433pt" height="384pt"
 viewBox="0.00 0.00 2433.00 383.50" xmlns="http://www.w3.org/2000/svg" xmlns:xlink="http://www.w3.org/1999/xlink">
<g id="graph0" class="graph" transform="scale(1 1) rotate(0) translate(4 379.5)">
<title>PascalSyntaxAnalyzer::syntaxVariable</title>
<!-- Node1 -->
<g id="node1" class="node">
<title>Node1</title>
<g id="a_node1"><a xlink:title=" ">
<polygon fill="#bfbfbf" stroke="black" points="2312,-23 2312,-53 2425,-53 2425,-23 2312,-23"/>
<text text-anchor="start" x="2320" y="-41" font-family="Helvetica,sans-Serif" font-size="10.00">PascalSyntaxAnalyzer</text>
<text text-anchor="middle" x="2368.5" y="-30" font-family="Helvetica,sans-Serif" font-size="10.00">::syntaxVariable</text>
</a>
</g>
</g>
<!-- Node2 -->
<g id="node2" class="node">
<title>Node2</title>
<g id="a_node2"><a xlink:href="../../d6/d00/class_pascal_syntax_analyzer.html#a1483de526ade4687ddb1d1c0c804b15c" target="_top" xlink:title=" ">
<polygon fill="none" stroke="black" points="1418,-55 1418,-85 1531,-85 1531,-55 1418,-55"/>
<text text-anchor="start" x="1426" y="-73" font-family="Helvetica,sans-Serif" font-size="10.00">PascalSyntaxAnalyzer</text>
<text text-anchor="middle" x="1474.5" y="-62" font-family="Helvetica,sans-Serif" font-size="10.00">::syntaxAssignSt</text>
</a>
</g>
</g>
<!-- Node1&#45;&gt;Node2 -->
<g id="edge1" class="edge">
<title>Node1&#45;&gt;Node2</title>
<path fill="none" stroke="midnightblue" d="M2301.8,-24.68C2242.02,-13.72 2151.21,0 2071.5,0 2071.5,0 2071.5,0 1771.5,0 1676.71,0 1569.32,-34.41 1513.61,-54.98"/>
<polygon fill="midnightblue" stroke="midnightblue" points="2301.38,-28.16 2311.85,-26.55 2302.66,-21.28 2301.38,-28.16"/>
</g>
<!-- Node15 -->
<g id="node15" class="node">
<title>Node15</title>
<g id="a_node15"><a xlink:href="../../d6/d00/class_pascal_syntax_analyzer.html#add958b54cb4edebc082e2a246b6adb10" target="_top" xlink:title=" ">
<polygon fill="none" stroke="black" points="2163,-118 2163,-148 2276,-148 2276,-118 2163,-118"/>
<text text-anchor="start" x="2171" y="-136" font-family="Helvetica,sans-Serif" font-size="10.00">PascalSyntaxAnalyzer</text>
<text text-anchor="middle" x="2219.5" y="-125" font-family="Helvetica,sans-Serif" font-size="10.00">::syntaxFactor</text>
</a>
</g>
</g>
<!-- Node1&#45;&gt;Node15 -->
<g id="edge20" class="edge">
<title>Node1&#45;&gt;Node15</title>
<path fill="none" stroke="midnightblue" d="M2335.71,-58.54C2308.19,-76.33 2269.01,-101.65 2244.17,-117.7"/>
<polygon fill="midnightblue" stroke="midnightblue" points="2337.71,-61.42 2344.21,-53.05 2333.91,-55.54 2337.71,-61.42"/>
</g>
<!-- Node23 -->
<g id="node23" class="node">
<title>Node23</title>
<g id="a_node23"><a xlink:href="../../d6/d00/class_pascal_syntax_analyzer.html#ae443cbc65ec18c6277b095da042ec7a2" target="_top" xlink:title=" ">
<polygon fill="none" stroke="black" points="1567,-55 1567,-85 1680,-85 1680,-55 1567,-55"/>
<text text-anchor="start" x="1575" y="-73" font-family="Helvetica,sans-Serif" font-size="10.00">PascalSyntaxAnalyzer</text>
<text text-anchor="middle" x="1623.5" y="-62" font-family="Helvetica,sans-Serif" font-size="10.00">::syntaxSelect</text>
</a>
</g>
</g>
<!-- Node1&#45;&gt;Node23 -->
<g id="edge41" class="edge">
<title>Node1&#45;&gt;Node23</title>
<path fill="none" stroke="midnightblue" d="M2301.76,-38C2241.78,-38 2150.68,-38 2071.5,-38 2071.5,-38 2071.5,-38 1920.5,-38 1836.38,-38 1739.58,-50.93 1680.23,-60.36"/>
<polygon fill="midnightblue" stroke="midnightblue" points="2301.85,-41.5 2311.85,-38 2301.85,-34.5 2301.85,-41.5"/>
</g>
<!-- Node3 -->
<g id="node3" class="node">
<title>Node3</title>
<g id="a_node3"><a xlink:href="../../d6/d00/class_pascal_syntax_analyzer.html#a2c49546e46d84e7785ef131a1cfc7ff7" target="_top" xlink:title=" ">
<polygon fill="none" stroke="black" points="1269,-99 1269,-129 1382,-129 1382,-99 1269,-99"/>
<text text-anchor="start" x="1277" y="-117" font-family="Helvetica,sans-Serif" font-size="10.00">PascalSyntaxAnalyzer</text>
<text text-anchor="middle" x="1325.5" y="-106" font-family="Helvetica,sans-Serif" font-size="10.00">::syntaxIter</text>
</a>
</g>
</g>
<!-- Node2&#45;&gt;Node3 -->
<g id="edge2" class="edge">
<title>Node2&#45;&gt;Node3</title>
<path fill="none" stroke="midnightblue" d="M1413.68,-87.9C1401.49,-91.55 1388.78,-95.36 1376.95,-98.9"/>
<polygon fill="midnightblue" stroke="midnightblue" points="1414.75,-91.24 1423.32,-85.02 1412.74,-84.53 1414.75,-91.24"/>
</g>
<!-- Node5 -->
<g id="node5" class="node">
<title>Node5</title>
<g id="a_node5"><a xlink:href="../../d6/d00/class_pascal_syntax_analyzer.html#af92e2fd2112e0b98c1d419e9068ffd49" target="_top" xlink:title=" ">
<polygon fill="none" stroke="black" points="971,-188 971,-218 1084,-218 1084,-188 971,-188"/>
<text text-anchor="start" x="979" y="-206" font-family="Helvetica,sans-Serif" font-size="10.00">PascalSyntaxAnalyzer</text>
<text text-anchor="middle" x="1027.5" y="-195" font-family="Helvetica,sans-Serif" font-size="10.00">::syntaxSt</text>
</a>
</g>
</g>
<!-- Node2&#45;&gt;Node5 -->
<g id="edge19" class="edge">
<title>Node2&#45;&gt;Node5</title>
<path fill="none" stroke="midnightblue" d="M1407.72,-67.16C1333.74,-66.67 1211.95,-74.16 1120,-121 1087.31,-137.65 1057.24,-168.94 1041.03,-187.69"/>
<polygon fill="midnightblue" stroke="midnightblue" points="1407.79,-70.66 1417.83,-67.28 1407.87,-63.66 1407.79,-70.66"/>
</g>
<!-- Node4 -->
<g id="node4" class="node">
<title>Node4</title>
<g id="a_node4"><a xlink:href="../../d6/d00/class_pascal_syntax_analyzer.html#aeab55be1d74a8810d1ea8aa51ba8e820" target="_top" xlink:title=" ">
<polygon fill="none" stroke="black" points="1120,-131 1120,-161 1233,-161 1233,-131 1120,-131"/>
<text text-anchor="start" x="1128" y="-149" font-family="Helvetica,sans-Serif" font-size="10.00">PascalSyntaxAnalyzer</text>
<text text-anchor="middle" x="1176.5" y="-138" font-family="Helvetica,sans-Serif" font-size="10.00">::syntaxForSt</text>
</a>
</g>
</g>
<!-- Node3&#45;&gt;Node4 -->
<g id="edge3" class="edge">
<title>Node3&#45;&gt;Node4</title>
<path fill="none" stroke="midnightblue" d="M1258.92,-128.28C1250.32,-130.15 1241.57,-132.05 1233.15,-133.89"/>
<polygon fill="midnightblue" stroke="midnightblue" points="1259.9,-131.64 1268.93,-126.1 1258.41,-124.81 1259.9,-131.64"/>
</g>
<!-- Node4&#45;&gt;Node5 -->
<g id="edge4" class="edge">
<title>Node4&#45;&gt;Node5</title>
<path fill="none" stroke="midnightblue" d="M1110.48,-164.5C1090.4,-172.1 1069.47,-180.7 1053.78,-187.95"/>
<polygon fill="midnightblue" stroke="midnightblue" points="1111.78,-167.75 1119.93,-160.98 1109.33,-161.19 1111.78,-167.75"/>
</g>
<!-- Node5&#45;&gt;Node4 -->
<g id="edge5" class="edge">
<title>Node5&#45;&gt;Node4</title>
<path fill="none" stroke="midnightblue" d="M1093.63,-184.46C1113.68,-176.87 1134.57,-168.28 1150.23,-161.04"/>
<polygon fill="midnightblue" stroke="midnightblue" points="1092.34,-181.2 1084.19,-187.98 1094.78,-187.76 1092.34,-181.2"/>
</g>
<!-- Node6 -->
<g id="node6" class="node">
<title>Node6</title>
<g id="a_node6"><a xlink:href="../../d6/d00/class_pascal_syntax_analyzer.html#ada2725df1a0f0ca0aab5d02466661f01" target="_top" xlink:title=" ">
<polygon fill="none" stroke="black" points="822,-281 822,-311 935,-311 935,-281 822,-281"/>
<text text-anchor="start" x="830" y="-299" font-family="Helvetica,sans-Serif" font-size="10.00">PascalSyntaxAnalyzer</text>
<text text-anchor="middle" x="878.5" y="-288" font-family="Helvetica,sans-Serif" font-size="10.00">::syntaxIfSt</text>
</a>
</g>
</g>
<!-- Node5&#45;&gt;Node6 -->
<g id="edge6" class="edge">
<title>Node5&#45;&gt;Node6</title>
<path fill="none" stroke="midnightblue" d="M991.42,-224.37C974.93,-236.63 954.62,-251.58 935,-263 923.57,-269.65 909.94,-275.57 899.06,-280.94"/>
<polygon fill="midnightblue" stroke="midnightblue" points="993.73,-227.01 999.66,-218.23 989.55,-221.39 993.73,-227.01"/>
</g>
<!-- Node7 -->
<g id="node7" class="node">
<title>Node7</title>
<g id="a_node7"><a xlink:href="../../d6/d00/class_pascal_syntax_analyzer.html#acdfdfaf0ac3d4ed0be3e240ecc4ff535" target="_top" xlink:title=" ">
<polygon fill="none" stroke="black" points="822,-144 822,-174 935,-174 935,-144 822,-144"/>
<text text-anchor="start" x="830" y="-162" font-family="Helvetica,sans-Serif" font-size="10.00">PascalSyntaxAnalyzer</text>
<text text-anchor="middle" x="878.5" y="-151" font-family="Helvetica,sans-Serif" font-size="10.00">::syntaxStList</text>
</a>
</g>
</g>
<!-- Node5&#45;&gt;Node7 -->
<g id="edge8" class="edge">
<title>Node5&#45;&gt;Node7</title>
<path fill="none" stroke="midnightblue" d="M966.68,-185.1C954.49,-181.45 941.78,-177.64 929.95,-174.1"/>
<polygon fill="midnightblue" stroke="midnightblue" points="965.74,-188.47 976.32,-187.98 967.75,-181.76 965.74,-188.47"/>
</g>
<!-- Node14 -->
<g id="node14" class="node">
<title>Node14</title>
<g id="a_node14"><a xlink:href="../../d6/d00/class_pascal_syntax_analyzer.html#a1c3d21ae52633cd67f4a9d98305e303e" target="_top" xlink:title=" ">
<polygon fill="none" stroke="black" points="822,-232 822,-262 935,-262 935,-232 822,-232"/>
<text text-anchor="start" x="830" y="-250" font-family="Helvetica,sans-Serif" font-size="10.00">PascalSyntaxAnalyzer</text>
<text text-anchor="middle" x="878.5" y="-239" font-family="Helvetica,sans-Serif" font-size="10.00">::syntaxWhileSt</text>
</a>
</g>
</g>
<!-- Node5&#45;&gt;Node14 -->
<g id="edge17" class="edge">
<title>Node5&#45;&gt;Node14</title>
<path fill="none" stroke="midnightblue" d="M961.28,-215.81C943.76,-220.89 925.6,-226.68 910.85,-231.97"/>
<polygon fill="midnightblue" stroke="midnightblue" points="962.26,-219.17 970.93,-213.07 960.35,-212.44 962.26,-219.17"/>
</g>
<!-- Node6&#45;&gt;Node5 -->
<g id="edge7" class="edge">
<title>Node6&#45;&gt;Node5</title>
<path fill="none" stroke="midnightblue" d="M944.17,-275.45C972.57,-257.59 1000.94,-233.9 1015.83,-218.16"/>
<polygon fill="midnightblue" stroke="midnightblue" points="942.1,-272.61 935.37,-280.79 945.73,-278.59 942.1,-272.61"/>
</g>
<!-- Node8 -->
<g id="node8" class="node">
<title>Node8</title>
<g id="a_node8"><a xlink:href="../../d6/d00/class_pascal_syntax_analyzer.html#ada208f0427fef2e977e420bb5e87450a" target="_top" xlink:title=" ">
<polygon fill="none" stroke="black" points="673,-188 673,-218 786,-218 786,-188 673,-188"/>
<text text-anchor="start" x="681" y="-206" font-family="Helvetica,sans-Serif" font-size="10.00">PascalSyntaxAnalyzer</text>
<text text-anchor="middle" x="729.5" y="-195" font-family="Helvetica,sans-Serif" font-size="10.00">::syntaxCompoundSt</text>
</a>
</g>
</g>
<!-- Node7&#45;&gt;Node8 -->
<g id="edge9" class="edge">
<title>Node7&#45;&gt;Node8</title>
<path fill="none" stroke="midnightblue" d="M817.68,-176.9C805.49,-180.55 792.78,-184.36 780.95,-187.9"/>
<polygon fill="midnightblue" stroke="midnightblue" points="818.75,-180.24 827.32,-174.02 816.74,-173.53 818.75,-180.24"/>
</g>
<!-- Node8&#45;&gt;Node5 -->
<g id="edge16" class="edge">
<title>Node8&#45;&gt;Node5</title>
<path fill="none" stroke="midnightblue" d="M796.38,-203C848.78,-203 921.29,-203 970.82,-203"/>
<polygon fill="midnightblue" stroke="midnightblue" points="796.18,-199.5 786.18,-203 796.18,-206.5 796.18,-199.5"/>
</g>
<!-- Node9 -->
<g id="node9" class="node">
<title>Node9</title>
<g id="a_node9"><a xlink:href="../../d6/d00/class_pascal_syntax_analyzer.html#ab01912c3436af8d368fb00fc4f7362d7" target="_top" xlink:title=" ">
<polygon fill="none" stroke="black" points="524,-270 524,-300 637,-300 637,-270 524,-270"/>
<text text-anchor="start" x="532" y="-288" font-family="Helvetica,sans-Serif" font-size="10.00">PascalSyntaxAnalyzer</text>
<text text-anchor="middle" x="580.5" y="-277" font-family="Helvetica,sans-Serif" font-size="10.00">::syntaxBlock</text>
</a>
</g>
</g>
<!-- Node8&#45;&gt;Node9 -->
<g id="edge10" class="edge">
<title>Node8&#45;&gt;Node9</title>
<path fill="none" stroke="midnightblue" d="M692.75,-222.94C666.79,-237.42 632.22,-256.71 608.54,-269.92"/>
<polygon fill="midnightblue" stroke="midnightblue" points="694.51,-225.97 701.54,-218.04 691.1,-219.86 694.51,-225.97"/>
</g>
<!-- Node10 -->
<g id="node10" class="node">
<title>Node10</title>
<g id="a_node10"><a xlink:href="../../d6/d00/class_pascal_syntax_analyzer.html#afc7e8b0293dc9d194d6d8ebc708e1718" target="_top" xlink:title=" ">
<polygon fill="none" stroke="black" points="375,-248 375,-278 488,-278 488,-248 375,-248"/>
<text text-anchor="start" x="383" y="-266" font-family="Helvetica,sans-Serif" font-size="10.00">PascalSyntaxAnalyzer</text>
<text text-anchor="middle" x="431.5" y="-255" font-family="Helvetica,sans-Serif" font-size="10.00">::syntaxFuncDef</text>
</a>
</g>
</g>
<!-- Node9&#45;&gt;Node10 -->
<g id="edge11" class="edge">
<title>Node9&#45;&gt;Node10</title>
<path fill="none" stroke="midnightblue" d="M513.92,-275.19C505.32,-273.9 496.57,-272.59 488.15,-271.33"/>
<polygon fill="midnightblue" stroke="midnightblue" points="513.52,-278.66 523.93,-276.68 514.55,-271.74 513.52,-278.66"/>
</g>
<!-- Node11 -->
<g id="node11" class="node">
<title>Node11</title>
<g id="a_node11"><a xlink:href="../../d6/d00/class_pascal_syntax_analyzer.html#a99dc990814a355dae3fcb44cb42a1d2a" target="_top" xlink:title=" ">
<polygon fill="none" stroke="black" points="226,-270 226,-300 339,-300 339,-270 226,-270"/>
<text text-anchor="start" x="234" y="-288" font-family="Helvetica,sans-Serif" font-size="10.00">PascalSyntaxAnalyzer</text>
<text text-anchor="middle" x="282.5" y="-277" font-family="Helvetica,sans-Serif" font-size="10.00">::syntaxProgram</text>
</a>
</g>
</g>
<!-- Node9&#45;&gt;Node11 -->
<g id="edge15" class="edge">
<title>Node9&#45;&gt;Node11</title>
<path fill="none" stroke="midnightblue" d="M513.77,-287.41C505.1,-287.66 496.34,-287.86 488,-288 437.78,-288.82 425.22,-288.82 375,-288 363.4,-287.81 350.97,-287.48 339.14,-287.12"/>
<polygon fill="midnightblue" stroke="midnightblue" points="513.97,-290.91 523.86,-287.12 513.76,-283.91 513.97,-290.91"/>
</g>
<!-- Node10&#45;&gt;Node11 -->
<g id="edge12" class="edge">
<title>Node10&#45;&gt;Node11</title>
<path fill="none" stroke="midnightblue" d="M364.92,-272.81C356.32,-274.1 347.57,-275.41 339.15,-276.67"/>
<polygon fill="midnightblue" stroke="midnightblue" points="365.55,-276.26 374.93,-271.32 364.52,-269.34 365.55,-276.26"/>
</g>
<!-- Node12 -->
<g id="node12" class="node">
<title>Node12</title>
<g id="a_node12"><a xlink:href="../../d6/d00/class_pascal_syntax_analyzer.html#a5eb6b9f8834aefdea576873bd6d3ef28" target="_top" xlink:title="Синтаксический анализ токенов, переданных анализатору.">
<polygon fill="none" stroke="black" points="77,-270 77,-300 190,-300 190,-270 77,-270"/>
<text text-anchor="start" x="85" y="-288" font-family="Helvetica,sans-Serif" font-size="10.00">PascalSyntaxAnalyzer</text>
<text text-anchor="middle" x="133.5" y="-277" font-family="Helvetica,sans-Serif" font-size="10.00">::analyzeTokens</text>
</a>
</g>
</g>
<!-- Node11&#45;&gt;Node12 -->
<g id="edge13" class="edge">
<title>Node11&#45;&gt;Node12</title>
<path fill="none" stroke="midnightblue" d="M215.92,-285C207.32,-285 198.57,-285 190.15,-285"/>
<polygon fill="midnightblue" stroke="midnightblue" points="215.93,-288.5 225.93,-285 215.93,-281.5 215.93,-288.5"/>
</g>
<!-- Node13 -->
<g id="node13" class="node">
<title>Node13</title>
<g id="a_node13"><a xlink:href="../../db/df9/test_semantic_8cpp.html#a804faf7fd199a3c491020f1f2caa618b" target="_top" xlink:title="Тест семантического анализа Паскаля">
<polygon fill="none" stroke="black" points="0,-275.5 0,-294.5 41,-294.5 41,-275.5 0,-275.5"/>
<text text-anchor="middle" x="20.5" y="-282.5" font-family="Helvetica,sans-Serif" font-size="10.00">TEST</text>
</a>
</g>
</g>
<!-- Node12&#45;&gt;Node13 -->
<g id="edge14" class="edge">
<title>Node12&#45;&gt;Node13</title>
<path fill="none" stroke="midnightblue" d="M66.58,-285C57.37,-285 48.56,-285 41.21,-285"/>
<polygon fill="midnightblue" stroke="midnightblue" points="66.67,-288.5 76.67,-285 66.67,-281.5 66.67,-288.5"/>
</g>
<!-- Node14&#45;&gt;Node5 -->
<g id="edge18" class="edge">
<title>Node14&#45;&gt;Node5</title>
<path fill="none" stroke="midnightblue" d="M944.63,-234.22C962.11,-229.15 980.23,-223.37 994.96,-218.1"/>
<polygon fill="midnightblue" stroke="midnightblue" points="943.68,-230.85 935.01,-236.95 945.59,-237.58 943.68,-230.85"/>
</g>
<!-- Node15&#45;&gt;Node3 -->
<g id="edge22" class="edge">
<title>Node15&#45;&gt;Node3</title>
<path fill="none" stroke="midnightblue" d="M2152.84,-126.36C2092.91,-120.88 2001.85,-114 1922.5,-114 1922.5,-114 1922.5,-114 1622.5,-114 1538.74,-114 1441.64,-114 1382.15,-114"/>
<polygon fill="midnightblue" stroke="midnightblue" points="2152.64,-129.86 2162.92,-127.3 2153.29,-122.89 2152.64,-129.86"/>
</g>
<!-- Node15&#45;&gt;Node15 -->
<g id="edge21" class="edge">
<title>Node15&#45;&gt;Node15</title>
<path fill="none" stroke="midnightblue" d="M2245.8,-158.46C2242.53,-163.18 2233.77,-166.5 2219.5,-166.5 2196.09,-166.5 2187.49,-157.56 2193.71,-148.16"/>
<polygon fill="midnightblue" stroke="midnightblue" points="2249.28,-157.98 2245.29,-148.16 2242.29,-158.32 2249.28,-157.98"/>
</g>
<!-- Node16 -->
<g id="node16" class="node">
<title>Node16</title>
<g id="a_node16"><a xlink:href="../../d6/d00/class_pascal_syntax_analyzer.html#a2a47b3776a55323696ebcc18a9699b57" target="_top" xlink:title=" ">
<polygon fill="none" stroke="black" points="2014,-181 2014,-211 2127,-211 2127,-181 2014,-181"/>
<text text-anchor="start" x="2022" y="-199" font-family="Helvetica,sans-Serif" font-size="10.00">PascalSyntaxAnalyzer</text>
<text text-anchor="middle" x="2070.5" y="-188" font-family="Helvetica,sans-Serif" font-size="10.00">::syntaxTerm</text>
</a>
</g>
</g>
<!-- Node15&#45;&gt;Node16 -->
<g id="edge23" class="edge">
<title>Node15&#45;&gt;Node16</title>
<path fill="none" stroke="midnightblue" d="M2174,-152.07C2152.42,-161.32 2126.87,-172.27 2106.68,-180.92"/>
<polygon fill="midnightblue" stroke="midnightblue" points="2175.48,-155.25 2183.29,-148.09 2172.72,-148.81 2175.48,-155.25"/>
</g>
<!-- Node17 -->
<g id="node17" class="node">
<title>Node17</title>
<g id="a_node17"><a xlink:href="../../d6/d00/class_pascal_syntax_analyzer.html#aca0a489432741e00e3d268ccd6452781" target="_top" xlink:title=" ">
<polygon fill="none" stroke="black" points="1865,-181 1865,-211 1978,-211 1978,-181 1865,-181"/>
<text text-anchor="start" x="1873" y="-199" font-family="Helvetica,sans-Serif" font-size="10.00">PascalSyntaxAnalyzer</text>
<text text-anchor="middle" x="1921.5" y="-188" font-family="Helvetica,sans-Serif" font-size="10.00">::syntaxSimpleExpr</text>
</a>
</g>
</g>
<!-- Node16&#45;&gt;Node17 -->
<g id="edge24" class="edge">
<title>Node16&#45;&gt;Node17</title>
<path fill="none" stroke="midnightblue" d="M2003.92,-196C1995.32,-196 1986.57,-196 1978.15,-196"/>
<polygon fill="midnightblue" stroke="midnightblue" points="2003.93,-199.5 2013.93,-196 2003.93,-192.5 2003.93,-199.5"/>
</g>
<!-- Node18 -->
<g id="node18" class="node">
<title>Node18</title>
<g id="a_node18"><a xlink:href="../../d6/d00/class_pascal_syntax_analyzer.html#ad459363d50d2dd23b8b0b2baee6be658" target="_top" xlink:title=" ">
<polygon fill="none" stroke="black" points="1716,-225 1716,-255 1829,-255 1829,-225 1716,-225"/>
<text text-anchor="start" x="1724" y="-243" font-family="Helvetica,sans-Serif" font-size="10.00">PascalSyntaxAnalyzer</text>
<text text-anchor="middle" x="1772.5" y="-232" font-family="Helvetica,sans-Serif" font-size="10.00">::syntaxExpr</text>
</a>
</g>
</g>
<!-- Node17&#45;&gt;Node18 -->
<g id="edge25" class="edge">
<title>Node17&#45;&gt;Node18</title>
<path fill="none" stroke="midnightblue" d="M1860.68,-213.9C1848.49,-217.55 1835.78,-221.36 1823.95,-224.9"/>
<polygon fill="midnightblue" stroke="midnightblue" points="1861.75,-217.24 1870.32,-211.02 1859.74,-210.53 1861.75,-217.24"/>
</g>
<!-- Node18&#45;&gt;Node2 -->
<g id="edge26" class="edge">
<title>Node18&#45;&gt;Node2</title>
<path fill="none" stroke="midnightblue" d="M1705.82,-225.89C1655.13,-214.17 1589.92,-197.05 1567,-182 1528.17,-156.5 1497.68,-109.37 1483.75,-85.18"/>
<polygon fill="midnightblue" stroke="midnightblue" points="1705.21,-229.34 1715.74,-228.16 1706.77,-222.51 1705.21,-229.34"/>
</g>
<!-- Node18&#45;&gt;Node6 -->
<g id="edge34" class="edge">
<title>Node18&#45;&gt;Node6</title>
<path fill="none" stroke="midnightblue" d="M1731.38,-259.4C1715.65,-266.4 1697.26,-273.83 1680,-279 1591.52,-305.5 1567.86,-316 1475.5,-316 1475.5,-316 1475.5,-316 1175.5,-316 1091.55,-316 994.5,-307.89 935.07,-302"/>
<polygon fill="midnightblue" stroke="midnightblue" points="1733.14,-262.45 1740.8,-255.13 1730.25,-256.07 1733.14,-262.45"/>
</g>
<!-- Node18&#45;&gt;Node14 -->
<g id="edge40" class="edge">
<title>Node18&#45;&gt;Node14</title>
<path fill="none" stroke="midnightblue" d="M1705.8,-253.32C1646.02,-264.28 1555.21,-278 1475.5,-278 1475.5,-278 1475.5,-278 1175.5,-278 1091.41,-278 994.6,-265.47 935.24,-256.34"/>
<polygon fill="midnightblue" stroke="midnightblue" points="1706.66,-256.72 1715.85,-251.45 1705.38,-249.84 1706.66,-256.72"/>
</g>
<!-- Node18&#45;&gt;Node15 -->
<g id="edge33" class="edge">
<title>Node18&#45;&gt;Node15</title>
<path fill="none" stroke="midnightblue" d="M1839.23,-249.69C1912.65,-257.57 2033.45,-261.64 2127,-221 2162.98,-205.37 2193.16,-168.93 2208.21,-148.18"/>
<polygon fill="midnightblue" stroke="midnightblue" points="1839.52,-246.2 1829.19,-248.55 1838.74,-253.15 1839.52,-246.2"/>
</g>
<!-- Node19 -->
<g id="node19" class="node">
<title>Node19</title>
<g id="a_node19"><a xlink:href="../../d6/d00/class_pascal_syntax_analyzer.html#a17fc2ae65eb01ca8a797c5af969eebae" target="_top" xlink:title=" ">
<polygon fill="none" stroke="black" points="1567,-143 1567,-173 1680,-173 1680,-143 1567,-143"/>
<text text-anchor="start" x="1575" y="-161" font-family="Helvetica,sans-Serif" font-size="10.00">PascalSyntaxAnalyzer</text>
<text text-anchor="middle" x="1623.5" y="-150" font-family="Helvetica,sans-Serif" font-size="10.00">::syntaxCallSt</text>
</a>
</g>
</g>
<!-- Node18&#45;&gt;Node19 -->
<g id="edge27" class="edge">
<title>Node18&#45;&gt;Node19</title>
<path fill="none" stroke="midnightblue" d="M1736.16,-219.68C1719.22,-210 1698.61,-198.31 1680,-188 1671.19,-183.11 1661.54,-177.87 1652.8,-173.15"/>
<polygon fill="midnightblue" stroke="midnightblue" points="1734.74,-222.9 1745.16,-224.83 1738.22,-216.83 1734.74,-222.9"/>
</g>
<!-- Node20 -->
<g id="node20" class="node">
<title>Node20</title>
<g id="a_node20"><a xlink:href="../../d6/d00/class_pascal_syntax_analyzer.html#aa85cd72cb0382779d740d228fbeaa8da" target="_top" xlink:title=" ">
<polygon fill="none" stroke="black" points="1567,-345 1567,-375 1680,-375 1680,-345 1567,-345"/>
<text text-anchor="start" x="1575" y="-363" font-family="Helvetica,sans-Serif" font-size="10.00">PascalSyntaxAnalyzer</text>
<text text-anchor="middle" x="1623.5" y="-352" font-family="Helvetica,sans-Serif" font-size="10.00">::syntaxConstDecl</text>
</a>
</g>
</g>
<!-- Node18&#45;&gt;Node20 -->
<g id="edge30" class="edge">
<title>Node18&#45;&gt;Node20</title>
<path fill="none" stroke="midnightblue" d="M1751.97,-262.51C1734.41,-281.9 1707.25,-309.87 1680,-330 1672.6,-335.47 1664.08,-340.58 1655.97,-344.97"/>
<polygon fill="midnightblue" stroke="midnightblue" points="1754.61,-264.81 1758.66,-255.02 1749.39,-260.15 1754.61,-264.81"/>
</g>
<!-- Node22 -->
<g id="node22" class="node">
<title>Node22</title>
<g id="a_node22"><a xlink:href="../../d6/d00/class_pascal_syntax_analyzer.html#a64ecaf3b371cf72ffcc81058e27ee463" target="_top" xlink:title=" ">
<polygon fill="none" stroke="black" points="1269,-219 1269,-249 1382,-249 1382,-219 1269,-219"/>
<text text-anchor="start" x="1277" y="-237" font-family="Helvetica,sans-Serif" font-size="10.00">PascalSyntaxAnalyzer</text>
<text text-anchor="middle" x="1325.5" y="-226" font-family="Helvetica,sans-Serif" font-size="10.00">::syntaxReturnSt</text>
</a>
</g>
</g>
<!-- Node18&#45;&gt;Node22 -->
<g id="edge35" class="edge">
<title>Node18&#45;&gt;Node22</title>
<path fill="none" stroke="midnightblue" d="M1705.49,-239.11C1617.78,-237.93 1464.34,-235.86 1382.18,-234.75"/>
<polygon fill="midnightblue" stroke="midnightblue" points="1705.54,-242.61 1715.59,-239.25 1705.64,-235.61 1705.54,-242.61"/>
</g>
<!-- Node18&#45;&gt;Node23 -->
<g id="edge37" class="edge">
<title>Node18&#45;&gt;Node23</title>
<path fill="none" stroke="midnightblue" d="M1751.99,-216.98C1733.53,-195.26 1705,-161.81 1680,-133 1665.76,-116.6 1649.3,-97.95 1638.02,-85.22"/>
<polygon fill="midnightblue" stroke="midnightblue" points="1749.4,-219.34 1758.54,-224.7 1754.73,-214.81 1749.4,-219.34"/>
</g>
<!-- Node19&#45;&gt;Node5 -->
<g id="edge29" class="edge">
<title>Node19&#45;&gt;Node5</title>
<path fill="none" stroke="midnightblue" d="M1556.58,-162.99C1438.81,-171.92 1194.33,-190.44 1084.3,-198.77"/>
<polygon fill="midnightblue" stroke="midnightblue" points="1557.18,-166.46 1566.88,-162.21 1556.65,-159.48 1557.18,-166.46"/>
</g>
<!-- Node19&#45;&gt;Node15 -->
<g id="edge28" class="edge">
<title>Node19&#45;&gt;Node15</title>
<path fill="none" stroke="midnightblue" d="M1690.62,-155.22C1808.53,-150.25 2053,-139.97 2162.88,-135.34"/>
<polygon fill="midnightblue" stroke="midnightblue" points="1690.14,-151.73 1680.3,-155.65 1690.43,-158.73 1690.14,-151.73"/>
</g>
<!-- Node21 -->
<g id="node21" class="node">
<title>Node21</title>
<g id="a_node21"><a xlink:href="../../d6/d00/class_pascal_syntax_analyzer.html#aa73dd3ea39d6257f4113757061233534" target="_top" xlink:title=" ">
<polygon fill="none" stroke="black" points="1120,-345 1120,-375 1233,-375 1233,-345 1120,-345"/>
<text text-anchor="start" x="1128" y="-363" font-family="Helvetica,sans-Serif" font-size="10.00">PascalSyntaxAnalyzer</text>
<text text-anchor="middle" x="1176.5" y="-352" font-family="Helvetica,sans-Serif" font-size="10.00">::syntaxConsts</text>
</a>
</g>
</g>
<!-- Node20&#45;&gt;Node21 -->
<g id="edge31" class="edge">
<title>Node20&#45;&gt;Node21</title>
<path fill="none" stroke="midnightblue" d="M1556.49,-360C1468.78,-360 1315.34,-360 1233.18,-360"/>
<polygon fill="midnightblue" stroke="midnightblue" points="1556.59,-363.5 1566.59,-360 1556.59,-356.5 1556.59,-363.5"/>
</g>
<!-- Node21&#45;&gt;Node9 -->
<g id="edge32" class="edge">
<title>Node21&#45;&gt;Node9</title>
<path fill="none" stroke="midnightblue" d="M1109.55,-353.49C1038.48,-346.3 922.09,-334.01 822,-321 758.57,-312.76 685.99,-301.66 637.3,-293.98"/>
<polygon fill="midnightblue" stroke="midnightblue" points="1109.4,-357 1119.7,-354.52 1110.11,-350.03 1109.4,-357"/>
</g>
<!-- Node22&#45;&gt;Node5 -->
<g id="edge36" class="edge">
<title>Node22&#45;&gt;Node5</title>
<path fill="none" stroke="midnightblue" d="M1258.62,-227.1C1206.22,-221.61 1133.71,-214.02 1084.18,-208.83"/>
<polygon fill="midnightblue" stroke="midnightblue" points="1258.51,-230.61 1268.82,-228.17 1259.24,-223.65 1258.51,-230.61"/>
</g>
<!-- Node23&#45;&gt;Node2 -->
<g id="edge38" class="edge">
<title>Node23&#45;&gt;Node2</title>
<path fill="none" stroke="midnightblue" d="M1556.92,-70C1548.32,-70 1539.57,-70 1531.15,-70"/>
<polygon fill="midnightblue" stroke="midnightblue" points="1556.93,-73.5 1566.93,-70 1556.93,-66.5 1556.93,-73.5"/>
</g>
<!-- Node23&#45;&gt;Node15 -->
<g id="edge39" class="edge">
<title>Node23&#45;&gt;Node15</title>
<path fill="none" stroke="midnightblue" d="M1690.42,-67.98C1787.2,-66.35 1972.96,-68.31 2127,-100 2146.35,-103.98 2167.13,-111.22 2183.98,-117.9"/>
<polygon fill="midnightblue" stroke="midnightblue" points="1690.13,-64.48 1680.2,-68.17 1690.26,-71.48 1690.13,-64.48"/>
</g>
</g>
</svg>
