<?xml version="1.0" encoding="UTF-8" standalone="no"?>
<!DOCTYPE svg PUBLIC "-//W3C//DTD SVG 1.1//EN"
 "http://www.w3.org/Graphics/SVG/1.1/DTD/svg11.dtd">
<!-- Generated by graphviz version 3.0.0 (20220413.0106)
 -->
<!-- Title: PascalSyntaxAnalyzer::syntaxStList Pages: 1 -->
<svg width="943pt" height="225pt"
 viewBox="0.00 0.00 943.00 225.00" xmlns="http://www.w3.org/2000/svg" xmlns:xlink="http://www.w3.org/1999/xlink">
<g id="graph0" class="graph" transform="scale(1 1) rotate(0) translate(4 221)">
<title>PascalSyntaxAnalyzer::syntaxStList</title>
<!-- Node1 -->
<g id="node1" class="node">
<title>Node1</title>
<g id="a_node1"><a xlink:title=" ">
<polygon fill="#bfbfbf" stroke="black" points="822,-71.5 822,-101.5 935,-101.5 935,-71.5 822,-71.5"/>
<text text-anchor="start" x="830" y="-89.5" font-family="Helvetica,sans-Serif" font-size="10.00">PascalSyntaxAnalyzer</text>
<text text-anchor="middle" x="878.5" y="-78.5" font-family="Helvetica,sans-Serif" font-size="10.00">::syntaxStList</text>
</a>
</g>
</g>
<!-- Node2 -->
<g id="node2" class="node">
<title>Node2</title>
<g id="a_node2"><a xlink:href="../../d6/d00/class_pascal_syntax_analyzer.html#ada208f0427fef2e977e420bb5e87450a" target="_top" xlink:title=" ">
<polygon fill="none" stroke="black" points="673,-93.5 673,-123.5 786,-123.5 786,-93.5 673,-93.5"/>
<text text-anchor="start" x="681" y="-111.5" font-family="Helvetica,sans-Serif" font-size="10.00">PascalSyntaxAnalyzer</text>
<text text-anchor="middle" x="729.5" y="-100.5" font-family="Helvetica,sans-Serif" font-size="10.00">::syntaxCompoundSt</text>
</a>
</g>
</g>
<!-- Node1&#45;&gt;Node2 -->
<g id="edge1" class="edge">
<title>Node1&#45;&gt;Node2</title>
<path fill="none" stroke="midnightblue" d="M811.92,-96.31C803.32,-97.6 794.57,-98.91 786.15,-100.17"/>
<polygon fill="midnightblue" stroke="midnightblue" points="812.55,-99.76 821.93,-94.82 811.52,-92.84 812.55,-99.76"/>
</g>
<!-- Node3 -->
<g id="node3" class="node">
<title>Node3</title>
<g id="a_node3"><a xlink:href="../../d6/d00/class_pascal_syntax_analyzer.html#ab01912c3436af8d368fb00fc4f7362d7" target="_top" xlink:title=" ">
<polygon fill="none" stroke="black" points="524,-142.5 524,-172.5 637,-172.5 637,-142.5 524,-142.5"/>
<text text-anchor="start" x="532" y="-160.5" font-family="Helvetica,sans-Serif" font-size="10.00">PascalSyntaxAnalyzer</text>
<text text-anchor="middle" x="580.5" y="-149.5" font-family="Helvetica,sans-Serif" font-size="10.00">::syntaxBlock</text>
</a>
</g>
</g>
<!-- Node2&#45;&gt;Node3 -->
<g id="edge2" class="edge">
<title>Node2&#45;&gt;Node3</title>
<path fill="none" stroke="midnightblue" d="M673.28,-126.91C657.9,-132.03 641.38,-137.54 626.65,-142.45"/>
<polygon fill="midnightblue" stroke="midnightblue" points="674.82,-130.08 683.2,-123.6 672.6,-123.44 674.82,-130.08"/>
</g>
<!-- Node8 -->
<g id="node8" class="node">
<title>Node8</title>
<g id="a_node8"><a xlink:href="../../d6/d00/class_pascal_syntax_analyzer.html#af92e2fd2112e0b98c1d419e9068ffd49" target="_top" xlink:title=" ">
<polygon fill="none" stroke="black" points="524,-49.5 524,-79.5 637,-79.5 637,-49.5 524,-49.5"/>
<text text-anchor="start" x="532" y="-67.5" font-family="Helvetica,sans-Serif" font-size="10.00">PascalSyntaxAnalyzer</text>
<text text-anchor="middle" x="580.5" y="-56.5" font-family="Helvetica,sans-Serif" font-size="10.00">::syntaxSt</text>
</a>
</g>
</g>
<!-- Node2&#45;&gt;Node8 -->
<g id="edge8" class="edge">
<title>Node2&#45;&gt;Node8</title>
<path fill="none" stroke="midnightblue" d="M668.68,-90.6C656.49,-86.95 643.78,-83.14 631.95,-79.6"/>
<polygon fill="midnightblue" stroke="midnightblue" points="667.74,-93.97 678.32,-93.48 669.75,-87.26 667.74,-93.97"/>
</g>
<!-- Node4 -->
<g id="node4" class="node">
<title>Node4</title>
<g id="a_node4"><a xlink:href="../../d6/d00/class_pascal_syntax_analyzer.html#afc7e8b0293dc9d194d6d8ebc708e1718" target="_top" xlink:title=" ">
<polygon fill="none" stroke="black" points="375,-186.5 375,-216.5 488,-216.5 488,-186.5 375,-186.5"/>
<text text-anchor="start" x="383" y="-204.5" font-family="Helvetica,sans-Serif" font-size="10.00">PascalSyntaxAnalyzer</text>
<text text-anchor="middle" x="431.5" y="-193.5" font-family="Helvetica,sans-Serif" font-size="10.00">::syntaxFuncDef</text>
</a>
</g>
</g>
<!-- Node3&#45;&gt;Node4 -->
<g id="edge3" class="edge">
<title>Node3&#45;&gt;Node4</title>
<path fill="none" stroke="midnightblue" d="M519.68,-175.4C507.49,-179.05 494.78,-182.86 482.95,-186.4"/>
<polygon fill="midnightblue" stroke="midnightblue" points="520.75,-178.74 529.32,-172.52 518.74,-172.03 520.75,-178.74"/>
</g>
<!-- Node5 -->
<g id="node5" class="node">
<title>Node5</title>
<g id="a_node5"><a xlink:href="../../d6/d00/class_pascal_syntax_analyzer.html#a99dc990814a355dae3fcb44cb42a1d2a" target="_top" xlink:title=" ">
<polygon fill="none" stroke="black" points="226,-164.5 226,-194.5 339,-194.5 339,-164.5 226,-164.5"/>
<text text-anchor="start" x="234" y="-182.5" font-family="Helvetica,sans-Serif" font-size="10.00">PascalSyntaxAnalyzer</text>
<text text-anchor="middle" x="282.5" y="-171.5" font-family="Helvetica,sans-Serif" font-size="10.00">::syntaxProgram</text>
</a>
</g>
</g>
<!-- Node3&#45;&gt;Node5 -->
<g id="edge7" class="edge">
<title>Node3&#45;&gt;Node5</title>
<path fill="none" stroke="midnightblue" d="M513.62,-162.4C461.22,-166.29 388.71,-171.68 339.18,-175.36"/>
<polygon fill="midnightblue" stroke="midnightblue" points="514.11,-165.87 523.82,-161.64 513.59,-158.89 514.11,-165.87"/>
</g>
<!-- Node4&#45;&gt;Node5 -->
<g id="edge4" class="edge">
<title>Node4&#45;&gt;Node5</title>
<path fill="none" stroke="midnightblue" d="M364.92,-191.69C356.32,-190.4 347.57,-189.09 339.15,-187.83"/>
<polygon fill="midnightblue" stroke="midnightblue" points="364.52,-195.16 374.93,-193.18 365.55,-188.24 364.52,-195.16"/>
</g>
<!-- Node6 -->
<g id="node6" class="node">
<title>Node6</title>
<g id="a_node6"><a xlink:href="../../d6/d00/class_pascal_syntax_analyzer.html#a5eb6b9f8834aefdea576873bd6d3ef28" target="_top" xlink:title="Синтаксический анализ токенов, переданных анализатору.">
<polygon fill="none" stroke="black" points="77,-164.5 77,-194.5 190,-194.5 190,-164.5 77,-164.5"/>
<text text-anchor="start" x="85" y="-182.5" font-family="Helvetica,sans-Serif" font-size="10.00">PascalSyntaxAnalyzer</text>
<text text-anchor="middle" x="133.5" y="-171.5" font-family="Helvetica,sans-Serif" font-size="10.00">::analyzeTokens</text>
</a>
</g>
</g>
<!-- Node5&#45;&gt;Node6 -->
<g id="edge5" class="edge">
<title>Node5&#45;&gt;Node6</title>
<path fill="none" stroke="midnightblue" d="M215.92,-179.5C207.32,-179.5 198.57,-179.5 190.15,-179.5"/>
<polygon fill="midnightblue" stroke="midnightblue" points="215.93,-183 225.93,-179.5 215.93,-176 215.93,-183"/>
</g>
<!-- Node7 -->
<g id="node7" class="node">
<title>Node7</title>
<g id="a_node7"><a xlink:href="../../db/df9/test_semantic_8cpp.html#a804faf7fd199a3c491020f1f2caa618b" target="_top" xlink:title="Тест семантического анализа Паскаля">
<polygon fill="none" stroke="black" points="0,-170 0,-189 41,-189 41,-170 0,-170"/>
<text text-anchor="middle" x="20.5" y="-177" font-family="Helvetica,sans-Serif" font-size="10.00">TEST</text>
</a>
</g>
</g>
<!-- Node6&#45;&gt;Node7 -->
<g id="edge6" class="edge">
<title>Node6&#45;&gt;Node7</title>
<path fill="none" stroke="midnightblue" d="M66.58,-179.5C57.37,-179.5 48.56,-179.5 41.21,-179.5"/>
<polygon fill="midnightblue" stroke="midnightblue" points="66.67,-183 76.67,-179.5 66.67,-176 66.67,-183"/>
</g>
<!-- Node8&#45;&gt;Node1 -->
<g id="edge13" class="edge">
<title>Node8&#45;&gt;Node1</title>
<path fill="none" stroke="midnightblue" d="M647.38,-69.4C699.78,-73.29 772.29,-78.68 821.82,-82.36"/>
<polygon fill="midnightblue" stroke="midnightblue" points="647.41,-65.89 637.18,-68.64 646.89,-72.87 647.41,-65.89"/>
</g>
<!-- Node9 -->
<g id="node9" class="node">
<title>Node9</title>
<g id="a_node9"><a xlink:href="../../d6/d00/class_pascal_syntax_analyzer.html#aeab55be1d74a8810d1ea8aa51ba8e820" target="_top" xlink:title=" ">
<polygon fill="none" stroke="black" points="375,-98.5 375,-128.5 488,-128.5 488,-98.5 375,-98.5"/>
<text text-anchor="start" x="383" y="-116.5" font-family="Helvetica,sans-Serif" font-size="10.00">PascalSyntaxAnalyzer</text>
<text text-anchor="middle" x="431.5" y="-105.5" font-family="Helvetica,sans-Serif" font-size="10.00">::syntaxForSt</text>
</a>
</g>
</g>
<!-- Node8&#45;&gt;Node9 -->
<g id="edge9" class="edge">
<title>Node8&#45;&gt;Node9</title>
<path fill="none" stroke="midnightblue" d="M514.32,-79.51C495.79,-85.52 476.54,-92.34 461.37,-98.38"/>
<polygon fill="midnightblue" stroke="midnightblue" points="515.46,-82.83 523.93,-76.46 513.34,-76.16 515.46,-82.83"/>
</g>
<!-- Node10 -->
<g id="node10" class="node">
<title>Node10</title>
<g id="a_node10"><a xlink:href="../../d6/d00/class_pascal_syntax_analyzer.html#ada2725df1a0f0ca0aab5d02466661f01" target="_top" xlink:title=" ">
<polygon fill="none" stroke="black" points="375,-49.5 375,-79.5 488,-79.5 488,-49.5 375,-49.5"/>
<text text-anchor="start" x="383" y="-67.5" font-family="Helvetica,sans-Serif" font-size="10.00">PascalSyntaxAnalyzer</text>
<text text-anchor="middle" x="431.5" y="-56.5" font-family="Helvetica,sans-Serif" font-size="10.00">::syntaxIfSt</text>
</a>
</g>
</g>
<!-- Node8&#45;&gt;Node10 -->
<g id="edge11" class="edge">
<title>Node8&#45;&gt;Node10</title>
<path fill="none" stroke="midnightblue" d="M513.92,-57.78C505.32,-57.71 496.57,-57.76 488.15,-57.93"/>
<polygon fill="midnightblue" stroke="midnightblue" points="513.88,-61.28 523.93,-57.93 513.98,-54.29 513.88,-61.28"/>
</g>
<!-- Node11 -->
<g id="node11" class="node">
<title>Node11</title>
<g id="a_node11"><a xlink:href="../../d6/d00/class_pascal_syntax_analyzer.html#a1c3d21ae52633cd67f4a9d98305e303e" target="_top" xlink:title=" ">
<polygon fill="none" stroke="black" points="375,-0.5 375,-30.5 488,-30.5 488,-0.5 375,-0.5"/>
<text text-anchor="start" x="383" y="-18.5" font-family="Helvetica,sans-Serif" font-size="10.00">PascalSyntaxAnalyzer</text>
<text text-anchor="middle" x="431.5" y="-7.5" font-family="Helvetica,sans-Serif" font-size="10.00">::syntaxWhileSt</text>
</a>
</g>
</g>
<!-- Node8&#45;&gt;Node11 -->
<g id="edge14" class="edge">
<title>Node8&#45;&gt;Node11</title>
<path fill="none" stroke="midnightblue" d="M541.17,-45.71C525.01,-39.59 505.88,-33.03 488.21,-27.5"/>
<polygon fill="midnightblue" stroke="midnightblue" points="540.22,-49.1 550.81,-49.46 542.75,-42.57 540.22,-49.1"/>
</g>
<!-- Node9&#45;&gt;Node8 -->
<g id="edge10" class="edge">
<title>Node9&#45;&gt;Node8</title>
<path fill="none" stroke="midnightblue" d="M497.83,-98.44C516.39,-92.42 535.65,-85.59 550.81,-79.54"/>
<polygon fill="midnightblue" stroke="midnightblue" points="496.68,-95.13 488.21,-101.5 498.8,-101.8 496.68,-95.13"/>
</g>
<!-- Node10&#45;&gt;Node8 -->
<g id="edge12" class="edge">
<title>Node10&#45;&gt;Node8</title>
<path fill="none" stroke="midnightblue" d="M498.16,-71.22C506.76,-71.29 515.51,-71.24 523.93,-71.07"/>
<polygon fill="midnightblue" stroke="midnightblue" points="498.2,-67.72 488.15,-71.07 498.1,-74.72 498.2,-67.72"/>
</g>
<!-- Node11&#45;&gt;Node8 -->
<g id="edge15" class="edge">
<title>Node11&#45;&gt;Node8</title>
<path fill="none" stroke="midnightblue" d="M471.01,-34.36C487.18,-40.47 506.29,-47.03 523.93,-52.54"/>
<polygon fill="midnightblue" stroke="midnightblue" points="471.96,-30.97 461.37,-30.62 469.43,-37.5 471.96,-30.97"/>
</g>
</g>
</svg>
