<?xml version="1.0" encoding="UTF-8" standalone="no"?>
<!DOCTYPE svg PUBLIC "-//W3C//DTD SVG 1.1//EN"
 "http://www.w3.org/Graphics/SVG/1.1/DTD/svg11.dtd">
<!-- Generated by graphviz version 3.0.0 (20220413.0106)
 -->
<!-- Title: PascalSyntaxAnalyzer::syntaxFactor Pages: 1 -->
<svg width="1200pt" height="1033pt"
 viewBox="0.00 0.00 1200.00 1033.23" xmlns="http://www.w3.org/2000/svg" xmlns:xlink="http://www.w3.org/1999/xlink">
<g id="graph0" class="graph" transform="scale(1 1) rotate(0) translate(4 1029.23)">
<title>PascalSyntaxAnalyzer::syntaxFactor</title>
<!-- Node1 -->
<g id="node1" class="node">
<title>Node1</title>
<g id="a_node1"><a xlink:title=" ">
<polygon fill="#bfbfbf" stroke="black" points="0,-665.16 0,-695.16 113,-695.16 113,-665.16 0,-665.16"/>
<text text-anchor="start" x="8" y="-683.16" font-family="Helvetica,sans-Serif" font-size="10.00">PascalSyntaxAnalyzer</text>
<text text-anchor="middle" x="56.5" y="-672.16" font-family="Helvetica,sans-Serif" font-size="10.00">::syntaxFactor</text>
</a>
</g>
</g>
<!-- Node1&#45;&gt;Node1 -->
<g id="edge48" class="edge">
<title>Node1&#45;&gt;Node1</title>
<path fill="none" stroke="midnightblue" d="M30.71,-695.32C24.49,-704.71 33.09,-713.66 56.5,-713.66 70.77,-713.66 79.53,-710.34 82.8,-705.62"/>
<polygon fill="midnightblue" stroke="midnightblue" points="86.28,-705.13 82.29,-695.32 79.29,-705.48 86.28,-705.13"/>
</g>
<!-- Node2 -->
<g id="node2" class="node">
<title>Node2</title>
<g id="a_node2"><a xlink:href="../../d7/d7c/class_a_s_t_factory.html#a31d959009ba9e91a58a5c15e986d130b" target="_top" xlink:title=" ">
<polygon fill="none" stroke="black" points="760,-306.66 760,-325.66 879,-325.66 879,-306.66 760,-306.66"/>
<text text-anchor="middle" x="819.5" y="-313.66" font-family="Helvetica,sans-Serif" font-size="10.00">ASTFactory::createAST</text>
</a>
</g>
</g>
<!-- Node1&#45;&gt;Node2 -->
<g id="edge1" class="edge">
<title>Node1&#45;&gt;Node2</title>
<path fill="none" stroke="midnightblue" d="M59.26,-665.06C69.63,-583.81 130.22,-202.16 353.5,-202.16 353.5,-202.16 353.5,-202.16 509,-202.16 622.24,-202.16 745.21,-270.18 795.31,-301.14"/>
<polygon fill="midnightblue" stroke="midnightblue" points="793.74,-304.28 804.07,-306.63 797.46,-298.35 793.74,-304.28"/>
</g>
<!-- Node3 -->
<g id="node3" class="node">
<title>Node3</title>
<g id="a_node3"><a xlink:href="../../dd/dfe/class_base_token.html#a800db3c8e8a3e81d20e85206cd5b2927" target="_top" xlink:title=" ">
<polygon fill="none" stroke="black" points="1070,-420.66 1070,-439.66 1192,-439.66 1192,-420.66 1070,-420.66"/>
<text text-anchor="middle" x="1131" y="-427.66" font-family="Helvetica,sans-Serif" font-size="10.00">BaseToken::getAdvType</text>
</a>
</g>
</g>
<!-- Node1&#45;&gt;Node3 -->
<g id="edge18" class="edge">
<title>Node1&#45;&gt;Node3</title>
<path fill="none" stroke="midnightblue" d="M59.68,-695.41C68.21,-752.7 101.17,-953.72 149,-993.16 219.43,-1051.23 262.22,-1012.16 353.5,-1012.16 353.5,-1012.16 353.5,-1012.16 820.5,-1012.16 1081.11,-1012.16 1122.98,-551.63 1129.04,-449.89"/>
<polygon fill="midnightblue" stroke="midnightblue" points="1132.55,-449.95 1129.6,-439.77 1125.56,-449.57 1132.55,-449.95"/>
</g>
<!-- Node6 -->
<g id="node6" class="node">
<title>Node6</title>
<g id="a_node6"><a xlink:href="../../dd/dfe/class_base_token.html#adf680862efcd78640cb9442b6918dd4d" target="_top" xlink:title="Получение типа токена">
<polygon fill="none" stroke="black" points="1078.5,-211.66 1078.5,-230.66 1183.5,-230.66 1183.5,-211.66 1078.5,-211.66"/>
<text text-anchor="middle" x="1131" y="-218.66" font-family="Helvetica,sans-Serif" font-size="10.00">BaseToken::getType</text>
</a>
</g>
</g>
<!-- Node1&#45;&gt;Node6 -->
<g id="edge20" class="edge">
<title>Node1&#45;&gt;Node6</title>
<path fill="none" stroke="midnightblue" d="M58.32,-665.04C62.87,-585.78 87.07,-218.43 149,-126.16 208.5,-37.52 246.74,-0.16 353.5,-0.16 353.5,-0.16 353.5,-0.16 820.5,-0.16 918.71,-0.16 955.88,2.36 1034,-57.16 1083.97,-95.22 1112.71,-167.38 1124.16,-201.87"/>
<polygon fill="midnightblue" stroke="midnightblue" points="1120.91,-203.18 1127.28,-211.65 1127.58,-201.06 1120.91,-203.18"/>
</g>
<!-- Node11 -->
<g id="node11" class="node">
<title>Node11</title>
<g id="a_node11"><a xlink:href="../../d6/d00/class_pascal_syntax_analyzer.html#aa5eea5fe502fc1d029ed7eea6af2b4a0" target="_top" xlink:title="Пропускает текущий токен, если он указанного типа. Иначе выбрасывается исключение">
<polygon fill="none" stroke="black" points="754,-629.66 754,-648.66 885,-648.66 885,-629.66 754,-629.66"/>
<text text-anchor="middle" x="819.5" y="-636.66" font-family="Helvetica,sans-Serif" font-size="10.00">PascalSyntaxAnalyzer::eat</text>
</a>
</g>
</g>
<!-- Node1&#45;&gt;Node11 -->
<g id="edge12" class="edge">
<title>Node1&#45;&gt;Node11</title>
<path fill="none" stroke="midnightblue" d="M96.3,-695.2C201.33,-733.46 498.04,-825.15 718,-733.16 756.33,-717.13 788.96,-679.49 805.95,-657.01"/>
<polygon fill="midnightblue" stroke="midnightblue" points="808.78,-659.08 811.86,-648.94 803.13,-654.94 808.78,-659.08"/>
</g>
<!-- Node12 -->
<g id="node12" class="node">
<title>Node12</title>
<g id="a_node12"><a xlink:href="../../d6/d00/class_pascal_syntax_analyzer.html#a80fd2f225d07e698794427925fe6473b" target="_top" xlink:title=" ">
<polygon fill="none" stroke="black" points="921,-624.16 921,-654.16 1034,-654.16 1034,-624.16 921,-624.16"/>
<text text-anchor="start" x="929" y="-642.16" font-family="Helvetica,sans-Serif" font-size="10.00">PascalSyntaxAnalyzer</text>
<text text-anchor="middle" x="977.5" y="-631.16" font-family="Helvetica,sans-Serif" font-size="10.00">::getCurTok</text>
</a>
</g>
</g>
<!-- Node1&#45;&gt;Node12 -->
<g id="edge19" class="edge">
<title>Node1&#45;&gt;Node12</title>
<path fill="none" stroke="midnightblue" d="M68.21,-695.31C103.24,-742.88 219.83,-886.16 353.5,-886.16 353.5,-886.16 353.5,-886.16 662.5,-886.16 768.84,-886.16 804.54,-867.69 885,-798.16 927.8,-761.17 955.26,-698.96 968.06,-664.34"/>
<polygon fill="midnightblue" stroke="midnightblue" points="971.49,-665.13 971.56,-654.54 964.9,-662.78 971.49,-665.13"/>
</g>
<!-- Node14 -->
<g id="node14" class="node">
<title>Node14</title>
<g id="a_node14"><a xlink:href="../../d6/d00/class_pascal_syntax_analyzer.html#a30076a5cf45ea845d8071679ca9075a0" target="_top" xlink:title="Пропускает текущий токен, если он указанного типа. Иначе выбрасывается исключение">
<polygon fill="none" stroke="black" points="763,-915.16 763,-945.16 876,-945.16 876,-915.16 763,-915.16"/>
<text text-anchor="start" x="771" y="-933.16" font-family="Helvetica,sans-Serif" font-size="10.00">PascalSyntaxAnalyzer</text>
<text text-anchor="middle" x="819.5" y="-922.16" font-family="Helvetica,sans-Serif" font-size="10.00">::eatAdv</text>
</a>
</g>
</g>
<!-- Node1&#45;&gt;Node14 -->
<g id="edge15" class="edge">
<title>Node1&#45;&gt;Node14</title>
<path fill="none" stroke="midnightblue" d="M58.73,-695.29C62.93,-736.02 80.5,-848.43 149,-900.16 222.03,-955.3 261.99,-924.16 353.5,-924.16 353.5,-924.16 353.5,-924.16 509,-924.16 593.13,-924.16 690.09,-926.4 752.74,-928.14"/>
<polygon fill="midnightblue" stroke="midnightblue" points="752.78,-931.65 762.88,-928.43 752.98,-924.65 752.78,-931.65"/>
</g>
<!-- Node15 -->
<g id="node15" class="node">
<title>Node15</title>
<g id="a_node15"><a xlink:href="../../d6/d00/class_pascal_syntax_analyzer.html#a7248708de6944b95154537725f2379d3" target="_top" xlink:title=" ">
<polygon fill="none" stroke="black" points="149,-953.16 149,-983.16 262,-983.16 262,-953.16 149,-953.16"/>
<text text-anchor="start" x="157" y="-971.16" font-family="Helvetica,sans-Serif" font-size="10.00">PascalSyntaxAnalyzer</text>
<text text-anchor="middle" x="205.5" y="-960.16" font-family="Helvetica,sans-Serif" font-size="10.00">::lookFoward</text>
</a>
</g>
</g>
<!-- Node1&#45;&gt;Node15 -->
<g id="edge21" class="edge">
<title>Node1&#45;&gt;Node15</title>
<path fill="none" stroke="midnightblue" d="M59.09,-695.42C64.29,-738.49 84.4,-862.7 149,-938.16 151.92,-941.57 155.34,-944.66 159.01,-947.45"/>
<polygon fill="midnightblue" stroke="midnightblue" points="157.11,-950.39 167.36,-953.06 161.01,-944.58 157.11,-950.39"/>
</g>
<!-- Node17 -->
<g id="node17" class="node">
<title>Node17</title>
<g id="a_node17"><a xlink:href="../../d6/d00/class_pascal_syntax_analyzer.html#a17fc2ae65eb01ca8a797c5af969eebae" target="_top" xlink:title=" ">
<polygon fill="none" stroke="black" points="149,-491.16 149,-521.16 262,-521.16 262,-491.16 149,-491.16"/>
<text text-anchor="start" x="157" y="-509.16" font-family="Helvetica,sans-Serif" font-size="10.00">PascalSyntaxAnalyzer</text>
<text text-anchor="middle" x="205.5" y="-498.16" font-family="Helvetica,sans-Serif" font-size="10.00">::syntaxCallSt</text>
</a>
</g>
</g>
<!-- Node1&#45;&gt;Node17 -->
<g id="edge23" class="edge">
<title>Node1&#45;&gt;Node17</title>
<path fill="none" stroke="midnightblue" d="M70.29,-665.02C96.03,-634.56 154.23,-565.66 184.84,-529.43"/>
<polygon fill="midnightblue" stroke="midnightblue" points="187.86,-531.28 191.64,-521.38 182.51,-526.76 187.86,-531.28"/>
</g>
<!-- Node19 -->
<g id="node19" class="node">
<title>Node19</title>
<g id="a_node19"><a xlink:href="../../d6/d00/class_pascal_syntax_analyzer.html#ad459363d50d2dd23b8b0b2baee6be658" target="_top" xlink:title=" ">
<polygon fill="none" stroke="black" points="298,-333.16 298,-363.16 411,-363.16 411,-333.16 298,-333.16"/>
<text text-anchor="start" x="306" y="-351.16" font-family="Helvetica,sans-Serif" font-size="10.00">PascalSyntaxAnalyzer</text>
<text text-anchor="middle" x="354.5" y="-340.16" font-family="Helvetica,sans-Serif" font-size="10.00">::syntaxExpr</text>
</a>
</g>
</g>
<!-- Node1&#45;&gt;Node19 -->
<g id="edge47" class="edge">
<title>Node1&#45;&gt;Node19</title>
<path fill="none" stroke="midnightblue" d="M61.48,-664.92C71.33,-629.43 99.73,-539.84 149,-481.16 193.11,-428.62 263.27,-389.32 308.86,-367.54"/>
<polygon fill="midnightblue" stroke="midnightblue" points="310.63,-370.58 318.2,-363.16 307.66,-364.24 310.63,-370.58"/>
</g>
<!-- Node23 -->
<g id="node23" class="node">
<title>Node23</title>
<g id="a_node23"><a xlink:href="../../d6/d00/class_pascal_syntax_analyzer.html#ae443cbc65ec18c6277b095da042ec7a2" target="_top" xlink:title=" ">
<polygon fill="none" stroke="black" points="149,-643.16 149,-673.16 262,-673.16 262,-643.16 149,-643.16"/>
<text text-anchor="start" x="157" y="-661.16" font-family="Helvetica,sans-Serif" font-size="10.00">PascalSyntaxAnalyzer</text>
<text text-anchor="middle" x="205.5" y="-650.16" font-family="Helvetica,sans-Serif" font-size="10.00">::syntaxSelect</text>
</a>
</g>
</g>
<!-- Node1&#45;&gt;Node23 -->
<g id="edge49" class="edge">
<title>Node1&#45;&gt;Node23</title>
<path fill="none" stroke="midnightblue" d="M113.07,-671.84C121.49,-670.58 130.24,-669.27 138.84,-667.98"/>
<polygon fill="midnightblue" stroke="midnightblue" points="139.48,-671.43 148.85,-666.49 138.44,-664.51 139.48,-671.43"/>
</g>
<!-- Node24 -->
<g id="node24" class="node">
<title>Node24</title>
<g id="a_node24"><a xlink:href="../../d6/d00/class_pascal_syntax_analyzer.html#a29143dd884dc4a19bfa64da0ac1640b7" target="_top" xlink:title=" ">
<polygon fill="none" stroke="black" points="298,-687.16 298,-717.16 411,-717.16 411,-687.16 298,-687.16"/>
<text text-anchor="start" x="306" y="-705.16" font-family="Helvetica,sans-Serif" font-size="10.00">PascalSyntaxAnalyzer</text>
<text text-anchor="middle" x="354.5" y="-694.16" font-family="Helvetica,sans-Serif" font-size="10.00">::syntaxVariable</text>
</a>
</g>
</g>
<!-- Node1&#45;&gt;Node24 -->
<g id="edge60" class="edge">
<title>Node1&#45;&gt;Node24</title>
<path fill="none" stroke="midnightblue" d="M113.18,-684.3C162.71,-687.98 235.22,-693.37 287.62,-697.26"/>
<polygon fill="midnightblue" stroke="midnightblue" points="287.59,-700.77 297.82,-698.02 288.11,-693.79 287.59,-700.77"/>
</g>
<!-- Node2&#45;&gt;Node3 -->
<g id="edge2" class="edge">
<title>Node2&#45;&gt;Node3</title>
<path fill="none" stroke="midnightblue" d="M853.46,-325.67C863.94,-329.4 875.32,-334.23 885,-340.16 903.51,-351.49 901.99,-362.67 921,-373.16 964.14,-396.95 1017.86,-411.32 1060.03,-419.68"/>
<polygon fill="midnightblue" stroke="midnightblue" points="1059.46,-423.13 1069.94,-421.58 1060.77,-416.26 1059.46,-423.13"/>
</g>
<!-- Node4 -->
<g id="node4" class="node">
<title>Node4</title>
<g id="a_node4"><a xlink:href="../../db/dc1/class_token.html#ab9a75d3f89e77051d87462654e7576de" target="_top" xlink:title=" ">
<polygon fill="none" stroke="black" points="938.5,-344.66 938.5,-363.66 1016.5,-363.66 1016.5,-344.66 938.5,-344.66"/>
<text text-anchor="middle" x="977.5" y="-351.66" font-family="Helvetica,sans-Serif" font-size="10.00">Token::getInfo</text>
</a>
</g>
</g>
<!-- Node2&#45;&gt;Node4 -->
<g id="edge3" class="edge">
<title>Node2&#45;&gt;Node4</title>
<path fill="none" stroke="midnightblue" d="M859.87,-325.75C880.76,-330.84 906.61,-337.13 928.66,-342.5"/>
<polygon fill="midnightblue" stroke="midnightblue" points="927.95,-345.93 938.49,-344.9 929.61,-339.13 927.95,-345.93"/>
</g>
<!-- Node2&#45;&gt;Node6 -->
<g id="edge10" class="edge">
<title>Node2&#45;&gt;Node6</title>
<path fill="none" stroke="midnightblue" d="M855.42,-306.58C897.83,-294.81 971.45,-273.98 1034,-254.16 1053.85,-247.87 1075.82,-240.36 1093.73,-234.09"/>
<polygon fill="midnightblue" stroke="midnightblue" points="1094.95,-237.37 1103.22,-230.75 1092.62,-230.77 1094.95,-237.37"/>
</g>
<!-- Node10 -->
<g id="node10" class="node">
<title>Node10</title>
<g id="a_node10"><a xlink:href="../../db/dc1/class_token.html#a1f07fa2fffeb2f7ab803ef8b424eae8a" target="_top" xlink:title=" ">
<polygon fill="none" stroke="black" points="940.5,-306.66 940.5,-325.66 1014.5,-325.66 1014.5,-306.66 940.5,-306.66"/>
<text text-anchor="middle" x="977.5" y="-313.66" font-family="Helvetica,sans-Serif" font-size="10.00">Token::setStr</text>
</a>
</g>
</g>
<!-- Node2&#45;&gt;Node10 -->
<g id="edge11" class="edge">
<title>Node2&#45;&gt;Node10</title>
<path fill="none" stroke="midnightblue" d="M879.03,-316.16C895.91,-316.16 914.09,-316.16 930.12,-316.16"/>
<polygon fill="midnightblue" stroke="midnightblue" points="930.31,-319.66 940.31,-316.16 930.31,-312.66 930.31,-319.66"/>
</g>
<!-- Node4&#45;&gt;Node3 -->
<g id="edge4" class="edge">
<title>Node4&#45;&gt;Node3</title>
<path fill="none" stroke="midnightblue" d="M991.55,-363.76C1008.78,-376.09 1040.43,-397.53 1070,-411.16 1074.78,-413.36 1079.88,-415.4 1085.02,-417.28"/>
<polygon fill="midnightblue" stroke="midnightblue" points="1084.26,-420.72 1094.86,-420.65 1086.53,-414.1 1084.26,-420.72"/>
</g>
<!-- Node5 -->
<g id="node5" class="node">
<title>Node5</title>
<g id="a_node5"><a xlink:href="../../db/dc1/class_token.html#aa5d6826fae7d616e2cfe3e27b5dd594a" target="_top" xlink:title="Возвращает константную ссылку на строковое представление токена">
<polygon fill="none" stroke="black" points="1094,-268.66 1094,-287.66 1168,-287.66 1168,-268.66 1094,-268.66"/>
<text text-anchor="middle" x="1131" y="-275.66" font-family="Helvetica,sans-Serif" font-size="10.00">Token::getStr</text>
</a>
</g>
</g>
<!-- Node4&#45;&gt;Node5 -->
<g id="edge5" class="edge">
<title>Node4&#45;&gt;Node5</title>
<path fill="none" stroke="midnightblue" d="M1014.61,-344.64C1021.33,-342.09 1028.09,-338.96 1034,-335.16 1053.57,-322.58 1050.28,-309.51 1070,-297.16 1074.4,-294.4 1079.24,-292.01 1084.19,-289.95"/>
<polygon fill="midnightblue" stroke="midnightblue" points="1085.64,-293.15 1093.79,-286.38 1083.2,-286.59 1085.64,-293.15"/>
</g>
<!-- Node4&#45;&gt;Node6 -->
<g id="edge6" class="edge">
<title>Node4&#45;&gt;Node6</title>
<path fill="none" stroke="midnightblue" d="M1016.55,-345.7C1022.87,-343.07 1028.99,-339.64 1034,-335.16 1061.87,-310.26 1045.23,-287.15 1070,-259.16 1078.34,-249.73 1089.57,-241.78 1100.06,-235.62"/>
<polygon fill="midnightblue" stroke="midnightblue" points="1101.94,-238.59 1109,-230.69 1098.55,-232.46 1101.94,-238.59"/>
</g>
<!-- Node7 -->
<g id="node7" class="node">
<title>Node7</title>
<g id="a_node7"><a xlink:href="../../db/dc1/class_token.html#a81497d9f05f9c69ba4ab8e9c62a391d1" target="_top" xlink:title=" ">
<polygon fill="none" stroke="black" points="1099.5,-382.66 1099.5,-401.66 1162.5,-401.66 1162.5,-382.66 1099.5,-382.66"/>
<text text-anchor="middle" x="1131" y="-389.66" font-family="Helvetica,sans-Serif" font-size="10.00">Token::line</text>
</a>
</g>
</g>
<!-- Node4&#45;&gt;Node7 -->
<g id="edge7" class="edge">
<title>Node4&#45;&gt;Node7</title>
<path fill="none" stroke="midnightblue" d="M1016.73,-363.75C1038.93,-369.31 1066.87,-376.32 1089.45,-381.99"/>
<polygon fill="midnightblue" stroke="midnightblue" points="1088.86,-385.45 1099.41,-384.48 1090.56,-378.66 1088.86,-385.45"/>
</g>
<!-- Node8 -->
<g id="node8" class="node">
<title>Node8</title>
<g id="a_node8"><a xlink:href="../../db/dc1/class_token.html#a715f99ebacdd636c283d15dc8656631c" target="_top" xlink:title=" ">
<polygon fill="none" stroke="black" points="1099,-344.66 1099,-363.66 1163,-363.66 1163,-344.66 1099,-344.66"/>
<text text-anchor="middle" x="1131" y="-351.66" font-family="Helvetica,sans-Serif" font-size="10.00">Token::pos</text>
</a>
</g>
</g>
<!-- Node4&#45;&gt;Node8 -->
<g id="edge8" class="edge">
<title>Node4&#45;&gt;Node8</title>
<path fill="none" stroke="midnightblue" d="M1016.73,-354.16C1038.68,-354.16 1066.24,-354.16 1088.68,-354.16"/>
<polygon fill="midnightblue" stroke="midnightblue" points="1088.92,-357.66 1098.92,-354.16 1088.92,-350.66 1088.92,-357.66"/>
</g>
<!-- Node9 -->
<g id="node9" class="node">
<title>Node9</title>
<g id="a_node9"><a xlink:href="../../db/dc1/class_token.html#a913f22d91c68c0b0f8c2d593b14deca2" target="_top" xlink:title=" ">
<polygon fill="none" stroke="black" points="1085.5,-306.66 1085.5,-325.66 1176.5,-325.66 1176.5,-306.66 1085.5,-306.66"/>
<text text-anchor="middle" x="1131" y="-313.66" font-family="Helvetica,sans-Serif" font-size="10.00">Token::posInLine</text>
</a>
</g>
</g>
<!-- Node4&#45;&gt;Node9 -->
<g id="edge9" class="edge">
<title>Node4&#45;&gt;Node9</title>
<path fill="none" stroke="midnightblue" d="M1016.73,-344.57C1036.63,-339.58 1061.16,-333.43 1082.29,-328.12"/>
<polygon fill="midnightblue" stroke="midnightblue" points="1083.2,-331.51 1092.05,-325.68 1081.49,-324.72 1083.2,-331.51"/>
</g>
<!-- Node11&#45;&gt;Node12 -->
<g id="edge13" class="edge">
<title>Node11&#45;&gt;Node12</title>
<path fill="none" stroke="midnightblue" d="M885.3,-639.16C893.63,-639.16 902.17,-639.16 910.52,-639.16"/>
<polygon fill="midnightblue" stroke="midnightblue" points="910.59,-642.66 920.59,-639.16 910.59,-635.66 910.59,-642.66"/>
</g>
<!-- Node13 -->
<g id="node13" class="node">
<title>Node13</title>
<g id="a_node13"><a xlink:href="../../d6/d00/class_pascal_syntax_analyzer.html#ae7d45d4a2d1a4200a1970708da736845" target="_top" xlink:title=" ">
<polygon fill="none" stroke="black" points="921,-804.16 921,-834.16 1034,-834.16 1034,-804.16 921,-804.16"/>
<text text-anchor="start" x="929" y="-822.16" font-family="Helvetica,sans-Serif" font-size="10.00">PascalSyntaxAnalyzer</text>
<text text-anchor="middle" x="977.5" y="-811.16" font-family="Helvetica,sans-Serif" font-size="10.00">::getNextToken</text>
</a>
</g>
</g>
<!-- Node11&#45;&gt;Node13 -->
<g id="edge14" class="edge">
<title>Node11&#45;&gt;Node13</title>
<path fill="none" stroke="midnightblue" d="M828.89,-648.84C852.93,-676.57 922.54,-756.89 956.87,-796.51"/>
<polygon fill="midnightblue" stroke="midnightblue" points="954.25,-798.83 963.44,-804.09 959.54,-794.24 954.25,-798.83"/>
</g>
<!-- Node14&#45;&gt;Node12 -->
<g id="edge16" class="edge">
<title>Node14&#45;&gt;Node12</title>
<path fill="none" stroke="midnightblue" d="M865.34,-915.12C872.62,-911.14 879.55,-906.22 885,-900.16 918,-863.49 904.73,-841.73 921,-795.16 937.27,-748.59 956.66,-694.36 967.68,-663.66"/>
<polygon fill="midnightblue" stroke="midnightblue" points="971,-664.79 971.08,-654.2 964.41,-662.42 971,-664.79"/>
</g>
<!-- Node14&#45;&gt;Node13 -->
<g id="edge17" class="edge">
<title>Node14&#45;&gt;Node13</title>
<path fill="none" stroke="midnightblue" d="M857.65,-915.11C866.87,-910.78 876.53,-905.71 885,-900.16 910.85,-883.22 936.92,-859.33 954.57,-841.88"/>
<polygon fill="midnightblue" stroke="midnightblue" points="957.48,-843.92 962.07,-834.37 952.53,-838.98 957.48,-843.92"/>
</g>
<!-- Node16 -->
<g id="node16" class="node">
<title>Node16</title>
<g id="a_node16"><a xlink:href="../../d1/d34/class_list.html#a49c179636e084dfbf7a52acd46acaf01" target="_top" xlink:title=" ">
<polygon fill="none" stroke="black" points="327,-958.66 327,-977.66 382,-977.66 382,-958.66 327,-958.66"/>
<text text-anchor="middle" x="354.5" y="-965.66" font-family="Helvetica,sans-Serif" font-size="10.00">List::size</text>
</a>
</g>
</g>
<!-- Node15&#45;&gt;Node16 -->
<g id="edge22" class="edge">
<title>Node15&#45;&gt;Node16</title>
<path fill="none" stroke="midnightblue" d="M262.07,-968.16C280.22,-968.16 299.91,-968.16 316.35,-968.16"/>
<polygon fill="midnightblue" stroke="midnightblue" points="316.64,-971.66 326.64,-968.16 316.64,-964.66 316.64,-971.66"/>
</g>
<!-- Node17&#45;&gt;Node2 -->
<g id="edge24" class="edge">
<title>Node17&#45;&gt;Node2</title>
<path fill="none" stroke="midnightblue" d="M229.36,-490.96C247.38,-479.53 273.48,-464.18 298,-454.16 309.27,-449.55 646.99,-361.03 772.3,-328.24"/>
<polygon fill="midnightblue" stroke="midnightblue" points="773.21,-331.62 782,-325.7 771.44,-324.85 773.21,-331.62"/>
</g>
<!-- Node17&#45;&gt;Node11 -->
<g id="edge25" class="edge">
<title>Node17&#45;&gt;Node11</title>
<path fill="none" stroke="midnightblue" d="M262.16,-518.25C379.15,-543.68 649.22,-602.37 764.63,-627.45"/>
<polygon fill="midnightblue" stroke="midnightblue" points="764.13,-630.92 774.65,-629.63 765.62,-624.08 764.13,-630.92"/>
</g>
<!-- Node17&#45;&gt;Node12 -->
<g id="edge26" class="edge">
<title>Node17&#45;&gt;Node12</title>
<path fill="none" stroke="midnightblue" d="M262.26,-508.62C303.49,-510.91 360.93,-515.05 411,-522.16 593.7,-548.09 806.02,-597.21 910.91,-622.78"/>
<polygon fill="midnightblue" stroke="midnightblue" points="910.18,-626.2 920.73,-625.17 911.84,-619.4 910.18,-626.2"/>
</g>
<!-- Node18 -->
<g id="node18" class="node">
<title>Node18</title>
<g id="a_node18"><a xlink:href="../../dd/dfe/class_base_token.html#a14274971b0df74ada437774f4e4c5688" target="_top" xlink:title="Устанавливает дополнительный тип токена">
<polygon fill="none" stroke="black" points="447,-610.66 447,-629.66 569,-629.66 569,-610.66 447,-610.66"/>
<text text-anchor="middle" x="508" y="-617.66" font-family="Helvetica,sans-Serif" font-size="10.00">BaseToken::setAdvType</text>
</a>
</g>
</g>
<!-- Node17&#45;&gt;Node18 -->
<g id="edge27" class="edge">
<title>Node17&#45;&gt;Node18</title>
<path fill="none" stroke="midnightblue" d="M229.82,-521.39C247.87,-532.68 273.79,-547.85 298,-558.16 349.74,-580.19 411.83,-597.53 454.82,-608.21"/>
<polygon fill="midnightblue" stroke="midnightblue" points="454.23,-611.67 464.78,-610.65 455.9,-604.87 454.23,-611.67"/>
</g>
<!-- Node17&#45;&gt;Node19 -->
<g id="edge28" class="edge">
<title>Node17&#45;&gt;Node19</title>
<path fill="none" stroke="midnightblue" d="M214.29,-491.05C228.19,-465.24 259.49,-412.13 298,-378.16 301.9,-374.71 306.27,-371.51 310.8,-368.59"/>
<polygon fill="midnightblue" stroke="midnightblue" points="312.83,-371.45 319.61,-363.3 309.23,-365.44 312.83,-371.45"/>
</g>
<!-- Node19&#45;&gt;Node2 -->
<g id="edge29" class="edge">
<title>Node19&#45;&gt;Node2</title>
<path fill="none" stroke="midnightblue" d="M411.35,-344.3C496.31,-338.43 657.85,-327.26 749.86,-320.9"/>
<polygon fill="midnightblue" stroke="midnightblue" points="750.17,-324.39 759.9,-320.21 749.68,-317.41 750.17,-324.39"/>
</g>
<!-- Node19&#45;&gt;Node6 -->
<g id="edge32" class="edge">
<title>Node19&#45;&gt;Node6</title>
<path fill="none" stroke="midnightblue" d="M357.18,-333.08C362.51,-292.34 382.67,-178.87 447,-116.16 519.34,-45.64 559.48,-38.16 660.5,-38.16 660.5,-38.16 660.5,-38.16 820.5,-38.16 950.08,-38.16 1073.01,-158.48 1114.88,-203.99"/>
<polygon fill="midnightblue" stroke="midnightblue" points="1112.43,-206.51 1121.74,-211.58 1117.62,-201.81 1112.43,-206.51"/>
</g>
<!-- Node19&#45;&gt;Node11 -->
<g id="edge30" class="edge">
<title>Node19&#45;&gt;Node11</title>
<path fill="none" stroke="midnightblue" d="M367.24,-363.27C383.53,-383.53 414.65,-419.75 447,-444.16 560.34,-529.67 716.45,-598.01 784.5,-625.75"/>
<polygon fill="midnightblue" stroke="midnightblue" points="783.3,-629.05 793.88,-629.55 785.92,-622.56 783.3,-629.05"/>
</g>
<!-- Node19&#45;&gt;Node12 -->
<g id="edge31" class="edge">
<title>Node19&#45;&gt;Node12</title>
<path fill="none" stroke="midnightblue" d="M411.37,-357.14C513.1,-375.6 732.15,-425.19 885,-530.16 918.05,-552.85 945.96,-590.57 961.98,-615.15"/>
<polygon fill="midnightblue" stroke="midnightblue" points="959.2,-617.3 967.51,-623.87 965.11,-613.55 959.2,-617.3"/>
</g>
<!-- Node20 -->
<g id="node20" class="node">
<title>Node20</title>
<g id="a_node20"><a xlink:href="../../d3/da8/sup_algs_8hpp.html#ae7d62ca130413d4c96863327c1af81a4" target="_top" xlink:title="Возвращает истину, если value находится среди значений cont.">
<polygon fill="none" stroke="black" points="803.5,-104.66 803.5,-123.66 835.5,-123.66 835.5,-104.66 803.5,-104.66"/>
<text text-anchor="middle" x="819.5" y="-111.66" font-family="Helvetica,sans-Serif" font-size="10.00">isIn</text>
</a>
</g>
</g>
<!-- Node19&#45;&gt;Node20 -->
<g id="edge33" class="edge">
<title>Node19&#45;&gt;Node20</title>
<path fill="none" stroke="midnightblue" d="M364.43,-333C392.59,-286.94 484.83,-148.94 605,-102.16 669.29,-77.13 752.74,-94.76 793.66,-106.3"/>
<polygon fill="midnightblue" stroke="midnightblue" points="792.76,-109.69 803.34,-109.15 794.73,-102.97 792.76,-109.69"/>
</g>
<!-- Node21 -->
<g id="node21" class="node">
<title>Node21</title>
<g id="a_node21"><a xlink:href="../../d6/d00/class_pascal_syntax_analyzer.html#aca0a489432741e00e3d268ccd6452781" target="_top" xlink:title=" ">
<polygon fill="none" stroke="black" points="451.5,-257.16 451.5,-287.16 564.5,-287.16 564.5,-257.16 451.5,-257.16"/>
<text text-anchor="start" x="459.5" y="-275.16" font-family="Helvetica,sans-Serif" font-size="10.00">PascalSyntaxAnalyzer</text>
<text text-anchor="middle" x="508" y="-264.16" font-family="Helvetica,sans-Serif" font-size="10.00">::syntaxSimpleExpr</text>
</a>
</g>
</g>
<!-- Node19&#45;&gt;Node21 -->
<g id="edge34" class="edge">
<title>Node19&#45;&gt;Node21</title>
<path fill="none" stroke="midnightblue" d="M385.58,-333.02C403.42,-324.04 426.5,-312.44 447,-302.16 453.66,-298.82 460.73,-295.28 467.6,-291.84"/>
<polygon fill="midnightblue" stroke="midnightblue" points="469.4,-294.86 476.78,-287.25 466.27,-288.59 469.4,-294.86"/>
</g>
<!-- Node21&#45;&gt;Node2 -->
<g id="edge35" class="edge">
<title>Node21&#45;&gt;Node2</title>
<path fill="none" stroke="midnightblue" d="M564.69,-280.07C616.55,-287.45 694,-298.46 749.7,-306.38"/>
<polygon fill="midnightblue" stroke="midnightblue" points="749.44,-309.88 759.84,-307.82 750.43,-302.94 749.44,-309.88"/>
</g>
<!-- Node21&#45;&gt;Node6 -->
<g id="edge38" class="edge">
<title>Node21&#45;&gt;Node6</title>
<path fill="none" stroke="midnightblue" d="M564.66,-267.59C680.51,-258.07 946.86,-236.2 1067.99,-226.25"/>
<polygon fill="midnightblue" stroke="midnightblue" points="1068.53,-229.72 1078.21,-225.41 1067.95,-222.74 1068.53,-229.72"/>
</g>
<!-- Node21&#45;&gt;Node11 -->
<g id="edge36" class="edge">
<title>Node21&#45;&gt;Node11</title>
<path fill="none" stroke="midnightblue" d="M521.9,-287.46C571.62,-346.41 750.6,-558.65 803.61,-621.5"/>
<polygon fill="midnightblue" stroke="midnightblue" points="801.1,-623.96 810.23,-629.35 806.45,-619.45 801.1,-623.96"/>
</g>
<!-- Node21&#45;&gt;Node12 -->
<g id="edge37" class="edge">
<title>Node21&#45;&gt;Node12</title>
<path fill="none" stroke="midnightblue" d="M548.03,-287.27C633.48,-320.94 833.57,-403.16 885,-454.16 931.63,-500.39 958.39,-575.24 969.83,-614.04"/>
<polygon fill="midnightblue" stroke="midnightblue" points="966.55,-615.31 972.66,-623.97 973.29,-613.4 966.55,-615.31"/>
</g>
<!-- Node21&#45;&gt;Node20 -->
<g id="edge39" class="edge">
<title>Node21&#45;&gt;Node20</title>
<path fill="none" stroke="midnightblue" d="M514.34,-257.15C525.75,-227.53 555.59,-161.95 605,-133.16 665.04,-98.17 751.1,-104.12 793.26,-109.9"/>
<polygon fill="midnightblue" stroke="midnightblue" points="792.82,-113.37 803.23,-111.37 793.85,-106.44 792.82,-113.37"/>
</g>
<!-- Node22 -->
<g id="node22" class="node">
<title>Node22</title>
<g id="a_node22"><a xlink:href="../../d6/d00/class_pascal_syntax_analyzer.html#a2a47b3776a55323696ebcc18a9699b57" target="_top" xlink:title=" ">
<polygon fill="none" stroke="black" points="605,-143.16 605,-173.16 718,-173.16 718,-143.16 605,-143.16"/>
<text text-anchor="start" x="613" y="-161.16" font-family="Helvetica,sans-Serif" font-size="10.00">PascalSyntaxAnalyzer</text>
<text text-anchor="middle" x="661.5" y="-150.16" font-family="Helvetica,sans-Serif" font-size="10.00">::syntaxTerm</text>
</a>
</g>
</g>
<!-- Node21&#45;&gt;Node22 -->
<g id="edge40" class="edge">
<title>Node21&#45;&gt;Node22</title>
<path fill="none" stroke="midnightblue" d="M529.12,-257.02C555.49,-237.17 601.92,-202.24 631.93,-179.66"/>
<polygon fill="midnightblue" stroke="midnightblue" points="634.41,-182.17 640.3,-173.36 630.2,-176.57 634.41,-182.17"/>
</g>
<!-- Node22&#45;&gt;Node1 -->
<g id="edge46" class="edge">
<title>Node22&#45;&gt;Node1</title>
<path fill="none" stroke="midnightblue" d="M610.15,-143.12C508.95,-116.29 279.43,-73.13 149,-188.16 78.01,-250.77 61.58,-563.22 58.26,-654.86"/>
<polygon fill="midnightblue" stroke="midnightblue" points="54.76,-654.79 57.92,-664.91 61.76,-655.03 54.76,-654.79"/>
</g>
<!-- Node22&#45;&gt;Node2 -->
<g id="edge41" class="edge">
<title>Node22&#45;&gt;Node2</title>
<path fill="none" stroke="midnightblue" d="M699.67,-173.23C706.45,-177.28 712.96,-182.23 718,-188.16 749.67,-225.43 719.81,-257.18 754,-292.16 757.86,-296.11 762.43,-299.42 767.33,-302.18"/>
<polygon fill="midnightblue" stroke="midnightblue" points="765.9,-305.38 776.42,-306.6 768.96,-299.08 765.9,-305.38"/>
</g>
<!-- Node22&#45;&gt;Node6 -->
<g id="edge44" class="edge">
<title>Node22&#45;&gt;Node6</title>
<path fill="none" stroke="midnightblue" d="M718.43,-165.69C806.5,-177.56 976.87,-200.52 1068.36,-212.85"/>
<polygon fill="midnightblue" stroke="midnightblue" points="1067.93,-216.32 1078.31,-214.19 1068.86,-209.39 1067.93,-216.32"/>
</g>
<!-- Node22&#45;&gt;Node11 -->
<g id="edge42" class="edge">
<title>Node22&#45;&gt;Node11</title>
<path fill="none" stroke="midnightblue" d="M667.43,-173.35C690.38,-244.11 786.78,-541.34 812.29,-620"/>
<polygon fill="midnightblue" stroke="midnightblue" points="808.98,-621.16 815.4,-629.6 815.64,-619 808.98,-621.16"/>
</g>
<!-- Node22&#45;&gt;Node12 -->
<g id="edge43" class="edge">
<title>Node22&#45;&gt;Node12</title>
<path fill="none" stroke="midnightblue" d="M705.13,-173.27C755.87,-193.49 839.44,-234.27 885,-297.16 922.65,-349.13 959.76,-543.88 972.16,-613.89"/>
<polygon fill="midnightblue" stroke="midnightblue" points="968.76,-614.77 973.93,-624.02 975.66,-613.56 968.76,-614.77"/>
</g>
<!-- Node22&#45;&gt;Node20 -->
<g id="edge45" class="edge">
<title>Node22&#45;&gt;Node20</title>
<path fill="none" stroke="midnightblue" d="M715.75,-143.14C742.18,-135.68 772.83,-127.04 793.74,-121.14"/>
<polygon fill="midnightblue" stroke="midnightblue" points="794.75,-124.49 803.43,-118.41 792.85,-117.75 794.75,-124.49"/>
</g>
<!-- Node23&#45;&gt;Node2 -->
<g id="edge50" class="edge">
<title>Node23&#45;&gt;Node2</title>
<path fill="none" stroke="midnightblue" d="M233.59,-643.02C335.22,-586.23 693.09,-386.24 792.64,-330.61"/>
<polygon fill="midnightblue" stroke="midnightblue" points="794.42,-333.62 801.45,-325.69 791.01,-327.51 794.42,-333.62"/>
</g>
<!-- Node23&#45;&gt;Node11 -->
<g id="edge51" class="edge">
<title>Node23&#45;&gt;Node11</title>
<path fill="none" stroke="midnightblue" d="M262.16,-656.43C372.5,-653 619.04,-645.35 743.53,-641.49"/>
<polygon fill="midnightblue" stroke="midnightblue" points="743.84,-644.98 753.73,-641.17 743.63,-637.98 743.84,-644.98"/>
</g>
<!-- Node23&#45;&gt;Node12 -->
<g id="edge52" class="edge">
<title>Node23&#45;&gt;Node12</title>
<path fill="none" stroke="midnightblue" d="M218.75,-673.38C256.51,-718.47 376.45,-848.16 507,-848.16 507,-848.16 507,-848.16 662.5,-848.16 795.52,-848.16 915.14,-716.57 958.88,-662.22"/>
<polygon fill="midnightblue" stroke="midnightblue" points="961.77,-664.2 965.23,-654.19 956.28,-659.85 961.77,-664.2"/>
</g>
<!-- Node23&#45;&gt;Node18 -->
<g id="edge53" class="edge">
<title>Node23&#45;&gt;Node18</title>
<path fill="none" stroke="midnightblue" d="M262.1,-649.31C273.94,-647.52 286.37,-645.71 298,-644.16 344.05,-637.99 395.95,-632.03 436.51,-627.59"/>
<polygon fill="midnightblue" stroke="midnightblue" points="437,-631.05 446.56,-626.49 436.24,-624.09 437,-631.05"/>
</g>
<!-- Node23&#45;&gt;Node19 -->
<g id="edge54" class="edge">
<title>Node23&#45;&gt;Node19</title>
<path fill="none" stroke="midnightblue" d="M213.79,-642.78C237.55,-592.67 312.9,-433.77 341.94,-372.54"/>
<polygon fill="midnightblue" stroke="midnightblue" points="345.22,-373.79 346.34,-363.26 338.89,-370.79 345.22,-373.79"/>
</g>
<!-- Node23&#45;&gt;Node24 -->
<g id="edge55" class="edge">
<title>Node23&#45;&gt;Node24</title>
<path fill="none" stroke="midnightblue" d="M256.68,-673.18C268.49,-676.71 281.2,-680.52 293.4,-684.17"/>
<polygon fill="midnightblue" stroke="midnightblue" points="292.47,-687.54 303.05,-687.06 294.47,-680.84 292.47,-687.54"/>
</g>
<!-- Node24&#45;&gt;Node2 -->
<g id="edge56" class="edge">
<title>Node24&#45;&gt;Node2</title>
<path fill="none" stroke="midnightblue" d="M411.26,-691.9C455.7,-682.29 518.62,-665.41 569,-639.16 644.16,-599.99 664.89,-586.2 718,-520.16 765.97,-460.51 798.92,-374.22 812.09,-335.84"/>
<polygon fill="midnightblue" stroke="midnightblue" points="815.55,-336.54 815.41,-325.94 808.91,-334.31 815.55,-336.54"/>
</g>
<!-- Node24&#45;&gt;Node11 -->
<g id="edge57" class="edge">
<title>Node24&#45;&gt;Node11</title>
<path fill="none" stroke="midnightblue" d="M411.12,-714.3C483.66,-727.7 613.61,-743.31 718,-710.16 751.52,-699.51 783.49,-673.19 802.04,-655.76"/>
<polygon fill="midnightblue" stroke="midnightblue" points="804.6,-658.16 809.36,-648.69 799.74,-653.13 804.6,-658.16"/>
</g>
<!-- Node24&#45;&gt;Node12 -->
<g id="edge58" class="edge">
<title>Node24&#45;&gt;Node12</title>
<path fill="none" stroke="midnightblue" d="M384.69,-717.32C402.24,-725.57 425.3,-734.94 447,-739.16 565.26,-762.16 599.8,-756.44 718,-733.16 797.67,-717.46 885.55,-681.15 935.58,-658.53"/>
<polygon fill="midnightblue" stroke="midnightblue" points="937.13,-661.67 944.77,-654.33 934.22,-655.3 937.13,-661.67"/>
</g>
<!-- Node24&#45;&gt;Node18 -->
<g id="edge59" class="edge">
<title>Node24&#45;&gt;Node18</title>
<path fill="none" stroke="midnightblue" d="M383.29,-687.12C410.95,-672.15 453.11,-649.33 480.36,-634.58"/>
<polygon fill="midnightblue" stroke="midnightblue" points="482.2,-637.56 489.33,-629.72 478.87,-631.4 482.2,-637.56"/>
</g>
</g>
</svg>
