<?xml version="1.0" encoding="UTF-8" standalone="no"?>
<!DOCTYPE svg PUBLIC "-//W3C//DTD SVG 1.1//EN"
 "http://www.w3.org/Graphics/SVG/1.1/DTD/svg11.dtd">
<!-- Generated by graphviz version 3.0.0 (20220413.0106)
 -->
<!-- Title: PascalSyntaxAnalyzer::syntaxFactor Pages: 1 -->
<svg width="2284pt" height="319pt"
 viewBox="0.00 0.00 2284.00 318.50" xmlns="http://www.w3.org/2000/svg" xmlns:xlink="http://www.w3.org/1999/xlink">
<g id="graph0" class="graph" transform="scale(1 1) rotate(0) translate(4 314.5)">
<title>PascalSyntaxAnalyzer::syntaxFactor</title>
<!-- Node1 -->
<g id="node1" class="node">
<title>Node1</title>
<g id="a_node1"><a xlink:title=" ">
<polygon fill="#bfbfbf" stroke="black" points="2163,-70 2163,-100 2276,-100 2276,-70 2163,-70"/>
<text text-anchor="start" x="2171" y="-88" font-family="Helvetica,sans-Serif" font-size="10.00">PascalSyntaxAnalyzer</text>
<text text-anchor="middle" x="2219.5" y="-77" font-family="Helvetica,sans-Serif" font-size="10.00">::syntaxFactor</text>
</a>
</g>
</g>
<!-- Node1&#45;&gt;Node1 -->
<g id="edge1" class="edge">
<title>Node1&#45;&gt;Node1</title>
<path fill="none" stroke="midnightblue" d="M2245.8,-110.46C2242.53,-115.18 2233.77,-118.5 2219.5,-118.5 2196.09,-118.5 2187.49,-109.56 2193.71,-100.16"/>
<polygon fill="midnightblue" stroke="midnightblue" points="2249.28,-109.98 2245.29,-100.16 2242.29,-110.32 2249.28,-109.98"/>
</g>
<!-- Node2 -->
<g id="node2" class="node">
<title>Node2</title>
<g id="a_node2"><a xlink:href="../../d6/d00/class_pascal_syntax_analyzer.html#a2c49546e46d84e7785ef131a1cfc7ff7" target="_top" xlink:title=" ">
<polygon fill="none" stroke="black" points="1269,-28 1269,-58 1382,-58 1382,-28 1269,-28"/>
<text text-anchor="start" x="1277" y="-46" font-family="Helvetica,sans-Serif" font-size="10.00">PascalSyntaxAnalyzer</text>
<text text-anchor="middle" x="1325.5" y="-35" font-family="Helvetica,sans-Serif" font-size="10.00">::syntaxIter</text>
</a>
</g>
</g>
<!-- Node1&#45;&gt;Node2 -->
<g id="edge2" class="edge">
<title>Node1&#45;&gt;Node2</title>
<path fill="none" stroke="midnightblue" d="M2178.6,-65.82C2122.7,-40.75 2017.27,0 1922.5,0 1922.5,0 1922.5,0 1622.5,0 1537.99,0 1441.3,-17.38 1382.07,-30.04"/>
<polygon fill="midnightblue" stroke="midnightblue" points="2177.24,-69.04 2187.8,-70 2180.14,-62.67 2177.24,-69.04"/>
</g>
<!-- Node14 -->
<g id="node14" class="node">
<title>Node14</title>
<g id="a_node14"><a xlink:href="../../d6/d00/class_pascal_syntax_analyzer.html#a2a47b3776a55323696ebcc18a9699b57" target="_top" xlink:title=" ">
<polygon fill="none" stroke="black" points="2014,-114 2014,-144 2127,-144 2127,-114 2014,-114"/>
<text text-anchor="start" x="2022" y="-132" font-family="Helvetica,sans-Serif" font-size="10.00">PascalSyntaxAnalyzer</text>
<text text-anchor="middle" x="2070.5" y="-121" font-family="Helvetica,sans-Serif" font-size="10.00">::syntaxTerm</text>
</a>
</g>
</g>
<!-- Node1&#45;&gt;Node14 -->
<g id="edge19" class="edge">
<title>Node1&#45;&gt;Node14</title>
<path fill="none" stroke="midnightblue" d="M2158.68,-102.9C2146.49,-106.55 2133.78,-110.36 2121.95,-113.9"/>
<polygon fill="midnightblue" stroke="midnightblue" points="2159.75,-106.24 2168.32,-100.02 2157.74,-99.53 2159.75,-106.24"/>
</g>
<!-- Node3 -->
<g id="node3" class="node">
<title>Node3</title>
<g id="a_node3"><a xlink:href="../../d6/d00/class_pascal_syntax_analyzer.html#aeab55be1d74a8810d1ea8aa51ba8e820" target="_top" xlink:title=" ">
<polygon fill="none" stroke="black" points="1120,-28 1120,-58 1233,-58 1233,-28 1120,-28"/>
<text text-anchor="start" x="1128" y="-46" font-family="Helvetica,sans-Serif" font-size="10.00">PascalSyntaxAnalyzer</text>
<text text-anchor="middle" x="1176.5" y="-35" font-family="Helvetica,sans-Serif" font-size="10.00">::syntaxForSt</text>
</a>
</g>
</g>
<!-- Node2&#45;&gt;Node3 -->
<g id="edge3" class="edge">
<title>Node2&#45;&gt;Node3</title>
<path fill="none" stroke="midnightblue" d="M1258.92,-43C1250.32,-43 1241.57,-43 1233.15,-43"/>
<polygon fill="midnightblue" stroke="midnightblue" points="1258.93,-46.5 1268.93,-43 1258.93,-39.5 1258.93,-46.5"/>
</g>
<!-- Node4 -->
<g id="node4" class="node">
<title>Node4</title>
<g id="a_node4"><a xlink:href="../../d6/d00/class_pascal_syntax_analyzer.html#af92e2fd2112e0b98c1d419e9068ffd49" target="_top" xlink:title=" ">
<polygon fill="none" stroke="black" points="971,-123 971,-153 1084,-153 1084,-123 971,-123"/>
<text text-anchor="start" x="979" y="-141" font-family="Helvetica,sans-Serif" font-size="10.00">PascalSyntaxAnalyzer</text>
<text text-anchor="middle" x="1027.5" y="-130" font-family="Helvetica,sans-Serif" font-size="10.00">::syntaxSt</text>
</a>
</g>
</g>
<!-- Node3&#45;&gt;Node4 -->
<g id="edge4" class="edge">
<title>Node3&#45;&gt;Node4</title>
<path fill="none" stroke="midnightblue" d="M1121.19,-63.26C1120.79,-63.51 1120.4,-63.75 1120,-64 1090.39,-82.43 1057.45,-106.86 1040.32,-122.97"/>
<polygon fill="midnightblue" stroke="midnightblue" points="1123.01,-66.26 1129.81,-58.14 1119.43,-60.24 1123.01,-66.26"/>
</g>
<!-- Node4&#45;&gt;Node3 -->
<g id="edge5" class="edge">
<title>Node4&#45;&gt;Node3</title>
<path fill="none" stroke="midnightblue" d="M1067.35,-117.16C1083.35,-106.22 1102.27,-93.03 1120,-82 1133.21,-73.78 1148.84,-65.45 1160.14,-58.12"/>
<polygon fill="midnightblue" stroke="midnightblue" points="1065.08,-114.46 1058.78,-122.98 1069.02,-120.25 1065.08,-114.46"/>
</g>
<!-- Node5 -->
<g id="node5" class="node">
<title>Node5</title>
<g id="a_node5"><a xlink:href="../../d6/d00/class_pascal_syntax_analyzer.html#ada2725df1a0f0ca0aab5d02466661f01" target="_top" xlink:title=" ">
<polygon fill="none" stroke="black" points="822,-216 822,-246 935,-246 935,-216 822,-216"/>
<text text-anchor="start" x="830" y="-234" font-family="Helvetica,sans-Serif" font-size="10.00">PascalSyntaxAnalyzer</text>
<text text-anchor="middle" x="878.5" y="-223" font-family="Helvetica,sans-Serif" font-size="10.00">::syntaxIfSt</text>
</a>
</g>
</g>
<!-- Node4&#45;&gt;Node5 -->
<g id="edge6" class="edge">
<title>Node4&#45;&gt;Node5</title>
<path fill="none" stroke="midnightblue" d="M991.42,-159.37C974.93,-171.63 954.62,-186.58 935,-198 923.57,-204.65 909.94,-210.57 899.06,-215.94"/>
<polygon fill="midnightblue" stroke="midnightblue" points="993.73,-162.01 999.66,-153.23 989.55,-156.39 993.73,-162.01"/>
</g>
<!-- Node6 -->
<g id="node6" class="node">
<title>Node6</title>
<g id="a_node6"><a xlink:href="../../d6/d00/class_pascal_syntax_analyzer.html#acdfdfaf0ac3d4ed0be3e240ecc4ff535" target="_top" xlink:title=" ">
<polygon fill="none" stroke="black" points="822,-79 822,-109 935,-109 935,-79 822,-79"/>
<text text-anchor="start" x="830" y="-97" font-family="Helvetica,sans-Serif" font-size="10.00">PascalSyntaxAnalyzer</text>
<text text-anchor="middle" x="878.5" y="-86" font-family="Helvetica,sans-Serif" font-size="10.00">::syntaxStList</text>
</a>
</g>
</g>
<!-- Node4&#45;&gt;Node6 -->
<g id="edge8" class="edge">
<title>Node4&#45;&gt;Node6</title>
<path fill="none" stroke="midnightblue" d="M966.68,-120.1C954.49,-116.45 941.78,-112.64 929.95,-109.1"/>
<polygon fill="midnightblue" stroke="midnightblue" points="965.74,-123.47 976.32,-122.98 967.75,-116.76 965.74,-123.47"/>
</g>
<!-- Node13 -->
<g id="node13" class="node">
<title>Node13</title>
<g id="a_node13"><a xlink:href="../../d6/d00/class_pascal_syntax_analyzer.html#a1c3d21ae52633cd67f4a9d98305e303e" target="_top" xlink:title=" ">
<polygon fill="none" stroke="black" points="822,-167 822,-197 935,-197 935,-167 822,-167"/>
<text text-anchor="start" x="830" y="-185" font-family="Helvetica,sans-Serif" font-size="10.00">PascalSyntaxAnalyzer</text>
<text text-anchor="middle" x="878.5" y="-174" font-family="Helvetica,sans-Serif" font-size="10.00">::syntaxWhileSt</text>
</a>
</g>
</g>
<!-- Node4&#45;&gt;Node13 -->
<g id="edge17" class="edge">
<title>Node4&#45;&gt;Node13</title>
<path fill="none" stroke="midnightblue" d="M961.28,-150.81C943.76,-155.89 925.6,-161.68 910.85,-166.97"/>
<polygon fill="midnightblue" stroke="midnightblue" points="962.26,-154.17 970.93,-148.07 960.35,-147.44 962.26,-154.17"/>
</g>
<!-- Node5&#45;&gt;Node4 -->
<g id="edge7" class="edge">
<title>Node5&#45;&gt;Node4</title>
<path fill="none" stroke="midnightblue" d="M944.17,-210.45C972.57,-192.59 1000.94,-168.9 1015.83,-153.16"/>
<polygon fill="midnightblue" stroke="midnightblue" points="942.1,-207.61 935.37,-215.79 945.73,-213.59 942.1,-207.61"/>
</g>
<!-- Node7 -->
<g id="node7" class="node">
<title>Node7</title>
<g id="a_node7"><a xlink:href="../../d6/d00/class_pascal_syntax_analyzer.html#ada208f0427fef2e977e420bb5e87450a" target="_top" xlink:title=" ">
<polygon fill="none" stroke="black" points="673,-123 673,-153 786,-153 786,-123 673,-123"/>
<text text-anchor="start" x="681" y="-141" font-family="Helvetica,sans-Serif" font-size="10.00">PascalSyntaxAnalyzer</text>
<text text-anchor="middle" x="729.5" y="-130" font-family="Helvetica,sans-Serif" font-size="10.00">::syntaxCompoundSt</text>
</a>
</g>
</g>
<!-- Node6&#45;&gt;Node7 -->
<g id="edge9" class="edge">
<title>Node6&#45;&gt;Node7</title>
<path fill="none" stroke="midnightblue" d="M817.68,-111.9C805.49,-115.55 792.78,-119.36 780.95,-122.9"/>
<polygon fill="midnightblue" stroke="midnightblue" points="818.75,-115.24 827.32,-109.02 816.74,-108.53 818.75,-115.24"/>
</g>
<!-- Node7&#45;&gt;Node4 -->
<g id="edge16" class="edge">
<title>Node7&#45;&gt;Node4</title>
<path fill="none" stroke="midnightblue" d="M796.38,-138C848.78,-138 921.29,-138 970.82,-138"/>
<polygon fill="midnightblue" stroke="midnightblue" points="796.18,-134.5 786.18,-138 796.18,-141.5 796.18,-134.5"/>
</g>
<!-- Node8 -->
<g id="node8" class="node">
<title>Node8</title>
<g id="a_node8"><a xlink:href="../../d6/d00/class_pascal_syntax_analyzer.html#ab01912c3436af8d368fb00fc4f7362d7" target="_top" xlink:title=" ">
<polygon fill="none" stroke="black" points="524,-205 524,-235 637,-235 637,-205 524,-205"/>
<text text-anchor="start" x="532" y="-223" font-family="Helvetica,sans-Serif" font-size="10.00">PascalSyntaxAnalyzer</text>
<text text-anchor="middle" x="580.5" y="-212" font-family="Helvetica,sans-Serif" font-size="10.00">::syntaxBlock</text>
</a>
</g>
</g>
<!-- Node7&#45;&gt;Node8 -->
<g id="edge10" class="edge">
<title>Node7&#45;&gt;Node8</title>
<path fill="none" stroke="midnightblue" d="M692.75,-157.94C666.79,-172.42 632.22,-191.71 608.54,-204.92"/>
<polygon fill="midnightblue" stroke="midnightblue" points="694.51,-160.97 701.54,-153.04 691.1,-154.86 694.51,-160.97"/>
</g>
<!-- Node9 -->
<g id="node9" class="node">
<title>Node9</title>
<g id="a_node9"><a xlink:href="../../d6/d00/class_pascal_syntax_analyzer.html#afc7e8b0293dc9d194d6d8ebc708e1718" target="_top" xlink:title=" ">
<polygon fill="none" stroke="black" points="375,-183 375,-213 488,-213 488,-183 375,-183"/>
<text text-anchor="start" x="383" y="-201" font-family="Helvetica,sans-Serif" font-size="10.00">PascalSyntaxAnalyzer</text>
<text text-anchor="middle" x="431.5" y="-190" font-family="Helvetica,sans-Serif" font-size="10.00">::syntaxFuncDef</text>
</a>
</g>
</g>
<!-- Node8&#45;&gt;Node9 -->
<g id="edge11" class="edge">
<title>Node8&#45;&gt;Node9</title>
<path fill="none" stroke="midnightblue" d="M513.92,-210.19C505.32,-208.9 496.57,-207.59 488.15,-206.33"/>
<polygon fill="midnightblue" stroke="midnightblue" points="513.52,-213.66 523.93,-211.68 514.55,-206.74 513.52,-213.66"/>
</g>
<!-- Node10 -->
<g id="node10" class="node">
<title>Node10</title>
<g id="a_node10"><a xlink:href="../../d6/d00/class_pascal_syntax_analyzer.html#a99dc990814a355dae3fcb44cb42a1d2a" target="_top" xlink:title=" ">
<polygon fill="none" stroke="black" points="226,-205 226,-235 339,-235 339,-205 226,-205"/>
<text text-anchor="start" x="234" y="-223" font-family="Helvetica,sans-Serif" font-size="10.00">PascalSyntaxAnalyzer</text>
<text text-anchor="middle" x="282.5" y="-212" font-family="Helvetica,sans-Serif" font-size="10.00">::syntaxProgram</text>
</a>
</g>
</g>
<!-- Node8&#45;&gt;Node10 -->
<g id="edge15" class="edge">
<title>Node8&#45;&gt;Node10</title>
<path fill="none" stroke="midnightblue" d="M513.77,-222.41C505.1,-222.66 496.34,-222.86 488,-223 437.78,-223.82 425.22,-223.82 375,-223 363.4,-222.81 350.97,-222.48 339.14,-222.12"/>
<polygon fill="midnightblue" stroke="midnightblue" points="513.97,-225.91 523.86,-222.12 513.76,-218.91 513.97,-225.91"/>
</g>
<!-- Node9&#45;&gt;Node10 -->
<g id="edge12" class="edge">
<title>Node9&#45;&gt;Node10</title>
<path fill="none" stroke="midnightblue" d="M364.92,-207.81C356.32,-209.1 347.57,-210.41 339.15,-211.67"/>
<polygon fill="midnightblue" stroke="midnightblue" points="365.55,-211.26 374.93,-206.32 364.52,-204.34 365.55,-211.26"/>
</g>
<!-- Node11 -->
<g id="node11" class="node">
<title>Node11</title>
<g id="a_node11"><a xlink:href="../../d6/d00/class_pascal_syntax_analyzer.html#a5eb6b9f8834aefdea576873bd6d3ef28" target="_top" xlink:title="Синтаксический анализ токенов, переданных анализатору.">
<polygon fill="none" stroke="black" points="77,-205 77,-235 190,-235 190,-205 77,-205"/>
<text text-anchor="start" x="85" y="-223" font-family="Helvetica,sans-Serif" font-size="10.00">PascalSyntaxAnalyzer</text>
<text text-anchor="middle" x="133.5" y="-212" font-family="Helvetica,sans-Serif" font-size="10.00">::analyzeTokens</text>
</a>
</g>
</g>
<!-- Node10&#45;&gt;Node11 -->
<g id="edge13" class="edge">
<title>Node10&#45;&gt;Node11</title>
<path fill="none" stroke="midnightblue" d="M215.92,-220C207.32,-220 198.57,-220 190.15,-220"/>
<polygon fill="midnightblue" stroke="midnightblue" points="215.93,-223.5 225.93,-220 215.93,-216.5 215.93,-223.5"/>
</g>
<!-- Node12 -->
<g id="node12" class="node">
<title>Node12</title>
<g id="a_node12"><a xlink:href="../../db/df9/test_semantic_8cpp.html#a804faf7fd199a3c491020f1f2caa618b" target="_top" xlink:title="Тест семантического анализа Паскаля">
<polygon fill="none" stroke="black" points="0,-210.5 0,-229.5 41,-229.5 41,-210.5 0,-210.5"/>
<text text-anchor="middle" x="20.5" y="-217.5" font-family="Helvetica,sans-Serif" font-size="10.00">TEST</text>
</a>
</g>
</g>
<!-- Node11&#45;&gt;Node12 -->
<g id="edge14" class="edge">
<title>Node11&#45;&gt;Node12</title>
<path fill="none" stroke="midnightblue" d="M66.58,-220C57.37,-220 48.56,-220 41.21,-220"/>
<polygon fill="midnightblue" stroke="midnightblue" points="66.67,-223.5 76.67,-220 66.67,-216.5 66.67,-223.5"/>
</g>
<!-- Node13&#45;&gt;Node4 -->
<g id="edge18" class="edge">
<title>Node13&#45;&gt;Node4</title>
<path fill="none" stroke="midnightblue" d="M944.63,-169.22C962.11,-164.15 980.23,-158.37 994.96,-153.1"/>
<polygon fill="midnightblue" stroke="midnightblue" points="943.68,-165.85 935.01,-171.95 945.59,-172.58 943.68,-165.85"/>
</g>
<!-- Node15 -->
<g id="node15" class="node">
<title>Node15</title>
<g id="a_node15"><a xlink:href="../../d6/d00/class_pascal_syntax_analyzer.html#aca0a489432741e00e3d268ccd6452781" target="_top" xlink:title=" ">
<polygon fill="none" stroke="black" points="1865,-114 1865,-144 1978,-144 1978,-114 1865,-114"/>
<text text-anchor="start" x="1873" y="-132" font-family="Helvetica,sans-Serif" font-size="10.00">PascalSyntaxAnalyzer</text>
<text text-anchor="middle" x="1921.5" y="-121" font-family="Helvetica,sans-Serif" font-size="10.00">::syntaxSimpleExpr</text>
</a>
</g>
</g>
<!-- Node14&#45;&gt;Node15 -->
<g id="edge20" class="edge">
<title>Node14&#45;&gt;Node15</title>
<path fill="none" stroke="midnightblue" d="M2003.92,-129C1995.32,-129 1986.57,-129 1978.15,-129"/>
<polygon fill="midnightblue" stroke="midnightblue" points="2003.93,-132.5 2013.93,-129 2003.93,-125.5 2003.93,-132.5"/>
</g>
<!-- Node16 -->
<g id="node16" class="node">
<title>Node16</title>
<g id="a_node16"><a xlink:href="../../d6/d00/class_pascal_syntax_analyzer.html#ad459363d50d2dd23b8b0b2baee6be658" target="_top" xlink:title=" ">
<polygon fill="none" stroke="black" points="1716,-158 1716,-188 1829,-188 1829,-158 1716,-158"/>
<text text-anchor="start" x="1724" y="-176" font-family="Helvetica,sans-Serif" font-size="10.00">PascalSyntaxAnalyzer</text>
<text text-anchor="middle" x="1772.5" y="-165" font-family="Helvetica,sans-Serif" font-size="10.00">::syntaxExpr</text>
</a>
</g>
</g>
<!-- Node15&#45;&gt;Node16 -->
<g id="edge21" class="edge">
<title>Node15&#45;&gt;Node16</title>
<path fill="none" stroke="midnightblue" d="M1860.68,-146.9C1848.49,-150.55 1835.78,-154.36 1823.95,-157.9"/>
<polygon fill="midnightblue" stroke="midnightblue" points="1861.75,-150.24 1870.32,-144.02 1859.74,-143.53 1861.75,-150.24"/>
</g>
<!-- Node16&#45;&gt;Node1 -->
<g id="edge31" class="edge">
<title>Node16&#45;&gt;Node1</title>
<path fill="none" stroke="midnightblue" d="M1839.46,-180.67C1912.24,-186.6 2031.66,-188.79 2127,-154 2158.21,-142.61 2187.64,-116.72 2204.33,-100.09"/>
<polygon fill="midnightblue" stroke="midnightblue" points="1839.34,-177.14 1829.07,-179.77 1838.74,-184.12 1839.34,-177.14"/>
</g>
<!-- Node16&#45;&gt;Node5 -->
<g id="edge32" class="edge">
<title>Node16&#45;&gt;Node5</title>
<path fill="none" stroke="midnightblue" d="M1733.42,-192.55C1717.29,-200.17 1698.07,-208.41 1680,-214 1591.76,-241.31 1567.86,-251 1475.5,-251 1475.5,-251 1475.5,-251 1175.5,-251 1091.55,-251 994.5,-242.89 935.07,-237"/>
<polygon fill="midnightblue" stroke="midnightblue" points="1735.05,-195.65 1742.53,-188.16 1732.01,-189.35 1735.05,-195.65"/>
</g>
<!-- Node16&#45;&gt;Node13 -->
<g id="edge38" class="edge">
<title>Node16&#45;&gt;Node13</title>
<path fill="none" stroke="midnightblue" d="M1705.83,-187.02C1646.08,-198.55 1555.28,-213 1475.5,-213 1475.5,-213 1475.5,-213 1175.5,-213 1091.41,-213 994.6,-200.47 935.24,-191.34"/>
<polygon fill="midnightblue" stroke="midnightblue" points="1706.74,-190.41 1715.88,-185.06 1705.4,-183.54 1706.74,-190.41"/>
</g>
<!-- Node17 -->
<g id="node17" class="node">
<title>Node17</title>
<g id="a_node17"><a xlink:href="../../d6/d00/class_pascal_syntax_analyzer.html#a1483de526ade4687ddb1d1c0c804b15c" target="_top" xlink:title=" ">
<polygon fill="none" stroke="black" points="1418,-48 1418,-78 1531,-78 1531,-48 1418,-48"/>
<text text-anchor="start" x="1426" y="-66" font-family="Helvetica,sans-Serif" font-size="10.00">PascalSyntaxAnalyzer</text>
<text text-anchor="middle" x="1474.5" y="-55" font-family="Helvetica,sans-Serif" font-size="10.00">::syntaxAssignSt</text>
</a>
</g>
</g>
<!-- Node16&#45;&gt;Node17 -->
<g id="edge22" class="edge">
<title>Node16&#45;&gt;Node17</title>
<path fill="none" stroke="midnightblue" d="M1706.07,-159.76C1665.18,-150.35 1611.94,-136.01 1567,-117 1541.86,-106.36 1515.2,-89.98 1497.19,-78.04"/>
<polygon fill="midnightblue" stroke="midnightblue" points="1705.39,-163.19 1715.92,-161.98 1706.93,-156.37 1705.39,-163.19"/>
</g>
<!-- Node18 -->
<g id="node18" class="node">
<title>Node18</title>
<g id="a_node18"><a xlink:href="../../d6/d00/class_pascal_syntax_analyzer.html#a17fc2ae65eb01ca8a797c5af969eebae" target="_top" xlink:title=" ">
<polygon fill="none" stroke="black" points="1567,-78 1567,-108 1680,-108 1680,-78 1567,-78"/>
<text text-anchor="start" x="1575" y="-96" font-family="Helvetica,sans-Serif" font-size="10.00">PascalSyntaxAnalyzer</text>
<text text-anchor="middle" x="1623.5" y="-85" font-family="Helvetica,sans-Serif" font-size="10.00">::syntaxCallSt</text>
</a>
</g>
</g>
<!-- Node16&#45;&gt;Node18 -->
<g id="edge25" class="edge">
<title>Node16&#45;&gt;Node18</title>
<path fill="none" stroke="midnightblue" d="M1734.97,-152.99C1718.23,-143.83 1698.12,-132.85 1680,-123 1671.05,-118.14 1661.28,-112.85 1652.46,-108.08"/>
<polygon fill="midnightblue" stroke="midnightblue" points="1733.44,-156.14 1743.89,-157.87 1736.8,-150 1733.44,-156.14"/>
</g>
<!-- Node19 -->
<g id="node19" class="node">
<title>Node19</title>
<g id="a_node19"><a xlink:href="../../d6/d00/class_pascal_syntax_analyzer.html#aa85cd72cb0382779d740d228fbeaa8da" target="_top" xlink:title=" ">
<polygon fill="none" stroke="black" points="1567,-280 1567,-310 1680,-310 1680,-280 1567,-280"/>
<text text-anchor="start" x="1575" y="-298" font-family="Helvetica,sans-Serif" font-size="10.00">PascalSyntaxAnalyzer</text>
<text text-anchor="middle" x="1623.5" y="-287" font-family="Helvetica,sans-Serif" font-size="10.00">::syntaxConstDecl</text>
</a>
</g>
</g>
<!-- Node16&#45;&gt;Node19 -->
<g id="edge28" class="edge">
<title>Node16&#45;&gt;Node19</title>
<path fill="none" stroke="midnightblue" d="M1752.37,-195.7C1734.87,-215.56 1707.59,-244.38 1680,-265 1672.72,-270.44 1664.32,-275.51 1656.3,-279.87"/>
<polygon fill="midnightblue" stroke="midnightblue" points="1755.1,-197.89 1759.01,-188.05 1749.81,-193.3 1755.1,-197.89"/>
</g>
<!-- Node21 -->
<g id="node21" class="node">
<title>Node21</title>
<g id="a_node21"><a xlink:href="../../d6/d00/class_pascal_syntax_analyzer.html#a64ecaf3b371cf72ffcc81058e27ee463" target="_top" xlink:title=" ">
<polygon fill="none" stroke="black" points="1269,-154 1269,-184 1382,-184 1382,-154 1269,-154"/>
<text text-anchor="start" x="1277" y="-172" font-family="Helvetica,sans-Serif" font-size="10.00">PascalSyntaxAnalyzer</text>
<text text-anchor="middle" x="1325.5" y="-161" font-family="Helvetica,sans-Serif" font-size="10.00">::syntaxReturnSt</text>
</a>
</g>
</g>
<!-- Node16&#45;&gt;Node21 -->
<g id="edge33" class="edge">
<title>Node16&#45;&gt;Node21</title>
<path fill="none" stroke="midnightblue" d="M1705.49,-172.41C1617.78,-171.62 1464.34,-170.24 1382.18,-169.5"/>
<polygon fill="midnightblue" stroke="midnightblue" points="1705.56,-175.91 1715.59,-172.5 1705.62,-168.91 1705.56,-175.91"/>
</g>
<!-- Node22 -->
<g id="node22" class="node">
<title>Node22</title>
<g id="a_node22"><a xlink:href="../../d6/d00/class_pascal_syntax_analyzer.html#ae443cbc65ec18c6277b095da042ec7a2" target="_top" xlink:title=" ">
<polygon fill="none" stroke="black" points="1567,-29 1567,-59 1680,-59 1680,-29 1567,-29"/>
<text text-anchor="start" x="1575" y="-47" font-family="Helvetica,sans-Serif" font-size="10.00">PascalSyntaxAnalyzer</text>
<text text-anchor="middle" x="1623.5" y="-36" font-family="Helvetica,sans-Serif" font-size="10.00">::syntaxSelect</text>
</a>
</g>
</g>
<!-- Node16&#45;&gt;Node22 -->
<g id="edge35" class="edge">
<title>Node16&#45;&gt;Node22</title>
<path fill="none" stroke="midnightblue" d="M1755.88,-149.62C1739.34,-126.35 1711.33,-90.9 1680,-68 1675.51,-64.72 1670.5,-61.77 1665.37,-59.15"/>
<polygon fill="midnightblue" stroke="midnightblue" points="1753.05,-151.69 1761.64,-157.89 1758.8,-147.69 1753.05,-151.69"/>
</g>
<!-- Node17&#45;&gt;Node2 -->
<g id="edge23" class="edge">
<title>Node17&#45;&gt;Node2</title>
<path fill="none" stroke="midnightblue" d="M1407.92,-54.08C1399.32,-52.91 1390.57,-51.72 1382.15,-50.57"/>
<polygon fill="midnightblue" stroke="midnightblue" points="1407.55,-57.56 1417.93,-55.44 1408.49,-50.62 1407.55,-57.56"/>
</g>
<!-- Node17&#45;&gt;Node4 -->
<g id="edge24" class="edge">
<title>Node17&#45;&gt;Node4</title>
<path fill="none" stroke="midnightblue" d="M1407.75,-68.91C1336.37,-76.02 1219.28,-89.74 1120,-111 1105.1,-114.19 1089.09,-118.57 1074.7,-122.88"/>
<polygon fill="midnightblue" stroke="midnightblue" points="1408.33,-72.37 1417.94,-67.91 1407.65,-65.4 1408.33,-72.37"/>
</g>
<!-- Node18&#45;&gt;Node1 -->
<g id="edge26" class="edge">
<title>Node18&#45;&gt;Node1</title>
<path fill="none" stroke="midnightblue" d="M1690.62,-92.11C1808.53,-90.52 2053,-87.23 2162.88,-85.75"/>
<polygon fill="midnightblue" stroke="midnightblue" points="1690.25,-88.61 1680.3,-92.25 1690.34,-95.61 1690.25,-88.61"/>
</g>
<!-- Node18&#45;&gt;Node4 -->
<g id="edge27" class="edge">
<title>Node18&#45;&gt;Node4</title>
<path fill="none" stroke="midnightblue" d="M1556.58,-97.99C1438.81,-106.92 1194.33,-125.44 1084.3,-133.77"/>
<polygon fill="midnightblue" stroke="midnightblue" points="1557.18,-101.46 1566.88,-97.21 1556.65,-94.48 1557.18,-101.46"/>
</g>
<!-- Node20 -->
<g id="node20" class="node">
<title>Node20</title>
<g id="a_node20"><a xlink:href="../../d6/d00/class_pascal_syntax_analyzer.html#aa73dd3ea39d6257f4113757061233534" target="_top" xlink:title=" ">
<polygon fill="none" stroke="black" points="1120,-280 1120,-310 1233,-310 1233,-280 1120,-280"/>
<text text-anchor="start" x="1128" y="-298" font-family="Helvetica,sans-Serif" font-size="10.00">PascalSyntaxAnalyzer</text>
<text text-anchor="middle" x="1176.5" y="-287" font-family="Helvetica,sans-Serif" font-size="10.00">::syntaxConsts</text>
</a>
</g>
</g>
<!-- Node19&#45;&gt;Node20 -->
<g id="edge29" class="edge">
<title>Node19&#45;&gt;Node20</title>
<path fill="none" stroke="midnightblue" d="M1556.49,-295C1468.78,-295 1315.34,-295 1233.18,-295"/>
<polygon fill="midnightblue" stroke="midnightblue" points="1556.59,-298.5 1566.59,-295 1556.59,-291.5 1556.59,-298.5"/>
</g>
<!-- Node20&#45;&gt;Node8 -->
<g id="edge30" class="edge">
<title>Node20&#45;&gt;Node8</title>
<path fill="none" stroke="midnightblue" d="M1109.55,-288.49C1038.48,-281.3 922.09,-269.01 822,-256 758.57,-247.76 685.99,-236.66 637.3,-228.98"/>
<polygon fill="midnightblue" stroke="midnightblue" points="1109.4,-292 1119.7,-289.52 1110.11,-285.03 1109.4,-292"/>
</g>
<!-- Node21&#45;&gt;Node4 -->
<g id="edge34" class="edge">
<title>Node21&#45;&gt;Node4</title>
<path fill="none" stroke="midnightblue" d="M1258.62,-162.1C1206.22,-156.61 1133.71,-149.02 1084.18,-143.83"/>
<polygon fill="midnightblue" stroke="midnightblue" points="1258.51,-165.61 1268.82,-163.17 1259.24,-158.65 1258.51,-165.61"/>
</g>
<!-- Node22&#45;&gt;Node1 -->
<g id="edge37" class="edge">
<title>Node22&#45;&gt;Node1</title>
<path fill="none" stroke="midnightblue" d="M1690.62,-48.56C1808.53,-56.7 2053,-73.58 2162.88,-81.16"/>
<polygon fill="midnightblue" stroke="midnightblue" points="1690.51,-45.05 1680.3,-47.85 1690.03,-52.03 1690.51,-45.05"/>
</g>
<!-- Node22&#45;&gt;Node17 -->
<g id="edge36" class="edge">
<title>Node22&#45;&gt;Node17</title>
<path fill="none" stroke="midnightblue" d="M1556.92,-52.48C1548.32,-53.59 1539.57,-54.72 1531.15,-55.81"/>
<polygon fill="midnightblue" stroke="midnightblue" points="1557.46,-55.94 1566.93,-51.18 1556.56,-48.99 1557.46,-55.94"/>
</g>
</g>
</svg>
