<?xml version="1.0" encoding="UTF-8" standalone="no"?>
<!DOCTYPE svg PUBLIC "-//W3C//DTD SVG 1.1//EN"
 "http://www.w3.org/Graphics/SVG/1.1/DTD/svg11.dtd">
<!-- Generated by graphviz version 3.0.0 (20220413.0106)
 -->
<!-- Title: PascalSyntaxAnalyzer::syntaxVarDecl Pages: 1 -->
<svg width="943pt" height="83pt"
 viewBox="0.00 0.00 943.00 83.00" xmlns="http://www.w3.org/2000/svg" xmlns:xlink="http://www.w3.org/1999/xlink">
<g id="graph0" class="graph" transform="scale(1 1) rotate(0) translate(4 79)">
<title>PascalSyntaxAnalyzer::syntaxVarDecl</title>
<!-- Node1 -->
<g id="node1" class="node">
<title>Node1</title>
<g id="a_node1"><a xlink:title=" ">
<polygon fill="#bfbfbf" stroke="black" points="822,-22.5 822,-52.5 935,-52.5 935,-22.5 822,-22.5"/>
<text text-anchor="start" x="830" y="-40.5" font-family="Helvetica,sans-Serif" font-size="10.00">PascalSyntaxAnalyzer</text>
<text text-anchor="middle" x="878.5" y="-29.5" font-family="Helvetica,sans-Serif" font-size="10.00">::syntaxVarDecl</text>
</a>
</g>
</g>
<!-- Node2 -->
<g id="node2" class="node">
<title>Node2</title>
<g id="a_node2"><a xlink:href="../../d6/d00/class_pascal_syntax_analyzer.html#afc7e8b0293dc9d194d6d8ebc708e1718" target="_top" xlink:title=" ">
<polygon fill="none" stroke="black" points="375,-44.5 375,-74.5 488,-74.5 488,-44.5 375,-44.5"/>
<text text-anchor="start" x="383" y="-62.5" font-family="Helvetica,sans-Serif" font-size="10.00">PascalSyntaxAnalyzer</text>
<text text-anchor="middle" x="431.5" y="-51.5" font-family="Helvetica,sans-Serif" font-size="10.00">::syntaxFuncDef</text>
</a>
</g>
</g>
<!-- Node1&#45;&gt;Node2 -->
<g id="edge1" class="edge">
<title>Node1&#45;&gt;Node2</title>
<path fill="none" stroke="midnightblue" d="M811.49,-40.76C723.78,-45.1 570.34,-52.69 488.18,-56.75"/>
<polygon fill="midnightblue" stroke="midnightblue" points="811.78,-44.25 821.59,-40.26 811.43,-37.26 811.78,-44.25"/>
</g>
<!-- Node6 -->
<g id="node6" class="node">
<title>Node6</title>
<g id="a_node6"><a xlink:href="../../d6/d00/class_pascal_syntax_analyzer.html#a22068acd135646a22afaa40d098742ed" target="_top" xlink:title=" ">
<polygon fill="none" stroke="black" points="673,-0.5 673,-30.5 786,-30.5 786,-0.5 673,-0.5"/>
<text text-anchor="start" x="681" y="-18.5" font-family="Helvetica,sans-Serif" font-size="10.00">PascalSyntaxAnalyzer</text>
<text text-anchor="middle" x="729.5" y="-7.5" font-family="Helvetica,sans-Serif" font-size="10.00">::syntaxVars</text>
</a>
</g>
</g>
<!-- Node1&#45;&gt;Node6 -->
<g id="edge5" class="edge">
<title>Node1&#45;&gt;Node6</title>
<path fill="none" stroke="midnightblue" d="M811.92,-27.69C803.32,-26.4 794.57,-25.09 786.15,-23.83"/>
<polygon fill="midnightblue" stroke="midnightblue" points="811.52,-31.16 821.93,-29.18 812.55,-24.24 811.52,-31.16"/>
</g>
<!-- Node3 -->
<g id="node3" class="node">
<title>Node3</title>
<g id="a_node3"><a xlink:href="../../d6/d00/class_pascal_syntax_analyzer.html#a99dc990814a355dae3fcb44cb42a1d2a" target="_top" xlink:title=" ">
<polygon fill="none" stroke="black" points="226,-22.5 226,-52.5 339,-52.5 339,-22.5 226,-22.5"/>
<text text-anchor="start" x="234" y="-40.5" font-family="Helvetica,sans-Serif" font-size="10.00">PascalSyntaxAnalyzer</text>
<text text-anchor="middle" x="282.5" y="-29.5" font-family="Helvetica,sans-Serif" font-size="10.00">::syntaxProgram</text>
</a>
</g>
</g>
<!-- Node2&#45;&gt;Node3 -->
<g id="edge2" class="edge">
<title>Node2&#45;&gt;Node3</title>
<path fill="none" stroke="midnightblue" d="M364.92,-49.69C356.32,-48.4 347.57,-47.09 339.15,-45.83"/>
<polygon fill="midnightblue" stroke="midnightblue" points="364.52,-53.16 374.93,-51.18 365.55,-46.24 364.52,-53.16"/>
</g>
<!-- Node4 -->
<g id="node4" class="node">
<title>Node4</title>
<g id="a_node4"><a xlink:href="../../d6/d00/class_pascal_syntax_analyzer.html#a5eb6b9f8834aefdea576873bd6d3ef28" target="_top" xlink:title="Синтаксический анализ токенов, переданных анализатору.">
<polygon fill="none" stroke="black" points="77,-22.5 77,-52.5 190,-52.5 190,-22.5 77,-22.5"/>
<text text-anchor="start" x="85" y="-40.5" font-family="Helvetica,sans-Serif" font-size="10.00">PascalSyntaxAnalyzer</text>
<text text-anchor="middle" x="133.5" y="-29.5" font-family="Helvetica,sans-Serif" font-size="10.00">::analyzeTokens</text>
</a>
</g>
</g>
<!-- Node3&#45;&gt;Node4 -->
<g id="edge3" class="edge">
<title>Node3&#45;&gt;Node4</title>
<path fill="none" stroke="midnightblue" d="M215.92,-37.5C207.32,-37.5 198.57,-37.5 190.15,-37.5"/>
<polygon fill="midnightblue" stroke="midnightblue" points="215.93,-41 225.93,-37.5 215.93,-34 215.93,-41"/>
</g>
<!-- Node5 -->
<g id="node5" class="node">
<title>Node5</title>
<g id="a_node5"><a xlink:href="../../db/df9/test_semantic_8cpp.html#a804faf7fd199a3c491020f1f2caa618b" target="_top" xlink:title="Тест семантического анализа Паскаля">
<polygon fill="none" stroke="black" points="0,-28 0,-47 41,-47 41,-28 0,-28"/>
<text text-anchor="middle" x="20.5" y="-35" font-family="Helvetica,sans-Serif" font-size="10.00">TEST</text>
</a>
</g>
</g>
<!-- Node4&#45;&gt;Node5 -->
<g id="edge4" class="edge">
<title>Node4&#45;&gt;Node5</title>
<path fill="none" stroke="midnightblue" d="M66.58,-37.5C57.37,-37.5 48.56,-37.5 41.21,-37.5"/>
<polygon fill="midnightblue" stroke="midnightblue" points="66.67,-41 76.67,-37.5 66.67,-34 66.67,-41"/>
</g>
<!-- Node7 -->
<g id="node7" class="node">
<title>Node7</title>
<g id="a_node7"><a xlink:href="../../d6/d00/class_pascal_syntax_analyzer.html#ab01912c3436af8d368fb00fc4f7362d7" target="_top" xlink:title=" ">
<polygon fill="none" stroke="black" points="524,-0.5 524,-30.5 637,-30.5 637,-0.5 524,-0.5"/>
<text text-anchor="start" x="532" y="-18.5" font-family="Helvetica,sans-Serif" font-size="10.00">PascalSyntaxAnalyzer</text>
<text text-anchor="middle" x="580.5" y="-7.5" font-family="Helvetica,sans-Serif" font-size="10.00">::syntaxBlock</text>
</a>
</g>
</g>
<!-- Node6&#45;&gt;Node7 -->
<g id="edge6" class="edge">
<title>Node6&#45;&gt;Node7</title>
<path fill="none" stroke="midnightblue" d="M662.92,-15.5C654.32,-15.5 645.57,-15.5 637.15,-15.5"/>
<polygon fill="midnightblue" stroke="midnightblue" points="662.93,-19 672.93,-15.5 662.93,-12 662.93,-19"/>
</g>
<!-- Node7&#45;&gt;Node2 -->
<g id="edge7" class="edge">
<title>Node7&#45;&gt;Node2</title>
<path fill="none" stroke="midnightblue" d="M519.68,-33.4C507.49,-37.05 494.78,-40.86 482.95,-44.4"/>
<polygon fill="midnightblue" stroke="midnightblue" points="520.75,-36.74 529.32,-30.52 518.74,-30.03 520.75,-36.74"/>
</g>
<!-- Node7&#45;&gt;Node3 -->
<g id="edge8" class="edge">
<title>Node7&#45;&gt;Node3</title>
<path fill="none" stroke="midnightblue" d="M513.62,-20.4C461.22,-24.29 388.71,-29.68 339.18,-33.36"/>
<polygon fill="midnightblue" stroke="midnightblue" points="514.11,-23.87 523.82,-19.64 513.59,-16.89 514.11,-23.87"/>
</g>
</g>
</svg>
