<?xml version="1.0" encoding="UTF-8" standalone="no"?>
<!DOCTYPE svg PUBLIC "-//W3C//DTD SVG 1.1//EN"
 "http://www.w3.org/Graphics/SVG/1.1/DTD/svg11.dtd">
<!-- Generated by graphviz version 3.0.0 (20220413.0106)
 -->
<!-- Title: PascalSyntaxAnalyzer::syntaxForSt Pages: 1 -->
<svg width="1787pt" height="2046pt"
 viewBox="0.00 0.00 1787.00 2045.60" xmlns="http://www.w3.org/2000/svg" xmlns:xlink="http://www.w3.org/1999/xlink">
<g id="graph0" class="graph" transform="scale(1 1) rotate(0) translate(4 2041.6)">
<title>PascalSyntaxAnalyzer::syntaxForSt</title>
<!-- Node1 -->
<g id="node1" class="node">
<title>Node1</title>
<g id="a_node1"><a xlink:title=" ">
<polygon fill="#bfbfbf" stroke="black" points="0,-626.87 0,-656.87 113,-656.87 113,-626.87 0,-626.87"/>
<text text-anchor="start" x="8" y="-644.87" font-family="Helvetica,sans-Serif" font-size="10.00">PascalSyntaxAnalyzer</text>
<text text-anchor="middle" x="56.5" y="-633.87" font-family="Helvetica,sans-Serif" font-size="10.00">::syntaxForSt</text>
</a>
</g>
</g>
<!-- Node2 -->
<g id="node2" class="node">
<title>Node2</title>
<g id="a_node2"><a xlink:href="../../d7/d7c/class_a_s_t_factory.html#a31d959009ba9e91a58a5c15e986d130b" target="_top" xlink:title=" ">
<polygon fill="none" stroke="black" points="1347,-1525.37 1347,-1544.37 1466,-1544.37 1466,-1525.37 1347,-1525.37"/>
<text text-anchor="middle" x="1406.5" y="-1532.37" font-family="Helvetica,sans-Serif" font-size="10.00">ASTFactory::createAST</text>
</a>
</g>
</g>
<!-- Node1&#45;&gt;Node2 -->
<g id="edge1" class="edge">
<title>Node1&#45;&gt;Node2</title>
<path fill="none" stroke="midnightblue" d="M57.77,-656.99C60.24,-787.17 80.18,-1716.44 149,-1816.87 205.98,-1900 252.71,-1914.87 353.5,-1914.87 353.5,-1914.87 353.5,-1914.87 1100.5,-1914.87 1192.86,-1914.87 1236.32,-1939.62 1305,-1877.87 1402.33,-1790.35 1407.5,-1614.18 1406.3,-1554.87"/>
<polygon fill="midnightblue" stroke="midnightblue" points="1409.79,-1554.52 1406,-1544.63 1402.8,-1554.73 1409.79,-1554.52"/>
</g>
<!-- Node11 -->
<g id="node11" class="node">
<title>Node11</title>
<g id="a_node11"><a xlink:href="../../d6/d00/class_pascal_syntax_analyzer.html#aa5eea5fe502fc1d029ed7eea6af2b4a0" target="_top" xlink:title="Пропускает текущий токен, если он указанного типа. Иначе выбрасывается исключение">
<polygon fill="none" stroke="black" points="1341,-520.37 1341,-539.37 1472,-539.37 1472,-520.37 1341,-520.37"/>
<text text-anchor="middle" x="1406.5" y="-527.37" font-family="Helvetica,sans-Serif" font-size="10.00">PascalSyntaxAnalyzer::eat</text>
</a>
</g>
</g>
<!-- Node1&#45;&gt;Node11 -->
<g id="edge12" class="edge">
<title>Node1&#45;&gt;Node11</title>
<path fill="none" stroke="midnightblue" d="M58.78,-626.72C65.18,-553.45 95.61,-236.1 149,-154.87 209.22,-63.24 243.85,-16.87 353.5,-16.87 353.5,-16.87 353.5,-16.87 802.5,-16.87 1028.86,-16.87 1139.75,54.83 1305,-99.87 1366.49,-157.43 1396.46,-432.94 1403.72,-509.87"/>
<polygon fill="midnightblue" stroke="midnightblue" points="1400.26,-510.46 1404.66,-520.1 1407.23,-509.82 1400.26,-510.46"/>
</g>
<!-- Node12 -->
<g id="node12" class="node">
<title>Node12</title>
<g id="a_node12"><a xlink:href="../../d6/d00/class_pascal_syntax_analyzer.html#a80fd2f225d07e698794427925fe6473b" target="_top" xlink:title=" ">
<polygon fill="none" stroke="black" points="1508,-868.87 1508,-898.87 1621,-898.87 1621,-868.87 1508,-868.87"/>
<text text-anchor="start" x="1516" y="-886.87" font-family="Helvetica,sans-Serif" font-size="10.00">PascalSyntaxAnalyzer</text>
<text text-anchor="middle" x="1564.5" y="-875.87" font-family="Helvetica,sans-Serif" font-size="10.00">::getCurTok</text>
</a>
</g>
</g>
<!-- Node1&#45;&gt;Node12 -->
<g id="edge15" class="edge">
<title>Node1&#45;&gt;Node12</title>
<path fill="none" stroke="midnightblue" d="M59.35,-626.66C70.12,-545.7 132.15,-168.87 353.5,-168.87 353.5,-168.87 353.5,-168.87 802.5,-168.87 1109.28,-168.87 1288.77,-90.81 1472,-336.87 1515,-394.61 1495.35,-587.98 1508,-658.87 1521.13,-732.47 1544.44,-817.77 1556.24,-859"/>
<polygon fill="midnightblue" stroke="midnightblue" points="1552.91,-860.09 1559.04,-868.73 1559.63,-858.16 1552.91,-860.09"/>
</g>
<!-- Node14 -->
<g id="node14" class="node">
<title>Node14</title>
<g id="a_node14"><a xlink:href="../../d6/d00/class_pascal_syntax_analyzer.html#a2c49546e46d84e7785ef131a1cfc7ff7" target="_top" xlink:title=" ">
<polygon fill="none" stroke="black" points="149,-1776.87 149,-1806.87 262,-1806.87 262,-1776.87 149,-1776.87"/>
<text text-anchor="start" x="157" y="-1794.87" font-family="Helvetica,sans-Serif" font-size="10.00">PascalSyntaxAnalyzer</text>
<text text-anchor="middle" x="205.5" y="-1783.87" font-family="Helvetica,sans-Serif" font-size="10.00">::syntaxIter</text>
</a>
</g>
</g>
<!-- Node1&#45;&gt;Node14 -->
<g id="edge16" class="edge">
<title>Node1&#45;&gt;Node14</title>
<path fill="none" stroke="midnightblue" d="M59.47,-657.25C75.25,-780.76 181.26,-1610.06 201.25,-1766.45"/>
<polygon fill="midnightblue" stroke="midnightblue" points="197.8,-1767.06 202.54,-1776.53 204.74,-1766.17 197.8,-1767.06"/>
</g>
<!-- Node28 -->
<g id="node28" class="node">
<title>Node28</title>
<g id="a_node28"><a xlink:href="../../d6/d00/class_pascal_syntax_analyzer.html#af92e2fd2112e0b98c1d419e9068ffd49" target="_top" xlink:title=" ">
<polygon fill="none" stroke="black" points="149,-626.87 149,-656.87 262,-656.87 262,-626.87 149,-626.87"/>
<text text-anchor="start" x="157" y="-644.87" font-family="Helvetica,sans-Serif" font-size="10.00">PascalSyntaxAnalyzer</text>
<text text-anchor="middle" x="205.5" y="-633.87" font-family="Helvetica,sans-Serif" font-size="10.00">::syntaxSt</text>
</a>
</g>
</g>
<!-- Node1&#45;&gt;Node28 -->
<g id="edge79" class="edge">
<title>Node1&#45;&gt;Node28</title>
<path fill="none" stroke="midnightblue" d="M113.07,-635.3C121.49,-635.12 130.24,-635.07 138.84,-635.15"/>
<polygon fill="midnightblue" stroke="midnightblue" points="138.8,-638.65 148.85,-635.3 138.9,-631.65 138.8,-638.65"/>
</g>
<!-- Node3 -->
<g id="node3" class="node">
<title>Node3</title>
<g id="a_node3"><a xlink:href="../../dd/dfe/class_base_token.html#a800db3c8e8a3e81d20e85206cd5b2927" target="_top" xlink:title=" ">
<polygon fill="none" stroke="black" points="1657,-1601.37 1657,-1620.37 1779,-1620.37 1779,-1601.37 1657,-1601.37"/>
<text text-anchor="middle" x="1718" y="-1608.37" font-family="Helvetica,sans-Serif" font-size="10.00">BaseToken::getAdvType</text>
</a>
</g>
</g>
<!-- Node2&#45;&gt;Node3 -->
<g id="edge2" class="edge">
<title>Node2&#45;&gt;Node3</title>
<path fill="none" stroke="midnightblue" d="M1446.39,-1544.41C1502.67,-1558.24 1606.82,-1583.81 1668.19,-1598.88"/>
<polygon fill="midnightblue" stroke="midnightblue" points="1667.48,-1602.31 1678.03,-1601.3 1669.15,-1595.51 1667.48,-1602.31"/>
</g>
<!-- Node4 -->
<g id="node4" class="node">
<title>Node4</title>
<g id="a_node4"><a xlink:href="../../db/dc1/class_token.html#ab9a75d3f89e77051d87462654e7576de" target="_top" xlink:title=" ">
<polygon fill="none" stroke="black" points="1525.5,-1525.37 1525.5,-1544.37 1603.5,-1544.37 1603.5,-1525.37 1525.5,-1525.37"/>
<text text-anchor="middle" x="1564.5" y="-1532.37" font-family="Helvetica,sans-Serif" font-size="10.00">Token::getInfo</text>
</a>
</g>
</g>
<!-- Node2&#45;&gt;Node4 -->
<g id="edge3" class="edge">
<title>Node2&#45;&gt;Node4</title>
<path fill="none" stroke="midnightblue" d="M1466.03,-1534.87C1482.19,-1534.87 1499.54,-1534.87 1515.05,-1534.87"/>
<polygon fill="midnightblue" stroke="midnightblue" points="1515.46,-1538.37 1525.46,-1534.87 1515.46,-1531.37 1515.46,-1538.37"/>
</g>
<!-- Node6 -->
<g id="node6" class="node">
<title>Node6</title>
<g id="a_node6"><a xlink:href="../../dd/dfe/class_base_token.html#adf680862efcd78640cb9442b6918dd4d" target="_top" xlink:title="Получение типа токена">
<polygon fill="none" stroke="black" points="1665.5,-1297.37 1665.5,-1316.37 1770.5,-1316.37 1770.5,-1297.37 1665.5,-1297.37"/>
<text text-anchor="middle" x="1718" y="-1304.37" font-family="Helvetica,sans-Serif" font-size="10.00">BaseToken::getType</text>
</a>
</g>
</g>
<!-- Node2&#45;&gt;Node6 -->
<g id="edge10" class="edge">
<title>Node2&#45;&gt;Node6</title>
<path fill="none" stroke="midnightblue" d="M1416.39,-1525.33C1433.29,-1507.47 1471.64,-1468.2 1508,-1439.87 1570,-1391.55 1650,-1344.43 1690.69,-1321.43"/>
<polygon fill="midnightblue" stroke="midnightblue" points="1692.46,-1324.45 1699.46,-1316.5 1689.03,-1318.35 1692.46,-1324.45"/>
</g>
<!-- Node10 -->
<g id="node10" class="node">
<title>Node10</title>
<g id="a_node10"><a xlink:href="../../db/dc1/class_token.html#a1f07fa2fffeb2f7ab803ef8b424eae8a" target="_top" xlink:title=" ">
<polygon fill="none" stroke="black" points="1527.5,-1449.37 1527.5,-1468.37 1601.5,-1468.37 1601.5,-1449.37 1527.5,-1449.37"/>
<text text-anchor="middle" x="1564.5" y="-1456.37" font-family="Helvetica,sans-Serif" font-size="10.00">Token::setStr</text>
</a>
</g>
</g>
<!-- Node2&#45;&gt;Node10 -->
<g id="edge11" class="edge">
<title>Node2&#45;&gt;Node10</title>
<path fill="none" stroke="midnightblue" d="M1425.1,-1525.28C1445.02,-1514.56 1478.53,-1496.84 1508,-1482.87 1515.4,-1479.36 1523.45,-1475.75 1531.06,-1472.44"/>
<polygon fill="midnightblue" stroke="midnightblue" points="1532.58,-1475.6 1540.39,-1468.44 1529.82,-1469.17 1532.58,-1475.6"/>
</g>
<!-- Node4&#45;&gt;Node3 -->
<g id="edge4" class="edge">
<title>Node4&#45;&gt;Node3</title>
<path fill="none" stroke="midnightblue" d="M1592.4,-1544.38C1601.79,-1548.25 1612.19,-1553.16 1621,-1558.87 1639.21,-1570.67 1638.21,-1581 1657,-1591.87 1660.67,-1593.99 1664.61,-1595.9 1668.65,-1597.63"/>
<polygon fill="midnightblue" stroke="midnightblue" points="1667.58,-1600.97 1678.17,-1601.3 1670.1,-1594.44 1667.58,-1600.97"/>
</g>
<!-- Node5 -->
<g id="node5" class="node">
<title>Node5</title>
<g id="a_node5"><a xlink:href="../../db/dc1/class_token.html#aa5d6826fae7d616e2cfe3e27b5dd594a" target="_top" xlink:title="Возвращает константную ссылку на строковое представление токена">
<polygon fill="none" stroke="black" points="1681,-1487.37 1681,-1506.37 1755,-1506.37 1755,-1487.37 1681,-1487.37"/>
<text text-anchor="middle" x="1718" y="-1494.37" font-family="Helvetica,sans-Serif" font-size="10.00">Token::getStr</text>
</a>
</g>
</g>
<!-- Node4&#45;&gt;Node5 -->
<g id="edge5" class="edge">
<title>Node4&#45;&gt;Node5</title>
<path fill="none" stroke="midnightblue" d="M1603.73,-1525.28C1624.16,-1520.15 1649.47,-1513.8 1670.97,-1508.41"/>
<polygon fill="midnightblue" stroke="midnightblue" points="1672.02,-1511.76 1680.87,-1505.93 1670.32,-1504.97 1672.02,-1511.76"/>
</g>
<!-- Node4&#45;&gt;Node6 -->
<g id="edge6" class="edge">
<title>Node4&#45;&gt;Node6</title>
<path fill="none" stroke="midnightblue" d="M1598.13,-1525.36C1606.32,-1521.81 1614.59,-1517.07 1621,-1510.87 1628.27,-1503.83 1686.43,-1375.05 1708.53,-1325.8"/>
<polygon fill="midnightblue" stroke="midnightblue" points="1711.77,-1327.13 1712.66,-1316.57 1705.38,-1324.27 1711.77,-1327.13"/>
</g>
<!-- Node7 -->
<g id="node7" class="node">
<title>Node7</title>
<g id="a_node7"><a xlink:href="../../db/dc1/class_token.html#a81497d9f05f9c69ba4ab8e9c62a391d1" target="_top" xlink:title=" ">
<polygon fill="none" stroke="black" points="1686.5,-1449.37 1686.5,-1468.37 1749.5,-1468.37 1749.5,-1449.37 1686.5,-1449.37"/>
<text text-anchor="middle" x="1718" y="-1456.37" font-family="Helvetica,sans-Serif" font-size="10.00">Token::line</text>
</a>
</g>
</g>
<!-- Node4&#45;&gt;Node7 -->
<g id="edge7" class="edge">
<title>Node4&#45;&gt;Node7</title>
<path fill="none" stroke="midnightblue" d="M1592.4,-1525.35C1601.79,-1521.49 1612.19,-1516.58 1621,-1510.87 1639.21,-1499.06 1638.21,-1488.73 1657,-1477.87 1663.04,-1474.37 1669.79,-1471.44 1676.54,-1469.01"/>
<polygon fill="midnightblue" stroke="midnightblue" points="1677.91,-1472.24 1686.32,-1465.79 1675.72,-1465.59 1677.91,-1472.24"/>
</g>
<!-- Node8 -->
<g id="node8" class="node">
<title>Node8</title>
<g id="a_node8"><a xlink:href="../../db/dc1/class_token.html#a715f99ebacdd636c283d15dc8656631c" target="_top" xlink:title=" ">
<polygon fill="none" stroke="black" points="1686,-1563.37 1686,-1582.37 1750,-1582.37 1750,-1563.37 1686,-1563.37"/>
<text text-anchor="middle" x="1718" y="-1570.37" font-family="Helvetica,sans-Serif" font-size="10.00">Token::pos</text>
</a>
</g>
</g>
<!-- Node4&#45;&gt;Node8 -->
<g id="edge8" class="edge">
<title>Node4&#45;&gt;Node8</title>
<path fill="none" stroke="midnightblue" d="M1603.73,-1544.45C1625.77,-1549.98 1653.49,-1556.94 1675.99,-1562.58"/>
<polygon fill="midnightblue" stroke="midnightblue" points="1675.37,-1566.03 1685.92,-1565.07 1677.07,-1559.24 1675.37,-1566.03"/>
</g>
<!-- Node9 -->
<g id="node9" class="node">
<title>Node9</title>
<g id="a_node9"><a xlink:href="../../db/dc1/class_token.html#a913f22d91c68c0b0f8c2d593b14deca2" target="_top" xlink:title=" ">
<polygon fill="none" stroke="black" points="1672.5,-1525.37 1672.5,-1544.37 1763.5,-1544.37 1763.5,-1525.37 1672.5,-1525.37"/>
<text text-anchor="middle" x="1718" y="-1532.37" font-family="Helvetica,sans-Serif" font-size="10.00">Token::posInLine</text>
</a>
</g>
</g>
<!-- Node4&#45;&gt;Node9 -->
<g id="edge9" class="edge">
<title>Node4&#45;&gt;Node9</title>
<path fill="none" stroke="midnightblue" d="M1603.73,-1534.87C1621.41,-1534.87 1642.75,-1534.87 1662.11,-1534.87"/>
<polygon fill="midnightblue" stroke="midnightblue" points="1662.33,-1538.37 1672.33,-1534.87 1662.33,-1531.37 1662.33,-1538.37"/>
</g>
<!-- Node11&#45;&gt;Node12 -->
<g id="edge13" class="edge">
<title>Node11&#45;&gt;Node12</title>
<path fill="none" stroke="midnightblue" d="M1415.86,-539.51C1429.25,-555.35 1455.65,-588.28 1472,-619.87 1515.02,-702.97 1545.16,-810.74 1557.41,-858.81"/>
<polygon fill="midnightblue" stroke="midnightblue" points="1554.05,-859.81 1559.87,-868.65 1560.84,-858.1 1554.05,-859.81"/>
</g>
<!-- Node13 -->
<g id="node13" class="node">
<title>Node13</title>
<g id="a_node13"><a xlink:href="../../d6/d00/class_pascal_syntax_analyzer.html#ae7d45d4a2d1a4200a1970708da736845" target="_top" xlink:title=" ">
<polygon fill="none" stroke="black" points="1508,-618.87 1508,-648.87 1621,-648.87 1621,-618.87 1508,-618.87"/>
<text text-anchor="start" x="1516" y="-636.87" font-family="Helvetica,sans-Serif" font-size="10.00">PascalSyntaxAnalyzer</text>
<text text-anchor="middle" x="1564.5" y="-625.87" font-family="Helvetica,sans-Serif" font-size="10.00">::getNextToken</text>
</a>
</g>
</g>
<!-- Node11&#45;&gt;Node13 -->
<g id="edge14" class="edge">
<title>Node11&#45;&gt;Node13</title>
<path fill="none" stroke="midnightblue" d="M1421.9,-539.46C1446.89,-556.13 1498.85,-590.77 1532.4,-613.13"/>
<polygon fill="midnightblue" stroke="midnightblue" points="1530.66,-616.18 1540.92,-618.81 1534.54,-610.35 1530.66,-616.18"/>
</g>
<!-- Node14&#45;&gt;Node2 -->
<g id="edge17" class="edge">
<title>Node14&#45;&gt;Node2</title>
<path fill="none" stroke="midnightblue" d="M237.2,-1806.87C290.06,-1831.27 402.25,-1876.87 502.5,-1876.87 502.5,-1876.87 502.5,-1876.87 1100.5,-1876.87 1192.49,-1876.87 1235.01,-1904.57 1305,-1844.87 1394.81,-1768.25 1404.98,-1610.58 1405.67,-1554.89"/>
<polygon fill="midnightblue" stroke="midnightblue" points="1409.18,-1554.63 1405.7,-1544.62 1402.18,-1554.61 1409.18,-1554.63"/>
</g>
<!-- Node14&#45;&gt;Node3 -->
<g id="edge19" class="edge">
<title>Node14&#45;&gt;Node3</title>
<path fill="none" stroke="midnightblue" d="M207.97,-1807.1C212.7,-1847.06 231.38,-1955.17 298,-2004.87 371.35,-2059.59 410.99,-2028.87 502.5,-2028.87 502.5,-2028.87 502.5,-2028.87 1407.5,-2028.87 1608.65,-2028.87 1694.08,-1712.37 1712.87,-1630.18"/>
<polygon fill="midnightblue" stroke="midnightblue" points="1716.3,-1630.9 1715.05,-1620.38 1709.47,-1629.39 1716.3,-1630.9"/>
</g>
<!-- Node14&#45;&gt;Node6 -->
<g id="edge21" class="edge">
<title>Node14&#45;&gt;Node6</title>
<path fill="none" stroke="midnightblue" d="M213.92,-1807.08C227.27,-1832.96 257.76,-1885.69 298,-1915.87 375.46,-1973.94 405.69,-1990.87 502.5,-1990.87 502.5,-1990.87 502.5,-1990.87 1249.5,-1990.87 1357.43,-1990.87 1450.15,-1835.86 1472,-1789.87 1524.7,-1678.92 1429.96,-1610.71 1508,-1515.87 1541.67,-1474.95 1580.2,-1511.67 1621,-1477.87 1671.13,-1436.33 1699.93,-1361.44 1711.3,-1326.2"/>
<polygon fill="midnightblue" stroke="midnightblue" points="1714.65,-1327.2 1714.27,-1316.61 1707.97,-1325.13 1714.65,-1327.2"/>
</g>
<!-- Node14&#45;&gt;Node11 -->
<g id="edge18" class="edge">
<title>Node14&#45;&gt;Node11</title>
<path fill="none" stroke="midnightblue" d="M207.3,-1776.71C212.87,-1673.4 247.14,-1071.4 298,-895.87 299.29,-891.41 443.41,-599.8 447,-596.87 708.55,-383.02 854.53,-461.69 1192,-445.87 1242.17,-443.51 1257.79,-428.73 1305,-445.87 1341.45,-459.09 1373.93,-491.96 1391.56,-512.44"/>
<polygon fill="midnightblue" stroke="midnightblue" points="1388.87,-514.69 1397.97,-520.12 1394.24,-510.2 1388.87,-514.69"/>
</g>
<!-- Node14&#45;&gt;Node12 -->
<g id="edge20" class="edge">
<title>Node14&#45;&gt;Node12</title>
<path fill="none" stroke="midnightblue" d="M221.28,-1807.01C262.04,-1847.09 381.12,-1952.87 502.5,-1952.87 502.5,-1952.87 502.5,-1952.87 1249.5,-1952.87 1373.41,-1952.87 1379.07,-1900.74 1472,-1624.87 1495.37,-1555.48 1548.77,-1031.34 1560.98,-909.24"/>
<polygon fill="midnightblue" stroke="midnightblue" points="1564.49,-909.3 1562,-899 1557.52,-908.6 1564.49,-909.3"/>
</g>
<!-- Node15 -->
<g id="node15" class="node">
<title>Node15</title>
<g id="a_node15"><a xlink:href="../../d6/d00/class_pascal_syntax_analyzer.html#a1483de526ade4687ddb1d1c0c804b15c" target="_top" xlink:title=" ">
<polygon fill="none" stroke="black" points="298,-1463.87 298,-1493.87 411,-1493.87 411,-1463.87 298,-1463.87"/>
<text text-anchor="start" x="306" y="-1481.87" font-family="Helvetica,sans-Serif" font-size="10.00">PascalSyntaxAnalyzer</text>
<text text-anchor="middle" x="354.5" y="-1470.87" font-family="Helvetica,sans-Serif" font-size="10.00">::syntaxAssignSt</text>
</a>
</g>
</g>
<!-- Node14&#45;&gt;Node15 -->
<g id="edge22" class="edge">
<title>Node14&#45;&gt;Node15</title>
<path fill="none" stroke="midnightblue" d="M213.59,-1776.77C237.11,-1726.68 312.74,-1565.66 341.89,-1503.59"/>
<polygon fill="midnightblue" stroke="midnightblue" points="345.23,-1504.72 346.31,-1494.18 338.89,-1501.74 345.23,-1504.72"/>
</g>
<!-- Node22 -->
<g id="node22" class="node">
<title>Node22</title>
<g id="a_node22"><a xlink:href="../../d6/d00/class_pascal_syntax_analyzer.html#add958b54cb4edebc082e2a246b6adb10" target="_top" xlink:title=" ">
<polygon fill="none" stroke="black" points="894,-1127.87 894,-1157.87 1007,-1157.87 1007,-1127.87 894,-1127.87"/>
<text text-anchor="start" x="902" y="-1145.87" font-family="Helvetica,sans-Serif" font-size="10.00">PascalSyntaxAnalyzer</text>
<text text-anchor="middle" x="950.5" y="-1134.87" font-family="Helvetica,sans-Serif" font-size="10.00">::syntaxFactor</text>
</a>
</g>
</g>
<!-- Node14&#45;&gt;Node22 -->
<g id="edge78" class="edge">
<title>Node14&#45;&gt;Node22</title>
<path fill="none" stroke="midnightblue" d="M224.28,-1776.77C300.8,-1711.72 609.45,-1448.65 858,-1226.87 881.37,-1206.01 907.68,-1181.78 926.06,-1164.72"/>
<polygon fill="midnightblue" stroke="midnightblue" points="928.49,-1167.25 933.43,-1157.87 923.72,-1162.12 928.49,-1167.25"/>
</g>
<!-- Node15&#45;&gt;Node2 -->
<g id="edge23" class="edge">
<title>Node15&#45;&gt;Node2</title>
<path fill="none" stroke="midnightblue" d="M404.71,-1493.93C407.01,-1495.7 409.13,-1497.67 411,-1499.87 463.76,-1562.09 390.44,-1621.07 447,-1679.87 606.24,-1845.43 719.78,-1800.87 949.5,-1800.87 949.5,-1800.87 949.5,-1800.87 1100.5,-1800.87 1191.78,-1800.87 1231.7,-1836.27 1305,-1781.87 1380.71,-1725.67 1399.57,-1602.55 1404.11,-1554.56"/>
<polygon fill="midnightblue" stroke="midnightblue" points="1407.6,-1554.8 1404.95,-1544.54 1400.63,-1554.22 1407.6,-1554.8"/>
</g>
<!-- Node15&#45;&gt;Node11 -->
<g id="edge24" class="edge">
<title>Node15&#45;&gt;Node11</title>
<path fill="none" stroke="midnightblue" d="M356.7,-1463.79C363.31,-1383.05 396.76,-1001.59 447,-895.87 489.55,-806.32 517.49,-790.4 596,-729.87 817.84,-558.82 912.07,-535.18 1192,-524.87 1242.19,-523.02 1254.79,-523.62 1305,-524.87 1313.35,-525.07 1322.08,-525.38 1330.77,-525.74"/>
<polygon fill="midnightblue" stroke="midnightblue" points="1330.77,-529.24 1340.91,-526.18 1331.07,-522.25 1330.77,-529.24"/>
</g>
<!-- Node15&#45;&gt;Node12 -->
<g id="edge25" class="edge">
<title>Node15&#45;&gt;Node12</title>
<path fill="none" stroke="midnightblue" d="M404.14,-1494.04C406.61,-1495.78 408.93,-1497.71 411,-1499.87 445.81,-1536 408.49,-1574.7 447,-1606.87 517.5,-1665.76 559.64,-1636.87 651.5,-1636.87 651.5,-1636.87 651.5,-1636.87 802.5,-1636.87 1026.73,-1636.87 1092.65,-1753.88 1305,-1681.87 1393.56,-1651.83 1425.02,-1634.73 1472,-1553.87 1505.1,-1496.89 1550.52,-1024.48 1561.19,-909.18"/>
<polygon fill="midnightblue" stroke="midnightblue" points="1564.71,-909.15 1562.14,-898.88 1557.74,-908.51 1564.71,-909.15"/>
</g>
<!-- Node16 -->
<g id="node16" class="node">
<title>Node16</title>
<g id="a_node16"><a xlink:href="../../d6/d00/class_pascal_syntax_analyzer.html#a7248708de6944b95154537725f2379d3" target="_top" xlink:title=" ">
<polygon fill="none" stroke="black" points="1043,-1741.87 1043,-1771.87 1156,-1771.87 1156,-1741.87 1043,-1741.87"/>
<text text-anchor="start" x="1051" y="-1759.87" font-family="Helvetica,sans-Serif" font-size="10.00">PascalSyntaxAnalyzer</text>
<text text-anchor="middle" x="1099.5" y="-1748.87" font-family="Helvetica,sans-Serif" font-size="10.00">::lookFoward</text>
</a>
</g>
</g>
<!-- Node15&#45;&gt;Node16 -->
<g id="edge26" class="edge">
<title>Node15&#45;&gt;Node16</title>
<path fill="none" stroke="midnightblue" d="M358.58,-1493.96C366.47,-1528.35 390.86,-1612.51 447,-1650.87 522.56,-1702.49 559.99,-1674.87 651.5,-1674.87 651.5,-1674.87 651.5,-1674.87 802.5,-1674.87 896.26,-1674.87 1000.86,-1713.55 1057.18,-1737.78"/>
<polygon fill="midnightblue" stroke="midnightblue" points="1055.89,-1741.03 1066.46,-1741.83 1058.69,-1734.62 1055.89,-1741.03"/>
</g>
<!-- Node18 -->
<g id="node18" class="node">
<title>Node18</title>
<g id="a_node18"><a xlink:href="../../d6/d00/class_pascal_syntax_analyzer.html#ad459363d50d2dd23b8b0b2baee6be658" target="_top" xlink:title=" ">
<polygon fill="none" stroke="black" points="447,-904.87 447,-934.87 560,-934.87 560,-904.87 447,-904.87"/>
<text text-anchor="start" x="455" y="-922.87" font-family="Helvetica,sans-Serif" font-size="10.00">PascalSyntaxAnalyzer</text>
<text text-anchor="middle" x="503.5" y="-911.87" font-family="Helvetica,sans-Serif" font-size="10.00">::syntaxExpr</text>
</a>
</g>
</g>
<!-- Node15&#45;&gt;Node18 -->
<g id="edge28" class="edge">
<title>Node15&#45;&gt;Node18</title>
<path fill="none" stroke="midnightblue" d="M359.51,-1463.62C379.73,-1386.71 470.61,-1041.14 495.93,-944.85"/>
<polygon fill="midnightblue" stroke="midnightblue" points="499.34,-945.66 498.5,-935.09 492.57,-943.87 499.34,-945.66"/>
</g>
<!-- Node26 -->
<g id="node26" class="node">
<title>Node26</title>
<g id="a_node26"><a xlink:href="../../d6/d00/class_pascal_syntax_analyzer.html#ae443cbc65ec18c6277b095da042ec7a2" target="_top" xlink:title=" ">
<polygon fill="none" stroke="black" points="1043,-1127.87 1043,-1157.87 1156,-1157.87 1156,-1127.87 1043,-1127.87"/>
<text text-anchor="start" x="1051" y="-1145.87" font-family="Helvetica,sans-Serif" font-size="10.00">PascalSyntaxAnalyzer</text>
<text text-anchor="middle" x="1099.5" y="-1134.87" font-family="Helvetica,sans-Serif" font-size="10.00">::syntaxSelect</text>
</a>
</g>
</g>
<!-- Node15&#45;&gt;Node26 -->
<g id="edge76" class="edge">
<title>Node15&#45;&gt;Node26</title>
<path fill="none" stroke="midnightblue" d="M389.5,-1463.81C486.29,-1420.92 771.5,-1294.15 1007,-1185.87 1023.51,-1178.28 1041.63,-1169.79 1057.35,-1162.38"/>
<polygon fill="midnightblue" stroke="midnightblue" points="1059.25,-1165.35 1066.8,-1157.92 1056.26,-1159.02 1059.25,-1165.35"/>
</g>
<!-- Node27 -->
<g id="node27" class="node">
<title>Node27</title>
<g id="a_node27"><a xlink:href="../../d6/d00/class_pascal_syntax_analyzer.html#a29143dd884dc4a19bfa64da0ac1640b7" target="_top" xlink:title=" ">
<polygon fill="none" stroke="black" points="1192,-1171.87 1192,-1201.87 1305,-1201.87 1305,-1171.87 1192,-1171.87"/>
<text text-anchor="start" x="1200" y="-1189.87" font-family="Helvetica,sans-Serif" font-size="10.00">PascalSyntaxAnalyzer</text>
<text text-anchor="middle" x="1248.5" y="-1178.87" font-family="Helvetica,sans-Serif" font-size="10.00">::syntaxVariable</text>
</a>
</g>
</g>
<!-- Node15&#45;&gt;Node27 -->
<g id="edge77" class="edge">
<title>Node15&#45;&gt;Node27</title>
<path fill="none" stroke="midnightblue" d="M411.26,-1465.25C452.5,-1454.97 509.94,-1440.24 560,-1425.87 803.76,-1355.88 1087.85,-1248.74 1199.23,-1205.71"/>
<polygon fill="midnightblue" stroke="midnightblue" points="1200.77,-1208.87 1208.84,-1201.99 1198.25,-1202.34 1200.77,-1208.87"/>
</g>
<!-- Node17 -->
<g id="node17" class="node">
<title>Node17</title>
<g id="a_node17"><a xlink:href="../../d1/d34/class_list.html#a49c179636e084dfbf7a52acd46acaf01" target="_top" xlink:title=" ">
<polygon fill="none" stroke="black" points="1221,-1753.37 1221,-1772.37 1276,-1772.37 1276,-1753.37 1221,-1753.37"/>
<text text-anchor="middle" x="1248.5" y="-1760.37" font-family="Helvetica,sans-Serif" font-size="10.00">List::size</text>
</a>
</g>
</g>
<!-- Node16&#45;&gt;Node17 -->
<g id="edge27" class="edge">
<title>Node16&#45;&gt;Node17</title>
<path fill="none" stroke="midnightblue" d="M1156.07,-1759.13C1174.22,-1759.87 1193.91,-1760.68 1210.35,-1761.35"/>
<polygon fill="midnightblue" stroke="midnightblue" points="1210.51,-1764.86 1220.64,-1761.77 1210.8,-1757.86 1210.51,-1764.86"/>
</g>
<!-- Node18&#45;&gt;Node2 -->
<g id="edge29" class="edge">
<title>Node18&#45;&gt;Node2</title>
<path fill="none" stroke="midnightblue" d="M506.53,-934.93C512.95,-978.13 536.07,-1104.67 596,-1188.87 742,-1393.99 808.35,-1445.6 1043,-1536.87 1147.82,-1577.64 1282.95,-1560.51 1354.99,-1546.45"/>
<polygon fill="midnightblue" stroke="midnightblue" points="1356.04,-1549.81 1365.15,-1544.41 1354.66,-1542.95 1356.04,-1549.81"/>
</g>
<!-- Node18&#45;&gt;Node6 -->
<g id="edge32" class="edge">
<title>Node18&#45;&gt;Node6</title>
<path fill="none" stroke="midnightblue" d="M506.63,-904.55C513.9,-855.2 540.39,-696.73 596,-577.87 757.92,-231.76 865.39,-16.87 1247.5,-16.87 1247.5,-16.87 1247.5,-16.87 1407.5,-16.87 1534.52,-16.87 1564,-93.35 1621,-206.87 1721.3,-406.63 1718.53,-1155.31 1717.24,-1287.02"/>
<polygon fill="midnightblue" stroke="midnightblue" points="1713.74,-1287.19 1717.13,-1297.22 1720.74,-1287.26 1713.74,-1287.19"/>
</g>
<!-- Node18&#45;&gt;Node11 -->
<g id="edge30" class="edge">
<title>Node18&#45;&gt;Node11</title>
<path fill="none" stroke="midnightblue" d="M509.41,-904.66C520.81,-870.84 551.55,-787.82 596,-729.87 755.57,-521.82 797.2,-436.13 1043,-344.87 1152.16,-304.34 1204.92,-285.34 1305,-344.87 1366.6,-381.51 1392.8,-470.57 1401.69,-510.24"/>
<polygon fill="midnightblue" stroke="midnightblue" points="1398.31,-511.18 1403.79,-520.24 1405.16,-509.73 1398.31,-511.18"/>
</g>
<!-- Node18&#45;&gt;Node12 -->
<g id="edge31" class="edge">
<title>Node18&#45;&gt;Node12</title>
<path fill="none" stroke="midnightblue" d="M505.87,-935.15C510.38,-975.8 528.61,-1087.03 596,-1139.87 720.63,-1237.57 1146.97,-1222.23 1305,-1211.87 1379.7,-1206.97 1415.01,-1238.41 1472,-1189.87 1557.25,-1117.24 1564.94,-968.73 1564.39,-909.29"/>
<polygon fill="midnightblue" stroke="midnightblue" points="1567.88,-908.88 1564.19,-898.95 1560.88,-909.01 1567.88,-908.88"/>
</g>
<!-- Node19 -->
<g id="node19" class="node">
<title>Node19</title>
<g id="a_node19"><a xlink:href="../../d3/da8/sup_algs_8hpp.html#ae7d62ca130413d4c96863327c1af81a4" target="_top" xlink:title="Возвращает истину, если value находится среди значений cont.">
<polygon fill="none" stroke="black" points="934.5,-653.37 934.5,-672.37 966.5,-672.37 966.5,-653.37 934.5,-653.37"/>
<text text-anchor="middle" x="950.5" y="-660.37" font-family="Helvetica,sans-Serif" font-size="10.00">isIn</text>
</a>
</g>
</g>
<!-- Node18&#45;&gt;Node19 -->
<g id="edge33" class="edge">
<title>Node18&#45;&gt;Node19</title>
<path fill="none" stroke="midnightblue" d="M511.99,-904.82C525.44,-879.22 556.07,-827.02 596,-796.87 702.48,-716.46 862.77,-679.25 924.26,-667.34"/>
<polygon fill="midnightblue" stroke="midnightblue" points="925.05,-670.75 934.23,-665.47 923.76,-663.88 925.05,-670.75"/>
</g>
<!-- Node20 -->
<g id="node20" class="node">
<title>Node20</title>
<g id="a_node20"><a xlink:href="../../d6/d00/class_pascal_syntax_analyzer.html#aca0a489432741e00e3d268ccd6452781" target="_top" xlink:title=" ">
<polygon fill="none" stroke="black" points="596,-805.87 596,-835.87 709,-835.87 709,-805.87 596,-805.87"/>
<text text-anchor="start" x="604" y="-823.87" font-family="Helvetica,sans-Serif" font-size="10.00">PascalSyntaxAnalyzer</text>
<text text-anchor="middle" x="652.5" y="-812.87" font-family="Helvetica,sans-Serif" font-size="10.00">::syntaxSimpleExpr</text>
</a>
</g>
</g>
<!-- Node18&#45;&gt;Node20 -->
<g id="edge34" class="edge">
<title>Node18&#45;&gt;Node20</title>
<path fill="none" stroke="midnightblue" d="M526.83,-904.83C551.76,-888.04 592.28,-860.75 620.33,-841.86"/>
<polygon fill="midnightblue" stroke="midnightblue" points="622.62,-844.53 628.96,-836.04 618.71,-838.73 622.62,-844.53"/>
</g>
<!-- Node20&#45;&gt;Node2 -->
<g id="edge35" class="edge">
<title>Node20&#45;&gt;Node2</title>
<path fill="none" stroke="midnightblue" d="M658.46,-835.95C684.33,-912.2 811.65,-1257.68 1043,-1415.87 1133.92,-1478.03 1259.67,-1509.65 1336.64,-1524.17"/>
<polygon fill="midnightblue" stroke="midnightblue" points="1336.24,-1527.65 1346.71,-1526.02 1337.51,-1520.77 1336.24,-1527.65"/>
</g>
<!-- Node20&#45;&gt;Node6 -->
<g id="edge38" class="edge">
<title>Node20&#45;&gt;Node6</title>
<path fill="none" stroke="midnightblue" d="M657.91,-805.81C688.45,-704.91 878.42,-130.87 1247.5,-130.87 1247.5,-130.87 1247.5,-130.87 1407.5,-130.87 1656.73,-130.87 1709.5,-1131.13 1716.2,-1286.65"/>
<polygon fill="midnightblue" stroke="midnightblue" points="1712.72,-1287.21 1716.63,-1297.05 1719.71,-1286.92 1712.72,-1287.21"/>
</g>
<!-- Node20&#45;&gt;Node11 -->
<g id="edge36" class="edge">
<title>Node20&#45;&gt;Node11</title>
<path fill="none" stroke="midnightblue" d="M671.66,-805.7C689.84,-790.73 718.79,-767.46 745,-748.87 793.57,-714.41 810.76,-713.12 858,-676.87 875.22,-663.65 876.17,-656.24 894,-643.87 955.07,-601.47 972.96,-592.77 1043,-567.87 1106.82,-545.18 1124.75,-543.96 1192,-535.87 1237.82,-530.35 1289.54,-528.78 1330.61,-528.62"/>
<polygon fill="midnightblue" stroke="midnightblue" points="1330.81,-532.12 1340.81,-528.61 1330.8,-525.12 1330.81,-532.12"/>
</g>
<!-- Node20&#45;&gt;Node12 -->
<g id="edge37" class="edge">
<title>Node20&#45;&gt;Node12</title>
<path fill="none" stroke="midnightblue" d="M702.53,-835.95C716.17,-839.68 731.07,-843.33 745,-845.87 834.81,-862.18 858.22,-864.87 949.5,-864.87 949.5,-864.87 949.5,-864.87 1249.5,-864.87 1335.38,-864.87 1434.23,-872.03 1497.71,-877.56"/>
<polygon fill="midnightblue" stroke="midnightblue" points="1497.71,-881.08 1507.98,-878.47 1498.32,-874.11 1497.71,-881.08"/>
</g>
<!-- Node20&#45;&gt;Node19 -->
<g id="edge39" class="edge">
<title>Node20&#45;&gt;Node19</title>
<path fill="none" stroke="midnightblue" d="M705.11,-805.86C761.64,-789.08 845.94,-762.94 858,-752.87 883.64,-731.44 869.32,-709.39 894,-686.87 902.61,-679.01 914.18,-673.45 924.54,-669.68"/>
<polygon fill="midnightblue" stroke="midnightblue" points="925.91,-672.92 934.33,-666.48 923.74,-666.26 925.91,-672.92"/>
</g>
<!-- Node21 -->
<g id="node21" class="node">
<title>Node21</title>
<g id="a_node21"><a xlink:href="../../d6/d00/class_pascal_syntax_analyzer.html#a2a47b3776a55323696ebcc18a9699b57" target="_top" xlink:title=" ">
<polygon fill="none" stroke="black" points="745,-805.87 745,-835.87 858,-835.87 858,-805.87 745,-805.87"/>
<text text-anchor="start" x="753" y="-823.87" font-family="Helvetica,sans-Serif" font-size="10.00">PascalSyntaxAnalyzer</text>
<text text-anchor="middle" x="801.5" y="-812.87" font-family="Helvetica,sans-Serif" font-size="10.00">::syntaxTerm</text>
</a>
</g>
</g>
<!-- Node20&#45;&gt;Node21 -->
<g id="edge40" class="edge">
<title>Node20&#45;&gt;Node21</title>
<path fill="none" stroke="midnightblue" d="M709.07,-820.87C717.49,-820.87 726.24,-820.87 734.84,-820.87"/>
<polygon fill="midnightblue" stroke="midnightblue" points="734.85,-824.37 744.85,-820.87 734.85,-817.37 734.85,-824.37"/>
</g>
<!-- Node21&#45;&gt;Node2 -->
<g id="edge41" class="edge">
<title>Node21&#45;&gt;Node2</title>
<path fill="none" stroke="midnightblue" d="M803.63,-836.08C808.03,-888.01 827.21,-1061.94 894,-1185.87 929.22,-1251.21 962.78,-1249.24 1007,-1308.87 1025.75,-1334.15 1019.54,-1348.87 1043,-1369.87 1137.49,-1454.44 1189.84,-1429.77 1305,-1482.87 1330.72,-1494.72 1359.34,-1509.72 1379.44,-1520.55"/>
<polygon fill="midnightblue" stroke="midnightblue" points="1377.85,-1523.67 1388.31,-1525.36 1381.19,-1517.52 1377.85,-1523.67"/>
</g>
<!-- Node21&#45;&gt;Node6 -->
<g id="edge44" class="edge">
<title>Node21&#45;&gt;Node6</title>
<path fill="none" stroke="midnightblue" d="M832.96,-805.72C841.79,-800.31 850.94,-793.61 858,-785.87 881.82,-759.71 866.78,-737.46 894,-714.87 934.26,-681.45 969.6,-718.46 1007,-681.87 1044.98,-644.71 1003.7,-603.62 1043,-567.87 1185.27,-438.42 1287.87,-455.27 1472,-510.87 1548.11,-533.85 1578.73,-542.53 1621,-609.87 1694.79,-727.41 1713.22,-1185.47 1716.43,-1286.9"/>
<polygon fill="midnightblue" stroke="midnightblue" points="1712.94,-1287.11 1716.74,-1297 1719.93,-1286.9 1712.94,-1287.11"/>
</g>
<!-- Node21&#45;&gt;Node11 -->
<g id="edge42" class="edge">
<title>Node21&#45;&gt;Node11</title>
<path fill="none" stroke="midnightblue" d="M852.78,-805.79C898.39,-789.81 964.77,-760.51 1007,-714.87 1034.86,-684.75 1014.31,-659.19 1043,-629.87 1093.78,-577.96 1122.38,-583.49 1192,-562.87 1237.18,-549.48 1289.44,-541.29 1330.95,-536.41"/>
<polygon fill="midnightblue" stroke="midnightblue" points="1331.44,-539.88 1340.98,-535.27 1330.65,-532.92 1331.44,-539.88"/>
</g>
<!-- Node21&#45;&gt;Node12 -->
<g id="edge43" class="edge">
<title>Node21&#45;&gt;Node12</title>
<path fill="none" stroke="midnightblue" d="M858.14,-822.67C917.63,-824.43 1014.72,-826.87 1098.5,-826.87 1098.5,-826.87 1098.5,-826.87 1249.5,-826.87 1348.96,-826.87 1375.08,-828.5 1472,-850.87 1487.37,-854.41 1503.72,-859.77 1518.27,-865.14"/>
<polygon fill="midnightblue" stroke="midnightblue" points="1517.43,-868.56 1528.03,-868.83 1519.91,-862.02 1517.43,-868.56"/>
</g>
<!-- Node21&#45;&gt;Node19 -->
<g id="edge45" class="edge">
<title>Node21&#45;&gt;Node19</title>
<path fill="none" stroke="midnightblue" d="M839.67,-805.79C846.45,-801.74 852.96,-796.79 858,-790.87 889.67,-753.59 860.73,-722.72 894,-686.87 902.12,-678.12 913.97,-672.41 924.64,-668.76"/>
<polygon fill="midnightblue" stroke="midnightblue" points="925.76,-672.08 934.34,-665.86 923.76,-665.37 925.76,-672.08"/>
</g>
<!-- Node21&#45;&gt;Node22 -->
<g id="edge46" class="edge">
<title>Node21&#45;&gt;Node22</title>
<path fill="none" stroke="midnightblue" d="M809.39,-835.96C832.83,-887.3 909.59,-1055.44 938.42,-1118.6"/>
<polygon fill="midnightblue" stroke="midnightblue" points="935.29,-1120.16 942.62,-1127.8 941.65,-1117.25 935.29,-1120.16"/>
</g>
<!-- Node22&#45;&gt;Node2 -->
<g id="edge47" class="edge">
<title>Node22&#45;&gt;Node2</title>
<path fill="none" stroke="midnightblue" d="M974.65,-1157.96C985.91,-1166.4 998.76,-1177.84 1007,-1190.87 1039.05,-1241.53 1005.09,-1274.42 1043,-1320.87 1124.47,-1420.66 1196.26,-1375.78 1305,-1444.87 1338.36,-1466.06 1371.41,-1498.42 1390.06,-1518.01"/>
<polygon fill="midnightblue" stroke="midnightblue" points="1387.52,-1520.42 1396.91,-1525.32 1392.63,-1515.64 1387.52,-1520.42"/>
</g>
<!-- Node22&#45;&gt;Node3 -->
<g id="edge52" class="edge">
<title>Node22&#45;&gt;Node3</title>
<path fill="none" stroke="midnightblue" d="M954.21,-1158.09C961.84,-1197.25 986.72,-1303.1 1043,-1369.87 1190.11,-1544.38 1282.49,-1552.58 1508,-1587.87 1554.05,-1595.07 1606.15,-1600.81 1646.82,-1604.75"/>
<polygon fill="midnightblue" stroke="midnightblue" points="1646.61,-1608.25 1656.9,-1605.72 1647.28,-1601.28 1646.61,-1608.25"/>
</g>
<!-- Node22&#45;&gt;Node6 -->
<g id="edge54" class="edge">
<title>Node22&#45;&gt;Node6</title>
<path fill="none" stroke="midnightblue" d="M977.52,-1158.01C995.41,-1167.82 1020,-1180.17 1043,-1187.87 1261.15,-1260.89 1534.84,-1291.53 1655.28,-1302.12"/>
<polygon fill="midnightblue" stroke="midnightblue" points="1655.15,-1305.62 1665.42,-1302.99 1655.76,-1298.65 1655.15,-1305.62"/>
</g>
<!-- Node22&#45;&gt;Node11 -->
<g id="edge48" class="edge">
<title>Node22&#45;&gt;Node11</title>
<path fill="none" stroke="midnightblue" d="M953.32,-1127.64C959.71,-1077.92 984.03,-916.64 1043,-797.87 1090.88,-701.43 1104.83,-670.05 1192,-606.87 1206.56,-596.31 1308.91,-561.66 1366.45,-542.64"/>
<polygon fill="midnightblue" stroke="midnightblue" points="1367.9,-545.85 1376.3,-539.39 1365.7,-539.2 1367.9,-545.85"/>
</g>
<!-- Node22&#45;&gt;Node12 -->
<g id="edge53" class="edge">
<title>Node22&#45;&gt;Node12</title>
<path fill="none" stroke="midnightblue" d="M971.81,-1127.71C989.86,-1114.7 1017.29,-1096.01 1043,-1082.87 1203.3,-1000.88 1405.62,-932.92 1504.14,-901.93"/>
<polygon fill="midnightblue" stroke="midnightblue" points="1505.42,-905.2 1513.92,-898.87 1503.33,-898.52 1505.42,-905.2"/>
</g>
<!-- Node22&#45;&gt;Node16 -->
<g id="edge55" class="edge">
<title>Node22&#45;&gt;Node16</title>
<path fill="none" stroke="midnightblue" d="M953.47,-1158.11C961.35,-1217.33 992.56,-1437.51 1043,-1612.87 1055.33,-1655.75 1075.11,-1703.78 1087.42,-1732.11"/>
<polygon fill="midnightblue" stroke="midnightblue" points="1084.37,-1733.87 1091.6,-1741.62 1090.78,-1731.05 1084.37,-1733.87"/>
</g>
<!-- Node22&#45;&gt;Node18 -->
<g id="edge62" class="edge">
<title>Node22&#45;&gt;Node18</title>
<path fill="none" stroke="midnightblue" d="M893.81,-1144.72C806.58,-1146.54 642.82,-1145.33 596,-1112.87 538.68,-1073.11 516.19,-987.56 508.3,-944.99"/>
<polygon fill="midnightblue" stroke="midnightblue" points="511.71,-944.17 506.55,-934.91 504.81,-945.36 511.71,-944.17"/>
</g>
<!-- Node22&#45;&gt;Node22 -->
<g id="edge63" class="edge">
<title>Node22&#45;&gt;Node22</title>
<path fill="none" stroke="midnightblue" d="M924.71,-1158.02C918.49,-1167.42 927.09,-1176.37 950.5,-1176.37 964.77,-1176.37 973.53,-1173.04 976.8,-1168.32"/>
<polygon fill="midnightblue" stroke="midnightblue" points="980.28,-1167.84 976.29,-1158.02 973.29,-1168.18 980.28,-1167.84"/>
</g>
<!-- Node23 -->
<g id="node23" class="node">
<title>Node23</title>
<g id="a_node23"><a xlink:href="../../d6/d00/class_pascal_syntax_analyzer.html#a30076a5cf45ea845d8071679ca9075a0" target="_top" xlink:title="Пропускает текущий токен, если он указанного типа. Иначе выбрасывается исключение">
<polygon fill="none" stroke="black" points="1350,-703.87 1350,-733.87 1463,-733.87 1463,-703.87 1350,-703.87"/>
<text text-anchor="start" x="1358" y="-721.87" font-family="Helvetica,sans-Serif" font-size="10.00">PascalSyntaxAnalyzer</text>
<text text-anchor="middle" x="1406.5" y="-710.87" font-family="Helvetica,sans-Serif" font-size="10.00">::eatAdv</text>
</a>
</g>
</g>
<!-- Node22&#45;&gt;Node23 -->
<g id="edge49" class="edge">
<title>Node22&#45;&gt;Node23</title>
<path fill="none" stroke="midnightblue" d="M952.81,-1127.69C957.3,-1084.34 975.78,-958.32 1043,-884.87 1123.33,-797.09 1259.22,-752.34 1339.84,-732.42"/>
<polygon fill="midnightblue" stroke="midnightblue" points="1340.98,-735.75 1349.88,-730 1339.33,-728.94 1340.98,-735.75"/>
</g>
<!-- Node24 -->
<g id="node24" class="node">
<title>Node24</title>
<g id="a_node24"><a xlink:href="../../d6/d00/class_pascal_syntax_analyzer.html#a17fc2ae65eb01ca8a797c5af969eebae" target="_top" xlink:title=" ">
<polygon fill="none" stroke="black" points="1192,-1045.87 1192,-1075.87 1305,-1075.87 1305,-1045.87 1192,-1045.87"/>
<text text-anchor="start" x="1200" y="-1063.87" font-family="Helvetica,sans-Serif" font-size="10.00">PascalSyntaxAnalyzer</text>
<text text-anchor="middle" x="1248.5" y="-1052.87" font-family="Helvetica,sans-Serif" font-size="10.00">::syntaxCallSt</text>
</a>
</g>
</g>
<!-- Node22&#45;&gt;Node24 -->
<g id="edge56" class="edge">
<title>Node22&#45;&gt;Node24</title>
<path fill="none" stroke="midnightblue" d="M1005.79,-1127.83C1055.99,-1113.92 1130.63,-1093.24 1183.66,-1078.55"/>
<polygon fill="midnightblue" stroke="midnightblue" points="1184.6,-1081.92 1193.3,-1075.88 1182.73,-1075.18 1184.6,-1081.92"/>
</g>
<!-- Node22&#45;&gt;Node26 -->
<g id="edge64" class="edge">
<title>Node22&#45;&gt;Node26</title>
<path fill="none" stroke="midnightblue" d="M1007.07,-1142.87C1015.49,-1142.87 1024.24,-1142.87 1032.84,-1142.87"/>
<polygon fill="midnightblue" stroke="midnightblue" points="1032.85,-1146.37 1042.85,-1142.87 1032.85,-1139.37 1032.85,-1146.37"/>
</g>
<!-- Node22&#45;&gt;Node27 -->
<g id="edge75" class="edge">
<title>Node22&#45;&gt;Node27</title>
<path fill="none" stroke="midnightblue" d="M1000.53,-1157.95C1014.17,-1161.68 1029.07,-1165.33 1043,-1167.87 1088.83,-1176.19 1141.13,-1180.97 1181.37,-1183.65"/>
<polygon fill="midnightblue" stroke="midnightblue" points="1181.39,-1187.16 1191.6,-1184.3 1181.84,-1180.17 1181.39,-1187.16"/>
</g>
<!-- Node23&#45;&gt;Node12 -->
<g id="edge50" class="edge">
<title>Node23&#45;&gt;Node12</title>
<path fill="none" stroke="midnightblue" d="M1448.73,-733.98C1456.94,-738.07 1465.14,-743.02 1472,-748.87 1508.8,-780.2 1537.21,-829.77 1552.05,-859.33"/>
<polygon fill="midnightblue" stroke="midnightblue" points="1549.02,-861.09 1556.56,-868.53 1555.3,-858.01 1549.02,-861.09"/>
</g>
<!-- Node23&#45;&gt;Node13 -->
<g id="edge51" class="edge">
<title>Node23&#45;&gt;Node13</title>
<path fill="none" stroke="midnightblue" d="M1435.03,-703.87C1460.49,-689.99 1498.53,-669.27 1526.61,-653.97"/>
<polygon fill="midnightblue" stroke="midnightblue" points="1528.61,-656.86 1535.72,-649 1525.26,-650.71 1528.61,-656.86"/>
</g>
<!-- Node24&#45;&gt;Node2 -->
<g id="edge57" class="edge">
<title>Node24&#45;&gt;Node2</title>
<path fill="none" stroke="midnightblue" d="M1259.13,-1075.87C1271.24,-1095.29 1292.03,-1130.49 1305,-1162.87 1357.03,-1292.71 1391.11,-1458.62 1401.85,-1515.05"/>
<polygon fill="midnightblue" stroke="midnightblue" points="1398.46,-1515.93 1403.74,-1525.11 1405.34,-1514.64 1398.46,-1515.93"/>
</g>
<!-- Node24&#45;&gt;Node11 -->
<g id="edge58" class="edge">
<title>Node24&#45;&gt;Node11</title>
<path fill="none" stroke="midnightblue" d="M1259.54,-1045.8C1272.3,-1025.89 1293.98,-989.29 1305,-954.87 1340.58,-843.77 1311.56,-807.75 1341,-694.87 1355.23,-640.29 1382.17,-579.24 1396.31,-548.99"/>
<polygon fill="midnightblue" stroke="midnightblue" points="1399.62,-550.17 1400.73,-539.64 1393.29,-547.18 1399.62,-550.17"/>
</g>
<!-- Node24&#45;&gt;Node12 -->
<g id="edge59" class="edge">
<title>Node24&#45;&gt;Node12</title>
<path fill="none" stroke="midnightblue" d="M1305.42,-1052.92C1352.86,-1044.13 1421.13,-1026.52 1472,-992.87 1505.62,-970.62 1533.55,-932.46 1549.39,-907.7"/>
<polygon fill="midnightblue" stroke="midnightblue" points="1552.54,-909.27 1554.85,-898.93 1546.6,-905.57 1552.54,-909.27"/>
</g>
<!-- Node24&#45;&gt;Node18 -->
<g id="edge61" class="edge">
<title>Node24&#45;&gt;Node18</title>
<path fill="none" stroke="midnightblue" d="M1191.9,-1048.51C1132.65,-1036.44 1035.93,-1019.87 951.5,-1019.87 800.5,-1019.87 800.5,-1019.87 800.5,-1019.87 701.54,-1019.87 593.29,-969.07 539.26,-939.89"/>
<polygon fill="midnightblue" stroke="midnightblue" points="540.89,-936.79 530.44,-935.05 537.52,-942.93 540.89,-936.79"/>
</g>
<!-- Node25 -->
<g id="node25" class="node">
<title>Node25</title>
<g id="a_node25"><a xlink:href="../../dd/dfe/class_base_token.html#a14274971b0df74ada437774f4e4c5688" target="_top" xlink:title="Устанавливает дополнительный тип токена">
<polygon fill="none" stroke="black" points="1345.5,-1071.37 1345.5,-1090.37 1467.5,-1090.37 1467.5,-1071.37 1345.5,-1071.37"/>
<text text-anchor="middle" x="1406.5" y="-1078.37" font-family="Helvetica,sans-Serif" font-size="10.00">BaseToken::setAdvType</text>
</a>
</g>
</g>
<!-- Node24&#45;&gt;Node25 -->
<g id="edge60" class="edge">
<title>Node24&#45;&gt;Node25</title>
<path fill="none" stroke="midnightblue" d="M1305.38,-1068.03C1315.08,-1069.27 1325.29,-1070.58 1335.31,-1071.87"/>
<polygon fill="midnightblue" stroke="midnightblue" points="1334.9,-1075.34 1345.26,-1073.14 1335.79,-1068.4 1334.9,-1075.34"/>
</g>
<!-- Node26&#45;&gt;Node2 -->
<g id="edge65" class="edge">
<title>Node26&#45;&gt;Node2</title>
<path fill="none" stroke="midnightblue" d="M1102.92,-1158.14C1109.82,-1196.82 1132.99,-1299.8 1192,-1358.87 1230.56,-1397.47 1261.67,-1373.69 1305,-1406.87 1345.56,-1437.92 1378.96,-1488.95 1395.08,-1516.26"/>
<polygon fill="midnightblue" stroke="midnightblue" points="1392.19,-1518.25 1400.22,-1525.16 1398.25,-1514.75 1392.19,-1518.25"/>
</g>
<!-- Node26&#45;&gt;Node11 -->
<g id="edge66" class="edge">
<title>Node26&#45;&gt;Node11</title>
<path fill="none" stroke="midnightblue" d="M1108.21,-1127.83C1135.43,-1074.71 1229.47,-890.76 1305,-737.87 1339.27,-668.49 1378.98,-585.53 1396.45,-548.87"/>
<polygon fill="midnightblue" stroke="midnightblue" points="1399.81,-549.96 1400.95,-539.43 1393.49,-546.95 1399.81,-549.96"/>
</g>
<!-- Node26&#45;&gt;Node12 -->
<g id="edge67" class="edge">
<title>Node26&#45;&gt;Node12</title>
<path fill="none" stroke="midnightblue" d="M1156.24,-1152.93C1235.24,-1163.88 1380.35,-1171.33 1472,-1099.87 1533.55,-1051.87 1554.22,-954.69 1560.73,-908.86"/>
<polygon fill="midnightblue" stroke="midnightblue" points="1564.21,-909.25 1562.03,-898.88 1557.27,-908.34 1564.21,-909.25"/>
</g>
<!-- Node26&#45;&gt;Node18 -->
<g id="edge69" class="edge">
<title>Node26&#45;&gt;Node18</title>
<path fill="none" stroke="midnightblue" d="M1042.97,-1127.8C1031.13,-1124.73 1018.67,-1121.6 1007,-1118.87 825.39,-1076.3 755.1,-1131.24 596,-1033.87 560.14,-1011.92 532.38,-970.64 517.25,-944.24"/>
<polygon fill="midnightblue" stroke="midnightblue" points="520.17,-942.29 512.25,-935.25 514.05,-945.69 520.17,-942.29"/>
</g>
<!-- Node26&#45;&gt;Node25 -->
<g id="edge68" class="edge">
<title>Node26&#45;&gt;Node25</title>
<path fill="none" stroke="midnightblue" d="M1156.09,-1131.57C1210.6,-1120.49 1293.32,-1103.67 1348.36,-1092.48"/>
<polygon fill="midnightblue" stroke="midnightblue" points="1349.2,-1095.88 1358.3,-1090.46 1347.8,-1089.02 1349.2,-1095.88"/>
</g>
<!-- Node26&#45;&gt;Node27 -->
<g id="edge70" class="edge">
<title>Node26&#45;&gt;Node27</title>
<path fill="none" stroke="midnightblue" d="M1150.68,-1157.88C1162.49,-1161.42 1175.2,-1165.23 1187.4,-1168.88"/>
<polygon fill="midnightblue" stroke="midnightblue" points="1186.47,-1172.25 1197.05,-1171.76 1188.47,-1165.54 1186.47,-1172.25"/>
</g>
<!-- Node27&#45;&gt;Node2 -->
<g id="edge71" class="edge">
<title>Node27&#45;&gt;Node2</title>
<path fill="none" stroke="midnightblue" d="M1256.4,-1202.27C1281.71,-1258.72 1369.35,-1454.22 1397.04,-1516"/>
<polygon fill="midnightblue" stroke="midnightblue" points="1393.94,-1517.63 1401.22,-1525.33 1400.33,-1514.77 1393.94,-1517.63"/>
</g>
<!-- Node27&#45;&gt;Node11 -->
<g id="edge72" class="edge">
<title>Node27&#45;&gt;Node11</title>
<path fill="none" stroke="midnightblue" d="M1260.48,-1171.68C1273.58,-1152.65 1294.98,-1118.58 1305,-1085.87 1356.09,-919 1300.84,-864.69 1341,-694.87 1353.98,-639.98 1381.46,-579.06 1396.01,-548.92"/>
<polygon fill="midnightblue" stroke="midnightblue" points="1399.32,-550.12 1400.57,-539.6 1393.03,-547.04 1399.32,-550.12"/>
</g>
<!-- Node27&#45;&gt;Node12 -->
<g id="edge73" class="edge">
<title>Node27&#45;&gt;Node12</title>
<path fill="none" stroke="midnightblue" d="M1305.28,-1194.59C1354.61,-1198.2 1425.73,-1195.11 1472,-1156.87 1548.6,-1093.55 1561.41,-963.94 1563.31,-909.18"/>
<polygon fill="midnightblue" stroke="midnightblue" points="1566.81,-909.06 1563.56,-898.97 1559.82,-908.88 1566.81,-909.06"/>
</g>
<!-- Node27&#45;&gt;Node25 -->
<g id="edge74" class="edge">
<title>Node27&#45;&gt;Node25</title>
<path fill="none" stroke="midnightblue" d="M1271.85,-1171.68C1301.32,-1151.65 1352.91,-1116.6 1382.64,-1096.4"/>
<polygon fill="midnightblue" stroke="midnightblue" points="1384.81,-1099.16 1391.11,-1090.64 1380.87,-1093.37 1384.81,-1099.16"/>
</g>
<!-- Node28&#45;&gt;Node1 -->
<g id="edge96" class="edge">
<title>Node28&#45;&gt;Node1</title>
<path fill="none" stroke="midnightblue" d="M148.85,-648.44C140.43,-648.61 131.68,-648.66 123.08,-648.58"/>
<polygon fill="midnightblue" stroke="midnightblue" points="123.12,-645.08 113.07,-648.43 123.02,-652.08 123.12,-645.08"/>
</g>
<!-- Node28&#45;&gt;Node11 -->
<g id="edge80" class="edge">
<title>Node28&#45;&gt;Node11</title>
<path fill="none" stroke="midnightblue" d="M206.23,-626.72C206.13,-575.23 212.58,-404.77 298,-306.87 457.59,-123.96 557.76,-92.87 800.5,-92.87 800.5,-92.87 800.5,-92.87 1100.5,-92.87 1201.67,-92.87 1239.6,-115.67 1305,-192.87 1387.71,-290.48 1402.35,-454.11 1404.94,-510.26"/>
<polygon fill="midnightblue" stroke="midnightblue" points="1401.45,-510.42 1405.33,-520.28 1408.44,-510.15 1401.45,-510.42"/>
</g>
<!-- Node28&#45;&gt;Node12 -->
<g id="edge81" class="edge">
<title>Node28&#45;&gt;Node12</title>
<path fill="none" stroke="midnightblue" d="M211.71,-626.81C234.76,-563.35 333.83,-320.87 502.5,-320.87 502.5,-320.87 502.5,-320.87 1249.5,-320.87 1379.54,-320.87 1403.88,-400.09 1472,-510.87 1507.46,-568.53 1491.89,-593.11 1508,-658.87 1525.83,-731.66 1547.1,-817.65 1557.36,-859.09"/>
<polygon fill="midnightblue" stroke="midnightblue" points="1553.98,-860 1559.78,-868.86 1560.77,-858.31 1553.98,-860"/>
</g>
<!-- Node28&#45;&gt;Node15 -->
<g id="edge83" class="edge">
<title>Node28&#45;&gt;Node15</title>
<path fill="none" stroke="midnightblue" d="M207.64,-656.92C213.33,-729.26 240.6,-1048 298,-1302.87 310.38,-1357.82 331.93,-1420.3 344.22,-1454.05"/>
<polygon fill="midnightblue" stroke="midnightblue" points="340.98,-1455.39 347.71,-1463.57 347.55,-1452.97 340.98,-1455.39"/>
</g>
<!-- Node28&#45;&gt;Node16 -->
<g id="edge82" class="edge">
<title>Node28&#45;&gt;Node16</title>
<path fill="none" stroke="midnightblue" d="M206.9,-656.93C209.73,-758.33 228.91,-1342.32 298,-1503.87 338.3,-1598.1 356.71,-1631.36 447,-1679.87 639.5,-1783.28 909.39,-1774.93 1032.55,-1764.26"/>
<polygon fill="midnightblue" stroke="midnightblue" points="1032.94,-1767.74 1042.58,-1763.36 1032.31,-1760.77 1032.94,-1767.74"/>
</g>
<!-- Node28&#45;&gt;Node24 -->
<g id="edge84" class="edge">
<title>Node28&#45;&gt;Node24</title>
<path fill="none" stroke="midnightblue" d="M206.04,-656.94C205.41,-706.52 210.55,-865.84 298,-944.87 427.97,-1062.32 988.6,-1064.97 1181.78,-1062.26"/>
<polygon fill="midnightblue" stroke="midnightblue" points="1181.85,-1065.76 1191.79,-1062.11 1181.74,-1058.76 1181.85,-1065.76"/>
</g>
<!-- Node29 -->
<g id="node29" class="node">
<title>Node29</title>
<g id="a_node29"><a xlink:href="../../d6/d00/class_pascal_syntax_analyzer.html#ada208f0427fef2e977e420bb5e87450a" target="_top" xlink:title=" ">
<polygon fill="none" stroke="black" points="1043,-893.87 1043,-923.87 1156,-923.87 1156,-893.87 1043,-893.87"/>
<text text-anchor="start" x="1051" y="-911.87" font-family="Helvetica,sans-Serif" font-size="10.00">PascalSyntaxAnalyzer</text>
<text text-anchor="middle" x="1099.5" y="-900.87" font-family="Helvetica,sans-Serif" font-size="10.00">::syntaxCompoundSt</text>
</a>
</g>
</g>
<!-- Node28&#45;&gt;Node29 -->
<g id="edge85" class="edge">
<title>Node28&#45;&gt;Node29</title>
<path fill="none" stroke="midnightblue" d="M219.22,-626.86C235.39,-609.06 265.2,-580.35 298,-568.87 345.4,-552.27 366.71,-545.19 411,-568.87 541.56,-638.67 470.91,-766.69 596,-845.87 732.11,-932.01 930.77,-927.12 1032.74,-917.38"/>
<polygon fill="midnightblue" stroke="midnightblue" points="1033.29,-920.84 1042.89,-916.36 1032.59,-913.87 1033.29,-920.84"/>
</g>
<!-- Node31 -->
<g id="node31" class="node">
<title>Node31</title>
<g id="a_node31"><a xlink:href="../../d6/d00/class_pascal_syntax_analyzer.html#a2cbb9da12f9194bf4c71b8045f5f4ba4" target="_top" xlink:title=" ">
<polygon fill="none" stroke="black" points="447,-1817.87 447,-1847.87 560,-1847.87 560,-1817.87 447,-1817.87"/>
<text text-anchor="start" x="455" y="-1835.87" font-family="Helvetica,sans-Serif" font-size="10.00">PascalSyntaxAnalyzer</text>
<text text-anchor="middle" x="503.5" y="-1824.87" font-family="Helvetica,sans-Serif" font-size="10.00">::syntaxEmptySt</text>
</a>
</g>
</g>
<!-- Node28&#45;&gt;Node31 -->
<g id="edge94" class="edge">
<title>Node28&#45;&gt;Node31</title>
<path fill="none" stroke="midnightblue" d="M207.09,-657.15C211.89,-779.32 245.75,-1595.24 298,-1689.87 331.77,-1751.02 404.13,-1791.87 453.07,-1813.73"/>
<polygon fill="midnightblue" stroke="midnightblue" points="451.96,-1817.07 462.53,-1817.85 454.76,-1810.65 451.96,-1817.07"/>
</g>
<!-- Node32 -->
<g id="node32" class="node">
<title>Node32</title>
<g id="a_node32"><a xlink:href="../../d6/d00/class_pascal_syntax_analyzer.html#ada2725df1a0f0ca0aab5d02466661f01" target="_top" xlink:title=" ">
<polygon fill="none" stroke="black" points="298,-577.87 298,-607.87 411,-607.87 411,-577.87 298,-577.87"/>
<text text-anchor="start" x="306" y="-595.87" font-family="Helvetica,sans-Serif" font-size="10.00">PascalSyntaxAnalyzer</text>
<text text-anchor="middle" x="354.5" y="-584.87" font-family="Helvetica,sans-Serif" font-size="10.00">::syntaxIfSt</text>
</a>
</g>
</g>
<!-- Node28&#45;&gt;Node32 -->
<g id="edge97" class="edge">
<title>Node28&#45;&gt;Node32</title>
<path fill="none" stroke="midnightblue" d="M235.19,-626.82C250.35,-620.78 269.61,-613.95 288.17,-607.93"/>
<polygon fill="midnightblue" stroke="midnightblue" points="289.32,-611.23 297.79,-604.86 287.2,-604.57 289.32,-611.23"/>
</g>
<!-- Node33 -->
<g id="node33" class="node">
<title>Node33</title>
<g id="a_node33"><a xlink:href="../../d6/d00/class_pascal_syntax_analyzer.html#a64ecaf3b371cf72ffcc81058e27ee463" target="_top" xlink:title=" ">
<polygon fill="none" stroke="black" points="298,-904.87 298,-934.87 411,-934.87 411,-904.87 298,-904.87"/>
<text text-anchor="start" x="306" y="-922.87" font-family="Helvetica,sans-Serif" font-size="10.00">PascalSyntaxAnalyzer</text>
<text text-anchor="middle" x="354.5" y="-911.87" font-family="Helvetica,sans-Serif" font-size="10.00">::syntaxReturnSt</text>
</a>
</g>
</g>
<!-- Node28&#45;&gt;Node33 -->
<g id="edge103" class="edge">
<title>Node28&#45;&gt;Node33</title>
<path fill="none" stroke="midnightblue" d="M214.61,-657.21C238.91,-703.15 311.22,-839.91 340.74,-895.73"/>
<polygon fill="midnightblue" stroke="midnightblue" points="337.64,-897.37 345.41,-904.57 343.83,-894.09 337.64,-897.37"/>
</g>
<!-- Node34 -->
<g id="node34" class="node">
<title>Node34</title>
<g id="a_node34"><a xlink:href="../../d6/d00/class_pascal_syntax_analyzer.html#a1c3d21ae52633cd67f4a9d98305e303e" target="_top" xlink:title=" ">
<polygon fill="none" stroke="black" points="298,-626.87 298,-656.87 411,-656.87 411,-626.87 298,-626.87"/>
<text text-anchor="start" x="306" y="-644.87" font-family="Helvetica,sans-Serif" font-size="10.00">PascalSyntaxAnalyzer</text>
<text text-anchor="middle" x="354.5" y="-633.87" font-family="Helvetica,sans-Serif" font-size="10.00">::syntaxWhileSt</text>
</a>
</g>
</g>
<!-- Node28&#45;&gt;Node34 -->
<g id="edge108" class="edge">
<title>Node28&#45;&gt;Node34</title>
<path fill="none" stroke="midnightblue" d="M262.07,-635.3C270.49,-635.12 279.24,-635.07 287.84,-635.15"/>
<polygon fill="midnightblue" stroke="midnightblue" points="287.8,-638.65 297.85,-635.3 287.9,-631.65 287.8,-638.65"/>
</g>
<!-- Node29&#45;&gt;Node2 -->
<g id="edge86" class="edge">
<title>Node29&#45;&gt;Node2</title>
<path fill="none" stroke="midnightblue" d="M1104.33,-924.13C1117.96,-977.99 1164.77,-1158.83 1192,-1211.87 1229.64,-1285.17 1259.35,-1290.26 1305,-1358.87 1341.74,-1414.09 1378.86,-1483.41 1395.89,-1516.13"/>
<polygon fill="midnightblue" stroke="midnightblue" points="1392.8,-1517.78 1400.5,-1525.05 1399.02,-1514.56 1392.8,-1517.78"/>
</g>
<!-- Node29&#45;&gt;Node11 -->
<g id="edge87" class="edge">
<title>Node29&#45;&gt;Node11</title>
<path fill="none" stroke="midnightblue" d="M1112.75,-893.78C1144.55,-854.6 1232.33,-746.37 1305,-655.87 1336.05,-617.2 1372.28,-571.68 1391.63,-547.33"/>
<polygon fill="midnightblue" stroke="midnightblue" points="1394.48,-549.37 1397.96,-539.37 1389,-545.02 1394.48,-549.37"/>
</g>
<!-- Node29&#45;&gt;Node12 -->
<g id="edge88" class="edge">
<title>Node29&#45;&gt;Node12</title>
<path fill="none" stroke="midnightblue" d="M1156.35,-905.85C1242.15,-901.22 1406.06,-892.37 1497.57,-887.43"/>
<polygon fill="midnightblue" stroke="midnightblue" points="1498.02,-890.91 1507.81,-886.87 1497.64,-883.92 1498.02,-890.91"/>
</g>
<!-- Node29&#45;&gt;Node25 -->
<g id="edge89" class="edge">
<title>Node29&#45;&gt;Node25</title>
<path fill="none" stroke="midnightblue" d="M1127.3,-923.98C1185.41,-956.75 1322.36,-1033.98 1379.63,-1066.27"/>
<polygon fill="midnightblue" stroke="midnightblue" points="1377.99,-1069.37 1388.42,-1071.23 1381.43,-1063.27 1377.99,-1069.37"/>
</g>
<!-- Node30 -->
<g id="node30" class="node">
<title>Node30</title>
<g id="a_node30"><a xlink:href="../../d6/d00/class_pascal_syntax_analyzer.html#acdfdfaf0ac3d4ed0be3e240ecc4ff535" target="_top" xlink:title=" ">
<polygon fill="none" stroke="black" points="1192,-615.87 1192,-645.87 1305,-645.87 1305,-615.87 1192,-615.87"/>
<text text-anchor="start" x="1200" y="-633.87" font-family="Helvetica,sans-Serif" font-size="10.00">PascalSyntaxAnalyzer</text>
<text text-anchor="middle" x="1248.5" y="-622.87" font-family="Helvetica,sans-Serif" font-size="10.00">::syntaxStList</text>
</a>
</g>
</g>
<!-- Node29&#45;&gt;Node30 -->
<g id="edge90" class="edge">
<title>Node29&#45;&gt;Node30</title>
<path fill="none" stroke="midnightblue" d="M1105.5,-893.67C1117.54,-858.1 1150.27,-767.28 1192,-698.87 1201.83,-682.75 1215.14,-666.31 1226.26,-653.63"/>
<polygon fill="midnightblue" stroke="midnightblue" points="1229.13,-655.67 1233.2,-645.89 1223.92,-651 1229.13,-655.67"/>
</g>
<!-- Node30&#45;&gt;Node11 -->
<g id="edge91" class="edge">
<title>Node30&#45;&gt;Node11</title>
<path fill="none" stroke="midnightblue" d="M1278.97,-615.78C1287.48,-611.2 1296.72,-606 1305,-600.87 1333.46,-583.21 1364.76,-560.54 1384.74,-545.63"/>
<polygon fill="midnightblue" stroke="midnightblue" points="1386.93,-548.37 1392.83,-539.56 1382.73,-542.77 1386.93,-548.37"/>
</g>
<!-- Node30&#45;&gt;Node12 -->
<g id="edge92" class="edge">
<title>Node30&#45;&gt;Node12</title>
<path fill="none" stroke="midnightblue" d="M1305.17,-623.85C1354.09,-620.79 1424.65,-624.29 1472,-660.87 1535.75,-710.11 1555.36,-811.39 1561.17,-858.6"/>
<polygon fill="midnightblue" stroke="midnightblue" points="1557.7,-859.05 1562.29,-868.6 1564.66,-858.27 1557.7,-859.05"/>
</g>
<!-- Node30&#45;&gt;Node28 -->
<g id="edge93" class="edge">
<title>Node30&#45;&gt;Node28</title>
<path fill="none" stroke="midnightblue" d="M1231.1,-615.74C1194.05,-582.38 1099.86,-502.05 1007,-458.87 945.03,-430.05 925.81,-429.38 858,-420.87 675.98,-398.02 620.24,-398.54 447,-458.87 373.94,-484.31 358.71,-500.92 298,-548.87 270.97,-570.21 243.77,-599.01 226.14,-618.88"/>
<polygon fill="midnightblue" stroke="midnightblue" points="223.38,-616.71 219.42,-626.54 228.65,-621.32 223.38,-616.71"/>
</g>
<!-- Node31&#45;&gt;Node2 -->
<g id="edge95" class="edge">
<title>Node31&#45;&gt;Node2</title>
<path fill="none" stroke="midnightblue" d="M560.14,-1834.67C619.63,-1836.43 716.72,-1838.87 800.5,-1838.87 800.5,-1838.87 800.5,-1838.87 1100.5,-1838.87 1192.01,-1838.87 1233.36,-1871.8 1305,-1814.87 1388.45,-1748.55 1402.67,-1607.17 1405.04,-1554.86"/>
<polygon fill="midnightblue" stroke="midnightblue" points="1408.55,-1554.71 1405.4,-1544.6 1401.55,-1554.47 1408.55,-1554.71"/>
</g>
<!-- Node32&#45;&gt;Node2 -->
<g id="edge98" class="edge">
<title>Node32&#45;&gt;Node2</title>
<path fill="none" stroke="midnightblue" d="M400.76,-607.98C404.68,-610.75 408.2,-614.02 411,-617.87 453.99,-677 422.6,-875.95 447,-944.87 487.9,-1060.38 508.93,-1090.63 596,-1176.87 812.68,-1391.46 895.11,-1447.17 1192,-1516.87 1239.51,-1528.02 1294.39,-1532.47 1336.61,-1534.15"/>
<polygon fill="midnightblue" stroke="midnightblue" points="1336.67,-1537.66 1346.79,-1534.52 1336.92,-1530.66 1336.67,-1537.66"/>
</g>
<!-- Node32&#45;&gt;Node11 -->
<g id="edge99" class="edge">
<title>Node32&#45;&gt;Node11</title>
<path fill="none" stroke="midnightblue" d="M360.11,-577.61C370.62,-545.03 399.24,-467.81 447,-420.87 581.43,-288.73 1030.16,-232.48 1043,-230.87 1158.54,-216.36 1210.45,-162.9 1305,-230.87 1397.78,-297.56 1406.08,-454.17 1405.98,-509.81"/>
<polygon fill="midnightblue" stroke="midnightblue" points="1402.48,-510.05 1405.86,-520.09 1409.48,-510.13 1402.48,-510.05"/>
</g>
<!-- Node32&#45;&gt;Node12 -->
<g id="edge100" class="edge">
<title>Node32&#45;&gt;Node12</title>
<path fill="none" stroke="midnightblue" d="M367.55,-577.55C387.51,-552.66 427.21,-505.34 447,-496.87 493.17,-477.09 510.08,-491.35 560,-496.87 762.35,-519.22 810.25,-544.58 1007,-596.87 1073.98,-614.67 1090.28,-620.87 1156,-642.87 1172.13,-648.27 1175.49,-651.78 1192,-655.87 1313.97,-686.03 1370.41,-620.93 1472,-694.87 1527.18,-735.03 1550.59,-817.52 1559.18,-858.96"/>
<polygon fill="midnightblue" stroke="midnightblue" points="1555.75,-859.64 1561.1,-868.79 1562.62,-858.3 1555.75,-859.64"/>
</g>
<!-- Node32&#45;&gt;Node18 -->
<g id="edge101" class="edge">
<title>Node32&#45;&gt;Node18</title>
<path fill="none" stroke="midnightblue" d="M399.25,-608.01C403.61,-610.79 407.65,-614.06 411,-617.87 483.21,-700.05 498.44,-837.77 501.65,-894.39"/>
<polygon fill="midnightblue" stroke="midnightblue" points="498.16,-894.77 502.14,-904.59 505.15,-894.43 498.16,-894.77"/>
</g>
<!-- Node32&#45;&gt;Node28 -->
<g id="edge102" class="edge">
<title>Node32&#45;&gt;Node28</title>
<path fill="none" stroke="midnightblue" d="M324.63,-607.98C309.46,-614.02 290.21,-620.85 271.68,-626.85"/>
<polygon fill="midnightblue" stroke="midnightblue" points="270.54,-623.54 262.07,-629.91 272.66,-630.21 270.54,-623.54"/>
</g>
<!-- Node33&#45;&gt;Node2 -->
<g id="edge104" class="edge">
<title>Node33&#45;&gt;Node2</title>
<path fill="none" stroke="midnightblue" d="M356.53,-935.13C363,-1029.27 399.45,-1528.35 447,-1574.87 512.42,-1638.86 559.99,-1598.87 651.5,-1598.87 651.5,-1598.87 651.5,-1598.87 802.5,-1598.87 894.01,-1598.87 922.32,-1588.16 1007,-1622.87 1025.76,-1630.55 1024.11,-1643.52 1043,-1650.87 1104.92,-1674.93 1125.62,-1660.2 1192,-1662.87 1242.18,-1664.88 1259.83,-1684.83 1305,-1662.87 1351.82,-1640.1 1383.31,-1583.79 1397.28,-1554.02"/>
<polygon fill="midnightblue" stroke="midnightblue" points="1400.56,-1555.25 1401.49,-1544.69 1394.18,-1552.37 1400.56,-1555.25"/>
</g>
<!-- Node33&#45;&gt;Node11 -->
<g id="edge105" class="edge">
<title>Node33&#45;&gt;Node11</title>
<path fill="none" stroke="midnightblue" d="M358.62,-904.75C369.57,-853.19 407.67,-685.32 447,-648.87 509.65,-590.8 1107.24,-469.5 1192,-458.87 1241.83,-452.61 1257.13,-443.66 1305,-458.87 1338.52,-469.51 1370.49,-495.83 1389.04,-513.26"/>
<polygon fill="midnightblue" stroke="midnightblue" points="1386.74,-515.9 1396.36,-520.33 1391.6,-510.87 1386.74,-515.9"/>
</g>
<!-- Node33&#45;&gt;Node12 -->
<g id="edge106" class="edge">
<title>Node33&#45;&gt;Node12</title>
<path fill="none" stroke="midnightblue" d="M363.8,-935.2C378.48,-961.54 410.91,-1016.37 447,-1055.87 504.55,-1118.84 520.03,-1138.07 596,-1176.87 818.76,-1290.63 905.9,-1237.06 1156,-1232.87 1296.6,-1230.51 1363.03,-1305.75 1472,-1216.87 1520.62,-1177.21 1550.9,-979.8 1560.33,-909.11"/>
<polygon fill="midnightblue" stroke="midnightblue" points="1563.84,-909.26 1561.66,-898.89 1556.9,-908.35 1563.84,-909.26"/>
</g>
<!-- Node33&#45;&gt;Node18 -->
<g id="edge107" class="edge">
<title>Node33&#45;&gt;Node18</title>
<path fill="none" stroke="midnightblue" d="M411.07,-919.87C419.49,-919.87 428.24,-919.87 436.84,-919.87"/>
<polygon fill="midnightblue" stroke="midnightblue" points="436.85,-923.37 446.85,-919.87 436.85,-916.37 436.85,-923.37"/>
</g>
<!-- Node34&#45;&gt;Node2 -->
<g id="edge109" class="edge">
<title>Node34&#45;&gt;Node2</title>
<path fill="none" stroke="midnightblue" d="M359.38,-656.93C369.34,-696.07 396.06,-804.32 411,-895.87 461.61,-1206.05 337.21,-1560.87 651.5,-1560.87 651.5,-1560.87 651.5,-1560.87 802.5,-1560.87 1025.89,-1560.87 1085.08,-1611.06 1305,-1571.87 1330.05,-1567.4 1357.05,-1557.13 1376.74,-1548.54"/>
<polygon fill="midnightblue" stroke="midnightblue" points="1378.36,-1551.65 1386.06,-1544.37 1375.5,-1545.27 1378.36,-1551.65"/>
</g>
<!-- Node34&#45;&gt;Node11 -->
<g id="edge110" class="edge">
<title>Node34&#45;&gt;Node11</title>
<path fill="none" stroke="midnightblue" d="M400.34,-626.86C404.28,-624.3 407.93,-621.32 411,-617.87 448.25,-575.9 407.74,-536.95 447,-496.87 641.62,-298.13 768.63,-351.59 1043,-305.87 1157.87,-286.72 1207.4,-239.34 1305,-302.87 1377.93,-350.33 1398.33,-464.11 1403.7,-510.09"/>
<polygon fill="midnightblue" stroke="midnightblue" points="1400.24,-510.66 1404.77,-520.24 1407.2,-509.93 1400.24,-510.66"/>
</g>
<!-- Node34&#45;&gt;Node12 -->
<g id="edge111" class="edge">
<title>Node34&#45;&gt;Node12</title>
<path fill="none" stroke="midnightblue" d="M405.25,-626.84C463.65,-610.55 563.69,-586.87 651.5,-586.87 651.5,-586.87 651.5,-586.87 802.5,-586.87 951.74,-586.87 1387.7,-781.84 1472,-824.87 1493.65,-835.92 1516.63,-850.75 1534.15,-862.78"/>
<polygon fill="midnightblue" stroke="midnightblue" points="1532.57,-865.94 1542.78,-868.78 1536.57,-860.2 1532.57,-865.94"/>
</g>
<!-- Node34&#45;&gt;Node18 -->
<g id="edge112" class="edge">
<title>Node34&#45;&gt;Node18</title>
<path fill="none" stroke="midnightblue" d="M363.61,-657.21C387.91,-703.15 460.22,-839.91 489.74,-895.73"/>
<polygon fill="midnightblue" stroke="midnightblue" points="486.64,-897.37 494.41,-904.57 492.83,-894.09 486.64,-897.37"/>
</g>
<!-- Node34&#45;&gt;Node28 -->
<g id="edge113" class="edge">
<title>Node34&#45;&gt;Node28</title>
<path fill="none" stroke="midnightblue" d="M297.85,-648.44C289.43,-648.61 280.68,-648.66 272.08,-648.58"/>
<polygon fill="midnightblue" stroke="midnightblue" points="272.12,-645.08 262.07,-648.43 272.02,-652.08 272.12,-645.08"/>
</g>
</g>
</svg>
