<?xml version="1.0" encoding="UTF-8" standalone="no"?>
<!DOCTYPE svg PUBLIC "-//W3C//DTD SVG 1.1//EN"
 "http://www.w3.org/Graphics/SVG/1.1/DTD/svg11.dtd">
<!-- Generated by graphviz version 3.0.0 (20220413.0106)
 -->
<!-- Title: PascalSyntaxAnalyzer::syntaxEmptySt Pages: 1 -->
<svg width="529pt" height="218pt"
 viewBox="0.00 0.00 529.00 218.00" xmlns="http://www.w3.org/2000/svg" xmlns:xlink="http://www.w3.org/1999/xlink">
<g id="graph0" class="graph" transform="scale(1 1) rotate(0) translate(4 214)">
<title>PascalSyntaxAnalyzer::syntaxEmptySt</title>
<!-- Node1 -->
<g id="node1" class="node">
<title>Node1</title>
<g id="a_node1"><a xlink:title=" ">
<polygon fill="#bfbfbf" stroke="black" points="0,-128 0,-158 113,-158 113,-128 0,-128"/>
<text text-anchor="start" x="8" y="-146" font-family="Helvetica,sans-Serif" font-size="10.00">PascalSyntaxAnalyzer</text>
<text text-anchor="middle" x="56.5" y="-135" font-family="Helvetica,sans-Serif" font-size="10.00">::syntaxEmptySt</text>
</a>
</g>
</g>
<!-- Node2 -->
<g id="node2" class="node">
<title>Node2</title>
<g id="a_node2"><a xlink:href="../../d7/d7c/class_a_s_t_factory.html#a31d959009ba9e91a58a5c15e986d130b" target="_top" xlink:title=" ">
<polygon fill="none" stroke="black" points="149,-133.5 149,-152.5 268,-152.5 268,-133.5 149,-133.5"/>
<text text-anchor="middle" x="208.5" y="-140.5" font-family="Helvetica,sans-Serif" font-size="10.00">ASTFactory::createAST</text>
</a>
</g>
</g>
<!-- Node1&#45;&gt;Node2 -->
<g id="edge1" class="edge">
<title>Node1&#45;&gt;Node2</title>
<path fill="none" stroke="midnightblue" d="M113.35,-143C121.59,-143 130.15,-143 138.6,-143"/>
<polygon fill="midnightblue" stroke="midnightblue" points="138.84,-146.5 148.84,-143 138.84,-139.5 138.84,-146.5"/>
</g>
<!-- Node3 -->
<g id="node3" class="node">
<title>Node3</title>
<g id="a_node3"><a xlink:href="../../d0/d11/class_i_token.html#aa0b191c52b609726899a0db5115ec0ef" target="_top" xlink:title=" ">
<polygon fill="none" stroke="black" points="418,-190.5 418,-209.5 521,-209.5 521,-190.5 418,-190.5"/>
<text text-anchor="middle" x="469.5" y="-197.5" font-family="Helvetica,sans-Serif" font-size="10.00">IToken::getAdvType</text>
</a>
</g>
</g>
<!-- Node2&#45;&gt;Node3 -->
<g id="edge2" class="edge">
<title>Node2&#45;&gt;Node3</title>
<path fill="none" stroke="midnightblue" d="M247.59,-152.59C264.79,-156.84 285.38,-161.81 304,-166 339.17,-173.91 378.73,-182.11 410.25,-188.48"/>
<polygon fill="midnightblue" stroke="midnightblue" points="409.68,-191.93 420.18,-190.47 411.07,-185.07 409.68,-191.93"/>
</g>
<!-- Node4 -->
<g id="node4" class="node">
<title>Node4</title>
<g id="a_node4"><a xlink:href="../../db/dc1/class_token.html#ab9a75d3f89e77051d87462654e7576de" target="_top" xlink:title=" ">
<polygon fill="none" stroke="black" points="304,-114.5 304,-133.5 382,-133.5 382,-114.5 304,-114.5"/>
<text text-anchor="middle" x="343" y="-121.5" font-family="Helvetica,sans-Serif" font-size="10.00">Token::getInfo</text>
</a>
</g>
</g>
<!-- Node2&#45;&gt;Node4 -->
<g id="edge3" class="edge">
<title>Node2&#45;&gt;Node4</title>
<path fill="none" stroke="midnightblue" d="M268,-134.61C276.68,-133.37 285.53,-132.1 293.96,-130.89"/>
<polygon fill="midnightblue" stroke="midnightblue" points="294.58,-134.34 303.99,-129.45 293.59,-127.41 294.58,-134.34"/>
</g>
<!-- Node6 -->
<g id="node6" class="node">
<title>Node6</title>
<g id="a_node6"><a xlink:href="../../d0/d11/class_i_token.html#a968b6332dda18b7049a4737be3ffd036" target="_top" xlink:title="Получение типа токена">
<polygon fill="none" stroke="black" points="426.5,-152.5 426.5,-171.5 512.5,-171.5 512.5,-152.5 426.5,-152.5"/>
<text text-anchor="middle" x="469.5" y="-159.5" font-family="Helvetica,sans-Serif" font-size="10.00">IToken::getType</text>
</a>
</g>
</g>
<!-- Node2&#45;&gt;Node6 -->
<g id="edge10" class="edge">
<title>Node2&#45;&gt;Node6</title>
<path fill="none" stroke="midnightblue" d="M268.27,-147.31C312.81,-150.58 373.44,-155.03 416.28,-158.17"/>
<polygon fill="midnightblue" stroke="midnightblue" points="416.27,-161.68 426.5,-158.92 416.78,-154.7 416.27,-161.68"/>
</g>
<!-- Node10 -->
<g id="node10" class="node">
<title>Node10</title>
<g id="a_node10"><a xlink:href="../../db/dc1/class_token.html#a1f07fa2fffeb2f7ab803ef8b424eae8a" target="_top" xlink:title=" ">
<polygon fill="none" stroke="black" points="306,-76.5 306,-95.5 380,-95.5 380,-76.5 306,-76.5"/>
<text text-anchor="middle" x="343" y="-83.5" font-family="Helvetica,sans-Serif" font-size="10.00">Token::setStr</text>
</a>
</g>
</g>
<!-- Node2&#45;&gt;Node10 -->
<g id="edge11" class="edge">
<title>Node2&#45;&gt;Node10</title>
<path fill="none" stroke="midnightblue" d="M231.68,-133.46C253.17,-124.21 286,-110.09 310.26,-99.65"/>
<polygon fill="midnightblue" stroke="midnightblue" points="311.95,-102.74 319.75,-95.57 309.18,-96.31 311.95,-102.74"/>
</g>
<!-- Node4&#45;&gt;Node3 -->
<g id="edge4" class="edge">
<title>Node4&#45;&gt;Node3</title>
<path fill="none" stroke="midnightblue" d="M354.33,-133.57C368.02,-145.87 393.35,-167.27 418,-181 421.54,-182.97 425.32,-184.81 429.16,-186.52"/>
<polygon fill="midnightblue" stroke="midnightblue" points="428.15,-189.89 438.73,-190.47 430.82,-183.42 428.15,-189.89"/>
</g>
<!-- Node5 -->
<g id="node5" class="node">
<title>Node5</title>
<g id="a_node5"><a xlink:href="../../db/dc1/class_token.html#aa5d6826fae7d616e2cfe3e27b5dd594a" target="_top" xlink:title="Возвращает константную ссылку на строковое представление токена">
<polygon fill="none" stroke="black" points="432.5,-38.5 432.5,-57.5 506.5,-57.5 506.5,-38.5 432.5,-38.5"/>
<text text-anchor="middle" x="469.5" y="-45.5" font-family="Helvetica,sans-Serif" font-size="10.00">Token::getStr</text>
</a>
</g>
</g>
<!-- Node4&#45;&gt;Node5 -->
<g id="edge5" class="edge">
<title>Node4&#45;&gt;Node5</title>
<path fill="none" stroke="midnightblue" d="M366.47,-114.39C371.77,-111.69 377.26,-108.51 382,-105 400.69,-91.14 398.62,-79.87 418,-67 420.9,-65.08 424.02,-63.31 427.23,-61.7"/>
<polygon fill="midnightblue" stroke="midnightblue" points="428.76,-64.85 436.44,-57.55 425.89,-58.46 428.76,-64.85"/>
</g>
<!-- Node4&#45;&gt;Node6 -->
<g id="edge6" class="edge">
<title>Node4&#45;&gt;Node6</title>
<path fill="none" stroke="midnightblue" d="M375.42,-133.59C391.19,-138.4 410.51,-144.3 427.44,-149.47"/>
<polygon fill="midnightblue" stroke="midnightblue" points="426.51,-152.84 437.09,-152.41 428.55,-146.15 426.51,-152.84"/>
</g>
<!-- Node7 -->
<g id="node7" class="node">
<title>Node7</title>
<g id="a_node7"><a xlink:href="../../db/dc1/class_token.html#a81497d9f05f9c69ba4ab8e9c62a391d1" target="_top" xlink:title=" ">
<polygon fill="none" stroke="black" points="438,-0.5 438,-19.5 501,-19.5 501,-0.5 438,-0.5"/>
<text text-anchor="middle" x="469.5" y="-7.5" font-family="Helvetica,sans-Serif" font-size="10.00">Token::line</text>
</a>
</g>
</g>
<!-- Node4&#45;&gt;Node7 -->
<g id="edge7" class="edge">
<title>Node4&#45;&gt;Node7</title>
<path fill="none" stroke="midnightblue" d="M369.31,-114.33C373.91,-111.78 378.39,-108.69 382,-105 408.15,-78.29 390.5,-54.32 418,-29 421.14,-26.11 424.76,-23.65 428.59,-21.55"/>
<polygon fill="midnightblue" stroke="midnightblue" points="430.19,-24.67 437.79,-17.29 427.25,-18.32 430.19,-24.67"/>
</g>
<!-- Node8 -->
<g id="node8" class="node">
<title>Node8</title>
<g id="a_node8"><a xlink:href="../../db/dc1/class_token.html#a715f99ebacdd636c283d15dc8656631c" target="_top" xlink:title=" ">
<polygon fill="none" stroke="black" points="437.5,-114.5 437.5,-133.5 501.5,-133.5 501.5,-114.5 437.5,-114.5"/>
<text text-anchor="middle" x="469.5" y="-121.5" font-family="Helvetica,sans-Serif" font-size="10.00">Token::pos</text>
</a>
</g>
</g>
<!-- Node4&#45;&gt;Node8 -->
<g id="edge8" class="edge">
<title>Node4&#45;&gt;Node8</title>
<path fill="none" stroke="midnightblue" d="M382.03,-124C396.3,-124 412.58,-124 427.14,-124"/>
<polygon fill="midnightblue" stroke="midnightblue" points="427.38,-127.5 437.38,-124 427.38,-120.5 427.38,-127.5"/>
</g>
<!-- Node9 -->
<g id="node9" class="node">
<title>Node9</title>
<g id="a_node9"><a xlink:href="../../db/dc1/class_token.html#a913f22d91c68c0b0f8c2d593b14deca2" target="_top" xlink:title=" ">
<polygon fill="none" stroke="black" points="424,-76.5 424,-95.5 515,-95.5 515,-76.5 424,-76.5"/>
<text text-anchor="middle" x="469.5" y="-83.5" font-family="Helvetica,sans-Serif" font-size="10.00">Token::posInLine</text>
</a>
</g>
</g>
<!-- Node4&#45;&gt;Node9 -->
<g id="edge9" class="edge">
<title>Node4&#45;&gt;Node9</title>
<path fill="none" stroke="midnightblue" d="M375.42,-114.41C391.19,-109.6 410.51,-103.7 427.44,-98.53"/>
<polygon fill="midnightblue" stroke="midnightblue" points="428.55,-101.85 437.09,-95.59 426.51,-95.16 428.55,-101.85"/>
</g>
</g>
</svg>
