<?xml version="1.0" encoding="UTF-8" standalone="no"?>
<!DOCTYPE svg PUBLIC "-//W3C//DTD SVG 1.1//EN"
 "http://www.w3.org/Graphics/SVG/1.1/DTD/svg11.dtd">
<!-- Generated by graphviz version 3.0.0 (20220413.0106)
 -->
<!-- Title: PascalSyntaxAnalyzer::syntaxEmptySt Pages: 1 -->
<svg width="548pt" height="218pt"
 viewBox="0.00 0.00 548.00 218.00" xmlns="http://www.w3.org/2000/svg" xmlns:xlink="http://www.w3.org/1999/xlink">
<g id="graph0" class="graph" transform="scale(1 1) rotate(0) translate(4 214)">
<title>PascalSyntaxAnalyzer::syntaxEmptySt</title>
<!-- Node1 -->
<g id="node1" class="node">
<title>Node1</title>
<g id="a_node1"><a xlink:title=" ">
<polygon fill="#bfbfbf" stroke="black" points="0,-128 0,-158 113,-158 113,-128 0,-128"/>
<text text-anchor="start" x="8" y="-146" font-family="Helvetica,sans-Serif" font-size="10.00">PascalSyntaxAnalyzer</text>
<text text-anchor="middle" x="56.5" y="-135" font-family="Helvetica,sans-Serif" font-size="10.00">::syntaxEmptySt</text>
</a>
</g>
</g>
<!-- Node2 -->
<g id="node2" class="node">
<title>Node2</title>
<g id="a_node2"><a xlink:href="../../d7/d7c/class_a_s_t_factory.html#a31d959009ba9e91a58a5c15e986d130b" target="_top" xlink:title=" ">
<polygon fill="none" stroke="black" points="149,-133.5 149,-152.5 268,-152.5 268,-133.5 149,-133.5"/>
<text text-anchor="middle" x="208.5" y="-140.5" font-family="Helvetica,sans-Serif" font-size="10.00">ASTFactory::createAST</text>
</a>
</g>
</g>
<!-- Node1&#45;&gt;Node2 -->
<g id="edge1" class="edge">
<title>Node1&#45;&gt;Node2</title>
<path fill="none" stroke="midnightblue" d="M113.35,-143C121.59,-143 130.15,-143 138.6,-143"/>
<polygon fill="midnightblue" stroke="midnightblue" points="138.84,-146.5 148.84,-143 138.84,-139.5 138.84,-146.5"/>
</g>
<!-- Node3 -->
<g id="node3" class="node">
<title>Node3</title>
<g id="a_node3"><a xlink:href="../../dd/dfe/class_base_token.html#a800db3c8e8a3e81d20e85206cd5b2927" target="_top" xlink:title=" ">
<polygon fill="none" stroke="black" points="418,-190.5 418,-209.5 540,-209.5 540,-190.5 418,-190.5"/>
<text text-anchor="middle" x="479" y="-197.5" font-family="Helvetica,sans-Serif" font-size="10.00">BaseToken::getAdvType</text>
</a>
</g>
</g>
<!-- Node2&#45;&gt;Node3 -->
<g id="edge2" class="edge">
<title>Node2&#45;&gt;Node3</title>
<path fill="none" stroke="midnightblue" d="M247.12,-152.57C264.4,-156.87 285.2,-161.88 304,-166 340.92,-174.1 382.46,-182.25 415.68,-188.54"/>
<polygon fill="midnightblue" stroke="midnightblue" points="415.24,-192.02 425.72,-190.43 416.54,-185.14 415.24,-192.02"/>
</g>
<!-- Node4 -->
<g id="node4" class="node">
<title>Node4</title>
<g id="a_node4"><a xlink:href="../../db/dc1/class_token.html#ab9a75d3f89e77051d87462654e7576de" target="_top" xlink:title=" ">
<polygon fill="none" stroke="black" points="304,-114.5 304,-133.5 382,-133.5 382,-114.5 304,-114.5"/>
<text text-anchor="middle" x="343" y="-121.5" font-family="Helvetica,sans-Serif" font-size="10.00">Token::getInfo</text>
</a>
</g>
</g>
<!-- Node2&#45;&gt;Node4 -->
<g id="edge3" class="edge">
<title>Node2&#45;&gt;Node4</title>
<path fill="none" stroke="midnightblue" d="M268,-134.61C276.68,-133.37 285.53,-132.1 293.96,-130.89"/>
<polygon fill="midnightblue" stroke="midnightblue" points="294.58,-134.34 303.99,-129.45 293.59,-127.41 294.58,-134.34"/>
</g>
<!-- Node6 -->
<g id="node6" class="node">
<title>Node6</title>
<g id="a_node6"><a xlink:href="../../dd/dfe/class_base_token.html#adf680862efcd78640cb9442b6918dd4d" target="_top" xlink:title="Получение типа токена">
<polygon fill="none" stroke="black" points="426.5,-152.5 426.5,-171.5 531.5,-171.5 531.5,-152.5 426.5,-152.5"/>
<text text-anchor="middle" x="479" y="-159.5" font-family="Helvetica,sans-Serif" font-size="10.00">BaseToken::getType</text>
</a>
</g>
</g>
<!-- Node2&#45;&gt;Node6 -->
<g id="edge10" class="edge">
<title>Node2&#45;&gt;Node6</title>
<path fill="none" stroke="midnightblue" d="M268.09,-147.15C311.9,-150.25 371.66,-154.47 416.21,-157.63"/>
<polygon fill="midnightblue" stroke="midnightblue" points="416.11,-161.13 426.33,-158.34 416.61,-154.15 416.11,-161.13"/>
</g>
<!-- Node10 -->
<g id="node10" class="node">
<title>Node10</title>
<g id="a_node10"><a xlink:href="../../db/dc1/class_token.html#a1f07fa2fffeb2f7ab803ef8b424eae8a" target="_top" xlink:title=" ">
<polygon fill="none" stroke="black" points="306,-76.5 306,-95.5 380,-95.5 380,-76.5 306,-76.5"/>
<text text-anchor="middle" x="343" y="-83.5" font-family="Helvetica,sans-Serif" font-size="10.00">Token::setStr</text>
</a>
</g>
</g>
<!-- Node2&#45;&gt;Node10 -->
<g id="edge11" class="edge">
<title>Node2&#45;&gt;Node10</title>
<path fill="none" stroke="midnightblue" d="M231.68,-133.46C253.17,-124.21 286,-110.09 310.26,-99.65"/>
<polygon fill="midnightblue" stroke="midnightblue" points="311.95,-102.74 319.75,-95.57 309.18,-96.31 311.95,-102.74"/>
</g>
<!-- Node4&#45;&gt;Node3 -->
<g id="edge4" class="edge">
<title>Node4&#45;&gt;Node3</title>
<path fill="none" stroke="midnightblue" d="M354.22,-133.78C367.79,-146.3 392.99,-167.93 418,-181 422.2,-183.19 426.69,-185.19 431.27,-186.99"/>
<polygon fill="midnightblue" stroke="midnightblue" points="430.1,-190.29 440.69,-190.42 432.49,-183.71 430.1,-190.29"/>
</g>
<!-- Node5 -->
<g id="node5" class="node">
<title>Node5</title>
<g id="a_node5"><a xlink:href="../../db/dc1/class_token.html#aa5d6826fae7d616e2cfe3e27b5dd594a" target="_top" xlink:title="Возвращает константную ссылку на строковое представление токена">
<polygon fill="none" stroke="black" points="442,-38.5 442,-57.5 516,-57.5 516,-38.5 442,-38.5"/>
<text text-anchor="middle" x="479" y="-45.5" font-family="Helvetica,sans-Serif" font-size="10.00">Token::getStr</text>
</a>
</g>
</g>
<!-- Node4&#45;&gt;Node5 -->
<g id="edge5" class="edge">
<title>Node4&#45;&gt;Node5</title>
<path fill="none" stroke="midnightblue" d="M366.47,-114.39C371.77,-111.69 377.26,-108.51 382,-105 400.69,-91.14 398.28,-79.35 418,-67 422.4,-64.24 427.24,-61.86 432.19,-59.79"/>
<polygon fill="midnightblue" stroke="midnightblue" points="433.64,-62.99 441.79,-56.22 431.2,-56.43 433.64,-62.99"/>
</g>
<!-- Node4&#45;&gt;Node6 -->
<g id="edge6" class="edge">
<title>Node4&#45;&gt;Node6</title>
<path fill="none" stroke="midnightblue" d="M377.81,-133.59C395.03,-138.47 416.16,-144.46 434.57,-149.68"/>
<polygon fill="midnightblue" stroke="midnightblue" points="433.62,-153.05 444.2,-152.41 435.53,-146.32 433.62,-153.05"/>
</g>
<!-- Node7 -->
<g id="node7" class="node">
<title>Node7</title>
<g id="a_node7"><a xlink:href="../../db/dc1/class_token.html#a81497d9f05f9c69ba4ab8e9c62a391d1" target="_top" xlink:title=" ">
<polygon fill="none" stroke="black" points="447.5,-0.5 447.5,-19.5 510.5,-19.5 510.5,-0.5 447.5,-0.5"/>
<text text-anchor="middle" x="479" y="-7.5" font-family="Helvetica,sans-Serif" font-size="10.00">Token::line</text>
</a>
</g>
</g>
<!-- Node4&#45;&gt;Node7 -->
<g id="edge7" class="edge">
<title>Node4&#45;&gt;Node7</title>
<path fill="none" stroke="midnightblue" d="M369.31,-114.33C373.91,-111.78 378.39,-108.69 382,-105 408.15,-78.29 389.84,-53.58 418,-29 423.66,-24.06 430.61,-20.4 437.74,-17.7"/>
<polygon fill="midnightblue" stroke="midnightblue" points="439.04,-20.96 447.48,-14.56 436.89,-14.29 439.04,-20.96"/>
</g>
<!-- Node8 -->
<g id="node8" class="node">
<title>Node8</title>
<g id="a_node8"><a xlink:href="../../db/dc1/class_token.html#a715f99ebacdd636c283d15dc8656631c" target="_top" xlink:title=" ">
<polygon fill="none" stroke="black" points="447,-114.5 447,-133.5 511,-133.5 511,-114.5 447,-114.5"/>
<text text-anchor="middle" x="479" y="-121.5" font-family="Helvetica,sans-Serif" font-size="10.00">Token::pos</text>
</a>
</g>
</g>
<!-- Node4&#45;&gt;Node8 -->
<g id="edge8" class="edge">
<title>Node4&#45;&gt;Node8</title>
<path fill="none" stroke="midnightblue" d="M382.04,-124C398.96,-124 418.92,-124 436.25,-124"/>
<polygon fill="midnightblue" stroke="midnightblue" points="436.65,-127.5 446.65,-124 436.65,-120.5 436.65,-127.5"/>
</g>
<!-- Node9 -->
<g id="node9" class="node">
<title>Node9</title>
<g id="a_node9"><a xlink:href="../../db/dc1/class_token.html#a913f22d91c68c0b0f8c2d593b14deca2" target="_top" xlink:title=" ">
<polygon fill="none" stroke="black" points="433.5,-76.5 433.5,-95.5 524.5,-95.5 524.5,-76.5 433.5,-76.5"/>
<text text-anchor="middle" x="479" y="-83.5" font-family="Helvetica,sans-Serif" font-size="10.00">Token::posInLine</text>
</a>
</g>
</g>
<!-- Node4&#45;&gt;Node9 -->
<g id="edge9" class="edge">
<title>Node4&#45;&gt;Node9</title>
<path fill="none" stroke="midnightblue" d="M377.81,-114.41C395.03,-109.53 416.16,-103.54 434.57,-98.32"/>
<polygon fill="midnightblue" stroke="midnightblue" points="435.53,-101.68 444.2,-95.59 433.62,-94.95 435.53,-101.68"/>
</g>
</g>
</svg>
