<?xml version="1.0" encoding="UTF-8" standalone="no"?>
<!DOCTYPE svg PUBLIC "-//W3C//DTD SVG 1.1//EN"
 "http://www.w3.org/Graphics/SVG/1.1/DTD/svg11.dtd">
<!-- Generated by graphviz version 3.0.0 (20220413.0106)
 -->
<!-- Title: src/Syntax.cpp Pages: 1 -->
<svg width="625pt" height="308pt"
 viewBox="0.00 0.00 625.00 308.00" xmlns="http://www.w3.org/2000/svg" xmlns:xlink="http://www.w3.org/1999/xlink">
<g id="graph0" class="graph" transform="scale(1 1) rotate(0) translate(4 304)">
<title>src/Syntax.cpp</title>
<!-- Node1 -->
<g id="node1" class="node">
<title>Node1</title>
<g id="a_node1"><a xlink:title=" ">
<polygon fill="#bfbfbf" stroke="black" points="387,-280.5 387,-299.5 467,-299.5 467,-280.5 387,-280.5"/>
<text text-anchor="middle" x="427" y="-287.5" font-family="Helvetica,sans-Serif" font-size="10.00">src/Syntax.cpp</text>
</a>
</g>
</g>
<!-- Node2 -->
<g id="node2" class="node">
<title>Node2</title>
<g id="a_node2"><a xlink:href="../../df/d3f/_syntax_8hpp.html" target="_top" xlink:title=" ">
<polygon fill="none" stroke="black" points="165,-112.5 165,-131.5 229,-131.5 229,-112.5 165,-112.5"/>
<text text-anchor="middle" x="197" y="-119.5" font-family="Helvetica,sans-Serif" font-size="10.00">Syntax.hpp</text>
</a>
</g>
</g>
<!-- Node1&#45;&gt;Node2 -->
<g id="edge1" class="edge">
<title>Node1&#45;&gt;Node2</title>
<path fill="none" stroke="midnightblue" d="M414.96,-280.31C377.7,-253.42 263.99,-171.35 217.32,-137.67"/>
<polygon fill="midnightblue" stroke="midnightblue" points="219.08,-134.62 208.92,-131.61 214.98,-140.3 219.08,-134.62"/>
</g>
<!-- Node14 -->
<g id="node14" class="node">
<title>Node14</title>
<g id="a_node14"><a xlink:title=" ">
<polygon fill="none" stroke="#bfbfbf" points="524.5,-224.5 524.5,-243.5 593.5,-243.5 593.5,-224.5 524.5,-224.5"/>
<text text-anchor="middle" x="559" y="-231.5" font-family="Helvetica,sans-Serif" font-size="10.00">fmt/format.h</text>
</a>
</g>
</g>
<!-- Node1&#45;&gt;Node14 -->
<g id="edge14" class="edge">
<title>Node1&#45;&gt;Node14</title>
<path fill="none" stroke="midnightblue" d="M447.92,-280.44C469.74,-271.52 504.15,-257.44 528.89,-247.32"/>
<polygon fill="midnightblue" stroke="midnightblue" points="530.25,-250.54 538.18,-243.52 527.6,-244.06 530.25,-250.54"/>
</g>
<!-- Node15 -->
<g id="node15" class="node">
<title>Node15</title>
<g id="a_node15"><a xlink:href="../../d4/dcb/_a_s_t_8hpp.html" target="_top" xlink:title=" ">
<polygon fill="none" stroke="black" points="405,-168.5 405,-187.5 459,-187.5 459,-168.5 405,-168.5"/>
<text text-anchor="middle" x="432" y="-175.5" font-family="Helvetica,sans-Serif" font-size="10.00">AST.hpp</text>
</a>
</g>
</g>
<!-- Node1&#45;&gt;Node15 -->
<g id="edge15" class="edge">
<title>Node1&#45;&gt;Node15</title>
<path fill="none" stroke="midnightblue" d="M422.2,-280.2C416.01,-267.73 406.52,-244.2 411,-224 413.12,-214.43 417.51,-204.48 421.72,-196.37"/>
<polygon fill="midnightblue" stroke="midnightblue" points="424.82,-198 426.62,-187.56 418.7,-194.6 424.82,-198"/>
</g>
<!-- Node19 -->
<g id="node19" class="node">
<title>Node19</title>
<g id="a_node19"><a xlink:href="../../d4/d0d/_a_s_t_factory_8hpp.html" target="_top" xlink:title=" ">
<polygon fill="none" stroke="black" points="420,-224.5 420,-243.5 506,-243.5 506,-224.5 420,-224.5"/>
<text text-anchor="middle" x="463" y="-231.5" font-family="Helvetica,sans-Serif" font-size="10.00">ASTFactory.hpp</text>
</a>
</g>
</g>
<!-- Node1&#45;&gt;Node19 -->
<g id="edge26" class="edge">
<title>Node1&#45;&gt;Node19</title>
<path fill="none" stroke="midnightblue" d="M432.94,-280.08C437.98,-272.53 445.34,-261.49 451.51,-252.23"/>
<polygon fill="midnightblue" stroke="midnightblue" points="454.53,-254.01 457.17,-243.75 448.71,-250.13 454.53,-254.01"/>
</g>
<!-- Node3 -->
<g id="node3" class="node">
<title>Node3</title>
<g id="a_node3"><a xlink:title=" ">
<polygon fill="none" stroke="#bfbfbf" points="197,-0.5 197,-19.5 241,-19.5 241,-0.5 197,-0.5"/>
<text text-anchor="middle" x="219" y="-7.5" font-family="Helvetica,sans-Serif" font-size="10.00">vector</text>
</a>
</g>
</g>
<!-- Node2&#45;&gt;Node3 -->
<g id="edge2" class="edge">
<title>Node2&#45;&gt;Node3</title>
<path fill="none" stroke="midnightblue" d="M198.73,-112.37C202.28,-94.62 210.47,-53.67 215.28,-29.6"/>
<polygon fill="midnightblue" stroke="midnightblue" points="218.75,-30.08 217.28,-19.59 211.89,-28.71 218.75,-30.08"/>
</g>
<!-- Node4 -->
<g id="node4" class="node">
<title>Node4</title>
<g id="a_node4"><a xlink:title=" ">
<polygon fill="none" stroke="#bfbfbf" points="0,-56.5 0,-75.5 72,-75.5 72,-56.5 0,-56.5"/>
<text text-anchor="middle" x="36" y="-63.5" font-family="Helvetica,sans-Serif" font-size="10.00">initializer_list</text>
</a>
</g>
</g>
<!-- Node2&#45;&gt;Node4 -->
<g id="edge3" class="edge">
<title>Node2&#45;&gt;Node4</title>
<path fill="none" stroke="midnightblue" d="M171.49,-112.44C144.4,-103.36 101.41,-88.94 71.13,-78.78"/>
<polygon fill="midnightblue" stroke="midnightblue" points="71.99,-75.38 61.39,-75.52 69.76,-82.01 71.99,-75.38"/>
</g>
<!-- Node5 -->
<g id="node5" class="node">
<title>Node5</title>
<g id="a_node5"><a xlink:title=" ">
<polygon fill="none" stroke="#bfbfbf" points="90,-56.5 90,-75.5 180,-75.5 180,-56.5 90,-56.5"/>
<text text-anchor="middle" x="135" y="-63.5" font-family="Helvetica,sans-Serif" font-size="10.00">magic_enum.hpp</text>
</a>
</g>
</g>
<!-- Node2&#45;&gt;Node5 -->
<g id="edge4" class="edge">
<title>Node2&#45;&gt;Node5</title>
<path fill="none" stroke="midnightblue" d="M187.04,-112.32C177.87,-104.34 164.06,-92.31 152.97,-82.65"/>
<polygon fill="midnightblue" stroke="midnightblue" points="154.98,-79.76 145.14,-75.83 150.38,-85.04 154.98,-79.76"/>
</g>
<!-- Node6 -->
<g id="node6" class="node">
<title>Node6</title>
<g id="a_node6"><a xlink:href="../../d5/df9/_list_8cpp.html" target="_top" xlink:title="Двусвязный список">
<polygon fill="none" stroke="black" points="274.5,-56.5 274.5,-75.5 325.5,-75.5 325.5,-56.5 274.5,-56.5"/>
<text text-anchor="middle" x="300" y="-63.5" font-family="Helvetica,sans-Serif" font-size="10.00">List.cpp</text>
</a>
</g>
</g>
<!-- Node2&#45;&gt;Node6 -->
<g id="edge5" class="edge">
<title>Node2&#45;&gt;Node6</title>
<path fill="none" stroke="midnightblue" d="M213.55,-112.32C229.99,-103.7 255.43,-90.36 274.47,-80.39"/>
<polygon fill="midnightblue" stroke="midnightblue" points="276.26,-83.4 283.49,-75.65 273.01,-77.2 276.26,-83.4"/>
</g>
<!-- Node10 -->
<g id="node10" class="node">
<title>Node10</title>
<g id="a_node10"><a xlink:href="../../de/d32/_token_8hpp.html" target="_top" xlink:title=" ">
<polygon fill="none" stroke="black" points="555,-56.5 555,-75.5 617,-75.5 617,-56.5 555,-56.5"/>
<text text-anchor="middle" x="586" y="-63.5" font-family="Helvetica,sans-Serif" font-size="10.00">Token.hpp</text>
</a>
</g>
</g>
<!-- Node2&#45;&gt;Node10 -->
<g id="edge10" class="edge">
<title>Node2&#45;&gt;Node10</title>
<path fill="none" stroke="midnightblue" d="M229.16,-116.54C299.54,-106.76 467.12,-83.5 544.96,-72.7"/>
<polygon fill="midnightblue" stroke="midnightblue" points="545.46,-76.16 554.88,-71.32 544.5,-69.23 545.46,-76.16"/>
</g>
<!-- Node13 -->
<g id="node13" class="node">
<title>Node13</title>
<g id="a_node13"><a xlink:href="../../d8/de6/_a_s_tclasses_8hpp.html" target="_top" xlink:title=" ">
<polygon fill="none" stroke="black" points="343,-56.5 343,-75.5 431,-75.5 431,-56.5 343,-56.5"/>
<text text-anchor="middle" x="387" y="-63.5" font-family="Helvetica,sans-Serif" font-size="10.00">ASTclasses.hpp</text>
</a>
</g>
</g>
<!-- Node2&#45;&gt;Node13 -->
<g id="edge13" class="edge">
<title>Node2&#45;&gt;Node13</title>
<path fill="none" stroke="midnightblue" d="M227.11,-112.44C259.63,-103.2 311.58,-88.44 347.39,-78.26"/>
<polygon fill="midnightblue" stroke="midnightblue" points="348.37,-81.62 357.03,-75.52 346.46,-74.88 348.37,-81.62"/>
</g>
<!-- Node6&#45;&gt;Node3 -->
<g id="edge7" class="edge">
<title>Node6&#45;&gt;Node3</title>
<path fill="none" stroke="midnightblue" d="M286.99,-56.32C274.47,-47.98 255.32,-35.21 240.53,-25.35"/>
<polygon fill="midnightblue" stroke="midnightblue" points="242.24,-22.29 231.98,-19.65 238.36,-28.11 242.24,-22.29"/>
</g>
<!-- Node7 -->
<g id="node7" class="node">
<title>Node7</title>
<g id="a_node7"><a xlink:title=" ">
<polygon fill="none" stroke="#bfbfbf" points="401.5,-0.5 401.5,-19.5 450.5,-19.5 450.5,-0.5 401.5,-0.5"/>
<text text-anchor="middle" x="426" y="-7.5" font-family="Helvetica,sans-Serif" font-size="10.00">cstddef</text>
</a>
</g>
</g>
<!-- Node6&#45;&gt;Node7 -->
<g id="edge6" class="edge">
<title>Node6&#45;&gt;Node7</title>
<path fill="none" stroke="midnightblue" d="M319.97,-56.44C340.61,-47.6 373.06,-33.69 396.63,-23.59"/>
<polygon fill="midnightblue" stroke="midnightblue" points="398.32,-26.67 406.13,-19.52 395.56,-20.24 398.32,-26.67"/>
</g>
<!-- Node8 -->
<g id="node8" class="node">
<title>Node8</title>
<g id="a_node8"><a xlink:title=" ">
<polygon fill="none" stroke="#bfbfbf" points="259.5,-0.5 259.5,-19.5 318.5,-19.5 318.5,-0.5 259.5,-0.5"/>
<text text-anchor="middle" x="289" y="-7.5" font-family="Helvetica,sans-Serif" font-size="10.00">stdexcept</text>
</a>
</g>
</g>
<!-- Node6&#45;&gt;Node8 -->
<g id="edge8" class="edge">
<title>Node6&#45;&gt;Node8</title>
<path fill="none" stroke="midnightblue" d="M298.18,-56.08C296.73,-48.93 294.63,-38.64 292.81,-29.69"/>
<polygon fill="midnightblue" stroke="midnightblue" points="296.21,-28.85 290.78,-19.75 289.35,-30.25 296.21,-28.85"/>
</g>
<!-- Node9 -->
<g id="node9" class="node">
<title>Node9</title>
<g id="a_node9"><a xlink:title=" ">
<polygon fill="none" stroke="#bfbfbf" points="336.5,-0.5 336.5,-19.5 383.5,-19.5 383.5,-0.5 336.5,-0.5"/>
<text text-anchor="middle" x="360" y="-7.5" font-family="Helvetica,sans-Serif" font-size="10.00">iterator</text>
</a>
</g>
</g>
<!-- Node6&#45;&gt;Node9 -->
<g id="edge9" class="edge">
<title>Node6&#45;&gt;Node9</title>
<path fill="none" stroke="midnightblue" d="M309.64,-56.32C318.51,-48.34 331.87,-36.31 342.61,-26.65"/>
<polygon fill="midnightblue" stroke="midnightblue" points="345.09,-29.13 350.18,-19.83 340.41,-23.92 345.09,-29.13"/>
</g>
<!-- Node11 -->
<g id="node11" class="node">
<title>Node11</title>
<g id="a_node11"><a xlink:title=" ">
<polygon fill="none" stroke="#bfbfbf" points="506.5,-0.5 506.5,-19.5 547.5,-19.5 547.5,-0.5 506.5,-0.5"/>
<text text-anchor="middle" x="527" y="-7.5" font-family="Helvetica,sans-Serif" font-size="10.00">string</text>
</a>
</g>
</g>
<!-- Node10&#45;&gt;Node11 -->
<g id="edge11" class="edge">
<title>Node10&#45;&gt;Node11</title>
<path fill="none" stroke="midnightblue" d="M576.52,-56.32C567.8,-48.34 554.66,-36.31 544.1,-26.65"/>
<polygon fill="midnightblue" stroke="midnightblue" points="546.39,-24 536.65,-19.83 541.67,-29.17 546.39,-24"/>
</g>
<!-- Node12 -->
<g id="node12" class="node">
<title>Node12</title>
<g id="a_node12"><a xlink:title=" ">
<polygon fill="none" stroke="#bfbfbf" points="566,-0.5 566,-19.5 606,-19.5 606,-0.5 566,-0.5"/>
<text text-anchor="middle" x="586" y="-7.5" font-family="Helvetica,sans-Serif" font-size="10.00">regex</text>
</a>
</g>
</g>
<!-- Node10&#45;&gt;Node12 -->
<g id="edge12" class="edge">
<title>Node10&#45;&gt;Node12</title>
<path fill="none" stroke="midnightblue" d="M586,-56.08C586,-49.01 586,-38.86 586,-29.99"/>
<polygon fill="midnightblue" stroke="midnightblue" points="589.5,-29.75 586,-19.75 582.5,-29.75 589.5,-29.75"/>
</g>
<!-- Node15&#45;&gt;Node3 -->
<g id="edge16" class="edge">
<title>Node15&#45;&gt;Node3</title>
<path fill="none" stroke="midnightblue" d="M412.52,-168.47C379.48,-153.34 311.51,-119.28 265,-76 250.03,-62.07 237.01,-42.55 228.68,-28.54"/>
<polygon fill="midnightblue" stroke="midnightblue" points="231.71,-26.79 223.69,-19.86 225.64,-30.27 231.71,-26.79"/>
</g>
<!-- Node15&#45;&gt;Node10 -->
<g id="edge18" class="edge">
<title>Node15&#45;&gt;Node10</title>
<path fill="none" stroke="midnightblue" d="M459.19,-170.67C482.99,-164.09 517.49,-151.9 542,-132 557.66,-119.28 569.93,-99.53 577.48,-85.14"/>
<polygon fill="midnightblue" stroke="midnightblue" points="580.82,-86.29 582.14,-75.78 574.55,-83.18 580.82,-86.29"/>
</g>
<!-- Node15&#45;&gt;Node13 -->
<g id="edge25" class="edge">
<title>Node15&#45;&gt;Node13</title>
<path fill="none" stroke="midnightblue" d="M421.01,-168.32C411.49,-160.09 398.29,-146.82 392,-132 385.84,-117.5 384.9,-99.55 385.33,-86.18"/>
<polygon fill="midnightblue" stroke="midnightblue" points="388.84,-86.02 385.95,-75.83 381.86,-85.6 388.84,-86.02"/>
</g>
<!-- Node16 -->
<g id="node16" class="node">
<title>Node16</title>
<g id="a_node16"><a xlink:title=" ">
<polygon fill="none" stroke="#bfbfbf" points="481.5,-112.5 481.5,-131.5 532.5,-131.5 532.5,-112.5 481.5,-112.5"/>
<text text-anchor="middle" x="507" y="-119.5" font-family="Helvetica,sans-Serif" font-size="10.00">memory</text>
</a>
</g>
</g>
<!-- Node15&#45;&gt;Node16 -->
<g id="edge17" class="edge">
<title>Node15&#45;&gt;Node16</title>
<path fill="none" stroke="midnightblue" d="M444.05,-168.32C455.46,-160.11 472.83,-147.6 486.43,-137.81"/>
<polygon fill="midnightblue" stroke="midnightblue" points="488.66,-140.52 494.73,-131.83 484.57,-134.84 488.66,-140.52"/>
</g>
<!-- Node17 -->
<g id="node17" class="node">
<title>Node17</title>
<g id="a_node17"><a xlink:href="../../db/d42/_visitor_8hpp.html" target="_top" xlink:title=" ">
<polygon fill="none" stroke="black" points="401,-112.5 401,-131.5 463,-131.5 463,-112.5 401,-112.5"/>
<text text-anchor="middle" x="432" y="-119.5" font-family="Helvetica,sans-Serif" font-size="10.00">Visitor.hpp</text>
</a>
</g>
</g>
<!-- Node15&#45;&gt;Node17 -->
<g id="edge19" class="edge">
<title>Node15&#45;&gt;Node17</title>
<path fill="none" stroke="midnightblue" d="M432,-168.08C432,-161.01 432,-150.86 432,-141.99"/>
<polygon fill="midnightblue" stroke="midnightblue" points="435.5,-141.75 432,-131.75 428.5,-141.75 435.5,-141.75"/>
</g>
<!-- Node17&#45;&gt;Node6 -->
<g id="edge23" class="edge">
<title>Node17&#45;&gt;Node6</title>
<path fill="none" stroke="midnightblue" d="M411.08,-112.44C389.26,-103.52 354.85,-89.44 330.11,-79.32"/>
<polygon fill="midnightblue" stroke="midnightblue" points="331.4,-76.06 320.82,-75.52 328.75,-82.54 331.4,-76.06"/>
</g>
<!-- Node17&#45;&gt;Node10 -->
<g id="edge22" class="edge">
<title>Node17&#45;&gt;Node10</title>
<path fill="none" stroke="midnightblue" d="M456.4,-112.44C482.2,-103.4 523.08,-89.06 552.02,-78.92"/>
<polygon fill="midnightblue" stroke="midnightblue" points="553.43,-82.13 561.71,-75.52 551.12,-75.52 553.43,-82.13"/>
</g>
<!-- Node17&#45;&gt;Node11 -->
<g id="edge21" class="edge">
<title>Node17&#45;&gt;Node11</title>
<path fill="none" stroke="midnightblue" d="M455.85,-112.41C472.72,-105.16 494.64,-93.2 508,-76 518.36,-62.66 523.07,-43.84 525.22,-29.87"/>
<polygon fill="midnightblue" stroke="midnightblue" points="528.69,-30.27 526.44,-19.92 521.75,-29.41 528.69,-30.27"/>
</g>
<!-- Node17&#45;&gt;Node13 -->
<g id="edge24" class="edge">
<title>Node17&#45;&gt;Node13</title>
<path fill="none" stroke="midnightblue" d="M424.57,-112.08C418.15,-104.38 408.69,-93.03 400.88,-83.65"/>
<polygon fill="midnightblue" stroke="midnightblue" points="403.38,-81.19 394.29,-75.75 398.01,-85.67 403.38,-81.19"/>
</g>
<!-- Node18 -->
<g id="node18" class="node">
<title>Node18</title>
<g id="a_node18"><a xlink:title=" ">
<polygon fill="none" stroke="#bfbfbf" points="449,-56.5 449,-75.5 499,-75.5 499,-56.5 449,-56.5"/>
<text text-anchor="middle" x="474" y="-63.5" font-family="Helvetica,sans-Serif" font-size="10.00">fstream</text>
</a>
</g>
</g>
<!-- Node17&#45;&gt;Node18 -->
<g id="edge20" class="edge">
<title>Node17&#45;&gt;Node18</title>
<path fill="none" stroke="midnightblue" d="M438.94,-112.08C444.93,-104.38 453.75,-93.03 461.05,-83.65"/>
<polygon fill="midnightblue" stroke="midnightblue" points="463.82,-85.79 467.19,-75.75 458.29,-81.5 463.82,-85.79"/>
</g>
<!-- Node19&#45;&gt;Node10 -->
<g id="edge28" class="edge">
<title>Node19&#45;&gt;Node10</title>
<path fill="none" stroke="midnightblue" d="M474.72,-224.3C495.55,-208.27 539.14,-172.02 564,-132 572.94,-117.61 578.73,-99.15 582.12,-85.59"/>
<polygon fill="midnightblue" stroke="midnightblue" points="585.6,-86.07 584.42,-75.54 578.78,-84.51 585.6,-86.07"/>
</g>
<!-- Node19&#45;&gt;Node15 -->
<g id="edge27" class="edge">
<title>Node19&#45;&gt;Node15</title>
<path fill="none" stroke="midnightblue" d="M457.88,-224.08C453.59,-216.61 447.34,-205.72 442.06,-196.52"/>
<polygon fill="midnightblue" stroke="midnightblue" points="445.04,-194.68 437.02,-187.75 438.97,-198.17 445.04,-194.68"/>
</g>
</g>
</svg>
