<?xml version="1.0" encoding="UTF-8" standalone="no"?>
<!DOCTYPE svg PUBLIC "-//W3C//DTD SVG 1.1//EN"
 "http://www.w3.org/Graphics/SVG/1.1/DTD/svg11.dtd">
<!-- Generated by graphviz version 3.0.0 (20220413.0106)
 -->
<!-- Title: src/Syntax.cpp Pages: 1 -->
<svg width="775pt" height="364pt"
 viewBox="0.00 0.00 774.50 364.00" xmlns="http://www.w3.org/2000/svg" xmlns:xlink="http://www.w3.org/1999/xlink">
<g id="graph0" class="graph" transform="scale(1 1) rotate(0) translate(4 360)">
<title>src/Syntax.cpp</title>
<!-- Node1 -->
<g id="node1" class="node">
<title>Node1</title>
<g id="a_node1"><a xlink:title=" ">
<polygon fill="#bfbfbf" stroke="black" points="501,-336.5 501,-355.5 581,-355.5 581,-336.5 501,-336.5"/>
<text text-anchor="middle" x="541" y="-343.5" font-family="Helvetica,sans-Serif" font-size="10.00">src/Syntax.cpp</text>
</a>
</g>
</g>
<!-- Node2 -->
<g id="node2" class="node">
<title>Node2</title>
<g id="a_node2"><a xlink:href="../../df/d3f/_syntax_8hpp.html" target="_top" xlink:title=" ">
<polygon fill="none" stroke="black" points="189,-168.5 189,-187.5 253,-187.5 253,-168.5 189,-168.5"/>
<text text-anchor="middle" x="221" y="-175.5" font-family="Helvetica,sans-Serif" font-size="10.00">Syntax.hpp</text>
</a>
</g>
</g>
<!-- Node1&#45;&gt;Node2 -->
<g id="edge1" class="edge">
<title>Node1&#45;&gt;Node2</title>
<path fill="none" stroke="midnightblue" d="M524.25,-336.31C471.65,-309.02 309.57,-224.95 246.49,-192.22"/>
<polygon fill="midnightblue" stroke="midnightblue" points="248.08,-189.1 237.59,-187.61 244.85,-195.32 248.08,-189.1"/>
</g>
<!-- Node15 -->
<g id="node15" class="node">
<title>Node15</title>
<g id="a_node15"><a xlink:title=" ">
<polygon fill="none" stroke="#bfbfbf" points="697.5,-56.5 697.5,-75.5 766.5,-75.5 766.5,-56.5 697.5,-56.5"/>
<text text-anchor="middle" x="732" y="-63.5" font-family="Helvetica,sans-Serif" font-size="10.00">fmt/format.h</text>
</a>
</g>
</g>
<!-- Node1&#45;&gt;Node15 -->
<g id="edge16" class="edge">
<title>Node1&#45;&gt;Node15</title>
<path fill="none" stroke="midnightblue" d="M581.08,-339.74C636.56,-329.96 730,-303.34 730,-235 730,-235 730,-235 730,-177 730,-144.94 730.86,-107.64 731.45,-85.75"/>
<polygon fill="midnightblue" stroke="midnightblue" points="734.96,-85.65 731.74,-75.56 727.96,-85.45 734.96,-85.65"/>
</g>
<!-- Node16 -->
<g id="node16" class="node">
<title>Node16</title>
<g id="a_node16"><a xlink:href="../../d4/dcb/_a_s_t_8hpp.html" target="_top" xlink:title=" ">
<polygon fill="none" stroke="black" points="443,-224.5 443,-243.5 497,-243.5 497,-224.5 443,-224.5"/>
<text text-anchor="middle" x="470" y="-231.5" font-family="Helvetica,sans-Serif" font-size="10.00">AST.hpp</text>
</a>
</g>
</g>
<!-- Node1&#45;&gt;Node16 -->
<g id="edge17" class="edge">
<title>Node1&#45;&gt;Node16</title>
<path fill="none" stroke="midnightblue" d="M527.08,-336.31C515.3,-328.27 498.81,-315.27 489,-300 479.97,-285.93 475.11,-267.44 472.57,-253.78"/>
<polygon fill="midnightblue" stroke="midnightblue" points="475.98,-252.96 470.95,-243.64 469.07,-254.07 475.98,-252.96"/>
</g>
<!-- Node20 -->
<g id="node20" class="node">
<title>Node20</title>
<g id="a_node20"><a xlink:href="../../da/dbf/_synt_exp_8hpp.html" target="_top" xlink:title=" ">
<polygon fill="none" stroke="black" points="514,-112.5 514,-131.5 584,-131.5 584,-112.5 514,-112.5"/>
<text text-anchor="middle" x="549" y="-119.5" font-family="Helvetica,sans-Serif" font-size="10.00">SyntExp.hpp</text>
</a>
</g>
</g>
<!-- Node1&#45;&gt;Node20 -->
<g id="edge38" class="edge">
<title>Node1&#45;&gt;Node20</title>
<path fill="none" stroke="midnightblue" d="M556.78,-336.47C569.2,-328.77 585.61,-316.18 593,-300 618.28,-244.69 580.87,-172.76 560.6,-140.27"/>
<polygon fill="midnightblue" stroke="midnightblue" points="563.54,-138.36 555.18,-131.85 557.65,-142.15 563.54,-138.36"/>
</g>
<!-- Node21 -->
<g id="node21" class="node">
<title>Node21</title>
<g id="a_node21"><a xlink:href="../../d4/d0d/_a_s_t_factory_8hpp.html" target="_top" xlink:title=" ">
<polygon fill="none" stroke="black" points="498,-280.5 498,-299.5 584,-299.5 584,-280.5 498,-280.5"/>
<text text-anchor="middle" x="541" y="-287.5" font-family="Helvetica,sans-Serif" font-size="10.00">ASTFactory.hpp</text>
</a>
</g>
</g>
<!-- Node1&#45;&gt;Node21 -->
<g id="edge35" class="edge">
<title>Node1&#45;&gt;Node21</title>
<path fill="none" stroke="midnightblue" d="M541,-336.08C541,-329.01 541,-318.86 541,-309.99"/>
<polygon fill="midnightblue" stroke="midnightblue" points="544.5,-309.75 541,-299.75 537.5,-309.75 544.5,-309.75"/>
</g>
<!-- Node3 -->
<g id="node3" class="node">
<title>Node3</title>
<g id="a_node3"><a xlink:title=" ">
<polygon fill="none" stroke="#bfbfbf" points="0,-56.5 0,-75.5 44,-75.5 44,-56.5 0,-56.5"/>
<text text-anchor="middle" x="22" y="-63.5" font-family="Helvetica,sans-Serif" font-size="10.00">vector</text>
</a>
</g>
</g>
<!-- Node2&#45;&gt;Node3 -->
<g id="edge2" class="edge">
<title>Node2&#45;&gt;Node3</title>
<path fill="none" stroke="midnightblue" d="M188.96,-171.98C158.69,-166.11 112.99,-154.21 79,-132 60.04,-119.61 43.62,-99.23 33.34,-84.6"/>
<polygon fill="midnightblue" stroke="midnightblue" points="36,-82.28 27.5,-75.95 30.2,-86.19 36,-82.28"/>
</g>
<!-- Node4 -->
<g id="node4" class="node">
<title>Node4</title>
<g id="a_node4"><a xlink:title=" ">
<polygon fill="none" stroke="#bfbfbf" points="471,-56.5 471,-75.5 561,-75.5 561,-56.5 471,-56.5"/>
<text text-anchor="middle" x="516" y="-63.5" font-family="Helvetica,sans-Serif" font-size="10.00">magic_enum.hpp</text>
</a>
</g>
</g>
<!-- Node2&#45;&gt;Node4 -->
<g id="edge3" class="edge">
<title>Node2&#45;&gt;Node4</title>
<path fill="none" stroke="midnightblue" d="M210.3,-168.22C195.37,-154.95 171.76,-129.46 187,-112 204.68,-91.73 371.41,-77.1 460.49,-70.66"/>
<polygon fill="midnightblue" stroke="midnightblue" points="460.96,-74.13 470.69,-69.93 460.47,-67.15 460.96,-74.13"/>
</g>
<!-- Node5 -->
<g id="node5" class="node">
<title>Node5</title>
<g id="a_node5"><a xlink:href="../../d5/df9/_list_8cpp.html" target="_top" xlink:title="Двусвязный список">
<polygon fill="none" stroke="black" points="88.5,-112.5 88.5,-131.5 139.5,-131.5 139.5,-112.5 88.5,-112.5"/>
<text text-anchor="middle" x="114" y="-119.5" font-family="Helvetica,sans-Serif" font-size="10.00">List.cpp</text>
</a>
</g>
</g>
<!-- Node2&#45;&gt;Node5 -->
<g id="edge4" class="edge">
<title>Node2&#45;&gt;Node5</title>
<path fill="none" stroke="midnightblue" d="M203.81,-168.32C186.65,-159.66 160.05,-146.24 140.25,-136.25"/>
<polygon fill="midnightblue" stroke="midnightblue" points="141.65,-133.04 131.15,-131.65 138.5,-139.28 141.65,-133.04"/>
</g>
<!-- Node10 -->
<g id="node10" class="node">
<title>Node10</title>
<g id="a_node10"><a xlink:href="../../de/d32/_token_8hpp.html" target="_top" xlink:title=" ">
<polygon fill="none" stroke="black" points="617,-56.5 617,-75.5 679,-75.5 679,-56.5 617,-56.5"/>
<text text-anchor="middle" x="648" y="-63.5" font-family="Helvetica,sans-Serif" font-size="10.00">Token.hpp</text>
</a>
</g>
</g>
<!-- Node2&#45;&gt;Node10 -->
<g id="edge10" class="edge">
<title>Node2&#45;&gt;Node10</title>
<path fill="none" stroke="midnightblue" d="M227.45,-168.47C238.88,-154.07 264.23,-125.2 293,-112 300.09,-108.74 514.9,-82.86 606.87,-71.89"/>
<polygon fill="midnightblue" stroke="midnightblue" points="607.42,-75.35 616.94,-70.69 606.59,-68.4 607.42,-75.35"/>
</g>
<!-- Node13 -->
<g id="node13" class="node">
<title>Node13</title>
<g id="a_node13"><a xlink:href="../../d8/de6/_a_s_tclasses_8hpp.html" target="_top" xlink:title=" ">
<polygon fill="none" stroke="black" points="302,-112.5 302,-131.5 390,-131.5 390,-112.5 302,-112.5"/>
<text text-anchor="middle" x="346" y="-119.5" font-family="Helvetica,sans-Serif" font-size="10.00">ASTclasses.hpp</text>
</a>
</g>
</g>
<!-- Node2&#45;&gt;Node13 -->
<g id="edge13" class="edge">
<title>Node2&#45;&gt;Node13</title>
<path fill="none" stroke="midnightblue" d="M240.81,-168.44C261.29,-159.6 293.48,-145.69 316.86,-135.59"/>
<polygon fill="midnightblue" stroke="midnightblue" points="318.49,-138.7 326.29,-131.52 315.72,-132.27 318.49,-138.7"/>
</g>
<!-- Node14 -->
<g id="node14" class="node">
<title>Node14</title>
<g id="a_node14"><a xlink:href="../../db/d0e/sup_8hpp.html" target="_top" xlink:title=" ">
<polygon fill="none" stroke="black" points="196,-112.5 196,-131.5 246,-131.5 246,-112.5 196,-112.5"/>
<text text-anchor="middle" x="221" y="-119.5" font-family="Helvetica,sans-Serif" font-size="10.00">sup.hpp</text>
</a>
</g>
</g>
<!-- Node2&#45;&gt;Node14 -->
<g id="edge14" class="edge">
<title>Node2&#45;&gt;Node14</title>
<path fill="none" stroke="midnightblue" d="M221,-168.08C221,-161.01 221,-150.86 221,-141.99"/>
<polygon fill="midnightblue" stroke="midnightblue" points="224.5,-141.75 221,-131.75 217.5,-141.75 224.5,-141.75"/>
</g>
<!-- Node5&#45;&gt;Node3 -->
<g id="edge7" class="edge">
<title>Node5&#45;&gt;Node3</title>
<path fill="none" stroke="midnightblue" d="M99.22,-112.32C84.73,-103.82 62.43,-90.73 45.51,-80.8"/>
<polygon fill="midnightblue" stroke="midnightblue" points="47.14,-77.7 36.74,-75.65 43.6,-83.74 47.14,-77.7"/>
</g>
<!-- Node6 -->
<g id="node6" class="node">
<title>Node6</title>
<g id="a_node6"><a xlink:title=" ">
<polygon fill="none" stroke="#bfbfbf" points="62.5,-56.5 62.5,-75.5 111.5,-75.5 111.5,-56.5 62.5,-56.5"/>
<text text-anchor="middle" x="87" y="-63.5" font-family="Helvetica,sans-Serif" font-size="10.00">cstddef</text>
</a>
</g>
</g>
<!-- Node5&#45;&gt;Node6 -->
<g id="edge5" class="edge">
<title>Node5&#45;&gt;Node6</title>
<path fill="none" stroke="midnightblue" d="M109.54,-112.08C105.85,-104.69 100.48,-93.95 95.91,-84.81"/>
<polygon fill="midnightblue" stroke="midnightblue" points="98.98,-83.13 91.38,-75.75 92.72,-86.26 98.98,-83.13"/>
</g>
<!-- Node7 -->
<g id="node7" class="node">
<title>Node7</title>
<g id="a_node7"><a xlink:title=" ">
<polygon fill="none" stroke="#bfbfbf" points="195,-56.5 195,-75.5 267,-75.5 267,-56.5 195,-56.5"/>
<text text-anchor="middle" x="231" y="-63.5" font-family="Helvetica,sans-Serif" font-size="10.00">initializer_list</text>
</a>
</g>
</g>
<!-- Node5&#45;&gt;Node7 -->
<g id="edge6" class="edge">
<title>Node5&#45;&gt;Node7</title>
<path fill="none" stroke="midnightblue" d="M132.54,-112.44C151.62,-103.64 181.57,-89.81 203.44,-79.72"/>
<polygon fill="midnightblue" stroke="midnightblue" points="204.93,-82.88 212.55,-75.52 202,-76.53 204.93,-82.88"/>
</g>
<!-- Node8 -->
<g id="node8" class="node">
<title>Node8</title>
<g id="a_node8"><a xlink:title=" ">
<polygon fill="none" stroke="#bfbfbf" points="321.5,-56.5 321.5,-75.5 380.5,-75.5 380.5,-56.5 321.5,-56.5"/>
<text text-anchor="middle" x="351" y="-63.5" font-family="Helvetica,sans-Serif" font-size="10.00">stdexcept</text>
</a>
</g>
</g>
<!-- Node5&#45;&gt;Node8 -->
<g id="edge8" class="edge">
<title>Node5&#45;&gt;Node8</title>
<path fill="none" stroke="midnightblue" d="M139.81,-115.12C181.14,-105.7 262.46,-87.17 311.25,-76.06"/>
<polygon fill="midnightblue" stroke="midnightblue" points="312.17,-79.44 321.14,-73.8 310.61,-72.61 312.17,-79.44"/>
</g>
<!-- Node9 -->
<g id="node9" class="node">
<title>Node9</title>
<g id="a_node9"><a xlink:title=" ">
<polygon fill="none" stroke="#bfbfbf" points="129.5,-56.5 129.5,-75.5 176.5,-75.5 176.5,-56.5 129.5,-56.5"/>
<text text-anchor="middle" x="153" y="-63.5" font-family="Helvetica,sans-Serif" font-size="10.00">iterator</text>
</a>
</g>
</g>
<!-- Node5&#45;&gt;Node9 -->
<g id="edge9" class="edge">
<title>Node5&#45;&gt;Node9</title>
<path fill="none" stroke="midnightblue" d="M120.44,-112.08C125.95,-104.46 134.03,-93.26 140.76,-83.94"/>
<polygon fill="midnightblue" stroke="midnightblue" points="143.66,-85.91 146.68,-75.75 137.99,-81.81 143.66,-85.91"/>
</g>
<!-- Node11 -->
<g id="node11" class="node">
<title>Node11</title>
<g id="a_node11"><a xlink:title=" ">
<polygon fill="none" stroke="#bfbfbf" points="568.5,-0.5 568.5,-19.5 609.5,-19.5 609.5,-0.5 568.5,-0.5"/>
<text text-anchor="middle" x="589" y="-7.5" font-family="Helvetica,sans-Serif" font-size="10.00">string</text>
</a>
</g>
</g>
<!-- Node10&#45;&gt;Node11 -->
<g id="edge11" class="edge">
<title>Node10&#45;&gt;Node11</title>
<path fill="none" stroke="midnightblue" d="M638.52,-56.32C629.8,-48.34 616.66,-36.31 606.1,-26.65"/>
<polygon fill="midnightblue" stroke="midnightblue" points="608.39,-24 598.65,-19.83 603.67,-29.17 608.39,-24"/>
</g>
<!-- Node12 -->
<g id="node12" class="node">
<title>Node12</title>
<g id="a_node12"><a xlink:title=" ">
<polygon fill="none" stroke="#bfbfbf" points="628,-0.5 628,-19.5 668,-19.5 668,-0.5 628,-0.5"/>
<text text-anchor="middle" x="648" y="-7.5" font-family="Helvetica,sans-Serif" font-size="10.00">regex</text>
</a>
</g>
</g>
<!-- Node10&#45;&gt;Node12 -->
<g id="edge12" class="edge">
<title>Node10&#45;&gt;Node12</title>
<path fill="none" stroke="midnightblue" d="M648,-56.08C648,-49.01 648,-38.86 648,-29.99"/>
<polygon fill="midnightblue" stroke="midnightblue" points="651.5,-29.75 648,-19.75 644.5,-29.75 651.5,-29.75"/>
</g>
<!-- Node14&#45;&gt;Node7 -->
<g id="edge15" class="edge">
<title>Node14&#45;&gt;Node7</title>
<path fill="none" stroke="midnightblue" d="M222.65,-112.08C223.98,-104.93 225.88,-94.64 227.54,-85.69"/>
<polygon fill="midnightblue" stroke="midnightblue" points="231,-86.22 229.38,-75.75 224.12,-84.95 231,-86.22"/>
</g>
<!-- Node16&#45;&gt;Node3 -->
<g id="edge18" class="edge">
<title>Node16&#45;&gt;Node3</title>
<path fill="none" stroke="midnightblue" d="M442.71,-231.13C390.69,-227.04 274.17,-215.4 180,-188 120.38,-170.65 96.34,-175.47 52,-132 38.99,-119.24 31.04,-99.78 26.62,-85.47"/>
<polygon fill="midnightblue" stroke="midnightblue" points="29.96,-84.43 23.91,-75.73 23.22,-86.31 29.96,-84.43"/>
</g>
<!-- Node16&#45;&gt;Node10 -->
<g id="edge20" class="edge">
<title>Node16&#45;&gt;Node10</title>
<path fill="none" stroke="midnightblue" d="M488.57,-224.3C518.94,-209.27 579.59,-175.79 617,-132 628.66,-118.35 636.99,-99.56 642.06,-85.69"/>
<polygon fill="midnightblue" stroke="midnightblue" points="645.52,-86.41 645.43,-75.82 638.89,-84.15 645.52,-86.41"/>
</g>
<!-- Node16&#45;&gt;Node13 -->
<g id="edge34" class="edge">
<title>Node16&#45;&gt;Node13</title>
<path fill="none" stroke="midnightblue" d="M442.92,-228.15C419.14,-222.5 385.26,-210.86 365,-188 353.68,-175.23 349.09,-156.03 347.23,-141.81"/>
<polygon fill="midnightblue" stroke="midnightblue" points="350.7,-141.31 346.26,-131.69 343.73,-141.98 350.7,-141.31"/>
</g>
<!-- Node17 -->
<g id="node17" class="node">
<title>Node17</title>
<g id="a_node17"><a xlink:title=" ">
<polygon fill="none" stroke="#bfbfbf" points="374.5,-168.5 374.5,-187.5 425.5,-187.5 425.5,-168.5 374.5,-168.5"/>
<text text-anchor="middle" x="400" y="-175.5" font-family="Helvetica,sans-Serif" font-size="10.00">memory</text>
</a>
</g>
</g>
<!-- Node16&#45;&gt;Node17 -->
<g id="edge19" class="edge">
<title>Node16&#45;&gt;Node17</title>
<path fill="none" stroke="midnightblue" d="M458.75,-224.32C448.2,-216.18 432.2,-203.84 419.56,-194.09"/>
<polygon fill="midnightblue" stroke="midnightblue" points="421.51,-191.17 411.45,-187.83 417.23,-196.71 421.51,-191.17"/>
</g>
<!-- Node18 -->
<g id="node18" class="node">
<title>Node18</title>
<g id="a_node18"><a xlink:href="../../db/d42/_visitor_8hpp.html" target="_top" xlink:title=" ">
<polygon fill="none" stroke="black" points="444,-168.5 444,-187.5 506,-187.5 506,-168.5 444,-168.5"/>
<text text-anchor="middle" x="475" y="-175.5" font-family="Helvetica,sans-Serif" font-size="10.00">Visitor.hpp</text>
</a>
</g>
</g>
<!-- Node16&#45;&gt;Node18 -->
<g id="edge21" class="edge">
<title>Node16&#45;&gt;Node18</title>
<path fill="none" stroke="midnightblue" d="M470.83,-224.08C471.48,-217.01 472.42,-206.86 473.24,-197.99"/>
<polygon fill="midnightblue" stroke="midnightblue" points="476.75,-198.03 474.19,-187.75 469.78,-197.39 476.75,-198.03"/>
</g>
<!-- Node18&#45;&gt;Node5 -->
<g id="edge25" class="edge">
<title>Node18&#45;&gt;Node5</title>
<path fill="none" stroke="midnightblue" d="M443.71,-169.87C440.44,-169.21 437.16,-168.57 434,-168 380.04,-158.3 221.92,-137.18 150.16,-127.73"/>
<polygon fill="midnightblue" stroke="midnightblue" points="150.19,-124.2 139.82,-126.37 149.28,-131.14 150.19,-124.2"/>
</g>
<!-- Node18&#45;&gt;Node10 -->
<g id="edge24" class="edge">
<title>Node18&#45;&gt;Node10</title>
<path fill="none" stroke="midnightblue" d="M506.15,-169.75C531.22,-162.87 566.52,-150.76 593,-132 611.21,-119.1 627.06,-98.82 637.01,-84.34"/>
<polygon fill="midnightblue" stroke="midnightblue" points="640.06,-86.07 642.66,-75.8 634.22,-82.21 640.06,-86.07"/>
</g>
<!-- Node18&#45;&gt;Node11 -->
<g id="edge23" class="edge">
<title>Node18&#45;&gt;Node11</title>
<path fill="none" stroke="midnightblue" d="M473.96,-168.16C472.47,-155.65 469.63,-132.07 467,-112 464.9,-95.98 463.11,-92.12 462,-76 461.39,-67.13 456.87,-63.26 462,-56 483.73,-25.24 528.37,-15.37 558.5,-12.28"/>
<polygon fill="midnightblue" stroke="midnightblue" points="558.82,-15.77 568.49,-11.45 558.23,-8.79 558.82,-15.77"/>
</g>
<!-- Node18&#45;&gt;Node13 -->
<g id="edge26" class="edge">
<title>Node18&#45;&gt;Node13</title>
<path fill="none" stroke="midnightblue" d="M454.56,-168.44C433.33,-159.56 399.9,-145.56 375.75,-135.45"/>
<polygon fill="midnightblue" stroke="midnightblue" points="376.92,-132.15 366.34,-131.52 374.22,-138.61 376.92,-132.15"/>
</g>
<!-- Node18&#45;&gt;Node14 -->
<g id="edge33" class="edge">
<title>Node18&#45;&gt;Node14</title>
<path fill="none" stroke="midnightblue" d="M443.67,-170.1C440.4,-169.38 437.13,-168.68 434,-168 371.36,-154.51 298.28,-139.15 256.05,-130.32"/>
<polygon fill="midnightblue" stroke="midnightblue" points="256.77,-126.89 246.26,-128.27 255.33,-133.74 256.77,-126.89"/>
</g>
<!-- Node19 -->
<g id="node19" class="node">
<title>Node19</title>
<g id="a_node19"><a xlink:title=" ">
<polygon fill="none" stroke="#bfbfbf" points="408,-112.5 408,-131.5 458,-131.5 458,-112.5 408,-112.5"/>
<text text-anchor="middle" x="433" y="-119.5" font-family="Helvetica,sans-Serif" font-size="10.00">fstream</text>
</a>
</g>
</g>
<!-- Node18&#45;&gt;Node19 -->
<g id="edge22" class="edge">
<title>Node18&#45;&gt;Node19</title>
<path fill="none" stroke="midnightblue" d="M468.06,-168.08C462.07,-160.38 453.25,-149.03 445.95,-139.65"/>
<polygon fill="midnightblue" stroke="midnightblue" points="448.71,-137.5 439.81,-131.75 443.18,-141.79 448.71,-137.5"/>
</g>
<!-- Node18&#45;&gt;Node20 -->
<g id="edge27" class="edge">
<title>Node18&#45;&gt;Node20</title>
<path fill="none" stroke="midnightblue" d="M486.89,-168.32C498.15,-160.11 515.29,-147.6 528.71,-137.81"/>
<polygon fill="midnightblue" stroke="midnightblue" points="530.88,-140.56 536.89,-131.83 526.75,-134.9 530.88,-140.56"/>
</g>
<!-- Node20&#45;&gt;Node4 -->
<g id="edge31" class="edge">
<title>Node20&#45;&gt;Node4</title>
<path fill="none" stroke="midnightblue" d="M543.55,-112.08C538.99,-104.61 532.33,-93.72 526.71,-84.52"/>
<polygon fill="midnightblue" stroke="midnightblue" points="529.55,-82.46 521.35,-75.75 523.58,-86.11 529.55,-82.46"/>
</g>
<!-- Node20&#45;&gt;Node8 -->
<g id="edge29" class="edge">
<title>Node20&#45;&gt;Node8</title>
<path fill="none" stroke="midnightblue" d="M517.63,-112.44C483.24,-103.07 428,-88 390.64,-77.81"/>
<polygon fill="midnightblue" stroke="midnightblue" points="391.18,-74.33 380.61,-75.08 389.34,-81.08 391.18,-74.33"/>
</g>
<!-- Node20&#45;&gt;Node10 -->
<g id="edge32" class="edge">
<title>Node20&#45;&gt;Node10</title>
<path fill="none" stroke="midnightblue" d="M564.91,-112.32C580.64,-103.74 604.94,-90.49 623.21,-80.52"/>
<polygon fill="midnightblue" stroke="midnightblue" points="625.03,-83.52 632.13,-75.65 621.68,-77.37 625.03,-83.52"/>
</g>
<!-- Node20&#45;&gt;Node11 -->
<g id="edge28" class="edge">
<title>Node20&#45;&gt;Node11</title>
<path fill="none" stroke="midnightblue" d="M553.59,-112.21C558.15,-103.26 565.13,-88.91 570,-76 575.83,-60.53 580.99,-42.44 584.45,-29.28"/>
<polygon fill="midnightblue" stroke="midnightblue" points="587.86,-30.1 586.94,-19.55 581.07,-28.37 587.86,-30.1"/>
</g>
<!-- Node20&#45;&gt;Node15 -->
<g id="edge30" class="edge">
<title>Node20&#45;&gt;Node15</title>
<path fill="none" stroke="midnightblue" d="M578,-112.44C609.18,-103.24 658.93,-88.56 693.41,-78.39"/>
<polygon fill="midnightblue" stroke="midnightblue" points="694.54,-81.7 703.14,-75.52 692.56,-74.99 694.54,-81.7"/>
</g>
<!-- Node21&#45;&gt;Node10 -->
<g id="edge37" class="edge">
<title>Node21&#45;&gt;Node10</title>
<path fill="none" stroke="midnightblue" d="M547.92,-280.43C565.82,-257.74 613.92,-193.64 637,-132 642.59,-117.08 645.35,-99.16 646.71,-85.92"/>
<polygon fill="midnightblue" stroke="midnightblue" points="650.22,-85.94 647.58,-75.68 643.24,-85.35 650.22,-85.94"/>
</g>
<!-- Node21&#45;&gt;Node16 -->
<g id="edge36" class="edge">
<title>Node21&#45;&gt;Node16</title>
<path fill="none" stroke="midnightblue" d="M529.59,-280.32C518.89,-272.18 502.66,-259.84 489.84,-250.09"/>
<polygon fill="midnightblue" stroke="midnightblue" points="491.69,-247.1 481.61,-243.83 487.46,-252.67 491.69,-247.1"/>
</g>
</g>
</svg>
