<?xml version="1.0" encoding="UTF-8" standalone="no"?>
<!DOCTYPE svg PUBLIC "-//W3C//DTD SVG 1.1//EN"
 "http://www.w3.org/Graphics/SVG/1.1/DTD/svg11.dtd">
<!-- Generated by graphviz version 3.0.0 (20220413.0106)
 -->
<!-- Title: src/Syntax.cpp Pages: 1 -->
<svg width="607pt" height="308pt"
 viewBox="0.00 0.00 607.00 308.00" xmlns="http://www.w3.org/2000/svg" xmlns:xlink="http://www.w3.org/1999/xlink">
<g id="graph0" class="graph" transform="scale(1 1) rotate(0) translate(4 304)">
<title>src/Syntax.cpp</title>
<!-- Node1 -->
<g id="node1" class="node">
<title>Node1</title>
<g id="a_node1"><a xlink:title=" ">
<polygon fill="#bfbfbf" stroke="black" points="360,-280.5 360,-299.5 440,-299.5 440,-280.5 360,-280.5"/>
<text text-anchor="middle" x="400" y="-287.5" font-family="Helvetica,sans-Serif" font-size="10.00">src/Syntax.cpp</text>
</a>
</g>
</g>
<!-- Node2 -->
<g id="node2" class="node">
<title>Node2</title>
<g id="a_node2"><a xlink:href="../../df/d3f/_syntax_8hpp.html" target="_top" xlink:title=" ">
<polygon fill="none" stroke="black" points="205,-112.5 205,-131.5 269,-131.5 269,-112.5 205,-112.5"/>
<text text-anchor="middle" x="237" y="-119.5" font-family="Helvetica,sans-Serif" font-size="10.00">Syntax.hpp</text>
</a>
</g>
</g>
<!-- Node1&#45;&gt;Node2 -->
<g id="edge1" class="edge">
<title>Node1&#45;&gt;Node2</title>
<path fill="none" stroke="midnightblue" d="M391.24,-280.08C364.91,-253.27 286.28,-173.19 252.6,-138.89"/>
<polygon fill="midnightblue" stroke="midnightblue" points="254.92,-136.25 245.41,-131.57 249.92,-141.16 254.92,-136.25"/>
</g>
<!-- Node14 -->
<g id="node14" class="node">
<title>Node14</title>
<g id="a_node14"><a xlink:title=" ">
<polygon fill="none" stroke="#bfbfbf" points="497.5,-224.5 497.5,-243.5 566.5,-243.5 566.5,-224.5 497.5,-224.5"/>
<text text-anchor="middle" x="532" y="-231.5" font-family="Helvetica,sans-Serif" font-size="10.00">fmt/format.h</text>
</a>
</g>
</g>
<!-- Node1&#45;&gt;Node14 -->
<g id="edge15" class="edge">
<title>Node1&#45;&gt;Node14</title>
<path fill="none" stroke="midnightblue" d="M420.92,-280.44C442.74,-271.52 477.15,-257.44 501.89,-247.32"/>
<polygon fill="midnightblue" stroke="midnightblue" points="503.25,-250.54 511.18,-243.52 500.6,-244.06 503.25,-250.54"/>
</g>
<!-- Node15 -->
<g id="node15" class="node">
<title>Node15</title>
<g id="a_node15"><a xlink:href="../../d4/dcb/_a_s_t_8hpp.html" target="_top" xlink:title=" ">
<polygon fill="none" stroke="black" points="378,-168.5 378,-187.5 432,-187.5 432,-168.5 378,-168.5"/>
<text text-anchor="middle" x="405" y="-175.5" font-family="Helvetica,sans-Serif" font-size="10.00">AST.hpp</text>
</a>
</g>
</g>
<!-- Node1&#45;&gt;Node15 -->
<g id="edge16" class="edge">
<title>Node1&#45;&gt;Node15</title>
<path fill="none" stroke="midnightblue" d="M395.2,-280.2C389.01,-267.73 379.52,-244.2 384,-224 386.12,-214.43 390.51,-204.48 394.72,-196.37"/>
<polygon fill="midnightblue" stroke="midnightblue" points="397.82,-198 399.62,-187.56 391.7,-194.6 397.82,-198"/>
</g>
<!-- Node19 -->
<g id="node19" class="node">
<title>Node19</title>
<g id="a_node19"><a xlink:href="../../d4/d0d/_a_s_t_factory_8hpp.html" target="_top" xlink:title=" ">
<polygon fill="none" stroke="black" points="393,-224.5 393,-243.5 479,-243.5 479,-224.5 393,-224.5"/>
<text text-anchor="middle" x="436" y="-231.5" font-family="Helvetica,sans-Serif" font-size="10.00">ASTFactory.hpp</text>
</a>
</g>
</g>
<!-- Node1&#45;&gt;Node19 -->
<g id="edge27" class="edge">
<title>Node1&#45;&gt;Node19</title>
<path fill="none" stroke="midnightblue" d="M405.94,-280.08C410.98,-272.53 418.34,-261.49 424.51,-252.23"/>
<polygon fill="midnightblue" stroke="midnightblue" points="427.53,-254.01 430.17,-243.75 421.71,-250.13 427.53,-254.01"/>
</g>
<!-- Node3 -->
<g id="node3" class="node">
<title>Node3</title>
<g id="a_node3"><a xlink:title=" ">
<polygon fill="none" stroke="#bfbfbf" points="300,-0.5 300,-19.5 344,-19.5 344,-0.5 300,-0.5"/>
<text text-anchor="middle" x="322" y="-7.5" font-family="Helvetica,sans-Serif" font-size="10.00">vector</text>
</a>
</g>
</g>
<!-- Node2&#45;&gt;Node3 -->
<g id="edge2" class="edge">
<title>Node2&#45;&gt;Node3</title>
<path fill="none" stroke="midnightblue" d="M242.7,-112.39C251.14,-99.76 267.65,-75.58 283,-56 290.65,-46.24 299.7,-35.74 307.16,-27.34"/>
<polygon fill="midnightblue" stroke="midnightblue" points="309.9,-29.53 313.97,-19.75 304.68,-24.85 309.9,-29.53"/>
</g>
<!-- Node4 -->
<g id="node4" class="node">
<title>Node4</title>
<g id="a_node4"><a xlink:title=" ">
<polygon fill="none" stroke="#bfbfbf" points="0,-0.5 0,-19.5 72,-19.5 72,-0.5 0,-0.5"/>
<text text-anchor="middle" x="36" y="-7.5" font-family="Helvetica,sans-Serif" font-size="10.00">initializer_list</text>
</a>
</g>
</g>
<!-- Node2&#45;&gt;Node4 -->
<g id="edge3" class="edge">
<title>Node2&#45;&gt;Node4</title>
<path fill="none" stroke="midnightblue" d="M224.03,-112.29C204.48,-99.32 166.12,-74.48 132,-56 110.12,-44.15 84.59,-32.27 65.35,-23.69"/>
<polygon fill="midnightblue" stroke="midnightblue" points="66.75,-20.49 56.19,-19.65 63.92,-26.89 66.75,-20.49"/>
</g>
<!-- Node5 -->
<g id="node5" class="node">
<title>Node5</title>
<g id="a_node5"><a xlink:title=" ">
<polygon fill="none" stroke="#bfbfbf" points="33,-56.5 33,-75.5 123,-75.5 123,-56.5 33,-56.5"/>
<text text-anchor="middle" x="78" y="-63.5" font-family="Helvetica,sans-Serif" font-size="10.00">magic_enum.hpp</text>
</a>
</g>
</g>
<!-- Node2&#45;&gt;Node5 -->
<g id="edge4" class="edge">
<title>Node2&#45;&gt;Node5</title>
<path fill="none" stroke="midnightblue" d="M211.81,-112.44C185.06,-103.36 142.6,-88.94 112.69,-78.78"/>
<polygon fill="midnightblue" stroke="midnightblue" points="113.67,-75.42 103.08,-75.52 111.42,-82.05 113.67,-75.42"/>
</g>
<!-- Node6 -->
<g id="node6" class="node">
<title>Node6</title>
<g id="a_node6"><a xlink:href="../../d5/df9/_list_8cpp.html" target="_top" xlink:title="Двусвязный список">
<polygon fill="none" stroke="black" points="179.5,-56.5 179.5,-75.5 230.5,-75.5 230.5,-56.5 179.5,-56.5"/>
<text text-anchor="middle" x="205" y="-63.5" font-family="Helvetica,sans-Serif" font-size="10.00">List.cpp</text>
</a>
</g>
</g>
<!-- Node2&#45;&gt;Node6 -->
<g id="edge5" class="edge">
<title>Node2&#45;&gt;Node6</title>
<path fill="none" stroke="midnightblue" d="M231.72,-112.08C227.29,-104.61 220.84,-93.72 215.38,-84.52"/>
<polygon fill="midnightblue" stroke="midnightblue" points="218.29,-82.57 210.19,-75.75 212.27,-86.14 218.29,-82.57"/>
</g>
<!-- Node10 -->
<g id="node10" class="node">
<title>Node10</title>
<g id="a_node10"><a xlink:href="../../de/d32/_token_8hpp.html" target="_top" xlink:title=" ">
<polygon fill="none" stroke="black" points="537,-56.5 537,-75.5 599,-75.5 599,-56.5 537,-56.5"/>
<text text-anchor="middle" x="568" y="-63.5" font-family="Helvetica,sans-Serif" font-size="10.00">Token.hpp</text>
</a>
</g>
</g>
<!-- Node2&#45;&gt;Node10 -->
<g id="edge11" class="edge">
<title>Node2&#45;&gt;Node10</title>
<path fill="none" stroke="midnightblue" d="M269.04,-115.77C329.41,-105.92 459.93,-84.63 526.75,-73.73"/>
<polygon fill="midnightblue" stroke="midnightblue" points="527.61,-77.14 536.91,-72.07 526.48,-70.23 527.61,-77.14"/>
</g>
<!-- Node13 -->
<g id="node13" class="node">
<title>Node13</title>
<g id="a_node13"><a xlink:href="../../d8/de6/_a_s_tclasses_8hpp.html" target="_top" xlink:title=" ">
<polygon fill="none" stroke="black" points="325,-56.5 325,-75.5 413,-75.5 413,-56.5 325,-56.5"/>
<text text-anchor="middle" x="369" y="-63.5" font-family="Helvetica,sans-Serif" font-size="10.00">ASTclasses.hpp</text>
</a>
</g>
</g>
<!-- Node2&#45;&gt;Node13 -->
<g id="edge14" class="edge">
<title>Node2&#45;&gt;Node13</title>
<path fill="none" stroke="midnightblue" d="M257.92,-112.44C279.74,-103.52 314.15,-89.44 338.89,-79.32"/>
<polygon fill="midnightblue" stroke="midnightblue" points="340.25,-82.54 348.18,-75.52 337.6,-76.06 340.25,-82.54"/>
</g>
<!-- Node6&#45;&gt;Node3 -->
<g id="edge8" class="edge">
<title>Node6&#45;&gt;Node3</title>
<path fill="none" stroke="midnightblue" d="M223.54,-56.44C242.62,-47.64 272.57,-33.81 294.44,-23.72"/>
<polygon fill="midnightblue" stroke="midnightblue" points="295.93,-26.88 303.55,-19.52 293,-20.53 295.93,-26.88"/>
</g>
<!-- Node6&#45;&gt;Node4 -->
<g id="edge7" class="edge">
<title>Node6&#45;&gt;Node4</title>
<path fill="none" stroke="midnightblue" d="M179.33,-56.8C150.92,-47.72 104.89,-33.01 72.68,-22.72"/>
<polygon fill="midnightblue" stroke="midnightblue" points="73.34,-19.26 62.75,-19.55 71.21,-25.92 73.34,-19.26"/>
</g>
<!-- Node7 -->
<g id="node7" class="node">
<title>Node7</title>
<g id="a_node7"><a xlink:title=" ">
<polygon fill="none" stroke="#bfbfbf" points="155.5,-0.5 155.5,-19.5 204.5,-19.5 204.5,-0.5 155.5,-0.5"/>
<text text-anchor="middle" x="180" y="-7.5" font-family="Helvetica,sans-Serif" font-size="10.00">cstddef</text>
</a>
</g>
</g>
<!-- Node6&#45;&gt;Node7 -->
<g id="edge6" class="edge">
<title>Node6&#45;&gt;Node7</title>
<path fill="none" stroke="midnightblue" d="M200.87,-56.08C197.49,-48.77 192.58,-38.18 188.38,-29.1"/>
<polygon fill="midnightblue" stroke="midnightblue" points="191.43,-27.36 184.05,-19.75 185.08,-30.3 191.43,-27.36"/>
</g>
<!-- Node8 -->
<g id="node8" class="node">
<title>Node8</title>
<g id="a_node8"><a xlink:title=" ">
<polygon fill="none" stroke="#bfbfbf" points="222.5,-0.5 222.5,-19.5 281.5,-19.5 281.5,-0.5 222.5,-0.5"/>
<text text-anchor="middle" x="252" y="-7.5" font-family="Helvetica,sans-Serif" font-size="10.00">stdexcept</text>
</a>
</g>
</g>
<!-- Node6&#45;&gt;Node8 -->
<g id="edge9" class="edge">
<title>Node6&#45;&gt;Node8</title>
<path fill="none" stroke="midnightblue" d="M212.76,-56.08C219.54,-48.3 229.54,-36.8 237.76,-27.37"/>
<polygon fill="midnightblue" stroke="midnightblue" points="240.46,-29.59 244.38,-19.75 235.18,-25 240.46,-29.59"/>
</g>
<!-- Node9 -->
<g id="node9" class="node">
<title>Node9</title>
<g id="a_node9"><a xlink:title=" ">
<polygon fill="none" stroke="#bfbfbf" points="90.5,-0.5 90.5,-19.5 137.5,-19.5 137.5,-0.5 90.5,-0.5"/>
<text text-anchor="middle" x="114" y="-7.5" font-family="Helvetica,sans-Serif" font-size="10.00">iterator</text>
</a>
</g>
</g>
<!-- Node6&#45;&gt;Node9 -->
<g id="edge10" class="edge">
<title>Node6&#45;&gt;Node9</title>
<path fill="none" stroke="midnightblue" d="M190.38,-56.32C176.05,-47.82 153.99,-34.73 137.25,-24.8"/>
<polygon fill="midnightblue" stroke="midnightblue" points="138.97,-21.75 128.58,-19.65 135.4,-27.77 138.97,-21.75"/>
</g>
<!-- Node11 -->
<g id="node11" class="node">
<title>Node11</title>
<g id="a_node11"><a xlink:title=" ">
<polygon fill="none" stroke="#bfbfbf" points="488.5,-0.5 488.5,-19.5 529.5,-19.5 529.5,-0.5 488.5,-0.5"/>
<text text-anchor="middle" x="509" y="-7.5" font-family="Helvetica,sans-Serif" font-size="10.00">string</text>
</a>
</g>
</g>
<!-- Node10&#45;&gt;Node11 -->
<g id="edge12" class="edge">
<title>Node10&#45;&gt;Node11</title>
<path fill="none" stroke="midnightblue" d="M558.52,-56.32C549.8,-48.34 536.66,-36.31 526.1,-26.65"/>
<polygon fill="midnightblue" stroke="midnightblue" points="528.39,-24 518.65,-19.83 523.67,-29.17 528.39,-24"/>
</g>
<!-- Node12 -->
<g id="node12" class="node">
<title>Node12</title>
<g id="a_node12"><a xlink:title=" ">
<polygon fill="none" stroke="#bfbfbf" points="548,-0.5 548,-19.5 588,-19.5 588,-0.5 548,-0.5"/>
<text text-anchor="middle" x="568" y="-7.5" font-family="Helvetica,sans-Serif" font-size="10.00">regex</text>
</a>
</g>
</g>
<!-- Node10&#45;&gt;Node12 -->
<g id="edge13" class="edge">
<title>Node10&#45;&gt;Node12</title>
<path fill="none" stroke="midnightblue" d="M568,-56.08C568,-49.01 568,-38.86 568,-29.99"/>
<polygon fill="midnightblue" stroke="midnightblue" points="571.5,-29.75 568,-19.75 564.5,-29.75 571.5,-29.75"/>
</g>
<!-- Node15&#45;&gt;Node3 -->
<g id="edge17" class="edge">
<title>Node15&#45;&gt;Node3</title>
<path fill="none" stroke="midnightblue" d="M377.59,-171.26C356.7,-165.3 329.33,-153.68 316,-132 296.52,-100.32 306.81,-54.67 315.04,-29.47"/>
<polygon fill="midnightblue" stroke="midnightblue" points="318.45,-30.33 318.46,-19.73 311.85,-28.01 318.45,-30.33"/>
</g>
<!-- Node15&#45;&gt;Node10 -->
<g id="edge19" class="edge">
<title>Node15&#45;&gt;Node10</title>
<path fill="none" stroke="midnightblue" d="M430.34,-168.43C451.19,-160.71 480.94,-148.11 504,-132 523.78,-118.18 542.69,-97.78 554.75,-83.53"/>
<polygon fill="midnightblue" stroke="midnightblue" points="557.66,-85.51 561.33,-75.57 552.26,-81.05 557.66,-85.51"/>
</g>
<!-- Node15&#45;&gt;Node13 -->
<g id="edge26" class="edge">
<title>Node15&#45;&gt;Node13</title>
<path fill="none" stroke="midnightblue" d="M402.63,-168.1C399.23,-155.52 392.64,-131.85 386,-112 383.02,-103.08 379.37,-93.3 376.22,-85.14"/>
<polygon fill="midnightblue" stroke="midnightblue" points="379.37,-83.59 372.46,-75.56 372.85,-86.14 379.37,-83.59"/>
</g>
<!-- Node16 -->
<g id="node16" class="node">
<title>Node16</title>
<g id="a_node16"><a xlink:title=" ">
<polygon fill="none" stroke="#bfbfbf" points="325.5,-112.5 325.5,-131.5 376.5,-131.5 376.5,-112.5 325.5,-112.5"/>
<text text-anchor="middle" x="351" y="-119.5" font-family="Helvetica,sans-Serif" font-size="10.00">memory</text>
</a>
</g>
</g>
<!-- Node15&#45;&gt;Node16 -->
<g id="edge18" class="edge">
<title>Node15&#45;&gt;Node16</title>
<path fill="none" stroke="midnightblue" d="M396.08,-168.08C388.22,-160.22 376.57,-148.57 367.08,-139.08"/>
<polygon fill="midnightblue" stroke="midnightblue" points="369.3,-136.35 359.75,-131.75 364.35,-141.3 369.3,-136.35"/>
</g>
<!-- Node17 -->
<g id="node17" class="node">
<title>Node17</title>
<g id="a_node17"><a xlink:href="../../db/d42/_visitor_8hpp.html" target="_top" xlink:title=" ">
<polygon fill="none" stroke="black" points="433,-112.5 433,-131.5 495,-131.5 495,-112.5 433,-112.5"/>
<text text-anchor="middle" x="464" y="-119.5" font-family="Helvetica,sans-Serif" font-size="10.00">Visitor.hpp</text>
</a>
</g>
</g>
<!-- Node15&#45;&gt;Node17 -->
<g id="edge20" class="edge">
<title>Node15&#45;&gt;Node17</title>
<path fill="none" stroke="midnightblue" d="M414.48,-168.32C423.2,-160.34 436.34,-148.31 446.9,-138.65"/>
<polygon fill="midnightblue" stroke="midnightblue" points="449.33,-141.17 454.35,-131.83 444.61,-136 449.33,-141.17"/>
</g>
<!-- Node17&#45;&gt;Node6 -->
<g id="edge24" class="edge">
<title>Node17&#45;&gt;Node6</title>
<path fill="none" stroke="midnightblue" d="M432.76,-114.49C384.3,-104.38 291.3,-84.99 240.42,-74.38"/>
<polygon fill="midnightblue" stroke="midnightblue" points="241.03,-70.94 230.53,-72.32 239.6,-77.79 241.03,-70.94"/>
</g>
<!-- Node17&#45;&gt;Node10 -->
<g id="edge23" class="edge">
<title>Node17&#45;&gt;Node10</title>
<path fill="none" stroke="midnightblue" d="M480.71,-112.32C497.31,-103.7 523,-90.36 542.22,-80.39"/>
<polygon fill="midnightblue" stroke="midnightblue" points="544.07,-83.37 551.33,-75.65 540.84,-77.16 544.07,-83.37"/>
</g>
<!-- Node17&#45;&gt;Node11 -->
<g id="edge22" class="edge">
<title>Node17&#45;&gt;Node11</title>
<path fill="none" stroke="midnightblue" d="M469.83,-112.36C475.59,-103.53 484.32,-89.27 490,-76 496.5,-60.8 501.59,-42.68 504.86,-29.44"/>
<polygon fill="midnightblue" stroke="midnightblue" points="508.29,-30.18 507.17,-19.64 501.47,-28.57 508.29,-30.18"/>
</g>
<!-- Node17&#45;&gt;Node13 -->
<g id="edge25" class="edge">
<title>Node17&#45;&gt;Node13</title>
<path fill="none" stroke="midnightblue" d="M448.74,-112.32C433.78,-103.82 410.75,-90.73 393.27,-80.8"/>
<polygon fill="midnightblue" stroke="midnightblue" points="394.65,-77.55 384.23,-75.65 391.19,-83.64 394.65,-77.55"/>
</g>
<!-- Node18 -->
<g id="node18" class="node">
<title>Node18</title>
<g id="a_node18"><a xlink:title=" ">
<polygon fill="none" stroke="#bfbfbf" points="431,-56.5 431,-75.5 481,-75.5 481,-56.5 431,-56.5"/>
<text text-anchor="middle" x="456" y="-63.5" font-family="Helvetica,sans-Serif" font-size="10.00">fstream</text>
</a>
</g>
</g>
<!-- Node17&#45;&gt;Node18 -->
<g id="edge21" class="edge">
<title>Node17&#45;&gt;Node18</title>
<path fill="none" stroke="midnightblue" d="M462.68,-112.08C461.62,-104.93 460.09,-94.64 458.77,-85.69"/>
<polygon fill="midnightblue" stroke="midnightblue" points="462.22,-85.13 457.3,-75.75 455.3,-86.16 462.22,-85.13"/>
</g>
<!-- Node19&#45;&gt;Node10 -->
<g id="edge29" class="edge">
<title>Node19&#45;&gt;Node10</title>
<path fill="none" stroke="midnightblue" d="M445.12,-224.35C462.58,-207.54 501.44,-168.84 529,-132 540.31,-116.89 551.19,-98.3 558.57,-84.88"/>
<polygon fill="midnightblue" stroke="midnightblue" points="561.82,-86.23 563.48,-75.77 555.66,-82.91 561.82,-86.23"/>
</g>
<!-- Node19&#45;&gt;Node15 -->
<g id="edge28" class="edge">
<title>Node19&#45;&gt;Node15</title>
<path fill="none" stroke="midnightblue" d="M430.88,-224.08C426.59,-216.61 420.34,-205.72 415.06,-196.52"/>
<polygon fill="midnightblue" stroke="midnightblue" points="418.04,-194.68 410.02,-187.75 411.97,-198.17 418.04,-194.68"/>
</g>
</g>
</svg>
