<?xml version="1.0" encoding="UTF-8" standalone="no"?>
<!DOCTYPE svg PUBLIC "-//W3C//DTD SVG 1.1//EN"
 "http://www.w3.org/Graphics/SVG/1.1/DTD/svg11.dtd">
<!-- Generated by graphviz version 3.0.0 (20220413.0106)
 -->
<!-- Title: AST::accept Pages: 1 -->
<svg width="564pt" height="123pt"
 viewBox="0.00 0.00 564.00 123.00" xmlns="http://www.w3.org/2000/svg" xmlns:xlink="http://www.w3.org/1999/xlink">
<g id="graph0" class="graph" transform="scale(1 1) rotate(0) translate(4 119)">
<title>AST::accept</title>
<!-- Node1 -->
<g id="node1" class="node">
<title>Node1</title>
<g id="a_node1"><a xlink:title=" ">
<polygon fill="#bfbfbf" stroke="black" points="486,-38.5 486,-57.5 556,-57.5 556,-38.5 486,-38.5"/>
<text text-anchor="middle" x="521" y="-45.5" font-family="Helvetica,sans-Serif" font-size="10.00">AST::accept</text>
</a>
</g>
</g>
<!-- Node2 -->
<g id="node2" class="node">
<title>Node2</title>
<g id="a_node2"><a xlink:href="../../dd/dad/class_semantic_visitor.html#a7e2681f9965e7aa34cd55bc5614310d8" target="_top" xlink:title=" ">
<polygon fill="none" stroke="black" points="322,-76.5 322,-95.5 450,-95.5 450,-76.5 322,-76.5"/>
<text text-anchor="middle" x="386" y="-83.5" font-family="Helvetica,sans-Serif" font-size="10.00">SemanticVisitor::getValue</text>
</a>
</g>
</g>
<!-- Node1&#45;&gt;Node2 -->
<g id="edge1" class="edge">
<title>Node1&#45;&gt;Node2</title>
<path fill="none" stroke="midnightblue" d="M476.63,-60.39C458.42,-65.59 437.56,-71.55 420.55,-76.41"/>
<polygon fill="midnightblue" stroke="midnightblue" points="477.78,-63.7 486.44,-57.59 475.86,-56.97 477.78,-63.7"/>
</g>
<!-- Node6 -->
<g id="node6" class="node">
<title>Node6</title>
<g id="a_node6"><a xlink:href="../../d3/db4/graph_draw_8cpp.html#a3c04138a5bfe5d72780bb7e82a18e627" target="_top" xlink:title=" ">
<polygon fill="none" stroke="black" points="367,-38.5 367,-57.5 405,-57.5 405,-38.5 367,-38.5"/>
<text text-anchor="middle" x="386" y="-45.5" font-family="Helvetica,sans-Serif" font-size="10.00">main</text>
</a>
</g>
</g>
<!-- Node1&#45;&gt;Node6 -->
<g id="edge5" class="edge">
<title>Node1&#45;&gt;Node6</title>
<path fill="none" stroke="midnightblue" d="M475.43,-48C451.45,-48 423.19,-48 405.19,-48"/>
<polygon fill="midnightblue" stroke="midnightblue" points="475.75,-51.5 485.75,-48 475.75,-44.5 475.75,-51.5"/>
</g>
<!-- Node7 -->
<g id="node7" class="node">
<title>Node7</title>
<g id="a_node7"><a xlink:href="../../dd/de9/test_syntax_8cpp.html#ac491df98e51a6bba8b808af414b6614f" target="_top" xlink:title="Тест синтаксического анализа Паскаля, простой тест">
<polygon fill="none" stroke="black" points="365.5,-0.5 365.5,-19.5 406.5,-19.5 406.5,-0.5 365.5,-0.5"/>
<text text-anchor="middle" x="386" y="-7.5" font-family="Helvetica,sans-Serif" font-size="10.00">TEST</text>
</a>
</g>
</g>
<!-- Node1&#45;&gt;Node7 -->
<g id="edge6" class="edge">
<title>Node1&#45;&gt;Node7</title>
<path fill="none" stroke="midnightblue" d="M476.62,-35.61C452.97,-28.85 424.87,-20.82 406.52,-15.58"/>
<polygon fill="midnightblue" stroke="midnightblue" points="475.86,-39.03 486.44,-38.41 477.78,-32.3 475.86,-39.03"/>
</g>
<!-- Node3 -->
<g id="node3" class="node">
<title>Node3</title>
<g id="a_node3"><a xlink:href="../../dd/dad/class_semantic_visitor.html#a57140fbe5abb6b09a42abc3994e0fa54" target="_top" xlink:title=" ">
<polygon fill="none" stroke="black" points="144,-95.5 144,-114.5 286,-114.5 286,-95.5 144,-95.5"/>
<text text-anchor="middle" x="215" y="-102.5" font-family="Helvetica,sans-Serif" font-size="10.00">SemanticVisitor::getSubType</text>
</a>
</g>
</g>
<!-- Node2&#45;&gt;Node3 -->
<g id="edge2" class="edge">
<title>Node2&#45;&gt;Node3</title>
<path fill="none" stroke="midnightblue" d="M311.4,-94.27C302.97,-95.22 294.39,-96.19 286,-97.13"/>
<polygon fill="midnightblue" stroke="midnightblue" points="312.04,-97.72 321.59,-93.13 311.26,-90.77 312.04,-97.72"/>
</g>
<!-- Node5 -->
<g id="node5" class="node">
<title>Node5</title>
<g id="a_node5"><a xlink:href="../../dd/dad/class_semantic_visitor.html#acec505e2c5fc2f49a80b7a41832fefbf" target="_top" xlink:title=" ">
<polygon fill="none" stroke="black" points="161,-57.5 161,-76.5 269,-76.5 269,-57.5 161,-57.5"/>
<text text-anchor="middle" x="215" y="-64.5" font-family="Helvetica,sans-Serif" font-size="10.00">SemanticVisitor::visit</text>
</a>
</g>
</g>
<!-- Node2&#45;&gt;Node5 -->
<g id="edge4" class="edge">
<title>Node2&#45;&gt;Node5</title>
<path fill="none" stroke="midnightblue" d="M311.37,-77.72C297.21,-76.13 282.63,-74.49 269.26,-72.99"/>
<polygon fill="midnightblue" stroke="midnightblue" points="311.26,-81.23 321.59,-78.87 312.04,-74.28 311.26,-81.23"/>
</g>
<!-- Node4 -->
<g id="node4" class="node">
<title>Node4</title>
<g id="a_node4"><a xlink:href="../../dd/dad/class_semantic_visitor.html#a1bdd0de54198ad56d2b31f946a2dcff6" target="_top" xlink:title=" ">
<polygon fill="none" stroke="black" points="0,-95.5 0,-114.5 108,-114.5 108,-95.5 0,-95.5"/>
<text text-anchor="middle" x="54" y="-102.5" font-family="Helvetica,sans-Serif" font-size="10.00">SemanticVisitor::visit</text>
</a>
</g>
</g>
<!-- Node3&#45;&gt;Node4 -->
<g id="edge3" class="edge">
<title>Node3&#45;&gt;Node4</title>
<path fill="none" stroke="midnightblue" d="M133.65,-105C124.98,-105 116.33,-105 108.11,-105"/>
<polygon fill="midnightblue" stroke="midnightblue" points="133.8,-108.5 143.8,-105 133.8,-101.5 133.8,-108.5"/>
</g>
</g>
</svg>
