<?xml version="1.0" encoding="UTF-8" standalone="no"?>
<!DOCTYPE svg PUBLIC "-//W3C//DTD SVG 1.1//EN"
 "http://www.w3.org/Graphics/SVG/1.1/DTD/svg11.dtd">
<!-- Generated by graphviz version 2.43.0 (0)
 -->
<!-- Title: List::pushBack Pages: 1 -->
<svg width="497pt" height="218pt"
 viewBox="0.00 0.00 497.00 218.00" xmlns="http://www.w3.org/2000/svg" xmlns:xlink="http://www.w3.org/1999/xlink">
<g id="graph0" class="graph" transform="scale(1 1) rotate(0) translate(4 214)">
<title>List::pushBack</title>
<!-- Node1 -->
<g id="node1" class="node">
<title>Node1</title>
<g id="a_node1"><a xlink:title="Вставка в конец списка">
<polygon fill="#bfbfbf" stroke="black" points="402,-95.5 402,-114.5 489,-114.5 489,-95.5 402,-95.5"/>
<text text-anchor="middle" x="445.5" y="-102.5" font-family="Helvetica,sans-Serif" font-size="10.00">List::pushBack</text>
</a>
</g>
</g>
<!-- Node2 -->
<g id="node2" class="node">
<title>Node2</title>
<g id="a_node2"><a xlink:href="../../da/d5a/class_lexer.html#ad7f60235e0e2ceb2a4536237e0a07830" target="_top" xlink:title="Добавляет в шаблоны для определения токена новый шаблон">
<polygon fill="none" stroke="black" points="231,-190.5 231,-209.5 352,-209.5 352,-190.5 231,-190.5"/>
<text text-anchor="middle" x="291.5" y="-197.5" font-family="Helvetica,sans-Serif" font-size="10.00">Lexer::addTokenTemp</text>
</a>
</g>
</g>
<!-- Node1&#45;&gt;Node2 -->
<g id="edge1" class="edge">
<title>Node1&#45;&gt;Node2</title>
<path fill="none" stroke="midnightblue" d="M430.86,-122.75C416.55,-140.15 392.49,-166.15 366,-181 359.1,-184.87 351.4,-187.97 343.65,-190.44"/>
<polygon fill="midnightblue" stroke="midnightblue" points="433.9,-124.54 437.41,-114.55 428.43,-120.18 433.9,-124.54"/>
</g>
<!-- Node3 -->
<g id="node3" class="node">
<title>Node3</title>
<g id="a_node3"><a xlink:href="../../da/d5a/class_lexer.html#a473a8abf892384a3e2769651318d7ab1" target="_top" xlink:title="Анализирует текст программы">
<polygon fill="none" stroke="black" points="217,-152.5 217,-171.5 366,-171.5 366,-152.5 217,-152.5"/>
<text text-anchor="middle" x="291.5" y="-159.5" font-family="Helvetica,sans-Serif" font-size="10.00">Lexer::analyzeProgramText</text>
</a>
</g>
</g>
<!-- Node1&#45;&gt;Node3 -->
<g id="edge2" class="edge">
<title>Node1&#45;&gt;Node3</title>
<path fill="none" stroke="midnightblue" d="M418.01,-119.45C403.05,-127.19 383.84,-136.45 366,-143 356.23,-146.59 345.48,-149.77 335.3,-152.46"/>
<polygon fill="midnightblue" stroke="midnightblue" points="419.95,-122.38 427.16,-114.63 416.69,-116.19 419.95,-122.38"/>
</g>
<!-- Node7 -->
<g id="node7" class="node">
<title>Node7</title>
<g id="a_node7"><a xlink:href="../../d1/d34/class_list.html#abd67e40b26c56704a82f993e073b1113" target="_top" xlink:title="Конструктор из вектора">
<polygon fill="none" stroke="black" points="263,-114.5 263,-133.5 320,-133.5 320,-114.5 263,-114.5"/>
<text text-anchor="middle" x="291.5" y="-121.5" font-family="Helvetica,sans-Serif" font-size="10.00">List::List</text>
</a>
</g>
</g>
<!-- Node1&#45;&gt;Node7 -->
<g id="edge6" class="edge">
<title>Node1&#45;&gt;Node7</title>
<path fill="none" stroke="midnightblue" d="M391.67,-111.6C367.56,-114.62 340.02,-118.06 320.09,-120.55"/>
<polygon fill="midnightblue" stroke="midnightblue" points="392.27,-115.06 401.76,-110.34 391.4,-108.11 392.27,-115.06"/>
</g>
<!-- Node8 -->
<g id="node8" class="node">
<title>Node8</title>
<g id="a_node8"><a xlink:href="../../d1/d34/class_list.html#a4d009406c9248e7060e5cc7621f80e32" target="_top" xlink:title=" ">
<polygon fill="none" stroke="black" points="247,-76.5 247,-95.5 336,-95.5 336,-76.5 247,-76.5"/>
<text text-anchor="middle" x="291.5" y="-83.5" font-family="Helvetica,sans-Serif" font-size="10.00">List::operator=</text>
</a>
</g>
</g>
<!-- Node1&#45;&gt;Node8 -->
<g id="edge7" class="edge">
<title>Node1&#45;&gt;Node8</title>
<path fill="none" stroke="midnightblue" d="M391.65,-98.39C373.56,-96.13 353.53,-93.63 336.24,-91.47"/>
<polygon fill="midnightblue" stroke="midnightblue" points="391.4,-101.89 401.76,-99.66 392.27,-94.94 391.4,-101.89"/>
</g>
<!-- Node9 -->
<g id="node9" class="node">
<title>Node9</title>
<g id="a_node9"><a xlink:href="../../d4/da4/class_queue.html#a5922a27c16bc172458703580f8fd3257" target="_top" xlink:title="Вставляет значение в хвост очереди">
<polygon fill="none" stroke="black" points="253,-38.5 253,-57.5 330,-57.5 330,-38.5 253,-38.5"/>
<text text-anchor="middle" x="291.5" y="-45.5" font-family="Helvetica,sans-Serif" font-size="10.00">Queue::push</text>
</a>
</g>
</g>
<!-- Node1&#45;&gt;Node9 -->
<g id="edge8" class="edge">
<title>Node1&#45;&gt;Node9</title>
<path fill="none" stroke="midnightblue" d="M418.01,-90.55C403.05,-82.81 383.84,-73.55 366,-67 354.62,-62.82 341.92,-59.19 330.33,-56.26"/>
<polygon fill="midnightblue" stroke="midnightblue" points="416.69,-93.81 427.16,-95.37 419.95,-87.62 416.69,-93.81"/>
</g>
<!-- Node11 -->
<g id="node11" class="node">
<title>Node11</title>
<g id="a_node11"><a xlink:href="../../d9/d2f/test_list_8cpp.html#a8f60f28a842f3b90e02e86c026421ff7" target="_top" xlink:title="Тест размера после вставки в конец">
<polygon fill="none" stroke="black" points="271,-0.5 271,-19.5 312,-19.5 312,-0.5 271,-0.5"/>
<text text-anchor="middle" x="291.5" y="-7.5" font-family="Helvetica,sans-Serif" font-size="10.00">TEST</text>
</a>
</g>
</g>
<!-- Node1&#45;&gt;Node11 -->
<g id="edge10" class="edge">
<title>Node1&#45;&gt;Node11</title>
<path fill="none" stroke="midnightblue" d="M430.86,-87.25C416.55,-69.85 392.49,-43.85 366,-29 349.22,-19.59 327.67,-14.73 312.25,-12.3"/>
<polygon fill="midnightblue" stroke="midnightblue" points="428.43,-89.82 437.41,-95.45 433.9,-85.46 428.43,-89.82"/>
</g>
<!-- Node4 -->
<g id="node4" class="node">
<title>Node4</title>
<g id="a_node4"><a xlink:href="../../da/d5a/class_lexer.html#afcb6ff36e1b746fec7df3a9ea7f63fff" target="_top" xlink:title="Анализирует файл">
<polygon fill="none" stroke="black" points="77,-152.5 77,-171.5 181,-171.5 181,-152.5 77,-152.5"/>
<text text-anchor="middle" x="129" y="-159.5" font-family="Helvetica,sans-Serif" font-size="10.00">Lexer::analyzeFile</text>
</a>
</g>
</g>
<!-- Node3&#45;&gt;Node4 -->
<g id="edge3" class="edge">
<title>Node3&#45;&gt;Node4</title>
<path fill="none" stroke="midnightblue" d="M206.65,-162C197.99,-162 189.38,-162 181.23,-162"/>
<polygon fill="midnightblue" stroke="midnightblue" points="206.83,-165.5 216.83,-162 206.83,-158.5 206.83,-165.5"/>
</g>
<!-- Node5 -->
<g id="node5" class="node">
<title>Node5</title>
<g id="a_node5"><a xlink:href="../../df/d0a/main_8cpp.html#a3c04138a5bfe5d72780bb7e82a18e627" target="_top" xlink:title=" ">
<polygon fill="none" stroke="black" points="0,-171.5 0,-190.5 41,-190.5 41,-171.5 0,-171.5"/>
<text text-anchor="middle" x="20.5" y="-178.5" font-family="Helvetica,sans-Serif" font-size="10.00">main</text>
</a>
</g>
</g>
<!-- Node4&#45;&gt;Node5 -->
<g id="edge4" class="edge">
<title>Node4&#45;&gt;Node5</title>
<path fill="none" stroke="midnightblue" d="M66.83,-172.91C57.58,-174.56 48.66,-176.15 41.22,-177.48"/>
<polygon fill="midnightblue" stroke="midnightblue" points="67.7,-176.31 76.93,-171.11 66.47,-169.42 67.7,-176.31"/>
</g>
<!-- Node6 -->
<g id="node6" class="node">
<title>Node6</title>
<g id="a_node6"><a xlink:href="../../d0/d0f/test_lexer__1_8cpp.html#a42b988f5ceb814376db8a2df3c933b15" target="_top" xlink:title="Тест разбора простых математических выражений">
<polygon fill="none" stroke="black" points="0,-133.5 0,-152.5 41,-152.5 41,-133.5 0,-133.5"/>
<text text-anchor="middle" x="20.5" y="-140.5" font-family="Helvetica,sans-Serif" font-size="10.00">TEST</text>
</a>
</g>
</g>
<!-- Node4&#45;&gt;Node6 -->
<g id="edge5" class="edge">
<title>Node4&#45;&gt;Node6</title>
<path fill="none" stroke="midnightblue" d="M66.83,-151.09C57.58,-149.44 48.66,-147.85 41.22,-146.52"/>
<polygon fill="midnightblue" stroke="midnightblue" points="66.47,-154.58 76.93,-152.89 67.7,-147.69 66.47,-154.58"/>
</g>
<!-- Node10 -->
<g id="node10" class="node">
<title>Node10</title>
<g id="a_node10"><a xlink:href="../../d1/ddc/test_queue_8cpp.html#a4c587fd9d2cb75d2710ff2a2b06e5a28" target="_top" xlink:title="Тест вставки">
<polygon fill="none" stroke="black" points="108.5,-38.5 108.5,-57.5 149.5,-57.5 149.5,-38.5 108.5,-38.5"/>
<text text-anchor="middle" x="129" y="-45.5" font-family="Helvetica,sans-Serif" font-size="10.00">TEST</text>
</a>
</g>
</g>
<!-- Node9&#45;&gt;Node10 -->
<g id="edge9" class="edge">
<title>Node9&#45;&gt;Node10</title>
<path fill="none" stroke="midnightblue" d="M242.68,-48C211.65,-48 172.85,-48 149.82,-48"/>
<polygon fill="midnightblue" stroke="midnightblue" points="242.87,-51.5 252.87,-48 242.87,-44.5 242.87,-51.5"/>
</g>
</g>
</svg>
