<?xml version="1.0" encoding="UTF-8" standalone="no"?>
<!DOCTYPE svg PUBLIC "-//W3C//DTD SVG 1.1//EN"
 "http://www.w3.org/Graphics/SVG/1.1/DTD/svg11.dtd">
<!-- Generated by graphviz version 2.43.0 (0)
 -->
<!-- Title: List::popBack Pages: 1 -->
<svg width="339pt" height="170pt"
 viewBox="0.00 0.00 339.00 170.00" xmlns="http://www.w3.org/2000/svg" xmlns:xlink="http://www.w3.org/1999/xlink">
<g id="graph0" class="graph" transform="scale(1 1) rotate(0) translate(4 166)">
<title>List::popBack</title>
<!-- Node1 -->
<g id="node1" class="node">
<title>Node1</title>
<g id="a_node1"><a xlink:title="Удаление из конца списка">
<polygon fill="#bfbfbf" stroke="black" points="249,-38.5 249,-57.5 331,-57.5 331,-38.5 249,-38.5"/>
<text text-anchor="middle" x="290" y="-45.5" font-family="Helvetica,sans-Serif" font-size="10.00">List::popBack</text>
</a>
</g>
</g>
<!-- Node2 -->
<g id="node2" class="node">
<title>Node2</title>
<g id="a_node2"><a xlink:href="../../d1/d34/class_list.html#ab130f4e1fe1c3fee570cf06f144d4154" target="_top" xlink:title="очищает память, выделенную под узлы списка">
<polygon fill="none" stroke="black" points="137,-85.5 137,-104.5 201,-104.5 201,-85.5 137,-85.5"/>
<text text-anchor="middle" x="169" y="-92.5" font-family="Helvetica,sans-Serif" font-size="10.00">List::clear</text>
</a>
</g>
</g>
<!-- Node1&#45;&gt;Node2 -->
<g id="edge1" class="edge">
<title>Node1&#45;&gt;Node2</title>
<path fill="none" stroke="midnightblue" d="M255.53,-61.22C236.11,-68.89 212.09,-78.38 194.45,-85.34"/>
<polygon fill="midnightblue" stroke="midnightblue" points="256.9,-64.44 264.92,-57.51 254.33,-57.93 256.9,-64.44"/>
</g>
<!-- Node6 -->
<g id="node6" class="node">
<title>Node6</title>
<g id="a_node6"><a xlink:href="../../d1/d34/class_list.html#a0932514a25b68c813750998115a7ad45" target="_top" xlink:title="Безопасная функция для удаления, т.к. учитывается изменение указателя на начало и конец списка">
<polygon fill="none" stroke="black" points="125,-38.5 125,-57.5 213,-57.5 213,-38.5 125,-38.5"/>
<text text-anchor="middle" x="169" y="-45.5" font-family="Helvetica,sans-Serif" font-size="10.00">List::removeAt</text>
</a>
</g>
</g>
<!-- Node1&#45;&gt;Node6 -->
<g id="edge5" class="edge">
<title>Node1&#45;&gt;Node6</title>
<path fill="none" stroke="midnightblue" d="M238.55,-48C230.08,-48 221.36,-48 213.1,-48"/>
<polygon fill="midnightblue" stroke="midnightblue" points="238.71,-51.5 248.71,-48 238.71,-44.5 238.71,-51.5"/>
</g>
<!-- Node8 -->
<g id="node8" class="node">
<title>Node8</title>
<g id="a_node8"><a xlink:href="../../d9/d2f/test_list_8cpp.html#a744706668fa4ed42a12207ac119c3965" target="_top" xlink:title="Тест размера после удаления из конца">
<polygon fill="none" stroke="black" points="148.5,-0.5 148.5,-19.5 189.5,-19.5 189.5,-0.5 148.5,-0.5"/>
<text text-anchor="middle" x="169" y="-7.5" font-family="Helvetica,sans-Serif" font-size="10.00">TEST</text>
</a>
</g>
</g>
<!-- Node1&#45;&gt;Node8 -->
<g id="edge7" class="edge">
<title>Node1&#45;&gt;Node8</title>
<path fill="none" stroke="midnightblue" d="M249.42,-35.36C229.31,-28.94 205.77,-21.42 189.57,-16.25"/>
<polygon fill="midnightblue" stroke="midnightblue" points="248.38,-38.7 258.97,-38.41 250.51,-32.03 248.38,-38.7"/>
</g>
<!-- Node3 -->
<g id="node3" class="node">
<title>Node3</title>
<g id="a_node3"><a xlink:href="../../d1/d34/class_list.html#a18f2ee8a1d7f0e262070efc561a81bfb" target="_top" xlink:title="Конструктор из другого списка">
<polygon fill="none" stroke="black" points="16,-142.5 16,-161.5 73,-161.5 73,-142.5 16,-142.5"/>
<text text-anchor="middle" x="44.5" y="-149.5" font-family="Helvetica,sans-Serif" font-size="10.00">List::List</text>
</a>
</g>
</g>
<!-- Node2&#45;&gt;Node3 -->
<g id="edge2" class="edge">
<title>Node2&#45;&gt;Node3</title>
<path fill="none" stroke="midnightblue" d="M139.38,-109.08C124.43,-116.35 105.79,-125.3 89,-133 82.11,-136.16 74.55,-139.5 67.7,-142.49"/>
<polygon fill="midnightblue" stroke="midnightblue" points="141.16,-112.1 148.61,-104.57 138.09,-105.81 141.16,-112.1"/>
</g>
<!-- Node4 -->
<g id="node4" class="node">
<title>Node4</title>
<g id="a_node4"><a xlink:href="../../d1/d34/class_list.html#a4d009406c9248e7060e5cc7621f80e32" target="_top" xlink:title=" ">
<polygon fill="none" stroke="black" points="0,-104.5 0,-123.5 89,-123.5 89,-104.5 0,-104.5"/>
<text text-anchor="middle" x="44.5" y="-111.5" font-family="Helvetica,sans-Serif" font-size="10.00">List::operator=</text>
</a>
</g>
</g>
<!-- Node2&#45;&gt;Node4 -->
<g id="edge3" class="edge">
<title>Node2&#45;&gt;Node4</title>
<path fill="none" stroke="midnightblue" d="M126.54,-101.43C114.5,-103.3 101.32,-105.34 89.15,-107.23"/>
<polygon fill="midnightblue" stroke="midnightblue" points="127.43,-104.84 136.77,-99.84 126.35,-97.92 127.43,-104.84"/>
</g>
<!-- Node5 -->
<g id="node5" class="node">
<title>Node5</title>
<g id="a_node5"><a xlink:href="../../d1/d34/class_list.html#a2b58189090f6e5ce52939c9195e59e85" target="_top" xlink:title="Деструктор">
<polygon fill="none" stroke="black" points="12,-66.5 12,-85.5 77,-85.5 77,-66.5 12,-66.5"/>
<text text-anchor="middle" x="44.5" y="-73.5" font-family="Helvetica,sans-Serif" font-size="10.00">List::~List</text>
</a>
</g>
</g>
<!-- Node2&#45;&gt;Node5 -->
<g id="edge4" class="edge">
<title>Node2&#45;&gt;Node5</title>
<path fill="none" stroke="midnightblue" d="M126.51,-88.56C110.36,-86.06 92.15,-83.24 77.1,-80.9"/>
<polygon fill="midnightblue" stroke="midnightblue" points="126.35,-92.08 136.77,-90.16 127.43,-85.16 126.35,-92.08"/>
</g>
<!-- Node7 -->
<g id="node7" class="node">
<title>Node7</title>
<g id="a_node7"><a xlink:href="../../d9/d2f/test_list_8cpp.html#afbc53743ea2ceea766182ca473dde64b" target="_top" xlink:title="Тест размера списка после удаления">
<polygon fill="none" stroke="black" points="24,-28.5 24,-47.5 65,-47.5 65,-28.5 24,-28.5"/>
<text text-anchor="middle" x="44.5" y="-35.5" font-family="Helvetica,sans-Serif" font-size="10.00">TEST</text>
</a>
</g>
</g>
<!-- Node6&#45;&gt;Node7 -->
<g id="edge6" class="edge">
<title>Node6&#45;&gt;Node7</title>
<path fill="none" stroke="midnightblue" d="M114.58,-43.64C96.96,-42.2 78.47,-40.69 65.05,-39.6"/>
<polygon fill="midnightblue" stroke="midnightblue" points="114.56,-47.15 124.81,-44.47 115.13,-40.17 114.56,-47.15"/>
</g>
</g>
</svg>
