<?xml version="1.0" encoding="UTF-8" standalone="no"?>
<!DOCTYPE svg PUBLIC "-//W3C//DTD SVG 1.1//EN"
 "http://www.w3.org/Graphics/SVG/1.1/DTD/svg11.dtd">
<!-- Generated by graphviz version 3.0.0 (20220413.0106)
 -->
<!-- Title: LexerException Pages: 1 -->
<svg width="148pt" height="209pt"
 viewBox="0.00 0.00 147.50 209.00" xmlns="http://www.w3.org/2000/svg" xmlns:xlink="http://www.w3.org/1999/xlink">
<g id="graph0" class="graph" transform="scale(1 1) rotate(0) translate(4 205)">
<title>LexerException</title>
<!-- Node1 -->
<g id="node1" class="node">
<title>Node1</title>
<g id="a_node1"><a xlink:title=" ">
<polygon fill="#bfbfbf" stroke="black" points="23.5,-0.5 23.5,-19.5 106.5,-19.5 106.5,-0.5 23.5,-0.5"/>
<text text-anchor="middle" x="65" y="-7.5" font-family="Helvetica,sans-Serif" font-size="10.00">LexerException</text>
</a>
</g>
</g>
<!-- Node2 -->
<g id="node2" class="node">
<title>Node2</title>
<g id="a_node2"><a xlink:href="../../df/d7c/class_analyze_exception.html" target="_top" xlink:title=" ">
<polygon fill="none" stroke="black" points="19,-57.5 19,-76.5 111,-76.5 111,-57.5 19,-57.5"/>
<text text-anchor="middle" x="65" y="-64.5" font-family="Helvetica,sans-Serif" font-size="10.00">AnalyzeException</text>
</a>
</g>
</g>
<!-- Node2&#45;&gt;Node1 -->
<g id="edge1" class="edge">
<title>Node2&#45;&gt;Node1</title>
<path fill="none" stroke="midnightblue" d="M65,-47.12C65,-37.82 65,-27.06 65,-19.71"/>
<polygon fill="midnightblue" stroke="midnightblue" points="61.5,-47.41 65,-57.41 68.5,-47.41 61.5,-47.41"/>
</g>
<!-- Node3 -->
<g id="node3" class="node">
<title>Node3</title>
<g id="a_node3"><a xlink:title=" ">
<polygon fill="none" stroke="black" points="0,-124.5 0,-143.5 76,-143.5 76,-124.5 0,-124.5"/>
<text text-anchor="middle" x="38" y="-131.5" font-family="Helvetica,sans-Serif" font-size="10.00">std::exception</text>
</a>
</g>
</g>
<!-- Node3&#45;&gt;Node2 -->
<g id="edge2" class="edge">
<title>Node3&#45;&gt;Node2</title>
<path fill="none" stroke="midnightblue" d="M45.56,-114.79C50.75,-102.31 57.39,-86.31 61.42,-76.63"/>
<polygon fill="midnightblue" stroke="midnightblue" points="42.25,-113.66 41.64,-124.23 48.71,-116.34 42.25,-113.66"/>
</g>
<!-- Node4 -->
<g id="node4" class="node">
<title>Node4</title>
<g id="a_node4"><a xlink:href="../../db/dc1/class_token.html" target="_top" xlink:title="Класс, представляющий токен">
<polygon fill="none" stroke="black" points="94,-124.5 94,-143.5 138,-143.5 138,-124.5 94,-124.5"/>
<text text-anchor="middle" x="116" y="-131.5" font-family="Helvetica,sans-Serif" font-size="10.00">Token</text>
</a>
</g>
</g>
<!-- Node4&#45;&gt;Node2 -->
<g id="edge3" class="edge">
<title>Node4&#45;&gt;Node2</title>
<path fill="none" stroke="#9a32cd" stroke-dasharray="5,2" d="M102.87,-116.27C92.93,-103.6 79.67,-86.7 71.77,-76.63"/>
<polygon fill="#9a32cd" stroke="#9a32cd" points="100.2,-118.53 109.12,-124.23 105.7,-114.21 100.2,-118.53"/>
<text text-anchor="middle" x="112.5" y="-98" font-family="Helvetica,sans-Serif" font-size="10.00"> errorTok</text>
</g>
<!-- Node5 -->
<g id="node5" class="node">
<title>Node5</title>
<g id="a_node5"><a xlink:href="../../d0/d11/class_i_token.html" target="_top" xlink:title="Класс&#45;родитель для классов, работающих с токенами">
<polygon fill="none" stroke="black" points="92.5,-181.5 92.5,-200.5 139.5,-200.5 139.5,-181.5 92.5,-181.5"/>
<text text-anchor="middle" x="116" y="-188.5" font-family="Helvetica,sans-Serif" font-size="10.00">IToken</text>
</a>
</g>
</g>
<!-- Node5&#45;&gt;Node4 -->
<g id="edge4" class="edge">
<title>Node5&#45;&gt;Node4</title>
<path fill="none" stroke="midnightblue" d="M116,-171.12C116,-161.82 116,-151.06 116,-143.71"/>
<polygon fill="midnightblue" stroke="midnightblue" points="112.5,-171.41 116,-181.41 119.5,-171.41 112.5,-171.41"/>
</g>
</g>
</svg>
