<?xml version="1.0" encoding="UTF-8" standalone="no"?>
<!DOCTYPE svg PUBLIC "-//W3C//DTD SVG 1.1//EN"
 "http://www.w3.org/Graphics/SVG/1.1/DTD/svg11.dtd">
<!-- Generated by graphviz version 2.43.0 (0)
 -->
<!-- Title: name Pages: 1 -->
<svg width="681pt" height="727pt"
 viewBox="0.00 0.00 681.00 727.48" xmlns="http://www.w3.org/2000/svg" xmlns:xlink="http://www.w3.org/1999/xlink">
<g id="graph0" class="graph" transform="scale(1 1) rotate(0) translate(4 723.48)">
<title>name</title>
<polygon fill="white" stroke="transparent" points="-4,4 -4,-723.48 677,-723.48 677,4 -4,4"/>
<!-- n0 -->
<g id="node1" class="node">
<title>n0</title>
<ellipse fill="none" stroke="black" cx="309" cy="-692.61" rx="69.09" ry="26.74"/>
<text text-anchor="middle" x="309" y="-696.41" font-family="Times,serif" font-size="14.00">PROGRAM:</text>
<text text-anchor="middle" x="309" y="-681.41" font-family="Times,serif" font-size="14.00">test</text>
</g>
<!-- n1 -->
<g id="node2" class="node">
<title>n1</title>
<ellipse fill="none" stroke="black" cx="250" cy="-602.87" rx="56.64" ry="26.74"/>
<text text-anchor="middle" x="250" y="-606.67" font-family="Times,serif" font-size="14.00">function:</text>
<text text-anchor="middle" x="250" y="-591.67" font-family="Times,serif" font-size="14.00">fib</text>
</g>
<!-- n0&#45;&gt;n1 -->
<g id="edge1" class="edge">
<title>n0&#45;&gt;n1</title>
<path fill="none" stroke="black" d="M291.93,-666.23C285.84,-657.16 278.87,-646.81 272.39,-637.17"/>
<polygon fill="black" stroke="black" points="275.1,-634.93 266.62,-628.59 269.3,-638.84 275.1,-634.93"/>
</g>
<!-- n28 -->
<g id="node29" class="node">
<title>n28</title>
<ellipse fill="none" stroke="black" cx="422" cy="-602.87" rx="44.39" ry="18"/>
<text text-anchor="middle" x="422" y="-599.17" font-family="Times,serif" font-size="14.00">BLOCK</text>
</g>
<!-- n0&#45;&gt;n28 -->
<g id="edge28" class="edge">
<title>n0&#45;&gt;n28</title>
<path fill="none" stroke="black" d="M338.99,-668.33C356.02,-655.1 377.22,-638.64 393.93,-625.66"/>
<polygon fill="black" stroke="black" points="396.46,-628.13 402.21,-619.23 392.17,-622.6 396.46,-628.13"/>
</g>
<!-- n2 -->
<g id="node3" class="node">
<title>n2</title>
<ellipse fill="none" stroke="black" cx="63" cy="-522" rx="56.59" ry="18"/>
<text text-anchor="middle" x="63" y="-518.3" font-family="Times,serif" font-size="14.00">VARDECL</text>
</g>
<!-- n1&#45;&gt;n2 -->
<g id="edge2" class="edge">
<title>n1&#45;&gt;n2</title>
<path fill="none" stroke="black" d="M208.5,-584.37C177.68,-571.37 135.82,-553.71 104.91,-540.68"/>
<polygon fill="black" stroke="black" points="106.27,-537.45 95.69,-536.79 103.55,-543.9 106.27,-537.45"/>
</g>
<!-- n5 -->
<g id="node6" class="node">
<title>n5</title>
<ellipse fill="none" stroke="black" cx="182" cy="-522" rx="44.39" ry="18"/>
<text text-anchor="middle" x="182" y="-518.3" font-family="Times,serif" font-size="14.00">integer</text>
</g>
<!-- n1&#45;&gt;n5 -->
<g id="edge5" class="edge">
<title>n1&#45;&gt;n5</title>
<path fill="none" stroke="black" d="M229.23,-577.78C220.81,-568.01 211.1,-556.75 202.69,-547"/>
<polygon fill="black" stroke="black" points="205.16,-544.5 195.98,-539.22 199.86,-549.08 205.16,-544.5"/>
</g>
<!-- n6 -->
<g id="node7" class="node">
<title>n6</title>
<ellipse fill="none" stroke="black" cx="288" cy="-522" rx="44.39" ry="18"/>
<text text-anchor="middle" x="288" y="-518.3" font-family="Times,serif" font-size="14.00">BLOCK</text>
</g>
<!-- n1&#45;&gt;n6 -->
<g id="edge6" class="edge">
<title>n1&#45;&gt;n6</title>
<path fill="none" stroke="black" d="M262.23,-576.48C266.44,-567.75 271.15,-557.96 275.39,-549.17"/>
<polygon fill="black" stroke="black" points="278.56,-550.65 279.75,-540.12 272.26,-547.61 278.56,-550.65"/>
</g>
<!-- n3 -->
<g id="node4" class="node">
<title>n3</title>
<ellipse fill="none" stroke="black" cx="27" cy="-450" rx="27" ry="18"/>
<text text-anchor="middle" x="27" y="-446.3" font-family="Times,serif" font-size="14.00">n</text>
</g>
<!-- n2&#45;&gt;n3 -->
<g id="edge3" class="edge">
<title>n2&#45;&gt;n3</title>
<path fill="none" stroke="black" d="M54.29,-504.05C50.02,-495.77 44.8,-485.62 40.08,-476.42"/>
<polygon fill="black" stroke="black" points="43.07,-474.6 35.39,-467.31 36.85,-477.8 43.07,-474.6"/>
</g>
<!-- n4 -->
<g id="node5" class="node">
<title>n4</title>
<ellipse fill="none" stroke="black" cx="116" cy="-450" rx="44.39" ry="18"/>
<text text-anchor="middle" x="116" y="-446.3" font-family="Times,serif" font-size="14.00">integer</text>
</g>
<!-- n2&#45;&gt;n4 -->
<g id="edge4" class="edge">
<title>n2&#45;&gt;n4</title>
<path fill="none" stroke="black" d="M75.56,-504.41C82.09,-495.78 90.21,-485.06 97.45,-475.5"/>
<polygon fill="black" stroke="black" points="100.28,-477.56 103.53,-467.47 94.7,-473.33 100.28,-477.56"/>
</g>
<!-- n7 -->
<g id="node8" class="node">
<title>n7</title>
<ellipse fill="none" stroke="black" cx="280" cy="-450" rx="70.69" ry="18"/>
<text text-anchor="middle" x="280" y="-446.3" font-family="Times,serif" font-size="14.00">COMPOUND</text>
</g>
<!-- n6&#45;&gt;n7 -->
<g id="edge7" class="edge">
<title>n6&#45;&gt;n7</title>
<path fill="none" stroke="black" d="M286.02,-503.7C285.14,-495.98 284.08,-486.71 283.1,-478.11"/>
<polygon fill="black" stroke="black" points="286.57,-477.64 281.95,-468.1 279.61,-478.44 286.57,-477.64"/>
</g>
<!-- n8 -->
<g id="node9" class="node">
<title>n8</title>
<ellipse fill="none" stroke="black" cx="280" cy="-378" rx="27" ry="18"/>
<text text-anchor="middle" x="280" y="-374.3" font-family="Times,serif" font-size="14.00">if</text>
</g>
<!-- n7&#45;&gt;n8 -->
<g id="edge8" class="edge">
<title>n7&#45;&gt;n8</title>
<path fill="none" stroke="black" d="M280,-431.7C280,-423.98 280,-414.71 280,-406.11"/>
<polygon fill="black" stroke="black" points="283.5,-406.1 280,-396.1 276.5,-406.1 283.5,-406.1"/>
</g>
<!-- n9 -->
<g id="node10" class="node">
<title>n9</title>
<ellipse fill="none" stroke="black" cx="180" cy="-306" rx="40.09" ry="18"/>
<text text-anchor="middle" x="180" y="-302.3" font-family="Times,serif" font-size="14.00">return</text>
</g>
<!-- n8&#45;&gt;n9 -->
<g id="edge9" class="edge">
<title>n8&#45;&gt;n9</title>
<path fill="none" stroke="black" d="M262.12,-364.49C247.48,-354.24 226.47,-339.53 209.37,-327.56"/>
<polygon fill="black" stroke="black" points="211.04,-324.45 200.84,-321.59 207.02,-330.19 211.04,-324.45"/>
</g>
<!-- n11 -->
<g id="node12" class="node">
<title>n11</title>
<ellipse fill="none" stroke="black" cx="280" cy="-306" rx="27" ry="18"/>
<text text-anchor="middle" x="280" y="-302.3" font-family="Times,serif" font-size="14.00">or</text>
</g>
<!-- n8&#45;&gt;n11 -->
<g id="edge11" class="edge">
<title>n8&#45;&gt;n11</title>
<path fill="none" stroke="black" d="M280,-359.7C280,-351.98 280,-342.71 280,-334.11"/>
<polygon fill="black" stroke="black" points="283.5,-334.1 280,-324.1 276.5,-334.1 283.5,-334.1"/>
</g>
<!-- n18 -->
<g id="node19" class="node">
<title>n18</title>
<ellipse fill="none" stroke="black" cx="395" cy="-306" rx="40.09" ry="18"/>
<text text-anchor="middle" x="395" y="-302.3" font-family="Times,serif" font-size="14.00">return</text>
</g>
<!-- n8&#45;&gt;n18 -->
<g id="edge18" class="edge">
<title>n8&#45;&gt;n18</title>
<path fill="none" stroke="black" d="M299.25,-365.28C316.74,-354.64 342.87,-338.73 363.41,-326.23"/>
<polygon fill="black" stroke="black" points="365.4,-329.11 372.12,-320.92 361.76,-323.13 365.4,-329.11"/>
</g>
<!-- n10 -->
<g id="node11" class="node">
<title>n10</title>
<ellipse fill="none" stroke="black" cx="151" cy="-234" rx="27" ry="18"/>
<text text-anchor="middle" x="151" y="-230.3" font-family="Times,serif" font-size="14.00">1</text>
</g>
<!-- n9&#45;&gt;n10 -->
<g id="edge10" class="edge">
<title>n9&#45;&gt;n10</title>
<path fill="none" stroke="black" d="M172.98,-288.05C169.63,-279.97 165.55,-270.12 161.82,-261.11"/>
<polygon fill="black" stroke="black" points="165.02,-259.69 157.96,-251.79 158.55,-262.37 165.02,-259.69"/>
</g>
<!-- n12 -->
<g id="node13" class="node">
<title>n12</title>
<ellipse fill="none" stroke="black" cx="223" cy="-234" rx="27" ry="18"/>
<text text-anchor="middle" x="223" y="-230.3" font-family="Times,serif" font-size="14.00">=</text>
</g>
<!-- n11&#45;&gt;n12 -->
<g id="edge12" class="edge">
<title>n11&#45;&gt;n12</title>
<path fill="none" stroke="black" d="M267.63,-289.81C260.09,-280.55 250.3,-268.52 241.81,-258.09"/>
<polygon fill="black" stroke="black" points="244.37,-255.7 235.34,-250.16 238.94,-260.12 244.37,-255.7"/>
</g>
<!-- n15 -->
<g id="node16" class="node">
<title>n15</title>
<ellipse fill="none" stroke="black" cx="295" cy="-234" rx="27" ry="18"/>
<text text-anchor="middle" x="295" y="-230.3" font-family="Times,serif" font-size="14.00">=</text>
</g>
<!-- n11&#45;&gt;n15 -->
<g id="edge15" class="edge">
<title>n11&#45;&gt;n15</title>
<path fill="none" stroke="black" d="M283.63,-288.05C285.3,-280.26 287.32,-270.82 289.2,-262.08"/>
<polygon fill="black" stroke="black" points="292.63,-262.79 291.3,-252.28 285.78,-261.32 292.63,-262.79"/>
</g>
<!-- n13 -->
<g id="node14" class="node">
<title>n13</title>
<ellipse fill="none" stroke="black" cx="151" cy="-162" rx="27" ry="18"/>
<text text-anchor="middle" x="151" y="-158.3" font-family="Times,serif" font-size="14.00">n</text>
</g>
<!-- n12&#45;&gt;n13 -->
<g id="edge13" class="edge">
<title>n12&#45;&gt;n13</title>
<path fill="none" stroke="black" d="M208.43,-218.83C198.25,-208.94 184.48,-195.55 172.97,-184.36"/>
<polygon fill="black" stroke="black" points="175.41,-181.85 165.8,-177.38 170.53,-186.87 175.41,-181.85"/>
</g>
<!-- n14 -->
<g id="node15" class="node">
<title>n14</title>
<ellipse fill="none" stroke="black" cx="223" cy="-162" rx="27" ry="18"/>
<text text-anchor="middle" x="223" y="-158.3" font-family="Times,serif" font-size="14.00">1</text>
</g>
<!-- n12&#45;&gt;n14 -->
<g id="edge14" class="edge">
<title>n12&#45;&gt;n14</title>
<path fill="none" stroke="black" d="M223,-215.7C223,-207.98 223,-198.71 223,-190.11"/>
<polygon fill="black" stroke="black" points="226.5,-190.1 223,-180.1 219.5,-190.1 226.5,-190.1"/>
</g>
<!-- n16 -->
<g id="node17" class="node">
<title>n16</title>
<ellipse fill="none" stroke="black" cx="295" cy="-162" rx="27" ry="18"/>
<text text-anchor="middle" x="295" y="-158.3" font-family="Times,serif" font-size="14.00">n</text>
</g>
<!-- n15&#45;&gt;n16 -->
<g id="edge16" class="edge">
<title>n15&#45;&gt;n16</title>
<path fill="none" stroke="black" d="M295,-215.7C295,-207.98 295,-198.71 295,-190.11"/>
<polygon fill="black" stroke="black" points="298.5,-190.1 295,-180.1 291.5,-190.1 298.5,-190.1"/>
</g>
<!-- n17 -->
<g id="node18" class="node">
<title>n17</title>
<ellipse fill="none" stroke="black" cx="367" cy="-162" rx="27" ry="18"/>
<text text-anchor="middle" x="367" y="-158.3" font-family="Times,serif" font-size="14.00">2</text>
</g>
<!-- n15&#45;&gt;n17 -->
<g id="edge17" class="edge">
<title>n15&#45;&gt;n17</title>
<path fill="none" stroke="black" d="M309.57,-218.83C319.75,-208.94 333.52,-195.55 345.03,-184.36"/>
<polygon fill="black" stroke="black" points="347.47,-186.87 352.2,-177.38 342.59,-181.85 347.47,-186.87"/>
</g>
<!-- n19 -->
<g id="node20" class="node">
<title>n19</title>
<ellipse fill="none" stroke="black" cx="439" cy="-234" rx="27" ry="18"/>
<text text-anchor="middle" x="439" y="-230.3" font-family="Times,serif" font-size="14.00">+</text>
</g>
<!-- n18&#45;&gt;n19 -->
<g id="edge19" class="edge">
<title>n18&#45;&gt;n19</title>
<path fill="none" stroke="black" d="M405.43,-288.41C410.82,-279.83 417.51,-269.19 423.49,-259.67"/>
<polygon fill="black" stroke="black" points="426.59,-261.32 428.95,-250.99 420.67,-257.59 426.59,-261.32"/>
</g>
<!-- n20 -->
<g id="node21" class="node">
<title>n20</title>
<ellipse fill="none" stroke="black" cx="439" cy="-162" rx="27" ry="18"/>
<text text-anchor="middle" x="439" y="-158.3" font-family="Times,serif" font-size="14.00">fib</text>
</g>
<!-- n19&#45;&gt;n20 -->
<g id="edge20" class="edge">
<title>n19&#45;&gt;n20</title>
<path fill="none" stroke="black" d="M439,-215.7C439,-207.98 439,-198.71 439,-190.11"/>
<polygon fill="black" stroke="black" points="442.5,-190.1 439,-180.1 435.5,-190.1 442.5,-190.1"/>
</g>
<!-- n24 -->
<g id="node25" class="node">
<title>n24</title>
<ellipse fill="none" stroke="black" cx="511" cy="-162" rx="27" ry="18"/>
<text text-anchor="middle" x="511" y="-158.3" font-family="Times,serif" font-size="14.00">fib</text>
</g>
<!-- n19&#45;&gt;n24 -->
<g id="edge24" class="edge">
<title>n19&#45;&gt;n24</title>
<path fill="none" stroke="black" d="M453.57,-218.83C463.75,-208.94 477.52,-195.55 489.03,-184.36"/>
<polygon fill="black" stroke="black" points="491.47,-186.87 496.2,-177.38 486.59,-181.85 491.47,-186.87"/>
</g>
<!-- n21 -->
<g id="node22" class="node">
<title>n21</title>
<ellipse fill="none" stroke="black" cx="439" cy="-90" rx="27" ry="18"/>
<text text-anchor="middle" x="439" y="-86.3" font-family="Times,serif" font-size="14.00">&#45;</text>
</g>
<!-- n20&#45;&gt;n21 -->
<g id="edge21" class="edge">
<title>n20&#45;&gt;n21</title>
<path fill="none" stroke="black" d="M439,-143.7C439,-135.98 439,-126.71 439,-118.11"/>
<polygon fill="black" stroke="black" points="442.5,-118.1 439,-108.1 435.5,-118.1 442.5,-118.1"/>
</g>
<!-- n22 -->
<g id="node23" class="node">
<title>n22</title>
<ellipse fill="none" stroke="black" cx="367" cy="-18" rx="27" ry="18"/>
<text text-anchor="middle" x="367" y="-14.3" font-family="Times,serif" font-size="14.00">n</text>
</g>
<!-- n21&#45;&gt;n22 -->
<g id="edge22" class="edge">
<title>n21&#45;&gt;n22</title>
<path fill="none" stroke="black" d="M424.43,-74.83C414.25,-64.94 400.48,-51.55 388.97,-40.36"/>
<polygon fill="black" stroke="black" points="391.41,-37.85 381.8,-33.38 386.53,-42.87 391.41,-37.85"/>
</g>
<!-- n23 -->
<g id="node24" class="node">
<title>n23</title>
<ellipse fill="none" stroke="black" cx="439" cy="-18" rx="27" ry="18"/>
<text text-anchor="middle" x="439" y="-14.3" font-family="Times,serif" font-size="14.00">1</text>
</g>
<!-- n21&#45;&gt;n23 -->
<g id="edge23" class="edge">
<title>n21&#45;&gt;n23</title>
<path fill="none" stroke="black" d="M439,-71.7C439,-63.98 439,-54.71 439,-46.11"/>
<polygon fill="black" stroke="black" points="442.5,-46.1 439,-36.1 435.5,-46.1 442.5,-46.1"/>
</g>
<!-- n25 -->
<g id="node26" class="node">
<title>n25</title>
<ellipse fill="none" stroke="black" cx="511" cy="-90" rx="27" ry="18"/>
<text text-anchor="middle" x="511" y="-86.3" font-family="Times,serif" font-size="14.00">&#45;</text>
</g>
<!-- n24&#45;&gt;n25 -->
<g id="edge25" class="edge">
<title>n24&#45;&gt;n25</title>
<path fill="none" stroke="black" d="M511,-143.7C511,-135.98 511,-126.71 511,-118.11"/>
<polygon fill="black" stroke="black" points="514.5,-118.1 511,-108.1 507.5,-118.1 514.5,-118.1"/>
</g>
<!-- n26 -->
<g id="node27" class="node">
<title>n26</title>
<ellipse fill="none" stroke="black" cx="511" cy="-18" rx="27" ry="18"/>
<text text-anchor="middle" x="511" y="-14.3" font-family="Times,serif" font-size="14.00">n</text>
</g>
<!-- n25&#45;&gt;n26 -->
<g id="edge26" class="edge">
<title>n25&#45;&gt;n26</title>
<path fill="none" stroke="black" d="M511,-71.7C511,-63.98 511,-54.71 511,-46.11"/>
<polygon fill="black" stroke="black" points="514.5,-46.1 511,-36.1 507.5,-46.1 514.5,-46.1"/>
</g>
<!-- n27 -->
<g id="node28" class="node">
<title>n27</title>
<ellipse fill="none" stroke="black" cx="583" cy="-18" rx="27" ry="18"/>
<text text-anchor="middle" x="583" y="-14.3" font-family="Times,serif" font-size="14.00">2</text>
</g>
<!-- n25&#45;&gt;n27 -->
<g id="edge27" class="edge">
<title>n25&#45;&gt;n27</title>
<path fill="none" stroke="black" d="M525.57,-74.83C535.75,-64.94 549.52,-51.55 561.03,-40.36"/>
<polygon fill="black" stroke="black" points="563.47,-42.87 568.2,-33.38 558.59,-37.85 563.47,-42.87"/>
</g>
<!-- n29 -->
<g id="node30" class="node">
<title>n29</title>
<ellipse fill="none" stroke="black" cx="422" cy="-522" rx="56.59" ry="18"/>
<text text-anchor="middle" x="422" y="-518.3" font-family="Times,serif" font-size="14.00">VARDECL</text>
</g>
<!-- n28&#45;&gt;n29 -->
<g id="edge29" class="edge">
<title>n28&#45;&gt;n29</title>
<path fill="none" stroke="black" d="M422,-584.76C422,-574.73 422,-561.84 422,-550.42"/>
<polygon fill="black" stroke="black" points="425.5,-550.08 422,-540.08 418.5,-550.08 425.5,-550.08"/>
</g>
<!-- n32 -->
<g id="node33" class="node">
<title>n32</title>
<ellipse fill="none" stroke="black" cx="574" cy="-522" rx="70.69" ry="18"/>
<text text-anchor="middle" x="574" y="-518.3" font-family="Times,serif" font-size="14.00">COMPOUND</text>
</g>
<!-- n28&#45;&gt;n32 -->
<g id="edge32" class="edge">
<title>n28&#45;&gt;n32</title>
<path fill="none" stroke="black" d="M448.13,-588.31C472.15,-575.85 508.07,-557.21 535.4,-543.03"/>
<polygon fill="black" stroke="black" points="537.05,-546.12 544.31,-538.4 533.82,-539.9 537.05,-546.12"/>
</g>
<!-- n30 -->
<g id="node31" class="node">
<title>n30</title>
<ellipse fill="none" stroke="black" cx="396" cy="-450" rx="27" ry="18"/>
<text text-anchor="middle" x="396" y="-446.3" font-family="Times,serif" font-size="14.00">x</text>
</g>
<!-- n29&#45;&gt;n30 -->
<g id="edge30" class="edge">
<title>n29&#45;&gt;n30</title>
<path fill="none" stroke="black" d="M415.71,-504.05C412.74,-496.06 409.12,-486.33 405.81,-477.4"/>
<polygon fill="black" stroke="black" points="409,-475.94 402.24,-467.79 402.44,-478.38 409,-475.94"/>
</g>
<!-- n31 -->
<g id="node32" class="node">
<title>n31</title>
<ellipse fill="none" stroke="black" cx="485" cy="-450" rx="44.39" ry="18"/>
<text text-anchor="middle" x="485" y="-446.3" font-family="Times,serif" font-size="14.00">integer</text>
</g>
<!-- n29&#45;&gt;n31 -->
<g id="edge31" class="edge">
<title>n29&#45;&gt;n31</title>
<path fill="none" stroke="black" d="M436.93,-504.41C444.85,-495.61 454.73,-484.63 463.47,-474.92"/>
<polygon fill="black" stroke="black" points="466.09,-477.24 470.18,-467.47 460.89,-472.56 466.09,-477.24"/>
</g>
<!-- n33 -->
<g id="node34" class="node">
<title>n33</title>
<ellipse fill="none" stroke="black" cx="574" cy="-450" rx="27" ry="18"/>
<text text-anchor="middle" x="574" y="-446.3" font-family="Times,serif" font-size="14.00">:=</text>
</g>
<!-- n32&#45;&gt;n33 -->
<g id="edge33" class="edge">
<title>n32&#45;&gt;n33</title>
<path fill="none" stroke="black" d="M574,-503.7C574,-495.98 574,-486.71 574,-478.11"/>
<polygon fill="black" stroke="black" points="577.5,-478.1 574,-468.1 570.5,-478.1 577.5,-478.1"/>
</g>
<!-- n37 -->
<g id="node38" class="node">
<title>n37</title>
<ellipse fill="none" stroke="black" cx="646" cy="-450" rx="27" ry="18"/>
<text text-anchor="middle" x="646" y="-446.3" font-family="Times,serif" font-size="14.00">$</text>
</g>
<!-- n32&#45;&gt;n37 -->
<g id="edge37" class="edge">
<title>n32&#45;&gt;n37</title>
<path fill="none" stroke="black" d="M591.06,-504.41C600.83,-494.91 613.21,-482.88 623.74,-472.65"/>
<polygon fill="black" stroke="black" points="626.28,-475.05 631.01,-465.57 621.4,-470.03 626.28,-475.05"/>
</g>
<!-- n34 -->
<g id="node35" class="node">
<title>n34</title>
<ellipse fill="none" stroke="black" cx="538" cy="-378" rx="27" ry="18"/>
<text text-anchor="middle" x="538" y="-374.3" font-family="Times,serif" font-size="14.00">x</text>
</g>
<!-- n33&#45;&gt;n34 -->
<g id="edge34" class="edge">
<title>n33&#45;&gt;n34</title>
<path fill="none" stroke="black" d="M565.65,-432.76C561.29,-424.28 555.85,-413.71 550.96,-404.2"/>
<polygon fill="black" stroke="black" points="553.99,-402.44 546.3,-395.15 547.77,-405.64 553.99,-402.44"/>
</g>
<!-- n35 -->
<g id="node36" class="node">
<title>n35</title>
<ellipse fill="none" stroke="black" cx="610" cy="-378" rx="27" ry="18"/>
<text text-anchor="middle" x="610" y="-374.3" font-family="Times,serif" font-size="14.00">fib</text>
</g>
<!-- n33&#45;&gt;n35 -->
<g id="edge35" class="edge">
<title>n33&#45;&gt;n35</title>
<path fill="none" stroke="black" d="M582.35,-432.76C586.71,-424.28 592.15,-413.71 597.04,-404.2"/>
<polygon fill="black" stroke="black" points="600.23,-405.64 601.7,-395.15 594.01,-402.44 600.23,-405.64"/>
</g>
<!-- n36 -->
<g id="node37" class="node">
<title>n36</title>
<ellipse fill="none" stroke="black" cx="610" cy="-306" rx="27" ry="18"/>
<text text-anchor="middle" x="610" y="-302.3" font-family="Times,serif" font-size="14.00">3</text>
</g>
<!-- n35&#45;&gt;n36 -->
<g id="edge36" class="edge">
<title>n35&#45;&gt;n36</title>
<path fill="none" stroke="black" d="M610,-359.7C610,-351.98 610,-342.71 610,-334.11"/>
<polygon fill="black" stroke="black" points="613.5,-334.1 610,-324.1 606.5,-334.1 613.5,-334.1"/>
</g>
</g>
</svg>
