<?xml version="1.0" encoding="UTF-8" standalone="no"?>
<!DOCTYPE svg PUBLIC "-//W3C//DTD SVG 1.1//EN"
 "http://www.w3.org/Graphics/SVG/1.1/DTD/svg11.dtd">
<!-- Generated by graphviz version 3.0.0 (20220413.0106)
 -->
<!-- Title: Stack::push Pages: 1 -->
<svg width="340pt" height="28pt"
 viewBox="0.00 0.00 340.00 28.00" xmlns="http://www.w3.org/2000/svg" xmlns:xlink="http://www.w3.org/1999/xlink">
<g id="graph0" class="graph" transform="scale(1 1) rotate(0) translate(4 24)">
<title>Stack::push</title>
<!-- Node1 -->
<g id="node1" class="node">
<title>Node1</title>
<g id="a_node1"><a xlink:title="Кладет значение на вершину стека">
<polygon fill="#bfbfbf" stroke="black" points="0,-0.5 0,-19.5 68,-19.5 68,-0.5 0,-0.5"/>
<text text-anchor="middle" x="34" y="-7.5" font-family="Helvetica,sans-Serif" font-size="10.00">Stack::push</text>
</a>
</g>
</g>
<!-- Node2 -->
<g id="node2" class="node">
<title>Node2</title>
<g id="a_node2"><a xlink:href="../../d1/d34/class_list.html#acb6c6809e6effc1253c26127793c6a75" target="_top" xlink:title="Вставка в начало списка">
<polygon fill="none" stroke="black" points="104,-0.5 104,-19.5 185,-19.5 185,-0.5 104,-0.5"/>
<text text-anchor="middle" x="144.5" y="-7.5" font-family="Helvetica,sans-Serif" font-size="10.00">List::pushFront</text>
</a>
</g>
</g>
<!-- Node1&#45;&gt;Node2 -->
<g id="edge1" class="edge">
<title>Node1&#45;&gt;Node2</title>
<path fill="none" stroke="midnightblue" d="M68.14,-10C76.21,-10 85.01,-10 93.65,-10"/>
<polygon fill="midnightblue" stroke="midnightblue" points="93.69,-13.5 103.69,-10 93.69,-6.5 93.69,-13.5"/>
</g>
<!-- Node3 -->
<g id="node3" class="node">
<title>Node3</title>
<g id="a_node3"><a xlink:href="../../dc/d8f/class_node.html#aa8d23f895123945ad5b92793a1477c07" target="_top" xlink:title="Присоединяет узел pPrev в качестве предыдущего узла">
<polygon fill="none" stroke="black" points="221,-0.5 221,-19.5 332,-19.5 332,-0.5 221,-0.5"/>
<text text-anchor="middle" x="276.5" y="-7.5" font-family="Helvetica,sans-Serif" font-size="10.00">Node::connectAsPrev</text>
</a>
</g>
</g>
<!-- Node2&#45;&gt;Node3 -->
<g id="edge2" class="edge">
<title>Node2&#45;&gt;Node3</title>
<path fill="none" stroke="midnightblue" d="M185.21,-10C193.26,-10 201.92,-10 210.59,-10"/>
<polygon fill="midnightblue" stroke="midnightblue" points="210.72,-13.5 220.72,-10 210.72,-6.5 210.72,-13.5"/>
</g>
</g>
</svg>
