<?xml version="1.0" encoding="UTF-8" standalone="no"?>
<!DOCTYPE svg PUBLIC "-//W3C//DTD SVG 1.1//EN"
 "http://www.w3.org/Graphics/SVG/1.1/DTD/svg11.dtd">
<!-- Generated by graphviz version 3.0.0 (20220413.0106)
 -->
<!-- Title: Node::connectAsNext Pages: 1 -->
<svg width="641pt" height="218pt"
 viewBox="0.00 0.00 641.00 218.00" xmlns="http://www.w3.org/2000/svg" xmlns:xlink="http://www.w3.org/1999/xlink">
<g id="graph0" class="graph" transform="scale(1 1) rotate(0) translate(4 214)">
<title>Node::connectAsNext</title>
<!-- Node1 -->
<g id="node1" class="node">
<title>Node1</title>
<g id="a_node1"><a xlink:title="Присоединяет узел pNext в качестве следующего узла">
<polygon fill="#bfbfbf" stroke="black" points="522,-114.5 522,-133.5 633,-133.5 633,-114.5 522,-114.5"/>
<text text-anchor="middle" x="577.5" y="-121.5" font-family="Helvetica,sans-Serif" font-size="10.00">Node::connectAsNext</text>
</a>
</g>
</g>
<!-- Node2 -->
<g id="node2" class="node">
<title>Node2</title>
<g id="a_node2"><a xlink:href="../../dc/d8f/class_node.html#a74fc31aee03a749d0c1a59260695d39c" target="_top" xlink:title="Создает узел из value и присоединяет в качестве следующего узла к вызывающему">
<polygon fill="none" stroke="black" points="375,-133.5 375,-152.5 486,-152.5 486,-133.5 375,-133.5"/>
<text text-anchor="middle" x="430.5" y="-140.5" font-family="Helvetica,sans-Serif" font-size="10.00">Node::connectAsNext</text>
</a>
</g>
</g>
<!-- Node1&#45;&gt;Node2 -->
<g id="edge1" class="edge">
<title>Node1&#45;&gt;Node2</title>
<path fill="none" stroke="midnightblue" d="M511.54,-132.51C503.14,-133.61 494.61,-134.73 486.4,-135.81"/>
<polygon fill="midnightblue" stroke="midnightblue" points="512.22,-135.95 521.68,-131.18 511.31,-129.01 512.22,-135.95"/>
</g>
<!-- Node3 -->
<g id="node3" class="node">
<title>Node3</title>
<g id="a_node3"><a xlink:href="../../d1/d34/class_list.html#a0c471cf5c09edf2dcbdf1f37cac53e45" target="_top" xlink:title="Вставка в конец списка">
<polygon fill="none" stroke="black" points="390,-95.5 390,-114.5 471,-114.5 471,-95.5 390,-95.5"/>
<text text-anchor="middle" x="430.5" y="-102.5" font-family="Helvetica,sans-Serif" font-size="10.00">List::pushBack</text>
</a>
</g>
</g>
<!-- Node1&#45;&gt;Node3 -->
<g id="edge2" class="edge">
<title>Node1&#45;&gt;Node3</title>
<path fill="none" stroke="midnightblue" d="M511.69,-115.51C497.83,-113.69 483.59,-111.83 471.04,-110.18"/>
<polygon fill="midnightblue" stroke="midnightblue" points="511.31,-118.99 521.68,-116.82 512.22,-112.05 511.31,-118.99"/>
</g>
<!-- Node4 -->
<g id="node4" class="node">
<title>Node4</title>
<g id="a_node4"><a xlink:href="../../da/d5a/class_lexer.html#ad7f60235e0e2ceb2a4536237e0a07830" target="_top" xlink:title="Добавляет в шаблоны для определения токена новый шаблон">
<polygon fill="none" stroke="black" points="216,-190.5 216,-209.5 329,-209.5 329,-190.5 216,-190.5"/>
<text text-anchor="middle" x="272.5" y="-197.5" font-family="Helvetica,sans-Serif" font-size="10.00">Lexer::addTokenTemp</text>
</a>
</g>
</g>
<!-- Node3&#45;&gt;Node4 -->
<g id="edge3" class="edge">
<title>Node3&#45;&gt;Node4</title>
<path fill="none" stroke="midnightblue" d="M382.32,-119.05C379.74,-120.54 377.28,-122.19 375,-124 351.54,-142.64 362.95,-162.99 339,-181 333.8,-184.91 327.8,-188.02 321.6,-190.49"/>
<polygon fill="midnightblue" stroke="midnightblue" points="384.02,-122.12 391.42,-114.54 380.91,-115.84 384.02,-122.12"/>
</g>
<!-- Node5 -->
<g id="node5" class="node">
<title>Node5</title>
<g id="a_node5"><a xlink:href="../../da/d5a/class_lexer.html#a473a8abf892384a3e2769651318d7ab1" target="_top" xlink:title="Анализирует текст программы">
<polygon fill="none" stroke="black" points="206,-152.5 206,-171.5 339,-171.5 339,-152.5 206,-152.5"/>
<text text-anchor="middle" x="272.5" y="-159.5" font-family="Helvetica,sans-Serif" font-size="10.00">Lexer::analyzeProgramText</text>
</a>
</g>
</g>
<!-- Node3&#45;&gt;Node5 -->
<g id="edge4" class="edge">
<title>Node3&#45;&gt;Node5</title>
<path fill="none" stroke="midnightblue" d="M389.87,-118.03C384.82,-119.92 379.76,-121.93 375,-124 358.41,-131.22 355.77,-136.22 339,-143 330.22,-146.55 320.53,-149.73 311.36,-152.44"/>
<polygon fill="midnightblue" stroke="midnightblue" points="391.27,-121.24 399.49,-114.56 388.89,-114.66 391.27,-121.24"/>
</g>
<!-- Node9 -->
<g id="node9" class="node">
<title>Node9</title>
<g id="a_node9"><a xlink:href="../../d1/d34/class_list.html#abd67e40b26c56704a82f993e073b1113" target="_top" xlink:title="Конструктор из вектора">
<polygon fill="none" stroke="black" points="245.5,-114.5 245.5,-133.5 299.5,-133.5 299.5,-114.5 245.5,-114.5"/>
<text text-anchor="middle" x="272.5" y="-121.5" font-family="Helvetica,sans-Serif" font-size="10.00">List::List</text>
</a>
</g>
</g>
<!-- Node3&#45;&gt;Node9 -->
<g id="edge8" class="edge">
<title>Node3&#45;&gt;Node9</title>
<path fill="none" stroke="midnightblue" d="M379.5,-111.09C353.06,-114.31 321.68,-118.13 299.96,-120.78"/>
<polygon fill="midnightblue" stroke="midnightblue" points="380.23,-114.53 389.73,-109.84 379.38,-107.58 380.23,-114.53"/>
</g>
<!-- Node10 -->
<g id="node10" class="node">
<title>Node10</title>
<g id="a_node10"><a xlink:href="../../d1/d34/class_list.html#afb55438b3b6d88e618481384e2bdd40e" target="_top" xlink:title=" ">
<polygon fill="none" stroke="black" points="233,-76.5 233,-95.5 312,-95.5 312,-76.5 233,-76.5"/>
<text text-anchor="middle" x="272.5" y="-83.5" font-family="Helvetica,sans-Serif" font-size="10.00">List::operator=</text>
</a>
</g>
</g>
<!-- Node3&#45;&gt;Node10 -->
<g id="edge9" class="edge">
<title>Node3&#45;&gt;Node10</title>
<path fill="none" stroke="midnightblue" d="M379.63,-98.93C357.78,-96.26 332.51,-93.19 312.12,-90.7"/>
<polygon fill="midnightblue" stroke="midnightblue" points="379.38,-102.42 389.73,-100.16 380.23,-95.47 379.38,-102.42"/>
</g>
<!-- Node11 -->
<g id="node11" class="node">
<title>Node11</title>
<g id="a_node11"><a xlink:href="../../d4/da4/class_queue.html#a5922a27c16bc172458703580f8fd3257" target="_top" xlink:title="Вставляет значение в хвост очереди">
<polygon fill="none" stroke="black" points="237,-38.5 237,-57.5 308,-57.5 308,-38.5 237,-38.5"/>
<text text-anchor="middle" x="272.5" y="-45.5" font-family="Helvetica,sans-Serif" font-size="10.00">Queue::push</text>
</a>
</g>
</g>
<!-- Node3&#45;&gt;Node11 -->
<g id="edge10" class="edge">
<title>Node3&#45;&gt;Node11</title>
<path fill="none" stroke="midnightblue" d="M398.94,-91.13C381.56,-83.51 359.28,-74.17 339,-67 329.07,-63.49 318.12,-60.12 308.07,-57.22"/>
<polygon fill="midnightblue" stroke="midnightblue" points="398,-94.54 408.56,-95.4 400.83,-88.14 398,-94.54"/>
</g>
<!-- Node13 -->
<g id="node13" class="node">
<title>Node13</title>
<g id="a_node13"><a xlink:href="../../d9/d2f/test_list_8cpp.html#a8f60f28a842f3b90e02e86c026421ff7" target="_top" xlink:title="Тест размера после вставки в конец">
<polygon fill="none" stroke="black" points="252,-0.5 252,-19.5 293,-19.5 293,-0.5 252,-0.5"/>
<text text-anchor="middle" x="272.5" y="-7.5" font-family="Helvetica,sans-Serif" font-size="10.00">TEST</text>
</a>
</g>
</g>
<!-- Node3&#45;&gt;Node13 -->
<g id="edge12" class="edge">
<title>Node3&#45;&gt;Node13</title>
<path fill="none" stroke="midnightblue" d="M413.31,-87.7C396.32,-70.51 368.09,-44.53 339,-29 324.59,-21.3 306.68,-16.38 293.23,-13.48"/>
<polygon fill="midnightblue" stroke="midnightblue" points="411.23,-90.59 420.7,-95.35 416.26,-85.73 411.23,-90.59"/>
</g>
<!-- Node6 -->
<g id="node6" class="node">
<title>Node6</title>
<g id="a_node6"><a xlink:href="../../da/d5a/class_lexer.html#afcb6ff36e1b746fec7df3a9ea7f63fff" target="_top" xlink:title="Анализирует файл">
<polygon fill="none" stroke="black" points="77,-152.5 77,-171.5 170,-171.5 170,-152.5 77,-152.5"/>
<text text-anchor="middle" x="123.5" y="-159.5" font-family="Helvetica,sans-Serif" font-size="10.00">Lexer::analyzeFile</text>
</a>
</g>
</g>
<!-- Node5&#45;&gt;Node6 -->
<g id="edge5" class="edge">
<title>Node5&#45;&gt;Node6</title>
<path fill="none" stroke="midnightblue" d="M195.64,-162C187.03,-162 178.46,-162 170.41,-162"/>
<polygon fill="midnightblue" stroke="midnightblue" points="195.74,-165.5 205.74,-162 195.74,-158.5 195.74,-165.5"/>
</g>
<!-- Node7 -->
<g id="node7" class="node">
<title>Node7</title>
<g id="a_node7"><a xlink:href="../../df/d0a/main_8cpp.html#a3c04138a5bfe5d72780bb7e82a18e627" target="_top" xlink:title=" ">
<polygon fill="none" stroke="black" points="1.5,-171.5 1.5,-190.5 39.5,-190.5 39.5,-171.5 1.5,-171.5"/>
<text text-anchor="middle" x="20.5" y="-178.5" font-family="Helvetica,sans-Serif" font-size="10.00">main</text>
</a>
</g>
</g>
<!-- Node6&#45;&gt;Node7 -->
<g id="edge6" class="edge">
<title>Node6&#45;&gt;Node7</title>
<path fill="none" stroke="midnightblue" d="M66.84,-172.47C56.98,-174.33 47.39,-176.13 39.59,-177.6"/>
<polygon fill="midnightblue" stroke="midnightblue" points="67.55,-175.9 76.73,-170.61 66.25,-169.02 67.55,-175.9"/>
</g>
<!-- Node8 -->
<g id="node8" class="node">
<title>Node8</title>
<g id="a_node8"><a xlink:href="../../d0/d0f/test_lexer__1_8cpp.html#a42b988f5ceb814376db8a2df3c933b15" target="_top" xlink:title="Тест разбора простых математических выражений">
<polygon fill="none" stroke="black" points="0,-133.5 0,-152.5 41,-152.5 41,-133.5 0,-133.5"/>
<text text-anchor="middle" x="20.5" y="-140.5" font-family="Helvetica,sans-Serif" font-size="10.00">TEST</text>
</a>
</g>
</g>
<!-- Node6&#45;&gt;Node8 -->
<g id="edge7" class="edge">
<title>Node6&#45;&gt;Node8</title>
<path fill="none" stroke="midnightblue" d="M66.72,-151.51C57.53,-149.78 48.58,-148.09 41.09,-146.69"/>
<polygon fill="midnightblue" stroke="midnightblue" points="66.25,-154.98 76.73,-153.39 67.55,-148.1 66.25,-154.98"/>
</g>
<!-- Node12 -->
<g id="node12" class="node">
<title>Node12</title>
<g id="a_node12"><a xlink:href="../../d1/ddc/test_queue_8cpp.html#a4c587fd9d2cb75d2710ff2a2b06e5a28" target="_top" xlink:title="Тест вставки">
<polygon fill="none" stroke="black" points="103,-38.5 103,-57.5 144,-57.5 144,-38.5 103,-38.5"/>
<text text-anchor="middle" x="123.5" y="-45.5" font-family="Helvetica,sans-Serif" font-size="10.00">TEST</text>
</a>
</g>
</g>
<!-- Node11&#45;&gt;Node12 -->
<g id="edge11" class="edge">
<title>Node11&#45;&gt;Node12</title>
<path fill="none" stroke="midnightblue" d="M226.46,-48C198.95,-48 165.13,-48 144.2,-48"/>
<polygon fill="midnightblue" stroke="midnightblue" points="226.66,-51.5 236.66,-48 226.66,-44.5 226.66,-51.5"/>
</g>
</g>
</svg>
