<?xml version="1.0" encoding="UTF-8" standalone="no"?>
<!DOCTYPE svg PUBLIC "-//W3C//DTD SVG 1.1//EN"
 "http://www.w3.org/Graphics/SVG/1.1/DTD/svg11.dtd">
<!-- Generated by graphviz version 3.0.0 (20220413.0106)
 -->
<!-- Title: src/Visitor.cpp Pages: 1 -->
<svg width="713pt" height="252pt"
 viewBox="0.00 0.00 713.00 252.00" xmlns="http://www.w3.org/2000/svg" xmlns:xlink="http://www.w3.org/1999/xlink">
<g id="graph0" class="graph" transform="scale(1 1) rotate(0) translate(4 248)">
<title>src/Visitor.cpp</title>
<!-- Node1 -->
<g id="node1" class="node">
<title>Node1</title>
<g id="a_node1"><a xlink:title=" ">
<polygon fill="#bfbfbf" stroke="black" points="440.5,-224.5 440.5,-243.5 519.5,-243.5 519.5,-224.5 440.5,-224.5"/>
<text text-anchor="middle" x="480" y="-231.5" font-family="Helvetica,sans-Serif" font-size="10.00">src/Visitor.cpp</text>
</a>
</g>
</g>
<!-- Node2 -->
<g id="node2" class="node">
<title>Node2</title>
<g id="a_node2"><a xlink:href="../../db/d42/_visitor_8hpp.html" target="_top" xlink:title="Посетители для обхода ДАС">
<polygon fill="none" stroke="black" points="411,-168.5 411,-187.5 473,-187.5 473,-168.5 411,-168.5"/>
<text text-anchor="middle" x="442" y="-175.5" font-family="Helvetica,sans-Serif" font-size="10.00">Visitor.hpp</text>
</a>
</g>
</g>
<!-- Node1&#45;&gt;Node2 -->
<g id="edge1" class="edge">
<title>Node1&#45;&gt;Node2</title>
<path fill="none" stroke="midnightblue" d="M473.73,-224.08C468.36,-216.46 460.48,-205.26 453.92,-195.94"/>
<polygon fill="midnightblue" stroke="midnightblue" points="456.78,-193.91 448.16,-187.75 451.05,-197.94 456.78,-193.91"/>
</g>
<!-- Node16 -->
<g id="node16" class="node">
<title>Node16</title>
<g id="a_node16"><a xlink:title=" ">
<polygon fill="none" stroke="#bfbfbf" points="563.5,-168.5 563.5,-187.5 632.5,-187.5 632.5,-168.5 563.5,-168.5"/>
<text text-anchor="middle" x="598" y="-175.5" font-family="Helvetica,sans-Serif" font-size="10.00">fmt/format.h</text>
</a>
</g>
</g>
<!-- Node1&#45;&gt;Node16 -->
<g id="edge17" class="edge">
<title>Node1&#45;&gt;Node16</title>
<path fill="none" stroke="midnightblue" d="M498.7,-224.44C517.94,-215.64 548.15,-201.81 570.2,-191.72"/>
<polygon fill="midnightblue" stroke="midnightblue" points="571.75,-194.86 579.39,-187.52 568.84,-188.5 571.75,-194.86"/>
</g>
<!-- Node17 -->
<g id="node17" class="node">
<title>Node17</title>
<g id="a_node17"><a xlink:title=" ">
<polygon fill="none" stroke="#bfbfbf" points="651,-168.5 651,-187.5 705,-187.5 705,-168.5 651,-168.5"/>
<text text-anchor="middle" x="678" y="-175.5" font-family="Helvetica,sans-Serif" font-size="10.00">iostream</text>
</a>
</g>
</g>
<!-- Node1&#45;&gt;Node17 -->
<g id="edge18" class="edge">
<title>Node1&#45;&gt;Node17</title>
<path fill="none" stroke="midnightblue" d="M511.37,-224.44C546.56,-214.85 603.57,-199.3 640.93,-189.11"/>
<polygon fill="midnightblue" stroke="midnightblue" points="642.18,-192.4 650.91,-186.39 640.34,-185.64 642.18,-192.4"/>
</g>
<!-- Node18 -->
<g id="node18" class="node">
<title>Node18</title>
<g id="a_node18"><a xlink:href="../../d4/dcb/_a_s_t_8hpp.html" target="_top" xlink:title="Узлы ДАС">
<polygon fill="none" stroke="black" points="491,-168.5 491,-187.5 545,-187.5 545,-168.5 491,-168.5"/>
<text text-anchor="middle" x="518" y="-175.5" font-family="Helvetica,sans-Serif" font-size="10.00">AST.hpp</text>
</a>
</g>
</g>
<!-- Node1&#45;&gt;Node18 -->
<g id="edge19" class="edge">
<title>Node1&#45;&gt;Node18</title>
<path fill="none" stroke="midnightblue" d="M486.27,-224.08C491.64,-216.46 499.52,-205.26 506.08,-195.94"/>
<polygon fill="midnightblue" stroke="midnightblue" points="508.95,-197.94 511.84,-187.75 503.22,-193.91 508.95,-197.94"/>
</g>
<!-- Node19 -->
<g id="node19" class="node">
<title>Node19</title>
<g id="a_node19"><a xlink:href="../../da/dbf/_synt_exp_8hpp.html" target="_top" xlink:title="Исключения анализатора">
<polygon fill="none" stroke="black" points="249,-112.5 249,-131.5 319,-131.5 319,-112.5 249,-112.5"/>
<text text-anchor="middle" x="284" y="-119.5" font-family="Helvetica,sans-Serif" font-size="10.00">SyntExp.hpp</text>
</a>
</g>
</g>
<!-- Node1&#45;&gt;Node19 -->
<g id="edge24" class="edge">
<title>Node1&#45;&gt;Node19</title>
<path fill="none" stroke="midnightblue" d="M464.62,-224.37C430.63,-205.29 348.9,-159.42 308.06,-136.51"/>
<polygon fill="midnightblue" stroke="midnightblue" points="309.74,-133.43 299.31,-131.59 306.32,-139.54 309.74,-133.43"/>
</g>
<!-- Node20 -->
<g id="node20" class="node">
<title>Node20</title>
<g id="a_node20"><a xlink:href="../../d3/da8/sup_algs_8hpp.html" target="_top" xlink:title="Вспомогательные функции">
<polygon fill="none" stroke="black" points="167,-168.5 167,-187.5 237,-187.5 237,-168.5 167,-168.5"/>
<text text-anchor="middle" x="202" y="-175.5" font-family="Helvetica,sans-Serif" font-size="10.00">supAlgs.hpp</text>
</a>
</g>
</g>
<!-- Node1&#45;&gt;Node20 -->
<g id="edge28" class="edge">
<title>Node1&#45;&gt;Node20</title>
<path fill="none" stroke="midnightblue" d="M440.46,-225.32C389.34,-215.39 300.53,-198.14 246.92,-187.72"/>
<polygon fill="midnightblue" stroke="midnightblue" points="247.49,-184.27 237.01,-185.8 246.16,-191.14 247.49,-184.27"/>
</g>
<!-- Node3 -->
<g id="node3" class="node">
<title>Node3</title>
<g id="a_node3"><a xlink:title=" ">
<polygon fill="none" stroke="#bfbfbf" points="337,-112.5 337,-131.5 387,-131.5 387,-112.5 337,-112.5"/>
<text text-anchor="middle" x="362" y="-119.5" font-family="Helvetica,sans-Serif" font-size="10.00">fstream</text>
</a>
</g>
</g>
<!-- Node2&#45;&gt;Node3 -->
<g id="edge2" class="edge">
<title>Node2&#45;&gt;Node3</title>
<path fill="none" stroke="midnightblue" d="M429.15,-168.32C416.78,-159.98 397.87,-147.21 383.26,-137.35"/>
<polygon fill="midnightblue" stroke="midnightblue" points="385.07,-134.35 374.82,-131.65 381.15,-140.15 385.07,-134.35"/>
</g>
<!-- Node4 -->
<g id="node4" class="node">
<title>Node4</title>
<g id="a_node4"><a xlink:title=" ">
<polygon fill="none" stroke="#bfbfbf" points="481.5,-112.5 481.5,-131.5 532.5,-131.5 532.5,-112.5 481.5,-112.5"/>
<text text-anchor="middle" x="507" y="-119.5" font-family="Helvetica,sans-Serif" font-size="10.00">memory</text>
</a>
</g>
</g>
<!-- Node2&#45;&gt;Node4 -->
<g id="edge3" class="edge">
<title>Node2&#45;&gt;Node4</title>
<path fill="none" stroke="midnightblue" d="M452.44,-168.32C462.15,-160.26 476.82,-148.08 488.5,-138.37"/>
<polygon fill="midnightblue" stroke="midnightblue" points="490.91,-140.92 496.37,-131.83 486.44,-135.53 490.91,-140.92"/>
</g>
<!-- Node5 -->
<g id="node5" class="node">
<title>Node5</title>
<g id="a_node5"><a xlink:title=" ">
<polygon fill="none" stroke="#bfbfbf" points="394.5,-0.5 394.5,-19.5 435.5,-19.5 435.5,-0.5 394.5,-0.5"/>
<text text-anchor="middle" x="415" y="-7.5" font-family="Helvetica,sans-Serif" font-size="10.00">string</text>
</a>
</g>
</g>
<!-- Node2&#45;&gt;Node5 -->
<g id="edge4" class="edge">
<title>Node2&#45;&gt;Node5</title>
<path fill="none" stroke="midnightblue" d="M440.55,-168.08C436.3,-141.95 423.82,-65.21 418.02,-29.58"/>
<polygon fill="midnightblue" stroke="midnightblue" points="421.45,-28.88 416.39,-19.57 414.54,-30 421.45,-28.88"/>
</g>
<!-- Node6 -->
<g id="node6" class="node">
<title>Node6</title>
<g id="a_node6"><a xlink:href="../../d8/de6/_a_s_tclasses_8hpp.html" target="_top" xlink:title="Базовые классы ДАС: абстрактный посетитель и абстрактный узел">
<polygon fill="none" stroke="black" points="550,-112.5 550,-131.5 638,-131.5 638,-112.5 550,-112.5"/>
<text text-anchor="middle" x="594" y="-119.5" font-family="Helvetica,sans-Serif" font-size="10.00">ASTclasses.hpp</text>
</a>
</g>
</g>
<!-- Node2&#45;&gt;Node6 -->
<g id="edge5" class="edge">
<title>Node2&#45;&gt;Node6</title>
<path fill="none" stroke="midnightblue" d="M466.08,-168.44C491.54,-159.4 531.89,-145.06 560.46,-134.92"/>
<polygon fill="midnightblue" stroke="midnightblue" points="561.78,-138.16 570.03,-131.52 559.43,-131.57 561.78,-138.16"/>
</g>
<!-- Node7 -->
<g id="node7" class="node">
<title>Node7</title>
<g id="a_node7"><a xlink:href="../../de/d32/_token_8hpp.html" target="_top" xlink:title="Классы для работы с токенами анализатора">
<polygon fill="none" stroke="black" points="505,-56.5 505,-75.5 567,-75.5 567,-56.5 505,-56.5"/>
<text text-anchor="middle" x="536" y="-63.5" font-family="Helvetica,sans-Serif" font-size="10.00">Token.hpp</text>
</a>
</g>
</g>
<!-- Node2&#45;&gt;Node7 -->
<g id="edge16" class="edge">
<title>Node2&#45;&gt;Node7</title>
<path fill="none" stroke="midnightblue" d="M444.61,-168.22C448.88,-154.93 458.38,-129.44 473,-112 483.49,-99.49 498.22,-88.71 510.79,-80.85"/>
<polygon fill="midnightblue" stroke="midnightblue" points="512.7,-83.79 519.48,-75.65 509.1,-77.78 512.7,-83.79"/>
</g>
<!-- Node9 -->
<g id="node9" class="node">
<title>Node9</title>
<g id="a_node9"><a xlink:href="../../dc/d72/_list_8hpp.html" target="_top" xlink:title="Двусвязный список &#45; интерфейс">
<polygon fill="none" stroke="black" points="179.5,-112.5 179.5,-131.5 230.5,-131.5 230.5,-112.5 179.5,-112.5"/>
<text text-anchor="middle" x="205" y="-119.5" font-family="Helvetica,sans-Serif" font-size="10.00">List.hpp</text>
</a>
</g>
</g>
<!-- Node2&#45;&gt;Node9 -->
<g id="edge9" class="edge">
<title>Node2&#45;&gt;Node9</title>
<path fill="none" stroke="midnightblue" d="M410.78,-170.38C372.9,-162.26 306.83,-147.89 240.39,-132.03"/>
<polygon fill="midnightblue" stroke="midnightblue" points="241.13,-128.61 230.59,-129.68 239.5,-135.42 241.13,-128.61"/>
</g>
<!-- Node6&#45;&gt;Node7 -->
<g id="edge6" class="edge">
<title>Node6&#45;&gt;Node7</title>
<path fill="none" stroke="midnightblue" d="M584.68,-112.32C576.11,-104.34 563.19,-92.31 552.81,-82.65"/>
<polygon fill="midnightblue" stroke="midnightblue" points="555.19,-80.09 545.49,-75.83 550.42,-85.21 555.19,-80.09"/>
</g>
<!-- Node7&#45;&gt;Node5 -->
<g id="edge8" class="edge">
<title>Node7&#45;&gt;Node5</title>
<path fill="none" stroke="midnightblue" d="M516.83,-56.44C497.09,-47.64 466.11,-33.81 443.51,-23.72"/>
<polygon fill="midnightblue" stroke="midnightblue" points="444.64,-20.4 434.08,-19.52 441.79,-26.79 444.64,-20.4"/>
</g>
<!-- Node8 -->
<g id="node8" class="node">
<title>Node8</title>
<g id="a_node8"><a xlink:title=" ">
<polygon fill="none" stroke="#bfbfbf" points="516,-0.5 516,-19.5 556,-19.5 556,-0.5 516,-0.5"/>
<text text-anchor="middle" x="536" y="-7.5" font-family="Helvetica,sans-Serif" font-size="10.00">regex</text>
</a>
</g>
</g>
<!-- Node7&#45;&gt;Node8 -->
<g id="edge7" class="edge">
<title>Node7&#45;&gt;Node8</title>
<path fill="none" stroke="midnightblue" d="M536,-56.08C536,-49.01 536,-38.86 536,-29.99"/>
<polygon fill="midnightblue" stroke="midnightblue" points="539.5,-29.75 536,-19.75 532.5,-29.75 539.5,-29.75"/>
</g>
<!-- Node10 -->
<g id="node10" class="node">
<title>Node10</title>
<g id="a_node10"><a xlink:title=" ">
<polygon fill="none" stroke="#bfbfbf" points="222.5,-56.5 222.5,-75.5 271.5,-75.5 271.5,-56.5 222.5,-56.5"/>
<text text-anchor="middle" x="247" y="-63.5" font-family="Helvetica,sans-Serif" font-size="10.00">cstddef</text>
</a>
</g>
</g>
<!-- Node9&#45;&gt;Node10 -->
<g id="edge10" class="edge">
<title>Node9&#45;&gt;Node10</title>
<path fill="none" stroke="midnightblue" d="M211.94,-112.08C217.93,-104.38 226.75,-93.03 234.05,-83.65"/>
<polygon fill="midnightblue" stroke="midnightblue" points="236.82,-85.79 240.19,-75.75 231.29,-81.5 236.82,-85.79"/>
</g>
<!-- Node11 -->
<g id="node11" class="node">
<title>Node11</title>
<g id="a_node11"><a xlink:title=" ">
<polygon fill="none" stroke="#bfbfbf" points="0,-56.5 0,-75.5 72,-75.5 72,-56.5 0,-56.5"/>
<text text-anchor="middle" x="36" y="-63.5" font-family="Helvetica,sans-Serif" font-size="10.00">initializer_list</text>
</a>
</g>
</g>
<!-- Node9&#45;&gt;Node11 -->
<g id="edge11" class="edge">
<title>Node9&#45;&gt;Node11</title>
<path fill="none" stroke="midnightblue" d="M179.33,-112.8C150.92,-103.72 104.89,-89.01 72.68,-78.72"/>
<polygon fill="midnightblue" stroke="midnightblue" points="73.34,-75.26 62.75,-75.55 71.21,-81.92 73.34,-75.26"/>
</g>
<!-- Node12 -->
<g id="node12" class="node">
<title>Node12</title>
<g id="a_node12"><a xlink:title=" ">
<polygon fill="none" stroke="#bfbfbf" points="90.5,-56.5 90.5,-75.5 137.5,-75.5 137.5,-56.5 90.5,-56.5"/>
<text text-anchor="middle" x="114" y="-63.5" font-family="Helvetica,sans-Serif" font-size="10.00">iterator</text>
</a>
</g>
</g>
<!-- Node9&#45;&gt;Node12 -->
<g id="edge12" class="edge">
<title>Node9&#45;&gt;Node12</title>
<path fill="none" stroke="midnightblue" d="M190.38,-112.32C176.05,-103.82 153.99,-90.73 137.25,-80.8"/>
<polygon fill="midnightblue" stroke="midnightblue" points="138.97,-77.75 128.58,-75.65 135.4,-83.77 138.97,-77.75"/>
</g>
<!-- Node13 -->
<g id="node13" class="node">
<title>Node13</title>
<g id="a_node13"><a xlink:title=" ">
<polygon fill="none" stroke="#bfbfbf" points="289.5,-56.5 289.5,-75.5 348.5,-75.5 348.5,-56.5 289.5,-56.5"/>
<text text-anchor="middle" x="319" y="-63.5" font-family="Helvetica,sans-Serif" font-size="10.00">stdexcept</text>
</a>
</g>
</g>
<!-- Node9&#45;&gt;Node13 -->
<g id="edge13" class="edge">
<title>Node9&#45;&gt;Node13</title>
<path fill="none" stroke="midnightblue" d="M223.06,-112.44C241.57,-103.68 270.58,-89.94 291.86,-79.86"/>
<polygon fill="midnightblue" stroke="midnightblue" points="293.48,-82.96 301.02,-75.52 290.49,-76.63 293.48,-82.96"/>
</g>
<!-- Node14 -->
<g id="node14" class="node">
<title>Node14</title>
<g id="a_node14"><a xlink:title=" ">
<polygon fill="none" stroke="#bfbfbf" points="443,-56.5 443,-75.5 487,-75.5 487,-56.5 443,-56.5"/>
<text text-anchor="middle" x="465" y="-63.5" font-family="Helvetica,sans-Serif" font-size="10.00">vector</text>
</a>
</g>
</g>
<!-- Node9&#45;&gt;Node14 -->
<g id="edge14" class="edge">
<title>Node9&#45;&gt;Node14</title>
<path fill="none" stroke="midnightblue" d="M230.58,-114.25C233.74,-113.47 236.94,-112.7 240,-112 308.35,-96.39 389.06,-80.98 432.83,-72.86"/>
<polygon fill="midnightblue" stroke="midnightblue" points="433.68,-76.27 442.88,-71.01 432.41,-69.38 433.68,-76.27"/>
</g>
<!-- Node15 -->
<g id="node15" class="node">
<title>Node15</title>
<g id="a_node15"><a xlink:title=" ">
<polygon fill="none" stroke="#bfbfbf" points="155.5,-56.5 155.5,-75.5 204.5,-75.5 204.5,-56.5 155.5,-56.5"/>
<text text-anchor="middle" x="180" y="-63.5" font-family="Helvetica,sans-Serif" font-size="10.00">List.tpp</text>
</a>
</g>
</g>
<!-- Node9&#45;&gt;Node15 -->
<g id="edge15" class="edge">
<title>Node9&#45;&gt;Node15</title>
<path fill="none" stroke="midnightblue" d="M200.87,-112.08C197.49,-104.77 192.58,-94.18 188.38,-85.1"/>
<polygon fill="midnightblue" stroke="midnightblue" points="191.43,-83.36 184.05,-75.75 185.08,-86.3 191.43,-83.36"/>
</g>
<!-- Node18&#45;&gt;Node4 -->
<g id="edge20" class="edge">
<title>Node18&#45;&gt;Node4</title>
<path fill="none" stroke="midnightblue" d="M516.18,-168.08C514.73,-160.93 512.63,-150.64 510.81,-141.69"/>
<polygon fill="midnightblue" stroke="midnightblue" points="514.21,-140.85 508.78,-131.75 507.35,-142.25 514.21,-140.85"/>
</g>
<!-- Node18&#45;&gt;Node6 -->
<g id="edge22" class="edge">
<title>Node18&#45;&gt;Node6</title>
<path fill="none" stroke="midnightblue" d="M530.21,-168.32C541.78,-160.11 559.38,-147.6 573.16,-137.81"/>
<polygon fill="midnightblue" stroke="midnightblue" points="575.44,-140.48 581.57,-131.83 571.39,-134.77 575.44,-140.48"/>
</g>
<!-- Node18&#45;&gt;Node7 -->
<g id="edge23" class="edge">
<title>Node18&#45;&gt;Node7</title>
<path fill="none" stroke="midnightblue" d="M545.34,-170.32C590.43,-159.17 675.85,-137.46 680,-132 709.33,-93.41 629.55,-77.12 577.32,-70.74"/>
<polygon fill="midnightblue" stroke="midnightblue" points="577.61,-67.25 567.28,-69.59 576.82,-74.2 577.61,-67.25"/>
</g>
<!-- Node18&#45;&gt;Node14 -->
<g id="edge21" class="edge">
<title>Node18&#45;&gt;Node14</title>
<path fill="none" stroke="midnightblue" d="M545.23,-169.32C581.25,-158.9 640.91,-140.58 647,-132 652.15,-124.75 652.51,-118.98 647,-112 606.17,-60.29 566.44,-90.59 497.27,-75.99"/>
<polygon fill="midnightblue" stroke="midnightblue" points="497.85,-72.53 487.32,-73.62 496.23,-79.34 497.85,-72.53"/>
</g>
<!-- Node19&#45;&gt;Node5 -->
<g id="edge26" class="edge">
<title>Node19&#45;&gt;Node5</title>
<path fill="none" stroke="midnightblue" d="M301.44,-112.35C317.09,-104.15 340.27,-90.89 358,-76 375.16,-61.59 391.69,-41.88 402.49,-27.95"/>
<polygon fill="midnightblue" stroke="midnightblue" points="405.46,-29.83 408.71,-19.75 399.88,-25.6 405.46,-29.83"/>
</g>
<!-- Node19&#45;&gt;Node7 -->
<g id="edge27" class="edge">
<title>Node19&#45;&gt;Node7</title>
<path fill="none" stroke="midnightblue" d="M319.29,-113.65C359.41,-105.25 427.15,-91 494.99,-76.2"/>
<polygon fill="midnightblue" stroke="midnightblue" points="495.98,-79.57 505,-74.01 494.48,-72.73 495.98,-79.57"/>
</g>
<!-- Node19&#45;&gt;Node13 -->
<g id="edge25" class="edge">
<title>Node19&#45;&gt;Node13</title>
<path fill="none" stroke="midnightblue" d="M289.78,-112.08C294.67,-104.53 301.83,-93.49 307.83,-84.23"/>
<polygon fill="midnightblue" stroke="midnightblue" points="310.83,-86.05 313.33,-75.75 304.95,-82.24 310.83,-86.05"/>
</g>
<!-- Node20&#45;&gt;Node11 -->
<g id="edge29" class="edge">
<title>Node20&#45;&gt;Node11</title>
<path fill="none" stroke="midnightblue" d="M188.97,-168.37C160.49,-149.49 92.42,-104.38 57.48,-81.24"/>
<polygon fill="midnightblue" stroke="midnightblue" points="59.23,-78.2 48.97,-75.59 55.37,-84.03 59.23,-78.2"/>
</g>
</g>
</svg>
