<?xml version="1.0" encoding="UTF-8" standalone="no"?>
<!DOCTYPE svg PUBLIC "-//W3C//DTD SVG 1.1//EN"
 "http://www.w3.org/Graphics/SVG/1.1/DTD/svg11.dtd">
<!-- Generated by graphviz version 3.0.0 (20220413.0106)
 -->
<!-- Title: IVisitor Pages: 1 -->
<svg width="337pt" height="84pt"
 viewBox="0.00 0.00 337.00 84.00" xmlns="http://www.w3.org/2000/svg" xmlns:xlink="http://www.w3.org/1999/xlink">
<g id="graph0" class="graph" transform="scale(1 1) rotate(0) translate(4 80)">
<title>IVisitor</title>
<!-- Node1 -->
<g id="node1" class="node">
<title>Node1</title>
<g id="a_node1"><a xlink:title="Интерфейс &quot;посетителя&quot;.">
<polygon fill="#bfbfbf" stroke="black" points="139,-56.5 139,-75.5 186,-75.5 186,-56.5 139,-56.5"/>
<text text-anchor="middle" x="162.5" y="-63.5" font-family="Helvetica,sans-Serif" font-size="10.00">IVisitor</text>
</a>
</g>
</g>
<!-- Node2 -->
<g id="node2" class="node">
<title>Node2</title>
<g id="a_node2"><a xlink:href="../../d0/dc3/class_graphviz_visitor.html" target="_top" xlink:title="Посетитель для расчета по дереву выражения">
<polygon fill="none" stroke="black" points="0,-0.5 0,-19.5 83,-19.5 83,-0.5 0,-0.5"/>
<text text-anchor="middle" x="41.5" y="-7.5" font-family="Helvetica,sans-Serif" font-size="10.00">GraphvizVisitor</text>
</a>
</g>
</g>
<!-- Node1&#45;&gt;Node2 -->
<g id="edge1" class="edge">
<title>Node1&#45;&gt;Node2</title>
<path fill="none" stroke="midnightblue" d="M134.19,-52.37C111.53,-42.26 80.37,-28.35 60.58,-19.52"/>
<polygon fill="midnightblue" stroke="midnightblue" points="132.77,-55.56 143.33,-56.44 135.62,-49.17 132.77,-55.56"/>
</g>
<!-- Node3 -->
<g id="node3" class="node">
<title>Node3</title>
<g id="a_node3"><a xlink:href="../../d2/dd3/class_highlight_accurate_visitor.html" target="_top" xlink:title="Посетитель&#45;кодовый генератор">
<polygon fill="none" stroke="black" points="101.5,-0.5 101.5,-19.5 223.5,-19.5 223.5,-0.5 101.5,-0.5"/>
<text text-anchor="middle" x="162.5" y="-7.5" font-family="Helvetica,sans-Serif" font-size="10.00">HighlightAccurateVisitor</text>
</a>
</g>
</g>
<!-- Node1&#45;&gt;Node3 -->
<g id="edge2" class="edge">
<title>Node1&#45;&gt;Node3</title>
<path fill="none" stroke="midnightblue" d="M162.5,-45.8C162.5,-36.91 162.5,-26.78 162.5,-19.75"/>
<polygon fill="midnightblue" stroke="midnightblue" points="159,-46.08 162.5,-56.08 166,-46.08 159,-46.08"/>
</g>
<!-- Node4 -->
<g id="node4" class="node">
<title>Node4</title>
<g id="a_node4"><a xlink:href="../../d1/d49/class_type_view_visitor.html" target="_top" xlink:title="Посетителя для вывода сведений о типах в прямом порядке по АДС">
<polygon fill="none" stroke="black" points="242,-0.5 242,-19.5 329,-19.5 329,-0.5 242,-0.5"/>
<text text-anchor="middle" x="285.5" y="-7.5" font-family="Helvetica,sans-Serif" font-size="10.00">TypeViewVisitor</text>
</a>
</g>
</g>
<!-- Node1&#45;&gt;Node4 -->
<g id="edge3" class="edge">
<title>Node1&#45;&gt;Node4</title>
<path fill="none" stroke="midnightblue" d="M191.27,-52.37C214.31,-42.26 245.98,-28.35 266.1,-19.52"/>
<polygon fill="midnightblue" stroke="midnightblue" points="189.74,-49.22 181.99,-56.44 192.55,-55.63 189.74,-49.22"/>
</g>
</g>
</svg>
