<?xml version="1.0" encoding="UTF-8" standalone="no"?>
<!DOCTYPE svg PUBLIC "-//W3C//DTD SVG 1.1//EN"
 "http://www.w3.org/Graphics/SVG/1.1/DTD/svg11.dtd">
<!-- Generated by graphviz version 2.43.0 (0)
 -->
<!-- Title: magic_enum::detail::static_string::size Pages: 1 -->
<svg width="380pt" height="107pt"
 viewBox="0.00 0.00 380.00 107.00" xmlns="http://www.w3.org/2000/svg" xmlns:xlink="http://www.w3.org/1999/xlink">
<g id="graph0" class="graph" transform="scale(1 1) rotate(0) translate(4 103)">
<title>magic_enum::detail::static_string::size</title>
<!-- Node1 -->
<g id="node1" class="node">
<title>Node1</title>
<g id="a_node1"><a xlink:title=" ">
<polygon fill="#bfbfbf" stroke="black" points="259,-30 259,-60 372,-60 372,-30 259,-30"/>
<text text-anchor="start" x="267" y="-48" font-family="Helvetica,sans-Serif" font-size="10.00">magic_enum::detail</text>
<text text-anchor="middle" x="315.5" y="-37" font-family="Helvetica,sans-Serif" font-size="10.00">::static_string::size</text>
</a>
</g>
</g>
<!-- Node2 -->
<g id="node2" class="node">
<title>Node2</title>
<g id="a_node2"><a xlink:href="../../dd/d3d/namespacemagic__enum_1_1detail.html#a77aa93178c499e2a34720fc831b99458" target="_top" xlink:title=" ">
<polygon fill="none" stroke="black" points="95.5,-60.5 95.5,-79.5 220.5,-79.5 220.5,-60.5 95.5,-60.5"/>
<text text-anchor="middle" x="158" y="-67.5" font-family="Helvetica,sans-Serif" font-size="10.00">magic_enum::detail::n</text>
</a>
</g>
</g>
<!-- Node1&#45;&gt;Node2 -->
<g id="edge1" class="edge">
<title>Node1&#45;&gt;Node2</title>
<path fill="none" stroke="midnightblue" d="M248.78,-55.57C238.65,-57.19 228.24,-58.87 218.25,-60.47"/>
<polygon fill="midnightblue" stroke="midnightblue" points="249.48,-59 258.8,-53.95 248.37,-52.09 249.48,-59"/>
</g>
<!-- Node5 -->
<g id="node5" class="node">
<title>Node5</title>
<g id="a_node5"><a xlink:href="../../dc/dc9/classmagic__enum_1_1detail_1_1static__string.html#a413dd2e7d5ec7f25c34d4da853eb04a5" target="_top" xlink:title=" ">
<polygon fill="none" stroke="black" points="93,-0.5 93,-41.5 223,-41.5 223,-0.5 93,-0.5"/>
<text text-anchor="start" x="101" y="-29.5" font-family="Helvetica,sans-Serif" font-size="10.00">magic_enum::detail</text>
<text text-anchor="start" x="101" y="-18.5" font-family="Helvetica,sans-Serif" font-size="10.00">::static_string::operator</text>
<text text-anchor="middle" x="158" y="-7.5" font-family="Helvetica,sans-Serif" font-size="10.00"> string_view</text>
</a>
</g>
</g>
<!-- Node1&#45;&gt;Node5 -->
<g id="edge4" class="edge">
<title>Node1&#45;&gt;Node5</title>
<path fill="none" stroke="midnightblue" d="M248.88,-34.87C240.32,-33.55 231.57,-32.2 223.04,-30.88"/>
<polygon fill="midnightblue" stroke="midnightblue" points="248.38,-38.34 258.8,-36.4 249.45,-31.42 248.38,-38.34"/>
</g>
<!-- Node3 -->
<g id="node3" class="node">
<title>Node3</title>
<g id="a_node3"><a xlink:href="../../d1/d34/class_list.html#a82f96d81a5f8c7f785714fb823a5f6db" target="_top" xlink:title="Конструктор из размера">
<polygon fill="none" stroke="black" points="0,-79.5 0,-98.5 57,-98.5 57,-79.5 0,-79.5"/>
<text text-anchor="middle" x="28.5" y="-86.5" font-family="Helvetica,sans-Serif" font-size="10.00">List::List</text>
</a>
</g>
</g>
<!-- Node2&#45;&gt;Node3 -->
<g id="edge2" class="edge">
<title>Node2&#45;&gt;Node3</title>
<path fill="none" stroke="midnightblue" d="M85.38,-80.67C75.32,-82.17 65.52,-83.63 57.01,-84.9"/>
<polygon fill="midnightblue" stroke="midnightblue" points="86.12,-84.1 95.49,-79.17 85.08,-77.18 86.12,-84.1"/>
</g>
<!-- Node4 -->
<g id="node4" class="node">
<title>Node4</title>
<g id="a_node4"><a xlink:href="../../d9/d2f/test_list_8cpp.html#a879383ad05d7f79b86d5dd35040e8448" target="_top" xlink:title=" ">
<polygon fill="none" stroke="black" points="8,-41.5 8,-60.5 49,-60.5 49,-41.5 8,-41.5"/>
<text text-anchor="middle" x="28.5" y="-48.5" font-family="Helvetica,sans-Serif" font-size="10.00">TEST</text>
</a>
</g>
</g>
<!-- Node2&#45;&gt;Node4 -->
<g id="edge3" class="edge">
<title>Node2&#45;&gt;Node4</title>
<path fill="none" stroke="midnightblue" d="M85.26,-59.31C71.95,-57.33 59.11,-55.41 49.12,-53.92"/>
<polygon fill="midnightblue" stroke="midnightblue" points="85.08,-62.82 95.49,-60.83 86.12,-55.9 85.08,-62.82"/>
</g>
</g>
</svg>
