<?xml version="1.0" encoding="UTF-8" standalone="no"?>
<!DOCTYPE svg PUBLIC "-//W3C//DTD SVG 1.1//EN"
 "http://www.w3.org/Graphics/SVG/1.1/DTD/svg11.dtd">
<!-- Generated by graphviz version 3.0.0 (20220413.0106)
 -->
<!-- Title: include/Lexer.hpp Pages: 1 -->
<svg width="554pt" height="140pt"
 viewBox="0.00 0.00 554.00 140.00" xmlns="http://www.w3.org/2000/svg" xmlns:xlink="http://www.w3.org/1999/xlink">
<g id="graph0" class="graph" transform="scale(1 1) rotate(0) translate(4 136)">
<title>include/Lexer.hpp</title>
<!-- Node1 -->
<g id="node1" class="node">
<title>Node1</title>
<g id="a_node1"><a xlink:title="Лексер">
<polygon fill="#bfbfbf" stroke="black" points="30.5,-112.5 30.5,-131.5 122.5,-131.5 122.5,-112.5 30.5,-112.5"/>
<text text-anchor="middle" x="76.5" y="-119.5" font-family="Helvetica,sans-Serif" font-size="10.00">include/Lexer.hpp</text>
</a>
</g>
</g>
<!-- Node2 -->
<g id="node2" class="node">
<title>Node2</title>
<g id="a_node2"><a xlink:title=" ">
<polygon fill="none" stroke="#bfbfbf" points="0,-0.5 0,-19.5 41,-19.5 41,-0.5 0,-0.5"/>
<text text-anchor="middle" x="20.5" y="-7.5" font-family="Helvetica,sans-Serif" font-size="10.00">string</text>
</a>
</g>
</g>
<!-- Node1&#45;&gt;Node2 -->
<g id="edge1" class="edge">
<title>Node1&#45;&gt;Node2</title>
<path fill="none" stroke="midnightblue" d="M51.34,-112.38C35.08,-105.34 15.21,-93.65 5.5,-76 -2.68,-61.14 3.41,-42.01 10.12,-28.36"/>
<polygon fill="midnightblue" stroke="midnightblue" points="13.22,-29.98 14.92,-19.52 7.07,-26.64 13.22,-29.98"/>
</g>
<!-- Node3 -->
<g id="node3" class="node">
<title>Node3</title>
<g id="a_node3"><a xlink:title=" ">
<polygon fill="none" stroke="#bfbfbf" points="14.5,-56.5 14.5,-75.5 64.5,-75.5 64.5,-56.5 14.5,-56.5"/>
<text text-anchor="middle" x="39.5" y="-63.5" font-family="Helvetica,sans-Serif" font-size="10.00">fstream</text>
</a>
</g>
</g>
<!-- Node1&#45;&gt;Node3 -->
<g id="edge2" class="edge">
<title>Node1&#45;&gt;Node3</title>
<path fill="none" stroke="midnightblue" d="M70.39,-112.08C65.22,-104.53 57.65,-93.49 51.31,-84.23"/>
<polygon fill="midnightblue" stroke="midnightblue" points="54.04,-82.02 45.5,-75.75 48.26,-85.98 54.04,-82.02"/>
</g>
<!-- Node4 -->
<g id="node4" class="node">
<title>Node4</title>
<g id="a_node4"><a xlink:href="../../de/d32/_token_8hpp.html" target="_top" xlink:title="Классы для работы с токенами анализатора">
<polygon fill="none" stroke="black" points="82.5,-56.5 82.5,-75.5 144.5,-75.5 144.5,-56.5 82.5,-56.5"/>
<text text-anchor="middle" x="113.5" y="-63.5" font-family="Helvetica,sans-Serif" font-size="10.00">Token.hpp</text>
</a>
</g>
</g>
<!-- Node1&#45;&gt;Node4 -->
<g id="edge3" class="edge">
<title>Node1&#45;&gt;Node4</title>
<path fill="none" stroke="midnightblue" d="M82.61,-112.08C87.78,-104.53 95.35,-93.49 101.69,-84.23"/>
<polygon fill="midnightblue" stroke="midnightblue" points="104.74,-85.98 107.5,-75.75 98.96,-82.02 104.74,-85.98"/>
</g>
<!-- Node6 -->
<g id="node6" class="node">
<title>Node6</title>
<g id="a_node6"><a xlink:href="../../dc/d72/_list_8hpp.html" target="_top" xlink:title=" ">
<polygon fill="none" stroke="black" points="289,-56.5 289,-75.5 340,-75.5 340,-56.5 289,-56.5"/>
<text text-anchor="middle" x="314.5" y="-63.5" font-family="Helvetica,sans-Serif" font-size="10.00">List.hpp</text>
</a>
</g>
</g>
<!-- Node1&#45;&gt;Node6 -->
<g id="edge6" class="edge">
<title>Node1&#45;&gt;Node6</title>
<path fill="none" stroke="midnightblue" d="M114.21,-112.44C159.35,-102.2 234.39,-85.18 278.67,-75.13"/>
<polygon fill="midnightblue" stroke="midnightblue" points="279.72,-78.48 288.7,-72.85 278.17,-71.65 279.72,-78.48"/>
</g>
<!-- Node4&#45;&gt;Node2 -->
<g id="edge4" class="edge">
<title>Node4&#45;&gt;Node2</title>
<path fill="none" stroke="midnightblue" d="M98.56,-56.32C83.91,-47.82 61.37,-34.73 44.26,-24.8"/>
<polygon fill="midnightblue" stroke="midnightblue" points="45.81,-21.65 35.4,-19.65 42.3,-27.7 45.81,-21.65"/>
</g>
<!-- Node5 -->
<g id="node5" class="node">
<title>Node5</title>
<g id="a_node5"><a xlink:title=" ">
<polygon fill="none" stroke="#bfbfbf" points="76.5,-0.5 76.5,-19.5 116.5,-19.5 116.5,-0.5 76.5,-0.5"/>
<text text-anchor="middle" x="96.5" y="-7.5" font-family="Helvetica,sans-Serif" font-size="10.00">regex</text>
</a>
</g>
</g>
<!-- Node4&#45;&gt;Node5 -->
<g id="edge5" class="edge">
<title>Node4&#45;&gt;Node5</title>
<path fill="none" stroke="midnightblue" d="M110.69,-56.08C108.42,-48.85 105.13,-38.41 102.29,-29.4"/>
<polygon fill="midnightblue" stroke="midnightblue" points="105.6,-28.24 99.25,-19.75 98.92,-30.34 105.6,-28.24"/>
</g>
<!-- Node7 -->
<g id="node7" class="node">
<title>Node7</title>
<g id="a_node7"><a xlink:title=" ">
<polygon fill="none" stroke="#bfbfbf" points="135,-0.5 135,-19.5 184,-19.5 184,-0.5 135,-0.5"/>
<text text-anchor="middle" x="159.5" y="-7.5" font-family="Helvetica,sans-Serif" font-size="10.00">cstddef</text>
</a>
</g>
</g>
<!-- Node6&#45;&gt;Node7 -->
<g id="edge7" class="edge">
<title>Node6&#45;&gt;Node7</title>
<path fill="none" stroke="midnightblue" d="M289.94,-56.44C263.98,-47.4 222.83,-33.06 193.7,-22.92"/>
<polygon fill="midnightblue" stroke="midnightblue" points="194.54,-19.5 183.95,-19.52 192.24,-26.11 194.54,-19.5"/>
</g>
<!-- Node8 -->
<g id="node8" class="node">
<title>Node8</title>
<g id="a_node8"><a xlink:title=" ">
<polygon fill="none" stroke="#bfbfbf" points="202.5,-0.5 202.5,-19.5 274.5,-19.5 274.5,-0.5 202.5,-0.5"/>
<text text-anchor="middle" x="238.5" y="-7.5" font-family="Helvetica,sans-Serif" font-size="10.00">initializer_list</text>
</a>
</g>
</g>
<!-- Node6&#45;&gt;Node8 -->
<g id="edge8" class="edge">
<title>Node6&#45;&gt;Node8</title>
<path fill="none" stroke="midnightblue" d="M302.29,-56.32C290.72,-48.11 273.12,-35.6 259.34,-25.81"/>
<polygon fill="midnightblue" stroke="midnightblue" points="261.11,-22.77 250.93,-19.83 257.06,-28.48 261.11,-22.77"/>
</g>
<!-- Node9 -->
<g id="node9" class="node">
<title>Node9</title>
<g id="a_node9"><a xlink:title=" ">
<polygon fill="none" stroke="#bfbfbf" points="292.5,-0.5 292.5,-19.5 336.5,-19.5 336.5,-0.5 292.5,-0.5"/>
<text text-anchor="middle" x="314.5" y="-7.5" font-family="Helvetica,sans-Serif" font-size="10.00">vector</text>
</a>
</g>
</g>
<!-- Node6&#45;&gt;Node9 -->
<g id="edge9" class="edge">
<title>Node6&#45;&gt;Node9</title>
<path fill="none" stroke="midnightblue" d="M314.5,-56.08C314.5,-49.01 314.5,-38.86 314.5,-29.99"/>
<polygon fill="midnightblue" stroke="midnightblue" points="318,-29.75 314.5,-19.75 311,-29.75 318,-29.75"/>
</g>
<!-- Node10 -->
<g id="node10" class="node">
<title>Node10</title>
<g id="a_node10"><a xlink:title=" ">
<polygon fill="none" stroke="#bfbfbf" points="355,-0.5 355,-19.5 414,-19.5 414,-0.5 355,-0.5"/>
<text text-anchor="middle" x="384.5" y="-7.5" font-family="Helvetica,sans-Serif" font-size="10.00">stdexcept</text>
</a>
</g>
</g>
<!-- Node6&#45;&gt;Node10 -->
<g id="edge10" class="edge">
<title>Node6&#45;&gt;Node10</title>
<path fill="none" stroke="midnightblue" d="M325.75,-56.32C336.3,-48.18 352.3,-35.84 364.94,-26.09"/>
<polygon fill="midnightblue" stroke="midnightblue" points="367.27,-28.71 373.05,-19.83 362.99,-23.17 367.27,-28.71"/>
</g>
<!-- Node11 -->
<g id="node11" class="node">
<title>Node11</title>
<g id="a_node11"><a xlink:title=" ">
<polygon fill="none" stroke="#bfbfbf" points="432,-0.5 432,-19.5 479,-19.5 479,-0.5 432,-0.5"/>
<text text-anchor="middle" x="455.5" y="-7.5" font-family="Helvetica,sans-Serif" font-size="10.00">iterator</text>
</a>
</g>
</g>
<!-- Node6&#45;&gt;Node11 -->
<g id="edge11" class="edge">
<title>Node6&#45;&gt;Node11</title>
<path fill="none" stroke="midnightblue" d="M336.84,-56.44C360.25,-47.48 397.24,-33.31 423.69,-23.18"/>
<polygon fill="midnightblue" stroke="midnightblue" points="425.18,-26.36 433.26,-19.52 422.67,-19.82 425.18,-26.36"/>
</g>
<!-- Node12 -->
<g id="node12" class="node">
<title>Node12</title>
<g id="a_node12"><a xlink:title=" ">
<polygon fill="none" stroke="#bfbfbf" points="497,-0.5 497,-19.5 546,-19.5 546,-0.5 497,-0.5"/>
<text text-anchor="middle" x="521.5" y="-7.5" font-family="Helvetica,sans-Serif" font-size="10.00">List.tpp</text>
</a>
</g>
</g>
<!-- Node6&#45;&gt;Node12 -->
<g id="edge12" class="edge">
<title>Node6&#45;&gt;Node12</title>
<path fill="none" stroke="midnightblue" d="M340.18,-58.47C372.29,-50.28 429.21,-35.69 486.67,-20.46"/>
<polygon fill="midnightblue" stroke="midnightblue" points="487.88,-23.77 496.64,-17.82 486.08,-17 487.88,-23.77"/>
</g>
</g>
</svg>
