<?xml version="1.0" encoding="UTF-8" standalone="no"?>
<!DOCTYPE svg PUBLIC "-//W3C//DTD SVG 1.1//EN"
 "http://www.w3.org/Graphics/SVG/1.1/DTD/svg11.dtd">
<!-- Generated by graphviz version 2.43.0 (0)
 -->
<!-- Title: CompoundAST::addChild Pages: 1 -->
<svg width="1050pt" height="161pt"
 viewBox="0.00 0.00 1050.00 161.00" xmlns="http://www.w3.org/2000/svg" xmlns:xlink="http://www.w3.org/1999/xlink">
<g id="graph0" class="graph" transform="scale(1 1) rotate(0) translate(4 157)">
<title>CompoundAST::addChild</title>
<!-- Node1 -->
<g id="node1" class="node">
<title>Node1</title>
<g id="a_node1"><a xlink:title=" ">
<polygon fill="#bfbfbf" stroke="black" points="906,-38.5 906,-57.5 1042,-57.5 1042,-38.5 906,-38.5"/>
<text text-anchor="middle" x="974" y="-45.5" font-family="Helvetica,sans-Serif" font-size="10.00">CompoundAST::addChild</text>
</a>
</g>
</g>
<!-- Node2 -->
<g id="node2" class="node">
<title>Node2</title>
<g id="a_node2"><a xlink:href="../../d0/dfe/class_syntax_analyzer.html#a2c0c19bfe9775405a5b6985cf1c8854c" target="_top" xlink:title=" ">
<polygon fill="none" stroke="black" points="676,-38.5 676,-57.5 870,-57.5 870,-38.5 676,-38.5"/>
<text text-anchor="middle" x="773" y="-45.5" font-family="Helvetica,sans-Serif" font-size="10.00">SyntaxAnalyzer::syntaxCompoundSt</text>
</a>
</g>
</g>
<!-- Node1&#45;&gt;Node2 -->
<g id="edge1" class="edge">
<title>Node1&#45;&gt;Node2</title>
<path fill="none" stroke="midnightblue" d="M895.78,-48C887.37,-48 878.74,-48 870.14,-48"/>
<polygon fill="midnightblue" stroke="midnightblue" points="895.91,-51.5 905.91,-48 895.91,-44.5 895.91,-51.5"/>
</g>
<!-- Node3 -->
<g id="node3" class="node">
<title>Node3</title>
<g id="a_node3"><a xlink:href="../../d0/dfe/class_syntax_analyzer.html#aa93b0d722276e335971360e093f19a8e" target="_top" xlink:title=" ">
<polygon fill="none" stroke="black" points="481,-95.5 481,-114.5 640,-114.5 640,-95.5 481,-95.5"/>
<text text-anchor="middle" x="560.5" y="-102.5" font-family="Helvetica,sans-Serif" font-size="10.00">SyntaxAnalyzer::syntaxBlock</text>
</a>
</g>
</g>
<!-- Node2&#45;&gt;Node3 -->
<g id="edge2" class="edge">
<title>Node2&#45;&gt;Node3</title>
<path fill="none" stroke="midnightblue" d="M726.76,-60.25C687.87,-70.78 632.56,-85.76 596.85,-95.43"/>
<polygon fill="midnightblue" stroke="midnightblue" points="728.03,-63.53 736.77,-57.54 726.2,-56.78 728.03,-63.53"/>
</g>
<!-- Node8 -->
<g id="node8" class="node">
<title>Node8</title>
<g id="a_node8"><a xlink:href="../../d0/dfe/class_syntax_analyzer.html#affae37bc1fa3a4016dcffad4affbfcbd" target="_top" xlink:title=" ">
<polygon fill="none" stroke="black" points="489.5,-38.5 489.5,-57.5 631.5,-57.5 631.5,-38.5 489.5,-38.5"/>
<text text-anchor="middle" x="560.5" y="-45.5" font-family="Helvetica,sans-Serif" font-size="10.00">SyntaxAnalyzer::syntaxSt</text>
</a>
</g>
</g>
<!-- Node2&#45;&gt;Node8 -->
<g id="edge7" class="edge">
<title>Node2&#45;&gt;Node8</title>
<path fill="none" stroke="midnightblue" d="M665.79,-48C654.18,-48 642.58,-48 631.57,-48"/>
<polygon fill="midnightblue" stroke="midnightblue" points="665.99,-51.5 675.99,-48 665.99,-44.5 665.99,-51.5"/>
</g>
<!-- Node4 -->
<g id="node4" class="node">
<title>Node4</title>
<g id="a_node4"><a xlink:href="../../d0/dfe/class_syntax_analyzer.html#aeb59cd0062ff3238bcf625c7e20fc5ec" target="_top" xlink:title=" ">
<polygon fill="none" stroke="black" points="272,-114.5 272,-133.5 445,-133.5 445,-114.5 272,-114.5"/>
<text text-anchor="middle" x="358.5" y="-121.5" font-family="Helvetica,sans-Serif" font-size="10.00">SyntaxAnalyzer::syntaxProgram</text>
</a>
</g>
</g>
<!-- Node3&#45;&gt;Node4 -->
<g id="edge3" class="edge">
<title>Node3&#45;&gt;Node4</title>
<path fill="none" stroke="midnightblue" d="M470.51,-113.45C462.07,-114.26 453.52,-115.07 445.11,-115.87"/>
<polygon fill="midnightblue" stroke="midnightblue" points="471.12,-116.91 480.74,-112.48 470.46,-109.94 471.12,-116.91"/>
</g>
<!-- Node5 -->
<g id="node5" class="node">
<title>Node5</title>
<g id="a_node5"><a xlink:href="../../d0/dfe/class_syntax_analyzer.html#a0472b9d7f2855f118acf9cb7c67ab5a7" target="_top" xlink:title=" ">
<polygon fill="none" stroke="black" points="77,-114.5 77,-133.5 236,-133.5 236,-114.5 77,-114.5"/>
<text text-anchor="middle" x="156.5" y="-121.5" font-family="Helvetica,sans-Serif" font-size="10.00">SyntaxAnalyzer::parseTokens</text>
</a>
</g>
</g>
<!-- Node4&#45;&gt;Node5 -->
<g id="edge4" class="edge">
<title>Node4&#45;&gt;Node5</title>
<path fill="none" stroke="midnightblue" d="M261.74,-124C253.14,-124 244.49,-124 236.05,-124"/>
<polygon fill="midnightblue" stroke="midnightblue" points="261.81,-127.5 271.81,-124 261.81,-120.5 261.81,-127.5"/>
</g>
<!-- Node6 -->
<g id="node6" class="node">
<title>Node6</title>
<g id="a_node6"><a xlink:href="../../df/d0a/main_8cpp.html#a3c04138a5bfe5d72780bb7e82a18e627" target="_top" xlink:title=" ">
<polygon fill="none" stroke="black" points="0,-133.5 0,-152.5 41,-152.5 41,-133.5 0,-133.5"/>
<text text-anchor="middle" x="20.5" y="-140.5" font-family="Helvetica,sans-Serif" font-size="10.00">main</text>
</a>
</g>
</g>
<!-- Node5&#45;&gt;Node6 -->
<g id="edge5" class="edge">
<title>Node5&#45;&gt;Node6</title>
<path fill="none" stroke="midnightblue" d="M78.06,-134.98C64.37,-136.92 51.27,-138.78 41.13,-140.22"/>
<polygon fill="midnightblue" stroke="midnightblue" points="78.7,-138.42 88.11,-133.56 77.72,-131.49 78.7,-138.42"/>
</g>
<!-- Node7 -->
<g id="node7" class="node">
<title>Node7</title>
<g id="a_node7"><a xlink:href="../../dd/de9/test_syntax_8cpp.html#ac491df98e51a6bba8b808af414b6614f" target="_top" xlink:title="Тест синтаксического анализа Паскаля, простой тест">
<polygon fill="none" stroke="black" points="0,-95.5 0,-114.5 41,-114.5 41,-95.5 0,-95.5"/>
<text text-anchor="middle" x="20.5" y="-102.5" font-family="Helvetica,sans-Serif" font-size="10.00">TEST</text>
</a>
</g>
</g>
<!-- Node5&#45;&gt;Node7 -->
<g id="edge6" class="edge">
<title>Node5&#45;&gt;Node7</title>
<path fill="none" stroke="midnightblue" d="M78.06,-113.02C64.37,-111.08 51.27,-109.22 41.13,-107.78"/>
<polygon fill="midnightblue" stroke="midnightblue" points="77.72,-116.51 88.11,-114.44 78.7,-109.58 77.72,-116.51"/>
</g>
<!-- Node9 -->
<g id="node9" class="node">
<title>Node9</title>
<g id="a_node9"><a xlink:href="../../d0/dfe/class_syntax_analyzer.html#addd3ca96f66a5261f904e2e0c78a898a" target="_top" xlink:title=" ">
<polygon fill="none" stroke="black" points="284,-76.5 284,-95.5 433,-95.5 433,-76.5 284,-76.5"/>
<text text-anchor="middle" x="358.5" y="-83.5" font-family="Helvetica,sans-Serif" font-size="10.00">SyntaxAnalyzer::syntaxIfSt</text>
</a>
</g>
</g>
<!-- Node8&#45;&gt;Node9 -->
<g id="edge8" class="edge">
<title>Node8&#45;&gt;Node9</title>
<path fill="none" stroke="midnightblue" d="M479.01,-56.66C445.57,-62.61 409.11,-70.18 385.36,-76.37"/>
<polygon fill="midnightblue" stroke="midnightblue" points="480.02,-60.04 489.27,-54.87 478.82,-53.14 480.02,-60.04"/>
</g>
<!-- Node10 -->
<g id="node10" class="node">
<title>Node10</title>
<g id="a_node10"><a xlink:href="../../d0/dfe/class_syntax_analyzer.html#a79a0e444afd499634f445f0b8919dd0f" target="_top" xlink:title=" ">
<polygon fill="none" stroke="black" points="279,-0.5 279,-19.5 438,-19.5 438,-0.5 279,-0.5"/>
<text text-anchor="middle" x="358.5" y="-7.5" font-family="Helvetica,sans-Serif" font-size="10.00">SyntaxAnalyzer::syntaxStList</text>
</a>
</g>
</g>
<!-- Node8&#45;&gt;Node10 -->
<g id="edge10" class="edge">
<title>Node8&#45;&gt;Node10</title>
<path fill="none" stroke="midnightblue" d="M499.4,-36.58C470.79,-31.14 436.96,-24.72 409.73,-19.54"/>
<polygon fill="midnightblue" stroke="midnightblue" points="498.81,-40.03 509.29,-38.46 500.12,-33.15 498.81,-40.03"/>
</g>
<!-- Node11 -->
<g id="node11" class="node">
<title>Node11</title>
<g id="a_node11"><a xlink:href="../../d0/dfe/class_syntax_analyzer.html#a35bb1125afde4b827a0dd8f3bce8dc58" target="_top" xlink:title=" ">
<polygon fill="none" stroke="black" points="273.5,-38.5 273.5,-57.5 443.5,-57.5 443.5,-38.5 273.5,-38.5"/>
<text text-anchor="middle" x="358.5" y="-45.5" font-family="Helvetica,sans-Serif" font-size="10.00">SyntaxAnalyzer::syntaxWhileSt</text>
</a>
</g>
</g>
<!-- Node8&#45;&gt;Node11 -->
<g id="edge12" class="edge">
<title>Node8&#45;&gt;Node11</title>
<path fill="none" stroke="midnightblue" d="M479.12,-41.37C467.44,-41.23 455.39,-41.21 443.64,-41.33"/>
<polygon fill="midnightblue" stroke="midnightblue" points="479.22,-44.87 489.27,-41.52 479.32,-37.87 479.22,-44.87"/>
</g>
<!-- Node9&#45;&gt;Node8 -->
<g id="edge9" class="edge">
<title>Node9&#45;&gt;Node8</title>
<path fill="none" stroke="midnightblue" d="M443.36,-76.74C475.92,-70.87 510.82,-63.59 533.76,-57.59"/>
<polygon fill="midnightblue" stroke="midnightblue" points="442.59,-73.32 433.35,-78.51 443.81,-80.21 442.59,-73.32"/>
</g>
<!-- Node10&#45;&gt;Node2 -->
<g id="edge11" class="edge">
<title>Node10&#45;&gt;Node2</title>
<path fill="none" stroke="midnightblue" d="M448.34,-14.3C503.58,-17.4 576.03,-22.24 640,-29 663.83,-31.52 689.97,-35.11 712.65,-38.49"/>
<polygon fill="midnightblue" stroke="midnightblue" points="448.41,-10.8 438.23,-13.74 448.02,-17.79 448.41,-10.8"/>
</g>
<!-- Node11&#45;&gt;Node8 -->
<g id="edge13" class="edge">
<title>Node11&#45;&gt;Node8</title>
<path fill="none" stroke="midnightblue" d="M453.66,-54.74C465.65,-54.78 477.75,-54.69 489.27,-54.48"/>
<polygon fill="midnightblue" stroke="midnightblue" points="453.66,-51.24 443.64,-54.67 453.61,-58.24 453.66,-51.24"/>
</g>
</g>
</svg>
