<?xml version="1.0" encoding="UTF-8" standalone="no"?>
<!DOCTYPE svg PUBLIC "-//W3C//DTD SVG 1.1//EN"
 "http://www.w3.org/Graphics/SVG/1.1/DTD/svg11.dtd">
<!-- Generated by graphviz version 3.0.0 (20220413.0106)
 -->
<!-- Title: include/Token.hpp Pages: 1 -->
<svg width="1445pt" height="319pt"
 viewBox="0.00 0.00 1444.50 319.00" xmlns="http://www.w3.org/2000/svg" xmlns:xlink="http://www.w3.org/1999/xlink">
<g id="graph0" class="graph" transform="scale(1 1) rotate(0) translate(4 315)">
<title>include/Token.hpp</title>
<!-- Node1 -->
<g id="node1" class="node">
<title>Node1</title>
<g id="a_node1"><a xlink:title=" ">
<polygon fill="#bfbfbf" stroke="black" points="630,-291.5 630,-310.5 725,-310.5 725,-291.5 630,-291.5"/>
<text text-anchor="middle" x="677.5" y="-298.5" font-family="Helvetica,sans-Serif" font-size="10.00">include/Token.hpp</text>
</a>
</g>
</g>
<!-- Node2 -->
<g id="node2" class="node">
<title>Node2</title>
<g id="a_node2"><a xlink:href="../../d4/dcb/_a_s_t_8hpp.html" target="_top" xlink:title=" ">
<polygon fill="none" stroke="black" points="338.5,-123.5 338.5,-142.5 426.5,-142.5 426.5,-123.5 338.5,-123.5"/>
<text text-anchor="middle" x="382.5" y="-130.5" font-family="Helvetica,sans-Serif" font-size="10.00">include/AST.hpp</text>
</a>
</g>
</g>
<!-- Node1&#45;&gt;Node2 -->
<g id="edge1" class="edge">
<title>Node1&#45;&gt;Node2</title>
<path fill="none" stroke="midnightblue" d="M620.05,-295.54C556,-287.37 453.99,-264.28 397.5,-199 383.56,-182.89 381.91,-156.36 382.08,-142.71"/>
<polygon fill="midnightblue" stroke="midnightblue" points="619.65,-299.01 629.99,-296.72 620.48,-292.06 619.65,-299.01"/>
</g>
<!-- Node3 -->
<g id="node3" class="node">
<title>Node3</title>
<g id="a_node3"><a xlink:href="../../d4/d0d/_a_s_t_factory_8hpp.html" target="_top" xlink:title=" ">
<polygon fill="none" stroke="black" points="79.5,-62 79.5,-81 199.5,-81 199.5,-62 79.5,-62"/>
<text text-anchor="middle" x="139.5" y="-69" font-family="Helvetica,sans-Serif" font-size="10.00">include/ASTFactory.hpp</text>
</a>
</g>
</g>
<!-- Node1&#45;&gt;Node3 -->
<g id="edge14" class="edge">
<title>Node1&#45;&gt;Node3</title>
<path fill="none" stroke="midnightblue" d="M619.82,-294.98C569.81,-289.3 496.16,-277.71 435.5,-255 313.38,-209.28 186.61,-110.79 149.98,-81.13"/>
<polygon fill="midnightblue" stroke="midnightblue" points="619.48,-298.47 629.8,-296.07 620.24,-291.51 619.48,-298.47"/>
</g>
<!-- Node4 -->
<g id="node4" class="node">
<title>Node4</title>
<g id="a_node4"><a xlink:href="../../d4/dfc/_a_s_t_factory_8cpp.html" target="_top" xlink:title=" ">
<polygon fill="none" stroke="black" points="0,-0.5 0,-19.5 103,-19.5 103,-0.5 0,-0.5"/>
<text text-anchor="middle" x="51.5" y="-7.5" font-family="Helvetica,sans-Serif" font-size="10.00">src/ASTFactory.cpp</text>
</a>
</g>
</g>
<!-- Node1&#45;&gt;Node4 -->
<g id="edge47" class="edge">
<title>Node1&#45;&gt;Node4</title>
<path fill="none" stroke="midnightblue" d="M619.51,-296.47C457.77,-285.87 13.5,-251.17 13.5,-190 13.5,-190 13.5,-190 13.5,-132 13.5,-87.96 36.69,-38.88 46.84,-19.52"/>
<polygon fill="midnightblue" stroke="midnightblue" points="619.54,-299.98 629.75,-297.14 619.99,-293 619.54,-299.98"/>
</g>
<!-- Node13 -->
<g id="node13" class="node">
<title>Node13</title>
<g id="a_node13"><a xlink:href="../../d5/d24/_lexer_8hpp.html" target="_top" xlink:title=" ">
<polygon fill="none" stroke="black" points="826.5,-179.5 826.5,-198.5 918.5,-198.5 918.5,-179.5 826.5,-179.5"/>
<text text-anchor="middle" x="872.5" y="-186.5" font-family="Helvetica,sans-Serif" font-size="10.00">include/Lexer.hpp</text>
</a>
</g>
</g>
<!-- Node1&#45;&gt;Node13 -->
<g id="edge15" class="edge">
<title>Node1&#45;&gt;Node13</title>
<path fill="none" stroke="midnightblue" d="M730.43,-288.96C756.53,-281.93 787.66,-271.05 812.5,-255 836.24,-239.67 856.85,-212.8 866.56,-198.89"/>
<polygon fill="midnightblue" stroke="midnightblue" points="729.5,-285.59 720.69,-291.47 731.25,-292.36 729.5,-285.59"/>
</g>
<!-- Node17 -->
<g id="node17" class="node">
<title>Node17</title>
<g id="a_node17"><a xlink:href="../../d8/d69/_pascal_tokens_8hpp.html" target="_top" xlink:title=" ">
<polygon fill="none" stroke="black" points="883,-123.5 883,-142.5 1014,-142.5 1014,-123.5 883,-123.5"/>
<text text-anchor="middle" x="948.5" y="-130.5" font-family="Helvetica,sans-Serif" font-size="10.00">include/PascalTokens.hpp</text>
</a>
</g>
</g>
<!-- Node1&#45;&gt;Node17 -->
<g id="edge23" class="edge">
<title>Node1&#45;&gt;Node17</title>
<path fill="none" stroke="midnightblue" d="M721.33,-288.15C740.98,-281.09 763.32,-270.42 779.5,-255 806.84,-228.95 789.08,-203.87 817.5,-179 839.21,-159.99 869.35,-148.92 895.25,-142.51"/>
<polygon fill="midnightblue" stroke="midnightblue" points="719.99,-284.91 711.64,-291.43 722.24,-291.54 719.99,-284.91"/>
</g>
<!-- Node18 -->
<g id="node18" class="node">
<title>Node18</title>
<g id="a_node18"><a xlink:href="../../da/dbf/_synt_exp_8hpp.html" target="_top" xlink:title=" ">
<polygon fill="none" stroke="black" points="666.5,-235.5 666.5,-254.5 770.5,-254.5 770.5,-235.5 666.5,-235.5"/>
<text text-anchor="middle" x="718.5" y="-242.5" font-family="Helvetica,sans-Serif" font-size="10.00">include/SyntExp.hpp</text>
</a>
</g>
</g>
<!-- Node1&#45;&gt;Node18 -->
<g id="edge28" class="edge">
<title>Node1&#45;&gt;Node18</title>
<path fill="none" stroke="midnightblue" d="M690.52,-282.86C697.62,-273.5 706.1,-262.33 711.86,-254.75"/>
<polygon fill="midnightblue" stroke="midnightblue" points="687.53,-281 684.27,-291.08 693.11,-285.24 687.53,-281"/>
</g>
<!-- Node19 -->
<g id="node19" class="node">
<title>Node19</title>
<g id="a_node19"><a xlink:href="../../db/d42/_visitor_8hpp.html" target="_top" xlink:title=" ">
<polygon fill="none" stroke="black" points="406.5,-179.5 406.5,-198.5 502.5,-198.5 502.5,-179.5 406.5,-179.5"/>
<text text-anchor="middle" x="454.5" y="-186.5" font-family="Helvetica,sans-Serif" font-size="10.00">include/Visitor.hpp</text>
</a>
</g>
</g>
<!-- Node1&#45;&gt;Node19 -->
<g id="edge46" class="edge">
<title>Node1&#45;&gt;Node19</title>
<path fill="none" stroke="midnightblue" d="M650.9,-286.88C604.68,-264.08 510.76,-217.75 471.92,-198.59"/>
<polygon fill="midnightblue" stroke="midnightblue" points="649.48,-290.08 660,-291.37 652.58,-283.81 649.48,-290.08"/>
</g>
<!-- Node20 -->
<g id="node20" class="node">
<title>Node20</title>
<g id="a_node20"><a xlink:href="../../d0/d66/_synt_exp_8cpp.html" target="_top" xlink:title=" ">
<polygon fill="none" stroke="black" points="1350.5,-179.5 1350.5,-198.5 1436.5,-198.5 1436.5,-179.5 1350.5,-179.5"/>
<text text-anchor="middle" x="1393.5" y="-186.5" font-family="Helvetica,sans-Serif" font-size="10.00">src/SyntExp.cpp</text>
</a>
</g>
</g>
<!-- Node1&#45;&gt;Node20 -->
<g id="edge48" class="edge">
<title>Node1&#45;&gt;Node20</title>
<path fill="none" stroke="midnightblue" d="M720.51,-288.77C752.86,-280.11 798.18,-267.53 837.5,-255 862.68,-246.97 867.66,-240.56 893.5,-235 1086.61,-193.42 1140.36,-222.42 1336.5,-199 1340.98,-198.47 1345.64,-197.84 1350.29,-197.17"/>
<polygon fill="midnightblue" stroke="midnightblue" points="719.25,-285.48 710.49,-291.43 721.05,-292.24 719.25,-285.48"/>
</g>
<!-- Node21 -->
<g id="node21" class="node">
<title>Node21</title>
<g id="a_node21"><a xlink:href="../../df/d3f/_syntax_8hpp.html" target="_top" xlink:title=" ">
<polygon fill="none" stroke="black" points="558.5,-123.5 558.5,-142.5 656.5,-142.5 656.5,-123.5 558.5,-123.5"/>
<text text-anchor="middle" x="607.5" y="-130.5" font-family="Helvetica,sans-Serif" font-size="10.00">include/Syntax.hpp</text>
</a>
</g>
</g>
<!-- Node1&#45;&gt;Node21 -->
<g id="edge41" class="edge">
<title>Node1&#45;&gt;Node21</title>
<path fill="none" stroke="midnightblue" d="M669.4,-282.07C665.72,-273.84 661.34,-263.95 657.5,-255 639.5,-213.01 618.94,-162.36 610.94,-142.54"/>
<polygon fill="midnightblue" stroke="midnightblue" points="666.3,-283.72 673.6,-291.4 672.69,-280.85 666.3,-283.72"/>
</g>
<!-- Node22 -->
<g id="node22" class="node">
<title>Node22</title>
<g id="a_node22"><a xlink:href="../../d1/db6/_token_8cpp.html" target="_top" xlink:title=" ">
<polygon fill="none" stroke="black" points="902.5,-235.5 902.5,-254.5 980.5,-254.5 980.5,-235.5 902.5,-235.5"/>
<text text-anchor="middle" x="941.5" y="-242.5" font-family="Helvetica,sans-Serif" font-size="10.00">src/Token.cpp</text>
</a>
</g>
</g>
<!-- Node1&#45;&gt;Node22 -->
<g id="edge49" class="edge">
<title>Node1&#45;&gt;Node22</title>
<path fill="none" stroke="midnightblue" d="M729.14,-289.44C779.97,-279.04 856.48,-263.39 902.45,-253.99"/>
<polygon fill="midnightblue" stroke="midnightblue" points="728.43,-286.01 719.33,-291.44 729.83,-292.87 728.43,-286.01"/>
</g>
<!-- Node2&#45;&gt;Node3 -->
<g id="edge2" class="edge">
<title>Node2&#45;&gt;Node3</title>
<path fill="none" stroke="midnightblue" d="M337.74,-121.04C290.57,-109.49 217.26,-91.54 174.25,-81.01"/>
<polygon fill="midnightblue" stroke="midnightblue" points="337.14,-124.5 347.68,-123.48 338.8,-117.7 337.14,-124.5"/>
</g>
<!-- Node2&#45;&gt;Node4 -->
<g id="edge9" class="edge">
<title>Node2&#45;&gt;Node4</title>
<path fill="none" stroke="midnightblue" d="M328.1,-131.25C248.93,-129 107.38,-120.31 70.5,-87 51.12,-69.5 50.12,-35.5 50.84,-19.59"/>
<polygon fill="midnightblue" stroke="midnightblue" points="328.28,-134.75 338.37,-131.51 328.46,-127.75 328.28,-134.75"/>
</g>
<!-- Node5 -->
<g id="node5" class="node">
<title>Node5</title>
<g id="a_node5"><a xlink:href="../../d1/daa/_syntax_8cpp.html" target="_top" xlink:title=" ">
<polygon fill="none" stroke="black" points="299.5,-0.5 299.5,-19.5 379.5,-19.5 379.5,-0.5 299.5,-0.5"/>
<text text-anchor="middle" x="339.5" y="-7.5" font-family="Helvetica,sans-Serif" font-size="10.00">src/Syntax.cpp</text>
</a>
</g>
</g>
<!-- Node2&#45;&gt;Node5 -->
<g id="edge10" class="edge">
<title>Node2&#45;&gt;Node5</title>
<path fill="none" stroke="midnightblue" d="M406.62,-117.47C416.94,-109.83 427.88,-99.44 433.5,-87 439.17,-74.44 440.84,-67.66 433.5,-56 421.64,-37.17 399.47,-26.05 379.65,-19.57"/>
<polygon fill="midnightblue" stroke="midnightblue" points="404.49,-114.69 398.23,-123.24 408.46,-120.46 404.49,-114.69"/>
</g>
<!-- Node6 -->
<g id="node6" class="node">
<title>Node6</title>
<g id="a_node6"><a xlink:href="../../d0/d7c/_analyze_8hpp.html" target="_top" xlink:title=" ">
<polygon fill="none" stroke="black" points="696.5,-62 696.5,-81 798.5,-81 798.5,-62 696.5,-62"/>
<text text-anchor="middle" x="747.5" y="-69" font-family="Helvetica,sans-Serif" font-size="10.00">include/Analyze.hpp</text>
</a>
</g>
</g>
<!-- Node2&#45;&gt;Node6 -->
<g id="edge5" class="edge">
<title>Node2&#45;&gt;Node6</title>
<path fill="none" stroke="midnightblue" d="M436.47,-123.2C506.46,-111.79 627.66,-92.04 696.28,-80.85"/>
<polygon fill="midnightblue" stroke="midnightblue" points="435.83,-119.76 426.53,-124.82 436.96,-126.67 435.83,-119.76"/>
</g>
<!-- Node9 -->
<g id="node9" class="node">
<title>Node9</title>
<g id="a_node9"><a xlink:href="../../d0/d91/_a_s_t_8cpp.html" target="_top" xlink:title=" ">
<polygon fill="none" stroke="black" points="353,-62 353,-81 424,-81 424,-62 353,-62"/>
<text text-anchor="middle" x="388.5" y="-69" font-family="Helvetica,sans-Serif" font-size="10.00">src/AST.cpp</text>
</a>
</g>
</g>
<!-- Node2&#45;&gt;Node9 -->
<g id="edge8" class="edge">
<title>Node2&#45;&gt;Node9</title>
<path fill="none" stroke="midnightblue" d="M384.38,-113.32C385.48,-102.5 386.8,-89.4 387.64,-81.01"/>
<polygon fill="midnightblue" stroke="midnightblue" points="380.88,-113.17 383.36,-123.48 387.85,-113.88 380.88,-113.17"/>
</g>
<!-- Node10 -->
<g id="node10" class="node">
<title>Node10</title>
<g id="a_node10"><a xlink:href="../../dc/d65/_visitor_8cpp.html" target="_top" xlink:title=" ">
<polygon fill="none" stroke="black" points="256,-62 256,-81 335,-81 335,-62 256,-62"/>
<text text-anchor="middle" x="295.5" y="-69" font-family="Helvetica,sans-Serif" font-size="10.00">src/Visitor.cpp</text>
</a>
</g>
</g>
<!-- Node2&#45;&gt;Node10 -->
<g id="edge11" class="edge">
<title>Node2&#45;&gt;Node10</title>
<path fill="none" stroke="midnightblue" d="M361.46,-117.61C344.73,-106.17 321.89,-90.55 307.94,-81.01"/>
<polygon fill="midnightblue" stroke="midnightblue" points="359.8,-120.72 370.04,-123.48 363.76,-114.94 359.8,-120.72"/>
</g>
<!-- Node11 -->
<g id="node11" class="node">
<title>Node11</title>
<g id="a_node11"><a xlink:href="../../db/df9/test_semantic_8cpp.html" target="_top" xlink:title=" ">
<polygon fill="none" stroke="black" points="480.5,-62 480.5,-81 640.5,-81 640.5,-62 480.5,-62"/>
<text text-anchor="middle" x="560.5" y="-69" font-family="Helvetica,sans-Serif" font-size="10.00">tests/semantic/testSemantic.cpp</text>
</a>
</g>
</g>
<!-- Node2&#45;&gt;Node11 -->
<g id="edge12" class="edge">
<title>Node2&#45;&gt;Node11</title>
<path fill="none" stroke="midnightblue" d="M417.71,-120.23C452.31,-108.67 504.27,-91.3 535.04,-81.01"/>
<polygon fill="midnightblue" stroke="midnightblue" points="416.38,-116.99 408,-123.48 418.6,-123.62 416.38,-116.99"/>
</g>
<!-- Node12 -->
<g id="node12" class="node">
<title>Node12</title>
<g id="a_node12"><a xlink:href="../../dd/de9/test_syntax_8cpp.html" target="_top" xlink:title=" ">
<polygon fill="none" stroke="black" points="880.5,-62 880.5,-81 1016.5,-81 1016.5,-62 880.5,-62"/>
<text text-anchor="middle" x="948.5" y="-69" font-family="Helvetica,sans-Serif" font-size="10.00">tests/syntax/testSyntax.cpp</text>
</a>
</g>
</g>
<!-- Node2&#45;&gt;Node12 -->
<g id="edge13" class="edge">
<title>Node2&#45;&gt;Node12</title>
<path fill="none" stroke="midnightblue" d="M436.86,-126.29C540.59,-115.38 766.56,-91.63 880.26,-79.67"/>
<polygon fill="midnightblue" stroke="midnightblue" points="436.49,-122.8 426.91,-127.33 437.22,-129.77 436.49,-122.8"/>
</g>
<!-- Node3&#45;&gt;Node4 -->
<g id="edge3" class="edge">
<title>Node3&#45;&gt;Node4</title>
<path fill="none" stroke="midnightblue" d="M118.22,-56.11C101.3,-44.67 78.19,-29.05 64.08,-19.51"/>
<polygon fill="midnightblue" stroke="midnightblue" points="116.65,-59.27 126.89,-61.98 120.57,-53.47 116.65,-59.27"/>
</g>
<!-- Node3&#45;&gt;Node5 -->
<g id="edge4" class="edge">
<title>Node3&#45;&gt;Node5</title>
<path fill="none" stroke="midnightblue" d="M178.06,-59.03C216.93,-47.46 276.02,-29.88 310.9,-19.51"/>
<polygon fill="midnightblue" stroke="midnightblue" points="176.74,-55.77 168.16,-61.98 178.74,-62.48 176.74,-55.77"/>
</g>
<!-- Node7 -->
<g id="node7" class="node">
<title>Node7</title>
<g id="a_node7"><a xlink:href="../../d3/db4/graph_draw_8cpp.html" target="_top" xlink:title=" ">
<polygon fill="none" stroke="black" points="663,-0.5 663,-19.5 744,-19.5 744,-0.5 663,-0.5"/>
<text text-anchor="middle" x="703.5" y="-7.5" font-family="Helvetica,sans-Serif" font-size="10.00">graphDraw.cpp</text>
</a>
</g>
</g>
<!-- Node6&#45;&gt;Node7 -->
<g id="edge6" class="edge">
<title>Node6&#45;&gt;Node7</title>
<path fill="none" stroke="midnightblue" d="M735.18,-53.84C726.92,-42.67 716.39,-28.43 709.79,-19.51"/>
<polygon fill="midnightblue" stroke="midnightblue" points="732.44,-56.02 741.2,-61.98 738.06,-51.85 732.44,-56.02"/>
</g>
<!-- Node8 -->
<g id="node8" class="node">
<title>Node8</title>
<g id="a_node8"><a xlink:href="../../df/d0a/main_8cpp.html" target="_top" xlink:title=" ">
<polygon fill="none" stroke="black" points="762.5,-0.5 762.5,-19.5 818.5,-19.5 818.5,-0.5 762.5,-0.5"/>
<text text-anchor="middle" x="790.5" y="-7.5" font-family="Helvetica,sans-Serif" font-size="10.00">main.cpp</text>
</a>
</g>
</g>
<!-- Node6&#45;&gt;Node8 -->
<g id="edge7" class="edge">
<title>Node6&#45;&gt;Node8</title>
<path fill="none" stroke="midnightblue" d="M759.54,-53.84C767.61,-42.67 777.91,-28.43 784.35,-19.51"/>
<polygon fill="midnightblue" stroke="midnightblue" points="756.68,-51.82 753.66,-61.98 762.36,-55.92 756.68,-51.82"/>
</g>
<!-- Node13&#45;&gt;Node6 -->
<g id="edge16" class="edge">
<title>Node13&#45;&gt;Node6</title>
<path fill="none" stroke="midnightblue" d="M865.37,-169.93C859.12,-155.85 848.94,-136.49 835.5,-123 816.35,-103.79 788.4,-89.41 769.16,-81.01"/>
<polygon fill="midnightblue" stroke="midnightblue" points="862.28,-171.61 869.37,-179.48 868.74,-168.91 862.28,-171.61"/>
</g>
<!-- Node13&#45;&gt;Node11 -->
<g id="edge21" class="edge">
<title>Node13&#45;&gt;Node11</title>
<path fill="none" stroke="midnightblue" d="M816.15,-188.64C732.95,-188.24 583.4,-181.95 549.5,-143 534.21,-125.43 547.31,-95.65 555.35,-81.06"/>
<polygon fill="midnightblue" stroke="midnightblue" points="816.2,-192.14 826.2,-188.66 816.21,-185.14 816.2,-192.14"/>
</g>
<!-- Node13&#45;&gt;Node12 -->
<g id="edge22" class="edge">
<title>Node13&#45;&gt;Node12</title>
<path fill="none" stroke="midnightblue" d="M928.7,-187C961.99,-183.14 1001.79,-172.12 1023.5,-143 1042.51,-117.5 998.83,-93.38 970.44,-81.04"/>
<polygon fill="midnightblue" stroke="midnightblue" points="928.21,-183.53 918.6,-187.98 928.89,-190.5 928.21,-183.53"/>
</g>
<!-- Node14 -->
<g id="node14" class="node">
<title>Node14</title>
<g id="a_node14"><a xlink:href="../../dd/d5d/_lexer_8cpp.html" target="_top" xlink:title="Лексер">
<polygon fill="none" stroke="black" points="751,-123.5 751,-142.5 826,-142.5 826,-123.5 751,-123.5"/>
<text text-anchor="middle" x="788.5" y="-130.5" font-family="Helvetica,sans-Serif" font-size="10.00">src/Lexer.cpp</text>
</a>
</g>
</g>
<!-- Node13&#45;&gt;Node14 -->
<g id="edge17" class="edge">
<title>Node13&#45;&gt;Node14</title>
<path fill="none" stroke="midnightblue" d="M850.57,-173.9C835.16,-164 815.05,-151.07 801.96,-142.65"/>
<polygon fill="midnightblue" stroke="midnightblue" points="848.7,-176.86 859,-179.32 852.48,-170.97 848.7,-176.86"/>
</g>
<!-- Node15 -->
<g id="node15" class="node">
<title>Node15</title>
<g id="a_node15"><a xlink:href="../../dd/d68/lexer_test_rules_8hpp.html" target="_top" xlink:title=" ">
<polygon fill="none" stroke="black" points="1147,-123.5 1147,-142.5 1294,-142.5 1294,-123.5 1147,-123.5"/>
<text text-anchor="middle" x="1220.5" y="-130.5" font-family="Helvetica,sans-Serif" font-size="10.00">tests/lexer/lexerTestRules.hpp</text>
</a>
</g>
</g>
<!-- Node13&#45;&gt;Node15 -->
<g id="edge18" class="edge">
<title>Node13&#45;&gt;Node15</title>
<path fill="none" stroke="midnightblue" d="M928.81,-179.26C994.04,-169.14 1100.81,-152.57 1165.48,-142.54"/>
<polygon fill="midnightblue" stroke="midnightblue" points="928.06,-175.84 918.71,-180.83 929.13,-182.75 928.06,-175.84"/>
</g>
<!-- Node16 -->
<g id="node16" class="node">
<title>Node16</title>
<g id="a_node16"><a xlink:href="../../d0/d0f/test_lexer__1_8cpp.html" target="_top" xlink:title="Тесты для лексера">
<polygon fill="none" stroke="black" points="1117,-56.5 1117,-86.5 1222,-86.5 1222,-56.5 1117,-56.5"/>
<text text-anchor="start" x="1125" y="-74.5" font-family="Helvetica,sans-Serif" font-size="10.00">tests/lexer/testLexer</text>
<text text-anchor="middle" x="1169.5" y="-63.5" font-family="Helvetica,sans-Serif" font-size="10.00">_1.cpp</text>
</a>
</g>
</g>
<!-- Node13&#45;&gt;Node16 -->
<g id="edge20" class="edge">
<title>Node13&#45;&gt;Node16</title>
<path fill="none" stroke="midnightblue" d="M924.92,-177.19C958.35,-169.5 1002.23,-157.89 1039.5,-143 1079.08,-127.19 1121.99,-102.24 1147.27,-86.65"/>
<polygon fill="midnightblue" stroke="midnightblue" points="923.89,-173.84 914.9,-179.46 925.43,-180.67 923.89,-173.84"/>
</g>
<!-- Node15&#45;&gt;Node16 -->
<g id="edge19" class="edge">
<title>Node15&#45;&gt;Node16</title>
<path fill="none" stroke="midnightblue" d="M1206.62,-115.81C1198.77,-106.65 1189.05,-95.3 1181.52,-86.52"/>
<polygon fill="midnightblue" stroke="midnightblue" points="1204.03,-118.16 1213.19,-123.48 1209.34,-113.6 1204.03,-118.16"/>
</g>
<!-- Node17&#45;&gt;Node6 -->
<g id="edge24" class="edge">
<title>Node17&#45;&gt;Node6</title>
<path fill="none" stroke="midnightblue" d="M909.75,-120.53C870.68,-108.96 811.3,-91.38 776.24,-81.01"/>
<polygon fill="midnightblue" stroke="midnightblue" points="909.12,-123.99 919.7,-123.48 911.11,-117.28 909.12,-123.99"/>
</g>
<!-- Node17&#45;&gt;Node11 -->
<g id="edge26" class="edge">
<title>Node17&#45;&gt;Node11</title>
<path fill="none" stroke="midnightblue" d="M882.64,-121.9C807.63,-110.4 686.38,-91.8 615.99,-81.01"/>
<polygon fill="midnightblue" stroke="midnightblue" points="882.49,-125.42 892.91,-123.48 883.56,-118.5 882.49,-125.42"/>
</g>
<!-- Node17&#45;&gt;Node12 -->
<g id="edge27" class="edge">
<title>Node17&#45;&gt;Node12</title>
<path fill="none" stroke="midnightblue" d="M948.5,-113.32C948.5,-102.5 948.5,-89.4 948.5,-81.01"/>
<polygon fill="midnightblue" stroke="midnightblue" points="945,-113.48 948.5,-123.48 952,-113.48 945,-113.48"/>
</g>
<!-- Node17&#45;&gt;Node16 -->
<g id="edge25" class="edge">
<title>Node17&#45;&gt;Node16</title>
<path fill="none" stroke="midnightblue" d="M989.88,-120.86C1025.96,-111.14 1078.48,-97.01 1117.41,-86.52"/>
<polygon fill="midnightblue" stroke="midnightblue" points="988.91,-117.5 980.16,-123.48 990.73,-124.25 988.91,-117.5"/>
</g>
<!-- Node18&#45;&gt;Node5 -->
<g id="edge37" class="edge">
<title>Node18&#45;&gt;Node5</title>
<path fill="none" stroke="midnightblue" d="M656.01,-243.04C589.9,-240.26 483.46,-230.67 397.5,-199 319.43,-170.24 281.28,-163.03 247.5,-87 241.91,-74.41 240.21,-67.69 247.5,-56 259.17,-37.3 281.12,-26.15 300.65,-19.64"/>
<polygon fill="midnightblue" stroke="midnightblue" points="656.14,-246.55 666.27,-243.43 656.41,-239.56 656.14,-246.55"/>
</g>
<!-- Node18&#45;&gt;Node6 -->
<g id="edge29" class="edge">
<title>Node18&#45;&gt;Node6</title>
<path fill="none" stroke="midnightblue" d="M721.66,-225.33C727.9,-188.43 741.59,-107.44 746.06,-81.02"/>
<polygon fill="midnightblue" stroke="midnightblue" points="718.19,-224.82 719.98,-235.26 725.1,-225.98 718.19,-224.82"/>
</g>
<!-- Node18&#45;&gt;Node11 -->
<g id="edge39" class="edge">
<title>Node18&#45;&gt;Node11</title>
<path fill="none" stroke="midnightblue" d="M672.66,-232.57C629.47,-219.1 567.22,-192.06 538.5,-143 526.58,-122.64 543.16,-95.13 553.43,-81.26"/>
<polygon fill="midnightblue" stroke="midnightblue" points="671.8,-235.97 682.39,-235.48 673.81,-229.26 671.8,-235.97"/>
</g>
<!-- Node18&#45;&gt;Node12 -->
<g id="edge40" class="edge">
<title>Node18&#45;&gt;Node12</title>
<path fill="none" stroke="midnightblue" d="M780.73,-234.15C866.07,-219.13 1012.01,-187.47 1039.5,-143 1057.47,-113.93 1010.83,-92.24 977.88,-81.04"/>
<polygon fill="midnightblue" stroke="midnightblue" points="779.89,-230.74 770.63,-235.9 781.08,-237.64 779.89,-230.74"/>
</g>
<!-- Node18&#45;&gt;Node14 -->
<g id="edge35" class="edge">
<title>Node18&#45;&gt;Node14</title>
<path fill="none" stroke="midnightblue" d="M729.55,-226.64C744.75,-202.74 771.55,-160.63 783.03,-142.59"/>
<polygon fill="midnightblue" stroke="midnightblue" points="726.41,-225.05 723.99,-235.37 732.31,-228.81 726.41,-225.05"/>
</g>
<!-- Node18&#45;&gt;Node16 -->
<g id="edge38" class="edge">
<title>Node18&#45;&gt;Node16</title>
<path fill="none" stroke="midnightblue" d="M780.81,-237.76C924.62,-222.74 1269.95,-182.84 1303.5,-143 1330.76,-110.63 1270.73,-91.09 1222.43,-81.05"/>
<polygon fill="midnightblue" stroke="midnightblue" points="780.4,-234.29 770.82,-238.8 781.12,-241.25 780.4,-234.29"/>
</g>
<!-- Node18&#45;&gt;Node19 -->
<g id="edge30" class="edge">
<title>Node18&#45;&gt;Node19</title>
<path fill="none" stroke="midnightblue" d="M666.72,-233.41C616.83,-223.2 542.3,-207.96 496.14,-198.52"/>
<polygon fill="midnightblue" stroke="midnightblue" points="666.17,-236.87 676.67,-235.44 667.57,-230.01 666.17,-236.87"/>
</g>
<!-- Node18&#45;&gt;Node20 -->
<g id="edge36" class="edge">
<title>Node18&#45;&gt;Node20</title>
<path fill="none" stroke="midnightblue" d="M780.81,-239.76C926.72,-229.79 1282.36,-205.23 1336.5,-199 1340.98,-198.48 1345.64,-197.87 1350.29,-197.21"/>
<polygon fill="midnightblue" stroke="midnightblue" points="780.41,-236.28 770.67,-240.45 780.89,-243.26 780.41,-236.28"/>
</g>
<!-- Node19&#45;&gt;Node2 -->
<g id="edge31" class="edge">
<title>Node19&#45;&gt;Node2</title>
<path fill="none" stroke="midnightblue" d="M434.63,-173.1C421.68,-163.38 405.2,-151.03 394.28,-142.83"/>
<polygon fill="midnightblue" stroke="midnightblue" points="432.83,-176.12 442.93,-179.32 437.03,-170.52 432.83,-176.12"/>
</g>
<!-- Node19&#45;&gt;Node6 -->
<g id="edge32" class="edge">
<title>Node19&#45;&gt;Node6</title>
<path fill="none" stroke="midnightblue" d="M513.03,-183.39C556.88,-178.12 617.34,-166.87 665.5,-143 697.12,-127.33 726.52,-96.65 739.91,-81.46"/>
<polygon fill="midnightblue" stroke="midnightblue" points="512.37,-179.95 502.82,-184.55 513.15,-186.9 512.37,-179.95"/>
</g>
<!-- Node19&#45;&gt;Node10 -->
<g id="edge33" class="edge">
<title>Node19&#45;&gt;Node10</title>
<path fill="none" stroke="midnightblue" d="M396.62,-177.16C373.58,-170.48 348.16,-159.82 329.5,-143 310.52,-125.9 301.08,-95.89 297.41,-81.16"/>
<polygon fill="midnightblue" stroke="midnightblue" points="395.75,-180.56 406.32,-179.79 397.59,-173.8 395.75,-180.56"/>
</g>
<!-- Node19&#45;&gt;Node11 -->
<g id="edge34" class="edge">
<title>Node19&#45;&gt;Node11</title>
<path fill="none" stroke="midnightblue" d="M457.99,-169.14C461.34,-155.19 467.55,-136.36 478.5,-123 494.5,-103.47 520.15,-89.41 538.51,-81.16"/>
<polygon fill="midnightblue" stroke="midnightblue" points="454.53,-168.58 455.88,-179.09 461.38,-170.03 454.53,-168.58"/>
</g>
<!-- Node21&#45;&gt;Node5 -->
<g id="edge43" class="edge">
<title>Node21&#45;&gt;Node5</title>
<path fill="none" stroke="midnightblue" d="M626.46,-116.56C644.15,-100.32 665.58,-74.59 649.5,-56 615.07,-16.21 455.58,-10.86 379.75,-10.62"/>
<polygon fill="midnightblue" stroke="midnightblue" points="623.97,-114.09 618.74,-123.3 628.58,-119.36 623.97,-114.09"/>
</g>
<!-- Node21&#45;&gt;Node6 -->
<g id="edge42" class="edge">
<title>Node21&#45;&gt;Node6</title>
<path fill="none" stroke="midnightblue" d="M636.96,-119.48C664.15,-107.92 703.79,-91.08 727.48,-81.01"/>
<polygon fill="midnightblue" stroke="midnightblue" points="635.39,-116.34 627.56,-123.48 638.13,-122.78 635.39,-116.34"/>
</g>
<!-- Node21&#45;&gt;Node11 -->
<g id="edge44" class="edge">
<title>Node21&#45;&gt;Node11</title>
<path fill="none" stroke="midnightblue" d="M594.34,-115.34C585.52,-104.17 574.27,-89.93 567.22,-81.01"/>
<polygon fill="midnightblue" stroke="midnightblue" points="591.82,-117.8 600.77,-123.48 597.31,-113.46 591.82,-117.8"/>
</g>
<!-- Node21&#45;&gt;Node12 -->
<g id="edge45" class="edge">
<title>Node21&#45;&gt;Node12</title>
<path fill="none" stroke="midnightblue" d="M666.6,-121.69C732.61,-110.17 838.24,-91.74 899.73,-81.01"/>
<polygon fill="midnightblue" stroke="midnightblue" points="665.61,-118.31 656.36,-123.48 666.81,-125.2 665.61,-118.31"/>
</g>
</g>
</svg>
