<?xml version="1.0" encoding="UTF-8" standalone="no"?>
<!DOCTYPE svg PUBLIC "-//W3C//DTD SVG 1.1//EN"
 "http://www.w3.org/Graphics/SVG/1.1/DTD/svg11.dtd">
<!-- Generated by graphviz version 3.0.0 (20220413.0106)
 -->
<!-- Title: include/Token.hpp Pages: 1 -->
<svg width="1027pt" height="207pt"
 viewBox="0.00 0.00 1026.69 207.00" xmlns="http://www.w3.org/2000/svg" xmlns:xlink="http://www.w3.org/1999/xlink">
<g id="graph0" class="graph" transform="scale(1 1) rotate(0) translate(4 203)">
<title>include/Token.hpp</title>
<!-- Node1 -->
<g id="node1" class="node">
<title>Node1</title>
<g id="a_node1"><a xlink:title=" ">
<polygon fill="#bfbfbf" stroke="black" points="487.5,-179.5 487.5,-198.5 582.5,-198.5 582.5,-179.5 487.5,-179.5"/>
<text text-anchor="middle" x="535" y="-186.5" font-family="Helvetica,sans-Serif" font-size="10.00">include/Token.hpp</text>
</a>
</g>
</g>
<!-- Node2 -->
<g id="node2" class="node">
<title>Node2</title>
<g id="a_node2"><a xlink:href="../../d4/dcb/_a_s_t_8hpp.html" target="_top" xlink:title=" ">
<polygon fill="none" stroke="black" points="244,-123.5 244,-142.5 332,-142.5 332,-123.5 244,-123.5"/>
<text text-anchor="middle" x="288" y="-130.5" font-family="Helvetica,sans-Serif" font-size="10.00">include/AST.hpp</text>
</a>
</g>
</g>
<!-- Node1&#45;&gt;Node2 -->
<g id="edge1" class="edge">
<title>Node1&#45;&gt;Node2</title>
<path fill="none" stroke="midnightblue" d="M485.97,-177.28C439.3,-167.08 369.97,-151.92 326.95,-142.52"/>
<polygon fill="midnightblue" stroke="midnightblue" points="485.35,-180.73 495.86,-179.44 486.84,-173.89 485.35,-180.73"/>
</g>
<!-- Node3 -->
<g id="node3" class="node">
<title>Node3</title>
<g id="a_node3"><a xlink:href="../../d4/d0d/_a_s_t_factory_8hpp.html" target="_top" xlink:title=" ">
<polygon fill="none" stroke="black" points="114,-67.5 114,-86.5 234,-86.5 234,-67.5 114,-67.5"/>
<text text-anchor="middle" x="174" y="-74.5" font-family="Helvetica,sans-Serif" font-size="10.00">include/ASTFactory.hpp</text>
</a>
</g>
</g>
<!-- Node1&#45;&gt;Node3 -->
<g id="edge13" class="edge">
<title>Node1&#45;&gt;Node3</title>
<path fill="none" stroke="midnightblue" d="M477.1,-183.84C402.07,-177.68 275.98,-164.49 235,-143 209.51,-129.63 188.86,-101.38 179.47,-86.92"/>
<polygon fill="midnightblue" stroke="midnightblue" points="477.09,-187.35 487.34,-184.66 477.65,-180.37 477.09,-187.35"/>
</g>
<!-- Node5 -->
<g id="node5" class="node">
<title>Node5</title>
<g id="a_node5"><a xlink:href="../../df/d3f/_syntax_8hpp.html" target="_top" xlink:title=" ">
<polygon fill="none" stroke="black" points="380,-67.5 380,-86.5 478,-86.5 478,-67.5 380,-67.5"/>
<text text-anchor="middle" x="429" y="-74.5" font-family="Helvetica,sans-Serif" font-size="10.00">include/Syntax.hpp</text>
</a>
</g>
</g>
<!-- Node1&#45;&gt;Node5 -->
<g id="edge25" class="edge">
<title>Node1&#45;&gt;Node5</title>
<path fill="none" stroke="midnightblue" d="M519.48,-171.9C496.69,-148.25 454.97,-104.95 437.28,-86.59"/>
<polygon fill="midnightblue" stroke="midnightblue" points="517.22,-174.6 526.68,-179.37 522.26,-169.74 517.22,-174.6"/>
</g>
<!-- Node6 -->
<g id="node6" class="node">
<title>Node6</title>
<g id="a_node6"><a xlink:href="../../df/d0a/main_8cpp.html" target="_top" xlink:title=" ">
<polygon fill="none" stroke="black" points="619,-6 619,-25 675,-25 675,-6 619,-6"/>
<text text-anchor="middle" x="647" y="-13" font-family="Helvetica,sans-Serif" font-size="10.00">main.cpp</text>
</a>
</g>
</g>
<!-- Node1&#45;&gt;Node6 -->
<g id="edge27" class="edge">
<title>Node1&#45;&gt;Node6</title>
<path fill="none" stroke="midnightblue" d="M567.4,-175.28C601.28,-160 652.57,-130.83 675,-87 685.92,-65.66 667.16,-39.03 655.4,-25.42"/>
<polygon fill="midnightblue" stroke="midnightblue" points="565.7,-172.2 557.92,-179.39 568.49,-178.62 565.7,-172.2"/>
</g>
<!-- Node8 -->
<g id="node8" class="node">
<title>Node8</title>
<g id="a_node8"><a xlink:href="../../db/d42/_visitor_8hpp.html" target="_top" xlink:title=" ">
<polygon fill="none" stroke="black" points="0,-67.5 0,-86.5 96,-86.5 96,-67.5 0,-67.5"/>
<text text-anchor="middle" x="48" y="-74.5" font-family="Helvetica,sans-Serif" font-size="10.00">include/Visitor.hpp</text>
</a>
</g>
</g>
<!-- Node1&#45;&gt;Node8 -->
<g id="edge26" class="edge">
<title>Node1&#45;&gt;Node8</title>
<path fill="none" stroke="midnightblue" d="M476.95,-184.61C410.33,-179.68 298.25,-168.21 205,-143 152.03,-128.68 93.15,-100.86 64.91,-86.71"/>
<polygon fill="midnightblue" stroke="midnightblue" points="477.02,-188.12 487.24,-185.34 477.52,-181.14 477.02,-188.12"/>
</g>
<!-- Node11 -->
<g id="node11" class="node">
<title>Node11</title>
<g id="a_node11"><a xlink:href="../../d5/d24/_lexer_8hpp.html" target="_top" xlink:title=" ">
<polygon fill="none" stroke="black" points="722,-123.5 722,-142.5 814,-142.5 814,-123.5 722,-123.5"/>
<text text-anchor="middle" x="768" y="-130.5" font-family="Helvetica,sans-Serif" font-size="10.00">include/Lexer.hpp</text>
</a>
</g>
</g>
<!-- Node1&#45;&gt;Node11 -->
<g id="edge14" class="edge">
<title>Node1&#45;&gt;Node11</title>
<path fill="none" stroke="midnightblue" d="M581.8,-177.15C625.83,-166.95 690.85,-151.88 731.25,-142.52"/>
<polygon fill="midnightblue" stroke="midnightblue" points="580.87,-173.78 571.92,-179.44 582.45,-180.6 580.87,-173.78"/>
</g>
<!-- Node15 -->
<g id="node15" class="node">
<title>Node15</title>
<g id="a_node15"><a xlink:href="../../d8/d69/_pascal_tokens_8hpp.html" target="_top" xlink:title=" ">
<polygon fill="none" stroke="black" points="534.5,-67.5 534.5,-86.5 665.5,-86.5 665.5,-67.5 534.5,-67.5"/>
<text text-anchor="middle" x="600" y="-74.5" font-family="Helvetica,sans-Serif" font-size="10.00">include/PascalTokens.hpp</text>
</a>
</g>
</g>
<!-- Node1&#45;&gt;Node15 -->
<g id="edge21" class="edge">
<title>Node1&#45;&gt;Node15</title>
<path fill="none" stroke="midnightblue" d="M545.26,-170.64C559.38,-146.74 584.26,-104.63 594.92,-86.59"/>
<polygon fill="midnightblue" stroke="midnightblue" points="542.17,-168.98 540.1,-179.37 548.2,-172.54 542.17,-168.98"/>
</g>
<!-- Node16 -->
<g id="node16" class="node">
<title>Node16</title>
<g id="a_node16"><a xlink:href="../../d1/db6/_token_8cpp.html" target="_top" xlink:title=" ">
<polygon fill="none" stroke="black" points="832,-123.5 832,-142.5 910,-142.5 910,-123.5 832,-123.5"/>
<text text-anchor="middle" x="871" y="-130.5" font-family="Helvetica,sans-Serif" font-size="10.00">src/Token.cpp</text>
</a>
</g>
</g>
<!-- Node1&#45;&gt;Node16 -->
<g id="edge28" class="edge">
<title>Node1&#45;&gt;Node16</title>
<path fill="none" stroke="midnightblue" d="M592.83,-179.49C651.04,-170.8 743.37,-156.68 823,-143 825.92,-142.5 828.95,-141.96 831.99,-141.42"/>
<polygon fill="midnightblue" stroke="midnightblue" points="592.1,-176.06 582.72,-181 593.13,-182.99 592.1,-176.06"/>
</g>
<!-- Node2&#45;&gt;Node3 -->
<g id="edge2" class="edge">
<title>Node2&#45;&gt;Node3</title>
<path fill="none" stroke="midnightblue" d="M260.76,-119.1C239.46,-109.01 210.46,-95.27 191.98,-86.52"/>
<polygon fill="midnightblue" stroke="midnightblue" points="259.4,-122.33 269.94,-123.44 262.4,-116 259.4,-122.33"/>
</g>
<!-- Node2&#45;&gt;Node5 -->
<g id="edge4" class="edge">
<title>Node2&#45;&gt;Node5</title>
<path fill="none" stroke="midnightblue" d="M319.93,-119.77C346.41,-109.63 383.39,-95.47 406.76,-86.52"/>
<polygon fill="midnightblue" stroke="midnightblue" points="318.43,-116.6 310.34,-123.44 320.93,-123.14 318.43,-116.6"/>
</g>
<!-- Node7 -->
<g id="node7" class="node">
<title>Node7</title>
<g id="a_node7"><a xlink:href="../../dd/de9/test_syntax_8cpp.html" target="_top" xlink:title=" ">
<polygon fill="none" stroke="black" points="389,-6 389,-25 525,-25 525,-6 389,-6"/>
<text text-anchor="middle" x="457" y="-13" font-family="Helvetica,sans-Serif" font-size="10.00">tests/syntax/testSyntax.cpp</text>
</a>
</g>
</g>
<!-- Node2&#45;&gt;Node7 -->
<g id="edge12" class="edge">
<title>Node2&#45;&gt;Node7</title>
<path fill="none" stroke="midnightblue" d="M305.89,-116.86C322.35,-103.2 347.68,-82.87 371,-67 394.62,-50.92 423.52,-34.59 441.08,-25.01"/>
<polygon fill="midnightblue" stroke="midnightblue" points="303.57,-114.23 298.15,-123.33 308.06,-119.6 303.57,-114.23"/>
</g>
<!-- Node2&#45;&gt;Node8 -->
<g id="edge8" class="edge">
<title>Node2&#45;&gt;Node8</title>
<path fill="none" stroke="midnightblue" d="M234.85,-121.28C187.71,-111.08 120.49,-95.92 80.77,-86.52"/>
<polygon fill="midnightblue" stroke="midnightblue" points="234.37,-124.76 244.88,-123.44 235.84,-117.92 234.37,-124.76"/>
</g>
<!-- Node10 -->
<g id="node10" class="node">
<title>Node10</title>
<g id="a_node10"><a xlink:href="../../d0/d91/_a_s_t_8cpp.html" target="_top" xlink:title=" ">
<polygon fill="none" stroke="black" points="252.5,-67.5 252.5,-86.5 323.5,-86.5 323.5,-67.5 252.5,-67.5"/>
<text text-anchor="middle" x="288" y="-74.5" font-family="Helvetica,sans-Serif" font-size="10.00">src/AST.cpp</text>
</a>
</g>
</g>
<!-- Node2&#45;&gt;Node10 -->
<g id="edge11" class="edge">
<title>Node2&#45;&gt;Node10</title>
<path fill="none" stroke="midnightblue" d="M288,-112.8C288,-103.91 288,-93.78 288,-86.75"/>
<polygon fill="midnightblue" stroke="midnightblue" points="284.5,-113.08 288,-123.08 291.5,-113.08 284.5,-113.08"/>
</g>
<!-- Node4 -->
<g id="node4" class="node">
<title>Node4</title>
<g id="a_node4"><a xlink:href="../../d1/daa/_syntax_8cpp.html" target="_top" xlink:title=" ">
<polygon fill="none" stroke="black" points="198,-6 198,-25 278,-25 278,-6 198,-6"/>
<text text-anchor="middle" x="238" y="-13" font-family="Helvetica,sans-Serif" font-size="10.00">src/Syntax.cpp</text>
</a>
</g>
</g>
<!-- Node3&#45;&gt;Node4 -->
<g id="edge3" class="edge">
<title>Node3&#45;&gt;Node4</title>
<path fill="none" stroke="midnightblue" d="M190.51,-60.65C202.71,-49.31 218.87,-34.28 228.85,-25.01"/>
<polygon fill="midnightblue" stroke="midnightblue" points="188.11,-58.1 183.17,-67.48 192.88,-63.23 188.11,-58.1"/>
</g>
<!-- Node5&#45;&gt;Node4 -->
<g id="edge6" class="edge">
<title>Node5&#45;&gt;Node4</title>
<path fill="none" stroke="midnightblue" d="M391.7,-64.38C354.57,-52.82 298.48,-35.34 265.31,-25.01"/>
<polygon fill="midnightblue" stroke="midnightblue" points="391.05,-67.84 401.63,-67.48 393.13,-61.16 391.05,-67.84"/>
</g>
<!-- Node5&#45;&gt;Node6 -->
<g id="edge5" class="edge">
<title>Node5&#45;&gt;Node6</title>
<path fill="none" stroke="midnightblue" d="M469.94,-64.83C513.45,-52.95 581.1,-34.49 618.94,-24.16"/>
<polygon fill="midnightblue" stroke="midnightblue" points="468.96,-61.47 460.23,-67.48 470.8,-68.22 468.96,-61.47"/>
</g>
<!-- Node5&#45;&gt;Node7 -->
<g id="edge7" class="edge">
<title>Node5&#45;&gt;Node7</title>
<path fill="none" stroke="midnightblue" d="M437.31,-58.33C442.49,-47.33 448.92,-33.66 453,-25.01"/>
<polygon fill="midnightblue" stroke="midnightblue" points="434.1,-56.94 433.01,-67.48 440.44,-59.92 434.1,-56.94"/>
</g>
<!-- Node8&#45;&gt;Node2 -->
<g id="edge9" class="edge">
<title>Node8&#45;&gt;Node2</title>
<path fill="none" stroke="midnightblue" d="M100.95,-88.68C148.03,-98.87 215.26,-114.02 255.06,-123.44"/>
<polygon fill="midnightblue" stroke="midnightblue" points="101.44,-85.2 90.93,-86.52 99.97,-92.04 101.44,-85.2"/>
</g>
<!-- Node9 -->
<g id="node9" class="node">
<title>Node9</title>
<g id="a_node9"><a xlink:href="../../dc/d65/_visitor_8cpp.html" target="_top" xlink:title=" ">
<polygon fill="none" stroke="black" points="8.5,-6 8.5,-25 87.5,-25 87.5,-6 8.5,-6"/>
<text text-anchor="middle" x="48" y="-13" font-family="Helvetica,sans-Serif" font-size="10.00">src/Visitor.cpp</text>
</a>
</g>
</g>
<!-- Node8&#45;&gt;Node9 -->
<g id="edge10" class="edge">
<title>Node8&#45;&gt;Node9</title>
<path fill="none" stroke="midnightblue" d="M48,-57.32C48,-46.5 48,-33.4 48,-25.01"/>
<polygon fill="midnightblue" stroke="midnightblue" points="44.5,-57.48 48,-67.48 51.5,-57.48 44.5,-57.48"/>
</g>
<!-- Node11&#45;&gt;Node6 -->
<g id="edge15" class="edge">
<title>Node11&#45;&gt;Node6</title>
<path fill="none" stroke="midnightblue" d="M753.7,-115.31C741.89,-101.83 724.46,-82.6 708,-67 691.43,-51.3 670.7,-34.73 658.17,-25.02"/>
<polygon fill="midnightblue" stroke="midnightblue" points="751.39,-117.98 760.58,-123.24 756.67,-113.39 751.39,-117.98"/>
</g>
<!-- Node11&#45;&gt;Node7 -->
<g id="edge20" class="edge">
<title>Node11&#45;&gt;Node7</title>
<path fill="none" stroke="midnightblue" d="M711.38,-131.03C660.21,-128.01 584.2,-118.05 526,-87 497.29,-71.69 473.19,-40.27 462.67,-25.09"/>
<polygon fill="midnightblue" stroke="midnightblue" points="711.42,-134.54 721.59,-131.56 711.78,-127.55 711.42,-134.54"/>
</g>
<!-- Node12 -->
<g id="node12" class="node">
<title>Node12</title>
<g id="a_node12"><a xlink:href="../../dd/d5d/_lexer_8cpp.html" target="_top" xlink:title="Лексер">
<polygon fill="none" stroke="black" points="925.5,-67.5 925.5,-86.5 1000.5,-86.5 1000.5,-67.5 925.5,-67.5"/>
<text text-anchor="middle" x="963" y="-74.5" font-family="Helvetica,sans-Serif" font-size="10.00">src/Lexer.cpp</text>
</a>
</g>
</g>
<!-- Node11&#45;&gt;Node12 -->
<g id="edge16" class="edge">
<title>Node11&#45;&gt;Node12</title>
<path fill="none" stroke="midnightblue" d="M808.81,-120.7C845.61,-110.51 898.93,-95.74 932.25,-86.52"/>
<polygon fill="midnightblue" stroke="midnightblue" points="807.6,-117.4 798.9,-123.44 809.47,-124.15 807.6,-117.4"/>
</g>
<!-- Node13 -->
<g id="node13" class="node">
<title>Node13</title>
<g id="a_node13"><a xlink:href="../../dd/d68/lexer_test_rules_8hpp.html" target="_top" xlink:title=" ">
<polygon fill="none" stroke="black" points="760.5,-67.5 760.5,-86.5 907.5,-86.5 907.5,-67.5 760.5,-67.5"/>
<text text-anchor="middle" x="834" y="-74.5" font-family="Helvetica,sans-Serif" font-size="10.00">tests/lexer/lexerTestRules.hpp</text>
</a>
</g>
</g>
<!-- Node11&#45;&gt;Node13 -->
<g id="edge17" class="edge">
<title>Node11&#45;&gt;Node13</title>
<path fill="none" stroke="midnightblue" d="M786.55,-116.82C798.38,-107.15 813.29,-94.95 823.2,-86.83"/>
<polygon fill="midnightblue" stroke="midnightblue" points="784.13,-114.28 778.6,-123.32 788.56,-119.7 784.13,-114.28"/>
</g>
<!-- Node14 -->
<g id="node14" class="node">
<title>Node14</title>
<g id="a_node14"><a xlink:href="../../d0/d0f/test_lexer__1_8cpp.html" target="_top" xlink:title="Тесты для лексера">
<polygon fill="none" stroke="black" points="781.5,-0.5 781.5,-30.5 886.5,-30.5 886.5,-0.5 781.5,-0.5"/>
<text text-anchor="start" x="789.5" y="-18.5" font-family="Helvetica,sans-Serif" font-size="10.00">tests/lexer/testLexer</text>
<text text-anchor="middle" x="834" y="-7.5" font-family="Helvetica,sans-Serif" font-size="10.00">_1.cpp</text>
</a>
</g>
</g>
<!-- Node11&#45;&gt;Node14 -->
<g id="edge19" class="edge">
<title>Node11&#45;&gt;Node14</title>
<path fill="none" stroke="midnightblue" d="M824.29,-122.44C894.85,-110.33 1007.01,-90.6 1010,-87 1046.82,-42.7 951.06,-26.02 886.77,-19.9"/>
<polygon fill="midnightblue" stroke="midnightblue" points="823.46,-119.03 814.2,-124.17 824.64,-125.93 823.46,-119.03"/>
</g>
<!-- Node13&#45;&gt;Node14 -->
<g id="edge18" class="edge">
<title>Node13&#45;&gt;Node14</title>
<path fill="none" stroke="midnightblue" d="M834,-57.23C834,-48.59 834,-38.5 834,-30.52"/>
<polygon fill="midnightblue" stroke="midnightblue" points="830.5,-57.48 834,-67.48 837.5,-57.48 830.5,-57.48"/>
</g>
<!-- Node15&#45;&gt;Node6 -->
<g id="edge22" class="edge">
<title>Node15&#45;&gt;Node6</title>
<path fill="none" stroke="midnightblue" d="M613.16,-59.34C621.98,-48.17 633.23,-33.93 640.28,-25.01"/>
<polygon fill="midnightblue" stroke="midnightblue" points="610.19,-57.46 606.73,-67.48 615.68,-61.8 610.19,-57.46"/>
</g>
<!-- Node15&#45;&gt;Node7 -->
<g id="edge24" class="edge">
<title>Node15&#45;&gt;Node7</title>
<path fill="none" stroke="midnightblue" d="M570.27,-63.63C542.49,-52.07 501.75,-35.12 477.45,-25.01"/>
<polygon fill="midnightblue" stroke="midnightblue" points="568.93,-66.86 579.51,-67.48 571.62,-60.4 568.93,-66.86"/>
</g>
<!-- Node15&#45;&gt;Node14 -->
<g id="edge23" class="edge">
<title>Node15&#45;&gt;Node14</title>
<path fill="none" stroke="midnightblue" d="M643.5,-64.94C682.41,-55.05 739.55,-40.52 781.09,-29.95"/>
<polygon fill="midnightblue" stroke="midnightblue" points="642.36,-61.62 633.53,-67.48 644.08,-68.4 642.36,-61.62"/>
</g>
</g>
</svg>
