<?xml version="1.0" encoding="UTF-8" standalone="no"?>
<!DOCTYPE svg PUBLIC "-//W3C//DTD SVG 1.1//EN"
 "http://www.w3.org/Graphics/SVG/1.1/DTD/svg11.dtd">
<!-- Generated by graphviz version 3.0.0 (20220413.0106)
 -->
<!-- Title: include/Token.hpp Pages: 1 -->
<svg width="1385pt" height="319pt"
 viewBox="0.00 0.00 1385.00 319.00" xmlns="http://www.w3.org/2000/svg" xmlns:xlink="http://www.w3.org/1999/xlink">
<g id="graph0" class="graph" transform="scale(1 1) rotate(0) translate(4 315)">
<title>include/Token.hpp</title>
<!-- Node1 -->
<g id="node1" class="node">
<title>Node1</title>
<g id="a_node1"><a xlink:title="Классы для работы с токенами анализатора">
<polygon fill="#bfbfbf" stroke="black" points="616,-291.5 616,-310.5 711,-310.5 711,-291.5 616,-291.5"/>
<text text-anchor="middle" x="663.5" y="-298.5" font-family="Helvetica,sans-Serif" font-size="10.00">include/Token.hpp</text>
</a>
</g>
</g>
<!-- Node2 -->
<g id="node2" class="node">
<title>Node2</title>
<g id="a_node2"><a xlink:href="../../d4/dcb/_a_s_t_8hpp.html" target="_top" xlink:title="Узлы ДАС">
<polygon fill="none" stroke="black" points="133.5,-179.5 133.5,-198.5 221.5,-198.5 221.5,-179.5 133.5,-179.5"/>
<text text-anchor="middle" x="177.5" y="-186.5" font-family="Helvetica,sans-Serif" font-size="10.00">include/AST.hpp</text>
</a>
</g>
</g>
<!-- Node1&#45;&gt;Node2 -->
<g id="edge1" class="edge">
<title>Node1&#45;&gt;Node2</title>
<path fill="none" stroke="midnightblue" d="M605.77,-299.03C504.3,-296.5 298.74,-287.4 235.5,-255 210.19,-242.03 190.78,-213.06 182.25,-198.58"/>
<polygon fill="midnightblue" stroke="midnightblue" points="605.76,-302.53 615.84,-299.27 605.93,-295.53 605.76,-302.53"/>
</g>
<!-- Node3 -->
<g id="node3" class="node">
<title>Node3</title>
<g id="a_node3"><a xlink:href="../../db/d42/_visitor_8hpp.html" target="_top" xlink:title="Посетители для обхода ДАС">
<polygon fill="none" stroke="black" points="241.5,-123.5 241.5,-142.5 337.5,-142.5 337.5,-123.5 241.5,-123.5"/>
<text text-anchor="middle" x="289.5" y="-130.5" font-family="Helvetica,sans-Serif" font-size="10.00">include/Visitor.hpp</text>
</a>
</g>
</g>
<!-- Node1&#45;&gt;Node3 -->
<g id="edge53" class="edge">
<title>Node1&#45;&gt;Node3</title>
<path fill="none" stroke="midnightblue" d="M605.69,-297.59C501.41,-292.65 290.54,-279.7 268.5,-255 239.4,-222.39 270.37,-164.42 283.87,-142.61"/>
<polygon fill="midnightblue" stroke="midnightblue" points="605.59,-301.09 615.74,-298.06 605.92,-294.1 605.59,-301.09"/>
</g>
<!-- Node4 -->
<g id="node4" class="node">
<title>Node4</title>
<g id="a_node4"><a xlink:href="../../db/dfd/_pascal_rules_8hpp.html" target="_top" xlink:title="Правила языка Паскаль">
<polygon fill="none" stroke="black" points="690,-67.5 690,-86.5 813,-86.5 813,-67.5 690,-67.5"/>
<text text-anchor="middle" x="751.5" y="-74.5" font-family="Helvetica,sans-Serif" font-size="10.00">include/PascalRules.hpp</text>
</a>
</g>
</g>
<!-- Node1&#45;&gt;Node4 -->
<g id="edge42" class="edge">
<title>Node1&#45;&gt;Node4</title>
<path fill="none" stroke="midnightblue" d="M714.38,-288.82C760.09,-275.77 824.48,-249.25 854.5,-199 882.51,-152.11 805.58,-105.37 769.28,-86.6"/>
<polygon fill="midnightblue" stroke="midnightblue" points="713.37,-285.46 704.65,-291.47 715.21,-292.22 713.37,-285.46"/>
</g>
<!-- Node11 -->
<g id="node11" class="node">
<title>Node11</title>
<g id="a_node11"><a xlink:href="../../d4/dfc/_a_s_t_factory_8cpp.html" target="_top" xlink:title=" ">
<polygon fill="none" stroke="black" points="356,-123.5 356,-142.5 459,-142.5 459,-123.5 356,-123.5"/>
<text text-anchor="middle" x="407.5" y="-130.5" font-family="Helvetica,sans-Serif" font-size="10.00">src/ASTFactory.cpp</text>
</a>
</g>
</g>
<!-- Node1&#45;&gt;Node11 -->
<g id="edge54" class="edge">
<title>Node1&#45;&gt;Node11</title>
<path fill="none" stroke="midnightblue" d="M605.61,-297.31C540.39,-290.8 437.15,-269.25 388.5,-199 376.32,-181.41 391.06,-155.98 400.6,-142.74"/>
<polygon fill="midnightblue" stroke="midnightblue" points="605.46,-300.81 615.74,-298.23 606.1,-293.83 605.46,-300.81"/>
</g>
<!-- Node12 -->
<g id="node12" class="node">
<title>Node12</title>
<g id="a_node12"><a xlink:href="../../d4/d0d/_a_s_t_factory_8hpp.html" target="_top" xlink:title="Простая Фабрика для AST&#45;узлов">
<polygon fill="none" stroke="black" points="397.5,-179.5 397.5,-198.5 517.5,-198.5 517.5,-179.5 397.5,-179.5"/>
<text text-anchor="middle" x="457.5" y="-186.5" font-family="Helvetica,sans-Serif" font-size="10.00">include/ASTFactory.hpp</text>
</a>
</g>
</g>
<!-- Node1&#45;&gt;Node12 -->
<g id="edge17" class="edge">
<title>Node1&#45;&gt;Node12</title>
<path fill="none" stroke="midnightblue" d="M638.39,-286.59C595.5,-263.69 509.32,-217.67 473.59,-198.59"/>
<polygon fill="midnightblue" stroke="midnightblue" points="636.87,-289.75 647.34,-291.37 640.16,-283.57 636.87,-289.75"/>
</g>
<!-- Node14 -->
<g id="node14" class="node">
<title>Node14</title>
<g id="a_node14"><a xlink:href="../../d8/de6/_a_s_tclasses_8hpp.html" target="_top" xlink:title="Базовые классы ДАС: абстрактный посетитель и абстрактный узел">
<polygon fill="none" stroke="black" points="277.5,-235.5 277.5,-254.5 399.5,-254.5 399.5,-235.5 277.5,-235.5"/>
<text text-anchor="middle" x="338.5" y="-242.5" font-family="Helvetica,sans-Serif" font-size="10.00">include/ASTclasses.hpp</text>
</a>
</g>
</g>
<!-- Node1&#45;&gt;Node14 -->
<g id="edge20" class="edge">
<title>Node1&#45;&gt;Node14</title>
<path fill="none" stroke="midnightblue" d="M605.99,-290.44C544.68,-280.26 448.51,-264.28 389.72,-254.51"/>
<polygon fill="midnightblue" stroke="midnightblue" points="605.46,-293.9 615.89,-292.09 606.6,-287 605.46,-293.9"/>
</g>
<!-- Node15 -->
<g id="node15" class="node">
<title>Node15</title>
<g id="a_node15"><a xlink:href="../../df/d3f/_syntax_8hpp.html" target="_top" xlink:title="Синтаксический анализатор">
<polygon fill="none" stroke="black" points="535.5,-179.5 535.5,-198.5 633.5,-198.5 633.5,-179.5 535.5,-179.5"/>
<text text-anchor="middle" x="584.5" y="-186.5" font-family="Helvetica,sans-Serif" font-size="10.00">include/Syntax.hpp</text>
</a>
</g>
</g>
<!-- Node1&#45;&gt;Node15 -->
<g id="edge52" class="edge">
<title>Node1&#45;&gt;Node15</title>
<path fill="none" stroke="midnightblue" d="M651.05,-283.16C644.84,-274.73 637.24,-264.35 630.5,-255 616.12,-235.03 599.5,-211.41 590.7,-198.86"/>
<polygon fill="midnightblue" stroke="midnightblue" points="648.38,-285.44 657.13,-291.4 654.01,-281.28 648.38,-285.44"/>
</g>
<!-- Node16 -->
<g id="node16" class="node">
<title>Node16</title>
<g id="a_node16"><a xlink:href="../../d0/d7c/_analyze_8hpp.html" target="_top" xlink:title="Функции анализа кода на языке Pascal.">
<polygon fill="none" stroke="black" points="639.5,-235.5 639.5,-254.5 741.5,-254.5 741.5,-235.5 639.5,-235.5"/>
<text text-anchor="middle" x="690.5" y="-242.5" font-family="Helvetica,sans-Serif" font-size="10.00">include/Analyze.hpp</text>
</a>
</g>
</g>
<!-- Node1&#45;&gt;Node16 -->
<g id="edge30" class="edge">
<title>Node1&#45;&gt;Node16</title>
<path fill="none" stroke="midnightblue" d="M672.51,-281.98C677.09,-272.82 682.45,-262.09 686.12,-254.75"/>
<polygon fill="midnightblue" stroke="midnightblue" points="669.3,-280.57 667.96,-291.08 675.56,-283.7 669.3,-280.57"/>
</g>
<!-- Node19 -->
<g id="node19" class="node">
<title>Node19</title>
<g id="a_node19"><a xlink:href="../../d5/d24/_lexer_8hpp.html" target="_top" xlink:title="Лексер">
<polygon fill="none" stroke="black" points="1125.5,-123.5 1125.5,-142.5 1217.5,-142.5 1217.5,-123.5 1125.5,-123.5"/>
<text text-anchor="middle" x="1171.5" y="-130.5" font-family="Helvetica,sans-Serif" font-size="10.00">include/Lexer.hpp</text>
</a>
</g>
</g>
<!-- Node1&#45;&gt;Node19 -->
<g id="edge34" class="edge">
<title>Node1&#45;&gt;Node19</title>
<path fill="none" stroke="midnightblue" d="M721.31,-296.95C780.69,-292.45 875.11,-281.47 952.5,-255 1037.17,-226.04 1127.38,-165.34 1159.39,-142.73"/>
<polygon fill="midnightblue" stroke="midnightblue" points="720.73,-293.48 711.01,-297.69 721.23,-300.46 720.73,-293.48"/>
</g>
<!-- Node22 -->
<g id="node22" class="node">
<title>Node22</title>
<g id="a_node22"><a xlink:href="../../da/dbf/_synt_exp_8hpp.html" target="_top" xlink:title="Исключения анализатора">
<polygon fill="none" stroke="black" points="901.5,-179.5 901.5,-198.5 1005.5,-198.5 1005.5,-179.5 901.5,-179.5"/>
<text text-anchor="middle" x="953.5" y="-186.5" font-family="Helvetica,sans-Serif" font-size="10.00">include/SyntExp.hpp</text>
</a>
</g>
</g>
<!-- Node1&#45;&gt;Node22 -->
<g id="edge43" class="edge">
<title>Node1&#45;&gt;Node22</title>
<path fill="none" stroke="midnightblue" d="M721.21,-297.48C768.34,-293.35 835.44,-282.64 887.5,-255 913.92,-240.97 936.79,-213.02 947.32,-198.78"/>
<polygon fill="midnightblue" stroke="midnightblue" points="720.86,-293.99 711.17,-298.28 721.42,-300.97 720.86,-293.99"/>
</g>
<!-- Node23 -->
<g id="node23" class="node">
<title>Node23</title>
<g id="a_node23"><a xlink:href="../../d0/d66/_synt_exp_8cpp.html" target="_top" xlink:title=" ">
<polygon fill="none" stroke="black" points="1021.5,-123.5 1021.5,-142.5 1107.5,-142.5 1107.5,-123.5 1021.5,-123.5"/>
<text text-anchor="middle" x="1064.5" y="-130.5" font-family="Helvetica,sans-Serif" font-size="10.00">src/SyntExp.cpp</text>
</a>
</g>
</g>
<!-- Node1&#45;&gt;Node23 -->
<g id="edge55" class="edge">
<title>Node1&#45;&gt;Node23</title>
<path fill="none" stroke="midnightblue" d="M721.45,-295.13C773.25,-289.5 850.61,-277.88 914.5,-255 962.46,-237.82 975.96,-232.31 1014.5,-199 1034.1,-182.06 1051.1,-156.35 1059.3,-142.91"/>
<polygon fill="midnightblue" stroke="midnightblue" points="721.02,-291.66 711.44,-296.18 721.75,-298.62 721.02,-291.66"/>
</g>
<!-- Node24 -->
<g id="node24" class="node">
<title>Node24</title>
<g id="a_node24"><a xlink:href="../../d1/db6/_token_8cpp.html" target="_top" xlink:title=" ">
<polygon fill="none" stroke="black" points="1099.5,-235.5 1099.5,-254.5 1177.5,-254.5 1177.5,-235.5 1099.5,-235.5"/>
<text text-anchor="middle" x="1138.5" y="-242.5" font-family="Helvetica,sans-Serif" font-size="10.00">src/Token.cpp</text>
</a>
</g>
</g>
<!-- Node1&#45;&gt;Node24 -->
<g id="edge56" class="edge">
<title>Node1&#45;&gt;Node24</title>
<path fill="none" stroke="midnightblue" d="M721.12,-295C802.5,-287.67 955.66,-272.93 1085.5,-255 1090.03,-254.37 1094.77,-253.66 1099.47,-252.91"/>
<polygon fill="midnightblue" stroke="midnightblue" points="720.73,-291.52 711.08,-295.89 721.35,-298.49 720.73,-291.52"/>
</g>
<!-- Node2&#45;&gt;Node3 -->
<g id="edge2" class="edge">
<title>Node2&#45;&gt;Node3</title>
<path fill="none" stroke="midnightblue" d="M204.75,-174.86C225.52,-164.85 253.52,-151.35 271.55,-142.65"/>
<polygon fill="midnightblue" stroke="midnightblue" points="202.98,-171.83 195.49,-179.32 206.02,-178.13 202.98,-171.83"/>
</g>
<!-- Node5 -->
<g id="node5" class="node">
<title>Node5</title>
<g id="a_node5"><a xlink:href="../../d3/d0a/_analyze_8cpp.html" target="_top" xlink:title="Функции анализа кода на языке Pascal &#45; Реализация">
<polygon fill="none" stroke="black" points="619,-6 619,-25 704,-25 704,-6 619,-6"/>
<text text-anchor="middle" x="661.5" y="-13" font-family="Helvetica,sans-Serif" font-size="10.00">src/Analyze.cpp</text>
</a>
</g>
</g>
<!-- Node2&#45;&gt;Node5 -->
<g id="edge13" class="edge">
<title>Node2&#45;&gt;Node5</title>
<path fill="none" stroke="midnightblue" d="M167.49,-170.19C154.28,-144.01 135.53,-95.22 161.5,-67 194.11,-31.56 545.85,-38.04 593.5,-31 604.01,-29.45 615.33,-27.25 625.66,-25.03"/>
<polygon fill="midnightblue" stroke="midnightblue" points="164.56,-172.13 172.35,-179.31 170.74,-168.84 164.56,-172.13"/>
</g>
<!-- Node7 -->
<g id="node7" class="node">
<title>Node7</title>
<g id="a_node7"><a xlink:href="../../db/df9/test_semantic_8cpp.html" target="_top" xlink:title=" ">
<polygon fill="none" stroke="black" points="424.5,-6 424.5,-25 584.5,-25 584.5,-6 424.5,-6"/>
<text text-anchor="middle" x="504.5" y="-13" font-family="Helvetica,sans-Serif" font-size="10.00">tests/semantic/testSemantic.cpp</text>
</a>
</g>
</g>
<!-- Node2&#45;&gt;Node7 -->
<g id="edge15" class="edge">
<title>Node2&#45;&gt;Node7</title>
<path fill="none" stroke="midnightblue" d="M152.32,-174C141.31,-166.4 129.54,-155.91 123.5,-143 109.17,-112.41 101.24,-92.41 123.5,-67 142.99,-44.76 318.14,-29.11 424.05,-21.58"/>
<polygon fill="midnightblue" stroke="midnightblue" points="150.56,-177.03 160.87,-179.46 154.33,-171.13 150.56,-177.03"/>
</g>
<!-- Node8 -->
<g id="node8" class="node">
<title>Node8</title>
<g id="a_node8"><a xlink:href="../../dd/de9/test_syntax_8cpp.html" target="_top" xlink:title=" ">
<polygon fill="none" stroke="black" points="773.5,-6 773.5,-25 909.5,-25 909.5,-6 773.5,-6"/>
<text text-anchor="middle" x="841.5" y="-13" font-family="Helvetica,sans-Serif" font-size="10.00">tests/syntax/testSyntax.cpp</text>
</a>
</g>
</g>
<!-- Node2&#45;&gt;Node8 -->
<g id="edge16" class="edge">
<title>Node2&#45;&gt;Node8</title>
<path fill="none" stroke="midnightblue" d="M177.65,-169.32C178.99,-141.98 185.89,-91.63 217.5,-67 261.08,-33.03 658.48,-36.11 713.5,-31 732.98,-29.19 754.1,-26.92 773.46,-24.72"/>
<polygon fill="midnightblue" stroke="midnightblue" points="174.15,-169.4 177.36,-179.49 181.15,-169.59 174.15,-169.4"/>
</g>
<!-- Node9 -->
<g id="node9" class="node">
<title>Node9</title>
<g id="a_node9"><a xlink:href="../../dc/d65/_visitor_8cpp.html" target="_top" xlink:title=" ">
<polygon fill="none" stroke="black" points="227,-67.5 227,-86.5 306,-86.5 306,-67.5 227,-67.5"/>
<text text-anchor="middle" x="266.5" y="-74.5" font-family="Helvetica,sans-Serif" font-size="10.00">src/Visitor.cpp</text>
</a>
</g>
</g>
<!-- Node2&#45;&gt;Node9 -->
<g id="edge14" class="edge">
<title>Node2&#45;&gt;Node9</title>
<path fill="none" stroke="midnightblue" d="M190.78,-171.59C209.97,-147.87 244.76,-104.87 259.55,-86.59"/>
<polygon fill="midnightblue" stroke="midnightblue" points="188.05,-169.39 184.48,-179.37 193.49,-173.8 188.05,-169.39"/>
</g>
<!-- Node10 -->
<g id="node10" class="node">
<title>Node10</title>
<g id="a_node10"><a xlink:href="../../d0/d91/_a_s_t_8cpp.html" target="_top" xlink:title=" ">
<polygon fill="none" stroke="black" points="0,-123.5 0,-142.5 71,-142.5 71,-123.5 0,-123.5"/>
<text text-anchor="middle" x="35.5" y="-130.5" font-family="Helvetica,sans-Serif" font-size="10.00">src/AST.cpp</text>
</a>
</g>
</g>
<!-- Node2&#45;&gt;Node10 -->
<g id="edge11" class="edge">
<title>Node2&#45;&gt;Node10</title>
<path fill="none" stroke="midnightblue" d="M145.34,-175.77C118.67,-165.63 81.43,-151.47 57.9,-142.52"/>
<polygon fill="midnightblue" stroke="midnightblue" points="144.41,-179.16 155,-179.44 146.9,-172.62 144.41,-179.16"/>
</g>
<!-- Node2&#45;&gt;Node11 -->
<g id="edge12" class="edge">
<title>Node2&#45;&gt;Node11</title>
<path fill="none" stroke="midnightblue" d="M223.7,-177.15C267.16,-166.95 331.34,-151.88 371.23,-142.52"/>
<polygon fill="midnightblue" stroke="midnightblue" points="222.88,-173.75 213.94,-179.44 224.48,-180.57 222.88,-173.75"/>
</g>
<!-- Node3&#45;&gt;Node4 -->
<g id="edge3" class="edge">
<title>Node3&#45;&gt;Node4</title>
<path fill="none" stroke="midnightblue" d="M347.2,-123.04C347.3,-123.03 347.4,-123.01 347.5,-123 468.52,-106.88 610.47,-92 689.8,-84.04"/>
<polygon fill="midnightblue" stroke="midnightblue" points="347.01,-119.53 337.58,-124.38 347.97,-126.47 347.01,-119.53"/>
</g>
<!-- Node3&#45;&gt;Node5 -->
<g id="edge8" class="edge">
<title>Node3&#45;&gt;Node5</title>
<path fill="none" stroke="midnightblue" d="M327.09,-120.33C401.96,-97.08 568.13,-45.49 633.91,-25.06"/>
<polygon fill="midnightblue" stroke="midnightblue" points="325.67,-117.11 317.16,-123.41 327.74,-123.79 325.67,-117.11"/>
</g>
<!-- Node3&#45;&gt;Node7 -->
<g id="edge10" class="edge">
<title>Node3&#45;&gt;Node7</title>
<path fill="none" stroke="midnightblue" d="M314.7,-118.46C359.39,-94.45 451.34,-45.06 488.45,-25.12"/>
<polygon fill="midnightblue" stroke="midnightblue" points="312.81,-115.5 305.66,-123.32 316.13,-121.67 312.81,-115.5"/>
</g>
<!-- Node3&#45;&gt;Node9 -->
<g id="edge9" class="edge">
<title>Node3&#45;&gt;Node9</title>
<path fill="none" stroke="midnightblue" d="M281.7,-113.69C277.82,-104.59 273.32,-94.01 270.23,-86.75"/>
<polygon fill="midnightblue" stroke="midnightblue" points="278.56,-115.25 285.7,-123.08 285,-112.51 278.56,-115.25"/>
</g>
<!-- Node4&#45;&gt;Node5 -->
<g id="edge4" class="edge">
<title>Node4&#45;&gt;Node5</title>
<path fill="none" stroke="midnightblue" d="M730.22,-61.93C712.87,-50.46 688.93,-34.63 674.37,-25.01"/>
<polygon fill="midnightblue" stroke="midnightblue" points="728.33,-64.88 738.61,-67.48 732.19,-59.04 728.33,-64.88"/>
</g>
<!-- Node6 -->
<g id="node6" class="node">
<title>Node6</title>
<g id="a_node6"><a xlink:href="../../d0/d0f/test_lexer__1_8cpp.html" target="_top" xlink:title="Тесты для лексера">
<polygon fill="none" stroke="black" points="1038,-0.5 1038,-30.5 1143,-30.5 1143,-0.5 1038,-0.5"/>
<text text-anchor="start" x="1046" y="-18.5" font-family="Helvetica,sans-Serif" font-size="10.00">tests/lexer/testLexer</text>
<text text-anchor="middle" x="1090.5" y="-7.5" font-family="Helvetica,sans-Serif" font-size="10.00">_1.cpp</text>
</a>
</g>
</g>
<!-- Node4&#45;&gt;Node6 -->
<g id="edge5" class="edge">
<title>Node4&#45;&gt;Node6</title>
<path fill="none" stroke="midnightblue" d="M810.03,-65.73C874.17,-54.47 976.12,-36.57 1037.84,-25.74"/>
<polygon fill="midnightblue" stroke="midnightblue" points="809.31,-62.3 800.07,-67.48 810.52,-69.19 809.31,-62.3"/>
</g>
<!-- Node4&#45;&gt;Node7 -->
<g id="edge6" class="edge">
<title>Node4&#45;&gt;Node7</title>
<path fill="none" stroke="midnightblue" d="M706.31,-65.11C658.37,-53.57 583.63,-35.56 539.82,-25.01"/>
<polygon fill="midnightblue" stroke="midnightblue" points="705.57,-68.54 716.11,-67.48 707.21,-61.73 705.57,-68.54"/>
</g>
<!-- Node4&#45;&gt;Node8 -->
<g id="edge7" class="edge">
<title>Node4&#45;&gt;Node8</title>
<path fill="none" stroke="midnightblue" d="M772.78,-61.93C790.13,-50.46 814.07,-34.63 828.63,-25.01"/>
<polygon fill="midnightblue" stroke="midnightblue" points="770.81,-59.04 764.39,-67.48 774.67,-64.88 770.81,-59.04"/>
</g>
<!-- Node12&#45;&gt;Node11 -->
<g id="edge18" class="edge">
<title>Node12&#45;&gt;Node11</title>
<path fill="none" stroke="midnightblue" d="M442.42,-171.72C433.61,-162.2 422.83,-150.56 415.6,-142.75"/>
<polygon fill="midnightblue" stroke="midnightblue" points="439.88,-174.12 449.24,-179.08 445.02,-169.37 439.88,-174.12"/>
</g>
<!-- Node13 -->
<g id="node13" class="node">
<title>Node13</title>
<g id="a_node13"><a xlink:href="../../d1/daa/_syntax_8cpp.html" target="_top" xlink:title=" ">
<polygon fill="none" stroke="black" points="515.5,-123.5 515.5,-142.5 595.5,-142.5 595.5,-123.5 515.5,-123.5"/>
<text text-anchor="middle" x="555.5" y="-130.5" font-family="Helvetica,sans-Serif" font-size="10.00">src/Syntax.cpp</text>
</a>
</g>
</g>
<!-- Node12&#45;&gt;Node13 -->
<g id="edge19" class="edge">
<title>Node12&#45;&gt;Node13</title>
<path fill="none" stroke="midnightblue" d="M482.09,-174.45C500.18,-164.48 524.23,-151.23 539.79,-142.65"/>
<polygon fill="midnightblue" stroke="midnightblue" points="480.31,-171.43 473.25,-179.32 483.69,-177.56 480.31,-171.43"/>
</g>
<!-- Node14&#45;&gt;Node2 -->
<g id="edge21" class="edge">
<title>Node14&#45;&gt;Node2</title>
<path fill="none" stroke="midnightblue" d="M303.24,-232.17C272.92,-222 229.93,-207.59 202.89,-198.52"/>
<polygon fill="midnightblue" stroke="midnightblue" points="302.4,-235.58 312.99,-235.44 304.62,-228.95 302.4,-235.58"/>
</g>
<!-- Node14&#45;&gt;Node3 -->
<g id="edge28" class="edge">
<title>Node14&#45;&gt;Node3</title>
<path fill="none" stroke="midnightblue" d="M330.12,-226.35C326.22,-218.08 321.56,-208.06 317.5,-199 308.55,-179.04 298.51,-155.41 293.22,-142.87"/>
<polygon fill="midnightblue" stroke="midnightblue" points="326.96,-227.86 334.4,-235.41 333.29,-224.87 326.96,-227.86"/>
</g>
<!-- Node14&#45;&gt;Node11 -->
<g id="edge29" class="edge">
<title>Node14&#45;&gt;Node11</title>
<path fill="none" stroke="midnightblue" d="M340.4,-225.23C342.46,-211.57 346.74,-193.08 355.5,-179 365.09,-163.59 381.62,-150.62 393.47,-142.62"/>
<polygon fill="midnightblue" stroke="midnightblue" points="336.9,-225.01 339.13,-235.36 343.84,-225.88 336.9,-225.01"/>
</g>
<!-- Node14&#45;&gt;Node12 -->
<g id="edge22" class="edge">
<title>Node14&#45;&gt;Node12</title>
<path fill="none" stroke="midnightblue" d="M366.64,-231.23C388.9,-221.13 419.36,-207.31 438.73,-198.52"/>
<polygon fill="midnightblue" stroke="midnightblue" points="365.02,-228.12 357.36,-235.44 367.91,-234.5 365.02,-228.12"/>
</g>
<!-- Node14&#45;&gt;Node15 -->
<g id="edge23" class="edge">
<title>Node14&#45;&gt;Node15</title>
<path fill="none" stroke="midnightblue" d="M387.33,-233.28C433.82,-223.08 502.86,-207.92 545.7,-198.52"/>
<polygon fill="midnightblue" stroke="midnightblue" points="386.5,-229.88 377.48,-235.44 388,-236.72 386.5,-229.88"/>
</g>
<!-- Node15&#45;&gt;Node5 -->
<g id="edge24" class="edge">
<title>Node15&#45;&gt;Node5</title>
<path fill="none" stroke="midnightblue" d="M592.67,-169.81C609.14,-133.13 645.76,-51.55 657.67,-25.02"/>
<polygon fill="midnightblue" stroke="midnightblue" points="589.33,-168.7 588.42,-179.26 595.71,-171.57 589.33,-168.7"/>
</g>
<!-- Node15&#45;&gt;Node7 -->
<g id="edge26" class="edge">
<title>Node15&#45;&gt;Node7</title>
<path fill="none" stroke="midnightblue" d="M546.23,-175.43C531.12,-168.4 515.3,-157.95 506.5,-143 483.78,-104.38 496,-46.98 501.9,-25.26"/>
<polygon fill="midnightblue" stroke="midnightblue" points="544.91,-178.67 555.48,-179.38 547.66,-172.24 544.91,-178.67"/>
</g>
<!-- Node15&#45;&gt;Node8 -->
<g id="edge27" class="edge">
<title>Node15&#45;&gt;Node8</title>
<path fill="none" stroke="midnightblue" d="M643.74,-178.05C697.93,-165.85 776.44,-139.9 822.5,-87 837.98,-69.22 841,-40.06 841.49,-25.44"/>
<polygon fill="midnightblue" stroke="midnightblue" points="642.96,-174.63 633.92,-180.16 644.44,-181.48 642.96,-174.63"/>
</g>
<!-- Node15&#45;&gt;Node13 -->
<g id="edge25" class="edge">
<title>Node15&#45;&gt;Node13</title>
<path fill="none" stroke="midnightblue" d="M574.82,-169.98C569.9,-160.82 564.14,-150.09 560.2,-142.75"/>
<polygon fill="midnightblue" stroke="midnightblue" points="571.9,-171.93 579.71,-179.08 578.06,-168.62 571.9,-171.93"/>
</g>
<!-- Node16&#45;&gt;Node5 -->
<g id="edge33" class="edge">
<title>Node16&#45;&gt;Node5</title>
<path fill="none" stroke="midnightblue" d="M685.9,-225.56C684.01,-217.46 681.93,-207.8 680.5,-199 669.71,-132.66 663.8,-51.7 662.05,-25.28"/>
<polygon fill="midnightblue" stroke="midnightblue" points="682.53,-226.53 688.29,-235.43 689.34,-224.89 682.53,-226.53"/>
</g>
<!-- Node17 -->
<g id="node17" class="node">
<title>Node17</title>
<g id="a_node17"><a xlink:href="../../d3/db4/graph_draw_8cpp.html" target="_top" xlink:title=" ">
<polygon fill="none" stroke="black" points="764,-179.5 764,-198.5 845,-198.5 845,-179.5 764,-179.5"/>
<text text-anchor="middle" x="804.5" y="-186.5" font-family="Helvetica,sans-Serif" font-size="10.00">graphDraw.cpp</text>
</a>
</g>
</g>
<!-- Node16&#45;&gt;Node17 -->
<g id="edge31" class="edge">
<title>Node16&#45;&gt;Node17</title>
<path fill="none" stroke="midnightblue" d="M717.74,-231.1C739.04,-221.01 768.04,-207.27 786.52,-198.52"/>
<polygon fill="midnightblue" stroke="midnightblue" points="716.1,-228 708.56,-235.44 719.1,-234.33 716.1,-228"/>
</g>
<!-- Node18 -->
<g id="node18" class="node">
<title>Node18</title>
<g id="a_node18"><a xlink:href="../../df/d0a/main_8cpp.html" target="_top" xlink:title=" ">
<polygon fill="none" stroke="black" points="689.5,-179.5 689.5,-198.5 745.5,-198.5 745.5,-179.5 689.5,-179.5"/>
<text text-anchor="middle" x="717.5" y="-186.5" font-family="Helvetica,sans-Serif" font-size="10.00">main.cpp</text>
</a>
</g>
</g>
<!-- Node16&#45;&gt;Node18 -->
<g id="edge32" class="edge">
<title>Node16&#45;&gt;Node18</title>
<path fill="none" stroke="midnightblue" d="M699.51,-225.98C704.09,-216.82 709.45,-206.09 713.12,-198.75"/>
<polygon fill="midnightblue" stroke="midnightblue" points="696.3,-224.57 694.96,-235.08 702.56,-227.7 696.3,-224.57"/>
</g>
<!-- Node19&#45;&gt;Node5 -->
<g id="edge35" class="edge">
<title>Node19&#45;&gt;Node5</title>
<path fill="none" stroke="midnightblue" d="M1158.86,-115.24C1146.2,-99.84 1125.22,-77.8 1101.5,-67 964.42,-4.56 913.99,-49.5 764.5,-31 744.61,-28.54 722.6,-25.48 704.05,-22.82"/>
<polygon fill="midnightblue" stroke="midnightblue" points="1156.37,-117.74 1165.31,-123.41 1161.86,-113.4 1156.37,-117.74"/>
</g>
<!-- Node19&#45;&gt;Node6 -->
<g id="edge39" class="edge">
<title>Node19&#45;&gt;Node6</title>
<path fill="none" stroke="midnightblue" d="M1178.65,-113.57C1182.74,-99.84 1185.62,-81.1 1177.5,-67 1167.83,-50.2 1150.19,-38.48 1133.31,-30.58"/>
<polygon fill="midnightblue" stroke="midnightblue" points="1175.24,-112.73 1175.29,-123.33 1181.86,-115.01 1175.24,-112.73"/>
</g>
<!-- Node19&#45;&gt;Node7 -->
<g id="edge40" class="edge">
<title>Node19&#45;&gt;Node7</title>
<path fill="none" stroke="midnightblue" d="M1149.53,-117.95C1119.95,-99.06 1070.74,-67.74 1068.5,-67 874.73,-2.64 813.51,-52.85 610.5,-31 594.8,-29.31 577.84,-27.14 562.19,-25"/>
<polygon fill="midnightblue" stroke="midnightblue" points="1147.69,-120.93 1158,-123.36 1151.46,-115.03 1147.69,-120.93"/>
</g>
<!-- Node19&#45;&gt;Node8 -->
<g id="edge41" class="edge">
<title>Node19&#45;&gt;Node8</title>
<path fill="none" stroke="midnightblue" d="M1167.34,-113.5C1162.98,-98.57 1154.59,-78.25 1139.5,-67 1104.06,-40.58 986.17,-27.06 909.72,-20.91"/>
<polygon fill="midnightblue" stroke="midnightblue" points="1163.95,-114.4 1169.84,-123.21 1170.73,-112.66 1163.95,-114.4"/>
</g>
<!-- Node20 -->
<g id="node20" class="node">
<title>Node20</title>
<g id="a_node20"><a xlink:href="../../dd/d5d/_lexer_8cpp.html" target="_top" xlink:title=" ">
<polygon fill="none" stroke="black" points="984,-67.5 984,-86.5 1059,-86.5 1059,-67.5 984,-67.5"/>
<text text-anchor="middle" x="1021.5" y="-74.5" font-family="Helvetica,sans-Serif" font-size="10.00">src/Lexer.cpp</text>
</a>
</g>
</g>
<!-- Node19&#45;&gt;Node20 -->
<g id="edge36" class="edge">
<title>Node19&#45;&gt;Node20</title>
<path fill="none" stroke="midnightblue" d="M1138.28,-120.04C1110.05,-109.88 1070.24,-95.55 1045.16,-86.52"/>
<polygon fill="midnightblue" stroke="midnightblue" points="1137.14,-123.35 1147.73,-123.44 1139.51,-116.76 1137.14,-123.35"/>
</g>
<!-- Node21 -->
<g id="node21" class="node">
<title>Node21</title>
<g id="a_node21"><a xlink:href="../../dd/d68/lexer_test_rules_8hpp.html" target="_top" xlink:title=" ">
<polygon fill="none" stroke="black" points="1230,-67.5 1230,-86.5 1377,-86.5 1377,-67.5 1230,-67.5"/>
<text text-anchor="middle" x="1303.5" y="-74.5" font-family="Helvetica,sans-Serif" font-size="10.00">tests/lexer/lexerTestRules.hpp</text>
</a>
</g>
</g>
<!-- Node19&#45;&gt;Node21 -->
<g id="edge37" class="edge">
<title>Node19&#45;&gt;Node21</title>
<path fill="none" stroke="midnightblue" d="M1201.72,-119.64C1226.49,-109.5 1260.9,-95.43 1282.68,-86.52"/>
<polygon fill="midnightblue" stroke="midnightblue" points="1200.35,-116.42 1192.42,-123.44 1203,-122.9 1200.35,-116.42"/>
</g>
<!-- Node21&#45;&gt;Node6 -->
<g id="edge38" class="edge">
<title>Node21&#45;&gt;Node6</title>
<path fill="none" stroke="midnightblue" d="M1263.17,-64.73C1228.41,-55.02 1178.07,-40.96 1140.7,-30.52"/>
<polygon fill="midnightblue" stroke="midnightblue" points="1262.41,-68.16 1272.98,-67.48 1264.29,-61.41 1262.41,-68.16"/>
</g>
<!-- Node22&#45;&gt;Node3 -->
<g id="edge44" class="edge">
<title>Node22&#45;&gt;Node3</title>
<path fill="none" stroke="midnightblue" d="M891.27,-182.15C879.08,-181.06 866.39,-179.96 854.5,-179 629.34,-160.77 571.97,-168.34 347.5,-143 344.26,-142.63 340.92,-142.22 337.57,-141.77"/>
<polygon fill="midnightblue" stroke="midnightblue" points="891.09,-185.65 901.37,-183.07 891.72,-178.68 891.09,-185.65"/>
</g>
<!-- Node22&#45;&gt;Node5 -->
<g id="edge45" class="edge">
<title>Node22&#45;&gt;Node5</title>
<path fill="none" stroke="midnightblue" d="M940.01,-171.52C918,-145.66 871.85,-95.57 822.5,-67 785.36,-45.5 738,-32.07 704.28,-24.51"/>
<polygon fill="midnightblue" stroke="midnightblue" points="937.41,-173.87 946.51,-179.29 942.78,-169.38 937.41,-173.87"/>
</g>
<!-- Node22&#45;&gt;Node6 -->
<g id="edge49" class="edge">
<title>Node22&#45;&gt;Node6</title>
<path fill="none" stroke="midnightblue" d="M951.8,-168.98C950.53,-143.1 952.09,-96.64 975.5,-67 990.91,-47.49 1015.4,-35.34 1037.82,-27.87"/>
<polygon fill="midnightblue" stroke="midnightblue" points="948.33,-169.55 952.51,-179.28 955.31,-169.06 948.33,-169.55"/>
</g>
<!-- Node22&#45;&gt;Node7 -->
<g id="edge50" class="edge">
<title>Node22&#45;&gt;Node7</title>
<path fill="none" stroke="midnightblue" d="M920.2,-175.92C868.83,-157.22 767.23,-119.98 681.5,-87 624.85,-65.2 558.47,-38.43 525.42,-25.02"/>
<polygon fill="midnightblue" stroke="midnightblue" points="919.19,-179.28 929.78,-179.41 921.58,-172.7 919.19,-179.28"/>
</g>
<!-- Node22&#45;&gt;Node8 -->
<g id="edge51" class="edge">
<title>Node22&#45;&gt;Node8</title>
<path fill="none" stroke="midnightblue" d="M946.7,-169.69C937.05,-145.01 917.81,-100.33 893.5,-67 881.49,-50.53 863.85,-34.68 852.52,-25.26"/>
<polygon fill="midnightblue" stroke="midnightblue" points="943.51,-171.13 950.34,-179.23 950.05,-168.64 943.51,-171.13"/>
</g>
<!-- Node22&#45;&gt;Node13 -->
<g id="edge48" class="edge">
<title>Node22&#45;&gt;Node13</title>
<path fill="none" stroke="midnightblue" d="M891.46,-179.58C808.86,-168.38 665.11,-148.87 595.52,-139.43"/>
<polygon fill="midnightblue" stroke="midnightblue" points="891.09,-183.06 901.47,-180.94 892.03,-176.13 891.09,-183.06"/>
</g>
<!-- Node22&#45;&gt;Node20 -->
<g id="edge46" class="edge">
<title>Node22&#45;&gt;Node20</title>
<path fill="none" stroke="midnightblue" d="M964.23,-170.64C979,-146.74 1005.04,-104.63 1016.19,-86.59"/>
<polygon fill="midnightblue" stroke="midnightblue" points="961.12,-169.02 958.84,-179.37 967.07,-172.7 961.12,-169.02"/>
</g>
<!-- Node22&#45;&gt;Node23 -->
<g id="edge47" class="edge">
<title>Node22&#45;&gt;Node23</title>
<path fill="none" stroke="midnightblue" d="M980.51,-174.86C1001.09,-164.85 1028.84,-151.35 1046.71,-142.65"/>
<polygon fill="midnightblue" stroke="midnightblue" points="978.8,-171.8 971.33,-179.32 981.86,-178.1 978.8,-171.8"/>
</g>
</g>
</svg>
