<?xml version="1.0" encoding="UTF-8" standalone="no"?>
<!DOCTYPE svg PUBLIC "-//W3C//DTD SVG 1.1//EN"
 "http://www.w3.org/Graphics/SVG/1.1/DTD/svg11.dtd">
<!-- Generated by graphviz version 3.0.0 (20220413.0106)
 -->
<!-- Title: include/Token.hpp Pages: 1 -->
<svg width="665pt" height="196pt"
 viewBox="0.00 0.00 665.00 196.00" xmlns="http://www.w3.org/2000/svg" xmlns:xlink="http://www.w3.org/1999/xlink">
<g id="graph0" class="graph" transform="scale(1 1) rotate(0) translate(4 192)">
<title>include/Token.hpp</title>
<!-- Node1 -->
<g id="node1" class="node">
<title>Node1</title>
<g id="a_node1"><a xlink:title=" ">
<polygon fill="#bfbfbf" stroke="black" points="279.5,-168.5 279.5,-187.5 374.5,-187.5 374.5,-168.5 279.5,-168.5"/>
<text text-anchor="middle" x="327" y="-175.5" font-family="Helvetica,sans-Serif" font-size="10.00">include/Token.hpp</text>
</a>
</g>
</g>
<!-- Node2 -->
<g id="node2" class="node">
<title>Node2</title>
<g id="a_node2"><a xlink:href="../../d4/dcb/_a_s_t_8hpp.html" target="_top" xlink:title=" ">
<polygon fill="none" stroke="black" points="106,-112.5 106,-131.5 194,-131.5 194,-112.5 106,-112.5"/>
<text text-anchor="middle" x="150" y="-119.5" font-family="Helvetica,sans-Serif" font-size="10.00">include/AST.hpp</text>
</a>
</g>
</g>
<!-- Node1&#45;&gt;Node2 -->
<g id="edge1" class="edge">
<title>Node1&#45;&gt;Node2</title>
<path fill="none" stroke="midnightblue" d="M289.1,-165.44C255.72,-155.26 207.9,-140.66 177.91,-131.52"/>
<polygon fill="midnightblue" stroke="midnightblue" points="288.37,-168.87 298.95,-168.44 290.41,-162.18 288.37,-168.87"/>
</g>
<!-- Node3 -->
<g id="node3" class="node">
<title>Node3</title>
<g id="a_node3"><a xlink:href="../../df/d3f/_syntax_8hpp.html" target="_top" xlink:title=" ">
<polygon fill="none" stroke="black" points="204,-56.5 204,-75.5 302,-75.5 302,-56.5 204,-56.5"/>
<text text-anchor="middle" x="253" y="-63.5" font-family="Helvetica,sans-Serif" font-size="10.00">include/Syntax.hpp</text>
</a>
</g>
</g>
<!-- Node1&#45;&gt;Node3 -->
<g id="edge14" class="edge">
<title>Node1&#45;&gt;Node3</title>
<path fill="none" stroke="midnightblue" d="M303.83,-162.83C292.75,-154.99 280.17,-144.34 272,-132 260.19,-114.16 255.57,-88.83 253.88,-75.68"/>
<polygon fill="midnightblue" stroke="midnightblue" points="302.01,-165.83 312.27,-168.5 305.91,-160.02 302.01,-165.83"/>
</g>
<!-- Node4 -->
<g id="node4" class="node">
<title>Node4</title>
<g id="a_node4"><a xlink:href="../../df/d0a/main_8cpp.html" target="_top" xlink:title=" ">
<polygon fill="none" stroke="black" points="372,-0.5 372,-19.5 428,-19.5 428,-0.5 372,-0.5"/>
<text text-anchor="middle" x="400" y="-7.5" font-family="Helvetica,sans-Serif" font-size="10.00">main.cpp</text>
</a>
</g>
</g>
<!-- Node1&#45;&gt;Node4 -->
<g id="edge16" class="edge">
<title>Node1&#45;&gt;Node4</title>
<path fill="none" stroke="midnightblue" d="M384.93,-172.26C438.94,-166.5 513.82,-154.61 532,-132 570.48,-84.16 471.02,-38.12 423.56,-19.57"/>
<polygon fill="midnightblue" stroke="midnightblue" points="384.36,-168.8 374.77,-173.3 385.07,-175.77 384.36,-168.8"/>
</g>
<!-- Node6 -->
<g id="node6" class="node">
<title>Node6</title>
<g id="a_node6"><a xlink:href="../../db/d42/_visitor_8hpp.html" target="_top" xlink:title=" ">
<polygon fill="none" stroke="black" points="0,-56.5 0,-75.5 96,-75.5 96,-56.5 0,-56.5"/>
<text text-anchor="middle" x="48" y="-63.5" font-family="Helvetica,sans-Serif" font-size="10.00">include/Visitor.hpp</text>
</a>
</g>
</g>
<!-- Node1&#45;&gt;Node6 -->
<g id="edge15" class="edge">
<title>Node1&#45;&gt;Node6</title>
<path fill="none" stroke="midnightblue" d="M269.19,-176.96C219.97,-174.42 149.17,-164.64 97,-132 74.72,-118.06 58.95,-90.06 51.99,-75.8"/>
<polygon fill="midnightblue" stroke="midnightblue" points="269.2,-180.46 279.35,-177.39 269.5,-173.47 269.2,-180.46"/>
</g>
<!-- Node9 -->
<g id="node9" class="node">
<title>Node9</title>
<g id="a_node9"><a xlink:href="../../d5/d24/_lexer_8hpp.html" target="_top" xlink:title=" ">
<polygon fill="none" stroke="black" points="281,-112.5 281,-131.5 373,-131.5 373,-112.5 281,-112.5"/>
<text text-anchor="middle" x="327" y="-119.5" font-family="Helvetica,sans-Serif" font-size="10.00">include/Lexer.hpp</text>
</a>
</g>
</g>
<!-- Node1&#45;&gt;Node9 -->
<g id="edge9" class="edge">
<title>Node1&#45;&gt;Node9</title>
<path fill="none" stroke="midnightblue" d="M327,-157.8C327,-148.91 327,-138.78 327,-131.75"/>
<polygon fill="midnightblue" stroke="midnightblue" points="323.5,-158.08 327,-168.08 330.5,-158.08 323.5,-158.08"/>
</g>
<!-- Node11 -->
<g id="node11" class="node">
<title>Node11</title>
<g id="a_node11"><a xlink:href="../../d8/d69/_pascal_tokens_8hpp.html" target="_top" xlink:title=" ">
<polygon fill="none" stroke="black" points="391.5,-112.5 391.5,-131.5 522.5,-131.5 522.5,-112.5 391.5,-112.5"/>
<text text-anchor="middle" x="457" y="-119.5" font-family="Helvetica,sans-Serif" font-size="10.00">include/PascalTokens.hpp</text>
</a>
</g>
</g>
<!-- Node1&#45;&gt;Node11 -->
<g id="edge12" class="edge">
<title>Node1&#45;&gt;Node11</title>
<path fill="none" stroke="midnightblue" d="M357.09,-164.5C381.46,-154.38 415.14,-140.39 436.5,-131.52"/>
<polygon fill="midnightblue" stroke="midnightblue" points="355.49,-161.38 347.6,-168.44 358.18,-167.84 355.49,-161.38"/>
</g>
<!-- Node12 -->
<g id="node12" class="node">
<title>Node12</title>
<g id="a_node12"><a xlink:href="../../d1/db6/_token_8cpp.html" target="_top" xlink:title=" ">
<polygon fill="none" stroke="black" points="579,-112.5 579,-131.5 657,-131.5 657,-112.5 579,-112.5"/>
<text text-anchor="middle" x="618" y="-119.5" font-family="Helvetica,sans-Serif" font-size="10.00">src/Token.cpp</text>
</a>
</g>
</g>
<!-- Node1&#45;&gt;Node12 -->
<g id="edge17" class="edge">
<title>Node1&#45;&gt;Node12</title>
<path fill="none" stroke="midnightblue" d="M383.11,-166.59C440.51,-155.94 528.22,-139.66 578.64,-130.3"/>
<polygon fill="midnightblue" stroke="midnightblue" points="382.3,-163.18 373.11,-168.44 383.58,-170.06 382.3,-163.18"/>
</g>
<!-- Node2&#45;&gt;Node3 -->
<g id="edge2" class="edge">
<title>Node2&#45;&gt;Node3</title>
<path fill="none" stroke="midnightblue" d="M175.58,-107.59C194.62,-97.61 220.06,-84.27 236.49,-75.65"/>
<polygon fill="midnightblue" stroke="midnightblue" points="173.78,-104.58 166.55,-112.32 177.03,-110.78 173.78,-104.58"/>
</g>
<!-- Node2&#45;&gt;Node6 -->
<g id="edge5" class="edge">
<title>Node2&#45;&gt;Node6</title>
<path fill="none" stroke="midnightblue" d="M119.49,-107.96C99.07,-97.88 73.55,-84.23 59.01,-75.52"/>
<polygon fill="midnightblue" stroke="midnightblue" points="118.22,-111.23 128.75,-112.44 121.28,-104.93 118.22,-111.23"/>
</g>
<!-- Node8 -->
<g id="node8" class="node">
<title>Node8</title>
<g id="a_node8"><a xlink:href="../../d0/d91/_a_s_t_8cpp.html" target="_top" xlink:title=" ">
<polygon fill="none" stroke="black" points="114.5,-56.5 114.5,-75.5 185.5,-75.5 185.5,-56.5 114.5,-56.5"/>
<text text-anchor="middle" x="150" y="-63.5" font-family="Helvetica,sans-Serif" font-size="10.00">src/AST.cpp</text>
</a>
</g>
</g>
<!-- Node2&#45;&gt;Node8 -->
<g id="edge8" class="edge">
<title>Node2&#45;&gt;Node8</title>
<path fill="none" stroke="midnightblue" d="M150,-101.8C150,-92.91 150,-82.78 150,-75.75"/>
<polygon fill="midnightblue" stroke="midnightblue" points="146.5,-102.08 150,-112.08 153.5,-102.08 146.5,-102.08"/>
</g>
<!-- Node3&#45;&gt;Node4 -->
<g id="edge3" class="edge">
<title>Node3&#45;&gt;Node4</title>
<path fill="none" stroke="midnightblue" d="M285.92,-52.91C313.56,-42.75 352.34,-28.51 376.82,-19.52"/>
<polygon fill="midnightblue" stroke="midnightblue" points="284.47,-49.71 276.29,-56.44 286.89,-56.28 284.47,-49.71"/>
</g>
<!-- Node5 -->
<g id="node5" class="node">
<title>Node5</title>
<g id="a_node5"><a xlink:href="../../d1/daa/_syntax_8cpp.html" target="_top" xlink:title=" ">
<polygon fill="none" stroke="black" points="213,-0.5 213,-19.5 293,-19.5 293,-0.5 213,-0.5"/>
<text text-anchor="middle" x="253" y="-7.5" font-family="Helvetica,sans-Serif" font-size="10.00">src/Syntax.cpp</text>
</a>
</g>
</g>
<!-- Node3&#45;&gt;Node5 -->
<g id="edge4" class="edge">
<title>Node3&#45;&gt;Node5</title>
<path fill="none" stroke="midnightblue" d="M253,-45.8C253,-36.91 253,-26.78 253,-19.75"/>
<polygon fill="midnightblue" stroke="midnightblue" points="249.5,-46.08 253,-56.08 256.5,-46.08 249.5,-46.08"/>
</g>
<!-- Node6&#45;&gt;Node2 -->
<g id="edge6" class="edge">
<title>Node6&#45;&gt;Node2</title>
<path fill="none" stroke="midnightblue" d="M78.65,-80.11C98.93,-90.12 124.18,-103.62 138.73,-112.32"/>
<polygon fill="midnightblue" stroke="midnightblue" points="79.98,-76.87 69.46,-75.65 76.93,-83.17 79.98,-76.87"/>
</g>
<!-- Node7 -->
<g id="node7" class="node">
<title>Node7</title>
<g id="a_node7"><a xlink:href="../../dc/d65/_visitor_8cpp.html" target="_top" xlink:title=" ">
<polygon fill="none" stroke="black" points="8.5,-0.5 8.5,-19.5 87.5,-19.5 87.5,-0.5 8.5,-0.5"/>
<text text-anchor="middle" x="48" y="-7.5" font-family="Helvetica,sans-Serif" font-size="10.00">src/Visitor.cpp</text>
</a>
</g>
</g>
<!-- Node6&#45;&gt;Node7 -->
<g id="edge7" class="edge">
<title>Node6&#45;&gt;Node7</title>
<path fill="none" stroke="midnightblue" d="M48,-45.8C48,-36.91 48,-26.78 48,-19.75"/>
<polygon fill="midnightblue" stroke="midnightblue" points="44.5,-46.08 48,-56.08 51.5,-46.08 44.5,-46.08"/>
</g>
<!-- Node9&#45;&gt;Node4 -->
<g id="edge10" class="edge">
<title>Node9&#45;&gt;Node4</title>
<path fill="none" stroke="midnightblue" d="M330.99,-102.27C334.5,-88.64 340.54,-70.15 350,-56 359.99,-41.05 376.06,-27.8 387.27,-19.62"/>
<polygon fill="midnightblue" stroke="midnightblue" points="327.49,-101.85 328.62,-112.39 334.31,-103.45 327.49,-101.85"/>
</g>
<!-- Node10 -->
<g id="node10" class="node">
<title>Node10</title>
<g id="a_node10"><a xlink:href="../../dd/d5d/_lexer_8cpp.html" target="_top" xlink:title="Лексер">
<polygon fill="none" stroke="black" points="358.5,-56.5 358.5,-75.5 433.5,-75.5 433.5,-56.5 358.5,-56.5"/>
<text text-anchor="middle" x="396" y="-63.5" font-family="Helvetica,sans-Serif" font-size="10.00">src/Lexer.cpp</text>
</a>
</g>
</g>
<!-- Node9&#45;&gt;Node10 -->
<g id="edge11" class="edge">
<title>Node9&#45;&gt;Node10</title>
<path fill="none" stroke="midnightblue" d="M346.04,-106.1C358.46,-96.38 374.24,-84.03 384.71,-75.83"/>
<polygon fill="midnightblue" stroke="midnightblue" points="343.8,-103.4 338.09,-112.32 348.12,-108.92 343.8,-103.4"/>
</g>
<!-- Node11&#45;&gt;Node4 -->
<g id="edge13" class="edge">
<title>Node11&#45;&gt;Node4</title>
<path fill="none" stroke="midnightblue" d="M455.72,-102.48C454.15,-88.95 450.69,-70.5 443,-56 435.21,-41.3 421.23,-28 411.33,-19.74"/>
<polygon fill="midnightblue" stroke="midnightblue" points="452.24,-102.86 456.63,-112.5 459.21,-102.22 452.24,-102.86"/>
</g>
</g>
</svg>
