<?xml version="1.0" encoding="UTF-8" standalone="no"?>
<!DOCTYPE svg PUBLIC "-//W3C//DTD SVG 1.1//EN"
 "http://www.w3.org/Graphics/SVG/1.1/DTD/svg11.dtd">
<!-- Generated by graphviz version 3.0.0 (20220413.0106)
 -->
<!-- Title: IToken::getType Pages: 1 -->
<svg width="2384pt" height="327pt"
 viewBox="0.00 0.00 2384.00 327.00" xmlns="http://www.w3.org/2000/svg" xmlns:xlink="http://www.w3.org/1999/xlink">
<g id="graph0" class="graph" transform="scale(1 1) rotate(0) translate(4 323)">
<title>IToken::getType</title>
<!-- Node1 -->
<g id="node1" class="node">
<title>Node1</title>
<g id="a_node1"><a xlink:title="Получение типа токена">
<polygon fill="#bfbfbf" stroke="black" points="2290,-133.5 2290,-152.5 2376,-152.5 2376,-133.5 2290,-133.5"/>
<text text-anchor="middle" x="2333" y="-140.5" font-family="Helvetica,sans-Serif" font-size="10.00">IToken::getType</text>
</a>
</g>
</g>
<!-- Node2 -->
<g id="node2" class="node">
<title>Node2</title>
<g id="a_node2"><a xlink:href="../../da/d5a/class_lexer.html#a473a8abf892384a3e2769651318d7ab1" target="_top" xlink:title="Анализирует текст программы">
<polygon fill="none" stroke="black" points="2121,-266.5 2121,-285.5 2254,-285.5 2254,-266.5 2121,-266.5"/>
<text text-anchor="middle" x="2187.5" y="-273.5" font-family="Helvetica,sans-Serif" font-size="10.00">Lexer::analyzeProgramText</text>
</a>
</g>
</g>
<!-- Node1&#45;&gt;Node2 -->
<g id="edge1" class="edge">
<title>Node1&#45;&gt;Node2</title>
<path fill="none" stroke="midnightblue" d="M2323.06,-161.79C2310.71,-185.88 2286.25,-227.46 2254,-252 2245.9,-258.16 2236.07,-262.86 2226.51,-266.4"/>
<polygon fill="midnightblue" stroke="midnightblue" points="2326.29,-163.15 2327.6,-152.63 2320.02,-160.04 2326.29,-163.15"/>
</g>
<!-- Node6 -->
<g id="node6" class="node">
<title>Node6</title>
<g id="a_node6"><a xlink:href="../../d7/d7c/class_a_s_t_factory.html#a64619ed3c409fbb187debf67bc39d484" target="_top" xlink:title=" ">
<polygon fill="none" stroke="black" points="1226,-228.5 1226,-247.5 1345,-247.5 1345,-228.5 1226,-228.5"/>
<text text-anchor="middle" x="1285.5" y="-235.5" font-family="Helvetica,sans-Serif" font-size="10.00">ASTFactory::createAST</text>
</a>
</g>
</g>
<!-- Node1&#45;&gt;Node6 -->
<g id="edge5" class="edge">
<title>Node1&#45;&gt;Node6</title>
<path fill="none" stroke="midnightblue" d="M2311.98,-158.52C2296.85,-169.49 2275.14,-183.67 2254,-192 2153.16,-231.73 2122.89,-238 2014.5,-238 2014.5,-238 2014.5,-238 1650,-238 1542.4,-238 1416.89,-238 1345.05,-238"/>
<polygon fill="midnightblue" stroke="midnightblue" points="2314.13,-161.28 2320.07,-152.5 2309.96,-155.66 2314.13,-161.28"/>
</g>
<!-- Node16 -->
<g id="node16" class="node">
<title>Node16</title>
<g id="a_node16"><a xlink:href="../../db/dc1/class_token.html#a014ced0a9ea72ae21fad0d4f116d0a73" target="_top" xlink:title=" ">
<polygon fill="none" stroke="black" points="2148.5,-38.5 2148.5,-57.5 2226.5,-57.5 2226.5,-38.5 2148.5,-38.5"/>
<text text-anchor="middle" x="2187.5" y="-45.5" font-family="Helvetica,sans-Serif" font-size="10.00">Token::getInfo</text>
</a>
</g>
</g>
<!-- Node1&#45;&gt;Node16 -->
<g id="edge18" class="edge">
<title>Node1&#45;&gt;Node16</title>
<path fill="none" stroke="midnightblue" d="M2316.97,-125.95C2302.26,-110.14 2278.54,-86.87 2254,-72 2244.26,-66.1 2232.85,-61.3 2222.3,-57.58"/>
<polygon fill="midnightblue" stroke="midnightblue" points="2314.48,-128.41 2323.8,-133.45 2319.66,-123.7 2314.48,-128.41"/>
</g>
<!-- Node17 -->
<g id="node17" class="node">
<title>Node17</title>
<g id="a_node17"><a xlink:href="../../d0/dfe/class_syntax_analyzer.html#ab9b415ddd671b4884ab31cdf194f6c64" target="_top" xlink:title=" ">
<polygon fill="none" stroke="black" points="1942,-58.5 1942,-77.5 2085,-77.5 2085,-58.5 1942,-58.5"/>
<text text-anchor="middle" x="2013.5" y="-65.5" font-family="Helvetica,sans-Serif" font-size="10.00">SyntaxAnalyzer::syntaxFactor</text>
</a>
</g>
</g>
<!-- Node1&#45;&gt;Node17 -->
<g id="edge41" class="edge">
<title>Node1&#45;&gt;Node17</title>
<path fill="none" stroke="midnightblue" d="M2303.47,-129.09C2288.95,-122.49 2270.84,-114.97 2254,-110 2198.33,-93.57 2133.37,-82.68 2085.16,-76.11"/>
<polygon fill="midnightblue" stroke="midnightblue" points="2302.35,-132.43 2312.89,-133.47 2305.3,-126.08 2302.35,-132.43"/>
</g>
<!-- Node18 -->
<g id="node18" class="node">
<title>Node18</title>
<g id="a_node18"><a xlink:href="../../d0/dfe/class_syntax_analyzer.html#a7721cf7d36d549f81fd05c40dba02f67" target="_top" xlink:title=" ">
<polygon fill="none" stroke="black" points="1769,-114.5 1769,-133.5 1906,-133.5 1906,-114.5 1769,-114.5"/>
<text text-anchor="middle" x="1837.5" y="-121.5" font-family="Helvetica,sans-Serif" font-size="10.00">SyntaxAnalyzer::syntaxTerm</text>
</a>
</g>
</g>
<!-- Node1&#45;&gt;Node18 -->
<g id="edge43" class="edge">
<title>Node1&#45;&gt;Node18</title>
<path fill="none" stroke="midnightblue" d="M2279.69,-140.99C2189.67,-137.52 2005.59,-130.43 1906.03,-126.6"/>
<polygon fill="midnightblue" stroke="midnightblue" points="2279.8,-144.49 2289.92,-141.38 2280.07,-137.5 2279.8,-144.49"/>
</g>
<!-- Node19 -->
<g id="node19" class="node">
<title>Node19</title>
<g id="a_node19"><a xlink:href="../../d0/dfe/class_syntax_analyzer.html#a920d9565d4aa2e3815ff9e7146f45a0b" target="_top" xlink:title=" ">
<polygon fill="none" stroke="black" points="1569,-114.5 1569,-133.5 1733,-133.5 1733,-114.5 1569,-114.5"/>
<text text-anchor="middle" x="1651" y="-121.5" font-family="Helvetica,sans-Serif" font-size="10.00">SyntaxAnalyzer::syntaxSimpleExpr</text>
</a>
</g>
</g>
<!-- Node1&#45;&gt;Node19 -->
<g id="edge42" class="edge">
<title>Node1&#45;&gt;Node19</title>
<path fill="none" stroke="midnightblue" d="M2279.92,-146.8C2271.27,-147.3 2262.38,-147.73 2254,-148 2132.03,-151.91 1801.23,-145.83 1769,-143 1746.35,-141.01 1721.45,-137.2 1700.47,-133.51"/>
<polygon fill="midnightblue" stroke="midnightblue" points="2280.16,-150.29 2289.92,-146.19 2279.73,-143.31 2280.16,-150.29"/>
</g>
<!-- Node20 -->
<g id="node20" class="node">
<title>Node20</title>
<g id="a_node20"><a xlink:href="../../d0/dfe/class_syntax_analyzer.html#a53b0048490647d82a92a77ed1ffb013d" target="_top" xlink:title=" ">
<polygon fill="none" stroke="black" points="1399,-114.5 1399,-133.5 1533,-133.5 1533,-114.5 1399,-114.5"/>
<text text-anchor="middle" x="1466" y="-121.5" font-family="Helvetica,sans-Serif" font-size="10.00">SyntaxAnalyzer::syntaxExpr</text>
</a>
</g>
</g>
<!-- Node1&#45;&gt;Node20 -->
<g id="edge40" class="edge">
<title>Node1&#45;&gt;Node20</title>
<path fill="none" stroke="midnightblue" d="M2290.45,-155.33C2230.21,-172.09 2114.82,-200 2014.5,-200 2014.5,-200 2014.5,-200 1836.5,-200 1706.17,-200 1555.19,-154.08 1494.41,-133.63"/>
<polygon fill="midnightblue" stroke="midnightblue" points="2291.67,-158.62 2300.34,-152.54 2289.77,-151.89 2291.67,-158.62"/>
</g>
<!-- Node28 -->
<g id="node28" class="node">
<title>Node28</title>
<g id="a_node28"><a xlink:href="../../da/d38/class_code_gen_visitor.html#a419219249ed5080058b6bfb31c67365f" target="_top" xlink:title=" ">
<polygon fill="none" stroke="black" points="2134,-0.5 2134,-19.5 2241,-19.5 2241,-0.5 2134,-0.5"/>
<text text-anchor="middle" x="2187.5" y="-7.5" font-family="Helvetica,sans-Serif" font-size="10.00">CodeGenVisitor::visit</text>
</a>
</g>
</g>
<!-- Node1&#45;&gt;Node28 -->
<g id="edge44" class="edge">
<title>Node1&#45;&gt;Node28</title>
<path fill="none" stroke="midnightblue" d="M2324.06,-124.1C2312.42,-98.68 2288.32,-53.84 2254,-29 2248.63,-25.11 2242.47,-22.02 2236.13,-19.55"/>
<polygon fill="midnightblue" stroke="midnightblue" points="2320.92,-125.65 2328.15,-133.39 2327.32,-122.83 2320.92,-125.65"/>
</g>
<!-- Node3 -->
<g id="node3" class="node">
<title>Node3</title>
<g id="a_node3"><a xlink:href="../../da/d5a/class_lexer.html#a240680b247c9b95a1bbd802716b20f39" target="_top" xlink:title="Анализирует файл">
<polygon fill="none" stroke="black" points="1967,-266.5 1967,-285.5 2060,-285.5 2060,-266.5 1967,-266.5"/>
<text text-anchor="middle" x="2013.5" y="-273.5" font-family="Helvetica,sans-Serif" font-size="10.00">Lexer::analyzeFile</text>
</a>
</g>
</g>
<!-- Node2&#45;&gt;Node3 -->
<g id="edge2" class="edge">
<title>Node2&#45;&gt;Node3</title>
<path fill="none" stroke="midnightblue" d="M2110.87,-276C2093.56,-276 2075.67,-276 2060.08,-276"/>
<polygon fill="midnightblue" stroke="midnightblue" points="2110.98,-279.5 2120.98,-276 2110.98,-272.5 2110.98,-279.5"/>
</g>
<!-- Node4 -->
<g id="node4" class="node">
<title>Node4</title>
<g id="a_node4"><a xlink:href="../../df/d0a/main_8cpp.html#a3c04138a5bfe5d72780bb7e82a18e627" target="_top" xlink:title=" ">
<polygon fill="none" stroke="black" points="1.5,-299.5 1.5,-318.5 39.5,-318.5 39.5,-299.5 1.5,-299.5"/>
<text text-anchor="middle" x="20.5" y="-306.5" font-family="Helvetica,sans-Serif" font-size="10.00">main</text>
</a>
</g>
</g>
<!-- Node3&#45;&gt;Node4 -->
<g id="edge3" class="edge">
<title>Node3&#45;&gt;Node4</title>
<path fill="none" stroke="midnightblue" d="M1956.85,-287.03C1940.52,-289.97 1922.59,-292.91 1906,-295 1793.69,-309.18 1765.2,-314 1652,-314 1652,-314 1652,-314 331,-314 220.3,-314 87.35,-310.76 39.64,-309.5"/>
<polygon fill="midnightblue" stroke="midnightblue" points="1957.58,-290.46 1966.79,-285.21 1956.32,-283.57 1957.58,-290.46"/>
</g>
<!-- Node5 -->
<g id="node5" class="node">
<title>Node5</title>
<g id="a_node5"><a xlink:href="../../d0/d0f/test_lexer__1_8cpp.html#a42b988f5ceb814376db8a2df3c933b15" target="_top" xlink:title="Тест разбора простых математических выражений">
<polygon fill="none" stroke="black" points="1817,-266.5 1817,-285.5 1858,-285.5 1858,-266.5 1817,-266.5"/>
<text text-anchor="middle" x="1837.5" y="-273.5" font-family="Helvetica,sans-Serif" font-size="10.00">TEST</text>
</a>
</g>
</g>
<!-- Node3&#45;&gt;Node5 -->
<g id="edge4" class="edge">
<title>Node3&#45;&gt;Node5</title>
<path fill="none" stroke="midnightblue" d="M1956.59,-276C1922.91,-276 1882.08,-276 1858.32,-276"/>
<polygon fill="midnightblue" stroke="midnightblue" points="1956.78,-279.5 1966.78,-276 1956.78,-272.5 1956.78,-279.5"/>
</g>
<!-- Node7 -->
<g id="node7" class="node">
<title>Node7</title>
<g id="a_node7"><a xlink:href="../../d0/dfe/class_syntax_analyzer.html#a3fd39f49d75b604d41e41f86b22cdca3" target="_top" xlink:title=" ">
<polygon fill="none" stroke="black" points="1012,-190.5 1012,-209.5 1172,-209.5 1172,-190.5 1012,-190.5"/>
<text text-anchor="middle" x="1092" y="-197.5" font-family="Helvetica,sans-Serif" font-size="10.00">SyntaxAnalyzer::syntaxConstDecl</text>
</a>
</g>
</g>
<!-- Node6&#45;&gt;Node7 -->
<g id="edge6" class="edge">
<title>Node6&#45;&gt;Node7</title>
<path fill="none" stroke="midnightblue" d="M1226.35,-226.46C1199.04,-221.04 1166.87,-214.66 1140.98,-209.52"/>
<polygon fill="midnightblue" stroke="midnightblue" points="1225.69,-229.9 1236.18,-228.41 1227.05,-223.03 1225.69,-229.9"/>
</g>
<!-- Node13 -->
<g id="node13" class="node">
<title>Node13</title>
<g id="a_node13"><a xlink:href="../../d0/dfe/class_syntax_analyzer.html#a59b8fda4a98347e67033502aec8d2e4f" target="_top" xlink:title=" ">
<polygon fill="none" stroke="black" points="1013,-266.5 1013,-285.5 1171,-285.5 1171,-266.5 1013,-266.5"/>
<text text-anchor="middle" x="1092" y="-273.5" font-family="Helvetica,sans-Serif" font-size="10.00">SyntaxAnalyzer::syntaxTypeSpec</text>
</a>
</g>
</g>
<!-- Node6&#45;&gt;Node13 -->
<g id="edge13" class="edge">
<title>Node6&#45;&gt;Node13</title>
<path fill="none" stroke="midnightblue" d="M1226.35,-249.54C1199.04,-254.96 1166.87,-261.34 1140.98,-266.48"/>
<polygon fill="midnightblue" stroke="midnightblue" points="1227.05,-252.97 1236.18,-247.59 1225.69,-246.1 1227.05,-252.97"/>
</g>
<!-- Node14 -->
<g id="node14" class="node">
<title>Node14</title>
<g id="a_node14"><a xlink:href="../../d0/dfe/class_syntax_analyzer.html#a3106ad7f9a5cf50b2c277c28401422ec" target="_top" xlink:title=" ">
<polygon fill="none" stroke="black" points="827,-247.5 827,-266.5 976,-266.5 976,-247.5 827,-247.5"/>
<text text-anchor="middle" x="901.5" y="-254.5" font-family="Helvetica,sans-Serif" font-size="10.00">SyntaxAnalyzer::syntaxVarDecl</text>
</a>
</g>
</g>
<!-- Node6&#45;&gt;Node14 -->
<g id="edge17" class="edge">
<title>Node6&#45;&gt;Node14</title>
<path fill="none" stroke="midnightblue" d="M1215.53,-241.43C1147.95,-244.79 1045.3,-249.9 976.15,-253.34"/>
<polygon fill="midnightblue" stroke="midnightblue" points="1215.84,-244.92 1225.65,-240.93 1215.49,-237.93 1215.84,-244.92"/>
</g>
<!-- Node8 -->
<g id="node8" class="node">
<title>Node8</title>
<g id="a_node8"><a xlink:href="../../d0/dfe/class_syntax_analyzer.html#a9dc26002a15e26254df5a115511b872c" target="_top" xlink:title=" ">
<polygon fill="none" stroke="black" points="632.5,-209.5 632.5,-228.5 778.5,-228.5 778.5,-209.5 632.5,-209.5"/>
<text text-anchor="middle" x="705.5" y="-216.5" font-family="Helvetica,sans-Serif" font-size="10.00">SyntaxAnalyzer::syntaxConsts</text>
</a>
</g>
</g>
<!-- Node7&#45;&gt;Node8 -->
<g id="edge7" class="edge">
<title>Node7&#45;&gt;Node8</title>
<path fill="none" stroke="midnightblue" d="M1001.56,-204.42C933.81,-207.77 841.92,-212.31 778.78,-215.43"/>
<polygon fill="midnightblue" stroke="midnightblue" points="1001.98,-207.9 1011.8,-203.91 1001.64,-200.91 1001.98,-207.9"/>
</g>
<!-- Node9 -->
<g id="node9" class="node">
<title>Node9</title>
<g id="a_node9"><a xlink:href="../../d0/dfe/class_syntax_analyzer.html#aa93b0d722276e335971360e093f19a8e" target="_top" xlink:title=" ">
<polygon fill="none" stroke="black" points="444,-211.5 444,-230.5 584,-230.5 584,-211.5 444,-211.5"/>
<text text-anchor="middle" x="514" y="-218.5" font-family="Helvetica,sans-Serif" font-size="10.00">SyntaxAnalyzer::syntaxBlock</text>
</a>
</g>
</g>
<!-- Node8&#45;&gt;Node9 -->
<g id="edge8" class="edge">
<title>Node8&#45;&gt;Node9</title>
<path fill="none" stroke="midnightblue" d="M622.22,-219.87C609.53,-220 596.54,-220.14 584.17,-220.27"/>
<polygon fill="midnightblue" stroke="midnightblue" points="622.36,-223.37 632.32,-219.76 622.28,-216.37 622.36,-223.37"/>
</g>
<!-- Node10 -->
<g id="node10" class="node">
<title>Node10</title>
<g id="a_node10"><a xlink:href="../../d0/dfe/class_syntax_analyzer.html#aeb59cd0062ff3238bcf625c7e20fc5ec" target="_top" xlink:title=" ">
<polygon fill="none" stroke="black" points="256,-233.5 256,-252.5 408,-252.5 408,-233.5 256,-233.5"/>
<text text-anchor="middle" x="332" y="-240.5" font-family="Helvetica,sans-Serif" font-size="10.00">SyntaxAnalyzer::syntaxProgram</text>
</a>
</g>
</g>
<!-- Node9&#45;&gt;Node10 -->
<g id="edge9" class="edge">
<title>Node9&#45;&gt;Node10</title>
<path fill="none" stroke="midnightblue" d="M433.95,-230.66C425.39,-231.71 416.69,-232.77 408.18,-233.81"/>
<polygon fill="midnightblue" stroke="midnightblue" points="434.42,-234.13 443.92,-229.44 433.57,-227.18 434.42,-234.13"/>
</g>
<!-- Node11 -->
<g id="node11" class="node">
<title>Node11</title>
<g id="a_node11"><a xlink:href="../../d0/dfe/class_syntax_analyzer.html#a0472b9d7f2855f118acf9cb7c67ab5a7" target="_top" xlink:title=" ">
<polygon fill="none" stroke="black" points="77,-252.5 77,-271.5 220,-271.5 220,-252.5 77,-252.5"/>
<text text-anchor="middle" x="148.5" y="-259.5" font-family="Helvetica,sans-Serif" font-size="10.00">SyntaxAnalyzer::parseTokens</text>
</a>
</g>
</g>
<!-- Node10&#45;&gt;Node11 -->
<g id="edge10" class="edge">
<title>Node10&#45;&gt;Node11</title>
<path fill="none" stroke="midnightblue" d="M245.84,-251.91C237.26,-252.81 228.61,-253.72 220.21,-254.6"/>
<polygon fill="midnightblue" stroke="midnightblue" points="246.29,-255.39 255.87,-250.87 245.56,-248.43 246.29,-255.39"/>
</g>
<!-- Node11&#45;&gt;Node4 -->
<g id="edge11" class="edge">
<title>Node11&#45;&gt;Node4</title>
<path fill="none" stroke="midnightblue" d="M112.33,-275.12C88.71,-283.93 58.55,-295.18 39.63,-302.24"/>
<polygon fill="midnightblue" stroke="midnightblue" points="113.86,-278.29 122,-271.51 111.41,-271.73 113.86,-278.29"/>
</g>
<!-- Node12 -->
<g id="node12" class="node">
<title>Node12</title>
<g id="a_node12"><a xlink:href="../../dd/de9/test_syntax_8cpp.html#ac491df98e51a6bba8b808af414b6614f" target="_top" xlink:title="Тест синтаксического анализа Паскаля, простой тест">
<polygon fill="none" stroke="black" points="0,-252.5 0,-271.5 41,-271.5 41,-252.5 0,-252.5"/>
<text text-anchor="middle" x="20.5" y="-259.5" font-family="Helvetica,sans-Serif" font-size="10.00">TEST</text>
</a>
</g>
</g>
<!-- Node11&#45;&gt;Node12 -->
<g id="edge12" class="edge">
<title>Node11&#45;&gt;Node12</title>
<path fill="none" stroke="midnightblue" d="M66.74,-262C57.29,-262 48.42,-262 41.08,-262"/>
<polygon fill="midnightblue" stroke="midnightblue" points="66.77,-265.5 76.77,-262 66.77,-258.5 66.77,-265.5"/>
</g>
<!-- Node13&#45;&gt;Node14 -->
<g id="edge14" class="edge">
<title>Node13&#45;&gt;Node14</title>
<path fill="none" stroke="midnightblue" d="M1002.93,-267.12C994,-266.22 984.99,-265.32 976.24,-264.43"/>
<polygon fill="midnightblue" stroke="midnightblue" points="1002.67,-270.61 1012.97,-268.13 1003.37,-263.65 1002.67,-270.61"/>
</g>
<!-- Node15 -->
<g id="node15" class="node">
<title>Node15</title>
<g id="a_node15"><a xlink:href="../../d0/dfe/class_syntax_analyzer.html#a31a844667194ddf21425e3c2e6f2a007" target="_top" xlink:title=" ">
<polygon fill="none" stroke="black" points="638,-247.5 638,-266.5 773,-266.5 773,-247.5 638,-247.5"/>
<text text-anchor="middle" x="705.5" y="-254.5" font-family="Helvetica,sans-Serif" font-size="10.00">SyntaxAnalyzer::syntaxVars</text>
</a>
</g>
</g>
<!-- Node14&#45;&gt;Node15 -->
<g id="edge15" class="edge">
<title>Node14&#45;&gt;Node15</title>
<path fill="none" stroke="midnightblue" d="M816.83,-257C802.2,-257 787.15,-257 773.06,-257"/>
<polygon fill="midnightblue" stroke="midnightblue" points="816.88,-260.5 826.88,-257 816.88,-253.5 816.88,-260.5"/>
</g>
<!-- Node15&#45;&gt;Node9 -->
<g id="edge16" class="edge">
<title>Node15&#45;&gt;Node9</title>
<path fill="none" stroke="midnightblue" d="M644.29,-245.56C618.81,-240.72 589.47,-235.15 565.19,-230.53"/>
<polygon fill="midnightblue" stroke="midnightblue" points="643.74,-249.02 654.21,-247.45 645.04,-242.14 643.74,-249.02"/>
</g>
<!-- Node16&#45;&gt;Node17 -->
<g id="edge19" class="edge">
<title>Node16&#45;&gt;Node17</title>
<path fill="none" stroke="midnightblue" d="M2138.37,-53.6C2121.86,-55.52 2103.02,-57.71 2085.09,-59.79"/>
<polygon fill="midnightblue" stroke="midnightblue" points="2138.8,-57.07 2148.33,-52.44 2137.99,-50.12 2138.8,-57.07"/>
</g>
<!-- Node17&#45;&gt;Node17 -->
<g id="edge20" class="edge">
<title>Node17&#45;&gt;Node17</title>
<path fill="none" stroke="midnightblue" d="M2046.06,-86.27C2045.13,-91.74 2034.28,-96 2013.5,-96 1982.57,-96 1973.63,-86.57 1986.68,-77.76"/>
<polygon fill="midnightblue" stroke="midnightblue" points="2048.81,-84.09 2040.32,-77.76 2043.01,-88.01 2048.81,-84.09"/>
</g>
<!-- Node17&#45;&gt;Node18 -->
<g id="edge21" class="edge">
<title>Node17&#45;&gt;Node18</title>
<path fill="none" stroke="midnightblue" d="M1972.7,-80.81C1940.82,-91.07 1896.82,-105.23 1868.02,-114.5"/>
<polygon fill="midnightblue" stroke="midnightblue" points="1974.14,-84.02 1982.59,-77.63 1972,-77.36 1974.14,-84.02"/>
</g>
<!-- Node18&#45;&gt;Node19 -->
<g id="edge22" class="edge">
<title>Node18&#45;&gt;Node19</title>
<path fill="none" stroke="midnightblue" d="M1758.65,-124C1750.2,-124 1741.59,-124 1733.11,-124"/>
<polygon fill="midnightblue" stroke="midnightblue" points="1758.85,-127.5 1768.85,-124 1758.85,-120.5 1758.85,-127.5"/>
</g>
<!-- Node19&#45;&gt;Node20 -->
<g id="edge23" class="edge">
<title>Node19&#45;&gt;Node20</title>
<path fill="none" stroke="midnightblue" d="M1558.81,-124C1550.17,-124 1541.53,-124 1533.19,-124"/>
<polygon fill="midnightblue" stroke="midnightblue" points="1558.93,-127.5 1568.93,-124 1558.93,-120.5 1558.93,-127.5"/>
</g>
<!-- Node20&#45;&gt;Node17 -->
<g id="edge37" class="edge">
<title>Node20&#45;&gt;Node17</title>
<path fill="none" stroke="midnightblue" d="M1522.9,-112.54C1537.83,-109.76 1553.99,-107.02 1569,-105 1700.13,-87.36 1854.29,-76.76 1941.98,-71.68"/>
<polygon fill="midnightblue" stroke="midnightblue" points="1521.97,-109.15 1512.79,-114.45 1523.27,-116.03 1521.97,-109.15"/>
</g>
<!-- Node21 -->
<g id="node21" class="node">
<title>Node21</title>
<g id="a_node21"><a xlink:href="../../d0/dfe/class_syntax_analyzer.html#ae57b60364b17a4772143fe9a6c3bc2c7" target="_top" xlink:title=" ">
<polygon fill="none" stroke="black" points="1208,-114.5 1208,-133.5 1363,-133.5 1363,-114.5 1208,-114.5"/>
<text text-anchor="middle" x="1285.5" y="-121.5" font-family="Helvetica,sans-Serif" font-size="10.00">SyntaxAnalyzer::syntaxAssignSt</text>
</a>
</g>
</g>
<!-- Node20&#45;&gt;Node21 -->
<g id="edge24" class="edge">
<title>Node20&#45;&gt;Node21</title>
<path fill="none" stroke="midnightblue" d="M1388.6,-124C1380.17,-124 1371.58,-124 1363.15,-124"/>
<polygon fill="midnightblue" stroke="midnightblue" points="1388.79,-127.5 1398.79,-124 1388.79,-120.5 1388.79,-127.5"/>
</g>
<!-- Node23 -->
<g id="node23" class="node">
<title>Node23</title>
<g id="a_node23"><a xlink:href="../../d0/dfe/class_syntax_analyzer.html#addd3ca96f66a5261f904e2e0c78a898a" target="_top" xlink:title=" ">
<polygon fill="none" stroke="black" points="836,-171.5 836,-190.5 967,-190.5 967,-171.5 836,-171.5"/>
<text text-anchor="middle" x="901.5" y="-178.5" font-family="Helvetica,sans-Serif" font-size="10.00">SyntaxAnalyzer::syntaxIfSt</text>
</a>
</g>
</g>
<!-- Node20&#45;&gt;Node23 -->
<g id="edge38" class="edge">
<title>Node20&#45;&gt;Node23</title>
<path fill="none" stroke="midnightblue" d="M1409.31,-135.43C1394.33,-138.22 1378.09,-140.98 1363,-143 1222.47,-161.84 1056.47,-172.78 967.17,-177.75"/>
<polygon fill="midnightblue" stroke="midnightblue" points="1410.29,-138.81 1419.46,-133.51 1408.98,-131.93 1410.29,-138.81"/>
</g>
<!-- Node26 -->
<g id="node26" class="node">
<title>Node26</title>
<g id="a_node26"><a xlink:href="../../d0/dfe/class_syntax_analyzer.html#a35bb1125afde4b827a0dd8f3bce8dc58" target="_top" xlink:title=" ">
<polygon fill="none" stroke="black" points="827,-57.5 827,-76.5 976,-76.5 976,-57.5 827,-57.5"/>
<text text-anchor="middle" x="901.5" y="-64.5" font-family="Helvetica,sans-Serif" font-size="10.00">SyntaxAnalyzer::syntaxWhileSt</text>
</a>
</g>
</g>
<!-- Node20&#45;&gt;Node26 -->
<g id="edge39" class="edge">
<title>Node20&#45;&gt;Node26</title>
<path fill="none" stroke="midnightblue" d="M1409.31,-112.57C1394.33,-109.78 1378.09,-107.02 1363,-105 1227.04,-86.78 1067.25,-75.94 976.12,-70.76"/>
<polygon fill="midnightblue" stroke="midnightblue" points="1408.98,-116.07 1419.46,-114.49 1410.29,-109.19 1408.98,-116.07"/>
</g>
<!-- Node27 -->
<g id="node27" class="node">
<title>Node27</title>
<g id="a_node27"><a xlink:href="../../d0/dfe/class_syntax_analyzer.html#a9321de68e44f3918a71256a3c1cd481b" target="_top" xlink:title=" ">
<polygon fill="none" stroke="black" points="1215,-38.5 1215,-57.5 1356,-57.5 1356,-38.5 1215,-38.5"/>
<text text-anchor="middle" x="1285.5" y="-45.5" font-family="Helvetica,sans-Serif" font-size="10.00">SyntaxAnalyzer::syntaxCallSt</text>
</a>
</g>
</g>
<!-- Node20&#45;&gt;Node27 -->
<g id="edge34" class="edge">
<title>Node20&#45;&gt;Node27</title>
<path fill="none" stroke="midnightblue" d="M1439.52,-109.5C1419.22,-98.32 1389.85,-82.96 1363,-72 1349.6,-66.53 1334.46,-61.54 1321.21,-57.55"/>
<polygon fill="midnightblue" stroke="midnightblue" points="1438,-112.66 1448.44,-114.47 1441.41,-106.54 1438,-112.66"/>
</g>
<!-- Node22 -->
<g id="node22" class="node">
<title>Node22</title>
<g id="a_node22"><a xlink:href="../../d0/dfe/class_syntax_analyzer.html#affae37bc1fa3a4016dcffad4affbfcbd" target="_top" xlink:title=" ">
<polygon fill="none" stroke="black" points="1029.5,-114.5 1029.5,-133.5 1154.5,-133.5 1154.5,-114.5 1029.5,-114.5"/>
<text text-anchor="middle" x="1092" y="-121.5" font-family="Helvetica,sans-Serif" font-size="10.00">SyntaxAnalyzer::syntaxSt</text>
</a>
</g>
</g>
<!-- Node21&#45;&gt;Node22 -->
<g id="edge25" class="edge">
<title>Node21&#45;&gt;Node22</title>
<path fill="none" stroke="midnightblue" d="M1197.95,-124C1183.35,-124 1168.47,-124 1154.67,-124"/>
<polygon fill="midnightblue" stroke="midnightblue" points="1197.99,-127.5 1207.99,-124 1197.99,-120.5 1197.99,-127.5"/>
</g>
<!-- Node22&#45;&gt;Node23 -->
<g id="edge26" class="edge">
<title>Node22&#45;&gt;Node23</title>
<path fill="none" stroke="midnightblue" d="M1019.41,-136.49C1016.91,-137.32 1014.43,-138.16 1012,-139 995.78,-144.61 992.34,-147.73 976,-153 955.3,-159.67 930.75,-165.64 915.91,-171.44"/>
<polygon fill="midnightblue" stroke="midnightblue" points="1020.75,-139.73 1029.18,-133.32 1018.59,-133.07 1020.75,-139.73"/>
</g>
<!-- Node24 -->
<g id="node24" class="node">
<title>Node24</title>
<g id="a_node24"><a xlink:href="../../d0/dfe/class_syntax_analyzer.html#a79a0e444afd499634f445f0b8919dd0f" target="_top" xlink:title=" ">
<polygon fill="none" stroke="black" points="831,-133.5 831,-152.5 972,-152.5 972,-133.5 831,-133.5"/>
<text text-anchor="middle" x="901.5" y="-140.5" font-family="Helvetica,sans-Serif" font-size="10.00">SyntaxAnalyzer::syntaxStList</text>
</a>
</g>
</g>
<!-- Node22&#45;&gt;Node24 -->
<g id="edge28" class="edge">
<title>Node22&#45;&gt;Node24</title>
<path fill="none" stroke="midnightblue" d="M1019.28,-131.23C1003.84,-132.79 987.55,-134.43 972.2,-135.97"/>
<polygon fill="midnightblue" stroke="midnightblue" points="1019.68,-134.71 1029.28,-130.22 1018.98,-127.74 1019.68,-134.71"/>
</g>
<!-- Node22&#45;&gt;Node26 -->
<g id="edge32" class="edge">
<title>Node22&#45;&gt;Node26</title>
<path fill="none" stroke="midnightblue" d="M1063.56,-110.77C1035.03,-100.21 989.68,-86.1 954.36,-76.58"/>
<polygon fill="midnightblue" stroke="midnightblue" points="1062.68,-114.18 1073.27,-114.49 1065.18,-107.65 1062.68,-114.18"/>
</g>
<!-- Node23&#45;&gt;Node22 -->
<g id="edge27" class="edge">
<title>Node23&#45;&gt;Node22</title>
<path fill="none" stroke="midnightblue" d="M977.05,-170.47C993.64,-164.75 998.18,-161.78 1012,-157 1035.44,-148.9 1063.27,-140.78 1078.86,-133.6"/>
<polygon fill="midnightblue" stroke="midnightblue" points="975.55,-167.28 967.16,-173.74 977.75,-173.92 975.55,-167.28"/>
</g>
<!-- Node25 -->
<g id="node25" class="node">
<title>Node25</title>
<g id="a_node25"><a xlink:href="../../d0/dfe/class_syntax_analyzer.html#a2c0c19bfe9775405a5b6985cf1c8854c" target="_top" xlink:title=" ">
<polygon fill="none" stroke="black" points="620,-133.5 620,-152.5 791,-152.5 791,-133.5 620,-133.5"/>
<text text-anchor="middle" x="705.5" y="-140.5" font-family="Helvetica,sans-Serif" font-size="10.00">SyntaxAnalyzer::syntaxCompoundSt</text>
</a>
</g>
</g>
<!-- Node24&#45;&gt;Node25 -->
<g id="edge29" class="edge">
<title>Node24&#45;&gt;Node25</title>
<path fill="none" stroke="midnightblue" d="M820.7,-143C810.97,-143 801.01,-143 791.21,-143"/>
<polygon fill="midnightblue" stroke="midnightblue" points="820.74,-146.5 830.74,-143 820.74,-139.5 820.74,-146.5"/>
</g>
<!-- Node25&#45;&gt;Node9 -->
<g id="edge30" class="edge">
<title>Node25&#45;&gt;Node9</title>
<path fill="none" stroke="midnightblue" d="M671.64,-156.52C633.5,-172.23 571.55,-197.72 538.13,-211.48"/>
<polygon fill="midnightblue" stroke="midnightblue" points="673.35,-159.61 681.26,-152.56 670.68,-153.13 673.35,-159.61"/>
</g>
<!-- Node25&#45;&gt;Node22 -->
<g id="edge31" class="edge">
<title>Node25&#45;&gt;Node22</title>
<path fill="none" stroke="midnightblue" d="M765.5,-131.81C785,-128.62 806.86,-125.58 827,-124 896.11,-118.58 975.71,-119.57 1029.28,-121.28"/>
<polygon fill="midnightblue" stroke="midnightblue" points="764.82,-128.38 755.54,-133.49 765.98,-135.28 764.82,-128.38"/>
</g>
<!-- Node26&#45;&gt;Node22 -->
<g id="edge33" class="edge">
<title>Node26&#45;&gt;Node22</title>
<path fill="none" stroke="midnightblue" d="M929.94,-80.23C958.5,-90.8 1003.91,-104.92 1039.24,-114.45"/>
<polygon fill="midnightblue" stroke="midnightblue" points="930.82,-76.82 920.23,-76.51 928.31,-83.35 930.82,-76.82"/>
</g>
<!-- Node27&#45;&gt;Node17 -->
<g id="edge35" class="edge">
<title>Node27&#45;&gt;Node17</title>
<path fill="none" stroke="midnightblue" d="M1366.21,-50.2C1508.96,-54.13 1806.01,-62.31 1941.9,-66.06"/>
<polygon fill="midnightblue" stroke="midnightblue" points="1366.29,-46.7 1356.2,-49.92 1366.1,-53.69 1366.29,-46.7"/>
</g>
<!-- Node27&#45;&gt;Node22 -->
<g id="edge36" class="edge">
<title>Node27&#45;&gt;Node22</title>
<path fill="none" stroke="midnightblue" d="M1250.56,-61.47C1212.21,-76.69 1150.76,-101.08 1117.06,-114.45"/>
<polygon fill="midnightblue" stroke="midnightblue" points="1252.24,-64.57 1260.25,-57.63 1249.66,-58.06 1252.24,-64.57"/>
</g>
</g>
</svg>
