<?xml version="1.0" encoding="UTF-8" standalone="no"?>
<!DOCTYPE svg PUBLIC "-//W3C//DTD SVG 1.1//EN"
 "http://www.w3.org/Graphics/SVG/1.1/DTD/svg11.dtd">
<!-- Generated by graphviz version 3.0.0 (20220413.0106)
 -->
<!-- Title: IToken::getAdvType Pages: 1 -->
<svg width="3457pt" height="1018pt"
 viewBox="0.00 0.00 3457.00 1017.50" xmlns="http://www.w3.org/2000/svg" xmlns:xlink="http://www.w3.org/1999/xlink">
<g id="graph0" class="graph" transform="scale(1 1) rotate(0) translate(4 1013.5)">
<title>IToken::getAdvType</title>
<!-- Node1 -->
<g id="node1" class="node">
<title>Node1</title>
<g id="a_node1"><a xlink:title=" ">
<polygon fill="#bfbfbf" stroke="black" points="3346,-430 3346,-449 3449,-449 3449,-430 3346,-430"/>
<text text-anchor="middle" x="3397.5" y="-437" font-family="Helvetica,sans-Serif" font-size="10.00">IToken::getAdvType</text>
</a>
</g>
</g>
<!-- Node2 -->
<g id="node2" class="node">
<title>Node2</title>
<g id="a_node2"><a xlink:href="../../d7/d7c/class_a_s_t_factory.html#a8d1d4c9d01ab2e366d1af6bbaeaf7bef" target="_top" xlink:title=" ">
<polygon fill="none" stroke="black" points="3191,-525 3191,-544 3310,-544 3310,-525 3191,-525"/>
<text text-anchor="middle" x="3250.5" y="-532" font-family="Helvetica,sans-Serif" font-size="10.00">ASTFactory::createAST</text>
</a>
</g>
</g>
<!-- Node1&#45;&gt;Node2 -->
<g id="edge1" class="edge">
<title>Node1&#45;&gt;Node2</title>
<path fill="none" stroke="midnightblue" d="M3373.19,-454.77C3343.05,-474.52 3291.45,-508.32 3266.24,-524.84"/>
<polygon fill="midnightblue" stroke="midnightblue" points="3375.35,-457.54 3381.8,-449.13 3371.52,-451.68 3375.35,-457.54"/>
</g>
<!-- Node4 -->
<g id="node4" class="node">
<title>Node4</title>
<g id="a_node4"><a xlink:href="../../d0/dfe/class_syntax_analyzer.html#a931f1efdd45180108ad5c8a3f7fd86b2" target="_top" xlink:title=" ">
<polygon fill="none" stroke="black" points="1713.5,-468 1713.5,-487 1842.5,-487 1842.5,-468 1713.5,-468"/>
<text text-anchor="middle" x="1778" y="-475" font-family="Helvetica,sans-Serif" font-size="10.00">SyntaxAnalyzer::syntaxIter</text>
</a>
</g>
</g>
<!-- Node1&#45;&gt;Node4 -->
<g id="edge76" class="edge">
<title>Node1&#45;&gt;Node4</title>
<path fill="none" stroke="midnightblue" d="M3395.18,-459.46C3387.34,-560.37 3338.02,-1009.5 3081,-1009.5 3081,-1009.5 3081,-1009.5 2525,-1009.5 2312.29,-1009.5 2250.84,-962.47 2078,-838.5 1928.88,-731.54 1810.47,-532.91 1784.37,-487.1"/>
<polygon fill="midnightblue" stroke="midnightblue" points="3398.68,-459.62 3395.91,-449.39 3391.7,-459.11 3398.68,-459.62"/>
</g>
<!-- Node19 -->
<g id="node19" class="node">
<title>Node19</title>
<g id="a_node19"><a xlink:href="../../d0/dfe/class_syntax_analyzer.html#a3af9b5161a2cef6fdd26b0bb60334ac4" target="_top" xlink:title=" ">
<polygon fill="none" stroke="black" points="2821.5,-440 2821.5,-459 2964.5,-459 2964.5,-440 2821.5,-440"/>
<text text-anchor="middle" x="2893" y="-447" font-family="Helvetica,sans-Serif" font-size="10.00">SyntaxAnalyzer::syntaxFactor</text>
</a>
</g>
</g>
<!-- Node1&#45;&gt;Node19 -->
<g id="edge75" class="edge">
<title>Node1&#45;&gt;Node19</title>
<path fill="none" stroke="midnightblue" d="M3335.4,-440.72C3241.88,-442.58 3063.71,-446.12 2964.73,-448.09"/>
<polygon fill="midnightblue" stroke="midnightblue" points="3335.62,-444.21 3345.55,-440.51 3335.48,-437.21 3335.62,-444.21"/>
</g>
<!-- Node32 -->
<g id="node32" class="node">
<title>Node32</title>
<g id="a_node32"><a xlink:href="../../db/dc1/class_token.html#ab9a75d3f89e77051d87462654e7576de" target="_top" xlink:title=" ">
<polygon fill="none" stroke="black" points="3211.5,-161 3211.5,-180 3289.5,-180 3289.5,-161 3211.5,-161"/>
<text text-anchor="middle" x="3250.5" y="-168" font-family="Helvetica,sans-Serif" font-size="10.00">Token::getInfo</text>
</a>
</g>
</g>
<!-- Node1&#45;&gt;Node32 -->
<g id="edge73" class="edge">
<title>Node1&#45;&gt;Node32</title>
<path fill="none" stroke="midnightblue" d="M3386.55,-421.03C3358.26,-368.55 3278.05,-219.76 3256.75,-180.24"/>
<polygon fill="midnightblue" stroke="midnightblue" points="3383.51,-422.78 3391.34,-429.93 3389.68,-419.46 3383.51,-422.78"/>
</g>
<!-- Node3 -->
<g id="node3" class="node">
<title>Node3</title>
<g id="a_node3"><a xlink:href="../../d0/dfe/class_syntax_analyzer.html#a31fc5887c158652feb946f89270b4b36" target="_top" xlink:title=" ">
<polygon fill="none" stroke="black" points="1887,-354 1887,-373 2042,-373 2042,-354 1887,-354"/>
<text text-anchor="middle" x="1964.5" y="-361" font-family="Helvetica,sans-Serif" font-size="10.00">SyntaxAnalyzer::syntaxAssignSt</text>
</a>
</g>
</g>
<!-- Node2&#45;&gt;Node3 -->
<g id="edge2" class="edge">
<title>Node2&#45;&gt;Node3</title>
<path fill="none" stroke="midnightblue" d="M3247.95,-514.81C3243.15,-467.77 3224.42,-348.02 3155,-284.5 3066.14,-203.19 3014.45,-211.5 2894,-211.5 2894,-211.5 2894,-211.5 2340,-211.5 2187.73,-211.5 2024.52,-320.72 1978.33,-353.99"/>
<polygon fill="midnightblue" stroke="midnightblue" points="3244.47,-515.26 3248.87,-524.9 3251.44,-514.62 3244.47,-515.26"/>
</g>
<!-- Node2&#45;&gt;Node4 -->
<g id="edge54" class="edge">
<title>Node2&#45;&gt;Node4</title>
<path fill="none" stroke="midnightblue" d="M3232.73,-517.96C3214.97,-501.45 3185.36,-476.69 3155,-463.5 3078,-430.04 3052.44,-439.79 2969,-430.5 2691.75,-399.62 2620.96,-401.5 2342,-401.5 2342,-401.5 2342,-401.5 2157,-401.5 2023.79,-401.5 1869.27,-447.42 1807.06,-467.87"/>
<polygon fill="midnightblue" stroke="midnightblue" points="3230.36,-520.53 3240.02,-524.89 3235.19,-515.46 3230.36,-520.53"/>
</g>
<!-- Node5 -->
<g id="node5" class="node">
<title>Node5</title>
<g id="a_node5"><a xlink:href="../../d0/dfe/class_syntax_analyzer.html#a82e8472ea6d1064871de0d05eaa8b374" target="_top" xlink:title=" ">
<polygon fill="none" stroke="black" points="1530,-392 1530,-411 1669,-411 1669,-392 1530,-392"/>
<text text-anchor="middle" x="1599.5" y="-399" font-family="Helvetica,sans-Serif" font-size="10.00">SyntaxAnalyzer::syntaxForSt</text>
</a>
</g>
</g>
<!-- Node2&#45;&gt;Node5 -->
<g id="edge51" class="edge">
<title>Node2&#45;&gt;Node5</title>
<path fill="none" stroke="midnightblue" d="M3246.63,-515C3236.84,-451.24 3202.72,-250.72 3155,-209.5 3066.38,-132.95 3011.1,-173.5 2894,-173.5 2894,-173.5 2894,-173.5 1963.5,-173.5 1796.43,-173.5 1643.22,-348.84 1608.05,-391.99"/>
<polygon fill="midnightblue" stroke="midnightblue" points="3243.18,-515.57 3248.13,-524.94 3250.1,-514.53 3243.18,-515.57"/>
</g>
<!-- Node7 -->
<g id="node7" class="node">
<title>Node7</title>
<g id="a_node7"><a xlink:href="../../d0/dfe/class_syntax_analyzer.html#a779e006875d35926152773989f4b1e5a" target="_top" xlink:title=" ">
<polygon fill="none" stroke="black" points="1160,-601 1160,-620 1291,-620 1291,-601 1160,-601"/>
<text text-anchor="middle" x="1225.5" y="-608" font-family="Helvetica,sans-Serif" font-size="10.00">SyntaxAnalyzer::syntaxIfSt</text>
</a>
</g>
</g>
<!-- Node2&#45;&gt;Node7 -->
<g id="edge53" class="edge">
<title>Node2&#45;&gt;Node7</title>
<path fill="none" stroke="midnightblue" d="M3247.36,-554.34C3241.5,-598.06 3220.93,-702.69 3155,-751.5 3061.15,-820.97 3010.76,-781.5 2894,-781.5 2894,-781.5 2894,-781.5 1598.5,-781.5 1442.83,-781.5 1281.26,-656.36 1237.81,-620.18"/>
<polygon fill="midnightblue" stroke="midnightblue" points="3250.84,-554.73 3248.58,-544.38 3243.89,-553.88 3250.84,-554.73"/>
</g>
<!-- Node9 -->
<g id="node9" class="node">
<title>Node9</title>
<g id="a_node9"><a xlink:href="../../d0/dfe/class_syntax_analyzer.html#a5770afdc4d32d2c38550f27f9ffd949a" target="_top" xlink:title=" ">
<polygon fill="none" stroke="black" points="944,-544 944,-563 1115,-563 1115,-544 944,-544"/>
<text text-anchor="middle" x="1029.5" y="-551" font-family="Helvetica,sans-Serif" font-size="10.00">SyntaxAnalyzer::syntaxCompoundSt</text>
</a>
</g>
</g>
<!-- Node2&#45;&gt;Node9 -->
<g id="edge45" class="edge">
<title>Node2&#45;&gt;Node9</title>
<path fill="none" stroke="midnightblue" d="M3246.47,-514.73C3234.06,-435.18 3186.41,-141.35 3155,-114.5 3066.64,-38.97 3010.25,-97.5 2894,-97.5 2894,-97.5 2894,-97.5 1414,-97.5 1171.95,-97.5 1051.98,-478.49 1033.15,-543.98"/>
<polygon fill="midnightblue" stroke="midnightblue" points="3243.04,-515.51 3248.03,-524.86 3249.96,-514.44 3243.04,-515.51"/>
</g>
<!-- Node10 -->
<g id="node10" class="node">
<title>Node10</title>
<g id="a_node10"><a xlink:href="../../d0/dfe/class_syntax_analyzer.html#a2b54bac50e114b68e83c80d869b6ac7c" target="_top" xlink:title=" ">
<polygon fill="none" stroke="black" points="768,-848 768,-867 908,-867 908,-848 768,-848"/>
<text text-anchor="middle" x="838" y="-855" font-family="Helvetica,sans-Serif" font-size="10.00">SyntaxAnalyzer::syntaxBlock</text>
</a>
</g>
</g>
<!-- Node2&#45;&gt;Node10 -->
<g id="edge23" class="edge">
<title>Node2&#45;&gt;Node10</title>
<path fill="none" stroke="midnightblue" d="M3249.89,-554.38C3249.74,-608.3 3241.24,-758.01 3155,-828.5 3064.63,-902.36 3010.71,-857.5 2894,-857.5 2894,-857.5 2894,-857.5 1224.5,-857.5 1113.9,-857.5 985.46,-857.5 908.29,-857.5"/>
<polygon fill="midnightblue" stroke="midnightblue" points="3253.38,-554.1 3249.81,-544.12 3246.38,-554.15 3253.38,-554.1"/>
</g>
<!-- Node11 -->
<g id="node11" class="node">
<title>Node11</title>
<g id="a_node11"><a xlink:href="../../d0/dfe/class_syntax_analyzer.html#ae04232a95c6423677e600927c82851e4" target="_top" xlink:title=" ">
<polygon fill="none" stroke="black" points="580,-924 580,-943 732,-943 732,-924 580,-924"/>
<text text-anchor="middle" x="656" y="-931" font-family="Helvetica,sans-Serif" font-size="10.00">SyntaxAnalyzer::syntaxFuncDef</text>
</a>
</g>
</g>
<!-- Node2&#45;&gt;Node11 -->
<g id="edge52" class="edge">
<title>Node2&#45;&gt;Node11</title>
<path fill="none" stroke="midnightblue" d="M3245.56,-554.46C3229.61,-634.71 3170.07,-930.14 3155,-943.5 3067.7,-1020.89 3010.67,-971.5 2894,-971.5 2894,-971.5 2894,-971.5 2525,-971.5 2275.76,-971.5 2214.74,-1009.5 1965.5,-1009.5 1965.5,-1009.5 1965.5,-1009.5 1028.5,-1009.5 897.49,-1009.5 745.68,-963.58 684.57,-943.13"/>
<polygon fill="midnightblue" stroke="midnightblue" points="3249.07,-554.73 3247.58,-544.24 3242.2,-553.37 3249.07,-554.73"/>
</g>
<!-- Node12 -->
<g id="node12" class="node">
<title>Node12</title>
<g id="a_node12"><a xlink:href="../../d0/dfe/class_syntax_analyzer.html#a8b337bd5b4a90cd5bd804a936e408e4b" target="_top" xlink:title=" ">
<polygon fill="none" stroke="black" points="392,-848 392,-867 544,-867 544,-848 392,-848"/>
<text text-anchor="middle" x="468" y="-855" font-family="Helvetica,sans-Serif" font-size="10.00">SyntaxAnalyzer::syntaxProgram</text>
</a>
</g>
</g>
<!-- Node2&#45;&gt;Node12 -->
<g id="edge55" class="edge">
<title>Node2&#45;&gt;Node12</title>
<path fill="none" stroke="midnightblue" d="M3246.15,-514.78C3231.4,-428.56 3172.29,-88.39 3155,-73.5 3110.99,-35.59 2952.08,-59.5 2894,-59.5 2894,-59.5 2894,-59.5 837,-59.5 471.61,-59.5 467.81,-757.95 468.84,-847.98"/>
<polygon fill="midnightblue" stroke="midnightblue" points="3242.73,-515.53 3247.86,-524.8 3249.63,-514.36 3242.73,-515.53"/>
</g>
<!-- Node17 -->
<g id="node17" class="node">
<title>Node17</title>
<g id="a_node17"><a xlink:href="../../d0/dfe/class_syntax_analyzer.html#a64dad7f0b22b08d182483469d3a1aa79" target="_top" xlink:title=" ">
<polygon fill="none" stroke="black" points="1151,-487 1151,-506 1300,-506 1300,-487 1151,-487"/>
<text text-anchor="middle" x="1225.5" y="-494" font-family="Helvetica,sans-Serif" font-size="10.00">SyntaxAnalyzer::syntaxWhileSt</text>
</a>
</g>
</g>
<!-- Node2&#45;&gt;Node17 -->
<g id="edge72" class="edge">
<title>Node2&#45;&gt;Node17</title>
<path fill="none" stroke="midnightblue" d="M3247.48,-514.73C3239.87,-444.24 3210.45,-206.95 3155,-159.5 3066.49,-83.76 3010.49,-135.5 2894,-135.5 2894,-135.5 2894,-135.5 1598.5,-135.5 1390.61,-135.5 1255.01,-429.43 1230.5,-486.84"/>
<polygon fill="midnightblue" stroke="midnightblue" points="3244.03,-515.31 3248.55,-524.89 3250.99,-514.58 3244.03,-515.31"/>
</g>
<!-- Node18 -->
<g id="node18" class="node">
<title>Node18</title>
<g id="a_node18"><a xlink:href="../../d0/dfe/class_syntax_analyzer.html#a2db43946bee3e973ce1cf293b262e271" target="_top" xlink:title=" ">
<polygon fill="none" stroke="black" points="3009.5,-620 3009.5,-639 3150.5,-639 3150.5,-620 3009.5,-620"/>
<text text-anchor="middle" x="3080" y="-627" font-family="Helvetica,sans-Serif" font-size="10.00">SyntaxAnalyzer::syntaxCallSt</text>
</a>
</g>
</g>
<!-- Node2&#45;&gt;Node18 -->
<g id="edge24" class="edge">
<title>Node2&#45;&gt;Node18</title>
<path fill="none" stroke="midnightblue" d="M3231.74,-550.71C3213.61,-566.55 3184.06,-590.41 3155,-605.5 3143.61,-611.41 3130.49,-616.24 3118.48,-619.98"/>
<polygon fill="midnightblue" stroke="midnightblue" points="3234.08,-553.32 3239.23,-544.06 3229.43,-548.08 3234.08,-553.32"/>
</g>
<!-- Node2&#45;&gt;Node19 -->
<g id="edge50" class="edge">
<title>Node2&#45;&gt;Node19</title>
<path fill="none" stroke="midnightblue" d="M3215.52,-521.35C3197.69,-514.77 3175.37,-507.06 3155,-501.5 3087.02,-482.96 3007.42,-468.05 2954.16,-459.03"/>
<polygon fill="midnightblue" stroke="midnightblue" points="3214.33,-524.64 3224.93,-524.86 3216.78,-518.08 3214.33,-524.64"/>
</g>
<!-- Node20 -->
<g id="node20" class="node">
<title>Node20</title>
<g id="a_node20"><a xlink:href="../../d0/dfe/class_syntax_analyzer.html#a1e9b913cc8c2861927d7c05d10f1822d" target="_top" xlink:title=" ">
<polygon fill="none" stroke="black" points="2644,-506 2644,-525 2781,-525 2781,-506 2644,-506"/>
<text text-anchor="middle" x="2712.5" y="-513" font-family="Helvetica,sans-Serif" font-size="10.00">SyntaxAnalyzer::syntaxTerm</text>
</a>
</g>
</g>
<!-- Node2&#45;&gt;Node20 -->
<g id="edge59" class="edge">
<title>Node2&#45;&gt;Node20</title>
<path fill="none" stroke="midnightblue" d="M3180.56,-532.06C3077.37,-528.4 2883.95,-521.54 2781.39,-517.91"/>
<polygon fill="midnightblue" stroke="midnightblue" points="3180.74,-535.56 3190.86,-532.42 3180.99,-528.57 3180.74,-535.56"/>
</g>
<!-- Node21 -->
<g id="node21" class="node">
<title>Node21</title>
<g id="a_node21"><a xlink:href="../../d0/dfe/class_syntax_analyzer.html#a3dfb6634a4bcdc61da5b1bafd1f3d136" target="_top" xlink:title=" ">
<polygon fill="none" stroke="black" points="2444,-544 2444,-563 2608,-563 2608,-544 2444,-544"/>
<text text-anchor="middle" x="2526" y="-551" font-family="Helvetica,sans-Serif" font-size="10.00">SyntaxAnalyzer::syntaxSimpleExpr</text>
</a>
</g>
</g>
<!-- Node2&#45;&gt;Node21 -->
<g id="edge58" class="edge">
<title>Node2&#45;&gt;Node21</title>
<path fill="none" stroke="midnightblue" d="M3180.7,-538.39C3172.05,-538.8 3163.32,-539.19 3155,-539.5 2958.84,-546.87 2728.06,-550.8 2608.32,-552.48"/>
<polygon fill="midnightblue" stroke="midnightblue" points="3180.97,-541.88 3190.78,-537.89 3180.62,-534.89 3180.97,-541.88"/>
</g>
<!-- Node22 -->
<g id="node22" class="node">
<title>Node22</title>
<g id="a_node22"><a xlink:href="../../d0/dfe/class_syntax_analyzer.html#ae8d09db1b25ec882248aeed978c13a4d" target="_top" xlink:title=" ">
<polygon fill="none" stroke="black" points="2274,-544 2274,-563 2408,-563 2408,-544 2274,-544"/>
<text text-anchor="middle" x="2341" y="-551" font-family="Helvetica,sans-Serif" font-size="10.00">SyntaxAnalyzer::syntaxExpr</text>
</a>
</g>
</g>
<!-- Node2&#45;&gt;Node22 -->
<g id="edge49" class="edge">
<title>Node2&#45;&gt;Node22</title>
<path fill="none" stroke="midnightblue" d="M3204.13,-546.52C3136.92,-563.24 3006.67,-591.5 2894,-591.5 2894,-591.5 2894,-591.5 2711.5,-591.5 2592.31,-591.5 2562.22,-587.66 2444,-572.5 2425.24,-570.09 2404.71,-566.47 2387.02,-563.02"/>
<polygon fill="midnightblue" stroke="midnightblue" points="3205.13,-549.88 3213.98,-544.04 3203.42,-543.09 3205.13,-549.88"/>
</g>
<!-- Node23 -->
<g id="node23" class="node">
<title>Node23</title>
<g id="a_node23"><a xlink:href="../../d0/dfe/class_syntax_analyzer.html#adad79b2219ae143b49203a836713bec9" target="_top" xlink:title=" ">
<polygon fill="none" stroke="black" points="2078,-810 2078,-829 2238,-829 2238,-810 2078,-810"/>
<text text-anchor="middle" x="2158" y="-817" font-family="Helvetica,sans-Serif" font-size="10.00">SyntaxAnalyzer::syntaxConstDecl</text>
</a>
</g>
</g>
<!-- Node2&#45;&gt;Node23 -->
<g id="edge46" class="edge">
<title>Node2&#45;&gt;Node23</title>
<path fill="none" stroke="midnightblue" d="M3249.05,-554.24C3246.76,-604.04 3233.2,-735.11 3155,-795.5 3062.8,-866.7 3010.49,-819.5 2894,-819.5 2894,-819.5 2894,-819.5 2525,-819.5 2426.19,-819.5 2312.38,-819.5 2238.25,-819.5"/>
<polygon fill="midnightblue" stroke="midnightblue" points="3252.55,-554.27 3249.41,-544.15 3245.56,-554.02 3252.55,-554.27"/>
</g>
<!-- Node25 -->
<g id="node25" class="node">
<title>Node25</title>
<g id="a_node25"><a xlink:href="../../d0/dfe/class_syntax_analyzer.html#a55e935b2aa7f20b66e9228e977582fcd" target="_top" xlink:title=" ">
<polygon fill="none" stroke="black" points="2081.5,-544 2081.5,-563 2234.5,-563 2234.5,-544 2081.5,-544"/>
<text text-anchor="middle" x="2158" y="-551" font-family="Helvetica,sans-Serif" font-size="10.00">SyntaxAnalyzer::syntaxReturnSt</text>
</a>
</g>
</g>
<!-- Node2&#45;&gt;Node25 -->
<g id="edge56" class="edge">
<title>Node2&#45;&gt;Node25</title>
<path fill="none" stroke="midnightblue" d="M3239.47,-553.07C3224.58,-578.77 3194.14,-624.68 3155,-648.5 3053.58,-710.24 3012.73,-705.5 2894,-705.5 2894,-705.5 2894,-705.5 2711.5,-705.5 2495.62,-705.5 2248.74,-596.28 2178.53,-563.01"/>
<polygon fill="midnightblue" stroke="midnightblue" points="3242.55,-554.74 3244.4,-544.3 3236.45,-551.31 3242.55,-554.74"/>
</g>
<!-- Node26 -->
<g id="node26" class="node">
<title>Node26</title>
<g id="a_node26"><a xlink:href="../../d0/dfe/class_syntax_analyzer.html#a1264dcb50cb09c564a36125c21043298" target="_top" xlink:title=" ">
<polygon fill="none" stroke="black" points="2086.5,-354 2086.5,-373 2229.5,-373 2229.5,-354 2086.5,-354"/>
<text text-anchor="middle" x="2158" y="-361" font-family="Helvetica,sans-Serif" font-size="10.00">SyntaxAnalyzer::syntaxSelect</text>
</a>
</g>
</g>
<!-- Node2&#45;&gt;Node26 -->
<g id="edge57" class="edge">
<title>Node2&#45;&gt;Node26</title>
<path fill="none" stroke="midnightblue" d="M3248.26,-514.69C3244.18,-468.62 3226.93,-354.55 3155,-306.5 3135.75,-293.64 3237.96,-270.67 2444,-311.5 2368.21,-315.4 2346.01,-303.54 2274,-327.5 2256.21,-333.42 2255.54,-342.86 2238,-349.5 2233.57,-351.18 2228.93,-352.66 2224.2,-353.96"/>
<polygon fill="midnightblue" stroke="midnightblue" points="3244.79,-515.15 3249.04,-524.86 3251.76,-514.62 3244.79,-515.15"/>
</g>
<!-- Node27 -->
<g id="node27" class="node">
<title>Node27</title>
<g id="a_node27"><a xlink:href="../../d0/dfe/class_syntax_analyzer.html#a67bc7e3cfb57c9d4d25d60913aef3a87" target="_top" xlink:title=" ">
<polygon fill="none" stroke="black" points="2817,-734 2817,-753 2969,-753 2969,-734 2817,-734"/>
<text text-anchor="middle" x="2893" y="-741" font-family="Helvetica,sans-Serif" font-size="10.00">SyntaxAnalyzer::syntaxEmptySt</text>
</a>
</g>
</g>
<!-- Node2&#45;&gt;Node27 -->
<g id="edge47" class="edge">
<title>Node2&#45;&gt;Node27</title>
<path fill="none" stroke="midnightblue" d="M3245.9,-554.18C3237.63,-593.2 3213.29,-680.03 3155,-719.5 3094.33,-760.57 3006.74,-759.47 2950.09,-753.01"/>
<polygon fill="midnightblue" stroke="midnightblue" points="3249.35,-554.8 3247.86,-544.31 3242.48,-553.44 3249.35,-554.8"/>
</g>
<!-- Node28 -->
<g id="node28" class="node">
<title>Node28</title>
<g id="a_node28"><a xlink:href="../../d0/dfe/class_syntax_analyzer.html#a5d262eb9e2236dde3bd043eea0b0e957" target="_top" xlink:title=" ">
<polygon fill="none" stroke="black" points="1336,-944 1336,-963 1494,-963 1494,-944 1336,-944"/>
<text text-anchor="middle" x="1415" y="-951" font-family="Helvetica,sans-Serif" font-size="10.00">SyntaxAnalyzer::syntaxTypeSpec</text>
</a>
</g>
</g>
<!-- Node2&#45;&gt;Node28 -->
<g id="edge60" class="edge">
<title>Node2&#45;&gt;Node28</title>
<path fill="none" stroke="midnightblue" d="M3245.86,-554.45C3232.14,-628.64 3182.9,-885.62 3155,-909.5 3066.49,-985.24 3010.49,-933.5 2894,-933.5 2894,-933.5 2894,-933.5 2340,-933.5 2026.51,-933.5 1653.34,-945.15 1494.17,-950.67"/>
<polygon fill="midnightblue" stroke="midnightblue" points="3249.38,-554.64 3247.75,-544.17 3242.5,-553.37 3249.38,-554.64"/>
</g>
<!-- Node29 -->
<g id="node29" class="node">
<title>Node29</title>
<g id="a_node29"><a xlink:href="../../d0/dfe/class_syntax_analyzer.html#a8f6dda26a96ec0e5e75bea5eed577856" target="_top" xlink:title=" ">
<polygon fill="none" stroke="black" points="1151,-905 1151,-924 1300,-924 1300,-905 1151,-905"/>
<text text-anchor="middle" x="1225.5" y="-912" font-family="Helvetica,sans-Serif" font-size="10.00">SyntaxAnalyzer::syntaxVarDecl</text>
</a>
</g>
</g>
<!-- Node2&#45;&gt;Node29 -->
<g id="edge67" class="edge">
<title>Node2&#45;&gt;Node29</title>
<path fill="none" stroke="midnightblue" d="M3246.88,-554.37C3237.76,-620.24 3205.21,-829.68 3155,-871.5 3110.25,-908.78 2952.24,-895.5 2894,-895.5 2894,-895.5 2894,-895.5 1598.5,-895.5 1494.87,-895.5 1375.21,-902.95 1300.2,-908.51"/>
<polygon fill="midnightblue" stroke="midnightblue" points="3250.39,-554.5 3248.27,-544.12 3243.45,-553.56 3250.39,-554.5"/>
</g>
<!-- Node31 -->
<g id="node31" class="node">
<title>Node31</title>
<g id="a_node31"><a xlink:href="../../d0/dfe/class_syntax_analyzer.html#a94c8a6ab5c0e53cae22edb1a840a27ce" target="_top" xlink:title=" ">
<polygon fill="none" stroke="black" points="3005,-316 3005,-335 3155,-335 3155,-316 3005,-316"/>
<text text-anchor="middle" x="3080" y="-323" font-family="Helvetica,sans-Serif" font-size="10.00">SyntaxAnalyzer::syntaxVariable</text>
</a>
</g>
</g>
<!-- Node2&#45;&gt;Node31 -->
<g id="edge68" class="edge">
<title>Node2&#45;&gt;Node31</title>
<path fill="none" stroke="midnightblue" d="M3239.88,-515.8C3224.36,-486.61 3191.78,-429.24 3155,-387.5 3136.49,-366.5 3110.64,-346.51 3094.9,-335.16"/>
<polygon fill="midnightblue" stroke="midnightblue" points="3236.9,-517.65 3244.64,-524.88 3243.1,-514.4 3236.9,-517.65"/>
</g>
<!-- Node3&#45;&gt;Node4 -->
<g id="edge3" class="edge">
<title>Node3&#45;&gt;Node4</title>
<path fill="none" stroke="midnightblue" d="M1904.43,-376.82C1898.17,-379.71 1892.2,-383.23 1887,-387.5 1861.18,-408.71 1876.63,-432.06 1851,-453.5 1843.42,-459.84 1834.1,-464.53 1824.71,-467.98"/>
<polygon fill="midnightblue" stroke="midnightblue" points="1905.82,-380.03 1913.75,-373.01 1903.17,-373.55 1905.82,-380.03"/>
</g>
<!-- Node6 -->
<g id="node6" class="node">
<title>Node6</title>
<g id="a_node6"><a xlink:href="../../d0/dfe/class_syntax_analyzer.html#a7f54bde730006b1b863290415809ab4e" target="_top" xlink:title=" ">
<polygon fill="none" stroke="black" points="1352.5,-544 1352.5,-563 1477.5,-563 1477.5,-544 1352.5,-544"/>
<text text-anchor="middle" x="1415" y="-551" font-family="Helvetica,sans-Serif" font-size="10.00">SyntaxAnalyzer::syntaxSt</text>
</a>
</g>
</g>
<!-- Node3&#45;&gt;Node6 -->
<g id="edge22" class="edge">
<title>Node3&#45;&gt;Node6</title>
<path fill="none" stroke="midnightblue" d="M1922.37,-376.11C1910.9,-379.71 1898.44,-383.69 1887,-387.5 1716.52,-444.27 1513.37,-517.92 1442.19,-543.91"/>
<polygon fill="midnightblue" stroke="midnightblue" points="1923.65,-379.38 1932.16,-373.06 1921.57,-372.7 1923.65,-379.38"/>
</g>
<!-- Node4&#45;&gt;Node5 -->
<g id="edge4" class="edge">
<title>Node4&#45;&gt;Node5</title>
<path fill="none" stroke="midnightblue" d="M1745.26,-463.83C1709.89,-448.6 1653.61,-424.37 1622.67,-411.05"/>
<polygon fill="midnightblue" stroke="midnightblue" points="1744.08,-467.13 1754.65,-467.87 1746.85,-460.7 1744.08,-467.13"/>
</g>
<!-- Node5&#45;&gt;Node6 -->
<g id="edge5" class="edge">
<title>Node5&#45;&gt;Node6</title>
<path fill="none" stroke="midnightblue" d="M1530.55,-416.13C1530.37,-416.26 1530.18,-416.38 1530,-416.5 1476.84,-452.1 1432.56,-518.19 1419.75,-543.77"/>
<polygon fill="midnightblue" stroke="midnightblue" points="1532.39,-419.11 1539.26,-411.04 1528.86,-413.07 1532.39,-419.11"/>
</g>
<!-- Node6&#45;&gt;Node5 -->
<g id="edge6" class="edge">
<title>Node6&#45;&gt;Node5</title>
<path fill="none" stroke="midnightblue" d="M1431.73,-535.75C1451.5,-509.84 1487.98,-462.64 1530,-434.5 1546.86,-423.21 1569.6,-416.63 1584.17,-411.06"/>
<polygon fill="midnightblue" stroke="midnightblue" points="1428.75,-533.89 1425.46,-543.96 1434.31,-538.14 1428.75,-533.89"/>
</g>
<!-- Node6&#45;&gt;Node7 -->
<g id="edge7" class="edge">
<title>Node6&#45;&gt;Node7</title>
<path fill="none" stroke="midnightblue" d="M1342.46,-566.29C1340.28,-567.02 1338.12,-567.76 1336,-568.5 1319.79,-574.14 1316.34,-577.23 1300,-582.5 1279.3,-589.17 1254.75,-595.14 1239.91,-600.94"/>
<polygon fill="midnightblue" stroke="midnightblue" points="1343.72,-569.56 1352.13,-563.12 1341.54,-562.91 1343.72,-569.56"/>
</g>
<!-- Node8 -->
<g id="node8" class="node">
<title>Node8</title>
<g id="a_node8"><a xlink:href="../../d0/dfe/class_syntax_analyzer.html#a6df61a82ef9de3c17b78be89a321a087" target="_top" xlink:title=" ">
<polygon fill="none" stroke="black" points="1155,-563 1155,-582 1296,-582 1296,-563 1155,-563"/>
<text text-anchor="middle" x="1225.5" y="-570" font-family="Helvetica,sans-Serif" font-size="10.00">SyntaxAnalyzer::syntaxStList</text>
</a>
</g>
</g>
<!-- Node6&#45;&gt;Node8 -->
<g id="edge9" class="edge">
<title>Node6&#45;&gt;Node8</title>
<path fill="none" stroke="midnightblue" d="M1342.09,-560.79C1327.07,-562.31 1311.25,-563.91 1296.31,-565.43"/>
<polygon fill="midnightblue" stroke="midnightblue" points="1342.75,-564.24 1352.35,-559.75 1342.04,-557.27 1342.75,-564.24"/>
</g>
<!-- Node6&#45;&gt;Node17 -->
<g id="edge20" class="edge">
<title>Node6&#45;&gt;Node17</title>
<path fill="none" stroke="midnightblue" d="M1386.71,-540.27C1358.33,-529.71 1313.21,-515.6 1278.08,-506.08"/>
<polygon fill="midnightblue" stroke="midnightblue" points="1385.77,-543.66 1396.36,-543.99 1388.29,-537.13 1385.77,-543.66"/>
</g>
<!-- Node7&#45;&gt;Node6 -->
<g id="edge8" class="edge">
<title>Node7&#45;&gt;Node6</title>
<path fill="none" stroke="midnightblue" d="M1301.05,-599.97C1317.64,-594.26 1322.19,-591.3 1336,-586.5 1359.15,-578.45 1386.63,-570.32 1402.02,-563.12"/>
<polygon fill="midnightblue" stroke="midnightblue" points="1299.56,-596.78 1291.16,-603.24 1301.75,-603.43 1299.56,-596.78"/>
</g>
<!-- Node8&#45;&gt;Node9 -->
<g id="edge10" class="edge">
<title>Node8&#45;&gt;Node9</title>
<path fill="none" stroke="midnightblue" d="M1144.7,-564.68C1134.97,-563.73 1125.01,-562.76 1115.21,-561.8"/>
<polygon fill="midnightblue" stroke="midnightblue" points="1144.44,-568.18 1154.74,-565.67 1145.12,-561.21 1144.44,-568.18"/>
</g>
<!-- Node9&#45;&gt;Node6 -->
<g id="edge19" class="edge">
<title>Node9&#45;&gt;Node6</title>
<path fill="none" stroke="midnightblue" d="M1125.47,-553.5C1196.35,-553.5 1291.14,-553.5 1352.38,-553.5"/>
<polygon fill="midnightblue" stroke="midnightblue" points="1125.19,-550 1115.19,-553.5 1125.19,-557 1125.19,-550"/>
</g>
<!-- Node9&#45;&gt;Node10 -->
<g id="edge11" class="edge">
<title>Node9&#45;&gt;Node10</title>
<path fill="none" stroke="midnightblue" d="M1016.93,-572.07C980.93,-629.81 871.74,-804.97 844.97,-847.92"/>
<polygon fill="midnightblue" stroke="midnightblue" points="1020.09,-573.61 1022.41,-563.27 1014.15,-569.91 1020.09,-573.61"/>
</g>
<!-- Node10&#45;&gt;Node11 -->
<g id="edge12" class="edge">
<title>Node10&#45;&gt;Node11</title>
<path fill="none" stroke="midnightblue" d="M804.63,-871.17C768.56,-886.4 711.16,-910.63 679.61,-923.95"/>
<polygon fill="midnightblue" stroke="midnightblue" points="806.35,-874.24 814.2,-867.13 803.63,-867.79 806.35,-874.24"/>
</g>
<!-- Node10&#45;&gt;Node12 -->
<g id="edge18" class="edge">
<title>Node10&#45;&gt;Node12</title>
<path fill="none" stroke="midnightblue" d="M757.46,-857.5C694.21,-857.5 606.34,-857.5 544.24,-857.5"/>
<polygon fill="midnightblue" stroke="midnightblue" points="757.78,-861 767.78,-857.5 757.78,-854 757.78,-861"/>
</g>
<!-- Node11&#45;&gt;Node12 -->
<g id="edge13" class="edge">
<title>Node11&#45;&gt;Node12</title>
<path fill="none" stroke="midnightblue" d="M622.03,-920.03C584.78,-904.81 525.1,-880.42 492.37,-867.05"/>
<polygon fill="midnightblue" stroke="midnightblue" points="620.86,-923.33 631.44,-923.87 623.51,-916.85 620.86,-923.33"/>
</g>
<!-- Node13 -->
<g id="node13" class="node">
<title>Node13</title>
<g id="a_node13"><a xlink:href="../../d0/dfe/class_syntax_analyzer.html#a96cd5f6a041dae613d1c75175e26592e" target="_top" xlink:title="Синтаксический анализ токенов, переданных анализатору.">
<polygon fill="none" stroke="black" points="213,-848 213,-867 356,-867 356,-848 213,-848"/>
<text text-anchor="middle" x="284.5" y="-855" font-family="Helvetica,sans-Serif" font-size="10.00">SyntaxAnalyzer::parseTokens</text>
</a>
</g>
</g>
<!-- Node12&#45;&gt;Node13 -->
<g id="edge14" class="edge">
<title>Node12&#45;&gt;Node13</title>
<path fill="none" stroke="midnightblue" d="M381.84,-857.5C373.26,-857.5 364.61,-857.5 356.21,-857.5"/>
<polygon fill="midnightblue" stroke="midnightblue" points="381.87,-861 391.87,-857.5 381.87,-854 381.87,-861"/>
</g>
<!-- Node14 -->
<g id="node14" class="node">
<title>Node14</title>
<g id="a_node14"><a xlink:href="../../d1/d80/namespace_analyze.html#a1597f9f086c3276d0287917efbed14b8" target="_top" xlink:title=" ">
<polygon fill="none" stroke="black" points="74,-867 74,-886 177,-886 177,-867 74,-867"/>
<text text-anchor="middle" x="125.5" y="-874" font-family="Helvetica,sans-Serif" font-size="10.00">Analyze::analyzeFile</text>
</a>
</g>
</g>
<!-- Node13&#45;&gt;Node14 -->
<g id="edge15" class="edge">
<title>Node13&#45;&gt;Node14</title>
<path fill="none" stroke="midnightblue" d="M202.61,-867.29C193.92,-868.34 185.26,-869.39 177.08,-870.38"/>
<polygon fill="midnightblue" stroke="midnightblue" points="203.3,-870.73 212.81,-866.06 202.46,-863.78 203.3,-870.73"/>
</g>
<!-- Node16 -->
<g id="node16" class="node">
<title>Node16</title>
<g id="a_node16"><a xlink:href="../../db/df9/test_semantic_8cpp.html#a804faf7fd199a3c491020f1f2caa618b" target="_top" xlink:title="Тест семантического анализа Паскаля">
<polygon fill="none" stroke="black" points="105,-829 105,-848 146,-848 146,-829 105,-829"/>
<text text-anchor="middle" x="125.5" y="-836" font-family="Helvetica,sans-Serif" font-size="10.00">TEST</text>
</a>
</g>
</g>
<!-- Node13&#45;&gt;Node16 -->
<g id="edge17" class="edge">
<title>Node13&#45;&gt;Node16</title>
<path fill="none" stroke="midnightblue" d="M202.76,-847.73C181.6,-845.17 160.65,-842.63 146.08,-840.87"/>
<polygon fill="midnightblue" stroke="midnightblue" points="202.46,-851.22 212.81,-848.94 203.3,-844.27 202.46,-851.22"/>
</g>
<!-- Node15 -->
<g id="node15" class="node">
<title>Node15</title>
<g id="a_node15"><a xlink:href="../../d3/db4/graph_draw_8cpp.html#a3c04138a5bfe5d72780bb7e82a18e627" target="_top" xlink:title=" ">
<polygon fill="none" stroke="black" points="0,-867 0,-886 38,-886 38,-867 0,-867"/>
<text text-anchor="middle" x="19" y="-874" font-family="Helvetica,sans-Serif" font-size="10.00">main</text>
</a>
</g>
</g>
<!-- Node14&#45;&gt;Node15 -->
<g id="edge16" class="edge">
<title>Node14&#45;&gt;Node15</title>
<path fill="none" stroke="midnightblue" d="M63.7,-876.5C54.49,-876.5 45.64,-876.5 38.35,-876.5"/>
<polygon fill="midnightblue" stroke="midnightblue" points="63.78,-880 73.78,-876.5 63.78,-873 63.78,-880"/>
</g>
<!-- Node17&#45;&gt;Node6 -->
<g id="edge21" class="edge">
<title>Node17&#45;&gt;Node6</title>
<path fill="none" stroke="midnightblue" d="M1254.19,-509.87C1282.55,-520.41 1327.32,-534.4 1362.27,-543.88"/>
<polygon fill="midnightblue" stroke="midnightblue" points="1255.12,-506.48 1244.53,-506.16 1252.61,-513.02 1255.12,-506.48"/>
</g>
<!-- Node18&#45;&gt;Node6 -->
<g id="edge44" class="edge">
<title>Node18&#45;&gt;Node6</title>
<path fill="none" stroke="midnightblue" d="M3020.38,-641.13C3015.17,-642.24 3009.99,-643.37 3005,-644.5 2988.91,-648.14 2985.31,-651.04 2969,-653.5 2856.55,-670.48 2827.23,-667.5 2713.5,-667.5 2713.5,-667.5 2713.5,-667.5 1777,-667.5 1638.65,-667.5 1483.74,-590.42 1433.05,-563.02"/>
<polygon fill="midnightblue" stroke="midnightblue" points="3021.3,-644.51 3030.37,-639.03 3019.86,-637.66 3021.3,-644.51"/>
</g>
<!-- Node18&#45;&gt;Node19 -->
<g id="edge25" class="edge">
<title>Node18&#45;&gt;Node19</title>
<path fill="none" stroke="midnightblue" d="M3061.79,-612.75C3023.85,-575.84 2934.05,-488.47 2904,-459.23"/>
<polygon fill="midnightblue" stroke="midnightblue" points="3059.45,-615.36 3069.05,-619.82 3064.33,-610.34 3059.45,-615.36"/>
</g>
<!-- Node19&#45;&gt;Node4 -->
<g id="edge27" class="edge">
<title>Node19&#45;&gt;Node4</title>
<path fill="none" stroke="midnightblue" d="M2811,-451.54C2599.45,-456.86 2033.53,-471.1 1842.78,-475.9"/>
<polygon fill="midnightblue" stroke="midnightblue" points="2811.2,-455.03 2821.11,-451.28 2811.02,-448.04 2811.2,-455.03"/>
</g>
<!-- Node19&#45;&gt;Node19 -->
<g id="edge26" class="edge">
<title>Node19&#45;&gt;Node19</title>
<path fill="none" stroke="midnightblue" d="M2926.73,-467.39C2926.24,-473.04 2914.99,-477.5 2893,-477.5 2861.01,-477.5 2851.76,-468.07 2865.26,-459.26"/>
<polygon fill="midnightblue" stroke="midnightblue" points="2929.49,-465.23 2920.74,-459.26 2923.85,-469.38 2929.49,-465.23"/>
</g>
<!-- Node19&#45;&gt;Node20 -->
<g id="edge28" class="edge">
<title>Node19&#45;&gt;Node20</title>
<path fill="none" stroke="midnightblue" d="M2857.41,-462.79C2835.54,-471.15 2806.66,-482.08 2781,-491.5 2767.81,-496.34 2753.11,-501.58 2740.8,-505.93"/>
<polygon fill="midnightblue" stroke="midnightblue" points="2858.84,-465.99 2866.93,-459.15 2856.34,-459.46 2858.84,-465.99"/>
</g>
<!-- Node20&#45;&gt;Node21 -->
<g id="edge29" class="edge">
<title>Node20&#45;&gt;Node21</title>
<path fill="none" stroke="midnightblue" d="M2655.13,-527.11C2628.89,-532.51 2598.06,-538.86 2573.22,-543.98"/>
<polygon fill="midnightblue" stroke="midnightblue" points="2655.85,-530.53 2664.94,-525.09 2654.44,-523.68 2655.85,-530.53"/>
</g>
<!-- Node21&#45;&gt;Node22 -->
<g id="edge30" class="edge">
<title>Node21&#45;&gt;Node22</title>
<path fill="none" stroke="midnightblue" d="M2433.81,-553.5C2425.17,-553.5 2416.53,-553.5 2408.19,-553.5"/>
<polygon fill="midnightblue" stroke="midnightblue" points="2433.93,-557 2443.93,-553.5 2433.93,-550 2433.93,-557"/>
</g>
<!-- Node22&#45;&gt;Node3 -->
<g id="edge31" class="edge">
<title>Node22&#45;&gt;Node3</title>
<path fill="none" stroke="midnightblue" d="M2312.12,-539.26C2291.62,-528.8 2263.09,-514.25 2238,-501.5 2142.74,-453.1 2028.61,-395.39 1984.34,-373.02"/>
<polygon fill="midnightblue" stroke="midnightblue" points="2310.71,-542.47 2321.21,-543.9 2313.89,-536.24 2310.71,-542.47"/>
</g>
<!-- Node22&#45;&gt;Node7 -->
<g id="edge37" class="edge">
<title>Node22&#45;&gt;Node7</title>
<path fill="none" stroke="midnightblue" d="M2284.76,-564.98C2269.66,-567.8 2253.24,-570.56 2238,-572.5 2117.57,-587.86 2086.91,-591.5 1965.5,-591.5 1965.5,-591.5 1965.5,-591.5 1598.5,-591.5 1490.67,-591.5 1365.48,-599.56 1291.3,-605.18"/>
<polygon fill="midnightblue" stroke="midnightblue" points="2285.82,-568.35 2294.98,-563.03 2284.51,-561.47 2285.82,-568.35"/>
</g>
<!-- Node22&#45;&gt;Node17 -->
<g id="edge43" class="edge">
<title>Node22&#45;&gt;Node17</title>
<path fill="none" stroke="midnightblue" d="M2284.76,-542.02C2269.66,-539.2 2253.24,-536.44 2238,-534.5 2117.57,-519.14 2086.91,-515.5 1965.5,-515.5 1965.5,-515.5 1965.5,-515.5 1598.5,-515.5 1494.87,-515.5 1375.21,-508.05 1300.2,-502.49"/>
<polygon fill="midnightblue" stroke="midnightblue" points="2284.51,-545.53 2294.98,-543.97 2285.82,-538.65 2284.51,-545.53"/>
</g>
<!-- Node22&#45;&gt;Node18 -->
<g id="edge32" class="edge">
<title>Node22&#45;&gt;Node18</title>
<path fill="none" stroke="midnightblue" d="M2364.71,-568.73C2384.66,-581.19 2414.94,-597.94 2444,-605.5 2643.92,-657.53 2891.11,-646.29 3009.46,-636.49"/>
<polygon fill="midnightblue" stroke="midnightblue" points="2366.37,-565.64 2356.06,-563.19 2362.59,-571.53 2366.37,-565.64"/>
</g>
<!-- Node22&#45;&gt;Node19 -->
<g id="edge36" class="edge">
<title>Node22&#45;&gt;Node19</title>
<path fill="none" stroke="midnightblue" d="M2402.22,-542.11C2511.45,-521.46 2740.29,-478.19 2841.73,-459.01"/>
<polygon fill="midnightblue" stroke="midnightblue" points="2401.52,-538.68 2392.35,-543.98 2402.82,-545.56 2401.52,-538.68"/>
</g>
<!-- Node22&#45;&gt;Node23 -->
<g id="edge33" class="edge">
<title>Node22&#45;&gt;Node23</title>
<path fill="none" stroke="midnightblue" d="M2327.52,-571.83C2292.15,-623.82 2192.07,-770.91 2165.53,-809.91"/>
<polygon fill="midnightblue" stroke="midnightblue" points="2330.61,-573.52 2333.34,-563.28 2324.82,-569.58 2330.61,-573.52"/>
</g>
<!-- Node22&#45;&gt;Node25 -->
<g id="edge38" class="edge">
<title>Node22&#45;&gt;Node25</title>
<path fill="none" stroke="midnightblue" d="M2263.62,-553.5C2254.06,-553.5 2244.29,-553.5 2234.74,-553.5"/>
<polygon fill="midnightblue" stroke="midnightblue" points="2263.89,-557 2273.89,-553.5 2263.89,-550 2263.89,-557"/>
</g>
<!-- Node22&#45;&gt;Node26 -->
<g id="edge40" class="edge">
<title>Node22&#45;&gt;Node26</title>
<path fill="none" stroke="midnightblue" d="M2327.67,-535.46C2309.59,-509.64 2274.1,-461.33 2238,-425.5 2217.21,-404.87 2189.69,-384.61 2173.22,-373.13"/>
<polygon fill="midnightblue" stroke="midnightblue" points="2324.94,-537.66 2333.51,-543.89 2330.69,-533.67 2324.94,-537.66"/>
</g>
<!-- Node24 -->
<g id="node24" class="node">
<title>Node24</title>
<g id="a_node24"><a xlink:href="../../d0/dfe/class_syntax_analyzer.html#a58a0f927ad0a45e4ce837a98e98330aa" target="_top" xlink:title=" ">
<polygon fill="none" stroke="black" points="1705,-810 1705,-829 1851,-829 1851,-810 1705,-810"/>
<text text-anchor="middle" x="1778" y="-817" font-family="Helvetica,sans-Serif" font-size="10.00">SyntaxAnalyzer::syntaxConsts</text>
</a>
</g>
</g>
<!-- Node23&#45;&gt;Node24 -->
<g id="edge34" class="edge">
<title>Node23&#45;&gt;Node24</title>
<path fill="none" stroke="midnightblue" d="M2067.36,-819.5C2001.3,-819.5 1912.61,-819.5 1851.11,-819.5"/>
<polygon fill="midnightblue" stroke="midnightblue" points="2067.76,-823 2077.76,-819.5 2067.76,-816 2067.76,-823"/>
</g>
<!-- Node24&#45;&gt;Node10 -->
<g id="edge35" class="edge">
<title>Node24&#45;&gt;Node10</title>
<path fill="none" stroke="midnightblue" d="M1694.66,-819.5C1621.49,-819.5 1511.62,-819.5 1416,-819.5 1416,-819.5 1416,-819.5 1224.5,-819.5 1108.66,-819.5 974.18,-836.7 898.59,-847.96"/>
<polygon fill="midnightblue" stroke="midnightblue" points="1694.74,-823 1704.74,-819.5 1694.74,-816 1694.74,-823"/>
</g>
<!-- Node25&#45;&gt;Node6 -->
<g id="edge39" class="edge">
<title>Node25&#45;&gt;Node6</title>
<path fill="none" stroke="midnightblue" d="M2071.01,-553.5C1919.75,-553.5 1609.62,-553.5 1477.65,-553.5"/>
<polygon fill="midnightblue" stroke="midnightblue" points="2071.18,-557 2081.18,-553.5 2071.18,-550 2071.18,-557"/>
</g>
<!-- Node26&#45;&gt;Node3 -->
<g id="edge41" class="edge">
<title>Node26&#45;&gt;Node3</title>
<path fill="none" stroke="midnightblue" d="M2076.01,-363.5C2064.77,-363.5 2053.24,-363.5 2042.09,-363.5"/>
<polygon fill="midnightblue" stroke="midnightblue" points="2076.24,-367 2086.24,-363.5 2076.24,-360 2076.24,-367"/>
</g>
<!-- Node26&#45;&gt;Node19 -->
<g id="edge42" class="edge">
<title>Node26&#45;&gt;Node19</title>
<path fill="none" stroke="midnightblue" d="M2239.88,-368.62C2358.91,-376.81 2588.03,-395.12 2781,-425.5 2805.15,-429.3 2831.95,-435.05 2853.16,-439.97"/>
<polygon fill="midnightblue" stroke="midnightblue" points="2239.97,-365.11 2229.76,-367.93 2239.5,-372.1 2239.97,-365.11"/>
</g>
<!-- Node27&#45;&gt;Node6 -->
<g id="edge48" class="edge">
<title>Node27&#45;&gt;Node6</title>
<path fill="none" stroke="midnightblue" d="M2806.66,-743.5C2732.69,-743.5 2622.78,-743.5 2527,-743.5 2527,-743.5 2527,-743.5 1777,-743.5 1663.82,-743.5 1626.81,-740.13 1530,-681.5 1478.07,-650.05 1436.51,-587.44 1421.77,-563.31"/>
<polygon fill="midnightblue" stroke="midnightblue" points="2806.85,-747 2816.85,-743.5 2806.85,-740 2806.85,-747"/>
</g>
<!-- Node28&#45;&gt;Node11 -->
<g id="edge61" class="edge">
<title>Node28&#45;&gt;Node11</title>
<path fill="none" stroke="midnightblue" d="M1325.67,-952.92C1201.23,-951.83 967.22,-948.78 768,-940.5 756.42,-940.02 744.18,-939.38 732.21,-938.68"/>
<polygon fill="midnightblue" stroke="midnightblue" points="1325.88,-956.42 1335.91,-953.01 1325.94,-949.42 1325.88,-956.42"/>
</g>
<!-- Node28&#45;&gt;Node28 -->
<g id="edge62" class="edge">
<title>Node28&#45;&gt;Node28</title>
<path fill="none" stroke="midnightblue" d="M1449.48,-971.39C1448.98,-977.04 1437.48,-981.5 1415,-981.5 1382.3,-981.5 1372.84,-972.07 1386.64,-963.26"/>
<polygon fill="midnightblue" stroke="midnightblue" points="1452.17,-969.14 1443.36,-963.26 1446.58,-973.35 1452.17,-969.14"/>
</g>
<!-- Node28&#45;&gt;Node29 -->
<g id="edge63" class="edge">
<title>Node28&#45;&gt;Node29</title>
<path fill="none" stroke="midnightblue" d="M1358.28,-941.91C1330.84,-936.2 1298.17,-929.41 1272.22,-924.01"/>
<polygon fill="midnightblue" stroke="midnightblue" points="1357.63,-945.35 1368.13,-943.96 1359.05,-938.5 1357.63,-945.35"/>
</g>
<!-- Node29&#45;&gt;Node11 -->
<g id="edge64" class="edge">
<title>Node29&#45;&gt;Node11</title>
<path fill="none" stroke="midnightblue" d="M1140.81,-917.3C1030.53,-920.99 838.19,-927.43 732.29,-930.98"/>
<polygon fill="midnightblue" stroke="midnightblue" points="1141.01,-920.8 1150.89,-916.96 1140.78,-913.8 1141.01,-920.8"/>
</g>
<!-- Node30 -->
<g id="node30" class="node">
<title>Node30</title>
<g id="a_node30"><a xlink:href="../../d0/dfe/class_syntax_analyzer.html#a738f9b4cb7edf93c56af1b6974caad1a" target="_top" xlink:title=" ">
<polygon fill="none" stroke="black" points="962,-886 962,-905 1097,-905 1097,-886 962,-886"/>
<text text-anchor="middle" x="1029.5" y="-893" font-family="Helvetica,sans-Serif" font-size="10.00">SyntaxAnalyzer::syntaxVars</text>
</a>
</g>
</g>
<!-- Node29&#45;&gt;Node30 -->
<g id="edge65" class="edge">
<title>Node29&#45;&gt;Node30</title>
<path fill="none" stroke="midnightblue" d="M1140.83,-906.31C1126.2,-904.87 1111.15,-903.4 1097.06,-902.02"/>
<polygon fill="midnightblue" stroke="midnightblue" points="1140.59,-909.8 1150.88,-907.29 1141.27,-902.83 1140.59,-909.8"/>
</g>
<!-- Node30&#45;&gt;Node10 -->
<g id="edge66" class="edge">
<title>Node30&#45;&gt;Node10</title>
<path fill="none" stroke="midnightblue" d="M970.61,-883.89C943.65,-878.49 911.99,-872.14 886.47,-867.02"/>
<polygon fill="midnightblue" stroke="midnightblue" points="970.19,-887.38 980.68,-885.91 971.56,-880.51 970.19,-887.38"/>
</g>
<!-- Node31&#45;&gt;Node3 -->
<g id="edge69" class="edge">
<title>Node31&#45;&gt;Node3</title>
<path fill="none" stroke="midnightblue" d="M2994.61,-322.36C2985.96,-322.06 2977.31,-321.77 2969,-321.5 2573.07,-308.82 2470.86,-293.69 2078,-344.5 2057.96,-347.09 2036.03,-350.63 2016.9,-353.96"/>
<polygon fill="midnightblue" stroke="midnightblue" points="2994.63,-325.86 3004.74,-322.71 2994.87,-318.86 2994.63,-325.86"/>
</g>
<!-- Node31&#45;&gt;Node19 -->
<g id="edge70" class="edge">
<title>Node31&#45;&gt;Node19</title>
<path fill="none" stroke="midnightblue" d="M3029.74,-338.26C3021.22,-341.36 3012.65,-345.09 3005,-349.5 2960.97,-374.91 2919.29,-420.03 2902.18,-439.78"/>
<polygon fill="midnightblue" stroke="midnightblue" points="3030.94,-341.55 3039.29,-335.02 3028.69,-334.92 3030.94,-341.55"/>
</g>
<!-- Node31&#45;&gt;Node26 -->
<g id="edge71" class="edge">
<title>Node31&#45;&gt;Node26</title>
<path fill="none" stroke="midnightblue" d="M2994.59,-325.5C2920.51,-325.5 2809.86,-325.5 2713.5,-325.5 2713.5,-325.5 2713.5,-325.5 2525,-325.5 2414.96,-325.5 2287.3,-342.7 2215.55,-353.96"/>
<polygon fill="midnightblue" stroke="midnightblue" points="2994.8,-329 3004.8,-325.5 2994.8,-322 2994.8,-329"/>
</g>
<!-- Node33 -->
<g id="node33" class="node">
<title>Node33</title>
<g id="a_node33"><a xlink:href="../../df/d7c/class_analyze_exception.html#aa4e8534e7478ad3fed1904b669a17363" target="_top" xlink:title=" ">
<polygon fill="none" stroke="black" points="3014.5,-0.5 3014.5,-30.5 3145.5,-30.5 3145.5,-0.5 3014.5,-0.5"/>
<text text-anchor="start" x="3022.5" y="-18.5" font-family="Helvetica,sans-Serif" font-size="10.00">AnalyzeException::Analyze</text>
<text text-anchor="middle" x="3080" y="-7.5" font-family="Helvetica,sans-Serif" font-size="10.00">Exception</text>
</a>
</g>
</g>
<!-- Node32&#45;&gt;Node33 -->
<g id="edge74" class="edge">
<title>Node32&#45;&gt;Node33</title>
<path fill="none" stroke="midnightblue" d="M3239.73,-151.87C3224.79,-125 3193.86,-75.3 3155,-45.5 3147.3,-39.59 3138.28,-34.67 3129.23,-30.64"/>
<polygon fill="midnightblue" stroke="midnightblue" points="3236.82,-153.84 3244.66,-160.97 3242.97,-150.51 3236.82,-153.84"/>
</g>
</g>
</svg>
