<?xml version="1.0" encoding="UTF-8" standalone="no"?>
<!DOCTYPE svg PUBLIC "-//W3C//DTD SVG 1.1//EN"
 "http://www.w3.org/Graphics/SVG/1.1/DTD/svg11.dtd">
<!-- Generated by graphviz version 3.0.0 (20220413.0106)
 -->
<!-- Title: IToken::getType Pages: 1 -->
<svg width="3128pt" height="1170pt"
 viewBox="0.00 0.00 3128.00 1169.50" xmlns="http://www.w3.org/2000/svg" xmlns:xlink="http://www.w3.org/1999/xlink">
<g id="graph0" class="graph" transform="scale(1 1) rotate(0) translate(4 1165.5)">
<title>IToken::getType</title>
<!-- Node1 -->
<g id="node1" class="node">
<title>Node1</title>
<g id="a_node1"><a xlink:title="Получение типа токена">
<polygon fill="#bfbfbf" stroke="black" points="3034,-278 3034,-297 3120,-297 3120,-278 3034,-278"/>
<text text-anchor="middle" x="3077" y="-285" font-family="Helvetica,sans-Serif" font-size="10.00">IToken::getType</text>
</a>
</g>
</g>
<!-- Node2 -->
<g id="node2" class="node">
<title>Node2</title>
<g id="a_node2"><a xlink:href="../../da/d5a/class_lexer.html#a473a8abf892384a3e2769651318d7ab1" target="_top" xlink:title="Анализирует текст программы">
<polygon fill="none" stroke="black" points="2865,-1085 2865,-1104 2998,-1104 2998,-1085 2865,-1085"/>
<text text-anchor="middle" x="2931.5" y="-1092" font-family="Helvetica,sans-Serif" font-size="10.00">Lexer::analyzeProgramText</text>
</a>
</g>
</g>
<!-- Node1&#45;&gt;Node2 -->
<g id="edge1" class="edge">
<title>Node1&#45;&gt;Node2</title>
<path fill="none" stroke="midnightblue" d="M3075.13,-307.34C3069.98,-422.04 3042.06,-997.41 2998,-1061.5 2990.5,-1072.41 2978.28,-1079.9 2966.42,-1084.96"/>
<polygon fill="midnightblue" stroke="midnightblue" points="3078.64,-307.34 3075.58,-297.19 3071.64,-307.03 3078.64,-307.34"/>
</g>
<!-- Node8 -->
<g id="node8" class="node">
<title>Node8</title>
<g id="a_node8"><a xlink:href="../../d7/d7c/class_a_s_t_factory.html#a8d1d4c9d01ab2e366d1af6bbaeaf7bef" target="_top" xlink:title=" ">
<polygon fill="none" stroke="black" points="2872,-582 2872,-601 2991,-601 2991,-582 2872,-582"/>
<text text-anchor="middle" x="2931.5" y="-589" font-family="Helvetica,sans-Serif" font-size="10.00">ASTFactory::createAST</text>
</a>
</g>
</g>
<!-- Node1&#45;&gt;Node8 -->
<g id="edge7" class="edge">
<title>Node1&#45;&gt;Node8</title>
<path fill="none" stroke="midnightblue" d="M3067.07,-306.43C3039.64,-364.54 2957.25,-539.06 2937.02,-581.92"/>
<polygon fill="midnightblue" stroke="midnightblue" points="3070.28,-307.81 3071.39,-297.27 3063.95,-304.82 3070.28,-307.81"/>
</g>
<!-- Node10 -->
<g id="node10" class="node">
<title>Node10</title>
<g id="a_node10"><a xlink:href="../../d0/dfe/class_syntax_analyzer.html#aea3a3d1860938d64edf651bdc4016c04" target="_top" xlink:title=" ">
<polygon fill="none" stroke="black" points="1569,-544 1569,-563 1708,-563 1708,-544 1569,-544"/>
<text text-anchor="middle" x="1638.5" y="-551" font-family="Helvetica,sans-Serif" font-size="10.00">SyntaxAnalyzer::syntaxIterSt</text>
</a>
</g>
</g>
<!-- Node1&#45;&gt;Node10 -->
<g id="edge76" class="edge">
<title>Node1&#45;&gt;Node10</title>
<path fill="none" stroke="midnightblue" d="M3076.38,-307.44C3077.45,-423.76 3067.12,-1009.5 2750,-1009.5 2750,-1009.5 2750,-1009.5 2198,-1009.5 1959.76,-1009.5 1901.73,-903.05 1744,-724.5 1695.86,-670 1656.67,-590.52 1643.91,-563.16"/>
<polygon fill="midnightblue" stroke="midnightblue" points="3079.87,-307.11 3076.24,-297.16 3072.87,-307.21 3079.87,-307.11"/>
</g>
<!-- Node17 -->
<g id="node17" class="node">
<title>Node17</title>
<g id="a_node17"><a xlink:href="../../d0/dfe/class_syntax_analyzer.html#ae04232a95c6423677e600927c82851e4" target="_top" xlink:title=" ">
<polygon fill="none" stroke="black" points="444,-943 444,-962 596,-962 596,-943 444,-943"/>
<text text-anchor="middle" x="520" y="-950" font-family="Helvetica,sans-Serif" font-size="10.00">SyntaxAnalyzer::syntaxFuncDef</text>
</a>
</g>
</g>
<!-- Node1&#45;&gt;Node17 -->
<g id="edge75" class="edge">
<title>Node1&#45;&gt;Node17</title>
<path fill="none" stroke="midnightblue" d="M3075.7,-307.24C3073.98,-401.22 3062.85,-802.96 2998,-906.5 2930.7,-1013.95 2876.79,-1047.5 2750,-1047.5 2750,-1047.5 2750,-1047.5 892.5,-1047.5 775.08,-1047.5 744.21,-1038.09 632,-1003.5 597.34,-992.82 559.46,-973.65 538.12,-962.1"/>
<polygon fill="midnightblue" stroke="midnightblue" points="3079.21,-307.19 3075.88,-297.14 3072.21,-307.07 3079.21,-307.19"/>
</g>
<!-- Node23 -->
<g id="node23" class="node">
<title>Node23</title>
<g id="a_node23"><a xlink:href="../../d0/dfe/class_syntax_analyzer.html#a3af9b5161a2cef6fdd26b0bb60334ac4" target="_top" xlink:title=" ">
<polygon fill="none" stroke="black" points="2490,-354 2490,-373 2633,-373 2633,-354 2490,-354"/>
<text text-anchor="middle" x="2561.5" y="-361" font-family="Helvetica,sans-Serif" font-size="10.00">SyntaxAnalyzer::syntaxFactor</text>
</a>
</g>
</g>
<!-- Node1&#45;&gt;Node23 -->
<g id="edge74" class="edge">
<title>Node1&#45;&gt;Node23</title>
<path fill="none" stroke="midnightblue" d="M3024.08,-295.18C2929.59,-309.17 2729.8,-338.74 2626.84,-353.98"/>
<polygon fill="midnightblue" stroke="midnightblue" points="3024.6,-298.65 3033.98,-293.72 3023.57,-291.72 3024.6,-298.65"/>
</g>
<!-- Node24 -->
<g id="node24" class="node">
<title>Node24</title>
<g id="a_node24"><a xlink:href="../../d0/dfe/class_syntax_analyzer.html#a1e9b913cc8c2861927d7c05d10f1822d" target="_top" xlink:title=" ">
<polygon fill="none" stroke="black" points="2317,-316 2317,-335 2454,-335 2454,-316 2317,-316"/>
<text text-anchor="middle" x="2385.5" y="-323" font-family="Helvetica,sans-Serif" font-size="10.00">SyntaxAnalyzer::syntaxTerm</text>
</a>
</g>
</g>
<!-- Node1&#45;&gt;Node24 -->
<g id="edge78" class="edge">
<title>Node1&#45;&gt;Node24</title>
<path fill="none" stroke="midnightblue" d="M3023.8,-289.47C2981.09,-291.14 2919.12,-293.71 2865,-296.5 2718.51,-304.06 2546.92,-314.96 2454.23,-321.01"/>
<polygon fill="midnightblue" stroke="midnightblue" points="3024.1,-292.96 3033.95,-289.07 3023.83,-285.96 3024.1,-292.96"/>
</g>
<!-- Node25 -->
<g id="node25" class="node">
<title>Node25</title>
<g id="a_node25"><a xlink:href="../../d0/dfe/class_syntax_analyzer.html#a3dfb6634a4bcdc61da5b1bafd1f3d136" target="_top" xlink:title=" ">
<polygon fill="none" stroke="black" points="2117,-297 2117,-316 2281,-316 2281,-297 2117,-297"/>
<text text-anchor="middle" x="2199" y="-304" font-family="Helvetica,sans-Serif" font-size="10.00">SyntaxAnalyzer::syntaxSimpleExpr</text>
</a>
</g>
</g>
<!-- Node1&#45;&gt;Node25 -->
<g id="edge77" class="edge">
<title>Node1&#45;&gt;Node25</title>
<path fill="none" stroke="midnightblue" d="M3057.08,-271.4C3009.13,-232.29 2877.57,-135.5 2750,-135.5 2750,-135.5 2750,-135.5 2560.5,-135.5 2408.8,-135.5 2252.82,-260.64 2210.91,-296.82"/>
<polygon fill="midnightblue" stroke="midnightblue" points="3055.11,-274.31 3065.04,-277.99 3059.57,-268.92 3055.11,-274.31"/>
</g>
<!-- Node26 -->
<g id="node26" class="node">
<title>Node26</title>
<g id="a_node26"><a xlink:href="../../d0/dfe/class_syntax_analyzer.html#ae8d09db1b25ec882248aeed978c13a4d" target="_top" xlink:title=" ">
<polygon fill="none" stroke="black" points="1941,-392 1941,-411 2075,-411 2075,-392 1941,-392"/>
<text text-anchor="middle" x="2008" y="-399" font-family="Helvetica,sans-Serif" font-size="10.00">SyntaxAnalyzer::syntaxExpr</text>
</a>
</g>
</g>
<!-- Node1&#45;&gt;Node26 -->
<g id="edge73" class="edge">
<title>Node1&#45;&gt;Node26</title>
<path fill="none" stroke="midnightblue" d="M3069.85,-268.2C3059.68,-239.48 3036.55,-185.84 2998,-157.5 2906.63,-90.34 2863.4,-97.5 2750,-97.5 2750,-97.5 2750,-97.5 2384.5,-97.5 2192.84,-97.5 2044.16,-339.7 2014.43,-391.73"/>
<polygon fill="midnightblue" stroke="midnightblue" points="3066.61,-269.53 3073.12,-277.88 3073.24,-267.29 3066.61,-269.53"/>
</g>
<!-- Node35 -->
<g id="node35" class="node">
<title>Node35</title>
<g id="a_node35"><a xlink:href="../../db/dc1/class_token.html#ab9a75d3f89e77051d87462654e7576de" target="_top" xlink:title=" ">
<polygon fill="none" stroke="black" points="2892.5,-28 2892.5,-47 2970.5,-47 2970.5,-28 2892.5,-28"/>
<text text-anchor="middle" x="2931.5" y="-35" font-family="Helvetica,sans-Serif" font-size="10.00">Token::getInfo</text>
</a>
</g>
</g>
<!-- Node1&#45;&gt;Node35 -->
<g id="edge71" class="edge">
<title>Node1&#45;&gt;Node35</title>
<path fill="none" stroke="midnightblue" d="M3072.54,-268.07C3064.86,-229.46 3043.39,-141.76 2998,-83.5 2985.7,-67.72 2966.51,-55.13 2952.08,-47.15"/>
<polygon fill="midnightblue" stroke="midnightblue" points="3069.12,-268.82 3074.42,-278 3076,-267.52 3069.12,-268.82"/>
</g>
<!-- Node3 -->
<g id="node3" class="node">
<title>Node3</title>
<g id="a_node3"><a xlink:href="../../da/d5a/class_lexer.html#a240680b247c9b95a1bbd802716b20f39" target="_top" xlink:title="Анализирует файл">
<polygon fill="none" stroke="black" points="2702.5,-1104 2702.5,-1123 2795.5,-1123 2795.5,-1104 2702.5,-1104"/>
<text text-anchor="middle" x="2749" y="-1111" font-family="Helvetica,sans-Serif" font-size="10.00">Lexer::analyzeFile</text>
</a>
</g>
</g>
<!-- Node2&#45;&gt;Node3 -->
<g id="edge2" class="edge">
<title>Node2&#45;&gt;Node3</title>
<path fill="none" stroke="midnightblue" d="M2854.74,-1102.48C2834.62,-1104.59 2813.53,-1106.81 2795.58,-1108.7"/>
<polygon fill="midnightblue" stroke="midnightblue" points="2855.25,-1105.94 2864.82,-1101.41 2854.51,-1098.98 2855.25,-1105.94"/>
</g>
<!-- Node4 -->
<g id="node4" class="node">
<title>Node4</title>
<g id="a_node4"><a xlink:href="../../d0/d0f/test_lexer__1_8cpp.html#a685fd1876eec959aa220812db64464f1" target="_top" xlink:title=" ">
<polygon fill="none" stroke="black" points="2520,-1076 2520,-1095 2603,-1095 2603,-1076 2520,-1076"/>
<text text-anchor="middle" x="2561.5" y="-1083" font-family="Helvetica,sans-Serif" font-size="10.00">checkEqualLex</text>
</a>
</g>
</g>
<!-- Node3&#45;&gt;Node4 -->
<g id="edge3" class="edge">
<title>Node3&#45;&gt;Node4</title>
<path fill="none" stroke="midnightblue" d="M2691.88,-1105.03C2663.27,-1100.71 2629.13,-1095.56 2603.1,-1091.63"/>
<polygon fill="midnightblue" stroke="midnightblue" points="2691.74,-1108.55 2702.15,-1106.58 2692.78,-1101.63 2691.74,-1108.55"/>
</g>
<!-- Node6 -->
<g id="node6" class="node">
<title>Node6</title>
<g id="a_node6"><a xlink:href="../../d3/db4/graph_draw_8cpp.html#a3c04138a5bfe5d72780bb7e82a18e627" target="_top" xlink:title=" ">
<polygon fill="none" stroke="black" points="1.5,-1091 1.5,-1110 39.5,-1110 39.5,-1091 1.5,-1091"/>
<text text-anchor="middle" x="20.5" y="-1098" font-family="Helvetica,sans-Serif" font-size="10.00">main</text>
</a>
</g>
</g>
<!-- Node3&#45;&gt;Node6 -->
<g id="edge5" class="edge">
<title>Node3&#45;&gt;Node6</title>
<path fill="none" stroke="midnightblue" d="M2706.23,-1125.86C2684.56,-1131.8 2657.56,-1138.49 2633,-1142.5 2524.56,-1160.22 2496.38,-1161.5 2386.5,-1161.5 2386.5,-1161.5 2386.5,-1161.5 331,-1161.5 218.46,-1161.5 87.16,-1122.19 39.74,-1106.68"/>
<polygon fill="midnightblue" stroke="midnightblue" points="2707.4,-1129.16 2716.09,-1123.1 2705.51,-1122.42 2707.4,-1129.16"/>
</g>
<!-- Node7 -->
<g id="node7" class="node">
<title>Node7</title>
<g id="a_node7"><a xlink:href="../../d0/d0f/test_lexer__1_8cpp.html#ab32b6906cc4e6cc339e245f6bd671744" target="_top" xlink:title="Тест разбора сложной программы на Pascal.">
<polygon fill="none" stroke="black" points="2541,-1114 2541,-1133 2582,-1133 2582,-1114 2541,-1114"/>
<text text-anchor="middle" x="2561.5" y="-1121" font-family="Helvetica,sans-Serif" font-size="10.00">TEST</text>
</a>
</g>
</g>
<!-- Node3&#45;&gt;Node7 -->
<g id="edge6" class="edge">
<title>Node3&#45;&gt;Node7</title>
<path fill="none" stroke="midnightblue" d="M2691.95,-1116.52C2654.81,-1118.52 2608.33,-1121.03 2582.38,-1122.43"/>
<polygon fill="midnightblue" stroke="midnightblue" points="2692.35,-1120.01 2702.15,-1115.97 2691.97,-1113.02 2692.35,-1120.01"/>
</g>
<!-- Node5 -->
<g id="node5" class="node">
<title>Node5</title>
<g id="a_node5"><a xlink:href="../../d0/d0f/test_lexer__1_8cpp.html#a42b988f5ceb814376db8a2df3c933b15" target="_top" xlink:title="Тест разбора простых математических выражений">
<polygon fill="none" stroke="black" points="2365,-1076 2365,-1095 2406,-1095 2406,-1076 2365,-1076"/>
<text text-anchor="middle" x="2385.5" y="-1083" font-family="Helvetica,sans-Serif" font-size="10.00">TEST</text>
</a>
</g>
</g>
<!-- Node4&#45;&gt;Node5 -->
<g id="edge4" class="edge">
<title>Node4&#45;&gt;Node5</title>
<path fill="none" stroke="midnightblue" d="M2509.29,-1085.5C2474.69,-1085.5 2430.94,-1085.5 2406.1,-1085.5"/>
<polygon fill="midnightblue" stroke="midnightblue" points="2509.7,-1089 2519.7,-1085.5 2509.7,-1082 2509.7,-1089"/>
</g>
<!-- Node9 -->
<g id="node9" class="node">
<title>Node9</title>
<g id="a_node9"><a xlink:href="../../d0/dfe/class_syntax_analyzer.html#a31fc5887c158652feb946f89270b4b36" target="_top" xlink:title=" ">
<polygon fill="none" stroke="black" points="1744,-506 1744,-525 1899,-525 1899,-506 1744,-506"/>
<text text-anchor="middle" x="1821.5" y="-513" font-family="Helvetica,sans-Serif" font-size="10.00">SyntaxAnalyzer::syntaxAssignSt</text>
</a>
</g>
</g>
<!-- Node8&#45;&gt;Node9 -->
<g id="edge8" class="edge">
<title>Node8&#45;&gt;Node9</title>
<path fill="none" stroke="midnightblue" d="M2861.75,-591.5C2787.83,-591.5 2666.84,-591.5 2562.5,-591.5 2562.5,-591.5 2562.5,-591.5 2198,-591.5 2065.64,-591.5 1912.16,-545.58 1850.37,-525.13"/>
<polygon fill="midnightblue" stroke="midnightblue" points="2861.86,-595 2871.86,-591.5 2861.86,-588 2861.86,-595"/>
</g>
<!-- Node8&#45;&gt;Node10 -->
<g id="edge55" class="edge">
<title>Node8&#45;&gt;Node10</title>
<path fill="none" stroke="midnightblue" d="M2863.58,-602.59C2790,-613.81 2668.16,-629.5 2562.5,-629.5 2562.5,-629.5 2562.5,-629.5 2007,-629.5 1877.35,-629.5 1727.2,-583.58 1666.76,-563.13"/>
<polygon fill="midnightblue" stroke="midnightblue" points="2864.29,-606.02 2873.64,-601.04 2863.22,-599.11 2864.29,-606.02"/>
</g>
<!-- Node11 -->
<g id="node11" class="node">
<title>Node11</title>
<g id="a_node11"><a xlink:href="../../d0/dfe/class_syntax_analyzer.html#a82e8472ea6d1064871de0d05eaa8b374" target="_top" xlink:title=" ">
<polygon fill="none" stroke="black" points="1394,-544 1394,-563 1533,-563 1533,-544 1394,-544"/>
<text text-anchor="middle" x="1463.5" y="-551" font-family="Helvetica,sans-Serif" font-size="10.00">SyntaxAnalyzer::syntaxForSt</text>
</a>
</g>
</g>
<!-- Node8&#45;&gt;Node11 -->
<g id="edge52" class="edge">
<title>Node8&#45;&gt;Node11</title>
<path fill="none" stroke="midnightblue" d="M2900.14,-605.27C2880.28,-613.75 2853.55,-624.17 2829,-630.5 2713.21,-660.36 2682.08,-667.5 2562.5,-667.5 2562.5,-667.5 2562.5,-667.5 1820.5,-667.5 1683.89,-667.5 1531.24,-590.42 1481.29,-563.02"/>
<polygon fill="midnightblue" stroke="midnightblue" points="2901.8,-608.36 2909.58,-601.17 2899.01,-601.94 2901.8,-608.36"/>
</g>
<!-- Node13 -->
<g id="node13" class="node">
<title>Node13</title>
<g id="a_node13"><a xlink:href="../../d0/dfe/class_syntax_analyzer.html#a779e006875d35926152773989f4b1e5a" target="_top" xlink:title=" ">
<polygon fill="none" stroke="black" points="1024,-453 1024,-472 1155,-472 1155,-453 1024,-453"/>
<text text-anchor="middle" x="1089.5" y="-460" font-family="Helvetica,sans-Serif" font-size="10.00">SyntaxAnalyzer::syntaxIfSt</text>
</a>
</g>
</g>
<!-- Node8&#45;&gt;Node13 -->
<g id="edge54" class="edge">
<title>Node8&#45;&gt;Node13</title>
<path fill="none" stroke="midnightblue" d="M2930.11,-571.53C2927.9,-517.97 2914.01,-370.32 2829,-297.5 2737.6,-219.21 2682.85,-249.5 2562.5,-249.5 2562.5,-249.5 2562.5,-249.5 1637.5,-249.5 1410.24,-249.5 1163.84,-411.13 1104.1,-452.79"/>
<polygon fill="midnightblue" stroke="midnightblue" points="2926.62,-571.84 2930.43,-581.73 2933.61,-571.62 2926.62,-571.84"/>
</g>
<!-- Node15 -->
<g id="node15" class="node">
<title>Node15</title>
<g id="a_node15"><a xlink:href="../../d0/dfe/class_syntax_analyzer.html#a5770afdc4d32d2c38550f27f9ffd949a" target="_top" xlink:title=" ">
<polygon fill="none" stroke="black" points="808,-677 808,-696 979,-696 979,-677 808,-677"/>
<text text-anchor="middle" x="893.5" y="-684" font-family="Helvetica,sans-Serif" font-size="10.00">SyntaxAnalyzer::syntaxCompoundSt</text>
</a>
</g>
</g>
<!-- Node8&#45;&gt;Node15 -->
<g id="edge44" class="edge">
<title>Node8&#45;&gt;Node15</title>
<path fill="none" stroke="midnightblue" d="M2924.06,-611.17C2911.69,-645.5 2881.11,-715.83 2829,-748.5 2727.88,-811.9 2681.85,-781.5 2562.5,-781.5 2562.5,-781.5 2562.5,-781.5 1278,-781.5 1137.04,-781.5 975.27,-720.28 916.93,-696.13"/>
<polygon fill="midnightblue" stroke="midnightblue" points="2927.48,-611.97 2927.44,-601.38 2920.87,-609.69 2927.48,-611.97"/>
</g>
<!-- Node16 -->
<g id="node16" class="node">
<title>Node16</title>
<g id="a_node16"><a xlink:href="../../d0/dfe/class_syntax_analyzer.html#a2b54bac50e114b68e83c80d869b6ac7c" target="_top" xlink:title=" ">
<polygon fill="none" stroke="black" points="632,-867 632,-886 772,-886 772,-867 632,-867"/>
<text text-anchor="middle" x="702" y="-874" font-family="Helvetica,sans-Serif" font-size="10.00">SyntaxAnalyzer::syntaxBlock</text>
</a>
</g>
</g>
<!-- Node8&#45;&gt;Node16 -->
<g id="edge28" class="edge">
<title>Node8&#45;&gt;Node16</title>
<path fill="none" stroke="midnightblue" d="M2926.34,-611.05C2916.8,-650.68 2889.35,-740.31 2829,-782.5 2731,-851.02 2682.08,-819.5 2562.5,-819.5 2562.5,-819.5 2562.5,-819.5 1088.5,-819.5 960.29,-819.5 810.66,-850.73 741.57,-866.96"/>
<polygon fill="midnightblue" stroke="midnightblue" points="2929.81,-611.6 2928.62,-601.07 2922.98,-610.04 2929.81,-611.6"/>
</g>
<!-- Node8&#45;&gt;Node17 -->
<g id="edge53" class="edge">
<title>Node8&#45;&gt;Node17</title>
<path fill="none" stroke="midnightblue" d="M2924.54,-610.96C2912.85,-649.27 2886.19,-737.21 2865,-811.5 2848.32,-869.98 2875.33,-904.11 2829,-943.5 2738.26,-1020.64 2681.6,-971.5 2562.5,-971.5 2562.5,-971.5 2562.5,-971.5 2198,-971.5 1949.2,-971.5 1888.3,-1009.5 1639.5,-1009.5 1639.5,-1009.5 1639.5,-1009.5 892.5,-1009.5 768.85,-1009.5 624.7,-978.27 558.15,-962.04"/>
<polygon fill="midnightblue" stroke="midnightblue" points="2927.97,-611.71 2927.55,-601.13 2921.28,-609.67 2927.97,-611.71"/>
</g>
<!-- Node18 -->
<g id="node18" class="node">
<title>Node18</title>
<g id="a_node18"><a xlink:href="../../d0/dfe/class_syntax_analyzer.html#a8b337bd5b4a90cd5bd804a936e408e4b" target="_top" xlink:title=" ">
<polygon fill="none" stroke="black" points="256,-915 256,-934 408,-934 408,-915 256,-915"/>
<text text-anchor="middle" x="332" y="-922" font-family="Helvetica,sans-Serif" font-size="10.00">SyntaxAnalyzer::syntaxProgram</text>
</a>
</g>
</g>
<!-- Node8&#45;&gt;Node18 -->
<g id="edge56" class="edge">
<title>Node8&#45;&gt;Node18</title>
<path fill="none" stroke="midnightblue" d="M2928.16,-571.73C2918.93,-496.8 2882.9,-231.34 2829,-168.5 2745.68,-71.37 2690.47,-59.5 2562.5,-59.5 2562.5,-59.5 2562.5,-59.5 701,-59.5 505.16,-59.5 353.08,-819.75 334.84,-914.79"/>
<polygon fill="midnightblue" stroke="midnightblue" points="2924.69,-572.2 2929.37,-581.71 2931.64,-571.36 2924.69,-572.2"/>
</g>
<!-- Node21 -->
<g id="node21" class="node">
<title>Node21</title>
<g id="a_node21"><a xlink:href="../../d0/dfe/class_syntax_analyzer.html#a64dad7f0b22b08d182483469d3a1aa79" target="_top" xlink:title=" ">
<polygon fill="none" stroke="black" points="1015,-377 1015,-396 1164,-396 1164,-377 1015,-377"/>
<text text-anchor="middle" x="1089.5" y="-384" font-family="Helvetica,sans-Serif" font-size="10.00">SyntaxAnalyzer::syntaxWhileSt</text>
</a>
</g>
</g>
<!-- Node8&#45;&gt;Node21 -->
<g id="edge70" class="edge">
<title>Node8&#45;&gt;Node21</title>
<path fill="none" stroke="midnightblue" d="M2931.12,-571.74C2931.83,-512.32 2925.48,-333.64 2829,-240.5 2741.13,-155.67 2684.63,-173.5 2562.5,-173.5 2562.5,-173.5 2562.5,-173.5 1462.5,-173.5 1296.54,-173.5 1137.44,-335.13 1099.18,-376.79"/>
<polygon fill="midnightblue" stroke="midnightblue" points="2927.61,-571.9 2930.9,-581.97 2934.61,-572.05 2927.61,-571.9"/>
</g>
<!-- Node22 -->
<g id="node22" class="node">
<title>Node22</title>
<g id="a_node22"><a xlink:href="../../d0/dfe/class_syntax_analyzer.html#a2db43946bee3e973ce1cf293b262e271" target="_top" xlink:title=" ">
<polygon fill="none" stroke="black" points="2678.5,-444 2678.5,-463 2819.5,-463 2819.5,-444 2678.5,-444"/>
<text text-anchor="middle" x="2749" y="-451" font-family="Helvetica,sans-Serif" font-size="10.00">SyntaxAnalyzer::syntaxCallSt</text>
</a>
</g>
</g>
<!-- Node8&#45;&gt;Node22 -->
<g id="edge29" class="edge">
<title>Node8&#45;&gt;Node22</title>
<path fill="none" stroke="midnightblue" d="M2919.18,-573.15C2902.55,-547.69 2869.07,-501.93 2829,-476.5 2819.95,-470.76 2809.43,-466.41 2799.07,-463.13"/>
<polygon fill="midnightblue" stroke="midnightblue" points="2916.39,-575.28 2924.72,-581.83 2922.29,-571.51 2916.39,-575.28"/>
</g>
<!-- Node8&#45;&gt;Node23 -->
<g id="edge51" class="edge">
<title>Node8&#45;&gt;Node23</title>
<path fill="none" stroke="midnightblue" d="M2923.58,-572.54C2910.46,-539.31 2878.75,-470.67 2829,-434.5 2795.21,-409.93 2683.66,-385.87 2616.06,-373.04"/>
<polygon fill="midnightblue" stroke="midnightblue" points="2920.35,-573.9 2927.19,-582 2926.89,-571.41 2920.35,-573.9"/>
</g>
<!-- Node8&#45;&gt;Node24 -->
<g id="edge59" class="edge">
<title>Node8&#45;&gt;Node24</title>
<path fill="none" stroke="midnightblue" d="M2927.12,-571.62C2918.78,-529.13 2893.07,-429.41 2829,-380.5 2758.6,-326.76 2720.83,-355.92 2633,-344.5 2572.77,-336.67 2503.81,-331.69 2454.18,-328.8"/>
<polygon fill="midnightblue" stroke="midnightblue" points="2923.7,-572.36 2928.95,-581.56 2930.58,-571.09 2923.7,-572.36"/>
</g>
<!-- Node8&#45;&gt;Node25 -->
<g id="edge58" class="edge">
<title>Node8&#45;&gt;Node25</title>
<path fill="none" stroke="midnightblue" d="M2929.04,-571.75C2924.31,-523.62 2904.98,-400.11 2829,-343.5 2744.52,-280.55 2431.05,-291.39 2281.03,-300.61"/>
<polygon fill="midnightblue" stroke="midnightblue" points="2925.56,-572.14 2929.91,-581.79 2932.53,-571.53 2925.56,-572.14"/>
</g>
<!-- Node8&#45;&gt;Node26 -->
<g id="edge50" class="edge">
<title>Node8&#45;&gt;Node26</title>
<path fill="none" stroke="midnightblue" d="M2873.29,-579.91C2740.43,-552.95 2400.68,-483.82 2117,-424.5 2096.08,-420.12 2072.89,-415.2 2053.39,-411.03"/>
<polygon fill="midnightblue" stroke="midnightblue" points="2872.75,-583.37 2883.25,-581.93 2874.15,-576.51 2872.75,-583.37"/>
</g>
<!-- Node27 -->
<g id="node27" class="node">
<title>Node27</title>
<g id="a_node27"><a xlink:href="../../d0/dfe/class_syntax_analyzer.html#a55e935b2aa7f20b66e9228e977582fcd" target="_top" xlink:title=" ">
<polygon fill="none" stroke="black" points="1745,-696 1745,-715 1898,-715 1898,-696 1745,-696"/>
<text text-anchor="middle" x="1821.5" y="-703" font-family="Helvetica,sans-Serif" font-size="10.00">SyntaxAnalyzer::syntaxReturnSt</text>
</a>
</g>
</g>
<!-- Node8&#45;&gt;Node27 -->
<g id="edge57" class="edge">
<title>Node8&#45;&gt;Node27</title>
<path fill="none" stroke="midnightblue" d="M2916.71,-609.25C2898.99,-630.58 2866.06,-665.5 2829,-681.5 2719.82,-728.64 2681.42,-705.5 2562.5,-705.5 2562.5,-705.5 2562.5,-705.5 2198,-705.5 2094.02,-705.5 1973.84,-705.5 1898.02,-705.5"/>
<polygon fill="midnightblue" stroke="midnightblue" points="2919.58,-611.27 2923.14,-601.29 2914.13,-606.87 2919.58,-611.27"/>
</g>
<!-- Node28 -->
<g id="node28" class="node">
<title>Node28</title>
<g id="a_node28"><a xlink:href="../../d0/dfe/class_syntax_analyzer.html#adad79b2219ae143b49203a836713bec9" target="_top" xlink:title=" ">
<polygon fill="none" stroke="black" points="2669,-848 2669,-867 2829,-867 2829,-848 2669,-848"/>
<text text-anchor="middle" x="2749" y="-855" font-family="Helvetica,sans-Serif" font-size="10.00">SyntaxAnalyzer::syntaxConstDecl</text>
</a>
</g>
</g>
<!-- Node8&#45;&gt;Node28 -->
<g id="edge45" class="edge">
<title>Node8&#45;&gt;Node28</title>
<path fill="none" stroke="midnightblue" d="M2927.96,-611.1C2920.99,-656.93 2897.28,-771.87 2829,-833.5 2821.98,-839.84 2813.32,-844.51 2804.35,-847.94"/>
<polygon fill="midnightblue" stroke="midnightblue" points="2931.46,-611.41 2929.39,-601.01 2924.53,-610.42 2931.46,-611.41"/>
</g>
<!-- Node30 -->
<g id="node30" class="node">
<title>Node30</title>
<g id="a_node30"><a xlink:href="../../d0/dfe/class_syntax_analyzer.html#a67bc7e3cfb57c9d4d25d60913aef3a87" target="_top" xlink:title=" ">
<polygon fill="none" stroke="black" points="2123,-734 2123,-753 2275,-753 2275,-734 2123,-734"/>
<text text-anchor="middle" x="2199" y="-741" font-family="Helvetica,sans-Serif" font-size="10.00">SyntaxAnalyzer::syntaxEmptySt</text>
</a>
</g>
</g>
<!-- Node8&#45;&gt;Node30 -->
<g id="edge48" class="edge">
<title>Node8&#45;&gt;Node30</title>
<path fill="none" stroke="midnightblue" d="M2922.04,-610.45C2907.71,-639.93 2875.61,-695.87 2829,-719.5 2734.21,-767.56 2420.37,-756.44 2275.05,-748.33"/>
<polygon fill="midnightblue" stroke="midnightblue" points="2925.29,-611.76 2926.36,-601.22 2918.95,-608.79 2925.29,-611.76"/>
</g>
<!-- Node31 -->
<g id="node31" class="node">
<title>Node31</title>
<g id="a_node31"><a xlink:href="../../d0/dfe/class_syntax_analyzer.html#a5d262eb9e2236dde3bd043eea0b0e957" target="_top" xlink:title=" ">
<polygon fill="none" stroke="black" points="1200,-924 1200,-943 1358,-943 1358,-924 1200,-924"/>
<text text-anchor="middle" x="1279" y="-931" font-family="Helvetica,sans-Serif" font-size="10.00">SyntaxAnalyzer::syntaxTypeSpec</text>
</a>
</g>
</g>
<!-- Node8&#45;&gt;Node31 -->
<g id="edge60" class="edge">
<title>Node8&#45;&gt;Node31</title>
<path fill="none" stroke="midnightblue" d="M2924.56,-611.12C2903.75,-679.67 2835.13,-904.59 2829,-909.5 2736.22,-983.89 2681.42,-933.5 2562.5,-933.5 2562.5,-933.5 2562.5,-933.5 1637.5,-933.5 1541.3,-933.5 1430.53,-933.5 1358.11,-933.5"/>
<polygon fill="midnightblue" stroke="midnightblue" points="2928.01,-611.78 2927.57,-601.19 2921.32,-609.75 2928.01,-611.78"/>
</g>
<!-- Node32 -->
<g id="node32" class="node">
<title>Node32</title>
<g id="a_node32"><a xlink:href="../../d0/dfe/class_syntax_analyzer.html#a8f6dda26a96ec0e5e75bea5eed577856" target="_top" xlink:title=" ">
<polygon fill="none" stroke="black" points="1015,-905 1015,-924 1164,-924 1164,-905 1015,-905"/>
<text text-anchor="middle" x="1089.5" y="-912" font-family="Helvetica,sans-Serif" font-size="10.00">SyntaxAnalyzer::syntaxVarDecl</text>
</a>
</g>
</g>
<!-- Node8&#45;&gt;Node32 -->
<g id="edge66" class="edge">
<title>Node8&#45;&gt;Node32</title>
<path fill="none" stroke="midnightblue" d="M2924.92,-610.91C2907.1,-672.34 2851.34,-859.52 2829,-876.5 2781.73,-912.43 2621.87,-895.5 2562.5,-895.5 2562.5,-895.5 2562.5,-895.5 1462.5,-895.5 1358.87,-895.5 1239.21,-902.95 1164.2,-908.51"/>
<polygon fill="midnightblue" stroke="midnightblue" points="2928.3,-611.84 2927.71,-601.26 2921.57,-609.9 2928.3,-611.84"/>
</g>
<!-- Node34 -->
<g id="node34" class="node">
<title>Node34</title>
<g id="a_node34"><a xlink:href="../../d0/dfe/class_syntax_analyzer.html#a94c8a6ab5c0e53cae22edb1a840a27ce" target="_top" xlink:title=" ">
<polygon fill="none" stroke="black" points="2674,-486 2674,-505 2824,-505 2824,-486 2674,-486"/>
<text text-anchor="middle" x="2749" y="-493" font-family="Helvetica,sans-Serif" font-size="10.00">SyntaxAnalyzer::syntaxVariable</text>
</a>
</g>
</g>
<!-- Node8&#45;&gt;Node34 -->
<g id="edge67" class="edge">
<title>Node8&#45;&gt;Node34</title>
<path fill="none" stroke="midnightblue" d="M2911.58,-575.22C2892.04,-559.13 2860.09,-534.75 2829,-519.5 2816.9,-513.57 2803.04,-508.76 2790.33,-505.04"/>
<polygon fill="midnightblue" stroke="midnightblue" points="2909.49,-578.04 2919.4,-581.77 2913.98,-572.67 2909.49,-578.04"/>
</g>
<!-- Node9&#45;&gt;Node10 -->
<g id="edge9" class="edge">
<title>Node9&#45;&gt;Node10</title>
<path fill="none" stroke="midnightblue" d="M1764.86,-527.18C1739.19,-532.57 1709.11,-538.89 1684.85,-543.98"/>
<polygon fill="midnightblue" stroke="midnightblue" points="1765.76,-530.57 1774.83,-525.09 1764.32,-523.72 1765.76,-530.57"/>
</g>
<!-- Node12 -->
<g id="node12" class="node">
<title>Node12</title>
<g id="a_node12"><a xlink:href="../../d0/dfe/class_syntax_analyzer.html#a7f54bde730006b1b863290415809ab4e" target="_top" xlink:title=" ">
<polygon fill="none" stroke="black" points="1216.5,-525 1216.5,-544 1341.5,-544 1341.5,-525 1216.5,-525"/>
<text text-anchor="middle" x="1279" y="-532" font-family="Helvetica,sans-Serif" font-size="10.00">SyntaxAnalyzer::syntaxSt</text>
</a>
</g>
</g>
<!-- Node9&#45;&gt;Node12 -->
<g id="edge27" class="edge">
<title>Node9&#45;&gt;Node12</title>
<path fill="none" stroke="midnightblue" d="M1733.87,-518.55C1624.15,-522.4 1437.82,-528.95 1341.59,-532.33"/>
<polygon fill="midnightblue" stroke="midnightblue" points="1734.05,-522.04 1743.92,-518.19 1733.8,-515.05 1734.05,-522.04"/>
</g>
<!-- Node10&#45;&gt;Node11 -->
<g id="edge10" class="edge">
<title>Node10&#45;&gt;Node11</title>
<path fill="none" stroke="midnightblue" d="M1558.41,-553.5C1549.97,-553.5 1541.44,-553.5 1533.13,-553.5"/>
<polygon fill="midnightblue" stroke="midnightblue" points="1558.63,-557 1568.63,-553.5 1558.63,-550 1558.63,-557"/>
</g>
<!-- Node11&#45;&gt;Node12 -->
<g id="edge11" class="edge">
<title>Node11&#45;&gt;Node12</title>
<path fill="none" stroke="midnightblue" d="M1414.79,-542.52C1392.49,-539.38 1365.66,-536.45 1341.83,-534.51"/>
<polygon fill="midnightblue" stroke="midnightblue" points="1414.28,-545.98 1424.69,-543.97 1415.3,-539.06 1414.28,-545.98"/>
</g>
<!-- Node12&#45;&gt;Node11 -->
<g id="edge12" class="edge">
<title>Node12&#45;&gt;Node11</title>
<path fill="none" stroke="midnightblue" d="M1327.9,-545.51C1348.03,-548.34 1371.82,-550.99 1393.76,-552.91"/>
<polygon fill="midnightblue" stroke="midnightblue" points="1328.14,-542.01 1317.74,-544.02 1327.13,-548.93 1328.14,-542.01"/>
</g>
<!-- Node12&#45;&gt;Node13 -->
<g id="edge13" class="edge">
<title>Node12&#45;&gt;Node13</title>
<path fill="none" stroke="midnightblue" d="M1253.66,-520.44C1222.27,-506.02 1167.27,-484.6 1129.89,-472.01"/>
<polygon fill="midnightblue" stroke="midnightblue" points="1252.44,-523.73 1262.97,-524.85 1255.44,-517.4 1252.44,-523.73"/>
</g>
<!-- Node14 -->
<g id="node14" class="node">
<title>Node14</title>
<g id="a_node14"><a xlink:href="../../d0/dfe/class_syntax_analyzer.html#a6df61a82ef9de3c17b78be89a321a087" target="_top" xlink:title=" ">
<polygon fill="none" stroke="black" points="1019,-648 1019,-667 1160,-667 1160,-648 1019,-648"/>
<text text-anchor="middle" x="1089.5" y="-655" font-family="Helvetica,sans-Serif" font-size="10.00">SyntaxAnalyzer::syntaxStList</text>
</a>
</g>
</g>
<!-- Node12&#45;&gt;Node14 -->
<g id="edge15" class="edge">
<title>Node12&#45;&gt;Node14</title>
<path fill="none" stroke="midnightblue" d="M1254.65,-549.82C1215.45,-575.53 1137.53,-626.65 1105.14,-647.89"/>
<polygon fill="midnightblue" stroke="midnightblue" points="1256.85,-552.56 1263.29,-544.15 1253.01,-546.71 1256.85,-552.56"/>
</g>
<!-- Node12&#45;&gt;Node21 -->
<g id="edge25" class="edge">
<title>Node12&#45;&gt;Node21</title>
<path fill="none" stroke="midnightblue" d="M1264.24,-517.69C1242.87,-497.22 1200.35,-463.1 1164,-434.5 1146.99,-421.12 1127.65,-406.13 1113.08,-396.17"/>
<polygon fill="midnightblue" stroke="midnightblue" points="1261.81,-520.2 1271.34,-524.82 1266.77,-515.27 1261.81,-520.2"/>
</g>
<!-- Node13&#45;&gt;Node12 -->
<g id="edge14" class="edge">
<title>Node13&#45;&gt;Node12</title>
<path fill="none" stroke="midnightblue" d="M1114.67,-476.48C1145.92,-490.86 1200.79,-512.24 1238.24,-524.87"/>
<polygon fill="midnightblue" stroke="midnightblue" points="1115.93,-473.21 1105.4,-472.08 1112.93,-479.54 1115.93,-473.21"/>
</g>
<!-- Node14&#45;&gt;Node15 -->
<g id="edge16" class="edge">
<title>Node14&#45;&gt;Node15</title>
<path fill="none" stroke="midnightblue" d="M1014.81,-668.51C996.22,-671.3 976.4,-674.26 958.33,-676.96"/>
<polygon fill="midnightblue" stroke="midnightblue" points="1015.34,-671.98 1024.71,-667.04 1014.3,-665.05 1015.34,-671.98"/>
</g>
<!-- Node15&#45;&gt;Node12 -->
<g id="edge24" class="edge">
<title>Node15&#45;&gt;Node12</title>
<path fill="none" stroke="midnightblue" d="M927.93,-673.16C952.11,-663.51 985.57,-650.18 1015,-638.5 1102.85,-603.63 1207.29,-562.4 1253.7,-544.09"/>
<polygon fill="midnightblue" stroke="midnightblue" points="926.49,-669.96 918.5,-676.92 929.08,-676.47 926.49,-669.96"/>
</g>
<!-- Node15&#45;&gt;Node16 -->
<g id="edge17" class="edge">
<title>Node15&#45;&gt;Node16</title>
<path fill="none" stroke="midnightblue" d="M875.47,-703.58C836.81,-742.34 743.43,-835.96 712.87,-866.61"/>
<polygon fill="midnightblue" stroke="midnightblue" points="878.26,-705.74 882.84,-696.18 873.3,-700.79 878.26,-705.74"/>
</g>
<!-- Node16&#45;&gt;Node17 -->
<g id="edge18" class="edge">
<title>Node16&#45;&gt;Node17</title>
<path fill="none" stroke="midnightblue" d="M668.63,-890.17C632.56,-905.4 575.16,-929.63 543.61,-942.95"/>
<polygon fill="midnightblue" stroke="midnightblue" points="670.35,-893.24 678.2,-886.13 667.63,-886.79 670.35,-893.24"/>
</g>
<!-- Node16&#45;&gt;Node18 -->
<g id="edge23" class="edge">
<title>Node16&#45;&gt;Node18</title>
<path fill="none" stroke="midnightblue" d="M621.73,-886.84C557.7,-895.19 468.3,-906.85 406,-914.98"/>
<polygon fill="midnightblue" stroke="midnightblue" points="622.32,-890.29 631.78,-885.53 621.41,-883.35 622.32,-890.29"/>
</g>
<!-- Node17&#45;&gt;Node18 -->
<g id="edge19" class="edge">
<title>Node17&#45;&gt;Node18</title>
<path fill="none" stroke="midnightblue" d="M445.74,-941.47C429.42,-939.01 412.25,-936.43 396.37,-934.04"/>
<polygon fill="midnightblue" stroke="midnightblue" points="445.36,-944.95 455.77,-942.98 446.4,-938.03 445.36,-944.95"/>
</g>
<!-- Node19 -->
<g id="node19" class="node">
<title>Node19</title>
<g id="a_node19"><a xlink:href="../../d0/dfe/class_syntax_analyzer.html#a96cd5f6a041dae613d1c75175e26592e" target="_top" xlink:title=" ">
<polygon fill="none" stroke="black" points="77,-977 77,-996 220,-996 220,-977 77,-977"/>
<text text-anchor="middle" x="148.5" y="-984" font-family="Helvetica,sans-Serif" font-size="10.00">SyntaxAnalyzer::parseTokens</text>
</a>
</g>
</g>
<!-- Node18&#45;&gt;Node19 -->
<g id="edge20" class="edge">
<title>Node18&#45;&gt;Node19</title>
<path fill="none" stroke="midnightblue" d="M293.32,-937.37C258.82,-949.16 208.55,-966.33 177.49,-976.94"/>
<polygon fill="midnightblue" stroke="midnightblue" points="294.71,-940.6 303.04,-934.05 292.44,-933.97 294.71,-940.6"/>
</g>
<!-- Node19&#45;&gt;Node6 -->
<g id="edge21" class="edge">
<title>Node19&#45;&gt;Node6</title>
<path fill="none" stroke="midnightblue" d="M129.24,-1003.02C102.56,-1027.16 53.77,-1071.31 32.22,-1090.81"/>
<polygon fill="midnightblue" stroke="midnightblue" points="131.69,-1005.52 136.76,-996.22 126.99,-1000.33 131.69,-1005.52"/>
</g>
<!-- Node20 -->
<g id="node20" class="node">
<title>Node20</title>
<g id="a_node20"><a xlink:href="../../dd/de9/test_syntax_8cpp.html#ac491df98e51a6bba8b808af414b6614f" target="_top" xlink:title="Тест синтаксического анализа Паскаля, простой тест">
<polygon fill="none" stroke="black" points="0,-977 0,-996 41,-996 41,-977 0,-977"/>
<text text-anchor="middle" x="20.5" y="-984" font-family="Helvetica,sans-Serif" font-size="10.00">TEST</text>
</a>
</g>
</g>
<!-- Node19&#45;&gt;Node20 -->
<g id="edge22" class="edge">
<title>Node19&#45;&gt;Node20</title>
<path fill="none" stroke="midnightblue" d="M66.74,-986.5C57.29,-986.5 48.42,-986.5 41.08,-986.5"/>
<polygon fill="midnightblue" stroke="midnightblue" points="66.77,-990 76.77,-986.5 66.77,-983 66.77,-990"/>
</g>
<!-- Node21&#45;&gt;Node12 -->
<g id="edge26" class="edge">
<title>Node21&#45;&gt;Node12</title>
<path fill="none" stroke="midnightblue" d="M1103.72,-403.24C1118.47,-417.02 1143.01,-435.99 1164,-452.5 1197.04,-478.49 1235.16,-509.04 1257.89,-524.85"/>
<polygon fill="midnightblue" stroke="midnightblue" points="1106.17,-400.74 1096.62,-396.16 1101.23,-405.7 1106.17,-400.74"/>
</g>
<!-- Node22&#45;&gt;Node12 -->
<g id="edge43" class="edge">
<title>Node22&#45;&gt;Node12</title>
<path fill="none" stroke="midnightblue" d="M2668.34,-450.19C2561.7,-446.05 2366.64,-439.5 2200,-439.5 2200,-439.5 2200,-439.5 1637.5,-439.5 1505.53,-439.5 1355.07,-500.72 1300.84,-524.87"/>
<polygon fill="midnightblue" stroke="midnightblue" points="2668.25,-453.69 2678.38,-450.58 2668.52,-446.69 2668.25,-453.69"/>
</g>
<!-- Node22&#45;&gt;Node23 -->
<g id="edge30" class="edge">
<title>Node22&#45;&gt;Node23</title>
<path fill="none" stroke="midnightblue" d="M2714.2,-440.21C2700.09,-434.45 2683.62,-427.44 2669,-420.5 2636.61,-405.11 2599.97,-384.85 2579.21,-373.09"/>
<polygon fill="midnightblue" stroke="midnightblue" points="2712.95,-443.48 2723.53,-443.98 2715.57,-436.99 2712.95,-443.48"/>
</g>
<!-- Node23&#45;&gt;Node10 -->
<g id="edge32" class="edge">
<title>Node23&#45;&gt;Node10</title>
<path fill="none" stroke="midnightblue" d="M2543.7,-380.13C2495.06,-426.44 2348.11,-553.5 2200,-553.5 2200,-553.5 2200,-553.5 2007,-553.5 1902.84,-553.5 1782.08,-553.5 1708.25,-553.5"/>
<polygon fill="midnightblue" stroke="midnightblue" points="2546.13,-382.65 2550.89,-373.18 2541.27,-377.61 2546.13,-382.65"/>
</g>
<!-- Node23&#45;&gt;Node23 -->
<g id="edge31" class="edge">
<title>Node23&#45;&gt;Node23</title>
<path fill="none" stroke="midnightblue" d="M2594.48,-381.39C2594,-387.04 2583.01,-391.5 2561.5,-391.5 2530.22,-391.5 2521.18,-382.07 2534.37,-373.26"/>
<polygon fill="midnightblue" stroke="midnightblue" points="2597.31,-379.33 2588.63,-373.26 2591.63,-383.42 2597.31,-379.33"/>
</g>
<!-- Node23&#45;&gt;Node24 -->
<g id="edge33" class="edge">
<title>Node23&#45;&gt;Node24</title>
<path fill="none" stroke="midnightblue" d="M2506.69,-351.75C2482.08,-346.37 2453.31,-340.09 2430.09,-335.02"/>
<polygon fill="midnightblue" stroke="midnightblue" points="2506.08,-355.2 2516.59,-353.91 2507.57,-348.36 2506.08,-355.2"/>
</g>
<!-- Node24&#45;&gt;Node25 -->
<g id="edge34" class="edge">
<title>Node24&#45;&gt;Node25</title>
<path fill="none" stroke="midnightblue" d="M2306.65,-317.48C2298.2,-316.61 2289.59,-315.73 2281.11,-314.85"/>
<polygon fill="midnightblue" stroke="midnightblue" points="2306.54,-320.99 2316.85,-318.53 2307.26,-314.03 2306.54,-320.99"/>
</g>
<!-- Node25&#45;&gt;Node26 -->
<g id="edge35" class="edge">
<title>Node25&#45;&gt;Node26</title>
<path fill="none" stroke="midnightblue" d="M2169.59,-320.78C2130.52,-340.42 2061.25,-375.24 2027.93,-391.98"/>
<polygon fill="midnightblue" stroke="midnightblue" points="2171.47,-323.75 2178.84,-316.13 2168.33,-317.5 2171.47,-323.75"/>
</g>
<!-- Node26&#45;&gt;Node9 -->
<g id="edge36" class="edge">
<title>Node26&#45;&gt;Node9</title>
<path fill="none" stroke="midnightblue" d="M1983.08,-416.28C1944.65,-440.02 1870.23,-486.01 1838,-505.92"/>
<polygon fill="midnightblue" stroke="midnightblue" points="1984.92,-419.26 1991.59,-411.02 1981.24,-413.3 1984.92,-419.26"/>
</g>
<!-- Node26&#45;&gt;Node13 -->
<g id="edge39" class="edge">
<title>Node26&#45;&gt;Node13</title>
<path fill="none" stroke="midnightblue" d="M1930.74,-401.5C1856.41,-401.5 1740.2,-401.5 1639.5,-401.5 1639.5,-401.5 1639.5,-401.5 1462.5,-401.5 1336.84,-401.5 1190.42,-435.81 1125.06,-452.97"/>
<polygon fill="midnightblue" stroke="midnightblue" points="1930.94,-405 1940.94,-401.5 1930.94,-398 1930.94,-405"/>
</g>
<!-- Node26&#45;&gt;Node21 -->
<g id="edge42" class="edge">
<title>Node26&#45;&gt;Node21</title>
<path fill="none" stroke="midnightblue" d="M1980.58,-387.25C1921.36,-356.66 1772.7,-287.5 1639.5,-287.5 1639.5,-287.5 1639.5,-287.5 1462.5,-287.5 1324.49,-287.5 1167.08,-351.92 1111.37,-376.83"/>
<polygon fill="midnightblue" stroke="midnightblue" points="1979.14,-390.44 1989.63,-391.98 1982.39,-384.24 1979.14,-390.44"/>
</g>
<!-- Node26&#45;&gt;Node22 -->
<g id="edge37" class="edge">
<title>Node26&#45;&gt;Node22</title>
<path fill="none" stroke="midnightblue" d="M2085.26,-404.66C2173.94,-408.55 2324.68,-415.86 2454,-425.5 2530.82,-431.23 2618.74,-439.88 2678.27,-446.05"/>
<polygon fill="midnightblue" stroke="midnightblue" points="2085.17,-401.15 2075.03,-404.21 2084.86,-408.15 2085.17,-401.15"/>
</g>
<!-- Node26&#45;&gt;Node23 -->
<g id="edge38" class="edge">
<title>Node26&#45;&gt;Node23</title>
<path fill="none" stroke="midnightblue" d="M2085.29,-390.89C2095.93,-389.62 2106.73,-388.44 2117,-387.5 2248.31,-375.45 2402.08,-368.79 2489.71,-365.7"/>
<polygon fill="midnightblue" stroke="midnightblue" points="2084.67,-387.44 2075.17,-392.13 2085.52,-394.39 2084.67,-387.44"/>
</g>
<!-- Node26&#45;&gt;Node27 -->
<g id="edge40" class="edge">
<title>Node26&#45;&gt;Node27</title>
<path fill="none" stroke="midnightblue" d="M1995.73,-420.07C1960.68,-477.81 1854.38,-652.97 1828.32,-695.92"/>
<polygon fill="midnightblue" stroke="midnightblue" points="1998.87,-421.64 2001.07,-411.27 1992.89,-418 1998.87,-421.64"/>
</g>
<!-- Node27&#45;&gt;Node12 -->
<g id="edge41" class="edge">
<title>Node27&#45;&gt;Node12</title>
<path fill="none" stroke="midnightblue" d="M1734.84,-705.24C1685.49,-703.14 1622.79,-697.13 1569,-681.5 1455.76,-648.59 1334.31,-571.1 1293.93,-544.03"/>
<polygon fill="midnightblue" stroke="midnightblue" points="1734.71,-708.73 1744.84,-705.62 1734.98,-701.74 1734.71,-708.73"/>
</g>
<!-- Node29 -->
<g id="node29" class="node">
<title>Node29</title>
<g id="a_node29"><a xlink:href="../../d0/dfe/class_syntax_analyzer.html#a58a0f927ad0a45e4ce837a98e98330aa" target="_top" xlink:title=" ">
<polygon fill="none" stroke="black" points="1935,-848 1935,-867 2081,-867 2081,-848 1935,-848"/>
<text text-anchor="middle" x="2008" y="-855" font-family="Helvetica,sans-Serif" font-size="10.00">SyntaxAnalyzer::syntaxConsts</text>
</a>
</g>
</g>
<!-- Node28&#45;&gt;Node29 -->
<g id="edge46" class="edge">
<title>Node28&#45;&gt;Node29</title>
<path fill="none" stroke="midnightblue" d="M2658.5,-857.5C2510.37,-857.5 2217.09,-857.5 2081.22,-857.5"/>
<polygon fill="midnightblue" stroke="midnightblue" points="2658.91,-861 2668.91,-857.5 2658.91,-854 2658.91,-861"/>
</g>
<!-- Node29&#45;&gt;Node16 -->
<g id="edge47" class="edge">
<title>Node29&#45;&gt;Node16</title>
<path fill="none" stroke="midnightblue" d="M1924.58,-857.5C1850.1,-857.5 1737.45,-857.5 1639.5,-857.5 1639.5,-857.5 1639.5,-857.5 1088.5,-857.5 977.77,-857.5 849.36,-865.42 772.24,-871.03"/>
<polygon fill="midnightblue" stroke="midnightblue" points="1924.83,-861 1934.83,-857.5 1924.83,-854 1924.83,-861"/>
</g>
<!-- Node30&#45;&gt;Node12 -->
<g id="edge49" class="edge">
<title>Node30&#45;&gt;Node12</title>
<path fill="none" stroke="midnightblue" d="M2112.82,-743.5C2036.72,-743.5 1922.17,-743.5 1822.5,-743.5 1822.5,-743.5 1822.5,-743.5 1637.5,-743.5 1521.65,-743.5 1490.94,-713.93 1394,-650.5 1346.75,-619.58 1303.75,-566.17 1287.2,-544.28"/>
<polygon fill="midnightblue" stroke="midnightblue" points="2112.84,-747 2122.84,-743.5 2112.84,-740 2112.84,-747"/>
</g>
<!-- Node31&#45;&gt;Node17 -->
<g id="edge61" class="edge">
<title>Node31&#45;&gt;Node17</title>
<path fill="none" stroke="midnightblue" d="M1189.42,-938.06C1088.44,-943.02 918.38,-950.61 772,-953.5 709.79,-954.73 694.22,-953.78 632,-953.5 620.44,-953.45 608.2,-953.37 596.23,-953.27"/>
<polygon fill="midnightblue" stroke="midnightblue" points="1189.77,-941.55 1199.58,-937.56 1189.42,-934.56 1189.77,-941.55"/>
</g>
<!-- Node31&#45;&gt;Node32 -->
<g id="edge62" class="edge">
<title>Node31&#45;&gt;Node32</title>
<path fill="none" stroke="midnightblue" d="M1189.77,-924.56C1181.16,-923.69 1172.48,-922.81 1164.03,-921.95"/>
<polygon fill="midnightblue" stroke="midnightblue" points="1189.54,-928.05 1199.84,-925.58 1190.24,-921.09 1189.54,-928.05"/>
</g>
<!-- Node32&#45;&gt;Node17 -->
<g id="edge63" class="edge">
<title>Node32&#45;&gt;Node17</title>
<path fill="none" stroke="midnightblue" d="M1004.81,-920.1C894.53,-927.49 702.19,-940.37 596.29,-947.46"/>
<polygon fill="midnightblue" stroke="midnightblue" points="1005.15,-923.59 1014.89,-919.43 1004.68,-916.6 1005.15,-923.59"/>
</g>
<!-- Node33 -->
<g id="node33" class="node">
<title>Node33</title>
<g id="a_node33"><a xlink:href="../../d0/dfe/class_syntax_analyzer.html#a738f9b4cb7edf93c56af1b6974caad1a" target="_top" xlink:title=" ">
<polygon fill="none" stroke="black" points="826,-886 826,-905 961,-905 961,-886 826,-886"/>
<text text-anchor="middle" x="893.5" y="-893" font-family="Helvetica,sans-Serif" font-size="10.00">SyntaxAnalyzer::syntaxVars</text>
</a>
</g>
</g>
<!-- Node32&#45;&gt;Node33 -->
<g id="edge64" class="edge">
<title>Node32&#45;&gt;Node33</title>
<path fill="none" stroke="midnightblue" d="M1004.83,-906.31C990.2,-904.87 975.15,-903.4 961.06,-902.02"/>
<polygon fill="midnightblue" stroke="midnightblue" points="1004.59,-909.8 1014.88,-907.29 1005.27,-902.83 1004.59,-909.8"/>
</g>
<!-- Node33&#45;&gt;Node16 -->
<g id="edge65" class="edge">
<title>Node33&#45;&gt;Node16</title>
<path fill="none" stroke="midnightblue" d="M815.63,-887.79C801.29,-886.35 786.37,-884.86 772.27,-883.45"/>
<polygon fill="midnightblue" stroke="midnightblue" points="815.66,-891.31 825.96,-888.83 816.35,-884.35 815.66,-891.31"/>
</g>
<!-- Node34&#45;&gt;Node9 -->
<g id="edge68" class="edge">
<title>Node34&#45;&gt;Node9</title>
<path fill="none" stroke="midnightblue" d="M2663.7,-497.32C2485.12,-501.18 2071.05,-510.13 1899.3,-513.84"/>
<polygon fill="midnightblue" stroke="midnightblue" points="2663.9,-500.82 2673.83,-497.1 2663.75,-493.82 2663.9,-500.82"/>
</g>
<!-- Node34&#45;&gt;Node23 -->
<g id="edge69" class="edge">
<title>Node34&#45;&gt;Node23</title>
<path fill="none" stroke="midnightblue" d="M2690.77,-482.68C2683.18,-479.89 2675.72,-476.53 2669,-472.5 2623.85,-445.42 2584.54,-394.58 2569.27,-373.28"/>
<polygon fill="midnightblue" stroke="midnightblue" points="2689.8,-486.04 2700.39,-485.92 2692.03,-479.41 2689.8,-486.04"/>
</g>
<!-- Node36 -->
<g id="node36" class="node">
<title>Node36</title>
<g id="a_node36"><a xlink:href="../../df/d7c/class_analyze_exception.html#aa4e8534e7478ad3fed1904b669a17363" target="_top" xlink:title=" ">
<polygon fill="none" stroke="black" points="2683.5,-0.5 2683.5,-30.5 2814.5,-30.5 2814.5,-0.5 2683.5,-0.5"/>
<text text-anchor="start" x="2691.5" y="-18.5" font-family="Helvetica,sans-Serif" font-size="10.00">AnalyzeException::Analyze</text>
<text text-anchor="middle" x="2749" y="-7.5" font-family="Helvetica,sans-Serif" font-size="10.00">Exception</text>
</a>
</g>
</g>
<!-- Node35&#45;&gt;Node36 -->
<g id="edge72" class="edge">
<title>Node35&#45;&gt;Node36</title>
<path fill="none" stroke="midnightblue" d="M2882.06,-31.6C2861.31,-29.07 2836.77,-26.08 2814.51,-23.36"/>
<polygon fill="midnightblue" stroke="midnightblue" points="2881.87,-35.1 2892.22,-32.83 2882.72,-28.15 2881.87,-35.1"/>
</g>
</g>
</svg>
