<?xml version="1.0" encoding="UTF-8" standalone="no"?>
<!DOCTYPE svg PUBLIC "-//W3C//DTD SVG 1.1//EN"
 "http://www.w3.org/Graphics/SVG/1.1/DTD/svg11.dtd">
<!-- Generated by graphviz version 3.0.0 (20220413.0106)
 -->
<!-- Title: IToken::getAdvType Pages: 1 -->
<svg width="3134pt" height="984pt"
 viewBox="0.00 0.00 3134.00 984.28" xmlns="http://www.w3.org/2000/svg" xmlns:xlink="http://www.w3.org/1999/xlink">
<g id="graph0" class="graph" transform="scale(1 1) rotate(0) translate(4 980.28)">
<title>IToken::getAdvType</title>
<!-- Node1 -->
<g id="node1" class="node">
<title>Node1</title>
<g id="a_node1"><a xlink:title=" ">
<polygon fill="#bfbfbf" stroke="black" points="3023,-107 3023,-126 3126,-126 3126,-107 3023,-107"/>
<text text-anchor="middle" x="3074.5" y="-114" font-family="Helvetica,sans-Serif" font-size="10.00">IToken::getAdvType</text>
</a>
</g>
</g>
<!-- Node2 -->
<g id="node2" class="node">
<title>Node2</title>
<g id="a_node2"><a xlink:href="../../d7/d7c/class_a_s_t_factory.html#a8d1d4c9d01ab2e366d1af6bbaeaf7bef" target="_top" xlink:title=" ">
<polygon fill="none" stroke="black" points="2868,-544 2868,-563 2987,-563 2987,-544 2868,-544"/>
<text text-anchor="middle" x="2927.5" y="-551" font-family="Helvetica,sans-Serif" font-size="10.00">ASTFactory::createAST</text>
</a>
</g>
</g>
<!-- Node1&#45;&gt;Node2 -->
<g id="edge1" class="edge">
<title>Node1&#45;&gt;Node2</title>
<path fill="none" stroke="midnightblue" d="M3067.13,-135.7C3042,-211.44 2950.2,-488.09 2931.75,-543.72"/>
<polygon fill="midnightblue" stroke="midnightblue" points="3070.51,-136.63 3070.34,-126.03 3063.87,-134.42 3070.51,-136.63"/>
</g>
<!-- Node4 -->
<g id="node4" class="node">
<title>Node4</title>
<g id="a_node4"><a xlink:href="../../d0/dfe/class_syntax_analyzer.html#aea3a3d1860938d64edf651bdc4016c04" target="_top" xlink:title=" ">
<polygon fill="none" stroke="black" points="1569,-278 1569,-297 1708,-297 1708,-278 1569,-278"/>
<text text-anchor="middle" x="1638.5" y="-285" font-family="Helvetica,sans-Serif" font-size="10.00">SyntaxAnalyzer::syntaxIterSt</text>
</a>
</g>
</g>
<!-- Node1&#45;&gt;Node4 -->
<g id="edge68" class="edge">
<title>Node1&#45;&gt;Node4</title>
<path fill="none" stroke="midnightblue" d="M3012.75,-112.43C2882.5,-104.68 2566.95,-91.13 2305,-121.5 2050.96,-150.95 1989.31,-177.22 1744,-249.5 1715.85,-257.79 1684.29,-269.64 1663.29,-277.89"/>
<polygon fill="midnightblue" stroke="midnightblue" points="3012.72,-115.93 3022.92,-113.04 3013.15,-108.95 3012.72,-115.93"/>
</g>
<!-- Node18 -->
<g id="node18" class="node">
<title>Node18</title>
<g id="a_node18"><a xlink:href="../../d0/dfe/class_syntax_analyzer.html#a3af9b5161a2cef6fdd26b0bb60334ac4" target="_top" xlink:title=" ">
<polygon fill="none" stroke="black" points="2493,-374 2493,-393 2636,-393 2636,-374 2493,-374"/>
<text text-anchor="middle" x="2564.5" y="-381" font-family="Helvetica,sans-Serif" font-size="10.00">SyntaxAnalyzer::syntaxFactor</text>
</a>
</g>
</g>
<!-- Node1&#45;&gt;Node18 -->
<g id="edge67" class="edge">
<title>Node1&#45;&gt;Node18</title>
<path fill="none" stroke="midnightblue" d="M3046.52,-130.68C2955.32,-178.61 2659.94,-333.86 2583.63,-373.97"/>
<polygon fill="midnightblue" stroke="midnightblue" points="3048.2,-133.75 3055.42,-126 3044.94,-127.56 3048.2,-133.75"/>
</g>
<!-- Node30 -->
<g id="node30" class="node">
<title>Node30</title>
<g id="a_node30"><a xlink:href="../../db/dc1/class_token.html#ab9a75d3f89e77051d87462654e7576de" target="_top" xlink:title=" ">
<polygon fill="none" stroke="black" points="2888.5,-9 2888.5,-28 2966.5,-28 2966.5,-9 2888.5,-9"/>
<text text-anchor="middle" x="2927.5" y="-16" font-family="Helvetica,sans-Serif" font-size="10.00">Token::getInfo</text>
</a>
</g>
</g>
<!-- Node1&#45;&gt;Node30 -->
<g id="edge65" class="edge">
<title>Node1&#45;&gt;Node30</title>
<path fill="none" stroke="midnightblue" d="M3056.1,-99.95C3039.32,-84.56 3012.75,-61.64 2987,-45.5 2976.29,-38.79 2963.64,-32.74 2952.84,-28.08"/>
<polygon fill="midnightblue" stroke="midnightblue" points="3053.8,-102.59 3063.51,-106.84 3058.57,-97.47 3053.8,-102.59"/>
</g>
<!-- Node3 -->
<g id="node3" class="node">
<title>Node3</title>
<g id="a_node3"><a xlink:href="../../d0/dfe/class_syntax_analyzer.html#a31fc5887c158652feb946f89270b4b36" target="_top" xlink:title=" ">
<polygon fill="none" stroke="black" points="1744,-316 1744,-335 1899,-335 1899,-316 1744,-316"/>
<text text-anchor="middle" x="1821.5" y="-323" font-family="Helvetica,sans-Serif" font-size="10.00">SyntaxAnalyzer::syntaxAssignSt</text>
</a>
</g>
</g>
<!-- Node2&#45;&gt;Node3 -->
<g id="edge2" class="edge">
<title>Node2&#45;&gt;Node3</title>
<path fill="none" stroke="midnightblue" d="M2923.19,-533.92C2915.35,-494.26 2891.61,-404.78 2832,-364.5 2680.78,-262.3 2108.21,-300.5 1899.35,-318.36"/>
<polygon fill="midnightblue" stroke="midnightblue" points="2919.78,-534.71 2925.03,-543.91 2926.66,-533.44 2919.78,-534.71"/>
</g>
<!-- Node2&#45;&gt;Node4 -->
<g id="edge49" class="edge">
<title>Node2&#45;&gt;Node4</title>
<path fill="none" stroke="midnightblue" d="M2924.92,-533.82C2920.09,-487.38 2901.3,-370.37 2832,-310.5 2740.05,-231.07 2687.01,-249.5 2565.5,-249.5 2565.5,-249.5 2565.5,-249.5 2001,-249.5 1892.3,-249.5 1766.22,-266.7 1695.35,-277.96"/>
<polygon fill="midnightblue" stroke="midnightblue" points="2921.44,-534.17 2925.85,-543.8 2928.41,-533.52 2921.44,-534.17"/>
</g>
<!-- Node5 -->
<g id="node5" class="node">
<title>Node5</title>
<g id="a_node5"><a xlink:href="../../d0/dfe/class_syntax_analyzer.html#a82e8472ea6d1064871de0d05eaa8b374" target="_top" xlink:title=" ">
<polygon fill="none" stroke="black" points="1394,-364 1394,-383 1533,-383 1533,-364 1394,-364"/>
<text text-anchor="middle" x="1463.5" y="-371" font-family="Helvetica,sans-Serif" font-size="10.00">SyntaxAnalyzer::syntaxForSt</text>
</a>
</g>
</g>
<!-- Node2&#45;&gt;Node5 -->
<g id="edge46" class="edge">
<title>Node2&#45;&gt;Node5</title>
<path fill="none" stroke="midnightblue" d="M2927.23,-533.72C2928.1,-478.03 2922.21,-319.05 2832,-243.5 2740.54,-166.9 2684.8,-211.5 2565.5,-211.5 2565.5,-211.5 2565.5,-211.5 1820.5,-211.5 1705.89,-211.5 1669.29,-213.02 1569,-268.5 1524.22,-293.28 1485.91,-342.98 1471.07,-363.89"/>
<polygon fill="midnightblue" stroke="midnightblue" points="2923.72,-533.89 2926.97,-543.97 2930.72,-534.06 2923.72,-533.89"/>
</g>
<!-- Node7 -->
<g id="node7" class="node">
<title>Node7</title>
<g id="a_node7"><a xlink:href="../../d0/dfe/class_syntax_analyzer.html#a779e006875d35926152773989f4b1e5a" target="_top" xlink:title=" ">
<polygon fill="none" stroke="black" points="1024,-536 1024,-555 1155,-555 1155,-536 1024,-536"/>
<text text-anchor="middle" x="1089.5" y="-543" font-family="Helvetica,sans-Serif" font-size="10.00">SyntaxAnalyzer::syntaxIfSt</text>
</a>
</g>
</g>
<!-- Node2&#45;&gt;Node7 -->
<g id="edge48" class="edge">
<title>Node2&#45;&gt;Node7</title>
<path fill="none" stroke="midnightblue" d="M2917.96,-572.34C2904.24,-600.21 2874.44,-651.66 2832,-675.5 2728.09,-733.89 2684.69,-705.5 2565.5,-705.5 2565.5,-705.5 2565.5,-705.5 1462.5,-705.5 1309.24,-705.5 1147.24,-589.47 1102.53,-555.03"/>
<polygon fill="midnightblue" stroke="midnightblue" points="2921.16,-573.78 2922.28,-563.24 2914.83,-570.77 2921.16,-573.78"/>
</g>
<!-- Node9 -->
<g id="node9" class="node">
<title>Node9</title>
<g id="a_node9"><a xlink:href="../../d0/dfe/class_syntax_analyzer.html#a5770afdc4d32d2c38550f27f9ffd949a" target="_top" xlink:title=" ">
<polygon fill="none" stroke="black" points="808,-426 808,-445 979,-445 979,-426 808,-426"/>
<text text-anchor="middle" x="893.5" y="-433" font-family="Helvetica,sans-Serif" font-size="10.00">SyntaxAnalyzer::syntaxCompoundSt</text>
</a>
</g>
</g>
<!-- Node2&#45;&gt;Node9 -->
<g id="edge38" class="edge">
<title>Node2&#45;&gt;Node9</title>
<path fill="none" stroke="midnightblue" d="M2925.07,-533.65C2919.16,-457.26 2893.91,-183.84 2832,-128.5 2724.69,-32.58 2331.93,-59.5 2188,-59.5 2188,-59.5 2188,-59.5 1278,-59.5 1062.14,-59.5 923.08,-366.98 898.43,-425.83"/>
<polygon fill="midnightblue" stroke="midnightblue" points="2921.6,-534.09 2925.83,-543.8 2928.58,-533.56 2921.6,-534.09"/>
</g>
<!-- Node10 -->
<g id="node10" class="node">
<title>Node10</title>
<g id="a_node10"><a xlink:href="../../d0/dfe/class_syntax_analyzer.html#a2b54bac50e114b68e83c80d869b6ac7c" target="_top" xlink:title=" ">
<polygon fill="none" stroke="black" points="632,-791 632,-810 772,-810 772,-791 632,-791"/>
<text text-anchor="middle" x="702" y="-798" font-family="Helvetica,sans-Serif" font-size="10.00">SyntaxAnalyzer::syntaxBlock</text>
</a>
</g>
</g>
<!-- Node2&#45;&gt;Node10 -->
<g id="edge22" class="edge">
<title>Node2&#45;&gt;Node10</title>
<path fill="none" stroke="midnightblue" d="M2924.22,-573.1C2918.1,-615.83 2897.08,-717.14 2832,-762.5 2783.29,-796.45 2624.87,-781.5 2565.5,-781.5 2565.5,-781.5 2565.5,-781.5 1088.5,-781.5 977.77,-781.5 849.36,-789.42 772.24,-795.03"/>
<polygon fill="midnightblue" stroke="midnightblue" points="2927.7,-573.5 2925.52,-563.13 2920.76,-572.59 2927.7,-573.5"/>
</g>
<!-- Node11 -->
<g id="node11" class="node">
<title>Node11</title>
<g id="a_node11"><a xlink:href="../../d0/dfe/class_syntax_analyzer.html#ae04232a95c6423677e600927c82851e4" target="_top" xlink:title=" ">
<polygon fill="none" stroke="black" points="444,-867 444,-886 596,-886 596,-867 444,-867"/>
<text text-anchor="middle" x="520" y="-874" font-family="Helvetica,sans-Serif" font-size="10.00">SyntaxAnalyzer::syntaxFuncDef</text>
</a>
</g>
</g>
<!-- Node2&#45;&gt;Node11 -->
<g id="edge47" class="edge">
<title>Node2&#45;&gt;Node11</title>
<path fill="none" stroke="midnightblue" d="M2926.83,-573.34C2926.61,-628.61 2918.05,-785.61 2832,-867.5 2743.61,-951.62 2687.52,-933.5 2565.5,-933.5 2565.5,-933.5 2565.5,-933.5 892.5,-933.5 768.85,-933.5 624.7,-902.27 558.15,-886.04"/>
<polygon fill="midnightblue" stroke="midnightblue" points="2930.33,-573.14 2926.77,-563.16 2923.33,-573.17 2930.33,-573.14"/>
</g>
<!-- Node12 -->
<g id="node12" class="node">
<title>Node12</title>
<g id="a_node12"><a xlink:href="../../d0/dfe/class_syntax_analyzer.html#a8b337bd5b4a90cd5bd804a936e408e4b" target="_top" xlink:title=" ">
<polygon fill="none" stroke="black" points="256,-867 256,-886 408,-886 408,-867 256,-867"/>
<text text-anchor="middle" x="332" y="-874" font-family="Helvetica,sans-Serif" font-size="10.00">SyntaxAnalyzer::syntaxProgram</text>
</a>
</g>
</g>
<!-- Node2&#45;&gt;Node12 -->
<g id="edge50" class="edge">
<title>Node2&#45;&gt;Node12</title>
<path fill="none" stroke="midnightblue" d="M2924,-573.64C2915.08,-642.38 2882.58,-866.16 2832,-914.5 2744.43,-998.18 2686.62,-971.5 2565.5,-971.5 2565.5,-971.5 2565.5,-971.5 701,-971.5 565.4,-971.5 410.37,-910.28 354.48,-886.13"/>
<polygon fill="midnightblue" stroke="midnightblue" points="2927.53,-573.69 2925.32,-563.33 2920.58,-572.81 2927.53,-573.69"/>
</g>
<!-- Node16 -->
<g id="node16" class="node">
<title>Node16</title>
<g id="a_node16"><a xlink:href="../../d0/dfe/class_syntax_analyzer.html#a64dad7f0b22b08d182483469d3a1aa79" target="_top" xlink:title=" ">
<polygon fill="none" stroke="black" points="1015,-354 1015,-373 1164,-373 1164,-354 1015,-354"/>
<text text-anchor="middle" x="1089.5" y="-361" font-family="Helvetica,sans-Serif" font-size="10.00">SyntaxAnalyzer::syntaxWhileSt</text>
</a>
</g>
</g>
<!-- Node2&#45;&gt;Node16 -->
<g id="edge64" class="edge">
<title>Node2&#45;&gt;Node16</title>
<path fill="none" stroke="midnightblue" d="M2923.96,-533.54C2914.9,-465.43 2881.98,-243.68 2832,-195.5 2744.59,-111.24 2686.91,-135.5 2565.5,-135.5 2565.5,-135.5 2565.5,-135.5 1462.5,-135.5 1292.44,-135.5 1134.56,-310.84 1098.29,-353.99"/>
<polygon fill="midnightblue" stroke="midnightblue" points="2920.53,-534.3 2925.29,-543.76 2927.47,-533.39 2920.53,-534.3"/>
</g>
<!-- Node17 -->
<g id="node17" class="node">
<title>Node17</title>
<g id="a_node17"><a xlink:href="../../d0/dfe/class_syntax_analyzer.html#a2db43946bee3e973ce1cf293b262e271" target="_top" xlink:title=" ">
<polygon fill="none" stroke="black" points="2681.5,-463 2681.5,-482 2822.5,-482 2822.5,-463 2681.5,-463"/>
<text text-anchor="middle" x="2752" y="-470" font-family="Helvetica,sans-Serif" font-size="10.00">SyntaxAnalyzer::syntaxCallSt</text>
</a>
</g>
</g>
<!-- Node2&#45;&gt;Node17 -->
<g id="edge23" class="edge">
<title>Node2&#45;&gt;Node17</title>
<path fill="none" stroke="midnightblue" d="M2902.04,-538.7C2883.27,-527.68 2856.49,-512.66 2832,-501.5 2815.91,-494.17 2797.38,-487.29 2782.32,-482.07"/>
<polygon fill="midnightblue" stroke="midnightblue" points="2900.44,-541.82 2910.83,-543.91 2904.01,-535.8 2900.44,-541.82"/>
</g>
<!-- Node2&#45;&gt;Node18 -->
<g id="edge45" class="edge">
<title>Node2&#45;&gt;Node18</title>
<path fill="none" stroke="midnightblue" d="M2914.39,-535.48C2898.26,-512.9 2867.57,-474.6 2832,-453.5 2795.43,-431.81 2681.16,-406.5 2614.73,-393.04"/>
<polygon fill="midnightblue" stroke="midnightblue" points="2911.62,-537.63 2920.2,-543.84 2917.36,-533.63 2911.62,-537.63"/>
</g>
<!-- Node19 -->
<g id="node19" class="node">
<title>Node19</title>
<g id="a_node19"><a xlink:href="../../d0/dfe/class_syntax_analyzer.html#a1e9b913cc8c2861927d7c05d10f1822d" target="_top" xlink:title=" ">
<polygon fill="none" stroke="black" points="2312.5,-506 2312.5,-525 2449.5,-525 2449.5,-506 2312.5,-506"/>
<text text-anchor="middle" x="2381" y="-513" font-family="Helvetica,sans-Serif" font-size="10.00">SyntaxAnalyzer::syntaxTerm</text>
</a>
</g>
</g>
<!-- Node2&#45;&gt;Node19 -->
<g id="edge53" class="edge">
<title>Node2&#45;&gt;Node19</title>
<path fill="none" stroke="midnightblue" d="M2857.96,-542.58C2849.24,-541.41 2840.42,-540.35 2832,-539.5 2696.75,-525.9 2537.8,-519.71 2449.62,-517.13"/>
<polygon fill="midnightblue" stroke="midnightblue" points="2857.75,-546.08 2868.13,-543.98 2858.7,-539.14 2857.75,-546.08"/>
</g>
<!-- Node20 -->
<g id="node20" class="node">
<title>Node20</title>
<g id="a_node20"><a xlink:href="../../d0/dfe/class_syntax_analyzer.html#a3dfb6634a4bcdc61da5b1bafd1f3d136" target="_top" xlink:title=" ">
<polygon fill="none" stroke="black" points="2105,-506 2105,-525 2269,-525 2269,-506 2105,-506"/>
<text text-anchor="middle" x="2187" y="-513" font-family="Helvetica,sans-Serif" font-size="10.00">SyntaxAnalyzer::syntaxSimpleExpr</text>
</a>
</g>
</g>
<!-- Node2&#45;&gt;Node20 -->
<g id="edge52" class="edge">
<title>Node2&#45;&gt;Node20</title>
<path fill="none" stroke="midnightblue" d="M2857.58,-554.32C2742.73,-555.03 2505.01,-553.71 2305,-534.5 2282.77,-532.36 2258.37,-528.63 2237.63,-525.03"/>
<polygon fill="midnightblue" stroke="midnightblue" points="2857.67,-557.82 2867.64,-554.25 2857.62,-550.82 2857.67,-557.82"/>
</g>
<!-- Node21 -->
<g id="node21" class="node">
<title>Node21</title>
<g id="a_node21"><a xlink:href="../../d0/dfe/class_syntax_analyzer.html#ae8d09db1b25ec882248aeed978c13a4d" target="_top" xlink:title=" ">
<polygon fill="none" stroke="black" points="1935,-487 1935,-506 2069,-506 2069,-487 1935,-487"/>
<text text-anchor="middle" x="2002" y="-494" font-family="Helvetica,sans-Serif" font-size="10.00">SyntaxAnalyzer::syntaxExpr</text>
</a>
</g>
</g>
<!-- Node2&#45;&gt;Node21 -->
<g id="edge44" class="edge">
<title>Node2&#45;&gt;Node21</title>
<path fill="none" stroke="midnightblue" d="M2860.42,-564.66C2788.19,-575.87 2668.96,-591.5 2565.5,-591.5 2565.5,-591.5 2565.5,-591.5 2380,-591.5 2241.29,-591.5 2082.34,-530.28 2025.03,-506.13"/>
<polygon fill="midnightblue" stroke="midnightblue" points="2861.39,-568.05 2870.72,-563.04 2860.3,-561.13 2861.39,-568.05"/>
</g>
<!-- Node22 -->
<g id="node22" class="node">
<title>Node22</title>
<g id="a_node22"><a xlink:href="../../d0/dfe/class_syntax_analyzer.html#a55e935b2aa7f20b66e9228e977582fcd" target="_top" xlink:title=" ">
<polygon fill="none" stroke="black" points="1745,-613 1745,-632 1898,-632 1898,-613 1745,-613"/>
<text text-anchor="middle" x="1821.5" y="-620" font-family="Helvetica,sans-Serif" font-size="10.00">SyntaxAnalyzer::syntaxReturnSt</text>
</a>
</g>
</g>
<!-- Node2&#45;&gt;Node22 -->
<g id="edge51" class="edge">
<title>Node2&#45;&gt;Node22</title>
<path fill="none" stroke="midnightblue" d="M2897.43,-567.31C2879.05,-575.51 2854.59,-585.44 2832,-591.5 2716.44,-622.49 2685.14,-629.5 2565.5,-629.5 2565.5,-629.5 2565.5,-629.5 2186,-629.5 2086.43,-629.5 1971.54,-626.84 1898.03,-624.8"/>
<polygon fill="midnightblue" stroke="midnightblue" points="2899.05,-570.42 2906.7,-563.09 2896.15,-564.05 2899.05,-570.42"/>
</g>
<!-- Node23 -->
<g id="node23" class="node">
<title>Node23</title>
<g id="a_node23"><a xlink:href="../../d0/dfe/class_syntax_analyzer.html#adad79b2219ae143b49203a836713bec9" target="_top" xlink:title=" ">
<polygon fill="none" stroke="black" points="2672,-734 2672,-753 2832,-753 2832,-734 2672,-734"/>
<text text-anchor="middle" x="2752" y="-741" font-family="Helvetica,sans-Serif" font-size="10.00">SyntaxAnalyzer::syntaxConstDecl</text>
</a>
</g>
</g>
<!-- Node2&#45;&gt;Node23 -->
<g id="edge39" class="edge">
<title>Node2&#45;&gt;Node23</title>
<path fill="none" stroke="midnightblue" d="M2920.78,-572.85C2909.55,-607.48 2881.33,-680.09 2832,-719.5 2824.05,-725.85 2814.43,-730.53 2804.68,-733.97"/>
<polygon fill="midnightblue" stroke="midnightblue" points="2924.21,-573.62 2923.83,-563.04 2917.52,-571.55 2924.21,-573.62"/>
</g>
<!-- Node25 -->
<g id="node25" class="node">
<title>Node25</title>
<g id="a_node25"><a xlink:href="../../d0/dfe/class_syntax_analyzer.html#a67bc7e3cfb57c9d4d25d60913aef3a87" target="_top" xlink:title=" ">
<polygon fill="none" stroke="black" points="2305,-658 2305,-677 2457,-677 2457,-658 2305,-658"/>
<text text-anchor="middle" x="2381" y="-665" font-family="Helvetica,sans-Serif" font-size="10.00">SyntaxAnalyzer::syntaxEmptySt</text>
</a>
</g>
</g>
<!-- Node2&#45;&gt;Node25 -->
<g id="edge42" class="edge">
<title>Node2&#45;&gt;Node25</title>
<path fill="none" stroke="midnightblue" d="M2914.07,-571.41C2897.96,-592.95 2867.68,-628.11 2832,-643.5 2702.15,-699.5 2531.33,-688.38 2442.13,-677.01"/>
<polygon fill="midnightblue" stroke="midnightblue" points="2917.05,-573.27 2920.08,-563.12 2911.38,-569.16 2917.05,-573.27"/>
</g>
<!-- Node26 -->
<g id="node26" class="node">
<title>Node26</title>
<g id="a_node26"><a xlink:href="../../d0/dfe/class_syntax_analyzer.html#a5d262eb9e2236dde3bd043eea0b0e957" target="_top" xlink:title=" ">
<polygon fill="none" stroke="black" points="1200,-848 1200,-867 1358,-867 1358,-848 1200,-848"/>
<text text-anchor="middle" x="1279" y="-855" font-family="Helvetica,sans-Serif" font-size="10.00">SyntaxAnalyzer::syntaxTypeSpec</text>
</a>
</g>
</g>
<!-- Node2&#45;&gt;Node26 -->
<g id="edge54" class="edge">
<title>Node2&#45;&gt;Node26</title>
<path fill="none" stroke="midnightblue" d="M2926.6,-573.58C2925.65,-626.1 2915.16,-767.95 2832,-833.5 2738.6,-907.12 2684.42,-857.5 2565.5,-857.5 2565.5,-857.5 2565.5,-857.5 1637.5,-857.5 1541.3,-857.5 1430.53,-857.5 1358.11,-857.5"/>
<polygon fill="midnightblue" stroke="midnightblue" points="2930.1,-573.3 2926.68,-563.27 2923.1,-573.25 2930.1,-573.3"/>
</g>
<!-- Node27 -->
<g id="node27" class="node">
<title>Node27</title>
<g id="a_node27"><a xlink:href="../../d0/dfe/class_syntax_analyzer.html#a8f6dda26a96ec0e5e75bea5eed577856" target="_top" xlink:title=" ">
<polygon fill="none" stroke="black" points="1015,-829 1015,-848 1164,-848 1164,-829 1015,-829"/>
<text text-anchor="middle" x="1089.5" y="-836" font-family="Helvetica,sans-Serif" font-size="10.00">SyntaxAnalyzer::syntaxVarDecl</text>
</a>
</g>
</g>
<!-- Node2&#45;&gt;Node27 -->
<g id="edge60" class="edge">
<title>Node2&#45;&gt;Node27</title>
<path fill="none" stroke="midnightblue" d="M2925.43,-573.41C2921.7,-620.82 2905.13,-740.57 2832,-795.5 2784.45,-831.21 2624.96,-819.5 2565.5,-819.5 2565.5,-819.5 2565.5,-819.5 1462.5,-819.5 1358.87,-819.5 1239.21,-826.95 1164.2,-832.51"/>
<polygon fill="midnightblue" stroke="midnightblue" points="2928.93,-573.44 2926.11,-563.23 2921.95,-572.97 2928.93,-573.44"/>
</g>
<!-- Node29 -->
<g id="node29" class="node">
<title>Node29</title>
<g id="a_node29"><a xlink:href="../../d0/dfe/class_syntax_analyzer.html#a94c8a6ab5c0e53cae22edb1a840a27ce" target="_top" xlink:title=" ">
<polygon fill="none" stroke="black" points="2677,-374 2677,-393 2827,-393 2827,-374 2677,-374"/>
<text text-anchor="middle" x="2752" y="-381" font-family="Helvetica,sans-Serif" font-size="10.00">SyntaxAnalyzer::syntaxVariable</text>
</a>
</g>
</g>
<!-- Node2&#45;&gt;Node29 -->
<g id="edge61" class="edge">
<title>Node2&#45;&gt;Node29</title>
<path fill="none" stroke="midnightblue" d="M2917.94,-534.74C2903.84,-505.73 2873.16,-449.87 2832,-416.5 2819.07,-406.02 2802.33,-398.39 2787.59,-393.13"/>
<polygon fill="midnightblue" stroke="midnightblue" points="2914.78,-536.25 2922.22,-543.8 2921.11,-533.26 2914.78,-536.25"/>
</g>
<!-- Node3&#45;&gt;Node4 -->
<g id="edge3" class="edge">
<title>Node3&#45;&gt;Node4</title>
<path fill="none" stroke="midnightblue" d="M1764.86,-313.82C1739.19,-308.43 1709.11,-302.11 1684.85,-297.02"/>
<polygon fill="midnightblue" stroke="midnightblue" points="1764.32,-317.28 1774.83,-315.91 1765.76,-310.43 1764.32,-317.28"/>
</g>
<!-- Node6 -->
<g id="node6" class="node">
<title>Node6</title>
<g id="a_node6"><a xlink:href="../../d0/dfe/class_syntax_analyzer.html#a7f54bde730006b1b863290415809ab4e" target="_top" xlink:title=" ">
<polygon fill="none" stroke="black" points="1216.5,-426 1216.5,-445 1341.5,-445 1341.5,-426 1216.5,-426"/>
<text text-anchor="middle" x="1279" y="-433" font-family="Helvetica,sans-Serif" font-size="10.00">SyntaxAnalyzer::syntaxSt</text>
</a>
</g>
</g>
<!-- Node3&#45;&gt;Node6 -->
<g id="edge21" class="edge">
<title>Node3&#45;&gt;Node6</title>
<path fill="none" stroke="midnightblue" d="M1773.21,-337.45C1716.39,-351.59 1618.08,-375.37 1533,-392.5 1467.92,-405.6 1392.89,-418.02 1341.54,-426.11"/>
<polygon fill="midnightblue" stroke="midnightblue" points="1774.13,-340.83 1782.98,-335.01 1772.43,-334.04 1774.13,-340.83"/>
</g>
<!-- Node4&#45;&gt;Node5 -->
<g id="edge4" class="edge">
<title>Node4&#45;&gt;Node5</title>
<path fill="none" stroke="midnightblue" d="M1609.03,-301.65C1573.64,-319.25 1514.21,-348.79 1483.76,-363.93"/>
<polygon fill="midnightblue" stroke="midnightblue" points="1610.93,-304.62 1618.32,-297.03 1607.81,-298.35 1610.93,-304.62"/>
</g>
<!-- Node5&#45;&gt;Node6 -->
<g id="edge5" class="edge">
<title>Node5&#45;&gt;Node6</title>
<path fill="none" stroke="midnightblue" d="M1406.97,-386.1C1368.89,-397.95 1320.96,-414.97 1296.3,-425.9"/>
<polygon fill="midnightblue" stroke="midnightblue" points="1408.38,-389.33 1416.92,-383.05 1406.33,-382.63 1408.38,-389.33"/>
</g>
<!-- Node6&#45;&gt;Node5 -->
<g id="edge6" class="edge">
<title>Node6&#45;&gt;Node5</title>
<path fill="none" stroke="midnightblue" d="M1335.71,-422.85C1373.81,-410.98 1421.72,-393.96 1446.3,-383.05"/>
<polygon fill="midnightblue" stroke="midnightblue" points="1334.29,-419.62 1325.75,-425.9 1336.34,-426.31 1334.29,-419.62"/>
</g>
<!-- Node6&#45;&gt;Node7 -->
<g id="edge7" class="edge">
<title>Node6&#45;&gt;Node7</title>
<path fill="none" stroke="midnightblue" d="M1244.48,-449.85C1201.26,-472.78 1128.41,-516.17 1101.19,-535.88"/>
<polygon fill="midnightblue" stroke="midnightblue" points="1246.24,-452.88 1253.49,-445.15 1243,-446.67 1246.24,-452.88"/>
</g>
<!-- Node8 -->
<g id="node8" class="node">
<title>Node8</title>
<g id="a_node8"><a xlink:href="../../d0/dfe/class_syntax_analyzer.html#a6df61a82ef9de3c17b78be89a321a087" target="_top" xlink:title=" ">
<polygon fill="none" stroke="black" points="1019,-407 1019,-426 1160,-426 1160,-407 1019,-407"/>
<text text-anchor="middle" x="1089.5" y="-414" font-family="Helvetica,sans-Serif" font-size="10.00">SyntaxAnalyzer::syntaxStList</text>
</a>
</g>
</g>
<!-- Node6&#45;&gt;Node8 -->
<g id="edge9" class="edge">
<title>Node6&#45;&gt;Node8</title>
<path fill="none" stroke="midnightblue" d="M1206.09,-428.21C1191.07,-426.69 1175.25,-425.09 1160.31,-423.57"/>
<polygon fill="midnightblue" stroke="midnightblue" points="1206.04,-431.73 1216.35,-429.25 1206.75,-424.76 1206.04,-431.73"/>
</g>
<!-- Node6&#45;&gt;Node16 -->
<g id="edge19" class="edge">
<title>Node6&#45;&gt;Node16</title>
<path fill="none" stroke="midnightblue" d="M1253.66,-421.44C1222.27,-407.02 1167.27,-385.6 1129.89,-373.01"/>
<polygon fill="midnightblue" stroke="midnightblue" points="1252.44,-424.73 1262.97,-425.85 1255.44,-418.4 1252.44,-424.73"/>
</g>
<!-- Node7&#45;&gt;Node6 -->
<g id="edge8" class="edge">
<title>Node7&#45;&gt;Node6</title>
<path fill="none" stroke="midnightblue" d="M1123.82,-531.26C1167.06,-508.34 1240.17,-464.79 1267.38,-445.07"/>
<polygon fill="midnightblue" stroke="midnightblue" points="1122.06,-528.22 1114.82,-535.95 1125.3,-534.43 1122.06,-528.22"/>
</g>
<!-- Node8&#45;&gt;Node9 -->
<g id="edge10" class="edge">
<title>Node8&#45;&gt;Node9</title>
<path fill="none" stroke="midnightblue" d="M1008.7,-424.32C998.97,-425.27 989.01,-426.24 979.21,-427.2"/>
<polygon fill="midnightblue" stroke="midnightblue" points="1009.12,-427.79 1018.74,-423.33 1008.44,-420.82 1009.12,-427.79"/>
</g>
<!-- Node9&#45;&gt;Node6 -->
<g id="edge18" class="edge">
<title>Node9&#45;&gt;Node6</title>
<path fill="none" stroke="midnightblue" d="M989.47,-435.5C1060.35,-435.5 1155.14,-435.5 1216.38,-435.5"/>
<polygon fill="midnightblue" stroke="midnightblue" points="989.19,-432 979.19,-435.5 989.19,-439 989.19,-432"/>
</g>
<!-- Node9&#45;&gt;Node10 -->
<g id="edge11" class="edge">
<title>Node9&#45;&gt;Node10</title>
<path fill="none" stroke="midnightblue" d="M882.81,-454.17C848.48,-520.28 733.41,-741.92 708,-790.88"/>
<polygon fill="midnightblue" stroke="midnightblue" points="885.93,-455.75 887.43,-445.26 879.72,-452.53 885.93,-455.75"/>
</g>
<!-- Node10&#45;&gt;Node11 -->
<g id="edge12" class="edge">
<title>Node10&#45;&gt;Node11</title>
<path fill="none" stroke="midnightblue" d="M674.61,-814.95C653.68,-826.07 623.47,-841.38 596,-852.5 582.69,-857.89 567.69,-862.89 554.61,-866.92"/>
<polygon fill="midnightblue" stroke="midnightblue" points="676.38,-817.97 683.54,-810.16 673.07,-811.81 676.38,-817.97"/>
</g>
<!-- Node10&#45;&gt;Node12 -->
<g id="edge17" class="edge">
<title>Node10&#45;&gt;Node12</title>
<path fill="none" stroke="midnightblue" d="M644.86,-812.09C572.07,-827.13 446.51,-853.06 379.05,-866.99"/>
<polygon fill="midnightblue" stroke="midnightblue" points="645.68,-815.5 654.77,-810.05 644.26,-808.64 645.68,-815.5"/>
</g>
<!-- Node11&#45;&gt;Node12 -->
<g id="edge13" class="edge">
<title>Node11&#45;&gt;Node12</title>
<path fill="none" stroke="midnightblue" d="M433.85,-876.5C425.26,-876.5 416.57,-876.5 408.1,-876.5"/>
<polygon fill="midnightblue" stroke="midnightblue" points="433.88,-880 443.88,-876.5 433.88,-873 433.88,-880"/>
</g>
<!-- Node13 -->
<g id="node13" class="node">
<title>Node13</title>
<g id="a_node13"><a xlink:href="../../d0/dfe/class_syntax_analyzer.html#a96cd5f6a041dae613d1c75175e26592e" target="_top" xlink:title=" ">
<polygon fill="none" stroke="black" points="77,-867 77,-886 220,-886 220,-867 77,-867"/>
<text text-anchor="middle" x="148.5" y="-874" font-family="Helvetica,sans-Serif" font-size="10.00">SyntaxAnalyzer::parseTokens</text>
</a>
</g>
</g>
<!-- Node12&#45;&gt;Node13 -->
<g id="edge14" class="edge">
<title>Node12&#45;&gt;Node13</title>
<path fill="none" stroke="midnightblue" d="M245.84,-876.5C237.26,-876.5 228.61,-876.5 220.21,-876.5"/>
<polygon fill="midnightblue" stroke="midnightblue" points="245.87,-880 255.87,-876.5 245.87,-873 245.87,-880"/>
</g>
<!-- Node14 -->
<g id="node14" class="node">
<title>Node14</title>
<g id="a_node14"><a xlink:href="../../d3/db4/graph_draw_8cpp.html#a3c04138a5bfe5d72780bb7e82a18e627" target="_top" xlink:title=" ">
<polygon fill="none" stroke="black" points="1.5,-886 1.5,-905 39.5,-905 39.5,-886 1.5,-886"/>
<text text-anchor="middle" x="20.5" y="-893" font-family="Helvetica,sans-Serif" font-size="10.00">main</text>
</a>
</g>
</g>
<!-- Node13&#45;&gt;Node14 -->
<g id="edge15" class="edge">
<title>Node13&#45;&gt;Node14</title>
<path fill="none" stroke="midnightblue" d="M74.24,-887.55C61.4,-889.48 49.15,-891.33 39.69,-892.76"/>
<polygon fill="midnightblue" stroke="midnightblue" points="74.76,-891.01 84.13,-886.06 73.72,-884.09 74.76,-891.01"/>
</g>
<!-- Node15 -->
<g id="node15" class="node">
<title>Node15</title>
<g id="a_node15"><a xlink:href="../../dd/de9/test_syntax_8cpp.html#ac491df98e51a6bba8b808af414b6614f" target="_top" xlink:title="Тест синтаксического анализа Паскаля, простой тест">
<polygon fill="none" stroke="black" points="0,-848 0,-867 41,-867 41,-848 0,-848"/>
<text text-anchor="middle" x="20.5" y="-855" font-family="Helvetica,sans-Serif" font-size="10.00">TEST</text>
</a>
</g>
</g>
<!-- Node13&#45;&gt;Node15 -->
<g id="edge16" class="edge">
<title>Node13&#45;&gt;Node15</title>
<path fill="none" stroke="midnightblue" d="M73.88,-865.4C61.78,-863.57 50.22,-861.83 41.05,-860.45"/>
<polygon fill="midnightblue" stroke="midnightblue" points="73.72,-868.91 84.13,-866.94 74.76,-861.99 73.72,-868.91"/>
</g>
<!-- Node16&#45;&gt;Node6 -->
<g id="edge20" class="edge">
<title>Node16&#45;&gt;Node6</title>
<path fill="none" stroke="midnightblue" d="M1114.67,-377.48C1145.92,-391.86 1200.79,-413.24 1238.24,-425.87"/>
<polygon fill="midnightblue" stroke="midnightblue" points="1115.93,-374.21 1105.4,-373.08 1112.93,-380.54 1115.93,-374.21"/>
</g>
<!-- Node17&#45;&gt;Node6 -->
<g id="edge37" class="edge">
<title>Node17&#45;&gt;Node6</title>
<path fill="none" stroke="midnightblue" d="M2674.61,-461.66C2600.11,-452.04 2483.51,-439.5 2382,-439.5 2382,-439.5 2382,-439.5 2186,-439.5 1868.27,-439.5 1487.86,-437.01 1341.52,-435.96"/>
<polygon fill="midnightblue" stroke="midnightblue" points="2674.46,-465.17 2684.83,-463 2675.37,-458.23 2674.46,-465.17"/>
</g>
<!-- Node17&#45;&gt;Node18 -->
<g id="edge24" class="edge">
<title>Node17&#45;&gt;Node18</title>
<path fill="none" stroke="midnightblue" d="M2710.38,-459.67C2697.89,-455.31 2684.21,-450.1 2672,-444.5 2654.09,-436.28 2606.45,-408.08 2581.4,-393.08"/>
<polygon fill="midnightblue" stroke="midnightblue" points="2709.51,-463.07 2720.11,-462.98 2711.77,-456.45 2709.51,-463.07"/>
</g>
<!-- Node18&#45;&gt;Node4 -->
<g id="edge26" class="edge">
<title>Node18&#45;&gt;Node4</title>
<path fill="none" stroke="midnightblue" d="M2482.55,-373C2357.53,-357.04 2109.86,-326.43 1899,-306.5 1834.35,-300.39 1760.48,-295.15 1708.14,-291.73"/>
<polygon fill="midnightblue" stroke="midnightblue" points="2482.43,-376.51 2492.8,-374.31 2483.32,-369.57 2482.43,-376.51"/>
</g>
<!-- Node18&#45;&gt;Node18 -->
<g id="edge25" class="edge">
<title>Node18&#45;&gt;Node18</title>
<path fill="none" stroke="midnightblue" d="M2598.61,-401.39C2598.11,-407.04 2586.74,-411.5 2564.5,-411.5 2532.15,-411.5 2522.8,-402.07 2536.45,-393.26"/>
<polygon fill="midnightblue" stroke="midnightblue" points="2601.33,-399.19 2592.55,-393.26 2595.72,-403.37 2601.33,-399.19"/>
</g>
<!-- Node18&#45;&gt;Node19 -->
<g id="edge27" class="edge">
<title>Node18&#45;&gt;Node19</title>
<path fill="none" stroke="midnightblue" d="M2541.83,-399.26C2503.88,-426.86 2426.46,-483.17 2395.37,-505.78"/>
<polygon fill="midnightblue" stroke="midnightblue" points="2544.13,-401.92 2550.15,-393.21 2540.01,-396.26 2544.13,-401.92"/>
</g>
<!-- Node19&#45;&gt;Node20 -->
<g id="edge28" class="edge">
<title>Node19&#45;&gt;Node20</title>
<path fill="none" stroke="midnightblue" d="M2302.05,-515.5C2291.24,-515.5 2280.1,-515.5 2269.23,-515.5"/>
<polygon fill="midnightblue" stroke="midnightblue" points="2302.31,-519 2312.31,-515.5 2302.31,-512 2302.31,-519"/>
</g>
<!-- Node20&#45;&gt;Node21 -->
<g id="edge29" class="edge">
<title>Node20&#45;&gt;Node21</title>
<path fill="none" stroke="midnightblue" d="M2094.81,-506.03C2086.17,-505.14 2077.53,-504.24 2069.19,-503.37"/>
<polygon fill="midnightblue" stroke="midnightblue" points="2094.63,-509.53 2104.93,-507.08 2095.35,-502.57 2094.63,-509.53"/>
</g>
<!-- Node21&#45;&gt;Node3 -->
<g id="edge30" class="edge">
<title>Node21&#45;&gt;Node3</title>
<path fill="none" stroke="midnightblue" d="M1992.93,-477.66C1978.61,-446.4 1945.76,-383.89 1899,-349.5 1890.48,-343.23 1880.27,-338.57 1870.14,-335.11"/>
<polygon fill="midnightblue" stroke="midnightblue" points="1989.82,-479.26 1997.08,-486.97 1996.21,-476.41 1989.82,-479.26"/>
</g>
<!-- Node21&#45;&gt;Node7 -->
<g id="edge33" class="edge">
<title>Node21&#45;&gt;Node7</title>
<path fill="none" stroke="midnightblue" d="M1968.91,-509.8C1906.57,-534.4 1764.27,-584.5 1639.5,-584.5 1639.5,-584.5 1639.5,-584.5 1462.5,-584.5 1349.83,-584.5 1219.01,-566.59 1146.4,-555.04"/>
<polygon fill="midnightblue" stroke="midnightblue" points="1970.22,-513.05 1978.21,-506.09 1967.62,-506.54 1970.22,-513.05"/>
</g>
<!-- Node21&#45;&gt;Node16 -->
<g id="edge36" class="edge">
<title>Node21&#45;&gt;Node16</title>
<path fill="none" stroke="midnightblue" d="M1968.83,-483.11C1894,-452.78 1701.8,-379.54 1533,-354.5 1471.89,-345.43 1455.77,-353.58 1394,-354.5 1315.46,-355.66 1225.54,-358.52 1164.08,-360.71"/>
<polygon fill="midnightblue" stroke="midnightblue" points="1967.6,-486.39 1978.18,-486.93 1970.25,-479.91 1967.6,-486.39"/>
</g>
<!-- Node21&#45;&gt;Node17 -->
<g id="edge31" class="edge">
<title>Node21&#45;&gt;Node17</title>
<path fill="none" stroke="midnightblue" d="M2079.22,-494.05C2224.9,-489.38 2540.87,-479.24 2681.3,-474.74"/>
<polygon fill="midnightblue" stroke="midnightblue" points="2078.91,-490.56 2069.03,-494.38 2079.13,-497.56 2078.91,-490.56"/>
</g>
<!-- Node21&#45;&gt;Node18 -->
<g id="edge32" class="edge">
<title>Node21&#45;&gt;Node18</title>
<path fill="none" stroke="midnightblue" d="M2038.77,-483.57C2058.17,-476.9 2082.69,-469.03 2105,-463.5 2240.69,-429.89 2402.37,-405.17 2492.95,-392.68"/>
<polygon fill="midnightblue" stroke="midnightblue" points="2037.42,-480.33 2029.12,-486.93 2039.72,-486.94 2037.42,-480.33"/>
</g>
<!-- Node21&#45;&gt;Node22 -->
<g id="edge34" class="edge">
<title>Node21&#45;&gt;Node22</title>
<path fill="none" stroke="midnightblue" d="M1987.75,-514.28C1969.96,-536.95 1936.25,-575.93 1899,-598.5 1888.88,-604.63 1877.05,-609.34 1865.75,-612.89"/>
<polygon fill="midnightblue" stroke="midnightblue" points="1990.65,-516.25 1993.97,-506.18 1985.1,-511.98 1990.65,-516.25"/>
</g>
<!-- Node22&#45;&gt;Node6 -->
<g id="edge35" class="edge">
<title>Node22&#45;&gt;Node6</title>
<path fill="none" stroke="midnightblue" d="M1804.39,-605.51C1783.94,-585 1746.66,-550.96 1708,-532.5 1579.06,-470.93 1533.17,-495.88 1394,-463.5 1368.49,-457.57 1339.87,-450.53 1317.68,-445"/>
<polygon fill="midnightblue" stroke="midnightblue" points="1802.11,-608.19 1811.61,-612.9 1807.12,-603.3 1802.11,-608.19"/>
</g>
<!-- Node24 -->
<g id="node24" class="node">
<title>Node24</title>
<g id="a_node24"><a xlink:href="../../d0/dfe/class_syntax_analyzer.html#a58a0f927ad0a45e4ce837a98e98330aa" target="_top" xlink:title=" ">
<polygon fill="none" stroke="black" points="2114,-734 2114,-753 2260,-753 2260,-734 2114,-734"/>
<text text-anchor="middle" x="2187" y="-741" font-family="Helvetica,sans-Serif" font-size="10.00">SyntaxAnalyzer::syntaxConsts</text>
</a>
</g>
</g>
<!-- Node23&#45;&gt;Node24 -->
<g id="edge40" class="edge">
<title>Node23&#45;&gt;Node24</title>
<path fill="none" stroke="midnightblue" d="M2661.64,-743.5C2550.38,-743.5 2362.52,-743.5 2260.02,-743.5"/>
<polygon fill="midnightblue" stroke="midnightblue" points="2661.83,-747 2671.83,-743.5 2661.83,-740 2661.83,-747"/>
</g>
<!-- Node24&#45;&gt;Node10 -->
<g id="edge41" class="edge">
<title>Node24&#45;&gt;Node10</title>
<path fill="none" stroke="midnightblue" d="M2103.79,-743.5C2030.11,-743.5 1919.09,-743.5 1822.5,-743.5 1822.5,-743.5 1822.5,-743.5 1088.5,-743.5 963.38,-743.5 930.75,-743.26 808,-767.5 780.07,-773.01 749.08,-783.29 728.06,-790.91"/>
<polygon fill="midnightblue" stroke="midnightblue" points="2103.93,-747 2113.93,-743.5 2103.93,-740 2103.93,-747"/>
</g>
<!-- Node25&#45;&gt;Node6 -->
<g id="edge43" class="edge">
<title>Node25&#45;&gt;Node6</title>
<path fill="none" stroke="midnightblue" d="M2294.74,-673.95C2171.42,-681.06 1936.93,-686.2 1744,-641.5 1557.25,-598.23 1352.9,-479.79 1295.66,-445.14"/>
<polygon fill="midnightblue" stroke="midnightblue" points="2295.1,-677.44 2304.87,-673.35 2294.68,-670.45 2295.1,-677.44"/>
</g>
<!-- Node26&#45;&gt;Node11 -->
<g id="edge55" class="edge">
<title>Node26&#45;&gt;Node11</title>
<path fill="none" stroke="midnightblue" d="M1189.42,-862.06C1088.44,-867.02 918.38,-874.61 772,-877.5 709.79,-878.73 694.22,-877.78 632,-877.5 620.44,-877.45 608.2,-877.37 596.23,-877.27"/>
<polygon fill="midnightblue" stroke="midnightblue" points="1189.77,-865.55 1199.58,-861.56 1189.42,-858.56 1189.77,-865.55"/>
</g>
<!-- Node26&#45;&gt;Node27 -->
<g id="edge56" class="edge">
<title>Node26&#45;&gt;Node27</title>
<path fill="none" stroke="midnightblue" d="M1189.77,-848.56C1181.16,-847.69 1172.48,-846.81 1164.03,-845.95"/>
<polygon fill="midnightblue" stroke="midnightblue" points="1189.54,-852.05 1199.84,-849.58 1190.24,-845.09 1189.54,-852.05"/>
</g>
<!-- Node27&#45;&gt;Node11 -->
<g id="edge57" class="edge">
<title>Node27&#45;&gt;Node11</title>
<path fill="none" stroke="midnightblue" d="M1004.81,-844.1C894.53,-851.49 702.19,-864.37 596.29,-871.46"/>
<polygon fill="midnightblue" stroke="midnightblue" points="1005.15,-847.59 1014.89,-843.43 1004.68,-840.6 1005.15,-847.59"/>
</g>
<!-- Node28 -->
<g id="node28" class="node">
<title>Node28</title>
<g id="a_node28"><a xlink:href="../../d0/dfe/class_syntax_analyzer.html#a738f9b4cb7edf93c56af1b6974caad1a" target="_top" xlink:title=" ">
<polygon fill="none" stroke="black" points="826,-810 826,-829 961,-829 961,-810 826,-810"/>
<text text-anchor="middle" x="893.5" y="-817" font-family="Helvetica,sans-Serif" font-size="10.00">SyntaxAnalyzer::syntaxVars</text>
</a>
</g>
</g>
<!-- Node27&#45;&gt;Node28 -->
<g id="edge58" class="edge">
<title>Node27&#45;&gt;Node28</title>
<path fill="none" stroke="midnightblue" d="M1004.83,-830.31C990.2,-828.87 975.15,-827.4 961.06,-826.02"/>
<polygon fill="midnightblue" stroke="midnightblue" points="1004.59,-833.8 1014.88,-831.29 1005.27,-826.83 1004.59,-833.8"/>
</g>
<!-- Node28&#45;&gt;Node10 -->
<g id="edge59" class="edge">
<title>Node28&#45;&gt;Node10</title>
<path fill="none" stroke="midnightblue" d="M815.63,-811.79C801.29,-810.35 786.37,-808.86 772.27,-807.45"/>
<polygon fill="midnightblue" stroke="midnightblue" points="815.66,-815.31 825.96,-812.83 816.35,-808.35 815.66,-815.31"/>
</g>
<!-- Node29&#45;&gt;Node3 -->
<g id="edge62" class="edge">
<title>Node29&#45;&gt;Node3</title>
<path fill="none" stroke="midnightblue" d="M2691.92,-372.25C2674.02,-369.24 2654.26,-366.33 2636,-364.5 2325.79,-333.47 2245.76,-364.33 1935,-339.5 1920.78,-338.36 1905.59,-336.75 1891.12,-335.02"/>
<polygon fill="midnightblue" stroke="midnightblue" points="2691.49,-375.73 2701.94,-373.97 2692.68,-368.83 2691.49,-375.73"/>
</g>
<!-- Node29&#45;&gt;Node18 -->
<g id="edge63" class="edge">
<title>Node29&#45;&gt;Node18</title>
<path fill="none" stroke="midnightblue" d="M2666.74,-383.5C2656.52,-383.5 2646.17,-383.5 2636.18,-383.5"/>
<polygon fill="midnightblue" stroke="midnightblue" points="2666.89,-387 2676.89,-383.5 2666.89,-380 2666.89,-387"/>
</g>
<!-- Node31 -->
<g id="node31" class="node">
<title>Node31</title>
<g id="a_node31"><a xlink:href="../../df/d7c/class_analyze_exception.html#aa4e8534e7478ad3fed1904b669a17363" target="_top" xlink:title=" ">
<polygon fill="none" stroke="black" points="2686.5,-0.5 2686.5,-30.5 2817.5,-30.5 2817.5,-0.5 2686.5,-0.5"/>
<text text-anchor="start" x="2694.5" y="-18.5" font-family="Helvetica,sans-Serif" font-size="10.00">AnalyzeException::Analyze</text>
<text text-anchor="middle" x="2752" y="-7.5" font-family="Helvetica,sans-Serif" font-size="10.00">Exception</text>
</a>
</g>
</g>
<!-- Node30&#45;&gt;Node31 -->
<g id="edge66" class="edge">
<title>Node30&#45;&gt;Node31</title>
<path fill="none" stroke="midnightblue" d="M2878.33,-17.67C2859.53,-17.34 2837.71,-16.96 2817.59,-16.62"/>
<polygon fill="midnightblue" stroke="midnightblue" points="2878.37,-21.17 2888.42,-17.84 2878.49,-14.17 2878.37,-21.17"/>
</g>
</g>
</svg>
