<?xml version="1.0" encoding="UTF-8" standalone="no"?>
<!DOCTYPE svg PUBLIC "-//W3C//DTD SVG 1.1//EN"
 "http://www.w3.org/Graphics/SVG/1.1/DTD/svg11.dtd">
<!-- Generated by graphviz version 3.0.0 (20220413.0106)
 -->
<!-- Title: main Pages: 1 -->
<svg width="985pt" height="287pt"
 viewBox="0.00 0.00 985.00 287.00" xmlns="http://www.w3.org/2000/svg" xmlns:xlink="http://www.w3.org/1999/xlink">
<g id="graph0" class="graph" transform="scale(1 1) rotate(0) translate(4 283)">
<title>main</title>
<!-- Node1 -->
<g id="node1" class="node">
<title>Node1</title>
<g id="a_node1"><a xlink:title=" ">
<polygon fill="#bfbfbf" stroke="black" points="0,-107.5 0,-126.5 38,-126.5 38,-107.5 0,-107.5"/>
<text text-anchor="middle" x="19" y="-114.5" font-family="Helvetica,sans-Serif" font-size="10.00">main</text>
</a>
</g>
</g>
<!-- Node2 -->
<g id="node2" class="node">
<title>Node2</title>
<g id="a_node2"><a xlink:href="../../df/d0a/main_8cpp.html#a33bc391d1718919ab8e74041e88a93d7" target="_top" xlink:title=" ">
<polygon fill="none" stroke="black" points="74,-107.5 74,-126.5 190,-126.5 190,-107.5 74,-107.5"/>
<text text-anchor="middle" x="132" y="-114.5" font-family="Helvetica,sans-Serif" font-size="10.00">analyzePascalProgram</text>
</a>
</g>
</g>
<!-- Node1&#45;&gt;Node2 -->
<g id="edge1" class="edge">
<title>Node1&#45;&gt;Node2</title>
<path fill="none" stroke="midnightblue" d="M38.33,-117C45.56,-117 54.36,-117 63.62,-117"/>
<polygon fill="midnightblue" stroke="midnightblue" points="63.79,-120.5 73.79,-117 63.79,-113.5 63.79,-120.5"/>
</g>
<!-- Node3 -->
<g id="node3" class="node">
<title>Node3</title>
<g id="a_node3"><a xlink:href="../../d6/d1a/class_analyzer.html#a39ecdc1f31b74ef853f20312d0025a36" target="_top" xlink:title=" ">
<polygon fill="none" stroke="black" points="258,-183.5 258,-202.5 359,-202.5 359,-183.5 258,-183.5"/>
<text text-anchor="middle" x="308.5" y="-190.5" font-family="Helvetica,sans-Serif" font-size="10.00">Analyzer::addVisitor</text>
</a>
</g>
</g>
<!-- Node2&#45;&gt;Node3 -->
<g id="edge2" class="edge">
<title>Node2&#45;&gt;Node3</title>
<path fill="none" stroke="midnightblue" d="M145.54,-126.51C162.77,-139.15 195.17,-161.35 226,-174 232.92,-176.84 240.34,-179.3 247.8,-181.43"/>
<polygon fill="midnightblue" stroke="midnightblue" points="247.01,-184.84 257.57,-184.03 248.81,-178.08 247.01,-184.84"/>
</g>
<!-- Node4 -->
<g id="node4" class="node">
<title>Node4</title>
<g id="a_node4"><a xlink:href="../../d6/d1a/class_analyzer.html#aaa75d76110c2f35ca78714bef24f4962" target="_top" xlink:title=" ">
<polygon fill="none" stroke="black" points="255.5,-145.5 255.5,-164.5 361.5,-164.5 361.5,-145.5 255.5,-145.5"/>
<text text-anchor="middle" x="308.5" y="-152.5" font-family="Helvetica,sans-Serif" font-size="10.00">Analyzer::analyzeFile</text>
</a>
</g>
</g>
<!-- Node2&#45;&gt;Node4 -->
<g id="edge3" class="edge">
<title>Node2&#45;&gt;Node4</title>
<path fill="none" stroke="midnightblue" d="M177.03,-126.59C200.37,-131.67 229.23,-137.96 253.87,-143.32"/>
<polygon fill="midnightblue" stroke="midnightblue" points="253.27,-146.77 263.78,-145.48 254.76,-139.93 253.27,-146.77"/>
</g>
<!-- Node15 -->
<g id="node15" class="node">
<title>Node15</title>
<g id="a_node15"><a xlink:href="../../d1/d0c/namespace_pascal_rules.html#a32cd5d2936870d166896898ad6cd968e" target="_top" xlink:title="Возвращает шаблоны токинов языка Pascal.">
<polygon fill="none" stroke="black" points="226,-107.5 226,-126.5 391,-126.5 391,-107.5 226,-107.5"/>
<text text-anchor="middle" x="308.5" y="-114.5" font-family="Helvetica,sans-Serif" font-size="10.00">PascalRules::getPascalTemplates</text>
</a>
</g>
</g>
<!-- Node2&#45;&gt;Node15 -->
<g id="edge14" class="edge">
<title>Node2&#45;&gt;Node15</title>
<path fill="none" stroke="midnightblue" d="M190.14,-117C198.35,-117 206.98,-117 215.66,-117"/>
<polygon fill="midnightblue" stroke="midnightblue" points="215.86,-120.5 225.86,-117 215.86,-113.5 215.86,-120.5"/>
</g>
<!-- Node16 -->
<g id="node16" class="node">
<title>Node16</title>
<g id="a_node16"><a xlink:href="../../d1/d0c/namespace_pascal_rules.html#a5b3c3dcb5bb75fd385bd175120039ea2" target="_top" xlink:title=" ">
<polygon fill="none" stroke="black" points="245.5,-58 245.5,-88 371.5,-88 371.5,-58 245.5,-58"/>
<text text-anchor="start" x="253.5" y="-76" font-family="Helvetica,sans-Serif" font-size="10.00">PascalRules::getStandart</text>
<text text-anchor="middle" x="308.5" y="-65" font-family="Helvetica,sans-Serif" font-size="10.00">Funcs</text>
</a>
</g>
</g>
<!-- Node2&#45;&gt;Node16 -->
<g id="edge15" class="edge">
<title>Node2&#45;&gt;Node16</title>
<path fill="none" stroke="midnightblue" d="M170.86,-107.45C190.51,-102.5 215.14,-96.29 238.06,-90.51"/>
<polygon fill="midnightblue" stroke="midnightblue" points="238.91,-93.9 247.75,-88.07 237.2,-87.12 238.91,-93.9"/>
</g>
<!-- Node17 -->
<g id="node17" class="node">
<title>Node17</title>
<g id="a_node17"><a xlink:href="../../d6/d1a/class_analyzer.html#ad6a504688e610850ecd202acb8de5c51" target="_top" xlink:title=" ">
<polygon fill="none" stroke="black" points="247,-19.5 247,-38.5 370,-38.5 370,-19.5 247,-19.5"/>
<text text-anchor="middle" x="308.5" y="-26.5" font-family="Helvetica,sans-Serif" font-size="10.00">Analyzer::highlightOutput</text>
</a>
</g>
</g>
<!-- Node2&#45;&gt;Node17 -->
<g id="edge16" class="edge">
<title>Node2&#45;&gt;Node17</title>
<path fill="none" stroke="midnightblue" d="M142.97,-107.38C159.07,-92.39 192.43,-63.54 226,-48 231.32,-45.54 236.99,-43.38 242.76,-41.49"/>
<polygon fill="midnightblue" stroke="midnightblue" points="243.97,-44.78 252.54,-38.56 241.96,-38.08 243.97,-44.78"/>
</g>
<!-- Node5 -->
<g id="node5" class="node">
<title>Node5</title>
<g id="a_node5"><a xlink:href="../../da/d5a/class_lexer.html#a240680b247c9b95a1bbd802716b20f39" target="_top" xlink:title="Анализирует файл">
<polygon fill="none" stroke="black" points="427,-145.5 427,-164.5 520,-164.5 520,-145.5 427,-145.5"/>
<text text-anchor="middle" x="473.5" y="-152.5" font-family="Helvetica,sans-Serif" font-size="10.00">Lexer::analyzeFile</text>
</a>
</g>
</g>
<!-- Node4&#45;&gt;Node5 -->
<g id="edge4" class="edge">
<title>Node4&#45;&gt;Node5</title>
<path fill="none" stroke="midnightblue" d="M361.52,-155C379.13,-155 398.86,-155 416.74,-155"/>
<polygon fill="midnightblue" stroke="midnightblue" points="416.74,-158.5 426.74,-155 416.74,-151.5 416.74,-158.5"/>
</g>
<!-- Node6 -->
<g id="node6" class="node">
<title>Node6</title>
<g id="a_node6"><a xlink:href="../../da/d5a/class_lexer.html#a473a8abf892384a3e2769651318d7ab1" target="_top" xlink:title="Анализирует текст программы">
<polygon fill="none" stroke="black" points="556,-145.5 556,-164.5 689,-164.5 689,-145.5 556,-145.5"/>
<text text-anchor="middle" x="622.5" y="-152.5" font-family="Helvetica,sans-Serif" font-size="10.00">Lexer::analyzeProgramText</text>
</a>
</g>
</g>
<!-- Node5&#45;&gt;Node6 -->
<g id="edge5" class="edge">
<title>Node5&#45;&gt;Node6</title>
<path fill="none" stroke="midnightblue" d="M520.21,-155C528.32,-155 536.97,-155 545.66,-155"/>
<polygon fill="midnightblue" stroke="midnightblue" points="545.86,-158.5 555.86,-155 545.86,-151.5 545.86,-158.5"/>
</g>
<!-- Node7 -->
<g id="node7" class="node">
<title>Node7</title>
<g id="a_node7"><a xlink:href="../../d1/d34/class_list.html#ab62bcc4a78278e99a01cacea8ee22423" target="_top" xlink:title="Итератор для начала списка">
<polygon fill="none" stroke="black" points="747,-259.5 747,-278.5 808,-278.5 808,-259.5 747,-259.5"/>
<text text-anchor="middle" x="777.5" y="-266.5" font-family="Helvetica,sans-Serif" font-size="10.00">List::begin</text>
</a>
</g>
</g>
<!-- Node6&#45;&gt;Node7 -->
<g id="edge6" class="edge">
<title>Node6&#45;&gt;Node7</title>
<path fill="none" stroke="midnightblue" d="M631.46,-164.69C647.41,-183.53 685.15,-225.41 725,-250 728.89,-252.4 733.13,-254.57 737.46,-256.51"/>
<polygon fill="midnightblue" stroke="midnightblue" points="736.37,-259.85 746.95,-260.39 739.02,-253.37 736.37,-259.85"/>
</g>
<!-- Node8 -->
<g id="node8" class="node">
<title>Node8</title>
<g id="a_node8"><a xlink:href="../../dd/d5d/_lexer_8cpp.html#a0f45215a7e2c46f1cfbaf626be68fe07" target="_top" xlink:title=" ">
<polygon fill="none" stroke="black" points="733.5,-221.5 733.5,-240.5 821.5,-240.5 821.5,-221.5 733.5,-221.5"/>
<text text-anchor="middle" x="777.5" y="-228.5" font-family="Helvetica,sans-Serif" font-size="10.00">countFromBegin</text>
</a>
</g>
</g>
<!-- Node6&#45;&gt;Node8 -->
<g id="edge7" class="edge">
<title>Node6&#45;&gt;Node8</title>
<path fill="none" stroke="midnightblue" d="M638.92,-164.68C658.47,-176.71 693.44,-197.43 725,-212 729.37,-214.02 734.01,-215.98 738.66,-217.82"/>
<polygon fill="midnightblue" stroke="midnightblue" points="737.52,-221.13 748.11,-221.44 740.02,-214.6 737.52,-221.13"/>
</g>
<!-- Node9 -->
<g id="node9" class="node">
<title>Node9</title>
<g id="a_node9"><a xlink:href="../../d1/d34/class_list.html#a56026b900ba2e5a6c894797b57e9bdf1" target="_top" xlink:title="Конец списка">
<polygon fill="none" stroke="black" points="751,-183.5 751,-202.5 804,-202.5 804,-183.5 751,-183.5"/>
<text text-anchor="middle" x="777.5" y="-190.5" font-family="Helvetica,sans-Serif" font-size="10.00">List::end</text>
</a>
</g>
</g>
<!-- Node6&#45;&gt;Node9 -->
<g id="edge8" class="edge">
<title>Node6&#45;&gt;Node9</title>
<path fill="none" stroke="midnightblue" d="M662.11,-164.59C686.32,-170.6 717.31,-178.3 740.93,-184.16"/>
<polygon fill="midnightblue" stroke="midnightblue" points="740.33,-187.62 750.88,-186.64 742.02,-180.83 740.33,-187.62"/>
</g>
<!-- Node10 -->
<g id="node10" class="node">
<title>Node10</title>
<g id="a_node10"><a xlink:href="../../db/dc1/class_token.html#aa5d6826fae7d616e2cfe3e27b5dd594a" target="_top" xlink:title="Возвращает константную ссылку на строковое представление токена">
<polygon fill="none" stroke="black" points="740.5,-145.5 740.5,-164.5 814.5,-164.5 814.5,-145.5 740.5,-145.5"/>
<text text-anchor="middle" x="777.5" y="-152.5" font-family="Helvetica,sans-Serif" font-size="10.00">Token::getStr</text>
</a>
</g>
</g>
<!-- Node6&#45;&gt;Node10 -->
<g id="edge9" class="edge">
<title>Node6&#45;&gt;Node10</title>
<path fill="none" stroke="midnightblue" d="M689.27,-155C703.08,-155 717.36,-155 730.27,-155"/>
<polygon fill="midnightblue" stroke="midnightblue" points="730.29,-158.5 740.29,-155 730.29,-151.5 730.29,-158.5"/>
</g>
<!-- Node11 -->
<g id="node11" class="node">
<title>Node11</title>
<g id="a_node11"><a xlink:href="../../da/d5a/class_lexer.html#a50d38d21286cb6b84e9a24d267b3b6e0" target="_top" xlink:title="Возвращает строку, у которой убраны пустые символы в начале и конце">
<polygon fill="none" stroke="black" points="729,-107.5 729,-126.5 826,-126.5 826,-107.5 729,-107.5"/>
<text text-anchor="middle" x="777.5" y="-114.5" font-family="Helvetica,sans-Serif" font-size="10.00">Lexer::getTrimmed</text>
</a>
</g>
</g>
<!-- Node6&#45;&gt;Node11 -->
<g id="edge10" class="edge">
<title>Node6&#45;&gt;Node11</title>
<path fill="none" stroke="midnightblue" d="M662.11,-145.41C682.21,-140.42 706.98,-134.27 728.32,-128.97"/>
<polygon fill="midnightblue" stroke="midnightblue" points="729.31,-132.33 738.17,-126.52 727.62,-125.53 729.31,-132.33"/>
</g>
<!-- Node12 -->
<g id="node12" class="node">
<title>Node12</title>
<g id="a_node12"><a xlink:href="../../dd/dfe/class_base_token.html#adf680862efcd78640cb9442b6918dd4d" target="_top" xlink:title="Получение типа токена">
<polygon fill="none" stroke="black" points="725,-69.5 725,-88.5 830,-88.5 830,-69.5 725,-69.5"/>
<text text-anchor="middle" x="777.5" y="-76.5" font-family="Helvetica,sans-Serif" font-size="10.00">BaseToken::getType</text>
</a>
</g>
</g>
<!-- Node6&#45;&gt;Node12 -->
<g id="edge11" class="edge">
<title>Node6&#45;&gt;Node12</title>
<path fill="none" stroke="midnightblue" d="M638.92,-145.32C658.47,-133.29 693.44,-112.57 725,-98 729.37,-95.98 734.01,-94.02 738.66,-92.18"/>
<polygon fill="midnightblue" stroke="midnightblue" points="740.02,-95.4 748.11,-88.56 737.52,-88.87 740.02,-95.4"/>
</g>
<!-- Node13 -->
<g id="node13" class="node">
<title>Node13</title>
<g id="a_node13"><a xlink:href="../../d1/d34/class_list.html#a0c471cf5c09edf2dcbdf1f37cac53e45" target="_top" xlink:title="Вставка в конец списка">
<polygon fill="none" stroke="black" points="737,-31.5 737,-50.5 818,-50.5 818,-31.5 737,-31.5"/>
<text text-anchor="middle" x="777.5" y="-38.5" font-family="Helvetica,sans-Serif" font-size="10.00">List::pushBack</text>
</a>
</g>
</g>
<!-- Node6&#45;&gt;Node13 -->
<g id="edge12" class="edge">
<title>Node6&#45;&gt;Node13</title>
<path fill="none" stroke="midnightblue" d="M631.46,-145.31C647.41,-126.47 685.15,-84.59 725,-60 728.19,-58.03 731.61,-56.22 735.12,-54.56"/>
<polygon fill="midnightblue" stroke="midnightblue" points="736.71,-57.69 744.52,-50.54 733.95,-51.26 736.71,-57.69"/>
</g>
<!-- Node14 -->
<g id="node14" class="node">
<title>Node14</title>
<g id="a_node14"><a xlink:href="../../dc/d8f/class_node.html#a5f29dc4844746c7e7780933173d31a4a" target="_top" xlink:title="Присоединяет узел pNext в качестве следующего узла">
<polygon fill="none" stroke="black" points="866,-31.5 866,-50.5 977,-50.5 977,-31.5 866,-31.5"/>
<text text-anchor="middle" x="921.5" y="-38.5" font-family="Helvetica,sans-Serif" font-size="10.00">Node::connectAsNext</text>
</a>
</g>
</g>
<!-- Node13&#45;&gt;Node14 -->
<g id="edge13" class="edge">
<title>Node13&#45;&gt;Node14</title>
<path fill="none" stroke="midnightblue" d="M818.05,-41C829.71,-41 842.78,-41 855.59,-41"/>
<polygon fill="midnightblue" stroke="midnightblue" points="855.77,-44.5 865.77,-41 855.77,-37.5 855.77,-44.5"/>
</g>
<!-- Node18 -->
<g id="node18" class="node">
<title>Node18</title>
<g id="a_node18"><a xlink:href="../../da/d5a/class_lexer.html#adbeec9404aa60bf4320f23e4b90bfc30" target="_top" xlink:title=" ">
<polygon fill="none" stroke="black" points="435,-38.5 435,-57.5 512,-57.5 512,-38.5 435,-38.5"/>
<text text-anchor="middle" x="473.5" y="-45.5" font-family="Helvetica,sans-Serif" font-size="10.00">Lexer::getText</text>
</a>
</g>
</g>
<!-- Node17&#45;&gt;Node18 -->
<g id="edge17" class="edge">
<title>Node17&#45;&gt;Node18</title>
<path fill="none" stroke="midnightblue" d="M370.2,-36.07C388.18,-38.17 407.62,-40.44 424.68,-42.43"/>
<polygon fill="midnightblue" stroke="midnightblue" points="424.61,-45.94 434.95,-43.62 425.42,-38.99 424.61,-45.94"/>
</g>
<!-- Node19 -->
<g id="node19" class="node">
<title>Node19</title>
<g id="a_node19"><a xlink:href="../../d1/d34/class_list.html#a49c179636e084dfbf7a52acd46acaf01" target="_top" xlink:title=" ">
<polygon fill="none" stroke="black" points="446,-0.5 446,-19.5 501,-19.5 501,-0.5 446,-0.5"/>
<text text-anchor="middle" x="473.5" y="-7.5" font-family="Helvetica,sans-Serif" font-size="10.00">List::size</text>
</a>
</g>
</g>
<!-- Node17&#45;&gt;Node19 -->
<g id="edge18" class="edge">
<title>Node17&#45;&gt;Node19</title>
<path fill="none" stroke="midnightblue" d="M370.2,-21.93C392.19,-19.36 416.35,-16.54 435.67,-14.29"/>
<polygon fill="midnightblue" stroke="midnightblue" points="436.33,-17.74 445.86,-13.11 435.52,-10.79 436.33,-17.74"/>
</g>
</g>
</svg>
