<?xml version="1.0" encoding="UTF-8" standalone="no"?>
<!DOCTYPE svg PUBLIC "-//W3C//DTD SVG 1.1//EN"
 "http://www.w3.org/Graphics/SVG/1.1/DTD/svg11.dtd">
<!-- Generated by graphviz version 2.43.0 (0)
 -->
<!-- Title: magic_enum::detail::calculate_cases Pages: 1 -->
<svg width="419pt" height="88pt"
 viewBox="0.00 0.00 419.00 88.00" xmlns="http://www.w3.org/2000/svg" xmlns:xlink="http://www.w3.org/1999/xlink">
<g id="graph0" class="graph" transform="scale(1 1) rotate(0) translate(4 84)">
<title>magic_enum::detail::calculate_cases</title>
<!-- Node1 -->
<g id="node1" class="node">
<title>Node1</title>
<g id="a_node1"><a xlink:title=" ">
<polygon fill="#bfbfbf" stroke="black" points="0,-24.5 0,-54.5 113,-54.5 113,-24.5 0,-24.5"/>
<text text-anchor="start" x="8" y="-42.5" font-family="Helvetica,sans-Serif" font-size="10.00">magic_enum::detail</text>
<text text-anchor="middle" x="56.5" y="-31.5" font-family="Helvetica,sans-Serif" font-size="10.00">::calculate_cases</text>
</a>
</g>
</g>
<!-- Node2 -->
<g id="node2" class="node">
<title>Node2</title>
<g id="a_node2"><a xlink:href="../../dd/d3d/namespacemagic__enum_1_1detail.html#aacc21653fac819e660bbdb1f8555ec32" target="_top" xlink:title=" ">
<polygon fill="none" stroke="black" points="149,-24.5 149,-54.5 262,-54.5 262,-24.5 149,-24.5"/>
<text text-anchor="start" x="157" y="-42.5" font-family="Helvetica,sans-Serif" font-size="10.00">magic_enum::detail</text>
<text text-anchor="middle" x="205.5" y="-31.5" font-family="Helvetica,sans-Serif" font-size="10.00">::values</text>
</a>
</g>
</g>
<!-- Node1&#45;&gt;Node2 -->
<g id="edge1" class="edge">
<title>Node1&#45;&gt;Node2</title>
<path fill="none" stroke="midnightblue" d="M113.07,-39.5C121.49,-39.5 130.24,-39.5 138.84,-39.5"/>
<polygon fill="midnightblue" stroke="midnightblue" points="138.85,-43 148.85,-39.5 138.85,-36 138.85,-43"/>
</g>
<!-- Node3 -->
<g id="node3" class="node">
<title>Node3</title>
<g id="a_node3"><a xlink:href="../../dd/d3d/namespacemagic__enum_1_1detail.html#a522f05bc669dde1aa4ce89948fb41833" target="_top" xlink:title=" ">
<polygon fill="none" stroke="black" points="298,-49.5 298,-79.5 411,-79.5 411,-49.5 298,-49.5"/>
<text text-anchor="start" x="306" y="-67.5" font-family="Helvetica,sans-Serif" font-size="10.00">magic_enum::detail</text>
<text text-anchor="middle" x="354.5" y="-56.5" font-family="Helvetica,sans-Serif" font-size="10.00">::to_array</text>
</a>
</g>
</g>
<!-- Node2&#45;&gt;Node3 -->
<g id="edge2" class="edge">
<title>Node2&#45;&gt;Node3</title>
<path fill="none" stroke="midnightblue" d="M262.07,-48.95C270.49,-50.38 279.24,-51.87 287.84,-53.33"/>
<polygon fill="midnightblue" stroke="midnightblue" points="287.4,-56.81 297.85,-55.04 288.58,-49.91 287.4,-56.81"/>
</g>
<!-- Node4 -->
<g id="node4" class="node">
<title>Node4</title>
<g id="a_node4"><a xlink:href="../../dd/d3d/namespacemagic__enum_1_1detail.html#a74bee2df0066e1c05336b63d693345f8" target="_top" xlink:title=" ">
<polygon fill="none" stroke="black" points="298,-0.5 298,-30.5 411,-30.5 411,-0.5 298,-0.5"/>
<text text-anchor="start" x="306" y="-18.5" font-family="Helvetica,sans-Serif" font-size="10.00">magic_enum::detail</text>
<text text-anchor="middle" x="354.5" y="-7.5" font-family="Helvetica,sans-Serif" font-size="10.00">::values_count</text>
</a>
</g>
</g>
<!-- Node2&#45;&gt;Node4 -->
<g id="edge3" class="edge">
<title>Node2&#45;&gt;Node4</title>
<path fill="none" stroke="midnightblue" d="M262.07,-30.43C270.49,-29.05 279.24,-27.62 287.84,-26.22"/>
<polygon fill="midnightblue" stroke="midnightblue" points="288.54,-29.65 297.85,-24.59 287.41,-22.74 288.54,-29.65"/>
</g>
</g>
</svg>
