<?xml version="1.0" encoding="UTF-8" standalone="no"?>
<!DOCTYPE svg PUBLIC "-//W3C//DTD SVG 1.1//EN"
 "http://www.w3.org/Graphics/SVG/1.1/DTD/svg11.dtd">
<!-- Generated by graphviz version 2.43.0 (0)
 -->
<!-- Title: magic_enum::detail::fuse_one_enum Pages: 1 -->
<svg width="452pt" height="100pt"
 viewBox="0.00 0.00 452.00 99.50" xmlns="http://www.w3.org/2000/svg" xmlns:xlink="http://www.w3.org/1999/xlink">
<g id="graph0" class="graph" transform="scale(1 1) rotate(0) translate(4 95.5)">
<title>magic_enum::detail::fuse_one_enum</title>
<!-- Node1 -->
<g id="node1" class="node">
<title>Node1</title>
<g id="a_node1"><a xlink:title=" ">
<polygon fill="#bfbfbf" stroke="black" points="0,-22.5 0,-52.5 113,-52.5 113,-22.5 0,-22.5"/>
<text text-anchor="start" x="8" y="-40.5" font-family="Helvetica,sans-Serif" font-size="10.00">magic_enum::detail</text>
<text text-anchor="middle" x="56.5" y="-29.5" font-family="Helvetica,sans-Serif" font-size="10.00">::fuse_one_enum</text>
</a>
</g>
</g>
<!-- Node2 -->
<g id="node2" class="node">
<title>Node2</title>
<g id="a_node2"><a xlink:href="../../d2/da7/namespacemagic__enum.html#af40d3342c1407f93e4ace696c24c970d" target="_top" xlink:title=" ">
<polygon fill="none" stroke="black" points="149,-72 149,-91 295,-91 295,-72 149,-72"/>
<text text-anchor="middle" x="222" y="-79" font-family="Helvetica,sans-Serif" font-size="10.00">magic_enum::enum_index</text>
</a>
</g>
</g>
<!-- Node1&#45;&gt;Node2 -->
<g id="edge1" class="edge">
<title>Node1&#45;&gt;Node2</title>
<path fill="none" stroke="midnightblue" d="M112.15,-52.52C124.28,-55.82 137.07,-59.3 149,-62.5 157.35,-64.74 166.24,-67.11 174.83,-69.38"/>
<polygon fill="midnightblue" stroke="midnightblue" points="174.16,-72.82 184.72,-71.99 175.95,-66.06 174.16,-72.82"/>
</g>
<!-- Node3 -->
<g id="node3" class="node">
<title>Node3</title>
<g id="a_node3"><a xlink:href="../../dd/d3d/namespacemagic__enum_1_1detail.html#a1f435c2b919eb3622324d94892c8bc0b" target="_top" xlink:title=" ">
<polygon fill="none" stroke="black" points="165.5,-22.5 165.5,-52.5 278.5,-52.5 278.5,-22.5 165.5,-22.5"/>
<text text-anchor="start" x="173.5" y="-40.5" font-family="Helvetica,sans-Serif" font-size="10.00">magic_enum::detail</text>
<text text-anchor="middle" x="222" y="-29.5" font-family="Helvetica,sans-Serif" font-size="10.00">::log2</text>
</a>
</g>
</g>
<!-- Node1&#45;&gt;Node3 -->
<g id="edge2" class="edge">
<title>Node1&#45;&gt;Node3</title>
<path fill="none" stroke="midnightblue" d="M113.31,-37.5C126.86,-37.5 141.47,-37.5 155.42,-37.5"/>
<polygon fill="midnightblue" stroke="midnightblue" points="155.44,-41 165.44,-37.5 155.44,-34 155.44,-41"/>
</g>
<!-- Node4 -->
<g id="node4" class="node">
<title>Node4</title>
<g id="a_node4"><a xlink:href="../../dd/d3d/namespacemagic__enum_1_1detail.html#a8e06754b490522d8ae02cd8983e3fcbf" target="_top" xlink:title=" ">
<polygon fill="none" stroke="black" points="331,-0.5 331,-30.5 444,-30.5 444,-0.5 331,-0.5"/>
<text text-anchor="start" x="339" y="-18.5" font-family="Helvetica,sans-Serif" font-size="10.00">magic_enum::detail</text>
<text text-anchor="middle" x="387.5" y="-7.5" font-family="Helvetica,sans-Serif" font-size="10.00">::value</text>
</a>
</g>
</g>
<!-- Node1&#45;&gt;Node4 -->
<g id="edge4" class="edge">
<title>Node1&#45;&gt;Node4</title>
<path fill="none" stroke="midnightblue" d="M105.48,-22.45C119.38,-18.76 134.67,-15.35 149,-13.5 206.53,-6.08 272.55,-7.42 320.36,-10.13"/>
<polygon fill="midnightblue" stroke="midnightblue" points="320.39,-13.64 330.58,-10.75 320.81,-6.65 320.39,-13.64"/>
</g>
<!-- Node3&#45;&gt;Node4 -->
<g id="edge3" class="edge">
<title>Node3&#45;&gt;Node4</title>
<path fill="none" stroke="midnightblue" d="M278.81,-29.99C292.36,-28.17 306.97,-26.2 320.92,-24.32"/>
<polygon fill="midnightblue" stroke="midnightblue" points="321.5,-27.78 330.94,-22.98 320.56,-20.84 321.5,-27.78"/>
</g>
</g>
</svg>
