<?xml version="1.0" encoding="UTF-8" standalone="no"?>
<!DOCTYPE svg PUBLIC "-//W3C//DTD SVG 1.1//EN"
 "http://www.w3.org/Graphics/SVG/1.1/DTD/svg11.dtd">
<!-- Generated by graphviz version 3.0.0 (20220413.0106)
 -->
<!-- Title: isIn Pages: 1 -->
<svg width="2578pt" height="522pt"
 viewBox="0.00 0.00 2578.00 522.00" xmlns="http://www.w3.org/2000/svg" xmlns:xlink="http://www.w3.org/1999/xlink">
<g id="graph0" class="graph" transform="scale(1 1) rotate(0) translate(4 518)">
<title>isIn</title>
<!-- Node1 -->
<g id="node1" class="node">
<title>Node1</title>
<g id="a_node1"><a xlink:title="Возвращает истину, если value находится среди значений cont.">
<polygon fill="#bfbfbf" stroke="black" points="2538,-95.5 2538,-114.5 2570,-114.5 2570,-95.5 2538,-95.5"/>
<text text-anchor="middle" x="2554" y="-102.5" font-family="Helvetica,sans-Serif" font-size="10.00">isIn</text>
</a>
</g>
</g>
<!-- Node2 -->
<g id="node2" class="node">
<title>Node2</title>
<g id="a_node2"><a xlink:href="../../dd/dad/class_semantic_visitor.html#a87acf26a41a709a3faf17b57ad675c2a" target="_top" xlink:title="Сравнение типов по правилам Паскаля. Если strict == true, то имена типов должны абсолютно совпадать">
<polygon fill="none" stroke="black" points="2371,-416 2371,-446 2499,-446 2499,-416 2371,-416"/>
<text text-anchor="start" x="2379" y="-434" font-family="Helvetica,sans-Serif" font-size="10.00">SemanticVisitor::compare</text>
<text text-anchor="middle" x="2435" y="-423" font-family="Helvetica,sans-Serif" font-size="10.00">Types</text>
</a>
</g>
</g>
<!-- Node1&#45;&gt;Node2 -->
<g id="edge1" class="edge">
<title>Node1&#45;&gt;Node2</title>
<path fill="none" stroke="midnightblue" d="M2549.99,-125.08C2543.89,-162.98 2528.38,-247.27 2502,-314 2486.74,-352.6 2460.79,-394.09 2446.4,-415.79"/>
<polygon fill="midnightblue" stroke="midnightblue" points="2553.49,-125.29 2551.58,-114.87 2546.58,-124.22 2553.49,-125.29"/>
</g>
<!-- Node4 -->
<g id="node4" class="node">
<title>Node4</title>
<g id="a_node4"><a xlink:href="../../d0/dfe/class_syntax_analyzer.html#a3c3f51ab7cdb341ac4fa460e352150ae" target="_top" xlink:title=" ">
<polygon fill="none" stroke="black" points="2368,-285.5 2368,-304.5 2502,-304.5 2502,-285.5 2368,-285.5"/>
<text text-anchor="middle" x="2435" y="-292.5" font-family="Helvetica,sans-Serif" font-size="10.00">SyntaxAnalyzer::syntaxExpr</text>
</a>
</g>
</g>
<!-- Node1&#45;&gt;Node4 -->
<g id="edge3" class="edge">
<title>Node1&#45;&gt;Node4</title>
<path fill="none" stroke="midnightblue" d="M2541.57,-123.56C2517.17,-163.18 2460.73,-254.85 2442.09,-285.11"/>
<polygon fill="midnightblue" stroke="midnightblue" points="2544.77,-125.03 2547.04,-114.68 2538.81,-121.36 2544.77,-125.03"/>
</g>
<!-- Node14 -->
<g id="node14" class="node">
<title>Node14</title>
<g id="a_node14"><a xlink:href="../../d0/dfe/class_syntax_analyzer.html#ada547456d19f4a7490f57f7dc9bfed94" target="_top" xlink:title=" ">
<polygon fill="none" stroke="black" points="466,-248.5 466,-267.5 618,-267.5 618,-248.5 466,-248.5"/>
<text text-anchor="middle" x="542" y="-255.5" font-family="Helvetica,sans-Serif" font-size="10.00">SyntaxAnalyzer::syntaxProgram</text>
</a>
</g>
</g>
<!-- Node1&#45;&gt;Node14 -->
<g id="edge45" class="edge">
<title>Node1&#45;&gt;Node14</title>
<path fill="none" stroke="midnightblue" d="M2528.24,-94.61C2520,-91.47 2510.71,-88.26 2502,-86 2393.64,-57.87 2364.95,-48 2253,-48 2253,-48 2253,-48 911,-48 746.96,-48 589.47,-207.35 551.59,-248.43"/>
<polygon fill="midnightblue" stroke="midnightblue" points="2527.06,-97.91 2537.64,-98.34 2529.63,-91.4 2527.06,-97.91"/>
</g>
<!-- Node23 -->
<g id="node23" class="node">
<title>Node23</title>
<g id="a_node23"><a xlink:href="../../d0/dfe/class_syntax_analyzer.html#a1f83850370eb120ec67a6cc19ce99e2e" target="_top" xlink:title=" ">
<polygon fill="none" stroke="black" points="1800,-114.5 1800,-133.5 1937,-133.5 1937,-114.5 1800,-114.5"/>
<text text-anchor="middle" x="1868.5" y="-121.5" font-family="Helvetica,sans-Serif" font-size="10.00">SyntaxAnalyzer::syntaxTerm</text>
</a>
</g>
</g>
<!-- Node1&#45;&gt;Node23 -->
<g id="edge47" class="edge">
<title>Node1&#45;&gt;Node23</title>
<path fill="none" stroke="midnightblue" d="M2527.48,-105.71C2430.79,-108.4 2085.01,-118.01 1937.24,-122.12"/>
<polygon fill="midnightblue" stroke="midnightblue" points="2527.87,-109.2 2537.77,-105.42 2527.67,-102.2 2527.87,-109.2"/>
</g>
<!-- Node24 -->
<g id="node24" class="node">
<title>Node24</title>
<g id="a_node24"><a xlink:href="../../d0/dfe/class_syntax_analyzer.html#a65d458f8a460cd5153c013f9dc2b6d90" target="_top" xlink:title=" ">
<polygon fill="none" stroke="black" points="1592,-114.5 1592,-133.5 1756,-133.5 1756,-114.5 1592,-114.5"/>
<text text-anchor="middle" x="1674" y="-121.5" font-family="Helvetica,sans-Serif" font-size="10.00">SyntaxAnalyzer::syntaxSimpleExpr</text>
</a>
</g>
</g>
<!-- Node1&#45;&gt;Node24 -->
<g id="edge46" class="edge">
<title>Node1&#45;&gt;Node24</title>
<path fill="none" stroke="midnightblue" d="M2527.49,-102.29C2475.78,-97.04 2354.86,-86 2253,-86 2253,-86 2253,-86 2057.5,-86 1939.2,-86 1909.5,-91.28 1792,-105 1770.74,-107.48 1747.45,-111.08 1727.28,-114.48"/>
<polygon fill="midnightblue" stroke="midnightblue" points="2527.42,-105.8 2537.72,-103.35 2528.14,-98.84 2527.42,-105.8"/>
</g>
<!-- Node29 -->
<g id="node29" class="node">
<title>Node29</title>
<g id="a_node29"><a xlink:href="../../dd/dad/class_semantic_visitor.html#acec505e2c5fc2f49a80b7a41832fefbf" target="_top" xlink:title=" ">
<polygon fill="none" stroke="black" points="2381,-0.5 2381,-19.5 2489,-19.5 2489,-0.5 2381,-0.5"/>
<text text-anchor="middle" x="2435" y="-7.5" font-family="Helvetica,sans-Serif" font-size="10.00">SemanticVisitor::visit</text>
</a>
</g>
</g>
<!-- Node1&#45;&gt;Node29 -->
<g id="edge48" class="edge">
<title>Node1&#45;&gt;Node29</title>
<path fill="none" stroke="midnightblue" d="M2543.76,-86.38C2534.99,-70.46 2520.43,-47.96 2502,-34 2493.84,-27.82 2483.92,-23.11 2474.29,-19.57"/>
<polygon fill="midnightblue" stroke="midnightblue" points="2540.7,-88.09 2548.45,-95.31 2546.9,-84.83 2540.7,-88.09"/>
</g>
<!-- Node3 -->
<g id="node3" class="node">
<title>Node3</title>
<g id="a_node3"><a xlink:href="../../dd/dad/class_semantic_visitor.html#a9dafa767f285b3978b48181c3ad882df" target="_top" xlink:title=" ">
<polygon fill="none" stroke="black" points="2198,-494.5 2198,-513.5 2306,-513.5 2306,-494.5 2198,-494.5"/>
<text text-anchor="middle" x="2252" y="-501.5" font-family="Helvetica,sans-Serif" font-size="10.00">SemanticVisitor::visit</text>
</a>
</g>
</g>
<!-- Node2&#45;&gt;Node3 -->
<g id="edge2" class="edge">
<title>Node2&#45;&gt;Node3</title>
<path fill="none" stroke="midnightblue" d="M2400.89,-451.26C2381.4,-462.48 2355.95,-475.95 2332,-485 2322.24,-488.69 2311.52,-491.84 2301.21,-494.44"/>
<polygon fill="midnightblue" stroke="midnightblue" points="2402.8,-454.19 2409.67,-446.12 2399.27,-448.15 2402.8,-454.19"/>
</g>
<!-- Node5 -->
<g id="node5" class="node">
<title>Node5</title>
<g id="a_node5"><a xlink:href="../../d0/dfe/class_syntax_analyzer.html#a3e87b8ffb5f24f1db097bfb6aaeb8c2d" target="_top" xlink:title=" ">
<polygon fill="none" stroke="black" points="1981,-324.5 1981,-343.5 2136,-343.5 2136,-324.5 1981,-324.5"/>
<text text-anchor="middle" x="2058.5" y="-331.5" font-family="Helvetica,sans-Serif" font-size="10.00">SyntaxAnalyzer::syntaxAssignSt</text>
</a>
</g>
</g>
<!-- Node4&#45;&gt;Node5 -->
<g id="edge4" class="edge">
<title>Node4&#45;&gt;Node5</title>
<path fill="none" stroke="midnightblue" d="M2405.47,-308.73C2385.44,-317.59 2357.72,-328.32 2332,-333 2266.72,-344.89 2191.18,-344.05 2136.21,-340.86"/>
<polygon fill="midnightblue" stroke="midnightblue" points="2406.99,-311.88 2414.65,-304.56 2404.1,-305.51 2406.99,-311.88"/>
</g>
<!-- Node9 -->
<g id="node9" class="node">
<title>Node9</title>
<g id="a_node9"><a xlink:href="../../d0/dfe/class_syntax_analyzer.html#a44506791ee9420b418715a9e87908aeb" target="_top" xlink:title=" ">
<polygon fill="none" stroke="black" points="1234,-343.5 1234,-362.5 1365,-362.5 1365,-343.5 1234,-343.5"/>
<text text-anchor="middle" x="1299.5" y="-350.5" font-family="Helvetica,sans-Serif" font-size="10.00">SyntaxAnalyzer::syntaxIfSt</text>
</a>
</g>
</g>
<!-- Node4&#45;&gt;Node9 -->
<g id="edge38" class="edge">
<title>Node4&#45;&gt;Node9</title>
<path fill="none" stroke="midnightblue" d="M2419.17,-312.1C2400.82,-332.05 2367.62,-364.42 2332,-381 2220.58,-432.86 2182.4,-428 2059.5,-428 2059.5,-428 2059.5,-428 1673,-428 1542.05,-428 1390.22,-382.91 1328.62,-362.65"/>
<polygon fill="midnightblue" stroke="midnightblue" points="2421.79,-314.41 2425.87,-304.63 2416.59,-309.74 2421.79,-314.41"/>
</g>
<!-- Node20 -->
<g id="node20" class="node">
<title>Node20</title>
<g id="a_node20"><a xlink:href="../../d0/dfe/class_syntax_analyzer.html#a4a85e884f3f202c24ce09cc0c0e281b1" target="_top" xlink:title=" ">
<polygon fill="none" stroke="black" points="1225,-229.5 1225,-248.5 1374,-248.5 1374,-229.5 1225,-229.5"/>
<text text-anchor="middle" x="1299.5" y="-236.5" font-family="Helvetica,sans-Serif" font-size="10.00">SyntaxAnalyzer::syntaxWhileSt</text>
</a>
</g>
</g>
<!-- Node4&#45;&gt;Node20 -->
<g id="edge44" class="edge">
<title>Node4&#45;&gt;Node20</title>
<path fill="none" stroke="midnightblue" d="M2413,-279.52C2393.17,-265.74 2362.06,-246.23 2332,-236 2216.34,-196.66 2181.66,-200 2059.5,-200 2059.5,-200 2059.5,-200 1673,-200 1560.18,-200 1429.19,-217.91 1356.47,-229.46"/>
<polygon fill="midnightblue" stroke="midnightblue" points="2411.1,-282.46 2421.28,-285.4 2415.15,-276.76 2411.1,-282.46"/>
</g>
<!-- Node21 -->
<g id="node21" class="node">
<title>Node21</title>
<g id="a_node21"><a xlink:href="../../d0/dfe/class_syntax_analyzer.html#a21f6ed68cce9f38063319d350afc1239" target="_top" xlink:title=" ">
<polygon fill="none" stroke="black" points="2181.5,-266.5 2181.5,-285.5 2322.5,-285.5 2322.5,-266.5 2181.5,-266.5"/>
<text text-anchor="middle" x="2252" y="-273.5" font-family="Helvetica,sans-Serif" font-size="10.00">SyntaxAnalyzer::syntaxCallSt</text>
</a>
</g>
</g>
<!-- Node4&#45;&gt;Node21 -->
<g id="edge26" class="edge">
<title>Node4&#45;&gt;Node21</title>
<path fill="none" stroke="midnightblue" d="M2357.74,-286.99C2346.08,-285.77 2334.09,-284.51 2322.59,-283.3"/>
<polygon fill="midnightblue" stroke="midnightblue" points="2357.58,-290.5 2367.89,-288.06 2358.31,-283.53 2357.58,-290.5"/>
</g>
<!-- Node22 -->
<g id="node22" class="node">
<title>Node22</title>
<g id="a_node22"><a xlink:href="../../d0/dfe/class_syntax_analyzer.html#a0d5fca8c5ec85c61bcf65df3693ce384" target="_top" xlink:title=" ">
<polygon fill="none" stroke="black" points="1987,-230.5 1987,-249.5 2130,-249.5 2130,-230.5 1987,-230.5"/>
<text text-anchor="middle" x="2058.5" y="-237.5" font-family="Helvetica,sans-Serif" font-size="10.00">SyntaxAnalyzer::syntaxFactor</text>
</a>
</g>
</g>
<!-- Node4&#45;&gt;Node22 -->
<g id="edge37" class="edge">
<title>Node4&#45;&gt;Node22</title>
<path fill="none" stroke="midnightblue" d="M2404.63,-281.42C2384.61,-272.83 2357.26,-262.37 2332,-257 2264.54,-242.66 2185.74,-239.13 2130.28,-238.75"/>
<polygon fill="midnightblue" stroke="midnightblue" points="2403.26,-284.64 2413.82,-285.46 2406.07,-278.23 2403.26,-284.64"/>
</g>
<!-- Node25 -->
<g id="node25" class="node">
<title>Node25</title>
<g id="a_node25"><a xlink:href="../../d0/dfe/class_syntax_analyzer.html#ad43214817dbe71119316f653b4cbbefb" target="_top" xlink:title=" ">
<polygon fill="none" stroke="black" points="2172,-456.5 2172,-475.5 2332,-475.5 2332,-456.5 2172,-456.5"/>
<text text-anchor="middle" x="2252" y="-463.5" font-family="Helvetica,sans-Serif" font-size="10.00">SyntaxAnalyzer::syntaxConstDecl</text>
</a>
</g>
</g>
<!-- Node4&#45;&gt;Node25 -->
<g id="edge34" class="edge">
<title>Node4&#45;&gt;Node25</title>
<path fill="none" stroke="midnightblue" d="M2423.16,-313.69C2402.27,-349.16 2356.33,-424.28 2332,-442 2323.31,-448.33 2312.93,-453.01 2302.6,-456.47"/>
<polygon fill="midnightblue" stroke="midnightblue" points="2426.33,-315.22 2428.35,-304.82 2420.28,-311.68 2426.33,-315.22"/>
</g>
<!-- Node27 -->
<g id="node27" class="node">
<title>Node27</title>
<g id="a_node27"><a xlink:href="../../d0/dfe/class_syntax_analyzer.html#a24dfeabcc9335e5f3f040f7cf0c64fd9" target="_top" xlink:title=" ">
<polygon fill="none" stroke="black" points="1792,-370.5 1792,-389.5 1945,-389.5 1945,-370.5 1792,-370.5"/>
<text text-anchor="middle" x="1868.5" y="-377.5" font-family="Helvetica,sans-Serif" font-size="10.00">SyntaxAnalyzer::syntaxReturnSt</text>
</a>
</g>
</g>
<!-- Node4&#45;&gt;Node27 -->
<g id="edge39" class="edge">
<title>Node4&#45;&gt;Node27</title>
<path fill="none" stroke="midnightblue" d="M2413.07,-310.43C2393.29,-324.07 2362.22,-343.15 2332,-352 2200.19,-390.62 2038.45,-390.18 1945.35,-385.6"/>
<polygon fill="midnightblue" stroke="midnightblue" points="2415.18,-313.23 2421.33,-304.6 2411.14,-307.51 2415.18,-313.23"/>
</g>
<!-- Node28 -->
<g id="node28" class="node">
<title>Node28</title>
<g id="a_node28"><a xlink:href="../../d0/dfe/class_syntax_analyzer.html#aee174af1cc97011051b2a8a87d2a5e7d" target="_top" xlink:title=" ">
<polygon fill="none" stroke="black" points="2180.5,-304.5 2180.5,-323.5 2323.5,-323.5 2323.5,-304.5 2180.5,-304.5"/>
<text text-anchor="middle" x="2252" y="-311.5" font-family="Helvetica,sans-Serif" font-size="10.00">SyntaxAnalyzer::syntaxSelect</text>
</a>
</g>
</g>
<!-- Node4&#45;&gt;Node28 -->
<g id="edge41" class="edge">
<title>Node4&#45;&gt;Node28</title>
<path fill="none" stroke="midnightblue" d="M2357.61,-303.02C2346.3,-304.21 2334.69,-305.43 2323.5,-306.6"/>
<polygon fill="midnightblue" stroke="midnightblue" points="2358.31,-306.47 2367.89,-301.94 2357.58,-299.5 2358.31,-306.47"/>
</g>
<!-- Node6 -->
<g id="node6" class="node">
<title>Node6</title>
<g id="a_node6"><a xlink:href="../../d0/dfe/class_syntax_analyzer.html#acef4b19447f253a6e25d762733ca8ede" target="_top" xlink:title=" ">
<polygon fill="none" stroke="black" points="1804,-248.5 1804,-267.5 1933,-267.5 1933,-248.5 1804,-248.5"/>
<text text-anchor="middle" x="1868.5" y="-255.5" font-family="Helvetica,sans-Serif" font-size="10.00">SyntaxAnalyzer::syntaxIter</text>
</a>
</g>
</g>
<!-- Node5&#45;&gt;Node6 -->
<g id="edge5" class="edge">
<title>Node5&#45;&gt;Node6</title>
<path fill="none" stroke="midnightblue" d="M2024.18,-320.53C1986.53,-305.31 1926.21,-280.92 1893.12,-267.55"/>
<polygon fill="midnightblue" stroke="midnightblue" points="2023.11,-323.87 2033.69,-324.37 2025.73,-317.38 2023.11,-323.87"/>
</g>
<!-- Node8 -->
<g id="node8" class="node">
<title>Node8</title>
<g id="a_node8"><a xlink:href="../../d0/dfe/class_syntax_analyzer.html#a1332b189c9be3ef8969eda9f078a97b3" target="_top" xlink:title=" ">
<polygon fill="none" stroke="black" points="1420.5,-286.5 1420.5,-305.5 1545.5,-305.5 1545.5,-286.5 1420.5,-286.5"/>
<text text-anchor="middle" x="1483" y="-293.5" font-family="Helvetica,sans-Serif" font-size="10.00">SyntaxAnalyzer::syntaxSt</text>
</a>
</g>
</g>
<!-- Node5&#45;&gt;Node8 -->
<g id="edge25" class="edge">
<title>Node5&#45;&gt;Node8</title>
<path fill="none" stroke="midnightblue" d="M1970.49,-331.53C1876.87,-328.39 1723.67,-321.91 1592,-310 1576.94,-308.64 1560.74,-306.76 1545.59,-304.82"/>
<polygon fill="midnightblue" stroke="midnightblue" points="1970.66,-335.03 1980.77,-331.86 1970.89,-328.04 1970.66,-335.03"/>
</g>
<!-- Node7 -->
<g id="node7" class="node">
<title>Node7</title>
<g id="a_node7"><a xlink:href="../../d0/dfe/class_syntax_analyzer.html#afd2005539c57ee2575cab3c50d061cd9" target="_top" xlink:title=" ">
<polygon fill="none" stroke="black" points="1604.5,-248.5 1604.5,-267.5 1743.5,-267.5 1743.5,-248.5 1604.5,-248.5"/>
<text text-anchor="middle" x="1674" y="-255.5" font-family="Helvetica,sans-Serif" font-size="10.00">SyntaxAnalyzer::syntaxForSt</text>
</a>
</g>
</g>
<!-- Node6&#45;&gt;Node7 -->
<g id="edge6" class="edge">
<title>Node6&#45;&gt;Node7</title>
<path fill="none" stroke="midnightblue" d="M1793.84,-258C1777.4,-258 1760.03,-258 1743.8,-258"/>
<polygon fill="midnightblue" stroke="midnightblue" points="1793.93,-261.5 1803.93,-258 1793.93,-254.5 1793.93,-261.5"/>
</g>
<!-- Node7&#45;&gt;Node8 -->
<g id="edge7" class="edge">
<title>Node7&#45;&gt;Node8</title>
<path fill="none" stroke="midnightblue" d="M1594.54,-267.11C1563.55,-273 1530.19,-280.36 1508.32,-286.41"/>
<polygon fill="midnightblue" stroke="midnightblue" points="1595.31,-270.53 1604.5,-265.25 1594.03,-263.65 1595.31,-270.53"/>
</g>
<!-- Node8&#45;&gt;Node7 -->
<g id="edge8" class="edge">
<title>Node8&#45;&gt;Node7</title>
<path fill="none" stroke="midnightblue" d="M1555.61,-288.17C1588.44,-282.1 1625.19,-274.08 1648.68,-267.59"/>
<polygon fill="midnightblue" stroke="midnightblue" points="1554.79,-284.77 1545.57,-289.99 1556.03,-291.65 1554.79,-284.77"/>
</g>
<!-- Node8&#45;&gt;Node9 -->
<g id="edge9" class="edge">
<title>Node8&#45;&gt;Node9</title>
<path fill="none" stroke="midnightblue" d="M1421.89,-308.48C1385.53,-319.03 1341.73,-333.52 1317.95,-343.34"/>
<polygon fill="midnightblue" stroke="midnightblue" points="1423.27,-311.73 1431.92,-305.62 1421.35,-305 1423.27,-311.73"/>
</g>
<!-- Node10 -->
<g id="node10" class="node">
<title>Node10</title>
<g id="a_node10"><a xlink:href="../../d0/dfe/class_syntax_analyzer.html#a01d109f26cc4d069b40fed83435e3141" target="_top" xlink:title=" ">
<polygon fill="none" stroke="black" points="1229,-267.5 1229,-286.5 1370,-286.5 1370,-267.5 1229,-267.5"/>
<text text-anchor="middle" x="1299.5" y="-274.5" font-family="Helvetica,sans-Serif" font-size="10.00">SyntaxAnalyzer::syntaxStList</text>
</a>
</g>
</g>
<!-- Node8&#45;&gt;Node10 -->
<g id="edge11" class="edge">
<title>Node8&#45;&gt;Node10</title>
<path fill="none" stroke="midnightblue" d="M1410.32,-288.5C1397.09,-287.11 1383.31,-285.67 1370.14,-284.29"/>
<polygon fill="midnightblue" stroke="midnightblue" points="1409.99,-291.98 1420.3,-289.54 1410.72,-285.02 1409.99,-291.98"/>
</g>
<!-- Node8&#45;&gt;Node20 -->
<g id="edge23" class="edge">
<title>Node8&#45;&gt;Node20</title>
<path fill="none" stroke="midnightblue" d="M1461.93,-281.69C1440.37,-271.29 1405.02,-258.45 1374,-249 1373.5,-248.85 1372.99,-248.69 1372.48,-248.54"/>
<polygon fill="midnightblue" stroke="midnightblue" points="1460.58,-284.93 1471.06,-286.42 1463.8,-278.71 1460.58,-284.93"/>
</g>
<!-- Node9&#45;&gt;Node8 -->
<g id="edge10" class="edge">
<title>Node9&#45;&gt;Node8</title>
<path fill="none" stroke="midnightblue" d="M1360.05,-340.68C1396.71,-330.06 1441.11,-315.38 1464.92,-305.51"/>
<polygon fill="midnightblue" stroke="midnightblue" points="1359.09,-337.31 1350.43,-343.42 1361.01,-344.05 1359.09,-337.31"/>
</g>
<!-- Node11 -->
<g id="node11" class="node">
<title>Node11</title>
<g id="a_node11"><a xlink:href="../../d0/dfe/class_syntax_analyzer.html#a1390f811b111005b207bd039d2623dd4" target="_top" xlink:title=" ">
<polygon fill="none" stroke="black" points="1018,-286.5 1018,-305.5 1189,-305.5 1189,-286.5 1018,-286.5"/>
<text text-anchor="middle" x="1103.5" y="-293.5" font-family="Helvetica,sans-Serif" font-size="10.00">SyntaxAnalyzer::syntaxCompoundSt</text>
</a>
</g>
</g>
<!-- Node10&#45;&gt;Node11 -->
<g id="edge12" class="edge">
<title>Node10&#45;&gt;Node11</title>
<path fill="none" stroke="midnightblue" d="M1218.7,-284.82C1208.97,-285.77 1199.01,-286.74 1189.21,-287.7"/>
<polygon fill="midnightblue" stroke="midnightblue" points="1219.12,-288.29 1228.74,-283.83 1218.44,-281.32 1219.12,-288.29"/>
</g>
<!-- Node11&#45;&gt;Node8 -->
<g id="edge22" class="edge">
<title>Node11&#45;&gt;Node8</title>
<path fill="none" stroke="midnightblue" d="M1199.07,-296C1268.23,-296 1360.08,-296 1420.09,-296"/>
<polygon fill="midnightblue" stroke="midnightblue" points="1199.04,-292.5 1189.04,-296 1199.04,-299.5 1199.04,-292.5"/>
</g>
<!-- Node12 -->
<g id="node12" class="node">
<title>Node12</title>
<g id="a_node12"><a xlink:href="../../d0/dfe/class_syntax_analyzer.html#a500e4e0cd0605ebbee4ab452948fa2ca" target="_top" xlink:title=" ">
<polygon fill="none" stroke="black" points="842,-286.5 842,-305.5 982,-305.5 982,-286.5 842,-286.5"/>
<text text-anchor="middle" x="912" y="-293.5" font-family="Helvetica,sans-Serif" font-size="10.00">SyntaxAnalyzer::syntaxBlock</text>
</a>
</g>
</g>
<!-- Node11&#45;&gt;Node12 -->
<g id="edge13" class="edge">
<title>Node11&#45;&gt;Node12</title>
<path fill="none" stroke="midnightblue" d="M1007.63,-296C999.02,-296 990.41,-296 982.08,-296"/>
<polygon fill="midnightblue" stroke="midnightblue" points="1007.73,-299.5 1017.73,-296 1007.73,-292.5 1007.73,-299.5"/>
</g>
<!-- Node13 -->
<g id="node13" class="node">
<title>Node13</title>
<g id="a_node13"><a xlink:href="../../d0/dfe/class_syntax_analyzer.html#a4dc8338b4fc879f36e63f27fe3ce7041" target="_top" xlink:title=" ">
<polygon fill="none" stroke="black" points="654,-248.5 654,-267.5 806,-267.5 806,-248.5 654,-248.5"/>
<text text-anchor="middle" x="730" y="-255.5" font-family="Helvetica,sans-Serif" font-size="10.00">SyntaxAnalyzer::syntaxFuncDef</text>
</a>
</g>
</g>
<!-- Node12&#45;&gt;Node13 -->
<g id="edge14" class="edge">
<title>Node12&#45;&gt;Node13</title>
<path fill="none" stroke="midnightblue" d="M855.67,-284.32C830.14,-278.93 800.22,-272.61 776.09,-267.52"/>
<polygon fill="midnightblue" stroke="midnightblue" points="855.07,-287.77 865.58,-286.41 856.52,-280.92 855.07,-287.77"/>
</g>
<!-- Node12&#45;&gt;Node14 -->
<g id="edge21" class="edge">
<title>Node12&#45;&gt;Node14</title>
<path fill="none" stroke="midnightblue" d="M831.56,-292.09C780.68,-289.11 713.31,-284.25 654,-277 633.82,-274.53 611.71,-270.93 592.58,-267.53"/>
<polygon fill="midnightblue" stroke="midnightblue" points="831.65,-295.61 841.83,-292.69 832.05,-288.62 831.65,-295.61"/>
</g>
<!-- Node13&#45;&gt;Node14 -->
<g id="edge15" class="edge">
<title>Node13&#45;&gt;Node14</title>
<path fill="none" stroke="midnightblue" d="M643.85,-258C635.26,-258 626.57,-258 618.1,-258"/>
<polygon fill="midnightblue" stroke="midnightblue" points="643.88,-261.5 653.88,-258 643.88,-254.5 643.88,-261.5"/>
</g>
<!-- Node15 -->
<g id="node15" class="node">
<title>Node15</title>
<g id="a_node15"><a xlink:href="../../d0/dfe/class_syntax_analyzer.html#addbd9bc0fe0dae8cd2ddb4fbafea0fcc" target="_top" xlink:title="Синтаксический анализ токенов, переданных анализатору.">
<polygon fill="none" stroke="black" points="278,-248.5 278,-267.5 430,-267.5 430,-248.5 278,-248.5"/>
<text text-anchor="middle" x="354" y="-255.5" font-family="Helvetica,sans-Serif" font-size="10.00">SyntaxAnalyzer::analyzeTokens</text>
</a>
</g>
</g>
<!-- Node14&#45;&gt;Node15 -->
<g id="edge16" class="edge">
<title>Node14&#45;&gt;Node15</title>
<path fill="none" stroke="midnightblue" d="M455.85,-258C447.26,-258 438.57,-258 430.1,-258"/>
<polygon fill="midnightblue" stroke="midnightblue" points="455.88,-261.5 465.88,-258 455.88,-254.5 455.88,-261.5"/>
</g>
<!-- Node16 -->
<g id="node16" class="node">
<title>Node16</title>
<g id="a_node16"><a xlink:href="../../d1/d80/namespace_analyze.html#ad5b883abd31a279f5b95a9aa52415437" target="_top" xlink:title="Анализ файла inName и вывод в outName .dot описания ДАС. Так же выводит в стандартный поток вывода по...">
<polygon fill="none" stroke="black" points="139,-267.5 139,-286.5 242,-286.5 242,-267.5 139,-267.5"/>
<text text-anchor="middle" x="190.5" y="-274.5" font-family="Helvetica,sans-Serif" font-size="10.00">Analyze::analyzeFile</text>
</a>
</g>
</g>
<!-- Node15&#45;&gt;Node16 -->
<g id="edge17" class="edge">
<title>Node15&#45;&gt;Node16</title>
<path fill="none" stroke="midnightblue" d="M267.76,-268.03C259.11,-269.05 250.53,-270.06 242.41,-271.01"/>
<polygon fill="midnightblue" stroke="midnightblue" points="268.4,-271.48 277.92,-266.83 267.58,-264.52 268.4,-271.48"/>
</g>
<!-- Node19 -->
<g id="node19" class="node">
<title>Node19</title>
<g id="a_node19"><a xlink:href="../../db/df9/test_semantic_8cpp.html#a804faf7fd199a3c491020f1f2caa618b" target="_top" xlink:title="Тест семантического анализа Паскаля">
<polygon fill="none" stroke="black" points="170,-229.5 170,-248.5 211,-248.5 211,-229.5 170,-229.5"/>
<text text-anchor="middle" x="190.5" y="-236.5" font-family="Helvetica,sans-Serif" font-size="10.00">TEST</text>
</a>
</g>
</g>
<!-- Node15&#45;&gt;Node19 -->
<g id="edge20" class="edge">
<title>Node15&#45;&gt;Node19</title>
<path fill="none" stroke="midnightblue" d="M267.84,-247.98C246.63,-245.49 225.83,-243.04 211.31,-241.33"/>
<polygon fill="midnightblue" stroke="midnightblue" points="267.58,-251.48 277.92,-249.17 268.4,-244.52 267.58,-251.48"/>
</g>
<!-- Node17 -->
<g id="node17" class="node">
<title>Node17</title>
<g id="a_node17"><a xlink:href="../../d1/d80/namespace_analyze.html#af385d2d3d600a7392cb177a3171f193f" target="_top" xlink:title="Анализ файла inName и вывод в &quot;output.svg&quot; .dot описания ДАС. Так же выводит в стандартный поток выво...">
<polygon fill="none" stroke="black" points="0,-286.5 0,-305.5 103,-305.5 103,-286.5 0,-286.5"/>
<text text-anchor="middle" x="51.5" y="-293.5" font-family="Helvetica,sans-Serif" font-size="10.00">Analyze::analyzeFile</text>
</a>
</g>
</g>
<!-- Node16&#45;&gt;Node17 -->
<g id="edge18" class="edge">
<title>Node16&#45;&gt;Node17</title>
<path fill="none" stroke="midnightblue" d="M128.96,-285.4C120.42,-286.58 111.71,-287.79 103.37,-288.94"/>
<polygon fill="midnightblue" stroke="midnightblue" points="129.45,-288.86 138.88,-284.02 128.49,-281.93 129.45,-288.86"/>
</g>
<!-- Node18 -->
<g id="node18" class="node">
<title>Node18</title>
<g id="a_node18"><a xlink:href="../../d3/db4/graph_draw_8cpp.html#a3c04138a5bfe5d72780bb7e82a18e627" target="_top" xlink:title=" ">
<polygon fill="none" stroke="black" points="32.5,-248.5 32.5,-267.5 70.5,-267.5 70.5,-248.5 32.5,-248.5"/>
<text text-anchor="middle" x="51.5" y="-255.5" font-family="Helvetica,sans-Serif" font-size="10.00">main</text>
</a>
</g>
</g>
<!-- Node16&#45;&gt;Node18 -->
<g id="edge19" class="edge">
<title>Node16&#45;&gt;Node18</title>
<path fill="none" stroke="midnightblue" d="M128.92,-268.6C107.72,-265.66 85.5,-262.58 70.52,-260.5"/>
<polygon fill="midnightblue" stroke="midnightblue" points="128.49,-272.07 138.88,-269.98 129.45,-265.14 128.49,-272.07"/>
</g>
<!-- Node20&#45;&gt;Node8 -->
<g id="edge24" class="edge">
<title>Node20&#45;&gt;Node8</title>
<path fill="none" stroke="midnightblue" d="M1323.29,-252.08C1337.88,-256.92 1357.16,-261.87 1374,-267 1393.77,-273.02 1415.31,-280.42 1433.9,-286.49"/>
<polygon fill="midnightblue" stroke="midnightblue" points="1324.2,-248.69 1313.61,-248.58 1321.82,-255.27 1324.2,-248.69"/>
</g>
<!-- Node21&#45;&gt;Node8 -->
<g id="edge33" class="edge">
<title>Node21&#45;&gt;Node8</title>
<path fill="none" stroke="midnightblue" d="M2170.93,-278.09C2017.17,-282.1 1683.6,-290.8 1545.64,-294.39"/>
<polygon fill="midnightblue" stroke="midnightblue" points="2171.34,-281.58 2181.24,-277.82 2171.15,-274.58 2171.34,-281.58"/>
</g>
<!-- Node21&#45;&gt;Node22 -->
<g id="edge27" class="edge">
<title>Node21&#45;&gt;Node22</title>
<path fill="none" stroke="midnightblue" d="M2190.41,-264.61C2164.65,-259.77 2134.94,-254.18 2110.35,-249.56"/>
<polygon fill="midnightblue" stroke="midnightblue" points="2189.96,-268.09 2200.44,-266.49 2191.25,-261.21 2189.96,-268.09"/>
</g>
<!-- Node22&#45;&gt;Node6 -->
<g id="edge29" class="edge">
<title>Node22&#45;&gt;Node6</title>
<path fill="none" stroke="midnightblue" d="M1976.89,-247.72C1962.22,-249.12 1947.1,-250.57 1933,-251.92"/>
<polygon fill="midnightblue" stroke="midnightblue" points="1977.34,-251.19 1986.96,-246.75 1976.67,-244.22 1977.34,-251.19"/>
</g>
<!-- Node22&#45;&gt;Node22 -->
<g id="edge28" class="edge">
<title>Node22&#45;&gt;Node22</title>
<path fill="none" stroke="midnightblue" d="M2094.12,-257.5C2094.12,-263.34 2082.24,-268 2058.5,-268 2024.73,-268 2014.97,-258.57 2029.22,-249.76"/>
<polygon fill="midnightblue" stroke="midnightblue" points="2096.83,-255.28 2087.78,-249.76 2091.41,-259.71 2096.83,-255.28"/>
</g>
<!-- Node22&#45;&gt;Node23 -->
<g id="edge30" class="edge">
<title>Node22&#45;&gt;Node23</title>
<path fill="none" stroke="midnightblue" d="M2033.1,-224.95C1993.83,-200.72 1917.72,-153.75 1885.03,-133.58"/>
<polygon fill="midnightblue" stroke="midnightblue" points="2031.45,-228.04 2041.79,-230.31 2035.12,-222.08 2031.45,-228.04"/>
</g>
<!-- Node23&#45;&gt;Node24 -->
<g id="edge31" class="edge">
<title>Node23&#45;&gt;Node24</title>
<path fill="none" stroke="midnightblue" d="M1789.87,-124C1778.82,-124 1767.43,-124 1756.32,-124"/>
<polygon fill="midnightblue" stroke="midnightblue" points="1789.9,-127.5 1799.9,-124 1789.9,-120.5 1789.9,-127.5"/>
</g>
<!-- Node24&#45;&gt;Node4 -->
<g id="edge32" class="edge">
<title>Node24&#45;&gt;Node4</title>
<path fill="none" stroke="midnightblue" d="M1737.95,-135.19C1755.42,-138.03 1774.41,-140.87 1792,-143 2031.02,-171.88 2115.11,-81.49 2332,-186 2378.93,-208.61 2415.04,-262.91 2428.4,-285.2"/>
<polygon fill="midnightblue" stroke="midnightblue" points="1738.31,-131.7 1727.87,-133.52 1737.17,-138.61 1738.31,-131.7"/>
</g>
<!-- Node26 -->
<g id="node26" class="node">
<title>Node26</title>
<g id="a_node26"><a xlink:href="../../d0/dfe/class_syntax_analyzer.html#a177c60c88c15c37d6f5cf0c41a35190b" target="_top" xlink:title=" ">
<polygon fill="none" stroke="black" points="1410,-456.5 1410,-475.5 1556,-475.5 1556,-456.5 1410,-456.5"/>
<text text-anchor="middle" x="1483" y="-463.5" font-family="Helvetica,sans-Serif" font-size="10.00">SyntaxAnalyzer::syntaxConsts</text>
</a>
</g>
</g>
<!-- Node25&#45;&gt;Node26 -->
<g id="edge35" class="edge">
<title>Node25&#45;&gt;Node26</title>
<path fill="none" stroke="midnightblue" d="M2161.47,-466C2007.77,-466 1696.71,-466 1556.01,-466"/>
<polygon fill="midnightblue" stroke="midnightblue" points="2161.81,-469.5 2171.81,-466 2161.81,-462.5 2161.81,-469.5"/>
</g>
<!-- Node26&#45;&gt;Node12 -->
<g id="edge36" class="edge">
<title>Node26&#45;&gt;Node12</title>
<path fill="none" stroke="midnightblue" d="M1440.58,-453.62C1332.17,-421.24 1041.79,-334.48 944.94,-305.54"/>
<polygon fill="midnightblue" stroke="midnightblue" points="1439.61,-456.99 1450.19,-456.5 1441.61,-450.28 1439.61,-456.99"/>
</g>
<!-- Node27&#45;&gt;Node8 -->
<g id="edge40" class="edge">
<title>Node27&#45;&gt;Node8</title>
<path fill="none" stroke="midnightblue" d="M1781.84,-377.38C1726.71,-373.91 1654.04,-365.99 1592,-348 1557.42,-337.98 1520.26,-317.75 1499.79,-305.69"/>
<polygon fill="midnightblue" stroke="midnightblue" points="1781.73,-380.88 1791.92,-377.97 1782.14,-373.89 1781.73,-380.88"/>
</g>
<!-- Node28&#45;&gt;Node5 -->
<g id="edge42" class="edge">
<title>Node28&#45;&gt;Node5</title>
<path fill="none" stroke="midnightblue" d="M2170.01,-322.46C2158.77,-323.63 2147.24,-324.84 2136.09,-326"/>
<polygon fill="midnightblue" stroke="midnightblue" points="2170.65,-325.91 2180.24,-321.39 2169.93,-318.95 2170.65,-325.91"/>
</g>
<!-- Node28&#45;&gt;Node22 -->
<g id="edge43" class="edge">
<title>Node28&#45;&gt;Node22</title>
<path fill="none" stroke="midnightblue" d="M2193.96,-301.86C2186.5,-299.81 2179.01,-297.52 2172,-295 2136.61,-282.27 2097.68,-261.63 2076.15,-249.58"/>
<polygon fill="midnightblue" stroke="midnightblue" points="2193.16,-305.27 2203.72,-304.41 2194.93,-298.5 2193.16,-305.27"/>
</g>
</g>
</svg>
