<?xml version="1.0" encoding="UTF-8" standalone="no"?>
<!DOCTYPE svg PUBLIC "-//W3C//DTD SVG 1.1//EN"
 "http://www.w3.org/Graphics/SVG/1.1/DTD/svg11.dtd">
<!-- Generated by graphviz version 2.43.0 (0)
 -->
<!-- Title: include/ASTclasses.hpp Pages: 1 -->
<svg width="478pt" height="196pt"
 viewBox="0.00 0.00 477.50 196.00" xmlns="http://www.w3.org/2000/svg" xmlns:xlink="http://www.w3.org/1999/xlink">
<g id="graph0" class="graph" transform="scale(1 1) rotate(0) translate(4 192)">
<title>include/ASTclasses.hpp</title>
<!-- Node1 -->
<g id="node1" class="node">
<title>Node1</title>
<g id="a_node1"><a xlink:title=" ">
<polygon fill="#bfbfbf" stroke="black" points="296.5,-168.5 296.5,-187.5 425.5,-187.5 425.5,-168.5 296.5,-168.5"/>
<text text-anchor="middle" x="361" y="-175.5" font-family="Helvetica,sans-Serif" font-size="10.00">include/ASTclasses.hpp</text>
</a>
</g>
</g>
<!-- Node2 -->
<g id="node2" class="node">
<title>Node2</title>
<g id="a_node2"><a xlink:href="../../d4/dcb/_a_s_t_8hpp.html" target="_top" xlink:title=" ">
<polygon fill="none" stroke="black" points="277,-112.5 277,-131.5 371,-131.5 371,-112.5 277,-112.5"/>
<text text-anchor="middle" x="324" y="-119.5" font-family="Helvetica,sans-Serif" font-size="10.00">include/AST.hpp</text>
</a>
</g>
</g>
<!-- Node1&#45;&gt;Node2 -->
<g id="edge1" class="edge">
<title>Node1&#45;&gt;Node2</title>
<path fill="none" stroke="midnightblue" d="M349.05,-159.57C342.69,-150.27 335.13,-139.25 330,-131.75"/>
<polygon fill="midnightblue" stroke="midnightblue" points="346.35,-161.81 354.89,-168.08 352.13,-157.86 346.35,-161.81"/>
</g>
<!-- Node7 -->
<g id="node7" class="node">
<title>Node7</title>
<g id="a_node7"><a xlink:href="../../db/d42/_visitor_8hpp.html" target="_top" xlink:title=" ">
<polygon fill="none" stroke="black" points="362.5,-56.5 362.5,-75.5 469.5,-75.5 469.5,-56.5 362.5,-56.5"/>
<text text-anchor="middle" x="416" y="-63.5" font-family="Helvetica,sans-Serif" font-size="10.00">include/Visitor.hpp</text>
</a>
</g>
</g>
<!-- Node1&#45;&gt;Node7 -->
<g id="edge11" class="edge">
<title>Node1&#45;&gt;Node7</title>
<path fill="none" stroke="midnightblue" d="M369.84,-159.32C381.82,-135.37 402.73,-93.55 411.7,-75.59"/>
<polygon fill="midnightblue" stroke="midnightblue" points="366.66,-157.86 365.32,-168.37 372.92,-160.99 366.66,-157.86"/>
</g>
<!-- Node3 -->
<g id="node3" class="node">
<title>Node3</title>
<g id="a_node3"><a xlink:href="../../df/d3f/_syntax_8hpp.html" target="_top" xlink:title=" ">
<polygon fill="none" stroke="black" points="88,-56.5 88,-75.5 198,-75.5 198,-56.5 88,-56.5"/>
<text text-anchor="middle" x="143" y="-63.5" font-family="Helvetica,sans-Serif" font-size="10.00">include/Syntax.hpp</text>
</a>
</g>
</g>
<!-- Node2&#45;&gt;Node3 -->
<g id="edge2" class="edge">
<title>Node2&#45;&gt;Node3</title>
<path fill="none" stroke="midnightblue" d="M285.68,-109.57C251.54,-99.38 202.34,-84.7 171.55,-75.52"/>
<polygon fill="midnightblue" stroke="midnightblue" points="284.74,-112.94 295.32,-112.44 286.74,-106.23 284.74,-112.94"/>
</g>
<!-- Node6 -->
<g id="node6" class="node">
<title>Node6</title>
<g id="a_node6"><a xlink:href="../../dd/de9/test_syntax_8cpp.html" target="_top" xlink:title=" ">
<polygon fill="none" stroke="black" points="186,-0.5 186,-19.5 338,-19.5 338,-0.5 186,-0.5"/>
<text text-anchor="middle" x="262" y="-7.5" font-family="Helvetica,sans-Serif" font-size="10.00">tests/syntax/testSyntax.cpp</text>
</a>
</g>
</g>
<!-- Node2&#45;&gt;Node6 -->
<g id="edge10" class="edge">
<title>Node2&#45;&gt;Node6</title>
<path fill="none" stroke="midnightblue" d="M295.09,-107.28C282.88,-99.86 269.91,-89.43 263,-76 253.6,-57.74 257.06,-32.59 259.85,-19.58"/>
<polygon fill="midnightblue" stroke="midnightblue" points="293.73,-110.53 304.17,-112.37 297.16,-104.43 293.73,-110.53"/>
</g>
<!-- Node2&#45;&gt;Node7 -->
<g id="edge6" class="edge">
<title>Node2&#45;&gt;Node7</title>
<path fill="none" stroke="midnightblue" d="M342.45,-106.62C358.07,-96.76 380.13,-83.99 396.15,-75.65"/>
<polygon fill="midnightblue" stroke="midnightblue" points="340.15,-103.94 333.67,-112.32 343.96,-109.81 340.15,-103.94"/>
</g>
<!-- Node9 -->
<g id="node9" class="node">
<title>Node9</title>
<g id="a_node9"><a xlink:href="../../d0/d91/_a_s_t_8cpp.html" target="_top" xlink:title=" ">
<polygon fill="none" stroke="black" points="272,-56.5 272,-75.5 344,-75.5 344,-56.5 272,-56.5"/>
<text text-anchor="middle" x="308" y="-63.5" font-family="Helvetica,sans-Serif" font-size="10.00">src/AST.cpp</text>
</a>
</g>
</g>
<!-- Node2&#45;&gt;Node9 -->
<g id="edge9" class="edge">
<title>Node2&#45;&gt;Node9</title>
<path fill="none" stroke="midnightblue" d="M318.49,-102.4C315.81,-93.36 312.72,-82.94 310.59,-75.75"/>
<polygon fill="midnightblue" stroke="midnightblue" points="315.16,-103.49 321.36,-112.08 321.87,-101.5 315.16,-103.49"/>
</g>
<!-- Node4 -->
<g id="node4" class="node">
<title>Node4</title>
<g id="a_node4"><a xlink:href="../../df/d0a/main_8cpp.html" target="_top" xlink:title=" ">
<polygon fill="none" stroke="black" points="0,-0.5 0,-19.5 62,-19.5 62,-0.5 0,-0.5"/>
<text text-anchor="middle" x="31" y="-7.5" font-family="Helvetica,sans-Serif" font-size="10.00">main.cpp</text>
</a>
</g>
</g>
<!-- Node3&#45;&gt;Node4 -->
<g id="edge3" class="edge">
<title>Node3&#45;&gt;Node4</title>
<path fill="none" stroke="midnightblue" d="M115.75,-51.86C94.98,-41.85 66.98,-28.35 48.95,-19.65"/>
<polygon fill="midnightblue" stroke="midnightblue" points="114.48,-55.13 125.01,-56.32 117.52,-48.83 114.48,-55.13"/>
</g>
<!-- Node5 -->
<g id="node5" class="node">
<title>Node5</title>
<g id="a_node5"><a xlink:href="../../d1/daa/_syntax_8cpp.html" target="_top" xlink:title=" ">
<polygon fill="none" stroke="black" points="80,-0.5 80,-19.5 168,-19.5 168,-0.5 80,-0.5"/>
<text text-anchor="middle" x="124" y="-7.5" font-family="Helvetica,sans-Serif" font-size="10.00">src/Syntax.cpp</text>
</a>
</g>
</g>
<!-- Node3&#45;&gt;Node5 -->
<g id="edge4" class="edge">
<title>Node3&#45;&gt;Node5</title>
<path fill="none" stroke="midnightblue" d="M136.45,-46.4C133.28,-37.36 129.61,-26.94 127.08,-19.75"/>
<polygon fill="midnightblue" stroke="midnightblue" points="133.24,-47.81 139.86,-56.08 139.85,-45.49 133.24,-47.81"/>
</g>
<!-- Node3&#45;&gt;Node6 -->
<g id="edge5" class="edge">
<title>Node3&#45;&gt;Node6</title>
<path fill="none" stroke="midnightblue" d="M171.14,-52.23C193.4,-42.13 223.86,-28.31 243.23,-19.52"/>
<polygon fill="midnightblue" stroke="midnightblue" points="169.52,-49.12 161.86,-56.44 172.41,-55.5 169.52,-49.12"/>
</g>
<!-- Node7&#45;&gt;Node2 -->
<g id="edge7" class="edge">
<title>Node7&#45;&gt;Node2</title>
<path fill="none" stroke="midnightblue" d="M397.59,-81.35C381.98,-91.21 359.92,-103.98 343.9,-112.32"/>
<polygon fill="midnightblue" stroke="midnightblue" points="399.88,-84.04 406.37,-75.65 396.07,-78.17 399.88,-84.04"/>
</g>
<!-- Node8 -->
<g id="node8" class="node">
<title>Node8</title>
<g id="a_node8"><a xlink:href="../../dc/d65/_visitor_8cpp.html" target="_top" xlink:title=" ">
<polygon fill="none" stroke="black" points="373.5,-0.5 373.5,-19.5 458.5,-19.5 458.5,-0.5 373.5,-0.5"/>
<text text-anchor="middle" x="416" y="-7.5" font-family="Helvetica,sans-Serif" font-size="10.00">src/Visitor.cpp</text>
</a>
</g>
</g>
<!-- Node7&#45;&gt;Node8 -->
<g id="edge8" class="edge">
<title>Node7&#45;&gt;Node8</title>
<path fill="none" stroke="midnightblue" d="M416,-45.8C416,-36.91 416,-26.78 416,-19.75"/>
<polygon fill="midnightblue" stroke="midnightblue" points="412.5,-46.08 416,-56.08 419.5,-46.08 412.5,-46.08"/>
</g>
</g>
</svg>
