<?xml version="1.0" encoding="UTF-8" standalone="no"?>
<!DOCTYPE svg PUBLIC "-//W3C//DTD SVG 1.1//EN"
 "http://www.w3.org/Graphics/SVG/1.1/DTD/svg11.dtd">
<!-- Generated by graphviz version 3.0.0 (20220413.0106)
 -->
<!-- Title: Node&lt; U &gt; Pages: 1 -->
<svg width="124pt" height="108pt"
 viewBox="0.00 0.00 124.00 108.00" xmlns="http://www.w3.org/2000/svg" xmlns:xlink="http://www.w3.org/1999/xlink">
<g id="graph0" class="graph" transform="scale(1 1) rotate(0) translate(4 104)">
<title>Node&lt; U &gt;</title>
<!-- Node1 -->
<g id="node1" class="node">
<title>Node1</title>
<g id="a_node1"><a xlink:title="Узел с одним указателм на данные и с указателями на предыдущий и следующий узлы">
<polygon fill="#bfbfbf" stroke="black" points="0,-0.5 0,-19.5 64,-19.5 64,-0.5 0,-0.5"/>
<text text-anchor="middle" x="32" y="-7.5" font-family="Helvetica,sans-Serif" font-size="10.00">Node&lt; U &gt;</text>
</a>
</g>
</g>
<!-- Node2 -->
<g id="node2" class="node">
<title>Node2</title>
<g id="a_node2"><a xlink:href="../../dc/d8f/class_node.html" target="_top" xlink:title="Узел с одним указателм на данные и с указателями на предыдущий и следующий узлы">
<polygon fill="none" stroke="black" points="0,-79.5 0,-98.5 64,-98.5 64,-79.5 0,-79.5"/>
<text text-anchor="middle" x="32" y="-86.5" font-family="Helvetica,sans-Serif" font-size="10.00">Node&lt; U &gt;</text>
</a>
</g>
</g>
<!-- Node2&#45;&gt;Node1 -->
<g id="edge1" class="edge">
<title>Node2&#45;&gt;Node1</title>
<path fill="none" stroke="#9a32cd" stroke-dasharray="5,2" d="M32,-69.31C32,-53.59 32,-31.81 32,-19.81"/>
<polygon fill="#9a32cd" stroke="#9a32cd" points="28.5,-69.47 32,-79.47 35.5,-69.47 28.5,-69.47"/>
<text text-anchor="middle" x="49" y="-52" font-family="Helvetica,sans-Serif" font-size="10.00"> nextPtr</text>
<text text-anchor="middle" x="49" y="-41" font-family="Helvetica,sans-Serif" font-size="10.00">prevPtr</text>
</g>
<!-- Node2&#45;&gt;Node2 -->
<g id="edge2" class="edge">
<title>Node2&#45;&gt;Node2</title>
<path fill="none" stroke="#9a32cd" stroke-dasharray="5,2" d="M74.22,-95.33C78.95,-94.14 82,-92.03 82,-89 82,-84.16 74.18,-81.66 64.22,-81.51"/>
<polygon fill="#9a32cd" stroke="#9a32cd" points="73.75,-91.86 64.22,-96.49 74.56,-98.82 73.75,-91.86"/>
<text text-anchor="middle" x="99" y="-92" font-family="Helvetica,sans-Serif" font-size="10.00"> nextPtr</text>
<text text-anchor="middle" x="99" y="-81" font-family="Helvetica,sans-Serif" font-size="10.00">prevPtr</text>
</g>
</g>
</svg>
