<?xml version="1.0" encoding="UTF-8" standalone="no"?>
<!DOCTYPE svg PUBLIC "-//W3C//DTD SVG 1.1//EN"
 "http://www.w3.org/Graphics/SVG/1.1/DTD/svg11.dtd">
<!-- Generated by graphviz version 3.0.0 (20220413.0106)
 -->
<!-- Title: include/PascalSyntax.hpp Pages: 1 -->
<svg width="533pt" height="252pt"
 viewBox="0.00 0.00 533.15 252.00" xmlns="http://www.w3.org/2000/svg" xmlns:xlink="http://www.w3.org/1999/xlink">
<g id="graph0" class="graph" transform="scale(1 1) rotate(0) translate(4 248)">
<title>include/PascalSyntax.hpp</title>
<!-- Node1 -->
<g id="node1" class="node">
<title>Node1</title>
<g id="a_node1"><a xlink:title="Синтаксический анализатор программ на языке micro&#45;Pascal.">
<polygon fill="#bfbfbf" stroke="black" points="142.65,-224.5 142.65,-243.5 270.65,-243.5 270.65,-224.5 142.65,-224.5"/>
<text text-anchor="middle" x="206.65" y="-231.5" font-family="Helvetica,sans-Serif" font-size="10.00">include/PascalSyntax.hpp</text>
</a>
</g>
</g>
<!-- Node2 -->
<g id="node2" class="node">
<title>Node2</title>
<g id="a_node2"><a xlink:title=" ">
<polygon fill="none" stroke="#bfbfbf" points="114.65,-56.5 114.65,-75.5 158.65,-75.5 158.65,-56.5 114.65,-56.5"/>
<text text-anchor="middle" x="136.65" y="-63.5" font-family="Helvetica,sans-Serif" font-size="10.00">vector</text>
</a>
</g>
</g>
<!-- Node1&#45;&gt;Node2 -->
<g id="edge1" class="edge">
<title>Node1&#45;&gt;Node2</title>
<path fill="none" stroke="midnightblue" d="M210.66,-224.33C219.72,-203.37 239.36,-148.91 217.65,-112 211.8,-102.07 187.12,-89.15 166.52,-79.71"/>
<polygon fill="midnightblue" stroke="midnightblue" points="167.69,-76.4 157.13,-75.51 164.83,-82.79 167.69,-76.4"/>
</g>
<!-- Node3 -->
<g id="node3" class="node">
<title>Node3</title>
<g id="a_node3"><a xlink:href="../../d8/de6/_a_s_tclasses_8hpp.html" target="_top" xlink:title="Базовые классы ДАС: абстрактный посетитель и абстрактный узел">
<polygon fill="none" stroke="black" points="12.65,-112.5 12.65,-131.5 100.65,-131.5 100.65,-112.5 12.65,-112.5"/>
<text text-anchor="middle" x="56.65" y="-119.5" font-family="Helvetica,sans-Serif" font-size="10.00">ASTclasses.hpp</text>
</a>
</g>
</g>
<!-- Node1&#45;&gt;Node3 -->
<g id="edge2" class="edge">
<title>Node1&#45;&gt;Node3</title>
<path fill="none" stroke="midnightblue" d="M191.89,-224.38C177.28,-215.67 154.44,-201.61 135.65,-188 113.8,-172.18 90.07,-152.25 74.38,-138.66"/>
<polygon fill="midnightblue" stroke="midnightblue" points="76.39,-135.77 66.55,-131.83 71.78,-141.04 76.39,-135.77"/>
</g>
<!-- Node4 -->
<g id="node4" class="node">
<title>Node4</title>
<g id="a_node4"><a xlink:href="../../de/d32/_token_8hpp.html" target="_top" xlink:title="Классы для работы с токенами анализатора">
<polygon fill="none" stroke="black" points="25.65,-56.5 25.65,-75.5 87.65,-75.5 87.65,-56.5 25.65,-56.5"/>
<text text-anchor="middle" x="56.65" y="-63.5" font-family="Helvetica,sans-Serif" font-size="10.00">Token.hpp</text>
</a>
</g>
</g>
<!-- Node1&#45;&gt;Node4 -->
<g id="edge18" class="edge">
<title>Node1&#45;&gt;Node4</title>
<path fill="none" stroke="midnightblue" d="M158.27,-224.43C109.32,-212.86 36.34,-186.98 3.65,-132 -7.66,-112.98 13.12,-93.64 31.89,-81.06"/>
<polygon fill="midnightblue" stroke="midnightblue" points="33.93,-83.92 40.52,-75.62 30.19,-78 33.93,-83.92"/>
</g>
<!-- Node7 -->
<g id="node7" class="node">
<title>Node7</title>
<g id="a_node7"><a xlink:href="../../df/d3f/_syntax_8hpp.html" target="_top" xlink:title="Интерфейс синтаксического анализатора">
<polygon fill="none" stroke="black" points="144.65,-168.5 144.65,-187.5 208.65,-187.5 208.65,-168.5 144.65,-168.5"/>
<text text-anchor="middle" x="176.65" y="-175.5" font-family="Helvetica,sans-Serif" font-size="10.00">Syntax.hpp</text>
</a>
</g>
</g>
<!-- Node1&#45;&gt;Node7 -->
<g id="edge6" class="edge">
<title>Node1&#45;&gt;Node7</title>
<path fill="none" stroke="midnightblue" d="M201.69,-224.08C197.54,-216.61 191.49,-205.72 186.38,-196.52"/>
<polygon fill="midnightblue" stroke="midnightblue" points="189.43,-194.79 181.51,-187.75 183.31,-198.19 189.43,-194.79"/>
</g>
<!-- Node9 -->
<g id="node9" class="node">
<title>Node9</title>
<g id="a_node9"><a xlink:href="../../dc/d72/_list_8hpp.html" target="_top" xlink:title="Двусвязный список &#45; интерфейс">
<polygon fill="none" stroke="black" points="265.15,-112.5 265.15,-131.5 316.15,-131.5 316.15,-112.5 265.15,-112.5"/>
<text text-anchor="middle" x="290.65" y="-119.5" font-family="Helvetica,sans-Serif" font-size="10.00">List.hpp</text>
</a>
</g>
</g>
<!-- Node1&#45;&gt;Node9 -->
<g id="edge17" class="edge">
<title>Node1&#45;&gt;Node9</title>
<path fill="none" stroke="midnightblue" d="M216.38,-224.25C225.75,-215.56 240.02,-201.61 250.65,-188 262.34,-173.02 273.49,-154.42 281.03,-140.96"/>
<polygon fill="midnightblue" stroke="midnightblue" points="284.31,-142.27 286.05,-131.81 278.17,-138.9 284.31,-142.27"/>
</g>
<!-- Node15 -->
<g id="node15" class="node">
<title>Node15</title>
<g id="a_node15"><a xlink:title=" ">
<polygon fill="none" stroke="#bfbfbf" points="302.65,-168.5 302.65,-187.5 392.65,-187.5 392.65,-168.5 302.65,-168.5"/>
<text text-anchor="middle" x="347.65" y="-175.5" font-family="Helvetica,sans-Serif" font-size="10.00">magic_enum.hpp</text>
</a>
</g>
</g>
<!-- Node1&#45;&gt;Node15 -->
<g id="edge19" class="edge">
<title>Node1&#45;&gt;Node15</title>
<path fill="none" stroke="midnightblue" d="M228.99,-224.44C252.4,-215.48 289.38,-201.31 315.84,-191.18"/>
<polygon fill="midnightblue" stroke="midnightblue" points="317.32,-194.36 325.41,-187.52 314.82,-187.82 317.32,-194.36"/>
</g>
<!-- Node3&#45;&gt;Node4 -->
<g id="edge3" class="edge">
<title>Node3&#45;&gt;Node4</title>
<path fill="none" stroke="midnightblue" d="M56.65,-112.08C56.65,-105.01 56.65,-94.86 56.65,-85.99"/>
<polygon fill="midnightblue" stroke="midnightblue" points="60.15,-85.75 56.65,-75.75 53.15,-85.75 60.15,-85.75"/>
</g>
<!-- Node5 -->
<g id="node5" class="node">
<title>Node5</title>
<g id="a_node5"><a xlink:title=" ">
<polygon fill="none" stroke="#bfbfbf" points="7.65,-0.5 7.65,-19.5 47.65,-19.5 47.65,-0.5 7.65,-0.5"/>
<text text-anchor="middle" x="27.65" y="-7.5" font-family="Helvetica,sans-Serif" font-size="10.00">regex</text>
</a>
</g>
</g>
<!-- Node4&#45;&gt;Node5 -->
<g id="edge4" class="edge">
<title>Node4&#45;&gt;Node5</title>
<path fill="none" stroke="midnightblue" d="M51.86,-56.08C47.89,-48.69 42.12,-37.95 37.21,-28.81"/>
<polygon fill="midnightblue" stroke="midnightblue" points="40.16,-26.91 32.35,-19.75 33.99,-30.22 40.16,-26.91"/>
</g>
<!-- Node6 -->
<g id="node6" class="node">
<title>Node6</title>
<g id="a_node6"><a xlink:title=" ">
<polygon fill="none" stroke="#bfbfbf" points="66.15,-0.5 66.15,-19.5 107.15,-19.5 107.15,-0.5 66.15,-0.5"/>
<text text-anchor="middle" x="86.65" y="-7.5" font-family="Helvetica,sans-Serif" font-size="10.00">string</text>
</a>
</g>
</g>
<!-- Node4&#45;&gt;Node6 -->
<g id="edge5" class="edge">
<title>Node4&#45;&gt;Node6</title>
<path fill="none" stroke="midnightblue" d="M61.6,-56.08C65.75,-48.61 71.8,-37.72 76.91,-28.52"/>
<polygon fill="midnightblue" stroke="midnightblue" points="79.99,-30.19 81.79,-19.75 73.87,-26.79 79.99,-30.19"/>
</g>
<!-- Node7&#45;&gt;Node3 -->
<g id="edge8" class="edge">
<title>Node7&#45;&gt;Node3</title>
<path fill="none" stroke="midnightblue" d="M157.63,-168.44C138.06,-159.64 107.34,-145.81 84.92,-135.72"/>
<polygon fill="midnightblue" stroke="midnightblue" points="86.13,-132.43 75.57,-131.52 83.26,-138.81 86.13,-132.43"/>
</g>
<!-- Node7&#45;&gt;Node4 -->
<g id="edge16" class="edge">
<title>Node7&#45;&gt;Node4</title>
<path fill="none" stroke="midnightblue" d="M168.15,-168.4C155.6,-155.78 131.25,-131.61 109.65,-112 98.48,-101.86 85.58,-90.89 75.3,-82.32"/>
<polygon fill="midnightblue" stroke="midnightblue" points="77.32,-79.45 67.38,-75.76 72.85,-84.84 77.32,-79.45"/>
</g>
<!-- Node8 -->
<g id="node8" class="node">
<title>Node8</title>
<g id="a_node8"><a xlink:title=" ">
<polygon fill="none" stroke="#bfbfbf" points="157.15,-112.5 157.15,-131.5 208.15,-131.5 208.15,-112.5 157.15,-112.5"/>
<text text-anchor="middle" x="182.65" y="-119.5" font-family="Helvetica,sans-Serif" font-size="10.00">memory</text>
</a>
</g>
</g>
<!-- Node7&#45;&gt;Node8 -->
<g id="edge7" class="edge">
<title>Node7&#45;&gt;Node8</title>
<path fill="none" stroke="midnightblue" d="M177.64,-168.08C178.43,-160.93 179.58,-150.64 180.57,-141.69"/>
<polygon fill="midnightblue" stroke="midnightblue" points="184.05,-142.08 181.68,-131.75 177.09,-141.3 184.05,-142.08"/>
</g>
<!-- Node7&#45;&gt;Node9 -->
<g id="edge9" class="edge">
<title>Node7&#45;&gt;Node9</title>
<path fill="none" stroke="midnightblue" d="M194.71,-168.44C213.22,-159.68 242.23,-145.94 263.5,-135.86"/>
<polygon fill="midnightblue" stroke="midnightblue" points="265.13,-138.96 272.67,-131.52 262.13,-132.63 265.13,-138.96"/>
</g>
<!-- Node9&#45;&gt;Node2 -->
<g id="edge14" class="edge">
<title>Node9&#45;&gt;Node2</title>
<path fill="none" stroke="midnightblue" d="M266.25,-112.44C239.84,-103.19 197.64,-88.39 168.61,-78.21"/>
<polygon fill="midnightblue" stroke="midnightblue" points="169.53,-74.82 158.93,-74.82 167.21,-81.43 169.53,-74.82"/>
</g>
<!-- Node10 -->
<g id="node10" class="node">
<title>Node10</title>
<g id="a_node10"><a xlink:title=" ">
<polygon fill="none" stroke="#bfbfbf" points="476.15,-56.5 476.15,-75.5 525.15,-75.5 525.15,-56.5 476.15,-56.5"/>
<text text-anchor="middle" x="500.65" y="-63.5" font-family="Helvetica,sans-Serif" font-size="10.00">cstddef</text>
</a>
</g>
</g>
<!-- Node9&#45;&gt;Node10 -->
<g id="edge10" class="edge">
<title>Node9&#45;&gt;Node10</title>
<path fill="none" stroke="midnightblue" d="M316.18,-114.65C348.8,-106.52 407.25,-91.83 465.99,-76.41"/>
<polygon fill="midnightblue" stroke="midnightblue" points="467.01,-79.76 475.79,-73.83 465.23,-72.99 467.01,-79.76"/>
</g>
<!-- Node11 -->
<g id="node11" class="node">
<title>Node11</title>
<g id="a_node11"><a xlink:title=" ">
<polygon fill="none" stroke="#bfbfbf" points="176.65,-56.5 176.65,-75.5 248.65,-75.5 248.65,-56.5 176.65,-56.5"/>
<text text-anchor="middle" x="212.65" y="-63.5" font-family="Helvetica,sans-Serif" font-size="10.00">initializer_list</text>
</a>
</g>
</g>
<!-- Node9&#45;&gt;Node11 -->
<g id="edge11" class="edge">
<title>Node9&#45;&gt;Node11</title>
<path fill="none" stroke="midnightblue" d="M278.12,-112.32C266.06,-103.98 247.62,-91.21 233.38,-81.35"/>
<polygon fill="midnightblue" stroke="midnightblue" points="235.36,-78.47 225.15,-75.65 231.38,-84.22 235.36,-78.47"/>
</g>
<!-- Node12 -->
<g id="node12" class="node">
<title>Node12</title>
<g id="a_node12"><a xlink:title=" ">
<polygon fill="none" stroke="#bfbfbf" points="267.15,-56.5 267.15,-75.5 314.15,-75.5 314.15,-56.5 267.15,-56.5"/>
<text text-anchor="middle" x="290.65" y="-63.5" font-family="Helvetica,sans-Serif" font-size="10.00">iterator</text>
</a>
</g>
</g>
<!-- Node9&#45;&gt;Node12 -->
<g id="edge12" class="edge">
<title>Node9&#45;&gt;Node12</title>
<path fill="none" stroke="midnightblue" d="M290.65,-112.08C290.65,-105.01 290.65,-94.86 290.65,-85.99"/>
<polygon fill="midnightblue" stroke="midnightblue" points="294.15,-85.75 290.65,-75.75 287.15,-85.75 294.15,-85.75"/>
</g>
<!-- Node13 -->
<g id="node13" class="node">
<title>Node13</title>
<g id="a_node13"><a xlink:title=" ">
<polygon fill="none" stroke="#bfbfbf" points="332.15,-56.5 332.15,-75.5 391.15,-75.5 391.15,-56.5 332.15,-56.5"/>
<text text-anchor="middle" x="361.65" y="-63.5" font-family="Helvetica,sans-Serif" font-size="10.00">stdexcept</text>
</a>
</g>
</g>
<!-- Node9&#45;&gt;Node13 -->
<g id="edge13" class="edge">
<title>Node9&#45;&gt;Node13</title>
<path fill="none" stroke="midnightblue" d="M302.05,-112.32C312.76,-104.18 328.99,-91.84 341.81,-82.09"/>
<polygon fill="midnightblue" stroke="midnightblue" points="344.19,-84.67 350.03,-75.83 339.95,-79.1 344.19,-84.67"/>
</g>
<!-- Node14 -->
<g id="node14" class="node">
<title>Node14</title>
<g id="a_node14"><a xlink:title=" ">
<polygon fill="none" stroke="#bfbfbf" points="409.15,-56.5 409.15,-75.5 458.15,-75.5 458.15,-56.5 409.15,-56.5"/>
<text text-anchor="middle" x="433.65" y="-63.5" font-family="Helvetica,sans-Serif" font-size="10.00">List.tpp</text>
</a>
</g>
</g>
<!-- Node9&#45;&gt;Node14 -->
<g id="edge15" class="edge">
<title>Node9&#45;&gt;Node14</title>
<path fill="none" stroke="midnightblue" d="M313.31,-112.44C337.05,-103.48 374.56,-89.31 401.39,-79.18"/>
<polygon fill="midnightblue" stroke="midnightblue" points="402.98,-82.32 411.09,-75.52 400.5,-75.77 402.98,-82.32"/>
</g>
</g>
</svg>
