<?xml version="1.0" encoding="UTF-8" standalone="no"?>
<!DOCTYPE svg PUBLIC "-//W3C//DTD SVG 1.1//EN"
 "http://www.w3.org/Graphics/SVG/1.1/DTD/svg11.dtd">
<!-- Generated by graphviz version 3.0.0 (20220413.0106)
 -->
<!-- Title: src/Analyzer.cpp Pages: 1 -->
<svg width="850pt" height="308pt"
 viewBox="0.00 0.00 850.00 308.00" xmlns="http://www.w3.org/2000/svg" xmlns:xlink="http://www.w3.org/1999/xlink">
<g id="graph0" class="graph" transform="scale(1 1) rotate(0) translate(4 304)">
<title>src/Analyzer.cpp</title>
<!-- Node1 -->
<g id="node1" class="node">
<title>Node1</title>
<g id="a_node1"><a xlink:title=" ">
<polygon fill="#bfbfbf" stroke="black" points="470,-280.5 470,-299.5 558,-299.5 558,-280.5 470,-280.5"/>
<text text-anchor="middle" x="514" y="-287.5" font-family="Helvetica,sans-Serif" font-size="10.00">src/Analyzer.cpp</text>
</a>
</g>
</g>
<!-- Node2 -->
<g id="node2" class="node">
<title>Node2</title>
<g id="a_node2"><a xlink:href="../../d8/d7a/_analyzer_8hpp.html" target="_top" xlink:title="Анализатор исходного кода">
<polygon fill="none" stroke="black" points="440.5,-224.5 440.5,-243.5 511.5,-243.5 511.5,-224.5 440.5,-224.5"/>
<text text-anchor="middle" x="476" y="-231.5" font-family="Helvetica,sans-Serif" font-size="10.00">Analyzer.hpp</text>
</a>
</g>
</g>
<!-- Node1&#45;&gt;Node2 -->
<g id="edge1" class="edge">
<title>Node1&#45;&gt;Node2</title>
<path fill="none" stroke="midnightblue" d="M507.73,-280.08C502.36,-272.46 494.48,-261.26 487.92,-251.94"/>
<polygon fill="midnightblue" stroke="midnightblue" points="490.78,-249.91 482.16,-243.75 485.05,-253.94 490.78,-249.91"/>
</g>
<!-- Node3 -->
<g id="node3" class="node">
<title>Node3</title>
<g id="a_node3"><a xlink:title=" ">
<polygon fill="none" stroke="#bfbfbf" points="251.5,-0.5 251.5,-19.5 292.5,-19.5 292.5,-0.5 251.5,-0.5"/>
<text text-anchor="middle" x="272" y="-7.5" font-family="Helvetica,sans-Serif" font-size="10.00">string</text>
</a>
</g>
</g>
<!-- Node1&#45;&gt;Node3 -->
<g id="edge28" class="edge">
<title>Node1&#45;&gt;Node3</title>
<path fill="none" stroke="midnightblue" d="M469.73,-288.9C345.05,-287.43 0,-274.71 0,-179 0,-179 0,-179 0,-121 0,-84.55 19.07,-75.28 50,-56 110.24,-18.44 195.92,-11.47 241.2,-10.63"/>
<polygon fill="midnightblue" stroke="midnightblue" points="241.31,-14.13 251.28,-10.54 241.24,-7.13 241.31,-14.13"/>
</g>
<!-- Node4 -->
<g id="node4" class="node">
<title>Node4</title>
<g id="a_node4"><a xlink:href="../../d8/de6/_a_s_tclasses_8hpp.html" target="_top" xlink:title="Базовые классы ДАС: абстрактный посетитель и абстрактный узел">
<polygon fill="none" stroke="black" points="504,-112.5 504,-131.5 592,-131.5 592,-112.5 504,-112.5"/>
<text text-anchor="middle" x="548" y="-119.5" font-family="Helvetica,sans-Serif" font-size="10.00">ASTclasses.hpp</text>
</a>
</g>
</g>
<!-- Node1&#45;&gt;Node4 -->
<g id="edge30" class="edge">
<title>Node1&#45;&gt;Node4</title>
<path fill="none" stroke="midnightblue" d="M515.83,-280.08C521.18,-253.95 536.9,-177.21 544.2,-141.58"/>
<polygon fill="midnightblue" stroke="midnightblue" points="547.67,-142.07 546.25,-131.57 540.81,-140.66 547.67,-142.07"/>
</g>
<!-- Node7 -->
<g id="node7" class="node">
<title>Node7</title>
<g id="a_node7"><a xlink:href="../../d5/d24/_lexer_8hpp.html" target="_top" xlink:title="Лексер">
<polygon fill="none" stroke="black" points="274.5,-168.5 274.5,-187.5 333.5,-187.5 333.5,-168.5 274.5,-168.5"/>
<text text-anchor="middle" x="304" y="-175.5" font-family="Helvetica,sans-Serif" font-size="10.00">Lexer.hpp</text>
</a>
</g>
</g>
<!-- Node1&#45;&gt;Node7 -->
<g id="edge31" class="edge">
<title>Node1&#45;&gt;Node7</title>
<path fill="none" stroke="midnightblue" d="M469.86,-285.49C434.16,-280.79 384.08,-269.77 348,-244 331.24,-232.03 318.94,-211.54 311.67,-196.76"/>
<polygon fill="midnightblue" stroke="midnightblue" points="314.81,-195.23 307.44,-187.62 308.46,-198.16 314.81,-195.23"/>
</g>
<!-- Node9 -->
<g id="node9" class="node">
<title>Node9</title>
<g id="a_node9"><a xlink:href="../../dc/d72/_list_8hpp.html" target="_top" xlink:title="Двусвязный список &#45; интерфейс">
<polygon fill="none" stroke="black" points="289.5,-112.5 289.5,-131.5 340.5,-131.5 340.5,-112.5 289.5,-112.5"/>
<text text-anchor="middle" x="315" y="-119.5" font-family="Helvetica,sans-Serif" font-size="10.00">List.hpp</text>
</a>
</g>
</g>
<!-- Node1&#45;&gt;Node9 -->
<g id="edge32" class="edge">
<title>Node1&#45;&gt;Node9</title>
<path fill="none" stroke="midnightblue" d="M494.19,-280.39C476.69,-272.31 450.94,-259.21 431,-244 389.17,-212.09 348.57,-164.9 328.32,-139.93"/>
<polygon fill="midnightblue" stroke="midnightblue" points="330.8,-137.43 321.82,-131.8 325.33,-141.8 330.8,-137.43"/>
</g>
<!-- Node14 -->
<g id="node14" class="node">
<title>Node14</title>
<g id="a_node14"><a xlink:title=" ">
<polygon fill="none" stroke="#bfbfbf" points="66,-56.5 66,-75.5 110,-75.5 110,-56.5 66,-56.5"/>
<text text-anchor="middle" x="88" y="-63.5" font-family="Helvetica,sans-Serif" font-size="10.00">vector</text>
</a>
</g>
</g>
<!-- Node1&#45;&gt;Node14 -->
<g id="edge29" class="edge">
<title>Node1&#45;&gt;Node14</title>
<path fill="none" stroke="midnightblue" d="M469.76,-281.05C431,-273.47 373.46,-260.75 325,-244 212.61,-205.15 146.12,-232.15 82,-132 73.14,-118.16 76.24,-99.14 80.6,-85.25"/>
<polygon fill="midnightblue" stroke="midnightblue" points="83.91,-86.39 84,-75.8 77.32,-84.02 83.91,-86.39"/>
</g>
<!-- Node16 -->
<g id="node16" class="node">
<title>Node16</title>
<g id="a_node16"><a xlink:href="../../df/d3f/_syntax_8hpp.html" target="_top" xlink:title="Синтаксический анализатор">
<polygon fill="none" stroke="black" points="580,-168.5 580,-187.5 644,-187.5 644,-168.5 580,-168.5"/>
<text text-anchor="middle" x="612" y="-175.5" font-family="Helvetica,sans-Serif" font-size="10.00">Syntax.hpp</text>
</a>
</g>
</g>
<!-- Node1&#45;&gt;Node16 -->
<g id="edge33" class="edge">
<title>Node1&#45;&gt;Node16</title>
<path fill="none" stroke="midnightblue" d="M525.46,-280.41C536.49,-271.84 553.33,-257.97 566,-244 579.45,-229.17 592.41,-210.31 601.12,-196.73"/>
<polygon fill="midnightblue" stroke="midnightblue" points="604.31,-198.24 606.66,-187.91 598.38,-194.52 604.31,-198.24"/>
</g>
<!-- Node17 -->
<g id="node17" class="node">
<title>Node17</title>
<g id="a_node17"><a xlink:title=" ">
<polygon fill="none" stroke="#bfbfbf" points="648.5,-112.5 648.5,-131.5 699.5,-131.5 699.5,-112.5 648.5,-112.5"/>
<text text-anchor="middle" x="674" y="-119.5" font-family="Helvetica,sans-Serif" font-size="10.00">memory</text>
</a>
</g>
</g>
<!-- Node1&#45;&gt;Node17 -->
<g id="edge27" class="edge">
<title>Node1&#45;&gt;Node17</title>
<path fill="none" stroke="midnightblue" d="M533.6,-280.38C564.12,-265.9 622.64,-233.73 653,-188 662.33,-173.95 667.77,-155.46 670.77,-141.79"/>
<polygon fill="midnightblue" stroke="midnightblue" points="674.27,-142.13 672.74,-131.65 667.4,-140.79 674.27,-142.13"/>
</g>
<!-- Node18 -->
<g id="node18" class="node">
<title>Node18</title>
<g id="a_node18"><a xlink:title=" ">
<polygon fill="none" stroke="#bfbfbf" points="700.5,-224.5 700.5,-243.5 769.5,-243.5 769.5,-224.5 700.5,-224.5"/>
<text text-anchor="middle" x="735" y="-231.5" font-family="Helvetica,sans-Serif" font-size="10.00">fmt/format.h</text>
</a>
</g>
</g>
<!-- Node1&#45;&gt;Node18 -->
<g id="edge25" class="edge">
<title>Node1&#45;&gt;Node18</title>
<path fill="none" stroke="midnightblue" d="M549.02,-280.44C587.25,-271.1 648.57,-256.12 690.26,-245.93"/>
<polygon fill="midnightblue" stroke="midnightblue" points="691.26,-249.29 700.15,-243.52 689.6,-242.49 691.26,-249.29"/>
</g>
<!-- Node19 -->
<g id="node19" class="node">
<title>Node19</title>
<g id="a_node19"><a xlink:title=" ">
<polygon fill="none" stroke="#bfbfbf" points="788,-224.5 788,-243.5 842,-243.5 842,-224.5 788,-224.5"/>
<text text-anchor="middle" x="815" y="-231.5" font-family="Helvetica,sans-Serif" font-size="10.00">iostream</text>
</a>
</g>
</g>
<!-- Node1&#45;&gt;Node19 -->
<g id="edge26" class="edge">
<title>Node1&#45;&gt;Node19</title>
<path fill="none" stroke="midnightblue" d="M558.27,-282.55C609.04,-274.91 694.95,-261.27 778.07,-244.07"/>
<polygon fill="midnightblue" stroke="midnightblue" points="778.85,-247.48 787.92,-242.01 777.42,-240.63 778.85,-247.48"/>
</g>
<!-- Node2&#45;&gt;Node3 -->
<g id="edge2" class="edge">
<title>Node2&#45;&gt;Node3</title>
<path fill="none" stroke="midnightblue" d="M474.76,-224.4C473.52,-215.36 471.7,-200.71 471,-188 468.22,-137.85 481.95,-126.06 486,-76 486.72,-67.14 491.6,-62.9 486,-56 463.28,-28.01 356.49,-16.78 302.88,-12.85"/>
<polygon fill="midnightblue" stroke="midnightblue" points="302.81,-9.34 292.6,-12.14 302.33,-16.32 302.81,-9.34"/>
</g>
<!-- Node2&#45;&gt;Node4 -->
<g id="edge3" class="edge">
<title>Node2&#45;&gt;Node4</title>
<path fill="none" stroke="midnightblue" d="M481.65,-224.37C493.53,-206.22 521.29,-163.8 536.88,-139.99"/>
<polygon fill="midnightblue" stroke="midnightblue" points="539.83,-141.88 542.38,-131.59 533.97,-138.04 539.83,-141.88"/>
</g>
<!-- Node5 -->
<g id="node5" class="node">
<title>Node5</title>
<g id="a_node5"><a xlink:href="../../de/d32/_token_8hpp.html" target="_top" xlink:title="Классы для работы с токенами анализатора">
<polygon fill="none" stroke="black" points="534,-56.5 534,-75.5 596,-75.5 596,-56.5 534,-56.5"/>
<text text-anchor="middle" x="565" y="-63.5" font-family="Helvetica,sans-Serif" font-size="10.00">Token.hpp</text>
</a>
</g>
</g>
<!-- Node2&#45;&gt;Node5 -->
<g id="edge24" class="edge">
<title>Node2&#45;&gt;Node5</title>
<path fill="none" stroke="midnightblue" d="M475.08,-224.24C473.29,-203.06 471.43,-148.16 495,-112 504.1,-98.04 519.22,-87.52 533.08,-80.18"/>
<polygon fill="midnightblue" stroke="midnightblue" points="534.96,-83.15 542.38,-75.6 531.87,-76.87 534.96,-83.15"/>
</g>
<!-- Node2&#45;&gt;Node7 -->
<g id="edge7" class="edge">
<title>Node2&#45;&gt;Node7</title>
<path fill="none" stroke="midnightblue" d="M448.75,-224.44C419.56,-215.28 373.08,-200.69 340.69,-190.52"/>
<polygon fill="midnightblue" stroke="midnightblue" points="341.72,-187.17 331.13,-187.52 339.62,-193.85 341.72,-187.17"/>
</g>
<!-- Node2&#45;&gt;Node9 -->
<g id="edge18" class="edge">
<title>Node2&#45;&gt;Node9</title>
<path fill="none" stroke="midnightblue" d="M463.37,-224.37C435.74,-205.49 369.72,-160.38 335.84,-137.24"/>
<polygon fill="midnightblue" stroke="midnightblue" points="337.81,-134.34 327.57,-131.59 333.86,-140.12 337.81,-134.34"/>
</g>
<!-- Node2&#45;&gt;Node16 -->
<g id="edge19" class="edge">
<title>Node2&#45;&gt;Node16</title>
<path fill="none" stroke="midnightblue" d="M497.55,-224.44C520.03,-215.52 555.49,-201.44 580.98,-191.32"/>
<polygon fill="midnightblue" stroke="midnightblue" points="582.55,-194.46 590.55,-187.52 579.97,-187.95 582.55,-194.46"/>
</g>
<!-- Node4&#45;&gt;Node5 -->
<g id="edge4" class="edge">
<title>Node4&#45;&gt;Node5</title>
<path fill="none" stroke="midnightblue" d="M550.81,-112.08C553.08,-104.85 556.37,-94.41 559.21,-85.4"/>
<polygon fill="midnightblue" stroke="midnightblue" points="562.58,-86.34 562.25,-75.75 555.9,-84.24 562.58,-86.34"/>
</g>
<!-- Node5&#45;&gt;Node3 -->
<g id="edge6" class="edge">
<title>Node5&#45;&gt;Node3</title>
<path fill="none" stroke="midnightblue" d="M533.54,-58.63C529,-57.74 524.38,-56.84 520,-56 441.84,-41.09 349.59,-24.66 302.7,-16.39"/>
<polygon fill="midnightblue" stroke="midnightblue" points="303.06,-12.9 292.6,-14.61 301.84,-19.79 303.06,-12.9"/>
</g>
<!-- Node6 -->
<g id="node6" class="node">
<title>Node6</title>
<g id="a_node6"><a xlink:title=" ">
<polygon fill="none" stroke="#bfbfbf" points="545,-0.5 545,-19.5 585,-19.5 585,-0.5 545,-0.5"/>
<text text-anchor="middle" x="565" y="-7.5" font-family="Helvetica,sans-Serif" font-size="10.00">regex</text>
</a>
</g>
</g>
<!-- Node5&#45;&gt;Node6 -->
<g id="edge5" class="edge">
<title>Node5&#45;&gt;Node6</title>
<path fill="none" stroke="midnightblue" d="M565,-56.08C565,-49.01 565,-38.86 565,-29.99"/>
<polygon fill="midnightblue" stroke="midnightblue" points="568.5,-29.75 565,-19.75 561.5,-29.75 568.5,-29.75"/>
</g>
<!-- Node7&#45;&gt;Node3 -->
<g id="edge9" class="edge">
<title>Node7&#45;&gt;Node3</title>
<path fill="none" stroke="midnightblue" d="M284.14,-168.39C254.89,-155.76 198.42,-131.59 150,-112 108.91,-95.38 82.05,-112.56 57,-76 51.98,-68.67 51.4,-62.9 57,-56 79.88,-27.83 187.56,-16.68 241.32,-12.8"/>
<polygon fill="midnightblue" stroke="midnightblue" points="241.57,-16.3 251.31,-12.12 241.09,-9.31 241.57,-16.3"/>
</g>
<!-- Node7&#45;&gt;Node5 -->
<g id="edge17" class="edge">
<title>Node7&#45;&gt;Node5</title>
<path fill="none" stroke="midnightblue" d="M324.48,-168.37C370.41,-149.01 481.8,-102.06 535.32,-79.51"/>
<polygon fill="midnightblue" stroke="midnightblue" points="536.76,-82.7 544.61,-75.59 534.04,-76.25 536.76,-82.7"/>
</g>
<!-- Node8 -->
<g id="node8" class="node">
<title>Node8</title>
<g id="a_node8"><a xlink:title=" ">
<polygon fill="none" stroke="#bfbfbf" points="91,-112.5 91,-131.5 141,-131.5 141,-112.5 91,-112.5"/>
<text text-anchor="middle" x="116" y="-119.5" font-family="Helvetica,sans-Serif" font-size="10.00">fstream</text>
</a>
</g>
</g>
<!-- Node7&#45;&gt;Node8 -->
<g id="edge8" class="edge">
<title>Node7&#45;&gt;Node8</title>
<path fill="none" stroke="midnightblue" d="M274.21,-168.44C240.76,-158.83 186.52,-143.26 151.05,-133.07"/>
<polygon fill="midnightblue" stroke="midnightblue" points="151.72,-129.62 141.14,-130.22 149.78,-136.35 151.72,-129.62"/>
</g>
<!-- Node7&#45;&gt;Node9 -->
<g id="edge10" class="edge">
<title>Node7&#45;&gt;Node9</title>
<path fill="none" stroke="midnightblue" d="M305.82,-168.08C307.27,-160.93 309.37,-150.64 311.19,-141.69"/>
<polygon fill="midnightblue" stroke="midnightblue" points="314.65,-142.25 313.22,-131.75 307.79,-140.85 314.65,-142.25"/>
</g>
<!-- Node10 -->
<g id="node10" class="node">
<title>Node10</title>
<g id="a_node10"><a xlink:title=" ">
<polygon fill="none" stroke="#bfbfbf" points="195.5,-56.5 195.5,-75.5 244.5,-75.5 244.5,-56.5 195.5,-56.5"/>
<text text-anchor="middle" x="220" y="-63.5" font-family="Helvetica,sans-Serif" font-size="10.00">cstddef</text>
</a>
</g>
</g>
<!-- Node9&#45;&gt;Node10 -->
<g id="edge11" class="edge">
<title>Node9&#45;&gt;Node10</title>
<path fill="none" stroke="midnightblue" d="M299.74,-112.32C284.78,-103.82 261.75,-90.73 244.27,-80.8"/>
<polygon fill="midnightblue" stroke="midnightblue" points="245.65,-77.55 235.23,-75.65 242.19,-83.64 245.65,-77.55"/>
</g>
<!-- Node11 -->
<g id="node11" class="node">
<title>Node11</title>
<g id="a_node11"><a xlink:title=" ">
<polygon fill="none" stroke="#bfbfbf" points="263,-56.5 263,-75.5 335,-75.5 335,-56.5 263,-56.5"/>
<text text-anchor="middle" x="299" y="-63.5" font-family="Helvetica,sans-Serif" font-size="10.00">initializer_list</text>
</a>
</g>
</g>
<!-- Node9&#45;&gt;Node11 -->
<g id="edge12" class="edge">
<title>Node9&#45;&gt;Node11</title>
<path fill="none" stroke="midnightblue" d="M312.36,-112.08C310.21,-104.85 307.12,-94.41 304.45,-85.4"/>
<polygon fill="midnightblue" stroke="midnightblue" points="307.79,-84.34 301.59,-75.75 301.08,-86.33 307.79,-84.34"/>
</g>
<!-- Node12 -->
<g id="node12" class="node">
<title>Node12</title>
<g id="a_node12"><a xlink:title=" ">
<polygon fill="none" stroke="#bfbfbf" points="353.5,-56.5 353.5,-75.5 400.5,-75.5 400.5,-56.5 353.5,-56.5"/>
<text text-anchor="middle" x="377" y="-63.5" font-family="Helvetica,sans-Serif" font-size="10.00">iterator</text>
</a>
</g>
</g>
<!-- Node9&#45;&gt;Node12 -->
<g id="edge13" class="edge">
<title>Node9&#45;&gt;Node12</title>
<path fill="none" stroke="midnightblue" d="M324.96,-112.32C334.13,-104.34 347.94,-92.31 359.03,-82.65"/>
<polygon fill="midnightblue" stroke="midnightblue" points="361.62,-85.04 366.86,-75.83 357.02,-79.76 361.62,-85.04"/>
</g>
<!-- Node13 -->
<g id="node13" class="node">
<title>Node13</title>
<g id="a_node13"><a xlink:title=" ">
<polygon fill="none" stroke="#bfbfbf" points="418.5,-56.5 418.5,-75.5 477.5,-75.5 477.5,-56.5 418.5,-56.5"/>
<text text-anchor="middle" x="448" y="-63.5" font-family="Helvetica,sans-Serif" font-size="10.00">stdexcept</text>
</a>
</g>
</g>
<!-- Node9&#45;&gt;Node13 -->
<g id="edge14" class="edge">
<title>Node9&#45;&gt;Node13</title>
<path fill="none" stroke="midnightblue" d="M336.07,-112.44C358.06,-103.52 392.73,-89.44 417.66,-79.32"/>
<polygon fill="midnightblue" stroke="midnightblue" points="419.08,-82.52 427.02,-75.52 416.44,-76.04 419.08,-82.52"/>
</g>
<!-- Node9&#45;&gt;Node14 -->
<g id="edge15" class="edge">
<title>Node9&#45;&gt;Node14</title>
<path fill="none" stroke="midnightblue" d="M289.2,-115.57C253.38,-107.92 186.33,-93.22 120.07,-76.17"/>
<polygon fill="midnightblue" stroke="midnightblue" points="120.87,-72.76 110.31,-73.64 119.11,-79.54 120.87,-72.76"/>
</g>
<!-- Node15 -->
<g id="node15" class="node">
<title>Node15</title>
<g id="a_node15"><a xlink:title=" ">
<polygon fill="none" stroke="#bfbfbf" points="128.5,-56.5 128.5,-75.5 177.5,-75.5 177.5,-56.5 128.5,-56.5"/>
<text text-anchor="middle" x="153" y="-63.5" font-family="Helvetica,sans-Serif" font-size="10.00">List.tpp</text>
</a>
</g>
</g>
<!-- Node9&#45;&gt;Node15 -->
<g id="edge16" class="edge">
<title>Node9&#45;&gt;Node15</title>
<path fill="none" stroke="midnightblue" d="M289.33,-112.44C261.84,-103.28 218.05,-88.68 187.55,-78.52"/>
<polygon fill="midnightblue" stroke="midnightblue" points="188.35,-75.09 177.75,-75.25 186.13,-81.73 188.35,-75.09"/>
</g>
<!-- Node16&#45;&gt;Node4 -->
<g id="edge22" class="edge">
<title>Node16&#45;&gt;Node4</title>
<path fill="none" stroke="midnightblue" d="M601.72,-168.32C592.16,-160.26 577.72,-148.08 566.22,-138.37"/>
<polygon fill="midnightblue" stroke="midnightblue" points="568.37,-135.61 558.47,-131.83 563.86,-140.96 568.37,-135.61"/>
</g>
<!-- Node16&#45;&gt;Node5 -->
<g id="edge23" class="edge">
<title>Node16&#45;&gt;Node5</title>
<path fill="none" stroke="midnightblue" d="M611.89,-168.19C611.44,-155.3 609.42,-130.8 601,-112 596.26,-101.43 588.45,-91.21 581.31,-83.2"/>
<polygon fill="midnightblue" stroke="midnightblue" points="583.67,-80.6 574.27,-75.71 578.57,-85.4 583.67,-80.6"/>
</g>
<!-- Node16&#45;&gt;Node9 -->
<g id="edge21" class="edge">
<title>Node16&#45;&gt;Node9</title>
<path fill="none" stroke="midnightblue" d="M579.93,-171.17C524.04,-161.01 409.18,-140.12 350.78,-129.51"/>
<polygon fill="midnightblue" stroke="midnightblue" points="351.36,-126.05 340.9,-127.71 350.11,-132.94 351.36,-126.05"/>
</g>
<!-- Node16&#45;&gt;Node17 -->
<g id="edge20" class="edge">
<title>Node16&#45;&gt;Node17</title>
<path fill="none" stroke="midnightblue" d="M621.96,-168.32C631.13,-160.34 644.94,-148.31 656.03,-138.65"/>
<polygon fill="midnightblue" stroke="midnightblue" points="658.62,-141.04 663.86,-131.83 654.02,-135.76 658.62,-141.04"/>
</g>
</g>
</svg>
