<?xml version="1.0" encoding="UTF-8" standalone="no"?>
<!DOCTYPE svg PUBLIC "-//W3C//DTD SVG 1.1//EN"
 "http://www.w3.org/Graphics/SVG/1.1/DTD/svg11.dtd">
<!-- Generated by graphviz version 3.0.0 (20220413.0106)
 -->
<!-- Title: Lexer::analyzeFile Pages: 1 -->
<svg width="558pt" height="256pt"
 viewBox="0.00 0.00 558.00 256.00" xmlns="http://www.w3.org/2000/svg" xmlns:xlink="http://www.w3.org/1999/xlink">
<g id="graph0" class="graph" transform="scale(1 1) rotate(0) translate(4 252)">
<title>Lexer::analyzeFile</title>
<!-- Node1 -->
<g id="node1" class="node">
<title>Node1</title>
<g id="a_node1"><a xlink:title="Анализирует файл">
<polygon fill="#bfbfbf" stroke="black" points="0,-114.5 0,-133.5 93,-133.5 93,-114.5 0,-114.5"/>
<text text-anchor="middle" x="46.5" y="-121.5" font-family="Helvetica,sans-Serif" font-size="10.00">Lexer::analyzeFile</text>
</a>
</g>
</g>
<!-- Node2 -->
<g id="node2" class="node">
<title>Node2</title>
<g id="a_node2"><a xlink:href="../../da/d5a/class_lexer.html#a473a8abf892384a3e2769651318d7ab1" target="_top" xlink:title="Анализирует текст программы">
<polygon fill="none" stroke="black" points="129,-114.5 129,-133.5 262,-133.5 262,-114.5 129,-114.5"/>
<text text-anchor="middle" x="195.5" y="-121.5" font-family="Helvetica,sans-Serif" font-size="10.00">Lexer::analyzeProgramText</text>
</a>
</g>
</g>
<!-- Node1&#45;&gt;Node2 -->
<g id="edge1" class="edge">
<title>Node1&#45;&gt;Node2</title>
<path fill="none" stroke="midnightblue" d="M93.21,-124C101.32,-124 109.97,-124 118.66,-124"/>
<polygon fill="midnightblue" stroke="midnightblue" points="118.86,-127.5 128.86,-124 118.86,-120.5 118.86,-127.5"/>
</g>
<!-- Node3 -->
<g id="node3" class="node">
<title>Node3</title>
<g id="a_node3"><a xlink:href="../../d1/d34/class_list.html#ab62bcc4a78278e99a01cacea8ee22423" target="_top" xlink:title="Итератор для начала списка">
<polygon fill="none" stroke="black" points="320,-228.5 320,-247.5 381,-247.5 381,-228.5 320,-228.5"/>
<text text-anchor="middle" x="350.5" y="-235.5" font-family="Helvetica,sans-Serif" font-size="10.00">List::begin</text>
</a>
</g>
</g>
<!-- Node2&#45;&gt;Node3 -->
<g id="edge2" class="edge">
<title>Node2&#45;&gt;Node3</title>
<path fill="none" stroke="midnightblue" d="M204.46,-133.69C220.41,-152.53 258.15,-194.41 298,-219 301.89,-221.4 306.13,-223.57 310.46,-225.51"/>
<polygon fill="midnightblue" stroke="midnightblue" points="309.37,-228.85 319.95,-229.39 312.02,-222.37 309.37,-228.85"/>
</g>
<!-- Node4 -->
<g id="node4" class="node">
<title>Node4</title>
<g id="a_node4"><a xlink:href="../../dd/d5d/_lexer_8cpp.html#a0f45215a7e2c46f1cfbaf626be68fe07" target="_top" xlink:title=" ">
<polygon fill="none" stroke="black" points="306.5,-190.5 306.5,-209.5 394.5,-209.5 394.5,-190.5 306.5,-190.5"/>
<text text-anchor="middle" x="350.5" y="-197.5" font-family="Helvetica,sans-Serif" font-size="10.00">countFromBegin</text>
</a>
</g>
</g>
<!-- Node2&#45;&gt;Node4 -->
<g id="edge3" class="edge">
<title>Node2&#45;&gt;Node4</title>
<path fill="none" stroke="midnightblue" d="M211.92,-133.68C231.47,-145.71 266.44,-166.43 298,-181 302.37,-183.02 307.01,-184.98 311.66,-186.82"/>
<polygon fill="midnightblue" stroke="midnightblue" points="310.52,-190.13 321.11,-190.44 313.02,-183.6 310.52,-190.13"/>
</g>
<!-- Node5 -->
<g id="node5" class="node">
<title>Node5</title>
<g id="a_node5"><a xlink:href="../../d1/d34/class_list.html#a56026b900ba2e5a6c894797b57e9bdf1" target="_top" xlink:title="Конец списка">
<polygon fill="none" stroke="black" points="324,-152.5 324,-171.5 377,-171.5 377,-152.5 324,-152.5"/>
<text text-anchor="middle" x="350.5" y="-159.5" font-family="Helvetica,sans-Serif" font-size="10.00">List::end</text>
</a>
</g>
</g>
<!-- Node2&#45;&gt;Node5 -->
<g id="edge4" class="edge">
<title>Node2&#45;&gt;Node5</title>
<path fill="none" stroke="midnightblue" d="M235.11,-133.59C259.32,-139.6 290.31,-147.3 313.93,-153.16"/>
<polygon fill="midnightblue" stroke="midnightblue" points="313.33,-156.62 323.88,-155.64 315.02,-149.83 313.33,-156.62"/>
</g>
<!-- Node6 -->
<g id="node6" class="node">
<title>Node6</title>
<g id="a_node6"><a xlink:href="../../db/dc1/class_token.html#aa5d6826fae7d616e2cfe3e27b5dd594a" target="_top" xlink:title="Возвращает константную ссылку на строковое представление токена">
<polygon fill="none" stroke="black" points="313.5,-114.5 313.5,-133.5 387.5,-133.5 387.5,-114.5 313.5,-114.5"/>
<text text-anchor="middle" x="350.5" y="-121.5" font-family="Helvetica,sans-Serif" font-size="10.00">Token::getStr</text>
</a>
</g>
</g>
<!-- Node2&#45;&gt;Node6 -->
<g id="edge5" class="edge">
<title>Node2&#45;&gt;Node6</title>
<path fill="none" stroke="midnightblue" d="M262.27,-124C276.08,-124 290.36,-124 303.27,-124"/>
<polygon fill="midnightblue" stroke="midnightblue" points="303.29,-127.5 313.29,-124 303.29,-120.5 303.29,-127.5"/>
</g>
<!-- Node7 -->
<g id="node7" class="node">
<title>Node7</title>
<g id="a_node7"><a xlink:href="../../da/d5a/class_lexer.html#a50d38d21286cb6b84e9a24d267b3b6e0" target="_top" xlink:title="Возвращает строку, у которой убраны пустые символы в начале и конце">
<polygon fill="none" stroke="black" points="302,-76.5 302,-95.5 399,-95.5 399,-76.5 302,-76.5"/>
<text text-anchor="middle" x="350.5" y="-83.5" font-family="Helvetica,sans-Serif" font-size="10.00">Lexer::getTrimmed</text>
</a>
</g>
</g>
<!-- Node2&#45;&gt;Node7 -->
<g id="edge6" class="edge">
<title>Node2&#45;&gt;Node7</title>
<path fill="none" stroke="midnightblue" d="M235.11,-114.41C255.21,-109.42 279.98,-103.27 301.32,-97.97"/>
<polygon fill="midnightblue" stroke="midnightblue" points="302.31,-101.33 311.17,-95.52 300.62,-94.53 302.31,-101.33"/>
</g>
<!-- Node8 -->
<g id="node8" class="node">
<title>Node8</title>
<g id="a_node8"><a xlink:href="../../dd/dfe/class_base_token.html#adf680862efcd78640cb9442b6918dd4d" target="_top" xlink:title="Получение типа токена">
<polygon fill="none" stroke="black" points="298,-38.5 298,-57.5 403,-57.5 403,-38.5 298,-38.5"/>
<text text-anchor="middle" x="350.5" y="-45.5" font-family="Helvetica,sans-Serif" font-size="10.00">BaseToken::getType</text>
</a>
</g>
</g>
<!-- Node2&#45;&gt;Node8 -->
<g id="edge7" class="edge">
<title>Node2&#45;&gt;Node8</title>
<path fill="none" stroke="midnightblue" d="M211.92,-114.32C231.47,-102.29 266.44,-81.57 298,-67 302.37,-64.98 307.01,-63.02 311.66,-61.18"/>
<polygon fill="midnightblue" stroke="midnightblue" points="313.02,-64.4 321.11,-57.56 310.52,-57.87 313.02,-64.4"/>
</g>
<!-- Node9 -->
<g id="node9" class="node">
<title>Node9</title>
<g id="a_node9"><a xlink:href="../../d1/d34/class_list.html#a0c471cf5c09edf2dcbdf1f37cac53e45" target="_top" xlink:title="Вставка в конец списка">
<polygon fill="none" stroke="black" points="310,-0.5 310,-19.5 391,-19.5 391,-0.5 310,-0.5"/>
<text text-anchor="middle" x="350.5" y="-7.5" font-family="Helvetica,sans-Serif" font-size="10.00">List::pushBack</text>
</a>
</g>
</g>
<!-- Node2&#45;&gt;Node9 -->
<g id="edge8" class="edge">
<title>Node2&#45;&gt;Node9</title>
<path fill="none" stroke="midnightblue" d="M204.46,-114.31C220.41,-95.47 258.15,-53.59 298,-29 301.19,-27.03 304.61,-25.22 308.12,-23.56"/>
<polygon fill="midnightblue" stroke="midnightblue" points="309.71,-26.69 317.52,-19.54 306.95,-20.26 309.71,-26.69"/>
</g>
<!-- Node10 -->
<g id="node10" class="node">
<title>Node10</title>
<g id="a_node10"><a xlink:href="../../dc/d8f/class_node.html#a5f29dc4844746c7e7780933173d31a4a" target="_top" xlink:title="Присоединяет узел pNext в качестве следующего узла">
<polygon fill="none" stroke="black" points="439,-0.5 439,-19.5 550,-19.5 550,-0.5 439,-0.5"/>
<text text-anchor="middle" x="494.5" y="-7.5" font-family="Helvetica,sans-Serif" font-size="10.00">Node::connectAsNext</text>
</a>
</g>
</g>
<!-- Node9&#45;&gt;Node10 -->
<g id="edge9" class="edge">
<title>Node9&#45;&gt;Node10</title>
<path fill="none" stroke="midnightblue" d="M391.05,-10C402.71,-10 415.78,-10 428.59,-10"/>
<polygon fill="midnightblue" stroke="midnightblue" points="428.77,-13.5 438.77,-10 428.77,-6.5 428.77,-13.5"/>
</g>
</g>
</svg>
