<?xml version="1.0" encoding="UTF-8" standalone="no"?>
<!DOCTYPE svg PUBLIC "-//W3C//DTD SVG 1.1//EN"
 "http://www.w3.org/Graphics/SVG/1.1/DTD/svg11.dtd">
<!-- Generated by graphviz version 2.43.0 (0)
 -->
<!-- Title: Lexer::analyzeFile Pages: 1 -->
<svg width="598pt" height="218pt"
 viewBox="0.00 0.00 598.00 218.00" xmlns="http://www.w3.org/2000/svg" xmlns:xlink="http://www.w3.org/1999/xlink">
<g id="graph0" class="graph" transform="scale(1 1) rotate(0) translate(4 214)">
<title>Lexer::analyzeFile</title>
<!-- Node1 -->
<g id="node1" class="node">
<title>Node1</title>
<g id="a_node1"><a xlink:title="Анализирует файл">
<polygon fill="#bfbfbf" stroke="black" points="0,-95.5 0,-114.5 104,-114.5 104,-95.5 0,-95.5"/>
<text text-anchor="middle" x="52" y="-102.5" font-family="Helvetica,sans-Serif" font-size="10.00">Lexer::analyzeFile</text>
</a>
</g>
</g>
<!-- Node2 -->
<g id="node2" class="node">
<title>Node2</title>
<g id="a_node2"><a xlink:href="../../da/d5a/class_lexer.html#a05ad531a83d8a8588ad9e6b08c9fd205" target="_top" xlink:title="Анализирует текст программы">
<polygon fill="none" stroke="black" points="140,-95.5 140,-114.5 289,-114.5 289,-95.5 140,-95.5"/>
<text text-anchor="middle" x="214.5" y="-102.5" font-family="Helvetica,sans-Serif" font-size="10.00">Lexer::analyzeProgramText</text>
</a>
</g>
</g>
<!-- Node1&#45;&gt;Node2 -->
<g id="edge1" class="edge">
<title>Node1&#45;&gt;Node2</title>
<path fill="none" stroke="midnightblue" d="M104.22,-105C112.4,-105 121.04,-105 129.74,-105"/>
<polygon fill="midnightblue" stroke="midnightblue" points="129.95,-108.5 139.95,-105 129.95,-101.5 129.95,-108.5"/>
</g>
<!-- Node3 -->
<g id="node3" class="node">
<title>Node3</title>
<g id="a_node3"><a xlink:href="../../d1/d34/class_list.html#aa67498499814224ddd1fd95039beaa6f" target="_top" xlink:title="Итератор для начала списка">
<polygon fill="none" stroke="black" points="345,-190.5 345,-209.5 412,-209.5 412,-190.5 345,-190.5"/>
<text text-anchor="middle" x="378.5" y="-197.5" font-family="Helvetica,sans-Serif" font-size="10.00">List::begin</text>
</a>
</g>
</g>
<!-- Node2&#45;&gt;Node3 -->
<g id="edge2" class="edge">
<title>Node2&#45;&gt;Node3</title>
<path fill="none" stroke="midnightblue" d="M227.01,-114.51C246.28,-130.07 286.76,-161.24 325,-181 328.98,-183.06 333.24,-184.99 337.54,-186.78"/>
<polygon fill="midnightblue" stroke="midnightblue" points="336.36,-190.08 346.94,-190.45 338.9,-183.56 336.36,-190.08"/>
</g>
<!-- Node4 -->
<g id="node4" class="node">
<title>Node4</title>
<g id="a_node4"><a xlink:href="../../d1/d34/class_list.html#a6f540f75810e3bff0b3dfa17176d1b44" target="_top" xlink:title="Конец списка">
<polygon fill="none" stroke="black" points="349.5,-152.5 349.5,-171.5 407.5,-171.5 407.5,-152.5 349.5,-152.5"/>
<text text-anchor="middle" x="378.5" y="-159.5" font-family="Helvetica,sans-Serif" font-size="10.00">List::end</text>
</a>
</g>
</g>
<!-- Node2&#45;&gt;Node4 -->
<g id="edge3" class="edge">
<title>Node2&#45;&gt;Node4</title>
<path fill="none" stroke="midnightblue" d="M242.62,-114.54C269.48,-123.99 310.82,-138.54 340.66,-149.04"/>
<polygon fill="midnightblue" stroke="midnightblue" points="339.7,-152.41 350.3,-152.43 342.02,-145.81 339.7,-152.41"/>
</g>
<!-- Node5 -->
<g id="node5" class="node">
<title>Node5</title>
<g id="a_node5"><a xlink:href="../../db/dc1/class_token.html#a942fcc40ffdf54c98b7b641c792a26bc" target="_top" xlink:title="Возвращает константную ссылку на строковое представление токена">
<polygon fill="none" stroke="black" points="338.5,-114.5 338.5,-133.5 418.5,-133.5 418.5,-114.5 338.5,-114.5"/>
<text text-anchor="middle" x="378.5" y="-121.5" font-family="Helvetica,sans-Serif" font-size="10.00">Token::getStr</text>
</a>
</g>
</g>
<!-- Node2&#45;&gt;Node5 -->
<g id="edge4" class="edge">
<title>Node2&#45;&gt;Node5</title>
<path fill="none" stroke="midnightblue" d="M289.39,-113.67C302.56,-115.21 315.98,-116.78 328.25,-118.22"/>
<polygon fill="midnightblue" stroke="midnightblue" points="327.91,-121.71 338.25,-119.4 328.73,-114.76 327.91,-121.71"/>
</g>
<!-- Node6 -->
<g id="node6" class="node">
<title>Node6</title>
<g id="a_node6"><a xlink:href="../../da/d5a/class_lexer.html#a3219ffabceacaeb3540680c050768ad7" target="_top" xlink:title=" ">
<polygon fill="none" stroke="black" points="325,-76.5 325,-95.5 432,-95.5 432,-76.5 325,-76.5"/>
<text text-anchor="middle" x="378.5" y="-83.5" font-family="Helvetica,sans-Serif" font-size="10.00">Lexer::getTrimmed</text>
</a>
</g>
</g>
<!-- Node2&#45;&gt;Node6 -->
<g id="edge5" class="edge">
<title>Node2&#45;&gt;Node6</title>
<path fill="none" stroke="midnightblue" d="M289.39,-96.33C297.72,-95.36 306.15,-94.37 314.33,-93.41"/>
<polygon fill="midnightblue" stroke="midnightblue" points="315,-96.85 324.53,-92.21 314.19,-89.9 315,-96.85"/>
</g>
<!-- Node7 -->
<g id="node7" class="node">
<title>Node7</title>
<g id="a_node7"><a xlink:href="../../d0/d11/class_i_token.html#a568cb9d98839eff3fd758f419a76b092" target="_top" xlink:title="Получение типа токена">
<polygon fill="none" stroke="black" points="332.5,-38.5 332.5,-57.5 424.5,-57.5 424.5,-38.5 332.5,-38.5"/>
<text text-anchor="middle" x="378.5" y="-45.5" font-family="Helvetica,sans-Serif" font-size="10.00">IToken::getType</text>
</a>
</g>
</g>
<!-- Node2&#45;&gt;Node7 -->
<g id="edge6" class="edge">
<title>Node2&#45;&gt;Node7</title>
<path fill="none" stroke="midnightblue" d="M242.62,-95.46C269.48,-86.01 310.82,-71.46 340.66,-60.96"/>
<polygon fill="midnightblue" stroke="midnightblue" points="342.02,-64.19 350.3,-57.57 339.7,-57.59 342.02,-64.19"/>
</g>
<!-- Node8 -->
<g id="node8" class="node">
<title>Node8</title>
<g id="a_node8"><a xlink:href="../../d1/d34/class_list.html#a0c471cf5c09edf2dcbdf1f37cac53e45" target="_top" xlink:title="Вставка в конец списка">
<polygon fill="none" stroke="black" points="335,-0.5 335,-19.5 422,-19.5 422,-0.5 335,-0.5"/>
<text text-anchor="middle" x="378.5" y="-7.5" font-family="Helvetica,sans-Serif" font-size="10.00">List::pushBack</text>
</a>
</g>
</g>
<!-- Node2&#45;&gt;Node8 -->
<g id="edge7" class="edge">
<title>Node2&#45;&gt;Node8</title>
<path fill="none" stroke="midnightblue" d="M227.01,-95.49C246.28,-79.93 286.76,-48.76 325,-29 328.98,-26.94 333.24,-25.01 337.54,-23.22"/>
<polygon fill="midnightblue" stroke="midnightblue" points="338.9,-26.44 346.94,-19.55 336.36,-19.92 338.9,-26.44"/>
</g>
<!-- Node9 -->
<g id="node9" class="node">
<title>Node9</title>
<g id="a_node9"><a xlink:href="../../dc/d8f/class_node.html#a5f29dc4844746c7e7780933173d31a4a" target="_top" xlink:title="Присоединяет узел pNext в качестве следующего узла">
<polygon fill="none" stroke="black" points="468,-0.5 468,-19.5 590,-19.5 590,-0.5 468,-0.5"/>
<text text-anchor="middle" x="529" y="-7.5" font-family="Helvetica,sans-Serif" font-size="10.00">Node::connectAsNext</text>
</a>
</g>
</g>
<!-- Node8&#45;&gt;Node9 -->
<g id="edge8" class="edge">
<title>Node8&#45;&gt;Node9</title>
<path fill="none" stroke="midnightblue" d="M422.05,-10C433.17,-10 445.45,-10 457.59,-10"/>
<polygon fill="midnightblue" stroke="midnightblue" points="457.73,-13.5 467.73,-10 457.73,-6.5 457.73,-13.5"/>
</g>
</g>
</svg>
