<?xml version="1.0" encoding="UTF-8" standalone="no"?>
<!DOCTYPE svg PUBLIC "-//W3C//DTD SVG 1.1//EN"
 "http://www.w3.org/Graphics/SVG/1.1/DTD/svg11.dtd">
<!-- Generated by graphviz version 3.0.0 (20220413.0106)
 -->
<!-- Title: Lexer::analyzeProgramText Pages: 1 -->
<svg width="421pt" height="284pt"
 viewBox="0.00 0.00 421.00 283.50" xmlns="http://www.w3.org/2000/svg" xmlns:xlink="http://www.w3.org/1999/xlink">
<g id="graph0" class="graph" transform="scale(1 1) rotate(0) translate(4 279.5)">
<title>Lexer::analyzeProgramText</title>
<!-- Node1 -->
<g id="node1" class="node">
<title>Node1</title>
<g id="a_node1"><a xlink:title="Анализирует текст программы">
<polygon fill="#bfbfbf" stroke="black" points="0,-142 0,-161 133,-161 133,-142 0,-142"/>
<text text-anchor="middle" x="66.5" y="-149" font-family="Helvetica,sans-Serif" font-size="10.00">Lexer::analyzeProgramText</text>
</a>
</g>
</g>
<!-- Node2 -->
<g id="node2" class="node">
<title>Node2</title>
<g id="a_node2"><a xlink:href="../../d1/d34/class_list.html#ab62bcc4a78278e99a01cacea8ee22423" target="_top" xlink:title="Итератор для начала списка">
<polygon fill="none" stroke="black" points="187,-256 187,-275 248,-275 248,-256 187,-256"/>
<text text-anchor="middle" x="217.5" y="-263" font-family="Helvetica,sans-Serif" font-size="10.00">List::begin</text>
</a>
</g>
</g>
<!-- Node1&#45;&gt;Node2 -->
<g id="edge1" class="edge">
<title>Node1&#45;&gt;Node2</title>
<path fill="none" stroke="midnightblue" d="M75.52,-161.1C91.57,-179.77 129.49,-221.37 169,-246.5 171.94,-248.37 175.09,-250.11 178.32,-251.72"/>
<polygon fill="midnightblue" stroke="midnightblue" points="176.97,-254.95 187.52,-255.9 179.87,-248.58 176.97,-254.95"/>
</g>
<!-- Node3 -->
<g id="node3" class="node">
<title>Node3</title>
<g id="a_node3"><a xlink:href="../../dd/d5d/_lexer_8cpp.html#a0f45215a7e2c46f1cfbaf626be68fe07" target="_top" xlink:title=" ">
<polygon fill="none" stroke="black" points="173.5,-218 173.5,-237 261.5,-237 261.5,-218 173.5,-218"/>
<text text-anchor="middle" x="217.5" y="-225" font-family="Helvetica,sans-Serif" font-size="10.00">countFromBegin</text>
</a>
</g>
</g>
<!-- Node1&#45;&gt;Node3 -->
<g id="edge2" class="edge">
<title>Node1&#45;&gt;Node3</title>
<path fill="none" stroke="midnightblue" d="M82.98,-161.04C102.6,-172.93 137.64,-193.5 169,-208.5 172.88,-210.35 176.98,-212.19 181.1,-213.94"/>
<polygon fill="midnightblue" stroke="midnightblue" points="180.02,-217.28 190.6,-217.85 182.68,-210.81 180.02,-217.28"/>
</g>
<!-- Node4 -->
<g id="node4" class="node">
<title>Node4</title>
<g id="a_node4"><a xlink:href="../../d1/d34/class_list.html#a56026b900ba2e5a6c894797b57e9bdf1" target="_top" xlink:title="Конец списка">
<polygon fill="none" stroke="black" points="191,-180 191,-199 244,-199 244,-180 191,-180"/>
<text text-anchor="middle" x="217.5" y="-187" font-family="Helvetica,sans-Serif" font-size="10.00">List::end</text>
</a>
</g>
</g>
<!-- Node1&#45;&gt;Node4 -->
<g id="edge3" class="edge">
<title>Node1&#45;&gt;Node4</title>
<path fill="none" stroke="midnightblue" d="M105.1,-161.09C128.27,-167 157.82,-174.54 180.67,-180.36"/>
<polygon fill="midnightblue" stroke="midnightblue" points="180.09,-183.83 190.64,-182.91 181.82,-177.04 180.09,-183.83"/>
</g>
<!-- Node5 -->
<g id="node5" class="node">
<title>Node5</title>
<g id="a_node5"><a xlink:href="../../db/dc1/class_token.html#a942fcc40ffdf54c98b7b641c792a26bc" target="_top" xlink:title="Возвращает константную ссылку на строковое представление токена">
<polygon fill="none" stroke="black" points="180.5,-142 180.5,-161 254.5,-161 254.5,-142 180.5,-142"/>
<text text-anchor="middle" x="217.5" y="-149" font-family="Helvetica,sans-Serif" font-size="10.00">Token::getStr</text>
</a>
</g>
</g>
<!-- Node1&#45;&gt;Node5 -->
<g id="edge4" class="edge">
<title>Node1&#45;&gt;Node5</title>
<path fill="none" stroke="midnightblue" d="M133.29,-151.5C145.83,-151.5 158.7,-151.5 170.47,-151.5"/>
<polygon fill="midnightblue" stroke="midnightblue" points="170.48,-155 180.48,-151.5 170.48,-148 170.48,-155"/>
</g>
<!-- Node6 -->
<g id="node6" class="node">
<title>Node6</title>
<g id="a_node6"><a xlink:href="../../da/d5a/class_lexer.html#a50d38d21286cb6b84e9a24d267b3b6e0" target="_top" xlink:title=" ">
<polygon fill="none" stroke="black" points="169,-104 169,-123 266,-123 266,-104 169,-104"/>
<text text-anchor="middle" x="217.5" y="-111" font-family="Helvetica,sans-Serif" font-size="10.00">Lexer::getTrimmed</text>
</a>
</g>
</g>
<!-- Node1&#45;&gt;Node6 -->
<g id="edge5" class="edge">
<title>Node1&#45;&gt;Node6</title>
<path fill="none" stroke="midnightblue" d="M105.1,-141.91C124.58,-136.94 148.57,-130.82 169.3,-125.54"/>
<polygon fill="midnightblue" stroke="midnightblue" points="170.35,-128.88 179.17,-123.02 168.62,-122.1 170.35,-128.88"/>
</g>
<!-- Node7 -->
<g id="node7" class="node">
<title>Node7</title>
<g id="a_node7"><a xlink:href="../../d0/d11/class_i_token.html#a568cb9d98839eff3fd758f419a76b092" target="_top" xlink:title="Получение типа токена">
<polygon fill="none" stroke="black" points="174.5,-66 174.5,-85 260.5,-85 260.5,-66 174.5,-66"/>
<text text-anchor="middle" x="217.5" y="-73" font-family="Helvetica,sans-Serif" font-size="10.00">IToken::getType</text>
</a>
</g>
</g>
<!-- Node1&#45;&gt;Node7 -->
<g id="edge6" class="edge">
<title>Node1&#45;&gt;Node7</title>
<path fill="none" stroke="midnightblue" d="M82.98,-141.96C102.6,-130.07 137.64,-109.5 169,-94.5 172.88,-92.65 176.98,-90.81 181.1,-89.06"/>
<polygon fill="midnightblue" stroke="midnightblue" points="182.68,-92.19 190.6,-85.15 180.02,-85.72 182.68,-92.19"/>
</g>
<!-- Node8 -->
<g id="node8" class="node">
<title>Node8</title>
<g id="a_node8"><a xlink:href="../../d1/d34/class_list.html#a0c471cf5c09edf2dcbdf1f37cac53e45" target="_top" xlink:title="Вставка в конец списка">
<polygon fill="none" stroke="black" points="177,-28 177,-47 258,-47 258,-28 177,-28"/>
<text text-anchor="middle" x="217.5" y="-35" font-family="Helvetica,sans-Serif" font-size="10.00">List::pushBack</text>
</a>
</g>
</g>
<!-- Node1&#45;&gt;Node8 -->
<g id="edge7" class="edge">
<title>Node1&#45;&gt;Node8</title>
<path fill="none" stroke="midnightblue" d="M75.52,-141.9C91.57,-123.23 129.49,-81.63 169,-56.5 171.94,-54.63 175.09,-52.89 178.32,-51.28"/>
<polygon fill="midnightblue" stroke="midnightblue" points="179.87,-54.42 187.52,-47.1 176.97,-48.05 179.87,-54.42"/>
</g>
<!-- Node9 -->
<g id="node9" class="node">
<title>Node9</title>
<g id="a_node9"><a xlink:href="../../dc/d8f/class_node.html#a5f29dc4844746c7e7780933173d31a4a" target="_top" xlink:title="Присоединяет узел pNext в качестве следующего узла">
<polygon fill="none" stroke="black" points="302,-50 302,-69 413,-69 413,-50 302,-50"/>
<text text-anchor="middle" x="357.5" y="-57" font-family="Helvetica,sans-Serif" font-size="10.00">Node::connectAsNext</text>
</a>
</g>
</g>
<!-- Node8&#45;&gt;Node9 -->
<g id="edge8" class="edge">
<title>Node8&#45;&gt;Node9</title>
<path fill="none" stroke="midnightblue" d="M258.05,-43.8C268.58,-45.48 280.24,-47.34 291.74,-49.18"/>
<polygon fill="midnightblue" stroke="midnightblue" points="291.35,-52.66 301.78,-50.78 292.46,-45.75 291.35,-52.66"/>
</g>
<!-- Node10 -->
<g id="node10" class="node">
<title>Node10</title>
<g id="a_node10"><a xlink:href="../../dd/d3d/namespacemagic__enum_1_1detail.html#a8e06754b490522d8ae02cd8983e3fcbf" target="_top" xlink:title=" ">
<polygon fill="none" stroke="black" points="307.5,-0.5 307.5,-30.5 407.5,-30.5 407.5,-0.5 307.5,-0.5"/>
<text text-anchor="start" x="315.5" y="-18.5" font-family="Helvetica,sans-Serif" font-size="10.00">magic_enum::detail</text>
<text text-anchor="middle" x="357.5" y="-7.5" font-family="Helvetica,sans-Serif" font-size="10.00">::value</text>
</a>
</g>
</g>
<!-- Node8&#45;&gt;Node10 -->
<g id="edge9" class="edge">
<title>Node8&#45;&gt;Node10</title>
<path fill="none" stroke="midnightblue" d="M258.05,-31.2C270.29,-29.24 284.07,-27.05 297.35,-24.93"/>
<polygon fill="midnightblue" stroke="midnightblue" points="298.04,-28.36 307.37,-23.33 296.94,-21.45 298.04,-28.36"/>
</g>
</g>
</svg>
