<?xml version="1.0" encoding="UTF-8" standalone="no"?>
<!DOCTYPE svg PUBLIC "-//W3C//DTD SVG 1.1//EN"
 "http://www.w3.org/Graphics/SVG/1.1/DTD/svg11.dtd">
<!-- Generated by graphviz version 3.0.0 (20220413.0106)
 -->
<!-- Title: IterationAST Pages: 1 -->
<svg width="79pt" height="209pt"
 viewBox="0.00 0.00 79.00 209.00" xmlns="http://www.w3.org/2000/svg" xmlns:xlink="http://www.w3.org/1999/xlink">
<g id="graph0" class="graph" transform="scale(1 1) rotate(0) translate(4 205)">
<title>IterationAST</title>
<!-- Node1 -->
<g id="node1" class="node">
<title>Node1</title>
<g id="a_node1"><a xlink:title="Узел, представляющий заголовок цикла for.">
<polygon fill="#bfbfbf" stroke="black" points="0,-0.5 0,-19.5 71,-19.5 71,-0.5 0,-0.5"/>
<text text-anchor="middle" x="35.5" y="-7.5" font-family="Helvetica,sans-Serif" font-size="10.00">IterationAST</text>
</a>
</g>
</g>
<!-- Node2 -->
<g id="node2" class="node">
<title>Node2</title>
<g id="a_node2"><a xlink:href="../../d3/d96/class_i_a_s_t.html" target="_top" xlink:title="Базовый класс узлов абстрактного синтаксического дерева">
<polygon fill="none" stroke="black" points="16,-57.5 16,-76.5 55,-76.5 55,-57.5 16,-57.5"/>
<text text-anchor="middle" x="35.5" y="-64.5" font-family="Helvetica,sans-Serif" font-size="10.00">IAST</text>
</a>
</g>
</g>
<!-- Node2&#45;&gt;Node1 -->
<g id="edge1" class="edge">
<title>Node2&#45;&gt;Node1</title>
<path fill="none" stroke="midnightblue" d="M35.5,-47.12C35.5,-37.82 35.5,-27.06 35.5,-19.71"/>
<polygon fill="midnightblue" stroke="midnightblue" points="32,-47.41 35.5,-57.41 39,-47.41 32,-47.41"/>
</g>
<!-- Node3 -->
<g id="node3" class="node">
<title>Node3</title>
<g id="a_node3"><a xlink:href="../../db/dc1/class_token.html" target="_top" xlink:title="Класс, представляющий токен">
<polygon fill="none" stroke="black" points="13.5,-124.5 13.5,-143.5 57.5,-143.5 57.5,-124.5 13.5,-124.5"/>
<text text-anchor="middle" x="35.5" y="-131.5" font-family="Helvetica,sans-Serif" font-size="10.00">Token</text>
</a>
</g>
</g>
<!-- Node3&#45;&gt;Node2 -->
<g id="edge2" class="edge">
<title>Node3&#45;&gt;Node2</title>
<path fill="none" stroke="#9a32cd" stroke-dasharray="5,2" d="M35.5,-114.04C35.5,-101.67 35.5,-86.12 35.5,-76.63"/>
<polygon fill="#9a32cd" stroke="#9a32cd" points="32,-114.23 35.5,-124.23 39,-114.23 32,-114.23"/>
<text text-anchor="middle" x="49" y="-98" font-family="Helvetica,sans-Serif" font-size="10.00"> token</text>
</g>
<!-- Node4 -->
<g id="node4" class="node">
<title>Node4</title>
<g id="a_node4"><a xlink:href="../../dd/dfe/class_base_token.html" target="_top" xlink:title="Класс&#45;родитель для классов, работающих с токенами">
<polygon fill="none" stroke="black" points="2.5,-181.5 2.5,-200.5 68.5,-200.5 68.5,-181.5 2.5,-181.5"/>
<text text-anchor="middle" x="35.5" y="-188.5" font-family="Helvetica,sans-Serif" font-size="10.00">BaseToken</text>
</a>
</g>
</g>
<!-- Node4&#45;&gt;Node3 -->
<g id="edge3" class="edge">
<title>Node4&#45;&gt;Node3</title>
<path fill="none" stroke="midnightblue" d="M35.5,-171.12C35.5,-161.82 35.5,-151.06 35.5,-143.71"/>
<polygon fill="midnightblue" stroke="midnightblue" points="32,-171.41 35.5,-181.41 39,-171.41 32,-171.41"/>
</g>
</g>
</svg>
