<?xml version="1.0" encoding="UTF-8" standalone="no"?>
<!DOCTYPE svg PUBLIC "-//W3C//DTD SVG 1.1//EN"
 "http://www.w3.org/Graphics/SVG/1.1/DTD/svg11.dtd">
<!-- Generated by graphviz version 2.43.0 (0)
 -->
<!-- Title: tests Pages: 1 -->
<svg width="322pt" height="132pt"
 viewBox="0.00 0.00 322.00 132.00" xmlns="http://www.w3.org/2000/svg" xmlns:xlink="http://www.w3.org/1999/xlink">
<g id="graph0" class="graph" transform="scale(1 1) rotate(0) translate(4 128)">
<title>tests</title>
<g id="clust1" class="cluster">
<title>clusterdir_59425e443f801f1f2fd8bbe4959a3ccf</title>
<g id="a_clust1"><a xlink:href="dir_59425e443f801f1f2fd8bbe4959a3ccf.html" target="_top">
<polygon fill="#eeeeff" stroke="black" points="8,-64 8,-116 306,-116 306,-64 8,-64"/>
</a>
</g>
</g>
<!-- dir_59425e443f801f1f2fd8bbe4959a3ccf -->
<g id="node1" class="node">
<title>dir_59425e443f801f1f2fd8bbe4959a3ccf</title>
<text text-anchor="middle" x="271" y="-87.5" font-family="Helvetica,sans-Serif" font-size="10.00">tests</text>
</g>
<!-- dir_e76e86613d8ac1b2799a81647db1bf46 -->
<g id="node2" class="node">
<title>dir_e76e86613d8ac1b2799a81647db1bf46</title>
<g id="a_node2"><a xlink:href="dir_e76e86613d8ac1b2799a81647db1bf46.html" target="_top" xlink:title="lexer">
<polygon fill="white" stroke="black" points="226,-108 172,-108 172,-72 226,-72 226,-108"/>
<text text-anchor="middle" x="199" y="-87.5" font-family="Helvetica,sans-Serif" font-size="10.00">lexer</text>
</a>
</g>
</g>
<!-- dir_d44c64559bbebec7f509842c48db8b23 -->
<g id="node5" class="node">
<title>dir_d44c64559bbebec7f509842c48db8b23</title>
<g id="a_node5"><a xlink:href="dir_d44c64559bbebec7f509842c48db8b23.html" target="_top" xlink:title="include">
<polygon fill="none" stroke="black" points="148,-36 94,-36 94,0 148,0 148,-36"/>
<text text-anchor="middle" x="121" y="-15.5" font-family="Helvetica,sans-Serif" font-size="10.00">include</text>
</a>
</g>
</g>
<!-- dir_e76e86613d8ac1b2799a81647db1bf46&#45;&gt;dir_d44c64559bbebec7f509842c48db8b23 -->
<g id="edge1" class="edge">
<title>dir_e76e86613d8ac1b2799a81647db1bf46&#45;&gt;dir_d44c64559bbebec7f509842c48db8b23</title>
<path fill="none" stroke="black" d="M179.72,-71.7C170.08,-63.05 158.27,-52.45 147.77,-43.03"/>
<polygon fill="black" stroke="black" points="149.84,-40.18 140.06,-36.1 145.16,-45.39 149.84,-40.18"/>
<g id="a_edge1&#45;headlabel"><a xlink:href="dir_000010_000006.html" target="_top" xlink:title="5">
<text text-anchor="middle" x="154.41" y="-37.97" font-family="Helvetica,sans-Serif" font-size="10.00">5</text>
</a>
</g>
</g>
<!-- dir_1cf0343446ecc9c1285d6594d51075d7 -->
<g id="node3" class="node">
<title>dir_1cf0343446ecc9c1285d6594d51075d7</title>
<g id="a_node3"><a xlink:href="dir_1cf0343446ecc9c1285d6594d51075d7.html" target="_top" xlink:title="structures">
<polygon fill="white" stroke="black" points="153.5,-108 88.5,-108 88.5,-72 153.5,-72 153.5,-108"/>
<text text-anchor="middle" x="121" y="-87.5" font-family="Helvetica,sans-Serif" font-size="10.00">structures</text>
</a>
</g>
</g>
<!-- dir_1cf0343446ecc9c1285d6594d51075d7&#45;&gt;dir_d44c64559bbebec7f509842c48db8b23 -->
<g id="edge2" class="edge">
<title>dir_1cf0343446ecc9c1285d6594d51075d7&#45;&gt;dir_d44c64559bbebec7f509842c48db8b23</title>
<path fill="none" stroke="black" d="M121,-71.7C121,-63.98 121,-54.71 121,-46.11"/>
<polygon fill="black" stroke="black" points="124.5,-46.1 121,-36.1 117.5,-46.1 124.5,-46.1"/>
<g id="a_edge2&#45;headlabel"><a xlink:href="dir_000011_000006.html" target="_top" xlink:title="3">
<text text-anchor="middle" x="127.34" y="-47.2" font-family="Helvetica,sans-Serif" font-size="10.00">3</text>
</a>
</g>
</g>
<!-- dir_3143bd6d7227c8dd39535296d91ba825 -->
<g id="node4" class="node">
<title>dir_3143bd6d7227c8dd39535296d91ba825</title>
<g id="a_node4"><a xlink:href="dir_3143bd6d7227c8dd39535296d91ba825.html" target="_top" xlink:title="syntax">
<polygon fill="white" stroke="black" points="70,-108 16,-108 16,-72 70,-72 70,-108"/>
<text text-anchor="middle" x="43" y="-87.5" font-family="Helvetica,sans-Serif" font-size="10.00">syntax</text>
</a>
</g>
</g>
<!-- dir_3143bd6d7227c8dd39535296d91ba825&#45;&gt;dir_d44c64559bbebec7f509842c48db8b23 -->
<g id="edge3" class="edge">
<title>dir_3143bd6d7227c8dd39535296d91ba825&#45;&gt;dir_d44c64559bbebec7f509842c48db8b23</title>
<path fill="none" stroke="black" d="M62.28,-71.7C71.92,-63.05 83.73,-52.45 94.23,-43.03"/>
<polygon fill="black" stroke="black" points="96.84,-45.39 101.94,-36.1 92.16,-40.18 96.84,-45.39"/>
<g id="a_edge3&#45;headlabel"><a xlink:href="dir_000012_000006.html" target="_top" xlink:title="5">
<text text-anchor="middle" x="96.06" y="-47.4" font-family="Helvetica,sans-Serif" font-size="10.00">5</text>
</a>
</g>
</g>
</g>
</svg>
