<?xml version="1.0" encoding="UTF-8" standalone="no"?>
<!DOCTYPE svg PUBLIC "-//W3C//DTD SVG 1.1//EN"
 "http://www.w3.org/Graphics/SVG/1.1/DTD/svg11.dtd">
<!-- Generated by graphviz version 3.0.0 (20220413.0106)
 -->
<!-- Title: magic_enum::ostream_operators::operator&lt;&lt; Pages: 1 -->
<svg width="694pt" height="264pt"
 viewBox="0.00 0.00 694.00 263.50" xmlns="http://www.w3.org/2000/svg" xmlns:xlink="http://www.w3.org/1999/xlink">
<g id="graph0" class="graph" transform="scale(1 1) rotate(0) translate(4 259.5)">
<title>magic_enum::ostream_operators::operator&lt;&lt;</title>
<!-- Node1 -->
<g id="node1" class="node">
<title>Node1</title>
<g id="a_node1"><a xlink:title=" ">
<polygon fill="#bfbfbf" stroke="black" points="0,-76.5 0,-106.5 114,-106.5 114,-76.5 0,-76.5"/>
<text text-anchor="start" x="8" y="-94.5" font-family="Helvetica,sans-Serif" font-size="10.00">magic_enum::ostream</text>
<text text-anchor="middle" x="57" y="-83.5" font-family="Helvetica,sans-Serif" font-size="10.00">_operators::operator&lt;&lt;</text>
</a>
</g>
</g>
<!-- Node2 -->
<g id="node2" class="node">
<title>Node2</title>
<g id="a_node2"><a xlink:href="../../dd/d3d/namespacemagic__enum_1_1detail.html#a4179723a67a48dd525fc0985356d3ccc" target="_top" xlink:title=" ">
<polygon fill="none" stroke="black" points="150,-110.5 150,-140.5 250,-140.5 250,-110.5 150,-110.5"/>
<text text-anchor="start" x="158" y="-128.5" font-family="Helvetica,sans-Serif" font-size="10.00">magic_enum::detail</text>
<text text-anchor="middle" x="200" y="-117.5" font-family="Helvetica,sans-Serif" font-size="10.00">::fuse_enum</text>
</a>
</g>
</g>
<!-- Node1&#45;&gt;Node2 -->
<g id="edge1" class="edge">
<title>Node1&#45;&gt;Node2</title>
<path fill="none" stroke="midnightblue" d="M114.13,-105.04C122.63,-107.09 131.42,-109.21 139.98,-111.27"/>
<polygon fill="midnightblue" stroke="midnightblue" points="139.35,-114.72 149.89,-113.66 140.99,-107.91 139.35,-114.72"/>
</g>
<!-- Node7 -->
<g id="node7" class="node">
<title>Node7</title>
<g id="a_node7"><a xlink:href="../../dd/d3d/namespacemagic__enum_1_1detail.html#aacc21653fac819e660bbdb1f8555ec32" target="_top" xlink:title=" ">
<polygon fill="none" stroke="black" points="150,-43.5 150,-73.5 250,-73.5 250,-43.5 150,-43.5"/>
<text text-anchor="start" x="158" y="-61.5" font-family="Helvetica,sans-Serif" font-size="10.00">magic_enum::detail</text>
<text text-anchor="middle" x="200" y="-50.5" font-family="Helvetica,sans-Serif" font-size="10.00">::values</text>
</a>
</g>
</g>
<!-- Node1&#45;&gt;Node7 -->
<g id="edge8" class="edge">
<title>Node1&#45;&gt;Node7</title>
<path fill="none" stroke="midnightblue" d="M114.13,-78.36C122.63,-76.37 131.42,-74.32 139.98,-72.31"/>
<polygon fill="midnightblue" stroke="midnightblue" points="140.95,-75.68 149.89,-69.99 139.36,-68.86 140.95,-75.68"/>
</g>
<!-- Node3 -->
<g id="node3" class="node">
<title>Node3</title>
<g id="a_node3"><a xlink:href="../../dd/d3d/namespacemagic__enum_1_1detail.html#a61ad087c3ddc2f2a03df9e8a262d0f33" target="_top" xlink:title=" ">
<polygon fill="none" stroke="black" points="286,-167.5 286,-197.5 386,-197.5 386,-167.5 286,-167.5"/>
<text text-anchor="start" x="294" y="-185.5" font-family="Helvetica,sans-Serif" font-size="10.00">magic_enum::detail</text>
<text text-anchor="middle" x="336" y="-174.5" font-family="Helvetica,sans-Serif" font-size="10.00">::fuse_one_enum</text>
</a>
</g>
</g>
<!-- Node2&#45;&gt;Node3 -->
<g id="edge2" class="edge">
<title>Node2&#45;&gt;Node3</title>
<path fill="none" stroke="midnightblue" d="M236.56,-140.63C252.91,-147.58 272.5,-155.91 289.88,-163.31"/>
<polygon fill="midnightblue" stroke="midnightblue" points="288.7,-166.61 299.28,-167.3 291.44,-160.17 288.7,-166.61"/>
</g>
<!-- Node6 -->
<g id="node6" class="node">
<title>Node6</title>
<g id="a_node6"><a xlink:href="../../dd/d3d/namespacemagic__enum_1_1detail.html#a8e06754b490522d8ae02cd8983e3fcbf" target="_top" xlink:title=" ">
<polygon fill="none" stroke="black" points="586,-142.5 586,-172.5 686,-172.5 686,-142.5 586,-142.5"/>
<text text-anchor="start" x="594" y="-160.5" font-family="Helvetica,sans-Serif" font-size="10.00">magic_enum::detail</text>
<text text-anchor="middle" x="636" y="-149.5" font-family="Helvetica,sans-Serif" font-size="10.00">::value</text>
</a>
</g>
</g>
<!-- Node2&#45;&gt;Node6 -->
<g id="edge7" class="edge">
<title>Node2&#45;&gt;Node6</title>
<path fill="none" stroke="midnightblue" d="M250.36,-129.14C330.64,-135.06 489.16,-146.75 575.52,-153.11"/>
<polygon fill="midnightblue" stroke="midnightblue" points="575.45,-156.62 585.68,-153.86 575.97,-149.64 575.45,-156.62"/>
</g>
<!-- Node4 -->
<g id="node4" class="node">
<title>Node4</title>
<g id="a_node4"><a xlink:href="../../d2/da7/namespacemagic__enum.html#acd7a26786c1149f4b264ee7c4b22f809" target="_top" xlink:title=" ">
<polygon fill="none" stroke="black" points="422,-236 422,-255 550,-255 550,-236 422,-236"/>
<text text-anchor="middle" x="486" y="-243" font-family="Helvetica,sans-Serif" font-size="10.00">magic_enum::enum_index</text>
</a>
</g>
</g>
<!-- Node3&#45;&gt;Node4 -->
<g id="edge3" class="edge">
<title>Node3&#45;&gt;Node4</title>
<path fill="none" stroke="midnightblue" d="M363.2,-197.67C379.71,-206.82 401.67,-218.26 422,-226.5 427.56,-228.76 433.49,-230.89 439.41,-232.85"/>
<polygon fill="midnightblue" stroke="midnightblue" points="438.69,-236.29 449.28,-235.98 440.81,-229.62 438.69,-236.29"/>
</g>
<!-- Node5 -->
<g id="node5" class="node">
<title>Node5</title>
<g id="a_node5"><a xlink:href="../../dd/d3d/namespacemagic__enum_1_1detail.html#a1f435c2b919eb3622324d94892c8bc0b" target="_top" xlink:title=" ">
<polygon fill="none" stroke="black" points="436,-186.5 436,-216.5 536,-216.5 536,-186.5 436,-186.5"/>
<text text-anchor="start" x="444" y="-204.5" font-family="Helvetica,sans-Serif" font-size="10.00">magic_enum::detail</text>
<text text-anchor="middle" x="486" y="-193.5" font-family="Helvetica,sans-Serif" font-size="10.00">::log2</text>
</a>
</g>
</g>
<!-- Node3&#45;&gt;Node5 -->
<g id="edge4" class="edge">
<title>Node3&#45;&gt;Node5</title>
<path fill="none" stroke="midnightblue" d="M386.28,-188.83C398.89,-190.45 412.58,-192.2 425.63,-193.88"/>
<polygon fill="midnightblue" stroke="midnightblue" points="425.57,-197.4 435.93,-195.2 426.46,-190.46 425.57,-197.4"/>
</g>
<!-- Node3&#45;&gt;Node6 -->
<g id="edge6" class="edge">
<title>Node3&#45;&gt;Node6</title>
<path fill="none" stroke="midnightblue" d="M386.21,-178.37C438.19,-174.01 520.15,-167.13 575.67,-162.48"/>
<polygon fill="midnightblue" stroke="midnightblue" points="576.05,-165.96 585.72,-161.63 575.46,-158.98 576.05,-165.96"/>
</g>
<!-- Node5&#45;&gt;Node6 -->
<g id="edge5" class="edge">
<title>Node5&#45;&gt;Node6</title>
<path fill="none" stroke="midnightblue" d="M536.28,-186.85C549.01,-183.06 562.85,-178.95 576.02,-175.03"/>
<polygon fill="midnightblue" stroke="midnightblue" points="577.35,-178.29 585.93,-172.09 575.35,-171.58 577.35,-178.29"/>
</g>
<!-- Node7&#45;&gt;Node7 -->
<g id="edge10" class="edge">
<title>Node7&#45;&gt;Node7</title>
<path fill="none" stroke="midnightblue" d="M176.3,-73.66C170.58,-83.06 178.48,-92 200,-92 213.11,-92 221.17,-88.68 224.17,-83.96"/>
<polygon fill="midnightblue" stroke="midnightblue" points="227.65,-83.49 223.7,-73.66 220.66,-83.81 227.65,-83.49"/>
</g>
<!-- Node8 -->
<g id="node8" class="node">
<title>Node8</title>
<g id="a_node8"><a xlink:href="../../dd/d3d/namespacemagic__enum_1_1detail.html#a3bf80cb62e79081aa08b426fe582eb6b" target="_top" xlink:title=" ">
<polygon fill="none" stroke="black" points="286,-49.5 286,-79.5 386,-79.5 386,-49.5 286,-49.5"/>
<text text-anchor="start" x="294" y="-67.5" font-family="Helvetica,sans-Serif" font-size="10.00">magic_enum::detail</text>
<text text-anchor="middle" x="336" y="-56.5" font-family="Helvetica,sans-Serif" font-size="10.00">::to_array</text>
</a>
</g>
</g>
<!-- Node7&#45;&gt;Node8 -->
<g id="edge9" class="edge">
<title>Node7&#45;&gt;Node8</title>
<path fill="none" stroke="midnightblue" d="M250.14,-60.7C258.42,-61.07 267.1,-61.46 275.61,-61.84"/>
<polygon fill="midnightblue" stroke="midnightblue" points="275.72,-65.35 285.87,-62.3 276.04,-58.36 275.72,-65.35"/>
</g>
<!-- Node9 -->
<g id="node9" class="node">
<title>Node9</title>
<g id="a_node9"><a xlink:href="../../dd/d3d/namespacemagic__enum_1_1detail.html#a74bee2df0066e1c05336b63d693345f8" target="_top" xlink:title=" ">
<polygon fill="none" stroke="black" points="286,-0.5 286,-30.5 386,-30.5 386,-0.5 286,-0.5"/>
<text text-anchor="start" x="294" y="-18.5" font-family="Helvetica,sans-Serif" font-size="10.00">magic_enum::detail</text>
<text text-anchor="middle" x="336" y="-7.5" font-family="Helvetica,sans-Serif" font-size="10.00">::values_count</text>
</a>
</g>
</g>
<!-- Node7&#45;&gt;Node9 -->
<g id="edge11" class="edge">
<title>Node7&#45;&gt;Node9</title>
<path fill="none" stroke="midnightblue" d="M247.87,-43.46C257.7,-40.3 268.18,-36.94 278.33,-33.68"/>
<polygon fill="midnightblue" stroke="midnightblue" points="279.48,-36.99 287.93,-30.6 277.34,-30.33 279.48,-36.99"/>
</g>
</g>
</svg>
