<?xml version="1.0" encoding="UTF-8" standalone="no"?>
<!DOCTYPE svg PUBLIC "-//W3C//DTD SVG 1.1//EN"
 "http://www.w3.org/Graphics/SVG/1.1/DTD/svg11.dtd">
<!-- Generated by graphviz version 3.0.0 (20220413.0106)
 -->
<!-- Title: include/ASTFactory.hpp Pages: 1 -->
<svg width="480pt" height="252pt"
 viewBox="0.00 0.00 480.00 252.00" xmlns="http://www.w3.org/2000/svg" xmlns:xlink="http://www.w3.org/1999/xlink">
<g id="graph0" class="graph" transform="scale(1 1) rotate(0) translate(4 248)">
<title>include/ASTFactory.hpp</title>
<!-- Node1 -->
<g id="node1" class="node">
<title>Node1</title>
<g id="a_node1"><a xlink:title=" ">
<polygon fill="#bfbfbf" stroke="black" points="66,-224.5 66,-243.5 186,-243.5 186,-224.5 66,-224.5"/>
<text text-anchor="middle" x="126" y="-231.5" font-family="Helvetica,sans-Serif" font-size="10.00">include/ASTFactory.hpp</text>
</a>
</g>
</g>
<!-- Node2 -->
<g id="node2" class="node">
<title>Node2</title>
<g id="a_node2"><a xlink:href="../../d4/dcb/_a_s_t_8hpp.html" target="_top" xlink:title=" ">
<polygon fill="none" stroke="black" points="195,-168.5 195,-187.5 249,-187.5 249,-168.5 195,-168.5"/>
<text text-anchor="middle" x="222" y="-175.5" font-family="Helvetica,sans-Serif" font-size="10.00">AST.hpp</text>
</a>
</g>
</g>
<!-- Node1&#45;&gt;Node2 -->
<g id="edge1" class="edge">
<title>Node1&#45;&gt;Node2</title>
<path fill="none" stroke="midnightblue" d="M141.42,-224.32C156.54,-215.82 179.82,-202.73 197.47,-192.8"/>
<polygon fill="midnightblue" stroke="midnightblue" points="199.61,-195.61 206.61,-187.65 196.18,-189.51 199.61,-195.61"/>
</g>
<!-- Node5 -->
<g id="node5" class="node">
<title>Node5</title>
<g id="a_node5"><a xlink:href="../../de/d32/_token_8hpp.html" target="_top" xlink:title=" ">
<polygon fill="none" stroke="black" points="0,-56.5 0,-75.5 62,-75.5 62,-56.5 0,-56.5"/>
<text text-anchor="middle" x="31" y="-63.5" font-family="Helvetica,sans-Serif" font-size="10.00">Token.hpp</text>
</a>
</g>
</g>
<!-- Node1&#45;&gt;Node5 -->
<g id="edge20" class="edge">
<title>Node1&#45;&gt;Node5</title>
<path fill="none" stroke="midnightblue" d="M120.89,-224.08C105.81,-197.72 61.26,-119.88 41.11,-84.66"/>
<polygon fill="midnightblue" stroke="midnightblue" points="43.91,-82.51 35.9,-75.57 37.83,-85.99 43.91,-82.51"/>
</g>
<!-- Node3 -->
<g id="node3" class="node">
<title>Node3</title>
<g id="a_node3"><a xlink:title=" ">
<polygon fill="none" stroke="#bfbfbf" points="428,-0.5 428,-19.5 472,-19.5 472,-0.5 428,-0.5"/>
<text text-anchor="middle" x="450" y="-7.5" font-family="Helvetica,sans-Serif" font-size="10.00">vector</text>
</a>
</g>
</g>
<!-- Node2&#45;&gt;Node3 -->
<g id="edge2" class="edge">
<title>Node2&#45;&gt;Node3</title>
<path fill="none" stroke="midnightblue" d="M249.24,-172.81C296.38,-164.03 392.62,-139.01 440,-76 449.96,-62.75 451.84,-43.62 451.6,-29.55"/>
<polygon fill="midnightblue" stroke="midnightblue" points="455.1,-29.35 451.07,-19.55 448.11,-29.72 455.1,-29.35"/>
</g>
<!-- Node4 -->
<g id="node4" class="node">
<title>Node4</title>
<g id="a_node4"><a xlink:title=" ">
<polygon fill="none" stroke="#bfbfbf" points="83.5,-112.5 83.5,-131.5 134.5,-131.5 134.5,-112.5 83.5,-112.5"/>
<text text-anchor="middle" x="109" y="-119.5" font-family="Helvetica,sans-Serif" font-size="10.00">memory</text>
</a>
</g>
</g>
<!-- Node2&#45;&gt;Node4 -->
<g id="edge3" class="edge">
<title>Node2&#45;&gt;Node4</title>
<path fill="none" stroke="midnightblue" d="M204.09,-168.44C185.75,-159.68 156.99,-145.94 135.91,-135.86"/>
<polygon fill="midnightblue" stroke="midnightblue" points="137.35,-132.67 126.82,-131.52 134.33,-138.99 137.35,-132.67"/>
</g>
<!-- Node2&#45;&gt;Node5 -->
<g id="edge4" class="edge">
<title>Node2&#45;&gt;Node5</title>
<path fill="none" stroke="midnightblue" d="M213.57,-168.4C199.97,-154.91 171.87,-128.59 144,-112 120.45,-97.98 91.73,-86.61 69.14,-78.81"/>
<polygon fill="midnightblue" stroke="midnightblue" points="70.14,-75.45 59.55,-75.58 67.91,-82.09 70.14,-75.45"/>
</g>
<!-- Node8 -->
<g id="node8" class="node">
<title>Node8</title>
<g id="a_node8"><a xlink:href="../../db/d42/_visitor_8hpp.html" target="_top" xlink:title=" ">
<polygon fill="none" stroke="black" points="191,-112.5 191,-131.5 253,-131.5 253,-112.5 191,-112.5"/>
<text text-anchor="middle" x="222" y="-119.5" font-family="Helvetica,sans-Serif" font-size="10.00">Visitor.hpp</text>
</a>
</g>
</g>
<!-- Node2&#45;&gt;Node8 -->
<g id="edge7" class="edge">
<title>Node2&#45;&gt;Node8</title>
<path fill="none" stroke="midnightblue" d="M216.83,-168.08C215.32,-160.93 214.89,-150.64 215.54,-141.69"/>
<polygon fill="midnightblue" stroke="midnightblue" points="219.02,-142.13 216.87,-131.75 212.08,-141.2 219.02,-142.13"/>
</g>
<!-- Node15 -->
<g id="node15" class="node">
<title>Node15</title>
<g id="a_node15"><a xlink:href="../../d8/de6/_a_s_tclasses_8hpp.html" target="_top" xlink:title=" ">
<polygon fill="none" stroke="black" points="343,-56.5 343,-75.5 431,-75.5 431,-56.5 343,-56.5"/>
<text text-anchor="middle" x="387" y="-63.5" font-family="Helvetica,sans-Serif" font-size="10.00">ASTclasses.hpp</text>
</a>
</g>
</g>
<!-- Node2&#45;&gt;Node15 -->
<g id="edge19" class="edge">
<title>Node2&#45;&gt;Node15</title>
<path fill="none" stroke="midnightblue" d="M234.95,-168.37C263.26,-149.49 330.92,-104.38 365.64,-81.24"/>
<polygon fill="midnightblue" stroke="midnightblue" points="367.73,-84.05 374.11,-75.59 363.85,-78.23 367.73,-84.05"/>
</g>
<!-- Node6 -->
<g id="node6" class="node">
<title>Node6</title>
<g id="a_node6"><a xlink:title=" ">
<polygon fill="none" stroke="#bfbfbf" points="110.5,-0.5 110.5,-19.5 151.5,-19.5 151.5,-0.5 110.5,-0.5"/>
<text text-anchor="middle" x="131" y="-7.5" font-family="Helvetica,sans-Serif" font-size="10.00">string</text>
</a>
</g>
</g>
<!-- Node5&#45;&gt;Node6 -->
<g id="edge5" class="edge">
<title>Node5&#45;&gt;Node6</title>
<path fill="none" stroke="midnightblue" d="M47.07,-56.32C62.96,-47.74 87.51,-34.49 105.96,-24.52"/>
<polygon fill="midnightblue" stroke="midnightblue" points="107.84,-27.49 114.97,-19.65 104.51,-21.33 107.84,-27.49"/>
</g>
<!-- Node7 -->
<g id="node7" class="node">
<title>Node7</title>
<g id="a_node7"><a xlink:title=" ">
<polygon fill="none" stroke="#bfbfbf" points="11,-0.5 11,-19.5 51,-19.5 51,-0.5 11,-0.5"/>
<text text-anchor="middle" x="31" y="-7.5" font-family="Helvetica,sans-Serif" font-size="10.00">regex</text>
</a>
</g>
</g>
<!-- Node5&#45;&gt;Node7 -->
<g id="edge6" class="edge">
<title>Node5&#45;&gt;Node7</title>
<path fill="none" stroke="midnightblue" d="M31,-56.08C31,-49.01 31,-38.86 31,-29.99"/>
<polygon fill="midnightblue" stroke="midnightblue" points="34.5,-29.75 31,-19.75 27.5,-29.75 34.5,-29.75"/>
</g>
<!-- Node8&#45;&gt;Node2 -->
<g id="edge17" class="edge">
<title>Node8&#45;&gt;Node2</title>
<path fill="none" stroke="midnightblue" d="M227.13,-131.75C228.66,-138.86 229.1,-149.14 228.47,-158.1"/>
<polygon fill="midnightblue" stroke="midnightblue" points="224.99,-157.71 227.17,-168.08 231.93,-158.62 224.99,-157.71"/>
</g>
<!-- Node8&#45;&gt;Node5 -->
<g id="edge11" class="edge">
<title>Node8&#45;&gt;Node5</title>
<path fill="none" stroke="midnightblue" d="M191.74,-112.44C159.04,-103.2 106.82,-88.44 70.82,-78.26"/>
<polygon fill="midnightblue" stroke="midnightblue" points="71.7,-74.87 61.12,-75.52 69.79,-81.61 71.7,-74.87"/>
</g>
<!-- Node8&#45;&gt;Node6 -->
<g id="edge9" class="edge">
<title>Node8&#45;&gt;Node6</title>
<path fill="none" stroke="midnightblue" d="M225.78,-112.2C230.86,-98.9 238.05,-73.38 227,-56 212.76,-33.6 184.12,-22.16 161.8,-16.44"/>
<polygon fill="midnightblue" stroke="midnightblue" points="162.29,-12.96 151.76,-14.13 160.72,-19.78 162.29,-12.96"/>
</g>
<!-- Node9 -->
<g id="node9" class="node">
<title>Node9</title>
<g id="a_node9"><a xlink:title=" ">
<polygon fill="none" stroke="#bfbfbf" points="80,-56.5 80,-75.5 130,-75.5 130,-56.5 80,-56.5"/>
<text text-anchor="middle" x="105" y="-63.5" font-family="Helvetica,sans-Serif" font-size="10.00">fstream</text>
</a>
</g>
</g>
<!-- Node8&#45;&gt;Node9 -->
<g id="edge8" class="edge">
<title>Node8&#45;&gt;Node9</title>
<path fill="none" stroke="midnightblue" d="M203.46,-112.44C184.38,-103.64 154.43,-89.81 132.56,-79.72"/>
<polygon fill="midnightblue" stroke="midnightblue" points="134,-76.53 123.45,-75.52 131.07,-82.88 134,-76.53"/>
</g>
<!-- Node10 -->
<g id="node10" class="node">
<title>Node10</title>
<g id="a_node10"><a xlink:title=" ">
<polygon fill="none" stroke="#bfbfbf" points="148.5,-56.5 148.5,-75.5 217.5,-75.5 217.5,-56.5 148.5,-56.5"/>
<text text-anchor="middle" x="183" y="-63.5" font-family="Helvetica,sans-Serif" font-size="10.00">fmt/format.h</text>
</a>
</g>
</g>
<!-- Node8&#45;&gt;Node10 -->
<g id="edge10" class="edge">
<title>Node8&#45;&gt;Node10</title>
<path fill="none" stroke="midnightblue" d="M215.56,-112.08C210.05,-104.46 201.97,-93.26 195.24,-83.94"/>
<polygon fill="midnightblue" stroke="midnightblue" points="198.01,-81.81 189.32,-75.75 192.34,-85.91 198.01,-81.81"/>
</g>
<!-- Node11 -->
<g id="node11" class="node">
<title>Node11</title>
<g id="a_node11"><a xlink:href="../../d5/df9/_list_8cpp.html" target="_top" xlink:title="Двусвязный список">
<polygon fill="none" stroke="black" points="274.5,-56.5 274.5,-75.5 325.5,-75.5 325.5,-56.5 274.5,-56.5"/>
<text text-anchor="middle" x="300" y="-63.5" font-family="Helvetica,sans-Serif" font-size="10.00">List.cpp</text>
</a>
</g>
</g>
<!-- Node8&#45;&gt;Node11 -->
<g id="edge12" class="edge">
<title>Node8&#45;&gt;Node11</title>
<path fill="none" stroke="midnightblue" d="M234.53,-112.32C246.59,-103.98 265.03,-91.21 279.27,-81.35"/>
<polygon fill="midnightblue" stroke="midnightblue" points="281.27,-84.22 287.5,-75.65 277.28,-78.47 281.27,-84.22"/>
</g>
<!-- Node8&#45;&gt;Node15 -->
<g id="edge18" class="edge">
<title>Node8&#45;&gt;Node15</title>
<path fill="none" stroke="midnightblue" d="M248.14,-112.44C276.02,-103.32 320.35,-88.81 351.4,-78.65"/>
<polygon fill="midnightblue" stroke="midnightblue" points="352.56,-81.95 360.98,-75.52 350.38,-75.3 352.56,-81.95"/>
</g>
<!-- Node11&#45;&gt;Node3 -->
<g id="edge14" class="edge">
<title>Node11&#45;&gt;Node3</title>
<path fill="none" stroke="midnightblue" d="M323.77,-56.44C349.34,-47.24 390.12,-32.56 418.38,-22.38"/>
<polygon fill="midnightblue" stroke="midnightblue" points="419.59,-25.67 427.81,-18.99 417.22,-19.08 419.59,-25.67"/>
</g>
<!-- Node12 -->
<g id="node12" class="node">
<title>Node12</title>
<g id="a_node12"><a xlink:title=" ">
<polygon fill="none" stroke="#bfbfbf" points="275.5,-0.5 275.5,-19.5 324.5,-19.5 324.5,-0.5 275.5,-0.5"/>
<text text-anchor="middle" x="300" y="-7.5" font-family="Helvetica,sans-Serif" font-size="10.00">cstddef</text>
</a>
</g>
</g>
<!-- Node11&#45;&gt;Node12 -->
<g id="edge13" class="edge">
<title>Node11&#45;&gt;Node12</title>
<path fill="none" stroke="midnightblue" d="M300,-56.08C300,-49.01 300,-38.86 300,-29.99"/>
<polygon fill="midnightblue" stroke="midnightblue" points="303.5,-29.75 300,-19.75 296.5,-29.75 303.5,-29.75"/>
</g>
<!-- Node13 -->
<g id="node13" class="node">
<title>Node13</title>
<g id="a_node13"><a xlink:title=" ">
<polygon fill="none" stroke="#bfbfbf" points="342.5,-0.5 342.5,-19.5 401.5,-19.5 401.5,-0.5 342.5,-0.5"/>
<text text-anchor="middle" x="372" y="-7.5" font-family="Helvetica,sans-Serif" font-size="10.00">stdexcept</text>
</a>
</g>
</g>
<!-- Node11&#45;&gt;Node13 -->
<g id="edge15" class="edge">
<title>Node11&#45;&gt;Node13</title>
<path fill="none" stroke="midnightblue" d="M311.57,-56.32C322.42,-48.18 338.88,-35.84 351.88,-26.09"/>
<polygon fill="midnightblue" stroke="midnightblue" points="354.32,-28.63 360.22,-19.83 350.12,-23.03 354.32,-28.63"/>
</g>
<!-- Node14 -->
<g id="node14" class="node">
<title>Node14</title>
<g id="a_node14"><a xlink:title=" ">
<polygon fill="none" stroke="#bfbfbf" points="210.5,-0.5 210.5,-19.5 257.5,-19.5 257.5,-0.5 210.5,-0.5"/>
<text text-anchor="middle" x="234" y="-7.5" font-family="Helvetica,sans-Serif" font-size="10.00">iterator</text>
</a>
</g>
</g>
<!-- Node11&#45;&gt;Node14 -->
<g id="edge16" class="edge">
<title>Node11&#45;&gt;Node14</title>
<path fill="none" stroke="midnightblue" d="M289.4,-56.32C279.54,-48.26 264.65,-36.08 252.78,-26.37"/>
<polygon fill="midnightblue" stroke="midnightblue" points="254.75,-23.46 244.8,-19.83 250.32,-28.88 254.75,-23.46"/>
</g>
</g>
</svg>
