<?xml version="1.0" encoding="UTF-8" standalone="no"?>
<!DOCTYPE svg PUBLIC "-//W3C//DTD SVG 1.1//EN"
 "http://www.w3.org/Graphics/SVG/1.1/DTD/svg11.dtd">
<!-- Generated by graphviz version 3.0.0 (20220413.0106)
 -->
<!-- Title: graphDraw.cpp Pages: 1 -->
<svg width="995pt" height="420pt"
 viewBox="0.00 0.00 995.20 420.00" xmlns="http://www.w3.org/2000/svg" xmlns:xlink="http://www.w3.org/1999/xlink">
<g id="graph0" class="graph" transform="scale(1 1) rotate(0) translate(4 416)">
<title>graphDraw.cpp</title>
<!-- Node1 -->
<g id="node1" class="node">
<title>Node1</title>
<g id="a_node1"><a xlink:title=" ">
<polygon fill="#bfbfbf" stroke="black" points="404.5,-392.5 404.5,-411.5 485.5,-411.5 485.5,-392.5 404.5,-392.5"/>
<text text-anchor="middle" x="445" y="-399.5" font-family="Helvetica,sans-Serif" font-size="10.00">graphDraw.cpp</text>
</a>
</g>
</g>
<!-- Node2 -->
<g id="node2" class="node">
<title>Node2</title>
<g id="a_node2"><a xlink:title=" ">
<polygon fill="none" stroke="#bfbfbf" points="379,-336.5 379,-355.5 433,-355.5 433,-336.5 379,-336.5"/>
<text text-anchor="middle" x="406" y="-343.5" font-family="Helvetica,sans-Serif" font-size="10.00">iostream</text>
</a>
</g>
</g>
<!-- Node1&#45;&gt;Node2 -->
<g id="edge1" class="edge">
<title>Node1&#45;&gt;Node2</title>
<path fill="none" stroke="midnightblue" d="M438.56,-392.08C433.05,-384.46 424.97,-373.26 418.24,-363.94"/>
<polygon fill="midnightblue" stroke="midnightblue" points="421.01,-361.81 412.32,-355.75 415.34,-365.91 421.01,-361.81"/>
</g>
<!-- Node3 -->
<g id="node3" class="node">
<title>Node3</title>
<g id="a_node3"><a xlink:href="../../d0/d7c/_analyze_8hpp.html" target="_top" xlink:title="Функции анализа кода на языке Pascal.">
<polygon fill="none" stroke="black" points="451,-336.5 451,-355.5 519,-355.5 519,-336.5 451,-336.5"/>
<text text-anchor="middle" x="485" y="-343.5" font-family="Helvetica,sans-Serif" font-size="10.00">Analyze.hpp</text>
</a>
</g>
</g>
<!-- Node1&#45;&gt;Node3 -->
<g id="edge2" class="edge">
<title>Node1&#45;&gt;Node3</title>
<path fill="none" stroke="midnightblue" d="M451.61,-392.08C457.26,-384.46 465.54,-373.26 472.45,-363.94"/>
<polygon fill="midnightblue" stroke="midnightblue" points="475.38,-365.87 478.52,-355.75 469.75,-361.7 475.38,-365.87"/>
</g>
<!-- Node4 -->
<g id="node4" class="node">
<title>Node4</title>
<g id="a_node4"><a xlink:title=" ">
<polygon fill="none" stroke="#bfbfbf" points="74.5,-0.5 74.5,-19.5 115.5,-19.5 115.5,-0.5 74.5,-0.5"/>
<text text-anchor="middle" x="95" y="-7.5" font-family="Helvetica,sans-Serif" font-size="10.00">string</text>
</a>
</g>
</g>
<!-- Node3&#45;&gt;Node4 -->
<g id="edge3" class="edge">
<title>Node3&#45;&gt;Node4</title>
<path fill="none" stroke="midnightblue" d="M450.74,-337.8C447.78,-337.19 444.84,-336.58 442,-336 343.28,-315.85 0,-335.75 0,-235 0,-235 0,-235 0,-121 0,-77.74 42.61,-43.09 70.75,-24.91"/>
<polygon fill="midnightblue" stroke="midnightblue" points="72.66,-27.85 79.31,-19.6 68.97,-21.9 72.66,-27.85"/>
</g>
<!-- Node5 -->
<g id="node5" class="node">
<title>Node5</title>
<g id="a_node5"><a xlink:title=" ">
<polygon fill="none" stroke="#bfbfbf" points="913,-112.5 913,-131.5 957,-131.5 957,-112.5 913,-112.5"/>
<text text-anchor="middle" x="935" y="-119.5" font-family="Helvetica,sans-Serif" font-size="10.00">vector</text>
</a>
</g>
</g>
<!-- Node3&#45;&gt;Node5 -->
<g id="edge4" class="edge">
<title>Node3&#45;&gt;Node5</title>
<path fill="none" stroke="midnightblue" d="M519.1,-341.04C585.95,-332.13 737.38,-306.19 848,-244 884.26,-223.61 901.04,-223.33 923,-188 931.61,-174.14 934.36,-155.63 935.1,-141.9"/>
<polygon fill="midnightblue" stroke="midnightblue" points="938.6,-141.78 935.33,-131.71 931.61,-141.62 938.6,-141.78"/>
</g>
<!-- Node6 -->
<g id="node6" class="node">
<title>Node6</title>
<g id="a_node6"><a xlink:href="../../dc/d72/_list_8hpp.html" target="_top" xlink:title=" ">
<polygon fill="none" stroke="black" points="459.5,-168.5 459.5,-187.5 510.5,-187.5 510.5,-168.5 459.5,-168.5"/>
<text text-anchor="middle" x="485" y="-175.5" font-family="Helvetica,sans-Serif" font-size="10.00">List.hpp</text>
</a>
</g>
</g>
<!-- Node3&#45;&gt;Node6 -->
<g id="edge5" class="edge">
<title>Node3&#45;&gt;Node6</title>
<path fill="none" stroke="midnightblue" d="M485,-336.08C485,-309.95 485,-233.21 485,-197.58"/>
<polygon fill="midnightblue" stroke="midnightblue" points="488.5,-197.57 485,-187.57 481.5,-197.57 488.5,-197.57"/>
</g>
<!-- Node12 -->
<g id="node12" class="node">
<title>Node12</title>
<g id="a_node12"><a xlink:href="../../d5/d24/_lexer_8hpp.html" target="_top" xlink:title="Лексер">
<polygon fill="none" stroke="black" points="140.5,-224.5 140.5,-243.5 199.5,-243.5 199.5,-224.5 140.5,-224.5"/>
<text text-anchor="middle" x="170" y="-231.5" font-family="Helvetica,sans-Serif" font-size="10.00">Lexer.hpp</text>
</a>
</g>
</g>
<!-- Node3&#45;&gt;Node12 -->
<g id="edge12" class="edge">
<title>Node3&#45;&gt;Node12</title>
<path fill="none" stroke="midnightblue" d="M450.95,-336.89C408.22,-326.59 337.44,-309.05 312,-300 269.96,-285.04 223.28,-262.45 195.3,-248.22"/>
<polygon fill="midnightblue" stroke="midnightblue" points="196.72,-245.01 186.23,-243.56 193.53,-251.24 196.72,-245.01"/>
</g>
<!-- Node16 -->
<g id="node16" class="node">
<title>Node16</title>
<g id="a_node16"><a xlink:href="../../df/d3f/_syntax_8hpp.html" target="_top" xlink:title="Синтаксический анализатор">
<polygon fill="none" stroke="black" points="737,-224.5 737,-243.5 801,-243.5 801,-224.5 737,-224.5"/>
<text text-anchor="middle" x="769" y="-231.5" font-family="Helvetica,sans-Serif" font-size="10.00">Syntax.hpp</text>
</a>
</g>
</g>
<!-- Node3&#45;&gt;Node16 -->
<g id="edge19" class="edge">
<title>Node3&#45;&gt;Node16</title>
<path fill="none" stroke="midnightblue" d="M519.07,-341.15C558.67,-335.75 625.33,-323.81 678,-300 706.28,-287.21 734.72,-265.05 752.1,-250.21"/>
<polygon fill="midnightblue" stroke="midnightblue" points="754.46,-252.8 759.69,-243.58 749.85,-247.52 754.46,-252.8"/>
</g>
<!-- Node19 -->
<g id="node19" class="node">
<title>Node19</title>
<g id="a_node19"><a xlink:href="../../da/dbf/_synt_exp_8hpp.html" target="_top" xlink:title="Исключения анализатора">
<polygon fill="none" stroke="black" points="251,-168.5 251,-187.5 321,-187.5 321,-168.5 251,-168.5"/>
<text text-anchor="middle" x="286" y="-175.5" font-family="Helvetica,sans-Serif" font-size="10.00">SyntExp.hpp</text>
</a>
</g>
</g>
<!-- Node3&#45;&gt;Node19 -->
<g id="edge26" class="edge">
<title>Node3&#45;&gt;Node19</title>
<path fill="none" stroke="midnightblue" d="M474.58,-336.31C442.48,-309.53 344.78,-228.03 304.09,-194.09"/>
<polygon fill="midnightblue" stroke="midnightblue" points="306.24,-191.32 296.32,-187.61 301.75,-196.7 306.24,-191.32"/>
</g>
<!-- Node20 -->
<g id="node20" class="node">
<title>Node20</title>
<g id="a_node20"><a xlink:href="../../d4/dcb/_a_s_t_8hpp.html" target="_top" xlink:title="Узлы ДАС">
<polygon fill="none" stroke="black" points="674,-168.5 674,-187.5 728,-187.5 728,-168.5 674,-168.5"/>
<text text-anchor="middle" x="701" y="-175.5" font-family="Helvetica,sans-Serif" font-size="10.00">AST.hpp</text>
</a>
</g>
</g>
<!-- Node3&#45;&gt;Node20 -->
<g id="edge30" class="edge">
<title>Node3&#45;&gt;Node20</title>
<path fill="none" stroke="midnightblue" d="M519.17,-338.68C546.36,-332.37 584.3,-320.57 612,-300 649.89,-271.87 678.69,-223.04 692.31,-196.84"/>
<polygon fill="midnightblue" stroke="midnightblue" points="695.54,-198.2 696.92,-187.7 689.29,-195.05 695.54,-198.2"/>
</g>
<!-- Node22 -->
<g id="node22" class="node">
<title>Node22</title>
<g id="a_node22"><a xlink:href="../../db/dfd/_pascal_rules_8hpp.html" target="_top" xlink:title="Правила языка Паскаль">
<polygon fill="none" stroke="black" points="513.5,-280.5 513.5,-299.5 602.5,-299.5 602.5,-280.5 513.5,-280.5"/>
<text text-anchor="middle" x="558" y="-287.5" font-family="Helvetica,sans-Serif" font-size="10.00">PascalRules.hpp</text>
</a>
</g>
</g>
<!-- Node3&#45;&gt;Node22 -->
<g id="edge35" class="edge">
<title>Node3&#45;&gt;Node22</title>
<path fill="none" stroke="midnightblue" d="M496.73,-336.32C507.84,-328.11 524.74,-315.6 537.98,-305.81"/>
<polygon fill="midnightblue" stroke="midnightblue" points="540.1,-308.59 546.06,-299.83 535.94,-302.97 540.1,-308.59"/>
</g>
<!-- Node23 -->
<g id="node23" class="node">
<title>Node23</title>
<g id="a_node23"><a xlink:href="../../db/d42/_visitor_8hpp.html" target="_top" xlink:title="Посетители для обхода ДАС">
<polygon fill="none" stroke="black" points="395,-224.5 395,-243.5 457,-243.5 457,-224.5 395,-224.5"/>
<text text-anchor="middle" x="426" y="-231.5" font-family="Helvetica,sans-Serif" font-size="10.00">Visitor.hpp</text>
</a>
</g>
</g>
<!-- Node3&#45;&gt;Node23 -->
<g id="edge49" class="edge">
<title>Node3&#45;&gt;Node23</title>
<path fill="none" stroke="midnightblue" d="M480.37,-336.37C470.72,-318.38 448.29,-276.55 435.45,-252.63"/>
<polygon fill="midnightblue" stroke="midnightblue" points="438.42,-250.75 430.61,-243.59 432.25,-254.06 438.42,-250.75"/>
</g>
<!-- Node6&#45;&gt;Node5 -->
<g id="edge8" class="edge">
<title>Node6&#45;&gt;Node5</title>
<path fill="none" stroke="midnightblue" d="M510.81,-173.9C588.09,-164.63 817.53,-137.1 902.7,-126.88"/>
<polygon fill="midnightblue" stroke="midnightblue" points="903.3,-130.33 912.82,-125.66 902.47,-123.38 903.3,-130.33"/>
</g>
<!-- Node7 -->
<g id="node7" class="node">
<title>Node7</title>
<g id="a_node7"><a xlink:title=" ">
<polygon fill="none" stroke="#bfbfbf" points="372.5,-112.5 372.5,-131.5 421.5,-131.5 421.5,-112.5 372.5,-112.5"/>
<text text-anchor="middle" x="397" y="-119.5" font-family="Helvetica,sans-Serif" font-size="10.00">cstddef</text>
</a>
</g>
</g>
<!-- Node6&#45;&gt;Node7 -->
<g id="edge6" class="edge">
<title>Node6&#45;&gt;Node7</title>
<path fill="none" stroke="midnightblue" d="M470.86,-168.32C457.13,-159.9 436.06,-146.97 419.94,-137.07"/>
<polygon fill="midnightblue" stroke="midnightblue" points="421.46,-133.9 411.1,-131.65 417.8,-139.87 421.46,-133.9"/>
</g>
<!-- Node8 -->
<g id="node8" class="node">
<title>Node8</title>
<g id="a_node8"><a xlink:title=" ">
<polygon fill="none" stroke="#bfbfbf" points="440,-112.5 440,-131.5 512,-131.5 512,-112.5 440,-112.5"/>
<text text-anchor="middle" x="476" y="-119.5" font-family="Helvetica,sans-Serif" font-size="10.00">initializer_list</text>
</a>
</g>
</g>
<!-- Node6&#45;&gt;Node8 -->
<g id="edge7" class="edge">
<title>Node6&#45;&gt;Node8</title>
<path fill="none" stroke="midnightblue" d="M483.51,-168.08C482.32,-160.93 480.61,-150.64 479.12,-141.69"/>
<polygon fill="midnightblue" stroke="midnightblue" points="482.55,-141.04 477.46,-131.75 475.65,-142.19 482.55,-141.04"/>
</g>
<!-- Node9 -->
<g id="node9" class="node">
<title>Node9</title>
<g id="a_node9"><a xlink:title=" ">
<polygon fill="none" stroke="#bfbfbf" points="256.5,-112.5 256.5,-131.5 315.5,-131.5 315.5,-112.5 256.5,-112.5"/>
<text text-anchor="middle" x="286" y="-119.5" font-family="Helvetica,sans-Serif" font-size="10.00">stdexcept</text>
</a>
</g>
</g>
<!-- Node6&#45;&gt;Node9 -->
<g id="edge9" class="edge">
<title>Node6&#45;&gt;Node9</title>
<path fill="none" stroke="midnightblue" d="M459.39,-170.05C425.5,-160.85 365.39,-144.54 325.62,-133.75"/>
<polygon fill="midnightblue" stroke="midnightblue" points="326.29,-130.31 315.72,-131.07 324.46,-137.06 326.29,-130.31"/>
</g>
<!-- Node10 -->
<g id="node10" class="node">
<title>Node10</title>
<g id="a_node10"><a xlink:title=" ">
<polygon fill="none" stroke="#bfbfbf" points="530.5,-112.5 530.5,-131.5 577.5,-131.5 577.5,-112.5 530.5,-112.5"/>
<text text-anchor="middle" x="554" y="-119.5" font-family="Helvetica,sans-Serif" font-size="10.00">iterator</text>
</a>
</g>
</g>
<!-- Node6&#45;&gt;Node10 -->
<g id="edge10" class="edge">
<title>Node6&#45;&gt;Node10</title>
<path fill="none" stroke="midnightblue" d="M496.09,-168.32C506.49,-160.18 522.26,-147.84 534.72,-138.09"/>
<polygon fill="midnightblue" stroke="midnightblue" points="536.99,-140.75 542.71,-131.83 532.68,-135.24 536.99,-140.75"/>
</g>
<!-- Node11 -->
<g id="node11" class="node">
<title>Node11</title>
<g id="a_node11"><a xlink:title=" ">
<polygon fill="none" stroke="#bfbfbf" points="595.5,-112.5 595.5,-131.5 644.5,-131.5 644.5,-112.5 595.5,-112.5"/>
<text text-anchor="middle" x="620" y="-119.5" font-family="Helvetica,sans-Serif" font-size="10.00">List.tpp</text>
</a>
</g>
</g>
<!-- Node6&#45;&gt;Node11 -->
<g id="edge11" class="edge">
<title>Node6&#45;&gt;Node11</title>
<path fill="none" stroke="midnightblue" d="M506.39,-168.44C528.71,-159.52 563.9,-145.44 589.21,-135.32"/>
<polygon fill="midnightblue" stroke="midnightblue" points="590.72,-138.48 598.71,-131.52 588.12,-131.98 590.72,-138.48"/>
</g>
<!-- Node12&#45;&gt;Node4 -->
<g id="edge13" class="edge">
<title>Node12&#45;&gt;Node4</title>
<path fill="none" stroke="midnightblue" d="M160.78,-224.39C144.28,-208.22 110.46,-171.38 100,-132 90.68,-96.9 91.66,-54.08 93.28,-29.94"/>
<polygon fill="midnightblue" stroke="midnightblue" points="96.79,-29.94 94.09,-19.7 89.82,-29.39 96.79,-29.94"/>
</g>
<!-- Node12&#45;&gt;Node6 -->
<g id="edge18" class="edge">
<title>Node12&#45;&gt;Node6</title>
<path fill="none" stroke="midnightblue" d="M199.63,-227.92C257.69,-217.97 386.2,-195.94 449.02,-185.17"/>
<polygon fill="midnightblue" stroke="midnightblue" points="449.97,-188.56 459.24,-183.42 448.79,-181.66 449.97,-188.56"/>
</g>
<!-- Node13 -->
<g id="node13" class="node">
<title>Node13</title>
<g id="a_node13"><a xlink:title=" ">
<polygon fill="none" stroke="#bfbfbf" points="145,-168.5 145,-187.5 195,-187.5 195,-168.5 145,-168.5"/>
<text text-anchor="middle" x="170" y="-175.5" font-family="Helvetica,sans-Serif" font-size="10.00">fstream</text>
</a>
</g>
</g>
<!-- Node12&#45;&gt;Node13 -->
<g id="edge14" class="edge">
<title>Node12&#45;&gt;Node13</title>
<path fill="none" stroke="midnightblue" d="M170,-224.08C170,-217.01 170,-206.86 170,-197.99"/>
<polygon fill="midnightblue" stroke="midnightblue" points="173.5,-197.75 170,-187.75 166.5,-197.75 173.5,-197.75"/>
</g>
<!-- Node14 -->
<g id="node14" class="node">
<title>Node14</title>
<g id="a_node14"><a xlink:href="../../de/d32/_token_8hpp.html" target="_top" xlink:title="Классы для работы с токенами анализатора">
<polygon fill="none" stroke="black" points="494,-56.5 494,-75.5 556,-75.5 556,-56.5 494,-56.5"/>
<text text-anchor="middle" x="525" y="-63.5" font-family="Helvetica,sans-Serif" font-size="10.00">Token.hpp</text>
</a>
</g>
</g>
<!-- Node12&#45;&gt;Node14 -->
<g id="edge15" class="edge">
<title>Node12&#45;&gt;Node14</title>
<path fill="none" stroke="midnightblue" d="M159.69,-224.42C145.85,-211.83 124.28,-187.7 136,-168 162.63,-123.21 189.66,-128.74 239,-112 323.02,-83.5 427.15,-72.91 483.71,-69.08"/>
<polygon fill="midnightblue" stroke="midnightblue" points="483.94,-72.57 493.7,-68.44 483.49,-65.58 483.94,-72.57"/>
</g>
<!-- Node14&#45;&gt;Node4 -->
<g id="edge16" class="edge">
<title>Node14&#45;&gt;Node4</title>
<path fill="none" stroke="midnightblue" d="M493.73,-61.07C414.17,-51.08 204.81,-24.79 125.78,-14.87"/>
<polygon fill="midnightblue" stroke="midnightblue" points="125.88,-11.35 115.53,-13.58 125.01,-18.3 125.88,-11.35"/>
</g>
<!-- Node15 -->
<g id="node15" class="node">
<title>Node15</title>
<g id="a_node15"><a xlink:title=" ">
<polygon fill="none" stroke="#bfbfbf" points="505,-0.5 505,-19.5 545,-19.5 545,-0.5 505,-0.5"/>
<text text-anchor="middle" x="525" y="-7.5" font-family="Helvetica,sans-Serif" font-size="10.00">regex</text>
</a>
</g>
</g>
<!-- Node14&#45;&gt;Node15 -->
<g id="edge17" class="edge">
<title>Node14&#45;&gt;Node15</title>
<path fill="none" stroke="midnightblue" d="M525,-56.08C525,-49.01 525,-38.86 525,-29.99"/>
<polygon fill="midnightblue" stroke="midnightblue" points="528.5,-29.75 525,-19.75 521.5,-29.75 528.5,-29.75"/>
</g>
<!-- Node16&#45;&gt;Node5 -->
<g id="edge20" class="edge">
<title>Node16&#45;&gt;Node5</title>
<path fill="none" stroke="midnightblue" d="M800.05,-224.4C822.97,-217.08 854.19,-205.04 878,-188 896.42,-174.81 912.94,-154.58 923.39,-140.2"/>
<polygon fill="midnightblue" stroke="midnightblue" points="926.46,-141.91 929.34,-131.72 920.73,-137.89 926.46,-141.91"/>
</g>
<!-- Node16&#45;&gt;Node6 -->
<g id="edge22" class="edge">
<title>Node16&#45;&gt;Node6</title>
<path fill="none" stroke="midnightblue" d="M736.97,-226.91C683.55,-216.75 576.62,-196.42 520.79,-185.81"/>
<polygon fill="midnightblue" stroke="midnightblue" points="521.14,-182.31 510.66,-183.88 519.83,-189.19 521.14,-182.31"/>
</g>
<!-- Node16&#45;&gt;Node14 -->
<g id="edge23" class="edge">
<title>Node16&#45;&gt;Node14</title>
<path fill="none" stroke="midnightblue" d="M797.02,-224.4C814.17,-217.51 834.75,-205.98 845,-188 852.74,-174.42 864.18,-134.81 844,-112 808.16,-71.49 644.4,-66.51 566.46,-66.49"/>
<polygon fill="midnightblue" stroke="midnightblue" points="566.05,-62.99 556.06,-66.52 566.07,-69.99 566.05,-62.99"/>
</g>
<!-- Node17 -->
<g id="node17" class="node">
<title>Node17</title>
<g id="a_node17"><a xlink:title=" ">
<polygon fill="none" stroke="#bfbfbf" points="746,-168.5 746,-187.5 836,-187.5 836,-168.5 746,-168.5"/>
<text text-anchor="middle" x="791" y="-175.5" font-family="Helvetica,sans-Serif" font-size="10.00">magic_enum.hpp</text>
</a>
</g>
</g>
<!-- Node16&#45;&gt;Node17 -->
<g id="edge21" class="edge">
<title>Node16&#45;&gt;Node17</title>
<path fill="none" stroke="midnightblue" d="M772.63,-224.08C775.61,-216.77 779.93,-206.18 783.62,-197.1"/>
<polygon fill="midnightblue" stroke="midnightblue" points="786.9,-198.33 787.43,-187.75 780.42,-195.69 786.9,-198.33"/>
</g>
<!-- Node18 -->
<g id="node18" class="node">
<title>Node18</title>
<g id="a_node18"><a xlink:href="../../d8/de6/_a_s_tclasses_8hpp.html" target="_top" xlink:title="Базовые классы ДАС: абстрактный посетитель и абстрактный узел">
<polygon fill="none" stroke="black" points="662,-112.5 662,-131.5 750,-131.5 750,-112.5 662,-112.5"/>
<text text-anchor="middle" x="706" y="-119.5" font-family="Helvetica,sans-Serif" font-size="10.00">ASTclasses.hpp</text>
</a>
</g>
</g>
<!-- Node16&#45;&gt;Node18 -->
<g id="edge24" class="edge">
<title>Node16&#45;&gt;Node18</title>
<path fill="none" stroke="midnightblue" d="M736.63,-228.51C712.38,-223.27 680.77,-212.01 665,-188 653.94,-171.16 670.2,-151.56 685.39,-138.33"/>
<polygon fill="midnightblue" stroke="midnightblue" points="688,-140.72 693.54,-131.69 683.58,-135.29 688,-140.72"/>
</g>
<!-- Node18&#45;&gt;Node14 -->
<g id="edge25" class="edge">
<title>Node18&#45;&gt;Node14</title>
<path fill="none" stroke="midnightblue" d="M677.32,-112.44C646.47,-103.24 597.27,-88.56 563.17,-78.39"/>
<polygon fill="midnightblue" stroke="midnightblue" points="564.13,-75.02 553.55,-75.52 562.13,-81.73 564.13,-75.02"/>
</g>
<!-- Node19&#45;&gt;Node4 -->
<g id="edge27" class="edge">
<title>Node19&#45;&gt;Node4</title>
<path fill="none" stroke="midnightblue" d="M276,-168.31C245.32,-141.64 152.2,-60.72 112.86,-26.52"/>
<polygon fill="midnightblue" stroke="midnightblue" points="114.74,-23.52 104.9,-19.61 110.15,-28.81 114.74,-23.52"/>
</g>
<!-- Node19&#45;&gt;Node9 -->
<g id="edge28" class="edge">
<title>Node19&#45;&gt;Node9</title>
<path fill="none" stroke="midnightblue" d="M286,-168.08C286,-161.01 286,-150.86 286,-141.99"/>
<polygon fill="midnightblue" stroke="midnightblue" points="289.5,-141.75 286,-131.75 282.5,-141.75 289.5,-141.75"/>
</g>
<!-- Node19&#45;&gt;Node14 -->
<g id="edge29" class="edge">
<title>Node19&#45;&gt;Node14</title>
<path fill="none" stroke="midnightblue" d="M274.22,-168.42C257.74,-155.4 231.48,-130.24 247,-112 276.92,-76.85 413.92,-69.07 483.78,-67.41"/>
<polygon fill="midnightblue" stroke="midnightblue" points="484.06,-70.9 493.99,-67.2 483.92,-63.91 484.06,-70.9"/>
</g>
<!-- Node20&#45;&gt;Node5 -->
<g id="edge31" class="edge">
<title>Node20&#45;&gt;Node5</title>
<path fill="none" stroke="midnightblue" d="M728.11,-170.16C731.11,-169.42 734.12,-168.69 737,-168 795.55,-154.03 864.07,-138.68 903.23,-130"/>
<polygon fill="midnightblue" stroke="midnightblue" points="903.98,-133.42 912.99,-127.84 902.47,-126.58 903.98,-133.42"/>
</g>
<!-- Node20&#45;&gt;Node14 -->
<g id="edge33" class="edge">
<title>Node20&#45;&gt;Node14</title>
<path fill="none" stroke="midnightblue" d="M728.11,-169.2C763.6,-158.73 822.03,-140.45 828,-132 833.13,-124.74 833.81,-118.73 828,-112 794.66,-73.34 640.94,-67.36 566.13,-66.78"/>
<polygon fill="midnightblue" stroke="midnightblue" points="566.13,-63.28 556.11,-66.73 566.1,-70.28 566.13,-63.28"/>
</g>
<!-- Node20&#45;&gt;Node18 -->
<g id="edge34" class="edge">
<title>Node20&#45;&gt;Node18</title>
<path fill="none" stroke="midnightblue" d="M701.83,-168.08C702.48,-161.01 703.42,-150.86 704.24,-141.99"/>
<polygon fill="midnightblue" stroke="midnightblue" points="707.75,-142.03 705.19,-131.75 700.78,-141.39 707.75,-142.03"/>
</g>
<!-- Node21 -->
<g id="node21" class="node">
<title>Node21</title>
<g id="a_node21"><a xlink:title=" ">
<polygon fill="none" stroke="#bfbfbf" points="767.5,-112.5 767.5,-131.5 818.5,-131.5 818.5,-112.5 767.5,-112.5"/>
<text text-anchor="middle" x="793" y="-119.5" font-family="Helvetica,sans-Serif" font-size="10.00">memory</text>
</a>
</g>
</g>
<!-- Node20&#45;&gt;Node21 -->
<g id="edge32" class="edge">
<title>Node20&#45;&gt;Node21</title>
<path fill="none" stroke="midnightblue" d="M715.78,-168.32C730.27,-159.82 752.57,-146.73 769.49,-136.8"/>
<polygon fill="midnightblue" stroke="midnightblue" points="771.4,-139.74 778.26,-131.65 767.86,-133.7 771.4,-139.74"/>
</g>
<!-- Node22&#45;&gt;Node4 -->
<g id="edge37" class="edge">
<title>Node22&#45;&gt;Node4</title>
<path fill="none" stroke="midnightblue" d="M513.22,-289C387.08,-287.81 38,-275.77 38,-179 38,-179 38,-179 38,-121 38,-84.3 63.32,-47.66 80.21,-27.3"/>
<polygon fill="midnightblue" stroke="midnightblue" points="82.95,-29.48 86.83,-19.62 77.65,-24.9 82.95,-29.48"/>
</g>
<!-- Node22&#45;&gt;Node5 -->
<g id="edge36" class="edge">
<title>Node22&#45;&gt;Node5</title>
<path fill="none" stroke="midnightblue" d="M602.57,-286.03C653.98,-281.48 740.38,-270.35 810,-244 854.77,-227.06 869.48,-223.13 902,-188 914.47,-174.53 923.4,-155.46 928.8,-141.46"/>
<polygon fill="midnightblue" stroke="midnightblue" points="932.14,-142.51 932.24,-131.92 925.56,-140.14 932.14,-142.51"/>
</g>
<!-- Node22&#45;&gt;Node6 -->
<g id="edge39" class="edge">
<title>Node22&#45;&gt;Node6</title>
<path fill="none" stroke="midnightblue" d="M552.27,-280.37C540.22,-262.22 512.08,-219.8 496.28,-195.99"/>
<polygon fill="midnightblue" stroke="midnightblue" points="499.15,-193.99 490.7,-187.59 493.31,-197.86 499.15,-193.99"/>
</g>
<!-- Node22&#45;&gt;Node14 -->
<g id="edge38" class="edge">
<title>Node22&#45;&gt;Node14</title>
<path fill="none" stroke="midnightblue" d="M602.86,-285.6C729.69,-274.45 1074.81,-232.48 966,-112 939.48,-82.63 670.89,-71.41 566.33,-68.13"/>
<polygon fill="midnightblue" stroke="midnightblue" points="566.26,-64.62 556.16,-67.82 566.05,-71.62 566.26,-64.62"/>
</g>
<!-- Node22&#45;&gt;Node23 -->
<g id="edge40" class="edge">
<title>Node22&#45;&gt;Node23</title>
<path fill="none" stroke="midnightblue" d="M537.08,-280.44C515.26,-271.52 480.85,-257.44 456.11,-247.32"/>
<polygon fill="midnightblue" stroke="midnightblue" points="457.4,-244.06 446.82,-243.52 454.75,-250.54 457.4,-244.06"/>
</g>
<!-- Node23&#45;&gt;Node4 -->
<g id="edge42" class="edge">
<title>Node23&#45;&gt;Node4</title>
<path fill="none" stroke="midnightblue" d="M394.87,-231.06C356.45,-227.45 290.28,-217.16 242,-188 174.81,-147.41 124.15,-64.83 104.24,-28.65"/>
<polygon fill="midnightblue" stroke="midnightblue" points="107.27,-26.9 99.45,-19.75 101.1,-30.21 107.27,-26.9"/>
</g>
<!-- Node23&#45;&gt;Node6 -->
<g id="edge45" class="edge">
<title>Node23&#45;&gt;Node6</title>
<path fill="none" stroke="midnightblue" d="M435.48,-224.32C444.2,-216.34 457.34,-204.31 467.9,-194.65"/>
<polygon fill="midnightblue" stroke="midnightblue" points="470.33,-197.17 475.35,-187.83 465.61,-192 470.33,-197.17"/>
</g>
<!-- Node23&#45;&gt;Node13 -->
<g id="edge41" class="edge">
<title>Node23&#45;&gt;Node13</title>
<path fill="none" stroke="midnightblue" d="M394.69,-226.74C352.47,-218.24 274.96,-202.45 209,-188 207.74,-187.72 206.46,-187.44 205.16,-187.15"/>
<polygon fill="midnightblue" stroke="midnightblue" points="205.68,-183.68 195.16,-184.89 204.14,-190.51 205.68,-183.68"/>
</g>
<!-- Node23&#45;&gt;Node14 -->
<g id="edge44" class="edge">
<title>Node23&#45;&gt;Node14</title>
<path fill="none" stroke="midnightblue" d="M415.4,-224.5C390.99,-203.89 335.04,-150.17 364,-112 378.47,-92.94 441.1,-79.76 483.84,-72.8"/>
<polygon fill="midnightblue" stroke="midnightblue" points="484.64,-76.22 493.97,-71.2 483.55,-69.3 484.64,-76.22"/>
</g>
<!-- Node23&#45;&gt;Node18 -->
<g id="edge46" class="edge">
<title>Node23&#45;&gt;Node18</title>
<path fill="none" stroke="midnightblue" d="M444.89,-224.36C473.31,-211.47 528.86,-186.73 577,-168 608.03,-155.93 643.81,-143.56 669.81,-134.86"/>
<polygon fill="midnightblue" stroke="midnightblue" points="671.23,-138.08 679.61,-131.6 669.02,-131.43 671.23,-138.08"/>
</g>
<!-- Node23&#45;&gt;Node19 -->
<g id="edge48" class="edge">
<title>Node23&#45;&gt;Node19</title>
<path fill="none" stroke="midnightblue" d="M403.82,-224.44C380.57,-215.48 343.85,-201.31 317.58,-191.18"/>
<polygon fill="midnightblue" stroke="midnightblue" points="318.67,-187.85 308.08,-187.52 316.15,-194.38 318.67,-187.85"/>
</g>
<!-- Node23&#45;&gt;Node20 -->
<g id="edge47" class="edge">
<title>Node23&#45;&gt;Node20</title>
<path fill="none" stroke="midnightblue" d="M457.01,-226.91C507.95,-216.91 609.12,-197.04 663.82,-186.3"/>
<polygon fill="midnightblue" stroke="midnightblue" points="664.66,-189.7 673.79,-184.34 663.31,-182.83 664.66,-189.7"/>
</g>
<!-- Node23&#45;&gt;Node21 -->
<g id="edge43" class="edge">
<title>Node23&#45;&gt;Node21</title>
<path fill="none" stroke="midnightblue" d="M454.49,-224.46C520.76,-204.6 685.11,-155.34 757.64,-133.6"/>
<polygon fill="midnightblue" stroke="midnightblue" points="758.67,-136.94 767.25,-130.72 756.66,-130.24 758.67,-136.94"/>
</g>
</g>
</svg>
