<?xml version="1.0" encoding="UTF-8" standalone="no"?>
<!DOCTYPE svg PUBLIC "-//W3C//DTD SVG 1.1//EN"
 "http://www.w3.org/Graphics/SVG/1.1/DTD/svg11.dtd">
<!-- Generated by graphviz version 3.0.0 (20220413.0106)
 -->
<!-- Title: graphDraw.cpp Pages: 1 -->
<svg width="990pt" height="420pt"
 viewBox="0.00 0.00 990.34 420.00" xmlns="http://www.w3.org/2000/svg" xmlns:xlink="http://www.w3.org/1999/xlink">
<g id="graph0" class="graph" transform="scale(1 1) rotate(0) translate(4 416)">
<title>graphDraw.cpp</title>
<!-- Node1 -->
<g id="node1" class="node">
<title>Node1</title>
<g id="a_node1"><a xlink:title=" ">
<polygon fill="#bfbfbf" stroke="black" points="278.84,-392.5 278.84,-411.5 359.84,-411.5 359.84,-392.5 278.84,-392.5"/>
<text text-anchor="middle" x="319.34" y="-399.5" font-family="Helvetica,sans-Serif" font-size="10.00">graphDraw.cpp</text>
</a>
</g>
</g>
<!-- Node2 -->
<g id="node2" class="node">
<title>Node2</title>
<g id="a_node2"><a xlink:title=" ">
<polygon fill="none" stroke="#bfbfbf" points="188.34,-280.5 188.34,-299.5 242.34,-299.5 242.34,-280.5 188.34,-280.5"/>
<text text-anchor="middle" x="215.34" y="-287.5" font-family="Helvetica,sans-Serif" font-size="10.00">iostream</text>
</a>
</g>
</g>
<!-- Node1&#45;&gt;Node2 -->
<g id="edge1" class="edge">
<title>Node1&#45;&gt;Node2</title>
<path fill="none" stroke="midnightblue" d="M311.18,-392.37C293.79,-373.97 252.85,-330.67 230.52,-307.05"/>
<polygon fill="midnightblue" stroke="midnightblue" points="232.88,-304.45 223.46,-299.59 227.79,-309.26 232.88,-304.45"/>
</g>
<!-- Node3 -->
<g id="node3" class="node">
<title>Node3</title>
<g id="a_node3"><a xlink:href="../../d0/d7c/_analyze_8hpp.html" target="_top" xlink:title="Функции анализа кода на языке Pascal.">
<polygon fill="none" stroke="black" points="388.34,-336.5 388.34,-355.5 456.34,-355.5 456.34,-336.5 388.34,-336.5"/>
<text text-anchor="middle" x="422.34" y="-343.5" font-family="Helvetica,sans-Serif" font-size="10.00">Analyze.hpp</text>
</a>
</g>
</g>
<!-- Node1&#45;&gt;Node3 -->
<g id="edge2" class="edge">
<title>Node1&#45;&gt;Node3</title>
<path fill="none" stroke="midnightblue" d="M335.89,-392.32C352.33,-383.7 377.78,-370.36 396.81,-360.39"/>
<polygon fill="midnightblue" stroke="midnightblue" points="398.6,-363.4 405.83,-355.65 395.35,-357.2 398.6,-363.4"/>
</g>
<!-- Node3&#45;&gt;Node2 -->
<g id="edge5" class="edge">
<title>Node3&#45;&gt;Node2</title>
<path fill="none" stroke="midnightblue" d="M389.54,-336.44C352.18,-326.7 291.28,-310.81 252.28,-300.64"/>
<polygon fill="midnightblue" stroke="midnightblue" points="252.94,-297.19 242.38,-298.05 251.17,-303.96 252.94,-297.19"/>
</g>
<!-- Node4 -->
<g id="node4" class="node">
<title>Node4</title>
<g id="a_node4"><a xlink:title=" ">
<polygon fill="none" stroke="#bfbfbf" points="828.84,-0.5 828.84,-19.5 869.84,-19.5 869.84,-0.5 828.84,-0.5"/>
<text text-anchor="middle" x="849.34" y="-7.5" font-family="Helvetica,sans-Serif" font-size="10.00">string</text>
</a>
</g>
</g>
<!-- Node3&#45;&gt;Node4 -->
<g id="edge3" class="edge">
<title>Node3&#45;&gt;Node4</title>
<path fill="none" stroke="midnightblue" d="M456.53,-345.6C578.11,-346.81 982.34,-342.75 982.34,-235 982.34,-235 982.34,-235 982.34,-121 982.34,-68.08 919.03,-35.82 879.77,-20.9"/>
<polygon fill="midnightblue" stroke="midnightblue" points="880.72,-17.52 870.12,-17.4 878.33,-24.1 880.72,-17.52"/>
</g>
<!-- Node5 -->
<g id="node5" class="node">
<title>Node5</title>
<g id="a_node5"><a xlink:title=" ">
<polygon fill="none" stroke="#bfbfbf" points="169.34,-112.5 169.34,-131.5 213.34,-131.5 213.34,-112.5 169.34,-112.5"/>
<text text-anchor="middle" x="191.34" y="-119.5" font-family="Helvetica,sans-Serif" font-size="10.00">vector</text>
</a>
</g>
</g>
<!-- Node3&#45;&gt;Node5 -->
<g id="edge4" class="edge">
<title>Node3&#45;&gt;Node5</title>
<path fill="none" stroke="midnightblue" d="M419.16,-336.24C408.39,-307.82 370.65,-217.18 310.34,-168 296.65,-156.84 253.63,-142.06 223.26,-132.54"/>
<polygon fill="midnightblue" stroke="midnightblue" points="224.1,-129.14 213.51,-129.53 222.03,-135.82 224.1,-129.14"/>
</g>
<!-- Node6 -->
<g id="node6" class="node">
<title>Node6</title>
<g id="a_node6"><a xlink:href="../../dc/d72/_list_8hpp.html" target="_top" xlink:title=" ">
<polygon fill="none" stroke="black" points="450.84,-168.5 450.84,-187.5 501.84,-187.5 501.84,-168.5 450.84,-168.5"/>
<text text-anchor="middle" x="476.34" y="-175.5" font-family="Helvetica,sans-Serif" font-size="10.00">List.hpp</text>
</a>
</g>
</g>
<!-- Node3&#45;&gt;Node6 -->
<g id="edge6" class="edge">
<title>Node3&#45;&gt;Node6</title>
<path fill="none" stroke="midnightblue" d="M422.24,-336.38C422.31,-315.97 424.28,-263.42 441.34,-224 445.89,-213.48 453.49,-203.27 460.44,-195.25"/>
<polygon fill="midnightblue" stroke="midnightblue" points="463.13,-197.49 467.3,-187.75 457.97,-192.76 463.13,-197.49"/>
</g>
<!-- Node12 -->
<g id="node12" class="node">
<title>Node12</title>
<g id="a_node12"><a xlink:href="../../d5/d24/_lexer_8hpp.html" target="_top" xlink:title="Лексер">
<polygon fill="none" stroke="black" points="847.84,-224.5 847.84,-243.5 906.84,-243.5 906.84,-224.5 847.84,-224.5"/>
<text text-anchor="middle" x="877.34" y="-231.5" font-family="Helvetica,sans-Serif" font-size="10.00">Lexer.hpp</text>
</a>
</g>
</g>
<!-- Node3&#45;&gt;Node12 -->
<g id="edge13" class="edge">
<title>Node3&#45;&gt;Node12</title>
<path fill="none" stroke="midnightblue" d="M456.57,-339.58C502.69,-332.02 587.21,-317.29 658.34,-300 723.81,-284.08 798.83,-260.67 841.89,-246.72"/>
<polygon fill="midnightblue" stroke="midnightblue" points="843.19,-249.97 851.61,-243.55 841.02,-243.32 843.19,-249.97"/>
</g>
<!-- Node16 -->
<g id="node16" class="node">
<title>Node16</title>
<g id="a_node16"><a xlink:href="../../df/d3f/_syntax_8hpp.html" target="_top" xlink:title="Синтаксический анализатор">
<polygon fill="none" stroke="black" points="130.34,-224.5 130.34,-243.5 194.34,-243.5 194.34,-224.5 130.34,-224.5"/>
<text text-anchor="middle" x="162.34" y="-231.5" font-family="Helvetica,sans-Serif" font-size="10.00">Syntax.hpp</text>
</a>
</g>
</g>
<!-- Node3&#45;&gt;Node16 -->
<g id="edge20" class="edge">
<title>Node3&#45;&gt;Node16</title>
<path fill="none" stroke="midnightblue" d="M395.01,-336.44C368.85,-328.01 328.43,-314.33 294.34,-300 273.96,-291.44 220.79,-264.74 188.49,-248.34"/>
<polygon fill="midnightblue" stroke="midnightblue" points="189.7,-245.03 179.2,-243.62 186.53,-251.27 189.7,-245.03"/>
</g>
<!-- Node19 -->
<g id="node19" class="node">
<title>Node19</title>
<g id="a_node19"><a xlink:href="../../da/dbf/_synt_exp_8hpp.html" target="_top" xlink:title="Исключения анализатора">
<polygon fill="none" stroke="black" points="626.34,-168.5 626.34,-187.5 696.34,-187.5 696.34,-168.5 626.34,-168.5"/>
<text text-anchor="middle" x="661.34" y="-175.5" font-family="Helvetica,sans-Serif" font-size="10.00">SyntExp.hpp</text>
</a>
</g>
</g>
<!-- Node3&#45;&gt;Node19 -->
<g id="edge27" class="edge">
<title>Node3&#45;&gt;Node19</title>
<path fill="none" stroke="midnightblue" d="M456.48,-343.5C493.21,-340.28 551.68,-330.36 591.34,-300 626.23,-273.29 646.78,-223.84 655.83,-197.17"/>
<polygon fill="midnightblue" stroke="midnightblue" points="659.19,-198.16 658.92,-187.57 652.52,-196.01 659.19,-198.16"/>
</g>
<!-- Node20 -->
<g id="node20" class="node">
<title>Node20</title>
<g id="a_node20"><a xlink:href="../../d4/dcb/_a_s_t_8hpp.html" target="_top" xlink:title="Узлы ДАС">
<polygon fill="none" stroke="black" points="247.34,-168.5 247.34,-187.5 301.34,-187.5 301.34,-168.5 247.34,-168.5"/>
<text text-anchor="middle" x="274.34" y="-175.5" font-family="Helvetica,sans-Serif" font-size="10.00">AST.hpp</text>
</a>
</g>
</g>
<!-- Node3&#45;&gt;Node20 -->
<g id="edge31" class="edge">
<title>Node3&#45;&gt;Node20</title>
<path fill="none" stroke="midnightblue" d="M394.21,-336.4C374.8,-329.26 349.49,-317.44 332.34,-300 303.31,-270.48 286.64,-223.64 279.15,-197.75"/>
<polygon fill="midnightblue" stroke="midnightblue" points="282.43,-196.48 276.42,-187.76 275.68,-198.32 282.43,-196.48"/>
</g>
<!-- Node22 -->
<g id="node22" class="node">
<title>Node22</title>
<g id="a_node22"><a xlink:href="../../db/dfd/_pascal_rules_8hpp.html" target="_top" xlink:title="Правила языка Паскаль">
<polygon fill="none" stroke="black" points="493.84,-280.5 493.84,-299.5 582.84,-299.5 582.84,-280.5 493.84,-280.5"/>
<text text-anchor="middle" x="538.34" y="-287.5" font-family="Helvetica,sans-Serif" font-size="10.00">PascalRules.hpp</text>
</a>
</g>
</g>
<!-- Node3&#45;&gt;Node22 -->
<g id="edge36" class="edge">
<title>Node3&#45;&gt;Node22</title>
<path fill="none" stroke="midnightblue" d="M440.72,-336.44C459.56,-327.68 489.07,-313.94 510.72,-303.86"/>
<polygon fill="midnightblue" stroke="midnightblue" points="512.46,-306.91 520.05,-299.52 509.5,-300.56 512.46,-306.91"/>
</g>
<!-- Node23 -->
<g id="node23" class="node">
<title>Node23</title>
<g id="a_node23"><a xlink:href="../../db/d42/_visitor_8hpp.html" target="_top" xlink:title="Посетители для обхода ДАС">
<polygon fill="none" stroke="black" points="450.34,-224.5 450.34,-243.5 512.34,-243.5 512.34,-224.5 450.34,-224.5"/>
<text text-anchor="middle" x="481.34" y="-231.5" font-family="Helvetica,sans-Serif" font-size="10.00">Visitor.hpp</text>
</a>
</g>
</g>
<!-- Node3&#45;&gt;Node23 -->
<g id="edge50" class="edge">
<title>Node3&#45;&gt;Node23</title>
<path fill="none" stroke="midnightblue" d="M426.97,-336.37C436.62,-318.38 459.05,-276.55 471.89,-252.63"/>
<polygon fill="midnightblue" stroke="midnightblue" points="475.09,-254.06 476.73,-243.59 468.92,-250.75 475.09,-254.06"/>
</g>
<!-- Node6&#45;&gt;Node5 -->
<g id="edge9" class="edge">
<title>Node6&#45;&gt;Node5</title>
<path fill="none" stroke="midnightblue" d="M450.56,-173.37C406.12,-166.91 312.11,-152.36 223.55,-132.08"/>
<polygon fill="midnightblue" stroke="midnightblue" points="224.15,-128.63 213.62,-129.78 222.57,-135.45 224.15,-128.63"/>
</g>
<!-- Node7 -->
<g id="node7" class="node">
<title>Node7</title>
<g id="a_node7"><a xlink:title=" ">
<polygon fill="none" stroke="#bfbfbf" points="432.84,-112.5 432.84,-131.5 481.84,-131.5 481.84,-112.5 432.84,-112.5"/>
<text text-anchor="middle" x="457.34" y="-119.5" font-family="Helvetica,sans-Serif" font-size="10.00">cstddef</text>
</a>
</g>
</g>
<!-- Node6&#45;&gt;Node7 -->
<g id="edge7" class="edge">
<title>Node6&#45;&gt;Node7</title>
<path fill="none" stroke="midnightblue" d="M473.2,-168.08C470.66,-160.85 466.98,-150.41 463.81,-141.4"/>
<polygon fill="midnightblue" stroke="midnightblue" points="467.04,-140.02 460.42,-131.75 460.44,-142.35 467.04,-140.02"/>
</g>
<!-- Node8 -->
<g id="node8" class="node">
<title>Node8</title>
<g id="a_node8"><a xlink:title=" ">
<polygon fill="none" stroke="#bfbfbf" points="500.34,-112.5 500.34,-131.5 572.34,-131.5 572.34,-112.5 500.34,-112.5"/>
<text text-anchor="middle" x="536.34" y="-119.5" font-family="Helvetica,sans-Serif" font-size="10.00">initializer_list</text>
</a>
</g>
</g>
<!-- Node6&#45;&gt;Node8 -->
<g id="edge8" class="edge">
<title>Node6&#45;&gt;Node8</title>
<path fill="none" stroke="midnightblue" d="M485.98,-168.32C494.85,-160.34 508.22,-148.31 518.95,-138.65"/>
<polygon fill="midnightblue" stroke="midnightblue" points="521.43,-141.13 526.53,-131.83 516.75,-135.92 521.43,-141.13"/>
</g>
<!-- Node9 -->
<g id="node9" class="node">
<title>Node9</title>
<g id="a_node9"><a xlink:title=" ">
<polygon fill="none" stroke="#bfbfbf" points="628.84,-112.5 628.84,-131.5 687.84,-131.5 687.84,-112.5 628.84,-112.5"/>
<text text-anchor="middle" x="658.34" y="-119.5" font-family="Helvetica,sans-Serif" font-size="10.00">stdexcept</text>
</a>
</g>
</g>
<!-- Node6&#45;&gt;Node9 -->
<g id="edge10" class="edge">
<title>Node6&#45;&gt;Node9</title>
<path fill="none" stroke="midnightblue" d="M502.03,-169.38C532.62,-160.3 584.02,-145.05 619.48,-134.53"/>
<polygon fill="midnightblue" stroke="midnightblue" points="620.89,-137.76 629.48,-131.56 618.9,-131.05 620.89,-137.76"/>
</g>
<!-- Node10 -->
<g id="node10" class="node">
<title>Node10</title>
<g id="a_node10"><a xlink:title=" ">
<polygon fill="none" stroke="#bfbfbf" points="300.84,-112.5 300.84,-131.5 347.84,-131.5 347.84,-112.5 300.84,-112.5"/>
<text text-anchor="middle" x="324.34" y="-119.5" font-family="Helvetica,sans-Serif" font-size="10.00">iterator</text>
</a>
</g>
</g>
<!-- Node6&#45;&gt;Node10 -->
<g id="edge11" class="edge">
<title>Node6&#45;&gt;Node10</title>
<path fill="none" stroke="midnightblue" d="M452.26,-168.44C426.8,-159.4 386.45,-145.06 357.88,-134.92"/>
<polygon fill="midnightblue" stroke="midnightblue" points="358.91,-131.57 348.31,-131.52 356.56,-138.16 358.91,-131.57"/>
</g>
<!-- Node11 -->
<g id="node11" class="node">
<title>Node11</title>
<g id="a_node11"><a xlink:title=" ">
<polygon fill="none" stroke="#bfbfbf" points="365.84,-112.5 365.84,-131.5 414.84,-131.5 414.84,-112.5 365.84,-112.5"/>
<text text-anchor="middle" x="390.34" y="-119.5" font-family="Helvetica,sans-Serif" font-size="10.00">List.tpp</text>
</a>
</g>
</g>
<!-- Node6&#45;&gt;Node11 -->
<g id="edge12" class="edge">
<title>Node6&#45;&gt;Node11</title>
<path fill="none" stroke="midnightblue" d="M462.52,-168.32C449.11,-159.9 428.52,-146.97 412.75,-137.07"/>
<polygon fill="midnightblue" stroke="midnightblue" points="414.45,-134.01 404.12,-131.65 410.73,-139.94 414.45,-134.01"/>
</g>
<!-- Node12&#45;&gt;Node4 -->
<g id="edge14" class="edge">
<title>Node12&#45;&gt;Node4</title>
<path fill="none" stroke="midnightblue" d="M880.47,-224.21C884.53,-211.75 890.81,-188.22 888.34,-168 882.08,-116.83 864.75,-58.33 855.44,-29.31"/>
<polygon fill="midnightblue" stroke="midnightblue" points="858.74,-28.13 852.3,-19.71 852.08,-30.3 858.74,-28.13"/>
</g>
<!-- Node12&#45;&gt;Node6 -->
<g id="edge19" class="edge">
<title>Node12&#45;&gt;Node6</title>
<path fill="none" stroke="midnightblue" d="M847.53,-228.99C775.15,-219.24 590.37,-194.36 512.17,-183.82"/>
<polygon fill="midnightblue" stroke="midnightblue" points="512.24,-180.3 501.86,-182.44 511.31,-187.24 512.24,-180.3"/>
</g>
<!-- Node13 -->
<g id="node13" class="node">
<title>Node13</title>
<g id="a_node13"><a xlink:title=" ">
<polygon fill="none" stroke="#bfbfbf" points="752.34,-168.5 752.34,-187.5 802.34,-187.5 802.34,-168.5 752.34,-168.5"/>
<text text-anchor="middle" x="777.34" y="-175.5" font-family="Helvetica,sans-Serif" font-size="10.00">fstream</text>
</a>
</g>
</g>
<!-- Node12&#45;&gt;Node13 -->
<g id="edge15" class="edge">
<title>Node12&#45;&gt;Node13</title>
<path fill="none" stroke="midnightblue" d="M861.27,-224.32C845.38,-215.74 820.83,-202.49 802.38,-192.52"/>
<polygon fill="midnightblue" stroke="midnightblue" points="803.83,-189.33 793.37,-187.65 800.5,-195.49 803.83,-189.33"/>
</g>
<!-- Node14 -->
<g id="node14" class="node">
<title>Node14</title>
<g id="a_node14"><a xlink:href="../../de/d32/_token_8hpp.html" target="_top" xlink:title="Классы для работы с токенами анализатора">
<polygon fill="none" stroke="black" points="617.34,-56.5 617.34,-75.5 679.34,-75.5 679.34,-56.5 617.34,-56.5"/>
<text text-anchor="middle" x="648.34" y="-63.5" font-family="Helvetica,sans-Serif" font-size="10.00">Token.hpp</text>
</a>
</g>
</g>
<!-- Node12&#45;&gt;Node14 -->
<g id="edge16" class="edge">
<title>Node12&#45;&gt;Node14</title>
<path fill="none" stroke="midnightblue" d="M877.77,-224.19C878.33,-201.91 876.54,-142.92 844.34,-112 822.49,-91.02 740.19,-77.8 689.44,-71.47"/>
<polygon fill="midnightblue" stroke="midnightblue" points="689.78,-67.98 679.43,-70.26 688.94,-74.93 689.78,-67.98"/>
</g>
<!-- Node14&#45;&gt;Node4 -->
<g id="edge17" class="edge">
<title>Node14&#45;&gt;Node4</title>
<path fill="none" stroke="midnightblue" d="M679.75,-56.56C717.69,-46.37 781.11,-29.33 818.71,-19.23"/>
<polygon fill="midnightblue" stroke="midnightblue" points="819.84,-22.55 828.59,-16.58 818.02,-15.79 819.84,-22.55"/>
</g>
<!-- Node15 -->
<g id="node15" class="node">
<title>Node15</title>
<g id="a_node15"><a xlink:title=" ">
<polygon fill="none" stroke="#bfbfbf" points="628.34,-0.5 628.34,-19.5 668.34,-19.5 668.34,-0.5 628.34,-0.5"/>
<text text-anchor="middle" x="648.34" y="-7.5" font-family="Helvetica,sans-Serif" font-size="10.00">regex</text>
</a>
</g>
</g>
<!-- Node14&#45;&gt;Node15 -->
<g id="edge18" class="edge">
<title>Node14&#45;&gt;Node15</title>
<path fill="none" stroke="midnightblue" d="M648.34,-56.08C648.34,-49.01 648.34,-38.86 648.34,-29.99"/>
<polygon fill="midnightblue" stroke="midnightblue" points="651.84,-29.75 648.34,-19.75 644.84,-29.75 651.84,-29.75"/>
</g>
<!-- Node16&#45;&gt;Node5 -->
<g id="edge21" class="edge">
<title>Node16&#45;&gt;Node5</title>
<path fill="none" stroke="midnightblue" d="M164.62,-224.37C169.32,-206.54 180.19,-165.3 186.52,-141.27"/>
<polygon fill="midnightblue" stroke="midnightblue" points="189.91,-142.15 189.08,-131.59 183.14,-140.37 189.91,-142.15"/>
</g>
<!-- Node16&#45;&gt;Node6 -->
<g id="edge23" class="edge">
<title>Node16&#45;&gt;Node6</title>
<path fill="none" stroke="midnightblue" d="M194.47,-227.47C253.57,-217.31 379.11,-195.72 440.73,-185.12"/>
<polygon fill="midnightblue" stroke="midnightblue" points="441.49,-188.54 450.75,-183.4 440.3,-181.65 441.49,-188.54"/>
</g>
<!-- Node16&#45;&gt;Node14 -->
<g id="edge24" class="edge">
<title>Node16&#45;&gt;Node14</title>
<path fill="none" stroke="midnightblue" d="M130.28,-233.35C95.79,-231.78 42.41,-223.32 16.34,-188 -3.72,-160.82 -6.68,-136.72 16.34,-112 56.53,-68.85 472.85,-66.41 606.96,-66.76"/>
<polygon fill="midnightblue" stroke="midnightblue" points="607.21,-70.26 617.22,-66.79 607.23,-63.26 607.21,-70.26"/>
</g>
<!-- Node17 -->
<g id="node17" class="node">
<title>Node17</title>
<g id="a_node17"><a xlink:title=" ">
<polygon fill="none" stroke="#bfbfbf" points="25.34,-168.5 25.34,-187.5 115.34,-187.5 115.34,-168.5 25.34,-168.5"/>
<text text-anchor="middle" x="70.34" y="-175.5" font-family="Helvetica,sans-Serif" font-size="10.00">magic_enum.hpp</text>
</a>
</g>
</g>
<!-- Node16&#45;&gt;Node17 -->
<g id="edge22" class="edge">
<title>Node16&#45;&gt;Node17</title>
<path fill="none" stroke="midnightblue" d="M147.56,-224.32C133.07,-215.82 110.77,-202.73 93.85,-192.8"/>
<polygon fill="midnightblue" stroke="midnightblue" points="95.48,-189.7 85.09,-187.65 91.94,-195.74 95.48,-189.7"/>
</g>
<!-- Node18 -->
<g id="node18" class="node">
<title>Node18</title>
<g id="a_node18"><a xlink:href="../../d8/de6/_a_s_tclasses_8hpp.html" target="_top" xlink:title="Базовые классы ДАС: абстрактный посетитель и абстрактный узел">
<polygon fill="none" stroke="black" points="25.34,-112.5 25.34,-131.5 113.34,-131.5 113.34,-112.5 25.34,-112.5"/>
<text text-anchor="middle" x="69.34" y="-119.5" font-family="Helvetica,sans-Serif" font-size="10.00">ASTclasses.hpp</text>
</a>
</g>
</g>
<!-- Node16&#45;&gt;Node18 -->
<g id="edge25" class="edge">
<title>Node16&#45;&gt;Node18</title>
<path fill="none" stroke="midnightblue" d="M158.52,-224.38C152.48,-211.31 139.79,-186.09 124.34,-168 114.48,-156.45 101.38,-145.61 90.44,-137.46"/>
<polygon fill="midnightblue" stroke="midnightblue" points="92.4,-134.55 82.24,-131.54 88.3,-140.23 92.4,-134.55"/>
</g>
<!-- Node18&#45;&gt;Node14 -->
<g id="edge26" class="edge">
<title>Node18&#45;&gt;Node14</title>
<path fill="none" stroke="midnightblue" d="M113.63,-113.81C118.25,-113.16 122.89,-112.54 127.34,-112 305.33,-90.53 518.73,-75.41 607.01,-69.61"/>
<polygon fill="midnightblue" stroke="midnightblue" points="607.39,-73.1 617.14,-68.95 606.93,-66.11 607.39,-73.1"/>
</g>
<!-- Node19&#45;&gt;Node4 -->
<g id="edge28" class="edge">
<title>Node19&#45;&gt;Node4</title>
<path fill="none" stroke="midnightblue" d="M671.86,-168.42C682.44,-159.64 699.03,-145.41 712.34,-132 743.85,-100.24 744.42,-85.17 778.34,-56 792.41,-43.9 810.02,-32.72 824.18,-24.53"/>
<polygon fill="midnightblue" stroke="midnightblue" points="825.93,-27.56 832.91,-19.6 822.49,-21.47 825.93,-27.56"/>
</g>
<!-- Node19&#45;&gt;Node9 -->
<g id="edge29" class="edge">
<title>Node19&#45;&gt;Node9</title>
<path fill="none" stroke="midnightblue" d="M660.85,-168.08C660.45,-161.01 659.89,-150.86 659.4,-141.99"/>
<polygon fill="midnightblue" stroke="midnightblue" points="662.88,-141.54 658.83,-131.75 655.89,-141.93 662.88,-141.54"/>
</g>
<!-- Node19&#45;&gt;Node14 -->
<g id="edge30" class="edge">
<title>Node19&#45;&gt;Node14</title>
<path fill="none" stroke="midnightblue" d="M671.9,-168.43C685.56,-156.24 706.58,-133.02 697.34,-112 691.95,-99.73 681.38,-89.34 671.44,-81.65"/>
<polygon fill="midnightblue" stroke="midnightblue" points="673.17,-78.58 663,-75.6 669.09,-84.27 673.17,-78.58"/>
</g>
<!-- Node20&#45;&gt;Node5 -->
<g id="edge32" class="edge">
<title>Node20&#45;&gt;Node5</title>
<path fill="none" stroke="midnightblue" d="M261.01,-168.32C248.18,-159.98 228.56,-147.21 213.4,-137.35"/>
<polygon fill="midnightblue" stroke="midnightblue" points="214.93,-134.17 204.64,-131.65 211.12,-140.04 214.93,-134.17"/>
</g>
<!-- Node20&#45;&gt;Node14 -->
<g id="edge34" class="edge">
<title>Node20&#45;&gt;Node14</title>
<path fill="none" stroke="midnightblue" d="M247.29,-170.09C216.9,-161.72 170.45,-146.87 160.34,-132 155.34,-124.65 154.35,-118.57 160.34,-112 190.19,-79.27 494.5,-70.01 606.91,-67.7"/>
<polygon fill="midnightblue" stroke="midnightblue" points="607.24,-71.19 617.17,-67.49 607.1,-64.19 607.24,-71.19"/>
</g>
<!-- Node20&#45;&gt;Node18 -->
<g id="edge35" class="edge">
<title>Node20&#45;&gt;Node18</title>
<path fill="none" stroke="midnightblue" d="M247.12,-169.83C212.48,-160.7 152.27,-144.85 111.63,-134.14"/>
<polygon fill="midnightblue" stroke="midnightblue" points="112.31,-130.7 101.75,-131.54 110.53,-137.47 112.31,-130.7"/>
</g>
<!-- Node21 -->
<g id="node21" class="node">
<title>Node21</title>
<g id="a_node21"><a xlink:title=" ">
<polygon fill="none" stroke="#bfbfbf" points="231.84,-112.5 231.84,-131.5 282.84,-131.5 282.84,-112.5 231.84,-112.5"/>
<text text-anchor="middle" x="257.34" y="-119.5" font-family="Helvetica,sans-Serif" font-size="10.00">memory</text>
</a>
</g>
</g>
<!-- Node20&#45;&gt;Node21 -->
<g id="edge33" class="edge">
<title>Node20&#45;&gt;Node21</title>
<path fill="none" stroke="midnightblue" d="M271.53,-168.08C269.26,-160.85 265.97,-150.41 263.13,-141.4"/>
<polygon fill="midnightblue" stroke="midnightblue" points="266.44,-140.24 260.1,-131.75 259.76,-142.34 266.44,-140.24"/>
</g>
<!-- Node22&#45;&gt;Node4 -->
<g id="edge38" class="edge">
<title>Node22&#45;&gt;Node4</title>
<path fill="none" stroke="midnightblue" d="M583.02,-289.12C671.42,-288.51 864.57,-282.65 916.34,-244 941.55,-225.18 944.34,-210.46 944.34,-179 944.34,-179 944.34,-179 944.34,-121 944.34,-77.74 901.73,-43.09 873.59,-24.91"/>
<polygon fill="midnightblue" stroke="midnightblue" points="875.37,-21.9 865.03,-19.6 871.68,-27.85 875.37,-21.9"/>
</g>
<!-- Node22&#45;&gt;Node5 -->
<g id="edge37" class="edge">
<title>Node22&#45;&gt;Node5</title>
<path fill="none" stroke="midnightblue" d="M514.5,-280.42C494.14,-272.53 464.57,-259.69 441.34,-244 400.43,-216.37 403.56,-191.86 360.34,-168 307.56,-138.86 285.62,-147.82 223.56,-132.17"/>
<polygon fill="midnightblue" stroke="midnightblue" points="224.23,-128.73 213.67,-129.56 222.44,-135.5 224.23,-128.73"/>
</g>
<!-- Node22&#45;&gt;Node6 -->
<g id="edge40" class="edge">
<title>Node22&#45;&gt;Node6</title>
<path fill="none" stroke="midnightblue" d="M537.55,-280.46C536.04,-267.5 531.9,-242.42 521.34,-224 514.86,-212.7 504.8,-202.26 495.84,-194.29"/>
<polygon fill="midnightblue" stroke="midnightblue" points="497.95,-191.49 488.05,-187.71 493.43,-196.84 497.95,-191.49"/>
</g>
<!-- Node22&#45;&gt;Node14 -->
<g id="edge39" class="edge">
<title>Node22&#45;&gt;Node14</title>
<path fill="none" stroke="midnightblue" d="M583.02,-287.28C646.14,-282.15 759.51,-262.44 811.34,-188 848.18,-135.09 749.15,-96.02 689.61,-78.02"/>
<polygon fill="midnightblue" stroke="midnightblue" points="690.29,-74.57 679.71,-75.11 688.32,-81.29 690.29,-74.57"/>
</g>
<!-- Node22&#45;&gt;Node23 -->
<g id="edge41" class="edge">
<title>Node22&#45;&gt;Node23</title>
<path fill="none" stroke="midnightblue" d="M529.18,-280.32C520.84,-272.42 508.31,-260.55 498.16,-250.94"/>
<polygon fill="midnightblue" stroke="midnightblue" points="500.33,-248.17 490.67,-243.83 495.52,-253.25 500.33,-248.17"/>
</g>
<!-- Node23&#45;&gt;Node4 -->
<g id="edge43" class="edge">
<title>Node23&#45;&gt;Node4</title>
<path fill="none" stroke="midnightblue" d="M512.68,-233.21C558.3,-232.15 644.21,-224.9 705.34,-188 771.99,-147.77 821.17,-65 840.43,-28.71"/>
<polygon fill="midnightblue" stroke="midnightblue" points="843.56,-30.27 845.05,-19.78 837.35,-27.05 843.56,-30.27"/>
</g>
<!-- Node23&#45;&gt;Node6 -->
<g id="edge46" class="edge">
<title>Node23&#45;&gt;Node6</title>
<path fill="none" stroke="midnightblue" d="M480.51,-224.08C479.86,-217.01 478.92,-206.86 478.1,-197.99"/>
<polygon fill="midnightblue" stroke="midnightblue" points="481.56,-197.39 477.15,-187.75 474.59,-198.03 481.56,-197.39"/>
</g>
<!-- Node23&#45;&gt;Node13 -->
<g id="edge42" class="edge">
<title>Node23&#45;&gt;Node13</title>
<path fill="none" stroke="midnightblue" d="M512.7,-228.06C561.21,-220.3 657.32,-204.43 738.34,-188 739.6,-187.74 740.89,-187.48 742.19,-187.2"/>
<polygon fill="midnightblue" stroke="midnightblue" points="743.19,-190.57 752.21,-185.01 741.69,-183.73 743.19,-190.57"/>
</g>
<!-- Node23&#45;&gt;Node14 -->
<g id="edge45" class="edge">
<title>Node23&#45;&gt;Node14</title>
<path fill="none" stroke="midnightblue" d="M490.32,-224.08C517.29,-197.27 597.85,-117.19 632.36,-82.89"/>
<polygon fill="midnightblue" stroke="midnightblue" points="635.1,-85.1 639.72,-75.57 630.16,-80.14 635.1,-85.1"/>
</g>
<!-- Node23&#45;&gt;Node18 -->
<g id="edge47" class="edge">
<title>Node23&#45;&gt;Node18</title>
<path fill="none" stroke="midnightblue" d="M450.23,-229.11C403.61,-222.86 313.08,-209.1 238.34,-188 187.62,-173.68 130.85,-150.24 97.71,-135.76"/>
<polygon fill="midnightblue" stroke="midnightblue" points="98.78,-132.41 88.21,-131.58 95.95,-138.82 98.78,-132.41"/>
</g>
<!-- Node23&#45;&gt;Node19 -->
<g id="edge49" class="edge">
<title>Node23&#45;&gt;Node19</title>
<path fill="none" stroke="midnightblue" d="M509.86,-224.44C540.41,-215.28 589.05,-200.69 622.94,-190.52"/>
<polygon fill="midnightblue" stroke="midnightblue" points="624.38,-193.74 632.95,-187.52 622.37,-187.04 624.38,-193.74"/>
</g>
<!-- Node23&#45;&gt;Node20 -->
<g id="edge48" class="edge">
<title>Node23&#45;&gt;Node20</title>
<path fill="none" stroke="midnightblue" d="M449.9,-224.8C412.65,-215.08 350.69,-198.92 311.21,-188.62"/>
<polygon fill="midnightblue" stroke="midnightblue" points="312.01,-185.21 301.45,-186.07 310.24,-191.98 312.01,-185.21"/>
</g>
<!-- Node23&#45;&gt;Node21 -->
<g id="edge44" class="edge">
<title>Node23&#45;&gt;Node21</title>
<path fill="none" stroke="midnightblue" d="M472.4,-224.2C457.96,-210.44 428.11,-183.75 398.34,-168 379.94,-158.27 328.36,-142.83 292.97,-132.81"/>
<polygon fill="midnightblue" stroke="midnightblue" points="293.58,-129.34 283,-130.01 291.68,-136.08 293.58,-129.34"/>
</g>
</g>
</svg>
