<?xml version="1.0" encoding="UTF-8" standalone="no"?>
<!DOCTYPE svg PUBLIC "-//W3C//DTD SVG 1.1//EN"
 "http://www.w3.org/Graphics/SVG/1.1/DTD/svg11.dtd">
<!-- Generated by graphviz version 2.43.0 (0)
 -->
<!-- Title: SyntaxAnalyzer::whileStatement Pages: 1 -->
<svg width="1832pt" height="989pt"
 viewBox="0.00 0.00 1832.00 988.77" xmlns="http://www.w3.org/2000/svg" xmlns:xlink="http://www.w3.org/1999/xlink">
<g id="graph0" class="graph" transform="scale(1 1) rotate(0) translate(4 984.77)">
<title>SyntaxAnalyzer::whileStatement</title>
<!-- Node1 -->
<g id="node1" class="node">
<title>Node1</title>
<g id="a_node1"><a xlink:title=" ">
<polygon fill="#bfbfbf" stroke="black" points="0,-237.27 0,-256.27 176,-256.27 176,-237.27 0,-237.27"/>
<text text-anchor="middle" x="88" y="-244.27" font-family="Helvetica,sans-Serif" font-size="10.00">SyntaxAnalyzer::whileStatement</text>
</a>
</g>
</g>
<!-- Node2 -->
<g id="node2" class="node">
<title>Node2</title>
<g id="a_node2"><a xlink:href="../../d0/dfe/class_syntax_analyzer.html#a5d17bcae2fd7dc11d0710e046c4c3280" target="_top" xlink:title=" ">
<polygon fill="none" stroke="black" points="1507,-275.27 1507,-294.27 1622,-294.27 1622,-275.27 1507,-275.27"/>
<text text-anchor="middle" x="1564.5" y="-282.27" font-family="Helvetica,sans-Serif" font-size="10.00">SyntaxAnalyzer::eat</text>
</a>
</g>
</g>
<!-- Node1&#45;&gt;Node2 -->
<g id="edge1" class="edge">
<title>Node1&#45;&gt;Node2</title>
<path fill="none" stroke="midnightblue" d="M97.14,-237.19C135.73,-192.85 306.05,-9.77 487,-9.77 487,-9.77 487,-9.77 1195,-9.77 1318.82,-9.77 1373.77,28.9 1471,-47.77 1541.02,-102.99 1558.13,-218.52 1562.23,-264.89"/>
<polygon fill="midnightblue" stroke="midnightblue" points="1558.76,-265.4 1563.02,-275.11 1565.74,-264.87 1558.76,-265.4"/>
</g>
<!-- Node5 -->
<g id="node5" class="node">
<title>Node5</title>
<g id="a_node5"><a xlink:href="../../d0/dfe/class_syntax_analyzer.html#af2aa594232ce4574421351ed10331f50" target="_top" xlink:title=" ">
<polygon fill="none" stroke="black" points="615,-629.27 615,-648.27 736,-648.27 736,-629.27 615,-629.27"/>
<text text-anchor="middle" x="675.5" y="-636.27" font-family="Helvetica,sans-Serif" font-size="10.00">SyntaxAnalyzer::expr</text>
</a>
</g>
</g>
<!-- Node1&#45;&gt;Node5 -->
<g id="edge4" class="edge">
<title>Node1&#45;&gt;Node5</title>
<path fill="none" stroke="midnightblue" d="M99,-256.36C136.16,-291.66 270.73,-416.68 397,-498.77 480.9,-553.32 588.88,-602.31 642.01,-625.17"/>
<polygon fill="midnightblue" stroke="midnightblue" points="640.71,-628.42 651.28,-629.13 643.46,-621.98 640.71,-628.42"/>
</g>
<!-- Node18 -->
<g id="node18" class="node">
<title>Node18</title>
<g id="a_node18"><a xlink:href="../../d0/dfe/class_syntax_analyzer.html#a9143c9b9964ff3b8ed26a92a4a383333" target="_top" xlink:title=" ">
<polygon fill="none" stroke="black" points="212,-237.27 212,-256.27 361,-256.27 361,-237.27 212,-237.27"/>
<text text-anchor="middle" x="286.5" y="-244.27" font-family="Helvetica,sans-Serif" font-size="10.00">SyntaxAnalyzer::statement</text>
</a>
</g>
</g>
<!-- Node1&#45;&gt;Node18 -->
<g id="edge37" class="edge">
<title>Node1&#45;&gt;Node18</title>
<path fill="none" stroke="midnightblue" d="M176.05,-240.06C184.51,-240 193.09,-240.01 201.53,-240.09"/>
<polygon fill="midnightblue" stroke="midnightblue" points="201.68,-243.59 211.73,-240.21 201.77,-236.59 201.68,-243.59"/>
</g>
<!-- Node3 -->
<g id="node3" class="node">
<title>Node3</title>
<g id="a_node3"><a xlink:href="../../d0/dfe/class_syntax_analyzer.html#a3ae6c7319e61cd669c417f189b098374" target="_top" xlink:title=" ">
<polygon fill="none" stroke="black" points="1667,-553.27 1667,-572.27 1815,-572.27 1815,-553.27 1667,-553.27"/>
<text text-anchor="middle" x="1741" y="-560.27" font-family="Helvetica,sans-Serif" font-size="10.00">SyntaxAnalyzer::getCurTok</text>
</a>
</g>
</g>
<!-- Node2&#45;&gt;Node3 -->
<g id="edge2" class="edge">
<title>Node2&#45;&gt;Node3</title>
<path fill="none" stroke="midnightblue" d="M1599.03,-294.29C1607.27,-297.83 1615.57,-302.55 1622,-308.77 1692.71,-377.17 1725.35,-496.1 1735.94,-542.97"/>
<polygon fill="midnightblue" stroke="midnightblue" points="1732.58,-544 1738.11,-553.03 1739.42,-542.52 1732.58,-544"/>
</g>
<!-- Node4 -->
<g id="node4" class="node">
<title>Node4</title>
<g id="a_node4"><a xlink:href="../../d0/dfe/class_syntax_analyzer.html#a9e41370d8d74fbd2e77648d2071e7dfe" target="_top" xlink:title=" ">
<polygon fill="none" stroke="black" points="1658,-275.27 1658,-294.27 1824,-294.27 1824,-275.27 1658,-275.27"/>
<text text-anchor="middle" x="1741" y="-282.27" font-family="Helvetica,sans-Serif" font-size="10.00">SyntaxAnalyzer::getNextToken</text>
</a>
</g>
</g>
<!-- Node2&#45;&gt;Node4 -->
<g id="edge3" class="edge">
<title>Node2&#45;&gt;Node4</title>
<path fill="none" stroke="midnightblue" d="M1622.16,-284.77C1630.38,-284.77 1639.02,-284.77 1647.73,-284.77"/>
<polygon fill="midnightblue" stroke="midnightblue" points="1647.96,-288.27 1657.96,-284.77 1647.96,-281.27 1647.96,-288.27"/>
</g>
<!-- Node5&#45;&gt;Node2 -->
<g id="edge5" class="edge">
<title>Node5&#45;&gt;Node2</title>
<path fill="none" stroke="midnightblue" d="M683.94,-629.02C698.84,-610.03 734.18,-567.68 772,-541.77 984.51,-396.19 1054.79,-376.97 1304,-311.77 1368.09,-295.01 1443.64,-288.59 1496.65,-286.16"/>
<polygon fill="midnightblue" stroke="midnightblue" points="1497.09,-289.65 1506.94,-285.73 1496.8,-282.65 1497.09,-289.65"/>
</g>
<!-- Node5&#45;&gt;Node3 -->
<g id="edge6" class="edge">
<title>Node5&#45;&gt;Node3</title>
<path fill="none" stroke="midnightblue" d="M678.94,-648.58C686.91,-678.58 714.99,-770.05 772,-818.77 861.33,-895.11 904.5,-904.77 1022,-904.77 1022,-904.77 1022,-904.77 1388.5,-904.77 1500.54,-904.77 1540.46,-886.61 1622,-809.77 1691.97,-743.83 1725.05,-627.85 1735.84,-582.1"/>
<polygon fill="midnightblue" stroke="midnightblue" points="1739.27,-582.81 1738.06,-572.29 1732.44,-581.27 1739.27,-582.81"/>
</g>
<!-- Node6 -->
<g id="node6" class="node">
<title>Node6</title>
<g id="a_node6"><a xlink:href="../../d0/d11/class_i_token.html#a568cb9d98839eff3fd758f419a76b092" target="_top" xlink:title="Получение типа токена">
<polygon fill="none" stroke="black" points="1518.5,-781.27 1518.5,-800.27 1610.5,-800.27 1610.5,-781.27 1518.5,-781.27"/>
<text text-anchor="middle" x="1564.5" y="-788.27" font-family="Helvetica,sans-Serif" font-size="10.00">IToken::getType</text>
</a>
</g>
</g>
<!-- Node5&#45;&gt;Node6 -->
<g id="edge7" class="edge">
<title>Node5&#45;&gt;Node6</title>
<path fill="none" stroke="midnightblue" d="M682.26,-648.46C695.56,-670.13 730.52,-723.13 772,-754.77 868.81,-828.61 900.25,-866.77 1022,-866.77 1022,-866.77 1022,-866.77 1195,-866.77 1319.01,-866.77 1350.98,-857.01 1471,-825.77 1492.17,-820.26 1515.18,-811.57 1532.95,-804.23"/>
<polygon fill="midnightblue" stroke="midnightblue" points="1534.39,-807.42 1542.24,-800.31 1531.67,-800.97 1534.39,-807.42"/>
</g>
<!-- Node7 -->
<g id="node7" class="node">
<title>Node7</title>
<g id="a_node7"><a xlink:href="../../df/d3f/_syntax_8hpp.html#ae7d62ca130413d4c96863327c1af81a4" target="_top" xlink:title="Возвращает истину, если value находится среди значений cont.">
<polygon fill="none" stroke="black" points="1177,-781.27 1177,-800.27 1211,-800.27 1211,-781.27 1177,-781.27"/>
<text text-anchor="middle" x="1194" y="-788.27" font-family="Helvetica,sans-Serif" font-size="10.00">isIn</text>
</a>
</g>
</g>
<!-- Node5&#45;&gt;Node7 -->
<g id="edge8" class="edge">
<title>Node5&#45;&gt;Node7</title>
<path fill="none" stroke="midnightblue" d="M685.84,-648.51C701.92,-664.7 736.54,-697.1 772,-714.77 908.65,-782.86 1097.28,-790.61 1166.32,-791.02"/>
<polygon fill="midnightblue" stroke="midnightblue" points="1166.71,-794.52 1176.71,-791.02 1166.71,-787.52 1166.71,-794.52"/>
</g>
<!-- Node8 -->
<g id="node8" class="node">
<title>Node8</title>
<g id="a_node8"><a xlink:href="../../d0/dfe/class_syntax_analyzer.html#add298ad1660ec015b461199b46f19de5" target="_top" xlink:title=" ">
<polygon fill="none" stroke="black" points="772,-686.27 772,-705.27 926,-705.27 926,-686.27 772,-686.27"/>
<text text-anchor="middle" x="849" y="-693.27" font-family="Helvetica,sans-Serif" font-size="10.00">SyntaxAnalyzer::simpleExpr</text>
</a>
</g>
</g>
<!-- Node5&#45;&gt;Node8 -->
<g id="edge9" class="edge">
<title>Node5&#45;&gt;Node8</title>
<path fill="none" stroke="midnightblue" d="M705.21,-648.31C733.77,-657.81 777.8,-672.44 809.41,-682.95"/>
<polygon fill="midnightblue" stroke="midnightblue" points="808.61,-686.37 819.2,-686.2 810.82,-679.73 808.61,-686.37"/>
</g>
<!-- Node8&#45;&gt;Node2 -->
<g id="edge10" class="edge">
<title>Node8&#45;&gt;Node2</title>
<path fill="none" stroke="midnightblue" d="M860.78,-685.98C896.21,-654.03 1012.99,-550.85 1120,-479.77 1197.53,-428.28 1219.18,-418.1 1304,-379.77 1379.62,-345.61 1471.52,-314.24 1523.18,-297.49"/>
<polygon fill="midnightblue" stroke="midnightblue" points="1524.51,-300.74 1532.96,-294.34 1522.36,-294.07 1524.51,-300.74"/>
</g>
<!-- Node8&#45;&gt;Node3 -->
<g id="edge11" class="edge">
<title>Node8&#45;&gt;Node3</title>
<path fill="none" stroke="midnightblue" d="M926.22,-689.13C995.69,-683.65 1101.15,-676.77 1193,-676.77 1193,-676.77 1193,-676.77 1388.5,-676.77 1492.62,-676.77 1525.29,-696.35 1622,-657.77 1664.86,-640.68 1704.4,-602.39 1725.04,-579.99"/>
<polygon fill="midnightblue" stroke="midnightblue" points="1727.67,-582.3 1731.75,-572.53 1722.46,-577.62 1727.67,-582.3"/>
</g>
<!-- Node8&#45;&gt;Node6 -->
<g id="edge12" class="edge">
<title>Node8&#45;&gt;Node6</title>
<path fill="none" stroke="midnightblue" d="M863.17,-705.36C883.48,-719.77 924.1,-747.1 962,-763.77 1028.94,-793.23 1047.59,-799.45 1120,-809.77 1258.61,-829.54 1423.84,-811.68 1508.1,-799.65"/>
<polygon fill="midnightblue" stroke="midnightblue" points="1508.83,-803.08 1518.22,-798.18 1507.82,-796.15 1508.83,-803.08"/>
</g>
<!-- Node8&#45;&gt;Node7 -->
<g id="edge13" class="edge">
<title>Node8&#45;&gt;Node7</title>
<path fill="none" stroke="midnightblue" d="M876.05,-705.32C898.62,-713.41 932.24,-725.07 962,-733.77 1035.65,-755.31 1124.04,-775.6 1167,-785.12"/>
<polygon fill="midnightblue" stroke="midnightblue" points="1166.39,-788.57 1176.91,-787.3 1167.9,-781.73 1166.39,-788.57"/>
</g>
<!-- Node9 -->
<g id="node9" class="node">
<title>Node9</title>
<g id="a_node9"><a xlink:href="../../d0/dfe/class_syntax_analyzer.html#ab54102dcb8ab4f72bebeb3e2c34b7310" target="_top" xlink:title=" ">
<polygon fill="none" stroke="black" points="962,-705.27 962,-724.27 1084,-724.27 1084,-705.27 962,-705.27"/>
<text text-anchor="middle" x="1023" y="-712.27" font-family="Helvetica,sans-Serif" font-size="10.00">SyntaxAnalyzer::term</text>
</a>
</g>
</g>
<!-- Node8&#45;&gt;Node9 -->
<g id="edge14" class="edge">
<title>Node8&#45;&gt;Node9</title>
<path fill="none" stroke="midnightblue" d="M926.19,-704.19C934.69,-705.13 943.32,-706.08 951.73,-707.01"/>
<polygon fill="midnightblue" stroke="midnightblue" points="951.55,-710.51 961.87,-708.13 952.32,-703.56 951.55,-710.51"/>
</g>
<!-- Node9&#45;&gt;Node2 -->
<g id="edge15" class="edge">
<title>Node9&#45;&gt;Node2</title>
<path fill="none" stroke="midnightblue" d="M1029.2,-705.1C1042.12,-681.72 1077.71,-621.18 1120,-581.77 1190.38,-516.19 1215.1,-504.53 1304,-467.77 1374.44,-438.65 1408.73,-472.73 1471,-428.77 1516.17,-396.89 1544.54,-335.29 1556.67,-304.01"/>
<polygon fill="midnightblue" stroke="midnightblue" points="1560.08,-304.9 1560.29,-294.3 1553.52,-302.45 1560.08,-304.9"/>
</g>
<!-- Node9&#45;&gt;Node3 -->
<g id="edge34" class="edge">
<title>Node9&#45;&gt;Node3</title>
<path fill="none" stroke="midnightblue" d="M1084.28,-718.11C1216.53,-724.52 1527.81,-734.32 1622,-690.77 1672.77,-667.3 1711.81,-610.86 1729.54,-581.4"/>
<polygon fill="midnightblue" stroke="midnightblue" points="1732.7,-582.93 1734.72,-572.52 1726.66,-579.39 1732.7,-582.93"/>
</g>
<!-- Node9&#45;&gt;Node6 -->
<g id="edge35" class="edge">
<title>Node9&#45;&gt;Node6</title>
<path fill="none" stroke="midnightblue" d="M1068.41,-724.32C1123.46,-735.85 1220.26,-755.15 1304,-766.77 1374.16,-776.51 1455.56,-783.32 1508.22,-787.13"/>
<polygon fill="midnightblue" stroke="midnightblue" points="1508.13,-790.63 1518.35,-787.86 1508.63,-783.65 1508.13,-790.63"/>
</g>
<!-- Node9&#45;&gt;Node7 -->
<g id="edge36" class="edge">
<title>Node9&#45;&gt;Node7</title>
<path fill="none" stroke="midnightblue" d="M1052.54,-724.31C1062.76,-728.21 1074.17,-733.14 1084,-738.77 1101.58,-748.86 1102.11,-757.25 1120,-766.77 1134.88,-774.7 1152.85,-780.64 1167.24,-784.64"/>
<polygon fill="midnightblue" stroke="midnightblue" points="1166.43,-788.04 1176.99,-787.2 1168.2,-781.27 1166.43,-788.04"/>
</g>
<!-- Node10 -->
<g id="node10" class="node">
<title>Node10</title>
<g id="a_node10"><a xlink:href="../../d0/dfe/class_syntax_analyzer.html#a56617069058d10461a1a21685349b2dd" target="_top" xlink:title=" ">
<polygon fill="none" stroke="black" points="1130,-591.27 1130,-610.27 1258,-610.27 1258,-591.27 1130,-591.27"/>
<text text-anchor="middle" x="1194" y="-598.27" font-family="Helvetica,sans-Serif" font-size="10.00">SyntaxAnalyzer::factor</text>
</a>
</g>
</g>
<!-- Node9&#45;&gt;Node10 -->
<g id="edge16" class="edge">
<title>Node9&#45;&gt;Node10</title>
<path fill="none" stroke="midnightblue" d="M1038.12,-705.25C1067.25,-685.6 1134.26,-640.4 1169.83,-616.4"/>
<polygon fill="midnightblue" stroke="midnightblue" points="1172.23,-619.01 1178.56,-610.51 1168.32,-613.2 1172.23,-619.01"/>
</g>
<!-- Node10&#45;&gt;Node2 -->
<g id="edge17" class="edge">
<title>Node10&#45;&gt;Node2</title>
<path fill="none" stroke="midnightblue" d="M1257.2,-591.22C1333.56,-578.99 1454.96,-557.72 1471,-543.77 1490.04,-527.22 1540.7,-361.42 1557.78,-304.13"/>
<polygon fill="midnightblue" stroke="midnightblue" points="1561.16,-305.06 1560.65,-294.47 1554.45,-303.06 1561.16,-305.06"/>
</g>
<!-- Node10&#45;&gt;Node3 -->
<g id="edge19" class="edge">
<title>Node10&#45;&gt;Node3</title>
<path fill="none" stroke="midnightblue" d="M1258.05,-596.38C1356.55,-589.51 1546.98,-576.23 1656.67,-568.58"/>
<polygon fill="midnightblue" stroke="midnightblue" points="1656.97,-572.07 1666.7,-567.88 1656.48,-565.09 1656.97,-572.07"/>
</g>
<!-- Node10&#45;&gt;Node5 -->
<g id="edge18" class="edge">
<title>Node10&#45;&gt;Node5</title>
<path fill="none" stroke="midnightblue" d="M1129.69,-605.43C1032.44,-612.59 846.99,-626.23 746.09,-633.65"/>
<polygon fill="midnightblue" stroke="midnightblue" points="745.72,-630.17 736,-634.4 746.23,-637.15 745.72,-630.17"/>
</g>
<!-- Node10&#45;&gt;Node6 -->
<g id="edge24" class="edge">
<title>Node10&#45;&gt;Node6</title>
<path fill="none" stroke="midnightblue" d="M1213.11,-610.3C1234.71,-621.66 1271.95,-641.18 1304,-657.77 1388.12,-701.32 1487.9,-752.26 1535.51,-776.52"/>
<polygon fill="midnightblue" stroke="midnightblue" points="1534.09,-779.73 1544.59,-781.15 1537.27,-773.49 1534.09,-779.73"/>
</g>
<!-- Node11 -->
<g id="node11" class="node">
<title>Node11</title>
<g id="a_node11"><a xlink:href="../../db/dc1/class_token.html#a014ced0a9ea72ae21fad0d4f116d0a73" target="_top" xlink:title=" ">
<polygon fill="none" stroke="black" points="1345,-629.27 1345,-648.27 1430,-648.27 1430,-629.27 1345,-629.27"/>
<text text-anchor="middle" x="1387.5" y="-636.27" font-family="Helvetica,sans-Serif" font-size="10.00">Token::getInfo</text>
</a>
</g>
</g>
<!-- Node10&#45;&gt;Node11 -->
<g id="edge20" class="edge">
<title>Node10&#45;&gt;Node11</title>
<path fill="none" stroke="midnightblue" d="M1243.32,-610.36C1271.15,-615.89 1306.13,-622.83 1334.55,-628.47"/>
<polygon fill="midnightblue" stroke="midnightblue" points="1334.21,-631.97 1344.7,-630.48 1335.57,-625.1 1334.21,-631.97"/>
</g>
<!-- Node14 -->
<g id="node14" class="node">
<title>Node14</title>
<g id="a_node14"><a xlink:href="../../d0/dfe/class_syntax_analyzer.html#af0905389742c4f842207bb2c073afbfa" target="_top" xlink:title=" ">
<polygon fill="none" stroke="black" points="1310,-477.27 1310,-496.27 1465,-496.27 1465,-477.27 1310,-477.27"/>
<text text-anchor="middle" x="1387.5" y="-484.27" font-family="Helvetica,sans-Serif" font-size="10.00">SyntaxAnalyzer::lookFoward</text>
</a>
</g>
</g>
<!-- Node10&#45;&gt;Node14 -->
<g id="edge25" class="edge">
<title>Node10&#45;&gt;Node14</title>
<path fill="none" stroke="midnightblue" d="M1202.93,-591.25C1219.56,-571.94 1260.17,-528.13 1304,-505.77 1308.63,-503.41 1313.55,-501.34 1318.6,-499.53"/>
<polygon fill="midnightblue" stroke="midnightblue" points="1319.98,-502.76 1328.41,-496.34 1317.82,-496.1 1319.98,-502.76"/>
</g>
<!-- Node16 -->
<g id="node16" class="node">
<title>Node16</title>
<g id="a_node16"><a xlink:href="../../d0/dfe/class_syntax_analyzer.html#a1881c173010f7dea8a147b4195b4a739" target="_top" xlink:title=" ">
<polygon fill="none" stroke="black" points="1318,-389.77 1318,-419.77 1457,-419.77 1457,-389.77 1318,-389.77"/>
<text text-anchor="start" x="1326" y="-407.77" font-family="Helvetica,sans-Serif" font-size="10.00">SyntaxAnalyzer::procCall</text>
<text text-anchor="middle" x="1387.5" y="-396.77" font-family="Helvetica,sans-Serif" font-size="10.00">Statement</text>
</a>
</g>
</g>
<!-- Node10&#45;&gt;Node16 -->
<g id="edge27" class="edge">
<title>Node10&#45;&gt;Node16</title>
<path fill="none" stroke="midnightblue" d="M1201.71,-591.11C1217.84,-568.26 1260.63,-509.68 1304,-467.77 1319.86,-452.45 1339.4,-437.39 1355.48,-425.83"/>
<polygon fill="midnightblue" stroke="midnightblue" points="1357.88,-428.43 1364.02,-419.79 1353.83,-422.71 1357.88,-428.43"/>
</g>
<!-- Node17 -->
<g id="node17" class="node">
<title>Node17</title>
<g id="a_node17"><a xlink:href="../../d0/dfe/class_syntax_analyzer.html#aee4c8631363c115e1e0946bf19cfc340" target="_top" xlink:title=" ">
<polygon fill="none" stroke="black" points="1318,-515.27 1318,-534.27 1457,-534.27 1457,-515.27 1318,-515.27"/>
<text text-anchor="middle" x="1387.5" y="-522.27" font-family="Helvetica,sans-Serif" font-size="10.00">SyntaxAnalyzer::variable</text>
</a>
</g>
</g>
<!-- Node10&#45;&gt;Node17 -->
<g id="edge31" class="edge">
<title>Node10&#45;&gt;Node17</title>
<path fill="none" stroke="midnightblue" d="M1214.33,-591.08C1240.68,-577.96 1286.56,-555.42 1304,-548.77 1315.1,-544.54 1327.29,-540.62 1338.8,-537.22"/>
<polygon fill="midnightblue" stroke="midnightblue" points="1340.06,-540.51 1348.7,-534.38 1338.13,-533.78 1340.06,-540.51"/>
</g>
<!-- Node11&#45;&gt;Node6 -->
<g id="edge22" class="edge">
<title>Node11&#45;&gt;Node6</title>
<path fill="none" stroke="midnightblue" d="M1402.34,-648.36C1419.07,-660.12 1447.86,-680.96 1471,-700.77 1499.02,-724.77 1529.26,-755.12 1547.27,-773.73"/>
<polygon fill="midnightblue" stroke="midnightblue" points="1544.96,-776.38 1554.42,-781.17 1550.01,-771.53 1544.96,-776.38"/>
</g>
<!-- Node12 -->
<g id="node12" class="node">
<title>Node12</title>
<g id="a_node12"><a xlink:href="../../db/dc1/class_token.html#a942fcc40ffdf54c98b7b641c792a26bc" target="_top" xlink:title="Возвращает константную ссылку на строковое представление токена">
<polygon fill="none" stroke="black" points="1524.5,-629.27 1524.5,-648.27 1604.5,-648.27 1604.5,-629.27 1524.5,-629.27"/>
<text text-anchor="middle" x="1564.5" y="-636.27" font-family="Helvetica,sans-Serif" font-size="10.00">Token::getStr</text>
</a>
</g>
</g>
<!-- Node11&#45;&gt;Node12 -->
<g id="edge21" class="edge">
<title>Node11&#45;&gt;Node12</title>
<path fill="none" stroke="midnightblue" d="M1430.42,-638.77C1455.59,-638.77 1487.75,-638.77 1514.15,-638.77"/>
<polygon fill="midnightblue" stroke="midnightblue" points="1514.32,-642.27 1524.32,-638.77 1514.32,-635.27 1514.32,-642.27"/>
</g>
<!-- Node13 -->
<g id="node13" class="node">
<title>Node13</title>
<g id="a_node13"><a xlink:href="../../db/dc1/class_token.html#af3b5fdf2261d637af820d4adb62e6109" target="_top" xlink:title=" ">
<polygon fill="none" stroke="black" points="1530.5,-591.27 1530.5,-610.27 1598.5,-610.27 1598.5,-591.27 1530.5,-591.27"/>
<text text-anchor="middle" x="1564.5" y="-598.27" font-family="Helvetica,sans-Serif" font-size="10.00">Token::line</text>
</a>
</g>
</g>
<!-- Node11&#45;&gt;Node13 -->
<g id="edge23" class="edge">
<title>Node11&#45;&gt;Node13</title>
<path fill="none" stroke="midnightblue" d="M1430.42,-629.67C1457.58,-623.77 1492.89,-616.11 1520.3,-610.15"/>
<polygon fill="midnightblue" stroke="midnightblue" points="1521.36,-613.51 1530.39,-607.96 1519.88,-606.66 1521.36,-613.51"/>
</g>
<!-- Node15 -->
<g id="node15" class="node">
<title>Node15</title>
<g id="a_node15"><a xlink:href="../../d1/d34/class_list.html#a49c179636e084dfbf7a52acd46acaf01" target="_top" xlink:title=" ">
<polygon fill="none" stroke="black" points="1535,-477.27 1535,-496.27 1594,-496.27 1594,-477.27 1535,-477.27"/>
<text text-anchor="middle" x="1564.5" y="-484.27" font-family="Helvetica,sans-Serif" font-size="10.00">List::size</text>
</a>
</g>
</g>
<!-- Node14&#45;&gt;Node15 -->
<g id="edge26" class="edge">
<title>Node14&#45;&gt;Node15</title>
<path fill="none" stroke="midnightblue" d="M1465,-486.77C1485.57,-486.77 1506.96,-486.77 1524.53,-486.77"/>
<polygon fill="midnightblue" stroke="midnightblue" points="1524.93,-490.27 1534.93,-486.77 1524.93,-483.27 1524.93,-490.27"/>
</g>
<!-- Node16&#45;&gt;Node2 -->
<g id="edge28" class="edge">
<title>Node16&#45;&gt;Node2</title>
<path fill="none" stroke="midnightblue" d="M1440.25,-389.76C1450.82,-385.67 1461.58,-380.69 1471,-374.77 1502.89,-354.77 1532.76,-322.26 1549.53,-302.28"/>
<polygon fill="midnightblue" stroke="midnightblue" points="1552.23,-304.5 1555.88,-294.55 1546.83,-300.05 1552.23,-304.5"/>
</g>
<!-- Node16&#45;&gt;Node3 -->
<g id="edge30" class="edge">
<title>Node16&#45;&gt;Node3</title>
<path fill="none" stroke="midnightblue" d="M1457.12,-415.54C1505.15,-424.89 1569.8,-441.21 1622,-467.77 1662.53,-488.4 1702.14,-524.5 1723.59,-545.76"/>
<polygon fill="midnightblue" stroke="midnightblue" points="1721.35,-548.48 1730.88,-553.12 1726.33,-543.56 1721.35,-548.48"/>
</g>
<!-- Node16&#45;&gt;Node5 -->
<g id="edge29" class="edge">
<title>Node16&#45;&gt;Node5</title>
<path fill="none" stroke="midnightblue" d="M1322.91,-419.83C1316.51,-421.46 1310.12,-423.12 1304,-424.77 1072.98,-487.26 803.28,-589.41 710.14,-625.58"/>
<polygon fill="midnightblue" stroke="midnightblue" points="708.72,-622.37 700.67,-629.26 711.26,-628.9 708.72,-622.37"/>
</g>
<!-- Node17&#45;&gt;Node2 -->
<g id="edge32" class="edge">
<title>Node17&#45;&gt;Node2</title>
<path fill="none" stroke="midnightblue" d="M1455.99,-515.11C1461.4,-512.63 1466.5,-509.56 1471,-505.77 1534.35,-452.37 1555.12,-348.27 1561.22,-304.7"/>
<polygon fill="midnightblue" stroke="midnightblue" points="1564.72,-304.91 1562.52,-294.55 1557.77,-304.02 1564.72,-304.91"/>
</g>
<!-- Node17&#45;&gt;Node3 -->
<g id="edge33" class="edge">
<title>Node17&#45;&gt;Node3</title>
<path fill="none" stroke="midnightblue" d="M1457.24,-531.55C1503.77,-536.21 1566.61,-542.64 1622,-548.77 1633.18,-550.01 1644.95,-551.36 1656.55,-552.71"/>
<polygon fill="midnightblue" stroke="midnightblue" points="1656.35,-556.21 1666.69,-553.9 1657.16,-549.26 1656.35,-556.21"/>
</g>
<!-- Node18&#45;&gt;Node1 -->
<g id="edge60" class="edge">
<title>Node18&#45;&gt;Node1</title>
<path fill="none" stroke="midnightblue" d="M211.73,-253.33C203.36,-253.47 194.74,-253.53 186.13,-253.52"/>
<polygon fill="midnightblue" stroke="midnightblue" points="186.06,-250.02 176.05,-253.48 186.03,-257.02 186.06,-250.02"/>
</g>
<!-- Node18&#45;&gt;Node2 -->
<g id="edge50" class="edge">
<title>Node18&#45;&gt;Node2</title>
<path fill="none" stroke="midnightblue" d="M293.14,-237.15C307.22,-214.16 346.46,-156.21 397,-132.77 505.42,-82.51 1370.85,-10.58 1471,-75.77 1537.24,-118.9 1556.4,-221.45 1561.64,-264.84"/>
<polygon fill="midnightblue" stroke="midnightblue" points="1558.18,-265.41 1562.74,-274.97 1565.14,-264.65 1558.18,-265.41"/>
</g>
<!-- Node18&#45;&gt;Node3 -->
<g id="edge52" class="edge">
<title>Node18&#45;&gt;Node3</title>
<path fill="none" stroke="midnightblue" d="M287.85,-256.32C291.55,-342.36 330.56,-980.77 674.5,-980.77 674.5,-980.77 674.5,-980.77 1388.5,-980.77 1435.74,-980.77 1612.67,-910.29 1622,-900.77 1713.41,-807.58 1734.26,-639.8 1738.79,-582.54"/>
<polygon fill="midnightblue" stroke="midnightblue" points="1742.3,-582.57 1739.52,-572.34 1735.32,-582.07 1742.3,-582.57"/>
</g>
<!-- Node18&#45;&gt;Node14 -->
<g id="edge58" class="edge">
<title>Node18&#45;&gt;Node14</title>
<path fill="none" stroke="midnightblue" d="M299.85,-256.34C319.35,-270.93 358.96,-298.53 397,-312.77 715.92,-432.18 1123.91,-470.66 1299.62,-482.2"/>
<polygon fill="midnightblue" stroke="midnightblue" points="1299.64,-485.71 1309.85,-482.86 1300.09,-478.72 1299.64,-485.71"/>
</g>
<!-- Node18&#45;&gt;Node16 -->
<g id="edge59" class="edge">
<title>Node18&#45;&gt;Node16</title>
<path fill="none" stroke="midnightblue" d="M316.25,-256.4C379.97,-276.85 538.24,-322.77 674.5,-322.77 674.5,-322.77 674.5,-322.77 850,-322.77 1019.61,-322.77 1215.95,-363.32 1317.58,-387.39"/>
<polygon fill="midnightblue" stroke="midnightblue" points="1316.87,-390.82 1327.41,-389.73 1318.49,-384.01 1316.87,-390.82"/>
</g>
<!-- Node19 -->
<g id="node19" class="node">
<title>Node19</title>
<g id="a_node19"><a xlink:href="../../d0/dfe/class_syntax_analyzer.html#a77b279fd23cf5b5bc1ddff3af219c572" target="_top" xlink:title=" ">
<polygon fill="none" stroke="black" points="410,-459.77 410,-489.77 566,-489.77 566,-459.77 410,-459.77"/>
<text text-anchor="start" x="418" y="-477.77" font-family="Helvetica,sans-Serif" font-size="10.00">SyntaxAnalyzer::assignment</text>
<text text-anchor="middle" x="488" y="-466.77" font-family="Helvetica,sans-Serif" font-size="10.00">Statement</text>
</a>
</g>
</g>
<!-- Node18&#45;&gt;Node19 -->
<g id="edge38" class="edge">
<title>Node18&#45;&gt;Node19</title>
<path fill="none" stroke="midnightblue" d="M293.81,-256.57C309.7,-280.94 353.27,-345.79 397,-393.77 416.74,-415.43 441.66,-437.51 460.27,-453.14"/>
<polygon fill="midnightblue" stroke="midnightblue" points="458.15,-455.93 468.08,-459.63 462.63,-450.55 458.15,-455.93"/>
</g>
<!-- Node20 -->
<g id="node20" class="node">
<title>Node20</title>
<g id="a_node20"><a xlink:href="../../d0/dfe/class_syntax_analyzer.html#a18eda283535db13ad581c01507bfa2e2" target="_top" xlink:title=" ">
<polygon fill="none" stroke="black" points="1120,-111.77 1120,-141.77 1268,-141.77 1268,-111.77 1120,-111.77"/>
<text text-anchor="start" x="1128" y="-129.77" font-family="Helvetica,sans-Serif" font-size="10.00">SyntaxAnalyzer::compount</text>
<text text-anchor="middle" x="1194" y="-118.77" font-family="Helvetica,sans-Serif" font-size="10.00">Statement</text>
</a>
</g>
</g>
<!-- Node18&#45;&gt;Node20 -->
<g id="edge43" class="edge">
<title>Node18&#45;&gt;Node20</title>
<path fill="none" stroke="midnightblue" d="M304.84,-237.11C326.03,-225.65 363.23,-206.59 397,-194.77 516.56,-152.92 547.83,-129.77 674.5,-129.77 674.5,-129.77 674.5,-129.77 850,-129.77 938.69,-129.77 1040.27,-128.76 1109.73,-127.91"/>
<polygon fill="midnightblue" stroke="midnightblue" points="1109.78,-131.41 1119.74,-127.79 1109.69,-124.41 1109.78,-131.41"/>
</g>
<!-- Node23 -->
<g id="node23" class="node">
<title>Node23</title>
<g id="a_node23"><a xlink:href="../../d0/dfe/class_syntax_analyzer.html#aae4e5ac17a66184fbd91579387c3b2e3" target="_top" xlink:title=" ">
<polygon fill="none" stroke="black" points="397,-38.27 397,-57.27 579,-57.27 579,-38.27 397,-38.27"/>
<text text-anchor="middle" x="488" y="-45.27" font-family="Helvetica,sans-Serif" font-size="10.00">SyntaxAnalyzer::emptyStatement</text>
</a>
</g>
</g>
<!-- Node18&#45;&gt;Node23 -->
<g id="edge51" class="edge">
<title>Node18&#45;&gt;Node23</title>
<path fill="none" stroke="midnightblue" d="M290.68,-237.04C300.9,-207.3 335.88,-116.91 397,-71.77 402.9,-67.41 409.54,-63.85 416.47,-60.93"/>
<polygon fill="midnightblue" stroke="midnightblue" points="417.91,-64.12 426.05,-57.33 415.46,-57.57 417.91,-64.12"/>
</g>
<!-- Node24 -->
<g id="node24" class="node">
<title>Node24</title>
<g id="a_node24"><a xlink:href="../../d0/dfe/class_syntax_analyzer.html#ae42240b66b55987b048d30413116dba2" target="_top" xlink:title=" ">
<polygon fill="none" stroke="black" points="409.5,-237.27 409.5,-256.27 566.5,-256.27 566.5,-237.27 409.5,-237.27"/>
<text text-anchor="middle" x="488" y="-244.27" font-family="Helvetica,sans-Serif" font-size="10.00">SyntaxAnalyzer::ifStatement</text>
</a>
</g>
</g>
<!-- Node18&#45;&gt;Node24 -->
<g id="edge53" class="edge">
<title>Node18&#45;&gt;Node24</title>
<path fill="none" stroke="midnightblue" d="M361.22,-240.23C373.57,-240.03 386.49,-239.98 399.15,-240.07"/>
<polygon fill="midnightblue" stroke="midnightblue" points="399.2,-243.57 409.24,-240.17 399.27,-236.57 399.2,-243.57"/>
</g>
<!-- Node19&#45;&gt;Node2 -->
<g id="edge39" class="edge">
<title>Node19&#45;&gt;Node2</title>
<path fill="none" stroke="midnightblue" d="M533.79,-459.71C655.64,-419.72 1004.14,-312.04 1304,-283.77 1369.28,-277.62 1444.21,-278.79 1496.72,-280.94"/>
<polygon fill="midnightblue" stroke="midnightblue" points="1496.77,-284.44 1506.91,-281.38 1497.08,-277.45 1496.77,-284.44"/>
</g>
<!-- Node19&#45;&gt;Node3 -->
<g id="edge41" class="edge">
<title>Node19&#45;&gt;Node3</title>
<path fill="none" stroke="midnightblue" d="M492.44,-489.82C511.72,-569.92 614.01,-942.77 848,-942.77 848,-942.77 848,-942.77 1388.5,-942.77 1434.36,-942.77 1610.97,-874.54 1622,-863.77 1705.27,-782.51 1731.05,-635.5 1737.85,-582.49"/>
<polygon fill="midnightblue" stroke="midnightblue" points="1741.35,-582.75 1739.06,-572.41 1734.4,-581.92 1741.35,-582.75"/>
</g>
<!-- Node19&#45;&gt;Node5 -->
<g id="edge40" class="edge">
<title>Node19&#45;&gt;Node5</title>
<path fill="none" stroke="midnightblue" d="M506.12,-489.91C540.83,-520.59 619.26,-589.93 655.49,-621.97"/>
<polygon fill="midnightblue" stroke="midnightblue" points="653.54,-624.91 663.35,-628.91 658.17,-619.67 653.54,-624.91"/>
</g>
<!-- Node19&#45;&gt;Node17 -->
<g id="edge42" class="edge">
<title>Node19&#45;&gt;Node17</title>
<path fill="none" stroke="midnightblue" d="M566.3,-479.08C735.47,-488.51 1137.02,-510.88 1307.63,-520.38"/>
<polygon fill="midnightblue" stroke="midnightblue" points="1307.61,-523.88 1317.79,-520.95 1308,-516.9 1307.61,-523.88"/>
</g>
<!-- Node20&#45;&gt;Node2 -->
<g id="edge45" class="edge">
<title>Node20&#45;&gt;Node2</title>
<path fill="none" stroke="midnightblue" d="M1259.6,-141.79C1338.19,-160.19 1461.64,-189.58 1471,-194.77 1504.26,-213.23 1534.08,-246.78 1550.4,-267.29"/>
<polygon fill="midnightblue" stroke="midnightblue" points="1547.64,-269.45 1556.54,-275.21 1553.17,-265.16 1547.64,-269.45"/>
</g>
<!-- Node21 -->
<g id="node21" class="node">
<title>Node21</title>
<g id="a_node21"><a xlink:href="../../db/d47/class_compound.html#a6c1dd1d50fc7444e164c6a5b5d756664" target="_top" xlink:title=" ">
<polygon fill="none" stroke="black" points="1328.5,-85.27 1328.5,-104.27 1446.5,-104.27 1446.5,-85.27 1328.5,-85.27"/>
<text text-anchor="middle" x="1387.5" y="-92.27" font-family="Helvetica,sans-Serif" font-size="10.00">Compound::addChild</text>
</a>
</g>
</g>
<!-- Node20&#45;&gt;Node21 -->
<g id="edge44" class="edge">
<title>Node20&#45;&gt;Node21</title>
<path fill="none" stroke="midnightblue" d="M1268.22,-114.54C1285.01,-111.73 1302.77,-108.76 1319.3,-106"/>
<polygon fill="midnightblue" stroke="midnightblue" points="1320.11,-109.42 1329.4,-104.32 1318.96,-102.51 1320.11,-109.42"/>
</g>
<!-- Node22 -->
<g id="node22" class="node">
<title>Node22</title>
<g id="a_node22"><a xlink:href="../../d0/dfe/class_syntax_analyzer.html#ad8504763c198f311206051b920919a34" target="_top" xlink:title=" ">
<polygon fill="none" stroke="black" points="1304,-123.27 1304,-142.27 1471,-142.27 1471,-123.27 1304,-123.27"/>
<text text-anchor="middle" x="1387.5" y="-130.27" font-family="Helvetica,sans-Serif" font-size="10.00">SyntaxAnalyzer::statementList</text>
</a>
</g>
</g>
<!-- Node20&#45;&gt;Node22 -->
<g id="edge46" class="edge">
<title>Node20&#45;&gt;Node22</title>
<path fill="none" stroke="midnightblue" d="M1268.22,-129.07C1276.57,-129.33 1285.16,-129.6 1293.71,-129.87"/>
<polygon fill="midnightblue" stroke="midnightblue" points="1293.63,-133.37 1303.73,-130.18 1293.85,-126.37 1293.63,-133.37"/>
</g>
<!-- Node22&#45;&gt;Node2 -->
<g id="edge47" class="edge">
<title>Node22&#45;&gt;Node2</title>
<path fill="none" stroke="midnightblue" d="M1441.06,-142.41C1451.57,-145.85 1462.1,-150.5 1471,-156.77 1476.45,-160.62 1527.07,-232.59 1551.03,-266.88"/>
<polygon fill="midnightblue" stroke="midnightblue" points="1548.17,-268.9 1556.77,-275.1 1553.91,-264.9 1548.17,-268.9"/>
</g>
<!-- Node22&#45;&gt;Node3 -->
<g id="edge48" class="edge">
<title>Node22&#45;&gt;Node3</title>
<path fill="none" stroke="midnightblue" d="M1447.68,-142.38C1455.7,-144.63 1463.68,-147.39 1471,-150.77 1547.58,-186.16 1571.01,-198.57 1622,-265.77 1690.9,-356.59 1725.21,-492.94 1736.08,-543.24"/>
<polygon fill="midnightblue" stroke="midnightblue" points="1732.67,-544.04 1738.14,-553.12 1739.52,-542.61 1732.67,-544.04"/>
</g>
<!-- Node22&#45;&gt;Node18 -->
<g id="edge49" class="edge">
<title>Node22&#45;&gt;Node18</title>
<path fill="none" stroke="midnightblue" d="M1346.73,-142.32C1258.11,-162.73 1037.44,-208.77 850,-208.77 674.5,-208.77 674.5,-208.77 674.5,-208.77 550.88,-208.77 519.73,-212.96 397,-227.77 380.42,-229.77 362.54,-232.59 346.13,-235.45"/>
<polygon fill="midnightblue" stroke="midnightblue" points="345.36,-232.03 336.13,-237.23 346.58,-238.92 345.36,-232.03"/>
</g>
<!-- Node24&#45;&gt;Node2 -->
<g id="edge54" class="edge">
<title>Node24&#45;&gt;Node2</title>
<path fill="none" stroke="midnightblue" d="M562.18,-237.26C579.47,-235.39 597.86,-233.72 615,-232.77 994.86,-211.74 1102.96,-136.42 1471,-232.77 1497.71,-239.77 1524.85,-256.4 1542.76,-268.98"/>
<polygon fill="midnightblue" stroke="midnightblue" points="1541.08,-272.09 1551.24,-275.12 1545.19,-266.42 1541.08,-272.09"/>
</g>
<!-- Node24&#45;&gt;Node3 -->
<g id="edge56" class="edge">
<title>Node24&#45;&gt;Node3</title>
<path fill="none" stroke="midnightblue" d="M566.73,-246.77C639.45,-246.77 751.08,-246.77 848,-246.77 848,-246.77 848,-246.77 1024,-246.77 1301.18,-246.77 1389.75,-272.49 1622,-423.77 1671.09,-455.75 1710.88,-514.14 1729.15,-544.04"/>
<polygon fill="midnightblue" stroke="midnightblue" points="1726.38,-546.22 1734.51,-553.01 1732.38,-542.63 1726.38,-546.22"/>
</g>
<!-- Node24&#45;&gt;Node5 -->
<g id="edge55" class="edge">
<title>Node24&#45;&gt;Node5</title>
<path fill="none" stroke="midnightblue" d="M493.59,-256.46C517.94,-307.94 632.31,-549.61 665.47,-619.69"/>
<polygon fill="midnightblue" stroke="midnightblue" points="662.47,-621.53 669.91,-629.07 668.8,-618.54 662.47,-621.53"/>
</g>
<!-- Node24&#45;&gt;Node18 -->
<g id="edge57" class="edge">
<title>Node24&#45;&gt;Node18</title>
<path fill="none" stroke="midnightblue" d="M409.24,-253.38C396.77,-253.55 383.83,-253.57 371.23,-253.45"/>
<polygon fill="midnightblue" stroke="midnightblue" points="371.26,-249.95 361.22,-253.32 371.17,-256.95 371.26,-249.95"/>
</g>
</g>
</svg>
