<?xml version="1.0" encoding="UTF-8" standalone="no"?>
<!DOCTYPE svg PUBLIC "-//W3C//DTD SVG 1.1//EN"
 "http://www.w3.org/Graphics/SVG/1.1/DTD/svg11.dtd">
<!-- Generated by graphviz version 3.0.0 (20220413.0106)
 -->
<!-- Title: SyntaxAnalyzer::syntaxFactor Pages: 1 -->
<svg width="2610pt" height="265pt"
 viewBox="0.00 0.00 2610.00 265.00" xmlns="http://www.w3.org/2000/svg" xmlns:xlink="http://www.w3.org/1999/xlink">
<g id="graph0" class="graph" transform="scale(1 1) rotate(0) translate(4 261)">
<title>SyntaxAnalyzer::syntaxFactor</title>
<!-- Node1 -->
<g id="node1" class="node">
<title>Node1</title>
<g id="a_node1"><a xlink:title=" ">
<polygon fill="#bfbfbf" stroke="black" points="2459,-105.5 2459,-124.5 2602,-124.5 2602,-105.5 2459,-105.5"/>
<text text-anchor="middle" x="2530.5" y="-112.5" font-family="Helvetica,sans-Serif" font-size="10.00">SyntaxAnalyzer::syntaxFactor</text>
</a>
</g>
</g>
<!-- Node1&#45;&gt;Node1 -->
<g id="edge1" class="edge">
<title>Node1&#45;&gt;Node1</title>
<path fill="none" stroke="midnightblue" d="M2563.48,-132.89C2563,-138.54 2552.01,-143 2530.5,-143 2499.22,-143 2490.18,-133.57 2503.37,-124.76"/>
<polygon fill="midnightblue" stroke="midnightblue" points="2566.31,-130.83 2557.63,-124.76 2560.63,-134.92 2566.31,-130.83"/>
</g>
<!-- Node2 -->
<g id="node2" class="node">
<title>Node2</title>
<g id="a_node2"><a xlink:href="../../d0/dfe/class_syntax_analyzer.html#aea3a3d1860938d64edf651bdc4016c04" target="_top" xlink:title=" ">
<polygon fill="none" stroke="black" points="1543,-171.5 1543,-190.5 1682,-190.5 1682,-171.5 1543,-171.5"/>
<text text-anchor="middle" x="1612.5" y="-178.5" font-family="Helvetica,sans-Serif" font-size="10.00">SyntaxAnalyzer::syntaxIterSt</text>
</a>
</g>
</g>
<!-- Node1&#45;&gt;Node2 -->
<g id="edge2" class="edge">
<title>Node1&#45;&gt;Node2</title>
<path fill="none" stroke="midnightblue" d="M2507.68,-130.35C2453.26,-167.08 2306.03,-257 2169,-257 2169,-257 2169,-257 1982,-257 1852.01,-257 1701.44,-211.08 1640.84,-190.63"/>
<polygon fill="midnightblue" stroke="midnightblue" points="2509.9,-133.07 2516.17,-124.54 2505.94,-127.3 2509.9,-133.07"/>
</g>
<!-- Node15 -->
<g id="node15" class="node">
<title>Node15</title>
<g id="a_node15"><a xlink:href="../../d0/dfe/class_syntax_analyzer.html#a1e9b913cc8c2861927d7c05d10f1822d" target="_top" xlink:title=" ">
<polygon fill="none" stroke="black" points="2286,-124.5 2286,-143.5 2423,-143.5 2423,-124.5 2286,-124.5"/>
<text text-anchor="middle" x="2354.5" y="-131.5" font-family="Helvetica,sans-Serif" font-size="10.00">SyntaxAnalyzer::syntaxTerm</text>
</a>
</g>
</g>
<!-- Node1&#45;&gt;Node15 -->
<g id="edge20" class="edge">
<title>Node1&#45;&gt;Node15</title>
<path fill="none" stroke="midnightblue" d="M2448.88,-123.8C2440.23,-124.75 2431.5,-125.7 2423.02,-126.63"/>
<polygon fill="midnightblue" stroke="midnightblue" points="2449.42,-127.27 2458.98,-122.7 2448.66,-120.31 2449.42,-127.27"/>
</g>
<!-- Node3 -->
<g id="node3" class="node">
<title>Node3</title>
<g id="a_node3"><a xlink:href="../../d0/dfe/class_syntax_analyzer.html#a82e8472ea6d1064871de0d05eaa8b374" target="_top" xlink:title=" ">
<polygon fill="none" stroke="black" points="1361,-171.5 1361,-190.5 1500,-190.5 1500,-171.5 1361,-171.5"/>
<text text-anchor="middle" x="1430.5" y="-178.5" font-family="Helvetica,sans-Serif" font-size="10.00">SyntaxAnalyzer::syntaxForSt</text>
</a>
</g>
</g>
<!-- Node2&#45;&gt;Node3 -->
<g id="edge3" class="edge">
<title>Node2&#45;&gt;Node3</title>
<path fill="none" stroke="midnightblue" d="M1532.65,-181C1521.83,-181 1510.79,-181 1500.17,-181"/>
<polygon fill="midnightblue" stroke="midnightblue" points="1532.94,-184.5 1542.94,-181 1532.94,-177.5 1532.94,-184.5"/>
</g>
<!-- Node4 -->
<g id="node4" class="node">
<title>Node4</title>
<g id="a_node4"><a xlink:href="../../d0/dfe/class_syntax_analyzer.html#a7f54bde730006b1b863290415809ab4e" target="_top" xlink:title=" ">
<polygon fill="none" stroke="black" points="1200,-133.5 1200,-152.5 1325,-152.5 1325,-133.5 1200,-133.5"/>
<text text-anchor="middle" x="1262.5" y="-140.5" font-family="Helvetica,sans-Serif" font-size="10.00">SyntaxAnalyzer::syntaxSt</text>
</a>
</g>
</g>
<!-- Node3&#45;&gt;Node4 -->
<g id="edge4" class="edge">
<title>Node3&#45;&gt;Node4</title>
<path fill="none" stroke="midnightblue" d="M1398.36,-168.47C1377.78,-162.51 1350.09,-155.79 1325.16,-150.57"/>
<polygon fill="midnightblue" stroke="midnightblue" points="1397.55,-171.88 1408.14,-171.41 1399.57,-165.17 1397.55,-171.88"/>
</g>
<!-- Node4&#45;&gt;Node3 -->
<g id="edge5" class="edge">
<title>Node4&#45;&gt;Node3</title>
<path fill="none" stroke="midnightblue" d="M1294.44,-155.48C1313.06,-160.87 1337.54,-166.9 1360.54,-171.88"/>
<polygon fill="midnightblue" stroke="midnightblue" points="1295.33,-152.09 1284.75,-152.56 1293.31,-158.79 1295.33,-152.09"/>
</g>
<!-- Node5 -->
<g id="node5" class="node">
<title>Node5</title>
<g id="a_node5"><a xlink:href="../../d0/dfe/class_syntax_analyzer.html#a779e006875d35926152773989f4b1e5a" target="_top" xlink:title=" ">
<polygon fill="none" stroke="black" points="1024,-76.5 1024,-95.5 1155,-95.5 1155,-76.5 1024,-76.5"/>
<text text-anchor="middle" x="1089.5" y="-83.5" font-family="Helvetica,sans-Serif" font-size="10.00">SyntaxAnalyzer::syntaxIfSt</text>
</a>
</g>
</g>
<!-- Node4&#45;&gt;Node5 -->
<g id="edge6" class="edge">
<title>Node4&#45;&gt;Node5</title>
<path fill="none" stroke="midnightblue" d="M1242.93,-128.27C1223.49,-117.81 1191.95,-105.02 1164,-96 1161.12,-95.07 1158.16,-94.15 1155.16,-93.26"/>
<polygon fill="midnightblue" stroke="midnightblue" points="1241.27,-131.35 1251.67,-133.34 1244.78,-125.3 1241.27,-131.35"/>
</g>
<!-- Node6 -->
<g id="node6" class="node">
<title>Node6</title>
<g id="a_node6"><a xlink:href="../../d0/dfe/class_syntax_analyzer.html#a6df61a82ef9de3c17b78be89a321a087" target="_top" xlink:title=" ">
<polygon fill="none" stroke="black" points="1019,-114.5 1019,-133.5 1160,-133.5 1160,-114.5 1019,-114.5"/>
<text text-anchor="middle" x="1089.5" y="-121.5" font-family="Helvetica,sans-Serif" font-size="10.00">SyntaxAnalyzer::syntaxStList</text>
</a>
</g>
</g>
<!-- Node4&#45;&gt;Node6 -->
<g id="edge8" class="edge">
<title>Node4&#45;&gt;Node6</title>
<path fill="none" stroke="midnightblue" d="M1189.72,-135.02C1179.97,-133.94 1169.98,-132.83 1160.27,-131.75"/>
<polygon fill="midnightblue" stroke="midnightblue" points="1189.44,-138.51 1199.77,-136.14 1190.21,-131.56 1189.44,-138.51"/>
</g>
<!-- Node14 -->
<g id="node14" class="node">
<title>Node14</title>
<g id="a_node14"><a xlink:href="../../d0/dfe/class_syntax_analyzer.html#a64dad7f0b22b08d182483469d3a1aa79" target="_top" xlink:title=" ">
<polygon fill="none" stroke="black" points="1015,-190.5 1015,-209.5 1164,-209.5 1164,-190.5 1015,-190.5"/>
<text text-anchor="middle" x="1089.5" y="-197.5" font-family="Helvetica,sans-Serif" font-size="10.00">SyntaxAnalyzer::syntaxWhileSt</text>
</a>
</g>
</g>
<!-- Node4&#45;&gt;Node14 -->
<g id="edge18" class="edge">
<title>Node4&#45;&gt;Node14</title>
<path fill="none" stroke="midnightblue" d="M1198.06,-155.73C1186.72,-159.41 1175.02,-163.34 1164,-167 1141.71,-174.41 1115.55,-182.91 1101.22,-190.41"/>
<polygon fill="midnightblue" stroke="midnightblue" points="1199.44,-158.96 1207.89,-152.58 1197.3,-152.3 1199.44,-158.96"/>
</g>
<!-- Node5&#45;&gt;Node4 -->
<g id="edge7" class="edge">
<title>Node5&#45;&gt;Node4</title>
<path fill="none" stroke="midnightblue" d="M1113.62,-98.98C1128.2,-103.71 1147.35,-108.62 1164,-114 1182.15,-119.86 1201.82,-127.31 1218.7,-133.43"/>
<polygon fill="midnightblue" stroke="midnightblue" points="1114.51,-95.58 1103.91,-95.55 1112.18,-102.18 1114.51,-95.58"/>
</g>
<!-- Node7 -->
<g id="node7" class="node">
<title>Node7</title>
<g id="a_node7"><a xlink:href="../../d0/dfe/class_syntax_analyzer.html#a5770afdc4d32d2c38550f27f9ffd949a" target="_top" xlink:title=" ">
<polygon fill="none" stroke="black" points="808,-133.5 808,-152.5 979,-152.5 979,-133.5 808,-133.5"/>
<text text-anchor="middle" x="893.5" y="-140.5" font-family="Helvetica,sans-Serif" font-size="10.00">SyntaxAnalyzer::syntaxCompoundSt</text>
</a>
</g>
</g>
<!-- Node6&#45;&gt;Node7 -->
<g id="edge9" class="edge">
<title>Node6&#45;&gt;Node7</title>
<path fill="none" stroke="midnightblue" d="M1008.7,-131.82C998.97,-132.77 989.01,-133.74 979.21,-134.7"/>
<polygon fill="midnightblue" stroke="midnightblue" points="1009.12,-135.29 1018.74,-130.83 1008.44,-128.32 1009.12,-135.29"/>
</g>
<!-- Node7&#45;&gt;Node4 -->
<g id="edge17" class="edge">
<title>Node7&#45;&gt;Node4</title>
<path fill="none" stroke="midnightblue" d="M989.36,-143C1055.61,-143 1142.14,-143 1199.66,-143"/>
<polygon fill="midnightblue" stroke="midnightblue" points="989.32,-139.5 979.32,-143 989.32,-146.5 989.32,-139.5"/>
</g>
<!-- Node8 -->
<g id="node8" class="node">
<title>Node8</title>
<g id="a_node8"><a xlink:href="../../d0/dfe/class_syntax_analyzer.html#a2b54bac50e114b68e83c80d869b6ac7c" target="_top" xlink:title=" ">
<polygon fill="none" stroke="black" points="632,-133.5 632,-152.5 772,-152.5 772,-133.5 632,-133.5"/>
<text text-anchor="middle" x="702" y="-140.5" font-family="Helvetica,sans-Serif" font-size="10.00">SyntaxAnalyzer::syntaxBlock</text>
</a>
</g>
</g>
<!-- Node7&#45;&gt;Node8 -->
<g id="edge10" class="edge">
<title>Node7&#45;&gt;Node8</title>
<path fill="none" stroke="midnightblue" d="M797.63,-143C789.02,-143 780.41,-143 772.08,-143"/>
<polygon fill="midnightblue" stroke="midnightblue" points="797.73,-146.5 807.73,-143 797.73,-139.5 797.73,-146.5"/>
</g>
<!-- Node9 -->
<g id="node9" class="node">
<title>Node9</title>
<g id="a_node9"><a xlink:href="../../d0/dfe/class_syntax_analyzer.html#ae04232a95c6423677e600927c82851e4" target="_top" xlink:title=" ">
<polygon fill="none" stroke="black" points="444,-114.5 444,-133.5 596,-133.5 596,-114.5 444,-114.5"/>
<text text-anchor="middle" x="520" y="-121.5" font-family="Helvetica,sans-Serif" font-size="10.00">SyntaxAnalyzer::syntaxFuncDef</text>
</a>
</g>
</g>
<!-- Node8&#45;&gt;Node9 -->
<g id="edge11" class="edge">
<title>Node8&#45;&gt;Node9</title>
<path fill="none" stroke="midnightblue" d="M621.95,-134.66C613.39,-133.75 604.69,-132.83 596.18,-131.94"/>
<polygon fill="midnightblue" stroke="midnightblue" points="621.61,-138.14 631.92,-135.71 622.34,-131.18 621.61,-138.14"/>
</g>
<!-- Node10 -->
<g id="node10" class="node">
<title>Node10</title>
<g id="a_node10"><a xlink:href="../../d0/dfe/class_syntax_analyzer.html#a8b337bd5b4a90cd5bd804a936e408e4b" target="_top" xlink:title=" ">
<polygon fill="none" stroke="black" points="256,-133.5 256,-152.5 408,-152.5 408,-133.5 256,-133.5"/>
<text text-anchor="middle" x="332" y="-140.5" font-family="Helvetica,sans-Serif" font-size="10.00">SyntaxAnalyzer::syntaxProgram</text>
</a>
</g>
</g>
<!-- Node8&#45;&gt;Node10 -->
<g id="edge16" class="edge">
<title>Node8&#45;&gt;Node10</title>
<path fill="none" stroke="midnightblue" d="M621.46,-143C558.21,-143 470.34,-143 408.24,-143"/>
<polygon fill="midnightblue" stroke="midnightblue" points="621.78,-146.5 631.78,-143 621.78,-139.5 621.78,-146.5"/>
</g>
<!-- Node9&#45;&gt;Node10 -->
<g id="edge12" class="edge">
<title>Node9&#45;&gt;Node10</title>
<path fill="none" stroke="midnightblue" d="M433.85,-132.7C425.26,-133.58 416.57,-134.46 408.1,-135.33"/>
<polygon fill="midnightblue" stroke="midnightblue" points="434.29,-136.17 443.88,-131.67 433.58,-129.21 434.29,-136.17"/>
</g>
<!-- Node11 -->
<g id="node11" class="node">
<title>Node11</title>
<g id="a_node11"><a xlink:href="../../d0/dfe/class_syntax_analyzer.html#a96cd5f6a041dae613d1c75175e26592e" target="_top" xlink:title=" ">
<polygon fill="none" stroke="black" points="77,-133.5 77,-152.5 220,-152.5 220,-133.5 77,-133.5"/>
<text text-anchor="middle" x="148.5" y="-140.5" font-family="Helvetica,sans-Serif" font-size="10.00">SyntaxAnalyzer::parseTokens</text>
</a>
</g>
</g>
<!-- Node10&#45;&gt;Node11 -->
<g id="edge13" class="edge">
<title>Node10&#45;&gt;Node11</title>
<path fill="none" stroke="midnightblue" d="M245.84,-143C237.26,-143 228.61,-143 220.21,-143"/>
<polygon fill="midnightblue" stroke="midnightblue" points="245.87,-146.5 255.87,-143 245.87,-139.5 245.87,-146.5"/>
</g>
<!-- Node12 -->
<g id="node12" class="node">
<title>Node12</title>
<g id="a_node12"><a xlink:href="../../d3/db4/graph_draw_8cpp.html#a3c04138a5bfe5d72780bb7e82a18e627" target="_top" xlink:title=" ">
<polygon fill="none" stroke="black" points="1.5,-152.5 1.5,-171.5 39.5,-171.5 39.5,-152.5 1.5,-152.5"/>
<text text-anchor="middle" x="20.5" y="-159.5" font-family="Helvetica,sans-Serif" font-size="10.00">main</text>
</a>
</g>
</g>
<!-- Node11&#45;&gt;Node12 -->
<g id="edge14" class="edge">
<title>Node11&#45;&gt;Node12</title>
<path fill="none" stroke="midnightblue" d="M74.24,-154.05C61.4,-155.98 49.15,-157.83 39.69,-159.26"/>
<polygon fill="midnightblue" stroke="midnightblue" points="74.76,-157.51 84.13,-152.56 73.72,-150.59 74.76,-157.51"/>
</g>
<!-- Node13 -->
<g id="node13" class="node">
<title>Node13</title>
<g id="a_node13"><a xlink:href="../../dd/de9/test_syntax_8cpp.html#ac491df98e51a6bba8b808af414b6614f" target="_top" xlink:title="Тест синтаксического анализа Паскаля, простой тест">
<polygon fill="none" stroke="black" points="0,-114.5 0,-133.5 41,-133.5 41,-114.5 0,-114.5"/>
<text text-anchor="middle" x="20.5" y="-121.5" font-family="Helvetica,sans-Serif" font-size="10.00">TEST</text>
</a>
</g>
</g>
<!-- Node11&#45;&gt;Node13 -->
<g id="edge15" class="edge">
<title>Node11&#45;&gt;Node13</title>
<path fill="none" stroke="midnightblue" d="M73.88,-131.9C61.78,-130.07 50.22,-128.33 41.05,-126.95"/>
<polygon fill="midnightblue" stroke="midnightblue" points="73.72,-135.41 84.13,-133.44 74.76,-128.49 73.72,-135.41"/>
</g>
<!-- Node14&#45;&gt;Node4 -->
<g id="edge19" class="edge">
<title>Node14&#45;&gt;Node4</title>
<path fill="none" stroke="midnightblue" d="M1157.13,-187.28C1159.45,-186.51 1161.74,-185.75 1164,-185 1195.2,-174.63 1231.92,-162.12 1250.11,-152.56"/>
<polygon fill="midnightblue" stroke="midnightblue" points="1155.92,-183.99 1147.5,-190.42 1158.09,-190.64 1155.92,-183.99"/>
</g>
<!-- Node16 -->
<g id="node16" class="node">
<title>Node16</title>
<g id="a_node16"><a xlink:href="../../d0/dfe/class_syntax_analyzer.html#a3dfb6634a4bcdc61da5b1bafd1f3d136" target="_top" xlink:title=" ">
<polygon fill="none" stroke="black" points="2086,-124.5 2086,-143.5 2250,-143.5 2250,-124.5 2086,-124.5"/>
<text text-anchor="middle" x="2168" y="-131.5" font-family="Helvetica,sans-Serif" font-size="10.00">SyntaxAnalyzer::syntaxSimpleExpr</text>
</a>
</g>
</g>
<!-- Node15&#45;&gt;Node16 -->
<g id="edge21" class="edge">
<title>Node15&#45;&gt;Node16</title>
<path fill="none" stroke="midnightblue" d="M2275.65,-134C2267.2,-134 2258.59,-134 2250.11,-134"/>
<polygon fill="midnightblue" stroke="midnightblue" points="2275.85,-137.5 2285.85,-134 2275.85,-130.5 2275.85,-137.5"/>
</g>
<!-- Node17 -->
<g id="node17" class="node">
<title>Node17</title>
<g id="a_node17"><a xlink:href="../../d0/dfe/class_syntax_analyzer.html#ae8d09db1b25ec882248aeed978c13a4d" target="_top" xlink:title=" ">
<polygon fill="none" stroke="black" points="1916,-95.5 1916,-114.5 2050,-114.5 2050,-95.5 1916,-95.5"/>
<text text-anchor="middle" x="1983" y="-102.5" font-family="Helvetica,sans-Serif" font-size="10.00">SyntaxAnalyzer::syntaxExpr</text>
</a>
</g>
</g>
<!-- Node16&#45;&gt;Node17 -->
<g id="edge22" class="edge">
<title>Node16&#45;&gt;Node17</title>
<path fill="none" stroke="midnightblue" d="M2096.76,-122.87C2079.43,-120.12 2061.02,-117.21 2044.21,-114.54"/>
<polygon fill="midnightblue" stroke="midnightblue" points="2096.4,-126.36 2106.83,-124.46 2097.5,-119.44 2096.4,-126.36"/>
</g>
<!-- Node17&#45;&gt;Node1 -->
<g id="edge29" class="edge">
<title>Node17&#45;&gt;Node1</title>
<path fill="none" stroke="midnightblue" d="M2060.65,-106.41C2166.54,-108.35 2356.08,-111.82 2458.74,-113.7"/>
<polygon fill="midnightblue" stroke="midnightblue" points="2060.42,-102.9 2050.36,-106.22 2060.29,-109.9 2060.42,-102.9"/>
</g>
<!-- Node17&#45;&gt;Node5 -->
<g id="edge30" class="edge">
<title>Node17&#45;&gt;Node5</title>
<path fill="none" stroke="midnightblue" d="M1905.73,-98.7C1846.64,-94.14 1762.69,-88.39 1689,-86 1494.8,-79.71 1264.96,-82.61 1155.17,-84.63"/>
<polygon fill="midnightblue" stroke="midnightblue" points="1905.49,-102.19 1915.73,-99.47 1906.03,-95.21 1905.49,-102.19"/>
</g>
<!-- Node17&#45;&gt;Node14 -->
<g id="edge33" class="edge">
<title>Node17&#45;&gt;Node14</title>
<path fill="none" stroke="midnightblue" d="M1959.71,-120.04C1939.66,-132.93 1908.97,-151.09 1880,-162 1766.65,-204.69 1734.62,-219 1613.5,-219 1613.5,-219 1613.5,-219 1429.5,-219 1337.99,-219 1232.79,-212.01 1164.17,-206.51"/>
<polygon fill="midnightblue" stroke="midnightblue" points="1961.68,-122.94 1968.13,-114.53 1957.85,-117.08 1961.68,-122.94"/>
</g>
<!-- Node18 -->
<g id="node18" class="node">
<title>Node18</title>
<g id="a_node18"><a xlink:href="../../d0/dfe/class_syntax_analyzer.html#a31fc5887c158652feb946f89270b4b36" target="_top" xlink:title=" ">
<polygon fill="none" stroke="black" points="1725,-133.5 1725,-152.5 1880,-152.5 1880,-133.5 1725,-133.5"/>
<text text-anchor="middle" x="1802.5" y="-140.5" font-family="Helvetica,sans-Serif" font-size="10.00">SyntaxAnalyzer::syntaxAssignSt</text>
</a>
</g>
</g>
<!-- Node17&#45;&gt;Node18 -->
<g id="edge23" class="edge">
<title>Node17&#45;&gt;Node18</title>
<path fill="none" stroke="midnightblue" d="M1927.13,-116.68C1901.82,-122.07 1872.15,-128.39 1848.22,-133.48"/>
<polygon fill="midnightblue" stroke="midnightblue" points="1927.9,-120.09 1936.96,-114.59 1926.45,-113.25 1927.9,-120.09"/>
</g>
<!-- Node19 -->
<g id="node19" class="node">
<title>Node19</title>
<g id="a_node19"><a xlink:href="../../d0/dfe/class_syntax_analyzer.html#a2db43946bee3e973ce1cf293b262e271" target="_top" xlink:title=" ">
<polygon fill="none" stroke="black" points="1732,-0.5 1732,-19.5 1873,-19.5 1873,-0.5 1732,-0.5"/>
<text text-anchor="middle" x="1802.5" y="-7.5" font-family="Helvetica,sans-Serif" font-size="10.00">SyntaxAnalyzer::syntaxCallSt</text>
</a>
</g>
</g>
<!-- Node17&#45;&gt;Node19 -->
<g id="edge26" class="edge">
<title>Node17&#45;&gt;Node19</title>
<path fill="none" stroke="midnightblue" d="M1962.91,-89.03C1943.2,-73.22 1911.05,-49.23 1880,-34 1868,-28.12 1854.25,-23.27 1841.74,-19.51"/>
<polygon fill="midnightblue" stroke="midnightblue" points="1960.83,-91.85 1970.79,-95.46 1965.25,-86.43 1960.83,-91.85"/>
</g>
<!-- Node20 -->
<g id="node20" class="node">
<title>Node20</title>
<g id="a_node20"><a xlink:href="../../d0/dfe/class_syntax_analyzer.html#a55e935b2aa7f20b66e9228e977582fcd" target="_top" xlink:title=" ">
<polygon fill="none" stroke="black" points="1536,-95.5 1536,-114.5 1689,-114.5 1689,-95.5 1536,-95.5"/>
<text text-anchor="middle" x="1612.5" y="-102.5" font-family="Helvetica,sans-Serif" font-size="10.00">SyntaxAnalyzer::syntaxReturnSt</text>
</a>
</g>
</g>
<!-- Node17&#45;&gt;Node20 -->
<g id="edge31" class="edge">
<title>Node17&#45;&gt;Node20</title>
<path fill="none" stroke="midnightblue" d="M1905.35,-105C1841.91,-105 1752.28,-105 1689.12,-105"/>
<polygon fill="midnightblue" stroke="midnightblue" points="1905.69,-108.5 1915.69,-105 1905.69,-101.5 1905.69,-108.5"/>
</g>
<!-- Node18&#45;&gt;Node2 -->
<g id="edge24" class="edge">
<title>Node18&#45;&gt;Node2</title>
<path fill="none" stroke="midnightblue" d="M1744.06,-154.61C1717.33,-160.01 1685.91,-166.36 1660.6,-171.48"/>
<polygon fill="midnightblue" stroke="midnightblue" points="1744.95,-158 1754.06,-152.59 1743.56,-151.14 1744.95,-158"/>
</g>
<!-- Node18&#45;&gt;Node4 -->
<g id="edge25" class="edge">
<title>Node18&#45;&gt;Node4</title>
<path fill="none" stroke="midnightblue" d="M1714.67,-143C1605.5,-143 1420.84,-143 1325.13,-143"/>
<polygon fill="midnightblue" stroke="midnightblue" points="1714.99,-146.5 1724.99,-143 1714.99,-139.5 1714.99,-146.5"/>
</g>
<!-- Node19&#45;&gt;Node1 -->
<g id="edge27" class="edge">
<title>Node19&#45;&gt;Node1</title>
<path fill="none" stroke="midnightblue" d="M1879.32,-20.97C2022.21,-41.63 2329.06,-86.01 2463.79,-105.5"/>
<polygon fill="midnightblue" stroke="midnightblue" points="1879.72,-17.49 1869.32,-19.52 1878.72,-24.41 1879.72,-17.49"/>
</g>
<!-- Node19&#45;&gt;Node4 -->
<g id="edge28" class="edge">
<title>Node19&#45;&gt;Node4</title>
<path fill="none" stroke="midnightblue" d="M1741.87,-21.5C1656.73,-38.39 1495.73,-72.02 1361,-110 1336.4,-116.93 1308.86,-126.42 1289.34,-133.44"/>
<polygon fill="midnightblue" stroke="midnightblue" points="1742.73,-24.9 1751.87,-19.53 1741.38,-18.03 1742.73,-24.9"/>
</g>
<!-- Node20&#45;&gt;Node4 -->
<g id="edge32" class="edge">
<title>Node20&#45;&gt;Node4</title>
<path fill="none" stroke="midnightblue" d="M1525.64,-112.22C1477.23,-116.54 1415.67,-122.46 1361,-129 1349.37,-130.39 1336.98,-132.04 1325.08,-133.71"/>
<polygon fill="midnightblue" stroke="midnightblue" points="1526.11,-115.69 1535.76,-111.32 1525.49,-108.72 1526.11,-115.69"/>
</g>
</g>
</svg>
