<?xml version="1.0" encoding="UTF-8" standalone="no"?>
<!DOCTYPE svg PUBLIC "-//W3C//DTD SVG 1.1//EN"
 "http://www.w3.org/Graphics/SVG/1.1/DTD/svg11.dtd">
<!-- Generated by graphviz version 3.0.0 (20220413.0106)
 -->
<!-- Title: SyntaxAnalyzer::syntaxIfSt Pages: 1 -->
<svg width="2308pt" height="2013pt"
 viewBox="0.00 0.00 2308.00 2012.95" xmlns="http://www.w3.org/2000/svg" xmlns:xlink="http://www.w3.org/1999/xlink">
<g id="graph0" class="graph" transform="scale(1 1) rotate(0) translate(4 2008.95)">
<title>SyntaxAnalyzer::syntaxIfSt</title>
<!-- Node1 -->
<g id="node1" class="node">
<title>Node1</title>
<g id="a_node1"><a xlink:title=" ">
<polygon fill="#bfbfbf" stroke="black" points="0,-926.71 0,-945.71 131,-945.71 131,-926.71 0,-926.71"/>
<text text-anchor="middle" x="65.5" y="-933.71" font-family="Helvetica,sans-Serif" font-size="10.00">SyntaxAnalyzer::syntaxIfSt</text>
</a>
</g>
</g>
<!-- Node2 -->
<g id="node2" class="node">
<title>Node2</title>
<g id="a_node2"><a xlink:href="../../d7/d7c/class_a_s_t_factory.html#a8d1d4c9d01ab2e366d1af6bbaeaf7bef" target="_top" xlink:title=" ">
<polygon fill="none" stroke="black" points="1997,-1420.71 1997,-1439.71 2116,-1439.71 2116,-1420.71 1997,-1420.71"/>
<text text-anchor="middle" x="2056.5" y="-1427.71" font-family="Helvetica,sans-Serif" font-size="10.00">ASTFactory::createAST</text>
</a>
</g>
</g>
<!-- Node1&#45;&gt;Node2 -->
<g id="edge1" class="edge">
<title>Node1&#45;&gt;Node2</title>
<path fill="none" stroke="midnightblue" d="M67.38,-945.71C77.23,-1049.15 170.56,-1962.21 396.5,-1962.21 396.5,-1962.21 396.5,-1962.21 580,-1962.21 894,-1962.21 1720.71,-1865.34 1961,-1663.21 2028.13,-1606.74 2048.1,-1495.34 2053.58,-1450.06"/>
<polygon fill="midnightblue" stroke="midnightblue" points="2057.07,-1450.36 2054.69,-1440.04 2050.11,-1449.6 2057.07,-1450.36"/>
</g>
<!-- Node6 -->
<g id="node6" class="node">
<title>Node6</title>
<g id="a_node6"><a xlink:href="../../d0/dfe/class_syntax_analyzer.html#ae1d3434e5cc4b4bcd5a3a245814a44f0" target="_top" xlink:title="Пропускает текущий токен, если он указанного типа. Иначе выбрасывается исключение">
<polygon fill="none" stroke="black" points="2006,-413.71 2006,-432.71 2107,-432.71 2107,-413.71 2006,-413.71"/>
<text text-anchor="middle" x="2056.5" y="-420.71" font-family="Helvetica,sans-Serif" font-size="10.00">SyntaxAnalyzer::eat</text>
</a>
</g>
</g>
<!-- Node1&#45;&gt;Node6 -->
<g id="edge5" class="edge">
<title>Node1&#45;&gt;Node6</title>
<path fill="none" stroke="midnightblue" d="M66.48,-926.66C66.52,-845.51 70.2,-271.56 167,-136.21 233.03,-43.9 283,-24.21 396.5,-24.21 396.5,-24.21 396.5,-24.21 1690.5,-24.21 1810.88,-24.21 1868.22,38.5 1961,-38.21 2018.78,-85.99 2046.66,-331.3 2053.68,-403.31"/>
<polygon fill="midnightblue" stroke="midnightblue" points="2050.23,-404.04 2054.66,-413.67 2057.2,-403.38 2050.23,-404.04"/>
</g>
<!-- Node7 -->
<g id="node7" class="node">
<title>Node7</title>
<g id="a_node7"><a xlink:href="../../d0/dfe/class_syntax_analyzer.html#a3ae6c7319e61cd669c417f189b098374" target="_top" xlink:title=" ">
<polygon fill="none" stroke="black" points="2160,-793.71 2160,-812.71 2292,-812.71 2292,-793.71 2160,-793.71"/>
<text text-anchor="middle" x="2226" y="-800.71" font-family="Helvetica,sans-Serif" font-size="10.00">SyntaxAnalyzer::getCurTok</text>
</a>
</g>
</g>
<!-- Node1&#45;&gt;Node7 -->
<g id="edge8" class="edge">
<title>Node1&#45;&gt;Node7</title>
<path fill="none" stroke="midnightblue" d="M67.05,-945.72C71.74,-1025.29 106.42,-1581.42 167,-1736.21 223.66,-1880.99 241.03,-2000.21 396.5,-2000.21 396.5,-2000.21 396.5,-2000.21 950,-2000.21 1213.4,-2000.21 1977.91,-2011.51 2116,-1787.21 2173.24,-1694.24 2140.01,-1405.73 2152,-1297.21 2172.47,-1111.89 2210.07,-889.31 2221.57,-822.86"/>
<polygon fill="midnightblue" stroke="midnightblue" points="2225.03,-823.38 2223.29,-812.93 2218.13,-822.18 2225.03,-823.38"/>
</g>
<!-- Node9 -->
<g id="node9" class="node">
<title>Node9</title>
<g id="a_node9"><a xlink:href="../../d0/dfe/class_syntax_analyzer.html#ae8d09db1b25ec882248aeed978c13a4d" target="_top" xlink:title=" ">
<polygon fill="none" stroke="black" points="882,-755.71 882,-774.71 1016,-774.71 1016,-755.71 882,-755.71"/>
<text text-anchor="middle" x="949" y="-762.71" font-family="Helvetica,sans-Serif" font-size="10.00">SyntaxAnalyzer::syntaxExpr</text>
</a>
</g>
</g>
<!-- Node1&#45;&gt;Node9 -->
<g id="edge9" class="edge">
<title>Node1&#45;&gt;Node9</title>
<path fill="none" stroke="midnightblue" d="M66.41,-926.27C66.29,-849.61 75.36,-348.78 328,-86.21 350.37,-62.97 364.24,-62.21 396.5,-62.21 396.5,-62.21 396.5,-62.21 580,-62.21 705.54,-62.21 765.42,-60.95 846,-157.21 923.5,-249.78 943.62,-651.34 947.3,-745.43"/>
<polygon fill="midnightblue" stroke="midnightblue" points="943.81,-745.69 947.68,-755.56 950.81,-745.43 943.81,-745.69"/>
</g>
<!-- Node21 -->
<g id="node21" class="node">
<title>Node21</title>
<g id="a_node21"><a xlink:href="../../d0/dfe/class_syntax_analyzer.html#a7f54bde730006b1b863290415809ab4e" target="_top" xlink:title=" ">
<polygon fill="none" stroke="black" points="167,-926.71 167,-945.71 292,-945.71 292,-926.71 167,-926.71"/>
<text text-anchor="middle" x="229.5" y="-933.71" font-family="Helvetica,sans-Serif" font-size="10.00">SyntaxAnalyzer::syntaxSt</text>
</a>
</g>
</g>
<!-- Node1&#45;&gt;Node21 -->
<g id="edge58" class="edge">
<title>Node1&#45;&gt;Node21</title>
<path fill="none" stroke="midnightblue" d="M131.46,-929.58C139.78,-929.46 148.34,-929.43 156.76,-929.5"/>
<polygon fill="midnightblue" stroke="midnightblue" points="156.9,-933 166.95,-929.64 156.99,-926 156.9,-933"/>
</g>
<!-- Node3 -->
<g id="node3" class="node">
<title>Node3</title>
<g id="a_node3"><a xlink:href="../../d0/d11/class_i_token.html#a3e73305ee0ac36d0bf5f26b649589b24" target="_top" xlink:title=" ">
<polygon fill="none" stroke="black" points="2174.5,-1800.71 2174.5,-1819.71 2277.5,-1819.71 2277.5,-1800.71 2174.5,-1800.71"/>
<text text-anchor="middle" x="2226" y="-1807.71" font-family="Helvetica,sans-Serif" font-size="10.00">IToken::getAdvType</text>
</a>
</g>
</g>
<!-- Node2&#45;&gt;Node3 -->
<g id="edge2" class="edge">
<title>Node2&#45;&gt;Node3</title>
<path fill="none" stroke="midnightblue" d="M2061.81,-1439.99C2084.12,-1490.6 2186.61,-1723.11 2216.68,-1791.34"/>
<polygon fill="midnightblue" stroke="midnightblue" points="2213.48,-1792.76 2220.72,-1800.5 2219.89,-1789.94 2213.48,-1792.76"/>
</g>
<!-- Node4 -->
<g id="node4" class="node">
<title>Node4</title>
<g id="a_node4"><a xlink:href="../../d0/d11/class_i_token.html#ac7f0a800d7a9e8608bab0360c76d735a" target="_top" xlink:title="Получение типа токена">
<polygon fill="none" stroke="black" points="2183,-1306.71 2183,-1325.71 2269,-1325.71 2269,-1306.71 2183,-1306.71"/>
<text text-anchor="middle" x="2226" y="-1313.71" font-family="Helvetica,sans-Serif" font-size="10.00">IToken::getType</text>
</a>
</g>
</g>
<!-- Node2&#45;&gt;Node4 -->
<g id="edge3" class="edge">
<title>Node2&#45;&gt;Node4</title>
<path fill="none" stroke="midnightblue" d="M2071.49,-1420.69C2100.36,-1401.04 2166.78,-1355.84 2202.04,-1331.84"/>
<polygon fill="midnightblue" stroke="midnightblue" points="2204.39,-1334.47 2210.69,-1325.95 2200.46,-1328.68 2204.39,-1334.47"/>
</g>
<!-- Node5 -->
<g id="node5" class="node">
<title>Node5</title>
<g id="a_node5"><a xlink:href="../../db/dc1/class_token.html#a1f07fa2fffeb2f7ab803ef8b424eae8a" target="_top" xlink:title=" ">
<polygon fill="none" stroke="black" points="2189,-1420.71 2189,-1439.71 2263,-1439.71 2263,-1420.71 2189,-1420.71"/>
<text text-anchor="middle" x="2226" y="-1427.71" font-family="Helvetica,sans-Serif" font-size="10.00">Token::setStr</text>
</a>
</g>
</g>
<!-- Node2&#45;&gt;Node5 -->
<g id="edge4" class="edge">
<title>Node2&#45;&gt;Node5</title>
<path fill="none" stroke="midnightblue" d="M2116.08,-1430.21C2136.56,-1430.21 2159.24,-1430.21 2178.58,-1430.21"/>
<polygon fill="midnightblue" stroke="midnightblue" points="2178.66,-1433.71 2188.65,-1430.21 2178.65,-1426.71 2178.66,-1433.71"/>
</g>
<!-- Node6&#45;&gt;Node7 -->
<g id="edge6" class="edge">
<title>Node6&#45;&gt;Node7</title>
<path fill="none" stroke="midnightblue" d="M2066.52,-432.84C2079.06,-446.62 2101.79,-473.2 2116,-499.21 2171.12,-600.07 2207.86,-734.33 2220.31,-783.83"/>
<polygon fill="midnightblue" stroke="midnightblue" points="2216.91,-784.69 2222.71,-793.55 2223.71,-783.01 2216.91,-784.69"/>
</g>
<!-- Node8 -->
<g id="node8" class="node">
<title>Node8</title>
<g id="a_node8"><a xlink:href="../../d0/dfe/class_syntax_analyzer.html#a9e41370d8d74fbd2e77648d2071e7dfe" target="_top" xlink:title=" ">
<polygon fill="none" stroke="black" points="2152,-451.71 2152,-470.71 2300,-470.71 2300,-451.71 2152,-451.71"/>
<text text-anchor="middle" x="2226" y="-458.71" font-family="Helvetica,sans-Serif" font-size="10.00">SyntaxAnalyzer::getNextToken</text>
</a>
</g>
</g>
<!-- Node6&#45;&gt;Node8 -->
<g id="edge7" class="edge">
<title>Node6&#45;&gt;Node8</title>
<path fill="none" stroke="midnightblue" d="M2099.77,-432.8C2122.07,-437.86 2149.62,-444.11 2173.2,-449.46"/>
<polygon fill="midnightblue" stroke="midnightblue" points="2172.51,-452.89 2183.04,-451.69 2174.06,-446.07 2172.51,-452.89"/>
</g>
<!-- Node9&#45;&gt;Node2 -->
<g id="edge10" class="edge">
<title>Node9&#45;&gt;Node2</title>
<path fill="none" stroke="midnightblue" d="M955.82,-774.91C967.76,-794.97 995.62,-842.63 1016,-884.21 1033.87,-920.69 1024.6,-938.22 1052,-968.21 1166.81,-1093.89 1289.83,-1011.86 1389,-1150.21 1444.68,-1227.89 1358.08,-1293.98 1425,-1362.21 1501.64,-1440.37 1839.64,-1438.13 1986.73,-1433.24"/>
<polygon fill="midnightblue" stroke="midnightblue" points="1987.11,-1436.73 1996.98,-1432.89 1986.87,-1429.74 1987.11,-1436.73"/>
</g>
<!-- Node9&#45;&gt;Node4 -->
<g id="edge13" class="edge">
<title>Node9&#45;&gt;Node4</title>
<path fill="none" stroke="midnightblue" d="M956.55,-774.97C969.56,-794.78 998.92,-841.43 1016,-884.21 1039.67,-943.48 1020.54,-967.69 1052,-1023.21 1110.25,-1126.03 1321.52,-1345.15 1425,-1402.21 1694.55,-1550.86 1837.78,-1580.92 2116,-1449.21 2129.13,-1443 2185.29,-1369.37 2211.47,-1334.42"/>
<polygon fill="midnightblue" stroke="midnightblue" points="2214.54,-1336.16 2217.71,-1326.05 2208.93,-1331.97 2214.54,-1336.16"/>
</g>
<!-- Node9&#45;&gt;Node6 -->
<g id="edge11" class="edge">
<title>Node9&#45;&gt;Node6</title>
<path fill="none" stroke="midnightblue" d="M952.5,-755.44C960.89,-724.67 990.99,-629 1052,-580.21 1322.22,-364.14 1465.19,-418.06 1811,-407.21 1877.63,-405.12 1894.57,-401.63 1961,-407.21 1973.18,-408.24 1986.14,-409.99 1998.45,-411.97"/>
<polygon fill="midnightblue" stroke="midnightblue" points="1998.15,-415.47 2008.59,-413.67 1999.31,-408.56 1998.15,-415.47"/>
</g>
<!-- Node9&#45;&gt;Node7 -->
<g id="edge12" class="edge">
<title>Node9&#45;&gt;Node7</title>
<path fill="none" stroke="midnightblue" d="M961.22,-755.53C1004.34,-719.35 1164.7,-594.21 1319.5,-594.21 1319.5,-594.21 1319.5,-594.21 1497.5,-594.21 1636.59,-594.21 1994.59,-622.35 2116,-690.21 2158.59,-714.02 2194.92,-759.79 2212.91,-785.16"/>
<polygon fill="midnightblue" stroke="midnightblue" points="2210.12,-787.28 2218.69,-793.51 2215.88,-783.29 2210.12,-787.28"/>
</g>
<!-- Node10 -->
<g id="node10" class="node">
<title>Node10</title>
<g id="a_node10"><a xlink:href="../../db/d0e/sup_8hpp.html#ae7d62ca130413d4c96863327c1af81a4" target="_top" xlink:title="Возвращает истину, если value находится среди значений cont.">
<polygon fill="none" stroke="black" points="1480.5,-660.71 1480.5,-679.71 1512.5,-679.71 1512.5,-660.71 1480.5,-660.71"/>
<text text-anchor="middle" x="1496.5" y="-667.71" font-family="Helvetica,sans-Serif" font-size="10.00">isIn</text>
</a>
</g>
</g>
<!-- Node9&#45;&gt;Node10 -->
<g id="edge14" class="edge">
<title>Node9&#45;&gt;Node10</title>
<path fill="none" stroke="midnightblue" d="M1000.3,-755.69C1016.77,-752.62 1035.15,-749.22 1052,-746.21 1210.8,-717.82 1401.99,-685.78 1469.98,-674.45"/>
<polygon fill="midnightblue" stroke="midnightblue" points="1470.88,-677.85 1480.17,-672.76 1469.73,-670.95 1470.88,-677.85"/>
</g>
<!-- Node11 -->
<g id="node11" class="node">
<title>Node11</title>
<g id="a_node11"><a xlink:href="../../d0/dfe/class_syntax_analyzer.html#a3dfb6634a4bcdc61da5b1bafd1f3d136" target="_top" xlink:title=" ">
<polygon fill="none" stroke="black" points="1052,-755.71 1052,-774.71 1216,-774.71 1216,-755.71 1052,-755.71"/>
<text text-anchor="middle" x="1134" y="-762.71" font-family="Helvetica,sans-Serif" font-size="10.00">SyntaxAnalyzer::syntaxSimpleExpr</text>
</a>
</g>
</g>
<!-- Node9&#45;&gt;Node11 -->
<g id="edge15" class="edge">
<title>Node9&#45;&gt;Node11</title>
<path fill="none" stroke="midnightblue" d="M1016.07,-765.21C1024.38,-765.21 1033,-765.21 1041.62,-765.21"/>
<polygon fill="midnightblue" stroke="midnightblue" points="1041.72,-768.71 1051.72,-765.21 1041.72,-761.71 1041.72,-768.71"/>
</g>
<!-- Node11&#45;&gt;Node2 -->
<g id="edge16" class="edge">
<title>Node11&#45;&gt;Node2</title>
<path fill="none" stroke="midnightblue" d="M1144.88,-774.89C1183.52,-813.36 1325.38,-960.79 1389,-1112.21 1427.04,-1202.75 1357.16,-1259.21 1425,-1330.21 1458.13,-1364.89 1804.74,-1394.13 1961,-1416.21 1969.32,-1417.39 1978.05,-1418.65 1986.7,-1419.91"/>
<polygon fill="midnightblue" stroke="midnightblue" points="1986.39,-1423.4 1996.79,-1421.39 1987.4,-1416.48 1986.39,-1423.4"/>
</g>
<!-- Node11&#45;&gt;Node4 -->
<g id="edge19" class="edge">
<title>Node11&#45;&gt;Node4</title>
<path fill="none" stroke="midnightblue" d="M1161.3,-774.86C1219.87,-796.84 1358.26,-851.71 1389,-890.21 1432.05,-944.13 1378.64,-990.12 1425,-1041.21 1630.08,-1267.23 2029.33,-1307.51 2172.41,-1314.67"/>
<polygon fill="midnightblue" stroke="midnightblue" points="2172.51,-1318.18 2182.66,-1315.15 2172.84,-1311.19 2172.51,-1318.18"/>
</g>
<!-- Node11&#45;&gt;Node6 -->
<g id="edge17" class="edge">
<title>Node11&#45;&gt;Node6</title>
<path fill="none" stroke="midnightblue" d="M1146.42,-755.71C1208.49,-704.9 1513.35,-465.85 1811,-418.21 1873.43,-408.22 1945.95,-411.54 1995.71,-416.07"/>
<polygon fill="midnightblue" stroke="midnightblue" points="1995.68,-419.59 2005.97,-417.05 1996.35,-412.62 1995.68,-419.59"/>
</g>
<!-- Node11&#45;&gt;Node7 -->
<g id="edge18" class="edge">
<title>Node11&#45;&gt;Node7</title>
<path fill="none" stroke="midnightblue" d="M1152.61,-755.56C1196.8,-731.95 1316.57,-671.76 1425,-651.21 1629.92,-612.38 2013.46,-687.05 2116,-727.21 2151.68,-741.19 2186.95,-769.03 2207.32,-786.85"/>
<polygon fill="midnightblue" stroke="midnightblue" points="2205.06,-789.53 2214.85,-793.59 2209.73,-784.31 2205.06,-789.53"/>
</g>
<!-- Node11&#45;&gt;Node10 -->
<g id="edge20" class="edge">
<title>Node11&#45;&gt;Node10</title>
<path fill="none" stroke="midnightblue" d="M1216.28,-761.61C1267.62,-756.91 1334.35,-746.25 1389,-722.21 1407.55,-714.05 1407.16,-703.83 1425,-694.21 1439.33,-686.49 1456.62,-680.55 1470.49,-676.52"/>
<polygon fill="midnightblue" stroke="midnightblue" points="1471.61,-679.84 1480.32,-673.81 1469.75,-673.09 1471.61,-679.84"/>
</g>
<!-- Node12 -->
<g id="node12" class="node">
<title>Node12</title>
<g id="a_node12"><a xlink:href="../../d0/dfe/class_syntax_analyzer.html#a1e9b913cc8c2861927d7c05d10f1822d" target="_top" xlink:title=" ">
<polygon fill="none" stroke="black" points="1252,-774.71 1252,-793.71 1389,-793.71 1389,-774.71 1252,-774.71"/>
<text text-anchor="middle" x="1320.5" y="-781.71" font-family="Helvetica,sans-Serif" font-size="10.00">SyntaxAnalyzer::syntaxTerm</text>
</a>
</g>
</g>
<!-- Node11&#45;&gt;Node12 -->
<g id="edge21" class="edge">
<title>Node11&#45;&gt;Node12</title>
<path fill="none" stroke="midnightblue" d="M1216.19,-773.57C1224.65,-774.44 1233.23,-775.33 1241.64,-776.19"/>
<polygon fill="midnightblue" stroke="midnightblue" points="1241.5,-779.7 1251.81,-777.24 1242.22,-772.74 1241.5,-779.7"/>
</g>
<!-- Node12&#45;&gt;Node2 -->
<g id="edge22" class="edge">
<title>Node12&#45;&gt;Node2</title>
<path fill="none" stroke="midnightblue" d="M1369.22,-793.79C1376.75,-797.22 1383.77,-801.88 1389,-808.21 1456.56,-890.02 1377.23,-949.47 1425,-1044.21 1475.79,-1144.96 1510.74,-1160.72 1604,-1224.21 1746.84,-1321.46 1805.79,-1302.25 1961,-1378.21 1985.03,-1389.97 2011.67,-1404.8 2030.52,-1415.61"/>
<polygon fill="midnightblue" stroke="midnightblue" points="2028.95,-1418.75 2039.36,-1420.71 2032.45,-1412.68 2028.95,-1418.75"/>
</g>
<!-- Node12&#45;&gt;Node4 -->
<g id="edge25" class="edge">
<title>Node12&#45;&gt;Node4</title>
<path fill="none" stroke="midnightblue" d="M1368.75,-793.74C1376.43,-797.18 1383.62,-801.85 1389,-808.21 1448.19,-878.16 1361.89,-944.78 1425,-1011.21 1469.92,-1058.5 1508.36,-1017.8 1568,-1044.21 1585.81,-1052.1 1585.92,-1061.95 1604,-1069.21 1817.78,-1155.08 1922.45,-1025.24 2116,-1150.21 2171.65,-1186.14 2205.16,-1261.64 2218.42,-1297.08"/>
<polygon fill="midnightblue" stroke="midnightblue" points="2215.21,-1298.48 2221.89,-1306.7 2221.79,-1296.11 2215.21,-1298.48"/>
</g>
<!-- Node12&#45;&gt;Node6 -->
<g id="edge23" class="edge">
<title>Node12&#45;&gt;Node6</title>
<path fill="none" stroke="midnightblue" d="M1343.65,-774.69C1356.95,-768.82 1374.12,-760.94 1389,-753.21 1405.44,-744.67 1408.01,-739.6 1425,-732.21 1485.86,-705.75 1510.68,-722.66 1568,-689.21 1584.15,-679.79 1794.15,-464.34 1811,-456.21 1869.29,-428.11 1943.95,-421.68 1995.34,-421.14"/>
<polygon fill="midnightblue" stroke="midnightblue" points="1995.63,-424.63 2005.62,-421.1 1995.61,-417.63 1995.63,-424.63"/>
</g>
<!-- Node12&#45;&gt;Node7 -->
<g id="edge24" class="edge">
<title>Node12&#45;&gt;Node7</title>
<path fill="none" stroke="midnightblue" d="M1361.91,-774.69C1416.48,-762.32 1516.94,-741.22 1604,-732.21 1761.84,-715.88 1803.3,-709.63 1961,-727.21 2031.19,-735.04 2048.34,-741.95 2116,-762.21 2142.37,-770.11 2171.52,-781.2 2193.04,-789.86"/>
<polygon fill="midnightblue" stroke="midnightblue" points="2191.77,-793.12 2202.35,-793.64 2194.4,-786.64 2191.77,-793.12"/>
</g>
<!-- Node12&#45;&gt;Node10 -->
<g id="edge26" class="edge">
<title>Node12&#45;&gt;Node10</title>
<path fill="none" stroke="midnightblue" d="M1363.32,-774.67C1372.47,-771.2 1381.62,-766.51 1389,-760.21 1414.41,-738.52 1399.44,-715.73 1425,-694.21 1437.89,-683.36 1455.94,-677.33 1470.54,-674.04"/>
<polygon fill="midnightblue" stroke="midnightblue" points="1471.31,-677.45 1480.45,-672.09 1469.96,-670.58 1471.31,-677.45"/>
</g>
<!-- Node13 -->
<g id="node13" class="node">
<title>Node13</title>
<g id="a_node13"><a xlink:href="../../d0/dfe/class_syntax_analyzer.html#a3af9b5161a2cef6fdd26b0bb60334ac4" target="_top" xlink:title=" ">
<polygon fill="none" stroke="black" points="1425,-964.71 1425,-983.71 1568,-983.71 1568,-964.71 1425,-964.71"/>
<text text-anchor="middle" x="1496.5" y="-971.71" font-family="Helvetica,sans-Serif" font-size="10.00">SyntaxAnalyzer::syntaxFactor</text>
</a>
</g>
</g>
<!-- Node12&#45;&gt;Node13 -->
<g id="edge27" class="edge">
<title>Node12&#45;&gt;Node13</title>
<path fill="none" stroke="midnightblue" d="M1361.94,-793.74C1371.45,-797.25 1381.11,-801.95 1389,-808.21 1440.04,-848.73 1474.05,-920.75 1488.14,-955.04"/>
<polygon fill="midnightblue" stroke="midnightblue" points="1484.92,-956.4 1491.87,-964.39 1491.42,-953.8 1484.92,-956.4"/>
</g>
<!-- Node13&#45;&gt;Node2 -->
<g id="edge28" class="edge">
<title>Node13&#45;&gt;Node2</title>
<path fill="none" stroke="midnightblue" d="M1499.85,-983.87C1508.21,-1016.17 1539.46,-1121.52 1604,-1178.21 1677.63,-1242.89 1718.31,-1222.38 1811,-1254.21 1877.2,-1276.95 1904.12,-1261.41 1961,-1302.21 2001.78,-1331.46 2032.27,-1383.67 2046.54,-1411.51"/>
<polygon fill="midnightblue" stroke="midnightblue" points="2043.47,-1413.19 2051.05,-1420.58 2049.73,-1410.07 2043.47,-1413.19"/>
</g>
<!-- Node13&#45;&gt;Node3 -->
<g id="edge33" class="edge">
<title>Node13&#45;&gt;Node3</title>
<path fill="none" stroke="midnightblue" d="M1500.09,-984C1509.65,-1018.99 1545.47,-1140.22 1604,-1224.21 1790.61,-1492.04 2115.67,-1732.7 2202.92,-1794.76"/>
<polygon fill="midnightblue" stroke="midnightblue" points="2201.09,-1797.75 2211.27,-1800.67 2205.13,-1792.03 2201.09,-1797.75"/>
</g>
<!-- Node13&#45;&gt;Node4 -->
<g id="edge35" class="edge">
<title>Node13&#45;&gt;Node4</title>
<path fill="none" stroke="midnightblue" d="M1506.02,-983.78C1523.03,-1002.42 1563.11,-1043.95 1604,-1069.21 1802.65,-1191.96 2072.77,-1274.37 2179.21,-1304"/>
<polygon fill="midnightblue" stroke="midnightblue" points="2178.42,-1307.41 2188.99,-1306.7 2180.28,-1300.66 2178.42,-1307.41"/>
</g>
<!-- Node13&#45;&gt;Node6 -->
<g id="edge29" class="edge">
<title>Node13&#45;&gt;Node6</title>
<path fill="none" stroke="midnightblue" d="M1545.77,-964.56C1554,-961.14 1561.85,-956.5 1568,-950.21 1605.15,-912.23 1564.33,-871.56 1604,-836.21 1661.79,-784.72 1722.16,-859.77 1775,-803.21 1864.27,-707.66 1729.39,-613.38 1811,-511.21 1812.7,-509.09 1950.81,-460.15 2018.68,-436.19"/>
<polygon fill="midnightblue" stroke="midnightblue" points="2019.9,-439.47 2028.16,-432.84 2017.57,-432.87 2019.9,-439.47"/>
</g>
<!-- Node13&#45;&gt;Node7 -->
<g id="edge34" class="edge">
<title>Node13&#45;&gt;Node7</title>
<path fill="none" stroke="midnightblue" d="M1539.73,-964.66C1559.28,-960.25 1582.82,-954.95 1604,-950.21 1679.97,-933.21 1703.98,-944.11 1775,-912.21 1793,-904.13 1792.91,-894.11 1811,-886.21 1922.84,-837.38 2064.31,-816.96 2149.56,-808.65"/>
<polygon fill="midnightblue" stroke="midnightblue" points="2150.05,-812.12 2159.68,-807.69 2149.39,-805.15 2150.05,-812.12"/>
</g>
<!-- Node13&#45;&gt;Node9 -->
<g id="edge44" class="edge">
<title>Node13&#45;&gt;Node9</title>
<path fill="none" stroke="midnightblue" d="M1424.82,-971.02C1333.23,-964.14 1171.17,-942.47 1052,-874.21 1012.12,-851.37 978.54,-807.87 961.68,-783.29"/>
<polygon fill="midnightblue" stroke="midnightblue" points="964.52,-781.25 956.05,-774.88 958.7,-785.14 964.52,-781.25"/>
</g>
<!-- Node13&#45;&gt;Node13 -->
<g id="edge45" class="edge">
<title>Node13&#45;&gt;Node13</title>
<path fill="none" stroke="midnightblue" d="M1469.37,-983.97C1456.18,-992.78 1465.22,-1002.21 1496.5,-1002.21 1518.01,-1002.21 1529,-997.75 1529.48,-992.1"/>
<polygon fill="midnightblue" stroke="midnightblue" points="1532.31,-990.04 1523.63,-983.97 1526.63,-994.13 1532.31,-990.04"/>
</g>
<!-- Node14 -->
<g id="node14" class="node">
<title>Node14</title>
<g id="a_node14"><a xlink:href="../../d0/dfe/class_syntax_analyzer.html#a9952c4a2db0a1382b9c94f40dd535fae" target="_top" xlink:title="Пропускает текущий токен, если он указанного типа. Иначе выбрасывается исключение">
<polygon fill="none" stroke="black" points="1997.5,-508.71 1997.5,-527.71 2115.5,-527.71 2115.5,-508.71 1997.5,-508.71"/>
<text text-anchor="middle" x="2056.5" y="-515.71" font-family="Helvetica,sans-Serif" font-size="10.00">SyntaxAnalyzer::eatAdv</text>
</a>
</g>
</g>
<!-- Node13&#45;&gt;Node14 -->
<g id="edge30" class="edge">
<title>Node13&#45;&gt;Node14</title>
<path fill="none" stroke="midnightblue" d="M1543.27,-964.58C1552.2,-961.15 1560.96,-956.49 1568,-950.21 1595.89,-925.34 1574.79,-897.53 1604,-874.21 1664.85,-825.65 1722.24,-893.46 1775,-836.21 1854.35,-750.1 1732.09,-661.73 1811,-575.21 1855.1,-526.86 1931.58,-515.62 1987.29,-514.59"/>
<polygon fill="midnightblue" stroke="midnightblue" points="1987.46,-518.09 1997.44,-514.51 1987.41,-511.09 1987.46,-518.09"/>
</g>
<!-- Node15 -->
<g id="node15" class="node">
<title>Node15</title>
<g id="a_node15"><a xlink:href="../../d0/dfe/class_syntax_analyzer.html#af0905389742c4f842207bb2c073afbfa" target="_top" xlink:title=" ">
<polygon fill="none" stroke="black" points="1621,-774.71 1621,-793.71 1758,-793.71 1758,-774.71 1621,-774.71"/>
<text text-anchor="middle" x="1689.5" y="-781.71" font-family="Helvetica,sans-Serif" font-size="10.00">SyntaxAnalyzer::lookFoward</text>
</a>
</g>
</g>
<!-- Node13&#45;&gt;Node15 -->
<g id="edge36" class="edge">
<title>Node13&#45;&gt;Node15</title>
<path fill="none" stroke="midnightblue" d="M1546.43,-964.69C1554.49,-961.25 1562.12,-956.58 1568,-950.21 1612.16,-902.37 1558.62,-854.9 1604,-808.21 1607.69,-804.41 1611.94,-801.2 1616.52,-798.49"/>
<polygon fill="midnightblue" stroke="midnightblue" points="1618.33,-801.5 1625.69,-793.87 1615.18,-795.25 1618.33,-801.5"/>
</g>
<!-- Node17 -->
<g id="node17" class="node">
<title>Node17</title>
<g id="a_node17"><a xlink:href="../../d0/dfe/class_syntax_analyzer.html#a2db43946bee3e973ce1cf293b262e271" target="_top" xlink:title=" ">
<polygon fill="none" stroke="black" points="1815.5,-736.71 1815.5,-755.71 1956.5,-755.71 1956.5,-736.71 1815.5,-736.71"/>
<text text-anchor="middle" x="1886" y="-743.71" font-family="Helvetica,sans-Serif" font-size="10.00">SyntaxAnalyzer::syntaxCallSt</text>
</a>
</g>
</g>
<!-- Node13&#45;&gt;Node17 -->
<g id="edge38" class="edge">
<title>Node13&#45;&gt;Node17</title>
<path fill="none" stroke="midnightblue" d="M1532.89,-964.71C1544.43,-960.95 1557.08,-956.1 1568,-950.21 1585.84,-940.59 1585.9,-931.34 1604,-922.21 1674.47,-886.65 1717.93,-928.75 1775,-874.21 1811.88,-838.96 1773.72,-800.05 1811,-765.21 1812.53,-763.79 1814.14,-762.46 1815.84,-761.24"/>
<polygon fill="midnightblue" stroke="midnightblue" points="1818.05,-763.99 1824.85,-755.87 1814.47,-757.98 1818.05,-763.99"/>
</g>
<!-- Node19 -->
<g id="node19" class="node">
<title>Node19</title>
<g id="a_node19"><a xlink:href="../../d0/dfe/class_syntax_analyzer.html#a1264dcb50cb09c564a36125c21043298" target="_top" xlink:title=" ">
<polygon fill="none" stroke="black" points="1618,-1002.71 1618,-1021.71 1761,-1021.71 1761,-1002.71 1618,-1002.71"/>
<text text-anchor="middle" x="1689.5" y="-1009.71" font-family="Helvetica,sans-Serif" font-size="10.00">SyntaxAnalyzer::syntaxSelect</text>
</a>
</g>
</g>
<!-- Node13&#45;&gt;Node19 -->
<g id="edge46" class="edge">
<title>Node13&#45;&gt;Node19</title>
<path fill="none" stroke="midnightblue" d="M1545.7,-983.8C1571.47,-988.93 1603.39,-995.28 1630.51,-1000.68"/>
<polygon fill="midnightblue" stroke="midnightblue" points="1630.16,-1004.17 1640.65,-1002.69 1631.52,-997.31 1630.16,-1004.17"/>
</g>
<!-- Node20 -->
<g id="node20" class="node">
<title>Node20</title>
<g id="a_node20"><a xlink:href="../../d0/dfe/class_syntax_analyzer.html#a94c8a6ab5c0e53cae22edb1a840a27ce" target="_top" xlink:title=" ">
<polygon fill="none" stroke="black" points="1811,-926.71 1811,-945.71 1961,-945.71 1961,-926.71 1811,-926.71"/>
<text text-anchor="middle" x="1886" y="-933.71" font-family="Helvetica,sans-Serif" font-size="10.00">SyntaxAnalyzer::syntaxVariable</text>
</a>
</g>
</g>
<!-- Node13&#45;&gt;Node20 -->
<g id="edge57" class="edge">
<title>Node13&#45;&gt;Node20</title>
<path fill="none" stroke="midnightblue" d="M1568,-968.9C1624.14,-964.49 1704.68,-957.73 1775,-950.21 1784.23,-949.23 1793.9,-948.11 1803.49,-946.96"/>
<polygon fill="midnightblue" stroke="midnightblue" points="1803.95,-950.43 1813.45,-945.74 1803.1,-943.48 1803.95,-950.43"/>
</g>
<!-- Node14&#45;&gt;Node7 -->
<g id="edge31" class="edge">
<title>Node14&#45;&gt;Node7</title>
<path fill="none" stroke="midnightblue" d="M2068.47,-527.91C2081.08,-539.46 2101.85,-559.77 2116,-580.21 2164.18,-649.82 2202.6,-743.91 2217.87,-783.92"/>
<polygon fill="midnightblue" stroke="midnightblue" points="2214.6,-785.17 2221.4,-793.3 2221.15,-782.71 2214.6,-785.17"/>
</g>
<!-- Node14&#45;&gt;Node8 -->
<g id="edge32" class="edge">
<title>Node14&#45;&gt;Node8</title>
<path fill="none" stroke="midnightblue" d="M2085.54,-508.67C2113.44,-499.18 2156.43,-484.55 2187.31,-474.04"/>
<polygon fill="midnightblue" stroke="midnightblue" points="2188.53,-477.32 2196.87,-470.78 2186.28,-470.69 2188.53,-477.32"/>
</g>
<!-- Node16 -->
<g id="node16" class="node">
<title>Node16</title>
<g id="a_node16"><a xlink:href="../../d1/d34/class_list.html#a49c179636e084dfbf7a52acd46acaf01" target="_top" xlink:title=" ">
<polygon fill="none" stroke="black" points="1858.5,-774.71 1858.5,-793.71 1913.5,-793.71 1913.5,-774.71 1858.5,-774.71"/>
<text text-anchor="middle" x="1886" y="-781.71" font-family="Helvetica,sans-Serif" font-size="10.00">List::size</text>
</a>
</g>
</g>
<!-- Node15&#45;&gt;Node16 -->
<g id="edge37" class="edge">
<title>Node15&#45;&gt;Node16</title>
<path fill="none" stroke="midnightblue" d="M1758.25,-784.21C1788.38,-784.21 1822.67,-784.21 1847.98,-784.21"/>
<polygon fill="midnightblue" stroke="midnightblue" points="1848.24,-787.71 1858.24,-784.21 1848.24,-780.71 1848.24,-787.71"/>
</g>
<!-- Node17&#45;&gt;Node2 -->
<g id="edge39" class="edge">
<title>Node17&#45;&gt;Node2</title>
<path fill="none" stroke="midnightblue" d="M1948.93,-755.72C1953.43,-758.24 1957.55,-761.36 1961,-765.21 1966.58,-771.45 2038.18,-1301.52 2052.87,-1410.69"/>
<polygon fill="midnightblue" stroke="midnightblue" points="2049.41,-1411.21 2054.22,-1420.65 2056.35,-1410.28 2049.41,-1411.21"/>
</g>
<!-- Node17&#45;&gt;Node6 -->
<g id="edge40" class="edge">
<title>Node17&#45;&gt;Node6</title>
<path fill="none" stroke="midnightblue" d="M1893.28,-736.55C1907.02,-715.08 1940.19,-661.5 1961,-613.21 1982.02,-564.42 1972.42,-546.32 1997,-499.21 2008.46,-477.25 2026.36,-455.14 2039.35,-440.48"/>
<polygon fill="midnightblue" stroke="midnightblue" points="2042.22,-442.52 2046.34,-432.76 2037.03,-437.82 2042.22,-442.52"/>
</g>
<!-- Node17&#45;&gt;Node7 -->
<g id="edge41" class="edge">
<title>Node17&#45;&gt;Node7</title>
<path fill="none" stroke="midnightblue" d="M1943.57,-755.75C2002.77,-765.73 2095.63,-781.4 2158.34,-791.97"/>
<polygon fill="midnightblue" stroke="midnightblue" points="2158.08,-795.48 2168.52,-793.69 2159.25,-788.57 2158.08,-795.48"/>
</g>
<!-- Node17&#45;&gt;Node9 -->
<g id="edge43" class="edge">
<title>Node17&#45;&gt;Node9</title>
<path fill="none" stroke="midnightblue" d="M1815.23,-748.84C1758.25,-751.5 1675.71,-756.48 1604,-765.21 1507.68,-776.95 1485.67,-794.74 1389,-803.21 1328.34,-808.53 1312.82,-806.09 1252,-803.21 1162.81,-798.99 1140.42,-796.62 1052,-784.21 1037.14,-782.13 1021.16,-779.39 1006.35,-776.64"/>
<polygon fill="midnightblue" stroke="midnightblue" points="1006.79,-773.16 996.32,-774.75 1005.49,-780.04 1006.79,-773.16"/>
</g>
<!-- Node18 -->
<g id="node18" class="node">
<title>Node18</title>
<g id="a_node18"><a xlink:href="../../d0/d11/class_i_token.html#a4fa3435db7157ca7316d4e4aee1df4c0" target="_top" xlink:title="Устанавливает дополнительный тип токена">
<polygon fill="none" stroke="black" points="2005,-964.71 2005,-983.71 2108,-983.71 2108,-964.71 2005,-964.71"/>
<text text-anchor="middle" x="2056.5" y="-971.71" font-family="Helvetica,sans-Serif" font-size="10.00">IToken::setAdvType</text>
</a>
</g>
</g>
<!-- Node17&#45;&gt;Node18 -->
<g id="edge42" class="edge">
<title>Node17&#45;&gt;Node18</title>
<path fill="none" stroke="midnightblue" d="M1945.63,-755.83C1951.18,-758.3 1956.43,-761.37 1961,-765.21 2021.33,-815.89 2044.85,-913.08 2052.43,-954.61"/>
<polygon fill="midnightblue" stroke="midnightblue" points="2048.99,-955.28 2054.12,-964.55 2055.89,-954.11 2048.99,-955.28"/>
</g>
<!-- Node19&#45;&gt;Node2 -->
<g id="edge47" class="edge">
<title>Node19&#45;&gt;Node2</title>
<path fill="none" stroke="midnightblue" d="M1749.37,-1021.71C1811.36,-1034.87 1907.26,-1064.76 1961,-1129.21 2033.4,-1216.03 2050.48,-1358.51 2054.39,-1410.46"/>
<polygon fill="midnightblue" stroke="midnightblue" points="2050.91,-1410.89 2055.06,-1420.64 2057.89,-1410.43 2050.91,-1410.89"/>
</g>
<!-- Node19&#45;&gt;Node6 -->
<g id="edge48" class="edge">
<title>Node19&#45;&gt;Node6</title>
<path fill="none" stroke="midnightblue" d="M1696.61,-1002.34C1712.42,-976.29 1754.88,-903.07 1775,-836.21 1808.75,-724.08 1744.27,-671.43 1811,-575.21 1854.18,-512.95 1897.2,-535.08 1961,-494.21 1988.12,-476.84 2017.51,-454.08 2036.19,-439.07"/>
<polygon fill="midnightblue" stroke="midnightblue" points="2038.41,-441.78 2043.97,-432.76 2034,-436.34 2038.41,-441.78"/>
</g>
<!-- Node19&#45;&gt;Node7 -->
<g id="edge49" class="edge">
<title>Node19&#45;&gt;Node7</title>
<path fill="none" stroke="midnightblue" d="M1704.61,-1002.57C1721.68,-990.74 1751.09,-969.84 1775,-950.21 1791.77,-936.44 1791.37,-926.48 1811,-917.21 1934.8,-858.78 1987.82,-922.27 2116,-874.21 2150.42,-861.31 2185.13,-836.12 2205.85,-819.47"/>
<polygon fill="midnightblue" stroke="midnightblue" points="2208.32,-821.98 2213.83,-812.93 2203.88,-816.56 2208.32,-821.98"/>
</g>
<!-- Node19&#45;&gt;Node9 -->
<g id="edge51" class="edge">
<title>Node19&#45;&gt;Node9</title>
<path fill="none" stroke="midnightblue" d="M1617.82,-1021.31C1491.62,-1033.66 1224.62,-1041.69 1052,-918.21 1003.03,-883.19 970.86,-816.73 957.31,-784.17"/>
<polygon fill="midnightblue" stroke="midnightblue" points="960.54,-782.84 953.56,-774.86 954.05,-785.45 960.54,-782.84"/>
</g>
<!-- Node19&#45;&gt;Node18 -->
<g id="edge50" class="edge">
<title>Node19&#45;&gt;Node18</title>
<path fill="none" stroke="midnightblue" d="M1761.2,-1003.78C1777.55,-1001.9 1794.88,-999.94 1811,-998.21 1873.56,-991.51 1945.2,-984.56 1994.69,-979.88"/>
<polygon fill="midnightblue" stroke="midnightblue" points="1995.27,-983.34 2004.9,-978.91 1994.62,-976.37 1995.27,-983.34"/>
</g>
<!-- Node19&#45;&gt;Node20 -->
<g id="edge52" class="edge">
<title>Node19&#45;&gt;Node20</title>
<path fill="none" stroke="midnightblue" d="M1736.44,-1002.61C1749.3,-999.01 1763.03,-994.28 1775,-988.21 1793.08,-979.05 1793.09,-969.7 1811,-960.21 1819.24,-955.85 1828.41,-952.09 1837.42,-948.93"/>
<polygon fill="midnightblue" stroke="midnightblue" points="1838.68,-952.2 1847.08,-945.74 1836.49,-945.55 1838.68,-952.2"/>
</g>
<!-- Node20&#45;&gt;Node2 -->
<g id="edge53" class="edge">
<title>Node20&#45;&gt;Node2</title>
<path fill="none" stroke="midnightblue" d="M1893.21,-945.87C1907.1,-967.86 1941.04,-1023.64 1961,-1074.21 2009.87,-1198.05 2041.75,-1355.91 2051.96,-1410.56"/>
<polygon fill="midnightblue" stroke="midnightblue" points="2048.55,-1411.4 2053.8,-1420.6 2055.44,-1410.14 2048.55,-1411.4"/>
</g>
<!-- Node20&#45;&gt;Node6 -->
<g id="edge54" class="edge">
<title>Node20&#45;&gt;Node6</title>
<path fill="none" stroke="midnightblue" d="M1897.03,-926.54C1913.61,-909.86 1946.33,-873.84 1961,-836.21 2015.72,-695.87 1940.96,-639.03 1997,-499.21 2006.2,-476.26 2024.41,-454.36 2038.08,-440.02"/>
<polygon fill="midnightblue" stroke="midnightblue" points="2040.6,-442.45 2045.13,-432.87 2035.62,-437.54 2040.6,-442.45"/>
</g>
<!-- Node20&#45;&gt;Node7 -->
<g id="edge55" class="edge">
<title>Node20&#45;&gt;Node7</title>
<path fill="none" stroke="midnightblue" d="M1961.03,-940.76C2007.62,-940.72 2067.83,-935.18 2116,-912.21 2159.24,-891.59 2195.31,-846.51 2213.09,-821.26"/>
<polygon fill="midnightblue" stroke="midnightblue" points="2216.03,-823.17 2218.79,-812.94 2210.25,-819.21 2216.03,-823.17"/>
</g>
<!-- Node20&#45;&gt;Node18 -->
<g id="edge56" class="edge">
<title>Node20&#45;&gt;Node18</title>
<path fill="none" stroke="midnightblue" d="M1929.52,-945.8C1951.96,-950.86 1979.67,-957.11 2003.39,-962.46"/>
<polygon fill="midnightblue" stroke="midnightblue" points="2002.76,-965.91 2013.29,-964.69 2004.3,-959.08 2002.76,-965.91"/>
</g>
<!-- Node21&#45;&gt;Node1 -->
<g id="edge95" class="edge">
<title>Node21&#45;&gt;Node1</title>
<path fill="none" stroke="midnightblue" d="M166.95,-942.79C158.69,-942.94 150.16,-942.99 141.7,-942.95"/>
<polygon fill="midnightblue" stroke="midnightblue" points="141.49,-939.44 131.46,-942.84 141.42,-946.44 141.49,-939.44"/>
</g>
<!-- Node21&#45;&gt;Node6 -->
<g id="edge59" class="edge">
<title>Node21&#45;&gt;Node6</title>
<path fill="none" stroke="midnightblue" d="M230.71,-926.35C232.44,-852.71 246.52,-388.58 328,-280.21 550.76,16.05 762.34,-62.21 1133,-62.21 1133,-62.21 1133,-62.21 1497.5,-62.21 1704.84,-62.21 1801.55,17.32 1961,-115.21 2050.75,-189.81 2056.98,-347.42 2056.21,-403.16"/>
<polygon fill="midnightblue" stroke="midnightblue" points="2052.7,-403.36 2055.97,-413.44 2059.7,-403.53 2052.7,-403.36"/>
</g>
<!-- Node21&#45;&gt;Node7 -->
<g id="edge60" class="edge">
<title>Node21&#45;&gt;Node7</title>
<path fill="none" stroke="midnightblue" d="M231,-945.96C235.08,-1022.98 264.25,-1533.77 328,-1672.21 484.81,-2012.74 758.1,-1924.21 1133,-1924.21 1133,-1924.21 1133,-1924.21 1497.5,-1924.21 1707.02,-1924.21 1768.57,-1921.09 1961,-1838.21 2039.3,-1804.49 2074.2,-1799.52 2116,-1725.21 2162.79,-1642.02 2141.02,-1392.03 2152,-1297.21 2173.45,-1112 2210.38,-889.35 2221.64,-822.86"/>
<polygon fill="midnightblue" stroke="midnightblue" points="2225.1,-823.38 2223.33,-812.93 2218.2,-822.2 2225.1,-823.38"/>
</g>
<!-- Node21&#45;&gt;Node15 -->
<g id="edge61" class="edge">
<title>Node21&#45;&gt;Node15</title>
<path fill="none" stroke="midnightblue" d="M292.02,-936.21C361.47,-936.21 477.85,-936.21 578,-936.21 578,-936.21 578,-936.21 950,-936.21 1246.98,-936.21 1312.43,-855.62 1604,-799.21 1610.24,-798.01 1616.75,-796.78 1623.26,-795.59"/>
<polygon fill="midnightblue" stroke="midnightblue" points="1624.24,-798.96 1633.46,-793.73 1622.99,-792.08 1624.24,-798.96"/>
</g>
<!-- Node21&#45;&gt;Node17 -->
<g id="edge70" class="edge">
<title>Node21&#45;&gt;Node17</title>
<path fill="none" stroke="midnightblue" d="M233.75,-926.44C254.22,-866.96 371.04,-556.21 578,-556.21 578,-556.21 578,-556.21 1321.5,-556.21 1540.31,-556.21 1783.03,-686.43 1860.11,-731.26"/>
<polygon fill="midnightblue" stroke="midnightblue" points="1858.68,-734.48 1869.08,-736.53 1862.23,-728.45 1858.68,-734.48"/>
</g>
<!-- Node22 -->
<g id="node22" class="node">
<title>Node22</title>
<g id="a_node22"><a xlink:href="../../d0/dfe/class_syntax_analyzer.html#a31fc5887c158652feb946f89270b4b36" target="_top" xlink:title=" ">
<polygon fill="none" stroke="black" points="691,-1040.71 691,-1059.71 846,-1059.71 846,-1040.71 691,-1040.71"/>
<text text-anchor="middle" x="768.5" y="-1047.71" font-family="Helvetica,sans-Serif" font-size="10.00">SyntaxAnalyzer::syntaxAssignSt</text>
</a>
</g>
</g>
<!-- Node21&#45;&gt;Node22 -->
<g id="edge62" class="edge">
<title>Node21&#45;&gt;Node22</title>
<path fill="none" stroke="midnightblue" d="M241.89,-945.92C259.22,-960.08 293.8,-986.03 328,-998.21 445.26,-1039.97 590.12,-1049.7 680.69,-1051.22"/>
<polygon fill="midnightblue" stroke="midnightblue" points="680.86,-1054.72 690.91,-1051.36 680.96,-1047.72 680.86,-1054.72"/>
</g>
<!-- Node23 -->
<g id="node23" class="node">
<title>Node23</title>
<g id="a_node23"><a xlink:href="../../d0/dfe/class_syntax_analyzer.html#a5770afdc4d32d2c38550f27f9ffd949a" target="_top" xlink:title=" ">
<polygon fill="none" stroke="black" points="1604,-1040.71 1604,-1059.71 1775,-1059.71 1775,-1040.71 1604,-1040.71"/>
<text text-anchor="middle" x="1689.5" y="-1047.71" font-family="Helvetica,sans-Serif" font-size="10.00">SyntaxAnalyzer::syntaxCompoundSt</text>
</a>
</g>
</g>
<!-- Node21&#45;&gt;Node23 -->
<g id="edge71" class="edge">
<title>Node21&#45;&gt;Node23</title>
<path fill="none" stroke="midnightblue" d="M292.06,-945.62C303.97,-947.28 316.36,-948.89 328,-950.21 814.08,-1005.31 936.59,-1012.6 1425,-1040.21 1480.91,-1043.37 1543.55,-1045.8 1593.72,-1047.47"/>
<polygon fill="midnightblue" stroke="midnightblue" points="1593.8,-1050.97 1603.91,-1047.8 1594.03,-1043.97 1593.8,-1050.97"/>
</g>
<!-- Node25 -->
<g id="node25" class="node">
<title>Node25</title>
<g id="a_node25"><a xlink:href="../../d0/dfe/class_syntax_analyzer.html#a67bc7e3cfb57c9d4d25d60913aef3a87" target="_top" xlink:title=" ">
<polygon fill="none" stroke="black" points="503,-1838.71 503,-1857.71 655,-1857.71 655,-1838.71 503,-1838.71"/>
<text text-anchor="middle" x="579" y="-1845.71" font-family="Helvetica,sans-Serif" font-size="10.00">SyntaxAnalyzer::syntaxEmptySt</text>
</a>
</g>
</g>
<!-- Node21&#45;&gt;Node25 -->
<g id="edge80" class="edge">
<title>Node21&#45;&gt;Node25</title>
<path fill="none" stroke="midnightblue" d="M230.34,-946.16C229.59,-1025.01 234.94,-1552.92 503,-1824.21 506.9,-1828.16 511.46,-1831.46 516.36,-1834.22"/>
<polygon fill="midnightblue" stroke="midnightblue" points="514.95,-1837.43 525.48,-1838.62 517.99,-1831.13 514.95,-1837.43"/>
</g>
<!-- Node26 -->
<g id="node26" class="node">
<title>Node26</title>
<g id="a_node26"><a xlink:href="../../d0/dfe/class_syntax_analyzer.html#a82e8472ea6d1064871de0d05eaa8b374" target="_top" xlink:title=" ">
<polygon fill="none" stroke="black" points="328,-1202.71 328,-1221.71 467,-1221.71 467,-1202.71 328,-1202.71"/>
<text text-anchor="middle" x="397.5" y="-1209.71" font-family="Helvetica,sans-Serif" font-size="10.00">SyntaxAnalyzer::syntaxForSt</text>
</a>
</g>
</g>
<!-- Node21&#45;&gt;Node26 -->
<g id="edge82" class="edge">
<title>Node21&#45;&gt;Node26</title>
<path fill="none" stroke="midnightblue" d="M238.06,-945.76C265.23,-986.06 357.83,-1139.93 387.37,-1193.73"/>
<polygon fill="midnightblue" stroke="midnightblue" points="384.3,-1195.42 392.12,-1202.56 390.46,-1192.1 384.3,-1195.42"/>
</g>
<!-- Node28 -->
<g id="node28" class="node">
<title>Node28</title>
<g id="a_node28"><a xlink:href="../../d0/dfe/class_syntax_analyzer.html#a55e935b2aa7f20b66e9228e977582fcd" target="_top" xlink:title=" ">
<polygon fill="none" stroke="black" points="692,-432.71 692,-451.71 845,-451.71 845,-432.71 692,-432.71"/>
<text text-anchor="middle" x="768.5" y="-439.71" font-family="Helvetica,sans-Serif" font-size="10.00">SyntaxAnalyzer::syntaxReturnSt</text>
</a>
</g>
</g>
<!-- Node21&#45;&gt;Node28 -->
<g id="edge96" class="edge">
<title>Node21&#45;&gt;Node28</title>
<path fill="none" stroke="midnightblue" d="M230.96,-926.65C234.1,-865.48 254.56,-529.39 328,-466.21 442.4,-367.8 641.82,-406.94 727.03,-429.97"/>
<polygon fill="midnightblue" stroke="midnightblue" points="726.27,-433.39 736.84,-432.69 728.14,-426.65 726.27,-433.39"/>
</g>
<!-- Node29 -->
<g id="node29" class="node">
<title>Node29</title>
<g id="a_node29"><a xlink:href="../../d0/dfe/class_syntax_analyzer.html#a64dad7f0b22b08d182483469d3a1aa79" target="_top" xlink:title=" ">
<polygon fill="none" stroke="black" points="694,-166.71 694,-185.71 843,-185.71 843,-166.71 694,-166.71"/>
<text text-anchor="middle" x="768.5" y="-173.71" font-family="Helvetica,sans-Serif" font-size="10.00">SyntaxAnalyzer::syntaxWhileSt</text>
</a>
</g>
</g>
<!-- Node21&#45;&gt;Node29 -->
<g id="edge101" class="edge">
<title>Node21&#45;&gt;Node29</title>
<path fill="none" stroke="midnightblue" d="M231.01,-926.67C235.05,-861.29 263.42,-484.5 328,-394.21 414.31,-273.55 584.26,-212.37 685.67,-188.1"/>
<polygon fill="midnightblue" stroke="midnightblue" points="686.62,-191.47 695.57,-185.8 685.04,-184.66 686.62,-191.47"/>
</g>
<!-- Node22&#45;&gt;Node2 -->
<g id="edge63" class="edge">
<title>Node22&#45;&gt;Node2</title>
<path fill="none" stroke="midnightblue" d="M776.44,-1060.08C826.28,-1129.7 1138,-1544.21 1495.5,-1544.21 1495.5,-1544.21 1495.5,-1544.21 1690.5,-1544.21 1811.19,-1544.21 1851.03,-1569.95 1961,-1520.21 1996.22,-1504.28 2026.47,-1469.61 2042.73,-1448.25"/>
<polygon fill="midnightblue" stroke="midnightblue" points="2045.69,-1450.13 2048.82,-1440.01 2040.06,-1445.97 2045.69,-1450.13"/>
</g>
<!-- Node22&#45;&gt;Node6 -->
<g id="edge64" class="edge">
<title>Node22&#45;&gt;Node6</title>
<path fill="none" stroke="midnightblue" d="M769.67,-1040.55C771.74,-954.88 798.3,-328.21 1133,-328.21 1133,-328.21 1133,-328.21 1690.5,-328.21 1818.23,-328.21 1963.22,-383.37 2025.01,-409.63"/>
<polygon fill="midnightblue" stroke="midnightblue" points="2023.63,-412.84 2034.2,-413.58 2026.4,-406.41 2023.63,-412.84"/>
</g>
<!-- Node22&#45;&gt;Node7 -->
<g id="edge65" class="edge">
<title>Node22&#45;&gt;Node7</title>
<path fill="none" stroke="midnightblue" d="M772.92,-1059.74C784.68,-1091.75 825.89,-1197.59 882,-1271.21 943.97,-1352.54 967.23,-1369.04 1052,-1426.21 1398.98,-1660.25 1590.09,-1866.11 1961,-1672.21 2067.97,-1616.29 2070.41,-1560.97 2116,-1449.21 2140.46,-1389.26 2207.65,-924.79 2222.2,-822.92"/>
<polygon fill="midnightblue" stroke="midnightblue" points="2225.7,-823.2 2223.64,-812.8 2218.77,-822.21 2225.7,-823.2"/>
</g>
<!-- Node22&#45;&gt;Node9 -->
<g id="edge67" class="edge">
<title>Node22&#45;&gt;Node9</title>
<path fill="none" stroke="midnightblue" d="M775.64,-1040.4C801.55,-999.04 902.12,-838.46 936.45,-783.66"/>
<polygon fill="midnightblue" stroke="midnightblue" points="939.54,-785.31 941.88,-774.98 933.61,-781.6 939.54,-785.31"/>
</g>
<!-- Node22&#45;&gt;Node15 -->
<g id="edge66" class="edge">
<title>Node22&#45;&gt;Node15</title>
<path fill="none" stroke="midnightblue" d="M835.55,-1040.7C1021.91,-1013.61 1540.19,-936.44 1568,-912.21 1607.74,-877.59 1564.34,-833.93 1604,-799.21 1606.39,-797.12 1608.97,-795.27 1611.68,-793.64"/>
<polygon fill="midnightblue" stroke="midnightblue" points="1613.36,-796.72 1620.78,-789.15 1610.26,-790.44 1613.36,-796.72"/>
</g>
<!-- Node22&#45;&gt;Node19 -->
<g id="edge68" class="edge">
<title>Node22&#45;&gt;Node19</title>
<path fill="none" stroke="midnightblue" d="M807.45,-1059.76C904.71,-1082.87 1170.55,-1137.35 1389,-1102.21 1488.35,-1086.23 1507.02,-1058.06 1604,-1031.21 1613.14,-1028.68 1622.91,-1026.24 1632.44,-1024.01"/>
<polygon fill="midnightblue" stroke="midnightblue" points="1633.29,-1027.4 1642.25,-1021.76 1631.72,-1020.58 1633.29,-1027.4"/>
</g>
<!-- Node22&#45;&gt;Node20 -->
<g id="edge69" class="edge">
<title>Node22&#45;&gt;Node20</title>
<path fill="none" stroke="midnightblue" d="M790.14,-1059.82C812.64,-1070.23 849.73,-1087.23 882,-1101.21 1097.97,-1194.79 1154.92,-1278.79 1389,-1254.21 1578.2,-1234.35 1635.63,-1198.7 1775,-1069.21 1814.67,-1032.36 1853.14,-981.27 1872.34,-954.4"/>
<polygon fill="midnightblue" stroke="midnightblue" points="1875.39,-956.16 1878.3,-945.97 1869.67,-952.12 1875.39,-956.16"/>
</g>
<!-- Node23&#45;&gt;Node2 -->
<g id="edge72" class="edge">
<title>Node23&#45;&gt;Node2</title>
<path fill="none" stroke="midnightblue" d="M1706.58,-1059.8C1751.38,-1087.11 1879.66,-1169.49 1961,-1264.21 2001.55,-1311.43 2033.44,-1378.64 2047.57,-1411.15"/>
<polygon fill="midnightblue" stroke="midnightblue" points="2044.38,-1412.59 2051.52,-1420.41 2050.81,-1409.84 2044.38,-1412.59"/>
</g>
<!-- Node23&#45;&gt;Node6 -->
<g id="edge73" class="edge">
<title>Node23&#45;&gt;Node6</title>
<path fill="none" stroke="midnightblue" d="M1761.22,-1040.55C1766.23,-1038.05 1770.9,-1034.98 1775,-1031.21 1814.13,-995.27 1780.41,-960.66 1811,-917.21 1859.2,-848.74 1919.44,-875.9 1961,-803.21 2028.53,-685.1 1945.66,-625.21 1997,-499.21 2006.33,-476.31 2024.52,-454.41 2038.15,-440.05"/>
<polygon fill="midnightblue" stroke="midnightblue" points="2040.67,-442.48 2045.17,-432.89 2035.67,-437.58 2040.67,-442.48"/>
</g>
<!-- Node23&#45;&gt;Node7 -->
<g id="edge74" class="edge">
<title>Node23&#45;&gt;Node7</title>
<path fill="none" stroke="midnightblue" d="M1759.29,-1059.74C1850.01,-1068.46 2010.45,-1070.15 2116,-993.21 2176.11,-949.4 2208,-861.61 2219.7,-822.63"/>
<polygon fill="midnightblue" stroke="midnightblue" points="2223.07,-823.58 2222.47,-813.01 2216.34,-821.65 2223.07,-823.58"/>
</g>
<!-- Node23&#45;&gt;Node18 -->
<g id="edge75" class="edge">
<title>Node23&#45;&gt;Node18</title>
<path fill="none" stroke="midnightblue" d="M1745.1,-1040.69C1799.87,-1030.91 1886.55,-1014.81 1961,-998.21 1976.99,-994.65 1994.4,-990.35 2009.87,-986.38"/>
<polygon fill="midnightblue" stroke="midnightblue" points="2010.92,-989.72 2019.72,-983.83 2009.16,-982.95 2010.92,-989.72"/>
</g>
<!-- Node24 -->
<g id="node24" class="node">
<title>Node24</title>
<g id="a_node24"><a xlink:href="../../d0/dfe/class_syntax_analyzer.html#a6df61a82ef9de3c17b78be89a321a087" target="_top" xlink:title=" ">
<polygon fill="none" stroke="black" points="1815.5,-584.71 1815.5,-603.71 1956.5,-603.71 1956.5,-584.71 1815.5,-584.71"/>
<text text-anchor="middle" x="1886" y="-591.71" font-family="Helvetica,sans-Serif" font-size="10.00">SyntaxAnalyzer::syntaxStList</text>
</a>
</g>
</g>
<!-- Node23&#45;&gt;Node24 -->
<g id="edge76" class="edge">
<title>Node23&#45;&gt;Node24</title>
<path fill="none" stroke="midnightblue" d="M1763.2,-1040.69C1767.57,-1038.13 1771.58,-1035.01 1775,-1031.21 1820.56,-980.69 1790.07,-791.94 1811,-727.21 1825.28,-683.07 1854.78,-636.92 1871.9,-612.28"/>
<polygon fill="midnightblue" stroke="midnightblue" points="1874.89,-614.12 1877.81,-603.93 1869.17,-610.08 1874.89,-614.12"/>
</g>
<!-- Node24&#45;&gt;Node6 -->
<g id="edge77" class="edge">
<title>Node24&#45;&gt;Node6</title>
<path fill="none" stroke="midnightblue" d="M1935.28,-584.64C1944.52,-581.2 1953.61,-576.53 1961,-570.21 1987.89,-547.22 1978.13,-529.14 1997,-499.21 2010.22,-478.26 2027.83,-455.99 2040.27,-441.01"/>
<polygon fill="midnightblue" stroke="midnightblue" points="2043.16,-443 2046.92,-433.1 2037.81,-438.5 2043.16,-443"/>
</g>
<!-- Node24&#45;&gt;Node7 -->
<g id="edge78" class="edge">
<title>Node24&#45;&gt;Node7</title>
<path fill="none" stroke="midnightblue" d="M1956.71,-585.87C2005.08,-583.62 2069.01,-588 2116,-618.21 2177.21,-657.56 2208.44,-744.46 2219.83,-783.52"/>
<polygon fill="midnightblue" stroke="midnightblue" points="2216.53,-784.7 2222.58,-793.39 2223.27,-782.82 2216.53,-784.7"/>
</g>
<!-- Node24&#45;&gt;Node21 -->
<g id="edge79" class="edge">
<title>Node24&#45;&gt;Node21</title>
<path fill="none" stroke="midnightblue" d="M1866.62,-584.69C1811.97,-557.29 1645.11,-480.21 1497.5,-480.21 578,-480.21 578,-480.21 578,-480.21 457.66,-480.21 407.66,-494.01 328,-584.21 239.46,-684.47 230.63,-858.49 230.27,-916.65"/>
<polygon fill="midnightblue" stroke="midnightblue" points="226.77,-916.69 230.29,-926.68 233.77,-916.68 226.77,-916.69"/>
</g>
<!-- Node25&#45;&gt;Node2 -->
<g id="edge81" class="edge">
<title>Node25&#45;&gt;Node2</title>
<path fill="none" stroke="midnightblue" d="M597.4,-1838.69C649.14,-1811.29 807.21,-1734.21 948,-1734.21 948,-1734.21 948,-1734.21 1135,-1734.21 1181.22,-1734.21 1927.23,-1665.77 1961,-1634.21 2021.16,-1578 1944.57,-1512.6 1996.83,-1447.34"/>
<polygon fill="midnightblue" stroke="midnightblue" points="1999.49,-1449.61 2003.47,-1439.79 1994.24,-1444.99 1999.49,-1449.61"/>
</g>
<!-- Node26&#45;&gt;Node2 -->
<g id="edge83" class="edge">
<title>Node26&#45;&gt;Node2</title>
<path fill="none" stroke="midnightblue" d="M399.86,-1221.93C405.55,-1259.44 430.68,-1396.78 503,-1478.21 591.6,-1577.97 634.07,-1620.21 767.5,-1620.21 767.5,-1620.21 767.5,-1620.21 1690.5,-1620.21 1811.9,-1620.21 1870.27,-1662.87 1961,-1582.21 2005.66,-1542.51 1957.74,-1494.73 1996.85,-1447.38"/>
<polygon fill="midnightblue" stroke="midnightblue" points="1999.66,-1449.5 2003.9,-1439.79 1994.53,-1444.73 1999.66,-1449.5"/>
</g>
<!-- Node26&#45;&gt;Node6 -->
<g id="edge84" class="edge">
<title>Node26&#45;&gt;Node6</title>
<path fill="none" stroke="midnightblue" d="M399.59,-1202.6C410.82,-1105.09 509.13,-295.64 691,-157.21 803.28,-71.74 1845.77,-74.76 1961,-156.21 1971.68,-163.76 2029.88,-343.18 2049.24,-403.58"/>
<polygon fill="midnightblue" stroke="midnightblue" points="2046,-404.94 2052.38,-413.4 2052.67,-402.81 2046,-404.94"/>
</g>
<!-- Node26&#45;&gt;Node7 -->
<g id="edge85" class="edge">
<title>Node26&#45;&gt;Node7</title>
<path fill="none" stroke="midnightblue" d="M399.57,-1222.09C408.62,-1299.84 478.98,-1810.21 767.5,-1810.21 767.5,-1810.21 767.5,-1810.21 1321.5,-1810.21 1682.42,-1810.21 1938.52,-1956.48 2116,-1642.21 2153.9,-1575.09 2142.36,-1373.69 2152,-1297.21 2175.31,-1112.23 2210.97,-889.42 2221.78,-822.88"/>
<polygon fill="midnightblue" stroke="midnightblue" points="2225.25,-823.37 2223.4,-812.94 2218.34,-822.25 2225.25,-823.37"/>
</g>
<!-- Node26&#45;&gt;Node21 -->
<g id="edge94" class="edge">
<title>Node26&#45;&gt;Node21</title>
<path fill="none" stroke="midnightblue" d="M388.96,-1202.71C361.86,-1162.51 269.34,-1008.79 239.71,-954.84"/>
<polygon fill="midnightblue" stroke="midnightblue" points="242.76,-953.12 234.94,-945.97 236.6,-956.44 242.76,-953.12"/>
</g>
<!-- Node27 -->
<g id="node27" class="node">
<title>Node27</title>
<g id="a_node27"><a xlink:href="../../d0/dfe/class_syntax_analyzer.html#a931f1efdd45180108ad5c8a3f7fd86b2" target="_top" xlink:title=" ">
<polygon fill="none" stroke="black" points="514.5,-1449.71 514.5,-1468.71 643.5,-1468.71 643.5,-1449.71 514.5,-1449.71"/>
<text text-anchor="middle" x="579" y="-1456.71" font-family="Helvetica,sans-Serif" font-size="10.00">SyntaxAnalyzer::syntaxIter</text>
</a>
</g>
</g>
<!-- Node26&#45;&gt;Node27 -->
<g id="edge86" class="edge">
<title>Node26&#45;&gt;Node27</title>
<path fill="none" stroke="midnightblue" d="M405.54,-1221.9C432.51,-1259.02 529.58,-1392.59 564.97,-1441.29"/>
<polygon fill="midnightblue" stroke="midnightblue" points="562.3,-1443.56 571.01,-1449.6 567.96,-1439.45 562.3,-1443.56"/>
</g>
<!-- Node27&#45;&gt;Node2 -->
<g id="edge87" class="edge">
<title>Node27&#45;&gt;Node2</title>
<path fill="none" stroke="midnightblue" d="M596.22,-1468.86C646.54,-1497.86 805.19,-1582.21 948,-1582.21 948,-1582.21 948,-1582.21 1690.5,-1582.21 1811.61,-1582.21 1855.33,-1608.39 1961,-1549.21 2002.43,-1526.01 2032.32,-1476.6 2046.41,-1449.31"/>
<polygon fill="midnightblue" stroke="midnightblue" points="2049.71,-1450.55 2051.03,-1440.04 2043.44,-1447.43 2049.71,-1450.55"/>
</g>
<!-- Node27&#45;&gt;Node3 -->
<g id="edge89" class="edge">
<title>Node27&#45;&gt;Node3</title>
<path fill="none" stroke="midnightblue" d="M580.73,-1468.87C584.38,-1510.95 604.16,-1680.44 691,-1778.21 937.32,-2055.53 1124.58,-2000.21 1495.5,-2000.21 1495.5,-2000.21 1495.5,-2000.21 1887,-2000.21 2027.63,-2000.21 2163.83,-1873.68 2209.18,-1827.13"/>
<polygon fill="midnightblue" stroke="midnightblue" points="2211.72,-1829.54 2216.12,-1819.9 2206.67,-1824.69 2211.72,-1829.54"/>
</g>
<!-- Node27&#45;&gt;Node4 -->
<g id="edge91" class="edge">
<title>Node27&#45;&gt;Node4</title>
<path fill="none" stroke="midnightblue" d="M581.3,-1468.89C586.85,-1506.16 611.94,-1641.74 691,-1710.21 910.28,-1900.11 1029.42,-1886.21 1319.5,-1886.21 1319.5,-1886.21 1319.5,-1886.21 1497.5,-1886.21 1703.78,-1886.21 1792.04,-1980.54 1961,-1862.21 2139.3,-1737.34 2042.35,-1599.26 2152,-1411.21 2168.99,-1382.07 2193.75,-1351.73 2209.61,-1333.4"/>
<polygon fill="midnightblue" stroke="midnightblue" points="2212.26,-1335.7 2216.22,-1325.87 2206.99,-1331.08 2212.26,-1335.7"/>
</g>
<!-- Node27&#45;&gt;Node6 -->
<g id="edge88" class="edge">
<title>Node27&#45;&gt;Node6</title>
<path fill="none" stroke="midnightblue" d="M582.41,-1449.48C593.06,-1406.01 636.2,-1225.24 655,-1074.21 672.89,-930.43 630.82,-555.01 691,-423.21 752.15,-289.29 800.78,-214.21 948,-214.21 948,-214.21 948,-214.21 1690.5,-214.21 1811.84,-214.21 1861,-182.48 1961,-251.21 2014.95,-288.29 2041.15,-366.59 2050.86,-403.36"/>
<polygon fill="midnightblue" stroke="midnightblue" points="2047.54,-404.49 2053.36,-413.34 2054.33,-402.79 2047.54,-404.49"/>
</g>
<!-- Node27&#45;&gt;Node7 -->
<g id="edge90" class="edge">
<title>Node27&#45;&gt;Node7</title>
<path fill="none" stroke="midnightblue" d="M587.36,-1468.8C622.32,-1513.14 777.02,-1696.21 948,-1696.21 948,-1696.21 948,-1696.21 1135,-1696.21 1502.21,-1696.21 1638.99,-1891.72 1961,-1715.21 2045.61,-1668.84 2072.75,-1649.46 2116,-1563.21 2169.48,-1456.57 2135.28,-1415.33 2152,-1297.21 2178.13,-1112.61 2211.88,-889.54 2222,-822.91"/>
<polygon fill="midnightblue" stroke="midnightblue" points="2225.47,-823.37 2223.51,-812.96 2218.55,-822.32 2225.47,-823.37"/>
</g>
<!-- Node27&#45;&gt;Node13 -->
<g id="edge93" class="edge">
<title>Node27&#45;&gt;Node13</title>
<path fill="none" stroke="midnightblue" d="M583.7,-1449.67C606.87,-1391.6 737.98,-1088.21 948,-1088.21 948,-1088.21 948,-1088.21 1135,-1088.21 1265.89,-1088.21 1411.59,-1019.05 1469.62,-988.47"/>
<polygon fill="midnightblue" stroke="midnightblue" points="1471.31,-991.53 1478.48,-983.74 1468.01,-985.36 1471.31,-991.53"/>
</g>
<!-- Node27&#45;&gt;Node22 -->
<g id="edge92" class="edge">
<title>Node27&#45;&gt;Node22</title>
<path fill="none" stroke="midnightblue" d="M579.7,-1449.54C578.73,-1401.57 580.89,-1186.91 691,-1074.21 694.73,-1070.39 699.07,-1067.17 703.74,-1064.47"/>
<polygon fill="midnightblue" stroke="midnightblue" points="705.65,-1067.43 713.07,-1059.87 702.55,-1061.15 705.65,-1067.43"/>
</g>
<!-- Node28&#45;&gt;Node2 -->
<g id="edge97" class="edge">
<title>Node28&#45;&gt;Node2</title>
<path fill="none" stroke="midnightblue" d="M770.95,-451.72C778.66,-501.08 816.89,-732.78 882,-912.21 885.62,-922.18 1044.83,-1246.39 1052,-1254.21 1060.2,-1263.17 1413.31,-1478.92 1425,-1482.21 1654.31,-1546.75 1730.27,-1541.5 1961,-1482.21 1988.43,-1475.16 2016.44,-1458.29 2034.76,-1445.67"/>
<polygon fill="midnightblue" stroke="midnightblue" points="2036.8,-1448.51 2042.93,-1439.87 2032.75,-1442.8 2036.8,-1448.51"/>
</g>
<!-- Node28&#45;&gt;Node6 -->
<g id="edge98" class="edge">
<title>Node28&#45;&gt;Node6</title>
<path fill="none" stroke="midnightblue" d="M772.7,-432.52C783.03,-402.99 818.52,-313.86 882,-276.21 978.39,-219.05 1020.94,-252.21 1133,-252.21 1133,-252.21 1133,-252.21 1497.5,-252.21 1705.33,-252.21 1778.09,-215.53 1961,-314.21 2000.11,-335.31 2030.41,-379.53 2045.32,-404.68"/>
<polygon fill="midnightblue" stroke="midnightblue" points="2042.41,-406.66 2050.42,-413.59 2048.49,-403.17 2042.41,-406.66"/>
</g>
<!-- Node28&#45;&gt;Node7 -->
<g id="edge99" class="edge">
<title>Node28&#45;&gt;Node7</title>
<path fill="none" stroke="midnightblue" d="M780.2,-432.68C799.32,-416.1 841.19,-381.86 882,-362.21 986.56,-311.86 1016.95,-290.21 1133,-290.21 1133,-290.21 1133,-290.21 1497.5,-290.21 1777.02,-290.21 1932.8,-193.1 2116,-404.21 2141.85,-434 2203.62,-706.58 2220.61,-783.24"/>
<polygon fill="midnightblue" stroke="midnightblue" points="2217.29,-784.43 2222.86,-793.44 2224.12,-782.92 2217.29,-784.43"/>
</g>
<!-- Node28&#45;&gt;Node9 -->
<g id="edge100" class="edge">
<title>Node28&#45;&gt;Node9</title>
<path fill="none" stroke="midnightblue" d="M774.84,-451.88C799.73,-496.92 904.53,-686.56 937.81,-746.78"/>
<polygon fill="midnightblue" stroke="midnightblue" points="934.78,-748.52 942.68,-755.58 940.91,-745.14 934.78,-748.52"/>
</g>
<!-- Node29&#45;&gt;Node2 -->
<g id="edge102" class="edge">
<title>Node29&#45;&gt;Node2</title>
<path fill="none" stroke="midnightblue" d="M773.28,-185.91C785.9,-218.69 826.84,-328.62 846,-423.21 878.01,-581.24 811.31,-639.29 882,-784.21 918.11,-858.24 977.71,-839.29 1016,-912.21 1063.08,-1001.88 998.56,-1051.19 1052,-1137.21 1052.84,-1138.56 1423.55,-1401.57 1425,-1402.21 1499.47,-1435.12 1523.2,-1431.13 1604,-1441.21 1761.48,-1460.87 1803.01,-1463.13 1961,-1448.21 1975.18,-1446.87 1990.41,-1444.43 2004.4,-1441.76"/>
<polygon fill="midnightblue" stroke="midnightblue" points="2005.21,-1445.17 2014.34,-1439.8 2003.85,-1438.3 2005.21,-1445.17"/>
</g>
<!-- Node29&#45;&gt;Node6 -->
<g id="edge103" class="edge">
<title>Node29&#45;&gt;Node6</title>
<path fill="none" stroke="midnightblue" d="M843.18,-176.21C974.35,-176.21 1256.97,-176.21 1495.5,-176.21 1495.5,-176.21 1495.5,-176.21 1690.5,-176.21 1811.19,-176.21 1863.42,-129.18 1961,-200.21 2029.17,-249.84 2048.53,-358.56 2053.72,-403.34"/>
<polygon fill="midnightblue" stroke="midnightblue" points="2050.26,-403.91 2054.77,-413.5 2057.22,-403.19 2050.26,-403.91"/>
</g>
<!-- Node29&#45;&gt;Node7 -->
<g id="edge104" class="edge">
<title>Node29&#45;&gt;Node7</title>
<path fill="none" stroke="midnightblue" d="M828.34,-166.69C1039.33,-133.6 1756.19,-30.64 1961,-124.21 2056.72,-167.95 2069.55,-208.78 2116,-303.21 2151.43,-375.25 2135.15,-401.72 2152,-480.21 2176.74,-595.44 2208.67,-733.24 2220.41,-783.58"/>
<polygon fill="midnightblue" stroke="midnightblue" points="2217.03,-784.51 2222.71,-793.45 2223.85,-782.92 2217.03,-784.51"/>
</g>
<!-- Node29&#45;&gt;Node9 -->
<g id="edge105" class="edge">
<title>Node29&#45;&gt;Node9</title>
<path fill="none" stroke="midnightblue" d="M772.6,-186.08C783.05,-219.41 817.93,-330.87 846,-423.21 883.27,-545.82 926.9,-693.54 942.28,-745.77"/>
<polygon fill="midnightblue" stroke="midnightblue" points="939.02,-747.08 945.2,-755.68 945.73,-745.1 939.02,-747.08"/>
</g>
<!-- Node29&#45;&gt;Node21 -->
<g id="edge106" class="edge">
<title>Node29&#45;&gt;Node21</title>
<path fill="none" stroke="midnightblue" d="M738.77,-185.78C658.73,-207.45 432.3,-266.4 328,-412.21 267.7,-496.52 238.97,-830.64 232.14,-916.27"/>
<polygon fill="midnightblue" stroke="midnightblue" points="228.63,-916.21 231.33,-926.46 235.61,-916.76 228.63,-916.21"/>
</g>
</g>
</svg>
