<?xml version="1.0" encoding="UTF-8" standalone="no"?>
<!DOCTYPE svg PUBLIC "-//W3C//DTD SVG 1.1//EN"
 "http://www.w3.org/Graphics/SVG/1.1/DTD/svg11.dtd">
<!-- Generated by graphviz version 3.0.0 (20220413.0106)
 -->
<!-- Title: SyntaxAnalyzer::getNextToken Pages: 1 -->
<svg width="3136pt" height="973pt"
 viewBox="0.00 0.00 3136.00 972.95" xmlns="http://www.w3.org/2000/svg" xmlns:xlink="http://www.w3.org/1999/xlink">
<g id="graph0" class="graph" transform="scale(1 1) rotate(0) translate(4 968.95)">
<title>SyntaxAnalyzer::getNextToken</title>
<!-- Node1 -->
<g id="node1" class="node">
<title>Node1</title>
<g id="a_node1"><a xlink:title=" ">
<polygon fill="#bfbfbf" stroke="black" points="2980,-633.45 2980,-652.45 3128,-652.45 3128,-633.45 2980,-633.45"/>
<text text-anchor="middle" x="3054" y="-640.45" font-family="Helvetica,sans-Serif" font-size="10.00">SyntaxAnalyzer::getNextToken</text>
</a>
</g>
</g>
<!-- Node2 -->
<g id="node2" class="node">
<title>Node2</title>
<g id="a_node2"><a xlink:href="../../d0/dfe/class_syntax_analyzer.html#ae1d3434e5cc4b4bcd5a3a245814a44f0" target="_top" xlink:title=" ">
<polygon fill="none" stroke="black" points="2834.5,-500.45 2834.5,-519.45 2935.5,-519.45 2935.5,-500.45 2834.5,-500.45"/>
<text text-anchor="middle" x="2885" y="-507.45" font-family="Helvetica,sans-Serif" font-size="10.00">SyntaxAnalyzer::eat</text>
</a>
</g>
</g>
<!-- Node1&#45;&gt;Node2 -->
<g id="edge1" class="edge">
<title>Node1&#45;&gt;Node2</title>
<path fill="none" stroke="midnightblue" d="M3032.93,-626.97C2997.98,-599.14 2926.96,-542.58 2898.35,-519.79"/>
<polygon fill="midnightblue" stroke="midnightblue" points="3030.99,-629.9 3040.99,-633.39 3035.35,-624.42 3030.99,-629.9"/>
</g>
<!-- Node29 -->
<g id="node29" class="node">
<title>Node29</title>
<g id="a_node29"><a xlink:href="../../d0/dfe/class_syntax_analyzer.html#a9952c4a2db0a1382b9c94f40dd535fae" target="_top" xlink:title=" ">
<polygon fill="none" stroke="black" points="2826,-813.45 2826,-832.45 2944,-832.45 2944,-813.45 2826,-813.45"/>
<text text-anchor="middle" x="2885" y="-820.45" font-family="Helvetica,sans-Serif" font-size="10.00">SyntaxAnalyzer::eatAdv</text>
</a>
</g>
</g>
<!-- Node1&#45;&gt;Node29 -->
<g id="edge67" class="edge">
<title>Node1&#45;&gt;Node29</title>
<path fill="none" stroke="midnightblue" d="M3037.03,-660.17C3002.54,-697.34 2922.04,-784.11 2895.02,-813.23"/>
<polygon fill="midnightblue" stroke="midnightblue" points="3039.79,-662.34 3044.02,-652.63 3034.65,-657.58 3039.79,-662.34"/>
</g>
<!-- Node3 -->
<g id="node3" class="node">
<title>Node3</title>
<g id="a_node3"><a xlink:href="../../d0/dfe/class_syntax_analyzer.html#a31fc5887c158652feb946f89270b4b36" target="_top" xlink:title=" ">
<polygon fill="none" stroke="black" points="1711,-357.45 1711,-376.45 1866,-376.45 1866,-357.45 1711,-357.45"/>
<text text-anchor="middle" x="1788.5" y="-364.45" font-family="Helvetica,sans-Serif" font-size="10.00">SyntaxAnalyzer::syntaxAssignSt</text>
</a>
</g>
</g>
<!-- Node2&#45;&gt;Node3 -->
<g id="edge2" class="edge">
<title>Node2&#45;&gt;Node3</title>
<path fill="none" stroke="midnightblue" d="M2873.01,-491.69C2857.38,-467.09 2826.52,-423.35 2790,-396.95 2685.68,-321.56 2649.21,-290.95 2520.5,-290.95 2520.5,-290.95 2520.5,-290.95 2153,-290.95 2024.7,-290.95 1876.22,-336.88 1816.46,-357.33"/>
<polygon fill="midnightblue" stroke="midnightblue" points="2870.16,-493.74 2878.41,-500.39 2876.11,-490.05 2870.16,-493.74"/>
</g>
<!-- Node4 -->
<g id="node4" class="node">
<title>Node4</title>
<g id="a_node4"><a xlink:href="../../d0/dfe/class_syntax_analyzer.html#aea3a3d1860938d64edf651bdc4016c04" target="_top" xlink:title=" ">
<polygon fill="none" stroke="black" points="1536,-319.45 1536,-338.45 1675,-338.45 1675,-319.45 1536,-319.45"/>
<text text-anchor="middle" x="1605.5" y="-326.45" font-family="Helvetica,sans-Serif" font-size="10.00">SyntaxAnalyzer::syntaxIterSt</text>
</a>
</g>
</g>
<!-- Node2&#45;&gt;Node4 -->
<g id="edge47" class="edge">
<title>Node2&#45;&gt;Node4</title>
<path fill="none" stroke="midnightblue" d="M2881.83,-490.18C2875.93,-447.08 2855.39,-344.85 2790,-298.95 2558.4,-136.39 2437.96,-252.95 2155,-252.95 2155,-252.95 2155,-252.95 1968,-252.95 1840.38,-252.95 1692.73,-298.88 1633.3,-319.33"/>
<polygon fill="midnightblue" stroke="midnightblue" points="2878.37,-490.75 2883.08,-500.24 2885.32,-489.88 2878.37,-490.75"/>
</g>
<!-- Node5 -->
<g id="node5" class="node">
<title>Node5</title>
<g id="a_node5"><a xlink:href="../../d0/dfe/class_syntax_analyzer.html#a82e8472ea6d1064871de0d05eaa8b374" target="_top" xlink:title=" ">
<polygon fill="none" stroke="black" points="1361,-319.45 1361,-338.45 1500,-338.45 1500,-319.45 1361,-319.45"/>
<text text-anchor="middle" x="1430.5" y="-326.45" font-family="Helvetica,sans-Serif" font-size="10.00">SyntaxAnalyzer::syntaxForSt</text>
</a>
</g>
</g>
<!-- Node2&#45;&gt;Node5 -->
<g id="edge44" class="edge">
<title>Node2&#45;&gt;Node5</title>
<path fill="none" stroke="midnightblue" d="M2881.62,-490.46C2875.31,-447.93 2854,-346.76 2790,-298.95 2561.93,-128.58 2439.68,-214.95 2155,-214.95 2155,-214.95 2155,-214.95 1787.5,-214.95 1650.89,-214.95 1498.24,-292.03 1448.29,-319.43"/>
<polygon fill="midnightblue" stroke="midnightblue" points="2878.16,-490.95 2882.97,-500.38 2885.09,-490 2878.16,-490.95"/>
</g>
<!-- Node6 -->
<g id="node6" class="node">
<title>Node6</title>
<g id="a_node6"><a xlink:href="../../d0/dfe/class_syntax_analyzer.html#a7f54bde730006b1b863290415809ab4e" target="_top" xlink:title=" ">
<polygon fill="none" stroke="black" points="1200,-395.45 1200,-414.45 1325,-414.45 1325,-395.45 1200,-395.45"/>
<text text-anchor="middle" x="1262.5" y="-402.45" font-family="Helvetica,sans-Serif" font-size="10.00">SyntaxAnalyzer::syntaxSt</text>
</a>
</g>
</g>
<!-- Node2&#45;&gt;Node6 -->
<g id="edge51" class="edge">
<title>Node2&#45;&gt;Node6</title>
<path fill="none" stroke="midnightblue" d="M2884.14,-490.2C2883.35,-437.24 2873.36,-291.28 2790,-219.95 2697.84,-141.1 2641.79,-176.95 2520.5,-176.95 2520.5,-176.95 2520.5,-176.95 1604.5,-176.95 1444.62,-176.95 1302.91,-352.3 1270.46,-395.45"/>
<polygon fill="midnightblue" stroke="midnightblue" points="2880.64,-490.31 2884.19,-500.29 2887.64,-490.27 2880.64,-490.31"/>
</g>
<!-- Node7 -->
<g id="node7" class="node">
<title>Node7</title>
<g id="a_node7"><a xlink:href="../../d0/dfe/class_syntax_analyzer.html#a779e006875d35926152773989f4b1e5a" target="_top" xlink:title=" ">
<polygon fill="none" stroke="black" points="1024,-509.45 1024,-528.45 1155,-528.45 1155,-509.45 1024,-509.45"/>
<text text-anchor="middle" x="1089.5" y="-516.45" font-family="Helvetica,sans-Serif" font-size="10.00">SyntaxAnalyzer::syntaxIfSt</text>
</a>
</g>
</g>
<!-- Node2&#45;&gt;Node7 -->
<g id="edge46" class="edge">
<title>Node2&#45;&gt;Node7</title>
<path fill="none" stroke="midnightblue" d="M2871.05,-527.88C2854.62,-549.27 2824.28,-584.58 2790,-603.95 2682.56,-664.7 2643.92,-670.95 2520.5,-670.95 2520.5,-670.95 2520.5,-670.95 1429.5,-670.95 1289.54,-670.95 1143.28,-561.74 1101.96,-528.46"/>
<polygon fill="midnightblue" stroke="midnightblue" points="2874.02,-529.75 2877.21,-519.65 2868.41,-525.56 2874.02,-529.75"/>
</g>
<!-- Node8 -->
<g id="node8" class="node">
<title>Node8</title>
<g id="a_node8"><a xlink:href="../../d0/dfe/class_syntax_analyzer.html#a6df61a82ef9de3c17b78be89a321a087" target="_top" xlink:title=" ">
<polygon fill="none" stroke="black" points="1019,-357.45 1019,-376.45 1160,-376.45 1160,-357.45 1019,-357.45"/>
<text text-anchor="middle" x="1089.5" y="-364.45" font-family="Helvetica,sans-Serif" font-size="10.00">SyntaxAnalyzer::syntaxStList</text>
</a>
</g>
</g>
<!-- Node2&#45;&gt;Node8 -->
<g id="edge52" class="edge">
<title>Node2&#45;&gt;Node8</title>
<path fill="none" stroke="midnightblue" d="M2881.6,-490.42C2873,-423.8 2841.46,-207.21 2790,-163.95 2697.92,-86.55 2640.79,-138.95 2520.5,-138.95 2520.5,-138.95 2520.5,-138.95 2153,-138.95 1909.52,-138.95 1849.98,-100.95 1606.5,-100.95 1606.5,-100.95 1606.5,-100.95 1429.5,-100.95 1321.91,-100.95 1283.34,-109.91 1200,-177.95 1137.43,-229.04 1103.18,-325.96 1093.43,-357.07"/>
<polygon fill="midnightblue" stroke="midnightblue" points="2878.14,-490.94 2882.86,-500.42 2885.08,-490.06 2878.14,-490.94"/>
</g>
<!-- Node9 -->
<g id="node9" class="node">
<title>Node9</title>
<g id="a_node9"><a xlink:href="../../d0/dfe/class_syntax_analyzer.html#a5770afdc4d32d2c38550f27f9ffd949a" target="_top" xlink:title=" ">
<polygon fill="none" stroke="black" points="808,-576.45 808,-595.45 979,-595.45 979,-576.45 808,-576.45"/>
<text text-anchor="middle" x="893.5" y="-583.45" font-family="Helvetica,sans-Serif" font-size="10.00">SyntaxAnalyzer::syntaxCompoundSt</text>
</a>
</g>
</g>
<!-- Node2&#45;&gt;Node9 -->
<g id="edge37" class="edge">
<title>Node2&#45;&gt;Node9</title>
<path fill="none" stroke="midnightblue" d="M2882.58,-529.65C2878.1,-576.68 2860.04,-696.21 2790,-757.95 2697.58,-839.44 2643.71,-822.95 2520.5,-822.95 2520.5,-822.95 2520.5,-822.95 1968,-822.95 1538.57,-822.95 1034.74,-639.88 919.02,-595.54"/>
<polygon fill="midnightblue" stroke="midnightblue" points="2886.08,-529.82 2883.44,-519.57 2879.1,-529.23 2886.08,-529.82"/>
</g>
<!-- Node11 -->
<g id="node11" class="node">
<title>Node11</title>
<g id="a_node11"><a xlink:href="../../d0/dfe/class_syntax_analyzer.html#ae04232a95c6423677e600927c82851e4" target="_top" xlink:title=" ">
<polygon fill="none" stroke="black" points="444,-737.45 444,-756.45 596,-756.45 596,-737.45 444,-737.45"/>
<text text-anchor="middle" x="520" y="-744.45" font-family="Helvetica,sans-Serif" font-size="10.00">SyntaxAnalyzer::syntaxFuncDef</text>
</a>
</g>
</g>
<!-- Node2&#45;&gt;Node11 -->
<g id="edge45" class="edge">
<title>Node2&#45;&gt;Node11</title>
<path fill="none" stroke="midnightblue" d="M2882.77,-490.19C2877.53,-412.9 2854.3,-132.79 2790,-77.95 2698.72,-0.12 2640.46,-62.95 2520.5,-62.95 2520.5,-62.95 2520.5,-62.95 892.5,-62.95 570.88,-62.95 526.18,-654.15 521.48,-737.29"/>
<polygon fill="midnightblue" stroke="midnightblue" points="2879.3,-490.67 2883.44,-500.43 2886.28,-490.22 2879.3,-490.67"/>
</g>
<!-- Node12 -->
<g id="node12" class="node">
<title>Node12</title>
<g id="a_node12"><a xlink:href="../../d0/dfe/class_syntax_analyzer.html#a8b337bd5b4a90cd5bd804a936e408e4b" target="_top" xlink:title=" ">
<polygon fill="none" stroke="black" points="256,-737.45 256,-756.45 408,-756.45 408,-737.45 256,-737.45"/>
<text text-anchor="middle" x="332" y="-744.45" font-family="Helvetica,sans-Serif" font-size="10.00">SyntaxAnalyzer::syntaxProgram</text>
</a>
</g>
</g>
<!-- Node2&#45;&gt;Node12 -->
<g id="edge48" class="edge">
<title>Node2&#45;&gt;Node12</title>
<path fill="none" stroke="midnightblue" d="M2883.15,-490C2879.22,-408.12 2859.89,-99.38 2790,-38.95 2699.27,39.49 2640.44,-24.95 2520.5,-24.95 2520.5,-24.95 2520.5,-24.95 701,-24.95 365.45,-24.95 335.72,-651.62 333.22,-737.29"/>
<polygon fill="midnightblue" stroke="midnightblue" points="2879.67,-490.55 2883.62,-500.38 2886.66,-490.23 2879.67,-490.55"/>
</g>
<!-- Node16 -->
<g id="node16" class="node">
<title>Node16</title>
<g id="a_node16"><a xlink:href="../../d0/dfe/class_syntax_analyzer.html#a64dad7f0b22b08d182483469d3a1aa79" target="_top" xlink:title=" ">
<polygon fill="none" stroke="black" points="1015,-395.45 1015,-414.45 1164,-414.45 1164,-395.45 1015,-395.45"/>
<text text-anchor="middle" x="1089.5" y="-402.45" font-family="Helvetica,sans-Serif" font-size="10.00">SyntaxAnalyzer::syntaxWhileSt</text>
</a>
</g>
</g>
<!-- Node2&#45;&gt;Node16 -->
<g id="edge66" class="edge">
<title>Node2&#45;&gt;Node16</title>
<path fill="none" stroke="midnightblue" d="M2882.15,-490.13C2875.02,-418.37 2846.84,-173.81 2790,-124.95 2698.81,-46.56 2640.75,-100.95 2520.5,-100.95 2520.5,-100.95 2520.5,-100.95 2153,-100.95 1909.52,-100.95 1849.98,-138.95 1606.5,-138.95 1606.5,-138.95 1606.5,-138.95 1429.5,-138.95 1268.33,-138.95 1304.65,-307.26 1164,-385.95 1157.1,-389.82 1149.4,-392.91 1141.64,-395.39"/>
<polygon fill="midnightblue" stroke="midnightblue" points="2878.7,-490.83 2883.14,-500.44 2885.67,-490.15 2878.7,-490.83"/>
</g>
<!-- Node17 -->
<g id="node17" class="node">
<title>Node17</title>
<g id="a_node17"><a xlink:href="../../d0/dfe/class_syntax_analyzer.html#a2db43946bee3e973ce1cf293b262e271" target="_top" xlink:title=" ">
<polygon fill="none" stroke="black" points="2639.5,-462.45 2639.5,-481.45 2780.5,-481.45 2780.5,-462.45 2639.5,-462.45"/>
<text text-anchor="middle" x="2710" y="-469.45" font-family="Helvetica,sans-Serif" font-size="10.00">SyntaxAnalyzer::syntaxCallSt</text>
</a>
</g>
</g>
<!-- Node2&#45;&gt;Node17 -->
<g id="edge22" class="edge">
<title>Node2&#45;&gt;Node17</title>
<path fill="none" stroke="midnightblue" d="M2830.49,-498.2C2806.03,-492.83 2777.43,-486.55 2754.34,-481.47"/>
<polygon fill="midnightblue" stroke="midnightblue" points="2829.83,-501.64 2840.34,-500.37 2831.33,-494.8 2829.83,-501.64"/>
</g>
<!-- Node18 -->
<g id="node18" class="node">
<title>Node18</title>
<g id="a_node18"><a xlink:href="../../d0/dfe/class_syntax_analyzer.html#a3af9b5161a2cef6fdd26b0bb60334ac4" target="_top" xlink:title=" ">
<polygon fill="none" stroke="black" points="2448,-453.45 2448,-472.45 2591,-472.45 2591,-453.45 2448,-453.45"/>
<text text-anchor="middle" x="2519.5" y="-460.45" font-family="Helvetica,sans-Serif" font-size="10.00">SyntaxAnalyzer::syntaxFactor</text>
</a>
</g>
</g>
<!-- Node2&#45;&gt;Node18 -->
<g id="edge43" class="edge">
<title>Node2&#45;&gt;Node18</title>
<path fill="none" stroke="midnightblue" d="M2824.05,-508.44C2772.36,-506.42 2695.87,-501.75 2630,-490.95 2603.28,-486.57 2573.55,-478.78 2551.81,-472.52"/>
<polygon fill="midnightblue" stroke="midnightblue" points="2823.93,-511.93 2834.05,-508.81 2824.19,-504.94 2823.93,-511.93"/>
</g>
<!-- Node19 -->
<g id="node19" class="node">
<title>Node19</title>
<g id="a_node19"><a xlink:href="../../d0/dfe/class_syntax_analyzer.html#a1e9b913cc8c2861927d7c05d10f1822d" target="_top" xlink:title=" ">
<polygon fill="none" stroke="black" points="2272,-509.45 2272,-528.45 2409,-528.45 2409,-509.45 2272,-509.45"/>
<text text-anchor="middle" x="2340.5" y="-516.45" font-family="Helvetica,sans-Serif" font-size="10.00">SyntaxAnalyzer::syntaxTerm</text>
</a>
</g>
</g>
<!-- Node2&#45;&gt;Node19 -->
<g id="edge53" class="edge">
<title>Node2&#45;&gt;Node19</title>
<path fill="none" stroke="midnightblue" d="M2824.01,-511.28C2812.71,-511.52 2801,-511.75 2790,-511.95 2654.91,-514.45 2496.92,-516.78 2409.13,-518.02"/>
<polygon fill="midnightblue" stroke="midnightblue" points="2824.32,-514.78 2834.24,-511.07 2824.17,-507.78 2824.32,-514.78"/>
</g>
<!-- Node20 -->
<g id="node20" class="node">
<title>Node20</title>
<g id="a_node20"><a xlink:href="../../d0/dfe/class_syntax_analyzer.html#a3dfb6634a4bcdc61da5b1bafd1f3d136" target="_top" xlink:title=" ">
<polygon fill="none" stroke="black" points="2072,-509.45 2072,-528.45 2236,-528.45 2236,-509.45 2072,-509.45"/>
<text text-anchor="middle" x="2154" y="-516.45" font-family="Helvetica,sans-Serif" font-size="10.00">SyntaxAnalyzer::syntaxSimpleExpr</text>
</a>
</g>
</g>
<!-- Node2&#45;&gt;Node20 -->
<g id="edge50" class="edge">
<title>Node2&#45;&gt;Node20</title>
<path fill="none" stroke="midnightblue" d="M2829.19,-521.29C2816.38,-523.55 2802.76,-525.62 2790,-526.95 2560.97,-550.83 2501.53,-556.47 2272,-537.95 2249.03,-536.1 2223.76,-532.23 2202.6,-528.47"/>
<polygon fill="midnightblue" stroke="midnightblue" points="2830.04,-524.7 2839.25,-519.46 2828.79,-517.81 2830.04,-524.7"/>
</g>
<!-- Node21 -->
<g id="node21" class="node">
<title>Node21</title>
<g id="a_node21"><a xlink:href="../../d0/dfe/class_syntax_analyzer.html#ae8d09db1b25ec882248aeed978c13a4d" target="_top" xlink:title=" ">
<polygon fill="none" stroke="black" points="1902,-490.45 1902,-509.45 2036,-509.45 2036,-490.45 1902,-490.45"/>
<text text-anchor="middle" x="1969" y="-497.45" font-family="Helvetica,sans-Serif" font-size="10.00">SyntaxAnalyzer::syntaxExpr</text>
</a>
</g>
</g>
<!-- Node2&#45;&gt;Node21 -->
<g id="edge42" class="edge">
<title>Node2&#45;&gt;Node21</title>
<path fill="none" stroke="midnightblue" d="M2872.72,-491.75C2857.3,-468.81 2827.26,-430.51 2790,-414.95 2724.37,-387.57 2701,-410.96 2630,-414.95 2380.82,-428.98 2318.29,-437.59 2072,-477.95 2051.44,-481.32 2028.77,-486.11 2010.03,-490.35"/>
<polygon fill="midnightblue" stroke="midnightblue" points="2869.86,-493.78 2878.24,-500.26 2875.73,-489.97 2869.86,-493.78"/>
</g>
<!-- Node22 -->
<g id="node22" class="node">
<title>Node22</title>
<g id="a_node22"><a xlink:href="../../d0/dfe/class_syntax_analyzer.html#a55e935b2aa7f20b66e9228e977582fcd" target="_top" xlink:title=" ">
<polygon fill="none" stroke="black" points="1712,-509.45 1712,-528.45 1865,-528.45 1865,-509.45 1712,-509.45"/>
<text text-anchor="middle" x="1788.5" y="-516.45" font-family="Helvetica,sans-Serif" font-size="10.00">SyntaxAnalyzer::syntaxReturnSt</text>
</a>
</g>
</g>
<!-- Node2&#45;&gt;Node22 -->
<g id="edge49" class="edge">
<title>Node2&#45;&gt;Node22</title>
<path fill="none" stroke="midnightblue" d="M2859.26,-524.63C2801.86,-557.26 2654.29,-632.95 2520.5,-632.95 2520.5,-632.95 2520.5,-632.95 2153,-632.95 2013.78,-632.95 1857.74,-555.88 1806.67,-528.48"/>
<polygon fill="midnightblue" stroke="midnightblue" points="2861.08,-527.63 2867.99,-519.61 2857.58,-521.56 2861.08,-527.63"/>
</g>
<!-- Node23 -->
<g id="node23" class="node">
<title>Node23</title>
<g id="a_node23"><a xlink:href="../../d0/dfe/class_syntax_analyzer.html#adad79b2219ae143b49203a836713bec9" target="_top" xlink:title=" ">
<polygon fill="none" stroke="black" points="2630,-945.45 2630,-964.45 2790,-964.45 2790,-945.45 2630,-945.45"/>
<text text-anchor="middle" x="2710" y="-952.45" font-family="Helvetica,sans-Serif" font-size="10.00">SyntaxAnalyzer::syntaxConstDecl</text>
</a>
</g>
</g>
<!-- Node2&#45;&gt;Node23 -->
<g id="edge38" class="edge">
<title>Node2&#45;&gt;Node23</title>
<path fill="none" stroke="midnightblue" d="M2880.23,-529.39C2864.47,-610.16 2804.14,-915.71 2790,-930.95 2784.15,-937.26 2776.71,-941.93 2768.73,-945.38"/>
<polygon fill="midnightblue" stroke="midnightblue" points="2883.67,-530.03 2882.14,-519.54 2876.8,-528.69 2883.67,-530.03"/>
</g>
<!-- Node24 -->
<g id="node24" class="node">
<title>Node24</title>
<g id="a_node24"><a xlink:href="../../d0/dfe/class_syntax_analyzer.html#a58a0f927ad0a45e4ce837a98e98330aa" target="_top" xlink:title=" ">
<polygon fill="none" stroke="black" points="2446.5,-907.45 2446.5,-926.45 2592.5,-926.45 2592.5,-907.45 2446.5,-907.45"/>
<text text-anchor="middle" x="2519.5" y="-914.45" font-family="Helvetica,sans-Serif" font-size="10.00">SyntaxAnalyzer::syntaxConsts</text>
</a>
</g>
</g>
<!-- Node2&#45;&gt;Node24 -->
<g id="edge41" class="edge">
<title>Node2&#45;&gt;Node24</title>
<path fill="none" stroke="midnightblue" d="M2880.62,-529.64C2867.49,-605.17 2819.08,-873.38 2790,-897.95 2761.21,-922.29 2662.31,-923.56 2592.71,-921.13"/>
<polygon fill="midnightblue" stroke="midnightblue" points="2884.11,-530.04 2882.36,-519.59 2877.21,-528.85 2884.11,-530.04"/>
</g>
<!-- Node25 -->
<g id="node25" class="node">
<title>Node25</title>
<g id="a_node25"><a xlink:href="../../d0/dfe/class_syntax_analyzer.html#a5d262eb9e2236dde3bd043eea0b0e957" target="_top" xlink:title=" ">
<polygon fill="none" stroke="black" points="2631,-851.45 2631,-870.45 2789,-870.45 2789,-851.45 2631,-851.45"/>
<text text-anchor="middle" x="2710" y="-858.45" font-family="Helvetica,sans-Serif" font-size="10.00">SyntaxAnalyzer::syntaxTypeSpec</text>
</a>
</g>
</g>
<!-- Node2&#45;&gt;Node25 -->
<g id="edge54" class="edge">
<title>Node2&#45;&gt;Node25</title>
<path fill="none" stroke="midnightblue" d="M2884.42,-529.63C2884.51,-585.83 2876.87,-748.77 2790,-836.95 2783.76,-843.29 2775.91,-847.96 2767.6,-851.4"/>
<polygon fill="midnightblue" stroke="midnightblue" points="2887.92,-529.55 2884.31,-519.59 2880.92,-529.62 2887.92,-529.55"/>
</g>
<!-- Node26 -->
<g id="node26" class="node">
<title>Node26</title>
<g id="a_node26"><a xlink:href="../../d0/dfe/class_syntax_analyzer.html#a8f6dda26a96ec0e5e75bea5eed577856" target="_top" xlink:title=" ">
<polygon fill="none" stroke="black" points="2445,-699.45 2445,-718.45 2594,-718.45 2594,-699.45 2445,-699.45"/>
<text text-anchor="middle" x="2519.5" y="-706.45" font-family="Helvetica,sans-Serif" font-size="10.00">SyntaxAnalyzer::syntaxVarDecl</text>
</a>
</g>
</g>
<!-- Node2&#45;&gt;Node26 -->
<g id="edge61" class="edge">
<title>Node2&#45;&gt;Node26</title>
<path fill="none" stroke="midnightblue" d="M2879.82,-529.85C2870.78,-567.42 2845.56,-648.29 2790,-684.95 2726.19,-727.06 2634.59,-725.33 2576.33,-718.48"/>
<polygon fill="midnightblue" stroke="midnightblue" points="2883.33,-530.21 2882.12,-519.68 2876.5,-528.66 2883.33,-530.21"/>
</g>
<!-- Node27 -->
<g id="node27" class="node">
<title>Node27</title>
<g id="a_node27"><a xlink:href="../../d0/dfe/class_syntax_analyzer.html#a738f9b4cb7edf93c56af1b6974caad1a" target="_top" xlink:title=" ">
<polygon fill="none" stroke="black" points="2273,-737.45 2273,-756.45 2408,-756.45 2408,-737.45 2273,-737.45"/>
<text text-anchor="middle" x="2340.5" y="-744.45" font-family="Helvetica,sans-Serif" font-size="10.00">SyntaxAnalyzer::syntaxVars</text>
</a>
</g>
</g>
<!-- Node2&#45;&gt;Node27 -->
<g id="edge65" class="edge">
<title>Node2&#45;&gt;Node27</title>
<path fill="none" stroke="midnightblue" d="M2881.68,-529.66C2875.51,-572.19 2854.5,-672.29 2790,-716.95 2662.81,-805.03 2463.64,-774.68 2380.26,-756.51"/>
<polygon fill="midnightblue" stroke="midnightblue" points="2885.18,-529.88 2883.02,-519.51 2878.24,-528.96 2885.18,-529.88"/>
</g>
<!-- Node28 -->
<g id="node28" class="node">
<title>Node28</title>
<g id="a_node28"><a xlink:href="../../d0/dfe/class_syntax_analyzer.html#a94c8a6ab5c0e53cae22edb1a840a27ce" target="_top" xlink:title=" ">
<polygon fill="none" stroke="black" points="2635,-424.45 2635,-443.45 2785,-443.45 2785,-424.45 2635,-424.45"/>
<text text-anchor="middle" x="2710" y="-431.45" font-family="Helvetica,sans-Serif" font-size="10.00">SyntaxAnalyzer::syntaxVariable</text>
</a>
</g>
</g>
<!-- Node2&#45;&gt;Node28 -->
<g id="edge62" class="edge">
<title>Node2&#45;&gt;Node28</title>
<path fill="none" stroke="midnightblue" d="M2862.76,-494.44C2844.34,-481.64 2816.54,-463.88 2790,-452.95 2780.87,-449.2 2770.83,-446.07 2761.05,-443.52"/>
<polygon fill="midnightblue" stroke="midnightblue" points="2860.81,-497.35 2871,-500.27 2864.86,-491.63 2860.81,-497.35"/>
</g>
<!-- Node3&#45;&gt;Node4 -->
<g id="edge3" class="edge">
<title>Node3&#45;&gt;Node4</title>
<path fill="none" stroke="midnightblue" d="M1731.86,-355.27C1706.19,-349.88 1676.11,-343.57 1651.85,-338.47"/>
<polygon fill="midnightblue" stroke="midnightblue" points="1731.32,-358.74 1741.83,-357.37 1732.76,-351.89 1731.32,-358.74"/>
</g>
<!-- Node3&#45;&gt;Node6 -->
<g id="edge21" class="edge">
<title>Node3&#45;&gt;Node6</title>
<path fill="none" stroke="midnightblue" d="M1700.67,-369.64C1614.37,-372.83 1478.3,-379.25 1361,-390.95 1349,-392.15 1336.22,-393.75 1323.99,-395.44"/>
<polygon fill="midnightblue" stroke="midnightblue" points="1700.82,-373.14 1710.68,-369.28 1700.56,-366.14 1700.82,-373.14"/>
</g>
<!-- Node4&#45;&gt;Node5 -->
<g id="edge4" class="edge">
<title>Node4&#45;&gt;Node5</title>
<path fill="none" stroke="midnightblue" d="M1525.41,-328.95C1516.97,-328.95 1508.44,-328.95 1500.13,-328.95"/>
<polygon fill="midnightblue" stroke="midnightblue" points="1525.63,-332.45 1535.63,-328.95 1525.63,-325.45 1525.63,-332.45"/>
</g>
<!-- Node5&#45;&gt;Node6 -->
<g id="edge5" class="edge">
<title>Node5&#45;&gt;Node6</title>
<path fill="none" stroke="midnightblue" d="M1364.65,-342.38C1363.42,-342.9 1362.2,-343.43 1361,-343.95 1326.57,-359.06 1287.71,-381.52 1271.38,-395.25"/>
<polygon fill="midnightblue" stroke="midnightblue" points="1366.29,-345.5 1374.25,-338.51 1363.67,-339 1366.29,-345.5"/>
</g>
<!-- Node6&#45;&gt;Node5 -->
<g id="edge6" class="edge">
<title>Node6&#45;&gt;Node5</title>
<path fill="none" stroke="midnightblue" d="M1302.56,-390.6C1320.12,-381.66 1341.29,-370.6 1361,-361.95 1380.85,-353.25 1404.95,-345.41 1418.63,-338.47"/>
<polygon fill="midnightblue" stroke="midnightblue" points="1300.57,-387.69 1293.21,-395.32 1303.72,-393.94 1300.57,-387.69"/>
</g>
<!-- Node6&#45;&gt;Node7 -->
<g id="edge7" class="edge">
<title>Node6&#45;&gt;Node7</title>
<path fill="none" stroke="midnightblue" d="M1231.35,-420.35C1212.36,-433.39 1187.14,-451.81 1164,-466.95 1140.74,-482.17 1112.01,-498.23 1098.38,-509.25"/>
<polygon fill="midnightblue" stroke="midnightblue" points="1233.55,-423.09 1239.87,-414.59 1229.63,-417.29 1233.55,-423.09"/>
</g>
<!-- Node6&#45;&gt;Node8 -->
<g id="edge9" class="edge">
<title>Node6&#45;&gt;Node8</title>
<path fill="none" stroke="midnightblue" d="M1208.29,-393.13C1184.18,-387.77 1156.06,-381.52 1133.34,-376.47"/>
<polygon fill="midnightblue" stroke="midnightblue" points="1207.83,-396.61 1218.35,-395.37 1209.35,-389.78 1207.83,-396.61"/>
</g>
<!-- Node6&#45;&gt;Node16 -->
<g id="edge19" class="edge">
<title>Node6&#45;&gt;Node16</title>
<path fill="none" stroke="midnightblue" d="M1189.59,-398.28C1181.16,-398.19 1172.54,-398.18 1164.09,-398.26"/>
<polygon fill="midnightblue" stroke="midnightblue" points="1189.71,-401.78 1199.77,-398.44 1189.82,-394.78 1189.71,-401.78"/>
</g>
<!-- Node7&#45;&gt;Node6 -->
<g id="edge8" class="edge">
<title>Node7&#45;&gt;Node6</title>
<path fill="none" stroke="midnightblue" d="M1131.86,-504.43C1142.46,-498.51 1153.76,-491.65 1164,-484.95 1199.4,-461.8 1239.64,-430.98 1255.04,-414.59"/>
<polygon fill="midnightblue" stroke="midnightblue" points="1129.89,-501.52 1122.76,-509.36 1133.22,-507.67 1129.89,-501.52"/>
</g>
<!-- Node8&#45;&gt;Node9 -->
<g id="edge10" class="edge">
<title>Node8&#45;&gt;Node9</title>
<path fill="none" stroke="midnightblue" d="M1022.97,-380.88C1020.18,-382.4 1017.51,-384.08 1015,-385.95 945.13,-438.06 907.63,-543.71 897.41,-576.22"/>
<polygon fill="midnightblue" stroke="midnightblue" points="1024.63,-383.97 1032.2,-376.56 1021.66,-377.63 1024.63,-383.97"/>
</g>
<!-- Node9&#45;&gt;Node6 -->
<g id="edge18" class="edge">
<title>Node9&#45;&gt;Node6</title>
<path fill="none" stroke="midnightblue" d="M913.75,-569.87C936.74,-551.24 976.87,-520.48 1015,-499.95 1088.09,-460.6 1181.05,-429.41 1229.25,-414.51"/>
<polygon fill="midnightblue" stroke="midnightblue" points="911.34,-567.32 905.82,-576.37 915.78,-572.74 911.34,-567.32"/>
</g>
<!-- Node10 -->
<g id="node10" class="node">
<title>Node10</title>
<g id="a_node10"><a xlink:href="../../d0/dfe/class_syntax_analyzer.html#a2b54bac50e114b68e83c80d869b6ac7c" target="_top" xlink:title=" ">
<polygon fill="none" stroke="black" points="632,-775.45 632,-794.45 772,-794.45 772,-775.45 632,-775.45"/>
<text text-anchor="middle" x="702" y="-782.45" font-family="Helvetica,sans-Serif" font-size="10.00">SyntaxAnalyzer::syntaxBlock</text>
</a>
</g>
</g>
<!-- Node9&#45;&gt;Node10 -->
<g id="edge11" class="edge">
<title>Node9&#45;&gt;Node10</title>
<path fill="none" stroke="midnightblue" d="M876.26,-603.01C837.76,-643.44 741.93,-744.07 712.05,-775.45"/>
<polygon fill="midnightblue" stroke="midnightblue" points="879,-605.21 883.36,-595.55 873.93,-600.38 879,-605.21"/>
</g>
<!-- Node10&#45;&gt;Node11 -->
<g id="edge12" class="edge">
<title>Node10&#45;&gt;Node11</title>
<path fill="none" stroke="midnightblue" d="M645.67,-773.27C620.14,-767.88 590.22,-761.57 566.09,-756.47"/>
<polygon fill="midnightblue" stroke="midnightblue" points="645.07,-776.72 655.58,-775.37 646.52,-769.88 645.07,-776.72"/>
</g>
<!-- Node10&#45;&gt;Node12 -->
<g id="edge17" class="edge">
<title>Node10&#45;&gt;Node12</title>
<path fill="none" stroke="midnightblue" d="M621.56,-781.05C570.68,-778.06 503.31,-773.21 444,-765.95 423.82,-763.49 401.71,-759.89 382.58,-756.49"/>
<polygon fill="midnightblue" stroke="midnightblue" points="621.65,-784.56 631.83,-781.64 622.05,-777.57 621.65,-784.56"/>
</g>
<!-- Node11&#45;&gt;Node12 -->
<g id="edge13" class="edge">
<title>Node11&#45;&gt;Node12</title>
<path fill="none" stroke="midnightblue" d="M433.85,-746.95C425.26,-746.95 416.57,-746.95 408.1,-746.95"/>
<polygon fill="midnightblue" stroke="midnightblue" points="433.88,-750.45 443.88,-746.95 433.88,-743.45 433.88,-750.45"/>
</g>
<!-- Node13 -->
<g id="node13" class="node">
<title>Node13</title>
<g id="a_node13"><a xlink:href="../../d0/dfe/class_syntax_analyzer.html#a96cd5f6a041dae613d1c75175e26592e" target="_top" xlink:title=" ">
<polygon fill="none" stroke="black" points="77,-737.45 77,-756.45 220,-756.45 220,-737.45 77,-737.45"/>
<text text-anchor="middle" x="148.5" y="-744.45" font-family="Helvetica,sans-Serif" font-size="10.00">SyntaxAnalyzer::parseTokens</text>
</a>
</g>
</g>
<!-- Node12&#45;&gt;Node13 -->
<g id="edge14" class="edge">
<title>Node12&#45;&gt;Node13</title>
<path fill="none" stroke="midnightblue" d="M245.84,-746.95C237.26,-746.95 228.61,-746.95 220.21,-746.95"/>
<polygon fill="midnightblue" stroke="midnightblue" points="245.87,-750.45 255.87,-746.95 245.87,-743.45 245.87,-750.45"/>
</g>
<!-- Node14 -->
<g id="node14" class="node">
<title>Node14</title>
<g id="a_node14"><a xlink:href="../../d3/db4/graph_draw_8cpp.html#a3c04138a5bfe5d72780bb7e82a18e627" target="_top" xlink:title=" ">
<polygon fill="none" stroke="black" points="1.5,-756.45 1.5,-775.45 39.5,-775.45 39.5,-756.45 1.5,-756.45"/>
<text text-anchor="middle" x="20.5" y="-763.45" font-family="Helvetica,sans-Serif" font-size="10.00">main</text>
</a>
</g>
</g>
<!-- Node13&#45;&gt;Node14 -->
<g id="edge15" class="edge">
<title>Node13&#45;&gt;Node14</title>
<path fill="none" stroke="midnightblue" d="M74.24,-758C61.4,-759.94 49.15,-761.79 39.69,-763.21"/>
<polygon fill="midnightblue" stroke="midnightblue" points="74.76,-761.46 84.13,-756.51 73.72,-754.54 74.76,-761.46"/>
</g>
<!-- Node15 -->
<g id="node15" class="node">
<title>Node15</title>
<g id="a_node15"><a xlink:href="../../dd/de9/test_syntax_8cpp.html#ac491df98e51a6bba8b808af414b6614f" target="_top" xlink:title="Тест синтаксического анализа Паскаля, простой тест">
<polygon fill="none" stroke="black" points="0,-718.45 0,-737.45 41,-737.45 41,-718.45 0,-718.45"/>
<text text-anchor="middle" x="20.5" y="-725.45" font-family="Helvetica,sans-Serif" font-size="10.00">TEST</text>
</a>
</g>
</g>
<!-- Node13&#45;&gt;Node15 -->
<g id="edge16" class="edge">
<title>Node13&#45;&gt;Node15</title>
<path fill="none" stroke="midnightblue" d="M73.88,-735.85C61.78,-734.03 50.22,-732.29 41.05,-730.9"/>
<polygon fill="midnightblue" stroke="midnightblue" points="73.72,-739.37 84.13,-737.4 74.76,-732.45 73.72,-739.37"/>
</g>
<!-- Node16&#45;&gt;Node6 -->
<g id="edge20" class="edge">
<title>Node16&#45;&gt;Node6</title>
<path fill="none" stroke="midnightblue" d="M1174.18,-411.7C1182.8,-411.72 1191.45,-411.64 1199.77,-411.47"/>
<polygon fill="midnightblue" stroke="midnightblue" points="1174.11,-408.2 1164.09,-411.65 1174.07,-415.2 1174.11,-408.2"/>
</g>
<!-- Node17&#45;&gt;Node6 -->
<g id="edge36" class="edge">
<title>Node17&#45;&gt;Node6</title>
<path fill="none" stroke="midnightblue" d="M2658.95,-459.99C2649.34,-457.67 2639.35,-455.25 2630,-452.95 2613.98,-449.03 2610.3,-446.48 2594,-443.95 2319.4,-401.41 2247.87,-404.95 1970,-404.95 1970,-404.95 1970,-404.95 1604.5,-404.95 1506.82,-404.95 1393.4,-404.95 1325.1,-404.95"/>
<polygon fill="midnightblue" stroke="midnightblue" points="2658.25,-463.42 2668.79,-462.36 2659.89,-456.62 2658.25,-463.42"/>
</g>
<!-- Node17&#45;&gt;Node18 -->
<g id="edge23" class="edge">
<title>Node17&#45;&gt;Node18</title>
<path fill="none" stroke="midnightblue" d="M2629.28,-468.15C2616.6,-467.54 2603.57,-466.92 2591.13,-466.33"/>
<polygon fill="midnightblue" stroke="midnightblue" points="2629.19,-471.65 2639.35,-468.63 2629.52,-464.66 2629.19,-471.65"/>
</g>
<!-- Node18&#45;&gt;Node4 -->
<g id="edge25" class="edge">
<title>Node18&#45;&gt;Node4</title>
<path fill="none" stroke="midnightblue" d="M2463.62,-451.34C2351.74,-428.09 2089.04,-375.7 1866,-347.95 1801.56,-339.94 1727.67,-334.93 1675.26,-332.09"/>
<polygon fill="midnightblue" stroke="midnightblue" points="2463.14,-454.81 2473.65,-453.43 2464.57,-447.96 2463.14,-454.81"/>
</g>
<!-- Node18&#45;&gt;Node18 -->
<g id="edge24" class="edge">
<title>Node18&#45;&gt;Node18</title>
<path fill="none" stroke="midnightblue" d="M2552.86,-480.85C2552.37,-486.5 2541.25,-490.95 2519.5,-490.95 2487.86,-490.95 2478.72,-481.52 2492.07,-472.71"/>
<polygon fill="midnightblue" stroke="midnightblue" points="2555.65,-478.74 2546.93,-472.71 2549.99,-482.86 2555.65,-478.74"/>
</g>
<!-- Node18&#45;&gt;Node19 -->
<g id="edge26" class="edge">
<title>Node18&#45;&gt;Node19</title>
<path fill="none" stroke="midnightblue" d="M2478.43,-475.63C2445.97,-485.9 2400.95,-500.15 2371.53,-509.45"/>
<polygon fill="midnightblue" stroke="midnightblue" points="2479.59,-478.93 2488.07,-472.58 2477.48,-472.26 2479.59,-478.93"/>
</g>
<!-- Node19&#45;&gt;Node20 -->
<g id="edge27" class="edge">
<title>Node19&#45;&gt;Node20</title>
<path fill="none" stroke="midnightblue" d="M2261.65,-518.95C2253.2,-518.95 2244.59,-518.95 2236.11,-518.95"/>
<polygon fill="midnightblue" stroke="midnightblue" points="2261.85,-522.45 2271.85,-518.95 2261.85,-515.45 2261.85,-522.45"/>
</g>
<!-- Node20&#45;&gt;Node21 -->
<g id="edge28" class="edge">
<title>Node20&#45;&gt;Node21</title>
<path fill="none" stroke="midnightblue" d="M2061.81,-509.49C2053.17,-508.59 2044.53,-507.69 2036.19,-506.83"/>
<polygon fill="midnightblue" stroke="midnightblue" points="2061.63,-512.99 2071.93,-510.54 2062.35,-506.02 2061.63,-512.99"/>
</g>
<!-- Node21&#45;&gt;Node3 -->
<g id="edge29" class="edge">
<title>Node21&#45;&gt;Node3</title>
<path fill="none" stroke="midnightblue" d="M1947.02,-484.32C1909.84,-456.62 1833.41,-399.67 1802.7,-376.79"/>
<polygon fill="midnightblue" stroke="midnightblue" points="1945.05,-487.22 1955.16,-490.39 1949.24,-481.61 1945.05,-487.22"/>
</g>
<!-- Node21&#45;&gt;Node7 -->
<g id="edge32" class="edge">
<title>Node21&#45;&gt;Node7</title>
<path fill="none" stroke="midnightblue" d="M1938.23,-513.6C1918.24,-522.13 1891.07,-532.48 1866,-537.95 1753.02,-562.61 1722.14,-556.95 1606.5,-556.95 1606.5,-556.95 1606.5,-556.95 1429.5,-556.95 1327.49,-556.95 1209.28,-539.75 1142.85,-528.49"/>
<polygon fill="midnightblue" stroke="midnightblue" points="1939.66,-516.8 1947.43,-509.6 1936.86,-510.38 1939.66,-516.8"/>
</g>
<!-- Node21&#45;&gt;Node16 -->
<g id="edge35" class="edge">
<title>Node21&#45;&gt;Node16</title>
<path fill="none" stroke="midnightblue" d="M1891.71,-493.61C1818.59,-488.09 1705.09,-480.95 1606.5,-480.95 1606.5,-480.95 1606.5,-480.95 1429.5,-480.95 1309.47,-480.95 1171.21,-435.03 1115.58,-414.58"/>
<polygon fill="midnightblue" stroke="midnightblue" points="1891.52,-497.11 1901.76,-494.38 1892.05,-490.13 1891.52,-497.11"/>
</g>
<!-- Node21&#45;&gt;Node17 -->
<g id="edge30" class="edge">
<title>Node21&#45;&gt;Node17</title>
<path fill="none" stroke="midnightblue" d="M1998.52,-513.72C2018.56,-522.59 2046.27,-533.32 2072,-537.95 2300.93,-579.21 2367.03,-550.88 2594,-499.95 2619.86,-494.15 2648.86,-487.09 2671.27,-481.51"/>
<polygon fill="midnightblue" stroke="midnightblue" points="1999.9,-510.5 1989.34,-509.54 1997,-516.87 1999.9,-510.5"/>
</g>
<!-- Node21&#45;&gt;Node18 -->
<g id="edge31" class="edge">
<title>Node21&#45;&gt;Node18</title>
<path fill="none" stroke="midnightblue" d="M2046.06,-494.82C2152.52,-487.64 2344.49,-474.69 2447.92,-467.72"/>
<polygon fill="midnightblue" stroke="midnightblue" points="2045.77,-491.34 2036.03,-495.5 2046.24,-498.32 2045.77,-491.34"/>
</g>
<!-- Node21&#45;&gt;Node22 -->
<g id="edge33" class="edge">
<title>Node21&#45;&gt;Node22</title>
<path fill="none" stroke="midnightblue" d="M1891.62,-508.08C1882.88,-509.01 1873.97,-509.96 1865.24,-510.89"/>
<polygon fill="midnightblue" stroke="midnightblue" points="1892.21,-511.54 1901.79,-507 1891.47,-504.58 1892.21,-511.54"/>
</g>
<!-- Node22&#45;&gt;Node6 -->
<g id="edge34" class="edge">
<title>Node22&#45;&gt;Node6</title>
<path fill="none" stroke="midnightblue" d="M1733.76,-507.26C1629.85,-484.66 1403.2,-435.35 1307.52,-414.53"/>
<polygon fill="midnightblue" stroke="midnightblue" points="1733.21,-510.73 1743.73,-509.43 1734.7,-503.89 1733.21,-510.73"/>
</g>
<!-- Node23&#45;&gt;Node24 -->
<g id="edge39" class="edge">
<title>Node23&#45;&gt;Node24</title>
<path fill="none" stroke="midnightblue" d="M2651.41,-943.35C2624.6,-937.94 2593.1,-931.59 2567.72,-926.47"/>
<polygon fill="midnightblue" stroke="midnightblue" points="2650.94,-946.82 2661.43,-945.37 2652.32,-939.96 2650.94,-946.82"/>
</g>
<!-- Node24&#45;&gt;Node10 -->
<g id="edge40" class="edge">
<title>Node24&#45;&gt;Node10</title>
<path fill="none" stroke="midnightblue" d="M2436.34,-910.56C2362.71,-905.39 2251.71,-898.95 2155,-898.95 2155,-898.95 2155,-898.95 1787.5,-898.95 1552.17,-898.95 1498.83,-822.95 1263.5,-822.95 1263.5,-822.95 1263.5,-822.95 1088.5,-822.95 972.66,-822.95 838.18,-805.75 762.59,-794.49"/>
<polygon fill="midnightblue" stroke="midnightblue" points="2436.26,-914.07 2446.48,-911.28 2436.75,-907.08 2436.26,-914.07"/>
</g>
<!-- Node25&#45;&gt;Node11 -->
<g id="edge55" class="edge">
<title>Node25&#45;&gt;Node11</title>
<path fill="none" stroke="midnightblue" d="M2620.59,-860.95C2546.15,-860.95 2436.86,-860.95 2341.5,-860.95 2341.5,-860.95 2341.5,-860.95 892.5,-860.95 773.98,-860.95 743.54,-844.03 632,-803.95 596.32,-791.14 557.55,-769.21 536.59,-756.61"/>
<polygon fill="midnightblue" stroke="midnightblue" points="2620.86,-864.45 2630.86,-860.95 2620.86,-857.45 2620.86,-864.45"/>
</g>
<!-- Node25&#45;&gt;Node25 -->
<g id="edge56" class="edge">
<title>Node25&#45;&gt;Node25</title>
<path fill="none" stroke="midnightblue" d="M2742.56,-879.23C2741.63,-884.7 2730.78,-888.95 2710,-888.95 2679.07,-888.95 2670.13,-879.52 2683.18,-870.71"/>
<polygon fill="midnightblue" stroke="midnightblue" points="2745.31,-877.05 2736.82,-870.71 2739.51,-880.96 2745.31,-877.05"/>
</g>
<!-- Node25&#45;&gt;Node26 -->
<g id="edge57" class="edge">
<title>Node25&#45;&gt;Node26</title>
<path fill="none" stroke="midnightblue" d="M2688.48,-845.06C2672.48,-832.6 2649.73,-814.8 2630,-798.95 2593.93,-769.98 2551.78,-735.03 2531.94,-718.5"/>
<polygon fill="midnightblue" stroke="midnightblue" points="2686.57,-848 2696.62,-851.37 2690.87,-842.48 2686.57,-848"/>
</g>
<!-- Node26&#45;&gt;Node11 -->
<g id="edge58" class="edge">
<title>Node26&#45;&gt;Node11</title>
<path fill="none" stroke="midnightblue" d="M2434.55,-708.95C2360.88,-708.95 2250.83,-708.95 2155,-708.95 2155,-708.95 2155,-708.95 1604.5,-708.95 1375.43,-708.95 1319.57,-746.95 1090.5,-746.95 1090.5,-746.95 1090.5,-746.95 892.5,-746.95 789.79,-746.95 671.11,-746.95 596.07,-746.95"/>
<polygon fill="midnightblue" stroke="midnightblue" points="2434.7,-712.45 2444.7,-708.95 2434.7,-705.45 2434.7,-712.45"/>
</g>
<!-- Node26&#45;&gt;Node27 -->
<g id="edge59" class="edge">
<title>Node26&#45;&gt;Node27</title>
<path fill="none" stroke="midnightblue" d="M2463.76,-720.71C2438.73,-726.08 2409.47,-732.36 2385.84,-737.43"/>
<polygon fill="midnightblue" stroke="midnightblue" points="2464.79,-724.06 2473.84,-718.54 2463.32,-717.22 2464.79,-724.06"/>
</g>
<!-- Node27&#45;&gt;Node10 -->
<g id="edge60" class="edge">
<title>Node27&#45;&gt;Node10</title>
<path fill="none" stroke="midnightblue" d="M2272.3,-758.05C2198.42,-769.26 2076.09,-784.95 1970,-784.95 1970,-784.95 1970,-784.95 1088.5,-784.95 977.9,-784.95 849.46,-784.95 772.29,-784.95"/>
<polygon fill="midnightblue" stroke="midnightblue" points="2273.05,-761.47 2282.4,-756.49 2271.99,-754.55 2273.05,-761.47"/>
</g>
<!-- Node28&#45;&gt;Node3 -->
<g id="edge63" class="edge">
<title>Node28&#45;&gt;Node3</title>
<path fill="none" stroke="midnightblue" d="M2673.27,-421C2617.67,-401.6 2506.67,-365.91 2409,-352.95 2214.9,-327.21 1983.67,-345.15 1866.21,-357.67"/>
<polygon fill="midnightblue" stroke="midnightblue" points="2672.4,-424.4 2682.99,-424.42 2674.72,-417.8 2672.4,-424.4"/>
</g>
<!-- Node28&#45;&gt;Node18 -->
<g id="edge64" class="edge">
<title>Node28&#45;&gt;Node18</title>
<path fill="none" stroke="midnightblue" d="M2636.9,-445.05C2618.98,-447.8 2599.92,-450.74 2582.52,-453.41"/>
<polygon fill="midnightblue" stroke="midnightblue" points="2637.67,-448.47 2647.02,-443.49 2636.6,-441.55 2637.67,-448.47"/>
</g>
<!-- Node29&#45;&gt;Node18 -->
<g id="edge69" class="edge">
<title>Node29&#45;&gt;Node18</title>
<path fill="none" stroke="midnightblue" d="M2867.01,-806.13C2803.39,-743.12 2580.26,-522.14 2530.42,-472.78"/>
<polygon fill="midnightblue" stroke="midnightblue" points="2864.71,-808.78 2874.28,-813.33 2869.63,-803.8 2864.71,-808.78"/>
</g>
<!-- Node29&#45;&gt;Node23 -->
<g id="edge68" class="edge">
<title>Node29&#45;&gt;Node23</title>
<path fill="none" stroke="midnightblue" d="M2872.87,-841.17C2857.27,-865.2 2826.65,-907.21 2790,-930.95 2780.38,-937.19 2769.05,-941.87 2758.03,-945.36"/>
<polygon fill="midnightblue" stroke="midnightblue" points="2875.88,-842.96 2878.27,-832.63 2869.97,-839.21 2875.88,-842.96"/>
</g>
<!-- Node29&#45;&gt;Node25 -->
<g id="edge70" class="edge">
<title>Node29&#45;&gt;Node25</title>
<path fill="none" stroke="midnightblue" d="M2830.49,-834.71C2806.03,-840.08 2777.43,-846.36 2754.34,-851.43"/>
<polygon fill="midnightblue" stroke="midnightblue" points="2831.33,-838.11 2840.34,-832.54 2829.83,-831.27 2831.33,-838.11"/>
</g>
</g>
</svg>
