<?xml version="1.0" encoding="UTF-8" standalone="no"?>
<!DOCTYPE svg PUBLIC "-//W3C//DTD SVG 1.1//EN"
 "http://www.w3.org/Graphics/SVG/1.1/DTD/svg11.dtd">
<!-- Generated by graphviz version 3.0.0 (20220413.0106)
 -->
<!-- Title: SyntaxAnalyzer::syntaxVars Pages: 1 -->
<svg width="763pt" height="66pt"
 viewBox="0.00 0.00 763.00 66.00" xmlns="http://www.w3.org/2000/svg" xmlns:xlink="http://www.w3.org/1999/xlink">
<g id="graph0" class="graph" transform="scale(1 1) rotate(0) translate(4 62)">
<title>SyntaxAnalyzer::syntaxVars</title>
<!-- Node1 -->
<g id="node1" class="node">
<title>Node1</title>
<g id="a_node1"><a xlink:title=" ">
<polygon fill="#bfbfbf" stroke="black" points="620,-19.5 620,-38.5 755,-38.5 755,-19.5 620,-19.5"/>
<text text-anchor="middle" x="687.5" y="-26.5" font-family="Helvetica,sans-Serif" font-size="10.00">SyntaxAnalyzer::syntaxVars</text>
</a>
</g>
</g>
<!-- Node2 -->
<g id="node2" class="node">
<title>Node2</title>
<g id="a_node2"><a xlink:href="../../d0/dfe/class_syntax_analyzer.html#aa93b0d722276e335971360e093f19a8e" target="_top" xlink:title=" ">
<polygon fill="none" stroke="black" points="444,-19.5 444,-38.5 584,-38.5 584,-19.5 444,-19.5"/>
<text text-anchor="middle" x="514" y="-26.5" font-family="Helvetica,sans-Serif" font-size="10.00">SyntaxAnalyzer::syntaxBlock</text>
</a>
</g>
</g>
<!-- Node1&#45;&gt;Node2 -->
<g id="edge1" class="edge">
<title>Node1&#45;&gt;Node2</title>
<path fill="none" stroke="midnightblue" d="M609.49,-29C601.05,-29 592.5,-29 584.16,-29"/>
<polygon fill="midnightblue" stroke="midnightblue" points="609.7,-32.5 619.7,-29 609.7,-25.5 609.7,-32.5"/>
</g>
<!-- Node3 -->
<g id="node3" class="node">
<title>Node3</title>
<g id="a_node3"><a xlink:href="../../d0/dfe/class_syntax_analyzer.html#aeb59cd0062ff3238bcf625c7e20fc5ec" target="_top" xlink:title=" ">
<polygon fill="none" stroke="black" points="256,-19.5 256,-38.5 408,-38.5 408,-19.5 256,-19.5"/>
<text text-anchor="middle" x="332" y="-26.5" font-family="Helvetica,sans-Serif" font-size="10.00">SyntaxAnalyzer::syntaxProgram</text>
</a>
</g>
</g>
<!-- Node2&#45;&gt;Node3 -->
<g id="edge2" class="edge">
<title>Node2&#45;&gt;Node3</title>
<path fill="none" stroke="midnightblue" d="M433.67,-29C425.2,-29 416.6,-29 408.18,-29"/>
<polygon fill="midnightblue" stroke="midnightblue" points="433.92,-32.5 443.92,-29 433.92,-25.5 433.92,-32.5"/>
</g>
<!-- Node4 -->
<g id="node4" class="node">
<title>Node4</title>
<g id="a_node4"><a xlink:href="../../d0/dfe/class_syntax_analyzer.html#a0472b9d7f2855f118acf9cb7c67ab5a7" target="_top" xlink:title=" ">
<polygon fill="none" stroke="black" points="77,-19.5 77,-38.5 220,-38.5 220,-19.5 77,-19.5"/>
<text text-anchor="middle" x="148.5" y="-26.5" font-family="Helvetica,sans-Serif" font-size="10.00">SyntaxAnalyzer::parseTokens</text>
</a>
</g>
</g>
<!-- Node3&#45;&gt;Node4 -->
<g id="edge3" class="edge">
<title>Node3&#45;&gt;Node4</title>
<path fill="none" stroke="midnightblue" d="M245.84,-29C237.26,-29 228.61,-29 220.21,-29"/>
<polygon fill="midnightblue" stroke="midnightblue" points="245.87,-32.5 255.87,-29 245.87,-25.5 245.87,-32.5"/>
</g>
<!-- Node5 -->
<g id="node5" class="node">
<title>Node5</title>
<g id="a_node5"><a xlink:href="../../df/d0a/main_8cpp.html#a3c04138a5bfe5d72780bb7e82a18e627" target="_top" xlink:title=" ">
<polygon fill="none" stroke="black" points="1.5,-38.5 1.5,-57.5 39.5,-57.5 39.5,-38.5 1.5,-38.5"/>
<text text-anchor="middle" x="20.5" y="-45.5" font-family="Helvetica,sans-Serif" font-size="10.00">main</text>
</a>
</g>
</g>
<!-- Node4&#45;&gt;Node5 -->
<g id="edge4" class="edge">
<title>Node4&#45;&gt;Node5</title>
<path fill="none" stroke="midnightblue" d="M74.24,-40.05C61.4,-41.98 49.15,-43.83 39.69,-45.26"/>
<polygon fill="midnightblue" stroke="midnightblue" points="74.76,-43.51 84.13,-38.56 73.72,-36.59 74.76,-43.51"/>
</g>
<!-- Node6 -->
<g id="node6" class="node">
<title>Node6</title>
<g id="a_node6"><a xlink:href="../../dd/de9/test_syntax_8cpp.html#ac491df98e51a6bba8b808af414b6614f" target="_top" xlink:title="Тест синтаксического анализа Паскаля, простой тест">
<polygon fill="none" stroke="black" points="0,-0.5 0,-19.5 41,-19.5 41,-0.5 0,-0.5"/>
<text text-anchor="middle" x="20.5" y="-7.5" font-family="Helvetica,sans-Serif" font-size="10.00">TEST</text>
</a>
</g>
</g>
<!-- Node4&#45;&gt;Node6 -->
<g id="edge5" class="edge">
<title>Node4&#45;&gt;Node6</title>
<path fill="none" stroke="midnightblue" d="M73.88,-17.9C61.78,-16.07 50.22,-14.33 41.05,-12.95"/>
<polygon fill="midnightblue" stroke="midnightblue" points="73.72,-21.41 84.13,-19.44 74.76,-14.49 73.72,-21.41"/>
</g>
</g>
</svg>
