<?xml version="1.0" encoding="UTF-8" standalone="no"?>
<!DOCTYPE svg PUBLIC "-//W3C//DTD SVG 1.1//EN"
 "http://www.w3.org/Graphics/SVG/1.1/DTD/svg11.dtd">
<!-- Generated by graphviz version 3.0.0 (20220413.0106)
 -->
<!-- Title: SyntaxAnalyzer::eat Pages: 1 -->
<svg width="3124pt" height="1035pt"
 viewBox="0.00 0.00 3124.00 1034.88" xmlns="http://www.w3.org/2000/svg" xmlns:xlink="http://www.w3.org/1999/xlink">
<g id="graph0" class="graph" transform="scale(1 1) rotate(0) translate(4 1030.88)">
<title>SyntaxAnalyzer::eat</title>
<!-- Node1 -->
<g id="node1" class="node">
<title>Node1</title>
<g id="a_node1"><a xlink:title=" ">
<polygon fill="#bfbfbf" stroke="black" points="3015,-474.5 3015,-493.5 3116,-493.5 3116,-474.5 3015,-474.5"/>
<text text-anchor="middle" x="3065.5" y="-481.5" font-family="Helvetica,sans-Serif" font-size="10.00">SyntaxAnalyzer::eat</text>
</a>
</g>
</g>
<!-- Node2 -->
<g id="node2" class="node">
<title>Node2</title>
<g id="a_node2"><a xlink:href="../../d0/dfe/class_syntax_analyzer.html#a31fc5887c158652feb946f89270b4b36" target="_top" xlink:title=" ">
<polygon fill="none" stroke="black" points="1711,-702.5 1711,-721.5 1866,-721.5 1866,-702.5 1711,-702.5"/>
<text text-anchor="middle" x="1788.5" y="-709.5" font-family="Helvetica,sans-Serif" font-size="10.00">SyntaxAnalyzer::syntaxAssignSt</text>
</a>
</g>
</g>
<!-- Node1&#45;&gt;Node2 -->
<g id="edge1" class="edge">
<title>Node1&#45;&gt;Node2</title>
<path fill="none" stroke="midnightblue" d="M3061.95,-504.04C3053.42,-567.81 3023.92,-764.29 2979,-807 2890.28,-891.36 2831.93,-864 2709.5,-864 2709.5,-864 2709.5,-864 2157,-864 2040.67,-864 2006.28,-856.55 1902,-805 1857.7,-783.1 1815.61,-740.6 1798.07,-721.59"/>
<polygon fill="midnightblue" stroke="midnightblue" points="3065.47,-504.12 3063.29,-493.75 3058.53,-503.21 3065.47,-504.12"/>
</g>
<!-- Node3 -->
<g id="node3" class="node">
<title>Node3</title>
<g id="a_node3"><a xlink:href="../../d0/dfe/class_syntax_analyzer.html#aea3a3d1860938d64edf651bdc4016c04" target="_top" xlink:title=" ">
<polygon fill="none" stroke="black" points="1536,-645.5 1536,-664.5 1675,-664.5 1675,-645.5 1536,-645.5"/>
<text text-anchor="middle" x="1605.5" y="-652.5" font-family="Helvetica,sans-Serif" font-size="10.00">SyntaxAnalyzer::syntaxIterSt</text>
</a>
</g>
</g>
<!-- Node1&#45;&gt;Node3 -->
<g id="edge49" class="edge">
<title>Node1&#45;&gt;Node3</title>
<path fill="none" stroke="midnightblue" d="M3055.31,-502.86C3041.86,-528.71 3014.49,-575.11 2979,-603 2877.41,-682.83 2838.7,-712 2709.5,-712 2709.5,-712 2709.5,-712 2528.5,-712 2362.11,-712 1859.71,-674.55 1675.32,-660.36"/>
<polygon fill="midnightblue" stroke="midnightblue" points="3058.54,-504.25 3059.92,-493.74 3052.29,-501.09 3058.54,-504.25"/>
</g>
<!-- Node4 -->
<g id="node4" class="node">
<title>Node4</title>
<g id="a_node4"><a xlink:href="../../d0/dfe/class_syntax_analyzer.html#a82e8472ea6d1064871de0d05eaa8b374" target="_top" xlink:title=" ">
<polygon fill="none" stroke="black" points="1361,-593.5 1361,-612.5 1500,-612.5 1500,-593.5 1361,-593.5"/>
<text text-anchor="middle" x="1430.5" y="-600.5" font-family="Helvetica,sans-Serif" font-size="10.00">SyntaxAnalyzer::syntaxForSt</text>
</a>
</g>
</g>
<!-- Node1&#45;&gt;Node4 -->
<g id="edge46" class="edge">
<title>Node1&#45;&gt;Node4</title>
<path fill="none" stroke="midnightblue" d="M3062.67,-504.04C3055.92,-573.44 3030.11,-801.99 2979,-851 2891.02,-935.38 2831.4,-902 2709.5,-902 2709.5,-902 2709.5,-902 1787.5,-902 1603.07,-902 1464.25,-663.79 1436.56,-612.61"/>
<polygon fill="midnightblue" stroke="midnightblue" points="3066.19,-503.94 3063.65,-493.66 3059.23,-503.28 3066.19,-503.94"/>
</g>
<!-- Node5 -->
<g id="node5" class="node">
<title>Node5</title>
<g id="a_node5"><a xlink:href="../../d0/dfe/class_syntax_analyzer.html#a7f54bde730006b1b863290415809ab4e" target="_top" xlink:title=" ">
<polygon fill="none" stroke="black" points="1200,-522.5 1200,-541.5 1325,-541.5 1325,-522.5 1200,-522.5"/>
<text text-anchor="middle" x="1262.5" y="-529.5" font-family="Helvetica,sans-Serif" font-size="10.00">SyntaxAnalyzer::syntaxSt</text>
</a>
</g>
</g>
<!-- Node1&#45;&gt;Node5 -->
<g id="edge54" class="edge">
<title>Node1&#45;&gt;Node5</title>
<path fill="none" stroke="midnightblue" d="M3046.49,-467.39C3029.98,-452.92 3004.34,-432.23 2979,-419 2867.43,-360.75 2835.36,-332 2709.5,-332 2709.5,-332 2709.5,-332 1604.5,-332 1493.65,-332 1448.02,-317.33 1361,-386 1332.29,-408.66 1345.04,-429.4 1325,-460 1309.15,-484.2 1286.02,-509.16 1273.12,-522.39"/>
<polygon fill="midnightblue" stroke="midnightblue" points="3044.45,-470.26 3054.23,-474.32 3049.12,-465.05 3044.45,-470.26"/>
</g>
<!-- Node6 -->
<g id="node6" class="node">
<title>Node6</title>
<g id="a_node6"><a xlink:href="../../d0/dfe/class_syntax_analyzer.html#a779e006875d35926152773989f4b1e5a" target="_top" xlink:title=" ">
<polygon fill="none" stroke="black" points="1024,-422.5 1024,-441.5 1155,-441.5 1155,-422.5 1024,-422.5"/>
<text text-anchor="middle" x="1089.5" y="-429.5" font-family="Helvetica,sans-Serif" font-size="10.00">SyntaxAnalyzer::syntaxIfSt</text>
</a>
</g>
</g>
<!-- Node1&#45;&gt;Node6 -->
<g id="edge48" class="edge">
<title>Node1&#45;&gt;Node6</title>
<path fill="none" stroke="midnightblue" d="M3062.38,-463.99C3056.87,-423.02 3038.15,-329.77 2979,-286 2882.12,-214.32 2830.02,-256 2709.5,-256 2709.5,-256 2709.5,-256 1429.5,-256 1283.94,-256 1138.77,-385.39 1100.33,-422.29"/>
<polygon fill="midnightblue" stroke="midnightblue" points="3058.92,-464.57 3063.6,-474.08 3065.87,-463.73 3058.92,-464.57"/>
</g>
<!-- Node7 -->
<g id="node7" class="node">
<title>Node7</title>
<g id="a_node7"><a xlink:href="../../d0/dfe/class_syntax_analyzer.html#a6df61a82ef9de3c17b78be89a321a087" target="_top" xlink:title=" ">
<polygon fill="none" stroke="black" points="1019,-560.5 1019,-579.5 1160,-579.5 1160,-560.5 1019,-560.5"/>
<text text-anchor="middle" x="1089.5" y="-567.5" font-family="Helvetica,sans-Serif" font-size="10.00">SyntaxAnalyzer::syntaxStList</text>
</a>
</g>
</g>
<!-- Node1&#45;&gt;Node7 -->
<g id="edge55" class="edge">
<title>Node1&#45;&gt;Node7</title>
<path fill="none" stroke="midnightblue" d="M3063.22,-503.91C3058.04,-578.21 3036.05,-837.83 2979,-893 2891.6,-977.53 2831.09,-940 2709.5,-940 2709.5,-940 2709.5,-940 1429.5,-940 1227.81,-940 1113.68,-637.43 1093.68,-579.52"/>
<polygon fill="midnightblue" stroke="midnightblue" points="3066.73,-503.85 3063.91,-493.64 3059.75,-503.38 3066.73,-503.85"/>
</g>
<!-- Node8 -->
<g id="node8" class="node">
<title>Node8</title>
<g id="a_node8"><a xlink:href="../../d0/dfe/class_syntax_analyzer.html#a5770afdc4d32d2c38550f27f9ffd949a" target="_top" xlink:title=" ">
<polygon fill="none" stroke="black" points="808,-541.5 808,-560.5 979,-560.5 979,-541.5 808,-541.5"/>
<text text-anchor="middle" x="893.5" y="-548.5" font-family="Helvetica,sans-Serif" font-size="10.00">SyntaxAnalyzer::syntaxCompoundSt</text>
</a>
</g>
</g>
<!-- Node1&#45;&gt;Node8 -->
<g id="edge39" class="edge">
<title>Node1&#45;&gt;Node8</title>
<path fill="none" stroke="midnightblue" d="M3063.65,-503.87C3059.87,-582.79 3041.84,-872.77 2979,-934 2892.08,-1018.7 2830.86,-978 2709.5,-978 2709.5,-978 2709.5,-978 1261.5,-978 1033.74,-978 916.56,-624.28 897.34,-560.72"/>
<polygon fill="midnightblue" stroke="midnightblue" points="3067.15,-503.96 3064.11,-493.81 3060.16,-503.64 3067.15,-503.96"/>
</g>
<!-- Node10 -->
<g id="node10" class="node">
<title>Node10</title>
<g id="a_node10"><a xlink:href="../../d0/dfe/class_syntax_analyzer.html#ae04232a95c6423677e600927c82851e4" target="_top" xlink:title=" ">
<polygon fill="none" stroke="black" points="444,-94.5 444,-113.5 596,-113.5 596,-94.5 444,-94.5"/>
<text text-anchor="middle" x="520" y="-101.5" font-family="Helvetica,sans-Serif" font-size="10.00">SyntaxAnalyzer::syntaxFuncDef</text>
</a>
</g>
</g>
<!-- Node1&#45;&gt;Node10 -->
<g id="edge47" class="edge">
<title>Node1&#45;&gt;Node10</title>
<path fill="none" stroke="midnightblue" d="M3062.8,-464.13C3056.48,-395.35 3031.92,-169.1 2979,-124 2887.59,-46.09 2829.61,-104 2709.5,-104 2709.5,-104 2709.5,-104 892.5,-104 789.79,-104 671.11,-104 596.07,-104"/>
<polygon fill="midnightblue" stroke="midnightblue" points="3059.34,-464.77 3063.72,-474.42 3066.31,-464.15 3059.34,-464.77"/>
</g>
<!-- Node11 -->
<g id="node11" class="node">
<title>Node11</title>
<g id="a_node11"><a xlink:href="../../d0/dfe/class_syntax_analyzer.html#a8b337bd5b4a90cd5bd804a936e408e4b" target="_top" xlink:title=" ">
<polygon fill="none" stroke="black" points="256,-151.5 256,-170.5 408,-170.5 408,-151.5 256,-151.5"/>
<text text-anchor="middle" x="332" y="-158.5" font-family="Helvetica,sans-Serif" font-size="10.00">SyntaxAnalyzer::syntaxProgram</text>
</a>
</g>
</g>
<!-- Node1&#45;&gt;Node11 -->
<g id="edge50" class="edge">
<title>Node1&#45;&gt;Node11</title>
<path fill="none" stroke="midnightblue" d="M3064,-504.02C3061.47,-587.51 3047.41,-906.82 2979,-974 2892.51,-1058.94 2830.72,-1016 2709.5,-1016 2709.5,-1016 2709.5,-1016 701,-1016 507.08,-1016 353.32,-264.54 334.86,-170.6"/>
<polygon fill="midnightblue" stroke="midnightblue" points="3067.5,-503.94 3064.28,-493.85 3060.5,-503.75 3067.5,-503.94"/>
</g>
<!-- Node15 -->
<g id="node15" class="node">
<title>Node15</title>
<g id="a_node15"><a xlink:href="../../d0/dfe/class_syntax_analyzer.html#a64dad7f0b22b08d182483469d3a1aa79" target="_top" xlink:title=" ">
<polygon fill="none" stroke="black" points="1015,-484.5 1015,-503.5 1164,-503.5 1164,-484.5 1015,-484.5"/>
<text text-anchor="middle" x="1089.5" y="-491.5" font-family="Helvetica,sans-Serif" font-size="10.00">SyntaxAnalyzer::syntaxWhileSt</text>
</a>
</g>
</g>
<!-- Node1&#45;&gt;Node15 -->
<g id="edge70" class="edge">
<title>Node1&#45;&gt;Node15</title>
<path fill="none" stroke="midnightblue" d="M3058.83,-464.49C3048.53,-432.81 3023.59,-370.64 2979,-340 2878.85,-271.19 2831.01,-294 2709.5,-294 2709.5,-294 2709.5,-294 1604.5,-294 1495.29,-294 1463.66,-289.73 1361,-327 1263.75,-362.3 1252.44,-397.32 1164,-451 1144.66,-462.74 1122.19,-475.8 1107.23,-484.42"/>
<polygon fill="midnightblue" stroke="midnightblue" points="3055.57,-465.8 3061.87,-474.32 3062.26,-463.74 3055.57,-465.8"/>
</g>
<!-- Node16 -->
<g id="node16" class="node">
<title>Node16</title>
<g id="a_node16"><a xlink:href="../../d0/dfe/class_syntax_analyzer.html#a2db43946bee3e973ce1cf293b262e271" target="_top" xlink:title=" ">
<polygon fill="none" stroke="black" points="2828.5,-512.5 2828.5,-531.5 2969.5,-531.5 2969.5,-512.5 2828.5,-512.5"/>
<text text-anchor="middle" x="2899" y="-519.5" font-family="Helvetica,sans-Serif" font-size="10.00">SyntaxAnalyzer::syntaxCallSt</text>
</a>
</g>
</g>
<!-- Node1&#45;&gt;Node16 -->
<g id="edge21" class="edge">
<title>Node1&#45;&gt;Node16</title>
<path fill="none" stroke="midnightblue" d="M3013,-495.9C2989.88,-501.24 2962.97,-507.45 2941.21,-512.48"/>
<polygon fill="midnightblue" stroke="midnightblue" points="3014.03,-499.25 3022.99,-493.59 3012.46,-492.43 3014.03,-499.25"/>
</g>
<!-- Node17 -->
<g id="node17" class="node">
<title>Node17</title>
<g id="a_node17"><a xlink:href="../../d0/dfe/class_syntax_analyzer.html#a3af9b5161a2cef6fdd26b0bb60334ac4" target="_top" xlink:title=" ">
<polygon fill="none" stroke="black" points="2637,-588.5 2637,-607.5 2780,-607.5 2780,-588.5 2637,-588.5"/>
<text text-anchor="middle" x="2708.5" y="-595.5" font-family="Helvetica,sans-Serif" font-size="10.00">SyntaxAnalyzer::syntaxFactor</text>
</a>
</g>
</g>
<!-- Node1&#45;&gt;Node17 -->
<g id="edge45" class="edge">
<title>Node1&#45;&gt;Node17</title>
<path fill="none" stroke="midnightblue" d="M3053.17,-502.3C3038.83,-523.66 3011.97,-558.08 2979,-574 2916.61,-604.13 2836.65,-607.51 2780.07,-604.96"/>
<polygon fill="midnightblue" stroke="midnightblue" points="3056.19,-504.08 3058.7,-493.78 3050.32,-500.27 3056.19,-504.08"/>
</g>
<!-- Node18 -->
<g id="node18" class="node">
<title>Node18</title>
<g id="a_node18"><a xlink:href="../../d0/dfe/class_syntax_analyzer.html#a1e9b913cc8c2861927d7c05d10f1822d" target="_top" xlink:title=" ">
<polygon fill="none" stroke="black" points="2461,-436.5 2461,-455.5 2598,-455.5 2598,-436.5 2461,-436.5"/>
<text text-anchor="middle" x="2529.5" y="-443.5" font-family="Helvetica,sans-Serif" font-size="10.00">SyntaxAnalyzer::syntaxTerm</text>
</a>
</g>
</g>
<!-- Node1&#45;&gt;Node18 -->
<g id="edge56" class="edge">
<title>Node1&#45;&gt;Node18</title>
<path fill="none" stroke="midnightblue" d="M3004.85,-473.38C2996.2,-472.09 2987.38,-470.91 2979,-470 2844.5,-455.43 2686.3,-449.59 2598.31,-447.33"/>
<polygon fill="midnightblue" stroke="midnightblue" points="3004.47,-476.87 3014.89,-474.94 3005.55,-469.95 3004.47,-476.87"/>
</g>
<!-- Node19 -->
<g id="node19" class="node">
<title>Node19</title>
<g id="a_node19"><a xlink:href="../../d0/dfe/class_syntax_analyzer.html#a3dfb6634a4bcdc61da5b1bafd1f3d136" target="_top" xlink:title=" ">
<polygon fill="none" stroke="black" points="2261,-436.5 2261,-455.5 2425,-455.5 2425,-436.5 2261,-436.5"/>
<text text-anchor="middle" x="2343" y="-443.5" font-family="Helvetica,sans-Serif" font-size="10.00">SyntaxAnalyzer::syntaxSimpleExpr</text>
</a>
</g>
</g>
<!-- Node1&#45;&gt;Node19 -->
<g id="edge53" class="edge">
<title>Node1&#45;&gt;Node19</title>
<path fill="none" stroke="midnightblue" d="M3034.51,-470.31C3018.4,-463.59 2997.99,-456.08 2979,-452 2753.66,-403.54 2690.74,-408.47 2461,-427 2438.03,-428.85 2412.76,-432.72 2391.6,-436.49"/>
<polygon fill="midnightblue" stroke="midnightblue" points="3033.36,-473.63 3043.93,-474.35 3036.12,-467.19 3033.36,-473.63"/>
</g>
<!-- Node20 -->
<g id="node20" class="node">
<title>Node20</title>
<g id="a_node20"><a xlink:href="../../d0/dfe/class_syntax_analyzer.html#ae8d09db1b25ec882248aeed978c13a4d" target="_top" xlink:title=" ">
<polygon fill="none" stroke="black" points="2091,-512.5 2091,-531.5 2225,-531.5 2225,-512.5 2091,-512.5"/>
<text text-anchor="middle" x="2158" y="-519.5" font-family="Helvetica,sans-Serif" font-size="10.00">SyntaxAnalyzer::syntaxExpr</text>
</a>
</g>
</g>
<!-- Node1&#45;&gt;Node20 -->
<g id="edge44" class="edge">
<title>Node1&#45;&gt;Node20</title>
<path fill="none" stroke="midnightblue" d="M3004.78,-484C2934.24,-484 2813.33,-484 2709.5,-484 2709.5,-484 2709.5,-484 2528.5,-484 2417.42,-484 2288.54,-501.2 2216.1,-512.46"/>
<polygon fill="midnightblue" stroke="midnightblue" points="3004.82,-487.5 3014.82,-484 3004.82,-480.5 3004.82,-487.5"/>
</g>
<!-- Node21 -->
<g id="node21" class="node">
<title>Node21</title>
<g id="a_node21"><a xlink:href="../../d0/dfe/class_syntax_analyzer.html#a55e935b2aa7f20b66e9228e977582fcd" target="_top" xlink:title=" ">
<polygon fill="none" stroke="black" points="1902,-522.5 1902,-541.5 2055,-541.5 2055,-522.5 1902,-522.5"/>
<text text-anchor="middle" x="1978.5" y="-529.5" font-family="Helvetica,sans-Serif" font-size="10.00">SyntaxAnalyzer::syntaxReturnSt</text>
</a>
</g>
</g>
<!-- Node1&#45;&gt;Node21 -->
<g id="edge51" class="edge">
<title>Node1&#45;&gt;Node21</title>
<path fill="none" stroke="midnightblue" d="M3046.89,-500.34C3030.66,-514.21 3005.17,-533.08 2979,-541 2806.79,-593.14 2257.71,-554.9 2055.34,-538.49"/>
<polygon fill="midnightblue" stroke="midnightblue" points="3049.31,-502.87 3054.49,-493.63 3044.68,-497.62 3049.31,-502.87"/>
</g>
<!-- Node22 -->
<g id="node22" class="node">
<title>Node22</title>
<g id="a_node22"><a xlink:href="../../d0/dfe/class_syntax_analyzer.html#a1264dcb50cb09c564a36125c21043298" target="_top" xlink:title=" ">
<polygon fill="none" stroke="black" points="1907,-702.5 1907,-721.5 2050,-721.5 2050,-702.5 1907,-702.5"/>
<text text-anchor="middle" x="1978.5" y="-709.5" font-family="Helvetica,sans-Serif" font-size="10.00">SyntaxAnalyzer::syntaxSelect</text>
</a>
</g>
</g>
<!-- Node1&#45;&gt;Node22 -->
<g id="edge52" class="edge">
<title>Node1&#45;&gt;Node22</title>
<path fill="none" stroke="midnightblue" d="M3064.21,-503.85C3062.32,-551.13 3050.38,-670.6 2979,-726 2884,-799.73 2829.75,-750 2709.5,-750 2709.5,-750 2709.5,-750 2342,-750 2233,-750 2106.57,-732.8 2035.51,-721.54"/>
<polygon fill="midnightblue" stroke="midnightblue" points="3067.71,-503.79 3064.49,-493.7 3060.71,-503.6 3067.71,-503.79"/>
</g>
<!-- Node23 -->
<g id="node23" class="node">
<title>Node23</title>
<g id="a_node23"><a xlink:href="../../d0/dfe/class_syntax_analyzer.html#adad79b2219ae143b49203a836713bec9" target="_top" xlink:title=" ">
<polygon fill="none" stroke="black" points="2819,-170.5 2819,-189.5 2979,-189.5 2979,-170.5 2819,-170.5"/>
<text text-anchor="middle" x="2899" y="-177.5" font-family="Helvetica,sans-Serif" font-size="10.00">SyntaxAnalyzer::syntaxConstDecl</text>
</a>
</g>
</g>
<!-- Node1&#45;&gt;Node23 -->
<g id="edge40" class="edge">
<title>Node1&#45;&gt;Node23</title>
<path fill="none" stroke="midnightblue" d="M3064.46,-464.22C3063.25,-413.54 3052.91,-277.8 2979,-204 2972.71,-197.72 2964.83,-193.07 2956.51,-189.64"/>
<polygon fill="midnightblue" stroke="midnightblue" points="3060.96,-464.5 3064.6,-474.45 3067.96,-464.4 3060.96,-464.5"/>
</g>
<!-- Node24 -->
<g id="node24" class="node">
<title>Node24</title>
<g id="a_node24"><a xlink:href="../../d0/dfe/class_syntax_analyzer.html#a58a0f927ad0a45e4ce837a98e98330aa" target="_top" xlink:title=" ">
<polygon fill="none" stroke="black" points="2635.5,-170.5 2635.5,-189.5 2781.5,-189.5 2781.5,-170.5 2635.5,-170.5"/>
<text text-anchor="middle" x="2708.5" y="-177.5" font-family="Helvetica,sans-Serif" font-size="10.00">SyntaxAnalyzer::syntaxConsts</text>
</a>
</g>
</g>
<!-- Node1&#45;&gt;Node24 -->
<g id="edge43" class="edge">
<title>Node1&#45;&gt;Node24</title>
<path fill="none" stroke="midnightblue" d="M3063.65,-464.16C3060.55,-417.83 3046.12,-301.9 2979,-242 2962.95,-227.67 2837.25,-203.01 2763.32,-189.51"/>
<polygon fill="midnightblue" stroke="midnightblue" points="3060.17,-464.58 3064.22,-474.37 3067.16,-464.19 3060.17,-464.58"/>
</g>
<!-- Node25 -->
<g id="node25" class="node">
<title>Node25</title>
<g id="a_node25"><a xlink:href="../../d0/dfe/class_syntax_analyzer.html#a5d262eb9e2236dde3bd043eea0b0e957" target="_top" xlink:title=" ">
<polygon fill="none" stroke="black" points="2820,-0.5 2820,-19.5 2978,-19.5 2978,-0.5 2820,-0.5"/>
<text text-anchor="middle" x="2899" y="-7.5" font-family="Helvetica,sans-Serif" font-size="10.00">SyntaxAnalyzer::syntaxTypeSpec</text>
</a>
</g>
</g>
<!-- Node1&#45;&gt;Node25 -->
<g id="edge57" class="edge">
<title>Node1&#45;&gt;Node25</title>
<path fill="none" stroke="midnightblue" d="M3062.85,-464.49C3056.18,-389.35 3029.08,-119.43 2979,-52 2967.52,-36.54 2948.62,-26.2 2932.19,-19.65"/>
<polygon fill="midnightblue" stroke="midnightblue" points="3059.37,-464.81 3063.72,-474.47 3066.34,-464.21 3059.37,-464.81"/>
</g>
<!-- Node26 -->
<g id="node26" class="node">
<title>Node26</title>
<g id="a_node26"><a xlink:href="../../d0/dfe/class_syntax_analyzer.html#a8f6dda26a96ec0e5e75bea5eed577856" target="_top" xlink:title=" ">
<polygon fill="none" stroke="black" points="2634,-56.5 2634,-75.5 2783,-75.5 2783,-56.5 2634,-56.5"/>
<text text-anchor="middle" x="2708.5" y="-63.5" font-family="Helvetica,sans-Serif" font-size="10.00">SyntaxAnalyzer::syntaxVarDecl</text>
</a>
</g>
</g>
<!-- Node1&#45;&gt;Node26 -->
<g id="edge64" class="edge">
<title>Node1&#45;&gt;Node26</title>
<path fill="none" stroke="midnightblue" d="M3063.21,-464.19C3058.05,-391.43 3036.29,-140.55 2979,-90 2915.25,-33.75 2806.92,-45.04 2748.92,-56.49"/>
<polygon fill="midnightblue" stroke="midnightblue" points="3059.73,-464.54 3063.9,-474.28 3066.71,-464.07 3059.73,-464.54"/>
</g>
<!-- Node27 -->
<g id="node27" class="node">
<title>Node27</title>
<g id="a_node27"><a xlink:href="../../d0/dfe/class_syntax_analyzer.html#a738f9b4cb7edf93c56af1b6974caad1a" target="_top" xlink:title=" ">
<polygon fill="none" stroke="black" points="2462,-132.5 2462,-151.5 2597,-151.5 2597,-132.5 2462,-132.5"/>
<text text-anchor="middle" x="2529.5" y="-139.5" font-family="Helvetica,sans-Serif" font-size="10.00">SyntaxAnalyzer::syntaxVars</text>
</a>
</g>
</g>
<!-- Node1&#45;&gt;Node27 -->
<g id="edge69" class="edge">
<title>Node1&#45;&gt;Node27</title>
<path fill="none" stroke="midnightblue" d="M3062.32,-464.46C3054.78,-400.62 3027.51,-200 2979,-161 2922.06,-115.22 2707.93,-126.31 2597.42,-135.52"/>
<polygon fill="midnightblue" stroke="midnightblue" points="3058.85,-464.89 3063.47,-474.42 3065.8,-464.08 3058.85,-464.89"/>
</g>
<!-- Node28 -->
<g id="node28" class="node">
<title>Node28</title>
<g id="a_node28"><a xlink:href="../../d0/dfe/class_syntax_analyzer.html#a94c8a6ab5c0e53cae22edb1a840a27ce" target="_top" xlink:title=" ">
<polygon fill="none" stroke="black" points="2824,-778.5 2824,-797.5 2974,-797.5 2974,-778.5 2824,-778.5"/>
<text text-anchor="middle" x="2899" y="-785.5" font-family="Helvetica,sans-Serif" font-size="10.00">SyntaxAnalyzer::syntaxVariable</text>
</a>
</g>
</g>
<!-- Node1&#45;&gt;Node28 -->
<g id="edge65" class="edge">
<title>Node1&#45;&gt;Node28</title>
<path fill="none" stroke="midnightblue" d="M3064.46,-503.78C3063.25,-554.46 3052.91,-690.2 2979,-764 2972.71,-770.28 2964.83,-774.93 2956.51,-778.36"/>
<polygon fill="midnightblue" stroke="midnightblue" points="3067.96,-503.6 3064.6,-493.55 3060.96,-503.5 3067.96,-503.6"/>
</g>
<!-- Node2&#45;&gt;Node3 -->
<g id="edge2" class="edge">
<title>Node2&#45;&gt;Node3</title>
<path fill="none" stroke="midnightblue" d="M1747.42,-699.44C1735.68,-695.76 1722.83,-691.72 1711,-688 1685.96,-680.12 1657.55,-671.14 1636.68,-664.55"/>
<polygon fill="midnightblue" stroke="midnightblue" points="1746.38,-702.78 1756.97,-702.44 1748.48,-696.1 1746.38,-702.78"/>
</g>
<!-- Node2&#45;&gt;Node5 -->
<g id="edge20" class="edge">
<title>Node2&#45;&gt;Node5</title>
<path fill="none" stroke="midnightblue" d="M1700.73,-709.05C1610.49,-702.61 1467.73,-682.7 1361,-622 1322.35,-600.02 1286.56,-560.03 1271.29,-541.68"/>
<polygon fill="midnightblue" stroke="midnightblue" points="1700.72,-712.56 1710.93,-709.74 1701.19,-705.58 1700.72,-712.56"/>
</g>
<!-- Node3&#45;&gt;Node4 -->
<g id="edge3" class="edge">
<title>Node3&#45;&gt;Node4</title>
<path fill="none" stroke="midnightblue" d="M1562.82,-642.47C1532.23,-633.28 1491.31,-620.98 1463.32,-612.57"/>
<polygon fill="midnightblue" stroke="midnightblue" points="1562.18,-645.94 1572.77,-645.46 1564.2,-639.23 1562.18,-645.94"/>
</g>
<!-- Node4&#45;&gt;Node5 -->
<g id="edge4" class="edge">
<title>Node4&#45;&gt;Node5</title>
<path fill="none" stroke="midnightblue" d="M1407.29,-588.73C1379.58,-574.58 1331.86,-553.87 1299.05,-541.55"/>
<polygon fill="midnightblue" stroke="midnightblue" points="1405.72,-591.86 1416.2,-593.43 1408.99,-585.67 1405.72,-591.86"/>
</g>
<!-- Node5&#45;&gt;Node4 -->
<g id="edge5" class="edge">
<title>Node5&#45;&gt;Node4</title>
<path fill="none" stroke="midnightblue" d="M1285.94,-546.39C1313.66,-560.53 1361.16,-581.13 1393.89,-593.43"/>
<polygon fill="midnightblue" stroke="midnightblue" points="1287.49,-543.25 1277.01,-541.68 1284.23,-549.44 1287.49,-543.25"/>
</g>
<!-- Node5&#45;&gt;Node6 -->
<g id="edge6" class="edge">
<title>Node5&#45;&gt;Node6</title>
<path fill="none" stroke="midnightblue" d="M1242.87,-516.7C1211.96,-495.69 1150.07,-459.32 1115.44,-441.65"/>
<polygon fill="midnightblue" stroke="midnightblue" points="1240.86,-519.57 1251.06,-522.45 1244.88,-513.84 1240.86,-519.57"/>
</g>
<!-- Node5&#45;&gt;Node7 -->
<g id="edge8" class="edge">
<title>Node5&#45;&gt;Node7</title>
<path fill="none" stroke="midnightblue" d="M1208.29,-543.82C1184.18,-549.18 1156.06,-555.43 1133.34,-560.48"/>
<polygon fill="midnightblue" stroke="midnightblue" points="1209.35,-547.18 1218.35,-541.59 1207.83,-540.34 1209.35,-547.18"/>
</g>
<!-- Node5&#45;&gt;Node15 -->
<g id="edge18" class="edge">
<title>Node5&#45;&gt;Node15</title>
<path fill="none" stroke="midnightblue" d="M1229.77,-519.56C1211.11,-514.31 1186.71,-508.45 1163.55,-503.55"/>
<polygon fill="midnightblue" stroke="midnightblue" points="1228.91,-522.96 1239.49,-522.41 1230.88,-516.24 1228.91,-522.96"/>
</g>
<!-- Node6&#45;&gt;Node5 -->
<g id="edge7" class="edge">
<title>Node6&#45;&gt;Node5</title>
<path fill="none" stroke="midnightblue" d="M1109.28,-447.4C1140.26,-468.45 1202.07,-504.76 1236.64,-522.39"/>
<polygon fill="midnightblue" stroke="midnightblue" points="1111.27,-444.52 1101.07,-441.65 1107.25,-450.25 1111.27,-444.52"/>
</g>
<!-- Node7&#45;&gt;Node8 -->
<g id="edge9" class="edge">
<title>Node7&#45;&gt;Node8</title>
<path fill="none" stroke="midnightblue" d="M1008.7,-562.18C998.97,-561.23 989.01,-560.26 979.21,-559.3"/>
<polygon fill="midnightblue" stroke="midnightblue" points="1008.44,-565.68 1018.74,-563.17 1009.12,-558.71 1008.44,-565.68"/>
</g>
<!-- Node8&#45;&gt;Node5 -->
<g id="edge17" class="edge">
<title>Node8&#45;&gt;Node5</title>
<path fill="none" stroke="midnightblue" d="M989.36,-546.09C1055.61,-542.66 1142.14,-538.18 1199.66,-535.2"/>
<polygon fill="midnightblue" stroke="midnightblue" points="989.13,-542.6 979.32,-546.61 989.49,-549.59 989.13,-542.6"/>
</g>
<!-- Node9 -->
<g id="node9" class="node">
<title>Node9</title>
<g id="a_node9"><a xlink:href="../../d0/dfe/class_syntax_analyzer.html#a2b54bac50e114b68e83c80d869b6ac7c" target="_top" xlink:title=" ">
<polygon fill="none" stroke="black" points="632,-151.5 632,-170.5 772,-170.5 772,-151.5 632,-151.5"/>
<text text-anchor="middle" x="702" y="-158.5" font-family="Helvetica,sans-Serif" font-size="10.00">SyntaxAnalyzer::syntaxBlock</text>
</a>
</g>
</g>
<!-- Node8&#45;&gt;Node9 -->
<g id="edge10" class="edge">
<title>Node8&#45;&gt;Node9</title>
<path fill="none" stroke="midnightblue" d="M883.28,-532.03C849.42,-462.33 732.59,-221.89 707.69,-170.65"/>
<polygon fill="midnightblue" stroke="midnightblue" points="880.3,-533.89 887.82,-541.36 886.59,-530.84 880.3,-533.89"/>
</g>
<!-- Node9&#45;&gt;Node10 -->
<g id="edge11" class="edge">
<title>Node9&#45;&gt;Node10</title>
<path fill="none" stroke="midnightblue" d="M661.03,-148.34C627.85,-137.84 581.37,-123.12 551.23,-113.57"/>
<polygon fill="midnightblue" stroke="midnightblue" points="660.28,-151.78 670.87,-151.46 662.4,-145.1 660.28,-151.78"/>
</g>
<!-- Node9&#45;&gt;Node11 -->
<g id="edge16" class="edge">
<title>Node9&#45;&gt;Node11</title>
<path fill="none" stroke="midnightblue" d="M621.46,-161C558.21,-161 470.34,-161 408.24,-161"/>
<polygon fill="midnightblue" stroke="midnightblue" points="621.78,-164.5 631.78,-161 621.78,-157.5 621.78,-164.5"/>
</g>
<!-- Node10&#45;&gt;Node11 -->
<g id="edge12" class="edge">
<title>Node10&#45;&gt;Node11</title>
<path fill="none" stroke="midnightblue" d="M478.14,-116.52C443.83,-127.04 395.52,-141.84 364.23,-151.43"/>
<polygon fill="midnightblue" stroke="midnightblue" points="479.33,-119.82 487.87,-113.54 477.28,-113.12 479.33,-119.82"/>
</g>
<!-- Node12 -->
<g id="node12" class="node">
<title>Node12</title>
<g id="a_node12"><a xlink:href="../../d0/dfe/class_syntax_analyzer.html#a96cd5f6a041dae613d1c75175e26592e" target="_top" xlink:title=" ">
<polygon fill="none" stroke="black" points="77,-151.5 77,-170.5 220,-170.5 220,-151.5 77,-151.5"/>
<text text-anchor="middle" x="148.5" y="-158.5" font-family="Helvetica,sans-Serif" font-size="10.00">SyntaxAnalyzer::parseTokens</text>
</a>
</g>
</g>
<!-- Node11&#45;&gt;Node12 -->
<g id="edge13" class="edge">
<title>Node11&#45;&gt;Node12</title>
<path fill="none" stroke="midnightblue" d="M245.84,-161C237.26,-161 228.61,-161 220.21,-161"/>
<polygon fill="midnightblue" stroke="midnightblue" points="245.87,-164.5 255.87,-161 245.87,-157.5 245.87,-164.5"/>
</g>
<!-- Node13 -->
<g id="node13" class="node">
<title>Node13</title>
<g id="a_node13"><a xlink:href="../../d3/db4/graph_draw_8cpp.html#a3c04138a5bfe5d72780bb7e82a18e627" target="_top" xlink:title=" ">
<polygon fill="none" stroke="black" points="1.5,-170.5 1.5,-189.5 39.5,-189.5 39.5,-170.5 1.5,-170.5"/>
<text text-anchor="middle" x="20.5" y="-177.5" font-family="Helvetica,sans-Serif" font-size="10.00">main</text>
</a>
</g>
</g>
<!-- Node12&#45;&gt;Node13 -->
<g id="edge14" class="edge">
<title>Node12&#45;&gt;Node13</title>
<path fill="none" stroke="midnightblue" d="M74.24,-172.05C61.4,-173.98 49.15,-175.83 39.69,-177.26"/>
<polygon fill="midnightblue" stroke="midnightblue" points="74.76,-175.51 84.13,-170.56 73.72,-168.59 74.76,-175.51"/>
</g>
<!-- Node14 -->
<g id="node14" class="node">
<title>Node14</title>
<g id="a_node14"><a xlink:href="../../dd/de9/test_syntax_8cpp.html#ac491df98e51a6bba8b808af414b6614f" target="_top" xlink:title="Тест синтаксического анализа Паскаля, простой тест">
<polygon fill="none" stroke="black" points="0,-132.5 0,-151.5 41,-151.5 41,-132.5 0,-132.5"/>
<text text-anchor="middle" x="20.5" y="-139.5" font-family="Helvetica,sans-Serif" font-size="10.00">TEST</text>
</a>
</g>
</g>
<!-- Node12&#45;&gt;Node14 -->
<g id="edge15" class="edge">
<title>Node12&#45;&gt;Node14</title>
<path fill="none" stroke="midnightblue" d="M73.88,-149.9C61.78,-148.07 50.22,-146.33 41.05,-144.95"/>
<polygon fill="midnightblue" stroke="midnightblue" points="73.72,-153.41 84.13,-151.44 74.76,-146.49 73.72,-153.41"/>
</g>
<!-- Node15&#45;&gt;Node5 -->
<g id="edge19" class="edge">
<title>Node15&#45;&gt;Node5</title>
<path fill="none" stroke="midnightblue" d="M1122.26,-506.45C1143.99,-512.56 1173.5,-519.49 1199.77,-524.79"/>
<polygon fill="midnightblue" stroke="midnightblue" points="1123.15,-503.06 1112.57,-503.61 1121.19,-509.78 1123.15,-503.06"/>
</g>
<!-- Node16&#45;&gt;Node5 -->
<g id="edge38" class="edge">
<title>Node16&#45;&gt;Node5</title>
<path fill="none" stroke="midnightblue" d="M2868.87,-508.03C2787.75,-470.44 2551.55,-370 2344,-370 2344,-370 2344,-370 1604.5,-370 1461.62,-370 1314.8,-487.48 1274.37,-522.35"/>
<polygon fill="midnightblue" stroke="midnightblue" points="2867.87,-511.42 2878.41,-512.49 2870.84,-505.08 2867.87,-511.42"/>
</g>
<!-- Node16&#45;&gt;Node17 -->
<g id="edge22" class="edge">
<title>Node16&#45;&gt;Node17</title>
<path fill="none" stroke="midnightblue" d="M2864.59,-535.47C2826.84,-550.69 2766.36,-575.08 2733.18,-588.45"/>
<polygon fill="midnightblue" stroke="midnightblue" points="2866.16,-538.61 2874.13,-531.63 2863.54,-532.12 2866.16,-538.61"/>
</g>
<!-- Node17&#45;&gt;Node3 -->
<g id="edge24" class="edge">
<title>Node17&#45;&gt;Node3</title>
<path fill="none" stroke="midnightblue" d="M2641.4,-609.09C2568.72,-620.31 2448.39,-636 2344,-636 2344,-636 2344,-636 1977.5,-636 1871.89,-636 1749.59,-643.77 1675.17,-649.38"/>
<polygon fill="midnightblue" stroke="midnightblue" points="2641.99,-612.54 2651.34,-607.54 2640.91,-605.62 2641.99,-612.54"/>
</g>
<!-- Node17&#45;&gt;Node17 -->
<g id="edge23" class="edge">
<title>Node17&#45;&gt;Node17</title>
<path fill="none" stroke="midnightblue" d="M2741.86,-615.89C2741.37,-621.54 2730.25,-626 2708.5,-626 2676.86,-626 2667.72,-616.57 2681.07,-607.76"/>
<polygon fill="midnightblue" stroke="midnightblue" points="2744.65,-613.78 2735.93,-607.76 2738.99,-617.9 2744.65,-613.78"/>
</g>
<!-- Node17&#45;&gt;Node18 -->
<g id="edge25" class="edge">
<title>Node17&#45;&gt;Node18</title>
<path fill="none" stroke="midnightblue" d="M2688.42,-581.61C2651.42,-549.84 2570.99,-480.77 2541.57,-455.5"/>
<polygon fill="midnightblue" stroke="midnightblue" points="2686.56,-584.63 2696.43,-588.49 2691.12,-579.32 2686.56,-584.63"/>
</g>
<!-- Node18&#45;&gt;Node19 -->
<g id="edge26" class="edge">
<title>Node18&#45;&gt;Node19</title>
<path fill="none" stroke="midnightblue" d="M2450.65,-446C2442.2,-446 2433.59,-446 2425.11,-446"/>
<polygon fill="midnightblue" stroke="midnightblue" points="2450.85,-449.5 2460.85,-446 2450.85,-442.5 2450.85,-449.5"/>
</g>
<!-- Node19&#45;&gt;Node20 -->
<g id="edge27" class="edge">
<title>Node19&#45;&gt;Node20</title>
<path fill="none" stroke="midnightblue" d="M2294.77,-458.41C2283.56,-461.79 2271.75,-465.71 2261,-470 2229.8,-482.45 2195.34,-501.13 2175.52,-512.38"/>
<polygon fill="midnightblue" stroke="midnightblue" points="2295.8,-461.75 2304.41,-455.59 2293.83,-455.03 2295.8,-461.75"/>
</g>
<!-- Node20&#45;&gt;Node2 -->
<g id="edge28" class="edge">
<title>Node20&#45;&gt;Node2</title>
<path fill="none" stroke="midnightblue" d="M2129.24,-536.35C2057.71,-573.33 1868.51,-671.15 1808.23,-702.32"/>
<polygon fill="midnightblue" stroke="midnightblue" points="2131.25,-539.25 2138.52,-531.55 2128.03,-533.04 2131.25,-539.25"/>
</g>
<!-- Node20&#45;&gt;Node6 -->
<g id="edge31" class="edge">
<title>Node20&#45;&gt;Node6</title>
<path fill="none" stroke="midnightblue" d="M2130.58,-507.75C2071.36,-477.16 1922.7,-408 1789.5,-408 1789.5,-408 1789.5,-408 1429.5,-408 1333.77,-408 1223.21,-417.64 1155.08,-424.7"/>
<polygon fill="midnightblue" stroke="midnightblue" points="2129.14,-510.94 2139.63,-512.48 2132.39,-504.74 2129.14,-510.94"/>
</g>
<!-- Node20&#45;&gt;Node15 -->
<g id="edge37" class="edge">
<title>Node20&#45;&gt;Node15</title>
<path fill="none" stroke="midnightblue" d="M2080.53,-512.77C2006.29,-504.61 1890.34,-494 1789.5,-494 1789.5,-494 1789.5,-494 1429.5,-494 1338.13,-494 1232.9,-494 1164.23,-494"/>
<polygon fill="midnightblue" stroke="midnightblue" points="2080.4,-516.27 2090.73,-513.9 2081.17,-509.32 2080.4,-516.27"/>
</g>
<!-- Node20&#45;&gt;Node16 -->
<g id="edge29" class="edge">
<title>Node20&#45;&gt;Node16</title>
<path fill="none" stroke="midnightblue" d="M2235.22,-522C2379.33,-522 2689.7,-522 2828.48,-522"/>
<polygon fill="midnightblue" stroke="midnightblue" points="2235.14,-518.5 2225.14,-522 2235.14,-525.5 2235.14,-518.5"/>
</g>
<!-- Node20&#45;&gt;Node17 -->
<g id="edge30" class="edge">
<title>Node20&#45;&gt;Node17</title>
<path fill="none" stroke="midnightblue" d="M2235.24,-532.56C2342.4,-547.41 2535.97,-574.23 2638.86,-588.49"/>
<polygon fill="midnightblue" stroke="midnightblue" points="2235.53,-529.07 2225.14,-531.16 2234.57,-536 2235.53,-529.07"/>
</g>
<!-- Node20&#45;&gt;Node21 -->
<g id="edge32" class="edge">
<title>Node20&#45;&gt;Node21</title>
<path fill="none" stroke="midnightblue" d="M2080.7,-526.3C2072.26,-526.77 2063.66,-527.26 2055.22,-527.73"/>
<polygon fill="midnightblue" stroke="midnightblue" points="2081.12,-529.78 2090.91,-525.72 2080.72,-522.79 2081.12,-529.78"/>
</g>
<!-- Node20&#45;&gt;Node22 -->
<g id="edge34" class="edge">
<title>Node20&#45;&gt;Node22</title>
<path fill="none" stroke="midnightblue" d="M2141.04,-539.08C2104.84,-577.84 2017.37,-671.46 1988.74,-702.11"/>
<polygon fill="midnightblue" stroke="midnightblue" points="2143.68,-541.38 2147.95,-531.68 2138.57,-536.6 2143.68,-541.38"/>
</g>
<!-- Node21&#45;&gt;Node5 -->
<g id="edge33" class="edge">
<title>Node21&#45;&gt;Node5</title>
<path fill="none" stroke="midnightblue" d="M1891.51,-532C1745.48,-532 1452.49,-532 1325.06,-532"/>
<polygon fill="midnightblue" stroke="midnightblue" points="1891.77,-535.5 1901.77,-532 1891.77,-528.5 1891.77,-535.5"/>
</g>
<!-- Node22&#45;&gt;Node2 -->
<g id="edge35" class="edge">
<title>Node22&#45;&gt;Node2</title>
<path fill="none" stroke="midnightblue" d="M1896.85,-712C1886.65,-712 1876.24,-712 1866.1,-712"/>
<polygon fill="midnightblue" stroke="midnightblue" points="1896.96,-715.5 1906.96,-712 1896.96,-708.5 1896.96,-715.5"/>
</g>
<!-- Node22&#45;&gt;Node17 -->
<g id="edge36" class="edge">
<title>Node22&#45;&gt;Node17</title>
<path fill="none" stroke="midnightblue" d="M2060.21,-712.64C2179.87,-711.65 2410.36,-702.26 2598,-650 2633.28,-640.18 2671.18,-619.68 2691.85,-607.56"/>
<polygon fill="midnightblue" stroke="midnightblue" points="2060.02,-709.14 2050.04,-712.71 2060.06,-716.14 2060.02,-709.14"/>
</g>
<!-- Node23&#45;&gt;Node24 -->
<g id="edge41" class="edge">
<title>Node23&#45;&gt;Node24</title>
<path fill="none" stroke="midnightblue" d="M2808.65,-180C2799.55,-180 2790.39,-180 2781.51,-180"/>
<polygon fill="midnightblue" stroke="midnightblue" points="2808.88,-183.5 2818.88,-180 2808.88,-176.5 2808.88,-183.5"/>
</g>
<!-- Node24&#45;&gt;Node9 -->
<g id="edge42" class="edge">
<title>Node24&#45;&gt;Node9</title>
<path fill="none" stroke="midnightblue" d="M2625.29,-180C2551.61,-180 2440.59,-180 2344,-180 2344,-180 2344,-180 1088.5,-180 977.77,-180 849.36,-172.08 772.24,-166.47"/>
<polygon fill="midnightblue" stroke="midnightblue" points="2625.43,-183.5 2635.43,-180 2625.43,-176.5 2625.43,-183.5"/>
</g>
<!-- Node25&#45;&gt;Node10 -->
<g id="edge58" class="edge">
<title>Node25&#45;&gt;Node10</title>
<path fill="none" stroke="midnightblue" d="M2809.6,-13.38C2735.17,-15.93 2625.89,-19 2530.5,-19 2530.5,-19 2530.5,-19 892.5,-19 758.52,-19 604.05,-72.18 545.34,-94.41"/>
<polygon fill="midnightblue" stroke="midnightblue" points="2810,-16.87 2819.87,-13.02 2809.76,-9.87 2810,-16.87"/>
</g>
<!-- Node25&#45;&gt;Node25 -->
<g id="edge59" class="edge">
<title>Node25&#45;&gt;Node25</title>
<path fill="none" stroke="midnightblue" d="M2930.06,-28.27C2929.18,-33.74 2918.82,-38 2899,-38 2869.5,-38 2860.97,-28.57 2873.41,-19.76"/>
<polygon fill="midnightblue" stroke="midnightblue" points="2932.94,-26.27 2924.59,-19.76 2927.05,-30.06 2932.94,-26.27"/>
</g>
<!-- Node25&#45;&gt;Node26 -->
<g id="edge60" class="edge">
<title>Node25&#45;&gt;Node26</title>
<path fill="none" stroke="midnightblue" d="M2855.78,-22.54C2821.17,-32.82 2772.95,-47.15 2741.48,-56.5"/>
<polygon fill="midnightblue" stroke="midnightblue" points="2857.01,-25.83 2865.6,-19.63 2855.01,-19.12 2857.01,-25.83"/>
</g>
<!-- Node26&#45;&gt;Node10 -->
<g id="edge61" class="edge">
<title>Node26&#45;&gt;Node10</title>
<path fill="none" stroke="midnightblue" d="M2623.55,-66C2549.88,-66 2439.83,-66 2344,-66 2344,-66 2344,-66 892.5,-66 780.83,-66 651.24,-83.2 578.41,-94.46"/>
<polygon fill="midnightblue" stroke="midnightblue" points="2623.7,-69.5 2633.7,-66 2623.7,-62.5 2623.7,-69.5"/>
</g>
<!-- Node26&#45;&gt;Node27 -->
<g id="edge62" class="edge">
<title>Node26&#45;&gt;Node27</title>
<path fill="none" stroke="midnightblue" d="M2675.67,-79.67C2640.2,-94.9 2583.76,-119.13 2552.74,-132.45"/>
<polygon fill="midnightblue" stroke="midnightblue" points="2677.27,-82.79 2685.08,-75.63 2674.51,-76.35 2677.27,-82.79"/>
</g>
<!-- Node27&#45;&gt;Node9 -->
<g id="edge63" class="edge">
<title>Node27&#45;&gt;Node9</title>
<path fill="none" stroke="midnightblue" d="M2451.49,-142C2376.74,-142 2260.09,-142 2159,-142 2159,-142 2159,-142 1088.5,-142 977.77,-142 849.36,-149.92 772.24,-155.53"/>
<polygon fill="midnightblue" stroke="midnightblue" points="2451.75,-145.5 2461.75,-142 2451.75,-138.5 2451.75,-145.5"/>
</g>
<!-- Node28&#45;&gt;Node2 -->
<g id="edge66" class="edge">
<title>Node28&#45;&gt;Node2</title>
<path fill="none" stroke="midnightblue" d="M2831.17,-799.09C2757.69,-810.31 2636.02,-826 2530.5,-826 2530.5,-826 2530.5,-826 2157,-826 2016.38,-826 1858.54,-748.92 1806.87,-721.52"/>
<polygon fill="midnightblue" stroke="midnightblue" points="2831.86,-802.53 2841.21,-797.54 2830.8,-795.61 2831.86,-802.53"/>
</g>
<!-- Node28&#45;&gt;Node17 -->
<g id="edge67" class="edge">
<title>Node28&#45;&gt;Node17</title>
<path fill="none" stroke="midnightblue" d="M2881.06,-770.92C2842.6,-732.16 2749.72,-638.54 2719.31,-607.89"/>
<polygon fill="midnightblue" stroke="midnightblue" points="2878.87,-773.68 2888.39,-778.32 2883.83,-768.75 2878.87,-773.68"/>
</g>
<!-- Node28&#45;&gt;Node22 -->
<g id="edge68" class="edge">
<title>Node28&#45;&gt;Node22</title>
<path fill="none" stroke="midnightblue" d="M2813.48,-788C2738.99,-788 2627.54,-788 2530.5,-788 2530.5,-788 2530.5,-788 2342,-788 2229.94,-788 2199.13,-793.44 2091,-764 2055.14,-754.24 2016.52,-733.72 1995.45,-721.58"/>
<polygon fill="midnightblue" stroke="midnightblue" points="2813.74,-791.5 2823.74,-788 2813.74,-784.5 2813.74,-791.5"/>
</g>
</g>
</svg>
