<?xml version="1.0" encoding="UTF-8" standalone="no"?>
<!DOCTYPE svg PUBLIC "-//W3C//DTD SVG 1.1//EN"
 "http://www.w3.org/Graphics/SVG/1.1/DTD/svg11.dtd">
<!-- Generated by graphviz version 3.0.0 (20220413.0106)
 -->
<!-- Title: SyntaxAnalyzer::syntaxIterSt Pages: 1 -->
<svg width="1585pt" height="1088pt"
 viewBox="0.00 0.00 1585.00 1087.73" xmlns="http://www.w3.org/2000/svg" xmlns:xlink="http://www.w3.org/1999/xlink">
<g id="graph0" class="graph" transform="scale(1 1) rotate(0) translate(4 1083.73)">
<title>SyntaxAnalyzer::syntaxIterSt</title>
<!-- Node1 -->
<g id="node1" class="node">
<title>Node1</title>
<g id="a_node1"><a xlink:title=" ">
<polygon fill="#bfbfbf" stroke="black" points="0,-788.5 0,-807.5 139,-807.5 139,-788.5 0,-788.5"/>
<text text-anchor="middle" x="69.5" y="-795.5" font-family="Helvetica,sans-Serif" font-size="10.00">SyntaxAnalyzer::syntaxIterSt</text>
</a>
</g>
</g>
<!-- Node2 -->
<g id="node2" class="node">
<title>Node2</title>
<g id="a_node2"><a xlink:href="../../d7/d7c/class_a_s_t_factory.html#a8d1d4c9d01ab2e366d1af6bbaeaf7bef" target="_top" xlink:title=" ">
<polygon fill="none" stroke="black" points="1274,-750.5 1274,-769.5 1393,-769.5 1393,-750.5 1274,-750.5"/>
<text text-anchor="middle" x="1333.5" y="-757.5" font-family="Helvetica,sans-Serif" font-size="10.00">ASTFactory::createAST</text>
</a>
</g>
</g>
<!-- Node1&#45;&gt;Node2 -->
<g id="edge1" class="edge">
<title>Node1&#45;&gt;Node2</title>
<path fill="none" stroke="midnightblue" d="M80.14,-807.68C119.75,-846.4 275.31,-988 432,-988 432,-988 432,-988 619,-988 899.93,-988 1020.8,-1038.18 1238,-860 1267.36,-835.91 1246.56,-806.51 1274.17,-776.79"/>
<polygon fill="midnightblue" stroke="midnightblue" points="1276.9,-779.03 1281.8,-769.63 1272.11,-773.92 1276.9,-779.03"/>
</g>
<!-- Node3 -->
<g id="node3" class="node">
<title>Node3</title>
<g id="a_node3"><a xlink:href="../../d0/d11/class_i_token.html#a3e73305ee0ac36d0bf5f26b649589b24" target="_top" xlink:title=" ">
<polygon fill="none" stroke="black" points="1451.5,-731.5 1451.5,-750.5 1554.5,-750.5 1554.5,-731.5 1451.5,-731.5"/>
<text text-anchor="middle" x="1503" y="-738.5" font-family="Helvetica,sans-Serif" font-size="10.00">IToken::getAdvType</text>
</a>
</g>
</g>
<!-- Node1&#45;&gt;Node3 -->
<g id="edge8" class="edge">
<title>Node1&#45;&gt;Node3</title>
<path fill="none" stroke="midnightblue" d="M71.29,-807.5C74.91,-844.64 93.54,-980.84 175,-1040 267.82,-1107.41 317.28,-1064 432,-1064 432,-1064 432,-1064 1164,-1064 1266.34,-1064 1319.79,-1111.51 1393,-1040 1482.75,-952.33 1346.08,-854.16 1429,-760 1432.68,-755.82 1437.15,-752.51 1442.04,-749.89"/>
<polygon fill="midnightblue" stroke="midnightblue" points="1443.47,-753.08 1451.24,-745.88 1440.67,-746.67 1443.47,-753.08"/>
</g>
<!-- Node4 -->
<g id="node4" class="node">
<title>Node4</title>
<g id="a_node4"><a xlink:href="../../d0/d11/class_i_token.html#ac7f0a800d7a9e8608bab0360c76d735a" target="_top" xlink:title="Получение типа токена">
<polygon fill="none" stroke="black" points="1460,-180.5 1460,-199.5 1546,-199.5 1546,-180.5 1460,-180.5"/>
<text text-anchor="middle" x="1503" y="-187.5" font-family="Helvetica,sans-Serif" font-size="10.00">IToken::getType</text>
</a>
</g>
</g>
<!-- Node1&#45;&gt;Node4 -->
<g id="edge10" class="edge">
<title>Node1&#45;&gt;Node4</title>
<path fill="none" stroke="midnightblue" d="M70.66,-788.45C72.08,-713.1 84.86,-214.18 175,-101 251.46,-5 309.27,0 432,0 432,0 432,0 1164,0 1304.63,0 1440.83,-126.53 1486.18,-173.08"/>
<polygon fill="midnightblue" stroke="midnightblue" points="1483.67,-175.52 1493.12,-180.32 1488.72,-170.68 1483.67,-175.52"/>
</g>
<!-- Node6 -->
<g id="node6" class="node">
<title>Node6</title>
<g id="a_node6"><a xlink:href="../../d0/dfe/class_syntax_analyzer.html#ae1d3434e5cc4b4bcd5a3a245814a44f0" target="_top" xlink:title=" ">
<polygon fill="none" stroke="black" points="1283,-313.5 1283,-332.5 1384,-332.5 1384,-313.5 1283,-313.5"/>
<text text-anchor="middle" x="1333.5" y="-320.5" font-family="Helvetica,sans-Serif" font-size="10.00">SyntaxAnalyzer::eat</text>
</a>
</g>
</g>
<!-- Node1&#45;&gt;Node6 -->
<g id="edge5" class="edge">
<title>Node1&#45;&gt;Node6</title>
<path fill="none" stroke="midnightblue" d="M70.65,-788.34C72.53,-702.66 97.67,-76 432,-76 432,-76 432,-76 981.5,-76 1097.32,-76 1146.11,-51.5 1238,-122 1298.13,-168.12 1321.63,-261.89 1329.3,-302.96"/>
<polygon fill="midnightblue" stroke="midnightblue" points="1325.9,-303.82 1331.07,-313.07 1332.8,-302.61 1325.9,-303.82"/>
</g>
<!-- Node7 -->
<g id="node7" class="node">
<title>Node7</title>
<g id="a_node7"><a xlink:href="../../d0/dfe/class_syntax_analyzer.html#a3ae6c7319e61cd669c417f189b098374" target="_top" xlink:title=" ">
<polygon fill="none" stroke="black" points="1437,-598.5 1437,-617.5 1569,-617.5 1569,-598.5 1437,-598.5"/>
<text text-anchor="middle" x="1503" y="-605.5" font-family="Helvetica,sans-Serif" font-size="10.00">SyntaxAnalyzer::getCurTok</text>
</a>
</g>
</g>
<!-- Node1&#45;&gt;Node7 -->
<g id="edge9" class="edge">
<title>Node1&#45;&gt;Node7</title>
<path fill="none" stroke="midnightblue" d="M74.87,-807.59C86.98,-833.16 123.55,-903.52 175,-941 272.24,-1011.84 311.69,-1026 432,-1026 432,-1026 432,-1026 1164,-1026 1286.65,-1026 1323.02,-972.73 1393,-872 1432.12,-815.69 1402.14,-785.08 1429,-722 1444.62,-685.32 1471.59,-647.2 1488.01,-625.65"/>
<polygon fill="midnightblue" stroke="midnightblue" points="1490.79,-627.78 1494.14,-617.73 1485.25,-623.5 1490.79,-627.78"/>
</g>
<!-- Node9 -->
<g id="node9" class="node">
<title>Node9</title>
<g id="a_node9"><a xlink:href="../../d0/dfe/class_syntax_analyzer.html#a31fc5887c158652feb946f89270b4b36" target="_top" xlink:title=" ">
<polygon fill="none" stroke="black" points="175,-788.5 175,-807.5 330,-807.5 330,-788.5 175,-788.5"/>
<text text-anchor="middle" x="252.5" y="-795.5" font-family="Helvetica,sans-Serif" font-size="10.00">SyntaxAnalyzer::syntaxAssignSt</text>
</a>
</g>
</g>
<!-- Node1&#45;&gt;Node9 -->
<g id="edge11" class="edge">
<title>Node1&#45;&gt;Node9</title>
<path fill="none" stroke="midnightblue" d="M139.19,-798C147.6,-798 156.27,-798 164.9,-798"/>
<polygon fill="midnightblue" stroke="midnightblue" points="164.99,-801.5 174.99,-798 164.99,-794.5 164.99,-801.5"/>
</g>
<!-- Node14 -->
<g id="node14" class="node">
<title>Node14</title>
<g id="a_node14"><a xlink:href="../../d0/dfe/class_syntax_analyzer.html#a3af9b5161a2cef6fdd26b0bb60334ac4" target="_top" xlink:title=" ">
<polygon fill="none" stroke="black" points="909,-532.5 909,-551.5 1052,-551.5 1052,-532.5 909,-532.5"/>
<text text-anchor="middle" x="980.5" y="-539.5" font-family="Helvetica,sans-Serif" font-size="10.00">SyntaxAnalyzer::syntaxFactor</text>
</a>
</g>
</g>
<!-- Node1&#45;&gt;Node14 -->
<g id="edge56" class="edge">
<title>Node1&#45;&gt;Node14</title>
<path fill="none" stroke="midnightblue" d="M82.83,-788.49C127.24,-755.22 284.26,-646 432,-646 432,-646 432,-646 619,-646 747.34,-646 891.68,-584.39 951.36,-556.01"/>
<polygon fill="midnightblue" stroke="midnightblue" points="953.03,-559.09 960.52,-551.6 949.99,-552.78 953.03,-559.09"/>
</g>
<!-- Node2&#45;&gt;Node3 -->
<g id="edge2" class="edge">
<title>Node2&#45;&gt;Node3</title>
<path fill="none" stroke="midnightblue" d="M1393.08,-753.35C1408.64,-751.59 1425.47,-749.68 1441.14,-747.9"/>
<polygon fill="midnightblue" stroke="midnightblue" points="1441.71,-751.36 1451.25,-746.76 1440.92,-744.41 1441.71,-751.36"/>
</g>
<!-- Node2&#45;&gt;Node4 -->
<g id="edge3" class="edge">
<title>Node2&#45;&gt;Node4</title>
<path fill="none" stroke="midnightblue" d="M1336.84,-750.14C1351.39,-688.69 1429,-361 1429,-361 1447.68,-304.25 1477.51,-240.18 1492.6,-209.04"/>
<polygon fill="midnightblue" stroke="midnightblue" points="1495.87,-210.31 1497.11,-199.79 1489.58,-207.24 1495.87,-210.31"/>
</g>
<!-- Node5 -->
<g id="node5" class="node">
<title>Node5</title>
<g id="a_node5"><a xlink:href="../../db/dc1/class_token.html#a1f07fa2fffeb2f7ab803ef8b424eae8a" target="_top" xlink:title=" ">
<polygon fill="none" stroke="black" points="1466,-769.5 1466,-788.5 1540,-788.5 1540,-769.5 1466,-769.5"/>
<text text-anchor="middle" x="1503" y="-776.5" font-family="Helvetica,sans-Serif" font-size="10.00">Token::setStr</text>
</a>
</g>
</g>
<!-- Node2&#45;&gt;Node5 -->
<g id="edge4" class="edge">
<title>Node2&#45;&gt;Node5</title>
<path fill="none" stroke="midnightblue" d="M1393.08,-766.65C1413.56,-768.97 1436.24,-771.54 1455.58,-773.73"/>
<polygon fill="midnightblue" stroke="midnightblue" points="1455.32,-777.23 1465.65,-774.88 1456.11,-770.27 1455.32,-777.23"/>
</g>
<!-- Node6&#45;&gt;Node7 -->
<g id="edge6" class="edge">
<title>Node6&#45;&gt;Node7</title>
<path fill="none" stroke="midnightblue" d="M1343.04,-332.91C1355,-347.04 1377.05,-374.02 1393,-399 1435.68,-465.83 1476.2,-551.24 1493.38,-588.81"/>
<polygon fill="midnightblue" stroke="midnightblue" points="1490.27,-590.42 1497.59,-598.08 1496.64,-587.53 1490.27,-590.42"/>
</g>
<!-- Node8 -->
<g id="node8" class="node">
<title>Node8</title>
<g id="a_node8"><a xlink:href="../../d0/dfe/class_syntax_analyzer.html#a9e41370d8d74fbd2e77648d2071e7dfe" target="_top" xlink:title=" ">
<polygon fill="none" stroke="black" points="1429,-370.5 1429,-389.5 1577,-389.5 1577,-370.5 1429,-370.5"/>
<text text-anchor="middle" x="1503" y="-377.5" font-family="Helvetica,sans-Serif" font-size="10.00">SyntaxAnalyzer::getNextToken</text>
</a>
</g>
</g>
<!-- Node6&#45;&gt;Node8 -->
<g id="edge7" class="edge">
<title>Node6&#45;&gt;Node8</title>
<path fill="none" stroke="midnightblue" d="M1362.54,-332.54C1390.44,-342.03 1433.43,-356.67 1464.31,-367.17"/>
<polygon fill="midnightblue" stroke="midnightblue" points="1463.28,-370.52 1473.87,-370.43 1465.53,-363.89 1463.28,-370.52"/>
</g>
<!-- Node9&#45;&gt;Node2 -->
<g id="edge12" class="edge">
<title>Node9&#45;&gt;Node2</title>
<path fill="none" stroke="midnightblue" d="M280.46,-807.63C340.22,-828.08 488.7,-874 617,-874 617,-874 617,-874 981.5,-874 1097.65,-874 1130.75,-868.58 1238,-824 1266.46,-812.17 1295.22,-791.09 1313.41,-776.37"/>
<polygon fill="midnightblue" stroke="midnightblue" points="1315.98,-778.79 1321.45,-769.72 1311.51,-773.4 1315.98,-778.79"/>
</g>
<!-- Node9&#45;&gt;Node6 -->
<g id="edge13" class="edge">
<title>Node9&#45;&gt;Node6</title>
<path fill="none" stroke="midnightblue" d="M253.89,-788.33C257.81,-705.19 296.94,-114 617,-114 617,-114 617,-114 805.5,-114 1000.9,-114 1072.59,-88.97 1238,-193 1281.12,-220.12 1310.8,-274.68 1324.28,-303.75"/>
<polygon fill="midnightblue" stroke="midnightblue" points="1321.23,-305.5 1328.51,-313.2 1327.62,-302.65 1321.23,-305.5"/>
</g>
<!-- Node9&#45;&gt;Node7 -->
<g id="edge14" class="edge">
<title>Node9&#45;&gt;Node7</title>
<path fill="none" stroke="midnightblue" d="M266.17,-807.66C286.17,-822.35 326.83,-849.97 366,-863 733.93,-985.39 859.77,-976.41 1238,-891 1309.9,-874.76 1342.13,-885.34 1393,-832 1428.5,-794.77 1406.95,-768.48 1429,-722 1446.1,-685.96 1472.62,-647.59 1488.55,-625.83"/>
<polygon fill="midnightblue" stroke="midnightblue" points="1491.52,-627.69 1494.67,-617.57 1485.9,-623.52 1491.52,-627.69"/>
</g>
<!-- Node10 -->
<g id="node10" class="node">
<title>Node10</title>
<g id="a_node10"><a xlink:href="../../d0/dfe/class_syntax_analyzer.html#ae8d09db1b25ec882248aeed978c13a4d" target="_top" xlink:title=" ">
<polygon fill="none" stroke="black" points="366,-712.5 366,-731.5 500,-731.5 500,-712.5 366,-712.5"/>
<text text-anchor="middle" x="433" y="-719.5" font-family="Helvetica,sans-Serif" font-size="10.00">SyntaxAnalyzer::syntaxExpr</text>
</a>
</g>
</g>
<!-- Node9&#45;&gt;Node10 -->
<g id="edge15" class="edge">
<title>Node9&#45;&gt;Node10</title>
<path fill="none" stroke="midnightblue" d="M276.11,-788.37C307.49,-775.01 364.42,-750.77 400.11,-735.58"/>
<polygon fill="midnightblue" stroke="midnightblue" points="401.75,-738.69 409.58,-731.55 399,-732.24 401.75,-738.69"/>
</g>
<!-- Node19 -->
<g id="node19" class="node">
<title>Node19</title>
<g id="a_node19"><a xlink:href="../../d0/dfe/class_syntax_analyzer.html#a94c8a6ab5c0e53cae22edb1a840a27ce" target="_top" xlink:title=" ">
<polygon fill="none" stroke="black" points="1088,-674.5 1088,-693.5 1238,-693.5 1238,-674.5 1088,-674.5"/>
<text text-anchor="middle" x="1163" y="-681.5" font-family="Helvetica,sans-Serif" font-size="10.00">SyntaxAnalyzer::syntaxVariable</text>
</a>
</g>
</g>
<!-- Node9&#45;&gt;Node19 -->
<g id="edge55" class="edge">
<title>Node9&#45;&gt;Node19</title>
<path fill="none" stroke="midnightblue" d="M330.09,-798C403.65,-798 517.92,-798 617,-798 617,-798 617,-798 805.5,-798 934.8,-798 1078.49,-729.12 1136.07,-698.44"/>
<polygon fill="midnightblue" stroke="midnightblue" points="1138.05,-701.36 1145.18,-693.52 1134.72,-695.2 1138.05,-701.36"/>
</g>
<!-- Node10&#45;&gt;Node2 -->
<g id="edge16" class="edge">
<title>Node10&#45;&gt;Node2</title>
<path fill="none" stroke="midnightblue" d="M451.48,-731.52C503.44,-758.92 662.18,-836 803.5,-836 803.5,-836 803.5,-836 981.5,-836 1099.03,-836 1233.79,-794.79 1296.68,-773.06"/>
<polygon fill="midnightblue" stroke="midnightblue" points="1298.22,-776.23 1306.5,-769.63 1295.9,-769.63 1298.22,-776.23"/>
</g>
<!-- Node10&#45;&gt;Node4 -->
<g id="edge19" class="edge">
<title>Node10&#45;&gt;Node4</title>
<path fill="none" stroke="midnightblue" d="M434.28,-712.48C436.43,-646.81 452.52,-261.68 536,-190 673.69,-71.78 1268.98,-153.45 1449.75,-181.52"/>
<polygon fill="midnightblue" stroke="midnightblue" points="1449.38,-185.01 1459.8,-183.1 1450.46,-178.09 1449.38,-185.01"/>
</g>
<!-- Node10&#45;&gt;Node6 -->
<g id="edge17" class="edge">
<title>Node10&#45;&gt;Node6</title>
<path fill="none" stroke="midnightblue" d="M434.99,-712.13C441.06,-653.22 475.13,-348.33 536,-281 620.22,-187.85 677.92,-190 803.5,-190 803.5,-190 803.5,-190 981.5,-190 1098.58,-190 1132.26,-199.73 1238,-250 1268.2,-264.36 1297.86,-289.6 1315.67,-306.32"/>
<polygon fill="midnightblue" stroke="midnightblue" points="1313.34,-308.93 1322.98,-313.32 1318.18,-303.88 1313.34,-308.93"/>
</g>
<!-- Node10&#45;&gt;Node7 -->
<g id="edge18" class="edge">
<title>Node10&#45;&gt;Node7</title>
<path fill="none" stroke="midnightblue" d="M441.83,-731.69C457.56,-750.42 494.99,-791.58 536,-812 743.51,-915.32 820.84,-905.3 1052,-888 1210.67,-876.12 1275.99,-886.82 1393,-779 1415.04,-758.7 1412.92,-747.28 1429,-722 1450.52,-688.16 1475.78,-648.79 1490.24,-626.29"/>
<polygon fill="midnightblue" stroke="midnightblue" points="1493.27,-628.05 1495.73,-617.75 1487.38,-624.27 1493.27,-628.05"/>
</g>
<!-- Node11 -->
<g id="node11" class="node">
<title>Node11</title>
<g id="a_node11"><a xlink:href="../../db/d0e/sup_8hpp.html#ae7d62ca130413d4c96863327c1af81a4" target="_top" xlink:title="Возвращает истину, если value находится среди значений cont.">
<polygon fill="none" stroke="black" points="964.5,-256.5 964.5,-275.5 996.5,-275.5 996.5,-256.5 964.5,-256.5"/>
<text text-anchor="middle" x="980.5" y="-263.5" font-family="Helvetica,sans-Serif" font-size="10.00">isIn</text>
</a>
</g>
</g>
<!-- Node10&#45;&gt;Node11 -->
<g id="edge20" class="edge">
<title>Node10&#45;&gt;Node11</title>
<path fill="none" stroke="midnightblue" d="M434.17,-712.26C435.43,-668.28 446.11,-485.75 536,-380 644.95,-251.83 876.78,-257.66 953.93,-263.53"/>
<polygon fill="midnightblue" stroke="midnightblue" points="953.9,-267.04 964.16,-264.38 954.48,-260.07 953.9,-267.04"/>
</g>
<!-- Node12 -->
<g id="node12" class="node">
<title>Node12</title>
<g id="a_node12"><a xlink:href="../../d0/dfe/class_syntax_analyzer.html#a3dfb6634a4bcdc61da5b1bafd1f3d136" target="_top" xlink:title=" ">
<polygon fill="none" stroke="black" points="536,-389.5 536,-408.5 700,-408.5 700,-389.5 536,-389.5"/>
<text text-anchor="middle" x="618" y="-396.5" font-family="Helvetica,sans-Serif" font-size="10.00">SyntaxAnalyzer::syntaxSimpleExpr</text>
</a>
</g>
</g>
<!-- Node10&#45;&gt;Node12 -->
<g id="edge21" class="edge">
<title>Node10&#45;&gt;Node12</title>
<path fill="none" stroke="midnightblue" d="M439.48,-712.33C465,-667.29 572.44,-477.66 606.55,-417.44"/>
<polygon fill="midnightblue" stroke="midnightblue" points="609.66,-419.05 611.54,-408.63 603.57,-415.6 609.66,-419.05"/>
</g>
<!-- Node12&#45;&gt;Node2 -->
<g id="edge22" class="edge">
<title>Node12&#45;&gt;Node2</title>
<path fill="none" stroke="midnightblue" d="M621.43,-408.51C630.52,-442.35 665.73,-558.26 736,-622 861.07,-735.46 922.27,-732.62 1088,-765 1146.35,-776.4 1214.03,-773.83 1263.37,-769.17"/>
<polygon fill="midnightblue" stroke="midnightblue" points="1264,-772.62 1273.61,-768.14 1263.31,-765.65 1264,-772.62"/>
</g>
<!-- Node12&#45;&gt;Node4 -->
<g id="edge25" class="edge">
<title>Node12&#45;&gt;Node4</title>
<path fill="none" stroke="midnightblue" d="M651.49,-389.4C704.98,-373.72 815.04,-341.95 909,-318 972.2,-301.89 991.86,-310.26 1052,-285 1069.51,-277.65 1070.52,-269.4 1088,-262 1166.23,-228.89 1190.38,-232.98 1274,-218 1333.85,-207.28 1403.29,-199.4 1449.66,-194.77"/>
<polygon fill="midnightblue" stroke="midnightblue" points="1450.16,-198.24 1459.77,-193.78 1449.48,-191.28 1450.16,-198.24"/>
</g>
<!-- Node12&#45;&gt;Node6 -->
<g id="edge23" class="edge">
<title>Node12&#45;&gt;Node6</title>
<path fill="none" stroke="midnightblue" d="M625.63,-389.34C641.68,-366.76 685.1,-310.35 736,-283 805.18,-245.82 830.88,-255.04 909,-247 972.22,-240.49 989,-238.62 1052,-247 1141.98,-258.97 1244.02,-291.65 1296.73,-310.02"/>
<polygon fill="midnightblue" stroke="midnightblue" points="1295.7,-313.37 1306.29,-313.38 1298.02,-306.76 1295.7,-313.37"/>
</g>
<!-- Node12&#45;&gt;Node7 -->
<g id="edge24" class="edge">
<title>Node12&#45;&gt;Node7</title>
<path fill="none" stroke="midnightblue" d="M631.54,-408.7C670.49,-438.39 793.72,-529.07 909,-579 1044.6,-637.73 1090.33,-632.31 1238,-627 1301.72,-624.71 1373.92,-619.32 1426.69,-614.86"/>
<polygon fill="midnightblue" stroke="midnightblue" points="1427.31,-618.32 1436.97,-613.99 1426.71,-611.35 1427.31,-618.32"/>
</g>
<!-- Node12&#45;&gt;Node11 -->
<g id="edge26" class="edge">
<title>Node12&#45;&gt;Node11</title>
<path fill="none" stroke="midnightblue" d="M631.99,-389.33C652.88,-374.2 695.69,-344.92 736,-328 812.36,-295.95 909.38,-277.34 954.42,-269.86"/>
<polygon fill="midnightblue" stroke="midnightblue" points="955.15,-273.29 964.46,-268.24 954.03,-266.38 955.15,-273.29"/>
</g>
<!-- Node13 -->
<g id="node13" class="node">
<title>Node13</title>
<g id="a_node13"><a xlink:href="../../d0/dfe/class_syntax_analyzer.html#a1e9b913cc8c2861927d7c05d10f1822d" target="_top" xlink:title=" ">
<polygon fill="none" stroke="black" points="736,-389.5 736,-408.5 873,-408.5 873,-389.5 736,-389.5"/>
<text text-anchor="middle" x="804.5" y="-396.5" font-family="Helvetica,sans-Serif" font-size="10.00">SyntaxAnalyzer::syntaxTerm</text>
</a>
</g>
</g>
<!-- Node12&#45;&gt;Node13 -->
<g id="edge27" class="edge">
<title>Node12&#45;&gt;Node13</title>
<path fill="none" stroke="midnightblue" d="M700.19,-399C708.65,-399 717.23,-399 725.64,-399"/>
<polygon fill="midnightblue" stroke="midnightblue" points="725.81,-402.5 735.81,-399 725.81,-395.5 725.81,-402.5"/>
</g>
<!-- Node13&#45;&gt;Node2 -->
<g id="edge28" class="edge">
<title>Node13&#45;&gt;Node2</title>
<path fill="none" stroke="midnightblue" d="M809.5,-408.83C821.45,-437.4 859.17,-522.01 909,-579 961.78,-639.36 995.36,-632.24 1052,-689 1070.59,-707.62 1065,-723.21 1088,-736 1141.64,-765.83 1212.24,-769.71 1263.77,-767.38"/>
<polygon fill="midnightblue" stroke="midnightblue" points="1264.02,-770.87 1273.82,-766.84 1263.64,-763.88 1264.02,-770.87"/>
</g>
<!-- Node13&#45;&gt;Node4 -->
<g id="edge31" class="edge">
<title>Node13&#45;&gt;Node4</title>
<path fill="none" stroke="midnightblue" d="M826.2,-389.43C846.87,-380.11 879.7,-365.93 909,-356 971.28,-334.89 988.77,-336.06 1052,-318 1068.09,-313.41 1071.95,-311.72 1088,-307 1222.24,-267.53 1381.71,-223.17 1457.6,-202.22"/>
<polygon fill="midnightblue" stroke="midnightblue" points="1458.6,-205.57 1467.31,-199.54 1456.74,-198.82 1458.6,-205.57"/>
</g>
<!-- Node13&#45;&gt;Node6 -->
<g id="edge29" class="edge">
<title>Node13&#45;&gt;Node6</title>
<path fill="none" stroke="midnightblue" d="M873.18,-396.03C924.2,-391.73 994.9,-381.29 1052,-356 1070.53,-347.79 1068.9,-334.77 1088,-328 1148.09,-306.7 1221.8,-308.66 1272.49,-313.93"/>
<polygon fill="midnightblue" stroke="midnightblue" points="1272.3,-317.43 1282.62,-315.06 1273.07,-310.47 1272.3,-317.43"/>
</g>
<!-- Node13&#45;&gt;Node7 -->
<g id="edge30" class="edge">
<title>Node13&#45;&gt;Node7</title>
<path fill="none" stroke="midnightblue" d="M873.18,-401.53C1008.06,-407.58 1304.97,-426.17 1393,-475 1441.32,-501.8 1476.74,-559.37 1492.66,-589.2"/>
<polygon fill="midnightblue" stroke="midnightblue" points="1489.6,-590.9 1497.3,-598.18 1495.82,-587.69 1489.6,-590.9"/>
</g>
<!-- Node13&#45;&gt;Node11 -->
<g id="edge32" class="edge">
<title>Node13&#45;&gt;Node11</title>
<path fill="none" stroke="midnightblue" d="M818.01,-389.43C847.59,-366.83 922.07,-309.9 958.61,-281.96"/>
<polygon fill="midnightblue" stroke="midnightblue" points="960.81,-284.69 966.63,-275.84 956.56,-279.13 960.81,-284.69"/>
</g>
<!-- Node13&#45;&gt;Node14 -->
<g id="edge33" class="edge">
<title>Node13&#45;&gt;Node14</title>
<path fill="none" stroke="midnightblue" d="M817.19,-408.6C846.53,-432.72 923.57,-496.03 959.94,-525.93"/>
<polygon fill="midnightblue" stroke="midnightblue" points="957.92,-528.79 967.86,-532.44 962.36,-523.38 957.92,-528.79"/>
</g>
<!-- Node14&#45;&gt;Node2 -->
<g id="edge34" class="edge">
<title>Node14&#45;&gt;Node2</title>
<path fill="none" stroke="midnightblue" d="M1000.24,-551.51C1016.12,-560.46 1038.43,-575.28 1052,-594 1081.94,-635.31 1050.34,-668.58 1088,-703 1101.43,-715.27 1201.3,-735.77 1269.18,-748.56"/>
<polygon fill="midnightblue" stroke="midnightblue" points="1268.89,-752.06 1279.36,-750.46 1270.18,-745.18 1268.89,-752.06"/>
</g>
<!-- Node14&#45;&gt;Node3 -->
<g id="edge39" class="edge">
<title>Node14&#45;&gt;Node3</title>
<path fill="none" stroke="midnightblue" d="M1047.72,-551.52C1111.73,-561.18 1203.89,-576.48 1238,-589 1334.87,-624.56 1437.44,-694.22 1480.75,-725.33"/>
<polygon fill="midnightblue" stroke="midnightblue" points="1478.91,-728.33 1489.06,-731.36 1483.02,-722.66 1478.91,-728.33"/>
</g>
<!-- Node14&#45;&gt;Node4 -->
<g id="edge41" class="edge">
<title>Node14&#45;&gt;Node4</title>
<path fill="none" stroke="midnightblue" d="M988.03,-532.46C1003.1,-511.18 1042.52,-459.53 1088,-432 1208.91,-358.82 1277.79,-423.87 1393,-342 1442.92,-306.53 1478.44,-240.83 1493.69,-208.69"/>
<polygon fill="midnightblue" stroke="midnightblue" points="1496.91,-210.06 1497.92,-199.51 1490.56,-207.13 1496.91,-210.06"/>
</g>
<!-- Node14&#45;&gt;Node6 -->
<g id="edge35" class="edge">
<title>Node14&#45;&gt;Node6</title>
<path fill="none" stroke="midnightblue" d="M986.28,-532.39C999.17,-507.44 1037.14,-440.06 1088,-404 1143.86,-364.4 1220.38,-343.19 1272.85,-332.54"/>
<polygon fill="midnightblue" stroke="midnightblue" points="1273.54,-335.97 1282.68,-330.61 1272.2,-329.1 1273.54,-335.97"/>
</g>
<!-- Node14&#45;&gt;Node7 -->
<g id="edge40" class="edge">
<title>Node14&#45;&gt;Node7</title>
<path fill="none" stroke="midnightblue" d="M1052.23,-543.2C1103.88,-544.72 1175.49,-548.18 1238,-556 1313.55,-565.46 1399.92,-583.95 1452.7,-596.14"/>
<polygon fill="midnightblue" stroke="midnightblue" points="1451.94,-599.56 1462.47,-598.42 1453.53,-592.74 1451.94,-599.56"/>
</g>
<!-- Node14&#45;&gt;Node10 -->
<g id="edge49" class="edge">
<title>Node14&#45;&gt;Node10</title>
<path fill="none" stroke="midnightblue" d="M974.06,-551.7C960.45,-574.92 922.47,-633.71 873,-660 757.37,-721.45 601.55,-728.61 510.02,-726.49"/>
<polygon fill="midnightblue" stroke="midnightblue" points="510.1,-722.99 500.01,-726.22 509.91,-729.99 510.1,-722.99"/>
</g>
<!-- Node14&#45;&gt;Node14 -->
<g id="edge50" class="edge">
<title>Node14&#45;&gt;Node14</title>
<path fill="none" stroke="midnightblue" d="M953.37,-551.76C940.18,-560.57 949.22,-570 980.5,-570 1002.01,-570 1013,-565.54 1013.48,-559.89"/>
<polygon fill="midnightblue" stroke="midnightblue" points="1016.31,-557.83 1007.63,-551.76 1010.63,-561.92 1016.31,-557.83"/>
</g>
<!-- Node15 -->
<g id="node15" class="node">
<title>Node15</title>
<g id="a_node15"><a xlink:href="../../d0/dfe/class_syntax_analyzer.html#a9952c4a2db0a1382b9c94f40dd535fae" target="_top" xlink:title=" ">
<polygon fill="none" stroke="black" points="1274.5,-408.5 1274.5,-427.5 1392.5,-427.5 1392.5,-408.5 1274.5,-408.5"/>
<text text-anchor="middle" x="1333.5" y="-415.5" font-family="Helvetica,sans-Serif" font-size="10.00">SyntaxAnalyzer::eatAdv</text>
</a>
</g>
</g>
<!-- Node14&#45;&gt;Node15 -->
<g id="edge36" class="edge">
<title>Node14&#45;&gt;Node15</title>
<path fill="none" stroke="midnightblue" d="M993.85,-532.28C1012.96,-517.71 1051.31,-490.31 1088,-475 1145.11,-451.17 1214.07,-436.24 1264.18,-427.67"/>
<polygon fill="midnightblue" stroke="midnightblue" points="1264.97,-431.09 1274.25,-425.99 1263.81,-424.18 1264.97,-431.09"/>
</g>
<!-- Node16 -->
<g id="node16" class="node">
<title>Node16</title>
<g id="a_node16"><a xlink:href="../../d0/dfe/class_syntax_analyzer.html#af0905389742c4f842207bb2c073afbfa" target="_top" xlink:title=" ">
<polygon fill="none" stroke="black" points="1094.5,-484.5 1094.5,-503.5 1231.5,-503.5 1231.5,-484.5 1094.5,-484.5"/>
<text text-anchor="middle" x="1163" y="-491.5" font-family="Helvetica,sans-Serif" font-size="10.00">SyntaxAnalyzer::lookFoward</text>
</a>
</g>
</g>
<!-- Node14&#45;&gt;Node16 -->
<g id="edge42" class="edge">
<title>Node14&#45;&gt;Node16</title>
<path fill="none" stroke="midnightblue" d="M1017.59,-532.4C1045.88,-524.88 1085.42,-514.36 1115.98,-506.24"/>
<polygon fill="midnightblue" stroke="midnightblue" points="1117.2,-509.53 1125.97,-503.58 1115.41,-502.77 1117.2,-509.53"/>
</g>
<!-- Node18 -->
<g id="node18" class="node">
<title>Node18</title>
<g id="a_node18"><a xlink:href="../../d0/dfe/class_syntax_analyzer.html#a2db43946bee3e973ce1cf293b262e271" target="_top" xlink:title=" ">
<polygon fill="none" stroke="black" points="1092.5,-598.5 1092.5,-617.5 1233.5,-617.5 1233.5,-598.5 1092.5,-598.5"/>
<text text-anchor="middle" x="1163" y="-605.5" font-family="Helvetica,sans-Serif" font-size="10.00">SyntaxAnalyzer::syntaxCallSt</text>
</a>
</g>
</g>
<!-- Node14&#45;&gt;Node18 -->
<g id="edge44" class="edge">
<title>Node14&#45;&gt;Node18</title>
<path fill="none" stroke="midnightblue" d="M1004.61,-551.59C1026.08,-560.39 1059,-573.59 1088,-584 1098.8,-587.88 1110.59,-591.83 1121.51,-595.37"/>
<polygon fill="midnightblue" stroke="midnightblue" points="1120.66,-598.77 1131.25,-598.5 1122.8,-592.11 1120.66,-598.77"/>
</g>
<!-- Node14&#45;&gt;Node19 -->
<g id="edge51" class="edge">
<title>Node14&#45;&gt;Node19</title>
<path fill="none" stroke="midnightblue" d="M995.34,-551.55C1009.8,-561.68 1032.98,-578.34 1052,-594 1068.76,-607.79 1071.39,-613.03 1088,-627 1105.33,-641.57 1125.76,-657.2 1140.76,-668.4"/>
<polygon fill="midnightblue" stroke="midnightblue" points="1138.79,-671.29 1148.9,-674.44 1142.96,-665.67 1138.79,-671.29"/>
</g>
<!-- Node15&#45;&gt;Node7 -->
<g id="edge37" class="edge">
<title>Node15&#45;&gt;Node7</title>
<path fill="none" stroke="midnightblue" d="M1367.38,-427.5C1376.3,-431.1 1385.55,-435.85 1393,-442 1443.62,-483.74 1479.22,-555.16 1494.15,-589.07"/>
<polygon fill="midnightblue" stroke="midnightblue" points="1490.96,-590.5 1498.12,-598.31 1497.39,-587.74 1490.96,-590.5"/>
</g>
<!-- Node15&#45;&gt;Node8 -->
<g id="edge38" class="edge">
<title>Node15&#45;&gt;Node8</title>
<path fill="none" stroke="midnightblue" d="M1376.77,-408.41C1399.07,-403.35 1426.62,-397.1 1450.2,-391.75"/>
<polygon fill="midnightblue" stroke="midnightblue" points="1451.06,-395.15 1460.04,-389.52 1449.51,-388.32 1451.06,-395.15"/>
</g>
<!-- Node17 -->
<g id="node17" class="node">
<title>Node17</title>
<g id="a_node17"><a xlink:href="../../d1/d34/class_list.html#a49c179636e084dfbf7a52acd46acaf01" target="_top" xlink:title=" ">
<polygon fill="none" stroke="black" points="1306,-484.5 1306,-503.5 1361,-503.5 1361,-484.5 1306,-484.5"/>
<text text-anchor="middle" x="1333.5" y="-491.5" font-family="Helvetica,sans-Serif" font-size="10.00">List::size</text>
</a>
</g>
</g>
<!-- Node16&#45;&gt;Node17 -->
<g id="edge43" class="edge">
<title>Node16&#45;&gt;Node17</title>
<path fill="none" stroke="midnightblue" d="M1231.56,-494C1253.4,-494 1276.8,-494 1295.56,-494"/>
<polygon fill="midnightblue" stroke="midnightblue" points="1295.75,-497.5 1305.75,-494 1295.75,-490.5 1295.75,-497.5"/>
</g>
<!-- Node18&#45;&gt;Node2 -->
<g id="edge45" class="edge">
<title>Node18&#45;&gt;Node2</title>
<path fill="none" stroke="midnightblue" d="M1177.52,-617.58C1192.68,-628.52 1217.8,-647.21 1238,-665 1267.17,-690.7 1298.53,-723.33 1316.79,-742.89"/>
<polygon fill="midnightblue" stroke="midnightblue" points="1314.4,-745.46 1323.77,-750.42 1319.53,-740.7 1314.4,-745.46"/>
</g>
<!-- Node18&#45;&gt;Node6 -->
<g id="edge46" class="edge">
<title>Node18&#45;&gt;Node6</title>
<path fill="none" stroke="midnightblue" d="M1173.52,-598.3C1189.04,-581.97 1219.91,-547.42 1238,-513 1262.72,-465.97 1249.42,-446.11 1274,-399 1285.46,-377.04 1303.36,-354.93 1316.35,-340.26"/>
<polygon fill="midnightblue" stroke="midnightblue" points="1319.22,-342.31 1323.34,-332.55 1314.03,-337.61 1319.22,-342.31"/>
</g>
<!-- Node18&#45;&gt;Node7 -->
<g id="edge47" class="edge">
<title>Node18&#45;&gt;Node7</title>
<path fill="none" stroke="midnightblue" d="M1233.62,-608C1289.87,-608 1368.88,-608 1426.61,-608"/>
<polygon fill="midnightblue" stroke="midnightblue" points="1426.77,-611.5 1436.77,-608 1426.77,-604.5 1426.77,-611.5"/>
</g>
<!-- Node18&#45;&gt;Node10 -->
<g id="edge48" class="edge">
<title>Node18&#45;&gt;Node10</title>
<path fill="none" stroke="midnightblue" d="M1137.99,-617.51C1070.43,-643.64 872.37,-715.81 700,-735 627.56,-743.06 608.74,-739.62 536,-735 527.26,-734.45 518.13,-733.63 509.07,-732.66"/>
<polygon fill="midnightblue" stroke="midnightblue" points="509.23,-729.16 498.91,-731.52 508.45,-736.12 509.23,-729.16"/>
</g>
<!-- Node19&#45;&gt;Node2 -->
<g id="edge52" class="edge">
<title>Node19&#45;&gt;Node2</title>
<path fill="none" stroke="midnightblue" d="M1198.02,-693.55C1210.76,-697.51 1225.23,-702.48 1238,-708 1262.85,-718.75 1289.77,-733.94 1308.5,-745.13"/>
<polygon fill="midnightblue" stroke="midnightblue" points="1306.87,-748.24 1317.24,-750.42 1310.49,-742.25 1306.87,-748.24"/>
</g>
<!-- Node19&#45;&gt;Node6 -->
<g id="edge53" class="edge">
<title>Node19&#45;&gt;Node6</title>
<path fill="none" stroke="midnightblue" d="M1183.48,-674.48C1200.75,-664.95 1225.17,-648.62 1238,-627 1290.35,-538.77 1233.45,-493.24 1274,-399 1283.68,-376.5 1301.56,-354.76 1315.01,-340.34"/>
<polygon fill="midnightblue" stroke="midnightblue" points="1317.91,-342.37 1322.33,-332.74 1312.87,-337.52 1317.91,-342.37"/>
</g>
<!-- Node19&#45;&gt;Node7 -->
<g id="edge54" class="edge">
<title>Node19&#45;&gt;Node7</title>
<path fill="none" stroke="midnightblue" d="M1224.65,-674.45C1271.03,-666.71 1336.42,-654.83 1393,-641 1416.77,-635.19 1443.03,-627.28 1463.82,-620.67"/>
<polygon fill="midnightblue" stroke="midnightblue" points="1465.1,-623.93 1473.55,-617.54 1462.96,-617.27 1465.1,-623.93"/>
</g>
</g>
</svg>
