<?xml version="1.0" encoding="UTF-8" standalone="no"?>
<!DOCTYPE svg PUBLIC "-//W3C//DTD SVG 1.1//EN"
 "http://www.w3.org/Graphics/SVG/1.1/DTD/svg11.dtd">
<!-- Generated by graphviz version 3.0.0 (20220413.0106)
 -->
<!-- Title: SyntaxAnalyzer::syntaxProgram Pages: 1 -->
<svg width="2353pt" height="2035pt"
 viewBox="0.00 0.00 2353.00 2034.68" xmlns="http://www.w3.org/2000/svg" xmlns:xlink="http://www.w3.org/1999/xlink">
<g id="graph0" class="graph" transform="scale(1 1) rotate(0) translate(4 2030.68)">
<title>SyntaxAnalyzer::syntaxProgram</title>
<!-- Node1 -->
<g id="node1" class="node">
<title>Node1</title>
<g id="a_node1"><a xlink:title=" ">
<polygon fill="#bfbfbf" stroke="black" points="0,-1096.47 0,-1115.47 152,-1115.47 152,-1096.47 0,-1096.47"/>
<text text-anchor="middle" x="76" y="-1103.47" font-family="Helvetica,sans-Serif" font-size="10.00">SyntaxAnalyzer::syntaxProgram</text>
</a>
</g>
</g>
<!-- Node2 -->
<g id="node2" class="node">
<title>Node2</title>
<g id="a_node2"><a xlink:href="../../d7/d7c/class_a_s_t_factory.html#a8d1d4c9d01ab2e366d1af6bbaeaf7bef" target="_top" xlink:title=" ">
<polygon fill="none" stroke="black" points="2042,-1702.47 2042,-1721.47 2161,-1721.47 2161,-1702.47 2042,-1702.47"/>
<text text-anchor="middle" x="2101.5" y="-1709.47" font-family="Helvetica,sans-Serif" font-size="10.00">ASTFactory::createAST</text>
</a>
</g>
</g>
<!-- Node1&#45;&gt;Node2 -->
<g id="edge1" class="edge">
<title>Node1&#45;&gt;Node2</title>
<path fill="none" stroke="midnightblue" d="M77.1,-1115.63C78.02,-1175.18 87.64,-1497.55 188,-1732.97 255.04,-1890.23 277.55,-2015.97 448.5,-2015.97 448.5,-2015.97 448.5,-2015.97 1736.5,-2015.97 1857.34,-2015.97 1912.21,-2056.17 2006,-1979.97 2084.68,-1916.04 2097.94,-1782.06 2100.1,-1731.68"/>
<polygon fill="midnightblue" stroke="midnightblue" points="2103.61,-1731.61 2100.43,-1721.5 2096.61,-1731.39 2103.61,-1731.61"/>
</g>
<!-- Node6 -->
<g id="node6" class="node">
<title>Node6</title>
<g id="a_node6"><a xlink:href="../../d0/dfe/class_syntax_analyzer.html#ae1d3434e5cc4b4bcd5a3a245814a44f0" target="_top" xlink:title=" ">
<polygon fill="none" stroke="black" points="2051,-866.47 2051,-885.47 2152,-885.47 2152,-866.47 2051,-866.47"/>
<text text-anchor="middle" x="2101.5" y="-873.47" font-family="Helvetica,sans-Serif" font-size="10.00">SyntaxAnalyzer::eat</text>
</a>
</g>
</g>
<!-- Node1&#45;&gt;Node6 -->
<g id="edge5" class="edge">
<title>Node1&#45;&gt;Node6</title>
<path fill="none" stroke="midnightblue" d="M78.86,-1115.76C97.3,-1211.56 251.03,-1977.97 448.5,-1977.97 448.5,-1977.97 448.5,-1977.97 811.5,-1977.97 884.58,-1977.97 1963.43,-1486.37 2006,-1426.97 2050.51,-1364.85 2027.65,-1160.03 2042,-1084.97 2055.53,-1014.2 2081.49,-932.55 2093.76,-895.75"/>
<polygon fill="midnightblue" stroke="midnightblue" points="2097.22,-896.43 2097.1,-885.83 2090.59,-894.19 2097.22,-896.43"/>
</g>
<!-- Node7 -->
<g id="node7" class="node">
<title>Node7</title>
<g id="a_node7"><a xlink:href="../../d0/dfe/class_syntax_analyzer.html#a3ae6c7319e61cd669c417f189b098374" target="_top" xlink:title=" ">
<polygon fill="none" stroke="black" points="2205,-429.47 2205,-448.47 2337,-448.47 2337,-429.47 2205,-429.47"/>
<text text-anchor="middle" x="2271" y="-436.47" font-family="Helvetica,sans-Serif" font-size="10.00">SyntaxAnalyzer::getCurTok</text>
</a>
</g>
</g>
<!-- Node1&#45;&gt;Node7 -->
<g id="edge8" class="edge">
<title>Node1&#45;&gt;Node7</title>
<path fill="none" stroke="midnightblue" d="M76.88,-1096.41C75.93,-1005.72 72.28,-296.73 188,-127.97 260.73,-21.9 319.89,-1.97 448.5,-1.97 448.5,-1.97 448.5,-1.97 1927,-1.97 2034.04,-1.97 2083.8,15.18 2161,-58.97 2266.55,-160.34 2271.89,-356.47 2270.73,-419.18"/>
<polygon fill="midnightblue" stroke="midnightblue" points="2267.23,-419.19 2270.46,-429.28 2274.22,-419.38 2267.23,-419.19"/>
</g>
<!-- Node9 -->
<g id="node9" class="node">
<title>Node9</title>
<g id="a_node9"><a xlink:href="../../d0/d11/class_i_token.html#a4fa3435db7157ca7316d4e4aee1df4c0" target="_top" xlink:title="Устанавливает дополнительный тип токена">
<polygon fill="none" stroke="black" points="2050,-68.47 2050,-87.47 2153,-87.47 2153,-68.47 2050,-68.47"/>
<text text-anchor="middle" x="2101.5" y="-75.47" font-family="Helvetica,sans-Serif" font-size="10.00">IToken::setAdvType</text>
</a>
</g>
</g>
<!-- Node1&#45;&gt;Node9 -->
<g id="edge9" class="edge">
<title>Node1&#45;&gt;Node9</title>
<path fill="none" stroke="midnightblue" d="M78.12,-1096.43C90.83,-990.6 211.6,-39.97 448.5,-39.97 448.5,-39.97 448.5,-39.97 1736.5,-39.97 1843.54,-39.97 1967.33,-56.43 2039.47,-67.68"/>
<polygon fill="midnightblue" stroke="midnightblue" points="2039.31,-71.2 2049.73,-69.3 2040.4,-64.28 2039.31,-71.2"/>
</g>
<!-- Node10 -->
<g id="node10" class="node">
<title>Node10</title>
<g id="a_node10"><a xlink:href="../../d0/dfe/class_syntax_analyzer.html#a2b54bac50e114b68e83c80d869b6ac7c" target="_top" xlink:title=" ">
<polygon fill="none" stroke="black" points="188,-1096.47 188,-1115.47 328,-1115.47 328,-1096.47 188,-1096.47"/>
<text text-anchor="middle" x="258" y="-1103.47" font-family="Helvetica,sans-Serif" font-size="10.00">SyntaxAnalyzer::syntaxBlock</text>
</a>
</g>
</g>
<!-- Node1&#45;&gt;Node10 -->
<g id="edge10" class="edge">
<title>Node1&#45;&gt;Node10</title>
<path fill="none" stroke="midnightblue" d="M152.03,-1105.97C160.47,-1105.97 169.08,-1105.97 177.57,-1105.97"/>
<polygon fill="midnightblue" stroke="midnightblue" points="177.84,-1109.47 187.84,-1105.97 177.84,-1102.47 177.84,-1109.47"/>
</g>
<!-- Node3 -->
<g id="node3" class="node">
<title>Node3</title>
<g id="a_node3"><a xlink:href="../../d0/d11/class_i_token.html#ac8ca7f7e601ae49ad573167a4e9429cb" target="_top" xlink:title=" ">
<polygon fill="none" stroke="black" points="2219.5,-1664.47 2219.5,-1683.47 2322.5,-1683.47 2322.5,-1664.47 2219.5,-1664.47"/>
<text text-anchor="middle" x="2271" y="-1671.47" font-family="Helvetica,sans-Serif" font-size="10.00">IToken::getAdvType</text>
</a>
</g>
</g>
<!-- Node2&#45;&gt;Node3 -->
<g id="edge2" class="edge">
<title>Node2&#45;&gt;Node3</title>
<path fill="none" stroke="midnightblue" d="M2144.77,-1702.38C2167.07,-1697.32 2194.62,-1691.07 2218.2,-1685.72"/>
<polygon fill="midnightblue" stroke="midnightblue" points="2219.06,-1689.12 2228.04,-1683.49 2217.51,-1682.29 2219.06,-1689.12"/>
</g>
<!-- Node4 -->
<g id="node4" class="node">
<title>Node4</title>
<g id="a_node4"><a xlink:href="../../d0/d11/class_i_token.html#a568cb9d98839eff3fd758f419a76b092" target="_top" xlink:title="Получение типа токена">
<polygon fill="none" stroke="black" points="2228,-1550.47 2228,-1569.47 2314,-1569.47 2314,-1550.47 2228,-1550.47"/>
<text text-anchor="middle" x="2271" y="-1557.47" font-family="Helvetica,sans-Serif" font-size="10.00">IToken::getType</text>
</a>
</g>
</g>
<!-- Node2&#45;&gt;Node4 -->
<g id="edge3" class="edge">
<title>Node2&#45;&gt;Node4</title>
<path fill="none" stroke="midnightblue" d="M2133.4,-1702.46C2142.75,-1698.77 2152.73,-1693.96 2161,-1687.97 2183.47,-1671.67 2232.73,-1608.92 2256.56,-1577.75"/>
<polygon fill="midnightblue" stroke="midnightblue" points="2259.55,-1579.6 2262.82,-1569.52 2253.98,-1575.36 2259.55,-1579.6"/>
</g>
<!-- Node5 -->
<g id="node5" class="node">
<title>Node5</title>
<g id="a_node5"><a xlink:href="../../db/dc1/class_token.html#a1f07fa2fffeb2f7ab803ef8b424eae8a" target="_top" xlink:title=" ">
<polygon fill="none" stroke="black" points="2234,-1702.47 2234,-1721.47 2308,-1721.47 2308,-1702.47 2234,-1702.47"/>
<text text-anchor="middle" x="2271" y="-1709.47" font-family="Helvetica,sans-Serif" font-size="10.00">Token::setStr</text>
</a>
</g>
</g>
<!-- Node2&#45;&gt;Node5 -->
<g id="edge4" class="edge">
<title>Node2&#45;&gt;Node5</title>
<path fill="none" stroke="midnightblue" d="M2161.08,-1711.97C2181.56,-1711.97 2204.24,-1711.97 2223.58,-1711.97"/>
<polygon fill="midnightblue" stroke="midnightblue" points="2223.66,-1715.47 2233.65,-1711.97 2223.65,-1708.47 2223.66,-1715.47"/>
</g>
<!-- Node6&#45;&gt;Node7 -->
<g id="edge6" class="edge">
<title>Node6&#45;&gt;Node7</title>
<path fill="none" stroke="midnightblue" d="M2106.15,-866.44C2127.22,-811.47 2233.24,-534.86 2262.51,-458.51"/>
<polygon fill="midnightblue" stroke="midnightblue" points="2265.94,-459.34 2266.25,-448.75 2259.4,-456.84 2265.94,-459.34"/>
</g>
<!-- Node8 -->
<g id="node8" class="node">
<title>Node8</title>
<g id="a_node8"><a xlink:href="../../d0/dfe/class_syntax_analyzer.html#a9e41370d8d74fbd2e77648d2071e7dfe" target="_top" xlink:title=" ">
<polygon fill="none" stroke="black" points="2197,-1018.47 2197,-1037.47 2345,-1037.47 2345,-1018.47 2197,-1018.47"/>
<text text-anchor="middle" x="2271" y="-1025.47" font-family="Helvetica,sans-Serif" font-size="10.00">SyntaxAnalyzer::getNextToken</text>
</a>
</g>
</g>
<!-- Node6&#45;&gt;Node8 -->
<g id="edge7" class="edge">
<title>Node6&#45;&gt;Node8</title>
<path fill="none" stroke="midnightblue" d="M2112.98,-885.48C2140.83,-910.75 2216.94,-979.82 2251.94,-1011.58"/>
<polygon fill="midnightblue" stroke="midnightblue" points="2249.77,-1014.34 2259.53,-1018.46 2254.47,-1009.15 2249.77,-1014.34"/>
</g>
<!-- Node10&#45;&gt;Node2 -->
<g id="edge11" class="edge">
<title>Node10&#45;&gt;Node2</title>
<path fill="none" stroke="midnightblue" d="M258.8,-1115.62C257.43,-1208.49 258.77,-1939.97 640.5,-1939.97 640.5,-1939.97 640.5,-1939.97 811.5,-1939.97 1059.85,-1939.97 1120.65,-1977.97 1369,-1977.97 1369,-1977.97 1369,-1977.97 1736.5,-1977.97 1857.23,-1977.97 1910.24,-2017.49 2006,-1943.97 2075.65,-1890.5 2094.22,-1777.07 2098.95,-1731.52"/>
<polygon fill="midnightblue" stroke="midnightblue" points="2102.45,-1731.75 2099.88,-1721.47 2095.48,-1731.11 2102.45,-1731.75"/>
</g>
<!-- Node11 -->
<g id="node11" class="node">
<title>Node11</title>
<g id="a_node11"><a xlink:href="../../d0/dfe/class_syntax_analyzer.html#a5770afdc4d32d2c38550f27f9ffd949a" target="_top" xlink:title=" ">
<polygon fill="none" stroke="black" points="364,-355.47 364,-374.47 535,-374.47 535,-355.47 364,-355.47"/>
<text text-anchor="middle" x="449.5" y="-362.47" font-family="Helvetica,sans-Serif" font-size="10.00">SyntaxAnalyzer::syntaxCompoundSt</text>
</a>
</g>
</g>
<!-- Node10&#45;&gt;Node11 -->
<g id="edge12" class="edge">
<title>Node10&#45;&gt;Node11</title>
<path fill="none" stroke="midnightblue" d="M261.47,-1096.33C281.37,-1018.5 415.77,-492.97 443.5,-384.52"/>
<polygon fill="midnightblue" stroke="midnightblue" points="446.95,-385.17 446.03,-374.61 440.17,-383.43 446.95,-385.17"/>
</g>
<!-- Node31 -->
<g id="node31" class="node">
<title>Node31</title>
<g id="a_node31"><a xlink:href="../../d0/dfe/class_syntax_analyzer.html#a58a0f927ad0a45e4ce837a98e98330aa" target="_top" xlink:title=" ">
<polygon fill="none" stroke="black" points="1662.5,-450.47 1662.5,-469.47 1808.5,-469.47 1808.5,-450.47 1662.5,-450.47"/>
<text text-anchor="middle" x="1735.5" y="-457.47" font-family="Helvetica,sans-Serif" font-size="10.00">SyntaxAnalyzer::syntaxConsts</text>
</a>
</g>
</g>
<!-- Node10&#45;&gt;Node31 -->
<g id="edge89" class="edge">
<title>Node10&#45;&gt;Node31</title>
<path fill="none" stroke="midnightblue" d="M259.49,-1096.37C263.55,-1018.31 293.57,-487.22 364,-345.97 421.92,-229.81 451.03,-189.49 571,-139.97 1014.99,43.31 1596.96,-358.38 1713.63,-444.25"/>
<polygon fill="midnightblue" stroke="midnightblue" points="1711.67,-447.15 1721.79,-450.3 1715.84,-441.53 1711.67,-447.15"/>
</g>
<!-- Node33 -->
<g id="node33" class="node">
<title>Node33</title>
<g id="a_node33"><a xlink:href="../../d0/dfe/class_syntax_analyzer.html#a738f9b4cb7edf93c56af1b6974caad1a" target="_top" xlink:title=" ">
<polygon fill="none" stroke="black" points="1489,-1208.47 1489,-1227.47 1624,-1227.47 1624,-1208.47 1489,-1208.47"/>
<text text-anchor="middle" x="1556.5" y="-1215.47" font-family="Helvetica,sans-Serif" font-size="10.00">SyntaxAnalyzer::syntaxVars</text>
</a>
</g>
</g>
<!-- Node10&#45;&gt;Node33 -->
<g id="edge98" class="edge">
<title>Node10&#45;&gt;Node33</title>
<path fill="none" stroke="midnightblue" d="M259.6,-1115.61C265.36,-1198.5 317.61,-1787.97 640.5,-1787.97 640.5,-1787.97 640.5,-1787.97 987.5,-1787.97 1305.61,-1787.97 1507.2,-1337.01 1547.87,-1237.32"/>
<polygon fill="midnightblue" stroke="midnightblue" points="1551.19,-1238.45 1551.68,-1227.86 1544.7,-1235.83 1551.19,-1238.45"/>
</g>
<!-- Node11&#45;&gt;Node2 -->
<g id="edge13" class="edge">
<title>Node11&#45;&gt;Node2</title>
<path fill="none" stroke="midnightblue" d="M451.09,-374.67C457.51,-473.52 522.25,-1304.91 909,-1801.97 1040.08,-1970.43 1155.55,-1939.97 1369,-1939.97 1369,-1939.97 1369,-1939.97 1736.5,-1939.97 1857.02,-1939.97 1907.79,-1979.82 2006,-1909.97 2067,-1866.59 2090.04,-1773.13 2097.45,-1732.04"/>
<polygon fill="midnightblue" stroke="midnightblue" points="2100.94,-1732.37 2099.14,-1721.93 2094.04,-1731.21 2100.94,-1732.37"/>
</g>
<!-- Node11&#45;&gt;Node6 -->
<g id="edge14" class="edge">
<title>Node11&#45;&gt;Node6</title>
<path fill="none" stroke="midnightblue" d="M499.54,-355.46C521.33,-351.69 547.35,-347.82 571,-345.97 633.48,-341.07 649.74,-338.81 712,-345.97 1211.04,-403.33 1333.68,-454.45 1810,-613.97 1826.44,-619.47 1829.44,-623.86 1846,-628.97 1915.38,-650.36 1949.5,-616.36 2006,-661.97 2068.82,-712.68 2091.06,-813.66 2097.86,-856.27"/>
<polygon fill="midnightblue" stroke="midnightblue" points="2094.44,-857.06 2099.36,-866.44 2101.36,-856.03 2094.44,-857.06"/>
</g>
<!-- Node11&#45;&gt;Node7 -->
<g id="edge15" class="edge">
<title>Node11&#45;&gt;Node7</title>
<path fill="none" stroke="midnightblue" d="M458.82,-355.35C495.53,-314.08 648.28,-153.97 809.5,-153.97 809.5,-153.97 809.5,-153.97 987.5,-153.97 1240.51,-153.97 1302.49,-115.97 1555.5,-115.97 1555.5,-115.97 1555.5,-115.97 1927,-115.97 2031.5,-115.97 2078.45,-74.89 2161,-138.97 2252.33,-209.87 2267.19,-364.5 2269.57,-419.26"/>
<polygon fill="midnightblue" stroke="midnightblue" points="2266.07,-419.49 2269.91,-429.36 2273.07,-419.25 2266.07,-419.49"/>
</g>
<!-- Node11&#45;&gt;Node9 -->
<g id="edge16" class="edge">
<title>Node11&#45;&gt;Node9</title>
<path fill="none" stroke="midnightblue" d="M461.25,-355.39C479.14,-338.87 515.02,-303.21 535,-265.97 562.53,-214.65 526.36,-177.37 571,-139.97 674.42,-53.32 1040.07,-77.97 1175,-77.97 1175,-77.97 1175,-77.97 1736.5,-77.97 1843.11,-77.97 1967.29,-77.97 2039.58,-77.97"/>
<polygon fill="midnightblue" stroke="midnightblue" points="2039.86,-81.47 2049.86,-77.97 2039.86,-74.47 2039.86,-81.47"/>
</g>
<!-- Node12 -->
<g id="node12" class="node">
<title>Node12</title>
<g id="a_node12"><a xlink:href="../../d0/dfe/class_syntax_analyzer.html#a6df61a82ef9de3c17b78be89a321a087" target="_top" xlink:title=" ">
<polygon fill="none" stroke="black" points="571,-355.47 571,-374.47 712,-374.47 712,-355.47 571,-355.47"/>
<text text-anchor="middle" x="641.5" y="-362.47" font-family="Helvetica,sans-Serif" font-size="10.00">SyntaxAnalyzer::syntaxStList</text>
</a>
</g>
</g>
<!-- Node11&#45;&gt;Node12 -->
<g id="edge17" class="edge">
<title>Node11&#45;&gt;Node12</title>
<path fill="none" stroke="midnightblue" d="M535.22,-364.97C543.66,-364.97 552.21,-364.97 560.61,-364.97"/>
<polygon fill="midnightblue" stroke="midnightblue" points="560.74,-368.47 570.74,-364.97 560.74,-361.47 560.74,-368.47"/>
</g>
<!-- Node12&#45;&gt;Node6 -->
<g id="edge18" class="edge">
<title>Node12&#45;&gt;Node6</title>
<path fill="none" stroke="midnightblue" d="M681.26,-374.52C902.79,-429.15 1999.04,-699.62 2006,-704.97 2057.67,-744.67 2085.01,-821.1 2095.44,-856.76"/>
<polygon fill="midnightblue" stroke="midnightblue" points="2092.08,-857.74 2098.14,-866.43 2098.82,-855.86 2092.08,-857.74"/>
</g>
<!-- Node12&#45;&gt;Node7 -->
<g id="edge19" class="edge">
<title>Node12&#45;&gt;Node7</title>
<path fill="none" stroke="midnightblue" d="M666.02,-355.35C769.18,-314.08 1192.71,-153.97 1555.5,-153.97 1555.5,-153.97 1555.5,-153.97 1927,-153.97 2031.55,-153.97 2077.06,-115.64 2161,-177.97 2241.83,-237.99 2263.1,-369.28 2268.37,-419.19"/>
<polygon fill="midnightblue" stroke="midnightblue" points="2264.9,-419.67 2269.33,-429.3 2271.87,-419.01 2264.9,-419.67"/>
</g>
<!-- Node13 -->
<g id="node13" class="node">
<title>Node13</title>
<g id="a_node13"><a xlink:href="../../d0/dfe/class_syntax_analyzer.html#a7f54bde730006b1b863290415809ab4e" target="_top" xlink:title=" ">
<polygon fill="none" stroke="black" points="748,-771.47 748,-790.47 873,-790.47 873,-771.47 748,-771.47"/>
<text text-anchor="middle" x="810.5" y="-778.47" font-family="Helvetica,sans-Serif" font-size="10.00">SyntaxAnalyzer::syntaxSt</text>
</a>
</g>
</g>
<!-- Node12&#45;&gt;Node13 -->
<g id="edge20" class="edge">
<title>Node12&#45;&gt;Node13</title>
<path fill="none" stroke="midnightblue" d="M646.46,-374.84C668.17,-428.9 772.69,-689.28 801.9,-762.04"/>
<polygon fill="midnightblue" stroke="midnightblue" points="798.67,-763.4 805.65,-771.37 805.17,-760.79 798.67,-763.4"/>
</g>
<!-- Node13&#45;&gt;Node6 -->
<g id="edge21" class="edge">
<title>Node13&#45;&gt;Node6</title>
<path fill="none" stroke="midnightblue" d="M819.67,-771.34C835.04,-754.04 870.23,-718.29 909,-704.97 974.15,-682.58 995.11,-704.69 1064,-704.97 1395.56,-706.3 1479.3,-686.96 1810,-710.97 1897.7,-717.34 1931.2,-691.74 2006,-737.97 2051.74,-766.24 2080.75,-825.81 2093.3,-856.61"/>
<polygon fill="midnightblue" stroke="midnightblue" points="2090.16,-858.17 2097.06,-866.21 2096.67,-855.62 2090.16,-858.17"/>
</g>
<!-- Node13&#45;&gt;Node7 -->
<g id="edge22" class="edge">
<title>Node13&#45;&gt;Node7</title>
<path fill="none" stroke="midnightblue" d="M815.07,-771.46C835.16,-719.17 938.88,-463.65 1100,-318.97 1256.37,-178.55 1345.33,-191.97 1555.5,-191.97 1555.5,-191.97 1555.5,-191.97 1927,-191.97 2031.59,-191.97 2075.3,-157.02 2161,-216.97 2231.56,-266.33 2258.46,-374.59 2266.8,-419.18"/>
<polygon fill="midnightblue" stroke="midnightblue" points="2263.4,-420.05 2268.58,-429.29 2270.3,-418.84 2263.4,-420.05"/>
</g>
<!-- Node13&#45;&gt;Node11 -->
<g id="edge74" class="edge">
<title>Node13&#45;&gt;Node11</title>
<path fill="none" stroke="midnightblue" d="M801.22,-771.37C754.79,-717.58 526.81,-453.39 465.63,-382.5"/>
<polygon fill="midnightblue" stroke="midnightblue" points="468.2,-380.13 459.02,-374.84 462.9,-384.7 468.2,-380.13"/>
</g>
<!-- Node14 -->
<g id="node14" class="node">
<title>Node14</title>
<g id="a_node14"><a xlink:href="../../d0/dfe/class_syntax_analyzer.html#af0905389742c4f842207bb2c073afbfa" target="_top" xlink:title=" ">
<polygon fill="none" stroke="black" points="1857.5,-1398.47 1857.5,-1417.47 1994.5,-1417.47 1994.5,-1398.47 1857.5,-1398.47"/>
<text text-anchor="middle" x="1926" y="-1405.47" font-family="Helvetica,sans-Serif" font-size="10.00">SyntaxAnalyzer::lookFoward</text>
</a>
</g>
</g>
<!-- Node13&#45;&gt;Node14 -->
<g id="edge23" class="edge">
<title>Node13&#45;&gt;Node14</title>
<path fill="none" stroke="midnightblue" d="M819.87,-790.48C863.61,-839.61 1072.07,-1067 1288,-1187.97 1488.89,-1300.51 1757.39,-1370.04 1870.81,-1396.17"/>
<polygon fill="midnightblue" stroke="midnightblue" points="1870.12,-1399.61 1880.65,-1398.42 1871.68,-1392.78 1870.12,-1399.61"/>
</g>
<!-- Node16 -->
<g id="node16" class="node">
<title>Node16</title>
<g id="a_node16"><a xlink:href="../../d0/dfe/class_syntax_analyzer.html#a31fc5887c158652feb946f89270b4b36" target="_top" xlink:title=" ">
<polygon fill="none" stroke="black" points="909,-714.47 909,-733.47 1064,-733.47 1064,-714.47 909,-714.47"/>
<text text-anchor="middle" x="986.5" y="-721.47" font-family="Helvetica,sans-Serif" font-size="10.00">SyntaxAnalyzer::syntaxAssignSt</text>
</a>
</g>
</g>
<!-- Node13&#45;&gt;Node16 -->
<g id="edge25" class="edge">
<title>Node13&#45;&gt;Node16</title>
<path fill="none" stroke="midnightblue" d="M839.18,-771.42C858.67,-764.74 885.38,-755.67 909,-747.97 920.57,-744.2 933.15,-740.2 944.71,-736.58"/>
<polygon fill="midnightblue" stroke="midnightblue" points="946.05,-739.83 954.56,-733.5 943.97,-733.15 946.05,-739.83"/>
</g>
<!-- Node26 -->
<g id="node26" class="node">
<title>Node26</title>
<g id="a_node26"><a xlink:href="../../d0/dfe/class_syntax_analyzer.html#a2db43946bee3e973ce1cf293b262e271" target="_top" xlink:title=" ">
<polygon fill="none" stroke="black" points="1855.5,-1094.47 1855.5,-1113.47 1996.5,-1113.47 1996.5,-1094.47 1855.5,-1094.47"/>
<text text-anchor="middle" x="1926" y="-1101.47" font-family="Helvetica,sans-Serif" font-size="10.00">SyntaxAnalyzer::syntaxCallSt</text>
</a>
</g>
</g>
<!-- Node13&#45;&gt;Node26 -->
<g id="edge73" class="edge">
<title>Node13&#45;&gt;Node26</title>
<path fill="none" stroke="midnightblue" d="M873.25,-776.74C924.53,-774.24 999.29,-772.94 1064,-780.97 1233.66,-802.02 1685.89,-851.39 1810,-968.97 1849.19,-1006.09 1806.61,-1048.06 1846,-1084.97 1847.67,-1086.54 1849.45,-1087.98 1851.32,-1089.31"/>
<polygon fill="midnightblue" stroke="midnightblue" points="1849.59,-1092.36 1859.98,-1094.46 1853.17,-1086.34 1849.59,-1092.36"/>
</g>
<!-- Node28 -->
<g id="node28" class="node">
<title>Node28</title>
<g id="a_node28"><a xlink:href="../../d0/dfe/class_syntax_analyzer.html#a67bc7e3cfb57c9d4d25d60913aef3a87" target="_top" xlink:title=" ">
<polygon fill="none" stroke="black" points="1100,-1892.47 1100,-1911.47 1252,-1911.47 1252,-1892.47 1100,-1892.47"/>
<text text-anchor="middle" x="1176" y="-1899.47" font-family="Helvetica,sans-Serif" font-size="10.00">SyntaxAnalyzer::syntaxEmptySt</text>
</a>
</g>
</g>
<!-- Node13&#45;&gt;Node28 -->
<g id="edge75" class="edge">
<title>Node13&#45;&gt;Node28</title>
<path fill="none" stroke="midnightblue" d="M811.38,-790.69C810.46,-879.92 806.9,-1557.38 909,-1725.97 961.85,-1813.24 1076.41,-1866.05 1136.48,-1888.81"/>
<polygon fill="midnightblue" stroke="midnightblue" points="1135.39,-1892.14 1145.98,-1892.33 1137.82,-1885.57 1135.39,-1892.14"/>
</g>
<!-- Node29 -->
<g id="node29" class="node">
<title>Node29</title>
<g id="a_node29"><a xlink:href="../../d0/dfe/class_syntax_analyzer.html#a779e006875d35926152773989f4b1e5a" target="_top" xlink:title=" ">
<polygon fill="none" stroke="black" points="921,-847.47 921,-866.47 1052,-866.47 1052,-847.47 921,-847.47"/>
<text text-anchor="middle" x="986.5" y="-854.47" font-family="Helvetica,sans-Serif" font-size="10.00">SyntaxAnalyzer::syntaxIfSt</text>
</a>
</g>
</g>
<!-- Node13&#45;&gt;Node29 -->
<g id="edge77" class="edge">
<title>Node13&#45;&gt;Node29</title>
<path fill="none" stroke="midnightblue" d="M845.88,-790.48C880.58,-803.75 933.18,-826.98 962.92,-842.39"/>
<polygon fill="midnightblue" stroke="midnightblue" points="961.61,-845.66 972.07,-847.29 964.91,-839.48 961.61,-845.66"/>
</g>
<!-- Node30 -->
<g id="node30" class="node">
<title>Node30</title>
<g id="a_node30"><a xlink:href="../../d0/dfe/class_syntax_analyzer.html#a64dad7f0b22b08d182483469d3a1aa79" target="_top" xlink:title=" ">
<polygon fill="none" stroke="black" points="912,-790.47 912,-809.47 1061,-809.47 1061,-790.47 912,-790.47"/>
<text text-anchor="middle" x="986.5" y="-797.47" font-family="Helvetica,sans-Serif" font-size="10.00">SyntaxAnalyzer::syntaxWhileSt</text>
</a>
</g>
</g>
<!-- Node13&#45;&gt;Node30 -->
<g id="edge83" class="edge">
<title>Node13&#45;&gt;Node30</title>
<path fill="none" stroke="midnightblue" d="M873.34,-781.23C895.15,-783.15 919.26,-785.94 939.53,-788.92"/>
<polygon fill="midnightblue" stroke="midnightblue" points="939.03,-792.38 949.44,-790.44 940.09,-785.46 939.03,-792.38"/>
</g>
<!-- Node15 -->
<g id="node15" class="node">
<title>Node15</title>
<g id="a_node15"><a xlink:href="../../d1/d34/class_list.html#a49c179636e084dfbf7a52acd46acaf01" target="_top" xlink:title=" ">
<polygon fill="none" stroke="black" points="2074,-1398.47 2074,-1417.47 2129,-1417.47 2129,-1398.47 2074,-1398.47"/>
<text text-anchor="middle" x="2101.5" y="-1405.47" font-family="Helvetica,sans-Serif" font-size="10.00">List::size</text>
</a>
</g>
</g>
<!-- Node14&#45;&gt;Node15 -->
<g id="edge24" class="edge">
<title>Node14&#45;&gt;Node15</title>
<path fill="none" stroke="midnightblue" d="M1994.58,-1407.97C2017.97,-1407.97 2043.31,-1407.97 2063.35,-1407.97"/>
<polygon fill="midnightblue" stroke="midnightblue" points="2063.59,-1411.47 2073.59,-1407.97 2063.59,-1404.47 2063.59,-1411.47"/>
</g>
<!-- Node16&#45;&gt;Node2 -->
<g id="edge26" class="edge">
<title>Node16&#45;&gt;Node2</title>
<path fill="none" stroke="midnightblue" d="M1007.97,-733.51C1025.81,-742.95 1050.81,-759.14 1064,-780.97 1117.05,-868.77 1077.52,-908.87 1100,-1008.97 1165.06,-1298.64 1080.16,-1437.96 1288,-1649.97 1464.49,-1830 1593.89,-1751.29 1846,-1751.97 1917.11,-1752.16 1936.31,-1766.11 2006,-1751.97 2030.38,-1747.02 2056.29,-1735.57 2074.79,-1726.18"/>
<polygon fill="midnightblue" stroke="midnightblue" points="2076.51,-1729.23 2083.75,-1721.5 2073.27,-1723.03 2076.51,-1729.23"/>
</g>
<!-- Node16&#45;&gt;Node6 -->
<g id="edge27" class="edge">
<title>Node16&#45;&gt;Node6</title>
<path fill="none" stroke="midnightblue" d="M1064.02,-718.57C1076.06,-717.9 1088.36,-717.33 1100,-716.97 1167.52,-714.87 1184.54,-713.36 1252,-716.97 1588.56,-735 1695.37,-667.18 2006,-797.97 2038.45,-811.63 2068.44,-840.23 2085.59,-858.74"/>
<polygon fill="midnightblue" stroke="midnightblue" points="2083.03,-861.13 2092.32,-866.22 2088.23,-856.44 2083.03,-861.13"/>
</g>
<!-- Node16&#45;&gt;Node7 -->
<g id="edge28" class="edge">
<title>Node16&#45;&gt;Node7</title>
<path fill="none" stroke="midnightblue" d="M991.17,-714.14C1011.46,-661.3 1115.16,-409.05 1288,-291.97 1389.04,-223.52 1433.46,-229.97 1555.5,-229.97 1555.5,-229.97 1555.5,-229.97 1927,-229.97 2031.55,-229.97 2073,-197.53 2161,-253.97 2222.25,-293.25 2253.47,-380.18 2264.84,-419.26"/>
<polygon fill="midnightblue" stroke="midnightblue" points="2261.53,-420.44 2267.58,-429.14 2268.28,-418.57 2261.53,-420.44"/>
</g>
<!-- Node17 -->
<g id="node17" class="node">
<title>Node17</title>
<g id="a_node17"><a xlink:href="../../d0/dfe/class_syntax_analyzer.html#ae8d09db1b25ec882248aeed978c13a4d" target="_top" xlink:title=" ">
<polygon fill="none" stroke="black" points="1109,-980.47 1109,-999.47 1243,-999.47 1243,-980.47 1109,-980.47"/>
<text text-anchor="middle" x="1176" y="-987.47" font-family="Helvetica,sans-Serif" font-size="10.00">SyntaxAnalyzer::syntaxExpr</text>
</a>
</g>
</g>
<!-- Node16&#45;&gt;Node17 -->
<g id="edge29" class="edge">
<title>Node16&#45;&gt;Node17</title>
<path fill="none" stroke="midnightblue" d="M1004.42,-733.52C1021.17,-743.62 1046.74,-760.86 1064,-780.97 1116.34,-841.95 1153.5,-931.76 1168.12,-970.75"/>
<polygon fill="midnightblue" stroke="midnightblue" points="1164.91,-972.15 1171.64,-980.33 1171.48,-969.73 1164.91,-972.15"/>
</g>
<!-- Node27 -->
<g id="node27" class="node">
<title>Node27</title>
<g id="a_node27"><a xlink:href="../../d0/dfe/class_syntax_analyzer.html#a94c8a6ab5c0e53cae22edb1a840a27ce" target="_top" xlink:title=" ">
<polygon fill="none" stroke="black" points="1851,-1056.47 1851,-1075.47 2001,-1075.47 2001,-1056.47 1851,-1056.47"/>
<text text-anchor="middle" x="1926" y="-1063.47" font-family="Helvetica,sans-Serif" font-size="10.00">SyntaxAnalyzer::syntaxVariable</text>
</a>
</g>
</g>
<!-- Node16&#45;&gt;Node27 -->
<g id="edge72" class="edge">
<title>Node16&#45;&gt;Node27</title>
<path fill="none" stroke="midnightblue" d="M1064.24,-721.2C1219.69,-719.41 1576.75,-735.05 1810,-899.97 1864.74,-938.67 1901.87,-1012.17 1917.15,-1046.89"/>
<polygon fill="midnightblue" stroke="midnightblue" points="1914.04,-1048.52 1921.19,-1056.34 1920.48,-1045.77 1914.04,-1048.52"/>
</g>
<!-- Node17&#45;&gt;Node2 -->
<g id="edge30" class="edge">
<title>Node17&#45;&gt;Node2</title>
<path fill="none" stroke="midnightblue" d="M1177.38,-999.9C1180.34,-1072.09 1201.92,-1516.04 1288,-1611.97 1338.72,-1668.5 1379.73,-1636.62 1452,-1659.97 1545.77,-1690.27 1563.98,-1716.76 1661,-1733.97 1741.96,-1748.33 1763.77,-1735.52 1846,-1735.97 1917.11,-1736.35 1935.44,-1744.79 2006,-1735.97 2024.22,-1733.69 2043.97,-1729.03 2060.68,-1724.42"/>
<polygon fill="midnightblue" stroke="midnightblue" points="2061.99,-1727.69 2070.65,-1721.58 2060.07,-1720.96 2061.99,-1727.69"/>
</g>
<!-- Node17&#45;&gt;Node4 -->
<g id="edge33" class="edge">
<title>Node17&#45;&gt;Node4</title>
<path fill="none" stroke="midnightblue" d="M1180.52,-999.63C1192.03,-1030.18 1231.05,-1126.3 1288,-1187.97 1483.63,-1399.81 1570.92,-1432.5 1846,-1518.97 1930.73,-1545.6 1953.65,-1548.87 2042,-1557.97 2102.04,-1564.15 2171.44,-1563.68 2217.75,-1562.29"/>
<polygon fill="midnightblue" stroke="midnightblue" points="2217.97,-1565.78 2227.85,-1561.96 2217.74,-1558.78 2217.97,-1565.78"/>
</g>
<!-- Node17&#45;&gt;Node6 -->
<g id="edge31" class="edge">
<title>Node17&#45;&gt;Node6</title>
<path fill="none" stroke="midnightblue" d="M1217.45,-980.43C1238.42,-975.69 1264.5,-970.1 1288,-965.97 1534.5,-922.6 1596.84,-913.75 1846,-889.97 1912.35,-883.64 1988.73,-879.91 2040.36,-877.91"/>
<polygon fill="midnightblue" stroke="midnightblue" points="2040.81,-881.4 2050.67,-877.53 2040.54,-874.4 2040.81,-881.4"/>
</g>
<!-- Node17&#45;&gt;Node7 -->
<g id="edge32" class="edge">
<title>Node17&#45;&gt;Node7</title>
<path fill="none" stroke="midnightblue" d="M1180.22,-980.42C1204.28,-910.89 1363.14,-480.9 1661,-329.97 1760.11,-279.75 2058.35,-287.45 2161,-329.97 2205.48,-348.39 2241.28,-394.75 2258.62,-420.69"/>
<polygon fill="midnightblue" stroke="midnightblue" points="2255.79,-422.74 2264.16,-429.23 2261.66,-418.93 2255.79,-422.74"/>
</g>
<!-- Node18 -->
<g id="node18" class="node">
<title>Node18</title>
<g id="a_node18"><a xlink:href="../../df/d3f/_syntax_8hpp.html#ae7d62ca130413d4c96863327c1af81a4" target="_top" xlink:title="Возвращает истину, если value находится среди значений cont.">
<polygon fill="none" stroke="black" points="1719.5,-1018.47 1719.5,-1037.47 1751.5,-1037.47 1751.5,-1018.47 1719.5,-1018.47"/>
<text text-anchor="middle" x="1735.5" y="-1025.47" font-family="Helvetica,sans-Serif" font-size="10.00">isIn</text>
</a>
</g>
</g>
<!-- Node17&#45;&gt;Node18 -->
<g id="edge34" class="edge">
<title>Node17&#45;&gt;Node18</title>
<path fill="none" stroke="midnightblue" d="M1243.24,-999.11C1257.96,-1000.92 1273.49,-1002.67 1288,-1003.97 1448.03,-1018.34 1641.16,-1025.16 1709.26,-1027.25"/>
<polygon fill="midnightblue" stroke="midnightblue" points="1709.34,-1030.75 1719.44,-1027.55 1709.55,-1023.75 1709.34,-1030.75"/>
</g>
<!-- Node19 -->
<g id="node19" class="node">
<title>Node19</title>
<g id="a_node19"><a xlink:href="../../d0/dfe/class_syntax_analyzer.html#a3dfb6634a4bcdc61da5b1bafd1f3d136" target="_top" xlink:title=" ">
<polygon fill="none" stroke="black" points="1288,-1094.47 1288,-1113.47 1452,-1113.47 1452,-1094.47 1288,-1094.47"/>
<text text-anchor="middle" x="1370" y="-1101.47" font-family="Helvetica,sans-Serif" font-size="10.00">SyntaxAnalyzer::syntaxSimpleExpr</text>
</a>
</g>
</g>
<!-- Node17&#45;&gt;Node19 -->
<g id="edge35" class="edge">
<title>Node17&#45;&gt;Node19</title>
<path fill="none" stroke="midnightblue" d="M1186.16,-999.58C1204.06,-1017.84 1245.63,-1057.66 1288,-1079.97 1296.57,-1084.48 1306.11,-1088.27 1315.55,-1091.39"/>
<polygon fill="midnightblue" stroke="midnightblue" points="1314.72,-1094.8 1325.31,-1094.42 1316.79,-1088.11 1314.72,-1094.8"/>
</g>
<!-- Node19&#45;&gt;Node2 -->
<g id="edge36" class="edge">
<title>Node19&#45;&gt;Node2</title>
<path fill="none" stroke="midnightblue" d="M1371.85,-1113.74C1377.61,-1177.82 1413.07,-1537.79 1488,-1611.97 1636.96,-1759.42 1913.21,-1740.52 2037.28,-1722.95"/>
<polygon fill="midnightblue" stroke="midnightblue" points="2037.99,-1726.38 2047.38,-1721.47 2036.98,-1719.45 2037.99,-1726.38"/>
</g>
<!-- Node19&#45;&gt;Node4 -->
<g id="edge39" class="edge">
<title>Node19&#45;&gt;Node4</title>
<path fill="none" stroke="midnightblue" d="M1378.2,-1113.75C1395.48,-1136.84 1441.38,-1195.92 1488,-1236.97 1697.99,-1421.88 1768.23,-1478.21 2042,-1535.97 2101.56,-1548.54 2171.33,-1554.65 2217.85,-1557.54"/>
<polygon fill="midnightblue" stroke="midnightblue" points="2217.8,-1561.04 2227.99,-1558.14 2218.22,-1554.06 2217.8,-1561.04"/>
</g>
<!-- Node19&#45;&gt;Node6 -->
<g id="edge37" class="edge">
<title>Node19&#45;&gt;Node6</title>
<path fill="none" stroke="midnightblue" d="M1393.33,-1094.29C1460.59,-1065.45 1667.57,-978.93 1846,-927.97 1911.65,-909.22 1988.67,-894.46 2040.64,-885.53"/>
<polygon fill="midnightblue" stroke="midnightblue" points="2041.42,-888.94 2050.69,-883.82 2040.25,-882.04 2041.42,-888.94"/>
</g>
<!-- Node19&#45;&gt;Node7 -->
<g id="edge38" class="edge">
<title>Node19&#45;&gt;Node7</title>
<path fill="none" stroke="midnightblue" d="M1382.03,-1094.34C1422.99,-1057.78 1567.08,-922.29 1625,-775.97 1656.06,-697.51 1598.88,-455.07 1661,-397.97 1742.81,-322.77 2051.65,-386.16 2161,-405.97 2186.19,-410.53 2213.79,-418.92 2234.91,-426.1"/>
<polygon fill="midnightblue" stroke="midnightblue" points="2233.83,-429.43 2244.42,-429.4 2236.12,-422.82 2233.83,-429.43"/>
</g>
<!-- Node19&#45;&gt;Node18 -->
<g id="edge40" class="edge">
<title>Node19&#45;&gt;Node18</title>
<path fill="none" stroke="midnightblue" d="M1452.06,-1107.72C1503.32,-1107.36 1570.03,-1101.77 1625,-1079.97 1643.84,-1072.5 1643.1,-1061.48 1661,-1051.97 1676.26,-1043.86 1694.76,-1037.84 1709.39,-1033.85"/>
<polygon fill="midnightblue" stroke="midnightblue" points="1710.44,-1037.2 1719.25,-1031.31 1708.69,-1030.42 1710.44,-1037.2"/>
</g>
<!-- Node20 -->
<g id="node20" class="node">
<title>Node20</title>
<g id="a_node20"><a xlink:href="../../d0/dfe/class_syntax_analyzer.html#a1e9b913cc8c2861927d7c05d10f1822d" target="_top" xlink:title=" ">
<polygon fill="none" stroke="black" points="1488,-1132.47 1488,-1151.47 1625,-1151.47 1625,-1132.47 1488,-1132.47"/>
<text text-anchor="middle" x="1556.5" y="-1139.47" font-family="Helvetica,sans-Serif" font-size="10.00">SyntaxAnalyzer::syntaxTerm</text>
</a>
</g>
</g>
<!-- Node19&#45;&gt;Node20 -->
<g id="edge41" class="edge">
<title>Node19&#45;&gt;Node20</title>
<path fill="none" stroke="midnightblue" d="M1417.56,-1113.56C1442.34,-1118.66 1473.02,-1124.98 1499.14,-1130.36"/>
<polygon fill="midnightblue" stroke="midnightblue" points="1498.78,-1133.86 1509.28,-1132.45 1500.19,-1127 1498.78,-1133.86"/>
</g>
<!-- Node20&#45;&gt;Node2 -->
<g id="edge42" class="edge">
<title>Node20&#45;&gt;Node2</title>
<path fill="none" stroke="midnightblue" d="M1575.15,-1151.63C1591.06,-1161.35 1613.64,-1177.91 1625,-1198.97 1688.54,-1316.77 1583.37,-1388.94 1661,-1497.97 1750.83,-1624.12 1935.91,-1679.16 2034.8,-1700.37"/>
<polygon fill="midnightblue" stroke="midnightblue" points="2034.18,-1703.82 2044.68,-1702.44 2035.61,-1696.96 2034.18,-1703.82"/>
</g>
<!-- Node20&#45;&gt;Node4 -->
<g id="edge45" class="edge">
<title>Node20&#45;&gt;Node4</title>
<path fill="none" stroke="midnightblue" d="M1572.27,-1151.61C1587.12,-1161.9 1609.94,-1179.4 1625,-1198.97 1647.8,-1228.59 1638,-1245.5 1661,-1274.97 1726.47,-1358.86 1752.4,-1376.34 1846,-1426.97 1970.9,-1494.54 2135.4,-1533.7 2217.97,-1550.37"/>
<polygon fill="midnightblue" stroke="midnightblue" points="2217.38,-1553.82 2227.87,-1552.34 2218.75,-1546.96 2217.38,-1553.82"/>
</g>
<!-- Node20&#45;&gt;Node6 -->
<g id="edge43" class="edge">
<title>Node20&#45;&gt;Node6</title>
<path fill="none" stroke="midnightblue" d="M1616.48,-1132.46C1672.15,-1120.81 1755.06,-1096.2 1810,-1046.97 1836.35,-1023.36 1818.86,-998.67 1846,-975.97 1902.95,-928.34 1942.52,-966.48 2006,-927.97 2025.62,-916.07 2022.15,-902.47 2042,-890.97 2042.79,-890.51 2043.6,-890.06 2044.42,-889.63"/>
<polygon fill="midnightblue" stroke="midnightblue" points="2045.91,-892.8 2053.59,-885.5 2043.03,-886.42 2045.91,-892.8"/>
</g>
<!-- Node20&#45;&gt;Node7 -->
<g id="edge44" class="edge">
<title>Node20&#45;&gt;Node7</title>
<path fill="none" stroke="midnightblue" d="M1561.42,-1132.37C1573.36,-1102.61 1609.43,-1009.08 1625,-927.97 1635.23,-874.68 1621.34,-478 1661,-440.97 1737.18,-369.84 2057.19,-407.08 2200.31,-427.96"/>
<polygon fill="midnightblue" stroke="midnightblue" points="2199.9,-431.44 2210.3,-429.43 2200.92,-424.51 2199.9,-431.44"/>
</g>
<!-- Node20&#45;&gt;Node18 -->
<g id="edge46" class="edge">
<title>Node20&#45;&gt;Node18</title>
<path fill="none" stroke="midnightblue" d="M1599.32,-1132.43C1608.47,-1128.96 1617.62,-1124.27 1625,-1117.97 1650.41,-1096.28 1635.31,-1073.33 1661,-1051.97 1674.75,-1040.53 1694.1,-1034.5 1709.5,-1031.34"/>
<polygon fill="midnightblue" stroke="midnightblue" points="1710.17,-1034.78 1719.4,-1029.59 1708.95,-1027.89 1710.17,-1034.78"/>
</g>
<!-- Node21 -->
<g id="node21" class="node">
<title>Node21</title>
<g id="a_node21"><a xlink:href="../../d0/dfe/class_syntax_analyzer.html#a3af9b5161a2cef6fdd26b0bb60334ac4" target="_top" xlink:title=" ">
<polygon fill="none" stroke="black" points="1664,-1180.47 1664,-1199.47 1807,-1199.47 1807,-1180.47 1664,-1180.47"/>
<text text-anchor="middle" x="1735.5" y="-1187.47" font-family="Helvetica,sans-Serif" font-size="10.00">SyntaxAnalyzer::syntaxFactor</text>
</a>
</g>
</g>
<!-- Node20&#45;&gt;Node21 -->
<g id="edge47" class="edge">
<title>Node20&#45;&gt;Node21</title>
<path fill="none" stroke="midnightblue" d="M1592.89,-1151.57C1620.63,-1159.09 1659.41,-1169.61 1689.37,-1177.73"/>
<polygon fill="midnightblue" stroke="midnightblue" points="1688.6,-1181.15 1699.17,-1180.39 1690.43,-1174.39 1688.6,-1181.15"/>
</g>
<!-- Node21&#45;&gt;Node2 -->
<g id="edge48" class="edge">
<title>Node21&#45;&gt;Node2</title>
<path fill="none" stroke="midnightblue" d="M1761.13,-1199.52C1777.55,-1207.17 1798.21,-1219.53 1810,-1236.97 1858.14,-1308.17 1798.9,-1355.08 1846,-1426.97 1893.16,-1498.94 1948.44,-1472.01 2006,-1535.97 2049.96,-1584.82 2080.62,-1657.78 2093.58,-1692.4"/>
<polygon fill="midnightblue" stroke="midnightblue" points="2090.45,-1694.01 2097.16,-1702.21 2097.02,-1691.61 2090.45,-1694.01"/>
</g>
<!-- Node21&#45;&gt;Node3 -->
<g id="edge53" class="edge">
<title>Node21&#45;&gt;Node3</title>
<path fill="none" stroke="midnightblue" d="M1759.46,-1199.47C1775.73,-1207.3 1796.92,-1219.9 1810,-1236.97 1842.32,-1279.14 1805.11,-1317.05 1846,-1350.97 1954.53,-1441 2057.99,-1292.66 2161,-1388.97 2223.78,-1447.67 2161.86,-1500.53 2197,-1578.97 2210.72,-1609.59 2236.13,-1639.34 2253.05,-1657.16"/>
<polygon fill="midnightblue" stroke="midnightblue" points="2250.68,-1659.73 2260.16,-1664.46 2255.7,-1654.85 2250.68,-1659.73"/>
</g>
<!-- Node21&#45;&gt;Node4 -->
<g id="edge59" class="edge">
<title>Node21&#45;&gt;Node4</title>
<path fill="none" stroke="midnightblue" d="M1769.19,-1199.52C1857.69,-1225.89 2099.48,-1301.31 2161,-1355.97 2219.99,-1408.38 2252.65,-1500.54 2264.64,-1540.54"/>
<polygon fill="midnightblue" stroke="midnightblue" points="2261.34,-1541.72 2267.47,-1550.36 2268.06,-1539.78 2261.34,-1541.72"/>
</g>
<!-- Node21&#45;&gt;Node6 -->
<g id="edge49" class="edge">
<title>Node21&#45;&gt;Node6</title>
<path fill="none" stroke="midnightblue" d="M1771.66,-1180.38C1785.23,-1175.12 1799.89,-1167.3 1810,-1155.97 1843.96,-1117.89 1808.92,-1082.01 1846,-1046.97 1899.52,-996.39 1949.35,-1051.01 2006,-1003.97 2034.45,-980.35 2019.89,-958.6 2042,-928.97 2052.42,-915 2066.92,-901.84 2078.88,-892.12"/>
<polygon fill="midnightblue" stroke="midnightblue" points="2081.35,-894.63 2087.04,-885.69 2077.02,-889.13 2081.35,-894.63"/>
</g>
<!-- Node21&#45;&gt;Node7 -->
<g id="edge54" class="edge">
<title>Node21&#45;&gt;Node7</title>
<path fill="none" stroke="midnightblue" d="M1745.55,-1180.32C1761.84,-1162.27 1795.73,-1121.45 1810,-1079.97 1845.44,-976.93 1776.11,-674.57 1846,-590.97 1938.71,-480.06 2028.69,-568.19 2161,-509.97 2194.28,-495.33 2228.81,-471.02 2249.86,-454.99"/>
<polygon fill="midnightblue" stroke="midnightblue" points="2252.24,-457.58 2258.01,-448.69 2247.96,-452.04 2252.24,-457.58"/>
</g>
<!-- Node21&#45;&gt;Node14 -->
<g id="edge60" class="edge">
<title>Node21&#45;&gt;Node14</title>
<path fill="none" stroke="midnightblue" d="M1760.5,-1199.55C1776.84,-1207.28 1797.66,-1219.72 1810,-1236.97 1849.14,-1291.67 1799.76,-1335.12 1846,-1383.97 1849.66,-1387.84 1853.93,-1391.09 1858.54,-1393.82"/>
<polygon fill="midnightblue" stroke="midnightblue" points="1857.27,-1397.1 1867.78,-1398.46 1860.42,-1390.85 1857.27,-1397.1"/>
</g>
<!-- Node21&#45;&gt;Node17 -->
<g id="edge66" class="edge">
<title>Node21&#45;&gt;Node17</title>
<path fill="none" stroke="midnightblue" d="M1718.13,-1199.52C1697.3,-1211.05 1659.85,-1229.81 1625,-1236.97 1565.36,-1249.23 1546.86,-1252.57 1488,-1236.97 1389.1,-1210.76 1366.47,-1188.62 1288,-1122.97 1246.11,-1087.92 1207.8,-1035.68 1189.07,-1008.26"/>
<polygon fill="midnightblue" stroke="midnightblue" points="1191.77,-1006.01 1183.28,-999.67 1185.96,-1009.92 1191.77,-1006.01"/>
</g>
<!-- Node21&#45;&gt;Node21 -->
<g id="edge67" class="edge">
<title>Node21&#45;&gt;Node21</title>
<path fill="none" stroke="midnightblue" d="M1708.07,-1199.73C1694.72,-1208.53 1703.86,-1217.97 1735.5,-1217.97 1757.25,-1217.97 1768.37,-1213.51 1768.86,-1207.86"/>
<polygon fill="midnightblue" stroke="midnightblue" points="1771.65,-1205.75 1762.93,-1199.73 1765.99,-1209.87 1771.65,-1205.75"/>
</g>
<!-- Node22 -->
<g id="node22" class="node">
<title>Node22</title>
<g id="a_node22"><a xlink:href="../../d0/dfe/class_syntax_analyzer.html#a9952c4a2db0a1382b9c94f40dd535fae" target="_top" xlink:title=" ">
<polygon fill="none" stroke="black" points="2042.5,-1170.47 2042.5,-1189.47 2160.5,-1189.47 2160.5,-1170.47 2042.5,-1170.47"/>
<text text-anchor="middle" x="2101.5" y="-1177.47" font-family="Helvetica,sans-Serif" font-size="10.00">SyntaxAnalyzer::eatAdv</text>
</a>
</g>
</g>
<!-- Node21&#45;&gt;Node22 -->
<g id="edge50" class="edge">
<title>Node21&#45;&gt;Node22</title>
<path fill="none" stroke="midnightblue" d="M1807.03,-1197.42C1861.5,-1201.94 1938.69,-1205.67 2006,-1198.97 2021.15,-1197.46 2037.47,-1194.62 2052.22,-1191.59"/>
<polygon fill="midnightblue" stroke="midnightblue" points="2053.09,-1194.99 2062.14,-1189.48 2051.63,-1188.14 2053.09,-1194.99"/>
</g>
<!-- Node23 -->
<g id="node23" class="node">
<title>Node23</title>
<g id="a_node23"><a xlink:href="../../db/dc1/class_token.html#a014ced0a9ea72ae21fad0d4f116d0a73" target="_top" xlink:title=" ">
<polygon fill="none" stroke="black" points="1887,-1170.47 1887,-1189.47 1965,-1189.47 1965,-1170.47 1887,-1170.47"/>
<text text-anchor="middle" x="1926" y="-1177.47" font-family="Helvetica,sans-Serif" font-size="10.00">Token::getInfo</text>
</a>
</g>
</g>
<!-- Node21&#45;&gt;Node23 -->
<g id="edge55" class="edge">
<title>Node21&#45;&gt;Node23</title>
<path fill="none" stroke="midnightblue" d="M1807.23,-1186.22C1830.48,-1184.98 1855.77,-1183.64 1876.94,-1182.52"/>
<polygon fill="midnightblue" stroke="midnightblue" points="1877.17,-1186.01 1886.97,-1181.99 1876.8,-1179.02 1877.17,-1186.01"/>
</g>
<!-- Node21&#45;&gt;Node26 -->
<g id="edge61" class="edge">
<title>Node21&#45;&gt;Node26</title>
<path fill="none" stroke="midnightblue" d="M1760.71,-1180.42C1775.39,-1174.23 1794.27,-1165.55 1810,-1155.97 1827.31,-1145.42 1828,-1137.29 1846,-1127.97 1854.6,-1123.52 1864.16,-1119.74 1873.57,-1116.6"/>
<polygon fill="midnightblue" stroke="midnightblue" points="1874.79,-1119.88 1883.28,-1113.55 1872.7,-1113.21 1874.79,-1119.88"/>
</g>
<!-- Node21&#45;&gt;Node27 -->
<g id="edge68" class="edge">
<title>Node21&#45;&gt;Node27</title>
<path fill="none" stroke="midnightblue" d="M1768.61,-1180.46C1782.63,-1175.06 1798.46,-1167.1 1810,-1155.97 1835.46,-1131.41 1818.24,-1106.91 1846,-1084.97 1848.28,-1083.17 1850.71,-1081.53 1853.24,-1080.04"/>
<polygon fill="midnightblue" stroke="midnightblue" points="1854.84,-1083.16 1862.22,-1075.56 1851.71,-1076.9 1854.84,-1083.16"/>
</g>
<!-- Node22&#45;&gt;Node7 -->
<g id="edge51" class="edge">
<title>Node22&#45;&gt;Node7</title>
<path fill="none" stroke="midnightblue" d="M2149.04,-1170.47C2153.56,-1167.99 2157.69,-1164.88 2161,-1160.97 2184.61,-1133.13 2253.98,-570.88 2267.65,-458.44"/>
<polygon fill="midnightblue" stroke="midnightblue" points="2271.12,-458.83 2268.85,-448.49 2264.17,-457.99 2271.12,-458.83"/>
</g>
<!-- Node22&#45;&gt;Node8 -->
<g id="edge52" class="edge">
<title>Node22&#45;&gt;Node8</title>
<path fill="none" stroke="midnightblue" d="M2142.34,-1170.44C2148.88,-1167.94 2155.36,-1164.82 2161,-1160.97 2206.21,-1130.1 2242.58,-1075.21 2259.58,-1046.55"/>
<polygon fill="midnightblue" stroke="midnightblue" points="2262.78,-1048 2264.76,-1037.59 2256.72,-1044.49 2262.78,-1048"/>
</g>
<!-- Node23&#45;&gt;Node4 -->
<g id="edge57" class="edge">
<title>Node23&#45;&gt;Node4</title>
<path fill="none" stroke="midnightblue" d="M1954.09,-1189.59C2001.8,-1207.77 2101.36,-1251.4 2161,-1317.97 2222.51,-1386.62 2254.45,-1495.75 2265.47,-1540.18"/>
<polygon fill="midnightblue" stroke="midnightblue" points="2262.09,-1541.11 2267.83,-1550.02 2268.9,-1539.48 2262.09,-1541.11"/>
</g>
<!-- Node24 -->
<g id="node24" class="node">
<title>Node24</title>
<g id="a_node24"><a xlink:href="../../db/dc1/class_token.html#a942fcc40ffdf54c98b7b641c792a26bc" target="_top" xlink:title="Возвращает константную ссылку на строковое представление токена">
<polygon fill="none" stroke="black" points="2064.5,-1094.47 2064.5,-1113.47 2138.5,-1113.47 2138.5,-1094.47 2064.5,-1094.47"/>
<text text-anchor="middle" x="2101.5" y="-1101.47" font-family="Helvetica,sans-Serif" font-size="10.00">Token::getStr</text>
</a>
</g>
</g>
<!-- Node23&#45;&gt;Node24 -->
<g id="edge56" class="edge">
<title>Node23&#45;&gt;Node24</title>
<path fill="none" stroke="midnightblue" d="M1965.38,-1172.01C1978.77,-1168.29 1993.55,-1163.07 2006,-1155.97 2024.85,-1145.21 2023.25,-1133.9 2042,-1122.97 2046.11,-1120.57 2050.56,-1118.44 2055.1,-1116.54"/>
<polygon fill="midnightblue" stroke="midnightblue" points="2056.39,-1119.8 2064.5,-1112.98 2053.9,-1113.25 2056.39,-1119.8"/>
</g>
<!-- Node25 -->
<g id="node25" class="node">
<title>Node25</title>
<g id="a_node25"><a xlink:href="../../db/dc1/class_token.html#af3b5fdf2261d637af820d4adb62e6109" target="_top" xlink:title=" ">
<polygon fill="none" stroke="black" points="2070,-1132.47 2070,-1151.47 2133,-1151.47 2133,-1132.47 2070,-1132.47"/>
<text text-anchor="middle" x="2101.5" y="-1139.47" font-family="Helvetica,sans-Serif" font-size="10.00">Token::line</text>
</a>
</g>
</g>
<!-- Node23&#45;&gt;Node25 -->
<g id="edge58" class="edge">
<title>Node23&#45;&gt;Node25</title>
<path fill="none" stroke="midnightblue" d="M1965.08,-1171.63C1993.06,-1165.5 2031.04,-1157.18 2059.65,-1150.92"/>
<polygon fill="midnightblue" stroke="midnightblue" points="2060.72,-1154.27 2069.74,-1148.71 2059.22,-1147.43 2060.72,-1154.27"/>
</g>
<!-- Node26&#45;&gt;Node2 -->
<g id="edge62" class="edge">
<title>Node26&#45;&gt;Node2</title>
<path fill="none" stroke="midnightblue" d="M1948.98,-1113.63C1967.41,-1122.96 1992.78,-1138.92 2006,-1160.97 2067.35,-1263.28 2021.99,-1309.36 2042,-1426.97 2059.06,-1527.25 2085.48,-1646.14 2095.98,-1692.29"/>
<polygon fill="midnightblue" stroke="midnightblue" points="2092.6,-1693.2 2098.24,-1702.17 2099.42,-1691.64 2092.6,-1693.2"/>
</g>
<!-- Node26&#45;&gt;Node6 -->
<g id="edge63" class="edge">
<title>Node26&#45;&gt;Node6</title>
<path fill="none" stroke="midnightblue" d="M1990.93,-1094.46C1996.38,-1091.96 2001.52,-1088.85 2006,-1084.97 2038.58,-1056.78 2024.48,-1034.33 2042,-994.97 2057.98,-959.06 2078.67,-918.12 2090.67,-894.83"/>
<polygon fill="midnightblue" stroke="midnightblue" points="2093.9,-896.21 2095.39,-885.72 2087.68,-892.99 2093.9,-896.21"/>
</g>
<!-- Node26&#45;&gt;Node7 -->
<g id="edge64" class="edge">
<title>Node26&#45;&gt;Node7</title>
<path fill="none" stroke="midnightblue" d="M1980.84,-1094.45C1989.48,-1091.96 1998.16,-1088.85 2006,-1084.97 2085.58,-1045.61 2114.79,-1034.77 2161,-958.97 2265.59,-787.39 2271.11,-531.28 2270.43,-458.74"/>
<polygon fill="midnightblue" stroke="midnightblue" points="2273.93,-458.67 2270.28,-448.72 2266.93,-458.77 2273.93,-458.67"/>
</g>
<!-- Node26&#45;&gt;Node17 -->
<g id="edge65" class="edge">
<title>Node26&#45;&gt;Node17</title>
<path fill="none" stroke="midnightblue" d="M1861.72,-1094.34C1856.06,-1091.87 1850.71,-1088.79 1846,-1084.97 1816.99,-1061.4 1841.28,-1029.43 1810,-1008.97 1720.48,-950.42 1401.35,-969.9 1253.37,-982.61"/>
<polygon fill="midnightblue" stroke="midnightblue" points="1252.67,-979.16 1243.01,-983.52 1253.28,-986.14 1252.67,-979.16"/>
</g>
<!-- Node27&#45;&gt;Node2 -->
<g id="edge69" class="edge">
<title>Node27&#45;&gt;Node2</title>
<path fill="none" stroke="midnightblue" d="M1994.34,-1075.49C1998.68,-1078.03 2002.65,-1081.15 2006,-1084.97 2056.38,-1142.43 2030.3,-1351.45 2042,-1426.97 2057.57,-1527.5 2084.85,-1646.24 2095.78,-1692.32"/>
<polygon fill="midnightblue" stroke="midnightblue" points="2092.4,-1693.27 2098.13,-1702.19 2099.21,-1691.65 2092.4,-1693.27"/>
</g>
<!-- Node27&#45;&gt;Node6 -->
<g id="edge70" class="edge">
<title>Node27&#45;&gt;Node6</title>
<path fill="none" stroke="midnightblue" d="M1983.04,-1056.43C1991.52,-1052.99 1999.57,-1048.31 2006,-1041.97 2043.52,-1004.95 2013.49,-973.3 2042,-928.97 2051.46,-914.27 2066.01,-901.06 2078.24,-891.5"/>
<polygon fill="midnightblue" stroke="midnightblue" points="2080.34,-894.3 2086.24,-885.5 2076.14,-888.7 2080.34,-894.3"/>
</g>
<!-- Node27&#45;&gt;Node7 -->
<g id="edge71" class="edge">
<title>Node27&#45;&gt;Node7</title>
<path fill="none" stroke="midnightblue" d="M1968.83,-1056.42C1981.48,-1052.33 1994.93,-1046.66 2006,-1038.97 2026.75,-1024.55 2024.25,-1012.95 2042,-994.97 2090.53,-945.8 2124.7,-953.75 2161,-894.97 2253,-746.02 2267.35,-525.47 2269.59,-458.77"/>
<polygon fill="midnightblue" stroke="midnightblue" points="2273.09,-458.57 2269.87,-448.47 2266.1,-458.37 2273.09,-458.57"/>
</g>
<!-- Node28&#45;&gt;Node2 -->
<g id="edge76" class="edge">
<title>Node28&#45;&gt;Node2</title>
<path fill="none" stroke="midnightblue" d="M1252.05,-1901.97C1328.41,-1901.97 1450.2,-1901.97 1555.5,-1901.97 1555.5,-1901.97 1555.5,-1901.97 1736.5,-1901.97 1856.75,-1901.97 1904.83,-1942.97 2006,-1877.97 2059.6,-1843.53 2085.98,-1767.29 2095.8,-1731.38"/>
<polygon fill="midnightblue" stroke="midnightblue" points="2099.21,-1732.19 2098.33,-1721.63 2092.43,-1730.43 2099.21,-1732.19"/>
</g>
<!-- Node29&#45;&gt;Node2 -->
<g id="edge78" class="edge">
<title>Node29&#45;&gt;Node2</title>
<path fill="none" stroke="midnightblue" d="M988.02,-866.63C993.1,-959.63 1035.15,-1694.41 1100,-1763.97 1168.89,-1837.86 1915.82,-1885.49 2006,-1839.97 2051.44,-1817.03 2080.43,-1760.8 2093.1,-1731.08"/>
<polygon fill="midnightblue" stroke="midnightblue" points="2096.36,-1732.36 2096.91,-1721.78 2089.88,-1729.71 2096.36,-1732.36"/>
</g>
<!-- Node29&#45;&gt;Node6 -->
<g id="edge79" class="edge">
<title>Node29&#45;&gt;Node6</title>
<path fill="none" stroke="midnightblue" d="M1052.22,-856.94C1105.8,-856.64 1183.89,-855.52 1252,-851.97 1500.15,-839.02 1562.76,-792.12 1810,-816.97 1897.92,-825.81 1998.57,-849.33 2055.34,-863.86"/>
<polygon fill="midnightblue" stroke="midnightblue" points="2054.52,-867.27 2065.07,-866.38 2056.27,-860.49 2054.52,-867.27"/>
</g>
<!-- Node29&#45;&gt;Node7 -->
<g id="edge80" class="edge">
<title>Node29&#45;&gt;Node7</title>
<path fill="none" stroke="midnightblue" d="M1052.15,-850.87C1119.09,-843.7 1218.47,-830.39 1252,-811.97 1489.73,-681.34 1413.12,-469.13 1661,-358.97 1762.64,-313.8 2055.23,-347.55 2161,-381.97 2192.31,-392.16 2225.44,-410.75 2246.85,-423.93"/>
<polygon fill="midnightblue" stroke="midnightblue" points="2245.2,-427.03 2255.53,-429.38 2248.92,-421.1 2245.2,-427.03"/>
</g>
<!-- Node29&#45;&gt;Node13 -->
<g id="edge82" class="edge">
<title>Node29&#45;&gt;Node13</title>
<path fill="none" stroke="midnightblue" d="M951.08,-847.44C916.35,-834.16 863.73,-810.91 834.01,-795.51"/>
<polygon fill="midnightblue" stroke="midnightblue" points="835.33,-792.25 824.86,-790.61 832.03,-798.42 835.33,-792.25"/>
</g>
<!-- Node29&#45;&gt;Node17 -->
<g id="edge81" class="edge">
<title>Node29&#45;&gt;Node17</title>
<path fill="none" stroke="midnightblue" d="M1000.98,-866.53C1032.93,-889.2 1113.5,-946.35 1152.78,-974.21"/>
<polygon fill="midnightblue" stroke="midnightblue" points="1151.2,-977.38 1161.39,-980.31 1155.25,-971.67 1151.2,-977.38"/>
</g>
<!-- Node30&#45;&gt;Node2 -->
<g id="edge84" class="edge">
<title>Node30&#45;&gt;Node2</title>
<path fill="none" stroke="midnightblue" d="M1025.09,-809.6C1039.74,-815.35 1055.11,-824.29 1064,-837.97 1115.49,-917.24 1041.77,-1613.51 1100,-1687.97 1155.36,-1758.76 1399.05,-1789.17 1488,-1801.97 1601.94,-1818.36 1899.12,-1844.72 2006,-1801.97 2042.08,-1787.54 2072.23,-1752.05 2088.2,-1730.2"/>
<polygon fill="midnightblue" stroke="midnightblue" points="2091.25,-1731.95 2094.15,-1721.77 2085.53,-1727.91 2091.25,-1731.95"/>
</g>
<!-- Node30&#45;&gt;Node6 -->
<g id="edge85" class="edge">
<title>Node30&#45;&gt;Node6</title>
<path fill="none" stroke="midnightblue" d="M1061.26,-799.06C1205.24,-797.58 1533.84,-795.68 1810,-804.97 1897.22,-807.9 1922.88,-790.38 2006,-816.97 2034.5,-826.09 2063.06,-845.73 2081.2,-859.84"/>
<polygon fill="midnightblue" stroke="midnightblue" points="2079.23,-862.75 2089.23,-866.26 2083.6,-857.28 2079.23,-862.75"/>
</g>
<!-- Node30&#45;&gt;Node7 -->
<g id="edge86" class="edge">
<title>Node30&#45;&gt;Node7</title>
<path fill="none" stroke="midnightblue" d="M1001.96,-790.45C1017.85,-779.72 1043.79,-761.36 1064,-742.97 1173.85,-643.01 1177.98,-594.75 1288,-494.97 1452.9,-345.41 1511.88,-267.97 1734.5,-267.97 1734.5,-267.97 1734.5,-267.97 1927,-267.97 2031.97,-267.97 2069.95,-247.74 2161,-299.97 2210.47,-328.35 2245.59,-388.85 2261.1,-419.83"/>
<polygon fill="midnightblue" stroke="midnightblue" points="2258.09,-421.64 2265.6,-429.11 2264.39,-418.59 2258.09,-421.64"/>
</g>
<!-- Node30&#45;&gt;Node13 -->
<g id="edge88" class="edge">
<title>Node30&#45;&gt;Node13</title>
<path fill="none" stroke="midnightblue" d="M911.82,-798.6C893.41,-796.79 874.18,-794.48 857.55,-792.03"/>
<polygon fill="midnightblue" stroke="midnightblue" points="857.97,-788.56 847.55,-790.5 856.91,-795.48 857.97,-788.56"/>
</g>
<!-- Node30&#45;&gt;Node17 -->
<g id="edge87" class="edge">
<title>Node30&#45;&gt;Node17</title>
<path fill="none" stroke="midnightblue" d="M1014.14,-809.49C1029.76,-815.94 1049.26,-825.54 1064,-837.97 1110.66,-877.31 1148.32,-940.16 1165.28,-971.27"/>
<polygon fill="midnightblue" stroke="midnightblue" points="1162.24,-973.02 1170.04,-980.19 1168.42,-969.72 1162.24,-973.02"/>
</g>
<!-- Node31&#45;&gt;Node6 -->
<g id="edge90" class="edge">
<title>Node31&#45;&gt;Node6</title>
<path fill="none" stroke="midnightblue" d="M1780.46,-469.5C1840.27,-484.76 1946.63,-520.42 2006,-590.97 2074.82,-672.74 2094.02,-806.34 2098.94,-856.3"/>
<polygon fill="midnightblue" stroke="midnightblue" points="2095.46,-856.74 2099.84,-866.39 2102.43,-856.11 2095.46,-856.74"/>
</g>
<!-- Node31&#45;&gt;Node7 -->
<g id="edge91" class="edge">
<title>Node31&#45;&gt;Node7</title>
<path fill="none" stroke="midnightblue" d="M1808.73,-457.13C1909.59,-453.16 2091.77,-445.98 2194.41,-441.94"/>
<polygon fill="midnightblue" stroke="midnightblue" points="2194.84,-445.43 2204.69,-441.54 2194.56,-438.44 2194.84,-445.43"/>
</g>
<!-- Node32 -->
<g id="node32" class="node">
<title>Node32</title>
<g id="a_node32"><a xlink:href="../../d0/dfe/class_syntax_analyzer.html#adad79b2219ae143b49203a836713bec9" target="_top" xlink:title=" ">
<polygon fill="none" stroke="black" points="1846,-600.47 1846,-619.47 2006,-619.47 2006,-600.47 1846,-600.47"/>
<text text-anchor="middle" x="1926" y="-607.47" font-family="Helvetica,sans-Serif" font-size="10.00">SyntaxAnalyzer::syntaxConstDecl</text>
</a>
</g>
</g>
<!-- Node31&#45;&gt;Node32 -->
<g id="edge92" class="edge">
<title>Node31&#45;&gt;Node32</title>
<path fill="none" stroke="midnightblue" d="M1783.21,-469.55C1793.02,-473.34 1802.61,-478.62 1810,-485.97 1843.49,-519.28 1811.76,-553.42 1846,-585.97 1850.26,-590.02 1855.18,-593.39 1860.44,-596.19"/>
<polygon fill="midnightblue" stroke="midnightblue" points="1859.02,-599.38 1869.56,-600.39 1861.94,-593.02 1859.02,-599.38"/>
</g>
<!-- Node32&#45;&gt;Node2 -->
<g id="edge93" class="edge">
<title>Node32&#45;&gt;Node2</title>
<path fill="none" stroke="midnightblue" d="M1929.09,-619.77C1939.06,-666.85 1982.32,-874.73 2006,-1046.97 2029.11,-1215.03 2016.91,-1259.19 2042,-1426.97 2057.05,-1527.58 2084.62,-1646.27 2095.7,-1692.33"/>
<polygon fill="midnightblue" stroke="midnightblue" points="2092.34,-1693.3 2098.09,-1702.19 2099.14,-1691.65 2092.34,-1693.3"/>
</g>
<!-- Node32&#45;&gt;Node6 -->
<g id="edge94" class="edge">
<title>Node32&#45;&gt;Node6</title>
<path fill="none" stroke="midnightblue" d="M1981.89,-619.54C1990.7,-622.98 1999.16,-627.64 2006,-633.97 2072.53,-695.54 2092.84,-809.58 2098.5,-855.76"/>
<polygon fill="midnightblue" stroke="midnightblue" points="2095.05,-856.42 2099.64,-865.97 2102.01,-855.64 2095.05,-856.42"/>
</g>
<!-- Node32&#45;&gt;Node7 -->
<g id="edge96" class="edge">
<title>Node32&#45;&gt;Node7</title>
<path fill="none" stroke="midnightblue" d="M2001.72,-600.43C2049.67,-591.9 2111.92,-576.22 2161,-547.97 2202.14,-524.3 2238.59,-481.11 2257.1,-456.81"/>
<polygon fill="midnightblue" stroke="midnightblue" points="2260.13,-458.61 2263.29,-448.5 2254.51,-454.43 2260.13,-458.61"/>
</g>
<!-- Node32&#45;&gt;Node9 -->
<g id="edge97" class="edge">
<title>Node32&#45;&gt;Node9</title>
<path fill="none" stroke="midnightblue" d="M1930.16,-600.28C1950.73,-537.21 2065.64,-184.86 2094.12,-97.55"/>
<polygon fill="midnightblue" stroke="midnightblue" points="2097.51,-98.43 2097.28,-87.84 2090.85,-96.26 2097.51,-98.43"/>
</g>
<!-- Node32&#45;&gt;Node22 -->
<g id="edge95" class="edge">
<title>Node32&#45;&gt;Node22</title>
<path fill="none" stroke="midnightblue" d="M1928.72,-619.59C1941.6,-691.25 2022.79,-1139.56 2042,-1160.97 2043.2,-1162.31 2044.5,-1163.55 2045.87,-1164.71"/>
<polygon fill="midnightblue" stroke="midnightblue" points="2044.2,-1167.8 2054.46,-1170.43 2048.08,-1161.98 2044.2,-1167.8"/>
</g>
<!-- Node33&#45;&gt;Node6 -->
<g id="edge99" class="edge">
<title>Node33&#45;&gt;Node6</title>
<path fill="none" stroke="midnightblue" d="M1578.61,-1208.37C1637.76,-1181.4 1801.35,-1106.31 1810,-1096.97 1840.1,-1064.44 1812.6,-1033.11 1846,-1003.97 1901.08,-955.92 1949.09,-1011.83 2006,-965.97 2034.79,-942.77 2013.42,-914.42 2042,-890.97 2042.08,-890.9 2042.17,-890.83 2042.25,-890.76"/>
<polygon fill="midnightblue" stroke="midnightblue" points="2044.24,-893.65 2050.75,-885.29 2040.45,-887.76 2044.24,-893.65"/>
</g>
<!-- Node33&#45;&gt;Node7 -->
<g id="edge100" class="edge">
<title>Node33&#45;&gt;Node7</title>
<path fill="none" stroke="midnightblue" d="M1571.81,-1208.38C1586.52,-1198 1609.41,-1180.32 1625,-1160.97 1646.45,-1134.34 1634.66,-1114.78 1661,-1092.97 1714.38,-1048.76 1766.95,-1101.29 1810,-1046.97 1882.08,-956.02 1769.59,-613.32 1846,-525.97 1852.01,-519.1 2093.35,-472.5 2209.18,-450.47"/>
<polygon fill="midnightblue" stroke="midnightblue" points="2210.14,-453.85 2219.31,-448.54 2208.84,-446.97 2210.14,-453.85"/>
</g>
<!-- Node34 -->
<g id="node34" class="node">
<title>Node34</title>
<g id="a_node34"><a xlink:href="../../d0/dfe/class_syntax_analyzer.html#a8f6dda26a96ec0e5e75bea5eed577856" target="_top" xlink:title=" ">
<polygon fill="none" stroke="black" points="1661,-1246.47 1661,-1265.47 1810,-1265.47 1810,-1246.47 1661,-1246.47"/>
<text text-anchor="middle" x="1735.5" y="-1253.47" font-family="Helvetica,sans-Serif" font-size="10.00">SyntaxAnalyzer::syntaxVarDecl</text>
</a>
</g>
</g>
<!-- Node33&#45;&gt;Node34 -->
<g id="edge101" class="edge">
<title>Node33&#45;&gt;Node34</title>
<path fill="none" stroke="midnightblue" d="M1602.16,-1227.56C1625.84,-1232.64 1655.11,-1238.92 1680.1,-1244.29"/>
<polygon fill="midnightblue" stroke="midnightblue" points="1679.64,-1247.77 1690.16,-1246.45 1681.11,-1240.93 1679.64,-1247.77"/>
</g>
<!-- Node34&#45;&gt;Node2 -->
<g id="edge102" class="edge">
<title>Node34&#45;&gt;Node2</title>
<path fill="none" stroke="midnightblue" d="M1737.3,-1265.58C1741.11,-1305.23 1760.99,-1457.61 1846,-1535.97 1900.59,-1586.29 1945.28,-1541.25 2006,-1583.97 2047.04,-1612.85 2077.43,-1665.21 2091.61,-1693.17"/>
<polygon fill="midnightblue" stroke="midnightblue" points="2088.54,-1694.86 2096.09,-1702.28 2094.82,-1691.77 2088.54,-1694.86"/>
</g>
<!-- Node34&#45;&gt;Node6 -->
<g id="edge103" class="edge">
<title>Node34&#45;&gt;Node6</title>
<path fill="none" stroke="midnightblue" d="M1775.18,-1246.36C1787.33,-1241.95 1800.13,-1235.69 1810,-1226.97 1835.04,-1204.85 1819.45,-1181.25 1846,-1160.97 1904.08,-1116.6 1951.02,-1171.12 2006,-1122.97 2076.04,-1061.63 2094.41,-942.49 2099.03,-895.6"/>
<polygon fill="midnightblue" stroke="midnightblue" points="2102.52,-895.82 2099.91,-885.55 2095.55,-895.21 2102.52,-895.82"/>
</g>
<!-- Node34&#45;&gt;Node7 -->
<g id="edge104" class="edge">
<title>Node34&#45;&gt;Node7</title>
<path fill="none" stroke="midnightblue" d="M1781.44,-1265.49C1868.08,-1280.94 2058.67,-1300.38 2161,-1198.97 2174.67,-1185.42 2252.46,-577.22 2267.49,-458.82"/>
<polygon fill="midnightblue" stroke="midnightblue" points="2270.99,-459.03 2268.77,-448.67 2264.04,-458.15 2270.99,-459.03"/>
</g>
<!-- Node35 -->
<g id="node35" class="node">
<title>Node35</title>
<g id="a_node35"><a xlink:href="../../d0/dfe/class_syntax_analyzer.html#a5d262eb9e2236dde3bd043eea0b0e957" target="_top" xlink:title=" ">
<polygon fill="none" stroke="black" points="1847,-1322.47 1847,-1341.47 2005,-1341.47 2005,-1322.47 1847,-1322.47"/>
<text text-anchor="middle" x="1926" y="-1329.47" font-family="Helvetica,sans-Serif" font-size="10.00">SyntaxAnalyzer::syntaxTypeSpec</text>
</a>
</g>
</g>
<!-- Node34&#45;&gt;Node35 -->
<g id="edge105" class="edge">
<title>Node34&#45;&gt;Node35</title>
<path fill="none" stroke="midnightblue" d="M1754.73,-1265.66C1776.17,-1276.8 1813.03,-1295.21 1846,-1307.97 1856.86,-1312.17 1868.78,-1316.12 1879.99,-1319.56"/>
<polygon fill="midnightblue" stroke="midnightblue" points="1879.04,-1322.92 1889.62,-1322.44 1881.04,-1316.22 1879.04,-1322.92"/>
</g>
<!-- Node35&#45;&gt;Node2 -->
<g id="edge106" class="edge">
<title>Node35&#45;&gt;Node2</title>
<path fill="none" stroke="midnightblue" d="M1947.12,-1341.59C1965.1,-1351.18 1990.87,-1367.56 2006,-1388.97 2075.9,-1487.88 2094.56,-1638.39 2099.13,-1692.08"/>
<polygon fill="midnightblue" stroke="midnightblue" points="2095.66,-1692.58 2099.92,-1702.28 2102.64,-1692.04 2095.66,-1692.58"/>
</g>
<!-- Node35&#45;&gt;Node7 -->
<g id="edge108" class="edge">
<title>Node35&#45;&gt;Node7</title>
<path fill="none" stroke="midnightblue" d="M2005.07,-1332.43C2057,-1328.3 2122.5,-1313.77 2161,-1269.97 2164.49,-1266 2251.54,-583.85 2267.5,-458.6"/>
<polygon fill="midnightblue" stroke="midnightblue" points="2270.99,-458.9 2268.78,-448.54 2264.05,-458.02 2270.99,-458.9"/>
</g>
<!-- Node35&#45;&gt;Node22 -->
<g id="edge107" class="edge">
<title>Node35&#45;&gt;Node22</title>
<path fill="none" stroke="midnightblue" d="M1937.85,-1322.46C1966.7,-1297.19 2045.54,-1228.12 2081.8,-1196.35"/>
<polygon fill="midnightblue" stroke="midnightblue" points="2084.44,-1198.7 2089.65,-1189.47 2079.82,-1193.43 2084.44,-1198.7"/>
</g>
</g>
</svg>
