<?xml version="1.0" encoding="UTF-8" standalone="no"?>
<!DOCTYPE svg PUBLIC "-//W3C//DTD SVG 1.1//EN"
 "http://www.w3.org/Graphics/SVG/1.1/DTD/svg11.dtd">
<!-- Generated by graphviz version 3.0.0 (20220413.0106)
 -->
<!-- Title: SyntaxAnalyzer::lookFoward Pages: 1 -->
<svg width="2228pt" height="155pt"
 viewBox="0.00 0.00 2228.00 154.75" xmlns="http://www.w3.org/2000/svg" xmlns:xlink="http://www.w3.org/1999/xlink">
<g id="graph0" class="graph" transform="scale(1 1) rotate(0) translate(4 150.75)">
<title>SyntaxAnalyzer::lookFoward</title>
<!-- Node1 -->
<g id="node1" class="node">
<title>Node1</title>
<g id="a_node1"><a xlink:title=" ">
<polygon fill="#bfbfbf" stroke="black" points="2083,-13.25 2083,-32.25 2220,-32.25 2220,-13.25 2083,-13.25"/>
<text text-anchor="middle" x="2151.5" y="-20.25" font-family="Helvetica,sans-Serif" font-size="10.00">SyntaxAnalyzer::lookFoward</text>
</a>
</g>
</g>
<!-- Node2 -->
<g id="node2" class="node">
<title>Node2</title>
<g id="a_node2"><a xlink:href="../../d0/dfe/class_syntax_analyzer.html#ab9b415ddd671b4884ab31cdf194f6c64" target="_top" xlink:title=" ">
<polygon fill="none" stroke="black" points="1904,-51.25 1904,-70.25 2047,-70.25 2047,-51.25 1904,-51.25"/>
<text text-anchor="middle" x="1975.5" y="-58.25" font-family="Helvetica,sans-Serif" font-size="10.00">SyntaxAnalyzer::syntaxFactor</text>
</a>
</g>
</g>
<!-- Node1&#45;&gt;Node2 -->
<g id="edge1" class="edge">
<title>Node1&#45;&gt;Node2</title>
<path fill="none" stroke="midnightblue" d="M2096.69,-34.5C2072.08,-39.88 2043.31,-46.16 2020.09,-51.23"/>
<polygon fill="midnightblue" stroke="midnightblue" points="2097.57,-37.89 2106.59,-32.34 2096.08,-31.05 2097.57,-37.89"/>
</g>
<!-- Node7 -->
<g id="node7" class="node">
<title>Node7</title>
<g id="a_node7"><a xlink:href="../../d0/dfe/class_syntax_analyzer.html#affae37bc1fa3a4016dcffad4affbfcbd" target="_top" xlink:title=" ">
<polygon fill="none" stroke="black" points="1009,-70.25 1009,-89.25 1134,-89.25 1134,-70.25 1009,-70.25"/>
<text text-anchor="middle" x="1071.5" y="-77.25" font-family="Helvetica,sans-Serif" font-size="10.00">SyntaxAnalyzer::syntaxSt</text>
</a>
</g>
</g>
<!-- Node1&#45;&gt;Node7 -->
<g id="edge25" class="edge">
<title>Node1&#45;&gt;Node7</title>
<path fill="none" stroke="midnightblue" d="M2072.62,-16.1C2001.74,-10.62 1894.17,-3.75 1800.5,-3.75 1800.5,-3.75 1800.5,-3.75 1427,-3.75 1312.47,-3.75 1279.37,11.25 1170,-22.75 1136.48,-33.17 1102.17,-56.89 1084.56,-70.21"/>
<polygon fill="midnightblue" stroke="midnightblue" points="2072.57,-19.6 2082.81,-16.89 2073.11,-12.63 2072.57,-19.6"/>
</g>
<!-- Node2&#45;&gt;Node2 -->
<g id="edge2" class="edge">
<title>Node2&#45;&gt;Node2</title>
<path fill="none" stroke="midnightblue" d="M2008.48,-78.64C2008,-84.29 1997.01,-88.75 1975.5,-88.75 1944.22,-88.75 1935.18,-79.32 1948.37,-70.51"/>
<polygon fill="midnightblue" stroke="midnightblue" points="2011.31,-76.58 2002.63,-70.51 2005.63,-80.67 2011.31,-76.58"/>
</g>
<!-- Node3 -->
<g id="node3" class="node">
<title>Node3</title>
<g id="a_node3"><a xlink:href="../../d0/dfe/class_syntax_analyzer.html#a7721cf7d36d549f81fd05c40dba02f67" target="_top" xlink:title=" ">
<polygon fill="none" stroke="black" points="1731,-108.25 1731,-127.25 1868,-127.25 1868,-108.25 1731,-108.25"/>
<text text-anchor="middle" x="1799.5" y="-115.25" font-family="Helvetica,sans-Serif" font-size="10.00">SyntaxAnalyzer::syntaxTerm</text>
</a>
</g>
</g>
<!-- Node2&#45;&gt;Node3 -->
<g id="edge3" class="edge">
<title>Node2&#45;&gt;Node3</title>
<path fill="none" stroke="midnightblue" d="M1935.87,-73.41C1903.79,-83.91 1858.86,-98.63 1829.72,-108.18"/>
<polygon fill="midnightblue" stroke="midnightblue" points="1936.96,-76.73 1945.38,-70.29 1934.78,-70.08 1936.96,-76.73"/>
</g>
<!-- Node4 -->
<g id="node4" class="node">
<title>Node4</title>
<g id="a_node4"><a xlink:href="../../d0/dfe/class_syntax_analyzer.html#a920d9565d4aa2e3815ff9e7146f45a0b" target="_top" xlink:title=" ">
<polygon fill="none" stroke="black" points="1531,-108.25 1531,-127.25 1695,-127.25 1695,-108.25 1531,-108.25"/>
<text text-anchor="middle" x="1613" y="-115.25" font-family="Helvetica,sans-Serif" font-size="10.00">SyntaxAnalyzer::syntaxSimpleExpr</text>
</a>
</g>
</g>
<!-- Node3&#45;&gt;Node4 -->
<g id="edge4" class="edge">
<title>Node3&#45;&gt;Node4</title>
<path fill="none" stroke="midnightblue" d="M1720.65,-117.75C1712.2,-117.75 1703.59,-117.75 1695.11,-117.75"/>
<polygon fill="midnightblue" stroke="midnightblue" points="1720.85,-121.25 1730.85,-117.75 1720.85,-114.25 1720.85,-121.25"/>
</g>
<!-- Node5 -->
<g id="node5" class="node">
<title>Node5</title>
<g id="a_node5"><a xlink:href="../../d0/dfe/class_syntax_analyzer.html#a53b0048490647d82a92a77ed1ffb013d" target="_top" xlink:title=" ">
<polygon fill="none" stroke="black" points="1361,-89.25 1361,-108.25 1495,-108.25 1495,-89.25 1361,-89.25"/>
<text text-anchor="middle" x="1428" y="-96.25" font-family="Helvetica,sans-Serif" font-size="10.00">SyntaxAnalyzer::syntaxExpr</text>
</a>
</g>
</g>
<!-- Node4&#45;&gt;Node5 -->
<g id="edge5" class="edge">
<title>Node4&#45;&gt;Node5</title>
<path fill="none" stroke="midnightblue" d="M1520.81,-108.28C1512.17,-107.39 1503.53,-106.49 1495.19,-105.62"/>
<polygon fill="midnightblue" stroke="midnightblue" points="1520.63,-111.78 1530.93,-109.33 1521.35,-104.82 1520.63,-111.78"/>
</g>
<!-- Node5&#45;&gt;Node2 -->
<g id="edge22" class="edge">
<title>Node5&#45;&gt;Node2</title>
<path fill="none" stroke="midnightblue" d="M1505.65,-93.41C1611.54,-86.03 1801.08,-72.83 1903.74,-65.68"/>
<polygon fill="midnightblue" stroke="midnightblue" points="1505.09,-89.94 1495.36,-94.13 1505.58,-96.92 1505.09,-89.94"/>
</g>
<!-- Node6 -->
<g id="node6" class="node">
<title>Node6</title>
<g id="a_node6"><a xlink:href="../../d0/dfe/class_syntax_analyzer.html#ae57b60364b17a4772143fe9a6c3bc2c7" target="_top" xlink:title=" ">
<polygon fill="none" stroke="black" points="1170,-70.25 1170,-89.25 1325,-89.25 1325,-70.25 1170,-70.25"/>
<text text-anchor="middle" x="1247.5" y="-77.25" font-family="Helvetica,sans-Serif" font-size="10.00">SyntaxAnalyzer::syntaxAssignSt</text>
</a>
</g>
</g>
<!-- Node5&#45;&gt;Node6 -->
<g id="edge6" class="edge">
<title>Node5&#45;&gt;Node6</title>
<path fill="none" stroke="midnightblue" d="M1350.6,-90.62C1342.17,-89.72 1333.58,-88.81 1325.15,-87.91"/>
<polygon fill="midnightblue" stroke="midnightblue" points="1350.47,-94.12 1360.79,-91.7 1351.21,-87.16 1350.47,-94.12"/>
</g>
<!-- Node8 -->
<g id="node8" class="node">
<title>Node8</title>
<g id="a_node8"><a xlink:href="../../d0/dfe/class_syntax_analyzer.html#addd3ca96f66a5261f904e2e0c78a898a" target="_top" xlink:title=" ">
<polygon fill="none" stroke="black" points="833,-89.25 833,-108.25 964,-108.25 964,-89.25 833,-89.25"/>
<text text-anchor="middle" x="898.5" y="-96.25" font-family="Helvetica,sans-Serif" font-size="10.00">SyntaxAnalyzer::syntaxIfSt</text>
</a>
</g>
</g>
<!-- Node5&#45;&gt;Node8 -->
<g id="edge23" class="edge">
<title>Node5&#45;&gt;Node8</title>
<path fill="none" stroke="midnightblue" d="M1350.88,-98.75C1246.86,-98.75 1062.1,-98.75 964.34,-98.75"/>
<polygon fill="midnightblue" stroke="midnightblue" points="1350.99,-102.25 1360.99,-98.75 1350.99,-95.25 1350.99,-102.25"/>
</g>
<!-- Node15 -->
<g id="node15" class="node">
<title>Node15</title>
<g id="a_node15"><a xlink:href="../../d0/dfe/class_syntax_analyzer.html#a35bb1125afde4b827a0dd8f3bce8dc58" target="_top" xlink:title=" ">
<polygon fill="none" stroke="black" points="824,-127.25 824,-146.25 973,-146.25 973,-127.25 824,-127.25"/>
<text text-anchor="middle" x="898.5" y="-134.25" font-family="Helvetica,sans-Serif" font-size="10.00">SyntaxAnalyzer::syntaxWhileSt</text>
</a>
</g>
</g>
<!-- Node5&#45;&gt;Node15 -->
<g id="edge24" class="edge">
<title>Node5&#45;&gt;Node15</title>
<path fill="none" stroke="midnightblue" d="M1353.21,-109.59C1343.73,-110.77 1334.15,-111.87 1325,-112.75 1201.83,-124.66 1057.98,-131.25 973.05,-134.39"/>
<polygon fill="midnightblue" stroke="midnightblue" points="1353.96,-113.02 1363.43,-108.28 1353.07,-106.08 1353.96,-113.02"/>
</g>
<!-- Node16 -->
<g id="node16" class="node">
<title>Node16</title>
<g id="a_node16"><a xlink:href="../../d0/dfe/class_syntax_analyzer.html#a9321de68e44f3918a71256a3c1cd481b" target="_top" xlink:title=" ">
<polygon fill="none" stroke="black" points="1177,-32.25 1177,-51.25 1318,-51.25 1318,-32.25 1177,-32.25"/>
<text text-anchor="middle" x="1247.5" y="-39.25" font-family="Helvetica,sans-Serif" font-size="10.00">SyntaxAnalyzer::syntaxCallSt</text>
</a>
</g>
</g>
<!-- Node5&#45;&gt;Node16 -->
<g id="edge19" class="edge">
<title>Node5&#45;&gt;Node16</title>
<path fill="none" stroke="midnightblue" d="M1394.27,-85.48C1374.42,-77.7 1348.47,-68.01 1325,-60.75 1313.89,-57.31 1301.72,-54.06 1290.42,-51.26"/>
<polygon fill="midnightblue" stroke="midnightblue" points="1393.18,-88.81 1403.76,-89.23 1395.75,-82.3 1393.18,-88.81"/>
</g>
<!-- Node6&#45;&gt;Node7 -->
<g id="edge7" class="edge">
<title>Node6&#45;&gt;Node7</title>
<path fill="none" stroke="midnightblue" d="M1159.81,-79.75C1151.17,-79.75 1142.52,-79.75 1134.22,-79.75"/>
<polygon fill="midnightblue" stroke="midnightblue" points="1159.93,-83.25 1169.93,-79.75 1159.93,-76.25 1159.93,-83.25"/>
</g>
<!-- Node7&#45;&gt;Node8 -->
<g id="edge8" class="edge">
<title>Node7&#45;&gt;Node8</title>
<path fill="none" stroke="midnightblue" d="M998.72,-81.05C976.62,-83.26 953.27,-86.21 934.78,-89.25"/>
<polygon fill="midnightblue" stroke="midnightblue" points="999.14,-84.53 1008.77,-80.1 998.48,-77.56 999.14,-84.53"/>
</g>
<!-- Node9 -->
<g id="node9" class="node">
<title>Node9</title>
<g id="a_node9"><a xlink:href="../../d0/dfe/class_syntax_analyzer.html#a79a0e444afd499634f445f0b8919dd0f" target="_top" xlink:title=" ">
<polygon fill="none" stroke="black" points="828,-13.25 828,-32.25 969,-32.25 969,-13.25 828,-13.25"/>
<text text-anchor="middle" x="898.5" y="-20.25" font-family="Helvetica,sans-Serif" font-size="10.00">SyntaxAnalyzer::syntaxStList</text>
</a>
</g>
</g>
<!-- Node7&#45;&gt;Node9 -->
<g id="edge10" class="edge">
<title>Node7&#45;&gt;Node9</title>
<path fill="none" stroke="midnightblue" d="M1032.77,-66.87C1014.7,-60.74 992.75,-53.32 973,-46.75 958.48,-41.92 942.32,-36.64 928.85,-32.25"/>
<polygon fill="midnightblue" stroke="midnightblue" points="1031.77,-70.23 1042.37,-70.14 1034.03,-63.61 1031.77,-70.23"/>
</g>
<!-- Node7&#45;&gt;Node15 -->
<g id="edge17" class="edge">
<title>Node7&#45;&gt;Node15</title>
<path fill="none" stroke="midnightblue" d="M1017.94,-92.88C1003.5,-98.18 987.75,-103.99 973,-108.75 952.31,-115.43 927.75,-121.39 912.91,-127.2"/>
<polygon fill="midnightblue" stroke="midnightblue" points="1019.51,-96.04 1027.7,-89.32 1017.1,-89.46 1019.51,-96.04"/>
</g>
<!-- Node8&#45;&gt;Node7 -->
<g id="edge9" class="edge">
<title>Node8&#45;&gt;Node7</title>
<path fill="none" stroke="midnightblue" d="M974.22,-97.15C995.37,-94.99 1017.42,-92.17 1035.07,-89.28"/>
<polygon fill="midnightblue" stroke="midnightblue" points="973.87,-93.67 964.26,-98.13 974.55,-100.63 973.87,-93.67"/>
</g>
<!-- Node10 -->
<g id="node10" class="node">
<title>Node10</title>
<g id="a_node10"><a xlink:href="../../d0/dfe/class_syntax_analyzer.html#a2c0c19bfe9775405a5b6985cf1c8854c" target="_top" xlink:title=" ">
<polygon fill="none" stroke="black" points="617,-32.25 617,-51.25 788,-51.25 788,-32.25 617,-32.25"/>
<text text-anchor="middle" x="702.5" y="-39.25" font-family="Helvetica,sans-Serif" font-size="10.00">SyntaxAnalyzer::syntaxCompoundSt</text>
</a>
</g>
</g>
<!-- Node9&#45;&gt;Node10 -->
<g id="edge11" class="edge">
<title>Node9&#45;&gt;Node10</title>
<path fill="none" stroke="midnightblue" d="M817.7,-30.57C807.97,-31.52 798.01,-32.49 788.21,-33.45"/>
<polygon fill="midnightblue" stroke="midnightblue" points="818.12,-34.04 827.74,-29.58 817.44,-27.07 818.12,-34.04"/>
</g>
<!-- Node10&#45;&gt;Node7 -->
<g id="edge16" class="edge">
<title>Node10&#45;&gt;Node7</title>
<path fill="none" stroke="midnightblue" d="M798.36,-51.57C864.61,-58.43 951.14,-67.39 1008.66,-73.35"/>
<polygon fill="midnightblue" stroke="midnightblue" points="798.63,-48.08 788.32,-50.53 797.91,-55.04 798.63,-48.08"/>
</g>
<!-- Node11 -->
<g id="node11" class="node">
<title>Node11</title>
<g id="a_node11"><a xlink:href="../../d0/dfe/class_syntax_analyzer.html#aa93b0d722276e335971360e093f19a8e" target="_top" xlink:title=" ">
<polygon fill="none" stroke="black" points="441,-32.25 441,-51.25 581,-51.25 581,-32.25 441,-32.25"/>
<text text-anchor="middle" x="511" y="-39.25" font-family="Helvetica,sans-Serif" font-size="10.00">SyntaxAnalyzer::syntaxBlock</text>
</a>
</g>
</g>
<!-- Node10&#45;&gt;Node11 -->
<g id="edge12" class="edge">
<title>Node10&#45;&gt;Node11</title>
<path fill="none" stroke="midnightblue" d="M606.63,-41.75C598.02,-41.75 589.41,-41.75 581.08,-41.75"/>
<polygon fill="midnightblue" stroke="midnightblue" points="606.73,-45.25 616.73,-41.75 606.73,-38.25 606.73,-45.25"/>
</g>
<!-- Node12 -->
<g id="node12" class="node">
<title>Node12</title>
<g id="a_node12"><a xlink:href="../../d0/dfe/class_syntax_analyzer.html#aeb59cd0062ff3238bcf625c7e20fc5ec" target="_top" xlink:title=" ">
<polygon fill="none" stroke="black" points="253,-32.25 253,-51.25 405,-51.25 405,-32.25 253,-32.25"/>
<text text-anchor="middle" x="329" y="-39.25" font-family="Helvetica,sans-Serif" font-size="10.00">SyntaxAnalyzer::syntaxProgram</text>
</a>
</g>
</g>
<!-- Node11&#45;&gt;Node12 -->
<g id="edge13" class="edge">
<title>Node11&#45;&gt;Node12</title>
<path fill="none" stroke="midnightblue" d="M430.67,-41.75C422.2,-41.75 413.6,-41.75 405.18,-41.75"/>
<polygon fill="midnightblue" stroke="midnightblue" points="430.92,-45.25 440.92,-41.75 430.92,-38.25 430.92,-45.25"/>
</g>
<!-- Node13 -->
<g id="node13" class="node">
<title>Node13</title>
<g id="a_node13"><a xlink:href="../../d0/dfe/class_syntax_analyzer.html#a0472b9d7f2855f118acf9cb7c67ab5a7" target="_top" xlink:title=" ">
<polygon fill="none" stroke="black" points="74,-32.25 74,-51.25 217,-51.25 217,-32.25 74,-32.25"/>
<text text-anchor="middle" x="145.5" y="-39.25" font-family="Helvetica,sans-Serif" font-size="10.00">SyntaxAnalyzer::parseTokens</text>
</a>
</g>
</g>
<!-- Node12&#45;&gt;Node13 -->
<g id="edge14" class="edge">
<title>Node12&#45;&gt;Node13</title>
<path fill="none" stroke="midnightblue" d="M242.84,-41.75C234.26,-41.75 225.61,-41.75 217.21,-41.75"/>
<polygon fill="midnightblue" stroke="midnightblue" points="242.87,-45.25 252.87,-41.75 242.87,-38.25 242.87,-45.25"/>
</g>
<!-- Node14 -->
<g id="node14" class="node">
<title>Node14</title>
<g id="a_node14"><a xlink:href="../../df/d0a/main_8cpp.html#a3c04138a5bfe5d72780bb7e82a18e627" target="_top" xlink:title=" ">
<polygon fill="none" stroke="black" points="0,-32.25 0,-51.25 38,-51.25 38,-32.25 0,-32.25"/>
<text text-anchor="middle" x="19" y="-39.25" font-family="Helvetica,sans-Serif" font-size="10.00">main</text>
</a>
</g>
</g>
<!-- Node13&#45;&gt;Node14 -->
<g id="edge15" class="edge">
<title>Node13&#45;&gt;Node14</title>
<path fill="none" stroke="midnightblue" d="M63.84,-41.75C54.38,-41.75 45.54,-41.75 38.31,-41.75"/>
<polygon fill="midnightblue" stroke="midnightblue" points="63.88,-45.25 73.88,-41.75 63.88,-38.25 63.88,-45.25"/>
</g>
<!-- Node15&#45;&gt;Node7 -->
<g id="edge18" class="edge">
<title>Node15&#45;&gt;Node7</title>
<path fill="none" stroke="midnightblue" d="M981.17,-124.02C1012.54,-113.3 1044.88,-99.47 1060.67,-89.41"/>
<polygon fill="midnightblue" stroke="midnightblue" points="979.87,-120.76 971.49,-127.24 982.08,-127.4 979.87,-120.76"/>
</g>
<!-- Node16&#45;&gt;Node2 -->
<g id="edge20" class="edge">
<title>Node16&#45;&gt;Node2</title>
<path fill="none" stroke="midnightblue" d="M1328.21,-43.84C1470.96,-47.57 1768.01,-55.35 1903.9,-58.9"/>
<polygon fill="midnightblue" stroke="midnightblue" points="1328.29,-40.34 1318.2,-43.57 1328.1,-47.34 1328.29,-40.34"/>
</g>
<!-- Node16&#45;&gt;Node7 -->
<g id="edge21" class="edge">
<title>Node16&#45;&gt;Node7</title>
<path fill="none" stroke="midnightblue" d="M1192.69,-53.5C1168.08,-58.88 1139.31,-65.16 1116.09,-70.23"/>
<polygon fill="midnightblue" stroke="midnightblue" points="1193.57,-56.89 1202.59,-51.34 1192.08,-50.05 1193.57,-56.89"/>
</g>
</g>
</svg>
