<?xml version="1.0" encoding="UTF-8" standalone="no"?>
<!DOCTYPE svg PUBLIC "-//W3C//DTD SVG 1.1//EN"
 "http://www.w3.org/Graphics/SVG/1.1/DTD/svg11.dtd">
<!-- Generated by graphviz version 3.0.0 (20220413.0106)
 -->
<!-- Title: SyntaxAnalyzer::syntaxVars Pages: 1 -->
<svg width="843pt" height="126pt"
 viewBox="0.00 0.00 843.00 126.12" xmlns="http://www.w3.org/2000/svg" xmlns:xlink="http://www.w3.org/1999/xlink">
<g id="graph0" class="graph" transform="scale(1 1) rotate(0) translate(4 122.12)">
<title>SyntaxAnalyzer::syntaxVars</title>
<!-- Node1 -->
<g id="node1" class="node">
<title>Node1</title>
<g id="a_node1"><a xlink:title=" ">
<polygon fill="#bfbfbf" stroke="black" points="0,-57.5 0,-76.5 135,-76.5 135,-57.5 0,-57.5"/>
<text text-anchor="middle" x="67.5" y="-64.5" font-family="Helvetica,sans-Serif" font-size="10.00">SyntaxAnalyzer::syntaxVars</text>
</a>
</g>
</g>
<!-- Node2 -->
<g id="node2" class="node">
<title>Node2</title>
<g id="a_node2"><a xlink:href="../../d0/dfe/class_syntax_analyzer.html#a5d17bcae2fd7dc11d0710e046c4c3280" target="_top" xlink:title=" ">
<polygon fill="none" stroke="black" points="550,-19.5 550,-38.5 651,-38.5 651,-19.5 550,-19.5"/>
<text text-anchor="middle" x="600.5" y="-26.5" font-family="Helvetica,sans-Serif" font-size="10.00">SyntaxAnalyzer::eat</text>
</a>
</g>
</g>
<!-- Node1&#45;&gt;Node2 -->
<g id="edge1" class="edge">
<title>Node1&#45;&gt;Node2</title>
<path fill="none" stroke="midnightblue" d="M115.31,-57.5C132.74,-54.18 152.73,-50.63 171,-48 252.81,-36.24 273.45,-33.23 356,-29 418.47,-25.8 490.08,-26.3 539.39,-27.29"/>
<polygon fill="midnightblue" stroke="midnightblue" points="539.49,-30.79 549.56,-27.51 539.64,-23.8 539.49,-30.79"/>
</g>
<!-- Node4 -->
<g id="node4" class="node">
<title>Node4</title>
<g id="a_node4"><a xlink:href="../../d0/dfe/class_syntax_analyzer.html#a3ae6c7319e61cd669c417f189b098374" target="_top" xlink:title=" ">
<polygon fill="none" stroke="black" points="695,-86.5 695,-105.5 827,-105.5 827,-86.5 695,-86.5"/>
<text text-anchor="middle" x="761" y="-93.5" font-family="Helvetica,sans-Serif" font-size="10.00">SyntaxAnalyzer::getCurTok</text>
</a>
</g>
</g>
<!-- Node1&#45;&gt;Node4 -->
<g id="edge5" class="edge">
<title>Node1&#45;&gt;Node4</title>
<path fill="none" stroke="midnightblue" d="M115.05,-76.51C132.54,-79.85 152.63,-83.41 171,-86 382.53,-115.84 437.88,-125.6 651,-111 664.14,-110.1 678.1,-108.6 691.5,-106.88"/>
<polygon fill="midnightblue" stroke="midnightblue" points="692.15,-110.33 701.6,-105.53 691.23,-103.39 692.15,-110.33"/>
</g>
<!-- Node6 -->
<g id="node6" class="node">
<title>Node6</title>
<g id="a_node6"><a xlink:href="../../d0/dfe/class_syntax_analyzer.html#a3106ad7f9a5cf50b2c277c28401422ec" target="_top" xlink:title=" ">
<polygon fill="none" stroke="black" points="171,-57.5 171,-76.5 320,-76.5 320,-57.5 171,-57.5"/>
<text text-anchor="middle" x="245.5" y="-64.5" font-family="Helvetica,sans-Serif" font-size="10.00">SyntaxAnalyzer::syntaxVarDecl</text>
</a>
</g>
</g>
<!-- Node1&#45;&gt;Node6 -->
<g id="edge6" class="edge">
<title>Node1&#45;&gt;Node6</title>
<path fill="none" stroke="midnightblue" d="M135.04,-67C143.43,-67 152.11,-67 160.73,-67"/>
<polygon fill="midnightblue" stroke="midnightblue" points="160.8,-70.5 170.8,-67 160.8,-63.5 160.8,-70.5"/>
</g>
<!-- Node3 -->
<g id="node3" class="node">
<title>Node3</title>
<g id="a_node3"><a xlink:href="../../d2/da7/namespacemagic__enum.html#af505522c30c0e3ff627fb3e39b67a6c5" target="_top" xlink:title=" ">
<polygon fill="none" stroke="black" points="696,-38.5 696,-57.5 826,-57.5 826,-38.5 696,-38.5"/>
<text text-anchor="middle" x="761" y="-45.5" font-family="Helvetica,sans-Serif" font-size="10.00">magic_enum::enum_name</text>
</a>
</g>
</g>
<!-- Node2&#45;&gt;Node3 -->
<g id="edge2" class="edge">
<title>Node2&#45;&gt;Node3</title>
<path fill="none" stroke="midnightblue" d="M651.22,-34.96C662.17,-36.27 674,-37.69 685.69,-39.09"/>
<polygon fill="midnightblue" stroke="midnightblue" points="685.55,-42.6 695.9,-40.32 686.39,-35.65 685.55,-42.6"/>
</g>
<!-- Node2&#45;&gt;Node4 -->
<g id="edge3" class="edge">
<title>Node2&#45;&gt;Node4</title>
<path fill="none" stroke="midnightblue" d="M622.48,-38.61C639.73,-46.43 664.84,-57.68 687,-67 699.6,-72.3 713.52,-77.89 725.8,-82.74"/>
<polygon fill="midnightblue" stroke="midnightblue" points="724.65,-86.05 735.23,-86.45 727.2,-79.53 724.65,-86.05"/>
</g>
<!-- Node5 -->
<g id="node5" class="node">
<title>Node5</title>
<g id="a_node5"><a xlink:href="../../d0/dfe/class_syntax_analyzer.html#a9e41370d8d74fbd2e77648d2071e7dfe" target="_top" xlink:title=" ">
<polygon fill="none" stroke="black" points="687,-0.5 687,-19.5 835,-19.5 835,-0.5 687,-0.5"/>
<text text-anchor="middle" x="761" y="-7.5" font-family="Helvetica,sans-Serif" font-size="10.00">SyntaxAnalyzer::getNextToken</text>
</a>
</g>
</g>
<!-- Node2&#45;&gt;Node5 -->
<g id="edge4" class="edge">
<title>Node2&#45;&gt;Node5</title>
<path fill="none" stroke="midnightblue" d="M651.22,-23.04C659.46,-22.05 668.2,-21 677.01,-19.95"/>
<polygon fill="midnightblue" stroke="midnightblue" points="677.44,-23.42 686.95,-18.76 676.61,-16.47 677.44,-23.42"/>
</g>
<!-- Node6&#45;&gt;Node2 -->
<g id="edge7" class="edge">
<title>Node6&#45;&gt;Node2</title>
<path fill="none" stroke="midnightblue" d="M295.68,-57.45C314.49,-54.07 336.19,-50.49 356,-48 418.45,-40.16 490.35,-35.03 539.74,-32.09"/>
<polygon fill="midnightblue" stroke="midnightblue" points="540.15,-35.58 549.93,-31.5 539.74,-28.59 540.15,-35.58"/>
</g>
<!-- Node6&#45;&gt;Node4 -->
<g id="edge8" class="edge">
<title>Node6&#45;&gt;Node4</title>
<path fill="none" stroke="midnightblue" d="M292.65,-76.55C312.11,-80.17 335.07,-83.93 356,-86 470.16,-97.31 603.3,-98.25 684.6,-97.46"/>
<polygon fill="midnightblue" stroke="midnightblue" points="684.78,-100.96 694.74,-97.35 684.71,-93.96 684.78,-100.96"/>
</g>
<!-- Node7 -->
<g id="node7" class="node">
<title>Node7</title>
<g id="a_node7"><a xlink:href="../../d0/dfe/class_syntax_analyzer.html#a59b8fda4a98347e67033502aec8d2e4f" target="_top" xlink:title=" ">
<polygon fill="none" stroke="black" points="356,-57.5 356,-76.5 514,-76.5 514,-57.5 356,-57.5"/>
<text text-anchor="middle" x="435" y="-64.5" font-family="Helvetica,sans-Serif" font-size="10.00">SyntaxAnalyzer::syntaxTypeSpec</text>
</a>
</g>
</g>
<!-- Node6&#45;&gt;Node7 -->
<g id="edge9" class="edge">
<title>Node6&#45;&gt;Node7</title>
<path fill="none" stroke="midnightblue" d="M320.07,-67C328.47,-67 337.11,-67 345.68,-67"/>
<polygon fill="midnightblue" stroke="midnightblue" points="345.7,-70.5 355.7,-67 345.7,-63.5 345.7,-70.5"/>
</g>
<!-- Node7&#45;&gt;Node2 -->
<g id="edge10" class="edge">
<title>Node7&#45;&gt;Node2</title>
<path fill="none" stroke="midnightblue" d="M477.26,-57.41C498.93,-52.37 525.68,-46.16 548.63,-40.82"/>
<polygon fill="midnightblue" stroke="midnightblue" points="549.59,-44.19 558.54,-38.52 548.01,-37.37 549.59,-44.19"/>
</g>
<!-- Node7&#45;&gt;Node4 -->
<g id="edge11" class="edge">
<title>Node7&#45;&gt;Node4</title>
<path fill="none" stroke="midnightblue" d="M514.02,-73.98C565.89,-78.63 633.65,-84.69 684.91,-89.28"/>
<polygon fill="midnightblue" stroke="midnightblue" points="684.66,-92.77 694.93,-90.18 685.28,-85.8 684.66,-92.77"/>
</g>
</g>
</svg>
