<?xml version="1.0" encoding="UTF-8" standalone="no"?>
<!DOCTYPE svg PUBLIC "-//W3C//DTD SVG 1.1//EN"
 "http://www.w3.org/Graphics/SVG/1.1/DTD/svg11.dtd">
<!-- Generated by graphviz version 3.0.0 (20220413.0106)
 -->
<!-- Title: SyntaxAnalyzer::syntaxVarDecl Pages: 1 -->
<svg width="690pt" height="184pt"
 viewBox="0.00 0.00 690.00 184.00" xmlns="http://www.w3.org/2000/svg" xmlns:xlink="http://www.w3.org/1999/xlink">
<g id="graph0" class="graph" transform="scale(1 1) rotate(0) translate(4 180)">
<title>SyntaxAnalyzer::syntaxVarDecl</title>
<!-- Node1 -->
<g id="node1" class="node">
<title>Node1</title>
<g id="a_node1"><a xlink:title=" ">
<polygon fill="#bfbfbf" stroke="black" points="0,-76.5 0,-95.5 149,-95.5 149,-76.5 0,-76.5"/>
<text text-anchor="middle" x="74.5" y="-83.5" font-family="Helvetica,sans-Serif" font-size="10.00">SyntaxAnalyzer::syntaxVarDecl</text>
</a>
</g>
</g>
<!-- Node2 -->
<g id="node2" class="node">
<title>Node2</title>
<g id="a_node2"><a xlink:href="../../d7/d7c/class_a_s_t_factory.html#a64619ed3c409fbb187debf67bc39d484" target="_top" xlink:title=" ">
<polygon fill="none" stroke="black" points="379,-152.5 379,-171.5 498,-171.5 498,-152.5 379,-152.5"/>
<text text-anchor="middle" x="438.5" y="-159.5" font-family="Helvetica,sans-Serif" font-size="10.00">ASTFactory::createAST</text>
</a>
</g>
</g>
<!-- Node1&#45;&gt;Node2 -->
<g id="edge1" class="edge">
<title>Node1&#45;&gt;Node2</title>
<path fill="none" stroke="midnightblue" d="M91.14,-95.59C111.8,-107.74 149.7,-128.27 185,-138 245.69,-154.74 317.35,-160.26 368.79,-161.88"/>
<polygon fill="midnightblue" stroke="midnightblue" points="368.71,-165.38 378.8,-162.16 368.9,-158.38 368.71,-165.38"/>
</g>
<!-- Node5 -->
<g id="node5" class="node">
<title>Node5</title>
<g id="a_node5"><a xlink:href="../../d0/dfe/class_syntax_analyzer.html#ae1d3434e5cc4b4bcd5a3a245814a44f0" target="_top" xlink:title=" ">
<polygon fill="none" stroke="black" points="388,-0.5 388,-19.5 489,-19.5 489,-0.5 388,-0.5"/>
<text text-anchor="middle" x="438.5" y="-7.5" font-family="Helvetica,sans-Serif" font-size="10.00">SyntaxAnalyzer::eat</text>
</a>
</g>
</g>
<!-- Node1&#45;&gt;Node5 -->
<g id="edge4" class="edge">
<title>Node1&#45;&gt;Node5</title>
<path fill="none" stroke="midnightblue" d="M120.98,-76.45C187.31,-62.53 310.47,-36.67 382.03,-21.64"/>
<polygon fill="midnightblue" stroke="midnightblue" points="383.14,-24.99 392.21,-19.51 381.7,-18.14 383.14,-24.99"/>
</g>
<!-- Node6 -->
<g id="node6" class="node">
<title>Node6</title>
<g id="a_node6"><a xlink:href="../../d0/dfe/class_syntax_analyzer.html#a3ae6c7319e61cd669c417f189b098374" target="_top" xlink:title=" ">
<polygon fill="none" stroke="black" points="542,-71.5 542,-90.5 674,-90.5 674,-71.5 542,-71.5"/>
<text text-anchor="middle" x="608" y="-78.5" font-family="Helvetica,sans-Serif" font-size="10.00">SyntaxAnalyzer::getCurTok</text>
</a>
</g>
</g>
<!-- Node1&#45;&gt;Node6 -->
<g id="edge7" class="edge">
<title>Node1&#45;&gt;Node6</title>
<path fill="none" stroke="midnightblue" d="M120.03,-95.51C139.82,-99.28 163.47,-103.15 185,-105 323.64,-116.94 359.52,-110.71 498,-97 511.27,-95.69 525.4,-93.9 538.93,-92"/>
<polygon fill="midnightblue" stroke="midnightblue" points="539.74,-95.42 549.14,-90.53 538.75,-88.49 539.74,-95.42"/>
</g>
<!-- Node8 -->
<g id="node8" class="node">
<title>Node8</title>
<g id="a_node8"><a xlink:href="../../d0/d11/class_i_token.html#a4fa3435db7157ca7316d4e4aee1df4c0" target="_top" xlink:title=" ">
<polygon fill="none" stroke="black" points="212.5,-0.5 212.5,-19.5 315.5,-19.5 315.5,-0.5 212.5,-0.5"/>
<text text-anchor="middle" x="264" y="-7.5" font-family="Helvetica,sans-Serif" font-size="10.00">IToken::setAdvType</text>
</a>
</g>
</g>
<!-- Node1&#45;&gt;Node8 -->
<g id="edge8" class="edge">
<title>Node1&#45;&gt;Node8</title>
<path fill="none" stroke="midnightblue" d="M93.74,-76.33C115.19,-65.21 152.05,-46.82 185,-34 195.62,-29.87 207.26,-25.97 218.23,-22.56"/>
<polygon fill="midnightblue" stroke="midnightblue" points="219.52,-25.82 228.07,-19.57 217.49,-19.13 219.52,-25.82"/>
</g>
<!-- Node9 -->
<g id="node9" class="node">
<title>Node9</title>
<g id="a_node9"><a xlink:href="../../d0/dfe/class_syntax_analyzer.html#a59b8fda4a98347e67033502aec8d2e4f" target="_top" xlink:title=" ">
<polygon fill="none" stroke="black" points="185,-76.5 185,-95.5 343,-95.5 343,-76.5 185,-76.5"/>
<text text-anchor="middle" x="264" y="-83.5" font-family="Helvetica,sans-Serif" font-size="10.00">SyntaxAnalyzer::syntaxTypeSpec</text>
</a>
</g>
</g>
<!-- Node1&#45;&gt;Node9 -->
<g id="edge9" class="edge">
<title>Node1&#45;&gt;Node9</title>
<path fill="none" stroke="midnightblue" d="M149.07,-86C157.47,-86 166.11,-86 174.68,-86"/>
<polygon fill="midnightblue" stroke="midnightblue" points="174.7,-89.5 184.7,-86 174.7,-82.5 174.7,-89.5"/>
</g>
<!-- Node3 -->
<g id="node3" class="node">
<title>Node3</title>
<g id="a_node3"><a xlink:href="../../d0/d11/class_i_token.html#ac8ca7f7e601ae49ad573167a4e9429cb" target="_top" xlink:title=" ">
<polygon fill="none" stroke="black" points="556.5,-156.5 556.5,-175.5 659.5,-175.5 659.5,-156.5 556.5,-156.5"/>
<text text-anchor="middle" x="608" y="-163.5" font-family="Helvetica,sans-Serif" font-size="10.00">IToken::getAdvType</text>
</a>
</g>
</g>
<!-- Node2&#45;&gt;Node3 -->
<g id="edge2" class="edge">
<title>Node2&#45;&gt;Node3</title>
<path fill="none" stroke="midnightblue" d="M498.08,-163.4C513.64,-163.77 530.47,-164.17 546.14,-164.55"/>
<polygon fill="midnightblue" stroke="midnightblue" points="546.17,-168.05 556.25,-164.79 546.34,-161.05 546.17,-168.05"/>
</g>
<!-- Node4 -->
<g id="node4" class="node">
<title>Node4</title>
<g id="a_node4"><a xlink:href="../../d0/d11/class_i_token.html#a568cb9d98839eff3fd758f419a76b092" target="_top" xlink:title="Получение типа токена">
<polygon fill="none" stroke="black" points="565,-118.5 565,-137.5 651,-137.5 651,-118.5 565,-118.5"/>
<text text-anchor="middle" x="608" y="-125.5" font-family="Helvetica,sans-Serif" font-size="10.00">IToken::getType</text>
</a>
</g>
</g>
<!-- Node2&#45;&gt;Node4 -->
<g id="edge3" class="edge">
<title>Node2&#45;&gt;Node4</title>
<path fill="none" stroke="midnightblue" d="M486.6,-152.44C507.82,-148.13 532.95,-143.03 554.74,-138.61"/>
<polygon fill="midnightblue" stroke="midnightblue" points="555.71,-141.98 564.82,-136.56 554.32,-135.12 555.71,-141.98"/>
</g>
<!-- Node5&#45;&gt;Node6 -->
<g id="edge5" class="edge">
<title>Node5&#45;&gt;Node6</title>
<path fill="none" stroke="midnightblue" d="M471.35,-19.51C480.07,-22.34 489.47,-25.6 498,-29 526.5,-40.37 558.04,-55.73 579.82,-66.81"/>
<polygon fill="midnightblue" stroke="midnightblue" points="578.32,-69.97 588.81,-71.42 581.51,-63.74 578.32,-69.97"/>
</g>
<!-- Node7 -->
<g id="node7" class="node">
<title>Node7</title>
<g id="a_node7"><a xlink:href="../../d0/dfe/class_syntax_analyzer.html#a9e41370d8d74fbd2e77648d2071e7dfe" target="_top" xlink:title=" ">
<polygon fill="none" stroke="black" points="534,-14.5 534,-33.5 682,-33.5 682,-14.5 534,-14.5"/>
<text text-anchor="middle" x="608" y="-21.5" font-family="Helvetica,sans-Serif" font-size="10.00">SyntaxAnalyzer::getNextToken</text>
</a>
</g>
</g>
<!-- Node5&#45;&gt;Node7 -->
<g id="edge6" class="edge">
<title>Node5&#45;&gt;Node7</title>
<path fill="none" stroke="midnightblue" d="M489.3,-14.16C500.12,-15.07 511.84,-16.05 523.56,-17.03"/>
<polygon fill="midnightblue" stroke="midnightblue" points="523.57,-20.54 533.83,-17.88 524.15,-13.56 523.57,-20.54"/>
</g>
<!-- Node9&#45;&gt;Node2 -->
<g id="edge10" class="edge">
<title>Node9&#45;&gt;Node2</title>
<path fill="none" stroke="midnightblue" d="M286.85,-95.63C317.05,-108.93 371.72,-133.02 406.24,-148.23"/>
<polygon fill="midnightblue" stroke="midnightblue" points="405.27,-151.62 415.83,-152.45 408.09,-145.22 405.27,-151.62"/>
</g>
<!-- Node9&#45;&gt;Node6 -->
<g id="edge14" class="edge">
<title>Node9&#45;&gt;Node6</title>
<path fill="none" stroke="midnightblue" d="M343.03,-84.86C399.64,-84.03 475.77,-82.92 531.73,-82.1"/>
<polygon fill="midnightblue" stroke="midnightblue" points="531.99,-85.6 541.93,-81.95 531.88,-78.6 531.99,-85.6"/>
</g>
<!-- Node10 -->
<g id="node10" class="node">
<title>Node10</title>
<g id="a_node10"><a xlink:href="../../d0/dfe/class_syntax_analyzer.html#a9952c4a2db0a1382b9c94f40dd535fae" target="_top" xlink:title=" ">
<polygon fill="none" stroke="black" points="379.5,-38.5 379.5,-57.5 497.5,-57.5 497.5,-38.5 379.5,-38.5"/>
<text text-anchor="middle" x="438.5" y="-45.5" font-family="Helvetica,sans-Serif" font-size="10.00">SyntaxAnalyzer::eatAdv</text>
</a>
</g>
</g>
<!-- Node9&#45;&gt;Node10 -->
<g id="edge11" class="edge">
<title>Node9&#45;&gt;Node10</title>
<path fill="none" stroke="midnightblue" d="M308.53,-76.41C331.6,-71.33 360.13,-65.04 384.48,-59.68"/>
<polygon fill="midnightblue" stroke="midnightblue" points="385.27,-63.09 394.28,-57.52 383.77,-56.25 385.27,-63.09"/>
</g>
<!-- Node10&#45;&gt;Node6 -->
<g id="edge12" class="edge">
<title>Node10&#45;&gt;Node6</title>
<path fill="none" stroke="midnightblue" d="M487.95,-57.54C506.96,-61.29 528.94,-65.62 548.8,-69.53"/>
<polygon fill="midnightblue" stroke="midnightblue" points="548.17,-72.98 558.66,-71.48 549.53,-66.11 548.17,-72.98"/>
</g>
<!-- Node10&#45;&gt;Node7 -->
<g id="edge13" class="edge">
<title>Node10&#45;&gt;Node7</title>
<path fill="none" stroke="midnightblue" d="M497.61,-39.67C508.25,-38.15 519.49,-36.54 530.57,-34.95"/>
<polygon fill="midnightblue" stroke="midnightblue" points="531.26,-38.39 540.66,-33.5 530.27,-31.46 531.26,-38.39"/>
</g>
</g>
</svg>
