<?xml version="1.0" encoding="UTF-8" standalone="no"?>
<!DOCTYPE svg PUBLIC "-//W3C//DTD SVG 1.1//EN"
 "http://www.w3.org/Graphics/SVG/1.1/DTD/svg11.dtd">
<!-- Generated by graphviz version 3.0.0 (20220413.0106)
 -->
<!-- Title: SyntaxAnalyzer::parseTokens Pages: 1 -->
<svg width="3065pt" height="2633pt"
 viewBox="0.00 0.00 3065.00 2632.55" xmlns="http://www.w3.org/2000/svg" xmlns:xlink="http://www.w3.org/1999/xlink">
<g id="graph0" class="graph" transform="scale(1 1) rotate(0) translate(4 2628.55)">
<title>SyntaxAnalyzer::parseTokens</title>
<!-- Node1 -->
<g id="node1" class="node">
<title>Node1</title>
<g id="a_node1"><a xlink:title=" ">
<polygon fill="#bfbfbf" stroke="black" points="0,-1624.5 0,-1643.5 143,-1643.5 143,-1624.5 0,-1624.5"/>
<text text-anchor="middle" x="71.5" y="-1631.5" font-family="Helvetica,sans-Serif" font-size="10.00">SyntaxAnalyzer::parseTokens</text>
</a>
</g>
</g>
<!-- Node2 -->
<g id="node2" class="node">
<title>Node2</title>
<g id="a_node2"><a xlink:href="../../d0/dfe/class_syntax_analyzer.html#a3ae6c7319e61cd669c417f189b098374" target="_top" xlink:title=" ">
<polygon fill="none" stroke="black" points="2917,-1244.5 2917,-1263.5 3049,-1263.5 3049,-1244.5 2917,-1244.5"/>
<text text-anchor="middle" x="2983" y="-1251.5" font-family="Helvetica,sans-Serif" font-size="10.00">SyntaxAnalyzer::getCurTok</text>
</a>
</g>
</g>
<!-- Node1&#45;&gt;Node2 -->
<g id="edge1" class="edge">
<title>Node1&#45;&gt;Node2</title>
<path fill="none" stroke="midnightblue" d="M72.47,-1643.56C72.78,-1723.85 85.08,-2290.31 367,-2593 391.36,-2619.15 406.26,-2622 442,-2622 442,-2622 442,-2622 2269.5,-2622 2474.43,-2622 2563.95,-2650.15 2718,-2515 2915.87,-2341.4 2973.06,-1421.02 2980.99,-1273.85"/>
<polygon fill="midnightblue" stroke="midnightblue" points="2984.5,-1273.8 2981.53,-1263.63 2977.51,-1273.43 2984.5,-1273.8"/>
</g>
<!-- Node3 -->
<g id="node3" class="node">
<title>Node3</title>
<g id="a_node3"><a xlink:href="../../d0/dfe/class_syntax_analyzer.html#a8b337bd5b4a90cd5bd804a936e408e4b" target="_top" xlink:title=" ">
<polygon fill="none" stroke="black" points="179,-1567.5 179,-1586.5 331,-1586.5 331,-1567.5 179,-1567.5"/>
<text text-anchor="middle" x="255" y="-1574.5" font-family="Helvetica,sans-Serif" font-size="10.00">SyntaxAnalyzer::syntaxProgram</text>
</a>
</g>
</g>
<!-- Node1&#45;&gt;Node3 -->
<g id="edge2" class="edge">
<title>Node1&#45;&gt;Node3</title>
<path fill="none" stroke="midnightblue" d="M102.88,-1624.46C133.24,-1614.92 180.11,-1600.21 213.59,-1589.69"/>
<polygon fill="midnightblue" stroke="midnightblue" points="215.03,-1592.91 223.52,-1586.57 212.93,-1586.23 215.03,-1592.91"/>
</g>
<!-- Node3&#45;&gt;Node2 -->
<g id="edge10" class="edge">
<title>Node3&#45;&gt;Node2</title>
<path fill="none" stroke="midnightblue" d="M262.23,-1586.57C321.03,-1675.6 788.52,-2356 1344.5,-2356 1344.5,-2356 1344.5,-2356 1528,-2356 1668.3,-2356 1694.71,-2285.12 1794,-2186 1893.03,-2087.14 1904.95,-2047.86 1964,-1921 1986.78,-1872.06 1958.66,-1839.71 2000,-1805 2076.61,-1740.68 2346.47,-1748 2446.5,-1748 2446.5,-1748 2446.5,-1748 2639,-1748 2743.64,-1748 2794.77,-1791.49 2873,-1722 2941.96,-1660.74 2973.11,-1356.14 2980.32,-1274.28"/>
<polygon fill="midnightblue" stroke="midnightblue" points="2983.85,-1274.14 2981.21,-1263.87 2976.87,-1273.54 2983.85,-1274.14"/>
</g>
<!-- Node4 -->
<g id="node4" class="node">
<title>Node4</title>
<g id="a_node4"><a xlink:href="../../d7/d7c/class_a_s_t_factory.html#a8d1d4c9d01ab2e366d1af6bbaeaf7bef" target="_top" xlink:title=" ">
<polygon fill="none" stroke="black" points="2754,-2080.5 2754,-2099.5 2873,-2099.5 2873,-2080.5 2754,-2080.5"/>
<text text-anchor="middle" x="2813.5" y="-2087.5" font-family="Helvetica,sans-Serif" font-size="10.00">ASTFactory::createAST</text>
</a>
</g>
</g>
<!-- Node3&#45;&gt;Node4 -->
<g id="edge3" class="edge">
<title>Node3&#45;&gt;Node4</title>
<path fill="none" stroke="midnightblue" d="M256.37,-1586.55C260.18,-1683.3 293.91,-2484.5 367,-2557 448.54,-2637.88 509.15,-2584 624,-2584 624,-2584 624,-2584 2083,-2584 2154.53,-2584 2667.35,-2528.51 2718,-2478 2785.67,-2410.52 2730.86,-2358.73 2754,-2266 2768.5,-2207.9 2792.81,-2141.33 2805.02,-2109.26"/>
<polygon fill="midnightblue" stroke="midnightblue" points="2808.35,-2110.36 2808.66,-2099.77 2801.81,-2107.85 2808.35,-2110.36"/>
</g>
<!-- Node8 -->
<g id="node8" class="node">
<title>Node8</title>
<g id="a_node8"><a xlink:href="../../d0/dfe/class_syntax_analyzer.html#ae1d3434e5cc4b4bcd5a3a245814a44f0" target="_top" xlink:title=" ">
<polygon fill="none" stroke="black" points="2763,-693.5 2763,-712.5 2864,-712.5 2864,-693.5 2763,-693.5"/>
<text text-anchor="middle" x="2813.5" y="-700.5" font-family="Helvetica,sans-Serif" font-size="10.00">SyntaxAnalyzer::eat</text>
</a>
</g>
</g>
<!-- Node3&#45;&gt;Node8 -->
<g id="edge7" class="edge">
<title>Node3&#45;&gt;Node8</title>
<path fill="none" stroke="midnightblue" d="M255.91,-1567.28C255.14,-1468.54 252.26,-646.79 367,-437 510.68,-174.29 708.06,-228 1007.5,-228 1007.5,-228 1007.5,-228 1346.5,-228 1674.69,-228 1752.81,-304 2081,-304 2081,-304 2081,-304 2269.5,-304 2382.04,-304 2420.36,-274.68 2522,-323 2543.01,-332.99 2539,-347.58 2558,-361 2621.54,-405.89 2665.29,-374.78 2718,-432 2786.91,-506.81 2806.01,-634.63 2810.92,-683.35"/>
<polygon fill="midnightblue" stroke="midnightblue" points="2807.45,-683.83 2811.85,-693.47 2814.42,-683.2 2807.45,-683.83"/>
</g>
<!-- Node10 -->
<g id="node10" class="node">
<title>Node10</title>
<g id="a_node10"><a xlink:href="../../db/d0e/sup_8hpp.html#ae7d62ca130413d4c96863327c1af81a4" target="_top" xlink:title="Возвращает истину, если value находится среди значений cont.">
<polygon fill="none" stroke="black" points="2431.5,-2004.5 2431.5,-2023.5 2463.5,-2023.5 2463.5,-2004.5 2431.5,-2004.5"/>
<text text-anchor="middle" x="2447.5" y="-2011.5" font-family="Helvetica,sans-Serif" font-size="10.00">isIn</text>
</a>
</g>
</g>
<!-- Node3&#45;&gt;Node10 -->
<g id="edge11" class="edge">
<title>Node3&#45;&gt;Node10</title>
<path fill="none" stroke="midnightblue" d="M256.4,-1586.5C260.5,-1681.17 296.01,-2452.68 367,-2522 449.08,-2602.15 509.28,-2546 624,-2546 624,-2546 624,-2546 1528,-2546 1948.84,-2546 2349.78,-2122.64 2431.42,-2031.25"/>
<polygon fill="midnightblue" stroke="midnightblue" points="2434.11,-2033.49 2438.12,-2023.69 2428.87,-2028.85 2434.11,-2033.49"/>
</g>
<!-- Node11 -->
<g id="node11" class="node">
<title>Node11</title>
<g id="a_node11"><a xlink:href="../../d0/d11/class_i_token.html#a4fa3435db7157ca7316d4e4aee1df4c0" target="_top" xlink:title="Устанавливает дополнительный тип токена">
<polygon fill="none" stroke="black" points="2762,-47.5 2762,-66.5 2865,-66.5 2865,-47.5 2762,-47.5"/>
<text text-anchor="middle" x="2813.5" y="-54.5" font-family="Helvetica,sans-Serif" font-size="10.00">IToken::setAdvType</text>
</a>
</g>
</g>
<!-- Node3&#45;&gt;Node11 -->
<g id="edge12" class="edge">
<title>Node3&#45;&gt;Node11</title>
<path fill="none" stroke="midnightblue" d="M255.94,-1567.3C255.4,-1461.44 253.88,-519.86 367,-269 434.97,-118.27 458.65,0 624,0 624,0 624,0 2448.5,0 2563.79,0 2697.18,-28.26 2766.03,-44.98"/>
<polygon fill="midnightblue" stroke="midnightblue" points="2765.57,-48.47 2776.11,-47.46 2767.24,-41.67 2765.57,-48.47"/>
</g>
<!-- Node12 -->
<g id="node12" class="node">
<title>Node12</title>
<g id="a_node12"><a xlink:href="../../d0/dfe/class_syntax_analyzer.html#a2b54bac50e114b68e83c80d869b6ac7c" target="_top" xlink:title=" ">
<polygon fill="none" stroke="black" points="555,-560.5 555,-579.5 695,-579.5 695,-560.5 555,-560.5"/>
<text text-anchor="middle" x="625" y="-567.5" font-family="Helvetica,sans-Serif" font-size="10.00">SyntaxAnalyzer::syntaxBlock</text>
</a>
</g>
</g>
<!-- Node3&#45;&gt;Node12 -->
<g id="edge13" class="edge">
<title>Node3&#45;&gt;Node12</title>
<path fill="none" stroke="midnightblue" d="M259.52,-1567.36C293.9,-1473.29 569.21,-719.92 616.96,-589.28"/>
<polygon fill="midnightblue" stroke="midnightblue" points="620.29,-590.36 620.43,-579.76 613.71,-587.95 620.29,-590.36"/>
</g>
<!-- Node37 -->
<g id="node37" class="node">
<title>Node37</title>
<g id="a_node37"><a xlink:href="../../d0/dfe/class_syntax_analyzer.html#ae04232a95c6423677e600927c82851e4" target="_top" xlink:title=" ">
<polygon fill="none" stroke="black" points="367,-446.5 367,-465.5 519,-465.5 519,-446.5 367,-446.5"/>
<text text-anchor="middle" x="443" y="-453.5" font-family="Helvetica,sans-Serif" font-size="10.00">SyntaxAnalyzer::syntaxFuncDef</text>
</a>
</g>
</g>
<!-- Node3&#45;&gt;Node37 -->
<g id="edge128" class="edge">
<title>Node3&#45;&gt;Node37</title>
<path fill="none" stroke="midnightblue" d="M257.61,-1567.31C274.27,-1466.88 415.31,-616.86 438.72,-475.8"/>
<polygon fill="midnightblue" stroke="midnightblue" points="442.22,-476.05 440.4,-465.61 435.32,-474.91 442.22,-476.05"/>
</g>
<!-- Node5 -->
<g id="node5" class="node">
<title>Node5</title>
<g id="a_node5"><a xlink:href="../../d0/d11/class_i_token.html#a3e73305ee0ac36d0bf5f26b649589b24" target="_top" xlink:title=" ">
<polygon fill="none" stroke="black" points="2931.5,-1035.5 2931.5,-1054.5 3034.5,-1054.5 3034.5,-1035.5 2931.5,-1035.5"/>
<text text-anchor="middle" x="2983" y="-1042.5" font-family="Helvetica,sans-Serif" font-size="10.00">IToken::getAdvType</text>
</a>
</g>
</g>
<!-- Node4&#45;&gt;Node5 -->
<g id="edge4" class="edge">
<title>Node4&#45;&gt;Node5</title>
<path fill="none" stroke="midnightblue" d="M2816.14,-2080.46C2823.68,-2036.29 2855.4,-1847.19 2873,-1691 2895.76,-1488.98 2864.08,-1433.27 2909,-1235 2923.79,-1169.72 2956.65,-1097.03 2972.75,-1063.63"/>
<polygon fill="midnightblue" stroke="midnightblue" points="2975.93,-1065.1 2977.17,-1054.58 2969.64,-1062.03 2975.93,-1065.1"/>
</g>
<!-- Node6 -->
<g id="node6" class="node">
<title>Node6</title>
<g id="a_node6"><a xlink:href="../../d0/d11/class_i_token.html#ac7f0a800d7a9e8608bab0360c76d735a" target="_top" xlink:title="Получение типа токена">
<polygon fill="none" stroke="black" points="2940,-2061.5 2940,-2080.5 3026,-2080.5 3026,-2061.5 2940,-2061.5"/>
<text text-anchor="middle" x="2983" y="-2068.5" font-family="Helvetica,sans-Serif" font-size="10.00">IToken::getType</text>
</a>
</g>
</g>
<!-- Node4&#45;&gt;Node6 -->
<g id="edge5" class="edge">
<title>Node4&#45;&gt;Node6</title>
<path fill="none" stroke="midnightblue" d="M2873.08,-2083.35C2891.54,-2081.26 2911.8,-2078.96 2929.79,-2076.92"/>
<polygon fill="midnightblue" stroke="midnightblue" points="2930.26,-2080.39 2939.8,-2075.79 2929.47,-2073.44 2930.26,-2080.39"/>
</g>
<!-- Node7 -->
<g id="node7" class="node">
<title>Node7</title>
<g id="a_node7"><a xlink:href="../../db/dc1/class_token.html#a1f07fa2fffeb2f7ab803ef8b424eae8a" target="_top" xlink:title=" ">
<polygon fill="none" stroke="black" points="2946,-2099.5 2946,-2118.5 3020,-2118.5 3020,-2099.5 2946,-2099.5"/>
<text text-anchor="middle" x="2983" y="-2106.5" font-family="Helvetica,sans-Serif" font-size="10.00">Token::setStr</text>
</a>
</g>
</g>
<!-- Node4&#45;&gt;Node7 -->
<g id="edge6" class="edge">
<title>Node4&#45;&gt;Node7</title>
<path fill="none" stroke="midnightblue" d="M2873.08,-2096.65C2893.56,-2098.97 2916.24,-2101.54 2935.58,-2103.73"/>
<polygon fill="midnightblue" stroke="midnightblue" points="2935.32,-2107.23 2945.65,-2104.88 2936.11,-2100.27 2935.32,-2107.23"/>
</g>
<!-- Node8&#45;&gt;Node2 -->
<g id="edge8" class="edge">
<title>Node8&#45;&gt;Node2</title>
<path fill="none" stroke="midnightblue" d="M2817.69,-712.66C2826.97,-740.95 2854.46,-826.13 2873,-898 2891.86,-971.1 2887.4,-991.66 2909,-1064 2928.15,-1128.13 2958.92,-1201.37 2973.64,-1235.14"/>
<polygon fill="midnightblue" stroke="midnightblue" points="2970.43,-1236.55 2977.66,-1244.29 2976.84,-1233.73 2970.43,-1236.55"/>
</g>
<!-- Node9 -->
<g id="node9" class="node">
<title>Node9</title>
<g id="a_node9"><a xlink:href="../../d0/dfe/class_syntax_analyzer.html#a9e41370d8d74fbd2e77648d2071e7dfe" target="_top" xlink:title=" ">
<polygon fill="none" stroke="black" points="2909,-398.5 2909,-417.5 3057,-417.5 3057,-398.5 2909,-398.5"/>
<text text-anchor="middle" x="2983" y="-405.5" font-family="Helvetica,sans-Serif" font-size="10.00">SyntaxAnalyzer::getNextToken</text>
</a>
</g>
</g>
<!-- Node8&#45;&gt;Node9 -->
<g id="edge9" class="edge">
<title>Node8&#45;&gt;Node9</title>
<path fill="none" stroke="midnightblue" d="M2820.07,-693.18C2844.17,-650.74 2939.62,-482.63 2971.54,-426.42"/>
<polygon fill="midnightblue" stroke="midnightblue" points="2974.68,-427.98 2976.58,-417.55 2968.59,-424.52 2974.68,-427.98"/>
</g>
<!-- Node12&#45;&gt;Node4 -->
<g id="edge14" class="edge">
<title>Node12&#45;&gt;Node4</title>
<path fill="none" stroke="midnightblue" d="M626.36,-579.8C631.21,-707.93 687.85,-2053.57 938,-2340 1062.77,-2482.87 1154.82,-2470 1344.5,-2470 1344.5,-2470 1344.5,-2470 1528,-2470 1774.36,-2470 1834.64,-2508 2081,-2508 2081,-2508 2081,-2508 2269.5,-2508 2319.81,-2508 2681.38,-2480.49 2718,-2446 2777.39,-2390.07 2733.09,-2344.86 2754,-2266 2769.35,-2208.12 2793.27,-2141.45 2805.21,-2109.31"/>
<polygon fill="midnightblue" stroke="midnightblue" points="2808.54,-2110.39 2808.77,-2099.79 2801.99,-2107.93 2808.54,-2110.39"/>
</g>
<!-- Node13 -->
<g id="node13" class="node">
<title>Node13</title>
<g id="a_node13"><a xlink:href="../../d0/dfe/class_syntax_analyzer.html#a5770afdc4d32d2c38550f27f9ffd949a" target="_top" xlink:title=" ">
<polygon fill="none" stroke="black" points="731,-636.5 731,-655.5 902,-655.5 902,-636.5 731,-636.5"/>
<text text-anchor="middle" x="816.5" y="-643.5" font-family="Helvetica,sans-Serif" font-size="10.00">SyntaxAnalyzer::syntaxCompoundSt</text>
</a>
</g>
</g>
<!-- Node12&#45;&gt;Node13 -->
<g id="edge15" class="edge">
<title>Node12&#45;&gt;Node13</title>
<path fill="none" stroke="midnightblue" d="M650,-579.63C683.46,-593.05 744.27,-617.43 782.13,-632.62"/>
<polygon fill="midnightblue" stroke="midnightblue" points="781.11,-635.98 791.69,-636.45 783.72,-629.48 781.11,-635.98"/>
</g>
<!-- Node32 -->
<g id="node32" class="node">
<title>Node32</title>
<g id="a_node32"><a xlink:href="../../d0/dfe/class_syntax_analyzer.html#a58a0f927ad0a45e4ce837a98e98330aa" target="_top" xlink:title=" ">
<polygon fill="none" stroke="black" points="2374.5,-237.5 2374.5,-256.5 2520.5,-256.5 2520.5,-237.5 2374.5,-237.5"/>
<text text-anchor="middle" x="2447.5" y="-244.5" font-family="Helvetica,sans-Serif" font-size="10.00">SyntaxAnalyzer::syntaxConsts</text>
</a>
</g>
</g>
<!-- Node12&#45;&gt;Node32 -->
<g id="edge106" class="edge">
<title>Node12&#45;&gt;Node32</title>
<path fill="none" stroke="midnightblue" d="M634.55,-560.28C651.28,-541.83 690.28,-501.57 731,-479 912.17,-378.56 969.35,-342 1176.5,-342 1176.5,-342 1176.5,-342 1528,-342 1850.63,-342 2233.64,-283.29 2382.71,-258.18"/>
<polygon fill="midnightblue" stroke="midnightblue" points="2383.33,-261.62 2392.61,-256.5 2382.16,-254.72 2383.33,-261.62"/>
</g>
<!-- Node34 -->
<g id="node34" class="node">
<title>Node34</title>
<g id="a_node34"><a xlink:href="../../d0/dfe/class_syntax_analyzer.html#a738f9b4cb7edf93c56af1b6974caad1a" target="_top" xlink:title=" ">
<polygon fill="none" stroke="black" points="2201,-408.5 2201,-427.5 2336,-427.5 2336,-408.5 2201,-408.5"/>
<text text-anchor="middle" x="2268.5" y="-415.5" font-family="Helvetica,sans-Serif" font-size="10.00">SyntaxAnalyzer::syntaxVars</text>
</a>
</g>
</g>
<!-- Node12&#45;&gt;Node34 -->
<g id="edge115" class="edge">
<title>Node12&#45;&gt;Node34</title>
<path fill="none" stroke="midnightblue" d="M651.68,-560.49C743.94,-527.22 1067.82,-418 1344.5,-418 1344.5,-418 1344.5,-418 1898,-418 1999.09,-418 2115.74,-418 2190.49,-418"/>
<polygon fill="midnightblue" stroke="midnightblue" points="2190.75,-421.5 2200.75,-418 2190.75,-414.5 2190.75,-421.5"/>
</g>
<!-- Node13&#45;&gt;Node2 -->
<g id="edge18" class="edge">
<title>Node13&#45;&gt;Node2</title>
<path fill="none" stroke="midnightblue" d="M817.46,-655.6C817.13,-789.51 821.43,-2280 1176.5,-2280 1176.5,-2280 1176.5,-2280 1528,-2280 1816.46,-2280 1843.4,-1852.85 2000,-1763 2173.34,-1663.55 2246.66,-1710 2446.5,-1710 2446.5,-1710 2446.5,-1710 2639,-1710 2743.34,-1710 2793.44,-1758.51 2873,-1691 2938.64,-1635.3 2972,-1352.11 2980.05,-1273.98"/>
<polygon fill="midnightblue" stroke="midnightblue" points="2983.57,-1273.93 2981.09,-1263.63 2976.61,-1273.23 2983.57,-1273.93"/>
</g>
<!-- Node13&#45;&gt;Node4 -->
<g id="edge16" class="edge">
<title>Node13&#45;&gt;Node4</title>
<path fill="none" stroke="midnightblue" d="M817.53,-655.64C817.95,-784.34 825.09,-2160.3 938,-2294 998.02,-2365.07 1251.47,-2394 1344.5,-2394 1344.5,-2394 1344.5,-2394 1717.5,-2394 1940.26,-2394 2544.12,-2471.24 2718,-2332 2736.48,-2317.2 2788.23,-2163.84 2806.23,-2109.2"/>
<polygon fill="midnightblue" stroke="midnightblue" points="2809.57,-2110.25 2809.36,-2099.66 2802.92,-2108.07 2809.57,-2110.25"/>
</g>
<!-- Node13&#45;&gt;Node8 -->
<g id="edge17" class="edge">
<title>Node13&#45;&gt;Node8</title>
<path fill="none" stroke="midnightblue" d="M844.11,-636.37C903.11,-615.92 1049.72,-570 1176.5,-570 1176.5,-570 1176.5,-570 2448.5,-570 2569.34,-570 2610.02,-551.74 2718,-606 2754.37,-624.28 2784.77,-662.2 2800.64,-684.84"/>
<polygon fill="midnightblue" stroke="midnightblue" points="2797.83,-686.93 2806.35,-693.23 2803.62,-682.99 2797.83,-686.93"/>
</g>
<!-- Node13&#45;&gt;Node11 -->
<g id="edge19" class="edge">
<title>Node13&#45;&gt;Node11</title>
<path fill="none" stroke="midnightblue" d="M830.72,-636.48C918.51,-574.26 1428.11,-228 1896,-228 1896,-228 1896,-228 2083,-228 2302.84,-228 2342.8,-134.93 2558,-90 2623.62,-76.3 2700.03,-67.3 2751.87,-62.21"/>
<polygon fill="midnightblue" stroke="midnightblue" points="2752.28,-65.69 2761.9,-61.25 2751.61,-58.72 2752.28,-65.69"/>
</g>
<!-- Node14 -->
<g id="node14" class="node">
<title>Node14</title>
<g id="a_node14"><a xlink:href="../../d0/dfe/class_syntax_analyzer.html#a6df61a82ef9de3c17b78be89a321a087" target="_top" xlink:title=" ">
<polygon fill="none" stroke="black" points="938,-636.5 938,-655.5 1079,-655.5 1079,-636.5 938,-636.5"/>
<text text-anchor="middle" x="1008.5" y="-643.5" font-family="Helvetica,sans-Serif" font-size="10.00">SyntaxAnalyzer::syntaxStList</text>
</a>
</g>
</g>
<!-- Node13&#45;&gt;Node14 -->
<g id="edge20" class="edge">
<title>Node13&#45;&gt;Node14</title>
<path fill="none" stroke="midnightblue" d="M902.22,-646C910.66,-646 919.21,-646 927.61,-646"/>
<polygon fill="midnightblue" stroke="midnightblue" points="927.74,-649.5 937.74,-646 927.74,-642.5 927.74,-649.5"/>
</g>
<!-- Node14&#45;&gt;Node2 -->
<g id="edge22" class="edge">
<title>Node14&#45;&gt;Node2</title>
<path fill="none" stroke="midnightblue" d="M1075.23,-655.51C1222.06,-675.9 1588.02,-722 1896,-722 1896,-722 1896,-722 2269.5,-722 2578.02,-722 2666.32,-835.95 2873,-1065 2921.96,-1119.26 2959.04,-1199.1 2974.33,-1235.13"/>
<polygon fill="midnightblue" stroke="midnightblue" points="2971.14,-1236.57 2978.21,-1244.45 2977.6,-1233.88 2971.14,-1236.57"/>
</g>
<!-- Node14&#45;&gt;Node8 -->
<g id="edge21" class="edge">
<title>Node14&#45;&gt;Node8</title>
<path fill="none" stroke="midnightblue" d="M1061.23,-636.46C1126.87,-625.2 1243.68,-608 1344.5,-608 1344.5,-608 1344.5,-608 2448.5,-608 2569.66,-608 2603.58,-609.16 2718,-649 2744.84,-658.34 2772.76,-675.35 2791.22,-687.78"/>
<polygon fill="midnightblue" stroke="midnightblue" points="2789.26,-690.68 2799.48,-693.47 2793.23,-684.92 2789.26,-690.68"/>
</g>
<!-- Node15 -->
<g id="node15" class="node">
<title>Node15</title>
<g id="a_node15"><a xlink:href="../../d0/dfe/class_syntax_analyzer.html#a7f54bde730006b1b863290415809ab4e" target="_top" xlink:title=" ">
<polygon fill="none" stroke="black" points="1115,-1272.5 1115,-1291.5 1240,-1291.5 1240,-1272.5 1115,-1272.5"/>
<text text-anchor="middle" x="1177.5" y="-1279.5" font-family="Helvetica,sans-Serif" font-size="10.00">SyntaxAnalyzer::syntaxSt</text>
</a>
</g>
</g>
<!-- Node14&#45;&gt;Node15 -->
<g id="edge23" class="edge">
<title>Node14&#45;&gt;Node15</title>
<path fill="none" stroke="midnightblue" d="M1012.06,-655.74C1030.71,-726.76 1145.82,-1165.16 1171.45,-1262.76"/>
<polygon fill="midnightblue" stroke="midnightblue" points="1168.08,-1263.7 1174,-1272.48 1174.85,-1261.92 1168.08,-1263.7"/>
</g>
<!-- Node15&#45;&gt;Node2 -->
<g id="edge25" class="edge">
<title>Node15&#45;&gt;Node2</title>
<path fill="none" stroke="midnightblue" d="M1182.26,-1291.78C1204.85,-1348.63 1328.06,-1634 1526,-1634 1526,-1634 1526,-1634 2639,-1634 2745.63,-1634 2793.96,-1652.58 2873,-1581 2966.16,-1496.63 2979.83,-1330.59 2981.73,-1273.68"/>
<polygon fill="midnightblue" stroke="midnightblue" points="2985.23,-1273.62 2981.98,-1263.54 2978.23,-1273.45 2985.23,-1273.62"/>
</g>
<!-- Node15&#45;&gt;Node8 -->
<g id="edge24" class="edge">
<title>Node15&#45;&gt;Node8</title>
<path fill="none" stroke="midnightblue" d="M1180.71,-1272.45C1194.45,-1215.12 1273.48,-913.89 1451,-756 1603.23,-620.6 1692.27,-646 1896,-646 1896,-646 1896,-646 2448.5,-646 2563.79,-646 2697.18,-674.26 2766.03,-690.98"/>
<polygon fill="midnightblue" stroke="midnightblue" points="2765.57,-694.47 2776.11,-693.46 2767.24,-687.67 2765.57,-694.47"/>
</g>
<!-- Node15&#45;&gt;Node13 -->
<g id="edge73" class="edge">
<title>Node15&#45;&gt;Node13</title>
<path fill="none" stroke="midnightblue" d="M1171.13,-1272.48C1131.34,-1201.99 882.51,-761.17 828.03,-664.66"/>
<polygon fill="midnightblue" stroke="midnightblue" points="830.96,-662.72 823,-655.74 824.86,-666.16 830.96,-662.72"/>
</g>
<!-- Node16 -->
<g id="node16" class="node">
<title>Node16</title>
<g id="a_node16"><a xlink:href="../../d0/dfe/class_syntax_analyzer.html#af0905389742c4f842207bb2c073afbfa" target="_top" xlink:title=" ">
<polygon fill="none" stroke="black" points="2569.5,-1662.5 2569.5,-1681.5 2706.5,-1681.5 2706.5,-1662.5 2569.5,-1662.5"/>
<text text-anchor="middle" x="2638" y="-1669.5" font-family="Helvetica,sans-Serif" font-size="10.00">SyntaxAnalyzer::lookFoward</text>
</a>
</g>
</g>
<!-- Node15&#45;&gt;Node16 -->
<g id="edge26" class="edge">
<title>Node15&#45;&gt;Node16</title>
<path fill="none" stroke="midnightblue" d="M1179.61,-1291.73C1185.87,-1344.86 1218.56,-1599.32 1276,-1648 1318.58,-1684.09 1470.19,-1672 1526,-1672 1526,-1672 1526,-1672 2269.5,-1672 2369.43,-1672 2484.66,-1672 2559.05,-1672"/>
<polygon fill="midnightblue" stroke="midnightblue" points="2559.27,-1675.5 2569.27,-1672 2559.27,-1668.5 2559.27,-1675.5"/>
</g>
<!-- Node18 -->
<g id="node18" class="node">
<title>Node18</title>
<g id="a_node18"><a xlink:href="../../d0/dfe/class_syntax_analyzer.html#a31fc5887c158652feb946f89270b4b36" target="_top" xlink:title=" ">
<polygon fill="none" stroke="black" points="1639,-1187.5 1639,-1206.5 1794,-1206.5 1794,-1187.5 1639,-1187.5"/>
<text text-anchor="middle" x="1716.5" y="-1194.5" font-family="Helvetica,sans-Serif" font-size="10.00">SyntaxAnalyzer::syntaxAssignSt</text>
</a>
</g>
</g>
<!-- Node15&#45;&gt;Node18 -->
<g id="edge28" class="edge">
<title>Node15&#45;&gt;Node18</title>
<path fill="none" stroke="midnightblue" d="M1189.55,-1272.41C1206.69,-1258.18 1241.36,-1231.98 1276,-1221 1393.84,-1183.67 1538.25,-1183.93 1628.59,-1189.19"/>
<polygon fill="midnightblue" stroke="midnightblue" points="1628.59,-1192.69 1638.79,-1189.81 1629.02,-1185.71 1628.59,-1192.69"/>
</g>
<!-- Node24 -->
<g id="node24" class="node">
<title>Node24</title>
<g id="a_node24"><a xlink:href="../../d0/dfe/class_syntax_analyzer.html#a2db43946bee3e973ce1cf293b262e271" target="_top" xlink:title=" ">
<polygon fill="none" stroke="black" points="2567.5,-1434.5 2567.5,-1453.5 2708.5,-1453.5 2708.5,-1434.5 2567.5,-1434.5"/>
<text text-anchor="middle" x="2638" y="-1441.5" font-family="Helvetica,sans-Serif" font-size="10.00">SyntaxAnalyzer::syntaxCallSt</text>
</a>
</g>
</g>
<!-- Node15&#45;&gt;Node24 -->
<g id="edge72" class="edge">
<title>Node15&#45;&gt;Node24</title>
<path fill="none" stroke="midnightblue" d="M1240.3,-1278.64C1328.65,-1274.02 1496.2,-1265.94 1639,-1263 1707.87,-1261.58 1725.5,-1255.73 1794,-1263 1799.03,-1263.53 2397.89,-1392.49 2583.07,-1432.38"/>
<polygon fill="midnightblue" stroke="midnightblue" points="2582.35,-1435.81 2592.87,-1434.49 2583.83,-1428.96 2582.35,-1435.81"/>
</g>
<!-- Node26 -->
<g id="node26" class="node">
<title>Node26</title>
<g id="a_node26"><a xlink:href="../../d0/dfe/class_syntax_analyzer.html#a67bc7e3cfb57c9d4d25d60913aef3a87" target="_top" xlink:title=" ">
<polygon fill="none" stroke="black" points="1451,-2232.5 1451,-2251.5 1603,-2251.5 1603,-2232.5 1451,-2232.5"/>
<text text-anchor="middle" x="1527" y="-2239.5" font-family="Helvetica,sans-Serif" font-size="10.00">SyntaxAnalyzer::syntaxEmptySt</text>
</a>
</g>
</g>
<!-- Node15&#45;&gt;Node26 -->
<g id="edge74" class="edge">
<title>Node15&#45;&gt;Node26</title>
<path fill="none" stroke="midnightblue" d="M1180.55,-1291.77C1190.1,-1336.97 1231.66,-1530.21 1276,-1686 1344.14,-1925.4 1274.28,-2042.71 1451,-2218 1455,-2221.97 1459.66,-2225.29 1464.67,-2228.05"/>
<polygon fill="midnightblue" stroke="midnightblue" points="1463.44,-2231.34 1473.97,-2232.46 1466.43,-2225.02 1463.44,-2231.34"/>
</g>
<!-- Node27 -->
<g id="node27" class="node">
<title>Node27</title>
<g id="a_node27"><a xlink:href="../../d0/dfe/class_syntax_analyzer.html#a82e8472ea6d1064871de0d05eaa8b374" target="_top" xlink:title=" ">
<polygon fill="none" stroke="black" points="1276,-1149.5 1276,-1168.5 1415,-1168.5 1415,-1149.5 1276,-1149.5"/>
<text text-anchor="middle" x="1345.5" y="-1156.5" font-family="Helvetica,sans-Serif" font-size="10.00">SyntaxAnalyzer::syntaxForSt</text>
</a>
</g>
</g>
<!-- Node15&#45;&gt;Node27 -->
<g id="edge76" class="edge">
<title>Node15&#45;&gt;Node27</title>
<path fill="none" stroke="midnightblue" d="M1182.49,-1272.46C1194.65,-1250.84 1233.01,-1201.25 1276,-1174 1276.29,-1173.82 1276.58,-1173.63 1276.87,-1173.45"/>
<polygon fill="midnightblue" stroke="midnightblue" points="1278.67,-1176.46 1285.72,-1168.54 1275.28,-1170.34 1278.67,-1176.46"/>
</g>
<!-- Node29 -->
<g id="node29" class="node">
<title>Node29</title>
<g id="a_node29"><a xlink:href="../../d0/dfe/class_syntax_analyzer.html#a779e006875d35926152773989f4b1e5a" target="_top" xlink:title=" ">
<polygon fill="none" stroke="black" points="1651,-1272.5 1651,-1291.5 1782,-1291.5 1782,-1272.5 1651,-1272.5"/>
<text text-anchor="middle" x="1716.5" y="-1279.5" font-family="Helvetica,sans-Serif" font-size="10.00">SyntaxAnalyzer::syntaxIfSt</text>
</a>
</g>
</g>
<!-- Node15&#45;&gt;Node29 -->
<g id="edge89" class="edge">
<title>Node15&#45;&gt;Node29</title>
<path fill="none" stroke="midnightblue" d="M1240.1,-1277.51C1339.25,-1274.62 1533.9,-1274.5 1640.81,-1277.15"/>
<polygon fill="midnightblue" stroke="midnightblue" points="1640.78,-1280.65 1650.87,-1277.42 1640.97,-1273.66 1640.78,-1280.65"/>
</g>
<!-- Node30 -->
<g id="node30" class="node">
<title>Node30</title>
<g id="a_node30"><a xlink:href="../../d0/dfe/class_syntax_analyzer.html#a55e935b2aa7f20b66e9228e977582fcd" target="_top" xlink:title=" ">
<polygon fill="none" stroke="black" points="1640,-1472.5 1640,-1491.5 1793,-1491.5 1793,-1472.5 1640,-1472.5"/>
<text text-anchor="middle" x="1716.5" y="-1479.5" font-family="Helvetica,sans-Serif" font-size="10.00">SyntaxAnalyzer::syntaxReturnSt</text>
</a>
</g>
</g>
<!-- Node15&#45;&gt;Node30 -->
<g id="edge95" class="edge">
<title>Node15&#45;&gt;Node30</title>
<path fill="none" stroke="midnightblue" d="M1191.8,-1291.64C1210.04,-1304.53 1244.2,-1327.42 1276,-1342 1411,-1403.91 1581.06,-1449.6 1664.53,-1470.07"/>
<polygon fill="midnightblue" stroke="midnightblue" points="1663.73,-1473.48 1674.27,-1472.44 1665.38,-1466.68 1663.73,-1473.48"/>
</g>
<!-- Node31 -->
<g id="node31" class="node">
<title>Node31</title>
<g id="a_node31"><a xlink:href="../../d0/dfe/class_syntax_analyzer.html#a64dad7f0b22b08d182483469d3a1aa79" target="_top" xlink:title=" ">
<polygon fill="none" stroke="black" points="1642,-1379.5 1642,-1398.5 1791,-1398.5 1791,-1379.5 1642,-1379.5"/>
<text text-anchor="middle" x="1716.5" y="-1386.5" font-family="Helvetica,sans-Serif" font-size="10.00">SyntaxAnalyzer::syntaxWhileSt</text>
</a>
</g>
</g>
<!-- Node15&#45;&gt;Node31 -->
<g id="edge100" class="edge">
<title>Node15&#45;&gt;Node31</title>
<path fill="none" stroke="midnightblue" d="M1240.04,-1288.11C1251.95,-1290.71 1264.35,-1293.51 1276,-1296 1423.48,-1327.47 1600,-1359.51 1676.73,-1377.09"/>
<polygon fill="midnightblue" stroke="midnightblue" points="1676.34,-1380.59 1686.88,-1379.47 1677.94,-1373.78 1676.34,-1380.59"/>
</g>
<!-- Node17 -->
<g id="node17" class="node">
<title>Node17</title>
<g id="a_node17"><a xlink:href="../../d1/d34/class_list.html#a49c179636e084dfbf7a52acd46acaf01" target="_top" xlink:title=" ">
<polygon fill="none" stroke="black" points="2786,-1662.5 2786,-1681.5 2841,-1681.5 2841,-1662.5 2786,-1662.5"/>
<text text-anchor="middle" x="2813.5" y="-1669.5" font-family="Helvetica,sans-Serif" font-size="10.00">List::size</text>
</a>
</g>
</g>
<!-- Node16&#45;&gt;Node17 -->
<g id="edge27" class="edge">
<title>Node16&#45;&gt;Node17</title>
<path fill="none" stroke="midnightblue" d="M2706.58,-1672C2729.97,-1672 2755.31,-1672 2775.35,-1672"/>
<polygon fill="midnightblue" stroke="midnightblue" points="2775.59,-1675.5 2785.59,-1672 2775.59,-1668.5 2775.59,-1675.5"/>
</g>
<!-- Node18&#45;&gt;Node2 -->
<g id="edge31" class="edge">
<title>Node18&#45;&gt;Node2</title>
<path fill="none" stroke="midnightblue" d="M1732.03,-1187.43C1779.8,-1156.94 1937.19,-1064 2081,-1064 2081,-1064 2081,-1064 2269.5,-1064 2403.82,-1064 2428.44,-1118.56 2558,-1154 2689.35,-1189.93 2845.67,-1224.78 2926.87,-1242.3"/>
<polygon fill="midnightblue" stroke="midnightblue" points="2926.35,-1245.77 2936.86,-1244.46 2927.82,-1238.93 2926.35,-1245.77"/>
</g>
<!-- Node18&#45;&gt;Node4 -->
<g id="edge29" class="edge">
<title>Node18&#45;&gt;Node4</title>
<path fill="none" stroke="midnightblue" d="M1734.65,-1206.69C1752.61,-1217.81 1780.09,-1237.82 1794,-1263 1845.71,-1356.65 1757.89,-1421.98 1830,-1501 1871.35,-1546.31 1924.18,-1487.35 1964,-1534 2025.97,-1606.59 1941.39,-1886.67 2000,-1962 2090.65,-2078.5 2564.77,-2090.31 2743.89,-2090.55"/>
<polygon fill="midnightblue" stroke="midnightblue" points="2743.98,-2094.05 2753.98,-2090.55 2743.98,-2087.05 2743.98,-2094.05"/>
</g>
<!-- Node18&#45;&gt;Node8 -->
<g id="edge30" class="edge">
<title>Node18&#45;&gt;Node8</title>
<path fill="none" stroke="midnightblue" d="M1720.75,-1187.14C1741.7,-1125.69 1863.6,-798 2081,-798 2081,-798 2081,-798 2269.5,-798 2470.73,-798 2523.73,-788.46 2718,-736 2738.53,-730.46 2761.02,-722.68 2778.9,-716.06"/>
<polygon fill="midnightblue" stroke="midnightblue" points="2780.19,-719.32 2788.33,-712.53 2777.74,-712.76 2780.19,-719.32"/>
</g>
<!-- Node19 -->
<g id="node19" class="node">
<title>Node19</title>
<g id="a_node19"><a xlink:href="../../d0/dfe/class_syntax_analyzer.html#ae8d09db1b25ec882248aeed978c13a4d" target="_top" xlink:title=" ">
<polygon fill="none" stroke="black" points="1830,-1472.5 1830,-1491.5 1964,-1491.5 1964,-1472.5 1830,-1472.5"/>
<text text-anchor="middle" x="1897" y="-1479.5" font-family="Helvetica,sans-Serif" font-size="10.00">SyntaxAnalyzer::syntaxExpr</text>
</a>
</g>
</g>
<!-- Node18&#45;&gt;Node19 -->
<g id="edge32" class="edge">
<title>Node18&#45;&gt;Node19</title>
<path fill="none" stroke="midnightblue" d="M1732.1,-1206.7C1748.84,-1218.42 1776.23,-1239.49 1794,-1263 1843.82,-1328.89 1877.35,-1423.01 1890.17,-1462.93"/>
<polygon fill="midnightblue" stroke="midnightblue" points="1886.84,-1463.99 1893.17,-1472.48 1893.52,-1461.89 1886.84,-1463.99"/>
</g>
<!-- Node25 -->
<g id="node25" class="node">
<title>Node25</title>
<g id="a_node25"><a xlink:href="../../d0/dfe/class_syntax_analyzer.html#a94c8a6ab5c0e53cae22edb1a840a27ce" target="_top" xlink:title=" ">
<polygon fill="none" stroke="black" points="2563,-1320.5 2563,-1339.5 2713,-1339.5 2713,-1320.5 2563,-1320.5"/>
<text text-anchor="middle" x="2638" y="-1327.5" font-family="Helvetica,sans-Serif" font-size="10.00">SyntaxAnalyzer::syntaxVariable</text>
</a>
</g>
</g>
<!-- Node18&#45;&gt;Node25 -->
<g id="edge71" class="edge">
<title>Node18&#45;&gt;Node25</title>
<path fill="none" stroke="midnightblue" d="M1754.23,-1187.45C1851.29,-1163.83 2121.91,-1108.46 2337,-1164 2452.6,-1193.85 2571.21,-1278.83 2617.16,-1314.22"/>
<polygon fill="midnightblue" stroke="midnightblue" points="2615.07,-1317.04 2625.11,-1320.42 2619.38,-1311.51 2615.07,-1317.04"/>
</g>
<!-- Node19&#45;&gt;Node2 -->
<g id="edge35" class="edge">
<title>Node19&#45;&gt;Node2</title>
<path fill="none" stroke="midnightblue" d="M1925.41,-1491.63C1986.19,-1512.08 2137.17,-1558 2267.5,-1558 2267.5,-1558 2267.5,-1558 2639,-1558 2746.59,-1558 2790.94,-1565.58 2873,-1496 2944.1,-1435.71 2970.9,-1319.56 2979.01,-1273.51"/>
<polygon fill="midnightblue" stroke="midnightblue" points="2982.47,-1274.05 2980.65,-1263.61 2975.56,-1272.91 2982.47,-1274.05"/>
</g>
<!-- Node19&#45;&gt;Node4 -->
<g id="edge33" class="edge">
<title>Node19&#45;&gt;Node4</title>
<path fill="none" stroke="midnightblue" d="M1944.99,-1491.5C1952.33,-1494.94 1959.09,-1499.62 1964,-1506 2018.18,-1576.37 1947.25,-1832.56 2000,-1904 2097.45,-2036 2555.43,-2053.83 2718,-2076 2726.33,-2077.14 2735.06,-2078.37 2743.71,-2079.62"/>
<polygon fill="midnightblue" stroke="midnightblue" points="2743.4,-2083.11 2753.8,-2081.09 2744.41,-2076.18 2743.4,-2083.11"/>
</g>
<!-- Node19&#45;&gt;Node6 -->
<g id="edge36" class="edge">
<title>Node19&#45;&gt;Node6</title>
<path fill="none" stroke="midnightblue" d="M1898.95,-1491.79C1905.05,-1553 1940.38,-1883.19 2000,-1962 2169.11,-2185.56 2285.88,-2188.7 2558,-2256 2627.03,-2273.07 2651.39,-2280.9 2718,-2256 2823.35,-2216.62 2809.5,-2142.44 2909,-2090 2915.53,-2086.56 2922.73,-2083.71 2929.98,-2081.36"/>
<polygon fill="midnightblue" stroke="midnightblue" points="2931.23,-2084.64 2939.84,-2078.46 2929.26,-2077.93 2931.23,-2084.64"/>
</g>
<!-- Node19&#45;&gt;Node8 -->
<g id="edge34" class="edge">
<title>Node19&#45;&gt;Node8</title>
<path fill="none" stroke="midnightblue" d="M1910.34,-1472.5C1929,-1458.43 1965.84,-1431.81 2000,-1414 2142.63,-1339.62 2229.03,-1401.24 2337,-1282 2376.67,-1238.19 2330.7,-1195.27 2373,-1154 2421.91,-1106.27 2472.34,-1162.95 2522,-1116 2560.61,-1079.5 2519.09,-1038.18 2558,-1002 2611.53,-952.23 2663.45,-1012.65 2718,-964 2791.42,-898.52 2807.84,-771.51 2811.48,-722.74"/>
<polygon fill="midnightblue" stroke="midnightblue" points="2814.98,-722.79 2812.13,-712.58 2807.99,-722.34 2814.98,-722.79"/>
</g>
<!-- Node19&#45;&gt;Node10 -->
<g id="edge37" class="edge">
<title>Node19&#45;&gt;Node10</title>
<path fill="none" stroke="midnightblue" d="M1944.9,-1491.57C1952.25,-1495 1959.04,-1499.66 1964,-1506 2056.86,-1624.61 1916.31,-1717.76 2000,-1843 2056.25,-1927.17 2105.72,-1915.14 2200,-1952 2278.02,-1982.51 2375.89,-2001.86 2421.26,-2009.83"/>
<polygon fill="midnightblue" stroke="midnightblue" points="2420.92,-2013.32 2431.37,-2011.57 2422.11,-2006.42 2420.92,-2013.32"/>
</g>
<!-- Node20 -->
<g id="node20" class="node">
<title>Node20</title>
<g id="a_node20"><a xlink:href="../../d0/dfe/class_syntax_analyzer.html#a3dfb6634a4bcdc61da5b1bafd1f3d136" target="_top" xlink:title=" ">
<polygon fill="none" stroke="black" points="2000,-1814.5 2000,-1833.5 2164,-1833.5 2164,-1814.5 2000,-1814.5"/>
<text text-anchor="middle" x="2082" y="-1821.5" font-family="Helvetica,sans-Serif" font-size="10.00">SyntaxAnalyzer::syntaxSimpleExpr</text>
</a>
</g>
</g>
<!-- Node19&#45;&gt;Node20 -->
<g id="edge38" class="edge">
<title>Node19&#45;&gt;Node20</title>
<path fill="none" stroke="midnightblue" d="M1941.29,-1491.63C1949.62,-1495.07 1957.69,-1499.72 1964,-1506 1986.46,-1528.37 2054.03,-1738.48 2074.84,-1804.35"/>
<polygon fill="midnightblue" stroke="midnightblue" points="2071.62,-1805.78 2077.96,-1814.27 2078.29,-1803.68 2071.62,-1805.78"/>
</g>
<!-- Node20&#45;&gt;Node2 -->
<g id="edge41" class="edge">
<title>Node20&#45;&gt;Node2</title>
<path fill="none" stroke="midnightblue" d="M2134.69,-1814.5C2154.99,-1811.06 2178.53,-1807.42 2200,-1805 2348.91,-1788.19 2759.51,-1859.87 2873,-1762 2949.16,-1696.32 2975.34,-1359.63 2980.83,-1273.89"/>
<polygon fill="midnightblue" stroke="midnightblue" points="2984.32,-1274.1 2981.45,-1263.9 2977.34,-1273.67 2984.32,-1274.1"/>
</g>
<!-- Node20&#45;&gt;Node4 -->
<g id="edge39" class="edge">
<title>Node20&#45;&gt;Node4</title>
<path fill="none" stroke="midnightblue" d="M2151.66,-1833.55C2155.94,-1835.1 2160.09,-1836.91 2164,-1839 2184.23,-1849.82 2180.26,-1864.31 2200,-1876 2254.36,-1908.21 2282.85,-1881.43 2337,-1914 2356.94,-1925.99 2352.91,-1940.27 2373,-1952 2441.24,-1991.83 2644.44,-2009.16 2718,-2038 2743.5,-2048 2770.72,-2063.55 2789.36,-2075.04"/>
<polygon fill="midnightblue" stroke="midnightblue" points="2787.69,-2078.13 2798.02,-2080.47 2791.41,-2072.2 2787.69,-2078.13"/>
</g>
<!-- Node20&#45;&gt;Node6 -->
<g id="edge42" class="edge">
<title>Node20&#45;&gt;Node6</title>
<path fill="none" stroke="midnightblue" d="M2137.87,-1833.59C2189.56,-1843 2269,-1858.48 2337,-1876 2569.74,-1935.96 2844.33,-2025.27 2943.7,-2058.2"/>
<polygon fill="midnightblue" stroke="midnightblue" points="2942.72,-2061.57 2953.31,-2061.39 2944.92,-2054.92 2942.72,-2061.57"/>
</g>
<!-- Node20&#45;&gt;Node8 -->
<g id="edge40" class="edge">
<title>Node20&#45;&gt;Node8</title>
<path fill="none" stroke="midnightblue" d="M2088.48,-1814.37C2116.86,-1764.27 2249.21,-1527.98 2337,-1325 2355.75,-1281.64 2341.29,-1260.02 2373,-1225 2422.24,-1170.62 2462.66,-1197.13 2522,-1154 2540.82,-1140.32 2540.44,-1131.27 2558,-1116 2623.89,-1058.71 2666.63,-1072.61 2718,-1002 2783.81,-911.53 2804.86,-773.65 2810.6,-722.76"/>
<polygon fill="midnightblue" stroke="midnightblue" points="2814.11,-722.83 2811.68,-712.51 2807.15,-722.09 2814.11,-722.83"/>
</g>
<!-- Node20&#45;&gt;Node10 -->
<g id="edge43" class="edge">
<title>Node20&#45;&gt;Node10</title>
<path fill="none" stroke="midnightblue" d="M2093.17,-1833.67C2112.55,-1851.66 2156.73,-1890.57 2200,-1914 2256.73,-1944.72 2280.35,-1931.12 2337,-1962 2354.8,-1971.7 2355.1,-1980.49 2373,-1990 2388.26,-1998.11 2406.76,-2004.13 2421.39,-2008.12"/>
<polygon fill="midnightblue" stroke="midnightblue" points="2420.69,-2011.55 2431.25,-2010.66 2422.44,-2004.77 2420.69,-2011.55"/>
</g>
<!-- Node21 -->
<g id="node21" class="node">
<title>Node21</title>
<g id="a_node21"><a xlink:href="../../d0/dfe/class_syntax_analyzer.html#a1e9b913cc8c2861927d7c05d10f1822d" target="_top" xlink:title=" ">
<polygon fill="none" stroke="black" points="2200,-1814.5 2200,-1833.5 2337,-1833.5 2337,-1814.5 2200,-1814.5"/>
<text text-anchor="middle" x="2268.5" y="-1821.5" font-family="Helvetica,sans-Serif" font-size="10.00">SyntaxAnalyzer::syntaxTerm</text>
</a>
</g>
</g>
<!-- Node20&#45;&gt;Node21 -->
<g id="edge44" class="edge">
<title>Node20&#45;&gt;Node21</title>
<path fill="none" stroke="midnightblue" d="M2164.19,-1824C2172.65,-1824 2181.23,-1824 2189.64,-1824"/>
<polygon fill="midnightblue" stroke="midnightblue" points="2189.81,-1827.5 2199.81,-1824 2189.81,-1820.5 2189.81,-1827.5"/>
</g>
<!-- Node21&#45;&gt;Node2 -->
<g id="edge47" class="edge">
<title>Node21&#45;&gt;Node2</title>
<path fill="none" stroke="midnightblue" d="M2337.15,-1827.93C2490.46,-1836.51 2852.69,-1854.87 2873,-1838 2962.49,-1763.67 2978.9,-1366.84 2981.54,-1273.62"/>
<polygon fill="midnightblue" stroke="midnightblue" points="2985.04,-1273.67 2981.8,-1263.58 2978.04,-1273.49 2985.04,-1273.67"/>
</g>
<!-- Node21&#45;&gt;Node4 -->
<g id="edge45" class="edge">
<title>Node21&#45;&gt;Node4</title>
<path fill="none" stroke="midnightblue" d="M2303.03,-1833.56C2314.17,-1837.35 2326.42,-1842.2 2337,-1848 2354.78,-1857.74 2355.24,-1866.23 2373,-1876 2515.75,-1954.55 2579.35,-1914.41 2718,-2000 2750.39,-2019.99 2780.97,-2052.5 2798.16,-2072.49"/>
<polygon fill="midnightblue" stroke="midnightblue" points="2795.55,-2074.83 2804.67,-2080.22 2800.9,-2070.32 2795.55,-2074.83"/>
</g>
<!-- Node21&#45;&gt;Node6 -->
<g id="edge48" class="edge">
<title>Node21&#45;&gt;Node6</title>
<path fill="none" stroke="midnightblue" d="M2318.59,-1833.56C2453.68,-1860.08 2824.13,-1934.48 2873,-1962 2914.36,-1985.29 2950.72,-2028.62 2969.17,-2053.05"/>
<polygon fill="midnightblue" stroke="midnightblue" points="2966.58,-2055.43 2975.33,-2061.4 2972.21,-2051.28 2966.58,-2055.43"/>
</g>
<!-- Node21&#45;&gt;Node8 -->
<g id="edge46" class="edge">
<title>Node21&#45;&gt;Node8</title>
<path fill="none" stroke="midnightblue" d="M2271.96,-1814.28C2281.18,-1777.68 2314.33,-1644.65 2337,-1534 2355.39,-1444.23 2321.68,-1406.91 2373,-1331 2474.19,-1181.33 2613.14,-1263.13 2718,-1116 2809.03,-988.28 2813.98,-786.8 2813.09,-723.04"/>
<polygon fill="midnightblue" stroke="midnightblue" points="2816.58,-722.71 2812.88,-712.78 2809.59,-722.86 2816.58,-722.71"/>
</g>
<!-- Node21&#45;&gt;Node10 -->
<g id="edge49" class="edge">
<title>Node21&#45;&gt;Node10</title>
<path fill="none" stroke="midnightblue" d="M2278.52,-1833.68C2306.8,-1864.04 2394,-1957.65 2430.34,-1996.66"/>
<polygon fill="midnightblue" stroke="midnightblue" points="2427.91,-1999.18 2437.29,-2004.11 2433.03,-1994.41 2427.91,-1999.18"/>
</g>
<!-- Node22 -->
<g id="node22" class="node">
<title>Node22</title>
<g id="a_node22"><a xlink:href="../../d0/dfe/class_syntax_analyzer.html#a3af9b5161a2cef6fdd26b0bb60334ac4" target="_top" xlink:title=" ">
<polygon fill="none" stroke="black" points="2376,-1340.5 2376,-1359.5 2519,-1359.5 2519,-1340.5 2376,-1340.5"/>
<text text-anchor="middle" x="2447.5" y="-1347.5" font-family="Helvetica,sans-Serif" font-size="10.00">SyntaxAnalyzer::syntaxFactor</text>
</a>
</g>
</g>
<!-- Node21&#45;&gt;Node22 -->
<g id="edge50" class="edge">
<title>Node21&#45;&gt;Node22</title>
<path fill="none" stroke="midnightblue" d="M2273.2,-1814.1C2295.24,-1755.06 2409.41,-1449.32 2439.32,-1369.23"/>
<polygon fill="midnightblue" stroke="midnightblue" points="2442.6,-1370.44 2442.82,-1359.85 2436.05,-1367.99 2442.6,-1370.44"/>
</g>
<!-- Node22&#45;&gt;Node2 -->
<g id="edge57" class="edge">
<title>Node22&#45;&gt;Node2</title>
<path fill="none" stroke="midnightblue" d="M2473.71,-1359.6C2495.62,-1367.39 2528.4,-1377.76 2558,-1382 2628.39,-1392.08 2648.69,-1397.92 2718,-1382 2813.94,-1359.97 2915.48,-1298.26 2959.49,-1269.33"/>
<polygon fill="midnightblue" stroke="midnightblue" points="2961.59,-1272.13 2967.98,-1263.68 2957.72,-1266.3 2961.59,-1272.13"/>
</g>
<!-- Node22&#45;&gt;Node4 -->
<g id="edge51" class="edge">
<title>Node22&#45;&gt;Node4</title>
<path fill="none" stroke="midnightblue" d="M2450.5,-1359.61C2459.33,-1400.9 2497.05,-1566.8 2558,-1691 2613.34,-1803.77 2651.31,-1817.54 2718,-1924 2750.74,-1976.27 2785.78,-2040.2 2802.51,-2071.27"/>
<polygon fill="midnightblue" stroke="midnightblue" points="2799.63,-2073.32 2807.44,-2080.48 2805.8,-2070.01 2799.63,-2073.32"/>
</g>
<!-- Node22&#45;&gt;Node5 -->
<g id="edge56" class="edge">
<title>Node22&#45;&gt;Node5</title>
<path fill="none" stroke="midnightblue" d="M2487.68,-1359.54C2542.14,-1370.7 2642.5,-1383.6 2718,-1349 2735.3,-1341.07 2914.18,-1126.67 2967.24,-1062.79"/>
<polygon fill="midnightblue" stroke="midnightblue" points="2970.17,-1064.75 2973.87,-1054.82 2964.79,-1060.28 2970.17,-1064.75"/>
</g>
<!-- Node22&#45;&gt;Node6 -->
<g id="edge58" class="edge">
<title>Node22&#45;&gt;Node6</title>
<path fill="none" stroke="midnightblue" d="M2456.3,-1359.59C2473.32,-1380.15 2515.67,-1429.33 2558,-1463 2685.95,-1564.78 2775.16,-1522.01 2873,-1653 2968.91,-1781.4 2980.65,-1986.71 2981.91,-2051.05"/>
<polygon fill="midnightblue" stroke="midnightblue" points="2978.42,-2051.42 2982.04,-2061.37 2985.42,-2051.33 2978.42,-2051.42"/>
</g>
<!-- Node22&#45;&gt;Node8 -->
<g id="edge52" class="edge">
<title>Node22&#45;&gt;Node8</title>
<path fill="none" stroke="midnightblue" d="M2473.46,-1340.43C2537.14,-1315.81 2701.73,-1250.76 2718,-1230 2726.09,-1219.67 2793.44,-817.5 2809.21,-722.82"/>
<polygon fill="midnightblue" stroke="midnightblue" points="2812.68,-723.28 2810.87,-712.84 2805.77,-722.13 2812.68,-723.28"/>
</g>
<!-- Node22&#45;&gt;Node16 -->
<g id="edge59" class="edge">
<title>Node22&#45;&gt;Node16</title>
<path fill="none" stroke="midnightblue" d="M2454.14,-1359.64C2480.43,-1404.54 2591.1,-1593.59 2626.24,-1653.62"/>
<polygon fill="midnightblue" stroke="midnightblue" points="2623.31,-1655.54 2631.38,-1662.4 2629.35,-1652 2623.31,-1655.54"/>
</g>
<!-- Node22&#45;&gt;Node19 -->
<g id="edge65" class="edge">
<title>Node22&#45;&gt;Node19</title>
<path fill="none" stroke="midnightblue" d="M2406.76,-1359.56C2308.76,-1383.15 2055.7,-1444.05 1947.86,-1470"/>
<polygon fill="midnightblue" stroke="midnightblue" points="1946.79,-1466.66 1937.89,-1472.4 1948.43,-1473.46 1946.79,-1466.66"/>
</g>
<!-- Node22&#45;&gt;Node22 -->
<g id="edge66" class="edge">
<title>Node22&#45;&gt;Node22</title>
<path fill="none" stroke="midnightblue" d="M2420.07,-1359.76C2406.72,-1368.57 2415.86,-1378 2447.5,-1378 2469.25,-1378 2480.37,-1373.54 2480.86,-1367.89"/>
<polygon fill="midnightblue" stroke="midnightblue" points="2483.65,-1365.78 2474.93,-1359.76 2477.99,-1369.9 2483.65,-1365.78"/>
</g>
<!-- Node23 -->
<g id="node23" class="node">
<title>Node23</title>
<g id="a_node23"><a xlink:href="../../d0/dfe/class_syntax_analyzer.html#a9952c4a2db0a1382b9c94f40dd535fae" target="_top" xlink:title=" ">
<polygon fill="none" stroke="black" points="2754.5,-104.5 2754.5,-123.5 2872.5,-123.5 2872.5,-104.5 2754.5,-104.5"/>
<text text-anchor="middle" x="2813.5" y="-111.5" font-family="Helvetica,sans-Serif" font-size="10.00">SyntaxAnalyzer::eatAdv</text>
</a>
</g>
</g>
<!-- Node22&#45;&gt;Node23 -->
<g id="edge53" class="edge">
<title>Node22&#45;&gt;Node23</title>
<path fill="none" stroke="midnightblue" d="M2449.19,-1340.39C2457.33,-1227.41 2535.09,-155.56 2558,-133 2613.24,-78.59 2711.88,-89.69 2768.77,-102.16"/>
<polygon fill="midnightblue" stroke="midnightblue" points="2768.02,-105.58 2778.55,-104.41 2769.59,-98.76 2768.02,-105.58"/>
</g>
<!-- Node22&#45;&gt;Node24 -->
<g id="edge60" class="edge">
<title>Node22&#45;&gt;Node24</title>
<path fill="none" stroke="midnightblue" d="M2467.06,-1359.66C2482.19,-1367.75 2503.93,-1379.9 2522,-1392 2538.84,-1403.28 2540,-1410.68 2558,-1420 2566.6,-1424.45 2576.16,-1428.23 2585.57,-1431.37"/>
<polygon fill="midnightblue" stroke="midnightblue" points="2584.7,-1434.76 2595.28,-1434.42 2586.79,-1428.09 2584.7,-1434.76"/>
</g>
<!-- Node22&#45;&gt;Node25 -->
<g id="edge67" class="edge">
<title>Node22&#45;&gt;Node25</title>
<path fill="none" stroke="midnightblue" d="M2519.23,-1342.5C2530.1,-1341.34 2541.43,-1340.14 2552.57,-1338.96"/>
<polygon fill="midnightblue" stroke="midnightblue" points="2553.15,-1342.42 2562.73,-1337.88 2552.41,-1335.46 2553.15,-1342.42"/>
</g>
<!-- Node23&#45;&gt;Node2 -->
<g id="edge54" class="edge">
<title>Node23&#45;&gt;Node2</title>
<path fill="none" stroke="midnightblue" d="M2828.09,-123.6C2842.22,-134.48 2863.58,-153.63 2873,-176 2949.62,-358.03 2869.05,-870.59 2909,-1064 2922.54,-1129.55 2956,-1202.11 2972.5,-1235.42"/>
<polygon fill="midnightblue" stroke="midnightblue" points="2969.42,-1237.09 2977.03,-1244.45 2975.67,-1233.95 2969.42,-1237.09"/>
</g>
<!-- Node23&#45;&gt;Node9 -->
<g id="edge55" class="edge">
<title>Node23&#45;&gt;Node9</title>
<path fill="none" stroke="midnightblue" d="M2850.65,-123.6C2858.77,-127.09 2866.81,-131.77 2873,-138 2945.76,-211.17 2971.79,-339.33 2979.35,-388.25"/>
<polygon fill="midnightblue" stroke="midnightblue" points="2975.93,-389.03 2980.83,-398.42 2982.85,-388.02 2975.93,-389.03"/>
</g>
<!-- Node24&#45;&gt;Node2 -->
<g id="edge63" class="edge">
<title>Node24&#45;&gt;Node2</title>
<path fill="none" stroke="midnightblue" d="M2708.71,-1451.93C2758.04,-1454.13 2823.88,-1449.85 2873,-1420 2929.61,-1385.6 2962.64,-1309.34 2975.6,-1273.42"/>
<polygon fill="midnightblue" stroke="midnightblue" points="2979.02,-1274.26 2978.98,-1263.66 2972.4,-1271.97 2979.02,-1274.26"/>
</g>
<!-- Node24&#45;&gt;Node4 -->
<g id="edge61" class="edge">
<title>Node24&#45;&gt;Node4</title>
<path fill="none" stroke="midnightblue" d="M2643.32,-1453.83C2656.18,-1483.42 2694.82,-1574.5 2718,-1653 2764.78,-1811.38 2799.07,-2008.34 2809.33,-2070.36"/>
<polygon fill="midnightblue" stroke="midnightblue" points="2805.89,-2071.03 2810.96,-2080.33 2812.8,-2069.9 2805.89,-2071.03"/>
</g>
<!-- Node24&#45;&gt;Node8 -->
<g id="edge62" class="edge">
<title>Node24&#45;&gt;Node8</title>
<path fill="none" stroke="midnightblue" d="M2650.13,-1434.49C2667.78,-1418.72 2701.84,-1385.24 2718,-1349 2770.12,-1232.12 2803.82,-818.78 2811.04,-722.94"/>
<polygon fill="midnightblue" stroke="midnightblue" points="2814.54,-723.1 2811.79,-712.87 2807.56,-722.59 2814.54,-723.1"/>
</g>
<!-- Node24&#45;&gt;Node19 -->
<g id="edge64" class="edge">
<title>Node24&#45;&gt;Node19</title>
<path fill="none" stroke="midnightblue" d="M2567.43,-1447.58C2428.66,-1454.71 2118.45,-1470.66 1974.32,-1478.08"/>
<polygon fill="midnightblue" stroke="midnightblue" points="1974.04,-1474.59 1964.23,-1478.59 1974.4,-1481.58 1974.04,-1474.59"/>
</g>
<!-- Node25&#45;&gt;Node2 -->
<g id="edge70" class="edge">
<title>Node25&#45;&gt;Node2</title>
<path fill="none" stroke="midnightblue" d="M2682.09,-1320.45C2744.82,-1306.55 2861.16,-1280.78 2929.03,-1265.74"/>
<polygon fill="midnightblue" stroke="midnightblue" points="2930.08,-1269.09 2939.08,-1263.51 2928.56,-1262.26 2930.08,-1269.09"/>
</g>
<!-- Node25&#45;&gt;Node4 -->
<g id="edge68" class="edge">
<title>Node25&#45;&gt;Node4</title>
<path fill="none" stroke="midnightblue" d="M2650.46,-1339.74C2668.26,-1355.6 2702.12,-1388.87 2718,-1425 2766,-1534.22 2737.35,-1572.87 2754,-1691 2774.57,-1836.91 2800.86,-2012.59 2809.56,-2070.47"/>
<polygon fill="midnightblue" stroke="midnightblue" points="2806.11,-2071.06 2811.06,-2080.43 2813.03,-2070.02 2806.11,-2071.06"/>
</g>
<!-- Node25&#45;&gt;Node8 -->
<g id="edge69" class="edge">
<title>Node25&#45;&gt;Node8</title>
<path fill="none" stroke="midnightblue" d="M2697.97,-1320.47C2705.58,-1317 2712.59,-1312.32 2718,-1306 2755.35,-1262.35 2745.22,-1106.77 2754,-1050 2773.3,-925.13 2799.6,-775.53 2808.99,-722.67"/>
<polygon fill="midnightblue" stroke="midnightblue" points="2812.47,-723.1 2810.77,-712.64 2805.58,-721.88 2812.47,-723.1"/>
</g>
<!-- Node26&#45;&gt;Node4 -->
<g id="edge75" class="edge">
<title>Node26&#45;&gt;Node4</title>
<path fill="none" stroke="midnightblue" d="M1575.5,-2251.55C1773.42,-2290.23 2530.94,-2427.04 2718,-2294 2780.94,-2249.24 2803.04,-2151.81 2809.83,-2109.86"/>
<polygon fill="midnightblue" stroke="midnightblue" points="2813.32,-2110.21 2811.33,-2099.81 2806.39,-2109.18 2813.32,-2110.21"/>
</g>
<!-- Node27&#45;&gt;Node2 -->
<g id="edge79" class="edge">
<title>Node27&#45;&gt;Node2</title>
<path fill="none" stroke="midnightblue" d="M1353.56,-1149.32C1387.77,-1103.65 1541.66,-912 1715.5,-912 1715.5,-912 1715.5,-912 2269.5,-912 2557.34,-912 2633.28,-987.67 2873,-1147 2911.77,-1172.77 2948.63,-1213.52 2967.96,-1236.58"/>
<polygon fill="midnightblue" stroke="midnightblue" points="2965.42,-1239 2974.48,-1244.49 2970.82,-1234.55 2965.42,-1239"/>
</g>
<!-- Node27&#45;&gt;Node4 -->
<g id="edge77" class="edge">
<title>Node27&#45;&gt;Node4</title>
<path fill="none" stroke="midnightblue" d="M1347.26,-1168.53C1354.96,-1257.62 1426.96,-1946.83 1830,-2205 1996.31,-2311.53 2548.9,-2344.04 2718,-2242 2768.41,-2211.58 2795.97,-2142.91 2806.89,-2109.29"/>
<polygon fill="midnightblue" stroke="midnightblue" points="2810.24,-2110.28 2809.85,-2099.69 2803.56,-2108.21 2810.24,-2110.28"/>
</g>
<!-- Node27&#45;&gt;Node8 -->
<g id="edge78" class="edge">
<title>Node27&#45;&gt;Node8</title>
<path fill="none" stroke="midnightblue" d="M1347.81,-1149.37C1353.31,-1112.2 1377.84,-976.27 1451,-898 1600.86,-737.68 1676.54,-684 1896,-684 1896,-684 1896,-684 2448.5,-684 2555.71,-684 2680.44,-692.32 2752.54,-697.95"/>
<polygon fill="midnightblue" stroke="midnightblue" points="2752.55,-701.46 2762.79,-698.76 2753.1,-694.48 2752.55,-701.46"/>
</g>
<!-- Node27&#45;&gt;Node15 -->
<g id="edge88" class="edge">
<title>Node27&#45;&gt;Node15</title>
<path fill="none" stroke="midnightblue" d="M1330.82,-1168.52C1316.37,-1174.28 1293.35,-1181 1276,-1192 1244.13,-1212.21 1214.8,-1244.69 1196.81,-1264.84"/>
<polygon fill="midnightblue" stroke="midnightblue" points="1194.1,-1262.62 1190.04,-1272.41 1199.31,-1267.29 1194.1,-1262.62"/>
</g>
<!-- Node28 -->
<g id="node28" class="node">
<title>Node28</title>
<g id="a_node28"><a xlink:href="../../d0/dfe/class_syntax_analyzer.html#aea3a3d1860938d64edf651bdc4016c04" target="_top" xlink:title=" ">
<polygon fill="none" stroke="black" points="1457.5,-1149.5 1457.5,-1168.5 1596.5,-1168.5 1596.5,-1149.5 1457.5,-1149.5"/>
<text text-anchor="middle" x="1527" y="-1156.5" font-family="Helvetica,sans-Serif" font-size="10.00">SyntaxAnalyzer::syntaxIterSt</text>
</a>
</g>
</g>
<!-- Node27&#45;&gt;Node28 -->
<g id="edge80" class="edge">
<title>Node27&#45;&gt;Node28</title>
<path fill="none" stroke="midnightblue" d="M1415.13,-1159C1425.63,-1159 1436.54,-1159 1447.24,-1159"/>
<polygon fill="midnightblue" stroke="midnightblue" points="1447.41,-1162.5 1457.41,-1159 1447.41,-1155.5 1447.41,-1162.5"/>
</g>
<!-- Node28&#45;&gt;Node2 -->
<g id="edge84" class="edge">
<title>Node28&#45;&gt;Node2</title>
<path fill="none" stroke="midnightblue" d="M1542.73,-1149.43C1591.14,-1118.94 1750.62,-1026 1896,-1026 1896,-1026 1896,-1026 2269.5,-1026 2383.82,-1026 2411.73,-1044.85 2522,-1075 2681.73,-1118.67 2720.54,-1135.35 2873,-1200 2901.62,-1212.14 2933.37,-1228.17 2955.19,-1239.61"/>
<polygon fill="midnightblue" stroke="midnightblue" points="2953.7,-1242.78 2964.17,-1244.36 2956.97,-1236.59 2953.7,-1242.78"/>
</g>
<!-- Node28&#45;&gt;Node4 -->
<g id="edge81" class="edge">
<title>Node28&#45;&gt;Node4</title>
<path fill="none" stroke="midnightblue" d="M1529.47,-1168.68C1544.07,-1263.54 1666.04,-2027.09 1830,-2175 1861.62,-2203.53 2212.45,-2242 2267.5,-2242 2267.5,-2242 2267.5,-2242 2448.5,-2242 2569.17,-2242 2612.73,-2267.99 2718,-2209 2759.43,-2185.79 2789.32,-2136.38 2803.41,-2109.1"/>
<polygon fill="midnightblue" stroke="midnightblue" points="2806.71,-2110.33 2808.03,-2099.82 2800.44,-2107.21 2806.71,-2110.33"/>
</g>
<!-- Node28&#45;&gt;Node5 -->
<g id="edge83" class="edge">
<title>Node28&#45;&gt;Node5</title>
<path fill="none" stroke="midnightblue" d="M1533.51,-1149.3C1547.62,-1125.45 1587.58,-1063.81 1639,-1035 1740.3,-978.24 1779.88,-988 1896,-988 1896,-988 1896,-988 2269.5,-988 2511.5,-988 2798.27,-1021.08 2921.17,-1036.84"/>
<polygon fill="midnightblue" stroke="midnightblue" points="2920.77,-1040.32 2931.14,-1038.12 2921.67,-1033.37 2920.77,-1040.32"/>
</g>
<!-- Node28&#45;&gt;Node6 -->
<g id="edge85" class="edge">
<title>Node28&#45;&gt;Node6</title>
<path fill="none" stroke="midnightblue" d="M1527.7,-1168.67C1525.95,-1235.91 1520.83,-1639.85 1639,-1936 1693.34,-2072.19 1712.57,-2117.2 1830,-2205 2149.3,-2443.73 2346.67,-2477.13 2718,-2332 2805.3,-2297.88 2821.07,-2267.03 2873,-2189 2898.94,-2150.02 2874.37,-2121.51 2909,-2090 2915.06,-2084.49 2922.52,-2080.53 2930.33,-2077.71"/>
<polygon fill="midnightblue" stroke="midnightblue" points="2931.4,-2081.04 2939.96,-2074.79 2929.37,-2074.34 2931.4,-2081.04"/>
</g>
<!-- Node28&#45;&gt;Node8 -->
<g id="edge82" class="edge">
<title>Node28&#45;&gt;Node8</title>
<path fill="none" stroke="midnightblue" d="M1532.2,-1149.32C1545.08,-1120.39 1586.34,-1032.93 1639,-974 1784.43,-811.26 1862.74,-760 2081,-760 2081,-760 2081,-760 2269.5,-760 2362.53,-760 2632.11,-726.49 2752.82,-710.86"/>
<polygon fill="midnightblue" stroke="midnightblue" points="2753.52,-714.3 2762.99,-709.54 2752.62,-707.36 2753.52,-714.3"/>
</g>
<!-- Node28&#45;&gt;Node18 -->
<g id="edge86" class="edge">
<title>Node28&#45;&gt;Node18</title>
<path fill="none" stroke="midnightblue" d="M1575.31,-1168.59C1600.61,-1173.72 1631.95,-1180.07 1658.57,-1185.46"/>
<polygon fill="midnightblue" stroke="midnightblue" points="1658.03,-1188.92 1668.53,-1187.48 1659.42,-1182.06 1658.03,-1188.92"/>
</g>
<!-- Node28&#45;&gt;Node22 -->
<g id="edge87" class="edge">
<title>Node28&#45;&gt;Node22</title>
<path fill="none" stroke="midnightblue" d="M1596.73,-1162.6C1650.51,-1165.74 1727.13,-1170.9 1794,-1178 1869.88,-1186.06 1889.52,-1185.43 1964,-1202 2134.4,-1239.91 2331.8,-1308.45 2410.98,-1336.99"/>
<polygon fill="midnightblue" stroke="midnightblue" points="2409.88,-1340.31 2420.48,-1340.42 2412.26,-1333.73 2409.88,-1340.31"/>
</g>
<!-- Node29&#45;&gt;Node2 -->
<g id="edge92" class="edge">
<title>Node29&#45;&gt;Node2</title>
<path fill="none" stroke="midnightblue" d="M1782.38,-1280.56C1996.29,-1275.83 2678.55,-1260.72 2906.8,-1255.67"/>
<polygon fill="midnightblue" stroke="midnightblue" points="2907.08,-1259.16 2917,-1255.44 2906.92,-1252.16 2907.08,-1259.16"/>
</g>
<!-- Node29&#45;&gt;Node4 -->
<g id="edge90" class="edge">
<title>Node29&#45;&gt;Node4</title>
<path fill="none" stroke="midnightblue" d="M1728.83,-1291.56C1745.77,-1306.49 1777.45,-1337.08 1794,-1370 1827.52,-1436.67 1778.85,-1479.67 1830,-1534 1872.43,-1579.07 1924.9,-1524.01 1964,-1572 2033.52,-1657.34 1923.3,-1987.06 2000,-2066 2055.67,-2123.3 2638.33,-2109.87 2718,-2104 2727.58,-2103.29 2737.65,-2102.19 2747.51,-2100.91"/>
<polygon fill="midnightblue" stroke="midnightblue" points="2748.25,-2104.34 2757.68,-2099.51 2747.3,-2097.41 2748.25,-2104.34"/>
</g>
<!-- Node29&#45;&gt;Node8 -->
<g id="edge91" class="edge">
<title>Node29&#45;&gt;Node8</title>
<path fill="none" stroke="midnightblue" d="M1735.11,-1272.41C1810.96,-1231.19 2117.5,-1065.22 2373,-936 2525.02,-859.12 2571.04,-855.15 2718,-769 2744.53,-753.45 2773.26,-732.79 2791.99,-718.75"/>
<polygon fill="midnightblue" stroke="midnightblue" points="2794.22,-721.45 2800.09,-712.63 2790,-715.87 2794.22,-721.45"/>
</g>
<!-- Node29&#45;&gt;Node15 -->
<g id="edge94" class="edge">
<title>Node29&#45;&gt;Node15</title>
<path fill="none" stroke="midnightblue" d="M1650.87,-1286.58C1549.92,-1289.41 1355.5,-1289.47 1250.31,-1286.77"/>
<polygon fill="midnightblue" stroke="midnightblue" points="1250.19,-1283.27 1240.1,-1286.49 1250,-1290.27 1250.19,-1283.27"/>
</g>
<!-- Node29&#45;&gt;Node19 -->
<g id="edge93" class="edge">
<title>Node29&#45;&gt;Node19</title>
<path fill="none" stroke="midnightblue" d="M1726.11,-1291.65C1754.39,-1323.33 1844.66,-1424.47 1880.81,-1464.98"/>
<polygon fill="midnightblue" stroke="midnightblue" points="1878.21,-1467.32 1887.48,-1472.45 1883.43,-1462.66 1878.21,-1467.32"/>
</g>
<!-- Node30&#45;&gt;Node2 -->
<g id="edge98" class="edge">
<title>Node30&#45;&gt;Node2</title>
<path fill="none" stroke="midnightblue" d="M1734.67,-1491.52C1785.74,-1518.92 1941.78,-1596 2081,-1596 2081,-1596 2081,-1596 2639,-1596 2746.04,-1596 2792.68,-1609.76 2873,-1539 2955.04,-1466.72 2975.64,-1325.74 2980.55,-1273.82"/>
<polygon fill="midnightblue" stroke="midnightblue" points="2984.06,-1273.89 2981.41,-1263.63 2977.08,-1273.3 2984.06,-1273.89"/>
</g>
<!-- Node30&#45;&gt;Node4 -->
<g id="edge96" class="edge">
<title>Node30&#45;&gt;Node4</title>
<path fill="none" stroke="midnightblue" d="M1728.05,-1491.54C1745.45,-1508.01 1779.65,-1543.72 1794,-1582 1837.77,-1698.77 1748.95,-2047.23 1830,-2142 1874.01,-2193.46 2240.06,-2204 2267.5,-2204 2267.5,-2204 2267.5,-2204 2448.5,-2204 2568.75,-2204 2608.44,-2229.57 2718,-2180 2753.22,-2164.06 2783.47,-2129.39 2799.73,-2108.04"/>
<polygon fill="midnightblue" stroke="midnightblue" points="2802.69,-2109.92 2805.82,-2099.79 2797.06,-2105.76 2802.69,-2109.92"/>
</g>
<!-- Node30&#45;&gt;Node8 -->
<g id="edge97" class="edge">
<title>Node30&#45;&gt;Node8</title>
<path fill="none" stroke="midnightblue" d="M1735.61,-1472.4C1841.39,-1416.18 2379.46,-1127.93 2522,-1007 2541.01,-990.88 2538.13,-979.05 2558,-964 2620.16,-916.91 2661.75,-946 2718,-892 2769.3,-842.75 2797.1,-759.7 2807.57,-722.29"/>
<polygon fill="midnightblue" stroke="midnightblue" points="2810.95,-723.19 2810.17,-712.63 2804.19,-721.37 2810.95,-723.19"/>
</g>
<!-- Node30&#45;&gt;Node19 -->
<g id="edge99" class="edge">
<title>Node30&#45;&gt;Node19</title>
<path fill="none" stroke="midnightblue" d="M1793.2,-1482C1801.94,-1482 1810.86,-1482 1819.61,-1482"/>
<polygon fill="midnightblue" stroke="midnightblue" points="1819.79,-1485.5 1829.79,-1482 1819.79,-1478.5 1819.79,-1485.5"/>
</g>
<!-- Node31&#45;&gt;Node2 -->
<g id="edge103" class="edge">
<title>Node31&#45;&gt;Node2</title>
<path fill="none" stroke="midnightblue" d="M1778.05,-1398.51C1933.79,-1421.88 2361.09,-1479.09 2718,-1463 2787.1,-1459.89 2814.98,-1486.65 2873,-1449 2937.08,-1407.42 2967.07,-1314.41 2977.5,-1273.71"/>
<polygon fill="midnightblue" stroke="midnightblue" points="2980.92,-1274.45 2979.89,-1263.91 2974.12,-1272.8 2980.92,-1274.45"/>
</g>
<!-- Node31&#45;&gt;Node4 -->
<g id="edge101" class="edge">
<title>Node31&#45;&gt;Node4</title>
<path fill="none" stroke="midnightblue" d="M1730.79,-1398.51C1747.78,-1411.32 1777.02,-1435.7 1794,-1463 1803.88,-1478.88 1986.24,-2091.34 2000,-2104 2089.81,-2186.63 2145.46,-2166 2267.5,-2166 2267.5,-2166 2267.5,-2166 2448.5,-2166 2568.75,-2166 2602.98,-2177.07 2718,-2142 2744.66,-2133.87 2772.27,-2117.61 2790.71,-2105.43"/>
<polygon fill="midnightblue" stroke="midnightblue" points="2792.9,-2108.17 2799.22,-2099.66 2788.98,-2102.38 2792.9,-2108.17"/>
</g>
<!-- Node31&#45;&gt;Node8 -->
<g id="edge102" class="edge">
<title>Node31&#45;&gt;Node8</title>
<path fill="none" stroke="midnightblue" d="M1731.51,-1379.46C1752.59,-1365.2 1793.87,-1337.69 1830,-1316 2023.41,-1199.86 2546.45,-970.51 2718,-824 2754.12,-793.15 2785.75,-746.6 2801.64,-721.17"/>
<polygon fill="midnightblue" stroke="midnightblue" points="2804.69,-722.89 2806.93,-712.54 2798.72,-719.23 2804.69,-722.89"/>
</g>
<!-- Node31&#45;&gt;Node15 -->
<g id="edge105" class="edge">
<title>Node31&#45;&gt;Node15</title>
<path fill="none" stroke="midnightblue" d="M1641.82,-1382.34C1554.36,-1369.15 1404.2,-1341.36 1276,-1314 1250.63,-1308.58 1221.71,-1301.67 1202,-1295.06"/>
<polygon fill="midnightblue" stroke="midnightblue" points="1202.94,-1291.68 1192.34,-1291.54 1200.54,-1298.25 1202.94,-1291.68"/>
</g>
<!-- Node31&#45;&gt;Node19 -->
<g id="edge104" class="edge">
<title>Node31&#45;&gt;Node19</title>
<path fill="none" stroke="midnightblue" d="M1735.93,-1398.6C1767.41,-1415 1831.7,-1448.5 1868.5,-1467.67"/>
<polygon fill="midnightblue" stroke="midnightblue" points="1867.18,-1470.93 1877.67,-1472.45 1870.42,-1464.73 1867.18,-1470.93"/>
</g>
<!-- Node32&#45;&gt;Node2 -->
<g id="edge108" class="edge">
<title>Node32&#45;&gt;Node2</title>
<path fill="none" stroke="midnightblue" d="M2520.53,-247.51C2635.26,-249.06 2849.05,-255.28 2873,-280 2933.68,-342.63 2891.13,-978.65 2909,-1064 2922.71,-1129.51 2956.1,-1202.09 2972.53,-1235.42"/>
<polygon fill="midnightblue" stroke="midnightblue" points="2969.45,-1237.07 2977.05,-1244.45 2975.71,-1233.94 2969.45,-1237.07"/>
</g>
<!-- Node32&#45;&gt;Node8 -->
<g id="edge107" class="edge">
<title>Node32&#45;&gt;Node8</title>
<path fill="none" stroke="midnightblue" d="M2479.3,-256.6C2535.17,-275.59 2653.39,-323.24 2718,-404 2788.03,-491.54 2806.54,-631.72 2811.11,-683.2"/>
<polygon fill="midnightblue" stroke="midnightblue" points="2807.63,-683.62 2811.92,-693.3 2814.6,-683.05 2807.63,-683.62"/>
</g>
<!-- Node33 -->
<g id="node33" class="node">
<title>Node33</title>
<g id="a_node33"><a xlink:href="../../d0/dfe/class_syntax_analyzer.html#adad79b2219ae143b49203a836713bec9" target="_top" xlink:title=" ">
<polygon fill="none" stroke="black" points="2558,-142.5 2558,-161.5 2718,-161.5 2718,-142.5 2558,-142.5"/>
<text text-anchor="middle" x="2638" y="-149.5" font-family="Helvetica,sans-Serif" font-size="10.00">SyntaxAnalyzer::syntaxConstDecl</text>
</a>
</g>
</g>
<!-- Node32&#45;&gt;Node33 -->
<g id="edge109" class="edge">
<title>Node32&#45;&gt;Node33</title>
<path fill="none" stroke="midnightblue" d="M2459.47,-237.27C2478.29,-221.09 2518.51,-188.7 2558,-171 2563.44,-168.56 2569.24,-166.41 2575.13,-164.52"/>
<polygon fill="midnightblue" stroke="midnightblue" points="2576.49,-167.76 2585.08,-161.57 2574.5,-161.05 2576.49,-167.76"/>
</g>
<!-- Node33&#45;&gt;Node2 -->
<g id="edge113" class="edge">
<title>Node33&#45;&gt;Node2</title>
<path fill="none" stroke="midnightblue" d="M2718.25,-146.88C2770.55,-148.21 2836,-159.8 2873,-204 2934.39,-277.33 2889.59,-970.35 2909,-1064 2922.58,-1129.54 2956.03,-1202.1 2972.51,-1235.42"/>
<polygon fill="midnightblue" stroke="midnightblue" points="2969.42,-1237.08 2977.04,-1244.45 2975.68,-1233.94 2969.42,-1237.08"/>
</g>
<!-- Node33&#45;&gt;Node4 -->
<g id="edge110" class="edge">
<title>Node33&#45;&gt;Node4</title>
<path fill="none" stroke="midnightblue" d="M2707.39,-161.66C2711.38,-164.19 2714.99,-167.27 2718,-171 2771.06,-236.72 2746.86,-1606.83 2754,-1691 2766.46,-1837.82 2797.97,-2012.92 2808.79,-2070.56"/>
<polygon fill="midnightblue" stroke="midnightblue" points="2805.37,-2071.3 2810.66,-2080.48 2812.25,-2070 2805.37,-2071.3"/>
</g>
<!-- Node33&#45;&gt;Node8 -->
<g id="edge111" class="edge">
<title>Node33&#45;&gt;Node8</title>
<path fill="none" stroke="midnightblue" d="M2705.67,-161.58C2710.23,-164.1 2714.42,-167.2 2718,-171 2789.85,-247.31 2808.27,-595.77 2811.79,-683.11"/>
<polygon fill="midnightblue" stroke="midnightblue" points="2808.3,-683.38 2812.18,-693.24 2815.29,-683.12 2808.3,-683.38"/>
</g>
<!-- Node33&#45;&gt;Node11 -->
<g id="edge114" class="edge">
<title>Node33&#45;&gt;Node11</title>
<path fill="none" stroke="midnightblue" d="M2656.59,-142.37C2687.2,-125.61 2750.39,-91.01 2786.21,-71.39"/>
<polygon fill="midnightblue" stroke="midnightblue" points="2788.03,-74.39 2795.12,-66.52 2784.67,-68.25 2788.03,-74.39"/>
</g>
<!-- Node33&#45;&gt;Node23 -->
<g id="edge112" class="edge">
<title>Node33&#45;&gt;Node23</title>
<path fill="none" stroke="midnightblue" d="M2682.78,-142.41C2705.99,-137.33 2734.68,-131.04 2759.17,-125.68"/>
<polygon fill="midnightblue" stroke="midnightblue" points="2760.01,-129.08 2769.03,-123.52 2758.52,-122.24 2760.01,-129.08"/>
</g>
<!-- Node34&#45;&gt;Node2 -->
<g id="edge117" class="edge">
<title>Node34&#45;&gt;Node2</title>
<path fill="none" stroke="midnightblue" d="M2336.13,-424.59C2388.75,-427.11 2462.9,-424.58 2522,-399 2541.92,-390.38 2537.77,-373.87 2558,-366 2623.24,-340.62 2822.24,-317.79 2873,-366 2929.31,-419.48 2892.87,-988.03 2909,-1064 2922.9,-1129.47 2956.19,-1202.07 2972.57,-1235.41"/>
<polygon fill="midnightblue" stroke="midnightblue" points="2969.48,-1237.05 2977.07,-1244.44 2975.75,-1233.93 2969.48,-1237.05"/>
</g>
<!-- Node34&#45;&gt;Node8 -->
<g id="edge116" class="edge">
<title>Node34&#45;&gt;Node8</title>
<path fill="none" stroke="midnightblue" d="M2299.79,-427.57C2352.3,-444.13 2463.68,-479.14 2558,-508 2628.99,-529.72 2658.69,-511.34 2718,-556 2763.29,-590.11 2792.82,-652.75 2805.46,-684.09"/>
<polygon fill="midnightblue" stroke="midnightblue" points="2802.21,-685.39 2809.1,-693.44 2808.73,-682.85 2802.21,-685.39"/>
</g>
<!-- Node35 -->
<g id="node35" class="node">
<title>Node35</title>
<g id="a_node35"><a xlink:href="../../d0/dfe/class_syntax_analyzer.html#a8f6dda26a96ec0e5e75bea5eed577856" target="_top" xlink:title=" ">
<polygon fill="none" stroke="black" points="2373,-370.5 2373,-389.5 2522,-389.5 2522,-370.5 2373,-370.5"/>
<text text-anchor="middle" x="2447.5" y="-377.5" font-family="Helvetica,sans-Serif" font-size="10.00">SyntaxAnalyzer::syntaxVarDecl</text>
</a>
</g>
</g>
<!-- Node34&#45;&gt;Node35 -->
<g id="edge118" class="edge">
<title>Node34&#45;&gt;Node35</title>
<path fill="none" stroke="midnightblue" d="M2314.16,-408.41C2337.84,-403.33 2367.11,-397.04 2392.1,-391.68"/>
<polygon fill="midnightblue" stroke="midnightblue" points="2393.11,-395.04 2402.16,-389.52 2391.64,-388.2 2393.11,-395.04"/>
</g>
<!-- Node35&#45;&gt;Node2 -->
<g id="edge121" class="edge">
<title>Node35&#45;&gt;Node2</title>
<path fill="none" stroke="midnightblue" d="M2464.73,-370.28C2527.26,-334.18 2754.98,-215.61 2873,-328 2932.29,-384.46 2892.1,-983.89 2909,-1064 2922.81,-1129.49 2956.15,-1202.08 2972.55,-1235.41"/>
<polygon fill="midnightblue" stroke="midnightblue" points="2969.47,-1237.06 2977.06,-1244.45 2975.73,-1233.94 2969.47,-1237.06"/>
</g>
<!-- Node35&#45;&gt;Node4 -->
<g id="edge119" class="edge">
<title>Node35&#45;&gt;Node4</title>
<path fill="none" stroke="midnightblue" d="M2452.15,-389.92C2478.77,-462.75 2644.05,-922.55 2718,-1311 2749.72,-1477.65 2733.69,-1522.58 2754,-1691 2771.64,-1837.29 2799.82,-2012.73 2809.28,-2070.51"/>
<polygon fill="midnightblue" stroke="midnightblue" points="2805.84,-2071.15 2810.92,-2080.45 2812.75,-2070.02 2805.84,-2071.15"/>
</g>
<!-- Node35&#45;&gt;Node8 -->
<g id="edge120" class="edge">
<title>Node35&#45;&gt;Node8</title>
<path fill="none" stroke="midnightblue" d="M2457.52,-389.61C2475.13,-407.85 2516.09,-447.66 2558,-470 2623.52,-504.92 2660.98,-470.46 2718,-518 2771.7,-562.77 2798.26,-645.83 2807.99,-683.51"/>
<polygon fill="midnightblue" stroke="midnightblue" points="2804.6,-684.38 2810.39,-693.26 2811.4,-682.71 2804.6,-684.38"/>
</g>
<!-- Node36 -->
<g id="node36" class="node">
<title>Node36</title>
<g id="a_node36"><a xlink:href="../../d0/dfe/class_syntax_analyzer.html#a5d262eb9e2236dde3bd043eea0b0e957" target="_top" xlink:title=" ">
<polygon fill="none" stroke="black" points="2559,-180.5 2559,-199.5 2717,-199.5 2717,-180.5 2559,-180.5"/>
<text text-anchor="middle" x="2638" y="-187.5" font-family="Helvetica,sans-Serif" font-size="10.00">SyntaxAnalyzer::syntaxTypeSpec</text>
</a>
</g>
</g>
<!-- Node35&#45;&gt;Node36 -->
<g id="edge122" class="edge">
<title>Node35&#45;&gt;Node36</title>
<path fill="none" stroke="midnightblue" d="M2455.62,-370.45C2472.26,-348.39 2515.57,-292.68 2558,-252 2575.95,-234.8 2598.41,-217.52 2614.79,-205.59"/>
<polygon fill="midnightblue" stroke="midnightblue" points="2617.12,-208.23 2623.2,-199.55 2613.04,-202.54 2617.12,-208.23"/>
</g>
<!-- Node36&#45;&gt;Node2 -->
<g id="edge127" class="edge">
<title>Node36&#45;&gt;Node2</title>
<path fill="none" stroke="midnightblue" d="M2710.28,-199.54C2771.36,-209.31 2852.6,-226.67 2873,-252 2929.65,-322.33 2890.57,-975.59 2909,-1064 2922.66,-1129.52 2956.07,-1202.1 2972.52,-1235.42"/>
<polygon fill="midnightblue" stroke="midnightblue" points="2969.44,-1237.08 2977.05,-1244.45 2975.7,-1233.94 2969.44,-1237.08"/>
</g>
<!-- Node36&#45;&gt;Node4 -->
<g id="edge123" class="edge">
<title>Node36&#45;&gt;Node4</title>
<path fill="none" stroke="midnightblue" d="M2640.51,-199.62C2649.55,-257.69 2696.85,-567.45 2718,-822 2750,-1207.23 2717.91,-1306.13 2754,-1691 2767.76,-1837.71 2798.43,-2012.88 2808.91,-2070.55"/>
<polygon fill="midnightblue" stroke="midnightblue" points="2805.49,-2071.26 2810.73,-2080.47 2812.37,-2070 2805.49,-2071.26"/>
</g>
<!-- Node36&#45;&gt;Node5 -->
<g id="edge126" class="edge">
<title>Node36&#45;&gt;Node5</title>
<path fill="none" stroke="midnightblue" d="M2680.41,-180.48C2732.77,-171.14 2822.2,-164.61 2873,-214 2888.14,-228.72 2965.52,-900.69 2979.75,-1025.25"/>
<polygon fill="midnightblue" stroke="midnightblue" points="2976.28,-1025.74 2980.89,-1035.28 2983.24,-1024.95 2976.28,-1025.74"/>
</g>
<!-- Node36&#45;&gt;Node8 -->
<g id="edge124" class="edge">
<title>Node36&#45;&gt;Node8</title>
<path fill="none" stroke="midnightblue" d="M2649.23,-199.75C2666.21,-216.53 2700.12,-252.69 2718,-290 2785.47,-430.84 2806.03,-622.14 2811.08,-683.33"/>
<polygon fill="midnightblue" stroke="midnightblue" points="2807.6,-683.79 2811.87,-693.49 2814.58,-683.25 2807.6,-683.79"/>
</g>
<!-- Node36&#45;&gt;Node23 -->
<g id="edge125" class="edge">
<title>Node36&#45;&gt;Node23</title>
<path fill="none" stroke="midnightblue" d="M2694.71,-180.38C2702.77,-177.92 2710.78,-174.84 2718,-171 2737.16,-160.8 2735.68,-149.63 2754,-138 2760.24,-134.04 2767.25,-130.5 2774.19,-127.43"/>
<polygon fill="midnightblue" stroke="midnightblue" points="2775.64,-130.62 2783.53,-123.55 2772.96,-124.16 2775.64,-130.62"/>
</g>
<!-- Node37&#45;&gt;Node2 -->
<g id="edge131" class="edge">
<title>Node37&#45;&gt;Node2</title>
<path fill="none" stroke="midnightblue" d="M519.07,-456C594.11,-456 712.79,-456 815.5,-456 815.5,-456 815.5,-456 2269.5,-456 2556.23,-456 2735.23,-432.54 2873,-684 2913.76,-758.39 2889.61,-981.42 2909,-1064 2924.3,-1129.16 2956.92,-1201.91 2972.86,-1235.35"/>
<polygon fill="midnightblue" stroke="midnightblue" points="2969.73,-1236.92 2977.23,-1244.41 2976.04,-1233.88 2969.73,-1236.92"/>
</g>
<!-- Node37&#45;&gt;Node4 -->
<g id="edge129" class="edge">
<title>Node37&#45;&gt;Node4</title>
<path fill="none" stroke="midnightblue" d="M444.74,-465.7C456.28,-614.77 601.26,-2432 815.5,-2432 815.5,-2432 815.5,-2432 1717.5,-2432 1940.18,-2432 2552.48,-2524.96 2718,-2376 2756.24,-2341.59 2737.89,-2314.85 2754,-2266 2772.85,-2208.86 2795.35,-2141.35 2806.13,-2109.07"/>
<polygon fill="midnightblue" stroke="midnightblue" points="2809.47,-2110.13 2809.31,-2099.53 2802.83,-2107.91 2809.47,-2110.13"/>
</g>
<!-- Node37&#45;&gt;Node6 -->
<g id="edge132" class="edge">
<title>Node37&#45;&gt;Node6</title>
<path fill="none" stroke="midnightblue" d="M443.91,-465.65C442.81,-600.5 437.23,-2108.18 731,-2406 822.98,-2499.25 876.52,-2508 1007.5,-2508 1007.5,-2508 1007.5,-2508 1528,-2508 1969.78,-2508 2105.45,-2655.15 2522,-2508 2700.66,-2444.89 2768.45,-2424.03 2873,-2266 2917.05,-2199.41 2854.06,-2147.93 2909,-2090 2914.77,-2083.92 2922.21,-2079.69 2930.13,-2076.77"/>
<polygon fill="midnightblue" stroke="midnightblue" points="2931.39,-2080.05 2939.95,-2073.82 2929.37,-2073.35 2931.39,-2080.05"/>
</g>
<!-- Node37&#45;&gt;Node8 -->
<g id="edge130" class="edge">
<title>Node37&#45;&gt;Node8</title>
<path fill="none" stroke="midnightblue" d="M453.96,-446.32C494.86,-407.6 655.4,-266 815.5,-266 815.5,-266 815.5,-266 1346.5,-266 1674.69,-266 1752.81,-342 2081,-342 2081,-342 2081,-342 2269.5,-342 2382.04,-342 2428.38,-298.54 2522,-361 2551.43,-380.63 2530.21,-410.1 2558,-432 2615.41,-477.24 2662.54,-422.39 2718,-470 2784.57,-527.14 2804.86,-638.16 2810.51,-683.25"/>
<polygon fill="midnightblue" stroke="midnightblue" points="2807.03,-683.68 2811.64,-693.22 2813.99,-682.89 2807.03,-683.68"/>
</g>
<!-- Node37&#45;&gt;Node11 -->
<g id="edge133" class="edge">
<title>Node37&#45;&gt;Node11</title>
<path fill="none" stroke="midnightblue" d="M444.56,-446.24C447.44,-406.11 464.24,-252.86 555,-188 738.41,-56.93 2409.92,-55.6 2751.65,-56.71"/>
<polygon fill="midnightblue" stroke="midnightblue" points="2751.83,-60.21 2761.84,-56.75 2751.85,-53.21 2751.83,-60.21"/>
</g>
<!-- Node37&#45;&gt;Node12 -->
<g id="edge134" class="edge">
<title>Node37&#45;&gt;Node12</title>
<path fill="none" stroke="midnightblue" d="M459.04,-465.52C490.27,-485.31 562.4,-530.99 600.09,-554.85"/>
<polygon fill="midnightblue" stroke="midnightblue" points="598.56,-558.03 608.88,-560.42 602.3,-552.12 598.56,-558.03"/>
</g>
<!-- Node37&#45;&gt;Node35 -->
<g id="edge136" class="edge">
<title>Node37&#45;&gt;Node35</title>
<path fill="none" stroke="midnightblue" d="M471.57,-446.37C532.68,-425.92 684.49,-380 815.5,-380 815.5,-380 815.5,-380 2083,-380 2178.83,-380 2288.88,-380 2362.55,-380"/>
<polygon fill="midnightblue" stroke="midnightblue" points="2362.7,-383.5 2372.7,-380 2362.7,-376.5 2362.7,-383.5"/>
</g>
<!-- Node37&#45;&gt;Node36 -->
<g id="edge135" class="edge">
<title>Node37&#45;&gt;Node36</title>
<path fill="none" stroke="midnightblue" d="M446.22,-446.49C454.36,-413.77 485.83,-304.92 555,-252 649.52,-179.69 696.49,-190 815.5,-190 815.5,-190 815.5,-190 2269.5,-190 2364.86,-190 2474.15,-190 2548.59,-190"/>
<polygon fill="midnightblue" stroke="midnightblue" points="2548.86,-193.5 2558.86,-190 2548.86,-186.5 2548.86,-193.5"/>
</g>
</g>
</svg>
