<?xml version="1.0" encoding="UTF-8" standalone="no"?>
<!DOCTYPE svg PUBLIC "-//W3C//DTD SVG 1.1//EN"
 "http://www.w3.org/Graphics/SVG/1.1/DTD/svg11.dtd">
<!-- Generated by graphviz version 3.0.0 (20220413.0106)
 -->
<!-- Title: SyntaxAnalyzer::syntaxExpr Pages: 1 -->
<svg width="1521pt" height="239pt"
 viewBox="0.00 0.00 1521.00 239.14" xmlns="http://www.w3.org/2000/svg" xmlns:xlink="http://www.w3.org/1999/xlink">
<g id="graph0" class="graph" transform="scale(1 1) rotate(0) translate(4 235.14)">
<title>SyntaxAnalyzer::syntaxExpr</title>
<!-- Node1 -->
<g id="node1" class="node">
<title>Node1</title>
<g id="a_node1"><a xlink:title=" ">
<polygon fill="#bfbfbf" stroke="black" points="1379,-109.85 1379,-128.85 1513,-128.85 1513,-109.85 1379,-109.85"/>
<text text-anchor="middle" x="1446" y="-116.85" font-family="Helvetica,sans-Serif" font-size="10.00">SyntaxAnalyzer::syntaxExpr</text>
</a>
</g>
</g>
<!-- Node2 -->
<g id="node2" class="node">
<title>Node2</title>
<g id="a_node2"><a xlink:href="../../d0/dfe/class_syntax_analyzer.html#ae57b60364b17a4772143fe9a6c3bc2c7" target="_top" xlink:title=" ">
<polygon fill="none" stroke="black" points="1188,-166.85 1188,-185.85 1343,-185.85 1343,-166.85 1188,-166.85"/>
<text text-anchor="middle" x="1265.5" y="-173.85" font-family="Helvetica,sans-Serif" font-size="10.00">SyntaxAnalyzer::syntaxAssignSt</text>
</a>
</g>
</g>
<!-- Node1&#45;&gt;Node2 -->
<g id="edge1" class="edge">
<title>Node1&#45;&gt;Node2</title>
<path fill="none" stroke="midnightblue" d="M1412.27,-132.62C1392.42,-140.4 1366.47,-150.09 1343,-157.35 1331.89,-160.79 1319.72,-164.04 1308.42,-166.84"/>
<polygon fill="midnightblue" stroke="midnightblue" points="1413.75,-135.8 1421.76,-128.86 1411.18,-129.29 1413.75,-135.8"/>
</g>
<!-- Node4 -->
<g id="node4" class="node">
<title>Node4</title>
<g id="a_node4"><a xlink:href="../../d0/dfe/class_syntax_analyzer.html#addd3ca96f66a5261f904e2e0c78a898a" target="_top" xlink:title=" ">
<polygon fill="none" stroke="black" points="833,-204.85 833,-223.85 964,-223.85 964,-204.85 833,-204.85"/>
<text text-anchor="middle" x="898.5" y="-211.85" font-family="Helvetica,sans-Serif" font-size="10.00">SyntaxAnalyzer::syntaxIfSt</text>
</a>
</g>
</g>
<!-- Node1&#45;&gt;Node4 -->
<g id="edge22" class="edge">
<title>Node1&#45;&gt;Node4</title>
<path fill="none" stroke="midnightblue" d="M1428.94,-136.29C1410.27,-154.67 1377.59,-183.05 1343,-195.35 1214.84,-240.91 1052.58,-232.68 964.17,-223.17"/>
<polygon fill="midnightblue" stroke="midnightblue" points="1431.5,-138.67 1436.04,-129.1 1426.52,-133.75 1431.5,-138.67"/>
</g>
<!-- Node11 -->
<g id="node11" class="node">
<title>Node11</title>
<g id="a_node11"><a xlink:href="../../d0/dfe/class_syntax_analyzer.html#a35bb1125afde4b827a0dd8f3bce8dc58" target="_top" xlink:title=" ">
<polygon fill="none" stroke="black" points="824,-90.85 824,-109.85 973,-109.85 973,-90.85 824,-90.85"/>
<text text-anchor="middle" x="898.5" y="-97.85" font-family="Helvetica,sans-Serif" font-size="10.00">SyntaxAnalyzer::syntaxWhileSt</text>
</a>
</g>
</g>
<!-- Node1&#45;&gt;Node11 -->
<g id="edge23" class="edge">
<title>Node1&#45;&gt;Node11</title>
<path fill="none" stroke="midnightblue" d="M1368.74,-116.69C1263.97,-113.04 1076.74,-106.52 973.28,-102.92"/>
<polygon fill="midnightblue" stroke="midnightblue" points="1368.81,-120.2 1378.93,-117.05 1369.06,-113.2 1368.81,-120.2"/>
</g>
<!-- Node12 -->
<g id="node12" class="node">
<title>Node12</title>
<g id="a_node12"><a xlink:href="../../d0/dfe/class_syntax_analyzer.html#a9321de68e44f3918a71256a3c1cd481b" target="_top" xlink:title=" ">
<polygon fill="none" stroke="black" points="1195,-128.85 1195,-147.85 1336,-147.85 1336,-128.85 1195,-128.85"/>
<text text-anchor="middle" x="1265.5" y="-135.85" font-family="Helvetica,sans-Serif" font-size="10.00">SyntaxAnalyzer::syntaxCallSt</text>
</a>
</g>
</g>
<!-- Node1&#45;&gt;Node12 -->
<g id="edge14" class="edge">
<title>Node1&#45;&gt;Node12</title>
<path fill="none" stroke="midnightblue" d="M1368.57,-127.48C1357.82,-128.63 1346.81,-129.8 1336.19,-130.93"/>
<polygon fill="midnightblue" stroke="midnightblue" points="1369.21,-130.94 1378.79,-126.4 1368.47,-123.97 1369.21,-130.94"/>
</g>
<!-- Node13 -->
<g id="node13" class="node">
<title>Node13</title>
<g id="a_node13"><a xlink:href="../../d0/dfe/class_syntax_analyzer.html#ab9b415ddd671b4884ab31cdf194f6c64" target="_top" xlink:title=" ">
<polygon fill="none" stroke="black" points="1009,-34.85 1009,-53.85 1152,-53.85 1152,-34.85 1009,-34.85"/>
<text text-anchor="middle" x="1080.5" y="-41.85" font-family="Helvetica,sans-Serif" font-size="10.00">SyntaxAnalyzer::syntaxFactor</text>
</a>
</g>
</g>
<!-- Node1&#45;&gt;Node13 -->
<g id="edge21" class="edge">
<title>Node1&#45;&gt;Node13</title>
<path fill="none" stroke="midnightblue" d="M1409.66,-106.43C1390.2,-99.7 1365.5,-91.76 1343,-86.35 1279.07,-70.97 1204.97,-59.67 1152,-52.68"/>
<polygon fill="midnightblue" stroke="midnightblue" points="1408.73,-109.82 1419.32,-109.83 1411.05,-103.21 1408.73,-109.82"/>
</g>
<!-- Node3 -->
<g id="node3" class="node">
<title>Node3</title>
<g id="a_node3"><a xlink:href="../../d0/dfe/class_syntax_analyzer.html#affae37bc1fa3a4016dcffad4affbfcbd" target="_top" xlink:title=" ">
<polygon fill="none" stroke="black" points="1018,-147.85 1018,-166.85 1143,-166.85 1143,-147.85 1018,-147.85"/>
<text text-anchor="middle" x="1080.5" y="-154.85" font-family="Helvetica,sans-Serif" font-size="10.00">SyntaxAnalyzer::syntaxSt</text>
</a>
</g>
</g>
<!-- Node2&#45;&gt;Node3 -->
<g id="edge2" class="edge">
<title>Node2&#45;&gt;Node3</title>
<path fill="none" stroke="midnightblue" d="M1177.7,-167.34C1165.98,-166.12 1154.16,-164.89 1143.01,-163.74"/>
<polygon fill="midnightblue" stroke="midnightblue" points="1177.64,-170.85 1187.95,-168.4 1178.37,-163.89 1177.64,-170.85"/>
</g>
<!-- Node3&#45;&gt;Node4 -->
<g id="edge3" class="edge">
<title>Node3&#45;&gt;Node4</title>
<path fill="none" stroke="midnightblue" d="M1022.4,-170.13C1006.5,-175.46 989.16,-181.39 973,-186.35 952.08,-192.77 927.39,-198.85 912.61,-204.79"/>
<polygon fill="midnightblue" stroke="midnightblue" points="1023.71,-173.38 1032.09,-166.9 1021.5,-166.74 1023.71,-173.38"/>
</g>
<!-- Node5 -->
<g id="node5" class="node">
<title>Node5</title>
<g id="a_node5"><a xlink:href="../../d0/dfe/class_syntax_analyzer.html#a79a0e444afd499634f445f0b8919dd0f" target="_top" xlink:title=" ">
<polygon fill="none" stroke="black" points="828,-166.85 828,-185.85 969,-185.85 969,-166.85 828,-166.85"/>
<text text-anchor="middle" x="898.5" y="-173.85" font-family="Helvetica,sans-Serif" font-size="10.00">SyntaxAnalyzer::syntaxStList</text>
</a>
</g>
</g>
<!-- Node3&#45;&gt;Node5 -->
<g id="edge5" class="edge">
<title>Node3&#45;&gt;Node5</title>
<path fill="none" stroke="midnightblue" d="M1007.74,-164.92C995.02,-166.27 981.8,-167.66 969.15,-169"/>
<polygon fill="midnightblue" stroke="midnightblue" points="1008.23,-168.39 1017.81,-163.86 1007.49,-161.43 1008.23,-168.39"/>
</g>
<!-- Node3&#45;&gt;Node11 -->
<g id="edge12" class="edge">
<title>Node3&#45;&gt;Node11</title>
<path fill="none" stroke="midnightblue" d="M1052.94,-143.98C1025.67,-133.43 982.6,-119.41 949.02,-109.93"/>
<polygon fill="midnightblue" stroke="midnightblue" points="1051.98,-147.37 1062.57,-147.84 1054.59,-140.87 1051.98,-147.37"/>
</g>
<!-- Node4&#45;&gt;Node3 -->
<g id="edge4" class="edge">
<title>Node4&#45;&gt;Node3</title>
<path fill="none" stroke="midnightblue" d="M973.68,-204.02C1014.3,-191.24 1051,-177.14 1068.72,-166.94"/>
<polygon fill="midnightblue" stroke="midnightblue" points="972.64,-200.68 964.13,-206.99 974.71,-207.37 972.64,-200.68"/>
</g>
<!-- Node6 -->
<g id="node6" class="node">
<title>Node6</title>
<g id="a_node6"><a xlink:href="../../d0/dfe/class_syntax_analyzer.html#a2c0c19bfe9775405a5b6985cf1c8854c" target="_top" xlink:title=" ">
<polygon fill="none" stroke="black" points="617,-147.85 617,-166.85 788,-166.85 788,-147.85 617,-147.85"/>
<text text-anchor="middle" x="702.5" y="-154.85" font-family="Helvetica,sans-Serif" font-size="10.00">SyntaxAnalyzer::syntaxCompoundSt</text>
</a>
</g>
</g>
<!-- Node5&#45;&gt;Node6 -->
<g id="edge6" class="edge">
<title>Node5&#45;&gt;Node6</title>
<path fill="none" stroke="midnightblue" d="M817.7,-168.53C807.97,-167.58 798.01,-166.6 788.21,-165.64"/>
<polygon fill="midnightblue" stroke="midnightblue" points="817.44,-172.02 827.74,-169.52 818.12,-165.06 817.44,-172.02"/>
</g>
<!-- Node6&#45;&gt;Node3 -->
<g id="edge11" class="edge">
<title>Node6&#45;&gt;Node3</title>
<path fill="none" stroke="midnightblue" d="M798.46,-157.35C867.26,-157.35 958.28,-157.35 1017.83,-157.35"/>
<polygon fill="midnightblue" stroke="midnightblue" points="798.05,-153.85 788.05,-157.35 798.05,-160.85 798.05,-153.85"/>
</g>
<!-- Node7 -->
<g id="node7" class="node">
<title>Node7</title>
<g id="a_node7"><a xlink:href="../../d0/dfe/class_syntax_analyzer.html#aa93b0d722276e335971360e093f19a8e" target="_top" xlink:title=" ">
<polygon fill="none" stroke="black" points="441,-147.85 441,-166.85 581,-166.85 581,-147.85 441,-147.85"/>
<text text-anchor="middle" x="511" y="-154.85" font-family="Helvetica,sans-Serif" font-size="10.00">SyntaxAnalyzer::syntaxBlock</text>
</a>
</g>
</g>
<!-- Node6&#45;&gt;Node7 -->
<g id="edge7" class="edge">
<title>Node6&#45;&gt;Node7</title>
<path fill="none" stroke="midnightblue" d="M606.63,-157.35C598.02,-157.35 589.41,-157.35 581.08,-157.35"/>
<polygon fill="midnightblue" stroke="midnightblue" points="606.73,-160.85 616.73,-157.35 606.73,-153.85 606.73,-160.85"/>
</g>
<!-- Node8 -->
<g id="node8" class="node">
<title>Node8</title>
<g id="a_node8"><a xlink:href="../../d0/dfe/class_syntax_analyzer.html#aeb59cd0062ff3238bcf625c7e20fc5ec" target="_top" xlink:title=" ">
<polygon fill="none" stroke="black" points="253,-147.85 253,-166.85 405,-166.85 405,-147.85 253,-147.85"/>
<text text-anchor="middle" x="329" y="-154.85" font-family="Helvetica,sans-Serif" font-size="10.00">SyntaxAnalyzer::syntaxProgram</text>
</a>
</g>
</g>
<!-- Node7&#45;&gt;Node8 -->
<g id="edge8" class="edge">
<title>Node7&#45;&gt;Node8</title>
<path fill="none" stroke="midnightblue" d="M430.67,-157.35C422.2,-157.35 413.6,-157.35 405.18,-157.35"/>
<polygon fill="midnightblue" stroke="midnightblue" points="430.92,-160.85 440.92,-157.35 430.92,-153.85 430.92,-160.85"/>
</g>
<!-- Node9 -->
<g id="node9" class="node">
<title>Node9</title>
<g id="a_node9"><a xlink:href="../../d0/dfe/class_syntax_analyzer.html#a0472b9d7f2855f118acf9cb7c67ab5a7" target="_top" xlink:title=" ">
<polygon fill="none" stroke="black" points="74,-147.85 74,-166.85 217,-166.85 217,-147.85 74,-147.85"/>
<text text-anchor="middle" x="145.5" y="-154.85" font-family="Helvetica,sans-Serif" font-size="10.00">SyntaxAnalyzer::parseTokens</text>
</a>
</g>
</g>
<!-- Node8&#45;&gt;Node9 -->
<g id="edge9" class="edge">
<title>Node8&#45;&gt;Node9</title>
<path fill="none" stroke="midnightblue" d="M242.84,-157.35C234.26,-157.35 225.61,-157.35 217.21,-157.35"/>
<polygon fill="midnightblue" stroke="midnightblue" points="242.87,-160.85 252.87,-157.35 242.87,-153.85 242.87,-160.85"/>
</g>
<!-- Node10 -->
<g id="node10" class="node">
<title>Node10</title>
<g id="a_node10"><a xlink:href="../../df/d0a/main_8cpp.html#a3c04138a5bfe5d72780bb7e82a18e627" target="_top" xlink:title=" ">
<polygon fill="none" stroke="black" points="0,-147.85 0,-166.85 38,-166.85 38,-147.85 0,-147.85"/>
<text text-anchor="middle" x="19" y="-154.85" font-family="Helvetica,sans-Serif" font-size="10.00">main</text>
</a>
</g>
</g>
<!-- Node9&#45;&gt;Node10 -->
<g id="edge10" class="edge">
<title>Node9&#45;&gt;Node10</title>
<path fill="none" stroke="midnightblue" d="M63.84,-157.35C54.38,-157.35 45.54,-157.35 38.31,-157.35"/>
<polygon fill="midnightblue" stroke="midnightblue" points="63.88,-160.85 73.88,-157.35 63.88,-153.85 63.88,-160.85"/>
</g>
<!-- Node11&#45;&gt;Node3 -->
<g id="edge13" class="edge">
<title>Node11&#45;&gt;Node3</title>
<path fill="none" stroke="midnightblue" d="M926.44,-113.86C953.69,-124.38 996.44,-138.29 1029.84,-147.73"/>
<polygon fill="midnightblue" stroke="midnightblue" points="927.39,-110.47 916.81,-110.01 924.79,-116.97 927.39,-110.47"/>
</g>
<!-- Node12&#45;&gt;Node3 -->
<g id="edge20" class="edge">
<title>Node12&#45;&gt;Node3</title>
<path fill="none" stroke="midnightblue" d="M1184.75,-146.63C1170.84,-148.07 1156.56,-149.56 1143.22,-150.94"/>
<polygon fill="midnightblue" stroke="midnightblue" points="1185.21,-150.1 1194.79,-145.59 1184.49,-143.14 1185.21,-150.1"/>
</g>
<!-- Node12&#45;&gt;Node13 -->
<g id="edge15" class="edge">
<title>Node12&#45;&gt;Node13</title>
<path fill="none" stroke="midnightblue" d="M1237.02,-124.23C1199.3,-104.86 1132.47,-70.53 1100.1,-53.9"/>
<polygon fill="midnightblue" stroke="midnightblue" points="1235.45,-127.36 1245.95,-128.82 1238.65,-121.14 1235.45,-127.36"/>
</g>
<!-- Node13&#45;&gt;Node13 -->
<g id="edge16" class="edge">
<title>Node13&#45;&gt;Node13</title>
<path fill="none" stroke="midnightblue" d="M1114.61,-62.24C1114.11,-67.89 1102.74,-72.35 1080.5,-72.35 1048.15,-72.35 1038.8,-62.91 1052.45,-54.11"/>
<polygon fill="midnightblue" stroke="midnightblue" points="1117.33,-60.04 1108.55,-54.11 1111.72,-64.22 1117.33,-60.04"/>
</g>
<!-- Node14 -->
<g id="node14" class="node">
<title>Node14</title>
<g id="a_node14"><a xlink:href="../../d0/dfe/class_syntax_analyzer.html#a7721cf7d36d549f81fd05c40dba02f67" target="_top" xlink:title=" ">
<polygon fill="none" stroke="black" points="830,-34.85 830,-53.85 967,-53.85 967,-34.85 830,-34.85"/>
<text text-anchor="middle" x="898.5" y="-41.85" font-family="Helvetica,sans-Serif" font-size="10.00">SyntaxAnalyzer::syntaxTerm</text>
</a>
</g>
</g>
<!-- Node13&#45;&gt;Node14 -->
<g id="edge17" class="edge">
<title>Node13&#45;&gt;Node14</title>
<path fill="none" stroke="midnightblue" d="M998.84,-44.35C988.29,-44.35 977.57,-44.35 967.27,-44.35"/>
<polygon fill="midnightblue" stroke="midnightblue" points="998.88,-47.85 1008.88,-44.35 998.88,-40.85 998.88,-47.85"/>
</g>
<!-- Node15 -->
<g id="node15" class="node">
<title>Node15</title>
<g id="a_node15"><a xlink:href="../../d0/dfe/class_syntax_analyzer.html#a920d9565d4aa2e3815ff9e7146f45a0b" target="_top" xlink:title=" ">
<polygon fill="none" stroke="black" points="620.5,-15.85 620.5,-34.85 784.5,-34.85 784.5,-15.85 620.5,-15.85"/>
<text text-anchor="middle" x="702.5" y="-22.85" font-family="Helvetica,sans-Serif" font-size="10.00">SyntaxAnalyzer::syntaxSimpleExpr</text>
</a>
</g>
</g>
<!-- Node14&#45;&gt;Node15 -->
<g id="edge18" class="edge">
<title>Node14&#45;&gt;Node15</title>
<path fill="none" stroke="midnightblue" d="M819.83,-36.74C808.21,-35.6 796.2,-34.43 784.51,-33.28"/>
<polygon fill="midnightblue" stroke="midnightblue" points="819.63,-40.24 829.92,-37.73 820.31,-33.27 819.63,-40.24"/>
</g>
<!-- Node15&#45;&gt;Node1 -->
<g id="edge19" class="edge">
<title>Node15&#45;&gt;Node1</title>
<path fill="none" stroke="midnightblue" d="M774.87,-14.47C896.14,0.99 1148.2,19.96 1343,-53.35 1379.13,-66.94 1415.72,-94.83 1433.66,-109.63"/>
<polygon fill="midnightblue" stroke="midnightblue" points="774.07,-11.05 764.61,-15.82 774.98,-17.99 774.07,-11.05"/>
</g>
</g>
</svg>
