<?xml version="1.0" encoding="UTF-8" standalone="no"?>
<!DOCTYPE svg PUBLIC "-//W3C//DTD SVG 1.1//EN"
 "http://www.w3.org/Graphics/SVG/1.1/DTD/svg11.dtd">
<!-- Generated by graphviz version 3.0.0 (20220413.0106)
 -->
<!-- Title: SyntaxAnalyzer::syntaxEmptySt Pages: 1 -->
<svg width="1666pt" height="165pt"
 viewBox="0.00 0.00 1666.00 165.07" xmlns="http://www.w3.org/2000/svg" xmlns:xlink="http://www.w3.org/1999/xlink">
<g id="graph0" class="graph" transform="scale(1 1) rotate(0) translate(4 161.07)">
<title>SyntaxAnalyzer::syntaxEmptySt</title>
<!-- Node1 -->
<g id="node1" class="node">
<title>Node1</title>
<g id="a_node1"><a xlink:title=" ">
<polygon fill="#bfbfbf" stroke="black" points="1506,-80.57 1506,-99.57 1658,-99.57 1658,-80.57 1506,-80.57"/>
<text text-anchor="middle" x="1582" y="-87.57" font-family="Helvetica,sans-Serif" font-size="10.00">SyntaxAnalyzer::syntaxEmptySt</text>
</a>
</g>
</g>
<!-- Node2 -->
<g id="node2" class="node">
<title>Node2</title>
<g id="a_node2"><a xlink:href="../../d0/dfe/class_syntax_analyzer.html#a1332b189c9be3ef8969eda9f078a97b3" target="_top" xlink:title=" ">
<polygon fill="none" stroke="black" points="1345,-80.57 1345,-99.57 1470,-99.57 1470,-80.57 1345,-80.57"/>
<text text-anchor="middle" x="1407.5" y="-87.57" font-family="Helvetica,sans-Serif" font-size="10.00">SyntaxAnalyzer::syntaxSt</text>
</a>
</g>
</g>
<!-- Node1&#45;&gt;Node2 -->
<g id="edge1" class="edge">
<title>Node1&#45;&gt;Node2</title>
<path fill="none" stroke="midnightblue" d="M1495.76,-90.07C1487.15,-90.07 1478.52,-90.07 1470.23,-90.07"/>
<polygon fill="midnightblue" stroke="midnightblue" points="1495.84,-93.57 1505.84,-90.07 1495.84,-86.57 1495.84,-93.57"/>
</g>
<!-- Node3 -->
<g id="node3" class="node">
<title>Node3</title>
<g id="a_node3"><a xlink:href="../../d0/dfe/class_syntax_analyzer.html#afd2005539c57ee2575cab3c50d061cd9" target="_top" xlink:title=" ">
<polygon fill="none" stroke="black" points="1165,-137.57 1165,-156.57 1304,-156.57 1304,-137.57 1165,-137.57"/>
<text text-anchor="middle" x="1234.5" y="-144.57" font-family="Helvetica,sans-Serif" font-size="10.00">SyntaxAnalyzer::syntaxForSt</text>
</a>
</g>
</g>
<!-- Node2&#45;&gt;Node3 -->
<g id="edge2" class="edge">
<title>Node2&#45;&gt;Node3</title>
<path fill="none" stroke="midnightblue" d="M1353.94,-103.2C1339.5,-108.5 1323.75,-114.3 1309,-119.07 1288.31,-125.75 1263.75,-131.71 1248.91,-137.51"/>
<polygon fill="midnightblue" stroke="midnightblue" points="1355.51,-106.35 1363.7,-99.64 1353.1,-99.78 1355.51,-106.35"/>
</g>
<!-- Node4 -->
<g id="node4" class="node">
<title>Node4</title>
<g id="a_node4"><a xlink:href="../../d0/dfe/class_syntax_analyzer.html#a44506791ee9420b418715a9e87908aeb" target="_top" xlink:title=" ">
<polygon fill="none" stroke="black" points="1169,-99.57 1169,-118.57 1300,-118.57 1300,-99.57 1169,-99.57"/>
<text text-anchor="middle" x="1234.5" y="-106.57" font-family="Helvetica,sans-Serif" font-size="10.00">SyntaxAnalyzer::syntaxIfSt</text>
</a>
</g>
</g>
<!-- Node2&#45;&gt;Node4 -->
<g id="edge4" class="edge">
<title>Node2&#45;&gt;Node4</title>
<path fill="none" stroke="midnightblue" d="M1334.72,-91.37C1312.62,-93.57 1289.27,-96.53 1270.78,-99.56"/>
<polygon fill="midnightblue" stroke="midnightblue" points="1335.14,-94.85 1344.77,-90.41 1334.48,-87.88 1335.14,-94.85"/>
</g>
<!-- Node5 -->
<g id="node5" class="node">
<title>Node5</title>
<g id="a_node5"><a xlink:href="../../d0/dfe/class_syntax_analyzer.html#a01d109f26cc4d069b40fed83435e3141" target="_top" xlink:title=" ">
<polygon fill="none" stroke="black" points="1164,-61.57 1164,-80.57 1305,-80.57 1305,-61.57 1164,-61.57"/>
<text text-anchor="middle" x="1234.5" y="-68.57" font-family="Helvetica,sans-Serif" font-size="10.00">SyntaxAnalyzer::syntaxStList</text>
</a>
</g>
</g>
<!-- Node2&#45;&gt;Node5 -->
<g id="edge6" class="edge">
<title>Node2&#45;&gt;Node5</title>
<path fill="none" stroke="midnightblue" d="M1334.72,-82.09C1324.97,-81.01 1314.98,-79.9 1305.27,-78.82"/>
<polygon fill="midnightblue" stroke="midnightblue" points="1334.44,-85.58 1344.77,-83.21 1335.21,-78.62 1334.44,-85.58"/>
</g>
<!-- Node14 -->
<g id="node14" class="node">
<title>Node14</title>
<g id="a_node14"><a xlink:href="../../d0/dfe/class_syntax_analyzer.html#a4a85e884f3f202c24ce09cc0c0e281b1" target="_top" xlink:title=" ">
<polygon fill="none" stroke="black" points="1160,-23.57 1160,-42.57 1309,-42.57 1309,-23.57 1160,-23.57"/>
<text text-anchor="middle" x="1234.5" y="-30.57" font-family="Helvetica,sans-Serif" font-size="10.00">SyntaxAnalyzer::syntaxWhileSt</text>
</a>
</g>
</g>
<!-- Node2&#45;&gt;Node14 -->
<g id="edge17" class="edge">
<title>Node2&#45;&gt;Node14</title>
<path fill="none" stroke="midnightblue" d="M1387.93,-75.34C1368.49,-64.87 1336.95,-52.09 1309,-43.07 1308.5,-42.9 1307.99,-42.74 1307.49,-42.58"/>
<polygon fill="midnightblue" stroke="midnightblue" points="1386.27,-78.42 1396.67,-80.41 1389.78,-72.36 1386.27,-78.42"/>
</g>
<!-- Node3&#45;&gt;Node2 -->
<g id="edge3" class="edge">
<title>Node3&#45;&gt;Node2</title>
<path fill="none" stroke="midnightblue" d="M1313.73,-135.43C1347.98,-123.85 1380.74,-109.88 1396.67,-99.72"/>
<polygon fill="midnightblue" stroke="midnightblue" points="1312.44,-132.17 1304.04,-138.63 1314.64,-138.82 1312.44,-132.17"/>
</g>
<!-- Node4&#45;&gt;Node2 -->
<g id="edge5" class="edge">
<title>Node4&#45;&gt;Node2</title>
<path fill="none" stroke="midnightblue" d="M1310.22,-107.47C1331.37,-105.3 1353.42,-102.49 1371.07,-99.6"/>
<polygon fill="midnightblue" stroke="midnightblue" points="1309.87,-103.98 1300.26,-108.44 1310.55,-110.95 1309.87,-103.98"/>
</g>
<!-- Node6 -->
<g id="node6" class="node">
<title>Node6</title>
<g id="a_node6"><a xlink:href="../../d0/dfe/class_syntax_analyzer.html#a1390f811b111005b207bd039d2623dd4" target="_top" xlink:title=" ">
<polygon fill="none" stroke="black" points="953,-23.57 953,-42.57 1124,-42.57 1124,-23.57 953,-23.57"/>
<text text-anchor="middle" x="1038.5" y="-30.57" font-family="Helvetica,sans-Serif" font-size="10.00">SyntaxAnalyzer::syntaxCompoundSt</text>
</a>
</g>
</g>
<!-- Node5&#45;&gt;Node6 -->
<g id="edge7" class="edge">
<title>Node5&#45;&gt;Node6</title>
<path fill="none" stroke="midnightblue" d="M1174.59,-59.53C1146.92,-54.11 1114.34,-47.73 1088.1,-42.59"/>
<polygon fill="midnightblue" stroke="midnightblue" points="1174.06,-62.99 1184.55,-61.48 1175.4,-56.12 1174.06,-62.99"/>
</g>
<!-- Node6&#45;&gt;Node2 -->
<g id="edge16" class="edge">
<title>Node6&#45;&gt;Node2</title>
<path fill="none" stroke="midnightblue" d="M1079.43,-20.72C1133.19,-6.21 1231.07,12.72 1309,-14.07 1347.77,-27.39 1382.96,-63.14 1398.33,-80.43"/>
<polygon fill="midnightblue" stroke="midnightblue" points="1078.3,-17.4 1069.6,-23.46 1080.18,-24.14 1078.3,-17.4"/>
</g>
<!-- Node7 -->
<g id="node7" class="node">
<title>Node7</title>
<g id="a_node7"><a xlink:href="../../d0/dfe/class_syntax_analyzer.html#a500e4e0cd0605ebbee4ab452948fa2ca" target="_top" xlink:title=" ">
<polygon fill="none" stroke="black" points="777,-23.57 777,-42.57 917,-42.57 917,-23.57 777,-23.57"/>
<text text-anchor="middle" x="847" y="-30.57" font-family="Helvetica,sans-Serif" font-size="10.00">SyntaxAnalyzer::syntaxBlock</text>
</a>
</g>
</g>
<!-- Node6&#45;&gt;Node7 -->
<g id="edge8" class="edge">
<title>Node6&#45;&gt;Node7</title>
<path fill="none" stroke="midnightblue" d="M942.63,-33.07C934.02,-33.07 925.41,-33.07 917.08,-33.07"/>
<polygon fill="midnightblue" stroke="midnightblue" points="942.73,-36.57 952.73,-33.07 942.73,-29.57 942.73,-36.57"/>
</g>
<!-- Node8 -->
<g id="node8" class="node">
<title>Node8</title>
<g id="a_node8"><a xlink:href="../../d0/dfe/class_syntax_analyzer.html#a4dc8338b4fc879f36e63f27fe3ce7041" target="_top" xlink:title=" ">
<polygon fill="none" stroke="black" points="589,-42.57 589,-61.57 741,-61.57 741,-42.57 589,-42.57"/>
<text text-anchor="middle" x="665" y="-49.57" font-family="Helvetica,sans-Serif" font-size="10.00">SyntaxAnalyzer::syntaxFuncDef</text>
</a>
</g>
</g>
<!-- Node7&#45;&gt;Node8 -->
<g id="edge9" class="edge">
<title>Node7&#45;&gt;Node8</title>
<path fill="none" stroke="midnightblue" d="M766.95,-41.41C758.39,-42.31 749.69,-43.23 741.18,-44.13"/>
<polygon fill="midnightblue" stroke="midnightblue" points="767.34,-44.89 776.92,-40.36 766.61,-37.93 767.34,-44.89"/>
</g>
<!-- Node9 -->
<g id="node9" class="node">
<title>Node9</title>
<g id="a_node9"><a xlink:href="../../d0/dfe/class_syntax_analyzer.html#ada547456d19f4a7490f57f7dc9bfed94" target="_top" xlink:title=" ">
<polygon fill="none" stroke="black" points="401,-23.57 401,-42.57 553,-42.57 553,-23.57 401,-23.57"/>
<text text-anchor="middle" x="477" y="-30.57" font-family="Helvetica,sans-Serif" font-size="10.00">SyntaxAnalyzer::syntaxProgram</text>
</a>
</g>
</g>
<!-- Node7&#45;&gt;Node9 -->
<g id="edge15" class="edge">
<title>Node7&#45;&gt;Node9</title>
<path fill="none" stroke="midnightblue" d="M766.46,-33.07C703.21,-33.07 615.34,-33.07 553.24,-33.07"/>
<polygon fill="midnightblue" stroke="midnightblue" points="766.78,-36.57 776.78,-33.07 766.78,-29.57 766.78,-36.57"/>
</g>
<!-- Node8&#45;&gt;Node9 -->
<g id="edge10" class="edge">
<title>Node8&#45;&gt;Node9</title>
<path fill="none" stroke="midnightblue" d="M578.85,-43.37C570.26,-42.49 561.57,-41.6 553.1,-40.74"/>
<polygon fill="midnightblue" stroke="midnightblue" points="578.58,-46.86 588.88,-44.39 579.29,-39.89 578.58,-46.86"/>
</g>
<!-- Node10 -->
<g id="node10" class="node">
<title>Node10</title>
<g id="a_node10"><a xlink:href="../../d0/dfe/class_syntax_analyzer.html#addbd9bc0fe0dae8cd2ddb4fbafea0fcc" target="_top" xlink:title="Синтаксический анализ токенов, переданных анализатору.">
<polygon fill="none" stroke="black" points="213,-23.57 213,-42.57 365,-42.57 365,-23.57 213,-23.57"/>
<text text-anchor="middle" x="289" y="-30.57" font-family="Helvetica,sans-Serif" font-size="10.00">SyntaxAnalyzer::analyzeTokens</text>
</a>
</g>
</g>
<!-- Node9&#45;&gt;Node10 -->
<g id="edge11" class="edge">
<title>Node9&#45;&gt;Node10</title>
<path fill="none" stroke="midnightblue" d="M390.85,-33.07C382.26,-33.07 373.57,-33.07 365.1,-33.07"/>
<polygon fill="midnightblue" stroke="midnightblue" points="390.88,-36.57 400.88,-33.07 390.88,-29.57 390.88,-36.57"/>
</g>
<!-- Node11 -->
<g id="node11" class="node">
<title>Node11</title>
<g id="a_node11"><a xlink:href="../../d1/d80/namespace_analyze.html#a1597f9f086c3276d0287917efbed14b8" target="_top" xlink:title=" ">
<polygon fill="none" stroke="black" points="74,-42.57 74,-61.57 177,-61.57 177,-42.57 74,-42.57"/>
<text text-anchor="middle" x="125.5" y="-49.57" font-family="Helvetica,sans-Serif" font-size="10.00">Analyze::analyzeFile</text>
</a>
</g>
</g>
<!-- Node10&#45;&gt;Node11 -->
<g id="edge12" class="edge">
<title>Node10&#45;&gt;Node11</title>
<path fill="none" stroke="midnightblue" d="M202.76,-43.09C194.11,-44.11 185.53,-45.12 177.41,-46.08"/>
<polygon fill="midnightblue" stroke="midnightblue" points="203.4,-46.54 212.92,-41.9 202.58,-39.59 203.4,-46.54"/>
</g>
<!-- Node13 -->
<g id="node13" class="node">
<title>Node13</title>
<g id="a_node13"><a xlink:href="../../db/df9/test_semantic_8cpp.html#a804faf7fd199a3c491020f1f2caa618b" target="_top" xlink:title="Тест семантического анализа Паскаля">
<polygon fill="none" stroke="black" points="105,-4.57 105,-23.57 146,-23.57 146,-4.57 105,-4.57"/>
<text text-anchor="middle" x="125.5" y="-11.57" font-family="Helvetica,sans-Serif" font-size="10.00">TEST</text>
</a>
</g>
</g>
<!-- Node10&#45;&gt;Node13 -->
<g id="edge14" class="edge">
<title>Node10&#45;&gt;Node13</title>
<path fill="none" stroke="midnightblue" d="M202.84,-23.05C181.63,-20.55 160.83,-18.1 146.31,-16.4"/>
<polygon fill="midnightblue" stroke="midnightblue" points="202.58,-26.54 212.92,-24.23 203.4,-19.59 202.58,-26.54"/>
</g>
<!-- Node12 -->
<g id="node12" class="node">
<title>Node12</title>
<g id="a_node12"><a xlink:href="../../d3/db4/graph_draw_8cpp.html#a3c04138a5bfe5d72780bb7e82a18e627" target="_top" xlink:title=" ">
<polygon fill="none" stroke="black" points="0,-42.57 0,-61.57 38,-61.57 38,-42.57 0,-42.57"/>
<text text-anchor="middle" x="19" y="-49.57" font-family="Helvetica,sans-Serif" font-size="10.00">main</text>
</a>
</g>
</g>
<!-- Node11&#45;&gt;Node12 -->
<g id="edge13" class="edge">
<title>Node11&#45;&gt;Node12</title>
<path fill="none" stroke="midnightblue" d="M63.7,-52.07C54.49,-52.07 45.64,-52.07 38.35,-52.07"/>
<polygon fill="midnightblue" stroke="midnightblue" points="63.78,-55.57 73.78,-52.07 63.78,-48.57 63.78,-55.57"/>
</g>
<!-- Node14&#45;&gt;Node2 -->
<g id="edge18" class="edge">
<title>Node14&#45;&gt;Node2</title>
<path fill="none" stroke="midnightblue" d="M1258.62,-46.04C1273.2,-50.78 1292.35,-55.69 1309,-61.07 1327.15,-66.93 1346.82,-74.37 1363.7,-80.5"/>
<polygon fill="midnightblue" stroke="midnightblue" points="1259.51,-42.64 1248.91,-42.62 1257.18,-49.25 1259.51,-42.64"/>
</g>
</g>
</svg>
