<?xml version="1.0" encoding="UTF-8" standalone="no"?>
<!DOCTYPE svg PUBLIC "-//W3C//DTD SVG 1.1//EN"
 "http://www.w3.org/Graphics/SVG/1.1/DTD/svg11.dtd">
<!-- Generated by graphviz version 3.0.0 (20220413.0106)
 -->
<!-- Title: SyntaxAnalyzer::parseTokens Pages: 1 -->
<svg width="2517pt" height="1497pt"
 viewBox="0.00 0.00 2517.00 1497.26" xmlns="http://www.w3.org/2000/svg" xmlns:xlink="http://www.w3.org/1999/xlink">
<g id="graph0" class="graph" transform="scale(1 1) rotate(0) translate(4 1493.26)">
<title>SyntaxAnalyzer::parseTokens</title>
<!-- Node1 -->
<g id="node1" class="node">
<title>Node1</title>
<g id="a_node1"><a xlink:title=" ">
<polygon fill="#bfbfbf" stroke="black" points="0,-1339.75 0,-1358.75 143,-1358.75 143,-1339.75 0,-1339.75"/>
<text text-anchor="middle" x="71.5" y="-1346.75" font-family="Helvetica,sans-Serif" font-size="10.00">SyntaxAnalyzer::parseTokens</text>
</a>
</g>
</g>
<!-- Node2 -->
<g id="node2" class="node">
<title>Node2</title>
<g id="a_node2"><a xlink:href="../../d0/dfe/class_syntax_analyzer.html#a3ae6c7319e61cd669c417f189b098374" target="_top" xlink:title=" ">
<polygon fill="none" stroke="black" points="2369,-656.75 2369,-675.75 2501,-675.75 2501,-656.75 2369,-656.75"/>
<text text-anchor="middle" x="2435" y="-663.75" font-family="Helvetica,sans-Serif" font-size="10.00">SyntaxAnalyzer::getCurTok</text>
</a>
</g>
</g>
<!-- Node1&#45;&gt;Node2 -->
<g id="edge1" class="edge">
<title>Node1&#45;&gt;Node2</title>
<path fill="none" stroke="midnightblue" d="M87.03,-1358.81C134.8,-1389.31 292.19,-1482.25 436,-1482.25 436,-1482.25 436,-1482.25 2110,-1482.25 2207.36,-1482.25 2260.39,-1513.09 2325,-1440.25 2361.23,-1399.41 2352.17,-1004.12 2361,-950.25 2377.58,-849.07 2413.25,-731.32 2427.72,-685.69"/>
<polygon fill="midnightblue" stroke="midnightblue" points="2431.13,-686.52 2430.84,-675.93 2424.46,-684.38 2431.13,-686.52"/>
</g>
<!-- Node3 -->
<g id="node3" class="node">
<title>Node3</title>
<g id="a_node3"><a xlink:href="../../d0/dfe/class_syntax_analyzer.html#aeb59cd0062ff3238bcf625c7e20fc5ec" target="_top" xlink:title=" ">
<polygon fill="none" stroke="black" points="179,-1320.75 179,-1339.75 331,-1339.75 331,-1320.75 179,-1320.75"/>
<text text-anchor="middle" x="255" y="-1327.75" font-family="Helvetica,sans-Serif" font-size="10.00">SyntaxAnalyzer::syntaxProgram</text>
</a>
</g>
</g>
<!-- Node1&#45;&gt;Node3 -->
<g id="edge2" class="edge">
<title>Node1&#45;&gt;Node3</title>
<path fill="none" stroke="midnightblue" d="M143.19,-1341.85C151.56,-1340.97 160.17,-1340.07 168.72,-1339.18"/>
<polygon fill="midnightblue" stroke="midnightblue" points="169.12,-1342.65 178.7,-1338.13 168.39,-1335.69 169.12,-1342.65"/>
</g>
<!-- Node3&#45;&gt;Node2 -->
<g id="edge6" class="edge">
<title>Node3&#45;&gt;Node2</title>
<path fill="none" stroke="midnightblue" d="M273.58,-1339.77C325.84,-1367.17 485.49,-1444.25 627.5,-1444.25 627.5,-1444.25 627.5,-1444.25 2110,-1444.25 2207.36,-1444.25 2260.17,-1474.89 2325,-1402.25 2358.55,-1364.66 2352.7,-999.94 2361,-950.25 2377.89,-849.12 2413.39,-731.34 2427.76,-685.7"/>
<polygon fill="midnightblue" stroke="midnightblue" points="2431.17,-686.52 2430.86,-675.93 2424.5,-684.4 2431.17,-686.52"/>
</g>
<!-- Node4 -->
<g id="node4" class="node">
<title>Node4</title>
<g id="a_node4"><a xlink:href="../../d0/dfe/class_syntax_analyzer.html#a5d17bcae2fd7dc11d0710e046c4c3280" target="_top" xlink:title=" ">
<polygon fill="none" stroke="black" points="2224,-959.75 2224,-978.75 2325,-978.75 2325,-959.75 2224,-959.75"/>
<text text-anchor="middle" x="2274.5" y="-966.75" font-family="Helvetica,sans-Serif" font-size="10.00">SyntaxAnalyzer::eat</text>
</a>
</g>
</g>
<!-- Node3&#45;&gt;Node4 -->
<g id="edge3" class="edge">
<title>Node3&#45;&gt;Node4</title>
<path fill="none" stroke="midnightblue" d="M273.58,-1320.73C325.84,-1293.33 485.49,-1216.25 627.5,-1216.25 627.5,-1216.25 627.5,-1216.25 1920.5,-1216.25 2041.13,-1216.25 2100.55,-1253.35 2188,-1170.25 2240.84,-1120.04 2185.89,-1072.38 2224,-1010.25 2230.1,-1000.3 2239.48,-991.64 2248.44,-984.87"/>
<polygon fill="midnightblue" stroke="midnightblue" points="2250.63,-987.61 2256.78,-978.99 2246.59,-981.89 2250.63,-987.61"/>
</g>
<!-- Node6 -->
<g id="node6" class="node">
<title>Node6</title>
<g id="a_node6"><a xlink:href="../../d0/dfe/class_syntax_analyzer.html#aa93b0d722276e335971360e093f19a8e" target="_top" xlink:title=" ">
<polygon fill="none" stroke="black" points="367,-1168.75 367,-1187.75 507,-1187.75 507,-1168.75 367,-1168.75"/>
<text text-anchor="middle" x="437" y="-1175.75" font-family="Helvetica,sans-Serif" font-size="10.00">SyntaxAnalyzer::syntaxBlock</text>
</a>
</g>
</g>
<!-- Node3&#45;&gt;Node6 -->
<g id="edge7" class="edge">
<title>Node3&#45;&gt;Node6</title>
<path fill="none" stroke="midnightblue" d="M261.73,-1320.72C276.33,-1297.21 317.33,-1235.91 367,-1202.25 373.21,-1198.04 380.23,-1194.5 387.36,-1191.54"/>
<polygon fill="midnightblue" stroke="midnightblue" points="388.97,-1194.67 397.07,-1187.85 386.48,-1188.12 388.97,-1194.67"/>
</g>
<!-- Node4&#45;&gt;Node2 -->
<g id="edge4" class="edge">
<title>Node4&#45;&gt;Node2</title>
<path fill="none" stroke="midnightblue" d="M2281.92,-959.58C2291.68,-944.73 2310.64,-915.27 2325,-889.25 2365.73,-815.45 2407.86,-724.23 2425.47,-685.3"/>
<polygon fill="midnightblue" stroke="midnightblue" points="2428.84,-686.32 2429.76,-675.77 2422.46,-683.45 2428.84,-686.32"/>
</g>
<!-- Node5 -->
<g id="node5" class="node">
<title>Node5</title>
<g id="a_node5"><a xlink:href="../../d0/dfe/class_syntax_analyzer.html#a9e41370d8d74fbd2e77648d2071e7dfe" target="_top" xlink:title=" ">
<polygon fill="none" stroke="black" points="2361,-959.75 2361,-978.75 2509,-978.75 2509,-959.75 2361,-959.75"/>
<text text-anchor="middle" x="2435" y="-966.75" font-family="Helvetica,sans-Serif" font-size="10.00">SyntaxAnalyzer::getNextToken</text>
</a>
</g>
</g>
<!-- Node4&#45;&gt;Node5 -->
<g id="edge5" class="edge">
<title>Node4&#45;&gt;Node5</title>
<path fill="none" stroke="midnightblue" d="M2325.22,-969.25C2333.37,-969.25 2342.02,-969.25 2350.72,-969.25"/>
<polygon fill="midnightblue" stroke="midnightblue" points="2350.95,-972.75 2360.95,-969.25 2350.95,-965.75 2350.95,-972.75"/>
</g>
<!-- Node7 -->
<g id="node7" class="node">
<title>Node7</title>
<g id="a_node7"><a xlink:href="../../d0/dfe/class_syntax_analyzer.html#a2c0c19bfe9775405a5b6985cf1c8854c" target="_top" xlink:title=" ">
<polygon fill="none" stroke="black" points="543,-1064.75 543,-1083.75 714,-1083.75 714,-1064.75 543,-1064.75"/>
<text text-anchor="middle" x="628.5" y="-1071.75" font-family="Helvetica,sans-Serif" font-size="10.00">SyntaxAnalyzer::syntaxCompoundSt</text>
</a>
</g>
</g>
<!-- Node6&#45;&gt;Node7 -->
<g id="edge8" class="edge">
<title>Node6&#45;&gt;Node7</title>
<path fill="none" stroke="midnightblue" d="M455.49,-1168.65C488.77,-1150.39 561.4,-1110.53 600.8,-1088.9"/>
<polygon fill="midnightblue" stroke="midnightblue" points="602.97,-1091.7 610.05,-1083.82 599.6,-1085.57 602.97,-1091.7"/>
</g>
<!-- Node28 -->
<g id="node28" class="node">
<title>Node28</title>
<g id="a_node28"><a xlink:href="../../d0/dfe/class_syntax_analyzer.html#a9dc26002a15e26254df5a115511b872c" target="_top" xlink:title=" ">
<polygon fill="none" stroke="black" points="1458,-693.75 1458,-712.75 1604,-712.75 1604,-693.75 1458,-693.75"/>
<text text-anchor="middle" x="1531" y="-700.75" font-family="Helvetica,sans-Serif" font-size="10.00">SyntaxAnalyzer::syntaxConsts</text>
</a>
</g>
</g>
<!-- Node6&#45;&gt;Node28 -->
<g id="edge68" class="edge">
<title>Node6&#45;&gt;Node28</title>
<path fill="none" stroke="midnightblue" d="M507.1,-1182.31C653.24,-1187.73 1000.12,-1183.73 1243,-1045.25 1386.54,-963.41 1490.03,-780.73 1520.64,-721.89"/>
<polygon fill="midnightblue" stroke="midnightblue" points="1523.77,-723.47 1525.22,-712.97 1517.54,-720.27 1523.77,-723.47"/>
</g>
<!-- Node30 -->
<g id="node30" class="node">
<title>Node30</title>
<g id="a_node30"><a xlink:href="../../d0/dfe/class_syntax_analyzer.html#a31a844667194ddf21425e3c2e6f2a007" target="_top" xlink:title=" ">
<polygon fill="none" stroke="black" points="1661.5,-1282.75 1661.5,-1301.75 1796.5,-1301.75 1796.5,-1282.75 1661.5,-1282.75"/>
<text text-anchor="middle" x="1729" y="-1289.75" font-family="Helvetica,sans-Serif" font-size="10.00">SyntaxAnalyzer::syntaxVars</text>
</a>
</g>
</g>
<!-- Node6&#45;&gt;Node30 -->
<g id="edge75" class="edge">
<title>Node6&#45;&gt;Node30</title>
<path fill="none" stroke="midnightblue" d="M460.31,-1187.88C518.33,-1212.03 679.24,-1273.25 819.5,-1273.25 819.5,-1273.25 819.5,-1273.25 1347,-1273.25 1452.53,-1273.25 1574.3,-1280.61 1651.21,-1286.17"/>
<polygon fill="midnightblue" stroke="midnightblue" points="1651.06,-1289.67 1661.29,-1286.91 1651.57,-1282.69 1651.06,-1289.67"/>
</g>
<!-- Node7&#45;&gt;Node4 -->
<g id="edge10" class="edge">
<title>Node7&#45;&gt;Node4</title>
<path fill="none" stroke="midnightblue" d="M657.83,-1083.75C736.96,-1109.43 967.45,-1178.25 1164.5,-1178.25 1164.5,-1178.25 1164.5,-1178.25 1920.5,-1178.25 2041.37,-1178.25 2097.86,-1209.77 2188,-1129.25 2229.21,-1092.44 2193.42,-1056.27 2224,-1010.25 2230.55,-1000.39 2240.17,-991.66 2249.2,-984.82"/>
<polygon fill="midnightblue" stroke="midnightblue" points="2251.44,-987.52 2257.55,-978.86 2247.37,-981.82 2251.44,-987.52"/>
</g>
<!-- Node8 -->
<g id="node8" class="node">
<title>Node8</title>
<g id="a_node8"><a xlink:href="../../da/dbb/class_compound_a_s_t.html#a596c1d112edc624fe50ed8a261ffd532" target="_top" xlink:title=" ">
<polygon fill="none" stroke="black" points="758,-1026.75 758,-1045.75 883,-1045.75 883,-1026.75 758,-1026.75"/>
<text text-anchor="middle" x="820.5" y="-1033.75" font-family="Helvetica,sans-Serif" font-size="10.00">CompoundAST::addChild</text>
</a>
</g>
</g>
<!-- Node7&#45;&gt;Node8 -->
<g id="edge9" class="edge">
<title>Node7&#45;&gt;Node8</title>
<path fill="none" stroke="midnightblue" d="M677.45,-1064.66C703.08,-1059.53 734.84,-1053.18 761.82,-1047.79"/>
<polygon fill="midnightblue" stroke="midnightblue" points="762.78,-1051.16 771.9,-1045.77 761.41,-1044.3 762.78,-1051.16"/>
</g>
<!-- Node9 -->
<g id="node9" class="node">
<title>Node9</title>
<g id="a_node9"><a xlink:href="../../d0/dfe/class_syntax_analyzer.html#a79a0e444afd499634f445f0b8919dd0f" target="_top" xlink:title=" ">
<polygon fill="none" stroke="black" points="750,-950.75 750,-969.75 891,-969.75 891,-950.75 750,-950.75"/>
<text text-anchor="middle" x="820.5" y="-957.75" font-family="Helvetica,sans-Serif" font-size="10.00">SyntaxAnalyzer::syntaxStList</text>
</a>
</g>
</g>
<!-- Node7&#45;&gt;Node9 -->
<g id="edge11" class="edge">
<title>Node7&#45;&gt;Node9</title>
<path fill="none" stroke="midnightblue" d="M645.37,-1064.73C678.48,-1044.86 755.12,-998.88 794.76,-975.09"/>
<polygon fill="midnightblue" stroke="midnightblue" points="796.76,-977.97 803.54,-969.83 793.16,-971.97 796.76,-977.97"/>
</g>
<!-- Node9&#45;&gt;Node2 -->
<g id="edge13" class="edge">
<title>Node9&#45;&gt;Node2</title>
<path fill="none" stroke="midnightblue" d="M822.74,-950.45C835.79,-849.4 951.65,-1.25 1164.5,-1.25 1164.5,-1.25 1164.5,-1.25 2110,-1.25 2209.09,-1.25 2258.15,12.89 2325,-60.25 2406.34,-149.25 2428.97,-551.98 2433.19,-646.4"/>
<polygon fill="midnightblue" stroke="midnightblue" points="2429.71,-646.72 2433.63,-656.56 2436.7,-646.42 2429.71,-646.72"/>
</g>
<!-- Node9&#45;&gt;Node4 -->
<g id="edge12" class="edge">
<title>Node9&#45;&gt;Node4</title>
<path fill="none" stroke="midnightblue" d="M837.1,-969.93C898.92,-1007.32 1133.56,-1140.25 1345,-1140.25 1345,-1140.25 1345,-1140.25 1920.5,-1140.25 2041.61,-1140.25 2092.71,-1163 2188,-1088.25 2218.04,-1064.68 2200.72,-1040.51 2224,-1010.25 2231.32,-1000.73 2241.23,-991.97 2250.27,-985.01"/>
<polygon fill="midnightblue" stroke="midnightblue" points="2252.56,-987.67 2258.54,-978.93 2248.41,-982.03 2252.56,-987.67"/>
</g>
<!-- Node10 -->
<g id="node10" class="node">
<title>Node10</title>
<g id="a_node10"><a xlink:href="../../d0/dfe/class_syntax_analyzer.html#affae37bc1fa3a4016dcffad4affbfcbd" target="_top" xlink:title=" ">
<polygon fill="none" stroke="black" points="927,-945.75 927,-964.75 1052,-964.75 1052,-945.75 927,-945.75"/>
<text text-anchor="middle" x="989.5" y="-952.75" font-family="Helvetica,sans-Serif" font-size="10.00">SyntaxAnalyzer::syntaxSt</text>
</a>
</g>
</g>
<!-- Node9&#45;&gt;Node10 -->
<g id="edge14" class="edge">
<title>Node9&#45;&gt;Node10</title>
<path fill="none" stroke="midnightblue" d="M891.36,-958.16C899.74,-957.91 908.32,-957.65 916.73,-957.4"/>
<polygon fill="midnightblue" stroke="midnightblue" points="917,-960.89 926.89,-957.09 916.79,-953.9 917,-960.89"/>
</g>
<!-- Node10&#45;&gt;Node2 -->
<g id="edge16" class="edge">
<title>Node10&#45;&gt;Node2</title>
<path fill="none" stroke="midnightblue" d="M1033.65,-945.7C1050.57,-942.02 1070.18,-937.84 1088,-934.25 1636.35,-823.8 1783.33,-841.83 2325,-702.25 2349.99,-695.81 2377.59,-686.67 2398.76,-679.22"/>
<polygon fill="midnightblue" stroke="midnightblue" points="2400.06,-682.47 2408.3,-675.82 2397.71,-675.88 2400.06,-682.47"/>
</g>
<!-- Node10&#45;&gt;Node4 -->
<g id="edge15" class="edge">
<title>Node10&#45;&gt;Node4</title>
<path fill="none" stroke="midnightblue" d="M997.92,-964.89C1012.83,-983.53 1048.4,-1024.54 1088,-1045.25 1191.68,-1099.47 1228,-1102.25 1345,-1102.25 1345,-1102.25 1345,-1102.25 1920.5,-1102.25 2041.79,-1102.25 2081.9,-1107.01 2188,-1048.25 2208.35,-1036.98 2207.01,-1026.14 2224,-1010.25 2233.23,-1001.61 2243.99,-992.59 2253.11,-985.21"/>
<polygon fill="midnightblue" stroke="midnightblue" points="2255.31,-987.94 2260.94,-978.96 2250.94,-982.47 2255.31,-987.94"/>
</g>
<!-- Node10&#45;&gt;Node7 -->
<g id="edge57" class="edge">
<title>Node10&#45;&gt;Node7</title>
<path fill="none" stroke="midnightblue" d="M982.66,-964.89C969.4,-985.76 934.75,-1034.9 891,-1055.25 839.44,-1079.23 775.93,-1084.33 724.41,-1083.27"/>
<polygon fill="midnightblue" stroke="midnightblue" points="724.37,-1079.76 714.28,-1082.98 724.17,-1086.76 724.37,-1079.76"/>
</g>
<!-- Node11 -->
<g id="node11" class="node">
<title>Node11</title>
<g id="a_node11"><a xlink:href="../../d0/dfe/class_syntax_analyzer.html#af0905389742c4f842207bb2c073afbfa" target="_top" xlink:title=" ">
<polygon fill="none" stroke="black" points="2040.5,-219.75 2040.5,-238.75 2177.5,-238.75 2177.5,-219.75 2040.5,-219.75"/>
<text text-anchor="middle" x="2109" y="-226.75" font-family="Helvetica,sans-Serif" font-size="10.00">SyntaxAnalyzer::lookFoward</text>
</a>
</g>
</g>
<!-- Node10&#45;&gt;Node11 -->
<g id="edge17" class="edge">
<title>Node10&#45;&gt;Node11</title>
<path fill="none" stroke="midnightblue" d="M992.99,-945.52C1003.58,-904.39 1046.22,-740.74 1088,-608.25 1171.46,-343.61 1067.51,-39.25 1345,-39.25 1345,-39.25 1345,-39.25 1730,-39.25 1883.76,-39.25 2038.82,-166.31 2090.23,-212.62"/>
<polygon fill="midnightblue" stroke="midnightblue" points="2088.09,-215.41 2097.84,-219.57 2092.82,-210.24 2088.09,-215.41"/>
</g>
<!-- Node13 -->
<g id="node13" class="node">
<title>Node13</title>
<g id="a_node13"><a xlink:href="../../d0/dfe/class_syntax_analyzer.html#ae57b60364b17a4772143fe9a6c3bc2c7" target="_top" xlink:title=" ">
<polygon fill="none" stroke="black" points="1088,-617.75 1088,-636.75 1243,-636.75 1243,-617.75 1088,-617.75"/>
<text text-anchor="middle" x="1165.5" y="-624.75" font-family="Helvetica,sans-Serif" font-size="10.00">SyntaxAnalyzer::syntaxAssignSt</text>
</a>
</g>
</g>
<!-- Node10&#45;&gt;Node13 -->
<g id="edge19" class="edge">
<title>Node10&#45;&gt;Node13</title>
<path fill="none" stroke="midnightblue" d="M995.71,-945.43C1019.97,-899.69 1122.13,-707.12 1154.57,-645.97"/>
<polygon fill="midnightblue" stroke="midnightblue" points="1157.72,-647.5 1159.31,-637.03 1151.53,-644.22 1157.72,-647.5"/>
</g>
<!-- Node23 -->
<g id="node23" class="node">
<title>Node23</title>
<g id="a_node23"><a xlink:href="../../d0/dfe/class_syntax_analyzer.html#a9321de68e44f3918a71256a3c1cd481b" target="_top" xlink:title=" ">
<polygon fill="none" stroke="black" points="2038.5,-865.75 2038.5,-884.75 2179.5,-884.75 2179.5,-865.75 2038.5,-865.75"/>
<text text-anchor="middle" x="2109" y="-872.75" font-family="Helvetica,sans-Serif" font-size="10.00">SyntaxAnalyzer::syntaxCallSt</text>
</a>
</g>
</g>
<!-- Node10&#45;&gt;Node23 -->
<g id="edge56" class="edge">
<title>Node10&#45;&gt;Node23</title>
<path fill="none" stroke="midnightblue" d="M1052.08,-951.11C1134.35,-945.57 1284.66,-935.36 1413,-926.25 1635.95,-910.42 1899.07,-890.88 2028.26,-881.22"/>
<polygon fill="midnightblue" stroke="midnightblue" points="2028.75,-884.7 2038.46,-880.46 2028.23,-877.72 2028.75,-884.7"/>
</g>
<!-- Node25 -->
<g id="node25" class="node">
<title>Node25</title>
<g id="a_node25"><a xlink:href="../../d0/dfe/class_syntax_analyzer.html#a22a01f23b6ce49e9cdded69dd21f3935" target="_top" xlink:title=" ">
<polygon fill="none" stroke="black" points="1089.5,-978.75 1089.5,-997.75 1241.5,-997.75 1241.5,-978.75 1089.5,-978.75"/>
<text text-anchor="middle" x="1165.5" y="-985.75" font-family="Helvetica,sans-Serif" font-size="10.00">SyntaxAnalyzer::syntaxEmptySt</text>
</a>
</g>
</g>
<!-- Node10&#45;&gt;Node25 -->
<g id="edge58" class="edge">
<title>Node10&#45;&gt;Node25</title>
<path fill="none" stroke="midnightblue" d="M1040.83,-964.79C1060.67,-968.56 1083.62,-972.91 1104.32,-976.84"/>
<polygon fill="midnightblue" stroke="midnightblue" points="1103.81,-980.3 1114.29,-978.73 1105.11,-973.42 1103.81,-980.3"/>
</g>
<!-- Node26 -->
<g id="node26" class="node">
<title>Node26</title>
<g id="a_node26"><a xlink:href="../../d0/dfe/class_syntax_analyzer.html#addd3ca96f66a5261f904e2e0c78a898a" target="_top" xlink:title=" ">
<polygon fill="none" stroke="black" points="1100,-826.75 1100,-845.75 1231,-845.75 1231,-826.75 1100,-826.75"/>
<text text-anchor="middle" x="1165.5" y="-833.75" font-family="Helvetica,sans-Serif" font-size="10.00">SyntaxAnalyzer::syntaxIfSt</text>
</a>
</g>
</g>
<!-- Node10&#45;&gt;Node26 -->
<g id="edge59" class="edge">
<title>Node10&#45;&gt;Node26</title>
<path fill="none" stroke="midnightblue" d="M994.69,-945.58C1007.08,-924.32 1045.39,-876.69 1088,-851.25 1088.81,-850.77 1089.63,-850.29 1090.46,-849.82"/>
<polygon fill="midnightblue" stroke="midnightblue" points="1092.33,-852.8 1099.68,-845.17 1089.18,-846.55 1092.33,-852.8"/>
</g>
<!-- Node27 -->
<g id="node27" class="node">
<title>Node27</title>
<g id="a_node27"><a xlink:href="../../d0/dfe/class_syntax_analyzer.html#a35bb1125afde4b827a0dd8f3bce8dc58" target="_top" xlink:title=" ">
<polygon fill="none" stroke="black" points="1091,-1016.75 1091,-1035.75 1240,-1035.75 1240,-1016.75 1091,-1016.75"/>
<text text-anchor="middle" x="1165.5" y="-1023.75" font-family="Helvetica,sans-Serif" font-size="10.00">SyntaxAnalyzer::syntaxWhileSt</text>
</a>
</g>
</g>
<!-- Node10&#45;&gt;Node27 -->
<g id="edge64" class="edge">
<title>Node10&#45;&gt;Node27</title>
<path fill="none" stroke="midnightblue" d="M1018.21,-964.78C1037.27,-974.6 1063.47,-988.83 1088,-998.25 1104.61,-1004.63 1124.08,-1009.43 1139.22,-1013.79"/>
<polygon fill="midnightblue" stroke="midnightblue" points="1138.33,-1017.18 1148.92,-1016.75 1140.38,-1010.48 1138.33,-1017.18"/>
</g>
<!-- Node12 -->
<g id="node12" class="node">
<title>Node12</title>
<g id="a_node12"><a xlink:href="../../d1/d34/class_list.html#a49c179636e084dfbf7a52acd46acaf01" target="_top" xlink:title=" ">
<polygon fill="none" stroke="black" points="2247,-219.75 2247,-238.75 2302,-238.75 2302,-219.75 2247,-219.75"/>
<text text-anchor="middle" x="2274.5" y="-226.75" font-family="Helvetica,sans-Serif" font-size="10.00">List::size</text>
</a>
</g>
</g>
<!-- Node11&#45;&gt;Node12 -->
<g id="edge18" class="edge">
<title>Node11&#45;&gt;Node12</title>
<path fill="none" stroke="midnightblue" d="M2177.92,-229.25C2197.97,-229.25 2219.17,-229.25 2236.49,-229.25"/>
<polygon fill="midnightblue" stroke="midnightblue" points="2236.73,-232.75 2246.73,-229.25 2236.73,-225.75 2236.73,-232.75"/>
</g>
<!-- Node13&#45;&gt;Node2 -->
<g id="edge21" class="edge">
<title>Node13&#45;&gt;Node2</title>
<path fill="none" stroke="midnightblue" d="M1170.34,-617.7C1199.98,-544.67 1394.94,-77.25 1530,-77.25 1530,-77.25 1530,-77.25 2110,-77.25 2206.05,-77.25 2254.16,-34.38 2325,-99.25 2408.13,-175.37 2429.32,-555.29 2433.24,-646.53"/>
<polygon fill="midnightblue" stroke="midnightblue" points="2429.75,-646.75 2433.66,-656.6 2436.75,-646.47 2429.75,-646.75"/>
</g>
<!-- Node13&#45;&gt;Node4 -->
<g id="edge20" class="edge">
<title>Node13&#45;&gt;Node4</title>
<path fill="none" stroke="midnightblue" d="M1178.39,-636.92C1215.88,-666.94 1335.81,-759.69 1449,-811.25 1716.2,-932.98 2073.46,-960.97 2213.56,-967.37"/>
<polygon fill="midnightblue" stroke="midnightblue" points="2213.52,-970.87 2223.66,-967.81 2213.82,-963.87 2213.52,-970.87"/>
</g>
<!-- Node14 -->
<g id="node14" class="node">
<title>Node14</title>
<g id="a_node14"><a xlink:href="../../d0/dfe/class_syntax_analyzer.html#a53b0048490647d82a92a77ed1ffb013d" target="_top" xlink:title=" ">
<polygon fill="none" stroke="black" points="1279,-617.75 1279,-636.75 1413,-636.75 1413,-617.75 1279,-617.75"/>
<text text-anchor="middle" x="1346" y="-624.75" font-family="Helvetica,sans-Serif" font-size="10.00">SyntaxAnalyzer::syntaxExpr</text>
</a>
</g>
</g>
<!-- Node13&#45;&gt;Node14 -->
<g id="edge22" class="edge">
<title>Node13&#45;&gt;Node14</title>
<path fill="none" stroke="midnightblue" d="M1243.24,-627.25C1251.7,-627.25 1260.32,-627.25 1268.78,-627.25"/>
<polygon fill="midnightblue" stroke="midnightblue" points="1268.99,-630.75 1278.99,-627.25 1268.99,-623.75 1268.99,-630.75"/>
</g>
<!-- Node24 -->
<g id="node24" class="node">
<title>Node24</title>
<g id="a_node24"><a xlink:href="../../d0/dfe/class_syntax_analyzer.html#a8d3dc6feefe1957f1c81cbc7b8318559" target="_top" xlink:title=" ">
<polygon fill="none" stroke="black" points="2034,-599.75 2034,-618.75 2184,-618.75 2184,-599.75 2034,-599.75"/>
<text text-anchor="middle" x="2109" y="-606.75" font-family="Helvetica,sans-Serif" font-size="10.00">SyntaxAnalyzer::syntaxVariable</text>
</a>
</g>
</g>
<!-- Node13&#45;&gt;Node24 -->
<g id="edge55" class="edge">
<title>Node13&#45;&gt;Node24</title>
<path fill="none" stroke="midnightblue" d="M1181.64,-617.71C1254.25,-573.26 1573.04,-392.75 1809,-494.25 1830.37,-503.44 1824.76,-520.79 1845,-532.25 1904.02,-565.67 1930.58,-541.2 1994,-565.25 2011.11,-571.74 2013.16,-578.08 2030,-585.25 2039.98,-589.5 2050.96,-593.36 2061.46,-596.67"/>
<polygon fill="midnightblue" stroke="midnightblue" points="2060.74,-600.11 2071.32,-599.68 2062.78,-593.41 2060.74,-600.11"/>
</g>
<!-- Node14&#45;&gt;Node2 -->
<g id="edge24" class="edge">
<title>Node14&#45;&gt;Node2</title>
<path fill="none" stroke="midnightblue" d="M1349.01,-617.48C1364.23,-546.7 1467.62,-115.25 1728,-115.25 1728,-115.25 1728,-115.25 2110,-115.25 2206.15,-115.25 2253.93,-74.49 2325,-139.25 2402.16,-209.56 2427.67,-558.69 2432.9,-646.29"/>
<polygon fill="midnightblue" stroke="midnightblue" points="2429.42,-646.67 2433.49,-656.46 2436.41,-646.27 2429.42,-646.67"/>
</g>
<!-- Node14&#45;&gt;Node4 -->
<g id="edge23" class="edge">
<title>Node14&#45;&gt;Node4</title>
<path fill="none" stroke="midnightblue" d="M1351.18,-636.87C1362.79,-662.51 1398.01,-733.04 1449,-770.25 1512.08,-816.29 2036.76,-922.67 2214.72,-957.78"/>
<polygon fill="midnightblue" stroke="midnightblue" points="2214.2,-961.24 2224.69,-959.74 2215.55,-954.37 2214.2,-961.24"/>
</g>
<!-- Node15 -->
<g id="node15" class="node">
<title>Node15</title>
<g id="a_node15"><a xlink:href="../../d0/d11/class_i_token.html#a568cb9d98839eff3fd758f419a76b092" target="_top" xlink:title="Получение типа токена">
<polygon fill="none" stroke="black" points="2231.5,-409.75 2231.5,-428.75 2317.5,-428.75 2317.5,-409.75 2231.5,-409.75"/>
<text text-anchor="middle" x="2274.5" y="-416.75" font-family="Helvetica,sans-Serif" font-size="10.00">IToken::getType</text>
</a>
</g>
</g>
<!-- Node14&#45;&gt;Node15 -->
<g id="edge25" class="edge">
<title>Node14&#45;&gt;Node15</title>
<path fill="none" stroke="midnightblue" d="M1352.01,-617.61C1380.65,-564.04 1529.24,-305.25 1728,-305.25 1728,-305.25 1728,-305.25 1920.5,-305.25 2048.65,-305.25 2190.86,-374.13 2247.84,-404.81"/>
<polygon fill="midnightblue" stroke="midnightblue" points="2246.4,-408.01 2256.86,-409.73 2249.76,-401.86 2246.4,-408.01"/>
</g>
<!-- Node16 -->
<g id="node16" class="node">
<title>Node16</title>
<g id="a_node16"><a xlink:href="../../df/d3f/_syntax_8hpp.html#ae7d62ca130413d4c96863327c1af81a4" target="_top" xlink:title="Возвращает истину, если value находится среди значений cont.">
<polygon fill="none" stroke="black" points="1903.5,-617.75 1903.5,-636.75 1935.5,-636.75 1935.5,-617.75 1903.5,-617.75"/>
<text text-anchor="middle" x="1919.5" y="-624.75" font-family="Helvetica,sans-Serif" font-size="10.00">isIn</text>
</a>
</g>
</g>
<!-- Node14&#45;&gt;Node16 -->
<g id="edge26" class="edge">
<title>Node14&#45;&gt;Node16</title>
<path fill="none" stroke="midnightblue" d="M1413.12,-627.25C1539.37,-627.25 1809.68,-627.25 1893.31,-627.25"/>
<polygon fill="midnightblue" stroke="midnightblue" points="1893.42,-630.75 1903.42,-627.25 1893.42,-623.75 1893.42,-630.75"/>
</g>
<!-- Node17 -->
<g id="node17" class="node">
<title>Node17</title>
<g id="a_node17"><a xlink:href="../../d0/dfe/class_syntax_analyzer.html#a920d9565d4aa2e3815ff9e7146f45a0b" target="_top" xlink:title=" ">
<polygon fill="none" stroke="black" points="1449,-522.75 1449,-541.75 1613,-541.75 1613,-522.75 1449,-522.75"/>
<text text-anchor="middle" x="1531" y="-529.75" font-family="Helvetica,sans-Serif" font-size="10.00">SyntaxAnalyzer::syntaxSimpleExpr</text>
</a>
</g>
</g>
<!-- Node14&#45;&gt;Node17 -->
<g id="edge27" class="edge">
<title>Node14&#45;&gt;Node17</title>
<path fill="none" stroke="midnightblue" d="M1365.55,-617.62C1397.97,-600.79 1465.06,-565.96 1502.76,-546.39"/>
<polygon fill="midnightblue" stroke="midnightblue" points="1504.41,-549.48 1511.67,-541.77 1501.18,-543.27 1504.41,-549.48"/>
</g>
<!-- Node17&#45;&gt;Node2 -->
<g id="edge29" class="edge">
<title>Node17&#45;&gt;Node2</title>
<path fill="none" stroke="midnightblue" d="M1538.87,-522.5C1573.47,-474.69 1734.22,-267.25 1918.5,-267.25 1918.5,-267.25 1918.5,-267.25 2110,-267.25 2156.34,-267.25 2321.7,-344.73 2325,-348.25 2408.12,-436.87 2428.14,-591.67 2432.71,-646.39"/>
<polygon fill="midnightblue" stroke="midnightblue" points="2429.23,-646.78 2433.47,-656.49 2436.21,-646.26 2429.23,-646.78"/>
</g>
<!-- Node17&#45;&gt;Node4 -->
<g id="edge28" class="edge">
<title>Node17&#45;&gt;Node4</title>
<path fill="none" stroke="midnightblue" d="M1536.41,-542.01C1549.34,-569.41 1589.96,-647.39 1649,-684.25 1700.85,-716.62 2139.67,-756.83 2188,-794.25 2239.37,-834.02 2261.79,-912.66 2269.78,-949.43"/>
<polygon fill="midnightblue" stroke="midnightblue" points="2266.39,-950.31 2271.81,-959.41 2273.25,-948.91 2266.39,-950.31"/>
</g>
<!-- Node17&#45;&gt;Node15 -->
<g id="edge30" class="edge">
<title>Node17&#45;&gt;Node15</title>
<path fill="none" stroke="midnightblue" d="M1560.76,-522.59C1584.39,-514.73 1618.77,-503.48 1649,-494.25 1735.65,-467.81 1756.09,-455.63 1845,-438.25 1926.17,-422.39 1947.42,-422.7 2030,-418.25 2095.81,-414.7 2171.78,-415.85 2221.12,-417.28"/>
<polygon fill="midnightblue" stroke="midnightblue" points="2221.13,-420.79 2231.23,-417.59 2221.35,-413.79 2221.13,-420.79"/>
</g>
<!-- Node17&#45;&gt;Node16 -->
<g id="edge31" class="edge">
<title>Node17&#45;&gt;Node16</title>
<path fill="none" stroke="midnightblue" d="M1570.83,-541.79C1649.89,-561.23 1827.63,-604.91 1893.4,-621.08"/>
<polygon fill="midnightblue" stroke="midnightblue" points="1892.76,-624.53 1903.31,-623.52 1894.43,-617.73 1892.76,-624.53"/>
</g>
<!-- Node18 -->
<g id="node18" class="node">
<title>Node18</title>
<g id="a_node18"><a xlink:href="../../d0/dfe/class_syntax_analyzer.html#a7721cf7d36d549f81fd05c40dba02f67" target="_top" xlink:title=" ">
<polygon fill="none" stroke="black" points="1660.5,-503.75 1660.5,-522.75 1797.5,-522.75 1797.5,-503.75 1660.5,-503.75"/>
<text text-anchor="middle" x="1729" y="-510.75" font-family="Helvetica,sans-Serif" font-size="10.00">SyntaxAnalyzer::syntaxTerm</text>
</a>
</g>
</g>
<!-- Node17&#45;&gt;Node18 -->
<g id="edge32" class="edge">
<title>Node17&#45;&gt;Node18</title>
<path fill="none" stroke="midnightblue" d="M1613.14,-524.38C1625.39,-523.2 1638.02,-521.97 1650.2,-520.79"/>
<polygon fill="midnightblue" stroke="midnightblue" points="1650.7,-524.26 1660.32,-519.81 1650.03,-517.29 1650.7,-524.26"/>
</g>
<!-- Node18&#45;&gt;Node2 -->
<g id="edge34" class="edge">
<title>Node18&#45;&gt;Node2</title>
<path fill="none" stroke="midnightblue" d="M1740.79,-503.64C1760.11,-487.06 1802.57,-453.39 1845,-438.25 2046.55,-366.32 2147.29,-281.02 2325,-400.25 2410.54,-457.64 2429,-595.39 2432.94,-646.62"/>
<polygon fill="midnightblue" stroke="midnightblue" points="2429.46,-646.94 2433.61,-656.69 2436.44,-646.48 2429.46,-646.94"/>
</g>
<!-- Node18&#45;&gt;Node4 -->
<g id="edge33" class="edge">
<title>Node18&#45;&gt;Node4</title>
<path fill="none" stroke="midnightblue" d="M1748.78,-522.75C1771.26,-533.89 1810.25,-552.45 1845,-565.25 1909.68,-589.07 1930.36,-581.79 1994,-608.25 2010.9,-615.28 2013.07,-621.3 2030,-628.25 2097.44,-655.92 2136.23,-620.93 2188,-672.25 2266.99,-750.55 2274.12,-896.78 2273.97,-949.59"/>
<polygon fill="midnightblue" stroke="midnightblue" points="2270.47,-949.6 2273.85,-959.64 2277.47,-949.69 2270.47,-949.6"/>
</g>
<!-- Node18&#45;&gt;Node15 -->
<g id="edge35" class="edge">
<title>Node18&#45;&gt;Node15</title>
<path fill="none" stroke="midnightblue" d="M1757.19,-503.67C1780.36,-495.7 1814.61,-484.4 1845,-476.25 1926.25,-454.45 1946.72,-448.1 2030,-436.25 2095.41,-426.94 2171.47,-422.67 2220.94,-420.75"/>
<polygon fill="midnightblue" stroke="midnightblue" points="2221.21,-424.24 2231.08,-420.37 2220.95,-417.24 2221.21,-424.24"/>
</g>
<!-- Node18&#45;&gt;Node16 -->
<g id="edge36" class="edge">
<title>Node18&#45;&gt;Node16</title>
<path fill="none" stroke="midnightblue" d="M1782.19,-522.82C1791.79,-526.25 1801.22,-530.92 1809,-537.25 1834.91,-558.34 1819.31,-581.89 1845,-603.25 1858.75,-614.68 1878.1,-620.72 1893.5,-623.87"/>
<polygon fill="midnightblue" stroke="midnightblue" points="1892.95,-627.33 1903.4,-625.63 1894.17,-620.44 1892.95,-627.33"/>
</g>
<!-- Node19 -->
<g id="node19" class="node">
<title>Node19</title>
<g id="a_node19"><a xlink:href="../../d0/dfe/class_syntax_analyzer.html#ab9b415ddd671b4884ab31cdf194f6c64" target="_top" xlink:title=" ">
<polygon fill="none" stroke="black" points="1848,-485.75 1848,-504.75 1991,-504.75 1991,-485.75 1848,-485.75"/>
<text text-anchor="middle" x="1919.5" y="-492.75" font-family="Helvetica,sans-Serif" font-size="10.00">SyntaxAnalyzer::syntaxFactor</text>
</a>
</g>
</g>
<!-- Node18&#45;&gt;Node19 -->
<g id="edge37" class="edge">
<title>Node18&#45;&gt;Node19</title>
<path fill="none" stroke="midnightblue" d="M1797.52,-506.8C1810.57,-505.56 1824.36,-504.24 1837.78,-502.96"/>
<polygon fill="midnightblue" stroke="midnightblue" points="1838.33,-506.42 1847.95,-501.99 1837.67,-499.45 1838.33,-506.42"/>
</g>
<!-- Node19&#45;&gt;Node2 -->
<g id="edge39" class="edge">
<title>Node19&#45;&gt;Node2</title>
<path fill="none" stroke="midnightblue" d="M1963.59,-485.73C2041.23,-470.95 2207.48,-450.38 2325,-514.25 2379.06,-543.63 2412.81,-612.8 2426.7,-646.75"/>
<polygon fill="midnightblue" stroke="midnightblue" points="2423.59,-648.42 2430.51,-656.44 2430.11,-645.86 2423.59,-648.42"/>
</g>
<!-- Node19&#45;&gt;Node4 -->
<g id="edge38" class="edge">
<title>Node19&#45;&gt;Node4</title>
<path fill="none" stroke="midnightblue" d="M1935.9,-504.81C1956.6,-517.3 1994.87,-539.11 2030,-552.25 2097.65,-577.56 2137.29,-538.82 2188,-590.25 2239.48,-642.46 2265.18,-879.31 2271.77,-949.56"/>
<polygon fill="midnightblue" stroke="midnightblue" points="2268.29,-950.04 2272.69,-959.68 2275.27,-949.4 2268.29,-950.04"/>
</g>
<!-- Node19&#45;&gt;Node11 -->
<g id="edge45" class="edge">
<title>Node19&#45;&gt;Node11</title>
<path fill="none" stroke="midnightblue" d="M1927.7,-485.67C1940.98,-467.95 1970.16,-428.8 1994,-395.25 2031.81,-342.05 2075.1,-278.16 2095.77,-247.47"/>
<polygon fill="midnightblue" stroke="midnightblue" points="2098.75,-249.31 2101.43,-239.05 2092.94,-245.4 2098.75,-249.31"/>
</g>
<!-- Node19&#45;&gt;Node14 -->
<g id="edge50" class="edge">
<title>Node19&#45;&gt;Node14</title>
<path fill="none" stroke="midnightblue" d="M1893.11,-504.82C1871.09,-512.88 1838.25,-524.33 1809,-532.25 1670.53,-569.73 1505.23,-600.4 1414.66,-616.03"/>
<polygon fill="midnightblue" stroke="midnightblue" points="1414.06,-612.58 1404.79,-617.72 1415.24,-619.48 1414.06,-612.58"/>
</g>
<!-- Node19&#45;&gt;Node15 -->
<g id="edge44" class="edge">
<title>Node19&#45;&gt;Node15</title>
<path fill="none" stroke="midnightblue" d="M1964.85,-485.7C2030.15,-471.64 2151.93,-445.42 2221.4,-430.47"/>
<polygon fill="midnightblue" stroke="midnightblue" points="2222.22,-433.87 2231.26,-428.34 2220.74,-427.03 2222.22,-433.87"/>
</g>
<!-- Node19&#45;&gt;Node19 -->
<g id="edge51" class="edge">
<title>Node19&#45;&gt;Node19</title>
<path fill="none" stroke="midnightblue" d="M1890.52,-505.01C1876.43,-513.82 1886.09,-523.25 1919.5,-523.25 1942.47,-523.25 1954.22,-518.79 1954.73,-513.14"/>
<polygon fill="midnightblue" stroke="midnightblue" points="1957.35,-510.8 1948.48,-505.01 1951.8,-515.07 1957.35,-510.8"/>
</g>
<!-- Node20 -->
<g id="node20" class="node">
<title>Node20</title>
<g id="a_node20"><a xlink:href="../../db/dc1/class_token.html#a014ced0a9ea72ae21fad0d4f116d0a73" target="_top" xlink:title=" ">
<polygon fill="none" stroke="black" points="2070,-523.75 2070,-542.75 2148,-542.75 2148,-523.75 2070,-523.75"/>
<text text-anchor="middle" x="2109" y="-530.75" font-family="Helvetica,sans-Serif" font-size="10.00">Token::getInfo</text>
</a>
</g>
</g>
<!-- Node19&#45;&gt;Node20 -->
<g id="edge40" class="edge">
<title>Node19&#45;&gt;Node20</title>
<path fill="none" stroke="midnightblue" d="M1967.81,-504.84C1995.93,-510.54 2031.5,-517.75 2059.78,-523.48"/>
<polygon fill="midnightblue" stroke="midnightblue" points="2059.34,-526.96 2069.84,-525.52 2060.73,-520.1 2059.34,-526.96"/>
</g>
<!-- Node19&#45;&gt;Node23 -->
<g id="edge46" class="edge">
<title>Node19&#45;&gt;Node23</title>
<path fill="none" stroke="midnightblue" d="M1927.58,-504.87C1941.44,-523.95 1972.63,-568.19 1994,-608.25 2041.56,-697.4 2084.54,-810.66 2100.95,-855.6"/>
<polygon fill="midnightblue" stroke="midnightblue" points="2097.76,-857.06 2104.45,-865.27 2104.34,-854.67 2097.76,-857.06"/>
</g>
<!-- Node19&#45;&gt;Node24 -->
<g id="edge52" class="edge">
<title>Node19&#45;&gt;Node24</title>
<path fill="none" stroke="midnightblue" d="M1942.27,-504.76C1957.75,-512.19 1978.46,-523.54 1994,-537.25 2013.99,-554.9 2008.19,-569.91 2030,-585.25 2036.14,-589.56 2043.07,-593.12 2050.21,-596.05"/>
<polygon fill="midnightblue" stroke="midnightblue" points="2049.42,-599.49 2060.01,-599.66 2051.84,-592.92 2049.42,-599.49"/>
</g>
<!-- Node20&#45;&gt;Node15 -->
<g id="edge42" class="edge">
<title>Node20&#45;&gt;Node15</title>
<path fill="none" stroke="midnightblue" d="M2123.66,-523.73C2151.84,-504.08 2216.67,-458.88 2251.08,-434.88"/>
<polygon fill="midnightblue" stroke="midnightblue" points="2253.33,-437.58 2259.53,-428.99 2249.33,-431.84 2253.33,-437.58"/>
</g>
<!-- Node21 -->
<g id="node21" class="node">
<title>Node21</title>
<g id="a_node21"><a xlink:href="../../db/dc1/class_token.html#a942fcc40ffdf54c98b7b641c792a26bc" target="_top" xlink:title="Возвращает константную ссылку на строковое представление токена">
<polygon fill="none" stroke="black" points="2237.5,-561.75 2237.5,-580.75 2311.5,-580.75 2311.5,-561.75 2237.5,-561.75"/>
<text text-anchor="middle" x="2274.5" y="-568.75" font-family="Helvetica,sans-Serif" font-size="10.00">Token::getStr</text>
</a>
</g>
</g>
<!-- Node20&#45;&gt;Node21 -->
<g id="edge41" class="edge">
<title>Node20&#45;&gt;Node21</title>
<path fill="none" stroke="midnightblue" d="M2148.33,-542.16C2171.98,-547.65 2202.44,-554.74 2227.4,-560.54"/>
<polygon fill="midnightblue" stroke="midnightblue" points="2226.84,-564 2237.37,-562.85 2228.42,-557.18 2226.84,-564"/>
</g>
<!-- Node22 -->
<g id="node22" class="node">
<title>Node22</title>
<g id="a_node22"><a xlink:href="../../db/dc1/class_token.html#af3b5fdf2261d637af820d4adb62e6109" target="_top" xlink:title=" ">
<polygon fill="none" stroke="black" points="2243,-523.75 2243,-542.75 2306,-542.75 2306,-523.75 2243,-523.75"/>
<text text-anchor="middle" x="2274.5" y="-530.75" font-family="Helvetica,sans-Serif" font-size="10.00">Token::line</text>
</a>
</g>
</g>
<!-- Node20&#45;&gt;Node22 -->
<g id="edge43" class="edge">
<title>Node20&#45;&gt;Node22</title>
<path fill="none" stroke="midnightblue" d="M2148.33,-533.25C2173.64,-533.25 2206.75,-533.25 2232.57,-533.25"/>
<polygon fill="midnightblue" stroke="midnightblue" points="2232.78,-536.75 2242.78,-533.25 2232.78,-529.75 2232.78,-536.75"/>
</g>
<!-- Node23&#45;&gt;Node2 -->
<g id="edge48" class="edge">
<title>Node23&#45;&gt;Node2</title>
<path fill="none" stroke="midnightblue" d="M2179.67,-882.69C2224.56,-884.02 2282.29,-878.92 2325,-851.25 2386.07,-811.69 2417.38,-724.91 2428.81,-685.91"/>
<polygon fill="midnightblue" stroke="midnightblue" points="2432.24,-686.63 2431.57,-676.05 2425.5,-684.74 2432.24,-686.63"/>
</g>
<!-- Node23&#45;&gt;Node4 -->
<g id="edge47" class="edge">
<title>Node23&#45;&gt;Node4</title>
<path fill="none" stroke="midnightblue" d="M2151.68,-884.83C2163.79,-888.47 2176.76,-893.22 2188,-899.25 2214.73,-913.59 2241.06,-936.92 2257.29,-952.66"/>
<polygon fill="midnightblue" stroke="midnightblue" points="2254.83,-955.16 2264.4,-959.71 2259.76,-950.19 2254.83,-955.16"/>
</g>
<!-- Node23&#45;&gt;Node14 -->
<g id="edge49" class="edge">
<title>Node23&#45;&gt;Node14</title>
<path fill="none" stroke="midnightblue" d="M2038.46,-870.89C1913.59,-860.58 1646.01,-827.08 1449,-722.25 1412.2,-702.67 1378.74,-666.42 1360.79,-644.81"/>
<polygon fill="midnightblue" stroke="midnightblue" points="1363.3,-642.35 1354.28,-636.79 1357.86,-646.76 1363.3,-642.35"/>
</g>
<!-- Node24&#45;&gt;Node2 -->
<g id="edge54" class="edge">
<title>Node24&#45;&gt;Node2</title>
<path fill="none" stroke="midnightblue" d="M2164.23,-618.79C2220.85,-628.75 2309.62,-644.37 2369.73,-654.94"/>
<polygon fill="midnightblue" stroke="midnightblue" points="2369.41,-658.44 2379.86,-656.73 2370.62,-651.55 2369.41,-658.44"/>
</g>
<!-- Node24&#45;&gt;Node4 -->
<g id="edge53" class="edge">
<title>Node24&#45;&gt;Node4</title>
<path fill="none" stroke="midnightblue" d="M2166.45,-618.91C2174.49,-622.35 2182.04,-626.99 2188,-633.25 2232.53,-680.03 2262.49,-884.52 2271.01,-949.41"/>
<polygon fill="midnightblue" stroke="midnightblue" points="2267.56,-950.06 2272.31,-959.53 2274.51,-949.16 2267.56,-950.06"/>
</g>
<!-- Node26&#45;&gt;Node2 -->
<g id="edge61" class="edge">
<title>Node26&#45;&gt;Node2</title>
<path fill="none" stroke="midnightblue" d="M1231.1,-827.59C1444.99,-798.9 2129.51,-707.09 2358.54,-676.37"/>
<polygon fill="midnightblue" stroke="midnightblue" points="2359.33,-679.8 2368.77,-675 2358.4,-672.86 2359.33,-679.8"/>
</g>
<!-- Node26&#45;&gt;Node4 -->
<g id="edge60" class="edge">
<title>Node26&#45;&gt;Node4</title>
<path fill="none" stroke="midnightblue" d="M1175.33,-846C1193,-864.84 1234.83,-906.17 1279,-926.25 1463.6,-1010.16 1525.22,-1007.25 1728,-1007.25 1728,-1007.25 1728,-1007.25 1920.5,-1007.25 2024.19,-1007.25 2144.04,-990.84 2214.03,-979.59"/>
<polygon fill="midnightblue" stroke="midnightblue" points="2214.68,-983.03 2223.99,-977.97 2213.56,-976.12 2214.68,-983.03"/>
</g>
<!-- Node26&#45;&gt;Node10 -->
<g id="edge63" class="edge">
<title>Node26&#45;&gt;Node10</title>
<path fill="none" stroke="midnightblue" d="M1148.36,-845.83C1132.22,-851.31 1107.12,-857.83 1088,-869.25 1056.61,-887.99 1027.56,-918.77 1009.48,-938.21"/>
<polygon fill="midnightblue" stroke="midnightblue" points="1006.9,-935.83 1002.65,-945.54 1012.03,-940.61 1006.9,-935.83"/>
</g>
<!-- Node26&#45;&gt;Node14 -->
<g id="edge62" class="edge">
<title>Node26&#45;&gt;Node14</title>
<path fill="none" stroke="midnightblue" d="M1174.63,-826.73C1202.45,-794.15 1294.08,-686.87 1330.19,-644.6"/>
<polygon fill="midnightblue" stroke="midnightblue" points="1332.99,-646.71 1336.82,-636.83 1327.66,-642.16 1332.99,-646.71"/>
</g>
<!-- Node27&#45;&gt;Node4 -->
<g id="edge65" class="edge">
<title>Node27&#45;&gt;Node4</title>
<path fill="none" stroke="midnightblue" d="M1240.05,-1030.33C1347.3,-1035.91 1552.92,-1045.25 1728,-1045.25 1728,-1045.25 1728,-1045.25 1920.5,-1045.25 2039.87,-1045.25 2074.62,-1058.57 2188,-1021.25 2212.23,-1013.28 2236.79,-997.35 2253.33,-985.21"/>
<polygon fill="midnightblue" stroke="midnightblue" points="2255.77,-987.75 2261.64,-978.93 2251.55,-982.16 2255.77,-987.75"/>
</g>
<!-- Node27&#45;&gt;Node10 -->
<g id="edge67" class="edge">
<title>Node27&#45;&gt;Node10</title>
<path fill="none" stroke="midnightblue" d="M1090.71,-1017.27C1089.8,-1016.93 1088.89,-1016.59 1088,-1016.25 1057.53,-1004.55 1024.49,-985.43 1005.76,-971.28"/>
<polygon fill="midnightblue" stroke="midnightblue" points="1007.75,-968.39 997.79,-964.79 1003.33,-973.82 1007.75,-968.39"/>
</g>
<!-- Node27&#45;&gt;Node14 -->
<g id="edge66" class="edge">
<title>Node27&#45;&gt;Node14</title>
<path fill="none" stroke="midnightblue" d="M1229.64,-1016.69C1234.54,-1014.18 1239.09,-1011.08 1243,-1007.25 1295.99,-955.24 1332.54,-717.53 1342.36,-647.02"/>
<polygon fill="midnightblue" stroke="midnightblue" points="1345.86,-647.24 1343.75,-636.86 1338.92,-646.29 1345.86,-647.24"/>
</g>
<!-- Node28&#45;&gt;Node2 -->
<g id="edge70" class="edge">
<title>Node28&#45;&gt;Node2</title>
<path fill="none" stroke="midnightblue" d="M1536.94,-693.41C1552.32,-663.03 1601.16,-568.3 1649,-494.25 1753.82,-331.99 1725.33,-153.25 1918.5,-153.25 1918.5,-153.25 1918.5,-153.25 2110,-153.25 2206.36,-153.25 2253.81,-116.3 2325,-181.25 2395.78,-245.83 2425.78,-563.29 2432.49,-646.34"/>
<polygon fill="midnightblue" stroke="midnightblue" points="2429.01,-646.75 2433.29,-656.45 2435.99,-646.21 2429.01,-646.75"/>
</g>
<!-- Node28&#45;&gt;Node4 -->
<g id="edge69" class="edge">
<title>Node28&#45;&gt;Node4</title>
<path fill="none" stroke="midnightblue" d="M1585.67,-712.78C1594.81,-714.52 1604.19,-716.38 1613,-718.25 1741.54,-745.56 2078.03,-784.31 2188,-856.25 2224.53,-880.15 2251.5,-925.21 2264.61,-950.61"/>
<polygon fill="midnightblue" stroke="midnightblue" points="2261.49,-952.2 2269.09,-959.59 2267.76,-949.08 2261.49,-952.2"/>
</g>
<!-- Node29 -->
<g id="node29" class="node">
<title>Node29</title>
<g id="a_node29"><a xlink:href="../../d0/dfe/class_syntax_analyzer.html#a3fd39f49d75b604d41e41f86b22cdca3" target="_top" xlink:title=" ">
<polygon fill="none" stroke="black" points="1649,-655.75 1649,-674.75 1809,-674.75 1809,-655.75 1649,-655.75"/>
<text text-anchor="middle" x="1729" y="-662.75" font-family="Helvetica,sans-Serif" font-size="10.00">SyntaxAnalyzer::syntaxConstDecl</text>
</a>
</g>
</g>
<!-- Node28&#45;&gt;Node29 -->
<g id="edge71" class="edge">
<title>Node28&#45;&gt;Node29</title>
<path fill="none" stroke="midnightblue" d="M1581.21,-693.71C1607.77,-688.56 1640.75,-682.17 1668.72,-676.74"/>
<polygon fill="midnightblue" stroke="midnightblue" points="1669.62,-680.13 1678.77,-674.79 1668.29,-673.26 1669.62,-680.13"/>
</g>
<!-- Node29&#45;&gt;Node2 -->
<g id="edge73" class="edge">
<title>Node29&#45;&gt;Node2</title>
<path fill="none" stroke="midnightblue" d="M1735.54,-655.68C1751.8,-627.72 1800.99,-543.84 1845,-476.25 1923.57,-355.57 1902.37,-276.95 2030,-210.25 2088.1,-179.89 2273.54,-169.64 2325,-210.25 2395.65,-266 2425.57,-565.66 2432.42,-646.27"/>
<polygon fill="midnightblue" stroke="midnightblue" points="2428.95,-646.84 2433.26,-656.52 2435.93,-646.27 2428.95,-646.84"/>
</g>
<!-- Node29&#45;&gt;Node4 -->
<g id="edge72" class="edge">
<title>Node29&#45;&gt;Node4</title>
<path fill="none" stroke="midnightblue" d="M1809.23,-657.46C1908.96,-652.11 2080.24,-658.28 2188,-747.25 2251.58,-799.74 2267.99,-905.36 2272.14,-949.33"/>
<polygon fill="midnightblue" stroke="midnightblue" points="2268.65,-949.66 2272.96,-959.34 2275.63,-949.08 2268.65,-949.66"/>
</g>
<!-- Node29&#45;&gt;Node16 -->
<g id="edge74" class="edge">
<title>Node29&#45;&gt;Node16</title>
<path fill="none" stroke="midnightblue" d="M1777.57,-655.66C1814.48,-648.22 1864.17,-638.2 1893.62,-632.27"/>
<polygon fill="midnightblue" stroke="midnightblue" points="1894.38,-635.68 1903.49,-630.28 1893,-628.82 1894.38,-635.68"/>
</g>
<!-- Node30&#45;&gt;Node2 -->
<g id="edge77" class="edge">
<title>Node30&#45;&gt;Node2</title>
<path fill="none" stroke="midnightblue" d="M1767.94,-1301.81C1852.47,-1320.74 2059,-1353.57 2188,-1260.25 2290.21,-1186.3 2403.72,-779.8 2428.88,-685.7"/>
<polygon fill="midnightblue" stroke="midnightblue" points="2432.27,-686.6 2431.45,-676.03 2425.5,-684.8 2432.27,-686.6"/>
</g>
<!-- Node30&#45;&gt;Node4 -->
<g id="edge76" class="edge">
<title>Node30&#45;&gt;Node4</title>
<path fill="none" stroke="midnightblue" d="M1796.95,-1287.11C1916.84,-1277.33 2158.48,-1254.83 2188,-1230.25 2262.97,-1167.82 2272.72,-1038.47 2273.61,-989.04"/>
<polygon fill="midnightblue" stroke="midnightblue" points="2277.11,-988.8 2273.68,-978.77 2270.11,-988.75 2277.11,-988.8"/>
</g>
<!-- Node31 -->
<g id="node31" class="node">
<title>Node31</title>
<g id="a_node31"><a xlink:href="../../d0/dfe/class_syntax_analyzer.html#a3106ad7f9a5cf50b2c277c28401422ec" target="_top" xlink:title=" ">
<polygon fill="none" stroke="black" points="1845,-1358.75 1845,-1377.75 1994,-1377.75 1994,-1358.75 1845,-1358.75"/>
<text text-anchor="middle" x="1919.5" y="-1365.75" font-family="Helvetica,sans-Serif" font-size="10.00">SyntaxAnalyzer::syntaxVarDecl</text>
</a>
</g>
</g>
<!-- Node30&#45;&gt;Node31 -->
<g id="edge78" class="edge">
<title>Node30&#45;&gt;Node31</title>
<path fill="none" stroke="midnightblue" d="M1749.66,-1301.94C1772.34,-1312.92 1810.89,-1331.01 1845,-1344.25 1855.24,-1348.22 1866.45,-1352.11 1876.95,-1355.56"/>
<polygon fill="midnightblue" stroke="midnightblue" points="1876.17,-1358.98 1886.76,-1358.72 1878.31,-1352.32 1876.17,-1358.98"/>
</g>
<!-- Node31&#45;&gt;Node2 -->
<g id="edge80" class="edge">
<title>Node31&#45;&gt;Node2</title>
<path fill="none" stroke="midnightblue" d="M1970.94,-1377.76C2068.25,-1394.79 2276.6,-1424.45 2325,-1376.25 2358.66,-1342.73 2353.06,-997.08 2361,-950.25 2378.14,-849.17 2413.49,-731.36 2427.79,-685.7"/>
<polygon fill="midnightblue" stroke="midnightblue" points="2431.2,-686.52 2430.88,-675.93 2424.53,-684.41 2431.2,-686.52"/>
</g>
<!-- Node31&#45;&gt;Node4 -->
<g id="edge79" class="edge">
<title>Node31&#45;&gt;Node4</title>
<path fill="none" stroke="midnightblue" d="M1958.04,-1358.7C2023.82,-1341.27 2156,-1302.89 2188,-1268.25 2263.77,-1186.23 2272.92,-1041.58 2273.63,-989.03"/>
<polygon fill="midnightblue" stroke="midnightblue" points="2277.13,-989.03 2273.68,-979.01 2270.14,-989 2277.13,-989.03"/>
</g>
<!-- Node32 -->
<g id="node32" class="node">
<title>Node32</title>
<g id="a_node32"><a xlink:href="../../d0/dfe/class_syntax_analyzer.html#a59b8fda4a98347e67033502aec8d2e4f" target="_top" xlink:title=" ">
<polygon fill="none" stroke="black" points="2030,-1358.75 2030,-1377.75 2188,-1377.75 2188,-1358.75 2030,-1358.75"/>
<text text-anchor="middle" x="2109" y="-1365.75" font-family="Helvetica,sans-Serif" font-size="10.00">SyntaxAnalyzer::syntaxTypeSpec</text>
</a>
</g>
</g>
<!-- Node31&#45;&gt;Node32 -->
<g id="edge81" class="edge">
<title>Node31&#45;&gt;Node32</title>
<path fill="none" stroke="midnightblue" d="M1994.07,-1368.25C2002.47,-1368.25 2011.11,-1368.25 2019.68,-1368.25"/>
<polygon fill="midnightblue" stroke="midnightblue" points="2019.7,-1371.75 2029.7,-1368.25 2019.7,-1364.75 2019.7,-1371.75"/>
</g>
<!-- Node32&#45;&gt;Node2 -->
<g id="edge83" class="edge">
<title>Node32&#45;&gt;Node2</title>
<path fill="none" stroke="midnightblue" d="M2153.97,-1377.81C2202.98,-1385.61 2281.1,-1389.04 2325,-1344.25 2386.54,-1281.46 2346.01,-1036.88 2361,-950.25 2378.48,-849.22 2413.64,-731.39 2427.84,-685.71"/>
<polygon fill="midnightblue" stroke="midnightblue" points="2431.25,-686.53 2430.9,-675.94 2424.57,-684.43 2431.25,-686.53"/>
</g>
<!-- Node32&#45;&gt;Node4 -->
<g id="edge82" class="edge">
<title>Node32&#45;&gt;Node4</title>
<path fill="none" stroke="midnightblue" d="M2128.01,-1358.64C2145.93,-1348.13 2172.88,-1329.64 2188,-1306.25 2256.22,-1200.71 2270.03,-1043.95 2272.81,-989.08"/>
<polygon fill="midnightblue" stroke="midnightblue" points="2276.31,-989.11 2273.25,-978.97 2269.31,-988.81 2276.31,-989.11"/>
</g>
</g>
</svg>
