<?xml version="1.0" encoding="UTF-8" standalone="no"?>
<!DOCTYPE svg PUBLIC "-//W3C//DTD SVG 1.1//EN"
 "http://www.w3.org/Graphics/SVG/1.1/DTD/svg11.dtd">
<!-- Generated by graphviz version 3.0.0 (20220413.0106)
 -->
<!-- Title: SyntaxAnalyzer::parseTokens Pages: 1 -->
<svg width="3259pt" height="2917pt"
 viewBox="0.00 0.00 3259.00 2916.65" xmlns="http://www.w3.org/2000/svg" xmlns:xlink="http://www.w3.org/1999/xlink">
<g id="graph0" class="graph" transform="scale(1 1) rotate(0) translate(4 2912.65)">
<title>SyntaxAnalyzer::parseTokens</title>
<!-- Node1 -->
<g id="node1" class="node">
<title>Node1</title>
<g id="a_node1"><a xlink:title="Синтаксический анализ токенов, переданных анализатору.">
<polygon fill="#bfbfbf" stroke="black" points="0,-2684.09 0,-2703.09 143,-2703.09 143,-2684.09 0,-2684.09"/>
<text text-anchor="middle" x="71.5" y="-2691.09" font-family="Helvetica,sans-Serif" font-size="10.00">SyntaxAnalyzer::parseTokens</text>
</a>
</g>
</g>
<!-- Node2 -->
<g id="node2" class="node">
<title>Node2</title>
<g id="a_node2"><a xlink:href="../../d0/dfe/class_syntax_analyzer.html#a3ae6c7319e61cd669c417f189b098374" target="_top" xlink:title=" ">
<polygon fill="none" stroke="black" points="3111,-1440.09 3111,-1459.09 3243,-1459.09 3243,-1440.09 3111,-1440.09"/>
<text text-anchor="middle" x="3177" y="-1447.09" font-family="Helvetica,sans-Serif" font-size="10.00">SyntaxAnalyzer::getCurTok</text>
</a>
</g>
</g>
<!-- Node1&#45;&gt;Node2 -->
<g id="edge1" class="edge">
<title>Node1&#45;&gt;Node2</title>
<path fill="none" stroke="midnightblue" d="M81.14,-2703.11C119.25,-2744 277.65,-2902.59 442,-2902.59 442,-2902.59 442,-2902.59 2834,-2902.59 2963.78,-2902.59 3013.31,-2844.74 3067,-2726.59 3124.28,-2600.54 3091.33,-2242.55 3103,-2104.59 3124.28,-1853.02 3163.11,-1548.52 3173.43,-1469.22"/>
<polygon fill="midnightblue" stroke="midnightblue" points="3176.91,-1469.55 3174.74,-1459.18 3169.97,-1468.65 3176.91,-1469.55"/>
</g>
<!-- Node3 -->
<g id="node3" class="node">
<title>Node3</title>
<g id="a_node3"><a xlink:href="../../d0/dfe/class_syntax_analyzer.html#a8b337bd5b4a90cd5bd804a936e408e4b" target="_top" xlink:title=" ">
<polygon fill="none" stroke="black" points="179,-2608.09 179,-2627.09 331,-2627.09 331,-2608.09 179,-2608.09"/>
<text text-anchor="middle" x="255" y="-2615.09" font-family="Helvetica,sans-Serif" font-size="10.00">SyntaxAnalyzer::syntaxProgram</text>
</a>
</g>
</g>
<!-- Node1&#45;&gt;Node3 -->
<g id="edge2" class="edge">
<title>Node1&#45;&gt;Node3</title>
<path fill="none" stroke="midnightblue" d="M95.49,-2683.96C127.4,-2670.6 185.28,-2646.36 221.58,-2631.16"/>
<polygon fill="midnightblue" stroke="midnightblue" points="223.33,-2634.22 231.2,-2627.13 220.62,-2627.77 223.33,-2634.22"/>
</g>
<!-- Node3&#45;&gt;Node2 -->
<g id="edge10" class="edge">
<title>Node3&#45;&gt;Node2</title>
<path fill="none" stroke="midnightblue" d="M260.79,-2627.45C274.04,-2653.75 313.74,-2726.31 367,-2766.59 464.51,-2840.32 501.76,-2864.59 624,-2864.59 624,-2864.59 624,-2864.59 2834,-2864.59 2990.83,-2864.59 3006.37,-2744.22 3067,-2599.59 3109.64,-2497.87 3092.89,-2214.41 3103,-2104.59 3126.14,-1853.18 3163.62,-1548.56 3173.53,-1469.23"/>
<polygon fill="midnightblue" stroke="midnightblue" points="3177.02,-1469.55 3174.79,-1459.19 3170.07,-1468.68 3177.02,-1469.55"/>
</g>
<!-- Node4 -->
<g id="node4" class="node">
<title>Node4</title>
<g id="a_node4"><a xlink:href="../../d7/d7c/class_a_s_t_factory.html#a8d1d4c9d01ab2e366d1af6bbaeaf7bef" target="_top" xlink:title=" ">
<polygon fill="none" stroke="black" points="2948,-2247.09 2948,-2266.09 3067,-2266.09 3067,-2247.09 2948,-2247.09"/>
<text text-anchor="middle" x="3007.5" y="-2254.09" font-family="Helvetica,sans-Serif" font-size="10.00">ASTFactory::createAST</text>
</a>
</g>
</g>
<!-- Node3&#45;&gt;Node4 -->
<g id="edge3" class="edge">
<title>Node3&#45;&gt;Node4</title>
<path fill="none" stroke="midnightblue" d="M263.16,-2627.2C279.26,-2648.11 320.59,-2697.93 367,-2723.59 470.11,-2780.59 506.18,-2788.59 624,-2788.59 624,-2788.59 624,-2788.59 1906,-2788.59 2131.62,-2788.59 2752.3,-2810.96 2912,-2651.59 2966.48,-2597.21 2996.77,-2348.3 3004.5,-2276.21"/>
<polygon fill="midnightblue" stroke="midnightblue" points="3007.99,-2276.52 3005.55,-2266.21 3001.03,-2275.79 3007.99,-2276.52"/>
</g>
<!-- Node8 -->
<g id="node8" class="node">
<title>Node8</title>
<g id="a_node8"><a xlink:href="../../d0/dfe/class_syntax_analyzer.html#ae1d3434e5cc4b4bcd5a3a245814a44f0" target="_top" xlink:title="Пропускает текущий токен, если он указанного типа. Иначе выбрасывается исключение">
<polygon fill="none" stroke="black" points="2957,-633.09 2957,-652.09 3058,-652.09 3058,-633.09 2957,-633.09"/>
<text text-anchor="middle" x="3007.5" y="-640.09" font-family="Helvetica,sans-Serif" font-size="10.00">SyntaxAnalyzer::eat</text>
</a>
</g>
</g>
<!-- Node3&#45;&gt;Node8 -->
<g id="edge7" class="edge">
<title>Node3&#45;&gt;Node8</title>
<path fill="none" stroke="midnightblue" d="M256.3,-2607.97C261.84,-2436.73 344.44,-34.59 624,-34.59 624,-34.59 624,-34.59 2286.5,-34.59 2566.6,-34.59 2708.7,81.09 2912,-111.59 2987.94,-183.56 3003.31,-534.49 3005.99,-622.53"/>
<polygon fill="midnightblue" stroke="midnightblue" points="3002.5,-622.85 3006.28,-632.74 3009.49,-622.65 3002.5,-622.85"/>
</g>
<!-- Node10 -->
<g id="node10" class="node">
<title>Node10</title>
<g id="a_node10"><a xlink:href="../../db/d0e/sup_8hpp.html#ae7d62ca130413d4c96863327c1af81a4" target="_top" xlink:title="Возвращает истину, если value находится среди значений cont.">
<polygon fill="none" stroke="black" points="2445.5,-1981.09 2445.5,-2000.09 2477.5,-2000.09 2477.5,-1981.09 2445.5,-1981.09"/>
<text text-anchor="middle" x="2461.5" y="-1988.09" font-family="Helvetica,sans-Serif" font-size="10.00">isIn</text>
</a>
</g>
</g>
<!-- Node3&#45;&gt;Node10 -->
<g id="edge11" class="edge">
<title>Node3&#45;&gt;Node10</title>
<path fill="none" stroke="midnightblue" d="M270.73,-2627.15C319.14,-2657.65 478.62,-2750.59 624,-2750.59 624,-2750.59 624,-2750.59 817.5,-2750.59 1041.39,-2750.59 1618.51,-2638.88 1793,-2498.59 1820.57,-2476.42 1806.43,-2454.83 1829,-2427.59 1967.87,-2259.92 2035.63,-2249 2217,-2128.59 2294.32,-2077.26 2391.8,-2025.71 2436.32,-2002.84"/>
<polygon fill="midnightblue" stroke="midnightblue" points="2437.93,-2005.94 2445.24,-1998.28 2434.74,-1999.71 2437.93,-2005.94"/>
</g>
<!-- Node11 -->
<g id="node11" class="node">
<title>Node11</title>
<g id="a_node11"><a xlink:href="../../d0/d11/class_i_token.html#a4fa3435db7157ca7316d4e4aee1df4c0" target="_top" xlink:title="Устанавливает дополнительный тип токена">
<polygon fill="none" stroke="black" points="2956,-1412.09 2956,-1431.09 3059,-1431.09 3059,-1412.09 2956,-1412.09"/>
<text text-anchor="middle" x="3007.5" y="-1419.09" font-family="Helvetica,sans-Serif" font-size="10.00">IToken::setAdvType</text>
</a>
</g>
</g>
<!-- Node3&#45;&gt;Node11 -->
<g id="edge12" class="edge">
<title>Node3&#45;&gt;Node11</title>
<path fill="none" stroke="midnightblue" d="M261,-2607.85C274.77,-2581.82 315.65,-2509.61 367,-2465.59 464.63,-2381.87 495.39,-2332.59 624,-2332.59 624,-2332.59 624,-2332.59 817.5,-2332.59 1367.15,-2332.59 1162.35,-1478.59 1712,-1478.59 1712,-1478.59 1712,-1478.59 2644.5,-1478.59 2764.18,-1478.59 2794.51,-1470.42 2912,-1447.59 2930.12,-1444.07 2949.85,-1438.86 2966.58,-1434.03"/>
<polygon fill="midnightblue" stroke="midnightblue" points="2967.96,-1437.27 2976.56,-1431.09 2965.98,-1430.56 2967.96,-1437.27"/>
</g>
<!-- Node12 -->
<g id="node12" class="node">
<title>Node12</title>
<g id="a_node12"><a xlink:href="../../d0/dfe/class_syntax_analyzer.html#a2b54bac50e114b68e83c80d869b6ac7c" target="_top" xlink:title=" ">
<polygon fill="none" stroke="black" points="555,-1981.09 555,-2000.09 695,-2000.09 695,-1981.09 555,-1981.09"/>
<text text-anchor="middle" x="625" y="-1988.09" font-family="Helvetica,sans-Serif" font-size="10.00">SyntaxAnalyzer::syntaxBlock</text>
</a>
</g>
</g>
<!-- Node3&#45;&gt;Node12 -->
<g id="edge13" class="edge">
<title>Node3&#45;&gt;Node12</title>
<path fill="none" stroke="midnightblue" d="M258.37,-2608.08C268.12,-2569.96 307.39,-2425.14 367,-2318.59 440.13,-2187.85 563.1,-2054.02 607.44,-2007.63"/>
<polygon fill="midnightblue" stroke="midnightblue" points="610.13,-2009.87 614.54,-2000.24 605.09,-2005.02 610.13,-2009.87"/>
</g>
<!-- Node38 -->
<g id="node38" class="node">
<title>Node38</title>
<g id="a_node38"><a xlink:href="../../d0/dfe/class_syntax_analyzer.html#ae04232a95c6423677e600927c82851e4" target="_top" xlink:title=" ">
<polygon fill="none" stroke="black" points="367,-2475.09 367,-2494.09 519,-2494.09 519,-2475.09 367,-2475.09"/>
<text text-anchor="middle" x="443" y="-2482.09" font-family="Helvetica,sans-Serif" font-size="10.00">SyntaxAnalyzer::syntaxFuncDef</text>
</a>
</g>
</g>
<!-- Node3&#45;&gt;Node38 -->
<g id="edge141" class="edge">
<title>Node3&#45;&gt;Node38</title>
<path fill="none" stroke="midnightblue" d="M269.38,-2608.02C301.07,-2585.36 380.99,-2528.21 419.96,-2500.35"/>
<polygon fill="midnightblue" stroke="midnightblue" points="422.4,-2502.91 428.49,-2494.24 418.32,-2497.21 422.4,-2502.91"/>
</g>
<!-- Node5 -->
<g id="node5" class="node">
<title>Node5</title>
<g id="a_node5"><a xlink:href="../../d0/d11/class_i_token.html#a3e73305ee0ac36d0bf5f26b649589b24" target="_top" xlink:title=" ">
<polygon fill="none" stroke="black" points="3125.5,-823.09 3125.5,-842.09 3228.5,-842.09 3228.5,-823.09 3125.5,-823.09"/>
<text text-anchor="middle" x="3177" y="-830.09" font-family="Helvetica,sans-Serif" font-size="10.00">IToken::getAdvType</text>
</a>
</g>
</g>
<!-- Node4&#45;&gt;Node5 -->
<g id="edge4" class="edge">
<title>Node4&#45;&gt;Node5</title>
<path fill="none" stroke="midnightblue" d="M3009.6,-2246.77C3017.23,-2178.37 3063.34,-1766 3103,-1430.59 3129.87,-1203.36 3164.13,-927.78 3173.52,-852.43"/>
<polygon fill="midnightblue" stroke="midnightblue" points="3177,-852.8 3174.77,-842.45 3170.06,-851.94 3177,-852.8"/>
</g>
<!-- Node6 -->
<g id="node6" class="node">
<title>Node6</title>
<g id="a_node6"><a xlink:href="../../d0/d11/class_i_token.html#ac7f0a800d7a9e8608bab0360c76d735a" target="_top" xlink:title="Получение типа токена">
<polygon fill="none" stroke="black" points="3134,-2114.09 3134,-2133.09 3220,-2133.09 3220,-2114.09 3134,-2114.09"/>
<text text-anchor="middle" x="3177" y="-2121.09" font-family="Helvetica,sans-Serif" font-size="10.00">IToken::getType</text>
</a>
</g>
</g>
<!-- Node4&#45;&gt;Node6 -->
<g id="edge5" class="edge">
<title>Node4&#45;&gt;Node6</title>
<path fill="none" stroke="midnightblue" d="M3020.55,-2247.02C3048.9,-2224.51 3120.11,-2167.97 3155.45,-2139.91"/>
<polygon fill="midnightblue" stroke="midnightblue" points="3157.96,-2142.38 3163.61,-2133.42 3153.6,-2136.9 3157.96,-2142.38"/>
</g>
<!-- Node7 -->
<g id="node7" class="node">
<title>Node7</title>
<g id="a_node7"><a xlink:href="../../db/dc1/class_token.html#a1f07fa2fffeb2f7ab803ef8b424eae8a" target="_top" xlink:title=" ">
<polygon fill="none" stroke="black" points="3140,-2247.09 3140,-2266.09 3214,-2266.09 3214,-2247.09 3140,-2247.09"/>
<text text-anchor="middle" x="3177" y="-2254.09" font-family="Helvetica,sans-Serif" font-size="10.00">Token::setStr</text>
</a>
</g>
</g>
<!-- Node4&#45;&gt;Node7 -->
<g id="edge6" class="edge">
<title>Node4&#45;&gt;Node7</title>
<path fill="none" stroke="midnightblue" d="M3067.08,-2256.59C3087.56,-2256.59 3110.24,-2256.59 3129.58,-2256.59"/>
<polygon fill="midnightblue" stroke="midnightblue" points="3129.66,-2260.09 3139.65,-2256.59 3129.65,-2253.09 3129.66,-2260.09"/>
</g>
<!-- Node8&#45;&gt;Node2 -->
<g id="edge8" class="edge">
<title>Node8&#45;&gt;Node2</title>
<path fill="none" stroke="midnightblue" d="M3011.48,-652.32C3020.64,-682.46 3048.84,-776.98 3067,-856.59 3117.94,-1079.85 3161.42,-1354.59 3172.99,-1429.77"/>
<polygon fill="midnightblue" stroke="midnightblue" points="3169.54,-1430.39 3174.51,-1439.74 3176.46,-1429.33 3169.54,-1430.39"/>
</g>
<!-- Node9 -->
<g id="node9" class="node">
<title>Node9</title>
<g id="a_node9"><a xlink:href="../../d0/dfe/class_syntax_analyzer.html#a9e41370d8d74fbd2e77648d2071e7dfe" target="_top" xlink:title=" ">
<polygon fill="none" stroke="black" points="3103,-709.09 3103,-728.09 3251,-728.09 3251,-709.09 3103,-709.09"/>
<text text-anchor="middle" x="3177" y="-716.09" font-family="Helvetica,sans-Serif" font-size="10.00">SyntaxAnalyzer::getNextToken</text>
</a>
</g>
</g>
<!-- Node8&#45;&gt;Node9 -->
<g id="edge9" class="edge">
<title>Node8&#45;&gt;Node9</title>
<path fill="none" stroke="midnightblue" d="M3029.71,-652.21C3059.04,-665.52 3112.13,-689.61 3145.65,-704.81"/>
<polygon fill="midnightblue" stroke="midnightblue" points="3144.41,-708.09 3154.96,-709.04 3147.3,-701.72 3144.41,-708.09"/>
</g>
<!-- Node12&#45;&gt;Node4 -->
<g id="edge14" class="edge">
<title>Node12&#45;&gt;Node4</title>
<path fill="none" stroke="midnightblue" d="M639.23,-2000.22C750.97,-2080.58 1550.61,-2636.59 2284.5,-2636.59 2284.5,-2636.59 2284.5,-2636.59 2462.5,-2636.59 2564.24,-2636.59 2838.58,-2620.03 2912,-2549.59 2962.1,-2501.52 2926.63,-2463.64 2948,-2397.59 2962.48,-2352.84 2984.99,-2302.38 2997.44,-2275.63"/>
<polygon fill="midnightblue" stroke="midnightblue" points="3000.74,-2276.84 3001.83,-2266.3 2994.41,-2273.86 3000.74,-2276.84"/>
</g>
<!-- Node13 -->
<g id="node13" class="node">
<title>Node13</title>
<g id="a_node13"><a xlink:href="../../d0/dfe/class_syntax_analyzer.html#a5770afdc4d32d2c38550f27f9ffd949a" target="_top" xlink:title=" ">
<polygon fill="none" stroke="black" points="731,-1677.09 731,-1696.09 902,-1696.09 902,-1677.09 731,-1677.09"/>
<text text-anchor="middle" x="816.5" y="-1684.09" font-family="Helvetica,sans-Serif" font-size="10.00">SyntaxAnalyzer::syntaxCompoundSt</text>
</a>
</g>
</g>
<!-- Node12&#45;&gt;Node13 -->
<g id="edge15" class="edge">
<title>Node12&#45;&gt;Node13</title>
<path fill="none" stroke="midnightblue" d="M632.09,-1980.82C659.1,-1937.49 768.3,-1762.31 804.08,-1704.9"/>
<polygon fill="midnightblue" stroke="midnightblue" points="807.21,-1706.51 809.53,-1696.17 801.27,-1702.8 807.21,-1706.51"/>
</g>
<!-- Node33 -->
<g id="node33" class="node">
<title>Node33</title>
<g id="a_node33"><a xlink:href="../../d0/dfe/class_syntax_analyzer.html#a58a0f927ad0a45e4ce837a98e98330aa" target="_top" xlink:title=" ">
<polygon fill="none" stroke="black" points="1451,-386.09 1451,-405.09 1597,-405.09 1597,-386.09 1451,-386.09"/>
<text text-anchor="middle" x="1524" y="-393.09" font-family="Helvetica,sans-Serif" font-size="10.00">SyntaxAnalyzer::syntaxConsts</text>
</a>
</g>
</g>
<!-- Node12&#45;&gt;Node33 -->
<g id="edge117" class="edge">
<title>Node12&#45;&gt;Node33</title>
<path fill="none" stroke="midnightblue" d="M625.97,-1980.82C625.63,-1858.65 624.93,-629.28 731,-514.59 927.14,-302.5 1326.57,-356.28 1470.13,-384.08"/>
<polygon fill="midnightblue" stroke="midnightblue" points="1469.53,-387.53 1480.02,-386.03 1470.89,-380.66 1469.53,-387.53"/>
</g>
<!-- Node35 -->
<g id="node35" class="node">
<title>Node35</title>
<g id="a_node35"><a xlink:href="../../d0/dfe/class_syntax_analyzer.html#a738f9b4cb7edf93c56af1b6974caad1a" target="_top" xlink:title=" ">
<polygon fill="none" stroke="black" points="2394,-937.09 2394,-956.09 2529,-956.09 2529,-937.09 2394,-937.09"/>
<text text-anchor="middle" x="2461.5" y="-944.09" font-family="Helvetica,sans-Serif" font-size="10.00">SyntaxAnalyzer::syntaxVars</text>
</a>
</g>
</g>
<!-- Node12&#45;&gt;Node35 -->
<g id="edge126" class="edge">
<title>Node12&#45;&gt;Node35</title>
<path fill="none" stroke="midnightblue" d="M626.34,-1980.86C631.04,-1854.02 687.8,-528.59 1007.5,-528.59 1007.5,-528.59 1007.5,-528.59 1346.5,-528.59 1814.65,-528.59 2326.97,-856.17 2438.36,-931.34"/>
<polygon fill="midnightblue" stroke="midnightblue" points="2436.56,-934.35 2446.79,-937.07 2440.49,-928.56 2436.56,-934.35"/>
</g>
<!-- Node13&#45;&gt;Node2 -->
<g id="edge18" class="edge">
<title>Node13&#45;&gt;Node2</title>
<path fill="none" stroke="midnightblue" d="M822.74,-1696.09C880.52,-1799.52 1410.04,-2712.59 2098,-2712.59 2098,-2712.59 2098,-2712.59 2462.5,-2712.59 2764.64,-2712.59 2936.54,-2674.1 3067,-2401.59 3072.25,-2390.62 3158.92,-1604.75 3173.83,-1469.35"/>
<polygon fill="midnightblue" stroke="midnightblue" points="3177.33,-1469.52 3174.94,-1459.2 3170.37,-1468.76 3177.33,-1469.52"/>
</g>
<!-- Node13&#45;&gt;Node4 -->
<g id="edge16" class="edge">
<title>Node13&#45;&gt;Node4</title>
<path fill="none" stroke="midnightblue" d="M825.16,-1696.21C888.13,-1774.56 1330.83,-2309.71 1829,-2507.59 2107.17,-2618.08 2885.75,-2546.77 2912,-2523.59 2994.32,-2450.9 2879.59,-2361.26 2947.44,-2274.12"/>
<polygon fill="midnightblue" stroke="midnightblue" points="2950.32,-2276.14 2954.09,-2266.24 2944.97,-2271.62 2950.32,-2276.14"/>
</g>
<!-- Node13&#45;&gt;Node8 -->
<g id="edge17" class="edge">
<title>Node13&#45;&gt;Node8</title>
<path fill="none" stroke="midnightblue" d="M818.04,-1676.79C824.62,-1561.45 892.84,-462.11 1115,-246.59 1310.32,-57.1 1439.87,-110.59 1712,-110.59 1712,-110.59 1712,-110.59 2462.5,-110.59 2563.06,-110.59 2839.98,-92.41 2912,-162.59 2979.4,-228.26 3000.92,-539.91 3005.49,-622.47"/>
<polygon fill="midnightblue" stroke="midnightblue" points="3002.02,-623.14 3006.04,-632.94 3009.01,-622.77 3002.02,-623.14"/>
</g>
<!-- Node13&#45;&gt;Node11 -->
<g id="edge19" class="edge">
<title>Node13&#45;&gt;Node11</title>
<path fill="none" stroke="midnightblue" d="M837.38,-1677.01C914.16,-1640.59 1199.63,-1510.44 1451,-1464.59 1892.51,-1384.06 2011.71,-1440.59 2460.5,-1440.59 2460.5,-1440.59 2460.5,-1440.59 2644.5,-1440.59 2750.52,-1440.59 2873.77,-1432.36 2945.66,-1426.73"/>
<polygon fill="midnightblue" stroke="midnightblue" points="2946.19,-1430.2 2955.88,-1425.92 2945.64,-1423.22 2946.19,-1430.2"/>
</g>
<!-- Node14 -->
<g id="node14" class="node">
<title>Node14</title>
<g id="a_node14"><a xlink:href="../../d0/dfe/class_syntax_analyzer.html#a6df61a82ef9de3c17b78be89a321a087" target="_top" xlink:title=" ">
<polygon fill="none" stroke="black" points="938,-937.09 938,-956.09 1079,-956.09 1079,-937.09 938,-937.09"/>
<text text-anchor="middle" x="1008.5" y="-944.09" font-family="Helvetica,sans-Serif" font-size="10.00">SyntaxAnalyzer::syntaxStList</text>
</a>
</g>
</g>
<!-- Node13&#45;&gt;Node14 -->
<g id="edge20" class="edge">
<title>Node13&#45;&gt;Node14</title>
<path fill="none" stroke="midnightblue" d="M819.97,-1676.96C839.93,-1599.24 974.68,-1074.41 1002.49,-966.11"/>
<polygon fill="midnightblue" stroke="midnightblue" points="1005.93,-966.77 1005.03,-956.22 999.15,-965.03 1005.93,-966.77"/>
</g>
<!-- Node14&#45;&gt;Node2 -->
<g id="edge22" class="edge">
<title>Node14&#45;&gt;Node2</title>
<path fill="none" stroke="midnightblue" d="M1010.26,-936.98C1015.99,-872.17 1058.12,-496.54 1276,-338.59 1423.21,-231.87 2732.8,-269.79 2912,-300.59 2983.9,-312.94 3022.62,-296.69 3067,-354.59 3100.68,-398.53 3097.64,-796.48 3103,-851.59 3125.13,-1079.32 3162.75,-1354.54 3173.22,-1429.77"/>
<polygon fill="midnightblue" stroke="midnightblue" points="3169.76,-1430.32 3174.61,-1439.74 3176.7,-1429.36 3169.76,-1430.32"/>
</g>
<!-- Node14&#45;&gt;Node8 -->
<g id="edge21" class="edge">
<title>Node14&#45;&gt;Node8</title>
<path fill="none" stroke="midnightblue" d="M1009.62,-936.97C1010.78,-863.16 1021.79,-386.89 1115,-286.59 1165.05,-232.73 1203.16,-258.56 1276,-248.59 1636.2,-199.27 2649.59,3.03 2912,-248.59 2967.42,-301.73 2997.04,-550.78 3004.56,-622.95"/>
<polygon fill="midnightblue" stroke="midnightblue" points="3001.09,-623.36 3005.58,-632.95 3008.05,-622.65 3001.09,-623.36"/>
</g>
<!-- Node15 -->
<g id="node15" class="node">
<title>Node15</title>
<g id="a_node15"><a xlink:href="../../d0/dfe/class_syntax_analyzer.html#a7f54bde730006b1b863290415809ab4e" target="_top" xlink:title=" ">
<polygon fill="none" stroke="black" points="1115,-1317.09 1115,-1336.09 1240,-1336.09 1240,-1317.09 1115,-1317.09"/>
<text text-anchor="middle" x="1177.5" y="-1324.09" font-family="Helvetica,sans-Serif" font-size="10.00">SyntaxAnalyzer::syntaxSt</text>
</a>
</g>
</g>
<!-- Node14&#45;&gt;Node15 -->
<g id="edge23" class="edge">
<title>Node14&#45;&gt;Node15</title>
<path fill="none" stroke="midnightblue" d="M1013.8,-956.36C1036.04,-1006.97 1138.22,-1239.48 1168.21,-1307.71"/>
<polygon fill="midnightblue" stroke="midnightblue" points="1165,-1309.13 1172.23,-1316.88 1171.41,-1306.31 1165,-1309.13"/>
</g>
<!-- Node15&#45;&gt;Node2 -->
<g id="edge25" class="edge">
<title>Node15&#45;&gt;Node2</title>
<path fill="none" stroke="midnightblue" d="M1185.01,-1336.33C1222.02,-1391.79 1404.76,-1665.78 1415,-1684.59 1602.86,-2029.62 1502.07,-2247.74 1829,-2465.59 1930.7,-2533.35 1975.79,-2522.59 2098,-2522.59 2098,-2522.59 2098,-2522.59 2462.5,-2522.59 2662.28,-2522.59 2737.27,-2620.43 2912,-2523.59 3025.69,-2460.58 3023.05,-2397.91 3067,-2275.59 3095.25,-2196.95 3161.3,-1587.39 3173.9,-1469.34"/>
<polygon fill="midnightblue" stroke="midnightblue" points="3177.4,-1469.54 3174.98,-1459.23 3170.44,-1468.8 3177.4,-1469.54"/>
</g>
<!-- Node15&#45;&gt;Node8 -->
<g id="edge24" class="edge">
<title>Node15&#45;&gt;Node8</title>
<path fill="none" stroke="midnightblue" d="M1179.12,-1316.61C1184.1,-1237.77 1218.95,-714.74 1276,-568.59 1324.92,-443.26 1331.86,-384.08 1451,-321.59 1594.76,-246.18 2790.44,-222.99 2912,-330.59 2971.13,-382.93 2924.48,-429.2 2948,-504.59 2961.69,-548.45 2984.32,-597.45 2997.05,-623.64"/>
<polygon fill="midnightblue" stroke="midnightblue" points="2994,-625.37 3001.55,-632.8 3000.28,-622.28 2994,-625.37"/>
</g>
<!-- Node15&#45;&gt;Node13 -->
<g id="edge84" class="edge">
<title>Node15&#45;&gt;Node13</title>
<path fill="none" stroke="midnightblue" d="M1166.7,-1336.41C1117.48,-1385.77 897.11,-1606.75 834.27,-1669.76"/>
<polygon fill="midnightblue" stroke="midnightblue" points="831.69,-1667.4 827.1,-1676.96 836.64,-1672.35 831.69,-1667.4"/>
</g>
<!-- Node16 -->
<g id="node16" class="node">
<title>Node16</title>
<g id="a_node16"><a xlink:href="../../d0/dfe/class_syntax_analyzer.html#af0905389742c4f842207bb2c073afbfa" target="_top" xlink:title=" ">
<polygon fill="none" stroke="black" points="2575,-519.09 2575,-538.09 2712,-538.09 2712,-519.09 2575,-519.09"/>
<text text-anchor="middle" x="2643.5" y="-526.09" font-family="Helvetica,sans-Serif" font-size="10.00">SyntaxAnalyzer::lookFoward</text>
</a>
</g>
</g>
<!-- Node15&#45;&gt;Node16 -->
<g id="edge26" class="edge">
<title>Node15&#45;&gt;Node16</title>
<path fill="none" stroke="midnightblue" d="M1179.37,-1316.78C1185.46,-1249.09 1223.16,-850.62 1276,-742.59 1326.44,-639.45 1349.21,-605.69 1451,-552.59 1740.25,-401.69 1855.29,-456.94 2181,-475.59 2318.95,-483.48 2478.95,-504.55 2569.71,-517.62"/>
<polygon fill="midnightblue" stroke="midnightblue" points="2569.22,-521.08 2579.62,-519.05 2570.22,-514.16 2569.22,-521.08"/>
</g>
<!-- Node18 -->
<g id="node18" class="node">
<title>Node18</title>
<g id="a_node18"><a xlink:href="../../d0/dfe/class_syntax_analyzer.html#a31fc5887c158652feb946f89270b4b36" target="_top" xlink:title=" ">
<polygon fill="none" stroke="black" points="1635.5,-1241.09 1635.5,-1260.09 1790.5,-1260.09 1790.5,-1241.09 1635.5,-1241.09"/>
<text text-anchor="middle" x="1713" y="-1248.09" font-family="Helvetica,sans-Serif" font-size="10.00">SyntaxAnalyzer::syntaxAssignSt</text>
</a>
</g>
</g>
<!-- Node15&#45;&gt;Node18 -->
<g id="edge28" class="edge">
<title>Node15&#45;&gt;Node18</title>
<path fill="none" stroke="midnightblue" d="M1240.22,-1317.79C1338,-1303.86 1528.34,-1276.75 1634.94,-1261.56"/>
<polygon fill="midnightblue" stroke="midnightblue" points="1635.58,-1265.01 1644.99,-1260.13 1634.6,-1258.08 1635.58,-1265.01"/>
</g>
<!-- Node24 -->
<g id="node24" class="node">
<title>Node24</title>
<g id="a_node24"><a xlink:href="../../d0/dfe/class_syntax_analyzer.html#a2db43946bee3e973ce1cf293b262e271" target="_top" xlink:title=" ">
<polygon fill="none" stroke="black" points="2762.5,-1241.09 2762.5,-1260.09 2903.5,-1260.09 2903.5,-1241.09 2762.5,-1241.09"/>
<text text-anchor="middle" x="2833" y="-1248.09" font-family="Helvetica,sans-Serif" font-size="10.00">SyntaxAnalyzer::syntaxCallSt</text>
</a>
</g>
</g>
<!-- Node15&#45;&gt;Node24 -->
<g id="edge83" class="edge">
<title>Node15&#45;&gt;Node24</title>
<path fill="none" stroke="midnightblue" d="M1179.48,-1316.69C1187.59,-1241 1250.12,-756.59 1523,-756.59 1523,-756.59 1523,-756.59 1714,-756.59 1835.82,-756.59 1866.52,-776.93 1981,-818.59 2325.29,-943.85 2709.71,-1175.02 2808.08,-1235.69"/>
<polygon fill="midnightblue" stroke="midnightblue" points="2806.35,-1238.73 2816.7,-1241.02 2810.03,-1232.78 2806.35,-1238.73"/>
</g>
<!-- Node27 -->
<g id="node27" class="node">
<title>Node27</title>
<g id="a_node27"><a xlink:href="../../d0/dfe/class_syntax_analyzer.html#a67bc7e3cfb57c9d4d25d60913aef3a87" target="_top" xlink:title=" ">
<polygon fill="none" stroke="black" points="1829,-2437.09 1829,-2456.09 1981,-2456.09 1981,-2437.09 1829,-2437.09"/>
<text text-anchor="middle" x="1905" y="-2444.09" font-family="Helvetica,sans-Serif" font-size="10.00">SyntaxAnalyzer::syntaxEmptySt</text>
</a>
</g>
</g>
<!-- Node15&#45;&gt;Node27 -->
<g id="edge85" class="edge">
<title>Node15&#45;&gt;Node27</title>
<path fill="none" stroke="midnightblue" d="M1180.39,-1336.23C1196.72,-1417.29 1320.99,-1989.65 1633,-2308.59 1697.92,-2374.95 1801.5,-2415.25 1860.01,-2433.98"/>
<polygon fill="midnightblue" stroke="midnightblue" points="1859.11,-2437.37 1869.7,-2437.02 1861.2,-2430.69 1859.11,-2437.37"/>
</g>
<!-- Node28 -->
<g id="node28" class="node">
<title>Node28</title>
<g id="a_node28"><a xlink:href="../../d0/dfe/class_syntax_analyzer.html#a82e8472ea6d1064871de0d05eaa8b374" target="_top" xlink:title=" ">
<polygon fill="none" stroke="black" points="1276,-1193.09 1276,-1212.09 1415,-1212.09 1415,-1193.09 1276,-1193.09"/>
<text text-anchor="middle" x="1345.5" y="-1200.09" font-family="Helvetica,sans-Serif" font-size="10.00">SyntaxAnalyzer::syntaxForSt</text>
</a>
</g>
</g>
<!-- Node15&#45;&gt;Node28 -->
<g id="edge87" class="edge">
<title>Node15&#45;&gt;Node28</title>
<path fill="none" stroke="midnightblue" d="M1185.09,-1316.94C1200.77,-1300.47 1241.57,-1269.22 1276,-1243.59 1287.58,-1234.97 1300.33,-1225.62 1311.66,-1217.87"/>
<polygon fill="midnightblue" stroke="midnightblue" points="1313.64,-1220.76 1320.01,-1212.29 1309.75,-1214.94 1313.64,-1220.76"/>
</g>
<!-- Node30 -->
<g id="node30" class="node">
<title>Node30</title>
<g id="a_node30"><a xlink:href="../../d0/dfe/class_syntax_analyzer.html#a779e006875d35926152773989f4b1e5a" target="_top" xlink:title=" ">
<polygon fill="none" stroke="black" points="1647.5,-1592.09 1647.5,-1611.09 1778.5,-1611.09 1778.5,-1592.09 1647.5,-1592.09"/>
<text text-anchor="middle" x="1713" y="-1599.09" font-family="Helvetica,sans-Serif" font-size="10.00">SyntaxAnalyzer::syntaxIfSt</text>
</a>
</g>
</g>
<!-- Node15&#45;&gt;Node30 -->
<g id="edge100" class="edge">
<title>Node15&#45;&gt;Node30</title>
<path fill="none" stroke="midnightblue" d="M1193.85,-1336.34C1212.11,-1352.41 1244.14,-1383.02 1276,-1403.59 1417.67,-1495.04 1611.04,-1560.93 1683.25,-1588.37"/>
<polygon fill="midnightblue" stroke="midnightblue" points="1682.03,-1591.65 1692.62,-1591.98 1684.55,-1585.12 1682.03,-1591.65"/>
</g>
<!-- Node31 -->
<g id="node31" class="node">
<title>Node31</title>
<g id="a_node31"><a xlink:href="../../d0/dfe/class_syntax_analyzer.html#a55e935b2aa7f20b66e9228e977582fcd" target="_top" xlink:title=" ">
<polygon fill="none" stroke="black" points="1636.5,-1545.09 1636.5,-1564.09 1789.5,-1564.09 1789.5,-1545.09 1636.5,-1545.09"/>
<text text-anchor="middle" x="1713" y="-1552.09" font-family="Helvetica,sans-Serif" font-size="10.00">SyntaxAnalyzer::syntaxReturnSt</text>
</a>
</g>
</g>
<!-- Node15&#45;&gt;Node31 -->
<g id="edge106" class="edge">
<title>Node15&#45;&gt;Node31</title>
<path fill="none" stroke="midnightblue" d="M1200.74,-1336.09C1284.63,-1371.94 1582.04,-1499.05 1680.26,-1541.02"/>
<polygon fill="midnightblue" stroke="midnightblue" points="1679.09,-1544.33 1689.66,-1545.04 1681.84,-1537.89 1679.09,-1544.33"/>
</g>
<!-- Node32 -->
<g id="node32" class="node">
<title>Node32</title>
<g id="a_node32"><a xlink:href="../../d0/dfe/class_syntax_analyzer.html#a64dad7f0b22b08d182483469d3a1aa79" target="_top" xlink:title=" ">
<polygon fill="none" stroke="black" points="1638.5,-1317.09 1638.5,-1336.09 1787.5,-1336.09 1787.5,-1317.09 1638.5,-1317.09"/>
<text text-anchor="middle" x="1713" y="-1324.09" font-family="Helvetica,sans-Serif" font-size="10.00">SyntaxAnalyzer::syntaxWhileSt</text>
</a>
</g>
</g>
<!-- Node15&#45;&gt;Node32 -->
<g id="edge111" class="edge">
<title>Node15&#45;&gt;Node32</title>
<path fill="none" stroke="midnightblue" d="M1240.22,-1322.08C1336.01,-1319.29 1520.62,-1319.1 1628.32,-1321.52"/>
<polygon fill="midnightblue" stroke="midnightblue" points="1628.42,-1325.02 1638.5,-1321.76 1628.58,-1318.02 1628.42,-1325.02"/>
</g>
<!-- Node17 -->
<g id="node17" class="node">
<title>Node17</title>
<g id="a_node17"><a xlink:href="../../d1/d34/class_list.html#a49c179636e084dfbf7a52acd46acaf01" target="_top" xlink:title=" ">
<polygon fill="none" stroke="black" points="2805.5,-519.09 2805.5,-538.09 2860.5,-538.09 2860.5,-519.09 2805.5,-519.09"/>
<text text-anchor="middle" x="2833" y="-526.09" font-family="Helvetica,sans-Serif" font-size="10.00">List::size</text>
</a>
</g>
</g>
<!-- Node16&#45;&gt;Node17 -->
<g id="edge27" class="edge">
<title>Node16&#45;&gt;Node17</title>
<path fill="none" stroke="midnightblue" d="M2712.19,-528.59C2740.21,-528.59 2771.6,-528.59 2795.22,-528.59"/>
<polygon fill="midnightblue" stroke="midnightblue" points="2795.48,-532.09 2805.48,-528.59 2795.48,-525.09 2795.48,-532.09"/>
</g>
<!-- Node18&#45;&gt;Node2 -->
<g id="edge31" class="edge">
<title>Node18&#45;&gt;Node2</title>
<path fill="none" stroke="midnightblue" d="M1735.98,-1260.25C1754.41,-1269.58 1779.78,-1285.54 1793,-1307.59 1854.35,-1409.9 1792.91,-1459.88 1829,-1573.59 1883.72,-1746.01 1872.4,-1825.9 2017,-1934.59 2152.17,-2036.19 2221.74,-1992.84 2390,-2009.59 2453.24,-2015.88 2477.22,-2040.04 2533,-2009.59 2558.97,-1995.41 2546,-1972.2 2569,-1953.59 2591.99,-1934.99 3046.39,-1786.8 3067,-1765.59 3151.19,-1678.93 3170.54,-1524.23 3174.82,-1469.47"/>
<polygon fill="midnightblue" stroke="midnightblue" points="3178.33,-1469.58 3175.53,-1459.36 3171.34,-1469.09 3178.33,-1469.58"/>
</g>
<!-- Node18&#45;&gt;Node4 -->
<g id="edge29" class="edge">
<title>Node18&#45;&gt;Node4</title>
<path fill="none" stroke="midnightblue" d="M1736.8,-1260.17C1755.5,-1269.36 1780.79,-1285.16 1793,-1307.59 1867.18,-1443.79 1739,-1878.28 1829,-2004.59 1881.3,-2077.98 1933.09,-2047.69 2017,-2080.59 2105.53,-2115.3 2125.78,-2129.74 2217,-2156.59 2334.03,-2191.02 2632.67,-2257.85 2754,-2270.59 2823.84,-2277.92 2841.97,-2275.75 2912,-2270.59 2921.58,-2269.88 2931.65,-2268.78 2941.51,-2267.49"/>
<polygon fill="midnightblue" stroke="midnightblue" points="2942.25,-2270.93 2951.68,-2266.1 2941.3,-2263.99 2942.25,-2270.93"/>
</g>
<!-- Node18&#45;&gt;Node8 -->
<g id="edge30" class="edge">
<title>Node18&#45;&gt;Node8</title>
<path fill="none" stroke="midnightblue" d="M1717.74,-1241.05C1729.28,-1211.53 1765.24,-1118.99 1793,-1041.59 1809.8,-994.75 1795.7,-972.55 1829,-935.59 1878.78,-880.33 1932.65,-922.1 1981,-865.59 2019.14,-821.01 1977.65,-782.1 2017,-738.59 2182.42,-555.69 2315.61,-651.02 2533,-534.59 2550.17,-525.39 2550.41,-515.41 2569,-509.59 2641.74,-486.81 2844.27,-474.62 2912,-509.59 2958.61,-533.64 2987.23,-592.48 2999.5,-623.2"/>
<polygon fill="midnightblue" stroke="midnightblue" points="2996.33,-624.7 3003.17,-632.79 3002.87,-622.2 2996.33,-624.7"/>
</g>
<!-- Node18&#45;&gt;Node16 -->
<g id="edge32" class="edge">
<title>Node18&#45;&gt;Node16</title>
<path fill="none" stroke="midnightblue" d="M1722.04,-1240.72C1776.29,-1174.33 2090.46,-793.23 2217,-714.59 2248.17,-695.22 2504.54,-641.75 2533,-618.59 2558.91,-597.49 2543.31,-573.95 2569,-552.59 2574.01,-548.42 2579.77,-544.97 2585.81,-542.11"/>
<polygon fill="midnightblue" stroke="midnightblue" points="2587.57,-545.17 2595.46,-538.1 2584.88,-538.71 2587.57,-545.17"/>
</g>
<!-- Node19 -->
<g id="node19" class="node">
<title>Node19</title>
<g id="a_node19"><a xlink:href="../../d0/dfe/class_syntax_analyzer.html#ae8d09db1b25ec882248aeed978c13a4d" target="_top" xlink:title=" ">
<polygon fill="none" stroke="black" points="1838,-1545.09 1838,-1564.09 1972,-1564.09 1972,-1545.09 1838,-1545.09"/>
<text text-anchor="middle" x="1905" y="-1552.09" font-family="Helvetica,sans-Serif" font-size="10.00">SyntaxAnalyzer::syntaxExpr</text>
</a>
</g>
</g>
<!-- Node18&#45;&gt;Node19 -->
<g id="edge33" class="edge">
<title>Node18&#45;&gt;Node19</title>
<path fill="none" stroke="midnightblue" d="M1732.44,-1260.15C1749.98,-1270.02 1776.11,-1286.88 1793,-1307.59 1852.43,-1380.47 1886.76,-1490.28 1898.93,-1534.79"/>
<polygon fill="midnightblue" stroke="midnightblue" points="1895.59,-1535.87 1901.55,-1544.64 1902.36,-1534.08 1895.59,-1535.87"/>
</g>
<!-- Node25 -->
<g id="node25" class="node">
<title>Node25</title>
<g id="a_node25"><a xlink:href="../../d0/dfe/class_syntax_analyzer.html#a1264dcb50cb09c564a36125c21043298" target="_top" xlink:title=" ">
<polygon fill="none" stroke="black" points="2572,-1355.09 2572,-1374.09 2715,-1374.09 2715,-1355.09 2572,-1355.09"/>
<text text-anchor="middle" x="2643.5" y="-1362.09" font-family="Helvetica,sans-Serif" font-size="10.00">SyntaxAnalyzer::syntaxSelect</text>
</a>
</g>
</g>
<!-- Node18&#45;&gt;Node25 -->
<g id="edge81" class="edge">
<title>Node18&#45;&gt;Node25</title>
<path fill="none" stroke="midnightblue" d="M1790.52,-1259.78C1935.44,-1277.23 2259.92,-1316.46 2533,-1350.59 2542.32,-1351.75 2552.08,-1352.98 2561.77,-1354.21"/>
<polygon fill="midnightblue" stroke="midnightblue" points="2561.46,-1357.7 2571.82,-1355.49 2562.34,-1350.76 2561.46,-1357.7"/>
</g>
<!-- Node26 -->
<g id="node26" class="node">
<title>Node26</title>
<g id="a_node26"><a xlink:href="../../d0/dfe/class_syntax_analyzer.html#a94c8a6ab5c0e53cae22edb1a840a27ce" target="_top" xlink:title=" ">
<polygon fill="none" stroke="black" points="2758,-1279.09 2758,-1298.09 2908,-1298.09 2908,-1279.09 2758,-1279.09"/>
<text text-anchor="middle" x="2833" y="-1286.09" font-family="Helvetica,sans-Serif" font-size="10.00">SyntaxAnalyzer::syntaxVariable</text>
</a>
</g>
</g>
<!-- Node18&#45;&gt;Node26 -->
<g id="edge82" class="edge">
<title>Node18&#45;&gt;Node26</title>
<path fill="none" stroke="midnightblue" d="M1790.84,-1253.2C1992.89,-1260.07 2537.86,-1278.59 2747.88,-1285.73"/>
<polygon fill="midnightblue" stroke="midnightblue" points="2747.81,-1289.23 2757.93,-1286.07 2748.05,-1282.23 2747.81,-1289.23"/>
</g>
<!-- Node19&#45;&gt;Node2 -->
<g id="edge36" class="edge">
<title>Node19&#45;&gt;Node2</title>
<path fill="none" stroke="midnightblue" d="M1949.56,-1564.1C1969.95,-1568.23 1994.62,-1572.75 2017,-1575.59 2411.68,-1625.6 2521.95,-1668.91 2912,-1590.59 2982.45,-1576.44 3004.03,-1579.21 3067,-1544.59 3104.87,-1523.77 3141.1,-1487.99 3160.77,-1466.79"/>
<polygon fill="midnightblue" stroke="midnightblue" points="3163.55,-1468.93 3167.69,-1459.18 3158.37,-1464.22 3163.55,-1468.93"/>
</g>
<!-- Node19&#45;&gt;Node4 -->
<g id="edge34" class="edge">
<title>Node19&#45;&gt;Node4</title>
<path fill="none" stroke="midnightblue" d="M1906.52,-1564.34C1909.31,-1607.58 1926.07,-1784.17 2017,-1883.59 2082.54,-1955.25 2126.08,-1937.46 2217,-1971.59 2326.23,-2012.59 2627.11,-2055.44 2718,-2128.59 2743.12,-2148.81 2728.36,-2172.02 2754,-2191.59 2782.74,-2213.51 2873.89,-2233.38 2938.4,-2245.22"/>
<polygon fill="midnightblue" stroke="midnightblue" points="2938.04,-2248.72 2948.51,-2247.05 2939.29,-2241.83 2938.04,-2248.72"/>
</g>
<!-- Node19&#45;&gt;Node6 -->
<g id="edge37" class="edge">
<title>Node19&#45;&gt;Node6</title>
<path fill="none" stroke="midnightblue" d="M1906.92,-1564.16C1911.61,-1609.16 1935.87,-1802.94 2017,-1934.59 2313.8,-2416.19 2421.64,-2595.28 2948,-2802.59 2997.21,-2821.97 3028.43,-2838.78 3067,-2802.59 3112.87,-2759.54 3083.42,-2297.37 3103,-2237.59 3115.35,-2199.9 3143.14,-2162.36 3160.64,-2141.15"/>
<polygon fill="midnightblue" stroke="midnightblue" points="3163.45,-2143.26 3167.23,-2133.36 3158.1,-2138.74 3163.45,-2143.26"/>
</g>
<!-- Node19&#45;&gt;Node8 -->
<g id="edge35" class="edge">
<title>Node19&#45;&gt;Node8</title>
<path fill="none" stroke="midnightblue" d="M1959.64,-1545.02C1967.64,-1541.58 1975.15,-1536.91 1981,-1530.59 2028.42,-1479.29 1985.18,-1439.78 2017,-1377.59 2067.65,-1278.58 2126.68,-1285.63 2181,-1188.59 2206.95,-1142.22 2178.77,-1111.49 2217,-1074.59 2262.46,-1030.7 2311.9,-1083.71 2354,-1036.59 2421.76,-960.73 2322.32,-886.51 2390,-810.59 2433.91,-761.32 2474.32,-800.79 2533,-770.59 2551.27,-761.18 2550.62,-750.77 2569,-741.59 2644.89,-703.66 2671.32,-713.59 2754,-694.59 2819.63,-679.5 2895.34,-664.18 2946.61,-654.12"/>
<polygon fill="midnightblue" stroke="midnightblue" points="2947.39,-657.53 2956.53,-652.18 2946.04,-650.66 2947.39,-657.53"/>
</g>
<!-- Node19&#45;&gt;Node10 -->
<g id="edge38" class="edge">
<title>Node19&#45;&gt;Node10</title>
<path fill="none" stroke="midnightblue" d="M1907.71,-1564.12C1914.76,-1600.94 1944.65,-1735.82 2017,-1816.59 2133.51,-1946.64 2359.48,-1980.53 2435.13,-1988.41"/>
<polygon fill="midnightblue" stroke="midnightblue" points="2434.87,-1991.9 2445.17,-1989.39 2435.56,-1984.93 2434.87,-1991.9"/>
</g>
<!-- Node20 -->
<g id="node20" class="node">
<title>Node20</title>
<g id="a_node20"><a xlink:href="../../d0/dfe/class_syntax_analyzer.html#a3dfb6634a4bcdc61da5b1bafd1f3d136" target="_top" xlink:title=" ">
<polygon fill="none" stroke="black" points="2017,-1788.09 2017,-1807.09 2181,-1807.09 2181,-1788.09 2017,-1788.09"/>
<text text-anchor="middle" x="2099" y="-1795.09" font-family="Helvetica,sans-Serif" font-size="10.00">SyntaxAnalyzer::syntaxSimpleExpr</text>
</a>
</g>
</g>
<!-- Node19&#45;&gt;Node20 -->
<g id="edge39" class="edge">
<title>Node19&#45;&gt;Node20</title>
<path fill="none" stroke="midnightblue" d="M1913.53,-1564.11C1942.38,-1600.62 2046.17,-1731.99 2084.05,-1779.93"/>
<polygon fill="midnightblue" stroke="midnightblue" points="2081.37,-1782.19 2090.32,-1787.86 2086.86,-1777.85 2081.37,-1782.19"/>
</g>
<!-- Node20&#45;&gt;Node2 -->
<g id="edge42" class="edge">
<title>Node20&#45;&gt;Node2</title>
<path fill="none" stroke="midnightblue" d="M2154.67,-1788.05C2174.29,-1784.81 2196.6,-1781.31 2217,-1778.59 2406.08,-1753.32 2920.15,-1780.34 3067,-1658.59 3129.33,-1606.91 3160.42,-1510.26 3171.33,-1469.03"/>
<polygon fill="midnightblue" stroke="midnightblue" points="3174.77,-1469.72 3173.83,-1459.17 3167.98,-1468 3174.77,-1469.72"/>
</g>
<!-- Node20&#45;&gt;Node4 -->
<g id="edge40" class="edge">
<title>Node20&#45;&gt;Node4</title>
<path fill="none" stroke="midnightblue" d="M2169.17,-1807.11C2173.28,-1808.68 2177.26,-1810.49 2181,-1812.59 2201.87,-1824.27 2196.66,-1840 2217,-1852.59 2270.73,-1885.84 2299.85,-1858.02 2354,-1890.59 2373.94,-1902.58 2370.19,-1916.38 2390,-1928.59 2446.5,-1963.4 2475.31,-1938.78 2533,-1971.59 2551.87,-1982.32 2551.5,-1991.75 2569,-2004.59 2630.66,-2049.8 2663.67,-2036.78 2718,-2090.59 2740.37,-2112.74 2729.53,-2131.78 2754,-2151.59 2811.56,-2198.2 2844.17,-2174.84 2912,-2204.59 2936.79,-2215.46 2963.72,-2230.64 2982.47,-2241.79"/>
<polygon fill="midnightblue" stroke="midnightblue" points="2980.84,-2244.9 2991.22,-2247.06 2984.45,-2238.9 2980.84,-2244.9"/>
</g>
<!-- Node20&#45;&gt;Node6 -->
<g id="edge43" class="edge">
<title>Node20&#45;&gt;Node6</title>
<path fill="none" stroke="midnightblue" d="M2152.99,-1807.15C2204.69,-1816.93 2285.35,-1833.38 2354,-1852.59 2662.32,-1938.86 3026.83,-2069.25 3140.42,-2110.56"/>
<polygon fill="midnightblue" stroke="midnightblue" points="3139.41,-2113.92 3150.01,-2114.05 3141.81,-2107.34 3139.41,-2113.92"/>
</g>
<!-- Node20&#45;&gt;Node8 -->
<g id="edge41" class="edge">
<title>Node20&#45;&gt;Node8</title>
<path fill="none" stroke="midnightblue" d="M2104,-1787.98C2129.75,-1725.78 2273.72,-1373.31 2354,-1074.59 2376.31,-991.58 2336.07,-951.51 2390,-884.59 2417.5,-850.46 2712.3,-746.08 2754,-732.59 2822.72,-710.35 2844.65,-720.67 2912,-694.59 2937.54,-684.69 2964.75,-669.13 2983.38,-657.6"/>
<polygon fill="midnightblue" stroke="midnightblue" points="2985.44,-660.44 2992.04,-652.15 2981.71,-654.52 2985.44,-660.44"/>
</g>
<!-- Node20&#45;&gt;Node10 -->
<g id="edge44" class="edge">
<title>Node20&#45;&gt;Node10</title>
<path fill="none" stroke="midnightblue" d="M2109.8,-1807.31C2128.92,-1825.82 2173.16,-1866.39 2217,-1890.59 2273.49,-1921.76 2297.35,-1907.71 2354,-1938.59 2371.8,-1948.29 2372.16,-1956.97 2390,-1966.59 2404.33,-1974.31 2421.62,-1980.25 2435.49,-1984.28"/>
<polygon fill="midnightblue" stroke="midnightblue" points="2434.75,-1987.71 2445.32,-1986.99 2436.61,-1980.96 2434.75,-1987.71"/>
</g>
<!-- Node21 -->
<g id="node21" class="node">
<title>Node21</title>
<g id="a_node21"><a xlink:href="../../d0/dfe/class_syntax_analyzer.html#a1e9b913cc8c2861927d7c05d10f1822d" target="_top" xlink:title=" ">
<polygon fill="none" stroke="black" points="2217,-1788.09 2217,-1807.09 2354,-1807.09 2354,-1788.09 2217,-1788.09"/>
<text text-anchor="middle" x="2285.5" y="-1795.09" font-family="Helvetica,sans-Serif" font-size="10.00">SyntaxAnalyzer::syntaxTerm</text>
</a>
</g>
</g>
<!-- Node20&#45;&gt;Node21 -->
<g id="edge45" class="edge">
<title>Node20&#45;&gt;Node21</title>
<path fill="none" stroke="midnightblue" d="M2181.19,-1797.59C2189.65,-1797.59 2198.23,-1797.59 2206.64,-1797.59"/>
<polygon fill="midnightblue" stroke="midnightblue" points="2206.81,-1801.09 2216.81,-1797.59 2206.81,-1794.09 2206.81,-1801.09"/>
</g>
<!-- Node21&#45;&gt;Node2 -->
<g id="edge48" class="edge">
<title>Node21&#45;&gt;Node2</title>
<path fill="none" stroke="midnightblue" d="M2354.18,-1796.58C2533.42,-1793.34 3010.61,-1780.82 3067,-1738.59 3156.17,-1671.81 3172.4,-1523.08 3175.35,-1469.39"/>
<polygon fill="midnightblue" stroke="midnightblue" points="3178.85,-1469.33 3175.8,-1459.18 3171.86,-1469.01 3178.85,-1469.33"/>
</g>
<!-- Node21&#45;&gt;Node4 -->
<g id="edge46" class="edge">
<title>Node21&#45;&gt;Node4</title>
<path fill="none" stroke="midnightblue" d="M2315.57,-1807.17C2327.8,-1811.72 2341.96,-1817.68 2354,-1824.59 2371.58,-1834.67 2373.28,-1841.12 2390,-1852.59 2530.8,-1949.17 2596.12,-1933.01 2718,-2052.59 2739.12,-2073.31 2730.91,-2090.08 2754,-2108.59 2812.37,-2155.37 2848.48,-2127.08 2912,-2166.59 2944.32,-2186.69 2974.92,-2219.17 2992.13,-2239.12"/>
<polygon fill="midnightblue" stroke="midnightblue" points="2989.53,-2241.46 2998.66,-2246.83 2994.87,-2236.94 2989.53,-2241.46"/>
</g>
<!-- Node21&#45;&gt;Node6 -->
<g id="edge49" class="edge">
<title>Node21&#45;&gt;Node6</title>
<path fill="none" stroke="midnightblue" d="M2354.16,-1804.18C2495.69,-1820.49 2829.5,-1872.23 3067,-2014.59 3107.5,-2038.86 3143.96,-2081.46 3162.7,-2105.59"/>
<polygon fill="midnightblue" stroke="midnightblue" points="3160.15,-2108.01 3168.99,-2113.85 3165.72,-2103.78 3160.15,-2108.01"/>
</g>
<!-- Node21&#45;&gt;Node8 -->
<g id="edge47" class="edge">
<title>Node21&#45;&gt;Node8</title>
<path fill="none" stroke="midnightblue" d="M2287.81,-1787.78C2294.91,-1734.71 2329.29,-1476.28 2354,-1264.59 2362.73,-1189.78 2341.91,-985.55 2390,-927.59 2432.38,-876.51 2476.5,-919.4 2533,-884.59 2552.81,-872.38 2548.94,-858.37 2569,-846.59 2627.93,-811.97 2659.07,-843.2 2718,-808.59 2738.06,-796.8 2733.86,-782.23 2754,-770.59 2816.53,-734.44 2848.57,-767.12 2912,-732.59 2945.78,-714.2 2976.31,-680.62 2993.05,-660.09"/>
<polygon fill="midnightblue" stroke="midnightblue" points="2995.86,-662.17 2999.35,-652.17 2990.39,-657.82 2995.86,-662.17"/>
</g>
<!-- Node21&#45;&gt;Node10 -->
<g id="edge50" class="edge">
<title>Node21&#45;&gt;Node10</title>
<path fill="none" stroke="midnightblue" d="M2295.13,-1807.16C2322.79,-1837.83 2409.48,-1934 2445.05,-1973.45"/>
<polygon fill="midnightblue" stroke="midnightblue" points="2442.52,-1975.87 2451.82,-1980.96 2447.72,-1971.19 2442.52,-1975.87"/>
</g>
<!-- Node22 -->
<g id="node22" class="node">
<title>Node22</title>
<g id="a_node22"><a xlink:href="../../d0/dfe/class_syntax_analyzer.html#a3af9b5161a2cef6fdd26b0bb60334ac4" target="_top" xlink:title=" ">
<polygon fill="none" stroke="black" points="2390,-1185.09 2390,-1204.09 2533,-1204.09 2533,-1185.09 2390,-1185.09"/>
<text text-anchor="middle" x="2461.5" y="-1192.09" font-family="Helvetica,sans-Serif" font-size="10.00">SyntaxAnalyzer::syntaxFactor</text>
</a>
</g>
</g>
<!-- Node21&#45;&gt;Node22 -->
<g id="edge51" class="edge">
<title>Node21&#45;&gt;Node22</title>
<path fill="none" stroke="midnightblue" d="M2289.37,-1787.62C2309.35,-1718.39 2427.48,-1309.03 2454.84,-1214.2"/>
<polygon fill="midnightblue" stroke="midnightblue" points="2458.24,-1215.03 2457.65,-1204.45 2451.52,-1213.09 2458.24,-1215.03"/>
</g>
<!-- Node22&#45;&gt;Node2 -->
<g id="edge58" class="edge">
<title>Node22&#45;&gt;Node2</title>
<path fill="none" stroke="midnightblue" d="M2533.27,-1191.45C2673.76,-1186.56 2981.66,-1183 3067,-1240.59 3134.57,-1286.18 3162.98,-1387.36 3172.26,-1430.02"/>
<polygon fill="midnightblue" stroke="midnightblue" points="3168.87,-1430.88 3174.31,-1439.97 3175.72,-1429.47 3168.87,-1430.88"/>
</g>
<!-- Node22&#45;&gt;Node4 -->
<g id="edge52" class="edge">
<title>Node22&#45;&gt;Node4</title>
<path fill="none" stroke="midnightblue" d="M2463.24,-1204.17C2468.73,-1273.9 2504.86,-1703.44 2569,-1814.59 2612.06,-1889.21 2670.73,-1866.56 2718,-1938.59 2749.25,-1986.21 2716.13,-2019.04 2754,-2061.59 2804.71,-2118.57 2852.12,-2081.34 2912,-2128.59 2951.21,-2159.52 2982.17,-2210.6 2996.98,-2237.95"/>
<polygon fill="midnightblue" stroke="midnightblue" points="2993.92,-2239.66 3001.69,-2246.86 3000.11,-2236.39 2993.92,-2239.66"/>
</g>
<!-- Node22&#45;&gt;Node5 -->
<g id="edge57" class="edge">
<title>Node22&#45;&gt;Node5</title>
<path fill="none" stroke="midnightblue" d="M2481.58,-1184.9C2580.09,-1134.92 3030.95,-906.18 3148.11,-846.73"/>
<polygon fill="midnightblue" stroke="midnightblue" points="3149.85,-849.78 3157.19,-842.13 3146.69,-843.53 3149.85,-849.78"/>
</g>
<!-- Node22&#45;&gt;Node6 -->
<g id="edge59" class="edge">
<title>Node22&#45;&gt;Node6</title>
<path fill="none" stroke="midnightblue" d="M2462.21,-1204.33C2461.24,-1253.72 2462.96,-1479.21 2569,-1611.59 2723.96,-1805.03 2897.92,-1681.36 3067,-1862.59 3134.93,-1935.39 3163.63,-2056.62 3172.63,-2103.88"/>
<polygon fill="midnightblue" stroke="midnightblue" points="3169.24,-2104.77 3174.47,-2113.99 3176.13,-2103.52 3169.24,-2104.77"/>
</g>
<!-- Node22&#45;&gt;Node8 -->
<g id="edge53" class="edge">
<title>Node22&#45;&gt;Node8</title>
<path fill="none" stroke="midnightblue" d="M2469.25,-1184.9C2498.57,-1143.45 2619.39,-978.92 2754,-884.59 2816.61,-840.71 2855.54,-868.13 2912,-816.59 2960.55,-772.27 2989.3,-697.08 3000.74,-661.86"/>
<polygon fill="midnightblue" stroke="midnightblue" points="3004.08,-662.88 3003.73,-652.29 2997.4,-660.79 3004.08,-662.88"/>
</g>
<!-- Node22&#45;&gt;Node16 -->
<g id="edge60" class="edge">
<title>Node22&#45;&gt;Node16</title>
<path fill="none" stroke="midnightblue" d="M2465.64,-1185.04C2475.89,-1153.74 2509.08,-1051.33 2533,-965.59 2577.72,-805.3 2623.74,-609.6 2638.01,-548.06"/>
<polygon fill="midnightblue" stroke="midnightblue" points="2641.45,-548.7 2640.3,-538.17 2634.63,-547.12 2641.45,-548.7"/>
</g>
<!-- Node22&#45;&gt;Node19 -->
<g id="edge67" class="edge">
<title>Node22&#45;&gt;Node19</title>
<path fill="none" stroke="midnightblue" d="M2443.45,-1204.22C2429.02,-1212.49 2407.89,-1224.9 2390,-1236.59 2219.5,-1347.9 2180.29,-1380.95 2017,-1502.59 2000.74,-1514.7 1998.93,-1521.13 1981,-1530.59 1972.74,-1534.94 1963.55,-1538.68 1954.51,-1541.82"/>
<polygon fill="midnightblue" stroke="midnightblue" points="1953.23,-1538.56 1944.82,-1545 1955.41,-1545.21 1953.23,-1538.56"/>
</g>
<!-- Node22&#45;&gt;Node22 -->
<g id="edge68" class="edge">
<title>Node22&#45;&gt;Node22</title>
<path fill="none" stroke="midnightblue" d="M2434.37,-1204.34C2421.18,-1213.15 2430.22,-1222.59 2461.5,-1222.59 2483.01,-1222.59 2494,-1218.13 2494.48,-1212.48"/>
<polygon fill="midnightblue" stroke="midnightblue" points="2497.31,-1210.41 2488.63,-1204.34 2491.63,-1214.5 2497.31,-1210.41"/>
</g>
<!-- Node23 -->
<g id="node23" class="node">
<title>Node23</title>
<g id="a_node23"><a xlink:href="../../d0/dfe/class_syntax_analyzer.html#a9952c4a2db0a1382b9c94f40dd535fae" target="_top" xlink:title="Пропускает текущий токен, если он указанного типа. Иначе выбрасывается исключение">
<polygon fill="none" stroke="black" points="2948.5,-1146.09 2948.5,-1165.09 3066.5,-1165.09 3066.5,-1146.09 2948.5,-1146.09"/>
<text text-anchor="middle" x="3007.5" y="-1153.09" font-family="Helvetica,sans-Serif" font-size="10.00">SyntaxAnalyzer::eatAdv</text>
</a>
</g>
</g>
<!-- Node22&#45;&gt;Node23 -->
<g id="edge54" class="edge">
<title>Node22&#45;&gt;Node23</title>
<path fill="none" stroke="midnightblue" d="M2485.7,-1184.97C2506.95,-1176.69 2539.49,-1165.35 2569,-1160.59 2698.16,-1139.71 2851.58,-1144.66 2938.13,-1150.14"/>
<polygon fill="midnightblue" stroke="midnightblue" points="2938.14,-1153.65 2948.35,-1150.81 2938.6,-1146.66 2938.14,-1153.65"/>
</g>
<!-- Node22&#45;&gt;Node24 -->
<g id="edge61" class="edge">
<title>Node22&#45;&gt;Node24</title>
<path fill="none" stroke="midnightblue" d="M2525.6,-1204.15C2590.3,-1213.95 2690.83,-1229.19 2758.94,-1239.51"/>
<polygon fill="midnightblue" stroke="midnightblue" points="2758.75,-1243.02 2769.16,-1241.06 2759.8,-1236.1 2758.75,-1243.02"/>
</g>
<!-- Node22&#45;&gt;Node25 -->
<g id="edge69" class="edge">
<title>Node22&#45;&gt;Node25</title>
<path fill="none" stroke="midnightblue" d="M2472.69,-1204.21C2502.15,-1232.03 2587.64,-1312.77 2624.85,-1347.92"/>
<polygon fill="midnightblue" stroke="midnightblue" points="2622.75,-1350.74 2632.42,-1355.06 2627.55,-1345.65 2622.75,-1350.74"/>
</g>
<!-- Node22&#45;&gt;Node26 -->
<g id="edge80" class="edge">
<title>Node22&#45;&gt;Node26</title>
<path fill="none" stroke="midnightblue" d="M2484.16,-1204.17C2505.42,-1213.27 2538.94,-1226.84 2569,-1235.59 2632.44,-1254.05 2706.33,-1268.32 2759.61,-1277.38"/>
<polygon fill="midnightblue" stroke="midnightblue" points="2759.2,-1280.86 2769.64,-1279.07 2760.36,-1273.96 2759.2,-1280.86"/>
</g>
<!-- Node23&#45;&gt;Node2 -->
<g id="edge55" class="edge">
<title>Node23&#45;&gt;Node2</title>
<path fill="none" stroke="midnightblue" d="M3026.06,-1165.09C3038.82,-1172.73 3055.76,-1184.5 3067,-1198.59 3126.54,-1273.23 3159.77,-1385.36 3171.31,-1430.12"/>
<polygon fill="midnightblue" stroke="midnightblue" points="3167.95,-1431.14 3173.78,-1439.99 3174.74,-1429.44 3167.95,-1431.14"/>
</g>
<!-- Node23&#45;&gt;Node9 -->
<g id="edge56" class="edge">
<title>Node23&#45;&gt;Node9</title>
<path fill="none" stroke="midnightblue" d="M3009.79,-1145.85C3015.61,-1104.04 3041.86,-936.25 3103,-813.59 3117.97,-783.56 3143.05,-753.66 3159.57,-735.64"/>
<polygon fill="midnightblue" stroke="midnightblue" points="3162.21,-737.94 3166.48,-728.24 3157.1,-733.16 3162.21,-737.94"/>
</g>
<!-- Node24&#45;&gt;Node2 -->
<g id="edge64" class="edge">
<title>Node24&#45;&gt;Node2</title>
<path fill="none" stroke="midnightblue" d="M2903.64,-1243.94C2952.86,-1242.63 3018.46,-1248.05 3067,-1278.59 3124.5,-1314.75 3157.25,-1393.55 3169.89,-1430.16"/>
<polygon fill="midnightblue" stroke="midnightblue" points="3166.58,-1431.3 3173.05,-1439.69 3173.22,-1429.1 3166.58,-1431.3"/>
</g>
<!-- Node24&#45;&gt;Node4 -->
<g id="edge62" class="edge">
<title>Node24&#45;&gt;Node4</title>
<path fill="none" stroke="midnightblue" d="M2900.53,-1260.16C2904.81,-1262.69 2908.72,-1265.79 2912,-1269.59 2944.95,-1307.64 2996.59,-2100.32 3005.25,-2236.7"/>
<polygon fill="midnightblue" stroke="midnightblue" points="3001.77,-2237.15 3005.89,-2246.91 3008.76,-2236.71 3001.77,-2237.15"/>
</g>
<!-- Node24&#45;&gt;Node8 -->
<g id="edge63" class="edge">
<title>Node24&#45;&gt;Node8</title>
<path fill="none" stroke="midnightblue" d="M2852.72,-1241.01C2870.94,-1230.66 2897.88,-1212.39 2912,-1188.59 2966.83,-1096.13 2997.94,-749.04 3004.97,-662.32"/>
<polygon fill="midnightblue" stroke="midnightblue" points="3008.46,-662.51 3005.77,-652.26 3001.48,-661.95 3008.46,-662.51"/>
</g>
<!-- Node24&#45;&gt;Node11 -->
<g id="edge65" class="edge">
<title>Node24&#45;&gt;Node11</title>
<path fill="none" stroke="midnightblue" d="M2894.47,-1260.22C2900.71,-1262.67 2906.69,-1265.74 2912,-1269.59 2959.26,-1303.81 2988.03,-1369.6 3000.01,-1402.24"/>
<polygon fill="midnightblue" stroke="midnightblue" points="2996.81,-1403.68 3003.43,-1411.95 3003.41,-1401.35 2996.81,-1403.68"/>
</g>
<!-- Node24&#45;&gt;Node19 -->
<g id="edge66" class="edge">
<title>Node24&#45;&gt;Node19</title>
<path fill="none" stroke="midnightblue" d="M2789.72,-1260.18C2778.09,-1263.01 2765.51,-1266.25 2754,-1269.59 2405.74,-1370.59 2325.47,-1417.33 1981,-1530.59 1969.65,-1534.32 1957.31,-1538.3 1945.97,-1541.92"/>
<polygon fill="midnightblue" stroke="midnightblue" points="1944.79,-1538.63 1936.32,-1545 1946.91,-1545.3 1944.79,-1538.63"/>
</g>
<!-- Node25&#45;&gt;Node2 -->
<g id="edge72" class="edge">
<title>Node25&#45;&gt;Node2</title>
<path fill="none" stroke="midnightblue" d="M2715.18,-1359.98C2769.27,-1357.57 2845.61,-1356.57 2912,-1364.59 2982.42,-1373.09 2999.76,-1380.02 3067,-1402.59 3094.79,-1411.91 3125.34,-1425.38 3147.01,-1435.51"/>
<polygon fill="midnightblue" stroke="midnightblue" points="3145.76,-1438.79 3156.3,-1439.9 3148.76,-1432.47 3145.76,-1438.79"/>
</g>
<!-- Node25&#45;&gt;Node4 -->
<g id="edge70" class="edge">
<title>Node25&#45;&gt;Node4</title>
<path fill="none" stroke="midnightblue" d="M2648.12,-1374.09C2659.25,-1403.5 2693.73,-1495.74 2718,-1573.59 2736.1,-1631.64 2731.66,-1649.03 2754,-1705.59 2809.22,-1845.38 2850.38,-1867.5 2912,-2004.59 2950.07,-2089.27 2985.97,-2194.31 3000.14,-2237.09"/>
<polygon fill="midnightblue" stroke="midnightblue" points="2996.88,-2238.39 3003.33,-2246.79 3003.53,-2236.2 2996.88,-2238.39"/>
</g>
<!-- Node25&#45;&gt;Node8 -->
<g id="edge71" class="edge">
<title>Node25&#45;&gt;Node8</title>
<path fill="none" stroke="midnightblue" d="M2649.65,-1354.77C2665.15,-1325.25 2712.87,-1234.76 2754,-1160.59 2822.54,-1036.97 2851.02,-1012.1 2912,-884.59 2950.41,-804.28 2985.76,-703.96 2999.94,-662.22"/>
<polygon fill="midnightblue" stroke="midnightblue" points="3003.35,-663.08 3003.22,-652.49 2996.71,-660.85 3003.35,-663.08"/>
</g>
<!-- Node25&#45;&gt;Node11 -->
<g id="edge73" class="edge">
<title>Node25&#45;&gt;Node11</title>
<path fill="none" stroke="midnightblue" d="M2715.05,-1366.18C2769.4,-1368.55 2846.14,-1374.36 2912,-1388.59 2933.35,-1393.2 2956.53,-1401.24 2974.58,-1408.23"/>
<polygon fill="midnightblue" stroke="midnightblue" points="2973.45,-1411.55 2984.04,-1411.98 2976.03,-1405.04 2973.45,-1411.55"/>
</g>
<!-- Node25&#45;&gt;Node19 -->
<g id="edge74" class="edge">
<title>Node25&#45;&gt;Node19</title>
<path fill="none" stroke="midnightblue" d="M2630.81,-1374.11C2593.37,-1403.93 2472.02,-1495.65 2354,-1530.59 2227.79,-1567.95 2072.99,-1566.44 1982.34,-1561.1"/>
<polygon fill="midnightblue" stroke="midnightblue" points="1982.35,-1557.6 1972.15,-1560.47 1981.92,-1564.58 1982.35,-1557.6"/>
</g>
<!-- Node25&#45;&gt;Node26 -->
<g id="edge75" class="edge">
<title>Node25&#45;&gt;Node26</title>
<path fill="none" stroke="midnightblue" d="M2682.16,-1355.03C2693.99,-1351.31 2706.86,-1346.51 2718,-1340.59 2735.9,-1331.08 2736.02,-1321.94 2754,-1312.59 2762.58,-1308.12 2772.14,-1304.33 2781.53,-1301.17"/>
<polygon fill="midnightblue" stroke="midnightblue" points="2782.74,-1304.46 2791.22,-1298.11 2780.63,-1297.79 2782.74,-1304.46"/>
</g>
<!-- Node26&#45;&gt;Node2 -->
<g id="edge78" class="edge">
<title>Node26&#45;&gt;Node2</title>
<path fill="none" stroke="midnightblue" d="M2908.14,-1281.95C2956.22,-1280.96 3018.66,-1286.14 3067,-1312.59 3116.59,-1339.72 3151.65,-1399.73 3167.13,-1430.53"/>
<polygon fill="midnightblue" stroke="midnightblue" points="3164.1,-1432.31 3171.61,-1439.77 3170.39,-1429.25 3164.1,-1432.31"/>
</g>
<!-- Node26&#45;&gt;Node4 -->
<g id="edge76" class="edge">
<title>Node26&#45;&gt;Node4</title>
<path fill="none" stroke="midnightblue" d="M2836.32,-1298.31C2846.26,-1340.17 2885.95,-1509.32 2912,-1649.59 2954.69,-1879.48 2993.57,-2160.81 3003.86,-2236.86"/>
<polygon fill="midnightblue" stroke="midnightblue" points="3000.41,-2237.47 3005.21,-2246.91 3007.34,-2236.53 3000.41,-2237.47"/>
</g>
<!-- Node26&#45;&gt;Node8 -->
<g id="edge77" class="edge">
<title>Node26&#45;&gt;Node8</title>
<path fill="none" stroke="midnightblue" d="M2899.94,-1279.02C2904.42,-1276.49 2908.52,-1273.39 2912,-1269.59 2933.17,-1246.44 2991.57,-767.37 3004.11,-662.68"/>
<polygon fill="midnightblue" stroke="midnightblue" points="3007.61,-662.87 3005.32,-652.53 3000.66,-662.04 3007.61,-662.87"/>
</g>
<!-- Node26&#45;&gt;Node11 -->
<g id="edge79" class="edge">
<title>Node26&#45;&gt;Node11</title>
<path fill="none" stroke="midnightblue" d="M2846.41,-1298.15C2875.73,-1320.76 2949.56,-1377.69 2985.79,-1405.62"/>
<polygon fill="midnightblue" stroke="midnightblue" points="2983.68,-1408.41 2993.74,-1411.75 2987.96,-1402.87 2983.68,-1408.41"/>
</g>
<!-- Node27&#45;&gt;Node4 -->
<g id="edge86" class="edge">
<title>Node27&#45;&gt;Node4</title>
<path fill="none" stroke="midnightblue" d="M1981.26,-2442.9C2155.89,-2435.3 2583.96,-2422.37 2718,-2470.59 2737.07,-2477.45 2734.83,-2492.01 2754,-2498.59 2820.42,-2521.38 2854.01,-2538.19 2912,-2498.59 2987.86,-2446.77 3002.83,-2324.23 3005.78,-2276.29"/>
<polygon fill="midnightblue" stroke="midnightblue" points="3009.27,-2276.44 3006.28,-2266.28 3002.28,-2276.09 3009.27,-2276.44"/>
</g>
<!-- Node28&#45;&gt;Node2 -->
<g id="edge90" class="edge">
<title>Node28&#45;&gt;Node2</title>
<path fill="none" stroke="midnightblue" d="M1347.23,-1192.85C1353.82,-1112.83 1409.86,-566.59 1712,-566.59 1712,-566.59 1712,-566.59 2286.5,-566.59 2663.12,-566.59 2829.39,-604.38 3067,-896.59 3136.2,-981.69 3167.79,-1341.79 3174.57,-1430.02"/>
<polygon fill="midnightblue" stroke="midnightblue" points="3171.08,-1430.29 3175.32,-1440 3178.06,-1429.77 3171.08,-1430.29"/>
</g>
<!-- Node28&#45;&gt;Node4 -->
<g id="edge88" class="edge">
<title>Node28&#45;&gt;Node4</title>
<path fill="none" stroke="midnightblue" d="M1349.82,-1212.38C1386.7,-1321.15 1721.04,-2300.28 1829,-2378.59 1926.38,-2449.22 1977.7,-2408.59 2098,-2408.59 2098,-2408.59 2098,-2408.59 2462.5,-2408.59 2512.51,-2408.59 2869.05,-2457.21 2912,-2431.59 2969.76,-2397.13 2994.33,-2313.81 3002.78,-2275.92"/>
<polygon fill="midnightblue" stroke="midnightblue" points="3006.21,-2276.62 3004.83,-2266.12 2999.36,-2275.19 3006.21,-2276.62"/>
</g>
<!-- Node28&#45;&gt;Node8 -->
<g id="edge89" class="edge">
<title>Node28&#45;&gt;Node8</title>
<path fill="none" stroke="midnightblue" d="M1347.02,-1192.96C1351.88,-1104.71 1390.5,-438.23 1451,-376.59 1533.11,-292.92 1594.78,-338.59 1712,-338.59 1712,-338.59 1712,-338.59 1906,-338.59 2129.87,-338.59 2731.33,-259.39 2912,-391.59 2988.71,-447.71 3003.17,-573.93 3005.88,-622.76"/>
<polygon fill="midnightblue" stroke="midnightblue" points="3002.39,-623.11 3006.33,-632.94 3009.39,-622.8 3002.39,-623.11"/>
</g>
<!-- Node28&#45;&gt;Node15 -->
<g id="edge99" class="edge">
<title>Node28&#45;&gt;Node15</title>
<path fill="none" stroke="midnightblue" d="M1338.05,-1212.44C1325.87,-1225.02 1298.68,-1244.71 1276,-1261.59 1253.24,-1278.53 1227.69,-1297.94 1208.46,-1311.34"/>
<polygon fill="midnightblue" stroke="midnightblue" points="1206.38,-1308.52 1200.1,-1317.05 1210.33,-1314.3 1206.38,-1308.52"/>
</g>
<!-- Node29 -->
<g id="node29" class="node">
<title>Node29</title>
<g id="a_node29"><a xlink:href="../../d0/dfe/class_syntax_analyzer.html#a931f1efdd45180108ad5c8a3f7fd86b2" target="_top" xlink:title=" ">
<polygon fill="none" stroke="black" points="1459.5,-1179.09 1459.5,-1198.09 1588.5,-1198.09 1588.5,-1179.09 1459.5,-1179.09"/>
<text text-anchor="middle" x="1524" y="-1186.09" font-family="Helvetica,sans-Serif" font-size="10.00">SyntaxAnalyzer::syntaxIter</text>
</a>
</g>
</g>
<!-- Node28&#45;&gt;Node29 -->
<g id="edge91" class="edge">
<title>Node28&#45;&gt;Node29</title>
<path fill="none" stroke="midnightblue" d="M1415.24,-1197.13C1426.36,-1196.25 1437.91,-1195.34 1449.14,-1194.44"/>
<polygon fill="midnightblue" stroke="midnightblue" points="1449.65,-1197.92 1459.35,-1193.64 1449.1,-1190.94 1449.65,-1197.92"/>
</g>
<!-- Node29&#45;&gt;Node2 -->
<g id="edge95" class="edge">
<title>Node29&#45;&gt;Node2</title>
<path fill="none" stroke="midnightblue" d="M1528.78,-1178.68C1540.46,-1149.1 1578.48,-1060.02 1633,-1003.59 1731.95,-901.16 1761.58,-832.59 1904,-832.59 1904,-832.59 1904,-832.59 2286.5,-832.59 2462.26,-832.59 2939.24,-839.88 3067,-960.59 3137.2,-1026.91 3167.63,-1346.09 3174.46,-1429.57"/>
<polygon fill="midnightblue" stroke="midnightblue" points="3170.99,-1430.05 3175.27,-1439.74 3177.97,-1429.49 3170.99,-1430.05"/>
</g>
<!-- Node29&#45;&gt;Node4 -->
<g id="edge92" class="edge">
<title>Node29&#45;&gt;Node4</title>
<path fill="none" stroke="midnightblue" d="M1527.41,-1198.39C1554.72,-1309.24 1805.08,-2323.31 1829,-2343.59 1920.66,-2421.27 1977.84,-2370.59 2098,-2370.59 2098,-2370.59 2098,-2370.59 2462.5,-2370.59 2576.56,-2370.59 2607.01,-2368.33 2718,-2394.59 2734.71,-2398.54 2737.13,-2405.42 2754,-2408.59 2823.02,-2421.53 2850.62,-2442.7 2912,-2408.59 2963.47,-2379.98 2990.52,-2310.44 3001.1,-2276.24"/>
<polygon fill="midnightblue" stroke="midnightblue" points="3004.51,-2277.06 3003.97,-2266.48 2997.79,-2275.08 3004.51,-2277.06"/>
</g>
<!-- Node29&#45;&gt;Node5 -->
<g id="edge94" class="edge">
<title>Node29&#45;&gt;Node5</title>
<path fill="none" stroke="midnightblue" d="M1524.86,-1178.78C1524.43,-1122.35 1527.67,-834.4 1633,-635.59 1891.8,-147.08 2204.01,-152.49 2754,-96.59 2892.4,-82.52 2965.91,-1.02 3067,-96.59 3118.84,-145.59 3078.16,-670.72 3103,-737.59 3114.62,-768.87 3140.34,-798.25 3157.93,-815.83"/>
<polygon fill="midnightblue" stroke="midnightblue" points="3155.75,-818.59 3165.36,-823.04 3160.62,-813.56 3155.75,-818.59"/>
</g>
<!-- Node29&#45;&gt;Node6 -->
<g id="edge96" class="edge">
<title>Node29&#45;&gt;Node6</title>
<path fill="none" stroke="midnightblue" d="M1525.8,-1198.32C1534.9,-1306.51 1622.41,-2283.36 1829,-2465.59 1908.29,-2535.52 2649.02,-2676.11 2754,-2688.59 2892.14,-2705 2964.8,-2782.96 3067,-2688.59 3140.87,-2620.38 3070.93,-2332.88 3103,-2237.59 3115.71,-2199.8 3143.63,-2162.04 3161.02,-2140.86"/>
<polygon fill="midnightblue" stroke="midnightblue" points="3163.79,-2143 3167.54,-2133.09 3158.43,-2138.5 3163.79,-2143"/>
</g>
<!-- Node29&#45;&gt;Node8 -->
<g id="edge93" class="edge">
<title>Node29&#45;&gt;Node8</title>
<path fill="none" stroke="midnightblue" d="M1525.65,-1178.79C1529.05,-1133.63 1548.09,-942.52 1633,-818.59 1754.49,-641.27 1820.11,-610.82 2017,-524.59 2131.05,-474.64 2444.95,-439.29 2569,-428.59 2644.94,-422.03 2848.14,-386.98 2912,-428.59 2980.24,-473.05 2999.56,-579.18 3004.72,-623.07"/>
<polygon fill="midnightblue" stroke="midnightblue" points="3001.25,-623.46 3005.78,-633.04 3008.21,-622.72 3001.25,-623.46"/>
</g>
<!-- Node29&#45;&gt;Node18 -->
<g id="edge97" class="edge">
<title>Node29&#45;&gt;Node18</title>
<path fill="none" stroke="midnightblue" d="M1553.81,-1198.14C1585.93,-1208.79 1638.03,-1226.06 1673.6,-1237.85"/>
<polygon fill="midnightblue" stroke="midnightblue" points="1672.56,-1241.2 1683.16,-1241.02 1674.77,-1234.55 1672.56,-1241.2"/>
</g>
<!-- Node29&#45;&gt;Node22 -->
<g id="edge98" class="edge">
<title>Node29&#45;&gt;Node22</title>
<path fill="none" stroke="midnightblue" d="M1566.81,-1179.05C1636.37,-1164.04 1780.47,-1136.59 1904,-1136.59 1904,-1136.59 1904,-1136.59 2100,-1136.59 2214.71,-1136.59 2347.38,-1165.57 2415.3,-1182.56"/>
<polygon fill="midnightblue" stroke="midnightblue" points="2414.69,-1186.01 2425.24,-1185.07 2416.41,-1179.23 2414.69,-1186.01"/>
</g>
<!-- Node30&#45;&gt;Node2 -->
<g id="edge103" class="edge">
<title>Node30&#45;&gt;Node2</title>
<path fill="none" stroke="midnightblue" d="M1715.19,-1611.36C1722.83,-1672.48 1766.5,-2002.05 1829,-2078.59 1931,-2203.49 2020.17,-2178.4 2181,-2166.59 2595.62,-2136.13 2800.5,-2185.67 3067,-1866.59 3169.72,-1743.6 3176.86,-1534.58 3176.45,-1469.52"/>
<polygon fill="midnightblue" stroke="midnightblue" points="3179.95,-1469.36 3176.31,-1459.41 3172.95,-1469.46 3179.95,-1469.36"/>
</g>
<!-- Node30&#45;&gt;Node4 -->
<g id="edge101" class="edge">
<title>Node30&#45;&gt;Node4</title>
<path fill="none" stroke="midnightblue" d="M1715.22,-1611.21C1725.79,-1693.97 1801.91,-2283.39 1829,-2308.59 1916.88,-2390.34 1977.97,-2332.59 2098,-2332.59 2098,-2332.59 2098,-2332.59 2462.5,-2332.59 2576.56,-2332.59 2611.97,-2314.56 2718,-2356.59 2736.84,-2364.05 2734.83,-2378.01 2754,-2384.59 2820.42,-2407.38 2849.31,-2416.23 2912,-2384.59 2957.44,-2361.65 2986.43,-2305.41 2999.1,-2275.7"/>
<polygon fill="midnightblue" stroke="midnightblue" points="3002.36,-2276.97 3002.91,-2266.39 2995.88,-2274.33 3002.36,-2276.97"/>
</g>
<!-- Node30&#45;&gt;Node8 -->
<g id="edge102" class="edge">
<title>Node30&#45;&gt;Node8</title>
<path fill="none" stroke="midnightblue" d="M1755.71,-1591.98C1768.48,-1587.72 1782.04,-1581.77 1793,-1573.59 1821.48,-1552.3 1965.43,-1346.56 1981,-1314.59 2006.49,-1262.22 1982.03,-1235.16 2017,-1188.59 2068.69,-1119.76 2117.96,-1144.19 2181,-1085.59 2200.79,-1067.19 2200,-1057.59 2217,-1036.59 2274.63,-965.37 2308.56,-962.13 2354,-882.59 2379.94,-837.19 2352.21,-806.72 2390,-770.59 2437.61,-725.06 2475.56,-763.83 2533,-731.59 2552.19,-720.81 2549.56,-707.89 2569,-697.59 2587.6,-687.72 2733.14,-659.46 2754,-656.59 2819.51,-647.57 2895.34,-644.32 2946.67,-643.17"/>
<polygon fill="midnightblue" stroke="midnightblue" points="2946.99,-646.66 2956.92,-642.96 2946.85,-639.66 2946.99,-646.66"/>
</g>
<!-- Node30&#45;&gt;Node15 -->
<g id="edge105" class="edge">
<title>Node30&#45;&gt;Node15</title>
<path fill="none" stroke="midnightblue" d="M1663.97,-1592C1580.83,-1568.37 1406.48,-1505.82 1276,-1421.59 1241.65,-1399.41 1207.1,-1365.57 1189.83,-1344.48"/>
<polygon fill="midnightblue" stroke="midnightblue" points="1192.4,-1342.08 1183.53,-1336.29 1186.85,-1346.35 1192.4,-1342.08"/>
</g>
<!-- Node30&#45;&gt;Node19 -->
<g id="edge104" class="edge">
<title>Node30&#45;&gt;Node19</title>
<path fill="none" stroke="midnightblue" d="M1752.45,-1592.08C1782.1,-1584.74 1823.3,-1574.55 1855.26,-1566.64"/>
<polygon fill="midnightblue" stroke="midnightblue" points="1856.42,-1569.96 1865.28,-1564.16 1854.73,-1563.17 1856.42,-1569.96"/>
</g>
<!-- Node31&#45;&gt;Node2 -->
<g id="edge109" class="edge">
<title>Node31&#45;&gt;Node2</title>
<path fill="none" stroke="midnightblue" d="M1767.44,-1564.17C1777.29,-1568.29 1786.51,-1574.18 1793,-1582.59 1850.53,-1657.08 1766.15,-1934.53 1829,-2004.59 2039.16,-2238.84 2231.04,-2169.24 2533,-2080.59 2645.02,-2047.7 2648.03,-1987.58 2754,-1938.59 2889.82,-1875.8 2970.31,-1928.78 3067,-1814.59 3157.14,-1708.12 3172.74,-1529.29 3175.44,-1469.64"/>
<polygon fill="midnightblue" stroke="midnightblue" points="3178.94,-1469.48 3175.82,-1459.35 3171.95,-1469.21 3178.94,-1469.48"/>
</g>
<!-- Node31&#45;&gt;Node4 -->
<g id="edge107" class="edge">
<title>Node31&#45;&gt;Node4</title>
<path fill="none" stroke="midnightblue" d="M1768.04,-1564.19C1777.72,-1568.32 1786.72,-1574.2 1793,-1582.59 1879.71,-1698.38 1729.18,-2127.88 1829,-2232.59 1966.04,-2376.34 2529.84,-2261.01 2718,-2324.59 2735.76,-2330.59 2735.95,-2341.51 2754,-2346.59 2821.6,-2365.61 2846.8,-2372.67 2912,-2346.59 2948.08,-2332.16 2978.23,-2296.67 2994.2,-2274.81"/>
<polygon fill="midnightblue" stroke="midnightblue" points="2997.25,-2276.57 3000.15,-2266.38 2991.53,-2272.53 2997.25,-2276.57"/>
</g>
<!-- Node31&#45;&gt;Node8 -->
<g id="edge108" class="edge">
<title>Node31&#45;&gt;Node8</title>
<path fill="none" stroke="midnightblue" d="M1720.98,-1544.9C1753.32,-1500.1 1892.42,-1308.94 2017,-1160.59 2159.62,-990.75 2214.08,-964.65 2354,-792.59 2371.28,-771.34 2368.01,-758.91 2390,-742.59 2443.95,-702.55 2473.62,-725.02 2533,-693.59 2550.68,-684.23 2550.76,-674.8 2569,-666.59 2645.54,-632.13 2670.49,-637.07 2754,-628.59 2823.86,-621.49 2841.97,-623.43 2912,-628.59 2923.26,-629.42 2935.21,-630.79 2946.69,-632.37"/>
<polygon fill="midnightblue" stroke="midnightblue" points="2946.23,-635.84 2956.63,-633.8 2947.23,-628.91 2946.23,-635.84"/>
</g>
<!-- Node31&#45;&gt;Node19 -->
<g id="edge110" class="edge">
<title>Node31&#45;&gt;Node19</title>
<path fill="none" stroke="midnightblue" d="M1789.64,-1554.59C1802.09,-1554.59 1815,-1554.59 1827.48,-1554.59"/>
<polygon fill="midnightblue" stroke="midnightblue" points="1827.83,-1558.09 1837.83,-1554.59 1827.83,-1551.09 1827.83,-1558.09"/>
</g>
<!-- Node32&#45;&gt;Node2 -->
<g id="edge114" class="edge">
<title>Node32&#45;&gt;Node2</title>
<path fill="none" stroke="midnightblue" d="M1743.51,-1317.06C1920.74,-1260.6 2843.56,-977.8 3067,-1136.59 3165.51,-1206.59 3175.75,-1372.41 3176.25,-1429.71"/>
<polygon fill="midnightblue" stroke="midnightblue" points="3172.75,-1429.93 3176.24,-1439.93 3179.75,-1429.94 3172.75,-1429.93"/>
</g>
<!-- Node32&#45;&gt;Node4 -->
<g id="edge112" class="edge">
<title>Node32&#45;&gt;Node4</title>
<path fill="none" stroke="midnightblue" d="M1718.86,-1336.28C1733.23,-1365.48 1775.64,-1455.6 1793,-1535.59 1818.74,-1654.2 1757.86,-1982.25 1829,-2080.59 1881.83,-2153.61 1930.73,-2130.52 2017,-2156.59 2321.47,-2248.57 2406.97,-2234.09 2718,-2300.59 2734.03,-2304.01 2737.71,-2306.8 2754,-2308.59 2823.8,-2316.25 2843.99,-2326.06 2912,-2308.59 2939.43,-2301.54 2967.44,-2284.67 2985.76,-2272.04"/>
<polygon fill="midnightblue" stroke="midnightblue" points="2987.8,-2274.88 2993.93,-2266.24 2983.75,-2269.17 2987.8,-2274.88"/>
</g>
<!-- Node32&#45;&gt;Node8 -->
<g id="edge113" class="edge">
<title>Node32&#45;&gt;Node8</title>
<path fill="none" stroke="midnightblue" d="M1728.41,-1317.04C1744.58,-1306.14 1771.37,-1287.49 1793,-1269.59 2074.42,-1036.64 2078.01,-894.63 2390,-704.59 2447.5,-669.56 2481.39,-697.83 2533,-654.59 2558.02,-633.63 2540.83,-607.06 2569,-590.59 2634.8,-552.11 2838.18,-571.62 2912,-590.59 2939.43,-597.64 2967.44,-614.51 2985.76,-627.13"/>
<polygon fill="midnightblue" stroke="midnightblue" points="2983.75,-630 2993.93,-632.93 2987.8,-624.29 2983.75,-630"/>
</g>
<!-- Node32&#45;&gt;Node15 -->
<g id="edge116" class="edge">
<title>Node32&#45;&gt;Node15</title>
<path fill="none" stroke="midnightblue" d="M1638.5,-1331.41C1536.14,-1333.99 1351.85,-1333.98 1250.38,-1331.37"/>
<polygon fill="midnightblue" stroke="midnightblue" points="1250.31,-1327.87 1240.22,-1331.1 1250.12,-1334.87 1250.31,-1327.87"/>
</g>
<!-- Node32&#45;&gt;Node19 -->
<g id="edge115" class="edge">
<title>Node32&#45;&gt;Node19</title>
<path fill="none" stroke="midnightblue" d="M1721.92,-1336.09C1750.95,-1370.93 1851.79,-1491.93 1889.56,-1537.26"/>
<polygon fill="midnightblue" stroke="midnightblue" points="1886.95,-1539.6 1896.04,-1545.04 1892.33,-1535.12 1886.95,-1539.6"/>
</g>
<!-- Node33&#45;&gt;Node2 -->
<g id="edge119" class="edge">
<title>Node33&#45;&gt;Node2</title>
<path fill="none" stroke="midnightblue" d="M1597.13,-387.26C1866.29,-356.87 2802.27,-257.38 2912,-330.59 3034.55,-412.35 3022.21,-483.24 3067,-623.59 3079.74,-663.51 3158.76,-1308.2 3173.6,-1429.87"/>
<polygon fill="midnightblue" stroke="midnightblue" points="3170.15,-1430.47 3174.83,-1439.97 3177.09,-1429.62 3170.15,-1430.47"/>
</g>
<!-- Node33&#45;&gt;Node8 -->
<g id="edge118" class="edge">
<title>Node33&#45;&gt;Node8</title>
<path fill="none" stroke="midnightblue" d="M1597.31,-395.31C1880.36,-394.27 2898.32,-391.21 2912,-400.59 2987.76,-452.54 3002.79,-575 3005.77,-622.9"/>
<polygon fill="midnightblue" stroke="midnightblue" points="3002.27,-623.1 3006.27,-632.9 3009.26,-622.74 3002.27,-623.1"/>
</g>
<!-- Node34 -->
<g id="node34" class="node">
<title>Node34</title>
<g id="a_node34"><a xlink:href="../../d0/dfe/class_syntax_analyzer.html#adad79b2219ae143b49203a836713bec9" target="_top" xlink:title=" ">
<polygon fill="none" stroke="black" points="1633,-1013.09 1633,-1032.09 1793,-1032.09 1793,-1013.09 1633,-1013.09"/>
<text text-anchor="middle" x="1713" y="-1020.09" font-family="Helvetica,sans-Serif" font-size="10.00">SyntaxAnalyzer::syntaxConstDecl</text>
</a>
</g>
</g>
<!-- Node33&#45;&gt;Node34 -->
<g id="edge120" class="edge">
<title>Node33&#45;&gt;Node34</title>
<path fill="none" stroke="midnightblue" d="M1527.94,-405.44C1549.01,-476.09 1677.17,-905.8 1706.17,-1003.04"/>
<polygon fill="midnightblue" stroke="midnightblue" points="1702.86,-1004.18 1709.07,-1012.76 1709.57,-1002.18 1702.86,-1004.18"/>
</g>
<!-- Node34&#45;&gt;Node2 -->
<g id="edge123" class="edge">
<title>Node34&#45;&gt;Node2</title>
<path fill="none" stroke="midnightblue" d="M1793.01,-1015.31C2051.7,-993.16 2868.08,-937.22 3067,-1092.59 3122.28,-1135.76 3162.01,-1361.19 3172.96,-1429.77"/>
<polygon fill="midnightblue" stroke="midnightblue" points="3169.56,-1430.7 3174.57,-1440.03 3176.48,-1429.61 3169.56,-1430.7"/>
</g>
<!-- Node34&#45;&gt;Node4 -->
<g id="edge121" class="edge">
<title>Node34&#45;&gt;Node4</title>
<path fill="none" stroke="midnightblue" d="M1718.71,-1032.31C1732.68,-1061.61 1774.09,-1151.95 1793,-1231.59 1828.31,-1380.29 1784.93,-1427.24 1829,-1573.59 1881.16,-1746.8 1882.89,-1813.18 2017,-1934.59 2291.94,-2183.47 2762.22,-2240.26 2937.76,-2252.99"/>
<polygon fill="midnightblue" stroke="midnightblue" points="2937.67,-2256.49 2947.89,-2253.69 2938.16,-2249.5 2937.67,-2256.49"/>
</g>
<!-- Node34&#45;&gt;Node8 -->
<g id="edge122" class="edge">
<title>Node34&#45;&gt;Node8</title>
<path fill="none" stroke="midnightblue" d="M1720.91,-1012.95C1737.55,-990.23 1781.96,-932.38 1829,-894.59 1889.51,-845.97 1936.06,-871.87 1981,-808.59 2033.04,-735.3 1954.14,-673.83 2017,-609.59 2180.67,-442.31 2320.36,-602.34 2533,-504.59 2551.42,-496.12 2549.83,-483.16 2569,-476.59 2713.19,-427.11 2780.21,-399.96 2912,-476.59 2967.08,-508.61 2992.71,-586.06 3002.07,-622.72"/>
<polygon fill="midnightblue" stroke="midnightblue" points="2998.73,-623.79 3004.47,-632.69 3005.54,-622.15 2998.73,-623.79"/>
</g>
<!-- Node34&#45;&gt;Node11 -->
<g id="edge124" class="edge">
<title>Node34&#45;&gt;Node11</title>
<path fill="none" stroke="midnightblue" d="M1729.55,-1032.12C1801.65,-1075.87 2111.74,-1259.29 2390,-1350.59 2466.86,-1375.81 2488.83,-1372.74 2569,-1383.59 2702.81,-1401.69 2860.88,-1412.93 2945.59,-1418.14"/>
<polygon fill="midnightblue" stroke="midnightblue" points="2945.61,-1421.65 2955.8,-1418.76 2946.03,-1414.66 2945.61,-1421.65"/>
</g>
<!-- Node34&#45;&gt;Node19 -->
<g id="edge125" class="edge">
<title>Node34&#45;&gt;Node19</title>
<path fill="none" stroke="midnightblue" d="M1717.73,-1032.13C1729.23,-1061.66 1765.1,-1154.23 1793,-1231.59 1834.43,-1346.43 1881.02,-1485.47 1897.67,-1535.51"/>
<polygon fill="midnightblue" stroke="midnightblue" points="1894.36,-1536.65 1900.84,-1545.04 1901,-1534.44 1894.36,-1536.65"/>
</g>
<!-- Node35&#45;&gt;Node2 -->
<g id="edge128" class="edge">
<title>Node35&#45;&gt;Node2</title>
<path fill="none" stroke="midnightblue" d="M2529.15,-944.11C2669.35,-940.35 2988.32,-939.79 3067,-1008.59 3132.37,-1065.74 3165.93,-1350.84 3174.04,-1429.47"/>
<polygon fill="midnightblue" stroke="midnightblue" points="3170.6,-1430.29 3175.08,-1439.89 3177.57,-1429.59 3170.6,-1430.29"/>
</g>
<!-- Node35&#45;&gt;Node8 -->
<g id="edge127" class="edge">
<title>Node35&#45;&gt;Node8</title>
<path fill="none" stroke="midnightblue" d="M2497.89,-937.08C2509.43,-933.33 2522.08,-928.48 2533,-922.59 2550.84,-912.97 2551.08,-904.06 2569,-894.59 2630.51,-862.07 2652.47,-869.95 2718,-846.59 2805.22,-815.49 2838.51,-826.93 2912,-770.59 2951.63,-740.2 2982.42,-688.89 2997.09,-661.37"/>
<polygon fill="midnightblue" stroke="midnightblue" points="3000.25,-662.87 3001.75,-652.39 2994.03,-659.65 3000.25,-662.87"/>
</g>
<!-- Node36 -->
<g id="node36" class="node">
<title>Node36</title>
<g id="a_node36"><a xlink:href="../../d0/dfe/class_syntax_analyzer.html#a8f6dda26a96ec0e5e75bea5eed577856" target="_top" xlink:title=" ">
<polygon fill="none" stroke="black" points="2569,-1583.09 2569,-1602.09 2718,-1602.09 2718,-1583.09 2569,-1583.09"/>
<text text-anchor="middle" x="2643.5" y="-1590.09" font-family="Helvetica,sans-Serif" font-size="10.00">SyntaxAnalyzer::syntaxVarDecl</text>
</a>
</g>
</g>
<!-- Node35&#45;&gt;Node36 -->
<g id="edge129" class="edge">
<title>Node35&#45;&gt;Node36</title>
<path fill="none" stroke="midnightblue" d="M2466.05,-956.51C2477.26,-988.11 2512.37,-1089.42 2533,-1175.59 2554.85,-1266.83 2545.36,-1292.8 2569,-1383.59 2587.62,-1455.07 2619.66,-1536.92 2634.52,-1573.35"/>
<polygon fill="midnightblue" stroke="midnightblue" points="2631.34,-1574.84 2638.38,-1582.76 2637.82,-1572.18 2631.34,-1574.84"/>
</g>
<!-- Node36&#45;&gt;Node2 -->
<g id="edge132" class="edge">
<title>Node36&#45;&gt;Node2</title>
<path fill="none" stroke="midnightblue" d="M2718.26,-1591.33C2772.61,-1588.92 2847.9,-1582.45 2912,-1565.59 3003.76,-1541.44 3104.34,-1489.47 3150.4,-1464.11"/>
<polygon fill="midnightblue" stroke="midnightblue" points="3152.34,-1467.04 3159.38,-1459.12 3148.94,-1460.92 3152.34,-1467.04"/>
</g>
<!-- Node36&#45;&gt;Node4 -->
<g id="edge130" class="edge">
<title>Node36&#45;&gt;Node4</title>
<path fill="none" stroke="midnightblue" d="M2647.23,-1602.38C2657.02,-1637.52 2691.2,-1760.63 2718,-1862.59 2734.55,-1925.56 2714.07,-1953.16 2754,-2004.59 2803.04,-2067.73 2854.93,-2034.59 2912,-2090.59 2956.64,-2134.39 2986.8,-2203.74 2999.58,-2237.23"/>
<polygon fill="midnightblue" stroke="midnightblue" points="2996.36,-2238.6 3003.12,-2246.76 3002.92,-2236.17 2996.36,-2238.6"/>
</g>
<!-- Node36&#45;&gt;Node8 -->
<g id="edge131" class="edge">
<title>Node36&#45;&gt;Node8</title>
<path fill="none" stroke="midnightblue" d="M2648.4,-1582.7C2660.04,-1552.95 2695.15,-1461.46 2718,-1383.59 2737.54,-1316.97 2723.38,-1293.89 2754,-1231.59 2803.2,-1131.48 2862.66,-1136.63 2912,-1036.59 2977.63,-903.51 2999.26,-722.24 3004.85,-662.54"/>
<polygon fill="midnightblue" stroke="midnightblue" points="3008.36,-662.55 3005.76,-652.28 3001.39,-661.93 3008.36,-662.55"/>
</g>
<!-- Node36&#45;&gt;Node11 -->
<g id="edge133" class="edge">
<title>Node36&#45;&gt;Node11</title>
<path fill="none" stroke="midnightblue" d="M2704.83,-1583.07C2772.59,-1571.61 2877.6,-1551.31 2912,-1530.59 2949.88,-1507.77 2980.46,-1464.58 2995.79,-1439.97"/>
<polygon fill="midnightblue" stroke="midnightblue" points="2998.89,-1441.61 3001.07,-1431.24 2992.9,-1437.99 2998.89,-1441.61"/>
</g>
<!-- Node37 -->
<g id="node37" class="node">
<title>Node37</title>
<g id="a_node37"><a xlink:href="../../d0/dfe/class_syntax_analyzer.html#a5d262eb9e2236dde3bd043eea0b0e957" target="_top" xlink:title=" ">
<polygon fill="none" stroke="black" points="2754,-1659.09 2754,-1678.09 2912,-1678.09 2912,-1659.09 2754,-1659.09"/>
<text text-anchor="middle" x="2833" y="-1666.09" font-family="Helvetica,sans-Serif" font-size="10.00">SyntaxAnalyzer::syntaxTypeSpec</text>
</a>
</g>
</g>
<!-- Node36&#45;&gt;Node37 -->
<g id="edge134" class="edge">
<title>Node36&#45;&gt;Node37</title>
<path fill="none" stroke="midnightblue" d="M2668.25,-1602.21C2701.35,-1615.63 2761.52,-1640.02 2798.98,-1655.2"/>
<polygon fill="midnightblue" stroke="midnightblue" points="2797.86,-1658.53 2808.45,-1659.04 2800.49,-1652.04 2797.86,-1658.53"/>
</g>
<!-- Node37&#45;&gt;Node2 -->
<g id="edge138" class="edge">
<title>Node37&#45;&gt;Node2</title>
<path fill="none" stroke="midnightblue" d="M2912.11,-1669.31C2960.46,-1666.22 3021.73,-1655.57 3067,-1624.59 3124.26,-1585.39 3157.31,-1505.2 3169.97,-1468.58"/>
<polygon fill="midnightblue" stroke="midnightblue" points="3173.29,-1469.69 3173.13,-1459.1 3166.65,-1467.48 3173.29,-1469.69"/>
</g>
<!-- Node37&#45;&gt;Node4 -->
<g id="edge135" class="edge">
<title>Node37&#45;&gt;Node4</title>
<path fill="none" stroke="midnightblue" d="M2836.85,-1678.3C2856.63,-1745.74 2973.52,-2144.18 3000.81,-2237.18"/>
<polygon fill="midnightblue" stroke="midnightblue" points="2997.5,-2238.36 3003.68,-2246.97 3004.22,-2236.39 2997.5,-2238.36"/>
</g>
<!-- Node37&#45;&gt;Node6 -->
<g id="edge139" class="edge">
<title>Node37&#45;&gt;Node6</title>
<path fill="none" stroke="midnightblue" d="M2857.4,-1678.22C2903.89,-1698.48 3008.41,-1749.9 3067,-1824.59 3137.22,-1914.11 3165,-2053.08 3173.18,-2104.02"/>
<polygon fill="midnightblue" stroke="midnightblue" points="3169.74,-2104.65 3174.71,-2114.01 3176.66,-2103.59 3169.74,-2104.65"/>
</g>
<!-- Node37&#45;&gt;Node8 -->
<g id="edge136" class="edge">
<title>Node37&#45;&gt;Node8</title>
<path fill="none" stroke="midnightblue" d="M2836.37,-1658.87C2846.5,-1617.04 2886.88,-1448.02 2912,-1307.59 2957.3,-1054.3 2994.71,-743.62 3004.18,-662.64"/>
<polygon fill="midnightblue" stroke="midnightblue" points="3007.7,-662.73 3005.37,-652.39 3000.74,-661.92 3007.7,-662.73"/>
</g>
<!-- Node37&#45;&gt;Node23 -->
<g id="edge137" class="edge">
<title>Node37&#45;&gt;Node23</title>
<path fill="none" stroke="midnightblue" d="M2837.29,-1658.8C2858.09,-1596.96 2971.26,-1260.38 2999.91,-1175.19"/>
<polygon fill="midnightblue" stroke="midnightblue" points="3003.3,-1176.07 3003.17,-1165.48 2996.67,-1173.84 3003.3,-1176.07"/>
</g>
<!-- Node37&#45;&gt;Node37 -->
<g id="edge140" class="edge">
<title>Node37&#45;&gt;Node37</title>
<path fill="none" stroke="midnightblue" d="M2806.18,-1678.34C2793.13,-1687.15 2802.07,-1696.59 2833,-1696.59 2853.78,-1696.59 2864.63,-1692.33 2865.56,-1686.86"/>
<polygon fill="midnightblue" stroke="midnightblue" points="2868.31,-1684.68 2859.82,-1678.34 2862.51,-1688.59 2868.31,-1684.68"/>
</g>
<!-- Node38&#45;&gt;Node2 -->
<g id="edge144" class="edge">
<title>Node38&#45;&gt;Node2</title>
<path fill="none" stroke="midnightblue" d="M450.24,-2494.1C465.38,-2516.38 506.39,-2572.18 555,-2600.59 624.71,-2641.32 651.27,-2632.86 731,-2645.59 949.43,-2680.46 2503.68,-2822.32 2718,-2767.59 2907.22,-2719.26 2985.85,-2678.22 3067,-2500.59 3103.72,-2420.21 3094.11,-2192.5 3103,-2104.59 3128.41,-1853.4 3164.25,-1548.62 3173.66,-1469.24"/>
<polygon fill="midnightblue" stroke="midnightblue" points="3177.15,-1469.54 3174.85,-1459.19 3170.2,-1468.71 3177.15,-1469.54"/>
</g>
<!-- Node38&#45;&gt;Node4 -->
<g id="edge142" class="edge">
<title>Node38&#45;&gt;Node4</title>
<path fill="none" stroke="midnightblue" d="M456.71,-2494.09C502.49,-2527.37 664.28,-2636.59 815.5,-2636.59 815.5,-2636.59 815.5,-2636.59 1178.5,-2636.59 1416.21,-2636.59 1474.29,-2674.59 1712,-2674.59 1712,-2674.59 1712,-2674.59 2462.5,-2674.59 2665.57,-2674.59 2772.06,-2739.74 2912,-2592.59 2972.73,-2528.72 2922.97,-2482.09 2948,-2397.59 2961.35,-2352.49 2984.3,-2302.17 2997.13,-2275.53"/>
<polygon fill="midnightblue" stroke="midnightblue" points="3000.42,-2276.76 3001.65,-2266.24 2994.13,-2273.7 3000.42,-2276.76"/>
</g>
<!-- Node38&#45;&gt;Node6 -->
<g id="edge145" class="edge">
<title>Node38&#45;&gt;Node6</title>
<path fill="none" stroke="midnightblue" d="M445.97,-2494.44C453.32,-2528.28 482.5,-2640.33 555,-2688.59 586.36,-2709.46 1866.33,-2826.59 1904,-2826.59 1904,-2826.59 1904,-2826.59 2462.5,-2826.59 2731.17,-2826.59 2871.31,-3010.68 3067,-2826.59 3114.76,-2781.66 3082.67,-2299.92 3103,-2237.59 3115.3,-2199.88 3143.1,-2162.35 3160.63,-2141.15"/>
<polygon fill="midnightblue" stroke="midnightblue" points="3163.43,-2143.25 3167.22,-2133.36 3158.09,-2138.73 3163.43,-2143.25"/>
</g>
<!-- Node38&#45;&gt;Node8 -->
<g id="edge143" class="edge">
<title>Node38&#45;&gt;Node8</title>
<path fill="none" stroke="midnightblue" d="M444.48,-2474.68C452.5,-2310.04 562.69,-148.59 815.5,-148.59 815.5,-148.59 815.5,-148.59 1525,-148.59 1781.9,-148.59 1841.1,-224.59 2098,-224.59 2098,-224.59 2098,-224.59 2462.5,-224.59 2563.16,-224.59 2836.3,-214.24 2912,-280.59 2964.87,-326.93 2995.9,-553.75 3004.22,-622.68"/>
<polygon fill="midnightblue" stroke="midnightblue" points="3000.79,-623.47 3005.43,-632.99 3007.74,-622.65 3000.79,-623.47"/>
</g>
<!-- Node38&#45;&gt;Node11 -->
<g id="edge146" class="edge">
<title>Node38&#45;&gt;Node11</title>
<path fill="none" stroke="midnightblue" d="M455.82,-2475.05C475.27,-2459.9 515.77,-2430.52 555,-2415.59 664.81,-2373.8 698.01,-2370.59 815.5,-2370.59 815.5,-2370.59 815.5,-2370.59 1009.5,-2370.59 1195.12,-2370.59 1252.95,-2361.11 1415,-2270.59 1742.61,-2087.59 1686.07,-1855.51 2017,-1678.59 2061.79,-1654.64 2865.73,-1513.51 2912,-1492.59 2942,-1479.02 2971.51,-1454.58 2989.36,-1438.21"/>
<polygon fill="midnightblue" stroke="midnightblue" points="2991.8,-1440.72 2996.71,-1431.33 2987.02,-1435.62 2991.8,-1440.72"/>
</g>
<!-- Node38&#45;&gt;Node12 -->
<g id="edge147" class="edge">
<title>Node38&#45;&gt;Node12</title>
<path fill="none" stroke="midnightblue" d="M447.6,-2474.72C469.67,-2414.14 586.87,-2092.48 616.96,-2009.91"/>
<polygon fill="midnightblue" stroke="midnightblue" points="620.26,-2011.07 620.4,-2000.48 613.68,-2008.68 620.26,-2011.07"/>
</g>
<!-- Node38&#45;&gt;Node36 -->
<g id="edge149" class="edge">
<title>Node38&#45;&gt;Node36</title>
<path fill="none" stroke="midnightblue" d="M471.57,-2474.96C532.68,-2454.51 684.49,-2408.59 815.5,-2408.59 815.5,-2408.59 815.5,-2408.59 1525,-2408.59 1647.26,-2408.59 1709.35,-2435.74 1793,-2346.59 1860.19,-2274.97 1790.15,-2218.77 1829,-2128.59 1873.17,-2026.05 1935.62,-2030.6 1981,-1928.59 2015.93,-1850.06 1957.52,-1800.62 2017,-1738.59 2055.99,-1697.92 2423.28,-1630.46 2576.19,-1603.87"/>
<polygon fill="midnightblue" stroke="midnightblue" points="2577.13,-1607.26 2586.39,-1602.1 2575.93,-1600.36 2577.13,-1607.26"/>
</g>
<!-- Node38&#45;&gt;Node37 -->
<g id="edge148" class="edge">
<title>Node38&#45;&gt;Node37</title>
<path fill="none" stroke="midnightblue" d="M519.07,-2484.59C594.11,-2484.59 712.79,-2484.59 815.5,-2484.59 815.5,-2484.59 815.5,-2484.59 1525,-2484.59 1650.93,-2484.59 1705.5,-2483.16 1793,-2392.59 1831.1,-2353.15 1805.74,-2324.24 1829,-2274.59 1881.29,-2162.96 1937.83,-2158.05 1981,-2042.59 2001.73,-1987.13 1975.1,-1820.43 2017,-1778.59 2067.86,-1727.8 2543,-1688.85 2743.46,-1674.54"/>
<polygon fill="midnightblue" stroke="midnightblue" points="2743.93,-1678.01 2753.66,-1673.81 2743.44,-1671.03 2743.93,-1678.01"/>
</g>
</g>
</svg>
