<?xml version="1.0" encoding="UTF-8" standalone="no"?>
<!DOCTYPE svg PUBLIC "-//W3C//DTD SVG 1.1//EN"
 "http://www.w3.org/Graphics/SVG/1.1/DTD/svg11.dtd">
<!-- Generated by graphviz version 3.0.0 (20220413.0106)
 -->
<!-- Title: SyntaxAnalyzer::syntaxWhileSt Pages: 1 -->
<svg width="1766pt" height="1072pt"
 viewBox="0.00 0.00 1766.00 1071.78" xmlns="http://www.w3.org/2000/svg" xmlns:xlink="http://www.w3.org/1999/xlink">
<g id="graph0" class="graph" transform="scale(1 1) rotate(0) translate(4 1067.78)">
<title>SyntaxAnalyzer::syntaxWhileSt</title>
<!-- Node1 -->
<g id="node1" class="node">
<title>Node1</title>
<g id="a_node1"><a xlink:title=" ">
<polygon fill="#bfbfbf" stroke="black" points="0,-775.04 0,-794.04 149,-794.04 149,-775.04 0,-775.04"/>
<text text-anchor="middle" x="74.5" y="-782.04" font-family="Helvetica,sans-Serif" font-size="10.00">SyntaxAnalyzer::syntaxWhileSt</text>
</a>
</g>
</g>
<!-- Node2 -->
<g id="node2" class="node">
<title>Node2</title>
<g id="a_node2"><a xlink:href="../../d0/dfe/class_syntax_analyzer.html#a5d17bcae2fd7dc11d0710e046c4c3280" target="_top" xlink:title=" ">
<polygon fill="none" stroke="black" points="1473,-718.04 1473,-737.04 1574,-737.04 1574,-718.04 1473,-718.04"/>
<text text-anchor="middle" x="1523.5" y="-725.04" font-family="Helvetica,sans-Serif" font-size="10.00">SyntaxAnalyzer::eat</text>
</a>
</g>
</g>
<!-- Node1&#45;&gt;Node2 -->
<g id="edge1" class="edge">
<title>Node1&#45;&gt;Node2</title>
<path fill="none" stroke="midnightblue" d="M81.41,-794.32C111.24,-842.31 250.57,-1050.54 422.5,-1050.54 422.5,-1050.54 422.5,-1050.54 1166.5,-1050.54 1287.61,-1050.54 1344.58,-1095.82 1437,-1017.54 1479.43,-981.61 1510.19,-806.55 1519.53,-747.24"/>
<polygon fill="midnightblue" stroke="midnightblue" points="1523,-747.7 1521.07,-737.28 1516.09,-746.63 1523,-747.7"/>
</g>
<!-- Node6 -->
<g id="node6" class="node">
<title>Node6</title>
<g id="a_node6"><a xlink:href="../../d0/dfe/class_syntax_analyzer.html#a53b0048490647d82a92a77ed1ffb013d" target="_top" xlink:title=" ">
<polygon fill="none" stroke="black" points="537,-429.04 537,-448.04 671,-448.04 671,-429.04 537,-429.04"/>
<text text-anchor="middle" x="604" y="-436.04" font-family="Helvetica,sans-Serif" font-size="10.00">SyntaxAnalyzer::syntaxExpr</text>
</a>
</g>
</g>
<!-- Node1&#45;&gt;Node6 -->
<g id="edge5" class="edge">
<title>Node1&#45;&gt;Node6</title>
<path fill="none" stroke="midnightblue" d="M81.6,-774.79C107.72,-733.93 214.75,-575.09 346,-499.54 401.63,-467.52 473.27,-452.28 526.77,-445.04"/>
<polygon fill="midnightblue" stroke="midnightblue" points="527.4,-448.49 536.88,-443.74 526.51,-441.54 527.4,-448.49"/>
</g>
<!-- Node21 -->
<g id="node21" class="node">
<title>Node21</title>
<g id="a_node21"><a xlink:href="../../d0/dfe/class_syntax_analyzer.html#affae37bc1fa3a4016dcffad4affbfcbd" target="_top" xlink:title=" ">
<polygon fill="none" stroke="black" points="185,-775.04 185,-794.04 310,-794.04 310,-775.04 185,-775.04"/>
<text text-anchor="middle" x="247.5" y="-782.04" font-family="Helvetica,sans-Serif" font-size="10.00">SyntaxAnalyzer::syntaxSt</text>
</a>
</g>
</g>
<!-- Node1&#45;&gt;Node21 -->
<g id="edge42" class="edge">
<title>Node1&#45;&gt;Node21</title>
<path fill="none" stroke="midnightblue" d="M149.01,-777.85C157.51,-777.76 166.16,-777.77 174.64,-777.87"/>
<polygon fill="midnightblue" stroke="midnightblue" points="174.8,-781.37 184.86,-778.03 174.91,-774.37 174.8,-781.37"/>
</g>
<!-- Node3 -->
<g id="node3" class="node">
<title>Node3</title>
<g id="a_node3"><a xlink:href="../../d2/da7/namespacemagic__enum.html#af505522c30c0e3ff627fb3e39b67a6c5" target="_top" xlink:title=" ">
<polygon fill="none" stroke="black" points="1619,-633.04 1619,-652.04 1749,-652.04 1749,-633.04 1619,-633.04"/>
<text text-anchor="middle" x="1684" y="-640.04" font-family="Helvetica,sans-Serif" font-size="10.00">magic_enum::enum_name</text>
</a>
</g>
</g>
<!-- Node2&#45;&gt;Node3 -->
<g id="edge2" class="edge">
<title>Node2&#45;&gt;Node3</title>
<path fill="none" stroke="midnightblue" d="M1542.37,-717.95C1570.08,-703.1 1623.57,-674.41 1656.01,-657.02"/>
<polygon fill="midnightblue" stroke="midnightblue" points="1657.79,-660.03 1664.95,-652.22 1654.48,-653.86 1657.79,-660.03"/>
</g>
<!-- Node4 -->
<g id="node4" class="node">
<title>Node4</title>
<g id="a_node4"><a xlink:href="../../d0/dfe/class_syntax_analyzer.html#a3ae6c7319e61cd669c417f189b098374" target="_top" xlink:title=" ">
<polygon fill="none" stroke="black" points="1618,-547.04 1618,-566.04 1750,-566.04 1750,-547.04 1618,-547.04"/>
<text text-anchor="middle" x="1684" y="-554.04" font-family="Helvetica,sans-Serif" font-size="10.00">SyntaxAnalyzer::getCurTok</text>
</a>
</g>
</g>
<!-- Node2&#45;&gt;Node4 -->
<g id="edge3" class="edge">
<title>Node2&#45;&gt;Node4</title>
<path fill="none" stroke="midnightblue" d="M1537.74,-717.95C1548.36,-709.84 1563.22,-697.49 1574,-684.54 1594.14,-660.35 1590.19,-648 1610,-623.54 1625.62,-604.25 1646.82,-585.42 1662.35,-572.66"/>
<polygon fill="midnightblue" stroke="midnightblue" points="1664.74,-575.23 1670.32,-566.23 1660.34,-569.79 1664.74,-575.23"/>
</g>
<!-- Node5 -->
<g id="node5" class="node">
<title>Node5</title>
<g id="a_node5"><a xlink:href="../../d0/dfe/class_syntax_analyzer.html#a9e41370d8d74fbd2e77648d2071e7dfe" target="_top" xlink:title=" ">
<polygon fill="none" stroke="black" points="1610,-718.04 1610,-737.04 1758,-737.04 1758,-718.04 1610,-718.04"/>
<text text-anchor="middle" x="1684" y="-725.04" font-family="Helvetica,sans-Serif" font-size="10.00">SyntaxAnalyzer::getNextToken</text>
</a>
</g>
</g>
<!-- Node2&#45;&gt;Node5 -->
<g id="edge4" class="edge">
<title>Node2&#45;&gt;Node5</title>
<path fill="none" stroke="midnightblue" d="M1574.22,-727.54C1582.37,-727.54 1591.02,-727.54 1599.72,-727.54"/>
<polygon fill="midnightblue" stroke="midnightblue" points="1599.95,-731.04 1609.95,-727.54 1599.95,-724.04 1599.95,-731.04"/>
</g>
<!-- Node6&#45;&gt;Node2 -->
<g id="edge6" class="edge">
<title>Node6&#45;&gt;Node2</title>
<path fill="none" stroke="midnightblue" d="M616.96,-448.06C635.42,-462.41 672.37,-489.8 707,-507.54 951.42,-632.73 1017.37,-668.45 1287,-720.54 1345.93,-731.92 1414.67,-732.56 1462.62,-731.02"/>
<polygon fill="midnightblue" stroke="midnightblue" points="1462.96,-734.51 1472.83,-730.66 1462.71,-727.52 1462.96,-734.51"/>
</g>
<!-- Node6&#45;&gt;Node4 -->
<g id="edge7" class="edge">
<title>Node6&#45;&gt;Node4</title>
<path fill="none" stroke="midnightblue" d="M604.97,-429C605.38,-385.98 612.9,-208.18 707,-116.54 795.63,-30.23 850.78,-39.54 974.5,-39.54 974.5,-39.54 974.5,-39.54 1363,-39.54 1468.76,-39.54 1507.83,-67.04 1574,-149.54 1671.59,-271.22 1682.23,-472.56 1683.06,-536.44"/>
<polygon fill="midnightblue" stroke="midnightblue" points="1679.56,-536.74 1683.12,-546.72 1686.56,-536.7 1679.56,-536.74"/>
</g>
<!-- Node7 -->
<g id="node7" class="node">
<title>Node7</title>
<g id="a_node7"><a xlink:href="../../d0/d11/class_i_token.html#a568cb9d98839eff3fd758f419a76b092" target="_top" xlink:title="Получение типа токена">
<polygon fill="none" stroke="black" points="1480.5,-281.04 1480.5,-300.04 1566.5,-300.04 1566.5,-281.04 1480.5,-281.04"/>
<text text-anchor="middle" x="1523.5" y="-288.04" font-family="Helvetica,sans-Serif" font-size="10.00">IToken::getType</text>
</a>
</g>
</g>
<!-- Node6&#45;&gt;Node7 -->
<g id="edge8" class="edge">
<title>Node6&#45;&gt;Node7</title>
<path fill="none" stroke="midnightblue" d="M606.34,-428.86C611.77,-393.35 635.37,-268.89 707,-203.54 799.46,-119.19 849.34,-115.54 974.5,-115.54 974.5,-115.54 974.5,-115.54 1166.5,-115.54 1287.02,-115.54 1335.52,-69.53 1437,-134.54 1486.3,-166.12 1509.47,-236.47 1518.17,-270.86"/>
<polygon fill="midnightblue" stroke="midnightblue" points="1514.87,-272.11 1520.59,-281.03 1521.69,-270.49 1514.87,-272.11"/>
</g>
<!-- Node8 -->
<g id="node8" class="node">
<title>Node8</title>
<g id="a_node8"><a xlink:href="../../df/d3f/_syntax_8hpp.html#ae7d62ca130413d4c96863327c1af81a4" target="_top" xlink:title="Возвращает истину, если value находится среди значений cont.">
<polygon fill="none" stroke="black" points="1149.5,-199.04 1149.5,-218.04 1181.5,-218.04 1181.5,-199.04 1149.5,-199.04"/>
<text text-anchor="middle" x="1165.5" y="-206.04" font-family="Helvetica,sans-Serif" font-size="10.00">isIn</text>
</a>
</g>
</g>
<!-- Node6&#45;&gt;Node8 -->
<g id="edge9" class="edge">
<title>Node6&#45;&gt;Node8</title>
<path fill="none" stroke="midnightblue" d="M608,-428.85C617.43,-400.09 649.33,-314.59 707,-272.54 843.22,-173.21 1064.2,-193.85 1138.9,-204.42"/>
<polygon fill="midnightblue" stroke="midnightblue" points="1138.81,-207.94 1149.21,-205.95 1139.84,-201.02 1138.81,-207.94"/>
</g>
<!-- Node11 -->
<g id="node11" class="node">
<title>Node11</title>
<g id="a_node11"><a xlink:href="../../d0/dfe/class_syntax_analyzer.html#a920d9565d4aa2e3815ff9e7146f45a0b" target="_top" xlink:title=" ">
<polygon fill="none" stroke="black" points="707,-282.04 707,-301.04 871,-301.04 871,-282.04 707,-282.04"/>
<text text-anchor="middle" x="789" y="-289.04" font-family="Helvetica,sans-Serif" font-size="10.00">SyntaxAnalyzer::syntaxSimpleExpr</text>
</a>
</g>
</g>
<!-- Node6&#45;&gt;Node11 -->
<g id="edge12" class="edge">
<title>Node6&#45;&gt;Node11</title>
<path fill="none" stroke="midnightblue" d="M617.01,-428.89C647.76,-404.19 729.62,-338.44 767.83,-307.74"/>
<polygon fill="midnightblue" stroke="midnightblue" points="770.1,-310.4 775.71,-301.41 765.72,-304.95 770.1,-310.4"/>
</g>
<!-- Node9 -->
<g id="node9" class="node">
<title>Node9</title>
<g id="a_node9"><a xlink:href="../../dd/d3d/namespacemagic__enum_1_1detail.html#a4e442a24179e53022ac3d2948851a8aa" target="_top" xlink:title=" ">
<polygon fill="none" stroke="black" points="1312,-193.54 1312,-223.54 1412,-223.54 1412,-193.54 1312,-193.54"/>
<text text-anchor="start" x="1320" y="-211.54" font-family="Helvetica,sans-Serif" font-size="10.00">magic_enum::detail</text>
<text text-anchor="middle" x="1362" y="-200.54" font-family="Helvetica,sans-Serif" font-size="10.00">::find</text>
</a>
</g>
</g>
<!-- Node8&#45;&gt;Node9 -->
<g id="edge10" class="edge">
<title>Node8&#45;&gt;Node9</title>
<path fill="none" stroke="midnightblue" d="M1181.76,-208.54C1207.33,-208.54 1260.1,-208.54 1301.8,-208.54"/>
<polygon fill="midnightblue" stroke="midnightblue" points="1301.86,-212.04 1311.86,-208.54 1301.86,-205.04 1301.86,-212.04"/>
</g>
<!-- Node10 -->
<g id="node10" class="node">
<title>Node10</title>
<g id="a_node10"><a xlink:href="../../dd/d3d/namespacemagic__enum_1_1detail.html#a8e06754b490522d8ae02cd8983e3fcbf" target="_top" xlink:title=" ">
<polygon fill="none" stroke="black" points="1312,-144.54 1312,-174.54 1412,-174.54 1412,-144.54 1312,-144.54"/>
<text text-anchor="start" x="1320" y="-162.54" font-family="Helvetica,sans-Serif" font-size="10.00">magic_enum::detail</text>
<text text-anchor="middle" x="1362" y="-151.54" font-family="Helvetica,sans-Serif" font-size="10.00">::value</text>
</a>
</g>
</g>
<!-- Node8&#45;&gt;Node10 -->
<g id="edge11" class="edge">
<title>Node8&#45;&gt;Node10</title>
<path fill="none" stroke="midnightblue" d="M1181.76,-204.69C1207.38,-198.24 1260.32,-184.9 1302.06,-174.39"/>
<polygon fill="midnightblue" stroke="midnightblue" points="1303.02,-177.76 1311.86,-171.92 1301.31,-170.97 1303.02,-177.76"/>
</g>
<!-- Node11&#45;&gt;Node2 -->
<g id="edge13" class="edge">
<title>Node11&#45;&gt;Node2</title>
<path fill="none" stroke="midnightblue" d="M801.79,-301.23C841.04,-333.45 970.92,-439.77 1080,-525.54 1155.26,-584.72 1177.64,-595.02 1251,-656.54 1267.63,-670.49 1267.46,-680.08 1287,-689.54 1342.5,-716.42 1413.12,-724.88 1462.48,-727.26"/>
<polygon fill="midnightblue" stroke="midnightblue" points="1462.55,-730.77 1472.68,-727.68 1462.83,-723.78 1462.55,-730.77"/>
</g>
<!-- Node11&#45;&gt;Node4 -->
<g id="edge14" class="edge">
<title>Node11&#45;&gt;Node4</title>
<path fill="none" stroke="midnightblue" d="M804.16,-281.77C874.78,-234.35 1195.13,-34.35 1437,-134.54 1608.42,-205.54 1666.52,-463.43 1679.78,-536.89"/>
<polygon fill="midnightblue" stroke="midnightblue" points="1676.39,-537.78 1681.54,-547.04 1683.28,-536.59 1676.39,-537.78"/>
</g>
<!-- Node11&#45;&gt;Node7 -->
<g id="edge15" class="edge">
<title>Node11&#45;&gt;Node7</title>
<path fill="none" stroke="midnightblue" d="M871.19,-291.43C1022.63,-291.22 1344.25,-290.78 1470.29,-290.61"/>
<polygon fill="midnightblue" stroke="midnightblue" points="1470.45,-294.11 1480.45,-290.6 1470.44,-287.11 1470.45,-294.11"/>
</g>
<!-- Node11&#45;&gt;Node8 -->
<g id="edge16" class="edge">
<title>Node11&#45;&gt;Node8</title>
<path fill="none" stroke="midnightblue" d="M815.72,-282.03C839.22,-273.61 875.08,-261.47 907,-253.54 991,-232.67 1092.75,-217.92 1139.19,-211.76"/>
<polygon fill="midnightblue" stroke="midnightblue" points="1139.79,-215.21 1149.25,-210.44 1138.88,-208.27 1139.79,-215.21"/>
</g>
<!-- Node12 -->
<g id="node12" class="node">
<title>Node12</title>
<g id="a_node12"><a xlink:href="../../d0/dfe/class_syntax_analyzer.html#a7721cf7d36d549f81fd05c40dba02f67" target="_top" xlink:title=" ">
<polygon fill="none" stroke="black" points="907,-307.04 907,-326.04 1044,-326.04 1044,-307.04 907,-307.04"/>
<text text-anchor="middle" x="975.5" y="-314.04" font-family="Helvetica,sans-Serif" font-size="10.00">SyntaxAnalyzer::syntaxTerm</text>
</a>
</g>
</g>
<!-- Node11&#45;&gt;Node12 -->
<g id="edge17" class="edge">
<title>Node11&#45;&gt;Node12</title>
<path fill="none" stroke="midnightblue" d="M860.28,-301.06C872.21,-302.68 884.67,-304.37 896.78,-306.01"/>
<polygon fill="midnightblue" stroke="midnightblue" points="896.47,-309.5 906.85,-307.37 897.41,-302.56 896.47,-309.5"/>
</g>
<!-- Node12&#45;&gt;Node2 -->
<g id="edge18" class="edge">
<title>Node12&#45;&gt;Node2</title>
<path fill="none" stroke="midnightblue" d="M981.34,-326.15C994.33,-351.17 1032.24,-419.36 1080,-461.54 1214.72,-580.52 1288.97,-549.59 1437,-651.54 1462.86,-669.35 1489.4,-694.16 1505.91,-710.52"/>
<polygon fill="midnightblue" stroke="midnightblue" points="1503.62,-713.19 1513.16,-717.8 1508.58,-708.25 1503.62,-713.19"/>
</g>
<!-- Node12&#45;&gt;Node4 -->
<g id="edge19" class="edge">
<title>Node12&#45;&gt;Node4</title>
<path fill="none" stroke="midnightblue" d="M1044.04,-316.31C1191.05,-316.35 1530.36,-319.51 1574,-347.54 1642.59,-391.59 1670.43,-493.63 1679.41,-536.74"/>
<polygon fill="midnightblue" stroke="midnightblue" points="1676.03,-537.67 1681.38,-546.81 1682.9,-536.32 1676.03,-537.67"/>
</g>
<!-- Node12&#45;&gt;Node7 -->
<g id="edge20" class="edge">
<title>Node12&#45;&gt;Node7</title>
<path fill="none" stroke="midnightblue" d="M1044.27,-313.31C1154.61,-308.06 1370.71,-297.77 1470.15,-293.03"/>
<polygon fill="midnightblue" stroke="midnightblue" points="1470.44,-296.52 1480.26,-292.55 1470.1,-289.53 1470.44,-296.52"/>
</g>
<!-- Node12&#45;&gt;Node8 -->
<g id="edge21" class="edge">
<title>Node12&#45;&gt;Node8</title>
<path fill="none" stroke="midnightblue" d="M993.18,-306.96C1026.57,-287.78 1101.71,-244.61 1140.43,-222.37"/>
<polygon fill="midnightblue" stroke="midnightblue" points="1142.51,-225.21 1149.44,-217.19 1139.02,-219.14 1142.51,-225.21"/>
</g>
<!-- Node13 -->
<g id="node13" class="node">
<title>Node13</title>
<g id="a_node13"><a xlink:href="../../d0/dfe/class_syntax_analyzer.html#ab9b415ddd671b4884ab31cdf194f6c64" target="_top" xlink:title=" ">
<polygon fill="none" stroke="black" points="1094,-415.04 1094,-434.04 1237,-434.04 1237,-415.04 1094,-415.04"/>
<text text-anchor="middle" x="1165.5" y="-422.04" font-family="Helvetica,sans-Serif" font-size="10.00">SyntaxAnalyzer::syntaxFactor</text>
</a>
</g>
</g>
<!-- Node12&#45;&gt;Node13 -->
<g id="edge22" class="edge">
<title>Node12&#45;&gt;Node13</title>
<path fill="none" stroke="midnightblue" d="M993.18,-326.12C1026.21,-345.1 1100.1,-387.54 1139.17,-409.99"/>
<polygon fill="midnightblue" stroke="midnightblue" points="1137.44,-413.03 1147.85,-414.98 1140.93,-406.96 1137.44,-413.03"/>
</g>
<!-- Node13&#45;&gt;Node2 -->
<g id="edge23" class="edge">
<title>Node13&#45;&gt;Node2</title>
<path fill="none" stroke="midnightblue" d="M1174.11,-434.33C1191.63,-456.18 1237.12,-509.23 1287,-537.54 1347.31,-571.77 1382.28,-537.93 1437,-580.54 1480.34,-614.29 1505.85,-676.63 1516.55,-708.18"/>
<polygon fill="midnightblue" stroke="midnightblue" points="1513.3,-709.52 1519.72,-717.95 1519.96,-707.36 1513.3,-709.52"/>
</g>
<!-- Node13&#45;&gt;Node4 -->
<g id="edge24" class="edge">
<title>Node13&#45;&gt;Node4</title>
<path fill="none" stroke="midnightblue" d="M1237.27,-429.23C1320.39,-436.61 1461.27,-455.01 1574,-499.54 1604.1,-511.43 1636.77,-529.22 1658.41,-541.76"/>
<polygon fill="midnightblue" stroke="midnightblue" points="1656.85,-544.9 1667.25,-546.94 1660.4,-538.87 1656.85,-544.9"/>
</g>
<!-- Node13&#45;&gt;Node6 -->
<g id="edge37" class="edge">
<title>Node13&#45;&gt;Node6</title>
<path fill="none" stroke="midnightblue" d="M1093.73,-426.31C988.13,-428.95 790.1,-433.91 681.34,-436.63"/>
<polygon fill="midnightblue" stroke="midnightblue" points="681.01,-433.14 671.1,-436.89 681.19,-440.13 681.01,-433.14"/>
</g>
<!-- Node13&#45;&gt;Node7 -->
<g id="edge30" class="edge">
<title>Node13&#45;&gt;Node7</title>
<path fill="none" stroke="midnightblue" d="M1191.82,-415.01C1254.32,-391.48 1416.07,-330.6 1487.6,-303.68"/>
<polygon fill="midnightblue" stroke="midnightblue" points="1488.95,-306.91 1497.07,-300.11 1486.48,-300.36 1488.95,-306.91"/>
</g>
<!-- Node13&#45;&gt;Node13 -->
<g id="edge38" class="edge">
<title>Node13&#45;&gt;Node13</title>
<path fill="none" stroke="midnightblue" d="M1136.22,-434.3C1121.97,-443.1 1131.73,-452.54 1165.5,-452.54 1189.24,-452.54 1201.12,-447.88 1201.12,-442.04"/>
<polygon fill="midnightblue" stroke="midnightblue" points="1203.83,-439.82 1194.78,-434.3 1198.41,-444.25 1203.83,-439.82"/>
</g>
<!-- Node14 -->
<g id="node14" class="node">
<title>Node14</title>
<g id="a_node14"><a xlink:href="../../db/dc1/class_token.html#a014ced0a9ea72ae21fad0d4f116d0a73" target="_top" xlink:title=" ">
<polygon fill="none" stroke="black" points="1323,-395.04 1323,-414.04 1401,-414.04 1401,-395.04 1323,-395.04"/>
<text text-anchor="middle" x="1362" y="-402.04" font-family="Helvetica,sans-Serif" font-size="10.00">Token::getInfo</text>
</a>
</g>
</g>
<!-- Node13&#45;&gt;Node14 -->
<g id="edge25" class="edge">
<title>Node13&#45;&gt;Node14</title>
<path fill="none" stroke="midnightblue" d="M1237.27,-417.26C1262.32,-414.69 1289.92,-411.85 1312.68,-409.51"/>
<polygon fill="midnightblue" stroke="midnightblue" points="1313.18,-412.98 1322.77,-408.47 1312.46,-406.01 1313.18,-412.98"/>
</g>
<!-- Node17 -->
<g id="node17" class="node">
<title>Node17</title>
<g id="a_node17"><a xlink:href="../../d0/dfe/class_syntax_analyzer.html#af0905389742c4f842207bb2c073afbfa" target="_top" xlink:title=" ">
<polygon fill="none" stroke="black" points="1293.5,-471.04 1293.5,-490.04 1430.5,-490.04 1430.5,-471.04 1293.5,-471.04"/>
<text text-anchor="middle" x="1362" y="-478.04" font-family="Helvetica,sans-Serif" font-size="10.00">SyntaxAnalyzer::lookFoward</text>
</a>
</g>
</g>
<!-- Node13&#45;&gt;Node17 -->
<g id="edge31" class="edge">
<title>Node13&#45;&gt;Node17</title>
<path fill="none" stroke="midnightblue" d="M1199.94,-434.17C1232.7,-443.6 1282.76,-458.01 1318.37,-468.26"/>
<polygon fill="midnightblue" stroke="midnightblue" points="1317.42,-471.63 1328,-471.04 1319.36,-464.91 1317.42,-471.63"/>
</g>
<!-- Node19 -->
<g id="node19" class="node">
<title>Node19</title>
<g id="a_node19"><a xlink:href="../../d0/dfe/class_syntax_analyzer.html#a9321de68e44f3918a71256a3c1cd481b" target="_top" xlink:title=" ">
<polygon fill="none" stroke="black" points="1291.5,-661.04 1291.5,-680.04 1432.5,-680.04 1432.5,-661.04 1291.5,-661.04"/>
<text text-anchor="middle" x="1362" y="-668.04" font-family="Helvetica,sans-Serif" font-size="10.00">SyntaxAnalyzer::syntaxCallSt</text>
</a>
</g>
</g>
<!-- Node13&#45;&gt;Node19 -->
<g id="edge33" class="edge">
<title>Node13&#45;&gt;Node19</title>
<path fill="none" stroke="midnightblue" d="M1174.12,-434.18C1203.42,-471.23 1308.98,-604.74 1347.12,-652.99"/>
<polygon fill="midnightblue" stroke="midnightblue" points="1344.48,-655.29 1353.43,-660.96 1349.97,-650.95 1344.48,-655.29"/>
</g>
<!-- Node20 -->
<g id="node20" class="node">
<title>Node20</title>
<g id="a_node20"><a xlink:href="../../d0/dfe/class_syntax_analyzer.html#a8d3dc6feefe1957f1c81cbc7b8318559" target="_top" xlink:title=" ">
<polygon fill="none" stroke="black" points="1287,-509.04 1287,-528.04 1437,-528.04 1437,-509.04 1287,-509.04"/>
<text text-anchor="middle" x="1362" y="-516.04" font-family="Helvetica,sans-Serif" font-size="10.00">SyntaxAnalyzer::syntaxVariable</text>
</a>
</g>
</g>
<!-- Node13&#45;&gt;Node20 -->
<g id="edge39" class="edge">
<title>Node13&#45;&gt;Node20</title>
<path fill="none" stroke="midnightblue" d="M1179.15,-434.25C1200.34,-450.09 1244.86,-481.52 1287,-499.54 1292.76,-502 1298.92,-504.2 1305.13,-506.16"/>
<polygon fill="midnightblue" stroke="midnightblue" points="1304.3,-509.56 1314.88,-509.02 1306.27,-502.84 1304.3,-509.56"/>
</g>
<!-- Node14&#45;&gt;Node3 -->
<g id="edge26" class="edge">
<title>Node14&#45;&gt;Node3</title>
<path fill="none" stroke="midnightblue" d="M1401.12,-413.09C1447.29,-425.21 1524.96,-451.44 1574,-499.54 1600.68,-525.71 1587.82,-545.46 1610,-575.54 1624.64,-595.4 1645.79,-614.04 1661.56,-626.59"/>
<polygon fill="midnightblue" stroke="midnightblue" points="1659.65,-629.54 1669.7,-632.91 1663.94,-624.01 1659.65,-629.54"/>
</g>
<!-- Node14&#45;&gt;Node7 -->
<g id="edge28" class="edge">
<title>Node14&#45;&gt;Node7</title>
<path fill="none" stroke="midnightblue" d="M1401.11,-396.12C1413.16,-392.45 1426.15,-387.38 1437,-380.54 1453.16,-370.36 1487.92,-331.14 1507.79,-307.96"/>
<polygon fill="midnightblue" stroke="midnightblue" points="1510.55,-310.12 1514.37,-300.24 1505.22,-305.58 1510.55,-310.12"/>
</g>
<!-- Node15 -->
<g id="node15" class="node">
<title>Node15</title>
<g id="a_node15"><a xlink:href="../../db/dc1/class_token.html#a942fcc40ffdf54c98b7b641c792a26bc" target="_top" xlink:title="Возвращает константную ссылку на строковое представление токена">
<polygon fill="none" stroke="black" points="1486.5,-357.04 1486.5,-376.04 1560.5,-376.04 1560.5,-357.04 1486.5,-357.04"/>
<text text-anchor="middle" x="1523.5" y="-364.04" font-family="Helvetica,sans-Serif" font-size="10.00">Token::getStr</text>
</a>
</g>
</g>
<!-- Node14&#45;&gt;Node15 -->
<g id="edge27" class="edge">
<title>Node14&#45;&gt;Node15</title>
<path fill="none" stroke="midnightblue" d="M1401.2,-395.44C1423.78,-390.06 1452.53,-383.21 1476.37,-377.53"/>
<polygon fill="midnightblue" stroke="midnightblue" points="1477.33,-380.9 1486.25,-375.18 1475.71,-374.09 1477.33,-380.9"/>
</g>
<!-- Node16 -->
<g id="node16" class="node">
<title>Node16</title>
<g id="a_node16"><a xlink:href="../../db/dc1/class_token.html#af3b5fdf2261d637af820d4adb62e6109" target="_top" xlink:title=" ">
<polygon fill="none" stroke="black" points="1492,-395.04 1492,-414.04 1555,-414.04 1555,-395.04 1492,-395.04"/>
<text text-anchor="middle" x="1523.5" y="-402.04" font-family="Helvetica,sans-Serif" font-size="10.00">Token::line</text>
</a>
</g>
</g>
<!-- Node14&#45;&gt;Node16 -->
<g id="edge29" class="edge">
<title>Node14&#45;&gt;Node16</title>
<path fill="none" stroke="midnightblue" d="M1401.2,-404.54C1425.48,-404.54 1456.87,-404.54 1481.64,-404.54"/>
<polygon fill="midnightblue" stroke="midnightblue" points="1481.81,-408.04 1491.81,-404.54 1481.81,-401.04 1481.81,-408.04"/>
</g>
<!-- Node18 -->
<g id="node18" class="node">
<title>Node18</title>
<g id="a_node18"><a xlink:href="../../d1/d34/class_list.html#a49c179636e084dfbf7a52acd46acaf01" target="_top" xlink:title=" ">
<polygon fill="none" stroke="black" points="1496,-509.04 1496,-528.04 1551,-528.04 1551,-509.04 1496,-509.04"/>
<text text-anchor="middle" x="1523.5" y="-516.04" font-family="Helvetica,sans-Serif" font-size="10.00">List::size</text>
</a>
</g>
</g>
<!-- Node17&#45;&gt;Node18 -->
<g id="edge32" class="edge">
<title>Node17&#45;&gt;Node18</title>
<path fill="none" stroke="midnightblue" d="M1403.25,-490.13C1428.6,-496.17 1461.09,-503.91 1485.75,-509.78"/>
<polygon fill="midnightblue" stroke="midnightblue" points="1485.25,-513.26 1495.79,-512.18 1486.88,-506.45 1485.25,-513.26"/>
</g>
<!-- Node19&#45;&gt;Node2 -->
<g id="edge34" class="edge">
<title>Node19&#45;&gt;Node2</title>
<path fill="none" stroke="midnightblue" d="M1393.73,-680.09C1407.08,-684.35 1422.87,-689.53 1437,-694.54 1454.38,-700.71 1473.56,-708.06 1489.34,-714.25"/>
<polygon fill="midnightblue" stroke="midnightblue" points="1488.09,-717.52 1498.68,-717.94 1490.66,-711.01 1488.09,-717.52"/>
</g>
<!-- Node19&#45;&gt;Node4 -->
<g id="edge35" class="edge">
<title>Node19&#45;&gt;Node4</title>
<path fill="none" stroke="midnightblue" d="M1432.51,-672.48C1474.92,-671.31 1529.38,-665.5 1574,-646.54 1594.38,-637.88 1640.2,-596.7 1665.46,-573.16"/>
<polygon fill="midnightblue" stroke="midnightblue" points="1667.98,-575.59 1672.88,-566.2 1663.19,-570.49 1667.98,-575.59"/>
</g>
<!-- Node19&#45;&gt;Node6 -->
<g id="edge36" class="edge">
<title>Node19&#45;&gt;Node6</title>
<path fill="none" stroke="midnightblue" d="M1329.7,-660.93C1209.96,-624.19 781,-492.55 645.99,-451.12"/>
<polygon fill="midnightblue" stroke="midnightblue" points="646.63,-447.65 636.05,-448.07 644.58,-454.35 646.63,-447.65"/>
</g>
<!-- Node20&#45;&gt;Node2 -->
<g id="edge40" class="edge">
<title>Node20&#45;&gt;Node2</title>
<path fill="none" stroke="midnightblue" d="M1411.84,-528.05C1420.94,-531.5 1429.83,-536.18 1437,-542.54 1488.09,-587.87 1510.74,-670.02 1518.8,-707.69"/>
<polygon fill="midnightblue" stroke="midnightblue" points="1515.44,-708.75 1520.85,-717.87 1522.3,-707.37 1515.44,-708.75"/>
</g>
<!-- Node20&#45;&gt;Node4 -->
<g id="edge41" class="edge">
<title>Node20&#45;&gt;Node4</title>
<path fill="none" stroke="midnightblue" d="M1412.97,-528.05C1431.75,-531.39 1453.3,-534.95 1473,-537.54 1517.41,-543.37 1567.33,-547.97 1607.36,-551.18"/>
<polygon fill="midnightblue" stroke="midnightblue" points="1607.34,-554.69 1617.58,-551.99 1607.89,-547.71 1607.34,-554.69"/>
</g>
<!-- Node21&#45;&gt;Node1 -->
<g id="edge65" class="edge">
<title>Node21&#45;&gt;Node1</title>
<path fill="none" stroke="midnightblue" d="M184.86,-791.05C176.5,-791.22 167.81,-791.3 159.15,-791.29"/>
<polygon fill="midnightblue" stroke="midnightblue" points="159.03,-787.79 149.01,-791.23 158.99,-794.79 159.03,-787.79"/>
</g>
<!-- Node21&#45;&gt;Node2 -->
<g id="edge43" class="edge">
<title>Node21&#45;&gt;Node2</title>
<path fill="none" stroke="midnightblue" d="M249.62,-794.18C254.16,-828.33 274.49,-944.19 346,-993.54 440.27,-1058.59 488.47,-1012.54 603,-1012.54 603,-1012.54 603,-1012.54 1166.5,-1012.54 1287.46,-1012.54 1342.86,-1058.49 1437,-982.54 1511.18,-922.69 1521.42,-796.15 1522.53,-747.33"/>
<polygon fill="midnightblue" stroke="midnightblue" points="1526.03,-747.2 1522.65,-737.16 1519.03,-747.12 1526.03,-747.2"/>
</g>
<!-- Node21&#45;&gt;Node4 -->
<g id="edge44" class="edge">
<title>Node21&#45;&gt;Node4</title>
<path fill="none" stroke="midnightblue" d="M267.79,-774.94C287.11,-765.73 317.92,-752.14 346,-744.54 457.33,-714.42 487.66,-708.54 603,-708.54 603,-708.54 603,-708.54 976.5,-708.54 1043.03,-708.54 1484.39,-604.18 1633.72,-568.4"/>
<polygon fill="midnightblue" stroke="midnightblue" points="1634.64,-571.78 1643.54,-566.05 1633,-564.98 1634.64,-571.78"/>
</g>
<!-- Node21&#45;&gt;Node17 -->
<g id="edge45" class="edge">
<title>Node21&#45;&gt;Node17</title>
<path fill="none" stroke="midnightblue" d="M255.9,-774.87C270.77,-756.16 306.29,-715.04 346,-694.54 666.46,-529.09 1106.67,-491.53 1283.17,-483.03"/>
<polygon fill="midnightblue" stroke="midnightblue" points="1283.58,-486.51 1293.41,-482.55 1283.25,-479.52 1283.58,-486.51"/>
</g>
<!-- Node21&#45;&gt;Node19 -->
<g id="edge51" class="edge">
<title>Node21&#45;&gt;Node19</title>
<path fill="none" stroke="midnightblue" d="M291.52,-775.02C308.43,-771.57 328.05,-767.94 346,-765.54 459.52,-750.34 488.47,-746.54 603,-746.54 603,-746.54 603,-746.54 976.5,-746.54 1098.97,-746.54 1132.79,-754.54 1251,-722.54 1281.9,-714.17 1314.77,-697.48 1336.45,-685.26"/>
<polygon fill="midnightblue" stroke="midnightblue" points="1338.37,-688.19 1345.29,-680.17 1334.88,-682.13 1338.37,-688.19"/>
</g>
<!-- Node22 -->
<g id="node22" class="node">
<title>Node22</title>
<g id="a_node22"><a xlink:href="../../d0/dfe/class_syntax_analyzer.html#ae57b60364b17a4772143fe9a6c3bc2c7" target="_top" xlink:title=" ">
<polygon fill="none" stroke="black" points="346,-509.04 346,-528.04 501,-528.04 501,-509.04 346,-509.04"/>
<text text-anchor="middle" x="423.5" y="-516.04" font-family="Helvetica,sans-Serif" font-size="10.00">SyntaxAnalyzer::syntaxAssignSt</text>
</a>
</g>
</g>
<!-- Node21&#45;&gt;Node22 -->
<g id="edge46" class="edge">
<title>Node21&#45;&gt;Node22</title>
<path fill="none" stroke="midnightblue" d="M254.9,-774.76C280.64,-735.4 376.87,-588.29 410.67,-536.62"/>
<polygon fill="midnightblue" stroke="midnightblue" points="413.68,-538.42 416.23,-528.13 407.82,-534.58 413.68,-538.42"/>
</g>
<!-- Node23 -->
<g id="node23" class="node">
<title>Node23</title>
<g id="a_node23"><a xlink:href="../../d0/dfe/class_syntax_analyzer.html#a2c0c19bfe9775405a5b6985cf1c8854c" target="_top" xlink:title=" ">
<polygon fill="none" stroke="black" points="1080,-927.04 1080,-946.04 1251,-946.04 1251,-927.04 1080,-927.04"/>
<text text-anchor="middle" x="1165.5" y="-934.04" font-family="Helvetica,sans-Serif" font-size="10.00">SyntaxAnalyzer::syntaxCompoundSt</text>
</a>
</g>
</g>
<!-- Node21&#45;&gt;Node23 -->
<g id="edge52" class="edge">
<title>Node21&#45;&gt;Node23</title>
<path fill="none" stroke="midnightblue" d="M252.45,-794.09C263.21,-818.75 295.68,-884.62 346,-912.54 446.32,-968.19 488.28,-936.54 603,-936.54 603,-936.54 603,-936.54 790,-936.54 885.01,-936.54 993.57,-936.54 1069.26,-936.54"/>
<polygon fill="midnightblue" stroke="midnightblue" points="1069.72,-940.04 1079.72,-936.54 1069.72,-933.04 1069.72,-940.04"/>
</g>
<!-- Node26 -->
<g id="node26" class="node">
<title>Node26</title>
<g id="a_node26"><a xlink:href="../../d0/dfe/class_syntax_analyzer.html#a22a01f23b6ce49e9cdded69dd21f3935" target="_top" xlink:title=" ">
<polygon fill="none" stroke="black" points="347.5,-965.04 347.5,-984.04 499.5,-984.04 499.5,-965.04 347.5,-965.04"/>
<text text-anchor="middle" x="423.5" y="-972.04" font-family="Helvetica,sans-Serif" font-size="10.00">SyntaxAnalyzer::syntaxEmptySt</text>
</a>
</g>
</g>
<!-- Node21&#45;&gt;Node26 -->
<g id="edge59" class="edge">
<title>Node21&#45;&gt;Node26</title>
<path fill="none" stroke="midnightblue" d="M251.36,-794.05C260.36,-822.34 290.8,-906.64 346,-950.54 351.34,-954.79 357.45,-958.29 363.82,-961.18"/>
<polygon fill="midnightblue" stroke="midnightblue" points="362.72,-964.5 373.31,-964.98 365.33,-958.01 362.72,-964.5"/>
</g>
<!-- Node27 -->
<g id="node27" class="node">
<title>Node27</title>
<g id="a_node27"><a xlink:href="../../d0/dfe/class_syntax_analyzer.html#addd3ca96f66a5261f904e2e0c78a898a" target="_top" xlink:title=" ">
<polygon fill="none" stroke="black" points="358,-775.04 358,-794.04 489,-794.04 489,-775.04 358,-775.04"/>
<text text-anchor="middle" x="423.5" y="-782.04" font-family="Helvetica,sans-Serif" font-size="10.00">SyntaxAnalyzer::syntaxIfSt</text>
</a>
</g>
</g>
<!-- Node21&#45;&gt;Node27 -->
<g id="edge60" class="edge">
<title>Node21&#45;&gt;Node27</title>
<path fill="none" stroke="midnightblue" d="M310.34,-778.05C322.39,-777.79 335.16,-777.73 347.58,-777.85"/>
<polygon fill="midnightblue" stroke="midnightblue" points="347.87,-781.35 357.92,-777.99 347.97,-774.35 347.87,-781.35"/>
</g>
<!-- Node22&#45;&gt;Node2 -->
<g id="edge47" class="edge">
<title>Node22&#45;&gt;Node2</title>
<path fill="none" stroke="midnightblue" d="M449.02,-528.16C550.2,-567.13 946.07,-712.53 1287,-739.54 1353.46,-744.8 1370.5,-744.18 1437,-739.54 1445.38,-738.95 1454.19,-738.05 1462.85,-736.99"/>
<polygon fill="midnightblue" stroke="midnightblue" points="1463.42,-740.45 1472.89,-735.7 1462.53,-733.51 1463.42,-740.45"/>
</g>
<!-- Node22&#45;&gt;Node4 -->
<g id="edge48" class="edge">
<title>Node22&#45;&gt;Node4</title>
<path fill="none" stroke="midnightblue" d="M426.23,-508.67C439.39,-437.2 530.15,-1.54 788,-1.54 788,-1.54 788,-1.54 1363,-1.54 1459.91,-1.54 1506.87,13.36 1574,-56.54 1642.48,-127.84 1674.27,-453 1681.41,-536.79"/>
<polygon fill="midnightblue" stroke="midnightblue" points="1677.94,-537.29 1682.25,-546.96 1684.91,-536.71 1677.94,-537.29"/>
</g>
<!-- Node22&#45;&gt;Node6 -->
<g id="edge49" class="edge">
<title>Node22&#45;&gt;Node6</title>
<path fill="none" stroke="midnightblue" d="M446.03,-508.89C477.48,-494.8 536.13,-468.51 572.15,-452.37"/>
<polygon fill="midnightblue" stroke="midnightblue" points="573.98,-455.38 581.67,-448.1 571.11,-449 573.98,-455.38"/>
</g>
<!-- Node22&#45;&gt;Node20 -->
<g id="edge50" class="edge">
<title>Node22&#45;&gt;Node20</title>
<path fill="none" stroke="midnightblue" d="M501.09,-518.54C574.65,-518.54 688.92,-518.54 788,-518.54 788,-518.54 788,-518.54 976.5,-518.54 1079.83,-518.54 1198.79,-518.54 1276.69,-518.54"/>
<polygon fill="midnightblue" stroke="midnightblue" points="1276.93,-522.04 1286.93,-518.54 1276.93,-515.04 1276.93,-522.04"/>
</g>
<!-- Node23&#45;&gt;Node2 -->
<g id="edge54" class="edge">
<title>Node23&#45;&gt;Node2</title>
<path fill="none" stroke="midnightblue" d="M1187.46,-946.1C1236.22,-966.77 1359.03,-1009.57 1437,-955.54 1507.15,-906.93 1519.83,-793.19 1522.06,-747.28"/>
<polygon fill="midnightblue" stroke="midnightblue" points="1525.56,-747.27 1522.43,-737.15 1518.56,-747.01 1525.56,-747.27"/>
</g>
<!-- Node24 -->
<g id="node24" class="node">
<title>Node24</title>
<g id="a_node24"><a xlink:href="../../da/dbb/class_compound_a_s_t.html#a596c1d112edc624fe50ed8a261ffd532" target="_top" xlink:title=" ">
<polygon fill="none" stroke="black" points="1299.5,-927.04 1299.5,-946.04 1424.5,-946.04 1424.5,-927.04 1299.5,-927.04"/>
<text text-anchor="middle" x="1362" y="-934.04" font-family="Helvetica,sans-Serif" font-size="10.00">CompoundAST::addChild</text>
</a>
</g>
</g>
<!-- Node23&#45;&gt;Node24 -->
<g id="edge53" class="edge">
<title>Node23&#45;&gt;Node24</title>
<path fill="none" stroke="midnightblue" d="M1251.24,-936.54C1263.88,-936.54 1276.8,-936.54 1289.14,-936.54"/>
<polygon fill="midnightblue" stroke="midnightblue" points="1289.35,-940.04 1299.35,-936.54 1289.35,-933.04 1289.35,-940.04"/>
</g>
<!-- Node25 -->
<g id="node25" class="node">
<title>Node25</title>
<g id="a_node25"><a xlink:href="../../d0/dfe/class_syntax_analyzer.html#a79a0e444afd499634f445f0b8919dd0f" target="_top" xlink:title=" ">
<polygon fill="none" stroke="black" points="1291.5,-889.04 1291.5,-908.04 1432.5,-908.04 1432.5,-889.04 1291.5,-889.04"/>
<text text-anchor="middle" x="1362" y="-896.04" font-family="Helvetica,sans-Serif" font-size="10.00">SyntaxAnalyzer::syntaxStList</text>
</a>
</g>
</g>
<!-- Node23&#45;&gt;Node25 -->
<g id="edge55" class="edge">
<title>Node23&#45;&gt;Node25</title>
<path fill="none" stroke="midnightblue" d="M1215.33,-927C1241.69,-921.85 1274.42,-915.46 1302.17,-910.03"/>
<polygon fill="midnightblue" stroke="midnightblue" points="1303.01,-913.44 1312.15,-908.08 1301.66,-906.57 1303.01,-913.44"/>
</g>
<!-- Node25&#45;&gt;Node2 -->
<g id="edge56" class="edge">
<title>Node25&#45;&gt;Node2</title>
<path fill="none" stroke="midnightblue" d="M1376,-888.98C1391.36,-877.39 1417.3,-856.89 1437,-836.54 1465.82,-806.77 1494.57,-767.71 1510.29,-745.34"/>
<polygon fill="midnightblue" stroke="midnightblue" points="1513.18,-747.32 1516.02,-737.11 1507.43,-743.33 1513.18,-747.32"/>
</g>
<!-- Node25&#45;&gt;Node4 -->
<g id="edge57" class="edge">
<title>Node25&#45;&gt;Node4</title>
<path fill="none" stroke="midnightblue" d="M1410.57,-908.1C1458.49,-914.72 1531.29,-916.02 1574,-874.54 1654.84,-796.02 1557.43,-723.22 1610,-623.54 1621.24,-602.23 1642.03,-584.18 1658.56,-572.2"/>
<polygon fill="midnightblue" stroke="midnightblue" points="1661,-574.77 1667.22,-566.19 1657.01,-569.02 1661,-574.77"/>
</g>
<!-- Node25&#45;&gt;Node21 -->
<g id="edge58" class="edge">
<title>Node25&#45;&gt;Node21</title>
<path fill="none" stroke="midnightblue" d="M1291.19,-898.54C1214.15,-898.54 1086.48,-898.54 976.5,-898.54 603,-898.54 603,-898.54 603,-898.54 474.36,-898.54 331.52,-829.66 274.27,-798.98"/>
<polygon fill="midnightblue" stroke="midnightblue" points="275.68,-795.76 265.22,-794.06 272.33,-801.91 275.68,-795.76"/>
</g>
<!-- Node27&#45;&gt;Node2 -->
<g id="edge61" class="edge">
<title>Node27&#45;&gt;Node2</title>
<path fill="none" stroke="midnightblue" d="M480.66,-794.08C551.92,-805.34 678.7,-822.54 788,-822.54 788,-822.54 788,-822.54 1166.5,-822.54 1287.19,-822.54 1325.4,-844.51 1437,-798.54 1465.67,-786.73 1492.04,-761.77 1507.7,-744.82"/>
<polygon fill="midnightblue" stroke="midnightblue" points="1510.42,-747.02 1514.49,-737.24 1505.21,-742.35 1510.42,-747.02"/>
</g>
<!-- Node27&#45;&gt;Node4 -->
<g id="edge62" class="edge">
<title>Node27&#45;&gt;Node4</title>
<path fill="none" stroke="midnightblue" d="M479.54,-794.09C602.13,-814.5 907.17,-860.54 1164.5,-860.54 1164.5,-860.54 1164.5,-860.54 1363,-860.54 1407.6,-860.54 1557.78,-767.28 1574,-746.54 1609.08,-701.66 1579.91,-671.91 1610,-623.54 1622.88,-602.83 1643.88,-584.52 1660.05,-572.29"/>
<polygon fill="midnightblue" stroke="midnightblue" points="1662.45,-574.87 1668.46,-566.15 1658.32,-569.22 1662.45,-574.87"/>
</g>
<!-- Node27&#45;&gt;Node6 -->
<g id="edge63" class="edge">
<title>Node27&#45;&gt;Node6</title>
<path fill="none" stroke="midnightblue" d="M429.46,-774.92C453.78,-727.79 560.55,-520.81 593.37,-457.2"/>
<polygon fill="midnightblue" stroke="midnightblue" points="596.5,-458.76 597.98,-448.27 590.28,-455.55 596.5,-458.76"/>
</g>
<!-- Node27&#45;&gt;Node21 -->
<g id="edge64" class="edge">
<title>Node27&#45;&gt;Node21</title>
<path fill="none" stroke="midnightblue" d="M357.92,-791.09C345.76,-791.31 332.98,-791.35 320.61,-791.2"/>
<polygon fill="midnightblue" stroke="midnightblue" points="320.39,-787.7 310.34,-791.03 320.28,-794.7 320.39,-787.7"/>
</g>
</g>
</svg>
