<?xml version="1.0" encoding="UTF-8" standalone="no"?>
<!DOCTYPE svg PUBLIC "-//W3C//DTD SVG 1.1//EN"
 "http://www.w3.org/Graphics/SVG/1.1/DTD/svg11.dtd">
<!-- Generated by graphviz version 3.0.0 (20220413.0106)
 -->
<!-- Title: SyntaxAnalyzer::syntaxConsts Pages: 1 -->
<svg width="671pt" height="104pt"
 viewBox="0.00 0.00 671.00 104.00" xmlns="http://www.w3.org/2000/svg" xmlns:xlink="http://www.w3.org/1999/xlink">
<g id="graph0" class="graph" transform="scale(1 1) rotate(0) translate(4 100)">
<title>SyntaxAnalyzer::syntaxConsts</title>
<!-- Node1 -->
<g id="node1" class="node">
<title>Node1</title>
<g id="a_node1"><a xlink:title=" ">
<polygon fill="#bfbfbf" stroke="black" points="0,-38.5 0,-57.5 146,-57.5 146,-38.5 0,-38.5"/>
<text text-anchor="middle" x="73" y="-45.5" font-family="Helvetica,sans-Serif" font-size="10.00">SyntaxAnalyzer::syntaxConsts</text>
</a>
</g>
</g>
<!-- Node2 -->
<g id="node2" class="node">
<title>Node2</title>
<g id="a_node2"><a xlink:href="../../d0/dfe/class_syntax_analyzer.html#a5d17bcae2fd7dc11d0710e046c4c3280" target="_top" xlink:title=" ">
<polygon fill="none" stroke="black" points="378,-0.5 378,-19.5 479,-19.5 479,-0.5 378,-0.5"/>
<text text-anchor="middle" x="428.5" y="-7.5" font-family="Helvetica,sans-Serif" font-size="10.00">SyntaxAnalyzer::eat</text>
</a>
</g>
</g>
<!-- Node1&#45;&gt;Node2 -->
<g id="edge1" class="edge">
<title>Node1&#45;&gt;Node2</title>
<path fill="none" stroke="midnightblue" d="M122.23,-38.48C140.85,-35.08 162.36,-31.48 182,-29 245.15,-21.02 317.9,-15.89 367.71,-13"/>
<polygon fill="midnightblue" stroke="midnightblue" points="368.2,-16.48 377.98,-12.42 367.8,-9.49 368.2,-16.48"/>
</g>
<!-- Node3 -->
<g id="node3" class="node">
<title>Node3</title>
<g id="a_node3"><a xlink:href="../../d0/dfe/class_syntax_analyzer.html#a3ae6c7319e61cd669c417f189b098374" target="_top" xlink:title=" ">
<polygon fill="none" stroke="black" points="523,-76.5 523,-95.5 655,-95.5 655,-76.5 523,-76.5"/>
<text text-anchor="middle" x="589" y="-83.5" font-family="Helvetica,sans-Serif" font-size="10.00">SyntaxAnalyzer::getCurTok</text>
</a>
</g>
</g>
<!-- Node1&#45;&gt;Node3 -->
<g id="edge4" class="edge">
<title>Node1&#45;&gt;Node3</title>
<path fill="none" stroke="midnightblue" d="M123.34,-57.51C141.71,-60.83 162.76,-64.38 182,-67 268.72,-78.81 290.58,-81.77 378,-86 422.55,-88.15 472.49,-88.25 512.48,-87.76"/>
<polygon fill="midnightblue" stroke="midnightblue" points="512.74,-91.26 522.69,-87.62 512.64,-84.26 512.74,-91.26"/>
</g>
<!-- Node5 -->
<g id="node5" class="node">
<title>Node5</title>
<g id="a_node5"><a xlink:href="../../d0/dfe/class_syntax_analyzer.html#a3fd39f49d75b604d41e41f86b22cdca3" target="_top" xlink:title=" ">
<polygon fill="none" stroke="black" points="182,-38.5 182,-57.5 342,-57.5 342,-38.5 182,-38.5"/>
<text text-anchor="middle" x="262" y="-45.5" font-family="Helvetica,sans-Serif" font-size="10.00">SyntaxAnalyzer::syntaxConstDecl</text>
</a>
</g>
</g>
<!-- Node1&#45;&gt;Node5 -->
<g id="edge5" class="edge">
<title>Node1&#45;&gt;Node5</title>
<path fill="none" stroke="midnightblue" d="M146.03,-48C154.46,-48 163.14,-48 171.77,-48"/>
<polygon fill="midnightblue" stroke="midnightblue" points="171.86,-51.5 181.86,-48 171.86,-44.5 171.86,-51.5"/>
</g>
<!-- Node2&#45;&gt;Node3 -->
<g id="edge2" class="edge">
<title>Node2&#45;&gt;Node3</title>
<path fill="none" stroke="midnightblue" d="M455.94,-19.5C463.46,-22.38 471.62,-25.67 479,-29 508.16,-42.17 540.52,-59.45 562.35,-71.51"/>
<polygon fill="midnightblue" stroke="midnightblue" points="560.87,-74.69 571.31,-76.5 564.27,-68.58 560.87,-74.69"/>
</g>
<!-- Node4 -->
<g id="node4" class="node">
<title>Node4</title>
<g id="a_node4"><a xlink:href="../../d0/dfe/class_syntax_analyzer.html#a9e41370d8d74fbd2e77648d2071e7dfe" target="_top" xlink:title=" ">
<polygon fill="none" stroke="black" points="515,-0.5 515,-19.5 663,-19.5 663,-0.5 515,-0.5"/>
<text text-anchor="middle" x="589" y="-7.5" font-family="Helvetica,sans-Serif" font-size="10.00">SyntaxAnalyzer::getNextToken</text>
</a>
</g>
</g>
<!-- Node2&#45;&gt;Node4 -->
<g id="edge3" class="edge">
<title>Node2&#45;&gt;Node4</title>
<path fill="none" stroke="midnightblue" d="M479.22,-10C487.37,-10 496.02,-10 504.72,-10"/>
<polygon fill="midnightblue" stroke="midnightblue" points="504.95,-13.5 514.95,-10 504.95,-6.5 504.95,-13.5"/>
</g>
<!-- Node5&#45;&gt;Node2 -->
<g id="edge6" class="edge">
<title>Node5&#45;&gt;Node2</title>
<path fill="none" stroke="midnightblue" d="M304.51,-38.41C326.32,-33.37 353.23,-27.16 376.32,-21.82"/>
<polygon fill="midnightblue" stroke="midnightblue" points="377.33,-25.18 386.29,-19.52 375.76,-18.36 377.33,-25.18"/>
</g>
<!-- Node5&#45;&gt;Node3 -->
<g id="edge7" class="edge">
<title>Node5&#45;&gt;Node3</title>
<path fill="none" stroke="midnightblue" d="M315.55,-57.52C335.11,-60.84 357.53,-64.39 378,-67 422.43,-72.67 472.36,-77.26 512.38,-80.51"/>
<polygon fill="midnightblue" stroke="midnightblue" points="512.35,-84.02 522.6,-81.33 512.91,-77.04 512.35,-84.02"/>
</g>
<!-- Node6 -->
<g id="node6" class="node">
<title>Node6</title>
<g id="a_node6"><a xlink:href="../../df/d3f/_syntax_8hpp.html#ae7d62ca130413d4c96863327c1af81a4" target="_top" xlink:title="Возвращает истину, если value находится среди значений cont.">
<polygon fill="none" stroke="black" points="412.5,-38.5 412.5,-57.5 444.5,-57.5 444.5,-38.5 412.5,-38.5"/>
<text text-anchor="middle" x="428.5" y="-45.5" font-family="Helvetica,sans-Serif" font-size="10.00">isIn</text>
</a>
</g>
</g>
<!-- Node5&#45;&gt;Node6 -->
<g id="edge8" class="edge">
<title>Node5&#45;&gt;Node6</title>
<path fill="none" stroke="midnightblue" d="M342.36,-48C363.99,-48 385.88,-48 402.05,-48"/>
<polygon fill="midnightblue" stroke="midnightblue" points="402.26,-51.5 412.26,-48 402.26,-44.5 402.26,-51.5"/>
</g>
</g>
</svg>
