<?xml version="1.0" encoding="UTF-8" standalone="no"?>
<!DOCTYPE svg PUBLIC "-//W3C//DTD SVG 1.1//EN"
 "http://www.w3.org/Graphics/SVG/1.1/DTD/svg11.dtd">
<!-- Generated by graphviz version 3.0.0 (20220413.0106)
 -->
<!-- Title: SyntaxAnalyzer::syntaxFactor Pages: 1 -->
<svg width="1228pt" height="1018pt"
 viewBox="0.00 0.00 1228.00 1018.41" xmlns="http://www.w3.org/2000/svg" xmlns:xlink="http://www.w3.org/1999/xlink">
<g id="graph0" class="graph" transform="scale(1 1) rotate(0) translate(4 1014.41)">
<title>SyntaxAnalyzer::syntaxFactor</title>
<!-- Node1 -->
<g id="node1" class="node">
<title>Node1</title>
<g id="a_node1"><a xlink:title=" ">
<polygon fill="#bfbfbf" stroke="black" points="0,-388.85 0,-407.85 143,-407.85 143,-388.85 0,-388.85"/>
<text text-anchor="middle" x="71.5" y="-395.85" font-family="Helvetica,sans-Serif" font-size="10.00">SyntaxAnalyzer::syntaxFactor</text>
</a>
</g>
</g>
<!-- Node1&#45;&gt;Node1 -->
<g id="edge41" class="edge">
<title>Node1&#45;&gt;Node1</title>
<path fill="none" stroke="midnightblue" d="M44.07,-408.11C30.72,-416.92 39.86,-426.35 71.5,-426.35 93.25,-426.35 104.37,-421.89 104.86,-416.24"/>
<polygon fill="midnightblue" stroke="midnightblue" points="107.65,-414.13 98.93,-408.11 101.99,-418.25 107.65,-414.13"/>
</g>
<!-- Node2 -->
<g id="node2" class="node">
<title>Node2</title>
<g id="a_node2"><a xlink:href="../../d7/d7c/class_a_s_t_factory.html#a8d1d4c9d01ab2e366d1af6bbaeaf7bef" target="_top" xlink:title=" ">
<polygon fill="none" stroke="black" points="917,-188.85 917,-207.85 1036,-207.85 1036,-188.85 917,-188.85"/>
<text text-anchor="middle" x="976.5" y="-195.85" font-family="Helvetica,sans-Serif" font-size="10.00">ASTFactory::createAST</text>
</a>
</g>
</g>
<!-- Node1&#45;&gt;Node2 -->
<g id="edge1" class="edge">
<title>Node1&#45;&gt;Node2</title>
<path fill="none" stroke="midnightblue" d="M72.01,-388.57C70.34,-342.9 70.03,-149.55 179,-70.35 229.27,-33.82 613.93,-50.42 881,-142.35 908.43,-151.8 936.63,-169.79 954.99,-182.84"/>
<polygon fill="midnightblue" stroke="midnightblue" points="953.03,-185.73 963.17,-188.79 957.15,-180.07 953.03,-185.73"/>
</g>
<!-- Node3 -->
<g id="node3" class="node">
<title>Node3</title>
<g id="a_node3"><a xlink:href="../../d0/d11/class_i_token.html#a3e73305ee0ac36d0bf5f26b649589b24" target="_top" xlink:title=" ">
<polygon fill="none" stroke="black" points="1094.5,-93.85 1094.5,-112.85 1197.5,-112.85 1197.5,-93.85 1094.5,-93.85"/>
<text text-anchor="middle" x="1146" y="-100.85" font-family="Helvetica,sans-Serif" font-size="10.00">IToken::getAdvType</text>
</a>
</g>
</g>
<!-- Node1&#45;&gt;Node3 -->
<g id="edge11" class="edge">
<title>Node1&#45;&gt;Node3</title>
<path fill="none" stroke="midnightblue" d="M78.72,-388.53C93.73,-365.37 134.05,-306.47 179,-268.35 249.01,-208.99 270.95,-194.45 358,-165.35 616.75,-78.86 948.96,-89.39 1083.93,-98.35"/>
<polygon fill="midnightblue" stroke="midnightblue" points="1083.85,-101.86 1094.07,-99.05 1084.33,-94.87 1083.85,-101.86"/>
</g>
<!-- Node4 -->
<g id="node4" class="node">
<title>Node4</title>
<g id="a_node4"><a xlink:href="../../d0/d11/class_i_token.html#ac7f0a800d7a9e8608bab0360c76d735a" target="_top" xlink:title="Получение типа токена">
<polygon fill="none" stroke="black" points="1103,-302.85 1103,-321.85 1189,-321.85 1189,-302.85 1103,-302.85"/>
<text text-anchor="middle" x="1146" y="-309.85" font-family="Helvetica,sans-Serif" font-size="10.00">IToken::getType</text>
</a>
</g>
</g>
<!-- Node1&#45;&gt;Node4 -->
<g id="edge13" class="edge">
<title>Node1&#45;&gt;Node4</title>
<path fill="none" stroke="midnightblue" d="M72.07,-388.64C70.62,-342.33 70.96,-142.37 179,-48.35 264.88,26.38 318.16,-8.35 432,-8.35 432,-8.35 432,-8.35 627,-8.35 824.03,-8.35 882.21,-56.2 1036,-179.35 1058.26,-197.18 1108,-262.47 1131.81,-294.45"/>
<polygon fill="midnightblue" stroke="midnightblue" points="1129.02,-296.57 1137.79,-302.52 1134.65,-292.4 1129.02,-296.57"/>
</g>
<!-- Node6 -->
<g id="node6" class="node">
<title>Node6</title>
<g id="a_node6"><a xlink:href="../../d0/dfe/class_syntax_analyzer.html#ae1d3434e5cc4b4bcd5a3a245814a44f0" target="_top" xlink:title=" ">
<polygon fill="none" stroke="black" points="926,-701.85 926,-720.85 1027,-720.85 1027,-701.85 926,-701.85"/>
<text text-anchor="middle" x="976.5" y="-708.85" font-family="Helvetica,sans-Serif" font-size="10.00">SyntaxAnalyzer::eat</text>
</a>
</g>
</g>
<!-- Node1&#45;&gt;Node6 -->
<g id="edge5" class="edge">
<title>Node1&#45;&gt;Node6</title>
<path fill="none" stroke="midnightblue" d="M72.81,-408.08C75.15,-475.12 92.49,-868.22 179,-939.35 235.47,-985.79 436.33,-953.82 508,-939.35 684.31,-903.76 725.03,-871.94 881,-782.35 909.08,-766.22 938.46,-742.99 956.86,-727.55"/>
<polygon fill="midnightblue" stroke="midnightblue" points="959.14,-730.2 964.49,-721.06 954.61,-724.87 959.14,-730.2"/>
</g>
<!-- Node7 -->
<g id="node7" class="node">
<title>Node7</title>
<g id="a_node7"><a xlink:href="../../d0/dfe/class_syntax_analyzer.html#a3ae6c7319e61cd669c417f189b098374" target="_top" xlink:title=" ">
<polygon fill="none" stroke="black" points="1080,-701.85 1080,-720.85 1212,-720.85 1212,-701.85 1080,-701.85"/>
<text text-anchor="middle" x="1146" y="-708.85" font-family="Helvetica,sans-Serif" font-size="10.00">SyntaxAnalyzer::getCurTok</text>
</a>
</g>
</g>
<!-- Node1&#45;&gt;Node7 -->
<g id="edge12" class="edge">
<title>Node1&#45;&gt;Node7</title>
<path fill="none" stroke="midnightblue" d="M75.85,-408.13C94.37,-460.67 189.61,-711.45 358,-827.35 482.16,-912.82 905.52,-922.82 1036,-847.35 1084.71,-819.18 1120.17,-760.16 1135.93,-729.99"/>
<polygon fill="midnightblue" stroke="midnightblue" points="1139.11,-731.45 1140.51,-720.95 1132.87,-728.29 1139.11,-731.45"/>
</g>
<!-- Node9 -->
<g id="node9" class="node">
<title>Node9</title>
<g id="a_node9"><a xlink:href="../../d0/dfe/class_syntax_analyzer.html#a9952c4a2db0a1382b9c94f40dd535fae" target="_top" xlink:title=" ">
<polygon fill="none" stroke="black" points="917.5,-948.85 917.5,-967.85 1035.5,-967.85 1035.5,-948.85 917.5,-948.85"/>
<text text-anchor="middle" x="976.5" y="-955.85" font-family="Helvetica,sans-Serif" font-size="10.00">SyntaxAnalyzer::eatAdv</text>
</a>
</g>
</g>
<!-- Node1&#45;&gt;Node9 -->
<g id="edge8" class="edge">
<title>Node1&#45;&gt;Node9</title>
<path fill="none" stroke="midnightblue" d="M72.82,-407.98C75.25,-476.1 93.36,-885 179,-965.35 261.62,-1042.87 318.71,-996.35 432,-996.35 432,-996.35 432,-996.35 627,-996.35 726.92,-996.35 842.01,-980.72 911.72,-969.51"/>
<polygon fill="midnightblue" stroke="midnightblue" points="912.36,-972.96 921.67,-967.89 911.24,-966.05 912.36,-972.96"/>
</g>
<!-- Node10 -->
<g id="node10" class="node">
<title>Node10</title>
<g id="a_node10"><a xlink:href="../../d0/dfe/class_syntax_analyzer.html#af0905389742c4f842207bb2c073afbfa" target="_top" xlink:title=" ">
<polygon fill="none" stroke="black" points="182,-910.85 182,-929.85 319,-929.85 319,-910.85 182,-910.85"/>
<text text-anchor="middle" x="250.5" y="-917.85" font-family="Helvetica,sans-Serif" font-size="10.00">SyntaxAnalyzer::lookFoward</text>
</a>
</g>
</g>
<!-- Node1&#45;&gt;Node10 -->
<g id="edge14" class="edge">
<title>Node1&#45;&gt;Node10</title>
<path fill="none" stroke="midnightblue" d="M73.3,-408.23C78.62,-471.48 110.71,-819.54 179,-896.35 182.32,-900.08 186.23,-903.23 190.5,-905.89"/>
<polygon fill="midnightblue" stroke="midnightblue" points="189.17,-909.15 199.65,-910.7 192.42,-902.95 189.17,-909.15"/>
</g>
<!-- Node12 -->
<g id="node12" class="node">
<title>Node12</title>
<g id="a_node12"><a xlink:href="../../d0/dfe/class_syntax_analyzer.html#a2db43946bee3e973ce1cf293b262e271" target="_top" xlink:title=" ">
<polygon fill="none" stroke="black" points="180,-445.85 180,-464.85 321,-464.85 321,-445.85 180,-445.85"/>
<text text-anchor="middle" x="250.5" y="-452.85" font-family="Helvetica,sans-Serif" font-size="10.00">SyntaxAnalyzer::syntaxCallSt</text>
</a>
</g>
</g>
<!-- Node1&#45;&gt;Node12 -->
<g id="edge16" class="edge">
<title>Node1&#45;&gt;Node12</title>
<path fill="none" stroke="midnightblue" d="M102.13,-407.89C131.74,-417.43 177.44,-432.15 210.09,-442.66"/>
<polygon fill="midnightblue" stroke="midnightblue" points="209.19,-446.05 219.78,-445.78 211.33,-439.39 209.19,-446.05"/>
</g>
<!-- Node14 -->
<g id="node14" class="node">
<title>Node14</title>
<g id="a_node14"><a xlink:href="../../d0/dfe/class_syntax_analyzer.html#ae8d09db1b25ec882248aeed978c13a4d" target="_top" xlink:title=" ">
<polygon fill="none" stroke="black" points="366,-445.85 366,-464.85 500,-464.85 500,-445.85 366,-445.85"/>
<text text-anchor="middle" x="433" y="-452.85" font-family="Helvetica,sans-Serif" font-size="10.00">SyntaxAnalyzer::syntaxExpr</text>
</a>
</g>
</g>
<!-- Node1&#45;&gt;Node14 -->
<g id="edge40" class="edge">
<title>Node1&#45;&gt;Node14</title>
<path fill="none" stroke="midnightblue" d="M137.44,-407.88C187.82,-415.36 259.4,-426.18 322,-436.35 336.84,-438.77 352.79,-441.46 367.82,-444.05"/>
<polygon fill="midnightblue" stroke="midnightblue" points="367.6,-447.56 378.05,-445.81 368.79,-440.66 367.6,-447.56"/>
</g>
<!-- Node18 -->
<g id="node18" class="node">
<title>Node18</title>
<g id="a_node18"><a xlink:href="../../d0/dfe/class_syntax_analyzer.html#a1264dcb50cb09c564a36125c21043298" target="_top" xlink:title=" ">
<polygon fill="none" stroke="black" points="179,-369.85 179,-388.85 322,-388.85 322,-369.85 179,-369.85"/>
<text text-anchor="middle" x="250.5" y="-376.85" font-family="Helvetica,sans-Serif" font-size="10.00">SyntaxAnalyzer::syntaxSelect</text>
</a>
</g>
</g>
<!-- Node1&#45;&gt;Node18 -->
<g id="edge42" class="edge">
<title>Node1&#45;&gt;Node18</title>
<path fill="none" stroke="midnightblue" d="M143.22,-390.76C151.66,-389.86 160.33,-388.93 168.9,-388.01"/>
<polygon fill="midnightblue" stroke="midnightblue" points="169.32,-391.48 178.89,-386.93 168.58,-384.52 169.32,-391.48"/>
</g>
<!-- Node19 -->
<g id="node19" class="node">
<title>Node19</title>
<g id="a_node19"><a xlink:href="../../d0/dfe/class_syntax_analyzer.html#a94c8a6ab5c0e53cae22edb1a840a27ce" target="_top" xlink:title=" ">
<polygon fill="none" stroke="black" points="358,-231.85 358,-250.85 508,-250.85 508,-231.85 358,-231.85"/>
<text text-anchor="middle" x="433" y="-238.85" font-family="Helvetica,sans-Serif" font-size="10.00">SyntaxAnalyzer::syntaxVariable</text>
</a>
</g>
</g>
<!-- Node1&#45;&gt;Node19 -->
<g id="edge53" class="edge">
<title>Node1&#45;&gt;Node19</title>
<path fill="none" stroke="midnightblue" d="M84.64,-388.71C103.77,-373.89 142.52,-345.33 179,-327.35 247.27,-293.71 331.95,-267.87 383.96,-253.65"/>
<polygon fill="midnightblue" stroke="midnightblue" points="385.17,-256.94 393.91,-250.96 383.35,-250.19 385.17,-256.94"/>
</g>
<!-- Node2&#45;&gt;Node3 -->
<g id="edge2" class="edge">
<title>Node2&#45;&gt;Node3</title>
<path fill="none" stroke="midnightblue" d="M994.48,-188.72C1023.83,-172.08 1084.21,-137.83 1118.91,-118.15"/>
<polygon fill="midnightblue" stroke="midnightblue" points="1121,-120.99 1127.97,-113.01 1117.55,-114.9 1121,-120.99"/>
</g>
<!-- Node2&#45;&gt;Node4 -->
<g id="edge3" class="edge">
<title>Node2&#45;&gt;Node4</title>
<path fill="none" stroke="midnightblue" d="M991.49,-207.88C1020.36,-227.53 1086.78,-272.73 1122.04,-296.72"/>
<polygon fill="midnightblue" stroke="midnightblue" points="1120.46,-299.88 1130.69,-302.62 1124.39,-294.1 1120.46,-299.88"/>
</g>
<!-- Node5 -->
<g id="node5" class="node">
<title>Node5</title>
<g id="a_node5"><a xlink:href="../../db/dc1/class_token.html#a1f07fa2fffeb2f7ab803ef8b424eae8a" target="_top" xlink:title=" ">
<polygon fill="none" stroke="black" points="1109,-188.85 1109,-207.85 1183,-207.85 1183,-188.85 1109,-188.85"/>
<text text-anchor="middle" x="1146" y="-195.85" font-family="Helvetica,sans-Serif" font-size="10.00">Token::setStr</text>
</a>
</g>
</g>
<!-- Node2&#45;&gt;Node5 -->
<g id="edge4" class="edge">
<title>Node2&#45;&gt;Node5</title>
<path fill="none" stroke="midnightblue" d="M1036.08,-198.35C1056.56,-198.35 1079.24,-198.35 1098.58,-198.35"/>
<polygon fill="midnightblue" stroke="midnightblue" points="1098.66,-201.85 1108.65,-198.35 1098.65,-194.85 1098.66,-201.85"/>
</g>
<!-- Node6&#45;&gt;Node7 -->
<g id="edge6" class="edge">
<title>Node6&#45;&gt;Node7</title>
<path fill="none" stroke="midnightblue" d="M1027.3,-711.35C1040.57,-711.35 1055.21,-711.35 1069.52,-711.35"/>
<polygon fill="midnightblue" stroke="midnightblue" points="1069.86,-714.85 1079.86,-711.35 1069.86,-707.85 1069.86,-714.85"/>
</g>
<!-- Node8 -->
<g id="node8" class="node">
<title>Node8</title>
<g id="a_node8"><a xlink:href="../../d0/dfe/class_syntax_analyzer.html#a9e41370d8d74fbd2e77648d2071e7dfe" target="_top" xlink:title=" ">
<polygon fill="none" stroke="black" points="1072,-853.85 1072,-872.85 1220,-872.85 1220,-853.85 1072,-853.85"/>
<text text-anchor="middle" x="1146" y="-860.85" font-family="Helvetica,sans-Serif" font-size="10.00">SyntaxAnalyzer::getNextToken</text>
</a>
</g>
</g>
<!-- Node6&#45;&gt;Node8 -->
<g id="edge7" class="edge">
<title>Node6&#45;&gt;Node8</title>
<path fill="none" stroke="midnightblue" d="M987.98,-720.86C1015.83,-746.13 1091.94,-815.2 1126.94,-846.97"/>
<polygon fill="midnightblue" stroke="midnightblue" points="1124.77,-849.72 1134.53,-853.85 1129.47,-844.54 1124.77,-849.72"/>
</g>
<!-- Node9&#45;&gt;Node7 -->
<g id="edge9" class="edge">
<title>Node9&#45;&gt;Node7</title>
<path fill="none" stroke="midnightblue" d="M1013.67,-948.76C1021.79,-945.27 1029.82,-940.59 1036,-934.35 1066.33,-903.76 1053.6,-883.31 1072,-844.35 1091.76,-802.51 1118.78,-755.46 1133.79,-730.06"/>
<polygon fill="midnightblue" stroke="midnightblue" points="1136.98,-731.53 1139.08,-721.15 1130.97,-727.96 1136.98,-731.53"/>
</g>
<!-- Node9&#45;&gt;Node8 -->
<g id="edge10" class="edge">
<title>Node9&#45;&gt;Node8</title>
<path fill="none" stroke="midnightblue" d="M1003.9,-948.75C1014.12,-944.71 1025.79,-939.71 1036,-934.35 1067.85,-917.64 1102.25,-894.25 1123.71,-878.95"/>
<polygon fill="midnightblue" stroke="midnightblue" points="1125.99,-881.62 1132.07,-872.93 1121.9,-875.93 1125.99,-881.62"/>
</g>
<!-- Node11 -->
<g id="node11" class="node">
<title>Node11</title>
<g id="a_node11"><a xlink:href="../../d1/d34/class_list.html#a49c179636e084dfbf7a52acd46acaf01" target="_top" xlink:title=" ">
<polygon fill="none" stroke="black" points="405.5,-910.85 405.5,-929.85 460.5,-929.85 460.5,-910.85 405.5,-910.85"/>
<text text-anchor="middle" x="433" y="-917.85" font-family="Helvetica,sans-Serif" font-size="10.00">List::size</text>
</a>
</g>
</g>
<!-- Node10&#45;&gt;Node11 -->
<g id="edge15" class="edge">
<title>Node10&#45;&gt;Node11</title>
<path fill="none" stroke="midnightblue" d="M319.23,-920.35C345.02,-920.35 373.43,-920.35 395.28,-920.35"/>
<polygon fill="midnightblue" stroke="midnightblue" points="395.44,-923.85 405.44,-920.35 395.44,-916.85 395.44,-923.85"/>
</g>
<!-- Node12&#45;&gt;Node2 -->
<g id="edge17" class="edge">
<title>Node12&#45;&gt;Node2</title>
<path fill="none" stroke="midnightblue" d="M295.25,-445.81C359.84,-430.98 476.49,-401.09 508,-372.35 538.01,-344.98 512.47,-313.96 544,-288.35 601.71,-241.47 640.14,-285.74 708,-255.35 726.25,-247.18 725.47,-235.89 744,-228.35 795.94,-207.23 859.35,-200.18 906.67,-198.16"/>
<polygon fill="midnightblue" stroke="midnightblue" points="906.94,-201.65 916.81,-197.79 906.69,-194.65 906.94,-201.65"/>
</g>
<!-- Node12&#45;&gt;Node6 -->
<g id="edge18" class="edge">
<title>Node12&#45;&gt;Node6</title>
<path fill="none" stroke="midnightblue" d="M251.48,-465.12C251.97,-507.48 260.19,-676.15 358,-744.35 545.55,-875.12 848.39,-765.48 944.91,-724.92"/>
<polygon fill="midnightblue" stroke="midnightblue" points="946.55,-728.03 954.37,-720.89 943.8,-721.59 946.55,-728.03"/>
</g>
<!-- Node12&#45;&gt;Node7 -->
<g id="edge19" class="edge">
<title>Node12&#45;&gt;Node7</title>
<path fill="none" stroke="midnightblue" d="M251.28,-465.12C250.86,-509.91 255.44,-697.33 358,-785.35 472.48,-883.61 896.62,-878.09 1036,-820.35 1080.48,-801.93 1116.28,-755.57 1133.62,-729.64"/>
<polygon fill="midnightblue" stroke="midnightblue" points="1136.66,-731.39 1139.16,-721.1 1130.79,-727.58 1136.66,-731.39"/>
</g>
<!-- Node13 -->
<g id="node13" class="node">
<title>Node13</title>
<g id="a_node13"><a xlink:href="../../d0/d11/class_i_token.html#a4fa3435db7157ca7316d4e4aee1df4c0" target="_top" xlink:title="Устанавливает дополнительный тип токена">
<polygon fill="none" stroke="black" points="574.5,-226.85 574.5,-245.85 677.5,-245.85 677.5,-226.85 574.5,-226.85"/>
<text text-anchor="middle" x="626" y="-233.85" font-family="Helvetica,sans-Serif" font-size="10.00">IToken::setAdvType</text>
</a>
</g>
</g>
<!-- Node12&#45;&gt;Node13 -->
<g id="edge20" class="edge">
<title>Node12&#45;&gt;Node13</title>
<path fill="none" stroke="midnightblue" d="M270.68,-445.75C326.89,-417.5 488.49,-335.55 508,-317.35 529.91,-296.92 520.11,-278.43 544,-260.35 550.25,-255.62 557.42,-251.82 564.85,-248.77"/>
<polygon fill="midnightblue" stroke="midnightblue" points="566.18,-252.01 574.36,-245.29 563.77,-245.44 566.18,-252.01"/>
</g>
<!-- Node12&#45;&gt;Node14 -->
<g id="edge21" class="edge">
<title>Node12&#45;&gt;Node14</title>
<path fill="none" stroke="midnightblue" d="M321.03,-455.35C332.4,-455.35 344.23,-455.35 355.75,-455.35"/>
<polygon fill="midnightblue" stroke="midnightblue" points="355.77,-458.85 365.77,-455.35 355.77,-451.85 355.77,-458.85"/>
</g>
<!-- Node14&#45;&gt;Node2 -->
<g id="edge22" class="edge">
<title>Node14&#45;&gt;Node2</title>
<path fill="none" stroke="midnightblue" d="M484.35,-445.78C493.01,-442.35 501.35,-437.69 508,-431.35 540.69,-400.21 510.86,-367.02 544,-336.35 599.74,-284.77 635.55,-311.13 708,-288.35 790.82,-262.31 887.14,-229.2 938.6,-211.29"/>
<polygon fill="midnightblue" stroke="midnightblue" points="939.99,-214.51 948.28,-207.91 937.68,-207.9 939.99,-214.51"/>
</g>
<!-- Node14&#45;&gt;Node4 -->
<g id="edge25" class="edge">
<title>Node14&#45;&gt;Node4</title>
<path fill="none" stroke="midnightblue" d="M469.72,-445.79C482.1,-441.94 495.91,-437.06 508,-431.35 525.17,-423.25 526.25,-415.1 544,-408.35 737.07,-334.92 985.73,-317.66 1092.5,-313.6"/>
<polygon fill="midnightblue" stroke="midnightblue" points="1092.82,-317.09 1102.69,-313.24 1092.57,-310.1 1092.82,-317.09"/>
</g>
<!-- Node14&#45;&gt;Node6 -->
<g id="edge23" class="edge">
<title>Node14&#45;&gt;Node6</title>
<path fill="none" stroke="midnightblue" d="M436.92,-464.86C446.64,-494.73 480.86,-587.28 544,-630.35 658.02,-708.14 826.63,-716.41 915.56,-714.59"/>
<polygon fill="midnightblue" stroke="midnightblue" points="915.83,-718.08 925.74,-714.33 915.65,-711.08 915.83,-718.08"/>
</g>
<!-- Node14&#45;&gt;Node7 -->
<g id="edge24" class="edge">
<title>Node14&#45;&gt;Node7</title>
<path fill="none" stroke="midnightblue" d="M460.57,-464.92C569.68,-504.21 983.35,-653.15 1108.75,-698.3"/>
<polygon fill="midnightblue" stroke="midnightblue" points="1107.7,-701.64 1118.29,-701.74 1110.07,-695.06 1107.7,-701.64"/>
</g>
<!-- Node15 -->
<g id="node15" class="node">
<title>Node15</title>
<g id="a_node15"><a xlink:href="../../db/d0e/sup_8hpp.html#ae7d62ca130413d4c96863327c1af81a4" target="_top" xlink:title="Возвращает истину, если value находится среди значений cont.">
<polygon fill="none" stroke="black" points="960.5,-378.85 960.5,-397.85 992.5,-397.85 992.5,-378.85 960.5,-378.85"/>
<text text-anchor="middle" x="976.5" y="-385.85" font-family="Helvetica,sans-Serif" font-size="10.00">isIn</text>
</a>
</g>
</g>
<!-- Node14&#45;&gt;Node15 -->
<g id="edge26" class="edge">
<title>Node14&#45;&gt;Node15</title>
<path fill="none" stroke="midnightblue" d="M487.88,-445.81C549.59,-435.16 653.82,-418.02 744,-407.35 818.79,-398.51 907.65,-392.46 950.26,-389.83"/>
<polygon fill="midnightblue" stroke="midnightblue" points="950.52,-393.32 960.29,-389.22 950.1,-386.33 950.52,-393.32"/>
</g>
<!-- Node16 -->
<g id="node16" class="node">
<title>Node16</title>
<g id="a_node16"><a xlink:href="../../d0/dfe/class_syntax_analyzer.html#a3dfb6634a4bcdc61da5b1bafd1f3d136" target="_top" xlink:title=" ">
<polygon fill="none" stroke="black" points="544,-454.85 544,-473.85 708,-473.85 708,-454.85 544,-454.85"/>
<text text-anchor="middle" x="626" y="-461.85" font-family="Helvetica,sans-Serif" font-size="10.00">SyntaxAnalyzer::syntaxSimpleExpr</text>
</a>
</g>
</g>
<!-- Node14&#45;&gt;Node16 -->
<g id="edge27" class="edge">
<title>Node14&#45;&gt;Node16</title>
<path fill="none" stroke="midnightblue" d="M500.27,-458.48C510.99,-458.98 522.26,-459.51 533.45,-460.04"/>
<polygon fill="midnightblue" stroke="midnightblue" points="533.54,-463.55 543.7,-460.52 533.87,-456.56 533.54,-463.55"/>
</g>
<!-- Node16&#45;&gt;Node2 -->
<g id="edge28" class="edge">
<title>Node16&#45;&gt;Node2</title>
<path fill="none" stroke="midnightblue" d="M642.48,-454.82C683.06,-429.58 795.31,-358.14 881,-288.35 910.05,-264.69 941,-234.04 959.28,-215.31"/>
<polygon fill="midnightblue" stroke="midnightblue" points="961.85,-217.68 966.29,-208.06 956.82,-212.81 961.85,-217.68"/>
</g>
<!-- Node16&#45;&gt;Node4 -->
<g id="edge31" class="edge">
<title>Node16&#45;&gt;Node4</title>
<path fill="none" stroke="midnightblue" d="M665.66,-473.86C742.91,-490.55 918.95,-516.69 1036,-442.35 1081.59,-413.4 1117.8,-359.22 1134.67,-330.81"/>
<polygon fill="midnightblue" stroke="midnightblue" points="1137.83,-332.33 1139.81,-321.92 1131.78,-328.82 1137.83,-332.33"/>
</g>
<!-- Node16&#45;&gt;Node6 -->
<g id="edge29" class="edge">
<title>Node16&#45;&gt;Node6</title>
<path fill="none" stroke="midnightblue" d="M638.68,-473.93C659.42,-490.81 704.25,-526.68 744,-554.35 803,-595.43 821.77,-599.61 881,-640.35 907.39,-658.5 936.73,-680.92 955.61,-695.65"/>
<polygon fill="midnightblue" stroke="midnightblue" points="953.48,-698.42 963.51,-701.83 957.79,-692.91 953.48,-698.42"/>
</g>
<!-- Node16&#45;&gt;Node7 -->
<g id="edge30" class="edge">
<title>Node16&#45;&gt;Node7</title>
<path fill="none" stroke="midnightblue" d="M654.88,-473.93C678.58,-482.07 713.5,-494.02 744,-504.35 873.65,-548.27 919.63,-530.27 1036,-602.35 1076.15,-627.22 1112.73,-669.59 1131.6,-693.53"/>
<polygon fill="midnightblue" stroke="midnightblue" points="1129.04,-695.95 1137.93,-701.72 1134.58,-691.67 1129.04,-695.95"/>
</g>
<!-- Node16&#45;&gt;Node15 -->
<g id="edge32" class="edge">
<title>Node16&#45;&gt;Node15</title>
<path fill="none" stroke="midnightblue" d="M670.78,-454.81C744.62,-438.7 891.57,-406.66 950.34,-393.84"/>
<polygon fill="midnightblue" stroke="midnightblue" points="951.23,-397.23 960.26,-391.68 949.74,-390.39 951.23,-397.23"/>
</g>
<!-- Node17 -->
<g id="node17" class="node">
<title>Node17</title>
<g id="a_node17"><a xlink:href="../../d0/dfe/class_syntax_analyzer.html#a1e9b913cc8c2861927d7c05d10f1822d" target="_top" xlink:title=" ">
<polygon fill="none" stroke="black" points="744,-454.85 744,-473.85 881,-473.85 881,-454.85 744,-454.85"/>
<text text-anchor="middle" x="812.5" y="-461.85" font-family="Helvetica,sans-Serif" font-size="10.00">SyntaxAnalyzer::syntaxTerm</text>
</a>
</g>
</g>
<!-- Node16&#45;&gt;Node17 -->
<g id="edge33" class="edge">
<title>Node16&#45;&gt;Node17</title>
<path fill="none" stroke="midnightblue" d="M708.19,-464.35C716.65,-464.35 725.23,-464.35 733.64,-464.35"/>
<polygon fill="midnightblue" stroke="midnightblue" points="733.81,-467.85 743.81,-464.35 733.81,-460.85 733.81,-467.85"/>
</g>
<!-- Node17&#45;&gt;Node1 -->
<g id="edge39" class="edge">
<title>Node17&#45;&gt;Node1</title>
<path fill="none" stroke="midnightblue" d="M778.35,-454.79C699.9,-432.71 496.32,-378.67 322,-360.35 258.79,-353.71 241.62,-349.52 179,-360.35 152.11,-365.01 123.03,-375.81 102.06,-384.71"/>
<polygon fill="midnightblue" stroke="midnightblue" points="100.52,-381.56 92.75,-388.77 103.31,-387.98 100.52,-381.56"/>
</g>
<!-- Node17&#45;&gt;Node2 -->
<g id="edge34" class="edge">
<title>Node17&#45;&gt;Node2</title>
<path fill="none" stroke="midnightblue" d="M820.46,-454.58C832.99,-436.87 860.01,-398.16 881,-364.35 913.53,-311.96 948.67,-248.08 965.46,-217.06"/>
<polygon fill="midnightblue" stroke="midnightblue" points="968.75,-218.32 970.42,-207.86 962.59,-215 968.75,-218.32"/>
</g>
<!-- Node17&#45;&gt;Node4 -->
<g id="edge37" class="edge">
<title>Node17&#45;&gt;Node4</title>
<path fill="none" stroke="midnightblue" d="M881.19,-455.42C926.88,-447.41 987.46,-432.86 1036,-407.35 1074.25,-387.25 1110.35,-351.23 1129.89,-329.78"/>
<polygon fill="midnightblue" stroke="midnightblue" points="1132.71,-331.88 1136.76,-322.09 1127.49,-327.21 1132.71,-331.88"/>
</g>
<!-- Node17&#45;&gt;Node6 -->
<g id="edge35" class="edge">
<title>Node17&#45;&gt;Node6</title>
<path fill="none" stroke="midnightblue" d="M820.09,-473.96C832.25,-491.72 858.99,-530.95 881,-564.35 911.31,-610.36 946.17,-665.06 963.87,-692.98"/>
<polygon fill="midnightblue" stroke="midnightblue" points="961.07,-695.1 969.38,-701.67 966.99,-691.35 961.07,-695.1"/>
</g>
<!-- Node17&#45;&gt;Node7 -->
<g id="edge36" class="edge">
<title>Node17&#45;&gt;Node7</title>
<path fill="none" stroke="midnightblue" d="M881.22,-469.87C928.66,-476.71 991.32,-492.03 1036,-526.35 1093.31,-570.38 1126.33,-653.82 1138.98,-691.73"/>
<polygon fill="midnightblue" stroke="midnightblue" points="1135.74,-693.09 1142.14,-701.54 1142.41,-690.95 1135.74,-693.09"/>
</g>
<!-- Node17&#45;&gt;Node15 -->
<g id="edge38" class="edge">
<title>Node17&#45;&gt;Node15</title>
<path fill="none" stroke="midnightblue" d="M847.03,-454.79C858.17,-451 870.42,-446.15 881,-440.35 898.78,-430.61 899.46,-422.52 917,-412.35 927.51,-406.26 939.86,-400.96 950.5,-396.89"/>
<polygon fill="midnightblue" stroke="midnightblue" points="951.87,-400.11 960.06,-393.39 949.47,-393.54 951.87,-400.11"/>
</g>
<!-- Node18&#45;&gt;Node2 -->
<g id="edge43" class="edge">
<title>Node18&#45;&gt;Node2</title>
<path fill="none" stroke="midnightblue" d="M255.37,-369.58C266.76,-342.11 302.83,-263.52 358,-222.35 427.51,-170.49 458.29,-176.62 544,-163.35 692.02,-140.44 733.52,-138.19 881,-164.35 903.41,-168.33 927.54,-177.09 945.8,-184.72"/>
<polygon fill="midnightblue" stroke="midnightblue" points="944.47,-187.96 955.04,-188.7 947.24,-181.53 944.47,-187.96"/>
</g>
<!-- Node18&#45;&gt;Node6 -->
<g id="edge44" class="edge">
<title>Node18&#45;&gt;Node6</title>
<path fill="none" stroke="midnightblue" d="M264.44,-388.92C278.94,-399.84 302.92,-418.5 322,-436.35 375.05,-485.99 480.62,-640.83 544,-676.35 662.25,-742.63 828.06,-732.89 915.72,-721.35"/>
<polygon fill="midnightblue" stroke="midnightblue" points="916.32,-724.8 925.75,-719.98 915.37,-717.87 916.32,-724.8"/>
</g>
<!-- Node18&#45;&gt;Node7 -->
<g id="edge45" class="edge">
<title>Node18&#45;&gt;Node7</title>
<path fill="none" stroke="midnightblue" d="M268.98,-389.01C285.15,-398.84 308.64,-415.57 322,-436.35 356.74,-490.4 322.14,-523.04 358,-576.35 415.45,-661.77 448.65,-675.58 544,-714.35 736.69,-792.72 993.75,-747.21 1098.06,-723.24"/>
<polygon fill="midnightblue" stroke="midnightblue" points="1099.02,-726.61 1107.96,-720.92 1097.43,-719.79 1099.02,-726.61"/>
</g>
<!-- Node18&#45;&gt;Node13 -->
<g id="edge46" class="edge">
<title>Node18&#45;&gt;Node13</title>
<path fill="none" stroke="midnightblue" d="M272.87,-369.81C320.81,-348.6 440.79,-296.54 544,-260.35 555.68,-256.26 568.46,-252.26 580.34,-248.73"/>
<polygon fill="midnightblue" stroke="midnightblue" points="581.46,-252.05 590.07,-245.89 579.49,-245.33 581.46,-252.05"/>
</g>
<!-- Node18&#45;&gt;Node14 -->
<g id="edge47" class="edge">
<title>Node18&#45;&gt;Node14</title>
<path fill="none" stroke="midnightblue" d="M281.97,-388.89C294.49,-393.02 309.06,-398.11 322,-403.35 350.48,-414.89 382.11,-430.11 404.12,-441.1"/>
<polygon fill="midnightblue" stroke="midnightblue" points="402.71,-444.3 413.21,-445.67 405.85,-438.05 402.71,-444.3"/>
</g>
<!-- Node18&#45;&gt;Node19 -->
<g id="edge48" class="edge">
<title>Node18&#45;&gt;Node19</title>
<path fill="none" stroke="midnightblue" d="M260.92,-369.75C278.84,-351.75 319.49,-312.28 358,-284.35 372.6,-273.76 390,-263.55 404.25,-255.73"/>
<polygon fill="midnightblue" stroke="midnightblue" points="405.96,-258.79 413.11,-250.96 402.64,-252.62 405.96,-258.79"/>
</g>
<!-- Node19&#45;&gt;Node2 -->
<g id="edge49" class="edge">
<title>Node19&#45;&gt;Node2</title>
<path fill="none" stroke="midnightblue" d="M447.38,-231.69C467.28,-217.98 506.38,-193.52 544,-184.35 675.42,-152.33 836,-172.41 919.3,-187.05"/>
<polygon fill="midnightblue" stroke="midnightblue" points="918.86,-190.53 929.32,-188.85 920.09,-183.64 918.86,-190.53"/>
</g>
<!-- Node19&#45;&gt;Node6 -->
<g id="edge50" class="edge">
<title>Node19&#45;&gt;Node6</title>
<path fill="none" stroke="midnightblue" d="M436.31,-251.22C444.98,-286.41 478.41,-407.67 544,-483.35 650.86,-606.66 841.13,-673.47 928.85,-699.01"/>
<polygon fill="midnightblue" stroke="midnightblue" points="927.94,-702.39 938.52,-701.78 929.87,-695.66 927.94,-702.39"/>
</g>
<!-- Node19&#45;&gt;Node7 -->
<g id="edge51" class="edge">
<title>Node19&#45;&gt;Node7</title>
<path fill="none" stroke="midnightblue" d="M468.17,-231.81C520.45,-218.67 623.13,-198.64 708,-217.35 864.9,-251.94 929.73,-248.85 1036,-369.35 1122.38,-467.3 1140.38,-634.07 1144.07,-691.35"/>
<polygon fill="midnightblue" stroke="midnightblue" points="1140.59,-691.78 1144.64,-701.57 1147.58,-691.38 1140.59,-691.78"/>
</g>
<!-- Node19&#45;&gt;Node13 -->
<g id="edge52" class="edge">
<title>Node19&#45;&gt;Node13</title>
<path fill="none" stroke="midnightblue" d="M508.12,-239.41C526.61,-238.93 546.24,-238.42 564.02,-237.95"/>
<polygon fill="midnightblue" stroke="midnightblue" points="564.35,-241.44 574.25,-237.68 564.16,-234.45 564.35,-241.44"/>
</g>
</g>
</svg>
