<?xml version="1.0" encoding="UTF-8" standalone="no"?>
<!DOCTYPE svg PUBLIC "-//W3C//DTD SVG 1.1//EN"
 "http://www.w3.org/Graphics/SVG/1.1/DTD/svg11.dtd">
<!-- Generated by graphviz version 2.43.0 (0)
 -->
<!-- Title: SyntaxAnalyzer::factor Pages: 1 -->
<svg width="1202pt" height="731pt"
 viewBox="0.00 0.00 1202.00 731.00" xmlns="http://www.w3.org/2000/svg" xmlns:xlink="http://www.w3.org/1999/xlink">
<g id="graph0" class="graph" transform="scale(1 1) rotate(0) translate(4 727)">
<title>SyntaxAnalyzer::factor</title>
<!-- Node1 -->
<g id="node1" class="node">
<title>Node1</title>
<g id="a_node1"><a xlink:title=" ">
<polygon fill="#bfbfbf" stroke="black" points="0,-380.5 0,-399.5 128,-399.5 128,-380.5 0,-380.5"/>
<text text-anchor="middle" x="64" y="-387.5" font-family="Helvetica,sans-Serif" font-size="10.00">SyntaxAnalyzer::factor</text>
</a>
</g>
</g>
<!-- Node2 -->
<g id="node2" class="node">
<title>Node2</title>
<g id="a_node2"><a xlink:href="../../d0/dfe/class_syntax_analyzer.html#a5d17bcae2fd7dc11d0710e046c4c3280" target="_top" xlink:title=" ">
<polygon fill="none" stroke="black" points="877,-608.5 877,-627.5 992,-627.5 992,-608.5 877,-608.5"/>
<text text-anchor="middle" x="934.5" y="-615.5" font-family="Helvetica,sans-Serif" font-size="10.00">SyntaxAnalyzer::eat</text>
</a>
</g>
</g>
<!-- Node1&#45;&gt;Node2 -->
<g id="edge1" class="edge">
<title>Node1&#45;&gt;Node2</title>
<path fill="none" stroke="midnightblue" d="M66.01,-399.53C70.28,-434.43 90.14,-555.91 164,-609 358.59,-748.87 462.36,-644.37 702,-645 763.78,-645.16 780.02,-654.9 841,-645 857.65,-642.3 860.84,-637.83 877,-633 880.11,-632.07 883.33,-631.14 886.57,-630.22"/>
<polygon fill="midnightblue" stroke="midnightblue" points="887.63,-633.56 896.33,-627.52 885.76,-626.81 887.63,-633.56"/>
</g>
<!-- Node3 -->
<g id="node3" class="node">
<title>Node3</title>
<g id="a_node3"><a xlink:href="../../d0/dfe/class_syntax_analyzer.html#a3ae6c7319e61cd669c417f189b098374" target="_top" xlink:title=" ">
<polygon fill="none" stroke="black" points="1037,-456.5 1037,-475.5 1185,-475.5 1185,-456.5 1037,-456.5"/>
<text text-anchor="middle" x="1111" y="-463.5" font-family="Helvetica,sans-Serif" font-size="10.00">SyntaxAnalyzer::getCurTok</text>
</a>
</g>
</g>
<!-- Node1&#45;&gt;Node3 -->
<g id="edge20" class="edge">
<title>Node1&#45;&gt;Node3</title>
<path fill="none" stroke="midnightblue" d="M67.2,-380.35C74.65,-350.06 102.03,-256.5 164,-216 351.09,-93.71 442.72,-175.81 666,-186 811.48,-192.64 873.36,-134.55 992,-219 1070.86,-275.13 1098.93,-398.29 1107.11,-446.29"/>
<polygon fill="midnightblue" stroke="midnightblue" points="1103.68,-446.99 1108.71,-456.32 1110.59,-445.89 1103.68,-446.99"/>
</g>
<!-- Node5 -->
<g id="node5" class="node">
<title>Node5</title>
<g id="a_node5"><a xlink:href="../../d0/dfe/class_syntax_analyzer.html#af2aa594232ce4574421351ed10331f50" target="_top" xlink:title=" ">
<polygon fill="none" stroke="black" points="355,-380.5 355,-399.5 476,-399.5 476,-380.5 355,-380.5"/>
<text text-anchor="middle" x="415.5" y="-387.5" font-family="Helvetica,sans-Serif" font-size="10.00">SyntaxAnalyzer::expr</text>
</a>
</g>
</g>
<!-- Node1&#45;&gt;Node5 -->
<g id="edge4" class="edge">
<title>Node1&#45;&gt;Node5</title>
<path fill="none" stroke="midnightblue" d="M128.29,-390C189.32,-390 281.47,-390 344.62,-390"/>
<polygon fill="midnightblue" stroke="midnightblue" points="344.89,-393.5 354.89,-390 344.89,-386.5 344.89,-393.5"/>
</g>
<!-- Node6 -->
<g id="node6" class="node">
<title>Node6</title>
<g id="a_node6"><a xlink:href="../../d0/d11/class_i_token.html#a568cb9d98839eff3fd758f419a76b092" target="_top" xlink:title="Получение типа токена">
<polygon fill="none" stroke="black" points="888.5,-228.5 888.5,-247.5 980.5,-247.5 980.5,-228.5 888.5,-228.5"/>
<text text-anchor="middle" x="934.5" y="-235.5" font-family="Helvetica,sans-Serif" font-size="10.00">IToken::getType</text>
</a>
</g>
</g>
<!-- Node1&#45;&gt;Node6 -->
<g id="edge25" class="edge">
<title>Node1&#45;&gt;Node6</title>
<path fill="none" stroke="midnightblue" d="M74.25,-380.32C112.3,-341.6 261.87,-200 414.5,-200 414.5,-200 414.5,-200 590,-200 692.3,-200 810.7,-216.86 878.38,-228.11"/>
<polygon fill="midnightblue" stroke="midnightblue" points="877.95,-231.59 888.39,-229.8 879.11,-224.69 877.95,-231.59"/>
</g>
<!-- Node10 -->
<g id="node10" class="node">
<title>Node10</title>
<g id="a_node10"><a xlink:href="../../db/dc1/class_token.html#a014ced0a9ea72ae21fad0d4f116d0a73" target="_top" xlink:title=" ">
<polygon fill="none" stroke="black" points="199,-95.5 199,-114.5 284,-114.5 284,-95.5 199,-95.5"/>
<text text-anchor="middle" x="241.5" y="-102.5" font-family="Helvetica,sans-Serif" font-size="10.00">Token::getInfo</text>
</a>
</g>
</g>
<!-- Node1&#45;&gt;Node10 -->
<g id="edge21" class="edge">
<title>Node1&#45;&gt;Node10</title>
<path fill="none" stroke="midnightblue" d="M66.57,-380.49C72.76,-345.51 98.49,-222.17 164,-148 175.09,-135.45 190.76,-125.75 205.03,-118.76"/>
<polygon fill="midnightblue" stroke="midnightblue" points="206.53,-121.93 214.15,-114.56 203.6,-115.57 206.53,-121.93"/>
</g>
<!-- Node13 -->
<g id="node13" class="node">
<title>Node13</title>
<g id="a_node13"><a xlink:href="../../d0/dfe/class_syntax_analyzer.html#af0905389742c4f842207bb2c073afbfa" target="_top" xlink:title=" ">
<polygon fill="none" stroke="black" points="164,-19.5 164,-38.5 319,-38.5 319,-19.5 164,-19.5"/>
<text text-anchor="middle" x="241.5" y="-26.5" font-family="Helvetica,sans-Serif" font-size="10.00">SyntaxAnalyzer::lookFoward</text>
</a>
</g>
</g>
<!-- Node1&#45;&gt;Node13 -->
<g id="edge26" class="edge">
<title>Node1&#45;&gt;Node13</title>
<path fill="none" stroke="midnightblue" d="M66,-380.37C70.56,-340.5 92.3,-185.87 164,-86 176.8,-68.18 196.83,-53.54 213.19,-43.56"/>
<polygon fill="midnightblue" stroke="midnightblue" points="214.97,-46.57 221.83,-38.5 211.43,-40.53 214.97,-46.57"/>
</g>
<!-- Node15 -->
<g id="node15" class="node">
<title>Node15</title>
<g id="a_node15"><a xlink:href="../../d0/dfe/class_syntax_analyzer.html#a1881c173010f7dea8a147b4195b4a739" target="_top" xlink:title=" ">
<polygon fill="none" stroke="black" points="172,-511 172,-541 311,-541 311,-511 172,-511"/>
<text text-anchor="start" x="180" y="-529" font-family="Helvetica,sans-Serif" font-size="10.00">SyntaxAnalyzer::procCall</text>
<text text-anchor="middle" x="241.5" y="-518" font-family="Helvetica,sans-Serif" font-size="10.00">Statement</text>
</a>
</g>
</g>
<!-- Node1&#45;&gt;Node15 -->
<g id="edge28" class="edge">
<title>Node1&#45;&gt;Node15</title>
<path fill="none" stroke="midnightblue" d="M77.34,-399.56C105.27,-421.2 173.89,-474.38 212.66,-504.42"/>
<polygon fill="midnightblue" stroke="midnightblue" points="210.86,-507.46 220.91,-510.82 215.15,-501.93 210.86,-507.46"/>
</g>
<!-- Node16 -->
<g id="node16" class="node">
<title>Node16</title>
<g id="a_node16"><a xlink:href="../../d0/dfe/class_syntax_analyzer.html#aee4c8631363c115e1e0946bf19cfc340" target="_top" xlink:title=" ">
<polygon fill="none" stroke="black" points="702,-703.5 702,-722.5 841,-722.5 841,-703.5 702,-703.5"/>
<text text-anchor="middle" x="771.5" y="-710.5" font-family="Helvetica,sans-Serif" font-size="10.00">SyntaxAnalyzer::variable</text>
</a>
</g>
</g>
<!-- Node1&#45;&gt;Node16 -->
<g id="edge32" class="edge">
<title>Node1&#45;&gt;Node16</title>
<path fill="none" stroke="midnightblue" d="M68.27,-399.5C78.21,-426.99 110.65,-507.38 164,-551 319.72,-678.32 566.15,-706.26 691.55,-711.94"/>
<polygon fill="midnightblue" stroke="midnightblue" points="691.7,-715.45 701.83,-712.37 691.99,-708.45 691.7,-715.45"/>
</g>
<!-- Node2&#45;&gt;Node3 -->
<g id="edge2" class="edge">
<title>Node2&#45;&gt;Node3</title>
<path fill="none" stroke="midnightblue" d="M964.32,-608.5C973.6,-604.74 983.64,-599.89 992,-594 1037.06,-562.25 1077.81,-510.77 1097.52,-483.79"/>
<polygon fill="midnightblue" stroke="midnightblue" points="1100.38,-485.81 1103.37,-475.64 1094.69,-481.72 1100.38,-485.81"/>
</g>
<!-- Node4 -->
<g id="node4" class="node">
<title>Node4</title>
<g id="a_node4"><a xlink:href="../../d0/dfe/class_syntax_analyzer.html#a9e41370d8d74fbd2e77648d2071e7dfe" target="_top" xlink:title=" ">
<polygon fill="none" stroke="black" points="1028,-608.5 1028,-627.5 1194,-627.5 1194,-608.5 1028,-608.5"/>
<text text-anchor="middle" x="1111" y="-615.5" font-family="Helvetica,sans-Serif" font-size="10.00">SyntaxAnalyzer::getNextToken</text>
</a>
</g>
</g>
<!-- Node2&#45;&gt;Node4 -->
<g id="edge3" class="edge">
<title>Node2&#45;&gt;Node4</title>
<path fill="none" stroke="midnightblue" d="M992.16,-618C1000.38,-618 1009.02,-618 1017.73,-618"/>
<polygon fill="midnightblue" stroke="midnightblue" points="1017.96,-621.5 1027.96,-618 1017.96,-614.5 1017.96,-621.5"/>
</g>
<!-- Node5&#45;&gt;Node2 -->
<g id="edge5" class="edge">
<title>Node5&#45;&gt;Node2</title>
<path fill="none" stroke="midnightblue" d="M424.14,-399.59C439.11,-417.79 474.2,-457.54 512,-480 629.01,-549.51 785.37,-588.82 870.97,-606.5"/>
<polygon fill="midnightblue" stroke="midnightblue" points="870.3,-609.93 880.8,-608.5 871.69,-603.07 870.3,-609.93"/>
</g>
<!-- Node5&#45;&gt;Node3 -->
<g id="edge6" class="edge">
<title>Node5&#45;&gt;Node3</title>
<path fill="none" stroke="midnightblue" d="M454.99,-399.61C509.55,-412.78 612.7,-436.07 702,-447 813.82,-460.69 943.99,-464.7 1026.66,-465.78"/>
<polygon fill="midnightblue" stroke="midnightblue" points="1026.72,-469.28 1036.76,-465.9 1026.8,-462.28 1026.72,-469.28"/>
</g>
<!-- Node5&#45;&gt;Node6 -->
<g id="edge7" class="edge">
<title>Node5&#45;&gt;Node6</title>
<path fill="none" stroke="midnightblue" d="M430.99,-380.39C449.38,-368.44 482.26,-347.79 512,-333 593.58,-292.42 613.31,-276.89 702,-256 761.22,-242.05 831.08,-238.29 878.45,-237.56"/>
<polygon fill="midnightblue" stroke="midnightblue" points="878.54,-241.06 888.5,-237.44 878.46,-234.06 878.54,-241.06"/>
</g>
<!-- Node7 -->
<g id="node7" class="node">
<title>Node7</title>
<g id="a_node7"><a xlink:href="../../df/d3f/_syntax_8hpp.html#ae7d62ca130413d4c96863327c1af81a4" target="_top" xlink:title="Возвращает истину, если value находится среди значений cont.">
<polygon fill="none" stroke="black" points="917.5,-380.5 917.5,-399.5 951.5,-399.5 951.5,-380.5 917.5,-380.5"/>
<text text-anchor="middle" x="934.5" y="-387.5" font-family="Helvetica,sans-Serif" font-size="10.00">isIn</text>
</a>
</g>
</g>
<!-- Node5&#45;&gt;Node7 -->
<g id="edge8" class="edge">
<title>Node5&#45;&gt;Node7</title>
<path fill="none" stroke="midnightblue" d="M476.06,-390C588.4,-390 827.45,-390 907.08,-390"/>
<polygon fill="midnightblue" stroke="midnightblue" points="907.22,-393.5 917.22,-390 907.22,-386.5 907.22,-393.5"/>
</g>
<!-- Node8 -->
<g id="node8" class="node">
<title>Node8</title>
<g id="a_node8"><a xlink:href="../../d0/dfe/class_syntax_analyzer.html#add298ad1660ec015b461199b46f19de5" target="_top" xlink:title=" ">
<polygon fill="none" stroke="black" points="512,-342.5 512,-361.5 666,-361.5 666,-342.5 512,-342.5"/>
<text text-anchor="middle" x="589" y="-349.5" font-family="Helvetica,sans-Serif" font-size="10.00">SyntaxAnalyzer::simpleExpr</text>
</a>
</g>
</g>
<!-- Node5&#45;&gt;Node8 -->
<g id="edge9" class="edge">
<title>Node5&#45;&gt;Node8</title>
<path fill="none" stroke="midnightblue" d="M459.78,-380.41C482.61,-375.35 510.82,-369.1 534.96,-363.75"/>
<polygon fill="midnightblue" stroke="midnightblue" points="536.03,-367.1 545.03,-361.52 534.51,-360.27 536.03,-367.1"/>
</g>
<!-- Node8&#45;&gt;Node2 -->
<g id="edge10" class="edge">
<title>Node8&#45;&gt;Node2</title>
<path fill="none" stroke="midnightblue" d="M600.01,-361.54C619.02,-379.43 662.03,-418.73 702,-447 760.38,-488.29 784.06,-484.75 841,-528 870.53,-550.43 900.54,-581.48 918.07,-600.62"/>
<polygon fill="midnightblue" stroke="midnightblue" points="915.68,-603.2 924.99,-608.27 920.87,-598.51 915.68,-603.2"/>
</g>
<!-- Node8&#45;&gt;Node3 -->
<g id="edge11" class="edge">
<title>Node8&#45;&gt;Node3</title>
<path fill="none" stroke="midnightblue" d="M652.99,-342.5C734.53,-332.94 879.49,-325.39 992,-371 1034.76,-388.34 1074.34,-426.53 1095.01,-448.85"/>
<polygon fill="midnightblue" stroke="midnightblue" points="1092.43,-451.22 1101.74,-456.29 1097.62,-446.53 1092.43,-451.22"/>
</g>
<!-- Node8&#45;&gt;Node6 -->
<g id="edge12" class="edge">
<title>Node8&#45;&gt;Node6</title>
<path fill="none" stroke="midnightblue" d="M608.21,-342.35C630.04,-331.06 667.94,-312.36 702,-300 761.33,-278.46 831.64,-260.68 879.08,-249.76"/>
<polygon fill="midnightblue" stroke="midnightblue" points="879.88,-253.17 888.85,-247.54 878.32,-246.35 879.88,-253.17"/>
</g>
<!-- Node8&#45;&gt;Node7 -->
<g id="edge13" class="edge">
<title>Node8&#45;&gt;Node7</title>
<path fill="none" stroke="midnightblue" d="M666.18,-358.19C716,-362.51 782.46,-368.78 841,-376 863.5,-378.78 888.97,-382.69 907.48,-385.67"/>
<polygon fill="midnightblue" stroke="midnightblue" points="907.06,-389.15 917.49,-387.3 908.19,-382.24 907.06,-389.15"/>
</g>
<!-- Node9 -->
<g id="node9" class="node">
<title>Node9</title>
<g id="a_node9"><a xlink:href="../../d0/dfe/class_syntax_analyzer.html#ab54102dcb8ab4f72bebeb3e2c34b7310" target="_top" xlink:title=" ">
<polygon fill="none" stroke="black" points="710.5,-418.5 710.5,-437.5 832.5,-437.5 832.5,-418.5 710.5,-418.5"/>
<text text-anchor="middle" x="771.5" y="-425.5" font-family="Helvetica,sans-Serif" font-size="10.00">SyntaxAnalyzer::term</text>
</a>
</g>
</g>
<!-- Node8&#45;&gt;Node9 -->
<g id="edge14" class="edge">
<title>Node8&#45;&gt;Node9</title>
<path fill="none" stroke="midnightblue" d="M612.86,-361.63C644.6,-374.99 702.16,-399.23 738.25,-414.42"/>
<polygon fill="midnightblue" stroke="midnightblue" points="737.25,-417.8 747.83,-418.45 739.97,-411.35 737.25,-417.8"/>
</g>
<!-- Node9&#45;&gt;Node1 -->
<g id="edge16" class="edge">
<title>Node9&#45;&gt;Node1</title>
<path fill="none" stroke="midnightblue" d="M710.11,-427.63C600.9,-426.5 363.41,-422 164,-404 154.7,-403.16 144.93,-402.06 135.31,-400.83"/>
<polygon fill="midnightblue" stroke="midnightblue" points="135.73,-397.36 125.36,-399.52 134.81,-404.3 135.73,-397.36"/>
</g>
<!-- Node9&#45;&gt;Node2 -->
<g id="edge15" class="edge">
<title>Node9&#45;&gt;Node2</title>
<path fill="none" stroke="midnightblue" d="M784.84,-437.83C799.14,-449.5 823.02,-469.93 841,-490 873.6,-526.4 905.65,-574.16 922.1,-599.82"/>
<polygon fill="midnightblue" stroke="midnightblue" points="919.3,-601.93 927.62,-608.5 925.21,-598.18 919.3,-601.93"/>
</g>
<!-- Node9&#45;&gt;Node3 -->
<g id="edge17" class="edge">
<title>Node9&#45;&gt;Node3</title>
<path fill="none" stroke="midnightblue" d="M832.61,-434.42C876.73,-439.17 938.11,-445.86 992,-452 1003.26,-453.28 1015.11,-454.66 1026.79,-456.03"/>
<polygon fill="midnightblue" stroke="midnightblue" points="1026.65,-459.54 1036.99,-457.23 1027.47,-452.59 1026.65,-459.54"/>
</g>
<!-- Node9&#45;&gt;Node6 -->
<g id="edge18" class="edge">
<title>Node9&#45;&gt;Node6</title>
<path fill="none" stroke="midnightblue" d="M780.71,-418.32C806.32,-388.09 885.09,-295.14 918.39,-255.84"/>
<polygon fill="midnightblue" stroke="midnightblue" points="921.32,-257.78 925.12,-247.89 915.98,-253.26 921.32,-257.78"/>
</g>
<!-- Node9&#45;&gt;Node7 -->
<g id="edge19" class="edge">
<title>Node9&#45;&gt;Node7</title>
<path fill="none" stroke="midnightblue" d="M813.13,-418.41C842.63,-411.45 881.7,-402.23 907.21,-396.21"/>
<polygon fill="midnightblue" stroke="midnightblue" points="908.31,-399.54 917.24,-393.84 906.71,-392.73 908.31,-399.54"/>
</g>
<!-- Node10&#45;&gt;Node6 -->
<g id="edge23" class="edge">
<title>Node10&#45;&gt;Node6</title>
<path fill="none" stroke="midnightblue" d="M284.35,-105.31C383.64,-107.18 640.17,-118.7 841,-186 866.73,-194.62 893.48,-210.54 911.56,-222.5"/>
<polygon fill="midnightblue" stroke="midnightblue" points="909.92,-225.63 920.16,-228.34 913.85,-219.83 909.92,-225.63"/>
</g>
<!-- Node11 -->
<g id="node11" class="node">
<title>Node11</title>
<g id="a_node11"><a xlink:href="../../db/dc1/class_token.html#a942fcc40ffdf54c98b7b641c792a26bc" target="_top" xlink:title="Возвращает константную ссылку на строковое представление токена">
<polygon fill="none" stroke="black" points="375.5,-76.5 375.5,-95.5 455.5,-95.5 455.5,-76.5 375.5,-76.5"/>
<text text-anchor="middle" x="415.5" y="-83.5" font-family="Helvetica,sans-Serif" font-size="10.00">Token::getStr</text>
</a>
</g>
</g>
<!-- Node10&#45;&gt;Node11 -->
<g id="edge22" class="edge">
<title>Node10&#45;&gt;Node11</title>
<path fill="none" stroke="midnightblue" d="M284.14,-100.4C308.52,-97.71 339.45,-94.29 365.06,-91.46"/>
<polygon fill="midnightblue" stroke="midnightblue" points="365.76,-94.91 375.31,-90.33 364.99,-87.95 365.76,-94.91"/>
</g>
<!-- Node12 -->
<g id="node12" class="node">
<title>Node12</title>
<g id="a_node12"><a xlink:href="../../db/dc1/class_token.html#af3b5fdf2261d637af820d4adb62e6109" target="_top" xlink:title=" ">
<polygon fill="none" stroke="black" points="381.5,-38.5 381.5,-57.5 449.5,-57.5 449.5,-38.5 381.5,-38.5"/>
<text text-anchor="middle" x="415.5" y="-45.5" font-family="Helvetica,sans-Serif" font-size="10.00">Token::line</text>
</a>
</g>
</g>
<!-- Node10&#45;&gt;Node12 -->
<g id="edge24" class="edge">
<title>Node10&#45;&gt;Node12</title>
<path fill="none" stroke="midnightblue" d="M270.66,-95.34C293.39,-87.58 326.21,-76.46 355,-67 361.22,-64.96 367.82,-62.82 374.26,-60.75"/>
<polygon fill="midnightblue" stroke="midnightblue" points="375.74,-63.95 384.2,-57.57 373.61,-57.28 375.74,-63.95"/>
</g>
<!-- Node14 -->
<g id="node14" class="node">
<title>Node14</title>
<g id="a_node14"><a xlink:href="../../d1/d34/class_list.html#a49c179636e084dfbf7a52acd46acaf01" target="_top" xlink:title=" ">
<polygon fill="none" stroke="black" points="386,-0.5 386,-19.5 445,-19.5 445,-0.5 386,-0.5"/>
<text text-anchor="middle" x="415.5" y="-7.5" font-family="Helvetica,sans-Serif" font-size="10.00">List::size</text>
</a>
</g>
</g>
<!-- Node13&#45;&gt;Node14 -->
<g id="edge27" class="edge">
<title>Node13&#45;&gt;Node14</title>
<path fill="none" stroke="midnightblue" d="M319.19,-20.53C338.78,-18.36 359.02,-16.13 375.78,-14.28"/>
<polygon fill="midnightblue" stroke="midnightblue" points="376.17,-17.76 385.73,-13.18 375.4,-10.8 376.17,-17.76"/>
</g>
<!-- Node15&#45;&gt;Node2 -->
<g id="edge29" class="edge">
<title>Node15&#45;&gt;Node2</title>
<path fill="none" stroke="midnightblue" d="M260.99,-541.25C282.19,-557.73 318.73,-583.07 355,-594 533.56,-647.78 757.12,-636.22 866.69,-625.78"/>
<polygon fill="midnightblue" stroke="midnightblue" points="867.33,-629.23 876.94,-624.77 866.64,-622.26 867.33,-629.23"/>
</g>
<!-- Node15&#45;&gt;Node3 -->
<g id="edge31" class="edge">
<title>Node15&#45;&gt;Node3</title>
<path fill="none" stroke="midnightblue" d="M301.98,-541.04C370.48,-557.02 486.61,-580 588,-580 588,-580 588,-580 772.5,-580 895.31,-580 1030.67,-511.41 1085.21,-480.63"/>
<polygon fill="midnightblue" stroke="midnightblue" points="1087.2,-483.53 1094.14,-475.52 1083.73,-477.45 1087.2,-483.53"/>
</g>
<!-- Node15&#45;&gt;Node5 -->
<g id="edge30" class="edge">
<title>Node15&#45;&gt;Node5</title>
<path fill="none" stroke="midnightblue" d="M261.56,-510.93C294.16,-485.15 360.34,-432.83 393.94,-406.26"/>
<polygon fill="midnightblue" stroke="midnightblue" points="396.44,-408.74 402.12,-399.79 392.1,-403.25 396.44,-408.74"/>
</g>
<!-- Node16&#45;&gt;Node2 -->
<g id="edge33" class="edge">
<title>Node16&#45;&gt;Node2</title>
<path fill="none" stroke="midnightblue" d="M806.51,-703.46C817.81,-699.67 830.25,-694.82 841,-689 869,-673.85 897.51,-650.52 915.33,-634.78"/>
<polygon fill="midnightblue" stroke="midnightblue" points="918.08,-637.02 923.17,-627.73 913.4,-631.81 918.08,-637.02"/>
</g>
<!-- Node16&#45;&gt;Node3 -->
<g id="edge34" class="edge">
<title>Node16&#45;&gt;Node3</title>
<path fill="none" stroke="midnightblue" d="M829.94,-703.43C877.21,-693.28 944.01,-673.49 992,-637 1020.46,-615.37 1075.58,-524.73 1099.02,-484.9"/>
<polygon fill="midnightblue" stroke="midnightblue" points="1102.23,-486.35 1104.26,-475.95 1096.19,-482.81 1102.23,-486.35"/>
</g>
</g>
</svg>
