<?xml version="1.0" encoding="UTF-8" standalone="no"?>
<!DOCTYPE svg PUBLIC "-//W3C//DTD SVG 1.1//EN"
 "http://www.w3.org/Graphics/SVG/1.1/DTD/svg11.dtd">
<!-- Generated by graphviz version 2.43.0 (0)
 -->
<!-- Title: SyntaxAnalyzer::expr Pages: 1 -->
<svg width="1185pt" height="590pt"
 viewBox="0.00 0.00 1185.00 590.00" xmlns="http://www.w3.org/2000/svg" xmlns:xlink="http://www.w3.org/1999/xlink">
<g id="graph0" class="graph" transform="scale(1 1) rotate(0) translate(4 586)">
<title>SyntaxAnalyzer::expr</title>
<!-- Node1 -->
<g id="node1" class="node">
<title>Node1</title>
<g id="a_node1"><a xlink:title=" ">
<polygon fill="#bfbfbf" stroke="black" points="0,-458.5 0,-477.5 121,-477.5 121,-458.5 0,-458.5"/>
<text text-anchor="middle" x="60.5" y="-465.5" font-family="Helvetica,sans-Serif" font-size="10.00">SyntaxAnalyzer::expr</text>
</a>
</g>
</g>
<!-- Node2 -->
<g id="node2" class="node">
<title>Node2</title>
<g id="a_node2"><a xlink:href="../../d0/dfe/class_syntax_analyzer.html#a5d17bcae2fd7dc11d0710e046c4c3280" target="_top" xlink:title=" ">
<polygon fill="none" stroke="black" points="860,-458.5 860,-477.5 975,-477.5 975,-458.5 860,-458.5"/>
<text text-anchor="middle" x="917.5" y="-465.5" font-family="Helvetica,sans-Serif" font-size="10.00">SyntaxAnalyzer::eat</text>
</a>
</g>
</g>
<!-- Node1&#45;&gt;Node2 -->
<g id="edge1" class="edge">
<title>Node1&#45;&gt;Node2</title>
<path fill="none" stroke="midnightblue" d="M74.37,-477.71C92.07,-490.61 125.33,-513.24 157,-526 262.61,-568.56 293.14,-582 407,-582 407,-582 407,-582 570,-582 686.31,-582 715.71,-561.44 824,-519 848.72,-509.31 875.06,-494.27 893.28,-483.03"/>
<polygon fill="midnightblue" stroke="midnightblue" points="895.41,-485.83 902.02,-477.55 891.69,-479.9 895.41,-485.83"/>
</g>
<!-- Node3 -->
<g id="node3" class="node">
<title>Node3</title>
<g id="a_node3"><a xlink:href="../../d0/dfe/class_syntax_analyzer.html#a3ae6c7319e61cd669c417f189b098374" target="_top" xlink:title=" ">
<polygon fill="none" stroke="black" points="1020,-332.5 1020,-351.5 1168,-351.5 1168,-332.5 1020,-332.5"/>
<text text-anchor="middle" x="1094" y="-339.5" font-family="Helvetica,sans-Serif" font-size="10.00">SyntaxAnalyzer::getCurTok</text>
</a>
</g>
</g>
<!-- Node1&#45;&gt;Node3 -->
<g id="edge4" class="edge">
<title>Node1&#45;&gt;Node3</title>
<path fill="none" stroke="midnightblue" d="M62.57,-458.4C67.24,-420.01 88.82,-275.14 157,-182 238.18,-71.1 269.56,0 407,0 407,0 407,0 747.5,0 854.1,0 896.12,-4.29 975,-76 1051.47,-145.52 1081.07,-273.79 1089.88,-322.52"/>
<polygon fill="midnightblue" stroke="midnightblue" points="1086.44,-323.13 1091.58,-332.4 1093.34,-321.95 1086.44,-323.13"/>
</g>
<!-- Node5 -->
<g id="node5" class="node">
<title>Node5</title>
<g id="a_node5"><a xlink:href="../../d0/d11/class_i_token.html#a568cb9d98839eff3fd758f419a76b092" target="_top" xlink:title="Получение типа токена">
<polygon fill="none" stroke="black" points="871.5,-142.5 871.5,-161.5 963.5,-161.5 963.5,-142.5 871.5,-142.5"/>
<text text-anchor="middle" x="917.5" y="-149.5" font-family="Helvetica,sans-Serif" font-size="10.00">IToken::getType</text>
</a>
</g>
</g>
<!-- Node1&#45;&gt;Node5 -->
<g id="edge5" class="edge">
<title>Node1&#45;&gt;Node5</title>
<path fill="none" stroke="midnightblue" d="M67.34,-458.36C93.71,-415.71 206.46,-242.49 347,-160 530.64,-52.21 614.9,-74.73 824,-115 846.79,-119.39 871.09,-129.34 889.07,-137.82"/>
<polygon fill="midnightblue" stroke="midnightblue" points="887.83,-141.11 898.35,-142.33 890.89,-134.81 887.83,-141.11"/>
</g>
<!-- Node6 -->
<g id="node6" class="node">
<title>Node6</title>
<g id="a_node6"><a xlink:href="../../df/d3f/_syntax_8hpp.html#ae7d62ca130413d4c96863327c1af81a4" target="_top" xlink:title="Возвращает истину, если value находится среди значений cont.">
<polygon fill="none" stroke="black" points="552,-458.5 552,-477.5 586,-477.5 586,-458.5 552,-458.5"/>
<text text-anchor="middle" x="569" y="-465.5" font-family="Helvetica,sans-Serif" font-size="10.00">isIn</text>
</a>
</g>
</g>
<!-- Node1&#45;&gt;Node6 -->
<g id="edge6" class="edge">
<title>Node1&#45;&gt;Node6</title>
<path fill="none" stroke="midnightblue" d="M116.9,-477.51C130.01,-479.38 143.96,-481.05 157,-482 295.3,-492.08 330.68,-491.73 469,-482 493.95,-480.24 522.18,-476.03 542.09,-472.68"/>
<polygon fill="midnightblue" stroke="midnightblue" points="542.7,-476.13 551.96,-470.98 541.51,-469.23 542.7,-476.13"/>
</g>
<!-- Node7 -->
<g id="node7" class="node">
<title>Node7</title>
<g id="a_node7"><a xlink:href="../../d0/dfe/class_syntax_analyzer.html#add298ad1660ec015b461199b46f19de5" target="_top" xlink:title=" ">
<polygon fill="none" stroke="black" points="157,-363.5 157,-382.5 311,-382.5 311,-363.5 157,-363.5"/>
<text text-anchor="middle" x="234" y="-370.5" font-family="Helvetica,sans-Serif" font-size="10.00">SyntaxAnalyzer::simpleExpr</text>
</a>
</g>
</g>
<!-- Node1&#45;&gt;Node7 -->
<g id="edge7" class="edge">
<title>Node1&#45;&gt;Node7</title>
<path fill="none" stroke="midnightblue" d="M78.89,-458.37C109.14,-441.61 171.61,-407.01 207.02,-387.39"/>
<polygon fill="midnightblue" stroke="midnightblue" points="208.77,-390.42 215.82,-382.52 205.38,-384.3 208.77,-390.42"/>
</g>
<!-- Node2&#45;&gt;Node3 -->
<g id="edge2" class="edge">
<title>Node2&#45;&gt;Node3</title>
<path fill="none" stroke="midnightblue" d="M936.19,-458.5C947.53,-452.21 962.42,-443.57 975,-435 1011.51,-410.13 1051.36,-377.46 1074.15,-358.2"/>
<polygon fill="midnightblue" stroke="midnightblue" points="1076.65,-360.66 1082,-351.52 1072.12,-355.33 1076.65,-360.66"/>
</g>
<!-- Node4 -->
<g id="node4" class="node">
<title>Node4</title>
<g id="a_node4"><a xlink:href="../../d0/dfe/class_syntax_analyzer.html#a9e41370d8d74fbd2e77648d2071e7dfe" target="_top" xlink:title=" ">
<polygon fill="none" stroke="black" points="1011,-458.5 1011,-477.5 1177,-477.5 1177,-458.5 1011,-458.5"/>
<text text-anchor="middle" x="1094" y="-465.5" font-family="Helvetica,sans-Serif" font-size="10.00">SyntaxAnalyzer::getNextToken</text>
</a>
</g>
</g>
<!-- Node2&#45;&gt;Node4 -->
<g id="edge3" class="edge">
<title>Node2&#45;&gt;Node4</title>
<path fill="none" stroke="midnightblue" d="M975.16,-468C983.38,-468 992.02,-468 1000.73,-468"/>
<polygon fill="midnightblue" stroke="midnightblue" points="1000.96,-471.5 1010.96,-468 1000.96,-464.5 1000.96,-471.5"/>
</g>
<!-- Node7&#45;&gt;Node2 -->
<g id="edge8" class="edge">
<title>Node7&#45;&gt;Node2</title>
<path fill="none" stroke="midnightblue" d="M252,-382.6C293.58,-405.56 404.43,-463.43 505,-487 643.11,-519.37 683.79,-518.46 824,-497 844.16,-493.91 865.97,-487.25 883.34,-481.09"/>
<polygon fill="midnightblue" stroke="midnightblue" points="884.83,-484.27 893.01,-477.55 882.42,-477.7 884.83,-484.27"/>
</g>
<!-- Node7&#45;&gt;Node3 -->
<g id="edge9" class="edge">
<title>Node7&#45;&gt;Node3</title>
<path fill="none" stroke="midnightblue" d="M237.19,-363.16C245.27,-329.29 276.61,-216.48 347,-160 403.76,-114.45 432.93,-127.08 505,-117 712,-88.05 801.06,-17.11 975,-133 1044.08,-179.02 1077.1,-279.97 1088.35,-322.5"/>
<polygon fill="midnightblue" stroke="midnightblue" points="1085.02,-323.58 1090.86,-332.42 1091.8,-321.86 1085.02,-323.58"/>
</g>
<!-- Node7&#45;&gt;Node5 -->
<g id="edge10" class="edge">
<title>Node7&#45;&gt;Node5</title>
<path fill="none" stroke="midnightblue" d="M242.23,-363.37C270.65,-326.45 379.28,-193.57 505,-146 629.07,-99.05 789.62,-123.36 868.48,-140.26"/>
<polygon fill="midnightblue" stroke="midnightblue" points="868.08,-143.75 878.59,-142.48 869.58,-136.92 868.08,-143.75"/>
</g>
<!-- Node7&#45;&gt;Node6 -->
<g id="edge11" class="edge">
<title>Node7&#45;&gt;Node6</title>
<path fill="none" stroke="midnightblue" d="M311.23,-377.77C358.36,-382.92 419.15,-393.66 469,-416 487.5,-424.29 487.33,-434.06 505,-444 516.68,-450.57 530.51,-456.06 542.23,-460.13"/>
<polygon fill="midnightblue" stroke="midnightblue" points="541.29,-463.5 551.88,-463.33 543.49,-456.86 541.29,-463.5"/>
</g>
<!-- Node8 -->
<g id="node8" class="node">
<title>Node8</title>
<g id="a_node8"><a xlink:href="../../d0/dfe/class_syntax_analyzer.html#ab54102dcb8ab4f72bebeb3e2c34b7310" target="_top" xlink:title=" ">
<polygon fill="none" stroke="black" points="347,-344.5 347,-363.5 469,-363.5 469,-344.5 347,-344.5"/>
<text text-anchor="middle" x="408" y="-351.5" font-family="Helvetica,sans-Serif" font-size="10.00">SyntaxAnalyzer::term</text>
</a>
</g>
</g>
<!-- Node7&#45;&gt;Node8 -->
<g id="edge12" class="edge">
<title>Node7&#45;&gt;Node8</title>
<path fill="none" stroke="midnightblue" d="M311.19,-364.58C319.69,-363.64 328.32,-362.69 336.73,-361.76"/>
<polygon fill="midnightblue" stroke="midnightblue" points="337.32,-365.22 346.87,-360.64 336.55,-358.26 337.32,-365.22"/>
</g>
<!-- Node8&#45;&gt;Node2 -->
<g id="edge13" class="edge">
<title>Node8&#45;&gt;Node2</title>
<path fill="none" stroke="midnightblue" d="M437.63,-363.61C481.26,-378.81 566.37,-410.65 633,-449 650.33,-458.98 650.03,-469.68 669,-476 734.63,-497.88 815.54,-489.09 866.59,-479.55"/>
<polygon fill="midnightblue" stroke="midnightblue" points="867.56,-482.92 876.7,-477.57 866.22,-476.05 867.56,-482.92"/>
</g>
<!-- Node8&#45;&gt;Node3 -->
<g id="edge32" class="edge">
<title>Node8&#45;&gt;Node3</title>
<path fill="none" stroke="midnightblue" d="M428.42,-344.47C471.01,-323.92 576.25,-275.02 669,-247 751.85,-221.97 773.86,-217.49 860,-209 910.86,-203.99 928.38,-188.04 975,-209 1027.59,-232.64 1066.25,-292.59 1083.32,-323.28"/>
<polygon fill="midnightblue" stroke="midnightblue" points="1080.26,-324.99 1088.09,-332.13 1086.43,-321.66 1080.26,-324.99"/>
</g>
<!-- Node8&#45;&gt;Node5 -->
<g id="edge33" class="edge">
<title>Node8&#45;&gt;Node5</title>
<path fill="none" stroke="midnightblue" d="M410.79,-344.46C417.12,-313.63 441.63,-216.37 505,-176 562.56,-139.33 762.81,-143.98 861.15,-148.74"/>
<polygon fill="midnightblue" stroke="midnightblue" points="861.03,-152.23 871.19,-149.24 861.38,-145.24 861.03,-152.23"/>
</g>
<!-- Node8&#45;&gt;Node6 -->
<g id="edge34" class="edge">
<title>Node8&#45;&gt;Node6</title>
<path fill="none" stroke="midnightblue" d="M444.63,-363.6C453.28,-367.12 462.04,-371.82 469,-378 493.99,-400.18 479.83,-422.03 505,-444 515.47,-453.14 529.78,-458.97 542.12,-462.58"/>
<polygon fill="midnightblue" stroke="midnightblue" points="541.33,-466 551.89,-465.13 543.1,-459.22 541.33,-466"/>
</g>
<!-- Node9 -->
<g id="node9" class="node">
<title>Node9</title>
<g id="a_node9"><a xlink:href="../../d0/dfe/class_syntax_analyzer.html#a56617069058d10461a1a21685349b2dd" target="_top" xlink:title=" ">
<polygon fill="none" stroke="black" points="505,-344.5 505,-363.5 633,-363.5 633,-344.5 505,-344.5"/>
<text text-anchor="middle" x="569" y="-351.5" font-family="Helvetica,sans-Serif" font-size="10.00">SyntaxAnalyzer::factor</text>
</a>
</g>
</g>
<!-- Node8&#45;&gt;Node9 -->
<g id="edge14" class="edge">
<title>Node8&#45;&gt;Node9</title>
<path fill="none" stroke="midnightblue" d="M469.11,-354C477.52,-354 486.23,-354 494.85,-354"/>
<polygon fill="midnightblue" stroke="midnightblue" points="494.89,-357.5 504.89,-354 494.89,-350.5 494.89,-357.5"/>
</g>
<!-- Node9&#45;&gt;Node1 -->
<g id="edge16" class="edge">
<title>Node9&#45;&gt;Node1</title>
<path fill="none" stroke="midnightblue" d="M525.45,-363.58C433.06,-384.37 214.33,-433.6 113.75,-456.24"/>
<polygon fill="midnightblue" stroke="midnightblue" points="112.8,-452.87 103.81,-458.48 114.34,-459.7 112.8,-452.87"/>
</g>
<!-- Node9&#45;&gt;Node2 -->
<g id="edge15" class="edge">
<title>Node9&#45;&gt;Node2</title>
<path fill="none" stroke="midnightblue" d="M579.91,-363.75C603.89,-387.31 663.48,-445.54 669,-448 726.2,-473.55 798.21,-476.54 849.78,-474.34"/>
<polygon fill="midnightblue" stroke="midnightblue" points="850,-477.84 859.81,-473.84 849.65,-470.85 850,-477.84"/>
</g>
<!-- Node9&#45;&gt;Node3 -->
<g id="edge17" class="edge">
<title>Node9&#45;&gt;Node3</title>
<path fill="none" stroke="midnightblue" d="M633.09,-352.55C727.21,-350.39 904.55,-346.32 1009.38,-343.92"/>
<polygon fill="midnightblue" stroke="midnightblue" points="1009.69,-347.41 1019.6,-343.68 1009.53,-340.41 1009.69,-347.41"/>
</g>
<!-- Node9&#45;&gt;Node5 -->
<g id="edge22" class="edge">
<title>Node9&#45;&gt;Node5</title>
<path fill="none" stroke="midnightblue" d="M576.55,-344.34C590.98,-323.74 627.51,-275.1 669,-247 730.75,-205.17 813.5,-178.23 865.92,-164.09"/>
<polygon fill="midnightblue" stroke="midnightblue" points="866.89,-167.46 875.66,-161.52 865.1,-160.69 866.89,-167.46"/>
</g>
<!-- Node10 -->
<g id="node10" class="node">
<title>Node10</title>
<g id="a_node10"><a xlink:href="../../db/dc1/class_token.html#a014ced0a9ea72ae21fad0d4f116d0a73" target="_top" xlink:title=" ">
<polygon fill="none" stroke="black" points="704,-294.5 704,-313.5 789,-313.5 789,-294.5 704,-294.5"/>
<text text-anchor="middle" x="746.5" y="-301.5" font-family="Helvetica,sans-Serif" font-size="10.00">Token::getInfo</text>
</a>
</g>
</g>
<!-- Node9&#45;&gt;Node10 -->
<g id="edge18" class="edge">
<title>Node9&#45;&gt;Node10</title>
<path fill="none" stroke="midnightblue" d="M603.42,-344.48C631.39,-336.51 671.5,-325.08 701.97,-316.4"/>
<polygon fill="midnightblue" stroke="midnightblue" points="703.24,-319.68 711.9,-313.57 701.33,-312.95 703.24,-319.68"/>
</g>
<!-- Node13 -->
<g id="node13" class="node">
<title>Node13</title>
<g id="a_node13"><a xlink:href="../../d0/dfe/class_syntax_analyzer.html#af0905389742c4f842207bb2c073afbfa" target="_top" xlink:title=" ">
<polygon fill="none" stroke="black" points="669,-256.5 669,-275.5 824,-275.5 824,-256.5 669,-256.5"/>
<text text-anchor="middle" x="746.5" y="-263.5" font-family="Helvetica,sans-Serif" font-size="10.00">SyntaxAnalyzer::lookFoward</text>
</a>
</g>
</g>
<!-- Node9&#45;&gt;Node13 -->
<g id="edge23" class="edge">
<title>Node9&#45;&gt;Node13</title>
<path fill="none" stroke="midnightblue" d="M580.76,-344.48C598.11,-329.61 633.9,-300.93 669,-285 674.35,-282.57 680.05,-280.42 685.85,-278.53"/>
<polygon fill="midnightblue" stroke="midnightblue" points="687.07,-281.82 695.63,-275.58 685.04,-275.12 687.07,-281.82"/>
</g>
<!-- Node15 -->
<g id="node15" class="node">
<title>Node15</title>
<g id="a_node15"><a xlink:href="../../d0/dfe/class_syntax_analyzer.html#a1881c173010f7dea8a147b4195b4a739" target="_top" xlink:title=" ">
<polygon fill="none" stroke="black" points="677,-409 677,-439 816,-439 816,-409 677,-409"/>
<text text-anchor="start" x="685" y="-427" font-family="Helvetica,sans-Serif" font-size="10.00">SyntaxAnalyzer::procCall</text>
<text text-anchor="middle" x="746.5" y="-416" font-family="Helvetica,sans-Serif" font-size="10.00">Statement</text>
</a>
</g>
</g>
<!-- Node9&#45;&gt;Node15 -->
<g id="edge25" class="edge">
<title>Node9&#45;&gt;Node15</title>
<path fill="none" stroke="midnightblue" d="M589.45,-363.62C609.22,-373.2 640.85,-388.04 669,-399 674.81,-401.26 680.92,-403.49 687.05,-405.64"/>
<polygon fill="midnightblue" stroke="midnightblue" points="686.06,-409 696.65,-408.93 688.33,-402.38 686.06,-409"/>
</g>
<!-- Node16 -->
<g id="node16" class="node">
<title>Node16</title>
<g id="a_node16"><a xlink:href="../../d0/dfe/class_syntax_analyzer.html#aee4c8631363c115e1e0946bf19cfc340" target="_top" xlink:title=" ">
<polygon fill="none" stroke="black" points="677,-370.5 677,-389.5 816,-389.5 816,-370.5 677,-370.5"/>
<text text-anchor="middle" x="746.5" y="-377.5" font-family="Helvetica,sans-Serif" font-size="10.00">SyntaxAnalyzer::variable</text>
</a>
</g>
</g>
<!-- Node9&#45;&gt;Node16 -->
<g id="edge29" class="edge">
<title>Node9&#45;&gt;Node16</title>
<path fill="none" stroke="midnightblue" d="M633.36,-363.39C645.68,-365.21 658.69,-367.14 671.32,-369.01"/>
<polygon fill="midnightblue" stroke="midnightblue" points="670.94,-372.49 681.35,-370.5 671.97,-365.57 670.94,-372.49"/>
</g>
<!-- Node10&#45;&gt;Node5 -->
<g id="edge20" class="edge">
<title>Node10&#45;&gt;Node5</title>
<path fill="none" stroke="midnightblue" d="M789.07,-300.5C801.36,-297.77 814.15,-293.06 824,-285 852.92,-261.33 838.54,-239.6 860,-209 870.66,-193.8 885.53,-178.98 897.34,-168.26"/>
<polygon fill="midnightblue" stroke="midnightblue" points="899.77,-170.79 904.94,-161.55 895.13,-165.55 899.77,-170.79"/>
</g>
<!-- Node11 -->
<g id="node11" class="node">
<title>Node11</title>
<g id="a_node11"><a xlink:href="../../db/dc1/class_token.html#a942fcc40ffdf54c98b7b641c792a26bc" target="_top" xlink:title="Возвращает константную ссылку на строковое представление токена">
<polygon fill="none" stroke="black" points="877.5,-256.5 877.5,-275.5 957.5,-275.5 957.5,-256.5 877.5,-256.5"/>
<text text-anchor="middle" x="917.5" y="-263.5" font-family="Helvetica,sans-Serif" font-size="10.00">Token::getStr</text>
</a>
</g>
</g>
<!-- Node10&#45;&gt;Node11 -->
<g id="edge19" class="edge">
<title>Node10&#45;&gt;Node11</title>
<path fill="none" stroke="midnightblue" d="M789.28,-294.61C812.9,-289.29 842.57,-282.62 867.32,-277.06"/>
<polygon fill="midnightblue" stroke="midnightblue" points="868.25,-280.44 877.24,-274.83 866.71,-273.61 868.25,-280.44"/>
</g>
<!-- Node12 -->
<g id="node12" class="node">
<title>Node12</title>
<g id="a_node12"><a xlink:href="../../db/dc1/class_token.html#af3b5fdf2261d637af820d4adb62e6109" target="_top" xlink:title=" ">
<polygon fill="none" stroke="black" points="883.5,-294.5 883.5,-313.5 951.5,-313.5 951.5,-294.5 883.5,-294.5"/>
<text text-anchor="middle" x="917.5" y="-301.5" font-family="Helvetica,sans-Serif" font-size="10.00">Token::line</text>
</a>
</g>
</g>
<!-- Node10&#45;&gt;Node12 -->
<g id="edge21" class="edge">
<title>Node10&#45;&gt;Node12</title>
<path fill="none" stroke="midnightblue" d="M789.28,-304C814.79,-304 847.36,-304 873.16,-304"/>
<polygon fill="midnightblue" stroke="midnightblue" points="873.4,-307.5 883.4,-304 873.4,-300.5 873.4,-307.5"/>
</g>
<!-- Node14 -->
<g id="node14" class="node">
<title>Node14</title>
<g id="a_node14"><a xlink:href="../../d1/d34/class_list.html#a49c179636e084dfbf7a52acd46acaf01" target="_top" xlink:title=" ">
<polygon fill="none" stroke="black" points="888,-218.5 888,-237.5 947,-237.5 947,-218.5 888,-218.5"/>
<text text-anchor="middle" x="917.5" y="-225.5" font-family="Helvetica,sans-Serif" font-size="10.00">List::size</text>
</a>
</g>
</g>
<!-- Node13&#45;&gt;Node14 -->
<g id="edge24" class="edge">
<title>Node13&#45;&gt;Node14</title>
<path fill="none" stroke="midnightblue" d="M790.15,-256.41C817.17,-250.34 851.82,-242.54 878,-236.66"/>
<polygon fill="midnightblue" stroke="midnightblue" points="878.96,-240.03 887.94,-234.42 877.42,-233.2 878.96,-240.03"/>
</g>
<!-- Node15&#45;&gt;Node1 -->
<g id="edge27" class="edge">
<title>Node15&#45;&gt;Node1</title>
<path fill="none" stroke="midnightblue" d="M724.77,-439.26C703.09,-454.31 667.49,-476.53 633,-487 430.5,-548.49 365.88,-534.06 157,-500 134.91,-496.4 111.04,-488.4 92.68,-481.3"/>
<polygon fill="midnightblue" stroke="midnightblue" points="93.95,-478.04 83.37,-477.59 91.36,-484.54 93.95,-478.04"/>
</g>
<!-- Node15&#45;&gt;Node2 -->
<g id="edge26" class="edge">
<title>Node15&#45;&gt;Node2</title>
<path fill="none" stroke="midnightblue" d="M805.19,-439.02C826.37,-444.54 850.07,-450.7 870.13,-455.93"/>
<polygon fill="midnightblue" stroke="midnightblue" points="869.4,-459.36 879.96,-458.49 871.17,-452.58 869.4,-459.36"/>
</g>
<!-- Node15&#45;&gt;Node3 -->
<g id="edge28" class="edge">
<title>Node15&#45;&gt;Node3</title>
<path fill="none" stroke="midnightblue" d="M816.03,-411.41C861.37,-402.7 922,-390.31 975,-377 1001.36,-370.38 1030.65,-361.7 1053.46,-354.64"/>
<polygon fill="midnightblue" stroke="midnightblue" points="1054.62,-357.94 1063.12,-351.62 1052.53,-351.26 1054.62,-357.94"/>
</g>
<!-- Node16&#45;&gt;Node2 -->
<g id="edge30" class="edge">
<title>Node16&#45;&gt;Node2</title>
<path fill="none" stroke="midnightblue" d="M798.28,-389.59C807.07,-392.1 815.96,-395.19 824,-399 852.63,-412.56 881.19,-435.69 898.83,-451.4"/>
<polygon fill="midnightblue" stroke="midnightblue" points="896.82,-454.3 906.57,-458.44 901.53,-449.12 896.82,-454.3"/>
</g>
<!-- Node16&#45;&gt;Node3 -->
<g id="edge31" class="edge">
<title>Node16&#45;&gt;Node3</title>
<path fill="none" stroke="midnightblue" d="M816.22,-372.99C861.37,-368.32 921.72,-361.97 975,-356 986.26,-354.74 998.12,-353.37 1009.8,-352.01"/>
<polygon fill="midnightblue" stroke="midnightblue" points="1010.48,-355.45 1020,-350.81 1009.66,-348.5 1010.48,-355.45"/>
</g>
</g>
</svg>
