<?xml version="1.0" encoding="UTF-8" standalone="no"?>
<!DOCTYPE svg PUBLIC "-//W3C//DTD SVG 1.1//EN"
 "http://www.w3.org/Graphics/SVG/1.1/DTD/svg11.dtd">
<!-- Generated by graphviz version 3.0.0 (20220413.0106)
 -->
<!-- Title: SyntaxAnalyzer::syntaxFactor Pages: 1 -->
<svg width="1205pt" height="731pt"
 viewBox="0.00 0.00 1205.00 731.00" xmlns="http://www.w3.org/2000/svg" xmlns:xlink="http://www.w3.org/1999/xlink">
<g id="graph0" class="graph" transform="scale(1 1) rotate(0) translate(4 727)">
<title>SyntaxAnalyzer::syntaxFactor</title>
<!-- Node1 -->
<g id="node1" class="node">
<title>Node1</title>
<g id="a_node1"><a xlink:title=" ">
<polygon fill="#bfbfbf" stroke="black" points="0,-304.5 0,-323.5 143,-323.5 143,-304.5 0,-304.5"/>
<text text-anchor="middle" x="71.5" y="-311.5" font-family="Helvetica,sans-Serif" font-size="10.00">SyntaxAnalyzer::syntaxFactor</text>
</a>
</g>
</g>
<!-- Node1&#45;&gt;Node1 -->
<g id="edge32" class="edge">
<title>Node1&#45;&gt;Node1</title>
<path fill="none" stroke="midnightblue" d="M44.07,-323.76C30.72,-332.57 39.86,-342 71.5,-342 93.25,-342 104.37,-337.54 104.86,-331.89"/>
<polygon fill="midnightblue" stroke="midnightblue" points="107.65,-329.78 98.93,-323.76 101.99,-333.9 107.65,-329.78"/>
</g>
<!-- Node2 -->
<g id="node2" class="node">
<title>Node2</title>
<g id="a_node2"><a xlink:href="../../d0/dfe/class_syntax_analyzer.html#a5d17bcae2fd7dc11d0710e046c4c3280" target="_top" xlink:title=" ">
<polygon fill="none" stroke="black" points="912,-608.5 912,-627.5 1013,-627.5 1013,-608.5 912,-608.5"/>
<text text-anchor="middle" x="962.5" y="-615.5" font-family="Helvetica,sans-Serif" font-size="10.00">SyntaxAnalyzer::eat</text>
</a>
</g>
</g>
<!-- Node1&#45;&gt;Node2 -->
<g id="edge1" class="edge">
<title>Node1&#45;&gt;Node2</title>
<path fill="none" stroke="midnightblue" d="M73.13,-323.76C76.25,-363.28 93.48,-512.67 179,-584 417.56,-782.97 567.03,-668.17 876,-636 888.49,-634.7 901.85,-632.36 914.21,-629.78"/>
<polygon fill="midnightblue" stroke="midnightblue" points="915.28,-633.13 924.31,-627.58 913.79,-626.29 915.28,-633.13"/>
</g>
<!-- Node3 -->
<g id="node3" class="node">
<title>Node3</title>
<g id="a_node3"><a xlink:href="../../d0/dfe/class_syntax_analyzer.html#a3ae6c7319e61cd669c417f189b098374" target="_top" xlink:title=" ">
<polygon fill="none" stroke="black" points="1057,-456.5 1057,-475.5 1189,-475.5 1189,-456.5 1057,-456.5"/>
<text text-anchor="middle" x="1123" y="-463.5" font-family="Helvetica,sans-Serif" font-size="10.00">SyntaxAnalyzer::getCurTok</text>
</a>
</g>
</g>
<!-- Node1&#45;&gt;Node3 -->
<g id="edge4" class="edge">
<title>Node1&#45;&gt;Node3</title>
<path fill="none" stroke="midnightblue" d="M78.8,-304.32C93.41,-282.83 131.94,-231.37 179,-210 347.76,-133.37 864.26,-108.41 1013,-219 1089.61,-275.96 1113.31,-398.63 1119.8,-446.4"/>
<polygon fill="midnightblue" stroke="midnightblue" points="1116.34,-446.88 1121.05,-456.37 1123.28,-446.01 1116.34,-446.88"/>
</g>
<!-- Node5 -->
<g id="node5" class="node">
<title>Node5</title>
<g id="a_node5"><a xlink:href="../../db/dc1/class_token.html#a014ced0a9ea72ae21fad0d4f116d0a73" target="_top" xlink:title=" ">
<polygon fill="none" stroke="black" points="210.5,-95.5 210.5,-114.5 288.5,-114.5 288.5,-95.5 210.5,-95.5"/>
<text text-anchor="middle" x="249.5" y="-102.5" font-family="Helvetica,sans-Serif" font-size="10.00">Token::getInfo</text>
</a>
</g>
</g>
<!-- Node1&#45;&gt;Node5 -->
<g id="edge5" class="edge">
<title>Node1&#45;&gt;Node5</title>
<path fill="none" stroke="midnightblue" d="M76.79,-304.34C89.28,-277.07 127.98,-198.19 179,-148 190.56,-136.63 205.64,-126.84 218.81,-119.49"/>
<polygon fill="midnightblue" stroke="midnightblue" points="220.81,-122.39 227.97,-114.58 217.51,-116.22 220.81,-122.39"/>
</g>
<!-- Node7 -->
<g id="node7" class="node">
<title>Node7</title>
<g id="a_node7"><a xlink:href="../../d0/d11/class_i_token.html#a568cb9d98839eff3fd758f419a76b092" target="_top" xlink:title="Получение типа токена">
<polygon fill="none" stroke="black" points="919.5,-228.5 919.5,-247.5 1005.5,-247.5 1005.5,-228.5 919.5,-228.5"/>
<text text-anchor="middle" x="962.5" y="-235.5" font-family="Helvetica,sans-Serif" font-size="10.00">IToken::getType</text>
</a>
</g>
</g>
<!-- Node1&#45;&gt;Node7 -->
<g id="edge9" class="edge">
<title>Node1&#45;&gt;Node7</title>
<path fill="none" stroke="midnightblue" d="M88.97,-304.48C137.94,-277.08 287.65,-200 422,-200 422,-200 422,-200 609,-200 716.14,-200 840.55,-217.57 909.21,-228.81"/>
<polygon fill="midnightblue" stroke="midnightblue" points="908.9,-232.31 919.34,-230.49 910.04,-225.4 908.9,-232.31"/>
</g>
<!-- Node9 -->
<g id="node9" class="node">
<title>Node9</title>
<g id="a_node9"><a xlink:href="../../d0/dfe/class_syntax_analyzer.html#af0905389742c4f842207bb2c073afbfa" target="_top" xlink:title=" ">
<polygon fill="none" stroke="black" points="181,-19.5 181,-38.5 318,-38.5 318,-19.5 181,-19.5"/>
<text text-anchor="middle" x="249.5" y="-26.5" font-family="Helvetica,sans-Serif" font-size="10.00">SyntaxAnalyzer::lookFoward</text>
</a>
</g>
</g>
<!-- Node1&#45;&gt;Node9 -->
<g id="edge10" class="edge">
<title>Node1&#45;&gt;Node9</title>
<path fill="none" stroke="midnightblue" d="M75.25,-304.5C85.09,-271.61 121.11,-160.52 179,-86 191.76,-69.57 210.08,-54.79 224.71,-44.4"/>
<polygon fill="midnightblue" stroke="midnightblue" points="227,-47.08 233.26,-38.53 223.04,-41.31 227,-47.08"/>
</g>
<!-- Node11 -->
<g id="node11" class="node">
<title>Node11</title>
<g id="a_node11"><a xlink:href="../../d0/dfe/class_syntax_analyzer.html#a9321de68e44f3918a71256a3c1cd481b" target="_top" xlink:title=" ">
<polygon fill="none" stroke="black" points="179,-494.5 179,-513.5 320,-513.5 320,-494.5 179,-494.5"/>
<text text-anchor="middle" x="249.5" y="-501.5" font-family="Helvetica,sans-Serif" font-size="10.00">SyntaxAnalyzer::syntaxCallSt</text>
</a>
</g>
</g>
<!-- Node1&#45;&gt;Node11 -->
<g id="edge12" class="edge">
<title>Node1&#45;&gt;Node11</title>
<path fill="none" stroke="midnightblue" d="M81.47,-323.68C109.59,-354.04 196.3,-447.65 232.43,-486.66"/>
<polygon fill="midnightblue" stroke="midnightblue" points="229.97,-489.15 239.34,-494.11 235.11,-484.39 229.97,-489.15"/>
</g>
<!-- Node12 -->
<g id="node12" class="node">
<title>Node12</title>
<g id="a_node12"><a xlink:href="../../d0/dfe/class_syntax_analyzer.html#a53b0048490647d82a92a77ed1ffb013d" target="_top" xlink:title=" ">
<polygon fill="none" stroke="black" points="356,-380.5 356,-399.5 490,-399.5 490,-380.5 356,-380.5"/>
<text text-anchor="middle" x="423" y="-387.5" font-family="Helvetica,sans-Serif" font-size="10.00">SyntaxAnalyzer::syntaxExpr</text>
</a>
</g>
</g>
<!-- Node1&#45;&gt;Node12 -->
<g id="edge31" class="edge">
<title>Node1&#45;&gt;Node12</title>
<path fill="none" stroke="midnightblue" d="M116.41,-323.55C180.45,-337.47 299.36,-363.33 368.45,-378.36"/>
<polygon fill="midnightblue" stroke="midnightblue" points="367.75,-381.79 378.27,-380.49 369.24,-374.95 367.75,-381.79"/>
</g>
<!-- Node16 -->
<g id="node16" class="node">
<title>Node16</title>
<g id="a_node16"><a xlink:href="../../d0/dfe/class_syntax_analyzer.html#a8d3dc6feefe1957f1c81cbc7b8318559" target="_top" xlink:title=" ">
<polygon fill="none" stroke="black" points="726,-703.5 726,-722.5 876,-722.5 876,-703.5 726,-703.5"/>
<text text-anchor="middle" x="801" y="-710.5" font-family="Helvetica,sans-Serif" font-size="10.00">SyntaxAnalyzer::syntaxVariable</text>
</a>
</g>
</g>
<!-- Node1&#45;&gt;Node16 -->
<g id="edge33" class="edge">
<title>Node1&#45;&gt;Node16</title>
<path fill="none" stroke="midnightblue" d="M75.12,-323.54C84.31,-355.5 117.89,-460.3 179,-523 324.24,-672.02 582.84,-704.92 715.85,-711.68"/>
<polygon fill="midnightblue" stroke="midnightblue" points="715.84,-715.19 725.99,-712.16 716.17,-708.19 715.84,-715.19"/>
</g>
<!-- Node2&#45;&gt;Node3 -->
<g id="edge2" class="edge">
<title>Node2&#45;&gt;Node3</title>
<path fill="none" stroke="midnightblue" d="M988.33,-608.4C996.61,-604.59 1005.6,-599.73 1013,-594 1054.92,-561.57 1092.21,-510.74 1110.35,-483.94"/>
<polygon fill="midnightblue" stroke="midnightblue" points="1113.32,-485.79 1115.94,-475.53 1107.49,-481.91 1113.32,-485.79"/>
</g>
<!-- Node4 -->
<g id="node4" class="node">
<title>Node4</title>
<g id="a_node4"><a xlink:href="../../d0/dfe/class_syntax_analyzer.html#a9e41370d8d74fbd2e77648d2071e7dfe" target="_top" xlink:title=" ">
<polygon fill="none" stroke="black" points="1049,-608.5 1049,-627.5 1197,-627.5 1197,-608.5 1049,-608.5"/>
<text text-anchor="middle" x="1123" y="-615.5" font-family="Helvetica,sans-Serif" font-size="10.00">SyntaxAnalyzer::getNextToken</text>
</a>
</g>
</g>
<!-- Node2&#45;&gt;Node4 -->
<g id="edge3" class="edge">
<title>Node2&#45;&gt;Node4</title>
<path fill="none" stroke="midnightblue" d="M1013.22,-618C1021.37,-618 1030.02,-618 1038.72,-618"/>
<polygon fill="midnightblue" stroke="midnightblue" points="1038.95,-621.5 1048.95,-618 1038.95,-614.5 1038.95,-621.5"/>
</g>
<!-- Node6 -->
<g id="node6" class="node">
<title>Node6</title>
<g id="a_node6"><a xlink:href="../../db/dc1/class_token.html#a942fcc40ffdf54c98b7b641c792a26bc" target="_top" xlink:title="Возвращает константную ссылку на строковое представление токена">
<polygon fill="none" stroke="black" points="386,-76.5 386,-95.5 460,-95.5 460,-76.5 386,-76.5"/>
<text text-anchor="middle" x="423" y="-83.5" font-family="Helvetica,sans-Serif" font-size="10.00">Token::getStr</text>
</a>
</g>
</g>
<!-- Node5&#45;&gt;Node6 -->
<g id="edge6" class="edge">
<title>Node5&#45;&gt;Node6</title>
<path fill="none" stroke="midnightblue" d="M288.56,-100.78C314.29,-97.93 348.41,-94.15 375.71,-91.13"/>
<polygon fill="midnightblue" stroke="midnightblue" points="376.25,-94.59 385.81,-90.01 375.48,-87.63 376.25,-94.59"/>
</g>
<!-- Node5&#45;&gt;Node7 -->
<g id="edge7" class="edge">
<title>Node5&#45;&gt;Node7</title>
<path fill="none" stroke="midnightblue" d="M288.77,-104.51C388.5,-104.38 663.42,-111.38 876,-186 900.07,-194.45 924.65,-210.31 941.24,-222.3"/>
<polygon fill="midnightblue" stroke="midnightblue" points="939.47,-225.34 949.58,-228.49 943.64,-219.72 939.47,-225.34"/>
</g>
<!-- Node8 -->
<g id="node8" class="node">
<title>Node8</title>
<g id="a_node8"><a xlink:href="../../db/dc1/class_token.html#af3b5fdf2261d637af820d4adb62e6109" target="_top" xlink:title=" ">
<polygon fill="none" stroke="black" points="391.5,-38.5 391.5,-57.5 454.5,-57.5 454.5,-38.5 391.5,-38.5"/>
<text text-anchor="middle" x="423" y="-45.5" font-family="Helvetica,sans-Serif" font-size="10.00">Token::line</text>
</a>
</g>
</g>
<!-- Node5&#45;&gt;Node8 -->
<g id="edge8" class="edge">
<title>Node5&#45;&gt;Node8</title>
<path fill="none" stroke="midnightblue" d="M275.49,-95.48C296.77,-87.49 328.22,-75.99 356,-67 364.24,-64.33 373.11,-61.65 381.59,-59.18"/>
<polygon fill="midnightblue" stroke="midnightblue" points="382.67,-62.51 391.31,-56.38 380.74,-55.78 382.67,-62.51"/>
</g>
<!-- Node10 -->
<g id="node10" class="node">
<title>Node10</title>
<g id="a_node10"><a xlink:href="../../d1/d34/class_list.html#a49c179636e084dfbf7a52acd46acaf01" target="_top" xlink:title=" ">
<polygon fill="none" stroke="black" points="395.5,-0.5 395.5,-19.5 450.5,-19.5 450.5,-0.5 395.5,-0.5"/>
<text text-anchor="middle" x="423" y="-7.5" font-family="Helvetica,sans-Serif" font-size="10.00">List::size</text>
</a>
</g>
</g>
<!-- Node9&#45;&gt;Node10 -->
<g id="edge11" class="edge">
<title>Node9&#45;&gt;Node10</title>
<path fill="none" stroke="midnightblue" d="M318.28,-21.49C341.14,-18.96 365.78,-16.23 385.3,-14.07"/>
<polygon fill="midnightblue" stroke="midnightblue" points="385.74,-17.54 395.3,-12.96 384.97,-10.58 385.74,-17.54"/>
</g>
<!-- Node11&#45;&gt;Node2 -->
<g id="edge13" class="edge">
<title>Node11&#45;&gt;Node2</title>
<path fill="none" stroke="midnightblue" d="M257.93,-513.68C273.56,-533.18 312.06,-576.81 356,-594 454.01,-632.35 768.69,-625.41 901.48,-620.55"/>
<polygon fill="midnightblue" stroke="midnightblue" points="902,-624.04 911.86,-620.16 901.74,-617.04 902,-624.04"/>
</g>
<!-- Node11&#45;&gt;Node3 -->
<g id="edge14" class="edge">
<title>Node11&#45;&gt;Node3</title>
<path fill="none" stroke="midnightblue" d="M294.71,-513.55C389.29,-533.96 603.06,-580 607,-580 607,-580 607,-580 802,-580 918.87,-580 1046.55,-511.69 1098.28,-480.83"/>
<polygon fill="midnightblue" stroke="midnightblue" points="1100.29,-483.7 1107.03,-475.52 1096.67,-477.71 1100.29,-483.7"/>
</g>
<!-- Node11&#45;&gt;Node12 -->
<g id="edge15" class="edge">
<title>Node11&#45;&gt;Node12</title>
<path fill="none" stroke="midnightblue" d="M264.83,-494.48C294.51,-474.74 362.97,-429.24 398.95,-405.32"/>
<polygon fill="midnightblue" stroke="midnightblue" points="400.96,-408.19 407.35,-399.74 397.08,-402.36 400.96,-408.19"/>
</g>
<!-- Node12&#45;&gt;Node2 -->
<g id="edge16" class="edge">
<title>Node12&#45;&gt;Node2</title>
<path fill="none" stroke="midnightblue" d="M432.28,-399.59C448.5,-417.8 486.33,-457.55 526,-480 650.17,-550.26 814.86,-589.92 901.82,-607.29"/>
<polygon fill="midnightblue" stroke="midnightblue" points="901.29,-610.75 911.77,-609.25 902.64,-603.88 901.29,-610.75"/>
</g>
<!-- Node12&#45;&gt;Node3 -->
<g id="edge17" class="edge">
<title>Node12&#45;&gt;Node3</title>
<path fill="none" stroke="midnightblue" d="M471.11,-399.52C488.33,-402.8 508,-406.33 526,-409 696.74,-434.38 740.06,-436.7 912,-452 956.53,-455.96 1006.46,-459.34 1046.46,-461.78"/>
<polygon fill="midnightblue" stroke="midnightblue" points="1046.48,-465.28 1056.67,-462.39 1046.9,-458.3 1046.48,-465.28"/>
</g>
<!-- Node12&#45;&gt;Node7 -->
<g id="edge18" class="edge">
<title>Node12&#45;&gt;Node7</title>
<path fill="none" stroke="midnightblue" d="M439.6,-380.32C483,-353.96 609.65,-280.97 726,-252 787.47,-236.7 860.61,-234.77 908.9,-235.65"/>
<polygon fill="midnightblue" stroke="midnightblue" points="909.03,-239.15 919.11,-235.88 909.19,-232.16 909.03,-239.15"/>
</g>
<!-- Node13 -->
<g id="node13" class="node">
<title>Node13</title>
<g id="a_node13"><a xlink:href="../../df/d3f/_syntax_8hpp.html#ae7d62ca130413d4c96863327c1af81a4" target="_top" xlink:title="Возвращает истину, если value находится среди значений cont.">
<polygon fill="none" stroke="black" points="946.5,-342.5 946.5,-361.5 978.5,-361.5 978.5,-342.5 946.5,-342.5"/>
<text text-anchor="middle" x="962.5" y="-349.5" font-family="Helvetica,sans-Serif" font-size="10.00">isIn</text>
</a>
</g>
</g>
<!-- Node12&#45;&gt;Node13 -->
<g id="edge19" class="edge">
<title>Node12&#45;&gt;Node13</title>
<path fill="none" stroke="midnightblue" d="M467.73,-380.46C485.69,-376.9 506.76,-373.2 526,-371 681.27,-353.24 869.42,-351.77 936.37,-351.86"/>
<polygon fill="midnightblue" stroke="midnightblue" points="936.39,-355.36 946.4,-351.89 936.41,-348.36 936.39,-355.36"/>
</g>
<!-- Node14 -->
<g id="node14" class="node">
<title>Node14</title>
<g id="a_node14"><a xlink:href="../../d0/dfe/class_syntax_analyzer.html#a920d9565d4aa2e3815ff9e7146f45a0b" target="_top" xlink:title=" ">
<polygon fill="none" stroke="black" points="526,-380.5 526,-399.5 690,-399.5 690,-380.5 526,-380.5"/>
<text text-anchor="middle" x="608" y="-387.5" font-family="Helvetica,sans-Serif" font-size="10.00">SyntaxAnalyzer::syntaxSimpleExpr</text>
</a>
</g>
</g>
<!-- Node12&#45;&gt;Node14 -->
<g id="edge20" class="edge">
<title>Node12&#45;&gt;Node14</title>
<path fill="none" stroke="midnightblue" d="M490.07,-390C498.38,-390 507,-390 515.62,-390"/>
<polygon fill="midnightblue" stroke="midnightblue" points="515.72,-393.5 525.72,-390 515.72,-386.5 515.72,-393.5"/>
</g>
<!-- Node14&#45;&gt;Node2 -->
<g id="edge21" class="edge">
<title>Node14&#45;&gt;Node2</title>
<path fill="none" stroke="midnightblue" d="M629.85,-399.67C684.9,-425.36 832.81,-495.57 876,-528 904.55,-549.43 931.94,-580.81 947.73,-600.29"/>
<polygon fill="midnightblue" stroke="midnightblue" points="945.16,-602.68 954.13,-608.32 950.64,-598.32 945.16,-602.68"/>
</g>
<!-- Node14&#45;&gt;Node3 -->
<g id="edge22" class="edge">
<title>Node14&#45;&gt;Node3</title>
<path fill="none" stroke="midnightblue" d="M673.19,-399.51C768.45,-413.62 946.81,-440.05 1047.63,-454.98"/>
<polygon fill="midnightblue" stroke="midnightblue" points="1047.33,-458.48 1057.74,-456.48 1048.36,-451.55 1047.33,-458.48"/>
</g>
<!-- Node14&#45;&gt;Node7 -->
<g id="edge23" class="edge">
<title>Node14&#45;&gt;Node7</title>
<path fill="none" stroke="midnightblue" d="M617.97,-380.25C636.32,-360.91 680.28,-317.64 726,-295 757.81,-279.25 850,-259.5 909.15,-247.86"/>
<polygon fill="midnightblue" stroke="midnightblue" points="909.92,-251.28 919.07,-245.93 908.58,-244.41 909.92,-251.28"/>
</g>
<!-- Node14&#45;&gt;Node13 -->
<g id="edge24" class="edge">
<title>Node14&#45;&gt;Node13</title>
<path fill="none" stroke="midnightblue" d="M690.08,-384.25C743.09,-380.11 813.78,-373.88 876,-366 896.32,-363.43 919.21,-359.63 936.19,-356.64"/>
<polygon fill="midnightblue" stroke="midnightblue" points="937.19,-360.02 946.41,-354.81 935.95,-353.13 937.19,-360.02"/>
</g>
<!-- Node15 -->
<g id="node15" class="node">
<title>Node15</title>
<g id="a_node15"><a xlink:href="../../d0/dfe/class_syntax_analyzer.html#a7721cf7d36d549f81fd05c40dba02f67" target="_top" xlink:title=" ">
<polygon fill="none" stroke="black" points="732.5,-304.5 732.5,-323.5 869.5,-323.5 869.5,-304.5 732.5,-304.5"/>
<text text-anchor="middle" x="801" y="-311.5" font-family="Helvetica,sans-Serif" font-size="10.00">SyntaxAnalyzer::syntaxTerm</text>
</a>
</g>
</g>
<!-- Node14&#45;&gt;Node15 -->
<g id="edge25" class="edge">
<title>Node14&#45;&gt;Node15</title>
<path fill="none" stroke="midnightblue" d="M633.19,-380.37C666.92,-366.95 728.21,-342.57 766.37,-327.38"/>
<polygon fill="midnightblue" stroke="midnightblue" points="768.01,-330.5 776.01,-323.55 765.42,-323.99 768.01,-330.5"/>
</g>
<!-- Node15&#45;&gt;Node1 -->
<g id="edge30" class="edge">
<title>Node15&#45;&gt;Node1</title>
<path fill="none" stroke="midnightblue" d="M732.27,-314C597.85,-314 297.89,-314 153.38,-314"/>
<polygon fill="midnightblue" stroke="midnightblue" points="153.25,-310.5 143.25,-314 153.25,-317.5 153.25,-310.5"/>
</g>
<!-- Node15&#45;&gt;Node2 -->
<g id="edge26" class="edge">
<title>Node15&#45;&gt;Node2</title>
<path fill="none" stroke="midnightblue" d="M807.13,-323.77C829.81,-367.01 921.39,-541.56 951.7,-599.33"/>
<polygon fill="midnightblue" stroke="midnightblue" points="948.73,-601.19 956.47,-608.42 954.93,-597.94 948.73,-601.19"/>
</g>
<!-- Node15&#45;&gt;Node3 -->
<g id="edge27" class="edge">
<title>Node15&#45;&gt;Node3</title>
<path fill="none" stroke="midnightblue" d="M869.93,-307.13C913.26,-305.78 969.28,-309.85 1013,-333 1062.07,-358.98 1097.37,-417.41 1113.01,-447.42"/>
<polygon fill="midnightblue" stroke="midnightblue" points="1109.92,-449.07 1117.55,-456.43 1116.17,-445.92 1109.92,-449.07"/>
</g>
<!-- Node15&#45;&gt;Node7 -->
<g id="edge28" class="edge">
<title>Node15&#45;&gt;Node7</title>
<path fill="none" stroke="midnightblue" d="M837.27,-304.4C849.75,-300.52 863.72,-295.63 876,-290 898.52,-279.67 922.48,-264.72 939.29,-253.49"/>
<polygon fill="midnightblue" stroke="midnightblue" points="941.52,-256.2 947.83,-247.69 937.59,-250.41 941.52,-256.2"/>
</g>
<!-- Node15&#45;&gt;Node13 -->
<g id="edge29" class="edge">
<title>Node15&#45;&gt;Node13</title>
<path fill="none" stroke="midnightblue" d="M842.25,-323.59C871.8,-330.63 911.04,-339.98 936.29,-345.99"/>
<polygon fill="midnightblue" stroke="midnightblue" points="935.64,-349.44 946.18,-348.35 937.26,-342.63 935.64,-349.44"/>
</g>
<!-- Node16&#45;&gt;Node2 -->
<g id="edge34" class="edge">
<title>Node16&#45;&gt;Node2</title>
<path fill="none" stroke="midnightblue" d="M840.8,-703.45C852.5,-699.78 865.12,-694.99 876,-689 902.73,-674.28 929.06,-650.66 945.28,-634.75"/>
<polygon fill="midnightblue" stroke="midnightblue" points="947.8,-637.17 952.39,-627.63 942.85,-632.23 947.8,-637.17"/>
</g>
<!-- Node16&#45;&gt;Node3 -->
<g id="edge35" class="edge">
<title>Node16&#45;&gt;Node3</title>
<path fill="none" stroke="midnightblue" d="M858.19,-703.46C903.9,-693.35 968,-673.62 1013,-637 1040.06,-614.98 1090.56,-524.55 1111.98,-484.85"/>
<polygon fill="midnightblue" stroke="midnightblue" points="1115.13,-486.38 1116.77,-475.92 1108.96,-483.07 1115.13,-486.38"/>
</g>
</g>
</svg>
