<?xml version="1.0" encoding="UTF-8" standalone="no"?>
<!DOCTYPE svg PUBLIC "-//W3C//DTD SVG 1.1//EN"
 "http://www.w3.org/Graphics/SVG/1.1/DTD/svg11.dtd">
<!-- Generated by graphviz version 3.0.0 (20220413.0106)
 -->
<!-- Title: SyntaxAnalyzer::syntaxExpr Pages: 1 -->
<svg width="1201pt" height="693pt"
 viewBox="0.00 0.00 1201.00 693.24" xmlns="http://www.w3.org/2000/svg" xmlns:xlink="http://www.w3.org/1999/xlink">
<g id="graph0" class="graph" transform="scale(1 1) rotate(0) translate(4 689.24)">
<title>SyntaxAnalyzer::syntaxExpr</title>
<!-- Node1 -->
<g id="node1" class="node">
<title>Node1</title>
<g id="a_node1"><a xlink:title=" ">
<polygon fill="#bfbfbf" stroke="black" points="0,-410.04 0,-429.04 134,-429.04 134,-410.04 0,-410.04"/>
<text text-anchor="middle" x="67" y="-417.04" font-family="Helvetica,sans-Serif" font-size="10.00">SyntaxAnalyzer::syntaxExpr</text>
</a>
</g>
</g>
<!-- Node2 -->
<g id="node2" class="node">
<title>Node2</title>
<g id="a_node2"><a xlink:href="../../d0/dfe/class_syntax_analyzer.html#a5d17bcae2fd7dc11d0710e046c4c3280" target="_top" xlink:title=" ">
<polygon fill="none" stroke="black" points="908,-486.04 908,-505.04 1009,-505.04 1009,-486.04 908,-486.04"/>
<text text-anchor="middle" x="958.5" y="-493.04" font-family="Helvetica,sans-Serif" font-size="10.00">SyntaxAnalyzer::eat</text>
</a>
</g>
</g>
<!-- Node1&#45;&gt;Node2 -->
<g id="edge1" class="edge">
<title>Node1&#45;&gt;Node2</title>
<path fill="none" stroke="midnightblue" d="M73.49,-429.07C87.14,-452.03 124.79,-511.16 170,-546.54 273.19,-627.31 306.46,-670.54 437.5,-670.54 437.5,-670.54 437.5,-670.54 615.5,-670.54 729.81,-670.54 775.86,-713.39 872,-651.54 921.22,-619.88 944.42,-549.62 953.15,-515.25"/>
<polygon fill="midnightblue" stroke="midnightblue" points="956.57,-515.98 955.49,-505.44 949.77,-514.36 956.57,-515.98"/>
</g>
<!-- Node4 -->
<g id="node4" class="node">
<title>Node4</title>
<g id="a_node4"><a xlink:href="../../d0/dfe/class_syntax_analyzer.html#a3ae6c7319e61cd669c417f189b098374" target="_top" xlink:title=" ">
<polygon fill="none" stroke="black" points="1053,-372.04 1053,-391.04 1185,-391.04 1185,-372.04 1053,-372.04"/>
<text text-anchor="middle" x="1119" y="-379.04" font-family="Helvetica,sans-Serif" font-size="10.00">SyntaxAnalyzer::getCurTok</text>
</a>
</g>
</g>
<!-- Node1&#45;&gt;Node4 -->
<g id="edge5" class="edge">
<title>Node1&#45;&gt;Node4</title>
<path fill="none" stroke="midnightblue" d="M68.24,-409.79C69.78,-367.36 81.49,-196.78 170,-103.54 257.6,-11.26 310.26,-1.54 437.5,-1.54 437.5,-1.54 437.5,-1.54 798,-1.54 894.48,-1.54 938.02,12.8 1009,-52.54 1101.98,-138.13 1115.76,-304.73 1117.71,-361.81"/>
<polygon fill="midnightblue" stroke="midnightblue" points="1114.22,-362.07 1117.97,-371.98 1121.22,-361.9 1114.22,-362.07"/>
</g>
<!-- Node6 -->
<g id="node6" class="node">
<title>Node6</title>
<g id="a_node6"><a xlink:href="../../d0/d11/class_i_token.html#a568cb9d98839eff3fd758f419a76b092" target="_top" xlink:title="Получение типа токена">
<polygon fill="none" stroke="black" points="915.5,-144.04 915.5,-163.04 1001.5,-163.04 1001.5,-144.04 915.5,-144.04"/>
<text text-anchor="middle" x="958.5" y="-151.04" font-family="Helvetica,sans-Serif" font-size="10.00">IToken::getType</text>
</a>
</g>
</g>
<!-- Node1&#45;&gt;Node6 -->
<g id="edge6" class="edge">
<title>Node1&#45;&gt;Node6</title>
<path fill="none" stroke="midnightblue" d="M72.27,-410.04C97.81,-354.8 236.02,-77.54 437.5,-77.54 437.5,-77.54 437.5,-77.54 615.5,-77.54 730.16,-77.54 861.39,-118.75 922.63,-140.48"/>
<polygon fill="midnightblue" stroke="midnightblue" points="921.59,-143.83 932.19,-143.92 923.96,-137.24 921.59,-143.83"/>
</g>
<!-- Node7 -->
<g id="node7" class="node">
<title>Node7</title>
<g id="a_node7"><a xlink:href="../../df/d3f/_syntax_8hpp.html#ae7d62ca130413d4c96863327c1af81a4" target="_top" xlink:title="Возвращает истину, если value находится среди значений cont.">
<polygon fill="none" stroke="black" points="598.5,-562.04 598.5,-581.04 630.5,-581.04 630.5,-562.04 598.5,-562.04"/>
<text text-anchor="middle" x="614.5" y="-569.04" font-family="Helvetica,sans-Serif" font-size="10.00">isIn</text>
</a>
</g>
</g>
<!-- Node1&#45;&gt;Node7 -->
<g id="edge7" class="edge">
<title>Node1&#45;&gt;Node7</title>
<path fill="none" stroke="midnightblue" d="M75.49,-429.16C90.88,-448.16 128.16,-490.31 170,-509.54 317.18,-577.21 518.56,-575.8 588.42,-572.93"/>
<polygon fill="midnightblue" stroke="midnightblue" points="588.65,-576.42 598.48,-572.47 588.33,-569.43 588.65,-576.42"/>
</g>
<!-- Node10 -->
<g id="node10" class="node">
<title>Node10</title>
<g id="a_node10"><a xlink:href="../../d0/dfe/class_syntax_analyzer.html#a920d9565d4aa2e3815ff9e7146f45a0b" target="_top" xlink:title=" ">
<polygon fill="none" stroke="black" points="170,-410.04 170,-429.04 334,-429.04 334,-410.04 170,-410.04"/>
<text text-anchor="middle" x="252" y="-417.04" font-family="Helvetica,sans-Serif" font-size="10.00">SyntaxAnalyzer::syntaxSimpleExpr</text>
</a>
</g>
</g>
<!-- Node1&#45;&gt;Node10 -->
<g id="edge10" class="edge">
<title>Node1&#45;&gt;Node10</title>
<path fill="none" stroke="midnightblue" d="M134.07,-419.54C142.38,-419.54 151,-419.54 159.62,-419.54"/>
<polygon fill="midnightblue" stroke="midnightblue" points="159.72,-423.04 169.72,-419.54 159.72,-416.04 159.72,-423.04"/>
</g>
<!-- Node3 -->
<g id="node3" class="node">
<title>Node3</title>
<g id="a_node3"><a xlink:href="../../d2/da7/namespacemagic__enum.html#af505522c30c0e3ff627fb3e39b67a6c5" target="_top" xlink:title=" ">
<polygon fill="none" stroke="black" points="1054,-429.04 1054,-448.04 1184,-448.04 1184,-429.04 1054,-429.04"/>
<text text-anchor="middle" x="1119" y="-436.04" font-family="Helvetica,sans-Serif" font-size="10.00">magic_enum::enum_name</text>
</a>
</g>
</g>
<!-- Node2&#45;&gt;Node3 -->
<g id="edge2" class="edge">
<title>Node2&#45;&gt;Node3</title>
<path fill="none" stroke="midnightblue" d="M986.03,-486C1012.32,-476.55 1052.77,-462 1081.95,-451.51"/>
<polygon fill="midnightblue" stroke="midnightblue" points="1083.16,-454.79 1091.38,-448.11 1080.79,-448.21 1083.16,-454.79"/>
</g>
<!-- Node2&#45;&gt;Node4 -->
<g id="edge3" class="edge">
<title>Node2&#45;&gt;Node4</title>
<path fill="none" stroke="midnightblue" d="M985.43,-486.01C993.52,-482.27 1002.11,-477.45 1009,-471.54 1030.35,-453.26 1023.92,-438.13 1045,-419.54 1056.21,-409.66 1070.45,-401.51 1083.37,-395.32"/>
<polygon fill="midnightblue" stroke="midnightblue" points="1084.83,-398.5 1092.48,-391.17 1081.93,-392.13 1084.83,-398.5"/>
</g>
<!-- Node5 -->
<g id="node5" class="node">
<title>Node5</title>
<g id="a_node5"><a xlink:href="../../d0/dfe/class_syntax_analyzer.html#a9e41370d8d74fbd2e77648d2071e7dfe" target="_top" xlink:title=" ">
<polygon fill="none" stroke="black" points="1045,-486.04 1045,-505.04 1193,-505.04 1193,-486.04 1045,-486.04"/>
<text text-anchor="middle" x="1119" y="-493.04" font-family="Helvetica,sans-Serif" font-size="10.00">SyntaxAnalyzer::getNextToken</text>
</a>
</g>
</g>
<!-- Node2&#45;&gt;Node5 -->
<g id="edge4" class="edge">
<title>Node2&#45;&gt;Node5</title>
<path fill="none" stroke="midnightblue" d="M1009.22,-495.54C1017.37,-495.54 1026.02,-495.54 1034.72,-495.54"/>
<polygon fill="midnightblue" stroke="midnightblue" points="1034.95,-499.04 1044.95,-495.54 1034.95,-492.04 1034.95,-499.04"/>
</g>
<!-- Node8 -->
<g id="node8" class="node">
<title>Node8</title>
<g id="a_node8"><a xlink:href="../../dd/d3d/namespacemagic__enum_1_1detail.html#a4e442a24179e53022ac3d2948851a8aa" target="_top" xlink:title=" ">
<polygon fill="none" stroke="black" points="747,-611.54 747,-641.54 847,-641.54 847,-611.54 747,-611.54"/>
<text text-anchor="start" x="755" y="-629.54" font-family="Helvetica,sans-Serif" font-size="10.00">magic_enum::detail</text>
<text text-anchor="middle" x="797" y="-618.54" font-family="Helvetica,sans-Serif" font-size="10.00">::find</text>
</a>
</g>
</g>
<!-- Node7&#45;&gt;Node8 -->
<g id="edge8" class="edge">
<title>Node7&#45;&gt;Node8</title>
<path fill="none" stroke="midnightblue" d="M630.58,-576.14C653.76,-583.2 699.39,-597.1 736.86,-608.52"/>
<polygon fill="midnightblue" stroke="midnightblue" points="736.11,-611.95 746.69,-611.52 738.15,-605.26 736.11,-611.95"/>
</g>
<!-- Node9 -->
<g id="node9" class="node">
<title>Node9</title>
<g id="a_node9"><a xlink:href="../../dd/d3d/namespacemagic__enum_1_1detail.html#a8e06754b490522d8ae02cd8983e3fcbf" target="_top" xlink:title=" ">
<polygon fill="none" stroke="black" points="747,-562.54 747,-592.54 847,-592.54 847,-562.54 747,-562.54"/>
<text text-anchor="start" x="755" y="-580.54" font-family="Helvetica,sans-Serif" font-size="10.00">magic_enum::detail</text>
<text text-anchor="middle" x="797" y="-569.54" font-family="Helvetica,sans-Serif" font-size="10.00">::value</text>
</a>
</g>
</g>
<!-- Node7&#45;&gt;Node9 -->
<g id="edge9" class="edge">
<title>Node7&#45;&gt;Node9</title>
<path fill="none" stroke="midnightblue" d="M630.58,-572.04C653.66,-572.81 699,-574.32 736.39,-575.56"/>
<polygon fill="midnightblue" stroke="midnightblue" points="736.58,-579.07 746.69,-575.9 736.82,-572.07 736.58,-579.07"/>
</g>
<!-- Node10&#45;&gt;Node2 -->
<g id="edge11" class="edge">
<title>Node10&#45;&gt;Node2</title>
<path fill="none" stroke="midnightblue" d="M294.41,-429.09C375.78,-447.26 562.49,-486.02 722,-497.54 781.65,-501.85 850.01,-500.58 897.66,-498.71"/>
<polygon fill="midnightblue" stroke="midnightblue" points="897.96,-502.2 907.81,-498.28 897.67,-495.2 897.96,-502.2"/>
</g>
<!-- Node10&#45;&gt;Node4 -->
<g id="edge12" class="edge">
<title>Node10&#45;&gt;Node4</title>
<path fill="none" stroke="midnightblue" d="M256.49,-409.77C278.41,-350.29 402.98,-39.54 613.5,-39.54 613.5,-39.54 613.5,-39.54 798,-39.54 900.84,-39.54 938.59,-59.58 1009,-134.54 1073.49,-203.2 1103.9,-316.28 1114,-361.73"/>
<polygon fill="midnightblue" stroke="midnightblue" points="1110.62,-362.7 1116.13,-371.75 1117.47,-361.24 1110.62,-362.7"/>
</g>
<!-- Node10&#45;&gt;Node6 -->
<g id="edge13" class="edge">
<title>Node10&#45;&gt;Node6</title>
<path fill="none" stroke="midnightblue" d="M261.86,-409.55C294.91,-372.91 415.68,-244.86 543,-182.54 661.99,-124.3 823.57,-134.7 905.4,-145.23"/>
<polygon fill="midnightblue" stroke="midnightblue" points="905.07,-148.71 915.45,-146.57 906,-141.78 905.07,-148.71"/>
</g>
<!-- Node10&#45;&gt;Node7 -->
<g id="edge14" class="edge">
<title>Node10&#45;&gt;Node7</title>
<path fill="none" stroke="midnightblue" d="M273.13,-429.18C319.93,-451.4 439.91,-507.44 543,-547.54 557.98,-553.37 575.03,-559.2 588.62,-563.65"/>
<polygon fill="midnightblue" stroke="midnightblue" points="587.64,-567.01 598.24,-566.77 589.8,-560.35 587.64,-567.01"/>
</g>
<!-- Node11 -->
<g id="node11" class="node">
<title>Node11</title>
<g id="a_node11"><a xlink:href="../../d0/dfe/class_syntax_analyzer.html#a7721cf7d36d549f81fd05c40dba02f67" target="_top" xlink:title=" ">
<polygon fill="none" stroke="black" points="370,-410.04 370,-429.04 507,-429.04 507,-410.04 370,-410.04"/>
<text text-anchor="middle" x="438.5" y="-417.04" font-family="Helvetica,sans-Serif" font-size="10.00">SyntaxAnalyzer::syntaxTerm</text>
</a>
</g>
</g>
<!-- Node10&#45;&gt;Node11 -->
<g id="edge15" class="edge">
<title>Node10&#45;&gt;Node11</title>
<path fill="none" stroke="midnightblue" d="M334.19,-419.54C342.65,-419.54 351.23,-419.54 359.64,-419.54"/>
<polygon fill="midnightblue" stroke="midnightblue" points="359.81,-423.04 369.81,-419.54 359.81,-416.04 359.81,-423.04"/>
</g>
<!-- Node11&#45;&gt;Node2 -->
<g id="edge16" class="edge">
<title>Node11&#45;&gt;Node2</title>
<path fill="none" stroke="midnightblue" d="M479.01,-429.06C533.4,-441.81 634.55,-464.24 722,-476.54 781.41,-484.9 849.81,-489.91 897.53,-492.67"/>
<polygon fill="midnightblue" stroke="midnightblue" points="897.51,-496.18 907.69,-493.24 897.91,-489.19 897.51,-496.18"/>
</g>
<!-- Node11&#45;&gt;Node4 -->
<g id="edge17" class="edge">
<title>Node11&#45;&gt;Node4</title>
<path fill="none" stroke="midnightblue" d="M507.04,-415.76C634.44,-408.63 909.4,-393.23 1042.61,-385.77"/>
<polygon fill="midnightblue" stroke="midnightblue" points="1042.94,-389.25 1052.73,-385.2 1042.55,-382.26 1042.94,-389.25"/>
</g>
<!-- Node11&#45;&gt;Node6 -->
<g id="edge18" class="edge">
<title>Node11&#45;&gt;Node6</title>
<path fill="none" stroke="midnightblue" d="M446.36,-409.79C474.73,-370.44 587.64,-222.72 722,-167.54 781.25,-143.21 855.98,-143.38 905.18,-147.2"/>
<polygon fill="midnightblue" stroke="midnightblue" points="905.02,-150.7 915.28,-148.06 905.61,-143.72 905.02,-150.7"/>
</g>
<!-- Node11&#45;&gt;Node7 -->
<g id="edge19" class="edge">
<title>Node11&#45;&gt;Node7</title>
<path fill="none" stroke="midnightblue" d="M450.38,-429.05C479.31,-454.32 558.38,-523.39 594.74,-555.16"/>
<polygon fill="midnightblue" stroke="midnightblue" points="592.79,-558.1 602.62,-562.04 597.39,-552.82 592.79,-558.1"/>
</g>
<!-- Node12 -->
<g id="node12" class="node">
<title>Node12</title>
<g id="a_node12"><a xlink:href="../../d0/dfe/class_syntax_analyzer.html#ab9b415ddd671b4884ab31cdf194f6c64" target="_top" xlink:title=" ">
<polygon fill="none" stroke="black" points="543,-334.04 543,-353.04 686,-353.04 686,-334.04 543,-334.04"/>
<text text-anchor="middle" x="614.5" y="-341.04" font-family="Helvetica,sans-Serif" font-size="10.00">SyntaxAnalyzer::syntaxFactor</text>
</a>
</g>
</g>
<!-- Node11&#45;&gt;Node12 -->
<g id="edge20" class="edge">
<title>Node11&#45;&gt;Node12</title>
<path fill="none" stroke="midnightblue" d="M461.54,-409.92C492.13,-396.55 547.62,-372.32 582.42,-357.12"/>
<polygon fill="midnightblue" stroke="midnightblue" points="583.88,-360.3 591.64,-353.09 581.08,-353.89 583.88,-360.3"/>
</g>
<!-- Node12&#45;&gt;Node1 -->
<g id="edge35" class="edge">
<title>Node12&#45;&gt;Node1</title>
<path fill="none" stroke="midnightblue" d="M542.66,-351.4C454.96,-361.42 301.14,-379.92 170,-400.54 155.82,-402.77 140.59,-405.45 126.34,-408.09"/>
<polygon fill="midnightblue" stroke="midnightblue" points="125.34,-404.72 116.16,-410 126.63,-411.6 125.34,-404.72"/>
</g>
<!-- Node12&#45;&gt;Node2 -->
<g id="edge21" class="edge">
<title>Node12&#45;&gt;Node2</title>
<path fill="none" stroke="midnightblue" d="M648.52,-353.05C698.37,-368.01 795.21,-399.4 872,-438.54 895.42,-450.48 920.2,-467.55 937.02,-479.9"/>
<polygon fill="midnightblue" stroke="midnightblue" points="934.93,-482.71 945.04,-485.87 939.11,-477.09 934.93,-482.71"/>
</g>
<!-- Node12&#45;&gt;Node4 -->
<g id="edge22" class="edge">
<title>Node12&#45;&gt;Node4</title>
<path fill="none" stroke="midnightblue" d="M623.16,-333.92C639.22,-314.44 678.59,-270.32 722,-248.54 797.42,-210.71 824.05,-219.03 908,-210.54 952.66,-206.03 969.64,-188.96 1009,-210.54 1068.84,-243.36 1100.56,-324.54 1112.43,-362.01"/>
<polygon fill="midnightblue" stroke="midnightblue" points="1109.13,-363.18 1115.37,-371.74 1115.83,-361.16 1109.13,-363.18"/>
</g>
<!-- Node12&#45;&gt;Node6 -->
<g id="edge28" class="edge">
<title>Node12&#45;&gt;Node6</title>
<path fill="none" stroke="midnightblue" d="M620.74,-333.77C634.16,-309.69 672.26,-247.22 722,-215.54 752.17,-196.33 845.35,-175.43 905.05,-163.46"/>
<polygon fill="midnightblue" stroke="midnightblue" points="905.93,-166.86 915.06,-161.48 904.57,-159.99 905.93,-166.86"/>
</g>
<!-- Node12&#45;&gt;Node12 -->
<g id="edge36" class="edge">
<title>Node12&#45;&gt;Node12</title>
<path fill="none" stroke="midnightblue" d="M587.37,-353.3C574.18,-362.11 583.22,-371.54 614.5,-371.54 636.01,-371.54 647,-367.08 647.48,-361.43"/>
<polygon fill="midnightblue" stroke="midnightblue" points="650.31,-359.37 641.63,-353.3 644.63,-363.46 650.31,-359.37"/>
</g>
<!-- Node13 -->
<g id="node13" class="node">
<title>Node13</title>
<g id="a_node13"><a xlink:href="../../db/dc1/class_token.html#a014ced0a9ea72ae21fad0d4f116d0a73" target="_top" xlink:title=" ">
<polygon fill="none" stroke="black" points="758,-258.04 758,-277.04 836,-277.04 836,-258.04 758,-258.04"/>
<text text-anchor="middle" x="797" y="-265.04" font-family="Helvetica,sans-Serif" font-size="10.00">Token::getInfo</text>
</a>
</g>
</g>
<!-- Node12&#45;&gt;Node13 -->
<g id="edge23" class="edge">
<title>Node12&#45;&gt;Node13</title>
<path fill="none" stroke="midnightblue" d="M630.47,-334.03C650.59,-321.61 687.8,-299.86 722,-286.54 730.26,-283.33 739.25,-280.49 748.03,-278.06"/>
<polygon fill="midnightblue" stroke="midnightblue" points="749.02,-281.42 757.8,-275.49 747.24,-274.65 749.02,-281.42"/>
</g>
<!-- Node16 -->
<g id="node16" class="node">
<title>Node16</title>
<g id="a_node16"><a xlink:href="../../d0/dfe/class_syntax_analyzer.html#af0905389742c4f842207bb2c073afbfa" target="_top" xlink:title=" ">
<polygon fill="none" stroke="black" points="728.5,-296.04 728.5,-315.04 865.5,-315.04 865.5,-296.04 728.5,-296.04"/>
<text text-anchor="middle" x="797" y="-303.04" font-family="Helvetica,sans-Serif" font-size="10.00">SyntaxAnalyzer::lookFoward</text>
</a>
</g>
</g>
<!-- Node12&#45;&gt;Node16 -->
<g id="edge29" class="edge">
<title>Node12&#45;&gt;Node16</title>
<path fill="none" stroke="midnightblue" d="M661.05,-333.95C685.3,-328.85 715.3,-322.53 740.86,-317.15"/>
<polygon fill="midnightblue" stroke="midnightblue" points="741.72,-320.55 750.78,-315.06 740.27,-313.7 741.72,-320.55"/>
</g>
<!-- Node18 -->
<g id="node18" class="node">
<title>Node18</title>
<g id="a_node18"><a xlink:href="../../d0/dfe/class_syntax_analyzer.html#a9321de68e44f3918a71256a3c1cd481b" target="_top" xlink:title=" ">
<polygon fill="none" stroke="black" points="726.5,-448.04 726.5,-467.04 867.5,-467.04 867.5,-448.04 726.5,-448.04"/>
<text text-anchor="middle" x="797" y="-455.04" font-family="Helvetica,sans-Serif" font-size="10.00">SyntaxAnalyzer::syntaxCallSt</text>
</a>
</g>
</g>
<!-- Node12&#45;&gt;Node18 -->
<g id="edge31" class="edge">
<title>Node12&#45;&gt;Node18</title>
<path fill="none" stroke="midnightblue" d="M630.58,-353.07C661.9,-372.85 734.23,-418.53 772.02,-442.4"/>
<polygon fill="midnightblue" stroke="midnightblue" points="770.51,-445.59 780.84,-447.97 774.25,-439.67 770.51,-445.59"/>
</g>
<!-- Node19 -->
<g id="node19" class="node">
<title>Node19</title>
<g id="a_node19"><a xlink:href="../../d0/dfe/class_syntax_analyzer.html#a8d3dc6feefe1957f1c81cbc7b8318559" target="_top" xlink:title=" ">
<polygon fill="none" stroke="black" points="722,-334.04 722,-353.04 872,-353.04 872,-334.04 722,-334.04"/>
<text text-anchor="middle" x="797" y="-341.04" font-family="Helvetica,sans-Serif" font-size="10.00">SyntaxAnalyzer::syntaxVariable</text>
</a>
</g>
</g>
<!-- Node12&#45;&gt;Node19 -->
<g id="edge37" class="edge">
<title>Node12&#45;&gt;Node19</title>
<path fill="none" stroke="midnightblue" d="M686.06,-343.54C694.52,-343.54 703.22,-343.54 711.84,-343.54"/>
<polygon fill="midnightblue" stroke="midnightblue" points="711.91,-347.04 721.91,-343.54 711.91,-340.04 711.91,-347.04"/>
</g>
<!-- Node13&#45;&gt;Node3 -->
<g id="edge24" class="edge">
<title>Node13&#45;&gt;Node3</title>
<path fill="none" stroke="midnightblue" d="M836.28,-273.9C889.69,-283.42 982.94,-302.62 1009,-324.54 1037.6,-348.61 1019.07,-373.62 1045,-400.54 1054.87,-410.79 1068.11,-418.82 1080.61,-424.8"/>
<polygon fill="midnightblue" stroke="midnightblue" points="1079.39,-428.09 1089.95,-428.98 1082.25,-421.7 1079.39,-428.09"/>
</g>
<!-- Node13&#45;&gt;Node6 -->
<g id="edge26" class="edge">
<title>Node13&#45;&gt;Node6</title>
<path fill="none" stroke="midnightblue" d="M811.32,-258.02C838.82,-238.37 902.06,-193.17 935.63,-169.17"/>
<polygon fill="midnightblue" stroke="midnightblue" points="937.77,-171.94 943.88,-163.28 933.7,-166.25 937.77,-171.94"/>
</g>
<!-- Node14 -->
<g id="node14" class="node">
<title>Node14</title>
<g id="a_node14"><a xlink:href="../../db/dc1/class_token.html#a942fcc40ffdf54c98b7b641c792a26bc" target="_top" xlink:title="Возвращает константную ссылку на строковое представление токена">
<polygon fill="none" stroke="black" points="921.5,-220.04 921.5,-239.04 995.5,-239.04 995.5,-220.04 921.5,-220.04"/>
<text text-anchor="middle" x="958.5" y="-227.04" font-family="Helvetica,sans-Serif" font-size="10.00">Token::getStr</text>
</a>
</g>
</g>
<!-- Node13&#45;&gt;Node14 -->
<g id="edge25" class="edge">
<title>Node13&#45;&gt;Node14</title>
<path fill="none" stroke="midnightblue" d="M836.2,-258.44C858.78,-253.06 887.53,-246.21 911.37,-240.53"/>
<polygon fill="midnightblue" stroke="midnightblue" points="912.33,-243.9 921.25,-238.18 910.71,-237.09 912.33,-243.9"/>
</g>
<!-- Node15 -->
<g id="node15" class="node">
<title>Node15</title>
<g id="a_node15"><a xlink:href="../../db/dc1/class_token.html#af3b5fdf2261d637af820d4adb62e6109" target="_top" xlink:title=" ">
<polygon fill="none" stroke="black" points="927,-258.04 927,-277.04 990,-277.04 990,-258.04 927,-258.04"/>
<text text-anchor="middle" x="958.5" y="-265.04" font-family="Helvetica,sans-Serif" font-size="10.00">Token::line</text>
</a>
</g>
</g>
<!-- Node13&#45;&gt;Node15 -->
<g id="edge27" class="edge">
<title>Node13&#45;&gt;Node15</title>
<path fill="none" stroke="midnightblue" d="M836.2,-267.54C860.48,-267.54 891.87,-267.54 916.64,-267.54"/>
<polygon fill="midnightblue" stroke="midnightblue" points="916.81,-271.04 926.81,-267.54 916.81,-264.04 916.81,-271.04"/>
</g>
<!-- Node17 -->
<g id="node17" class="node">
<title>Node17</title>
<g id="a_node17"><a xlink:href="../../d1/d34/class_list.html#a49c179636e084dfbf7a52acd46acaf01" target="_top" xlink:title=" ">
<polygon fill="none" stroke="black" points="931,-334.04 931,-353.04 986,-353.04 986,-334.04 931,-334.04"/>
<text text-anchor="middle" x="958.5" y="-341.04" font-family="Helvetica,sans-Serif" font-size="10.00">List::size</text>
</a>
</g>
</g>
<!-- Node16&#45;&gt;Node17 -->
<g id="edge30" class="edge">
<title>Node16&#45;&gt;Node17</title>
<path fill="none" stroke="midnightblue" d="M838.25,-315.13C863.6,-321.17 896.09,-328.91 920.75,-334.79"/>
<polygon fill="midnightblue" stroke="midnightblue" points="920.25,-338.27 930.79,-337.18 921.88,-331.46 920.25,-338.27"/>
</g>
<!-- Node18&#45;&gt;Node1 -->
<g id="edge34" class="edge">
<title>Node18&#45;&gt;Node1</title>
<path fill="none" stroke="midnightblue" d="M726.28,-458.91C610.42,-460.41 371.08,-460.19 170,-438.54 153.99,-436.82 136.72,-433.98 121.02,-431.02"/>
<polygon fill="midnightblue" stroke="midnightblue" points="121.45,-427.54 110.96,-429.06 120.11,-434.41 121.45,-427.54"/>
</g>
<!-- Node18&#45;&gt;Node2 -->
<g id="edge32" class="edge">
<title>Node18&#45;&gt;Node2</title>
<path fill="none" stroke="midnightblue" d="M838.25,-467.13C859.3,-472.15 885.26,-478.33 907.57,-483.65"/>
<polygon fill="midnightblue" stroke="midnightblue" points="907,-487.11 917.54,-486.02 908.62,-480.3 907,-487.11"/>
</g>
<!-- Node18&#45;&gt;Node4 -->
<g id="edge33" class="edge">
<title>Node18&#45;&gt;Node4</title>
<path fill="none" stroke="midnightblue" d="M867.54,-455.42C909.24,-452.73 962.93,-446.75 1009,-433.54 1025.16,-428.91 1063.82,-409.69 1090.47,-395.97"/>
<polygon fill="midnightblue" stroke="midnightblue" points="1092.41,-398.9 1099.68,-391.2 1089.19,-392.69 1092.41,-398.9"/>
</g>
<!-- Node19&#45;&gt;Node2 -->
<g id="edge38" class="edge">
<title>Node19&#45;&gt;Node2</title>
<path fill="none" stroke="midnightblue" d="M843.78,-353.13C853.71,-356.6 863.71,-361.27 872,-367.54 910.55,-396.71 937.31,-448.57 949.69,-476.49"/>
<polygon fill="midnightblue" stroke="midnightblue" points="946.58,-478.1 953.73,-485.92 953.01,-475.35 946.58,-478.1"/>
</g>
<!-- Node19&#45;&gt;Node4 -->
<g id="edge39" class="edge">
<title>Node19&#45;&gt;Node4</title>
<path fill="none" stroke="midnightblue" d="M847.97,-353.05C866.75,-356.39 888.3,-359.96 908,-362.54 952.41,-368.38 1002.33,-372.97 1042.36,-376.19"/>
<polygon fill="midnightblue" stroke="midnightblue" points="1042.34,-379.69 1052.58,-376.99 1042.89,-372.72 1042.34,-379.69"/>
</g>
</g>
</svg>
