<?xml version="1.0" encoding="UTF-8" standalone="no"?>
<!DOCTYPE svg PUBLIC "-//W3C//DTD SVG 1.1//EN"
 "http://www.w3.org/Graphics/SVG/1.1/DTD/svg11.dtd">
<!-- Generated by graphviz version 3.0.0 (20220413.0106)
 -->
<!-- Title: SyntaxAnalyzer::syntaxAssignSt Pages: 1 -->
<svg width="2009pt" height="123pt"
 viewBox="0.00 0.00 2009.00 123.00" xmlns="http://www.w3.org/2000/svg" xmlns:xlink="http://www.w3.org/1999/xlink">
<g id="graph0" class="graph" transform="scale(1 1) rotate(0) translate(4 119)">
<title>SyntaxAnalyzer::syntaxAssignSt</title>
<!-- Node1 -->
<g id="node1" class="node">
<title>Node1</title>
<g id="a_node1"><a xlink:title=" ">
<polygon fill="#bfbfbf" stroke="black" points="1846,-19.5 1846,-38.5 2001,-38.5 2001,-19.5 1846,-19.5"/>
<text text-anchor="middle" x="1923.5" y="-26.5" font-family="Helvetica,sans-Serif" font-size="10.00">SyntaxAnalyzer::syntaxAssignSt</text>
</a>
</g>
</g>
<!-- Node2 -->
<g id="node2" class="node">
<title>Node2</title>
<g id="a_node2"><a xlink:href="../../d0/dfe/class_syntax_analyzer.html#acef4b19447f253a6e25d762733ca8ede" target="_top" xlink:title=" ">
<polygon fill="none" stroke="black" points="1681,-38.5 1681,-57.5 1810,-57.5 1810,-38.5 1681,-38.5"/>
<text text-anchor="middle" x="1745.5" y="-45.5" font-family="Helvetica,sans-Serif" font-size="10.00">SyntaxAnalyzer::syntaxIter</text>
</a>
</g>
</g>
<!-- Node1&#45;&gt;Node2 -->
<g id="edge1" class="edge">
<title>Node1&#45;&gt;Node2</title>
<path fill="none" stroke="midnightblue" d="M1835.69,-38.37C1827.03,-39.31 1818.37,-40.24 1810.02,-41.14"/>
<polygon fill="midnightblue" stroke="midnightblue" points="1836.25,-41.83 1845.82,-37.28 1835.5,-34.87 1836.25,-41.83"/>
</g>
<!-- Node4 -->
<g id="node4" class="node">
<title>Node4</title>
<g id="a_node4"><a xlink:href="../../d0/dfe/class_syntax_analyzer.html#a1332b189c9be3ef8969eda9f078a97b3" target="_top" xlink:title=" ">
<polygon fill="none" stroke="black" points="1345,-38.5 1345,-57.5 1470,-57.5 1470,-38.5 1345,-38.5"/>
<text text-anchor="middle" x="1407.5" y="-45.5" font-family="Helvetica,sans-Serif" font-size="10.00">SyntaxAnalyzer::syntaxSt</text>
</a>
</g>
</g>
<!-- Node1&#45;&gt;Node4 -->
<g id="edge20" class="edge">
<title>Node1&#45;&gt;Node4</title>
<path fill="none" stroke="midnightblue" d="M1835.85,-24.16C1751.44,-20.59 1619.6,-18.03 1506,-29 1486.77,-30.86 1465.71,-34.72 1448.09,-38.49"/>
<polygon fill="midnightblue" stroke="midnightblue" points="1835.76,-27.66 1845.91,-24.6 1836.07,-20.67 1835.76,-27.66"/>
</g>
<!-- Node3 -->
<g id="node3" class="node">
<title>Node3</title>
<g id="a_node3"><a xlink:href="../../d0/dfe/class_syntax_analyzer.html#afd2005539c57ee2575cab3c50d061cd9" target="_top" xlink:title=" ">
<polygon fill="none" stroke="black" points="1506,-38.5 1506,-57.5 1645,-57.5 1645,-38.5 1506,-38.5"/>
<text text-anchor="middle" x="1575.5" y="-45.5" font-family="Helvetica,sans-Serif" font-size="10.00">SyntaxAnalyzer::syntaxForSt</text>
</a>
</g>
</g>
<!-- Node2&#45;&gt;Node3 -->
<g id="edge2" class="edge">
<title>Node2&#45;&gt;Node3</title>
<path fill="none" stroke="midnightblue" d="M1670.72,-48C1662.22,-48 1653.58,-48 1645.15,-48"/>
<polygon fill="midnightblue" stroke="midnightblue" points="1670.99,-51.5 1680.99,-48 1670.99,-44.5 1670.99,-51.5"/>
</g>
<!-- Node3&#45;&gt;Node4 -->
<g id="edge3" class="edge">
<title>Node3&#45;&gt;Node4</title>
<path fill="none" stroke="midnightblue" d="M1495.27,-41.26C1486.81,-41.23 1478.3,-41.29 1470.09,-41.45"/>
<polygon fill="midnightblue" stroke="midnightblue" points="1495.52,-44.76 1505.54,-41.34 1495.57,-37.76 1495.52,-44.76"/>
</g>
<!-- Node4&#45;&gt;Node3 -->
<g id="edge4" class="edge">
<title>Node4&#45;&gt;Node3</title>
<path fill="none" stroke="midnightblue" d="M1480.23,-54.69C1488.63,-54.78 1497.18,-54.77 1505.54,-54.66"/>
<polygon fill="midnightblue" stroke="midnightblue" points="1480.14,-51.19 1470.09,-54.55 1480.04,-58.19 1480.14,-51.19"/>
</g>
<!-- Node5 -->
<g id="node5" class="node">
<title>Node5</title>
<g id="a_node5"><a xlink:href="../../d0/dfe/class_syntax_analyzer.html#a44506791ee9420b418715a9e87908aeb" target="_top" xlink:title=" ">
<polygon fill="none" stroke="black" points="1169,-95.5 1169,-114.5 1300,-114.5 1300,-95.5 1169,-95.5"/>
<text text-anchor="middle" x="1234.5" y="-102.5" font-family="Helvetica,sans-Serif" font-size="10.00">SyntaxAnalyzer::syntaxIfSt</text>
</a>
</g>
</g>
<!-- Node4&#45;&gt;Node5 -->
<g id="edge5" class="edge">
<title>Node4&#45;&gt;Node5</title>
<path fill="none" stroke="midnightblue" d="M1353.94,-61.13C1339.5,-66.43 1323.75,-72.24 1309,-77 1288.31,-83.68 1263.75,-89.64 1248.91,-95.45"/>
<polygon fill="midnightblue" stroke="midnightblue" points="1355.51,-64.29 1363.7,-57.57 1353.1,-57.71 1355.51,-64.29"/>
</g>
<!-- Node6 -->
<g id="node6" class="node">
<title>Node6</title>
<g id="a_node6"><a xlink:href="../../d0/dfe/class_syntax_analyzer.html#a01d109f26cc4d069b40fed83435e3141" target="_top" xlink:title=" ">
<polygon fill="none" stroke="black" points="1164,-57.5 1164,-76.5 1305,-76.5 1305,-57.5 1164,-57.5"/>
<text text-anchor="middle" x="1234.5" y="-64.5" font-family="Helvetica,sans-Serif" font-size="10.00">SyntaxAnalyzer::syntaxStList</text>
</a>
</g>
</g>
<!-- Node4&#45;&gt;Node6 -->
<g id="edge7" class="edge">
<title>Node4&#45;&gt;Node6</title>
<path fill="none" stroke="midnightblue" d="M1334.72,-55.98C1324.97,-57.06 1314.98,-58.17 1305.27,-59.25"/>
<polygon fill="midnightblue" stroke="midnightblue" points="1335.21,-59.44 1344.77,-54.86 1334.44,-52.49 1335.21,-59.44"/>
</g>
<!-- Node15 -->
<g id="node15" class="node">
<title>Node15</title>
<g id="a_node15"><a xlink:href="../../d0/dfe/class_syntax_analyzer.html#a4a85e884f3f202c24ce09cc0c0e281b1" target="_top" xlink:title=" ">
<polygon fill="none" stroke="black" points="1160,-19.5 1160,-38.5 1309,-38.5 1309,-19.5 1160,-19.5"/>
<text text-anchor="middle" x="1234.5" y="-26.5" font-family="Helvetica,sans-Serif" font-size="10.00">SyntaxAnalyzer::syntaxWhileSt</text>
</a>
</g>
</g>
<!-- Node4&#45;&gt;Node15 -->
<g id="edge18" class="edge">
<title>Node4&#45;&gt;Node15</title>
<path fill="none" stroke="midnightblue" d="M1361.01,-36.9C1345.14,-34.53 1326.89,-32.29 1309.32,-30.51"/>
<polygon fill="midnightblue" stroke="midnightblue" points="1360.65,-40.39 1371.07,-38.47 1361.73,-33.47 1360.65,-40.39"/>
</g>
<!-- Node5&#45;&gt;Node4 -->
<g id="edge6" class="edge">
<title>Node5&#45;&gt;Node4</title>
<path fill="none" stroke="midnightblue" d="M1309.81,-94.59C1347.42,-82.03 1380.61,-67.9 1396.67,-57.66"/>
<polygon fill="midnightblue" stroke="midnightblue" points="1308.57,-91.31 1300.16,-97.74 1310.75,-97.96 1308.57,-91.31"/>
</g>
<!-- Node7 -->
<g id="node7" class="node">
<title>Node7</title>
<g id="a_node7"><a xlink:href="../../d0/dfe/class_syntax_analyzer.html#a1390f811b111005b207bd039d2623dd4" target="_top" xlink:title=" ">
<polygon fill="none" stroke="black" points="953,-19.5 953,-38.5 1124,-38.5 1124,-19.5 953,-19.5"/>
<text text-anchor="middle" x="1038.5" y="-26.5" font-family="Helvetica,sans-Serif" font-size="10.00">SyntaxAnalyzer::syntaxCompoundSt</text>
</a>
</g>
</g>
<!-- Node6&#45;&gt;Node7 -->
<g id="edge8" class="edge">
<title>Node6&#45;&gt;Node7</title>
<path fill="none" stroke="midnightblue" d="M1174.59,-55.46C1146.92,-50.04 1114.34,-43.66 1088.1,-38.52"/>
<polygon fill="midnightblue" stroke="midnightblue" points="1174.06,-58.92 1184.55,-57.41 1175.4,-52.05 1174.06,-58.92"/>
</g>
<!-- Node7&#45;&gt;Node4 -->
<g id="edge17" class="edge">
<title>Node7&#45;&gt;Node4</title>
<path fill="none" stroke="midnightblue" d="M1091.56,-17.53C1146.18,-7.31 1234.3,4.04 1309,-10 1337.75,-15.4 1368.9,-29.04 1388.06,-38.42"/>
<polygon fill="midnightblue" stroke="midnightblue" points="1090.59,-14.15 1081.43,-19.48 1091.91,-21.02 1090.59,-14.15"/>
</g>
<!-- Node8 -->
<g id="node8" class="node">
<title>Node8</title>
<g id="a_node8"><a xlink:href="../../d0/dfe/class_syntax_analyzer.html#a500e4e0cd0605ebbee4ab452948fa2ca" target="_top" xlink:title=" ">
<polygon fill="none" stroke="black" points="777,-19.5 777,-38.5 917,-38.5 917,-19.5 777,-19.5"/>
<text text-anchor="middle" x="847" y="-26.5" font-family="Helvetica,sans-Serif" font-size="10.00">SyntaxAnalyzer::syntaxBlock</text>
</a>
</g>
</g>
<!-- Node7&#45;&gt;Node8 -->
<g id="edge9" class="edge">
<title>Node7&#45;&gt;Node8</title>
<path fill="none" stroke="midnightblue" d="M942.63,-29C934.02,-29 925.41,-29 917.08,-29"/>
<polygon fill="midnightblue" stroke="midnightblue" points="942.73,-32.5 952.73,-29 942.73,-25.5 942.73,-32.5"/>
</g>
<!-- Node9 -->
<g id="node9" class="node">
<title>Node9</title>
<g id="a_node9"><a xlink:href="../../d0/dfe/class_syntax_analyzer.html#a4dc8338b4fc879f36e63f27fe3ce7041" target="_top" xlink:title=" ">
<polygon fill="none" stroke="black" points="589,-38.5 589,-57.5 741,-57.5 741,-38.5 589,-38.5"/>
<text text-anchor="middle" x="665" y="-45.5" font-family="Helvetica,sans-Serif" font-size="10.00">SyntaxAnalyzer::syntaxFuncDef</text>
</a>
</g>
</g>
<!-- Node8&#45;&gt;Node9 -->
<g id="edge10" class="edge">
<title>Node8&#45;&gt;Node9</title>
<path fill="none" stroke="midnightblue" d="M766.95,-37.34C758.39,-38.25 749.69,-39.17 741.18,-40.06"/>
<polygon fill="midnightblue" stroke="midnightblue" points="767.34,-40.82 776.92,-36.29 766.61,-33.86 767.34,-40.82"/>
</g>
<!-- Node10 -->
<g id="node10" class="node">
<title>Node10</title>
<g id="a_node10"><a xlink:href="../../d0/dfe/class_syntax_analyzer.html#ada547456d19f4a7490f57f7dc9bfed94" target="_top" xlink:title=" ">
<polygon fill="none" stroke="black" points="401,-19.5 401,-38.5 553,-38.5 553,-19.5 401,-19.5"/>
<text text-anchor="middle" x="477" y="-26.5" font-family="Helvetica,sans-Serif" font-size="10.00">SyntaxAnalyzer::syntaxProgram</text>
</a>
</g>
</g>
<!-- Node8&#45;&gt;Node10 -->
<g id="edge16" class="edge">
<title>Node8&#45;&gt;Node10</title>
<path fill="none" stroke="midnightblue" d="M766.46,-29C703.21,-29 615.34,-29 553.24,-29"/>
<polygon fill="midnightblue" stroke="midnightblue" points="766.78,-32.5 776.78,-29 766.78,-25.5 766.78,-32.5"/>
</g>
<!-- Node9&#45;&gt;Node10 -->
<g id="edge11" class="edge">
<title>Node9&#45;&gt;Node10</title>
<path fill="none" stroke="midnightblue" d="M578.85,-39.3C570.26,-38.42 561.57,-37.54 553.1,-36.67"/>
<polygon fill="midnightblue" stroke="midnightblue" points="578.58,-42.79 588.88,-40.33 579.29,-35.83 578.58,-42.79"/>
</g>
<!-- Node11 -->
<g id="node11" class="node">
<title>Node11</title>
<g id="a_node11"><a xlink:href="../../d0/dfe/class_syntax_analyzer.html#addbd9bc0fe0dae8cd2ddb4fbafea0fcc" target="_top" xlink:title="Синтаксический анализ токенов, переданных анализатору.">
<polygon fill="none" stroke="black" points="213,-19.5 213,-38.5 365,-38.5 365,-19.5 213,-19.5"/>
<text text-anchor="middle" x="289" y="-26.5" font-family="Helvetica,sans-Serif" font-size="10.00">SyntaxAnalyzer::analyzeTokens</text>
</a>
</g>
</g>
<!-- Node10&#45;&gt;Node11 -->
<g id="edge12" class="edge">
<title>Node10&#45;&gt;Node11</title>
<path fill="none" stroke="midnightblue" d="M390.85,-29C382.26,-29 373.57,-29 365.1,-29"/>
<polygon fill="midnightblue" stroke="midnightblue" points="390.88,-32.5 400.88,-29 390.88,-25.5 390.88,-32.5"/>
</g>
<!-- Node12 -->
<g id="node12" class="node">
<title>Node12</title>
<g id="a_node12"><a xlink:href="../../d1/d80/namespace_analyze.html#a1597f9f086c3276d0287917efbed14b8" target="_top" xlink:title=" ">
<polygon fill="none" stroke="black" points="74,-38.5 74,-57.5 177,-57.5 177,-38.5 74,-38.5"/>
<text text-anchor="middle" x="125.5" y="-45.5" font-family="Helvetica,sans-Serif" font-size="10.00">Analyze::analyzeFile</text>
</a>
</g>
</g>
<!-- Node11&#45;&gt;Node12 -->
<g id="edge13" class="edge">
<title>Node11&#45;&gt;Node12</title>
<path fill="none" stroke="midnightblue" d="M202.76,-39.03C194.11,-40.05 185.53,-41.06 177.41,-42.01"/>
<polygon fill="midnightblue" stroke="midnightblue" points="203.4,-42.48 212.92,-37.83 202.58,-35.52 203.4,-42.48"/>
</g>
<!-- Node14 -->
<g id="node14" class="node">
<title>Node14</title>
<g id="a_node14"><a xlink:href="../../db/df9/test_semantic_8cpp.html#a804faf7fd199a3c491020f1f2caa618b" target="_top" xlink:title="Тест семантического анализа Паскаля">
<polygon fill="none" stroke="black" points="105,-0.5 105,-19.5 146,-19.5 146,-0.5 105,-0.5"/>
<text text-anchor="middle" x="125.5" y="-7.5" font-family="Helvetica,sans-Serif" font-size="10.00">TEST</text>
</a>
</g>
</g>
<!-- Node11&#45;&gt;Node14 -->
<g id="edge15" class="edge">
<title>Node11&#45;&gt;Node14</title>
<path fill="none" stroke="midnightblue" d="M202.84,-18.98C181.63,-16.49 160.83,-14.04 146.31,-12.33"/>
<polygon fill="midnightblue" stroke="midnightblue" points="202.58,-22.48 212.92,-20.17 203.4,-15.52 202.58,-22.48"/>
</g>
<!-- Node13 -->
<g id="node13" class="node">
<title>Node13</title>
<g id="a_node13"><a xlink:href="../../d3/db4/graph_draw_8cpp.html#a3c04138a5bfe5d72780bb7e82a18e627" target="_top" xlink:title=" ">
<polygon fill="none" stroke="black" points="0,-38.5 0,-57.5 38,-57.5 38,-38.5 0,-38.5"/>
<text text-anchor="middle" x="19" y="-45.5" font-family="Helvetica,sans-Serif" font-size="10.00">main</text>
</a>
</g>
</g>
<!-- Node12&#45;&gt;Node13 -->
<g id="edge14" class="edge">
<title>Node12&#45;&gt;Node13</title>
<path fill="none" stroke="midnightblue" d="M63.7,-48C54.49,-48 45.64,-48 38.35,-48"/>
<polygon fill="midnightblue" stroke="midnightblue" points="63.78,-51.5 73.78,-48 63.78,-44.5 63.78,-51.5"/>
</g>
<!-- Node15&#45;&gt;Node4 -->
<g id="edge19" class="edge">
<title>Node15&#45;&gt;Node4</title>
<path fill="none" stroke="midnightblue" d="M1280.67,-40.05C1300.29,-42.98 1323.58,-45.73 1344.77,-47.65"/>
<polygon fill="midnightblue" stroke="midnightblue" points="1281.2,-36.59 1270.78,-38.5 1280.11,-43.51 1281.2,-36.59"/>
</g>
</g>
</svg>
