<?xml version="1.0" encoding="UTF-8" standalone="no"?>
<!DOCTYPE svg PUBLIC "-//W3C//DTD SVG 1.1//EN"
 "http://www.w3.org/Graphics/SVG/1.1/DTD/svg11.dtd">
<!-- Generated by graphviz version 3.0.0 (20220413.0106)
 -->
<!-- Title: SyntaxAnalyzer::syntaxCallSt Pages: 1 -->
<svg width="1396pt" height="882pt"
 viewBox="0.00 0.00 1396.00 882.00" xmlns="http://www.w3.org/2000/svg" xmlns:xlink="http://www.w3.org/1999/xlink">
<g id="graph0" class="graph" transform="scale(1 1) rotate(0) translate(4 878)">
<title>SyntaxAnalyzer::syntaxCallSt</title>
<!-- Node1 -->
<g id="node1" class="node">
<title>Node1</title>
<g id="a_node1"><a xlink:title=" ">
<polygon fill="#bfbfbf" stroke="black" points="0,-788.5 0,-807.5 141,-807.5 141,-788.5 0,-788.5"/>
<text text-anchor="middle" x="70.5" y="-795.5" font-family="Helvetica,sans-Serif" font-size="10.00">SyntaxAnalyzer::syntaxCallSt</text>
</a>
</g>
</g>
<!-- Node2 -->
<g id="node2" class="node">
<title>Node2</title>
<g id="a_node2"><a xlink:href="../../d7/d7c/class_a_s_t_factory.html#ad7de68f7aba03e4ca3fc96efb743aa38" target="_top" xlink:title=" ">
<polygon fill="none" stroke="black" points="1085,-104.5 1085,-123.5 1204,-123.5 1204,-104.5 1085,-104.5"/>
<text text-anchor="middle" x="1144.5" y="-111.5" font-family="Helvetica,sans-Serif" font-size="10.00">ASTFactory::createAST</text>
</a>
</g>
</g>
<!-- Node1&#45;&gt;Node2 -->
<g id="edge1" class="edge">
<title>Node1&#45;&gt;Node2</title>
<path fill="none" stroke="midnightblue" d="M71.22,-788.48C69.13,-698.45 64.59,0 428,0 428,0 428,0 792.5,0 919.99,0 1061.36,-68.88 1118,-99.56"/>
<polygon fill="midnightblue" stroke="midnightblue" points="1116.51,-102.73 1126.96,-104.48 1119.88,-96.6 1116.51,-102.73"/>
</g>
<!-- Node6 -->
<g id="node6" class="node">
<title>Node6</title>
<g id="a_node6"><a xlink:href="../../d0/dfe/class_syntax_analyzer.html#ae1d3434e5cc4b4bcd5a3a245814a44f0" target="_top" xlink:title=" ">
<polygon fill="none" stroke="black" points="1094,-712.5 1094,-731.5 1195,-731.5 1195,-712.5 1094,-712.5"/>
<text text-anchor="middle" x="1144.5" y="-719.5" font-family="Helvetica,sans-Serif" font-size="10.00">SyntaxAnalyzer::eat</text>
</a>
</g>
</g>
<!-- Node1&#45;&gt;Node6 -->
<g id="edge5" class="edge">
<title>Node1&#45;&gt;Node6</title>
<path fill="none" stroke="midnightblue" d="M126.58,-807.54C196.45,-818.8 320.79,-836 428,-836 428,-836 428,-836 616.5,-836 805.85,-836 1024.99,-764.83 1108.63,-734.95"/>
<polygon fill="midnightblue" stroke="midnightblue" points="1109.93,-738.21 1118.15,-731.52 1107.55,-731.62 1109.93,-738.21"/>
</g>
<!-- Node7 -->
<g id="node7" class="node">
<title>Node7</title>
<g id="a_node7"><a xlink:href="../../d0/dfe/class_syntax_analyzer.html#a3ae6c7319e61cd669c417f189b098374" target="_top" xlink:title=" ">
<polygon fill="none" stroke="black" points="1248,-655.5 1248,-674.5 1380,-674.5 1380,-655.5 1248,-655.5"/>
<text text-anchor="middle" x="1314" y="-662.5" font-family="Helvetica,sans-Serif" font-size="10.00">SyntaxAnalyzer::getCurTok</text>
</a>
</g>
</g>
<!-- Node1&#45;&gt;Node7 -->
<g id="edge8" class="edge">
<title>Node1&#45;&gt;Node7</title>
<path fill="none" stroke="midnightblue" d="M93.3,-807.58C114.35,-816.46 147.3,-829.41 177,-837 286.25,-864.92 315.24,-874 428,-874 428,-874 428,-874 975,-874 1086.78,-874 1124.52,-848.6 1204,-770 1230.86,-743.43 1212.35,-718.75 1240,-693 1246.5,-686.95 1254.44,-682.16 1262.66,-678.39"/>
<polygon fill="midnightblue" stroke="midnightblue" points="1264.08,-681.59 1272,-674.55 1261.42,-675.12 1264.08,-681.59"/>
</g>
<!-- Node9 -->
<g id="node9" class="node">
<title>Node9</title>
<g id="a_node9"><a xlink:href="../../d0/dfe/class_syntax_analyzer.html#a53b0048490647d82a92a77ed1ffb013d" target="_top" xlink:title=" ">
<polygon fill="none" stroke="black" points="177,-474.5 177,-493.5 311,-493.5 311,-474.5 177,-474.5"/>
<text text-anchor="middle" x="244" y="-481.5" font-family="Helvetica,sans-Serif" font-size="10.00">SyntaxAnalyzer::syntaxExpr</text>
</a>
</g>
</g>
<!-- Node1&#45;&gt;Node9 -->
<g id="edge9" class="edge">
<title>Node1&#45;&gt;Node9</title>
<path fill="none" stroke="midnightblue" d="M76.82,-788.26C100.98,-744.03 200.55,-561.72 232.84,-502.6"/>
<polygon fill="midnightblue" stroke="midnightblue" points="236.02,-504.08 237.74,-493.63 229.88,-500.73 236.02,-504.08"/>
</g>
<!-- Node3 -->
<g id="node3" class="node">
<title>Node3</title>
<g id="a_node3"><a xlink:href="../../d0/d11/class_i_token.html#ac8ca7f7e601ae49ad573167a4e9429cb" target="_top" xlink:title=" ">
<polygon fill="none" stroke="black" points="1262.5,-152.5 1262.5,-171.5 1365.5,-171.5 1365.5,-152.5 1262.5,-152.5"/>
<text text-anchor="middle" x="1314" y="-159.5" font-family="Helvetica,sans-Serif" font-size="10.00">IToken::getAdvType</text>
</a>
</g>
</g>
<!-- Node2&#45;&gt;Node3 -->
<g id="edge2" class="edge">
<title>Node2&#45;&gt;Node3</title>
<path fill="none" stroke="midnightblue" d="M1178.99,-123.6C1205.13,-131.09 1241.62,-141.54 1269.92,-149.66"/>
<polygon fill="midnightblue" stroke="midnightblue" points="1268.99,-153.03 1279.56,-152.42 1270.92,-146.3 1268.99,-153.03"/>
</g>
<!-- Node4 -->
<g id="node4" class="node">
<title>Node4</title>
<g id="a_node4"><a xlink:href="../../d0/d11/class_i_token.html#a568cb9d98839eff3fd758f419a76b092" target="_top" xlink:title="Получение типа токена">
<polygon fill="none" stroke="black" points="1271,-199.5 1271,-218.5 1357,-218.5 1357,-199.5 1271,-199.5"/>
<text text-anchor="middle" x="1314" y="-206.5" font-family="Helvetica,sans-Serif" font-size="10.00">IToken::getType</text>
</a>
</g>
</g>
<!-- Node2&#45;&gt;Node4 -->
<g id="edge3" class="edge">
<title>Node2&#45;&gt;Node4</title>
<path fill="none" stroke="midnightblue" d="M1176.73,-123.59C1186,-127.26 1195.85,-132.04 1204,-138 1224.12,-152.72 1219.71,-166.52 1240,-181 1248.37,-186.97 1258.18,-191.86 1267.84,-195.79"/>
<polygon fill="midnightblue" stroke="midnightblue" points="1266.8,-199.14 1277.39,-199.4 1269.27,-192.59 1266.8,-199.14"/>
</g>
<!-- Node5 -->
<g id="node5" class="node">
<title>Node5</title>
<g id="a_node5"><a xlink:href="../../db/dc1/class_token.html#a1f07fa2fffeb2f7ab803ef8b424eae8a" target="_top" xlink:title=" ">
<polygon fill="none" stroke="black" points="1277,-104.5 1277,-123.5 1351,-123.5 1351,-104.5 1277,-104.5"/>
<text text-anchor="middle" x="1314" y="-111.5" font-family="Helvetica,sans-Serif" font-size="10.00">Token::setStr</text>
</a>
</g>
</g>
<!-- Node2&#45;&gt;Node5 -->
<g id="edge4" class="edge">
<title>Node2&#45;&gt;Node5</title>
<path fill="none" stroke="midnightblue" d="M1204.08,-114C1224.56,-114 1247.24,-114 1266.58,-114"/>
<polygon fill="midnightblue" stroke="midnightblue" points="1266.66,-117.5 1276.65,-114 1266.65,-110.5 1266.66,-117.5"/>
</g>
<!-- Node6&#45;&gt;Node7 -->
<g id="edge6" class="edge">
<title>Node6&#45;&gt;Node7</title>
<path fill="none" stroke="midnightblue" d="M1175.3,-712.46C1184.52,-709.47 1194.69,-706.13 1204,-703 1228.27,-694.83 1255.46,-685.35 1276.62,-677.9"/>
<polygon fill="midnightblue" stroke="midnightblue" points="1277.91,-681.16 1286.18,-674.53 1275.58,-674.56 1277.91,-681.16"/>
</g>
<!-- Node8 -->
<g id="node8" class="node">
<title>Node8</title>
<g id="a_node8"><a xlink:href="../../d0/dfe/class_syntax_analyzer.html#a9e41370d8d74fbd2e77648d2071e7dfe" target="_top" xlink:title=" ">
<polygon fill="none" stroke="black" points="1240,-702.5 1240,-721.5 1388,-721.5 1388,-702.5 1240,-702.5"/>
<text text-anchor="middle" x="1314" y="-709.5" font-family="Helvetica,sans-Serif" font-size="10.00">SyntaxAnalyzer::getNextToken</text>
</a>
</g>
</g>
<!-- Node6&#45;&gt;Node8 -->
<g id="edge7" class="edge">
<title>Node6&#45;&gt;Node8</title>
<path fill="none" stroke="midnightblue" d="M1195.3,-719.03C1206.12,-718.38 1217.84,-717.68 1229.56,-716.98"/>
<polygon fill="midnightblue" stroke="midnightblue" points="1230.05,-720.46 1239.83,-716.37 1229.64,-713.47 1230.05,-720.46"/>
</g>
<!-- Node9&#45;&gt;Node2 -->
<g id="edge10" class="edge">
<title>Node9&#45;&gt;Node2</title>
<path fill="none" stroke="midnightblue" d="M245.27,-474.4C246.96,-432.64 259.16,-264.82 347,-174 435.03,-82.99 487.88,-76 614.5,-76 614.5,-76 614.5,-76 792.5,-76 906.69,-76 936.06,-74.1 1049,-91 1066.15,-93.57 1084.74,-97.78 1100.87,-101.89"/>
<polygon fill="midnightblue" stroke="midnightblue" points="1099.99,-105.28 1110.55,-104.43 1101.77,-98.51 1099.99,-105.28"/>
</g>
<!-- Node9&#45;&gt;Node4 -->
<g id="edge13" class="edge">
<title>Node9&#45;&gt;Node4</title>
<path fill="none" stroke="midnightblue" d="M245.99,-474.39C251.95,-418.35 284.95,-134.26 347,-78 436.05,2.75 494.29,-38 614.5,-38 614.5,-38 614.5,-38 975,-38 1079.88,-38 1124.4,-26.7 1204,-95 1235.45,-121.98 1210.26,-152.15 1240,-181 1246.16,-186.98 1253.73,-191.71 1261.65,-195.45"/>
<polygon fill="midnightblue" stroke="midnightblue" points="1260.45,-198.74 1271.02,-199.4 1263.16,-192.29 1260.45,-198.74"/>
</g>
<!-- Node9&#45;&gt;Node6 -->
<g id="edge11" class="edge">
<title>Node9&#45;&gt;Node6</title>
<path fill="none" stroke="midnightblue" d="M263.03,-493.54C338.14,-532.64 634.62,-680.55 899,-723 961.41,-733.02 1033.94,-731.05 1083.7,-727.64"/>
<polygon fill="midnightblue" stroke="midnightblue" points="1084.24,-731.11 1093.96,-726.89 1083.74,-724.13 1084.24,-731.11"/>
</g>
<!-- Node9&#45;&gt;Node7 -->
<g id="edge12" class="edge">
<title>Node9&#45;&gt;Node7</title>
<path fill="none" stroke="midnightblue" d="M252.41,-493.69C267.96,-513.41 305.93,-558.57 347,-585 561.39,-722.96 644.82,-721.24 899,-741 1034.15,-751.51 1082.76,-801.62 1204,-741 1227.85,-729.07 1218.72,-709.07 1240,-693 1248.04,-686.93 1257.56,-682.02 1267.02,-678.12"/>
<polygon fill="midnightblue" stroke="midnightblue" points="1268.31,-681.37 1276.41,-674.54 1265.82,-674.83 1268.31,-681.37"/>
</g>
<!-- Node10 -->
<g id="node10" class="node">
<title>Node10</title>
<g id="a_node10"><a xlink:href="../../df/d3f/_syntax_8hpp.html#ae7d62ca130413d4c96863327c1af81a4" target="_top" xlink:title="Возвращает истину, если value находится среди значений cont.">
<polygon fill="none" stroke="black" points="775.5,-142.5 775.5,-161.5 807.5,-161.5 807.5,-142.5 775.5,-142.5"/>
<text text-anchor="middle" x="791.5" y="-149.5" font-family="Helvetica,sans-Serif" font-size="10.00">isIn</text>
</a>
</g>
</g>
<!-- Node9&#45;&gt;Node10 -->
<g id="edge14" class="edge">
<title>Node9&#45;&gt;Node10</title>
<path fill="none" stroke="midnightblue" d="M247.05,-474.4C254.58,-441.28 283.63,-330.26 347,-266 464.85,-146.5 689.94,-146.57 765.25,-150.26"/>
<polygon fill="midnightblue" stroke="midnightblue" points="765.06,-153.76 775.24,-150.82 765.45,-146.77 765.06,-153.76"/>
</g>
<!-- Node11 -->
<g id="node11" class="node">
<title>Node11</title>
<g id="a_node11"><a xlink:href="../../d0/dfe/class_syntax_analyzer.html#a920d9565d4aa2e3815ff9e7146f45a0b" target="_top" xlink:title=" ">
<polygon fill="none" stroke="black" points="347,-275.5 347,-294.5 511,-294.5 511,-275.5 347,-275.5"/>
<text text-anchor="middle" x="429" y="-282.5" font-family="Helvetica,sans-Serif" font-size="10.00">SyntaxAnalyzer::syntaxSimpleExpr</text>
</a>
</g>
</g>
<!-- Node9&#45;&gt;Node11 -->
<g id="edge15" class="edge">
<title>Node9&#45;&gt;Node11</title>
<path fill="none" stroke="midnightblue" d="M253.83,-474.4C282.82,-442.88 375.36,-342.24 412.43,-301.93"/>
<polygon fill="midnightblue" stroke="midnightblue" points="415.07,-304.23 419.26,-294.5 409.92,-299.49 415.07,-304.23"/>
</g>
<!-- Node11&#45;&gt;Node2 -->
<g id="edge16" class="edge">
<title>Node11&#45;&gt;Node2</title>
<path fill="none" stroke="midnightblue" d="M436.63,-275.34C452.68,-252.76 496.1,-196.35 547,-169 718.4,-76.89 957.89,-90.04 1074.38,-103.79"/>
<polygon fill="midnightblue" stroke="midnightblue" points="1074.24,-107.3 1084.59,-105.04 1075.09,-100.35 1074.24,-107.3"/>
</g>
<!-- Node11&#45;&gt;Node4 -->
<g id="edge19" class="edge">
<title>Node11&#45;&gt;Node4</title>
<path fill="none" stroke="midnightblue" d="M483.47,-275.49C503.37,-272.16 526.17,-268.62 547,-266 785.19,-236.07 845.43,-233.41 1085,-218 1145.27,-214.12 1214.63,-211.67 1260.87,-210.32"/>
<polygon fill="midnightblue" stroke="midnightblue" points="1261.05,-213.82 1270.95,-210.04 1260.85,-206.82 1261.05,-213.82"/>
</g>
<!-- Node11&#45;&gt;Node6 -->
<g id="edge17" class="edge">
<title>Node11&#45;&gt;Node6</title>
<path fill="none" stroke="midnightblue" d="M436.28,-294.55C464.53,-336.89 584.41,-510.13 720,-612 790.41,-664.9 814.18,-673.29 899,-697 960.51,-714.2 1033.68,-719.83 1083.85,-721.54"/>
<polygon fill="midnightblue" stroke="midnightblue" points="1083.78,-725.04 1093.88,-721.84 1083.99,-718.05 1083.78,-725.04"/>
</g>
<!-- Node11&#45;&gt;Node7 -->
<g id="edge18" class="edge">
<title>Node11&#45;&gt;Node7</title>
<path fill="none" stroke="midnightblue" d="M466.03,-294.54C530.58,-310.77 670.42,-342 790.5,-342 790.5,-342 790.5,-342 975,-342 1079.88,-342 1124.66,-330.4 1204,-399 1281.4,-465.93 1304.74,-596.27 1310.96,-645.52"/>
<polygon fill="midnightblue" stroke="midnightblue" points="1307.49,-645.96 1312.12,-655.49 1314.44,-645.15 1307.49,-645.96"/>
</g>
<!-- Node11&#45;&gt;Node10 -->
<g id="edge20" class="edge">
<title>Node11&#45;&gt;Node10</title>
<path fill="none" stroke="midnightblue" d="M442.99,-275.33C463.88,-260.2 506.69,-230.92 547,-214 623.36,-181.95 720.38,-163.34 765.42,-155.86"/>
<polygon fill="midnightblue" stroke="midnightblue" points="766.15,-159.29 775.46,-154.24 765.03,-152.38 766.15,-159.29"/>
</g>
<!-- Node12 -->
<g id="node12" class="node">
<title>Node12</title>
<g id="a_node12"><a xlink:href="../../d0/dfe/class_syntax_analyzer.html#a7721cf7d36d549f81fd05c40dba02f67" target="_top" xlink:title=" ">
<polygon fill="none" stroke="black" points="547,-275.5 547,-294.5 684,-294.5 684,-275.5 547,-275.5"/>
<text text-anchor="middle" x="615.5" y="-282.5" font-family="Helvetica,sans-Serif" font-size="10.00">SyntaxAnalyzer::syntaxTerm</text>
</a>
</g>
</g>
<!-- Node11&#45;&gt;Node12 -->
<g id="edge21" class="edge">
<title>Node11&#45;&gt;Node12</title>
<path fill="none" stroke="midnightblue" d="M511.19,-285C519.65,-285 528.23,-285 536.64,-285"/>
<polygon fill="midnightblue" stroke="midnightblue" points="536.81,-288.5 546.81,-285 536.81,-281.5 536.81,-288.5"/>
</g>
<!-- Node12&#45;&gt;Node2 -->
<g id="edge22" class="edge">
<title>Node12&#45;&gt;Node2</title>
<path fill="none" stroke="midnightblue" d="M645.96,-275.44C735.33,-246.44 1003.37,-159.47 1104.4,-126.69"/>
<polygon fill="midnightblue" stroke="midnightblue" points="1105.49,-130.01 1113.92,-123.6 1103.33,-123.36 1105.49,-130.01"/>
</g>
<!-- Node12&#45;&gt;Node4 -->
<g id="edge25" class="edge">
<title>Node12&#45;&gt;Node4</title>
<path fill="none" stroke="midnightblue" d="M684.23,-277.61C822.89,-262.48 1136.45,-228.26 1260.79,-214.7"/>
<polygon fill="midnightblue" stroke="midnightblue" points="1261.25,-218.17 1270.82,-213.6 1260.49,-211.21 1261.25,-218.17"/>
</g>
<!-- Node12&#45;&gt;Node6 -->
<g id="edge23" class="edge">
<title>Node12&#45;&gt;Node6</title>
<path fill="none" stroke="midnightblue" d="M617.97,-294.55C624.09,-331.46 650.49,-466.81 720,-550 779.87,-621.66 812.98,-623.66 899,-660 959.57,-685.59 1033.2,-702.49 1083.74,-712.09"/>
<polygon fill="midnightblue" stroke="midnightblue" points="1083.37,-715.58 1093.84,-713.97 1084.65,-708.7 1083.37,-715.58"/>
</g>
<!-- Node12&#45;&gt;Node7 -->
<g id="edge24" class="edge">
<title>Node12&#45;&gt;Node7</title>
<path fill="none" stroke="midnightblue" d="M684.13,-285.76C829.92,-287.99 1163.9,-296.52 1204,-328 1306.25,-408.27 1313.96,-585.78 1313.54,-645.19"/>
<polygon fill="midnightblue" stroke="midnightblue" points="1310.03,-645.38 1313.37,-655.44 1317.03,-645.49 1310.03,-645.38"/>
</g>
<!-- Node12&#45;&gt;Node10 -->
<g id="edge26" class="edge">
<title>Node12&#45;&gt;Node10</title>
<path fill="none" stroke="midnightblue" d="M629.01,-275.43C658.59,-252.83 733.07,-195.9 769.61,-167.96"/>
<polygon fill="midnightblue" stroke="midnightblue" points="771.81,-170.69 777.63,-161.84 767.56,-165.13 771.81,-170.69"/>
</g>
<!-- Node13 -->
<g id="node13" class="node">
<title>Node13</title>
<g id="a_node13"><a xlink:href="../../d0/dfe/class_syntax_analyzer.html#ab9b415ddd671b4884ab31cdf194f6c64" target="_top" xlink:title=" ">
<polygon fill="none" stroke="black" points="720,-503.5 720,-522.5 863,-522.5 863,-503.5 720,-503.5"/>
<text text-anchor="middle" x="791.5" y="-510.5" font-family="Helvetica,sans-Serif" font-size="10.00">SyntaxAnalyzer::syntaxFactor</text>
</a>
</g>
</g>
<!-- Node12&#45;&gt;Node13 -->
<g id="edge27" class="edge">
<title>Node12&#45;&gt;Node13</title>
<path fill="none" stroke="midnightblue" d="M623.76,-294.51C650.29,-329.27 742.3,-449.84 777.06,-495.39"/>
<polygon fill="midnightblue" stroke="midnightblue" points="774.36,-497.63 783.21,-503.45 779.93,-493.38 774.36,-497.63"/>
</g>
<!-- Node13&#45;&gt;Node1 -->
<g id="edge42" class="edge">
<title>Node13&#45;&gt;Node1</title>
<path fill="none" stroke="midnightblue" d="M766.17,-522.64C659.07,-565.1 229.36,-735.43 105.23,-784.63"/>
<polygon fill="midnightblue" stroke="midnightblue" points="103.84,-781.42 95.83,-788.35 106.42,-787.92 103.84,-781.42"/>
</g>
<!-- Node13&#45;&gt;Node2 -->
<g id="edge28" class="edge">
<title>Node13&#45;&gt;Node2</title>
<path fill="none" stroke="midnightblue" d="M798.78,-503.36C814.57,-479.35 857.65,-415.23 899,-366 978.03,-271.92 1084.18,-169.77 1125.75,-130.58"/>
<polygon fill="midnightblue" stroke="midnightblue" points="1128.29,-133 1133.18,-123.6 1123.5,-127.9 1128.29,-133"/>
</g>
<!-- Node13&#45;&gt;Node3 -->
<g id="edge33" class="edge">
<title>Node13&#45;&gt;Node3</title>
<path fill="none" stroke="midnightblue" d="M800.03,-503.32C816.47,-482.56 857.46,-432.91 899,-399 933.43,-370.9 1200.14,-209.65 1240,-190 1251.02,-184.57 1263.37,-179.48 1274.73,-175.17"/>
<polygon fill="midnightblue" stroke="midnightblue" points="1276.24,-178.34 1284.4,-171.59 1273.81,-171.77 1276.24,-178.34"/>
</g>
<!-- Node13&#45;&gt;Node4 -->
<g id="edge39" class="edge">
<title>Node13&#45;&gt;Node4</title>
<path fill="none" stroke="midnightblue" d="M851.47,-503.47C904.39,-497.14 983.58,-493.19 1049,-513 1067.4,-518.57 1066.6,-531.43 1085,-537 1135.62,-552.33 1161.11,-567.94 1204,-537 1306.65,-462.94 1314.14,-288.24 1313.6,-229.03"/>
<polygon fill="midnightblue" stroke="midnightblue" points="1317.09,-228.72 1313.41,-218.79 1310.09,-228.85 1317.09,-228.72"/>
</g>
<!-- Node13&#45;&gt;Node6 -->
<g id="edge29" class="edge">
<title>Node13&#45;&gt;Node6</title>
<path fill="none" stroke="midnightblue" d="M799.33,-522.69C814.7,-543.81 854.21,-594.33 899,-622 958.55,-658.79 988.46,-634.87 1049,-670 1067.77,-680.89 1066.25,-692.06 1085,-703 1088.63,-705.12 1092.53,-707.03 1096.53,-708.76"/>
<polygon fill="midnightblue" stroke="midnightblue" points="1095.37,-712.06 1105.96,-712.45 1097.92,-705.55 1095.37,-712.06"/>
</g>
<!-- Node13&#45;&gt;Node7 -->
<g id="edge34" class="edge">
<title>Node13&#45;&gt;Node7</title>
<path fill="none" stroke="midnightblue" d="M816.75,-522.64C838.15,-530.91 870.32,-542.76 899,-551 964.61,-569.84 989.13,-551.22 1049,-584 1068.85,-594.87 1065.04,-609.35 1085,-620 1132.18,-645.17 1191.61,-656.34 1237.97,-661.26"/>
<polygon fill="midnightblue" stroke="midnightblue" points="1237.66,-664.75 1247.95,-662.24 1238.34,-657.78 1237.66,-664.75"/>
</g>
<!-- Node13&#45;&gt;Node9 -->
<g id="edge43" class="edge">
<title>Node13&#45;&gt;Node9</title>
<path fill="none" stroke="midnightblue" d="M719.8,-509.24C617.05,-503.78 427.2,-493.69 321.36,-488.06"/>
<polygon fill="midnightblue" stroke="midnightblue" points="321.24,-484.55 311.07,-487.51 320.87,-491.54 321.24,-484.55"/>
</g>
<!-- Node13&#45;&gt;Node13 -->
<g id="edge44" class="edge">
<title>Node13&#45;&gt;Node13</title>
<path fill="none" stroke="midnightblue" d="M764.37,-522.76C751.18,-531.57 760.22,-541 791.5,-541 813.01,-541 824,-536.54 824.48,-530.89"/>
<polygon fill="midnightblue" stroke="midnightblue" points="827.31,-528.83 818.63,-522.76 821.63,-532.92 827.31,-528.83"/>
</g>
<!-- Node14 -->
<g id="node14" class="node">
<title>Node14</title>
<g id="a_node14"><a xlink:href="../../d0/dfe/class_syntax_analyzer.html#a9952c4a2db0a1382b9c94f40dd535fae" target="_top" xlink:title=" ">
<polygon fill="none" stroke="black" points="1085.5,-674.5 1085.5,-693.5 1203.5,-693.5 1203.5,-674.5 1085.5,-674.5"/>
<text text-anchor="middle" x="1144.5" y="-681.5" font-family="Helvetica,sans-Serif" font-size="10.00">SyntaxAnalyzer::eatAdv</text>
</a>
</g>
</g>
<!-- Node13&#45;&gt;Node14 -->
<g id="edge30" class="edge">
<title>Node13&#45;&gt;Node14</title>
<path fill="none" stroke="midnightblue" d="M804.6,-522.72C823.68,-537.66 862.36,-566.35 899,-584 962.06,-614.37 987.09,-599.34 1049,-632 1066.93,-641.46 1067.46,-649.84 1085,-660 1091.66,-663.86 1099.06,-667.41 1106.3,-670.52"/>
<polygon fill="midnightblue" stroke="midnightblue" points="1105.4,-673.93 1115.98,-674.49 1108.05,-667.46 1105.4,-673.93"/>
</g>
<!-- Node15 -->
<g id="node15" class="node">
<title>Node15</title>
<g id="a_node15"><a xlink:href="../../db/dc1/class_token.html#a014ced0a9ea72ae21fad0d4f116d0a73" target="_top" xlink:title=" ">
<polygon fill="none" stroke="black" points="935,-446.5 935,-465.5 1013,-465.5 1013,-446.5 935,-446.5"/>
<text text-anchor="middle" x="974" y="-453.5" font-family="Helvetica,sans-Serif" font-size="10.00">Token::getInfo</text>
</a>
</g>
</g>
<!-- Node13&#45;&gt;Node15 -->
<g id="edge35" class="edge">
<title>Node13&#45;&gt;Node15</title>
<path fill="none" stroke="midnightblue" d="M822.71,-503.46C852.91,-493.92 899.51,-479.21 932.81,-468.69"/>
<polygon fill="midnightblue" stroke="midnightblue" points="934.21,-471.92 942.69,-465.57 932.1,-465.25 934.21,-471.92"/>
</g>
<!-- Node18 -->
<g id="node18" class="node">
<title>Node18</title>
<g id="a_node18"><a xlink:href="../../d0/dfe/class_syntax_analyzer.html#af0905389742c4f842207bb2c073afbfa" target="_top" xlink:title=" ">
<polygon fill="none" stroke="black" points="905.5,-408.5 905.5,-427.5 1042.5,-427.5 1042.5,-408.5 905.5,-408.5"/>
<text text-anchor="middle" x="974" y="-415.5" font-family="Helvetica,sans-Serif" font-size="10.00">SyntaxAnalyzer::lookFoward</text>
</a>
</g>
</g>
<!-- Node13&#45;&gt;Node18 -->
<g id="edge40" class="edge">
<title>Node13&#45;&gt;Node18</title>
<path fill="none" stroke="midnightblue" d="M803.15,-503.32C821.41,-487.21 860.49,-454.92 899,-437 904.24,-434.56 909.84,-432.4 915.52,-430.5"/>
<polygon fill="midnightblue" stroke="midnightblue" points="916.6,-433.83 925.12,-427.53 914.53,-427.14 916.6,-433.83"/>
</g>
<!-- Node20 -->
<g id="node20" class="node">
<title>Node20</title>
<g id="a_node20"><a xlink:href="../../d0/dfe/class_syntax_analyzer.html#a8d3dc6feefe1957f1c81cbc7b8318559" target="_top" xlink:title=" ">
<polygon fill="none" stroke="black" points="899,-522.5 899,-541.5 1049,-541.5 1049,-522.5 899,-522.5"/>
<text text-anchor="middle" x="974" y="-529.5" font-family="Helvetica,sans-Serif" font-size="10.00">SyntaxAnalyzer::syntaxVariable</text>
</a>
</g>
</g>
<!-- Node13&#45;&gt;Node20 -->
<g id="edge45" class="edge">
<title>Node13&#45;&gt;Node20</title>
<path fill="none" stroke="midnightblue" d="M863.06,-520.43C871.52,-521.32 880.22,-522.23 888.84,-523.14"/>
<polygon fill="midnightblue" stroke="midnightblue" points="888.6,-526.64 898.91,-524.2 889.34,-519.67 888.6,-526.64"/>
</g>
<!-- Node14&#45;&gt;Node7 -->
<g id="edge31" class="edge">
<title>Node14&#45;&gt;Node7</title>
<path fill="none" stroke="midnightblue" d="M1203.61,-677.41C1214.65,-676.16 1226.34,-674.83 1237.82,-673.53"/>
<polygon fill="midnightblue" stroke="midnightblue" points="1238.28,-677 1247.82,-672.39 1237.49,-670.04 1238.28,-677"/>
</g>
<!-- Node14&#45;&gt;Node8 -->
<g id="edge32" class="edge">
<title>Node14&#45;&gt;Node8</title>
<path fill="none" stroke="midnightblue" d="M1202.68,-693.56C1216.56,-695.88 1231.52,-698.38 1245.82,-700.77"/>
<polygon fill="midnightblue" stroke="midnightblue" points="1245.64,-704.29 1256.08,-702.49 1246.8,-697.38 1245.64,-704.29"/>
</g>
<!-- Node15&#45;&gt;Node4 -->
<g id="edge37" class="edge">
<title>Node15&#45;&gt;Node4</title>
<path fill="none" stroke="midnightblue" d="M1013.22,-464.99C1025.14,-468.67 1038.03,-473.61 1049,-480 1067.75,-490.93 1064.77,-505.13 1085,-513 1134.29,-532.17 1160.75,-543.44 1204,-513 1300.09,-445.38 1311.9,-284.75 1313.03,-228.7"/>
<polygon fill="midnightblue" stroke="midnightblue" points="1316.53,-228.71 1313.13,-218.67 1309.53,-228.64 1316.53,-228.71"/>
</g>
<!-- Node16 -->
<g id="node16" class="node">
<title>Node16</title>
<g id="a_node16"><a xlink:href="../../db/dc1/class_token.html#a942fcc40ffdf54c98b7b641c792a26bc" target="_top" xlink:title="Возвращает константную ссылку на строковое представление токена">
<polygon fill="none" stroke="black" points="1107.5,-446.5 1107.5,-465.5 1181.5,-465.5 1181.5,-446.5 1107.5,-446.5"/>
<text text-anchor="middle" x="1144.5" y="-453.5" font-family="Helvetica,sans-Serif" font-size="10.00">Token::getStr</text>
</a>
</g>
</g>
<!-- Node15&#45;&gt;Node16 -->
<g id="edge36" class="edge">
<title>Node15&#45;&gt;Node16</title>
<path fill="none" stroke="midnightblue" d="M1013.24,-456C1038.18,-456 1070.89,-456 1097.29,-456"/>
<polygon fill="midnightblue" stroke="midnightblue" points="1097.43,-459.5 1107.43,-456 1097.43,-452.5 1097.43,-459.5"/>
</g>
<!-- Node17 -->
<g id="node17" class="node">
<title>Node17</title>
<g id="a_node17"><a xlink:href="../../db/dc1/class_token.html#af3b5fdf2261d637af820d4adb62e6109" target="_top" xlink:title=" ">
<polygon fill="none" stroke="black" points="1113,-484.5 1113,-503.5 1176,-503.5 1176,-484.5 1113,-484.5"/>
<text text-anchor="middle" x="1144.5" y="-491.5" font-family="Helvetica,sans-Serif" font-size="10.00">Token::line</text>
</a>
</g>
</g>
<!-- Node15&#45;&gt;Node17 -->
<g id="edge38" class="edge">
<title>Node15&#45;&gt;Node17</title>
<path fill="none" stroke="midnightblue" d="M1013.24,-464.62C1040.01,-470.66 1075.73,-478.72 1103,-484.87"/>
<polygon fill="midnightblue" stroke="midnightblue" points="1102.47,-488.34 1113,-487.12 1104.01,-481.51 1102.47,-488.34"/>
</g>
<!-- Node19 -->
<g id="node19" class="node">
<title>Node19</title>
<g id="a_node19"><a xlink:href="../../d1/d34/class_list.html#a49c179636e084dfbf7a52acd46acaf01" target="_top" xlink:title=" ">
<polygon fill="none" stroke="black" points="1117,-408.5 1117,-427.5 1172,-427.5 1172,-408.5 1117,-408.5"/>
<text text-anchor="middle" x="1144.5" y="-415.5" font-family="Helvetica,sans-Serif" font-size="10.00">List::size</text>
</a>
</g>
</g>
<!-- Node18&#45;&gt;Node19 -->
<g id="edge41" class="edge">
<title>Node18&#45;&gt;Node19</title>
<path fill="none" stroke="midnightblue" d="M1042.56,-418C1064.4,-418 1087.8,-418 1106.56,-418"/>
<polygon fill="midnightblue" stroke="midnightblue" points="1106.75,-421.5 1116.75,-418 1106.75,-414.5 1106.75,-421.5"/>
</g>
<!-- Node20&#45;&gt;Node2 -->
<g id="edge46" class="edge">
<title>Node20&#45;&gt;Node2</title>
<path fill="none" stroke="midnightblue" d="M993.66,-522.36C1010.6,-512.64 1035.03,-496.09 1049,-475 1087.57,-416.8 1128.18,-200.71 1140.05,-133.85"/>
<polygon fill="midnightblue" stroke="midnightblue" points="1143.54,-134.26 1141.82,-123.8 1136.64,-133.04 1143.54,-134.26"/>
</g>
<!-- Node20&#45;&gt;Node6 -->
<g id="edge47" class="edge">
<title>Node20&#45;&gt;Node6</title>
<path fill="none" stroke="midnightblue" d="M982.92,-541.55C997.12,-558.91 1027.44,-597.08 1049,-632 1067.59,-662.1 1058.12,-680 1085,-703 1086.99,-704.7 1089.13,-706.25 1091.38,-707.66"/>
<polygon fill="midnightblue" stroke="midnightblue" points="1090.01,-710.9 1100.49,-712.45 1093.27,-704.7 1090.01,-710.9"/>
</g>
<!-- Node20&#45;&gt;Node7 -->
<g id="edge48" class="edge">
<title>Node20&#45;&gt;Node7</title>
<path fill="none" stroke="midnightblue" d="M1012.92,-541.53C1024.83,-545.24 1037.78,-550.06 1049,-556 1066.91,-565.49 1067.22,-574.26 1085,-584 1118.02,-602.09 1216.57,-634.55 1272.7,-652.4"/>
<polygon fill="midnightblue" stroke="midnightblue" points="1271.74,-655.77 1282.33,-655.45 1273.85,-649.09 1271.74,-655.77"/>
</g>
</g>
</svg>
