<?xml version="1.0" encoding="UTF-8" standalone="no"?>
<!DOCTYPE svg PUBLIC "-//W3C//DTD SVG 1.1//EN"
 "http://www.w3.org/Graphics/SVG/1.1/DTD/svg11.dtd">
<!-- Generated by graphviz version 3.0.0 (20220413.0106)
 -->
<!-- Title: SyntaxAnalyzer::syntaxAssignSt Pages: 1 -->
<svg width="1410pt" height="893pt"
 viewBox="0.00 0.00 1410.00 892.67" xmlns="http://www.w3.org/2000/svg" xmlns:xlink="http://www.w3.org/1999/xlink">
<g id="graph0" class="graph" transform="scale(1 1) rotate(0) translate(4 888.67)">
<title>SyntaxAnalyzer::syntaxAssignSt</title>
<!-- Node1 -->
<g id="node1" class="node">
<title>Node1</title>
<g id="a_node1"><a xlink:title=" ">
<polygon fill="#bfbfbf" stroke="black" points="0,-199.5 0,-218.5 155,-218.5 155,-199.5 0,-199.5"/>
<text text-anchor="middle" x="77.5" y="-206.5" font-family="Helvetica,sans-Serif" font-size="10.00">SyntaxAnalyzer::syntaxAssignSt</text>
</a>
</g>
</g>
<!-- Node2 -->
<g id="node2" class="node">
<title>Node2</title>
<g id="a_node2"><a xlink:href="../../d7/d7c/class_a_s_t_factory.html#ad7de68f7aba03e4ca3fc96efb743aa38" target="_top" xlink:title=" ">
<polygon fill="none" stroke="black" points="1099,-712.5 1099,-731.5 1218,-731.5 1218,-712.5 1099,-712.5"/>
<text text-anchor="middle" x="1158.5" y="-719.5" font-family="Helvetica,sans-Serif" font-size="10.00">ASTFactory::createAST</text>
</a>
</g>
</g>
<!-- Node1&#45;&gt;Node2 -->
<g id="edge1" class="edge">
<title>Node1&#45;&gt;Node2</title>
<path fill="none" stroke="midnightblue" d="M80.84,-218.7C90.48,-257.58 129.49,-405.23 191,-513 250.35,-616.99 265.31,-650.02 361,-722 547.04,-861.94 644.48,-823.22 877,-812 959.96,-808 992.28,-837.55 1063,-794 1088.51,-778.29 1074.78,-754.63 1099,-737 1099.18,-736.87 1099.36,-736.74 1099.54,-736.61"/>
<polygon fill="midnightblue" stroke="midnightblue" points="1101.41,-739.57 1108.32,-731.54 1097.91,-733.51 1101.41,-739.57"/>
</g>
<!-- Node6 -->
<g id="node6" class="node">
<title>Node6</title>
<g id="a_node6"><a xlink:href="../../d0/dfe/class_syntax_analyzer.html#ae1d3434e5cc4b4bcd5a3a245814a44f0" target="_top" xlink:title=" ">
<polygon fill="none" stroke="black" points="1108,-256.5 1108,-275.5 1209,-275.5 1209,-256.5 1108,-256.5"/>
<text text-anchor="middle" x="1158.5" y="-263.5" font-family="Helvetica,sans-Serif" font-size="10.00">SyntaxAnalyzer::eat</text>
</a>
</g>
</g>
<!-- Node1&#45;&gt;Node6 -->
<g id="edge5" class="edge">
<title>Node1&#45;&gt;Node6</title>
<path fill="none" stroke="midnightblue" d="M138.31,-199.49C293.83,-176.84 722.51,-127.88 1063,-215 1090.04,-221.92 1117.77,-238.19 1136.14,-250.5"/>
<polygon fill="midnightblue" stroke="midnightblue" points="1134.38,-253.54 1144.6,-256.34 1138.36,-247.78 1134.38,-253.54"/>
</g>
<!-- Node7 -->
<g id="node7" class="node">
<title>Node7</title>
<g id="a_node7"><a xlink:href="../../d0/dfe/class_syntax_analyzer.html#a3ae6c7319e61cd669c417f189b098374" target="_top" xlink:title=" ">
<polygon fill="none" stroke="black" points="1262,-256.5 1262,-275.5 1394,-275.5 1394,-256.5 1262,-256.5"/>
<text text-anchor="middle" x="1328" y="-263.5" font-family="Helvetica,sans-Serif" font-size="10.00">SyntaxAnalyzer::getCurTok</text>
</a>
</g>
</g>
<!-- Node1&#45;&gt;Node7 -->
<g id="edge8" class="edge">
<title>Node1&#45;&gt;Node7</title>
<path fill="none" stroke="midnightblue" d="M86.97,-199.48C124.32,-158.59 279.67,0 442,0 442,0 442,0 989,0 1149.22,0 1278.29,-186.85 1315.89,-247.34"/>
<polygon fill="midnightblue" stroke="midnightblue" points="1313.11,-249.51 1321.31,-256.22 1319.08,-245.86 1313.11,-249.51"/>
</g>
<!-- Node9 -->
<g id="node9" class="node">
<title>Node9</title>
<g id="a_node9"><a xlink:href="../../d0/dfe/class_syntax_analyzer.html#a53b0048490647d82a92a77ed1ffb013d" target="_top" xlink:title=" ">
<polygon fill="none" stroke="black" points="191,-484.5 191,-503.5 325,-503.5 325,-484.5 191,-484.5"/>
<text text-anchor="middle" x="258" y="-491.5" font-family="Helvetica,sans-Serif" font-size="10.00">SyntaxAnalyzer::syntaxExpr</text>
</a>
</g>
</g>
<!-- Node1&#45;&gt;Node9 -->
<g id="edge9" class="edge">
<title>Node1&#45;&gt;Node9</title>
<path fill="none" stroke="midnightblue" d="M84.64,-218.81C110.55,-260.18 211.12,-420.75 245.45,-475.55"/>
<polygon fill="midnightblue" stroke="midnightblue" points="242.61,-477.61 250.88,-484.23 248.54,-473.9 242.61,-477.61"/>
</g>
<!-- Node21 -->
<g id="node21" class="node">
<title>Node21</title>
<g id="a_node21"><a xlink:href="../../d0/dfe/class_syntax_analyzer.html#a8d3dc6feefe1957f1c81cbc7b8318559" target="_top" xlink:title=" ">
<polygon fill="none" stroke="black" points="913,-332.5 913,-351.5 1063,-351.5 1063,-332.5 913,-332.5"/>
<text text-anchor="middle" x="988" y="-339.5" font-family="Helvetica,sans-Serif" font-size="10.00">SyntaxAnalyzer::syntaxVariable</text>
</a>
</g>
</g>
<!-- Node1&#45;&gt;Node21 -->
<g id="edge53" class="edge">
<title>Node1&#45;&gt;Node21</title>
<path fill="none" stroke="midnightblue" d="M143.47,-218.51C307.43,-242.51 737.27,-305.44 911.76,-330.99"/>
<polygon fill="midnightblue" stroke="midnightblue" points="911.48,-334.48 921.88,-332.47 912.49,-327.55 911.48,-334.48"/>
</g>
<!-- Node3 -->
<g id="node3" class="node">
<title>Node3</title>
<g id="a_node3"><a xlink:href="../../d0/d11/class_i_token.html#ac8ca7f7e601ae49ad573167a4e9429cb" target="_top" xlink:title=" ">
<polygon fill="none" stroke="black" points="1276.5,-617.5 1276.5,-636.5 1379.5,-636.5 1379.5,-617.5 1276.5,-617.5"/>
<text text-anchor="middle" x="1328" y="-624.5" font-family="Helvetica,sans-Serif" font-size="10.00">IToken::getAdvType</text>
</a>
</g>
</g>
<!-- Node2&#45;&gt;Node3 -->
<g id="edge2" class="edge">
<title>Node2&#45;&gt;Node3</title>
<path fill="none" stroke="midnightblue" d="M1174.71,-712.42C1193.24,-700.84 1225.59,-680.94 1254,-665 1268.68,-656.76 1285.31,-648.06 1298.98,-641.06"/>
<polygon fill="midnightblue" stroke="midnightblue" points="1300.59,-644.17 1307.92,-636.52 1297.42,-637.93 1300.59,-644.17"/>
</g>
<!-- Node4 -->
<g id="node4" class="node">
<title>Node4</title>
<g id="a_node4"><a xlink:href="../../d0/d11/class_i_token.html#a568cb9d98839eff3fd758f419a76b092" target="_top" xlink:title="Получение типа токена">
<polygon fill="none" stroke="black" points="1285,-674.5 1285,-693.5 1371,-693.5 1371,-674.5 1285,-674.5"/>
<text text-anchor="middle" x="1328" y="-681.5" font-family="Helvetica,sans-Serif" font-size="10.00">IToken::getType</text>
</a>
</g>
</g>
<!-- Node2&#45;&gt;Node4 -->
<g id="edge3" class="edge">
<title>Node2&#45;&gt;Node4</title>
<path fill="none" stroke="midnightblue" d="M1201.77,-712.41C1224.07,-707.35 1251.62,-701.1 1275.2,-695.75"/>
<polygon fill="midnightblue" stroke="midnightblue" points="1276.06,-699.15 1285.04,-693.52 1274.51,-692.32 1276.06,-699.15"/>
</g>
<!-- Node5 -->
<g id="node5" class="node">
<title>Node5</title>
<g id="a_node5"><a xlink:href="../../db/dc1/class_token.html#a1f07fa2fffeb2f7ab803ef8b424eae8a" target="_top" xlink:title=" ">
<polygon fill="none" stroke="black" points="1291,-712.5 1291,-731.5 1365,-731.5 1365,-712.5 1291,-712.5"/>
<text text-anchor="middle" x="1328" y="-719.5" font-family="Helvetica,sans-Serif" font-size="10.00">Token::setStr</text>
</a>
</g>
</g>
<!-- Node2&#45;&gt;Node5 -->
<g id="edge4" class="edge">
<title>Node2&#45;&gt;Node5</title>
<path fill="none" stroke="midnightblue" d="M1218.08,-722C1238.56,-722 1261.24,-722 1280.58,-722"/>
<polygon fill="midnightblue" stroke="midnightblue" points="1280.66,-725.5 1290.65,-722 1280.65,-718.5 1280.66,-725.5"/>
</g>
<!-- Node6&#45;&gt;Node7 -->
<g id="edge6" class="edge">
<title>Node6&#45;&gt;Node7</title>
<path fill="none" stroke="midnightblue" d="M1209.3,-266C1222.57,-266 1237.21,-266 1251.52,-266"/>
<polygon fill="midnightblue" stroke="midnightblue" points="1251.86,-269.5 1261.86,-266 1251.86,-262.5 1251.86,-269.5"/>
</g>
<!-- Node8 -->
<g id="node8" class="node">
<title>Node8</title>
<g id="a_node8"><a xlink:href="../../d0/dfe/class_syntax_analyzer.html#a9e41370d8d74fbd2e77648d2071e7dfe" target="_top" xlink:title=" ">
<polygon fill="none" stroke="black" points="1254,-389.5 1254,-408.5 1402,-408.5 1402,-389.5 1254,-389.5"/>
<text text-anchor="middle" x="1328" y="-396.5" font-family="Helvetica,sans-Serif" font-size="10.00">SyntaxAnalyzer::getNextToken</text>
</a>
</g>
</g>
<!-- Node6&#45;&gt;Node8 -->
<g id="edge7" class="edge">
<title>Node6&#45;&gt;Node8</title>
<path fill="none" stroke="midnightblue" d="M1171.55,-275.57C1199.9,-298.08 1271.11,-354.62 1306.45,-382.68"/>
<polygon fill="midnightblue" stroke="midnightblue" points="1304.6,-385.69 1314.61,-389.16 1308.96,-380.2 1304.6,-385.69"/>
</g>
<!-- Node9&#45;&gt;Node2 -->
<g id="edge10" class="edge">
<title>Node9&#45;&gt;Node2</title>
<path fill="none" stroke="midnightblue" d="M264.3,-503.77C293.34,-555.8 438.69,-798 628.5,-798 628.5,-798 628.5,-798 806.5,-798 921.56,-798 956.17,-805.74 1063,-763 1081.32,-755.67 1081.13,-745.38 1099,-737 1100.36,-736.36 1101.76,-735.75 1103.18,-735.15"/>
<polygon fill="midnightblue" stroke="midnightblue" points="1104.64,-738.34 1112.8,-731.59 1102.21,-731.78 1104.64,-738.34"/>
</g>
<!-- Node9&#45;&gt;Node4 -->
<g id="edge13" class="edge">
<title>Node9&#45;&gt;Node4</title>
<path fill="none" stroke="midnightblue" d="M260.7,-503.67C267.25,-538.1 293.84,-656.09 361,-722 429.93,-789.65 466.5,-787.05 561,-807 846.98,-867.37 988.83,-959.41 1218,-778 1246.99,-755.05 1225.46,-726.51 1254,-703 1260.11,-697.97 1267.41,-694.25 1274.99,-691.51"/>
<polygon fill="midnightblue" stroke="midnightblue" points="1276.15,-694.82 1284.68,-688.54 1274.09,-688.12 1276.15,-694.82"/>
</g>
<!-- Node9&#45;&gt;Node6 -->
<g id="edge11" class="edge">
<title>Node9&#45;&gt;Node6</title>
<path fill="none" stroke="midnightblue" d="M271.63,-484.25C324.36,-444.22 533.49,-292.26 734,-241 875.67,-204.78 918.19,-218.72 1063,-239 1082.78,-241.77 1104.22,-247.65 1121.67,-253.22"/>
<polygon fill="midnightblue" stroke="midnightblue" points="1120.85,-256.63 1131.45,-256.43 1123.04,-249.98 1120.85,-256.63"/>
</g>
<!-- Node9&#45;&gt;Node7 -->
<g id="edge12" class="edge">
<title>Node9&#45;&gt;Node7</title>
<path fill="none" stroke="midnightblue" d="M262.09,-484.15C271.76,-454.84 304.27,-367.33 361,-320 494.51,-208.62 563.11,-234.09 734,-202 945.53,-162.28 1014.57,-115.71 1218,-186 1255.44,-198.94 1290.88,-229.58 1310.69,-248.96"/>
<polygon fill="midnightblue" stroke="midnightblue" points="1308.42,-251.64 1317.96,-256.26 1313.38,-246.7 1308.42,-251.64"/>
</g>
<!-- Node10 -->
<g id="node10" class="node">
<title>Node10</title>
<g id="a_node10"><a xlink:href="../../df/d3f/_syntax_8hpp.html#ae7d62ca130413d4c96863327c1af81a4" target="_top" xlink:title="Возвращает истину, если value находится среди значений cont.">
<polygon fill="none" stroke="black" points="789.5,-712.5 789.5,-731.5 821.5,-731.5 821.5,-712.5 789.5,-712.5"/>
<text text-anchor="middle" x="805.5" y="-719.5" font-family="Helvetica,sans-Serif" font-size="10.00">isIn</text>
</a>
</g>
</g>
<!-- Node9&#45;&gt;Node10 -->
<g id="edge14" class="edge">
<title>Node9&#45;&gt;Node10</title>
<path fill="none" stroke="midnightblue" d="M269.94,-503.72C287.91,-519.32 325.27,-550.19 361,-570 508.99,-652.02 709.07,-701.06 779.07,-716.6"/>
<polygon fill="midnightblue" stroke="midnightblue" points="778.64,-720.09 789.16,-718.81 780.13,-713.25 778.64,-720.09"/>
</g>
<!-- Node11 -->
<g id="node11" class="node">
<title>Node11</title>
<g id="a_node11"><a xlink:href="../../d0/dfe/class_syntax_analyzer.html#a920d9565d4aa2e3815ff9e7146f45a0b" target="_top" xlink:title=" ">
<polygon fill="none" stroke="black" points="361,-541.5 361,-560.5 525,-560.5 525,-541.5 361,-541.5"/>
<text text-anchor="middle" x="443" y="-548.5" font-family="Helvetica,sans-Serif" font-size="10.00">SyntaxAnalyzer::syntaxSimpleExpr</text>
</a>
</g>
</g>
<!-- Node9&#45;&gt;Node11 -->
<g id="edge15" class="edge">
<title>Node9&#45;&gt;Node11</title>
<path fill="none" stroke="midnightblue" d="M289.63,-503.54C320.38,-513.12 367.9,-527.92 401.69,-538.45"/>
<polygon fill="midnightblue" stroke="midnightblue" points="400.68,-541.8 411.27,-541.43 402.76,-535.11 400.68,-541.8"/>
</g>
<!-- Node11&#45;&gt;Node2 -->
<g id="edge16" class="edge">
<title>Node11&#45;&gt;Node2</title>
<path fill="none" stroke="midnightblue" d="M453.32,-560.67C487.04,-594.77 607.34,-709.11 734,-741 865.24,-774.04 1026.45,-749.81 1106.86,-733.54"/>
<polygon fill="midnightblue" stroke="midnightblue" points="1107.64,-736.95 1116.72,-731.5 1106.22,-730.1 1107.64,-736.95"/>
</g>
<!-- Node11&#45;&gt;Node4 -->
<g id="edge19" class="edge">
<title>Node11&#45;&gt;Node4</title>
<path fill="none" stroke="midnightblue" d="M448.62,-560.53C462.08,-587.34 503.98,-664.09 561,-705 626.89,-752.27 653.96,-749.94 734,-763 946.52,-797.68 1026.67,-839.81 1218,-741 1238.67,-730.32 1233.97,-714.83 1254,-703 1260.43,-699.2 1267.63,-696.15 1274.92,-693.7"/>
<polygon fill="midnightblue" stroke="midnightblue" points="1276.29,-696.95 1284.87,-690.73 1274.28,-690.24 1276.29,-696.95"/>
</g>
<!-- Node11&#45;&gt;Node6 -->
<g id="edge17" class="edge">
<title>Node11&#45;&gt;Node6</title>
<path fill="none" stroke="midnightblue" d="M451.83,-541.34C483.05,-503.52 603.25,-364.26 734,-296 864.77,-227.73 915.87,-241.16 1063,-252 1074.26,-252.83 1086.21,-254.21 1097.69,-255.78"/>
<polygon fill="midnightblue" stroke="midnightblue" points="1097.23,-259.25 1107.63,-257.21 1098.23,-252.32 1097.23,-259.25"/>
</g>
<!-- Node11&#45;&gt;Node7 -->
<g id="edge18" class="edge">
<title>Node11&#45;&gt;Node7</title>
<path fill="none" stroke="midnightblue" d="M446.18,-541.47C454.65,-506.47 488.56,-383.49 561,-315 621.77,-257.55 652.8,-261.02 734,-241 943.23,-189.41 1008.18,-162.87 1218,-212 1249.88,-219.46 1283.13,-237.7 1304.39,-250.91"/>
<polygon fill="midnightblue" stroke="midnightblue" points="1302.69,-253.98 1313,-256.4 1306.45,-248.08 1302.69,-253.98"/>
</g>
<!-- Node11&#45;&gt;Node10 -->
<g id="edge20" class="edge">
<title>Node11&#45;&gt;Node10</title>
<path fill="none" stroke="midnightblue" d="M469.1,-560.58C515.8,-578.87 618.48,-621.29 698,-670 715.28,-680.59 716.16,-688.38 734,-698 748.33,-705.73 765.62,-711.66 779.49,-715.69"/>
<polygon fill="midnightblue" stroke="midnightblue" points="778.75,-719.12 789.32,-718.4 780.61,-712.37 778.75,-719.12"/>
</g>
<!-- Node12 -->
<g id="node12" class="node">
<title>Node12</title>
<g id="a_node12"><a xlink:href="../../d0/dfe/class_syntax_analyzer.html#a7721cf7d36d549f81fd05c40dba02f67" target="_top" xlink:title=" ">
<polygon fill="none" stroke="black" points="561,-541.5 561,-560.5 698,-560.5 698,-541.5 561,-541.5"/>
<text text-anchor="middle" x="629.5" y="-548.5" font-family="Helvetica,sans-Serif" font-size="10.00">SyntaxAnalyzer::syntaxTerm</text>
</a>
</g>
</g>
<!-- Node11&#45;&gt;Node12 -->
<g id="edge21" class="edge">
<title>Node11&#45;&gt;Node12</title>
<path fill="none" stroke="midnightblue" d="M525.19,-551C533.65,-551 542.23,-551 550.64,-551"/>
<polygon fill="midnightblue" stroke="midnightblue" points="550.81,-554.5 560.81,-551 550.81,-547.5 550.81,-554.5"/>
</g>
<!-- Node12&#45;&gt;Node2 -->
<g id="edge22" class="edge">
<title>Node12&#45;&gt;Node2</title>
<path fill="none" stroke="midnightblue" d="M650.38,-560.59C664.91,-568.34 684.37,-580.36 698,-595 720.5,-619.18 707.45,-640.36 734,-660 788.92,-700.64 983.43,-714.89 1088.67,-719.69"/>
<polygon fill="midnightblue" stroke="midnightblue" points="1088.74,-723.19 1098.88,-720.14 1089.05,-716.2 1088.74,-723.19"/>
</g>
<!-- Node12&#45;&gt;Node4 -->
<g id="edge25" class="edge">
<title>Node12&#45;&gt;Node4</title>
<path fill="none" stroke="midnightblue" d="M666.08,-560.55C743.99,-581.15 935.75,-630.14 1099,-658 1158.88,-668.22 1228.31,-675.49 1274.67,-679.7"/>
<polygon fill="midnightblue" stroke="midnightblue" points="1274.51,-683.2 1284.78,-680.6 1275.13,-676.22 1274.51,-683.2"/>
</g>
<!-- Node12&#45;&gt;Node6 -->
<g id="edge23" class="edge">
<title>Node12&#45;&gt;Node6</title>
<path fill="none" stroke="midnightblue" d="M636.62,-541.4C663.32,-500.52 774.37,-340.4 913,-280 971.89,-254.34 1046.44,-254.09 1097.64,-258.2"/>
<polygon fill="midnightblue" stroke="midnightblue" points="1097.61,-261.71 1107.88,-259.1 1098.23,-254.74 1097.61,-261.71"/>
</g>
<!-- Node12&#45;&gt;Node7 -->
<g id="edge24" class="edge">
<title>Node12&#45;&gt;Node7</title>
<path fill="none" stroke="midnightblue" d="M634.46,-541.27C644.88,-515.69 673.91,-444.39 698,-385 714.04,-345.46 701.75,-323.93 734,-296 895.38,-156.24 1183.75,-222.98 1288.03,-253.57"/>
<polygon fill="midnightblue" stroke="midnightblue" points="1287.23,-256.99 1297.82,-256.5 1289.24,-250.28 1287.23,-256.99"/>
</g>
<!-- Node12&#45;&gt;Node10 -->
<g id="edge26" class="edge">
<title>Node12&#45;&gt;Node10</title>
<path fill="none" stroke="midnightblue" d="M644.02,-560.6C658.91,-571.75 682.78,-591.41 698,-613 721.64,-646.53 703.96,-670.06 734,-698 746.42,-709.55 764.62,-715.56 779.42,-718.68"/>
<polygon fill="midnightblue" stroke="midnightblue" points="779,-722.16 789.46,-720.48 780.23,-715.27 779,-722.16"/>
</g>
<!-- Node13 -->
<g id="node13" class="node">
<title>Node13</title>
<g id="a_node13"><a xlink:href="../../d0/dfe/class_syntax_analyzer.html#ab9b415ddd671b4884ab31cdf194f6c64" target="_top" xlink:title=" ">
<polygon fill="none" stroke="black" points="734,-484.5 734,-503.5 877,-503.5 877,-484.5 734,-484.5"/>
<text text-anchor="middle" x="805.5" y="-491.5" font-family="Helvetica,sans-Serif" font-size="10.00">SyntaxAnalyzer::syntaxFactor</text>
</a>
</g>
</g>
<!-- Node12&#45;&gt;Node13 -->
<g id="edge27" class="edge">
<title>Node12&#45;&gt;Node13</title>
<path fill="none" stroke="midnightblue" d="M659.62,-541.46C688.73,-531.92 733.66,-517.21 765.76,-506.69"/>
<polygon fill="midnightblue" stroke="midnightblue" points="766.87,-510.01 775.28,-503.57 764.69,-503.36 766.87,-510.01"/>
</g>
<!-- Node13&#45;&gt;Node2 -->
<g id="edge28" class="edge">
<title>Node13&#45;&gt;Node2</title>
<path fill="none" stroke="midnightblue" d="M812.22,-503.73C826.44,-527.15 865.67,-587.31 913,-622 973.64,-666.45 1056.88,-694.98 1108.91,-709.75"/>
<polygon fill="midnightblue" stroke="midnightblue" points="1107.99,-713.13 1118.56,-712.43 1109.86,-706.38 1107.99,-713.13"/>
</g>
<!-- Node13&#45;&gt;Node3 -->
<g id="edge33" class="edge">
<title>Node13&#45;&gt;Node3</title>
<path fill="none" stroke="midnightblue" d="M821.03,-503.55C840.96,-516.22 878.28,-538.47 913,-551 1033.79,-594.61 1183.83,-614.16 1266.05,-622.13"/>
<polygon fill="midnightblue" stroke="midnightblue" points="1265.93,-625.64 1276.22,-623.09 1266.59,-618.67 1265.93,-625.64"/>
</g>
<!-- Node13&#45;&gt;Node4 -->
<g id="edge39" class="edge">
<title>Node13&#45;&gt;Node4</title>
<path fill="none" stroke="midnightblue" d="M814.84,-503.54C831.55,-522.03 871.12,-562.76 913,-584 921.22,-588.17 1168.11,-646.58 1276.64,-672.15"/>
<polygon fill="midnightblue" stroke="midnightblue" points="1275.85,-675.56 1286.39,-674.45 1277.46,-668.75 1275.85,-675.56"/>
</g>
<!-- Node13&#45;&gt;Node6 -->
<g id="edge29" class="edge">
<title>Node13&#45;&gt;Node6</title>
<path fill="none" stroke="midnightblue" d="M809.51,-484.41C819.24,-455.11 852.71,-366.17 913,-323 942.21,-302.09 1035.16,-284.48 1097.66,-274.58"/>
<polygon fill="midnightblue" stroke="midnightblue" points="1098.46,-278 1107.8,-273 1097.38,-271.08 1098.46,-278"/>
</g>
<!-- Node13&#45;&gt;Node7 -->
<g id="edge34" class="edge">
<title>Node13&#45;&gt;Node7</title>
<path fill="none" stroke="midnightblue" d="M821.46,-484.48C841.58,-472.03 878.78,-450.26 913,-437 977.12,-412.15 997.02,-418.4 1063,-399 1132.71,-378.51 1153.6,-380.64 1218,-347 1252.71,-328.87 1288.27,-300.16 1308.96,-282.24"/>
<polygon fill="midnightblue" stroke="midnightblue" points="1311.43,-284.73 1316.63,-275.5 1306.8,-279.48 1311.43,-284.73"/>
</g>
<!-- Node13&#45;&gt;Node9 -->
<g id="edge47" class="edge">
<title>Node13&#45;&gt;Node9</title>
<path fill="none" stroke="midnightblue" d="M733.8,-494C631.05,-494 441.2,-494 335.36,-494"/>
<polygon fill="midnightblue" stroke="midnightblue" points="335.07,-490.5 325.07,-494 335.07,-497.5 335.07,-490.5"/>
</g>
<!-- Node13&#45;&gt;Node13 -->
<g id="edge48" class="edge">
<title>Node13&#45;&gt;Node13</title>
<path fill="none" stroke="midnightblue" d="M778.37,-503.76C765.18,-512.57 774.22,-522 805.5,-522 827.01,-522 838,-517.54 838.48,-511.89"/>
<polygon fill="midnightblue" stroke="midnightblue" points="841.31,-509.83 832.63,-503.76 835.63,-513.92 841.31,-509.83"/>
</g>
<!-- Node14 -->
<g id="node14" class="node">
<title>Node14</title>
<g id="a_node14"><a xlink:href="../../d0/dfe/class_syntax_analyzer.html#a9952c4a2db0a1382b9c94f40dd535fae" target="_top" xlink:title=" ">
<polygon fill="none" stroke="black" points="1099.5,-484.5 1099.5,-503.5 1217.5,-503.5 1217.5,-484.5 1099.5,-484.5"/>
<text text-anchor="middle" x="1158.5" y="-491.5" font-family="Helvetica,sans-Serif" font-size="10.00">SyntaxAnalyzer::eatAdv</text>
</a>
</g>
</g>
<!-- Node13&#45;&gt;Node14 -->
<g id="edge30" class="edge">
<title>Node13&#45;&gt;Node14</title>
<path fill="none" stroke="midnightblue" d="M877.11,-494C938.9,-494 1028.08,-494 1089.18,-494"/>
<polygon fill="midnightblue" stroke="midnightblue" points="1089.49,-497.5 1099.49,-494 1089.49,-490.5 1089.49,-497.5"/>
</g>
<!-- Node15 -->
<g id="node15" class="node">
<title>Node15</title>
<g id="a_node15"><a xlink:href="../../db/dc1/class_token.html#a014ced0a9ea72ae21fad0d4f116d0a73" target="_top" xlink:title=" ">
<polygon fill="none" stroke="black" points="949,-446.5 949,-465.5 1027,-465.5 1027,-446.5 949,-446.5"/>
<text text-anchor="middle" x="988" y="-453.5" font-family="Helvetica,sans-Serif" font-size="10.00">Token::getInfo</text>
</a>
</g>
</g>
<!-- Node13&#45;&gt;Node15 -->
<g id="edge35" class="edge">
<title>Node13&#45;&gt;Node15</title>
<path fill="none" stroke="midnightblue" d="M852.05,-484.41C878.53,-478.84 911.89,-471.81 938.81,-466.14"/>
<polygon fill="midnightblue" stroke="midnightblue" points="939.73,-469.53 948.79,-464.04 938.28,-462.68 939.73,-469.53"/>
</g>
<!-- Node18 -->
<g id="node18" class="node">
<title>Node18</title>
<g id="a_node18"><a xlink:href="../../d0/dfe/class_syntax_analyzer.html#af0905389742c4f842207bb2c073afbfa" target="_top" xlink:title=" ">
<polygon fill="none" stroke="black" points="919.5,-522.5 919.5,-541.5 1056.5,-541.5 1056.5,-522.5 919.5,-522.5"/>
<text text-anchor="middle" x="988" y="-529.5" font-family="Helvetica,sans-Serif" font-size="10.00">SyntaxAnalyzer::lookFoward</text>
</a>
</g>
</g>
<!-- Node13&#45;&gt;Node18 -->
<g id="edge40" class="edge">
<title>Node13&#45;&gt;Node18</title>
<path fill="none" stroke="midnightblue" d="M852.05,-503.59C876.3,-508.69 906.3,-515.01 931.86,-520.39"/>
<polygon fill="midnightblue" stroke="midnightblue" points="931.27,-523.84 941.78,-522.48 932.72,-516.99 931.27,-523.84"/>
</g>
<!-- Node20 -->
<g id="node20" class="node">
<title>Node20</title>
<g id="a_node20"><a xlink:href="../../d0/dfe/class_syntax_analyzer.html#a9321de68e44f3918a71256a3c1cd481b" target="_top" xlink:title=" ">
<polygon fill="none" stroke="black" points="917.5,-370.5 917.5,-389.5 1058.5,-389.5 1058.5,-370.5 917.5,-370.5"/>
<text text-anchor="middle" x="988" y="-377.5" font-family="Helvetica,sans-Serif" font-size="10.00">SyntaxAnalyzer::syntaxCallSt</text>
</a>
</g>
</g>
<!-- Node13&#45;&gt;Node20 -->
<g id="edge42" class="edge">
<title>Node13&#45;&gt;Node20</title>
<path fill="none" stroke="midnightblue" d="M815.26,-484.46C832.37,-466.33 872.17,-426.71 913,-404 920.8,-399.66 929.51,-395.96 938.14,-392.86"/>
<polygon fill="midnightblue" stroke="midnightblue" points="939.43,-396.12 947.79,-389.61 937.2,-389.48 939.43,-396.12"/>
</g>
<!-- Node13&#45;&gt;Node21 -->
<g id="edge49" class="edge">
<title>Node13&#45;&gt;Node21</title>
<path fill="none" stroke="midnightblue" d="M811.43,-484.18C824.41,-459.4 862.06,-393.9 913,-361 916.29,-358.87 919.81,-356.99 923.45,-355.31"/>
<polygon fill="midnightblue" stroke="midnightblue" points="924.77,-358.55 932.73,-351.56 922.14,-352.06 924.77,-358.55"/>
</g>
<!-- Node14&#45;&gt;Node7 -->
<g id="edge31" class="edge">
<title>Node14&#45;&gt;Node7</title>
<path fill="none" stroke="midnightblue" d="M1203.79,-484.47C1208.99,-482.01 1213.9,-478.9 1218,-475 1250.69,-443.85 1233.72,-420.34 1254,-380 1271.92,-344.36 1298.17,-305.86 1313.83,-283.96"/>
<polygon fill="midnightblue" stroke="midnightblue" points="1316.81,-285.81 1319.83,-275.65 1311.14,-281.71 1316.81,-285.81"/>
</g>
<!-- Node14&#45;&gt;Node8 -->
<g id="edge32" class="edge">
<title>Node14&#45;&gt;Node8</title>
<path fill="none" stroke="midnightblue" d="M1194.51,-484.49C1202.41,-481.84 1210.64,-478.66 1218,-475 1251.77,-458.21 1286.86,-431.87 1307.81,-415.03"/>
<polygon fill="midnightblue" stroke="midnightblue" points="1310.09,-417.69 1315.63,-408.65 1305.66,-412.26 1310.09,-417.69"/>
</g>
<!-- Node15&#45;&gt;Node4 -->
<g id="edge37" class="edge">
<title>Node15&#45;&gt;Node4</title>
<path fill="none" stroke="midnightblue" d="M1005.35,-465.59C1026.48,-477.72 1064.63,-498.73 1099,-513 1150.27,-534.29 1177.71,-512.8 1218,-551 1250.76,-582.07 1224.01,-612.25 1254,-646 1263.23,-656.38 1275.97,-664.36 1288.24,-670.26"/>
<polygon fill="midnightblue" stroke="midnightblue" points="1286.89,-673.5 1297.45,-674.37 1289.75,-667.1 1286.89,-673.5"/>
</g>
<!-- Node16 -->
<g id="node16" class="node">
<title>Node16</title>
<g id="a_node16"><a xlink:href="../../db/dc1/class_token.html#a942fcc40ffdf54c98b7b641c792a26bc" target="_top" xlink:title="Возвращает константную ссылку на строковое представление токена">
<polygon fill="none" stroke="black" points="1121.5,-408.5 1121.5,-427.5 1195.5,-427.5 1195.5,-408.5 1121.5,-408.5"/>
<text text-anchor="middle" x="1158.5" y="-415.5" font-family="Helvetica,sans-Serif" font-size="10.00">Token::getStr</text>
</a>
</g>
</g>
<!-- Node15&#45;&gt;Node16 -->
<g id="edge36" class="edge">
<title>Node15&#45;&gt;Node16</title>
<path fill="none" stroke="midnightblue" d="M1027.24,-447.38C1052.29,-441.73 1085.18,-434.31 1111.64,-428.34"/>
<polygon fill="midnightblue" stroke="midnightblue" points="1112.45,-431.75 1121.43,-426.13 1110.91,-424.92 1112.45,-431.75"/>
</g>
<!-- Node17 -->
<g id="node17" class="node">
<title>Node17</title>
<g id="a_node17"><a xlink:href="../../db/dc1/class_token.html#af3b5fdf2261d637af820d4adb62e6109" target="_top" xlink:title=" ">
<polygon fill="none" stroke="black" points="1127,-446.5 1127,-465.5 1190,-465.5 1190,-446.5 1127,-446.5"/>
<text text-anchor="middle" x="1158.5" y="-453.5" font-family="Helvetica,sans-Serif" font-size="10.00">Token::line</text>
</a>
</g>
</g>
<!-- Node15&#45;&gt;Node17 -->
<g id="edge38" class="edge">
<title>Node15&#45;&gt;Node17</title>
<path fill="none" stroke="midnightblue" d="M1027.24,-456C1053.89,-456 1089.42,-456 1116.64,-456"/>
<polygon fill="midnightblue" stroke="midnightblue" points="1117,-459.5 1127,-456 1117,-452.5 1117,-459.5"/>
</g>
<!-- Node19 -->
<g id="node19" class="node">
<title>Node19</title>
<g id="a_node19"><a xlink:href="../../d1/d34/class_list.html#a49c179636e084dfbf7a52acd46acaf01" target="_top" xlink:title=" ">
<polygon fill="none" stroke="black" points="1131,-560.5 1131,-579.5 1186,-579.5 1186,-560.5 1131,-560.5"/>
<text text-anchor="middle" x="1158.5" y="-567.5" font-family="Helvetica,sans-Serif" font-size="10.00">List::size</text>
</a>
</g>
</g>
<!-- Node18&#45;&gt;Node19 -->
<g id="edge41" class="edge">
<title>Node18&#45;&gt;Node19</title>
<path fill="none" stroke="midnightblue" d="M1031.52,-541.59C1059.06,-547.8 1094.56,-555.81 1120.86,-561.74"/>
<polygon fill="midnightblue" stroke="midnightblue" points="1120.28,-565.19 1130.8,-563.98 1121.82,-558.36 1120.28,-565.19"/>
</g>
<!-- Node20&#45;&gt;Node2 -->
<g id="edge43" class="edge">
<title>Node20&#45;&gt;Node2</title>
<path fill="none" stroke="midnightblue" d="M1007.77,-389.57C1024.8,-399.23 1049.27,-415.75 1063,-437 1100.67,-495.32 1076.93,-523.18 1099,-589 1113.02,-630.83 1135.19,-677.58 1147.83,-703.01"/>
<polygon fill="midnightblue" stroke="midnightblue" points="1144.85,-704.87 1152.46,-712.23 1151.1,-701.73 1144.85,-704.87"/>
</g>
<!-- Node20&#45;&gt;Node6 -->
<g id="edge44" class="edge">
<title>Node20&#45;&gt;Node6</title>
<path fill="none" stroke="midnightblue" d="M1040.95,-370.47C1048.62,-367.99 1056.21,-364.89 1063,-361 1072.29,-355.69 1117.03,-308.95 1141.47,-283.07"/>
<polygon fill="midnightblue" stroke="midnightblue" points="1144.03,-285.45 1148.34,-275.78 1138.94,-280.65 1144.03,-285.45"/>
</g>
<!-- Node20&#45;&gt;Node7 -->
<g id="edge45" class="edge">
<title>Node20&#45;&gt;Node7</title>
<path fill="none" stroke="midnightblue" d="M1027.09,-370.46C1038.64,-367.51 1051.36,-364.18 1063,-361 1132.19,-342.08 1150.77,-341.02 1218,-316 1246.38,-305.44 1277.71,-290.73 1299.46,-280"/>
<polygon fill="midnightblue" stroke="midnightblue" points="1301.06,-283.12 1308.45,-275.53 1297.94,-276.85 1301.06,-283.12"/>
</g>
<!-- Node20&#45;&gt;Node9 -->
<g id="edge46" class="edge">
<title>Node20&#45;&gt;Node9</title>
<path fill="none" stroke="midnightblue" d="M926.1,-389.54C792.12,-410.52 472.39,-460.58 329.77,-482.92"/>
<polygon fill="midnightblue" stroke="midnightblue" points="329.15,-479.47 319.82,-484.48 330.24,-486.39 329.15,-479.47"/>
</g>
<!-- Node21&#45;&gt;Node2 -->
<g id="edge50" class="edge">
<title>Node21&#45;&gt;Node2</title>
<path fill="none" stroke="midnightblue" d="M1050.87,-351.56C1055.38,-354.07 1059.52,-357.17 1063,-361 1132.03,-436.89 1070.11,-490.56 1099,-589 1111.43,-631.33 1134.18,-677.9 1147.35,-703.16"/>
<polygon fill="midnightblue" stroke="midnightblue" points="1144.42,-705.12 1152.19,-712.32 1150.61,-701.84 1144.42,-705.12"/>
</g>
<!-- Node21&#45;&gt;Node6 -->
<g id="edge51" class="edge">
<title>Node21&#45;&gt;Node6</title>
<path fill="none" stroke="midnightblue" d="M1026.92,-332.47C1038.83,-328.76 1051.78,-323.94 1063,-318 1080.91,-308.51 1081.46,-300.16 1099,-290 1105.66,-286.14 1113.06,-282.59 1120.3,-279.48"/>
<polygon fill="midnightblue" stroke="midnightblue" points="1122.05,-282.54 1129.98,-275.51 1119.4,-276.07 1122.05,-282.54"/>
</g>
<!-- Node21&#45;&gt;Node7 -->
<g id="edge52" class="edge">
<title>Node21&#45;&gt;Node7</title>
<path fill="none" stroke="midnightblue" d="M1031.47,-332.45C1093.27,-318.55 1207.92,-292.78 1274.8,-277.74"/>
<polygon fill="midnightblue" stroke="midnightblue" points="1275.72,-281.12 1284.71,-275.51 1274.18,-274.29 1275.72,-281.12"/>
</g>
</g>
</svg>
