<?xml version="1.0" encoding="UTF-8" standalone="no"?>
<!DOCTYPE svg PUBLIC "-//W3C//DTD SVG 1.1//EN"
 "http://www.w3.org/Graphics/SVG/1.1/DTD/svg11.dtd">
<!-- Generated by graphviz version 3.0.0 (20220413.0106)
 -->
<!-- Title: SyntaxAnalyzer::syntaxVars Pages: 1 -->
<svg width="1000pt" height="441pt"
 viewBox="0.00 0.00 1000.00 441.00" xmlns="http://www.w3.org/2000/svg" xmlns:xlink="http://www.w3.org/1999/xlink">
<g id="graph0" class="graph" transform="scale(1 1) rotate(0) translate(4 437)">
<title>SyntaxAnalyzer::syntaxVars</title>
<!-- Node1 -->
<g id="node1" class="node">
<title>Node1</title>
<g id="a_node1"><a xlink:title=" ">
<polygon fill="#bfbfbf" stroke="black" points="0,-0.5 0,-19.5 135,-19.5 135,-0.5 0,-0.5"/>
<text text-anchor="middle" x="67.5" y="-7.5" font-family="Helvetica,sans-Serif" font-size="10.00">SyntaxAnalyzer::syntaxVars</text>
</a>
</g>
</g>
<!-- Node2 -->
<g id="node2" class="node">
<title>Node2</title>
<g id="a_node2"><a xlink:href="../../d0/dfe/class_syntax_analyzer.html#ae1d3434e5cc4b4bcd5a3a245814a44f0" target="_top" xlink:title="Пропускает текущий токен, если он указанного типа. Иначе выбрасывается исключение">
<polygon fill="none" stroke="black" points="559,-71.5 559,-90.5 660,-90.5 660,-71.5 559,-71.5"/>
<text text-anchor="middle" x="609.5" y="-78.5" font-family="Helvetica,sans-Serif" font-size="10.00">SyntaxAnalyzer::eat</text>
</a>
</g>
</g>
<!-- Node1&#45;&gt;Node2 -->
<g id="edge1" class="edge">
<title>Node1&#45;&gt;Node2</title>
<path fill="none" stroke="midnightblue" d="M135.26,-18.78C241.38,-32.73 446.94,-59.76 548.59,-73.12"/>
<polygon fill="midnightblue" stroke="midnightblue" points="548.32,-76.62 558.69,-74.45 549.23,-69.68 548.32,-76.62"/>
</g>
<!-- Node3 -->
<g id="node3" class="node">
<title>Node3</title>
<g id="a_node3"><a xlink:href="../../d0/dfe/class_syntax_analyzer.html#a3ae6c7319e61cd669c417f189b098374" target="_top" xlink:title=" ">
<polygon fill="none" stroke="black" points="713,-71.5 713,-90.5 845,-90.5 845,-71.5 713,-71.5"/>
<text text-anchor="middle" x="779" y="-78.5" font-family="Helvetica,sans-Serif" font-size="10.00">SyntaxAnalyzer::getCurTok</text>
</a>
</g>
</g>
<!-- Node1&#45;&gt;Node3 -->
<g id="edge4" class="edge">
<title>Node1&#45;&gt;Node3</title>
<path fill="none" stroke="midnightblue" d="M135.25,-10.14C246.69,-11.37 477.3,-18.24 669,-52 692.2,-56.09 717.67,-62.74 738.15,-68.64"/>
<polygon fill="midnightblue" stroke="midnightblue" points="737.19,-72 747.77,-71.46 739.16,-65.29 737.19,-72"/>
</g>
<!-- Node5 -->
<g id="node5" class="node">
<title>Node5</title>
<g id="a_node5"><a xlink:href="../../d0/dfe/class_syntax_analyzer.html#a51ff8c81c92f9f81aacae95e4c12d00a" target="_top" xlink:title=" ">
<polygon fill="none" stroke="black" points="171,-142.5 171,-161.5 320,-161.5 320,-142.5 171,-142.5"/>
<text text-anchor="middle" x="245.5" y="-149.5" font-family="Helvetica,sans-Serif" font-size="10.00">SyntaxAnalyzer::syntaxVarDecl</text>
</a>
</g>
</g>
<!-- Node1&#45;&gt;Node5 -->
<g id="edge5" class="edge">
<title>Node1&#45;&gt;Node5</title>
<path fill="none" stroke="midnightblue" d="M80.32,-19.54C109.86,-43.37 187.18,-105.75 224.19,-135.61"/>
<polygon fill="midnightblue" stroke="midnightblue" points="222.28,-138.57 232.26,-142.13 226.68,-133.13 222.28,-138.57"/>
</g>
<!-- Node2&#45;&gt;Node3 -->
<g id="edge2" class="edge">
<title>Node2&#45;&gt;Node3</title>
<path fill="none" stroke="midnightblue" d="M660.3,-81C673.57,-81 688.21,-81 702.52,-81"/>
<polygon fill="midnightblue" stroke="midnightblue" points="702.86,-84.5 712.86,-81 702.86,-77.5 702.86,-84.5"/>
</g>
<!-- Node4 -->
<g id="node4" class="node">
<title>Node4</title>
<g id="a_node4"><a xlink:href="../../d0/dfe/class_syntax_analyzer.html#a9e41370d8d74fbd2e77648d2071e7dfe" target="_top" xlink:title=" ">
<polygon fill="none" stroke="black" points="705,-128.5 705,-147.5 853,-147.5 853,-128.5 705,-128.5"/>
<text text-anchor="middle" x="779" y="-135.5" font-family="Helvetica,sans-Serif" font-size="10.00">SyntaxAnalyzer::getNextToken</text>
</a>
</g>
</g>
<!-- Node2&#45;&gt;Node4 -->
<g id="edge3" class="edge">
<title>Node2&#45;&gt;Node4</title>
<path fill="none" stroke="midnightblue" d="M638.54,-90.54C666.44,-100.03 709.43,-114.67 740.31,-125.17"/>
<polygon fill="midnightblue" stroke="midnightblue" points="739.28,-128.52 749.87,-128.43 741.53,-121.89 739.28,-128.52"/>
</g>
<!-- Node5&#45;&gt;Node2 -->
<g id="edge23" class="edge">
<title>Node5&#45;&gt;Node2</title>
<path fill="none" stroke="midnightblue" d="M294.95,-142.5C360.96,-129.55 479.05,-106.39 549.95,-92.48"/>
<polygon fill="midnightblue" stroke="midnightblue" points="550.91,-95.86 560.05,-90.5 549.57,-88.99 550.91,-95.86"/>
</g>
<!-- Node5&#45;&gt;Node3 -->
<g id="edge24" class="edge">
<title>Node5&#45;&gt;Node3</title>
<path fill="none" stroke="midnightblue" d="M262.2,-142.29C282.92,-129.91 320.89,-108.71 356,-97 488.78,-52.7 529.54,-49.94 669,-62 686.92,-63.55 706.31,-66.51 723.7,-69.64"/>
<polygon fill="midnightblue" stroke="midnightblue" points="723.21,-73.1 733.68,-71.49 724.49,-66.22 723.21,-73.1"/>
</g>
<!-- Node6 -->
<g id="node6" class="node">
<title>Node6</title>
<g id="a_node6"><a xlink:href="../../d7/d7c/class_a_s_t_factory.html#a31d959009ba9e91a58a5c15e986d130b" target="_top" xlink:title=" ">
<polygon fill="none" stroke="black" points="550,-261.5 550,-280.5 669,-280.5 669,-261.5 550,-261.5"/>
<text text-anchor="middle" x="609.5" y="-268.5" font-family="Helvetica,sans-Serif" font-size="10.00">ASTFactory::createAST</text>
</a>
</g>
</g>
<!-- Node5&#45;&gt;Node6 -->
<g id="edge6" class="edge">
<title>Node5&#45;&gt;Node6</title>
<path fill="none" stroke="midnightblue" d="M257.08,-161.61C275.63,-177.88 315.88,-210.67 356,-227 415.31,-251.14 487.73,-262.04 539.78,-266.96"/>
<polygon fill="midnightblue" stroke="midnightblue" points="539.63,-270.47 549.9,-267.87 540.26,-263.49 539.63,-270.47"/>
</g>
<!-- Node15 -->
<g id="node15" class="node">
<title>Node15</title>
<g id="a_node15"><a xlink:href="../../d7/d7c/class_a_s_t_factory.html#aa4647507a830972309beb5db2d84ce96" target="_top" xlink:title="Возвращает &quot;глубокую копию&quot; указателя на тип typePtr.">
<polygon fill="none" stroke="black" points="358.5,-299.5 358.5,-318.5 511.5,-318.5 511.5,-299.5 358.5,-299.5"/>
<text text-anchor="middle" x="435" y="-306.5" font-family="Helvetica,sans-Serif" font-size="10.00">ASTFactory::createCopyOfType</text>
</a>
</g>
</g>
<!-- Node5&#45;&gt;Node15 -->
<g id="edge17" class="edge">
<title>Node5&#45;&gt;Node15</title>
<path fill="none" stroke="midnightblue" d="M253.18,-161.57C268.92,-183.54 310.43,-238.28 356,-272 368.73,-281.42 384.23,-289.36 398.05,-295.45"/>
<polygon fill="midnightblue" stroke="midnightblue" points="396.72,-298.68 407.3,-299.36 399.45,-292.24 396.72,-298.68"/>
</g>
<!-- Node16 -->
<g id="node16" class="node">
<title>Node16</title>
<g id="a_node16"><a xlink:href="../../d0/d11/class_i_token.html#a4fa3435db7157ca7316d4e4aee1df4c0" target="_top" xlink:title="Устанавливает дополнительный тип токена">
<polygon fill="none" stroke="black" points="383.5,-198.5 383.5,-217.5 486.5,-217.5 486.5,-198.5 383.5,-198.5"/>
<text text-anchor="middle" x="435" y="-205.5" font-family="Helvetica,sans-Serif" font-size="10.00">IToken::setAdvType</text>
</a>
</g>
</g>
<!-- Node5&#45;&gt;Node16 -->
<g id="edge25" class="edge">
<title>Node5&#45;&gt;Node16</title>
<path fill="none" stroke="midnightblue" d="M272.85,-161.62C294.9,-169.5 327.29,-180.67 356,-189 364.36,-191.43 373.29,-193.8 382.01,-196"/>
<polygon fill="midnightblue" stroke="midnightblue" points="381.17,-199.4 391.72,-198.41 382.86,-192.61 381.17,-199.4"/>
</g>
<!-- Node17 -->
<g id="node17" class="node">
<title>Node17</title>
<g id="a_node17"><a xlink:href="../../d0/dfe/class_syntax_analyzer.html#a5ef8e691db1611dd73eff73f011b7780" target="_top" xlink:title=" ">
<polygon fill="none" stroke="black" points="356,-142.5 356,-161.5 514,-161.5 514,-142.5 356,-142.5"/>
<text text-anchor="middle" x="435" y="-149.5" font-family="Helvetica,sans-Serif" font-size="10.00">SyntaxAnalyzer::syntaxTypeSpec</text>
</a>
</g>
</g>
<!-- Node5&#45;&gt;Node17 -->
<g id="edge26" class="edge">
<title>Node5&#45;&gt;Node17</title>
<path fill="none" stroke="midnightblue" d="M320.07,-152C328.47,-152 337.11,-152 345.68,-152"/>
<polygon fill="midnightblue" stroke="midnightblue" points="345.7,-155.5 355.7,-152 345.7,-148.5 345.7,-155.5"/>
</g>
<!-- Node7 -->
<g id="node7" class="node">
<title>Node7</title>
<g id="a_node7"><a xlink:href="../../d0/d11/class_i_token.html#a3e73305ee0ac36d0bf5f26b649589b24" target="_top" xlink:title=" ">
<polygon fill="none" stroke="black" points="889,-413.5 889,-432.5 992,-432.5 992,-413.5 889,-413.5"/>
<text text-anchor="middle" x="940.5" y="-420.5" font-family="Helvetica,sans-Serif" font-size="10.00">IToken::getAdvType</text>
</a>
</g>
</g>
<!-- Node6&#45;&gt;Node7 -->
<g id="edge7" class="edge">
<title>Node6&#45;&gt;Node7</title>
<path fill="none" stroke="midnightblue" d="M617.09,-280.52C630.99,-299.82 665.28,-343.61 705,-366 734.41,-382.58 819.74,-400.88 878.92,-412.16"/>
<polygon fill="midnightblue" stroke="midnightblue" points="878.44,-415.63 888.91,-414.04 879.73,-408.75 878.44,-415.63"/>
</g>
<!-- Node8 -->
<g id="node8" class="node">
<title>Node8</title>
<g id="a_node8"><a xlink:href="../../db/dc1/class_token.html#ab9a75d3f89e77051d87462654e7576de" target="_top" xlink:title=" ">
<polygon fill="none" stroke="black" points="740,-337.5 740,-356.5 818,-356.5 818,-337.5 740,-337.5"/>
<text text-anchor="middle" x="779" y="-344.5" font-family="Helvetica,sans-Serif" font-size="10.00">Token::getInfo</text>
</a>
</g>
</g>
<!-- Node6&#45;&gt;Node8 -->
<g id="edge8" class="edge">
<title>Node6&#45;&gt;Node8</title>
<path fill="none" stroke="midnightblue" d="M631.71,-280.63C661.04,-293.93 714.13,-318.02 747.65,-333.23"/>
<polygon fill="midnightblue" stroke="midnightblue" points="746.41,-336.51 756.96,-337.45 749.3,-330.13 746.41,-336.51"/>
</g>
<!-- Node10 -->
<g id="node10" class="node">
<title>Node10</title>
<g id="a_node10"><a xlink:href="../../d0/d11/class_i_token.html#ac7f0a800d7a9e8608bab0360c76d735a" target="_top" xlink:title="Получение типа токена">
<polygon fill="none" stroke="black" points="897.5,-223.5 897.5,-242.5 983.5,-242.5 983.5,-223.5 897.5,-223.5"/>
<text text-anchor="middle" x="940.5" y="-230.5" font-family="Helvetica,sans-Serif" font-size="10.00">IToken::getType</text>
</a>
</g>
</g>
<!-- Node6&#45;&gt;Node10 -->
<g id="edge15" class="edge">
<title>Node6&#45;&gt;Node10</title>
<path fill="none" stroke="midnightblue" d="M652.66,-261.42C668.94,-258.01 687.77,-254.42 705,-252 767.36,-243.23 839.67,-238.14 887.32,-235.47"/>
<polygon fill="midnightblue" stroke="midnightblue" points="887.6,-238.96 897.4,-234.92 887.22,-231.97 887.6,-238.96"/>
</g>
<!-- Node14 -->
<g id="node14" class="node">
<title>Node14</title>
<g id="a_node14"><a xlink:href="../../db/dc1/class_token.html#a1f07fa2fffeb2f7ab803ef8b424eae8a" target="_top" xlink:title=" ">
<polygon fill="none" stroke="black" points="742,-261.5 742,-280.5 816,-280.5 816,-261.5 742,-261.5"/>
<text text-anchor="middle" x="779" y="-268.5" font-family="Helvetica,sans-Serif" font-size="10.00">Token::setStr</text>
</a>
</g>
</g>
<!-- Node6&#45;&gt;Node14 -->
<g id="edge16" class="edge">
<title>Node6&#45;&gt;Node14</title>
<path fill="none" stroke="midnightblue" d="M669.08,-271C689.56,-271 712.24,-271 731.58,-271"/>
<polygon fill="midnightblue" stroke="midnightblue" points="731.66,-274.5 741.65,-271 731.65,-267.5 731.66,-274.5"/>
</g>
<!-- Node8&#45;&gt;Node7 -->
<g id="edge9" class="edge">
<title>Node8&#45;&gt;Node7</title>
<path fill="none" stroke="midnightblue" d="M818.08,-356.17C829.73,-359.85 842.29,-364.73 853,-371 871.73,-381.97 870.51,-392.64 889,-404 892.18,-405.95 895.59,-407.76 899.09,-409.42"/>
<polygon fill="midnightblue" stroke="midnightblue" points="897.87,-412.7 908.44,-413.45 900.65,-406.28 897.87,-412.7"/>
</g>
<!-- Node9 -->
<g id="node9" class="node">
<title>Node9</title>
<g id="a_node9"><a xlink:href="../../db/dc1/class_token.html#aa5d6826fae7d616e2cfe3e27b5dd594a" target="_top" xlink:title="Возвращает константную ссылку на строковое представление токена">
<polygon fill="none" stroke="black" points="903.5,-261.5 903.5,-280.5 977.5,-280.5 977.5,-261.5 903.5,-261.5"/>
<text text-anchor="middle" x="940.5" y="-268.5" font-family="Helvetica,sans-Serif" font-size="10.00">Token::getStr</text>
</a>
</g>
</g>
<!-- Node8&#45;&gt;Node9 -->
<g id="edge10" class="edge">
<title>Node8&#45;&gt;Node9</title>
<path fill="none" stroke="midnightblue" d="M818.08,-337.83C829.73,-334.15 842.29,-329.27 853,-323 871.73,-312.03 870.51,-301.36 889,-290 892.18,-288.05 895.59,-286.24 899.09,-284.58"/>
<polygon fill="midnightblue" stroke="midnightblue" points="900.65,-287.72 908.44,-280.55 897.87,-281.3 900.65,-287.72"/>
</g>
<!-- Node8&#45;&gt;Node10 -->
<g id="edge11" class="edge">
<title>Node8&#45;&gt;Node10</title>
<path fill="none" stroke="midnightblue" d="M818.14,-340.48C830.32,-336.92 843.18,-331.43 853,-323 879.84,-299.95 862.65,-275.61 889,-252 890.89,-250.3 892.95,-248.75 895.12,-247.34"/>
<polygon fill="midnightblue" stroke="midnightblue" points="896.82,-250.4 903.9,-242.52 893.45,-244.26 896.82,-250.4"/>
</g>
<!-- Node11 -->
<g id="node11" class="node">
<title>Node11</title>
<g id="a_node11"><a xlink:href="../../db/dc1/class_token.html#a81497d9f05f9c69ba4ab8e9c62a391d1" target="_top" xlink:title=" ">
<polygon fill="none" stroke="black" points="909,-375.5 909,-394.5 972,-394.5 972,-375.5 909,-375.5"/>
<text text-anchor="middle" x="940.5" y="-382.5" font-family="Helvetica,sans-Serif" font-size="10.00">Token::line</text>
</a>
</g>
</g>
<!-- Node8&#45;&gt;Node11 -->
<g id="edge12" class="edge">
<title>Node8&#45;&gt;Node11</title>
<path fill="none" stroke="midnightblue" d="M818.2,-356.1C842.59,-361.91 874.15,-369.43 898.97,-375.35"/>
<polygon fill="midnightblue" stroke="midnightblue" points="898.27,-378.78 908.81,-377.69 899.9,-371.97 898.27,-378.78"/>
</g>
<!-- Node12 -->
<g id="node12" class="node">
<title>Node12</title>
<g id="a_node12"><a xlink:href="../../db/dc1/class_token.html#a715f99ebacdd636c283d15dc8656631c" target="_top" xlink:title=" ">
<polygon fill="none" stroke="black" points="908.5,-337.5 908.5,-356.5 972.5,-356.5 972.5,-337.5 908.5,-337.5"/>
<text text-anchor="middle" x="940.5" y="-344.5" font-family="Helvetica,sans-Serif" font-size="10.00">Token::pos</text>
</a>
</g>
</g>
<!-- Node8&#45;&gt;Node12 -->
<g id="edge13" class="edge">
<title>Node8&#45;&gt;Node12</title>
<path fill="none" stroke="midnightblue" d="M818.2,-347C842.32,-347 873.46,-347 898.15,-347"/>
<polygon fill="midnightblue" stroke="midnightblue" points="898.3,-350.5 908.3,-347 898.3,-343.5 898.3,-350.5"/>
</g>
<!-- Node13 -->
<g id="node13" class="node">
<title>Node13</title>
<g id="a_node13"><a xlink:href="../../db/dc1/class_token.html#a913f22d91c68c0b0f8c2d593b14deca2" target="_top" xlink:title=" ">
<polygon fill="none" stroke="black" points="895,-299.5 895,-318.5 986,-318.5 986,-299.5 895,-299.5"/>
<text text-anchor="middle" x="940.5" y="-306.5" font-family="Helvetica,sans-Serif" font-size="10.00">Token::posInLine</text>
</a>
</g>
</g>
<!-- Node8&#45;&gt;Node13 -->
<g id="edge14" class="edge">
<title>Node8&#45;&gt;Node13</title>
<path fill="none" stroke="midnightblue" d="M818.2,-337.9C839.56,-332.81 866.43,-326.41 889.45,-320.93"/>
<polygon fill="midnightblue" stroke="midnightblue" points="890.47,-324.28 899.38,-318.56 888.84,-317.47 890.47,-324.28"/>
</g>
<!-- Node15&#45;&gt;Node6 -->
<g id="edge18" class="edge">
<title>Node15&#45;&gt;Node6</title>
<path fill="none" stroke="midnightblue" d="M479.53,-299.41C502.6,-294.33 531.13,-288.04 555.48,-282.68"/>
<polygon fill="midnightblue" stroke="midnightblue" points="556.27,-286.09 565.28,-280.52 554.77,-279.25 556.27,-286.09"/>
</g>
<!-- Node15&#45;&gt;Node7 -->
<g id="edge20" class="edge">
<title>Node15&#45;&gt;Node7</title>
<path fill="none" stroke="midnightblue" d="M458.53,-318.59C504.13,-337.56 611.01,-379.77 705,-400 763.12,-412.51 830.83,-418.23 878.51,-420.83"/>
<polygon fill="midnightblue" stroke="midnightblue" points="878.5,-424.34 888.67,-421.36 878.86,-417.35 878.5,-424.34"/>
</g>
<!-- Node15&#45;&gt;Node8 -->
<g id="edge21" class="edge">
<title>Node15&#45;&gt;Node8</title>
<path fill="none" stroke="midnightblue" d="M511.71,-318.48C524.49,-320.03 537.62,-321.59 550,-323 611.95,-330.06 683.46,-337.47 729.63,-342.15"/>
<polygon fill="midnightblue" stroke="midnightblue" points="729.35,-345.64 739.65,-343.17 730.06,-338.68 729.35,-345.64"/>
</g>
<!-- Node15&#45;&gt;Node10 -->
<g id="edge22" class="edge">
<title>Node15&#45;&gt;Node10</title>
<path fill="none" stroke="midnightblue" d="M511.77,-312.24C615.15,-315.53 794.26,-316.87 853,-290 874.16,-280.32 869.62,-264.87 889,-252 891.9,-250.08 895.02,-248.31 898.23,-246.7"/>
<polygon fill="midnightblue" stroke="midnightblue" points="899.76,-249.85 907.44,-242.55 896.89,-243.46 899.76,-249.85"/>
</g>
<!-- Node15&#45;&gt;Node15 -->
<g id="edge19" class="edge">
<title>Node15&#45;&gt;Node15</title>
<path fill="none" stroke="midnightblue" d="M408.18,-318.76C395.13,-327.57 404.07,-337 435,-337 455.78,-337 466.63,-332.74 467.56,-327.27"/>
<polygon fill="midnightblue" stroke="midnightblue" points="470.31,-325.09 461.82,-318.76 464.51,-329.01 470.31,-325.09"/>
</g>
<!-- Node17&#45;&gt;Node2 -->
<g id="edge28" class="edge">
<title>Node17&#45;&gt;Node2</title>
<path fill="none" stroke="midnightblue" d="M459.14,-142.45C482.17,-132.94 518.52,-117.95 550,-105 558.32,-101.58 567.31,-97.89 575.68,-94.45"/>
<polygon fill="midnightblue" stroke="midnightblue" points="577.23,-97.6 585.15,-90.57 574.57,-91.12 577.23,-97.6"/>
</g>
<!-- Node17&#45;&gt;Node3 -->
<g id="edge32" class="edge">
<title>Node17&#45;&gt;Node3</title>
<path fill="none" stroke="midnightblue" d="M481.77,-142.5C544.01,-129.58 655.24,-106.48 722.27,-92.57"/>
<polygon fill="midnightblue" stroke="midnightblue" points="723.15,-95.96 732.23,-90.5 721.73,-89.11 723.15,-95.96"/>
</g>
<!-- Node17&#45;&gt;Node6 -->
<g id="edge27" class="edge">
<title>Node17&#45;&gt;Node6</title>
<path fill="none" stroke="midnightblue" d="M460.45,-161.57C476.3,-168.25 497.06,-177.93 514,-189 543.64,-208.37 573.86,-236.33 591.89,-254.08"/>
<polygon fill="midnightblue" stroke="midnightblue" points="589.72,-256.86 599.28,-261.45 594.67,-251.9 589.72,-256.86"/>
</g>
<!-- Node17&#45;&gt;Node10 -->
<g id="edge33" class="edge">
<title>Node17&#45;&gt;Node10</title>
<path fill="none" stroke="midnightblue" d="M478.11,-161.52C499.56,-166.2 526.11,-171.74 550,-176 670.16,-197.42 812.24,-216.7 887.17,-226.39"/>
<polygon fill="midnightblue" stroke="midnightblue" points="886.92,-229.89 897.29,-227.7 887.82,-222.95 886.92,-229.89"/>
</g>
<!-- Node17&#45;&gt;Node17 -->
<g id="edge34" class="edge">
<title>Node17&#45;&gt;Node17</title>
<path fill="none" stroke="midnightblue" d="M408.18,-161.76C395.13,-170.57 404.07,-180 435,-180 455.78,-180 466.63,-175.74 467.56,-170.27"/>
<polygon fill="midnightblue" stroke="midnightblue" points="470.31,-168.09 461.82,-161.76 464.51,-172.01 470.31,-168.09"/>
</g>
<!-- Node18 -->
<g id="node18" class="node">
<title>Node18</title>
<g id="a_node18"><a xlink:href="../../d0/dfe/class_syntax_analyzer.html#a9952c4a2db0a1382b9c94f40dd535fae" target="_top" xlink:title="Пропускает текущий токен, если он указанного типа. Иначе выбрасывается исключение">
<polygon fill="none" stroke="black" points="550.5,-147.5 550.5,-166.5 668.5,-166.5 668.5,-147.5 550.5,-147.5"/>
<text text-anchor="middle" x="609.5" y="-154.5" font-family="Helvetica,sans-Serif" font-size="10.00">SyntaxAnalyzer::eatAdv</text>
</a>
</g>
</g>
<!-- Node17&#45;&gt;Node18 -->
<g id="edge29" class="edge">
<title>Node17&#45;&gt;Node18</title>
<path fill="none" stroke="midnightblue" d="M514.17,-154.27C522.95,-154.52 531.84,-154.78 540.48,-155.03"/>
<polygon fill="midnightblue" stroke="midnightblue" points="540.38,-158.53 550.48,-155.32 540.58,-151.53 540.38,-158.53"/>
</g>
<!-- Node18&#45;&gt;Node3 -->
<g id="edge30" class="edge">
<title>Node18&#45;&gt;Node3</title>
<path fill="none" stroke="midnightblue" d="M634.54,-147.49C645.16,-143.2 657.76,-137.98 669,-133 696.72,-120.71 727.9,-105.72 749.79,-94.99"/>
<polygon fill="midnightblue" stroke="midnightblue" points="751.43,-98.09 758.85,-90.53 748.34,-91.8 751.43,-98.09"/>
</g>
<!-- Node18&#45;&gt;Node4 -->
<g id="edge31" class="edge">
<title>Node18&#45;&gt;Node4</title>
<path fill="none" stroke="midnightblue" d="M668.61,-150.41C677.13,-149.44 686.03,-148.43 694.92,-147.42"/>
<polygon fill="midnightblue" stroke="midnightblue" points="695.4,-150.89 704.94,-146.29 694.61,-143.94 695.4,-150.89"/>
</g>
</g>
</svg>
