<?xml version="1.0" encoding="UTF-8" standalone="no"?>
<!DOCTYPE svg PUBLIC "-//W3C//DTD SVG 1.1//EN"
 "http://www.w3.org/Graphics/SVG/1.1/DTD/svg11.dtd">
<!-- Generated by graphviz version 3.0.0 (20220413.0106)
 -->
<!-- Title: SyntaxAnalyzer::syntaxCompoundSt Pages: 1 -->
<svg width="1973pt" height="1466pt"
 viewBox="0.00 0.00 1973.00 1466.20" xmlns="http://www.w3.org/2000/svg" xmlns:xlink="http://www.w3.org/1999/xlink">
<g id="graph0" class="graph" transform="scale(1 1) rotate(0) translate(4 1462.2)">
<title>SyntaxAnalyzer::syntaxCompoundSt</title>
<!-- Node1 -->
<g id="node1" class="node">
<title>Node1</title>
<g id="a_node1"><a xlink:title=" ">
<polygon fill="#bfbfbf" stroke="black" points="0,-1239.47 0,-1258.47 171,-1258.47 171,-1239.47 0,-1239.47"/>
<text text-anchor="middle" x="85.5" y="-1246.47" font-family="Helvetica,sans-Serif" font-size="10.00">SyntaxAnalyzer::syntaxCompoundSt</text>
</a>
</g>
</g>
<!-- Node2 -->
<g id="node2" class="node">
<title>Node2</title>
<g id="a_node2"><a xlink:href="../../d7/d7c/class_a_s_t_factory.html#a8d1d4c9d01ab2e366d1af6bbaeaf7bef" target="_top" xlink:title=" ">
<polygon fill="none" stroke="black" points="1662,-232.47 1662,-251.47 1781,-251.47 1781,-232.47 1662,-232.47"/>
<text text-anchor="middle" x="1721.5" y="-239.47" font-family="Helvetica,sans-Serif" font-size="10.00">ASTFactory::createAST</text>
</a>
</g>
</g>
<!-- Node1&#45;&gt;Node2 -->
<g id="edge1" class="edge">
<title>Node1&#45;&gt;Node2</title>
<path fill="none" stroke="midnightblue" d="M87.11,-1239.38C94.65,-1124.43 174.49,-13.97 445.5,-13.97 445.5,-13.97 445.5,-13.97 1369.5,-13.97 1483.96,-13.97 1532.46,28.99 1626,-36.97 1689.37,-81.65 1711.23,-179.72 1717.9,-221.96"/>
<polygon fill="midnightblue" stroke="midnightblue" points="1714.47,-222.69 1719.37,-232.09 1721.39,-221.69 1714.47,-222.69"/>
</g>
<!-- Node6 -->
<g id="node6" class="node">
<title>Node6</title>
<g id="a_node6"><a xlink:href="../../d0/dfe/class_syntax_analyzer.html#ae1d3434e5cc4b4bcd5a3a245814a44f0" target="_top" xlink:title=" ">
<polygon fill="none" stroke="black" points="1671,-935.47 1671,-954.47 1772,-954.47 1772,-935.47 1671,-935.47"/>
<text text-anchor="middle" x="1721.5" y="-942.47" font-family="Helvetica,sans-Serif" font-size="10.00">SyntaxAnalyzer::eat</text>
</a>
</g>
</g>
<!-- Node1&#45;&gt;Node6 -->
<g id="edge5" class="edge">
<title>Node1&#45;&gt;Node6</title>
<path fill="none" stroke="midnightblue" d="M97.36,-1258.65C139.07,-1294.82 294.31,-1419.97 445.5,-1419.97 445.5,-1419.97 445.5,-1419.97 1193.5,-1419.97 1470.75,-1419.97 1667.87,-1052.75 1711.43,-964.07"/>
<polygon fill="midnightblue" stroke="midnightblue" points="1714.67,-965.41 1715.88,-954.89 1708.37,-962.36 1714.67,-965.41"/>
</g>
<!-- Node7 -->
<g id="node7" class="node">
<title>Node7</title>
<g id="a_node7"><a xlink:href="../../d0/dfe/class_syntax_analyzer.html#a3ae6c7319e61cd669c417f189b098374" target="_top" xlink:title=" ">
<polygon fill="none" stroke="black" points="1825,-1087.47 1825,-1106.47 1957,-1106.47 1957,-1087.47 1825,-1087.47"/>
<text text-anchor="middle" x="1891" y="-1094.47" font-family="Helvetica,sans-Serif" font-size="10.00">SyntaxAnalyzer::getCurTok</text>
</a>
</g>
</g>
<!-- Node1&#45;&gt;Node7 -->
<g id="edge8" class="edge">
<title>Node1&#45;&gt;Node7</title>
<path fill="none" stroke="midnightblue" d="M92.49,-1258.76C108.15,-1283.52 152.83,-1349.13 207,-1383.97 300.35,-1443.99 334.51,-1457.97 445.5,-1457.97 445.5,-1457.97 445.5,-1457.97 1552,-1457.97 1658.3,-1457.97 1703.45,-1461.66 1781,-1388.97 1862.65,-1312.43 1883.51,-1168.97 1888.52,-1116.68"/>
<polygon fill="midnightblue" stroke="midnightblue" points="1892.01,-1116.97 1889.38,-1106.7 1885.03,-1116.36 1892.01,-1116.97"/>
</g>
<!-- Node9 -->
<g id="node9" class="node">
<title>Node9</title>
<g id="a_node9"><a xlink:href="../../d0/d11/class_i_token.html#a4fa3435db7157ca7316d4e4aee1df4c0" target="_top" xlink:title="Устанавливает дополнительный тип токена">
<polygon fill="none" stroke="black" points="226,-1220.47 226,-1239.47 329,-1239.47 329,-1220.47 226,-1220.47"/>
<text text-anchor="middle" x="277.5" y="-1227.47" font-family="Helvetica,sans-Serif" font-size="10.00">IToken::setAdvType</text>
</a>
</g>
</g>
<!-- Node1&#45;&gt;Node9 -->
<g id="edge9" class="edge">
<title>Node1&#45;&gt;Node9</title>
<path fill="none" stroke="midnightblue" d="M171.22,-1240.49C186.27,-1238.99 201.67,-1237.45 215.88,-1236.03"/>
<polygon fill="midnightblue" stroke="midnightblue" points="216.4,-1239.49 226,-1235.02 215.7,-1232.53 216.4,-1239.49"/>
</g>
<!-- Node10 -->
<g id="node10" class="node">
<title>Node10</title>
<g id="a_node10"><a xlink:href="../../d0/dfe/class_syntax_analyzer.html#a6df61a82ef9de3c17b78be89a321a087" target="_top" xlink:title=" ">
<polygon fill="none" stroke="black" points="207,-1258.47 207,-1277.47 348,-1277.47 348,-1258.47 207,-1258.47"/>
<text text-anchor="middle" x="277.5" y="-1265.47" font-family="Helvetica,sans-Serif" font-size="10.00">SyntaxAnalyzer::syntaxStList</text>
</a>
</g>
</g>
<!-- Node1&#45;&gt;Node10 -->
<g id="edge10" class="edge">
<title>Node1&#45;&gt;Node10</title>
<path fill="none" stroke="midnightblue" d="M171.22,-1257.44C179.66,-1258.28 188.21,-1259.14 196.61,-1259.98"/>
<polygon fill="midnightblue" stroke="midnightblue" points="196.44,-1263.48 206.74,-1260.99 197.14,-1256.51 196.44,-1263.48"/>
</g>
<!-- Node3 -->
<g id="node3" class="node">
<title>Node3</title>
<g id="a_node3"><a xlink:href="../../d0/d11/class_i_token.html#ac8ca7f7e601ae49ad573167a4e9429cb" target="_top" xlink:title=" ">
<polygon fill="none" stroke="black" points="1839.5,-346.47 1839.5,-365.47 1942.5,-365.47 1942.5,-346.47 1839.5,-346.47"/>
<text text-anchor="middle" x="1891" y="-353.47" font-family="Helvetica,sans-Serif" font-size="10.00">IToken::getAdvType</text>
</a>
</g>
</g>
<!-- Node2&#45;&gt;Node3 -->
<g id="edge2" class="edge">
<title>Node2&#45;&gt;Node3</title>
<path fill="none" stroke="midnightblue" d="M1736.49,-251.49C1765.36,-271.14 1831.78,-316.34 1867.04,-340.34"/>
<polygon fill="midnightblue" stroke="midnightblue" points="1865.46,-343.49 1875.69,-346.23 1869.39,-337.71 1865.46,-343.49"/>
</g>
<!-- Node4 -->
<g id="node4" class="node">
<title>Node4</title>
<g id="a_node4"><a xlink:href="../../d0/d11/class_i_token.html#a568cb9d98839eff3fd758f419a76b092" target="_top" xlink:title="Получение типа токена">
<polygon fill="none" stroke="black" points="1848,-479.47 1848,-498.47 1934,-498.47 1934,-479.47 1848,-479.47"/>
<text text-anchor="middle" x="1891" y="-486.47" font-family="Helvetica,sans-Serif" font-size="10.00">IToken::getType</text>
</a>
</g>
</g>
<!-- Node2&#45;&gt;Node4 -->
<g id="edge3" class="edge">
<title>Node2&#45;&gt;Node4</title>
<path fill="none" stroke="midnightblue" d="M1734.97,-251.82C1747.77,-262.41 1767.65,-280.27 1781,-298.97 1802.73,-329.38 1798.89,-342.27 1817,-374.97 1836.43,-410.04 1862.39,-449 1877.54,-471.09"/>
<polygon fill="midnightblue" stroke="midnightblue" points="1874.76,-473.22 1883.32,-479.46 1880.52,-469.24 1874.76,-473.22"/>
</g>
<!-- Node5 -->
<g id="node5" class="node">
<title>Node5</title>
<g id="a_node5"><a xlink:href="../../db/dc1/class_token.html#a1f07fa2fffeb2f7ab803ef8b424eae8a" target="_top" xlink:title=" ">
<polygon fill="none" stroke="black" points="1854,-232.47 1854,-251.47 1928,-251.47 1928,-232.47 1854,-232.47"/>
<text text-anchor="middle" x="1891" y="-239.47" font-family="Helvetica,sans-Serif" font-size="10.00">Token::setStr</text>
</a>
</g>
</g>
<!-- Node2&#45;&gt;Node5 -->
<g id="edge4" class="edge">
<title>Node2&#45;&gt;Node5</title>
<path fill="none" stroke="midnightblue" d="M1781.08,-241.97C1801.56,-241.97 1824.24,-241.97 1843.58,-241.97"/>
<polygon fill="midnightblue" stroke="midnightblue" points="1843.66,-245.47 1853.65,-241.97 1843.65,-238.47 1843.66,-245.47"/>
</g>
<!-- Node6&#45;&gt;Node7 -->
<g id="edge6" class="edge">
<title>Node6&#45;&gt;Node7</title>
<path fill="none" stroke="midnightblue" d="M1732.98,-954.47C1760.83,-979.75 1836.94,-1048.81 1871.94,-1080.58"/>
<polygon fill="midnightblue" stroke="midnightblue" points="1869.77,-1083.33 1879.53,-1087.46 1874.47,-1078.15 1869.77,-1083.33"/>
</g>
<!-- Node8 -->
<g id="node8" class="node">
<title>Node8</title>
<g id="a_node8"><a xlink:href="../../d0/dfe/class_syntax_analyzer.html#a9e41370d8d74fbd2e77648d2071e7dfe" target="_top" xlink:title=" ">
<polygon fill="none" stroke="black" points="1817,-821.47 1817,-840.47 1965,-840.47 1965,-821.47 1817,-821.47"/>
<text text-anchor="middle" x="1891" y="-828.47" font-family="Helvetica,sans-Serif" font-size="10.00">SyntaxAnalyzer::getNextToken</text>
</a>
</g>
</g>
<!-- Node6&#45;&gt;Node8 -->
<g id="edge7" class="edge">
<title>Node6&#45;&gt;Node8</title>
<path fill="none" stroke="midnightblue" d="M1736.49,-935.44C1765.36,-915.79 1831.78,-870.59 1867.04,-846.6"/>
<polygon fill="midnightblue" stroke="midnightblue" points="1869.39,-849.22 1875.69,-840.7 1865.46,-843.44 1869.39,-849.22"/>
</g>
<!-- Node10&#45;&gt;Node6 -->
<g id="edge11" class="edge">
<title>Node10&#45;&gt;Node6</title>
<path fill="none" stroke="midnightblue" d="M348.13,-1267.97C417.43,-1267.97 526.82,-1267.97 621.5,-1267.97 621.5,-1267.97 621.5,-1267.97 813,-1267.97 1098.24,-1267.97 1171.27,-1226.59 1440,-1130.97 1524.78,-1100.8 1552.99,-1103.58 1626,-1050.97 1660.79,-1025.9 1691.92,-985.97 1708.31,-962.94"/>
<polygon fill="midnightblue" stroke="midnightblue" points="1711.18,-964.94 1714.03,-954.74 1705.44,-960.94 1711.18,-964.94"/>
</g>
<!-- Node10&#45;&gt;Node7 -->
<g id="edge12" class="edge">
<title>Node10&#45;&gt;Node7</title>
<path fill="none" stroke="midnightblue" d="M294.64,-1277.49C342.64,-1304.89 489.41,-1381.97 621.5,-1381.97 621.5,-1381.97 621.5,-1381.97 1193.5,-1381.97 1455.19,-1381.97 1573.26,-1502.1 1781,-1342.97 1856.37,-1285.23 1880.77,-1164.12 1887.62,-1116.65"/>
<polygon fill="midnightblue" stroke="midnightblue" points="1891.13,-1116.86 1888.98,-1106.48 1884.19,-1115.93 1891.13,-1116.86"/>
</g>
<!-- Node11 -->
<g id="node11" class="node">
<title>Node11</title>
<g id="a_node11"><a xlink:href="../../d0/dfe/class_syntax_analyzer.html#a7f54bde730006b1b863290415809ab4e" target="_top" xlink:title=" ">
<polygon fill="none" stroke="black" points="384,-973.47 384,-992.47 509,-992.47 509,-973.47 384,-973.47"/>
<text text-anchor="middle" x="446.5" y="-980.47" font-family="Helvetica,sans-Serif" font-size="10.00">SyntaxAnalyzer::syntaxSt</text>
</a>
</g>
</g>
<!-- Node10&#45;&gt;Node11 -->
<g id="edge13" class="edge">
<title>Node10&#45;&gt;Node11</title>
<path fill="none" stroke="midnightblue" d="M333.52,-1258.45C338.8,-1255.97 343.76,-1252.86 348,-1248.97 421.93,-1181.03 439.95,-1052.3 444.22,-1002.93"/>
<polygon fill="midnightblue" stroke="midnightblue" points="447.73,-1002.9 445,-992.66 440.75,-1002.36 447.73,-1002.9"/>
</g>
<!-- Node11&#45;&gt;Node1 -->
<g id="edge67" class="edge">
<title>Node11&#45;&gt;Node1</title>
<path fill="none" stroke="midnightblue" d="M432.56,-992.56C379.04,-1032.21 174.77,-1183.56 107.86,-1233.14"/>
<polygon fill="midnightblue" stroke="midnightblue" points="105.65,-1230.42 99.7,-1239.18 109.82,-1236.04 105.65,-1230.42"/>
</g>
<!-- Node11&#45;&gt;Node6 -->
<g id="edge14" class="edge">
<title>Node11&#45;&gt;Node6</title>
<path fill="none" stroke="midnightblue" d="M455.97,-992.49C493.32,-1033.38 648.67,-1191.97 811,-1191.97 811,-1191.97 811,-1191.97 1007,-1191.97 1292.2,-1191.97 1607.99,-1013.55 1696.37,-959.99"/>
<polygon fill="midnightblue" stroke="midnightblue" points="1698.41,-962.85 1705.12,-954.65 1694.76,-956.88 1698.41,-962.85"/>
</g>
<!-- Node11&#45;&gt;Node7 -->
<g id="edge15" class="edge">
<title>Node11&#45;&gt;Node7</title>
<path fill="none" stroke="midnightblue" d="M451.34,-992.62C474.9,-1050.03 605.55,-1343.97 811,-1343.97 811,-1343.97 811,-1343.97 1193.5,-1343.97 1324.26,-1343.97 1673.88,-1385.96 1781,-1310.97 1849.18,-1263.23 1877.31,-1159.82 1886.39,-1116.58"/>
<polygon fill="midnightblue" stroke="midnightblue" points="1889.83,-1117.23 1888.34,-1106.74 1882.96,-1115.87 1889.83,-1117.23"/>
</g>
<!-- Node12 -->
<g id="node12" class="node">
<title>Node12</title>
<g id="a_node12"><a xlink:href="../../d0/dfe/class_syntax_analyzer.html#af0905389742c4f842207bb2c073afbfa" target="_top" xlink:title=" ">
<polygon fill="none" stroke="black" points="1482.5,-308.47 1482.5,-327.47 1619.5,-327.47 1619.5,-308.47 1482.5,-308.47"/>
<text text-anchor="middle" x="1551" y="-315.47" font-family="Helvetica,sans-Serif" font-size="10.00">SyntaxAnalyzer::lookFoward</text>
</a>
</g>
</g>
<!-- Node11&#45;&gt;Node12 -->
<g id="edge16" class="edge">
<title>Node11&#45;&gt;Node12</title>
<path fill="none" stroke="midnightblue" d="M453.29,-973.23C467.25,-950.23 504.59,-891.34 545,-849.97 771.94,-617.56 828.44,-538.72 1124,-403.97 1238.24,-351.88 1383.97,-331.17 1471.97,-323.05"/>
<polygon fill="midnightblue" stroke="midnightblue" points="1472.5,-326.52 1482.15,-322.15 1471.88,-319.55 1472.5,-326.52"/>
</g>
<!-- Node14 -->
<g id="node14" class="node">
<title>Node14</title>
<g id="a_node14"><a xlink:href="../../d0/dfe/class_syntax_analyzer.html#a31fc5887c158652feb946f89270b4b36" target="_top" xlink:title=" ">
<polygon fill="none" stroke="black" points="545,-992.47 545,-1011.47 700,-1011.47 700,-992.47 545,-992.47"/>
<text text-anchor="middle" x="622.5" y="-999.47" font-family="Helvetica,sans-Serif" font-size="10.00">SyntaxAnalyzer::syntaxAssignSt</text>
</a>
</g>
</g>
<!-- Node11&#45;&gt;Node14 -->
<g id="edge18" class="edge">
<title>Node11&#45;&gt;Node14</title>
<path fill="none" stroke="midnightblue" d="M509.34,-989.72C517.62,-990.62 526.24,-991.56 534.85,-992.5"/>
<polygon fill="midnightblue" stroke="midnightblue" points="534.62,-996 544.94,-993.61 535.38,-989.04 534.62,-996"/>
</g>
<!-- Node24 -->
<g id="node24" class="node">
<title>Node24</title>
<g id="a_node24"><a xlink:href="../../d0/dfe/class_syntax_analyzer.html#a2db43946bee3e973ce1cf293b262e271" target="_top" xlink:title=" ">
<polygon fill="none" stroke="black" points="1480.5,-726.47 1480.5,-745.47 1621.5,-745.47 1621.5,-726.47 1480.5,-726.47"/>
<text text-anchor="middle" x="1551" y="-733.47" font-family="Helvetica,sans-Serif" font-size="10.00">SyntaxAnalyzer::syntaxCallSt</text>
</a>
</g>
</g>
<!-- Node11&#45;&gt;Node24 -->
<g id="edge66" class="edge">
<title>Node11&#45;&gt;Node24</title>
<path fill="none" stroke="midnightblue" d="M465.94,-992.55C485.1,-1001.93 516.25,-1015.56 545,-1020.97 612.7,-1033.69 631.24,-1025.16 700,-1020.97 951.65,-1005.63 1017.46,-1002.15 1261,-936.97 1342.05,-915.27 1371.51,-925.43 1440,-876.97 1486.9,-843.77 1523.48,-784.88 1540.15,-754.79"/>
<polygon fill="midnightblue" stroke="midnightblue" points="1543.35,-756.23 1545.03,-745.77 1537.19,-752.91 1543.35,-756.23"/>
</g>
<!-- Node26 -->
<g id="node26" class="node">
<title>Node26</title>
<g id="a_node26"><a xlink:href="../../d0/dfe/class_syntax_analyzer.html#a67bc7e3cfb57c9d4d25d60913aef3a87" target="_top" xlink:title=" ">
<polygon fill="none" stroke="black" points="736,-42.47 736,-61.47 888,-61.47 888,-42.47 736,-42.47"/>
<text text-anchor="middle" x="812" y="-49.47" font-family="Helvetica,sans-Serif" font-size="10.00">SyntaxAnalyzer::syntaxEmptySt</text>
</a>
</g>
</g>
<!-- Node11&#45;&gt;Node26 -->
<g id="edge68" class="edge">
<title>Node11&#45;&gt;Node26</title>
<path fill="none" stroke="midnightblue" d="M447.81,-973.27C450.89,-879.92 477.31,-142.51 545,-75.97 602.51,-19.43 704.67,-28.64 764.25,-40.35"/>
<polygon fill="midnightblue" stroke="midnightblue" points="763.65,-43.8 774.15,-42.4 765.07,-36.95 763.65,-43.8"/>
</g>
<!-- Node27 -->
<g id="node27" class="node">
<title>Node27</title>
<g id="a_node27"><a xlink:href="../../d0/dfe/class_syntax_analyzer.html#a779e006875d35926152773989f4b1e5a" target="_top" xlink:title=" ">
<polygon fill="none" stroke="black" points="557,-954.47 557,-973.47 688,-973.47 688,-954.47 557,-954.47"/>
<text text-anchor="middle" x="622.5" y="-961.47" font-family="Helvetica,sans-Serif" font-size="10.00">SyntaxAnalyzer::syntaxIfSt</text>
</a>
</g>
</g>
<!-- Node11&#45;&gt;Node27 -->
<g id="edge70" class="edge">
<title>Node11&#45;&gt;Node27</title>
<path fill="none" stroke="midnightblue" d="M483.55,-973.44C501.85,-970.49 524.8,-967.62 546.69,-965.44"/>
<polygon fill="midnightblue" stroke="midnightblue" points="547.03,-968.93 556.65,-964.5 546.37,-961.96 547.03,-968.93"/>
</g>
<!-- Node28 -->
<g id="node28" class="node">
<title>Node28</title>
<g id="a_node28"><a xlink:href="../../d0/dfe/class_syntax_analyzer.html#a64dad7f0b22b08d182483469d3a1aa79" target="_top" xlink:title=" ">
<polygon fill="none" stroke="black" points="548,-859.47 548,-878.47 697,-878.47 697,-859.47 548,-859.47"/>
<text text-anchor="middle" x="622.5" y="-866.47" font-family="Helvetica,sans-Serif" font-size="10.00">SyntaxAnalyzer::syntaxWhileSt</text>
</a>
</g>
</g>
<!-- Node11&#45;&gt;Node28 -->
<g id="edge76" class="edge">
<title>Node11&#45;&gt;Node28</title>
<path fill="none" stroke="midnightblue" d="M457.1,-973.37C482.22,-953.12 550.69,-907.6 590.9,-883.73"/>
<polygon fill="midnightblue" stroke="midnightblue" points="592.88,-886.63 599.75,-878.57 589.35,-880.58 592.88,-886.63"/>
</g>
<!-- Node13 -->
<g id="node13" class="node">
<title>Node13</title>
<g id="a_node13"><a xlink:href="../../d1/d34/class_list.html#a49c179636e084dfbf7a52acd46acaf01" target="_top" xlink:title=" ">
<polygon fill="none" stroke="black" points="1694,-308.47 1694,-327.47 1749,-327.47 1749,-308.47 1694,-308.47"/>
<text text-anchor="middle" x="1721.5" y="-315.47" font-family="Helvetica,sans-Serif" font-size="10.00">List::size</text>
</a>
</g>
</g>
<!-- Node12&#45;&gt;Node13 -->
<g id="edge17" class="edge">
<title>Node12&#45;&gt;Node13</title>
<path fill="none" stroke="midnightblue" d="M1619.56,-317.97C1641.4,-317.97 1664.8,-317.97 1683.56,-317.97"/>
<polygon fill="midnightblue" stroke="midnightblue" points="1683.75,-321.47 1693.75,-317.97 1683.75,-314.47 1683.75,-321.47"/>
</g>
<!-- Node14&#45;&gt;Node2 -->
<g id="edge19" class="edge">
<title>Node14&#45;&gt;Node2</title>
<path fill="none" stroke="midnightblue" d="M687.67,-992.32C692.23,-989.82 696.43,-986.74 700,-982.97 759.04,-920.51 713.47,-875.91 736,-792.97 801.08,-553.39 727.3,-418.44 924,-266.97 1021.54,-191.85 1353,-225.19 1476,-219.97 1542.61,-217.14 1559.77,-212.36 1626,-219.97 1643.02,-221.92 1661.44,-225.8 1677.45,-229.76"/>
<polygon fill="midnightblue" stroke="midnightblue" points="1677.03,-233.26 1687.59,-232.35 1678.77,-226.48 1677.03,-233.26"/>
</g>
<!-- Node14&#45;&gt;Node6 -->
<g id="edge20" class="edge">
<title>Node14&#45;&gt;Node6</title>
<path fill="none" stroke="midnightblue" d="M700.19,-1001.38C753,-1000.83 824.76,-999.81 888,-997.97 1216.17,-988.37 1300.5,-1008.85 1626,-965.97 1641.99,-963.86 1659.28,-960.38 1674.63,-956.85"/>
<polygon fill="midnightblue" stroke="midnightblue" points="1675.49,-960.25 1684.42,-954.54 1673.88,-953.44 1675.49,-960.25"/>
</g>
<!-- Node14&#45;&gt;Node7 -->
<g id="edge21" class="edge">
<title>Node14&#45;&gt;Node7</title>
<path fill="none" stroke="midnightblue" d="M627.58,-1011.67C639.86,-1039.75 679.14,-1122.01 736,-1167.97 875.79,-1280.94 945.06,-1265.12 1124,-1281.97 1269.36,-1295.65 1654.24,-1354.41 1781,-1281.97 1844.61,-1245.62 1874.79,-1156.05 1885.38,-1116.4"/>
<polygon fill="midnightblue" stroke="midnightblue" points="1888.8,-1117.18 1887.86,-1106.62 1882.01,-1115.45 1888.8,-1117.18"/>
</g>
<!-- Node15 -->
<g id="node15" class="node">
<title>Node15</title>
<g id="a_node15"><a xlink:href="../../d0/dfe/class_syntax_analyzer.html#ae8d09db1b25ec882248aeed978c13a4d" target="_top" xlink:title=" ">
<polygon fill="none" stroke="black" points="745,-802.47 745,-821.47 879,-821.47 879,-802.47 745,-802.47"/>
<text text-anchor="middle" x="812" y="-809.47" font-family="Helvetica,sans-Serif" font-size="10.00">SyntaxAnalyzer::syntaxExpr</text>
</a>
</g>
</g>
<!-- Node14&#45;&gt;Node15 -->
<g id="edge22" class="edge">
<title>Node14&#45;&gt;Node15</title>
<path fill="none" stroke="midnightblue" d="M681.95,-992.42C688.37,-989.96 694.54,-986.86 700,-982.97 755.37,-943.5 790.15,-866.96 804.06,-831.22"/>
<polygon fill="midnightblue" stroke="midnightblue" points="807.46,-832.12 807.71,-821.52 800.91,-829.65 807.46,-832.12"/>
</g>
<!-- Node25 -->
<g id="node25" class="node">
<title>Node25</title>
<g id="a_node25"><a xlink:href="../../d0/dfe/class_syntax_analyzer.html#a94c8a6ab5c0e53cae22edb1a840a27ce" target="_top" xlink:title=" ">
<polygon fill="none" stroke="black" points="1476,-688.47 1476,-707.47 1626,-707.47 1626,-688.47 1476,-688.47"/>
<text text-anchor="middle" x="1551" y="-695.47" font-family="Helvetica,sans-Serif" font-size="10.00">SyntaxAnalyzer::syntaxVariable</text>
</a>
</g>
</g>
<!-- Node14&#45;&gt;Node25 -->
<g id="edge65" class="edge">
<title>Node14&#45;&gt;Node25</title>
<path fill="none" stroke="midnightblue" d="M700.32,-995.67C882.01,-979.28 1331.08,-929.56 1440,-830.97 1479.39,-795.31 1437.42,-753.5 1476,-716.97 1477.52,-715.53 1479.13,-714.2 1480.81,-712.96"/>
<polygon fill="midnightblue" stroke="midnightblue" points="1483.03,-715.72 1489.8,-707.57 1479.43,-709.71 1483.03,-715.72"/>
</g>
<!-- Node15&#45;&gt;Node2 -->
<g id="edge23" class="edge">
<title>Node15&#45;&gt;Node2</title>
<path fill="none" stroke="midnightblue" d="M813.64,-802.11C818.06,-737.49 846.17,-374.7 924,-303.97 966.74,-265.13 1383.82,-255.3 1440,-241.97 1456.55,-238.04 1459.24,-231.9 1476,-228.97 1537.31,-218.24 1608.46,-224.03 1658.15,-230.96"/>
<polygon fill="midnightblue" stroke="midnightblue" points="1657.7,-234.43 1668.1,-232.4 1658.71,-227.5 1657.7,-234.43"/>
</g>
<!-- Node15&#45;&gt;Node4 -->
<g id="edge26" class="edge">
<title>Node15&#45;&gt;Node4</title>
<path fill="none" stroke="midnightblue" d="M813.67,-802.21C816.99,-762.05 835.27,-608.17 924,-535.97 1207.93,-304.91 1708.87,-433.32 1851.27,-476.5"/>
<polygon fill="midnightblue" stroke="midnightblue" points="1850.3,-479.87 1860.89,-479.46 1852.36,-473.18 1850.3,-479.87"/>
</g>
<!-- Node15&#45;&gt;Node6 -->
<g id="edge24" class="edge">
<title>Node15&#45;&gt;Node6</title>
<path fill="none" stroke="midnightblue" d="M855.78,-821.5C960.8,-844.48 1239.95,-903.13 1476,-930.97 1538.68,-938.36 1610.88,-941.88 1660.48,-943.54"/>
<polygon fill="midnightblue" stroke="midnightblue" points="1660.6,-947.05 1670.71,-943.87 1660.83,-940.05 1660.6,-947.05"/>
</g>
<!-- Node15&#45;&gt;Node7 -->
<g id="edge25" class="edge">
<title>Node15&#45;&gt;Node7</title>
<path fill="none" stroke="midnightblue" d="M831.2,-821.52C852.98,-832.79 890.68,-851.78 924,-865.97 1086.5,-935.13 1126.4,-957.32 1297,-1002.97 1456.03,-1045.52 1499.3,-1040.87 1662,-1065.97 1712.73,-1073.79 1769.97,-1081.57 1814.41,-1087.38"/>
<polygon fill="midnightblue" stroke="midnightblue" points="1814.19,-1090.88 1824.55,-1088.7 1815.09,-1083.94 1814.19,-1090.88"/>
</g>
<!-- Node16 -->
<g id="node16" class="node">
<title>Node16</title>
<g id="a_node16"><a xlink:href="../../df/d3f/_syntax_8hpp.html#ae7d62ca130413d4c96863327c1af81a4" target="_top" xlink:title="Возвращает истину, если value находится среди значений cont.">
<polygon fill="none" stroke="black" points="1352.5,-802.47 1352.5,-821.47 1384.5,-821.47 1384.5,-802.47 1352.5,-802.47"/>
<text text-anchor="middle" x="1368.5" y="-809.47" font-family="Helvetica,sans-Serif" font-size="10.00">isIn</text>
</a>
</g>
</g>
<!-- Node15&#45;&gt;Node16 -->
<g id="edge27" class="edge">
<title>Node15&#45;&gt;Node16</title>
<path fill="none" stroke="midnightblue" d="M879.06,-811.97C1001.78,-811.97 1259.93,-811.97 1341.93,-811.97"/>
<polygon fill="midnightblue" stroke="midnightblue" points="1342.09,-815.47 1352.09,-811.97 1342.09,-808.47 1342.09,-815.47"/>
</g>
<!-- Node17 -->
<g id="node17" class="node">
<title>Node17</title>
<g id="a_node17"><a xlink:href="../../d0/dfe/class_syntax_analyzer.html#a3dfb6634a4bcdc61da5b1bafd1f3d136" target="_top" xlink:title=" ">
<polygon fill="none" stroke="black" points="924,-726.47 924,-745.47 1088,-745.47 1088,-726.47 924,-726.47"/>
<text text-anchor="middle" x="1006" y="-733.47" font-family="Helvetica,sans-Serif" font-size="10.00">SyntaxAnalyzer::syntaxSimpleExpr</text>
</a>
</g>
</g>
<!-- Node15&#45;&gt;Node17 -->
<g id="edge28" class="edge">
<title>Node15&#45;&gt;Node17</title>
<path fill="none" stroke="midnightblue" d="M837.32,-802.34C871.22,-788.92 932.83,-764.53 971.19,-749.35"/>
<polygon fill="midnightblue" stroke="midnightblue" points="972.87,-752.45 980.88,-745.51 970.29,-745.94 972.87,-752.45"/>
</g>
<!-- Node17&#45;&gt;Node2 -->
<g id="edge29" class="edge">
<title>Node17&#45;&gt;Node2</title>
<path fill="none" stroke="midnightblue" d="M1012.63,-726.38C1039.42,-681.42 1158.44,-488.6 1297,-369.97 1352.49,-322.46 1380.92,-331.92 1440,-288.97 1457.56,-276.2 1456,-264.41 1476,-255.97 1531.79,-232.41 1601.19,-230.73 1651.78,-233.88"/>
<polygon fill="midnightblue" stroke="midnightblue" points="1651.74,-237.38 1661.96,-234.59 1652.23,-230.4 1651.74,-237.38"/>
</g>
<!-- Node17&#45;&gt;Node4 -->
<g id="edge32" class="edge">
<title>Node17&#45;&gt;Node4</title>
<path fill="none" stroke="midnightblue" d="M1014.98,-726.4C1046.26,-689.72 1165.36,-557.61 1297,-508.97 1485.66,-439.25 1731.48,-464.24 1837.54,-480.03"/>
<polygon fill="midnightblue" stroke="midnightblue" points="1837.25,-483.53 1847.66,-481.57 1838.3,-476.61 1837.25,-483.53"/>
</g>
<!-- Node17&#45;&gt;Node6 -->
<g id="edge30" class="edge">
<title>Node17&#45;&gt;Node6</title>
<path fill="none" stroke="midnightblue" d="M1029.99,-745.65C1097.36,-773.69 1300.58,-855.84 1476,-901.97 1538.2,-918.32 1610.96,-930.22 1660.84,-937.3"/>
<polygon fill="midnightblue" stroke="midnightblue" points="1660.42,-940.78 1670.81,-938.69 1661.39,-933.84 1660.42,-940.78"/>
</g>
<!-- Node17&#45;&gt;Node7 -->
<g id="edge31" class="edge">
<title>Node17&#45;&gt;Node7</title>
<path fill="none" stroke="midnightblue" d="M1017.55,-745.53C1037.23,-762.95 1081.37,-800.15 1124,-822.97 1378.95,-959.43 1716.06,-1052.88 1840.84,-1084.82"/>
<polygon fill="midnightblue" stroke="midnightblue" points="1840.3,-1088.3 1850.85,-1087.37 1842.02,-1081.51 1840.3,-1088.3"/>
</g>
<!-- Node17&#45;&gt;Node16 -->
<g id="edge33" class="edge">
<title>Node17&#45;&gt;Node16</title>
<path fill="none" stroke="midnightblue" d="M1088.06,-732.22C1139.32,-732.57 1206.03,-738.16 1261,-759.97 1279.84,-767.44 1279.16,-778.34 1297,-787.97 1311.33,-795.69 1328.62,-801.62 1342.49,-805.66"/>
<polygon fill="midnightblue" stroke="midnightblue" points="1341.75,-809.09 1352.32,-808.37 1343.61,-802.34 1341.75,-809.09"/>
</g>
<!-- Node18 -->
<g id="node18" class="node">
<title>Node18</title>
<g id="a_node18"><a xlink:href="../../d0/dfe/class_syntax_analyzer.html#a1e9b913cc8c2861927d7c05d10f1822d" target="_top" xlink:title=" ">
<polygon fill="none" stroke="black" points="1124,-688.47 1124,-707.47 1261,-707.47 1261,-688.47 1124,-688.47"/>
<text text-anchor="middle" x="1192.5" y="-695.47" font-family="Helvetica,sans-Serif" font-size="10.00">SyntaxAnalyzer::syntaxTerm</text>
</a>
</g>
</g>
<!-- Node17&#45;&gt;Node18 -->
<g id="edge34" class="edge">
<title>Node17&#45;&gt;Node18</title>
<path fill="none" stroke="midnightblue" d="M1053.56,-726.38C1078.34,-721.27 1109.02,-714.95 1135.14,-709.57"/>
<polygon fill="midnightblue" stroke="midnightblue" points="1136.19,-712.93 1145.28,-707.49 1134.78,-706.08 1136.19,-712.93"/>
</g>
<!-- Node18&#45;&gt;Node2 -->
<g id="edge35" class="edge">
<title>Node18&#45;&gt;Node2</title>
<path fill="none" stroke="midnightblue" d="M1197.54,-688.32C1209.89,-659.45 1249.21,-571.79 1297,-508.97 1350.66,-438.42 1387.47,-441.35 1440,-369.97 1460.97,-341.47 1448.16,-320.81 1476,-298.97 1490.43,-287.64 1591.63,-266.56 1659.23,-253.45"/>
<polygon fill="midnightblue" stroke="midnightblue" points="1660.2,-256.83 1669.35,-251.5 1658.87,-249.96 1660.2,-256.83"/>
</g>
<!-- Node18&#45;&gt;Node4 -->
<g id="edge38" class="edge">
<title>Node18&#45;&gt;Node4</title>
<path fill="none" stroke="midnightblue" d="M1260.53,-688.44C1272.66,-686.85 1285.2,-685.29 1297,-683.97 1350.65,-677.96 1734.11,-667.73 1781,-640.97 1834.44,-610.46 1868.49,-541.84 1882.57,-508.24"/>
<polygon fill="midnightblue" stroke="midnightblue" points="1885.94,-509.23 1886.44,-498.65 1879.45,-506.61 1885.94,-509.23"/>
</g>
<!-- Node18&#45;&gt;Node6 -->
<g id="edge36" class="edge">
<title>Node18&#45;&gt;Node6</title>
<path fill="none" stroke="midnightblue" d="M1215.65,-707.48C1228.95,-713.36 1246.12,-721.23 1261,-728.97 1277.44,-737.51 1280.01,-742.58 1297,-749.97 1357.86,-776.43 1389.1,-750.37 1440,-792.97 1467.13,-815.67 1449.07,-841.02 1476,-863.97 1529.28,-909.36 1559.62,-889.76 1626,-911.97 1645.15,-918.37 1666.38,-925.76 1683.87,-931.92"/>
<polygon fill="midnightblue" stroke="midnightblue" points="1683.09,-935.36 1693.68,-935.39 1685.42,-928.76 1683.09,-935.36"/>
</g>
<!-- Node18&#45;&gt;Node7 -->
<g id="edge37" class="edge">
<title>Node18&#45;&gt;Node7</title>
<path fill="none" stroke="midnightblue" d="M1261.08,-705.68C1311.42,-712.73 1381.3,-725.27 1440,-745.97 1601.62,-802.96 1654.97,-809.84 1781,-925.97 1830.27,-971.37 1866.53,-1043.77 1881.89,-1077.94"/>
<polygon fill="midnightblue" stroke="midnightblue" points="1878.75,-1079.49 1885.97,-1087.24 1885.16,-1076.68 1878.75,-1079.49"/>
</g>
<!-- Node18&#45;&gt;Node16 -->
<g id="edge39" class="edge">
<title>Node18&#45;&gt;Node16</title>
<path fill="none" stroke="midnightblue" d="M1235.32,-707.5C1244.47,-710.98 1253.62,-715.67 1261,-721.97 1286.41,-743.66 1271.44,-766.45 1297,-787.97 1309.89,-798.82 1327.94,-804.84 1342.54,-808.14"/>
<polygon fill="midnightblue" stroke="midnightblue" points="1341.96,-811.59 1352.45,-810.09 1343.31,-804.73 1341.96,-811.59"/>
</g>
<!-- Node19 -->
<g id="node19" class="node">
<title>Node19</title>
<g id="a_node19"><a xlink:href="../../d0/dfe/class_syntax_analyzer.html#a3af9b5161a2cef6fdd26b0bb60334ac4" target="_top" xlink:title=" ">
<polygon fill="none" stroke="black" points="1297,-518.47 1297,-537.47 1440,-537.47 1440,-518.47 1297,-518.47"/>
<text text-anchor="middle" x="1368.5" y="-525.47" font-family="Helvetica,sans-Serif" font-size="10.00">SyntaxAnalyzer::syntaxFactor</text>
</a>
</g>
</g>
<!-- Node18&#45;&gt;Node19 -->
<g id="edge40" class="edge">
<title>Node18&#45;&gt;Node19</title>
<path fill="none" stroke="midnightblue" d="M1238.21,-688.45C1246.6,-685 1254.69,-680.32 1261,-673.97 1295.44,-639.23 1266.12,-607.9 1297,-569.97 1306.63,-558.14 1320.53,-548.86 1333.44,-542.07"/>
<polygon fill="midnightblue" stroke="midnightblue" points="1335.18,-545.12 1342.6,-537.56 1332.08,-538.84 1335.18,-545.12"/>
</g>
<!-- Node19&#45;&gt;Node2 -->
<g id="edge41" class="edge">
<title>Node19&#45;&gt;Node2</title>
<path fill="none" stroke="midnightblue" d="M1377.21,-518.17C1393.69,-497.68 1434.26,-449.59 1476,-417.97 1536.39,-372.21 1565.86,-383.05 1626,-336.97 1644.47,-322.82 1645.67,-315.53 1662,-298.97 1675.59,-285.18 1691.32,-269.89 1703.04,-258.62"/>
<polygon fill="midnightblue" stroke="midnightblue" points="1705.65,-260.97 1710.44,-251.53 1700.8,-255.92 1705.65,-260.97"/>
</g>
<!-- Node19&#45;&gt;Node3 -->
<g id="edge46" class="edge">
<title>Node19&#45;&gt;Node3</title>
<path fill="none" stroke="midnightblue" d="M1398.6,-518.35C1486.88,-489.18 1751.68,-401.67 1851.43,-368.71"/>
<polygon fill="midnightblue" stroke="midnightblue" points="1852.71,-371.98 1861.11,-365.51 1850.51,-365.33 1852.71,-371.98"/>
</g>
<!-- Node19&#45;&gt;Node4 -->
<g id="edge52" class="edge">
<title>Node19&#45;&gt;Node4</title>
<path fill="none" stroke="midnightblue" d="M1440.24,-522.67C1546.2,-514.73 1743.7,-499.93 1837.69,-492.89"/>
<polygon fill="midnightblue" stroke="midnightblue" points="1838.1,-496.36 1847.81,-492.13 1837.58,-489.38 1838.1,-496.36"/>
</g>
<!-- Node19&#45;&gt;Node6 -->
<g id="edge42" class="edge">
<title>Node19&#45;&gt;Node6</title>
<path fill="none" stroke="midnightblue" d="M1371.76,-537.85C1380,-572.01 1411.42,-686.63 1476,-754.97 1528.04,-810.03 1566.89,-788.57 1626,-835.97 1659.98,-863.21 1691.41,-903.74 1708.06,-926.94"/>
<polygon fill="midnightblue" stroke="midnightblue" points="1705.26,-929.03 1713.89,-935.18 1710.98,-925 1705.26,-929.03"/>
</g>
<!-- Node19&#45;&gt;Node7 -->
<g id="edge47" class="edge">
<title>Node19&#45;&gt;Node7</title>
<path fill="none" stroke="midnightblue" d="M1377.64,-537.58C1394.3,-556.69 1434.23,-599.8 1476,-624.97 1536.69,-661.53 1566.69,-640.2 1626,-678.97 1645.47,-691.7 1642.06,-704.98 1662,-716.97 1709.03,-745.25 1741.54,-711.82 1781,-749.97 1793.39,-761.94 1863.92,-1005.86 1884.42,-1077.41"/>
<polygon fill="midnightblue" stroke="midnightblue" points="1881.14,-1078.69 1887.26,-1087.35 1887.87,-1076.77 1881.14,-1078.69"/>
</g>
<!-- Node19&#45;&gt;Node12 -->
<g id="edge53" class="edge">
<title>Node19&#45;&gt;Node12</title>
<path fill="none" stroke="midnightblue" d="M1375.27,-518.38C1387.44,-498.12 1416.54,-449.39 1440,-407.97 1456.46,-378.89 1450.28,-363.3 1476,-341.97 1480.98,-337.83 1486.69,-334.41 1492.68,-331.57"/>
<polygon fill="midnightblue" stroke="midnightblue" points="1494.37,-334.65 1502.25,-327.57 1491.68,-328.19 1494.37,-334.65"/>
</g>
<!-- Node19&#45;&gt;Node15 -->
<g id="edge59" class="edge">
<title>Node19&#45;&gt;Node15</title>
<path fill="none" stroke="midnightblue" d="M1296.94,-522.89C1202.92,-519.79 1035.47,-527.46 924,-607.97 859.33,-654.67 828.32,-751.04 817.57,-792.41"/>
<polygon fill="midnightblue" stroke="midnightblue" points="814.12,-791.77 815.11,-802.32 820.91,-793.45 814.12,-791.77"/>
</g>
<!-- Node19&#45;&gt;Node19 -->
<g id="edge60" class="edge">
<title>Node19&#45;&gt;Node19</title>
<path fill="none" stroke="midnightblue" d="M1341.37,-537.72C1328.18,-546.53 1337.22,-555.97 1368.5,-555.97 1390.01,-555.97 1401,-551.51 1401.48,-545.86"/>
<polygon fill="midnightblue" stroke="midnightblue" points="1404.31,-543.79 1395.63,-537.72 1398.63,-547.88 1404.31,-543.79"/>
</g>
<!-- Node20 -->
<g id="node20" class="node">
<title>Node20</title>
<g id="a_node20"><a xlink:href="../../d0/dfe/class_syntax_analyzer.html#a9952c4a2db0a1382b9c94f40dd535fae" target="_top" xlink:title=" ">
<polygon fill="none" stroke="black" points="1662.5,-688.47 1662.5,-707.47 1780.5,-707.47 1780.5,-688.47 1662.5,-688.47"/>
<text text-anchor="middle" x="1721.5" y="-695.47" font-family="Helvetica,sans-Serif" font-size="10.00">SyntaxAnalyzer::eatAdv</text>
</a>
</g>
</g>
<!-- Node19&#45;&gt;Node20 -->
<g id="edge43" class="edge">
<title>Node19&#45;&gt;Node20</title>
<path fill="none" stroke="midnightblue" d="M1391.71,-537.54C1436.5,-556.99 1540.66,-602.92 1626,-645.97 1649.74,-657.94 1676.22,-672.63 1695.1,-683.34"/>
<polygon fill="midnightblue" stroke="midnightblue" points="1693.54,-686.48 1703.96,-688.39 1697.01,-680.4 1693.54,-686.48"/>
</g>
<!-- Node21 -->
<g id="node21" class="node">
<title>Node21</title>
<g id="a_node21"><a xlink:href="../../db/dc1/class_token.html#a014ced0a9ea72ae21fad0d4f116d0a73" target="_top" xlink:title=" ">
<polygon fill="none" stroke="black" points="1512,-536.47 1512,-555.47 1590,-555.47 1590,-536.47 1512,-536.47"/>
<text text-anchor="middle" x="1551" y="-543.47" font-family="Helvetica,sans-Serif" font-size="10.00">Token::getInfo</text>
</a>
</g>
</g>
<!-- Node19&#45;&gt;Node21 -->
<g id="edge48" class="edge">
<title>Node19&#45;&gt;Node21</title>
<path fill="none" stroke="midnightblue" d="M1440.06,-535C1460.67,-537.06 1482.71,-539.26 1501.61,-541.14"/>
<polygon fill="midnightblue" stroke="midnightblue" points="1501.46,-544.64 1511.76,-542.15 1502.16,-537.68 1501.46,-544.64"/>
</g>
<!-- Node19&#45;&gt;Node24 -->
<g id="edge54" class="edge">
<title>Node19&#45;&gt;Node24</title>
<path fill="none" stroke="midnightblue" d="M1380.32,-537.52C1395.62,-551.56 1423.52,-579.22 1440,-607.97 1465.38,-652.22 1438.72,-682.13 1476,-716.97 1477.53,-718.39 1479.14,-719.71 1480.84,-720.94"/>
<polygon fill="midnightblue" stroke="midnightblue" points="1479.47,-724.2 1489.85,-726.31 1483.05,-718.18 1479.47,-724.2"/>
</g>
<!-- Node19&#45;&gt;Node25 -->
<g id="edge61" class="edge">
<title>Node19&#45;&gt;Node25</title>
<path fill="none" stroke="midnightblue" d="M1379.4,-537.71C1393.8,-552.21 1420.89,-580.67 1440,-607.97 1459.16,-635.34 1450.28,-652.63 1476,-673.97 1480.98,-678.1 1486.69,-681.52 1492.68,-684.36"/>
<polygon fill="midnightblue" stroke="midnightblue" points="1491.68,-687.74 1502.25,-688.36 1494.37,-681.28 1491.68,-687.74"/>
</g>
<!-- Node20&#45;&gt;Node7 -->
<g id="edge44" class="edge">
<title>Node20&#45;&gt;Node7</title>
<path fill="none" stroke="midnightblue" d="M1760.06,-707.5C1767.84,-710.97 1775.38,-715.65 1781,-721.97 1820.31,-766.09 1800.62,-793.18 1817,-849.97 1841.45,-934.76 1871.59,-1035.62 1884.11,-1077.37"/>
<polygon fill="midnightblue" stroke="midnightblue" points="1880.81,-1078.52 1887.03,-1087.1 1887.51,-1076.51 1880.81,-1078.52"/>
</g>
<!-- Node20&#45;&gt;Node8 -->
<g id="edge45" class="edge">
<title>Node20&#45;&gt;Node8</title>
<path fill="none" stroke="midnightblue" d="M1752.21,-707.53C1761.81,-711.29 1772.23,-716.13 1781,-721.97 1820.11,-748 1856.84,-789.6 1876.06,-813.16"/>
<polygon fill="midnightblue" stroke="midnightblue" points="1873.56,-815.63 1882.54,-821.24 1879.02,-811.25 1873.56,-815.63"/>
</g>
<!-- Node21&#45;&gt;Node4 -->
<g id="edge50" class="edge">
<title>Node21&#45;&gt;Node4</title>
<path fill="none" stroke="midnightblue" d="M1590.02,-544.19C1635.73,-541.55 1714.58,-535.37 1781,-521.97 1805.76,-516.97 1832.96,-508.74 1853.99,-501.75"/>
<polygon fill="midnightblue" stroke="midnightblue" points="1855.13,-505.06 1863.48,-498.54 1852.89,-498.43 1855.13,-505.06"/>
</g>
<!-- Node22 -->
<g id="node22" class="node">
<title>Node22</title>
<g id="a_node22"><a xlink:href="../../db/dc1/class_token.html#a942fcc40ffdf54c98b7b641c792a26bc" target="_top" xlink:title="Возвращает константную ссылку на строковое представление токена">
<polygon fill="none" stroke="black" points="1684.5,-574.47 1684.5,-593.47 1758.5,-593.47 1758.5,-574.47 1684.5,-574.47"/>
<text text-anchor="middle" x="1721.5" y="-581.47" font-family="Helvetica,sans-Serif" font-size="10.00">Token::getStr</text>
</a>
</g>
</g>
<!-- Node21&#45;&gt;Node22 -->
<g id="edge49" class="edge">
<title>Node21&#45;&gt;Node22</title>
<path fill="none" stroke="midnightblue" d="M1590.24,-554.59C1615.29,-560.24 1648.18,-567.66 1674.64,-573.62"/>
<polygon fill="midnightblue" stroke="midnightblue" points="1673.91,-577.05 1684.43,-575.83 1675.45,-570.22 1673.91,-577.05"/>
</g>
<!-- Node23 -->
<g id="node23" class="node">
<title>Node23</title>
<g id="a_node23"><a xlink:href="../../db/dc1/class_token.html#af3b5fdf2261d637af820d4adb62e6109" target="_top" xlink:title=" ">
<polygon fill="none" stroke="black" points="1690,-612.47 1690,-631.47 1753,-631.47 1753,-612.47 1690,-612.47"/>
<text text-anchor="middle" x="1721.5" y="-619.47" font-family="Helvetica,sans-Serif" font-size="10.00">Token::line</text>
</a>
</g>
</g>
<!-- Node21&#45;&gt;Node23 -->
<g id="edge51" class="edge">
<title>Node21&#45;&gt;Node23</title>
<path fill="none" stroke="midnightblue" d="M1590.22,-554.95C1602.14,-558.64 1615.03,-563.57 1626,-569.97 1644.75,-580.9 1643.25,-592.03 1662,-602.97 1667.63,-606.25 1673.9,-609.05 1680.19,-611.4"/>
<polygon fill="midnightblue" stroke="midnightblue" points="1679.39,-614.83 1689.99,-614.75 1681.65,-608.21 1679.39,-614.83"/>
</g>
<!-- Node24&#45;&gt;Node2 -->
<g id="edge55" class="edge">
<title>Node24&#45;&gt;Node2</title>
<path fill="none" stroke="midnightblue" d="M1614.51,-726.46C1618.82,-723.94 1622.74,-720.81 1626,-716.97 1686.25,-645.82 1622.11,-383.23 1662,-298.97 1669.91,-282.25 1684.95,-267.77 1697.79,-257.59"/>
<polygon fill="midnightblue" stroke="midnightblue" points="1699.94,-260.35 1705.82,-251.54 1695.73,-254.76 1699.94,-260.35"/>
</g>
<!-- Node24&#45;&gt;Node6 -->
<g id="edge56" class="edge">
<title>Node24&#45;&gt;Node6</title>
<path fill="none" stroke="midnightblue" d="M1600.26,-745.56C1609.51,-749 1618.6,-753.66 1626,-759.97 1633.02,-765.95 1689.14,-880.46 1711.43,-926.26"/>
<polygon fill="midnightblue" stroke="midnightblue" points="1708.35,-927.94 1715.87,-935.4 1714.64,-924.88 1708.35,-927.94"/>
</g>
<!-- Node24&#45;&gt;Node7 -->
<g id="edge57" class="edge">
<title>Node24&#45;&gt;Node7</title>
<path fill="none" stroke="midnightblue" d="M1589.92,-745.49C1601.83,-749.21 1614.78,-754.02 1626,-759.97 1643.91,-769.46 1644.43,-777.86 1662,-787.97 1711.43,-816.41 1740.43,-795.89 1781,-835.97 1852.15,-906.25 1879.08,-1029.91 1887.12,-1077.52"/>
<polygon fill="midnightblue" stroke="midnightblue" points="1883.67,-1078.11 1888.7,-1087.44 1890.58,-1077.01 1883.67,-1078.11"/>
</g>
<!-- Node24&#45;&gt;Node15 -->
<g id="edge58" class="edge">
<title>Node24&#45;&gt;Node15</title>
<path fill="none" stroke="midnightblue" d="M1498.98,-726.4C1491.04,-723.92 1483.11,-720.82 1476,-716.97 1456.92,-706.62 1460.12,-692.12 1440,-683.97 1309.82,-631.22 1263.84,-665.8 1124,-678.97 1033.92,-687.45 1005.56,-677.79 924,-716.97 884.26,-736.05 847.32,-773.01 827.69,-794.78"/>
<polygon fill="midnightblue" stroke="midnightblue" points="825.04,-792.49 821.05,-802.3 830.29,-797.12 825.04,-792.49"/>
</g>
<!-- Node25&#45;&gt;Node2 -->
<g id="edge62" class="edge">
<title>Node25&#45;&gt;Node2</title>
<path fill="none" stroke="midnightblue" d="M1559.13,-688.22C1574.25,-667.02 1609.49,-614.61 1626,-564.97 1663.66,-451.76 1608.35,-405.52 1662,-298.97 1670.32,-282.45 1685.35,-267.96 1698.09,-257.73"/>
<polygon fill="midnightblue" stroke="midnightblue" points="1700.23,-260.5 1706.04,-251.64 1695.97,-254.94 1700.23,-260.5"/>
</g>
<!-- Node25&#45;&gt;Node6 -->
<g id="edge63" class="edge">
<title>Node25&#45;&gt;Node6</title>
<path fill="none" stroke="midnightblue" d="M1611.12,-707.61C1616.51,-710.07 1621.59,-713.14 1626,-716.97 1642.88,-731.61 1695.01,-873.81 1713.72,-925.94"/>
<polygon fill="midnightblue" stroke="midnightblue" points="1710.43,-927.12 1717.09,-935.36 1717.02,-924.76 1710.43,-927.12"/>
</g>
<!-- Node25&#45;&gt;Node7 -->
<g id="edge64" class="edge">
<title>Node25&#45;&gt;Node7</title>
<path fill="none" stroke="midnightblue" d="M1603.02,-707.53C1610.96,-710.01 1618.89,-713.11 1626,-716.97 1645.08,-727.31 1643.22,-739.08 1662,-749.97 1710.03,-777.82 1741.16,-749.3 1781,-787.97 1824.52,-830.2 1871.16,-1016.45 1885.53,-1077.51"/>
<polygon fill="midnightblue" stroke="midnightblue" points="1882.16,-1078.44 1887.83,-1087.39 1888.98,-1076.86 1882.16,-1078.44"/>
</g>
<!-- Node26&#45;&gt;Node2 -->
<g id="edge69" class="edge">
<title>Node26&#45;&gt;Node2</title>
<path fill="none" stroke="midnightblue" d="M888.05,-51.97C964.41,-51.97 1086.2,-51.97 1191.5,-51.97 1191.5,-51.97 1191.5,-51.97 1369.5,-51.97 1484,-51.97 1529.81,-13.86 1626,-75.97 1679.53,-110.52 1705.94,-186.71 1715.78,-222.57"/>
<polygon fill="midnightblue" stroke="midnightblue" points="1712.41,-223.52 1718.32,-232.32 1719.19,-221.76 1712.41,-223.52"/>
</g>
<!-- Node27&#45;&gt;Node2 -->
<g id="edge71" class="edge">
<title>Node27&#45;&gt;Node2</title>
<path fill="none" stroke="midnightblue" d="M638.55,-954.28C656.82,-941.55 686.82,-917.35 700,-887.97 730.05,-820.95 685.33,-281.12 736,-227.97 739.56,-224.23 1470.84,-152.23 1476,-151.97 1542.58,-148.56 1564.1,-127.21 1626,-151.97 1662.08,-166.4 1692.23,-201.88 1708.2,-223.74"/>
<polygon fill="midnightblue" stroke="midnightblue" points="1705.53,-226.02 1714.15,-232.17 1711.25,-221.98 1705.53,-226.02"/>
</g>
<!-- Node27&#45;&gt;Node6 -->
<g id="edge72" class="edge">
<title>Node27&#45;&gt;Node6</title>
<path fill="none" stroke="midnightblue" d="M688.03,-963.93C847.32,-963.67 1271.98,-961.8 1626,-949.97 1637.3,-949.59 1649.36,-949.05 1660.95,-948.47"/>
<polygon fill="midnightblue" stroke="midnightblue" points="1661.18,-951.96 1670.98,-947.95 1660.81,-944.97 1661.18,-951.96"/>
</g>
<!-- Node27&#45;&gt;Node7 -->
<g id="edge73" class="edge">
<title>Node27&#45;&gt;Node7</title>
<path fill="none" stroke="midnightblue" d="M686.04,-973.59C691.13,-976.07 695.89,-979.15 700,-982.97 737.41,-1017.65 701.12,-1054.73 736,-1091.97 797.62,-1157.74 837.98,-1141.08 924,-1167.97 1116.86,-1228.25 1165.44,-1267.97 1367.5,-1267.97 1367.5,-1267.97 1367.5,-1267.97 1552,-1267.97 1657.44,-1267.97 1689.75,-1258.81 1781,-1205.97 1822.07,-1182.18 1858.55,-1139.04 1877.09,-1114.78"/>
<polygon fill="midnightblue" stroke="midnightblue" points="1880.1,-1116.59 1883.28,-1106.48 1874.49,-1112.4 1880.1,-1116.59"/>
</g>
<!-- Node27&#45;&gt;Node11 -->
<g id="edge75" class="edge">
<title>Node27&#45;&gt;Node11</title>
<path fill="none" stroke="midnightblue" d="M585.44,-973.5C566.31,-976.57 542.11,-979.57 519.33,-981.78"/>
<polygon fill="midnightblue" stroke="midnightblue" points="518.97,-978.3 509.34,-982.71 519.62,-985.27 518.97,-978.3"/>
</g>
<!-- Node27&#45;&gt;Node15 -->
<g id="edge74" class="edge">
<title>Node27&#45;&gt;Node15</title>
<path fill="none" stroke="midnightblue" d="M635.23,-954.46C666.53,-929.08 752.32,-859.54 791.28,-827.95"/>
<polygon fill="midnightblue" stroke="midnightblue" points="793.71,-830.49 799.28,-821.47 789.3,-825.05 793.71,-830.49"/>
</g>
<!-- Node28&#45;&gt;Node2 -->
<g id="edge77" class="edge">
<title>Node28&#45;&gt;Node2</title>
<path fill="none" stroke="midnightblue" d="M625.33,-859.4C642.99,-770.36 791.05,-89.97 1191.5,-89.97 1191.5,-89.97 1191.5,-89.97 1369.5,-89.97 1484,-89.97 1526.3,-57.66 1626,-113.97 1670.13,-138.89 1699.54,-193.83 1712.67,-222.96"/>
<polygon fill="midnightblue" stroke="midnightblue" points="1709.58,-224.64 1716.76,-232.43 1716,-221.86 1709.58,-224.64"/>
</g>
<!-- Node28&#45;&gt;Node6 -->
<g id="edge78" class="edge">
<title>Node28&#45;&gt;Node6</title>
<path fill="none" stroke="midnightblue" d="M635.78,-859.4C655.9,-844.02 697.51,-813.45 736,-792.97 946.77,-680.77 1026.47,-634.15 1261,-678.97 1345.06,-695.03 1374.56,-694.81 1440,-749.97 1463.49,-769.76 1452.25,-789.48 1476,-808.97 1530.89,-854.01 1564.74,-828.07 1626,-863.97 1630.21,-866.43 1675.44,-905.67 1701.77,-928.62"/>
<polygon fill="midnightblue" stroke="midnightblue" points="1699.74,-931.49 1709.58,-935.43 1704.35,-926.22 1699.74,-931.49"/>
</g>
<!-- Node28&#45;&gt;Node7 -->
<g id="edge79" class="edge">
<title>Node28&#45;&gt;Node7</title>
<path fill="none" stroke="midnightblue" d="M654.52,-878.47C779.26,-916.05 1257.13,-1053.92 1662,-1087.97 1712.72,-1092.23 1769.97,-1094.48 1814.41,-1095.67"/>
<polygon fill="midnightblue" stroke="midnightblue" points="1814.46,-1099.17 1824.55,-1095.92 1814.64,-1092.17 1814.46,-1099.17"/>
</g>
<!-- Node28&#45;&gt;Node11 -->
<g id="edge81" class="edge">
<title>Node28&#45;&gt;Node11</title>
<path fill="none" stroke="midnightblue" d="M611.83,-878.61C586.65,-898.9 518.19,-944.41 478.02,-968.25"/>
<polygon fill="midnightblue" stroke="midnightblue" points="476.06,-965.34 469.19,-973.4 479.59,-971.39 476.06,-965.34"/>
</g>
<!-- Node28&#45;&gt;Node15 -->
<g id="edge80" class="edge">
<title>Node28&#45;&gt;Node15</title>
<path fill="none" stroke="midnightblue" d="M654.88,-859.43C686.39,-849.85 735.08,-835.05 769.7,-824.52"/>
<polygon fill="midnightblue" stroke="midnightblue" points="770.96,-827.79 779.51,-821.54 768.93,-821.1 770.96,-827.79"/>
</g>
</g>
</svg>
