<?xml version="1.0" encoding="UTF-8" standalone="no"?>
<!DOCTYPE svg PUBLIC "-//W3C//DTD SVG 1.1//EN"
 "http://www.w3.org/Graphics/SVG/1.1/DTD/svg11.dtd">
<!-- Generated by graphviz version 3.0.0 (20220413.0106)
 -->
<!-- Title: SyntaxAnalyzer::syntaxFuncDef Pages: 1 -->
<svg width="2892pt" height="2824pt"
 viewBox="0.00 0.00 2892.00 2823.75" xmlns="http://www.w3.org/2000/svg" xmlns:xlink="http://www.w3.org/1999/xlink">
<g id="graph0" class="graph" transform="scale(1 1) rotate(0) translate(4 2819.75)">
<title>SyntaxAnalyzer::syntaxFuncDef</title>
<!-- Node1 -->
<g id="node1" class="node">
<title>Node1</title>
<g id="a_node1"><a xlink:title=" ">
<polygon fill="#bfbfbf" stroke="black" points="0,-929.63 0,-948.63 152,-948.63 152,-929.63 0,-929.63"/>
<text text-anchor="middle" x="76" y="-936.63" font-family="Helvetica,sans-Serif" font-size="10.00">SyntaxAnalyzer::syntaxFuncDef</text>
</a>
</g>
</g>
<!-- Node2 -->
<g id="node2" class="node">
<title>Node2</title>
<g id="a_node2"><a xlink:href="../../d7/d7c/class_a_s_t_factory.html#a8d1d4c9d01ab2e366d1af6bbaeaf7bef" target="_top" xlink:title=" ">
<polygon fill="none" stroke="black" points="2581,-2068.63 2581,-2087.63 2700,-2087.63 2700,-2068.63 2581,-2068.63"/>
<text text-anchor="middle" x="2640.5" y="-2075.63" font-family="Helvetica,sans-Serif" font-size="10.00">ASTFactory::createAST</text>
</a>
</g>
</g>
<!-- Node1&#45;&gt;Node2 -->
<g id="edge1" class="edge">
<title>Node1&#45;&gt;Node2</title>
<path fill="none" stroke="midnightblue" d="M76.91,-948.78C76,-1062.47 70.48,-2148.23 188,-2443.13 255.76,-2613.17 265.46,-2762.13 448.5,-2762.13 448.5,-2762.13 448.5,-2762.13 1733,-2762.13 2110.87,-2762.13 2301.34,-2798.95 2545,-2510.13 2597.33,-2448.11 2563.86,-2410.45 2581,-2331.13 2599.88,-2243.76 2624.61,-2139.96 2634.8,-2097.59"/>
<polygon fill="midnightblue" stroke="midnightblue" points="2638.23,-2098.3 2637.17,-2087.76 2631.42,-2096.66 2638.23,-2098.3"/>
</g>
<!-- Node4 -->
<g id="node4" class="node">
<title>Node4</title>
<g id="a_node4"><a xlink:href="../../d0/d11/class_i_token.html#ac7f0a800d7a9e8608bab0360c76d735a" target="_top" xlink:title="Получение типа токена">
<polygon fill="none" stroke="black" points="2767,-1878.63 2767,-1897.63 2853,-1897.63 2853,-1878.63 2767,-1878.63"/>
<text text-anchor="middle" x="2810" y="-1885.63" font-family="Helvetica,sans-Serif" font-size="10.00">IToken::getType</text>
</a>
</g>
</g>
<!-- Node1&#45;&gt;Node4 -->
<g id="edge9" class="edge">
<title>Node1&#45;&gt;Node4</title>
<path fill="none" stroke="midnightblue" d="M77.22,-948.67C80.23,-1076.03 114.07,-2438.32 188,-2598.13 249.51,-2731.1 301.99,-2800.13 448.5,-2800.13 448.5,-2800.13 448.5,-2800.13 2095.5,-2800.13 2370.12,-2800.13 2521.09,-2880.48 2700,-2672.13 2745.82,-2618.77 2718.44,-2108.24 2736,-2040.13 2749.21,-1988.91 2780.14,-1934.27 2797.19,-1906.55"/>
<polygon fill="midnightblue" stroke="midnightblue" points="2800.26,-1908.26 2802.6,-1897.92 2794.32,-1904.54 2800.26,-1908.26"/>
</g>
<!-- Node6 -->
<g id="node6" class="node">
<title>Node6</title>
<g id="a_node6"><a xlink:href="../../d0/dfe/class_syntax_analyzer.html#ae1d3434e5cc4b4bcd5a3a245814a44f0" target="_top" xlink:title=" ">
<polygon fill="none" stroke="black" points="2590,-625.63 2590,-644.63 2691,-644.63 2691,-625.63 2590,-625.63"/>
<text text-anchor="middle" x="2640.5" y="-632.63" font-family="Helvetica,sans-Serif" font-size="10.00">SyntaxAnalyzer::eat</text>
</a>
</g>
</g>
<!-- Node1&#45;&gt;Node6 -->
<g id="edge5" class="edge">
<title>Node1&#45;&gt;Node6</title>
<path fill="none" stroke="midnightblue" d="M77.51,-929.55C82.4,-838.88 122.48,-133.38 188,-70.13 271.65,10.62 332.23,-46.13 448.5,-46.13 448.5,-46.13 448.5,-46.13 1158,-46.13 1413.23,-46.13 1475.77,-84.13 1731,-84.13 1731,-84.13 1731,-84.13 2095.5,-84.13 2297.36,-84.13 2398.85,-9.9 2545,-149.13 2614.1,-214.96 2634.42,-532.25 2638.6,-615.24"/>
<polygon fill="midnightblue" stroke="midnightblue" points="2635.11,-615.52 2639.09,-625.34 2642.1,-615.18 2635.11,-615.52"/>
</g>
<!-- Node7 -->
<g id="node7" class="node">
<title>Node7</title>
<g id="a_node7"><a xlink:href="../../d0/dfe/class_syntax_analyzer.html#a3ae6c7319e61cd669c417f189b098374" target="_top" xlink:title=" ">
<polygon fill="none" stroke="black" points="2744,-1309.63 2744,-1328.63 2876,-1328.63 2876,-1309.63 2744,-1309.63"/>
<text text-anchor="middle" x="2810" y="-1316.63" font-family="Helvetica,sans-Serif" font-size="10.00">SyntaxAnalyzer::getCurTok</text>
</a>
</g>
</g>
<!-- Node1&#45;&gt;Node7 -->
<g id="edge8" class="edge">
<title>Node1&#45;&gt;Node7</title>
<path fill="none" stroke="midnightblue" d="M77.27,-929.34C79.14,-874.13 93.08,-597.22 188,-399.13 266.51,-235.3 266.83,-84.13 448.5,-84.13 448.5,-84.13 448.5,-84.13 979.5,-84.13 1229.57,-84.13 1286.93,-8.13 1537,-8.13 1537,-8.13 1537,-8.13 2467,-8.13 2572.47,-8.13 2631.29,26.89 2700,-53.13 2733.47,-92.11 2729.61,-926.16 2736,-977.13 2751.57,-1101.45 2789.47,-1247.57 2803.59,-1299.56"/>
<polygon fill="midnightblue" stroke="midnightblue" points="2800.27,-1300.72 2806.29,-1309.44 2807.03,-1298.87 2800.27,-1300.72"/>
</g>
<!-- Node9 -->
<g id="node9" class="node">
<title>Node9</title>
<g id="a_node9"><a xlink:href="../../d0/d11/class_i_token.html#a4fa3435db7157ca7316d4e4aee1df4c0" target="_top" xlink:title="Устанавливает дополнительный тип токена">
<polygon fill="none" stroke="black" points="2589,-1024.63 2589,-1043.63 2692,-1043.63 2692,-1024.63 2589,-1024.63"/>
<text text-anchor="middle" x="2640.5" y="-1031.63" font-family="Helvetica,sans-Serif" font-size="10.00">IToken::setAdvType</text>
</a>
</g>
</g>
<!-- Node1&#45;&gt;Node9 -->
<g id="edge10" class="edge">
<title>Node1&#45;&gt;Node9</title>
<path fill="none" stroke="midnightblue" d="M78.54,-929.47C88.99,-867.36 155.46,-522.26 364,-374.13 678.17,-150.97 847.49,-284.35 1230,-331.13 1754.93,-395.32 1873.05,-503.77 2351,-730.13 2437.24,-770.98 2478.32,-753.87 2545,-822.13 2600.34,-878.78 2626.4,-973.39 2635.53,-1014.29"/>
<polygon fill="midnightblue" stroke="midnightblue" points="2632.16,-1015.28 2637.66,-1024.33 2639.01,-1013.82 2632.16,-1015.28"/>
</g>
<!-- Node10 -->
<g id="node10" class="node">
<title>Node10</title>
<g id="a_node10"><a xlink:href="../../d0/dfe/class_syntax_analyzer.html#a2b54bac50e114b68e83c80d869b6ac7c" target="_top" xlink:title=" ">
<polygon fill="none" stroke="black" points="188,-872.63 188,-891.63 328,-891.63 328,-872.63 188,-872.63"/>
<text text-anchor="middle" x="258" y="-879.63" font-family="Helvetica,sans-Serif" font-size="10.00">SyntaxAnalyzer::syntaxBlock</text>
</a>
</g>
</g>
<!-- Node1&#45;&gt;Node10 -->
<g id="edge11" class="edge">
<title>Node1&#45;&gt;Node10</title>
<path fill="none" stroke="midnightblue" d="M107.13,-929.59C137.24,-920.06 183.72,-905.34 216.93,-894.82"/>
<polygon fill="midnightblue" stroke="midnightblue" points="218.3,-898.06 226.77,-891.7 216.18,-891.39 218.3,-898.06"/>
</g>
<!-- Node35 -->
<g id="node35" class="node">
<title>Node35</title>
<g id="a_node35"><a xlink:href="../../d0/dfe/class_syntax_analyzer.html#a8f6dda26a96ec0e5e75bea5eed577856" target="_top" xlink:title=" ">
<polygon fill="none" stroke="black" points="2202,-1100.63 2202,-1119.63 2351,-1119.63 2351,-1100.63 2202,-1100.63"/>
<text text-anchor="middle" x="2276.5" y="-1107.63" font-family="Helvetica,sans-Serif" font-size="10.00">SyntaxAnalyzer::syntaxVarDecl</text>
</a>
</g>
</g>
<!-- Node1&#45;&gt;Node35 -->
<g id="edge140" class="edge">
<title>Node1&#45;&gt;Node35</title>
<path fill="none" stroke="midnightblue" d="M114.15,-948.67C180.7,-964.9 324.85,-996.13 448.5,-996.13 448.5,-996.13 448.5,-996.13 1919.5,-996.13 2048.64,-996.13 2192.11,-1065.01 2249.61,-1095.69"/>
<polygon fill="midnightblue" stroke="midnightblue" points="2248.25,-1098.93 2258.71,-1100.61 2251.58,-1092.77 2248.25,-1098.93"/>
</g>
<!-- Node36 -->
<g id="node36" class="node">
<title>Node36</title>
<g id="a_node36"><a xlink:href="../../d0/dfe/class_syntax_analyzer.html#a5d262eb9e2236dde3bd043eea0b0e957" target="_top" xlink:title=" ">
<polygon fill="none" stroke="black" points="2387,-1480.63 2387,-1499.63 2545,-1499.63 2545,-1480.63 2387,-1480.63"/>
<text text-anchor="middle" x="2466" y="-1487.63" font-family="Helvetica,sans-Serif" font-size="10.00">SyntaxAnalyzer::syntaxTypeSpec</text>
</a>
</g>
</g>
<!-- Node1&#45;&gt;Node36 -->
<g id="edge139" class="edge">
<title>Node1&#45;&gt;Node36</title>
<path fill="none" stroke="midnightblue" d="M76.94,-948.74C76.28,-1086.04 76.93,-2648.13 448.5,-2648.13 448.5,-2648.13 448.5,-2648.13 1347,-2648.13 1593.82,-2648.13 2220.51,-2382.64 2351,-2173.13 2423.14,-2057.31 2456.98,-1609.82 2463.72,-1509.97"/>
<polygon fill="midnightblue" stroke="midnightblue" points="2467.23,-1509.99 2464.39,-1499.78 2460.24,-1509.53 2467.23,-1509.99"/>
</g>
<!-- Node3 -->
<g id="node3" class="node">
<title>Node3</title>
<g id="a_node3"><a xlink:href="../../d0/d11/class_i_token.html#a3e73305ee0ac36d0bf5f26b649589b24" target="_top" xlink:title=" ">
<polygon fill="none" stroke="black" points="2758.5,-2049.63 2758.5,-2068.63 2861.5,-2068.63 2861.5,-2049.63 2758.5,-2049.63"/>
<text text-anchor="middle" x="2810" y="-2056.63" font-family="Helvetica,sans-Serif" font-size="10.00">IToken::getAdvType</text>
</a>
</g>
</g>
<!-- Node2&#45;&gt;Node3 -->
<g id="edge2" class="edge">
<title>Node2&#45;&gt;Node3</title>
<path fill="none" stroke="midnightblue" d="M2700.08,-2071.49C2715.64,-2069.72 2732.47,-2067.81 2748.14,-2066.03"/>
<polygon fill="midnightblue" stroke="midnightblue" points="2748.71,-2069.49 2758.25,-2064.89 2747.92,-2062.54 2748.71,-2069.49"/>
</g>
<!-- Node2&#45;&gt;Node4 -->
<g id="edge3" class="edge">
<title>Node2&#45;&gt;Node4</title>
<path fill="none" stroke="midnightblue" d="M2650.04,-2068.45C2676.69,-2038.22 2758.63,-1945.27 2793.28,-1905.97"/>
<polygon fill="midnightblue" stroke="midnightblue" points="2796.29,-1907.84 2800.28,-1898.02 2791.04,-1903.21 2796.29,-1907.84"/>
</g>
<!-- Node5 -->
<g id="node5" class="node">
<title>Node5</title>
<g id="a_node5"><a xlink:href="../../db/dc1/class_token.html#a1f07fa2fffeb2f7ab803ef8b424eae8a" target="_top" xlink:title=" ">
<polygon fill="none" stroke="black" points="2773,-2087.63 2773,-2106.63 2847,-2106.63 2847,-2087.63 2773,-2087.63"/>
<text text-anchor="middle" x="2810" y="-2094.63" font-family="Helvetica,sans-Serif" font-size="10.00">Token::setStr</text>
</a>
</g>
</g>
<!-- Node2&#45;&gt;Node5 -->
<g id="edge4" class="edge">
<title>Node2&#45;&gt;Node5</title>
<path fill="none" stroke="midnightblue" d="M2700.08,-2084.78C2720.56,-2087.1 2743.24,-2089.67 2762.58,-2091.87"/>
<polygon fill="midnightblue" stroke="midnightblue" points="2762.32,-2095.36 2772.65,-2093.01 2763.11,-2088.4 2762.32,-2095.36"/>
</g>
<!-- Node6&#45;&gt;Node7 -->
<g id="edge6" class="edge">
<title>Node6&#45;&gt;Node7</title>
<path fill="none" stroke="midnightblue" d="M2643.87,-644.8C2662.01,-718.9 2779.01,-1196.66 2804.22,-1299.6"/>
<polygon fill="midnightblue" stroke="midnightblue" points="2800.82,-1300.45 2806.6,-1309.33 2807.62,-1298.78 2800.82,-1300.45"/>
</g>
<!-- Node8 -->
<g id="node8" class="node">
<title>Node8</title>
<g id="a_node8"><a xlink:href="../../d0/dfe/class_syntax_analyzer.html#a9e41370d8d74fbd2e77648d2071e7dfe" target="_top" xlink:title=" ">
<polygon fill="none" stroke="black" points="2736,-948.63 2736,-967.63 2884,-967.63 2884,-948.63 2736,-948.63"/>
<text text-anchor="middle" x="2810" y="-955.63" font-family="Helvetica,sans-Serif" font-size="10.00">SyntaxAnalyzer::getNextToken</text>
</a>
</g>
</g>
<!-- Node6&#45;&gt;Node8 -->
<g id="edge7" class="edge">
<title>Node6&#45;&gt;Node8</title>
<path fill="none" stroke="midnightblue" d="M2646.51,-644.8C2669.82,-689.75 2767.81,-878.69 2799.25,-939.32"/>
<polygon fill="midnightblue" stroke="midnightblue" points="2796.3,-941.24 2804.01,-948.5 2802.51,-938.01 2796.3,-941.24"/>
</g>
<!-- Node10&#45;&gt;Node2 -->
<g id="edge12" class="edge">
<title>Node10&#45;&gt;Node2</title>
<path fill="none" stroke="midnightblue" d="M258.84,-892.04C256.7,-1037.03 240.44,-2724.13 640.5,-2724.13 640.5,-2724.13 640.5,-2724.13 1733,-2724.13 2020.35,-2724.13 2079.58,-2628.49 2351,-2534.13 2367.22,-2528.49 2370.78,-2525.74 2387,-2520.13 2456.36,-2496.15 2494.67,-2525.55 2545,-2472.13 2548.33,-2468.59 2616.41,-2177.2 2634.9,-2097.88"/>
<polygon fill="midnightblue" stroke="midnightblue" points="2638.4,-2098.31 2637.26,-2087.77 2631.58,-2096.72 2638.4,-2098.31"/>
</g>
<!-- Node11 -->
<g id="node11" class="node">
<title>Node11</title>
<g id="a_node11"><a xlink:href="../../d0/dfe/class_syntax_analyzer.html#a5770afdc4d32d2c38550f27f9ffd949a" target="_top" xlink:title=" ">
<polygon fill="none" stroke="black" points="364,-606.63 364,-625.63 535,-625.63 535,-606.63 364,-606.63"/>
<text text-anchor="middle" x="449.5" y="-613.63" font-family="Helvetica,sans-Serif" font-size="10.00">SyntaxAnalyzer::syntaxCompoundSt</text>
</a>
</g>
</g>
<!-- Node10&#45;&gt;Node11 -->
<g id="edge13" class="edge">
<title>Node10&#45;&gt;Node11</title>
<path fill="none" stroke="midnightblue" d="M265.97,-872.35C294.06,-832.91 399.24,-685.27 435.85,-633.89"/>
<polygon fill="midnightblue" stroke="midnightblue" points="438.72,-635.9 441.67,-625.72 433.01,-631.84 438.72,-635.9"/>
</g>
<!-- Node32 -->
<g id="node32" class="node">
<title>Node32</title>
<g id="a_node32"><a xlink:href="../../d0/dfe/class_syntax_analyzer.html#a58a0f927ad0a45e4ce837a98e98330aa" target="_top" xlink:title=" ">
<polygon fill="none" stroke="black" points="1084,-340.63 1084,-359.63 1230,-359.63 1230,-340.63 1084,-340.63"/>
<text text-anchor="middle" x="1157" y="-347.63" font-family="Helvetica,sans-Serif" font-size="10.00">SyntaxAnalyzer::syntaxConsts</text>
</a>
</g>
</g>
<!-- Node10&#45;&gt;Node32 -->
<g id="edge115" class="edge">
<title>Node10&#45;&gt;Node32</title>
<path fill="none" stroke="midnightblue" d="M260.8,-872.44C274.79,-800.34 372.84,-350.13 640.5,-350.13 640.5,-350.13 640.5,-350.13 811.5,-350.13 901.14,-350.13 1003.9,-350.13 1073.7,-350.13"/>
<polygon fill="midnightblue" stroke="midnightblue" points="1073.75,-353.63 1083.75,-350.13 1073.75,-346.63 1073.75,-353.63"/>
</g>
<!-- Node34 -->
<g id="node34" class="node">
<title>Node34</title>
<g id="a_node34"><a xlink:href="../../d0/dfe/class_syntax_analyzer.html#a738f9b4cb7edf93c56af1b6974caad1a" target="_top" xlink:title=" ">
<polygon fill="none" stroke="black" points="2027,-948.63 2027,-967.63 2162,-967.63 2162,-948.63 2027,-948.63"/>
<text text-anchor="middle" x="2094.5" y="-955.63" font-family="Helvetica,sans-Serif" font-size="10.00">SyntaxAnalyzer::syntaxVars</text>
</a>
</g>
</g>
<!-- Node10&#45;&gt;Node34 -->
<g id="edge124" class="edge">
<title>Node10&#45;&gt;Node34</title>
<path fill="none" stroke="midnightblue" d="M328.27,-882.13C404.71,-882.13 531.38,-882.13 640.5,-882.13 640.5,-882.13 640.5,-882.13 979.5,-882.13 1370.04,-882.13 1835.82,-929.2 2016.54,-949.25"/>
<polygon fill="midnightblue" stroke="midnightblue" points="2016.42,-952.76 2026.74,-950.39 2017.19,-945.8 2016.42,-952.76"/>
</g>
<!-- Node11&#45;&gt;Node2 -->
<g id="edge14" class="edge">
<title>Node11&#45;&gt;Node2</title>
<path fill="none" stroke="midnightblue" d="M451.7,-626.01C467.54,-755.1 639.56,-2110.65 909,-2389.13 1132.51,-2620.15 2047.03,-2607.66 2351,-2503.13 2368.52,-2497.11 2370.02,-2489.54 2387,-2482.13 2454.26,-2452.78 2496.54,-2489.25 2545,-2434.13 2608.69,-2361.7 2554.46,-2312.86 2581,-2220.13 2594.07,-2174.44 2617.3,-2123.54 2630.2,-2096.83"/>
<polygon fill="midnightblue" stroke="midnightblue" points="2633.35,-2098.36 2634.6,-2087.84 2627.06,-2095.29 2633.35,-2098.36"/>
</g>
<!-- Node11&#45;&gt;Node6 -->
<g id="edge15" class="edge">
<title>Node11&#45;&gt;Node6</title>
<path fill="none" stroke="midnightblue" d="M450.94,-606.47C453.5,-562.95 470.03,-383.54 571,-298.13 837.77,-72.46 995.58,-160.13 1345,-160.13 1345,-160.13 1345,-160.13 2277.5,-160.13 2337.03,-160.13 2499.88,-135.31 2545,-174.13 2579.49,-203.8 2625.51,-530.9 2636.88,-615.33"/>
<polygon fill="midnightblue" stroke="midnightblue" points="2633.43,-615.94 2638.22,-625.39 2640.37,-615.01 2633.43,-615.94"/>
</g>
<!-- Node11&#45;&gt;Node7 -->
<g id="edge16" class="edge">
<title>Node11&#45;&gt;Node7</title>
<path fill="none" stroke="midnightblue" d="M456.06,-606.33C471.35,-580.15 516.49,-507.59 571,-464.13 838.67,-250.73 940.44,-237.95 1266,-132.13 1465.88,-67.16 1520.83,-46.13 1731,-46.13 1731,-46.13 1731,-46.13 2467,-46.13 2580.4,-46.13 2636.23,-56.36 2700,-150.13 2751.72,-226.19 2724.36,-885.89 2736,-977.13 2751.86,-1101.41 2789.58,-1247.55 2803.62,-1299.56"/>
<polygon fill="midnightblue" stroke="midnightblue" points="2800.3,-1300.71 2806.31,-1309.44 2807.06,-1298.87 2800.3,-1300.71"/>
</g>
<!-- Node11&#45;&gt;Node9 -->
<g id="edge17" class="edge">
<title>Node11&#45;&gt;Node9</title>
<path fill="none" stroke="midnightblue" d="M535,-616.13C607.75,-616.13 715.54,-616.13 809.5,-616.13 809.5,-616.13 809.5,-616.13 1919.5,-616.13 1996.63,-616.13 2484.54,-869.24 2545,-917.13 2581.3,-945.88 2612.66,-990.95 2628.5,-1015.93"/>
<polygon fill="midnightblue" stroke="midnightblue" points="2625.54,-1017.79 2633.79,-1024.44 2631.48,-1014.1 2625.54,-1017.79"/>
</g>
<!-- Node12 -->
<g id="node12" class="node">
<title>Node12</title>
<g id="a_node12"><a xlink:href="../../d0/dfe/class_syntax_analyzer.html#a6df61a82ef9de3c17b78be89a321a087" target="_top" xlink:title=" ">
<polygon fill="none" stroke="black" points="571,-473.63 571,-492.63 712,-492.63 712,-473.63 571,-473.63"/>
<text text-anchor="middle" x="641.5" y="-480.63" font-family="Helvetica,sans-Serif" font-size="10.00">SyntaxAnalyzer::syntaxStList</text>
</a>
</g>
</g>
<!-- Node11&#45;&gt;Node12 -->
<g id="edge18" class="edge">
<title>Node11&#45;&gt;Node12</title>
<path fill="none" stroke="midnightblue" d="M464.16,-606.57C496.68,-583.81 578.87,-526.27 618.49,-498.54"/>
<polygon fill="midnightblue" stroke="midnightblue" points="620.52,-501.39 626.7,-492.79 616.5,-495.66 620.52,-501.39"/>
</g>
<!-- Node12&#45;&gt;Node6 -->
<g id="edge19" class="edge">
<title>Node12&#45;&gt;Node6</title>
<path fill="none" stroke="midnightblue" d="M649.18,-473.33C664.23,-451.99 703.05,-401.08 748,-374.13 1056.16,-189.41 1177.71,-198.13 1537,-198.13 1537,-198.13 1537,-198.13 2277.5,-198.13 2396.6,-198.13 2454.28,-136.96 2545,-214.13 2607.68,-267.45 2632.38,-539.37 2638.12,-615.37"/>
<polygon fill="midnightblue" stroke="midnightblue" points="2634.64,-615.76 2638.86,-625.47 2641.62,-615.25 2634.64,-615.76"/>
</g>
<!-- Node12&#45;&gt;Node7 -->
<g id="edge20" class="edge">
<title>Node12&#45;&gt;Node7</title>
<path fill="none" stroke="midnightblue" d="M684.86,-473.62C763.21,-456.41 936.26,-420.23 1084,-402.13 1452.41,-357.01 1546.34,-350.13 1917.5,-350.13 1917.5,-350.13 1917.5,-350.13 2095.5,-350.13 2375.95,-350.13 2580.25,-277.53 2700,-531.13 2742.46,-621.04 2721.59,-878.75 2736,-977.13 2754.15,-1101.09 2790.47,-1247.43 2803.88,-1299.52"/>
<polygon fill="midnightblue" stroke="midnightblue" points="2800.55,-1300.62 2806.44,-1309.42 2807.32,-1298.86 2800.55,-1300.62"/>
</g>
<!-- Node13 -->
<g id="node13" class="node">
<title>Node13</title>
<g id="a_node13"><a xlink:href="../../d0/dfe/class_syntax_analyzer.html#a7f54bde730006b1b863290415809ab4e" target="_top" xlink:title=" ">
<polygon fill="none" stroke="black" points="748,-1378.63 748,-1397.63 873,-1397.63 873,-1378.63 748,-1378.63"/>
<text text-anchor="middle" x="810.5" y="-1385.63" font-family="Helvetica,sans-Serif" font-size="10.00">SyntaxAnalyzer::syntaxSt</text>
</a>
</g>
</g>
<!-- Node12&#45;&gt;Node13 -->
<g id="edge21" class="edge">
<title>Node12&#45;&gt;Node13</title>
<path fill="none" stroke="midnightblue" d="M644.26,-492.68C660.45,-580.43 783.27,-1245.97 805.92,-1368.7"/>
<polygon fill="midnightblue" stroke="midnightblue" points="802.48,-1369.38 807.74,-1378.58 809.36,-1368.11 802.48,-1369.38"/>
</g>
<!-- Node13&#45;&gt;Node6 -->
<g id="edge22" class="edge">
<title>Node13&#45;&gt;Node6</title>
<path fill="none" stroke="midnightblue" d="M814.32,-1378.62C842.67,-1283.77 1078.83,-508.74 1266,-371.13 1306.67,-341.23 1631.66,-274.13 1917.5,-274.13 1917.5,-274.13 1917.5,-274.13 2277.5,-274.13 2396.91,-274.13 2453.28,-222.67 2545,-299.13 2595.06,-340.86 2627.71,-549.65 2636.87,-615.32"/>
<polygon fill="midnightblue" stroke="midnightblue" points="2633.44,-616.1 2638.26,-625.54 2640.38,-615.16 2633.44,-616.1"/>
</g>
<!-- Node13&#45;&gt;Node7 -->
<g id="edge23" class="edge">
<title>Node13&#45;&gt;Node7</title>
<path fill="none" stroke="midnightblue" d="M811.91,-1397.72C816.18,-1494.92 853.07,-2300.29 909,-2389.13 1007.8,-2546.07 1089.99,-2546.73 1266,-2605.13 1645.71,-2731.12 1768.45,-2666.95 2166,-2622.13 2433.74,-2591.95 2593.77,-2582.74 2700,-2335.13 2740.95,-2239.68 2725.16,-1972.43 2736,-1869.13 2757.8,-1661.32 2795.07,-1410.78 2805.94,-1339.14"/>
<polygon fill="midnightblue" stroke="midnightblue" points="2809.46,-1339.29 2807.5,-1328.87 2802.54,-1338.23 2809.46,-1339.29"/>
</g>
<!-- Node13&#45;&gt;Node11 -->
<g id="edge82" class="edge">
<title>Node13&#45;&gt;Node11</title>
<path fill="none" stroke="midnightblue" d="M809,-1378.56C806.12,-1329.88 789.05,-1105.86 712,-944.13 647.15,-808.02 516.17,-677.55 468.43,-632.61"/>
<polygon fill="midnightblue" stroke="midnightblue" points="470.71,-629.95 461.01,-625.68 465.93,-635.06 470.71,-629.95"/>
</g>
<!-- Node14 -->
<g id="node14" class="node">
<title>Node14</title>
<g id="a_node14"><a xlink:href="../../d0/dfe/class_syntax_analyzer.html#af0905389742c4f842207bb2c073afbfa" target="_top" xlink:title=" ">
<polygon fill="none" stroke="black" points="2208,-2144.63 2208,-2163.63 2345,-2163.63 2345,-2144.63 2208,-2144.63"/>
<text text-anchor="middle" x="2276.5" y="-2151.63" font-family="Helvetica,sans-Serif" font-size="10.00">SyntaxAnalyzer::lookFoward</text>
</a>
</g>
</g>
<!-- Node13&#45;&gt;Node14 -->
<g id="edge24" class="edge">
<title>Node13&#45;&gt;Node14</title>
<path fill="none" stroke="midnightblue" d="M815.71,-1397.83C849.6,-1474.53 1086.38,-1984.6 1462,-2159.13 1731.72,-2284.46 2108.15,-2200.22 2233.23,-2166.38"/>
<polygon fill="midnightblue" stroke="midnightblue" points="2234.46,-2169.68 2243.18,-2163.65 2232.61,-2162.92 2234.46,-2169.68"/>
</g>
<!-- Node16 -->
<g id="node16" class="node">
<title>Node16</title>
<g id="a_node16"><a xlink:href="../../d0/dfe/class_syntax_analyzer.html#a31fc5887c158652feb946f89270b4b36" target="_top" xlink:title=" ">
<polygon fill="none" stroke="black" points="1268.5,-1425.63 1268.5,-1444.63 1423.5,-1444.63 1423.5,-1425.63 1268.5,-1425.63"/>
<text text-anchor="middle" x="1346" y="-1432.63" font-family="Helvetica,sans-Serif" font-size="10.00">SyntaxAnalyzer::syntaxAssignSt</text>
</a>
</g>
</g>
<!-- Node13&#45;&gt;Node16 -->
<g id="edge26" class="edge">
<title>Node13&#45;&gt;Node16</title>
<path fill="none" stroke="midnightblue" d="M845.51,-1397.71C864.11,-1402.56 887.66,-1408.05 909,-1411.13 1029.17,-1428.47 1169.63,-1433.51 1257.96,-1434.85"/>
<polygon fill="midnightblue" stroke="midnightblue" points="1258.15,-1438.35 1268.2,-1434.99 1258.25,-1431.35 1258.15,-1438.35"/>
</g>
<!-- Node23 -->
<g id="node23" class="node">
<title>Node23</title>
<g id="a_node23"><a xlink:href="../../d0/dfe/class_syntax_analyzer.html#a2db43946bee3e973ce1cf293b262e271" target="_top" xlink:title=" ">
<polygon fill="none" stroke="black" points="2395.5,-1024.63 2395.5,-1043.63 2536.5,-1043.63 2536.5,-1024.63 2395.5,-1024.63"/>
<text text-anchor="middle" x="2466" y="-1031.63" font-family="Helvetica,sans-Serif" font-size="10.00">SyntaxAnalyzer::syntaxCallSt</text>
</a>
</g>
</g>
<!-- Node13&#45;&gt;Node23 -->
<g id="edge81" class="edge">
<title>Node13&#45;&gt;Node23</title>
<path fill="none" stroke="midnightblue" d="M815.87,-1378.51C827.9,-1352.74 863.68,-1280.84 909,-1233.13 1042.59,-1092.51 1084.18,-1049.68 1266,-982.13 1641.39,-842.67 1770.27,-877.78 2166,-939.13 2266.83,-954.76 2380.21,-998.39 2433.77,-1020.67"/>
<polygon fill="midnightblue" stroke="midnightblue" points="2432.49,-1023.93 2443.06,-1024.57 2435.2,-1017.47 2432.49,-1023.93"/>
</g>
<!-- Node26 -->
<g id="node26" class="node">
<title>Node26</title>
<g id="a_node26"><a xlink:href="../../d0/dfe/class_syntax_analyzer.html#a67bc7e3cfb57c9d4d25d60913aef3a87" target="_top" xlink:title=" ">
<polygon fill="none" stroke="black" points="1462,-2486.63 1462,-2505.63 1614,-2505.63 1614,-2486.63 1462,-2486.63"/>
<text text-anchor="middle" x="1538" y="-2493.63" font-family="Helvetica,sans-Serif" font-size="10.00">SyntaxAnalyzer::syntaxEmptySt</text>
</a>
</g>
</g>
<!-- Node13&#45;&gt;Node26 -->
<g id="edge83" class="edge">
<title>Node13&#45;&gt;Node26</title>
<path fill="none" stroke="midnightblue" d="M812.5,-1397.91C822.5,-1495.22 903.86,-2286.38 909,-2297.13 956.46,-2396.36 983.53,-2427.36 1084,-2472.13 1211.06,-2528.75 1378.44,-2518.66 1470.01,-2506.97"/>
<polygon fill="midnightblue" stroke="midnightblue" points="1470.53,-2510.43 1479.98,-2505.65 1469.61,-2503.49 1470.53,-2510.43"/>
</g>
<!-- Node27 -->
<g id="node27" class="node">
<title>Node27</title>
<g id="a_node27"><a xlink:href="../../d0/dfe/class_syntax_analyzer.html#a82e8472ea6d1064871de0d05eaa8b374" target="_top" xlink:title=" ">
<polygon fill="none" stroke="black" points="909,-2268.63 909,-2287.63 1048,-2287.63 1048,-2268.63 909,-2268.63"/>
<text text-anchor="middle" x="978.5" y="-2275.63" font-family="Helvetica,sans-Serif" font-size="10.00">SyntaxAnalyzer::syntaxForSt</text>
</a>
</g>
</g>
<!-- Node13&#45;&gt;Node27 -->
<g id="edge85" class="edge">
<title>Node13&#45;&gt;Node27</title>
<path fill="none" stroke="midnightblue" d="M811.73,-1397.76C813.35,-1462.28 825.64,-1833.48 909,-2121.13 924.09,-2173.19 954.91,-2230.15 969.5,-2259.33"/>
<polygon fill="midnightblue" stroke="midnightblue" points="966.41,-2260.98 973.94,-2268.44 972.71,-2257.92 966.41,-2260.98"/>
</g>
<!-- Node29 -->
<g id="node29" class="node">
<title>Node29</title>
<g id="a_node29"><a xlink:href="../../d0/dfe/class_syntax_analyzer.html#a779e006875d35926152773989f4b1e5a" target="_top" xlink:title=" ">
<polygon fill="none" stroke="black" points="1280.5,-1033.63 1280.5,-1052.63 1411.5,-1052.63 1411.5,-1033.63 1280.5,-1033.63"/>
<text text-anchor="middle" x="1346" y="-1040.63" font-family="Helvetica,sans-Serif" font-size="10.00">SyntaxAnalyzer::syntaxIfSt</text>
</a>
</g>
</g>
<!-- Node13&#45;&gt;Node29 -->
<g id="edge98" class="edge">
<title>Node13&#45;&gt;Node29</title>
<path fill="none" stroke="midnightblue" d="M822.89,-1378.62C888.5,-1330.43 1218.74,-1116.52 1317.23,-1057.87"/>
<polygon fill="midnightblue" stroke="midnightblue" points="1319.19,-1060.78 1326.02,-1052.69 1315.63,-1054.75 1319.19,-1060.78"/>
</g>
<!-- Node30 -->
<g id="node30" class="node">
<title>Node30</title>
<g id="a_node30"><a xlink:href="../../d0/dfe/class_syntax_analyzer.html#a55e935b2aa7f20b66e9228e977582fcd" target="_top" xlink:title=" ">
<polygon fill="none" stroke="black" points="1269.5,-1463.63 1269.5,-1482.63 1422.5,-1482.63 1422.5,-1463.63 1269.5,-1463.63"/>
<text text-anchor="middle" x="1346" y="-1470.63" font-family="Helvetica,sans-Serif" font-size="10.00">SyntaxAnalyzer::syntaxReturnSt</text>
</a>
</g>
</g>
<!-- Node13&#45;&gt;Node30 -->
<g id="edge104" class="edge">
<title>Node13&#45;&gt;Node30</title>
<path fill="none" stroke="midnightblue" d="M828.13,-1397.7C847.05,-1408.08 879.2,-1424.24 909,-1432.13 1027.71,-1463.56 1170.2,-1471.65 1259.19,-1473.34"/>
<polygon fill="midnightblue" stroke="midnightblue" points="1259.18,-1476.84 1269.24,-1473.51 1259.3,-1469.84 1259.18,-1476.84"/>
</g>
<!-- Node31 -->
<g id="node31" class="node">
<title>Node31</title>
<g id="a_node31"><a xlink:href="../../d0/dfe/class_syntax_analyzer.html#a64dad7f0b22b08d182483469d3a1aa79" target="_top" xlink:title=" ">
<polygon fill="none" stroke="black" points="1271.5,-1378.63 1271.5,-1397.63 1420.5,-1397.63 1420.5,-1378.63 1271.5,-1378.63"/>
<text text-anchor="middle" x="1346" y="-1385.63" font-family="Helvetica,sans-Serif" font-size="10.00">SyntaxAnalyzer::syntaxWhileSt</text>
</a>
</g>
</g>
<!-- Node13&#45;&gt;Node31 -->
<g id="edge109" class="edge">
<title>Node13&#45;&gt;Node31</title>
<path fill="none" stroke="midnightblue" d="M873.22,-1383.62C969.01,-1380.83 1153.62,-1380.65 1261.32,-1383.06"/>
<polygon fill="midnightblue" stroke="midnightblue" points="1261.42,-1386.56 1271.5,-1383.3 1261.58,-1379.57 1261.42,-1386.56"/>
</g>
<!-- Node15 -->
<g id="node15" class="node">
<title>Node15</title>
<g id="a_node15"><a xlink:href="../../d1/d34/class_list.html#a49c179636e084dfbf7a52acd46acaf01" target="_top" xlink:title=" ">
<polygon fill="none" stroke="black" points="2438.5,-2144.63 2438.5,-2163.63 2493.5,-2163.63 2493.5,-2144.63 2438.5,-2144.63"/>
<text text-anchor="middle" x="2466" y="-2151.63" font-family="Helvetica,sans-Serif" font-size="10.00">List::size</text>
</a>
</g>
</g>
<!-- Node14&#45;&gt;Node15 -->
<g id="edge25" class="edge">
<title>Node14&#45;&gt;Node15</title>
<path fill="none" stroke="midnightblue" d="M2345.19,-2154.13C2373.21,-2154.13 2404.6,-2154.13 2428.22,-2154.13"/>
<polygon fill="midnightblue" stroke="midnightblue" points="2428.48,-2157.63 2438.48,-2154.13 2428.48,-2150.63 2428.48,-2157.63"/>
</g>
<!-- Node16&#45;&gt;Node2 -->
<g id="edge27" class="edge">
<title>Node16&#45;&gt;Node2</title>
<path fill="none" stroke="midnightblue" d="M1414.91,-1444.68C1419.07,-1447.23 1422.84,-1450.34 1426,-1454.13 1521.12,-1568.38 1367.1,-2007.7 1462,-2122.13 1539.3,-2215.34 2440.31,-2305 2545,-2244.13 2600.08,-2212.11 2625.71,-2134.65 2635.07,-2098"/>
<polygon fill="midnightblue" stroke="midnightblue" points="2638.54,-2098.57 2637.47,-2088.03 2631.73,-2096.93 2638.54,-2098.57"/>
</g>
<!-- Node16&#45;&gt;Node6 -->
<g id="edge28" class="edge">
<title>Node16&#45;&gt;Node6</title>
<path fill="none" stroke="midnightblue" d="M1399.84,-1425.57C1409.86,-1421.45 1419.29,-1415.55 1426,-1407.13 1512.7,-1298.3 1392.52,-1216.69 1462,-1096.13 1481.41,-1062.46 1987.59,-694.15 2023,-678.13 2236.61,-581.51 2313.85,-562.93 2545,-602.13 2567.22,-605.9 2591.18,-614.32 2609.41,-621.71"/>
<polygon fill="midnightblue" stroke="midnightblue" points="2608.07,-624.94 2618.65,-625.56 2610.77,-618.48 2608.07,-624.94"/>
</g>
<!-- Node16&#45;&gt;Node7 -->
<g id="edge29" class="edge">
<title>Node16&#45;&gt;Node7</title>
<path fill="none" stroke="midnightblue" d="M1412.51,-1444.73C1417.44,-1447.23 1422.03,-1450.32 1426,-1454.13 1468.31,-1494.77 1437.95,-1527.62 1462,-1581.13 1553.03,-1783.66 1508.95,-2002.13 1731,-2002.13 1731,-2002.13 1731,-2002.13 2095.5,-2002.13 2422.65,-2002.13 2494.74,-1836.88 2700,-1582.13 2762.74,-1504.27 2794.39,-1385.21 2804.91,-1338.7"/>
<polygon fill="midnightblue" stroke="midnightblue" points="2808.37,-1339.26 2807.08,-1328.74 2801.53,-1337.77 2808.37,-1339.26"/>
</g>
<!-- Node16&#45;&gt;Node14 -->
<g id="edge30" class="edge">
<title>Node16&#45;&gt;Node14</title>
<path fill="none" stroke="midnightblue" d="M1414.9,-1444.69C1419.06,-1447.23 1422.84,-1450.34 1426,-1454.13 1517,-1563.15 1362.18,-1991.13 1462,-2092.13 1517.11,-2147.89 2087.97,-2132.49 2166,-2140.13 2176.26,-2141.14 2187.05,-2142.34 2197.68,-2143.61"/>
<polygon fill="midnightblue" stroke="midnightblue" points="2197.46,-2147.11 2207.81,-2144.84 2198.31,-2140.16 2197.46,-2147.11"/>
</g>
<!-- Node17 -->
<g id="node17" class="node">
<title>Node17</title>
<g id="a_node17"><a xlink:href="../../d0/dfe/class_syntax_analyzer.html#ae8d09db1b25ec882248aeed978c13a4d" target="_top" xlink:title=" ">
<polygon fill="none" stroke="black" points="1471,-1378.63 1471,-1397.63 1605,-1397.63 1605,-1378.63 1471,-1378.63"/>
<text text-anchor="middle" x="1538" y="-1385.63" font-family="Helvetica,sans-Serif" font-size="10.00">SyntaxAnalyzer::syntaxExpr</text>
</a>
</g>
</g>
<!-- Node16&#45;&gt;Node17 -->
<g id="edge31" class="edge">
<title>Node16&#45;&gt;Node17</title>
<path fill="none" stroke="midnightblue" d="M1385.45,-1425.62C1415.1,-1418.29 1456.3,-1408.09 1488.26,-1400.19"/>
<polygon fill="midnightblue" stroke="midnightblue" points="1489.42,-1403.51 1498.28,-1397.71 1487.73,-1396.71 1489.42,-1403.51"/>
</g>
<!-- Node24 -->
<g id="node24" class="node">
<title>Node24</title>
<g id="a_node24"><a xlink:href="../../d0/dfe/class_syntax_analyzer.html#a1264dcb50cb09c564a36125c21043298" target="_top" xlink:title=" ">
<polygon fill="none" stroke="black" points="2205,-1214.63 2205,-1233.63 2348,-1233.63 2348,-1214.63 2205,-1214.63"/>
<text text-anchor="middle" x="2276.5" y="-1221.63" font-family="Helvetica,sans-Serif" font-size="10.00">SyntaxAnalyzer::syntaxSelect</text>
</a>
</g>
</g>
<!-- Node16&#45;&gt;Node24 -->
<g id="edge79" class="edge">
<title>Node16&#45;&gt;Node24</title>
<path fill="none" stroke="midnightblue" d="M1385.26,-1425.58C1398.78,-1421.19 1413.68,-1415.14 1426,-1407.13 1445.5,-1394.45 1444.28,-1384.21 1462,-1369.13 1572.14,-1275.44 1586.4,-1186.13 1731,-1186.13 1731,-1186.13 1731,-1186.13 1919.5,-1186.13 2021.55,-1186.13 2139.12,-1201.76 2210.34,-1212.97"/>
<polygon fill="midnightblue" stroke="midnightblue" points="2210.08,-1216.47 2220.5,-1214.59 2211.18,-1209.56 2210.08,-1216.47"/>
</g>
<!-- Node25 -->
<g id="node25" class="node">
<title>Node25</title>
<g id="a_node25"><a xlink:href="../../d0/dfe/class_syntax_analyzer.html#a94c8a6ab5c0e53cae22edb1a840a27ce" target="_top" xlink:title=" ">
<polygon fill="none" stroke="black" points="2391,-1252.63 2391,-1271.63 2541,-1271.63 2541,-1252.63 2391,-1252.63"/>
<text text-anchor="middle" x="2466" y="-1259.63" font-family="Helvetica,sans-Serif" font-size="10.00">SyntaxAnalyzer::syntaxVariable</text>
</a>
</g>
</g>
<!-- Node16&#45;&gt;Node25 -->
<g id="edge80" class="edge">
<title>Node16&#45;&gt;Node25</title>
<path fill="none" stroke="midnightblue" d="M1398.58,-1425.53C1408.92,-1421.41 1418.81,-1415.53 1426,-1407.13 1482.19,-1341.52 1402.82,-1279.06 1462,-1216.13 1546.48,-1126.3 1607.68,-1148.13 1731,-1148.13 1731,-1148.13 1731,-1148.13 1919.5,-1148.13 2112.94,-1148.13 2166.05,-1148.43 2351,-1205.13 2383.77,-1215.18 2418.61,-1233.93 2441.03,-1247.18"/>
<polygon fill="midnightblue" stroke="midnightblue" points="2439.46,-1250.32 2449.83,-1252.48 2443.07,-1244.32 2439.46,-1250.32"/>
</g>
<!-- Node17&#45;&gt;Node2 -->
<g id="edge32" class="edge">
<title>Node17&#45;&gt;Node2</title>
<path fill="none" stroke="midnightblue" d="M1540.14,-1398.01C1547.13,-1456.96 1586.06,-1761.93 1650,-1826.13 1717.62,-1894.03 2376.92,-2027.01 2580.16,-2066.69"/>
<polygon fill="midnightblue" stroke="midnightblue" points="2579.57,-2070.14 2590.06,-2068.62 2580.91,-2063.27 2579.57,-2070.14"/>
</g>
<!-- Node17&#45;&gt;Node4 -->
<g id="edge35" class="edge">
<title>Node17&#45;&gt;Node4</title>
<path fill="none" stroke="midnightblue" d="M1542.05,-1397.78C1562.64,-1460.9 1687.59,-1812.13 1917.5,-1812.13 1917.5,-1812.13 1917.5,-1812.13 2095.5,-1812.13 2224.93,-1812.13 2614.35,-1862.21 2756.41,-1881.06"/>
<polygon fill="midnightblue" stroke="midnightblue" points="2756.23,-1884.57 2766.6,-1882.42 2757.15,-1877.63 2756.23,-1884.57"/>
</g>
<!-- Node17&#45;&gt;Node6 -->
<g id="edge33" class="edge">
<title>Node17&#45;&gt;Node6</title>
<path fill="none" stroke="midnightblue" d="M1540.34,-1378.47C1546.02,-1341.26 1571.52,-1205.79 1650,-1136.13 1706.99,-1085.55 1749.6,-1126.87 1814,-1086.13 1910.51,-1025.07 1928.39,-994.15 1987,-896.13 2011.67,-854.87 1988.9,-828.02 2023,-794.13 2083.71,-733.79 2303.69,-687.78 2387,-668.13 2451.95,-652.81 2528.08,-644.09 2579.64,-639.5"/>
<polygon fill="midnightblue" stroke="midnightblue" points="2579.95,-642.99 2589.61,-638.64 2579.35,-636.02 2579.95,-642.99"/>
</g>
<!-- Node17&#45;&gt;Node7 -->
<g id="edge34" class="edge">
<title>Node17&#45;&gt;Node7</title>
<path fill="none" stroke="midnightblue" d="M1562.9,-1378.55C1622.02,-1355.74 1780.21,-1300.13 1917.5,-1300.13 1917.5,-1300.13 1917.5,-1300.13 2467,-1300.13 2558.77,-1300.13 2664.19,-1307.04 2733.44,-1312.52"/>
<polygon fill="midnightblue" stroke="midnightblue" points="2733.57,-1316.04 2743.81,-1313.35 2734.13,-1309.06 2733.57,-1316.04"/>
</g>
<!-- Node18 -->
<g id="node18" class="node">
<title>Node18</title>
<g id="a_node18"><a xlink:href="../../db/d0e/sup_8hpp.html#ae7d62ca130413d4c96863327c1af81a4" target="_top" xlink:title="Возвращает истину, если value находится среди значений cont.">
<polygon fill="none" stroke="black" points="2078.5,-1489.63 2078.5,-1508.63 2110.5,-1508.63 2110.5,-1489.63 2078.5,-1489.63"/>
<text text-anchor="middle" x="2094.5" y="-1496.63" font-family="Helvetica,sans-Serif" font-size="10.00">isIn</text>
</a>
</g>
</g>
<!-- Node17&#45;&gt;Node18 -->
<g id="edge36" class="edge">
<title>Node17&#45;&gt;Node18</title>
<path fill="none" stroke="midnightblue" d="M1586.76,-1397.69C1700.12,-1420.38 1982.38,-1476.89 2068.29,-1494.08"/>
<polygon fill="midnightblue" stroke="midnightblue" points="2067.72,-1497.54 2078.21,-1496.07 2069.09,-1490.68 2067.72,-1497.54"/>
</g>
<!-- Node19 -->
<g id="node19" class="node">
<title>Node19</title>
<g id="a_node19"><a xlink:href="../../d0/dfe/class_syntax_analyzer.html#a3dfb6634a4bcdc61da5b1bafd1f3d136" target="_top" xlink:title=" ">
<polygon fill="none" stroke="black" points="1650,-1565.63 1650,-1584.63 1814,-1584.63 1814,-1565.63 1650,-1565.63"/>
<text text-anchor="middle" x="1732" y="-1572.63" font-family="Helvetica,sans-Serif" font-size="10.00">SyntaxAnalyzer::syntaxSimpleExpr</text>
</a>
</g>
</g>
<!-- Node17&#45;&gt;Node19 -->
<g id="edge37" class="edge">
<title>Node17&#45;&gt;Node19</title>
<path fill="none" stroke="midnightblue" d="M1548.79,-1397.66C1579.46,-1427.54 1674.05,-1519.67 1713.47,-1558.06"/>
<polygon fill="midnightblue" stroke="midnightblue" points="1711.4,-1560.93 1721,-1565.4 1716.28,-1555.91 1711.4,-1560.93"/>
</g>
<!-- Node19&#45;&gt;Node2 -->
<g id="edge38" class="edge">
<title>Node19&#45;&gt;Node2</title>
<path fill="none" stroke="midnightblue" d="M1737.02,-1584.95C1749.45,-1614.19 1790.07,-1701.6 1850,-1750.13 2036.33,-1901.01 2142.99,-1830.91 2351,-1950.13 2368.59,-1960.21 2369,-1968.81 2387,-1978.13 2452.17,-2011.89 2477.37,-1997.62 2545,-2026.13 2569.95,-2036.65 2596.86,-2051.87 2615.55,-2063.13"/>
<polygon fill="midnightblue" stroke="midnightblue" points="2613.92,-2066.23 2624.28,-2068.46 2617.57,-2060.26 2613.92,-2066.23"/>
</g>
<!-- Node19&#45;&gt;Node4 -->
<g id="edge41" class="edge">
<title>Node19&#45;&gt;Node4</title>
<path fill="none" stroke="midnightblue" d="M1764.76,-1584.71C1788.28,-1591.79 1821.12,-1601.63 1850,-1610.13 2203.3,-1714.18 2630.72,-1837.01 2765.88,-1875.77"/>
<polygon fill="midnightblue" stroke="midnightblue" points="2765.27,-1879.24 2775.84,-1878.63 2767.2,-1872.51 2765.27,-1879.24"/>
</g>
<!-- Node19&#45;&gt;Node6 -->
<g id="edge39" class="edge">
<title>Node19&#45;&gt;Node6</title>
<path fill="none" stroke="midnightblue" d="M1736.68,-1565.5C1768.34,-1482.67 1994.51,-892.66 2023,-865.13 2134.74,-757.16 2221.28,-829.66 2351,-744.13 2370.42,-731.33 2366.86,-717.78 2387,-706.13 2449.53,-669.98 2475.71,-688.51 2545,-668.13 2565.12,-662.22 2587.26,-654.55 2605.06,-648.09"/>
<polygon fill="midnightblue" stroke="midnightblue" points="2606.27,-651.37 2614.45,-644.65 2603.86,-644.8 2606.27,-651.37"/>
</g>
<!-- Node19&#45;&gt;Node7 -->
<g id="edge40" class="edge">
<title>Node19&#45;&gt;Node7</title>
<path fill="none" stroke="midnightblue" d="M1780.6,-1584.64C1801.76,-1588.41 1827.03,-1592.28 1850,-1594.13 1910.69,-1599.03 1926.57,-1601.61 1987,-1594.13 2068.41,-1584.05 2087.05,-1571.41 2166,-1549.13 2248.93,-1525.73 2271.82,-1525.12 2351,-1491.13 2367.82,-1483.91 2369.82,-1477.46 2387,-1471.13 2520.16,-1422.09 2571.72,-1468.79 2700,-1408.13 2737.83,-1390.25 2773.83,-1356.46 2793.51,-1336.05"/>
<polygon fill="midnightblue" stroke="midnightblue" points="2796.13,-1338.37 2800.46,-1328.7 2791.05,-1333.56 2796.13,-1338.37"/>
</g>
<!-- Node19&#45;&gt;Node18 -->
<g id="edge42" class="edge">
<title>Node19&#45;&gt;Node18</title>
<path fill="none" stroke="midnightblue" d="M1778.29,-1565.58C1855.02,-1549.41 2008.09,-1517.14 2068.32,-1504.44"/>
<polygon fill="midnightblue" stroke="midnightblue" points="2069.39,-1507.79 2078.45,-1502.3 2067.94,-1500.94 2069.39,-1507.79"/>
</g>
<!-- Node20 -->
<g id="node20" class="node">
<title>Node20</title>
<g id="a_node20"><a xlink:href="../../d0/dfe/class_syntax_analyzer.html#a1e9b913cc8c2861927d7c05d10f1822d" target="_top" xlink:title=" ">
<polygon fill="none" stroke="black" points="1850,-1565.63 1850,-1584.63 1987,-1584.63 1987,-1565.63 1850,-1565.63"/>
<text text-anchor="middle" x="1918.5" y="-1572.63" font-family="Helvetica,sans-Serif" font-size="10.00">SyntaxAnalyzer::syntaxTerm</text>
</a>
</g>
</g>
<!-- Node19&#45;&gt;Node20 -->
<g id="edge43" class="edge">
<title>Node19&#45;&gt;Node20</title>
<path fill="none" stroke="midnightblue" d="M1814.19,-1575.13C1822.65,-1575.13 1831.23,-1575.13 1839.64,-1575.13"/>
<polygon fill="midnightblue" stroke="midnightblue" points="1839.81,-1578.63 1849.81,-1575.13 1839.81,-1571.63 1839.81,-1578.63"/>
</g>
<!-- Node20&#45;&gt;Node2 -->
<g id="edge44" class="edge">
<title>Node20&#45;&gt;Node2</title>
<path fill="none" stroke="midnightblue" d="M1931.98,-1584.88C2006.19,-1642.86 2386.18,-1939.7 2387,-1940.13 2452.13,-1973.95 2481.6,-1951.16 2545,-1988.13 2578.05,-2007.41 2608.62,-2040.42 2625.6,-2060.65"/>
<polygon fill="midnightblue" stroke="midnightblue" points="2622.96,-2062.95 2632.01,-2068.46 2628.37,-2058.51 2622.96,-2062.95"/>
</g>
<!-- Node20&#45;&gt;Node4 -->
<g id="edge47" class="edge">
<title>Node20&#45;&gt;Node4</title>
<path fill="none" stroke="midnightblue" d="M1960.14,-1584.69C2060.94,-1608.93 2329.84,-1676.8 2545,-1760.13 2634.99,-1794.98 2736.37,-1848.35 2783,-1873.74"/>
<polygon fill="midnightblue" stroke="midnightblue" points="2781.38,-1876.85 2791.83,-1878.58 2784.74,-1870.71 2781.38,-1876.85"/>
</g>
<!-- Node20&#45;&gt;Node6 -->
<g id="edge45" class="edge">
<title>Node20&#45;&gt;Node6</title>
<path fill="none" stroke="midnightblue" d="M1923.19,-1565.53C1934.79,-1534.93 1970.69,-1436.73 1987,-1352.13 2004.44,-1261.67 1969.74,-1014.3 2023,-939.13 2073.48,-867.88 2119.6,-887.03 2202,-858.13 2266.49,-835.51 2298.25,-863.58 2351,-820.13 2379.85,-796.37 2357.99,-767.7 2387,-744.13 2443.06,-698.59 2479.66,-736.91 2545,-706.13 2574.78,-692.1 2604.35,-667.77 2622.28,-651.56"/>
<polygon fill="midnightblue" stroke="midnightblue" points="2624.68,-654.11 2629.65,-644.75 2619.93,-648.97 2624.68,-654.11"/>
</g>
<!-- Node20&#45;&gt;Node7 -->
<g id="edge46" class="edge">
<title>Node20&#45;&gt;Node7</title>
<path fill="none" stroke="midnightblue" d="M1968.59,-1565.59C2018.67,-1555.44 2098.39,-1538.11 2166,-1518.13 2266.18,-1488.53 2286.19,-1465.52 2387,-1438.13 2523.53,-1401.04 2566.94,-1428.21 2700,-1380.13 2731.94,-1368.59 2765.6,-1348.34 2786.92,-1334.35"/>
<polygon fill="midnightblue" stroke="midnightblue" points="2788.88,-1337.25 2795.26,-1328.79 2785,-1331.43 2788.88,-1337.25"/>
</g>
<!-- Node20&#45;&gt;Node18 -->
<g id="edge48" class="edge">
<title>Node20&#45;&gt;Node18</title>
<path fill="none" stroke="midnightblue" d="M1953.03,-1565.57C1964.17,-1561.78 1976.42,-1556.93 1987,-1551.13 2004.78,-1541.39 2005.16,-1532.75 2023,-1523.13 2037.33,-1515.4 2054.62,-1509.47 2068.49,-1505.44"/>
<polygon fill="midnightblue" stroke="midnightblue" points="2069.61,-1508.76 2078.32,-1502.73 2067.75,-1502.01 2069.61,-1508.76"/>
</g>
<!-- Node21 -->
<g id="node21" class="node">
<title>Node21</title>
<g id="a_node21"><a xlink:href="../../d0/dfe/class_syntax_analyzer.html#a3af9b5161a2cef6fdd26b0bb60334ac4" target="_top" xlink:title=" ">
<polygon fill="none" stroke="black" points="2023,-1378.63 2023,-1397.63 2166,-1397.63 2166,-1378.63 2023,-1378.63"/>
<text text-anchor="middle" x="2094.5" y="-1385.63" font-family="Helvetica,sans-Serif" font-size="10.00">SyntaxAnalyzer::syntaxFactor</text>
</a>
</g>
</g>
<!-- Node20&#45;&gt;Node21 -->
<g id="edge49" class="edge">
<title>Node20&#45;&gt;Node21</title>
<path fill="none" stroke="midnightblue" d="M1930.88,-1565.44C1944.62,-1553.56 1968.23,-1532.61 1987,-1513.13 2022.06,-1476.74 2059.62,-1430.82 2079.41,-1406.01"/>
<polygon fill="midnightblue" stroke="midnightblue" points="2082.39,-1407.89 2085.87,-1397.89 2076.91,-1403.54 2082.39,-1407.89"/>
</g>
<!-- Node21&#45;&gt;Node2 -->
<g id="edge50" class="edge">
<title>Node21&#45;&gt;Node2</title>
<path fill="none" stroke="midnightblue" d="M2105.64,-1397.79C2121.39,-1413.45 2151.45,-1446.08 2166,-1480.13 2207.01,-1576.08 2150.29,-1621.5 2202,-1712.13 2254.74,-1804.56 2298.76,-1804.65 2387,-1864.13 2453.29,-1908.82 2484.72,-1897.61 2545,-1950.13 2582.47,-1982.77 2613.95,-2032.75 2629.35,-2059.58"/>
<polygon fill="midnightblue" stroke="midnightblue" points="2626.32,-2061.34 2634.28,-2068.34 2632.42,-2057.91 2626.32,-2061.34"/>
</g>
<!-- Node21&#45;&gt;Node3 -->
<g id="edge55" class="edge">
<title>Node21&#45;&gt;Node3</title>
<path fill="none" stroke="midnightblue" d="M2104.09,-1397.82C2121.9,-1417.79 2164.3,-1464.76 2202,-1502.13 2426,-1724.14 2714.45,-1976.94 2790.14,-2042.78"/>
<polygon fill="midnightblue" stroke="midnightblue" points="2788.09,-2045.63 2797.93,-2049.54 2792.68,-2040.34 2788.09,-2045.63"/>
</g>
<!-- Node21&#45;&gt;Node4 -->
<g id="edge57" class="edge">
<title>Node21&#45;&gt;Node4</title>
<path fill="none" stroke="midnightblue" d="M2112.57,-1397.65C2157.47,-1422.7 2282.61,-1492.44 2387,-1550.13 2456.46,-1588.52 2641.72,-1668.26 2700,-1722.13 2747.95,-1766.46 2784.62,-1836.06 2800.44,-1869.27"/>
<polygon fill="midnightblue" stroke="midnightblue" points="2797.28,-1870.76 2804.68,-1878.35 2803.62,-1867.8 2797.28,-1870.76"/>
</g>
<!-- Node21&#45;&gt;Node6 -->
<g id="edge51" class="edge">
<title>Node21&#45;&gt;Node6</title>
<path fill="none" stroke="midnightblue" d="M2096.35,-1378.45C2100.59,-1334.62 2122.52,-1151.71 2202,-1030.13 2249.45,-957.54 2290.85,-966.61 2351,-904.13 2369.01,-885.43 2365.97,-873.35 2387,-858.13 2447.48,-814.36 2487.89,-849.21 2545,-801.13 2593.07,-760.66 2621.75,-689.15 2633.41,-654.73"/>
<polygon fill="midnightblue" stroke="midnightblue" points="2636.83,-655.53 2636.6,-644.94 2630.18,-653.36 2636.83,-655.53"/>
</g>
<!-- Node21&#45;&gt;Node7 -->
<g id="edge56" class="edge">
<title>Node21&#45;&gt;Node7</title>
<path fill="none" stroke="midnightblue" d="M2166.1,-1390.95C2279.73,-1394.04 2509.73,-1394.38 2700,-1357.13 2727.12,-1351.82 2756.64,-1341.21 2778.12,-1332.54"/>
<polygon fill="midnightblue" stroke="midnightblue" points="2779.47,-1335.77 2787.38,-1328.73 2776.8,-1329.3 2779.47,-1335.77"/>
</g>
<!-- Node21&#45;&gt;Node14 -->
<g id="edge58" class="edge">
<title>Node21&#45;&gt;Node14</title>
<path fill="none" stroke="midnightblue" d="M2105.79,-1397.73C2121.76,-1413.3 2152.09,-1445.82 2166,-1480.13 2217.77,-1607.86 2180.41,-1652.01 2202,-1788.13 2223.13,-1921.4 2258.5,-2079.97 2270.98,-2134.55"/>
<polygon fill="midnightblue" stroke="midnightblue" points="2267.63,-2135.61 2273.28,-2144.57 2274.45,-2134.04 2267.63,-2135.61"/>
</g>
<!-- Node21&#45;&gt;Node17 -->
<g id="edge65" class="edge">
<title>Node21&#45;&gt;Node17</title>
<path fill="none" stroke="midnightblue" d="M2022.64,-1388.13C1917.97,-1388.13 1722.85,-1388.13 1615.2,-1388.13"/>
<polygon fill="midnightblue" stroke="midnightblue" points="1615.06,-1384.63 1605.06,-1388.13 1615.06,-1391.63 1615.06,-1384.63"/>
</g>
<!-- Node21&#45;&gt;Node21 -->
<g id="edge66" class="edge">
<title>Node21&#45;&gt;Node21</title>
<path fill="none" stroke="midnightblue" d="M2067.37,-1397.89C2054.18,-1406.7 2063.22,-1416.13 2094.5,-1416.13 2116.01,-1416.13 2127,-1411.67 2127.48,-1406.02"/>
<polygon fill="midnightblue" stroke="midnightblue" points="2130.31,-1403.96 2121.63,-1397.89 2124.63,-1408.05 2130.31,-1403.96"/>
</g>
<!-- Node22 -->
<g id="node22" class="node">
<title>Node22</title>
<g id="a_node22"><a xlink:href="../../d0/dfe/class_syntax_analyzer.html#a9952c4a2db0a1382b9c94f40dd535fae" target="_top" xlink:title=" ">
<polygon fill="none" stroke="black" points="2581.5,-1328.63 2581.5,-1347.63 2699.5,-1347.63 2699.5,-1328.63 2581.5,-1328.63"/>
<text text-anchor="middle" x="2640.5" y="-1335.63" font-family="Helvetica,sans-Serif" font-size="10.00">SyntaxAnalyzer::eatAdv</text>
</a>
</g>
</g>
<!-- Node21&#45;&gt;Node22 -->
<g id="edge52" class="edge">
<title>Node21&#45;&gt;Node22</title>
<path fill="none" stroke="midnightblue" d="M2127.82,-1378.59C2148.77,-1372.82 2176.77,-1365.87 2202,-1362.13 2331.61,-1342.92 2484.87,-1338.7 2571.28,-1337.99"/>
<polygon fill="midnightblue" stroke="midnightblue" points="2571.5,-1341.49 2581.48,-1337.92 2571.45,-1334.49 2571.5,-1341.49"/>
</g>
<!-- Node21&#45;&gt;Node23 -->
<g id="edge59" class="edge">
<title>Node21&#45;&gt;Node23</title>
<path fill="none" stroke="midnightblue" d="M2095.78,-1378.62C2097.56,-1337.32 2110.35,-1171.89 2202,-1091.13 2251.93,-1047.13 2327.73,-1034.45 2385.14,-1031.86"/>
<polygon fill="midnightblue" stroke="midnightblue" points="2385.41,-1035.35 2395.28,-1031.49 2385.16,-1028.35 2385.41,-1035.35"/>
</g>
<!-- Node21&#45;&gt;Node24 -->
<g id="edge67" class="edge">
<title>Node21&#45;&gt;Node24</title>
<path fill="none" stroke="midnightblue" d="M2100.23,-1378.37C2113.01,-1353.02 2150.73,-1284.58 2202,-1248.13 2208.02,-1243.85 2214.84,-1240.31 2221.85,-1237.37"/>
<polygon fill="midnightblue" stroke="midnightblue" points="2223.34,-1240.55 2231.46,-1233.74 2220.87,-1234 2223.34,-1240.55"/>
</g>
<!-- Node21&#45;&gt;Node25 -->
<g id="edge78" class="edge">
<title>Node21&#45;&gt;Node25</title>
<path fill="none" stroke="midnightblue" d="M2108.58,-1378.43C2127.99,-1364.46 2166.03,-1338.76 2202,-1324.13 2263.03,-1299.31 2336.26,-1283.06 2389.93,-1273.45"/>
<polygon fill="midnightblue" stroke="midnightblue" points="2390.81,-1276.85 2400.05,-1271.67 2389.6,-1269.95 2390.81,-1276.85"/>
</g>
<!-- Node22&#45;&gt;Node7 -->
<g id="edge53" class="edge">
<title>Node22&#45;&gt;Node7</title>
<path fill="none" stroke="midnightblue" d="M2699.61,-1331.54C2710.65,-1330.29 2722.34,-1328.96 2733.82,-1327.66"/>
<polygon fill="midnightblue" stroke="midnightblue" points="2734.28,-1331.13 2743.82,-1326.52 2733.49,-1324.17 2734.28,-1331.13"/>
</g>
<!-- Node22&#45;&gt;Node8 -->
<g id="edge54" class="edge">
<title>Node22&#45;&gt;Node8</title>
<path fill="none" stroke="midnightblue" d="M2645.81,-1328.36C2668.12,-1277.75 2770.61,-1045.24 2800.68,-977"/>
<polygon fill="midnightblue" stroke="midnightblue" points="2803.89,-978.4 2804.72,-967.84 2797.48,-975.58 2803.89,-978.4"/>
</g>
<!-- Node23&#45;&gt;Node2 -->
<g id="edge60" class="edge">
<title>Node23&#45;&gt;Node2</title>
<path fill="none" stroke="midnightblue" d="M2471.62,-1043.87C2485.32,-1073.21 2525.98,-1163.66 2545,-1243.13 2621.37,-1562.2 2636.49,-1965.04 2639.04,-2058.26"/>
<polygon fill="midnightblue" stroke="midnightblue" points="2635.54,-2058.58 2639.3,-2068.49 2642.54,-2058.41 2635.54,-2058.58"/>
</g>
<!-- Node23&#45;&gt;Node6 -->
<g id="edge61" class="edge">
<title>Node23&#45;&gt;Node6</title>
<path fill="none" stroke="midnightblue" d="M2523.47,-1024.48C2531.5,-1021.04 2539.05,-1016.4 2545,-1010.13 2595.15,-957.33 2628.16,-724.75 2637.07,-654.98"/>
<polygon fill="midnightblue" stroke="midnightblue" points="2640.56,-655.26 2638.33,-644.91 2633.62,-654.39 2640.56,-655.26"/>
</g>
<!-- Node23&#45;&gt;Node7 -->
<g id="edge62" class="edge">
<title>Node23&#45;&gt;Node7</title>
<path fill="none" stroke="midnightblue" d="M2523.74,-1043.65C2583.7,-1054.67 2673.24,-1074.13 2700,-1096.13 2766.45,-1150.76 2795.54,-1255.79 2805.14,-1299.4"/>
<polygon fill="midnightblue" stroke="midnightblue" points="2801.74,-1300.24 2807.21,-1309.32 2808.59,-1298.81 2801.74,-1300.24"/>
</g>
<!-- Node23&#45;&gt;Node9 -->
<g id="edge63" class="edge">
<title>Node23&#45;&gt;Node9</title>
<path fill="none" stroke="midnightblue" d="M2536.67,-1034.13C2550.6,-1034.13 2565.13,-1034.13 2578.74,-1034.13"/>
<polygon fill="midnightblue" stroke="midnightblue" points="2578.93,-1037.63 2588.93,-1034.13 2578.93,-1030.63 2578.93,-1037.63"/>
</g>
<!-- Node23&#45;&gt;Node17 -->
<g id="edge64" class="edge">
<title>Node23&#45;&gt;Node17</title>
<path fill="none" stroke="midnightblue" d="M2395.4,-1025.5C2342.01,-1020.69 2266.72,-1017.87 2202,-1030.13 1943,-1079.21 1861.56,-1089.87 1650,-1247.13 1603.72,-1281.53 1566.34,-1339.89 1549.18,-1369.58"/>
<polygon fill="midnightblue" stroke="midnightblue" points="1546.03,-1368.05 1544.15,-1378.48 1552.12,-1371.49 1546.03,-1368.05"/>
</g>
<!-- Node24&#45;&gt;Node2 -->
<g id="edge68" class="edge">
<title>Node24&#45;&gt;Node2</title>
<path fill="none" stroke="midnightblue" d="M2277.75,-1233.78C2279.45,-1285.87 2292.44,-1537.71 2387,-1712.13 2434.94,-1800.55 2487.93,-1791.31 2545,-1874.13 2587.94,-1936.44 2620.04,-2021.37 2633.09,-2058.92"/>
<polygon fill="midnightblue" stroke="midnightblue" points="2629.85,-2060.26 2636.39,-2068.59 2636.47,-2058 2629.85,-2060.26"/>
</g>
<!-- Node24&#45;&gt;Node6 -->
<g id="edge69" class="edge">
<title>Node24&#45;&gt;Node6</title>
<path fill="none" stroke="midnightblue" d="M2286.95,-1214.41C2302.36,-1198.07 2333.01,-1163.5 2351,-1129.13 2375.64,-1082.06 2352.71,-1055.72 2387,-1015.13 2437.93,-954.85 2494.07,-994.41 2545,-934.13 2617.52,-848.31 2634.53,-706.52 2638.4,-654.8"/>
<polygon fill="midnightblue" stroke="midnightblue" points="2641.9,-654.88 2639.07,-644.67 2634.92,-654.41 2641.9,-654.88"/>
</g>
<!-- Node24&#45;&gt;Node7 -->
<g id="edge70" class="edge">
<title>Node24&#45;&gt;Node7</title>
<path fill="none" stroke="midnightblue" d="M2279.46,-1233.82C2289.33,-1281.55 2335.15,-1490.74 2387,-1527.13 2444.23,-1567.3 2642.69,-1535.18 2700,-1495.13 2757.11,-1455.22 2790.23,-1374.83 2802.95,-1338.15"/>
<polygon fill="midnightblue" stroke="midnightblue" points="2806.27,-1339.24 2806.12,-1328.65 2799.63,-1337.03 2806.27,-1339.24"/>
</g>
<!-- Node24&#45;&gt;Node9 -->
<g id="edge71" class="edge">
<title>Node24&#45;&gt;Node9</title>
<path fill="none" stroke="midnightblue" d="M2295.95,-1214.45C2355.26,-1183.32 2541.27,-1085.69 2611.91,-1048.61"/>
<polygon fill="midnightblue" stroke="midnightblue" points="2613.86,-1051.54 2621.09,-1043.8 2610.61,-1045.34 2613.86,-1051.54"/>
</g>
<!-- Node24&#45;&gt;Node17 -->
<g id="edge72" class="edge">
<title>Node24&#45;&gt;Node17</title>
<path fill="none" stroke="midnightblue" d="M2204.88,-1225.54C2062.81,-1229.29 1747.67,-1242.4 1650,-1286.13 1607.85,-1305 1571.07,-1346.32 1552.28,-1370.17"/>
<polygon fill="midnightblue" stroke="midnightblue" points="1549.3,-1368.31 1545.99,-1378.38 1554.85,-1372.57 1549.3,-1368.31"/>
</g>
<!-- Node24&#45;&gt;Node25 -->
<g id="edge73" class="edge">
<title>Node24&#45;&gt;Node25</title>
<path fill="none" stroke="midnightblue" d="M2324.81,-1233.72C2350.11,-1238.85 2381.45,-1245.2 2408.07,-1250.59"/>
<polygon fill="midnightblue" stroke="midnightblue" points="2407.53,-1254.06 2418.03,-1252.61 2408.92,-1247.19 2407.53,-1254.06"/>
</g>
<!-- Node25&#45;&gt;Node2 -->
<g id="edge74" class="edge">
<title>Node25&#45;&gt;Node2</title>
<path fill="none" stroke="midnightblue" d="M2471.47,-1271.91C2484.74,-1301.36 2524.32,-1392.07 2545,-1471.13 2604.17,-1697.35 2631.3,-1981.3 2637.87,-2058.18"/>
<polygon fill="midnightblue" stroke="midnightblue" points="2634.4,-2058.67 2638.73,-2068.34 2641.38,-2058.09 2634.4,-2058.67"/>
</g>
<!-- Node25&#45;&gt;Node6 -->
<g id="edge75" class="edge">
<title>Node25&#45;&gt;Node6</title>
<path fill="none" stroke="midnightblue" d="M2471.22,-1252.29C2483.8,-1222.64 2521.65,-1131.44 2545,-1053.13 2590.04,-902.09 2625.25,-714.78 2636.06,-654.67"/>
<polygon fill="midnightblue" stroke="midnightblue" points="2639.53,-655.13 2637.84,-644.67 2632.64,-653.9 2639.53,-655.13"/>
</g>
<!-- Node25&#45;&gt;Node7 -->
<g id="edge76" class="edge">
<title>Node25&#45;&gt;Node7</title>
<path fill="none" stroke="midnightblue" d="M2541.26,-1266.14C2587.3,-1269.53 2647.47,-1275.58 2700,-1286.13 2724.77,-1291.11 2751.96,-1299.34 2772.99,-1306.33"/>
<polygon fill="midnightblue" stroke="midnightblue" points="2771.89,-1309.65 2782.49,-1309.55 2774.14,-1303.02 2771.89,-1309.65"/>
</g>
<!-- Node25&#45;&gt;Node9 -->
<g id="edge77" class="edge">
<title>Node25&#45;&gt;Node9</title>
<path fill="none" stroke="midnightblue" d="M2519.67,-1252.56C2528.84,-1249.13 2537.74,-1244.47 2545,-1238.13 2602.78,-1187.68 2627.54,-1094.47 2635.92,-1053.88"/>
<polygon fill="midnightblue" stroke="midnightblue" points="2639.39,-1054.39 2637.87,-1043.91 2632.52,-1053.05 2639.39,-1054.39"/>
</g>
<!-- Node26&#45;&gt;Node2 -->
<g id="edge84" class="edge">
<title>Node26&#45;&gt;Node2</title>
<path fill="none" stroke="midnightblue" d="M1614.03,-2503.77C1731.91,-2514.42 1967.5,-2530.31 2166,-2510.13 2249.51,-2501.64 2274.77,-2507.26 2351,-2472.13 2369.41,-2463.65 2369,-2453.46 2387,-2444.13 2452.17,-2410.37 2493.26,-2448.18 2545,-2396.13 2629.72,-2310.9 2639.11,-2153.35 2639.69,-2097.99"/>
<polygon fill="midnightblue" stroke="midnightblue" points="2643.19,-2097.8 2639.71,-2087.79 2636.19,-2097.79 2643.19,-2097.8"/>
</g>
<!-- Node27&#45;&gt;Node2 -->
<g id="edge86" class="edge">
<title>Node27&#45;&gt;Node2</title>
<path fill="none" stroke="midnightblue" d="M1032.08,-2287.64C1037.54,-2289.22 1042.94,-2291.04 1048,-2293.13 1065.55,-2300.39 1066.49,-2308.78 1084,-2316.13 1352.52,-2428.92 1439.75,-2420.13 1731,-2420.13 1731,-2420.13 1731,-2420.13 1919.5,-2420.13 1989.45,-2420.13 2490.36,-2392.79 2545,-2349.13 2625.16,-2285.08 2637.51,-2148.72 2639.27,-2097.83"/>
<polygon fill="midnightblue" stroke="midnightblue" points="2642.77,-2097.9 2639.51,-2087.82 2635.77,-2097.73 2642.77,-2097.9"/>
</g>
<!-- Node27&#45;&gt;Node6 -->
<g id="edge87" class="edge">
<title>Node27&#45;&gt;Node6</title>
<path fill="none" stroke="midnightblue" d="M980.65,-2268.55C997.58,-2128.34 1196.07,-495.26 1266,-424.13 1317.5,-371.76 1844.05,-312.13 1917.5,-312.13 1917.5,-312.13 1917.5,-312.13 2095.5,-312.13 2297.62,-312.13 2388.28,-253.5 2545,-381.13 2619.47,-441.78 2635.26,-567.21 2638.61,-615.55"/>
<polygon fill="midnightblue" stroke="midnightblue" points="2635.12,-615.83 2639.19,-625.61 2642.1,-615.43 2635.12,-615.83"/>
</g>
<!-- Node27&#45;&gt;Node7 -->
<g id="edge88" class="edge">
<title>Node27&#45;&gt;Node7</title>
<path fill="none" stroke="midnightblue" d="M990.15,-2287.64C1008.36,-2303.55 1047.13,-2335.94 1084,-2357.13 1241.87,-2447.86 1284.48,-2474.59 1462,-2515.13 1847.46,-2603.16 1977.45,-2677.71 2351,-2548.13 2550.96,-2478.77 2613.95,-2417.5 2700,-2224.13 2764.48,-2079.24 2717.56,-2026.64 2736,-1869.13 2760.29,-1661.6 2795.83,-1410.87 2806.11,-1339.16"/>
<polygon fill="midnightblue" stroke="midnightblue" points="2809.63,-1339.28 2807.59,-1328.88 2802.7,-1338.28 2809.63,-1339.28"/>
</g>
<!-- Node27&#45;&gt;Node13 -->
<g id="edge97" class="edge">
<title>Node27&#45;&gt;Node13</title>
<path fill="none" stroke="midnightblue" d="M968.7,-2268.61C953.81,-2246.11 923.82,-2190.26 909,-2139.13 827.49,-1857.87 813.93,-1496.73 811.85,-1408.22"/>
<polygon fill="midnightblue" stroke="midnightblue" points="815.35,-1407.91 811.64,-1397.98 808.35,-1408.05 815.35,-1407.91"/>
</g>
<!-- Node28 -->
<g id="node28" class="node">
<title>Node28</title>
<g id="a_node28"><a xlink:href="../../d0/dfe/class_syntax_analyzer.html#aea3a3d1860938d64edf651bdc4016c04" target="_top" xlink:title=" ">
<polygon fill="none" stroke="black" points="1087.5,-2287.63 1087.5,-2306.63 1226.5,-2306.63 1226.5,-2287.63 1087.5,-2287.63"/>
<text text-anchor="middle" x="1157" y="-2294.63" font-family="Helvetica,sans-Serif" font-size="10.00">SyntaxAnalyzer::syntaxIterSt</text>
</a>
</g>
</g>
<!-- Node27&#45;&gt;Node28 -->
<g id="edge89" class="edge">
<title>Node27&#45;&gt;Node28</title>
<path fill="none" stroke="midnightblue" d="M1048.24,-2285.53C1057.8,-2286.56 1067.68,-2287.62 1077.39,-2288.67"/>
<polygon fill="midnightblue" stroke="midnightblue" points="1077.13,-2292.16 1087.44,-2289.75 1077.87,-2285.2 1077.13,-2292.16"/>
</g>
<!-- Node28&#45;&gt;Node2 -->
<g id="edge90" class="edge">
<title>Node28&#45;&gt;Node2</title>
<path fill="none" stroke="midnightblue" d="M1226.65,-2306.42C1334.02,-2320.11 1548.34,-2344.13 1731,-2344.13 1731,-2344.13 1731,-2344.13 2277.5,-2344.13 2397.09,-2344.13 2449.78,-2387.47 2545,-2315.13 2616.36,-2260.92 2633.95,-2144.37 2638.19,-2097.87"/>
<polygon fill="midnightblue" stroke="midnightblue" points="2641.68,-2098.12 2638.99,-2087.87 2634.7,-2097.56 2641.68,-2098.12"/>
</g>
<!-- Node28&#45;&gt;Node3 -->
<g id="edge92" class="edge">
<title>Node28&#45;&gt;Node3</title>
<path fill="none" stroke="midnightblue" d="M1167.27,-2306.81C1185.29,-2325.36 1226.74,-2366.66 1266,-2396.13 1347.51,-2457.3 1368.96,-2473.56 1462,-2515.13 1806.98,-2669.28 1897.65,-2762.13 2275.5,-2762.13 2275.5,-2762.13 2275.5,-2762.13 2467,-2762.13 2574.16,-2762.13 2632.26,-2783.17 2700,-2700.13 2787.52,-2592.85 2648.19,-2185.18 2736,-2078.13 2739.58,-2073.76 2744.03,-2070.33 2748.95,-2067.64"/>
<polygon fill="midnightblue" stroke="midnightblue" points="2750.48,-2070.79 2758.22,-2063.55 2747.66,-2064.38 2750.48,-2070.79"/>
</g>
<!-- Node28&#45;&gt;Node4 -->
<g id="edge94" class="edge">
<title>Node28&#45;&gt;Node4</title>
<path fill="none" stroke="midnightblue" d="M1171.65,-2306.65C1191.52,-2320.07 1229.97,-2344.44 1266,-2358.13 1290.7,-2367.51 1704.58,-2458.13 1731,-2458.13 1731,-2458.13 1731,-2458.13 1919.5,-2458.13 2274.15,-2458.13 2441.63,-2867.07 2700,-2624.13 2747.36,-2579.6 2719.62,-2103.05 2736,-2040.13 2749.33,-1988.94 2780.21,-1934.29 2797.23,-1906.56"/>
<polygon fill="midnightblue" stroke="midnightblue" points="2800.29,-1908.26 2802.61,-1897.93 2794.35,-1904.56 2800.29,-1908.26"/>
</g>
<!-- Node28&#45;&gt;Node6 -->
<g id="edge91" class="edge">
<title>Node28&#45;&gt;Node6</title>
<path fill="none" stroke="midnightblue" d="M1158.58,-2287.58C1163.6,-2204.58 1200.39,-1597.08 1230,-1104.13 1234.02,-1037.24 1223.09,-553.59 1266,-502.13 1334.14,-420.42 1624.61,-388.13 1731,-388.13 1731,-388.13 1731,-388.13 2277.5,-388.13 2398.7,-388.13 2449,-367.15 2545,-441.13 2603.19,-485.98 2627.68,-575.96 2635.96,-615.61"/>
<polygon fill="midnightblue" stroke="midnightblue" points="2632.56,-616.44 2637.91,-625.58 2639.42,-615.09 2632.56,-616.44"/>
</g>
<!-- Node28&#45;&gt;Node7 -->
<g id="edge93" class="edge">
<title>Node28&#45;&gt;Node7</title>
<path fill="none" stroke="midnightblue" d="M1211.5,-2306.66C1217.81,-2308.26 1224.09,-2310.08 1230,-2312.13 1246.9,-2318 1248.85,-2325.06 1266,-2330.13 1315.85,-2344.87 1679.01,-2382.13 1731,-2382.13 1731,-2382.13 1731,-2382.13 1919.5,-2382.13 2197.89,-2382.13 2305.66,-2491.31 2545,-2349.13 2658.05,-2281.97 2655.49,-2220.86 2700,-2097.13 2713.33,-2060.06 2791.39,-1456.13 2806.48,-1338.8"/>
<polygon fill="midnightblue" stroke="midnightblue" points="2809.97,-1339.1 2807.77,-1328.73 2803.02,-1338.2 2809.97,-1339.1"/>
</g>
<!-- Node28&#45;&gt;Node16 -->
<g id="edge95" class="edge">
<title>Node28&#45;&gt;Node16</title>
<path fill="none" stroke="midnightblue" d="M1157.79,-2287.42C1156.18,-2202.43 1148.64,-1584.98 1266,-1454.13 1267.06,-1452.95 1268.18,-1451.84 1269.35,-1450.78"/>
<polygon fill="midnightblue" stroke="midnightblue" points="1271.69,-1453.42 1277.76,-1444.73 1267.6,-1447.73 1271.69,-1453.42"/>
</g>
<!-- Node28&#45;&gt;Node21 -->
<g id="edge96" class="edge">
<title>Node28&#45;&gt;Node21</title>
<path fill="none" stroke="midnightblue" d="M1161.66,-2287.56C1188.87,-2217.68 1366.32,-1782.44 1650,-1556.13 1765.08,-1464.32 1935.75,-1418.81 2028.22,-1399.7"/>
<polygon fill="midnightblue" stroke="midnightblue" points="2029.18,-1403.08 2038.28,-1397.67 2027.79,-1396.22 2029.18,-1403.08"/>
</g>
<!-- Node29&#45;&gt;Node2 -->
<g id="edge99" class="edge">
<title>Node29&#45;&gt;Node2</title>
<path fill="none" stroke="midnightblue" d="M1350.04,-1052.87C1362.13,-1092.05 1407.01,-1242.13 1426,-1369.13 1436.02,-1436.17 1421.68,-1923.64 1462,-1978.13 1537.86,-2080.67 1603.45,-2078.13 1731,-2078.13 1731,-2078.13 1731,-2078.13 1919.5,-2078.13 2127.37,-2078.13 2179.15,-2089.02 2387,-2092.13 2457.21,-2093.18 2474.97,-2097.29 2545,-2092.13 2554.58,-2091.43 2564.65,-2090.32 2574.51,-2089.04"/>
<polygon fill="midnightblue" stroke="midnightblue" points="2575.25,-2092.47 2584.68,-2087.65 2574.3,-2085.54 2575.25,-2092.47"/>
</g>
<!-- Node29&#45;&gt;Node6 -->
<g id="edge100" class="edge">
<title>Node29&#45;&gt;Node6</title>
<path fill="none" stroke="midnightblue" d="M1352,-1033.26C1366.46,-1005.3 1410.55,-924.05 1462,-868.13 1610.33,-706.91 1647.05,-646.62 1850,-564.13 1993.29,-505.89 2404.29,-461.9 2545,-526.13 2585.81,-544.76 2615.77,-590.68 2630.09,-616.58"/>
<polygon fill="midnightblue" stroke="midnightblue" points="2627.01,-618.25 2634.8,-625.43 2633.19,-614.96 2627.01,-618.25"/>
</g>
<!-- Node29&#45;&gt;Node7 -->
<g id="edge101" class="edge">
<title>Node29&#45;&gt;Node7</title>
<path fill="none" stroke="midnightblue" d="M1411.62,-1046.99C1572.01,-1057.39 2000.67,-1090.21 2351,-1162.13 2509.42,-1194.65 2549.42,-1206.12 2700,-1265.13 2729.29,-1276.61 2761.4,-1293.01 2783.13,-1304.72"/>
<polygon fill="midnightblue" stroke="midnightblue" points="2781.59,-1307.87 2792.05,-1309.58 2784.94,-1301.73 2781.59,-1307.87"/>
</g>
<!-- Node29&#45;&gt;Node13 -->
<g id="edge103" class="edge">
<title>Node29&#45;&gt;Node13</title>
<path fill="none" stroke="midnightblue" d="M1333.25,-1052.9C1266.8,-1101.61 937.57,-1314.86 839.26,-1373.39"/>
<polygon fill="midnightblue" stroke="midnightblue" points="837.33,-1370.47 830.49,-1378.56 840.88,-1376.5 837.33,-1370.47"/>
</g>
<!-- Node29&#45;&gt;Node17 -->
<g id="edge102" class="edge">
<title>Node29&#45;&gt;Node17</title>
<path fill="none" stroke="midnightblue" d="M1352.28,-1052.72C1378.17,-1099.72 1491.82,-1306.09 1526.75,-1369.52"/>
<polygon fill="midnightblue" stroke="midnightblue" points="1523.77,-1371.36 1531.66,-1378.43 1529.9,-1367.98 1523.77,-1371.36"/>
</g>
<!-- Node30&#45;&gt;Node2 -->
<g id="edge105" class="edge">
<title>Node30&#45;&gt;Node2</title>
<path fill="none" stroke="midnightblue" d="M1346.92,-1482.86C1346.49,-1564.22 1347.64,-2131.22 1462,-2244.13 1607.39,-2387.67 1713.19,-2306.13 1917.5,-2306.13 1917.5,-2306.13 1917.5,-2306.13 2277.5,-2306.13 2396.87,-2306.13 2447.38,-2350.83 2545,-2282.13 2608.16,-2237.68 2630.14,-2140.08 2636.86,-2098.04"/>
<polygon fill="midnightblue" stroke="midnightblue" points="2640.35,-2098.37 2638.35,-2087.96 2633.43,-2097.35 2640.35,-2098.37"/>
</g>
<!-- Node30&#45;&gt;Node6 -->
<g id="edge106" class="edge">
<title>Node30&#45;&gt;Node6</title>
<path fill="none" stroke="midnightblue" d="M1410.84,-1463.53C1416.32,-1461.05 1421.48,-1457.96 1426,-1454.13 1457.3,-1427.6 1442.57,-1405.26 1462,-1369.13 1533.53,-1236.15 1553.13,-1201.96 1650,-1086.13 1783.09,-926.99 1843.54,-913 1987,-763.13 2003.77,-745.61 2002.47,-735.04 2023,-722.13 2093.28,-677.94 2304.37,-646.16 2387,-638.13 2452.52,-631.77 2528.05,-631.84 2579.3,-632.98"/>
<polygon fill="midnightblue" stroke="midnightblue" points="2579.46,-636.49 2589.54,-633.23 2579.63,-629.49 2579.46,-636.49"/>
</g>
<!-- Node30&#45;&gt;Node7 -->
<g id="edge107" class="edge">
<title>Node30&#45;&gt;Node7</title>
<path fill="none" stroke="midnightblue" d="M1347.21,-1482.69C1349.03,-1555.98 1364.48,-2028.74 1462,-2122.13 1549,-2205.46 2448.62,-2245.4 2545,-2173.13 2546.13,-2172.28 2763.84,-1465.73 2803,-1338.6"/>
<polygon fill="midnightblue" stroke="midnightblue" points="2806.45,-1339.3 2806.05,-1328.71 2799.76,-1337.24 2806.45,-1339.3"/>
</g>
<!-- Node30&#45;&gt;Node17 -->
<g id="edge108" class="edge">
<title>Node30&#45;&gt;Node17</title>
<path fill="none" stroke="midnightblue" d="M1396.61,-1463.62C1406.51,-1461.05 1416.72,-1457.9 1426,-1454.13 1459.07,-1440.68 1493.95,-1418.43 1515.59,-1403.52"/>
<polygon fill="midnightblue" stroke="midnightblue" points="1517.82,-1406.23 1524.01,-1397.63 1513.81,-1400.5 1517.82,-1406.23"/>
</g>
<!-- Node31&#45;&gt;Node2 -->
<g id="edge110" class="edge">
<title>Node31&#45;&gt;Node2</title>
<path fill="none" stroke="midnightblue" d="M1401.05,-1397.73C1410.74,-1401.85 1419.73,-1407.74 1426,-1416.13 1471.02,-1476.39 1410.32,-2037.48 1462,-2092.13 1490.42,-2122.18 2160.7,-2170.88 2202,-2173.13 2354.22,-2181.44 2404.24,-2231.65 2545,-2173.13 2582.38,-2157.59 2612.61,-2119.28 2628.13,-2096.34"/>
<polygon fill="midnightblue" stroke="midnightblue" points="2631.15,-2098.11 2633.7,-2087.83 2625.29,-2094.28 2631.15,-2098.11"/>
</g>
<!-- Node31&#45;&gt;Node6 -->
<g id="edge111" class="edge">
<title>Node31&#45;&gt;Node6</title>
<path fill="none" stroke="midnightblue" d="M1348.73,-1378.55C1356.47,-1337.41 1390.69,-1172.75 1462,-1058.13 1591.82,-849.45 1638.57,-789.42 1850,-664.13 1989.92,-581.22 2040.92,-586.57 2202,-564.13 2352.99,-543.1 2400.4,-515.86 2545,-564.13 2576.9,-574.78 2606.69,-600.9 2623.99,-618.31"/>
<polygon fill="midnightblue" stroke="midnightblue" points="2621.57,-620.84 2631.03,-625.61 2626.61,-615.98 2621.57,-620.84"/>
</g>
<!-- Node31&#45;&gt;Node7 -->
<g id="edge112" class="edge">
<title>Node31&#45;&gt;Node7</title>
<path fill="none" stroke="midnightblue" d="M1388.7,-1397.75C1401.48,-1402 1415.04,-1407.95 1426,-1416.13 1561.63,-1517.39 1520.41,-1615.24 1650,-1724.13 1769.42,-1824.48 1833.97,-1852.35 1987,-1822.13 2155.06,-1788.95 2573.61,-1644.76 2700,-1529.13 2759.69,-1474.52 2792.05,-1379.65 2803.8,-1338.78"/>
<polygon fill="midnightblue" stroke="midnightblue" points="2807.22,-1339.55 2806.52,-1328.98 2800.48,-1337.68 2807.22,-1339.55"/>
</g>
<!-- Node31&#45;&gt;Node13 -->
<g id="edge114" class="edge">
<title>Node31&#45;&gt;Node13</title>
<path fill="none" stroke="midnightblue" d="M1271.5,-1392.96C1169.14,-1395.54 984.85,-1395.52 883.38,-1392.92"/>
<polygon fill="midnightblue" stroke="midnightblue" points="883.31,-1389.41 873.22,-1392.64 883.12,-1396.41 883.31,-1389.41"/>
</g>
<!-- Node31&#45;&gt;Node17 -->
<g id="edge113" class="edge">
<title>Node31&#45;&gt;Node17</title>
<path fill="none" stroke="midnightblue" d="M1420.73,-1388.13C1433.74,-1388.13 1447.3,-1388.13 1460.38,-1388.13"/>
<polygon fill="midnightblue" stroke="midnightblue" points="1460.75,-1391.63 1470.75,-1388.13 1460.75,-1384.63 1460.75,-1391.63"/>
</g>
<!-- Node32&#45;&gt;Node6 -->
<g id="edge116" class="edge">
<title>Node32&#45;&gt;Node6</title>
<path fill="none" stroke="midnightblue" d="M1165.73,-340.63C1181.97,-321.44 1221.78,-278.39 1266,-260.13 1377.77,-213.99 1416.08,-236.13 1537,-236.13 1537,-236.13 1537,-236.13 2277.5,-236.13 2396.87,-236.13 2454.22,-182.62 2545,-260.13 2600.5,-307.52 2629.89,-544.86 2637.49,-615.36"/>
<polygon fill="midnightblue" stroke="midnightblue" points="2634.03,-615.94 2638.56,-625.52 2640.99,-615.21 2634.03,-615.94"/>
</g>
<!-- Node32&#45;&gt;Node7 -->
<g id="edge117" class="edge">
<title>Node32&#45;&gt;Node7</title>
<path fill="none" stroke="midnightblue" d="M1164.08,-340.32C1178.82,-317.28 1218.74,-259.18 1266,-226.13 1371.72,-152.19 1407.99,-122.13 1537,-122.13 1537,-122.13 1537,-122.13 2095.5,-122.13 2375.32,-122.13 2584.86,-43.1 2700,-298.13 2762.17,-435.85 2716.17,-827.34 2736,-977.13 2752.44,-1101.33 2789.81,-1247.52 2803.68,-1299.55"/>
<polygon fill="midnightblue" stroke="midnightblue" points="2800.37,-1300.69 2806.34,-1309.44 2807.13,-1298.87 2800.37,-1300.69"/>
</g>
<!-- Node33 -->
<g id="node33" class="node">
<title>Node33</title>
<g id="a_node33"><a xlink:href="../../d0/dfe/class_syntax_analyzer.html#adad79b2219ae143b49203a836713bec9" target="_top" xlink:title=" ">
<polygon fill="none" stroke="black" points="1266,-511.63 1266,-530.63 1426,-530.63 1426,-511.63 1266,-511.63"/>
<text text-anchor="middle" x="1346" y="-518.63" font-family="Helvetica,sans-Serif" font-size="10.00">SyntaxAnalyzer::syntaxConstDecl</text>
</a>
</g>
</g>
<!-- Node32&#45;&gt;Node33 -->
<g id="edge118" class="edge">
<title>Node32&#45;&gt;Node33</title>
<path fill="none" stroke="midnightblue" d="M1168.59,-359.81C1199.19,-387.8 1288,-469.01 1326.66,-504.36"/>
<polygon fill="midnightblue" stroke="midnightblue" points="1324.78,-507.39 1334.53,-511.55 1329.51,-502.22 1324.78,-507.39"/>
</g>
<!-- Node33&#45;&gt;Node2 -->
<g id="edge119" class="edge">
<title>Node33&#45;&gt;Node2</title>
<path fill="none" stroke="midnightblue" d="M1348.73,-530.69C1357.85,-581.4 1400.92,-824.15 1426,-1024.13 1474.5,-1410.92 1362.48,-1608.91 1650,-1872.13 1899.17,-2100.25 2052.85,-2008.42 2387,-2058.13 2448.75,-2067.32 2519.67,-2072.47 2570.59,-2075.23"/>
<polygon fill="midnightblue" stroke="midnightblue" points="2570.65,-2078.74 2580.82,-2075.77 2571.02,-2071.75 2570.65,-2078.74"/>
</g>
<!-- Node33&#45;&gt;Node6 -->
<g id="edge120" class="edge">
<title>Node33&#45;&gt;Node6</title>
<path fill="none" stroke="midnightblue" d="M1375.01,-511.54C1398.09,-504.02 1431.8,-493.89 1462,-488.13 1632.2,-455.66 1676.94,-458.59 1850,-450.13 2004.49,-442.58 2413.11,-407.32 2545,-488.13 2593.58,-517.89 2621.73,-583.08 2633.29,-615.72"/>
<polygon fill="midnightblue" stroke="midnightblue" points="2630.06,-617.08 2636.58,-625.44 2636.69,-614.84 2630.06,-617.08"/>
</g>
<!-- Node33&#45;&gt;Node7 -->
<g id="edge121" class="edge">
<title>Node33&#45;&gt;Node7</title>
<path fill="none" stroke="midnightblue" d="M1426.35,-511.78C1694.62,-482.25 2558.83,-404.96 2700,-616.13 2744.81,-683.15 2723.57,-897.48 2736,-977.13 2755.32,-1100.92 2790.93,-1247.36 2804.01,-1299.5"/>
<polygon fill="midnightblue" stroke="midnightblue" points="2800.67,-1300.57 2806.51,-1309.41 2807.46,-1298.86 2800.67,-1300.57"/>
</g>
<!-- Node33&#45;&gt;Node9 -->
<g id="edge122" class="edge">
<title>Node33&#45;&gt;Node9</title>
<path fill="none" stroke="midnightblue" d="M1373.57,-530.75C1489.97,-573 1966.26,-747.14 2351,-906.13 2446.39,-945.55 2557.59,-996.26 2609.7,-1020.3"/>
<polygon fill="midnightblue" stroke="midnightblue" points="2608.47,-1023.59 2619.02,-1024.61 2611.41,-1017.24 2608.47,-1023.59"/>
</g>
<!-- Node33&#45;&gt;Node17 -->
<g id="edge123" class="edge">
<title>Node33&#45;&gt;Node17</title>
<path fill="none" stroke="midnightblue" d="M1349.13,-530.87C1368.01,-617.02 1506.41,-1248.55 1532.7,-1368.49"/>
<polygon fill="midnightblue" stroke="midnightblue" points="1529.32,-1369.45 1534.88,-1378.47 1536.16,-1367.95 1529.32,-1369.45"/>
</g>
<!-- Node34&#45;&gt;Node6 -->
<g id="edge125" class="edge">
<title>Node34&#45;&gt;Node6</title>
<path fill="none" stroke="midnightblue" d="M2128.73,-948.51C2178.83,-933.27 2275.85,-900.87 2351,-858.13 2368.62,-848.11 2370.04,-841.24 2387,-830.13 2453.89,-786.33 2482.71,-794.25 2545,-744.13 2578.94,-716.83 2610.38,-676.32 2627.05,-653.14"/>
<polygon fill="midnightblue" stroke="midnightblue" points="2629.96,-655.09 2632.88,-644.9 2624.25,-651.04 2629.96,-655.09"/>
</g>
<!-- Node34&#45;&gt;Node7 -->
<g id="edge126" class="edge">
<title>Node34&#45;&gt;Node7</title>
<path fill="none" stroke="midnightblue" d="M2124.41,-967.74C2176.71,-985.08 2290.58,-1022.63 2387,-1053.13 2525.73,-1097.01 2584.09,-1061.17 2700,-1149.13 2753.41,-1189.66 2787.84,-1264.49 2801.85,-1299.77"/>
<polygon fill="midnightblue" stroke="midnightblue" points="2798.69,-1301.29 2805.54,-1309.36 2805.22,-1298.77 2798.69,-1301.29"/>
</g>
<!-- Node34&#45;&gt;Node35 -->
<g id="edge127" class="edge">
<title>Node34&#45;&gt;Node35</title>
<path fill="none" stroke="midnightblue" d="M2139.9,-967.66C2149.22,-971.12 2158.48,-975.8 2166,-982.13 2191.56,-1003.65 2180.87,-1022.25 2202,-1048.13 2216.65,-1066.08 2237.01,-1082.78 2252.59,-1094.32"/>
<polygon fill="midnightblue" stroke="midnightblue" points="2250.98,-1097.47 2261.13,-1100.49 2255.08,-1091.8 2250.98,-1097.47"/>
</g>
<!-- Node35&#45;&gt;Node2 -->
<g id="edge128" class="edge">
<title>Node35&#45;&gt;Node2</title>
<path fill="none" stroke="midnightblue" d="M2287.98,-1119.75C2304.58,-1135.69 2336.51,-1169.38 2351,-1205.13 2405.07,-1338.6 2329.72,-1395.01 2387,-1527.13 2430.01,-1626.34 2495.09,-1616.21 2545,-1712.13 2608.48,-1834.13 2631.35,-2001.65 2637.57,-2058.41"/>
<polygon fill="midnightblue" stroke="midnightblue" points="2634.1,-2058.93 2638.62,-2068.52 2641.06,-2058.21 2634.1,-2058.93"/>
</g>
<!-- Node35&#45;&gt;Node6 -->
<g id="edge129" class="edge">
<title>Node35&#45;&gt;Node6</title>
<path fill="none" stroke="midnightblue" d="M2284.62,-1100.58C2301.26,-1078.52 2344.57,-1022.81 2387,-982.13 2451.44,-920.36 2490.76,-929.03 2545,-858.13 2595.32,-792.36 2624.15,-695.81 2634.77,-654.76"/>
<polygon fill="midnightblue" stroke="midnightblue" points="2638.19,-655.49 2637.23,-644.93 2631.4,-653.78 2638.19,-655.49"/>
</g>
<!-- Node35&#45;&gt;Node7 -->
<g id="edge130" class="edge">
<title>Node35&#45;&gt;Node7</title>
<path fill="none" stroke="midnightblue" d="M2347.16,-1119.66C2465.18,-1135.9 2692.48,-1167.63 2700,-1172.13 2751.42,-1202.9 2786.23,-1268.11 2801,-1300.32"/>
<polygon fill="midnightblue" stroke="midnightblue" points="2797.83,-1301.81 2805.09,-1309.53 2804.23,-1298.97 2797.83,-1301.81"/>
</g>
<!-- Node35&#45;&gt;Node9 -->
<g id="edge131" class="edge">
<title>Node35&#45;&gt;Node9</title>
<path fill="none" stroke="midnightblue" d="M2322.98,-1100.58C2389.31,-1086.66 2512.47,-1060.8 2584.03,-1045.78"/>
<polygon fill="midnightblue" stroke="midnightblue" points="2585.14,-1049.12 2594.21,-1043.64 2583.7,-1042.27 2585.14,-1049.12"/>
</g>
<!-- Node35&#45;&gt;Node36 -->
<g id="edge132" class="edge">
<title>Node35&#45;&gt;Node36</title>
<path fill="none" stroke="midnightblue" d="M2286.42,-1119.74C2301.35,-1136.19 2331.64,-1171.28 2351,-1205.13 2378.84,-1253.81 2437.96,-1415.08 2458.11,-1470.91"/>
<polygon fill="midnightblue" stroke="midnightblue" points="2454.92,-1472.38 2461.6,-1480.61 2461.5,-1470.01 2454.92,-1472.38"/>
</g>
<!-- Node36&#45;&gt;Node2 -->
<g id="edge133" class="edge">
<title>Node36&#45;&gt;Node2</title>
<path fill="none" stroke="midnightblue" d="M2471.41,-1499.64C2484.19,-1527.49 2521.83,-1611.51 2545,-1684.13 2590,-1825.18 2624.88,-2000.62 2635.87,-2058.56"/>
<polygon fill="midnightblue" stroke="midnightblue" points="2632.45,-2059.35 2637.74,-2068.54 2639.33,-2058.06 2632.45,-2059.35"/>
</g>
<!-- Node36&#45;&gt;Node4 -->
<g id="edge137" class="edge">
<title>Node36&#45;&gt;Node4</title>
<path fill="none" stroke="midnightblue" d="M2482.07,-1499.63C2521.85,-1525.31 2631.35,-1599.86 2700,-1684.13 2749.38,-1744.74 2786.7,-1831.16 2801.74,-1869.07"/>
<polygon fill="midnightblue" stroke="midnightblue" points="2798.49,-1870.37 2805.38,-1878.41 2805.01,-1867.82 2798.49,-1870.37"/>
</g>
<!-- Node36&#45;&gt;Node6 -->
<g id="edge134" class="edge">
<title>Node36&#45;&gt;Node6</title>
<path fill="none" stroke="midnightblue" d="M2471.54,-1480.38C2485.02,-1450.98 2525.11,-1360.39 2545,-1281.13 2574.04,-1165.42 2563.92,-1133.2 2581,-1015.13 2600.98,-877 2627.35,-711.01 2636.34,-654.82"/>
<polygon fill="midnightblue" stroke="midnightblue" points="2639.82,-655.24 2637.94,-644.81 2632.91,-654.13 2639.82,-655.24"/>
</g>
<!-- Node36&#45;&gt;Node7 -->
<g id="edge136" class="edge">
<title>Node36&#45;&gt;Node7</title>
<path fill="none" stroke="midnightblue" d="M2545.21,-1497.39C2592.87,-1498.25 2653.36,-1492.7 2700,-1466.13 2752.07,-1436.48 2786.57,-1370.74 2801.14,-1338.17"/>
<polygon fill="midnightblue" stroke="midnightblue" points="2804.41,-1339.42 2805.16,-1328.85 2797.98,-1336.65 2804.41,-1339.42"/>
</g>
<!-- Node36&#45;&gt;Node22 -->
<g id="edge135" class="edge">
<title>Node36&#45;&gt;Node22</title>
<path fill="none" stroke="midnightblue" d="M2477.79,-1480.62C2506.47,-1455.35 2584.85,-1386.28 2620.91,-1354.52"/>
<polygon fill="midnightblue" stroke="midnightblue" points="2623.52,-1356.87 2628.71,-1347.64 2618.9,-1351.62 2623.52,-1356.87"/>
</g>
<!-- Node36&#45;&gt;Node36 -->
<g id="edge138" class="edge">
<title>Node36&#45;&gt;Node36</title>
<path fill="none" stroke="midnightblue" d="M2439.18,-1499.89C2426.13,-1508.7 2435.07,-1518.13 2466,-1518.13 2486.78,-1518.13 2497.63,-1513.87 2498.56,-1508.41"/>
<polygon fill="midnightblue" stroke="midnightblue" points="2501.31,-1506.22 2492.82,-1499.89 2495.51,-1510.14 2501.31,-1506.22"/>
</g>
</g>
</svg>
