<?xml version="1.0" encoding="UTF-8" standalone="no"?>
<!DOCTYPE svg PUBLIC "-//W3C//DTD SVG 1.1//EN"
 "http://www.w3.org/Graphics/SVG/1.1/DTD/svg11.dtd">
<!-- Generated by graphviz version 3.0.0 (20220413.0106)
 -->
<!-- Title: SyntaxAnalyzer::syntaxTypeSpec Pages: 1 -->
<svg width="487pt" height="104pt"
 viewBox="0.00 0.00 487.00 104.00" xmlns="http://www.w3.org/2000/svg" xmlns:xlink="http://www.w3.org/1999/xlink">
<g id="graph0" class="graph" transform="scale(1 1) rotate(0) translate(4 100)">
<title>SyntaxAnalyzer::syntaxTypeSpec</title>
<!-- Node1 -->
<g id="node1" class="node">
<title>Node1</title>
<g id="a_node1"><a xlink:title=" ">
<polygon fill="#bfbfbf" stroke="black" points="0,-19.5 0,-38.5 158,-38.5 158,-19.5 0,-19.5"/>
<text text-anchor="middle" x="79" y="-26.5" font-family="Helvetica,sans-Serif" font-size="10.00">SyntaxAnalyzer::syntaxTypeSpec</text>
</a>
</g>
</g>
<!-- Node2 -->
<g id="node2" class="node">
<title>Node2</title>
<g id="a_node2"><a xlink:href="../../d0/dfe/class_syntax_analyzer.html#a5d17bcae2fd7dc11d0710e046c4c3280" target="_top" xlink:title=" ">
<polygon fill="none" stroke="black" points="194,-38.5 194,-57.5 295,-57.5 295,-38.5 194,-38.5"/>
<text text-anchor="middle" x="244.5" y="-45.5" font-family="Helvetica,sans-Serif" font-size="10.00">SyntaxAnalyzer::eat</text>
</a>
</g>
</g>
<!-- Node1&#45;&gt;Node2 -->
<g id="edge1" class="edge">
<title>Node1&#45;&gt;Node2</title>
<path fill="none" stroke="midnightblue" d="M158.4,-38.11C166.81,-39.09 175.27,-40.07 183.42,-41.02"/>
<polygon fill="midnightblue" stroke="midnightblue" points="183.22,-44.52 193.55,-42.2 184.03,-37.56 183.22,-44.52"/>
</g>
<!-- Node4 -->
<g id="node4" class="node">
<title>Node4</title>
<g id="a_node4"><a xlink:href="../../d0/dfe/class_syntax_analyzer.html#a3ae6c7319e61cd669c417f189b098374" target="_top" xlink:title=" ">
<polygon fill="none" stroke="black" points="339,-0.5 339,-19.5 471,-19.5 471,-0.5 339,-0.5"/>
<text text-anchor="middle" x="405" y="-7.5" font-family="Helvetica,sans-Serif" font-size="10.00">SyntaxAnalyzer::getCurTok</text>
</a>
</g>
</g>
<!-- Node1&#45;&gt;Node4 -->
<g id="edge5" class="edge">
<title>Node1&#45;&gt;Node4</title>
<path fill="none" stroke="midnightblue" d="M158.02,-24.42C209.89,-21.38 277.65,-17.41 328.91,-14.4"/>
<polygon fill="midnightblue" stroke="midnightblue" points="329.15,-17.9 338.93,-13.82 328.74,-10.91 329.15,-17.9"/>
</g>
<!-- Node3 -->
<g id="node3" class="node">
<title>Node3</title>
<g id="a_node3"><a xlink:href="../../d2/da7/namespacemagic__enum.html#af505522c30c0e3ff627fb3e39b67a6c5" target="_top" xlink:title=" ">
<polygon fill="none" stroke="black" points="340,-76.5 340,-95.5 470,-95.5 470,-76.5 340,-76.5"/>
<text text-anchor="middle" x="405" y="-83.5" font-family="Helvetica,sans-Serif" font-size="10.00">magic_enum::enum_name</text>
</a>
</g>
</g>
<!-- Node2&#45;&gt;Node3 -->
<g id="edge2" class="edge">
<title>Node2&#45;&gt;Node3</title>
<path fill="none" stroke="midnightblue" d="M285.5,-57.59C306.41,-62.6 332.21,-68.79 354.39,-74.11"/>
<polygon fill="midnightblue" stroke="midnightblue" points="353.75,-77.55 364.29,-76.48 355.38,-70.74 353.75,-77.55"/>
</g>
<!-- Node2&#45;&gt;Node4 -->
<g id="edge3" class="edge">
<title>Node2&#45;&gt;Node4</title>
<path fill="none" stroke="midnightblue" d="M285.5,-38.41C306.41,-33.4 332.21,-27.21 354.39,-21.89"/>
<polygon fill="midnightblue" stroke="midnightblue" points="355.38,-25.26 364.29,-19.52 353.75,-18.45 355.38,-25.26"/>
</g>
<!-- Node5 -->
<g id="node5" class="node">
<title>Node5</title>
<g id="a_node5"><a xlink:href="../../d0/dfe/class_syntax_analyzer.html#a9e41370d8d74fbd2e77648d2071e7dfe" target="_top" xlink:title=" ">
<polygon fill="none" stroke="black" points="331,-38.5 331,-57.5 479,-57.5 479,-38.5 331,-38.5"/>
<text text-anchor="middle" x="405" y="-45.5" font-family="Helvetica,sans-Serif" font-size="10.00">SyntaxAnalyzer::getNextToken</text>
</a>
</g>
</g>
<!-- Node2&#45;&gt;Node5 -->
<g id="edge4" class="edge">
<title>Node2&#45;&gt;Node5</title>
<path fill="none" stroke="midnightblue" d="M295.22,-48C303.37,-48 312.02,-48 320.72,-48"/>
<polygon fill="midnightblue" stroke="midnightblue" points="320.95,-51.5 330.95,-48 320.95,-44.5 320.95,-51.5"/>
</g>
</g>
</svg>
