<?xml version="1.0" encoding="UTF-8" standalone="no"?>
<!DOCTYPE svg PUBLIC "-//W3C//DTD SVG 1.1//EN"
 "http://www.w3.org/Graphics/SVG/1.1/DTD/svg11.dtd">
<!-- Generated by graphviz version 3.0.0 (20220413.0106)
 -->
<!-- Title: SyntaxAnalyzer::syntaxFuncDef Pages: 1 -->
<svg width="2877pt" height="2648pt"
 viewBox="0.00 0.00 2877.00 2648.00" xmlns="http://www.w3.org/2000/svg" xmlns:xlink="http://www.w3.org/1999/xlink">
<g id="graph0" class="graph" transform="scale(1 1) rotate(0) translate(4 2644)">
<title>SyntaxAnalyzer::syntaxFuncDef</title>
<!-- Node1 -->
<g id="node1" class="node">
<title>Node1</title>
<g id="a_node1"><a xlink:title=" ">
<polygon fill="#bfbfbf" stroke="black" points="0,-2250.5 0,-2269.5 152,-2269.5 152,-2250.5 0,-2250.5"/>
<text text-anchor="middle" x="76" y="-2257.5" font-family="Helvetica,sans-Serif" font-size="10.00">SyntaxAnalyzer::syntaxFuncDef</text>
</a>
</g>
</g>
<!-- Node2 -->
<g id="node2" class="node">
<title>Node2</title>
<g id="a_node2"><a xlink:href="../../d7/d7c/class_a_s_t_factory.html#a8d1d4c9d01ab2e366d1af6bbaeaf7bef" target="_top" xlink:title=" ">
<polygon fill="none" stroke="black" points="2566,-674.5 2566,-693.5 2685,-693.5 2685,-674.5 2566,-674.5"/>
<text text-anchor="middle" x="2625.5" y="-681.5" font-family="Helvetica,sans-Serif" font-size="10.00">ASTFactory::createAST</text>
</a>
</g>
</g>
<!-- Node1&#45;&gt;Node2 -->
<g id="edge1" class="edge">
<title>Node1&#45;&gt;Node2</title>
<path fill="none" stroke="midnightblue" d="M77.56,-2250.09C86.66,-2089.8 207.96,-38 448.5,-38 448.5,-38 448.5,-38 2260.5,-38 2391.08,-38 2449.02,-52.57 2530,-155 2594.58,-236.69 2618.39,-578.18 2623.43,-664.24"/>
<polygon fill="midnightblue" stroke="midnightblue" points="2619.94,-664.65 2624,-674.44 2626.93,-664.26 2619.94,-664.65"/>
</g>
<!-- Node4 -->
<g id="node4" class="node">
<title>Node4</title>
<g id="a_node4"><a xlink:href="../../d0/d11/class_i_token.html#ac7f0a800d7a9e8608bab0360c76d735a" target="_top" xlink:title="Получение типа токена">
<polygon fill="none" stroke="black" points="2752,-313.5 2752,-332.5 2838,-332.5 2838,-313.5 2752,-313.5"/>
<text text-anchor="middle" x="2795" y="-320.5" font-family="Helvetica,sans-Serif" font-size="10.00">IToken::getType</text>
</a>
</g>
</g>
<!-- Node1&#45;&gt;Node4 -->
<g id="edge9" class="edge">
<title>Node1&#45;&gt;Node4</title>
<path fill="none" stroke="midnightblue" d="M77.13,-2250.15C79.06,-2105.95 103.4,-423.64 188,-224 247.58,-83.41 295.8,0 448.5,0 448.5,0 448.5,0 2451,0 2565.92,0 2602.39,-30.12 2685,-110 2743.81,-166.87 2776.64,-262.3 2788.66,-303.3"/>
<polygon fill="midnightblue" stroke="midnightblue" points="2785.36,-304.47 2791.45,-313.14 2792.09,-302.56 2785.36,-304.47"/>
</g>
<!-- Node6 -->
<g id="node6" class="node">
<title>Node6</title>
<g id="a_node6"><a xlink:href="../../d0/dfe/class_syntax_analyzer.html#ae1d3434e5cc4b4bcd5a3a245814a44f0" target="_top" xlink:title=" ">
<polygon fill="none" stroke="black" points="2575,-2117.5 2575,-2136.5 2676,-2136.5 2676,-2117.5 2575,-2117.5"/>
<text text-anchor="middle" x="2625.5" y="-2124.5" font-family="Helvetica,sans-Serif" font-size="10.00">SyntaxAnalyzer::eat</text>
</a>
</g>
</g>
<!-- Node1&#45;&gt;Node6 -->
<g id="edge5" class="edge">
<title>Node1&#45;&gt;Node6</title>
<path fill="none" stroke="midnightblue" d="M82.35,-2269.77C111.62,-2321.8 258.07,-2564 448.5,-2564 448.5,-2564 448.5,-2564 2260.5,-2564 2381.07,-2564 2445.72,-2619.22 2530,-2533 2590.99,-2470.6 2509.4,-2208.41 2566,-2142 2566.31,-2141.63 2566.64,-2141.27 2566.97,-2140.92"/>
<polygon fill="midnightblue" stroke="midnightblue" points="2569.18,-2143.63 2574.84,-2134.67 2564.83,-2138.15 2569.18,-2143.63"/>
</g>
<!-- Node7 -->
<g id="node7" class="node">
<title>Node7</title>
<g id="a_node7"><a xlink:href="../../d0/dfe/class_syntax_analyzer.html#a3ae6c7319e61cd669c417f189b098374" target="_top" xlink:title=" ">
<polygon fill="none" stroke="black" points="2729,-1377.5 2729,-1396.5 2861,-1396.5 2861,-1377.5 2729,-1377.5"/>
<text text-anchor="middle" x="2795" y="-1384.5" font-family="Helvetica,sans-Serif" font-size="10.00">SyntaxAnalyzer::getCurTok</text>
</a>
</g>
</g>
<!-- Node1&#45;&gt;Node7 -->
<g id="edge8" class="edge">
<title>Node1&#45;&gt;Node7</title>
<path fill="none" stroke="midnightblue" d="M79.51,-2269.95C88.6,-2304.34 122.79,-2419.86 188,-2490 278.97,-2587.85 314.9,-2640 448.5,-2640 448.5,-2640 448.5,-2640 2451,-2640 2477.91,-2640 2631.96,-2456.92 2685,-2319 2738.59,-2179.64 2703.95,-2133.33 2721,-1985 2747.12,-1757.68 2781.91,-1482.17 2791.47,-1406.84"/>
<polygon fill="midnightblue" stroke="midnightblue" points="2794.95,-1407.22 2792.74,-1396.86 2788.01,-1406.34 2794.95,-1407.22"/>
</g>
<!-- Node9 -->
<g id="node9" class="node">
<title>Node9</title>
<g id="a_node9"><a xlink:href="../../d0/d11/class_i_token.html#a4fa3435db7157ca7316d4e4aee1df4c0" target="_top" xlink:title="Устанавливает дополнительный тип токена">
<polygon fill="none" stroke="black" points="2574,-1586.5 2574,-1605.5 2677,-1605.5 2677,-1586.5 2574,-1586.5"/>
<text text-anchor="middle" x="2625.5" y="-1593.5" font-family="Helvetica,sans-Serif" font-size="10.00">IToken::setAdvType</text>
</a>
</g>
</g>
<!-- Node1&#45;&gt;Node9 -->
<g id="edge10" class="edge">
<title>Node1&#45;&gt;Node9</title>
<path fill="none" stroke="midnightblue" d="M131.47,-2250.45C252.82,-2230.04 554.75,-2184 809.5,-2184 809.5,-2184 809.5,-2184 979.5,-2184 989.28,-2184 2327.22,-1803.06 2334,-1796 2380.89,-1747.18 2321.25,-1694.97 2370,-1648 2373.54,-1644.59 2490.24,-1621.72 2564.37,-1607.47"/>
<polygon fill="midnightblue" stroke="midnightblue" points="2565.37,-1610.84 2574.53,-1605.52 2564.05,-1603.96 2565.37,-1610.84"/>
</g>
<!-- Node10 -->
<g id="node10" class="node">
<title>Node10</title>
<g id="a_node10"><a xlink:href="../../d0/dfe/class_syntax_analyzer.html#a2b54bac50e114b68e83c80d869b6ac7c" target="_top" xlink:title=" ">
<polygon fill="none" stroke="black" points="188,-2060.5 188,-2079.5 328,-2079.5 328,-2060.5 188,-2060.5"/>
<text text-anchor="middle" x="258" y="-2067.5" font-family="Helvetica,sans-Serif" font-size="10.00">SyntaxAnalyzer::syntaxBlock</text>
</a>
</g>
</g>
<!-- Node1&#45;&gt;Node10 -->
<g id="edge11" class="edge">
<title>Node1&#45;&gt;Node10</title>
<path fill="none" stroke="midnightblue" d="M86.17,-2250.32C114.93,-2219.96 203.61,-2126.35 240.57,-2087.34"/>
<polygon fill="midnightblue" stroke="midnightblue" points="243.29,-2089.56 247.63,-2079.89 238.21,-2084.74 243.29,-2089.56"/>
</g>
<!-- Node35 -->
<g id="node35" class="node">
<title>Node35</title>
<g id="a_node35"><a xlink:href="../../d0/dfe/class_syntax_analyzer.html#a8f6dda26a96ec0e5e75bea5eed577856" target="_top" xlink:title=" ">
<polygon fill="none" stroke="black" points="2185,-1890.5 2185,-1909.5 2334,-1909.5 2334,-1890.5 2185,-1890.5"/>
<text text-anchor="middle" x="2259.5" y="-1897.5" font-family="Helvetica,sans-Serif" font-size="10.00">SyntaxAnalyzer::syntaxVarDecl</text>
</a>
</g>
</g>
<!-- Node1&#45;&gt;Node35 -->
<g id="edge140" class="edge">
<title>Node1&#45;&gt;Node35</title>
<path fill="none" stroke="midnightblue" d="M104.57,-2269.63C165.68,-2290.08 317.49,-2336 448.5,-2336 448.5,-2336 448.5,-2336 979.5,-2336 1433.75,-2336 1548.4,-2253.09 1970,-2084 2080.36,-2039.74 2194.51,-1952.21 2239.06,-1916.13"/>
<polygon fill="midnightblue" stroke="midnightblue" points="2241.49,-1918.66 2247.02,-1909.63 2237.06,-1913.24 2241.49,-1918.66"/>
</g>
<!-- Node36 -->
<g id="node36" class="node">
<title>Node36</title>
<g id="a_node36"><a xlink:href="../../d0/dfe/class_syntax_analyzer.html#a5d262eb9e2236dde3bd043eea0b0e957" target="_top" xlink:title=" ">
<polygon fill="none" stroke="black" points="2371,-1814.5 2371,-1833.5 2529,-1833.5 2529,-1814.5 2371,-1814.5"/>
<text text-anchor="middle" x="2450" y="-1821.5" font-family="Helvetica,sans-Serif" font-size="10.00">SyntaxAnalyzer::syntaxTypeSpec</text>
</a>
</g>
</g>
<!-- Node1&#45;&gt;Node36 -->
<g id="edge139" class="edge">
<title>Node1&#45;&gt;Node36</title>
<path fill="none" stroke="midnightblue" d="M90.28,-2269.64C110.4,-2283.78 150.27,-2309.96 188,-2324 298.49,-2365.12 330.61,-2374 448.5,-2374 448.5,-2374 448.5,-2374 2078.5,-2374 2339.86,-2374 2429.03,-1941.51 2445.88,-1843.56"/>
<polygon fill="midnightblue" stroke="midnightblue" points="2449.35,-1843.99 2447.54,-1833.55 2442.45,-1842.84 2449.35,-1843.99"/>
</g>
<!-- Node3 -->
<g id="node3" class="node">
<title>Node3</title>
<g id="a_node3"><a xlink:href="../../d0/d11/class_i_token.html#a3e73305ee0ac36d0bf5f26b649589b24" target="_top" xlink:title=" ">
<polygon fill="none" stroke="black" points="2743.5,-655.5 2743.5,-674.5 2846.5,-674.5 2846.5,-655.5 2743.5,-655.5"/>
<text text-anchor="middle" x="2795" y="-662.5" font-family="Helvetica,sans-Serif" font-size="10.00">IToken::getAdvType</text>
</a>
</g>
</g>
<!-- Node2&#45;&gt;Node3 -->
<g id="edge2" class="edge">
<title>Node2&#45;&gt;Node3</title>
<path fill="none" stroke="midnightblue" d="M2685.08,-677.35C2700.64,-675.59 2717.47,-673.68 2733.14,-671.9"/>
<polygon fill="midnightblue" stroke="midnightblue" points="2733.71,-675.36 2743.25,-670.76 2732.92,-668.41 2733.71,-675.36"/>
</g>
<!-- Node2&#45;&gt;Node4 -->
<g id="edge3" class="edge">
<title>Node2&#45;&gt;Node4</title>
<path fill="none" stroke="midnightblue" d="M2630.98,-674.34C2653.55,-625.7 2754.9,-407.28 2785.33,-341.68"/>
<polygon fill="midnightblue" stroke="midnightblue" points="2788.55,-343.06 2789.58,-332.52 2782.2,-340.12 2788.55,-343.06"/>
</g>
<!-- Node5 -->
<g id="node5" class="node">
<title>Node5</title>
<g id="a_node5"><a xlink:href="../../db/dc1/class_token.html#a1f07fa2fffeb2f7ab803ef8b424eae8a" target="_top" xlink:title=" ">
<polygon fill="none" stroke="black" points="2758,-693.5 2758,-712.5 2832,-712.5 2832,-693.5 2758,-693.5"/>
<text text-anchor="middle" x="2795" y="-700.5" font-family="Helvetica,sans-Serif" font-size="10.00">Token::setStr</text>
</a>
</g>
</g>
<!-- Node2&#45;&gt;Node5 -->
<g id="edge4" class="edge">
<title>Node2&#45;&gt;Node5</title>
<path fill="none" stroke="midnightblue" d="M2685.08,-690.65C2705.56,-692.97 2728.24,-695.54 2747.58,-697.73"/>
<polygon fill="midnightblue" stroke="midnightblue" points="2747.32,-701.23 2757.65,-698.88 2748.11,-694.27 2747.32,-701.23"/>
</g>
<!-- Node6&#45;&gt;Node7 -->
<g id="edge6" class="edge">
<title>Node6&#45;&gt;Node7</title>
<path fill="none" stroke="midnightblue" d="M2628.9,-2117.17C2636.98,-2083.98 2663.91,-1973 2685,-1881 2727.2,-1696.9 2775.42,-1473.49 2789.77,-1406.74"/>
<polygon fill="midnightblue" stroke="midnightblue" points="2793.23,-1407.28 2791.91,-1396.76 2786.39,-1405.81 2793.23,-1407.28"/>
</g>
<!-- Node8 -->
<g id="node8" class="node">
<title>Node8</title>
<g id="a_node8"><a xlink:href="../../d0/dfe/class_syntax_analyzer.html#a9e41370d8d74fbd2e77648d2071e7dfe" target="_top" xlink:title=" ">
<polygon fill="none" stroke="black" points="2721,-1994.5 2721,-2013.5 2869,-2013.5 2869,-1994.5 2721,-1994.5"/>
<text text-anchor="middle" x="2795" y="-2001.5" font-family="Helvetica,sans-Serif" font-size="10.00">SyntaxAnalyzer::getNextToken</text>
</a>
</g>
</g>
<!-- Node6&#45;&gt;Node8 -->
<g id="edge7" class="edge">
<title>Node6&#45;&gt;Node8</title>
<path fill="none" stroke="midnightblue" d="M2639.64,-2117.35C2668.51,-2096.15 2737.66,-2045.37 2772.77,-2019.59"/>
<polygon fill="midnightblue" stroke="midnightblue" points="2774.93,-2022.35 2780.92,-2013.61 2770.79,-2016.7 2774.93,-2022.35"/>
</g>
<!-- Node10&#45;&gt;Node2 -->
<g id="edge12" class="edge">
<title>Node10&#45;&gt;Node2</title>
<path fill="none" stroke="midnightblue" d="M259.64,-2060.36C268.33,-1931.57 365.86,-549.74 571,-206 591.05,-172.41 601.38,-152 640.5,-152 640.5,-152 640.5,-152 2260.5,-152 2390.73,-152 2446.59,-166.99 2530,-267 2582.01,-329.36 2614.15,-589.73 2622.39,-664.09"/>
<polygon fill="midnightblue" stroke="midnightblue" points="2618.95,-664.8 2623.5,-674.37 2625.9,-664.05 2618.95,-664.8"/>
</g>
<!-- Node11 -->
<g id="node11" class="node">
<title>Node11</title>
<g id="a_node11"><a xlink:href="../../d0/dfe/class_syntax_analyzer.html#a5770afdc4d32d2c38550f27f9ffd949a" target="_top" xlink:title=" ">
<polygon fill="none" stroke="black" points="364,-1738.5 364,-1757.5 535,-1757.5 535,-1738.5 364,-1738.5"/>
<text text-anchor="middle" x="449.5" y="-1745.5" font-family="Helvetica,sans-Serif" font-size="10.00">SyntaxAnalyzer::syntaxCompoundSt</text>
</a>
</g>
</g>
<!-- Node10&#45;&gt;Node11 -->
<g id="edge13" class="edge">
<title>Node10&#45;&gt;Node11</title>
<path fill="none" stroke="midnightblue" d="M264.67,-2060.36C291.1,-2015.46 402.35,-1826.41 437.68,-1766.38"/>
<polygon fill="midnightblue" stroke="midnightblue" points="440.8,-1767.99 442.85,-1757.6 434.76,-1764.44 440.8,-1767.99"/>
</g>
<!-- Node32 -->
<g id="node32" class="node">
<title>Node32</title>
<g id="a_node32"><a xlink:href="../../d0/dfe/class_syntax_analyzer.html#a58a0f927ad0a45e4ce837a98e98330aa" target="_top" xlink:title=" ">
<polygon fill="none" stroke="black" points="2186.5,-1852.5 2186.5,-1871.5 2332.5,-1871.5 2332.5,-1852.5 2186.5,-1852.5"/>
<text text-anchor="middle" x="2259.5" y="-1859.5" font-family="Helvetica,sans-Serif" font-size="10.00">SyntaxAnalyzer::syntaxConsts</text>
</a>
</g>
</g>
<!-- Node10&#45;&gt;Node32 -->
<g id="edge115" class="edge">
<title>Node10&#45;&gt;Node32</title>
<path fill="none" stroke="midnightblue" d="M328.27,-2070C404.71,-2070 531.38,-2070 640.5,-2070 640.5,-2070 640.5,-2070 1902.5,-2070 2053.56,-2070 2047.15,-1942.78 2185,-1881 2190.39,-1878.58 2196.15,-1876.43 2201.98,-1874.52"/>
<polygon fill="midnightblue" stroke="midnightblue" points="2203.26,-1877.79 2211.81,-1871.54 2201.23,-1871.09 2203.26,-1877.79"/>
</g>
<!-- Node34 -->
<g id="node34" class="node">
<title>Node34</title>
<g id="a_node34"><a xlink:href="../../d0/dfe/class_syntax_analyzer.html#a738f9b4cb7edf93c56af1b6974caad1a" target="_top" xlink:title=" ">
<polygon fill="none" stroke="black" points="2010,-2478.5 2010,-2497.5 2145,-2497.5 2145,-2478.5 2010,-2478.5"/>
<text text-anchor="middle" x="2077.5" y="-2485.5" font-family="Helvetica,sans-Serif" font-size="10.00">SyntaxAnalyzer::syntaxVars</text>
</a>
</g>
</g>
<!-- Node10&#45;&gt;Node34 -->
<g id="edge124" class="edge">
<title>Node10&#45;&gt;Node34</title>
<path fill="none" stroke="midnightblue" d="M274.53,-2079.68C338.14,-2118.4 586.06,-2260 809.5,-2260 809.5,-2260 809.5,-2260 979.5,-2260 1283.77,-2260 1333.56,-2410.03 1633,-2464 1760.14,-2486.92 1910.83,-2490.12 1999.78,-2489.59"/>
<polygon fill="midnightblue" stroke="midnightblue" points="1999.81,-2493.09 2009.78,-2489.52 1999.76,-2486.09 1999.81,-2493.09"/>
</g>
<!-- Node11&#45;&gt;Node2 -->
<g id="edge14" class="edge">
<title>Node11&#45;&gt;Node2</title>
<path fill="none" stroke="midnightblue" d="M450.54,-1738.46C451.14,-1616.53 459.96,-365.27 571,-252 645.58,-175.92 702.96,-228 809.5,-228 809.5,-228 809.5,-228 2078.5,-228 2292.3,-228 2381.67,-240.03 2530,-394 2605.82,-472.71 2620.81,-613 2623.77,-664.42"/>
<polygon fill="midnightblue" stroke="midnightblue" points="2620.28,-664.67 2624.26,-674.49 2627.27,-664.34 2620.28,-664.67"/>
</g>
<!-- Node11&#45;&gt;Node6 -->
<g id="edge15" class="edge">
<title>Node11&#45;&gt;Node6</title>
<path fill="none" stroke="midnightblue" d="M458.31,-1757.69C499.94,-1808.86 701.6,-2050.85 909,-2198 1287.55,-2466.59 1436.35,-2526 1900.5,-2526 1900.5,-2526 1900.5,-2526 2260.5,-2526 2381.07,-2526 2445.3,-2580.8 2530,-2495 2585.4,-2438.89 2514.56,-2201.76 2566,-2142 2566.32,-2141.63 2566.64,-2141.27 2566.97,-2140.92"/>
<polygon fill="midnightblue" stroke="midnightblue" points="2569.18,-2143.64 2574.87,-2134.7 2564.85,-2138.14 2569.18,-2143.64"/>
</g>
<!-- Node11&#45;&gt;Node7 -->
<g id="edge16" class="edge">
<title>Node11&#45;&gt;Node7</title>
<path fill="none" stroke="midnightblue" d="M450.67,-1738.14C453.16,-1609.56 486.86,-266 809.5,-266 809.5,-266 809.5,-266 2078.5,-266 2360.58,-266 2519.72,-224.42 2685,-453 2691.99,-462.66 2777.05,-1232.98 2791.82,-1367.17"/>
<polygon fill="midnightblue" stroke="midnightblue" points="2788.36,-1367.69 2792.93,-1377.25 2795.31,-1366.93 2788.36,-1367.69"/>
</g>
<!-- Node11&#45;&gt;Node9 -->
<g id="edge17" class="edge">
<title>Node11&#45;&gt;Node9</title>
<path fill="none" stroke="midnightblue" d="M505.96,-1757.54C576.33,-1768.8 701.54,-1786 809.5,-1786 809.5,-1786 809.5,-1786 2078.5,-1786 2192.56,-1786 2247.36,-1836.18 2334,-1762 2383.46,-1719.66 2320.55,-1662.35 2370,-1620 2425.37,-1572.57 2514.48,-1576.13 2571.22,-1584.77"/>
<polygon fill="midnightblue" stroke="midnightblue" points="2570.99,-1588.28 2581.42,-1586.43 2572.12,-1581.37 2570.99,-1588.28"/>
</g>
<!-- Node12 -->
<g id="node12" class="node">
<title>Node12</title>
<g id="a_node12"><a xlink:href="../../d0/dfe/class_syntax_analyzer.html#a6df61a82ef9de3c17b78be89a321a087" target="_top" xlink:title=" ">
<polygon fill="none" stroke="black" points="571,-1738.5 571,-1757.5 712,-1757.5 712,-1738.5 571,-1738.5"/>
<text text-anchor="middle" x="641.5" y="-1745.5" font-family="Helvetica,sans-Serif" font-size="10.00">SyntaxAnalyzer::syntaxStList</text>
</a>
</g>
</g>
<!-- Node11&#45;&gt;Node12 -->
<g id="edge18" class="edge">
<title>Node11&#45;&gt;Node12</title>
<path fill="none" stroke="midnightblue" d="M535.22,-1748C543.66,-1748 552.21,-1748 560.61,-1748"/>
<polygon fill="midnightblue" stroke="midnightblue" points="560.74,-1751.5 570.74,-1748 560.74,-1744.5 560.74,-1751.5"/>
</g>
<!-- Node12&#45;&gt;Node6 -->
<g id="edge19" class="edge">
<title>Node12&#45;&gt;Node6</title>
<path fill="none" stroke="midnightblue" d="M655.51,-1757.66C769.59,-1841.97 1602.56,-2450 1900.5,-2450 1900.5,-2450 1900.5,-2450 2260.5,-2450 2381.86,-2450 2445.32,-2492.94 2530,-2406 2612.63,-2321.17 2487.24,-2230.43 2566,-2142 2566.32,-2141.64 2566.65,-2141.28 2566.99,-2140.94"/>
<polygon fill="midnightblue" stroke="midnightblue" points="2569.19,-2143.66 2574.98,-2134.79 2564.92,-2138.12 2569.19,-2143.66"/>
</g>
<!-- Node12&#45;&gt;Node7 -->
<g id="edge20" class="edge">
<title>Node12&#45;&gt;Node7</title>
<path fill="none" stroke="midnightblue" d="M712.11,-1748C779.87,-1748 885.75,-1748 977.5,-1748 977.5,-1748 977.5,-1748 2078.5,-1748 2193.12,-1748 2248.28,-1789.08 2334,-1713 2381.41,-1670.92 2325.83,-1620.47 2370,-1575 2471.63,-1470.39 2557.22,-1553.32 2685,-1483 2723.03,-1462.07 2759.2,-1425.88 2778.82,-1404.41"/>
<polygon fill="midnightblue" stroke="midnightblue" points="2781.65,-1406.5 2785.72,-1396.72 2776.44,-1401.83 2781.65,-1406.5"/>
</g>
<!-- Node13 -->
<g id="node13" class="node">
<title>Node13</title>
<g id="a_node13"><a xlink:href="../../d0/dfe/class_syntax_analyzer.html#a7f54bde730006b1b863290415809ab4e" target="_top" xlink:title=" ">
<polygon fill="none" stroke="black" points="748,-1525.5 748,-1544.5 873,-1544.5 873,-1525.5 748,-1525.5"/>
<text text-anchor="middle" x="810.5" y="-1532.5" font-family="Helvetica,sans-Serif" font-size="10.00">SyntaxAnalyzer::syntaxSt</text>
</a>
</g>
</g>
<!-- Node12&#45;&gt;Node13 -->
<g id="edge21" class="edge">
<title>Node12&#45;&gt;Node13</title>
<path fill="none" stroke="midnightblue" d="M650.11,-1738.29C676.14,-1705.1 761.86,-1595.77 795.64,-1552.68"/>
<polygon fill="midnightblue" stroke="midnightblue" points="798.43,-1554.79 801.85,-1544.76 792.92,-1550.47 798.43,-1554.79"/>
</g>
<!-- Node13&#45;&gt;Node6 -->
<g id="edge22" class="edge">
<title>Node13&#45;&gt;Node6</title>
<path fill="none" stroke="midnightblue" d="M815.12,-1544.89C826,-1573.63 860.6,-1658.77 909,-1716 1082.83,-1921.55 1631.3,-2412 1900.5,-2412 1900.5,-2412 1900.5,-2412 2260.5,-2412 2382.16,-2412 2444.64,-2450.69 2530,-2364 2600.13,-2292.78 2498.58,-2215.8 2566,-2142 2566.24,-2141.74 2566.48,-2141.48 2566.73,-2141.23"/>
<polygon fill="midnightblue" stroke="midnightblue" points="2569,-2143.9 2574.79,-2135.02 2564.73,-2138.35 2569,-2143.9"/>
</g>
<!-- Node13&#45;&gt;Node7 -->
<g id="edge23" class="edge">
<title>Node13&#45;&gt;Node7</title>
<path fill="none" stroke="midnightblue" d="M820.47,-1544.55C836.58,-1561.09 872.17,-1595.06 909,-1613 1011.64,-1662.99 1044.84,-1672 1159,-1672 1159,-1672 1159,-1672 1531,-1672 1895.98,-1672 2014.58,-1676.6 2334,-1500 2354.08,-1488.9 2349.71,-1473.72 2370,-1463 2401.42,-1446.41 2650.05,-1414.42 2685,-1408 2701.4,-1404.99 2719.17,-1401.61 2735.51,-1398.46"/>
<polygon fill="midnightblue" stroke="midnightblue" points="2736.32,-1401.87 2745.47,-1396.54 2734.99,-1395 2736.32,-1401.87"/>
</g>
<!-- Node13&#45;&gt;Node11 -->
<g id="edge82" class="edge">
<title>Node13&#45;&gt;Node11</title>
<path fill="none" stroke="midnightblue" d="M793.46,-1544.52C736.7,-1578.19 545.12,-1691.86 475.8,-1732.99"/>
<polygon fill="midnightblue" stroke="midnightblue" points="473.67,-1730.18 466.86,-1738.29 477.24,-1736.2 473.67,-1730.18"/>
</g>
<!-- Node14 -->
<g id="node14" class="node">
<title>Node14</title>
<g id="a_node14"><a xlink:href="../../d0/dfe/class_syntax_analyzer.html#af0905389742c4f842207bb2c073afbfa" target="_top" xlink:title=" ">
<polygon fill="none" stroke="black" points="2191,-1396.5 2191,-1415.5 2328,-1415.5 2328,-1396.5 2191,-1396.5"/>
<text text-anchor="middle" x="2259.5" y="-1403.5" font-family="Helvetica,sans-Serif" font-size="10.00">SyntaxAnalyzer::lookFoward</text>
</a>
</g>
</g>
<!-- Node13&#45;&gt;Node14 -->
<g id="edge24" class="edge">
<title>Node13&#45;&gt;Node14</title>
<path fill="none" stroke="midnightblue" d="M830.92,-1544.67C882.8,-1569.58 1029.46,-1634 1159,-1634 1159,-1634 1159,-1634 1350.5,-1634 1528.85,-1634 2068.69,-1466.45 2219.18,-1418.61"/>
<polygon fill="midnightblue" stroke="midnightblue" points="2220.46,-1421.88 2228.93,-1415.51 2218.34,-1415.21 2220.46,-1421.88"/>
</g>
<!-- Node16 -->
<g id="node16" class="node">
<title>Node16</title>
<g id="a_node16"><a xlink:href="../../d0/dfe/class_syntax_analyzer.html#a31fc5887c158652feb946f89270b4b36" target="_top" xlink:title=" ">
<polygon fill="none" stroke="black" points="1272,-1130.5 1272,-1149.5 1427,-1149.5 1427,-1130.5 1272,-1130.5"/>
<text text-anchor="middle" x="1349.5" y="-1137.5" font-family="Helvetica,sans-Serif" font-size="10.00">SyntaxAnalyzer::syntaxAssignSt</text>
</a>
</g>
</g>
<!-- Node13&#45;&gt;Node16 -->
<g id="edge26" class="edge">
<title>Node13&#45;&gt;Node16</title>
<path fill="none" stroke="midnightblue" d="M818.58,-1525.39C833.7,-1505.25 870.89,-1457.79 909,-1425 1051.18,-1302.68 1249.52,-1192.48 1321.26,-1154.25"/>
<polygon fill="midnightblue" stroke="midnightblue" points="1322.94,-1157.32 1330.14,-1149.55 1319.66,-1151.14 1322.94,-1157.32"/>
</g>
<!-- Node23 -->
<g id="node23" class="node">
<title>Node23</title>
<g id="a_node23"><a xlink:href="../../d0/dfe/class_syntax_analyzer.html#a2db43946bee3e973ce1cf293b262e271" target="_top" xlink:title=" ">
<polygon fill="none" stroke="black" points="2379.5,-1472.5 2379.5,-1491.5 2520.5,-1491.5 2520.5,-1472.5 2379.5,-1472.5"/>
<text text-anchor="middle" x="2450" y="-1479.5" font-family="Helvetica,sans-Serif" font-size="10.00">SyntaxAnalyzer::syntaxCallSt</text>
</a>
</g>
</g>
<!-- Node13&#45;&gt;Node23 -->
<g id="edge81" class="edge">
<title>Node13&#45;&gt;Node23</title>
<path fill="none" stroke="midnightblue" d="M814.39,-1544.57C823.27,-1572.15 853.02,-1651.94 909,-1686 1004.36,-1744.02 1047.38,-1710 1159,-1710 1159,-1710 1159,-1710 2078.5,-1710 2193.06,-1710 2249.96,-1753.85 2334,-1676 2390.66,-1623.51 2317.79,-1562.91 2370,-1506 2373.54,-1502.14 2377.68,-1498.89 2382.18,-1496.16"/>
<polygon fill="midnightblue" stroke="midnightblue" points="2383.92,-1499.2 2391.21,-1491.52 2380.71,-1492.98 2383.92,-1499.2"/>
</g>
<!-- Node26 -->
<g id="node26" class="node">
<title>Node26</title>
<g id="a_node26"><a xlink:href="../../d0/dfe/class_syntax_analyzer.html#a67bc7e3cfb57c9d4d25d60913aef3a87" target="_top" xlink:title=" ">
<polygon fill="none" stroke="black" points="1084,-294.5 1084,-313.5 1236,-313.5 1236,-294.5 1084,-294.5"/>
<text text-anchor="middle" x="1160" y="-301.5" font-family="Helvetica,sans-Serif" font-size="10.00">SyntaxAnalyzer::syntaxEmptySt</text>
</a>
</g>
</g>
<!-- Node13&#45;&gt;Node26 -->
<g id="edge83" class="edge">
<title>Node13&#45;&gt;Node26</title>
<path fill="none" stroke="midnightblue" d="M812.39,-1525.4C817.98,-1466.14 850.01,-1144.27 909,-888 967.49,-633.89 900.25,-513.01 1084,-328 1087.91,-324.06 1092.47,-320.77 1097.38,-318.01"/>
<polygon fill="midnightblue" stroke="midnightblue" points="1099.02,-321.11 1106.51,-313.61 1095.98,-314.8 1099.02,-321.11"/>
</g>
<!-- Node27 -->
<g id="node27" class="node">
<title>Node27</title>
<g id="a_node27"><a xlink:href="../../d0/dfe/class_syntax_analyzer.html#a82e8472ea6d1064871de0d05eaa8b374" target="_top" xlink:title=" ">
<polygon fill="none" stroke="black" points="909,-897.5 909,-916.5 1048,-916.5 1048,-897.5 909,-897.5"/>
<text text-anchor="middle" x="978.5" y="-904.5" font-family="Helvetica,sans-Serif" font-size="10.00">SyntaxAnalyzer::syntaxForSt</text>
</a>
</g>
</g>
<!-- Node13&#45;&gt;Node27 -->
<g id="edge85" class="edge">
<title>Node13&#45;&gt;Node27</title>
<path fill="none" stroke="midnightblue" d="M813.6,-1525.39C830.48,-1455.14 944.13,-1024.81 971.55,-926.77"/>
<polygon fill="midnightblue" stroke="midnightblue" points="974.98,-927.53 974.33,-916.96 968.24,-925.63 974.98,-927.53"/>
</g>
<!-- Node29 -->
<g id="node29" class="node">
<title>Node29</title>
<g id="a_node29"><a xlink:href="../../d0/dfe/class_syntax_analyzer.html#a779e006875d35926152773989f4b1e5a" target="_top" xlink:title=" ">
<polygon fill="none" stroke="black" points="1284,-1282.5 1284,-1301.5 1415,-1301.5 1415,-1282.5 1284,-1282.5"/>
<text text-anchor="middle" x="1349.5" y="-1289.5" font-family="Helvetica,sans-Serif" font-size="10.00">SyntaxAnalyzer::syntaxIfSt</text>
</a>
</g>
</g>
<!-- Node13&#45;&gt;Node29 -->
<g id="edge98" class="edge">
<title>Node13&#45;&gt;Node29</title>
<path fill="none" stroke="midnightblue" d="M827.28,-1525.37C899.94,-1487.24 1203.31,-1349.56 1310.65,-1305.45"/>
<polygon fill="midnightblue" stroke="midnightblue" points="1312.18,-1308.61 1320.12,-1301.6 1309.54,-1302.13 1312.18,-1308.61"/>
</g>
<!-- Node30 -->
<g id="node30" class="node">
<title>Node30</title>
<g id="a_node30"><a xlink:href="../../d0/dfe/class_syntax_analyzer.html#a55e935b2aa7f20b66e9228e977582fcd" target="_top" xlink:title=" ">
<polygon fill="none" stroke="black" points="1273,-1548.5 1273,-1567.5 1426,-1567.5 1426,-1548.5 1273,-1548.5"/>
<text text-anchor="middle" x="1349.5" y="-1555.5" font-family="Helvetica,sans-Serif" font-size="10.00">SyntaxAnalyzer::syntaxReturnSt</text>
</a>
</g>
</g>
<!-- Node13&#45;&gt;Node30 -->
<g id="edge104" class="edge">
<title>Node13&#45;&gt;Node30</title>
<path fill="none" stroke="midnightblue" d="M854.47,-1544.57C871.38,-1547.91 891.01,-1551.25 909,-1553 1031.49,-1564.92 1174.09,-1563.8 1262.83,-1561.35"/>
<polygon fill="midnightblue" stroke="midnightblue" points="1262.96,-1564.84 1272.85,-1561.06 1262.75,-1557.85 1262.96,-1564.84"/>
</g>
<!-- Node31 -->
<g id="node31" class="node">
<title>Node31</title>
<g id="a_node31"><a xlink:href="../../d0/dfe/class_syntax_analyzer.html#a64dad7f0b22b08d182483469d3a1aa79" target="_top" xlink:title=" ">
<polygon fill="none" stroke="black" points="1275,-1510.5 1275,-1529.5 1424,-1529.5 1424,-1510.5 1275,-1510.5"/>
<text text-anchor="middle" x="1349.5" y="-1517.5" font-family="Helvetica,sans-Serif" font-size="10.00">SyntaxAnalyzer::syntaxWhileSt</text>
</a>
</g>
</g>
<!-- Node13&#45;&gt;Node31 -->
<g id="edge109" class="edge">
<title>Node13&#45;&gt;Node31</title>
<path fill="none" stroke="midnightblue" d="M873.1,-1528.79C969.45,-1523.29 1155.97,-1517.89 1264.53,-1517.28"/>
<polygon fill="midnightblue" stroke="midnightblue" points="1264.81,-1520.78 1274.79,-1517.24 1264.78,-1513.78 1264.81,-1520.78"/>
</g>
<!-- Node15 -->
<g id="node15" class="node">
<title>Node15</title>
<g id="a_node15"><a xlink:href="../../d1/d34/class_list.html#a49c179636e084dfbf7a52acd46acaf01" target="_top" xlink:title=" ">
<polygon fill="none" stroke="black" points="2422.5,-1320.5 2422.5,-1339.5 2477.5,-1339.5 2477.5,-1320.5 2422.5,-1320.5"/>
<text text-anchor="middle" x="2450" y="-1327.5" font-family="Helvetica,sans-Serif" font-size="10.00">List::size</text>
</a>
</g>
</g>
<!-- Node14&#45;&gt;Node15 -->
<g id="edge25" class="edge">
<title>Node14&#45;&gt;Node15</title>
<path fill="none" stroke="midnightblue" d="M2278.73,-1396.31C2300.17,-1385.17 2337.03,-1366.76 2370,-1354 2383.64,-1348.72 2398.95,-1343.84 2412.43,-1339.88"/>
<polygon fill="midnightblue" stroke="midnightblue" points="2413.69,-1343.16 2422.33,-1337.03 2411.76,-1336.43 2413.69,-1343.16"/>
</g>
<!-- Node16&#45;&gt;Node2 -->
<g id="edge27" class="edge">
<title>Node16&#45;&gt;Node2</title>
<path fill="none" stroke="midnightblue" d="M1351.45,-1130.41C1357.86,-1067.47 1396.49,-713.55 1463,-632 1538.9,-538.94 1593.92,-532 1714,-532 1714,-532 1714,-532 2260.5,-532 2380.75,-532 2425.16,-497.1 2530,-556 2574.18,-580.82 2603.57,-635.81 2616.68,-664.97"/>
<polygon fill="midnightblue" stroke="midnightblue" points="2613.59,-666.65 2620.77,-674.45 2620.02,-663.88 2613.59,-666.65"/>
</g>
<!-- Node16&#45;&gt;Node6 -->
<g id="edge28" class="edge">
<title>Node16&#45;&gt;Node6</title>
<path fill="none" stroke="midnightblue" d="M1357.42,-1149.59C1374.04,-1172.26 1418.17,-1230.29 1463,-1271 1597.38,-1393.01 1668.05,-1378.26 1797,-1506 1890.67,-1598.79 1895.32,-1638.34 1970,-1747 1982.31,-1764.92 2167.16,-2061.57 2185,-2074 2254.25,-2122.27 2286.34,-2105.74 2370,-2117 2436.35,-2125.93 2513.24,-2127.8 2564.99,-2127.83"/>
<polygon fill="midnightblue" stroke="midnightblue" points="2565,-2131.33 2575,-2127.81 2564.99,-2124.33 2565,-2131.33"/>
</g>
<!-- Node16&#45;&gt;Node7 -->
<g id="edge29" class="edge">
<title>Node16&#45;&gt;Node7</title>
<path fill="none" stroke="midnightblue" d="M1354.7,-1130.2C1367.57,-1100.91 1408.95,-1012.47 1463,-954 1526.13,-885.71 1545.21,-862.68 1633,-832 2010.39,-700.11 2138.98,-815.79 2530,-899 2599.59,-913.81 2635.04,-888.34 2685,-939 2747.01,-1001.88 2783.1,-1289.18 2791.89,-1367.33"/>
<polygon fill="midnightblue" stroke="midnightblue" points="2788.41,-1367.73 2792.98,-1377.29 2795.37,-1366.96 2788.41,-1367.73"/>
</g>
<!-- Node16&#45;&gt;Node14 -->
<g id="edge30" class="edge">
<title>Node16&#45;&gt;Node14</title>
<path fill="none" stroke="midnightblue" d="M1358.73,-1149.57C1375.97,-1168.96 1418.03,-1212.91 1463,-1235 1591.28,-1298 2013.76,-1368.24 2185.22,-1394.92"/>
<polygon fill="midnightblue" stroke="midnightblue" points="2184.74,-1398.38 2195.16,-1396.46 2185.82,-1391.47 2184.74,-1398.38"/>
</g>
<!-- Node17 -->
<g id="node17" class="node">
<title>Node17</title>
<g id="a_node17"><a xlink:href="../../d0/dfe/class_syntax_analyzer.html#ae8d09db1b25ec882248aeed978c13a4d" target="_top" xlink:title=" ">
<polygon fill="none" stroke="black" points="1463,-1206.5 1463,-1225.5 1597,-1225.5 1597,-1206.5 1463,-1206.5"/>
<text text-anchor="middle" x="1530" y="-1213.5" font-family="Helvetica,sans-Serif" font-size="10.00">SyntaxAnalyzer::syntaxExpr</text>
</a>
</g>
</g>
<!-- Node16&#45;&gt;Node17 -->
<g id="edge31" class="edge">
<title>Node16&#45;&gt;Node17</title>
<path fill="none" stroke="midnightblue" d="M1373.11,-1149.63C1404.49,-1162.99 1461.42,-1187.23 1497.11,-1202.42"/>
<polygon fill="midnightblue" stroke="midnightblue" points="1496,-1205.76 1506.58,-1206.45 1498.75,-1199.31 1496,-1205.76"/>
</g>
<!-- Node24 -->
<g id="node24" class="node">
<title>Node24</title>
<g id="a_node24"><a xlink:href="../../d0/dfe/class_syntax_analyzer.html#a1264dcb50cb09c564a36125c21043298" target="_top" xlink:title=" ">
<polygon fill="none" stroke="black" points="2188,-1244.5 2188,-1263.5 2331,-1263.5 2331,-1244.5 2188,-1244.5"/>
<text text-anchor="middle" x="2259.5" y="-1251.5" font-family="Helvetica,sans-Serif" font-size="10.00">SyntaxAnalyzer::syntaxSelect</text>
</a>
</g>
</g>
<!-- Node16&#45;&gt;Node24 -->
<g id="edge79" class="edge">
<title>Node16&#45;&gt;Node24</title>
<path fill="none" stroke="midnightblue" d="M1427.27,-1142.23C1570.54,-1147.56 1887.76,-1164.96 2149,-1219 2152.65,-1219.76 2189.43,-1231.58 2219.36,-1241.28"/>
<polygon fill="midnightblue" stroke="midnightblue" points="2218.61,-1244.71 2229.2,-1244.47 2220.77,-1238.05 2218.61,-1244.71"/>
</g>
<!-- Node25 -->
<g id="node25" class="node">
<title>Node25</title>
<g id="a_node25"><a xlink:href="../../d0/dfe/class_syntax_analyzer.html#a94c8a6ab5c0e53cae22edb1a840a27ce" target="_top" xlink:title=" ">
<polygon fill="none" stroke="black" points="2375,-1206.5 2375,-1225.5 2525,-1225.5 2525,-1206.5 2375,-1206.5"/>
<text text-anchor="middle" x="2450" y="-1213.5" font-family="Helvetica,sans-Serif" font-size="10.00">SyntaxAnalyzer::syntaxVariable</text>
</a>
</g>
</g>
<!-- Node16&#45;&gt;Node25 -->
<g id="edge80" class="edge">
<title>Node16&#45;&gt;Node25</title>
<path fill="none" stroke="midnightblue" d="M1427.13,-1138.54C1475.79,-1137.9 1540.1,-1137.58 1597,-1139 1881.47,-1146.11 2217.37,-1185.71 2368.38,-1205.18"/>
<polygon fill="midnightblue" stroke="midnightblue" points="2368.12,-1208.68 2378.49,-1206.49 2369.02,-1201.74 2368.12,-1208.68"/>
</g>
<!-- Node17&#45;&gt;Node2 -->
<g id="edge32" class="edge">
<title>Node17&#45;&gt;Node2</title>
<path fill="none" stroke="midnightblue" d="M1536.07,-1206.49C1547.75,-1184.35 1577.07,-1127.52 1597,-1078 1616.04,-1030.67 1598.21,-1006.32 1633,-969 1867.25,-717.72 2034.56,-810.14 2370,-736 2436.88,-721.22 2513.98,-705.67 2565.63,-695.47"/>
<polygon fill="midnightblue" stroke="midnightblue" points="2566.48,-698.87 2575.61,-693.51 2565.12,-692.01 2566.48,-698.87"/>
</g>
<!-- Node17&#45;&gt;Node4 -->
<g id="edge35" class="edge">
<title>Node17&#45;&gt;Node4</title>
<path fill="none" stroke="midnightblue" d="M1531.68,-1206.45C1535.22,-1161.55 1554.59,-968.18 1633,-836 1806.05,-544.28 1892.44,-480.63 2185,-309 2380.1,-194.54 2476.02,-127.44 2685,-214 2729.48,-232.42 2765.28,-278.79 2782.62,-304.72"/>
<polygon fill="midnightblue" stroke="midnightblue" points="2779.79,-306.77 2788.16,-313.26 2785.66,-302.96 2779.79,-306.77"/>
</g>
<!-- Node17&#45;&gt;Node6 -->
<g id="edge33" class="edge">
<title>Node17&#45;&gt;Node6</title>
<path fill="none" stroke="midnightblue" d="M1539.38,-1225.67C1573.02,-1264.6 1700.94,-1413.97 1797,-1544 1980.85,-1792.85 1928.1,-1949.58 2185,-2122 2249.04,-2164.98 2454.93,-2177.72 2530,-2160 2547.41,-2155.89 2549.24,-2148.26 2566,-2142 2568.24,-2141.16 2570.54,-2140.36 2572.88,-2139.58"/>
<polygon fill="midnightblue" stroke="midnightblue" points="2574.09,-2142.87 2582.62,-2136.58 2572.03,-2136.18 2574.09,-2142.87"/>
</g>
<!-- Node17&#45;&gt;Node7 -->
<g id="edge34" class="edge">
<title>Node17&#45;&gt;Node7</title>
<path fill="none" stroke="midnightblue" d="M1585.1,-1206.45C1705.61,-1186.04 2005.47,-1140 2258.5,-1140 2258.5,-1140 2258.5,-1140 2451,-1140 2555.91,-1140 2599.47,-1110.25 2685,-1171 2753.36,-1219.55 2781.39,-1323.73 2790.42,-1367.25"/>
<polygon fill="midnightblue" stroke="midnightblue" points="2787,-1368.02 2792.36,-1377.16 2793.87,-1366.68 2787,-1368.02"/>
</g>
<!-- Node18 -->
<g id="node18" class="node">
<title>Node18</title>
<g id="a_node18"><a xlink:href="../../db/d0e/sup_8hpp.html#ae7d62ca130413d4c96863327c1af81a4" target="_top" xlink:title="Возвращает истину, если value находится среди значений cont.">
<polygon fill="none" stroke="black" points="2061.5,-1054.5 2061.5,-1073.5 2093.5,-1073.5 2093.5,-1054.5 2061.5,-1054.5"/>
<text text-anchor="middle" x="2077.5" y="-1061.5" font-family="Helvetica,sans-Serif" font-size="10.00">isIn</text>
</a>
</g>
</g>
<!-- Node17&#45;&gt;Node18 -->
<g id="edge36" class="edge">
<title>Node17&#45;&gt;Node18</title>
<path fill="none" stroke="midnightblue" d="M1546.69,-1206.43C1566.26,-1194.87 1601.03,-1175.55 1633,-1164 1786.97,-1108.39 1982.56,-1077.25 2051.27,-1067.43"/>
<polygon fill="midnightblue" stroke="midnightblue" points="2051.76,-1070.9 2061.18,-1066.04 2050.79,-1063.96 2051.76,-1070.9"/>
</g>
<!-- Node19 -->
<g id="node19" class="node">
<title>Node19</title>
<g id="a_node19"><a xlink:href="../../d0/dfe/class_syntax_analyzer.html#a3dfb6634a4bcdc61da5b1bafd1f3d136" target="_top" xlink:title=" ">
<polygon fill="none" stroke="black" points="1633,-978.5 1633,-997.5 1797,-997.5 1797,-978.5 1633,-978.5"/>
<text text-anchor="middle" x="1715" y="-985.5" font-family="Helvetica,sans-Serif" font-size="10.00">SyntaxAnalyzer::syntaxSimpleExpr</text>
</a>
</g>
</g>
<!-- Node17&#45;&gt;Node19 -->
<g id="edge37" class="edge">
<title>Node17&#45;&gt;Node19</title>
<path fill="none" stroke="midnightblue" d="M1535.44,-1206.19C1547.99,-1179.17 1585.86,-1102.23 1633,-1050 1649.77,-1031.42 1672.72,-1014.45 1689.91,-1002.98"/>
<polygon fill="midnightblue" stroke="midnightblue" points="1691.84,-1005.9 1698.31,-997.51 1688.02,-1000.04 1691.84,-1005.9"/>
</g>
<!-- Node19&#45;&gt;Node2 -->
<g id="edge38" class="edge">
<title>Node19&#45;&gt;Node2</title>
<path fill="none" stroke="midnightblue" d="M1735.56,-978.4C1758.54,-967.33 1797.99,-949 1833,-936 1949.85,-892.6 2249.64,-806.42 2370,-774 2440.57,-754.99 2466.43,-772.07 2530,-736 2549.95,-724.68 2546.15,-710.5 2566,-699 2566.79,-698.54 2567.6,-698.09 2568.42,-697.66"/>
<polygon fill="midnightblue" stroke="midnightblue" points="2569.91,-700.83 2577.59,-693.53 2567.03,-694.45 2569.91,-700.83"/>
</g>
<!-- Node19&#45;&gt;Node4 -->
<g id="edge41" class="edge">
<title>Node19&#45;&gt;Node4</title>
<path fill="none" stroke="midnightblue" d="M1726.26,-978.42C1746.16,-960.03 1791.68,-918.86 1833,-888 2144.2,-655.53 2220.39,-589.32 2566,-412 2629.58,-379.38 2708.01,-351.21 2754.35,-335.72"/>
<polygon fill="midnightblue" stroke="midnightblue" points="2755.62,-338.99 2764.01,-332.52 2753.42,-332.34 2755.62,-338.99"/>
</g>
<!-- Node19&#45;&gt;Node6 -->
<g id="edge39" class="edge">
<title>Node19&#45;&gt;Node6</title>
<path fill="none" stroke="midnightblue" d="M1722.36,-997.75C1751.93,-1042.79 1879.83,-1234.39 2006,-1374 2063.99,-1438.17 2111.65,-1427.99 2149,-1506 2200.07,-1612.67 2110.66,-1945.02 2185,-2037 2238.76,-2103.52 2286.38,-2072.03 2370,-2090 2436.09,-2104.2 2513.03,-2114.55 2564.86,-2120.63"/>
<polygon fill="midnightblue" stroke="midnightblue" points="2564.55,-2124.12 2574.88,-2121.79 2565.35,-2117.16 2564.55,-2124.12"/>
</g>
<!-- Node19&#45;&gt;Node7 -->
<g id="edge40" class="edge">
<title>Node19&#45;&gt;Node7</title>
<path fill="none" stroke="midnightblue" d="M1763.6,-978.49C1784.76,-974.72 1810.03,-970.85 1833,-969 1893.69,-964.1 1909.29,-964.37 1970,-969 2066.39,-976.35 2089.14,-989.47 2185,-1002 2406.63,-1030.96 2511.22,-915.43 2685,-1056 2784.22,-1136.26 2793.94,-1308.98 2794.28,-1367.3"/>
<polygon fill="midnightblue" stroke="midnightblue" points="2790.78,-1367.37 2794.25,-1377.38 2797.78,-1367.39 2790.78,-1367.37"/>
</g>
<!-- Node19&#45;&gt;Node18 -->
<g id="edge42" class="edge">
<title>Node19&#45;&gt;Node18</title>
<path fill="none" stroke="midnightblue" d="M1761.29,-997.55C1838.02,-1013.72 1991.09,-1045.99 2051.32,-1058.69"/>
<polygon fill="midnightblue" stroke="midnightblue" points="2050.94,-1062.19 2061.45,-1060.83 2052.39,-1055.34 2050.94,-1062.19"/>
</g>
<!-- Node20 -->
<g id="node20" class="node">
<title>Node20</title>
<g id="a_node20"><a xlink:href="../../d0/dfe/class_syntax_analyzer.html#a1e9b913cc8c2861927d7c05d10f1822d" target="_top" xlink:title=" ">
<polygon fill="none" stroke="black" points="1833,-978.5 1833,-997.5 1970,-997.5 1970,-978.5 1833,-978.5"/>
<text text-anchor="middle" x="1901.5" y="-985.5" font-family="Helvetica,sans-Serif" font-size="10.00">SyntaxAnalyzer::syntaxTerm</text>
</a>
</g>
</g>
<!-- Node19&#45;&gt;Node20 -->
<g id="edge43" class="edge">
<title>Node19&#45;&gt;Node20</title>
<path fill="none" stroke="midnightblue" d="M1797.19,-988C1805.65,-988 1814.23,-988 1822.64,-988"/>
<polygon fill="midnightblue" stroke="midnightblue" points="1822.81,-991.5 1832.81,-988 1822.81,-984.5 1822.81,-991.5"/>
</g>
<!-- Node20&#45;&gt;Node2 -->
<g id="edge44" class="edge">
<title>Node20&#45;&gt;Node2</title>
<path fill="none" stroke="midnightblue" d="M1970.02,-993.83C2021.59,-995.43 2093.09,-991.34 2149,-964 2169.9,-953.78 2164.94,-937.78 2185,-926 2243.93,-891.39 2281.25,-931.45 2334,-888 2362.85,-864.24 2340.96,-835.52 2370,-812 2426.8,-766 2465.76,-808.85 2530,-774 2547.72,-764.38 2586.49,-724.62 2608.47,-701.29"/>
<polygon fill="midnightblue" stroke="midnightblue" points="2611.2,-703.49 2615.48,-693.8 2606.09,-698.71 2611.2,-703.49"/>
</g>
<!-- Node20&#45;&gt;Node4 -->
<g id="edge47" class="edge">
<title>Node20&#45;&gt;Node4</title>
<path fill="none" stroke="midnightblue" d="M1917.75,-978.47C1974.16,-943.08 2175.92,-815.17 2334,-698 2511.09,-566.74 2713.45,-392.97 2775.17,-339.41"/>
<polygon fill="midnightblue" stroke="midnightblue" points="2777.67,-341.87 2782.93,-332.67 2773.08,-336.59 2777.67,-341.87"/>
</g>
<!-- Node20&#45;&gt;Node6 -->
<g id="edge45" class="edge">
<title>Node20&#45;&gt;Node6</title>
<path fill="none" stroke="midnightblue" d="M1904.09,-997.62C1910.9,-1036.81 1940.29,-1187.2 2006,-1291 2053.41,-1365.89 2111.94,-1349.49 2149,-1430 2201.98,-1545.09 2105.58,-1900.28 2185,-1999 2209.92,-2029.98 2491.97,-2082.39 2530,-2094 2549.73,-2100.02 2571.48,-2107.56 2589.14,-2113.9"/>
<polygon fill="midnightblue" stroke="midnightblue" points="2588.42,-2117.37 2599.01,-2117.48 2590.8,-2110.78 2588.42,-2117.37"/>
</g>
<!-- Node20&#45;&gt;Node7 -->
<g id="edge46" class="edge">
<title>Node20&#45;&gt;Node7</title>
<path fill="none" stroke="midnightblue" d="M1953.25,-997.53C2009.77,-1008.09 2103.87,-1025.56 2185,-1040 2406.99,-1079.52 2508.65,-985.49 2685,-1126 2763.74,-1188.74 2786.27,-1318.4 2792.12,-1367.54"/>
<polygon fill="midnightblue" stroke="midnightblue" points="2788.64,-1367.93 2793.2,-1377.49 2795.6,-1367.17 2788.64,-1367.93"/>
</g>
<!-- Node20&#45;&gt;Node18 -->
<g id="edge48" class="edge">
<title>Node20&#45;&gt;Node18</title>
<path fill="none" stroke="midnightblue" d="M1936.03,-997.56C1947.17,-1001.35 1959.42,-1006.2 1970,-1012 1987.78,-1021.74 1988.16,-1030.38 2006,-1040 2020.33,-1047.73 2037.62,-1053.66 2051.49,-1057.69"/>
<polygon fill="midnightblue" stroke="midnightblue" points="2050.75,-1061.12 2061.32,-1060.4 2052.61,-1054.37 2050.75,-1061.12"/>
</g>
<!-- Node21 -->
<g id="node21" class="node">
<title>Node21</title>
<g id="a_node21"><a xlink:href="../../d0/dfe/class_syntax_analyzer.html#a3af9b5161a2cef6fdd26b0bb60334ac4" target="_top" xlink:title=" ">
<polygon fill="none" stroke="black" points="2006,-1244.5 2006,-1263.5 2149,-1263.5 2149,-1244.5 2006,-1244.5"/>
<text text-anchor="middle" x="2077.5" y="-1251.5" font-family="Helvetica,sans-Serif" font-size="10.00">SyntaxAnalyzer::syntaxFactor</text>
</a>
</g>
</g>
<!-- Node20&#45;&gt;Node21 -->
<g id="edge49" class="edge">
<title>Node20&#45;&gt;Node21</title>
<path fill="none" stroke="midnightblue" d="M1908.9,-997.78C1934.64,-1037.14 2030.87,-1184.25 2064.67,-1235.92"/>
<polygon fill="midnightblue" stroke="midnightblue" points="2061.82,-1237.96 2070.23,-1244.41 2067.68,-1234.12 2061.82,-1237.96"/>
</g>
<!-- Node21&#45;&gt;Node2 -->
<g id="edge50" class="edge">
<title>Node21&#45;&gt;Node2</title>
<path fill="none" stroke="midnightblue" d="M2081.98,-1244.27C2093.32,-1213.47 2131.56,-1116.23 2185,-1050 2239.1,-982.95 2281.21,-994.09 2334,-926 2356.9,-896.46 2340.96,-873.52 2370,-850 2426.8,-804 2471.92,-856.37 2530,-812 2556.55,-791.72 2546.37,-773.04 2566,-746 2577.98,-729.49 2594.02,-712.79 2606.27,-700.89"/>
<polygon fill="midnightblue" stroke="midnightblue" points="2608.87,-703.24 2613.69,-693.81 2604.04,-698.18 2608.87,-703.24"/>
</g>
<!-- Node21&#45;&gt;Node3 -->
<g id="edge55" class="edge">
<title>Node21&#45;&gt;Node3</title>
<path fill="none" stroke="midnightblue" d="M2104.58,-1244.45C2178.26,-1216.49 2391.63,-1128.7 2530,-1002 2620.37,-919.25 2627.46,-882.18 2685,-774 2705.23,-735.96 2688.68,-712.49 2721,-684 2724.89,-680.57 2729.33,-677.75 2734.04,-675.42"/>
<polygon fill="midnightblue" stroke="midnightblue" points="2735.5,-678.61 2743.39,-671.55 2732.81,-672.14 2735.5,-678.61"/>
</g>
<!-- Node21&#45;&gt;Node4 -->
<g id="edge57" class="edge">
<title>Node21&#45;&gt;Node4</title>
<path fill="none" stroke="midnightblue" d="M2086.37,-1244.42C2103.49,-1223.8 2145.72,-1173.98 2185,-1136 2329.2,-996.56 2405.48,-1002.27 2530,-845 2551.96,-817.26 2541.86,-799.86 2566,-774 2608.03,-728.98 2647.43,-751.8 2685,-703 2773.7,-587.79 2790.24,-403.04 2793.31,-342.73"/>
<polygon fill="midnightblue" stroke="midnightblue" points="2796.81,-342.82 2793.75,-332.67 2789.81,-342.51 2796.81,-342.82"/>
</g>
<!-- Node21&#45;&gt;Node6 -->
<g id="edge51" class="edge">
<title>Node21&#45;&gt;Node6</title>
<path fill="none" stroke="midnightblue" d="M2088.24,-1263.71C2104.3,-1280.43 2135.87,-1316.51 2149,-1354 2171.18,-1417.35 2143.03,-1904.62 2185,-1957 2234.87,-2019.25 2458.6,-2020.45 2530,-2056 2559.31,-2070.59 2588.8,-2094.58 2606.85,-2110.58"/>
<polygon fill="midnightblue" stroke="midnightblue" points="2604.53,-2113.2 2614.3,-2117.3 2609.22,-2108 2604.53,-2113.2"/>
</g>
<!-- Node21&#45;&gt;Node7 -->
<g id="edge56" class="edge">
<title>Node21&#45;&gt;Node7</title>
<path fill="none" stroke="midnightblue" d="M2100.44,-1263.63C2121.63,-1272.45 2154.86,-1285.01 2185,-1291 2335.65,-1320.93 2378.48,-1285.88 2530,-1311 2600.53,-1322.69 2616.34,-1334.09 2685,-1354 2707.68,-1360.58 2732.93,-1368.2 2753.41,-1374.47"/>
<polygon fill="midnightblue" stroke="midnightblue" points="2752.46,-1377.84 2763.05,-1377.42 2754.51,-1371.14 2752.46,-1377.84"/>
</g>
<!-- Node21&#45;&gt;Node14 -->
<g id="edge58" class="edge">
<title>Node21&#45;&gt;Node14</title>
<path fill="none" stroke="midnightblue" d="M2102.41,-1263.55C2117.47,-1270.59 2136.39,-1281.48 2149,-1296 2176.17,-1327.29 2154.54,-1353.91 2185,-1382 2189.42,-1386.08 2194.56,-1389.47 2200.01,-1392.28"/>
<polygon fill="midnightblue" stroke="midnightblue" points="2198.86,-1395.6 2209.42,-1396.49 2201.72,-1389.21 2198.86,-1395.6"/>
</g>
<!-- Node21&#45;&gt;Node17 -->
<g id="edge65" class="edge">
<title>Node21&#45;&gt;Node17</title>
<path fill="none" stroke="midnightblue" d="M2005.7,-1251.97C1918.05,-1249.03 1764.26,-1242.54 1633,-1230 1623.69,-1229.11 1613.92,-1228 1604.28,-1226.8"/>
<polygon fill="midnightblue" stroke="midnightblue" points="1604.66,-1223.32 1594.29,-1225.51 1603.77,-1230.26 1604.66,-1223.32"/>
</g>
<!-- Node21&#45;&gt;Node21 -->
<g id="edge66" class="edge">
<title>Node21&#45;&gt;Node21</title>
<path fill="none" stroke="midnightblue" d="M2050.37,-1263.76C2037.18,-1272.57 2046.22,-1282 2077.5,-1282 2099.01,-1282 2110,-1277.54 2110.48,-1271.89"/>
<polygon fill="midnightblue" stroke="midnightblue" points="2113.31,-1269.83 2104.63,-1263.76 2107.63,-1273.92 2113.31,-1269.83"/>
</g>
<!-- Node22 -->
<g id="node22" class="node">
<title>Node22</title>
<g id="a_node22"><a xlink:href="../../d0/dfe/class_syntax_analyzer.html#a9952c4a2db0a1382b9c94f40dd535fae" target="_top" xlink:title=" ">
<polygon fill="none" stroke="black" points="2566.5,-1852.5 2566.5,-1871.5 2684.5,-1871.5 2684.5,-1852.5 2566.5,-1852.5"/>
<text text-anchor="middle" x="2625.5" y="-1859.5" font-family="Helvetica,sans-Serif" font-size="10.00">SyntaxAnalyzer::eatAdv</text>
</a>
</g>
</g>
<!-- Node21&#45;&gt;Node22 -->
<g id="edge52" class="edge">
<title>Node21&#45;&gt;Node22</title>
<path fill="none" stroke="midnightblue" d="M2088.23,-1263.71C2104.26,-1280.45 2135.8,-1316.54 2149,-1354 2169.91,-1413.33 2139.13,-1875.96 2185,-1919 2303.4,-2030.1 2525.24,-1919.3 2599.54,-1876.95"/>
<polygon fill="midnightblue" stroke="midnightblue" points="2601.73,-1879.72 2608.63,-1871.68 2598.22,-1873.66 2601.73,-1879.72"/>
</g>
<!-- Node21&#45;&gt;Node23 -->
<g id="edge59" class="edge">
<title>Node21&#45;&gt;Node23</title>
<path fill="none" stroke="midnightblue" d="M2099.04,-1263.52C2113.91,-1271.03 2133.96,-1282.47 2149,-1296 2168.83,-1313.83 2163.05,-1328.85 2185,-1344 2241.72,-1383.15 2273.05,-1354.82 2334,-1387 2373.6,-1407.9 2412.17,-1443.91 2433.03,-1465.08"/>
<polygon fill="midnightblue" stroke="midnightblue" points="2430.66,-1467.66 2440.13,-1472.4 2435.69,-1462.79 2430.66,-1467.66"/>
</g>
<!-- Node21&#45;&gt;Node24 -->
<g id="edge67" class="edge">
<title>Node21&#45;&gt;Node24</title>
<path fill="none" stroke="midnightblue" d="M2149.12,-1254C2158.45,-1254 2168.08,-1254 2177.56,-1254"/>
<polygon fill="midnightblue" stroke="midnightblue" points="2177.78,-1257.5 2187.78,-1254 2177.78,-1250.5 2177.78,-1257.5"/>
</g>
<!-- Node21&#45;&gt;Node25 -->
<g id="edge78" class="edge">
<title>Node21&#45;&gt;Node25</title>
<path fill="none" stroke="midnightblue" d="M2115,-1263.54C2165.07,-1275.09 2257.56,-1290.9 2334,-1273 2368.32,-1264.96 2404.14,-1245.09 2426.5,-1231.08"/>
<polygon fill="midnightblue" stroke="midnightblue" points="2428.41,-1234.01 2434.94,-1225.67 2424.63,-1228.12 2428.41,-1234.01"/>
</g>
<!-- Node22&#45;&gt;Node7 -->
<g id="edge53" class="edge">
<title>Node22&#45;&gt;Node7</title>
<path fill="none" stroke="midnightblue" d="M2664.53,-1852.48C2672.2,-1849.02 2679.57,-1844.33 2685,-1838 2742.76,-1770.7 2781.8,-1485.51 2791.59,-1407.05"/>
<polygon fill="midnightblue" stroke="midnightblue" points="2795.12,-1407.01 2792.86,-1396.66 2788.17,-1406.16 2795.12,-1407.01"/>
</g>
<!-- Node22&#45;&gt;Node8 -->
<g id="edge54" class="edge">
<title>Node22&#45;&gt;Node8</title>
<path fill="none" stroke="midnightblue" d="M2637.75,-1871.54C2665.86,-1895.37 2739.44,-1957.75 2774.67,-1987.61"/>
<polygon fill="midnightblue" stroke="midnightblue" points="2772.46,-1990.33 2782.36,-1994.13 2776.99,-1984.99 2772.46,-1990.33"/>
</g>
<!-- Node23&#45;&gt;Node2 -->
<g id="edge60" class="edge">
<title>Node23&#45;&gt;Node2</title>
<path fill="none" stroke="midnightblue" d="M2458.61,-1472.34C2474.74,-1451.29 2512.34,-1399.16 2530,-1349 2615.64,-1105.78 2623.84,-786.58 2624.48,-704.12"/>
<polygon fill="midnightblue" stroke="midnightblue" points="2627.99,-703.73 2624.53,-693.71 2620.99,-703.69 2627.99,-703.73"/>
</g>
<!-- Node23&#45;&gt;Node6 -->
<g id="edge61" class="edge">
<title>Node23&#45;&gt;Node6</title>
<path fill="none" stroke="midnightblue" d="M2455.41,-1491.8C2468.54,-1521.32 2507.83,-1612.21 2530,-1691 2553.28,-1773.73 2548.05,-1796.95 2566,-1881 2584.05,-1965.55 2608.95,-2065.6 2619.48,-2107.26"/>
<polygon fill="midnightblue" stroke="midnightblue" points="2616.15,-2108.36 2622,-2117.19 2622.93,-2106.64 2616.15,-2108.36"/>
</g>
<!-- Node23&#45;&gt;Node7 -->
<g id="edge62" class="edge">
<title>Node23&#45;&gt;Node7</title>
<path fill="none" stroke="midnightblue" d="M2520.71,-1483.37C2568.25,-1482.27 2631.96,-1476.75 2685,-1458 2719.84,-1445.68 2754.67,-1420.11 2775.27,-1403.25"/>
<polygon fill="midnightblue" stroke="midnightblue" points="2777.77,-1405.73 2783.19,-1396.63 2773.28,-1400.36 2777.77,-1405.73"/>
</g>
<!-- Node23&#45;&gt;Node9 -->
<g id="edge63" class="edge">
<title>Node23&#45;&gt;Node9</title>
<path fill="none" stroke="midnightblue" d="M2465.49,-1491.52C2495.53,-1511.26 2564.78,-1556.76 2601.18,-1580.68"/>
<polygon fill="midnightblue" stroke="midnightblue" points="2599.4,-1583.7 2609.68,-1586.26 2603.24,-1577.85 2599.4,-1583.7"/>
</g>
<!-- Node23&#45;&gt;Node17 -->
<g id="edge64" class="edge">
<title>Node23&#45;&gt;Node17</title>
<path fill="none" stroke="midnightblue" d="M2388.11,-1472.48C2302.07,-1458.35 2140.4,-1429.33 2006,-1391 1835.34,-1342.33 1638.36,-1261.56 1562.77,-1229.61"/>
<polygon fill="midnightblue" stroke="midnightblue" points="1563.91,-1226.29 1553.34,-1225.61 1561.18,-1232.73 1563.91,-1226.29"/>
</g>
<!-- Node24&#45;&gt;Node2 -->
<g id="edge68" class="edge">
<title>Node24&#45;&gt;Node2</title>
<path fill="none" stroke="midnightblue" d="M2267.22,-1244.47C2298.28,-1200.34 2430.6,-1011.08 2530,-850 2562.37,-797.54 2597.56,-733.74 2614.4,-702.73"/>
<polygon fill="midnightblue" stroke="midnightblue" points="2617.52,-704.33 2619.2,-693.87 2611.36,-701 2617.52,-704.33"/>
</g>
<!-- Node24&#45;&gt;Node6 -->
<g id="edge69" class="edge">
<title>Node24&#45;&gt;Node6</title>
<path fill="none" stroke="midnightblue" d="M2267.81,-1263.68C2283.26,-1284.76 2319.05,-1336.95 2334,-1387 2364.24,-1488.22 2300.22,-1781.69 2370,-1861 2417.96,-1915.51 2474.21,-1847.53 2530,-1894 2597.41,-1950.14 2617.22,-2061.73 2622.62,-2107.11"/>
<polygon fill="midnightblue" stroke="midnightblue" points="2619.15,-2107.58 2623.71,-2117.15 2626.11,-2106.83 2619.15,-2107.58"/>
</g>
<!-- Node24&#45;&gt;Node7 -->
<g id="edge70" class="edge">
<title>Node24&#45;&gt;Node7</title>
<path fill="none" stroke="midnightblue" d="M2273.81,-1244.34C2293.62,-1230.62 2332.53,-1206.17 2370,-1197 2506.73,-1163.54 2567.79,-1152.05 2685,-1230 2737.36,-1264.82 2771.93,-1334.11 2786.35,-1367.77"/>
<polygon fill="midnightblue" stroke="midnightblue" points="2783.26,-1369.45 2790.33,-1377.35 2789.73,-1366.77 2783.26,-1369.45"/>
</g>
<!-- Node24&#45;&gt;Node9 -->
<g id="edge71" class="edge">
<title>Node24&#45;&gt;Node9</title>
<path fill="none" stroke="midnightblue" d="M2331.26,-1250.59C2391.24,-1251.58 2475.9,-1262.63 2530,-1311 2610.21,-1382.71 2622.51,-1524.04 2624.26,-1576.12"/>
<polygon fill="midnightblue" stroke="midnightblue" points="2620.77,-1576.42 2624.51,-1586.34 2627.77,-1576.26 2620.77,-1576.42"/>
</g>
<!-- Node24&#45;&gt;Node17 -->
<g id="edge72" class="edge">
<title>Node24&#45;&gt;Node17</title>
<path fill="none" stroke="midnightblue" d="M2212.08,-1244.45C2192.67,-1240.85 2169.83,-1237.12 2149,-1235 1954.63,-1215.25 1724.26,-1213.98 1607.33,-1214.89"/>
<polygon fill="midnightblue" stroke="midnightblue" points="1607.02,-1211.4 1597.05,-1214.98 1607.08,-1218.4 1607.02,-1211.4"/>
</g>
<!-- Node24&#45;&gt;Node25 -->
<g id="edge73" class="edge">
<title>Node24&#45;&gt;Node25</title>
<path fill="none" stroke="midnightblue" d="M2308.07,-1244.41C2333.5,-1239.28 2365,-1232.93 2391.77,-1227.54"/>
<polygon fill="midnightblue" stroke="midnightblue" points="2392.66,-1230.93 2401.78,-1225.52 2391.28,-1224.07 2392.66,-1230.93"/>
</g>
<!-- Node25&#45;&gt;Node2 -->
<g id="edge74" class="edge">
<title>Node25&#45;&gt;Node2</title>
<path fill="none" stroke="midnightblue" d="M2454.16,-1206.31C2474.73,-1143.24 2589.64,-790.89 2618.12,-703.58"/>
<polygon fill="midnightblue" stroke="midnightblue" points="2621.51,-704.46 2621.28,-693.87 2614.85,-702.29 2621.51,-704.46"/>
</g>
<!-- Node25&#45;&gt;Node6 -->
<g id="edge75" class="edge">
<title>Node25&#45;&gt;Node6</title>
<path fill="none" stroke="midnightblue" d="M2462.77,-1225.61C2480.99,-1241.29 2515.42,-1274.32 2530,-1311 2576.89,-1428.94 2547.25,-1755.47 2566,-1881 2578.8,-1966.69 2606.63,-2066.47 2618.71,-2107.68"/>
<polygon fill="midnightblue" stroke="midnightblue" points="2615.36,-2108.68 2621.55,-2117.27 2622.07,-2106.69 2615.36,-2108.68"/>
</g>
<!-- Node25&#45;&gt;Node7 -->
<g id="edge76" class="edge">
<title>Node25&#45;&gt;Node7</title>
<path fill="none" stroke="midnightblue" d="M2525.19,-1225.45C2573.21,-1233.95 2635.73,-1249.65 2685,-1278 2726.14,-1301.67 2762.59,-1344.86 2781.1,-1369.16"/>
<polygon fill="midnightblue" stroke="midnightblue" points="2778.51,-1371.54 2787.29,-1377.47 2784.13,-1367.36 2778.51,-1371.54"/>
</g>
<!-- Node25&#45;&gt;Node9 -->
<g id="edge77" class="edge">
<title>Node25&#45;&gt;Node9</title>
<path fill="none" stroke="midnightblue" d="M2508.11,-1225.61C2516.26,-1229.05 2523.93,-1233.71 2530,-1240 2577.96,-1289.69 2612.26,-1508.98 2621.81,-1576.29"/>
<polygon fill="midnightblue" stroke="midnightblue" points="2618.37,-1576.96 2623.22,-1586.38 2625.31,-1575.99 2618.37,-1576.96"/>
</g>
<!-- Node26&#45;&gt;Node2 -->
<g id="edge84" class="edge">
<title>Node26&#45;&gt;Node2</title>
<path fill="none" stroke="midnightblue" d="M1236.16,-307.03C1507.56,-318.57 2426.48,-363.18 2530,-442 2602.77,-497.41 2619.55,-616.88 2623.38,-664.16"/>
<polygon fill="midnightblue" stroke="midnightblue" points="2619.9,-664.57 2624.09,-674.3 2626.88,-664.08 2619.9,-664.57"/>
</g>
<!-- Node27&#45;&gt;Node2 -->
<g id="edge86" class="edge">
<title>Node27&#45;&gt;Node2</title>
<path fill="none" stroke="midnightblue" d="M982.25,-897.47C992.09,-863.27 1026.02,-743.37 1048,-643 1057.71,-598.67 1049.2,-471.12 1084,-442 1135.81,-398.65 1168.45,-441.29 1236,-442 1531.38,-445.11 1605.1,-456 1900.5,-456 1900.5,-456 1900.5,-456 2260.5,-456 2380.61,-456 2431.5,-407.27 2530,-476 2594.8,-521.21 2615.97,-622 2622.18,-664.5"/>
<polygon fill="midnightblue" stroke="midnightblue" points="2618.71,-664.97 2623.5,-674.42 2625.65,-664.04 2618.71,-664.97"/>
</g>
<!-- Node27&#45;&gt;Node6 -->
<g id="edge87" class="edge">
<title>Node27&#45;&gt;Node6</title>
<path fill="none" stroke="midnightblue" d="M981.97,-916.69C999.77,-985.88 1112.46,-1411.06 1272,-1728 1392.34,-1967.07 1419.85,-2048.13 1633,-2210 1737.66,-2289.48 1769.08,-2336 1900.5,-2336 1900.5,-2336 1900.5,-2336 2078.5,-2336 2279.31,-2336 2376.92,-2448.96 2530,-2319 2591.2,-2267.05 2510.68,-2200.18 2566,-2142 2566.24,-2141.74 2566.49,-2141.49 2566.74,-2141.24"/>
<polygon fill="midnightblue" stroke="midnightblue" points="2569,-2143.93 2574.91,-2135.13 2564.8,-2138.32 2569,-2143.93"/>
</g>
<!-- Node27&#45;&gt;Node7 -->
<g id="edge88" class="edge">
<title>Node27&#45;&gt;Node7</title>
<path fill="none" stroke="midnightblue" d="M982.88,-897.24C1001.63,-844.88 1098.21,-595.91 1272,-498 1515.87,-360.61 2282.88,-303.54 2530,-435 2638.83,-492.89 2640.26,-550.14 2685,-665 2787.59,-928.4 2794.16,-1280.73 2794.15,-1367.22"/>
<polygon fill="midnightblue" stroke="midnightblue" points="2790.65,-1367.22 2794.11,-1377.23 2797.65,-1367.24 2790.65,-1367.22"/>
</g>
<!-- Node27&#45;&gt;Node13 -->
<g id="edge97" class="edge">
<title>Node27&#45;&gt;Node13</title>
<path fill="none" stroke="midnightblue" d="M975.4,-916.61C958.5,-986.94 844.6,-1418.2 817.35,-1515.57"/>
<polygon fill="midnightblue" stroke="midnightblue" points="813.95,-1514.73 814.59,-1525.3 820.69,-1516.63 813.95,-1514.73"/>
</g>
<!-- Node28 -->
<g id="node28" class="node">
<title>Node28</title>
<g id="a_node28"><a xlink:href="../../d0/dfe/class_syntax_analyzer.html#aea3a3d1860938d64edf651bdc4016c04" target="_top" xlink:title=" ">
<polygon fill="none" stroke="black" points="1090.5,-786.5 1090.5,-805.5 1229.5,-805.5 1229.5,-786.5 1090.5,-786.5"/>
<text text-anchor="middle" x="1160" y="-793.5" font-family="Helvetica,sans-Serif" font-size="10.00">SyntaxAnalyzer::syntaxIterSt</text>
</a>
</g>
</g>
<!-- Node27&#45;&gt;Node28 -->
<g id="edge89" class="edge">
<title>Node27&#45;&gt;Node28</title>
<path fill="none" stroke="midnightblue" d="M995.12,-897.34C1026.49,-877.94 1097.37,-834.11 1134.8,-810.97"/>
<polygon fill="midnightblue" stroke="midnightblue" points="1136.88,-813.79 1143.55,-805.55 1133.2,-807.84 1136.88,-813.79"/>
</g>
<!-- Node28&#45;&gt;Node2 -->
<g id="edge90" class="edge">
<title>Node28&#45;&gt;Node2</title>
<path fill="none" stroke="midnightblue" d="M1163.65,-786.48C1172.98,-754.64 1207.3,-650.71 1272,-594 1364.17,-513.21 1406.44,-494 1529,-494 1529,-494 1529,-494 2260.5,-494 2380.71,-494 2428.82,-452.08 2530,-517 2583.87,-551.56 2610.11,-628.31 2619.85,-664.45"/>
<polygon fill="midnightblue" stroke="midnightblue" points="2616.49,-665.45 2622.35,-674.28 2623.27,-663.72 2616.49,-665.45"/>
</g>
<!-- Node28&#45;&gt;Node3 -->
<g id="edge92" class="edge">
<title>Node28&#45;&gt;Node3</title>
<path fill="none" stroke="midnightblue" d="M1161.68,-786.43C1165.12,-745.54 1184.01,-583.71 1272,-498 1448.7,-325.89 1578.25,-431.99 1797,-318 1933.38,-246.93 1922.71,-114 2076.5,-114 2076.5,-114 2076.5,-114 2260.5,-114 2454.33,-114 2563.72,-62.8 2685,-214 2699.05,-231.51 2771.32,-560.7 2789.73,-645.31"/>
<polygon fill="midnightblue" stroke="midnightblue" points="2786.33,-646.15 2791.87,-655.18 2793.17,-644.66 2786.33,-646.15"/>
</g>
<!-- Node28&#45;&gt;Node4 -->
<g id="edge94" class="edge">
<title>Node28&#45;&gt;Node4</title>
<path fill="none" stroke="midnightblue" d="M1160.88,-786.3C1160.8,-738.15 1166.53,-522.1 1272,-399 1397.34,-252.7 1883.85,-76 2076.5,-76 2076.5,-76 2076.5,-76 2451,-76 2507.76,-76 2676.03,-167.63 2685,-175 2730.84,-212.69 2767.6,-273.73 2784.29,-304.3"/>
<polygon fill="midnightblue" stroke="midnightblue" points="2781.36,-306.25 2789.16,-313.42 2787.53,-302.95 2781.36,-306.25"/>
</g>
<!-- Node28&#45;&gt;Node6 -->
<g id="edge91" class="edge">
<title>Node28&#45;&gt;Node6</title>
<path fill="none" stroke="midnightblue" d="M1160.72,-805.71C1159.06,-873.22 1154.51,-1278.84 1272,-1577 1349.92,-1774.75 1687.95,-2298 1900.5,-2298 1900.5,-2298 1900.5,-2298 2078.5,-2298 2178.85,-2298 2451.64,-2353.68 2530,-2291 2583.2,-2248.45 2518.16,-2190.51 2566,-2142 2566.16,-2141.84 2566.32,-2141.68 2566.49,-2141.52"/>
<polygon fill="midnightblue" stroke="midnightblue" points="2568.79,-2144.16 2574.74,-2135.39 2564.63,-2138.54 2568.79,-2144.16"/>
</g>
<!-- Node28&#45;&gt;Node7 -->
<g id="edge93" class="edge">
<title>Node28&#45;&gt;Node7</title>
<path fill="none" stroke="midnightblue" d="M1170.86,-786.42C1211.39,-748.11 1370.45,-608 1529,-608 1529,-608 1529,-608 1716,-608 2165.67,-608 2388.78,-560.69 2685,-899 2748.49,-971.51 2783.85,-1285.4 2792.11,-1367.36"/>
<polygon fill="midnightblue" stroke="midnightblue" points="2788.63,-1367.73 2793.09,-1377.34 2795.59,-1367.04 2788.63,-1367.73"/>
</g>
<!-- Node28&#45;&gt;Node16 -->
<g id="edge95" class="edge">
<title>Node28&#45;&gt;Node16</title>
<path fill="none" stroke="midnightblue" d="M1166.21,-805.56C1191.76,-852.43 1303.91,-1058.2 1338.39,-1121.44"/>
<polygon fill="midnightblue" stroke="midnightblue" points="1335.37,-1123.22 1343.23,-1130.32 1341.51,-1119.87 1335.37,-1123.22"/>
</g>
<!-- Node28&#45;&gt;Node21 -->
<g id="edge96" class="edge">
<title>Node28&#45;&gt;Node21</title>
<path fill="none" stroke="midnightblue" d="M1161.5,-805.68C1165.05,-870.76 1188.92,-1243.92 1272,-1311 1512.56,-1505.23 1936.68,-1321.98 2048.72,-1267.94"/>
<polygon fill="midnightblue" stroke="midnightblue" points="2050.25,-1271.09 2057.71,-1263.56 2047.18,-1264.8 2050.25,-1271.09"/>
</g>
<!-- Node29&#45;&gt;Node2 -->
<g id="edge99" class="edge">
<title>Node29&#45;&gt;Node2</title>
<path fill="none" stroke="midnightblue" d="M1358.03,-1282.35C1373.97,-1261.33 1410.97,-1209.25 1427,-1159 1477.89,-999.49 1387.4,-933.39 1463,-784 1560.74,-590.86 1684.04,-570 1900.5,-570 1900.5,-570 1900.5,-570 2260.5,-570 2380.75,-570 2420.44,-544.43 2530,-594 2565.22,-609.94 2595.47,-644.61 2611.73,-665.96"/>
<polygon fill="midnightblue" stroke="midnightblue" points="2609.06,-668.24 2617.82,-674.21 2614.69,-664.08 2609.06,-668.24"/>
</g>
<!-- Node29&#45;&gt;Node6 -->
<g id="edge100" class="edge">
<title>Node29&#45;&gt;Node6</title>
<path fill="none" stroke="midnightblue" d="M1355.04,-1301.79C1368.23,-1329.4 1409.12,-1409.1 1463,-1458 1588.17,-1571.62 1689.03,-1509.91 1797,-1640 1830.12,-1679.91 1811.29,-1703.9 1833,-1751 1894.56,-1884.53 1904.55,-1926.56 2006,-2033 2072.43,-2102.69 2094.84,-2121.24 2185,-2155 2328.89,-2208.88 2387.64,-2234.8 2530,-2177 2550.68,-2168.61 2546.54,-2152.92 2566,-2142 2566.82,-2141.54 2567.65,-2141.09 2568.5,-2140.66"/>
<polygon fill="midnightblue" stroke="midnightblue" points="2570.2,-2143.74 2577.95,-2136.52 2567.39,-2137.33 2570.2,-2143.74"/>
</g>
<!-- Node29&#45;&gt;Node7 -->
<g id="edge101" class="edge">
<title>Node29&#45;&gt;Node7</title>
<path fill="none" stroke="midnightblue" d="M1356.78,-1282.48C1400.11,-1216.99 1654.77,-836 1714,-836 1714,-836 1714,-836 1902.5,-836 1991.07,-836 2620.07,-927.76 2685,-988 2742.46,-1041.32 2781.19,-1293.88 2791.35,-1367.08"/>
<polygon fill="midnightblue" stroke="midnightblue" points="2787.91,-1367.79 2792.73,-1377.23 2794.85,-1366.85 2787.91,-1367.79"/>
</g>
<!-- Node29&#45;&gt;Node13 -->
<g id="edge103" class="edge">
<title>Node29&#45;&gt;Node13</title>
<path fill="none" stroke="midnightblue" d="M1332.73,-1301.62C1260.12,-1339.74 956.94,-1477.33 849.47,-1521.49"/>
<polygon fill="midnightblue" stroke="midnightblue" points="847.94,-1518.34 839.99,-1525.35 850.57,-1524.82 847.94,-1518.34"/>
</g>
<!-- Node29&#45;&gt;Node17 -->
<g id="edge102" class="edge">
<title>Node29&#45;&gt;Node17</title>
<path fill="none" stroke="midnightblue" d="M1373.11,-1282.37C1404.49,-1269.01 1461.42,-1244.77 1497.11,-1229.58"/>
<polygon fill="midnightblue" stroke="midnightblue" points="1498.75,-1232.69 1506.58,-1225.55 1496,-1226.24 1498.75,-1232.69"/>
</g>
<!-- Node30&#45;&gt;Node2 -->
<g id="edge105" class="edge">
<title>Node30&#45;&gt;Node2</title>
<path fill="none" stroke="midnightblue" d="M1415.37,-1548.46C1419.71,-1545.93 1423.68,-1542.82 1427,-1539 1477.17,-1481.35 1440.59,-1270.06 1463,-1197 1500.08,-1076.1 1547.37,-1062.31 1597,-946 1617.19,-898.69 1595.77,-871.49 1633,-836 1765.96,-709.26 2353.08,-688.18 2555.57,-684.69"/>
<polygon fill="midnightblue" stroke="midnightblue" points="2555.83,-688.19 2565.77,-684.52 2555.72,-681.19 2555.83,-688.19"/>
</g>
<!-- Node30&#45;&gt;Node6 -->
<g id="edge106" class="edge">
<title>Node30&#45;&gt;Node6</title>
<path fill="none" stroke="midnightblue" d="M1399.15,-1567.6C1409.01,-1571.05 1418.85,-1575.71 1427,-1582 1695.77,-1789.39 1543.05,-2052.43 1833,-2229 1866.14,-2249.18 2499.16,-2297.55 2530,-2274 2578.33,-2237.09 2522.67,-2184.67 2566,-2142 2566.16,-2141.84 2566.33,-2141.68 2566.49,-2141.52"/>
<polygon fill="midnightblue" stroke="midnightblue" points="2568.79,-2144.18 2574.83,-2135.48 2564.68,-2138.52 2568.79,-2144.18"/>
</g>
<!-- Node30&#45;&gt;Node7 -->
<g id="edge107" class="edge">
<title>Node30&#45;&gt;Node7</title>
<path fill="none" stroke="midnightblue" d="M1426.34,-1553.26C1515.18,-1547.71 1666.77,-1538.22 1797,-1530 1873.89,-1525.14 1893.23,-1525.51 1970,-1519 2133.16,-1505.16 2187.61,-1535.37 2334,-1462 2353.14,-1452.41 2350.4,-1438.61 2370,-1430 2430.64,-1403.36 2613.85,-1392.95 2718.52,-1389.1"/>
<polygon fill="midnightblue" stroke="midnightblue" points="2718.84,-1392.59 2728.71,-1388.74 2718.59,-1385.6 2718.84,-1392.59"/>
</g>
<!-- Node30&#45;&gt;Node17 -->
<g id="edge108" class="edge">
<title>Node30&#45;&gt;Node17</title>
<path fill="none" stroke="midnightblue" d="M1413.09,-1548.43C1418.17,-1545.94 1422.91,-1542.84 1427,-1539 1516.82,-1454.62 1527.94,-1291.94 1529.02,-1235.7"/>
<polygon fill="midnightblue" stroke="midnightblue" points="1532.52,-1235.69 1529.12,-1225.65 1525.52,-1235.61 1532.52,-1235.69"/>
</g>
<!-- Node31&#45;&gt;Node2 -->
<g id="edge110" class="edge">
<title>Node31&#45;&gt;Node2</title>
<path fill="none" stroke="midnightblue" d="M1354.93,-1510.23C1368.11,-1480.79 1407.31,-1390.11 1427,-1311 1455.29,-1197.37 1422.53,-1159.88 1463,-1050 1511.49,-918.34 1524.14,-872.51 1633,-784 1892.5,-573.02 2036.38,-655.49 2370,-632 2440.94,-627.01 2461.13,-614.3 2530,-632 2557.43,-639.05 2585.44,-655.92 2603.76,-668.55"/>
<polygon fill="midnightblue" stroke="midnightblue" points="2601.75,-671.41 2611.93,-674.34 2605.8,-665.7 2601.75,-671.41"/>
</g>
<!-- Node31&#45;&gt;Node6 -->
<g id="edge111" class="edge">
<title>Node31&#45;&gt;Node6</title>
<path fill="none" stroke="midnightblue" d="M1410.53,-1529.52C1464.73,-1540.8 1543.89,-1564.32 1597,-1611 1729.25,-1727.26 1735.11,-1788.15 1797,-1953 1826.9,-2032.64 1776.85,-2077.09 1833,-2141 1884.59,-2199.72 2465.6,-2280.3 2530,-2236 2566.86,-2210.65 2532.6,-2171.77 2566,-2142 2566.17,-2141.85 2566.33,-2141.7 2566.5,-2141.56"/>
<polygon fill="midnightblue" stroke="midnightblue" points="2568.51,-2144.43 2574.83,-2135.93 2564.58,-2138.63 2568.51,-2144.43"/>
</g>
<!-- Node31&#45;&gt;Node7 -->
<g id="edge112" class="edge">
<title>Node31&#45;&gt;Node7</title>
<path fill="none" stroke="midnightblue" d="M1424.02,-1521.42C1565.46,-1522.96 1884.82,-1520.69 2149,-1477 2233.26,-1463.06 2259.38,-1466.54 2334,-1425 2352.96,-1414.44 2349.82,-1399.99 2370,-1392 2494.52,-1342.72 2656.17,-1360.95 2739.31,-1375.63"/>
<polygon fill="midnightblue" stroke="midnightblue" points="2738.83,-1379.1 2749.29,-1377.44 2740.08,-1372.21 2738.83,-1379.1"/>
</g>
<!-- Node31&#45;&gt;Node13 -->
<g id="edge114" class="edge">
<title>Node31&#45;&gt;Node13</title>
<path fill="none" stroke="midnightblue" d="M1274.79,-1526.88C1171.64,-1532.35 985.44,-1537.53 883.32,-1537.77"/>
<polygon fill="midnightblue" stroke="midnightblue" points="883.1,-1534.27 873.1,-1537.77 883.1,-1541.27 883.1,-1534.27"/>
</g>
<!-- Node31&#45;&gt;Node17 -->
<g id="edge113" class="edge">
<title>Node31&#45;&gt;Node17</title>
<path fill="none" stroke="midnightblue" d="M1356.24,-1510.23C1381.68,-1466.9 1484.54,-1291.72 1518.25,-1234.31"/>
<polygon fill="midnightblue" stroke="midnightblue" points="1521.33,-1235.98 1523.37,-1225.58 1515.29,-1232.43 1521.33,-1235.98"/>
</g>
<!-- Node32&#45;&gt;Node6 -->
<g id="edge116" class="edge">
<title>Node32&#45;&gt;Node6</title>
<path fill="none" stroke="midnightblue" d="M2300.36,-1871.58C2311.32,-1874.41 2323.17,-1877.65 2334,-1881 2350.25,-1886.02 2353.71,-1889.09 2370,-1894 2440.08,-1915.13 2473.01,-1887.07 2530,-1933 2586.94,-1978.88 2611.99,-2067.58 2620.68,-2107.13"/>
<polygon fill="midnightblue" stroke="midnightblue" points="2617.29,-2108.03 2622.74,-2117.11 2624.14,-2106.61 2617.29,-2108.03"/>
</g>
<!-- Node32&#45;&gt;Node7 -->
<g id="edge117" class="edge">
<title>Node32&#45;&gt;Node7</title>
<path fill="none" stroke="midnightblue" d="M2307.54,-1852.49C2317,-1849.03 2326.36,-1844.35 2334,-1838 2359.69,-1816.64 2343.75,-1792.67 2370,-1772 2427.85,-1726.45 2460.47,-1753.23 2530,-1729 2600.87,-1704.31 2632.75,-1715.87 2685,-1662 2758.14,-1586.58 2783.99,-1456.1 2791.43,-1406.71"/>
<polygon fill="midnightblue" stroke="midnightblue" points="2794.9,-1407.1 2792.84,-1396.71 2787.97,-1406.12 2794.9,-1407.1"/>
</g>
<!-- Node33 -->
<g id="node33" class="node">
<title>Node33</title>
<g id="a_node33"><a xlink:href="../../d0/dfe/class_syntax_analyzer.html#adad79b2219ae143b49203a836713bec9" target="_top" xlink:title=" ">
<polygon fill="none" stroke="black" points="2370,-1700.5 2370,-1719.5 2530,-1719.5 2530,-1700.5 2370,-1700.5"/>
<text text-anchor="middle" x="2450" y="-1707.5" font-family="Helvetica,sans-Serif" font-size="10.00">SyntaxAnalyzer::syntaxConstDecl</text>
</a>
</g>
</g>
<!-- Node32&#45;&gt;Node33 -->
<g id="edge118" class="edge">
<title>Node32&#45;&gt;Node33</title>
<path fill="none" stroke="midnightblue" d="M2311.04,-1852.38C2319.49,-1848.95 2327.58,-1844.3 2334,-1838 2368.89,-1803.72 2334.76,-1767.92 2370,-1734 2374.23,-1729.92 2379.14,-1726.54 2384.39,-1723.73"/>
<polygon fill="midnightblue" stroke="midnightblue" points="2385.89,-1726.89 2393.5,-1719.51 2382.95,-1720.54 2385.89,-1726.89"/>
</g>
<!-- Node33&#45;&gt;Node2 -->
<g id="edge119" class="edge">
<title>Node33&#45;&gt;Node2</title>
<path fill="none" stroke="midnightblue" d="M2458.49,-1700.3C2474.73,-1678.66 2513.09,-1624.27 2530,-1572 2584.98,-1402.12 2617.53,-819.04 2623.5,-703.86"/>
<polygon fill="midnightblue" stroke="midnightblue" points="2627,-703.85 2624.02,-693.68 2620.01,-703.49 2627,-703.85"/>
</g>
<!-- Node33&#45;&gt;Node6 -->
<g id="edge120" class="edge">
<title>Node33&#45;&gt;Node6</title>
<path fill="none" stroke="midnightblue" d="M2461.28,-1719.53C2478.04,-1735.59 2511.24,-1769.79 2530,-1805 2586.54,-1911.1 2613.33,-2055.38 2621.6,-2107.34"/>
<polygon fill="midnightblue" stroke="midnightblue" points="2618.14,-2107.89 2623.12,-2117.24 2625.06,-2106.82 2618.14,-2107.89"/>
</g>
<!-- Node33&#45;&gt;Node7 -->
<g id="edge122" class="edge">
<title>Node33&#45;&gt;Node7</title>
<path fill="none" stroke="midnightblue" d="M2504.26,-1700.41C2556.28,-1688.55 2634.75,-1663.64 2685,-1615 2747.93,-1554.08 2778.99,-1449.53 2789.63,-1406.44"/>
<polygon fill="midnightblue" stroke="midnightblue" points="2793.04,-1407.19 2791.94,-1396.65 2786.23,-1405.58 2793.04,-1407.19"/>
</g>
<!-- Node33&#45;&gt;Node9 -->
<g id="edge123" class="edge">
<title>Node33&#45;&gt;Node9</title>
<path fill="none" stroke="midnightblue" d="M2501.59,-1700.41C2511.64,-1696.97 2521.65,-1692.31 2530,-1686 2553.6,-1668.16 2544.61,-1650.45 2566,-1630 2574.04,-1622.31 2584.14,-1615.66 2593.68,-1610.32"/>
<polygon fill="midnightblue" stroke="midnightblue" points="2595.36,-1613.4 2602.56,-1605.63 2592.08,-1607.21 2595.36,-1613.4"/>
</g>
<!-- Node33&#45;&gt;Node22 -->
<g id="edge121" class="edge">
<title>Node33&#45;&gt;Node22</title>
<path fill="none" stroke="midnightblue" d="M2461.85,-1719.51C2490.7,-1744.78 2569.54,-1813.85 2605.8,-1845.62"/>
<polygon fill="midnightblue" stroke="midnightblue" points="2603.82,-1848.54 2613.65,-1852.5 2608.44,-1843.27 2603.82,-1848.54"/>
</g>
<!-- Node34&#45;&gt;Node6 -->
<g id="edge125" class="edge">
<title>Node34&#45;&gt;Node6</title>
<path fill="none" stroke="midnightblue" d="M2145.4,-2493.61C2256.48,-2501.47 2472.48,-2510.06 2530,-2464 2581.01,-2423.15 2613.01,-2213.05 2621.94,-2146.94"/>
<polygon fill="midnightblue" stroke="midnightblue" points="2625.46,-2147.03 2623.3,-2136.66 2618.52,-2146.11 2625.46,-2147.03"/>
</g>
<!-- Node34&#45;&gt;Node7 -->
<g id="edge126" class="edge">
<title>Node34&#45;&gt;Node7</title>
<path fill="none" stroke="midnightblue" d="M2103.23,-2497.57C2176.46,-2524.18 2395.5,-2590.95 2530,-2495 2668.16,-2396.43 2638.05,-2309.1 2685,-2146 2726.97,-2000.19 2780.62,-1512.24 2791.87,-1407.08"/>
<polygon fill="midnightblue" stroke="midnightblue" points="2795.38,-1407.22 2792.96,-1396.91 2788.42,-1406.48 2795.38,-1407.22"/>
</g>
<!-- Node34&#45;&gt;Node35 -->
<g id="edge127" class="edge">
<title>Node34&#45;&gt;Node35</title>
<path fill="none" stroke="midnightblue" d="M2081.47,-2478.28C2102.12,-2410.85 2224.09,-2012.41 2252.56,-1919.4"/>
<polygon fill="midnightblue" stroke="midnightblue" points="2255.97,-1920.21 2255.56,-1909.62 2249.28,-1918.16 2255.97,-1920.21"/>
</g>
<!-- Node35&#45;&gt;Node2 -->
<g id="edge128" class="edge">
<title>Node35&#45;&gt;Node2</title>
<path fill="none" stroke="midnightblue" d="M2321.98,-1890.41C2326.46,-1887.91 2330.56,-1884.82 2334,-1881 2405.39,-1801.91 2319.29,-1737.7 2370,-1644 2415.4,-1560.12 2486.1,-1585.67 2530,-1501 2605.45,-1355.46 2621.58,-813.69 2624.1,-703.6"/>
<polygon fill="midnightblue" stroke="midnightblue" points="2627.6,-703.64 2624.32,-693.57 2620.6,-703.49 2627.6,-703.64"/>
</g>
<!-- Node35&#45;&gt;Node6 -->
<g id="edge129" class="edge">
<title>Node35&#45;&gt;Node6</title>
<path fill="none" stroke="midnightblue" d="M2294.5,-1909.53C2348.2,-1925.7 2454.32,-1962.28 2530,-2018 2565.25,-2043.95 2596.42,-2085.28 2612.65,-2108.89"/>
<polygon fill="midnightblue" stroke="midnightblue" points="2609.81,-2110.94 2618.3,-2117.28 2615.61,-2107.03 2609.81,-2110.94"/>
</g>
<!-- Node35&#45;&gt;Node7 -->
<g id="edge130" class="edge">
<title>Node35&#45;&gt;Node7</title>
<path fill="none" stroke="midnightblue" d="M2318.3,-1890.42C2323.96,-1887.95 2329.33,-1884.86 2334,-1881 2362.81,-1857.19 2341.17,-1828.78 2370,-1805 2426.63,-1758.29 2460.16,-1786.6 2530,-1764 2600.44,-1741.21 2633.78,-1756.46 2685,-1703 2768.59,-1615.76 2788.31,-1461.42 2792.76,-1406.82"/>
<polygon fill="midnightblue" stroke="midnightblue" points="2796.26,-1406.97 2793.5,-1396.74 2789.28,-1406.46 2796.26,-1406.97"/>
</g>
<!-- Node35&#45;&gt;Node9 -->
<g id="edge131" class="edge">
<title>Node35&#45;&gt;Node9</title>
<path fill="none" stroke="midnightblue" d="M2321.48,-1890.47C2326.12,-1887.96 2330.4,-1884.85 2334,-1881 2392.74,-1818.26 2311.56,-1754.02 2370,-1691 2420.07,-1637.01 2461.69,-1675.5 2530,-1648 2543.66,-1642.5 2576.22,-1624.12 2599.29,-1610.77"/>
<polygon fill="midnightblue" stroke="midnightblue" points="2601.33,-1613.64 2608.21,-1605.58 2597.81,-1607.58 2601.33,-1613.64"/>
</g>
<!-- Node35&#45;&gt;Node36 -->
<g id="edge132" class="edge">
<title>Node35&#45;&gt;Node36</title>
<path fill="none" stroke="midnightblue" d="M2303.72,-1890.42C2313.78,-1887.75 2324.37,-1884.59 2334,-1881 2365.79,-1869.16 2400.44,-1851.24 2423.31,-1838.66"/>
<polygon fill="midnightblue" stroke="midnightblue" points="2425.31,-1841.55 2432.35,-1833.63 2421.91,-1835.44 2425.31,-1841.55"/>
</g>
<!-- Node36&#45;&gt;Node2 -->
<g id="edge133" class="edge">
<title>Node36&#45;&gt;Node2</title>
<path fill="none" stroke="midnightblue" d="M2462.65,-1814.34C2480.71,-1798.59 2514.92,-1765.48 2530,-1729 2570.69,-1630.54 2615.93,-839.43 2623.42,-703.76"/>
<polygon fill="midnightblue" stroke="midnightblue" points="2626.93,-703.78 2623.98,-693.6 2619.94,-703.4 2626.93,-703.78"/>
</g>
<!-- Node36&#45;&gt;Node4 -->
<g id="edge137" class="edge">
<title>Node36&#45;&gt;Node4</title>
<path fill="none" stroke="midnightblue" d="M2469.5,-1814.45C2516.02,-1789.28 2637.49,-1716.05 2685,-1615 2730.84,-1517.5 2707.06,-752.84 2721,-646 2736.24,-529.14 2773.88,-392.32 2788.28,-342.44"/>
<polygon fill="midnightblue" stroke="midnightblue" points="2791.69,-343.24 2791.12,-332.66 2784.97,-341.28 2791.69,-343.24"/>
</g>
<!-- Node36&#45;&gt;Node6 -->
<g id="edge134" class="edge">
<title>Node36&#45;&gt;Node6</title>
<path fill="none" stroke="midnightblue" d="M2480.34,-1833.58C2496.91,-1840.32 2516.87,-1850.87 2530,-1866 2594.05,-1939.8 2615.92,-2060.45 2622.25,-2107.42"/>
<polygon fill="midnightblue" stroke="midnightblue" points="2618.79,-2107.98 2623.51,-2117.47 2625.74,-2107.11 2618.79,-2107.98"/>
</g>
<!-- Node36&#45;&gt;Node7 -->
<g id="edge136" class="edge">
<title>Node36&#45;&gt;Node7</title>
<path fill="none" stroke="midnightblue" d="M2498.33,-1833.52C2550.38,-1841.07 2633.48,-1844.06 2685,-1800 2746.78,-1747.17 2782.69,-1481.91 2791.73,-1406.83"/>
<polygon fill="midnightblue" stroke="midnightblue" points="2795.21,-1407.16 2792.9,-1396.82 2788.26,-1406.35 2795.21,-1407.16"/>
</g>
<!-- Node36&#45;&gt;Node22 -->
<g id="edge135" class="edge">
<title>Node36&#45;&gt;Node22</title>
<path fill="none" stroke="midnightblue" d="M2494.78,-1833.59C2517.99,-1838.67 2546.68,-1844.96 2571.17,-1850.32"/>
<polygon fill="midnightblue" stroke="midnightblue" points="2570.52,-1853.76 2581.03,-1852.48 2572.01,-1846.92 2570.52,-1853.76"/>
</g>
<!-- Node36&#45;&gt;Node36 -->
<g id="edge138" class="edge">
<title>Node36&#45;&gt;Node36</title>
<path fill="none" stroke="midnightblue" d="M2423.18,-1833.76C2410.13,-1842.57 2419.07,-1852 2450,-1852 2470.78,-1852 2481.63,-1847.74 2482.56,-1842.27"/>
<polygon fill="midnightblue" stroke="midnightblue" points="2485.31,-1840.09 2476.82,-1833.76 2479.51,-1844.01 2485.31,-1840.09"/>
</g>
</g>
</svg>
