<?xml version="1.0" encoding="UTF-8" standalone="no"?>
<!DOCTYPE svg PUBLIC "-//W3C//DTD SVG 1.1//EN"
 "http://www.w3.org/Graphics/SVG/1.1/DTD/svg11.dtd">
<!-- Generated by graphviz version 3.0.0 (20220413.0106)
 -->
<!-- Title: SyntaxAnalyzer::syntaxAssignSt Pages: 1 -->
<svg width="1410pt" height="857pt"
 viewBox="0.00 0.00 1410.00 857.37" xmlns="http://www.w3.org/2000/svg" xmlns:xlink="http://www.w3.org/1999/xlink">
<g id="graph0" class="graph" transform="scale(1 1) rotate(0) translate(4 853.37)">
<title>SyntaxAnalyzer::syntaxAssignSt</title>
<!-- Node1 -->
<g id="node1" class="node">
<title>Node1</title>
<g id="a_node1"><a xlink:title=" ">
<polygon fill="#bfbfbf" stroke="black" points="0,-199.5 0,-218.5 155,-218.5 155,-199.5 0,-199.5"/>
<text text-anchor="middle" x="77.5" y="-206.5" font-family="Helvetica,sans-Serif" font-size="10.00">SyntaxAnalyzer::syntaxAssignSt</text>
</a>
</g>
</g>
<!-- Node2 -->
<g id="node2" class="node">
<title>Node2</title>
<g id="a_node2"><a xlink:href="../../d7/d7c/class_a_s_t_factory.html#a64619ed3c409fbb187debf67bc39d484" target="_top" xlink:title=" ">
<polygon fill="none" stroke="black" points="1099,-674.5 1099,-693.5 1218,-693.5 1218,-674.5 1099,-674.5"/>
<text text-anchor="middle" x="1158.5" y="-681.5" font-family="Helvetica,sans-Serif" font-size="10.00">ASTFactory::createAST</text>
</a>
</g>
</g>
<!-- Node1&#45;&gt;Node2 -->
<g id="edge1" class="edge">
<title>Node1&#45;&gt;Node2</title>
<path fill="none" stroke="midnightblue" d="M80.62,-218.84C93.86,-277.84 170.96,-586.84 361,-729 547,-868.14 645.96,-835.96 877,-812 961.01,-803.29 988.12,-812.08 1063,-773 1072.1,-768.25 1116.15,-725.14 1140.77,-700.71"/>
<polygon fill="midnightblue" stroke="midnightblue" points="1143.39,-703.04 1148.01,-693.51 1138.45,-698.08 1143.39,-703.04"/>
</g>
<!-- Node5 -->
<g id="node5" class="node">
<title>Node5</title>
<g id="a_node5"><a xlink:href="../../d0/dfe/class_syntax_analyzer.html#ae1d3434e5cc4b4bcd5a3a245814a44f0" target="_top" xlink:title=" ">
<polygon fill="none" stroke="black" points="1108,-256.5 1108,-275.5 1209,-275.5 1209,-256.5 1108,-256.5"/>
<text text-anchor="middle" x="1158.5" y="-263.5" font-family="Helvetica,sans-Serif" font-size="10.00">SyntaxAnalyzer::eat</text>
</a>
</g>
</g>
<!-- Node1&#45;&gt;Node5 -->
<g id="edge4" class="edge">
<title>Node1&#45;&gt;Node5</title>
<path fill="none" stroke="midnightblue" d="M135.29,-199.48C288.34,-175.88 720.87,-122.86 1063,-213 1090.67,-220.29 1118.82,-237.63 1137.11,-250.5"/>
<polygon fill="midnightblue" stroke="midnightblue" points="1135.1,-253.37 1145.25,-256.4 1139.21,-247.7 1135.1,-253.37"/>
</g>
<!-- Node6 -->
<g id="node6" class="node">
<title>Node6</title>
<g id="a_node6"><a xlink:href="../../d0/dfe/class_syntax_analyzer.html#a3ae6c7319e61cd669c417f189b098374" target="_top" xlink:title=" ">
<polygon fill="none" stroke="black" points="1262,-256.5 1262,-275.5 1394,-275.5 1394,-256.5 1262,-256.5"/>
<text text-anchor="middle" x="1328" y="-263.5" font-family="Helvetica,sans-Serif" font-size="10.00">SyntaxAnalyzer::getCurTok</text>
</a>
</g>
</g>
<!-- Node1&#45;&gt;Node6 -->
<g id="edge7" class="edge">
<title>Node1&#45;&gt;Node6</title>
<path fill="none" stroke="midnightblue" d="M86.97,-199.48C124.32,-158.59 279.67,0 442,0 442,0 442,0 989,0 1149.22,0 1278.29,-186.85 1315.89,-247.34"/>
<polygon fill="midnightblue" stroke="midnightblue" points="1313.11,-249.51 1321.31,-256.22 1319.08,-245.86 1313.11,-249.51"/>
</g>
<!-- Node8 -->
<g id="node8" class="node">
<title>Node8</title>
<g id="a_node8"><a xlink:href="../../d0/dfe/class_syntax_analyzer.html#a53b0048490647d82a92a77ed1ffb013d" target="_top" xlink:title=" ">
<polygon fill="none" stroke="black" points="191,-484.5 191,-503.5 325,-503.5 325,-484.5 191,-484.5"/>
<text text-anchor="middle" x="258" y="-491.5" font-family="Helvetica,sans-Serif" font-size="10.00">SyntaxAnalyzer::syntaxExpr</text>
</a>
</g>
</g>
<!-- Node1&#45;&gt;Node8 -->
<g id="edge8" class="edge">
<title>Node1&#45;&gt;Node8</title>
<path fill="none" stroke="midnightblue" d="M84.64,-218.81C110.55,-260.18 211.12,-420.75 245.45,-475.55"/>
<polygon fill="midnightblue" stroke="midnightblue" points="242.61,-477.61 250.88,-484.23 248.54,-473.9 242.61,-477.61"/>
</g>
<!-- Node20 -->
<g id="node20" class="node">
<title>Node20</title>
<g id="a_node20"><a xlink:href="../../d0/dfe/class_syntax_analyzer.html#a8d3dc6feefe1957f1c81cbc7b8318559" target="_top" xlink:title=" ">
<polygon fill="none" stroke="black" points="913,-332.5 913,-351.5 1063,-351.5 1063,-332.5 913,-332.5"/>
<text text-anchor="middle" x="988" y="-339.5" font-family="Helvetica,sans-Serif" font-size="10.00">SyntaxAnalyzer::syntaxVariable</text>
</a>
</g>
</g>
<!-- Node1&#45;&gt;Node20 -->
<g id="edge52" class="edge">
<title>Node1&#45;&gt;Node20</title>
<path fill="none" stroke="midnightblue" d="M143.47,-218.51C307.43,-242.51 737.27,-305.44 911.76,-330.99"/>
<polygon fill="midnightblue" stroke="midnightblue" points="911.48,-334.48 921.88,-332.47 912.49,-327.55 911.48,-334.48"/>
</g>
<!-- Node3 -->
<g id="node3" class="node">
<title>Node3</title>
<g id="a_node3"><a xlink:href="../../d0/d11/class_i_token.html#ac8ca7f7e601ae49ad573167a4e9429cb" target="_top" xlink:title=" ">
<polygon fill="none" stroke="black" points="1276.5,-645.5 1276.5,-664.5 1379.5,-664.5 1379.5,-645.5 1276.5,-645.5"/>
<text text-anchor="middle" x="1328" y="-652.5" font-family="Helvetica,sans-Serif" font-size="10.00">IToken::getAdvType</text>
</a>
</g>
</g>
<!-- Node2&#45;&gt;Node3 -->
<g id="edge2" class="edge">
<title>Node2&#45;&gt;Node3</title>
<path fill="none" stroke="midnightblue" d="M1214.81,-674.42C1231.22,-671.58 1249.29,-668.45 1266.04,-665.55"/>
<polygon fill="midnightblue" stroke="midnightblue" points="1267.02,-668.94 1276.28,-663.78 1265.83,-662.04 1267.02,-668.94"/>
</g>
<!-- Node4 -->
<g id="node4" class="node">
<title>Node4</title>
<g id="a_node4"><a xlink:href="../../d0/d11/class_i_token.html#a568cb9d98839eff3fd758f419a76b092" target="_top" xlink:title="Получение типа токена">
<polygon fill="none" stroke="black" points="1285,-702.5 1285,-721.5 1371,-721.5 1371,-702.5 1285,-702.5"/>
<text text-anchor="middle" x="1328" y="-709.5" font-family="Helvetica,sans-Serif" font-size="10.00">IToken::getType</text>
</a>
</g>
</g>
<!-- Node2&#45;&gt;Node4 -->
<g id="edge3" class="edge">
<title>Node2&#45;&gt;Node4</title>
<path fill="none" stroke="midnightblue" d="M1216.68,-693.56C1235.55,-696.71 1256.43,-700.2 1274.9,-703.29"/>
<polygon fill="midnightblue" stroke="midnightblue" points="1274.44,-706.76 1284.88,-704.96 1275.6,-699.86 1274.44,-706.76"/>
</g>
<!-- Node5&#45;&gt;Node6 -->
<g id="edge5" class="edge">
<title>Node5&#45;&gt;Node6</title>
<path fill="none" stroke="midnightblue" d="M1209.3,-266C1222.57,-266 1237.21,-266 1251.52,-266"/>
<polygon fill="midnightblue" stroke="midnightblue" points="1251.86,-269.5 1261.86,-266 1251.86,-262.5 1251.86,-269.5"/>
</g>
<!-- Node7 -->
<g id="node7" class="node">
<title>Node7</title>
<g id="a_node7"><a xlink:href="../../d0/dfe/class_syntax_analyzer.html#a9e41370d8d74fbd2e77648d2071e7dfe" target="_top" xlink:title=" ">
<polygon fill="none" stroke="black" points="1254,-389.5 1254,-408.5 1402,-408.5 1402,-389.5 1254,-389.5"/>
<text text-anchor="middle" x="1328" y="-396.5" font-family="Helvetica,sans-Serif" font-size="10.00">SyntaxAnalyzer::getNextToken</text>
</a>
</g>
</g>
<!-- Node5&#45;&gt;Node7 -->
<g id="edge6" class="edge">
<title>Node5&#45;&gt;Node7</title>
<path fill="none" stroke="midnightblue" d="M1171.55,-275.57C1199.9,-298.08 1271.11,-354.62 1306.45,-382.68"/>
<polygon fill="midnightblue" stroke="midnightblue" points="1304.6,-385.69 1314.61,-389.16 1308.96,-380.2 1304.6,-385.69"/>
</g>
<!-- Node8&#45;&gt;Node2 -->
<g id="edge9" class="edge">
<title>Node8&#45;&gt;Node2</title>
<path fill="none" stroke="midnightblue" d="M263.21,-503.57C275.17,-529.84 311.69,-604.19 361,-650 460.55,-742.47 492.63,-798 628.5,-798 628.5,-798 628.5,-798 806.5,-798 933.99,-798 1075.36,-729.12 1132,-698.44"/>
<polygon fill="midnightblue" stroke="midnightblue" points="1133.88,-701.4 1140.96,-693.52 1130.51,-695.27 1133.88,-701.4"/>
</g>
<!-- Node8&#45;&gt;Node4 -->
<g id="edge12" class="edge">
<title>Node8&#45;&gt;Node4</title>
<path fill="none" stroke="midnightblue" d="M260.48,-503.53C266.39,-538.53 291.45,-661.44 361,-729 429.67,-795.71 466.99,-790.9 561,-809 848.16,-864.3 942.43,-870.89 1218,-773 1250.01,-761.63 1283.65,-741.34 1304.95,-727.3"/>
<polygon fill="midnightblue" stroke="midnightblue" points="1306.92,-730.19 1313.28,-721.71 1303.02,-724.38 1306.92,-730.19"/>
</g>
<!-- Node8&#45;&gt;Node5 -->
<g id="edge10" class="edge">
<title>Node8&#45;&gt;Node5</title>
<path fill="none" stroke="midnightblue" d="M271.65,-484.31C324.44,-444.52 533.78,-293.38 734,-241 875.47,-203.99 918.38,-215.31 1063,-237 1083.57,-240.09 1105.85,-246.75 1123.6,-252.91"/>
<polygon fill="midnightblue" stroke="midnightblue" points="1122.89,-256.38 1133.49,-256.45 1125.25,-249.79 1122.89,-256.38"/>
</g>
<!-- Node8&#45;&gt;Node6 -->
<g id="edge11" class="edge">
<title>Node8&#45;&gt;Node6</title>
<path fill="none" stroke="midnightblue" d="M262.11,-484.2C271.83,-455.07 304.45,-368.06 361,-321 494.86,-209.61 563.02,-234.06 734,-201 945.31,-160.13 1014.78,-114.1 1218,-185 1255.76,-198.17 1291.34,-229.45 1311.04,-249.06"/>
<polygon fill="midnightblue" stroke="midnightblue" points="1308.75,-251.72 1318.25,-256.42 1313.76,-246.83 1308.75,-251.72"/>
</g>
<!-- Node9 -->
<g id="node9" class="node">
<title>Node9</title>
<g id="a_node9"><a xlink:href="../../df/d3f/_syntax_8hpp.html#ae7d62ca130413d4c96863327c1af81a4" target="_top" xlink:title="Возвращает истину, если value находится среди значений cont.">
<polygon fill="none" stroke="black" points="789.5,-750.5 789.5,-769.5 821.5,-769.5 821.5,-750.5 789.5,-750.5"/>
<text text-anchor="middle" x="805.5" y="-757.5" font-family="Helvetica,sans-Serif" font-size="10.00">isIn</text>
</a>
</g>
</g>
<!-- Node8&#45;&gt;Node9 -->
<g id="edge13" class="edge">
<title>Node8&#45;&gt;Node9</title>
<path fill="none" stroke="midnightblue" d="M267.87,-503.75C284.78,-521.98 323.31,-561.84 361,-589 443.13,-648.18 466.77,-661 561,-698 637.9,-728.2 734.28,-747.65 779.24,-755.72"/>
<polygon fill="midnightblue" stroke="midnightblue" points="778.81,-759.2 789.27,-757.49 780.03,-752.31 778.81,-759.2"/>
</g>
<!-- Node10 -->
<g id="node10" class="node">
<title>Node10</title>
<g id="a_node10"><a xlink:href="../../d0/dfe/class_syntax_analyzer.html#a920d9565d4aa2e3815ff9e7146f45a0b" target="_top" xlink:title=" ">
<polygon fill="none" stroke="black" points="361,-560.5 361,-579.5 525,-579.5 525,-560.5 361,-560.5"/>
<text text-anchor="middle" x="443" y="-567.5" font-family="Helvetica,sans-Serif" font-size="10.00">SyntaxAnalyzer::syntaxSimpleExpr</text>
</a>
</g>
</g>
<!-- Node8&#45;&gt;Node10 -->
<g id="edge14" class="edge">
<title>Node8&#45;&gt;Node10</title>
<path fill="none" stroke="midnightblue" d="M282.18,-503.63C314.49,-517.05 373.22,-541.43 409.78,-556.62"/>
<polygon fill="midnightblue" stroke="midnightblue" points="408.43,-559.85 419.01,-560.45 411.12,-553.38 408.43,-559.85"/>
</g>
<!-- Node10&#45;&gt;Node2 -->
<g id="edge15" class="edge">
<title>Node10&#45;&gt;Node2</title>
<path fill="none" stroke="midnightblue" d="M499.03,-579.55C507.74,-581.25 516.63,-583.09 525,-585 698.18,-624.58 736.5,-660.9 913,-681 972.07,-687.73 1039.67,-687.99 1088.8,-686.85"/>
<polygon fill="midnightblue" stroke="midnightblue" points="1089.09,-690.35 1099,-686.59 1088.91,-683.35 1089.09,-690.35"/>
</g>
<!-- Node10&#45;&gt;Node4 -->
<g id="edge18" class="edge">
<title>Node10&#45;&gt;Node4</title>
<path fill="none" stroke="midnightblue" d="M450.64,-579.53C467.04,-602.52 511.76,-661.79 561,-698 629.4,-748.3 651.13,-760.56 734,-779 940.62,-824.98 1195.14,-754.89 1289.5,-724.72"/>
<polygon fill="midnightblue" stroke="midnightblue" points="1290.73,-728 1299.17,-721.58 1288.58,-721.34 1290.73,-728"/>
</g>
<!-- Node10&#45;&gt;Node5 -->
<g id="edge16" class="edge">
<title>Node10&#45;&gt;Node5</title>
<path fill="none" stroke="midnightblue" d="M451.29,-560.28C481.37,-520.89 600.5,-371.82 734,-298 863.26,-226.53 915.75,-239.39 1063,-251 1074.27,-251.89 1086.23,-253.37 1097.71,-255.05"/>
<polygon fill="midnightblue" stroke="midnightblue" points="1097.23,-258.52 1107.65,-256.58 1098.3,-251.6 1097.23,-258.52"/>
</g>
<!-- Node10&#45;&gt;Node6 -->
<g id="edge17" class="edge">
<title>Node10&#45;&gt;Node6</title>
<path fill="none" stroke="midnightblue" d="M445.91,-560.37C453.61,-523.84 485.71,-392.1 561,-318 620.98,-258.96 652.46,-261.85 734,-241 942.8,-187.6 1008.33,-161.1 1218,-211 1250.15,-218.65 1283.57,-237.39 1304.79,-250.86"/>
<polygon fill="midnightblue" stroke="midnightblue" points="1303.08,-253.92 1313.37,-256.45 1306.9,-248.06 1303.08,-253.92"/>
</g>
<!-- Node10&#45;&gt;Node9 -->
<g id="edge19" class="edge">
<title>Node10&#45;&gt;Node9</title>
<path fill="none" stroke="midnightblue" d="M454.17,-579.67C473.55,-597.66 517.73,-636.57 561,-660 617.73,-690.72 641.35,-677.12 698,-708 715.8,-717.7 716.16,-726.38 734,-736 748.33,-743.73 765.62,-749.66 779.49,-753.69"/>
<polygon fill="midnightblue" stroke="midnightblue" points="778.75,-757.12 789.32,-756.4 780.61,-750.37 778.75,-757.12"/>
</g>
<!-- Node11 -->
<g id="node11" class="node">
<title>Node11</title>
<g id="a_node11"><a xlink:href="../../d0/dfe/class_syntax_analyzer.html#a7721cf7d36d549f81fd05c40dba02f67" target="_top" xlink:title=" ">
<polygon fill="none" stroke="black" points="561,-560.5 561,-579.5 698,-579.5 698,-560.5 561,-560.5"/>
<text text-anchor="middle" x="629.5" y="-567.5" font-family="Helvetica,sans-Serif" font-size="10.00">SyntaxAnalyzer::syntaxTerm</text>
</a>
</g>
</g>
<!-- Node10&#45;&gt;Node11 -->
<g id="edge20" class="edge">
<title>Node10&#45;&gt;Node11</title>
<path fill="none" stroke="midnightblue" d="M525.19,-570C533.65,-570 542.23,-570 550.64,-570"/>
<polygon fill="midnightblue" stroke="midnightblue" points="550.81,-573.5 560.81,-570 550.81,-566.5 550.81,-573.5"/>
</g>
<!-- Node11&#45;&gt;Node2 -->
<g id="edge21" class="edge">
<title>Node11&#45;&gt;Node2</title>
<path fill="none" stroke="midnightblue" d="M655.79,-579.56C704.7,-597.66 816.02,-636.9 913,-657 971.56,-669.14 1039.22,-676.08 1088.49,-679.87"/>
<polygon fill="midnightblue" stroke="midnightblue" points="1088.49,-683.38 1098.72,-680.63 1089.01,-676.4 1088.49,-683.38"/>
</g>
<!-- Node11&#45;&gt;Node4 -->
<g id="edge24" class="edge">
<title>Node11&#45;&gt;Node4</title>
<path fill="none" stroke="midnightblue" d="M641.11,-579.56C658.95,-595.09 696.68,-625.73 734,-642 920,-723.1 1168.23,-721.1 1274.8,-715.67"/>
<polygon fill="midnightblue" stroke="midnightblue" points="1275.17,-719.16 1284.97,-715.12 1274.8,-712.17 1275.17,-719.16"/>
</g>
<!-- Node11&#45;&gt;Node5 -->
<g id="edge22" class="edge">
<title>Node11&#45;&gt;Node5</title>
<path fill="none" stroke="midnightblue" d="M636.09,-560.32C661.38,-517.59 770.07,-345.18 913,-280 971.45,-253.35 1046.07,-253.28 1097.42,-257.7"/>
<polygon fill="midnightblue" stroke="midnightblue" points="1097.4,-261.21 1107.69,-258.67 1098.06,-254.24 1097.4,-261.21"/>
</g>
<!-- Node11&#45;&gt;Node6 -->
<g id="edge23" class="edge">
<title>Node11&#45;&gt;Node6</title>
<path fill="none" stroke="midnightblue" d="M634.16,-560.34C652.47,-512 733.33,-298.6 734,-298 893.02,-155.12 1183.46,-222.7 1288.11,-253.55"/>
<polygon fill="midnightblue" stroke="midnightblue" points="1287.35,-256.97 1297.94,-256.5 1289.37,-250.27 1287.35,-256.97"/>
</g>
<!-- Node11&#45;&gt;Node9 -->
<g id="edge25" class="edge">
<title>Node11&#45;&gt;Node9</title>
<path fill="none" stroke="midnightblue" d="M637.51,-579.77C653.52,-601.83 694.43,-656.76 734,-698 750.04,-714.71 769.99,-731.98 784.58,-744.03"/>
<polygon fill="midnightblue" stroke="midnightblue" points="782.51,-746.86 792.47,-750.48 786.94,-741.44 782.51,-746.86"/>
</g>
<!-- Node12 -->
<g id="node12" class="node">
<title>Node12</title>
<g id="a_node12"><a xlink:href="../../d0/dfe/class_syntax_analyzer.html#ab9b415ddd671b4884ab31cdf194f6c64" target="_top" xlink:title=" ">
<polygon fill="none" stroke="black" points="734,-484.5 734,-503.5 877,-503.5 877,-484.5 734,-484.5"/>
<text text-anchor="middle" x="805.5" y="-491.5" font-family="Helvetica,sans-Serif" font-size="10.00">SyntaxAnalyzer::syntaxFactor</text>
</a>
</g>
</g>
<!-- Node11&#45;&gt;Node12 -->
<g id="edge26" class="edge">
<title>Node11&#45;&gt;Node12</title>
<path fill="none" stroke="midnightblue" d="M652.54,-560.37C683.13,-547.01 738.62,-522.77 773.42,-507.58"/>
<polygon fill="midnightblue" stroke="midnightblue" points="774.88,-510.76 782.64,-503.55 772.08,-504.34 774.88,-510.76"/>
</g>
<!-- Node12&#45;&gt;Node2 -->
<g id="edge27" class="edge">
<title>Node12&#45;&gt;Node2</title>
<path fill="none" stroke="midnightblue" d="M811.72,-503.8C825.11,-527.94 863.12,-590.55 913,-622 942.87,-640.83 1032.14,-660.54 1094.11,-672.55"/>
<polygon fill="midnightblue" stroke="midnightblue" points="1093.71,-676.04 1104.19,-674.48 1095.03,-669.16 1093.71,-676.04"/>
</g>
<!-- Node12&#45;&gt;Node3 -->
<g id="edge32" class="edge">
<title>Node12&#45;&gt;Node3</title>
<path fill="none" stroke="midnightblue" d="M821.46,-503.54C841.57,-515.99 878.77,-537.77 913,-551 979.1,-576.54 1177.46,-621.96 1273.6,-643.3"/>
<polygon fill="midnightblue" stroke="midnightblue" points="1272.89,-646.73 1283.42,-645.48 1274.41,-639.9 1272.89,-646.73"/>
</g>
<!-- Node12&#45;&gt;Node4 -->
<g id="edge38" class="edge">
<title>Node12&#45;&gt;Node4</title>
<path fill="none" stroke="midnightblue" d="M814.83,-503.63C831.51,-522.3 871.03,-563.45 913,-585 974.08,-616.37 996.58,-604.6 1063,-622 1132.16,-640.12 1150.57,-641.24 1218,-665 1245.47,-674.68 1275.84,-688 1297.53,-697.99"/>
<polygon fill="midnightblue" stroke="midnightblue" points="1296.3,-701.28 1306.84,-702.32 1299.25,-694.93 1296.3,-701.28"/>
</g>
<!-- Node12&#45;&gt;Node5 -->
<g id="edge28" class="edge">
<title>Node12&#45;&gt;Node5</title>
<path fill="none" stroke="midnightblue" d="M809.51,-484.41C819.24,-455.11 852.71,-366.17 913,-323 942.21,-302.09 1035.16,-284.48 1097.66,-274.58"/>
<polygon fill="midnightblue" stroke="midnightblue" points="1098.46,-278 1107.8,-273 1097.38,-271.08 1098.46,-278"/>
</g>
<!-- Node12&#45;&gt;Node6 -->
<g id="edge33" class="edge">
<title>Node12&#45;&gt;Node6</title>
<path fill="none" stroke="midnightblue" d="M821.46,-484.48C841.58,-472.03 878.78,-450.26 913,-437 977.12,-412.15 997.02,-418.4 1063,-399 1132.71,-378.51 1153.6,-380.64 1218,-347 1252.71,-328.87 1288.27,-300.16 1308.96,-282.24"/>
<polygon fill="midnightblue" stroke="midnightblue" points="1311.43,-284.73 1316.63,-275.5 1306.8,-279.48 1311.43,-284.73"/>
</g>
<!-- Node12&#45;&gt;Node8 -->
<g id="edge46" class="edge">
<title>Node12&#45;&gt;Node8</title>
<path fill="none" stroke="midnightblue" d="M733.8,-494C631.05,-494 441.2,-494 335.36,-494"/>
<polygon fill="midnightblue" stroke="midnightblue" points="335.07,-490.5 325.07,-494 335.07,-497.5 335.07,-490.5"/>
</g>
<!-- Node12&#45;&gt;Node12 -->
<g id="edge47" class="edge">
<title>Node12&#45;&gt;Node12</title>
<path fill="none" stroke="midnightblue" d="M778.37,-503.76C765.18,-512.57 774.22,-522 805.5,-522 827.01,-522 838,-517.54 838.48,-511.89"/>
<polygon fill="midnightblue" stroke="midnightblue" points="841.31,-509.83 832.63,-503.76 835.63,-513.92 841.31,-509.83"/>
</g>
<!-- Node13 -->
<g id="node13" class="node">
<title>Node13</title>
<g id="a_node13"><a xlink:href="../../d0/dfe/class_syntax_analyzer.html#a9952c4a2db0a1382b9c94f40dd535fae" target="_top" xlink:title=" ">
<polygon fill="none" stroke="black" points="1099.5,-484.5 1099.5,-503.5 1217.5,-503.5 1217.5,-484.5 1099.5,-484.5"/>
<text text-anchor="middle" x="1158.5" y="-491.5" font-family="Helvetica,sans-Serif" font-size="10.00">SyntaxAnalyzer::eatAdv</text>
</a>
</g>
</g>
<!-- Node12&#45;&gt;Node13 -->
<g id="edge29" class="edge">
<title>Node12&#45;&gt;Node13</title>
<path fill="none" stroke="midnightblue" d="M877.11,-494C938.9,-494 1028.08,-494 1089.18,-494"/>
<polygon fill="midnightblue" stroke="midnightblue" points="1089.49,-497.5 1099.49,-494 1089.49,-490.5 1089.49,-497.5"/>
</g>
<!-- Node14 -->
<g id="node14" class="node">
<title>Node14</title>
<g id="a_node14"><a xlink:href="../../db/dc1/class_token.html#a014ced0a9ea72ae21fad0d4f116d0a73" target="_top" xlink:title=" ">
<polygon fill="none" stroke="black" points="949,-446.5 949,-465.5 1027,-465.5 1027,-446.5 949,-446.5"/>
<text text-anchor="middle" x="988" y="-453.5" font-family="Helvetica,sans-Serif" font-size="10.00">Token::getInfo</text>
</a>
</g>
</g>
<!-- Node12&#45;&gt;Node14 -->
<g id="edge34" class="edge">
<title>Node12&#45;&gt;Node14</title>
<path fill="none" stroke="midnightblue" d="M852.05,-484.41C878.53,-478.84 911.89,-471.81 938.81,-466.14"/>
<polygon fill="midnightblue" stroke="midnightblue" points="939.73,-469.53 948.79,-464.04 938.28,-462.68 939.73,-469.53"/>
</g>
<!-- Node17 -->
<g id="node17" class="node">
<title>Node17</title>
<g id="a_node17"><a xlink:href="../../d0/dfe/class_syntax_analyzer.html#af0905389742c4f842207bb2c073afbfa" target="_top" xlink:title=" ">
<polygon fill="none" stroke="black" points="919.5,-522.5 919.5,-541.5 1056.5,-541.5 1056.5,-522.5 919.5,-522.5"/>
<text text-anchor="middle" x="988" y="-529.5" font-family="Helvetica,sans-Serif" font-size="10.00">SyntaxAnalyzer::lookFoward</text>
</a>
</g>
</g>
<!-- Node12&#45;&gt;Node17 -->
<g id="edge39" class="edge">
<title>Node12&#45;&gt;Node17</title>
<path fill="none" stroke="midnightblue" d="M852.05,-503.59C876.3,-508.69 906.3,-515.01 931.86,-520.39"/>
<polygon fill="midnightblue" stroke="midnightblue" points="931.27,-523.84 941.78,-522.48 932.72,-516.99 931.27,-523.84"/>
</g>
<!-- Node19 -->
<g id="node19" class="node">
<title>Node19</title>
<g id="a_node19"><a xlink:href="../../d0/dfe/class_syntax_analyzer.html#a9321de68e44f3918a71256a3c1cd481b" target="_top" xlink:title=" ">
<polygon fill="none" stroke="black" points="917.5,-370.5 917.5,-389.5 1058.5,-389.5 1058.5,-370.5 917.5,-370.5"/>
<text text-anchor="middle" x="988" y="-377.5" font-family="Helvetica,sans-Serif" font-size="10.00">SyntaxAnalyzer::syntaxCallSt</text>
</a>
</g>
</g>
<!-- Node12&#45;&gt;Node19 -->
<g id="edge41" class="edge">
<title>Node12&#45;&gt;Node19</title>
<path fill="none" stroke="midnightblue" d="M815.26,-484.46C832.37,-466.33 872.17,-426.71 913,-404 920.8,-399.66 929.51,-395.96 938.14,-392.86"/>
<polygon fill="midnightblue" stroke="midnightblue" points="939.43,-396.12 947.79,-389.61 937.2,-389.48 939.43,-396.12"/>
</g>
<!-- Node12&#45;&gt;Node20 -->
<g id="edge48" class="edge">
<title>Node12&#45;&gt;Node20</title>
<path fill="none" stroke="midnightblue" d="M811.43,-484.18C824.41,-459.4 862.06,-393.9 913,-361 916.29,-358.87 919.81,-356.99 923.45,-355.31"/>
<polygon fill="midnightblue" stroke="midnightblue" points="924.77,-358.55 932.73,-351.56 922.14,-352.06 924.77,-358.55"/>
</g>
<!-- Node13&#45;&gt;Node6 -->
<g id="edge30" class="edge">
<title>Node13&#45;&gt;Node6</title>
<path fill="none" stroke="midnightblue" d="M1203.79,-484.47C1208.99,-482.01 1213.9,-478.9 1218,-475 1250.69,-443.85 1233.72,-420.34 1254,-380 1271.92,-344.36 1298.17,-305.86 1313.83,-283.96"/>
<polygon fill="midnightblue" stroke="midnightblue" points="1316.81,-285.81 1319.83,-275.65 1311.14,-281.71 1316.81,-285.81"/>
</g>
<!-- Node13&#45;&gt;Node7 -->
<g id="edge31" class="edge">
<title>Node13&#45;&gt;Node7</title>
<path fill="none" stroke="midnightblue" d="M1194.51,-484.49C1202.41,-481.84 1210.64,-478.66 1218,-475 1251.77,-458.21 1286.86,-431.87 1307.81,-415.03"/>
<polygon fill="midnightblue" stroke="midnightblue" points="1310.09,-417.69 1315.63,-408.65 1305.66,-412.26 1310.09,-417.69"/>
</g>
<!-- Node14&#45;&gt;Node4 -->
<g id="edge36" class="edge">
<title>Node14&#45;&gt;Node4</title>
<path fill="none" stroke="midnightblue" d="M1005.35,-465.59C1026.48,-477.72 1064.63,-498.73 1099,-513 1150.27,-534.29 1179.22,-511.27 1218,-551 1257.78,-591.76 1217.84,-629.99 1254,-674 1262.67,-684.56 1275.05,-692.53 1287.16,-698.37"/>
<polygon fill="midnightblue" stroke="midnightblue" points="1285.74,-701.57 1296.3,-702.44 1288.58,-695.18 1285.74,-701.57"/>
</g>
<!-- Node15 -->
<g id="node15" class="node">
<title>Node15</title>
<g id="a_node15"><a xlink:href="../../db/dc1/class_token.html#a942fcc40ffdf54c98b7b641c792a26bc" target="_top" xlink:title="Возвращает константную ссылку на строковое представление токена">
<polygon fill="none" stroke="black" points="1121.5,-408.5 1121.5,-427.5 1195.5,-427.5 1195.5,-408.5 1121.5,-408.5"/>
<text text-anchor="middle" x="1158.5" y="-415.5" font-family="Helvetica,sans-Serif" font-size="10.00">Token::getStr</text>
</a>
</g>
</g>
<!-- Node14&#45;&gt;Node15 -->
<g id="edge35" class="edge">
<title>Node14&#45;&gt;Node15</title>
<path fill="none" stroke="midnightblue" d="M1027.24,-447.38C1052.29,-441.73 1085.18,-434.31 1111.64,-428.34"/>
<polygon fill="midnightblue" stroke="midnightblue" points="1112.45,-431.75 1121.43,-426.13 1110.91,-424.92 1112.45,-431.75"/>
</g>
<!-- Node16 -->
<g id="node16" class="node">
<title>Node16</title>
<g id="a_node16"><a xlink:href="../../db/dc1/class_token.html#af3b5fdf2261d637af820d4adb62e6109" target="_top" xlink:title=" ">
<polygon fill="none" stroke="black" points="1127,-446.5 1127,-465.5 1190,-465.5 1190,-446.5 1127,-446.5"/>
<text text-anchor="middle" x="1158.5" y="-453.5" font-family="Helvetica,sans-Serif" font-size="10.00">Token::line</text>
</a>
</g>
</g>
<!-- Node14&#45;&gt;Node16 -->
<g id="edge37" class="edge">
<title>Node14&#45;&gt;Node16</title>
<path fill="none" stroke="midnightblue" d="M1027.24,-456C1053.89,-456 1089.42,-456 1116.64,-456"/>
<polygon fill="midnightblue" stroke="midnightblue" points="1117,-459.5 1127,-456 1117,-452.5 1117,-459.5"/>
</g>
<!-- Node18 -->
<g id="node18" class="node">
<title>Node18</title>
<g id="a_node18"><a xlink:href="../../d1/d34/class_list.html#a49c179636e084dfbf7a52acd46acaf01" target="_top" xlink:title=" ">
<polygon fill="none" stroke="black" points="1131,-560.5 1131,-579.5 1186,-579.5 1186,-560.5 1131,-560.5"/>
<text text-anchor="middle" x="1158.5" y="-567.5" font-family="Helvetica,sans-Serif" font-size="10.00">List::size</text>
</a>
</g>
</g>
<!-- Node17&#45;&gt;Node18 -->
<g id="edge40" class="edge">
<title>Node17&#45;&gt;Node18</title>
<path fill="none" stroke="midnightblue" d="M1031.52,-541.59C1059.06,-547.8 1094.56,-555.81 1120.86,-561.74"/>
<polygon fill="midnightblue" stroke="midnightblue" points="1120.28,-565.19 1130.8,-563.98 1121.82,-558.36 1120.28,-565.19"/>
</g>
<!-- Node19&#45;&gt;Node2 -->
<g id="edge42" class="edge">
<title>Node19&#45;&gt;Node2</title>
<path fill="none" stroke="midnightblue" d="M1007.77,-389.57C1024.8,-399.23 1049.27,-415.75 1063,-437 1100.67,-495.32 1072.46,-524.85 1099,-589 1110.84,-617.63 1130.73,-647.58 1143.98,-666.01"/>
<polygon fill="midnightblue" stroke="midnightblue" points="1141.33,-668.31 1150.06,-674.31 1146.97,-664.17 1141.33,-668.31"/>
</g>
<!-- Node19&#45;&gt;Node5 -->
<g id="edge43" class="edge">
<title>Node19&#45;&gt;Node5</title>
<path fill="none" stroke="midnightblue" d="M1040.95,-370.47C1048.62,-367.99 1056.21,-364.89 1063,-361 1072.29,-355.69 1117.03,-308.95 1141.47,-283.07"/>
<polygon fill="midnightblue" stroke="midnightblue" points="1144.03,-285.45 1148.34,-275.78 1138.94,-280.65 1144.03,-285.45"/>
</g>
<!-- Node19&#45;&gt;Node6 -->
<g id="edge44" class="edge">
<title>Node19&#45;&gt;Node6</title>
<path fill="none" stroke="midnightblue" d="M1027.09,-370.46C1038.64,-367.51 1051.36,-364.18 1063,-361 1132.19,-342.08 1150.77,-341.02 1218,-316 1246.38,-305.44 1277.71,-290.73 1299.46,-280"/>
<polygon fill="midnightblue" stroke="midnightblue" points="1301.06,-283.12 1308.45,-275.53 1297.94,-276.85 1301.06,-283.12"/>
</g>
<!-- Node19&#45;&gt;Node8 -->
<g id="edge45" class="edge">
<title>Node19&#45;&gt;Node8</title>
<path fill="none" stroke="midnightblue" d="M926.1,-389.54C792.12,-410.52 472.39,-460.58 329.77,-482.92"/>
<polygon fill="midnightblue" stroke="midnightblue" points="329.15,-479.47 319.82,-484.48 330.24,-486.39 329.15,-479.47"/>
</g>
<!-- Node20&#45;&gt;Node2 -->
<g id="edge49" class="edge">
<title>Node20&#45;&gt;Node2</title>
<path fill="none" stroke="midnightblue" d="M1050.87,-351.56C1055.38,-354.07 1059.52,-357.17 1063,-361 1132.03,-436.89 1063.41,-492.78 1099,-589 1109.8,-618.19 1130.09,-648.17 1143.7,-666.44"/>
<polygon fill="midnightblue" stroke="midnightblue" points="1140.94,-668.59 1149.78,-674.42 1146.5,-664.34 1140.94,-668.59"/>
</g>
<!-- Node20&#45;&gt;Node5 -->
<g id="edge50" class="edge">
<title>Node20&#45;&gt;Node5</title>
<path fill="none" stroke="midnightblue" d="M1026.92,-332.47C1038.83,-328.76 1051.78,-323.94 1063,-318 1080.91,-308.51 1081.46,-300.16 1099,-290 1105.66,-286.14 1113.06,-282.59 1120.3,-279.48"/>
<polygon fill="midnightblue" stroke="midnightblue" points="1122.05,-282.54 1129.98,-275.51 1119.4,-276.07 1122.05,-282.54"/>
</g>
<!-- Node20&#45;&gt;Node6 -->
<g id="edge51" class="edge">
<title>Node20&#45;&gt;Node6</title>
<path fill="none" stroke="midnightblue" d="M1031.47,-332.45C1093.27,-318.55 1207.92,-292.78 1274.8,-277.74"/>
<polygon fill="midnightblue" stroke="midnightblue" points="1275.72,-281.12 1284.71,-275.51 1274.18,-274.29 1275.72,-281.12"/>
</g>
</g>
</svg>
