<?xml version="1.0" encoding="UTF-8" standalone="no"?>
<!DOCTYPE svg PUBLIC "-//W3C//DTD SVG 1.1//EN"
 "http://www.w3.org/Graphics/SVG/1.1/DTD/svg11.dtd">
<!-- Generated by graphviz version 3.0.0 (20220413.0106)
 -->
<!-- Title: SyntaxAnalyzer::syntaxConstDecl Pages: 1 -->
<svg width="1594pt" height="1072pt"
 viewBox="0.00 0.00 1594.00 1072.00" xmlns="http://www.w3.org/2000/svg" xmlns:xlink="http://www.w3.org/1999/xlink">
<g id="graph0" class="graph" transform="scale(1 1) rotate(0) translate(4 1068)">
<title>SyntaxAnalyzer::syntaxConstDecl</title>
<!-- Node1 -->
<g id="node1" class="node">
<title>Node1</title>
<g id="a_node1"><a xlink:title=" ">
<polygon fill="#bfbfbf" stroke="black" points="0,-826.5 0,-845.5 160,-845.5 160,-826.5 0,-826.5"/>
<text text-anchor="middle" x="80" y="-833.5" font-family="Helvetica,sans-Serif" font-size="10.00">SyntaxAnalyzer::syntaxConstDecl</text>
</a>
</g>
</g>
<!-- Node2 -->
<g id="node2" class="node">
<title>Node2</title>
<g id="a_node2"><a xlink:href="../../d7/d7c/class_a_s_t_factory.html#a8d1d4c9d01ab2e366d1af6bbaeaf7bef" target="_top" xlink:title=" ">
<polygon fill="none" stroke="black" points="1283,-266.5 1283,-285.5 1402,-285.5 1402,-266.5 1283,-266.5"/>
<text text-anchor="middle" x="1342.5" y="-273.5" font-family="Helvetica,sans-Serif" font-size="10.00">ASTFactory::createAST</text>
</a>
</g>
</g>
<!-- Node1&#45;&gt;Node2 -->
<g id="edge1" class="edge">
<title>Node1&#45;&gt;Node2</title>
<path fill="none" stroke="midnightblue" d="M81,-826.39C81.51,-738.41 96.99,-76 447,-76 447,-76 447,-76 811.5,-76 1009.9,-76 1075.07,-75 1247,-174 1283.41,-194.96 1313.98,-234.56 1329.83,-257.77"/>
<polygon fill="midnightblue" stroke="midnightblue" points="1327.08,-259.94 1335.52,-266.34 1332.91,-256.07 1327.08,-259.94"/>
</g>
<!-- Node6 -->
<g id="node6" class="node">
<title>Node6</title>
<g id="a_node6"><a xlink:href="../../d0/dfe/class_syntax_analyzer.html#ae1d3434e5cc4b4bcd5a3a245814a44f0" target="_top" xlink:title="Пропускает текущий токен, если он указанного типа. Иначе выбрасывается исключение">
<polygon fill="none" stroke="black" points="1292,-845.5 1292,-864.5 1393,-864.5 1393,-845.5 1292,-845.5"/>
<text text-anchor="middle" x="1342.5" y="-852.5" font-family="Helvetica,sans-Serif" font-size="10.00">SyntaxAnalyzer::eat</text>
</a>
</g>
</g>
<!-- Node1&#45;&gt;Node6 -->
<g id="edge5" class="edge">
<title>Node1&#45;&gt;Node6</title>
<path fill="none" stroke="midnightblue" d="M90.78,-845.68C130.97,-884.4 288.78,-1026 447,-1026 447,-1026 447,-1026 990.5,-1026 1112.07,-1026 1141.26,-990.98 1247,-931 1276.54,-914.24 1306.37,-888.43 1324.4,-871.63"/>
<polygon fill="midnightblue" stroke="midnightblue" points="1326.96,-874.02 1331.81,-864.61 1322.14,-868.94 1326.96,-874.02"/>
</g>
<!-- Node7 -->
<g id="node7" class="node">
<title>Node7</title>
<g id="a_node7"><a xlink:href="../../d0/dfe/class_syntax_analyzer.html#a3ae6c7319e61cd669c417f189b098374" target="_top" xlink:title=" ">
<polygon fill="none" stroke="black" points="1446,-617.5 1446,-636.5 1578,-636.5 1578,-617.5 1446,-617.5"/>
<text text-anchor="middle" x="1512" y="-624.5" font-family="Helvetica,sans-Serif" font-size="10.00">SyntaxAnalyzer::getCurTok</text>
</a>
</g>
</g>
<!-- Node1&#45;&gt;Node7 -->
<g id="edge8" class="edge">
<title>Node1&#45;&gt;Node7</title>
<path fill="none" stroke="midnightblue" d="M85.98,-845.87C99.76,-872.19 141.01,-944.6 196,-983 292.11,-1050.11 329.78,-1064 447,-1064 447,-1064 447,-1064 990.5,-1064 1191.94,-1064 1274.95,-1030.32 1402,-874 1461.14,-801.24 1494.41,-691.36 1506.13,-646.81"/>
<polygon fill="midnightblue" stroke="midnightblue" points="1509.56,-647.51 1508.65,-636.96 1502.78,-645.78 1509.56,-647.51"/>
</g>
<!-- Node9 -->
<g id="node9" class="node">
<title>Node9</title>
<g id="a_node9"><a xlink:href="../../d0/d11/class_i_token.html#a4fa3435db7157ca7316d4e4aee1df4c0" target="_top" xlink:title="Устанавливает дополнительный тип токена">
<polygon fill="none" stroke="black" points="1291,-674.5 1291,-693.5 1394,-693.5 1394,-674.5 1291,-674.5"/>
<text text-anchor="middle" x="1342.5" y="-681.5" font-family="Helvetica,sans-Serif" font-size="10.00">IToken::setAdvType</text>
</a>
</g>
</g>
<!-- Node1&#45;&gt;Node9 -->
<g id="edge9" class="edge">
<title>Node1&#45;&gt;Node9</title>
<path fill="none" stroke="midnightblue" d="M160.25,-836C234.38,-836 348.19,-836 447,-836 447,-836 447,-836 811.5,-836 1010.7,-836 1236.26,-735.56 1313.7,-697.97"/>
<polygon fill="midnightblue" stroke="midnightblue" points="1315.37,-701.05 1322.81,-693.51 1312.29,-694.77 1315.37,-701.05"/>
</g>
<!-- Node10 -->
<g id="node10" class="node">
<title>Node10</title>
<g id="a_node10"><a xlink:href="../../d0/dfe/class_syntax_analyzer.html#ae8d09db1b25ec882248aeed978c13a4d" target="_top" xlink:title=" ">
<polygon fill="none" stroke="black" points="196,-472.5 196,-491.5 330,-491.5 330,-472.5 196,-472.5"/>
<text text-anchor="middle" x="263" y="-479.5" font-family="Helvetica,sans-Serif" font-size="10.00">SyntaxAnalyzer::syntaxExpr</text>
</a>
</g>
</g>
<!-- Node1&#45;&gt;Node10 -->
<g id="edge10" class="edge">
<title>Node1&#45;&gt;Node10</title>
<path fill="none" stroke="midnightblue" d="M86.03,-826.16C110.74,-777.83 219.44,-565.25 252.45,-500.67"/>
<polygon fill="midnightblue" stroke="midnightblue" points="255.64,-502.12 257.08,-491.62 249.41,-498.93 255.64,-502.12"/>
</g>
<!-- Node3 -->
<g id="node3" class="node">
<title>Node3</title>
<g id="a_node3"><a xlink:href="../../d0/d11/class_i_token.html#a3e73305ee0ac36d0bf5f26b649589b24" target="_top" xlink:title=" ">
<polygon fill="none" stroke="black" points="1460.5,-323.5 1460.5,-342.5 1563.5,-342.5 1563.5,-323.5 1460.5,-323.5"/>
<text text-anchor="middle" x="1512" y="-330.5" font-family="Helvetica,sans-Serif" font-size="10.00">IToken::getAdvType</text>
</a>
</g>
</g>
<!-- Node2&#45;&gt;Node3 -->
<g id="edge2" class="edge">
<title>Node2&#45;&gt;Node3</title>
<path fill="none" stroke="midnightblue" d="M1371.54,-285.54C1399.44,-295.03 1442.43,-309.67 1473.31,-320.17"/>
<polygon fill="midnightblue" stroke="midnightblue" points="1472.28,-323.52 1482.87,-323.43 1474.53,-316.89 1472.28,-323.52"/>
</g>
<!-- Node4 -->
<g id="node4" class="node">
<title>Node4</title>
<g id="a_node4"><a xlink:href="../../d0/d11/class_i_token.html#ac7f0a800d7a9e8608bab0360c76d735a" target="_top" xlink:title="Получение типа токена">
<polygon fill="none" stroke="black" points="1469,-66.5 1469,-85.5 1555,-85.5 1555,-66.5 1469,-66.5"/>
<text text-anchor="middle" x="1512" y="-73.5" font-family="Helvetica,sans-Serif" font-size="10.00">IToken::getType</text>
</a>
</g>
</g>
<!-- Node2&#45;&gt;Node4 -->
<g id="edge3" class="edge">
<title>Node2&#45;&gt;Node4</title>
<path fill="none" stroke="midnightblue" d="M1351.58,-266.35C1378.06,-234.74 1462.47,-133.95 1496.54,-93.27"/>
<polygon fill="midnightblue" stroke="midnightblue" points="1499.26,-95.46 1503,-85.55 1493.9,-90.97 1499.26,-95.46"/>
</g>
<!-- Node5 -->
<g id="node5" class="node">
<title>Node5</title>
<g id="a_node5"><a xlink:href="../../db/dc1/class_token.html#a1f07fa2fffeb2f7ab803ef8b424eae8a" target="_top" xlink:title=" ">
<polygon fill="none" stroke="black" points="1475,-266.5 1475,-285.5 1549,-285.5 1549,-266.5 1475,-266.5"/>
<text text-anchor="middle" x="1512" y="-273.5" font-family="Helvetica,sans-Serif" font-size="10.00">Token::setStr</text>
</a>
</g>
</g>
<!-- Node2&#45;&gt;Node5 -->
<g id="edge4" class="edge">
<title>Node2&#45;&gt;Node5</title>
<path fill="none" stroke="midnightblue" d="M1402.08,-276C1422.56,-276 1445.24,-276 1464.58,-276"/>
<polygon fill="midnightblue" stroke="midnightblue" points="1464.66,-279.5 1474.65,-276 1464.65,-272.5 1464.66,-279.5"/>
</g>
<!-- Node6&#45;&gt;Node7 -->
<g id="edge6" class="edge">
<title>Node6&#45;&gt;Node7</title>
<path fill="none" stroke="midnightblue" d="M1350.48,-845.49C1376.02,-810.73 1464.6,-690.16 1498.06,-644.61"/>
<polygon fill="midnightblue" stroke="midnightblue" points="1500.89,-646.68 1503.99,-636.55 1495.24,-642.53 1500.89,-646.68"/>
</g>
<!-- Node8 -->
<g id="node8" class="node">
<title>Node8</title>
<g id="a_node8"><a xlink:href="../../d0/dfe/class_syntax_analyzer.html#a9e41370d8d74fbd2e77648d2071e7dfe" target="_top" xlink:title=" ">
<polygon fill="none" stroke="black" points="1438,-902.5 1438,-921.5 1586,-921.5 1586,-902.5 1438,-902.5"/>
<text text-anchor="middle" x="1512" y="-909.5" font-family="Helvetica,sans-Serif" font-size="10.00">SyntaxAnalyzer::getNextToken</text>
</a>
</g>
</g>
<!-- Node6&#45;&gt;Node8 -->
<g id="edge7" class="edge">
<title>Node6&#45;&gt;Node8</title>
<path fill="none" stroke="midnightblue" d="M1371.54,-864.54C1399.44,-874.03 1442.43,-888.67 1473.31,-899.17"/>
<polygon fill="midnightblue" stroke="midnightblue" points="1472.28,-902.52 1482.87,-902.43 1474.53,-895.89 1472.28,-902.52"/>
</g>
<!-- Node10&#45;&gt;Node2 -->
<g id="edge11" class="edge">
<title>Node10&#45;&gt;Node2</title>
<path fill="none" stroke="midnightblue" d="M265.43,-472.47C271.18,-437.51 295.76,-314.83 366,-249 458.27,-162.52 507.04,-152 633.5,-152 633.5,-152 633.5,-152 811.5,-152 909.16,-152 1155.9,-175.81 1247,-211 1276.21,-222.28 1305.2,-244.23 1323.21,-259.49"/>
<polygon fill="midnightblue" stroke="midnightblue" points="1321.28,-262.45 1331.12,-266.36 1325.87,-257.16 1321.28,-262.45"/>
</g>
<!-- Node10&#45;&gt;Node4 -->
<g id="edge14" class="edge">
<title>Node10&#45;&gt;Node4</title>
<path fill="none" stroke="midnightblue" d="M264.51,-472.23C267.18,-429.66 282.9,-257.82 366,-154 451.72,-46.9 496.32,0 633.5,0 633.5,0 633.5,0 1173,0 1286.38,0 1416.05,-41.21 1476.55,-62.94"/>
<polygon fill="midnightblue" stroke="midnightblue" points="1475.4,-66.24 1485.99,-66.37 1477.79,-59.67 1475.4,-66.24"/>
</g>
<!-- Node10&#45;&gt;Node6 -->
<g id="edge12" class="edge">
<title>Node10&#45;&gt;Node6</title>
<path fill="none" stroke="midnightblue" d="M266.35,-491.77C283.14,-558.98 391.26,-950 633.5,-950 633.5,-950 633.5,-950 990.5,-950 1113.39,-950 1252.34,-895.07 1311.87,-868.75"/>
<polygon fill="midnightblue" stroke="midnightblue" points="1313.36,-871.91 1321.06,-864.63 1310.5,-865.53 1313.36,-871.91"/>
</g>
<!-- Node10&#45;&gt;Node7 -->
<g id="edge13" class="edge">
<title>Node10&#45;&gt;Node7</title>
<path fill="none" stroke="midnightblue" d="M330.32,-474.51C404.19,-466.83 527.23,-456 633.5,-456 633.5,-456 633.5,-456 1173,-456 1308.86,-456 1445.57,-567.37 1493.27,-610.35"/>
<polygon fill="midnightblue" stroke="midnightblue" points="1491.14,-613.15 1500.88,-617.32 1495.87,-607.98 1491.14,-613.15"/>
</g>
<!-- Node11 -->
<g id="node11" class="node">
<title>Node11</title>
<g id="a_node11"><a xlink:href="../../db/d0e/sup_8hpp.html#ae7d62ca130413d4c96863327c1af81a4" target="_top" xlink:title="Возвращает истину, если value находится среди значений cont.">
<polygon fill="none" stroke="black" points="794.5,-218.5 794.5,-237.5 826.5,-237.5 826.5,-218.5 794.5,-218.5"/>
<text text-anchor="middle" x="810.5" y="-225.5" font-family="Helvetica,sans-Serif" font-size="10.00">isIn</text>
</a>
</g>
</g>
<!-- Node10&#45;&gt;Node11 -->
<g id="edge15" class="edge">
<title>Node10&#45;&gt;Node11</title>
<path fill="none" stroke="midnightblue" d="M267.25,-472.3C277.16,-444.29 309.77,-362.77 366,-323 500.56,-227.83 711.55,-224.78 784.04,-226.83"/>
<polygon fill="midnightblue" stroke="midnightblue" points="784.34,-230.34 794.46,-227.19 784.58,-223.35 784.34,-230.34"/>
</g>
<!-- Node12 -->
<g id="node12" class="node">
<title>Node12</title>
<g id="a_node12"><a xlink:href="../../d0/dfe/class_syntax_analyzer.html#a3dfb6634a4bcdc61da5b1bafd1f3d136" target="_top" xlink:title=" ">
<polygon fill="none" stroke="black" points="366,-332.5 366,-351.5 530,-351.5 530,-332.5 366,-332.5"/>
<text text-anchor="middle" x="448" y="-339.5" font-family="Helvetica,sans-Serif" font-size="10.00">SyntaxAnalyzer::syntaxSimpleExpr</text>
</a>
</g>
</g>
<!-- Node10&#45;&gt;Node12 -->
<g id="edge16" class="edge">
<title>Node10&#45;&gt;Node12</title>
<path fill="none" stroke="midnightblue" d="M276.58,-472.38C307.53,-448.7 387.64,-387.41 425.97,-358.09"/>
<polygon fill="midnightblue" stroke="midnightblue" points="428.52,-360.55 434.33,-351.69 424.26,-354.99 428.52,-360.55"/>
</g>
<!-- Node12&#45;&gt;Node2 -->
<g id="edge17" class="edge">
<title>Node12&#45;&gt;Node2</title>
<path fill="none" stroke="midnightblue" d="M463.25,-332.46C504.01,-305.87 625.42,-231.4 739,-209 949.18,-167.55 1206.02,-234.37 1302.45,-263.49"/>
<polygon fill="midnightblue" stroke="midnightblue" points="1301.49,-266.86 1312.08,-266.44 1303.54,-260.17 1301.49,-266.86"/>
</g>
<!-- Node12&#45;&gt;Node4 -->
<g id="edge20" class="edge">
<title>Node12&#45;&gt;Node4</title>
<path fill="none" stroke="midnightblue" d="M454.71,-332.45C469.65,-308.34 512.49,-244.76 566,-214 867.1,-40.89 1308.16,-58.68 1458.54,-70.86"/>
<polygon fill="midnightblue" stroke="midnightblue" points="1458.6,-74.38 1468.86,-71.73 1459.18,-67.41 1458.6,-74.38"/>
</g>
<!-- Node12&#45;&gt;Node6 -->
<g id="edge18" class="edge">
<title>Node12&#45;&gt;Node6</title>
<path fill="none" stroke="midnightblue" d="M455.71,-351.52C493.89,-404.95 690.12,-669.39 918,-793 991.75,-833.01 1014.24,-839.15 1097,-853 1159.34,-863.43 1231.89,-862.41 1281.67,-859.72"/>
<polygon fill="midnightblue" stroke="midnightblue" points="1282.15,-863.2 1291.93,-859.13 1281.75,-856.21 1282.15,-863.2"/>
</g>
<!-- Node12&#45;&gt;Node7 -->
<g id="edge19" class="edge">
<title>Node12&#45;&gt;Node7</title>
<path fill="none" stroke="midnightblue" d="M499.22,-351.5C519.84,-355.05 543.99,-358.76 566,-361 935.97,-398.65 1092.14,-190.38 1402,-396 1476.75,-445.61 1501.43,-561.08 1508.49,-607.33"/>
<polygon fill="midnightblue" stroke="midnightblue" points="1505.03,-607.87 1509.9,-617.28 1511.97,-606.89 1505.03,-607.87"/>
</g>
<!-- Node12&#45;&gt;Node11 -->
<g id="edge21" class="edge">
<title>Node12&#45;&gt;Node11</title>
<path fill="none" stroke="midnightblue" d="M498.45,-332.5C561.68,-319.91 667.24,-297.28 703,-280 721.25,-271.18 721.16,-261.62 739,-252 753.33,-244.27 770.62,-238.34 784.49,-234.31"/>
<polygon fill="midnightblue" stroke="midnightblue" points="785.61,-237.63 794.32,-231.6 783.75,-230.88 785.61,-237.63"/>
</g>
<!-- Node13 -->
<g id="node13" class="node">
<title>Node13</title>
<g id="a_node13"><a xlink:href="../../d0/dfe/class_syntax_analyzer.html#a1e9b913cc8c2861927d7c05d10f1822d" target="_top" xlink:title=" ">
<polygon fill="none" stroke="black" points="566,-332.5 566,-351.5 703,-351.5 703,-332.5 566,-332.5"/>
<text text-anchor="middle" x="634.5" y="-339.5" font-family="Helvetica,sans-Serif" font-size="10.00">SyntaxAnalyzer::syntaxTerm</text>
</a>
</g>
</g>
<!-- Node12&#45;&gt;Node13 -->
<g id="edge22" class="edge">
<title>Node12&#45;&gt;Node13</title>
<path fill="none" stroke="midnightblue" d="M530.19,-342C538.65,-342 547.23,-342 555.64,-342"/>
<polygon fill="midnightblue" stroke="midnightblue" points="555.81,-345.5 565.81,-342 555.81,-338.5 555.81,-345.5"/>
</g>
<!-- Node13&#45;&gt;Node2 -->
<g id="edge23" class="edge">
<title>Node13&#45;&gt;Node2</title>
<path fill="none" stroke="midnightblue" d="M676.39,-332.49C731.08,-320.23 831.23,-299.37 918,-290 1042.45,-276.56 1188.56,-274.8 1272.55,-275.13"/>
<polygon fill="midnightblue" stroke="midnightblue" points="1272.72,-278.64 1282.73,-275.19 1272.75,-271.64 1272.72,-278.64"/>
</g>
<!-- Node13&#45;&gt;Node4 -->
<g id="edge26" class="edge">
<title>Node13&#45;&gt;Node4</title>
<path fill="none" stroke="midnightblue" d="M658.97,-332.46C672.12,-326.89 688.69,-319.51 703,-312 719.6,-303.28 721.88,-297.65 739,-290 799.59,-262.92 820.02,-270.73 882,-247 980.6,-209.25 997.77,-182.04 1097,-146 1177.35,-116.82 1198.81,-111.86 1283,-97 1342.68,-86.46 1412.15,-81.03 1458.58,-78.36"/>
<polygon fill="midnightblue" stroke="midnightblue" points="1458.91,-81.84 1468.7,-77.8 1458.52,-74.85 1458.91,-81.84"/>
</g>
<!-- Node13&#45;&gt;Node6 -->
<g id="edge24" class="edge">
<title>Node13&#45;&gt;Node6</title>
<path fill="none" stroke="midnightblue" d="M650.29,-351.53C665.85,-362.35 689.85,-381.46 703,-404 738.63,-465.09 705.1,-496.93 739,-559 793.69,-659.13 825.23,-676.59 918,-743 989.61,-794.26 1012.28,-803.94 1097,-828 1158.49,-845.46 1231.67,-851.73 1281.84,-853.93"/>
<polygon fill="midnightblue" stroke="midnightblue" points="1281.74,-857.43 1291.87,-854.33 1282.02,-850.44 1281.74,-857.43"/>
</g>
<!-- Node13&#45;&gt;Node7 -->
<g id="edge25" class="edge">
<title>Node13&#45;&gt;Node7</title>
<path fill="none" stroke="midnightblue" d="M703.09,-343.35C868.36,-347.81 1287.74,-366.47 1402,-442 1462.57,-482.04 1494.07,-568.24 1505.67,-607.19"/>
<polygon fill="midnightblue" stroke="midnightblue" points="1502.43,-608.59 1508.54,-617.25 1509.16,-606.67 1502.43,-608.59"/>
</g>
<!-- Node13&#45;&gt;Node11 -->
<g id="edge27" class="edge">
<title>Node13&#45;&gt;Node11</title>
<path fill="none" stroke="midnightblue" d="M677.32,-332.46C686.47,-328.99 695.62,-324.3 703,-318 728.41,-296.31 713.44,-273.52 739,-252 751.89,-241.14 769.94,-235.12 784.54,-231.82"/>
<polygon fill="midnightblue" stroke="midnightblue" points="785.31,-235.24 794.45,-229.87 783.96,-228.37 785.31,-235.24"/>
</g>
<!-- Node14 -->
<g id="node14" class="node">
<title>Node14</title>
<g id="a_node14"><a xlink:href="../../d0/dfe/class_syntax_analyzer.html#a3af9b5161a2cef6fdd26b0bb60334ac4" target="_top" xlink:title=" ">
<polygon fill="none" stroke="black" points="739,-512.5 739,-531.5 882,-531.5 882,-512.5 739,-512.5"/>
<text text-anchor="middle" x="810.5" y="-519.5" font-family="Helvetica,sans-Serif" font-size="10.00">SyntaxAnalyzer::syntaxFactor</text>
</a>
</g>
</g>
<!-- Node13&#45;&gt;Node14 -->
<g id="edge28" class="edge">
<title>Node13&#45;&gt;Node14</title>
<path fill="none" stroke="midnightblue" d="M646.79,-351.79C660.44,-363.75 683.96,-384.79 703,-404 737.09,-438.39 774.48,-481.07 794.63,-504.52"/>
<polygon fill="midnightblue" stroke="midnightblue" points="792.07,-506.92 801.24,-512.24 797.39,-502.37 792.07,-506.92"/>
</g>
<!-- Node14&#45;&gt;Node2 -->
<g id="edge29" class="edge">
<title>Node14&#45;&gt;Node2</title>
<path fill="none" stroke="midnightblue" d="M817.43,-512.45C831.83,-490.06 870.92,-433.85 918,-404 1030.48,-332.69 1184.86,-299.26 1272.79,-285.11"/>
<polygon fill="midnightblue" stroke="midnightblue" points="1273.58,-288.53 1282.92,-283.52 1272.5,-281.61 1273.58,-288.53"/>
</g>
<!-- Node14&#45;&gt;Node3 -->
<g id="edge34" class="edge">
<title>Node14&#45;&gt;Node3</title>
<path fill="none" stroke="midnightblue" d="M830.33,-512.45C851.29,-502.1 886.4,-485.66 918,-475 1107.98,-410.92 1341.42,-363.93 1450.04,-343.82"/>
<polygon fill="midnightblue" stroke="midnightblue" points="1450.95,-347.21 1460.15,-341.96 1449.68,-340.33 1450.95,-347.21"/>
</g>
<!-- Node14&#45;&gt;Node4 -->
<g id="edge36" class="edge">
<title>Node14&#45;&gt;Node4</title>
<path fill="none" stroke="midnightblue" d="M814.48,-512.39C824.32,-482.11 858.61,-387.45 918,-334 1083.28,-185.23 1347.78,-112.22 1459.03,-86.8"/>
<polygon fill="midnightblue" stroke="midnightblue" points="1460.01,-90.17 1468.99,-84.56 1458.47,-83.34 1460.01,-90.17"/>
</g>
<!-- Node14&#45;&gt;Node6 -->
<g id="edge30" class="edge">
<title>Node14&#45;&gt;Node6</title>
<path fill="none" stroke="midnightblue" d="M815.97,-531.88C828.62,-559.01 867.15,-635.88 918,-684 1022.68,-783.05 1192.18,-827.65 1281.7,-845.19"/>
<polygon fill="midnightblue" stroke="midnightblue" points="1281.21,-848.65 1291.68,-847.09 1282.52,-841.78 1281.21,-848.65"/>
</g>
<!-- Node14&#45;&gt;Node7 -->
<g id="edge35" class="edge">
<title>Node14&#45;&gt;Node7</title>
<path fill="none" stroke="midnightblue" d="M876.62,-531.56C985.45,-547.56 1211.16,-580.9 1402,-610 1414.4,-611.89 1427.59,-613.93 1440.35,-615.91"/>
<polygon fill="midnightblue" stroke="midnightblue" points="1440.05,-619.41 1450.47,-617.49 1441.13,-612.49 1440.05,-619.41"/>
</g>
<!-- Node14&#45;&gt;Node10 -->
<g id="edge45" class="edge">
<title>Node14&#45;&gt;Node10</title>
<path fill="none" stroke="midnightblue" d="M738.8,-516.82C636.05,-509.28 446.2,-495.36 340.36,-487.6"/>
<polygon fill="midnightblue" stroke="midnightblue" points="340.3,-484.09 330.07,-486.84 339.79,-491.07 340.3,-484.09"/>
</g>
<!-- Node14&#45;&gt;Node14 -->
<g id="edge46" class="edge">
<title>Node14&#45;&gt;Node14</title>
<path fill="none" stroke="midnightblue" d="M783.37,-531.76C770.18,-540.57 779.22,-550 810.5,-550 832.01,-550 843,-545.54 843.48,-539.89"/>
<polygon fill="midnightblue" stroke="midnightblue" points="846.31,-537.83 837.63,-531.76 840.63,-541.92 846.31,-537.83"/>
</g>
<!-- Node15 -->
<g id="node15" class="node">
<title>Node15</title>
<g id="a_node15"><a xlink:href="../../d0/dfe/class_syntax_analyzer.html#a9952c4a2db0a1382b9c94f40dd535fae" target="_top" xlink:title="Пропускает текущий токен, если он указанного типа. Иначе выбрасывается исключение">
<polygon fill="none" stroke="black" points="1283.5,-1035.5 1283.5,-1054.5 1401.5,-1054.5 1401.5,-1035.5 1283.5,-1035.5"/>
<text text-anchor="middle" x="1342.5" y="-1042.5" font-family="Helvetica,sans-Serif" font-size="10.00">SyntaxAnalyzer::eatAdv</text>
</a>
</g>
</g>
<!-- Node14&#45;&gt;Node15 -->
<g id="edge31" class="edge">
<title>Node14&#45;&gt;Node15</title>
<path fill="none" stroke="midnightblue" d="M814.28,-531.8C823.98,-564.69 859,-672.97 918,-743 1037.45,-884.76 1237.65,-993.36 1312.29,-1030.83"/>
<polygon fill="midnightblue" stroke="midnightblue" points="1311.05,-1034.12 1321.56,-1035.44 1314.17,-1027.86 1311.05,-1034.12"/>
</g>
<!-- Node16 -->
<g id="node16" class="node">
<title>Node16</title>
<g id="a_node16"><a xlink:href="../../d0/dfe/class_syntax_analyzer.html#af0905389742c4f842207bb2c073afbfa" target="_top" xlink:title=" ">
<polygon fill="none" stroke="black" points="921,-484.5 921,-503.5 1058,-503.5 1058,-484.5 921,-484.5"/>
<text text-anchor="middle" x="989.5" y="-491.5" font-family="Helvetica,sans-Serif" font-size="10.00">SyntaxAnalyzer::lookFoward</text>
</a>
</g>
</g>
<!-- Node14&#45;&gt;Node16 -->
<g id="edge37" class="edge">
<title>Node14&#45;&gt;Node16</title>
<path fill="none" stroke="midnightblue" d="M871.92,-512.44C886.87,-510.08 903.01,-507.52 918.39,-505.09"/>
<polygon fill="midnightblue" stroke="midnightblue" points="919.02,-508.53 928.35,-503.51 917.93,-501.62 919.02,-508.53"/>
</g>
<!-- Node18 -->
<g id="node18" class="node">
<title>Node18</title>
<g id="a_node18"><a xlink:href="../../d0/dfe/class_syntax_analyzer.html#a2db43946bee3e973ce1cf293b262e271" target="_top" xlink:title=" ">
<polygon fill="none" stroke="black" points="1101.5,-636.5 1101.5,-655.5 1242.5,-655.5 1242.5,-636.5 1101.5,-636.5"/>
<text text-anchor="middle" x="1172" y="-643.5" font-family="Helvetica,sans-Serif" font-size="10.00">SyntaxAnalyzer::syntaxCallSt</text>
</a>
</g>
</g>
<!-- Node14&#45;&gt;Node18 -->
<g id="edge39" class="edge">
<title>Node14&#45;&gt;Node18</title>
<path fill="none" stroke="midnightblue" d="M822.78,-531.68C841.35,-547.1 880.09,-577.1 918,-593 973.58,-616.32 1040.47,-629.76 1091.51,-637.26"/>
<polygon fill="midnightblue" stroke="midnightblue" points="1091.1,-640.74 1101.5,-638.69 1092.09,-633.81 1091.1,-640.74"/>
</g>
<!-- Node19 -->
<g id="node19" class="node">
<title>Node19</title>
<g id="a_node19"><a xlink:href="../../d0/dfe/class_syntax_analyzer.html#a1264dcb50cb09c564a36125c21043298" target="_top" xlink:title=" ">
<polygon fill="none" stroke="black" points="918,-655.5 918,-674.5 1061,-674.5 1061,-655.5 918,-655.5"/>
<text text-anchor="middle" x="989.5" y="-662.5" font-family="Helvetica,sans-Serif" font-size="10.00">SyntaxAnalyzer::syntaxSelect</text>
</a>
</g>
</g>
<!-- Node14&#45;&gt;Node19 -->
<g id="edge47" class="edge">
<title>Node14&#45;&gt;Node19</title>
<path fill="none" stroke="midnightblue" d="M819.08,-531.67C839.21,-557.13 894.07,-625.17 918,-641 924.52,-645.31 931.89,-648.93 939.35,-651.93"/>
<polygon fill="midnightblue" stroke="midnightblue" points="938.2,-655.24 948.79,-655.42 940.62,-648.67 938.2,-655.24"/>
</g>
<!-- Node20 -->
<g id="node20" class="node">
<title>Node20</title>
<g id="a_node20"><a xlink:href="../../d0/dfe/class_syntax_analyzer.html#a94c8a6ab5c0e53cae22edb1a840a27ce" target="_top" xlink:title=" ">
<polygon fill="none" stroke="black" points="1097,-598.5 1097,-617.5 1247,-617.5 1247,-598.5 1097,-598.5"/>
<text text-anchor="middle" x="1172" y="-605.5" font-family="Helvetica,sans-Serif" font-size="10.00">SyntaxAnalyzer::syntaxVariable</text>
</a>
</g>
</g>
<!-- Node14&#45;&gt;Node20 -->
<g id="edge58" class="edge">
<title>Node14&#45;&gt;Node20</title>
<path fill="none" stroke="midnightblue" d="M831.46,-531.57C852.53,-541.32 886.92,-556.2 918,-565 973.34,-580.68 1037.21,-591.48 1086.93,-598.33"/>
<polygon fill="midnightblue" stroke="midnightblue" points="1086.62,-601.82 1097,-599.7 1087.56,-594.89 1086.62,-601.82"/>
</g>
<!-- Node15&#45;&gt;Node7 -->
<g id="edge32" class="edge">
<title>Node15&#45;&gt;Node7</title>
<path fill="none" stroke="midnightblue" d="M1381.08,-1035.48C1388.86,-1032.01 1396.39,-1027.32 1402,-1021 1403.63,-1019.16 1484.1,-725.34 1505.71,-646.35"/>
<polygon fill="midnightblue" stroke="midnightblue" points="1509.09,-647.26 1508.35,-636.69 1502.34,-645.41 1509.09,-647.26"/>
</g>
<!-- Node15&#45;&gt;Node8 -->
<g id="edge33" class="edge">
<title>Node15&#45;&gt;Node8</title>
<path fill="none" stroke="midnightblue" d="M1373.21,-1035.44C1382.81,-1031.68 1393.23,-1026.84 1402,-1021 1441.11,-994.96 1477.84,-953.37 1497.06,-929.81"/>
<polygon fill="midnightblue" stroke="midnightblue" points="1500.02,-931.72 1503.54,-921.73 1494.56,-927.34 1500.02,-931.72"/>
</g>
<!-- Node17 -->
<g id="node17" class="node">
<title>Node17</title>
<g id="a_node17"><a xlink:href="../../d1/d34/class_list.html#a49c179636e084dfbf7a52acd46acaf01" target="_top" xlink:title=" ">
<polygon fill="none" stroke="black" points="1144.5,-484.5 1144.5,-503.5 1199.5,-503.5 1199.5,-484.5 1144.5,-484.5"/>
<text text-anchor="middle" x="1172" y="-491.5" font-family="Helvetica,sans-Serif" font-size="10.00">List::size</text>
</a>
</g>
</g>
<!-- Node16&#45;&gt;Node17 -->
<g id="edge38" class="edge">
<title>Node16&#45;&gt;Node17</title>
<path fill="none" stroke="midnightblue" d="M1058.23,-494C1084.02,-494 1112.43,-494 1134.28,-494"/>
<polygon fill="midnightblue" stroke="midnightblue" points="1134.44,-497.5 1144.44,-494 1134.44,-490.5 1134.44,-497.5"/>
</g>
<!-- Node18&#45;&gt;Node2 -->
<g id="edge40" class="edge">
<title>Node18&#45;&gt;Node2</title>
<path fill="none" stroke="midnightblue" d="M1233.73,-636.4C1238.61,-633.91 1243.13,-630.82 1247,-627 1295.47,-579.09 1329.43,-362.14 1338.85,-295.52"/>
<polygon fill="midnightblue" stroke="midnightblue" points="1342.33,-295.91 1340.24,-285.53 1335.4,-294.95 1342.33,-295.91"/>
</g>
<!-- Node18&#45;&gt;Node6 -->
<g id="edge41" class="edge">
<title>Node18&#45;&gt;Node6</title>
<path fill="none" stroke="midnightblue" d="M1180.68,-655.52C1206.88,-688.03 1293.07,-794.93 1327.3,-837.39"/>
<polygon fill="midnightblue" stroke="midnightblue" points="1324.78,-839.83 1333.78,-845.42 1330.23,-835.44 1324.78,-839.83"/>
</g>
<!-- Node18&#45;&gt;Node7 -->
<g id="edge42" class="edge">
<title>Node18&#45;&gt;Node7</title>
<path fill="none" stroke="midnightblue" d="M1242.62,-642.09C1298.87,-638.92 1377.88,-634.48 1435.61,-631.24"/>
<polygon fill="midnightblue" stroke="midnightblue" points="1435.98,-634.72 1445.77,-630.67 1435.59,-627.73 1435.98,-634.72"/>
</g>
<!-- Node18&#45;&gt;Node9 -->
<g id="edge43" class="edge">
<title>Node18&#45;&gt;Node9</title>
<path fill="none" stroke="midnightblue" d="M1215.52,-655.59C1237.96,-660.65 1265.67,-666.9 1289.39,-672.25"/>
<polygon fill="midnightblue" stroke="midnightblue" points="1288.76,-675.69 1299.29,-674.48 1290.3,-668.87 1288.76,-675.69"/>
</g>
<!-- Node18&#45;&gt;Node10 -->
<g id="edge44" class="edge">
<title>Node18&#45;&gt;Node10</title>
<path fill="none" stroke="midnightblue" d="M1148.72,-655.6C1126.83,-664.57 1092.26,-677.52 1061,-684 952.1,-706.56 922.71,-703 811.5,-703 633.5,-703 633.5,-703 633.5,-703 475.25,-703 326.03,-551.85 279.14,-499.55"/>
<polygon fill="midnightblue" stroke="midnightblue" points="281.52,-496.96 272.28,-491.78 276.27,-501.59 281.52,-496.96"/>
</g>
<!-- Node19&#45;&gt;Node2 -->
<g id="edge48" class="edge">
<title>Node19&#45;&gt;Node2</title>
<path fill="none" stroke="midnightblue" d="M1002.55,-655.48C1021.87,-640.44 1061.25,-610.65 1097,-589 1160.93,-550.3 1196.57,-568.16 1247,-513 1306.66,-447.74 1330.74,-340.15 1338.45,-295.92"/>
<polygon fill="midnightblue" stroke="midnightblue" points="1341.93,-296.32 1340.1,-285.89 1335.03,-295.18 1341.93,-296.32"/>
</g>
<!-- Node19&#45;&gt;Node6 -->
<g id="edge49" class="edge">
<title>Node19&#45;&gt;Node6</title>
<path fill="none" stroke="midnightblue" d="M1003.58,-674.56C1023.31,-688.79 1062.1,-716 1097,-736 1171.18,-778.52 1262.78,-820.44 1310.02,-841.33"/>
<polygon fill="midnightblue" stroke="midnightblue" points="1308.84,-844.63 1319.4,-845.46 1311.66,-838.22 1308.84,-844.63"/>
</g>
<!-- Node19&#45;&gt;Node7 -->
<g id="edge50" class="edge">
<title>Node19&#45;&gt;Node7</title>
<path fill="none" stroke="midnightblue" d="M1017.75,-674.66C1084.84,-696.94 1262.71,-746.76 1402,-703 1438.95,-691.39 1474.31,-662.33 1494.28,-643.69"/>
<polygon fill="midnightblue" stroke="midnightblue" points="1496.82,-646.1 1501.62,-636.66 1491.98,-641.05 1496.82,-646.1"/>
</g>
<!-- Node19&#45;&gt;Node9 -->
<g id="edge51" class="edge">
<title>Node19&#45;&gt;Node9</title>
<path fill="none" stroke="midnightblue" d="M1061.11,-668.82C1125.45,-672.31 1219.5,-677.4 1280.61,-680.7"/>
<polygon fill="midnightblue" stroke="midnightblue" points="1280.7,-684.21 1290.87,-681.26 1281.08,-677.22 1280.7,-684.21"/>
</g>
<!-- Node19&#45;&gt;Node10 -->
<g id="edge52" class="edge">
<title>Node19&#45;&gt;Node10</title>
<path fill="none" stroke="midnightblue" d="M949.49,-655.41C851.36,-631.26 586.37,-565.78 366,-509 347.61,-504.26 327.39,-498.93 309.84,-494.27"/>
<polygon fill="midnightblue" stroke="midnightblue" points="310.41,-490.8 299.85,-491.61 308.61,-497.57 310.41,-490.8"/>
</g>
<!-- Node19&#45;&gt;Node20 -->
<g id="edge53" class="edge">
<title>Node19&#45;&gt;Node20</title>
<path fill="none" stroke="midnightblue" d="M1015.25,-655.44C1036.7,-647.34 1068.65,-635.68 1097,-627 1104.75,-624.63 1113.03,-622.3 1121.13,-620.14"/>
<polygon fill="midnightblue" stroke="midnightblue" points="1122.08,-623.51 1130.87,-617.59 1120.31,-616.74 1122.08,-623.51"/>
</g>
<!-- Node20&#45;&gt;Node2 -->
<g id="edge54" class="edge">
<title>Node20&#45;&gt;Node2</title>
<path fill="none" stroke="midnightblue" d="M1188.74,-598.49C1205.39,-587.69 1231.37,-568.61 1247,-546 1304.15,-463.36 1329.99,-342.7 1338.32,-295.74"/>
<polygon fill="midnightblue" stroke="midnightblue" points="1341.8,-296.13 1340.03,-285.68 1334.9,-294.96 1341.8,-296.13"/>
</g>
<!-- Node20&#45;&gt;Node6 -->
<g id="edge55" class="edge">
<title>Node20&#45;&gt;Node6</title>
<path fill="none" stroke="midnightblue" d="M1232.12,-617.64C1237.51,-620.1 1242.59,-623.18 1247,-627 1255.48,-634.35 1313.38,-782.41 1334.13,-835.92"/>
<polygon fill="midnightblue" stroke="midnightblue" points="1330.88,-837.23 1337.75,-845.29 1337.41,-834.7 1330.88,-837.23"/>
</g>
<!-- Node20&#45;&gt;Node7 -->
<g id="edge56" class="edge">
<title>Node20&#45;&gt;Node7</title>
<path fill="none" stroke="midnightblue" d="M1247.18,-612.17C1303.06,-615.31 1379.41,-619.6 1435.59,-622.76"/>
<polygon fill="midnightblue" stroke="midnightblue" points="1435.66,-626.27 1445.84,-623.34 1436.05,-619.28 1435.66,-626.27"/>
</g>
<!-- Node20&#45;&gt;Node9 -->
<g id="edge57" class="edge">
<title>Node20&#45;&gt;Node9</title>
<path fill="none" stroke="midnightblue" d="M1218.69,-617.51C1228.22,-620.1 1238.07,-623.26 1247,-627 1273.57,-638.14 1301.54,-655.86 1320.09,-668.59"/>
<polygon fill="midnightblue" stroke="midnightblue" points="1318.19,-671.53 1328.39,-674.39 1322.19,-665.79 1318.19,-671.53"/>
</g>
</g>
</svg>
