<?xml version="1.0" encoding="UTF-8" standalone="no"?>
<!DOCTYPE svg PUBLIC "-//W3C//DTD SVG 1.1//EN"
 "http://www.w3.org/Graphics/SVG/1.1/DTD/svg11.dtd">
<!-- Generated by graphviz version 3.0.0 (20220413.0106)
 -->
<!-- Title: SyntaxAnalyzer::syntaxSimpleExpr Pages: 1 -->
<svg width="1226pt" height="921pt"
 viewBox="0.00 0.00 1226.00 920.54" xmlns="http://www.w3.org/2000/svg" xmlns:xlink="http://www.w3.org/1999/xlink">
<g id="graph0" class="graph" transform="scale(1 1) rotate(0) translate(4 916.54)">
<title>SyntaxAnalyzer::syntaxSimpleExpr</title>
<!-- Node1 -->
<g id="node1" class="node">
<title>Node1</title>
<g id="a_node1"><a xlink:title=" ">
<polygon fill="#bfbfbf" stroke="black" points="0,-295.04 0,-314.04 164,-314.04 164,-295.04 0,-295.04"/>
<text text-anchor="middle" x="82" y="-302.04" font-family="Helvetica,sans-Serif" font-size="10.00">SyntaxAnalyzer::syntaxSimpleExpr</text>
</a>
</g>
</g>
<!-- Node2 -->
<g id="node2" class="node">
<title>Node2</title>
<g id="a_node2"><a xlink:href="../../d7/d7c/class_a_s_t_factory.html#a8d1d4c9d01ab2e366d1af6bbaeaf7bef" target="_top" xlink:title=" ">
<polygon fill="none" stroke="black" points="915,-589.04 915,-608.04 1034,-608.04 1034,-589.04 915,-589.04"/>
<text text-anchor="middle" x="974.5" y="-596.04" font-family="Helvetica,sans-Serif" font-size="10.00">ASTFactory::createAST</text>
</a>
</g>
</g>
<!-- Node1&#45;&gt;Node2 -->
<g id="edge1" class="edge">
<title>Node1&#45;&gt;Node2</title>
<path fill="none" stroke="midnightblue" d="M84.93,-314.41C99.19,-384.03 194.53,-798.54 443.5,-798.54 443.5,-798.54 443.5,-798.54 623.5,-798.54 737.89,-798.54 784,-831.26 879,-767.54 932.64,-731.56 958.99,-654.4 968.8,-618.13"/>
<polygon fill="midnightblue" stroke="midnightblue" points="972.24,-618.84 971.33,-608.28 965.46,-617.1 972.24,-618.84"/>
</g>
<!-- Node4 -->
<g id="node4" class="node">
<title>Node4</title>
<g id="a_node4"><a xlink:href="../../d0/d11/class_i_token.html#a568cb9d98839eff3fd758f419a76b092" target="_top" xlink:title="Получение типа токена">
<polygon fill="none" stroke="black" points="1101,-732.04 1101,-751.04 1187,-751.04 1187,-732.04 1101,-732.04"/>
<text text-anchor="middle" x="1144" y="-739.04" font-family="Helvetica,sans-Serif" font-size="10.00">IToken::getType</text>
</a>
</g>
</g>
<!-- Node1&#45;&gt;Node4 -->
<g id="edge9" class="edge">
<title>Node1&#45;&gt;Node4</title>
<path fill="none" stroke="midnightblue" d="M83.86,-314.09C91.36,-391.44 152.66,-912.54 443.5,-912.54 443.5,-912.54 443.5,-912.54 805,-912.54 910.8,-912.54 942.4,-900.48 1034,-847.54 1074.33,-824.23 1110.85,-782.7 1129.65,-759.13"/>
<polygon fill="midnightblue" stroke="midnightblue" points="1132.56,-761.09 1135.96,-751.06 1127.04,-756.78 1132.56,-761.09"/>
</g>
<!-- Node6 -->
<g id="node6" class="node">
<title>Node6</title>
<g id="a_node6"><a xlink:href="../../d0/dfe/class_syntax_analyzer.html#ae1d3434e5cc4b4bcd5a3a245814a44f0" target="_top" xlink:title=" ">
<polygon fill="none" stroke="black" points="924,-314.04 924,-333.04 1025,-333.04 1025,-314.04 924,-314.04"/>
<text text-anchor="middle" x="974.5" y="-321.04" font-family="Helvetica,sans-Serif" font-size="10.00">SyntaxAnalyzer::eat</text>
</a>
</g>
</g>
<!-- Node1&#45;&gt;Node6 -->
<g id="edge5" class="edge">
<title>Node1&#45;&gt;Node6</title>
<path fill="none" stroke="midnightblue" d="M164.33,-301.66C257.85,-298.44 415.99,-293.34 552,-290.54 630.66,-288.92 650.33,-288.98 729,-288.54 795.67,-288.16 813.38,-276.78 879,-288.54 901.77,-292.62 926.23,-301.83 944.56,-309.77"/>
<polygon fill="midnightblue" stroke="midnightblue" points="943.25,-313.02 953.8,-313.9 946.1,-306.62 943.25,-313.02"/>
</g>
<!-- Node7 -->
<g id="node7" class="node">
<title>Node7</title>
<g id="a_node7"><a xlink:href="../../d0/dfe/class_syntax_analyzer.html#a3ae6c7319e61cd669c417f189b098374" target="_top" xlink:title=" ">
<polygon fill="none" stroke="black" points="1078,-200.04 1078,-219.04 1210,-219.04 1210,-200.04 1078,-200.04"/>
<text text-anchor="middle" x="1144" y="-207.04" font-family="Helvetica,sans-Serif" font-size="10.00">SyntaxAnalyzer::getCurTok</text>
</a>
</g>
</g>
<!-- Node1&#45;&gt;Node7 -->
<g id="edge8" class="edge">
<title>Node1&#45;&gt;Node7</title>
<path fill="none" stroke="midnightblue" d="M84.67,-294.89C91.5,-258.33 120.85,-127.19 200,-62.54 286.49,8.1 331.82,-0.54 443.5,-0.54 443.5,-0.54 443.5,-0.54 805,-0.54 910.8,-0.54 946.66,-5.83 1034,-65.54 1082.14,-98.45 1117.86,-159.54 1133.8,-190.5"/>
<polygon fill="midnightblue" stroke="midnightblue" points="1130.83,-192.39 1138.44,-199.76 1137.09,-189.25 1130.83,-192.39"/>
</g>
<!-- Node9 -->
<g id="node9" class="node">
<title>Node9</title>
<g id="a_node9"><a xlink:href="../../df/d3f/_syntax_8hpp.html#ae7d62ca130413d4c96863327c1af81a4" target="_top" xlink:title="Возвращает истину, если value находится среди значений cont.">
<polygon fill="none" stroke="black" points="958.5,-105.04 958.5,-124.04 990.5,-124.04 990.5,-105.04 958.5,-105.04"/>
<text text-anchor="middle" x="974.5" y="-112.04" font-family="Helvetica,sans-Serif" font-size="10.00">isIn</text>
</a>
</g>
</g>
<!-- Node1&#45;&gt;Node9 -->
<g id="edge10" class="edge">
<title>Node1&#45;&gt;Node9</title>
<path fill="none" stroke="midnightblue" d="M89.24,-294.76C120.69,-246.77 267.33,-38.54 443.5,-38.54 443.5,-38.54 443.5,-38.54 623.5,-38.54 748.18,-38.54 892.28,-85.17 948.88,-105.38"/>
<polygon fill="midnightblue" stroke="midnightblue" points="947.81,-108.71 958.4,-108.83 950.19,-102.13 947.81,-108.71"/>
</g>
<!-- Node10 -->
<g id="node10" class="node">
<title>Node10</title>
<g id="a_node10"><a xlink:href="../../d0/dfe/class_syntax_analyzer.html#a1e9b913cc8c2861927d7c05d10f1822d" target="_top" xlink:title=" ">
<polygon fill="none" stroke="black" points="200,-409.04 200,-428.04 337,-428.04 337,-409.04 200,-409.04"/>
<text text-anchor="middle" x="268.5" y="-416.04" font-family="Helvetica,sans-Serif" font-size="10.00">SyntaxAnalyzer::syntaxTerm</text>
</a>
</g>
</g>
<!-- Node1&#45;&gt;Node10 -->
<g id="edge11" class="edge">
<title>Node1&#45;&gt;Node10</title>
<path fill="none" stroke="midnightblue" d="M98.41,-314.06C130.56,-333.93 204.99,-379.91 243.48,-403.7"/>
<polygon fill="midnightblue" stroke="midnightblue" points="241.65,-406.68 252,-408.96 245.33,-400.73 241.65,-406.68"/>
</g>
<!-- Node3 -->
<g id="node3" class="node">
<title>Node3</title>
<g id="a_node3"><a xlink:href="../../d0/d11/class_i_token.html#ac8ca7f7e601ae49ad573167a4e9429cb" target="_top" xlink:title=" ">
<polygon fill="none" stroke="black" points="1092.5,-532.04 1092.5,-551.04 1195.5,-551.04 1195.5,-532.04 1092.5,-532.04"/>
<text text-anchor="middle" x="1144" y="-539.04" font-family="Helvetica,sans-Serif" font-size="10.00">IToken::getAdvType</text>
</a>
</g>
</g>
<!-- Node2&#45;&gt;Node3 -->
<g id="edge2" class="edge">
<title>Node2&#45;&gt;Node3</title>
<path fill="none" stroke="midnightblue" d="M1003.54,-589C1031.44,-579.51 1074.43,-564.87 1105.31,-554.37"/>
<polygon fill="midnightblue" stroke="midnightblue" points="1106.53,-557.65 1114.87,-551.11 1104.28,-551.02 1106.53,-557.65"/>
</g>
<!-- Node2&#45;&gt;Node4 -->
<g id="edge3" class="edge">
<title>Node2&#45;&gt;Node4</title>
<path fill="none" stroke="midnightblue" d="M994.73,-608.09C1006.54,-614.34 1021.71,-623.08 1034,-632.54 1071.05,-661.05 1108.29,-701.41 1128.21,-724.16"/>
<polygon fill="midnightblue" stroke="midnightblue" points="1125.77,-726.69 1134.96,-731.96 1131.06,-722.11 1125.77,-726.69"/>
</g>
<!-- Node5 -->
<g id="node5" class="node">
<title>Node5</title>
<g id="a_node5"><a xlink:href="../../db/dc1/class_token.html#a1f07fa2fffeb2f7ab803ef8b424eae8a" target="_top" xlink:title=" ">
<polygon fill="none" stroke="black" points="1107,-589.04 1107,-608.04 1181,-608.04 1181,-589.04 1107,-589.04"/>
<text text-anchor="middle" x="1144" y="-596.04" font-family="Helvetica,sans-Serif" font-size="10.00">Token::setStr</text>
</a>
</g>
</g>
<!-- Node2&#45;&gt;Node5 -->
<g id="edge4" class="edge">
<title>Node2&#45;&gt;Node5</title>
<path fill="none" stroke="midnightblue" d="M1034.08,-598.54C1054.56,-598.54 1077.24,-598.54 1096.58,-598.54"/>
<polygon fill="midnightblue" stroke="midnightblue" points="1096.66,-602.04 1106.65,-598.54 1096.65,-595.04 1096.66,-602.04"/>
</g>
<!-- Node6&#45;&gt;Node7 -->
<g id="edge6" class="edge">
<title>Node6&#45;&gt;Node7</title>
<path fill="none" stroke="midnightblue" d="M994.88,-314.04C1006.61,-307.94 1021.64,-299.51 1034,-290.54 1051.57,-277.79 1052.88,-270.88 1070,-257.54 1085.31,-245.61 1103.56,-233.61 1117.98,-224.6"/>
<polygon fill="midnightblue" stroke="midnightblue" points="1120.16,-227.36 1126.83,-219.13 1116.48,-221.41 1120.16,-227.36"/>
</g>
<!-- Node8 -->
<g id="node8" class="node">
<title>Node8</title>
<g id="a_node8"><a xlink:href="../../d0/dfe/class_syntax_analyzer.html#a9e41370d8d74fbd2e77648d2071e7dfe" target="_top" xlink:title=" ">
<polygon fill="none" stroke="black" points="1070,-267.04 1070,-286.04 1218,-286.04 1218,-267.04 1070,-267.04"/>
<text text-anchor="middle" x="1144" y="-274.04" font-family="Helvetica,sans-Serif" font-size="10.00">SyntaxAnalyzer::getNextToken</text>
</a>
</g>
</g>
<!-- Node6&#45;&gt;Node8 -->
<g id="edge7" class="edge">
<title>Node6&#45;&gt;Node8</title>
<path fill="none" stroke="midnightblue" d="M1009.4,-314.03C1035.19,-306.79 1070.91,-296.77 1098.93,-288.91"/>
<polygon fill="midnightblue" stroke="midnightblue" points="1100.18,-292.19 1108.87,-286.12 1098.29,-285.45 1100.18,-292.19"/>
</g>
<!-- Node10&#45;&gt;Node2 -->
<g id="edge12" class="edge">
<title>Node10&#45;&gt;Node2</title>
<path fill="none" stroke="midnightblue" d="M274.06,-428.25C296.35,-474.38 399.03,-672.11 552,-741.54 618.17,-771.57 815,-775.96 879,-741.54 928.21,-715.07 956.07,-650.5 967.43,-617.96"/>
<polygon fill="midnightblue" stroke="midnightblue" points="970.82,-618.85 970.65,-608.25 964.18,-616.64 970.82,-618.85"/>
</g>
<!-- Node10&#45;&gt;Node4 -->
<g id="edge15" class="edge">
<title>Node10&#45;&gt;Node4</title>
<path fill="none" stroke="midnightblue" d="M271.67,-428.06C287.18,-493.55 387.48,-874.54 621.5,-874.54 621.5,-874.54 621.5,-874.54 805,-874.54 932.3,-874.54 1069.02,-791.83 1121.14,-756.86"/>
<polygon fill="midnightblue" stroke="midnightblue" points="1123.29,-759.63 1129.59,-751.11 1119.35,-753.84 1123.29,-759.63"/>
</g>
<!-- Node10&#45;&gt;Node6 -->
<g id="edge13" class="edge">
<title>Node10&#45;&gt;Node6</title>
<path fill="none" stroke="midnightblue" d="M337.05,-421.84C475.69,-427.47 787.07,-434 879,-384.54 901.86,-372.24 893.27,-352.74 915,-338.54 915.39,-338.28 915.79,-338.03 916.2,-337.78"/>
<polygon fill="midnightblue" stroke="midnightblue" points="917.87,-340.86 925.15,-333.16 914.65,-334.64 917.87,-340.86"/>
</g>
<!-- Node10&#45;&gt;Node7 -->
<g id="edge14" class="edge">
<title>Node10&#45;&gt;Node7</title>
<path fill="none" stroke="midnightblue" d="M270.94,-408.68C276.72,-372.49 301.49,-245.39 373,-175.54 458.05,-92.47 502.61,-76.54 621.5,-76.54 621.5,-76.54 621.5,-76.54 805,-76.54 907.13,-76.54 941.83,-51.55 1034,-95.54 1078.68,-116.86 1114.62,-164.93 1131.87,-191.33"/>
<polygon fill="midnightblue" stroke="midnightblue" points="1129.05,-193.42 1137.37,-199.98 1134.96,-189.67 1129.05,-193.42"/>
</g>
<!-- Node10&#45;&gt;Node9 -->
<g id="edge16" class="edge">
<title>Node10&#45;&gt;Node9</title>
<path fill="none" stroke="midnightblue" d="M276.18,-408.96C304.24,-369.56 417.43,-219.28 552,-158.54 690.8,-95.89 880.69,-105.78 948.32,-111.87"/>
<polygon fill="midnightblue" stroke="midnightblue" points="948.16,-115.37 958.45,-112.84 948.83,-108.4 948.16,-115.37"/>
</g>
<!-- Node11 -->
<g id="node11" class="node">
<title>Node11</title>
<g id="a_node11"><a xlink:href="../../d0/dfe/class_syntax_analyzer.html#a3af9b5161a2cef6fdd26b0bb60334ac4" target="_top" xlink:title=" ">
<polygon fill="none" stroke="black" points="373,-447.04 373,-466.04 516,-466.04 516,-447.04 373,-447.04"/>
<text text-anchor="middle" x="444.5" y="-454.04" font-family="Helvetica,sans-Serif" font-size="10.00">SyntaxAnalyzer::syntaxFactor</text>
</a>
</g>
</g>
<!-- Node10&#45;&gt;Node11 -->
<g id="edge17" class="edge">
<title>Node10&#45;&gt;Node11</title>
<path fill="none" stroke="midnightblue" d="M313.41,-428.13C336.68,-433.21 365.45,-439.5 390.02,-444.86"/>
<polygon fill="midnightblue" stroke="midnightblue" points="389.39,-448.31 399.91,-447.02 390.89,-441.47 389.39,-448.31"/>
</g>
<!-- Node11&#45;&gt;Node2 -->
<g id="edge18" class="edge">
<title>Node11&#45;&gt;Node2</title>
<path fill="none" stroke="midnightblue" d="M448.94,-466.17C459.39,-493.9 493.73,-574.14 552,-608.54 676.72,-682.17 860.45,-636.01 937.46,-611.24"/>
<polygon fill="midnightblue" stroke="midnightblue" points="938.77,-614.5 947.17,-608.05 936.58,-607.85 938.77,-614.5"/>
</g>
<!-- Node11&#45;&gt;Node3 -->
<g id="edge23" class="edge">
<title>Node11&#45;&gt;Node3</title>
<path fill="none" stroke="midnightblue" d="M516.24,-465.95C528.17,-467.51 540.44,-469.09 552,-470.54 745.69,-494.91 975.34,-521.97 1082.41,-534.49"/>
<polygon fill="midnightblue" stroke="midnightblue" points="1082.04,-537.97 1092.38,-535.65 1082.85,-531.02 1082.04,-537.97"/>
</g>
<!-- Node11&#45;&gt;Node4 -->
<g id="edge29" class="edge">
<title>Node11&#45;&gt;Node4</title>
<path fill="none" stroke="midnightblue" d="M445.53,-466.18C446.24,-507.97 455.22,-674.39 552,-741.54 727.43,-863.26 1008.18,-787.09 1107.1,-754.32"/>
<polygon fill="midnightblue" stroke="midnightblue" points="1108.28,-757.62 1116.64,-751.11 1106.04,-750.99 1108.28,-757.62"/>
</g>
<!-- Node11&#45;&gt;Node6 -->
<g id="edge19" class="edge">
<title>Node11&#45;&gt;Node6</title>
<path fill="none" stroke="midnightblue" d="M450.25,-446.69C462.79,-421.93 499.5,-357.23 552,-331.54 674.93,-271.37 843.18,-294.84 924.94,-311.86"/>
<polygon fill="midnightblue" stroke="midnightblue" points="924.43,-315.33 934.94,-314 925.9,-308.48 924.43,-315.33"/>
</g>
<!-- Node11&#45;&gt;Node7 -->
<g id="edge24" class="edge">
<title>Node11&#45;&gt;Node7</title>
<path fill="none" stroke="midnightblue" d="M453.91,-447.02C468.52,-430.01 498.71,-392.77 516,-356.54 541.26,-303.59 507,-267.19 552,-229.54 715.83,-92.47 1003.77,-165 1105.84,-196.97"/>
<polygon fill="midnightblue" stroke="midnightblue" points="1104.81,-200.31 1115.4,-200.02 1106.94,-193.64 1104.81,-200.31"/>
</g>
<!-- Node11&#45;&gt;Node11 -->
<g id="edge44" class="edge">
<title>Node11&#45;&gt;Node11</title>
<path fill="none" stroke="midnightblue" d="M417.37,-466.3C404.18,-475.11 413.22,-484.54 444.5,-484.54 466.01,-484.54 477,-480.08 477.48,-474.43"/>
<polygon fill="midnightblue" stroke="midnightblue" points="480.31,-472.37 471.63,-466.3 474.63,-476.46 480.31,-472.37"/>
</g>
<!-- Node12 -->
<g id="node12" class="node">
<title>Node12</title>
<g id="a_node12"><a xlink:href="../../d0/dfe/class_syntax_analyzer.html#a9952c4a2db0a1382b9c94f40dd535fae" target="_top" xlink:title=" ">
<polygon fill="none" stroke="black" points="915.5,-219.04 915.5,-238.04 1033.5,-238.04 1033.5,-219.04 915.5,-219.04"/>
<text text-anchor="middle" x="974.5" y="-226.04" font-family="Helvetica,sans-Serif" font-size="10.00">SyntaxAnalyzer::eatAdv</text>
</a>
</g>
</g>
<!-- Node11&#45;&gt;Node12 -->
<g id="edge20" class="edge">
<title>Node11&#45;&gt;Node12</title>
<path fill="none" stroke="midnightblue" d="M452.89,-446.86C466.17,-429.29 494.67,-390.81 516,-356.54 533.66,-328.17 524.59,-309.65 552,-290.54 658.04,-216.62 815.74,-214.73 905.14,-220.98"/>
<polygon fill="midnightblue" stroke="midnightblue" points="904.93,-224.47 915.17,-221.73 905.46,-217.49 904.93,-224.47"/>
</g>
<!-- Node13 -->
<g id="node13" class="node">
<title>Node13</title>
<g id="a_node13"><a xlink:href="../../db/dc1/class_token.html#a014ced0a9ea72ae21fad0d4f116d0a73" target="_top" xlink:title=" ">
<polygon fill="none" stroke="black" points="583.5,-580.04 583.5,-599.04 661.5,-599.04 661.5,-580.04 583.5,-580.04"/>
<text text-anchor="middle" x="622.5" y="-587.04" font-family="Helvetica,sans-Serif" font-size="10.00">Token::getInfo</text>
</a>
</g>
</g>
<!-- Node11&#45;&gt;Node13 -->
<g id="edge25" class="edge">
<title>Node11&#45;&gt;Node13</title>
<path fill="none" stroke="midnightblue" d="M458.16,-466.11C488.07,-488.71 563.41,-545.64 600.37,-573.58"/>
<polygon fill="midnightblue" stroke="midnightblue" points="598.39,-576.47 608.48,-579.7 602.61,-570.88 598.39,-576.47"/>
</g>
<!-- Node16 -->
<g id="node16" class="node">
<title>Node16</title>
<g id="a_node16"><a xlink:href="../../d0/dfe/class_syntax_analyzer.html#af0905389742c4f842207bb2c073afbfa" target="_top" xlink:title=" ">
<polygon fill="none" stroke="black" points="554,-713.04 554,-732.04 691,-732.04 691,-713.04 554,-713.04"/>
<text text-anchor="middle" x="622.5" y="-720.04" font-family="Helvetica,sans-Serif" font-size="10.00">SyntaxAnalyzer::lookFoward</text>
</a>
</g>
</g>
<!-- Node11&#45;&gt;Node16 -->
<g id="edge30" class="edge">
<title>Node11&#45;&gt;Node16</title>
<path fill="none" stroke="midnightblue" d="M446.98,-466.47C452.92,-502.92 478.4,-630.74 552,-698.54 556.39,-702.58 561.5,-705.95 566.91,-708.76"/>
<polygon fill="midnightblue" stroke="midnightblue" points="565.68,-712.04 576.24,-712.96 568.56,-705.66 565.68,-712.04"/>
</g>
<!-- Node18 -->
<g id="node18" class="node">
<title>Node18</title>
<g id="a_node18"><a xlink:href="../../d0/dfe/class_syntax_analyzer.html#a2db43946bee3e973ce1cf293b262e271" target="_top" xlink:title=" ">
<polygon fill="none" stroke="black" points="552,-371.04 552,-390.04 693,-390.04 693,-371.04 552,-371.04"/>
<text text-anchor="middle" x="622.5" y="-378.04" font-family="Helvetica,sans-Serif" font-size="10.00">SyntaxAnalyzer::syntaxCallSt</text>
</a>
</g>
</g>
<!-- Node11&#45;&gt;Node18 -->
<g id="edge32" class="edge">
<title>Node11&#45;&gt;Node18</title>
<path fill="none" stroke="midnightblue" d="M467.79,-446.91C498.74,-433.55 554.87,-409.31 590.06,-394.12"/>
<polygon fill="midnightblue" stroke="midnightblue" points="591.6,-397.27 599.39,-390.09 588.82,-390.84 591.6,-397.27"/>
</g>
<!-- Node19 -->
<g id="node19" class="node">
<title>Node19</title>
<g id="a_node19"><a xlink:href="../../d0/dfe/class_syntax_analyzer.html#ae8d09db1b25ec882248aeed978c13a4d" target="_top" xlink:title=" ">
<polygon fill="none" stroke="black" points="737,-333.04 737,-352.04 871,-352.04 871,-333.04 737,-333.04"/>
<text text-anchor="middle" x="804" y="-340.04" font-family="Helvetica,sans-Serif" font-size="10.00">SyntaxAnalyzer::syntaxExpr</text>
</a>
</g>
</g>
<!-- Node11&#45;&gt;Node19 -->
<g id="edge43" class="edge">
<title>Node11&#45;&gt;Node19</title>
<path fill="none" stroke="midnightblue" d="M452.71,-446.77C468.23,-426.6 507.08,-380.64 552,-361.54 607.24,-338.06 675.45,-334.3 726.82,-335.87"/>
<polygon fill="midnightblue" stroke="midnightblue" points="726.73,-339.37 736.86,-336.25 727,-332.37 726.73,-339.37"/>
</g>
<!-- Node20 -->
<g id="node20" class="node">
<title>Node20</title>
<g id="a_node20"><a xlink:href="../../d0/dfe/class_syntax_analyzer.html#a94c8a6ab5c0e53cae22edb1a840a27ce" target="_top" xlink:title=" ">
<polygon fill="none" stroke="black" points="729,-447.04 729,-466.04 879,-466.04 879,-447.04 729,-447.04"/>
<text text-anchor="middle" x="804" y="-454.04" font-family="Helvetica,sans-Serif" font-size="10.00">SyntaxAnalyzer::syntaxVariable</text>
</a>
</g>
</g>
<!-- Node11&#45;&gt;Node20 -->
<g id="edge45" class="edge">
<title>Node11&#45;&gt;Node20</title>
<path fill="none" stroke="midnightblue" d="M516.13,-456.54C574.34,-456.54 657.06,-456.54 718.73,-456.54"/>
<polygon fill="midnightblue" stroke="midnightblue" points="718.82,-460.04 728.82,-456.54 718.82,-453.04 718.82,-460.04"/>
</g>
<!-- Node12&#45;&gt;Node7 -->
<g id="edge21" class="edge">
<title>Node12&#45;&gt;Node7</title>
<path fill="none" stroke="midnightblue" d="M1033.61,-221.95C1044.65,-220.7 1056.34,-219.37 1067.82,-218.07"/>
<polygon fill="midnightblue" stroke="midnightblue" points="1068.28,-221.54 1077.82,-216.93 1067.49,-214.58 1068.28,-221.54"/>
</g>
<!-- Node12&#45;&gt;Node8 -->
<g id="edge22" class="edge">
<title>Node12&#45;&gt;Node8</title>
<path fill="none" stroke="midnightblue" d="M1008.99,-238.14C1035.13,-245.63 1071.62,-256.08 1099.92,-264.2"/>
<polygon fill="midnightblue" stroke="midnightblue" points="1098.99,-267.57 1109.56,-266.96 1100.92,-260.84 1098.99,-267.57"/>
</g>
<!-- Node13&#45;&gt;Node4 -->
<g id="edge27" class="edge">
<title>Node13&#45;&gt;Node4</title>
<path fill="none" stroke="midnightblue" d="M648.47,-599.15C669.73,-607.18 701.17,-618.71 729,-627.54 859.91,-669.07 1016.81,-709.87 1094.49,-729.48"/>
<polygon fill="midnightblue" stroke="midnightblue" points="1093.92,-732.94 1104.47,-731.99 1095.63,-726.15 1093.92,-732.94"/>
</g>
<!-- Node14 -->
<g id="node14" class="node">
<title>Node14</title>
<g id="a_node14"><a xlink:href="../../db/dc1/class_token.html#a942fcc40ffdf54c98b7b641c792a26bc" target="_top" xlink:title="Возвращает константную ссылку на строковое представление токена">
<polygon fill="none" stroke="black" points="767,-599.04 767,-618.04 841,-618.04 841,-599.04 767,-599.04"/>
<text text-anchor="middle" x="804" y="-606.04" font-family="Helvetica,sans-Serif" font-size="10.00">Token::getStr</text>
</a>
</g>
</g>
<!-- Node13&#45;&gt;Node14 -->
<g id="edge26" class="edge">
<title>Node13&#45;&gt;Node14</title>
<path fill="none" stroke="midnightblue" d="M661.57,-593.57C689.37,-596.51 727.21,-600.52 756.75,-603.64"/>
<polygon fill="midnightblue" stroke="midnightblue" points="756.51,-607.14 766.82,-604.71 757.25,-600.18 756.51,-607.14"/>
</g>
<!-- Node15 -->
<g id="node15" class="node">
<title>Node15</title>
<g id="a_node15"><a xlink:href="../../db/dc1/class_token.html#af3b5fdf2261d637af820d4adb62e6109" target="_top" xlink:title=" ">
<polygon fill="none" stroke="black" points="772.5,-561.04 772.5,-580.04 835.5,-580.04 835.5,-561.04 772.5,-561.04"/>
<text text-anchor="middle" x="804" y="-568.04" font-family="Helvetica,sans-Serif" font-size="10.00">Token::line</text>
</a>
</g>
</g>
<!-- Node13&#45;&gt;Node15 -->
<g id="edge28" class="edge">
<title>Node13&#45;&gt;Node15</title>
<path fill="none" stroke="midnightblue" d="M661.57,-585.51C691.12,-582.38 732.01,-578.05 762.22,-574.86"/>
<polygon fill="midnightblue" stroke="midnightblue" points="762.85,-578.31 772.43,-573.78 762.12,-571.35 762.85,-578.31"/>
</g>
<!-- Node17 -->
<g id="node17" class="node">
<title>Node17</title>
<g id="a_node17"><a xlink:href="../../d1/d34/class_list.html#a49c179636e084dfbf7a52acd46acaf01" target="_top" xlink:title=" ">
<polygon fill="none" stroke="black" points="776.5,-713.04 776.5,-732.04 831.5,-732.04 831.5,-713.04 776.5,-713.04"/>
<text text-anchor="middle" x="804" y="-720.04" font-family="Helvetica,sans-Serif" font-size="10.00">List::size</text>
</a>
</g>
</g>
<!-- Node16&#45;&gt;Node17 -->
<g id="edge31" class="edge">
<title>Node16&#45;&gt;Node17</title>
<path fill="none" stroke="midnightblue" d="M691.11,-722.54C716.56,-722.54 744.54,-722.54 766.16,-722.54"/>
<polygon fill="midnightblue" stroke="midnightblue" points="766.22,-726.04 776.22,-722.54 766.22,-719.04 766.22,-726.04"/>
</g>
<!-- Node18&#45;&gt;Node2 -->
<g id="edge33" class="edge">
<title>Node18&#45;&gt;Node2</title>
<path fill="none" stroke="midnightblue" d="M632.39,-390.09C649.71,-408.33 689.73,-448.7 729,-475.54 733.93,-478.91 882.1,-552.94 945.34,-584.5"/>
<polygon fill="midnightblue" stroke="midnightblue" points="943.86,-587.67 954.37,-589 946.99,-581.41 943.86,-587.67"/>
</g>
<!-- Node18&#45;&gt;Node6 -->
<g id="edge34" class="edge">
<title>Node18&#45;&gt;Node6</title>
<path fill="none" stroke="midnightblue" d="M693.23,-381.11C745.09,-380.15 817.26,-375.88 879,-361.54 902.07,-356.18 926.86,-346.03 945.27,-337.57"/>
<polygon fill="midnightblue" stroke="midnightblue" points="946.97,-340.63 954.52,-333.2 943.98,-334.3 946.97,-340.63"/>
</g>
<!-- Node18&#45;&gt;Node7 -->
<g id="edge35" class="edge">
<title>Node18&#45;&gt;Node7</title>
<path fill="none" stroke="midnightblue" d="M634.68,-370.9C671.54,-339.83 793.83,-242.46 915,-209.54 964.72,-196.03 1022.82,-196.26 1067.92,-199.75"/>
<polygon fill="midnightblue" stroke="midnightblue" points="1067.67,-203.24 1077.93,-200.59 1068.25,-196.26 1067.67,-203.24"/>
</g>
<!-- Node18&#45;&gt;Node19 -->
<g id="edge36" class="edge">
<title>Node18&#45;&gt;Node19</title>
<path fill="none" stroke="midnightblue" d="M668.8,-370.95C692.91,-365.85 722.75,-359.53 748.17,-354.15"/>
<polygon fill="midnightblue" stroke="midnightblue" points="748.97,-357.56 758.03,-352.06 747.52,-350.71 748.97,-357.56"/>
</g>
<!-- Node19&#45;&gt;Node1 -->
<g id="edge42" class="edge">
<title>Node19&#45;&gt;Node1</title>
<path fill="none" stroke="midnightblue" d="M736.74,-335.31C722.33,-333.91 707.17,-332.56 693,-331.54 509.36,-318.3 294.11,-310.6 174.68,-307.01"/>
<polygon fill="midnightblue" stroke="midnightblue" points="174.58,-303.51 164.48,-306.71 174.38,-310.51 174.58,-303.51"/>
</g>
<!-- Node19&#45;&gt;Node2 -->
<g id="edge37" class="edge">
<title>Node19&#45;&gt;Node2</title>
<path fill="none" stroke="midnightblue" d="M814.64,-352.18C830.34,-368.41 861.46,-402.84 879,-437.54 905.66,-490.28 878.5,-519.06 915,-565.54 921.09,-573.3 929.55,-579.54 938.14,-584.41"/>
<polygon fill="midnightblue" stroke="midnightblue" points="936.56,-587.53 947.05,-588.99 939.76,-581.3 936.56,-587.53"/>
</g>
<!-- Node19&#45;&gt;Node4 -->
<g id="edge40" class="edge">
<title>Node19&#45;&gt;Node4</title>
<path fill="none" stroke="midnightblue" d="M815.72,-352.33C849.72,-383.64 957.35,-484.8 1034,-579.54 1073.83,-628.76 1113.56,-692.4 1132.14,-723.21"/>
<polygon fill="midnightblue" stroke="midnightblue" points="1129.26,-725.22 1137.4,-732 1135.27,-721.62 1129.26,-725.22"/>
</g>
<!-- Node19&#45;&gt;Node6 -->
<g id="edge38" class="edge">
<title>Node19&#45;&gt;Node6</title>
<path fill="none" stroke="midnightblue" d="M871.11,-335.09C885.15,-333.5 899.88,-331.84 913.67,-330.29"/>
<polygon fill="midnightblue" stroke="midnightblue" points="914.45,-333.72 923.99,-329.12 913.66,-326.77 914.45,-333.72"/>
</g>
<!-- Node19&#45;&gt;Node7 -->
<g id="edge39" class="edge">
<title>Node19&#45;&gt;Node7</title>
<path fill="none" stroke="midnightblue" d="M829.31,-332.98C888.6,-309.64 1040.8,-249.76 1109.02,-222.91"/>
<polygon fill="midnightblue" stroke="midnightblue" points="1110.43,-226.12 1118.46,-219.2 1107.87,-219.6 1110.43,-226.12"/>
</g>
<!-- Node19&#45;&gt;Node9 -->
<g id="edge41" class="edge">
<title>Node19&#45;&gt;Node9</title>
<path fill="none" stroke="midnightblue" d="M812.03,-333.03C837.72,-298.27 926.82,-177.7 960.49,-132.15"/>
<polygon fill="midnightblue" stroke="midnightblue" points="963.32,-134.21 966.44,-124.09 957.69,-130.05 963.32,-134.21"/>
</g>
<!-- Node20&#45;&gt;Node2 -->
<g id="edge46" class="edge">
<title>Node20&#45;&gt;Node2</title>
<path fill="none" stroke="midnightblue" d="M818.04,-466.07C833.44,-477.61 859.41,-498.08 879,-518.54 897.19,-537.55 895.14,-548.28 915,-565.54 923.25,-572.71 933.31,-579.05 942.73,-584.22"/>
<polygon fill="midnightblue" stroke="midnightblue" points="941.38,-587.46 951.87,-588.97 944.61,-581.25 941.38,-587.46"/>
</g>
<!-- Node20&#45;&gt;Node6 -->
<g id="edge47" class="edge">
<title>Node20&#45;&gt;Node6</title>
<path fill="none" stroke="midnightblue" d="M847.9,-446.95C858.59,-443.43 869.65,-438.73 879,-432.54 888.83,-426.03 935.38,-370.06 959.27,-340.96"/>
<polygon fill="midnightblue" stroke="midnightblue" points="962,-343.16 965.63,-333.2 956.58,-338.72 962,-343.16"/>
</g>
<!-- Node20&#45;&gt;Node7 -->
<g id="edge48" class="edge">
<title>Node20&#45;&gt;Node7</title>
<path fill="none" stroke="midnightblue" d="M839.46,-447.03C852.12,-443.11 866.42,-438.16 879,-432.54 951.74,-400.07 981.31,-402.29 1034,-342.54 1061.13,-311.77 1043.73,-289.05 1070,-257.54 1081.63,-243.59 1098.36,-232.18 1112.86,-224"/>
<polygon fill="midnightblue" stroke="midnightblue" points="1114.85,-226.9 1122,-219.09 1111.54,-220.74 1114.85,-226.9"/>
</g>
</g>
</svg>
