<?xml version="1.0" encoding="UTF-8" standalone="no"?>
<!DOCTYPE svg PUBLIC "-//W3C//DTD SVG 1.1//EN"
 "http://www.w3.org/Graphics/SVG/1.1/DTD/svg11.dtd">
<!-- Generated by graphviz version 3.0.0 (20220413.0106)
 -->
<!-- Title: SyntaxAnalyzer::syntaxVariable Pages: 1 -->
<svg width="3135pt" height="360pt"
 viewBox="0.00 0.00 3135.00 360.00" xmlns="http://www.w3.org/2000/svg" xmlns:xlink="http://www.w3.org/1999/xlink">
<g id="graph0" class="graph" transform="scale(1 1) rotate(0) translate(4 356)">
<title>SyntaxAnalyzer::syntaxVariable</title>
<!-- Node1 -->
<g id="node1" class="node">
<title>Node1</title>
<g id="a_node1"><a xlink:title=" ">
<polygon fill="#bfbfbf" stroke="black" points="2977,-28.5 2977,-47.5 3127,-47.5 3127,-28.5 2977,-28.5"/>
<text text-anchor="middle" x="3052" y="-35.5" font-family="Helvetica,sans-Serif" font-size="10.00">SyntaxAnalyzer::syntaxVariable</text>
</a>
</g>
</g>
<!-- Node2 -->
<g id="node2" class="node">
<title>Node2</title>
<g id="a_node2"><a xlink:href="../../d0/dfe/class_syntax_analyzer.html#a3e87b8ffb5f24f1db097bfb6aaeb8c2d" target="_top" xlink:title=" ">
<polygon fill="none" stroke="black" points="1868,-66.5 1868,-85.5 2023,-85.5 2023,-66.5 1868,-66.5"/>
<text text-anchor="middle" x="1945.5" y="-73.5" font-family="Helvetica,sans-Serif" font-size="10.00">SyntaxAnalyzer::syntaxAssignSt</text>
</a>
</g>
</g>
<!-- Node1&#45;&gt;Node2 -->
<g id="edge1" class="edge">
<title>Node1&#45;&gt;Node2</title>
<path fill="none" stroke="midnightblue" d="M2985.75,-26.84C2914.43,-15.63 2796.69,0 2694.5,0 2694.5,0 2694.5,0 2321,0 2188.98,0 2035.91,-45.92 1974.3,-66.37"/>
<polygon fill="midnightblue" stroke="midnightblue" points="2985.5,-30.34 2995.92,-28.46 2986.6,-23.43 2985.5,-30.34"/>
</g>
<!-- Node17 -->
<g id="node17" class="node">
<title>Node17</title>
<g id="a_node17"><a xlink:href="../../d0/dfe/class_syntax_analyzer.html#a0d5fca8c5ec85c61bcf65df3693ce384" target="_top" xlink:title=" ">
<polygon fill="none" stroke="black" points="2798,-123.5 2798,-142.5 2941,-142.5 2941,-123.5 2798,-123.5"/>
<text text-anchor="middle" x="2869.5" y="-130.5" font-family="Helvetica,sans-Serif" font-size="10.00">SyntaxAnalyzer::syntaxFactor</text>
</a>
</g>
</g>
<!-- Node1&#45;&gt;Node17 -->
<g id="edge22" class="edge">
<title>Node1&#45;&gt;Node17</title>
<path fill="none" stroke="midnightblue" d="M3023.4,-52.53C2985.99,-72.21 2920.26,-106.81 2888.58,-123.48"/>
<polygon fill="midnightblue" stroke="midnightblue" points="3025.48,-55.39 3032.7,-47.63 3022.22,-49.19 3025.48,-55.39"/>
</g>
<!-- Node25 -->
<g id="node25" class="node">
<title>Node25</title>
<g id="a_node25"><a xlink:href="../../d0/dfe/class_syntax_analyzer.html#aee174af1cc97011051b2a8a87d2a5e7d" target="_top" xlink:title=" ">
<polygon fill="none" stroke="black" points="2067.5,-66.5 2067.5,-85.5 2210.5,-85.5 2210.5,-66.5 2067.5,-66.5"/>
<text text-anchor="middle" x="2139" y="-73.5" font-family="Helvetica,sans-Serif" font-size="10.00">SyntaxAnalyzer::syntaxSelect</text>
</a>
</g>
</g>
<!-- Node1&#45;&gt;Node25 -->
<g id="edge43" class="edge">
<title>Node1&#45;&gt;Node25</title>
<path fill="none" stroke="midnightblue" d="M2966.52,-38C2894.28,-38 2787.56,-38 2694.5,-38 2694.5,-38 2694.5,-38 2506,-38 2395.96,-38 2268.3,-55.2 2196.55,-66.46"/>
<polygon fill="midnightblue" stroke="midnightblue" points="2966.92,-41.5 2976.92,-38 2966.92,-34.5 2966.92,-41.5"/>
</g>
<!-- Node3 -->
<g id="node3" class="node">
<title>Node3</title>
<g id="a_node3"><a xlink:href="../../d0/dfe/class_syntax_analyzer.html#acef4b19447f253a6e25d762733ca8ede" target="_top" xlink:title=" ">
<polygon fill="none" stroke="black" points="1691,-104.5 1691,-123.5 1820,-123.5 1820,-104.5 1691,-104.5"/>
<text text-anchor="middle" x="1755.5" y="-111.5" font-family="Helvetica,sans-Serif" font-size="10.00">SyntaxAnalyzer::syntaxIter</text>
</a>
</g>
</g>
<!-- Node2&#45;&gt;Node3 -->
<g id="edge2" class="edge">
<title>Node2&#45;&gt;Node3</title>
<path fill="none" stroke="midnightblue" d="M1887.06,-87.61C1860.33,-93.01 1828.91,-99.36 1803.6,-104.48"/>
<polygon fill="midnightblue" stroke="midnightblue" points="1887.95,-91 1897.06,-85.59 1886.56,-84.14 1887.95,-91"/>
</g>
<!-- Node5 -->
<g id="node5" class="node">
<title>Node5</title>
<g id="a_node5"><a xlink:href="../../d0/dfe/class_syntax_analyzer.html#a1332b189c9be3ef8969eda9f078a97b3" target="_top" xlink:title=" ">
<polygon fill="none" stroke="black" points="1336,-199.5 1336,-218.5 1461,-218.5 1461,-199.5 1336,-199.5"/>
<text text-anchor="middle" x="1398.5" y="-206.5" font-family="Helvetica,sans-Serif" font-size="10.00">SyntaxAnalyzer::syntaxSt</text>
</a>
</g>
</g>
<!-- Node2&#45;&gt;Node5 -->
<g id="edge21" class="edge">
<title>Node2&#45;&gt;Node5</title>
<path fill="none" stroke="midnightblue" d="M1857.56,-71.87C1764.15,-70.8 1613.44,-79.04 1497,-133 1460.39,-149.97 1424.97,-183 1408.73,-199.35"/>
<polygon fill="midnightblue" stroke="midnightblue" points="1857.77,-75.37 1867.82,-72.02 1857.88,-68.37 1857.77,-75.37"/>
</g>
<!-- Node4 -->
<g id="node4" class="node">
<title>Node4</title>
<g id="a_node4"><a xlink:href="../../d0/dfe/class_syntax_analyzer.html#afd2005539c57ee2575cab3c50d061cd9" target="_top" xlink:title=" ">
<polygon fill="none" stroke="black" points="1500.5,-142.5 1500.5,-161.5 1639.5,-161.5 1639.5,-142.5 1500.5,-142.5"/>
<text text-anchor="middle" x="1570" y="-149.5" font-family="Helvetica,sans-Serif" font-size="10.00">SyntaxAnalyzer::syntaxForSt</text>
</a>
</g>
</g>
<!-- Node3&#45;&gt;Node4 -->
<g id="edge3" class="edge">
<title>Node3&#45;&gt;Node4</title>
<path fill="none" stroke="midnightblue" d="M1698.09,-125.68C1672.07,-131.07 1641.57,-137.39 1616.97,-142.48"/>
<polygon fill="midnightblue" stroke="midnightblue" points="1699.11,-129.04 1708.2,-123.59 1697.69,-122.19 1699.11,-129.04"/>
</g>
<!-- Node4&#45;&gt;Node5 -->
<g id="edge4" class="edge">
<title>Node4&#45;&gt;Node5</title>
<path fill="none" stroke="midnightblue" d="M1503.49,-164.83C1501.3,-165.56 1499.13,-166.28 1497,-167 1465.83,-177.47 1429.1,-189.94 1410.9,-199.46"/>
<polygon fill="midnightblue" stroke="midnightblue" points="1504.78,-168.08 1513.18,-161.62 1502.58,-161.44 1504.78,-168.08"/>
</g>
<!-- Node5&#45;&gt;Node4 -->
<g id="edge5" class="edge">
<title>Node5&#45;&gt;Node4</title>
<path fill="none" stroke="midnightblue" d="M1462.96,-196.33C1474.29,-192.64 1485.99,-188.7 1497,-185 1518.73,-177.7 1544.19,-169.24 1558.26,-161.74"/>
<polygon fill="midnightblue" stroke="midnightblue" points="1461.58,-193.09 1453.13,-199.48 1463.72,-199.76 1461.58,-193.09"/>
</g>
<!-- Node6 -->
<g id="node6" class="node">
<title>Node6</title>
<g id="a_node6"><a xlink:href="../../d0/dfe/class_syntax_analyzer.html#a44506791ee9420b418715a9e87908aeb" target="_top" xlink:title=" ">
<polygon fill="none" stroke="black" points="1160,-275.5 1160,-294.5 1291,-294.5 1291,-275.5 1160,-275.5"/>
<text text-anchor="middle" x="1225.5" y="-282.5" font-family="Helvetica,sans-Serif" font-size="10.00">SyntaxAnalyzer::syntaxIfSt</text>
</a>
</g>
</g>
<!-- Node5&#45;&gt;Node6 -->
<g id="edge6" class="edge">
<title>Node5&#45;&gt;Node6</title>
<path fill="none" stroke="midnightblue" d="M1364.03,-223.68C1345.75,-234.25 1322.33,-247.79 1300,-257 1280.63,-264.99 1256.96,-270.38 1241.82,-275.48"/>
<polygon fill="midnightblue" stroke="midnightblue" points="1365.91,-226.63 1372.83,-218.61 1362.42,-220.57 1365.91,-226.63"/>
</g>
<!-- Node7 -->
<g id="node7" class="node">
<title>Node7</title>
<g id="a_node7"><a xlink:href="../../d0/dfe/class_syntax_analyzer.html#a01d109f26cc4d069b40fed83435e3141" target="_top" xlink:title=" ">
<polygon fill="none" stroke="black" points="1155,-161.5 1155,-180.5 1296,-180.5 1296,-161.5 1155,-161.5"/>
<text text-anchor="middle" x="1225.5" y="-168.5" font-family="Helvetica,sans-Serif" font-size="10.00">SyntaxAnalyzer::syntaxStList</text>
</a>
</g>
</g>
<!-- Node5&#45;&gt;Node7 -->
<g id="edge8" class="edge">
<title>Node5&#45;&gt;Node7</title>
<path fill="none" stroke="midnightblue" d="M1344.29,-197.18C1320.18,-191.82 1292.06,-185.57 1269.34,-180.52"/>
<polygon fill="midnightblue" stroke="midnightblue" points="1343.83,-200.66 1354.35,-199.41 1345.35,-193.82 1343.83,-200.66"/>
</g>
<!-- Node16 -->
<g id="node16" class="node">
<title>Node16</title>
<g id="a_node16"><a xlink:href="../../d0/dfe/class_syntax_analyzer.html#a4a85e884f3f202c24ce09cc0c0e281b1" target="_top" xlink:title=" ">
<polygon fill="none" stroke="black" points="1151,-237.5 1151,-256.5 1300,-256.5 1300,-237.5 1151,-237.5"/>
<text text-anchor="middle" x="1225.5" y="-244.5" font-family="Helvetica,sans-Serif" font-size="10.00">SyntaxAnalyzer::syntaxWhileSt</text>
</a>
</g>
</g>
<!-- Node5&#45;&gt;Node16 -->
<g id="edge19" class="edge">
<title>Node5&#45;&gt;Node16</title>
<path fill="none" stroke="midnightblue" d="M1325.65,-218.29C1297.89,-224.15 1268.16,-231.41 1248.57,-237.39"/>
<polygon fill="midnightblue" stroke="midnightblue" points="1326.68,-221.66 1335.77,-216.21 1325.26,-214.8 1326.68,-221.66"/>
</g>
<!-- Node6&#45;&gt;Node5 -->
<g id="edge7" class="edge">
<title>Node6&#45;&gt;Node5</title>
<path fill="none" stroke="midnightblue" d="M1300.74,-274.34C1341.64,-256.4 1376.45,-232.61 1390.75,-218.55"/>
<polygon fill="midnightblue" stroke="midnightblue" points="1299.21,-271.18 1291.36,-278.3 1301.94,-277.63 1299.21,-271.18"/>
</g>
<!-- Node8 -->
<g id="node8" class="node">
<title>Node8</title>
<g id="a_node8"><a xlink:href="../../d0/dfe/class_syntax_analyzer.html#a1390f811b111005b207bd039d2623dd4" target="_top" xlink:title=" ">
<polygon fill="none" stroke="black" points="944,-199.5 944,-218.5 1115,-218.5 1115,-199.5 944,-199.5"/>
<text text-anchor="middle" x="1029.5" y="-206.5" font-family="Helvetica,sans-Serif" font-size="10.00">SyntaxAnalyzer::syntaxCompoundSt</text>
</a>
</g>
</g>
<!-- Node7&#45;&gt;Node8 -->
<g id="edge9" class="edge">
<title>Node7&#45;&gt;Node8</title>
<path fill="none" stroke="midnightblue" d="M1165.59,-182.54C1137.92,-187.96 1105.34,-194.34 1079.1,-199.48"/>
<polygon fill="midnightblue" stroke="midnightblue" points="1166.4,-185.95 1175.55,-180.59 1165.06,-179.08 1166.4,-185.95"/>
</g>
<!-- Node8&#45;&gt;Node5 -->
<g id="edge18" class="edge">
<title>Node8&#45;&gt;Node5</title>
<path fill="none" stroke="midnightblue" d="M1125.36,-209C1191.61,-209 1278.14,-209 1335.66,-209"/>
<polygon fill="midnightblue" stroke="midnightblue" points="1125.32,-205.5 1115.32,-209 1125.32,-212.5 1125.32,-205.5"/>
</g>
<!-- Node9 -->
<g id="node9" class="node">
<title>Node9</title>
<g id="a_node9"><a xlink:href="../../d0/dfe/class_syntax_analyzer.html#a500e4e0cd0605ebbee4ab452948fa2ca" target="_top" xlink:title=" ">
<polygon fill="none" stroke="black" points="768,-265.5 768,-284.5 908,-284.5 908,-265.5 768,-265.5"/>
<text text-anchor="middle" x="838" y="-272.5" font-family="Helvetica,sans-Serif" font-size="10.00">SyntaxAnalyzer::syntaxBlock</text>
</a>
</g>
</g>
<!-- Node8&#45;&gt;Node9 -->
<g id="edge10" class="edge">
<title>Node8&#45;&gt;Node9</title>
<path fill="none" stroke="midnightblue" d="M991.1,-222.03C954.33,-234.83 899.09,-254.07 866.28,-265.5"/>
<polygon fill="midnightblue" stroke="midnightblue" points="992.65,-225.19 1000.95,-218.6 990.35,-218.58 992.65,-225.19"/>
</g>
<!-- Node10 -->
<g id="node10" class="node">
<title>Node10</title>
<g id="a_node10"><a xlink:href="../../d0/dfe/class_syntax_analyzer.html#a4dc8338b4fc879f36e63f27fe3ce7041" target="_top" xlink:title=" ">
<polygon fill="none" stroke="black" points="580,-246.5 580,-265.5 732,-265.5 732,-246.5 580,-246.5"/>
<text text-anchor="middle" x="656" y="-253.5" font-family="Helvetica,sans-Serif" font-size="10.00">SyntaxAnalyzer::syntaxFuncDef</text>
</a>
</g>
</g>
<!-- Node9&#45;&gt;Node10 -->
<g id="edge11" class="edge">
<title>Node9&#45;&gt;Node10</title>
<path fill="none" stroke="midnightblue" d="M757.95,-266.66C749.39,-265.75 740.69,-264.83 732.18,-263.94"/>
<polygon fill="midnightblue" stroke="midnightblue" points="757.61,-270.14 767.92,-267.71 758.34,-263.18 757.61,-270.14"/>
</g>
<!-- Node11 -->
<g id="node11" class="node">
<title>Node11</title>
<g id="a_node11"><a xlink:href="../../d0/dfe/class_syntax_analyzer.html#ada547456d19f4a7490f57f7dc9bfed94" target="_top" xlink:title=" ">
<polygon fill="none" stroke="black" points="392,-265.5 392,-284.5 544,-284.5 544,-265.5 392,-265.5"/>
<text text-anchor="middle" x="468" y="-272.5" font-family="Helvetica,sans-Serif" font-size="10.00">SyntaxAnalyzer::syntaxProgram</text>
</a>
</g>
</g>
<!-- Node9&#45;&gt;Node11 -->
<g id="edge17" class="edge">
<title>Node9&#45;&gt;Node11</title>
<path fill="none" stroke="midnightblue" d="M757.46,-275C694.21,-275 606.34,-275 544.24,-275"/>
<polygon fill="midnightblue" stroke="midnightblue" points="757.78,-278.5 767.78,-275 757.78,-271.5 757.78,-278.5"/>
</g>
<!-- Node10&#45;&gt;Node11 -->
<g id="edge12" class="edge">
<title>Node10&#45;&gt;Node11</title>
<path fill="none" stroke="midnightblue" d="M569.85,-264.7C561.26,-265.58 552.57,-266.46 544.1,-267.33"/>
<polygon fill="midnightblue" stroke="midnightblue" points="570.29,-268.17 579.88,-263.67 569.58,-261.21 570.29,-268.17"/>
</g>
<!-- Node12 -->
<g id="node12" class="node">
<title>Node12</title>
<g id="a_node12"><a xlink:href="../../d0/dfe/class_syntax_analyzer.html#ab735ce0145b85a156c674adc42b5df80" target="_top" xlink:title="Синтаксический анализ токенов, переданных анализатору.">
<polygon fill="none" stroke="black" points="213,-265.5 213,-284.5 356,-284.5 356,-265.5 213,-265.5"/>
<text text-anchor="middle" x="284.5" y="-272.5" font-family="Helvetica,sans-Serif" font-size="10.00">SyntaxAnalyzer::parseTokens</text>
</a>
</g>
</g>
<!-- Node11&#45;&gt;Node12 -->
<g id="edge13" class="edge">
<title>Node11&#45;&gt;Node12</title>
<path fill="none" stroke="midnightblue" d="M381.84,-275C373.26,-275 364.61,-275 356.21,-275"/>
<polygon fill="midnightblue" stroke="midnightblue" points="381.87,-278.5 391.87,-275 381.87,-271.5 381.87,-278.5"/>
</g>
<!-- Node13 -->
<g id="node13" class="node">
<title>Node13</title>
<g id="a_node13"><a xlink:href="../../d1/d80/namespace_analyze.html#a1597f9f086c3276d0287917efbed14b8" target="_top" xlink:title=" ">
<polygon fill="none" stroke="black" points="74,-284.5 74,-303.5 177,-303.5 177,-284.5 74,-284.5"/>
<text text-anchor="middle" x="125.5" y="-291.5" font-family="Helvetica,sans-Serif" font-size="10.00">Analyze::analyzeFile</text>
</a>
</g>
</g>
<!-- Node12&#45;&gt;Node13 -->
<g id="edge14" class="edge">
<title>Node12&#45;&gt;Node13</title>
<path fill="none" stroke="midnightblue" d="M202.61,-284.79C193.92,-285.84 185.26,-286.89 177.08,-287.88"/>
<polygon fill="midnightblue" stroke="midnightblue" points="203.3,-288.23 212.81,-283.56 202.46,-281.28 203.3,-288.23"/>
</g>
<!-- Node15 -->
<g id="node15" class="node">
<title>Node15</title>
<g id="a_node15"><a xlink:href="../../db/df9/test_semantic_8cpp.html#a804faf7fd199a3c491020f1f2caa618b" target="_top" xlink:title="Тест семантического анализа Паскаля">
<polygon fill="none" stroke="black" points="105,-246.5 105,-265.5 146,-265.5 146,-246.5 105,-246.5"/>
<text text-anchor="middle" x="125.5" y="-253.5" font-family="Helvetica,sans-Serif" font-size="10.00">TEST</text>
</a>
</g>
</g>
<!-- Node12&#45;&gt;Node15 -->
<g id="edge16" class="edge">
<title>Node12&#45;&gt;Node15</title>
<path fill="none" stroke="midnightblue" d="M202.76,-265.23C181.6,-262.67 160.65,-260.13 146.08,-258.37"/>
<polygon fill="midnightblue" stroke="midnightblue" points="202.46,-268.72 212.81,-266.44 203.3,-261.77 202.46,-268.72"/>
</g>
<!-- Node14 -->
<g id="node14" class="node">
<title>Node14</title>
<g id="a_node14"><a xlink:href="../../d3/db4/graph_draw_8cpp.html#a3c04138a5bfe5d72780bb7e82a18e627" target="_top" xlink:title=" ">
<polygon fill="none" stroke="black" points="0,-284.5 0,-303.5 38,-303.5 38,-284.5 0,-284.5"/>
<text text-anchor="middle" x="19" y="-291.5" font-family="Helvetica,sans-Serif" font-size="10.00">main</text>
</a>
</g>
</g>
<!-- Node13&#45;&gt;Node14 -->
<g id="edge15" class="edge">
<title>Node13&#45;&gt;Node14</title>
<path fill="none" stroke="midnightblue" d="M63.7,-294C54.49,-294 45.64,-294 38.35,-294"/>
<polygon fill="midnightblue" stroke="midnightblue" points="63.78,-297.5 73.78,-294 63.78,-290.5 63.78,-297.5"/>
</g>
<!-- Node16&#45;&gt;Node5 -->
<g id="edge20" class="edge">
<title>Node16&#45;&gt;Node5</title>
<path fill="none" stroke="midnightblue" d="M1309.58,-235.29C1333.92,-229.92 1358.53,-223.77 1375.49,-218.59"/>
<polygon fill="midnightblue" stroke="midnightblue" points="1308.58,-231.92 1299.55,-237.45 1310.06,-238.76 1308.58,-231.92"/>
</g>
<!-- Node17&#45;&gt;Node3 -->
<g id="edge24" class="edge">
<title>Node17&#45;&gt;Node3</title>
<path fill="none" stroke="midnightblue" d="M2787.71,-126.3C2714.69,-120.83 2604.22,-114 2508,-114 2508,-114 2508,-114 2138,-114 2026.23,-114 1896.05,-114 1820.29,-114"/>
<polygon fill="midnightblue" stroke="midnightblue" points="2787.52,-129.8 2797.76,-127.07 2788.05,-122.82 2787.52,-129.8"/>
</g>
<!-- Node17&#45;&gt;Node17 -->
<g id="edge23" class="edge">
<title>Node17&#45;&gt;Node17</title>
<path fill="none" stroke="midnightblue" d="M2902.48,-150.89C2902,-156.54 2891.01,-161 2869.5,-161 2838.22,-161 2829.18,-151.57 2842.37,-142.76"/>
<polygon fill="midnightblue" stroke="midnightblue" points="2905.31,-148.83 2896.63,-142.76 2899.63,-152.92 2905.31,-148.83"/>
</g>
<!-- Node18 -->
<g id="node18" class="node">
<title>Node18</title>
<g id="a_node18"><a xlink:href="../../d0/dfe/class_syntax_analyzer.html#a1f83850370eb120ec67a6cc19ce99e2e" target="_top" xlink:title=" ">
<polygon fill="none" stroke="black" points="2625,-180.5 2625,-199.5 2762,-199.5 2762,-180.5 2625,-180.5"/>
<text text-anchor="middle" x="2693.5" y="-187.5" font-family="Helvetica,sans-Serif" font-size="10.00">SyntaxAnalyzer::syntaxTerm</text>
</a>
</g>
</g>
<!-- Node17&#45;&gt;Node18 -->
<g id="edge25" class="edge">
<title>Node17&#45;&gt;Node18</title>
<path fill="none" stroke="midnightblue" d="M2829.87,-145.66C2797.79,-156.16 2752.86,-170.88 2723.72,-180.43"/>
<polygon fill="midnightblue" stroke="midnightblue" points="2830.96,-148.98 2839.38,-142.54 2828.78,-142.33 2830.96,-148.98"/>
</g>
<!-- Node19 -->
<g id="node19" class="node">
<title>Node19</title>
<g id="a_node19"><a xlink:href="../../d0/dfe/class_syntax_analyzer.html#a65d458f8a460cd5153c013f9dc2b6d90" target="_top" xlink:title=" ">
<polygon fill="none" stroke="black" points="2425,-180.5 2425,-199.5 2589,-199.5 2589,-180.5 2425,-180.5"/>
<text text-anchor="middle" x="2507" y="-187.5" font-family="Helvetica,sans-Serif" font-size="10.00">SyntaxAnalyzer::syntaxSimpleExpr</text>
</a>
</g>
</g>
<!-- Node18&#45;&gt;Node19 -->
<g id="edge26" class="edge">
<title>Node18&#45;&gt;Node19</title>
<path fill="none" stroke="midnightblue" d="M2614.65,-190C2606.2,-190 2597.59,-190 2589.11,-190"/>
<polygon fill="midnightblue" stroke="midnightblue" points="2614.85,-193.5 2624.85,-190 2614.85,-186.5 2614.85,-193.5"/>
</g>
<!-- Node20 -->
<g id="node20" class="node">
<title>Node20</title>
<g id="a_node20"><a xlink:href="../../d0/dfe/class_syntax_analyzer.html#a3c3f51ab7cdb341ac4fa460e352150ae" target="_top" xlink:title=" ">
<polygon fill="none" stroke="black" points="2255,-218.5 2255,-237.5 2389,-237.5 2389,-218.5 2255,-218.5"/>
<text text-anchor="middle" x="2322" y="-225.5" font-family="Helvetica,sans-Serif" font-size="10.00">SyntaxAnalyzer::syntaxExpr</text>
</a>
</g>
</g>
<!-- Node19&#45;&gt;Node20 -->
<g id="edge27" class="edge">
<title>Node19&#45;&gt;Node20</title>
<path fill="none" stroke="midnightblue" d="M2449.75,-201.68C2423.79,-207.07 2393.38,-213.39 2368.85,-218.48"/>
<polygon fill="midnightblue" stroke="midnightblue" points="2450.74,-205.05 2459.82,-199.59 2449.32,-198.2 2450.74,-205.05"/>
</g>
<!-- Node20&#45;&gt;Node2 -->
<g id="edge28" class="edge">
<title>Node20&#45;&gt;Node2</title>
<path fill="none" stroke="midnightblue" d="M2251.36,-216.76C2185.6,-205.45 2092.26,-187.39 2059,-171 2014.05,-148.86 1971.99,-104.93 1954.74,-85.56"/>
<polygon fill="midnightblue" stroke="midnightblue" points="2250.81,-220.22 2261.25,-218.45 2251.98,-213.32 2250.81,-220.22"/>
</g>
<!-- Node20&#45;&gt;Node6 -->
<g id="edge36" class="edge">
<title>Node20&#45;&gt;Node6</title>
<path fill="none" stroke="midnightblue" d="M2291.15,-241.51C2271.12,-250.05 2243.94,-260.63 2219,-267 2100.58,-297.25 2068.72,-304 1946.5,-304 1946.5,-304 1946.5,-304 1569,-304 1472.08,-304 1359.96,-296.32 1291.15,-290.73"/>
<polygon fill="midnightblue" stroke="midnightblue" points="2292.58,-244.7 2300.36,-237.51 2289.79,-238.28 2292.58,-244.7"/>
</g>
<!-- Node20&#45;&gt;Node16 -->
<g id="edge42" class="edge">
<title>Node20&#45;&gt;Node16</title>
<path fill="none" stroke="midnightblue" d="M2252.89,-239.09C2178,-250.31 2054.01,-266 1946.5,-266 1946.5,-266 1946.5,-266 1569,-266 1476.25,-266 1369.58,-258.97 1300.26,-253.46"/>
<polygon fill="midnightblue" stroke="midnightblue" points="2253.76,-242.5 2263.12,-237.54 2252.71,-235.58 2253.76,-242.5"/>
</g>
<!-- Node20&#45;&gt;Node17 -->
<g id="edge35" class="edge">
<title>Node20&#45;&gt;Node17</title>
<path fill="none" stroke="midnightblue" d="M2399.19,-237.52C2488.71,-245.83 2640.45,-250.84 2762,-209 2802.81,-194.95 2841.71,-159.89 2859.05,-142.75"/>
<polygon fill="midnightblue" stroke="midnightblue" points="2399.41,-234.03 2389.12,-236.55 2398.74,-240.99 2399.41,-234.03"/>
</g>
<!-- Node21 -->
<g id="node21" class="node">
<title>Node21</title>
<g id="a_node21"><a xlink:href="../../d0/dfe/class_syntax_analyzer.html#a21f6ed68cce9f38063319d350afc1239" target="_top" xlink:title=" ">
<polygon fill="none" stroke="black" points="2068.5,-142.5 2068.5,-161.5 2209.5,-161.5 2209.5,-142.5 2068.5,-142.5"/>
<text text-anchor="middle" x="2139" y="-149.5" font-family="Helvetica,sans-Serif" font-size="10.00">SyntaxAnalyzer::syntaxCallSt</text>
</a>
</g>
</g>
<!-- Node20&#45;&gt;Node21 -->
<g id="edge29" class="edge">
<title>Node20&#45;&gt;Node21</title>
<path fill="none" stroke="midnightblue" d="M2295.55,-213.43C2275.26,-202.22 2245.9,-186.84 2219,-176 2205.31,-170.48 2189.84,-165.52 2176.25,-161.56"/>
<polygon fill="midnightblue" stroke="midnightblue" points="2294.02,-216.59 2304.46,-218.42 2297.44,-210.48 2294.02,-216.59"/>
</g>
<!-- Node22 -->
<g id="node22" class="node">
<title>Node22</title>
<g id="a_node22"><a xlink:href="../../d0/dfe/class_syntax_analyzer.html#ad43214817dbe71119316f653b4cbbefb" target="_top" xlink:title=" ">
<polygon fill="none" stroke="black" points="2059,-332.5 2059,-351.5 2219,-351.5 2219,-332.5 2059,-332.5"/>
<text text-anchor="middle" x="2139" y="-339.5" font-family="Helvetica,sans-Serif" font-size="10.00">SyntaxAnalyzer::syntaxConstDecl</text>
</a>
</g>
</g>
<!-- Node20&#45;&gt;Node22 -->
<g id="edge32" class="edge">
<title>Node20&#45;&gt;Node22</title>
<path fill="none" stroke="midnightblue" d="M2305.95,-245.16C2287.39,-265.31 2253.98,-298.48 2219,-318 2207.98,-324.15 2195.21,-328.9 2183.18,-332.5"/>
<polygon fill="midnightblue" stroke="midnightblue" points="2308.64,-247.4 2312.74,-237.63 2303.44,-242.71 2308.64,-247.4"/>
</g>
<!-- Node24 -->
<g id="node24" class="node">
<title>Node24</title>
<g id="a_node24"><a xlink:href="../../d0/dfe/class_syntax_analyzer.html#a24dfeabcc9335e5f3f040f7cf0c64fd9" target="_top" xlink:title=" ">
<polygon fill="none" stroke="black" points="1679,-218.5 1679,-237.5 1832,-237.5 1832,-218.5 1679,-218.5"/>
<text text-anchor="middle" x="1755.5" y="-225.5" font-family="Helvetica,sans-Serif" font-size="10.00">SyntaxAnalyzer::syntaxReturnSt</text>
</a>
</g>
</g>
<!-- Node20&#45;&gt;Node24 -->
<g id="edge37" class="edge">
<title>Node20&#45;&gt;Node24</title>
<path fill="none" stroke="midnightblue" d="M2244.68,-228C2136.55,-228 1939.94,-228 1832.16,-228"/>
<polygon fill="midnightblue" stroke="midnightblue" points="2244.86,-231.5 2254.86,-228 2244.86,-224.5 2244.86,-231.5"/>
</g>
<!-- Node20&#45;&gt;Node25 -->
<g id="edge39" class="edge">
<title>Node20&#45;&gt;Node25</title>
<path fill="none" stroke="midnightblue" d="M2304.22,-211.14C2284.48,-191.6 2250.4,-158.78 2219,-133 2197.3,-115.18 2170.53,-96.51 2154.38,-85.58"/>
<polygon fill="midnightblue" stroke="midnightblue" points="2301.96,-213.83 2311.52,-218.41 2306.9,-208.87 2301.96,-213.83"/>
</g>
<!-- Node21&#45;&gt;Node5 -->
<g id="edge31" class="edge">
<title>Node21&#45;&gt;Node5</title>
<path fill="none" stroke="midnightblue" d="M2057.79,-158.19C1909.24,-169.66 1594.34,-193.96 1461.1,-204.25"/>
<polygon fill="midnightblue" stroke="midnightblue" points="2058.49,-161.65 2068.19,-157.39 2057.95,-154.67 2058.49,-161.65"/>
</g>
<!-- Node21&#45;&gt;Node17 -->
<g id="edge30" class="edge">
<title>Node21&#45;&gt;Node17</title>
<path fill="none" stroke="midnightblue" d="M2219.79,-149.92C2363.09,-146.18 2661.73,-138.39 2797.99,-134.84"/>
<polygon fill="midnightblue" stroke="midnightblue" points="2219.66,-146.42 2209.75,-150.18 2219.84,-153.42 2219.66,-146.42"/>
</g>
<!-- Node23 -->
<g id="node23" class="node">
<title>Node23</title>
<g id="a_node23"><a xlink:href="../../d0/dfe/class_syntax_analyzer.html#a177c60c88c15c37d6f5cf0c41a35190b" target="_top" xlink:title=" ">
<polygon fill="none" stroke="black" points="1497,-332.5 1497,-351.5 1643,-351.5 1643,-332.5 1497,-332.5"/>
<text text-anchor="middle" x="1570" y="-339.5" font-family="Helvetica,sans-Serif" font-size="10.00">SyntaxAnalyzer::syntaxConsts</text>
</a>
</g>
</g>
<!-- Node22&#45;&gt;Node23 -->
<g id="edge33" class="edge">
<title>Node22&#45;&gt;Node23</title>
<path fill="none" stroke="midnightblue" d="M2048.6,-342C1936.53,-342 1746.61,-342 1643.26,-342"/>
<polygon fill="midnightblue" stroke="midnightblue" points="2048.86,-345.5 2058.86,-342 2048.86,-338.5 2048.86,-345.5"/>
</g>
<!-- Node23&#45;&gt;Node9 -->
<g id="edge34" class="edge">
<title>Node23&#45;&gt;Node9</title>
<path fill="none" stroke="midnightblue" d="M1486.85,-334.58C1402.56,-326.96 1267.62,-314.72 1151,-304 1067.44,-296.32 971.3,-287.37 908.08,-281.46"/>
<polygon fill="midnightblue" stroke="midnightblue" points="1486.6,-338.07 1496.88,-335.49 1487.23,-331.1 1486.6,-338.07"/>
</g>
<!-- Node24&#45;&gt;Node5 -->
<g id="edge38" class="edge">
<title>Node24&#45;&gt;Node5</title>
<path fill="none" stroke="midnightblue" d="M1668.69,-223.41C1604.64,-219.98 1518.61,-215.38 1461.23,-212.3"/>
<polygon fill="midnightblue" stroke="midnightblue" points="1668.61,-226.91 1678.78,-223.95 1668.98,-219.92 1668.61,-226.91"/>
</g>
<!-- Node25&#45;&gt;Node2 -->
<g id="edge40" class="edge">
<title>Node25&#45;&gt;Node2</title>
<path fill="none" stroke="midnightblue" d="M2057.01,-76C2045.77,-76 2034.24,-76 2023.09,-76"/>
<polygon fill="midnightblue" stroke="midnightblue" points="2057.24,-79.5 2067.24,-76 2057.24,-72.5 2057.24,-79.5"/>
</g>
<!-- Node25&#45;&gt;Node17 -->
<g id="edge41" class="edge">
<title>Node25&#45;&gt;Node17</title>
<path fill="none" stroke="midnightblue" d="M2220.73,-72.43C2340.02,-68.65 2570.01,-67.14 2762,-100 2790.81,-104.93 2822.69,-115.53 2843.99,-123.39"/>
<polygon fill="midnightblue" stroke="midnightblue" points="2220.46,-68.93 2210.58,-72.76 2220.69,-75.93 2220.46,-68.93"/>
</g>
</g>
</svg>
