<?xml version="1.0" encoding="UTF-8" standalone="no"?>
<!DOCTYPE svg PUBLIC "-//W3C//DTD SVG 1.1//EN"
 "http://www.w3.org/Graphics/SVG/1.1/DTD/svg11.dtd">
<!-- Generated by graphviz version 3.0.0 (20220413.0106)
 -->
<!-- Title: SyntaxAnalyzer::eat Pages: 1 -->
<svg width="3255pt" height="1053pt"
 viewBox="0.00 0.00 3255.00 1053.31" xmlns="http://www.w3.org/2000/svg" xmlns:xlink="http://www.w3.org/1999/xlink">
<g id="graph0" class="graph" transform="scale(1 1) rotate(0) translate(4 1049.31)">
<title>SyntaxAnalyzer::eat</title>
<!-- Node1 -->
<g id="node1" class="node">
<title>Node1</title>
<g id="a_node1"><a xlink:title="Пропускает текущий токен, если он указанного типа. Иначе выбрасывается исключение">
<polygon fill="#bfbfbf" stroke="black" points="3146,-524.97 3146,-543.97 3247,-543.97 3247,-524.97 3146,-524.97"/>
<text text-anchor="middle" x="3196.5" y="-531.97" font-family="Helvetica,sans-Serif" font-size="10.00">SyntaxAnalyzer::eat</text>
</a>
</g>
</g>
<!-- Node2 -->
<g id="node2" class="node">
<title>Node2</title>
<g id="a_node2"><a xlink:href="../../d0/dfe/class_syntax_analyzer.html#a3e87b8ffb5f24f1db097bfb6aaeb8c2d" target="_top" xlink:title=" ">
<polygon fill="none" stroke="black" points="1837,-496.97 1837,-515.97 1992,-515.97 1992,-496.97 1837,-496.97"/>
<text text-anchor="middle" x="1914.5" y="-503.97" font-family="Helvetica,sans-Serif" font-size="10.00">SyntaxAnalyzer::syntaxAssignSt</text>
</a>
</g>
</g>
<!-- Node1&#45;&gt;Node2 -->
<g id="edge1" class="edge">
<title>Node1&#45;&gt;Node2</title>
<path fill="none" stroke="midnightblue" d="M3185.81,-515.99C3172.26,-492.11 3145.27,-451.14 3110,-430.47 3005.79,-369.39 2963.29,-382.47 2842.5,-382.47 2842.5,-382.47 2842.5,-382.47 2290,-382.47 2144.46,-382.47 1982.5,-467.91 1931.66,-496.94"/>
<polygon fill="midnightblue" stroke="midnightblue" points="3182.76,-517.71 3190.64,-524.79 3188.9,-514.34 3182.76,-517.71"/>
</g>
<!-- Node3 -->
<g id="node3" class="node">
<title>Node3</title>
<g id="a_node3"><a xlink:href="../../d0/dfe/class_syntax_analyzer.html#acef4b19447f253a6e25d762733ca8ede" target="_top" xlink:title=" ">
<polygon fill="none" stroke="black" points="1672,-439.97 1672,-458.97 1801,-458.97 1801,-439.97 1672,-439.97"/>
<text text-anchor="middle" x="1736.5" y="-446.97" font-family="Helvetica,sans-Serif" font-size="10.00">SyntaxAnalyzer::syntaxIter</text>
</a>
</g>
</g>
<!-- Node1&#45;&gt;Node3 -->
<g id="edge51" class="edge">
<title>Node1&#45;&gt;Node3</title>
<path fill="none" stroke="midnightblue" d="M3191.03,-514.88C3182.11,-480.68 3158.62,-410.55 3110,-377.47 3010.96,-310.08 2962.29,-344.47 2842.5,-344.47 2842.5,-344.47 2842.5,-344.47 2107,-344.47 1967.95,-344.47 1810.3,-414.12 1756.58,-439.96"/>
<polygon fill="midnightblue" stroke="midnightblue" points="3187.64,-515.76 3193.43,-524.63 3194.44,-514.09 3187.64,-515.76"/>
</g>
<!-- Node4 -->
<g id="node4" class="node">
<title>Node4</title>
<g id="a_node4"><a xlink:href="../../d0/dfe/class_syntax_analyzer.html#afd2005539c57ee2575cab3c50d061cd9" target="_top" xlink:title=" ">
<polygon fill="none" stroke="black" points="1497,-458.97 1497,-477.97 1636,-477.97 1636,-458.97 1497,-458.97"/>
<text text-anchor="middle" x="1566.5" y="-465.97" font-family="Helvetica,sans-Serif" font-size="10.00">SyntaxAnalyzer::syntaxForSt</text>
</a>
</g>
</g>
<!-- Node1&#45;&gt;Node4 -->
<g id="edge48" class="edge">
<title>Node1&#45;&gt;Node4</title>
<path fill="none" stroke="midnightblue" d="M3193.72,-514.74C3188.79,-473.05 3171.02,-376.21 3110,-331.47 3013.7,-260.86 2961.91,-306.47 2842.5,-306.47 2842.5,-306.47 2842.5,-306.47 1913.5,-306.47 1768.91,-306.47 1619.67,-423.94 1578.55,-458.82"/>
<polygon fill="midnightblue" stroke="midnightblue" points="3190.24,-515.15 3194.77,-524.73 3197.2,-514.41 3190.24,-515.15"/>
</g>
<!-- Node5 -->
<g id="node5" class="node">
<title>Node5</title>
<g id="a_node5"><a xlink:href="../../d0/dfe/class_syntax_analyzer.html#a1332b189c9be3ef8969eda9f078a97b3" target="_top" xlink:title=" ">
<polygon fill="none" stroke="black" points="1336,-567.97 1336,-586.97 1461,-586.97 1461,-567.97 1336,-567.97"/>
<text text-anchor="middle" x="1398.5" y="-574.97" font-family="Helvetica,sans-Serif" font-size="10.00">SyntaxAnalyzer::syntaxSt</text>
</a>
</g>
</g>
<!-- Node1&#45;&gt;Node5 -->
<g id="edge56" class="edge">
<title>Node1&#45;&gt;Node5</title>
<path fill="none" stroke="midnightblue" d="M3195.07,-554.2C3192.91,-601.86 3180.4,-723.84 3110,-785.47 3018.8,-865.3 2963.7,-838.47 2842.5,-838.47 2842.5,-838.47 2842.5,-838.47 2290,-838.47 1926.52,-838.47 1831.35,-781.04 1497,-638.47 1464.31,-624.53 1429.94,-600.48 1412.03,-587.12"/>
<polygon fill="midnightblue" stroke="midnightblue" points="3198.58,-554.12 3195.42,-544.01 3191.58,-553.88 3198.58,-554.12"/>
</g>
<!-- Node6 -->
<g id="node6" class="node">
<title>Node6</title>
<g id="a_node6"><a xlink:href="../../d0/dfe/class_syntax_analyzer.html#a44506791ee9420b418715a9e87908aeb" target="_top" xlink:title=" ">
<polygon fill="none" stroke="black" points="1160,-762.97 1160,-781.97 1291,-781.97 1291,-762.97 1160,-762.97"/>
<text text-anchor="middle" x="1225.5" y="-769.97" font-family="Helvetica,sans-Serif" font-size="10.00">SyntaxAnalyzer::syntaxIfSt</text>
</a>
</g>
</g>
<!-- Node1&#45;&gt;Node6 -->
<g id="edge50" class="edge">
<title>Node1&#45;&gt;Node6</title>
<path fill="none" stroke="midnightblue" d="M3193.22,-554.42C3185.35,-619.65 3157.2,-824.91 3110,-868.47 3021.34,-950.28 2963.13,-914.47 2842.5,-914.47 2842.5,-914.47 2842.5,-914.47 1565.5,-914.47 1427.99,-914.47 1281.77,-813.84 1238.94,-782.01"/>
<polygon fill="midnightblue" stroke="midnightblue" points="3196.72,-554.59 3194.42,-544.25 3189.77,-553.77 3196.72,-554.59"/>
</g>
<!-- Node7 -->
<g id="node7" class="node">
<title>Node7</title>
<g id="a_node7"><a xlink:href="../../d0/dfe/class_syntax_analyzer.html#a01d109f26cc4d069b40fed83435e3141" target="_top" xlink:title=" ">
<polygon fill="none" stroke="black" points="1155,-220.97 1155,-239.97 1296,-239.97 1296,-220.97 1155,-220.97"/>
<text text-anchor="middle" x="1225.5" y="-227.97" font-family="Helvetica,sans-Serif" font-size="10.00">SyntaxAnalyzer::syntaxStList</text>
</a>
</g>
</g>
<!-- Node1&#45;&gt;Node7 -->
<g id="edge57" class="edge">
<title>Node1&#45;&gt;Node7</title>
<path fill="none" stroke="midnightblue" d="M3192.59,-514.86C3183.41,-455.84 3153.08,-281.77 3110,-247.47 3016.8,-173.27 2961.63,-230.47 2842.5,-230.47 2842.5,-230.47 2842.5,-230.47 1565.5,-230.47 1472.36,-230.47 1364.83,-230.47 1296.29,-230.47"/>
<polygon fill="midnightblue" stroke="midnightblue" points="3189.14,-515.41 3194.1,-524.77 3196.06,-514.36 3189.14,-515.41"/>
</g>
<!-- Node8 -->
<g id="node8" class="node">
<title>Node8</title>
<g id="a_node8"><a xlink:href="../../d0/dfe/class_syntax_analyzer.html#a1390f811b111005b207bd039d2623dd4" target="_top" xlink:title=" ">
<polygon fill="none" stroke="black" points="944,-201.97 944,-220.97 1115,-220.97 1115,-201.97 944,-201.97"/>
<text text-anchor="middle" x="1029.5" y="-208.97" font-family="Helvetica,sans-Serif" font-size="10.00">SyntaxAnalyzer::syntaxCompoundSt</text>
</a>
</g>
</g>
<!-- Node1&#45;&gt;Node8 -->
<g id="edge43" class="edge">
<title>Node1&#45;&gt;Node8</title>
<path fill="none" stroke="midnightblue" d="M3193.36,-514.65C3185.91,-449.89 3158.94,-246.37 3110,-206.47 3063.87,-168.85 2902.03,-192.47 2842.5,-192.47 2842.5,-192.47 2842.5,-192.47 1397.5,-192.47 1300.68,-192.47 1189.69,-199.14 1115.35,-204.58"/>
<polygon fill="midnightblue" stroke="midnightblue" points="3189.9,-515.2 3194.49,-524.75 3196.85,-514.42 3189.9,-515.2"/>
</g>
<!-- Node10 -->
<g id="node10" class="node">
<title>Node10</title>
<g id="a_node10"><a xlink:href="../../d0/dfe/class_syntax_analyzer.html#a4dc8338b4fc879f36e63f27fe3ce7041" target="_top" xlink:title=" ">
<polygon fill="none" stroke="black" points="580,-106.97 580,-125.97 732,-125.97 732,-106.97 580,-106.97"/>
<text text-anchor="middle" x="656" y="-113.97" font-family="Helvetica,sans-Serif" font-size="10.00">SyntaxAnalyzer::syntaxFuncDef</text>
</a>
</g>
</g>
<!-- Node1&#45;&gt;Node10 -->
<g id="edge49" class="edge">
<title>Node1&#45;&gt;Node10</title>
<path fill="none" stroke="midnightblue" d="M3195.17,-514.72C3193.35,-430.94 3181.7,-106.28 3110,-41.47 3021.58,38.46 2961.69,-22.47 2842.5,-22.47 2842.5,-22.47 2842.5,-22.47 1028.5,-22.47 891.78,-22.47 735.17,-83.04 678.71,-106.94"/>
<polygon fill="midnightblue" stroke="midnightblue" points="3191.68,-514.96 3195.37,-524.89 3198.68,-514.82 3191.68,-514.96"/>
</g>
<!-- Node11 -->
<g id="node11" class="node">
<title>Node11</title>
<g id="a_node11"><a xlink:href="../../d0/dfe/class_syntax_analyzer.html#ada547456d19f4a7490f57f7dc9bfed94" target="_top" xlink:title=" ">
<polygon fill="none" stroke="black" points="392,-182.97 392,-201.97 544,-201.97 544,-182.97 392,-182.97"/>
<text text-anchor="middle" x="468" y="-189.97" font-family="Helvetica,sans-Serif" font-size="10.00">SyntaxAnalyzer::syntaxProgram</text>
</a>
</g>
</g>
<!-- Node1&#45;&gt;Node11 -->
<g id="edge52" class="edge">
<title>Node1&#45;&gt;Node11</title>
<path fill="none" stroke="midnightblue" d="M3194.87,-554.57C3191.91,-635.71 3176.5,-937.71 3110,-999.47 3022.38,-1080.85 2962.09,-1028.47 2842.5,-1028.47 2842.5,-1028.47 2842.5,-1028.47 837,-1028.47 456.81,-1028.47 465.97,-295.23 468.66,-202.15"/>
<polygon fill="midnightblue" stroke="midnightblue" points="3198.38,-554.37 3195.23,-544.25 3191.39,-554.13 3198.38,-554.37"/>
</g>
<!-- Node16 -->
<g id="node16" class="node">
<title>Node16</title>
<g id="a_node16"><a xlink:href="../../d0/dfe/class_syntax_analyzer.html#a4a85e884f3f202c24ce09cc0c0e281b1" target="_top" xlink:title=" ">
<polygon fill="none" stroke="black" points="1151,-657.97 1151,-676.97 1300,-676.97 1300,-657.97 1151,-657.97"/>
<text text-anchor="middle" x="1225.5" y="-664.97" font-family="Helvetica,sans-Serif" font-size="10.00">SyntaxAnalyzer::syntaxWhileSt</text>
</a>
</g>
</g>
<!-- Node1&#45;&gt;Node16 -->
<g id="edge72" class="edge">
<title>Node1&#45;&gt;Node16</title>
<path fill="none" stroke="midnightblue" d="M3196.25,-554.26C3197.09,-607.36 3191.56,-753.89 3110,-827.47 3020.26,-908.43 2963.37,-876.47 2842.5,-876.47 2842.5,-876.47 2842.5,-876.47 2290,-876.47 1860.3,-876.47 1744.89,-851.57 1336,-719.47 1301.56,-708.34 1263.97,-688.69 1243.01,-677"/>
<polygon fill="midnightblue" stroke="midnightblue" points="3199.75,-554.06 3195.99,-544.15 3192.75,-554.24 3199.75,-554.06"/>
</g>
<!-- Node17 -->
<g id="node17" class="node">
<title>Node17</title>
<g id="a_node17"><a xlink:href="../../d0/dfe/class_syntax_analyzer.html#a21f6ed68cce9f38063319d350afc1239" target="_top" xlink:title=" ">
<polygon fill="none" stroke="black" points="2960.5,-619.97 2960.5,-638.97 3101.5,-638.97 3101.5,-619.97 2960.5,-619.97"/>
<text text-anchor="middle" x="3031" y="-626.97" font-family="Helvetica,sans-Serif" font-size="10.00">SyntaxAnalyzer::syntaxCallSt</text>
</a>
</g>
</g>
<!-- Node1&#45;&gt;Node17 -->
<g id="edge22" class="edge">
<title>Node1&#45;&gt;Node17</title>
<path fill="none" stroke="midnightblue" d="M3171.42,-549.49C3154.38,-560.03 3130.93,-574.34 3110,-586.47 3089.53,-598.33 3065.67,-611.37 3049.78,-619.95"/>
<polygon fill="midnightblue" stroke="midnightblue" points="3173.52,-552.31 3180.17,-544.06 3169.83,-546.36 3173.52,-552.31"/>
</g>
<!-- Node18 -->
<g id="node18" class="node">
<title>Node18</title>
<g id="a_node18"><a xlink:href="../../d0/dfe/class_syntax_analyzer.html#a0d5fca8c5ec85c61bcf65df3693ce384" target="_top" xlink:title=" ">
<polygon fill="none" stroke="black" points="2770,-562.97 2770,-581.97 2913,-581.97 2913,-562.97 2770,-562.97"/>
<text text-anchor="middle" x="2841.5" y="-569.97" font-family="Helvetica,sans-Serif" font-size="10.00">SyntaxAnalyzer::syntaxFactor</text>
</a>
</g>
</g>
<!-- Node1&#45;&gt;Node18 -->
<g id="edge47" class="edge">
<title>Node1&#45;&gt;Node18</title>
<path fill="none" stroke="midnightblue" d="M3148.16,-546.3C3135.81,-549.02 3122.46,-551.65 3110,-553.47 3043.66,-563.14 2967.31,-567.94 2913.21,-570.29"/>
<polygon fill="midnightblue" stroke="midnightblue" points="3149.29,-549.63 3158.26,-544 3147.74,-542.8 3149.29,-549.63"/>
</g>
<!-- Node19 -->
<g id="node19" class="node">
<title>Node19</title>
<g id="a_node19"><a xlink:href="../../d0/dfe/class_syntax_analyzer.html#a1f83850370eb120ec67a6cc19ce99e2e" target="_top" xlink:title=" ">
<polygon fill="none" stroke="black" points="2594,-714.97 2594,-733.97 2731,-733.97 2731,-714.97 2594,-714.97"/>
<text text-anchor="middle" x="2662.5" y="-721.97" font-family="Helvetica,sans-Serif" font-size="10.00">SyntaxAnalyzer::syntaxTerm</text>
</a>
</g>
</g>
<!-- Node1&#45;&gt;Node19 -->
<g id="edge58" class="edge">
<title>Node1&#45;&gt;Node19</title>
<path fill="none" stroke="midnightblue" d="M3186.56,-553.14C3173.4,-578.6 3146.37,-623.88 3110,-648.47 2994.38,-726.65 2824.44,-732.95 2731.09,-729.47"/>
<polygon fill="midnightblue" stroke="midnightblue" points="3189.72,-554.65 3191.06,-544.14 3183.46,-551.52 3189.72,-554.65"/>
</g>
<!-- Node20 -->
<g id="node20" class="node">
<title>Node20</title>
<g id="a_node20"><a xlink:href="../../d0/dfe/class_syntax_analyzer.html#a65d458f8a460cd5153c013f9dc2b6d90" target="_top" xlink:title=" ">
<polygon fill="none" stroke="black" points="2394,-714.97 2394,-733.97 2558,-733.97 2558,-714.97 2394,-714.97"/>
<text text-anchor="middle" x="2476" y="-721.97" font-family="Helvetica,sans-Serif" font-size="10.00">SyntaxAnalyzer::syntaxSimpleExpr</text>
</a>
</g>
</g>
<!-- Node1&#45;&gt;Node20 -->
<g id="edge55" class="edge">
<title>Node1&#45;&gt;Node20</title>
<path fill="none" stroke="midnightblue" d="M3190.62,-554.22C3181.15,-588.21 3156.98,-657.56 3110,-693.47 2923.37,-836.13 2607.76,-762.4 2508.12,-733.98"/>
<polygon fill="midnightblue" stroke="midnightblue" points="3194.11,-554.71 3193.28,-544.15 3187.34,-552.93 3194.11,-554.71"/>
</g>
<!-- Node21 -->
<g id="node21" class="node">
<title>Node21</title>
<g id="a_node21"><a xlink:href="../../d0/dfe/class_syntax_analyzer.html#a3c3f51ab7cdb341ac4fa460e352150ae" target="_top" xlink:title=" ">
<polygon fill="none" stroke="black" points="2224,-695.97 2224,-714.97 2358,-714.97 2358,-695.97 2224,-695.97"/>
<text text-anchor="middle" x="2291" y="-702.97" font-family="Helvetica,sans-Serif" font-size="10.00">SyntaxAnalyzer::syntaxExpr</text>
</a>
</g>
</g>
<!-- Node1&#45;&gt;Node21 -->
<g id="edge46" class="edge">
<title>Node1&#45;&gt;Node21</title>
<path fill="none" stroke="midnightblue" d="M3193.31,-554.21C3187.64,-595.62 3168.54,-691.81 3110,-741.47 3017.16,-820.23 2964.25,-800.47 2842.5,-800.47 2842.5,-800.47 2842.5,-800.47 2661.5,-800.47 2525.39,-800.47 2369.7,-739.25 2313.57,-715.1"/>
<polygon fill="midnightblue" stroke="midnightblue" points="3196.82,-554.43 3194.58,-544.07 3189.87,-553.56 3196.82,-554.43"/>
</g>
<!-- Node22 -->
<g id="node22" class="node">
<title>Node22</title>
<g id="a_node22"><a xlink:href="../../d0/dfe/class_syntax_analyzer.html#ad43214817dbe71119316f653b4cbbefb" target="_top" xlink:title=" ">
<polygon fill="none" stroke="black" points="2028,-942.97 2028,-961.97 2188,-961.97 2188,-942.97 2028,-942.97"/>
<text text-anchor="middle" x="2108" y="-949.97" font-family="Helvetica,sans-Serif" font-size="10.00">SyntaxAnalyzer::syntaxConstDecl</text>
</a>
</g>
</g>
<!-- Node1&#45;&gt;Node22 -->
<g id="edge44" class="edge">
<title>Node1&#45;&gt;Node22</title>
<path fill="none" stroke="midnightblue" d="M3194.21,-554.28C3189.04,-627.03 3167.28,-877.9 3110,-928.47 3020.52,-1007.47 2961.87,-952.47 2842.5,-952.47 2842.5,-952.47 2842.5,-952.47 2475,-952.47 2376.19,-952.47 2262.38,-952.47 2188.25,-952.47"/>
<polygon fill="midnightblue" stroke="midnightblue" points="3197.71,-554.4 3194.9,-544.19 3190.73,-553.92 3197.71,-554.4"/>
</g>
<!-- Node23 -->
<g id="node23" class="node">
<title>Node23</title>
<g id="a_node23"><a xlink:href="../../d0/dfe/class_syntax_analyzer.html#a177c60c88c15c37d6f5cf0c41a35190b" target="_top" xlink:title=" ">
<polygon fill="none" stroke="black" points="1841.5,-942.97 1841.5,-961.97 1987.5,-961.97 1987.5,-942.97 1841.5,-942.97"/>
<text text-anchor="middle" x="1914.5" y="-949.97" font-family="Helvetica,sans-Serif" font-size="10.00">SyntaxAnalyzer::syntaxConsts</text>
</a>
</g>
</g>
<!-- Node1&#45;&gt;Node23 -->
<g id="edge45" class="edge">
<title>Node1&#45;&gt;Node23</title>
<path fill="none" stroke="midnightblue" d="M3194.56,-554.49C3190.49,-631.55 3171.76,-907.38 3110,-963.47 3021.54,-1043.81 2961.99,-990.47 2842.5,-990.47 2842.5,-990.47 2842.5,-990.47 2290,-990.47 2173.25,-990.47 2143.91,-985.43 2028,-971.47 2007.55,-969 1985.15,-965.41 1965.75,-962"/>
<polygon fill="midnightblue" stroke="midnightblue" points="3198.06,-554.42 3195.07,-544.26 3191.07,-554.07 3198.06,-554.42"/>
</g>
<!-- Node24 -->
<g id="node24" class="node">
<title>Node24</title>
<g id="a_node24"><a xlink:href="../../d0/dfe/class_syntax_analyzer.html#a24dfeabcc9335e5f3f040f7cf0c64fd9" target="_top" xlink:title=" ">
<polygon fill="none" stroke="black" points="2031.5,-258.97 2031.5,-277.97 2184.5,-277.97 2184.5,-258.97 2031.5,-258.97"/>
<text text-anchor="middle" x="2108" y="-265.97" font-family="Helvetica,sans-Serif" font-size="10.00">SyntaxAnalyzer::syntaxReturnSt</text>
</a>
</g>
</g>
<!-- Node1&#45;&gt;Node24 -->
<g id="edge53" class="edge">
<title>Node1&#45;&gt;Node24</title>
<path fill="none" stroke="midnightblue" d="M3195.2,-514.63C3193.32,-467.35 3181.36,-347.89 3110,-292.47 3015.73,-219.25 2961.87,-268.47 2842.5,-268.47 2842.5,-268.47 2842.5,-268.47 2475,-268.47 2374.6,-268.47 2258.72,-268.47 2184.7,-268.47"/>
<polygon fill="midnightblue" stroke="midnightblue" points="3191.71,-514.87 3195.49,-524.77 3198.71,-514.68 3191.71,-514.87"/>
</g>
<!-- Node25 -->
<g id="node25" class="node">
<title>Node25</title>
<g id="a_node25"><a xlink:href="../../d0/dfe/class_syntax_analyzer.html#aee174af1cc97011051b2a8a87d2a5e7d" target="_top" xlink:title=" ">
<polygon fill="none" stroke="black" points="2036.5,-524.97 2036.5,-543.97 2179.5,-543.97 2179.5,-524.97 2036.5,-524.97"/>
<text text-anchor="middle" x="2108" y="-531.97" font-family="Helvetica,sans-Serif" font-size="10.00">SyntaxAnalyzer::syntaxSelect</text>
</a>
</g>
</g>
<!-- Node1&#45;&gt;Node25 -->
<g id="edge54" class="edge">
<title>Node1&#45;&gt;Node25</title>
<path fill="none" stroke="midnightblue" d="M3169.84,-520.02C3112.86,-489.35 2970.65,-420.47 2842.5,-420.47 2842.5,-420.47 2842.5,-420.47 2661.5,-420.47 2455.33,-420.47 2214.66,-497.55 2135.62,-524.94"/>
<polygon fill="midnightblue" stroke="midnightblue" points="3168.4,-523.23 3178.86,-524.94 3171.76,-517.08 3168.4,-523.23"/>
</g>
<!-- Node26 -->
<g id="node26" class="node">
<title>Node26</title>
<g id="a_node26"><a xlink:href="../../d0/dfe/class_syntax_analyzer.html#a5ef8e691db1611dd73eff73f011b7780" target="_top" xlink:title=" ">
<polygon fill="none" stroke="black" points="2952,-88.97 2952,-107.97 3110,-107.97 3110,-88.97 2952,-88.97"/>
<text text-anchor="middle" x="3031" y="-95.97" font-family="Helvetica,sans-Serif" font-size="10.00">SyntaxAnalyzer::syntaxTypeSpec</text>
</a>
</g>
</g>
<!-- Node1&#45;&gt;Node26 -->
<g id="edge59" class="edge">
<title>Node1&#45;&gt;Node26</title>
<path fill="none" stroke="midnightblue" d="M3193.38,-514.44C3185.46,-442.94 3155.76,-201.25 3110,-140.47 3098.35,-124.99 3079.27,-114.57 3062.9,-107.98"/>
<polygon fill="midnightblue" stroke="midnightblue" points="3189.93,-515.18 3194.49,-524.74 3196.89,-514.42 3189.93,-515.18"/>
</g>
<!-- Node27 -->
<g id="node27" class="node">
<title>Node27</title>
<g id="a_node27"><a xlink:href="../../d0/dfe/class_syntax_analyzer.html#a51ff8c81c92f9f81aacae95e4c12d00a" target="_top" xlink:title=" ">
<polygon fill="none" stroke="black" points="2767,-68.97 2767,-87.97 2916,-87.97 2916,-68.97 2767,-68.97"/>
<text text-anchor="middle" x="2841.5" y="-75.97" font-family="Helvetica,sans-Serif" font-size="10.00">SyntaxAnalyzer::syntaxVarDecl</text>
</a>
</g>
</g>
<!-- Node1&#45;&gt;Node27 -->
<g id="edge66" class="edge">
<title>Node1&#45;&gt;Node27</title>
<path fill="none" stroke="midnightblue" d="M3194.97,-514.6C3192.4,-434.44 3178.29,-136.33 3110,-79.47 3040.23,-21.37 2921.02,-51.42 2868.57,-68.87"/>
<polygon fill="midnightblue" stroke="midnightblue" points="3191.48,-514.9 3195.28,-524.79 3198.48,-514.69 3191.48,-514.9"/>
</g>
<!-- Node28 -->
<g id="node28" class="node">
<title>Node28</title>
<g id="a_node28"><a xlink:href="../../d0/dfe/class_syntax_analyzer.html#a9a934470c35c197885531feb377ef5bc" target="_top" xlink:title=" ">
<polygon fill="none" stroke="black" points="2595,-144.97 2595,-163.97 2730,-163.97 2730,-144.97 2595,-144.97"/>
<text text-anchor="middle" x="2662.5" y="-151.97" font-family="Helvetica,sans-Serif" font-size="10.00">SyntaxAnalyzer::syntaxVars</text>
</a>
</g>
</g>
<!-- Node1&#45;&gt;Node28 -->
<g id="edge71" class="edge">
<title>Node1&#45;&gt;Node28</title>
<path fill="none" stroke="midnightblue" d="M3193.75,-514.33C3187.35,-445.65 3162.75,-222.4 3110,-178.47 3054.07,-131.9 2840.55,-140.67 2730.29,-148.7"/>
<polygon fill="midnightblue" stroke="midnightblue" points="3190.3,-514.99 3194.68,-524.64 3197.27,-514.36 3190.3,-514.99"/>
</g>
<!-- Node29 -->
<g id="node29" class="node">
<title>Node29</title>
<g id="a_node29"><a xlink:href="../../d0/dfe/class_syntax_analyzer.html#a1aec3b17f02af497c91b295509c6dded" target="_top" xlink:title=" ">
<polygon fill="none" stroke="black" points="2956,-524.97 2956,-543.97 3106,-543.97 3106,-524.97 2956,-524.97"/>
<text text-anchor="middle" x="3031" y="-531.97" font-family="Helvetica,sans-Serif" font-size="10.00">SyntaxAnalyzer::syntaxVariable</text>
</a>
</g>
</g>
<!-- Node1&#45;&gt;Node29 -->
<g id="edge67" class="edge">
<title>Node1&#45;&gt;Node29</title>
<path fill="none" stroke="midnightblue" d="M3135.38,-534.47C3125.83,-534.47 3115.85,-534.47 3106.02,-534.47"/>
<polygon fill="midnightblue" stroke="midnightblue" points="3135.56,-537.97 3145.56,-534.47 3135.56,-530.97 3135.56,-537.97"/>
</g>
<!-- Node2&#45;&gt;Node3 -->
<g id="edge2" class="edge">
<title>Node2&#45;&gt;Node3</title>
<path fill="none" stroke="midnightblue" d="M1874.42,-493.81C1841.98,-483.31 1796.53,-468.59 1767.05,-459.04"/>
<polygon fill="midnightblue" stroke="midnightblue" points="1873.45,-497.18 1884.04,-496.93 1875.61,-490.52 1873.45,-497.18"/>
</g>
<!-- Node2&#45;&gt;Node5 -->
<g id="edge21" class="edge">
<title>Node2&#45;&gt;Node5</title>
<path fill="none" stroke="midnightblue" d="M1834.71,-517.35C1731.99,-531.54 1554.47,-556.06 1461.06,-568.96"/>
<polygon fill="midnightblue" stroke="midnightblue" points="1835.29,-520.81 1844.71,-515.97 1834.33,-513.87 1835.29,-520.81"/>
</g>
<!-- Node3&#45;&gt;Node4 -->
<g id="edge3" class="edge">
<title>Node3&#45;&gt;Node4</title>
<path fill="none" stroke="midnightblue" d="M1662,-457.78C1653.41,-458.75 1644.67,-459.74 1636.15,-460.7"/>
<polygon fill="midnightblue" stroke="midnightblue" points="1662.44,-461.25 1671.99,-456.65 1661.66,-454.3 1662.44,-461.25"/>
</g>
<!-- Node4&#45;&gt;Node5 -->
<g id="edge4" class="edge">
<title>Node4&#45;&gt;Node5</title>
<path fill="none" stroke="midnightblue" d="M1535.1,-483.07C1496.75,-505.88 1432.91,-548.47 1408.96,-567.91"/>
<polygon fill="midnightblue" stroke="midnightblue" points="1536.93,-486.05 1543.8,-477.99 1533.4,-480.01 1536.93,-486.05"/>
</g>
<!-- Node5&#45;&gt;Node4 -->
<g id="edge5" class="edge">
<title>Node5&#45;&gt;Node4</title>
<path fill="none" stroke="midnightblue" d="M1430.03,-562.79C1468.43,-539.94 1532.22,-497.38 1556.1,-477.98"/>
<polygon fill="midnightblue" stroke="midnightblue" points="1428.19,-559.81 1421.32,-567.88 1431.72,-565.86 1428.19,-559.81"/>
</g>
<!-- Node5&#45;&gt;Node6 -->
<g id="edge6" class="edge">
<title>Node5&#45;&gt;Node6</title>
<path fill="none" stroke="midnightblue" d="M1378.88,-594.3C1340.98,-633.91 1256.45,-730.85 1232.77,-762.56"/>
<polygon fill="midnightblue" stroke="midnightblue" points="1381.55,-596.58 1386.01,-586.97 1376.53,-591.69 1381.55,-596.58"/>
</g>
<!-- Node5&#45;&gt;Node7 -->
<g id="edge8" class="edge">
<title>Node5&#45;&gt;Node7</title>
<path fill="none" stroke="midnightblue" d="M1388.16,-558.51C1356.61,-494.5 1254.69,-287.67 1231.31,-240.23"/>
<polygon fill="midnightblue" stroke="midnightblue" points="1385.19,-560.4 1392.75,-567.83 1391.47,-557.31 1385.19,-560.4"/>
</g>
<!-- Node5&#45;&gt;Node16 -->
<g id="edge19" class="edge">
<title>Node5&#45;&gt;Node16</title>
<path fill="none" stroke="midnightblue" d="M1360.19,-591.42C1321.19,-610.01 1262.31,-641.7 1237.82,-657.94"/>
<polygon fill="midnightblue" stroke="midnightblue" points="1362.07,-594.4 1369.65,-586.99 1359.1,-588.06 1362.07,-594.4"/>
</g>
<!-- Node6&#45;&gt;Node5 -->
<g id="edge7" class="edge">
<title>Node6&#45;&gt;Node5</title>
<path fill="none" stroke="midnightblue" d="M1245.32,-755.43C1283.41,-715.59 1368.04,-618.52 1391.41,-587.12"/>
<polygon fill="midnightblue" stroke="midnightblue" points="1242.6,-753.2 1238.14,-762.81 1247.62,-758.08 1242.6,-753.2"/>
</g>
<!-- Node7&#45;&gt;Node8 -->
<g id="edge9" class="edge">
<title>Node7&#45;&gt;Node8</title>
<path fill="none" stroke="midnightblue" d="M1144.7,-222.65C1134.97,-221.7 1125.01,-220.72 1115.21,-219.76"/>
<polygon fill="midnightblue" stroke="midnightblue" points="1144.44,-226.14 1154.74,-223.64 1145.12,-219.18 1144.44,-226.14"/>
</g>
<!-- Node8&#45;&gt;Node5 -->
<g id="edge18" class="edge">
<title>Node8&#45;&gt;Node5</title>
<path fill="none" stroke="midnightblue" d="M1047.49,-228.41C1111.59,-292.34 1337.73,-517.86 1387.68,-567.68"/>
<polygon fill="midnightblue" stroke="midnightblue" points="1049.73,-225.7 1040.18,-221.12 1044.79,-230.66 1049.73,-225.7"/>
</g>
<!-- Node9 -->
<g id="node9" class="node">
<title>Node9</title>
<g id="a_node9"><a xlink:href="../../d0/dfe/class_syntax_analyzer.html#a500e4e0cd0605ebbee4ab452948fa2ca" target="_top" xlink:title=" ">
<polygon fill="none" stroke="black" points="768,-182.97 768,-201.97 908,-201.97 908,-182.97 768,-182.97"/>
<text text-anchor="middle" x="838" y="-189.97" font-family="Helvetica,sans-Serif" font-size="10.00">SyntaxAnalyzer::syntaxBlock</text>
</a>
</g>
</g>
<!-- Node8&#45;&gt;Node9 -->
<g id="edge10" class="edge">
<title>Node8&#45;&gt;Node9</title>
<path fill="none" stroke="midnightblue" d="M933.63,-201.96C925.02,-201.09 916.41,-200.23 908.08,-199.39"/>
<polygon fill="midnightblue" stroke="midnightblue" points="933.43,-205.45 943.73,-202.97 934.13,-198.49 933.43,-205.45"/>
</g>
<!-- Node9&#45;&gt;Node10 -->
<g id="edge11" class="edge">
<title>Node9&#45;&gt;Node10</title>
<path fill="none" stroke="midnightblue" d="M804.63,-178.8C768.56,-163.57 711.16,-139.34 679.61,-126.02"/>
<polygon fill="midnightblue" stroke="midnightblue" points="803.63,-182.18 814.2,-182.84 806.35,-175.73 803.63,-182.18"/>
</g>
<!-- Node9&#45;&gt;Node11 -->
<g id="edge17" class="edge">
<title>Node9&#45;&gt;Node11</title>
<path fill="none" stroke="midnightblue" d="M757.46,-192.47C694.21,-192.47 606.34,-192.47 544.24,-192.47"/>
<polygon fill="midnightblue" stroke="midnightblue" points="757.78,-195.97 767.78,-192.47 757.78,-188.97 757.78,-195.97"/>
</g>
<!-- Node10&#45;&gt;Node11 -->
<g id="edge12" class="edge">
<title>Node10&#45;&gt;Node11</title>
<path fill="none" stroke="midnightblue" d="M622.03,-129.94C584.78,-145.16 525.1,-169.54 492.37,-182.92"/>
<polygon fill="midnightblue" stroke="midnightblue" points="623.51,-133.12 631.44,-126.09 620.86,-126.64 623.51,-133.12"/>
</g>
<!-- Node12 -->
<g id="node12" class="node">
<title>Node12</title>
<g id="a_node12"><a xlink:href="../../d0/dfe/class_syntax_analyzer.html#ab735ce0145b85a156c674adc42b5df80" target="_top" xlink:title="Синтаксический анализ токенов, переданных анализатору.">
<polygon fill="none" stroke="black" points="213,-182.97 213,-201.97 356,-201.97 356,-182.97 213,-182.97"/>
<text text-anchor="middle" x="284.5" y="-189.97" font-family="Helvetica,sans-Serif" font-size="10.00">SyntaxAnalyzer::parseTokens</text>
</a>
</g>
</g>
<!-- Node11&#45;&gt;Node12 -->
<g id="edge13" class="edge">
<title>Node11&#45;&gt;Node12</title>
<path fill="none" stroke="midnightblue" d="M381.84,-192.47C373.26,-192.47 364.61,-192.47 356.21,-192.47"/>
<polygon fill="midnightblue" stroke="midnightblue" points="381.87,-195.97 391.87,-192.47 381.87,-188.97 381.87,-195.97"/>
</g>
<!-- Node13 -->
<g id="node13" class="node">
<title>Node13</title>
<g id="a_node13"><a xlink:href="../../d1/d80/namespace_analyze.html#a1597f9f086c3276d0287917efbed14b8" target="_top" xlink:title=" ">
<polygon fill="none" stroke="black" points="74,-201.97 74,-220.97 177,-220.97 177,-201.97 74,-201.97"/>
<text text-anchor="middle" x="125.5" y="-208.97" font-family="Helvetica,sans-Serif" font-size="10.00">Analyze::analyzeFile</text>
</a>
</g>
</g>
<!-- Node12&#45;&gt;Node13 -->
<g id="edge14" class="edge">
<title>Node12&#45;&gt;Node13</title>
<path fill="none" stroke="midnightblue" d="M202.61,-202.26C193.92,-203.31 185.26,-204.36 177.08,-205.35"/>
<polygon fill="midnightblue" stroke="midnightblue" points="203.3,-205.7 212.81,-201.02 202.46,-198.75 203.3,-205.7"/>
</g>
<!-- Node15 -->
<g id="node15" class="node">
<title>Node15</title>
<g id="a_node15"><a xlink:href="../../db/df9/test_semantic_8cpp.html#a804faf7fd199a3c491020f1f2caa618b" target="_top" xlink:title="Тест семантического анализа Паскаля">
<polygon fill="none" stroke="black" points="105,-163.97 105,-182.97 146,-182.97 146,-163.97 105,-163.97"/>
<text text-anchor="middle" x="125.5" y="-170.97" font-family="Helvetica,sans-Serif" font-size="10.00">TEST</text>
</a>
</g>
</g>
<!-- Node12&#45;&gt;Node15 -->
<g id="edge16" class="edge">
<title>Node12&#45;&gt;Node15</title>
<path fill="none" stroke="midnightblue" d="M202.76,-182.7C181.6,-180.14 160.65,-177.6 146.08,-175.84"/>
<polygon fill="midnightblue" stroke="midnightblue" points="202.46,-186.19 212.81,-183.91 203.3,-179.24 202.46,-186.19"/>
</g>
<!-- Node14 -->
<g id="node14" class="node">
<title>Node14</title>
<g id="a_node14"><a xlink:href="../../d3/db4/graph_draw_8cpp.html#a3c04138a5bfe5d72780bb7e82a18e627" target="_top" xlink:title=" ">
<polygon fill="none" stroke="black" points="0,-201.97 0,-220.97 38,-220.97 38,-201.97 0,-201.97"/>
<text text-anchor="middle" x="19" y="-208.97" font-family="Helvetica,sans-Serif" font-size="10.00">main</text>
</a>
</g>
</g>
<!-- Node13&#45;&gt;Node14 -->
<g id="edge15" class="edge">
<title>Node13&#45;&gt;Node14</title>
<path fill="none" stroke="midnightblue" d="M63.7,-211.47C54.49,-211.47 45.64,-211.47 38.35,-211.47"/>
<polygon fill="midnightblue" stroke="midnightblue" points="63.78,-214.97 73.78,-211.47 63.78,-207.97 63.78,-214.97"/>
</g>
<!-- Node16&#45;&gt;Node5 -->
<g id="edge20" class="edge">
<title>Node16&#45;&gt;Node5</title>
<path fill="none" stroke="midnightblue" d="M1263.91,-653.47C1302.83,-634.91 1361.44,-603.36 1386.01,-587.11"/>
<polygon fill="midnightblue" stroke="midnightblue" points="1262.05,-650.48 1254.48,-657.89 1265.02,-656.82 1262.05,-650.48"/>
</g>
<!-- Node17&#45;&gt;Node5 -->
<g id="edge42" class="edge">
<title>Node17&#45;&gt;Node5</title>
<path fill="none" stroke="midnightblue" d="M2950.27,-635.99C2876.07,-641.48 2762.38,-648.47 2663.5,-648.47 2663.5,-648.47 2663.5,-648.47 1735.5,-648.47 1618.05,-648.47 1482.39,-606.42 1426.1,-587.04"/>
<polygon fill="midnightblue" stroke="midnightblue" points="2950.77,-639.46 2960.48,-635.22 2950.24,-632.48 2950.77,-639.46"/>
</g>
<!-- Node17&#45;&gt;Node18 -->
<g id="edge23" class="edge">
<title>Node17&#45;&gt;Node18</title>
<path fill="none" stroke="midnightblue" d="M2988.82,-616.95C2954.22,-606.43 2905.52,-591.63 2873.99,-582.04"/>
<polygon fill="midnightblue" stroke="midnightblue" points="2988.03,-620.37 2998.62,-619.93 2990.07,-613.67 2988.03,-620.37"/>
</g>
<!-- Node18&#45;&gt;Node3 -->
<g id="edge25" class="edge">
<title>Node18&#45;&gt;Node3</title>
<path fill="none" stroke="midnightblue" d="M2759.8,-563.47C2550.04,-540.08 1990.82,-477.72 1801.32,-456.58"/>
<polygon fill="midnightblue" stroke="midnightblue" points="2759.5,-566.96 2769.82,-564.59 2760.27,-560 2759.5,-566.96"/>
</g>
<!-- Node18&#45;&gt;Node18 -->
<g id="edge24" class="edge">
<title>Node18&#45;&gt;Node18</title>
<path fill="none" stroke="midnightblue" d="M2874.86,-590.36C2874.37,-596.01 2863.25,-600.47 2841.5,-600.47 2809.86,-600.47 2800.72,-591.03 2814.07,-582.23"/>
<polygon fill="midnightblue" stroke="midnightblue" points="2877.65,-588.25 2868.93,-582.23 2871.99,-592.37 2877.65,-588.25"/>
</g>
<!-- Node18&#45;&gt;Node19 -->
<g id="edge26" class="edge">
<title>Node18&#45;&gt;Node19</title>
<path fill="none" stroke="midnightblue" d="M2821.42,-588.86C2784.42,-620.63 2703.99,-689.7 2674.57,-714.96"/>
<polygon fill="midnightblue" stroke="midnightblue" points="2824.12,-591.15 2829.43,-581.98 2819.56,-585.84 2824.12,-591.15"/>
</g>
<!-- Node19&#45;&gt;Node20 -->
<g id="edge27" class="edge">
<title>Node19&#45;&gt;Node20</title>
<path fill="none" stroke="midnightblue" d="M2583.65,-724.47C2575.2,-724.47 2566.59,-724.47 2558.11,-724.47"/>
<polygon fill="midnightblue" stroke="midnightblue" points="2583.85,-727.97 2593.85,-724.47 2583.85,-720.97 2583.85,-727.97"/>
</g>
<!-- Node20&#45;&gt;Node21 -->
<g id="edge28" class="edge">
<title>Node20&#45;&gt;Node21</title>
<path fill="none" stroke="midnightblue" d="M2383.81,-715C2375.17,-714.1 2366.53,-713.21 2358.19,-712.34"/>
<polygon fill="midnightblue" stroke="midnightblue" points="2383.63,-718.5 2393.93,-716.05 2384.35,-711.54 2383.63,-718.5"/>
</g>
<!-- Node21&#45;&gt;Node2 -->
<g id="edge29" class="edge">
<title>Node21&#45;&gt;Node2</title>
<path fill="none" stroke="midnightblue" d="M2262.96,-691.1C2190.58,-652.64 1993.8,-548.07 1933.38,-515.97"/>
<polygon fill="midnightblue" stroke="midnightblue" points="2261.46,-694.27 2271.94,-695.87 2264.75,-688.09 2261.46,-694.27"/>
</g>
<!-- Node21&#45;&gt;Node6 -->
<g id="edge35" class="edge">
<title>Node21&#45;&gt;Node6</title>
<path fill="none" stroke="midnightblue" d="M2247.45,-717.69C2229.26,-722.56 2207.72,-727.85 2188,-731.47 1868.14,-790.21 1785.68,-795.99 1461,-814.47 1405.53,-817.62 1390.63,-824.59 1336,-814.47 1302.77,-808.31 1266.59,-792.48 1245.26,-782.11"/>
<polygon fill="midnightblue" stroke="midnightblue" points="2248.45,-721.05 2257.18,-715.04 2246.61,-714.29 2248.45,-721.05"/>
</g>
<!-- Node21&#45;&gt;Node16 -->
<g id="edge41" class="edge">
<title>Node21&#45;&gt;Node16</title>
<path fill="none" stroke="midnightblue" d="M2213.37,-711.63C2137.72,-717.18 2018.71,-724.47 1915.5,-724.47 1915.5,-724.47 1915.5,-724.47 1565.5,-724.47 1452.41,-724.47 1320.99,-693.24 1260.35,-677.01"/>
<polygon fill="midnightblue" stroke="midnightblue" points="2214.04,-715.09 2223.76,-710.86 2213.52,-708.11 2214.04,-715.09"/>
</g>
<!-- Node21&#45;&gt;Node17 -->
<g id="edge30" class="edge">
<title>Node21&#45;&gt;Node17</title>
<path fill="none" stroke="midnightblue" d="M2368.15,-703.95C2511.21,-700.49 2814.84,-690.05 2916,-662.47 2933.26,-657.76 2935.06,-650.21 2952,-644.47 2958.14,-642.39 2964.65,-640.57 2971.2,-638.98"/>
<polygon fill="midnightblue" stroke="midnightblue" points="2368.04,-700.45 2358.13,-704.19 2368.21,-707.45 2368.04,-700.45"/>
</g>
<!-- Node21&#45;&gt;Node18 -->
<g id="edge34" class="edge">
<title>Node21&#45;&gt;Node18</title>
<path fill="none" stroke="midnightblue" d="M2328.69,-692.69C2347.99,-686.2 2372.14,-678.44 2394,-672.47 2536.73,-633.49 2708.11,-598.3 2790.91,-582.01"/>
<polygon fill="midnightblue" stroke="midnightblue" points="2327.41,-689.43 2319.07,-695.95 2329.66,-696.05 2327.41,-689.43"/>
</g>
<!-- Node21&#45;&gt;Node22 -->
<g id="edge31" class="edge">
<title>Node21&#45;&gt;Node22</title>
<path fill="none" stroke="midnightblue" d="M2276.8,-723.48C2241.04,-772.28 2143.16,-905.85 2116.05,-942.85"/>
<polygon fill="midnightblue" stroke="midnightblue" points="2279.82,-725.29 2282.9,-715.15 2274.17,-721.15 2279.82,-725.29"/>
</g>
<!-- Node21&#45;&gt;Node24 -->
<g id="edge36" class="edge">
<title>Node21&#45;&gt;Node24</title>
<path fill="none" stroke="midnightblue" d="M2282.05,-686.27C2250.67,-610.52 2136.09,-333.88 2113.05,-278.25"/>
<polygon fill="midnightblue" stroke="midnightblue" points="2278.99,-688.03 2286.05,-695.93 2285.46,-685.36 2278.99,-688.03"/>
</g>
<!-- Node21&#45;&gt;Node25 -->
<g id="edge38" class="edge">
<title>Node21&#45;&gt;Node25</title>
<path fill="none" stroke="midnightblue" d="M2278.7,-686.97C2261.65,-660.22 2227.16,-610.33 2188,-577.47 2171.02,-563.21 2148.57,-551.54 2131.94,-543.97"/>
<polygon fill="midnightblue" stroke="midnightblue" points="2275.9,-689.09 2284.17,-695.71 2281.83,-685.38 2275.9,-689.09"/>
</g>
<!-- Node22&#45;&gt;Node23 -->
<g id="edge32" class="edge">
<title>Node22&#45;&gt;Node23</title>
<path fill="none" stroke="midnightblue" d="M2017.71,-952.47C2007.64,-952.47 1997.47,-952.47 1987.66,-952.47"/>
<polygon fill="midnightblue" stroke="midnightblue" points="2017.73,-955.97 2027.73,-952.47 2017.73,-948.97 2017.73,-955.97"/>
</g>
<!-- Node23&#45;&gt;Node9 -->
<g id="edge33" class="edge">
<title>Node23&#45;&gt;Node9</title>
<path fill="none" stroke="midnightblue" d="M1831.17,-952.47C1761.07,-952.47 1657.67,-952.47 1567.5,-952.47 1567.5,-952.47 1567.5,-952.47 1224.5,-952.47 870.9,-952.47 841.54,-290.05 839.2,-202.08"/>
<polygon fill="midnightblue" stroke="midnightblue" points="1831.27,-955.97 1841.27,-952.47 1831.27,-948.97 1831.27,-955.97"/>
</g>
<!-- Node24&#45;&gt;Node5 -->
<g id="edge37" class="edge">
<title>Node24&#45;&gt;Node5</title>
<path fill="none" stroke="midnightblue" d="M2030.93,-257.89C1941.37,-248.71 1789.89,-243.57 1672,-292.47 1530.67,-351.09 1428.41,-524.58 1404.73,-567.69"/>
<polygon fill="midnightblue" stroke="midnightblue" points="2030.69,-261.38 2041.01,-258.97 2031.44,-254.42 2030.69,-261.38"/>
</g>
<!-- Node25&#45;&gt;Node2 -->
<g id="edge39" class="edge">
<title>Node25&#45;&gt;Node2</title>
<path fill="none" stroke="midnightblue" d="M2031.57,-523.44C2014.77,-520.98 1997.1,-518.4 1980.75,-516.01"/>
<polygon fill="midnightblue" stroke="midnightblue" points="2031.5,-526.97 2041.9,-524.95 2032.51,-520.04 2031.5,-526.97"/>
</g>
<!-- Node25&#45;&gt;Node18 -->
<g id="edge40" class="edge">
<title>Node25&#45;&gt;Node18</title>
<path fill="none" stroke="midnightblue" d="M2189.54,-545.12C2201.09,-546.4 2212.84,-547.57 2224,-548.47 2421.26,-564.29 2654.89,-569.77 2769.66,-571.6"/>
<polygon fill="midnightblue" stroke="midnightblue" points="2189.79,-541.63 2179.46,-543.97 2188.99,-548.59 2189.79,-541.63"/>
</g>
<!-- Node26&#45;&gt;Node10 -->
<g id="edge60" class="edge">
<title>Node26&#45;&gt;Node10</title>
<path fill="none" stroke="midnightblue" d="M2941.53,-105.25C2867.34,-110.35 2758.57,-116.47 2663.5,-116.47 2663.5,-116.47 2663.5,-116.47 1028.5,-116.47 925.79,-116.47 807.11,-116.47 732.07,-116.47"/>
<polygon fill="midnightblue" stroke="midnightblue" points="2942.04,-108.72 2951.77,-104.54 2941.55,-101.74 2942.04,-108.72"/>
</g>
<!-- Node26&#45;&gt;Node26 -->
<g id="edge61" class="edge">
<title>Node26&#45;&gt;Node26</title>
<path fill="none" stroke="midnightblue" d="M3061.69,-116.74C3060.81,-122.21 3050.58,-126.47 3031,-126.47 3001.85,-126.47 2993.43,-117.03 3005.72,-108.23"/>
<polygon fill="midnightblue" stroke="midnightblue" points="3064.59,-114.79 3056.28,-108.23 3058.69,-118.54 3064.59,-114.79"/>
</g>
<!-- Node26&#45;&gt;Node27 -->
<g id="edge62" class="edge">
<title>Node26&#45;&gt;Node27</title>
<path fill="none" stroke="midnightblue" d="M2941.77,-89.06C2933.16,-88.14 2924.48,-87.21 2916.03,-86.31"/>
<polygon fill="midnightblue" stroke="midnightblue" points="2941.53,-92.55 2951.84,-90.13 2942.27,-85.59 2941.53,-92.55"/>
</g>
<!-- Node27&#45;&gt;Node10 -->
<g id="edge63" class="edge">
<title>Node27&#45;&gt;Node10</title>
<path fill="none" stroke="midnightblue" d="M2756.55,-78.47C2682.88,-78.47 2572.83,-78.47 2477,-78.47 2477,-78.47 2477,-78.47 1028.5,-78.47 916.83,-78.47 787.24,-95.67 714.41,-106.93"/>
<polygon fill="midnightblue" stroke="midnightblue" points="2756.7,-81.97 2766.7,-78.47 2756.7,-74.97 2756.7,-81.97"/>
</g>
<!-- Node27&#45;&gt;Node28 -->
<g id="edge64" class="edge">
<title>Node27&#45;&gt;Node28</title>
<path fill="none" stroke="midnightblue" d="M2808.67,-92.13C2773.2,-107.37 2716.76,-131.6 2685.74,-144.92"/>
<polygon fill="midnightblue" stroke="midnightblue" points="2810.27,-95.26 2818.08,-88.09 2807.51,-88.82 2810.27,-95.26"/>
</g>
<!-- Node28&#45;&gt;Node9 -->
<g id="edge65" class="edge">
<title>Node28&#45;&gt;Node9</title>
<path fill="none" stroke="midnightblue" d="M2584.49,-154.47C2509.74,-154.47 2393.09,-154.47 2292,-154.47 2292,-154.47 2292,-154.47 1224.5,-154.47 1108.66,-154.47 974.18,-171.67 898.59,-182.93"/>
<polygon fill="midnightblue" stroke="midnightblue" points="2584.75,-157.97 2594.75,-154.47 2584.75,-150.97 2584.75,-157.97"/>
</g>
<!-- Node29&#45;&gt;Node2 -->
<g id="edge68" class="edge">
<title>Node29&#45;&gt;Node2</title>
<path fill="none" stroke="midnightblue" d="M2945.8,-531.45C2935.76,-531.11 2925.65,-530.77 2916,-530.47 2571.28,-519.61 2159.61,-511.16 1992.08,-507.91"/>
<polygon fill="midnightblue" stroke="midnightblue" points="2945.69,-534.94 2955.8,-531.79 2945.93,-527.95 2945.69,-534.94"/>
</g>
<!-- Node29&#45;&gt;Node18 -->
<g id="edge69" class="edge">
<title>Node29&#45;&gt;Node18</title>
<path fill="none" stroke="midnightblue" d="M2972.72,-546.08C2946.05,-551.48 2914.72,-557.83 2889.47,-562.95"/>
<polygon fill="midnightblue" stroke="midnightblue" points="2973.58,-549.47 2982.69,-544.06 2972.19,-542.61 2973.58,-549.47"/>
</g>
<!-- Node29&#45;&gt;Node25 -->
<g id="edge70" class="edge">
<title>Node29&#45;&gt;Node25</title>
<path fill="none" stroke="midnightblue" d="M2945.71,-534.47C2871.43,-534.47 2760.28,-534.47 2663.5,-534.47 2663.5,-534.47 2663.5,-534.47 2475,-534.47 2372.22,-534.47 2253.21,-534.47 2179.51,-534.47"/>
<polygon fill="midnightblue" stroke="midnightblue" points="2945.94,-537.97 2955.94,-534.47 2945.94,-530.97 2945.94,-537.97"/>
</g>
</g>
</svg>
