<?xml version="1.0" encoding="UTF-8" standalone="no"?>
<!DOCTYPE svg PUBLIC "-//W3C//DTD SVG 1.1//EN"
 "http://www.w3.org/Graphics/SVG/1.1/DTD/svg11.dtd">
<!-- Generated by graphviz version 2.43.0 (0)
 -->
<!-- Title: SyntaxAnalyzer::procCallStatement Pages: 1 -->
<svg width="2209pt" height="149pt"
 viewBox="0.00 0.00 2209.00 148.62" xmlns="http://www.w3.org/2000/svg" xmlns:xlink="http://www.w3.org/1999/xlink">
<g id="graph0" class="graph" transform="scale(1 1) rotate(0) translate(4 144.62)">
<title>SyntaxAnalyzer::procCallStatement</title>
<!-- Node1 -->
<g id="node1" class="node">
<title>Node1</title>
<g id="a_node1"><a xlink:title=" ">
<polygon fill="#bfbfbf" stroke="black" points="2062,-33.62 2062,-63.62 2201,-63.62 2201,-33.62 2062,-33.62"/>
<text text-anchor="start" x="2070" y="-51.62" font-family="Helvetica,sans-Serif" font-size="10.00">SyntaxAnalyzer::procCall</text>
<text text-anchor="middle" x="2131.5" y="-40.62" font-family="Helvetica,sans-Serif" font-size="10.00">Statement</text>
</a>
</g>
</g>
<!-- Node2 -->
<g id="node2" class="node">
<title>Node2</title>
<g id="a_node2"><a xlink:href="../../d0/dfe/class_syntax_analyzer.html#a56617069058d10461a1a21685349b2dd" target="_top" xlink:title=" ">
<polygon fill="none" stroke="black" points="1898,-77.12 1898,-96.12 2026,-96.12 2026,-77.12 1898,-77.12"/>
<text text-anchor="middle" x="1962" y="-84.12" font-family="Helvetica,sans-Serif" font-size="10.00">SyntaxAnalyzer::factor</text>
</a>
</g>
</g>
<!-- Node1&#45;&gt;Node2 -->
<g id="edge1" class="edge">
<title>Node1&#45;&gt;Node2</title>
<path fill="none" stroke="midnightblue" d="M2054.4,-65.89C2037.46,-69.73 2020.1,-73.67 2005.13,-77.07"/>
<polygon fill="midnightblue" stroke="midnightblue" points="2055.32,-69.27 2064.3,-63.64 2053.77,-62.44 2055.32,-69.27"/>
</g>
<!-- Node7 -->
<g id="node7" class="node">
<title>Node7</title>
<g id="a_node7"><a xlink:href="../../d0/dfe/class_syntax_analyzer.html#a9143c9b9964ff3b8ed26a92a4a383333" target="_top" xlink:title=" ">
<polygon fill="none" stroke="black" points="996,-83.12 996,-102.12 1145,-102.12 1145,-83.12 996,-83.12"/>
<text text-anchor="middle" x="1070.5" y="-90.12" font-family="Helvetica,sans-Serif" font-size="10.00">SyntaxAnalyzer::statement</text>
</a>
</g>
</g>
<!-- Node1&#45;&gt;Node7 -->
<g id="edge22" class="edge">
<title>Node1&#45;&gt;Node7</title>
<path fill="none" stroke="midnightblue" d="M2052,-32.13C1985.7,-19.64 1888.06,-4.62 1802,-4.62 1802,-4.62 1802,-4.62 1452.5,-4.62 1331.54,-4.62 1295.97,13.97 1181,-23.62 1141.28,-36.62 1101.47,-67.15 1082.67,-82.88"/>
<polygon fill="midnightblue" stroke="midnightblue" points="2051.48,-35.6 2061.96,-34.03 2052.79,-28.72 2051.48,-35.6"/>
</g>
<!-- Node3 -->
<g id="node3" class="node">
<title>Node3</title>
<g id="a_node3"><a xlink:href="../../d0/dfe/class_syntax_analyzer.html#ab54102dcb8ab4f72bebeb3e2c34b7310" target="_top" xlink:title=" ">
<polygon fill="none" stroke="black" points="1740,-115.12 1740,-134.12 1862,-134.12 1862,-115.12 1740,-115.12"/>
<text text-anchor="middle" x="1801" y="-122.12" font-family="Helvetica,sans-Serif" font-size="10.00">SyntaxAnalyzer::term</text>
</a>
</g>
</g>
<!-- Node2&#45;&gt;Node3 -->
<g id="edge2" class="edge">
<title>Node2&#45;&gt;Node3</title>
<path fill="none" stroke="midnightblue" d="M1910.92,-98.59C1888.64,-103.92 1862.77,-110.1 1841.83,-115.1"/>
<polygon fill="midnightblue" stroke="midnightblue" points="1911.97,-101.94 1920.88,-96.21 1910.34,-95.13 1911.97,-101.94"/>
</g>
<!-- Node4 -->
<g id="node4" class="node">
<title>Node4</title>
<g id="a_node4"><a xlink:href="../../d0/dfe/class_syntax_analyzer.html#add298ad1660ec015b461199b46f19de5" target="_top" xlink:title=" ">
<polygon fill="none" stroke="black" points="1550,-115.12 1550,-134.12 1704,-134.12 1704,-115.12 1550,-115.12"/>
<text text-anchor="middle" x="1627" y="-122.12" font-family="Helvetica,sans-Serif" font-size="10.00">SyntaxAnalyzer::simpleExpr</text>
</a>
</g>
</g>
<!-- Node3&#45;&gt;Node4 -->
<g id="edge3" class="edge">
<title>Node3&#45;&gt;Node4</title>
<path fill="none" stroke="midnightblue" d="M1729.7,-124.62C1721.28,-124.62 1712.65,-124.62 1704.15,-124.62"/>
<polygon fill="midnightblue" stroke="midnightblue" points="1729.84,-128.13 1739.84,-124.62 1729.84,-121.13 1729.84,-128.13"/>
</g>
<!-- Node5 -->
<g id="node5" class="node">
<title>Node5</title>
<g id="a_node5"><a xlink:href="../../d0/dfe/class_syntax_analyzer.html#af2aa594232ce4574421351ed10331f50" target="_top" xlink:title=" ">
<polygon fill="none" stroke="black" points="1393,-80.12 1393,-99.12 1514,-99.12 1514,-80.12 1393,-80.12"/>
<text text-anchor="middle" x="1453.5" y="-87.12" font-family="Helvetica,sans-Serif" font-size="10.00">SyntaxAnalyzer::expr</text>
</a>
</g>
</g>
<!-- Node4&#45;&gt;Node5 -->
<g id="edge4" class="edge">
<title>Node4&#45;&gt;Node5</title>
<path fill="none" stroke="midnightblue" d="M1569.24,-113.04C1547.21,-108.55 1522.28,-103.46 1501.31,-99.18"/>
<polygon fill="midnightblue" stroke="midnightblue" points="1568.64,-116.49 1579.14,-115.06 1570.04,-109.63 1568.64,-116.49"/>
</g>
<!-- Node5&#45;&gt;Node1 -->
<g id="edge20" class="edge">
<title>Node5&#45;&gt;Node1</title>
<path fill="none" stroke="midnightblue" d="M1524.23,-85.22C1532.91,-84.68 1541.66,-84.14 1550,-83.62 1734.92,-72.24 1953,-59.19 2061.69,-52.72"/>
<polygon fill="midnightblue" stroke="midnightblue" points="1523.86,-81.74 1514.1,-85.86 1524.3,-88.73 1523.86,-81.74"/>
</g>
<!-- Node5&#45;&gt;Node2 -->
<g id="edge18" class="edge">
<title>Node5&#45;&gt;Node2</title>
<path fill="none" stroke="midnightblue" d="M1524.27,-89.21C1623.19,-88.63 1802.73,-87.56 1897.88,-87"/>
<polygon fill="midnightblue" stroke="midnightblue" points="1524.06,-85.71 1514.08,-89.27 1524.1,-92.71 1524.06,-85.71"/>
</g>
<!-- Node6 -->
<g id="node6" class="node">
<title>Node6</title>
<g id="a_node6"><a xlink:href="../../d0/dfe/class_syntax_analyzer.html#a77b279fd23cf5b5bc1ddff3af219c572" target="_top" xlink:title=" ">
<polygon fill="none" stroke="black" points="1191,-33.62 1191,-63.62 1347,-63.62 1347,-33.62 1191,-33.62"/>
<text text-anchor="start" x="1199" y="-51.62" font-family="Helvetica,sans-Serif" font-size="10.00">SyntaxAnalyzer::assignment</text>
<text text-anchor="middle" x="1269" y="-40.62" font-family="Helvetica,sans-Serif" font-size="10.00">Statement</text>
</a>
</g>
</g>
<!-- Node5&#45;&gt;Node6 -->
<g id="edge5" class="edge">
<title>Node5&#45;&gt;Node6</title>
<path fill="none" stroke="midnightblue" d="M1400.19,-77.87C1380.54,-73.46 1357.93,-68.38 1337.11,-63.7"/>
<polygon fill="midnightblue" stroke="midnightblue" points="1399.65,-81.34 1410.17,-80.12 1401.18,-74.51 1399.65,-81.34"/>
</g>
<!-- Node8 -->
<g id="node8" class="node">
<title>Node8</title>
<g id="a_node8"><a xlink:href="../../d0/dfe/class_syntax_analyzer.html#ae42240b66b55987b048d30413116dba2" target="_top" xlink:title=" ">
<polygon fill="none" stroke="black" points="798,-121.12 798,-140.12 955,-140.12 955,-121.12 798,-121.12"/>
<text text-anchor="middle" x="876.5" y="-128.12" font-family="Helvetica,sans-Serif" font-size="10.00">SyntaxAnalyzer::ifStatement</text>
</a>
</g>
</g>
<!-- Node5&#45;&gt;Node8 -->
<g id="edge19" class="edge">
<title>Node5&#45;&gt;Node8</title>
<path fill="none" stroke="midnightblue" d="M1408.16,-101.65C1392.15,-105.51 1373.88,-109.37 1357,-111.62 1216.21,-130.46 1050.26,-132.64 955.12,-131.99"/>
<polygon fill="midnightblue" stroke="midnightblue" points="1409.44,-104.94 1418.31,-99.14 1407.76,-98.15 1409.44,-104.94"/>
</g>
<!-- Node15 -->
<g id="node15" class="node">
<title>Node15</title>
<g id="a_node15"><a xlink:href="../../d0/dfe/class_syntax_analyzer.html#ae4fbb603513ebf74be2db2cfd435c8a2" target="_top" xlink:title=" ">
<polygon fill="none" stroke="black" points="1181,-83.12 1181,-102.12 1357,-102.12 1357,-83.12 1181,-83.12"/>
<text text-anchor="middle" x="1269" y="-90.12" font-family="Helvetica,sans-Serif" font-size="10.00">SyntaxAnalyzer::whileStatement</text>
</a>
</g>
</g>
<!-- Node5&#45;&gt;Node15 -->
<g id="edge21" class="edge">
<title>Node5&#45;&gt;Node15</title>
<path fill="none" stroke="midnightblue" d="M1382.9,-90.77C1374.51,-90.91 1365.85,-91.05 1357.24,-91.19"/>
<polygon fill="midnightblue" stroke="midnightblue" points="1383.05,-94.27 1393,-90.6 1382.94,-87.27 1383.05,-94.27"/>
</g>
<!-- Node6&#45;&gt;Node7 -->
<g id="edge6" class="edge">
<title>Node6&#45;&gt;Node7</title>
<path fill="none" stroke="midnightblue" d="M1191,-65.87C1164.8,-71.73 1136.47,-78.08 1113.98,-83.11"/>
<polygon fill="midnightblue" stroke="midnightblue" points="1191.93,-69.24 1200.93,-63.64 1190.4,-62.41 1191.93,-69.24"/>
</g>
<!-- Node7&#45;&gt;Node8 -->
<g id="edge7" class="edge">
<title>Node7&#45;&gt;Node8</title>
<path fill="none" stroke="midnightblue" d="M985.6,-102.53C955.24,-108.3 923.23,-115.3 902,-121.09"/>
<polygon fill="midnightblue" stroke="midnightblue" points="986.63,-105.9 995.82,-100.62 985.34,-99.02 986.63,-105.9"/>
</g>
<!-- Node9 -->
<g id="node9" class="node">
<title>Node9</title>
<g id="a_node9"><a xlink:href="../../d0/dfe/class_syntax_analyzer.html#ad8504763c198f311206051b920919a34" target="_top" xlink:title=" ">
<polygon fill="none" stroke="black" points="793,-45.12 793,-64.12 960,-64.12 960,-45.12 793,-45.12"/>
<text text-anchor="middle" x="876.5" y="-52.12" font-family="Helvetica,sans-Serif" font-size="10.00">SyntaxAnalyzer::statementList</text>
</a>
</g>
</g>
<!-- Node7&#45;&gt;Node9 -->
<g id="edge9" class="edge">
<title>Node7&#45;&gt;Node9</title>
<path fill="none" stroke="midnightblue" d="M1011.2,-81.09C983.82,-75.67 951.57,-69.28 925.6,-64.14"/>
<polygon fill="midnightblue" stroke="midnightblue" points="1010.56,-84.53 1021.05,-83.04 1011.92,-77.66 1010.56,-84.53"/>
</g>
<!-- Node7&#45;&gt;Node15 -->
<g id="edge16" class="edge">
<title>Node7&#45;&gt;Node15</title>
<path fill="none" stroke="midnightblue" d="M1155.47,-99.31C1163.91,-99.39 1172.49,-99.4 1180.95,-99.34"/>
<polygon fill="midnightblue" stroke="midnightblue" points="1155.32,-95.81 1145.27,-99.19 1155.23,-102.81 1155.32,-95.81"/>
</g>
<!-- Node8&#45;&gt;Node7 -->
<g id="edge8" class="edge">
<title>Node8&#45;&gt;Node7</title>
<path fill="none" stroke="midnightblue" d="M965.05,-120.02C994.2,-114.42 1024.41,-107.76 1044.79,-102.22"/>
<polygon fill="midnightblue" stroke="midnightblue" points="964.39,-116.59 955.21,-121.88 965.69,-123.47 964.39,-116.59"/>
</g>
<!-- Node10 -->
<g id="node10" class="node">
<title>Node10</title>
<g id="a_node10"><a xlink:href="../../d0/dfe/class_syntax_analyzer.html#a18eda283535db13ad581c01507bfa2e2" target="_top" xlink:title=" ">
<polygon fill="none" stroke="black" points="609,-58.62 609,-88.62 757,-88.62 757,-58.62 609,-58.62"/>
<text text-anchor="start" x="617" y="-76.62" font-family="Helvetica,sans-Serif" font-size="10.00">SyntaxAnalyzer::compount</text>
<text text-anchor="middle" x="683" y="-65.62" font-family="Helvetica,sans-Serif" font-size="10.00">Statement</text>
</a>
</g>
</g>
<!-- Node9&#45;&gt;Node10 -->
<g id="edge10" class="edge">
<title>Node9&#45;&gt;Node10</title>
<path fill="none" stroke="midnightblue" d="M782.86,-63.82C774.27,-64.67 765.66,-65.52 757.29,-66.35"/>
<polygon fill="midnightblue" stroke="midnightblue" points="783.29,-67.29 792.9,-62.82 782.6,-60.32 783.29,-67.29"/>
</g>
<!-- Node10&#45;&gt;Node7 -->
<g id="edge15" class="edge">
<title>Node10&#45;&gt;Node7</title>
<path fill="none" stroke="midnightblue" d="M767.54,-77.74C835.48,-81.09 930.44,-85.77 995.63,-88.98"/>
<polygon fill="midnightblue" stroke="midnightblue" points="767.46,-74.23 757.29,-77.24 767.11,-81.23 767.46,-74.23"/>
</g>
<!-- Node11 -->
<g id="node11" class="node">
<title>Node11</title>
<g id="a_node11"><a xlink:href="../../d0/dfe/class_syntax_analyzer.html#a923eb1106aae6ea3cf939529045d1b46" target="_top" xlink:title=" ">
<polygon fill="none" stroke="black" points="448,-64.12 448,-83.12 573,-83.12 573,-64.12 448,-64.12"/>
<text text-anchor="middle" x="510.5" y="-71.12" font-family="Helvetica,sans-Serif" font-size="10.00">SyntaxAnalyzer::block</text>
</a>
</g>
</g>
<!-- Node10&#45;&gt;Node11 -->
<g id="edge11" class="edge">
<title>Node10&#45;&gt;Node11</title>
<path fill="none" stroke="midnightblue" d="M598.67,-73.62C590.1,-73.62 581.5,-73.62 573.23,-73.62"/>
<polygon fill="midnightblue" stroke="midnightblue" points="598.7,-77.13 608.7,-73.62 598.7,-70.13 598.7,-77.13"/>
</g>
<!-- Node12 -->
<g id="node12" class="node">
<title>Node12</title>
<g id="a_node12"><a xlink:href="../../d0/dfe/class_syntax_analyzer.html#a0109fd371274fb57c393edcc5f5d976e" target="_top" xlink:title=" ">
<polygon fill="none" stroke="black" points="272,-64.12 272,-83.12 412,-83.12 412,-64.12 272,-64.12"/>
<text text-anchor="middle" x="342" y="-71.12" font-family="Helvetica,sans-Serif" font-size="10.00">SyntaxAnalyzer::program</text>
</a>
</g>
</g>
<!-- Node11&#45;&gt;Node12 -->
<g id="edge12" class="edge">
<title>Node11&#45;&gt;Node12</title>
<path fill="none" stroke="midnightblue" d="M437.72,-73.62C429.23,-73.62 420.58,-73.62 412.13,-73.62"/>
<polygon fill="midnightblue" stroke="midnightblue" points="437.97,-77.13 447.97,-73.62 437.97,-70.13 437.97,-77.13"/>
</g>
<!-- Node13 -->
<g id="node13" class="node">
<title>Node13</title>
<g id="a_node13"><a xlink:href="../../d0/dfe/class_syntax_analyzer.html#a0472b9d7f2855f118acf9cb7c67ab5a7" target="_top" xlink:title=" ">
<polygon fill="none" stroke="black" points="77,-64.12 77,-83.12 236,-83.12 236,-64.12 77,-64.12"/>
<text text-anchor="middle" x="156.5" y="-71.12" font-family="Helvetica,sans-Serif" font-size="10.00">SyntaxAnalyzer::parseTokens</text>
</a>
</g>
</g>
<!-- Node12&#45;&gt;Node13 -->
<g id="edge13" class="edge">
<title>Node12&#45;&gt;Node13</title>
<path fill="none" stroke="midnightblue" d="M261.65,-73.62C253.17,-73.62 244.56,-73.62 236.09,-73.62"/>
<polygon fill="midnightblue" stroke="midnightblue" points="261.89,-77.13 271.89,-73.62 261.89,-70.13 261.89,-77.13"/>
</g>
<!-- Node14 -->
<g id="node14" class="node">
<title>Node14</title>
<g id="a_node14"><a xlink:href="../../df/d0a/main_8cpp.html#a3c04138a5bfe5d72780bb7e82a18e627" target="_top" xlink:title=" ">
<polygon fill="none" stroke="black" points="0,-64.12 0,-83.12 41,-83.12 41,-64.12 0,-64.12"/>
<text text-anchor="middle" x="20.5" y="-71.12" font-family="Helvetica,sans-Serif" font-size="10.00">main</text>
</a>
</g>
</g>
<!-- Node13&#45;&gt;Node14 -->
<g id="edge14" class="edge">
<title>Node13&#45;&gt;Node14</title>
<path fill="none" stroke="midnightblue" d="M66.72,-73.62C57.25,-73.62 48.44,-73.62 41.16,-73.62"/>
<polygon fill="midnightblue" stroke="midnightblue" points="66.78,-77.13 76.78,-73.62 66.78,-70.13 66.78,-77.13"/>
</g>
<!-- Node15&#45;&gt;Node7 -->
<g id="edge17" class="edge">
<title>Node15&#45;&gt;Node7</title>
<path fill="none" stroke="midnightblue" d="M1170.87,-85.88C1162.26,-85.87 1153.64,-85.93 1145.27,-86.06"/>
<polygon fill="midnightblue" stroke="midnightblue" points="1170.94,-89.38 1180.95,-85.91 1170.97,-82.38 1170.94,-89.38"/>
</g>
</g>
</svg>
