<?xml version="1.0" encoding="UTF-8" standalone="no"?>
<!DOCTYPE svg PUBLIC "-//W3C//DTD SVG 1.1//EN"
 "http://www.w3.org/Graphics/SVG/1.1/DTD/svg11.dtd">
<!-- Generated by graphviz version 3.0.0 (20220413.0106)
 -->
<!-- Title: SyntaxAnalyzer::syntaxWhileSt Pages: 1 -->
<svg width="1322pt" height="104pt"
 viewBox="0.00 0.00 1322.00 104.00" xmlns="http://www.w3.org/2000/svg" xmlns:xlink="http://www.w3.org/1999/xlink">
<g id="graph0" class="graph" transform="scale(1 1) rotate(0) translate(4 100)">
<title>SyntaxAnalyzer::syntaxWhileSt</title>
<!-- Node1 -->
<g id="node1" class="node">
<title>Node1</title>
<g id="a_node1"><a xlink:title=" ">
<polygon fill="#bfbfbf" stroke="black" points="1165,-57.5 1165,-76.5 1314,-76.5 1314,-57.5 1165,-57.5"/>
<text text-anchor="middle" x="1239.5" y="-64.5" font-family="Helvetica,sans-Serif" font-size="10.00">SyntaxAnalyzer::syntaxWhileSt</text>
</a>
</g>
</g>
<!-- Node2 -->
<g id="node2" class="node">
<title>Node2</title>
<g id="a_node2"><a xlink:href="../../d0/dfe/class_syntax_analyzer.html#a7f54bde730006b1b863290415809ab4e" target="_top" xlink:title=" ">
<polygon fill="none" stroke="black" points="1004,-57.5 1004,-76.5 1129,-76.5 1129,-57.5 1004,-57.5"/>
<text text-anchor="middle" x="1066.5" y="-64.5" font-family="Helvetica,sans-Serif" font-size="10.00">SyntaxAnalyzer::syntaxSt</text>
</a>
</g>
</g>
<!-- Node1&#45;&gt;Node2 -->
<g id="edge1" class="edge">
<title>Node1&#45;&gt;Node2</title>
<path fill="none" stroke="midnightblue" d="M1154.85,-60.25C1146.19,-60.24 1137.5,-60.32 1129.14,-60.49"/>
<polygon fill="midnightblue" stroke="midnightblue" points="1154.97,-63.75 1164.99,-60.31 1155.01,-56.75 1154.97,-63.75"/>
</g>
<!-- Node2&#45;&gt;Node1 -->
<g id="edge12" class="edge">
<title>Node2&#45;&gt;Node1</title>
<path fill="none" stroke="midnightblue" d="M1139.36,-73.67C1147.84,-73.77 1156.49,-73.78 1164.99,-73.69"/>
<polygon fill="midnightblue" stroke="midnightblue" points="1139.2,-70.17 1129.14,-73.51 1139.09,-77.17 1139.2,-70.17"/>
</g>
<!-- Node3 -->
<g id="node3" class="node">
<title>Node3</title>
<g id="a_node3"><a xlink:href="../../d0/dfe/class_syntax_analyzer.html#a779e006875d35926152773989f4b1e5a" target="_top" xlink:title=" ">
<polygon fill="none" stroke="black" points="832,-76.5 832,-95.5 963,-95.5 963,-76.5 832,-76.5"/>
<text text-anchor="middle" x="897.5" y="-83.5" font-family="Helvetica,sans-Serif" font-size="10.00">SyntaxAnalyzer::syntaxIfSt</text>
</a>
</g>
</g>
<!-- Node2&#45;&gt;Node3 -->
<g id="edge2" class="edge">
<title>Node2&#45;&gt;Node3</title>
<path fill="none" stroke="midnightblue" d="M993.63,-68.49C972.72,-70.65 950.82,-73.51 933.31,-76.44"/>
<polygon fill="midnightblue" stroke="midnightblue" points="994.18,-71.95 1003.79,-67.48 993.49,-64.98 994.18,-71.95"/>
</g>
<!-- Node4 -->
<g id="node4" class="node">
<title>Node4</title>
<g id="a_node4"><a xlink:href="../../d0/dfe/class_syntax_analyzer.html#a6df61a82ef9de3c17b78be89a321a087" target="_top" xlink:title=" ">
<polygon fill="none" stroke="black" points="827,-38.5 827,-57.5 968,-57.5 968,-38.5 827,-38.5"/>
<text text-anchor="middle" x="897.5" y="-45.5" font-family="Helvetica,sans-Serif" font-size="10.00">SyntaxAnalyzer::syntaxStList</text>
</a>
</g>
</g>
<!-- Node2&#45;&gt;Node4 -->
<g id="edge4" class="edge">
<title>Node2&#45;&gt;Node4</title>
<path fill="none" stroke="midnightblue" d="M993.59,-58.82C985.14,-57.86 976.54,-56.88 968.12,-55.92"/>
<polygon fill="midnightblue" stroke="midnightblue" points="993.46,-62.33 1003.79,-59.98 994.25,-55.37 993.46,-62.33"/>
</g>
<!-- Node3&#45;&gt;Node2 -->
<g id="edge3" class="edge">
<title>Node3&#45;&gt;Node2</title>
<path fill="none" stroke="midnightblue" d="M973.21,-84.22C993.33,-82.08 1014.14,-79.34 1030.9,-76.53"/>
<polygon fill="midnightblue" stroke="midnightblue" points="972.69,-80.75 963.09,-85.24 973.4,-87.72 972.69,-80.75"/>
</g>
<!-- Node5 -->
<g id="node5" class="node">
<title>Node5</title>
<g id="a_node5"><a xlink:href="../../d0/dfe/class_syntax_analyzer.html#a5770afdc4d32d2c38550f27f9ffd949a" target="_top" xlink:title=" ">
<polygon fill="none" stroke="black" points="620,-19.5 620,-38.5 791,-38.5 791,-19.5 620,-19.5"/>
<text text-anchor="middle" x="705.5" y="-26.5" font-family="Helvetica,sans-Serif" font-size="10.00">SyntaxAnalyzer::syntaxCompoundSt</text>
</a>
</g>
</g>
<!-- Node4&#45;&gt;Node5 -->
<g id="edge5" class="edge">
<title>Node4&#45;&gt;Node5</title>
<path fill="none" stroke="midnightblue" d="M816.61,-40.01C808.15,-39.16 799.52,-38.3 791.01,-37.45"/>
<polygon fill="midnightblue" stroke="midnightblue" points="816.53,-43.52 826.83,-41.03 817.23,-36.56 816.53,-43.52"/>
</g>
<!-- Node5&#45;&gt;Node2 -->
<g id="edge11" class="edge">
<title>Node5&#45;&gt;Node2</title>
<path fill="none" stroke="midnightblue" d="M801.3,-20.61C851.3,-18.29 913.42,-18.74 968,-29 996.75,-34.4 1027.9,-48.04 1047.06,-57.42"/>
<polygon fill="midnightblue" stroke="midnightblue" points="800.95,-17.12 791.14,-21.12 801.31,-24.11 800.95,-17.12"/>
</g>
<!-- Node6 -->
<g id="node6" class="node">
<title>Node6</title>
<g id="a_node6"><a xlink:href="../../d0/dfe/class_syntax_analyzer.html#a2b54bac50e114b68e83c80d869b6ac7c" target="_top" xlink:title=" ">
<polygon fill="none" stroke="black" points="444,-19.5 444,-38.5 584,-38.5 584,-19.5 444,-19.5"/>
<text text-anchor="middle" x="514" y="-26.5" font-family="Helvetica,sans-Serif" font-size="10.00">SyntaxAnalyzer::syntaxBlock</text>
</a>
</g>
</g>
<!-- Node5&#45;&gt;Node6 -->
<g id="edge6" class="edge">
<title>Node5&#45;&gt;Node6</title>
<path fill="none" stroke="midnightblue" d="M609.63,-29C601.02,-29 592.41,-29 584.08,-29"/>
<polygon fill="midnightblue" stroke="midnightblue" points="609.73,-32.5 619.73,-29 609.73,-25.5 609.73,-32.5"/>
</g>
<!-- Node7 -->
<g id="node7" class="node">
<title>Node7</title>
<g id="a_node7"><a xlink:href="../../d0/dfe/class_syntax_analyzer.html#a8b337bd5b4a90cd5bd804a936e408e4b" target="_top" xlink:title=" ">
<polygon fill="none" stroke="black" points="256,-19.5 256,-38.5 408,-38.5 408,-19.5 256,-19.5"/>
<text text-anchor="middle" x="332" y="-26.5" font-family="Helvetica,sans-Serif" font-size="10.00">SyntaxAnalyzer::syntaxProgram</text>
</a>
</g>
</g>
<!-- Node6&#45;&gt;Node7 -->
<g id="edge7" class="edge">
<title>Node6&#45;&gt;Node7</title>
<path fill="none" stroke="midnightblue" d="M433.67,-29C425.2,-29 416.6,-29 408.18,-29"/>
<polygon fill="midnightblue" stroke="midnightblue" points="433.92,-32.5 443.92,-29 433.92,-25.5 433.92,-32.5"/>
</g>
<!-- Node8 -->
<g id="node8" class="node">
<title>Node8</title>
<g id="a_node8"><a xlink:href="../../d0/dfe/class_syntax_analyzer.html#a96cd5f6a041dae613d1c75175e26592e" target="_top" xlink:title=" ">
<polygon fill="none" stroke="black" points="77,-19.5 77,-38.5 220,-38.5 220,-19.5 77,-19.5"/>
<text text-anchor="middle" x="148.5" y="-26.5" font-family="Helvetica,sans-Serif" font-size="10.00">SyntaxAnalyzer::parseTokens</text>
</a>
</g>
</g>
<!-- Node7&#45;&gt;Node8 -->
<g id="edge8" class="edge">
<title>Node7&#45;&gt;Node8</title>
<path fill="none" stroke="midnightblue" d="M245.84,-29C237.26,-29 228.61,-29 220.21,-29"/>
<polygon fill="midnightblue" stroke="midnightblue" points="245.87,-32.5 255.87,-29 245.87,-25.5 245.87,-32.5"/>
</g>
<!-- Node9 -->
<g id="node9" class="node">
<title>Node9</title>
<g id="a_node9"><a xlink:href="../../d3/db4/graph_draw_8cpp.html#a3c04138a5bfe5d72780bb7e82a18e627" target="_top" xlink:title=" ">
<polygon fill="none" stroke="black" points="1.5,-38.5 1.5,-57.5 39.5,-57.5 39.5,-38.5 1.5,-38.5"/>
<text text-anchor="middle" x="20.5" y="-45.5" font-family="Helvetica,sans-Serif" font-size="10.00">main</text>
</a>
</g>
</g>
<!-- Node8&#45;&gt;Node9 -->
<g id="edge9" class="edge">
<title>Node8&#45;&gt;Node9</title>
<path fill="none" stroke="midnightblue" d="M74.24,-40.05C61.4,-41.98 49.15,-43.83 39.69,-45.26"/>
<polygon fill="midnightblue" stroke="midnightblue" points="74.76,-43.51 84.13,-38.56 73.72,-36.59 74.76,-43.51"/>
</g>
<!-- Node10 -->
<g id="node10" class="node">
<title>Node10</title>
<g id="a_node10"><a xlink:href="../../dd/de9/test_syntax_8cpp.html#ac491df98e51a6bba8b808af414b6614f" target="_top" xlink:title="Тест синтаксического анализа Паскаля, простой тест">
<polygon fill="none" stroke="black" points="0,-0.5 0,-19.5 41,-19.5 41,-0.5 0,-0.5"/>
<text text-anchor="middle" x="20.5" y="-7.5" font-family="Helvetica,sans-Serif" font-size="10.00">TEST</text>
</a>
</g>
</g>
<!-- Node8&#45;&gt;Node10 -->
<g id="edge10" class="edge">
<title>Node8&#45;&gt;Node10</title>
<path fill="none" stroke="midnightblue" d="M73.88,-17.9C61.78,-16.07 50.22,-14.33 41.05,-12.95"/>
<polygon fill="midnightblue" stroke="midnightblue" points="73.72,-21.41 84.13,-19.44 74.76,-14.49 73.72,-21.41"/>
</g>
</g>
</svg>
