<?xml version="1.0" encoding="UTF-8" standalone="no"?>
<!DOCTYPE svg PUBLIC "-//W3C//DTD SVG 1.1//EN"
 "http://www.w3.org/Graphics/SVG/1.1/DTD/svg11.dtd">
<!-- Generated by graphviz version 3.0.0 (20220413.0106)
 -->
<!-- Title: SyntaxAnalyzer::syntaxExpr Pages: 1 -->
<svg width="2248pt" height="280pt"
 viewBox="0.00 0.00 2248.00 280.12" xmlns="http://www.w3.org/2000/svg" xmlns:xlink="http://www.w3.org/1999/xlink">
<g id="graph0" class="graph" transform="scale(1 1) rotate(0) translate(4 276.12)">
<title>SyntaxAnalyzer::syntaxExpr</title>
<!-- Node1 -->
<g id="node1" class="node">
<title>Node1</title>
<g id="a_node1"><a xlink:title=" ">
<polygon fill="#bfbfbf" stroke="black" points="2106,-126.75 2106,-145.75 2240,-145.75 2240,-126.75 2106,-126.75"/>
<text text-anchor="middle" x="2173" y="-133.75" font-family="Helvetica,sans-Serif" font-size="10.00">SyntaxAnalyzer::syntaxExpr</text>
</a>
</g>
</g>
<!-- Node2 -->
<g id="node2" class="node">
<title>Node2</title>
<g id="a_node2"><a xlink:href="../../d0/dfe/class_syntax_analyzer.html#a31fc5887c158652feb946f89270b4b36" target="_top" xlink:title=" ">
<polygon fill="none" stroke="black" points="1736,-211.75 1736,-230.75 1891,-230.75 1891,-211.75 1736,-211.75"/>
<text text-anchor="middle" x="1813.5" y="-218.75" font-family="Helvetica,sans-Serif" font-size="10.00">SyntaxAnalyzer::syntaxAssignSt</text>
</a>
</g>
</g>
<!-- Node1&#45;&gt;Node2 -->
<g id="edge1" class="edge">
<title>Node1&#45;&gt;Node2</title>
<path fill="none" stroke="midnightblue" d="M2156.25,-152.95C2137.65,-171.37 2104.82,-200.02 2070,-212.25 2012.42,-232.48 1942.98,-233.57 1891.04,-230.25"/>
<polygon fill="midnightblue" stroke="midnightblue" points="2158.8,-155.35 2163.31,-145.76 2153.8,-150.44 2158.8,-155.35"/>
</g>
<!-- Node6 -->
<g id="node6" class="node">
<title>Node6</title>
<g id="a_node6"><a xlink:href="../../d0/dfe/class_syntax_analyzer.html#a779e006875d35926152773989f4b1e5a" target="_top" xlink:title=" ">
<polygon fill="none" stroke="black" points="1024,-221.75 1024,-240.75 1155,-240.75 1155,-221.75 1024,-221.75"/>
<text text-anchor="middle" x="1089.5" y="-228.75" font-family="Helvetica,sans-Serif" font-size="10.00">SyntaxAnalyzer::syntaxIfSt</text>
</a>
</g>
</g>
<!-- Node1&#45;&gt;Node6 -->
<g id="edge30" class="edge">
<title>Node1&#45;&gt;Node6</title>
<path fill="none" stroke="midnightblue" d="M2159.44,-154.14C2142.18,-177.16 2108.82,-216.44 2070,-235.25 1966.92,-285.22 1929.06,-269.25 1814.5,-269.25 1814.5,-269.25 1814.5,-269.25 1442,-269.25 1336.27,-269.25 1213.69,-252.05 1144.8,-240.79"/>
<polygon fill="midnightblue" stroke="midnightblue" points="2162.37,-156.05 2165.44,-145.91 2156.72,-151.93 2162.37,-156.05"/>
</g>
<!-- Node15 -->
<g id="node15" class="node">
<title>Node15</title>
<g id="a_node15"><a xlink:href="../../d0/dfe/class_syntax_analyzer.html#a64dad7f0b22b08d182483469d3a1aa79" target="_top" xlink:title=" ">
<polygon fill="none" stroke="black" points="1015,-107.75 1015,-126.75 1164,-126.75 1164,-107.75 1015,-107.75"/>
<text text-anchor="middle" x="1089.5" y="-114.75" font-family="Helvetica,sans-Serif" font-size="10.00">SyntaxAnalyzer::syntaxWhileSt</text>
</a>
</g>
</g>
<!-- Node1&#45;&gt;Node15 -->
<g id="edge36" class="edge">
<title>Node1&#45;&gt;Node15</title>
<path fill="none" stroke="midnightblue" d="M2159.49,-118.16C2142.29,-94.88 2109,-55.18 2070,-36.25 1967,13.75 1929,-3.25 1814.5,-3.25 1814.5,-3.25 1814.5,-3.25 1442,-3.25 1306.96,-3.25 1156.34,-80.33 1107.07,-107.73"/>
<polygon fill="midnightblue" stroke="midnightblue" points="2156.79,-120.4 2165.47,-126.48 2162.48,-116.32 2156.79,-120.4"/>
</g>
<!-- Node16 -->
<g id="node16" class="node">
<title>Node16</title>
<g id="a_node16"><a xlink:href="../../d0/dfe/class_syntax_analyzer.html#a2db43946bee3e973ce1cf293b262e271" target="_top" xlink:title=" ">
<polygon fill="none" stroke="black" points="1928,-107.75 1928,-126.75 2069,-126.75 2069,-107.75 1928,-107.75"/>
<text text-anchor="middle" x="1998.5" y="-114.75" font-family="Helvetica,sans-Serif" font-size="10.00">SyntaxAnalyzer::syntaxCallSt</text>
</a>
</g>
</g>
<!-- Node1&#45;&gt;Node16 -->
<g id="edge21" class="edge">
<title>Node1&#45;&gt;Node16</title>
<path fill="none" stroke="midnightblue" d="M2095.59,-127.84C2086.82,-126.87 2077.92,-125.89 2069.24,-124.93"/>
<polygon fill="midnightblue" stroke="midnightblue" points="2095.48,-131.34 2105.8,-128.96 2096.24,-124.39 2095.48,-131.34"/>
</g>
<!-- Node17 -->
<g id="node17" class="node">
<title>Node17</title>
<g id="a_node17"><a xlink:href="../../d0/dfe/class_syntax_analyzer.html#a3af9b5161a2cef6fdd26b0bb60334ac4" target="_top" xlink:title=" ">
<polygon fill="none" stroke="black" points="1742,-145.75 1742,-164.75 1885,-164.75 1885,-145.75 1742,-145.75"/>
<text text-anchor="middle" x="1813.5" y="-152.75" font-family="Helvetica,sans-Serif" font-size="10.00">SyntaxAnalyzer::syntaxFactor</text>
</a>
</g>
</g>
<!-- Node1&#45;&gt;Node17 -->
<g id="edge29" class="edge">
<title>Node1&#45;&gt;Node17</title>
<path fill="none" stroke="midnightblue" d="M2095.43,-140.32C2033.1,-143.63 1945.81,-148.27 1885.14,-151.5"/>
<polygon fill="midnightblue" stroke="midnightblue" points="2095.79,-143.81 2105.59,-139.78 2095.42,-136.82 2095.79,-143.81"/>
</g>
<!-- Node20 -->
<g id="node20" class="node">
<title>Node20</title>
<g id="a_node20"><a xlink:href="../../d0/dfe/class_syntax_analyzer.html#a55e935b2aa7f20b66e9228e977582fcd" target="_top" xlink:title=" ">
<polygon fill="none" stroke="black" points="1737,-31.75 1737,-50.75 1890,-50.75 1890,-31.75 1737,-31.75"/>
<text text-anchor="middle" x="1813.5" y="-38.75" font-family="Helvetica,sans-Serif" font-size="10.00">SyntaxAnalyzer::syntaxReturnSt</text>
</a>
</g>
</g>
<!-- Node1&#45;&gt;Node20 -->
<g id="edge31" class="edge">
<title>Node1&#45;&gt;Node20</title>
<path fill="none" stroke="midnightblue" d="M2154.44,-119.7C2135.31,-102.79 2103,-77.33 2070,-65.25 2012.16,-44.08 1942.28,-38.78 1890.23,-38.38"/>
<polygon fill="midnightblue" stroke="midnightblue" points="2152.26,-122.46 2162.02,-126.58 2156.96,-117.27 2152.26,-122.46"/>
</g>
<!-- Node21 -->
<g id="node21" class="node">
<title>Node21</title>
<g id="a_node21"><a xlink:href="../../d0/dfe/class_syntax_analyzer.html#a1264dcb50cb09c564a36125c21043298" target="_top" xlink:title=" ">
<polygon fill="none" stroke="black" points="1927,-183.75 1927,-202.75 2070,-202.75 2070,-183.75 1927,-183.75"/>
<text text-anchor="middle" x="1998.5" y="-190.75" font-family="Helvetica,sans-Serif" font-size="10.00">SyntaxAnalyzer::syntaxSelect</text>
</a>
</g>
</g>
<!-- Node1&#45;&gt;Node21 -->
<g id="edge33" class="edge">
<title>Node1&#45;&gt;Node21</title>
<path fill="none" stroke="midnightblue" d="M2133.29,-149.04C2101.52,-159.54 2057.23,-174.17 2028.47,-183.68"/>
<polygon fill="midnightblue" stroke="midnightblue" points="2134.73,-152.25 2143.13,-145.79 2132.53,-145.61 2134.73,-152.25"/>
</g>
<!-- Node3 -->
<g id="node3" class="node">
<title>Node3</title>
<g id="a_node3"><a xlink:href="../../d0/dfe/class_syntax_analyzer.html#aea3a3d1860938d64edf651bdc4016c04" target="_top" xlink:title=" ">
<polygon fill="none" stroke="black" points="1561,-183.75 1561,-202.75 1700,-202.75 1700,-183.75 1561,-183.75"/>
<text text-anchor="middle" x="1630.5" y="-190.75" font-family="Helvetica,sans-Serif" font-size="10.00">SyntaxAnalyzer::syntaxIterSt</text>
</a>
</g>
</g>
<!-- Node2&#45;&gt;Node3 -->
<g id="edge2" class="edge">
<title>Node2&#45;&gt;Node3</title>
<path fill="none" stroke="midnightblue" d="M1740.76,-210.15C1725.01,-207.72 1708.48,-205.16 1693.17,-202.79"/>
<polygon fill="midnightblue" stroke="midnightblue" points="1740.55,-213.66 1750.97,-211.73 1741.62,-206.75 1740.55,-213.66"/>
</g>
<!-- Node5 -->
<g id="node5" class="node">
<title>Node5</title>
<g id="a_node5"><a xlink:href="../../d0/dfe/class_syntax_analyzer.html#a7f54bde730006b1b863290415809ab4e" target="_top" xlink:title=" ">
<polygon fill="none" stroke="black" points="1200,-164.75 1200,-183.75 1325,-183.75 1325,-164.75 1200,-164.75"/>
<text text-anchor="middle" x="1262.5" y="-171.75" font-family="Helvetica,sans-Serif" font-size="10.00">SyntaxAnalyzer::syntaxSt</text>
</a>
</g>
</g>
<!-- Node2&#45;&gt;Node5 -->
<g id="edge20" class="edge">
<title>Node2&#45;&gt;Node5</title>
<path fill="none" stroke="midnightblue" d="M1725.8,-220.07C1634.59,-217.85 1487.05,-211.48 1361,-193.25 1343.42,-190.71 1324.2,-187.14 1307.51,-183.78"/>
<polygon fill="midnightblue" stroke="midnightblue" points="1725.74,-223.57 1735.82,-220.3 1725.9,-216.57 1725.74,-223.57"/>
</g>
<!-- Node4 -->
<g id="node4" class="node">
<title>Node4</title>
<g id="a_node4"><a xlink:href="../../d0/dfe/class_syntax_analyzer.html#a82e8472ea6d1064871de0d05eaa8b374" target="_top" xlink:title=" ">
<polygon fill="none" stroke="black" points="1373.5,-164.75 1373.5,-183.75 1512.5,-183.75 1512.5,-164.75 1373.5,-164.75"/>
<text text-anchor="middle" x="1443" y="-171.75" font-family="Helvetica,sans-Serif" font-size="10.00">SyntaxAnalyzer::syntaxForSt</text>
</a>
</g>
</g>
<!-- Node3&#45;&gt;Node4 -->
<g id="edge3" class="edge">
<title>Node3&#45;&gt;Node4</title>
<path fill="none" stroke="midnightblue" d="M1550.85,-185.2C1538.12,-183.89 1525.03,-182.55 1512.57,-181.28"/>
<polygon fill="midnightblue" stroke="midnightblue" points="1550.65,-188.69 1560.95,-186.23 1551.36,-181.73 1550.65,-188.69"/>
</g>
<!-- Node4&#45;&gt;Node5 -->
<g id="edge4" class="edge">
<title>Node4&#45;&gt;Node5</title>
<path fill="none" stroke="midnightblue" d="M1363.31,-167.54C1350.51,-167.44 1337.42,-167.53 1325.1,-167.8"/>
<polygon fill="midnightblue" stroke="midnightblue" points="1363.46,-171.05 1373.5,-167.67 1363.54,-164.05 1363.46,-171.05"/>
</g>
<!-- Node5&#45;&gt;Node4 -->
<g id="edge5" class="edge">
<title>Node5&#45;&gt;Node4</title>
<path fill="none" stroke="midnightblue" d="M1335.13,-180.88C1347.78,-181.06 1360.93,-181.04 1373.5,-180.84"/>
<polygon fill="midnightblue" stroke="midnightblue" points="1335.16,-177.38 1325.1,-180.71 1335.04,-184.38 1335.16,-177.38"/>
</g>
<!-- Node5&#45;&gt;Node6 -->
<g id="edge6" class="edge">
<title>Node5&#45;&gt;Node6</title>
<path fill="none" stroke="midnightblue" d="M1208.94,-187.39C1194.5,-192.68 1178.75,-198.49 1164,-203.25 1143.31,-209.93 1118.75,-215.9 1103.91,-221.7"/>
<polygon fill="midnightblue" stroke="midnightblue" points="1210.51,-190.54 1218.7,-183.82 1208.1,-183.96 1210.51,-190.54"/>
</g>
<!-- Node7 -->
<g id="node7" class="node">
<title>Node7</title>
<g id="a_node7"><a xlink:href="../../d0/dfe/class_syntax_analyzer.html#a6df61a82ef9de3c17b78be89a321a087" target="_top" xlink:title=" ">
<polygon fill="none" stroke="black" points="1019,-183.75 1019,-202.75 1160,-202.75 1160,-183.75 1019,-183.75"/>
<text text-anchor="middle" x="1089.5" y="-190.75" font-family="Helvetica,sans-Serif" font-size="10.00">SyntaxAnalyzer::syntaxStList</text>
</a>
</g>
</g>
<!-- Node5&#45;&gt;Node7 -->
<g id="edge8" class="edge">
<title>Node5&#45;&gt;Node7</title>
<path fill="none" stroke="midnightblue" d="M1189.72,-182.23C1179.97,-183.31 1169.98,-184.42 1160.27,-185.5"/>
<polygon fill="midnightblue" stroke="midnightblue" points="1190.21,-185.69 1199.77,-181.11 1189.44,-178.74 1190.21,-185.69"/>
</g>
<!-- Node5&#45;&gt;Node15 -->
<g id="edge18" class="edge">
<title>Node5&#45;&gt;Node15</title>
<path fill="none" stroke="midnightblue" d="M1240.86,-160.26C1221.14,-151.47 1190.57,-141.09 1164,-132.25 1158.65,-130.47 1153.08,-128.63 1147.5,-126.84"/>
<polygon fill="midnightblue" stroke="midnightblue" points="1239.58,-163.52 1250.11,-164.69 1242.6,-157.21 1239.58,-163.52"/>
</g>
<!-- Node6&#45;&gt;Node5 -->
<g id="edge7" class="edge">
<title>Node6&#45;&gt;Node5</title>
<path fill="none" stroke="midnightblue" d="M1164.81,-220.84C1202.42,-208.28 1235.61,-194.15 1251.67,-183.91"/>
<polygon fill="midnightblue" stroke="midnightblue" points="1163.57,-217.56 1155.16,-223.99 1165.75,-224.21 1163.57,-217.56"/>
</g>
<!-- Node8 -->
<g id="node8" class="node">
<title>Node8</title>
<g id="a_node8"><a xlink:href="../../d0/dfe/class_syntax_analyzer.html#a5770afdc4d32d2c38550f27f9ffd949a" target="_top" xlink:title=" ">
<polygon fill="none" stroke="black" points="808,-164.75 808,-183.75 979,-183.75 979,-164.75 808,-164.75"/>
<text text-anchor="middle" x="893.5" y="-171.75" font-family="Helvetica,sans-Serif" font-size="10.00">SyntaxAnalyzer::syntaxCompoundSt</text>
</a>
</g>
</g>
<!-- Node7&#45;&gt;Node8 -->
<g id="edge9" class="edge">
<title>Node7&#45;&gt;Node8</title>
<path fill="none" stroke="midnightblue" d="M1008.7,-185.44C998.97,-184.48 989.01,-183.51 979.21,-182.55"/>
<polygon fill="midnightblue" stroke="midnightblue" points="1008.44,-188.93 1018.74,-186.42 1009.12,-181.96 1008.44,-188.93"/>
</g>
<!-- Node8&#45;&gt;Node5 -->
<g id="edge17" class="edge">
<title>Node8&#45;&gt;Node5</title>
<path fill="none" stroke="midnightblue" d="M989.36,-174.25C1055.61,-174.25 1142.14,-174.25 1199.66,-174.25"/>
<polygon fill="midnightblue" stroke="midnightblue" points="989.32,-170.75 979.32,-174.25 989.32,-177.75 989.32,-170.75"/>
</g>
<!-- Node9 -->
<g id="node9" class="node">
<title>Node9</title>
<g id="a_node9"><a xlink:href="../../d0/dfe/class_syntax_analyzer.html#a2b54bac50e114b68e83c80d869b6ac7c" target="_top" xlink:title=" ">
<polygon fill="none" stroke="black" points="632,-164.75 632,-183.75 772,-183.75 772,-164.75 632,-164.75"/>
<text text-anchor="middle" x="702" y="-171.75" font-family="Helvetica,sans-Serif" font-size="10.00">SyntaxAnalyzer::syntaxBlock</text>
</a>
</g>
</g>
<!-- Node8&#45;&gt;Node9 -->
<g id="edge10" class="edge">
<title>Node8&#45;&gt;Node9</title>
<path fill="none" stroke="midnightblue" d="M797.63,-174.25C789.02,-174.25 780.41,-174.25 772.08,-174.25"/>
<polygon fill="midnightblue" stroke="midnightblue" points="797.73,-177.75 807.73,-174.25 797.73,-170.75 797.73,-177.75"/>
</g>
<!-- Node10 -->
<g id="node10" class="node">
<title>Node10</title>
<g id="a_node10"><a xlink:href="../../d0/dfe/class_syntax_analyzer.html#ae04232a95c6423677e600927c82851e4" target="_top" xlink:title=" ">
<polygon fill="none" stroke="black" points="444,-145.75 444,-164.75 596,-164.75 596,-145.75 444,-145.75"/>
<text text-anchor="middle" x="520" y="-152.75" font-family="Helvetica,sans-Serif" font-size="10.00">SyntaxAnalyzer::syntaxFuncDef</text>
</a>
</g>
</g>
<!-- Node9&#45;&gt;Node10 -->
<g id="edge11" class="edge">
<title>Node9&#45;&gt;Node10</title>
<path fill="none" stroke="midnightblue" d="M621.95,-165.91C613.39,-165 604.69,-164.09 596.18,-163.19"/>
<polygon fill="midnightblue" stroke="midnightblue" points="621.61,-169.39 631.92,-166.96 622.34,-162.43 621.61,-169.39"/>
</g>
<!-- Node11 -->
<g id="node11" class="node">
<title>Node11</title>
<g id="a_node11"><a xlink:href="../../d0/dfe/class_syntax_analyzer.html#a8b337bd5b4a90cd5bd804a936e408e4b" target="_top" xlink:title=" ">
<polygon fill="none" stroke="black" points="256,-164.75 256,-183.75 408,-183.75 408,-164.75 256,-164.75"/>
<text text-anchor="middle" x="332" y="-171.75" font-family="Helvetica,sans-Serif" font-size="10.00">SyntaxAnalyzer::syntaxProgram</text>
</a>
</g>
</g>
<!-- Node9&#45;&gt;Node11 -->
<g id="edge16" class="edge">
<title>Node9&#45;&gt;Node11</title>
<path fill="none" stroke="midnightblue" d="M621.46,-174.25C558.21,-174.25 470.34,-174.25 408.24,-174.25"/>
<polygon fill="midnightblue" stroke="midnightblue" points="621.78,-177.75 631.78,-174.25 621.78,-170.75 621.78,-177.75"/>
</g>
<!-- Node10&#45;&gt;Node11 -->
<g id="edge12" class="edge">
<title>Node10&#45;&gt;Node11</title>
<path fill="none" stroke="midnightblue" d="M433.85,-163.95C425.26,-164.83 416.57,-165.71 408.1,-166.58"/>
<polygon fill="midnightblue" stroke="midnightblue" points="434.29,-167.42 443.88,-162.93 433.58,-160.46 434.29,-167.42"/>
</g>
<!-- Node12 -->
<g id="node12" class="node">
<title>Node12</title>
<g id="a_node12"><a xlink:href="../../d0/dfe/class_syntax_analyzer.html#a96cd5f6a041dae613d1c75175e26592e" target="_top" xlink:title=" ">
<polygon fill="none" stroke="black" points="77,-164.75 77,-183.75 220,-183.75 220,-164.75 77,-164.75"/>
<text text-anchor="middle" x="148.5" y="-171.75" font-family="Helvetica,sans-Serif" font-size="10.00">SyntaxAnalyzer::parseTokens</text>
</a>
</g>
</g>
<!-- Node11&#45;&gt;Node12 -->
<g id="edge13" class="edge">
<title>Node11&#45;&gt;Node12</title>
<path fill="none" stroke="midnightblue" d="M245.84,-174.25C237.26,-174.25 228.61,-174.25 220.21,-174.25"/>
<polygon fill="midnightblue" stroke="midnightblue" points="245.87,-177.75 255.87,-174.25 245.87,-170.75 245.87,-177.75"/>
</g>
<!-- Node13 -->
<g id="node13" class="node">
<title>Node13</title>
<g id="a_node13"><a xlink:href="../../d3/db4/graph_draw_8cpp.html#a3c04138a5bfe5d72780bb7e82a18e627" target="_top" xlink:title=" ">
<polygon fill="none" stroke="black" points="1.5,-183.75 1.5,-202.75 39.5,-202.75 39.5,-183.75 1.5,-183.75"/>
<text text-anchor="middle" x="20.5" y="-190.75" font-family="Helvetica,sans-Serif" font-size="10.00">main</text>
</a>
</g>
</g>
<!-- Node12&#45;&gt;Node13 -->
<g id="edge14" class="edge">
<title>Node12&#45;&gt;Node13</title>
<path fill="none" stroke="midnightblue" d="M74.24,-185.3C61.4,-187.23 49.15,-189.08 39.69,-190.51"/>
<polygon fill="midnightblue" stroke="midnightblue" points="74.76,-188.76 84.13,-183.81 73.72,-181.84 74.76,-188.76"/>
</g>
<!-- Node14 -->
<g id="node14" class="node">
<title>Node14</title>
<g id="a_node14"><a xlink:href="../../dd/de9/test_syntax_8cpp.html#ac491df98e51a6bba8b808af414b6614f" target="_top" xlink:title="Тест синтаксического анализа Паскаля, простой тест">
<polygon fill="none" stroke="black" points="0,-145.75 0,-164.75 41,-164.75 41,-145.75 0,-145.75"/>
<text text-anchor="middle" x="20.5" y="-152.75" font-family="Helvetica,sans-Serif" font-size="10.00">TEST</text>
</a>
</g>
</g>
<!-- Node12&#45;&gt;Node14 -->
<g id="edge15" class="edge">
<title>Node12&#45;&gt;Node14</title>
<path fill="none" stroke="midnightblue" d="M73.88,-163.15C61.78,-161.33 50.22,-159.58 41.05,-158.2"/>
<polygon fill="midnightblue" stroke="midnightblue" points="73.72,-166.67 84.13,-164.7 74.76,-159.74 73.72,-166.67"/>
</g>
<!-- Node15&#45;&gt;Node5 -->
<g id="edge19" class="edge">
<title>Node15&#45;&gt;Node5</title>
<path fill="none" stroke="midnightblue" d="M1110.43,-131.15C1125.22,-137.49 1145.89,-144.23 1164,-150.25 1178.24,-154.99 1193.64,-160.17 1207.89,-164.68"/>
<polygon fill="midnightblue" stroke="midnightblue" points="1111.76,-127.91 1101.22,-126.84 1108.79,-134.25 1111.76,-127.91"/>
</g>
<!-- Node16&#45;&gt;Node5 -->
<g id="edge28" class="edge">
<title>Node16&#45;&gt;Node5</title>
<path fill="none" stroke="midnightblue" d="M1917.6,-117.73C1796.58,-119.42 1559.81,-126.51 1361,-155.25 1343.42,-157.79 1324.2,-161.37 1307.51,-164.73"/>
<polygon fill="midnightblue" stroke="midnightblue" points="1917.93,-121.23 1927.89,-117.6 1917.84,-114.23 1917.93,-121.23"/>
</g>
<!-- Node16&#45;&gt;Node17 -->
<g id="edge22" class="edge">
<title>Node16&#45;&gt;Node17</title>
<path fill="none" stroke="midnightblue" d="M1941.25,-128.93C1915.29,-134.32 1884.88,-140.64 1860.35,-145.73"/>
<polygon fill="midnightblue" stroke="midnightblue" points="1942.24,-132.3 1951.32,-126.84 1940.82,-125.45 1942.24,-132.3"/>
</g>
<!-- Node17&#45;&gt;Node3 -->
<g id="edge24" class="edge">
<title>Node17&#45;&gt;Node3</title>
<path fill="none" stroke="midnightblue" d="M1756.86,-166.93C1731.19,-172.32 1701.11,-178.64 1676.85,-183.73"/>
<polygon fill="midnightblue" stroke="midnightblue" points="1757.76,-170.32 1766.83,-164.84 1756.32,-163.47 1757.76,-170.32"/>
</g>
<!-- Node17&#45;&gt;Node17 -->
<g id="edge23" class="edge">
<title>Node17&#45;&gt;Node17</title>
<path fill="none" stroke="midnightblue" d="M1847.61,-173.14C1847.11,-178.79 1835.74,-183.25 1813.5,-183.25 1781.15,-183.25 1771.8,-173.82 1785.45,-165.01"/>
<polygon fill="midnightblue" stroke="midnightblue" points="1850.33,-170.94 1841.55,-165.01 1844.72,-175.12 1850.33,-170.94"/>
</g>
<!-- Node18 -->
<g id="node18" class="node">
<title>Node18</title>
<g id="a_node18"><a xlink:href="../../d0/dfe/class_syntax_analyzer.html#a1e9b913cc8c2861927d7c05d10f1822d" target="_top" xlink:title=" ">
<polygon fill="none" stroke="black" points="1562,-145.75 1562,-164.75 1699,-164.75 1699,-145.75 1562,-145.75"/>
<text text-anchor="middle" x="1630.5" y="-152.75" font-family="Helvetica,sans-Serif" font-size="10.00">SyntaxAnalyzer::syntaxTerm</text>
</a>
</g>
</g>
<!-- Node17&#45;&gt;Node18 -->
<g id="edge25" class="edge">
<title>Node17&#45;&gt;Node18</title>
<path fill="none" stroke="midnightblue" d="M1731.49,-155.25C1720.72,-155.25 1709.76,-155.25 1699.24,-155.25"/>
<polygon fill="midnightblue" stroke="midnightblue" points="1731.74,-158.75 1741.74,-155.25 1731.74,-151.75 1731.74,-158.75"/>
</g>
<!-- Node19 -->
<g id="node19" class="node">
<title>Node19</title>
<g id="a_node19"><a xlink:href="../../d0/dfe/class_syntax_analyzer.html#a3dfb6634a4bcdc61da5b1bafd1f3d136" target="_top" xlink:title=" ">
<polygon fill="none" stroke="black" points="1361,-69.75 1361,-88.75 1525,-88.75 1525,-69.75 1361,-69.75"/>
<text text-anchor="middle" x="1443" y="-76.75" font-family="Helvetica,sans-Serif" font-size="10.00">SyntaxAnalyzer::syntaxSimpleExpr</text>
</a>
</g>
</g>
<!-- Node18&#45;&gt;Node19 -->
<g id="edge26" class="edge">
<title>Node18&#45;&gt;Node19</title>
<path fill="none" stroke="midnightblue" d="M1596.62,-141.78C1559.47,-126.56 1499.95,-102.18 1467.3,-88.8"/>
<polygon fill="midnightblue" stroke="midnightblue" points="1595.43,-145.07 1606.01,-145.63 1598.08,-138.6 1595.43,-145.07"/>
</g>
<!-- Node19&#45;&gt;Node1 -->
<g id="edge27" class="edge">
<title>Node19&#45;&gt;Node1</title>
<path fill="none" stroke="midnightblue" d="M1535.34,-72.82C1658.17,-66.24 1882.8,-61.57 2070,-98.25 2099.67,-104.07 2132.1,-117.46 2152.24,-126.68"/>
<polygon fill="midnightblue" stroke="midnightblue" points="1535.02,-69.33 1525.22,-73.37 1535.4,-76.32 1535.02,-69.33"/>
</g>
<!-- Node20&#45;&gt;Node5 -->
<g id="edge32" class="edge">
<title>Node20&#45;&gt;Node5</title>
<path fill="none" stroke="midnightblue" d="M1726.45,-36.83C1613.74,-32.41 1423.17,-30.01 1361,-60.25 1313.46,-83.37 1280.01,-141.51 1268.19,-164.59"/>
<polygon fill="midnightblue" stroke="midnightblue" points="1726.63,-40.34 1736.77,-37.25 1726.92,-33.35 1726.63,-40.34"/>
</g>
<!-- Node21&#45;&gt;Node2 -->
<g id="edge34" class="edge">
<title>Node21&#45;&gt;Node2</title>
<path fill="none" stroke="midnightblue" d="M1924.97,-204.35C1909.05,-206.79 1892.33,-209.34 1876.85,-211.71"/>
<polygon fill="midnightblue" stroke="midnightblue" points="1925.93,-207.74 1935.29,-202.77 1924.87,-200.82 1925.93,-207.74"/>
</g>
<!-- Node21&#45;&gt;Node17 -->
<g id="edge35" class="edge">
<title>Node21&#45;&gt;Node17</title>
<path fill="none" stroke="midnightblue" d="M1941.25,-181.57C1915.29,-176.18 1884.88,-169.87 1860.35,-164.77"/>
<polygon fill="midnightblue" stroke="midnightblue" points="1940.82,-185.06 1951.32,-183.66 1942.24,-178.2 1940.82,-185.06"/>
</g>
</g>
</svg>
