<?xml version="1.0" encoding="UTF-8" standalone="no"?>
<!DOCTYPE svg PUBLIC "-//W3C//DTD SVG 1.1//EN"
 "http://www.w3.org/Graphics/SVG/1.1/DTD/svg11.dtd">
<!-- Generated by graphviz version 3.0.0 (20220413.0106)
 -->
<!-- Title: SyntaxAnalyzer::getNextToken Pages: 1 -->
<svg width="3136pt" height="902pt"
 viewBox="0.00 0.00 3136.00 902.28" xmlns="http://www.w3.org/2000/svg" xmlns:xlink="http://www.w3.org/1999/xlink">
<g id="graph0" class="graph" transform="scale(1 1) rotate(0) translate(4 898.28)">
<title>SyntaxAnalyzer::getNextToken</title>
<!-- Node1 -->
<g id="node1" class="node">
<title>Node1</title>
<g id="a_node1"><a xlink:title=" ">
<polygon fill="#bfbfbf" stroke="black" points="2980,-247.5 2980,-266.5 3128,-266.5 3128,-247.5 2980,-247.5"/>
<text text-anchor="middle" x="3054" y="-254.5" font-family="Helvetica,sans-Serif" font-size="10.00">SyntaxAnalyzer::getNextToken</text>
</a>
</g>
</g>
<!-- Node2 -->
<g id="node2" class="node">
<title>Node2</title>
<g id="a_node2"><a xlink:href="../../d0/dfe/class_syntax_analyzer.html#ae1d3434e5cc4b4bcd5a3a245814a44f0" target="_top" xlink:title=" ">
<polygon fill="none" stroke="black" points="2834.5,-437.5 2834.5,-456.5 2935.5,-456.5 2935.5,-437.5 2834.5,-437.5"/>
<text text-anchor="middle" x="2885" y="-444.5" font-family="Helvetica,sans-Serif" font-size="10.00">SyntaxAnalyzer::eat</text>
</a>
</g>
</g>
<!-- Node1&#45;&gt;Node2 -->
<g id="edge1" class="edge">
<title>Node1&#45;&gt;Node2</title>
<path fill="none" stroke="midnightblue" d="M3037.56,-274.57C3003.23,-313.62 2921.52,-406.59 2894.69,-437.11"/>
<polygon fill="midnightblue" stroke="midnightblue" points="3040.52,-276.51 3044.49,-266.68 3035.26,-271.88 3040.52,-276.51"/>
</g>
<!-- Node28 -->
<g id="node28" class="node">
<title>Node28</title>
<g id="a_node28"><a xlink:href="../../d0/dfe/class_syntax_analyzer.html#a9952c4a2db0a1382b9c94f40dd535fae" target="_top" xlink:title=" ">
<polygon fill="none" stroke="black" points="2826,-228.5 2826,-247.5 2944,-247.5 2944,-228.5 2826,-228.5"/>
<text text-anchor="middle" x="2885" y="-235.5" font-family="Helvetica,sans-Serif" font-size="10.00">SyntaxAnalyzer::eatAdv</text>
</a>
</g>
</g>
<!-- Node1&#45;&gt;Node28 -->
<g id="edge63" class="edge">
<title>Node1&#45;&gt;Node28</title>
<path fill="none" stroke="midnightblue" d="M2969.65,-247.52C2961.03,-246.54 2952.4,-245.55 2944.14,-244.61"/>
<polygon fill="midnightblue" stroke="midnightblue" points="2969.42,-251.01 2979.75,-248.67 2970.21,-244.06 2969.42,-251.01"/>
</g>
<!-- Node3 -->
<g id="node3" class="node">
<title>Node3</title>
<g id="a_node3"><a xlink:href="../../d0/dfe/class_syntax_analyzer.html#a31fc5887c158652feb946f89270b4b36" target="_top" xlink:title=" ">
<polygon fill="none" stroke="black" points="1711,-475.5 1711,-494.5 1866,-494.5 1866,-475.5 1711,-475.5"/>
<text text-anchor="middle" x="1788.5" y="-482.5" font-family="Helvetica,sans-Serif" font-size="10.00">SyntaxAnalyzer::syntaxAssignSt</text>
</a>
</g>
</g>
<!-- Node2&#45;&gt;Node3 -->
<g id="edge2" class="edge">
<title>Node2&#45;&gt;Node3</title>
<path fill="none" stroke="midnightblue" d="M2824.57,-436.64C2724.99,-420.2 2517.98,-390 2341.5,-390 2341.5,-390 2341.5,-390 2153,-390 2018.96,-390 1865.88,-451.22 1810.71,-475.37"/>
<polygon fill="midnightblue" stroke="midnightblue" points="2824.01,-440.09 2834.44,-438.28 2825.15,-433.19 2824.01,-440.09"/>
</g>
<!-- Node4 -->
<g id="node4" class="node">
<title>Node4</title>
<g id="a_node4"><a xlink:href="../../d0/dfe/class_syntax_analyzer.html#aea3a3d1860938d64edf651bdc4016c04" target="_top" xlink:title=" ">
<polygon fill="none" stroke="black" points="1536,-437.5 1536,-456.5 1675,-456.5 1675,-437.5 1536,-437.5"/>
<text text-anchor="middle" x="1605.5" y="-444.5" font-family="Helvetica,sans-Serif" font-size="10.00">SyntaxAnalyzer::syntaxIterSt</text>
</a>
</g>
</g>
<!-- Node2&#45;&gt;Node4 -->
<g id="edge47" class="edge">
<title>Node2&#45;&gt;Node4</title>
<path fill="none" stroke="midnightblue" d="M2856.13,-432.97C2837.73,-424.18 2812.89,-413.19 2790,-406 2673.46,-369.37 2642.66,-352 2520.5,-352 2520.5,-352 2520.5,-352 1968,-352 1834.65,-352 1682.44,-413.22 1627.58,-437.37"/>
<polygon fill="midnightblue" stroke="midnightblue" points="2854.85,-436.24 2865.37,-437.46 2857.91,-429.94 2854.85,-436.24"/>
</g>
<!-- Node5 -->
<g id="node5" class="node">
<title>Node5</title>
<g id="a_node5"><a xlink:href="../../d0/dfe/class_syntax_analyzer.html#a82e8472ea6d1064871de0d05eaa8b374" target="_top" xlink:title=" ">
<polygon fill="none" stroke="black" points="1361,-437.5 1361,-456.5 1500,-456.5 1500,-437.5 1361,-437.5"/>
<text text-anchor="middle" x="1430.5" y="-444.5" font-family="Helvetica,sans-Serif" font-size="10.00">SyntaxAnalyzer::syntaxForSt</text>
</a>
</g>
</g>
<!-- Node2&#45;&gt;Node5 -->
<g id="edge44" class="edge">
<title>Node2&#45;&gt;Node5</title>
<path fill="none" stroke="midnightblue" d="M2871.19,-429.15C2854.9,-407.94 2824.69,-373.27 2790,-356 2681.48,-301.98 2641.72,-314 2520.5,-314 2520.5,-314 2520.5,-314 1787.5,-314 1646.31,-314 1492.4,-406.94 1445.7,-437.43"/>
<polygon fill="midnightblue" stroke="midnightblue" points="2868.5,-431.4 2877.29,-437.32 2874.11,-427.22 2868.5,-431.4"/>
</g>
<!-- Node6 -->
<g id="node6" class="node">
<title>Node6</title>
<g id="a_node6"><a xlink:href="../../d0/dfe/class_syntax_analyzer.html#a7f54bde730006b1b863290415809ab4e" target="_top" xlink:title=" ">
<polygon fill="none" stroke="black" points="1200,-513.5 1200,-532.5 1325,-532.5 1325,-513.5 1200,-513.5"/>
<text text-anchor="middle" x="1262.5" y="-520.5" font-family="Helvetica,sans-Serif" font-size="10.00">SyntaxAnalyzer::syntaxSt</text>
</a>
</g>
</g>
<!-- Node2&#45;&gt;Node6 -->
<g id="edge51" class="edge">
<title>Node2&#45;&gt;Node6</title>
<path fill="none" stroke="midnightblue" d="M2883.67,-466.69C2881.68,-517.6 2868.87,-654.37 2790,-722 2697.64,-801.2 2642.16,-770 2520.5,-770 2520.5,-770 2520.5,-770 1604.5,-770 1439.66,-770 1300.63,-578.35 1269.85,-532.68"/>
<polygon fill="midnightblue" stroke="midnightblue" points="2887.17,-466.77 2883.96,-456.67 2880.17,-466.57 2887.17,-466.77"/>
</g>
<!-- Node7 -->
<g id="node7" class="node">
<title>Node7</title>
<g id="a_node7"><a xlink:href="../../d0/dfe/class_syntax_analyzer.html#a779e006875d35926152773989f4b1e5a" target="_top" xlink:title=" ">
<polygon fill="none" stroke="black" points="1024,-475.5 1024,-494.5 1155,-494.5 1155,-475.5 1024,-475.5"/>
<text text-anchor="middle" x="1089.5" y="-482.5" font-family="Helvetica,sans-Serif" font-size="10.00">SyntaxAnalyzer::syntaxIfSt</text>
</a>
</g>
</g>
<!-- Node2&#45;&gt;Node7 -->
<g id="edge46" class="edge">
<title>Node2&#45;&gt;Node7</title>
<path fill="none" stroke="midnightblue" d="M2876.92,-427.57C2864.54,-396.66 2835.84,-336.93 2790,-309 2686.96,-246.2 2641.17,-276 2520.5,-276 2520.5,-276 2520.5,-276 1429.5,-276 1284.4,-276 1295.46,-404.58 1164,-466 1155.88,-469.79 1146.89,-472.91 1138.06,-475.45"/>
<polygon fill="midnightblue" stroke="midnightblue" points="2873.77,-429.12 2880.62,-437.2 2880.3,-426.61 2873.77,-429.12"/>
</g>
<!-- Node8 -->
<g id="node8" class="node">
<title>Node8</title>
<g id="a_node8"><a xlink:href="../../d0/dfe/class_syntax_analyzer.html#a6df61a82ef9de3c17b78be89a321a087" target="_top" xlink:title=" ">
<polygon fill="none" stroke="black" points="1019,-437.5 1019,-456.5 1160,-456.5 1160,-437.5 1019,-437.5"/>
<text text-anchor="middle" x="1089.5" y="-444.5" font-family="Helvetica,sans-Serif" font-size="10.00">SyntaxAnalyzer::syntaxStList</text>
</a>
</g>
</g>
<!-- Node2&#45;&gt;Node8 -->
<g id="edge52" class="edge">
<title>Node2&#45;&gt;Node8</title>
<path fill="none" stroke="midnightblue" d="M2880.47,-427.31C2872.32,-388.27 2848.25,-301.4 2790,-262 2690.4,-194.62 2640.75,-238 2520.5,-238 2520.5,-238 2520.5,-238 1429.5,-238 1326.94,-238 1286.33,-206.63 1200,-262 1132.77,-305.12 1101.42,-405.42 1092.95,-437.18"/>
<polygon fill="midnightblue" stroke="midnightblue" points="2877.04,-428.04 2882.4,-437.18 2883.91,-426.7 2877.04,-428.04"/>
</g>
<!-- Node9 -->
<g id="node9" class="node">
<title>Node9</title>
<g id="a_node9"><a xlink:href="../../d0/dfe/class_syntax_analyzer.html#a5770afdc4d32d2c38550f27f9ffd949a" target="_top" xlink:title=" ">
<polygon fill="none" stroke="black" points="808,-475.5 808,-494.5 979,-494.5 979,-475.5 808,-475.5"/>
<text text-anchor="middle" x="893.5" y="-482.5" font-family="Helvetica,sans-Serif" font-size="10.00">SyntaxAnalyzer::syntaxCompoundSt</text>
</a>
</g>
</g>
<!-- Node2&#45;&gt;Node9 -->
<g id="edge37" class="edge">
<title>Node2&#45;&gt;Node9</title>
<path fill="none" stroke="midnightblue" d="M2881.58,-466.96C2872.92,-535.08 2841.2,-756.68 2790,-803 2700.06,-884.38 2641.79,-846 2520.5,-846 2520.5,-846 2520.5,-846 1261.5,-846 1055.05,-846 922.36,-552.07 898.41,-494.66"/>
<polygon fill="midnightblue" stroke="midnightblue" points="2885.09,-467.1 2882.85,-456.75 2878.15,-466.24 2885.09,-467.1"/>
</g>
<!-- Node11 -->
<g id="node11" class="node">
<title>Node11</title>
<g id="a_node11"><a xlink:href="../../d0/dfe/class_syntax_analyzer.html#ae04232a95c6423677e600927c82851e4" target="_top" xlink:title=" ">
<polygon fill="none" stroke="black" points="444,-114.5 444,-133.5 596,-133.5 596,-114.5 444,-114.5"/>
<text text-anchor="middle" x="520" y="-121.5" font-family="Helvetica,sans-Serif" font-size="10.00">SyntaxAnalyzer::syntaxFuncDef</text>
</a>
</g>
</g>
<!-- Node2&#45;&gt;Node11 -->
<g id="edge45" class="edge">
<title>Node2&#45;&gt;Node11</title>
<path fill="none" stroke="midnightblue" d="M2877.29,-427.55C2865.68,-393.37 2841.57,-320.15 2826,-257 2805.42,-173.55 2854.22,-124.12 2790,-67 2745.14,-27.1 2580.54,-48 2520.5,-48 2520.5,-48 2520.5,-48 892.5,-48 761.49,-48 609.68,-93.92 548.57,-114.37"/>
<polygon fill="midnightblue" stroke="midnightblue" points="2874.05,-428.89 2880.6,-437.22 2880.67,-426.62 2874.05,-428.89"/>
</g>
<!-- Node12 -->
<g id="node12" class="node">
<title>Node12</title>
<g id="a_node12"><a xlink:href="../../d0/dfe/class_syntax_analyzer.html#a8b337bd5b4a90cd5bd804a936e408e4b" target="_top" xlink:title=" ">
<polygon fill="none" stroke="black" points="256,-171.5 256,-190.5 408,-190.5 408,-171.5 256,-171.5"/>
<text text-anchor="middle" x="332" y="-178.5" font-family="Helvetica,sans-Serif" font-size="10.00">SyntaxAnalyzer::syntaxProgram</text>
</a>
</g>
</g>
<!-- Node2&#45;&gt;Node12 -->
<g id="edge48" class="edge">
<title>Node2&#45;&gt;Node12</title>
<path fill="none" stroke="midnightblue" d="M2882.18,-466.81C2875.07,-539.61 2846.73,-790.74 2790,-843 2700.89,-925.08 2641.66,-884 2520.5,-884 2520.5,-884 2520.5,-884 701,-884 372.79,-884 336.75,-275.11 333.33,-190.67"/>
<polygon fill="midnightblue" stroke="midnightblue" points="2885.67,-467.01 2883.14,-456.72 2878.71,-466.34 2885.67,-467.01"/>
</g>
<!-- Node16 -->
<g id="node16" class="node">
<title>Node16</title>
<g id="a_node16"><a xlink:href="../../d0/dfe/class_syntax_analyzer.html#a64dad7f0b22b08d182483469d3a1aa79" target="_top" xlink:title=" ">
<polygon fill="none" stroke="black" points="1015,-570.5 1015,-589.5 1164,-589.5 1164,-570.5 1015,-570.5"/>
<text text-anchor="middle" x="1089.5" y="-577.5" font-family="Helvetica,sans-Serif" font-size="10.00">SyntaxAnalyzer::syntaxWhileSt</text>
</a>
</g>
</g>
<!-- Node2&#45;&gt;Node16 -->
<g id="edge62" class="edge">
<title>Node2&#45;&gt;Node16</title>
<path fill="none" stroke="midnightblue" d="M2884.72,-466.93C2885.58,-523.11 2879.71,-683.75 2790,-763 2698.99,-843.4 2641.94,-808 2520.5,-808 2520.5,-808 2520.5,-808 1429.5,-808 1270.27,-808 1129.61,-632.66 1097.4,-589.51"/>
<polygon fill="midnightblue" stroke="midnightblue" points="2888.21,-466.51 2884.47,-456.6 2881.22,-466.68 2888.21,-466.51"/>
</g>
<!-- Node17 -->
<g id="node17" class="node">
<title>Node17</title>
<g id="a_node17"><a xlink:href="../../d0/dfe/class_syntax_analyzer.html#a2db43946bee3e973ce1cf293b262e271" target="_top" xlink:title=" ">
<polygon fill="none" stroke="black" points="2639.5,-608.5 2639.5,-627.5 2780.5,-627.5 2780.5,-608.5 2639.5,-608.5"/>
<text text-anchor="middle" x="2710" y="-615.5" font-family="Helvetica,sans-Serif" font-size="10.00">SyntaxAnalyzer::syntaxCallSt</text>
</a>
</g>
</g>
<!-- Node2&#45;&gt;Node17 -->
<g id="edge22" class="edge">
<title>Node2&#45;&gt;Node17</title>
<path fill="none" stroke="midnightblue" d="M2877.01,-465.89C2864.46,-497.21 2835.12,-559.81 2790,-594 2781.66,-600.32 2771.65,-604.99 2761.61,-608.43"/>
<polygon fill="midnightblue" stroke="midnightblue" points="2880.28,-467.14 2880.62,-456.55 2873.75,-464.62 2880.28,-467.14"/>
</g>
<!-- Node18 -->
<g id="node18" class="node">
<title>Node18</title>
<g id="a_node18"><a xlink:href="../../d0/dfe/class_syntax_analyzer.html#a3af9b5161a2cef6fdd26b0bb60334ac4" target="_top" xlink:title=" ">
<polygon fill="none" stroke="black" points="2448,-476.5 2448,-495.5 2591,-495.5 2591,-476.5 2448,-476.5"/>
<text text-anchor="middle" x="2519.5" y="-483.5" font-family="Helvetica,sans-Serif" font-size="10.00">SyntaxAnalyzer::syntaxFactor</text>
</a>
</g>
</g>
<!-- Node2&#45;&gt;Node18 -->
<g id="edge43" class="edge">
<title>Node2&#45;&gt;Node18</title>
<path fill="none" stroke="midnightblue" d="M2857.08,-461.09C2838.73,-469.88 2813.57,-480.37 2790,-485 2723.43,-498.08 2645.81,-496.66 2591.02,-492.97"/>
<polygon fill="midnightblue" stroke="midnightblue" points="2858.84,-464.12 2866.26,-456.56 2855.74,-457.84 2858.84,-464.12"/>
</g>
<!-- Node19 -->
<g id="node19" class="node">
<title>Node19</title>
<g id="a_node19"><a xlink:href="../../d0/dfe/class_syntax_analyzer.html#a1e9b913cc8c2861927d7c05d10f1822d" target="_top" xlink:title=" ">
<polygon fill="none" stroke="black" points="2272,-532.5 2272,-551.5 2409,-551.5 2409,-532.5 2272,-532.5"/>
<text text-anchor="middle" x="2340.5" y="-539.5" font-family="Helvetica,sans-Serif" font-size="10.00">SyntaxAnalyzer::syntaxTerm</text>
</a>
</g>
</g>
<!-- Node2&#45;&gt;Node19 -->
<g id="edge53" class="edge">
<title>Node2&#45;&gt;Node19</title>
<path fill="none" stroke="midnightblue" d="M2864.04,-462.79C2845.86,-476.24 2817.7,-494.79 2790,-504 2660.41,-547.07 2498.76,-549.05 2409.2,-545.96"/>
<polygon fill="midnightblue" stroke="midnightblue" points="2866.26,-465.5 2872.12,-456.67 2862.03,-459.92 2866.26,-465.5"/>
</g>
<!-- Node20 -->
<g id="node20" class="node">
<title>Node20</title>
<g id="a_node20"><a xlink:href="../../d0/dfe/class_syntax_analyzer.html#a3dfb6634a4bcdc61da5b1bafd1f3d136" target="_top" xlink:title=" ">
<polygon fill="none" stroke="black" points="2072,-551.5 2072,-570.5 2236,-570.5 2236,-551.5 2072,-551.5"/>
<text text-anchor="middle" x="2154" y="-558.5" font-family="Helvetica,sans-Serif" font-size="10.00">SyntaxAnalyzer::syntaxSimpleExpr</text>
</a>
</g>
</g>
<!-- Node2&#45;&gt;Node20 -->
<g id="edge50" class="edge">
<title>Node2&#45;&gt;Node20</title>
<path fill="none" stroke="midnightblue" d="M2870.84,-464.56C2854.4,-485.05 2824.24,-518.12 2790,-534 2693.9,-578.57 2384.76,-571.47 2236.2,-565.14"/>
<polygon fill="midnightblue" stroke="midnightblue" points="2873.63,-466.68 2877.02,-456.64 2868.11,-462.38 2873.63,-466.68"/>
</g>
<!-- Node21 -->
<g id="node21" class="node">
<title>Node21</title>
<g id="a_node21"><a xlink:href="../../d0/dfe/class_syntax_analyzer.html#ae8d09db1b25ec882248aeed978c13a4d" target="_top" xlink:title=" ">
<polygon fill="none" stroke="black" points="1902,-551.5 1902,-570.5 2036,-570.5 2036,-551.5 1902,-551.5"/>
<text text-anchor="middle" x="1969" y="-558.5" font-family="Helvetica,sans-Serif" font-size="10.00">SyntaxAnalyzer::syntaxExpr</text>
</a>
</g>
</g>
<!-- Node2&#45;&gt;Node21 -->
<g id="edge42" class="edge">
<title>Node2&#45;&gt;Node21</title>
<path fill="none" stroke="midnightblue" d="M2880.22,-466.61C2871.61,-505.62 2846.75,-592.96 2790,-637 2693.28,-712.05 2642.93,-694 2520.5,-694 2520.5,-694 2520.5,-694 2339.5,-694 2193.6,-694 2033.42,-601.06 1984.79,-570.57"/>
<polygon fill="midnightblue" stroke="midnightblue" points="2883.65,-467.27 2882.26,-456.77 2876.8,-465.84 2883.65,-467.27"/>
</g>
<!-- Node22 -->
<g id="node22" class="node">
<title>Node22</title>
<g id="a_node22"><a xlink:href="../../d0/dfe/class_syntax_analyzer.html#a55e935b2aa7f20b66e9228e977582fcd" target="_top" xlink:title=" ">
<polygon fill="none" stroke="black" points="1712,-551.5 1712,-570.5 1865,-570.5 1865,-551.5 1712,-551.5"/>
<text text-anchor="middle" x="1788.5" y="-558.5" font-family="Helvetica,sans-Serif" font-size="10.00">SyntaxAnalyzer::syntaxReturnSt</text>
</a>
</g>
</g>
<!-- Node2&#45;&gt;Node22 -->
<g id="edge49" class="edge">
<title>Node2&#45;&gt;Node22</title>
<path fill="none" stroke="midnightblue" d="M2882.22,-466.95C2877.02,-512.45 2857.67,-624.27 2790,-680 2695.84,-757.55 2642.49,-732 2520.5,-732 2520.5,-732 2520.5,-732 2339.5,-732 2120.51,-732 1873.69,-606.86 1806.92,-570.68"/>
<polygon fill="midnightblue" stroke="midnightblue" points="2885.71,-467.19 2883.25,-456.88 2878.75,-466.47 2885.71,-467.19"/>
</g>
<!-- Node23 -->
<g id="node23" class="node">
<title>Node23</title>
<g id="a_node23"><a xlink:href="../../d0/dfe/class_syntax_analyzer.html#adad79b2219ae143b49203a836713bec9" target="_top" xlink:title=" ">
<polygon fill="none" stroke="black" points="2630,-76.5 2630,-95.5 2790,-95.5 2790,-76.5 2630,-76.5"/>
<text text-anchor="middle" x="2710" y="-83.5" font-family="Helvetica,sans-Serif" font-size="10.00">SyntaxAnalyzer::syntaxConstDecl</text>
</a>
</g>
</g>
<!-- Node2&#45;&gt;Node23 -->
<g id="edge38" class="edge">
<title>Node2&#45;&gt;Node23</title>
<path fill="none" stroke="midnightblue" d="M2877.64,-427.46C2866.55,-393.14 2843.24,-319.72 2826,-257 2808.17,-192.14 2836.24,-158.85 2790,-110 2783.99,-103.65 2776.36,-98.96 2768.22,-95.51"/>
<polygon fill="midnightblue" stroke="midnightblue" points="2874.37,-428.73 2880.78,-437.17 2881.03,-426.58 2874.37,-428.73"/>
</g>
<!-- Node24 -->
<g id="node24" class="node">
<title>Node24</title>
<g id="a_node24"><a xlink:href="../../d0/dfe/class_syntax_analyzer.html#a58a0f927ad0a45e4ce837a98e98330aa" target="_top" xlink:title=" ">
<polygon fill="none" stroke="black" points="2446.5,-190.5 2446.5,-209.5 2592.5,-209.5 2592.5,-190.5 2446.5,-190.5"/>
<text text-anchor="middle" x="2519.5" y="-197.5" font-family="Helvetica,sans-Serif" font-size="10.00">SyntaxAnalyzer::syntaxConsts</text>
</a>
</g>
</g>
<!-- Node2&#45;&gt;Node24 -->
<g id="edge41" class="edge">
<title>Node2&#45;&gt;Node24</title>
<path fill="none" stroke="midnightblue" d="M2882.26,-427.13C2877.17,-382.37 2858.06,-273.66 2790,-224 2725.21,-176.72 2626.95,-181.84 2568.7,-190.48"/>
<polygon fill="midnightblue" stroke="midnightblue" points="2878.8,-427.69 2883.29,-437.29 2885.76,-426.98 2878.8,-427.69"/>
</g>
<!-- Node25 -->
<g id="node25" class="node">
<title>Node25</title>
<g id="a_node25"><a xlink:href="../../d0/dfe/class_syntax_analyzer.html#a8f6dda26a96ec0e5e75bea5eed577856" target="_top" xlink:title=" ">
<polygon fill="none" stroke="black" points="2445,-114.5 2445,-133.5 2594,-133.5 2594,-114.5 2445,-114.5"/>
<text text-anchor="middle" x="2519.5" y="-121.5" font-family="Helvetica,sans-Serif" font-size="10.00">SyntaxAnalyzer::syntaxVarDecl</text>
</a>
</g>
</g>
<!-- Node2&#45;&gt;Node25 -->
<g id="edge54" class="edge">
<title>Node2&#45;&gt;Node25</title>
<path fill="none" stroke="midnightblue" d="M2878.04,-427.55C2857.82,-361.59 2792.86,-150.3 2790,-148 2725.4,-96.03 2621.77,-104.31 2563.64,-114.47"/>
<polygon fill="midnightblue" stroke="midnightblue" points="2874.81,-428.94 2881.08,-437.47 2881.5,-426.89 2874.81,-428.94"/>
</g>
<!-- Node26 -->
<g id="node26" class="node">
<title>Node26</title>
<g id="a_node26"><a xlink:href="../../d0/dfe/class_syntax_analyzer.html#a738f9b4cb7edf93c56af1b6974caad1a" target="_top" xlink:title=" ">
<polygon fill="none" stroke="black" points="2273,-152.5 2273,-171.5 2408,-171.5 2408,-152.5 2273,-152.5"/>
<text text-anchor="middle" x="2340.5" y="-159.5" font-family="Helvetica,sans-Serif" font-size="10.00">SyntaxAnalyzer::syntaxVars</text>
</a>
</g>
</g>
<!-- Node2&#45;&gt;Node26 -->
<g id="edge61" class="edge">
<title>Node2&#45;&gt;Node26</title>
<path fill="none" stroke="midnightblue" d="M2878.44,-427.29C2861.59,-368.18 2810.94,-195.46 2790,-180 2731.24,-136.59 2517.96,-147.11 2408.03,-155.85"/>
<polygon fill="midnightblue" stroke="midnightblue" points="2875.17,-428.57 2881.26,-437.23 2881.9,-426.66 2875.17,-428.57"/>
</g>
<!-- Node27 -->
<g id="node27" class="node">
<title>Node27</title>
<g id="a_node27"><a xlink:href="../../d0/dfe/class_syntax_analyzer.html#a94c8a6ab5c0e53cae22edb1a840a27ce" target="_top" xlink:title=" ">
<polygon fill="none" stroke="black" points="2635,-456.5 2635,-475.5 2785,-475.5 2785,-456.5 2635,-456.5"/>
<text text-anchor="middle" x="2710" y="-463.5" font-family="Helvetica,sans-Serif" font-size="10.00">SyntaxAnalyzer::syntaxVariable</text>
</a>
</g>
</g>
<!-- Node2&#45;&gt;Node27 -->
<g id="edge58" class="edge">
<title>Node2&#45;&gt;Node27</title>
<path fill="none" stroke="midnightblue" d="M2824.46,-453.54C2811.78,-454.93 2798.24,-456.42 2785.09,-457.86"/>
<polygon fill="midnightblue" stroke="midnightblue" points="2824.87,-457.02 2834.43,-452.44 2824.1,-450.06 2824.87,-457.02"/>
</g>
<!-- Node3&#45;&gt;Node4 -->
<g id="edge3" class="edge">
<title>Node3&#45;&gt;Node4</title>
<path fill="none" stroke="midnightblue" d="M1731.86,-473.32C1706.19,-467.93 1676.11,-461.61 1651.85,-456.52"/>
<polygon fill="midnightblue" stroke="midnightblue" points="1731.32,-476.78 1741.83,-475.41 1732.76,-469.93 1731.32,-476.78"/>
</g>
<!-- Node3&#45;&gt;Node6 -->
<g id="edge21" class="edge">
<title>Node3&#45;&gt;Node6</title>
<path fill="none" stroke="midnightblue" d="M1700.72,-491.29C1594.8,-498.97 1418.36,-511.77 1325.3,-518.52"/>
<polygon fill="midnightblue" stroke="midnightblue" points="1701.02,-494.78 1710.74,-490.57 1700.52,-487.8 1701.02,-494.78"/>
</g>
<!-- Node4&#45;&gt;Node5 -->
<g id="edge4" class="edge">
<title>Node4&#45;&gt;Node5</title>
<path fill="none" stroke="midnightblue" d="M1525.41,-447C1516.97,-447 1508.44,-447 1500.13,-447"/>
<polygon fill="midnightblue" stroke="midnightblue" points="1525.63,-450.5 1535.63,-447 1525.63,-443.5 1525.63,-450.5"/>
</g>
<!-- Node5&#45;&gt;Node6 -->
<g id="edge5" class="edge">
<title>Node5&#45;&gt;Node6</title>
<path fill="none" stroke="midnightblue" d="M1387.24,-460.38C1350.56,-475.64 1299.76,-499.62 1276.31,-513.32"/>
<polygon fill="midnightblue" stroke="midnightblue" points="1388.77,-463.54 1396.7,-456.51 1386.12,-457.06 1388.77,-463.54"/>
</g>
<!-- Node6&#45;&gt;Node5 -->
<g id="edge6" class="edge">
<title>Node6&#45;&gt;Node5</title>
<path fill="none" stroke="midnightblue" d="M1305.81,-509.6C1342.51,-494.32 1393.33,-470.34 1416.75,-456.65"/>
<polygon fill="midnightblue" stroke="midnightblue" points="1304.27,-506.45 1296.33,-513.47 1306.91,-512.93 1304.27,-506.45"/>
</g>
<!-- Node6&#45;&gt;Node7 -->
<g id="edge7" class="edge">
<title>Node6&#45;&gt;Node7</title>
<path fill="none" stroke="midnightblue" d="M1229.84,-510.58C1208.91,-504.69 1180.71,-498.02 1155.15,-492.8"/>
<polygon fill="midnightblue" stroke="midnightblue" points="1228.91,-513.96 1239.49,-513.41 1230.88,-507.24 1228.91,-513.96"/>
</g>
<!-- Node6&#45;&gt;Node8 -->
<g id="edge9" class="edge">
<title>Node6&#45;&gt;Node8</title>
<path fill="none" stroke="midnightblue" d="M1239.59,-507.81C1220.4,-495.1 1191.39,-477.29 1164,-466 1154.98,-462.28 1145.04,-459.13 1135.45,-456.52"/>
<polygon fill="midnightblue" stroke="midnightblue" points="1237.67,-510.74 1247.92,-513.42 1241.58,-504.93 1237.67,-510.74"/>
</g>
<!-- Node6&#45;&gt;Node16 -->
<g id="edge19" class="edge">
<title>Node6&#45;&gt;Node16</title>
<path fill="none" stroke="midnightblue" d="M1204.43,-535.62C1170.26,-546.15 1129.25,-560.56 1106.94,-570.34"/>
<polygon fill="midnightblue" stroke="midnightblue" points="1205.77,-538.87 1214.32,-532.62 1203.74,-532.17 1205.77,-538.87"/>
</g>
<!-- Node7&#45;&gt;Node6 -->
<g id="edge8" class="edge">
<title>Node7&#45;&gt;Node6</title>
<path fill="none" stroke="midnightblue" d="M1122.26,-497.45C1143.99,-503.56 1173.5,-510.49 1199.77,-515.79"/>
<polygon fill="midnightblue" stroke="midnightblue" points="1123.15,-494.06 1112.57,-494.61 1121.19,-500.78 1123.15,-494.06"/>
</g>
<!-- Node8&#45;&gt;Node9 -->
<g id="edge10" class="edge">
<title>Node8&#45;&gt;Node9</title>
<path fill="none" stroke="midnightblue" d="M1029.59,-458.54C1001.92,-463.96 969.34,-470.34 943.1,-475.48"/>
<polygon fill="midnightblue" stroke="midnightblue" points="1030.4,-461.95 1039.55,-456.59 1029.06,-455.08 1030.4,-461.95"/>
</g>
<!-- Node9&#45;&gt;Node6 -->
<g id="edge18" class="edge">
<title>Node9&#45;&gt;Node6</title>
<path fill="none" stroke="midnightblue" d="M958.84,-496.11C976.96,-498.98 996.72,-501.86 1015,-504 1077.77,-511.36 1149.89,-516.54 1199.83,-519.61"/>
<polygon fill="midnightblue" stroke="midnightblue" points="959.39,-492.66 948.96,-494.53 958.28,-499.57 959.39,-492.66"/>
</g>
<!-- Node10 -->
<g id="node10" class="node">
<title>Node10</title>
<g id="a_node10"><a xlink:href="../../d0/dfe/class_syntax_analyzer.html#a2b54bac50e114b68e83c80d869b6ac7c" target="_top" xlink:title=" ">
<polygon fill="none" stroke="black" points="632,-171.5 632,-190.5 772,-190.5 772,-171.5 632,-171.5"/>
<text text-anchor="middle" x="702" y="-178.5" font-family="Helvetica,sans-Serif" font-size="10.00">SyntaxAnalyzer::syntaxBlock</text>
</a>
</g>
</g>
<!-- Node9&#45;&gt;Node10 -->
<g id="edge11" class="edge">
<title>Node9&#45;&gt;Node10</title>
<path fill="none" stroke="midnightblue" d="M880.93,-466.43C844.93,-408.69 735.74,-233.53 708.97,-190.58"/>
<polygon fill="midnightblue" stroke="midnightblue" points="878.15,-468.59 886.41,-475.23 884.09,-464.89 878.15,-468.59"/>
</g>
<!-- Node10&#45;&gt;Node11 -->
<g id="edge12" class="edge">
<title>Node10&#45;&gt;Node11</title>
<path fill="none" stroke="midnightblue" d="M661.03,-168.34C627.85,-157.84 581.37,-143.12 551.23,-133.57"/>
<polygon fill="midnightblue" stroke="midnightblue" points="660.28,-171.78 670.87,-171.46 662.4,-165.1 660.28,-171.78"/>
</g>
<!-- Node10&#45;&gt;Node12 -->
<g id="edge17" class="edge">
<title>Node10&#45;&gt;Node12</title>
<path fill="none" stroke="midnightblue" d="M621.46,-181C558.21,-181 470.34,-181 408.24,-181"/>
<polygon fill="midnightblue" stroke="midnightblue" points="621.78,-184.5 631.78,-181 621.78,-177.5 621.78,-184.5"/>
</g>
<!-- Node11&#45;&gt;Node12 -->
<g id="edge13" class="edge">
<title>Node11&#45;&gt;Node12</title>
<path fill="none" stroke="midnightblue" d="M478.14,-136.52C443.83,-147.04 395.52,-161.84 364.23,-171.43"/>
<polygon fill="midnightblue" stroke="midnightblue" points="479.33,-139.82 487.87,-133.54 477.28,-133.12 479.33,-139.82"/>
</g>
<!-- Node13 -->
<g id="node13" class="node">
<title>Node13</title>
<g id="a_node13"><a xlink:href="../../d0/dfe/class_syntax_analyzer.html#a96cd5f6a041dae613d1c75175e26592e" target="_top" xlink:title=" ">
<polygon fill="none" stroke="black" points="77,-171.5 77,-190.5 220,-190.5 220,-171.5 77,-171.5"/>
<text text-anchor="middle" x="148.5" y="-178.5" font-family="Helvetica,sans-Serif" font-size="10.00">SyntaxAnalyzer::parseTokens</text>
</a>
</g>
</g>
<!-- Node12&#45;&gt;Node13 -->
<g id="edge14" class="edge">
<title>Node12&#45;&gt;Node13</title>
<path fill="none" stroke="midnightblue" d="M245.84,-181C237.26,-181 228.61,-181 220.21,-181"/>
<polygon fill="midnightblue" stroke="midnightblue" points="245.87,-184.5 255.87,-181 245.87,-177.5 245.87,-184.5"/>
</g>
<!-- Node14 -->
<g id="node14" class="node">
<title>Node14</title>
<g id="a_node14"><a xlink:href="../../d3/db4/graph_draw_8cpp.html#a3c04138a5bfe5d72780bb7e82a18e627" target="_top" xlink:title=" ">
<polygon fill="none" stroke="black" points="1.5,-190.5 1.5,-209.5 39.5,-209.5 39.5,-190.5 1.5,-190.5"/>
<text text-anchor="middle" x="20.5" y="-197.5" font-family="Helvetica,sans-Serif" font-size="10.00">main</text>
</a>
</g>
</g>
<!-- Node13&#45;&gt;Node14 -->
<g id="edge15" class="edge">
<title>Node13&#45;&gt;Node14</title>
<path fill="none" stroke="midnightblue" d="M74.24,-192.05C61.4,-193.98 49.15,-195.83 39.69,-197.26"/>
<polygon fill="midnightblue" stroke="midnightblue" points="74.76,-195.51 84.13,-190.56 73.72,-188.59 74.76,-195.51"/>
</g>
<!-- Node15 -->
<g id="node15" class="node">
<title>Node15</title>
<g id="a_node15"><a xlink:href="../../dd/de9/test_syntax_8cpp.html#ac491df98e51a6bba8b808af414b6614f" target="_top" xlink:title="Тест синтаксического анализа Паскаля, простой тест">
<polygon fill="none" stroke="black" points="0,-152.5 0,-171.5 41,-171.5 41,-152.5 0,-152.5"/>
<text text-anchor="middle" x="20.5" y="-159.5" font-family="Helvetica,sans-Serif" font-size="10.00">TEST</text>
</a>
</g>
</g>
<!-- Node13&#45;&gt;Node15 -->
<g id="edge16" class="edge">
<title>Node13&#45;&gt;Node15</title>
<path fill="none" stroke="midnightblue" d="M73.88,-169.9C61.78,-168.07 50.22,-166.33 41.05,-164.95"/>
<polygon fill="midnightblue" stroke="midnightblue" points="73.72,-173.41 84.13,-171.44 74.76,-166.49 73.72,-173.41"/>
</g>
<!-- Node16&#45;&gt;Node6 -->
<g id="edge20" class="edge">
<title>Node16&#45;&gt;Node6</title>
<path fill="none" stroke="midnightblue" d="M1147.49,-567.41C1181.86,-556.81 1223.17,-542.29 1245.41,-532.51"/>
<polygon fill="midnightblue" stroke="midnightblue" points="1146.1,-564.17 1137.54,-570.42 1148.13,-570.87 1146.1,-564.17"/>
</g>
<!-- Node17&#45;&gt;Node6 -->
<g id="edge36" class="edge">
<title>Node17&#45;&gt;Node6</title>
<path fill="none" stroke="midnightblue" d="M2642.17,-629.09C2568.69,-640.31 2447.02,-656 2341.5,-656 2341.5,-656 2341.5,-656 1604.5,-656 1468.51,-656 1321.59,-563.06 1277.04,-532.57"/>
<polygon fill="midnightblue" stroke="midnightblue" points="2642.86,-632.53 2652.21,-627.54 2641.8,-625.61 2642.86,-632.53"/>
</g>
<!-- Node17&#45;&gt;Node18 -->
<g id="edge23" class="edge">
<title>Node17&#45;&gt;Node18</title>
<path fill="none" stroke="midnightblue" d="M2686.47,-602.22C2646.94,-574.54 2566.24,-518.03 2534.13,-495.54"/>
<polygon fill="midnightblue" stroke="midnightblue" points="2684.94,-605.42 2695.14,-608.29 2688.96,-599.69 2684.94,-605.42"/>
</g>
<!-- Node18&#45;&gt;Node4 -->
<g id="edge25" class="edge">
<title>Node18&#45;&gt;Node4</title>
<path fill="none" stroke="midnightblue" d="M2437.65,-482.54C2260.43,-474.96 1840.42,-457 1675.08,-449.93"/>
<polygon fill="midnightblue" stroke="midnightblue" points="2437.56,-486.04 2447.7,-482.97 2437.85,-479.05 2437.56,-486.04"/>
</g>
<!-- Node18&#45;&gt;Node18 -->
<g id="edge24" class="edge">
<title>Node18&#45;&gt;Node18</title>
<path fill="none" stroke="midnightblue" d="M2552.86,-503.89C2552.37,-509.54 2541.25,-514 2519.5,-514 2487.86,-514 2478.72,-504.57 2492.07,-495.76"/>
<polygon fill="midnightblue" stroke="midnightblue" points="2555.65,-501.78 2546.93,-495.76 2549.99,-505.9 2555.65,-501.78"/>
</g>
<!-- Node18&#45;&gt;Node19 -->
<g id="edge26" class="edge">
<title>Node18&#45;&gt;Node19</title>
<path fill="none" stroke="midnightblue" d="M2478.43,-498.68C2445.97,-508.95 2400.95,-523.19 2371.53,-532.5"/>
<polygon fill="midnightblue" stroke="midnightblue" points="2479.59,-501.98 2488.07,-495.63 2477.48,-495.31 2479.59,-501.98"/>
</g>
<!-- Node19&#45;&gt;Node20 -->
<g id="edge27" class="edge">
<title>Node19&#45;&gt;Node20</title>
<path fill="none" stroke="midnightblue" d="M2261.65,-550.02C2253.2,-550.89 2244.59,-551.77 2236.11,-552.65"/>
<polygon fill="midnightblue" stroke="midnightblue" points="2262.26,-553.47 2271.85,-548.97 2261.54,-546.51 2262.26,-553.47"/>
</g>
<!-- Node20&#45;&gt;Node21 -->
<g id="edge28" class="edge">
<title>Node20&#45;&gt;Node21</title>
<path fill="none" stroke="midnightblue" d="M2061.81,-561C2053.17,-561 2044.53,-561 2036.19,-561"/>
<polygon fill="midnightblue" stroke="midnightblue" points="2061.93,-564.5 2071.93,-561 2061.93,-557.5 2061.93,-564.5"/>
</g>
<!-- Node21&#45;&gt;Node3 -->
<g id="edge29" class="edge">
<title>Node21&#45;&gt;Node3</title>
<path fill="none" stroke="midnightblue" d="M1942.52,-546.5C1922.22,-535.32 1892.85,-519.96 1866,-509 1852.6,-503.53 1837.46,-498.54 1824.21,-494.55"/>
<polygon fill="midnightblue" stroke="midnightblue" points="1941,-549.66 1951.44,-551.47 1944.41,-543.54 1941,-549.66"/>
</g>
<!-- Node21&#45;&gt;Node7 -->
<g id="edge32" class="edge">
<title>Node21&#45;&gt;Node7</title>
<path fill="none" stroke="midnightblue" d="M1912.54,-549.52C1897.49,-546.72 1881.17,-543.96 1866,-542 1603.59,-508.02 1288.41,-492.66 1155.09,-487.33"/>
<polygon fill="midnightblue" stroke="midnightblue" points="1912.25,-553.02 1922.73,-551.45 1913.56,-546.15 1912.25,-553.02"/>
</g>
<!-- Node21&#45;&gt;Node16 -->
<g id="edge35" class="edge">
<title>Node21&#45;&gt;Node16</title>
<path fill="none" stroke="midnightblue" d="M1912.76,-572.45C1897.65,-575.26 1881.24,-578.03 1866,-580 1751.31,-594.83 1722.14,-599 1606.5,-599 1606.5,-599 1606.5,-599 1429.5,-599 1337.99,-599 1232.79,-592.01 1164.17,-586.51"/>
<polygon fill="midnightblue" stroke="midnightblue" points="1913.81,-575.81 1922.98,-570.5 1912.5,-568.93 1913.81,-575.81"/>
</g>
<!-- Node21&#45;&gt;Node17 -->
<g id="edge30" class="edge">
<title>Node21&#45;&gt;Node17</title>
<path fill="none" stroke="midnightblue" d="M2025.24,-572.48C2040.35,-575.29 2056.76,-578.05 2072,-580 2277.23,-606.21 2522.02,-614.4 2639.43,-616.92"/>
<polygon fill="midnightblue" stroke="midnightblue" points="2025.49,-568.97 2015.02,-570.53 2024.18,-575.84 2025.49,-568.97"/>
</g>
<!-- Node21&#45;&gt;Node18 -->
<g id="edge31" class="edge">
<title>Node21&#45;&gt;Node18</title>
<path fill="none" stroke="midnightblue" d="M2028.12,-549.56C2042.44,-546.91 2057.75,-544.22 2072,-542 2204.39,-521.39 2359.78,-503.26 2447.95,-493.54"/>
<polygon fill="midnightblue" stroke="midnightblue" points="2027.08,-546.19 2017.9,-551.47 2028.37,-553.07 2027.08,-546.19"/>
</g>
<!-- Node21&#45;&gt;Node22 -->
<g id="edge33" class="edge">
<title>Node21&#45;&gt;Node22</title>
<path fill="none" stroke="midnightblue" d="M1891.62,-561C1882.88,-561 1873.97,-561 1865.24,-561"/>
<polygon fill="midnightblue" stroke="midnightblue" points="1891.79,-564.5 1901.79,-561 1891.79,-557.5 1891.79,-564.5"/>
</g>
<!-- Node22&#45;&gt;Node6 -->
<g id="edge34" class="edge">
<title>Node22&#45;&gt;Node6</title>
<path fill="none" stroke="midnightblue" d="M1701.85,-554.79C1596.03,-547.11 1418.56,-534.24 1325.2,-527.47"/>
<polygon fill="midnightblue" stroke="midnightblue" points="1701.64,-558.28 1711.87,-555.52 1702.14,-551.3 1701.64,-558.28"/>
</g>
<!-- Node23&#45;&gt;Node24 -->
<g id="edge39" class="edge">
<title>Node23&#45;&gt;Node24</title>
<path fill="none" stroke="midnightblue" d="M2684.56,-100.78C2645.3,-124.52 2569.26,-170.51 2536.33,-190.42"/>
<polygon fill="midnightblue" stroke="midnightblue" points="2686.51,-103.69 2693.25,-95.52 2682.88,-97.7 2686.51,-103.69"/>
</g>
<!-- Node24&#45;&gt;Node10 -->
<g id="edge40" class="edge">
<title>Node24&#45;&gt;Node10</title>
<path fill="none" stroke="midnightblue" d="M2436.29,-200C2362.61,-200 2251.59,-200 2155,-200 2155,-200 2155,-200 1088.5,-200 977.77,-200 849.36,-192.08 772.24,-186.47"/>
<polygon fill="midnightblue" stroke="midnightblue" points="2436.43,-203.5 2446.43,-200 2436.43,-196.5 2436.43,-203.5"/>
</g>
<!-- Node25&#45;&gt;Node11 -->
<g id="edge55" class="edge">
<title>Node25&#45;&gt;Node11</title>
<path fill="none" stroke="midnightblue" d="M2434.55,-124C2360.88,-124 2250.83,-124 2155,-124 2155,-124 2155,-124 892.5,-124 789.79,-124 671.11,-124 596.07,-124"/>
<polygon fill="midnightblue" stroke="midnightblue" points="2434.7,-127.5 2444.7,-124 2434.7,-120.5 2434.7,-127.5"/>
</g>
<!-- Node25&#45;&gt;Node26 -->
<g id="edge56" class="edge">
<title>Node25&#45;&gt;Node26</title>
<path fill="none" stroke="midnightblue" d="M2463.76,-135.75C2438.73,-141.13 2409.47,-147.41 2385.84,-152.48"/>
<polygon fill="midnightblue" stroke="midnightblue" points="2464.79,-139.11 2473.84,-133.59 2463.32,-132.27 2464.79,-139.11"/>
</g>
<!-- Node26&#45;&gt;Node10 -->
<g id="edge57" class="edge">
<title>Node26&#45;&gt;Node10</title>
<path fill="none" stroke="midnightblue" d="M2262.49,-162C2187.74,-162 2071.09,-162 1970,-162 1970,-162 1970,-162 1088.5,-162 977.77,-162 849.36,-169.92 772.24,-175.53"/>
<polygon fill="midnightblue" stroke="midnightblue" points="2262.75,-165.5 2272.75,-162 2262.75,-158.5 2262.75,-165.5"/>
</g>
<!-- Node27&#45;&gt;Node3 -->
<g id="edge59" class="edge">
<title>Node27&#45;&gt;Node3</title>
<path fill="none" stroke="midnightblue" d="M2624.6,-465.81C2572.77,-465.82 2505.04,-466.06 2445,-467 2235.55,-470.27 1988.55,-478.14 1866.18,-482.31"/>
<polygon fill="midnightblue" stroke="midnightblue" points="2624.74,-469.31 2634.74,-465.81 2624.74,-462.31 2624.74,-469.31"/>
</g>
<!-- Node27&#45;&gt;Node18 -->
<g id="edge60" class="edge">
<title>Node27&#45;&gt;Node18</title>
<path fill="none" stroke="midnightblue" d="M2624.61,-474.95C2613.48,-476.14 2602.15,-477.34 2591.28,-478.49"/>
<polygon fill="midnightblue" stroke="midnightblue" points="2625.2,-478.41 2634.77,-473.88 2624.46,-471.45 2625.2,-478.41"/>
</g>
<!-- Node28&#45;&gt;Node18 -->
<g id="edge65" class="edge">
<title>Node28&#45;&gt;Node18</title>
<path fill="none" stroke="midnightblue" d="M2861.39,-253.43C2793.08,-300.03 2590.13,-438.5 2534.65,-476.35"/>
<polygon fill="midnightblue" stroke="midnightblue" points="2863.46,-256.25 2869.75,-247.72 2859.52,-250.47 2863.46,-256.25"/>
</g>
<!-- Node28&#45;&gt;Node23 -->
<g id="edge64" class="edge">
<title>Node28&#45;&gt;Node23</title>
<path fill="none" stroke="midnightblue" d="M2875.17,-219.22C2861.08,-191.28 2830.88,-138.95 2790,-110 2781.11,-103.7 2770.53,-99.03 2760.06,-95.57"/>
<polygon fill="midnightblue" stroke="midnightblue" points="2872.08,-220.88 2879.62,-228.33 2878.37,-217.8 2872.08,-220.88"/>
</g>
<!-- Node29 -->
<g id="node29" class="node">
<title>Node29</title>
<g id="a_node29"><a xlink:href="../../d0/dfe/class_syntax_analyzer.html#a5d262eb9e2236dde3bd043eea0b0e957" target="_top" xlink:title=" ">
<polygon fill="none" stroke="black" points="2631,-0.5 2631,-19.5 2789,-19.5 2789,-0.5 2631,-0.5"/>
<text text-anchor="middle" x="2710" y="-7.5" font-family="Helvetica,sans-Serif" font-size="10.00">SyntaxAnalyzer::syntaxTypeSpec</text>
</a>
</g>
</g>
<!-- Node28&#45;&gt;Node29 -->
<g id="edge66" class="edge">
<title>Node28&#45;&gt;Node29</title>
<path fill="none" stroke="midnightblue" d="M2880.49,-218.24C2872.24,-177.62 2847.77,-84.36 2790,-34 2782.76,-27.69 2773.9,-23.04 2764.76,-19.61"/>
<polygon fill="midnightblue" stroke="midnightblue" points="2877.08,-219.05 2882.4,-228.22 2883.96,-217.74 2877.08,-219.05"/>
</g>
<!-- Node29&#45;&gt;Node11 -->
<g id="edge67" class="edge">
<title>Node29&#45;&gt;Node11</title>
<path fill="none" stroke="midnightblue" d="M2620.59,-10C2546.15,-10 2436.86,-10 2341.5,-10 2341.5,-10 2341.5,-10 892.5,-10 776.23,-10 739.69,9.84 632,-34 587.19,-52.24 546.24,-94.91 529.27,-114.21"/>
<polygon fill="midnightblue" stroke="midnightblue" points="2620.86,-13.5 2630.86,-10 2620.86,-6.5 2620.86,-13.5"/>
</g>
<!-- Node29&#45;&gt;Node25 -->
<g id="edge68" class="edge">
<title>Node29&#45;&gt;Node25</title>
<path fill="none" stroke="midnightblue" d="M2684.56,-24.78C2645.3,-48.52 2569.26,-94.51 2536.33,-114.42"/>
<polygon fill="midnightblue" stroke="midnightblue" points="2686.51,-27.69 2693.25,-19.52 2682.88,-21.7 2686.51,-27.69"/>
</g>
</g>
</svg>
