<?xml version="1.0" encoding="UTF-8" standalone="no"?>
<!DOCTYPE svg PUBLIC "-//W3C//DTD SVG 1.1//EN"
 "http://www.w3.org/Graphics/SVG/1.1/DTD/svg11.dtd">
<!-- Generated by graphviz version 3.0.0 (20220413.0106)
 -->
<!-- Title: SyntaxAnalyzer::syntaxBlock Pages: 1 -->
<svg width="2150pt" height="1376pt"
 viewBox="0.00 0.00 2150.00 1376.42" xmlns="http://www.w3.org/2000/svg" xmlns:xlink="http://www.w3.org/1999/xlink">
<g id="graph0" class="graph" transform="scale(1 1) rotate(0) translate(4 1372.42)">
<title>SyntaxAnalyzer::syntaxBlock</title>
<!-- Node1 -->
<g id="node1" class="node">
<title>Node1</title>
<g id="a_node1"><a xlink:title=" ">
<polygon fill="#bfbfbf" stroke="black" points="0,-1049.33 0,-1068.33 140,-1068.33 140,-1049.33 0,-1049.33"/>
<text text-anchor="middle" x="70" y="-1056.33" font-family="Helvetica,sans-Serif" font-size="10.00">SyntaxAnalyzer::syntaxBlock</text>
</a>
</g>
</g>
<!-- Node2 -->
<g id="node2" class="node">
<title>Node2</title>
<g id="a_node2"><a xlink:href="../../d0/dfe/class_syntax_analyzer.html#a2c0c19bfe9775405a5b6985cf1c8854c" target="_top" xlink:title=" ">
<polygon fill="none" stroke="black" points="176,-1049.33 176,-1068.33 347,-1068.33 347,-1049.33 176,-1049.33"/>
<text text-anchor="middle" x="261.5" y="-1056.33" font-family="Helvetica,sans-Serif" font-size="10.00">SyntaxAnalyzer::syntaxCompoundSt</text>
</a>
</g>
</g>
<!-- Node1&#45;&gt;Node2 -->
<g id="edge1" class="edge">
<title>Node1&#45;&gt;Node2</title>
<path fill="none" stroke="midnightblue" d="M140.22,-1058.83C148.58,-1058.83 157.22,-1058.83 165.87,-1058.83"/>
<polygon fill="midnightblue" stroke="midnightblue" points="166,-1062.34 176,-1058.83 166,-1055.34 166,-1062.34"/>
</g>
<!-- Node26 -->
<g id="node26" class="node">
<title>Node26</title>
<g id="a_node26"><a xlink:href="../../d0/dfe/class_syntax_analyzer.html#a9dc26002a15e26254df5a115511b872c" target="_top" xlink:title=" ">
<polygon fill="none" stroke="black" points="1091,-441.33 1091,-460.33 1237,-460.33 1237,-441.33 1091,-441.33"/>
<text text-anchor="middle" x="1164" y="-448.33" font-family="Helvetica,sans-Serif" font-size="10.00">SyntaxAnalyzer::syntaxConsts</text>
</a>
</g>
</g>
<!-- Node1&#45;&gt;Node26 -->
<g id="edge63" class="edge">
<title>Node1&#45;&gt;Node26</title>
<path fill="none" stroke="midnightblue" d="M72.41,-1049.19C87.71,-946.14 226.99,-51.83 452.5,-51.83 452.5,-51.83 452.5,-51.83 799.5,-51.83 1007.13,-51.83 1127.66,-350.75 1156.31,-431.13"/>
<polygon fill="midnightblue" stroke="midnightblue" points="1153.15,-432.68 1159.75,-440.97 1159.76,-430.38 1153.15,-432.68"/>
</g>
<!-- Node28 -->
<g id="node28" class="node">
<title>Node28</title>
<g id="a_node28"><a xlink:href="../../d0/dfe/class_syntax_analyzer.html#a31a844667194ddf21425e3c2e6f2a007" target="_top" xlink:title=" ">
<polygon fill="none" stroke="black" points="1294.5,-1220.33 1294.5,-1239.33 1429.5,-1239.33 1429.5,-1220.33 1294.5,-1220.33"/>
<text text-anchor="middle" x="1362" y="-1227.33" font-family="Helvetica,sans-Serif" font-size="10.00">SyntaxAnalyzer::syntaxVars</text>
</a>
</g>
</g>
<!-- Node1&#45;&gt;Node28 -->
<g id="edge70" class="edge">
<title>Node1&#45;&gt;Node28</title>
<path fill="none" stroke="midnightblue" d="M84.09,-1068.34C131.25,-1101.62 297.79,-1210.83 452.5,-1210.83 452.5,-1210.83 452.5,-1210.83 980,-1210.83 1085.53,-1210.83 1207.3,-1218.2 1284.21,-1223.75"/>
<polygon fill="midnightblue" stroke="midnightblue" points="1284.06,-1227.25 1294.29,-1224.49 1284.57,-1220.27 1284.06,-1227.25"/>
</g>
<!-- Node3 -->
<g id="node3" class="node">
<title>Node3</title>
<g id="a_node3"><a xlink:href="../../da/dbb/class_compound_a_s_t.html#a596c1d112edc624fe50ed8a261ffd532" target="_top" xlink:title=" ">
<polygon fill="none" stroke="black" points="391,-1030.33 391,-1049.33 516,-1049.33 516,-1030.33 391,-1030.33"/>
<text text-anchor="middle" x="453.5" y="-1037.33" font-family="Helvetica,sans-Serif" font-size="10.00">CompoundAST::addChild</text>
</a>
</g>
</g>
<!-- Node2&#45;&gt;Node3 -->
<g id="edge2" class="edge">
<title>Node2&#45;&gt;Node3</title>
<path fill="none" stroke="midnightblue" d="M347.22,-1050.36C358.32,-1049.25 369.61,-1048.12 380.47,-1047.04"/>
<polygon fill="midnightblue" stroke="midnightblue" points="381.13,-1050.49 390.73,-1046.01 380.43,-1043.52 381.13,-1050.49"/>
</g>
<!-- Node4 -->
<g id="node4" class="node">
<title>Node4</title>
<g id="a_node4"><a xlink:href="../../d0/dfe/class_syntax_analyzer.html#a5d17bcae2fd7dc11d0710e046c4c3280" target="_top" xlink:title=" ">
<polygon fill="none" stroke="black" points="1857,-897.33 1857,-916.33 1958,-916.33 1958,-897.33 1857,-897.33"/>
<text text-anchor="middle" x="1907.5" y="-904.33" font-family="Helvetica,sans-Serif" font-size="10.00">SyntaxAnalyzer::eat</text>
</a>
</g>
</g>
<!-- Node2&#45;&gt;Node4 -->
<g id="edge3" class="edge">
<title>Node2&#45;&gt;Node4</title>
<path fill="none" stroke="midnightblue" d="M286.03,-1068.37C309.98,-1077.57 348.4,-1090.94 383,-1096.83 643.82,-1141.26 713.42,-1115.83 978,-1115.83 978,-1115.83 978,-1115.83 1553.5,-1115.83 1673.71,-1115.83 1723.54,-1146.21 1821,-1075.83 1871.99,-1039.01 1894.52,-962.85 1902.65,-926.71"/>
<polygon fill="midnightblue" stroke="midnightblue" points="1906.17,-926.99 1904.8,-916.48 1899.32,-925.54 1906.17,-926.99"/>
</g>
<!-- Node7 -->
<g id="node7" class="node">
<title>Node7</title>
<g id="a_node7"><a xlink:href="../../d0/dfe/class_syntax_analyzer.html#a79a0e444afd499634f445f0b8919dd0f" target="_top" xlink:title=" ">
<polygon fill="none" stroke="black" points="383,-1068.33 383,-1087.33 524,-1087.33 524,-1068.33 383,-1068.33"/>
<text text-anchor="middle" x="453.5" y="-1075.33" font-family="Helvetica,sans-Serif" font-size="10.00">SyntaxAnalyzer::syntaxStList</text>
</a>
</g>
</g>
<!-- Node2&#45;&gt;Node7 -->
<g id="edge6" class="edge">
<title>Node2&#45;&gt;Node7</title>
<path fill="none" stroke="midnightblue" d="M347.22,-1067.31C355.66,-1068.15 364.21,-1069.01 372.61,-1069.85"/>
<polygon fill="midnightblue" stroke="midnightblue" points="372.44,-1073.35 382.74,-1070.86 373.14,-1066.38 372.44,-1073.35"/>
</g>
<!-- Node5 -->
<g id="node5" class="node">
<title>Node5</title>
<g id="a_node5"><a xlink:href="../../d0/dfe/class_syntax_analyzer.html#a3ae6c7319e61cd669c417f189b098374" target="_top" xlink:title=" ">
<polygon fill="none" stroke="black" points="2002,-650.33 2002,-669.33 2134,-669.33 2134,-650.33 2002,-650.33"/>
<text text-anchor="middle" x="2068" y="-657.33" font-family="Helvetica,sans-Serif" font-size="10.00">SyntaxAnalyzer::getCurTok</text>
</a>
</g>
</g>
<!-- Node4&#45;&gt;Node5 -->
<g id="edge4" class="edge">
<title>Node4&#45;&gt;Node5</title>
<path fill="none" stroke="midnightblue" d="M1914.71,-897.15C1938.48,-860.11 2023.89,-727.01 2055.3,-678.06"/>
<polygon fill="midnightblue" stroke="midnightblue" points="2058.37,-679.76 2060.83,-669.45 2052.48,-675.98 2058.37,-679.76"/>
</g>
<!-- Node6 -->
<g id="node6" class="node">
<title>Node6</title>
<g id="a_node6"><a xlink:href="../../d0/dfe/class_syntax_analyzer.html#a9e41370d8d74fbd2e77648d2071e7dfe" target="_top" xlink:title=" ">
<polygon fill="none" stroke="black" points="1994,-897.33 1994,-916.33 2142,-916.33 2142,-897.33 1994,-897.33"/>
<text text-anchor="middle" x="2068" y="-904.33" font-family="Helvetica,sans-Serif" font-size="10.00">SyntaxAnalyzer::getNextToken</text>
</a>
</g>
</g>
<!-- Node4&#45;&gt;Node6 -->
<g id="edge5" class="edge">
<title>Node4&#45;&gt;Node6</title>
<path fill="none" stroke="midnightblue" d="M1958.22,-906.83C1966.37,-906.83 1975.02,-906.83 1983.72,-906.83"/>
<polygon fill="midnightblue" stroke="midnightblue" points="1983.95,-910.34 1993.95,-906.83 1983.95,-903.34 1983.95,-910.34"/>
</g>
<!-- Node7&#45;&gt;Node4 -->
<g id="edge7" class="edge">
<title>Node7&#45;&gt;Node4</title>
<path fill="none" stroke="midnightblue" d="M524.13,-1077.83C593.43,-1077.83 702.82,-1077.83 797.5,-1077.83 797.5,-1077.83 797.5,-1077.83 1553.5,-1077.83 1673.58,-1077.83 1719.92,-1104.66 1821,-1039.83 1863.39,-1012.65 1888.94,-956.12 1900.01,-926.27"/>
<polygon fill="midnightblue" stroke="midnightblue" points="1903.4,-927.17 1903.44,-916.58 1896.8,-924.84 1903.4,-927.17"/>
</g>
<!-- Node7&#45;&gt;Node5 -->
<g id="edge8" class="edge">
<title>Node7&#45;&gt;Node5</title>
<path fill="none" stroke="midnightblue" d="M493.29,-1087.38C579.74,-1107.8 795.01,-1153.83 978,-1153.83 978,-1153.83 978,-1153.83 1743,-1153.83 1882.28,-1153.83 1890.09,-1047.44 1958,-925.83 2007.01,-838.08 2046.37,-723.77 2060.93,-679"/>
<polygon fill="midnightblue" stroke="midnightblue" points="2064.29,-679.99 2064.01,-669.4 2057.62,-677.85 2064.29,-679.99"/>
</g>
<!-- Node8 -->
<g id="node8" class="node">
<title>Node8</title>
<g id="a_node8"><a xlink:href="../../d0/dfe/class_syntax_analyzer.html#affae37bc1fa3a4016dcffad4affbfcbd" target="_top" xlink:title=" ">
<polygon fill="none" stroke="black" points="560,-916.33 560,-935.33 685,-935.33 685,-916.33 560,-916.33"/>
<text text-anchor="middle" x="622.5" y="-923.33" font-family="Helvetica,sans-Serif" font-size="10.00">SyntaxAnalyzer::syntaxSt</text>
</a>
</g>
</g>
<!-- Node7&#45;&gt;Node8 -->
<g id="edge9" class="edge">
<title>Node7&#45;&gt;Node8</title>
<path fill="none" stroke="midnightblue" d="M505.27,-1068.3C511.89,-1065.83 518.33,-1062.73 524,-1058.83 567.26,-1029.08 598.57,-973.71 612.86,-944.69"/>
<polygon fill="midnightblue" stroke="midnightblue" points="616.04,-946.14 617.19,-935.61 609.72,-943.12 616.04,-946.14"/>
</g>
<!-- Node8&#45;&gt;Node2 -->
<g id="edge52" class="edge">
<title>Node8&#45;&gt;Node2</title>
<path fill="none" stroke="midnightblue" d="M595.43,-935.49C532.06,-958.97 369.87,-1019.06 297.86,-1045.73"/>
<polygon fill="midnightblue" stroke="midnightblue" points="296.48,-1042.51 288.32,-1049.27 298.91,-1049.08 296.48,-1042.51"/>
</g>
<!-- Node8&#45;&gt;Node4 -->
<g id="edge10" class="edge">
<title>Node8&#45;&gt;Node4</title>
<path fill="none" stroke="midnightblue" d="M629.88,-935.6C643.69,-955.77 678.55,-1001.72 721,-1020.83 825.43,-1067.86 863.47,-1039.83 978,-1039.83 978,-1039.83 978,-1039.83 1553.5,-1039.83 1673.29,-1039.83 1715.48,-1063.54 1821,-1006.83 1855.86,-988.1 1882.7,-948.93 1896.4,-925.55"/>
<polygon fill="midnightblue" stroke="midnightblue" points="1899.58,-927.04 1901.46,-916.61 1893.49,-923.59 1899.58,-927.04"/>
</g>
<!-- Node8&#45;&gt;Node5 -->
<g id="edge11" class="edge">
<title>Node8&#45;&gt;Node5</title>
<path fill="none" stroke="midnightblue" d="M623.32,-916.16C621.99,-835.18 616.54,-270.47 721,-146.83 853.4,9.87 957.85,-13.83 1163,-13.83 1163,-13.83 1163,-13.83 1743,-13.83 1839.1,-13.83 1887.82,28.82 1958,-36.83 2048.73,-121.71 2064.23,-543.36 2066.6,-640.05"/>
<polygon fill="midnightblue" stroke="midnightblue" points="2063.11,-640.27 2066.83,-650.19 2070.1,-640.11 2063.11,-640.27"/>
</g>
<!-- Node9 -->
<g id="node9" class="node">
<title>Node9</title>
<g id="a_node9"><a xlink:href="../../d0/dfe/class_syntax_analyzer.html#af0905389742c4f842207bb2c073afbfa" target="_top" xlink:title=" ">
<polygon fill="none" stroke="black" points="1673.5,-194.33 1673.5,-213.33 1810.5,-213.33 1810.5,-194.33 1673.5,-194.33"/>
<text text-anchor="middle" x="1742" y="-201.33" font-family="Helvetica,sans-Serif" font-size="10.00">SyntaxAnalyzer::lookFoward</text>
</a>
</g>
</g>
<!-- Node8&#45;&gt;Node9 -->
<g id="edge12" class="edge">
<title>Node8&#45;&gt;Node9</title>
<path fill="none" stroke="midnightblue" d="M623.2,-916.32C620.92,-826.28 614.93,-127.83 978,-127.83 978,-127.83 978,-127.83 1165,-127.83 1359.3,-127.83 1587.33,-170.87 1688.31,-192.17"/>
<polygon fill="midnightblue" stroke="midnightblue" points="1687.75,-195.63 1698.26,-194.29 1689.21,-188.78 1687.75,-195.63"/>
</g>
<!-- Node11 -->
<g id="node11" class="node">
<title>Node11</title>
<g id="a_node11"><a xlink:href="../../d0/dfe/class_syntax_analyzer.html#ae57b60364b17a4772143fe9a6c3bc2c7" target="_top" xlink:title=" ">
<polygon fill="none" stroke="black" points="721,-726.33 721,-745.33 876,-745.33 876,-726.33 721,-726.33"/>
<text text-anchor="middle" x="798.5" y="-733.33" font-family="Helvetica,sans-Serif" font-size="10.00">SyntaxAnalyzer::syntaxAssignSt</text>
</a>
</g>
</g>
<!-- Node8&#45;&gt;Node11 -->
<g id="edge14" class="edge">
<title>Node8&#45;&gt;Node11</title>
<path fill="none" stroke="midnightblue" d="M632.37,-916.15C660.17,-885.79 745.89,-792.19 781.62,-753.18"/>
<polygon fill="midnightblue" stroke="midnightblue" points="784.27,-755.47 788.44,-745.73 779.11,-750.74 784.27,-755.47"/>
</g>
<!-- Node21 -->
<g id="node21" class="node">
<title>Node21</title>
<g id="a_node21"><a xlink:href="../../d0/dfe/class_syntax_analyzer.html#a9321de68e44f3918a71256a3c1cd481b" target="_top" xlink:title=" ">
<polygon fill="none" stroke="black" points="1671.5,-764.33 1671.5,-783.33 1812.5,-783.33 1812.5,-764.33 1671.5,-764.33"/>
<text text-anchor="middle" x="1742" y="-771.33" font-family="Helvetica,sans-Serif" font-size="10.00">SyntaxAnalyzer::syntaxCallSt</text>
</a>
</g>
</g>
<!-- Node8&#45;&gt;Node21 -->
<g id="edge51" class="edge">
<title>Node8&#45;&gt;Node21</title>
<path fill="none" stroke="midnightblue" d="M663.09,-935.35C680.71,-939.11 701.77,-942.98 721,-944.83 789.57,-951.45 807.44,-951.55 876,-944.83 1194.18,-913.69 1568.9,-819.55 1696.15,-785.93"/>
<polygon fill="midnightblue" stroke="midnightblue" points="1697.17,-789.28 1705.94,-783.34 1695.38,-782.52 1697.17,-789.28"/>
</g>
<!-- Node23 -->
<g id="node23" class="node">
<title>Node23</title>
<g id="a_node23"><a xlink:href="../../d0/dfe/class_syntax_analyzer.html#a22a01f23b6ce49e9cdded69dd21f3935" target="_top" xlink:title=" ">
<polygon fill="none" stroke="black" points="722.5,-992.33 722.5,-1011.33 874.5,-1011.33 874.5,-992.33 722.5,-992.33"/>
<text text-anchor="middle" x="798.5" y="-999.33" font-family="Helvetica,sans-Serif" font-size="10.00">SyntaxAnalyzer::syntaxEmptySt</text>
</a>
</g>
</g>
<!-- Node8&#45;&gt;Node23 -->
<g id="edge53" class="edge">
<title>Node8&#45;&gt;Node23</title>
<path fill="none" stroke="midnightblue" d="M639.27,-935.43C658.19,-946.65 691.1,-965.3 721,-977.83 731.02,-982.04 742.04,-985.91 752.52,-989.26"/>
<polygon fill="midnightblue" stroke="midnightblue" points="751.77,-992.69 762.36,-992.3 753.84,-986 751.77,-992.69"/>
</g>
<!-- Node24 -->
<g id="node24" class="node">
<title>Node24</title>
<g id="a_node24"><a xlink:href="../../d0/dfe/class_syntax_analyzer.html#addd3ca96f66a5261f904e2e0c78a898a" target="_top" xlink:title=" ">
<polygon fill="none" stroke="black" points="733,-916.33 733,-935.33 864,-935.33 864,-916.33 733,-916.33"/>
<text text-anchor="middle" x="798.5" y="-923.33" font-family="Helvetica,sans-Serif" font-size="10.00">SyntaxAnalyzer::syntaxIfSt</text>
</a>
</g>
</g>
<!-- Node8&#45;&gt;Node24 -->
<g id="edge54" class="edge">
<title>Node8&#45;&gt;Node24</title>
<path fill="none" stroke="midnightblue" d="M685.34,-919.34C697.39,-919.09 710.16,-919.02 722.58,-919.14"/>
<polygon fill="midnightblue" stroke="midnightblue" points="722.87,-922.65 732.92,-919.29 722.97,-915.65 722.87,-922.65"/>
</g>
<!-- Node25 -->
<g id="node25" class="node">
<title>Node25</title>
<g id="a_node25"><a xlink:href="../../d0/dfe/class_syntax_analyzer.html#a35bb1125afde4b827a0dd8f3bce8dc58" target="_top" xlink:title=" ">
<polygon fill="none" stroke="black" points="724,-878.33 724,-897.33 873,-897.33 873,-878.33 724,-878.33"/>
<text text-anchor="middle" x="798.5" y="-885.33" font-family="Helvetica,sans-Serif" font-size="10.00">SyntaxAnalyzer::syntaxWhileSt</text>
</a>
</g>
</g>
<!-- Node8&#45;&gt;Node25 -->
<g id="edge59" class="edge">
<title>Node8&#45;&gt;Node25</title>
<path fill="none" stroke="midnightblue" d="M645.89,-916.24C663.39,-910.99 688.89,-904.74 713.99,-899.33"/>
<polygon fill="midnightblue" stroke="midnightblue" points="714.89,-902.71 723.95,-897.22 713.44,-895.87 714.89,-902.71"/>
</g>
<!-- Node10 -->
<g id="node10" class="node">
<title>Node10</title>
<g id="a_node10"><a xlink:href="../../d1/d34/class_list.html#a49c179636e084dfbf7a52acd46acaf01" target="_top" xlink:title=" ">
<polygon fill="none" stroke="black" points="1880,-194.33 1880,-213.33 1935,-213.33 1935,-194.33 1880,-194.33"/>
<text text-anchor="middle" x="1907.5" y="-201.33" font-family="Helvetica,sans-Serif" font-size="10.00">List::size</text>
</a>
</g>
</g>
<!-- Node9&#45;&gt;Node10 -->
<g id="edge13" class="edge">
<title>Node9&#45;&gt;Node10</title>
<path fill="none" stroke="midnightblue" d="M1810.92,-203.83C1830.97,-203.83 1852.17,-203.83 1869.49,-203.83"/>
<polygon fill="midnightblue" stroke="midnightblue" points="1869.73,-207.34 1879.73,-203.83 1869.73,-200.34 1869.73,-207.34"/>
</g>
<!-- Node11&#45;&gt;Node4 -->
<g id="edge15" class="edge">
<title>Node11&#45;&gt;Node4</title>
<path fill="none" stroke="midnightblue" d="M840.1,-745.36C963.14,-773.76 1343.04,-858.12 1663,-893.83 1725.45,-900.81 1797.35,-904.06 1846.74,-905.57"/>
<polygon fill="midnightblue" stroke="midnightblue" points="1846.83,-909.07 1856.93,-905.87 1847.03,-902.08 1846.83,-909.07"/>
</g>
<!-- Node11&#45;&gt;Node5 -->
<g id="edge16" class="edge">
<title>Node11&#45;&gt;Node5</title>
<path fill="none" stroke="midnightblue" d="M800.99,-726.13C811.08,-663.77 875.54,-316.95 1082,-161.83 1253.35,-33.1 1337.18,-51.83 1551.5,-51.83 1551.5,-51.83 1551.5,-51.83 1743,-51.83 1839.31,-51.83 1887.87,-12.83 1958,-78.83 2042.11,-158.01 2062.58,-547.19 2066.3,-639.96"/>
<polygon fill="midnightblue" stroke="midnightblue" points="2062.8,-640.11 2066.68,-649.97 2069.79,-639.85 2062.8,-640.11"/>
</g>
<!-- Node12 -->
<g id="node12" class="node">
<title>Node12</title>
<g id="a_node12"><a xlink:href="../../d0/dfe/class_syntax_analyzer.html#a53b0048490647d82a92a77ed1ffb013d" target="_top" xlink:title=" ">
<polygon fill="none" stroke="black" points="912,-726.33 912,-745.33 1046,-745.33 1046,-726.33 912,-726.33"/>
<text text-anchor="middle" x="979" y="-733.33" font-family="Helvetica,sans-Serif" font-size="10.00">SyntaxAnalyzer::syntaxExpr</text>
</a>
</g>
</g>
<!-- Node11&#45;&gt;Node12 -->
<g id="edge17" class="edge">
<title>Node11&#45;&gt;Node12</title>
<path fill="none" stroke="midnightblue" d="M876.24,-735.83C884.7,-735.83 893.32,-735.83 901.78,-735.83"/>
<polygon fill="midnightblue" stroke="midnightblue" points="901.99,-739.34 911.99,-735.83 901.99,-732.34 901.99,-739.34"/>
</g>
<!-- Node22 -->
<g id="node22" class="node">
<title>Node22</title>
<g id="a_node22"><a xlink:href="../../d0/dfe/class_syntax_analyzer.html#a8d3dc6feefe1957f1c81cbc7b8318559" target="_top" xlink:title=" ">
<polygon fill="none" stroke="black" points="1667,-384.33 1667,-403.33 1817,-403.33 1817,-384.33 1667,-384.33"/>
<text text-anchor="middle" x="1742" y="-391.33" font-family="Helvetica,sans-Serif" font-size="10.00">SyntaxAnalyzer::syntaxVariable</text>
</a>
</g>
</g>
<!-- Node11&#45;&gt;Node22 -->
<g id="edge50" class="edge">
<title>Node11&#45;&gt;Node22</title>
<path fill="none" stroke="midnightblue" d="M803.62,-726.16C824.6,-678.32 924.68,-465.99 1082,-383.83 1296.97,-271.57 1387.46,-318.94 1627,-356.83 1655.64,-361.37 1686.89,-371.93 1709.41,-380.62"/>
<polygon fill="midnightblue" stroke="midnightblue" points="1708.22,-383.91 1718.8,-384.32 1710.79,-377.4 1708.22,-383.91"/>
</g>
<!-- Node12&#45;&gt;Node4 -->
<g id="edge18" class="edge">
<title>Node12&#45;&gt;Node4</title>
<path fill="none" stroke="midnightblue" d="M1018.65,-745.41C1037.67,-750.01 1060.99,-755.45 1082,-759.83 1338.95,-813.47 1404.46,-820.49 1663,-865.83 1725.48,-876.79 1797.09,-888.78 1846.39,-896.95"/>
<polygon fill="midnightblue" stroke="midnightblue" points="1846.13,-900.45 1856.57,-898.63 1847.27,-893.55 1846.13,-900.45"/>
</g>
<!-- Node12&#45;&gt;Node5 -->
<g id="edge19" class="edge">
<title>Node12&#45;&gt;Node5</title>
<path fill="none" stroke="midnightblue" d="M979.79,-726.15C979.26,-678.01 982.65,-461.6 1082,-330.83 1223.9,-144.07 1316.95,-89.83 1551.5,-89.83 1551.5,-89.83 1551.5,-89.83 1743,-89.83 1839.81,-89.83 1888.2,-57.75 1958,-124.83 2034.44,-198.3 2060.52,-551.87 2065.88,-639.94"/>
<polygon fill="midnightblue" stroke="midnightblue" points="2062.39,-640.16 2066.47,-649.94 2069.38,-639.75 2062.39,-640.16"/>
</g>
<!-- Node13 -->
<g id="node13" class="node">
<title>Node13</title>
<g id="a_node13"><a xlink:href="../../d0/d11/class_i_token.html#a568cb9d98839eff3fd758f419a76b092" target="_top" xlink:title="Получение типа токена">
<polygon fill="none" stroke="black" points="1864.5,-346.33 1864.5,-365.33 1950.5,-365.33 1950.5,-346.33 1864.5,-346.33"/>
<text text-anchor="middle" x="1907.5" y="-353.33" font-family="Helvetica,sans-Serif" font-size="10.00">IToken::getType</text>
</a>
</g>
</g>
<!-- Node12&#45;&gt;Node13 -->
<g id="edge20" class="edge">
<title>Node12&#45;&gt;Node13</title>
<path fill="none" stroke="midnightblue" d="M982.5,-726.04C996.77,-670.3 1067.76,-395.31 1082,-383.83 1200.66,-288.19 1691.88,-332.22 1854.19,-349.79"/>
<polygon fill="midnightblue" stroke="midnightblue" points="1854.07,-353.3 1864.39,-350.91 1854.83,-346.34 1854.07,-353.3"/>
</g>
<!-- Node14 -->
<g id="node14" class="node">
<title>Node14</title>
<g id="a_node14"><a xlink:href="../../df/d3f/_syntax_8hpp.html#ae7d62ca130413d4c96863327c1af81a4" target="_top" xlink:title="Возвращает истину, если value находится среди значений cont.">
<polygon fill="none" stroke="black" points="1536.5,-650.33 1536.5,-669.33 1568.5,-669.33 1568.5,-650.33 1536.5,-650.33"/>
<text text-anchor="middle" x="1552.5" y="-657.33" font-family="Helvetica,sans-Serif" font-size="10.00">isIn</text>
</a>
</g>
</g>
<!-- Node12&#45;&gt;Node14 -->
<g id="edge21" class="edge">
<title>Node12&#45;&gt;Node14</title>
<path fill="none" stroke="midnightblue" d="M1046.12,-727.04C1172.37,-710.25 1442.68,-674.31 1526.31,-663.18"/>
<polygon fill="midnightblue" stroke="midnightblue" points="1526.97,-666.63 1536.42,-661.84 1526.05,-659.69 1526.97,-666.63"/>
</g>
<!-- Node15 -->
<g id="node15" class="node">
<title>Node15</title>
<g id="a_node15"><a xlink:href="../../d0/dfe/class_syntax_analyzer.html#a920d9565d4aa2e3815ff9e7146f45a0b" target="_top" xlink:title=" ">
<polygon fill="none" stroke="black" points="1082,-631.33 1082,-650.33 1246,-650.33 1246,-631.33 1082,-631.33"/>
<text text-anchor="middle" x="1164" y="-638.33" font-family="Helvetica,sans-Serif" font-size="10.00">SyntaxAnalyzer::syntaxSimpleExpr</text>
</a>
</g>
</g>
<!-- Node12&#45;&gt;Node15 -->
<g id="edge22" class="edge">
<title>Node12&#45;&gt;Node15</title>
<path fill="none" stroke="midnightblue" d="M998.55,-726.2C1030.97,-709.37 1098.06,-674.55 1135.76,-654.98"/>
<polygon fill="midnightblue" stroke="midnightblue" points="1137.41,-658.06 1144.67,-650.35 1134.18,-651.85 1137.41,-658.06"/>
</g>
<!-- Node15&#45;&gt;Node4 -->
<g id="edge23" class="edge">
<title>Node15&#45;&gt;Node4</title>
<path fill="none" stroke="midnightblue" d="M1188.09,-650.34C1258.57,-679.19 1477.42,-767.5 1663,-828.83 1732.33,-851.75 1751.76,-850.67 1821,-873.83 1838.74,-879.77 1858.23,-887.22 1874.11,-893.53"/>
<polygon fill="midnightblue" stroke="midnightblue" points="1872.9,-896.82 1883.48,-897.3 1875.51,-890.32 1872.9,-896.82"/>
</g>
<!-- Node15&#45;&gt;Node5 -->
<g id="edge24" class="edge">
<title>Node15&#45;&gt;Node5</title>
<path fill="none" stroke="midnightblue" d="M1225.39,-650.36C1288.28,-659.77 1389.76,-673.5 1478,-678.83 1662.2,-689.98 1879.23,-675.99 1991.38,-666.75"/>
<polygon fill="midnightblue" stroke="midnightblue" points="1991.9,-670.22 2001.57,-665.9 1991.32,-663.24 1991.9,-670.22"/>
</g>
<!-- Node15&#45;&gt;Node13 -->
<g id="edge25" class="edge">
<title>Node15&#45;&gt;Node13</title>
<path fill="none" stroke="midnightblue" d="M1167.56,-631.1C1176.66,-598.67 1210.76,-493.99 1282,-450.83 1384.7,-388.63 1707.37,-451.65 1821,-412.83 1846.73,-404.04 1872.13,-385.51 1888.48,-371.96"/>
<polygon fill="midnightblue" stroke="midnightblue" points="1890.82,-374.56 1896.15,-365.4 1886.27,-369.24 1890.82,-374.56"/>
</g>
<!-- Node15&#45;&gt;Node14 -->
<g id="edge26" class="edge">
<title>Node15&#45;&gt;Node14</title>
<path fill="none" stroke="midnightblue" d="M1246.01,-639.97C1301.3,-639.95 1376.16,-641.05 1442,-645.83 1471.08,-647.95 1504.26,-652.49 1526.4,-655.83"/>
<polygon fill="midnightblue" stroke="midnightblue" points="1525.9,-659.3 1536.32,-657.36 1526.97,-652.38 1525.9,-659.3"/>
</g>
<!-- Node16 -->
<g id="node16" class="node">
<title>Node16</title>
<g id="a_node16"><a xlink:href="../../d0/dfe/class_syntax_analyzer.html#a7721cf7d36d549f81fd05c40dba02f67" target="_top" xlink:title=" ">
<polygon fill="none" stroke="black" points="1293.5,-574.33 1293.5,-593.33 1430.5,-593.33 1430.5,-574.33 1293.5,-574.33"/>
<text text-anchor="middle" x="1362" y="-581.33" font-family="Helvetica,sans-Serif" font-size="10.00">SyntaxAnalyzer::syntaxTerm</text>
</a>
</g>
</g>
<!-- Node15&#45;&gt;Node16 -->
<g id="edge27" class="edge">
<title>Node15&#45;&gt;Node16</title>
<path fill="none" stroke="midnightblue" d="M1197.81,-631.29C1230.88,-621.68 1282.08,-606.79 1318.3,-596.25"/>
<polygon fill="midnightblue" stroke="midnightblue" points="1319.46,-599.56 1328.09,-593.41 1317.51,-592.84 1319.46,-599.56"/>
</g>
<!-- Node16&#45;&gt;Node4 -->
<g id="edge28" class="edge">
<title>Node16&#45;&gt;Node4</title>
<path fill="none" stroke="midnightblue" d="M1423.06,-593.34C1496.38,-605.48 1612.48,-626.6 1627,-640.83 1676.58,-689.43 1614.73,-742.94 1663,-792.83 1713.6,-845.14 1756.43,-802.27 1821,-835.83 1848.07,-849.91 1874.32,-873.68 1890.43,-889.81"/>
<polygon fill="midnightblue" stroke="midnightblue" points="1888,-892.32 1897.49,-897.03 1893.01,-887.43 1888,-892.32"/>
</g>
<!-- Node16&#45;&gt;Node5 -->
<g id="edge29" class="edge">
<title>Node16&#45;&gt;Node5</title>
<path fill="none" stroke="midnightblue" d="M1430.66,-586.54C1484.06,-589.01 1560.4,-593.28 1627,-599.83 1758.55,-612.77 1911.27,-635.3 1997.78,-648.76"/>
<polygon fill="midnightblue" stroke="midnightblue" points="1997.32,-652.23 2007.74,-650.32 1998.4,-645.31 1997.32,-652.23"/>
</g>
<!-- Node16&#45;&gt;Node13 -->
<g id="edge30" class="edge">
<title>Node16&#45;&gt;Node13</title>
<path fill="none" stroke="midnightblue" d="M1430.77,-574.6C1524.32,-559.47 1695.65,-523 1821,-445.83 1851.85,-426.84 1879.06,-393.98 1894.1,-373.65"/>
<polygon fill="midnightblue" stroke="midnightblue" points="1896.94,-375.7 1899.95,-365.54 1891.26,-371.61 1896.94,-375.7"/>
</g>
<!-- Node16&#45;&gt;Node14 -->
<g id="edge31" class="edge">
<title>Node16&#45;&gt;Node14</title>
<path fill="none" stroke="midnightblue" d="M1404.72,-593.42C1417.09,-597.07 1430.42,-601.83 1442,-607.83 1460,-617.16 1460.1,-626.33 1478,-635.83 1493.26,-643.94 1511.76,-649.97 1526.39,-653.95"/>
<polygon fill="midnightblue" stroke="midnightblue" points="1525.69,-657.39 1536.25,-656.49 1527.44,-650.61 1525.69,-657.39"/>
</g>
<!-- Node17 -->
<g id="node17" class="node">
<title>Node17</title>
<g id="a_node17"><a xlink:href="../../d0/dfe/class_syntax_analyzer.html#ab9b415ddd671b4884ab31cdf194f6c64" target="_top" xlink:title=" ">
<polygon fill="none" stroke="black" points="1481,-366.33 1481,-385.33 1624,-385.33 1624,-366.33 1481,-366.33"/>
<text text-anchor="middle" x="1552.5" y="-373.33" font-family="Helvetica,sans-Serif" font-size="10.00">SyntaxAnalyzer::syntaxFactor</text>
</a>
</g>
</g>
<!-- Node16&#45;&gt;Node17 -->
<g id="edge32" class="edge">
<title>Node16&#45;&gt;Node17</title>
<path fill="none" stroke="midnightblue" d="M1371.84,-574.08C1401.45,-541.4 1497.46,-435.47 1535.63,-393.34"/>
<polygon fill="midnightblue" stroke="midnightblue" points="1538.34,-395.57 1542.46,-385.81 1533.15,-390.87 1538.34,-395.57"/>
</g>
<!-- Node17&#45;&gt;Node4 -->
<g id="edge33" class="edge">
<title>Node17&#45;&gt;Node4</title>
<path fill="none" stroke="midnightblue" d="M1578.71,-385.43C1642.16,-409.8 1804.61,-473.55 1821,-493.83 1871.35,-556.13 1898.09,-813.62 1904.8,-887.15"/>
<polygon fill="midnightblue" stroke="midnightblue" points="1901.33,-887.66 1905.7,-897.31 1908.3,-887.04 1901.33,-887.66"/>
</g>
<!-- Node17&#45;&gt;Node5 -->
<g id="edge34" class="edge">
<title>Node17&#45;&gt;Node5</title>
<path fill="none" stroke="midnightblue" d="M1558.82,-366.27C1572.47,-342.86 1611.31,-282.99 1663,-260.83 1723.25,-235.01 1905.89,-221.05 1958,-260.83 2020.44,-308.51 2055.77,-566.14 2064.72,-640.02"/>
<polygon fill="midnightblue" stroke="midnightblue" points="2061.28,-640.72 2065.93,-650.24 2068.23,-639.9 2061.28,-640.72"/>
</g>
<!-- Node17&#45;&gt;Node9 -->
<g id="edge40" class="edge">
<title>Node17&#45;&gt;Node9</title>
<path fill="none" stroke="midnightblue" d="M1557.88,-366.23C1570.37,-339.95 1608.74,-266.26 1663,-227.83 1669.12,-223.5 1676.05,-219.93 1683.18,-217"/>
<polygon fill="midnightblue" stroke="midnightblue" points="1684.81,-220.13 1692.98,-213.38 1682.39,-213.56 1684.81,-220.13"/>
</g>
<!-- Node17&#45;&gt;Node12 -->
<g id="edge45" class="edge">
<title>Node17&#45;&gt;Node12</title>
<path fill="none" stroke="midnightblue" d="M1480.54,-375.29C1364.61,-375.85 1141.54,-383.4 1082,-431.83 991.89,-505.14 980.91,-660.91 979.93,-716.01"/>
<polygon fill="midnightblue" stroke="midnightblue" points="976.43,-716.15 979.85,-726.18 983.43,-716.21 976.43,-716.15"/>
</g>
<!-- Node17&#45;&gt;Node13 -->
<g id="edge39" class="edge">
<title>Node17&#45;&gt;Node13</title>
<path fill="none" stroke="midnightblue" d="M1624.09,-371.84C1691.99,-367.99 1793.07,-362.26 1854.1,-358.8"/>
<polygon fill="midnightblue" stroke="midnightblue" points="1854.49,-362.29 1864.27,-358.23 1854.09,-355.3 1854.49,-362.29"/>
</g>
<!-- Node17&#45;&gt;Node17 -->
<g id="edge46" class="edge">
<title>Node17&#45;&gt;Node17</title>
<path fill="none" stroke="midnightblue" d="M1523.52,-385.59C1509.43,-394.4 1519.09,-403.83 1552.5,-403.83 1575.47,-403.83 1587.22,-399.38 1587.73,-393.73"/>
<polygon fill="midnightblue" stroke="midnightblue" points="1590.35,-391.38 1581.48,-385.59 1584.8,-395.65 1590.35,-391.38"/>
</g>
<!-- Node18 -->
<g id="node18" class="node">
<title>Node18</title>
<g id="a_node18"><a xlink:href="../../db/dc1/class_token.html#a014ced0a9ea72ae21fad0d4f116d0a73" target="_top" xlink:title=" ">
<polygon fill="none" stroke="black" points="1703,-270.33 1703,-289.33 1781,-289.33 1781,-270.33 1703,-270.33"/>
<text text-anchor="middle" x="1742" y="-277.33" font-family="Helvetica,sans-Serif" font-size="10.00">Token::getInfo</text>
</a>
</g>
</g>
<!-- Node17&#45;&gt;Node18 -->
<g id="edge35" class="edge">
<title>Node17&#45;&gt;Node18</title>
<path fill="none" stroke="midnightblue" d="M1572.16,-366.28C1605.3,-349.32 1674.54,-313.86 1713.26,-294.04"/>
<polygon fill="midnightblue" stroke="midnightblue" points="1715.11,-297.02 1722.41,-289.35 1711.92,-290.79 1715.11,-297.02"/>
</g>
<!-- Node17&#45;&gt;Node21 -->
<g id="edge41" class="edge">
<title>Node17&#45;&gt;Node21</title>
<path fill="none" stroke="midnightblue" d="M1558.13,-385.67C1582.81,-438.04 1698.83,-684.32 1732.08,-754.89"/>
<polygon fill="midnightblue" stroke="midnightblue" points="1728.93,-756.43 1736.36,-763.98 1735.26,-753.45 1728.93,-756.43"/>
</g>
<!-- Node17&#45;&gt;Node22 -->
<g id="edge47" class="edge">
<title>Node17&#45;&gt;Node22</title>
<path fill="none" stroke="midnightblue" d="M1624.12,-382.61C1634.66,-383.63 1645.62,-384.68 1656.41,-385.71"/>
<polygon fill="midnightblue" stroke="midnightblue" points="1656.4,-389.23 1666.69,-386.7 1657.07,-382.26 1656.4,-389.23"/>
</g>
<!-- Node18&#45;&gt;Node13 -->
<g id="edge37" class="edge">
<title>Node18&#45;&gt;Node13</title>
<path fill="none" stroke="midnightblue" d="M1781.29,-287.98C1794.41,-291.69 1808.83,-296.86 1821,-303.83 1839.83,-314.62 1838.54,-325.41 1857,-336.83 1860.16,-338.79 1863.55,-340.6 1867.03,-342.27"/>
<polygon fill="midnightblue" stroke="midnightblue" points="1865.76,-345.53 1876.32,-346.32 1868.56,-339.11 1865.76,-345.53"/>
</g>
<!-- Node19 -->
<g id="node19" class="node">
<title>Node19</title>
<g id="a_node19"><a xlink:href="../../db/dc1/class_token.html#a942fcc40ffdf54c98b7b641c792a26bc" target="_top" xlink:title="Возвращает константную ссылку на строковое представление токена">
<polygon fill="none" stroke="black" points="1870.5,-270.33 1870.5,-289.33 1944.5,-289.33 1944.5,-270.33 1870.5,-270.33"/>
<text text-anchor="middle" x="1907.5" y="-277.33" font-family="Helvetica,sans-Serif" font-size="10.00">Token::getStr</text>
</a>
</g>
</g>
<!-- Node18&#45;&gt;Node19 -->
<g id="edge36" class="edge">
<title>Node18&#45;&gt;Node19</title>
<path fill="none" stroke="midnightblue" d="M1781.33,-279.83C1804.87,-279.83 1835.17,-279.83 1860.07,-279.83"/>
<polygon fill="midnightblue" stroke="midnightblue" points="1860.37,-283.34 1870.37,-279.83 1860.37,-276.34 1860.37,-283.34"/>
</g>
<!-- Node20 -->
<g id="node20" class="node">
<title>Node20</title>
<g id="a_node20"><a xlink:href="../../db/dc1/class_token.html#af3b5fdf2261d637af820d4adb62e6109" target="_top" xlink:title=" ">
<polygon fill="none" stroke="black" points="1876,-308.33 1876,-327.33 1939,-327.33 1939,-308.33 1876,-308.33"/>
<text text-anchor="middle" x="1907.5" y="-315.33" font-family="Helvetica,sans-Serif" font-size="10.00">Token::line</text>
</a>
</g>
</g>
<!-- Node18&#45;&gt;Node20 -->
<g id="edge38" class="edge">
<title>Node18&#45;&gt;Node20</title>
<path fill="none" stroke="midnightblue" d="M1781.33,-288.74C1806.75,-294.65 1840.05,-302.39 1865.91,-308.4"/>
<polygon fill="midnightblue" stroke="midnightblue" points="1865.25,-311.84 1875.78,-310.7 1866.83,-305.02 1865.25,-311.84"/>
</g>
<!-- Node21&#45;&gt;Node4 -->
<g id="edge42" class="edge">
<title>Node21&#45;&gt;Node4</title>
<path fill="none" stroke="midnightblue" d="M1790.48,-783.43C1801.09,-786.9 1811.89,-791.58 1821,-797.83 1855.67,-821.66 1882.87,-863.81 1896.63,-888.12"/>
<polygon fill="midnightblue" stroke="midnightblue" points="1893.66,-889.98 1901.54,-897.06 1899.8,-886.61 1893.66,-889.98"/>
</g>
<!-- Node21&#45;&gt;Node5 -->
<g id="edge43" class="edge">
<title>Node21&#45;&gt;Node5</title>
<path fill="none" stroke="midnightblue" d="M1812.84,-776.02C1856.19,-774.99 1912.18,-769.25 1958,-749.83 1996.9,-733.36 2032.77,-698.34 2052.1,-677.17"/>
<polygon fill="midnightblue" stroke="midnightblue" points="2054.85,-679.35 2058.89,-669.55 2049.62,-674.69 2054.85,-679.35"/>
</g>
<!-- Node21&#45;&gt;Node12 -->
<g id="edge44" class="edge">
<title>Node21&#45;&gt;Node12</title>
<path fill="none" stroke="midnightblue" d="M1671.39,-770.36C1528.87,-763.24 1204.79,-747.06 1056.57,-739.66"/>
<polygon fill="midnightblue" stroke="midnightblue" points="1056.36,-736.14 1046.2,-739.14 1056.02,-743.14 1056.36,-736.14"/>
</g>
<!-- Node22&#45;&gt;Node4 -->
<g id="edge48" class="edge">
<title>Node22&#45;&gt;Node4</title>
<path fill="none" stroke="midnightblue" d="M1761.64,-403.46C1779.8,-413.85 1806.69,-432.14 1821,-455.83 1866.26,-530.78 1896.81,-809.31 1904.56,-886.74"/>
<polygon fill="midnightblue" stroke="midnightblue" points="1901.11,-887.42 1905.57,-897.03 1908.08,-886.73 1901.11,-887.42"/>
</g>
<!-- Node22&#45;&gt;Node5 -->
<g id="edge49" class="edge">
<title>Node22&#45;&gt;Node5</title>
<path fill="none" stroke="midnightblue" d="M1755.22,-403.42C1770.63,-415.54 1797.9,-437.08 1821,-455.83 1906.05,-524.89 2006.25,-608.78 2047.63,-643.54"/>
<polygon fill="midnightblue" stroke="midnightblue" points="2045.64,-646.44 2055.54,-650.19 2050.14,-641.08 2045.64,-646.44"/>
</g>
<!-- Node24&#45;&gt;Node4 -->
<g id="edge55" class="edge">
<title>Node24&#45;&gt;Node4</title>
<path fill="none" stroke="midnightblue" d="M826.46,-935.46C886.22,-955.91 1034.7,-1001.83 1163,-1001.83 1163,-1001.83 1163,-1001.83 1553.5,-1001.83 1672.87,-1001.83 1710.65,-1023.35 1821,-977.83 1849.66,-966.01 1876.03,-941.05 1891.69,-924.11"/>
<polygon fill="midnightblue" stroke="midnightblue" points="1894.42,-926.31 1898.48,-916.53 1889.2,-921.64 1894.42,-926.31"/>
</g>
<!-- Node24&#45;&gt;Node5 -->
<g id="edge56" class="edge">
<title>Node24&#45;&gt;Node5</title>
<path fill="none" stroke="midnightblue" d="M849.33,-916.28C1010.26,-885.28 1530.42,-783.86 1958,-686.83 1978.4,-682.21 2000.85,-676.71 2020.04,-671.9"/>
<polygon fill="midnightblue" stroke="midnightblue" points="2020.91,-675.29 2029.76,-669.45 2019.2,-668.5 2020.91,-675.29"/>
</g>
<!-- Node24&#45;&gt;Node8 -->
<g id="edge58" class="edge">
<title>Node24&#45;&gt;Node8</title>
<path fill="none" stroke="midnightblue" d="M732.92,-932.38C720.76,-932.61 707.98,-932.64 695.61,-932.5"/>
<polygon fill="midnightblue" stroke="midnightblue" points="695.39,-928.99 685.34,-932.33 695.28,-935.99 695.39,-928.99"/>
</g>
<!-- Node24&#45;&gt;Node12 -->
<g id="edge57" class="edge">
<title>Node24&#45;&gt;Node12</title>
<path fill="none" stroke="midnightblue" d="M862.04,-916.21C867.13,-913.73 871.89,-910.65 876,-906.83 913.41,-872.15 884.56,-840.85 912,-797.83 923.55,-779.72 941.58,-763.28 955.87,-751.89"/>
<polygon fill="midnightblue" stroke="midnightblue" points="958.41,-754.35 964.2,-745.48 954.14,-748.81 958.41,-754.35"/>
</g>
<!-- Node25&#45;&gt;Node4 -->
<g id="edge60" class="edge">
<title>Node25&#45;&gt;Node4</title>
<path fill="none" stroke="midnightblue" d="M873.3,-897.25C886.19,-898.83 899.48,-900.41 912,-901.83 1313.77,-947.46 1423.49,-1013.89 1821,-939.83 1840.82,-936.14 1861.96,-928.02 1878.27,-920.76"/>
<polygon fill="midnightblue" stroke="midnightblue" points="1880.12,-923.76 1887.74,-916.4 1877.19,-917.4 1880.12,-923.76"/>
</g>
<!-- Node25&#45;&gt;Node8 -->
<g id="edge62" class="edge">
<title>Node25&#45;&gt;Node8</title>
<path fill="none" stroke="midnightblue" d="M775.2,-897.4C754.98,-903.48 724.04,-910.89 695.36,-916.8"/>
<polygon fill="midnightblue" stroke="midnightblue" points="694.45,-913.41 685.34,-918.82 695.83,-920.28 694.45,-913.41"/>
</g>
<!-- Node25&#45;&gt;Node12 -->
<g id="edge61" class="edge">
<title>Node25&#45;&gt;Node12</title>
<path fill="none" stroke="midnightblue" d="M810.67,-878.33C840.34,-853.06 921.45,-783.99 958.76,-752.22"/>
<polygon fill="midnightblue" stroke="midnightblue" points="961.49,-754.49 966.84,-745.34 956.96,-749.16 961.49,-754.49"/>
</g>
<!-- Node26&#45;&gt;Node4 -->
<g id="edge64" class="edge">
<title>Node26&#45;&gt;Node4</title>
<path fill="none" stroke="midnightblue" d="M1194.32,-460.38C1217.98,-468.08 1252.13,-479.18 1282,-488.83 1435.27,-538.38 1485.08,-523.65 1627,-599.83 1724.24,-652.04 1749.52,-670.75 1821,-754.83 1857.14,-797.34 1885.55,-857.41 1898.64,-887.74"/>
<polygon fill="midnightblue" stroke="midnightblue" points="1895.49,-889.3 1902.61,-897.14 1901.94,-886.57 1895.49,-889.3"/>
</g>
<!-- Node26&#45;&gt;Node5 -->
<g id="edge65" class="edge">
<title>Node26&#45;&gt;Node5</title>
<path fill="none" stroke="midnightblue" d="M1173.65,-441.31C1208.07,-404.03 1340.16,-266.78 1478,-199.83 1574.33,-153.05 1874.64,-89.6 1958,-156.83 2035.47,-219.31 2060.65,-553.92 2065.88,-639.76"/>
<polygon fill="midnightblue" stroke="midnightblue" points="2062.4,-640.19 2066.48,-649.97 2069.39,-639.78 2062.4,-640.19"/>
</g>
<!-- Node27 -->
<g id="node27" class="node">
<title>Node27</title>
<g id="a_node27"><a xlink:href="../../d0/dfe/class_syntax_analyzer.html#a3fd39f49d75b604d41e41f86b22cdca3" target="_top" xlink:title=" ">
<polygon fill="none" stroke="black" points="1282,-460.33 1282,-479.33 1442,-479.33 1442,-460.33 1282,-460.33"/>
<text text-anchor="middle" x="1362" y="-467.33" font-family="Helvetica,sans-Serif" font-size="10.00">SyntaxAnalyzer::syntaxConstDecl</text>
</a>
</g>
</g>
<!-- Node26&#45;&gt;Node27 -->
<g id="edge66" class="edge">
<title>Node26&#45;&gt;Node27</title>
<path fill="none" stroke="midnightblue" d="M1237.15,-457.83C1248.38,-458.92 1260.09,-460.05 1271.65,-461.17"/>
<polygon fill="midnightblue" stroke="midnightblue" points="1271.45,-464.67 1281.74,-462.15 1272.13,-457.7 1271.45,-464.67"/>
</g>
<!-- Node27&#45;&gt;Node4 -->
<g id="edge67" class="edge">
<title>Node27&#45;&gt;Node4</title>
<path fill="none" stroke="midnightblue" d="M1442.06,-469.63C1558.63,-471.08 1768.51,-480.93 1821,-531.83 1873.11,-582.36 1898.37,-817.51 1904.81,-887.27"/>
<polygon fill="midnightblue" stroke="midnightblue" points="1901.33,-887.68 1905.71,-897.33 1908.3,-887.05 1901.33,-887.68"/>
</g>
<!-- Node27&#45;&gt;Node5 -->
<g id="edge68" class="edge">
<title>Node27&#45;&gt;Node5</title>
<path fill="none" stroke="midnightblue" d="M1369.05,-460.06C1396.39,-416.98 1513.57,-243.57 1663,-184.83 1724.01,-160.85 1906.72,-143.99 1958,-184.83 2031.48,-243.36 2059.5,-557.74 2065.63,-640.08"/>
<polygon fill="midnightblue" stroke="midnightblue" points="2062.15,-640.39 2066.36,-650.11 2069.13,-639.89 2062.15,-640.39"/>
</g>
<!-- Node27&#45;&gt;Node14 -->
<g id="edge69" class="edge">
<title>Node27&#45;&gt;Node14</title>
<path fill="none" stroke="midnightblue" d="M1372.61,-479.52C1402.73,-509.88 1495.59,-603.48 1534.29,-642.49"/>
<polygon fill="midnightblue" stroke="midnightblue" points="1532.16,-645.31 1541.69,-649.94 1537.13,-640.38 1532.16,-645.31"/>
</g>
<!-- Node28&#45;&gt;Node4 -->
<g id="edge71" class="edge">
<title>Node28&#45;&gt;Node4</title>
<path fill="none" stroke="midnightblue" d="M1429.6,-1223.07C1542,-1210.41 1762.82,-1179.82 1821,-1129.83 1883.78,-1075.89 1900.64,-970.48 1905.02,-926.67"/>
<polygon fill="midnightblue" stroke="midnightblue" points="1908.51,-926.97 1905.9,-916.7 1901.53,-926.35 1908.51,-926.97"/>
</g>
<!-- Node28&#45;&gt;Node5 -->
<g id="edge72" class="edge">
<title>Node28&#45;&gt;Node5</title>
<path fill="none" stroke="midnightblue" d="M1397.87,-1239.4C1500.73,-1265.25 1805.18,-1324.53 1958,-1167.83 2001.8,-1122.92 1980.38,-949.07 1994,-887.83 2011.57,-808.84 2044.64,-718.13 2059.47,-679.21"/>
<polygon fill="midnightblue" stroke="midnightblue" points="2062.82,-680.25 2063.14,-669.66 2056.29,-677.74 2062.82,-680.25"/>
</g>
<!-- Node29 -->
<g id="node29" class="node">
<title>Node29</title>
<g id="a_node29"><a xlink:href="../../d0/dfe/class_syntax_analyzer.html#a3106ad7f9a5cf50b2c277c28401422ec" target="_top" xlink:title=" ">
<polygon fill="none" stroke="black" points="1478,-1296.33 1478,-1315.33 1627,-1315.33 1627,-1296.33 1478,-1296.33"/>
<text text-anchor="middle" x="1552.5" y="-1303.33" font-family="Helvetica,sans-Serif" font-size="10.00">SyntaxAnalyzer::syntaxVarDecl</text>
</a>
</g>
</g>
<!-- Node28&#45;&gt;Node29 -->
<g id="edge73" class="edge">
<title>Node28&#45;&gt;Node29</title>
<path fill="none" stroke="midnightblue" d="M1382.66,-1239.52C1405.34,-1250.5 1443.89,-1268.6 1478,-1281.83 1488.24,-1285.81 1499.45,-1289.7 1509.95,-1293.14"/>
<polygon fill="midnightblue" stroke="midnightblue" points="1509.17,-1296.57 1519.76,-1296.3 1511.31,-1289.9 1509.17,-1296.57"/>
</g>
<!-- Node29&#45;&gt;Node4 -->
<g id="edge74" class="edge">
<title>Node29&#45;&gt;Node4</title>
<path fill="none" stroke="midnightblue" d="M1591.04,-1296.29C1656.82,-1278.86 1789,-1240.48 1821,-1205.83 1896.77,-1123.81 1905.92,-979.16 1906.63,-926.62"/>
<polygon fill="midnightblue" stroke="midnightblue" points="1910.13,-926.61 1906.68,-916.6 1903.14,-926.58 1910.13,-926.61"/>
</g>
<!-- Node29&#45;&gt;Node5 -->
<g id="edge75" class="edge">
<title>Node29&#45;&gt;Node5</title>
<path fill="none" stroke="midnightblue" d="M1574.93,-1315.37C1642.36,-1343.76 1851.99,-1419.4 1958,-1313.83 1991.66,-1280.32 1984.7,-934.42 1994,-887.83 2009.85,-808.48 2043.81,-717.95 2059.17,-679.15"/>
<polygon fill="midnightblue" stroke="midnightblue" points="2062.52,-680.21 2062.98,-669.62 2056.02,-677.61 2062.52,-680.21"/>
</g>
<!-- Node30 -->
<g id="node30" class="node">
<title>Node30</title>
<g id="a_node30"><a xlink:href="../../d0/dfe/class_syntax_analyzer.html#a59b8fda4a98347e67033502aec8d2e4f" target="_top" xlink:title=" ">
<polygon fill="none" stroke="black" points="1663,-1296.33 1663,-1315.33 1821,-1315.33 1821,-1296.33 1663,-1296.33"/>
<text text-anchor="middle" x="1742" y="-1303.33" font-family="Helvetica,sans-Serif" font-size="10.00">SyntaxAnalyzer::syntaxTypeSpec</text>
</a>
</g>
</g>
<!-- Node29&#45;&gt;Node30 -->
<g id="edge76" class="edge">
<title>Node29&#45;&gt;Node30</title>
<path fill="none" stroke="midnightblue" d="M1627.07,-1305.83C1635.47,-1305.83 1644.11,-1305.83 1652.68,-1305.83"/>
<polygon fill="midnightblue" stroke="midnightblue" points="1652.7,-1309.34 1662.7,-1305.83 1652.7,-1302.34 1652.7,-1309.34"/>
</g>
<!-- Node30&#45;&gt;Node4 -->
<g id="edge77" class="edge">
<title>Node30&#45;&gt;Node4</title>
<path fill="none" stroke="midnightblue" d="M1761.01,-1296.22C1778.93,-1285.72 1805.88,-1267.22 1821,-1243.83 1889.22,-1138.3 1903.03,-981.53 1905.81,-926.66"/>
<polygon fill="midnightblue" stroke="midnightblue" points="1909.31,-926.7 1906.25,-916.56 1902.31,-926.39 1909.31,-926.7"/>
</g>
<!-- Node30&#45;&gt;Node5 -->
<g id="edge78" class="edge">
<title>Node30&#45;&gt;Node5</title>
<path fill="none" stroke="midnightblue" d="M1786.97,-1315.39C1835.98,-1323.19 1914.1,-1326.63 1958,-1281.83 2019.54,-1219.05 1976.49,-973.99 1994,-887.83 2010.12,-808.54 2043.94,-717.98 2059.22,-679.16"/>
<polygon fill="midnightblue" stroke="midnightblue" points="2062.56,-680.21 2063.01,-669.63 2056.06,-677.63 2062.56,-680.21"/>
</g>
</g>
</svg>
