<?xml version="1.0" encoding="UTF-8" standalone="no"?>
<!DOCTYPE svg PUBLIC "-//W3C//DTD SVG 1.1//EN"
 "http://www.w3.org/Graphics/SVG/1.1/DTD/svg11.dtd">
<!-- Generated by graphviz version 3.0.0 (20220413.0106)
 -->
<!-- Title: SyntaxAnalyzer::syntaxAssignSt Pages: 1 -->
<svg width="2000pt" height="123pt"
 viewBox="0.00 0.00 2000.00 123.00" xmlns="http://www.w3.org/2000/svg" xmlns:xlink="http://www.w3.org/1999/xlink">
<g id="graph0" class="graph" transform="scale(1 1) rotate(0) translate(4 119)">
<title>SyntaxAnalyzer::syntaxAssignSt</title>
<!-- Node1 -->
<g id="node1" class="node">
<title>Node1</title>
<g id="a_node1"><a xlink:title=" ">
<polygon fill="#bfbfbf" stroke="black" points="1837,-19.5 1837,-38.5 1992,-38.5 1992,-19.5 1837,-19.5"/>
<text text-anchor="middle" x="1914.5" y="-26.5" font-family="Helvetica,sans-Serif" font-size="10.00">SyntaxAnalyzer::syntaxAssignSt</text>
</a>
</g>
</g>
<!-- Node2 -->
<g id="node2" class="node">
<title>Node2</title>
<g id="a_node2"><a xlink:href="../../d0/dfe/class_syntax_analyzer.html#acef4b19447f253a6e25d762733ca8ede" target="_top" xlink:title=" ">
<polygon fill="none" stroke="black" points="1672,-38.5 1672,-57.5 1801,-57.5 1801,-38.5 1672,-38.5"/>
<text text-anchor="middle" x="1736.5" y="-45.5" font-family="Helvetica,sans-Serif" font-size="10.00">SyntaxAnalyzer::syntaxIter</text>
</a>
</g>
</g>
<!-- Node1&#45;&gt;Node2 -->
<g id="edge1" class="edge">
<title>Node1&#45;&gt;Node2</title>
<path fill="none" stroke="midnightblue" d="M1826.69,-38.37C1818.03,-39.31 1809.37,-40.24 1801.02,-41.14"/>
<polygon fill="midnightblue" stroke="midnightblue" points="1827.25,-41.83 1836.82,-37.28 1826.5,-34.87 1827.25,-41.83"/>
</g>
<!-- Node4 -->
<g id="node4" class="node">
<title>Node4</title>
<g id="a_node4"><a xlink:href="../../d0/dfe/class_syntax_analyzer.html#a1332b189c9be3ef8969eda9f078a97b3" target="_top" xlink:title=" ">
<polygon fill="none" stroke="black" points="1336,-38.5 1336,-57.5 1461,-57.5 1461,-38.5 1336,-38.5"/>
<text text-anchor="middle" x="1398.5" y="-45.5" font-family="Helvetica,sans-Serif" font-size="10.00">SyntaxAnalyzer::syntaxSt</text>
</a>
</g>
</g>
<!-- Node1&#45;&gt;Node4 -->
<g id="edge20" class="edge">
<title>Node1&#45;&gt;Node4</title>
<path fill="none" stroke="midnightblue" d="M1826.85,-24.16C1742.44,-20.59 1610.6,-18.03 1497,-29 1477.77,-30.86 1456.71,-34.72 1439.09,-38.49"/>
<polygon fill="midnightblue" stroke="midnightblue" points="1826.76,-27.66 1836.91,-24.6 1827.07,-20.67 1826.76,-27.66"/>
</g>
<!-- Node3 -->
<g id="node3" class="node">
<title>Node3</title>
<g id="a_node3"><a xlink:href="../../d0/dfe/class_syntax_analyzer.html#afd2005539c57ee2575cab3c50d061cd9" target="_top" xlink:title=" ">
<polygon fill="none" stroke="black" points="1497,-38.5 1497,-57.5 1636,-57.5 1636,-38.5 1497,-38.5"/>
<text text-anchor="middle" x="1566.5" y="-45.5" font-family="Helvetica,sans-Serif" font-size="10.00">SyntaxAnalyzer::syntaxForSt</text>
</a>
</g>
</g>
<!-- Node2&#45;&gt;Node3 -->
<g id="edge2" class="edge">
<title>Node2&#45;&gt;Node3</title>
<path fill="none" stroke="midnightblue" d="M1661.72,-48C1653.22,-48 1644.58,-48 1636.15,-48"/>
<polygon fill="midnightblue" stroke="midnightblue" points="1661.99,-51.5 1671.99,-48 1661.99,-44.5 1661.99,-51.5"/>
</g>
<!-- Node3&#45;&gt;Node4 -->
<g id="edge3" class="edge">
<title>Node3&#45;&gt;Node4</title>
<path fill="none" stroke="midnightblue" d="M1486.27,-41.26C1477.81,-41.23 1469.3,-41.29 1461.09,-41.45"/>
<polygon fill="midnightblue" stroke="midnightblue" points="1486.52,-44.76 1496.54,-41.34 1486.57,-37.76 1486.52,-44.76"/>
</g>
<!-- Node4&#45;&gt;Node3 -->
<g id="edge4" class="edge">
<title>Node4&#45;&gt;Node3</title>
<path fill="none" stroke="midnightblue" d="M1471.23,-54.69C1479.63,-54.78 1488.18,-54.77 1496.54,-54.66"/>
<polygon fill="midnightblue" stroke="midnightblue" points="1471.14,-51.19 1461.09,-54.55 1471.04,-58.19 1471.14,-51.19"/>
</g>
<!-- Node5 -->
<g id="node5" class="node">
<title>Node5</title>
<g id="a_node5"><a xlink:href="../../d0/dfe/class_syntax_analyzer.html#a44506791ee9420b418715a9e87908aeb" target="_top" xlink:title=" ">
<polygon fill="none" stroke="black" points="1160,-95.5 1160,-114.5 1291,-114.5 1291,-95.5 1160,-95.5"/>
<text text-anchor="middle" x="1225.5" y="-102.5" font-family="Helvetica,sans-Serif" font-size="10.00">SyntaxAnalyzer::syntaxIfSt</text>
</a>
</g>
</g>
<!-- Node4&#45;&gt;Node5 -->
<g id="edge5" class="edge">
<title>Node4&#45;&gt;Node5</title>
<path fill="none" stroke="midnightblue" d="M1344.94,-61.13C1330.5,-66.43 1314.75,-72.24 1300,-77 1279.31,-83.68 1254.75,-89.64 1239.91,-95.45"/>
<polygon fill="midnightblue" stroke="midnightblue" points="1346.51,-64.29 1354.7,-57.57 1344.1,-57.71 1346.51,-64.29"/>
</g>
<!-- Node6 -->
<g id="node6" class="node">
<title>Node6</title>
<g id="a_node6"><a xlink:href="../../d0/dfe/class_syntax_analyzer.html#a01d109f26cc4d069b40fed83435e3141" target="_top" xlink:title=" ">
<polygon fill="none" stroke="black" points="1155,-57.5 1155,-76.5 1296,-76.5 1296,-57.5 1155,-57.5"/>
<text text-anchor="middle" x="1225.5" y="-64.5" font-family="Helvetica,sans-Serif" font-size="10.00">SyntaxAnalyzer::syntaxStList</text>
</a>
</g>
</g>
<!-- Node4&#45;&gt;Node6 -->
<g id="edge7" class="edge">
<title>Node4&#45;&gt;Node6</title>
<path fill="none" stroke="midnightblue" d="M1325.72,-55.98C1315.97,-57.06 1305.98,-58.17 1296.27,-59.25"/>
<polygon fill="midnightblue" stroke="midnightblue" points="1326.21,-59.44 1335.77,-54.86 1325.44,-52.49 1326.21,-59.44"/>
</g>
<!-- Node15 -->
<g id="node15" class="node">
<title>Node15</title>
<g id="a_node15"><a xlink:href="../../d0/dfe/class_syntax_analyzer.html#a4a85e884f3f202c24ce09cc0c0e281b1" target="_top" xlink:title=" ">
<polygon fill="none" stroke="black" points="1151,-19.5 1151,-38.5 1300,-38.5 1300,-19.5 1151,-19.5"/>
<text text-anchor="middle" x="1225.5" y="-26.5" font-family="Helvetica,sans-Serif" font-size="10.00">SyntaxAnalyzer::syntaxWhileSt</text>
</a>
</g>
</g>
<!-- Node4&#45;&gt;Node15 -->
<g id="edge18" class="edge">
<title>Node4&#45;&gt;Node15</title>
<path fill="none" stroke="midnightblue" d="M1352.01,-36.9C1336.14,-34.53 1317.89,-32.29 1300.32,-30.51"/>
<polygon fill="midnightblue" stroke="midnightblue" points="1351.65,-40.39 1362.07,-38.47 1352.73,-33.47 1351.65,-40.39"/>
</g>
<!-- Node5&#45;&gt;Node4 -->
<g id="edge6" class="edge">
<title>Node5&#45;&gt;Node4</title>
<path fill="none" stroke="midnightblue" d="M1300.81,-94.59C1338.42,-82.03 1371.61,-67.9 1387.67,-57.66"/>
<polygon fill="midnightblue" stroke="midnightblue" points="1299.57,-91.31 1291.16,-97.74 1301.75,-97.96 1299.57,-91.31"/>
</g>
<!-- Node7 -->
<g id="node7" class="node">
<title>Node7</title>
<g id="a_node7"><a xlink:href="../../d0/dfe/class_syntax_analyzer.html#a1390f811b111005b207bd039d2623dd4" target="_top" xlink:title=" ">
<polygon fill="none" stroke="black" points="944,-19.5 944,-38.5 1115,-38.5 1115,-19.5 944,-19.5"/>
<text text-anchor="middle" x="1029.5" y="-26.5" font-family="Helvetica,sans-Serif" font-size="10.00">SyntaxAnalyzer::syntaxCompoundSt</text>
</a>
</g>
</g>
<!-- Node6&#45;&gt;Node7 -->
<g id="edge8" class="edge">
<title>Node6&#45;&gt;Node7</title>
<path fill="none" stroke="midnightblue" d="M1165.59,-55.46C1137.92,-50.04 1105.34,-43.66 1079.1,-38.52"/>
<polygon fill="midnightblue" stroke="midnightblue" points="1165.06,-58.92 1175.55,-57.41 1166.4,-52.05 1165.06,-58.92"/>
</g>
<!-- Node7&#45;&gt;Node4 -->
<g id="edge17" class="edge">
<title>Node7&#45;&gt;Node4</title>
<path fill="none" stroke="midnightblue" d="M1082.56,-17.53C1137.18,-7.31 1225.3,4.04 1300,-10 1328.75,-15.4 1359.9,-29.04 1379.06,-38.42"/>
<polygon fill="midnightblue" stroke="midnightblue" points="1081.59,-14.15 1072.43,-19.48 1082.91,-21.02 1081.59,-14.15"/>
</g>
<!-- Node8 -->
<g id="node8" class="node">
<title>Node8</title>
<g id="a_node8"><a xlink:href="../../d0/dfe/class_syntax_analyzer.html#a500e4e0cd0605ebbee4ab452948fa2ca" target="_top" xlink:title=" ">
<polygon fill="none" stroke="black" points="768,-19.5 768,-38.5 908,-38.5 908,-19.5 768,-19.5"/>
<text text-anchor="middle" x="838" y="-26.5" font-family="Helvetica,sans-Serif" font-size="10.00">SyntaxAnalyzer::syntaxBlock</text>
</a>
</g>
</g>
<!-- Node7&#45;&gt;Node8 -->
<g id="edge9" class="edge">
<title>Node7&#45;&gt;Node8</title>
<path fill="none" stroke="midnightblue" d="M933.63,-29C925.02,-29 916.41,-29 908.08,-29"/>
<polygon fill="midnightblue" stroke="midnightblue" points="933.73,-32.5 943.73,-29 933.73,-25.5 933.73,-32.5"/>
</g>
<!-- Node9 -->
<g id="node9" class="node">
<title>Node9</title>
<g id="a_node9"><a xlink:href="../../d0/dfe/class_syntax_analyzer.html#a4dc8338b4fc879f36e63f27fe3ce7041" target="_top" xlink:title=" ">
<polygon fill="none" stroke="black" points="580,-38.5 580,-57.5 732,-57.5 732,-38.5 580,-38.5"/>
<text text-anchor="middle" x="656" y="-45.5" font-family="Helvetica,sans-Serif" font-size="10.00">SyntaxAnalyzer::syntaxFuncDef</text>
</a>
</g>
</g>
<!-- Node8&#45;&gt;Node9 -->
<g id="edge10" class="edge">
<title>Node8&#45;&gt;Node9</title>
<path fill="none" stroke="midnightblue" d="M757.95,-37.34C749.39,-38.25 740.69,-39.17 732.18,-40.06"/>
<polygon fill="midnightblue" stroke="midnightblue" points="758.34,-40.82 767.92,-36.29 757.61,-33.86 758.34,-40.82"/>
</g>
<!-- Node10 -->
<g id="node10" class="node">
<title>Node10</title>
<g id="a_node10"><a xlink:href="../../d0/dfe/class_syntax_analyzer.html#ada547456d19f4a7490f57f7dc9bfed94" target="_top" xlink:title=" ">
<polygon fill="none" stroke="black" points="392,-19.5 392,-38.5 544,-38.5 544,-19.5 392,-19.5"/>
<text text-anchor="middle" x="468" y="-26.5" font-family="Helvetica,sans-Serif" font-size="10.00">SyntaxAnalyzer::syntaxProgram</text>
</a>
</g>
</g>
<!-- Node8&#45;&gt;Node10 -->
<g id="edge16" class="edge">
<title>Node8&#45;&gt;Node10</title>
<path fill="none" stroke="midnightblue" d="M757.46,-29C694.21,-29 606.34,-29 544.24,-29"/>
<polygon fill="midnightblue" stroke="midnightblue" points="757.78,-32.5 767.78,-29 757.78,-25.5 757.78,-32.5"/>
</g>
<!-- Node9&#45;&gt;Node10 -->
<g id="edge11" class="edge">
<title>Node9&#45;&gt;Node10</title>
<path fill="none" stroke="midnightblue" d="M569.85,-39.3C561.26,-38.42 552.57,-37.54 544.1,-36.67"/>
<polygon fill="midnightblue" stroke="midnightblue" points="569.58,-42.79 579.88,-40.33 570.29,-35.83 569.58,-42.79"/>
</g>
<!-- Node11 -->
<g id="node11" class="node">
<title>Node11</title>
<g id="a_node11"><a xlink:href="../../d0/dfe/class_syntax_analyzer.html#ab735ce0145b85a156c674adc42b5df80" target="_top" xlink:title="Синтаксический анализ токенов, переданных анализатору.">
<polygon fill="none" stroke="black" points="213,-19.5 213,-38.5 356,-38.5 356,-19.5 213,-19.5"/>
<text text-anchor="middle" x="284.5" y="-26.5" font-family="Helvetica,sans-Serif" font-size="10.00">SyntaxAnalyzer::parseTokens</text>
</a>
</g>
</g>
<!-- Node10&#45;&gt;Node11 -->
<g id="edge12" class="edge">
<title>Node10&#45;&gt;Node11</title>
<path fill="none" stroke="midnightblue" d="M381.84,-29C373.26,-29 364.61,-29 356.21,-29"/>
<polygon fill="midnightblue" stroke="midnightblue" points="381.87,-32.5 391.87,-29 381.87,-25.5 381.87,-32.5"/>
</g>
<!-- Node12 -->
<g id="node12" class="node">
<title>Node12</title>
<g id="a_node12"><a xlink:href="../../d1/d80/namespace_analyze.html#a1597f9f086c3276d0287917efbed14b8" target="_top" xlink:title=" ">
<polygon fill="none" stroke="black" points="74,-38.5 74,-57.5 177,-57.5 177,-38.5 74,-38.5"/>
<text text-anchor="middle" x="125.5" y="-45.5" font-family="Helvetica,sans-Serif" font-size="10.00">Analyze::analyzeFile</text>
</a>
</g>
</g>
<!-- Node11&#45;&gt;Node12 -->
<g id="edge13" class="edge">
<title>Node11&#45;&gt;Node12</title>
<path fill="none" stroke="midnightblue" d="M202.61,-38.79C193.92,-39.84 185.26,-40.89 177.08,-41.88"/>
<polygon fill="midnightblue" stroke="midnightblue" points="203.3,-42.23 212.81,-37.56 202.46,-35.28 203.3,-42.23"/>
</g>
<!-- Node14 -->
<g id="node14" class="node">
<title>Node14</title>
<g id="a_node14"><a xlink:href="../../db/df9/test_semantic_8cpp.html#a804faf7fd199a3c491020f1f2caa618b" target="_top" xlink:title="Тест семантического анализа Паскаля">
<polygon fill="none" stroke="black" points="105,-0.5 105,-19.5 146,-19.5 146,-0.5 105,-0.5"/>
<text text-anchor="middle" x="125.5" y="-7.5" font-family="Helvetica,sans-Serif" font-size="10.00">TEST</text>
</a>
</g>
</g>
<!-- Node11&#45;&gt;Node14 -->
<g id="edge15" class="edge">
<title>Node11&#45;&gt;Node14</title>
<path fill="none" stroke="midnightblue" d="M202.76,-19.23C181.6,-16.67 160.65,-14.13 146.08,-12.37"/>
<polygon fill="midnightblue" stroke="midnightblue" points="202.46,-22.72 212.81,-20.44 203.3,-15.77 202.46,-22.72"/>
</g>
<!-- Node13 -->
<g id="node13" class="node">
<title>Node13</title>
<g id="a_node13"><a xlink:href="../../d3/db4/graph_draw_8cpp.html#a3c04138a5bfe5d72780bb7e82a18e627" target="_top" xlink:title=" ">
<polygon fill="none" stroke="black" points="0,-38.5 0,-57.5 38,-57.5 38,-38.5 0,-38.5"/>
<text text-anchor="middle" x="19" y="-45.5" font-family="Helvetica,sans-Serif" font-size="10.00">main</text>
</a>
</g>
</g>
<!-- Node12&#45;&gt;Node13 -->
<g id="edge14" class="edge">
<title>Node12&#45;&gt;Node13</title>
<path fill="none" stroke="midnightblue" d="M63.7,-48C54.49,-48 45.64,-48 38.35,-48"/>
<polygon fill="midnightblue" stroke="midnightblue" points="63.78,-51.5 73.78,-48 63.78,-44.5 63.78,-51.5"/>
</g>
<!-- Node15&#45;&gt;Node4 -->
<g id="edge19" class="edge">
<title>Node15&#45;&gt;Node4</title>
<path fill="none" stroke="midnightblue" d="M1271.67,-40.05C1291.29,-42.98 1314.58,-45.73 1335.77,-47.65"/>
<polygon fill="midnightblue" stroke="midnightblue" points="1272.2,-36.59 1261.78,-38.5 1271.11,-43.51 1272.2,-36.59"/>
</g>
</g>
</svg>
