<?xml version="1.0" encoding="UTF-8" standalone="no"?>
<!DOCTYPE svg PUBLIC "-//W3C//DTD SVG 1.1//EN"
 "http://www.w3.org/Graphics/SVG/1.1/DTD/svg11.dtd">
<!-- Generated by graphviz version 3.0.0 (20220413.0106)
 -->
<!-- Title: SyntaxAnalyzer::syntaxIfSt Pages: 1 -->
<svg width="1500pt" height="123pt"
 viewBox="0.00 0.00 1500.00 123.00" xmlns="http://www.w3.org/2000/svg" xmlns:xlink="http://www.w3.org/1999/xlink">
<g id="graph0" class="graph" transform="scale(1 1) rotate(0) translate(4 119)">
<title>SyntaxAnalyzer::syntaxIfSt</title>
<!-- Node1 -->
<g id="node1" class="node">
<title>Node1</title>
<g id="a_node1"><a xlink:title=" ">
<polygon fill="#bfbfbf" stroke="black" points="1361,-38.5 1361,-57.5 1492,-57.5 1492,-38.5 1361,-38.5"/>
<text text-anchor="middle" x="1426.5" y="-45.5" font-family="Helvetica,sans-Serif" font-size="10.00">SyntaxAnalyzer::syntaxIfSt</text>
</a>
</g>
</g>
<!-- Node2 -->
<g id="node2" class="node">
<title>Node2</title>
<g id="a_node2"><a xlink:href="../../d0/dfe/class_syntax_analyzer.html#a7f54bde730006b1b863290415809ab4e" target="_top" xlink:title=" ">
<polygon fill="none" stroke="black" points="1200,-38.5 1200,-57.5 1325,-57.5 1325,-38.5 1200,-38.5"/>
<text text-anchor="middle" x="1262.5" y="-45.5" font-family="Helvetica,sans-Serif" font-size="10.00">SyntaxAnalyzer::syntaxSt</text>
</a>
</g>
</g>
<!-- Node1&#45;&gt;Node2 -->
<g id="edge1" class="edge">
<title>Node1&#45;&gt;Node2</title>
<path fill="none" stroke="midnightblue" d="M1350.3,-41.27C1341.84,-41.22 1333.31,-41.27 1325.05,-41.43"/>
<polygon fill="midnightblue" stroke="midnightblue" points="1350.51,-44.77 1360.54,-41.37 1350.58,-37.77 1350.51,-44.77"/>
</g>
<!-- Node2&#45;&gt;Node1 -->
<g id="edge4" class="edge">
<title>Node2&#45;&gt;Node1</title>
<path fill="none" stroke="midnightblue" d="M1335.24,-54.71C1343.66,-54.78 1352.22,-54.76 1360.54,-54.63"/>
<polygon fill="midnightblue" stroke="midnightblue" points="1335.1,-51.21 1325.05,-54.57 1335.01,-58.21 1335.1,-51.21"/>
</g>
<!-- Node3 -->
<g id="node3" class="node">
<title>Node3</title>
<g id="a_node3"><a xlink:href="../../d0/dfe/class_syntax_analyzer.html#a82e8472ea6d1064871de0d05eaa8b374" target="_top" xlink:title=" ">
<polygon fill="none" stroke="black" points="1020,-95.5 1020,-114.5 1159,-114.5 1159,-95.5 1020,-95.5"/>
<text text-anchor="middle" x="1089.5" y="-102.5" font-family="Helvetica,sans-Serif" font-size="10.00">SyntaxAnalyzer::syntaxForSt</text>
</a>
</g>
</g>
<!-- Node2&#45;&gt;Node3 -->
<g id="edge2" class="edge">
<title>Node2&#45;&gt;Node3</title>
<path fill="none" stroke="midnightblue" d="M1208.94,-61.13C1194.5,-66.43 1178.75,-72.24 1164,-77 1143.31,-83.68 1118.75,-89.64 1103.91,-95.45"/>
<polygon fill="midnightblue" stroke="midnightblue" points="1210.51,-64.29 1218.7,-57.57 1208.1,-57.71 1210.51,-64.29"/>
</g>
<!-- Node4 -->
<g id="node4" class="node">
<title>Node4</title>
<g id="a_node4"><a xlink:href="../../d0/dfe/class_syntax_analyzer.html#a6df61a82ef9de3c17b78be89a321a087" target="_top" xlink:title=" ">
<polygon fill="none" stroke="black" points="1019,-57.5 1019,-76.5 1160,-76.5 1160,-57.5 1019,-57.5"/>
<text text-anchor="middle" x="1089.5" y="-64.5" font-family="Helvetica,sans-Serif" font-size="10.00">SyntaxAnalyzer::syntaxStList</text>
</a>
</g>
</g>
<!-- Node2&#45;&gt;Node4 -->
<g id="edge5" class="edge">
<title>Node2&#45;&gt;Node4</title>
<path fill="none" stroke="midnightblue" d="M1189.72,-55.98C1179.97,-57.06 1169.98,-58.17 1160.27,-59.25"/>
<polygon fill="midnightblue" stroke="midnightblue" points="1190.21,-59.44 1199.77,-54.86 1189.44,-52.49 1190.21,-59.44"/>
</g>
<!-- Node12 -->
<g id="node12" class="node">
<title>Node12</title>
<g id="a_node12"><a xlink:href="../../d0/dfe/class_syntax_analyzer.html#a64dad7f0b22b08d182483469d3a1aa79" target="_top" xlink:title=" ">
<polygon fill="none" stroke="black" points="1015,-19.5 1015,-38.5 1164,-38.5 1164,-19.5 1015,-19.5"/>
<text text-anchor="middle" x="1089.5" y="-26.5" font-family="Helvetica,sans-Serif" font-size="10.00">SyntaxAnalyzer::syntaxWhileSt</text>
</a>
</g>
</g>
<!-- Node2&#45;&gt;Node12 -->
<g id="edge15" class="edge">
<title>Node2&#45;&gt;Node12</title>
<path fill="none" stroke="midnightblue" d="M1216.01,-36.9C1200.14,-34.53 1181.89,-32.29 1164.32,-30.51"/>
<polygon fill="midnightblue" stroke="midnightblue" points="1215.65,-40.39 1226.07,-38.47 1216.73,-33.47 1215.65,-40.39"/>
</g>
<!-- Node3&#45;&gt;Node2 -->
<g id="edge3" class="edge">
<title>Node3&#45;&gt;Node2</title>
<path fill="none" stroke="midnightblue" d="M1168.73,-93.37C1202.98,-81.79 1235.74,-67.81 1251.67,-57.66"/>
<polygon fill="midnightblue" stroke="midnightblue" points="1167.44,-90.11 1159.04,-96.56 1169.64,-96.75 1167.44,-90.11"/>
</g>
<!-- Node5 -->
<g id="node5" class="node">
<title>Node5</title>
<g id="a_node5"><a xlink:href="../../d0/dfe/class_syntax_analyzer.html#a5770afdc4d32d2c38550f27f9ffd949a" target="_top" xlink:title=" ">
<polygon fill="none" stroke="black" points="808,-19.5 808,-38.5 979,-38.5 979,-19.5 808,-19.5"/>
<text text-anchor="middle" x="893.5" y="-26.5" font-family="Helvetica,sans-Serif" font-size="10.00">SyntaxAnalyzer::syntaxCompoundSt</text>
</a>
</g>
</g>
<!-- Node4&#45;&gt;Node5 -->
<g id="edge6" class="edge">
<title>Node4&#45;&gt;Node5</title>
<path fill="none" stroke="midnightblue" d="M1029.59,-55.46C1001.92,-50.04 969.34,-43.66 943.1,-38.52"/>
<polygon fill="midnightblue" stroke="midnightblue" points="1029.06,-58.92 1039.55,-57.41 1030.4,-52.05 1029.06,-58.92"/>
</g>
<!-- Node5&#45;&gt;Node2 -->
<g id="edge14" class="edge">
<title>Node5&#45;&gt;Node2</title>
<path fill="none" stroke="midnightblue" d="M946.56,-17.53C1001.18,-7.31 1089.3,4.04 1164,-10 1192.75,-15.4 1223.9,-29.04 1243.06,-38.42"/>
<polygon fill="midnightblue" stroke="midnightblue" points="945.59,-14.15 936.43,-19.48 946.91,-21.02 945.59,-14.15"/>
</g>
<!-- Node6 -->
<g id="node6" class="node">
<title>Node6</title>
<g id="a_node6"><a xlink:href="../../d0/dfe/class_syntax_analyzer.html#a2b54bac50e114b68e83c80d869b6ac7c" target="_top" xlink:title=" ">
<polygon fill="none" stroke="black" points="632,-19.5 632,-38.5 772,-38.5 772,-19.5 632,-19.5"/>
<text text-anchor="middle" x="702" y="-26.5" font-family="Helvetica,sans-Serif" font-size="10.00">SyntaxAnalyzer::syntaxBlock</text>
</a>
</g>
</g>
<!-- Node5&#45;&gt;Node6 -->
<g id="edge7" class="edge">
<title>Node5&#45;&gt;Node6</title>
<path fill="none" stroke="midnightblue" d="M797.63,-29C789.02,-29 780.41,-29 772.08,-29"/>
<polygon fill="midnightblue" stroke="midnightblue" points="797.73,-32.5 807.73,-29 797.73,-25.5 797.73,-32.5"/>
</g>
<!-- Node7 -->
<g id="node7" class="node">
<title>Node7</title>
<g id="a_node7"><a xlink:href="../../d0/dfe/class_syntax_analyzer.html#ae04232a95c6423677e600927c82851e4" target="_top" xlink:title=" ">
<polygon fill="none" stroke="black" points="444,-38.5 444,-57.5 596,-57.5 596,-38.5 444,-38.5"/>
<text text-anchor="middle" x="520" y="-45.5" font-family="Helvetica,sans-Serif" font-size="10.00">SyntaxAnalyzer::syntaxFuncDef</text>
</a>
</g>
</g>
<!-- Node6&#45;&gt;Node7 -->
<g id="edge8" class="edge">
<title>Node6&#45;&gt;Node7</title>
<path fill="none" stroke="midnightblue" d="M621.95,-37.34C613.39,-38.25 604.69,-39.17 596.18,-40.06"/>
<polygon fill="midnightblue" stroke="midnightblue" points="622.34,-40.82 631.92,-36.29 621.61,-33.86 622.34,-40.82"/>
</g>
<!-- Node8 -->
<g id="node8" class="node">
<title>Node8</title>
<g id="a_node8"><a xlink:href="../../d0/dfe/class_syntax_analyzer.html#a8b337bd5b4a90cd5bd804a936e408e4b" target="_top" xlink:title=" ">
<polygon fill="none" stroke="black" points="256,-19.5 256,-38.5 408,-38.5 408,-19.5 256,-19.5"/>
<text text-anchor="middle" x="332" y="-26.5" font-family="Helvetica,sans-Serif" font-size="10.00">SyntaxAnalyzer::syntaxProgram</text>
</a>
</g>
</g>
<!-- Node6&#45;&gt;Node8 -->
<g id="edge13" class="edge">
<title>Node6&#45;&gt;Node8</title>
<path fill="none" stroke="midnightblue" d="M621.46,-29C558.21,-29 470.34,-29 408.24,-29"/>
<polygon fill="midnightblue" stroke="midnightblue" points="621.78,-32.5 631.78,-29 621.78,-25.5 621.78,-32.5"/>
</g>
<!-- Node7&#45;&gt;Node8 -->
<g id="edge9" class="edge">
<title>Node7&#45;&gt;Node8</title>
<path fill="none" stroke="midnightblue" d="M433.85,-39.3C425.26,-38.42 416.57,-37.54 408.1,-36.67"/>
<polygon fill="midnightblue" stroke="midnightblue" points="433.58,-42.79 443.88,-40.33 434.29,-35.83 433.58,-42.79"/>
</g>
<!-- Node9 -->
<g id="node9" class="node">
<title>Node9</title>
<g id="a_node9"><a xlink:href="../../d0/dfe/class_syntax_analyzer.html#a96cd5f6a041dae613d1c75175e26592e" target="_top" xlink:title=" ">
<polygon fill="none" stroke="black" points="77,-19.5 77,-38.5 220,-38.5 220,-19.5 77,-19.5"/>
<text text-anchor="middle" x="148.5" y="-26.5" font-family="Helvetica,sans-Serif" font-size="10.00">SyntaxAnalyzer::parseTokens</text>
</a>
</g>
</g>
<!-- Node8&#45;&gt;Node9 -->
<g id="edge10" class="edge">
<title>Node8&#45;&gt;Node9</title>
<path fill="none" stroke="midnightblue" d="M245.84,-29C237.26,-29 228.61,-29 220.21,-29"/>
<polygon fill="midnightblue" stroke="midnightblue" points="245.87,-32.5 255.87,-29 245.87,-25.5 245.87,-32.5"/>
</g>
<!-- Node10 -->
<g id="node10" class="node">
<title>Node10</title>
<g id="a_node10"><a xlink:href="../../d3/db4/graph_draw_8cpp.html#a3c04138a5bfe5d72780bb7e82a18e627" target="_top" xlink:title=" ">
<polygon fill="none" stroke="black" points="1.5,-38.5 1.5,-57.5 39.5,-57.5 39.5,-38.5 1.5,-38.5"/>
<text text-anchor="middle" x="20.5" y="-45.5" font-family="Helvetica,sans-Serif" font-size="10.00">main</text>
</a>
</g>
</g>
<!-- Node9&#45;&gt;Node10 -->
<g id="edge11" class="edge">
<title>Node9&#45;&gt;Node10</title>
<path fill="none" stroke="midnightblue" d="M74.24,-40.05C61.4,-41.98 49.15,-43.83 39.69,-45.26"/>
<polygon fill="midnightblue" stroke="midnightblue" points="74.76,-43.51 84.13,-38.56 73.72,-36.59 74.76,-43.51"/>
</g>
<!-- Node11 -->
<g id="node11" class="node">
<title>Node11</title>
<g id="a_node11"><a xlink:href="../../dd/de9/test_syntax_8cpp.html#ac491df98e51a6bba8b808af414b6614f" target="_top" xlink:title="Тест синтаксического анализа Паскаля, простой тест">
<polygon fill="none" stroke="black" points="0,-0.5 0,-19.5 41,-19.5 41,-0.5 0,-0.5"/>
<text text-anchor="middle" x="20.5" y="-7.5" font-family="Helvetica,sans-Serif" font-size="10.00">TEST</text>
</a>
</g>
</g>
<!-- Node9&#45;&gt;Node11 -->
<g id="edge12" class="edge">
<title>Node9&#45;&gt;Node11</title>
<path fill="none" stroke="midnightblue" d="M73.88,-17.9C61.78,-16.07 50.22,-14.33 41.05,-12.95"/>
<polygon fill="midnightblue" stroke="midnightblue" points="73.72,-21.41 84.13,-19.44 74.76,-14.49 73.72,-21.41"/>
</g>
<!-- Node12&#45;&gt;Node2 -->
<g id="edge16" class="edge">
<title>Node12&#45;&gt;Node2</title>
<path fill="none" stroke="midnightblue" d="M1135.67,-40.05C1155.29,-42.98 1178.58,-45.73 1199.77,-47.65"/>
<polygon fill="midnightblue" stroke="midnightblue" points="1136.2,-36.59 1125.78,-38.5 1135.11,-43.51 1136.2,-36.59"/>
</g>
</g>
</svg>
