<?xml version="1.0" encoding="UTF-8" standalone="no"?>
<!DOCTYPE svg PUBLIC "-//W3C//DTD SVG 1.1//EN"
 "http://www.w3.org/Graphics/SVG/1.1/DTD/svg11.dtd">
<!-- Generated by graphviz version 3.0.0 (20220413.0106)
 -->
<!-- Title: SyntaxAnalyzer::syntaxVars Pages: 1 -->
<svg width="861pt" height="263pt"
 viewBox="0.00 0.00 861.00 263.08" xmlns="http://www.w3.org/2000/svg" xmlns:xlink="http://www.w3.org/1999/xlink">
<g id="graph0" class="graph" transform="scale(1 1) rotate(0) translate(4 259.08)">
<title>SyntaxAnalyzer::syntaxVars</title>
<!-- Node1 -->
<g id="node1" class="node">
<title>Node1</title>
<g id="a_node1"><a xlink:title=" ">
<polygon fill="#bfbfbf" stroke="black" points="0,-152.5 0,-171.5 135,-171.5 135,-152.5 0,-152.5"/>
<text text-anchor="middle" x="67.5" y="-159.5" font-family="Helvetica,sans-Serif" font-size="10.00">SyntaxAnalyzer::syntaxVars</text>
</a>
</g>
</g>
<!-- Node2 -->
<g id="node2" class="node">
<title>Node2</title>
<g id="a_node2"><a xlink:href="../../d0/dfe/class_syntax_analyzer.html#ae1d3434e5cc4b4bcd5a3a245814a44f0" target="_top" xlink:title=" ">
<polygon fill="none" stroke="black" points="384.5,-218.5 384.5,-237.5 485.5,-237.5 485.5,-218.5 384.5,-218.5"/>
<text text-anchor="middle" x="435" y="-225.5" font-family="Helvetica,sans-Serif" font-size="10.00">SyntaxAnalyzer::eat</text>
</a>
</g>
</g>
<!-- Node1&#45;&gt;Node2 -->
<g id="edge1" class="edge">
<title>Node1&#45;&gt;Node2</title>
<path fill="none" stroke="midnightblue" d="M121.26,-171.53C188.43,-183.66 304.19,-204.56 374.46,-217.25"/>
<polygon fill="midnightblue" stroke="midnightblue" points="374.02,-220.73 384.48,-219.06 375.26,-213.84 374.02,-220.73"/>
</g>
<!-- Node3 -->
<g id="node3" class="node">
<title>Node3</title>
<g id="a_node3"><a xlink:href="../../d0/dfe/class_syntax_analyzer.html#a3ae6c7319e61cd669c417f189b098374" target="_top" xlink:title=" ">
<polygon fill="none" stroke="black" points="713,-152.5 713,-171.5 845,-171.5 845,-152.5 713,-152.5"/>
<text text-anchor="middle" x="779" y="-159.5" font-family="Helvetica,sans-Serif" font-size="10.00">SyntaxAnalyzer::getCurTok</text>
</a>
</g>
</g>
<!-- Node1&#45;&gt;Node3 -->
<g id="edge4" class="edge">
<title>Node1&#45;&gt;Node3</title>
<path fill="none" stroke="midnightblue" d="M135.25,-162C267.84,-162 563.61,-162 702.82,-162"/>
<polygon fill="midnightblue" stroke="midnightblue" points="702.97,-165.5 712.97,-162 702.97,-158.5 702.97,-165.5"/>
</g>
<!-- Node5 -->
<g id="node5" class="node">
<title>Node5</title>
<g id="a_node5"><a xlink:href="../../d0/dfe/class_syntax_analyzer.html#a8f6dda26a96ec0e5e75bea5eed577856" target="_top" xlink:title=" ">
<polygon fill="none" stroke="black" points="171,-114.5 171,-133.5 320,-133.5 320,-114.5 171,-114.5"/>
<text text-anchor="middle" x="245.5" y="-121.5" font-family="Helvetica,sans-Serif" font-size="10.00">SyntaxAnalyzer::syntaxVarDecl</text>
</a>
</g>
</g>
<!-- Node1&#45;&gt;Node5 -->
<g id="edge5" class="edge">
<title>Node1&#45;&gt;Node5</title>
<path fill="none" stroke="midnightblue" d="M112.91,-152.41C136.45,-147.33 165.56,-141.04 190.4,-135.68"/>
<polygon fill="midnightblue" stroke="midnightblue" points="191.37,-139.05 200.41,-133.52 189.89,-132.21 191.37,-139.05"/>
</g>
<!-- Node2&#45;&gt;Node3 -->
<g id="edge2" class="edge">
<title>Node2&#45;&gt;Node3</title>
<path fill="none" stroke="midnightblue" d="M485.57,-232.31C533.39,-235.03 607.39,-235.4 669,-219 701.18,-210.43 734.59,-191.16 755.8,-177.39"/>
<polygon fill="midnightblue" stroke="midnightblue" points="757.98,-180.15 764.37,-171.7 754.11,-174.32 757.98,-180.15"/>
</g>
<!-- Node4 -->
<g id="node4" class="node">
<title>Node4</title>
<g id="a_node4"><a xlink:href="../../d0/dfe/class_syntax_analyzer.html#a9e41370d8d74fbd2e77648d2071e7dfe" target="_top" xlink:title=" ">
<polygon fill="none" stroke="black" points="705,-228.5 705,-247.5 853,-247.5 853,-228.5 705,-228.5"/>
<text text-anchor="middle" x="779" y="-235.5" font-family="Helvetica,sans-Serif" font-size="10.00">SyntaxAnalyzer::getNextToken</text>
</a>
</g>
</g>
<!-- Node2&#45;&gt;Node4 -->
<g id="edge3" class="edge">
<title>Node2&#45;&gt;Node4</title>
<path fill="none" stroke="midnightblue" d="M471.89,-237.55C494.19,-242.99 523.55,-249.25 550,-252 601.41,-257.35 659.58,-253.63 704.29,-248.68"/>
<polygon fill="midnightblue" stroke="midnightblue" points="704.96,-252.12 714.49,-247.5 704.15,-245.17 704.96,-252.12"/>
</g>
<!-- Node5&#45;&gt;Node2 -->
<g id="edge10" class="edge">
<title>Node5&#45;&gt;Node2</title>
<path fill="none" stroke="midnightblue" d="M263.8,-133.6C296.73,-151.86 368.59,-191.72 407.58,-213.35"/>
<polygon fill="midnightblue" stroke="midnightblue" points="406.3,-216.64 416.74,-218.43 409.69,-210.51 406.3,-216.64"/>
</g>
<!-- Node5&#45;&gt;Node3 -->
<g id="edge11" class="edge">
<title>Node5&#45;&gt;Node3</title>
<path fill="none" stroke="midnightblue" d="M320.27,-126.6C404.68,-129.95 547.01,-136.72 669,-148 679.91,-149.01 691.41,-150.27 702.68,-151.62"/>
<polygon fill="midnightblue" stroke="midnightblue" points="702.6,-155.13 712.95,-152.88 703.45,-148.19 702.6,-155.13"/>
</g>
<!-- Node6 -->
<g id="node6" class="node">
<title>Node6</title>
<g id="a_node6"><a xlink:href="../../d7/d7c/class_a_s_t_factory.html#a8d1d4c9d01ab2e366d1af6bbaeaf7bef" target="_top" xlink:title=" ">
<polygon fill="none" stroke="black" points="550,-38.5 550,-57.5 669,-57.5 669,-38.5 550,-38.5"/>
<text text-anchor="middle" x="609.5" y="-45.5" font-family="Helvetica,sans-Serif" font-size="10.00">ASTFactory::createAST</text>
</a>
</g>
</g>
<!-- Node5&#45;&gt;Node6 -->
<g id="edge6" class="edge">
<title>Node5&#45;&gt;Node6</title>
<path fill="none" stroke="midnightblue" d="M260.25,-114.48C280.27,-101.19 319.1,-77.51 356,-67 416.54,-49.75 488.36,-45.86 539.9,-45.77"/>
<polygon fill="midnightblue" stroke="midnightblue" points="539.92,-49.27 549.93,-45.8 539.94,-42.27 539.92,-49.27"/>
</g>
<!-- Node10 -->
<g id="node10" class="node">
<title>Node10</title>
<g id="a_node10"><a xlink:href="../../d0/dfe/class_syntax_analyzer.html#a5d262eb9e2236dde3bd043eea0b0e957" target="_top" xlink:title=" ">
<polygon fill="none" stroke="black" points="356,-76.5 356,-95.5 514,-95.5 514,-76.5 356,-76.5"/>
<text text-anchor="middle" x="435" y="-83.5" font-family="Helvetica,sans-Serif" font-size="10.00">SyntaxAnalyzer::syntaxTypeSpec</text>
</a>
</g>
</g>
<!-- Node5&#45;&gt;Node10 -->
<g id="edge12" class="edge">
<title>Node5&#45;&gt;Node10</title>
<path fill="none" stroke="midnightblue" d="M293.81,-114.41C319.11,-109.28 350.45,-102.93 377.07,-97.54"/>
<polygon fill="midnightblue" stroke="midnightblue" points="377.92,-100.94 387.03,-95.52 376.53,-94.08 377.92,-100.94"/>
</g>
<!-- Node7 -->
<g id="node7" class="node">
<title>Node7</title>
<g id="a_node7"><a xlink:href="../../d0/d11/class_i_token.html#ac8ca7f7e601ae49ad573167a4e9429cb" target="_top" xlink:title=" ">
<polygon fill="none" stroke="black" points="727.5,-0.5 727.5,-19.5 830.5,-19.5 830.5,-0.5 727.5,-0.5"/>
<text text-anchor="middle" x="779" y="-7.5" font-family="Helvetica,sans-Serif" font-size="10.00">IToken::getAdvType</text>
</a>
</g>
</g>
<!-- Node6&#45;&gt;Node7 -->
<g id="edge7" class="edge">
<title>Node6&#45;&gt;Node7</title>
<path fill="none" stroke="midnightblue" d="M652.77,-38.41C675.07,-33.35 702.62,-27.1 726.2,-21.75"/>
<polygon fill="midnightblue" stroke="midnightblue" points="727.06,-25.15 736.04,-19.52 725.51,-18.32 727.06,-25.15"/>
</g>
<!-- Node8 -->
<g id="node8" class="node">
<title>Node8</title>
<g id="a_node8"><a xlink:href="../../d0/d11/class_i_token.html#a568cb9d98839eff3fd758f419a76b092" target="_top" xlink:title="Получение типа токена">
<polygon fill="none" stroke="black" points="736,-76.5 736,-95.5 822,-95.5 822,-76.5 736,-76.5"/>
<text text-anchor="middle" x="779" y="-83.5" font-family="Helvetica,sans-Serif" font-size="10.00">IToken::getType</text>
</a>
</g>
</g>
<!-- Node6&#45;&gt;Node8 -->
<g id="edge8" class="edge">
<title>Node6&#45;&gt;Node8</title>
<path fill="none" stroke="midnightblue" d="M652.77,-57.59C675.07,-62.65 702.62,-68.9 726.2,-74.25"/>
<polygon fill="midnightblue" stroke="midnightblue" points="725.51,-77.68 736.04,-76.48 727.06,-70.85 725.51,-77.68"/>
</g>
<!-- Node9 -->
<g id="node9" class="node">
<title>Node9</title>
<g id="a_node9"><a xlink:href="../../db/dc1/class_token.html#a1f07fa2fffeb2f7ab803ef8b424eae8a" target="_top" xlink:title=" ">
<polygon fill="none" stroke="black" points="742,-38.5 742,-57.5 816,-57.5 816,-38.5 742,-38.5"/>
<text text-anchor="middle" x="779" y="-45.5" font-family="Helvetica,sans-Serif" font-size="10.00">Token::setStr</text>
</a>
</g>
</g>
<!-- Node6&#45;&gt;Node9 -->
<g id="edge9" class="edge">
<title>Node6&#45;&gt;Node9</title>
<path fill="none" stroke="midnightblue" d="M669.08,-48C689.56,-48 712.24,-48 731.58,-48"/>
<polygon fill="midnightblue" stroke="midnightblue" points="731.66,-51.5 741.65,-48 731.65,-44.5 731.66,-51.5"/>
</g>
<!-- Node10&#45;&gt;Node3 -->
<g id="edge17" class="edge">
<title>Node10&#45;&gt;Node3</title>
<path fill="none" stroke="midnightblue" d="M514.11,-87.4C559.96,-89.85 618.59,-95.84 669,-110 699.59,-118.6 732.17,-135.24 753.66,-147.39"/>
<polygon fill="midnightblue" stroke="midnightblue" points="752.01,-150.48 762.42,-152.45 755.51,-144.42 752.01,-150.48"/>
</g>
<!-- Node10&#45;&gt;Node6 -->
<g id="edge13" class="edge">
<title>Node10&#45;&gt;Node6</title>
<path fill="none" stroke="midnightblue" d="M479.53,-76.41C502.6,-71.33 531.13,-65.04 555.48,-59.68"/>
<polygon fill="midnightblue" stroke="midnightblue" points="556.27,-63.09 565.28,-57.52 554.77,-56.25 556.27,-63.09"/>
</g>
<!-- Node11 -->
<g id="node11" class="node">
<title>Node11</title>
<g id="a_node11"><a xlink:href="../../d0/dfe/class_syntax_analyzer.html#a9952c4a2db0a1382b9c94f40dd535fae" target="_top" xlink:title=" ">
<polygon fill="none" stroke="black" points="550.5,-190.5 550.5,-209.5 668.5,-209.5 668.5,-190.5 550.5,-190.5"/>
<text text-anchor="middle" x="609.5" y="-197.5" font-family="Helvetica,sans-Serif" font-size="10.00">SyntaxAnalyzer::eatAdv</text>
</a>
</g>
</g>
<!-- Node10&#45;&gt;Node11 -->
<g id="edge14" class="edge">
<title>Node10&#45;&gt;Node11</title>
<path fill="none" stroke="midnightblue" d="M450.41,-95.52C480.27,-115.26 549.12,-160.76 585.31,-184.68"/>
<polygon fill="midnightblue" stroke="midnightblue" points="583.49,-187.67 593.76,-190.26 587.35,-181.83 583.49,-187.67"/>
</g>
<!-- Node11&#45;&gt;Node3 -->
<g id="edge15" class="edge">
<title>Node11&#45;&gt;Node3</title>
<path fill="none" stroke="midnightblue" d="M652.77,-190.41C675.07,-185.35 702.62,-179.1 726.2,-173.75"/>
<polygon fill="midnightblue" stroke="midnightblue" points="727.06,-177.15 736.04,-171.52 725.51,-170.32 727.06,-177.15"/>
</g>
<!-- Node11&#45;&gt;Node4 -->
<g id="edge16" class="edge">
<title>Node11&#45;&gt;Node4</title>
<path fill="none" stroke="midnightblue" d="M652.77,-209.59C675.07,-214.65 702.62,-220.9 726.2,-226.25"/>
<polygon fill="midnightblue" stroke="midnightblue" points="725.51,-229.68 736.04,-228.48 727.06,-222.85 725.51,-229.68"/>
</g>
</g>
</svg>
