<?xml version="1.0" encoding="UTF-8" standalone="no"?>
<!DOCTYPE svg PUBLIC "-//W3C//DTD SVG 1.1//EN"
 "http://www.w3.org/Graphics/SVG/1.1/DTD/svg11.dtd">
<!-- Generated by graphviz version 2.43.0 (0)
 -->
<!-- Title: SyntaxAnalyzer::constants Pages: 1 -->
<svg width="725pt" height="124pt"
 viewBox="0.00 0.00 725.00 124.43" xmlns="http://www.w3.org/2000/svg" xmlns:xlink="http://www.w3.org/1999/xlink">
<g id="graph0" class="graph" transform="scale(1 1) rotate(0) translate(4 120.43)">
<title>SyntaxAnalyzer::constants</title>
<!-- Node1 -->
<g id="node1" class="node">
<title>Node1</title>
<g id="a_node1"><a xlink:title=" ">
<polygon fill="#bfbfbf" stroke="black" points="0,-58.93 0,-77.93 146,-77.93 146,-58.93 0,-58.93"/>
<text text-anchor="middle" x="73" y="-65.93" font-family="Helvetica,sans-Serif" font-size="10.00">SyntaxAnalyzer::constants</text>
</a>
</g>
</g>
<!-- Node2 -->
<g id="node2" class="node">
<title>Node2</title>
<g id="a_node2"><a xlink:href="../../d0/dfe/class_syntax_analyzer.html#a57edc8da8ac60964610b99528b3d23d5" target="_top" xlink:title=" ">
<polygon fill="none" stroke="black" points="182,-58.93 182,-77.93 364,-77.93 364,-58.93 182,-58.93"/>
<text text-anchor="middle" x="273" y="-65.93" font-family="Helvetica,sans-Serif" font-size="10.00">SyntaxAnalyzer::constDeclaration</text>
</a>
</g>
</g>
<!-- Node1&#45;&gt;Node2 -->
<g id="edge1" class="edge">
<title>Node1&#45;&gt;Node2</title>
<path fill="none" stroke="midnightblue" d="M146.04,-68.43C154.39,-68.43 163.01,-68.43 171.64,-68.43"/>
<polygon fill="midnightblue" stroke="midnightblue" points="171.77,-71.93 181.77,-68.43 171.77,-64.93 171.77,-71.93"/>
</g>
<!-- Node3 -->
<g id="node3" class="node">
<title>Node3</title>
<g id="a_node3"><a xlink:href="../../d0/dfe/class_syntax_analyzer.html#a5d17bcae2fd7dc11d0710e046c4c3280" target="_top" xlink:title=" ">
<polygon fill="none" stroke="black" points="400,-96.93 400,-115.93 515,-115.93 515,-96.93 400,-96.93"/>
<text text-anchor="middle" x="457.5" y="-103.93" font-family="Helvetica,sans-Serif" font-size="10.00">SyntaxAnalyzer::eat</text>
</a>
</g>
</g>
<!-- Node1&#45;&gt;Node3 -->
<g id="edge7" class="edge">
<title>Node1&#45;&gt;Node3</title>
<path fill="none" stroke="midnightblue" d="M121.69,-77.93C140.42,-81.37 162.16,-85.01 182,-87.43 252.64,-96.06 334.03,-101.08 389.73,-103.77"/>
<polygon fill="midnightblue" stroke="midnightblue" points="389.67,-107.27 399.82,-104.25 390,-100.28 389.67,-107.27"/>
</g>
<!-- Node4 -->
<g id="node4" class="node">
<title>Node4</title>
<g id="a_node4"><a xlink:href="../../d0/dfe/class_syntax_analyzer.html#a3ae6c7319e61cd669c417f189b098374" target="_top" xlink:title=" ">
<polygon fill="none" stroke="black" points="560,-58.93 560,-77.93 708,-77.93 708,-58.93 560,-58.93"/>
<text text-anchor="middle" x="634" y="-65.93" font-family="Helvetica,sans-Serif" font-size="10.00">SyntaxAnalyzer::getCurTok</text>
</a>
</g>
</g>
<!-- Node1&#45;&gt;Node4 -->
<g id="edge8" class="edge">
<title>Node1&#45;&gt;Node4</title>
<path fill="none" stroke="midnightblue" d="M99.66,-58.87C167.96,-34.76 359.6,24.14 515,-11.43 550.09,-19.46 586.87,-39.33 609.86,-53.35"/>
<polygon fill="midnightblue" stroke="midnightblue" points="608.19,-56.43 618.53,-58.76 611.9,-50.5 608.19,-56.43"/>
</g>
<!-- Node2&#45;&gt;Node3 -->
<g id="edge2" class="edge">
<title>Node2&#45;&gt;Node3</title>
<path fill="none" stroke="midnightblue" d="M320.05,-78.02C344.57,-83.12 374.91,-89.44 400.75,-94.82"/>
<polygon fill="midnightblue" stroke="midnightblue" points="400.28,-98.3 410.78,-96.91 401.7,-91.45 400.28,-98.3"/>
</g>
<!-- Node2&#45;&gt;Node4 -->
<g id="edge5" class="edge">
<title>Node2&#45;&gt;Node4</title>
<path fill="none" stroke="midnightblue" d="M364.13,-68.43C421.03,-68.43 494.01,-68.43 549.58,-68.43"/>
<polygon fill="midnightblue" stroke="midnightblue" points="549.74,-71.93 559.74,-68.43 549.74,-64.93 549.74,-71.93"/>
</g>
<!-- Node6 -->
<g id="node6" class="node">
<title>Node6</title>
<g id="a_node6"><a xlink:href="../../df/d3f/_syntax_8hpp.html#ae7d62ca130413d4c96863327c1af81a4" target="_top" xlink:title="Возвращает истину, если value находится среди значений cont.">
<polygon fill="none" stroke="black" points="440.5,-20.93 440.5,-39.93 474.5,-39.93 474.5,-20.93 440.5,-20.93"/>
<text text-anchor="middle" x="457.5" y="-27.93" font-family="Helvetica,sans-Serif" font-size="10.00">isIn</text>
</a>
</g>
</g>
<!-- Node2&#45;&gt;Node6 -->
<g id="edge6" class="edge">
<title>Node2&#45;&gt;Node6</title>
<path fill="none" stroke="midnightblue" d="M320.05,-58.84C354.88,-51.59 401.47,-41.89 430.21,-35.91"/>
<polygon fill="midnightblue" stroke="midnightblue" points="431.21,-39.27 440.28,-33.81 429.78,-32.42 431.21,-39.27"/>
</g>
<!-- Node3&#45;&gt;Node4 -->
<g id="edge3" class="edge">
<title>Node3&#45;&gt;Node4</title>
<path fill="none" stroke="midnightblue" d="M502.53,-96.84C525.87,-91.76 554.73,-85.48 579.37,-80.11"/>
<polygon fill="midnightblue" stroke="midnightblue" points="580.26,-83.5 589.28,-77.95 578.77,-76.66 580.26,-83.5"/>
</g>
<!-- Node5 -->
<g id="node5" class="node">
<title>Node5</title>
<g id="a_node5"><a xlink:href="../../d0/dfe/class_syntax_analyzer.html#a9e41370d8d74fbd2e77648d2071e7dfe" target="_top" xlink:title=" ">
<polygon fill="none" stroke="black" points="551,-96.93 551,-115.93 717,-115.93 717,-96.93 551,-96.93"/>
<text text-anchor="middle" x="634" y="-103.93" font-family="Helvetica,sans-Serif" font-size="10.00">SyntaxAnalyzer::getNextToken</text>
</a>
</g>
</g>
<!-- Node3&#45;&gt;Node5 -->
<g id="edge4" class="edge">
<title>Node3&#45;&gt;Node5</title>
<path fill="none" stroke="midnightblue" d="M515.16,-106.43C523.38,-106.43 532.02,-106.43 540.73,-106.43"/>
<polygon fill="midnightblue" stroke="midnightblue" points="540.96,-109.93 550.96,-106.43 540.96,-102.93 540.96,-109.93"/>
</g>
</g>
</svg>
