<?xml version="1.0" encoding="UTF-8" standalone="no"?>
<!DOCTYPE svg PUBLIC "-//W3C//DTD SVG 1.1//EN"
 "http://www.w3.org/Graphics/SVG/1.1/DTD/svg11.dtd">
<!-- Generated by graphviz version 3.0.0 (20220413.0106)
 -->
<!-- Title: SyntaxAnalyzer::syntaxProgram Pages: 1 -->
<svg width="2886pt" height="2646pt"
 viewBox="0.00 0.00 2886.00 2645.58" xmlns="http://www.w3.org/2000/svg" xmlns:xlink="http://www.w3.org/1999/xlink">
<g id="graph0" class="graph" transform="scale(1 1) rotate(0) translate(4 2641.58)">
<title>SyntaxAnalyzer::syntaxProgram</title>
<!-- Node1 -->
<g id="node1" class="node">
<title>Node1</title>
<g id="a_node1"><a xlink:title=" ">
<polygon fill="#bfbfbf" stroke="black" points="0,-1905.41 0,-1924.41 152,-1924.41 152,-1905.41 0,-1905.41"/>
<text text-anchor="middle" x="76" y="-1912.41" font-family="Helvetica,sans-Serif" font-size="10.00">SyntaxAnalyzer::syntaxProgram</text>
</a>
</g>
</g>
<!-- Node2 -->
<g id="node2" class="node">
<title>Node2</title>
<g id="a_node2"><a xlink:href="../../d7/d7c/class_a_s_t_factory.html#a8d1d4c9d01ab2e366d1af6bbaeaf7bef" target="_top" xlink:title=" ">
<polygon fill="none" stroke="black" points="2575,-1905.41 2575,-1924.41 2694,-1924.41 2694,-1905.41 2575,-1905.41"/>
<text text-anchor="middle" x="2634.5" y="-1912.41" font-family="Helvetica,sans-Serif" font-size="10.00">ASTFactory::createAST</text>
</a>
</g>
</g>
<!-- Node1&#45;&gt;Node2 -->
<g id="edge1" class="edge">
<title>Node1&#45;&gt;Node2</title>
<path fill="none" stroke="midnightblue" d="M78.3,-1924.81C88.82,-2000.5 167.02,-2484.91 445,-2484.91 445,-2484.91 445,-2484.91 1167.5,-2484.91 1321.61,-2484.91 2429.5,-2386.36 2539,-2277.91 2564.25,-2252.9 2615.16,-2006.54 2629.6,-1934.56"/>
<polygon fill="midnightblue" stroke="midnightblue" points="2633.07,-1935.06 2631.6,-1924.57 2626.21,-1933.69 2633.07,-1935.06"/>
</g>
<!-- Node6 -->
<g id="node6" class="node">
<title>Node6</title>
<g id="a_node6"><a xlink:href="../../d0/dfe/class_syntax_analyzer.html#ae1d3434e5cc4b4bcd5a3a245814a44f0" target="_top" xlink:title=" ">
<polygon fill="none" stroke="black" points="2584,-614.41 2584,-633.41 2685,-633.41 2685,-614.41 2584,-614.41"/>
<text text-anchor="middle" x="2634.5" y="-621.41" font-family="Helvetica,sans-Serif" font-size="10.00">SyntaxAnalyzer::eat</text>
</a>
</g>
</g>
<!-- Node1&#45;&gt;Node6 -->
<g id="edge5" class="edge">
<title>Node1&#45;&gt;Node6</title>
<path fill="none" stroke="midnightblue" d="M77.32,-1905.34C81.07,-1796.89 117.25,-797.4 188,-509.91 245.36,-276.84 204.97,-34.91 445,-34.91 445,-34.91 445,-34.91 1904,-34.91 2188.34,-34.91 2331.94,81.96 2539,-112.91 2575.86,-147.6 2620.71,-514.12 2631.22,-604.06"/>
<polygon fill="midnightblue" stroke="midnightblue" points="2627.75,-604.51 2632.38,-614.04 2634.7,-603.7 2627.75,-604.51"/>
</g>
<!-- Node7 -->
<g id="node7" class="node">
<title>Node7</title>
<g id="a_node7"><a xlink:href="../../d0/dfe/class_syntax_analyzer.html#a3ae6c7319e61cd669c417f189b098374" target="_top" xlink:title=" ">
<polygon fill="none" stroke="black" points="2738,-1316.41 2738,-1335.41 2870,-1335.41 2870,-1316.41 2738,-1316.41"/>
<text text-anchor="middle" x="2804" y="-1323.41" font-family="Helvetica,sans-Serif" font-size="10.00">SyntaxAnalyzer::getCurTok</text>
</a>
</g>
</g>
<!-- Node1&#45;&gt;Node7 -->
<g id="edge8" class="edge">
<title>Node1&#45;&gt;Node7</title>
<path fill="none" stroke="midnightblue" d="M77.69,-1924.64C82.74,-1993.53 115.81,-2407.81 188,-2506.91 263.36,-2610.38 317,-2636.91 445,-2636.91 445,-2636.91 445,-2636.91 2460,-2636.91 2569.35,-2636.91 2627.42,-2647.65 2694,-2560.91 2740.34,-2500.54 2723,-1952.69 2730,-1876.91 2749.26,-1668.48 2788.3,-1417.65 2799.76,-1345.94"/>
<polygon fill="midnightblue" stroke="midnightblue" points="2803.28,-1346.09 2801.41,-1335.66 2796.37,-1344.98 2803.28,-1346.09"/>
</g>
<!-- Node9 -->
<g id="node9" class="node">
<title>Node9</title>
<g id="a_node9"><a xlink:href="../../db/d0e/sup_8hpp.html#ae7d62ca130413d4c96863327c1af81a4" target="_top" xlink:title="Возвращает истину, если value находится среди значений cont.">
<polygon fill="none" stroke="black" points="2252.5,-975.41 2252.5,-994.41 2284.5,-994.41 2284.5,-975.41 2252.5,-975.41"/>
<text text-anchor="middle" x="2268.5" y="-982.41" font-family="Helvetica,sans-Serif" font-size="10.00">isIn</text>
</a>
</g>
</g>
<!-- Node1&#45;&gt;Node9 -->
<g id="edge9" class="edge">
<title>Node1&#45;&gt;Node9</title>
<path fill="none" stroke="midnightblue" d="M77.45,-1905.21C83.35,-1783.98 149.95,-566.91 445,-566.91 445,-566.91 445,-566.91 830.5,-566.91 1133.36,-566.91 2076.34,-913.57 2242.4,-975.5"/>
<polygon fill="midnightblue" stroke="midnightblue" points="2241.6,-978.94 2252.2,-979.16 2244.05,-972.38 2241.6,-978.94"/>
</g>
<!-- Node10 -->
<g id="node10" class="node">
<title>Node10</title>
<g id="a_node10"><a xlink:href="../../d0/d11/class_i_token.html#a4fa3435db7157ca7316d4e4aee1df4c0" target="_top" xlink:title="Устанавливает дополнительный тип токена">
<polygon fill="none" stroke="black" points="2583,-2532.41 2583,-2551.41 2686,-2551.41 2686,-2532.41 2583,-2532.41"/>
<text text-anchor="middle" x="2634.5" y="-2539.41" font-family="Helvetica,sans-Serif" font-size="10.00">IToken::setAdvType</text>
</a>
</g>
</g>
<!-- Node1&#45;&gt;Node10 -->
<g id="edge10" class="edge">
<title>Node1&#45;&gt;Node10</title>
<path fill="none" stroke="midnightblue" d="M77.44,-1924.58C81.8,-2007.72 124.07,-2598.91 445,-2598.91 445,-2598.91 445,-2598.91 2269.5,-2598.91 2390.07,-2598.91 2420.64,-2590.86 2539,-2567.91 2557.12,-2564.4 2576.86,-2559.19 2593.58,-2554.36"/>
<polygon fill="midnightblue" stroke="midnightblue" points="2594.96,-2557.6 2603.56,-2551.42 2592.98,-2550.89 2594.96,-2557.6"/>
</g>
<!-- Node11 -->
<g id="node11" class="node">
<title>Node11</title>
<g id="a_node11"><a xlink:href="../../d0/dfe/class_syntax_analyzer.html#a2b54bac50e114b68e83c80d869b6ac7c" target="_top" xlink:title=" ">
<polygon fill="none" stroke="black" points="376,-1905.41 376,-1924.41 516,-1924.41 516,-1905.41 376,-1905.41"/>
<text text-anchor="middle" x="446" y="-1912.41" font-family="Helvetica,sans-Serif" font-size="10.00">SyntaxAnalyzer::syntaxBlock</text>
</a>
</g>
</g>
<!-- Node1&#45;&gt;Node11 -->
<g id="edge11" class="edge">
<title>Node1&#45;&gt;Node11</title>
<path fill="none" stroke="midnightblue" d="M152.36,-1914.91C214.51,-1914.91 302.42,-1914.91 365.64,-1914.91"/>
<polygon fill="midnightblue" stroke="midnightblue" points="365.96,-1918.41 375.96,-1914.91 365.96,-1911.41 365.96,-1918.41"/>
</g>
<!-- Node36 -->
<g id="node36" class="node">
<title>Node36</title>
<g id="a_node36"><a xlink:href="../../d0/dfe/class_syntax_analyzer.html#ae04232a95c6423677e600927c82851e4" target="_top" xlink:title=" ">
<polygon fill="none" stroke="black" points="188,-519.41 188,-538.41 340,-538.41 340,-519.41 188,-519.41"/>
<text text-anchor="middle" x="264" y="-526.41" font-family="Helvetica,sans-Serif" font-size="10.00">SyntaxAnalyzer::syntaxFuncDef</text>
</a>
</g>
</g>
<!-- Node1&#45;&gt;Node36 -->
<g id="edge127" class="edge">
<title>Node1&#45;&gt;Node36</title>
<path fill="none" stroke="midnightblue" d="M77.14,-1905.25C78.92,-1789.24 98.46,-665.66 188,-552.91 190.9,-549.26 194.36,-546.16 198.18,-543.52"/>
<polygon fill="midnightblue" stroke="midnightblue" points="200.08,-546.46 207.03,-538.45 196.61,-540.38 200.08,-546.46"/>
</g>
<!-- Node3 -->
<g id="node3" class="node">
<title>Node3</title>
<g id="a_node3"><a xlink:href="../../d0/d11/class_i_token.html#a3e73305ee0ac36d0bf5f26b649589b24" target="_top" xlink:title=" ">
<polygon fill="none" stroke="black" points="2752.5,-1924.41 2752.5,-1943.41 2855.5,-1943.41 2855.5,-1924.41 2752.5,-1924.41"/>
<text text-anchor="middle" x="2804" y="-1931.41" font-family="Helvetica,sans-Serif" font-size="10.00">IToken::getAdvType</text>
</a>
</g>
</g>
<!-- Node2&#45;&gt;Node3 -->
<g id="edge2" class="edge">
<title>Node2&#45;&gt;Node3</title>
<path fill="none" stroke="midnightblue" d="M2694.08,-1921.56C2709.64,-1923.32 2726.47,-1925.23 2742.14,-1927.01"/>
<polygon fill="midnightblue" stroke="midnightblue" points="2741.92,-1930.51 2752.25,-1928.15 2742.71,-1923.55 2741.92,-1930.51"/>
</g>
<!-- Node4 -->
<g id="node4" class="node">
<title>Node4</title>
<g id="a_node4"><a xlink:href="../../d0/d11/class_i_token.html#ac7f0a800d7a9e8608bab0360c76d735a" target="_top" xlink:title="Получение типа токена">
<polygon fill="none" stroke="black" points="2761,-528.41 2761,-547.41 2847,-547.41 2847,-528.41 2761,-528.41"/>
<text text-anchor="middle" x="2804" y="-535.41" font-family="Helvetica,sans-Serif" font-size="10.00">IToken::getType</text>
</a>
</g>
</g>
<!-- Node2&#45;&gt;Node4 -->
<g id="edge3" class="edge">
<title>Node2&#45;&gt;Node4</title>
<path fill="none" stroke="midnightblue" d="M2637.49,-1905.2C2645.98,-1863.39 2679.37,-1694.42 2694,-1553.91 2729.42,-1213.6 2673.1,-1122.3 2730,-784.91 2744.68,-697.89 2780.11,-598.24 2795.57,-557.15"/>
<polygon fill="midnightblue" stroke="midnightblue" points="2798.93,-558.19 2799.21,-547.59 2792.38,-555.7 2798.93,-558.19"/>
</g>
<!-- Node5 -->
<g id="node5" class="node">
<title>Node5</title>
<g id="a_node5"><a xlink:href="../../db/dc1/class_token.html#a1f07fa2fffeb2f7ab803ef8b424eae8a" target="_top" xlink:title=" ">
<polygon fill="none" stroke="black" points="2767,-1886.41 2767,-1905.41 2841,-1905.41 2841,-1886.41 2767,-1886.41"/>
<text text-anchor="middle" x="2804" y="-1893.41" font-family="Helvetica,sans-Serif" font-size="10.00">Token::setStr</text>
</a>
</g>
</g>
<!-- Node2&#45;&gt;Node5 -->
<g id="edge4" class="edge">
<title>Node2&#45;&gt;Node5</title>
<path fill="none" stroke="midnightblue" d="M2694.08,-1908.27C2714.56,-1905.94 2737.24,-1903.37 2756.58,-1901.18"/>
<polygon fill="midnightblue" stroke="midnightblue" points="2757.11,-1904.64 2766.65,-1900.03 2756.32,-1897.68 2757.11,-1904.64"/>
</g>
<!-- Node6&#45;&gt;Node7 -->
<g id="edge6" class="edge">
<title>Node6&#45;&gt;Node7</title>
<path fill="none" stroke="midnightblue" d="M2637.8,-633.57C2655.77,-708.88 2773.45,-1202.05 2798.37,-1306.5"/>
<polygon fill="midnightblue" stroke="midnightblue" points="2794.99,-1307.41 2800.71,-1316.33 2801.8,-1305.79 2794.99,-1307.41"/>
</g>
<!-- Node8 -->
<g id="node8" class="node">
<title>Node8</title>
<g id="a_node8"><a xlink:href="../../d0/dfe/class_syntax_analyzer.html#a9e41370d8d74fbd2e77648d2071e7dfe" target="_top" xlink:title=" ">
<polygon fill="none" stroke="black" points="2730,-794.41 2730,-813.41 2878,-813.41 2878,-794.41 2730,-794.41"/>
<text text-anchor="middle" x="2804" y="-801.41" font-family="Helvetica,sans-Serif" font-size="10.00">SyntaxAnalyzer::getNextToken</text>
</a>
</g>
</g>
<!-- Node6&#45;&gt;Node8 -->
<g id="edge7" class="edge">
<title>Node6&#45;&gt;Node8</title>
<path fill="none" stroke="midnightblue" d="M2644.51,-633.59C2671.54,-662.65 2752.28,-749.41 2786.92,-786.64"/>
<polygon fill="midnightblue" stroke="midnightblue" points="2784.58,-789.25 2793.95,-794.19 2789.7,-784.48 2784.58,-789.25"/>
</g>
<!-- Node11&#45;&gt;Node2 -->
<g id="edge12" class="edge">
<title>Node11&#45;&gt;Node2</title>
<path fill="none" stroke="midnightblue" d="M450.87,-1924.69C475.1,-1984.17 612.09,-2294.91 828.5,-2294.91 828.5,-2294.91 828.5,-2294.91 1349,-2294.91 1678.1,-2294.91 1759.4,-2256.91 2088.5,-2256.91 2088.5,-2256.91 2088.5,-2256.91 2269.5,-2256.91 2393.03,-2256.91 2449.83,-2274.41 2539,-2188.91 2579.5,-2150.08 2556.97,-2121.04 2575,-2067.91 2591.53,-2019.2 2613.91,-1962.94 2625.62,-1934.11"/>
<polygon fill="midnightblue" stroke="midnightblue" points="2629.01,-1935.07 2629.55,-1924.49 2622.53,-1932.42 2629.01,-1935.07"/>
</g>
<!-- Node12 -->
<g id="node12" class="node">
<title>Node12</title>
<g id="a_node12"><a xlink:href="../../d0/dfe/class_syntax_analyzer.html#a5770afdc4d32d2c38550f27f9ffd949a" target="_top" xlink:title=" ">
<polygon fill="none" stroke="black" points="552,-1905.41 552,-1924.41 723,-1924.41 723,-1905.41 552,-1905.41"/>
<text text-anchor="middle" x="637.5" y="-1912.41" font-family="Helvetica,sans-Serif" font-size="10.00">SyntaxAnalyzer::syntaxCompoundSt</text>
</a>
</g>
</g>
<!-- Node11&#45;&gt;Node12 -->
<g id="edge13" class="edge">
<title>Node11&#45;&gt;Node12</title>
<path fill="none" stroke="midnightblue" d="M516.22,-1914.91C524.58,-1914.91 533.22,-1914.91 541.87,-1914.91"/>
<polygon fill="midnightblue" stroke="midnightblue" points="542,-1918.41 552,-1914.91 542,-1911.41 542,-1918.41"/>
</g>
<!-- Node31 -->
<g id="node31" class="node">
<title>Node31</title>
<g id="a_node31"><a xlink:href="../../d0/dfe/class_syntax_analyzer.html#a58a0f927ad0a45e4ce837a98e98330aa" target="_top" xlink:title=" ">
<polygon fill="none" stroke="black" points="2195.5,-1753.41 2195.5,-1772.41 2341.5,-1772.41 2341.5,-1753.41 2195.5,-1753.41"/>
<text text-anchor="middle" x="2268.5" y="-1760.41" font-family="Helvetica,sans-Serif" font-size="10.00">SyntaxAnalyzer::syntaxConsts</text>
</a>
</g>
</g>
<!-- Node11&#45;&gt;Node31 -->
<g id="edge104" class="edge">
<title>Node11&#45;&gt;Node31</title>
<path fill="none" stroke="midnightblue" d="M460.09,-1924.42C507.25,-1957.7 673.79,-2066.91 828.5,-2066.91 828.5,-2066.91 828.5,-2066.91 1349,-2066.91 1721.6,-2066.91 2138.12,-1838.66 2242.68,-1777.72"/>
<polygon fill="midnightblue" stroke="midnightblue" points="2244.7,-1780.59 2251.55,-1772.51 2241.16,-1774.56 2244.7,-1780.59"/>
</g>
<!-- Node33 -->
<g id="node33" class="node">
<title>Node33</title>
<g id="a_node33"><a xlink:href="../../d0/dfe/class_syntax_analyzer.html#a738f9b4cb7edf93c56af1b6974caad1a" target="_top" xlink:title=" ">
<polygon fill="none" stroke="black" points="2022,-823.41 2022,-842.41 2157,-842.41 2157,-823.41 2022,-823.41"/>
<text text-anchor="middle" x="2089.5" y="-830.41" font-family="Helvetica,sans-Serif" font-size="10.00">SyntaxAnalyzer::syntaxVars</text>
</a>
</g>
</g>
<!-- Node11&#45;&gt;Node33 -->
<g id="edge113" class="edge">
<title>Node11&#45;&gt;Node33</title>
<path fill="none" stroke="midnightblue" d="M447.93,-1905.4C457.55,-1811.78 546.69,-1049.7 936,-628.91 1066.86,-487.47 1154.31,-490.91 1347,-490.91 1347,-490.91 1347,-490.91 1538.5,-490.91 1591.83,-490.91 1949.77,-626.88 1985,-666.91 2028.02,-715.78 1977.16,-760.78 2021,-808.91 2024.52,-812.78 2028.71,-816.02 2033.24,-818.74"/>
<polygon fill="midnightblue" stroke="midnightblue" points="2031.82,-821.94 2042.32,-823.36 2034.99,-815.71 2031.82,-821.94"/>
</g>
<!-- Node12&#45;&gt;Node2 -->
<g id="edge14" class="edge">
<title>Node12&#45;&gt;Node2</title>
<path fill="none" stroke="midnightblue" d="M643.58,-1924.68C671.39,-1976.72 810.88,-2218.91 997.5,-2218.91 997.5,-2218.91 997.5,-2218.91 1538.5,-2218.91 1783.53,-2218.91 1843.47,-2180.91 2088.5,-2180.91 2088.5,-2180.91 2088.5,-2180.91 2269.5,-2180.91 2389.97,-2180.91 2451.56,-2234.78 2539,-2151.91 2609.14,-2085.43 2514.29,-2008.97 2574.62,-1932.33"/>
<polygon fill="midnightblue" stroke="midnightblue" points="2577.54,-1934.3 2581.4,-1924.43 2572.23,-1929.74 2577.54,-1934.3"/>
</g>
<!-- Node12&#45;&gt;Node6 -->
<g id="edge15" class="edge">
<title>Node12&#45;&gt;Node6</title>
<path fill="none" stroke="midnightblue" d="M639.24,-1905.35C647.88,-1800.85 739.21,-867.55 1272,-485.91 1504.08,-319.68 2312.36,-100.35 2539,-273.91 2592.97,-315.24 2623.14,-536 2631.25,-603.98"/>
<polygon fill="midnightblue" stroke="midnightblue" points="2627.81,-604.65 2632.44,-614.18 2634.76,-603.84 2627.81,-604.65"/>
</g>
<!-- Node12&#45;&gt;Node7 -->
<g id="edge16" class="edge">
<title>Node12&#45;&gt;Node7</title>
<path fill="none" stroke="midnightblue" d="M641.28,-1924.43C660.06,-1986.65 774.61,-2332.91 997.5,-2332.91 997.5,-2332.91 997.5,-2332.91 1349,-2332.91 1760.35,-2332.91 1856.15,-2446.91 2267.5,-2446.91 2267.5,-2446.91 2267.5,-2446.91 2460,-2446.91 2588.29,-2446.91 2630.54,-2389.41 2694,-2277.91 2738.26,-2200.15 2720.12,-1965.83 2730,-1876.91 2753.11,-1668.87 2789.47,-1417.77 2800.03,-1345.96"/>
<polygon fill="midnightblue" stroke="midnightblue" points="2803.55,-1346.08 2801.55,-1335.68 2796.63,-1345.06 2803.55,-1346.08"/>
</g>
<!-- Node12&#45;&gt;Node10 -->
<g id="edge17" class="edge">
<title>Node12&#45;&gt;Node10</title>
<path fill="none" stroke="midnightblue" d="M639.7,-1924.43C647.26,-1982.54 690.04,-2288.88 759,-2346.91 840.51,-2415.51 890.96,-2370.91 997.5,-2370.91 997.5,-2370.91 997.5,-2370.91 1349,-2370.91 1494.78,-2370.91 1509.68,-2463.11 1651,-2498.91 1759.63,-2526.43 1789.94,-2522.91 1902,-2522.91 1902,-2522.91 1902,-2522.91 2269.5,-2522.91 2376.26,-2522.91 2500.39,-2531.16 2572.63,-2536.79"/>
<polygon fill="midnightblue" stroke="midnightblue" points="2572.66,-2540.3 2582.9,-2537.6 2573.21,-2533.33 2572.66,-2540.3"/>
</g>
<!-- Node13 -->
<g id="node13" class="node">
<title>Node13</title>
<g id="a_node13"><a xlink:href="../../d0/dfe/class_syntax_analyzer.html#a6df61a82ef9de3c17b78be89a321a087" target="_top" xlink:title=" ">
<polygon fill="none" stroke="black" points="759,-1877.41 759,-1896.41 900,-1896.41 900,-1877.41 759,-1877.41"/>
<text text-anchor="middle" x="829.5" y="-1884.41" font-family="Helvetica,sans-Serif" font-size="10.00">SyntaxAnalyzer::syntaxStList</text>
</a>
</g>
</g>
<!-- Node12&#45;&gt;Node13 -->
<g id="edge18" class="edge">
<title>Node12&#45;&gt;Node13</title>
<path fill="none" stroke="midnightblue" d="M703.09,-1905.39C719.3,-1903 736.84,-1900.42 753.51,-1897.96"/>
<polygon fill="midnightblue" stroke="midnightblue" points="754.38,-1901.37 763.77,-1896.45 753.36,-1894.45 754.38,-1901.37"/>
</g>
<!-- Node13&#45;&gt;Node6 -->
<g id="edge19" class="edge">
<title>Node13&#45;&gt;Node6</title>
<path fill="none" stroke="midnightblue" d="M830.94,-1877.34C834.98,-1797.99 870.81,-1242.91 1097,-876.91 1364.92,-443.39 1578.87,-300.91 2088.5,-300.91 2088.5,-300.91 2088.5,-300.91 2269.5,-300.91 2389.49,-300.91 2446.13,-240.94 2539,-316.91 2587.4,-356.5 2556.87,-393.07 2575,-452.91 2591.85,-508.51 2614.93,-573.15 2626.41,-604.65"/>
<polygon fill="midnightblue" stroke="midnightblue" points="2623.24,-606.16 2629.96,-614.35 2629.81,-603.75 2623.24,-606.16"/>
</g>
<!-- Node13&#45;&gt;Node7 -->
<g id="edge20" class="edge">
<title>Node13&#45;&gt;Node7</title>
<path fill="none" stroke="midnightblue" d="M843.17,-1896.53C894.24,-1934.91 1090.95,-2079.05 1272,-2161.91 1651.88,-2335.77 1776.91,-2321.01 2194,-2344.91 2347.08,-2353.68 2396.76,-2404.19 2539,-2346.91 2627.64,-2311.22 2651.71,-2283.6 2694,-2197.91 2757.53,-2069.17 2712.57,-2019.41 2730,-1876.91 2755.41,-1669.14 2790.17,-1417.85 2800.19,-1345.98"/>
<polygon fill="midnightblue" stroke="midnightblue" points="2803.71,-1346.07 2801.63,-1335.69 2796.78,-1345.11 2803.71,-1346.07"/>
</g>
<!-- Node14 -->
<g id="node14" class="node">
<title>Node14</title>
<g id="a_node14"><a xlink:href="../../d0/dfe/class_syntax_analyzer.html#a7f54bde730006b1b863290415809ab4e" target="_top" xlink:title=" ">
<polygon fill="none" stroke="black" points="936,-1753.41 936,-1772.41 1061,-1772.41 1061,-1753.41 936,-1753.41"/>
<text text-anchor="middle" x="998.5" y="-1760.41" font-family="Helvetica,sans-Serif" font-size="10.00">SyntaxAnalyzer::syntaxSt</text>
</a>
</g>
</g>
<!-- Node13&#45;&gt;Node14 -->
<g id="edge21" class="edge">
<title>Node13&#45;&gt;Node14</title>
<path fill="none" stroke="midnightblue" d="M843.33,-1877.39C871.91,-1856.16 941.09,-1804.79 976.24,-1778.7"/>
<polygon fill="midnightblue" stroke="midnightblue" points="978.46,-1781.41 984.4,-1772.64 974.28,-1775.79 978.46,-1781.41"/>
</g>
<!-- Node14&#45;&gt;Node6 -->
<g id="edge22" class="edge">
<title>Node14&#45;&gt;Node6</title>
<path fill="none" stroke="midnightblue" d="M1000.05,-1753.32C1004.43,-1679.62 1034.87,-1202.99 1097,-1074.91 1198.94,-864.77 1287.52,-852.4 1460,-694.91 1535.68,-625.81 1727.42,-449.7 1821,-407.91 1966.96,-342.72 2408.54,-271.53 2539,-363.91 2544.21,-367.6 2606.03,-544.74 2626.77,-604.48"/>
<polygon fill="midnightblue" stroke="midnightblue" points="2623.56,-605.9 2630.14,-614.2 2630.17,-603.6 2623.56,-605.9"/>
</g>
<!-- Node14&#45;&gt;Node7 -->
<g id="edge23" class="edge">
<title>Node14&#45;&gt;Node7</title>
<path fill="none" stroke="midnightblue" d="M1000.2,-1753.36C1006.4,-1676.01 1058.86,-1154.91 1347,-1154.91 1347,-1154.91 1347,-1154.91 1538.5,-1154.91 1864.26,-1154.91 1941.74,-1230.91 2267.5,-1230.91 2267.5,-1230.91 2267.5,-1230.91 2460,-1230.91 2565.74,-1230.91 2593.41,-1241.31 2694,-1273.91 2723.88,-1283.6 2756.12,-1299.76 2777.73,-1311.5"/>
<polygon fill="midnightblue" stroke="midnightblue" points="2776.13,-1314.61 2786.58,-1316.38 2779.51,-1308.48 2776.13,-1314.61"/>
</g>
<!-- Node14&#45;&gt;Node12 -->
<g id="edge71" class="edge">
<title>Node14&#45;&gt;Node12</title>
<path fill="none" stroke="midnightblue" d="M975.05,-1772.42C913.49,-1798.48 741.82,-1871.17 670.35,-1901.42"/>
<polygon fill="midnightblue" stroke="midnightblue" points="668.8,-1898.28 660.96,-1905.4 671.53,-1904.73 668.8,-1898.28"/>
</g>
<!-- Node15 -->
<g id="node15" class="node">
<title>Node15</title>
<g id="a_node15"><a xlink:href="../../d0/dfe/class_syntax_analyzer.html#af0905389742c4f842207bb2c073afbfa" target="_top" xlink:title=" ">
<polygon fill="none" stroke="black" points="2390.5,-1525.41 2390.5,-1544.41 2527.5,-1544.41 2527.5,-1525.41 2390.5,-1525.41"/>
<text text-anchor="middle" x="2459" y="-1532.41" font-family="Helvetica,sans-Serif" font-size="10.00">SyntaxAnalyzer::lookFoward</text>
</a>
</g>
</g>
<!-- Node14&#45;&gt;Node15 -->
<g id="edge24" class="edge">
<title>Node14&#45;&gt;Node15</title>
<path fill="none" stroke="midnightblue" d="M1003.3,-1772.73C1013.72,-1798.05 1045.43,-1865.37 1097,-1890.91 1371,-2026.64 1487.59,-1961.96 1785,-1890.91 1928.06,-1856.74 2331.01,-1612.93 2433.86,-1549.8"/>
<polygon fill="midnightblue" stroke="midnightblue" points="2435.91,-1552.65 2442.6,-1544.43 2432.25,-1546.69 2435.91,-1552.65"/>
</g>
<!-- Node17 -->
<g id="node17" class="node">
<title>Node17</title>
<g id="a_node17"><a xlink:href="../../d0/dfe/class_syntax_analyzer.html#a31fc5887c158652feb946f89270b4b36" target="_top" xlink:title=" ">
<polygon fill="none" stroke="black" points="1460,-1373.41 1460,-1392.41 1615,-1392.41 1615,-1373.41 1460,-1373.41"/>
<text text-anchor="middle" x="1537.5" y="-1380.41" font-family="Helvetica,sans-Serif" font-size="10.00">SyntaxAnalyzer::syntaxAssignSt</text>
</a>
</g>
</g>
<!-- Node14&#45;&gt;Node17 -->
<g id="edge26" class="edge">
<title>Node14&#45;&gt;Node17</title>
<path fill="none" stroke="midnightblue" d="M1013.04,-1753.33C1085.15,-1702.3 1424.05,-1462.49 1514.35,-1398.59"/>
<polygon fill="midnightblue" stroke="midnightblue" points="1516.61,-1401.28 1522.75,-1392.64 1512.56,-1395.56 1516.61,-1401.28"/>
</g>
<!-- Node23 -->
<g id="node23" class="node">
<title>Node23</title>
<g id="a_node23"><a xlink:href="../../d0/dfe/class_syntax_analyzer.html#a2db43946bee3e973ce1cf293b262e271" target="_top" xlink:title=" ">
<polygon fill="none" stroke="black" points="2388.5,-1449.41 2388.5,-1468.41 2529.5,-1468.41 2529.5,-1449.41 2388.5,-1449.41"/>
<text text-anchor="middle" x="2459" y="-1456.41" font-family="Helvetica,sans-Serif" font-size="10.00">SyntaxAnalyzer::syntaxCallSt</text>
</a>
</g>
</g>
<!-- Node14&#45;&gt;Node23 -->
<g id="edge70" class="edge">
<title>Node14&#45;&gt;Node23</title>
<path fill="none" stroke="midnightblue" d="M1012.71,-1772.41C1030.86,-1785.04 1064.91,-1807.22 1097,-1819.91 1202.98,-1861.82 1233.04,-1876.91 1347,-1876.91 1347,-1876.91 1347,-1876.91 1538.5,-1876.91 1737.6,-1876.91 2306.99,-1548.01 2433.08,-1473.71"/>
<polygon fill="midnightblue" stroke="midnightblue" points="2435.18,-1476.53 2442.01,-1468.43 2431.62,-1470.5 2435.18,-1476.53"/>
</g>
<!-- Node25 -->
<g id="node25" class="node">
<title>Node25</title>
<g id="a_node25"><a xlink:href="../../d0/dfe/class_syntax_analyzer.html#a67bc7e3cfb57c9d4d25d60913aef3a87" target="_top" xlink:title=" ">
<polygon fill="none" stroke="black" points="1272,-2133.41 1272,-2152.41 1424,-2152.41 1424,-2133.41 1272,-2133.41"/>
<text text-anchor="middle" x="1348" y="-2140.41" font-family="Helvetica,sans-Serif" font-size="10.00">SyntaxAnalyzer::syntaxEmptySt</text>
</a>
</g>
</g>
<!-- Node14&#45;&gt;Node25 -->
<g id="edge72" class="edge">
<title>Node14&#45;&gt;Node25</title>
<path fill="none" stroke="midnightblue" d="M1001.25,-1772.76C1007.92,-1807.9 1034.57,-1928.99 1097,-2004.91 1155.96,-2076.61 1188.16,-2079.08 1272,-2118.91 1281.08,-2123.22 1291.12,-2127.04 1300.83,-2130.29"/>
<polygon fill="midnightblue" stroke="midnightblue" points="1299.8,-2133.63 1310.39,-2133.34 1301.93,-2126.96 1299.8,-2133.63"/>
</g>
<!-- Node26 -->
<g id="node26" class="node">
<title>Node26</title>
<g id="a_node26"><a xlink:href="../../d0/dfe/class_syntax_analyzer.html#a82e8472ea6d1064871de0d05eaa8b374" target="_top" xlink:title=" ">
<polygon fill="none" stroke="black" points="1097,-1791.41 1097,-1810.41 1236,-1810.41 1236,-1791.41 1097,-1791.41"/>
<text text-anchor="middle" x="1166.5" y="-1798.41" font-family="Helvetica,sans-Serif" font-size="10.00">SyntaxAnalyzer::syntaxForSt</text>
</a>
</g>
</g>
<!-- Node14&#45;&gt;Node26 -->
<g id="edge74" class="edge">
<title>Node14&#45;&gt;Node26</title>
<path fill="none" stroke="midnightblue" d="M1061.31,-1770.51C1086.23,-1775.74 1113.88,-1782.45 1134.43,-1788.4"/>
<polygon fill="midnightblue" stroke="midnightblue" points="1133.61,-1791.8 1144.19,-1791.34 1135.62,-1785.1 1133.61,-1791.8"/>
</g>
<!-- Node28 -->
<g id="node28" class="node">
<title>Node28</title>
<g id="a_node28"><a xlink:href="../../d0/dfe/class_syntax_analyzer.html#a779e006875d35926152773989f4b1e5a" target="_top" xlink:title=" ">
<polygon fill="none" stroke="black" points="1472,-1706.41 1472,-1725.41 1603,-1725.41 1603,-1706.41 1472,-1706.41"/>
<text text-anchor="middle" x="1537.5" y="-1713.41" font-family="Helvetica,sans-Serif" font-size="10.00">SyntaxAnalyzer::syntaxIfSt</text>
</a>
</g>
</g>
<!-- Node14&#45;&gt;Node28 -->
<g id="edge87" class="edge">
<title>Node14&#45;&gt;Node28</title>
<path fill="none" stroke="midnightblue" d="M1057.99,-1753.39C1156.08,-1741.83 1353.6,-1724.39 1461.67,-1717.61"/>
<polygon fill="midnightblue" stroke="midnightblue" points="1462.07,-1721.09 1471.84,-1716.99 1461.65,-1714.11 1462.07,-1721.09"/>
</g>
<!-- Node29 -->
<g id="node29" class="node">
<title>Node29</title>
<g id="a_node29"><a xlink:href="../../d0/dfe/class_syntax_analyzer.html#a55e935b2aa7f20b66e9228e977582fcd" target="_top" xlink:title=" ">
<polygon fill="none" stroke="black" points="1461,-1753.41 1461,-1772.41 1614,-1772.41 1614,-1753.41 1461,-1753.41"/>
<text text-anchor="middle" x="1537.5" y="-1760.41" font-family="Helvetica,sans-Serif" font-size="10.00">SyntaxAnalyzer::syntaxReturnSt</text>
</a>
</g>
</g>
<!-- Node14&#45;&gt;Node29 -->
<g id="edge93" class="edge">
<title>Node14&#45;&gt;Node29</title>
<path fill="none" stroke="midnightblue" d="M1061.1,-1762.91C1156.78,-1762.91 1341.39,-1762.91 1450.27,-1762.91"/>
<polygon fill="midnightblue" stroke="midnightblue" points="1450.56,-1766.41 1460.56,-1762.91 1450.56,-1759.41 1450.56,-1766.41"/>
</g>
<!-- Node30 -->
<g id="node30" class="node">
<title>Node30</title>
<g id="a_node30"><a xlink:href="../../d0/dfe/class_syntax_analyzer.html#a64dad7f0b22b08d182483469d3a1aa79" target="_top" xlink:title=" ">
<polygon fill="none" stroke="black" points="1463,-1098.41 1463,-1117.41 1612,-1117.41 1612,-1098.41 1463,-1098.41"/>
<text text-anchor="middle" x="1537.5" y="-1105.41" font-family="Helvetica,sans-Serif" font-size="10.00">SyntaxAnalyzer::syntaxWhileSt</text>
</a>
</g>
</g>
<!-- Node14&#45;&gt;Node30 -->
<g id="edge98" class="edge">
<title>Node14&#45;&gt;Node30</title>
<path fill="none" stroke="midnightblue" d="M999.46,-1753.2C999.29,-1679.98 1001.6,-1219.92 1097,-1131.91 1213.26,-1024.66 1428.34,-1069.1 1506.83,-1094.92"/>
<polygon fill="midnightblue" stroke="midnightblue" points="1505.97,-1098.33 1516.56,-1098.27 1508.25,-1091.71 1505.97,-1098.33"/>
</g>
<!-- Node16 -->
<g id="node16" class="node">
<title>Node16</title>
<g id="a_node16"><a xlink:href="../../d1/d34/class_list.html#a49c179636e084dfbf7a52acd46acaf01" target="_top" xlink:title=" ">
<polygon fill="none" stroke="black" points="2607,-1525.41 2607,-1544.41 2662,-1544.41 2662,-1525.41 2607,-1525.41"/>
<text text-anchor="middle" x="2634.5" y="-1532.41" font-family="Helvetica,sans-Serif" font-size="10.00">List::size</text>
</a>
</g>
</g>
<!-- Node15&#45;&gt;Node16 -->
<g id="edge25" class="edge">
<title>Node15&#45;&gt;Node16</title>
<path fill="none" stroke="midnightblue" d="M2527.58,-1534.91C2550.97,-1534.91 2576.31,-1534.91 2596.35,-1534.91"/>
<polygon fill="midnightblue" stroke="midnightblue" points="2596.59,-1538.41 2606.59,-1534.91 2596.59,-1531.41 2596.59,-1538.41"/>
</g>
<!-- Node17&#45;&gt;Node2 -->
<g id="edge27" class="edge">
<title>Node17&#45;&gt;Node2</title>
<path fill="none" stroke="midnightblue" d="M1540.09,-1392.48C1546.84,-1430.73 1576.38,-1574.73 1651,-1662.91 1682.12,-1699.69 1976.4,-1870.7 2021,-1888.91 2207.98,-1965.29 2454.33,-1942.72 2569.27,-1925.93"/>
<polygon fill="midnightblue" stroke="midnightblue" points="2569.95,-1929.36 2579.32,-1924.42 2568.91,-1922.44 2569.95,-1929.36"/>
</g>
<!-- Node17&#45;&gt;Node6 -->
<g id="edge28" class="edge">
<title>Node17&#45;&gt;Node6</title>
<path fill="none" stroke="midnightblue" d="M1542.29,-1373.22C1573.97,-1292.32 1794.14,-731.59 1821,-704.91 2011.09,-516.13 2116.12,-528.55 2379,-476.91 2448.78,-463.21 2476.58,-442.84 2539,-476.91 2589.24,-504.34 2616.76,-571.19 2627.75,-604.45"/>
<polygon fill="midnightblue" stroke="midnightblue" points="2624.52,-605.84 2630.86,-614.34 2631.2,-603.75 2624.52,-605.84"/>
</g>
<!-- Node17&#45;&gt;Node7 -->
<g id="edge29" class="edge">
<title>Node17&#45;&gt;Node7</title>
<path fill="none" stroke="midnightblue" d="M1555.67,-1373.39C1606.74,-1345.99 1762.78,-1268.91 1902,-1268.91 1902,-1268.91 1902,-1268.91 2460,-1268.91 2568.58,-1268.91 2693.92,-1297.05 2758.85,-1313.79"/>
<polygon fill="midnightblue" stroke="midnightblue" points="2758.19,-1317.23 2768.75,-1316.37 2759.95,-1310.46 2758.19,-1317.23"/>
</g>
<!-- Node18 -->
<g id="node18" class="node">
<title>Node18</title>
<g id="a_node18"><a xlink:href="../../d0/dfe/class_syntax_analyzer.html#ae8d09db1b25ec882248aeed978c13a4d" target="_top" xlink:title=" ">
<polygon fill="none" stroke="black" points="1651,-1373.41 1651,-1392.41 1785,-1392.41 1785,-1373.41 1651,-1373.41"/>
<text text-anchor="middle" x="1718" y="-1380.41" font-family="Helvetica,sans-Serif" font-size="10.00">SyntaxAnalyzer::syntaxExpr</text>
</a>
</g>
</g>
<!-- Node17&#45;&gt;Node18 -->
<g id="edge30" class="edge">
<title>Node17&#45;&gt;Node18</title>
<path fill="none" stroke="midnightblue" d="M1615.24,-1382.91C1623.7,-1382.91 1632.32,-1382.91 1640.78,-1382.91"/>
<polygon fill="midnightblue" stroke="midnightblue" points="1640.99,-1386.41 1650.99,-1382.91 1640.99,-1379.41 1640.99,-1386.41"/>
</g>
<!-- Node24 -->
<g id="node24" class="node">
<title>Node24</title>
<g id="a_node24"><a xlink:href="../../d0/dfe/class_syntax_analyzer.html#a94c8a6ab5c0e53cae22edb1a840a27ce" target="_top" xlink:title=" ">
<polygon fill="none" stroke="black" points="2384,-1297.41 2384,-1316.41 2534,-1316.41 2534,-1297.41 2384,-1297.41"/>
<text text-anchor="middle" x="2459" y="-1304.41" font-family="Helvetica,sans-Serif" font-size="10.00">SyntaxAnalyzer::syntaxVariable</text>
</a>
</g>
</g>
<!-- Node17&#45;&gt;Node24 -->
<g id="edge69" class="edge">
<title>Node17&#45;&gt;Node24</title>
<path fill="none" stroke="midnightblue" d="M1588.47,-1373.4C1607.93,-1369.98 1630.45,-1366.37 1651,-1363.91 1913.51,-1332.55 2226.28,-1316.49 2373.47,-1310.19"/>
<polygon fill="midnightblue" stroke="midnightblue" points="2373.94,-1313.67 2383.78,-1309.75 2373.64,-1306.68 2373.94,-1313.67"/>
</g>
<!-- Node18&#45;&gt;Node2 -->
<g id="edge31" class="edge">
<title>Node18&#45;&gt;Node2</title>
<path fill="none" stroke="midnightblue" d="M1725.36,-1392.63C1762.41,-1448.29 1956.84,-1728.35 2194,-1846.91 2198.14,-1848.98 2442.3,-1886.05 2564.86,-1904.56"/>
<polygon fill="midnightblue" stroke="midnightblue" points="2564.49,-1908.05 2574.9,-1906.08 2565.54,-1901.13 2564.49,-1908.05"/>
</g>
<!-- Node18&#45;&gt;Node4 -->
<g id="edge34" class="edge">
<title>Node18&#45;&gt;Node4</title>
<path fill="none" stroke="midnightblue" d="M1719.38,-1373.37C1721.75,-1320.68 1737.42,-1060.89 1821,-870.91 1881.57,-733.24 1903.69,-692.05 2021,-597.91 2204.28,-450.84 2304.01,-490.4 2539,-491.91 2607.89,-492.36 2626.46,-480.34 2694,-493.91 2723.15,-499.77 2754.42,-513.21 2775.96,-523.71"/>
<polygon fill="midnightblue" stroke="midnightblue" points="2774.62,-526.95 2785.13,-528.28 2777.75,-520.68 2774.62,-526.95"/>
</g>
<!-- Node18&#45;&gt;Node6 -->
<g id="edge32" class="edge">
<title>Node18&#45;&gt;Node6</title>
<path fill="none" stroke="midnightblue" d="M1734.25,-1373.38C1749.89,-1362.69 1773.5,-1343.81 1785,-1320.91 1848.21,-1194.98 1752.79,-1129.21 1821,-1005.91 1866.16,-924.28 1933.9,-952.96 1985,-874.91 2018.78,-823.32 1977.34,-784.46 2021,-740.91 2073.36,-688.69 2279.24,-694.36 2343,-656.91 2363.06,-645.13 2357.63,-628.1 2379,-618.91 2447.13,-589.61 2535.3,-600.87 2587.96,-612.11"/>
<polygon fill="midnightblue" stroke="midnightblue" points="2587.48,-615.59 2598,-614.34 2589,-608.75 2587.48,-615.59"/>
</g>
<!-- Node18&#45;&gt;Node7 -->
<g id="edge33" class="edge">
<title>Node18&#45;&gt;Node7</title>
<path fill="none" stroke="midnightblue" d="M1776.1,-1392.45C1848.54,-1403.71 1977.42,-1420.91 2088.5,-1420.91 2088.5,-1420.91 2088.5,-1420.91 2269.5,-1420.91 2455.88,-1420.91 2673.3,-1364.02 2762.09,-1338.29"/>
<polygon fill="midnightblue" stroke="midnightblue" points="2763.16,-1341.62 2771.78,-1335.46 2761.2,-1334.9 2763.16,-1341.62"/>
</g>
<!-- Node18&#45;&gt;Node9 -->
<g id="edge35" class="edge">
<title>Node18&#45;&gt;Node9</title>
<path fill="none" stroke="midnightblue" d="M1733.99,-1373.24C1749.41,-1362.44 1772.85,-1343.47 1785,-1320.91 1829.49,-1238.31 1763.96,-1187.4 1821,-1112.91 1924.96,-977.13 2163.09,-978.47 2241.75,-982.93"/>
<polygon fill="midnightblue" stroke="midnightblue" points="2241.96,-986.45 2252.17,-983.6 2242.41,-979.47 2241.96,-986.45"/>
</g>
<!-- Node19 -->
<g id="node19" class="node">
<title>Node19</title>
<g id="a_node19"><a xlink:href="../../d0/dfe/class_syntax_analyzer.html#a3dfb6634a4bcdc61da5b1bafd1f3d136" target="_top" xlink:title=" ">
<polygon fill="none" stroke="black" points="1821,-1122.41 1821,-1141.41 1985,-1141.41 1985,-1122.41 1821,-1122.41"/>
<text text-anchor="middle" x="1903" y="-1129.41" font-family="Helvetica,sans-Serif" font-size="10.00">SyntaxAnalyzer::syntaxSimpleExpr</text>
</a>
</g>
</g>
<!-- Node18&#45;&gt;Node19 -->
<g id="edge36" class="edge">
<title>Node18&#45;&gt;Node19</title>
<path fill="none" stroke="midnightblue" d="M1731.11,-1373.22C1745.08,-1361.67 1768.28,-1341.36 1785,-1320.91 1831.92,-1263.54 1874.28,-1185.89 1892.53,-1150.66"/>
<polygon fill="midnightblue" stroke="midnightblue" points="1895.76,-1152.03 1897.2,-1141.54 1889.53,-1148.84 1895.76,-1152.03"/>
</g>
<!-- Node19&#45;&gt;Node2 -->
<g id="edge37" class="edge">
<title>Node19&#45;&gt;Node2</title>
<path fill="none" stroke="midnightblue" d="M1904.76,-1141.58C1910.73,-1210.28 1956.24,-1627 2194,-1810.91 2316.65,-1905.79 2392.12,-1813.2 2539,-1862.91 2565.25,-1871.8 2592.73,-1887.79 2611.25,-1899.7"/>
<polygon fill="midnightblue" stroke="midnightblue" points="2609.54,-1902.76 2619.82,-1905.33 2613.39,-1896.91 2609.54,-1902.76"/>
</g>
<!-- Node19&#45;&gt;Node4 -->
<g id="edge40" class="edge">
<title>Node19&#45;&gt;Node4</title>
<path fill="none" stroke="midnightblue" d="M1904.46,-1122.32C1907.12,-1075.54 1924.19,-868.47 2021,-740.91 2134.76,-591.03 2198.25,-567.19 2379,-514.91 2512.51,-476.29 2679.34,-507.03 2758,-525.92"/>
<polygon fill="midnightblue" stroke="midnightblue" points="2757.5,-529.4 2768.05,-528.38 2759.17,-522.6 2757.5,-529.4"/>
</g>
<!-- Node19&#45;&gt;Node6 -->
<g id="edge38" class="edge">
<title>Node19&#45;&gt;Node6</title>
<path fill="none" stroke="midnightblue" d="M1909.47,-1122.19C1923.7,-1096.55 1962.35,-1024.68 1985,-960.91 2007.51,-897.53 1976.22,-864.1 2021,-813.91 2122.57,-700.07 2215.65,-778.93 2343,-694.91 2362.42,-682.1 2358.27,-667.46 2379,-656.91 2440.18,-625.78 2519.9,-620.17 2573.69,-620.63"/>
<polygon fill="midnightblue" stroke="midnightblue" points="2573.7,-624.14 2583.75,-620.8 2573.81,-617.14 2573.7,-624.14"/>
</g>
<!-- Node19&#45;&gt;Node7 -->
<g id="edge39" class="edge">
<title>Node19&#45;&gt;Node7</title>
<path fill="none" stroke="midnightblue" d="M1937.76,-1141.44C2001.6,-1158.6 2144.64,-1192.91 2267.5,-1192.91 2267.5,-1192.91 2267.5,-1192.91 2460,-1192.91 2564.55,-1192.91 2599.58,-1172.02 2694,-1216.91 2737.27,-1237.48 2773.32,-1282.58 2791.1,-1307.85"/>
<polygon fill="midnightblue" stroke="midnightblue" points="2788.26,-1309.9 2796.8,-1316.18 2794.04,-1305.95 2788.26,-1309.9"/>
</g>
<!-- Node19&#45;&gt;Node9 -->
<g id="edge41" class="edge">
<title>Node19&#45;&gt;Node9</title>
<path fill="none" stroke="midnightblue" d="M1924.86,-1122.34C1972.19,-1100.77 2091.57,-1047.28 2194,-1008.91 2210.08,-1002.89 2228.45,-996.89 2242.8,-992.4"/>
<polygon fill="midnightblue" stroke="midnightblue" points="2243.93,-995.71 2252.45,-989.41 2241.86,-989.02 2243.93,-995.71"/>
</g>
<!-- Node20 -->
<g id="node20" class="node">
<title>Node20</title>
<g id="a_node20"><a xlink:href="../../d0/dfe/class_syntax_analyzer.html#a1e9b913cc8c2861927d7c05d10f1822d" target="_top" xlink:title=" ">
<polygon fill="none" stroke="black" points="2021,-1122.41 2021,-1141.41 2158,-1141.41 2158,-1122.41 2021,-1122.41"/>
<text text-anchor="middle" x="2089.5" y="-1129.41" font-family="Helvetica,sans-Serif" font-size="10.00">SyntaxAnalyzer::syntaxTerm</text>
</a>
</g>
</g>
<!-- Node19&#45;&gt;Node20 -->
<g id="edge42" class="edge">
<title>Node19&#45;&gt;Node20</title>
<path fill="none" stroke="midnightblue" d="M1985.19,-1131.91C1993.65,-1131.91 2002.23,-1131.91 2010.64,-1131.91"/>
<polygon fill="midnightblue" stroke="midnightblue" points="2010.81,-1135.41 2020.81,-1131.91 2010.81,-1128.41 2010.81,-1135.41"/>
</g>
<!-- Node20&#45;&gt;Node2 -->
<g id="edge43" class="edge">
<title>Node20&#45;&gt;Node2</title>
<path fill="none" stroke="midnightblue" d="M2095.94,-1141.7C2109.28,-1166.25 2143.59,-1232.79 2158,-1292.91 2170.7,-1345.89 2156.46,-1742.43 2194,-1781.91 2247.23,-1837.9 2469.18,-1791.83 2539,-1824.91 2573.93,-1841.46 2604.28,-1875.93 2620.64,-1897.08"/>
<polygon fill="midnightblue" stroke="midnightblue" points="2617.96,-1899.34 2626.76,-1905.24 2623.55,-1895.14 2617.96,-1899.34"/>
</g>
<!-- Node20&#45;&gt;Node4 -->
<g id="edge46" class="edge">
<title>Node20&#45;&gt;Node4</title>
<path fill="none" stroke="midnightblue" d="M2158.11,-1125.33C2215.95,-1115.99 2296.94,-1093.41 2343,-1038.91 2399.04,-972.6 2326.89,-916.35 2379,-846.91 2426.84,-783.16 2471.88,-808.9 2539,-765.91 2613.05,-718.48 2627.81,-700.82 2694,-642.91 2728.02,-613.15 2765.54,-575.97 2786.49,-554.79"/>
<polygon fill="midnightblue" stroke="midnightblue" points="2789.14,-557.08 2793.67,-547.5 2784.16,-552.17 2789.14,-557.08"/>
</g>
<!-- Node20&#45;&gt;Node6 -->
<g id="edge44" class="edge">
<title>Node20&#45;&gt;Node6</title>
<path fill="none" stroke="midnightblue" d="M2099.53,-1122.25C2116.43,-1104.73 2154.7,-1067.59 2194,-1046.91 2255,-1014.82 2297.47,-1055.66 2343,-1003.91 2412.22,-925.24 2307.92,-847.9 2379,-770.91 2428.58,-717.21 2476.49,-770.79 2539,-732.91 2576.82,-709.99 2607.42,-666.84 2622.77,-642.26"/>
<polygon fill="midnightblue" stroke="midnightblue" points="2625.87,-643.91 2628.06,-633.55 2619.88,-640.28 2625.87,-643.91"/>
</g>
<!-- Node20&#45;&gt;Node7 -->
<g id="edge45" class="edge">
<title>Node20&#45;&gt;Node7</title>
<path fill="none" stroke="midnightblue" d="M2158.24,-1130.25C2296.04,-1127.99 2603.59,-1128.9 2694,-1178.91 2746.43,-1207.91 2780.77,-1273.96 2795.21,-1306.73"/>
<polygon fill="midnightblue" stroke="midnightblue" points="2792.07,-1308.28 2799.2,-1316.12 2798.51,-1305.54 2792.07,-1308.28"/>
</g>
<!-- Node20&#45;&gt;Node9 -->
<g id="edge47" class="edge">
<title>Node20&#45;&gt;Node9</title>
<path fill="none" stroke="midnightblue" d="M2118.01,-1122.37C2131.53,-1116.51 2147.2,-1107.82 2158,-1095.91 2186.11,-1064.91 2163.3,-1037.34 2194,-1008.91 2207.2,-996.68 2226.74,-990.68 2242.35,-987.74"/>
<polygon fill="midnightblue" stroke="midnightblue" points="2243.07,-991.17 2252.4,-986.15 2241.98,-984.25 2243.07,-991.17"/>
</g>
<!-- Node21 -->
<g id="node21" class="node">
<title>Node21</title>
<g id="a_node21"><a xlink:href="../../d0/dfe/class_syntax_analyzer.html#a3af9b5161a2cef6fdd26b0bb60334ac4" target="_top" xlink:title=" ">
<polygon fill="none" stroke="black" points="2197,-1355.41 2197,-1374.41 2340,-1374.41 2340,-1355.41 2197,-1355.41"/>
<text text-anchor="middle" x="2268.5" y="-1362.41" font-family="Helvetica,sans-Serif" font-size="10.00">SyntaxAnalyzer::syntaxFactor</text>
</a>
</g>
</g>
<!-- Node20&#45;&gt;Node21 -->
<g id="edge48" class="edge">
<title>Node20&#45;&gt;Node21</title>
<path fill="none" stroke="midnightblue" d="M2097.88,-1141.63C2124.87,-1177.15 2218.47,-1300.37 2253.83,-1346.92"/>
<polygon fill="midnightblue" stroke="midnightblue" points="2251.25,-1349.31 2260.09,-1355.16 2256.83,-1345.07 2251.25,-1349.31"/>
</g>
<!-- Node21&#45;&gt;Node2 -->
<g id="edge49" class="edge">
<title>Node21&#45;&gt;Node2</title>
<path fill="none" stroke="midnightblue" d="M2270.09,-1374.7C2273.21,-1418.1 2291.05,-1595.71 2379,-1700.91 2430.78,-1762.85 2477.99,-1734.04 2539,-1786.91 2576.56,-1819.46 2608,-1869.47 2623.37,-1896.33"/>
<polygon fill="midnightblue" stroke="midnightblue" points="2620.35,-1898.09 2628.29,-1905.11 2626.45,-1894.67 2620.35,-1898.09"/>
</g>
<!-- Node21&#45;&gt;Node3 -->
<g id="edge54" class="edge">
<title>Node21&#45;&gt;Node3</title>
<path fill="none" stroke="midnightblue" d="M2340.08,-1366.36C2438.73,-1372.69 2614.66,-1400.54 2694,-1515.91 2744.45,-1589.27 2672.44,-1847 2730,-1914.91 2733.65,-1919.22 2738.14,-1922.62 2743.09,-1925.28"/>
<polygon fill="midnightblue" stroke="midnightblue" points="2741.84,-1928.56 2752.4,-1929.34 2744.63,-1922.14 2741.84,-1928.56"/>
</g>
<!-- Node21&#45;&gt;Node4 -->
<g id="edge56" class="edge">
<title>Node21&#45;&gt;Node4</title>
<path fill="none" stroke="midnightblue" d="M2272.17,-1355.2C2282.19,-1318.62 2318.21,-1185.66 2343,-1074.91 2361.3,-993.17 2319.92,-949.3 2379,-889.91 2479.69,-788.69 2585.15,-919.3 2694,-826.91 2737.3,-790.16 2783.58,-616.33 2798.26,-557.46"/>
<polygon fill="midnightblue" stroke="midnightblue" points="2801.7,-558.12 2800.69,-547.57 2794.9,-556.45 2801.7,-558.12"/>
</g>
<!-- Node21&#45;&gt;Node6 -->
<g id="edge50" class="edge">
<title>Node21&#45;&gt;Node6</title>
<path fill="none" stroke="midnightblue" d="M2271.75,-1355.27C2280.91,-1315.85 2316.25,-1163.08 2343,-1036.91 2359.92,-957.1 2330.44,-922.47 2379,-856.91 2427.05,-792.04 2479.73,-825.72 2539,-770.91 2580.05,-732.95 2610.97,-673.47 2625.07,-643.13"/>
<polygon fill="midnightblue" stroke="midnightblue" points="2628.41,-644.24 2629.34,-633.69 2622.03,-641.35 2628.41,-644.24"/>
</g>
<!-- Node21&#45;&gt;Node7 -->
<g id="edge55" class="edge">
<title>Node21&#45;&gt;Node7</title>
<path fill="none" stroke="midnightblue" d="M2340.07,-1359.75C2440.65,-1352.4 2624.46,-1338.96 2727.62,-1331.42"/>
<polygon fill="midnightblue" stroke="midnightblue" points="2727.93,-1334.91 2737.65,-1330.69 2727.42,-1327.93 2727.93,-1334.91"/>
</g>
<!-- Node21&#45;&gt;Node15 -->
<g id="edge57" class="edge">
<title>Node21&#45;&gt;Node15</title>
<path fill="none" stroke="midnightblue" d="M2277.78,-1374.54C2295.39,-1394.77 2338.3,-1442.71 2379,-1477.91 2396.81,-1493.31 2418.61,-1508.82 2434.8,-1519.76"/>
<polygon fill="midnightblue" stroke="midnightblue" points="2432.89,-1522.7 2443.15,-1525.34 2436.78,-1516.88 2432.89,-1522.7"/>
</g>
<!-- Node21&#45;&gt;Node18 -->
<g id="edge63" class="edge">
<title>Node21&#45;&gt;Node18</title>
<path fill="none" stroke="midnightblue" d="M2196.77,-1367.23C2093.35,-1370.63 1901.62,-1376.92 1795.19,-1380.41"/>
<polygon fill="midnightblue" stroke="midnightblue" points="1795.04,-1376.91 1785.16,-1380.74 1795.27,-1383.91 1795.04,-1376.91"/>
</g>
<!-- Node21&#45;&gt;Node21 -->
<g id="edge64" class="edge">
<title>Node21&#45;&gt;Node21</title>
<path fill="none" stroke="midnightblue" d="M2241.07,-1374.67C2227.72,-1383.48 2236.86,-1392.91 2268.5,-1392.91 2290.25,-1392.91 2301.37,-1388.45 2301.86,-1382.8"/>
<polygon fill="midnightblue" stroke="midnightblue" points="2304.65,-1380.69 2295.93,-1374.67 2298.99,-1384.81 2304.65,-1380.69"/>
</g>
<!-- Node22 -->
<g id="node22" class="node">
<title>Node22</title>
<g id="a_node22"><a xlink:href="../../d0/dfe/class_syntax_analyzer.html#a9952c4a2db0a1382b9c94f40dd535fae" target="_top" xlink:title=" ">
<polygon fill="none" stroke="black" points="2575.5,-993.41 2575.5,-1012.41 2693.5,-1012.41 2693.5,-993.41 2575.5,-993.41"/>
<text text-anchor="middle" x="2634.5" y="-1000.41" font-family="Helvetica,sans-Serif" font-size="10.00">SyntaxAnalyzer::eatAdv</text>
</a>
</g>
</g>
<!-- Node21&#45;&gt;Node22 -->
<g id="edge51" class="edge">
<title>Node21&#45;&gt;Node22</title>
<path fill="none" stroke="midnightblue" d="M2279.24,-1355.23C2328.78,-1305.95 2553.07,-1082.9 2616.65,-1019.67"/>
<polygon fill="midnightblue" stroke="midnightblue" points="2619.28,-1021.99 2623.9,-1012.46 2614.34,-1017.03 2619.28,-1021.99"/>
</g>
<!-- Node21&#45;&gt;Node23 -->
<g id="edge58" class="edge">
<title>Node21&#45;&gt;Node23</title>
<path fill="none" stroke="midnightblue" d="M2288.61,-1374.44C2321.92,-1391.05 2390.75,-1425.38 2429.64,-1444.77"/>
<polygon fill="midnightblue" stroke="midnightblue" points="2428.33,-1448.03 2438.84,-1449.36 2431.45,-1441.76 2428.33,-1448.03"/>
</g>
<!-- Node21&#45;&gt;Node24 -->
<g id="edge65" class="edge">
<title>Node21&#45;&gt;Node24</title>
<path fill="none" stroke="midnightblue" d="M2300.16,-1355.34C2322.11,-1348.5 2352.36,-1339.09 2379,-1330.91 2391.2,-1327.16 2404.48,-1323.12 2416.6,-1319.44"/>
<polygon fill="midnightblue" stroke="midnightblue" points="2417.91,-1322.7 2426.46,-1316.44 2415.88,-1316 2417.91,-1322.7"/>
</g>
<!-- Node22&#45;&gt;Node7 -->
<g id="edge52" class="edge">
<title>Node22&#45;&gt;Node7</title>
<path fill="none" stroke="midnightblue" d="M2672.11,-1012.5C2680.12,-1015.98 2687.99,-1020.66 2694,-1026.91 2773.18,-1109.3 2795.57,-1253.73 2801.24,-1306.17"/>
<polygon fill="midnightblue" stroke="midnightblue" points="2797.77,-1306.57 2802.24,-1316.17 2804.73,-1305.87 2797.77,-1306.57"/>
</g>
<!-- Node22&#45;&gt;Node8 -->
<g id="edge53" class="edge">
<title>Node22&#45;&gt;Node8</title>
<path fill="none" stroke="midnightblue" d="M2643.58,-993.31C2670.06,-961.86 2754.47,-861.57 2788.54,-821.1"/>
<polygon fill="midnightblue" stroke="midnightblue" points="2791.24,-823.32 2795,-813.41 2785.88,-818.81 2791.24,-823.32"/>
</g>
<!-- Node23&#45;&gt;Node2 -->
<g id="edge59" class="edge">
<title>Node23&#45;&gt;Node2</title>
<path fill="none" stroke="midnightblue" d="M2480.74,-1468.53C2498.88,-1478.03 2524.53,-1494.26 2539,-1515.91 2622.98,-1641.57 2632.66,-1833.24 2633.52,-1895"/>
<polygon fill="midnightblue" stroke="midnightblue" points="2630.02,-1895.29 2633.59,-1905.27 2637.02,-1895.24 2630.02,-1895.29"/>
</g>
<!-- Node23&#45;&gt;Node6 -->
<g id="edge60" class="edge">
<title>Node23&#45;&gt;Node6</title>
<path fill="none" stroke="midnightblue" d="M2467.75,-1449.3C2484.15,-1428.34 2522.25,-1376.38 2539,-1325.91 2587.14,-1180.85 2554.73,-1135.4 2575,-983.91 2592.44,-853.54 2620.09,-697.72 2629.9,-643.58"/>
<polygon fill="midnightblue" stroke="midnightblue" points="2633.37,-644.08 2631.72,-633.62 2626.48,-642.83 2633.37,-644.08"/>
</g>
<!-- Node23&#45;&gt;Node7 -->
<g id="edge61" class="edge">
<title>Node23&#45;&gt;Node7</title>
<path fill="none" stroke="midnightblue" d="M2515.58,-1449.37C2564.08,-1439.85 2635.62,-1422.85 2694,-1396.91 2727.23,-1382.15 2761.77,-1357.87 2782.84,-1341.89"/>
<polygon fill="midnightblue" stroke="midnightblue" points="2785.21,-1344.47 2791,-1335.6 2780.94,-1338.93 2785.21,-1344.47"/>
</g>
<!-- Node23&#45;&gt;Node18 -->
<g id="edge62" class="edge">
<title>Node23&#45;&gt;Node18</title>
<path fill="none" stroke="midnightblue" d="M2388.24,-1465.94C2269.52,-1475.78 2021.55,-1487.1 1821,-1434.91 1791.94,-1427.35 1761.66,-1410.6 1741.71,-1398.15"/>
<polygon fill="midnightblue" stroke="midnightblue" points="1743.37,-1395.05 1733.06,-1392.6 1739.59,-1400.95 1743.37,-1395.05"/>
</g>
<!-- Node24&#45;&gt;Node2 -->
<g id="edge66" class="edge">
<title>Node24&#45;&gt;Node2</title>
<path fill="none" stroke="midnightblue" d="M2467.4,-1316.65C2483.11,-1337.85 2519.96,-1390.26 2539,-1439.91 2572.21,-1526.52 2618.38,-1816.7 2630.49,-1895.19"/>
<polygon fill="midnightblue" stroke="midnightblue" points="2627.05,-1895.84 2632.03,-1905.19 2633.97,-1894.77 2627.05,-1895.84"/>
</g>
<!-- Node24&#45;&gt;Node6 -->
<g id="edge67" class="edge">
<title>Node24&#45;&gt;Node6</title>
<path fill="none" stroke="midnightblue" d="M2462.45,-1297.26C2481.25,-1223.26 2602.44,-746.2 2628.55,-643.41"/>
<polygon fill="midnightblue" stroke="midnightblue" points="2631.94,-644.26 2631.01,-633.7 2625.16,-642.53 2631.94,-644.26"/>
</g>
<!-- Node24&#45;&gt;Node7 -->
<g id="edge68" class="edge">
<title>Node24&#45;&gt;Node7</title>
<path fill="none" stroke="midnightblue" d="M2534,-1311.01C2591.23,-1314.18 2670.13,-1318.55 2727.68,-1321.74"/>
<polygon fill="midnightblue" stroke="midnightblue" points="2727.63,-1325.24 2737.81,-1322.3 2728.02,-1318.25 2727.63,-1325.24"/>
</g>
<!-- Node25&#45;&gt;Node2 -->
<g id="edge73" class="edge">
<title>Node25&#45;&gt;Node2</title>
<path fill="none" stroke="midnightblue" d="M1424.06,-2142.91C1498.43,-2142.91 1615.58,-2142.91 1717,-2142.91 1717,-2142.91 1717,-2142.91 2269.5,-2142.91 2389.75,-2142.91 2440.64,-2188.09 2539,-2118.91 2602.17,-2074.49 2624.14,-1976.87 2630.87,-1934.82"/>
<polygon fill="midnightblue" stroke="midnightblue" points="2634.36,-1935.15 2632.35,-1924.74 2627.43,-1934.13 2634.36,-1935.15"/>
</g>
<!-- Node26&#45;&gt;Node2 -->
<g id="edge75" class="edge">
<title>Node26&#45;&gt;Node2</title>
<path fill="none" stroke="midnightblue" d="M1172.79,-1810.68C1201.77,-1862.72 1346.84,-2104.91 1536.5,-2104.91 1536.5,-2104.91 1536.5,-2104.91 2269.5,-2104.91 2390.46,-2104.91 2437.64,-2132.93 2539,-2066.91 2588.12,-2034.91 2616.17,-1967.52 2627.52,-1934.28"/>
<polygon fill="midnightblue" stroke="midnightblue" points="2630.97,-1935.01 2630.74,-1924.42 2624.31,-1932.84 2630.97,-1935.01"/>
</g>
<!-- Node26&#45;&gt;Node6 -->
<g id="edge76" class="edge">
<title>Node26&#45;&gt;Node6</title>
<path fill="none" stroke="midnightblue" d="M1168.5,-1791.08C1176.79,-1712.97 1239.63,-1186.95 1460,-836.91 1509.78,-757.85 1549.64,-761.67 1615,-694.91 1631.97,-677.58 1632.06,-669.06 1651,-653.91 1703.97,-611.56 1740.15,-631.79 1785,-580.91 1814.03,-547.97 1788.3,-518.22 1821,-488.91 1940.57,-381.74 2404.62,-320.03 2539,-407.91 2607.7,-452.84 2626.76,-559.93 2631.79,-604.22"/>
<polygon fill="midnightblue" stroke="midnightblue" points="2628.32,-604.68 2632.81,-614.28 2635.28,-603.97 2628.32,-604.68"/>
</g>
<!-- Node26&#45;&gt;Node7 -->
<g id="edge77" class="edge">
<title>Node26&#45;&gt;Node7</title>
<path fill="none" stroke="midnightblue" d="M1177.92,-1810.6C1256.61,-1882.7 1767.92,-2332.91 2267.5,-2332.91 2267.5,-2332.91 2267.5,-2332.91 2460,-2332.91 2615.79,-2332.91 2638.81,-2217.6 2694,-2071.91 2707.35,-2036.67 2784.92,-1460.9 2800.34,-1345.83"/>
<polygon fill="midnightblue" stroke="midnightblue" points="2803.84,-1346.02 2801.7,-1335.65 2796.9,-1345.09 2803.84,-1346.02"/>
</g>
<!-- Node26&#45;&gt;Node14 -->
<g id="edge86" class="edge">
<title>Node26&#45;&gt;Node14</title>
<path fill="none" stroke="midnightblue" d="M1096.82,-1791.85C1073.8,-1786.87 1049.27,-1780.84 1030.59,-1775.43"/>
<polygon fill="midnightblue" stroke="midnightblue" points="1031.45,-1772.03 1020.86,-1772.5 1029.43,-1778.74 1031.45,-1772.03"/>
</g>
<!-- Node27 -->
<g id="node27" class="node">
<title>Node27</title>
<g id="a_node27"><a xlink:href="../../d0/dfe/class_syntax_analyzer.html#aea3a3d1860938d64edf651bdc4016c04" target="_top" xlink:title=" ">
<polygon fill="none" stroke="black" points="1278.5,-1791.41 1278.5,-1810.41 1417.5,-1810.41 1417.5,-1791.41 1278.5,-1791.41"/>
<text text-anchor="middle" x="1348" y="-1798.41" font-family="Helvetica,sans-Serif" font-size="10.00">SyntaxAnalyzer::syntaxIterSt</text>
</a>
</g>
</g>
<!-- Node26&#45;&gt;Node27 -->
<g id="edge78" class="edge">
<title>Node26&#45;&gt;Node27</title>
<path fill="none" stroke="midnightblue" d="M1236.13,-1800.91C1246.63,-1800.91 1257.54,-1800.91 1268.24,-1800.91"/>
<polygon fill="midnightblue" stroke="midnightblue" points="1268.41,-1804.41 1278.41,-1800.91 1268.41,-1797.41 1268.41,-1804.41"/>
</g>
<!-- Node27&#45;&gt;Node2 -->
<g id="edge79" class="edge">
<title>Node27&#45;&gt;Node2</title>
<path fill="none" stroke="midnightblue" d="M1383.89,-1810.46C1396.72,-1814.39 1411.22,-1819.33 1424,-1824.91 1642.24,-1920.17 1663.88,-2066.91 1902,-2066.91 1902,-2066.91 1902,-2066.91 2269.5,-2066.91 2390.17,-2066.91 2433.73,-2092.9 2539,-2033.91 2580.43,-2010.7 2610.32,-1961.29 2624.41,-1934.01"/>
<polygon fill="midnightblue" stroke="midnightblue" points="2627.71,-1935.25 2629.03,-1924.74 2621.44,-1932.13 2627.71,-1935.25"/>
</g>
<!-- Node27&#45;&gt;Node3 -->
<g id="edge81" class="edge">
<title>Node27&#45;&gt;Node3</title>
<path fill="none" stroke="midnightblue" d="M1354.97,-1810.58C1407.08,-1893.72 1794.31,-2484.91 2267.5,-2484.91 2267.5,-2484.91 2267.5,-2484.91 2460,-2484.91 2564.55,-2484.91 2616.41,-2530.98 2694,-2460.91 2771.47,-2390.94 2796.75,-2041.56 2801.92,-1953.89"/>
<polygon fill="midnightblue" stroke="midnightblue" points="2805.43,-1953.9 2802.5,-1943.71 2798.44,-1953.5 2805.43,-1953.9"/>
</g>
<!-- Node27&#45;&gt;Node4 -->
<g id="edge83" class="edge">
<title>Node27&#45;&gt;Node4</title>
<path fill="none" stroke="midnightblue" d="M1349.41,-1791.19C1353.27,-1701.93 1384.81,-1023.66 1460,-836.91 1509.45,-714.09 1708.39,-432.55 1821,-362.91 2018.84,-240.57 2115.57,-276.08 2343,-324.91 2522.61,-363.47 2715.14,-480.76 2780.12,-522.75"/>
<polygon fill="midnightblue" stroke="midnightblue" points="2778.47,-525.86 2788.76,-528.38 2782.29,-519.99 2778.47,-525.86"/>
</g>
<!-- Node27&#45;&gt;Node6 -->
<g id="edge80" class="edge">
<title>Node27&#45;&gt;Node6</title>
<path fill="none" stroke="midnightblue" d="M1349.77,-1791C1355.83,-1714.87 1397.02,-1222.43 1460,-1088.91 1563.01,-870.53 1618.31,-814.14 1821,-682.91 1898.61,-632.66 2339.06,-535.8 2379,-530.91 2449.58,-522.27 2473.19,-503.96 2539,-530.91 2575.88,-546.02 2606.1,-583.23 2621.8,-605.74"/>
<polygon fill="midnightblue" stroke="midnightblue" points="2618.95,-607.77 2627.44,-614.11 2624.76,-603.86 2618.95,-607.77"/>
</g>
<!-- Node27&#45;&gt;Node7 -->
<g id="edge82" class="edge">
<title>Node27&#45;&gt;Node7</title>
<path fill="none" stroke="midnightblue" d="M1384.34,-1810.43C1397.08,-1814.32 1411.41,-1819.25 1424,-1824.91 1737.16,-1965.68 1745.16,-2218.91 2088.5,-2218.91 2088.5,-2218.91 2088.5,-2218.91 2460,-2218.91 2623.89,-2218.91 2636.78,-2087.49 2694,-1933.91 2776.26,-1713.11 2797.61,-1423.45 2802.01,-1345.78"/>
<polygon fill="midnightblue" stroke="midnightblue" points="2805.52,-1345.71 2802.56,-1335.53 2798.53,-1345.33 2805.52,-1345.71"/>
</g>
<!-- Node27&#45;&gt;Node17 -->
<g id="edge84" class="edge">
<title>Node27&#45;&gt;Node17</title>
<path fill="none" stroke="midnightblue" d="M1353.27,-1791.4C1377.22,-1738 1495.01,-1475.41 1527.94,-1402.01"/>
<polygon fill="midnightblue" stroke="midnightblue" points="1531.26,-1403.15 1532.16,-1392.6 1524.87,-1400.29 1531.26,-1403.15"/>
</g>
<!-- Node27&#45;&gt;Node21 -->
<g id="edge85" class="edge">
<title>Node27&#45;&gt;Node21</title>
<path fill="none" stroke="midnightblue" d="M1417.75,-1805.16C1472.54,-1806.4 1550.51,-1803.28 1615,-1781.91 1896.39,-1688.67 2177.13,-1446.68 2249.57,-1381.36"/>
<polygon fill="midnightblue" stroke="midnightblue" points="2251.95,-1383.93 2257.01,-1374.62 2247.25,-1378.74 2251.95,-1383.93"/>
</g>
<!-- Node28&#45;&gt;Node2 -->
<g id="edge88" class="edge">
<title>Node28&#45;&gt;Node2</title>
<path fill="none" stroke="midnightblue" d="M1567.57,-1725.51C1582.01,-1730.54 1599.62,-1737.07 1615,-1743.91 1831.85,-1840.43 1851.14,-1990.91 2088.5,-1990.91 2088.5,-1990.91 2088.5,-1990.91 2269.5,-1990.91 2389.75,-1990.91 2423.98,-2001.98 2539,-1966.91 2565.66,-1958.78 2593.27,-1942.53 2611.71,-1930.34"/>
<polygon fill="midnightblue" stroke="midnightblue" points="2613.9,-1933.08 2620.22,-1924.57 2609.98,-1927.29 2613.9,-1933.08"/>
</g>
<!-- Node28&#45;&gt;Node6 -->
<g id="edge89" class="edge">
<title>Node28&#45;&gt;Node6</title>
<path fill="none" stroke="midnightblue" d="M1540.64,-1706.26C1550.99,-1659.92 1597.64,-1455.75 1651,-1292.91 1701.84,-1137.78 1728.51,-1104.08 1785,-950.91 1801.93,-905.02 1793.97,-887.67 1821,-846.91 1887.1,-747.25 1915.87,-723.92 2021,-666.91 2151.21,-596.3 2210.34,-646.81 2343,-580.91 2361.15,-571.89 2359.83,-559.49 2379,-552.91 2446.26,-529.83 2471.55,-530.4 2539,-552.91 2570.9,-563.56 2600.69,-589.68 2617.99,-607.09"/>
<polygon fill="midnightblue" stroke="midnightblue" points="2615.57,-609.62 2625.03,-614.39 2620.61,-604.76 2615.57,-609.62"/>
</g>
<!-- Node28&#45;&gt;Node7 -->
<g id="edge90" class="edge">
<title>Node28&#45;&gt;Node7</title>
<path fill="none" stroke="midnightblue" d="M1578.74,-1706.33C1699.77,-1677.51 2071.09,-1589.11 2379,-1515.91 2450.11,-1499.01 2468.5,-1497.18 2539,-1477.91 2608.57,-1458.9 2631.82,-1466.44 2694,-1429.91 2733.6,-1406.65 2770.15,-1366.38 2789.21,-1343.37"/>
<polygon fill="midnightblue" stroke="midnightblue" points="2792.04,-1345.44 2795.63,-1335.47 2786.6,-1341.02 2792.04,-1345.44"/>
</g>
<!-- Node28&#45;&gt;Node14 -->
<g id="edge92" class="edge">
<title>Node28&#45;&gt;Node14</title>
<path fill="none" stroke="midnightblue" d="M1478.07,-1725.43C1379.03,-1737.1 1178.55,-1754.77 1071.19,-1761.41"/>
<polygon fill="midnightblue" stroke="midnightblue" points="1070.87,-1757.92 1061.1,-1762.01 1071.29,-1764.91 1070.87,-1757.92"/>
</g>
<!-- Node28&#45;&gt;Node18 -->
<g id="edge91" class="edge">
<title>Node28&#45;&gt;Node18</title>
<path fill="none" stroke="midnightblue" d="M1543.65,-1706.3C1568.23,-1660.44 1673.82,-1463.46 1706.99,-1401.59"/>
<polygon fill="midnightblue" stroke="midnightblue" points="1710.19,-1403.02 1711.83,-1392.56 1704.02,-1399.72 1710.19,-1403.02"/>
</g>
<!-- Node29&#45;&gt;Node2 -->
<g id="edge94" class="edge">
<title>Node29&#45;&gt;Node2</title>
<path fill="none" stroke="midnightblue" d="M1545.92,-1772.65C1575.54,-1810.67 1690.08,-1949.73 1821,-2004.91 1930.99,-2051.27 1969.13,-2028.91 2088.5,-2028.91 2088.5,-2028.91 2088.5,-2028.91 2269.5,-2028.91 2389.75,-2028.91 2429.44,-2054.48 2539,-2004.91 2574.22,-1988.98 2604.47,-1954.3 2620.73,-1932.95"/>
<polygon fill="midnightblue" stroke="midnightblue" points="2623.69,-1934.83 2626.82,-1924.7 2618.06,-1930.67 2623.69,-1934.83"/>
</g>
<!-- Node29&#45;&gt;Node6 -->
<g id="edge95" class="edge">
<title>Node29&#45;&gt;Node6</title>
<path fill="none" stroke="midnightblue" d="M1589.42,-1753.3C1599.26,-1749.18 1608.51,-1743.3 1615,-1734.91 1665.68,-1669.39 1625.41,-1442.69 1651,-1363.91 1687.31,-1252.12 1746.45,-1246.95 1785,-1135.91 1823.41,-1025.29 1755.49,-971.97 1821,-874.91 1868,-805.28 1929.39,-843.88 1985,-780.91 2012.43,-749.85 1989.59,-721.93 2021,-694.91 2027.99,-688.9 2334.35,-617.12 2343,-613.91 2359.77,-607.69 2361.59,-600.02 2379,-595.91 2448.21,-579.57 2468.63,-585.71 2539,-595.91 2559.1,-598.83 2580.88,-605.06 2598.46,-610.9"/>
<polygon fill="midnightblue" stroke="midnightblue" points="2597.68,-614.34 2608.28,-614.27 2599.95,-607.72 2597.68,-614.34"/>
</g>
<!-- Node29&#45;&gt;Node7 -->
<g id="edge96" class="edge">
<title>Node29&#45;&gt;Node7</title>
<path fill="none" stroke="midnightblue" d="M1614.11,-1761.27C1802.75,-1756.58 2283.28,-1740.83 2343,-1700.91 2372.41,-1681.25 2351.25,-1651.86 2379,-1629.91 2407.24,-1607.58 2666.02,-1576.57 2694,-1553.91 2762.37,-1498.53 2790.51,-1390 2799.5,-1345.58"/>
<polygon fill="midnightblue" stroke="midnightblue" points="2802.98,-1345.99 2801.42,-1335.51 2796.11,-1344.68 2802.98,-1345.99"/>
</g>
<!-- Node29&#45;&gt;Node18 -->
<g id="edge97" class="edge">
<title>Node29&#45;&gt;Node18</title>
<path fill="none" stroke="midnightblue" d="M1585.91,-1753.29C1596.65,-1749.16 1607.18,-1743.29 1615,-1734.91 1706.58,-1636.8 1716.49,-1461.39 1717.14,-1402.67"/>
<polygon fill="midnightblue" stroke="midnightblue" points="1720.64,-1402.55 1717.17,-1392.54 1713.64,-1402.53 1720.64,-1402.55"/>
</g>
<!-- Node30&#45;&gt;Node2 -->
<g id="edge99" class="edge">
<title>Node30&#45;&gt;Node2</title>
<path fill="none" stroke="midnightblue" d="M1541.06,-1117.5C1551.36,-1155.3 1592.13,-1297.08 1651,-1401.91 1767.83,-1609.96 1820.08,-1662.21 2021,-1790.91 2161.16,-1880.7 2213.47,-1883.43 2379,-1900.91 2441.68,-1907.53 2513.4,-1911.12 2564.69,-1913"/>
<polygon fill="midnightblue" stroke="midnightblue" points="2564.87,-1916.51 2574.99,-1913.36 2565.12,-1909.51 2564.87,-1916.51"/>
</g>
<!-- Node30&#45;&gt;Node6 -->
<g id="edge100" class="edge">
<title>Node30&#45;&gt;Node6</title>
<path fill="none" stroke="midnightblue" d="M1541.63,-1098.28C1564.99,-1028.25 1719.78,-596.46 2021,-476.91 2128.28,-434.33 2440.56,-378.65 2539,-438.91 2599.32,-475.84 2622.68,-564.75 2630.31,-604.33"/>
<polygon fill="midnightblue" stroke="midnightblue" points="2626.89,-605.08 2632.09,-614.31 2633.78,-603.85 2626.89,-605.08"/>
</g>
<!-- Node30&#45;&gt;Node7 -->
<g id="edge101" class="edge">
<title>Node30&#45;&gt;Node7</title>
<path fill="none" stroke="midnightblue" d="M1560,-1098.4C1606.6,-1078.18 1720.78,-1030.73 1821,-1005.91 1933.93,-977.94 2250.19,-895.76 2343,-965.91 2389.8,-1001.29 2335.13,-1053.96 2379,-1092.91 2485.01,-1187.02 2576.65,-1063.4 2694,-1142.91 2753.63,-1183.31 2785.62,-1268.17 2797.51,-1306.45"/>
<polygon fill="midnightblue" stroke="midnightblue" points="2794.25,-1307.75 2800.45,-1316.34 2800.95,-1305.75 2794.25,-1307.75"/>
</g>
<!-- Node30&#45;&gt;Node14 -->
<g id="edge103" class="edge">
<title>Node30&#45;&gt;Node14</title>
<path fill="none" stroke="midnightblue" d="M1481.96,-1098.38C1389.7,-1080.22 1202.59,-1052.5 1097,-1149.91 1007.06,-1232.88 999.86,-1646.51 999.47,-1742.92"/>
<polygon fill="midnightblue" stroke="midnightblue" points="995.97,-1743.05 999.45,-1753.06 1002.97,-1743.06 995.97,-1743.05"/>
</g>
<!-- Node30&#45;&gt;Node18 -->
<g id="edge102" class="edge">
<title>Node30&#45;&gt;Node18</title>
<path fill="none" stroke="midnightblue" d="M1544.85,-1117.7C1571.04,-1158.05 1670.86,-1311.83 1705.26,-1364.83"/>
<polygon fill="midnightblue" stroke="midnightblue" points="1702.34,-1366.76 1710.72,-1373.24 1708.21,-1362.95 1702.34,-1366.76"/>
</g>
<!-- Node31&#45;&gt;Node6 -->
<g id="edge105" class="edge">
<title>Node31&#45;&gt;Node6</title>
<path fill="none" stroke="midnightblue" d="M2283.99,-1753.37C2300,-1742.26 2325.8,-1722.64 2343,-1700.91 2364.96,-1673.17 2353.66,-1654.6 2379,-1629.91 2435.38,-1574.97 2494.86,-1619.1 2539,-1553.91 2574.58,-1501.37 2567.9,-1046.97 2575,-983.91 2589.71,-853.21 2619.07,-697.59 2629.61,-643.55"/>
<polygon fill="midnightblue" stroke="midnightblue" points="2633.07,-644.09 2631.57,-633.6 2626.2,-642.74 2633.07,-644.09"/>
</g>
<!-- Node31&#45;&gt;Node7 -->
<g id="edge106" class="edge">
<title>Node31&#45;&gt;Node7</title>
<path fill="none" stroke="midnightblue" d="M2341.61,-1758.82C2434.84,-1749.75 2596.74,-1720.6 2694,-1626.91 2776.97,-1546.98 2797.04,-1399.14 2801.67,-1345.78"/>
<polygon fill="midnightblue" stroke="midnightblue" points="2805.18,-1345.86 2802.46,-1335.62 2798.2,-1345.32 2805.18,-1345.86"/>
</g>
<!-- Node32 -->
<g id="node32" class="node">
<title>Node32</title>
<g id="a_node32"><a xlink:href="../../d0/dfe/class_syntax_analyzer.html#adad79b2219ae143b49203a836713bec9" target="_top" xlink:title=" ">
<polygon fill="none" stroke="black" points="2379,-1639.41 2379,-1658.41 2539,-1658.41 2539,-1639.41 2379,-1639.41"/>
<text text-anchor="middle" x="2459" y="-1646.41" font-family="Helvetica,sans-Serif" font-size="10.00">SyntaxAnalyzer::syntaxConstDecl</text>
</a>
</g>
</g>
<!-- Node31&#45;&gt;Node32 -->
<g id="edge107" class="edge">
<title>Node31&#45;&gt;Node32</title>
<path fill="none" stroke="midnightblue" d="M2307.17,-1753.37C2319,-1749.66 2331.87,-1744.85 2343,-1738.91 2381.09,-1718.6 2419.38,-1685.5 2440.76,-1665.61"/>
<polygon fill="midnightblue" stroke="midnightblue" points="2443.22,-1668.09 2448.08,-1658.68 2438.41,-1663 2443.22,-1668.09"/>
</g>
<!-- Node32&#45;&gt;Node2 -->
<g id="edge108" class="edge">
<title>Node32&#45;&gt;Node2</title>
<path fill="none" stroke="midnightblue" d="M2514.89,-1658.49C2523.7,-1661.92 2532.16,-1666.58 2539,-1672.91 2605.53,-1734.48 2625.84,-1848.52 2631.5,-1894.71"/>
<polygon fill="midnightblue" stroke="midnightblue" points="2628.05,-1895.36 2632.64,-1904.91 2635.01,-1894.59 2628.05,-1895.36"/>
</g>
<!-- Node32&#45;&gt;Node6 -->
<g id="edge109" class="edge">
<title>Node32&#45;&gt;Node6</title>
<path fill="none" stroke="midnightblue" d="M2520.62,-1639.22C2527.7,-1635.75 2534.13,-1631.11 2539,-1624.91 2583.07,-1568.82 2567.27,-1054.83 2575,-983.91 2589.26,-853.16 2618.89,-697.57 2629.56,-643.54"/>
<polygon fill="midnightblue" stroke="midnightblue" points="2633.02,-644.09 2631.54,-633.6 2626.16,-642.72 2633.02,-644.09"/>
</g>
<!-- Node32&#45;&gt;Node7 -->
<g id="edge111" class="edge">
<title>Node32&#45;&gt;Node7</title>
<path fill="none" stroke="midnightblue" d="M2539.03,-1645.41C2588.73,-1639.34 2651.32,-1624.13 2694,-1586.91 2769.55,-1521.03 2793.92,-1394.26 2800.69,-1345.6"/>
<polygon fill="midnightblue" stroke="midnightblue" points="2804.19,-1345.84 2802,-1335.47 2797.25,-1344.94 2804.19,-1345.84"/>
</g>
<!-- Node32&#45;&gt;Node10 -->
<g id="edge112" class="edge">
<title>Node32&#45;&gt;Node10</title>
<path fill="none" stroke="midnightblue" d="M2461.89,-1658.64C2478.93,-1746.34 2606.03,-2400.54 2629.71,-2522.4"/>
<polygon fill="midnightblue" stroke="midnightblue" points="2626.27,-2523.08 2631.62,-2532.22 2633.15,-2521.74 2626.27,-2523.08"/>
</g>
<!-- Node32&#45;&gt;Node22 -->
<g id="edge110" class="edge">
<title>Node32&#45;&gt;Node22</title>
<path fill="none" stroke="midnightblue" d="M2518.91,-1639.33C2526.53,-1635.87 2533.56,-1631.2 2539,-1624.91 2579.6,-1577.99 2622.58,-1124.27 2631.73,-1022.92"/>
<polygon fill="midnightblue" stroke="midnightblue" points="2635.23,-1023.09 2632.63,-1012.82 2628.25,-1022.46 2635.23,-1023.09"/>
</g>
<!-- Node33&#45;&gt;Node6 -->
<g id="edge114" class="edge">
<title>Node33&#45;&gt;Node6</title>
<path fill="none" stroke="midnightblue" d="M2138.74,-823.39C2207.51,-809.47 2327.18,-783.83 2343,-770.91 2371.95,-747.28 2349.96,-718.44 2379,-694.91 2435.8,-648.91 2468.85,-677.43 2539,-656.91 2559.12,-651.03 2581.27,-643.36 2599.06,-636.89"/>
<polygon fill="midnightblue" stroke="midnightblue" points="2600.28,-640.18 2608.46,-633.45 2597.87,-633.61 2600.28,-640.18"/>
</g>
<!-- Node33&#45;&gt;Node7 -->
<g id="edge115" class="edge">
<title>Node33&#45;&gt;Node7</title>
<path fill="none" stroke="midnightblue" d="M2139.05,-842.46C2207.89,-856.35 2327.29,-881.9 2343,-894.91 2372.71,-919.53 2349.79,-948.7 2379,-973.91 2434.15,-1021.53 2639.62,-1016.42 2694,-1064.91 2768.82,-1131.63 2793.62,-1257.9 2800.6,-1306.33"/>
<polygon fill="midnightblue" stroke="midnightblue" points="2797.16,-1306.96 2801.96,-1316.4 2804.09,-1306.03 2797.16,-1306.96"/>
</g>
<!-- Node34 -->
<g id="node34" class="node">
<title>Node34</title>
<g id="a_node34"><a xlink:href="../../d0/dfe/class_syntax_analyzer.html#a8f6dda26a96ec0e5e75bea5eed577856" target="_top" xlink:title=" ">
<polygon fill="none" stroke="black" points="2194,-823.41 2194,-842.41 2343,-842.41 2343,-823.41 2194,-823.41"/>
<text text-anchor="middle" x="2268.5" y="-830.41" font-family="Helvetica,sans-Serif" font-size="10.00">SyntaxAnalyzer::syntaxVarDecl</text>
</a>
</g>
</g>
<!-- Node33&#45;&gt;Node34 -->
<g id="edge116" class="edge">
<title>Node33&#45;&gt;Node34</title>
<path fill="none" stroke="midnightblue" d="M2157.16,-832.91C2165.85,-832.91 2174.84,-832.91 2183.76,-832.91"/>
<polygon fill="midnightblue" stroke="midnightblue" points="2183.78,-836.41 2193.78,-832.91 2183.78,-829.41 2183.78,-836.41"/>
</g>
<!-- Node34&#45;&gt;Node2 -->
<g id="edge117" class="edge">
<title>Node34&#45;&gt;Node2</title>
<path fill="none" stroke="midnightblue" d="M2276.9,-842.56C2292.54,-863.59 2328.66,-915.68 2343,-965.91 2364.44,-1041.01 2328.13,-1608.65 2379,-1667.91 2426.29,-1723.01 2482.5,-1655.3 2539,-1700.91 2601.82,-1751.62 2624.06,-1852.6 2630.86,-1895.21"/>
<polygon fill="midnightblue" stroke="midnightblue" points="2627.44,-1896 2632.36,-1905.38 2634.36,-1894.98 2627.44,-1896"/>
</g>
<!-- Node34&#45;&gt;Node6 -->
<g id="edge118" class="edge">
<title>Node34&#45;&gt;Node6</title>
<path fill="none" stroke="midnightblue" d="M2316.54,-823.4C2326,-819.95 2335.36,-815.26 2343,-808.91 2368.69,-787.55 2353.05,-763.96 2379,-742.91 2436.66,-696.14 2472.74,-728.4 2539,-694.91 2568.22,-680.14 2597.73,-656.2 2615.81,-640.26"/>
<polygon fill="midnightblue" stroke="midnightblue" points="2618.17,-642.85 2623.28,-633.56 2613.5,-637.64 2618.17,-642.85"/>
</g>
<!-- Node34&#45;&gt;Node7 -->
<g id="edge119" class="edge">
<title>Node34&#45;&gt;Node7</title>
<path fill="none" stroke="midnightblue" d="M2319.02,-842.5C2327.77,-845.93 2336.23,-850.59 2343,-856.91 2374.19,-886.03 2345.12,-919.98 2379,-945.91 2490.98,-1031.62 2585.35,-894.02 2694,-983.91 2795.51,-1067.89 2803.7,-1246.4 2803.47,-1306.04"/>
<polygon fill="midnightblue" stroke="midnightblue" points="2799.97,-1306.27 2803.34,-1316.32 2806.97,-1306.37 2799.97,-1306.27"/>
</g>
<!-- Node35 -->
<g id="node35" class="node">
<title>Node35</title>
<g id="a_node35"><a xlink:href="../../d0/dfe/class_syntax_analyzer.html#a5d262eb9e2236dde3bd043eea0b0e957" target="_top" xlink:title=" ">
<polygon fill="none" stroke="black" points="2380,-899.41 2380,-918.41 2538,-918.41 2538,-899.41 2380,-899.41"/>
<text text-anchor="middle" x="2459" y="-906.41" font-family="Helvetica,sans-Serif" font-size="10.00">SyntaxAnalyzer::syntaxTypeSpec</text>
</a>
</g>
</g>
<!-- Node34&#45;&gt;Node35 -->
<g id="edge120" class="edge">
<title>Node34&#45;&gt;Node35</title>
<path fill="none" stroke="midnightblue" d="M2301.24,-842.44C2314.29,-846.58 2329.48,-851.67 2343,-856.91 2372.85,-868.49 2406.09,-883.8 2429.13,-894.8"/>
<polygon fill="midnightblue" stroke="midnightblue" points="2427.81,-898.05 2438.34,-899.23 2430.84,-891.74 2427.81,-898.05"/>
</g>
<!-- Node35&#45;&gt;Node2 -->
<g id="edge121" class="edge">
<title>Node35&#45;&gt;Node2</title>
<path fill="none" stroke="midnightblue" d="M2462.27,-918.53C2472.33,-961.44 2513.58,-1139.86 2539,-1287.91 2559.18,-1405.49 2557.46,-1435.91 2575,-1553.91 2594.39,-1684.36 2620.83,-1840.8 2630.11,-1895.16"/>
<polygon fill="midnightblue" stroke="midnightblue" points="2626.69,-1895.9 2631.82,-1905.16 2633.59,-1894.72 2626.69,-1895.9"/>
</g>
<!-- Node35&#45;&gt;Node4 -->
<g id="edge125" class="edge">
<title>Node35&#45;&gt;Node4</title>
<path fill="none" stroke="midnightblue" d="M2538.12,-913.34C2588.25,-911.98 2651.64,-901.87 2694,-864.91 2718.4,-843.62 2779.46,-624.57 2797.75,-557.39"/>
<polygon fill="midnightblue" stroke="midnightblue" points="2801.15,-558.21 2800.39,-547.64 2794.39,-556.38 2801.15,-558.21"/>
</g>
<!-- Node35&#45;&gt;Node6 -->
<g id="edge122" class="edge">
<title>Node35&#45;&gt;Node6</title>
<path fill="none" stroke="midnightblue" d="M2468.76,-899.18C2484.12,-881.84 2516.42,-844.11 2539,-808.91 2576.06,-751.14 2610.25,-677.02 2625.35,-642.79"/>
<polygon fill="midnightblue" stroke="midnightblue" points="2628.61,-644.07 2629.4,-633.51 2622.19,-641.27 2628.61,-644.07"/>
</g>
<!-- Node35&#45;&gt;Node7 -->
<g id="edge124" class="edge">
<title>Node35&#45;&gt;Node7</title>
<path fill="none" stroke="midnightblue" d="M2538.26,-903.19C2588.61,-903.82 2652.2,-913.29 2694,-950.91 2748.78,-1000.21 2789.13,-1236.21 2800.05,-1306.27"/>
<polygon fill="midnightblue" stroke="midnightblue" points="2796.62,-1307.01 2801.6,-1316.36 2803.54,-1305.95 2796.62,-1307.01"/>
</g>
<!-- Node35&#45;&gt;Node22 -->
<g id="edge123" class="edge">
<title>Node35&#45;&gt;Node22</title>
<path fill="none" stroke="midnightblue" d="M2477.59,-918.44C2508.12,-934.98 2571.06,-969.08 2606.94,-988.52"/>
<polygon fill="midnightblue" stroke="midnightblue" points="2605.4,-991.67 2615.86,-993.36 2608.74,-985.51 2605.4,-991.67"/>
</g>
<!-- Node35&#45;&gt;Node35 -->
<g id="edge126" class="edge">
<title>Node35&#45;&gt;Node35</title>
<path fill="none" stroke="midnightblue" d="M2432.18,-918.67C2419.13,-927.48 2428.07,-936.91 2459,-936.91 2479.78,-936.91 2490.63,-932.65 2491.56,-927.19"/>
<polygon fill="midnightblue" stroke="midnightblue" points="2494.31,-925 2485.82,-918.67 2488.51,-928.92 2494.31,-925"/>
</g>
<!-- Node36&#45;&gt;Node2 -->
<g id="edge128" class="edge">
<title>Node36&#45;&gt;Node2</title>
<path fill="none" stroke="midnightblue" d="M265.2,-538.51C267.54,-647.35 291.27,-1650.23 376,-1933.91 444.9,-2164.62 395.73,-2408.91 636.5,-2408.91 636.5,-2408.91 636.5,-2408.91 1349,-2408.91 1482.6,-2408.91 2442.75,-2329.56 2539,-2236.91 2594.33,-2183.65 2553.22,-2141.56 2575,-2067.91 2589.58,-2018.61 2612.74,-1962.63 2625.1,-1934"/>
<polygon fill="midnightblue" stroke="midnightblue" points="2628.34,-1935.32 2629.12,-1924.75 2621.92,-1932.52 2628.34,-1935.32"/>
</g>
<!-- Node36&#45;&gt;Node4 -->
<g id="edge131" class="edge">
<title>Node36&#45;&gt;Node4</title>
<path fill="none" stroke="midnightblue" d="M264.59,-519.13C263.15,-470.59 263.35,-253.61 376,-142.91 461.51,-58.89 516.62,-72.91 636.5,-72.91 636.5,-72.91 636.5,-72.91 1904,-72.91 2186.78,-72.91 2297.66,34.46 2539,-112.91 2700.14,-211.31 2777.97,-449.02 2797.79,-518.52"/>
<polygon fill="midnightblue" stroke="midnightblue" points="2794.42,-519.49 2800.47,-528.19 2801.17,-517.61 2794.42,-519.49"/>
</g>
<!-- Node36&#45;&gt;Node6 -->
<g id="edge129" class="edge">
<title>Node36&#45;&gt;Node6</title>
<path fill="none" stroke="midnightblue" d="M267.98,-519.4C288.11,-457.18 410.28,-110.91 636.5,-110.91 636.5,-110.91 636.5,-110.91 2269.5,-110.91 2397.57,-110.91 2454.79,-116.42 2539,-212.91 2591.66,-273.26 2623.34,-530.67 2631.43,-604.22"/>
<polygon fill="midnightblue" stroke="midnightblue" points="2627.97,-604.82 2632.53,-614.38 2634.93,-604.07 2627.97,-604.82"/>
</g>
<!-- Node36&#45;&gt;Node7 -->
<g id="edge130" class="edge">
<title>Node36&#45;&gt;Node7</title>
<path fill="none" stroke="midnightblue" d="M340.07,-528.91C415.11,-528.91 533.79,-528.91 636.5,-528.91 636.5,-528.91 636.5,-528.91 1167.5,-528.91 1553.62,-528.91 1648.34,-633.85 1985,-822.91 2002.91,-832.97 2002.62,-842.72 2021,-851.91 2087.04,-884.94 2286,-886.97 2343,-933.91 2371.85,-957.67 2350.85,-985.33 2379,-1009.91 2489.63,-1106.53 2582.17,-1014.68 2694,-1109.91 2757.41,-1163.91 2787.98,-1263.84 2798.55,-1306.16"/>
<polygon fill="midnightblue" stroke="midnightblue" points="2795.18,-1307.13 2800.91,-1316.05 2801.99,-1305.51 2795.18,-1307.13"/>
</g>
<!-- Node36&#45;&gt;Node10 -->
<g id="edge132" class="edge">
<title>Node36&#45;&gt;Node10</title>
<path fill="none" stroke="midnightblue" d="M264.93,-538.64C264.16,-658.07 259.59,-1842.31 376,-2168.91 432.85,-2328.41 467.18,-2446.91 636.5,-2446.91 636.5,-2446.91 636.5,-2446.91 1167.5,-2446.91 1497.85,-2446.91 1571.65,-2560.91 1902,-2560.91 1902,-2560.91 1902,-2560.91 2269.5,-2560.91 2376.26,-2560.91 2500.39,-2552.66 2572.63,-2547.03"/>
<polygon fill="midnightblue" stroke="midnightblue" points="2573.21,-2550.5 2582.9,-2546.22 2572.66,-2543.52 2573.21,-2550.5"/>
</g>
<!-- Node36&#45;&gt;Node11 -->
<g id="edge133" class="edge">
<title>Node36&#45;&gt;Node11</title>
<path fill="none" stroke="midnightblue" d="M266.25,-538.5C280.96,-651.79 421.43,-1733.4 442.39,-1894.81"/>
<polygon fill="midnightblue" stroke="midnightblue" points="438.98,-1895.7 443.73,-1905.16 445.92,-1894.8 438.98,-1895.7"/>
</g>
<!-- Node36&#45;&gt;Node34 -->
<g id="edge135" class="edge">
<title>Node36&#45;&gt;Node34</title>
<path fill="none" stroke="midnightblue" d="M292.57,-519.29C353.68,-498.84 505.49,-452.91 636.5,-452.91 636.5,-452.91 636.5,-452.91 1538.5,-452.91 1745.18,-452.91 1805.8,-479.93 1985,-582.91 2101.83,-650.05 2213.34,-770.75 2252.62,-815.55"/>
<polygon fill="midnightblue" stroke="midnightblue" points="2250.09,-817.98 2259.3,-823.23 2255.38,-813.39 2250.09,-817.98"/>
</g>
<!-- Node36&#45;&gt;Node35 -->
<g id="edge134" class="edge">
<title>Node36&#45;&gt;Node35</title>
<path fill="none" stroke="midnightblue" d="M276.82,-519.38C296.27,-504.23 336.77,-474.84 376,-459.91 485.81,-418.13 519.01,-414.91 636.5,-414.91 636.5,-414.91 636.5,-414.91 1719,-414.91 2068.87,-414.91 2378.64,-802.35 2444.94,-891"/>
<polygon fill="midnightblue" stroke="midnightblue" points="2442.13,-893.09 2450.9,-899.04 2447.76,-888.92 2442.13,-893.09"/>
</g>
</g>
</svg>
