<?xml version="1.0" encoding="UTF-8" standalone="no"?>
<!DOCTYPE svg PUBLIC "-//W3C//DTD SVG 1.1//EN"
 "http://www.w3.org/Graphics/SVG/1.1/DTD/svg11.dtd">
<!-- Generated by graphviz version 3.0.0 (20220413.0106)
 -->
<!-- Title: SyntaxAnalyzer::syntaxStList Pages: 1 -->
<svg width="1787pt" height="1339pt"
 viewBox="0.00 0.00 1787.00 1339.26" xmlns="http://www.w3.org/2000/svg" xmlns:xlink="http://www.w3.org/1999/xlink">
<g id="graph0" class="graph" transform="scale(1 1) rotate(0) translate(4 1335.26)">
<title>SyntaxAnalyzer::syntaxStList</title>
<!-- Node1 -->
<g id="node1" class="node">
<title>Node1</title>
<g id="a_node1"><a xlink:title=" ">
<polygon fill="#bfbfbf" stroke="black" points="0,-1054.5 0,-1073.5 141,-1073.5 141,-1054.5 0,-1054.5"/>
<text text-anchor="middle" x="70.5" y="-1061.5" font-family="Helvetica,sans-Serif" font-size="10.00">SyntaxAnalyzer::syntaxStList</text>
</a>
</g>
</g>
<!-- Node2 -->
<g id="node2" class="node">
<title>Node2</title>
<g id="a_node2"><a xlink:href="../../d0/dfe/class_syntax_analyzer.html#ae1d3434e5cc4b4bcd5a3a245814a44f0" target="_top" xlink:title=" ">
<polygon fill="none" stroke="black" points="1485,-750.5 1485,-769.5 1586,-769.5 1586,-750.5 1485,-750.5"/>
<text text-anchor="middle" x="1535.5" y="-757.5" font-family="Helvetica,sans-Serif" font-size="10.00">SyntaxAnalyzer::eat</text>
</a>
</g>
</g>
<!-- Node1&#45;&gt;Node2 -->
<g id="edge1" class="edge">
<title>Node1&#45;&gt;Node2</title>
<path fill="none" stroke="midnightblue" d="M80.54,-1073.68C117.74,-1112.4 264.06,-1254 414.5,-1254 414.5,-1254 414.5,-1254 986.5,-1254 1189.64,-1254 1290.18,-1334.19 1440,-1197 1503.03,-1139.29 1527.54,-857.54 1533.17,-779.87"/>
<polygon fill="midnightblue" stroke="midnightblue" points="1536.68,-779.79 1533.89,-769.57 1529.7,-779.31 1536.68,-779.79"/>
</g>
<!-- Node3 -->
<g id="node3" class="node">
<title>Node3</title>
<g id="a_node3"><a xlink:href="../../d0/dfe/class_syntax_analyzer.html#a3ae6c7319e61cd669c417f189b098374" target="_top" xlink:title=" ">
<polygon fill="none" stroke="black" points="1639,-997.5 1639,-1016.5 1771,-1016.5 1771,-997.5 1639,-997.5"/>
<text text-anchor="middle" x="1705" y="-1004.5" font-family="Helvetica,sans-Serif" font-size="10.00">SyntaxAnalyzer::getCurTok</text>
</a>
</g>
</g>
<!-- Node1&#45;&gt;Node3 -->
<g id="edge4" class="edge">
<title>Node1&#45;&gt;Node3</title>
<path fill="none" stroke="midnightblue" d="M76.69,-1073.8C90.27,-1098.66 129.11,-1165.13 177,-1206 267.57,-1283.3 295.42,-1330 414.5,-1330 414.5,-1330 414.5,-1330 1355.5,-1330 1465.13,-1330 1513.37,-1344.18 1595,-1271 1670.37,-1203.43 1694.85,-1075.76 1701.67,-1026.8"/>
<polygon fill="midnightblue" stroke="midnightblue" points="1705.18,-1026.98 1702.99,-1016.61 1698.24,-1026.08 1705.18,-1026.98"/>
</g>
<!-- Node5 -->
<g id="node5" class="node">
<title>Node5</title>
<g id="a_node5"><a xlink:href="../../d0/dfe/class_syntax_analyzer.html#a7f54bde730006b1b863290415809ab4e" target="_top" xlink:title=" ">
<polygon fill="none" stroke="black" points="177,-845.5 177,-864.5 302,-864.5 302,-845.5 177,-845.5"/>
<text text-anchor="middle" x="239.5" y="-852.5" font-family="Helvetica,sans-Serif" font-size="10.00">SyntaxAnalyzer::syntaxSt</text>
</a>
</g>
</g>
<!-- Node1&#45;&gt;Node5 -->
<g id="edge5" class="edge">
<title>Node1&#45;&gt;Node5</title>
<path fill="none" stroke="midnightblue" d="M79.11,-1054.48C105.08,-1021.97 190.5,-915.07 224.43,-872.61"/>
<polygon fill="midnightblue" stroke="midnightblue" points="227.34,-874.58 230.85,-864.58 221.87,-870.21 227.34,-874.58"/>
</g>
<!-- Node2&#45;&gt;Node3 -->
<g id="edge2" class="edge">
<title>Node2&#45;&gt;Node3</title>
<path fill="none" stroke="midnightblue" d="M1543.66,-769.63C1554.84,-784.7 1576.99,-814.86 1595,-841 1631.36,-893.78 1672.38,-957.43 1692.13,-988.34"/>
<polygon fill="midnightblue" stroke="midnightblue" points="1689.43,-990.62 1697.76,-997.17 1695.34,-986.86 1689.43,-990.62"/>
</g>
<!-- Node4 -->
<g id="node4" class="node">
<title>Node4</title>
<g id="a_node4"><a xlink:href="../../d0/dfe/class_syntax_analyzer.html#a9e41370d8d74fbd2e77648d2071e7dfe" target="_top" xlink:title=" ">
<polygon fill="none" stroke="black" points="1631,-712.5 1631,-731.5 1779,-731.5 1779,-712.5 1631,-712.5"/>
<text text-anchor="middle" x="1705" y="-719.5" font-family="Helvetica,sans-Serif" font-size="10.00">SyntaxAnalyzer::getNextToken</text>
</a>
</g>
</g>
<!-- Node2&#45;&gt;Node4 -->
<g id="edge3" class="edge">
<title>Node2&#45;&gt;Node4</title>
<path fill="none" stroke="midnightblue" d="M1578.77,-750.41C1601.07,-745.35 1628.62,-739.1 1652.2,-733.75"/>
<polygon fill="midnightblue" stroke="midnightblue" points="1653.06,-737.15 1662.04,-731.52 1651.51,-730.32 1653.06,-737.15"/>
</g>
<!-- Node5&#45;&gt;Node2 -->
<g id="edge6" class="edge">
<title>Node5&#45;&gt;Node2</title>
<path fill="none" stroke="midnightblue" d="M252.84,-864.7C270.51,-877.92 304.6,-900.99 338,-910 722.08,-1013.59 836.75,-955.14 1233,-920 1326.09,-911.75 1360.14,-931.55 1440,-883 1481.81,-857.58 1511.87,-806.29 1525.8,-778.65"/>
<polygon fill="midnightblue" stroke="midnightblue" points="1528.96,-780.15 1530.2,-769.63 1522.67,-777.09 1528.96,-780.15"/>
</g>
<!-- Node5&#45;&gt;Node3 -->
<g id="edge7" class="edge">
<title>Node5&#45;&gt;Node3</title>
<path fill="none" stroke="midnightblue" d="M240.34,-864.51C240.17,-906.59 245.4,-1077.61 338,-1161 427.71,-1241.79 483.28,-1216 604,-1216 604,-1216 604,-1216 800,-1216 1153.38,-1216 1295.07,-1415.87 1595,-1229 1668.24,-1183.37 1693.66,-1072.57 1701.21,-1027.04"/>
<polygon fill="midnightblue" stroke="midnightblue" points="1704.7,-1027.37 1702.76,-1016.95 1697.78,-1026.3 1704.7,-1027.37"/>
</g>
<!-- Node6 -->
<g id="node6" class="node">
<title>Node6</title>
<g id="a_node6"><a xlink:href="../../d0/dfe/class_syntax_analyzer.html#af0905389742c4f842207bb2c073afbfa" target="_top" xlink:title=" ">
<polygon fill="none" stroke="black" points="1286,-1168.5 1286,-1187.5 1423,-1187.5 1423,-1168.5 1286,-1168.5"/>
<text text-anchor="middle" x="1354.5" y="-1175.5" font-family="Helvetica,sans-Serif" font-size="10.00">SyntaxAnalyzer::lookFoward</text>
</a>
</g>
</g>
<!-- Node5&#45;&gt;Node6 -->
<g id="edge8" class="edge">
<title>Node5&#45;&gt;Node6</title>
<path fill="none" stroke="midnightblue" d="M240.98,-864.6C243.45,-902.84 257.89,-1045.58 338,-1116 429.17,-1196.15 482.61,-1178 604,-1178 604,-1178 604,-1178 986.5,-1178 1086.3,-1178 1201.36,-1178 1275.65,-1178"/>
<polygon fill="midnightblue" stroke="midnightblue" points="1275.86,-1181.5 1285.86,-1178 1275.86,-1174.5 1275.86,-1181.5"/>
</g>
<!-- Node8 -->
<g id="node8" class="node">
<title>Node8</title>
<g id="a_node8"><a xlink:href="../../d0/dfe/class_syntax_analyzer.html#a31fc5887c158652feb946f89270b4b36" target="_top" xlink:title=" ">
<polygon fill="none" stroke="black" points="338,-864.5 338,-883.5 493,-883.5 493,-864.5 338,-864.5"/>
<text text-anchor="middle" x="415.5" y="-871.5" font-family="Helvetica,sans-Serif" font-size="10.00">SyntaxAnalyzer::syntaxAssignSt</text>
</a>
</g>
</g>
<!-- Node5&#45;&gt;Node8 -->
<g id="edge10" class="edge">
<title>Node5&#45;&gt;Node8</title>
<path fill="none" stroke="midnightblue" d="M302.34,-861.75C310.62,-862.66 319.24,-863.6 327.85,-864.54"/>
<polygon fill="midnightblue" stroke="midnightblue" points="327.62,-868.03 337.94,-865.64 328.38,-861.08 327.62,-868.03"/>
</g>
<!-- Node19 -->
<g id="node19" class="node">
<title>Node19</title>
<g id="a_node19"><a xlink:href="../../d0/dfe/class_syntax_analyzer.html#a2db43946bee3e973ce1cf293b262e271" target="_top" xlink:title=" ">
<polygon fill="none" stroke="black" points="1284,-788.5 1284,-807.5 1425,-807.5 1425,-788.5 1284,-788.5"/>
<text text-anchor="middle" x="1354.5" y="-795.5" font-family="Helvetica,sans-Serif" font-size="10.00">SyntaxAnalyzer::syntaxCallSt</text>
</a>
</g>
</g>
<!-- Node5&#45;&gt;Node19 -->
<g id="edge57" class="edge">
<title>Node5&#45;&gt;Node19</title>
<path fill="none" stroke="midnightblue" d="M258.94,-864.58C278.1,-873.96 309.25,-887.6 338,-893 405.7,-905.73 424.21,-896.65 493,-893 785.7,-877.47 1131.82,-830.47 1280.11,-808.96"/>
<polygon fill="midnightblue" stroke="midnightblue" points="1280.62,-812.42 1290.01,-807.52 1279.61,-805.5 1280.62,-812.42"/>
</g>
<!-- Node21 -->
<g id="node21" class="node">
<title>Node21</title>
<g id="a_node21"><a xlink:href="../../d0/dfe/class_syntax_analyzer.html#a5770afdc4d32d2c38550f27f9ffd949a" target="_top" xlink:title=" ">
<polygon fill="none" stroke="black" points="1269,-408.5 1269,-427.5 1440,-427.5 1440,-408.5 1269,-408.5"/>
<text text-anchor="middle" x="1354.5" y="-415.5" font-family="Helvetica,sans-Serif" font-size="10.00">SyntaxAnalyzer::syntaxCompoundSt</text>
</a>
</g>
</g>
<!-- Node5&#45;&gt;Node21 -->
<g id="edge58" class="edge">
<title>Node5&#45;&gt;Node21</title>
<path fill="none" stroke="midnightblue" d="M246.18,-845.41C280.82,-788.02 470.22,-488.81 717,-379 926.65,-285.71 1009.1,-310.72 1233,-361 1268.88,-369.06 1306.65,-389.07 1330.13,-403.1"/>
<polygon fill="midnightblue" stroke="midnightblue" points="1328.33,-406.1 1338.69,-408.33 1331.98,-400.13 1328.33,-406.1"/>
</g>
<!-- Node23 -->
<g id="node23" class="node">
<title>Node23</title>
<g id="a_node23"><a xlink:href="../../d0/dfe/class_syntax_analyzer.html#a67bc7e3cfb57c9d4d25d60913aef3a87" target="_top" xlink:title=" ">
<polygon fill="none" stroke="black" points="529,-104.5 529,-123.5 681,-123.5 681,-104.5 529,-104.5"/>
<text text-anchor="middle" x="605" y="-111.5" font-family="Helvetica,sans-Serif" font-size="10.00">SyntaxAnalyzer::syntaxEmptySt</text>
</a>
</g>
</g>
<!-- Node5&#45;&gt;Node23 -->
<g id="edge64" class="edge">
<title>Node5&#45;&gt;Node23</title>
<path fill="none" stroke="midnightblue" d="M241.09,-845.37C246.21,-763.77 284.02,-189.59 338,-138 395.99,-82.58 497.07,-91.1 556.53,-102.45"/>
<polygon fill="midnightblue" stroke="midnightblue" points="555.92,-105.9 566.41,-104.44 557.3,-99.04 555.92,-105.9"/>
</g>
<!-- Node24 -->
<g id="node24" class="node">
<title>Node24</title>
<g id="a_node24"><a xlink:href="../../d0/dfe/class_syntax_analyzer.html#a779e006875d35926152773989f4b1e5a" target="_top" xlink:title=" ">
<polygon fill="none" stroke="black" points="350,-750.5 350,-769.5 481,-769.5 481,-750.5 350,-750.5"/>
<text text-anchor="middle" x="415.5" y="-757.5" font-family="Helvetica,sans-Serif" font-size="10.00">SyntaxAnalyzer::syntaxIfSt</text>
</a>
</g>
</g>
<!-- Node5&#45;&gt;Node24 -->
<g id="edge66" class="edge">
<title>Node5&#45;&gt;Node24</title>
<path fill="none" stroke="midnightblue" d="M251.65,-845.39C276.79,-828.22 338.79,-793.68 378.63,-774"/>
<polygon fill="midnightblue" stroke="midnightblue" points="380.28,-777.09 387.75,-769.57 377.22,-770.79 380.28,-777.09"/>
</g>
<!-- Node25 -->
<g id="node25" class="node">
<title>Node25</title>
<g id="a_node25"><a xlink:href="../../d0/dfe/class_syntax_analyzer.html#a64dad7f0b22b08d182483469d3a1aa79" target="_top" xlink:title=" ">
<polygon fill="none" stroke="black" points="341,-826.5 341,-845.5 490,-845.5 490,-826.5 341,-826.5"/>
<text text-anchor="middle" x="415.5" y="-833.5" font-family="Helvetica,sans-Serif" font-size="10.00">SyntaxAnalyzer::syntaxWhileSt</text>
</a>
</g>
</g>
<!-- Node5&#45;&gt;Node25 -->
<g id="edge72" class="edge">
<title>Node5&#45;&gt;Node25</title>
<path fill="none" stroke="midnightblue" d="M276.55,-845.47C292.4,-842.92 311.74,-840.42 330.86,-838.39"/>
<polygon fill="midnightblue" stroke="midnightblue" points="331.23,-841.87 340.82,-837.37 330.51,-834.91 331.23,-841.87"/>
</g>
<!-- Node7 -->
<g id="node7" class="node">
<title>Node7</title>
<g id="a_node7"><a xlink:href="../../d1/d34/class_list.html#a49c179636e084dfbf7a52acd46acaf01" target="_top" xlink:title=" ">
<polygon fill="none" stroke="black" points="1508,-1168.5 1508,-1187.5 1563,-1187.5 1563,-1168.5 1508,-1168.5"/>
<text text-anchor="middle" x="1535.5" y="-1175.5" font-family="Helvetica,sans-Serif" font-size="10.00">List::size</text>
</a>
</g>
</g>
<!-- Node6&#45;&gt;Node7 -->
<g id="edge9" class="edge">
<title>Node6&#45;&gt;Node7</title>
<path fill="none" stroke="midnightblue" d="M1423.17,-1178C1448.53,-1178 1476.37,-1178 1497.87,-1178"/>
<polygon fill="midnightblue" stroke="midnightblue" points="1497.87,-1181.5 1507.87,-1178 1497.87,-1174.5 1497.87,-1181.5"/>
</g>
<!-- Node8&#45;&gt;Node2 -->
<g id="edge15" class="edge">
<title>Node8&#45;&gt;Node2</title>
<path fill="none" stroke="midnightblue" d="M493.18,-874.11C545.99,-874.09 617.75,-873.86 681,-873 1018.57,-868.39 1129.23,-974.88 1440,-843 1473.79,-828.66 1503.96,-797.36 1520.68,-777.56"/>
<polygon fill="midnightblue" stroke="midnightblue" points="1523.56,-779.57 1527.2,-769.61 1518.15,-775.13 1523.56,-779.57"/>
</g>
<!-- Node8&#45;&gt;Node3 -->
<g id="edge16" class="edge">
<title>Node8&#45;&gt;Node3</title>
<path fill="none" stroke="midnightblue" d="M442.06,-883.63C457.13,-889.57 476.42,-897.63 493,-906 596.55,-958.3 612.6,-989.42 717,-1040 946.55,-1151.2 1015.57,-1168.22 1269,-1197 1412.96,-1213.35 1469.62,-1269.62 1595,-1197 1659.81,-1159.46 1689.41,-1067.23 1699.62,-1026.68"/>
<polygon fill="midnightblue" stroke="midnightblue" points="1703.04,-1027.45 1701.95,-1016.91 1696.23,-1025.82 1703.04,-1027.45"/>
</g>
<!-- Node9 -->
<g id="node9" class="node">
<title>Node9</title>
<g id="a_node9"><a xlink:href="../../d7/d7c/class_a_s_t_factory.html#a8d1d4c9d01ab2e366d1af6bbaeaf7bef" target="_top" xlink:title=" ">
<polygon fill="none" stroke="black" points="1476,-294.5 1476,-313.5 1595,-313.5 1595,-294.5 1476,-294.5"/>
<text text-anchor="middle" x="1535.5" y="-301.5" font-family="Helvetica,sans-Serif" font-size="10.00">ASTFactory::createAST</text>
</a>
</g>
</g>
<!-- Node8&#45;&gt;Node9 -->
<g id="edge11" class="edge">
<title>Node8&#45;&gt;Node9</title>
<path fill="none" stroke="midnightblue" d="M480.12,-864.37C484.86,-861.87 489.25,-858.79 493,-855 541.82,-805.64 502.35,-767.11 529,-703 578.18,-584.67 631.18,-576.06 681,-458 706.82,-396.82 666.69,-356.34 717,-313 950.78,-111.62 1377.02,-245.76 1500.27,-290.81"/>
<polygon fill="midnightblue" stroke="midnightblue" points="1499.35,-294.2 1509.94,-294.39 1501.78,-287.63 1499.35,-294.2"/>
</g>
<!-- Node13 -->
<g id="node13" class="node">
<title>Node13</title>
<g id="a_node13"><a xlink:href="../../d0/dfe/class_syntax_analyzer.html#ae8d09db1b25ec882248aeed978c13a4d" target="_top" xlink:title=" ">
<polygon fill="none" stroke="black" points="538,-712.5 538,-731.5 672,-731.5 672,-712.5 538,-712.5"/>
<text text-anchor="middle" x="605" y="-719.5" font-family="Helvetica,sans-Serif" font-size="10.00">SyntaxAnalyzer::syntaxExpr</text>
</a>
</g>
</g>
<!-- Node8&#45;&gt;Node13 -->
<g id="edge17" class="edge">
<title>Node8&#45;&gt;Node13</title>
<path fill="none" stroke="midnightblue" d="M472.92,-864.37C479.97,-861.92 486.85,-858.85 493,-855 539.95,-825.61 576.8,-769.66 593.78,-740.59"/>
<polygon fill="midnightblue" stroke="midnightblue" points="596.86,-742.26 598.76,-731.84 590.77,-738.8 596.86,-742.26"/>
</g>
<!-- Node20 -->
<g id="node20" class="node">
<title>Node20</title>
<g id="a_node20"><a xlink:href="../../d0/dfe/class_syntax_analyzer.html#a94c8a6ab5c0e53cae22edb1a840a27ce" target="_top" xlink:title=" ">
<polygon fill="none" stroke="black" points="1279.5,-598.5 1279.5,-617.5 1429.5,-617.5 1429.5,-598.5 1279.5,-598.5"/>
<text text-anchor="middle" x="1354.5" y="-605.5" font-family="Helvetica,sans-Serif" font-size="10.00">SyntaxAnalyzer::syntaxVariable</text>
</a>
</g>
</g>
<!-- Node8&#45;&gt;Node20 -->
<g id="edge56" class="edge">
<title>Node8&#45;&gt;Node20</title>
<path fill="none" stroke="midnightblue" d="M493.11,-872.2C546.35,-869.7 618.65,-863.81 681,-850 938.15,-793.05 1231.21,-664.16 1323.84,-621.79"/>
<polygon fill="midnightblue" stroke="midnightblue" points="1325.53,-624.86 1333.16,-617.51 1322.61,-618.5 1325.53,-624.86"/>
</g>
<!-- Node10 -->
<g id="node10" class="node">
<title>Node10</title>
<g id="a_node10"><a xlink:href="../../d0/d11/class_i_token.html#ac8ca7f7e601ae49ad573167a4e9429cb" target="_top" xlink:title=" ">
<polygon fill="none" stroke="black" points="1653.5,-427.5 1653.5,-446.5 1756.5,-446.5 1756.5,-427.5 1653.5,-427.5"/>
<text text-anchor="middle" x="1705" y="-434.5" font-family="Helvetica,sans-Serif" font-size="10.00">IToken::getAdvType</text>
</a>
</g>
</g>
<!-- Node9&#45;&gt;Node10 -->
<g id="edge12" class="edge">
<title>Node9&#45;&gt;Node10</title>
<path fill="none" stroke="midnightblue" d="M1548.55,-313.57C1576.9,-336.08 1648.11,-392.62 1683.45,-420.68"/>
<polygon fill="midnightblue" stroke="midnightblue" points="1681.6,-423.69 1691.61,-427.16 1685.96,-418.2 1681.6,-423.69"/>
</g>
<!-- Node11 -->
<g id="node11" class="node">
<title>Node11</title>
<g id="a_node11"><a xlink:href="../../d0/d11/class_i_token.html#ac7f0a800d7a9e8608bab0360c76d735a" target="_top" xlink:title="Получение типа токена">
<polygon fill="none" stroke="black" points="1662,-180.5 1662,-199.5 1748,-199.5 1748,-180.5 1662,-180.5"/>
<text text-anchor="middle" x="1705" y="-187.5" font-family="Helvetica,sans-Serif" font-size="10.00">IToken::getType</text>
</a>
</g>
</g>
<!-- Node9&#45;&gt;Node11 -->
<g id="edge13" class="edge">
<title>Node9&#45;&gt;Node11</title>
<path fill="none" stroke="midnightblue" d="M1550.49,-294.48C1579.36,-274.83 1645.78,-229.63 1681.04,-205.63"/>
<polygon fill="midnightblue" stroke="midnightblue" points="1683.39,-208.26 1689.69,-199.74 1679.46,-202.47 1683.39,-208.26"/>
</g>
<!-- Node12 -->
<g id="node12" class="node">
<title>Node12</title>
<g id="a_node12"><a xlink:href="../../db/dc1/class_token.html#a1f07fa2fffeb2f7ab803ef8b424eae8a" target="_top" xlink:title=" ">
<polygon fill="none" stroke="black" points="1668,-294.5 1668,-313.5 1742,-313.5 1742,-294.5 1668,-294.5"/>
<text text-anchor="middle" x="1705" y="-301.5" font-family="Helvetica,sans-Serif" font-size="10.00">Token::setStr</text>
</a>
</g>
</g>
<!-- Node9&#45;&gt;Node12 -->
<g id="edge14" class="edge">
<title>Node9&#45;&gt;Node12</title>
<path fill="none" stroke="midnightblue" d="M1595.08,-304C1615.56,-304 1638.24,-304 1657.58,-304"/>
<polygon fill="midnightblue" stroke="midnightblue" points="1657.66,-307.5 1667.65,-304 1657.65,-300.5 1657.66,-307.5"/>
</g>
<!-- Node13&#45;&gt;Node2 -->
<g id="edge19" class="edge">
<title>Node13&#45;&gt;Node2</title>
<path fill="none" stroke="midnightblue" d="M672.03,-724.7C845.01,-731.78 1309.38,-750.79 1474.89,-757.56"/>
<polygon fill="midnightblue" stroke="midnightblue" points="1474.75,-761.06 1484.89,-757.97 1475.04,-754.06 1474.75,-761.06"/>
</g>
<!-- Node13&#45;&gt;Node3 -->
<g id="edge20" class="edge">
<title>Node13&#45;&gt;Node3</title>
<path fill="none" stroke="midnightblue" d="M617.58,-731.71C679.25,-782.62 977.11,-1018.6 1269,-1078 1410.98,-1106.89 1456.11,-1119.25 1595,-1078 1630.8,-1067.37 1665.84,-1040.84 1686.15,-1023.4"/>
<polygon fill="midnightblue" stroke="midnightblue" points="1688.73,-1025.79 1693.92,-1016.55 1684.1,-1020.54 1688.73,-1025.79"/>
</g>
<!-- Node13&#45;&gt;Node9 -->
<g id="edge18" class="edge">
<title>Node13&#45;&gt;Node9</title>
<path fill="none" stroke="midnightblue" d="M616.56,-712.37C633.31,-696.42 665.64,-662.71 681,-627 725.01,-524.69 638.75,-458.26 717,-379 820.32,-274.35 1288.31,-289.69 1465.88,-299.56"/>
<polygon fill="midnightblue" stroke="midnightblue" points="1465.71,-303.06 1475.89,-300.13 1466.11,-296.07 1465.71,-303.06"/>
</g>
<!-- Node13&#45;&gt;Node11 -->
<g id="edge21" class="edge">
<title>Node13&#45;&gt;Node11</title>
<path fill="none" stroke="midnightblue" d="M606.28,-712.4C608.09,-664.64 621.45,-449.53 717,-313 855.33,-115.34 919.24,0 1160.5,0 1160.5,0 1160.5,0 1355.5,0 1499.47,0 1640.55,-126.53 1687.58,-173.08"/>
<polygon fill="midnightblue" stroke="midnightblue" points="1685.24,-175.7 1694.78,-180.32 1690.21,-170.76 1685.24,-175.7"/>
</g>
<!-- Node14 -->
<g id="node14" class="node">
<title>Node14</title>
<g id="a_node14"><a xlink:href="../../df/d3f/_syntax_8hpp.html#ae7d62ca130413d4c96863327c1af81a4" target="_top" xlink:title="Возвращает истину, если value находится среди значений cont.">
<polygon fill="none" stroke="black" points="1145.5,-370.5 1145.5,-389.5 1177.5,-389.5 1177.5,-370.5 1145.5,-370.5"/>
<text text-anchor="middle" x="1161.5" y="-377.5" font-family="Helvetica,sans-Serif" font-size="10.00">isIn</text>
</a>
</g>
</g>
<!-- Node13&#45;&gt;Node14 -->
<g id="edge22" class="edge">
<title>Node13&#45;&gt;Node14</title>
<path fill="none" stroke="midnightblue" d="M615.99,-712.49C632.24,-696.46 664.23,-662.3 681,-627 712.65,-560.38 666.53,-518.79 717,-465 830.51,-344.03 1059.36,-364.96 1135.34,-375.87"/>
<polygon fill="midnightblue" stroke="midnightblue" points="1135,-379.35 1145.41,-377.38 1136.04,-372.43 1135,-379.35"/>
</g>
<!-- Node15 -->
<g id="node15" class="node">
<title>Node15</title>
<g id="a_node15"><a xlink:href="../../d0/dfe/class_syntax_analyzer.html#a3dfb6634a4bcdc61da5b1bafd1f3d136" target="_top" xlink:title=" ">
<polygon fill="none" stroke="black" points="717,-474.5 717,-493.5 881,-493.5 881,-474.5 717,-474.5"/>
<text text-anchor="middle" x="799" y="-481.5" font-family="Helvetica,sans-Serif" font-size="10.00">SyntaxAnalyzer::syntaxSimpleExpr</text>
</a>
</g>
</g>
<!-- Node13&#45;&gt;Node15 -->
<g id="edge23" class="edge">
<title>Node13&#45;&gt;Node15</title>
<path fill="none" stroke="midnightblue" d="M613.76,-712.38C642.89,-676.27 745.92,-548.56 783.85,-501.54"/>
<polygon fill="midnightblue" stroke="midnightblue" points="786.58,-503.73 790.14,-493.74 781.14,-499.33 786.58,-503.73"/>
</g>
<!-- Node15&#45;&gt;Node2 -->
<g id="edge25" class="edge">
<title>Node15&#45;&gt;Node2</title>
<path fill="none" stroke="midnightblue" d="M822.65,-493.52C889.89,-521.6 1094.57,-605.59 1269,-662 1343.88,-686.22 1369.55,-672.93 1440,-708 1458.15,-717.03 1458.46,-725.84 1476,-736 1482.66,-739.86 1490.06,-743.41 1497.3,-746.52"/>
<polygon fill="midnightblue" stroke="midnightblue" points="1496.4,-749.93 1506.98,-750.49 1499.05,-743.46 1496.4,-749.93"/>
</g>
<!-- Node15&#45;&gt;Node3 -->
<g id="edge26" class="edge">
<title>Node15&#45;&gt;Node3</title>
<path fill="none" stroke="midnightblue" d="M807.12,-493.7C846.74,-547.03 1046.33,-807.04 1269,-943 1395.4,-1020.18 1446.94,-1015.39 1595,-1012 1605.87,-1011.75 1617.36,-1011.36 1628.62,-1010.91"/>
<polygon fill="midnightblue" stroke="midnightblue" points="1629.04,-1014.39 1638.89,-1010.48 1628.75,-1007.4 1629.04,-1014.39"/>
</g>
<!-- Node15&#45;&gt;Node9 -->
<g id="edge24" class="edge">
<title>Node15&#45;&gt;Node9</title>
<path fill="none" stroke="midnightblue" d="M811.87,-474.28C832.2,-458.1 875.5,-425.58 917,-407 1064.28,-341.06 1109.31,-341.19 1269,-318 1335.41,-308.36 1412.01,-305.15 1465.82,-304.18"/>
<polygon fill="midnightblue" stroke="midnightblue" points="1465.99,-307.68 1475.93,-304.02 1465.88,-300.68 1465.99,-307.68"/>
</g>
<!-- Node15&#45;&gt;Node11 -->
<g id="edge27" class="edge">
<title>Node15&#45;&gt;Node11</title>
<path fill="none" stroke="midnightblue" d="M806.13,-474.22C821.72,-450.09 865.34,-387.13 917,-352 1153.94,-190.89 1517.3,-184.02 1651.68,-187.6"/>
<polygon fill="midnightblue" stroke="midnightblue" points="1651.61,-191.1 1661.71,-187.9 1651.82,-184.1 1651.61,-191.1"/>
</g>
<!-- Node15&#45;&gt;Node14 -->
<g id="edge28" class="edge">
<title>Node15&#45;&gt;Node14</title>
<path fill="none" stroke="midnightblue" d="M832.95,-474.49C904.26,-453.92 1071.6,-405.65 1135.29,-387.27"/>
<polygon fill="midnightblue" stroke="midnightblue" points="1136.62,-390.53 1145.26,-384.4 1134.68,-383.8 1136.62,-390.53"/>
</g>
<!-- Node16 -->
<g id="node16" class="node">
<title>Node16</title>
<g id="a_node16"><a xlink:href="../../d0/dfe/class_syntax_analyzer.html#a1e9b913cc8c2861927d7c05d10f1822d" target="_top" xlink:title=" ">
<polygon fill="none" stroke="black" points="917,-474.5 917,-493.5 1054,-493.5 1054,-474.5 917,-474.5"/>
<text text-anchor="middle" x="985.5" y="-481.5" font-family="Helvetica,sans-Serif" font-size="10.00">SyntaxAnalyzer::syntaxTerm</text>
</a>
</g>
</g>
<!-- Node15&#45;&gt;Node16 -->
<g id="edge29" class="edge">
<title>Node15&#45;&gt;Node16</title>
<path fill="none" stroke="midnightblue" d="M881.19,-484C889.65,-484 898.23,-484 906.64,-484"/>
<polygon fill="midnightblue" stroke="midnightblue" points="906.81,-487.5 916.81,-484 906.81,-480.5 906.81,-487.5"/>
</g>
<!-- Node16&#45;&gt;Node2 -->
<g id="edge31" class="edge">
<title>Node16&#45;&gt;Node2</title>
<path fill="none" stroke="midnightblue" d="M1054.1,-479.66C1152.45,-477.24 1334.73,-488.02 1440,-589 1478.35,-625.78 1448.13,-657.76 1476,-703 1485.79,-718.89 1500.98,-733.51 1513.42,-743.96"/>
<polygon fill="midnightblue" stroke="midnightblue" points="1511.53,-746.93 1521.5,-750.5 1515.93,-741.49 1511.53,-746.93"/>
</g>
<!-- Node16&#45;&gt;Node3 -->
<g id="edge32" class="edge">
<title>Node16&#45;&gt;Node3</title>
<path fill="none" stroke="midnightblue" d="M995.34,-493.58C1012.85,-512.42 1053.44,-555.4 1090,-589 1150.87,-644.95 1190.3,-637.2 1233,-708 1272.89,-774.13 1219.79,-818.48 1269,-878 1357.22,-984.72 1529.38,-1005.7 1628.61,-1008.38"/>
<polygon fill="midnightblue" stroke="midnightblue" points="1628.8,-1011.88 1638.87,-1008.59 1628.95,-1004.88 1628.8,-1011.88"/>
</g>
<!-- Node16&#45;&gt;Node9 -->
<g id="edge30" class="edge">
<title>Node16&#45;&gt;Node9</title>
<path fill="none" stroke="midnightblue" d="M1054.1,-476.54C1117.23,-468.38 1205.71,-453.54 1233,-432 1262.34,-408.84 1239.49,-378.94 1269,-356 1284.45,-343.99 1392.31,-325.58 1465.71,-314.19"/>
<polygon fill="midnightblue" stroke="midnightblue" points="1466.47,-317.61 1475.82,-312.63 1465.41,-310.69 1466.47,-317.61"/>
</g>
<!-- Node16&#45;&gt;Node11 -->
<g id="edge33" class="edge">
<title>Node16&#45;&gt;Node11</title>
<path fill="none" stroke="midnightblue" d="M1002.46,-474.47C1022.34,-462.95 1057.65,-443.67 1090,-432 1151.36,-409.87 1182.96,-440.84 1233,-399 1264.16,-372.95 1238.54,-341.87 1269,-315 1379.81,-217.25 1562.56,-195.66 1651.75,-191.08"/>
<polygon fill="midnightblue" stroke="midnightblue" points="1652.07,-194.57 1661.9,-190.62 1651.75,-187.58 1652.07,-194.57"/>
</g>
<!-- Node16&#45;&gt;Node14 -->
<g id="edge34" class="edge">
<title>Node16&#45;&gt;Node14</title>
<path fill="none" stroke="midnightblue" d="M1012.83,-474.49C1026.04,-468.92 1041.79,-461 1054,-451 1074.36,-434.33 1068.63,-419.34 1090,-404 1103.39,-394.39 1120.93,-388.4 1135.17,-384.8"/>
<polygon fill="midnightblue" stroke="midnightblue" points="1136.31,-388.13 1145.28,-382.5 1134.76,-381.31 1136.31,-388.13"/>
</g>
<!-- Node17 -->
<g id="node17" class="node">
<title>Node17</title>
<g id="a_node17"><a xlink:href="../../d0/dfe/class_syntax_analyzer.html#a3af9b5161a2cef6fdd26b0bb60334ac4" target="_top" xlink:title=" ">
<polygon fill="none" stroke="black" points="1090,-542.5 1090,-561.5 1233,-561.5 1233,-542.5 1090,-542.5"/>
<text text-anchor="middle" x="1161.5" y="-549.5" font-family="Helvetica,sans-Serif" font-size="10.00">SyntaxAnalyzer::syntaxFactor</text>
</a>
</g>
</g>
<!-- Node16&#45;&gt;Node17 -->
<g id="edge35" class="edge">
<title>Node16&#45;&gt;Node17</title>
<path fill="none" stroke="midnightblue" d="M1011.06,-493.6C1041.24,-505.39 1092.62,-525.47 1126.56,-538.74"/>
<polygon fill="midnightblue" stroke="midnightblue" points="1125.48,-542.07 1136.06,-542.45 1128.02,-535.55 1125.48,-542.07"/>
</g>
<!-- Node17&#45;&gt;Node2 -->
<g id="edge37" class="edge">
<title>Node17&#45;&gt;Node2</title>
<path fill="none" stroke="midnightblue" d="M1180.82,-561.56C1195.45,-569.51 1216.2,-581.5 1233,-594 1250.41,-606.96 1249.89,-616.71 1269,-627 1337.99,-664.17 1378.04,-622.02 1440,-670 1466.42,-690.46 1451.11,-713.71 1476,-736 1480.4,-739.94 1485.54,-743.29 1490.9,-746.11"/>
<polygon fill="midnightblue" stroke="midnightblue" points="1489.52,-749.33 1500.06,-750.39 1492.48,-742.99 1489.52,-749.33"/>
</g>
<!-- Node17&#45;&gt;Node3 -->
<g id="edge42" class="edge">
<title>Node17&#45;&gt;Node3</title>
<path fill="none" stroke="midnightblue" d="M1174.09,-561.52C1190.05,-575.31 1218.45,-602.43 1233,-632 1269.98,-707.16 1217.62,-750.85 1269,-817 1320.32,-883.07 1563.84,-963.85 1662.42,-994.45"/>
<polygon fill="midnightblue" stroke="midnightblue" points="1661.47,-997.81 1672.05,-997.42 1663.53,-991.13 1661.47,-997.81"/>
</g>
<!-- Node17&#45;&gt;Node6 -->
<g id="edge44" class="edge">
<title>Node17&#45;&gt;Node6</title>
<path fill="none" stroke="midnightblue" d="M1164.54,-561.71C1174.28,-607.46 1217.58,-805.93 1269,-964 1292.84,-1037.29 1328.75,-1121.67 1344.99,-1158.79"/>
<polygon fill="midnightblue" stroke="midnightblue" points="1341.96,-1160.6 1349.19,-1168.34 1348.37,-1157.78 1341.96,-1160.6"/>
</g>
<!-- Node17&#45;&gt;Node9 -->
<g id="edge36" class="edge">
<title>Node17&#45;&gt;Node9</title>
<path fill="none" stroke="midnightblue" d="M1172.48,-542.04C1186.99,-527.22 1214.21,-498.09 1233,-470 1252.68,-440.6 1241.36,-421.08 1269,-399 1330.23,-350.09 1367.07,-384.68 1440,-356 1465.49,-345.97 1492.71,-330.43 1511.35,-318.94"/>
<polygon fill="midnightblue" stroke="midnightblue" points="1513.4,-321.79 1520.02,-313.52 1509.69,-315.86 1513.4,-321.79"/>
</g>
<!-- Node17&#45;&gt;Node10 -->
<g id="edge41" class="edge">
<title>Node17&#45;&gt;Node10</title>
<path fill="none" stroke="midnightblue" d="M1223.82,-542.49C1308.05,-528.95 1464,-502.15 1595,-470 1618.76,-464.17 1645.02,-456.26 1665.81,-449.65"/>
<polygon fill="midnightblue" stroke="midnightblue" points="1667.09,-452.92 1675.54,-446.53 1664.95,-446.25 1667.09,-452.92"/>
</g>
<!-- Node17&#45;&gt;Node11 -->
<g id="edge43" class="edge">
<title>Node17&#45;&gt;Node11</title>
<path fill="none" stroke="midnightblue" d="M1179.68,-542.34C1200.3,-531.12 1236.21,-512.79 1269,-502 1304.08,-490.46 1568.42,-462.65 1595,-437 1644.96,-388.79 1601.19,-347.7 1631,-285 1645.41,-254.7 1670.64,-224.87 1687.34,-206.94"/>
<polygon fill="midnightblue" stroke="midnightblue" points="1689.98,-209.24 1694.34,-199.59 1684.91,-204.42 1689.98,-209.24"/>
</g>
<!-- Node17&#45;&gt;Node13 -->
<g id="edge50" class="edge">
<title>Node17&#45;&gt;Node13</title>
<path fill="none" stroke="midnightblue" d="M1129.38,-561.54C1035.09,-590.45 752.58,-677.06 646.69,-709.53"/>
<polygon fill="midnightblue" stroke="midnightblue" points="645.54,-706.22 637,-712.5 647.59,-712.91 645.54,-706.22"/>
</g>
<!-- Node17&#45;&gt;Node17 -->
<g id="edge51" class="edge">
<title>Node17&#45;&gt;Node17</title>
<path fill="none" stroke="midnightblue" d="M1134.37,-561.76C1121.18,-570.57 1130.22,-580 1161.5,-580 1183.01,-580 1194,-575.54 1194.48,-569.89"/>
<polygon fill="midnightblue" stroke="midnightblue" points="1197.31,-567.83 1188.63,-561.76 1191.63,-571.92 1197.31,-567.83"/>
</g>
<!-- Node18 -->
<g id="node18" class="node">
<title>Node18</title>
<g id="a_node18"><a xlink:href="../../d0/dfe/class_syntax_analyzer.html#a9952c4a2db0a1382b9c94f40dd535fae" target="_top" xlink:title=" ">
<polygon fill="none" stroke="black" points="1476.5,-674.5 1476.5,-693.5 1594.5,-693.5 1594.5,-674.5 1476.5,-674.5"/>
<text text-anchor="middle" x="1535.5" y="-681.5" font-family="Helvetica,sans-Serif" font-size="10.00">SyntaxAnalyzer::eatAdv</text>
</a>
</g>
</g>
<!-- Node17&#45;&gt;Node18 -->
<g id="edge38" class="edge">
<title>Node17&#45;&gt;Node18</title>
<path fill="none" stroke="midnightblue" d="M1233.11,-549.13C1291.48,-549.55 1375.01,-556.78 1440,-589 1476.09,-606.89 1506.59,-644.04 1522.55,-666.21"/>
<polygon fill="midnightblue" stroke="midnightblue" points="1519.7,-668.24 1528.3,-674.43 1525.44,-664.23 1519.7,-668.24"/>
</g>
<!-- Node17&#45;&gt;Node19 -->
<g id="edge45" class="edge">
<title>Node17&#45;&gt;Node19</title>
<path fill="none" stroke="midnightblue" d="M1171.49,-561.6C1185.19,-576.36 1211.94,-605.7 1233,-632 1274.75,-684.15 1320.02,-749.01 1341.23,-779.95"/>
<polygon fill="midnightblue" stroke="midnightblue" points="1338.48,-782.12 1347.01,-788.41 1344.26,-778.18 1338.48,-782.12"/>
</g>
<!-- Node17&#45;&gt;Node20 -->
<g id="edge52" class="edge">
<title>Node17&#45;&gt;Node20</title>
<path fill="none" stroke="midnightblue" d="M1193.69,-561.51C1214.9,-567.94 1243.61,-576.58 1269,-584 1282.18,-587.85 1296.54,-591.96 1309.63,-595.68"/>
<polygon fill="midnightblue" stroke="midnightblue" points="1308.77,-599.07 1319.34,-598.43 1310.67,-592.33 1308.77,-599.07"/>
</g>
<!-- Node18&#45;&gt;Node3 -->
<g id="edge39" class="edge">
<title>Node18&#45;&gt;Node3</title>
<path fill="none" stroke="midnightblue" d="M1573.11,-693.59C1581.12,-697.07 1588.99,-701.75 1595,-708 1674.18,-790.39 1696.57,-934.82 1702.24,-987.26"/>
<polygon fill="midnightblue" stroke="midnightblue" points="1698.77,-987.65 1703.24,-997.26 1705.73,-986.96 1698.77,-987.65"/>
</g>
<!-- Node18&#45;&gt;Node4 -->
<g id="edge40" class="edge">
<title>Node18&#45;&gt;Node4</title>
<path fill="none" stroke="midnightblue" d="M1578.77,-693.59C1601.07,-698.65 1628.62,-704.9 1652.2,-710.25"/>
<polygon fill="midnightblue" stroke="midnightblue" points="1651.51,-713.68 1662.04,-712.48 1653.06,-706.85 1651.51,-713.68"/>
</g>
<!-- Node19&#45;&gt;Node2 -->
<g id="edge47" class="edge">
<title>Node19&#45;&gt;Node2</title>
<path fill="none" stroke="midnightblue" d="M1400.67,-788.41C1424.72,-783.31 1454.47,-776.99 1479.82,-771.61"/>
<polygon fill="midnightblue" stroke="midnightblue" points="1480.6,-775.02 1489.66,-769.52 1479.15,-768.17 1480.6,-775.02"/>
</g>
<!-- Node19&#45;&gt;Node3 -->
<g id="edge48" class="edge">
<title>Node19&#45;&gt;Node3</title>
<path fill="none" stroke="midnightblue" d="M1372.82,-807.55C1412.52,-829.54 1512.97,-885.71 1595,-936 1625.16,-954.49 1659.21,-976.93 1681.11,-991.57"/>
<polygon fill="midnightblue" stroke="midnightblue" points="1679.45,-994.67 1689.7,-997.33 1683.34,-988.85 1679.45,-994.67"/>
</g>
<!-- Node19&#45;&gt;Node9 -->
<g id="edge46" class="edge">
<title>Node19&#45;&gt;Node9</title>
<path fill="none" stroke="midnightblue" d="M1361.55,-788.42C1377.21,-763.12 1419.33,-692.01 1440,-627 1471.08,-529.23 1440.41,-495.22 1476,-399 1486.8,-369.81 1507.09,-339.83 1520.7,-321.56"/>
<polygon fill="midnightblue" stroke="midnightblue" points="1523.5,-323.66 1526.78,-313.58 1517.94,-319.41 1523.5,-323.66"/>
</g>
<!-- Node19&#45;&gt;Node13 -->
<g id="edge49" class="edge">
<title>Node19&#45;&gt;Node13</title>
<path fill="none" stroke="midnightblue" d="M1283.72,-791.96C1166.52,-781.64 922.73,-759.45 717,-736 705.73,-734.72 693.83,-733.29 682.16,-731.85"/>
<polygon fill="midnightblue" stroke="midnightblue" points="682.36,-728.35 672,-730.59 681.49,-735.29 682.36,-728.35"/>
</g>
<!-- Node20&#45;&gt;Node2 -->
<g id="edge54" class="edge">
<title>Node20&#45;&gt;Node2</title>
<path fill="none" stroke="midnightblue" d="M1416.56,-617.61C1425.17,-621.06 1433.35,-625.72 1440,-632 1475.55,-665.6 1442.4,-700.46 1476,-736 1479.63,-739.84 1483.96,-743.08 1488.61,-745.82"/>
<polygon fill="midnightblue" stroke="midnightblue" points="1487.32,-749.09 1497.82,-750.48 1490.48,-742.84 1487.32,-749.09"/>
</g>
<!-- Node20&#45;&gt;Node3 -->
<g id="edge55" class="edge">
<title>Node20&#45;&gt;Node3</title>
<path fill="none" stroke="midnightblue" d="M1429.76,-616.6C1433.38,-618.41 1436.83,-620.53 1440,-623 1470.76,-646.96 1446.91,-677.04 1476,-703 1517.43,-739.96 1554.21,-703.34 1595,-741 1669.86,-810.11 1694.64,-938.14 1701.61,-987.18"/>
<polygon fill="midnightblue" stroke="midnightblue" points="1698.18,-987.92 1702.96,-997.38 1705.12,-987.01 1698.18,-987.92"/>
</g>
<!-- Node20&#45;&gt;Node9 -->
<g id="edge53" class="edge">
<title>Node20&#45;&gt;Node9</title>
<path fill="none" stroke="midnightblue" d="M1360.93,-598.36C1377.74,-568.55 1430.54,-475.27 1476,-399 1492.03,-372.1 1511.15,-341.28 1523.06,-322.23"/>
<polygon fill="midnightblue" stroke="midnightblue" points="1526.09,-323.99 1528.43,-313.65 1520.15,-320.27 1526.09,-323.99"/>
</g>
<!-- Node21&#45;&gt;Node1 -->
<g id="edge63" class="edge">
<title>Node21&#45;&gt;Node1</title>
<path fill="none" stroke="midnightblue" d="M1342.52,-408.5C1277.53,-353.26 934.95,-76 606,-76 414.5,-76 414.5,-76 414.5,-76 379.85,-76 363.39,-67.42 338,-91 188.83,-229.56 90.8,-918.95 74.06,-1044.4"/>
<polygon fill="midnightblue" stroke="midnightblue" points="70.57,-1044.09 72.73,-1054.46 77.51,-1045.01 70.57,-1044.09"/>
</g>
<!-- Node21&#45;&gt;Node2 -->
<g id="edge60" class="edge">
<title>Node21&#45;&gt;Node2</title>
<path fill="none" stroke="midnightblue" d="M1376.57,-427.52C1396.33,-437.61 1425,-455.47 1440,-480 1492.38,-565.65 1429.71,-613.91 1476,-703 1484.58,-719.51 1499.74,-734.08 1512.48,-744.35"/>
<polygon fill="midnightblue" stroke="midnightblue" points="1510.35,-747.13 1520.4,-750.46 1514.62,-741.58 1510.35,-747.13"/>
</g>
<!-- Node21&#45;&gt;Node3 -->
<g id="edge61" class="edge">
<title>Node21&#45;&gt;Node3</title>
<path fill="none" stroke="midnightblue" d="M1370.68,-427.53C1388.28,-438.92 1417.7,-459.09 1440,-480 1518.25,-553.37 1543.29,-571.02 1595,-665 1657.54,-778.67 1690.45,-933.65 1700.56,-987.57"/>
<polygon fill="midnightblue" stroke="midnightblue" points="1697.13,-988.28 1702.37,-997.49 1704.02,-987.02 1697.13,-988.28"/>
</g>
<!-- Node21&#45;&gt;Node9 -->
<g id="edge59" class="edge">
<title>Node21&#45;&gt;Node9</title>
<path fill="none" stroke="midnightblue" d="M1404.49,-408.4C1416.57,-404.89 1429.14,-400.2 1440,-394 1473.22,-375.03 1503.74,-341.92 1520.66,-321.58"/>
<polygon fill="midnightblue" stroke="midnightblue" points="1523.45,-323.7 1527.05,-313.73 1518.02,-319.28 1523.45,-323.7"/>
</g>
<!-- Node22 -->
<g id="node22" class="node">
<title>Node22</title>
<g id="a_node22"><a xlink:href="../../d0/d11/class_i_token.html#a4fa3435db7157ca7316d4e4aee1df4c0" target="_top" xlink:title="Устанавливает дополнительный тип токена">
<polygon fill="none" stroke="black" points="1484,-408.5 1484,-427.5 1587,-427.5 1587,-408.5 1484,-408.5"/>
<text text-anchor="middle" x="1535.5" y="-415.5" font-family="Helvetica,sans-Serif" font-size="10.00">IToken::setAdvType</text>
</a>
</g>
</g>
<!-- Node21&#45;&gt;Node22 -->
<g id="edge62" class="edge">
<title>Node21&#45;&gt;Node22</title>
<path fill="none" stroke="midnightblue" d="M1440.02,-418C1451.41,-418 1462.9,-418 1473.77,-418"/>
<polygon fill="midnightblue" stroke="midnightblue" points="1473.96,-421.5 1483.96,-418 1473.96,-414.5 1473.96,-421.5"/>
</g>
<!-- Node23&#45;&gt;Node9 -->
<g id="edge65" class="edge">
<title>Node23&#45;&gt;Node9</title>
<path fill="none" stroke="midnightblue" d="M634.1,-104.37C696.39,-83.92 851.12,-38 984.5,-38 984.5,-38 984.5,-38 1162.5,-38 1286.29,-38 1340.88,12.17 1440,-62 1513.23,-116.8 1529.74,-236.62 1533.44,-284.08"/>
<polygon fill="midnightblue" stroke="midnightblue" points="1529.96,-284.52 1534.12,-294.26 1536.95,-284.05 1529.96,-284.52"/>
</g>
<!-- Node24&#45;&gt;Node2 -->
<g id="edge68" class="edge">
<title>Node24&#45;&gt;Node2</title>
<path fill="none" stroke="midnightblue" d="M430.22,-750.33C450.62,-736.62 490.67,-712.16 529,-703 594.71,-687.3 613.47,-701.13 681,-703 1018.72,-712.34 1104.06,-709.14 1440,-745 1451.24,-746.2 1463.19,-747.82 1474.66,-749.56"/>
<polygon fill="midnightblue" stroke="midnightblue" points="1474.18,-753.02 1484.6,-751.1 1475.26,-746.11 1474.18,-753.02"/>
</g>
<!-- Node24&#45;&gt;Node3 -->
<g id="edge69" class="edge">
<title>Node24&#45;&gt;Node3</title>
<path fill="none" stroke="midnightblue" d="M441.8,-769.57C557.91,-812.82 1052.29,-989.43 1476,-1026 1528.69,-1030.55 1542.31,-1030.56 1595,-1026 1612.92,-1024.45 1632.31,-1021.49 1649.7,-1018.36"/>
<polygon fill="midnightblue" stroke="midnightblue" points="1650.49,-1021.78 1659.68,-1016.51 1649.21,-1014.9 1650.49,-1021.78"/>
</g>
<!-- Node24&#45;&gt;Node5 -->
<g id="edge71" class="edge">
<title>Node24&#45;&gt;Node5</title>
<path fill="none" stroke="midnightblue" d="M403.16,-769.74C377.91,-786.95 316.15,-821.35 276.41,-840.98"/>
<polygon fill="midnightblue" stroke="midnightblue" points="274.77,-837.88 267.31,-845.4 277.83,-844.18 274.77,-837.88"/>
</g>
<!-- Node24&#45;&gt;Node9 -->
<g id="edge67" class="edge">
<title>Node24&#45;&gt;Node9</title>
<path fill="none" stroke="midnightblue" d="M417.07,-750.36C421.18,-683.88 448.54,-293.68 529,-214 673.35,-71.06 1264.38,-35.89 1440,-138 1495.08,-170.02 1520.71,-247.48 1530.07,-284.13"/>
<polygon fill="midnightblue" stroke="midnightblue" points="1526.73,-285.2 1532.47,-294.11 1533.54,-283.56 1526.73,-285.2"/>
</g>
<!-- Node24&#45;&gt;Node13 -->
<g id="edge70" class="edge">
<title>Node24&#45;&gt;Node13</title>
<path fill="none" stroke="midnightblue" d="M463.81,-750.41C489.11,-745.28 520.45,-738.93 547.07,-733.54"/>
<polygon fill="midnightblue" stroke="midnightblue" points="547.92,-736.94 557.03,-731.52 546.53,-730.08 547.92,-736.94"/>
</g>
<!-- Node25&#45;&gt;Node2 -->
<g id="edge74" class="edge">
<title>Node25&#45;&gt;Node2</title>
<path fill="none" stroke="midnightblue" d="M490.01,-839.55C693.65,-848.6 1261.76,-868.38 1440,-817 1468.48,-808.79 1497.04,-789.69 1515.19,-775.86"/>
<polygon fill="midnightblue" stroke="midnightblue" points="1517.51,-778.49 1523.22,-769.56 1513.19,-772.98 1517.51,-778.49"/>
</g>
<!-- Node25&#45;&gt;Node3 -->
<g id="edge75" class="edge">
<title>Node25&#45;&gt;Node3</title>
<path fill="none" stroke="midnightblue" d="M457.57,-845.5C469.09,-848.35 481.58,-851.63 493,-855 840.51,-957.61 909.4,-1060.49 1269,-1105 1412.79,-1122.8 1459.75,-1155.97 1595,-1104 1636.73,-1087.97 1672.72,-1047.95 1691.05,-1024.63"/>
<polygon fill="midnightblue" stroke="midnightblue" points="1693.9,-1026.67 1697.19,-1016.6 1688.34,-1022.42 1693.9,-1026.67"/>
</g>
<!-- Node25&#45;&gt;Node5 -->
<g id="edge77" class="edge">
<title>Node25&#45;&gt;Node5</title>
<path fill="none" stroke="midnightblue" d="M378.44,-845.53C359.31,-848.61 335.11,-851.61 312.33,-853.81"/>
<polygon fill="midnightblue" stroke="midnightblue" points="311.97,-850.33 302.34,-854.74 312.62,-857.3 311.97,-850.33"/>
</g>
<!-- Node25&#45;&gt;Node9 -->
<g id="edge73" class="edge">
<title>Node25&#45;&gt;Node9</title>
<path fill="none" stroke="midnightblue" d="M436.76,-826.33C454.45,-816.81 479.37,-800.56 493,-779 536.61,-710.05 501.26,-675.72 529,-599 588.64,-434.05 584.98,-367.49 717,-252 891.47,-99.37 1002.15,-154.99 1233,-176 1326.15,-184.48 1356.66,-171.53 1440,-214 1474.27,-231.46 1504.64,-265.34 1521.22,-286.18"/>
<polygon fill="midnightblue" stroke="midnightblue" points="1518.56,-288.47 1527.45,-294.23 1524.09,-284.18 1518.56,-288.47"/>
</g>
<!-- Node25&#45;&gt;Node13 -->
<g id="edge76" class="edge">
<title>Node25&#45;&gt;Node13</title>
<path fill="none" stroke="midnightblue" d="M432.16,-826.48C464.84,-806.61 540.47,-760.63 579.59,-736.84"/>
<polygon fill="midnightblue" stroke="midnightblue" points="581.52,-739.76 588.25,-731.58 577.89,-733.78 581.52,-739.76"/>
</g>
</g>
</svg>
