<?xml version="1.0" encoding="UTF-8" standalone="no"?>
<!DOCTYPE svg PUBLIC "-//W3C//DTD SVG 1.1//EN"
 "http://www.w3.org/Graphics/SVG/1.1/DTD/svg11.dtd">
<!-- Generated by graphviz version 3.0.0 (20220413.0106)
 -->
<!-- Title: SyntaxAnalyzer::syntaxConsts Pages: 1 -->
<svg width="1098pt" height="66pt"
 viewBox="0.00 0.00 1098.00 66.00" xmlns="http://www.w3.org/2000/svg" xmlns:xlink="http://www.w3.org/1999/xlink">
<g id="graph0" class="graph" transform="scale(1 1) rotate(0) translate(4 62)">
<title>SyntaxAnalyzer::syntaxConsts</title>
<!-- Node1 -->
<g id="node1" class="node">
<title>Node1</title>
<g id="a_node1"><a xlink:title=" ">
<polygon fill="#bfbfbf" stroke="black" points="944,-19.5 944,-38.5 1090,-38.5 1090,-19.5 944,-19.5"/>
<text text-anchor="middle" x="1017" y="-26.5" font-family="Helvetica,sans-Serif" font-size="10.00">SyntaxAnalyzer::syntaxConsts</text>
</a>
</g>
</g>
<!-- Node2 -->
<g id="node2" class="node">
<title>Node2</title>
<g id="a_node2"><a xlink:href="../../d0/dfe/class_syntax_analyzer.html#a2b54bac50e114b68e83c80d869b6ac7c" target="_top" xlink:title=" ">
<polygon fill="none" stroke="black" points="768,-19.5 768,-38.5 908,-38.5 908,-19.5 768,-19.5"/>
<text text-anchor="middle" x="838" y="-26.5" font-family="Helvetica,sans-Serif" font-size="10.00">SyntaxAnalyzer::syntaxBlock</text>
</a>
</g>
</g>
<!-- Node1&#45;&gt;Node2 -->
<g id="edge1" class="edge">
<title>Node1&#45;&gt;Node2</title>
<path fill="none" stroke="midnightblue" d="M933.48,-29C925.01,-29 916.46,-29 908.16,-29"/>
<polygon fill="midnightblue" stroke="midnightblue" points="933.75,-32.5 943.75,-29 933.75,-25.5 933.75,-32.5"/>
</g>
<!-- Node3 -->
<g id="node3" class="node">
<title>Node3</title>
<g id="a_node3"><a xlink:href="../../d0/dfe/class_syntax_analyzer.html#ae04232a95c6423677e600927c82851e4" target="_top" xlink:title=" ">
<polygon fill="none" stroke="black" points="580,-38.5 580,-57.5 732,-57.5 732,-38.5 580,-38.5"/>
<text text-anchor="middle" x="656" y="-45.5" font-family="Helvetica,sans-Serif" font-size="10.00">SyntaxAnalyzer::syntaxFuncDef</text>
</a>
</g>
</g>
<!-- Node2&#45;&gt;Node3 -->
<g id="edge2" class="edge">
<title>Node2&#45;&gt;Node3</title>
<path fill="none" stroke="midnightblue" d="M757.95,-37.34C749.39,-38.25 740.69,-39.17 732.18,-40.06"/>
<polygon fill="midnightblue" stroke="midnightblue" points="758.34,-40.82 767.92,-36.29 757.61,-33.86 758.34,-40.82"/>
</g>
<!-- Node4 -->
<g id="node4" class="node">
<title>Node4</title>
<g id="a_node4"><a xlink:href="../../d0/dfe/class_syntax_analyzer.html#a8b337bd5b4a90cd5bd804a936e408e4b" target="_top" xlink:title=" ">
<polygon fill="none" stroke="black" points="392,-19.5 392,-38.5 544,-38.5 544,-19.5 392,-19.5"/>
<text text-anchor="middle" x="468" y="-26.5" font-family="Helvetica,sans-Serif" font-size="10.00">SyntaxAnalyzer::syntaxProgram</text>
</a>
</g>
</g>
<!-- Node2&#45;&gt;Node4 -->
<g id="edge8" class="edge">
<title>Node2&#45;&gt;Node4</title>
<path fill="none" stroke="midnightblue" d="M757.46,-29C694.21,-29 606.34,-29 544.24,-29"/>
<polygon fill="midnightblue" stroke="midnightblue" points="757.78,-32.5 767.78,-29 757.78,-25.5 757.78,-32.5"/>
</g>
<!-- Node3&#45;&gt;Node4 -->
<g id="edge3" class="edge">
<title>Node3&#45;&gt;Node4</title>
<path fill="none" stroke="midnightblue" d="M569.85,-39.3C561.26,-38.42 552.57,-37.54 544.1,-36.67"/>
<polygon fill="midnightblue" stroke="midnightblue" points="569.58,-42.79 579.88,-40.33 570.29,-35.83 569.58,-42.79"/>
</g>
<!-- Node5 -->
<g id="node5" class="node">
<title>Node5</title>
<g id="a_node5"><a xlink:href="../../d0/dfe/class_syntax_analyzer.html#a96cd5f6a041dae613d1c75175e26592e" target="_top" xlink:title=" ">
<polygon fill="none" stroke="black" points="213,-19.5 213,-38.5 356,-38.5 356,-19.5 213,-19.5"/>
<text text-anchor="middle" x="284.5" y="-26.5" font-family="Helvetica,sans-Serif" font-size="10.00">SyntaxAnalyzer::parseTokens</text>
</a>
</g>
</g>
<!-- Node4&#45;&gt;Node5 -->
<g id="edge4" class="edge">
<title>Node4&#45;&gt;Node5</title>
<path fill="none" stroke="midnightblue" d="M381.84,-29C373.26,-29 364.61,-29 356.21,-29"/>
<polygon fill="midnightblue" stroke="midnightblue" points="381.87,-32.5 391.87,-29 381.87,-25.5 381.87,-32.5"/>
</g>
<!-- Node6 -->
<g id="node6" class="node">
<title>Node6</title>
<g id="a_node6"><a xlink:href="../../d1/d80/namespace_analyze.html#a1597f9f086c3276d0287917efbed14b8" target="_top" xlink:title=" ">
<polygon fill="none" stroke="black" points="74,-38.5 74,-57.5 177,-57.5 177,-38.5 74,-38.5"/>
<text text-anchor="middle" x="125.5" y="-45.5" font-family="Helvetica,sans-Serif" font-size="10.00">Analyze::analyzeFile</text>
</a>
</g>
</g>
<!-- Node5&#45;&gt;Node6 -->
<g id="edge5" class="edge">
<title>Node5&#45;&gt;Node6</title>
<path fill="none" stroke="midnightblue" d="M202.61,-38.79C193.92,-39.84 185.26,-40.89 177.08,-41.88"/>
<polygon fill="midnightblue" stroke="midnightblue" points="203.3,-42.23 212.81,-37.56 202.46,-35.28 203.3,-42.23"/>
</g>
<!-- Node8 -->
<g id="node8" class="node">
<title>Node8</title>
<g id="a_node8"><a xlink:href="../../db/df9/test_semantic_8cpp.html#a804faf7fd199a3c491020f1f2caa618b" target="_top" xlink:title="Тест семантического анализа Паскаля">
<polygon fill="none" stroke="black" points="105,-0.5 105,-19.5 146,-19.5 146,-0.5 105,-0.5"/>
<text text-anchor="middle" x="125.5" y="-7.5" font-family="Helvetica,sans-Serif" font-size="10.00">TEST</text>
</a>
</g>
</g>
<!-- Node5&#45;&gt;Node8 -->
<g id="edge7" class="edge">
<title>Node5&#45;&gt;Node8</title>
<path fill="none" stroke="midnightblue" d="M202.76,-19.23C181.6,-16.67 160.65,-14.13 146.08,-12.37"/>
<polygon fill="midnightblue" stroke="midnightblue" points="202.46,-22.72 212.81,-20.44 203.3,-15.77 202.46,-22.72"/>
</g>
<!-- Node7 -->
<g id="node7" class="node">
<title>Node7</title>
<g id="a_node7"><a xlink:href="../../d3/db4/graph_draw_8cpp.html#a3c04138a5bfe5d72780bb7e82a18e627" target="_top" xlink:title=" ">
<polygon fill="none" stroke="black" points="0,-38.5 0,-57.5 38,-57.5 38,-38.5 0,-38.5"/>
<text text-anchor="middle" x="19" y="-45.5" font-family="Helvetica,sans-Serif" font-size="10.00">main</text>
</a>
</g>
</g>
<!-- Node6&#45;&gt;Node7 -->
<g id="edge6" class="edge">
<title>Node6&#45;&gt;Node7</title>
<path fill="none" stroke="midnightblue" d="M63.7,-48C54.49,-48 45.64,-48 38.35,-48"/>
<polygon fill="midnightblue" stroke="midnightblue" points="63.78,-51.5 73.78,-48 63.78,-44.5 63.78,-51.5"/>
</g>
</g>
</svg>
