<?xml version="1.0" encoding="UTF-8" standalone="no"?>
<!DOCTYPE svg PUBLIC "-//W3C//DTD SVG 1.1//EN"
 "http://www.w3.org/Graphics/SVG/1.1/DTD/svg11.dtd">
<!-- Generated by graphviz version 3.0.0 (20220413.0106)
 -->
<!-- Title: SyntaxAnalyzer::syntaxTypeSpec Pages: 1 -->
<svg width="505pt" height="218pt"
 viewBox="0.00 0.00 505.00 218.00" xmlns="http://www.w3.org/2000/svg" xmlns:xlink="http://www.w3.org/1999/xlink">
<g id="graph0" class="graph" transform="scale(1 1) rotate(0) translate(4 214)">
<title>SyntaxAnalyzer::syntaxTypeSpec</title>
<!-- Node1 -->
<g id="node1" class="node">
<title>Node1</title>
<g id="a_node1"><a xlink:title=" ">
<polygon fill="#bfbfbf" stroke="black" points="0,-76.5 0,-95.5 158,-95.5 158,-76.5 0,-76.5"/>
<text text-anchor="middle" x="79" y="-83.5" font-family="Helvetica,sans-Serif" font-size="10.00">SyntaxAnalyzer::syntaxTypeSpec</text>
</a>
</g>
</g>
<!-- Node1&#45;&gt;Node1 -->
<g id="edge13" class="edge">
<title>Node1&#45;&gt;Node1</title>
<path fill="none" stroke="midnightblue" d="M52.18,-95.76C39.13,-104.57 48.07,-114 79,-114 99.78,-114 110.63,-109.74 111.56,-104.27"/>
<polygon fill="midnightblue" stroke="midnightblue" points="114.31,-102.09 105.82,-95.76 108.51,-106.01 114.31,-102.09"/>
</g>
<!-- Node2 -->
<g id="node2" class="node">
<title>Node2</title>
<g id="a_node2"><a xlink:href="../../d7/d7c/class_a_s_t_factory.html#a8d1d4c9d01ab2e366d1af6bbaeaf7bef" target="_top" xlink:title=" ">
<polygon fill="none" stroke="black" points="194,-152.5 194,-171.5 313,-171.5 313,-152.5 194,-152.5"/>
<text text-anchor="middle" x="253.5" y="-159.5" font-family="Helvetica,sans-Serif" font-size="10.00">ASTFactory::createAST</text>
</a>
</g>
</g>
<!-- Node1&#45;&gt;Node2 -->
<g id="edge1" class="edge">
<title>Node1&#45;&gt;Node2</title>
<path fill="none" stroke="midnightblue" d="M100.49,-95.63C123.23,-106.26 161.06,-123.74 194,-138 202.11,-141.51 210.9,-145.19 219.15,-148.58"/>
<polygon fill="midnightblue" stroke="midnightblue" points="217.92,-151.86 228.5,-152.4 220.57,-145.38 217.92,-151.86"/>
</g>
<!-- Node4 -->
<g id="node4" class="node">
<title>Node4</title>
<g id="a_node4"><a xlink:href="../../d0/d11/class_i_token.html#ac7f0a800d7a9e8608bab0360c76d735a" target="_top" xlink:title="Получение типа токена">
<polygon fill="none" stroke="black" points="380,-114.5 380,-133.5 466,-133.5 466,-114.5 380,-114.5"/>
<text text-anchor="middle" x="423" y="-121.5" font-family="Helvetica,sans-Serif" font-size="10.00">IToken::getType</text>
</a>
</g>
</g>
<!-- Node1&#45;&gt;Node4 -->
<g id="edge12" class="edge">
<title>Node1&#45;&gt;Node4</title>
<path fill="none" stroke="midnightblue" d="M158.03,-94.67C222.8,-101.87 313.14,-111.9 369.57,-118.17"/>
<polygon fill="midnightblue" stroke="midnightblue" points="369.37,-121.67 379.69,-119.3 370.14,-114.72 369.37,-121.67"/>
</g>
<!-- Node6 -->
<g id="node6" class="node">
<title>Node6</title>
<g id="a_node6"><a xlink:href="../../d0/dfe/class_syntax_analyzer.html#ae1d3434e5cc4b4bcd5a3a245814a44f0" target="_top" xlink:title="Пропускает текущий токен, если он указанного типа. Иначе выбрасывается исключение">
<polygon fill="none" stroke="black" points="203,-0.5 203,-19.5 304,-19.5 304,-0.5 203,-0.5"/>
<text text-anchor="middle" x="253.5" y="-7.5" font-family="Helvetica,sans-Serif" font-size="10.00">SyntaxAnalyzer::eat</text>
</a>
</g>
</g>
<!-- Node1&#45;&gt;Node6 -->
<g id="edge5" class="edge">
<title>Node1&#45;&gt;Node6</title>
<path fill="none" stroke="midnightblue" d="M97.01,-76.49C118.97,-64.44 158.58,-43.51 194,-29 199.38,-26.8 205.12,-24.67 210.82,-22.69"/>
<polygon fill="midnightblue" stroke="midnightblue" points="211.94,-26 220.31,-19.5 209.71,-19.37 211.94,-26"/>
</g>
<!-- Node7 -->
<g id="node7" class="node">
<title>Node7</title>
<g id="a_node7"><a xlink:href="../../d0/dfe/class_syntax_analyzer.html#a3ae6c7319e61cd669c417f189b098374" target="_top" xlink:title=" ">
<polygon fill="none" stroke="black" points="357,-38.5 357,-57.5 489,-57.5 489,-38.5 357,-38.5"/>
<text text-anchor="middle" x="423" y="-45.5" font-family="Helvetica,sans-Serif" font-size="10.00">SyntaxAnalyzer::getCurTok</text>
</a>
</g>
</g>
<!-- Node1&#45;&gt;Node7 -->
<g id="edge11" class="edge">
<title>Node1&#45;&gt;Node7</title>
<path fill="none" stroke="midnightblue" d="M158.12,-81.42C203.45,-78.31 261.57,-73.57 313,-67 329.33,-64.92 346.95,-62.1 363.15,-59.27"/>
<polygon fill="midnightblue" stroke="midnightblue" points="363.8,-62.71 373.04,-57.51 362.58,-55.82 363.8,-62.71"/>
</g>
<!-- Node9 -->
<g id="node9" class="node">
<title>Node9</title>
<g id="a_node9"><a xlink:href="../../d0/dfe/class_syntax_analyzer.html#a9952c4a2db0a1382b9c94f40dd535fae" target="_top" xlink:title="Пропускает текущий токен, если он указанного типа. Иначе выбрасывается исключение">
<polygon fill="none" stroke="black" points="194.5,-38.5 194.5,-57.5 312.5,-57.5 312.5,-38.5 194.5,-38.5"/>
<text text-anchor="middle" x="253.5" y="-45.5" font-family="Helvetica,sans-Serif" font-size="10.00">SyntaxAnalyzer::eatAdv</text>
</a>
</g>
</g>
<!-- Node1&#45;&gt;Node9 -->
<g id="edge8" class="edge">
<title>Node1&#45;&gt;Node9</title>
<path fill="none" stroke="midnightblue" d="M123.53,-76.41C146.6,-71.33 175.13,-65.04 199.48,-59.68"/>
<polygon fill="midnightblue" stroke="midnightblue" points="200.27,-63.09 209.28,-57.52 198.77,-56.25 200.27,-63.09"/>
</g>
<!-- Node3 -->
<g id="node3" class="node">
<title>Node3</title>
<g id="a_node3"><a xlink:href="../../d0/d11/class_i_token.html#a3e73305ee0ac36d0bf5f26b649589b24" target="_top" xlink:title=" ">
<polygon fill="none" stroke="black" points="371.5,-152.5 371.5,-171.5 474.5,-171.5 474.5,-152.5 371.5,-152.5"/>
<text text-anchor="middle" x="423" y="-159.5" font-family="Helvetica,sans-Serif" font-size="10.00">IToken::getAdvType</text>
</a>
</g>
</g>
<!-- Node2&#45;&gt;Node3 -->
<g id="edge2" class="edge">
<title>Node2&#45;&gt;Node3</title>
<path fill="none" stroke="midnightblue" d="M313.08,-162C328.64,-162 345.47,-162 361.14,-162"/>
<polygon fill="midnightblue" stroke="midnightblue" points="361.25,-165.5 371.25,-162 361.25,-158.5 361.25,-165.5"/>
</g>
<!-- Node2&#45;&gt;Node4 -->
<g id="edge3" class="edge">
<title>Node2&#45;&gt;Node4</title>
<path fill="none" stroke="midnightblue" d="M296.77,-152.41C319.07,-147.35 346.62,-141.1 370.2,-135.75"/>
<polygon fill="midnightblue" stroke="midnightblue" points="371.06,-139.15 380.04,-133.52 369.51,-132.32 371.06,-139.15"/>
</g>
<!-- Node5 -->
<g id="node5" class="node">
<title>Node5</title>
<g id="a_node5"><a xlink:href="../../db/dc1/class_token.html#a1f07fa2fffeb2f7ab803ef8b424eae8a" target="_top" xlink:title=" ">
<polygon fill="none" stroke="black" points="386,-190.5 386,-209.5 460,-209.5 460,-190.5 386,-190.5"/>
<text text-anchor="middle" x="423" y="-197.5" font-family="Helvetica,sans-Serif" font-size="10.00">Token::setStr</text>
</a>
</g>
</g>
<!-- Node2&#45;&gt;Node5 -->
<g id="edge4" class="edge">
<title>Node2&#45;&gt;Node5</title>
<path fill="none" stroke="midnightblue" d="M296.77,-171.59C320.96,-177.08 351.33,-183.97 376.1,-189.59"/>
<polygon fill="midnightblue" stroke="midnightblue" points="375.46,-193.03 385.99,-191.83 377.01,-186.2 375.46,-193.03"/>
</g>
<!-- Node6&#45;&gt;Node7 -->
<g id="edge6" class="edge">
<title>Node6&#45;&gt;Node7</title>
<path fill="none" stroke="midnightblue" d="M296.77,-19.59C319.07,-24.65 346.62,-30.9 370.2,-36.25"/>
<polygon fill="midnightblue" stroke="midnightblue" points="369.51,-39.68 380.04,-38.48 371.06,-32.85 369.51,-39.68"/>
</g>
<!-- Node8 -->
<g id="node8" class="node">
<title>Node8</title>
<g id="a_node8"><a xlink:href="../../d0/dfe/class_syntax_analyzer.html#a9e41370d8d74fbd2e77648d2071e7dfe" target="_top" xlink:title=" ">
<polygon fill="none" stroke="black" points="349,-0.5 349,-19.5 497,-19.5 497,-0.5 349,-0.5"/>
<text text-anchor="middle" x="423" y="-7.5" font-family="Helvetica,sans-Serif" font-size="10.00">SyntaxAnalyzer::getNextToken</text>
</a>
</g>
</g>
<!-- Node6&#45;&gt;Node8 -->
<g id="edge7" class="edge">
<title>Node6&#45;&gt;Node8</title>
<path fill="none" stroke="midnightblue" d="M304.3,-10C315.12,-10 326.84,-10 338.56,-10"/>
<polygon fill="midnightblue" stroke="midnightblue" points="338.83,-13.5 348.83,-10 338.83,-6.5 338.83,-13.5"/>
</g>
<!-- Node9&#45;&gt;Node7 -->
<g id="edge9" class="edge">
<title>Node9&#45;&gt;Node7</title>
<path fill="none" stroke="midnightblue" d="M312.61,-48C323.65,-48 335.34,-48 346.82,-48"/>
<polygon fill="midnightblue" stroke="midnightblue" points="346.82,-51.5 356.82,-48 346.82,-44.5 346.82,-51.5"/>
</g>
<!-- Node9&#45;&gt;Node8 -->
<g id="edge10" class="edge">
<title>Node9&#45;&gt;Node8</title>
<path fill="none" stroke="midnightblue" d="M296.77,-38.41C319.07,-33.35 346.62,-27.1 370.2,-21.75"/>
<polygon fill="midnightblue" stroke="midnightblue" points="371.06,-25.15 380.04,-19.52 369.51,-18.32 371.06,-25.15"/>
</g>
</g>
</svg>
