<?xml version="1.0" encoding="UTF-8" standalone="no"?>
<!DOCTYPE svg PUBLIC "-//W3C//DTD SVG 1.1//EN"
 "http://www.w3.org/Graphics/SVG/1.1/DTD/svg11.dtd">
<!-- Generated by graphviz version 3.0.0 (20220413.0106)
 -->
<!-- Title: SyntaxAnalyzer::syntaxVars Pages: 1 -->
<svg width="861pt" height="255pt"
 viewBox="0.00 0.00 861.00 255.49" xmlns="http://www.w3.org/2000/svg" xmlns:xlink="http://www.w3.org/1999/xlink">
<g id="graph0" class="graph" transform="scale(1 1) rotate(0) translate(4 251.49)">
<title>SyntaxAnalyzer::syntaxVars</title>
<!-- Node1 -->
<g id="node1" class="node">
<title>Node1</title>
<g id="a_node1"><a xlink:title=" ">
<polygon fill="#bfbfbf" stroke="black" points="0,-190.5 0,-209.5 135,-209.5 135,-190.5 0,-190.5"/>
<text text-anchor="middle" x="67.5" y="-197.5" font-family="Helvetica,sans-Serif" font-size="10.00">SyntaxAnalyzer::syntaxVars</text>
</a>
</g>
</g>
<!-- Node2 -->
<g id="node2" class="node">
<title>Node2</title>
<g id="a_node2"><a xlink:href="../../d0/dfe/class_syntax_analyzer.html#ae1d3434e5cc4b4bcd5a3a245814a44f0" target="_top" xlink:title=" ">
<polygon fill="none" stroke="black" points="559,-190.5 559,-209.5 660,-209.5 660,-190.5 559,-190.5"/>
<text text-anchor="middle" x="609.5" y="-197.5" font-family="Helvetica,sans-Serif" font-size="10.00">SyntaxAnalyzer::eat</text>
</a>
</g>
</g>
<!-- Node1&#45;&gt;Node2 -->
<g id="edge1" class="edge">
<title>Node1&#45;&gt;Node2</title>
<path fill="none" stroke="midnightblue" d="M135.26,-200C241.38,-200 446.94,-200 548.59,-200"/>
<polygon fill="midnightblue" stroke="midnightblue" points="548.69,-203.5 558.69,-200 548.69,-196.5 548.69,-203.5"/>
</g>
<!-- Node3 -->
<g id="node3" class="node">
<title>Node3</title>
<g id="a_node3"><a xlink:href="../../d0/dfe/class_syntax_analyzer.html#a3ae6c7319e61cd669c417f189b098374" target="_top" xlink:title=" ">
<polygon fill="none" stroke="black" points="713,-190.5 713,-209.5 845,-209.5 845,-190.5 713,-190.5"/>
<text text-anchor="middle" x="779" y="-197.5" font-family="Helvetica,sans-Serif" font-size="10.00">SyntaxAnalyzer::getCurTok</text>
</a>
</g>
</g>
<!-- Node1&#45;&gt;Node3 -->
<g id="edge4" class="edge">
<title>Node1&#45;&gt;Node3</title>
<path fill="none" stroke="midnightblue" d="M115.55,-209.5C217.21,-228.56 464.72,-266.99 669,-235 695.44,-230.86 724.23,-221.39 745.58,-213.34"/>
<polygon fill="midnightblue" stroke="midnightblue" points="747.05,-216.52 755.12,-209.65 744.53,-209.99 747.05,-216.52"/>
</g>
<!-- Node5 -->
<g id="node5" class="node">
<title>Node5</title>
<g id="a_node5"><a xlink:href="../../d0/dfe/class_syntax_analyzer.html#a8f6dda26a96ec0e5e75bea5eed577856" target="_top" xlink:title=" ">
<polygon fill="none" stroke="black" points="171,-152.5 171,-171.5 320,-171.5 320,-152.5 171,-152.5"/>
<text text-anchor="middle" x="245.5" y="-159.5" font-family="Helvetica,sans-Serif" font-size="10.00">SyntaxAnalyzer::syntaxVarDecl</text>
</a>
</g>
</g>
<!-- Node1&#45;&gt;Node5 -->
<g id="edge5" class="edge">
<title>Node1&#45;&gt;Node5</title>
<path fill="none" stroke="midnightblue" d="M112.91,-190.41C136.45,-185.33 165.56,-179.04 190.4,-173.68"/>
<polygon fill="midnightblue" stroke="midnightblue" points="191.37,-177.05 200.41,-171.52 189.89,-170.21 191.37,-177.05"/>
</g>
<!-- Node2&#45;&gt;Node3 -->
<g id="edge2" class="edge">
<title>Node2&#45;&gt;Node3</title>
<path fill="none" stroke="midnightblue" d="M660.3,-200C673.57,-200 688.21,-200 702.52,-200"/>
<polygon fill="midnightblue" stroke="midnightblue" points="702.86,-203.5 712.86,-200 702.86,-196.5 702.86,-203.5"/>
</g>
<!-- Node4 -->
<g id="node4" class="node">
<title>Node4</title>
<g id="a_node4"><a xlink:href="../../d0/dfe/class_syntax_analyzer.html#a9e41370d8d74fbd2e77648d2071e7dfe" target="_top" xlink:title=" ">
<polygon fill="none" stroke="black" points="705,-133.5 705,-152.5 853,-152.5 853,-133.5 705,-133.5"/>
<text text-anchor="middle" x="779" y="-140.5" font-family="Helvetica,sans-Serif" font-size="10.00">SyntaxAnalyzer::getNextToken</text>
</a>
</g>
</g>
<!-- Node2&#45;&gt;Node4 -->
<g id="edge3" class="edge">
<title>Node2&#45;&gt;Node4</title>
<path fill="none" stroke="midnightblue" d="M638.54,-190.46C666.44,-180.97 709.43,-166.33 740.31,-155.83"/>
<polygon fill="midnightblue" stroke="midnightblue" points="741.53,-159.11 749.87,-152.57 739.28,-152.48 741.53,-159.11"/>
</g>
<!-- Node5&#45;&gt;Node2 -->
<g id="edge10" class="edge">
<title>Node5&#45;&gt;Node2</title>
<path fill="none" stroke="midnightblue" d="M320.13,-167.46C373.93,-171.73 448.6,-178.23 514,-186 525.21,-187.33 537.14,-188.95 548.61,-190.6"/>
<polygon fill="midnightblue" stroke="midnightblue" points="548.15,-194.07 558.55,-192.05 549.16,-187.14 548.15,-194.07"/>
</g>
<!-- Node5&#45;&gt;Node3 -->
<g id="edge11" class="edge">
<title>Node5&#45;&gt;Node3</title>
<path fill="none" stroke="midnightblue" d="M277.39,-171.61C299.19,-178.11 329.16,-186.48 356,-192 492.76,-220.13 529.89,-231.03 669,-219 686.92,-217.45 706.31,-214.49 723.7,-211.36"/>
<polygon fill="midnightblue" stroke="midnightblue" points="724.49,-214.78 733.68,-209.51 723.21,-207.9 724.49,-214.78"/>
</g>
<!-- Node6 -->
<g id="node6" class="node">
<title>Node6</title>
<g id="a_node6"><a xlink:href="../../d7/d7c/class_a_s_t_factory.html#a8d1d4c9d01ab2e366d1af6bbaeaf7bef" target="_top" xlink:title=" ">
<polygon fill="none" stroke="black" points="550,-38.5 550,-57.5 669,-57.5 669,-38.5 550,-38.5"/>
<text text-anchor="middle" x="609.5" y="-45.5" font-family="Helvetica,sans-Serif" font-size="10.00">ASTFactory::createAST</text>
</a>
</g>
</g>
<!-- Node5&#45;&gt;Node6 -->
<g id="edge6" class="edge">
<title>Node5&#45;&gt;Node6</title>
<path fill="none" stroke="midnightblue" d="M257.05,-152.31C275.55,-135.92 315.72,-102.94 356,-87 415.35,-63.51 487.76,-54.1 539.8,-50.37"/>
<polygon fill="midnightblue" stroke="midnightblue" points="540.18,-53.85 549.93,-49.7 539.72,-46.87 540.18,-53.85"/>
</g>
<!-- Node10 -->
<g id="node10" class="node">
<title>Node10</title>
<g id="a_node10"><a xlink:href="../../d0/dfe/class_syntax_analyzer.html#a5d262eb9e2236dde3bd043eea0b0e957" target="_top" xlink:title=" ">
<polygon fill="none" stroke="black" points="356,-96.5 356,-115.5 514,-115.5 514,-96.5 356,-96.5"/>
<text text-anchor="middle" x="435" y="-103.5" font-family="Helvetica,sans-Serif" font-size="10.00">SyntaxAnalyzer::syntaxTypeSpec</text>
</a>
</g>
</g>
<!-- Node5&#45;&gt;Node10 -->
<g id="edge12" class="edge">
<title>Node5&#45;&gt;Node10</title>
<path fill="none" stroke="midnightblue" d="M278.73,-152.37C310.18,-142.98 358.16,-128.65 392.46,-118.41"/>
<polygon fill="midnightblue" stroke="midnightblue" points="393.61,-121.72 402.19,-115.5 391.6,-115.01 393.61,-121.72"/>
</g>
<!-- Node7 -->
<g id="node7" class="node">
<title>Node7</title>
<g id="a_node7"><a xlink:href="../../d0/d11/class_i_token.html#a3e73305ee0ac36d0bf5f26b649589b24" target="_top" xlink:title=" ">
<polygon fill="none" stroke="black" points="727.5,-0.5 727.5,-19.5 830.5,-19.5 830.5,-0.5 727.5,-0.5"/>
<text text-anchor="middle" x="779" y="-7.5" font-family="Helvetica,sans-Serif" font-size="10.00">IToken::getAdvType</text>
</a>
</g>
</g>
<!-- Node6&#45;&gt;Node7 -->
<g id="edge7" class="edge">
<title>Node6&#45;&gt;Node7</title>
<path fill="none" stroke="midnightblue" d="M652.77,-38.41C675.07,-33.35 702.62,-27.1 726.2,-21.75"/>
<polygon fill="midnightblue" stroke="midnightblue" points="727.06,-25.15 736.04,-19.52 725.51,-18.32 727.06,-25.15"/>
</g>
<!-- Node8 -->
<g id="node8" class="node">
<title>Node8</title>
<g id="a_node8"><a xlink:href="../../d0/d11/class_i_token.html#ac7f0a800d7a9e8608bab0360c76d735a" target="_top" xlink:title="Получение типа токена">
<polygon fill="none" stroke="black" points="736,-76.5 736,-95.5 822,-95.5 822,-76.5 736,-76.5"/>
<text text-anchor="middle" x="779" y="-83.5" font-family="Helvetica,sans-Serif" font-size="10.00">IToken::getType</text>
</a>
</g>
</g>
<!-- Node6&#45;&gt;Node8 -->
<g id="edge8" class="edge">
<title>Node6&#45;&gt;Node8</title>
<path fill="none" stroke="midnightblue" d="M652.77,-57.59C675.07,-62.65 702.62,-68.9 726.2,-74.25"/>
<polygon fill="midnightblue" stroke="midnightblue" points="725.51,-77.68 736.04,-76.48 727.06,-70.85 725.51,-77.68"/>
</g>
<!-- Node9 -->
<g id="node9" class="node">
<title>Node9</title>
<g id="a_node9"><a xlink:href="../../db/dc1/class_token.html#a1f07fa2fffeb2f7ab803ef8b424eae8a" target="_top" xlink:title=" ">
<polygon fill="none" stroke="black" points="742,-38.5 742,-57.5 816,-57.5 816,-38.5 742,-38.5"/>
<text text-anchor="middle" x="779" y="-45.5" font-family="Helvetica,sans-Serif" font-size="10.00">Token::setStr</text>
</a>
</g>
</g>
<!-- Node6&#45;&gt;Node9 -->
<g id="edge9" class="edge">
<title>Node6&#45;&gt;Node9</title>
<path fill="none" stroke="midnightblue" d="M669.08,-48C689.56,-48 712.24,-48 731.58,-48"/>
<polygon fill="midnightblue" stroke="midnightblue" points="731.66,-51.5 741.65,-48 731.65,-44.5 731.66,-51.5"/>
</g>
<!-- Node10&#45;&gt;Node2 -->
<g id="edge14" class="edge">
<title>Node10&#45;&gt;Node2</title>
<path fill="none" stroke="midnightblue" d="M456.08,-115.65C472.15,-123.64 495.06,-135.66 514,-148 530.98,-159.07 532.46,-165.84 550,-176 556.66,-179.86 564.06,-183.41 571.3,-186.52"/>
<polygon fill="midnightblue" stroke="midnightblue" points="570.4,-189.93 580.98,-190.49 573.05,-183.46 570.4,-189.93"/>
</g>
<!-- Node10&#45;&gt;Node3 -->
<g id="edge18" class="edge">
<title>Node10&#45;&gt;Node3</title>
<path fill="none" stroke="midnightblue" d="M463.48,-115.51C486.47,-123.32 520.2,-134.45 550,-143 610.11,-160.24 679.96,-177.27 726.35,-188.16"/>
<polygon fill="midnightblue" stroke="midnightblue" points="725.63,-191.59 736.17,-190.45 727.22,-184.77 725.63,-191.59"/>
</g>
<!-- Node10&#45;&gt;Node6 -->
<g id="edge13" class="edge">
<title>Node10&#45;&gt;Node6</title>
<path fill="none" stroke="midnightblue" d="M464.48,-96.42C493.33,-86.73 538.11,-71.67 570.08,-60.92"/>
<polygon fill="midnightblue" stroke="midnightblue" points="571.61,-64.1 579.97,-57.59 569.38,-57.46 571.61,-64.1"/>
</g>
<!-- Node10&#45;&gt;Node8 -->
<g id="edge19" class="edge">
<title>Node10&#45;&gt;Node8</title>
<path fill="none" stroke="midnightblue" d="M514.03,-101.44C578.8,-97.65 669.14,-92.37 725.57,-89.07"/>
<polygon fill="midnightblue" stroke="midnightblue" points="725.91,-92.55 735.69,-88.47 725.51,-85.56 725.91,-92.55"/>
</g>
<!-- Node10&#45;&gt;Node10 -->
<g id="edge20" class="edge">
<title>Node10&#45;&gt;Node10</title>
<path fill="none" stroke="midnightblue" d="M408.18,-115.76C395.13,-124.57 404.07,-134 435,-134 455.78,-134 466.63,-129.74 467.56,-124.27"/>
<polygon fill="midnightblue" stroke="midnightblue" points="470.31,-122.09 461.82,-115.76 464.51,-126.01 470.31,-122.09"/>
</g>
<!-- Node11 -->
<g id="node11" class="node">
<title>Node11</title>
<g id="a_node11"><a xlink:href="../../d0/dfe/class_syntax_analyzer.html#a9952c4a2db0a1382b9c94f40dd535fae" target="_top" xlink:title=" ">
<polygon fill="none" stroke="black" points="550.5,-114.5 550.5,-133.5 668.5,-133.5 668.5,-114.5 550.5,-114.5"/>
<text text-anchor="middle" x="609.5" y="-121.5" font-family="Helvetica,sans-Serif" font-size="10.00">SyntaxAnalyzer::eatAdv</text>
</a>
</g>
</g>
<!-- Node10&#45;&gt;Node11 -->
<g id="edge15" class="edge">
<title>Node10&#45;&gt;Node11</title>
<path fill="none" stroke="midnightblue" d="M514.17,-114.16C522.95,-115.07 531.84,-116 540.48,-116.9"/>
<polygon fill="midnightblue" stroke="midnightblue" points="540.17,-120.39 550.48,-117.95 540.89,-113.43 540.17,-120.39"/>
</g>
<!-- Node11&#45;&gt;Node3 -->
<g id="edge16" class="edge">
<title>Node11&#45;&gt;Node3</title>
<path fill="none" stroke="midnightblue" d="M634.54,-133.51C645.16,-137.8 657.76,-143.02 669,-148 696.72,-160.29 727.9,-175.28 749.79,-186.01"/>
<polygon fill="midnightblue" stroke="midnightblue" points="748.34,-189.2 758.85,-190.47 751.43,-182.91 748.34,-189.2"/>
</g>
<!-- Node11&#45;&gt;Node4 -->
<g id="edge17" class="edge">
<title>Node11&#45;&gt;Node4</title>
<path fill="none" stroke="midnightblue" d="M668.61,-130.59C677.13,-131.56 686.03,-132.57 694.92,-133.58"/>
<polygon fill="midnightblue" stroke="midnightblue" points="694.61,-137.06 704.94,-134.71 695.4,-130.11 694.61,-137.06"/>
</g>
</g>
</svg>
