<?xml version="1.0" encoding="UTF-8" standalone="no"?>
<!DOCTYPE svg PUBLIC "-//W3C//DTD SVG 1.1//EN"
 "http://www.w3.org/Graphics/SVG/1.1/DTD/svg11.dtd">
<!-- Generated by graphviz version 2.43.0 (0)
 -->
<!-- Title: SyntaxAnalyzer::block Pages: 1 -->
<svg width="2239pt" height="1378pt"
 viewBox="0.00 0.00 2239.00 1378.22" xmlns="http://www.w3.org/2000/svg" xmlns:xlink="http://www.w3.org/1999/xlink">
<g id="graph0" class="graph" transform="scale(1 1) rotate(0) translate(4 1374.22)">
<title>SyntaxAnalyzer::block</title>
<!-- Node1 -->
<g id="node1" class="node">
<title>Node1</title>
<g id="a_node1"><a xlink:title=" ">
<polygon fill="#bfbfbf" stroke="black" points="0,-164.36 0,-183.36 125,-183.36 125,-164.36 0,-164.36"/>
<text text-anchor="middle" x="62.5" y="-171.36" font-family="Helvetica,sans-Serif" font-size="10.00">SyntaxAnalyzer::block</text>
</a>
</g>
</g>
<!-- Node2 -->
<g id="node2" class="node">
<title>Node2</title>
<g id="a_node2"><a xlink:href="../../d0/dfe/class_syntax_analyzer.html#a18eda283535db13ad581c01507bfa2e2" target="_top" xlink:title=" ">
<polygon fill="none" stroke="black" points="161,-82.86 161,-112.86 309,-112.86 309,-82.86 161,-82.86"/>
<text text-anchor="start" x="169" y="-100.86" font-family="Helvetica,sans-Serif" font-size="10.00">SyntaxAnalyzer::compount</text>
<text text-anchor="middle" x="235" y="-89.86" font-family="Helvetica,sans-Serif" font-size="10.00">Statement</text>
</a>
</g>
</g>
<!-- Node1&#45;&gt;Node2 -->
<g id="edge1" class="edge">
<title>Node1&#45;&gt;Node2</title>
<path fill="none" stroke="midnightblue" d="M85.09,-164.23C111.63,-152.4 157.29,-132.05 191.07,-116.99"/>
<polygon fill="midnightblue" stroke="midnightblue" points="192.55,-120.17 200.26,-112.9 189.7,-113.77 192.55,-120.17"/>
</g>
<!-- Node26 -->
<g id="node26" class="node">
<title>Node26</title>
<g id="a_node26"><a xlink:href="../../d0/dfe/class_syntax_analyzer.html#a015b181bbb6bf799cefb3925ed8edb77" target="_top" xlink:title=" ">
<polygon fill="none" stroke="black" points="1112,-164.36 1112,-183.36 1258,-183.36 1258,-164.36 1112,-164.36"/>
<text text-anchor="middle" x="1185" y="-171.36" font-family="Helvetica,sans-Serif" font-size="10.00">SyntaxAnalyzer::constants</text>
</a>
</g>
</g>
<!-- Node1&#45;&gt;Node26 -->
<g id="edge62" class="edge">
<title>Node1&#45;&gt;Node26</title>
<path fill="none" stroke="midnightblue" d="M125.01,-173.86C197.38,-173.86 321.18,-173.86 427.5,-173.86 427.5,-173.86 427.5,-173.86 825,-173.86 919.94,-173.86 1029.01,-173.86 1101.78,-173.86"/>
<polygon fill="midnightblue" stroke="midnightblue" points="1101.8,-177.36 1111.8,-173.86 1101.8,-170.36 1101.8,-177.36"/>
</g>
<!-- Node28 -->
<g id="node28" class="node">
<title>Node28</title>
<g id="a_node28"><a xlink:href="../../d0/dfe/class_syntax_analyzer.html#a86f9773a75f04e55b95120c2ad77df1c" target="_top" xlink:title=" ">
<polygon fill="none" stroke="black" points="1309.5,-1240.36 1309.5,-1259.36 1468.5,-1259.36 1468.5,-1240.36 1309.5,-1240.36"/>
<text text-anchor="middle" x="1389" y="-1247.36" font-family="Helvetica,sans-Serif" font-size="10.00">SyntaxAnalyzer::declarations</text>
</a>
</g>
</g>
<!-- Node1&#45;&gt;Node28 -->
<g id="edge69" class="edge">
<title>Node1&#45;&gt;Node28</title>
<path fill="none" stroke="midnightblue" d="M64.54,-183.49C76.36,-290.31 189.13,-1249.86 427.5,-1249.86 427.5,-1249.86 427.5,-1249.86 1012.5,-1249.86 1110.61,-1249.86 1223.13,-1249.86 1299.22,-1249.86"/>
<polygon fill="midnightblue" stroke="midnightblue" points="1299.25,-1253.36 1309.25,-1249.86 1299.25,-1246.36 1299.25,-1253.36"/>
</g>
<!-- Node3 -->
<g id="node3" class="node">
<title>Node3</title>
<g id="a_node3"><a xlink:href="../../db/d47/class_compound.html#a6c1dd1d50fc7444e164c6a5b5d756664" target="_top" xlink:title=" ">
<polygon fill="none" stroke="black" points="369.5,-88.36 369.5,-107.36 487.5,-107.36 487.5,-88.36 369.5,-88.36"/>
<text text-anchor="middle" x="428.5" y="-95.36" font-family="Helvetica,sans-Serif" font-size="10.00">Compound::addChild</text>
</a>
</g>
</g>
<!-- Node2&#45;&gt;Node3 -->
<g id="edge2" class="edge">
<title>Node2&#45;&gt;Node3</title>
<path fill="none" stroke="midnightblue" d="M309.22,-97.86C325.59,-97.86 342.89,-97.86 359.06,-97.86"/>
<polygon fill="midnightblue" stroke="midnightblue" points="359.5,-101.36 369.5,-97.86 359.5,-94.36 359.5,-101.36"/>
</g>
<!-- Node4 -->
<g id="node4" class="node">
<title>Node4</title>
<g id="a_node4"><a xlink:href="../../d0/dfe/class_syntax_analyzer.html#a5d17bcae2fd7dc11d0710e046c4c3280" target="_top" xlink:title=" ">
<polygon fill="none" stroke="black" points="1914,-449.36 1914,-468.36 2029,-468.36 2029,-449.36 1914,-449.36"/>
<text text-anchor="middle" x="1971.5" y="-456.36" font-family="Helvetica,sans-Serif" font-size="10.00">SyntaxAnalyzer::eat</text>
</a>
</g>
</g>
<!-- Node2&#45;&gt;Node4 -->
<g id="edge3" class="edge">
<title>Node2&#45;&gt;Node4</title>
<path fill="none" stroke="midnightblue" d="M258.23,-82.71C279.48,-69.1 312.94,-49.91 345,-40.86 463.54,-7.38 498.32,-21.86 621.5,-21.86 621.5,-21.86 621.5,-21.86 1390,-21.86 1611.67,-21.86 1716.46,26.94 1878,-124.86 1925.05,-169.07 1958.22,-373.89 1967.72,-438.96"/>
<polygon fill="midnightblue" stroke="midnightblue" points="1964.29,-439.7 1969.17,-449.1 1971.22,-438.71 1964.29,-439.7"/>
</g>
<!-- Node7 -->
<g id="node7" class="node">
<title>Node7</title>
<g id="a_node7"><a xlink:href="../../d0/dfe/class_syntax_analyzer.html#ad8504763c198f311206051b920919a34" target="_top" xlink:title=" ">
<polygon fill="none" stroke="black" points="345,-50.36 345,-69.36 512,-69.36 512,-50.36 345,-50.36"/>
<text text-anchor="middle" x="428.5" y="-57.36" font-family="Helvetica,sans-Serif" font-size="10.00">SyntaxAnalyzer::statementList</text>
</a>
</g>
</g>
<!-- Node2&#45;&gt;Node7 -->
<g id="edge6" class="edge">
<title>Node2&#45;&gt;Node7</title>
<path fill="none" stroke="midnightblue" d="M309.22,-83.33C329.18,-79.37 350.52,-75.13 369.51,-71.37"/>
<polygon fill="midnightblue" stroke="midnightblue" points="370.37,-74.76 379.49,-69.39 369,-67.9 370.37,-74.76"/>
</g>
<!-- Node5 -->
<g id="node5" class="node">
<title>Node5</title>
<g id="a_node5"><a xlink:href="../../d0/dfe/class_syntax_analyzer.html#a3ae6c7319e61cd669c417f189b098374" target="_top" xlink:title=" ">
<polygon fill="none" stroke="black" points="2074,-765.36 2074,-784.36 2222,-784.36 2222,-765.36 2074,-765.36"/>
<text text-anchor="middle" x="2148" y="-772.36" font-family="Helvetica,sans-Serif" font-size="10.00">SyntaxAnalyzer::getCurTok</text>
</a>
</g>
</g>
<!-- Node4&#45;&gt;Node5 -->
<g id="edge4" class="edge">
<title>Node4&#45;&gt;Node5</title>
<path fill="none" stroke="midnightblue" d="M1989.46,-468.48C2001.78,-476.19 2018.14,-487.98 2029,-501.86 2093.67,-584.48 2130.02,-707.95 2142.27,-755.36"/>
<polygon fill="midnightblue" stroke="midnightblue" points="2138.92,-756.39 2144.75,-765.24 2145.71,-754.68 2138.92,-756.39"/>
</g>
<!-- Node6 -->
<g id="node6" class="node">
<title>Node6</title>
<g id="a_node6"><a xlink:href="../../d0/dfe/class_syntax_analyzer.html#a9e41370d8d74fbd2e77648d2071e7dfe" target="_top" xlink:title=" ">
<polygon fill="none" stroke="black" points="2065,-449.36 2065,-468.36 2231,-468.36 2231,-449.36 2065,-449.36"/>
<text text-anchor="middle" x="2148" y="-456.36" font-family="Helvetica,sans-Serif" font-size="10.00">SyntaxAnalyzer::getNextToken</text>
</a>
</g>
</g>
<!-- Node4&#45;&gt;Node6 -->
<g id="edge5" class="edge">
<title>Node4&#45;&gt;Node6</title>
<path fill="none" stroke="midnightblue" d="M2029.16,-458.86C2037.38,-458.86 2046.02,-458.86 2054.73,-458.86"/>
<polygon fill="midnightblue" stroke="midnightblue" points="2054.96,-462.36 2064.96,-458.86 2054.96,-455.36 2054.96,-462.36"/>
</g>
<!-- Node7&#45;&gt;Node4 -->
<g id="edge7" class="edge">
<title>Node7&#45;&gt;Node4</title>
<path fill="none" stroke="midnightblue" d="M473.83,-69.41C569.26,-89.82 788.34,-135.86 823,-135.86 823,-135.86 823,-135.86 1602.5,-135.86 1726.64,-135.86 1783.61,-101.23 1878,-181.86 1957.38,-249.67 1968.91,-387.62 1970.38,-438.99"/>
<polygon fill="midnightblue" stroke="midnightblue" points="1966.88,-439.16 1970.57,-449.1 1973.88,-439.03 1966.88,-439.16"/>
</g>
<!-- Node7&#45;&gt;Node5 -->
<g id="edge8" class="edge">
<title>Node7&#45;&gt;Node5</title>
<path fill="none" stroke="midnightblue" d="M512.03,-59.86C591.65,-59.86 715.57,-59.86 823,-59.86 823,-59.86 823,-59.86 1390,-59.86 1674.7,-59.86 1831.95,100.64 2029,-104.86 2086.64,-164.97 2049.86,-395.97 2065,-477.86 2084.71,-584.5 2124.63,-708.51 2140.39,-755.49"/>
<polygon fill="midnightblue" stroke="midnightblue" points="2137.17,-756.91 2143.69,-765.26 2143.8,-754.66 2137.17,-756.91"/>
</g>
<!-- Node8 -->
<g id="node8" class="node">
<title>Node8</title>
<g id="a_node8"><a xlink:href="../../d0/dfe/class_syntax_analyzer.html#a9143c9b9964ff3b8ed26a92a4a383333" target="_top" xlink:title=" ">
<polygon fill="none" stroke="black" points="548,-433.36 548,-452.36 697,-452.36 697,-433.36 548,-433.36"/>
<text text-anchor="middle" x="622.5" y="-440.36" font-family="Helvetica,sans-Serif" font-size="10.00">SyntaxAnalyzer::statement</text>
</a>
</g>
</g>
<!-- Node7&#45;&gt;Node8 -->
<g id="edge9" class="edge">
<title>Node7&#45;&gt;Node8</title>
<path fill="none" stroke="midnightblue" d="M498.22,-69.42C503.24,-71.94 507.92,-75.04 512,-78.86 538.29,-103.48 599.38,-350.84 616.79,-423.12"/>
<polygon fill="midnightblue" stroke="midnightblue" points="613.46,-424.25 619.2,-433.16 620.27,-422.62 613.46,-424.25"/>
</g>
<!-- Node8&#45;&gt;Node2 -->
<g id="edge47" class="edge">
<title>Node8&#45;&gt;Node2</title>
<path fill="none" stroke="midnightblue" d="M610.56,-433.06C558.45,-386.44 334.97,-186.43 260.36,-119.66"/>
<polygon fill="midnightblue" stroke="midnightblue" points="262.6,-116.97 252.81,-112.9 257.93,-122.18 262.6,-116.97"/>
</g>
<!-- Node8&#45;&gt;Node4 -->
<g id="edge48" class="edge">
<title>Node8&#45;&gt;Node4</title>
<path fill="none" stroke="midnightblue" d="M631.66,-433.23C669.65,-389.51 834.84,-211.86 1010.5,-211.86 1010.5,-211.86 1010.5,-211.86 1390,-211.86 1499.4,-211.86 1788.74,-213.6 1878,-276.86 1934.33,-316.77 1958.49,-401.31 1966.82,-439.46"/>
<polygon fill="midnightblue" stroke="midnightblue" points="1963.41,-440.22 1968.84,-449.31 1970.26,-438.81 1963.41,-440.22"/>
</g>
<!-- Node8&#45;&gt;Node5 -->
<g id="edge50" class="edge">
<title>Node8&#45;&gt;Node5</title>
<path fill="none" stroke="midnightblue" d="M624.22,-452.59C629.5,-521.49 663.83,-935.97 733,-1037.86 814.76,-1158.3 864.93,-1211.86 1010.5,-1211.86 1010.5,-1211.86 1010.5,-1211.86 1801.5,-1211.86 1903.22,-1211.86 1951.24,-1252.44 2029,-1186.86 2091.35,-1134.27 2133.45,-869.57 2144.26,-794.65"/>
<polygon fill="midnightblue" stroke="midnightblue" points="2147.73,-795.05 2145.67,-784.66 2140.8,-794.07 2147.73,-795.05"/>
</g>
<!-- Node9 -->
<g id="node9" class="node">
<title>Node9</title>
<g id="a_node9"><a xlink:href="../../d0/dfe/class_syntax_analyzer.html#a77b279fd23cf5b5bc1ddff3af219c572" target="_top" xlink:title=" ">
<polygon fill="none" stroke="black" points="746,-449.86 746,-479.86 902,-479.86 902,-449.86 746,-449.86"/>
<text text-anchor="start" x="754" y="-467.86" font-family="Helvetica,sans-Serif" font-size="10.00">SyntaxAnalyzer::assignment</text>
<text text-anchor="middle" x="824" y="-456.86" font-family="Helvetica,sans-Serif" font-size="10.00">Statement</text>
</a>
</g>
</g>
<!-- Node8&#45;&gt;Node9 -->
<g id="edge10" class="edge">
<title>Node8&#45;&gt;Node9</title>
<path fill="none" stroke="midnightblue" d="M697.22,-450.99C709.74,-452.37 722.86,-453.82 735.69,-455.23"/>
<polygon fill="midnightblue" stroke="midnightblue" points="735.58,-458.74 745.91,-456.36 736.35,-451.78 735.58,-458.74"/>
</g>
<!-- Node19 -->
<g id="node19" class="node">
<title>Node19</title>
<g id="a_node19"><a xlink:href="../../d0/dfe/class_syntax_analyzer.html#af0905389742c4f842207bb2c073afbfa" target="_top" xlink:title=" ">
<polygon fill="none" stroke="black" points="1723,-1126.36 1723,-1145.36 1878,-1145.36 1878,-1126.36 1723,-1126.36"/>
<text text-anchor="middle" x="1800.5" y="-1133.36" font-family="Helvetica,sans-Serif" font-size="10.00">SyntaxAnalyzer::lookFoward</text>
</a>
</g>
</g>
<!-- Node8&#45;&gt;Node19 -->
<g id="edge56" class="edge">
<title>Node8&#45;&gt;Node19</title>
<path fill="none" stroke="midnightblue" d="M624.09,-452.39C629.78,-535.63 682.19,-1135.86 1010.5,-1135.86 1010.5,-1135.86 1010.5,-1135.86 1390,-1135.86 1501.41,-1135.86 1629.88,-1135.86 1712.77,-1135.86"/>
<polygon fill="midnightblue" stroke="midnightblue" points="1712.9,-1139.36 1722.9,-1135.86 1712.9,-1132.36 1712.9,-1139.36"/>
</g>
<!-- Node21 -->
<g id="node21" class="node">
<title>Node21</title>
<g id="a_node21"><a xlink:href="../../d0/dfe/class_syntax_analyzer.html#a1881c173010f7dea8a147b4195b4a739" target="_top" xlink:title=" ">
<polygon fill="none" stroke="black" points="1731,-582.86 1731,-612.86 1870,-612.86 1870,-582.86 1731,-582.86"/>
<text text-anchor="start" x="1739" y="-600.86" font-family="Helvetica,sans-Serif" font-size="10.00">SyntaxAnalyzer::procCall</text>
<text text-anchor="middle" x="1800.5" y="-589.86" font-family="Helvetica,sans-Serif" font-size="10.00">Statement</text>
</a>
</g>
</g>
<!-- Node8&#45;&gt;Node21 -->
<g id="edge57" class="edge">
<title>Node8&#45;&gt;Node21</title>
<path fill="none" stroke="midnightblue" d="M697.07,-437.72C756.12,-434.65 841.09,-432.6 915,-439.86 1087.71,-456.83 1127.23,-484.96 1298,-515.86 1447.19,-542.85 1622.07,-570.55 1720.92,-585.85"/>
<polygon fill="midnightblue" stroke="midnightblue" points="1720.41,-589.32 1730.83,-587.38 1721.48,-582.4 1720.41,-589.32"/>
</g>
<!-- Node23 -->
<g id="node23" class="node">
<title>Node23</title>
<g id="a_node23"><a xlink:href="../../d0/dfe/class_syntax_analyzer.html#aae4e5ac17a66184fbd91579387c3b2e3" target="_top" xlink:title=" ">
<polygon fill="none" stroke="black" points="733,-537.36 733,-556.36 915,-556.36 915,-537.36 733,-537.36"/>
<text text-anchor="middle" x="824" y="-544.36" font-family="Helvetica,sans-Serif" font-size="10.00">SyntaxAnalyzer::emptyStatement</text>
</a>
</g>
</g>
<!-- Node8&#45;&gt;Node23 -->
<g id="edge49" class="edge">
<title>Node8&#45;&gt;Node23</title>
<path fill="none" stroke="midnightblue" d="M632.75,-452.5C650.45,-470.33 691.08,-508.43 733,-527.86 738.38,-530.35 744.1,-532.53 749.94,-534.41"/>
<polygon fill="midnightblue" stroke="midnightblue" points="749.27,-537.86 759.85,-537.33 751.24,-531.15 749.27,-537.86"/>
</g>
<!-- Node24 -->
<g id="node24" class="node">
<title>Node24</title>
<g id="a_node24"><a xlink:href="../../d0/dfe/class_syntax_analyzer.html#ae42240b66b55987b048d30413116dba2" target="_top" xlink:title=" ">
<polygon fill="none" stroke="black" points="745.5,-499.36 745.5,-518.36 902.5,-518.36 902.5,-499.36 745.5,-499.36"/>
<text text-anchor="middle" x="824" y="-506.36" font-family="Helvetica,sans-Serif" font-size="10.00">SyntaxAnalyzer::ifStatement</text>
</a>
</g>
</g>
<!-- Node8&#45;&gt;Node24 -->
<g id="edge51" class="edge">
<title>Node8&#45;&gt;Node24</title>
<path fill="none" stroke="midnightblue" d="M660.38,-452.37C681.33,-460.71 708.24,-471.98 733,-479.86 753.78,-486.47 777.94,-491.71 795.99,-496.52"/>
<polygon fill="midnightblue" stroke="midnightblue" points="795.26,-499.96 805.84,-499.31 797.17,-493.22 795.26,-499.96"/>
</g>
<!-- Node25 -->
<g id="node25" class="node">
<title>Node25</title>
<g id="a_node25"><a xlink:href="../../d0/dfe/class_syntax_analyzer.html#ae4fbb603513ebf74be2db2cfd435c8a2" target="_top" xlink:title=" ">
<polygon fill="none" stroke="black" points="736,-373.36 736,-392.36 912,-392.36 912,-373.36 736,-373.36"/>
<text text-anchor="middle" x="824" y="-380.36" font-family="Helvetica,sans-Serif" font-size="10.00">SyntaxAnalyzer::whileStatement</text>
</a>
</g>
</g>
<!-- Node8&#45;&gt;Node25 -->
<g id="edge58" class="edge">
<title>Node8&#45;&gt;Node25</title>
<path fill="none" stroke="midnightblue" d="M635.26,-433.26C655.24,-422.82 697.13,-408.53 733,-397.86 736.1,-396.94 739.26,-396.01 742.47,-395.1"/>
<polygon fill="midnightblue" stroke="midnightblue" points="743.46,-398.45 752.15,-392.38 741.57,-391.71 743.46,-398.45"/>
</g>
<!-- Node9&#45;&gt;Node4 -->
<g id="edge11" class="edge">
<title>Node9&#45;&gt;Node4</title>
<path fill="none" stroke="midnightblue" d="M860.88,-449.73C913.9,-428.06 1016.73,-388.63 1108,-368.86 1275.28,-332.62 1722.67,-277.95 1878,-349.86 1918.16,-368.45 1947.26,-414.03 1961.21,-439.98"/>
<polygon fill="midnightblue" stroke="midnightblue" points="1958.26,-441.89 1965.96,-449.17 1964.48,-438.68 1958.26,-441.89"/>
</g>
<!-- Node9&#45;&gt;Node5 -->
<g id="edge45" class="edge">
<title>Node9&#45;&gt;Node5</title>
<path fill="none" stroke="midnightblue" d="M856.69,-449.66C987.12,-389.31 1493.62,-176.4 1878,-314.86 1959.97,-344.38 1979.16,-368.4 2029,-439.86 2102.44,-545.16 2134.47,-700.75 2143.87,-755.19"/>
<polygon fill="midnightblue" stroke="midnightblue" points="2140.45,-755.93 2145.54,-765.22 2147.35,-754.78 2140.45,-755.93"/>
</g>
<!-- Node10 -->
<g id="node10" class="node">
<title>Node10</title>
<g id="a_node10"><a xlink:href="../../d0/dfe/class_syntax_analyzer.html#af2aa594232ce4574421351ed10331f50" target="_top" xlink:title=" ">
<polygon fill="none" stroke="black" points="951,-596.36 951,-615.36 1072,-615.36 1072,-596.36 951,-596.36"/>
<text text-anchor="middle" x="1011.5" y="-603.36" font-family="Helvetica,sans-Serif" font-size="10.00">SyntaxAnalyzer::expr</text>
</a>
</g>
</g>
<!-- Node9&#45;&gt;Node10 -->
<g id="edge12" class="edge">
<title>Node9&#45;&gt;Node10</title>
<path fill="none" stroke="midnightblue" d="M895.63,-479.9C902.43,-482.68 909.02,-485.97 915,-489.86 953.98,-515.2 984.97,-561.48 1000.21,-587.26"/>
<polygon fill="midnightblue" stroke="midnightblue" points="997.24,-589.13 1005.26,-596.05 1003.31,-585.64 997.24,-589.13"/>
</g>
<!-- Node22 -->
<g id="node22" class="node">
<title>Node22</title>
<g id="a_node22"><a xlink:href="../../d0/dfe/class_syntax_analyzer.html#aee4c8631363c115e1e0946bf19cfc340" target="_top" xlink:title=" ">
<polygon fill="none" stroke="black" points="1731,-784.36 1731,-803.36 1870,-803.36 1870,-784.36 1731,-784.36"/>
<text text-anchor="middle" x="1800.5" y="-791.36" font-family="Helvetica,sans-Serif" font-size="10.00">SyntaxAnalyzer::variable</text>
</a>
</g>
</g>
<!-- Node9&#45;&gt;Node22 -->
<g id="edge46" class="edge">
<title>Node9&#45;&gt;Node22</title>
<path fill="none" stroke="midnightblue" d="M902.33,-480.06C906.95,-482.82 911.24,-486.06 915,-489.86 958.68,-533.99 932.74,-565.51 951,-624.86 1019.92,-848.84 949.66,-1097.86 1184,-1097.86 1184,-1097.86 1184,-1097.86 1390,-1097.86 1402.25,-1097.86 1711.99,-814.23 1723,-808.86 1724.33,-808.21 1725.69,-807.59 1727.06,-806.99"/>
<polygon fill="midnightblue" stroke="midnightblue" points="1728.31,-810.27 1736.42,-803.45 1725.82,-803.72 1728.31,-810.27"/>
</g>
<!-- Node10&#45;&gt;Node4 -->
<g id="edge13" class="edge">
<title>Node10&#45;&gt;Node4</title>
<path fill="none" stroke="midnightblue" d="M1023.71,-596.18C1060.12,-565.46 1179.62,-470.15 1298,-436.86 1546.15,-367.08 1622.14,-406.46 1878,-437.86 1893.8,-439.8 1910.86,-443.27 1925.98,-446.84"/>
<polygon fill="midnightblue" stroke="midnightblue" points="1925.55,-450.33 1936.09,-449.3 1927.21,-443.53 1925.55,-450.33"/>
</g>
<!-- Node10&#45;&gt;Node5 -->
<g id="edge14" class="edge">
<title>Node10&#45;&gt;Node5</title>
<path fill="none" stroke="midnightblue" d="M1065.79,-615.45C1068.05,-617.01 1070.14,-618.8 1072,-620.86 1145.79,-702.51 1049.02,-772.94 1108,-865.86 1263.01,-1110.08 1435.21,-1049.71 1723,-1078.86 1858.31,-1092.57 1916.78,-1155.68 2029,-1078.86 2126.9,-1011.84 2143.59,-850.83 2146.42,-794.62"/>
<polygon fill="midnightblue" stroke="midnightblue" points="2149.92,-794.7 2146.83,-784.56 2142.93,-794.41 2149.92,-794.7"/>
</g>
<!-- Node11 -->
<g id="node11" class="node">
<title>Node11</title>
<g id="a_node11"><a xlink:href="../../d0/d11/class_i_token.html#a568cb9d98839eff3fd758f419a76b092" target="_top" xlink:title="Получение типа токена">
<polygon fill="none" stroke="black" points="1925.5,-936.36 1925.5,-955.36 2017.5,-955.36 2017.5,-936.36 1925.5,-936.36"/>
<text text-anchor="middle" x="1971.5" y="-943.36" font-family="Helvetica,sans-Serif" font-size="10.00">IToken::getType</text>
</a>
</g>
</g>
<!-- Node10&#45;&gt;Node11 -->
<g id="edge15" class="edge">
<title>Node10&#45;&gt;Node11</title>
<path fill="none" stroke="midnightblue" d="M1064.94,-615.4C1067.48,-616.97 1069.86,-618.78 1072,-620.86 1114.62,-662.42 1075.71,-699.86 1108,-749.86 1195.98,-886.1 1225.82,-983.86 1388,-983.86 1388,-983.86 1388,-983.86 1602.5,-983.86 1713.92,-983.86 1843.31,-966.41 1915.16,-955.16"/>
<polygon fill="midnightblue" stroke="midnightblue" points="1916,-958.57 1925.33,-953.55 1914.91,-951.66 1916,-958.57"/>
</g>
<!-- Node12 -->
<g id="node12" class="node">
<title>Node12</title>
<g id="a_node12"><a xlink:href="../../df/d3f/_syntax_8hpp.html#ae7d62ca130413d4c96863327c1af81a4" target="_top" xlink:title="Возвращает истину, если value находится среди значений cont.">
<polygon fill="none" stroke="black" points="1584.5,-620.36 1584.5,-639.36 1618.5,-639.36 1618.5,-620.36 1584.5,-620.36"/>
<text text-anchor="middle" x="1601.5" y="-627.36" font-family="Helvetica,sans-Serif" font-size="10.00">isIn</text>
</a>
</g>
</g>
<!-- Node10&#45;&gt;Node12 -->
<g id="edge16" class="edge">
<title>Node10&#45;&gt;Node12</title>
<path fill="none" stroke="midnightblue" d="M1072.12,-608.29C1197.83,-613.42 1485.8,-625.18 1574.2,-628.79"/>
<polygon fill="midnightblue" stroke="midnightblue" points="1574.29,-632.29 1584.42,-629.2 1574.57,-625.3 1574.29,-632.29"/>
</g>
<!-- Node13 -->
<g id="node13" class="node">
<title>Node13</title>
<g id="a_node13"><a xlink:href="../../d0/dfe/class_syntax_analyzer.html#add298ad1660ec015b461199b46f19de5" target="_top" xlink:title=" ">
<polygon fill="none" stroke="black" points="1108,-672.36 1108,-691.36 1262,-691.36 1262,-672.36 1108,-672.36"/>
<text text-anchor="middle" x="1185" y="-679.36" font-family="Helvetica,sans-Serif" font-size="10.00">SyntaxAnalyzer::simpleExpr</text>
</a>
</g>
</g>
<!-- Node10&#45;&gt;Node13 -->
<g id="edge17" class="edge">
<title>Node10&#45;&gt;Node13</title>
<path fill="none" stroke="midnightblue" d="M1034.22,-615.48C1064.25,-628.79 1118.6,-652.88 1152.92,-668.09"/>
<polygon fill="midnightblue" stroke="midnightblue" points="1151.9,-671.46 1162.46,-672.31 1154.73,-665.06 1151.9,-671.46"/>
</g>
<!-- Node13&#45;&gt;Node4 -->
<g id="edge18" class="edge">
<title>Node13&#45;&gt;Node4</title>
<path fill="none" stroke="midnightblue" d="M1187.81,-672.31C1194.8,-638.47 1223.4,-523.92 1298,-477.86 1397.76,-416.26 1754.65,-439.59 1904.01,-452.53"/>
<polygon fill="midnightblue" stroke="midnightblue" points="1903.71,-456.01 1913.98,-453.4 1904.32,-449.04 1903.71,-456.01"/>
</g>
<!-- Node13&#45;&gt;Node5 -->
<g id="edge19" class="edge">
<title>Node13&#45;&gt;Node5</title>
<path fill="none" stroke="midnightblue" d="M1262.21,-689.23C1439.65,-706.41 1879.26,-748.95 2063.58,-766.79"/>
<polygon fill="midnightblue" stroke="midnightblue" points="2063.46,-770.29 2073.75,-767.77 2064.14,-763.32 2063.46,-770.29"/>
</g>
<!-- Node13&#45;&gt;Node11 -->
<g id="edge20" class="edge">
<title>Node13&#45;&gt;Node11</title>
<path fill="none" stroke="midnightblue" d="M1195.09,-691.57C1213.22,-710.5 1255.77,-752.86 1298,-779.86 1466.28,-887.42 1525.72,-894.72 1723,-925.86 1788.53,-936.2 1864.72,-941.34 1915.07,-943.79"/>
<polygon fill="midnightblue" stroke="midnightblue" points="1914.94,-947.29 1925.09,-944.26 1915.27,-940.29 1914.94,-947.29"/>
</g>
<!-- Node13&#45;&gt;Node12 -->
<g id="edge21" class="edge">
<title>Node13&#45;&gt;Node12</title>
<path fill="none" stroke="midnightblue" d="M1262.03,-672.32C1356.39,-660.48 1512.41,-640.91 1574.17,-633.16"/>
<polygon fill="midnightblue" stroke="midnightblue" points="1574.75,-636.62 1584.24,-631.9 1573.88,-629.67 1574.75,-636.62"/>
</g>
<!-- Node14 -->
<g id="node14" class="node">
<title>Node14</title>
<g id="a_node14"><a xlink:href="../../d0/dfe/class_syntax_analyzer.html#ab54102dcb8ab4f72bebeb3e2c34b7310" target="_top" xlink:title=" ">
<polygon fill="none" stroke="black" points="1328,-751.36 1328,-770.36 1450,-770.36 1450,-751.36 1328,-751.36"/>
<text text-anchor="middle" x="1389" y="-758.36" font-family="Helvetica,sans-Serif" font-size="10.00">SyntaxAnalyzer::term</text>
</a>
</g>
</g>
<!-- Node13&#45;&gt;Node14 -->
<g id="edge22" class="edge">
<title>Node13&#45;&gt;Node14</title>
<path fill="none" stroke="midnightblue" d="M1210.37,-691.39C1246.23,-705.42 1313.38,-731.68 1354.06,-747.58"/>
<polygon fill="midnightblue" stroke="midnightblue" points="1352.96,-750.91 1363.55,-751.3 1355.51,-744.39 1352.96,-750.91"/>
</g>
<!-- Node14&#45;&gt;Node4 -->
<g id="edge23" class="edge">
<title>Node14&#45;&gt;Node4</title>
<path fill="none" stroke="midnightblue" d="M1424.75,-751.32C1494.29,-731.67 1647.28,-685.45 1687,-648.86 1714.49,-623.53 1696.43,-599.15 1723,-572.86 1754.7,-541.5 1873.91,-494.51 1934.57,-471.91"/>
<polygon fill="midnightblue" stroke="midnightblue" points="1935.97,-475.13 1944.13,-468.37 1933.54,-468.56 1935.97,-475.13"/>
</g>
<!-- Node14&#45;&gt;Node5 -->
<g id="edge42" class="edge">
<title>Node14&#45;&gt;Node5</title>
<path fill="none" stroke="midnightblue" d="M1450.03,-761.97C1584.38,-764.45 1909.51,-770.47 2063.49,-773.31"/>
<polygon fill="midnightblue" stroke="midnightblue" points="2063.76,-776.82 2073.82,-773.51 2063.89,-769.82 2063.76,-776.82"/>
</g>
<!-- Node14&#45;&gt;Node11 -->
<g id="edge43" class="edge">
<title>Node14&#45;&gt;Node11</title>
<path fill="none" stroke="midnightblue" d="M1402.49,-770.53C1424.31,-786.96 1471.32,-820.35 1516,-838.86 1588.39,-868.85 1810.62,-914.56 1915.11,-935.15"/>
<polygon fill="midnightblue" stroke="midnightblue" points="1914.66,-938.63 1925.15,-937.12 1916.01,-931.76 1914.66,-938.63"/>
</g>
<!-- Node14&#45;&gt;Node12 -->
<g id="edge44" class="edge">
<title>Node14&#45;&gt;Node12</title>
<path fill="none" stroke="midnightblue" d="M1405.48,-751.23C1441.82,-728.61 1532.82,-671.98 1576.45,-644.83"/>
<polygon fill="midnightblue" stroke="midnightblue" points="1578.36,-647.76 1585,-639.51 1574.66,-641.82 1578.36,-647.76"/>
</g>
<!-- Node15 -->
<g id="node15" class="node">
<title>Node15</title>
<g id="a_node15"><a xlink:href="../../d0/dfe/class_syntax_analyzer.html#a56617069058d10461a1a21685349b2dd" target="_top" xlink:title=" ">
<polygon fill="none" stroke="black" points="1537.5,-810.36 1537.5,-829.36 1665.5,-829.36 1665.5,-810.36 1537.5,-810.36"/>
<text text-anchor="middle" x="1601.5" y="-817.36" font-family="Helvetica,sans-Serif" font-size="10.00">SyntaxAnalyzer::factor</text>
</a>
</g>
</g>
<!-- Node14&#45;&gt;Node15 -->
<g id="edge24" class="edge">
<title>Node14&#45;&gt;Node15</title>
<path fill="none" stroke="midnightblue" d="M1426.86,-770.37C1443.18,-774.66 1462.59,-779.88 1480,-784.86 1496.09,-789.46 1499.95,-791.13 1516,-795.86 1529.17,-799.74 1543.53,-803.86 1556.62,-807.57"/>
<polygon fill="midnightblue" stroke="midnightblue" points="1555.76,-810.97 1566.33,-810.32 1557.66,-804.23 1555.76,-810.97"/>
</g>
<!-- Node15&#45;&gt;Node4 -->
<g id="edge25" class="edge">
<title>Node15&#45;&gt;Node4</title>
<path fill="none" stroke="midnightblue" d="M1625.94,-810.32C1689.07,-784.48 1859.19,-713.71 1878,-693.86 1938.2,-630.32 1960.76,-522.98 1967.78,-478.79"/>
<polygon fill="midnightblue" stroke="midnightblue" points="1971.26,-479.16 1969.27,-468.75 1964.34,-478.13 1971.26,-479.16"/>
</g>
<!-- Node15&#45;&gt;Node5 -->
<g id="edge27" class="edge">
<title>Node15&#45;&gt;Node5</title>
<path fill="none" stroke="midnightblue" d="M1665.74,-820.57C1749.35,-820.64 1901.02,-817.75 2029,-798.86 2051.04,-795.61 2075.18,-790.9 2095.85,-786.52"/>
<polygon fill="midnightblue" stroke="midnightblue" points="2096.65,-789.93 2105.69,-784.4 2095.18,-783.08 2096.65,-789.93"/>
</g>
<!-- Node15&#45;&gt;Node10 -->
<g id="edge26" class="edge">
<title>Node15&#45;&gt;Node10</title>
<path fill="none" stroke="midnightblue" d="M1537.49,-818.23C1438.16,-812.87 1242.63,-790.69 1108,-700.86 1074.98,-678.83 1043.76,-644.24 1026.47,-623.44"/>
<polygon fill="midnightblue" stroke="midnightblue" points="1028.98,-620.98 1019.95,-615.45 1023.56,-625.41 1028.98,-620.98"/>
</g>
<!-- Node15&#45;&gt;Node11 -->
<g id="edge32" class="edge">
<title>Node15&#45;&gt;Node11</title>
<path fill="none" stroke="midnightblue" d="M1642.94,-829.4C1708.56,-845.11 1835.24,-876.42 1878,-893.86 1902.69,-903.93 1929.04,-919.24 1947.27,-930.64"/>
<polygon fill="midnightblue" stroke="midnightblue" points="1945.7,-933.79 1956.01,-936.2 1949.45,-927.88 1945.7,-933.79"/>
</g>
<!-- Node16 -->
<g id="node16" class="node">
<title>Node16</title>
<g id="a_node16"><a xlink:href="../../db/dc1/class_token.html#a014ced0a9ea72ae21fad0d4f116d0a73" target="_top" xlink:title=" ">
<polygon fill="none" stroke="black" points="1758,-1050.36 1758,-1069.36 1843,-1069.36 1843,-1050.36 1758,-1050.36"/>
<text text-anchor="middle" x="1800.5" y="-1057.36" font-family="Helvetica,sans-Serif" font-size="10.00">Token::getInfo</text>
</a>
</g>
</g>
<!-- Node15&#45;&gt;Node16 -->
<g id="edge28" class="edge">
<title>Node15&#45;&gt;Node16</title>
<path fill="none" stroke="midnightblue" d="M1610.47,-829.56C1640.42,-866.05 1746.54,-995.34 1785.24,-1042.49"/>
<polygon fill="midnightblue" stroke="midnightblue" points="1782.6,-1044.79 1791.65,-1050.3 1788.01,-1040.35 1782.6,-1044.79"/>
</g>
<!-- Node15&#45;&gt;Node19 -->
<g id="edge33" class="edge">
<title>Node15&#45;&gt;Node19</title>
<path fill="none" stroke="midnightblue" d="M1605.17,-829.74C1615.36,-866.15 1654.77,-994.99 1723,-1078.86 1736.89,-1095.94 1756.98,-1110.65 1773.09,-1120.84"/>
<polygon fill="midnightblue" stroke="midnightblue" points="1771.67,-1124.08 1782.03,-1126.31 1775.32,-1118.11 1771.67,-1124.08"/>
</g>
<!-- Node15&#45;&gt;Node21 -->
<g id="edge35" class="edge">
<title>Node15&#45;&gt;Node21</title>
<path fill="none" stroke="midnightblue" d="M1610.96,-810.32C1640.14,-777.45 1737,-668.29 1779.37,-620.54"/>
<polygon fill="midnightblue" stroke="midnightblue" points="1782.13,-622.7 1786.15,-612.9 1776.9,-618.06 1782.13,-622.7"/>
</g>
<!-- Node15&#45;&gt;Node22 -->
<g id="edge39" class="edge">
<title>Node15&#45;&gt;Node22</title>
<path fill="none" stroke="midnightblue" d="M1665.64,-811.53C1683.21,-809.21 1702.51,-806.66 1720.85,-804.24"/>
<polygon fill="midnightblue" stroke="midnightblue" points="1721.47,-807.69 1730.92,-802.91 1720.55,-800.75 1721.47,-807.69"/>
</g>
<!-- Node16&#45;&gt;Node11 -->
<g id="edge30" class="edge">
<title>Node16&#45;&gt;Node11</title>
<path fill="none" stroke="midnightblue" d="M1843.11,-1050.65C1854.87,-1047.04 1867.36,-1042.21 1878,-1035.86 1886.77,-1030.63 1929.94,-987.22 1954.08,-962.65"/>
<polygon fill="midnightblue" stroke="midnightblue" points="1956.68,-965 1961.19,-955.41 1951.69,-960.1 1956.68,-965"/>
</g>
<!-- Node17 -->
<g id="node17" class="node">
<title>Node17</title>
<g id="a_node17"><a xlink:href="../../db/dc1/class_token.html#a942fcc40ffdf54c98b7b641c792a26bc" target="_top" xlink:title="Возвращает константную ссылку на строковое представление токена">
<polygon fill="none" stroke="black" points="1931.5,-1012.36 1931.5,-1031.36 2011.5,-1031.36 2011.5,-1012.36 1931.5,-1012.36"/>
<text text-anchor="middle" x="1971.5" y="-1019.36" font-family="Helvetica,sans-Serif" font-size="10.00">Token::getStr</text>
</a>
</g>
</g>
<!-- Node16&#45;&gt;Node17 -->
<g id="edge29" class="edge">
<title>Node16&#45;&gt;Node17</title>
<path fill="none" stroke="midnightblue" d="M1843.28,-1050.47C1866.9,-1045.15 1896.57,-1038.48 1921.32,-1032.92"/>
<polygon fill="midnightblue" stroke="midnightblue" points="1922.25,-1036.3 1931.24,-1030.69 1920.71,-1029.47 1922.25,-1036.3"/>
</g>
<!-- Node18 -->
<g id="node18" class="node">
<title>Node18</title>
<g id="a_node18"><a xlink:href="../../db/dc1/class_token.html#af3b5fdf2261d637af820d4adb62e6109" target="_top" xlink:title=" ">
<polygon fill="none" stroke="black" points="1937.5,-1050.36 1937.5,-1069.36 2005.5,-1069.36 2005.5,-1050.36 1937.5,-1050.36"/>
<text text-anchor="middle" x="1971.5" y="-1057.36" font-family="Helvetica,sans-Serif" font-size="10.00">Token::line</text>
</a>
</g>
</g>
<!-- Node16&#45;&gt;Node18 -->
<g id="edge31" class="edge">
<title>Node16&#45;&gt;Node18</title>
<path fill="none" stroke="midnightblue" d="M1843.28,-1059.86C1868.79,-1059.86 1901.36,-1059.86 1927.16,-1059.86"/>
<polygon fill="midnightblue" stroke="midnightblue" points="1927.4,-1063.36 1937.4,-1059.86 1927.4,-1056.36 1927.4,-1063.36"/>
</g>
<!-- Node20 -->
<g id="node20" class="node">
<title>Node20</title>
<g id="a_node20"><a xlink:href="../../d1/d34/class_list.html#a49c179636e084dfbf7a52acd46acaf01" target="_top" xlink:title=" ">
<polygon fill="none" stroke="black" points="1942,-1126.36 1942,-1145.36 2001,-1145.36 2001,-1126.36 1942,-1126.36"/>
<text text-anchor="middle" x="1971.5" y="-1133.36" font-family="Helvetica,sans-Serif" font-size="10.00">List::size</text>
</a>
</g>
</g>
<!-- Node19&#45;&gt;Node20 -->
<g id="edge34" class="edge">
<title>Node19&#45;&gt;Node20</title>
<path fill="none" stroke="midnightblue" d="M1878.09,-1135.86C1896.72,-1135.86 1915.86,-1135.86 1931.86,-1135.86"/>
<polygon fill="midnightblue" stroke="midnightblue" points="1931.88,-1139.36 1941.88,-1135.86 1931.88,-1132.36 1931.88,-1139.36"/>
</g>
<!-- Node21&#45;&gt;Node4 -->
<g id="edge36" class="edge">
<title>Node21&#45;&gt;Node4</title>
<path fill="none" stroke="midnightblue" d="M1850.7,-582.73C1860.2,-578.68 1869.76,-573.75 1878,-567.86 1913.48,-542.51 1943.82,-500.62 1959.37,-476.83"/>
<polygon fill="midnightblue" stroke="midnightblue" points="1962.33,-478.71 1964.76,-468.39 1956.43,-474.94 1962.33,-478.71"/>
</g>
<!-- Node21&#45;&gt;Node5 -->
<g id="edge38" class="edge">
<title>Node21&#45;&gt;Node5</title>
<path fill="none" stroke="midnightblue" d="M1870.13,-593.91C1917.6,-594.16 1980.66,-600.64 2029,-627.86 2082.78,-658.14 2121.36,-723.58 2137.95,-755.95"/>
<polygon fill="midnightblue" stroke="midnightblue" points="2134.97,-757.81 2142.56,-765.21 2141.24,-754.69 2134.97,-757.81"/>
</g>
<!-- Node21&#45;&gt;Node10 -->
<g id="edge37" class="edge">
<title>Node21&#45;&gt;Node10</title>
<path fill="none" stroke="midnightblue" d="M1730.93,-598.56C1582.48,-600.06 1232.69,-603.62 1082.74,-605.14"/>
<polygon fill="midnightblue" stroke="midnightblue" points="1082.26,-601.65 1072.3,-605.25 1082.33,-608.65 1082.26,-601.65"/>
</g>
<!-- Node22&#45;&gt;Node4 -->
<g id="edge40" class="edge">
<title>Node22&#45;&gt;Node4</title>
<path fill="none" stroke="midnightblue" d="M1818.15,-784.31C1835.42,-773.61 1862.08,-754.73 1878,-731.86 1935.98,-648.58 1960.15,-525.94 1967.69,-478.55"/>
<polygon fill="midnightblue" stroke="midnightblue" points="1971.18,-478.84 1969.22,-468.43 1964.26,-477.79 1971.18,-478.84"/>
</g>
<!-- Node22&#45;&gt;Node5 -->
<g id="edge41" class="edge">
<title>Node22&#45;&gt;Node5</title>
<path fill="none" stroke="midnightblue" d="M1870.17,-790.08C1925.89,-787.02 2004.63,-782.69 2063.9,-779.43"/>
<polygon fill="midnightblue" stroke="midnightblue" points="2064.19,-782.92 2073.98,-778.87 2063.81,-775.93 2064.19,-782.92"/>
</g>
<!-- Node24&#45;&gt;Node4 -->
<g id="edge52" class="edge">
<title>Node24&#45;&gt;Node4</title>
<path fill="none" stroke="midnightblue" d="M868.52,-499.34C883.29,-496.07 899.87,-492.36 915,-488.86 1085.57,-449.42 1124.25,-418.24 1298,-396.86 1394.17,-385.02 1419.11,-395.3 1516,-394.86 1592,-394.51 1611.08,-391.29 1687,-394.86 1772.17,-398.86 1796,-389.48 1878,-412.86 1902.68,-419.89 1928.66,-433.43 1946.78,-444.01"/>
<polygon fill="midnightblue" stroke="midnightblue" points="1945.12,-447.09 1955.5,-449.22 1948.71,-441.08 1945.12,-447.09"/>
</g>
<!-- Node24&#45;&gt;Node5 -->
<g id="edge54" class="edge">
<title>Node24&#45;&gt;Node5</title>
<path fill="none" stroke="midnightblue" d="M902.85,-518.1C907.34,-520.74 911.46,-523.95 915,-527.86 964.65,-582.72 926.58,-789.02 951,-858.86 1008.47,-1023.24 1009.86,-1173.86 1184,-1173.86 1184,-1173.86 1184,-1173.86 1801.5,-1173.86 1902.96,-1173.86 1949.88,-1218.38 2029,-1154.86 2144.11,-1062.44 2149.27,-859.52 2147.83,-794.99"/>
<polygon fill="midnightblue" stroke="midnightblue" points="2151.31,-794.49 2147.51,-784.6 2144.32,-794.71 2151.31,-794.49"/>
</g>
<!-- Node24&#45;&gt;Node8 -->
<g id="edge55" class="edge">
<title>Node24&#45;&gt;Node8</title>
<path fill="none" stroke="midnightblue" d="M745.2,-501.48C741.05,-500.33 736.97,-499.12 733,-497.86 699.77,-487.28 662.67,-470.61 641.3,-457.91"/>
<polygon fill="midnightblue" stroke="midnightblue" points="642.97,-454.83 632.66,-452.39 639.21,-460.73 642.97,-454.83"/>
</g>
<!-- Node24&#45;&gt;Node10 -->
<g id="edge53" class="edge">
<title>Node24&#45;&gt;Node10</title>
<path fill="none" stroke="midnightblue" d="M889.19,-518.46C898.09,-520.92 906.93,-524 915,-527.86 946.65,-543.01 976.92,-570.73 994.6,-588.72"/>
<polygon fill="midnightblue" stroke="midnightblue" points="992.35,-591.43 1001.8,-596.22 997.4,-586.58 992.35,-591.43"/>
</g>
<!-- Node25&#45;&gt;Node4 -->
<g id="edge59" class="edge">
<title>Node25&#45;&gt;Node4</title>
<path fill="none" stroke="midnightblue" d="M871.49,-373.3C1051.62,-337.26 1702.27,-216.48 1878,-314.86 1926.68,-342.11 1953.72,-406.86 1964.67,-439.43"/>
<polygon fill="midnightblue" stroke="midnightblue" points="1961.39,-440.69 1967.77,-449.15 1968.06,-438.56 1961.39,-440.69"/>
</g>
<!-- Node25&#45;&gt;Node8 -->
<g id="edge61" class="edge">
<title>Node25&#45;&gt;Node8</title>
<path fill="none" stroke="midnightblue" d="M809.51,-392.37C791.86,-399.63 759.97,-407.84 733,-415.86 717.82,-420.38 701.55,-425.54 686.33,-430.26"/>
<polygon fill="midnightblue" stroke="midnightblue" points="685.03,-426.99 676.5,-433.28 687.08,-433.69 685.03,-426.99"/>
</g>
<!-- Node25&#45;&gt;Node10 -->
<g id="edge60" class="edge">
<title>Node25&#45;&gt;Node10</title>
<path fill="none" stroke="midnightblue" d="M845.95,-392.43C865.61,-402.21 894.91,-418.89 915,-439.86 958.39,-485.13 989.68,-553.79 1003.15,-586.81"/>
<polygon fill="midnightblue" stroke="midnightblue" points="999.94,-588.2 1006.89,-596.2 1006.44,-585.62 999.94,-588.2"/>
</g>
<!-- Node26&#45;&gt;Node4 -->
<g id="edge67" class="edge">
<title>Node26&#45;&gt;Node4</title>
<path fill="none" stroke="midnightblue" d="M1258.06,-170.46C1415.76,-164.54 1784.86,-159.46 1878,-235.86 1942.69,-288.92 1962.74,-394.83 1968.43,-438.9"/>
<polygon fill="midnightblue" stroke="midnightblue" points="1964.96,-439.4 1969.61,-448.93 1971.92,-438.58 1964.96,-439.4"/>
</g>
<!-- Node26&#45;&gt;Node5 -->
<g id="edge68" class="edge">
<title>Node26&#45;&gt;Node5</title>
<path fill="none" stroke="midnightblue" d="M1216.59,-164.31C1284.77,-143.9 1454.73,-97.86 1600.5,-97.86 1600.5,-97.86 1600.5,-97.86 1801.5,-97.86 1911.95,-97.86 1965.17,-107.72 2029,-197.86 2065.26,-249.06 2052.62,-416.36 2065,-477.86 2086.4,-584.18 2125.34,-708.38 2140.61,-755.45"/>
<polygon fill="midnightblue" stroke="midnightblue" points="2137.37,-756.82 2143.8,-765.24 2144.03,-754.64 2137.37,-756.82"/>
</g>
<!-- Node27 -->
<g id="node27" class="node">
<title>Node27</title>
<g id="a_node27"><a xlink:href="../../d0/dfe/class_syntax_analyzer.html#a57edc8da8ac60964610b99528b3d23d5" target="_top" xlink:title=" ">
<polygon fill="none" stroke="black" points="1298,-487.36 1298,-506.36 1480,-506.36 1480,-487.36 1298,-487.36"/>
<text text-anchor="middle" x="1389" y="-494.36" font-family="Helvetica,sans-Serif" font-size="10.00">SyntaxAnalyzer::constDeclaration</text>
</a>
</g>
</g>
<!-- Node26&#45;&gt;Node27 -->
<g id="edge63" class="edge">
<title>Node26&#45;&gt;Node27</title>
<path fill="none" stroke="midnightblue" d="M1192.05,-183.53C1220.21,-228.57 1338.81,-418.2 1376.47,-478.42"/>
<polygon fill="midnightblue" stroke="midnightblue" points="1373.71,-480.61 1381.98,-487.23 1379.64,-476.9 1373.71,-480.61"/>
</g>
<!-- Node27&#45;&gt;Node4 -->
<g id="edge64" class="edge">
<title>Node27&#45;&gt;Node4</title>
<path fill="none" stroke="midnightblue" d="M1480.07,-490.96C1597.18,-483.3 1799.08,-470.08 1903.54,-463.24"/>
<polygon fill="midnightblue" stroke="midnightblue" points="1903.9,-466.73 1913.65,-462.58 1903.44,-459.74 1903.9,-466.73"/>
</g>
<!-- Node27&#45;&gt;Node5 -->
<g id="edge65" class="edge">
<title>Node27&#45;&gt;Node5</title>
<path fill="none" stroke="midnightblue" d="M1480.11,-501.3C1634.13,-510.37 1940.02,-535.24 2029,-592.86 2090.56,-632.73 2126.75,-717.28 2140.54,-755.45"/>
<polygon fill="midnightblue" stroke="midnightblue" points="2137.38,-757.01 2143.98,-765.31 2143.99,-754.71 2137.38,-757.01"/>
</g>
<!-- Node27&#45;&gt;Node12 -->
<g id="edge66" class="edge">
<title>Node27&#45;&gt;Node12</title>
<path fill="none" stroke="midnightblue" d="M1405.14,-506.42C1441.31,-529.28 1532.99,-587.2 1576.66,-614.8"/>
<polygon fill="midnightblue" stroke="midnightblue" points="1574.89,-617.82 1585.22,-620.2 1578.63,-611.9 1574.89,-617.82"/>
</g>
<!-- Node28&#45;&gt;Node4 -->
<g id="edge70" class="edge">
<title>Node28&#45;&gt;Node4</title>
<path fill="none" stroke="midnightblue" d="M1390.01,-1240.06C1390.55,-1188.32 1399.41,-943.97 1516,-800.86 1581.41,-720.57 1630.02,-739.46 1723,-693.86 1791.2,-660.41 1822.15,-673.34 1878,-621.86 1923.12,-580.27 1951.96,-511.5 1964.02,-478.16"/>
<polygon fill="midnightblue" stroke="midnightblue" points="1967.35,-479.26 1967.35,-468.66 1960.74,-476.94 1967.35,-479.26"/>
</g>
<!-- Node28&#45;&gt;Node5 -->
<g id="edge71" class="edge">
<title>Node28&#45;&gt;Node5</title>
<path fill="none" stroke="midnightblue" d="M1408.42,-1259.47C1492.31,-1301.77 1842.08,-1462.04 2029,-1296.86 2106.79,-1228.11 2138.69,-881.63 2145.54,-794.68"/>
<polygon fill="midnightblue" stroke="midnightblue" points="2149.04,-794.82 2146.31,-784.58 2142.06,-794.29 2149.04,-794.82"/>
</g>
<!-- Node29 -->
<g id="node29" class="node">
<title>Node29</title>
<g id="a_node29"><a xlink:href="../../d0/dfe/class_syntax_analyzer.html#a9f2c8efb5ed56d84cd4b0d6d442b39cf" target="_top" xlink:title=" ">
<polygon fill="none" stroke="black" points="1516,-1240.36 1516,-1259.36 1687,-1259.36 1687,-1240.36 1516,-1240.36"/>
<text text-anchor="middle" x="1601.5" y="-1247.36" font-family="Helvetica,sans-Serif" font-size="10.00">SyntaxAnalyzer::varDeclaration</text>
</a>
</g>
</g>
<!-- Node28&#45;&gt;Node29 -->
<g id="edge72" class="edge">
<title>Node28&#45;&gt;Node29</title>
<path fill="none" stroke="midnightblue" d="M1468.68,-1249.86C1480.72,-1249.86 1493.26,-1249.86 1505.61,-1249.86"/>
<polygon fill="midnightblue" stroke="midnightblue" points="1505.92,-1253.36 1515.92,-1249.86 1505.92,-1246.36 1505.92,-1253.36"/>
</g>
<!-- Node29&#45;&gt;Node4 -->
<g id="edge73" class="edge">
<title>Node29&#45;&gt;Node4</title>
<path fill="none" stroke="midnightblue" d="M1608.71,-1240.31C1623.08,-1218.12 1659.47,-1161.16 1687,-1111.86 1704.25,-1080.97 1705.02,-1071.33 1723,-1040.86 1785.28,-935.33 1827.33,-924.42 1878,-812.86 1932.69,-692.45 1959.6,-533.76 1967.75,-478.69"/>
<polygon fill="midnightblue" stroke="midnightblue" points="1971.25,-478.96 1969.21,-468.56 1964.32,-477.96 1971.25,-478.96"/>
</g>
<!-- Node29&#45;&gt;Node5 -->
<g id="edge74" class="edge">
<title>Node29&#45;&gt;Node5</title>
<path fill="none" stroke="midnightblue" d="M1625.31,-1259.52C1695.19,-1287.41 1908.8,-1359.88 2029,-1258.86 2102.51,-1197.08 2137.28,-878.32 2145.2,-794.87"/>
<polygon fill="midnightblue" stroke="midnightblue" points="2148.71,-794.99 2146.15,-784.71 2141.74,-794.34 2148.71,-794.99"/>
</g>
<!-- Node30 -->
<g id="node30" class="node">
<title>Node30</title>
<g id="a_node30"><a xlink:href="../../d0/dfe/class_syntax_analyzer.html#a282e4a62bdaad7f000339ca3702b97a4" target="_top" xlink:title=" ">
<polygon fill="none" stroke="black" points="1728.5,-1240.36 1728.5,-1259.36 1872.5,-1259.36 1872.5,-1240.36 1728.5,-1240.36"/>
<text text-anchor="middle" x="1800.5" y="-1247.36" font-family="Helvetica,sans-Serif" font-size="10.00">SyntaxAnalyzer::typeSpec</text>
</a>
</g>
</g>
<!-- Node29&#45;&gt;Node30 -->
<g id="edge75" class="edge">
<title>Node29&#45;&gt;Node30</title>
<path fill="none" stroke="midnightblue" d="M1687.19,-1249.86C1697.51,-1249.86 1708.04,-1249.86 1718.32,-1249.86"/>
<polygon fill="midnightblue" stroke="midnightblue" points="1718.48,-1253.36 1728.48,-1249.86 1718.48,-1246.36 1718.48,-1253.36"/>
</g>
<!-- Node30&#45;&gt;Node4 -->
<g id="edge76" class="edge">
<title>Node30&#45;&gt;Node4</title>
<path fill="none" stroke="midnightblue" d="M1812.33,-1240.3C1829.49,-1224.44 1862.56,-1190.86 1878,-1154.86 1891.79,-1122.7 1955.26,-588.26 1968.2,-478.48"/>
<polygon fill="midnightblue" stroke="midnightblue" points="1971.68,-478.8 1969.37,-468.46 1964.73,-477.98 1971.68,-478.8"/>
</g>
<!-- Node30&#45;&gt;Node5 -->
<g id="edge77" class="edge">
<title>Node30&#45;&gt;Node5</title>
<path fill="none" stroke="midnightblue" d="M1850.32,-1259.36C1901.1,-1266.25 1979.91,-1268.06 2029,-1225.86 2096.86,-1167.53 2135.53,-873.48 2144.81,-794.44"/>
<polygon fill="midnightblue" stroke="midnightblue" points="2148.3,-794.73 2145.96,-784.39 2141.34,-793.93 2148.3,-794.73"/>
</g>
</g>
</svg>
