<?xml version="1.0" encoding="UTF-8" standalone="no"?>
<!DOCTYPE svg PUBLIC "-//W3C//DTD SVG 1.1//EN"
 "http://www.w3.org/Graphics/SVG/1.1/DTD/svg11.dtd">
<!-- Generated by graphviz version 3.0.0 (20220413.0106)
 -->
<!-- Title: SyntaxAnalyzer::syntaxVariable Pages: 1 -->
<svg width="636pt" height="313pt"
 viewBox="0.00 0.00 636.00 313.00" xmlns="http://www.w3.org/2000/svg" xmlns:xlink="http://www.w3.org/1999/xlink">
<g id="graph0" class="graph" transform="scale(1 1) rotate(0) translate(4 309)">
<title>SyntaxAnalyzer::syntaxVariable</title>
<!-- Node1 -->
<g id="node1" class="node">
<title>Node1</title>
<g id="a_node1"><a xlink:title=" ">
<polygon fill="#bfbfbf" stroke="black" points="0,-57.5 0,-76.5 150,-76.5 150,-57.5 0,-57.5"/>
<text text-anchor="middle" x="75" y="-64.5" font-family="Helvetica,sans-Serif" font-size="10.00">SyntaxAnalyzer::syntaxVariable</text>
</a>
</g>
</g>
<!-- Node2 -->
<g id="node2" class="node">
<title>Node2</title>
<g id="a_node2"><a xlink:href="../../d7/d7c/class_a_s_t_factory.html#a31d959009ba9e91a58a5c15e986d130b" target="_top" xlink:title=" ">
<polygon fill="none" stroke="black" points="186,-133.5 186,-152.5 305,-152.5 305,-133.5 186,-133.5"/>
<text text-anchor="middle" x="245.5" y="-140.5" font-family="Helvetica,sans-Serif" font-size="10.00">ASTFactory::createAST</text>
</a>
</g>
</g>
<!-- Node1&#45;&gt;Node2 -->
<g id="edge1" class="edge">
<title>Node1&#45;&gt;Node2</title>
<path fill="none" stroke="midnightblue" d="M97.34,-76.63C126.84,-89.93 180.25,-114.02 213.97,-129.23"/>
<polygon fill="midnightblue" stroke="midnightblue" points="212.78,-132.53 223.33,-133.45 215.66,-126.15 212.78,-132.53"/>
</g>
<!-- Node11 -->
<g id="node11" class="node">
<title>Node11</title>
<g id="a_node11"><a xlink:href="../../d0/dfe/class_syntax_analyzer.html#ae1d3434e5cc4b4bcd5a3a245814a44f0" target="_top" xlink:title="Пропускает текущий токен, если он указанного типа. Иначе выбрасывается исключение">
<polygon fill="none" stroke="black" points="195,-38.5 195,-57.5 296,-57.5 296,-38.5 195,-38.5"/>
<text text-anchor="middle" x="245.5" y="-45.5" font-family="Helvetica,sans-Serif" font-size="10.00">SyntaxAnalyzer::eat</text>
</a>
</g>
</g>
<!-- Node1&#45;&gt;Node11 -->
<g id="edge12" class="edge">
<title>Node1&#45;&gt;Node11</title>
<path fill="none" stroke="midnightblue" d="M150.4,-58.61C161.87,-57.32 173.59,-56 184.7,-54.74"/>
<polygon fill="midnightblue" stroke="midnightblue" points="185.15,-58.21 194.69,-53.62 184.36,-51.26 185.15,-58.21"/>
</g>
<!-- Node12 -->
<g id="node12" class="node">
<title>Node12</title>
<g id="a_node12"><a xlink:href="../../d0/dfe/class_syntax_analyzer.html#a3ae6c7319e61cd669c417f189b098374" target="_top" xlink:title=" ">
<polygon fill="none" stroke="black" points="349,-57.5 349,-76.5 481,-76.5 481,-57.5 349,-57.5"/>
<text text-anchor="middle" x="415" y="-64.5" font-family="Helvetica,sans-Serif" font-size="10.00">SyntaxAnalyzer::getCurTok</text>
</a>
</g>
</g>
<!-- Node1&#45;&gt;Node12 -->
<g id="edge15" class="edge">
<title>Node1&#45;&gt;Node12</title>
<path fill="none" stroke="midnightblue" d="M150.18,-67C206.06,-67 282.41,-67 338.59,-67"/>
<polygon fill="midnightblue" stroke="midnightblue" points="338.84,-70.5 348.84,-67 338.84,-63.5 338.84,-70.5"/>
</g>
<!-- Node14 -->
<g id="node14" class="node">
<title>Node14</title>
<g id="a_node14"><a xlink:href="../../d0/d11/class_i_token.html#a4fa3435db7157ca7316d4e4aee1df4c0" target="_top" xlink:title="Устанавливает дополнительный тип токена">
<polygon fill="none" stroke="black" points="194,-0.5 194,-19.5 297,-19.5 297,-0.5 194,-0.5"/>
<text text-anchor="middle" x="245.5" y="-7.5" font-family="Helvetica,sans-Serif" font-size="10.00">IToken::setAdvType</text>
</a>
</g>
</g>
<!-- Node1&#45;&gt;Node14 -->
<g id="edge16" class="edge">
<title>Node1&#45;&gt;Node14</title>
<path fill="none" stroke="midnightblue" d="M103.08,-57.49C125.31,-49.72 157.65,-38.5 186,-29 192.11,-26.95 198.6,-24.81 204.94,-22.74"/>
<polygon fill="midnightblue" stroke="midnightblue" points="206.28,-25.98 214.7,-19.56 204.11,-19.33 206.28,-25.98"/>
</g>
<!-- Node3 -->
<g id="node3" class="node">
<title>Node3</title>
<g id="a_node3"><a xlink:href="../../d0/d11/class_i_token.html#a3e73305ee0ac36d0bf5f26b649589b24" target="_top" xlink:title=" ">
<polygon fill="none" stroke="black" points="525,-133.5 525,-152.5 628,-152.5 628,-133.5 525,-133.5"/>
<text text-anchor="middle" x="576.5" y="-140.5" font-family="Helvetica,sans-Serif" font-size="10.00">IToken::getAdvType</text>
</a>
</g>
</g>
<!-- Node2&#45;&gt;Node3 -->
<g id="edge2" class="edge">
<title>Node2&#45;&gt;Node3</title>
<path fill="none" stroke="midnightblue" d="M305.32,-143C364.37,-143 454.94,-143 514.69,-143"/>
<polygon fill="midnightblue" stroke="midnightblue" points="514.74,-146.5 524.74,-143 514.74,-139.5 514.74,-146.5"/>
</g>
<!-- Node4 -->
<g id="node4" class="node">
<title>Node4</title>
<g id="a_node4"><a xlink:href="../../db/dc1/class_token.html#ab9a75d3f89e77051d87462654e7576de" target="_top" xlink:title=" ">
<polygon fill="none" stroke="black" points="376,-209.5 376,-228.5 454,-228.5 454,-209.5 376,-209.5"/>
<text text-anchor="middle" x="415" y="-216.5" font-family="Helvetica,sans-Serif" font-size="10.00">Token::getInfo</text>
</a>
</g>
</g>
<!-- Node2&#45;&gt;Node4 -->
<g id="edge3" class="edge">
<title>Node2&#45;&gt;Node4</title>
<path fill="none" stroke="midnightblue" d="M259.61,-152.6C277.29,-165.13 310.1,-186.98 341,-200 348.89,-203.33 357.52,-206.19 365.99,-208.62"/>
<polygon fill="midnightblue" stroke="midnightblue" points="365.24,-212.04 375.8,-211.26 367.06,-205.28 365.24,-212.04"/>
</g>
<!-- Node6 -->
<g id="node6" class="node">
<title>Node6</title>
<g id="a_node6"><a xlink:href="../../d0/d11/class_i_token.html#ac7f0a800d7a9e8608bab0360c76d735a" target="_top" xlink:title="Получение типа токена">
<polygon fill="none" stroke="black" points="533.5,-95.5 533.5,-114.5 619.5,-114.5 619.5,-95.5 533.5,-95.5"/>
<text text-anchor="middle" x="576.5" y="-102.5" font-family="Helvetica,sans-Serif" font-size="10.00">IToken::getType</text>
</a>
</g>
</g>
<!-- Node2&#45;&gt;Node6 -->
<g id="edge10" class="edge">
<title>Node2&#45;&gt;Node6</title>
<path fill="none" stroke="midnightblue" d="M305.32,-136.21C367.22,-129.06 463.73,-117.91 523.1,-111.05"/>
<polygon fill="midnightblue" stroke="midnightblue" points="523.84,-114.49 533.37,-109.87 523.04,-107.54 523.84,-114.49"/>
</g>
<!-- Node10 -->
<g id="node10" class="node">
<title>Node10</title>
<g id="a_node10"><a xlink:href="../../db/dc1/class_token.html#a1f07fa2fffeb2f7ab803ef8b424eae8a" target="_top" xlink:title=" ">
<polygon fill="none" stroke="black" points="378,-171.5 378,-190.5 452,-190.5 452,-171.5 378,-171.5"/>
<text text-anchor="middle" x="415" y="-178.5" font-family="Helvetica,sans-Serif" font-size="10.00">Token::setStr</text>
</a>
</g>
</g>
<!-- Node2&#45;&gt;Node10 -->
<g id="edge11" class="edge">
<title>Node2&#45;&gt;Node10</title>
<path fill="none" stroke="midnightblue" d="M288.77,-152.59C312.96,-158.08 343.33,-164.97 368.1,-170.59"/>
<polygon fill="midnightblue" stroke="midnightblue" points="367.46,-174.03 377.99,-172.83 369.01,-167.2 367.46,-174.03"/>
</g>
<!-- Node4&#45;&gt;Node3 -->
<g id="edge4" class="edge">
<title>Node4&#45;&gt;Node3</title>
<path fill="none" stroke="midnightblue" d="M454.34,-213.23C466.01,-210.4 478.51,-206.19 489,-200 509.03,-188.17 505.62,-174.87 525,-162 527.9,-160.08 531.02,-158.31 534.23,-156.7"/>
<polygon fill="midnightblue" stroke="midnightblue" points="535.76,-159.85 543.44,-152.55 532.89,-153.46 535.76,-159.85"/>
</g>
<!-- Node5 -->
<g id="node5" class="node">
<title>Node5</title>
<g id="a_node5"><a xlink:href="../../db/dc1/class_token.html#aa5d6826fae7d616e2cfe3e27b5dd594a" target="_top" xlink:title="Возвращает константную ссылку на строковое представление токена">
<polygon fill="none" stroke="black" points="539.5,-285.5 539.5,-304.5 613.5,-304.5 613.5,-285.5 539.5,-285.5"/>
<text text-anchor="middle" x="576.5" y="-292.5" font-family="Helvetica,sans-Serif" font-size="10.00">Token::getStr</text>
</a>
</g>
</g>
<!-- Node4&#45;&gt;Node5 -->
<g id="edge5" class="edge">
<title>Node4&#45;&gt;Node5</title>
<path fill="none" stroke="midnightblue" d="M432.68,-228.54C453.79,-240.42 491.47,-260.99 525,-276 529.42,-277.98 534.11,-279.93 538.78,-281.79"/>
<polygon fill="midnightblue" stroke="midnightblue" points="537.67,-285.11 548.26,-285.44 540.19,-278.58 537.67,-285.11"/>
</g>
<!-- Node4&#45;&gt;Node6 -->
<g id="edge6" class="edge">
<title>Node4&#45;&gt;Node6</title>
<path fill="none" stroke="midnightblue" d="M454.18,-215.49C466.36,-212.79 479.22,-208.1 489,-200 517.79,-176.17 497.5,-149.32 525,-124 526.71,-122.43 528.56,-120.98 530.51,-119.65"/>
<polygon fill="midnightblue" stroke="midnightblue" points="532.57,-122.51 539.55,-114.54 529.12,-116.41 532.57,-122.51"/>
</g>
<!-- Node7 -->
<g id="node7" class="node">
<title>Node7</title>
<g id="a_node7"><a xlink:href="../../db/dc1/class_token.html#a81497d9f05f9c69ba4ab8e9c62a391d1" target="_top" xlink:title=" ">
<polygon fill="none" stroke="black" points="545,-247.5 545,-266.5 608,-266.5 608,-247.5 545,-247.5"/>
<text text-anchor="middle" x="576.5" y="-254.5" font-family="Helvetica,sans-Serif" font-size="10.00">Token::line</text>
</a>
</g>
</g>
<!-- Node4&#45;&gt;Node7 -->
<g id="edge7" class="edge">
<title>Node4&#45;&gt;Node7</title>
<path fill="none" stroke="midnightblue" d="M454.2,-228.1C478.59,-233.91 510.15,-241.43 534.97,-247.35"/>
<polygon fill="midnightblue" stroke="midnightblue" points="534.27,-250.78 544.81,-249.69 535.9,-243.97 534.27,-250.78"/>
</g>
<!-- Node8 -->
<g id="node8" class="node">
<title>Node8</title>
<g id="a_node8"><a xlink:href="../../db/dc1/class_token.html#a715f99ebacdd636c283d15dc8656631c" target="_top" xlink:title=" ">
<polygon fill="none" stroke="black" points="544.5,-209.5 544.5,-228.5 608.5,-228.5 608.5,-209.5 544.5,-209.5"/>
<text text-anchor="middle" x="576.5" y="-216.5" font-family="Helvetica,sans-Serif" font-size="10.00">Token::pos</text>
</a>
</g>
</g>
<!-- Node4&#45;&gt;Node8 -->
<g id="edge8" class="edge">
<title>Node4&#45;&gt;Node8</title>
<path fill="none" stroke="midnightblue" d="M454.2,-219C478.32,-219 509.46,-219 534.15,-219"/>
<polygon fill="midnightblue" stroke="midnightblue" points="534.3,-222.5 544.3,-219 534.3,-215.5 534.3,-222.5"/>
</g>
<!-- Node9 -->
<g id="node9" class="node">
<title>Node9</title>
<g id="a_node9"><a xlink:href="../../db/dc1/class_token.html#a913f22d91c68c0b0f8c2d593b14deca2" target="_top" xlink:title=" ">
<polygon fill="none" stroke="black" points="531,-171.5 531,-190.5 622,-190.5 622,-171.5 531,-171.5"/>
<text text-anchor="middle" x="576.5" y="-178.5" font-family="Helvetica,sans-Serif" font-size="10.00">Token::posInLine</text>
</a>
</g>
</g>
<!-- Node4&#45;&gt;Node9 -->
<g id="edge9" class="edge">
<title>Node4&#45;&gt;Node9</title>
<path fill="none" stroke="midnightblue" d="M454.2,-209.9C475.56,-204.81 502.43,-198.41 525.45,-192.93"/>
<polygon fill="midnightblue" stroke="midnightblue" points="526.47,-196.28 535.38,-190.56 524.84,-189.47 526.47,-196.28"/>
</g>
<!-- Node11&#45;&gt;Node12 -->
<g id="edge13" class="edge">
<title>Node11&#45;&gt;Node12</title>
<path fill="none" stroke="midnightblue" d="M296.3,-53.65C309.57,-55.15 324.21,-56.81 338.52,-58.44"/>
<polygon fill="midnightblue" stroke="midnightblue" points="338.53,-61.96 348.86,-59.61 339.32,-55.01 338.53,-61.96"/>
</g>
<!-- Node13 -->
<g id="node13" class="node">
<title>Node13</title>
<g id="a_node13"><a xlink:href="../../d0/dfe/class_syntax_analyzer.html#a9e41370d8d74fbd2e77648d2071e7dfe" target="_top" xlink:title=" ">
<polygon fill="none" stroke="black" points="341,-19.5 341,-38.5 489,-38.5 489,-19.5 341,-19.5"/>
<text text-anchor="middle" x="415" y="-26.5" font-family="Helvetica,sans-Serif" font-size="10.00">SyntaxAnalyzer::getNextToken</text>
</a>
</g>
</g>
<!-- Node11&#45;&gt;Node13 -->
<g id="edge14" class="edge">
<title>Node11&#45;&gt;Node13</title>
<path fill="none" stroke="midnightblue" d="M296.3,-42.35C307.12,-41.12 318.84,-39.79 330.56,-38.47"/>
<polygon fill="midnightblue" stroke="midnightblue" points="331.29,-41.9 340.83,-37.3 330.5,-34.95 331.29,-41.9"/>
</g>
</g>
</svg>
