<?xml version="1.0" encoding="UTF-8" standalone="no"?>
<!DOCTYPE svg PUBLIC "-//W3C//DTD SVG 1.1//EN"
 "http://www.w3.org/Graphics/SVG/1.1/DTD/svg11.dtd">
<!-- Generated by graphviz version 3.0.0 (20220413.0106)
 -->
<!-- Title: SyntaxAnalyzer::parseTokens Pages: 1 -->
<svg width="2532pt" height="2038pt"
 viewBox="0.00 0.00 2532.00 2038.20" xmlns="http://www.w3.org/2000/svg" xmlns:xlink="http://www.w3.org/1999/xlink">
<g id="graph0" class="graph" transform="scale(1 1) rotate(0) translate(4 2034.2)">
<title>SyntaxAnalyzer::parseTokens</title>
<!-- Node1 -->
<g id="node1" class="node">
<title>Node1</title>
<g id="a_node1"><a xlink:title=" ">
<polygon fill="#bfbfbf" stroke="black" points="0,-82.7 0,-101.7 143,-101.7 143,-82.7 0,-82.7"/>
<text text-anchor="middle" x="71.5" y="-89.7" font-family="Helvetica,sans-Serif" font-size="10.00">SyntaxAnalyzer::parseTokens</text>
</a>
</g>
</g>
<!-- Node2 -->
<g id="node2" class="node">
<title>Node2</title>
<g id="a_node2"><a xlink:href="../../d0/dfe/class_syntax_analyzer.html#a3ae6c7319e61cd669c417f189b098374" target="_top" xlink:title=" ">
<polygon fill="none" stroke="black" points="2384,-424.7 2384,-443.7 2516,-443.7 2516,-424.7 2384,-424.7"/>
<text text-anchor="middle" x="2450" y="-431.7" font-family="Helvetica,sans-Serif" font-size="10.00">SyntaxAnalyzer::getCurTok</text>
</a>
</g>
</g>
<!-- Node1&#45;&gt;Node2 -->
<g id="edge1" class="edge">
<title>Node1&#45;&gt;Node2</title>
<path fill="none" stroke="midnightblue" d="M99.46,-82.57C159.22,-62.12 307.7,-16.2 436,-16.2 436,-16.2 436,-16.2 2106,-16.2 2210.38,-16.2 2259.79,30.59 2340,-36.2 2400.1,-86.24 2436.97,-340.39 2446.52,-414.12"/>
<polygon fill="midnightblue" stroke="midnightblue" points="2443.08,-414.87 2447.81,-424.35 2450.03,-413.99 2443.08,-414.87"/>
</g>
<!-- Node3 -->
<g id="node3" class="node">
<title>Node3</title>
<g id="a_node3"><a xlink:href="../../d0/dfe/class_syntax_analyzer.html#a8b337bd5b4a90cd5bd804a936e408e4b" target="_top" xlink:title=" ">
<polygon fill="none" stroke="black" points="179,-390.7 179,-409.7 331,-409.7 331,-390.7 179,-390.7"/>
<text text-anchor="middle" x="255" y="-397.7" font-family="Helvetica,sans-Serif" font-size="10.00">SyntaxAnalyzer::syntaxProgram</text>
</a>
</g>
</g>
<!-- Node1&#45;&gt;Node3 -->
<g id="edge2" class="edge">
<title>Node1&#45;&gt;Node3</title>
<path fill="none" stroke="midnightblue" d="M78.13,-101.76C103.64,-145.04 208.61,-323.17 243.02,-381.57"/>
<polygon fill="midnightblue" stroke="midnightblue" points="240.16,-383.61 248.25,-390.45 246.19,-380.06 240.16,-383.61"/>
</g>
<!-- Node3&#45;&gt;Node2 -->
<g id="edge10" class="edge">
<title>Node3&#45;&gt;Node2</title>
<path fill="none" stroke="midnightblue" d="M258.99,-390.29C269.17,-358.08 305.23,-254.84 367,-193.2 459.89,-100.5 496.27,-54.2 627.5,-54.2 627.5,-54.2 627.5,-54.2 2106,-54.2 2210.42,-54.2 2258.99,-9.32 2340,-75.2 2394.7,-119.68 2434.83,-345.64 2445.92,-414.35"/>
<polygon fill="midnightblue" stroke="midnightblue" points="2442.53,-415.3 2447.55,-424.63 2449.44,-414.21 2442.53,-415.3"/>
</g>
<!-- Node4 -->
<g id="node4" class="node">
<title>Node4</title>
<g id="a_node4"><a xlink:href="../../d7/d7c/class_a_s_t_factory.html#a8d1d4c9d01ab2e366d1af6bbaeaf7bef" target="_top" xlink:title=" ">
<polygon fill="none" stroke="black" points="2221,-1640.7 2221,-1659.7 2340,-1659.7 2340,-1640.7 2221,-1640.7"/>
<text text-anchor="middle" x="2280.5" y="-1647.7" font-family="Helvetica,sans-Serif" font-size="10.00">ASTFactory::createAST</text>
</a>
</g>
</g>
<!-- Node3&#45;&gt;Node4 -->
<g id="edge3" class="edge">
<title>Node3&#45;&gt;Node4</title>
<path fill="none" stroke="midnightblue" d="M256.09,-409.95C257.5,-542.99 280.89,-1992.2 627.5,-1992.2 627.5,-1992.2 627.5,-1992.2 1736.5,-1992.2 1938.53,-1992.2 2030.18,-2047.99 2185,-1918.2 2262.52,-1853.22 2276.48,-1720.42 2278.97,-1670.11"/>
<polygon fill="midnightblue" stroke="midnightblue" points="2282.48,-1670.06 2279.37,-1659.93 2275.48,-1669.79 2282.48,-1670.06"/>
</g>
<!-- Node8 -->
<g id="node8" class="node">
<title>Node8</title>
<g id="a_node8"><a xlink:href="../../d0/dfe/class_syntax_analyzer.html#ae1d3434e5cc4b4bcd5a3a245814a44f0" target="_top" xlink:title=" ">
<polygon fill="none" stroke="black" points="2230,-804.7 2230,-823.7 2331,-823.7 2331,-804.7 2230,-804.7"/>
<text text-anchor="middle" x="2280.5" y="-811.7" font-family="Helvetica,sans-Serif" font-size="10.00">SyntaxAnalyzer::eat</text>
</a>
</g>
</g>
<!-- Node3&#45;&gt;Node8 -->
<g id="edge7" class="edge">
<title>Node3&#45;&gt;Node8</title>
<path fill="none" stroke="midnightblue" d="M263.74,-390.53C299.79,-346.62 456.79,-168.2 627.5,-168.2 627.5,-168.2 627.5,-168.2 1356,-168.2 1747.53,-168.2 1919.43,-178.51 2185,-466.2 2274.57,-563.23 2280.69,-736.63 2280.07,-794.67"/>
<polygon fill="midnightblue" stroke="midnightblue" points="2276.57,-794.62 2279.88,-804.68 2283.57,-794.75 2276.57,-794.62"/>
</g>
<!-- Node10 -->
<g id="node10" class="node">
<title>Node10</title>
<g id="a_node10"><a xlink:href="../../d0/d11/class_i_token.html#a4fa3435db7157ca7316d4e4aee1df4c0" target="_top" xlink:title="Устанавливает дополнительный тип токена">
<polygon fill="none" stroke="black" points="2229,-1982.7 2229,-2001.7 2332,-2001.7 2332,-1982.7 2229,-1982.7"/>
<text text-anchor="middle" x="2280.5" y="-1989.7" font-family="Helvetica,sans-Serif" font-size="10.00">IToken::setAdvType</text>
</a>
</g>
</g>
<!-- Node3&#45;&gt;Node10 -->
<g id="edge11" class="edge">
<title>Node3&#45;&gt;Node10</title>
<path fill="none" stroke="midnightblue" d="M256,-409.98C256.16,-518.71 260.53,-1502.9 367,-1771.2 427.22,-1922.95 464.24,-2030.2 627.5,-2030.2 627.5,-2030.2 627.5,-2030.2 1915.5,-2030.2 2022.54,-2030.2 2146.33,-2013.74 2218.47,-2002.49"/>
<polygon fill="midnightblue" stroke="midnightblue" points="2219.4,-2005.89 2228.73,-2000.87 2218.31,-1998.97 2219.4,-2005.89"/>
</g>
<!-- Node11 -->
<g id="node11" class="node">
<title>Node11</title>
<g id="a_node11"><a xlink:href="../../d0/dfe/class_syntax_analyzer.html#a2b54bac50e114b68e83c80d869b6ac7c" target="_top" xlink:title=" ">
<polygon fill="none" stroke="black" points="367,-623.7 367,-642.7 507,-642.7 507,-623.7 367,-623.7"/>
<text text-anchor="middle" x="437" y="-630.7" font-family="Helvetica,sans-Serif" font-size="10.00">SyntaxAnalyzer::syntaxBlock</text>
</a>
</g>
</g>
<!-- Node3&#45;&gt;Node11 -->
<g id="edge12" class="edge">
<title>Node3&#45;&gt;Node11</title>
<path fill="none" stroke="midnightblue" d="M263.51,-409.92C291.01,-445.52 386.54,-569.17 422.32,-615.49"/>
<polygon fill="midnightblue" stroke="midnightblue" points="419.58,-617.67 428.46,-623.44 425.12,-613.39 419.58,-617.67"/>
</g>
<!-- Node5 -->
<g id="node5" class="node">
<title>Node5</title>
<g id="a_node5"><a xlink:href="../../d0/d11/class_i_token.html#ac8ca7f7e601ae49ad573167a4e9429cb" target="_top" xlink:title=" ">
<polygon fill="none" stroke="black" points="2398.5,-1564.7 2398.5,-1583.7 2501.5,-1583.7 2501.5,-1564.7 2398.5,-1564.7"/>
<text text-anchor="middle" x="2450" y="-1571.7" font-family="Helvetica,sans-Serif" font-size="10.00">IToken::getAdvType</text>
</a>
</g>
</g>
<!-- Node4&#45;&gt;Node5 -->
<g id="edge4" class="edge">
<title>Node4&#45;&gt;Node5</title>
<path fill="none" stroke="midnightblue" d="M2305.54,-1640.69C2316.16,-1636.4 2328.76,-1631.18 2340,-1626.2 2367.72,-1613.91 2398.9,-1598.92 2420.79,-1588.19"/>
<polygon fill="midnightblue" stroke="midnightblue" points="2422.43,-1591.29 2429.85,-1583.73 2419.34,-1585 2422.43,-1591.29"/>
</g>
<!-- Node6 -->
<g id="node6" class="node">
<title>Node6</title>
<g id="a_node6"><a xlink:href="../../d0/d11/class_i_token.html#ac7f0a800d7a9e8608bab0360c76d735a" target="_top" xlink:title="Получение типа токена">
<polygon fill="none" stroke="black" points="2407,-1488.7 2407,-1507.7 2493,-1507.7 2493,-1488.7 2407,-1488.7"/>
<text text-anchor="middle" x="2450" y="-1495.7" font-family="Helvetica,sans-Serif" font-size="10.00">IToken::getType</text>
</a>
</g>
</g>
<!-- Node4&#45;&gt;Node6 -->
<g id="edge5" class="edge">
<title>Node4&#45;&gt;Node6</title>
<path fill="none" stroke="midnightblue" d="M2316.37,-1640.6C2324.8,-1637.08 2333.3,-1632.38 2340,-1626.2 2366,-1602.2 2353.52,-1582.52 2376,-1555.2 2389.67,-1538.59 2408.98,-1523.78 2424.31,-1513.42"/>
<polygon fill="midnightblue" stroke="midnightblue" points="2426.35,-1516.26 2432.8,-1507.85 2422.52,-1510.41 2426.35,-1516.26"/>
</g>
<!-- Node7 -->
<g id="node7" class="node">
<title>Node7</title>
<g id="a_node7"><a xlink:href="../../db/dc1/class_token.html#a1f07fa2fffeb2f7ab803ef8b424eae8a" target="_top" xlink:title=" ">
<polygon fill="none" stroke="black" points="2413,-1640.7 2413,-1659.7 2487,-1659.7 2487,-1640.7 2413,-1640.7"/>
<text text-anchor="middle" x="2450" y="-1647.7" font-family="Helvetica,sans-Serif" font-size="10.00">Token::setStr</text>
</a>
</g>
</g>
<!-- Node4&#45;&gt;Node7 -->
<g id="edge6" class="edge">
<title>Node4&#45;&gt;Node7</title>
<path fill="none" stroke="midnightblue" d="M2340.08,-1650.2C2360.56,-1650.2 2383.24,-1650.2 2402.58,-1650.2"/>
<polygon fill="midnightblue" stroke="midnightblue" points="2402.66,-1653.7 2412.65,-1650.2 2402.65,-1646.7 2402.66,-1653.7"/>
</g>
<!-- Node8&#45;&gt;Node2 -->
<g id="edge8" class="edge">
<title>Node8&#45;&gt;Node2</title>
<path fill="none" stroke="midnightblue" d="M2285.81,-804.42C2308.12,-753.82 2410.61,-521.3 2440.68,-453.07"/>
<polygon fill="midnightblue" stroke="midnightblue" points="2443.89,-454.47 2444.72,-443.91 2437.48,-451.65 2443.89,-454.47"/>
</g>
<!-- Node9 -->
<g id="node9" class="node">
<title>Node9</title>
<g id="a_node9"><a xlink:href="../../d0/dfe/class_syntax_analyzer.html#a9e41370d8d74fbd2e77648d2071e7dfe" target="_top" xlink:title=" ">
<polygon fill="none" stroke="black" points="2376,-1032.7 2376,-1051.7 2524,-1051.7 2524,-1032.7 2376,-1032.7"/>
<text text-anchor="middle" x="2450" y="-1039.7" font-family="Helvetica,sans-Serif" font-size="10.00">SyntaxAnalyzer::getNextToken</text>
</a>
</g>
</g>
<!-- Node8&#45;&gt;Node9 -->
<g id="edge9" class="edge">
<title>Node8&#45;&gt;Node9</title>
<path fill="none" stroke="midnightblue" d="M2288.48,-823.71C2314.02,-858.47 2402.6,-979.04 2436.06,-1024.59"/>
<polygon fill="midnightblue" stroke="midnightblue" points="2433.24,-1026.67 2441.99,-1032.65 2438.89,-1022.52 2433.24,-1026.67"/>
</g>
<!-- Node11&#45;&gt;Node4 -->
<g id="edge13" class="edge">
<title>Node11&#45;&gt;Node4</title>
<path fill="none" stroke="midnightblue" d="M438.67,-642.79C447.09,-760.2 537.16,-1916.2 819.5,-1916.2 819.5,-1916.2 819.5,-1916.2 1915.5,-1916.2 2036.23,-1916.2 2089.24,-1955.72 2185,-1882.2 2254.65,-1828.73 2273.22,-1715.31 2277.95,-1669.75"/>
<polygon fill="midnightblue" stroke="midnightblue" points="2281.45,-1669.98 2278.88,-1659.7 2274.48,-1669.34 2281.45,-1669.98"/>
</g>
<!-- Node12 -->
<g id="node12" class="node">
<title>Node12</title>
<g id="a_node12"><a xlink:href="../../d0/dfe/class_syntax_analyzer.html#a5770afdc4d32d2c38550f27f9ffd949a" target="_top" xlink:title=" ">
<polygon fill="none" stroke="black" points="543,-623.7 543,-642.7 714,-642.7 714,-623.7 543,-623.7"/>
<text text-anchor="middle" x="628.5" y="-630.7" font-family="Helvetica,sans-Serif" font-size="10.00">SyntaxAnalyzer::syntaxCompoundSt</text>
</a>
</g>
</g>
<!-- Node11&#45;&gt;Node12 -->
<g id="edge14" class="edge">
<title>Node11&#45;&gt;Node12</title>
<path fill="none" stroke="midnightblue" d="M507.22,-633.2C515.58,-633.2 524.22,-633.2 532.87,-633.2"/>
<polygon fill="midnightblue" stroke="midnightblue" points="533,-636.7 543,-633.2 533,-629.7 533,-636.7"/>
</g>
<!-- Node29 -->
<g id="node29" class="node">
<title>Node29</title>
<g id="a_node29"><a xlink:href="../../d0/dfe/class_syntax_analyzer.html#a58a0f927ad0a45e4ce837a98e98330aa" target="_top" xlink:title=" ">
<polygon fill="none" stroke="black" points="1841.5,-1184.7 1841.5,-1203.7 1987.5,-1203.7 1987.5,-1184.7 1841.5,-1184.7"/>
<text text-anchor="middle" x="1914.5" y="-1191.7" font-family="Helvetica,sans-Serif" font-size="10.00">SyntaxAnalyzer::syntaxConsts</text>
</a>
</g>
</g>
<!-- Node11&#45;&gt;Node29 -->
<g id="edge87" class="edge">
<title>Node11&#45;&gt;Node29</title>
<path fill="none" stroke="midnightblue" d="M441.9,-642.71C474.2,-720.07 705.97,-1247.94 1088,-1429.2 1390.88,-1572.9 1798.95,-1282.54 1893.41,-1210.05"/>
<polygon fill="midnightblue" stroke="midnightblue" points="1895.57,-1212.81 1901.33,-1203.92 1891.28,-1207.27 1895.57,-1212.81"/>
</g>
<!-- Node31 -->
<g id="node31" class="node">
<title>Node31</title>
<g id="a_node31"><a xlink:href="../../d0/dfe/class_syntax_analyzer.html#a738f9b4cb7edf93c56af1b6974caad1a" target="_top" xlink:title=" ">
<polygon fill="none" stroke="black" points="1668,-386.7 1668,-405.7 1803,-405.7 1803,-386.7 1668,-386.7"/>
<text text-anchor="middle" x="1735.5" y="-393.7" font-family="Helvetica,sans-Serif" font-size="10.00">SyntaxAnalyzer::syntaxVars</text>
</a>
</g>
</g>
<!-- Node11&#45;&gt;Node31 -->
<g id="edge96" class="edge">
<title>Node11&#45;&gt;Node31</title>
<path fill="none" stroke="midnightblue" d="M441.64,-623.58C465.03,-563.68 600.05,-244.2 819.5,-244.2 819.5,-244.2 819.5,-244.2 990.5,-244.2 1267.64,-244.2 1591.31,-346.7 1698.22,-383.36"/>
<polygon fill="midnightblue" stroke="midnightblue" points="1697.28,-386.74 1707.88,-386.69 1699.57,-380.12 1697.28,-386.74"/>
</g>
<!-- Node12&#45;&gt;Node2 -->
<g id="edge17" class="edge">
<title>Node12&#45;&gt;Node2</title>
<path fill="none" stroke="midnightblue" d="M632.21,-623.48C650.56,-559.92 762.84,-206.2 988.5,-206.2 988.5,-206.2 988.5,-206.2 1166.5,-206.2 1305.79,-206.2 1330.23,-143.58 1467,-117.2 1584.25,-94.58 1615.09,-92.2 1734.5,-92.2 1734.5,-92.2 1734.5,-92.2 2106,-92.2 2210.46,-92.2 2258,-49.49 2340,-114.2 2436.76,-190.57 2448.12,-357.02 2449.08,-414.34"/>
<polygon fill="midnightblue" stroke="midnightblue" points="2445.58,-414.59 2449.15,-424.56 2452.58,-414.54 2445.58,-414.59"/>
</g>
<!-- Node12&#45;&gt;Node4 -->
<g id="edge15" class="edge">
<title>Node12&#45;&gt;Node4</title>
<path fill="none" stroke="midnightblue" d="M633.36,-642.92C677.07,-752.88 1076.92,-1758.52 1088,-1770.2 1175.81,-1862.77 1226.4,-1878.2 1354,-1878.2 1354,-1878.2 1354,-1878.2 1915.5,-1878.2 2036.02,-1878.2 2086.79,-1918.05 2185,-1848.2 2246,-1804.82 2269.04,-1711.36 2276.45,-1670.27"/>
<polygon fill="midnightblue" stroke="midnightblue" points="2279.94,-1670.6 2278.14,-1660.16 2273.04,-1669.44 2279.94,-1670.6"/>
</g>
<!-- Node12&#45;&gt;Node8 -->
<g id="edge16" class="edge">
<title>Node12&#45;&gt;Node8</title>
<path fill="none" stroke="midnightblue" d="M645.29,-623.55C694.29,-594.55 848.83,-510.2 988.5,-510.2 988.5,-510.2 988.5,-510.2 1356,-510.2 1449.36,-510.2 2108.47,-593.73 2185,-647.2 2237.24,-683.7 2264.17,-758.9 2274.45,-794.58"/>
<polygon fill="midnightblue" stroke="midnightblue" points="2271.2,-795.96 2277.22,-804.68 2277.95,-794.11 2271.2,-795.96"/>
</g>
<!-- Node12&#45;&gt;Node10 -->
<g id="edge18" class="edge">
<title>Node12&#45;&gt;Node10</title>
<path fill="none" stroke="midnightblue" d="M631.11,-642.7C651.49,-761.51 863.56,-1954.2 1164.5,-1954.2 1164.5,-1954.2 1164.5,-1954.2 1736.5,-1954.2 1911.92,-1954.2 2118.44,-1974.18 2218.73,-1985.16"/>
<polygon fill="midnightblue" stroke="midnightblue" points="2218.35,-1988.64 2228.68,-1986.26 2219.12,-1981.69 2218.35,-1988.64"/>
</g>
<!-- Node13 -->
<g id="node13" class="node">
<title>Node13</title>
<g id="a_node13"><a xlink:href="../../d0/dfe/class_syntax_analyzer.html#a6df61a82ef9de3c17b78be89a321a087" target="_top" xlink:title=" ">
<polygon fill="none" stroke="black" points="750,-462.7 750,-481.7 891,-481.7 891,-462.7 750,-462.7"/>
<text text-anchor="middle" x="820.5" y="-469.7" font-family="Helvetica,sans-Serif" font-size="10.00">SyntaxAnalyzer::syntaxStList</text>
</a>
</g>
</g>
<!-- Node12&#45;&gt;Node13 -->
<g id="edge19" class="edge">
<title>Node12&#45;&gt;Node13</title>
<path fill="none" stroke="midnightblue" d="M635.52,-623.36C651.24,-598.47 696.08,-532.38 750,-496.2 756.27,-491.99 763.35,-488.45 770.53,-485.49"/>
<polygon fill="midnightblue" stroke="midnightblue" points="772.2,-488.6 780.32,-481.8 769.73,-482.05 772.2,-488.6"/>
</g>
<!-- Node13&#45;&gt;Node2 -->
<g id="edge21" class="edge">
<title>Node13&#45;&gt;Node2</title>
<path fill="none" stroke="midnightblue" d="M838.86,-462.57C898.46,-429.85 1100.93,-321.44 1279,-258.2 1344.62,-234.9 1375.05,-261.66 1431,-220.2 1455.99,-201.69 1440.84,-177.01 1467,-160.2 1567.65,-95.54 1614.87,-130.2 1734.5,-130.2 1734.5,-130.2 1734.5,-130.2 2106,-130.2 2210.5,-130.2 2256.77,-90.01 2340,-153.2 2426.21,-218.65 2444.27,-361.8 2448.02,-414.35"/>
<polygon fill="midnightblue" stroke="midnightblue" points="2444.55,-414.87 2448.65,-424.64 2451.54,-414.45 2444.55,-414.87"/>
</g>
<!-- Node13&#45;&gt;Node8 -->
<g id="edge20" class="edge">
<title>Node13&#45;&gt;Node8</title>
<path fill="none" stroke="midnightblue" d="M891.13,-472.2C960.43,-472.2 1069.82,-472.2 1164.5,-472.2 1164.5,-472.2 1164.5,-472.2 1550,-472.2 1694.4,-472.2 2079.68,-511.4 2185,-610.2 2240.95,-662.68 2266.69,-754.81 2275.63,-794.78"/>
<polygon fill="midnightblue" stroke="midnightblue" points="2272.21,-795.54 2277.71,-804.6 2279.06,-794.09 2272.21,-795.54"/>
</g>
<!-- Node14 -->
<g id="node14" class="node">
<title>Node14</title>
<g id="a_node14"><a xlink:href="../../d0/dfe/class_syntax_analyzer.html#a7f54bde730006b1b863290415809ab4e" target="_top" xlink:title=" ">
<polygon fill="none" stroke="black" points="927,-747.7 927,-766.7 1052,-766.7 1052,-747.7 927,-747.7"/>
<text text-anchor="middle" x="989.5" y="-754.7" font-family="Helvetica,sans-Serif" font-size="10.00">SyntaxAnalyzer::syntaxSt</text>
</a>
</g>
</g>
<!-- Node13&#45;&gt;Node14 -->
<g id="edge22" class="edge">
<title>Node13&#45;&gt;Node14</title>
<path fill="none" stroke="midnightblue" d="M827.25,-482.01C851.49,-523.38 945.58,-683.95 977.69,-738.75"/>
<polygon fill="midnightblue" stroke="midnightblue" points="974.7,-740.57 982.78,-747.43 980.74,-737.03 974.7,-740.57"/>
</g>
<!-- Node14&#45;&gt;Node2 -->
<g id="edge24" class="edge">
<title>Node14&#45;&gt;Node2</title>
<path fill="none" stroke="midnightblue" d="M999.02,-747.5C1062.46,-675.32 1458.87,-224.44 1467,-220.2 1644.16,-127.86 1713.71,-168.2 1913.5,-168.2 1913.5,-168.2 1913.5,-168.2 2106,-168.2 2210.55,-168.2 2255.21,-131.04 2340,-192.2 2415.78,-246.86 2439.9,-366.77 2446.65,-414.26"/>
<polygon fill="midnightblue" stroke="midnightblue" points="2443.22,-414.99 2447.99,-424.45 2450.16,-414.08 2443.22,-414.99"/>
</g>
<!-- Node14&#45;&gt;Node8 -->
<g id="edge23" class="edge">
<title>Node14&#45;&gt;Node8</title>
<path fill="none" stroke="midnightblue" d="M1013.08,-747.54C1032.67,-739.37 1061.91,-727.67 1088,-719.2 1171.46,-692.11 1192.33,-682.94 1279,-669.2 1590.71,-619.78 1674.23,-634.3 1989,-657.2 2076.29,-663.55 2109.64,-631.69 2185,-676.2 2231.3,-703.54 2260.06,-763.53 2272.43,-794.63"/>
<polygon fill="midnightblue" stroke="midnightblue" points="2269.3,-796.23 2276.13,-804.33 2275.84,-793.74 2269.3,-796.23"/>
</g>
<!-- Node14&#45;&gt;Node12 -->
<g id="edge72" class="edge">
<title>Node14&#45;&gt;Node12</title>
<path fill="none" stroke="midnightblue" d="M960.83,-747.64C896.92,-725.57 738.97,-671.01 666.69,-646.04"/>
<polygon fill="midnightblue" stroke="midnightblue" points="667.67,-642.68 657.07,-642.72 665.38,-649.3 667.67,-642.68"/>
</g>
<!-- Node15 -->
<g id="node15" class="node">
<title>Node15</title>
<g id="a_node15"><a xlink:href="../../d0/dfe/class_syntax_analyzer.html#af0905389742c4f842207bb2c073afbfa" target="_top" xlink:title=" ">
<polygon fill="none" stroke="black" points="2036.5,-1526.7 2036.5,-1545.7 2173.5,-1545.7 2173.5,-1526.7 2036.5,-1526.7"/>
<text text-anchor="middle" x="2105" y="-1533.7" font-family="Helvetica,sans-Serif" font-size="10.00">SyntaxAnalyzer::lookFoward</text>
</a>
</g>
</g>
<!-- Node14&#45;&gt;Node15 -->
<g id="edge25" class="edge">
<title>Node14&#45;&gt;Node15</title>
<path fill="none" stroke="midnightblue" d="M991.99,-766.72C1007.63,-864.82 1145.13,-1688.2 1354,-1688.2 1354,-1688.2 1354,-1688.2 1736.5,-1688.2 1878.13,-1688.2 2028.75,-1590.6 2083.01,-1551.82"/>
<polygon fill="midnightblue" stroke="midnightblue" points="2085.4,-1554.41 2091.44,-1545.71 2081.29,-1548.74 2085.4,-1554.41"/>
</g>
<!-- Node17 -->
<g id="node17" class="node">
<title>Node17</title>
<g id="a_node17"><a xlink:href="../../d0/dfe/class_syntax_analyzer.html#a31fc5887c158652feb946f89270b4b36" target="_top" xlink:title=" ">
<polygon fill="none" stroke="black" points="1088,-1165.7 1088,-1184.7 1243,-1184.7 1243,-1165.7 1088,-1165.7"/>
<text text-anchor="middle" x="1165.5" y="-1172.7" font-family="Helvetica,sans-Serif" font-size="10.00">SyntaxAnalyzer::syntaxAssignSt</text>
</a>
</g>
</g>
<!-- Node14&#45;&gt;Node17 -->
<g id="edge27" class="edge">
<title>Node14&#45;&gt;Node17</title>
<path fill="none" stroke="midnightblue" d="M994.46,-766.72C1016.69,-820.11 1126,-1082.7 1156.55,-1156.11"/>
<polygon fill="midnightblue" stroke="midnightblue" points="1153.39,-1157.63 1160.47,-1165.52 1159.86,-1154.94 1153.39,-1157.63"/>
</g>
<!-- Node24 -->
<g id="node24" class="node">
<title>Node24</title>
<g id="a_node24"><a xlink:href="../../d0/dfe/class_syntax_analyzer.html#a2db43946bee3e973ce1cf293b262e271" target="_top" xlink:title=" ">
<polygon fill="none" stroke="black" points="2034.5,-804.7 2034.5,-823.7 2175.5,-823.7 2175.5,-804.7 2034.5,-804.7"/>
<text text-anchor="middle" x="2105" y="-811.7" font-family="Helvetica,sans-Serif" font-size="10.00">SyntaxAnalyzer::syntaxCallSt</text>
</a>
</g>
</g>
<!-- Node14&#45;&gt;Node24 -->
<g id="edge71" class="edge">
<title>Node14&#45;&gt;Node24</title>
<path fill="none" stroke="midnightblue" d="M1052.19,-762.39C1124.46,-768.02 1247.83,-776.2 1354,-776.2 1354,-776.2 1354,-776.2 1550,-776.2 1573.26,-776.2 1876.31,-797.8 2024.07,-808.43"/>
<polygon fill="midnightblue" stroke="midnightblue" points="2024.21,-811.95 2034.43,-809.17 2024.71,-804.96 2024.21,-811.95"/>
</g>
<!-- Node26 -->
<g id="node26" class="node">
<title>Node26</title>
<g id="a_node26"><a xlink:href="../../d0/dfe/class_syntax_analyzer.html#a67bc7e3cfb57c9d4d25d60913aef3a87" target="_top" xlink:title=" ">
<polygon fill="none" stroke="black" points="1279,-1830.7 1279,-1849.7 1431,-1849.7 1431,-1830.7 1279,-1830.7"/>
<text text-anchor="middle" x="1355" y="-1837.7" font-family="Helvetica,sans-Serif" font-size="10.00">SyntaxAnalyzer::syntaxEmptySt</text>
</a>
</g>
</g>
<!-- Node14&#45;&gt;Node26 -->
<g id="edge73" class="edge">
<title>Node14&#45;&gt;Node26</title>
<path fill="none" stroke="midnightblue" d="M990.33,-766.95C988.94,-856.47 982.01,-1536.03 1088,-1702.2 1134.6,-1775.27 1233.19,-1811.68 1296.38,-1828.2"/>
<polygon fill="midnightblue" stroke="midnightblue" points="1295.65,-1831.62 1306.2,-1830.68 1297.36,-1824.84 1295.65,-1831.62"/>
</g>
<!-- Node27 -->
<g id="node27" class="node">
<title>Node27</title>
<g id="a_node27"><a xlink:href="../../d0/dfe/class_syntax_analyzer.html#a779e006875d35926152773989f4b1e5a" target="_top" xlink:title=" ">
<polygon fill="none" stroke="black" points="1100,-728.7 1100,-747.7 1231,-747.7 1231,-728.7 1100,-728.7"/>
<text text-anchor="middle" x="1165.5" y="-735.7" font-family="Helvetica,sans-Serif" font-size="10.00">SyntaxAnalyzer::syntaxIfSt</text>
</a>
</g>
</g>
<!-- Node14&#45;&gt;Node27 -->
<g id="edge75" class="edge">
<title>Node14&#45;&gt;Node27</title>
<path fill="none" stroke="midnightblue" d="M1026.55,-747.67C1044.85,-744.73 1067.8,-741.85 1089.69,-739.68"/>
<polygon fill="midnightblue" stroke="midnightblue" points="1090.03,-743.16 1099.65,-738.73 1089.37,-736.19 1090.03,-743.16"/>
</g>
<!-- Node28 -->
<g id="node28" class="node">
<title>Node28</title>
<g id="a_node28"><a xlink:href="../../d0/dfe/class_syntax_analyzer.html#a64dad7f0b22b08d182483469d3a1aa79" target="_top" xlink:title=" ">
<polygon fill="none" stroke="black" points="1091,-804.7 1091,-823.7 1240,-823.7 1240,-804.7 1091,-804.7"/>
<text text-anchor="middle" x="1165.5" y="-811.7" font-family="Helvetica,sans-Serif" font-size="10.00">SyntaxAnalyzer::syntaxWhileSt</text>
</a>
</g>
</g>
<!-- Node14&#45;&gt;Node28 -->
<g id="edge81" class="edge">
<title>Node14&#45;&gt;Node28</title>
<path fill="none" stroke="midnightblue" d="M1043.56,-766.73C1057.96,-771.27 1073.56,-776.49 1088,-781.2 1107,-787.39 1128.74,-794.19 1144.18,-800.55"/>
<polygon fill="midnightblue" stroke="midnightblue" points="1142.77,-803.75 1153.33,-804.66 1145.64,-797.37 1142.77,-803.75"/>
</g>
<!-- Node16 -->
<g id="node16" class="node">
<title>Node16</title>
<g id="a_node16"><a xlink:href="../../d1/d34/class_list.html#a49c179636e084dfbf7a52acd46acaf01" target="_top" xlink:title=" ">
<polygon fill="none" stroke="black" points="2253,-1526.7 2253,-1545.7 2308,-1545.7 2308,-1526.7 2253,-1526.7"/>
<text text-anchor="middle" x="2280.5" y="-1533.7" font-family="Helvetica,sans-Serif" font-size="10.00">List::size</text>
</a>
</g>
</g>
<!-- Node15&#45;&gt;Node16 -->
<g id="edge26" class="edge">
<title>Node15&#45;&gt;Node16</title>
<path fill="none" stroke="midnightblue" d="M2173.58,-1536.2C2196.97,-1536.2 2222.31,-1536.2 2242.35,-1536.2"/>
<polygon fill="midnightblue" stroke="midnightblue" points="2242.59,-1539.7 2252.59,-1536.2 2242.59,-1532.7 2242.59,-1539.7"/>
</g>
<!-- Node17&#45;&gt;Node2 -->
<g id="edge30" class="edge">
<title>Node17&#45;&gt;Node2</title>
<path fill="none" stroke="midnightblue" d="M1168.62,-1165.55C1177.05,-1128.82 1211.12,-995.51 1279,-909.2 1470.89,-665.21 1558.61,-624.23 1840,-493.2 2017.08,-410.75 2253.99,-416.31 2373.41,-425.98"/>
<polygon fill="midnightblue" stroke="midnightblue" points="2373.29,-429.48 2383.55,-426.83 2373.88,-422.51 2373.29,-429.48"/>
</g>
<!-- Node17&#45;&gt;Node4 -->
<g id="edge28" class="edge">
<title>Node17&#45;&gt;Node4</title>
<path fill="none" stroke="midnightblue" d="M1167.6,-1184.79C1174.79,-1246.19 1216.79,-1584.29 1279,-1664.2 1361.54,-1770.23 1413.63,-1802.2 1548,-1802.2 1548,-1802.2 1548,-1802.2 1915.5,-1802.2 2035.75,-1802.2 2080.16,-1837.1 2185,-1778.2 2229.18,-1753.38 2258.57,-1698.39 2271.68,-1669.23"/>
<polygon fill="midnightblue" stroke="midnightblue" points="2275.02,-1670.32 2275.77,-1659.75 2268.59,-1667.55 2275.02,-1670.32"/>
</g>
<!-- Node17&#45;&gt;Node8 -->
<g id="edge29" class="edge">
<title>Node17&#45;&gt;Node8</title>
<path fill="none" stroke="midnightblue" d="M1243.22,-1176.4C1395.6,-1175.51 1742.89,-1156.9 1989,-1017.2 2008.95,-1005.87 2005.05,-991.52 2025,-980.2 2088.57,-944.13 2131.41,-991.9 2185,-942.2 2223.65,-906.36 2182.67,-865.39 2221,-829.2 2221.17,-829.04 2221.33,-828.89 2221.5,-828.73"/>
<polygon fill="midnightblue" stroke="midnightblue" points="2223.78,-831.41 2229.95,-822.8 2219.75,-825.69 2223.78,-831.41"/>
</g>
<!-- Node18 -->
<g id="node18" class="node">
<title>Node18</title>
<g id="a_node18"><a xlink:href="../../d0/dfe/class_syntax_analyzer.html#ae8d09db1b25ec882248aeed978c13a4d" target="_top" xlink:title=" ">
<polygon fill="none" stroke="black" points="1288,-918.7 1288,-937.7 1422,-937.7 1422,-918.7 1288,-918.7"/>
<text text-anchor="middle" x="1355" y="-925.7" font-family="Helvetica,sans-Serif" font-size="10.00">SyntaxAnalyzer::syntaxExpr</text>
</a>
</g>
</g>
<!-- Node17&#45;&gt;Node18 -->
<g id="edge31" class="edge">
<title>Node17&#45;&gt;Node18</title>
<path fill="none" stroke="midnightblue" d="M1173.85,-1165.52C1202.09,-1128.32 1303.85,-994.27 1340.62,-945.82"/>
<polygon fill="midnightblue" stroke="midnightblue" points="1343.44,-947.9 1346.7,-937.82 1337.87,-943.66 1343.44,-947.9"/>
</g>
<!-- Node25 -->
<g id="node25" class="node">
<title>Node25</title>
<g id="a_node25"><a xlink:href="../../d0/dfe/class_syntax_analyzer.html#a94c8a6ab5c0e53cae22edb1a840a27ce" target="_top" xlink:title=" ">
<polygon fill="none" stroke="black" points="2030,-1146.7 2030,-1165.7 2180,-1165.7 2180,-1146.7 2030,-1146.7"/>
<text text-anchor="middle" x="2105" y="-1153.7" font-family="Helvetica,sans-Serif" font-size="10.00">SyntaxAnalyzer::syntaxVariable</text>
</a>
</g>
</g>
<!-- Node17&#45;&gt;Node25 -->
<g id="edge70" class="edge">
<title>Node17&#45;&gt;Node25</title>
<path fill="none" stroke="midnightblue" d="M1167.1,-1184.87C1170.17,-1224.62 1187.69,-1376.13 1279,-1436.2 1409.7,-1522.19 1476.89,-1463.12 1631,-1436.2 1797.6,-1407.1 1874.26,-1431.45 1989,-1307.2 2030.25,-1262.52 1981.36,-1217.54 2025,-1175.2 2026.48,-1173.76 2028.05,-1172.43 2029.69,-1171.19"/>
<polygon fill="midnightblue" stroke="midnightblue" points="2031.8,-1174 2038.45,-1165.75 2028.11,-1168.05 2031.8,-1174"/>
</g>
<!-- Node18&#45;&gt;Node2 -->
<g id="edge34" class="edge">
<title>Node18&#45;&gt;Node2</title>
<path fill="none" stroke="midnightblue" d="M1359.93,-918.69C1387.95,-851.4 1559.29,-447.82 1667,-377.2 1917.22,-213.15 2055.75,-266.77 2340,-360.2 2376.29,-372.13 2411.61,-399.98 2431.79,-417.91"/>
<polygon fill="midnightblue" stroke="midnightblue" points="2429.48,-420.54 2439.23,-424.69 2434.2,-415.36 2429.48,-420.54"/>
</g>
<!-- Node18&#45;&gt;Node4 -->
<g id="edge32" class="edge">
<title>Node18&#45;&gt;Node4</title>
<path fill="none" stroke="midnightblue" d="M1355.95,-937.74C1356.13,-989.24 1362.58,-1237.58 1467,-1398.2 1613.95,-1624.25 1758.23,-1597.15 2025,-1636.2 2087.5,-1645.35 2159.42,-1648.65 2210.83,-1649.78"/>
<polygon fill="midnightblue" stroke="midnightblue" points="2210.76,-1653.28 2220.83,-1649.97 2210.9,-1646.28 2210.76,-1653.28"/>
</g>
<!-- Node18&#45;&gt;Node6 -->
<g id="edge35" class="edge">
<title>Node18&#45;&gt;Node6</title>
<path fill="none" stroke="midnightblue" d="M1361.91,-938.12C1404.45,-1008.44 1672.56,-1432.22 2025,-1555.2 2157.18,-1601.32 2204.04,-1588.6 2340,-1555.2 2372.52,-1547.21 2406.09,-1527.63 2427.23,-1513.65"/>
<polygon fill="midnightblue" stroke="midnightblue" points="2429.44,-1516.37 2435.75,-1507.86 2425.51,-1510.58 2429.44,-1516.37"/>
</g>
<!-- Node18&#45;&gt;Node8 -->
<g id="edge33" class="edge">
<title>Node18&#45;&gt;Node8</title>
<path fill="none" stroke="midnightblue" d="M1422.08,-922.54C1562.85,-910.05 1902.56,-877.7 2185,-833.2 2198.3,-831.1 2212.58,-828.45 2225.91,-825.79"/>
<polygon fill="midnightblue" stroke="midnightblue" points="2226.78,-829.19 2235.88,-823.77 2225.39,-822.33 2226.78,-829.19"/>
</g>
<!-- Node19 -->
<g id="node19" class="node">
<title>Node19</title>
<g id="a_node19"><a xlink:href="../../df/d3f/_syntax_8hpp.html#ae7d62ca130413d4c96863327c1af81a4" target="_top" xlink:title="Возвращает истину, если value находится среди значений cont.">
<polygon fill="none" stroke="black" points="1898.5,-918.7 1898.5,-937.7 1930.5,-937.7 1930.5,-918.7 1898.5,-918.7"/>
<text text-anchor="middle" x="1914.5" y="-925.7" font-family="Helvetica,sans-Serif" font-size="10.00">isIn</text>
</a>
</g>
</g>
<!-- Node18&#45;&gt;Node19 -->
<g id="edge36" class="edge">
<title>Node18&#45;&gt;Node19</title>
<path fill="none" stroke="midnightblue" d="M1422.14,-928.2C1545.68,-928.2 1806.39,-928.2 1888.31,-928.2"/>
<polygon fill="midnightblue" stroke="midnightblue" points="1888.44,-931.7 1898.44,-928.2 1888.44,-924.7 1888.44,-931.7"/>
</g>
<!-- Node20 -->
<g id="node20" class="node">
<title>Node20</title>
<g id="a_node20"><a xlink:href="../../d0/dfe/class_syntax_analyzer.html#a3dfb6634a4bcdc61da5b1bafd1f3d136" target="_top" xlink:title=" ">
<polygon fill="none" stroke="black" points="1467,-994.7 1467,-1013.7 1631,-1013.7 1631,-994.7 1467,-994.7"/>
<text text-anchor="middle" x="1549" y="-1001.7" font-family="Helvetica,sans-Serif" font-size="10.00">SyntaxAnalyzer::syntaxSimpleExpr</text>
</a>
</g>
</g>
<!-- Node18&#45;&gt;Node20 -->
<g id="edge37" class="edge">
<title>Node18&#45;&gt;Node20</title>
<path fill="none" stroke="midnightblue" d="M1380.32,-937.83C1414.22,-951.25 1475.83,-975.63 1514.19,-990.82"/>
<polygon fill="midnightblue" stroke="midnightblue" points="1513.29,-994.23 1523.88,-994.65 1515.87,-987.72 1513.29,-994.23"/>
</g>
<!-- Node20&#45;&gt;Node2 -->
<g id="edge40" class="edge">
<title>Node20&#45;&gt;Node2</title>
<path fill="none" stroke="midnightblue" d="M1554.92,-994.61C1579.77,-946.92 1695.89,-732.4 1840,-600.2 1974.35,-476.96 2040.38,-472.96 2221,-448.2 2271.67,-441.26 2329.14,-437.75 2373.71,-435.99"/>
<polygon fill="midnightblue" stroke="midnightblue" points="2374.02,-439.48 2383.88,-435.61 2373.76,-432.49 2374.02,-439.48"/>
</g>
<!-- Node20&#45;&gt;Node4 -->
<g id="edge38" class="edge">
<title>Node20&#45;&gt;Node4</title>
<path fill="none" stroke="midnightblue" d="M1552.12,-1013.9C1561.19,-1054.11 1599.39,-1210.82 1667,-1322.2 1726.26,-1419.83 1749.01,-1443.18 1840,-1512.2 1913.32,-1567.82 1937.66,-1576.22 2025,-1605.2 2086.18,-1625.5 2158.85,-1637.19 2210.84,-1643.54"/>
<polygon fill="midnightblue" stroke="midnightblue" points="2210.61,-1647.04 2220.96,-1644.74 2211.44,-1640.08 2210.61,-1647.04"/>
</g>
<!-- Node20&#45;&gt;Node6 -->
<g id="edge41" class="edge">
<title>Node20&#45;&gt;Node6</title>
<path fill="none" stroke="midnightblue" d="M1557.5,-1013.9C1599.32,-1067.95 1803.22,-1330.41 1840,-1357.2 2013.97,-1483.9 2283.86,-1498.91 2396.66,-1499.25"/>
<polygon fill="midnightblue" stroke="midnightblue" points="2396.76,-1502.75 2406.76,-1499.24 2396.76,-1495.75 2396.76,-1502.75"/>
</g>
<!-- Node20&#45;&gt;Node8 -->
<g id="edge39" class="edge">
<title>Node20&#45;&gt;Node8</title>
<path fill="none" stroke="midnightblue" d="M1631.13,-998.25C1681.09,-994.15 1746.4,-988.05 1804,-980.2 1886.76,-968.93 1916.73,-989.07 1989,-947.2 2010.57,-934.7 2003.8,-917.3 2025,-904.2 2087.18,-865.78 2121.43,-902.27 2185,-866.2 2204.95,-854.88 2201.15,-840.7 2221,-829.2 2221.79,-828.74 2222.6,-828.29 2223.42,-827.86"/>
<polygon fill="midnightblue" stroke="midnightblue" points="2224.91,-831.03 2232.59,-823.73 2222.03,-824.65 2224.91,-831.03"/>
</g>
<!-- Node20&#45;&gt;Node19 -->
<g id="edge42" class="edge">
<title>Node20&#45;&gt;Node19</title>
<path fill="none" stroke="midnightblue" d="M1595.67,-994.65C1673.2,-978.44 1828.02,-946.07 1888.49,-933.43"/>
<polygon fill="midnightblue" stroke="midnightblue" points="1889.25,-936.85 1898.32,-931.37 1887.82,-929.99 1889.25,-936.85"/>
</g>
<!-- Node21 -->
<g id="node21" class="node">
<title>Node21</title>
<g id="a_node21"><a xlink:href="../../d0/dfe/class_syntax_analyzer.html#a1e9b913cc8c2861927d7c05d10f1822d" target="_top" xlink:title=" ">
<polygon fill="none" stroke="black" points="1667,-1032.7 1667,-1051.7 1804,-1051.7 1804,-1032.7 1667,-1032.7"/>
<text text-anchor="middle" x="1735.5" y="-1039.7" font-family="Helvetica,sans-Serif" font-size="10.00">SyntaxAnalyzer::syntaxTerm</text>
</a>
</g>
</g>
<!-- Node20&#45;&gt;Node21 -->
<g id="edge43" class="edge">
<title>Node20&#45;&gt;Node21</title>
<path fill="none" stroke="midnightblue" d="M1596.56,-1013.79C1621.34,-1018.89 1652.02,-1025.21 1678.14,-1030.59"/>
<polygon fill="midnightblue" stroke="midnightblue" points="1677.78,-1034.09 1688.28,-1032.68 1679.19,-1027.23 1677.78,-1034.09"/>
</g>
<!-- Node21&#45;&gt;Node2 -->
<g id="edge46" class="edge">
<title>Node21&#45;&gt;Node2</title>
<path fill="none" stroke="midnightblue" d="M1740.47,-1032.34C1751.15,-1005.7 1781.24,-930.01 1804,-866.2 1821.14,-818.15 1813.3,-800.67 1840,-757.2 1855.26,-732.36 2000.92,-587.63 2025,-571.2 2133.45,-497.22 2284.45,-461.12 2373.92,-445.19"/>
<polygon fill="midnightblue" stroke="midnightblue" points="2374.73,-448.6 2383.99,-443.43 2373.53,-441.7 2374.73,-448.6"/>
</g>
<!-- Node21&#45;&gt;Node4 -->
<g id="edge44" class="edge">
<title>Node21&#45;&gt;Node4</title>
<path fill="none" stroke="midnightblue" d="M1737.27,-1051.83C1741.16,-1095.39 1761.59,-1277.21 1840,-1398.2 1932.53,-1540.99 2136.19,-1611.88 2230.18,-1637.99"/>
<polygon fill="midnightblue" stroke="midnightblue" points="2229.44,-1641.42 2240.01,-1640.67 2231.28,-1634.66 2229.44,-1641.42"/>
</g>
<!-- Node21&#45;&gt;Node6 -->
<g id="edge47" class="edge">
<title>Node21&#45;&gt;Node6</title>
<path fill="none" stroke="midnightblue" d="M1737.33,-1051.79C1741.14,-1089.99 1760.4,-1232.87 1840,-1307.2 1923.17,-1384.87 2264.92,-1460.86 2396.77,-1487.87"/>
<polygon fill="midnightblue" stroke="midnightblue" points="2396.15,-1491.31 2406.64,-1489.88 2397.54,-1484.45 2396.15,-1491.31"/>
</g>
<!-- Node21&#45;&gt;Node8 -->
<g id="edge45" class="edge">
<title>Node21&#45;&gt;Node8</title>
<path fill="none" stroke="midnightblue" d="M1804.25,-1033.47C1856.66,-1024.88 1929.99,-1008.77 1989,-980.2 2007.24,-971.37 2006.99,-961.49 2025,-952.2 2090.98,-918.16 2120.8,-941.49 2185,-904.2 2218.08,-884.98 2248.64,-851.95 2265.61,-831.7"/>
<polygon fill="midnightblue" stroke="midnightblue" points="2268.39,-833.83 2272.02,-823.88 2262.97,-829.4 2268.39,-833.83"/>
</g>
<!-- Node21&#45;&gt;Node19 -->
<g id="edge48" class="edge">
<title>Node21&#45;&gt;Node19</title>
<path fill="none" stroke="midnightblue" d="M1751.29,-1032.68C1781.92,-1012.94 1852.57,-967.44 1889.71,-943.52"/>
<polygon fill="midnightblue" stroke="midnightblue" points="1891.87,-946.3 1898.38,-937.94 1888.08,-940.41 1891.87,-946.3"/>
</g>
<!-- Node22 -->
<g id="node22" class="node">
<title>Node22</title>
<g id="a_node22"><a xlink:href="../../d0/dfe/class_syntax_analyzer.html#a3af9b5161a2cef6fdd26b0bb60334ac4" target="_top" xlink:title=" ">
<polygon fill="none" stroke="black" points="1843,-1260.7 1843,-1279.7 1986,-1279.7 1986,-1260.7 1843,-1260.7"/>
<text text-anchor="middle" x="1914.5" y="-1267.7" font-family="Helvetica,sans-Serif" font-size="10.00">SyntaxAnalyzer::syntaxFactor</text>
</a>
</g>
</g>
<!-- Node21&#45;&gt;Node22 -->
<g id="edge49" class="edge">
<title>Node21&#45;&gt;Node22</title>
<path fill="none" stroke="midnightblue" d="M1740.81,-1051.9C1753.3,-1079.34 1791.76,-1159.04 1840,-1213.2 1854.55,-1229.53 1874.27,-1244.53 1889.62,-1255.04"/>
<polygon fill="midnightblue" stroke="midnightblue" points="1887.83,-1258.05 1898.09,-1260.69 1891.71,-1252.23 1887.83,-1258.05"/>
</g>
<!-- Node22&#45;&gt;Node2 -->
<g id="edge56" class="edge">
<title>Node22&#45;&gt;Node2</title>
<path fill="none" stroke="midnightblue" d="M1931.93,-1260.66C1948.15,-1250.57 1972.82,-1233.34 1989,-1213.2 2012.41,-1184.06 1997.63,-1162.65 2025,-1137.2 2080.85,-1085.27 2120.9,-1116.52 2185,-1075.2 2266.09,-1022.92 2293.13,-1007.54 2340,-923.2 2431.27,-758.98 2446.12,-523.75 2448.53,-454.25"/>
<polygon fill="midnightblue" stroke="midnightblue" points="2452.04,-454 2448.84,-443.9 2445.04,-453.79 2452.04,-454"/>
</g>
<!-- Node22&#45;&gt;Node4 -->
<g id="edge50" class="edge">
<title>Node22&#45;&gt;Node4</title>
<path fill="none" stroke="midnightblue" d="M1922.54,-1279.83C1939.04,-1302.05 1982.04,-1358.08 2025,-1398.2 2089.77,-1458.69 2123.02,-1453.86 2185,-1517.2 2220.64,-1553.62 2252.86,-1604.54 2268.86,-1631.59"/>
<polygon fill="midnightblue" stroke="midnightblue" points="2265.94,-1633.53 2274,-1640.4 2271.99,-1630 2265.94,-1633.53"/>
</g>
<!-- Node22&#45;&gt;Node5 -->
<g id="edge55" class="edge">
<title>Node22&#45;&gt;Node5</title>
<path fill="none" stroke="midnightblue" d="M1934.36,-1279.83C1956.08,-1290.84 1992.9,-1309.27 2025,-1324.2 2095.38,-1356.93 2117.09,-1356.62 2185,-1394.2 2280.59,-1447.09 2385.34,-1525.13 2428.59,-1558.32"/>
<polygon fill="midnightblue" stroke="midnightblue" points="2426.57,-1561.19 2436.63,-1564.52 2430.85,-1555.64 2426.57,-1561.19"/>
</g>
<!-- Node22&#45;&gt;Node6 -->
<g id="edge57" class="edge">
<title>Node22&#45;&gt;Node6</title>
<path fill="none" stroke="midnightblue" d="M1974.43,-1279.72C2029.78,-1289.61 2114.42,-1307.15 2185,-1332.2 2257.31,-1357.86 2275.53,-1366.6 2340,-1408.2 2374.77,-1430.64 2411.02,-1462.56 2431.72,-1481.74"/>
<polygon fill="midnightblue" stroke="midnightblue" points="2429.41,-1484.37 2439.1,-1488.66 2434.2,-1479.26 2429.41,-1484.37"/>
</g>
<!-- Node22&#45;&gt;Node8 -->
<g id="edge51" class="edge">
<title>Node22&#45;&gt;Node8</title>
<path fill="none" stroke="midnightblue" d="M1933.09,-1260.7C1949.73,-1250.87 1974.28,-1234.04 1989,-1213.2 2018.44,-1171.53 1992.2,-1143.28 2025,-1104.2 2076.9,-1042.36 2129.63,-1076.96 2185,-1018.2 2237.25,-962.75 2264.76,-873.26 2274.88,-833.88"/>
<polygon fill="midnightblue" stroke="midnightblue" points="2278.33,-834.51 2277.33,-823.96 2271.53,-832.83 2278.33,-834.51"/>
</g>
<!-- Node22&#45;&gt;Node15 -->
<g id="edge58" class="edge">
<title>Node22&#45;&gt;Node15</title>
<path fill="none" stroke="midnightblue" d="M1921.4,-1279.75C1937.38,-1305.49 1983.14,-1378.28 2025,-1436.2 2046.45,-1465.88 2073.19,-1498.98 2089.41,-1518.67"/>
<polygon fill="midnightblue" stroke="midnightblue" points="2086.79,-1521.01 2095.87,-1526.48 2092.19,-1516.54 2086.79,-1521.01"/>
</g>
<!-- Node22&#45;&gt;Node18 -->
<g id="edge64" class="edge">
<title>Node22&#45;&gt;Node18</title>
<path fill="none" stroke="midnightblue" d="M1892.6,-1260.52C1827.21,-1229.86 1621.67,-1130.51 1467,-1023.2 1431.52,-998.58 1394.14,-964.69 1373.08,-944.75"/>
<polygon fill="midnightblue" stroke="midnightblue" points="1375.49,-942.21 1365.84,-937.84 1370.65,-947.28 1375.49,-942.21"/>
</g>
<!-- Node22&#45;&gt;Node22 -->
<g id="edge65" class="edge">
<title>Node22&#45;&gt;Node22</title>
<path fill="none" stroke="midnightblue" d="M1887.07,-1279.96C1873.72,-1288.77 1882.86,-1298.2 1914.5,-1298.2 1936.25,-1298.2 1947.37,-1293.74 1947.86,-1288.09"/>
<polygon fill="midnightblue" stroke="midnightblue" points="1950.65,-1285.98 1941.93,-1279.96 1944.99,-1290.1 1950.65,-1285.98"/>
</g>
<!-- Node23 -->
<g id="node23" class="node">
<title>Node23</title>
<g id="a_node23"><a xlink:href="../../d0/dfe/class_syntax_analyzer.html#a9952c4a2db0a1382b9c94f40dd535fae" target="_top" xlink:title=" ">
<polygon fill="none" stroke="black" points="2221.5,-1260.7 2221.5,-1279.7 2339.5,-1279.7 2339.5,-1260.7 2221.5,-1260.7"/>
<text text-anchor="middle" x="2280.5" y="-1267.7" font-family="Helvetica,sans-Serif" font-size="10.00">SyntaxAnalyzer::eatAdv</text>
</a>
</g>
</g>
<!-- Node22&#45;&gt;Node23 -->
<g id="edge52" class="edge">
<title>Node22&#45;&gt;Node23</title>
<path fill="none" stroke="midnightblue" d="M1986.11,-1270.2C2051.17,-1270.2 2147.08,-1270.2 2211.34,-1270.2"/>
<polygon fill="midnightblue" stroke="midnightblue" points="2211.37,-1273.7 2221.37,-1270.2 2211.37,-1266.7 2211.37,-1273.7"/>
</g>
<!-- Node22&#45;&gt;Node24 -->
<g id="edge59" class="edge">
<title>Node22&#45;&gt;Node24</title>
<path fill="none" stroke="midnightblue" d="M1934.67,-1260.54C1951.7,-1250.92 1975.88,-1234.52 1989,-1213.2 2032.9,-1141.86 2002.42,-1108.86 2025,-1028.2 2045.6,-954.61 2080.03,-870.38 2095.73,-833.36"/>
<polygon fill="midnightblue" stroke="midnightblue" points="2099.09,-834.4 2099.81,-823.83 2092.66,-831.65 2099.09,-834.4"/>
</g>
<!-- Node22&#45;&gt;Node25 -->
<g id="edge66" class="edge">
<title>Node22&#45;&gt;Node25</title>
<path fill="none" stroke="midnightblue" d="M1929,-1260.69C1944.13,-1249.82 1969.13,-1231.2 1989,-1213.2 2006.24,-1197.58 2004.86,-1186.84 2025,-1175.2 2028.88,-1172.95 2033.02,-1170.97 2037.29,-1169.23"/>
<polygon fill="midnightblue" stroke="midnightblue" points="2038.6,-1172.48 2046.79,-1165.76 2036.2,-1165.9 2038.6,-1172.48"/>
</g>
<!-- Node23&#45;&gt;Node2 -->
<g id="edge53" class="edge">
<title>Node23&#45;&gt;Node2</title>
<path fill="none" stroke="midnightblue" d="M2320.93,-1260.67C2328.24,-1257.22 2335.1,-1252.54 2340,-1246.2 2352.59,-1229.89 2431.73,-577.53 2446.59,-454.2"/>
<polygon fill="midnightblue" stroke="midnightblue" points="2450.11,-454.3 2447.83,-443.96 2443.16,-453.47 2450.11,-454.3"/>
</g>
<!-- Node23&#45;&gt;Node9 -->
<g id="edge54" class="edge">
<title>Node23&#45;&gt;Node9</title>
<path fill="none" stroke="midnightblue" d="M2315.97,-1260.63C2324.51,-1257.09 2333.16,-1252.38 2340,-1246.2 2398.56,-1193.3 2431.44,-1101.4 2443.57,-1061.55"/>
<polygon fill="midnightblue" stroke="midnightblue" points="2446.98,-1062.35 2446.44,-1051.77 2440.26,-1060.38 2446.98,-1062.35"/>
</g>
<!-- Node24&#45;&gt;Node2 -->
<g id="edge62" class="edge">
<title>Node24&#45;&gt;Node2</title>
<path fill="none" stroke="midnightblue" d="M2114.82,-804.42C2160.88,-753.4 2373.84,-517.47 2433.45,-451.42"/>
<polygon fill="midnightblue" stroke="midnightblue" points="2436.13,-453.68 2440.23,-443.91 2430.94,-448.99 2436.13,-453.68"/>
</g>
<!-- Node24&#45;&gt;Node4 -->
<g id="edge60" class="edge">
<title>Node24&#45;&gt;Node4</title>
<path fill="none" stroke="midnightblue" d="M2108.95,-823.86C2120.67,-862.73 2164.36,-1011.59 2185,-1137.2 2215.24,-1321.2 2162.53,-1378.14 2221,-1555.2 2230.71,-1584.6 2251.1,-1614.32 2265.05,-1632.5"/>
<polygon fill="midnightblue" stroke="midnightblue" points="2262.37,-1634.76 2271.3,-1640.45 2267.87,-1630.43 2262.37,-1634.76"/>
</g>
<!-- Node24&#45;&gt;Node8 -->
<g id="edge61" class="edge">
<title>Node24&#45;&gt;Node8</title>
<path fill="none" stroke="midnightblue" d="M2175.57,-814.2C2190.21,-814.2 2205.53,-814.2 2219.77,-814.2"/>
<polygon fill="midnightblue" stroke="midnightblue" points="2219.93,-817.7 2229.93,-814.2 2219.93,-810.7 2219.93,-817.7"/>
</g>
<!-- Node24&#45;&gt;Node18 -->
<g id="edge63" class="edge">
<title>Node24&#45;&gt;Node18</title>
<path fill="none" stroke="midnightblue" d="M2034.41,-823.01C2019.44,-824.81 2003.7,-826.63 1989,-828.2 1757.34,-852.95 1691.85,-815.2 1467,-876.2 1435.87,-884.64 1402.69,-901.32 1380.8,-913.52"/>
<polygon fill="midnightblue" stroke="midnightblue" points="1378.83,-910.61 1371.87,-918.6 1382.29,-916.69 1378.83,-910.61"/>
</g>
<!-- Node25&#45;&gt;Node2 -->
<g id="edge69" class="edge">
<title>Node25&#45;&gt;Node2</title>
<path fill="none" stroke="midnightblue" d="M2148.59,-1165.76C2200.93,-1174.76 2289.04,-1180.54 2340,-1132.2 2365.54,-1107.97 2432.96,-565.63 2446.58,-454.13"/>
<polygon fill="midnightblue" stroke="midnightblue" points="2450.09,-454.3 2447.82,-443.95 2443.14,-453.46 2450.09,-454.3"/>
</g>
<!-- Node25&#45;&gt;Node4 -->
<g id="edge67" class="edge">
<title>Node25&#45;&gt;Node4</title>
<path fill="none" stroke="midnightblue" d="M2173.74,-1165.89C2177.94,-1168.41 2181.76,-1171.47 2185,-1175.2 2240.59,-1239.27 2194.06,-1474.77 2221,-1555.2 2230.83,-1584.56 2251.19,-1614.29 2265.1,-1632.49"/>
<polygon fill="midnightblue" stroke="midnightblue" points="2262.41,-1634.73 2271.34,-1640.44 2267.92,-1630.41 2262.41,-1634.73"/>
</g>
<!-- Node25&#45;&gt;Node8 -->
<g id="edge68" class="edge">
<title>Node25&#45;&gt;Node8</title>
<path fill="none" stroke="midnightblue" d="M2115.13,-1146.69C2131.06,-1129.7 2164.21,-1092.48 2185,-1056.2 2229.47,-978.61 2261.74,-876.03 2274.04,-833.73"/>
<polygon fill="midnightblue" stroke="midnightblue" points="2277.47,-834.46 2276.85,-823.89 2270.74,-832.54 2277.47,-834.46"/>
</g>
<!-- Node26&#45;&gt;Node4 -->
<g id="edge74" class="edge">
<title>Node26&#45;&gt;Node4</title>
<path fill="none" stroke="midnightblue" d="M1431.05,-1840.2C1507.41,-1840.2 1629.2,-1840.2 1734.5,-1840.2 1734.5,-1840.2 1734.5,-1840.2 1915.5,-1840.2 2035.75,-1840.2 2083.83,-1881.2 2185,-1816.2 2238.6,-1781.76 2264.98,-1705.52 2274.8,-1669.61"/>
<polygon fill="midnightblue" stroke="midnightblue" points="2278.21,-1670.42 2277.33,-1659.86 2271.43,-1668.66 2278.21,-1670.42"/>
</g>
<!-- Node27&#45;&gt;Node2 -->
<g id="edge78" class="edge">
<title>Node27&#45;&gt;Node2</title>
<path fill="none" stroke="midnightblue" d="M1171.27,-728.64C1202.02,-667.45 1373.75,-331.29 1467,-268.2 1549.97,-212.06 1813.33,-206.2 1913.5,-206.2 1913.5,-206.2 1913.5,-206.2 2106,-206.2 2210.55,-206.2 2253.2,-171.94 2340,-230.2 2406.11,-274.57 2435.2,-372.59 2444.96,-414.53"/>
<polygon fill="midnightblue" stroke="midnightblue" points="2441.55,-415.34 2447.12,-424.36 2448.39,-413.84 2441.55,-415.34"/>
</g>
<!-- Node27&#45;&gt;Node4 -->
<g id="edge76" class="edge">
<title>Node27&#45;&gt;Node4</title>
<path fill="none" stroke="midnightblue" d="M1186.24,-747.8C1203.83,-757.38 1228.9,-773.75 1243,-795.2 1281.13,-853.21 1259.64,-880.53 1279,-947.2 1350.34,-1192.86 1304,-1294.05 1467,-1491.2 1653.74,-1717.07 2058.44,-1684.01 2215.44,-1661.19"/>
<polygon fill="midnightblue" stroke="midnightblue" points="2216.04,-1664.64 2225.42,-1659.71 2215.01,-1657.72 2216.04,-1664.64"/>
</g>
<!-- Node27&#45;&gt;Node8 -->
<g id="edge77" class="edge">
<title>Node27&#45;&gt;Node8</title>
<path fill="none" stroke="midnightblue" d="M1194.83,-728.57C1257.63,-708.12 1413.61,-662.2 1548,-662.2 1548,-662.2 1548,-662.2 1736.5,-662.2 1938.67,-662.2 2000.61,-655.28 2185,-738.2 2216.47,-752.35 2246.38,-779.53 2263.83,-797.26"/>
<polygon fill="midnightblue" stroke="midnightblue" points="2261.48,-799.87 2270.93,-804.66 2266.53,-795.02 2261.48,-799.87"/>
</g>
<!-- Node27&#45;&gt;Node14 -->
<g id="edge80" class="edge">
<title>Node27&#45;&gt;Node14</title>
<path fill="none" stroke="midnightblue" d="M1128.44,-747.73C1109.31,-750.81 1085.11,-753.81 1062.33,-756.01"/>
<polygon fill="midnightblue" stroke="midnightblue" points="1061.97,-752.53 1052.34,-756.94 1062.62,-759.5 1061.97,-752.53"/>
</g>
<!-- Node27&#45;&gt;Node18 -->
<g id="edge79" class="edge">
<title>Node27&#45;&gt;Node18</title>
<path fill="none" stroke="midnightblue" d="M1181.39,-747.76C1197.42,-758.39 1223.27,-776.53 1243,-795.2 1282.47,-832.55 1321.52,-883.44 1341.08,-910.14"/>
<polygon fill="midnightblue" stroke="midnightblue" points="1338.45,-912.48 1347.16,-918.52 1344.12,-908.37 1338.45,-912.48"/>
</g>
<!-- Node28&#45;&gt;Node2 -->
<g id="edge84" class="edge">
<title>Node28&#45;&gt;Node2</title>
<path fill="none" stroke="midnightblue" d="M1180.91,-804.63C1196.76,-793.85 1222.65,-775.45 1243,-757.2 1449.03,-572.43 1427.46,-439.78 1667,-301.2 1764.33,-244.89 1801.05,-244.2 1913.5,-244.2 1913.5,-244.2 1913.5,-244.2 2106,-244.2 2215.08,-244.2 2247.67,-260.13 2340,-318.2 2381.88,-344.54 2418.49,-390.76 2436.72,-416.18"/>
<polygon fill="midnightblue" stroke="midnightblue" points="2433.97,-418.36 2442.58,-424.53 2439.7,-414.34 2433.97,-418.36"/>
</g>
<!-- Node28&#45;&gt;Node4 -->
<g id="edge82" class="edge">
<title>Node28&#45;&gt;Node4</title>
<path fill="none" stroke="midnightblue" d="M1169.08,-823.92C1179.71,-864.35 1220.68,-1023.3 1243,-1156.2 1266.56,-1296.47 1217.59,-1345.9 1279,-1474.2 1330.29,-1581.35 1360.71,-1611.14 1467,-1664.2 1610.55,-1735.87 2036.03,-1799.79 2185,-1740.2 2221.08,-1725.77 2251.23,-1690.28 2267.2,-1668.43"/>
<polygon fill="midnightblue" stroke="midnightblue" points="2270.25,-1670.18 2273.15,-1660 2264.53,-1666.15 2270.25,-1670.18"/>
</g>
<!-- Node28&#45;&gt;Node8 -->
<g id="edge83" class="edge">
<title>Node28&#45;&gt;Node8</title>
<path fill="none" stroke="midnightblue" d="M1194.83,-804.57C1257.63,-784.12 1413.61,-738.2 1548,-738.2 1548,-738.2 1548,-738.2 1915.5,-738.2 2036.46,-738.2 2068.14,-744.96 2185,-776.2 2207.59,-782.24 2232.06,-792.18 2250.43,-800.38"/>
<polygon fill="midnightblue" stroke="midnightblue" points="2249.15,-803.64 2259.71,-804.6 2252.05,-797.27 2249.15,-803.64"/>
</g>
<!-- Node28&#45;&gt;Node14 -->
<g id="edge86" class="edge">
<title>Node28&#45;&gt;Node14</title>
<path fill="none" stroke="midnightblue" d="M1105.15,-804.69C1099.35,-802.88 1093.56,-801.01 1088,-799.2 1061.38,-790.52 1030.82,-780.1 1011.12,-771.26"/>
<polygon fill="midnightblue" stroke="midnightblue" points="1012.41,-768 1001.88,-766.8 1009.36,-774.3 1012.41,-768"/>
</g>
<!-- Node28&#45;&gt;Node18 -->
<g id="edge85" class="edge">
<title>Node28&#45;&gt;Node18</title>
<path fill="none" stroke="midnightblue" d="M1182.16,-823.72C1214.84,-843.59 1290.47,-889.57 1329.59,-913.36"/>
<polygon fill="midnightblue" stroke="midnightblue" points="1327.89,-916.42 1338.25,-918.62 1331.52,-910.44 1327.89,-916.42"/>
</g>
<!-- Node29&#45;&gt;Node2 -->
<g id="edge89" class="edge">
<title>Node29&#45;&gt;Node2</title>
<path fill="none" stroke="midnightblue" d="M1925.84,-1184.53C1944.66,-1167.2 1986.16,-1130.23 2025,-1104.2 2092.06,-1059.24 2122.39,-1069.17 2185,-1018.2 2268.18,-950.48 2290.27,-928.24 2340,-833.2 2410.52,-698.41 2438.97,-513.47 2446.68,-453.68"/>
<polygon fill="midnightblue" stroke="midnightblue" points="2450.16,-454.09 2447.92,-443.73 2443.22,-453.22 2450.16,-454.09"/>
</g>
<!-- Node29&#45;&gt;Node8 -->
<g id="edge88" class="edge">
<title>Node29&#45;&gt;Node8</title>
<path fill="none" stroke="midnightblue" d="M1923.26,-1184.57C1937.18,-1167.09 1967.03,-1128.74 1989,-1094.2 2006.93,-1066.01 1999.05,-1049.25 2025,-1028.2 2082.66,-981.43 2126.92,-1026.44 2185,-980.2 2234.4,-940.87 2262.59,-868.22 2273.79,-833.57"/>
<polygon fill="midnightblue" stroke="midnightblue" points="2277.22,-834.33 2276.84,-823.74 2270.54,-832.26 2277.22,-834.33"/>
</g>
<!-- Node30 -->
<g id="node30" class="node">
<title>Node30</title>
<g id="a_node30"><a xlink:href="../../d0/dfe/class_syntax_analyzer.html#adad79b2219ae143b49203a836713bec9" target="_top" xlink:title=" ">
<polygon fill="none" stroke="black" points="2025,-1222.7 2025,-1241.7 2185,-1241.7 2185,-1222.7 2025,-1222.7"/>
<text text-anchor="middle" x="2105" y="-1229.7" font-family="Helvetica,sans-Serif" font-size="10.00">SyntaxAnalyzer::syntaxConstDecl</text>
</a>
</g>
</g>
<!-- Node29&#45;&gt;Node30 -->
<g id="edge90" class="edge">
<title>Node29&#45;&gt;Node30</title>
<path fill="none" stroke="midnightblue" d="M1963.07,-1203.79C1988.5,-1208.92 2020,-1215.27 2046.77,-1220.66"/>
<polygon fill="midnightblue" stroke="midnightblue" points="2046.28,-1224.13 2056.78,-1222.68 2047.66,-1217.27 2046.28,-1224.13"/>
</g>
<!-- Node30&#45;&gt;Node2 -->
<g id="edge94" class="edge">
<title>Node30&#45;&gt;Node2</title>
<path fill="none" stroke="midnightblue" d="M2164.23,-1241.71C2217.48,-1246.79 2294.64,-1244.5 2340,-1199.2 2353.71,-1185.51 2431.46,-573.35 2446.49,-454.18"/>
<polygon fill="midnightblue" stroke="midnightblue" points="2450,-454.32 2447.77,-443.96 2443.05,-453.44 2450,-454.32"/>
</g>
<!-- Node30&#45;&gt;Node4 -->
<g id="edge91" class="edge">
<title>Node30&#45;&gt;Node4</title>
<path fill="none" stroke="midnightblue" d="M2113.16,-1242.02C2128.74,-1263.88 2165.85,-1318.71 2185,-1370.2 2214.2,-1448.71 2190.55,-1477.17 2221,-1555.2 2232.32,-1584.2 2252.48,-1614.22 2265.92,-1632.56"/>
<polygon fill="midnightblue" stroke="midnightblue" points="2263.12,-1634.66 2271.91,-1640.57 2268.72,-1630.47 2263.12,-1634.66"/>
</g>
<!-- Node30&#45;&gt;Node8 -->
<g id="edge92" class="edge">
<title>Node30&#45;&gt;Node8</title>
<path fill="none" stroke="midnightblue" d="M2172.06,-1222.59C2176.82,-1220.09 2181.22,-1217 2185,-1213.2 2239.85,-1158.16 2269.88,-906.81 2277.53,-834.01"/>
<polygon fill="midnightblue" stroke="midnightblue" points="2281.02,-834.22 2278.56,-823.92 2274.06,-833.51 2281.02,-834.22"/>
</g>
<!-- Node30&#45;&gt;Node10 -->
<g id="edge95" class="edge">
<title>Node30&#45;&gt;Node10</title>
<path fill="none" stroke="midnightblue" d="M2108.99,-1241.98C2120.03,-1278.2 2159.11,-1408.3 2185,-1517.2 2226.64,-1692.37 2264.74,-1906.85 2276.09,-1972.31"/>
<polygon fill="midnightblue" stroke="midnightblue" points="2272.69,-1973.18 2277.84,-1982.44 2279.58,-1971.99 2272.69,-1973.18"/>
</g>
<!-- Node30&#45;&gt;Node23 -->
<g id="edge93" class="edge">
<title>Node30&#45;&gt;Node23</title>
<path fill="none" stroke="midnightblue" d="M2149.78,-1241.79C2172.99,-1246.87 2201.68,-1253.16 2226.17,-1258.52"/>
<polygon fill="midnightblue" stroke="midnightblue" points="2225.52,-1261.96 2236.03,-1260.68 2227.01,-1255.12 2225.52,-1261.96"/>
</g>
<!-- Node31&#45;&gt;Node2 -->
<g id="edge98" class="edge">
<title>Node31&#45;&gt;Node2</title>
<path fill="none" stroke="midnightblue" d="M1788.2,-386.65C1893.59,-368.99 2140.16,-336.97 2340,-382.2 2371.35,-389.3 2404.25,-406.54 2425.59,-419.24"/>
<polygon fill="midnightblue" stroke="midnightblue" points="2423.9,-422.31 2434.26,-424.53 2427.55,-416.33 2423.9,-422.31"/>
</g>
<!-- Node31&#45;&gt;Node8 -->
<g id="edge97" class="edge">
<title>Node31&#45;&gt;Node8</title>
<path fill="none" stroke="midnightblue" d="M1803.09,-405.28C1899.61,-421.8 2078.48,-465.5 2185,-572.2 2249.04,-636.35 2270.77,-748.92 2277.15,-794.35"/>
<polygon fill="midnightblue" stroke="midnightblue" points="2273.7,-794.92 2278.46,-804.39 2280.64,-794.02 2273.7,-794.92"/>
</g>
<!-- Node32 -->
<g id="node32" class="node">
<title>Node32</title>
<g id="a_node32"><a xlink:href="../../d0/dfe/class_syntax_analyzer.html#a8f6dda26a96ec0e5e75bea5eed577856" target="_top" xlink:title=" ">
<polygon fill="none" stroke="black" points="1840,-766.7 1840,-785.7 1989,-785.7 1989,-766.7 1840,-766.7"/>
<text text-anchor="middle" x="1914.5" y="-773.7" font-family="Helvetica,sans-Serif" font-size="10.00">SyntaxAnalyzer::syntaxVarDecl</text>
</a>
</g>
</g>
<!-- Node31&#45;&gt;Node32 -->
<g id="edge99" class="edge">
<title>Node31&#45;&gt;Node32</title>
<path fill="none" stroke="midnightblue" d="M1741.05,-405.98C1764.63,-456.58 1872.93,-689.1 1904.71,-757.33"/>
<polygon fill="midnightblue" stroke="midnightblue" points="1901.58,-758.9 1908.98,-766.49 1907.93,-755.95 1901.58,-758.9"/>
</g>
<!-- Node32&#45;&gt;Node2 -->
<g id="edge102" class="edge">
<title>Node32&#45;&gt;Node2</title>
<path fill="none" stroke="midnightblue" d="M1927.25,-766.54C1967.03,-734.07 2100.83,-626.73 2221,-552.2 2289.28,-509.85 2374.46,-468.63 2418.88,-447.95"/>
<polygon fill="midnightblue" stroke="midnightblue" points="2420.37,-451.12 2427.97,-443.74 2417.43,-444.76 2420.37,-451.12"/>
</g>
<!-- Node32&#45;&gt;Node4 -->
<g id="edge100" class="edge">
<title>Node32&#45;&gt;Node4</title>
<path fill="none" stroke="midnightblue" d="M1922.69,-785.91C1937.93,-807.06 1973.32,-859.37 1989,-909.2 2034.88,-1054.99 1956.29,-1114.68 2025,-1251.2 2068.41,-1337.46 2136.47,-1314.71 2185,-1398.2 2220.98,-1460.09 2193.87,-1488.95 2221,-1555.2 2232.74,-1583.87 2252.65,-1613.81 2265.94,-1632.23"/>
<polygon fill="midnightblue" stroke="midnightblue" points="2263.29,-1634.54 2272.03,-1640.52 2268.93,-1630.39 2263.29,-1634.54"/>
</g>
<!-- Node32&#45;&gt;Node8 -->
<g id="edge101" class="edge">
<title>Node32&#45;&gt;Node8</title>
<path fill="none" stroke="midnightblue" d="M1989.25,-778.85C2043.56,-781.42 2119.11,-786.29 2185,-795.2 2199.01,-797.09 2214.07,-799.81 2227.95,-802.59"/>
<polygon fill="midnightblue" stroke="midnightblue" points="2227.33,-806.04 2237.83,-804.62 2228.74,-799.18 2227.33,-806.04"/>
</g>
<!-- Node33 -->
<g id="node33" class="node">
<title>Node33</title>
<g id="a_node33"><a xlink:href="../../d0/dfe/class_syntax_analyzer.html#a5d262eb9e2236dde3bd043eea0b0e957" target="_top" xlink:title=" ">
<polygon fill="none" stroke="black" points="2026,-1184.7 2026,-1203.7 2184,-1203.7 2184,-1184.7 2026,-1184.7"/>
<text text-anchor="middle" x="2105" y="-1191.7" font-family="Helvetica,sans-Serif" font-size="10.00">SyntaxAnalyzer::syntaxTypeSpec</text>
</a>
</g>
</g>
<!-- Node32&#45;&gt;Node33 -->
<g id="edge103" class="edge">
<title>Node32&#45;&gt;Node33</title>
<path fill="none" stroke="midnightblue" d="M1922.58,-785.95C1937.59,-807.17 1972.58,-859.61 1989,-909.2 2007.75,-965.83 1985.02,-1130.94 2025,-1175.2 2026.06,-1176.38 2027.19,-1177.49 2028.36,-1178.54"/>
<polygon fill="midnightblue" stroke="midnightblue" points="2026.62,-1181.59 2036.79,-1184.57 2030.7,-1175.9 2026.62,-1181.59"/>
</g>
<!-- Node33&#45;&gt;Node2 -->
<g id="edge106" class="edge">
<title>Node33&#45;&gt;Node2</title>
<path fill="none" stroke="midnightblue" d="M2155.84,-1203.76C2208.92,-1210.79 2291.8,-1212.22 2340,-1165.2 2366.44,-1139.4 2433.54,-568.23 2446.73,-453.98"/>
<polygon fill="midnightblue" stroke="midnightblue" points="2450.23,-454.21 2447.9,-443.87 2443.27,-453.4 2450.23,-454.21"/>
</g>
<!-- Node33&#45;&gt;Node4 -->
<g id="edge104" class="edge">
<title>Node33&#45;&gt;Node4</title>
<path fill="none" stroke="midnightblue" d="M2173.34,-1203.72C2177.68,-1206.26 2181.65,-1209.38 2185,-1213.2 2235.38,-1270.66 2196.35,-1482.86 2221,-1555.2 2231.04,-1584.66 2251.53,-1614.57 2265.39,-1632.76"/>
<polygon fill="midnightblue" stroke="midnightblue" points="2262.67,-1634.96 2271.59,-1640.69 2268.19,-1630.65 2262.67,-1634.96"/>
</g>
<!-- Node33&#45;&gt;Node23 -->
<g id="edge105" class="edge">
<title>Node33&#45;&gt;Node23</title>
<path fill="none" stroke="midnightblue" d="M2156.04,-1203.78C2165.82,-1206.33 2175.86,-1209.45 2185,-1213.2 2211.66,-1224.14 2239.61,-1241.9 2258.13,-1254.69"/>
<polygon fill="midnightblue" stroke="midnightblue" points="2256.23,-1257.63 2266.42,-1260.51 2260.25,-1251.9 2256.23,-1257.63"/>
</g>
</g>
</svg>
