<?xml version="1.0" encoding="UTF-8" standalone="no"?>
<!DOCTYPE svg PUBLIC "-//W3C//DTD SVG 1.1//EN"
 "http://www.w3.org/Graphics/SVG/1.1/DTD/svg11.dtd">
<!-- Generated by graphviz version 3.0.0 (20220413.0106)
 -->
<!-- Title: SyntaxAnalyzer::syntaxFactor Pages: 1 -->
<svg width="1223pt" height="857pt"
 viewBox="0.00 0.00 1223.00 856.88" xmlns="http://www.w3.org/2000/svg" xmlns:xlink="http://www.w3.org/1999/xlink">
<g id="graph0" class="graph" transform="scale(1 1) rotate(0) translate(4 852.88)">
<title>SyntaxAnalyzer::syntaxFactor</title>
<!-- Node1 -->
<g id="node1" class="node">
<title>Node1</title>
<g id="a_node1"><a xlink:title=" ">
<polygon fill="#bfbfbf" stroke="black" points="0,-541.5 0,-560.5 143,-560.5 143,-541.5 0,-541.5"/>
<text text-anchor="middle" x="71.5" y="-548.5" font-family="Helvetica,sans-Serif" font-size="10.00">SyntaxAnalyzer::syntaxFactor</text>
</a>
</g>
</g>
<!-- Node1&#45;&gt;Node1 -->
<g id="edge43" class="edge">
<title>Node1&#45;&gt;Node1</title>
<path fill="none" stroke="midnightblue" d="M44.07,-560.76C30.72,-569.57 39.86,-579 71.5,-579 93.25,-579 104.37,-574.54 104.86,-568.89"/>
<polygon fill="midnightblue" stroke="midnightblue" points="107.65,-566.78 98.93,-560.76 101.99,-570.9 107.65,-566.78"/>
</g>
<!-- Node2 -->
<g id="node2" class="node">
<title>Node2</title>
<g id="a_node2"><a xlink:href="../../d7/d7c/class_a_s_t_factory.html#a64619ed3c409fbb187debf67bc39d484" target="_top" xlink:title=" ">
<polygon fill="none" stroke="black" points="912,-541.5 912,-560.5 1031,-560.5 1031,-541.5 912,-541.5"/>
<text text-anchor="middle" x="971.5" y="-548.5" font-family="Helvetica,sans-Serif" font-size="10.00">ASTFactory::createAST</text>
</a>
</g>
</g>
<!-- Node1&#45;&gt;Node2 -->
<g id="edge1" class="edge">
<title>Node1&#45;&gt;Node2</title>
<path fill="none" stroke="midnightblue" d="M80.62,-560.52C97.23,-579.44 137.07,-621.99 179,-646 250.72,-687.06 274.36,-690.18 356,-703 587.56,-739.36 859.8,-609.63 944.22,-565.32"/>
<polygon fill="midnightblue" stroke="midnightblue" points="945.94,-568.37 953.13,-560.6 942.66,-562.19 945.94,-568.37"/>
</g>
<!-- Node3 -->
<g id="node3" class="node">
<title>Node3</title>
<g id="a_node3"><a xlink:href="../../d0/d11/class_i_token.html#ac8ca7f7e601ae49ad573167a4e9429cb" target="_top" xlink:title=" ">
<polygon fill="none" stroke="black" points="1089.5,-607.5 1089.5,-626.5 1192.5,-626.5 1192.5,-607.5 1089.5,-607.5"/>
<text text-anchor="middle" x="1141" y="-614.5" font-family="Helvetica,sans-Serif" font-size="10.00">IToken::getAdvType</text>
</a>
</g>
</g>
<!-- Node1&#45;&gt;Node3 -->
<g id="edge10" class="edge">
<title>Node1&#45;&gt;Node3</title>
<path fill="none" stroke="midnightblue" d="M73.07,-560.68C75.93,-599.81 92.31,-747.33 179,-812 265.99,-876.89 313.47,-836 422,-836 422,-836 422,-836 802,-836 904.34,-836 945.56,-868.32 1031,-812 1094.78,-769.96 1124.94,-677.2 1135.46,-636.63"/>
<polygon fill="midnightblue" stroke="midnightblue" points="1138.87,-637.42 1137.87,-626.87 1132.07,-635.74 1138.87,-637.42"/>
</g>
<!-- Node4 -->
<g id="node4" class="node">
<title>Node4</title>
<g id="a_node4"><a xlink:href="../../d0/d11/class_i_token.html#a568cb9d98839eff3fd758f419a76b092" target="_top" xlink:title="Получение типа токена">
<polygon fill="none" stroke="black" points="1098,-474.5 1098,-493.5 1184,-493.5 1184,-474.5 1098,-474.5"/>
<text text-anchor="middle" x="1141" y="-481.5" font-family="Helvetica,sans-Serif" font-size="10.00">IToken::getType</text>
</a>
</g>
</g>
<!-- Node1&#45;&gt;Node4 -->
<g id="edge16" class="edge">
<title>Node1&#45;&gt;Node4</title>
<path fill="none" stroke="midnightblue" d="M75.28,-560.62C84.54,-590.87 117.27,-684.87 179,-732 267.95,-799.91 310.09,-798 422,-798 422,-798 422,-798 802,-798 906.88,-798 959.32,-817.57 1031,-741 1092.73,-675.07 1020.33,-618.33 1067,-541 1077.76,-523.16 1096.33,-508.78 1112.05,-498.92"/>
<polygon fill="midnightblue" stroke="midnightblue" points="1114.09,-501.78 1120.89,-493.65 1110.51,-495.77 1114.09,-501.78"/>
</g>
<!-- Node5 -->
<g id="node5" class="node">
<title>Node5</title>
<g id="a_node5"><a xlink:href="../../d0/dfe/class_syntax_analyzer.html#ae1d3434e5cc4b4bcd5a3a245814a44f0" target="_top" xlink:title=" ">
<polygon fill="none" stroke="black" points="921,-389.5 921,-408.5 1022,-408.5 1022,-389.5 921,-389.5"/>
<text text-anchor="middle" x="971.5" y="-396.5" font-family="Helvetica,sans-Serif" font-size="10.00">SyntaxAnalyzer::eat</text>
</a>
</g>
</g>
<!-- Node1&#45;&gt;Node5 -->
<g id="edge4" class="edge">
<title>Node1&#45;&gt;Node5</title>
<path fill="none" stroke="midnightblue" d="M92.85,-541.37C145.81,-517.22 292.78,-456 422,-456 422,-456 422,-456 609,-456 723.52,-456 855.99,-427.74 924.36,-411.02"/>
<polygon fill="midnightblue" stroke="midnightblue" points="925.5,-414.34 934.37,-408.54 923.82,-407.55 925.5,-414.34"/>
</g>
<!-- Node6 -->
<g id="node6" class="node">
<title>Node6</title>
<g id="a_node6"><a xlink:href="../../d0/dfe/class_syntax_analyzer.html#a3ae6c7319e61cd669c417f189b098374" target="_top" xlink:title=" ">
<polygon fill="none" stroke="black" points="1075,-161.5 1075,-180.5 1207,-180.5 1207,-161.5 1075,-161.5"/>
<text text-anchor="middle" x="1141" y="-168.5" font-family="Helvetica,sans-Serif" font-size="10.00">SyntaxAnalyzer::getCurTok</text>
</a>
</g>
</g>
<!-- Node1&#45;&gt;Node6 -->
<g id="edge11" class="edge">
<title>Node1&#45;&gt;Node6</title>
<path fill="none" stroke="midnightblue" d="M73.67,-541.44C83.2,-468.27 154.66,0 422,0 422,0 422,0 802,0 906.57,0 940.58,-1.48 1031,-54 1074.19,-79.08 1110.51,-126.69 1128.28,-152.78"/>
<polygon fill="midnightblue" stroke="midnightblue" points="1125.52,-154.95 1133.97,-161.34 1131.35,-151.07 1125.52,-154.95"/>
</g>
<!-- Node8 -->
<g id="node8" class="node">
<title>Node8</title>
<g id="a_node8"><a xlink:href="../../d0/dfe/class_syntax_analyzer.html#a9952c4a2db0a1382b9c94f40dd535fae" target="_top" xlink:title=" ">
<polygon fill="none" stroke="black" points="912.5,-712.5 912.5,-731.5 1030.5,-731.5 1030.5,-712.5 912.5,-712.5"/>
<text text-anchor="middle" x="971.5" y="-719.5" font-family="Helvetica,sans-Serif" font-size="10.00">SyntaxAnalyzer::eatAdv</text>
</a>
</g>
</g>
<!-- Node1&#45;&gt;Node8 -->
<g id="edge7" class="edge">
<title>Node1&#45;&gt;Node8</title>
<path fill="none" stroke="midnightblue" d="M77.51,-560.74C90.66,-585.38 128.7,-650.64 179,-685 272.33,-748.76 308.97,-760 422,-760 422,-760 422,-760 609,-760 712.61,-760 832,-744.37 904.32,-733.16"/>
<polygon fill="midnightblue" stroke="midnightblue" points="905.31,-736.55 914.65,-731.54 904.22,-729.63 905.31,-736.55"/>
</g>
<!-- Node9 -->
<g id="node9" class="node">
<title>Node9</title>
<g id="a_node9"><a xlink:href="../../db/dc1/class_token.html#a014ced0a9ea72ae21fad0d4f116d0a73" target="_top" xlink:title=" ">
<polygon fill="none" stroke="black" points="210.5,-617.5 210.5,-636.5 288.5,-636.5 288.5,-617.5 210.5,-617.5"/>
<text text-anchor="middle" x="249.5" y="-624.5" font-family="Helvetica,sans-Serif" font-size="10.00">Token::getInfo</text>
</a>
</g>
</g>
<!-- Node1&#45;&gt;Node9 -->
<g id="edge12" class="edge">
<title>Node1&#45;&gt;Node9</title>
<path fill="none" stroke="midnightblue" d="M94.79,-560.63C125.74,-573.99 181.87,-598.23 217.06,-613.42"/>
<polygon fill="midnightblue" stroke="midnightblue" points="215.82,-616.7 226.39,-617.45 218.6,-610.28 215.82,-616.7"/>
</g>
<!-- Node12 -->
<g id="node12" class="node">
<title>Node12</title>
<g id="a_node12"><a xlink:href="../../d0/dfe/class_syntax_analyzer.html#af0905389742c4f842207bb2c073afbfa" target="_top" xlink:title=" ">
<polygon fill="none" stroke="black" points="181,-560.5 181,-579.5 318,-579.5 318,-560.5 181,-560.5"/>
<text text-anchor="middle" x="249.5" y="-567.5" font-family="Helvetica,sans-Serif" font-size="10.00">SyntaxAnalyzer::lookFoward</text>
</a>
</g>
</g>
<!-- Node1&#45;&gt;Node12 -->
<g id="edge17" class="edge">
<title>Node1&#45;&gt;Node12</title>
<path fill="none" stroke="midnightblue" d="M143.07,-558.62C152.2,-559.6 161.59,-560.62 170.83,-561.62"/>
<polygon fill="midnightblue" stroke="midnightblue" points="170.45,-565.09 180.77,-562.69 171.21,-558.14 170.45,-565.09"/>
</g>
<!-- Node14 -->
<g id="node14" class="node">
<title>Node14</title>
<g id="a_node14"><a xlink:href="../../d0/dfe/class_syntax_analyzer.html#a9321de68e44f3918a71256a3c1cd481b" target="_top" xlink:title=" ">
<polygon fill="none" stroke="black" points="179,-294.5 179,-313.5 320,-313.5 320,-294.5 179,-294.5"/>
<text text-anchor="middle" x="249.5" y="-301.5" font-family="Helvetica,sans-Serif" font-size="10.00">SyntaxAnalyzer::syntaxCallSt</text>
</a>
</g>
</g>
<!-- Node1&#45;&gt;Node14 -->
<g id="edge19" class="edge">
<title>Node1&#45;&gt;Node14</title>
<path fill="none" stroke="midnightblue" d="M74.33,-541.37C81.32,-507.12 109.55,-390.01 179,-328 183.51,-323.97 188.74,-320.61 194.26,-317.81"/>
<polygon fill="midnightblue" stroke="midnightblue" points="196.02,-320.85 203.75,-313.6 193.19,-314.45 196.02,-320.85"/>
</g>
<!-- Node15 -->
<g id="node15" class="node">
<title>Node15</title>
<g id="a_node15"><a xlink:href="../../d0/dfe/class_syntax_analyzer.html#a53b0048490647d82a92a77ed1ffb013d" target="_top" xlink:title=" ">
<polygon fill="none" stroke="black" points="356,-256.5 356,-275.5 490,-275.5 490,-256.5 356,-256.5"/>
<text text-anchor="middle" x="423" y="-263.5" font-family="Helvetica,sans-Serif" font-size="10.00">SyntaxAnalyzer::syntaxExpr</text>
</a>
</g>
</g>
<!-- Node1&#45;&gt;Node15 -->
<g id="edge42" class="edge">
<title>Node1&#45;&gt;Node15</title>
<path fill="none" stroke="midnightblue" d="M72.94,-541.37C75.34,-501.73 90.23,-350.27 179,-285 233.29,-245.08 314.06,-247.47 367.36,-254.98"/>
<polygon fill="midnightblue" stroke="midnightblue" points="366.9,-258.45 377.31,-256.49 367.95,-251.53 366.9,-258.45"/>
</g>
<!-- Node19 -->
<g id="node19" class="node">
<title>Node19</title>
<g id="a_node19"><a xlink:href="../../d0/dfe/class_syntax_analyzer.html#a8d3dc6feefe1957f1c81cbc7b8318559" target="_top" xlink:title=" ">
<polygon fill="none" stroke="black" points="726,-484.5 726,-503.5 876,-503.5 876,-484.5 726,-484.5"/>
<text text-anchor="middle" x="801" y="-491.5" font-family="Helvetica,sans-Serif" font-size="10.00">SyntaxAnalyzer::syntaxVariable</text>
</a>
</g>
</g>
<!-- Node1&#45;&gt;Node19 -->
<g id="edge44" class="edge">
<title>Node1&#45;&gt;Node19</title>
<path fill="none" stroke="midnightblue" d="M143.25,-545.46C278.02,-534.9 571,-511.94 715.68,-500.61"/>
<polygon fill="midnightblue" stroke="midnightblue" points="716.15,-504.08 725.84,-499.81 715.6,-497.1 716.15,-504.08"/>
</g>
<!-- Node2&#45;&gt;Node3 -->
<g id="edge2" class="edge">
<title>Node2&#45;&gt;Node3</title>
<path fill="none" stroke="midnightblue" d="M996.86,-560.6C1025.72,-571.97 1073.97,-590.98 1106.38,-603.75"/>
<polygon fill="midnightblue" stroke="midnightblue" points="1105.3,-607.09 1115.89,-607.5 1107.87,-600.58 1105.3,-607.09"/>
</g>
<!-- Node2&#45;&gt;Node4 -->
<g id="edge3" class="edge">
<title>Node2&#45;&gt;Node4</title>
<path fill="none" stroke="midnightblue" d="M996.5,-541.4C1025.36,-529.86 1073.96,-510.42 1106.5,-497.4"/>
<polygon fill="midnightblue" stroke="midnightblue" points="1108.06,-500.55 1116.05,-493.58 1105.46,-494.05 1108.06,-500.55"/>
</g>
<!-- Node5&#45;&gt;Node6 -->
<g id="edge5" class="edge">
<title>Node5&#45;&gt;Node6</title>
<path fill="none" stroke="midnightblue" d="M979.48,-389.49C1005.02,-354.73 1093.6,-234.16 1127.06,-188.61"/>
<polygon fill="midnightblue" stroke="midnightblue" points="1129.89,-190.68 1132.99,-180.55 1124.24,-186.53 1129.89,-190.68"/>
</g>
<!-- Node7 -->
<g id="node7" class="node">
<title>Node7</title>
<g id="a_node7"><a xlink:href="../../d0/dfe/class_syntax_analyzer.html#a9e41370d8d74fbd2e77648d2071e7dfe" target="_top" xlink:title=" ">
<polygon fill="none" stroke="black" points="1067,-550.5 1067,-569.5 1215,-569.5 1215,-550.5 1067,-550.5"/>
<text text-anchor="middle" x="1141" y="-557.5" font-family="Helvetica,sans-Serif" font-size="10.00">SyntaxAnalyzer::getNextToken</text>
</a>
</g>
</g>
<!-- Node5&#45;&gt;Node7 -->
<g id="edge6" class="edge">
<title>Node5&#45;&gt;Node7</title>
<path fill="none" stroke="midnightblue" d="M980.34,-408.68C995.93,-427.68 1032.31,-470.81 1067,-503 1083.26,-518.09 1103.19,-533.46 1118.11,-544.44"/>
<polygon fill="midnightblue" stroke="midnightblue" points="1116.11,-547.31 1126.26,-550.35 1120.22,-541.64 1116.11,-547.31"/>
</g>
<!-- Node8&#45;&gt;Node6 -->
<g id="edge8" class="edge">
<title>Node8&#45;&gt;Node6</title>
<path fill="none" stroke="midnightblue" d="M976.68,-712.17C986.81,-688.16 1013.11,-624.54 1031,-570 1078.12,-426.4 1121.44,-249.23 1135.35,-190.75"/>
<polygon fill="midnightblue" stroke="midnightblue" points="1138.84,-191.22 1137.74,-180.68 1132.03,-189.6 1138.84,-191.22"/>
</g>
<!-- Node8&#45;&gt;Node7 -->
<g id="edge9" class="edge">
<title>Node8&#45;&gt;Node7</title>
<path fill="none" stroke="midnightblue" d="M1009.13,-712.43C1017.14,-708.95 1025,-704.27 1031,-698 1063.66,-663.88 1035.92,-633.57 1067,-598 1076.14,-587.54 1088.87,-579.55 1101.14,-573.65"/>
<polygon fill="midnightblue" stroke="midnightblue" points="1102.65,-576.81 1110.36,-569.55 1099.8,-570.41 1102.65,-576.81"/>
</g>
<!-- Node9&#45;&gt;Node4 -->
<g id="edge14" class="edge">
<title>Node9&#45;&gt;Node4</title>
<path fill="none" stroke="midnightblue" d="M288.6,-625.57C435.67,-619.88 961.67,-597.76 1031,-570 1050.07,-562.36 1050.9,-553.77 1067,-541 1084.69,-526.97 1104.94,-511.18 1119.62,-499.78"/>
<polygon fill="midnightblue" stroke="midnightblue" points="1121.8,-502.52 1127.56,-493.62 1117.51,-496.99 1121.8,-502.52"/>
</g>
<!-- Node10 -->
<g id="node10" class="node">
<title>Node10</title>
<g id="a_node10"><a xlink:href="../../db/dc1/class_token.html#a942fcc40ffdf54c98b7b641c792a26bc" target="_top" xlink:title="Возвращает константную ссылку на строковое представление токена">
<polygon fill="none" stroke="black" points="386,-636.5 386,-655.5 460,-655.5 460,-636.5 386,-636.5"/>
<text text-anchor="middle" x="423" y="-643.5" font-family="Helvetica,sans-Serif" font-size="10.00">Token::getStr</text>
</a>
</g>
</g>
<!-- Node9&#45;&gt;Node10 -->
<g id="edge13" class="edge">
<title>Node9&#45;&gt;Node10</title>
<path fill="none" stroke="midnightblue" d="M288.56,-631.22C314.29,-634.07 348.41,-637.85 375.71,-640.87"/>
<polygon fill="midnightblue" stroke="midnightblue" points="375.48,-644.37 385.81,-641.99 376.25,-637.41 375.48,-644.37"/>
</g>
<!-- Node11 -->
<g id="node11" class="node">
<title>Node11</title>
<g id="a_node11"><a xlink:href="../../db/dc1/class_token.html#af3b5fdf2261d637af820d4adb62e6109" target="_top" xlink:title=" ">
<polygon fill="none" stroke="black" points="391.5,-674.5 391.5,-693.5 454.5,-693.5 454.5,-674.5 391.5,-674.5"/>
<text text-anchor="middle" x="423" y="-681.5" font-family="Helvetica,sans-Serif" font-size="10.00">Token::line</text>
</a>
</g>
</g>
<!-- Node9&#45;&gt;Node11 -->
<g id="edge15" class="edge">
<title>Node9&#45;&gt;Node11</title>
<path fill="none" stroke="midnightblue" d="M275.49,-636.52C296.77,-644.51 328.22,-656.01 356,-665 364.24,-667.67 373.11,-670.35 381.59,-672.82"/>
<polygon fill="midnightblue" stroke="midnightblue" points="380.74,-676.22 391.31,-675.62 382.67,-669.49 380.74,-676.22"/>
</g>
<!-- Node13 -->
<g id="node13" class="node">
<title>Node13</title>
<g id="a_node13"><a xlink:href="../../d1/d34/class_list.html#a49c179636e084dfbf7a52acd46acaf01" target="_top" xlink:title=" ">
<polygon fill="none" stroke="black" points="395.5,-560.5 395.5,-579.5 450.5,-579.5 450.5,-560.5 395.5,-560.5"/>
<text text-anchor="middle" x="423" y="-567.5" font-family="Helvetica,sans-Serif" font-size="10.00">List::size</text>
</a>
</g>
</g>
<!-- Node12&#45;&gt;Node13 -->
<g id="edge18" class="edge">
<title>Node12&#45;&gt;Node13</title>
<path fill="none" stroke="midnightblue" d="M318.28,-570C341.03,-570 365.55,-570 385.03,-570"/>
<polygon fill="midnightblue" stroke="midnightblue" points="385.3,-573.5 395.3,-570 385.3,-566.5 385.3,-573.5"/>
</g>
<!-- Node14&#45;&gt;Node2 -->
<g id="edge20" class="edge">
<title>Node14&#45;&gt;Node2</title>
<path fill="none" stroke="midnightblue" d="M261.95,-313.63C312.33,-355.28 520.96,-519.78 726,-566 791.4,-580.74 868.97,-571.64 918.92,-562.47"/>
<polygon fill="midnightblue" stroke="midnightblue" points="919.67,-565.89 928.83,-560.58 918.36,-559.01 919.67,-565.89"/>
</g>
<!-- Node14&#45;&gt;Node5 -->
<g id="edge21" class="edge">
<title>Node14&#45;&gt;Node5</title>
<path fill="none" stroke="midnightblue" d="M295.16,-313.51C379.1,-330.99 566.38,-368.06 726,-386 788.7,-393.05 860.9,-396.29 910.49,-397.78"/>
<polygon fill="midnightblue" stroke="midnightblue" points="910.63,-401.28 920.72,-398.07 910.82,-394.28 910.63,-401.28"/>
</g>
<!-- Node14&#45;&gt;Node6 -->
<g id="edge22" class="edge">
<title>Node14&#45;&gt;Node6</title>
<path fill="none" stroke="midnightblue" d="M256.64,-294.22C287.62,-246.23 432.09,-38 607,-38 607,-38 607,-38 802,-38 929.3,-38 1066.02,-120.71 1118.14,-155.68"/>
<polygon fill="midnightblue" stroke="midnightblue" points="1116.35,-158.7 1126.59,-161.43 1120.29,-152.91 1116.35,-158.7"/>
</g>
<!-- Node14&#45;&gt;Node15 -->
<g id="edge23" class="edge">
<title>Node14&#45;&gt;Node15</title>
<path fill="none" stroke="midnightblue" d="M293.78,-294.41C316.61,-289.35 344.82,-283.1 368.96,-277.75"/>
<polygon fill="midnightblue" stroke="midnightblue" points="370.03,-281.1 379.03,-275.52 368.51,-274.27 370.03,-281.1"/>
</g>
<!-- Node15&#45;&gt;Node2 -->
<g id="edge24" class="edge">
<title>Node15&#45;&gt;Node2</title>
<path fill="none" stroke="midnightblue" d="M430.45,-275.58C459.05,-317.1 579.42,-481.98 726,-542 781.9,-564.89 851.14,-565.12 901.65,-560.81"/>
<polygon fill="midnightblue" stroke="midnightblue" points="902.18,-564.28 911.81,-559.86 901.53,-557.31 902.18,-564.28"/>
</g>
<!-- Node15&#45;&gt;Node4 -->
<g id="edge27" class="edge">
<title>Node15&#45;&gt;Node4</title>
<path fill="none" stroke="midnightblue" d="M437.04,-256.36C455.69,-243.14 491.55,-219.8 526,-209 633.38,-175.33 939.27,-105.81 1031,-171 1129.51,-241.01 1139.75,-406.82 1140.25,-464.12"/>
<polygon fill="midnightblue" stroke="midnightblue" points="1136.75,-464.34 1140.24,-474.35 1143.75,-464.35 1136.75,-464.34"/>
</g>
<!-- Node15&#45;&gt;Node5 -->
<g id="edge25" class="edge">
<title>Node15&#45;&gt;Node5</title>
<path fill="none" stroke="midnightblue" d="M451.16,-275.57C503.67,-293.79 623.03,-333.79 726,-358 788.52,-372.7 861.23,-384.19 911,-391.22"/>
<polygon fill="midnightblue" stroke="midnightblue" points="910.57,-394.7 920.95,-392.61 911.53,-387.76 910.57,-394.7"/>
</g>
<!-- Node15&#45;&gt;Node6 -->
<g id="edge26" class="edge">
<title>Node15&#45;&gt;Node6</title>
<path fill="none" stroke="midnightblue" d="M428.12,-256.17C439.35,-230.81 473.27,-163.41 526,-138 726.4,-41.45 1007.36,-123.94 1104.96,-157.97"/>
<polygon fill="midnightblue" stroke="midnightblue" points="1104.03,-161.36 1114.63,-161.4 1106.37,-154.76 1104.03,-161.36"/>
</g>
<!-- Node16 -->
<g id="node16" class="node">
<title>Node16</title>
<g id="a_node16"><a xlink:href="../../df/d3f/_syntax_8hpp.html#ae7d62ca130413d4c96863327c1af81a4" target="_top" xlink:title="Возвращает истину, если value находится среди значений cont.">
<polygon fill="none" stroke="black" points="955.5,-180.5 955.5,-199.5 987.5,-199.5 987.5,-180.5 955.5,-180.5"/>
<text text-anchor="middle" x="971.5" y="-187.5" font-family="Helvetica,sans-Serif" font-size="10.00">isIn</text>
</a>
</g>
</g>
<!-- Node15&#45;&gt;Node16 -->
<g id="edge28" class="edge">
<title>Node15&#45;&gt;Node16</title>
<path fill="none" stroke="midnightblue" d="M464.28,-256.48C521.93,-243.24 631.46,-219.47 726,-207 805.53,-196.51 900.52,-192.25 945.07,-190.73"/>
<polygon fill="midnightblue" stroke="midnightblue" points="945.39,-194.23 955.27,-190.41 945.16,-187.23 945.39,-194.23"/>
</g>
<!-- Node17 -->
<g id="node17" class="node">
<title>Node17</title>
<g id="a_node17"><a xlink:href="../../d0/dfe/class_syntax_analyzer.html#a920d9565d4aa2e3815ff9e7146f45a0b" target="_top" xlink:title=" ">
<polygon fill="none" stroke="black" points="526,-256.5 526,-275.5 690,-275.5 690,-256.5 526,-256.5"/>
<text text-anchor="middle" x="608" y="-263.5" font-family="Helvetica,sans-Serif" font-size="10.00">SyntaxAnalyzer::syntaxSimpleExpr</text>
</a>
</g>
</g>
<!-- Node15&#45;&gt;Node17 -->
<g id="edge29" class="edge">
<title>Node15&#45;&gt;Node17</title>
<path fill="none" stroke="midnightblue" d="M490.07,-266C498.38,-266 507,-266 515.62,-266"/>
<polygon fill="midnightblue" stroke="midnightblue" points="515.72,-269.5 525.72,-266 515.72,-262.5 515.72,-269.5"/>
</g>
<!-- Node17&#45;&gt;Node2 -->
<g id="edge30" class="edge">
<title>Node17&#45;&gt;Node2</title>
<path fill="none" stroke="midnightblue" d="M610.33,-275.57C616.07,-313.02 642.35,-450.55 726,-513 753.1,-533.24 839.39,-542.96 901.78,-547.44"/>
<polygon fill="midnightblue" stroke="midnightblue" points="901.75,-550.94 911.97,-548.14 902.23,-543.96 901.75,-550.94"/>
</g>
<!-- Node17&#45;&gt;Node4 -->
<g id="edge33" class="edge">
<title>Node17&#45;&gt;Node4</title>
<path fill="none" stroke="midnightblue" d="M690.33,-257.13C781.62,-251.51 930.13,-255.86 1031,-327 1082.14,-363.07 1117.09,-431.2 1131.94,-464.58"/>
<polygon fill="midnightblue" stroke="midnightblue" points="1128.88,-466.31 1136.06,-474.11 1135.31,-463.54 1128.88,-466.31"/>
</g>
<!-- Node17&#45;&gt;Node5 -->
<g id="edge31" class="edge">
<title>Node17&#45;&gt;Node5</title>
<path fill="none" stroke="midnightblue" d="M626.41,-275.68C648.9,-287.89 689.5,-309 726,-323 790.75,-347.84 809.9,-345 876,-366 895.52,-372.2 917.1,-379.69 934.7,-385.96"/>
<polygon fill="midnightblue" stroke="midnightblue" points="933.97,-389.42 944.56,-389.5 936.33,-382.83 933.97,-389.42"/>
</g>
<!-- Node17&#45;&gt;Node6 -->
<g id="edge32" class="edge">
<title>Node17&#45;&gt;Node6</title>
<path fill="none" stroke="midnightblue" d="M624.66,-256.33C646.55,-243.24 687.9,-220.01 726,-207 805.68,-179.79 828.18,-179.04 912,-171 962.81,-166.13 1020.29,-166.16 1064.82,-167.4"/>
<polygon fill="midnightblue" stroke="midnightblue" points="1064.88,-170.9 1074.98,-167.71 1065.09,-163.91 1064.88,-170.9"/>
</g>
<!-- Node17&#45;&gt;Node16 -->
<g id="edge34" class="edge">
<title>Node17&#45;&gt;Node16</title>
<path fill="none" stroke="midnightblue" d="M654.42,-256.45C731.36,-240.28 884.86,-208.01 945.25,-195.31"/>
<polygon fill="midnightblue" stroke="midnightblue" points="946.34,-198.66 955.41,-193.17 944.9,-191.81 946.34,-198.66"/>
</g>
<!-- Node18 -->
<g id="node18" class="node">
<title>Node18</title>
<g id="a_node18"><a xlink:href="../../d0/dfe/class_syntax_analyzer.html#a7721cf7d36d549f81fd05c40dba02f67" target="_top" xlink:title=" ">
<polygon fill="none" stroke="black" points="732.5,-294.5 732.5,-313.5 869.5,-313.5 869.5,-294.5 732.5,-294.5"/>
<text text-anchor="middle" x="801" y="-301.5" font-family="Helvetica,sans-Serif" font-size="10.00">SyntaxAnalyzer::syntaxTerm</text>
</a>
</g>
</g>
<!-- Node17&#45;&gt;Node18 -->
<g id="edge35" class="edge">
<title>Node17&#45;&gt;Node18</title>
<path fill="none" stroke="midnightblue" d="M657.2,-275.59C682.97,-280.72 714.89,-287.07 742.01,-292.46"/>
<polygon fill="midnightblue" stroke="midnightblue" points="741.66,-295.96 752.15,-294.48 743.02,-289.1 741.66,-295.96"/>
</g>
<!-- Node18&#45;&gt;Node1 -->
<g id="edge41" class="edge">
<title>Node18&#45;&gt;Node1</title>
<path fill="none" stroke="midnightblue" d="M732.14,-306.55C612.95,-313.65 361.39,-340.49 179,-442 138,-464.82 102.7,-508.33 84.87,-532.92"/>
<polygon fill="midnightblue" stroke="midnightblue" points="81.84,-531.14 78.92,-541.33 87.55,-535.19 81.84,-531.14"/>
</g>
<!-- Node18&#45;&gt;Node2 -->
<g id="edge36" class="edge">
<title>Node18&#45;&gt;Node2</title>
<path fill="none" stroke="midnightblue" d="M808.61,-313.68C833.93,-350.8 925.05,-484.38 958.27,-533.07"/>
<polygon fill="midnightblue" stroke="midnightblue" points="955.41,-535.1 963.94,-541.38 961.2,-531.15 955.41,-535.1"/>
</g>
<!-- Node18&#45;&gt;Node4 -->
<g id="edge39" class="edge">
<title>Node18&#45;&gt;Node4</title>
<path fill="none" stroke="midnightblue" d="M853.85,-313.53C902.47,-324.16 975.75,-344.71 1031,-380 1069.5,-404.59 1106.21,-444.05 1125.65,-466.63"/>
<polygon fill="midnightblue" stroke="midnightblue" points="1123.09,-469.02 1132.22,-474.39 1128.43,-464.5 1123.09,-469.02"/>
</g>
<!-- Node18&#45;&gt;Node5 -->
<g id="edge37" class="edge">
<title>Node18&#45;&gt;Node5</title>
<path fill="none" stroke="midnightblue" d="M839.48,-313.52C851.49,-317.26 864.61,-322.09 876,-328 905.06,-343.09 934.61,-366.95 952.74,-382.79"/>
<polygon fill="midnightblue" stroke="midnightblue" points="950.43,-385.42 960.23,-389.44 955.08,-380.18 950.43,-385.42"/>
</g>
<!-- Node18&#45;&gt;Node6 -->
<g id="edge38" class="edge">
<title>Node18&#45;&gt;Node6</title>
<path fill="none" stroke="midnightblue" d="M826.31,-294.43C885.6,-271.1 1037.8,-211.22 1106.02,-184.37"/>
<polygon fill="midnightblue" stroke="midnightblue" points="1107.43,-187.58 1115.46,-180.66 1104.87,-181.06 1107.43,-187.58"/>
</g>
<!-- Node18&#45;&gt;Node16 -->
<g id="edge40" class="edge">
<title>Node18&#45;&gt;Node16</title>
<path fill="none" stroke="midnightblue" d="M813.58,-294.2C839.61,-272.21 901.35,-220.35 912,-214 922.43,-207.78 934.78,-202.45 945.43,-198.41"/>
<polygon fill="midnightblue" stroke="midnightblue" points="946.8,-201.64 955,-194.94 944.41,-195.06 946.8,-201.64"/>
</g>
<!-- Node19&#45;&gt;Node2 -->
<g id="edge45" class="edge">
<title>Node19&#45;&gt;Node2</title>
<path fill="none" stroke="midnightblue" d="M831.93,-503.54C845.42,-507.88 861.54,-513.13 876,-518 895.14,-524.44 916.37,-531.84 933.85,-537.99"/>
<polygon fill="midnightblue" stroke="midnightblue" points="933.08,-541.43 943.67,-541.45 935.4,-534.82 933.08,-541.43"/>
</g>
<!-- Node19&#45;&gt;Node5 -->
<g id="edge46" class="edge">
<title>Node19&#45;&gt;Node5</title>
<path fill="none" stroke="midnightblue" d="M839.48,-484.48C851.49,-480.74 864.61,-475.91 876,-470 905.06,-454.91 934.61,-431.05 952.74,-415.21"/>
<polygon fill="midnightblue" stroke="midnightblue" points="955.08,-417.82 960.23,-408.56 950.43,-412.58 955.08,-417.82"/>
</g>
<!-- Node19&#45;&gt;Node6 -->
<g id="edge47" class="edge">
<title>Node19&#45;&gt;Node6</title>
<path fill="none" stroke="midnightblue" d="M876.15,-485.22C925.31,-475.93 988.37,-456.88 1031,-418 1101.06,-354.1 1128.46,-236.93 1136.87,-190.6"/>
<polygon fill="midnightblue" stroke="midnightblue" points="1140.34,-191.1 1138.58,-180.65 1133.44,-189.92 1140.34,-191.1"/>
</g>
</g>
</svg>
