<?xml version="1.0" encoding="UTF-8" standalone="no"?>
<!DOCTYPE svg PUBLIC "-//W3C//DTD SVG 1.1//EN"
 "http://www.w3.org/Graphics/SVG/1.1/DTD/svg11.dtd">
<!-- Generated by graphviz version 3.0.0 (20220413.0106)
 -->
<!-- Title: SyntaxAnalyzer::syntaxWhileSt Pages: 1 -->
<svg width="2326pt" height="1999pt"
 viewBox="0.00 0.00 2326.00 1999.35" xmlns="http://www.w3.org/2000/svg" xmlns:xlink="http://www.w3.org/1999/xlink">
<g id="graph0" class="graph" transform="scale(1 1) rotate(0) translate(4 1995.35)">
<title>SyntaxAnalyzer::syntaxWhileSt</title>
<!-- Node1 -->
<g id="node1" class="node">
<title>Node1</title>
<g id="a_node1"><a xlink:title=" ">
<polygon fill="#bfbfbf" stroke="black" points="0,-1069.85 0,-1088.85 149,-1088.85 149,-1069.85 0,-1069.85"/>
<text text-anchor="middle" x="74.5" y="-1076.85" font-family="Helvetica,sans-Serif" font-size="10.00">SyntaxAnalyzer::syntaxWhileSt</text>
</a>
</g>
</g>
<!-- Node2 -->
<g id="node2" class="node">
<title>Node2</title>
<g id="a_node2"><a xlink:href="../../d7/d7c/class_a_s_t_factory.html#a8d1d4c9d01ab2e366d1af6bbaeaf7bef" target="_top" xlink:title=" ">
<polygon fill="none" stroke="black" points="2015,-1373.85 2015,-1392.85 2134,-1392.85 2134,-1373.85 2015,-1373.85"/>
<text text-anchor="middle" x="2074.5" y="-1380.85" font-family="Helvetica,sans-Serif" font-size="10.00">ASTFactory::createAST</text>
</a>
</g>
</g>
<!-- Node1&#45;&gt;Node2 -->
<g id="edge1" class="edge">
<title>Node1&#45;&gt;Node2</title>
<path fill="none" stroke="midnightblue" d="M77.3,-1088.87C94.56,-1178.9 234.25,-1877.35 414.5,-1877.35 414.5,-1877.35 414.5,-1877.35 787.5,-1877.35 1058.27,-1877.35 1775.59,-1801.07 1979,-1622.35 1996.52,-1606.96 2048.46,-1457.27 2066.91,-1402.93"/>
<polygon fill="midnightblue" stroke="midnightblue" points="2070.34,-1403.73 2070.22,-1393.13 2063.7,-1401.48 2070.34,-1403.73"/>
</g>
<!-- Node6 -->
<g id="node6" class="node">
<title>Node6</title>
<g id="a_node6"><a xlink:href="../../d0/dfe/class_syntax_analyzer.html#ae1d3434e5cc4b4bcd5a3a245814a44f0" target="_top" xlink:title=" ">
<polygon fill="none" stroke="black" points="2024,-366.85 2024,-385.85 2125,-385.85 2125,-366.85 2024,-366.85"/>
<text text-anchor="middle" x="2074.5" y="-373.85" font-family="Helvetica,sans-Serif" font-size="10.00">SyntaxAnalyzer::eat</text>
</a>
</g>
</g>
<!-- Node1&#45;&gt;Node6 -->
<g id="edge5" class="edge">
<title>Node1&#45;&gt;Node6</title>
<path fill="none" stroke="midnightblue" d="M75.75,-1069.64C78.04,-984.62 97.64,-365.97 185,-206.35 248.71,-89.94 281.8,-15.35 414.5,-15.35 414.5,-15.35 414.5,-15.35 1708.5,-15.35 1829.41,-15.35 1886.53,33.56 1979,-44.35 2028.18,-85.79 2061.32,-291.08 2070.75,-356.37"/>
<polygon fill="midnightblue" stroke="midnightblue" points="2067.32,-357.14 2072.19,-366.56 2074.25,-356.16 2067.32,-357.14"/>
</g>
<!-- Node7 -->
<g id="node7" class="node">
<title>Node7</title>
<g id="a_node7"><a xlink:href="../../d0/dfe/class_syntax_analyzer.html#a3ae6c7319e61cd669c417f189b098374" target="_top" xlink:title=" ">
<polygon fill="none" stroke="black" points="2178,-784.85 2178,-803.85 2310,-803.85 2310,-784.85 2178,-784.85"/>
<text text-anchor="middle" x="2244" y="-791.85" font-family="Helvetica,sans-Serif" font-size="10.00">SyntaxAnalyzer::getCurTok</text>
</a>
</g>
</g>
<!-- Node1&#45;&gt;Node7 -->
<g id="edge8" class="edge">
<title>Node1&#45;&gt;Node7</title>
<path fill="none" stroke="midnightblue" d="M75.71,-1088.87C77.26,-1146.19 89.84,-1450.59 185,-1673.35 253.47,-1833.63 240.2,-1991.35 414.5,-1991.35 414.5,-1991.35 414.5,-1991.35 1905,-1991.35 1946.52,-1991.35 2085.6,-1863.74 2134,-1752.35 2178.57,-1649.77 2157.15,-1361.45 2170,-1250.35 2189.64,-1080.53 2227.21,-877.25 2239.21,-814.06"/>
<polygon fill="midnightblue" stroke="midnightblue" points="2242.71,-814.41 2241.15,-803.93 2235.83,-813.1 2242.71,-814.41"/>
</g>
<!-- Node9 -->
<g id="node9" class="node">
<title>Node9</title>
<g id="a_node9"><a xlink:href="../../d0/dfe/class_syntax_analyzer.html#ae8d09db1b25ec882248aeed978c13a4d" target="_top" xlink:title=" ">
<polygon fill="none" stroke="black" points="900,-708.85 900,-727.85 1034,-727.85 1034,-708.85 900,-708.85"/>
<text text-anchor="middle" x="967" y="-715.85" font-family="Helvetica,sans-Serif" font-size="10.00">SyntaxAnalyzer::syntaxExpr</text>
</a>
</g>
</g>
<!-- Node1&#45;&gt;Node9 -->
<g id="edge9" class="edge">
<title>Node1&#45;&gt;Node9</title>
<path fill="none" stroke="midnightblue" d="M76.72,-1069.64C89.57,-969.54 203.7,-129.35 414.5,-129.35 414.5,-129.35 414.5,-129.35 598,-129.35 872.86,-129.35 950.01,-596.37 963.61,-698.69"/>
<polygon fill="midnightblue" stroke="midnightblue" points="960.14,-699.14 964.88,-708.62 967.09,-698.26 960.14,-699.14"/>
</g>
<!-- Node21 -->
<g id="node21" class="node">
<title>Node21</title>
<g id="a_node21"><a xlink:href="../../d0/dfe/class_syntax_analyzer.html#a7f54bde730006b1b863290415809ab4e" target="_top" xlink:title=" ">
<polygon fill="none" stroke="black" points="185,-1069.85 185,-1088.85 310,-1088.85 310,-1069.85 185,-1069.85"/>
<text text-anchor="middle" x="247.5" y="-1076.85" font-family="Helvetica,sans-Serif" font-size="10.00">SyntaxAnalyzer::syntaxSt</text>
</a>
</g>
</g>
<!-- Node1&#45;&gt;Node21 -->
<g id="edge58" class="edge">
<title>Node1&#45;&gt;Node21</title>
<path fill="none" stroke="midnightblue" d="M149.01,-1072.66C157.51,-1072.58 166.16,-1072.58 174.64,-1072.68"/>
<polygon fill="midnightblue" stroke="midnightblue" points="174.8,-1076.18 184.86,-1072.84 174.91,-1069.18 174.8,-1076.18"/>
</g>
<!-- Node3 -->
<g id="node3" class="node">
<title>Node3</title>
<g id="a_node3"><a xlink:href="../../d0/d11/class_i_token.html#a3e73305ee0ac36d0bf5f26b649589b24" target="_top" xlink:title=" ">
<polygon fill="none" stroke="black" points="2192.5,-1905.85 2192.5,-1924.85 2295.5,-1924.85 2295.5,-1905.85 2192.5,-1905.85"/>
<text text-anchor="middle" x="2244" y="-1912.85" font-family="Helvetica,sans-Serif" font-size="10.00">IToken::getAdvType</text>
</a>
</g>
</g>
<!-- Node2&#45;&gt;Node3 -->
<g id="edge2" class="edge">
<title>Node2&#45;&gt;Node3</title>
<path fill="none" stroke="midnightblue" d="M2078.55,-1393.04C2098.41,-1456.11 2209.35,-1808.46 2236.84,-1895.77"/>
<polygon fill="midnightblue" stroke="midnightblue" points="2233.55,-1896.99 2239.89,-1905.48 2240.23,-1894.89 2233.55,-1896.99"/>
</g>
<!-- Node4 -->
<g id="node4" class="node">
<title>Node4</title>
<g id="a_node4"><a xlink:href="../../d0/d11/class_i_token.html#ac7f0a800d7a9e8608bab0360c76d735a" target="_top" xlink:title="Получение типа токена">
<polygon fill="none" stroke="black" points="2201,-1259.85 2201,-1278.85 2287,-1278.85 2287,-1259.85 2201,-1259.85"/>
<text text-anchor="middle" x="2244" y="-1266.85" font-family="Helvetica,sans-Serif" font-size="10.00">IToken::getType</text>
</a>
</g>
</g>
<!-- Node2&#45;&gt;Node4 -->
<g id="edge3" class="edge">
<title>Node2&#45;&gt;Node4</title>
<path fill="none" stroke="midnightblue" d="M2089.49,-1373.83C2118.36,-1354.18 2184.78,-1308.98 2220.04,-1284.98"/>
<polygon fill="midnightblue" stroke="midnightblue" points="2222.39,-1287.61 2228.69,-1279.09 2218.46,-1281.82 2222.39,-1287.61"/>
</g>
<!-- Node5 -->
<g id="node5" class="node">
<title>Node5</title>
<g id="a_node5"><a xlink:href="../../db/dc1/class_token.html#a1f07fa2fffeb2f7ab803ef8b424eae8a" target="_top" xlink:title=" ">
<polygon fill="none" stroke="black" points="2207,-1373.85 2207,-1392.85 2281,-1392.85 2281,-1373.85 2207,-1373.85"/>
<text text-anchor="middle" x="2244" y="-1380.85" font-family="Helvetica,sans-Serif" font-size="10.00">Token::setStr</text>
</a>
</g>
</g>
<!-- Node2&#45;&gt;Node5 -->
<g id="edge4" class="edge">
<title>Node2&#45;&gt;Node5</title>
<path fill="none" stroke="midnightblue" d="M2134.08,-1383.35C2154.56,-1383.35 2177.24,-1383.35 2196.58,-1383.35"/>
<polygon fill="midnightblue" stroke="midnightblue" points="2196.66,-1386.85 2206.65,-1383.35 2196.65,-1379.85 2196.66,-1386.85"/>
</g>
<!-- Node6&#45;&gt;Node7 -->
<g id="edge6" class="edge">
<title>Node6&#45;&gt;Node7</title>
<path fill="none" stroke="midnightblue" d="M2080.72,-386.06C2091.41,-406.14 2116.29,-453.85 2134,-495.35 2178.15,-598.84 2221.03,-726.88 2236.73,-774.93"/>
<polygon fill="midnightblue" stroke="midnightblue" points="2233.47,-776.22 2239.89,-784.65 2240.12,-774.06 2233.47,-776.22"/>
</g>
<!-- Node8 -->
<g id="node8" class="node">
<title>Node8</title>
<g id="a_node8"><a xlink:href="../../d0/dfe/class_syntax_analyzer.html#a9e41370d8d74fbd2e77648d2071e7dfe" target="_top" xlink:title=" ">
<polygon fill="none" stroke="black" points="2170,-461.85 2170,-480.85 2318,-480.85 2318,-461.85 2170,-461.85"/>
<text text-anchor="middle" x="2244" y="-468.85" font-family="Helvetica,sans-Serif" font-size="10.00">SyntaxAnalyzer::getNextToken</text>
</a>
</g>
</g>
<!-- Node6&#45;&gt;Node8 -->
<g id="edge7" class="edge">
<title>Node6&#45;&gt;Node8</title>
<path fill="none" stroke="midnightblue" d="M2092.48,-385.98C2121.83,-402.63 2182.21,-436.87 2216.91,-456.55"/>
<polygon fill="midnightblue" stroke="midnightblue" points="2215.55,-459.8 2225.97,-461.69 2219,-453.72 2215.55,-459.8"/>
</g>
<!-- Node9&#45;&gt;Node2 -->
<g id="edge10" class="edge">
<title>Node9&#45;&gt;Node2</title>
<path fill="none" stroke="midnightblue" d="M972.32,-727.99C985.11,-756.08 1024.78,-839.79 1070,-901.35 1203.51,-1083.1 1256.67,-1118.31 1443,-1245.35 1504.28,-1287.13 1522.58,-1292.9 1586,-1331.35 1602.03,-1341.07 1604.16,-1347.58 1622,-1353.35 1752.27,-1395.49 1914.43,-1394.16 2004.68,-1389.01"/>
<polygon fill="midnightblue" stroke="midnightblue" points="2005.01,-1392.5 2014.78,-1388.4 2004.59,-1385.51 2005.01,-1392.5"/>
</g>
<!-- Node9&#45;&gt;Node4 -->
<g id="edge13" class="edge">
<title>Node9&#45;&gt;Node4</title>
<path fill="none" stroke="midnightblue" d="M969.53,-727.94C976.03,-766.32 1004.02,-911.47 1070,-1009.35 1301.41,-1352.63 1431.66,-1433.1 1829,-1549.35 1892.98,-1568.07 1917.08,-1574.04 1979,-1549.35 2045.42,-1522.86 2185.33,-1344.92 2229.41,-1287.31"/>
<polygon fill="midnightblue" stroke="midnightblue" points="2232.35,-1289.21 2235.63,-1279.14 2226.79,-1284.97 2232.35,-1289.21"/>
</g>
<!-- Node9&#45;&gt;Node6 -->
<g id="edge11" class="edge">
<title>Node9&#45;&gt;Node6</title>
<path fill="none" stroke="midnightblue" d="M972.19,-708.58C983.84,-682.52 1019.13,-610.68 1070,-571.35 1275.5,-412.48 1367.04,-429.02 1622,-379.35 1777.94,-348.97 1820.62,-348.86 1979,-361.35 1990.27,-362.24 2002.23,-363.72 2013.71,-365.4"/>
<polygon fill="midnightblue" stroke="midnightblue" points="2013.23,-368.87 2023.65,-366.93 2014.3,-361.95 2013.23,-368.87"/>
</g>
<!-- Node9&#45;&gt;Node7 -->
<g id="edge12" class="edge">
<title>Node9&#45;&gt;Node7</title>
<path fill="none" stroke="midnightblue" d="M982.79,-708.79C1031.42,-678.29 1191.6,-585.35 1337.5,-585.35 1337.5,-585.35 1337.5,-585.35 1708.5,-585.35 1900.92,-585.35 1971.68,-562.01 2134,-665.35 2179.13,-694.08 2215.31,-747.4 2232.36,-775.65"/>
<polygon fill="midnightblue" stroke="midnightblue" points="2229.49,-777.68 2237.58,-784.52 2235.52,-774.13 2229.49,-777.68"/>
</g>
<!-- Node10 -->
<g id="node10" class="node">
<title>Node10</title>
<g id="a_node10"><a xlink:href="../../db/d0e/sup_8hpp.html#ae7d62ca130413d4c96863327c1af81a4" target="_top" xlink:title="Возвращает истину, если value находится среди значений cont.">
<polygon fill="none" stroke="black" points="1498.5,-651.85 1498.5,-670.85 1530.5,-670.85 1530.5,-651.85 1498.5,-651.85"/>
<text text-anchor="middle" x="1514.5" y="-658.85" font-family="Helvetica,sans-Serif" font-size="10.00">isIn</text>
</a>
</g>
</g>
<!-- Node9&#45;&gt;Node10 -->
<g id="edge14" class="edge">
<title>Node9&#45;&gt;Node10</title>
<path fill="none" stroke="midnightblue" d="M1015.63,-708.82C1032.74,-705.57 1052.19,-702.07 1070,-699.35 1158.5,-685.81 1180.82,-683.26 1270,-675.35 1349.52,-668.3 1443.97,-664.04 1488.24,-662.29"/>
<polygon fill="midnightblue" stroke="midnightblue" points="1488.52,-665.78 1498.37,-661.89 1488.25,-658.78 1488.52,-665.78"/>
</g>
<!-- Node11 -->
<g id="node11" class="node">
<title>Node11</title>
<g id="a_node11"><a xlink:href="../../d0/dfe/class_syntax_analyzer.html#a3dfb6634a4bcdc61da5b1bafd1f3d136" target="_top" xlink:title=" ">
<polygon fill="none" stroke="black" points="1070,-708.85 1070,-727.85 1234,-727.85 1234,-708.85 1070,-708.85"/>
<text text-anchor="middle" x="1152" y="-715.85" font-family="Helvetica,sans-Serif" font-size="10.00">SyntaxAnalyzer::syntaxSimpleExpr</text>
</a>
</g>
</g>
<!-- Node9&#45;&gt;Node11 -->
<g id="edge15" class="edge">
<title>Node9&#45;&gt;Node11</title>
<path fill="none" stroke="midnightblue" d="M1034.07,-718.35C1042.38,-718.35 1051,-718.35 1059.62,-718.35"/>
<polygon fill="midnightblue" stroke="midnightblue" points="1059.72,-721.85 1069.72,-718.35 1059.72,-714.85 1059.72,-721.85"/>
</g>
<!-- Node11&#45;&gt;Node2 -->
<g id="edge16" class="edge">
<title>Node11&#45;&gt;Node2</title>
<path fill="none" stroke="midnightblue" d="M1154.01,-728.03C1158.94,-770.99 1183.81,-947.04 1270,-1055.35 1314.77,-1111.6 1357.74,-1088.98 1407,-1141.35 1429.89,-1165.69 1417.39,-1185.89 1443,-1207.35 1494.38,-1250.42 1534.62,-1212.28 1586,-1255.35 1611.61,-1276.82 1594.47,-1302.41 1622,-1321.35 1687.95,-1366.72 1899.74,-1358.15 1979,-1369.35 1987.32,-1370.53 1996.05,-1371.79 2004.7,-1373.05"/>
<polygon fill="midnightblue" stroke="midnightblue" points="2004.39,-1376.54 2014.79,-1374.53 2005.4,-1369.61 2004.39,-1376.54"/>
</g>
<!-- Node11&#45;&gt;Node4 -->
<g id="edge19" class="edge">
<title>Node11&#45;&gt;Node4</title>
<path fill="none" stroke="midnightblue" d="M1158.92,-727.96C1186.11,-771.34 1303.55,-951.13 1443,-1051.35 1683.67,-1224.32 2054.67,-1260.07 2190.7,-1267.44"/>
<polygon fill="midnightblue" stroke="midnightblue" points="2190.68,-1270.95 2200.85,-1267.96 2191.04,-1263.96 2190.68,-1270.95"/>
</g>
<!-- Node11&#45;&gt;Node6 -->
<g id="edge17" class="edge">
<title>Node11&#45;&gt;Node6</title>
<path fill="none" stroke="midnightblue" d="M1161.18,-708.69C1179.08,-688.06 1223.82,-639.16 1270,-609.35 1496.28,-463.28 1564.94,-428.39 1829,-375.35 1891.1,-362.88 1963.88,-365.28 2013.78,-369.46"/>
<polygon fill="midnightblue" stroke="midnightblue" points="2013.49,-372.95 2023.76,-370.35 2014.11,-365.98 2013.49,-372.95"/>
</g>
<!-- Node11&#45;&gt;Node7 -->
<g id="edge18" class="edge">
<title>Node11&#45;&gt;Node7</title>
<path fill="none" stroke="midnightblue" d="M1174.02,-708.72C1228.72,-684.57 1380.49,-623.35 1513.5,-623.35 1513.5,-623.35 1513.5,-623.35 1708.5,-623.35 1902.27,-623.35 1956.62,-640.35 2134,-718.35 2168.89,-733.69 2204.15,-760.89 2224.77,-778.25"/>
<polygon fill="midnightblue" stroke="midnightblue" points="2222.55,-780.96 2232.42,-784.81 2227.1,-775.64 2222.55,-780.96"/>
</g>
<!-- Node11&#45;&gt;Node10 -->
<g id="edge20" class="edge">
<title>Node11&#45;&gt;Node10</title>
<path fill="none" stroke="midnightblue" d="M1213.34,-708.81C1293.39,-696.15 1431.19,-674.37 1487.94,-665.39"/>
<polygon fill="midnightblue" stroke="midnightblue" points="1488.84,-668.79 1498.17,-663.77 1487.74,-661.88 1488.84,-668.79"/>
</g>
<!-- Node12 -->
<g id="node12" class="node">
<title>Node12</title>
<g id="a_node12"><a xlink:href="../../d0/dfe/class_syntax_analyzer.html#a1e9b913cc8c2861927d7c05d10f1822d" target="_top" xlink:title=" ">
<polygon fill="none" stroke="black" points="1270,-727.85 1270,-746.85 1407,-746.85 1407,-727.85 1270,-727.85"/>
<text text-anchor="middle" x="1338.5" y="-734.85" font-family="Helvetica,sans-Serif" font-size="10.00">SyntaxAnalyzer::syntaxTerm</text>
</a>
</g>
</g>
<!-- Node11&#45;&gt;Node12 -->
<g id="edge21" class="edge">
<title>Node11&#45;&gt;Node12</title>
<path fill="none" stroke="midnightblue" d="M1234.19,-726.71C1242.65,-727.58 1251.23,-728.47 1259.64,-729.33"/>
<polygon fill="midnightblue" stroke="midnightblue" points="1259.5,-732.84 1269.81,-730.38 1260.22,-725.87 1259.5,-732.84"/>
</g>
<!-- Node12&#45;&gt;Node2 -->
<g id="edge22" class="edge">
<title>Node12&#45;&gt;Node2</title>
<path fill="none" stroke="midnightblue" d="M1341.36,-747.09C1351.27,-798.12 1398.99,-1034.64 1443,-1093.35 1499.58,-1168.82 1537.1,-1166.27 1622,-1207.35 1773.19,-1280.51 1825.54,-1263.06 1979,-1331.35 2003.59,-1342.29 2030.35,-1357.34 2049.1,-1368.43"/>
<polygon fill="midnightblue" stroke="midnightblue" points="2047.49,-1371.54 2057.87,-1373.68 2051.08,-1365.54 2047.49,-1371.54"/>
</g>
<!-- Node12&#45;&gt;Node4 -->
<g id="edge25" class="edge">
<title>Node12&#45;&gt;Node4</title>
<path fill="none" stroke="midnightblue" d="M1341.02,-746.9C1347.23,-783.2 1373.72,-914.47 1443,-993.35 1503.28,-1061.99 1535.86,-1063.96 1622,-1094.35 1839.53,-1171.08 1924.08,-1083.74 2134,-1179.35 2172.45,-1196.86 2208.48,-1231.52 2227.95,-1252.34"/>
<polygon fill="midnightblue" stroke="midnightblue" points="2225.47,-1254.82 2234.8,-1259.83 2230.64,-1250.09 2225.47,-1254.82"/>
</g>
<!-- Node12&#45;&gt;Node6 -->
<g id="edge23" class="edge">
<title>Node12&#45;&gt;Node6</title>
<path fill="none" stroke="midnightblue" d="M1395.88,-727.85C1458.05,-716.75 1553.57,-697.71 1586,-680.35 1697.44,-620.71 1718.66,-587.57 1793,-485.35 1814.98,-455.12 1798.83,-431.41 1829,-409.35 1857.54,-388.49 1950.92,-380.81 2013.66,-377.99"/>
<polygon fill="midnightblue" stroke="midnightblue" points="2014,-381.48 2023.84,-377.56 2013.7,-374.48 2014,-381.48"/>
</g>
<!-- Node12&#45;&gt;Node7 -->
<g id="edge24" class="edge">
<title>Node12&#45;&gt;Node7</title>
<path fill="none" stroke="midnightblue" d="M1407.43,-729.09C1524.52,-716.25 1771.74,-695.24 1979,-718.35 2049.19,-726.18 2066.34,-733.09 2134,-753.35 2160.37,-761.25 2189.52,-772.34 2211.04,-781"/>
<polygon fill="midnightblue" stroke="midnightblue" points="2209.77,-784.26 2220.35,-784.78 2212.4,-777.77 2209.77,-784.26"/>
</g>
<!-- Node12&#45;&gt;Node10 -->
<g id="edge26" class="edge">
<title>Node12&#45;&gt;Node10</title>
<path fill="none" stroke="midnightblue" d="M1373.03,-727.79C1384.17,-724 1396.42,-719.15 1407,-713.35 1424.78,-703.61 1425.16,-694.97 1443,-685.35 1457.33,-677.62 1474.62,-671.69 1488.49,-667.66"/>
<polygon fill="midnightblue" stroke="midnightblue" points="1489.61,-670.98 1498.32,-664.95 1487.75,-664.23 1489.61,-670.98"/>
</g>
<!-- Node13 -->
<g id="node13" class="node">
<title>Node13</title>
<g id="a_node13"><a xlink:href="../../d0/dfe/class_syntax_analyzer.html#a3af9b5161a2cef6fdd26b0bb60334ac4" target="_top" xlink:title=" ">
<polygon fill="none" stroke="black" points="1443,-946.85 1443,-965.85 1586,-965.85 1586,-946.85 1443,-946.85"/>
<text text-anchor="middle" x="1514.5" y="-953.85" font-family="Helvetica,sans-Serif" font-size="10.00">SyntaxAnalyzer::syntaxFactor</text>
</a>
</g>
</g>
<!-- Node12&#45;&gt;Node13 -->
<g id="edge27" class="edge">
<title>Node12&#45;&gt;Node13</title>
<path fill="none" stroke="midnightblue" d="M1347.2,-747.04C1374.15,-780.96 1464.48,-894.66 1499.48,-938.71"/>
<polygon fill="midnightblue" stroke="midnightblue" points="1496.93,-941.12 1505.89,-946.77 1502.41,-936.76 1496.93,-941.12"/>
</g>
<!-- Node13&#45;&gt;Node2 -->
<g id="edge28" class="edge">
<title>Node13&#45;&gt;Node2</title>
<path fill="none" stroke="midnightblue" d="M1519.01,-966.06C1529.9,-994.97 1565.83,-1081.58 1622,-1131.35 1687.21,-1189.13 1906.78,-1244.63 1979,-1293.35 2010.55,-1314.64 2041.39,-1346.75 2058.86,-1366.3"/>
<polygon fill="midnightblue" stroke="midnightblue" points="2056.26,-1368.65 2065.5,-1373.85 2061.52,-1364.03 2056.26,-1368.65"/>
</g>
<!-- Node13&#45;&gt;Node3 -->
<g id="edge33" class="edge">
<title>Node13&#45;&gt;Node3</title>
<path fill="none" stroke="midnightblue" d="M1518.89,-966.03C1530.54,-998.6 1570.98,-1106.68 1622,-1186.35 1822.68,-1499.71 2147.12,-1822.36 2225.54,-1898.54"/>
<polygon fill="midnightblue" stroke="midnightblue" points="2223.11,-1901.06 2232.73,-1905.5 2227.98,-1896.03 2223.11,-1901.06"/>
</g>
<!-- Node13&#45;&gt;Node4 -->
<g id="edge35" class="edge">
<title>Node13&#45;&gt;Node4</title>
<path fill="none" stroke="midnightblue" d="M1522.15,-966.09C1537.18,-987.23 1576.04,-1037.28 1622,-1060.35 1827.9,-1163.7 1933.06,-1028.65 2134,-1141.35 2180.68,-1167.53 2216.42,-1221.88 2232.93,-1250.61"/>
<polygon fill="midnightblue" stroke="midnightblue" points="2230.03,-1252.59 2237.96,-1259.62 2236.14,-1249.18 2230.03,-1252.59"/>
</g>
<!-- Node13&#45;&gt;Node6 -->
<g id="edge29" class="edge">
<title>Node13&#45;&gt;Node6</title>
<path fill="none" stroke="midnightblue" d="M1563.29,-946.73C1571.65,-943.3 1579.68,-938.65 1586,-932.35 1620.92,-897.5 1584.77,-859.72 1622,-827.35 1680.42,-776.57 1740.71,-851.42 1793,-794.35 1897.75,-680.04 1727.58,-564.63 1829,-447.35 1873.99,-395.33 1913.14,-429.15 1979,-409.35 1998.75,-403.41 2020.51,-395.89 2038.16,-389.52"/>
<polygon fill="midnightblue" stroke="midnightblue" points="2039.83,-392.64 2048.03,-385.93 2037.44,-386.06 2039.83,-392.64"/>
</g>
<!-- Node13&#45;&gt;Node7 -->
<g id="edge34" class="edge">
<title>Node13&#45;&gt;Node7</title>
<path fill="none" stroke="midnightblue" d="M1583.59,-946.81C1653.2,-936.44 1756.18,-919.23 1793,-903.35 1811.12,-895.54 1810.91,-885.25 1829,-877.35 1940.84,-828.52 2082.31,-808.1 2167.56,-799.79"/>
<polygon fill="midnightblue" stroke="midnightblue" points="2168.05,-803.26 2177.68,-798.83 2167.39,-796.29 2168.05,-803.26"/>
</g>
<!-- Node13&#45;&gt;Node9 -->
<g id="edge44" class="edge">
<title>Node13&#45;&gt;Node9</title>
<path fill="none" stroke="midnightblue" d="M1479.74,-946.78C1403.94,-924.64 1215.46,-865.84 1070,-789.35 1039.56,-773.34 1007.48,-749.74 987.6,-734.21"/>
<polygon fill="midnightblue" stroke="midnightblue" points="989.64,-731.36 979.63,-727.89 985.3,-736.85 989.64,-731.36"/>
</g>
<!-- Node13&#45;&gt;Node13 -->
<g id="edge45" class="edge">
<title>Node13&#45;&gt;Node13</title>
<path fill="none" stroke="midnightblue" d="M1487.37,-966.11C1474.18,-974.92 1483.22,-984.35 1514.5,-984.35 1536.01,-984.35 1547,-979.89 1547.48,-974.24"/>
<polygon fill="midnightblue" stroke="midnightblue" points="1550.31,-972.18 1541.63,-966.11 1544.63,-976.27 1550.31,-972.18"/>
</g>
<!-- Node14 -->
<g id="node14" class="node">
<title>Node14</title>
<g id="a_node14"><a xlink:href="../../d0/dfe/class_syntax_analyzer.html#a9952c4a2db0a1382b9c94f40dd535fae" target="_top" xlink:title=" ">
<polygon fill="none" stroke="black" points="2015.5,-575.85 2015.5,-594.85 2133.5,-594.85 2133.5,-575.85 2015.5,-575.85"/>
<text text-anchor="middle" x="2074.5" y="-582.85" font-family="Helvetica,sans-Serif" font-size="10.00">SyntaxAnalyzer::eatAdv</text>
</a>
</g>
</g>
<!-- Node13&#45;&gt;Node14 -->
<g id="edge30" class="edge">
<title>Node13&#45;&gt;Node14</title>
<path fill="none" stroke="midnightblue" d="M1560.3,-946.72C1569.49,-943.27 1578.6,-938.62 1586,-932.35 1611.79,-910.5 1595.05,-885.76 1622,-865.35 1684.06,-818.35 1735.26,-879.57 1793,-827.35 1830.84,-793.13 1796.3,-757.51 1829,-718.35 1882.51,-654.28 1975.13,-616.12 2029.72,-598.07"/>
<polygon fill="midnightblue" stroke="midnightblue" points="2031.01,-601.33 2039.45,-594.93 2028.86,-594.67 2031.01,-601.33"/>
</g>
<!-- Node15 -->
<g id="node15" class="node">
<title>Node15</title>
<g id="a_node15"><a xlink:href="../../d0/dfe/class_syntax_analyzer.html#af0905389742c4f842207bb2c073afbfa" target="_top" xlink:title=" ">
<polygon fill="none" stroke="black" points="1639,-765.85 1639,-784.85 1776,-784.85 1776,-765.85 1639,-765.85"/>
<text text-anchor="middle" x="1707.5" y="-772.85" font-family="Helvetica,sans-Serif" font-size="10.00">SyntaxAnalyzer::lookFoward</text>
</a>
</g>
</g>
<!-- Node13&#45;&gt;Node15 -->
<g id="edge36" class="edge">
<title>Node13&#45;&gt;Node15</title>
<path fill="none" stroke="midnightblue" d="M1564.35,-946.75C1572.42,-943.32 1580.07,-938.67 1586,-932.35 1627.9,-887.69 1578.97,-842.92 1622,-799.35 1625.88,-795.42 1630.36,-792.12 1635.19,-789.35"/>
<polygon fill="midnightblue" stroke="midnightblue" points="1636.77,-792.47 1644.2,-784.92 1633.68,-786.19 1636.77,-792.47"/>
</g>
<!-- Node17 -->
<g id="node17" class="node">
<title>Node17</title>
<g id="a_node17"><a xlink:href="../../d0/dfe/class_syntax_analyzer.html#a2db43946bee3e973ce1cf293b262e271" target="_top" xlink:title=" ">
<polygon fill="none" stroke="black" points="1833.5,-727.85 1833.5,-746.85 1974.5,-746.85 1974.5,-727.85 1833.5,-727.85"/>
<text text-anchor="middle" x="1904" y="-734.85" font-family="Helvetica,sans-Serif" font-size="10.00">SyntaxAnalyzer::syntaxCallSt</text>
</a>
</g>
</g>
<!-- Node13&#45;&gt;Node17 -->
<g id="edge38" class="edge">
<title>Node13&#45;&gt;Node17</title>
<path fill="none" stroke="midnightblue" d="M1547.14,-946.76C1559.43,-942.73 1573.53,-937.72 1586,-932.35 1602.61,-925.19 1605.2,-920.06 1622,-913.35 1695.32,-884.1 1735.93,-919.89 1793,-865.35 1829.88,-830.1 1791.72,-791.18 1829,-756.35 1830.53,-754.92 1832.14,-753.6 1833.84,-752.37"/>
<polygon fill="midnightblue" stroke="midnightblue" points="1836.05,-755.13 1842.85,-747.01 1832.47,-749.12 1836.05,-755.13"/>
</g>
<!-- Node19 -->
<g id="node19" class="node">
<title>Node19</title>
<g id="a_node19"><a xlink:href="../../d0/dfe/class_syntax_analyzer.html#a1264dcb50cb09c564a36125c21043298" target="_top" xlink:title=" ">
<polygon fill="none" stroke="black" points="1636,-993.85 1636,-1012.85 1779,-1012.85 1779,-993.85 1636,-993.85"/>
<text text-anchor="middle" x="1707.5" y="-1000.85" font-family="Helvetica,sans-Serif" font-size="10.00">SyntaxAnalyzer::syntaxSelect</text>
</a>
</g>
</g>
<!-- Node13&#45;&gt;Node19 -->
<g id="edge46" class="edge">
<title>Node13&#45;&gt;Node19</title>
<path fill="none" stroke="midnightblue" d="M1554.15,-965.86C1583.95,-973.2 1625.37,-983.39 1657.5,-991.29"/>
<polygon fill="midnightblue" stroke="midnightblue" points="1657.03,-994.78 1667.58,-993.77 1658.7,-987.98 1657.03,-994.78"/>
</g>
<!-- Node20 -->
<g id="node20" class="node">
<title>Node20</title>
<g id="a_node20"><a xlink:href="../../d0/dfe/class_syntax_analyzer.html#a94c8a6ab5c0e53cae22edb1a840a27ce" target="_top" xlink:title=" ">
<polygon fill="none" stroke="black" points="1829,-917.85 1829,-936.85 1979,-936.85 1979,-917.85 1829,-917.85"/>
<text text-anchor="middle" x="1904" y="-924.85" font-family="Helvetica,sans-Serif" font-size="10.00">SyntaxAnalyzer::syntaxVariable</text>
</a>
</g>
</g>
<!-- Node13&#45;&gt;Node20 -->
<g id="edge57" class="edge">
<title>Node13&#45;&gt;Node20</title>
<path fill="none" stroke="midnightblue" d="M1586.03,-953.95C1642.18,-951.7 1722.73,-947.71 1793,-941.35 1803.17,-940.43 1813.85,-939.29 1824.39,-938.06"/>
<polygon fill="midnightblue" stroke="midnightblue" points="1824.92,-941.52 1834.43,-936.86 1824.09,-934.57 1824.92,-941.52"/>
</g>
<!-- Node14&#45;&gt;Node7 -->
<g id="edge31" class="edge">
<title>Node14&#45;&gt;Node7</title>
<path fill="none" stroke="midnightblue" d="M2109.19,-594.87C2117.92,-598.43 2126.86,-603.17 2134,-609.35 2188.62,-656.67 2223.03,-738.41 2236.51,-775.31"/>
<polygon fill="midnightblue" stroke="midnightblue" points="2233.25,-776.59 2239.89,-784.85 2239.85,-774.25 2233.25,-776.59"/>
</g>
<!-- Node14&#45;&gt;Node8 -->
<g id="edge32" class="edge">
<title>Node14&#45;&gt;Node8</title>
<path fill="none" stroke="midnightblue" d="M2089.49,-575.83C2118.36,-556.18 2184.78,-510.98 2220.04,-486.98"/>
<polygon fill="midnightblue" stroke="midnightblue" points="2222.39,-489.61 2228.69,-481.09 2218.46,-483.82 2222.39,-489.61"/>
</g>
<!-- Node16 -->
<g id="node16" class="node">
<title>Node16</title>
<g id="a_node16"><a xlink:href="../../d1/d34/class_list.html#a49c179636e084dfbf7a52acd46acaf01" target="_top" xlink:title=" ">
<polygon fill="none" stroke="black" points="1876.5,-765.85 1876.5,-784.85 1931.5,-784.85 1931.5,-765.85 1876.5,-765.85"/>
<text text-anchor="middle" x="1904" y="-772.85" font-family="Helvetica,sans-Serif" font-size="10.00">List::size</text>
</a>
</g>
</g>
<!-- Node15&#45;&gt;Node16 -->
<g id="edge37" class="edge">
<title>Node15&#45;&gt;Node16</title>
<path fill="none" stroke="midnightblue" d="M1776.25,-775.35C1806.38,-775.35 1840.67,-775.35 1865.98,-775.35"/>
<polygon fill="midnightblue" stroke="midnightblue" points="1866.24,-778.85 1876.24,-775.35 1866.24,-771.85 1866.24,-778.85"/>
</g>
<!-- Node17&#45;&gt;Node2 -->
<g id="edge39" class="edge">
<title>Node17&#45;&gt;Node2</title>
<path fill="none" stroke="midnightblue" d="M1966.9,-746.89C1971.4,-749.4 1975.53,-752.51 1979,-756.35 1981.64,-759.27 2054.96,-1257.24 2070.59,-1363.54"/>
<polygon fill="midnightblue" stroke="midnightblue" points="2067.14,-1364.17 2072.06,-1373.55 2074.07,-1363.15 2067.14,-1364.17"/>
</g>
<!-- Node17&#45;&gt;Node6 -->
<g id="edge40" class="edge">
<title>Node17&#45;&gt;Node6</title>
<path fill="none" stroke="midnightblue" d="M1909.51,-727.69C1932.21,-679.05 2034.16,-460.63 2064.78,-395.03"/>
<polygon fill="midnightblue" stroke="midnightblue" points="2068,-396.41 2069.06,-385.87 2061.66,-393.45 2068,-396.41"/>
</g>
<!-- Node17&#45;&gt;Node7 -->
<g id="edge41" class="edge">
<title>Node17&#45;&gt;Node7</title>
<path fill="none" stroke="midnightblue" d="M1961.57,-746.89C2020.77,-756.87 2113.63,-772.53 2176.34,-783.11"/>
<polygon fill="midnightblue" stroke="midnightblue" points="2176.08,-786.61 2186.52,-784.83 2177.25,-779.71 2176.08,-786.61"/>
</g>
<!-- Node17&#45;&gt;Node9 -->
<g id="edge43" class="edge">
<title>Node17&#45;&gt;Node9</title>
<path fill="none" stroke="midnightblue" d="M1833.19,-742.97C1716.52,-751.58 1474.54,-766.04 1270,-756.35 1180.81,-752.12 1158.42,-749.76 1070,-737.35 1055.14,-735.27 1039.16,-732.53 1024.35,-729.78"/>
<polygon fill="midnightblue" stroke="midnightblue" points="1024.79,-726.3 1014.32,-727.88 1023.49,-733.18 1024.79,-726.3"/>
</g>
<!-- Node18 -->
<g id="node18" class="node">
<title>Node18</title>
<g id="a_node18"><a xlink:href="../../d0/d11/class_i_token.html#a4fa3435db7157ca7316d4e4aee1df4c0" target="_top" xlink:title="Устанавливает дополнительный тип токена">
<polygon fill="none" stroke="black" points="2023,-955.85 2023,-974.85 2126,-974.85 2126,-955.85 2023,-955.85"/>
<text text-anchor="middle" x="2074.5" y="-962.85" font-family="Helvetica,sans-Serif" font-size="10.00">IToken::setAdvType</text>
</a>
</g>
</g>
<!-- Node17&#45;&gt;Node18 -->
<g id="edge42" class="edge">
<title>Node17&#45;&gt;Node18</title>
<path fill="none" stroke="midnightblue" d="M1963.63,-746.97C1969.18,-749.43 1974.43,-752.51 1979,-756.35 2039.33,-807.03 2062.85,-904.22 2070.43,-945.75"/>
<polygon fill="midnightblue" stroke="midnightblue" points="2066.99,-946.42 2072.12,-955.69 2073.89,-945.24 2066.99,-946.42"/>
</g>
<!-- Node19&#45;&gt;Node2 -->
<g id="edge47" class="edge">
<title>Node19&#45;&gt;Node2</title>
<path fill="none" stroke="midnightblue" d="M1762.99,-1012.87C1824.36,-1026.44 1922.82,-1057.32 1979,-1122.35 2042.88,-1196.3 2064.85,-1316.86 2071.23,-1363.79"/>
<polygon fill="midnightblue" stroke="midnightblue" points="2067.77,-1364.35 2072.5,-1373.83 2074.72,-1363.47 2067.77,-1364.35"/>
</g>
<!-- Node19&#45;&gt;Node6 -->
<g id="edge48" class="edge">
<title>Node19&#45;&gt;Node6</title>
<path fill="none" stroke="midnightblue" d="M1714.67,-993.5C1730.65,-967.5 1773.45,-894.38 1793,-827.35 1830.47,-698.85 1753.67,-638.99 1829,-528.35 1871.64,-465.72 1915.2,-488.22 1979,-447.35 2006.12,-429.98 2035.51,-407.22 2054.19,-392.21"/>
<polygon fill="midnightblue" stroke="midnightblue" points="2056.41,-394.92 2061.97,-385.9 2052,-389.48 2056.41,-394.92"/>
</g>
<!-- Node19&#45;&gt;Node7 -->
<g id="edge49" class="edge">
<title>Node19&#45;&gt;Node7</title>
<path fill="none" stroke="midnightblue" d="M1722.61,-993.71C1739.68,-981.88 1769.09,-960.98 1793,-941.35 1809.77,-927.58 1809.37,-917.62 1829,-908.35 1952.8,-849.92 2005.82,-913.41 2134,-865.35 2168.42,-852.45 2203.13,-827.25 2223.85,-810.61"/>
<polygon fill="midnightblue" stroke="midnightblue" points="2226.32,-813.11 2231.83,-804.07 2221.88,-807.7 2226.32,-813.11"/>
</g>
<!-- Node19&#45;&gt;Node9 -->
<g id="edge51" class="edge">
<title>Node19&#45;&gt;Node9</title>
<path fill="none" stroke="midnightblue" d="M1635.75,-1007.36C1582.21,-1008.8 1507.18,-1007.35 1443,-993.35 1267.77,-955.13 1214.82,-945.16 1070,-839.35 1030.09,-810.19 995.9,-762.26 979.1,-736.34"/>
<polygon fill="midnightblue" stroke="midnightblue" points="982.03,-734.43 973.72,-727.86 976.12,-738.18 982.03,-734.43"/>
</g>
<!-- Node19&#45;&gt;Node18 -->
<g id="edge50" class="edge">
<title>Node19&#45;&gt;Node18</title>
<path fill="none" stroke="midnightblue" d="M1779.2,-994.92C1795.55,-993.03 1812.88,-991.08 1829,-989.35 1891.56,-982.65 1963.2,-975.7 2012.69,-971.02"/>
<polygon fill="midnightblue" stroke="midnightblue" points="2013.27,-974.48 2022.9,-970.05 2012.62,-967.51 2013.27,-974.48"/>
</g>
<!-- Node19&#45;&gt;Node20 -->
<g id="edge52" class="edge">
<title>Node19&#45;&gt;Node20</title>
<path fill="none" stroke="midnightblue" d="M1754.44,-993.74C1767.3,-990.15 1781.03,-985.42 1793,-979.35 1811.08,-970.19 1811.09,-960.84 1829,-951.35 1837.24,-946.98 1846.41,-943.23 1855.42,-940.07"/>
<polygon fill="midnightblue" stroke="midnightblue" points="1856.68,-943.34 1865.08,-936.88 1854.49,-936.69 1856.68,-943.34"/>
</g>
<!-- Node20&#45;&gt;Node2 -->
<g id="edge53" class="edge">
<title>Node20&#45;&gt;Node2</title>
<path fill="none" stroke="midnightblue" d="M1911.1,-937.05C1924.78,-959.13 1958.3,-1015.07 1979,-1065.35 2024.05,-1174.77 2057.66,-1313.39 2069.17,-1363.86"/>
<polygon fill="midnightblue" stroke="midnightblue" points="2065.79,-1364.76 2071.4,-1373.74 2072.62,-1363.22 2065.79,-1364.76"/>
</g>
<!-- Node20&#45;&gt;Node6 -->
<g id="edge54" class="edge">
<title>Node20&#45;&gt;Node6</title>
<path fill="none" stroke="midnightblue" d="M1914.91,-917.62C1931.3,-900.87 1963.75,-864.75 1979,-827.35 2023.2,-718.92 1989.69,-680.68 2015,-566.35 2029.07,-502.8 2054.16,-429.77 2066.39,-395.72"/>
<polygon fill="midnightblue" stroke="midnightblue" points="2069.77,-396.68 2069.89,-386.09 2063.19,-394.3 2069.77,-396.68"/>
</g>
<!-- Node20&#45;&gt;Node7 -->
<g id="edge55" class="edge">
<title>Node20&#45;&gt;Node7</title>
<path fill="none" stroke="midnightblue" d="M1979.03,-931.9C2025.62,-931.86 2085.83,-926.32 2134,-903.35 2177.24,-882.73 2213.31,-837.65 2231.09,-812.4"/>
<polygon fill="midnightblue" stroke="midnightblue" points="2234.03,-814.3 2236.79,-804.08 2228.25,-810.35 2234.03,-814.3"/>
</g>
<!-- Node20&#45;&gt;Node18 -->
<g id="edge56" class="edge">
<title>Node20&#45;&gt;Node18</title>
<path fill="none" stroke="midnightblue" d="M1947.52,-936.94C1969.96,-942 1997.67,-948.25 2021.39,-953.6"/>
<polygon fill="midnightblue" stroke="midnightblue" points="2020.76,-957.04 2031.29,-955.83 2022.3,-950.22 2020.76,-957.04"/>
</g>
<!-- Node21&#45;&gt;Node1 -->
<g id="edge106" class="edge">
<title>Node21&#45;&gt;Node1</title>
<path fill="none" stroke="midnightblue" d="M184.86,-1085.86C176.5,-1086.03 167.81,-1086.11 159.15,-1086.1"/>
<polygon fill="midnightblue" stroke="midnightblue" points="159.03,-1082.6 149.01,-1086.04 158.99,-1089.6 159.03,-1082.6"/>
</g>
<!-- Node21&#45;&gt;Node6 -->
<g id="edge59" class="edge">
<title>Node21&#45;&gt;Node6</title>
<path fill="none" stroke="midnightblue" d="M249.04,-1069.67C253.4,-993.18 284.38,-485.87 346,-347.35 415.71,-190.64 424.48,-53.35 596,-53.35 596,-53.35 596,-53.35 1708.5,-53.35 1830.84,-53.35 1886.33,-24.48 1979,-104.35 2056.81,-171.42 2070.59,-306.08 2073,-356.6"/>
<polygon fill="midnightblue" stroke="midnightblue" points="2069.51,-356.94 2073.38,-366.8 2076.51,-356.68 2069.51,-356.94"/>
</g>
<!-- Node21&#45;&gt;Node7 -->
<g id="edge60" class="edge">
<title>Node21&#45;&gt;Node7</title>
<path fill="none" stroke="midnightblue" d="M248.77,-1089.18C250.56,-1143.44 263.41,-1411.08 346,-1608.35 419.13,-1783.02 406.64,-1953.35 596,-1953.35 596,-1953.35 596,-1953.35 1708.5,-1953.35 1940.92,-1953.35 2024.8,-1854.52 2134,-1649.35 2175.83,-1570.76 2158.96,-1338.69 2170,-1250.35 2191.21,-1080.72 2227.73,-877.31 2239.34,-814.08"/>
<polygon fill="midnightblue" stroke="midnightblue" points="2242.84,-814.41 2241.21,-803.94 2235.96,-813.14 2242.84,-814.41"/>
</g>
<!-- Node21&#45;&gt;Node15 -->
<g id="edge61" class="edge">
<title>Node21&#45;&gt;Node15</title>
<path fill="none" stroke="midnightblue" d="M310.02,-1079.35C379.47,-1079.35 495.85,-1079.35 596,-1079.35 596,-1079.35 596,-1079.35 1153,-1079.35 1305.88,-1079.35 1312.43,-973.88 1443,-894.35 1521.58,-846.49 1535.6,-821.99 1622,-790.35 1624.69,-789.37 1627.45,-788.44 1630.26,-787.58"/>
<polygon fill="midnightblue" stroke="midnightblue" points="1631.26,-790.94 1639.95,-784.87 1629.37,-784.2 1631.26,-790.94"/>
</g>
<!-- Node21&#45;&gt;Node17 -->
<g id="edge70" class="edge">
<title>Node21&#45;&gt;Node17</title>
<path fill="none" stroke="midnightblue" d="M249.52,-1069.46C257.94,-993.77 322.48,-509.35 596,-509.35 596,-509.35 596,-509.35 1515.5,-509.35 1681.84,-509.35 1839.76,-667.34 1888.01,-720.29"/>
<polygon fill="midnightblue" stroke="midnightblue" points="1885.52,-722.74 1894.8,-727.84 1890.72,-718.07 1885.52,-722.74"/>
</g>
<!-- Node22 -->
<g id="node22" class="node">
<title>Node22</title>
<g id="a_node22"><a xlink:href="../../d0/dfe/class_syntax_analyzer.html#a31fc5887c158652feb946f89270b4b36" target="_top" xlink:title=" ">
<polygon fill="none" stroke="black" points="709,-1221.85 709,-1240.85 864,-1240.85 864,-1221.85 709,-1221.85"/>
<text text-anchor="middle" x="786.5" y="-1228.85" font-family="Helvetica,sans-Serif" font-size="10.00">SyntaxAnalyzer::syntaxAssignSt</text>
</a>
</g>
</g>
<!-- Node21&#45;&gt;Node22 -->
<g id="edge62" class="edge">
<title>Node21&#45;&gt;Node22</title>
<path fill="none" stroke="midnightblue" d="M260.33,-1088.92C277.92,-1102.66 312.52,-1127.82 346,-1141.35 463.1,-1188.69 608.21,-1212.17 698.85,-1223.02"/>
<polygon fill="midnightblue" stroke="midnightblue" points="698.47,-1226.5 708.81,-1224.19 699.28,-1219.55 698.47,-1226.5"/>
</g>
<!-- Node23 -->
<g id="node23" class="node">
<title>Node23</title>
<g id="a_node23"><a xlink:href="../../d0/dfe/class_syntax_analyzer.html#a5770afdc4d32d2c38550f27f9ffd949a" target="_top" xlink:title=" ">
<polygon fill="none" stroke="black" points="1622,-1031.85 1622,-1050.85 1793,-1050.85 1793,-1031.85 1622,-1031.85"/>
<text text-anchor="middle" x="1707.5" y="-1038.85" font-family="Helvetica,sans-Serif" font-size="10.00">SyntaxAnalyzer::syntaxCompoundSt</text>
</a>
</g>
</g>
<!-- Node21&#45;&gt;Node23 -->
<g id="edge71" class="edge">
<title>Node21&#45;&gt;Node23</title>
<path fill="none" stroke="midnightblue" d="M301.65,-1088.85C408.86,-1108.45 658.33,-1156.26 864,-1212.35 993.63,-1247.7 1016.64,-1307.35 1151,-1307.35 1151,-1307.35 1151,-1307.35 1339.5,-1307.35 1382.23,-1307.35 1616.66,-1115.85 1686.72,-1057.82"/>
<polygon fill="midnightblue" stroke="midnightblue" points="1689.32,-1060.21 1694.78,-1051.13 1684.85,-1054.83 1689.32,-1060.21"/>
</g>
<!-- Node25 -->
<g id="node25" class="node">
<title>Node25</title>
<g id="a_node25"><a xlink:href="../../d0/dfe/class_syntax_analyzer.html#a67bc7e3cfb57c9d4d25d60913aef3a87" target="_top" xlink:title=" ">
<polygon fill="none" stroke="black" points="521,-1829.85 521,-1848.85 673,-1848.85 673,-1829.85 521,-1829.85"/>
<text text-anchor="middle" x="597" y="-1836.85" font-family="Helvetica,sans-Serif" font-size="10.00">SyntaxAnalyzer::syntaxEmptySt</text>
</a>
</g>
</g>
<!-- Node21&#45;&gt;Node25 -->
<g id="edge80" class="edge">
<title>Node21&#45;&gt;Node25</title>
<path fill="none" stroke="midnightblue" d="M250.86,-1089.03C260.77,-1129.24 300.59,-1286.88 346,-1412.35 412.45,-1595.96 376.2,-1684.35 521,-1815.35 525.48,-1819.4 530.65,-1822.77 536.14,-1825.58"/>
<polygon fill="midnightblue" stroke="midnightblue" points="535.05,-1828.92 545.61,-1829.77 537.88,-1822.52 535.05,-1828.92"/>
</g>
<!-- Node26 -->
<g id="node26" class="node">
<title>Node26</title>
<g id="a_node26"><a xlink:href="../../d0/dfe/class_syntax_analyzer.html#a82e8472ea6d1064871de0d05eaa8b374" target="_top" xlink:title=" ">
<polygon fill="none" stroke="black" points="346,-1383.85 346,-1402.85 485,-1402.85 485,-1383.85 346,-1383.85"/>
<text text-anchor="middle" x="415.5" y="-1390.85" font-family="Helvetica,sans-Serif" font-size="10.00">SyntaxAnalyzer::syntaxForSt</text>
</a>
</g>
</g>
<!-- Node21&#45;&gt;Node26 -->
<g id="edge82" class="edge">
<title>Node21&#45;&gt;Node26</title>
<path fill="none" stroke="midnightblue" d="M255.21,-1089.17C281.48,-1133.79 377.24,-1314.84 406.17,-1374.43"/>
<polygon fill="midnightblue" stroke="midnightblue" points="403.17,-1376.27 410.63,-1383.79 409.49,-1373.26 403.17,-1376.27"/>
</g>
<!-- Node28 -->
<g id="node28" class="node">
<title>Node28</title>
<g id="a_node28"><a xlink:href="../../d0/dfe/class_syntax_analyzer.html#a779e006875d35926152773989f4b1e5a" target="_top" xlink:title=" ">
<polygon fill="none" stroke="black" points="721,-414.85 721,-433.85 852,-433.85 852,-414.85 721,-414.85"/>
<text text-anchor="middle" x="786.5" y="-421.85" font-family="Helvetica,sans-Serif" font-size="10.00">SyntaxAnalyzer::syntaxIfSt</text>
</a>
</g>
</g>
<!-- Node21&#45;&gt;Node28 -->
<g id="edge95" class="edge">
<title>Node21&#45;&gt;Node28</title>
<path fill="none" stroke="midnightblue" d="M248.46,-1069.64C248.29,-996.42 250.6,-536.36 346,-448.35 398.15,-400.24 605.4,-404.52 715.66,-413.95"/>
<polygon fill="midnightblue" stroke="midnightblue" points="715.42,-417.44 725.7,-414.85 716.05,-410.47 715.42,-417.44"/>
</g>
<!-- Node29 -->
<g id="node29" class="node">
<title>Node29</title>
<g id="a_node29"><a xlink:href="../../d0/dfe/class_syntax_analyzer.html#a55e935b2aa7f20b66e9228e977582fcd" target="_top" xlink:title=" ">
<polygon fill="none" stroke="black" points="710,-367.85 710,-386.85 863,-386.85 863,-367.85 710,-367.85"/>
<text text-anchor="middle" x="786.5" y="-374.85" font-family="Helvetica,sans-Serif" font-size="10.00">SyntaxAnalyzer::syntaxReturnSt</text>
</a>
</g>
</g>
<!-- Node21&#45;&gt;Node29 -->
<g id="edge101" class="edge">
<title>Node21&#45;&gt;Node29</title>
<path fill="none" stroke="midnightblue" d="M248.36,-1069.55C247.5,-994.38 245.93,-509.63 346,-415.35 454.71,-312.92 652.86,-344.51 741.08,-365.36"/>
<polygon fill="midnightblue" stroke="midnightblue" points="740.49,-368.82 751.03,-367.78 742.14,-362.02 740.49,-368.82"/>
</g>
<!-- Node22&#45;&gt;Node2 -->
<g id="edge63" class="edge">
<title>Node22&#45;&gt;Node2</title>
<path fill="none" stroke="midnightblue" d="M792.36,-1241.04C805.8,-1266.85 846.08,-1337.86 900,-1375.35 1031.67,-1466.9 1466.15,-1497.35 1513.5,-1497.35 1513.5,-1497.35 1513.5,-1497.35 1708.5,-1497.35 1829.19,-1497.35 1869.03,-1523.09 1979,-1473.35 2014.22,-1457.42 2044.47,-1422.74 2060.73,-1401.39"/>
<polygon fill="midnightblue" stroke="midnightblue" points="2063.69,-1403.27 2066.82,-1393.14 2058.06,-1399.11 2063.69,-1403.27"/>
</g>
<!-- Node22&#45;&gt;Node6 -->
<g id="edge64" class="edge">
<title>Node22&#45;&gt;Node6</title>
<path fill="none" stroke="midnightblue" d="M788.04,-1221.8C791.41,-1167.92 812.18,-897.41 900,-699.35 952.25,-581.51 993.32,-567.97 1070,-464.35 1105.48,-416.41 1091.35,-357.35 1151,-357.35 1151,-357.35 1151,-357.35 1339.5,-357.35 1465.09,-357.35 1496.42,-352.21 1622,-350.35 1713.99,-348.99 1737,-349.57 1829,-349.35 1895.67,-349.19 1912.98,-340.1 1979,-349.35 1998.78,-352.12 2020.22,-358 2037.67,-363.57"/>
<polygon fill="midnightblue" stroke="midnightblue" points="2036.85,-366.98 2047.45,-366.78 2039.04,-360.33 2036.85,-366.98"/>
</g>
<!-- Node22&#45;&gt;Node7 -->
<g id="edge65" class="edge">
<title>Node22&#45;&gt;Node7</title>
<path fill="none" stroke="midnightblue" d="M790.71,-1240.97C801.28,-1271.27 837.98,-1365.71 900,-1416.35 1088.04,-1569.9 1759.01,-1690.03 1979,-1587.35 2076.2,-1541.98 2088.56,-1499.52 2134,-1402.35 2159.78,-1347.22 2225.55,-911.76 2240.12,-813.85"/>
<polygon fill="midnightblue" stroke="midnightblue" points="2243.59,-814.26 2241.6,-803.85 2236.67,-813.23 2243.59,-814.26"/>
</g>
<!-- Node22&#45;&gt;Node9 -->
<g id="edge67" class="edge">
<title>Node22&#45;&gt;Node9</title>
<path fill="none" stroke="midnightblue" d="M790.91,-1221.56C812.45,-1159.66 929.78,-822.46 959.27,-737.69"/>
<polygon fill="midnightblue" stroke="midnightblue" points="962.58,-738.84 962.56,-728.24 955.97,-736.54 962.58,-738.84"/>
</g>
<!-- Node22&#45;&gt;Node15 -->
<g id="edge66" class="edge">
<title>Node22&#45;&gt;Node15</title>
<path fill="none" stroke="midnightblue" d="M864.03,-1238.19C994.43,-1245.3 1259.87,-1239.37 1407,-1093.35 1457.51,-1043.23 1394.35,-989.28 1443,-937.35 1488.37,-888.92 1538.12,-940.3 1586,-894.35 1621.29,-860.48 1584.8,-822.11 1622,-790.35 1624.42,-788.29 1627.01,-786.47 1629.75,-784.86"/>
<polygon fill="midnightblue" stroke="midnightblue" points="1631.42,-787.94 1638.89,-780.42 1628.36,-781.64 1631.42,-787.94"/>
</g>
<!-- Node22&#45;&gt;Node19 -->
<g id="edge68" class="edge">
<title>Node22&#45;&gt;Node19</title>
<path fill="none" stroke="midnightblue" d="M842.13,-1240.86C953.15,-1257.74 1211.17,-1284.35 1407,-1207.35 1524.32,-1161.22 1509.37,-1078.98 1622,-1022.35 1626.67,-1020 1631.62,-1017.95 1636.7,-1016.14"/>
<polygon fill="midnightblue" stroke="midnightblue" points="1638.13,-1019.36 1646.58,-1012.97 1635.99,-1012.69 1638.13,-1019.36"/>
</g>
<!-- Node22&#45;&gt;Node20 -->
<g id="edge69" class="edge">
<title>Node22&#45;&gt;Node20</title>
<path fill="none" stroke="midnightblue" d="M797.2,-1241.03C837.07,-1279.75 993.63,-1421.35 1151,-1421.35 1151,-1421.35 1151,-1421.35 1339.5,-1421.35 1633.26,-1421.35 1847.2,-1037.04 1893.59,-946.36"/>
<polygon fill="midnightblue" stroke="midnightblue" points="1896.82,-947.72 1898.2,-937.22 1890.57,-944.57 1896.82,-947.72"/>
</g>
<!-- Node23&#45;&gt;Node2 -->
<g id="edge72" class="edge">
<title>Node23&#45;&gt;Node2</title>
<path fill="none" stroke="midnightblue" d="M1723.4,-1051.04C1766.16,-1079.27 1891.78,-1165.18 1979,-1255.35 2013.23,-1290.74 2045.6,-1338.89 2062.11,-1364.89"/>
<polygon fill="midnightblue" stroke="midnightblue" points="2059.35,-1367.08 2067.63,-1373.69 2065.28,-1363.36 2059.35,-1367.08"/>
</g>
<!-- Node23&#45;&gt;Node6 -->
<g id="edge73" class="edge">
<title>Node23&#45;&gt;Node6</title>
<path fill="none" stroke="midnightblue" d="M1779.22,-1031.69C1784.23,-1029.19 1788.9,-1026.11 1793,-1022.35 1832.13,-986.4 1798.41,-951.8 1829,-908.35 1877.2,-839.88 1936.04,-866.22 1979,-794.35 2031.64,-706.29 1991.85,-666.29 2015,-566.35 2029.69,-502.94 2054.48,-429.84 2066.52,-395.74"/>
<polygon fill="midnightblue" stroke="midnightblue" points="2069.9,-396.7 2069.95,-386.11 2063.3,-394.35 2069.9,-396.7"/>
</g>
<!-- Node23&#45;&gt;Node7 -->
<g id="edge74" class="edge">
<title>Node23&#45;&gt;Node7</title>
<path fill="none" stroke="midnightblue" d="M1777.29,-1050.88C1868.01,-1059.6 2028.45,-1061.29 2134,-984.35 2194.11,-940.53 2226,-852.75 2237.7,-813.77"/>
<polygon fill="midnightblue" stroke="midnightblue" points="2241.07,-814.72 2240.47,-804.14 2234.34,-812.78 2241.07,-814.72"/>
</g>
<!-- Node23&#45;&gt;Node18 -->
<g id="edge75" class="edge">
<title>Node23&#45;&gt;Node18</title>
<path fill="none" stroke="midnightblue" d="M1763.1,-1031.83C1817.87,-1022.05 1904.55,-1005.95 1979,-989.35 1994.99,-985.79 2012.4,-981.49 2027.87,-977.52"/>
<polygon fill="midnightblue" stroke="midnightblue" points="2028.92,-980.86 2037.72,-974.97 2027.16,-974.08 2028.92,-980.86"/>
</g>
<!-- Node24 -->
<g id="node24" class="node">
<title>Node24</title>
<g id="a_node24"><a xlink:href="../../d0/dfe/class_syntax_analyzer.html#a6df61a82ef9de3c17b78be89a321a087" target="_top" xlink:title=" ">
<polygon fill="none" stroke="black" points="1833.5,-537.85 1833.5,-556.85 1974.5,-556.85 1974.5,-537.85 1833.5,-537.85"/>
<text text-anchor="middle" x="1904" y="-544.85" font-family="Helvetica,sans-Serif" font-size="10.00">SyntaxAnalyzer::syntaxStList</text>
</a>
</g>
</g>
<!-- Node23&#45;&gt;Node24 -->
<g id="edge76" class="edge">
<title>Node23&#45;&gt;Node24</title>
<path fill="none" stroke="midnightblue" d="M1781.2,-1031.83C1785.57,-1029.27 1789.58,-1026.15 1793,-1022.35 1838.56,-971.83 1811.3,-784.04 1829,-718.35 1844.57,-660.54 1876.31,-596.94 1892.69,-566.14"/>
<polygon fill="midnightblue" stroke="midnightblue" points="1895.95,-567.47 1897.62,-557.01 1889.79,-564.15 1895.95,-567.47"/>
</g>
<!-- Node24&#45;&gt;Node6 -->
<g id="edge77" class="edge">
<title>Node24&#45;&gt;Node6</title>
<path fill="none" stroke="midnightblue" d="M1917.56,-537.82C1932.72,-526.11 1958.68,-505.33 1979,-485.35 2009.74,-455.12 2041.87,-416.26 2059.62,-394.04"/>
<polygon fill="midnightblue" stroke="midnightblue" points="2062.42,-396.15 2065.89,-386.14 2056.94,-391.8 2062.42,-396.15"/>
</g>
<!-- Node24&#45;&gt;Node7 -->
<g id="edge78" class="edge">
<title>Node24&#45;&gt;Node7</title>
<path fill="none" stroke="midnightblue" d="M1957.17,-537.84C2007.04,-531.71 2082.11,-530.56 2134,-566.35 2206.58,-616.41 2232.38,-728.39 2240.12,-774.21"/>
<polygon fill="midnightblue" stroke="midnightblue" points="2236.7,-775.03 2241.71,-784.36 2243.62,-773.94 2236.7,-775.03"/>
</g>
<!-- Node24&#45;&gt;Node21 -->
<g id="edge79" class="edge">
<title>Node24&#45;&gt;Node21</title>
<path fill="none" stroke="midnightblue" d="M1859.44,-537.83C1798.6,-525.08 1684.54,-503.16 1586,-495.35 1365.43,-477.88 431.32,-455.63 346,-544.35 272.88,-620.38 253.12,-971.34 249.28,-1059.31"/>
<polygon fill="midnightblue" stroke="midnightblue" points="245.77,-1059.38 248.86,-1069.52 252.77,-1059.67 245.77,-1059.38"/>
</g>
<!-- Node25&#45;&gt;Node2 -->
<g id="edge81" class="edge">
<title>Node25&#45;&gt;Node2</title>
<path fill="none" stroke="midnightblue" d="M661.62,-1829.78C926.59,-1789.69 1930.97,-1635.01 1979,-1587.35 2037.45,-1529.35 1962.44,-1465.61 2014.83,-1400.47"/>
<polygon fill="midnightblue" stroke="midnightblue" points="2017.48,-1402.75 2021.47,-1392.93 2012.23,-1398.12 2017.48,-1402.75"/>
</g>
<!-- Node26&#45;&gt;Node2 -->
<g id="edge83" class="edge">
<title>Node26&#45;&gt;Node2</title>
<path fill="none" stroke="midnightblue" d="M477.75,-1402.85C480.35,-1404.44 482.78,-1406.26 485,-1408.35 527.72,-1448.56 474.87,-1499.11 521,-1535.35 586.75,-1587 625.44,-1539.48 709,-1542.35 1190.5,-1558.88 1311.55,-1567.44 1793,-1549.35 1875.84,-1546.24 1915.3,-1588.41 1979,-1535.35 2024.92,-1497.11 1975.87,-1448.02 2014.86,-1400.53"/>
<polygon fill="midnightblue" stroke="midnightblue" points="2017.68,-1402.64 2021.9,-1392.93 2012.54,-1397.89 2017.68,-1402.64"/>
</g>
<!-- Node26&#45;&gt;Node6 -->
<g id="edge84" class="edge">
<title>Node26&#45;&gt;Node6</title>
<path fill="none" stroke="midnightblue" d="M417.3,-1383.76C426.25,-1279.18 510.88,-351.15 709,-180.35 797.8,-103.8 1473.26,-129.35 1513.5,-129.35 1513.5,-129.35 1513.5,-129.35 1708.5,-129.35 1828.99,-129.35 1884.24,-72.94 1979,-147.35 2020.79,-180.17 1994.89,-212.17 2015,-261.35 2029.4,-296.57 2050.45,-335.68 2062.98,-358.01"/>
<polygon fill="midnightblue" stroke="midnightblue" points="2059.96,-359.78 2067.93,-366.76 2066.05,-356.33 2059.96,-359.78"/>
</g>
<!-- Node26&#45;&gt;Node7 -->
<g id="edge85" class="edge">
<title>Node26&#45;&gt;Node7</title>
<path fill="none" stroke="midnightblue" d="M478.18,-1402.93C480.62,-1404.5 482.92,-1406.3 485,-1408.35 534.78,-1457.36 485.74,-1501.04 521,-1561.35 578.31,-1659.38 606.57,-1685.35 709,-1734.35 1144.54,-1942.69 1336.52,-1962.6 1793,-1805.35 1968.47,-1744.9 2039.4,-1724.02 2134,-1564.35 2169.8,-1503.92 2160.45,-1319.93 2170,-1250.35 2193.25,-1080.98 2228.41,-877.4 2239.52,-814.1"/>
<polygon fill="midnightblue" stroke="midnightblue" points="2243.01,-814.41 2241.3,-803.95 2236.12,-813.2 2243.01,-814.41"/>
</g>
<!-- Node26&#45;&gt;Node21 -->
<g id="edge94" class="edge">
<title>Node26&#45;&gt;Node21</title>
<path fill="none" stroke="midnightblue" d="M407.84,-1383.61C381.62,-1339.1 285.58,-1157.54 256.74,-1098.09"/>
<polygon fill="midnightblue" stroke="midnightblue" points="259.9,-1096.58 252.44,-1089.05 253.58,-1099.59 259.9,-1096.58"/>
</g>
<!-- Node27 -->
<g id="node27" class="node">
<title>Node27</title>
<g id="a_node27"><a xlink:href="../../d0/dfe/class_syntax_analyzer.html#aea3a3d1860938d64edf651bdc4016c04" target="_top" xlink:title=" ">
<polygon fill="none" stroke="black" points="527.5,-1506.85 527.5,-1525.85 666.5,-1525.85 666.5,-1506.85 527.5,-1506.85"/>
<text text-anchor="middle" x="597" y="-1513.85" font-family="Helvetica,sans-Serif" font-size="10.00">SyntaxAnalyzer::syntaxIterSt</text>
</a>
</g>
</g>
<!-- Node26&#45;&gt;Node27 -->
<g id="edge86" class="edge">
<title>Node26&#45;&gt;Node27</title>
<path fill="none" stroke="midnightblue" d="M430.59,-1403C461.65,-1424.29 536.25,-1475.41 573.72,-1501.09"/>
<polygon fill="midnightblue" stroke="midnightblue" points="571.75,-1503.98 581.98,-1506.74 575.71,-1498.2 571.75,-1503.98"/>
</g>
<!-- Node27&#45;&gt;Node2 -->
<g id="edge87" class="edge">
<title>Node27&#45;&gt;Node2</title>
<path fill="none" stroke="midnightblue" d="M666.79,-1522.03C740.67,-1527.62 861.56,-1535.35 966,-1535.35 966,-1535.35 966,-1535.35 1708.5,-1535.35 1829.61,-1535.35 1873.33,-1561.53 1979,-1502.35 2020.43,-1479.15 2050.32,-1429.74 2064.41,-1402.45"/>
<polygon fill="midnightblue" stroke="midnightblue" points="2067.71,-1403.69 2069.03,-1393.18 2061.44,-1400.57 2067.71,-1403.69"/>
</g>
<!-- Node27&#45;&gt;Node3 -->
<g id="edge89" class="edge">
<title>Node27&#45;&gt;Node3</title>
<path fill="none" stroke="midnightblue" d="M600.55,-1526.27C609.36,-1558.34 641.71,-1659.92 709,-1706.35 779.84,-1755.24 814.88,-1725.61 900,-1738.35 1393.88,-1812.25 1992.45,-1885.33 2182.24,-1908.11"/>
<polygon fill="midnightblue" stroke="midnightblue" points="2181.95,-1911.6 2192.3,-1909.32 2182.78,-1904.65 2181.95,-1911.6"/>
</g>
<!-- Node27&#45;&gt;Node4 -->
<g id="edge91" class="edge">
<title>Node27&#45;&gt;Node4</title>
<path fill="none" stroke="midnightblue" d="M602.38,-1526.07C614.86,-1552.63 653.37,-1626.88 709,-1663.35 807.26,-1727.78 848.5,-1725.35 966,-1725.35 966,-1725.35 966,-1725.35 1153,-1725.35 1437.82,-1725.35 1524.67,-1853.87 1793,-1758.35 1977.21,-1692.78 2024.58,-1642.41 2134,-1480.35 2164.21,-1435.61 2145.17,-1412.28 2170,-1364.35 2185.43,-1334.56 2210.4,-1304.6 2226.76,-1286.5"/>
<polygon fill="midnightblue" stroke="midnightblue" points="2229.4,-1288.8 2233.6,-1279.07 2224.25,-1284.06 2229.4,-1288.8"/>
</g>
<!-- Node27&#45;&gt;Node6 -->
<g id="edge88" class="edge">
<title>Node27&#45;&gt;Node6</title>
<path fill="none" stroke="midnightblue" d="M600.77,-1506.81C612.16,-1467.11 655.6,-1310.97 673,-1179.35 684.96,-1088.83 669.32,-440.59 709,-358.35 770.85,-230.18 823.69,-167.35 966,-167.35 966,-167.35 966,-167.35 1708.5,-167.35 1829.12,-167.35 1879.05,-121.83 1979,-189.35 2008.65,-209.38 1998.89,-229.41 2015,-261.35 2032.14,-295.34 2052.31,-334.89 2063.93,-357.63"/>
<polygon fill="midnightblue" stroke="midnightblue" points="2060.96,-359.51 2068.62,-366.82 2067.19,-356.32 2060.96,-359.51"/>
</g>
<!-- Node27&#45;&gt;Node7 -->
<g id="edge90" class="edge">
<title>Node27&#45;&gt;Node7</title>
<path fill="none" stroke="midnightblue" d="M649.39,-1525.92C657.32,-1527.61 665.4,-1529.44 673,-1531.35 689.22,-1535.44 692.61,-1538.97 709,-1542.35 1262.82,-1656.48 1453.95,-1828.25 1979,-1618.35 2059.9,-1586.01 2090.1,-1573.6 2134,-1498.35 2190.12,-1402.14 2153.2,-1360.45 2170,-1250.35 2195.79,-1081.35 2229.26,-877.52 2239.73,-814.13"/>
<polygon fill="midnightblue" stroke="midnightblue" points="2243.23,-814.41 2241.41,-803.97 2236.32,-813.26 2243.23,-814.41"/>
</g>
<!-- Node27&#45;&gt;Node13 -->
<g id="edge93" class="edge">
<title>Node27&#45;&gt;Node13</title>
<path fill="none" stroke="midnightblue" d="M666.62,-1513.43C755.06,-1507.51 911.93,-1489.58 1034,-1435.35 1224.66,-1350.65 1270.98,-1308.54 1407,-1150.35 1455.34,-1094.14 1491.31,-1012.45 1506.1,-975.63"/>
<polygon fill="midnightblue" stroke="midnightblue" points="1509.44,-976.69 1509.85,-966.1 1502.93,-974.12 1509.44,-976.69"/>
</g>
<!-- Node27&#45;&gt;Node22 -->
<g id="edge92" class="edge">
<title>Node27&#45;&gt;Node22</title>
<path fill="none" stroke="midnightblue" d="M604.45,-1506.54C631.67,-1465.17 737.31,-1304.6 773.36,-1249.8"/>
<polygon fill="midnightblue" stroke="midnightblue" points="776.5,-1251.4 779.07,-1241.12 770.65,-1247.55 776.5,-1251.4"/>
</g>
<!-- Node28&#45;&gt;Node2 -->
<g id="edge96" class="edge">
<title>Node28&#45;&gt;Node2</title>
<path fill="none" stroke="midnightblue" d="M787.77,-433.97C790.15,-512.15 809.54,-1043.48 900,-1169.35 1099.57,-1447.05 1281.96,-1399.06 1622,-1435.35 1779.77,-1452.19 1825.33,-1474.84 1979,-1435.35 2006.43,-1428.3 2034.44,-1411.43 2052.76,-1398.8"/>
<polygon fill="midnightblue" stroke="midnightblue" points="2054.8,-1401.65 2060.93,-1393.01 2050.75,-1395.94 2054.8,-1401.65"/>
</g>
<!-- Node28&#45;&gt;Node6 -->
<g id="edge97" class="edge">
<title>Node28&#45;&gt;Node6</title>
<path fill="none" stroke="midnightblue" d="M832.78,-414.79C844.06,-410.65 855.39,-404.74 864,-396.35 895.15,-366 867.25,-333.97 900,-305.35 986.53,-229.74 1036.09,-243.35 1151,-243.35 1151,-243.35 1151,-243.35 1708.5,-243.35 1829.19,-243.35 1871.53,-212.42 1979,-267.35 2018.57,-287.58 2048.69,-332.13 2063.44,-357.57"/>
<polygon fill="midnightblue" stroke="midnightblue" points="2060.56,-359.58 2068.5,-366.59 2066.66,-356.16 2060.56,-359.58"/>
</g>
<!-- Node28&#45;&gt;Node7 -->
<g id="edge98" class="edge">
<title>Node28&#45;&gt;Node7</title>
<path fill="none" stroke="midnightblue" d="M813.33,-414.85C884.47,-389 1082.52,-319.35 1151,-319.35 1151,-319.35 1151,-319.35 1339.5,-319.35 1704.85,-319.35 1865.92,-282.12 2134,-530.35 2208.27,-599.12 2233.4,-726.08 2240.54,-774.7"/>
<polygon fill="midnightblue" stroke="midnightblue" points="2237.1,-775.38 2241.92,-784.81 2244.03,-774.43 2237.1,-775.38"/>
</g>
<!-- Node28&#45;&gt;Node9 -->
<g id="edge99" class="edge">
<title>Node28&#45;&gt;Node9</title>
<path fill="none" stroke="midnightblue" d="M793.44,-434.13C819.12,-476.43 920.84,-643.97 954.86,-700"/>
<polygon fill="midnightblue" stroke="midnightblue" points="952.04,-702.1 960.22,-708.83 958.02,-698.46 952.04,-702.1"/>
</g>
<!-- Node28&#45;&gt;Node21 -->
<g id="edge100" class="edge">
<title>Node28&#45;&gt;Node21</title>
<path fill="none" stroke="midnightblue" d="M720.57,-425.22C611.67,-422.66 398.94,-417.52 346,-466.35 256.06,-549.32 248.86,-962.95 248.47,-1059.35"/>
<polygon fill="midnightblue" stroke="midnightblue" points="244.97,-1059.49 248.45,-1069.5 251.97,-1059.5 244.97,-1059.49"/>
</g>
<!-- Node29&#45;&gt;Node2 -->
<g id="edge102" class="edge">
<title>Node29&#45;&gt;Node2</title>
<path fill="none" stroke="midnightblue" d="M837.95,-386.86C847.94,-390.98 857.38,-396.89 864,-405.35 909.73,-463.79 875.72,-667.22 900,-737.35 984.49,-981.38 1065.7,-1027.4 1270,-1185.35 1412,-1295.14 1448.57,-1337.1 1622,-1383.35 1711.31,-1407.17 1736.68,-1398.9 1829,-1403.35 1895.59,-1406.56 1912.7,-1410.29 1979,-1403.35 1994.72,-1401.71 2011.67,-1398.56 2026.82,-1395.24"/>
<polygon fill="midnightblue" stroke="midnightblue" points="2028.01,-1398.56 2036.98,-1392.94 2026.46,-1391.74 2028.01,-1398.56"/>
</g>
<!-- Node29&#45;&gt;Node6 -->
<g id="edge103" class="edge">
<title>Node29&#45;&gt;Node6</title>
<path fill="none" stroke="midnightblue" d="M791.52,-367.53C803.38,-340.05 841.07,-262.17 900,-229.35 997.91,-174.83 1038.94,-205.35 1151,-205.35 1151,-205.35 1151,-205.35 1708.5,-205.35 1829.19,-205.35 1875.73,-166.89 1979,-229.35 2027.75,-258.83 2055.82,-324.15 2067.33,-356.88"/>
<polygon fill="midnightblue" stroke="midnightblue" points="2064.1,-358.26 2070.6,-366.62 2070.74,-356.03 2064.1,-358.26"/>
</g>
<!-- Node29&#45;&gt;Node7 -->
<g id="edge104" class="edge">
<title>Node29&#45;&gt;Node7</title>
<path fill="none" stroke="midnightblue" d="M790.11,-367.53C799.1,-335.77 832.07,-235.44 900,-192.35 1001.49,-127.96 1873.55,-57.67 1979,-115.35 2091.06,-176.65 2083.43,-240.06 2134,-357.35 2142.6,-377.3 2218.44,-692.07 2238.27,-774.64"/>
<polygon fill="midnightblue" stroke="midnightblue" points="2234.9,-775.6 2240.64,-784.51 2241.71,-773.97 2234.9,-775.6"/>
</g>
<!-- Node29&#45;&gt;Node9 -->
<g id="edge105" class="edge">
<title>Node29&#45;&gt;Node9</title>
<path fill="none" stroke="midnightblue" d="M833.92,-386.86C844.94,-390.99 855.85,-396.9 864,-405.35 946.62,-490.98 962.32,-644.34 965.3,-698.64"/>
<polygon fill="midnightblue" stroke="midnightblue" points="961.81,-698.83 965.76,-708.66 968.8,-698.51 961.81,-698.83"/>
</g>
</g>
</svg>
