<?xml version="1.0" encoding="UTF-8" standalone="no"?>
<!DOCTYPE svg PUBLIC "-//W3C//DTD SVG 1.1//EN"
 "http://www.w3.org/Graphics/SVG/1.1/DTD/svg11.dtd">
<!-- Generated by graphviz version 3.0.0 (20220413.0106)
 -->
<!-- Title: SyntaxAnalyzer::parseTokens Pages: 1 -->
<svg width="3065pt" height="2650pt"
 viewBox="0.00 0.00 3065.00 2650.43" xmlns="http://www.w3.org/2000/svg" xmlns:xlink="http://www.w3.org/1999/xlink">
<g id="graph0" class="graph" transform="scale(1 1) rotate(0) translate(4 2646.43)">
<title>SyntaxAnalyzer::parseTokens</title>
<!-- Node1 -->
<g id="node1" class="node">
<title>Node1</title>
<g id="a_node1"><a xlink:title=" ">
<polygon fill="#bfbfbf" stroke="black" points="0,-1768.93 0,-1787.93 143,-1787.93 143,-1768.93 0,-1768.93"/>
<text text-anchor="middle" x="71.5" y="-1775.93" font-family="Helvetica,sans-Serif" font-size="10.00">SyntaxAnalyzer::parseTokens</text>
</a>
</g>
</g>
<!-- Node2 -->
<g id="node2" class="node">
<title>Node2</title>
<g id="a_node2"><a xlink:href="../../d0/dfe/class_syntax_analyzer.html#a3ae6c7319e61cd669c417f189b098374" target="_top" xlink:title=" ">
<polygon fill="none" stroke="black" points="2917,-1208.93 2917,-1227.93 3049,-1227.93 3049,-1208.93 2917,-1208.93"/>
<text text-anchor="middle" x="2983" y="-1215.93" font-family="Helvetica,sans-Serif" font-size="10.00">SyntaxAnalyzer::getCurTok</text>
</a>
</g>
</g>
<!-- Node1&#45;&gt;Node2 -->
<g id="edge1" class="edge">
<title>Node1&#45;&gt;Node2</title>
<path fill="none" stroke="midnightblue" d="M74.36,-1788.13C92.77,-1883.05 246.23,-2642.43 442,-2642.43 442,-2642.43 442,-2642.43 2639,-2642.43 2666.37,-2642.43 2826.19,-2494.69 2873,-2384.43 2920,-2273.73 2898.03,-1964.19 2909,-1844.43 2930.93,-1605.02 2968.99,-1315.43 2979.34,-1238.16"/>
<polygon fill="midnightblue" stroke="midnightblue" points="2982.84,-1238.35 2980.71,-1227.97 2975.91,-1237.42 2982.84,-1238.35"/>
</g>
<!-- Node3 -->
<g id="node3" class="node">
<title>Node3</title>
<g id="a_node3"><a xlink:href="../../d0/dfe/class_syntax_analyzer.html#a8b337bd5b4a90cd5bd804a936e408e4b" target="_top" xlink:title=" ">
<polygon fill="none" stroke="black" points="179,-1502.93 179,-1521.93 331,-1521.93 331,-1502.93 179,-1502.93"/>
<text text-anchor="middle" x="255" y="-1509.93" font-family="Helvetica,sans-Serif" font-size="10.00">SyntaxAnalyzer::syntaxProgram</text>
</a>
</g>
</g>
<!-- Node1&#45;&gt;Node3 -->
<g id="edge2" class="edge">
<title>Node1&#45;&gt;Node3</title>
<path fill="none" stroke="midnightblue" d="M79.17,-1768.65C106.03,-1729.29 206.41,-1582.18 241.66,-1530.51"/>
<polygon fill="midnightblue" stroke="midnightblue" points="244.71,-1532.25 247.46,-1522.02 238.93,-1528.31 244.71,-1532.25"/>
</g>
<!-- Node3&#45;&gt;Node2 -->
<g id="edge10" class="edge">
<title>Node3&#45;&gt;Node2</title>
<path fill="none" stroke="midnightblue" d="M256.52,-1521.94C261.04,-1602.76 295.29,-2175.11 367,-2329.43 432.48,-2470.34 468.62,-2566.43 624,-2566.43 624,-2566.43 624,-2566.43 1898,-2566.43 2263.48,-2566.43 2404.2,-2691.8 2718,-2504.43 2827.66,-2438.95 2831.88,-2383.35 2873,-2262.43 2933.03,-2085.89 2890.2,-2029.94 2909,-1844.43 2933.24,-1605.24 2969.65,-1315.49 2979.48,-1238.17"/>
<polygon fill="midnightblue" stroke="midnightblue" points="2982.98,-1238.34 2980.78,-1227.98 2976.04,-1237.46 2982.98,-1238.34"/>
</g>
<!-- Node4 -->
<g id="node4" class="node">
<title>Node4</title>
<g id="a_node4"><a xlink:href="../../d7/d7c/class_a_s_t_factory.html#a8d1d4c9d01ab2e366d1af6bbaeaf7bef" target="_top" xlink:title=" ">
<polygon fill="none" stroke="black" points="2754,-2024.93 2754,-2043.93 2873,-2043.93 2873,-2024.93 2754,-2024.93"/>
<text text-anchor="middle" x="2813.5" y="-2031.93" font-family="Helvetica,sans-Serif" font-size="10.00">ASTFactory::createAST</text>
</a>
</g>
</g>
<!-- Node3&#45;&gt;Node4 -->
<g id="edge3" class="edge">
<title>Node3&#45;&gt;Node4</title>
<path fill="none" stroke="midnightblue" d="M256.68,-1522.11C261.01,-1580.5 287.08,-1891.06 367,-2129.43 434.06,-2329.42 413.06,-2528.43 624,-2528.43 624,-2528.43 624,-2528.43 1898,-2528.43 2082.82,-2528.43 2583.21,-2515.89 2718,-2389.43 2768.23,-2342.3 2800.97,-2121.96 2809.98,-2054.27"/>
<polygon fill="midnightblue" stroke="midnightblue" points="2813.48,-2054.48 2811.3,-2044.11 2806.54,-2053.58 2813.48,-2054.48"/>
</g>
<!-- Node8 -->
<g id="node8" class="node">
<title>Node8</title>
<g id="a_node8"><a xlink:href="../../d0/dfe/class_syntax_analyzer.html#ae1d3434e5cc4b4bcd5a3a245814a44f0" target="_top" xlink:title=" ">
<polygon fill="none" stroke="black" points="2763,-543.93 2763,-562.93 2864,-562.93 2864,-543.93 2763,-543.93"/>
<text text-anchor="middle" x="2813.5" y="-550.93" font-family="Helvetica,sans-Serif" font-size="10.00">SyntaxAnalyzer::eat</text>
</a>
</g>
</g>
<!-- Node3&#45;&gt;Node8 -->
<g id="edge7" class="edge">
<title>Node3&#45;&gt;Node8</title>
<path fill="none" stroke="midnightblue" d="M256.34,-1502.69C260.33,-1390.27 299.33,-340.56 367,-222.43 436.57,-100.98 484.04,-40.43 624,-40.43 624,-40.43 624,-40.43 2269.5,-40.43 2474.02,-40.43 2573.32,1.13 2718,-143.43 2774.53,-199.91 2803.46,-459.33 2810.67,-533.55"/>
<polygon fill="midnightblue" stroke="midnightblue" points="2807.22,-534.18 2811.65,-543.81 2814.19,-533.52 2807.22,-534.18"/>
</g>
<!-- Node10 -->
<g id="node10" class="node">
<title>Node10</title>
<g id="a_node10"><a xlink:href="../../db/d0e/sup_8hpp.html#ae7d62ca130413d4c96863327c1af81a4" target="_top" xlink:title="Возвращает истину, если value находится среди значений cont.">
<polygon fill="none" stroke="black" points="2431.5,-1132.93 2431.5,-1151.93 2463.5,-1151.93 2463.5,-1132.93 2431.5,-1132.93"/>
<text text-anchor="middle" x="2447.5" y="-1139.93" font-family="Helvetica,sans-Serif" font-size="10.00">isIn</text>
</a>
</g>
</g>
<!-- Node3&#45;&gt;Node10 -->
<g id="edge11" class="edge">
<title>Node3&#45;&gt;Node10</title>
<path fill="none" stroke="midnightblue" d="M256.92,-1502.82C264.98,-1424.96 330.17,-900.43 624,-900.43 624,-900.43 624,-900.43 1178.5,-900.43 1453.62,-900.43 1523.58,-915.78 1794,-966.43 2042.54,-1012.98 2335.04,-1105.88 2421.35,-1134.11"/>
<polygon fill="midnightblue" stroke="midnightblue" points="2420.46,-1137.5 2431.05,-1137.29 2422.64,-1130.85 2420.46,-1137.5"/>
</g>
<!-- Node11 -->
<g id="node11" class="node">
<title>Node11</title>
<g id="a_node11"><a xlink:href="../../d0/d11/class_i_token.html#a4fa3435db7157ca7316d4e4aee1df4c0" target="_top" xlink:title="Устанавливает дополнительный тип токена">
<polygon fill="none" stroke="black" points="2762,-676.93 2762,-695.93 2865,-695.93 2865,-676.93 2762,-676.93"/>
<text text-anchor="middle" x="2813.5" y="-683.93" font-family="Helvetica,sans-Serif" font-size="10.00">IToken::setAdvType</text>
</a>
</g>
</g>
<!-- Node3&#45;&gt;Node11 -->
<g id="edge12" class="edge">
<title>Node3&#45;&gt;Node11</title>
<path fill="none" stroke="midnightblue" d="M256.44,-1502.66C262.15,-1380.53 326.91,-154.43 624,-154.43 624,-154.43 624,-154.43 817.5,-154.43 1057.14,-154.43 1104.86,-268.43 1344.5,-268.43 1344.5,-268.43 1344.5,-268.43 1528,-268.43 1978.9,-268.43 2110.16,-287.86 2522,-471.43 2638.83,-523.5 2753.81,-628.98 2795.8,-669.79"/>
<polygon fill="midnightblue" stroke="midnightblue" points="2793.4,-672.34 2802.99,-676.84 2798.3,-667.34 2793.4,-672.34"/>
</g>
<!-- Node12 -->
<g id="node12" class="node">
<title>Node12</title>
<g id="a_node12"><a xlink:href="../../d0/dfe/class_syntax_analyzer.html#a2b54bac50e114b68e83c80d869b6ac7c" target="_top" xlink:title=" ">
<polygon fill="none" stroke="black" points="555,-833.93 555,-852.93 695,-852.93 695,-833.93 555,-833.93"/>
<text text-anchor="middle" x="625" y="-840.93" font-family="Helvetica,sans-Serif" font-size="10.00">SyntaxAnalyzer::syntaxBlock</text>
</a>
</g>
</g>
<!-- Node3&#45;&gt;Node12 -->
<g id="edge13" class="edge">
<title>Node3&#45;&gt;Node12</title>
<path fill="none" stroke="midnightblue" d="M256.24,-1502.79C258.28,-1430.83 274.65,-977.88 367,-886.43 412.94,-840.93 487.68,-832.84 544.75,-834.56"/>
<polygon fill="midnightblue" stroke="midnightblue" points="544.7,-838.06 554.83,-834.97 544.98,-831.06 544.7,-838.06"/>
</g>
<!-- Node37 -->
<g id="node37" class="node">
<title>Node37</title>
<g id="a_node37"><a xlink:href="../../d0/dfe/class_syntax_analyzer.html#ae04232a95c6423677e600927c82851e4" target="_top" xlink:title=" ">
<polygon fill="none" stroke="black" points="367,-2100.93 367,-2119.93 519,-2119.93 519,-2100.93 367,-2100.93"/>
<text text-anchor="middle" x="443" y="-2107.93" font-family="Helvetica,sans-Serif" font-size="10.00">SyntaxAnalyzer::syntaxFuncDef</text>
</a>
</g>
</g>
<!-- Node3&#45;&gt;Node37 -->
<g id="edge129" class="edge">
<title>Node3&#45;&gt;Node37</title>
<path fill="none" stroke="midnightblue" d="M259.07,-1522.31C280.43,-1590.96 406.7,-1996.93 435.95,-2090.98"/>
<polygon fill="midnightblue" stroke="midnightblue" points="432.65,-2092.14 438.96,-2100.65 439.33,-2090.06 432.65,-2092.14"/>
</g>
<!-- Node5 -->
<g id="node5" class="node">
<title>Node5</title>
<g id="a_node5"><a xlink:href="../../d0/d11/class_i_token.html#a3e73305ee0ac36d0bf5f26b649589b24" target="_top" xlink:title=" ">
<polygon fill="none" stroke="black" points="2931.5,-2043.93 2931.5,-2062.93 3034.5,-2062.93 3034.5,-2043.93 2931.5,-2043.93"/>
<text text-anchor="middle" x="2983" y="-2050.93" font-family="Helvetica,sans-Serif" font-size="10.00">IToken::getAdvType</text>
</a>
</g>
</g>
<!-- Node4&#45;&gt;Node5 -->
<g id="edge4" class="edge">
<title>Node4&#45;&gt;Node5</title>
<path fill="none" stroke="midnightblue" d="M2873.08,-2041.07C2888.64,-2042.84 2905.47,-2044.75 2921.14,-2046.53"/>
<polygon fill="midnightblue" stroke="midnightblue" points="2920.92,-2050.02 2931.25,-2047.67 2921.71,-2043.07 2920.92,-2050.02"/>
</g>
<!-- Node6 -->
<g id="node6" class="node">
<title>Node6</title>
<g id="a_node6"><a xlink:href="../../d0/d11/class_i_token.html#ac7f0a800d7a9e8608bab0360c76d735a" target="_top" xlink:title="Получение типа токена">
<polygon fill="none" stroke="black" points="2940,-1853.93 2940,-1872.93 3026,-1872.93 3026,-1853.93 2940,-1853.93"/>
<text text-anchor="middle" x="2983" y="-1860.93" font-family="Helvetica,sans-Serif" font-size="10.00">IToken::getType</text>
</a>
</g>
</g>
<!-- Node4&#45;&gt;Node6 -->
<g id="edge5" class="edge">
<title>Node4&#45;&gt;Node6</title>
<path fill="none" stroke="midnightblue" d="M2823.99,-2024.75C2851.39,-1996.76 2930.95,-1915.55 2965.57,-1880.2"/>
<polygon fill="midnightblue" stroke="midnightblue" points="2968.12,-1882.6 2972.62,-1873.01 2963.12,-1877.7 2968.12,-1882.6"/>
</g>
<!-- Node7 -->
<g id="node7" class="node">
<title>Node7</title>
<g id="a_node7"><a xlink:href="../../db/dc1/class_token.html#a1f07fa2fffeb2f7ab803ef8b424eae8a" target="_top" xlink:title=" ">
<polygon fill="none" stroke="black" points="2946,-2005.93 2946,-2024.93 3020,-2024.93 3020,-2005.93 2946,-2005.93"/>
<text text-anchor="middle" x="2983" y="-2012.93" font-family="Helvetica,sans-Serif" font-size="10.00">Token::setStr</text>
</a>
</g>
</g>
<!-- Node4&#45;&gt;Node7 -->
<g id="edge6" class="edge">
<title>Node4&#45;&gt;Node7</title>
<path fill="none" stroke="midnightblue" d="M2873.08,-2027.78C2893.56,-2025.46 2916.24,-2022.89 2935.58,-2020.69"/>
<polygon fill="midnightblue" stroke="midnightblue" points="2936.11,-2024.16 2945.65,-2019.55 2935.32,-2017.2 2936.11,-2024.16"/>
</g>
<!-- Node8&#45;&gt;Node2 -->
<g id="edge8" class="edge">
<title>Node8&#45;&gt;Node2</title>
<path fill="none" stroke="midnightblue" d="M2820.64,-563.08C2832.54,-582.22 2858.82,-626.67 2873,-667.43 2908.79,-770.34 2965.15,-1113.44 2978.9,-1198.98"/>
<polygon fill="midnightblue" stroke="midnightblue" points="2975.45,-1199.58 2980.49,-1208.9 2982.36,-1198.47 2975.45,-1199.58"/>
</g>
<!-- Node9 -->
<g id="node9" class="node">
<title>Node9</title>
<g id="a_node9"><a xlink:href="../../d0/dfe/class_syntax_analyzer.html#a9e41370d8d74fbd2e77648d2071e7dfe" target="_top" xlink:title=" ">
<polygon fill="none" stroke="black" points="2909,-771.93 2909,-790.93 3057,-790.93 3057,-771.93 2909,-771.93"/>
<text text-anchor="middle" x="2983" y="-778.93" font-family="Helvetica,sans-Serif" font-size="10.00">SyntaxAnalyzer::getNextToken</text>
</a>
</g>
</g>
<!-- Node8&#45;&gt;Node9 -->
<g id="edge9" class="edge">
<title>Node8&#45;&gt;Node9</title>
<path fill="none" stroke="midnightblue" d="M2821.48,-562.94C2847.02,-597.7 2935.6,-718.27 2969.06,-763.82"/>
<polygon fill="midnightblue" stroke="midnightblue" points="2966.24,-765.9 2974.99,-771.88 2971.89,-761.75 2966.24,-765.9"/>
</g>
<!-- Node12&#45;&gt;Node4 -->
<g id="edge14" class="edge">
<title>Node12&#45;&gt;Node4</title>
<path fill="none" stroke="midnightblue" d="M626.55,-853.09C633.69,-973.87 712.7,-2186.43 1007.5,-2186.43 1007.5,-2186.43 1007.5,-2186.43 1178.5,-2186.43 1385.86,-2186.43 1434.16,-2229.2 1639,-2261.43 1723.82,-2274.77 1744.53,-2282.21 1830,-2290.43 1905.27,-2297.67 1924.42,-2294.86 2000,-2297.43 2165.74,-2303.06 2207.18,-2305.21 2373,-2307.43 2526.33,-2309.48 2593.62,-2394.11 2718,-2304.43 2801.14,-2244.48 2811.65,-2105.7 2812.6,-2054.16"/>
<polygon fill="midnightblue" stroke="midnightblue" points="2816.1,-2054.07 2812.67,-2044.04 2809.1,-2054.01 2816.1,-2054.07"/>
</g>
<!-- Node13 -->
<g id="node13" class="node">
<title>Node13</title>
<g id="a_node13"><a xlink:href="../../d0/dfe/class_syntax_analyzer.html#a5770afdc4d32d2c38550f27f9ffd949a" target="_top" xlink:title=" ">
<polygon fill="none" stroke="black" points="731,-448.93 731,-467.93 902,-467.93 902,-448.93 731,-448.93"/>
<text text-anchor="middle" x="816.5" y="-455.93" font-family="Helvetica,sans-Serif" font-size="10.00">SyntaxAnalyzer::syntaxCompoundSt</text>
</a>
</g>
</g>
<!-- Node12&#45;&gt;Node13 -->
<g id="edge15" class="edge">
<title>Node12&#45;&gt;Node13</title>
<path fill="none" stroke="midnightblue" d="M630.68,-833.91C655.57,-783.36 772.4,-546 806.27,-477.18"/>
<polygon fill="midnightblue" stroke="midnightblue" points="809.53,-478.48 810.81,-467.96 803.25,-475.38 809.53,-478.48"/>
</g>
<!-- Node32 -->
<g id="node32" class="node">
<title>Node32</title>
<g id="a_node32"><a xlink:href="../../d0/dfe/class_syntax_analyzer.html#a58a0f927ad0a45e4ce837a98e98330aa" target="_top" xlink:title=" ">
<polygon fill="none" stroke="black" points="2374.5,-809.93 2374.5,-828.93 2520.5,-828.93 2520.5,-809.93 2374.5,-809.93"/>
<text text-anchor="middle" x="2447.5" y="-816.93" font-family="Helvetica,sans-Serif" font-size="10.00">SyntaxAnalyzer::syntaxConsts</text>
</a>
</g>
</g>
<!-- Node12&#45;&gt;Node32 -->
<g id="edge106" class="edge">
<title>Node12&#45;&gt;Node32</title>
<path fill="none" stroke="midnightblue" d="M637.64,-833.75C682.36,-797.57 848.55,-672.43 1007.5,-672.43 1007.5,-672.43 1007.5,-672.43 1346.5,-672.43 1754.2,-672.43 2239.46,-772.86 2395.51,-807.7"/>
<polygon fill="midnightblue" stroke="midnightblue" points="2394.79,-811.12 2405.31,-809.9 2396.32,-804.29 2394.79,-811.12"/>
</g>
<!-- Node34 -->
<g id="node34" class="node">
<title>Node34</title>
<g id="a_node34"><a xlink:href="../../d0/dfe/class_syntax_analyzer.html#a738f9b4cb7edf93c56af1b6974caad1a" target="_top" xlink:title=" ">
<polygon fill="none" stroke="black" points="2201,-904.93 2201,-923.93 2336,-923.93 2336,-904.93 2201,-904.93"/>
<text text-anchor="middle" x="2268.5" y="-911.93" font-family="Helvetica,sans-Serif" font-size="10.00">SyntaxAnalyzer::syntaxVars</text>
</a>
</g>
</g>
<!-- Node12&#45;&gt;Node34 -->
<g id="edge115" class="edge">
<title>Node12&#45;&gt;Node34</title>
<path fill="none" stroke="midnightblue" d="M695.22,-846.42C960.67,-857.9 1912.57,-899.08 2190.68,-911.11"/>
<polygon fill="midnightblue" stroke="midnightblue" points="2190.54,-914.6 2200.68,-911.54 2190.84,-907.61 2190.54,-914.6"/>
</g>
<!-- Node13&#45;&gt;Node2 -->
<g id="edge18" class="edge">
<title>Node13&#45;&gt;Node2</title>
<path fill="none" stroke="midnightblue" d="M830.28,-448.92C851.67,-433.36 896.46,-402.19 938,-382.43 1018.31,-344.23 2068.07,-2.43 2081,-2.43 2081,-2.43 2081,-2.43 2639,-2.43 2746.7,-2.43 2805.41,18.43 2873,-65.43 2924.31,-129.09 2899.95,-719.17 2909,-800.43 2926.24,-955.19 2964.78,-1139.36 2977.69,-1198.86"/>
<polygon fill="midnightblue" stroke="midnightblue" points="2974.3,-1199.75 2979.86,-1208.77 2981.14,-1198.26 2974.3,-1199.75"/>
</g>
<!-- Node13&#45;&gt;Node4 -->
<g id="edge16" class="edge">
<title>Node13&#45;&gt;Node4</title>
<path fill="none" stroke="midnightblue" d="M817.5,-468.11C818,-574.06 834.91,-1524.9 1276,-2073.43 1331.33,-2142.23 1368.1,-2137.05 1451,-2167.43 1823.73,-2304.03 1940.07,-2285.79 2337,-2280.43 2506.42,-2278.14 2579.43,-2364.93 2718,-2267.43 2790.23,-2216.61 2807.31,-2100.59 2811.3,-2054.16"/>
<polygon fill="midnightblue" stroke="midnightblue" points="2814.8,-2054.41 2812.05,-2044.18 2807.82,-2053.89 2814.8,-2054.41"/>
</g>
<!-- Node13&#45;&gt;Node8 -->
<g id="edge17" class="edge">
<title>Node13&#45;&gt;Node8</title>
<path fill="none" stroke="midnightblue" d="M818.94,-448.9C825.11,-411.66 853.05,-275.12 938,-216.43 1025.65,-155.88 1069.96,-192.43 1176.5,-192.43 1176.5,-192.43 1176.5,-192.43 2448.5,-192.43 2568.44,-192.43 2624.62,-131.16 2718,-206.43 2770.5,-248.75 2801.68,-466.7 2810.15,-533.76"/>
<polygon fill="midnightblue" stroke="midnightblue" points="2806.69,-534.33 2811.39,-543.83 2813.64,-533.47 2806.69,-534.33"/>
</g>
<!-- Node13&#45;&gt;Node11 -->
<g id="edge19" class="edge">
<title>Node13&#45;&gt;Node11</title>
<path fill="none" stroke="midnightblue" d="M902,-458.43C974.75,-458.43 1082.54,-458.43 1176.5,-458.43 1176.5,-458.43 1176.5,-458.43 2083,-458.43 2283.11,-458.43 2362.42,-437.69 2522,-558.43 2548.65,-578.59 2531.51,-604.07 2558,-624.43 2614.18,-667.6 2696.24,-681.19 2751.88,-685.21"/>
<polygon fill="midnightblue" stroke="midnightblue" points="2751.74,-688.71 2761.94,-685.86 2752.19,-681.72 2751.74,-688.71"/>
</g>
<!-- Node14 -->
<g id="node14" class="node">
<title>Node14</title>
<g id="a_node14"><a xlink:href="../../d0/dfe/class_syntax_analyzer.html#a6df61a82ef9de3c17b78be89a321a087" target="_top" xlink:title=" ">
<polygon fill="none" stroke="black" points="938,-391.93 938,-410.93 1079,-410.93 1079,-391.93 938,-391.93"/>
<text text-anchor="middle" x="1008.5" y="-398.93" font-family="Helvetica,sans-Serif" font-size="10.00">SyntaxAnalyzer::syntaxStList</text>
</a>
</g>
</g>
<!-- Node13&#45;&gt;Node14 -->
<g id="edge20" class="edge">
<title>Node13&#45;&gt;Node14</title>
<path fill="none" stroke="midnightblue" d="M849.3,-448.89C881.22,-439.31 930.57,-424.51 965.65,-413.98"/>
<polygon fill="midnightblue" stroke="midnightblue" points="967.02,-417.23 975.59,-411 965.01,-410.52 967.02,-417.23"/>
</g>
<!-- Node14&#45;&gt;Node2 -->
<g id="edge22" class="edge">
<title>Node14&#45;&gt;Node2</title>
<path fill="none" stroke="midnightblue" d="M1036.31,-391.82C1246.33,-317.35 2625.6,157.03 2873,-139.43 2920.13,-195.9 2900.66,-727.35 2909,-800.43 2926.66,-955.14 2964.93,-1139.34 2977.73,-1198.86"/>
<polygon fill="midnightblue" stroke="midnightblue" points="2974.34,-1199.74 2979.87,-1208.77 2981.18,-1198.26 2974.34,-1199.74"/>
</g>
<!-- Node14&#45;&gt;Node8 -->
<g id="edge21" class="edge">
<title>Node14&#45;&gt;Node8</title>
<path fill="none" stroke="midnightblue" d="M1042.94,-391.89C1102.86,-375.66 1232.7,-344.43 1344.5,-344.43 1344.5,-344.43 1344.5,-344.43 1717.5,-344.43 1847.07,-344.43 1873.08,-298.51 2000,-272.43 2117.88,-248.21 2147.15,-230.43 2267.5,-230.43 2267.5,-230.43 2267.5,-230.43 2448.5,-230.43 2568.54,-230.43 2623.8,-174.02 2718,-248.43 2808.77,-320.12 2814.35,-477.57 2813.31,-533.35"/>
<polygon fill="midnightblue" stroke="midnightblue" points="2809.81,-533.55 2813.02,-543.64 2816.8,-533.75 2809.81,-533.55"/>
</g>
<!-- Node15 -->
<g id="node15" class="node">
<title>Node15</title>
<g id="a_node15"><a xlink:href="../../d0/dfe/class_syntax_analyzer.html#a7f54bde730006b1b863290415809ab4e" target="_top" xlink:title=" ">
<polygon fill="none" stroke="black" points="1115,-1379.93 1115,-1398.93 1240,-1398.93 1240,-1379.93 1115,-1379.93"/>
<text text-anchor="middle" x="1177.5" y="-1386.93" font-family="Helvetica,sans-Serif" font-size="10.00">SyntaxAnalyzer::syntaxSt</text>
</a>
</g>
</g>
<!-- Node14&#45;&gt;Node15 -->
<g id="edge23" class="edge">
<title>Node14&#45;&gt;Node15</title>
<path fill="none" stroke="midnightblue" d="M1015.6,-411.02C1029.48,-433.39 1063.47,-491.16 1079,-544.43 1172.03,-863.58 1176.84,-1274.83 1176.65,-1369.43"/>
<polygon fill="midnightblue" stroke="midnightblue" points="1173.15,-1369.57 1176.6,-1379.58 1180.15,-1369.6 1173.15,-1369.57"/>
</g>
<!-- Node15&#45;&gt;Node2 -->
<g id="edge25" class="edge">
<title>Node15&#45;&gt;Node2</title>
<path fill="none" stroke="midnightblue" d="M1181.17,-1379.91C1214.51,-1263.42 1560.76,-116.43 2267.5,-116.43 2267.5,-116.43 2267.5,-116.43 2639,-116.43 2965.83,-116.43 2858.96,-477.46 2909,-800.43 2932.84,-954.31 2967.08,-1139.05 2978.29,-1198.78"/>
<polygon fill="midnightblue" stroke="midnightblue" points="2974.88,-1199.55 2980.16,-1208.73 2981.75,-1198.26 2974.88,-1199.55"/>
</g>
<!-- Node15&#45;&gt;Node8 -->
<g id="edge24" class="edge">
<title>Node15&#45;&gt;Node8</title>
<path fill="none" stroke="midnightblue" d="M1181.78,-1379.84C1206.8,-1307.85 1373.66,-847.2 1639,-568.43 1671.75,-534.02 1956.48,-358.47 2000,-339.43 2112.69,-290.13 2144.49,-268.43 2267.5,-268.43 2267.5,-268.43 2267.5,-268.43 2448.5,-268.43 2568.83,-268.43 2622.83,-220.79 2718,-294.43 2795.61,-354.49 2809.52,-484.48 2811.98,-533.86"/>
<polygon fill="midnightblue" stroke="midnightblue" points="2808.49,-534 2812.38,-543.86 2815.48,-533.73 2808.49,-534"/>
</g>
<!-- Node15&#45;&gt;Node13 -->
<g id="edge73" class="edge">
<title>Node15&#45;&gt;Node13</title>
<path fill="none" stroke="midnightblue" d="M1176.84,-1379.84C1178.57,-1320.75 1182.65,-1001.09 1079,-772.43 1018.78,-639.58 886.61,-517.58 836.91,-474.7"/>
<polygon fill="midnightblue" stroke="midnightblue" points="839.02,-471.9 829.14,-468.06 834.47,-477.22 839.02,-471.9"/>
</g>
<!-- Node16 -->
<g id="node16" class="node">
<title>Node16</title>
<g id="a_node16"><a xlink:href="../../d0/dfe/class_syntax_analyzer.html#af0905389742c4f842207bb2c073afbfa" target="_top" xlink:title=" ">
<polygon fill="none" stroke="black" points="2569.5,-1644.93 2569.5,-1663.93 2706.5,-1663.93 2706.5,-1644.93 2569.5,-1644.93"/>
<text text-anchor="middle" x="2638" y="-1651.93" font-family="Helvetica,sans-Serif" font-size="10.00">SyntaxAnalyzer::lookFoward</text>
</a>
</g>
</g>
<!-- Node15&#45;&gt;Node16 -->
<g id="edge26" class="edge">
<title>Node15&#45;&gt;Node16</title>
<path fill="none" stroke="midnightblue" d="M1179.2,-1398.96C1185.45,-1476.19 1238.21,-1996.43 1526,-1996.43 1526,-1996.43 1526,-1996.43 2269.5,-1996.43 2460.98,-1996.43 2594.47,-1744.55 2628.48,-1673.11"/>
<polygon fill="midnightblue" stroke="midnightblue" points="2631.7,-1674.47 2632.77,-1663.93 2625.36,-1671.51 2631.7,-1674.47"/>
</g>
<!-- Node18 -->
<g id="node18" class="node">
<title>Node18</title>
<g id="a_node18"><a xlink:href="../../d0/dfe/class_syntax_analyzer.html#a31fc5887c158652feb946f89270b4b36" target="_top" xlink:title=" ">
<polygon fill="none" stroke="black" points="1639,-1322.93 1639,-1341.93 1794,-1341.93 1794,-1322.93 1639,-1322.93"/>
<text text-anchor="middle" x="1716.5" y="-1329.93" font-family="Helvetica,sans-Serif" font-size="10.00">SyntaxAnalyzer::syntaxAssignSt</text>
</a>
</g>
</g>
<!-- Node15&#45;&gt;Node18 -->
<g id="edge28" class="edge">
<title>Node15&#45;&gt;Node18</title>
<path fill="none" stroke="midnightblue" d="M1240.1,-1382.89C1335.61,-1372.75 1519.73,-1353.21 1628.68,-1341.64"/>
<polygon fill="midnightblue" stroke="midnightblue" points="1629.09,-1345.12 1638.66,-1340.58 1628.35,-1338.16 1629.09,-1345.12"/>
</g>
<!-- Node24 -->
<g id="node24" class="node">
<title>Node24</title>
<g id="a_node24"><a xlink:href="../../d0/dfe/class_syntax_analyzer.html#a2db43946bee3e973ce1cf293b262e271" target="_top" xlink:title=" ">
<polygon fill="none" stroke="black" points="2567.5,-1360.93 2567.5,-1379.93 2708.5,-1379.93 2708.5,-1360.93 2567.5,-1360.93"/>
<text text-anchor="middle" x="2638" y="-1367.93" font-family="Helvetica,sans-Serif" font-size="10.00">SyntaxAnalyzer::syntaxCallSt</text>
</a>
</g>
</g>
<!-- Node15&#45;&gt;Node24 -->
<g id="edge72" class="edge">
<title>Node15&#45;&gt;Node24</title>
<path fill="none" stroke="midnightblue" d="M1213.21,-1398.97C1275.4,-1415.2 1410.15,-1446.43 1526,-1446.43 1526,-1446.43 1526,-1446.43 2269.5,-1446.43 2285.17,-1446.43 2484.95,-1403.48 2583.18,-1382.16"/>
<polygon fill="midnightblue" stroke="midnightblue" points="2584.19,-1385.52 2593.22,-1379.98 2582.71,-1378.68 2584.19,-1385.52"/>
</g>
<!-- Node26 -->
<g id="node26" class="node">
<title>Node26</title>
<g id="a_node26"><a xlink:href="../../d0/dfe/class_syntax_analyzer.html#a67bc7e3cfb57c9d4d25d60913aef3a87" target="_top" xlink:title=" ">
<polygon fill="none" stroke="black" points="1451,-2138.93 1451,-2157.93 1603,-2157.93 1603,-2138.93 1451,-2138.93"/>
<text text-anchor="middle" x="1527" y="-2145.93" font-family="Helvetica,sans-Serif" font-size="10.00">SyntaxAnalyzer::syntaxEmptySt</text>
</a>
</g>
</g>
<!-- Node15&#45;&gt;Node26 -->
<g id="edge74" class="edge">
<title>Node15&#45;&gt;Node26</title>
<path fill="none" stroke="midnightblue" d="M1178.88,-1399.16C1181.77,-1469.9 1202.43,-1905.4 1276,-2010.43 1324.8,-2080.1 1420.49,-2118.37 1478.29,-2136.03"/>
<polygon fill="midnightblue" stroke="midnightblue" points="1477.34,-2139.4 1487.92,-2138.89 1479.33,-2132.69 1477.34,-2139.4"/>
</g>
<!-- Node27 -->
<g id="node27" class="node">
<title>Node27</title>
<g id="a_node27"><a xlink:href="../../d0/dfe/class_syntax_analyzer.html#a82e8472ea6d1064871de0d05eaa8b374" target="_top" xlink:title=" ">
<polygon fill="none" stroke="black" points="1276,-1557.93 1276,-1576.93 1415,-1576.93 1415,-1557.93 1276,-1557.93"/>
<text text-anchor="middle" x="1345.5" y="-1564.93" font-family="Helvetica,sans-Serif" font-size="10.00">SyntaxAnalyzer::syntaxForSt</text>
</a>
</g>
</g>
<!-- Node15&#45;&gt;Node27 -->
<g id="edge76" class="edge">
<title>Node15&#45;&gt;Node27</title>
<path fill="none" stroke="midnightblue" d="M1188.12,-1399.04C1204.39,-1420.54 1239.17,-1471.14 1276,-1507.43 1292.62,-1523.8 1314.68,-1539.32 1329.22,-1550.93"/>
<polygon fill="midnightblue" stroke="midnightblue" points="1327.28,-1553.87 1337.19,-1557.63 1331.79,-1548.51 1327.28,-1553.87"/>
</g>
<!-- Node29 -->
<g id="node29" class="node">
<title>Node29</title>
<g id="a_node29"><a xlink:href="../../d0/dfe/class_syntax_analyzer.html#a779e006875d35926152773989f4b1e5a" target="_top" xlink:title=" ">
<polygon fill="none" stroke="black" points="1651,-1483.93 1651,-1502.93 1782,-1502.93 1782,-1483.93 1651,-1483.93"/>
<text text-anchor="middle" x="1716.5" y="-1490.93" font-family="Helvetica,sans-Serif" font-size="10.00">SyntaxAnalyzer::syntaxIfSt</text>
</a>
</g>
</g>
<!-- Node15&#45;&gt;Node29 -->
<g id="edge89" class="edge">
<title>Node15&#45;&gt;Node29</title>
<path fill="none" stroke="midnightblue" d="M1194.74,-1399.12C1212.82,-1413.78 1243.77,-1439.58 1276,-1451.43 1397.89,-1496.22 1551.32,-1496.13 1640.9,-1493.6"/>
<polygon fill="midnightblue" stroke="midnightblue" points="1641.08,-1497.09 1650.97,-1493.3 1640.87,-1490.1 1641.08,-1497.09"/>
</g>
<!-- Node30 -->
<g id="node30" class="node">
<title>Node30</title>
<g id="a_node30"><a xlink:href="../../d0/dfe/class_syntax_analyzer.html#a55e935b2aa7f20b66e9228e977582fcd" target="_top" xlink:title=" ">
<polygon fill="none" stroke="black" points="1640,-1379.93 1640,-1398.93 1793,-1398.93 1793,-1379.93 1640,-1379.93"/>
<text text-anchor="middle" x="1716.5" y="-1386.93" font-family="Helvetica,sans-Serif" font-size="10.00">SyntaxAnalyzer::syntaxReturnSt</text>
</a>
</g>
</g>
<!-- Node15&#45;&gt;Node30 -->
<g id="edge95" class="edge">
<title>Node15&#45;&gt;Node30</title>
<path fill="none" stroke="midnightblue" d="M1240.1,-1389.43C1335.78,-1389.43 1520.39,-1389.43 1629.27,-1389.43"/>
<polygon fill="midnightblue" stroke="midnightblue" points="1629.56,-1392.93 1639.56,-1389.43 1629.56,-1385.93 1629.56,-1392.93"/>
</g>
<!-- Node31 -->
<g id="node31" class="node">
<title>Node31</title>
<g id="a_node31"><a xlink:href="../../d0/dfe/class_syntax_analyzer.html#a64dad7f0b22b08d182483469d3a1aa79" target="_top" xlink:title=" ">
<polygon fill="none" stroke="black" points="1642,-975.93 1642,-994.93 1791,-994.93 1791,-975.93 1642,-975.93"/>
<text text-anchor="middle" x="1716.5" y="-982.93" font-family="Helvetica,sans-Serif" font-size="10.00">SyntaxAnalyzer::syntaxWhileSt</text>
</a>
</g>
</g>
<!-- Node15&#45;&gt;Node31 -->
<g id="edge100" class="edge">
<title>Node15&#45;&gt;Node31</title>
<path fill="none" stroke="midnightblue" d="M1188.75,-1379.69C1252.52,-1325.78 1595.42,-1067.47 1690.84,-1000.94"/>
<polygon fill="midnightblue" stroke="midnightblue" points="1693.04,-1003.67 1699.29,-995.11 1689.07,-997.91 1693.04,-1003.67"/>
</g>
<!-- Node17 -->
<g id="node17" class="node">
<title>Node17</title>
<g id="a_node17"><a xlink:href="../../d1/d34/class_list.html#a49c179636e084dfbf7a52acd46acaf01" target="_top" xlink:title=" ">
<polygon fill="none" stroke="black" points="2786,-1682.93 2786,-1701.93 2841,-1701.93 2841,-1682.93 2786,-1682.93"/>
<text text-anchor="middle" x="2813.5" y="-1689.93" font-family="Helvetica,sans-Serif" font-size="10.00">List::size</text>
</a>
</g>
</g>
<!-- Node16&#45;&gt;Node17 -->
<g id="edge27" class="edge">
<title>Node16&#45;&gt;Node17</title>
<path fill="none" stroke="midnightblue" d="M2682.78,-1664.02C2711.53,-1670.32 2748.71,-1678.46 2775.89,-1684.41"/>
<polygon fill="midnightblue" stroke="midnightblue" points="2775.26,-1687.86 2785.78,-1686.58 2776.76,-1681.02 2775.26,-1687.86"/>
</g>
<!-- Node18&#45;&gt;Node2 -->
<g id="edge31" class="edge">
<title>Node18&#45;&gt;Node2</title>
<path fill="none" stroke="midnightblue" d="M1720.12,-1322.77C1729.61,-1289.42 1765.06,-1177.46 1830,-1110.43 1889.93,-1048.58 1917.54,-1042.28 2000,-1017.43 2085.42,-991.69 2110.87,-1004.21 2200,-1000.43 2343.29,-994.35 2384.06,-982.19 2522,-1021.43 2539.02,-1026.27 2541.68,-1031.59 2558,-1038.43 2695.59,-1096.12 2738.14,-1090.63 2873,-1154.43 2903.9,-1169.05 2937.54,-1189.57 2959.16,-1203.4"/>
<polygon fill="midnightblue" stroke="midnightblue" points="2957.34,-1206.39 2967.64,-1208.88 2961.14,-1200.51 2957.34,-1206.39"/>
</g>
<!-- Node18&#45;&gt;Node4 -->
<g id="edge29" class="edge">
<title>Node18&#45;&gt;Node4</title>
<path fill="none" stroke="midnightblue" d="M1752.05,-1342.05C1767.06,-1347.91 1783.55,-1356.95 1794,-1370.43 1841.3,-1431.48 1789.49,-1474.67 1830,-1540.43 1848.93,-1571.15 2316.11,-1917.01 2337,-1946.43 2364.83,-1985.63 2333.76,-2020.66 2373,-2048.43 2431.64,-2089.92 2641.55,-2062.85 2748.65,-2045.59"/>
<polygon fill="midnightblue" stroke="midnightblue" points="2749.38,-2049.02 2758.69,-2043.95 2748.25,-2042.11 2749.38,-2049.02"/>
</g>
<!-- Node18&#45;&gt;Node8 -->
<g id="edge30" class="edge">
<title>Node18&#45;&gt;Node8</title>
<path fill="none" stroke="midnightblue" d="M1719.77,-1322.72C1735.37,-1255.96 1826.32,-867.34 1830,-862.43 1941.74,-713.05 2377.75,-492.5 2558,-444.43 2626.71,-426.11 2653.31,-414.9 2718,-444.43 2758.81,-463.06 2788.77,-508.98 2803.09,-534.88"/>
<polygon fill="midnightblue" stroke="midnightblue" points="2800.01,-536.55 2807.8,-543.73 2806.19,-533.26 2800.01,-536.55"/>
</g>
<!-- Node19 -->
<g id="node19" class="node">
<title>Node19</title>
<g id="a_node19"><a xlink:href="../../d0/dfe/class_syntax_analyzer.html#ae8d09db1b25ec882248aeed978c13a4d" target="_top" xlink:title=" ">
<polygon fill="none" stroke="black" points="1830,-1322.93 1830,-1341.93 1964,-1341.93 1964,-1322.93 1830,-1322.93"/>
<text text-anchor="middle" x="1897" y="-1329.93" font-family="Helvetica,sans-Serif" font-size="10.00">SyntaxAnalyzer::syntaxExpr</text>
</a>
</g>
</g>
<!-- Node18&#45;&gt;Node19 -->
<g id="edge32" class="edge">
<title>Node18&#45;&gt;Node19</title>
<path fill="none" stroke="midnightblue" d="M1794.24,-1332.43C1802.7,-1332.43 1811.32,-1332.43 1819.78,-1332.43"/>
<polygon fill="midnightblue" stroke="midnightblue" points="1819.99,-1335.93 1829.99,-1332.43 1819.99,-1328.93 1819.99,-1335.93"/>
</g>
<!-- Node25 -->
<g id="node25" class="node">
<title>Node25</title>
<g id="a_node25"><a xlink:href="../../d0/dfe/class_syntax_analyzer.html#a94c8a6ab5c0e53cae22edb1a840a27ce" target="_top" xlink:title=" ">
<polygon fill="none" stroke="black" points="2563,-1170.93 2563,-1189.93 2713,-1189.93 2713,-1170.93 2563,-1170.93"/>
<text text-anchor="middle" x="2638" y="-1177.93" font-family="Helvetica,sans-Serif" font-size="10.00">SyntaxAnalyzer::syntaxVariable</text>
</a>
</g>
</g>
<!-- Node18&#45;&gt;Node25 -->
<g id="edge71" class="edge">
<title>Node18&#45;&gt;Node25</title>
<path fill="none" stroke="midnightblue" d="M1726.32,-1322.77C1759.2,-1287.25 1878.94,-1162.3 2000,-1090.43 2081.77,-1041.89 2106.47,-1031.6 2200,-1014.43 2259.89,-1003.43 2278.04,-999.21 2337,-1014.43 2452.6,-1044.28 2571.21,-1129.25 2617.16,-1164.65"/>
<polygon fill="midnightblue" stroke="midnightblue" points="2615.07,-1167.47 2625.11,-1170.85 2619.38,-1161.94 2615.07,-1167.47"/>
</g>
<!-- Node19&#45;&gt;Node2 -->
<g id="edge35" class="edge">
<title>Node19&#45;&gt;Node2</title>
<path fill="none" stroke="midnightblue" d="M1900.67,-1322.86C1909.36,-1293.67 1939.8,-1205.4 2000,-1166.43 2075.24,-1117.72 2110.94,-1150.59 2200,-1140.43 2276.76,-1131.67 2295.83,-1127.21 2373,-1123.43 2596.77,-1112.46 2654.8,-1136.63 2873,-1187.43 2895.89,-1192.76 2921.15,-1199.86 2941.59,-1205.93"/>
<polygon fill="midnightblue" stroke="midnightblue" points="2940.61,-1209.29 2951.2,-1208.81 2942.62,-1202.58 2940.61,-1209.29"/>
</g>
<!-- Node19&#45;&gt;Node4 -->
<g id="edge33" class="edge">
<title>Node19&#45;&gt;Node4</title>
<path fill="none" stroke="midnightblue" d="M1902.28,-1342.02C1914.7,-1369.17 1952.84,-1448.11 2000,-1502.43 2061.52,-1573.3 2092.93,-1574.14 2164,-1635.43 2180.44,-1649.6 2183.95,-1653.81 2200,-1668.43 2260.71,-1723.73 2285.32,-1728.6 2337,-1792.43 2357.05,-1817.19 2350.54,-1831.83 2373,-1854.43 2440.27,-1922.12 2470.18,-1926.07 2558,-1963.43 2623.03,-1991.1 2701.97,-2011.18 2754.52,-2022.78"/>
<polygon fill="midnightblue" stroke="midnightblue" points="2753.82,-2026.21 2764.34,-2024.92 2755.31,-2019.37 2753.82,-2026.21"/>
</g>
<!-- Node19&#45;&gt;Node6 -->
<g id="edge36" class="edge">
<title>Node19&#45;&gt;Node6</title>
<path fill="none" stroke="midnightblue" d="M1915.59,-1342.06C1959.39,-1366.39 2076.14,-1433.29 2164,-1502.43 2247.74,-1568.33 2273.32,-1582.99 2337,-1668.43 2357.91,-1696.48 2348.31,-1713.65 2373,-1738.43 2438.38,-1804.05 2470.3,-1804.61 2558,-1834.43 2691.37,-1879.77 2732.19,-1873.3 2873,-1869.43 2891.54,-1868.92 2911.83,-1867.92 2929.82,-1866.89"/>
<polygon fill="midnightblue" stroke="midnightblue" points="2930.06,-1870.38 2939.84,-1866.29 2929.65,-1863.39 2930.06,-1870.38"/>
</g>
<!-- Node19&#45;&gt;Node8 -->
<g id="edge34" class="edge">
<title>Node19&#45;&gt;Node8</title>
<path fill="none" stroke="midnightblue" d="M1900.15,-1322.73C1908.2,-1288.1 1939.25,-1168.52 2000,-1090.43 2056.11,-1018.31 2114.08,-1042.96 2164,-966.43 2201.93,-908.28 2151.85,-864.44 2200,-814.43 2243.82,-768.91 2288.65,-817.11 2337,-776.43 2365.6,-752.37 2344.15,-724.19 2373,-700.43 2425.75,-656.98 2471.9,-708.91 2522,-662.43 2558.78,-628.3 2517.37,-584.87 2558,-555.43 2621.7,-509.27 2719.88,-526.35 2773.78,-541.03"/>
<polygon fill="midnightblue" stroke="midnightblue" points="2773.05,-544.46 2783.63,-543.82 2774.96,-537.72 2773.05,-544.46"/>
</g>
<!-- Node19&#45;&gt;Node10 -->
<g id="edge37" class="edge">
<title>Node19&#45;&gt;Node10</title>
<path fill="none" stroke="midnightblue" d="M1906.03,-1322.76C1922.09,-1303.96 1960.08,-1262.14 2000,-1237.43 2080.72,-1187.46 2107.35,-1183.13 2200,-1162.43 2279.36,-1144.69 2376.2,-1142.25 2421.23,-1142.18"/>
<polygon fill="midnightblue" stroke="midnightblue" points="2421.27,-1145.68 2431.28,-1142.21 2421.28,-1138.68 2421.27,-1145.68"/>
</g>
<!-- Node20 -->
<g id="node20" class="node">
<title>Node20</title>
<g id="a_node20"><a xlink:href="../../d0/dfe/class_syntax_analyzer.html#a3dfb6634a4bcdc61da5b1bafd1f3d136" target="_top" xlink:title=" ">
<polygon fill="none" stroke="black" points="2000,-1246.93 2000,-1265.93 2164,-1265.93 2164,-1246.93 2000,-1246.93"/>
<text text-anchor="middle" x="2082" y="-1253.93" font-family="Helvetica,sans-Serif" font-size="10.00">SyntaxAnalyzer::syntaxSimpleExpr</text>
</a>
</g>
</g>
<!-- Node19&#45;&gt;Node20 -->
<g id="edge38" class="edge">
<title>Node19&#45;&gt;Node20</title>
<path fill="none" stroke="midnightblue" d="M1921.18,-1322.8C1953.49,-1309.38 2012.22,-1285 2048.78,-1269.81"/>
<polygon fill="midnightblue" stroke="midnightblue" points="2050.12,-1273.04 2058.01,-1265.98 2047.43,-1266.58 2050.12,-1273.04"/>
</g>
<!-- Node20&#45;&gt;Node2 -->
<g id="edge41" class="edge">
<title>Node20&#45;&gt;Node2</title>
<path fill="none" stroke="midnightblue" d="M2135.58,-1246.93C2155.68,-1243.55 2178.85,-1239.96 2200,-1237.43 2309.1,-1224.39 2336.62,-1218.43 2446.5,-1218.43 2446.5,-1218.43 2446.5,-1218.43 2639,-1218.43 2731.04,-1218.43 2836.98,-1218.43 2906.47,-1218.43"/>
<polygon fill="midnightblue" stroke="midnightblue" points="2906.88,-1221.93 2916.88,-1218.43 2906.88,-1214.93 2906.88,-1221.93"/>
</g>
<!-- Node20&#45;&gt;Node4 -->
<g id="edge39" class="edge">
<title>Node20&#45;&gt;Node4</title>
<path fill="none" stroke="midnightblue" d="M2088.4,-1266.12C2115.39,-1314.52 2238.16,-1534.97 2337,-1716.43 2353.17,-1746.11 2350.66,-1758.06 2373,-1783.43 2489.99,-1916.27 2558.59,-1905.47 2718,-1982.43 2742.09,-1994.06 2768.72,-2008.9 2787.56,-2019.75"/>
<polygon fill="midnightblue" stroke="midnightblue" points="2785.98,-2022.88 2796.39,-2024.87 2789.49,-2016.83 2785.98,-2022.88"/>
</g>
<!-- Node20&#45;&gt;Node6 -->
<g id="edge42" class="edge">
<title>Node20&#45;&gt;Node6</title>
<path fill="none" stroke="midnightblue" d="M2101.83,-1266.01C2149.94,-1291.55 2277.71,-1366.36 2337,-1468.43 2382.59,-1546.9 2315.01,-1599.62 2373,-1669.43 2515.61,-1841.12 2810.07,-1862.78 2929.73,-1864.17"/>
<polygon fill="midnightblue" stroke="midnightblue" points="2929.71,-1867.67 2939.74,-1864.25 2929.76,-1860.67 2929.71,-1867.67"/>
</g>
<!-- Node20&#45;&gt;Node8 -->
<g id="edge40" class="edge">
<title>Node20&#45;&gt;Node8</title>
<path fill="none" stroke="midnightblue" d="M2088.42,-1246.84C2102.86,-1220.87 2142.64,-1146.7 2164,-1080.43 2189.69,-1000.7 2151.7,-963.87 2200,-895.43 2240.78,-837.63 2289.32,-866.68 2337,-814.43 2362.19,-786.82 2344.15,-762.19 2373,-738.43 2425.75,-694.98 2471.7,-746.69 2522,-700.43 2558,-667.32 2520.67,-628.03 2558,-596.43 2586.65,-572.18 2686.8,-561.25 2752.6,-556.6"/>
<polygon fill="midnightblue" stroke="midnightblue" points="2753.1,-560.07 2762.84,-555.9 2752.63,-553.09 2753.1,-560.07"/>
</g>
<!-- Node20&#45;&gt;Node10 -->
<g id="edge43" class="edge">
<title>Node20&#45;&gt;Node10</title>
<path fill="none" stroke="midnightblue" d="M2102.05,-1246.74C2124.87,-1235.42 2164.49,-1216.68 2200,-1204.43 2279,-1177.17 2376.02,-1156.31 2421.16,-1147.3"/>
<polygon fill="midnightblue" stroke="midnightblue" points="2422.1,-1150.68 2431.23,-1145.32 2420.74,-1143.82 2422.1,-1150.68"/>
</g>
<!-- Node21 -->
<g id="node21" class="node">
<title>Node21</title>
<g id="a_node21"><a xlink:href="../../d0/dfe/class_syntax_analyzer.html#a1e9b913cc8c2861927d7c05d10f1822d" target="_top" xlink:title=" ">
<polygon fill="none" stroke="black" points="2200,-1246.93 2200,-1265.93 2337,-1265.93 2337,-1246.93 2200,-1246.93"/>
<text text-anchor="middle" x="2268.5" y="-1253.93" font-family="Helvetica,sans-Serif" font-size="10.00">SyntaxAnalyzer::syntaxTerm</text>
</a>
</g>
</g>
<!-- Node20&#45;&gt;Node21 -->
<g id="edge44" class="edge">
<title>Node20&#45;&gt;Node21</title>
<path fill="none" stroke="midnightblue" d="M2164.19,-1256.43C2172.65,-1256.43 2181.23,-1256.43 2189.64,-1256.43"/>
<polygon fill="midnightblue" stroke="midnightblue" points="2189.81,-1259.93 2199.81,-1256.43 2189.81,-1252.93 2189.81,-1259.93"/>
</g>
<!-- Node21&#45;&gt;Node2 -->
<g id="edge47" class="edge">
<title>Node21&#45;&gt;Node2</title>
<path fill="none" stroke="midnightblue" d="M2337.05,-1255.68C2448.75,-1254.01 2678.91,-1248.72 2873,-1232.43 2883.92,-1231.51 2895.42,-1230.3 2906.7,-1228.98"/>
<polygon fill="midnightblue" stroke="midnightblue" points="2907.46,-1232.41 2916.97,-1227.73 2906.62,-1225.46 2907.46,-1232.41"/>
</g>
<!-- Node21&#45;&gt;Node4 -->
<g id="edge45" class="edge">
<title>Node21&#45;&gt;Node4</title>
<path fill="none" stroke="midnightblue" d="M2271.62,-1266.02C2285.81,-1330.31 2366.84,-1696.48 2373,-1706.43 2429.03,-1796.9 2469.6,-1799.18 2558,-1858.43 2625.06,-1903.38 2652.63,-1897.06 2718,-1944.43 2748.66,-1966.65 2779.56,-1998.21 2797.33,-2017.45"/>
<polygon fill="midnightblue" stroke="midnightblue" points="2794.77,-2019.85 2804.09,-2024.88 2799.95,-2015.13 2794.77,-2019.85"/>
</g>
<!-- Node21&#45;&gt;Node6 -->
<g id="edge48" class="edge">
<title>Node21&#45;&gt;Node6</title>
<path fill="none" stroke="midnightblue" d="M2317.79,-1265.97C2325.18,-1269.41 2331.99,-1274.08 2337,-1280.43 2430.28,-1398.7 2279.43,-1499.39 2373,-1617.43 2446.13,-1709.68 2767.36,-1740.48 2873,-1792.43 2905.45,-1808.39 2939.95,-1832.16 2961.24,-1847.73"/>
<polygon fill="midnightblue" stroke="midnightblue" points="2959.39,-1850.71 2969.51,-1853.85 2963.56,-1845.09 2959.39,-1850.71"/>
</g>
<!-- Node21&#45;&gt;Node8 -->
<g id="edge46" class="edge">
<title>Node21&#45;&gt;Node8</title>
<path fill="none" stroke="midnightblue" d="M2309.33,-1246.87C2373.5,-1230.62 2495.32,-1196.01 2522,-1161.43 2616.72,-1038.67 2464.22,-937.91 2558,-814.43 2604.22,-753.57 2663.16,-804.66 2718,-751.43 2747.15,-723.14 2736.72,-704.19 2754,-667.43 2770.01,-633.39 2790.39,-594.58 2802.39,-572.15"/>
<polygon fill="midnightblue" stroke="midnightblue" points="2805.61,-573.54 2807.26,-563.08 2799.45,-570.23 2805.61,-573.54"/>
</g>
<!-- Node21&#45;&gt;Node10 -->
<g id="edge49" class="edge">
<title>Node21&#45;&gt;Node10</title>
<path fill="none" stroke="midnightblue" d="M2279.98,-1246.9C2304.15,-1224.97 2362.54,-1172.36 2373,-1166.43 2388.13,-1157.85 2406.77,-1151.81 2421.49,-1147.93"/>
<polygon fill="midnightblue" stroke="midnightblue" points="2422.54,-1151.28 2431.41,-1145.49 2420.87,-1144.48 2422.54,-1151.28"/>
</g>
<!-- Node22 -->
<g id="node22" class="node">
<title>Node22</title>
<g id="a_node22"><a xlink:href="../../d0/dfe/class_syntax_analyzer.html#a3af9b5161a2cef6fdd26b0bb60334ac4" target="_top" xlink:title=" ">
<polygon fill="none" stroke="black" points="2376,-1304.93 2376,-1323.93 2519,-1323.93 2519,-1304.93 2376,-1304.93"/>
<text text-anchor="middle" x="2447.5" y="-1311.93" font-family="Helvetica,sans-Serif" font-size="10.00">SyntaxAnalyzer::syntaxFactor</text>
</a>
</g>
</g>
<!-- Node21&#45;&gt;Node22 -->
<g id="edge50" class="edge">
<title>Node21&#45;&gt;Node22</title>
<path fill="none" stroke="midnightblue" d="M2298.73,-1266.01C2328.45,-1275.75 2374.67,-1290.89 2407.5,-1301.65"/>
<polygon fill="midnightblue" stroke="midnightblue" points="2406.64,-1305.05 2417.23,-1304.84 2408.82,-1298.4 2406.64,-1305.05"/>
</g>
<!-- Node22&#45;&gt;Node2 -->
<g id="edge57" class="edge">
<title>Node22&#45;&gt;Node2</title>
<path fill="none" stroke="midnightblue" d="M2519.36,-1314.41C2604.77,-1312.72 2751.93,-1304.49 2873,-1270.43 2903.59,-1261.82 2936.17,-1245.18 2957.66,-1233.03"/>
<polygon fill="midnightblue" stroke="midnightblue" points="2959.51,-1236 2966.42,-1227.98 2956.01,-1229.94 2959.51,-1236"/>
</g>
<!-- Node22&#45;&gt;Node4 -->
<g id="edge51" class="edge">
<title>Node22&#45;&gt;Node4</title>
<path fill="none" stroke="midnightblue" d="M2451.17,-1324.06C2467.79,-1384.09 2556.53,-1704.33 2558,-1706.43 2608.17,-1777.89 2662.84,-1752.74 2718,-1820.43 2768.42,-1882.3 2797.12,-1975.29 2807.73,-2015.16"/>
<polygon fill="midnightblue" stroke="midnightblue" points="2804.36,-2016.12 2810.25,-2024.93 2811.14,-2014.37 2804.36,-2016.12"/>
</g>
<!-- Node22&#45;&gt;Node5 -->
<g id="edge56" class="edge">
<title>Node22&#45;&gt;Node5</title>
<path fill="none" stroke="midnightblue" d="M2451.13,-1324.03C2466.46,-1379.87 2544.12,-1660.78 2558,-1673.43 2611.66,-1722.34 2659.05,-1664.04 2718,-1706.43 2854.96,-1804.92 2774.61,-1932.47 2909,-2034.43 2912.9,-2037.39 2917.22,-2039.89 2921.76,-2042"/>
<polygon fill="midnightblue" stroke="midnightblue" points="2920.71,-2045.35 2931.29,-2045.82 2923.31,-2038.86 2920.71,-2045.35"/>
</g>
<!-- Node22&#45;&gt;Node6 -->
<g id="edge58" class="edge">
<title>Node22&#45;&gt;Node6</title>
<path fill="none" stroke="midnightblue" d="M2519.08,-1317.45C2587.66,-1321.55 2686.01,-1330.89 2718,-1351.43 2903.7,-1470.63 2965.41,-1764.71 2978.91,-1843.65"/>
<polygon fill="midnightblue" stroke="midnightblue" points="2975.49,-1844.4 2980.56,-1853.69 2982.39,-1843.26 2975.49,-1844.4"/>
</g>
<!-- Node22&#45;&gt;Node8 -->
<g id="edge52" class="edge">
<title>Node22&#45;&gt;Node8</title>
<path fill="none" stroke="midnightblue" d="M2456.41,-1304.92C2472.02,-1285.54 2506.62,-1239.52 2522,-1194.43 2545.96,-1124.19 2510.55,-919.49 2558,-862.43 2605.47,-805.34 2666.87,-868.26 2718,-814.43 2764.33,-765.66 2730.48,-730.45 2754,-667.43 2767.14,-632.21 2788.43,-593.81 2801.38,-571.78"/>
<polygon fill="midnightblue" stroke="midnightblue" points="2804.41,-573.52 2806.52,-563.14 2798.4,-569.94 2804.41,-573.52"/>
</g>
<!-- Node22&#45;&gt;Node16 -->
<g id="edge59" class="edge">
<title>Node22&#45;&gt;Node16</title>
<path fill="none" stroke="midnightblue" d="M2450.14,-1323.94C2457.07,-1361.97 2487.01,-1505.48 2558,-1597.43 2571.69,-1615.16 2592.37,-1629.81 2609.13,-1639.81"/>
<polygon fill="midnightblue" stroke="midnightblue" points="2607.56,-1642.94 2617.97,-1644.88 2611.04,-1636.87 2607.56,-1642.94"/>
</g>
<!-- Node22&#45;&gt;Node19 -->
<g id="edge65" class="edge">
<title>Node22&#45;&gt;Node19</title>
<path fill="none" stroke="midnightblue" d="M2375.77,-1316.75C2272.35,-1320.14 2080.62,-1326.44 1974.19,-1329.93"/>
<polygon fill="midnightblue" stroke="midnightblue" points="1974.04,-1326.43 1964.16,-1330.26 1974.27,-1333.43 1974.04,-1326.43"/>
</g>
<!-- Node22&#45;&gt;Node22 -->
<g id="edge66" class="edge">
<title>Node22&#45;&gt;Node22</title>
<path fill="none" stroke="midnightblue" d="M2420.07,-1324.19C2406.72,-1332.99 2415.86,-1342.43 2447.5,-1342.43 2469.25,-1342.43 2480.37,-1337.97 2480.86,-1332.32"/>
<polygon fill="midnightblue" stroke="midnightblue" points="2483.65,-1330.21 2474.93,-1324.19 2477.99,-1334.33 2483.65,-1330.21"/>
</g>
<!-- Node23 -->
<g id="node23" class="node">
<title>Node23</title>
<g id="a_node23"><a xlink:href="../../d0/dfe/class_syntax_analyzer.html#a9952c4a2db0a1382b9c94f40dd535fae" target="_top" xlink:title=" ">
<polygon fill="none" stroke="black" points="2754.5,-1018.93 2754.5,-1037.93 2872.5,-1037.93 2872.5,-1018.93 2754.5,-1018.93"/>
<text text-anchor="middle" x="2813.5" y="-1025.93" font-family="Helvetica,sans-Serif" font-size="10.00">SyntaxAnalyzer::eatAdv</text>
</a>
</g>
</g>
<!-- Node22&#45;&gt;Node23 -->
<g id="edge53" class="edge">
<title>Node22&#45;&gt;Node23</title>
<path fill="none" stroke="midnightblue" d="M2453.39,-1304.63C2466.87,-1278.45 2506.97,-1205.79 2558,-1161.43 2625.16,-1103.05 2722.39,-1061.42 2775.11,-1041.57"/>
<polygon fill="midnightblue" stroke="midnightblue" points="2776.57,-1044.76 2784.73,-1038 2774.14,-1038.19 2776.57,-1044.76"/>
</g>
<!-- Node22&#45;&gt;Node24 -->
<g id="edge60" class="edge">
<title>Node22&#45;&gt;Node24</title>
<path fill="none" stroke="midnightblue" d="M2480.9,-1324.06C2512.52,-1333.45 2560.76,-1347.78 2595.24,-1358.02"/>
<polygon fill="midnightblue" stroke="midnightblue" points="2594.44,-1361.44 2605.02,-1360.93 2596.43,-1354.73 2594.44,-1361.44"/>
</g>
<!-- Node22&#45;&gt;Node25 -->
<g id="edge67" class="edge">
<title>Node22&#45;&gt;Node25</title>
<path fill="none" stroke="midnightblue" d="M2462.06,-1304.79C2494.25,-1281.9 2575.57,-1224.1 2614.95,-1196.1"/>
<polygon fill="midnightblue" stroke="midnightblue" points="2617.44,-1198.63 2623.57,-1189.98 2613.39,-1192.92 2617.44,-1198.63"/>
</g>
<!-- Node23&#45;&gt;Node2 -->
<g id="edge54" class="edge">
<title>Node23&#45;&gt;Node2</title>
<path fill="none" stroke="midnightblue" d="M2847.38,-1037.93C2856.3,-1041.53 2865.55,-1046.28 2873,-1052.43 2923.62,-1094.17 2959.22,-1165.59 2974.15,-1199.49"/>
<polygon fill="midnightblue" stroke="midnightblue" points="2970.96,-1200.93 2978.12,-1208.74 2977.39,-1198.17 2970.96,-1200.93"/>
</g>
<!-- Node23&#45;&gt;Node9 -->
<g id="edge55" class="edge">
<title>Node23&#45;&gt;Node9</title>
<path fill="none" stroke="midnightblue" d="M2821.07,-1018.75C2846.24,-981.63 2936.82,-848.05 2969.84,-799.35"/>
<polygon fill="midnightblue" stroke="midnightblue" points="2972.76,-801.29 2975.48,-791.04 2966.97,-797.36 2972.76,-801.29"/>
</g>
<!-- Node24&#45;&gt;Node2 -->
<g id="edge63" class="edge">
<title>Node24&#45;&gt;Node2</title>
<path fill="none" stroke="midnightblue" d="M2704.28,-1360.91C2752.79,-1352.02 2819.54,-1335.89 2873,-1308.43 2910.19,-1289.32 2946.16,-1255.78 2966.06,-1235.48"/>
<polygon fill="midnightblue" stroke="midnightblue" points="2968.69,-1237.8 2973.1,-1228.17 2963.64,-1232.95 2968.69,-1237.8"/>
</g>
<!-- Node24&#45;&gt;Node4 -->
<g id="edge61" class="edge">
<title>Node24&#45;&gt;Node4</title>
<path fill="none" stroke="midnightblue" d="M2644.5,-1380.11C2658.79,-1405.65 2697.38,-1477.3 2718,-1541.43 2732.9,-1587.78 2793.8,-1928.87 2809.03,-2014.81"/>
<polygon fill="midnightblue" stroke="midnightblue" points="2805.61,-2015.56 2810.8,-2024.8 2812.5,-2014.34 2805.61,-2015.56"/>
</g>
<!-- Node24&#45;&gt;Node8 -->
<g id="edge62" class="edge">
<title>Node24&#45;&gt;Node8</title>
<path fill="none" stroke="midnightblue" d="M2644.95,-1360.88C2660.33,-1335.65 2701.32,-1264.7 2718,-1199.43 2776.67,-969.82 2690.6,-895.78 2754,-667.43 2764.06,-631.21 2786.33,-593.13 2800.31,-571.43"/>
<polygon fill="midnightblue" stroke="midnightblue" points="2803.33,-573.21 2805.9,-562.93 2797.48,-569.36 2803.33,-573.21"/>
</g>
<!-- Node24&#45;&gt;Node19 -->
<g id="edge64" class="edge">
<title>Node24&#45;&gt;Node19</title>
<path fill="none" stroke="midnightblue" d="M2567.22,-1367.49C2450.01,-1362.45 2206.14,-1351.52 2000,-1339.43 1991.66,-1338.94 1982.93,-1338.39 1974.25,-1337.83"/>
<polygon fill="midnightblue" stroke="midnightblue" points="1974.31,-1334.33 1964.1,-1337.16 1973.85,-1341.31 1974.31,-1334.33"/>
</g>
<!-- Node25&#45;&gt;Node2 -->
<g id="edge70" class="edge">
<title>Node25&#45;&gt;Node2</title>
<path fill="none" stroke="midnightblue" d="M2713.09,-1187.54C2759.14,-1192.08 2819.55,-1198.26 2873,-1204.43 2883.88,-1205.69 2895.37,-1207.08 2906.64,-1208.5"/>
<polygon fill="midnightblue" stroke="midnightblue" points="2906.54,-1212.01 2916.9,-1209.79 2907.42,-1205.07 2906.54,-1212.01"/>
</g>
<!-- Node25&#45;&gt;Node4 -->
<g id="edge68" class="edge">
<title>Node25&#45;&gt;Node4</title>
<path fill="none" stroke="midnightblue" d="M2644.84,-1190.01C2659.92,-1215.31 2700.28,-1286.44 2718,-1351.43 2760.3,-1506.56 2731.65,-1552.19 2754,-1711.43 2770.24,-1827.12 2797.98,-1964.64 2808.39,-2014.85"/>
<polygon fill="midnightblue" stroke="midnightblue" points="2804.98,-2015.62 2810.44,-2024.7 2811.83,-2014.19 2804.98,-2015.62"/>
</g>
<!-- Node25&#45;&gt;Node8 -->
<g id="edge69" class="edge">
<title>Node25&#45;&gt;Node8</title>
<path fill="none" stroke="midnightblue" d="M2643.66,-1170.7C2657.5,-1141.36 2698.57,-1050.94 2718,-971.43 2750.29,-839.26 2714.31,-797.57 2754,-667.43 2764.97,-631.47 2786.95,-593.31 2800.62,-571.52"/>
<polygon fill="midnightblue" stroke="midnightblue" points="2803.64,-573.3 2806.08,-562.99 2797.75,-569.52 2803.64,-573.3"/>
</g>
<!-- Node26&#45;&gt;Node4 -->
<g id="edge75" class="edge">
<title>Node26&#45;&gt;Node4</title>
<path fill="none" stroke="midnightblue" d="M1564.65,-2157.98C1644.26,-2178.39 1831.01,-2224.43 1896,-2224.43 1896,-2224.43 1896,-2224.43 2083,-2224.43 2224.15,-2224.43 2599.06,-2314.42 2718,-2238.43 2783.38,-2196.66 2804.2,-2096.76 2810.25,-2054.19"/>
<polygon fill="midnightblue" stroke="midnightblue" points="2813.75,-2054.38 2811.56,-2044.02 2806.81,-2053.49 2813.75,-2054.38"/>
</g>
<!-- Node27&#45;&gt;Node2 -->
<g id="edge79" class="edge">
<title>Node27&#45;&gt;Node2</title>
<path fill="none" stroke="midnightblue" d="M1415.03,-1569.82C1597.44,-1574.73 2109.03,-1578.86 2522,-1490.43 2542.01,-1486.14 2856.59,-1390.67 2873,-1378.43 2924.05,-1340.35 2959.25,-1270.98 2974.09,-1237.51"/>
<polygon fill="midnightblue" stroke="midnightblue" points="2977.45,-1238.55 2978.19,-1227.98 2971.02,-1235.79 2977.45,-1238.55"/>
</g>
<!-- Node27&#45;&gt;Node4 -->
<g id="edge77" class="edge">
<title>Node27&#45;&gt;Node4</title>
<path fill="none" stroke="midnightblue" d="M1353.05,-1577.18C1368.76,-1600.29 1410.29,-1659.78 1451,-1704.43 1652.65,-1925.6 1721.28,-1985.37 2000,-2094.43 2149.8,-2153.04 2577.4,-2264.58 2718,-2186.43 2769.47,-2157.82 2796.52,-2088.29 2807.1,-2054.08"/>
<polygon fill="midnightblue" stroke="midnightblue" points="2810.51,-2054.9 2809.97,-2044.32 2803.79,-2052.93 2810.51,-2054.9"/>
</g>
<!-- Node27&#45;&gt;Node8 -->
<g id="edge78" class="edge">
<title>Node27&#45;&gt;Node8</title>
<path fill="none" stroke="midnightblue" d="M1349.49,-1557.77C1369.51,-1493.85 1487.67,-1125.84 1639,-852.43 1709.48,-725.09 1721.74,-683.7 1830,-586.43 1880.93,-540.67 1919.17,-562.18 1964,-510.43 1992.75,-477.24 1967.03,-447.43 2000,-418.43 2120.55,-312.4 2583.57,-250.67 2718,-338.43 2786.47,-383.13 2805.66,-489.73 2810.76,-533.82"/>
<polygon fill="midnightblue" stroke="midnightblue" points="2807.28,-534.25 2811.79,-543.84 2814.24,-533.53 2807.28,-534.25"/>
</g>
<!-- Node27&#45;&gt;Node15 -->
<g id="edge88" class="edge">
<title>Node27&#45;&gt;Node15</title>
<path fill="none" stroke="midnightblue" d="M1317.11,-1557.77C1303.99,-1549.5 1288.46,-1537.71 1276,-1525.43 1238.26,-1488.24 1202.67,-1436.03 1186.95,-1408.07"/>
<polygon fill="midnightblue" stroke="midnightblue" points="1189.88,-1406.12 1182.09,-1398.93 1183.7,-1409.41 1189.88,-1406.12"/>
</g>
<!-- Node28 -->
<g id="node28" class="node">
<title>Node28</title>
<g id="a_node28"><a xlink:href="../../d0/dfe/class_syntax_analyzer.html#aea3a3d1860938d64edf651bdc4016c04" target="_top" xlink:title=" ">
<polygon fill="none" stroke="black" points="1457.5,-1675.93 1457.5,-1694.93 1596.5,-1694.93 1596.5,-1675.93 1457.5,-1675.93"/>
<text text-anchor="middle" x="1527" y="-1682.93" font-family="Helvetica,sans-Serif" font-size="10.00">SyntaxAnalyzer::syntaxIterSt</text>
</a>
</g>
</g>
<!-- Node27&#45;&gt;Node28 -->
<g id="edge80" class="edge">
<title>Node27&#45;&gt;Node28</title>
<path fill="none" stroke="midnightblue" d="M1361.19,-1577.09C1392.3,-1597.53 1465.04,-1645.35 1502.61,-1670.05"/>
<polygon fill="midnightblue" stroke="midnightblue" points="1501.08,-1673.24 1511.36,-1675.8 1504.93,-1667.39 1501.08,-1673.24"/>
</g>
<!-- Node28&#45;&gt;Node2 -->
<g id="edge84" class="edge">
<title>Node28&#45;&gt;Node2</title>
<path fill="none" stroke="midnightblue" d="M1549.69,-1694.96C1613.17,-1721.68 1804.18,-1793.75 1964,-1768.43 2138.58,-1740.77 2199.3,-1741.26 2337,-1630.43 2358.61,-1613.03 2350.4,-1595.52 2373,-1579.43 2429.15,-1539.46 2458.08,-1562.21 2522,-1536.43 2538.78,-1529.66 2541.26,-1524.3 2558,-1517.43 2693.29,-1461.93 2759.9,-1515.11 2873,-1422.43 2934.17,-1372.3 2965.73,-1278.57 2977.04,-1237.99"/>
<polygon fill="midnightblue" stroke="midnightblue" points="2980.44,-1238.8 2979.65,-1228.24 2973.68,-1237 2980.44,-1238.8"/>
</g>
<!-- Node28&#45;&gt;Node4 -->
<g id="edge81" class="edge">
<title>Node28&#45;&gt;Node4</title>
<path fill="none" stroke="midnightblue" d="M1534.89,-1694.94C1551.08,-1716.79 1593.65,-1771.41 1639,-1806.43 1924.75,-2027.09 2016.84,-2095.33 2373,-2154.43 2524.27,-2179.53 2580.19,-2222.66 2718,-2155.43 2761.74,-2134.09 2791.16,-2081.64 2804.43,-2053.31"/>
<polygon fill="midnightblue" stroke="midnightblue" points="2807.68,-2054.63 2808.59,-2044.07 2801.3,-2051.75 2807.68,-2054.63"/>
</g>
<!-- Node28&#45;&gt;Node5 -->
<g id="edge83" class="edge">
<title>Node28&#45;&gt;Node5</title>
<path fill="none" stroke="midnightblue" d="M1529.84,-1695.19C1537.55,-1734.24 1570.11,-1881.93 1639,-1981.43 1847.06,-2281.96 2018.58,-2263.01 2373,-2352.43 2522.57,-2390.17 2579.31,-2457.96 2718,-2390.43 2860.46,-2321.06 2948.74,-2133.5 2974.28,-2072.72"/>
<polygon fill="midnightblue" stroke="midnightblue" points="2977.63,-2073.78 2978.19,-2063.2 2971.15,-2071.11 2977.63,-2073.78"/>
</g>
<!-- Node28&#45;&gt;Node6 -->
<g id="edge85" class="edge">
<title>Node28&#45;&gt;Node6</title>
<path fill="none" stroke="midnightblue" d="M1532.32,-1695.31C1545.53,-1724.88 1587.61,-1814.51 1639,-1877.43 1774.62,-2043.49 1808.43,-2101.15 2000,-2197.43 2151.33,-2273.48 2204.54,-2258 2373,-2275.43 2525.56,-2291.21 2582.84,-2339.93 2718,-2267.43 2821.49,-2211.91 2809.25,-2152.06 2873,-2053.43 2912.46,-1992.39 2953.76,-1916.58 2972.15,-1882.09"/>
<polygon fill="midnightblue" stroke="midnightblue" points="2975.31,-1883.61 2976.91,-1873.13 2969.13,-1880.32 2975.31,-1883.61"/>
</g>
<!-- Node28&#45;&gt;Node8 -->
<g id="edge82" class="edge">
<title>Node28&#45;&gt;Node8</title>
<path fill="none" stroke="midnightblue" d="M1528.49,-1675.77C1532.47,-1599.52 1561.58,-1094.15 1639,-966.43 1683.33,-893.3 1749.5,-925.45 1794,-852.43 1846.93,-765.58 1762.98,-702.94 1830,-626.43 1870.95,-579.68 1914.17,-623.58 1964,-586.43 1987.42,-568.97 1977.77,-550.39 2000,-531.43 2138.21,-413.57 2195.9,-404.77 2373,-364.43 2453.2,-346.16 2475.76,-360.54 2558,-359.43 2629.1,-358.47 2657.7,-321.73 2718,-359.43 2780.72,-398.64 2802.9,-492.76 2809.77,-533.77"/>
<polygon fill="midnightblue" stroke="midnightblue" points="2806.34,-534.49 2811.33,-543.84 2813.26,-533.43 2806.34,-534.49"/>
</g>
<!-- Node28&#45;&gt;Node18 -->
<g id="edge86" class="edge">
<title>Node28&#45;&gt;Node18</title>
<path fill="none" stroke="midnightblue" d="M1528.79,-1675.9C1532.68,-1634.42 1553.32,-1467.27 1639,-1370.43 1648.32,-1359.9 1661.23,-1351.95 1673.79,-1346.13"/>
<polygon fill="midnightblue" stroke="midnightblue" points="1675.45,-1349.22 1683.27,-1342.07 1672.7,-1342.79 1675.45,-1349.22"/>
</g>
<!-- Node28&#45;&gt;Node22 -->
<g id="edge87" class="edge">
<title>Node28&#45;&gt;Node22</title>
<path fill="none" stroke="midnightblue" d="M1551.63,-1675.89C1677.21,-1625.16 2266.17,-1387.27 2413.18,-1327.89"/>
<polygon fill="midnightblue" stroke="midnightblue" points="2414.65,-1331.07 2422.61,-1324.08 2412.02,-1324.58 2414.65,-1331.07"/>
</g>
<!-- Node29&#45;&gt;Node2 -->
<g id="edge92" class="edge">
<title>Node29&#45;&gt;Node2</title>
<path fill="none" stroke="midnightblue" d="M1754.48,-1502.95C1853.72,-1527.95 2134.59,-1595.08 2373,-1617.43 2438.93,-1623.61 2455.86,-1620.79 2522,-1617.43 2609.45,-1612.98 2631.33,-1609.94 2718,-1597.43 2787.37,-1587.42 2820.63,-1615.01 2873,-1568.43 2973.53,-1479.01 2982.36,-1298.59 2982.38,-1238.45"/>
<polygon fill="midnightblue" stroke="midnightblue" points="2985.88,-1238.06 2982.29,-1228.09 2978.88,-1238.12 2985.88,-1238.06"/>
</g>
<!-- Node29&#45;&gt;Node4 -->
<g id="edge90" class="edge">
<title>Node29&#45;&gt;Node4</title>
<path fill="none" stroke="midnightblue" d="M1721.17,-1503.37C1733.75,-1536.84 1777.24,-1647.93 1830,-1730.43 1893.59,-1829.86 1907.76,-1860.81 2000,-1934.43 2072.71,-1992.46 2282.55,-2102.72 2373,-2124.43 2522.1,-2160.22 2575.63,-2181.38 2718,-2124.43 2754.08,-2110 2784.23,-2074.51 2800.2,-2052.66"/>
<polygon fill="midnightblue" stroke="midnightblue" points="2803.25,-2054.41 2806.15,-2044.23 2797.53,-2050.37 2803.25,-2054.41"/>
</g>
<!-- Node29&#45;&gt;Node8 -->
<g id="edge91" class="edge">
<title>Node29&#45;&gt;Node8</title>
<path fill="none" stroke="midnightblue" d="M1728.53,-1483.72C1744.8,-1468.9 1775.29,-1439.11 1794,-1408.43 1817.5,-1369.88 1812.05,-1354.86 1830,-1313.43 1898.28,-1155.85 1898.37,-1104.86 2000,-966.43 2175.07,-727.96 2290.83,-738.02 2522,-553.43 2538.96,-539.89 2537.77,-528.3 2558,-520.43 2634.53,-490.66 2732.77,-520.86 2781.8,-540.11"/>
<polygon fill="midnightblue" stroke="midnightblue" points="2780.63,-543.41 2791.21,-543.91 2783.25,-536.92 2780.63,-543.41"/>
</g>
<!-- Node29&#45;&gt;Node15 -->
<g id="edge94" class="edge">
<title>Node29&#45;&gt;Node15</title>
<path fill="none" stroke="midnightblue" d="M1673,-1502.94C1592.63,-1513.31 1414.08,-1520.17 1276,-1469.43 1240.73,-1456.47 1207,-1426.79 1189.98,-1407.1"/>
<polygon fill="midnightblue" stroke="midnightblue" points="1192.56,-1404.72 1183.57,-1399.1 1187.09,-1409.1 1192.56,-1404.72"/>
</g>
<!-- Node29&#45;&gt;Node19 -->
<g id="edge93" class="edge">
<title>Node29&#45;&gt;Node19</title>
<path fill="none" stroke="midnightblue" d="M1728.13,-1483.84C1757.58,-1457.28 1840.46,-1382.52 1877.6,-1349.02"/>
<polygon fill="midnightblue" stroke="midnightblue" points="1880.12,-1351.47 1885.2,-1342.17 1875.43,-1346.27 1880.12,-1351.47"/>
</g>
<!-- Node30&#45;&gt;Node2 -->
<g id="edge98" class="edge">
<title>Node30&#45;&gt;Node2</title>
<path fill="none" stroke="midnightblue" d="M1742.75,-1398.93C1844.05,-1435.58 2229.56,-1560.77 2522,-1460.43 2541.17,-1453.85 2539.85,-1441.46 2558,-1432.43 2688.35,-1367.56 2750.58,-1421.25 2873,-1342.43 2916.76,-1314.25 2953.28,-1263.66 2970.82,-1236.63"/>
<polygon fill="midnightblue" stroke="midnightblue" points="2973.81,-1238.44 2976.21,-1228.12 2967.9,-1234.69 2973.81,-1238.44"/>
</g>
<!-- Node30&#45;&gt;Node4 -->
<g id="edge96" class="edge">
<title>Node30&#45;&gt;Node4</title>
<path fill="none" stroke="midnightblue" d="M1729.49,-1399.01C1746.66,-1413.44 1777.97,-1442.49 1794,-1474.43 1830.59,-1547.35 1797.86,-1579.44 1830,-1654.43 1881.78,-1775.24 1891,-1822.97 2000,-1896.43 2062.04,-1938.25 2095.24,-1904.94 2164,-1934.43 2248.63,-1970.73 2266.43,-1989.28 2337,-2048.43 2354.83,-2063.37 2351.63,-2077.24 2373,-2086.43 2513.86,-2147.02 2569.49,-2124.59 2718,-2086.43 2745.43,-2079.38 2773.44,-2062.51 2791.76,-2049.88"/>
<polygon fill="midnightblue" stroke="midnightblue" points="2793.8,-2052.73 2799.93,-2044.09 2789.75,-2047.02 2793.8,-2052.73"/>
</g>
<!-- Node30&#45;&gt;Node8 -->
<g id="edge97" class="edge">
<title>Node30&#45;&gt;Node8</title>
<path fill="none" stroke="midnightblue" d="M1753.95,-1379.87C1768.76,-1374.1 1784.58,-1365.11 1794,-1351.43 1888.92,-1213.5 1744.61,-1120.45 1830,-976.43 1879.85,-892.34 2464.56,-511.14 2558,-482.43 2625.97,-461.54 2650.55,-459.91 2718,-482.43 2749.9,-493.08 2779.69,-519.19 2796.99,-536.61"/>
<polygon fill="midnightblue" stroke="midnightblue" points="2794.57,-539.14 2804.03,-543.91 2799.61,-534.28 2794.57,-539.14"/>
</g>
<!-- Node30&#45;&gt;Node19 -->
<g id="edge99" class="edge">
<title>Node30&#45;&gt;Node19</title>
<path fill="none" stroke="midnightblue" d="M1747.38,-1379.89C1777.24,-1370.35 1823.33,-1355.64 1856.26,-1345.12"/>
<polygon fill="midnightblue" stroke="midnightblue" points="1857.56,-1348.38 1866.03,-1342 1855.43,-1341.71 1857.56,-1348.38"/>
</g>
<!-- Node31&#45;&gt;Node2 -->
<g id="edge103" class="edge">
<title>Node31&#45;&gt;Node2</title>
<path fill="none" stroke="midnightblue" d="M1748.61,-975.89C1839.02,-949.23 2109.78,-877.13 2337,-895.43 2420.03,-902.12 2450.29,-883.05 2522,-925.43 2544.35,-938.64 2535.39,-958.68 2558,-971.43 2680.84,-1040.69 2757.02,-929.22 2873,-1009.43 2940.05,-1055.8 2968.75,-1156.55 2978.19,-1198.98"/>
<polygon fill="midnightblue" stroke="midnightblue" points="2974.78,-1199.81 2980.27,-1208.87 2981.63,-1198.37 2974.78,-1199.81"/>
</g>
<!-- Node31&#45;&gt;Node4 -->
<g id="edge101" class="edge">
<title>Node31&#45;&gt;Node4</title>
<path fill="none" stroke="midnightblue" d="M1719.25,-995.21C1727.29,-1038.76 1763.2,-1218.72 1830,-1351.43 1844.33,-1379.89 1976.36,-1561.05 2000,-1582.43 2062.81,-1639.23 2104.97,-1618.71 2164,-1679.43 2187.02,-1703.11 2177.36,-1720.39 2200,-1744.43 2249.45,-1796.94 2290.14,-1776.59 2337,-1831.43 2363.12,-1862 2345.07,-1885.51 2373,-1914.43 2436.25,-1979.92 2470.61,-1976.87 2558,-2002.43 2619.31,-2020.36 2691.81,-2028.24 2743.72,-2031.71"/>
<polygon fill="midnightblue" stroke="midnightblue" points="2743.61,-2035.21 2753.81,-2032.35 2744.05,-2028.22 2743.61,-2035.21"/>
</g>
<!-- Node31&#45;&gt;Node8 -->
<g id="edge102" class="edge">
<title>Node31&#45;&gt;Node8</title>
<path fill="none" stroke="midnightblue" d="M1728.06,-975.75C1744.84,-959.72 1777.4,-925.91 1794,-890.43 1828.58,-816.53 1780.83,-775.53 1830,-710.43 1857.85,-673.55 2157.28,-538.06 2200,-520.43 2417.91,-430.51 2511.1,-293.47 2718,-406.43 2768.24,-433.86 2795.76,-500.7 2806.75,-533.97"/>
<polygon fill="midnightblue" stroke="midnightblue" points="2803.52,-535.36 2809.86,-543.85 2810.2,-533.26 2803.52,-535.36"/>
</g>
<!-- Node31&#45;&gt;Node15 -->
<g id="edge105" class="edge">
<title>Node31&#45;&gt;Node15</title>
<path fill="none" stroke="midnightblue" d="M1705.19,-995.23C1641.21,-1049.29 1298.14,-1307.72 1202.99,-1374.04"/>
<polygon fill="midnightblue" stroke="midnightblue" points="1200.82,-1371.29 1194.57,-1379.84 1204.79,-1377.05 1200.82,-1371.29"/>
</g>
<!-- Node31&#45;&gt;Node19 -->
<g id="edge104" class="edge">
<title>Node31&#45;&gt;Node19</title>
<path fill="none" stroke="midnightblue" d="M1722.46,-995.07C1746.78,-1042.35 1853.55,-1249.92 1886.37,-1313.71"/>
<polygon fill="midnightblue" stroke="midnightblue" points="1883.29,-1315.38 1890.98,-1322.67 1889.52,-1312.17 1883.29,-1315.38"/>
</g>
<!-- Node32&#45;&gt;Node2 -->
<g id="edge108" class="edge">
<title>Node32&#45;&gt;Node2</title>
<path fill="none" stroke="midnightblue" d="M2520.89,-820.49C2613.69,-825.68 2774.35,-848.08 2873,-937.43 2952.87,-1009.76 2974.77,-1147.55 2980.29,-1198.68"/>
<polygon fill="midnightblue" stroke="midnightblue" points="2976.81,-1199.12 2981.28,-1208.73 2983.78,-1198.44 2976.81,-1199.12"/>
</g>
<!-- Node32&#45;&gt;Node8 -->
<g id="edge107" class="edge">
<title>Node32&#45;&gt;Node8</title>
<path fill="none" stroke="midnightblue" d="M2475.51,-809.77C2535.79,-787.88 2679.04,-733.76 2718,-700.43 2760.69,-663.91 2791.06,-603.31 2804.6,-572.58"/>
<polygon fill="midnightblue" stroke="midnightblue" points="2807.97,-573.61 2808.68,-563.04 2801.53,-570.86 2807.97,-573.61"/>
</g>
<!-- Node33 -->
<g id="node33" class="node">
<title>Node33</title>
<g id="a_node33"><a xlink:href="../../d0/dfe/class_syntax_analyzer.html#adad79b2219ae143b49203a836713bec9" target="_top" xlink:title=" ">
<polygon fill="none" stroke="black" points="2558,-942.93 2558,-961.93 2718,-961.93 2718,-942.93 2558,-942.93"/>
<text text-anchor="middle" x="2638" y="-949.93" font-family="Helvetica,sans-Serif" font-size="10.00">SyntaxAnalyzer::syntaxConstDecl</text>
</a>
</g>
</g>
<!-- Node32&#45;&gt;Node33 -->
<g id="edge109" class="edge">
<title>Node32&#45;&gt;Node33</title>
<path fill="none" stroke="midnightblue" d="M2458.56,-829.14C2472.79,-842.9 2499.56,-868.91 2522,-891.43 2538.2,-907.68 2538.4,-916.5 2558,-928.43 2565.3,-932.88 2573.49,-936.56 2581.76,-939.58"/>
<polygon fill="midnightblue" stroke="midnightblue" points="2580.86,-942.97 2591.45,-942.84 2583.09,-936.33 2580.86,-942.97"/>
</g>
<!-- Node33&#45;&gt;Node2 -->
<g id="edge113" class="edge">
<title>Node33&#45;&gt;Node2</title>
<path fill="none" stroke="midnightblue" d="M2700.83,-942.91C2751.76,-938.52 2823.4,-940.65 2873,-976.43 2948.78,-1031.09 2972.9,-1151 2979.65,-1198.49"/>
<polygon fill="midnightblue" stroke="midnightblue" points="2976.22,-1199.22 2980.99,-1208.68 2983.16,-1198.31 2976.22,-1199.22"/>
</g>
<!-- Node33&#45;&gt;Node4 -->
<g id="edge110" class="edge">
<title>Node33&#45;&gt;Node4</title>
<path fill="none" stroke="midnightblue" d="M2643.86,-962.12C2658.24,-991.33 2700.67,-1081.44 2718,-1161.43 2769.87,-1400.84 2724.12,-1468.29 2754,-1711.43 2768.25,-1827.38 2797.19,-1964.75 2808.16,-2014.88"/>
<polygon fill="midnightblue" stroke="midnightblue" points="2804.75,-2015.7 2810.32,-2024.71 2811.59,-2014.19 2804.75,-2015.7"/>
</g>
<!-- Node33&#45;&gt;Node8 -->
<g id="edge111" class="edge">
<title>Node33&#45;&gt;Node8</title>
<path fill="none" stroke="midnightblue" d="M2658.37,-942.76C2676.86,-932.44 2703.92,-914.31 2718,-890.43 2768.99,-803.95 2722.7,-762.82 2754,-667.43 2765.72,-631.71 2787.46,-593.47 2800.88,-571.61"/>
<polygon fill="midnightblue" stroke="midnightblue" points="2803.91,-573.37 2806.24,-563.03 2797.97,-569.66 2803.91,-573.37"/>
</g>
<!-- Node33&#45;&gt;Node11 -->
<g id="edge114" class="edge">
<title>Node33&#45;&gt;Node11</title>
<path fill="none" stroke="midnightblue" d="M2655.4,-942.85C2672.82,-931.99 2700.25,-912.85 2718,-890.43 2764.97,-831.1 2794.99,-744.64 2806.8,-706.16"/>
<polygon fill="midnightblue" stroke="midnightblue" points="2810.26,-706.83 2809.76,-696.24 2803.55,-704.82 2810.26,-706.83"/>
</g>
<!-- Node33&#45;&gt;Node23 -->
<g id="edge112" class="edge">
<title>Node33&#45;&gt;Node23</title>
<path fill="none" stroke="midnightblue" d="M2660.97,-962.05C2691.48,-975.42 2746.81,-999.66 2781.5,-1014.85"/>
<polygon fill="midnightblue" stroke="midnightblue" points="2780.14,-1018.08 2790.7,-1018.88 2782.95,-1011.66 2780.14,-1018.08"/>
</g>
<!-- Node34&#45;&gt;Node2 -->
<g id="edge117" class="edge">
<title>Node34&#45;&gt;Node2</title>
<path fill="none" stroke="midnightblue" d="M2336.17,-922.98C2388.65,-931.53 2462.58,-947.66 2522,-976.43 2540.24,-985.26 2539.87,-995.36 2558,-1004.43 2622.9,-1036.89 2811.75,-1051.52 2873,-1090.43 2917.96,-1118.99 2954.21,-1171.87 2971.32,-1199.89"/>
<polygon fill="midnightblue" stroke="midnightblue" points="2968.43,-1201.88 2976.56,-1208.68 2974.45,-1198.3 2968.43,-1201.88"/>
</g>
<!-- Node34&#45;&gt;Node8 -->
<g id="edge116" class="edge">
<title>Node34&#45;&gt;Node8</title>
<path fill="none" stroke="midnightblue" d="M2313.63,-904.82C2322.16,-901.38 2330.46,-896.72 2337,-890.43 2368.05,-860.56 2342.75,-831.1 2373,-800.43 2423.37,-749.36 2462.94,-779.13 2522,-738.43 2541.16,-725.23 2539.74,-714.84 2558,-700.43 2632.35,-641.75 2732.69,-590.88 2782.23,-567.35"/>
<polygon fill="midnightblue" stroke="midnightblue" points="2783.89,-570.44 2791.44,-563.01 2780.9,-564.1 2783.89,-570.44"/>
</g>
<!-- Node35 -->
<g id="node35" class="node">
<title>Node35</title>
<g id="a_node35"><a xlink:href="../../d0/dfe/class_syntax_analyzer.html#a8f6dda26a96ec0e5e75bea5eed577856" target="_top" xlink:title=" ">
<polygon fill="none" stroke="black" points="2373,-1588.93 2373,-1607.93 2522,-1607.93 2522,-1588.93 2373,-1588.93"/>
<text text-anchor="middle" x="2447.5" y="-1595.93" font-family="Helvetica,sans-Serif" font-size="10.00">SyntaxAnalyzer::syntaxVarDecl</text>
</a>
</g>
</g>
<!-- Node34&#45;&gt;Node35 -->
<g id="edge118" class="edge">
<title>Node34&#45;&gt;Node35</title>
<path fill="none" stroke="midnightblue" d="M2271.56,-924.01C2281.68,-970.95 2327.55,-1181.19 2373,-1351.43 2395.78,-1436.74 2427.12,-1537.32 2440.28,-1578.92"/>
<polygon fill="midnightblue" stroke="midnightblue" points="2437,-1580.13 2443.36,-1588.6 2443.67,-1578.01 2437,-1580.13"/>
</g>
<!-- Node35&#45;&gt;Node2 -->
<g id="edge121" class="edge">
<title>Node35&#45;&gt;Node2</title>
<path fill="none" stroke="midnightblue" d="M2488.36,-1588.81C2499.66,-1585.19 2511.68,-1580.46 2522,-1574.43 2540.74,-1563.48 2538.35,-1550.65 2558,-1541.43 2685.91,-1481.4 2762.04,-1585.91 2873,-1498.43 2957.55,-1431.77 2976.62,-1290.6 2980.83,-1238.39"/>
<polygon fill="midnightblue" stroke="midnightblue" points="2984.34,-1238.36 2981.56,-1228.14 2977.36,-1237.87 2984.34,-1238.36"/>
</g>
<!-- Node35&#45;&gt;Node4 -->
<g id="edge119" class="edge">
<title>Node35&#45;&gt;Node4</title>
<path fill="none" stroke="midnightblue" d="M2450.39,-1608.12C2457.63,-1642.57 2486.8,-1760.21 2558,-1820.43 2614.69,-1868.37 2659.92,-1822.19 2718,-1868.43 2767.4,-1907.75 2795.59,-1980.41 2806.79,-2015.06"/>
<polygon fill="midnightblue" stroke="midnightblue" points="2803.54,-2016.37 2809.84,-2024.88 2810.22,-2014.3 2803.54,-2016.37"/>
</g>
<!-- Node35&#45;&gt;Node8 -->
<g id="edge120" class="edge">
<title>Node35&#45;&gt;Node8</title>
<path fill="none" stroke="midnightblue" d="M2452.17,-1588.72C2464.41,-1555.92 2504.06,-1445.93 2522,-1351.43 2539.39,-1259.83 2505.82,-1010.69 2558,-933.43 2602.61,-867.38 2669.94,-916.02 2718,-852.43 2768.5,-785.6 2726.61,-746.59 2754,-667.43 2766.29,-631.9 2787.85,-593.6 2801.08,-571.67"/>
<polygon fill="midnightblue" stroke="midnightblue" points="2804.11,-573.43 2806.35,-563.07 2798.14,-569.77 2804.11,-573.43"/>
</g>
<!-- Node36 -->
<g id="node36" class="node">
<title>Node36</title>
<g id="a_node36"><a xlink:href="../../d0/dfe/class_syntax_analyzer.html#a5d262eb9e2236dde3bd043eea0b0e957" target="_top" xlink:title=" ">
<polygon fill="none" stroke="black" points="2559,-1550.93 2559,-1569.93 2717,-1569.93 2717,-1550.93 2559,-1550.93"/>
<text text-anchor="middle" x="2638" y="-1557.93" font-family="Helvetica,sans-Serif" font-size="10.00">SyntaxAnalyzer::syntaxTypeSpec</text>
</a>
</g>
</g>
<!-- Node35&#45;&gt;Node36 -->
<g id="edge122" class="edge">
<title>Node35&#45;&gt;Node36</title>
<path fill="none" stroke="midnightblue" d="M2496.07,-1588.84C2521.5,-1583.71 2553,-1577.36 2579.77,-1571.97"/>
<polygon fill="midnightblue" stroke="midnightblue" points="2580.66,-1575.36 2589.78,-1569.95 2579.28,-1568.49 2580.66,-1575.36"/>
</g>
<!-- Node36&#45;&gt;Node2 -->
<g id="edge126" class="edge">
<title>Node36&#45;&gt;Node2</title>
<path fill="none" stroke="midnightblue" d="M2691.46,-1569.98C2743.22,-1576.29 2821.84,-1577.08 2873,-1536.43 2968.97,-1460.18 2980.84,-1295 2982,-1238.13"/>
<polygon fill="midnightblue" stroke="midnightblue" points="2985.5,-1238.02 2982.11,-1227.99 2978.5,-1237.95 2985.5,-1238.02"/>
</g>
<!-- Node36&#45;&gt;Node4 -->
<g id="edge123" class="edge">
<title>Node36&#45;&gt;Node4</title>
<path fill="none" stroke="midnightblue" d="M2653.38,-1570.02C2671.34,-1582.79 2701.69,-1607.07 2718,-1635.43 2793.19,-1766.16 2808.65,-1953.76 2811.75,-2014.58"/>
<polygon fill="midnightblue" stroke="midnightblue" points="2808.26,-2014.88 2812.2,-2024.71 2815.25,-2014.57 2808.26,-2014.88"/>
</g>
<!-- Node36&#45;&gt;Node6 -->
<g id="edge127" class="edge">
<title>Node36&#45;&gt;Node6</title>
<path fill="none" stroke="midnightblue" d="M2673.74,-1570.01C2723.05,-1585.07 2813.91,-1618.39 2873,-1673.43 2926.95,-1723.68 2961.7,-1806.78 2975.39,-1844.16"/>
<polygon fill="midnightblue" stroke="midnightblue" points="2972.17,-1845.57 2978.82,-1853.82 2978.77,-1843.23 2972.17,-1845.57"/>
</g>
<!-- Node36&#45;&gt;Node8 -->
<g id="edge124" class="edge">
<title>Node36&#45;&gt;Node8</title>
<path fill="none" stroke="midnightblue" d="M2645.02,-1550.89C2660.56,-1525.71 2701.9,-1454.84 2718,-1389.43 2794.78,-1077.45 2670.79,-977.75 2754,-667.43 2763.69,-631.31 2785.88,-593.46 2799.98,-571.74"/>
<polygon fill="midnightblue" stroke="midnightblue" points="2803.02,-573.48 2805.64,-563.21 2797.19,-569.61 2803.02,-573.48"/>
</g>
<!-- Node36&#45;&gt;Node23 -->
<g id="edge125" class="edge">
<title>Node36&#45;&gt;Node23</title>
<path fill="none" stroke="midnightblue" d="M2644.26,-1550.66C2657.96,-1524.93 2695.25,-1452.84 2718,-1389.43 2763.54,-1262.47 2797.51,-1103.25 2808.61,-1048.21"/>
<polygon fill="midnightblue" stroke="midnightblue" points="2812.1,-1048.59 2810.63,-1038.1 2805.24,-1047.22 2812.1,-1048.59"/>
</g>
<!-- Node36&#45;&gt;Node36 -->
<g id="edge128" class="edge">
<title>Node36&#45;&gt;Node36</title>
<path fill="none" stroke="midnightblue" d="M2611.18,-1570.19C2598.13,-1578.99 2607.07,-1588.43 2638,-1588.43 2658.78,-1588.43 2669.63,-1584.17 2670.56,-1578.7"/>
<polygon fill="midnightblue" stroke="midnightblue" points="2673.31,-1576.52 2664.82,-1570.19 2667.51,-1580.43 2673.31,-1576.52"/>
</g>
<!-- Node37&#45;&gt;Node2 -->
<g id="edge132" class="edge">
<title>Node37&#45;&gt;Node2</title>
<path fill="none" stroke="midnightblue" d="M512.66,-2120.08C514.93,-2121.65 517.06,-2123.43 519,-2125.43 586.42,-2195.01 496.16,-2263.46 555,-2340.43 631.54,-2440.55 689.47,-2452.43 815.5,-2452.43 815.5,-2452.43 815.5,-2452.43 1898,-2452.43 2142.36,-2452.43 2202.14,-2490.43 2446.5,-2490.43 2446.5,-2490.43 2446.5,-2490.43 2639,-2490.43 2840.28,-2490.43 2824.82,-2237.96 2873,-2053.43 2894.33,-1971.72 2965.95,-1357.3 2979.7,-1238.34"/>
<polygon fill="midnightblue" stroke="midnightblue" points="2983.21,-1238.48 2980.88,-1228.14 2976.26,-1237.67 2983.21,-1238.48"/>
</g>
<!-- Node37&#45;&gt;Node4 -->
<g id="edge130" class="edge">
<title>Node37&#45;&gt;Node4</title>
<path fill="none" stroke="midnightblue" d="M449.35,-2120.2C478.62,-2172.23 625.07,-2414.43 815.5,-2414.43 815.5,-2414.43 815.5,-2414.43 2448.5,-2414.43 2572.95,-2414.43 2628.84,-2425.25 2718,-2338.43 2800.26,-2258.32 2811.24,-2108.02 2812.46,-2054.21"/>
<polygon fill="midnightblue" stroke="midnightblue" points="2815.96,-2054.04 2812.6,-2043.99 2808.96,-2053.95 2815.96,-2054.04"/>
</g>
<!-- Node37&#45;&gt;Node6 -->
<g id="edge133" class="edge">
<title>Node37&#45;&gt;Node6</title>
<path fill="none" stroke="midnightblue" d="M443.53,-2120.16C441.83,-2167.41 441.25,-2374.4 555,-2466.43 645.39,-2539.56 699.23,-2490.43 815.5,-2490.43 815.5,-2490.43 815.5,-2490.43 1898,-2490.43 2146.99,-2490.43 2197.51,-2604.43 2446.5,-2604.43 2446.5,-2604.43 2446.5,-2604.43 2639,-2604.43 2683.63,-2604.43 2691.12,-2578.06 2718,-2542.43 2827.85,-2396.82 2819.02,-2336.66 2873,-2162.43 2895.34,-2090.32 2882.56,-2067.14 2909,-1996.43 2925.28,-1952.89 2953.8,-1906.18 2969.95,-1881.36"/>
<polygon fill="midnightblue" stroke="midnightblue" points="2972.9,-1883.25 2975.48,-1872.97 2967.06,-1879.39 2972.9,-1883.25"/>
</g>
<!-- Node37&#45;&gt;Node8 -->
<g id="edge131" class="edge">
<title>Node37&#45;&gt;Node8</title>
<path fill="none" stroke="midnightblue" d="M444.38,-2100.72C448.49,-1996.63 486.18,-1085.83 555,-824.43 661.6,-419.52 757.8,-116.43 1176.5,-116.43 1176.5,-116.43 1176.5,-116.43 1528,-116.43 1857.1,-116.43 1938.4,-154.43 2267.5,-154.43 2267.5,-154.43 2267.5,-154.43 2448.5,-154.43 2508.47,-154.43 2671.79,-130.21 2718,-168.43 2747.13,-192.52 2795.87,-458.87 2809.1,-533.88"/>
<polygon fill="midnightblue" stroke="midnightblue" points="2805.67,-534.61 2810.85,-543.86 2812.57,-533.4 2805.67,-534.61"/>
</g>
<!-- Node37&#45;&gt;Node11 -->
<g id="edge134" class="edge">
<title>Node37&#45;&gt;Node11</title>
<path fill="none" stroke="midnightblue" d="M444.41,-2100.63C450.09,-1978.14 523.41,-748.43 1176.5,-748.43 1176.5,-748.43 1176.5,-748.43 1346.5,-748.43 1627.16,-748.43 2510.79,-702.5 2751.45,-689.7"/>
<polygon fill="midnightblue" stroke="midnightblue" points="2751.96,-693.18 2761.76,-689.15 2751.59,-686.19 2751.96,-693.18"/>
</g>
<!-- Node37&#45;&gt;Node12 -->
<g id="edge135" class="edge">
<title>Node37&#45;&gt;Node12</title>
<path fill="none" stroke="midnightblue" d="M444.1,-2100.75C445.3,-2000.66 458.19,-1153.77 555,-924.43 565.89,-898.63 588.07,-874.99 604.36,-859.99"/>
<polygon fill="midnightblue" stroke="midnightblue" points="607.11,-862.23 612.25,-852.97 602.45,-857 607.11,-862.23"/>
</g>
<!-- Node37&#45;&gt;Node35 -->
<g id="edge137" class="edge">
<title>Node37&#45;&gt;Node35</title>
<path fill="none" stroke="midnightblue" d="M519.07,-2110.43C594.11,-2110.43 712.79,-2110.43 815.5,-2110.43 815.5,-2110.43 815.5,-2110.43 1528,-2110.43 1933.74,-2110.43 2026.53,-1948.65 2337,-1687.43 2357.13,-1670.49 2353.19,-1657.74 2373,-1640.43 2385.68,-1629.35 2401.73,-1619.78 2415.59,-1612.58"/>
<polygon fill="midnightblue" stroke="midnightblue" points="2417.4,-1615.59 2424.78,-1607.99 2414.27,-1609.33 2417.4,-1615.59"/>
</g>
<!-- Node37&#45;&gt;Node36 -->
<g id="edge136" class="edge">
<title>Node37&#45;&gt;Node36</title>
<path fill="none" stroke="midnightblue" d="M461.58,-2119.95C513.84,-2147.35 673.49,-2224.43 815.5,-2224.43 815.5,-2224.43 815.5,-2224.43 1346.5,-2224.43 1733.99,-2224.43 1845.35,-2141.9 2164,-1921.43 2345.34,-1795.97 2553.13,-1628.74 2617.18,-1576.63"/>
<polygon fill="midnightblue" stroke="midnightblue" points="2619.7,-1579.09 2625.25,-1570.06 2615.28,-1573.66 2619.7,-1579.09"/>
</g>
</g>
</svg>
