<?xml version="1.0" encoding="UTF-8" standalone="no"?>
<!DOCTYPE svg PUBLIC "-//W3C//DTD SVG 1.1//EN"
 "http://www.w3.org/Graphics/SVG/1.1/DTD/svg11.dtd">
<!-- Generated by graphviz version 3.0.0 (20220413.0106)
 -->
<!-- Title: SyntaxAnalyzer::syntaxBlock Pages: 1 -->
<svg width="2165pt" height="1882pt"
 viewBox="0.00 0.00 2165.00 1882.07" xmlns="http://www.w3.org/2000/svg" xmlns:xlink="http://www.w3.org/1999/xlink">
<g id="graph0" class="graph" transform="scale(1 1) rotate(0) translate(4 1878.07)">
<title>SyntaxAnalyzer::syntaxBlock</title>
<!-- Node1 -->
<g id="node1" class="node">
<title>Node1</title>
<g id="a_node1"><a xlink:title=" ">
<polygon fill="#bfbfbf" stroke="black" points="0,-526.11 0,-545.11 140,-545.11 140,-526.11 0,-526.11"/>
<text text-anchor="middle" x="70" y="-533.11" font-family="Helvetica,sans-Serif" font-size="10.00">SyntaxAnalyzer::syntaxBlock</text>
</a>
</g>
</g>
<!-- Node2 -->
<g id="node2" class="node">
<title>Node2</title>
<g id="a_node2"><a xlink:href="../../d7/d7c/class_a_s_t_factory.html#a8d1d4c9d01ab2e366d1af6bbaeaf7bef" target="_top" xlink:title=" ">
<polygon fill="none" stroke="black" points="1854,-1445.11 1854,-1464.11 1973,-1464.11 1973,-1445.11 1854,-1445.11"/>
<text text-anchor="middle" x="1913.5" y="-1452.11" font-family="Helvetica,sans-Serif" font-size="10.00">ASTFactory::createAST</text>
</a>
</g>
</g>
<!-- Node1&#45;&gt;Node2 -->
<g id="edge1" class="edge">
<title>Node1&#45;&gt;Node2</title>
<path fill="none" stroke="midnightblue" d="M71.64,-545.31C79.76,-664.19 166.92,-1834.61 452.5,-1834.61 452.5,-1834.61 452.5,-1834.61 1369.5,-1834.61 1419.99,-1834.61 1783,-1797.99 1818,-1761.61 1906.35,-1669.77 1774.67,-1572.86 1853.45,-1472.1"/>
<polygon fill="midnightblue" stroke="midnightblue" points="1856.32,-1474.13 1860.05,-1464.21 1850.95,-1469.64 1856.32,-1474.13"/>
</g>
<!-- Node6 -->
<g id="node6" class="node">
<title>Node6</title>
<g id="a_node6"><a xlink:href="../../d0/dfe/class_syntax_analyzer.html#a5770afdc4d32d2c38550f27f9ffd949a" target="_top" xlink:title=" ">
<polygon fill="none" stroke="black" points="176,-602.11 176,-621.11 347,-621.11 347,-602.11 176,-602.11"/>
<text text-anchor="middle" x="261.5" y="-609.11" font-family="Helvetica,sans-Serif" font-size="10.00">SyntaxAnalyzer::syntaxCompoundSt</text>
</a>
</g>
</g>
<!-- Node1&#45;&gt;Node6 -->
<g id="edge5" class="edge">
<title>Node1&#45;&gt;Node6</title>
<path fill="none" stroke="midnightblue" d="M95,-545.23C128.46,-558.65 189.27,-583.04 227.13,-598.22"/>
<polygon fill="midnightblue" stroke="midnightblue" points="226.11,-601.58 236.69,-602.06 228.72,-595.09 226.11,-601.58"/>
</g>
<!-- Node30 -->
<g id="node30" class="node">
<title>Node30</title>
<g id="a_node30"><a xlink:href="../../d0/dfe/class_syntax_analyzer.html#a58a0f927ad0a45e4ce837a98e98330aa" target="_top" xlink:title=" ">
<polygon fill="none" stroke="black" points="1474.5,-471.11 1474.5,-490.11 1620.5,-490.11 1620.5,-471.11 1474.5,-471.11"/>
<text text-anchor="middle" x="1547.5" y="-478.11" font-family="Helvetica,sans-Serif" font-size="10.00">SyntaxAnalyzer::syntaxConsts</text>
</a>
</g>
</g>
<!-- Node1&#45;&gt;Node30 -->
<g id="edge84" class="edge">
<title>Node1&#45;&gt;Node30</title>
<path fill="none" stroke="midnightblue" d="M99.33,-525.98C162.13,-505.53 318.11,-459.61 452.5,-459.61 452.5,-459.61 452.5,-459.61 1183,-459.61 1279.75,-459.61 1390.74,-467.11 1464.36,-473.15"/>
<polygon fill="midnightblue" stroke="midnightblue" points="1464.24,-476.65 1474.5,-473.99 1464.82,-469.67 1464.24,-476.65"/>
</g>
<!-- Node32 -->
<g id="node32" class="node">
<title>Node32</title>
<g id="a_node32"><a xlink:href="../../d0/dfe/class_syntax_analyzer.html#a738f9b4cb7edf93c56af1b6974caad1a" target="_top" xlink:title=" ">
<polygon fill="none" stroke="black" points="1301,-347.11 1301,-366.11 1436,-366.11 1436,-347.11 1301,-347.11"/>
<text text-anchor="middle" x="1368.5" y="-354.11" font-family="Helvetica,sans-Serif" font-size="10.00">SyntaxAnalyzer::syntaxVars</text>
</a>
</g>
</g>
<!-- Node1&#45;&gt;Node32 -->
<g id="edge93" class="edge">
<title>Node1&#45;&gt;Node32</title>
<path fill="none" stroke="midnightblue" d="M79.55,-525.95C96.27,-507.63 135.26,-467.69 176,-445.61 288.57,-384.57 324.45,-364.61 452.5,-364.61 452.5,-364.61 452.5,-364.61 989,-364.61 1093.58,-364.61 1214.37,-361.51 1290.82,-359.18"/>
<polygon fill="midnightblue" stroke="midnightblue" points="1290.96,-362.67 1300.85,-358.87 1290.74,-355.68 1290.96,-362.67"/>
</g>
<!-- Node3 -->
<g id="node3" class="node">
<title>Node3</title>
<g id="a_node3"><a xlink:href="../../d0/d11/class_i_token.html#ac8ca7f7e601ae49ad573167a4e9429cb" target="_top" xlink:title=" ">
<polygon fill="none" stroke="black" points="2031.5,-1312.11 2031.5,-1331.11 2134.5,-1331.11 2134.5,-1312.11 2031.5,-1312.11"/>
<text text-anchor="middle" x="2083" y="-1319.11" font-family="Helvetica,sans-Serif" font-size="10.00">IToken::getAdvType</text>
</a>
</g>
</g>
<!-- Node2&#45;&gt;Node3 -->
<g id="edge2" class="edge">
<title>Node2&#45;&gt;Node3</title>
<path fill="none" stroke="midnightblue" d="M1926.55,-1445.04C1954.9,-1422.53 2026.11,-1365.99 2061.45,-1337.92"/>
<polygon fill="midnightblue" stroke="midnightblue" points="2063.96,-1340.4 2069.61,-1331.44 2059.6,-1334.92 2063.96,-1340.4"/>
</g>
<!-- Node4 -->
<g id="node4" class="node">
<title>Node4</title>
<g id="a_node4"><a xlink:href="../../d0/d11/class_i_token.html#a568cb9d98839eff3fd758f419a76b092" target="_top" xlink:title="Получение типа токена">
<polygon fill="none" stroke="black" points="2040,-1407.11 2040,-1426.11 2126,-1426.11 2126,-1407.11 2040,-1407.11"/>
<text text-anchor="middle" x="2083" y="-1414.11" font-family="Helvetica,sans-Serif" font-size="10.00">IToken::getType</text>
</a>
</g>
</g>
<!-- Node2&#45;&gt;Node4 -->
<g id="edge3" class="edge">
<title>Node2&#45;&gt;Node4</title>
<path fill="none" stroke="midnightblue" d="M1956.77,-1445.02C1979.07,-1439.96 2006.62,-1433.71 2030.2,-1428.36"/>
<polygon fill="midnightblue" stroke="midnightblue" points="2031.06,-1431.75 2040.04,-1426.13 2029.51,-1424.92 2031.06,-1431.75"/>
</g>
<!-- Node5 -->
<g id="node5" class="node">
<title>Node5</title>
<g id="a_node5"><a xlink:href="../../db/dc1/class_token.html#a1f07fa2fffeb2f7ab803ef8b424eae8a" target="_top" xlink:title=" ">
<polygon fill="none" stroke="black" points="2046,-1445.11 2046,-1464.11 2120,-1464.11 2120,-1445.11 2046,-1445.11"/>
<text text-anchor="middle" x="2083" y="-1452.11" font-family="Helvetica,sans-Serif" font-size="10.00">Token::setStr</text>
</a>
</g>
</g>
<!-- Node2&#45;&gt;Node5 -->
<g id="edge4" class="edge">
<title>Node2&#45;&gt;Node5</title>
<path fill="none" stroke="midnightblue" d="M1973.08,-1454.61C1993.56,-1454.61 2016.24,-1454.61 2035.58,-1454.61"/>
<polygon fill="midnightblue" stroke="midnightblue" points="2035.66,-1458.11 2045.65,-1454.61 2035.65,-1451.11 2035.66,-1458.11"/>
</g>
<!-- Node6&#45;&gt;Node2 -->
<g id="edge6" class="edge">
<title>Node6&#45;&gt;Node2</title>
<path fill="none" stroke="midnightblue" d="M263.22,-621.14C271.88,-733.29 360.86,-1796.61 621.5,-1796.61 621.5,-1796.61 621.5,-1796.61 1183,-1796.61 1253.95,-1796.61 1767.03,-1778.95 1818,-1729.61 1899.44,-1650.76 1783.26,-1561.83 1853.46,-1472.1"/>
<polygon fill="midnightblue" stroke="midnightblue" points="1856.31,-1474.15 1860.08,-1464.25 1850.96,-1469.63 1856.31,-1474.15"/>
</g>
<!-- Node7 -->
<g id="node7" class="node">
<title>Node7</title>
<g id="a_node7"><a xlink:href="../../d0/dfe/class_syntax_analyzer.html#ae1d3434e5cc4b4bcd5a3a245814a44f0" target="_top" xlink:title=" ">
<polygon fill="none" stroke="black" points="1863,-324.11 1863,-343.11 1964,-343.11 1964,-324.11 1863,-324.11"/>
<text text-anchor="middle" x="1913.5" y="-331.11" font-family="Helvetica,sans-Serif" font-size="10.00">SyntaxAnalyzer::eat</text>
</a>
</g>
</g>
<!-- Node6&#45;&gt;Node7 -->
<g id="edge7" class="edge">
<title>Node6&#45;&gt;Node7</title>
<path fill="none" stroke="midnightblue" d="M263.43,-601.68C271.32,-523.53 334.06,-10.61 621.5,-10.61 621.5,-10.61 621.5,-10.61 1548.5,-10.61 1669.4,-10.61 1725.07,29.73 1818,-47.61 1901.32,-116.94 1911.67,-261.51 1912.59,-314.01"/>
<polygon fill="midnightblue" stroke="midnightblue" points="1909.09,-314.04 1912.66,-324.02 1916.09,-313.99 1909.09,-314.04"/>
</g>
<!-- Node8 -->
<g id="node8" class="node">
<title>Node8</title>
<g id="a_node8"><a xlink:href="../../d0/dfe/class_syntax_analyzer.html#a3ae6c7319e61cd669c417f189b098374" target="_top" xlink:title=" ">
<polygon fill="none" stroke="black" points="2017,-837.11 2017,-856.11 2149,-856.11 2149,-837.11 2017,-837.11"/>
<text text-anchor="middle" x="2083" y="-844.11" font-family="Helvetica,sans-Serif" font-size="10.00">SyntaxAnalyzer::getCurTok</text>
</a>
</g>
</g>
<!-- Node6&#45;&gt;Node8 -->
<g id="edge10" class="edge">
<title>Node6&#45;&gt;Node8</title>
<path fill="none" stroke="midnightblue" d="M347,-611.61C419.75,-611.61 527.54,-611.61 621.5,-611.61 621.5,-611.61 621.5,-611.61 1183,-611.61 1400.74,-611.61 1446.76,-678.77 1658,-731.61 1797.92,-766.6 1834.59,-769.06 1973,-809.61 1997.67,-816.83 2025.07,-826.14 2046.22,-833.61"/>
<polygon fill="midnightblue" stroke="midnightblue" points="2045.17,-836.95 2055.77,-837 2047.52,-830.36 2045.17,-836.95"/>
</g>
<!-- Node10 -->
<g id="node10" class="node">
<title>Node10</title>
<g id="a_node10"><a xlink:href="../../d0/d11/class_i_token.html#a4fa3435db7157ca7316d4e4aee1df4c0" target="_top" xlink:title="Устанавливает дополнительный тип токена">
<polygon fill="none" stroke="black" points="1862,-685.11 1862,-704.11 1965,-704.11 1965,-685.11 1862,-685.11"/>
<text text-anchor="middle" x="1913.5" y="-692.11" font-family="Helvetica,sans-Serif" font-size="10.00">IToken::setAdvType</text>
</a>
</g>
</g>
<!-- Node6&#45;&gt;Node10 -->
<g id="edge11" class="edge">
<title>Node6&#45;&gt;Node10</title>
<path fill="none" stroke="midnightblue" d="M289.11,-601.98C348.11,-581.53 494.72,-535.61 621.5,-535.61 621.5,-535.61 621.5,-535.61 1183,-535.61 1299.2,-535.61 1328.12,-557.01 1437,-597.61 1523.6,-629.9 1540.94,-648.19 1622,-692.61 1638.24,-701.51 1640.12,-708.77 1658,-713.61 1730.18,-733.12 1817.78,-718.65 1869.12,-706.52"/>
<polygon fill="midnightblue" stroke="midnightblue" points="1870,-709.91 1878.88,-704.14 1868.34,-703.11 1870,-709.91"/>
</g>
<!-- Node11 -->
<g id="node11" class="node">
<title>Node11</title>
<g id="a_node11"><a xlink:href="../../d0/dfe/class_syntax_analyzer.html#a6df61a82ef9de3c17b78be89a321a087" target="_top" xlink:title=" ">
<polygon fill="none" stroke="black" points="383,-659.11 383,-678.11 524,-678.11 524,-659.11 383,-659.11"/>
<text text-anchor="middle" x="453.5" y="-666.11" font-family="Helvetica,sans-Serif" font-size="10.00">SyntaxAnalyzer::syntaxStList</text>
</a>
</g>
</g>
<!-- Node6&#45;&gt;Node11 -->
<g id="edge12" class="edge">
<title>Node6&#45;&gt;Node11</title>
<path fill="none" stroke="midnightblue" d="M294.3,-621.15C326.22,-630.72 375.57,-645.53 410.65,-656.05"/>
<polygon fill="midnightblue" stroke="midnightblue" points="410.01,-659.51 420.59,-659.03 412.02,-652.81 410.01,-659.51"/>
</g>
<!-- Node7&#45;&gt;Node8 -->
<g id="edge8" class="edge">
<title>Node7&#45;&gt;Node8</title>
<path fill="none" stroke="midnightblue" d="M1923.42,-343.3C1936.24,-357.76 1959.8,-386.31 1973,-414.61 2042.7,-564.09 2071.91,-764.26 2079.73,-826.98"/>
<polygon fill="midnightblue" stroke="midnightblue" points="2076.27,-827.53 2080.94,-837.04 2083.22,-826.7 2076.27,-827.53"/>
</g>
<!-- Node9 -->
<g id="node9" class="node">
<title>Node9</title>
<g id="a_node9"><a xlink:href="../../d0/dfe/class_syntax_analyzer.html#a9e41370d8d74fbd2e77648d2071e7dfe" target="_top" xlink:title=" ">
<polygon fill="none" stroke="black" points="2009,-457.11 2009,-476.11 2157,-476.11 2157,-457.11 2009,-457.11"/>
<text text-anchor="middle" x="2083" y="-464.11" font-family="Helvetica,sans-Serif" font-size="10.00">SyntaxAnalyzer::getNextToken</text>
</a>
</g>
</g>
<!-- Node7&#45;&gt;Node9 -->
<g id="edge9" class="edge">
<title>Node7&#45;&gt;Node9</title>
<path fill="none" stroke="midnightblue" d="M1926.55,-343.17C1954.9,-365.68 2026.11,-422.23 2061.45,-450.29"/>
<polygon fill="midnightblue" stroke="midnightblue" points="2059.6,-453.29 2069.61,-456.77 2063.96,-447.81 2059.6,-453.29"/>
</g>
<!-- Node11&#45;&gt;Node7 -->
<g id="edge13" class="edge">
<title>Node11&#45;&gt;Node7</title>
<path fill="none" stroke="midnightblue" d="M524.16,-660.21C611.5,-647.25 763.4,-616.51 876,-549.61 1107.83,-411.86 1061.36,-241.18 1300,-115.61 1402.05,-61.91 1723.09,-19.11 1818,-84.61 1895.69,-138.21 1909.57,-264.65 1912,-313.69"/>
<polygon fill="midnightblue" stroke="midnightblue" points="1908.51,-314.05 1912.39,-323.91 1915.51,-313.78 1908.51,-314.05"/>
</g>
<!-- Node11&#45;&gt;Node8 -->
<g id="edge14" class="edge">
<title>Node11&#45;&gt;Node8</title>
<path fill="none" stroke="midnightblue" d="M524.07,-674.72C593.32,-680.28 702.67,-687.61 797.5,-687.61 797.5,-687.61 797.5,-687.61 989,-687.61 992.22,-687.61 1760.22,-799.65 2006.76,-835.62"/>
<polygon fill="midnightblue" stroke="midnightblue" points="2006.31,-839.1 2016.71,-837.08 2007.32,-832.17 2006.31,-839.1"/>
</g>
<!-- Node12 -->
<g id="node12" class="node">
<title>Node12</title>
<g id="a_node12"><a xlink:href="../../d0/dfe/class_syntax_analyzer.html#a7f54bde730006b1b863290415809ab4e" target="_top" xlink:title=" ">
<polygon fill="none" stroke="black" points="560,-906.11 560,-925.11 685,-925.11 685,-906.11 560,-906.11"/>
<text text-anchor="middle" x="622.5" y="-913.11" font-family="Helvetica,sans-Serif" font-size="10.00">SyntaxAnalyzer::syntaxSt</text>
</a>
</g>
</g>
<!-- Node11&#45;&gt;Node12 -->
<g id="edge15" class="edge">
<title>Node11&#45;&gt;Node12</title>
<path fill="none" stroke="midnightblue" d="M461.05,-678.29C486.14,-715.41 576.46,-848.98 609.38,-897.68"/>
<polygon fill="midnightblue" stroke="midnightblue" points="606.5,-899.67 615,-905.99 612.3,-895.74 606.5,-899.67"/>
</g>
<!-- Node12&#45;&gt;Node6 -->
<g id="edge69" class="edge">
<title>Node12&#45;&gt;Node6</title>
<path fill="none" stroke="midnightblue" d="M610.18,-906.02C558.84,-862.55 347.47,-683.56 281.95,-628.08"/>
<polygon fill="midnightblue" stroke="midnightblue" points="283.93,-625.17 274.04,-621.38 279.41,-630.51 283.93,-625.17"/>
</g>
<!-- Node12&#45;&gt;Node7 -->
<g id="edge16" class="edge">
<title>Node12&#45;&gt;Node7</title>
<path fill="none" stroke="midnightblue" d="M626.33,-906.05C635.25,-877.67 665.5,-793.11 721,-749.61 820.1,-671.92 1184.26,-685.06 1264,-587.61 1319.96,-519.22 1247.16,-262.43 1300,-191.61 1369.53,-98.41 1720.68,-53.96 1818,-117.61 1886.7,-162.53 1905.76,-269.62 1910.79,-313.91"/>
<polygon fill="midnightblue" stroke="midnightblue" points="1907.32,-314.37 1911.81,-323.97 1914.28,-313.67 1907.32,-314.37"/>
</g>
<!-- Node12&#45;&gt;Node8 -->
<g id="edge17" class="edge">
<title>Node12&#45;&gt;Node8</title>
<path fill="none" stroke="midnightblue" d="M651.29,-906.09C670.6,-899.94 697.06,-892.39 721,-888.61 1206.09,-811.99 1800.13,-832.06 2006.86,-842.35"/>
<polygon fill="midnightblue" stroke="midnightblue" points="2006.83,-845.86 2016.99,-842.86 2007.18,-838.86 2006.83,-845.86"/>
</g>
<!-- Node13 -->
<g id="node13" class="node">
<title>Node13</title>
<g id="a_node13"><a xlink:href="../../d0/dfe/class_syntax_analyzer.html#af0905389742c4f842207bb2c073afbfa" target="_top" xlink:title=" ">
<polygon fill="none" stroke="black" points="1669.5,-913.11 1669.5,-932.11 1806.5,-932.11 1806.5,-913.11 1669.5,-913.11"/>
<text text-anchor="middle" x="1738" y="-920.11" font-family="Helvetica,sans-Serif" font-size="10.00">SyntaxAnalyzer::lookFoward</text>
</a>
</g>
</g>
<!-- Node12&#45;&gt;Node13 -->
<g id="edge18" class="edge">
<title>Node12&#45;&gt;Node13</title>
<path fill="none" stroke="midnightblue" d="M663.09,-906.09C680.71,-902.33 701.77,-898.46 721,-896.61 789.57,-889.99 807.12,-895.57 876,-896.61 1165.05,-900.97 1508.51,-913.57 1659.39,-919.48"/>
<polygon fill="midnightblue" stroke="midnightblue" points="1659.35,-922.98 1669.48,-919.87 1659.63,-915.98 1659.35,-922.98"/>
</g>
<!-- Node15 -->
<g id="node15" class="node">
<title>Node15</title>
<g id="a_node15"><a xlink:href="../../d0/dfe/class_syntax_analyzer.html#a31fc5887c158652feb946f89270b4b36" target="_top" xlink:title=" ">
<polygon fill="none" stroke="black" points="721,-1093.11 721,-1112.11 876,-1112.11 876,-1093.11 721,-1093.11"/>
<text text-anchor="middle" x="798.5" y="-1100.11" font-family="Helvetica,sans-Serif" font-size="10.00">SyntaxAnalyzer::syntaxAssignSt</text>
</a>
</g>
</g>
<!-- Node12&#45;&gt;Node15 -->
<g id="edge20" class="edge">
<title>Node12&#45;&gt;Node15</title>
<path fill="none" stroke="midnightblue" d="M632.37,-925.14C660.17,-955.01 745.89,-1047.14 781.62,-1085.53"/>
<polygon fill="midnightblue" stroke="midnightblue" points="779.07,-1087.93 788.44,-1092.87 784.19,-1083.16 779.07,-1087.93"/>
</g>
<!-- Node25 -->
<g id="node25" class="node">
<title>Node25</title>
<g id="a_node25"><a xlink:href="../../d0/dfe/class_syntax_analyzer.html#a2db43946bee3e973ce1cf293b262e271" target="_top" xlink:title=" ">
<polygon fill="none" stroke="black" points="1667.5,-1293.11 1667.5,-1312.11 1808.5,-1312.11 1808.5,-1293.11 1667.5,-1293.11"/>
<text text-anchor="middle" x="1738" y="-1300.11" font-family="Helvetica,sans-Serif" font-size="10.00">SyntaxAnalyzer::syntaxCallSt</text>
</a>
</g>
</g>
<!-- Node12&#45;&gt;Node25 -->
<g id="edge68" class="edge">
<title>Node12&#45;&gt;Node25</title>
<path fill="none" stroke="midnightblue" d="M625.01,-925.42C636.82,-998.47 721.2,-1454.61 987,-1454.61 987,-1454.61 987,-1454.61 1183,-1454.61 1378.29,-1454.61 1446.2,-1520.65 1622,-1435.61 1673.1,-1410.88 1710.65,-1351.89 1727.37,-1321.47"/>
<polygon fill="midnightblue" stroke="midnightblue" points="1730.62,-1322.81 1732.23,-1312.33 1724.44,-1319.52 1730.62,-1322.81"/>
</g>
<!-- Node27 -->
<g id="node27" class="node">
<title>Node27</title>
<g id="a_node27"><a xlink:href="../../d0/dfe/class_syntax_analyzer.html#a67bc7e3cfb57c9d4d25d60913aef3a87" target="_top" xlink:title=" ">
<polygon fill="none" stroke="black" points="912,-1749.11 912,-1768.11 1064,-1768.11 1064,-1749.11 912,-1749.11"/>
<text text-anchor="middle" x="988" y="-1756.11" font-family="Helvetica,sans-Serif" font-size="10.00">SyntaxAnalyzer::syntaxEmptySt</text>
</a>
</g>
</g>
<!-- Node12&#45;&gt;Node27 -->
<g id="edge70" class="edge">
<title>Node12&#45;&gt;Node27</title>
<path fill="none" stroke="midnightblue" d="M623.62,-925.16C624.62,-980.25 633.97,-1261.96 721,-1468.61 777.49,-1602.74 794.3,-1648.99 912,-1734.61 917.93,-1738.92 924.66,-1742.48 931.61,-1745.41"/>
<polygon fill="midnightblue" stroke="midnightblue" points="930.56,-1748.75 941.15,-1749.03 933.04,-1742.21 930.56,-1748.75"/>
</g>
<!-- Node28 -->
<g id="node28" class="node">
<title>Node28</title>
<g id="a_node28"><a xlink:href="../../d0/dfe/class_syntax_analyzer.html#a779e006875d35926152773989f4b1e5a" target="_top" xlink:title=" ">
<polygon fill="none" stroke="black" points="733,-963.11 733,-982.11 864,-982.11 864,-963.11 733,-963.11"/>
<text text-anchor="middle" x="798.5" y="-970.11" font-family="Helvetica,sans-Serif" font-size="10.00">SyntaxAnalyzer::syntaxIfSt</text>
</a>
</g>
</g>
<!-- Node12&#45;&gt;Node28 -->
<g id="edge72" class="edge">
<title>Node12&#45;&gt;Node28</title>
<path fill="none" stroke="midnightblue" d="M671.51,-925.22C703.8,-934.66 745.12,-948.57 771.46,-959.09"/>
<polygon fill="midnightblue" stroke="midnightblue" points="770.19,-962.36 780.77,-962.94 772.87,-955.89 770.19,-962.36"/>
</g>
<!-- Node29 -->
<g id="node29" class="node">
<title>Node29</title>
<g id="a_node29"><a xlink:href="../../d0/dfe/class_syntax_analyzer.html#a64dad7f0b22b08d182483469d3a1aa79" target="_top" xlink:title=" ">
<polygon fill="none" stroke="black" points="724,-906.11 724,-925.11 873,-925.11 873,-906.11 724,-906.11"/>
<text text-anchor="middle" x="798.5" y="-913.11" font-family="Helvetica,sans-Serif" font-size="10.00">SyntaxAnalyzer::syntaxWhileSt</text>
</a>
</g>
</g>
<!-- Node12&#45;&gt;Node29 -->
<g id="edge78" class="edge">
<title>Node12&#45;&gt;Node29</title>
<path fill="none" stroke="midnightblue" d="M685.34,-909.11C694.62,-908.92 704.31,-908.83 713.95,-908.86"/>
<polygon fill="midnightblue" stroke="midnightblue" points="713.94,-912.36 723.96,-908.93 713.98,-905.36 713.94,-912.36"/>
</g>
<!-- Node14 -->
<g id="node14" class="node">
<title>Node14</title>
<g id="a_node14"><a xlink:href="../../d1/d34/class_list.html#a49c179636e084dfbf7a52acd46acaf01" target="_top" xlink:title=" ">
<polygon fill="none" stroke="black" points="1886,-913.11 1886,-932.11 1941,-932.11 1941,-913.11 1886,-913.11"/>
<text text-anchor="middle" x="1913.5" y="-920.11" font-family="Helvetica,sans-Serif" font-size="10.00">List::size</text>
</a>
</g>
</g>
<!-- Node13&#45;&gt;Node14 -->
<g id="edge19" class="edge">
<title>Node13&#45;&gt;Node14</title>
<path fill="none" stroke="midnightblue" d="M1806.58,-922.61C1829.97,-922.61 1855.31,-922.61 1875.35,-922.61"/>
<polygon fill="midnightblue" stroke="midnightblue" points="1875.59,-926.11 1885.59,-922.61 1875.59,-919.11 1875.59,-926.11"/>
</g>
<!-- Node15&#45;&gt;Node2 -->
<g id="edge21" class="edge">
<title>Node15&#45;&gt;Node2</title>
<path fill="none" stroke="midnightblue" d="M801.66,-1112.38C810.93,-1154.46 848.18,-1324.41 876,-1464.61 884.53,-1507.61 879.57,-1629.1 912,-1658.61 1000.79,-1739.38 1060.97,-1682.61 1181,-1682.61 1181,-1682.61 1181,-1682.61 1548.5,-1682.61 1608.63,-1682.61 1768.82,-1693.19 1818,-1658.61 1881.17,-1614.18 1903.14,-1516.57 1909.87,-1474.52"/>
<polygon fill="midnightblue" stroke="midnightblue" points="1913.36,-1474.84 1911.35,-1464.44 1906.43,-1473.82 1913.36,-1474.84"/>
</g>
<!-- Node15&#45;&gt;Node7 -->
<g id="edge22" class="edge">
<title>Node15&#45;&gt;Node7</title>
<path fill="none" stroke="midnightblue" d="M821.07,-1093.07C892.28,-1060.73 1123.31,-948.63 1264,-796.61 1329.19,-726.16 1403.38,-484.68 1473,-418.61 1587.94,-309.52 1659.59,-324.42 1818,-328.61 1829.31,-328.9 1841.36,-329.4 1852.95,-329.97"/>
<polygon fill="midnightblue" stroke="midnightblue" points="1852.82,-333.47 1862.98,-330.49 1853.18,-326.48 1852.82,-333.47"/>
</g>
<!-- Node15&#45;&gt;Node8 -->
<g id="edge23" class="edge">
<title>Node15&#45;&gt;Node8</title>
<path fill="none" stroke="midnightblue" d="M801.76,-1112.36C811.44,-1154.36 850.12,-1324.04 876,-1464.61 885.33,-1515.27 878.17,-1654.76 912,-1693.61 958.35,-1746.83 997.78,-1715.17 1064,-1739.61 1202.17,-1790.58 1220.23,-1872.61 1367.5,-1872.61 1367.5,-1872.61 1367.5,-1872.61 1548.5,-1872.61 1671.41,-1872.61 1722.66,-1888.17 1818,-1810.61 1945.89,-1706.57 1924.03,-1631.02 1973,-1473.61 1991.65,-1413.67 2063.08,-966.1 2078.89,-866.3"/>
<polygon fill="midnightblue" stroke="midnightblue" points="2082.36,-866.77 2080.46,-856.35 2075.44,-865.68 2082.36,-866.77"/>
</g>
<!-- Node16 -->
<g id="node16" class="node">
<title>Node16</title>
<g id="a_node16"><a xlink:href="../../d0/dfe/class_syntax_analyzer.html#ae8d09db1b25ec882248aeed978c13a4d" target="_top" xlink:title=" ">
<polygon fill="none" stroke="black" points="921,-1131.11 921,-1150.11 1055,-1150.11 1055,-1131.11 921,-1131.11"/>
<text text-anchor="middle" x="988" y="-1138.11" font-family="Helvetica,sans-Serif" font-size="10.00">SyntaxAnalyzer::syntaxExpr</text>
</a>
</g>
</g>
<!-- Node15&#45;&gt;Node16 -->
<g id="edge24" class="edge">
<title>Node15&#45;&gt;Node16</title>
<path fill="none" stroke="midnightblue" d="M846.81,-1112.19C872.11,-1117.32 903.45,-1123.67 930.07,-1129.07"/>
<polygon fill="midnightblue" stroke="midnightblue" points="929.53,-1132.53 940.03,-1131.09 930.92,-1125.67 929.53,-1132.53"/>
</g>
<!-- Node26 -->
<g id="node26" class="node">
<title>Node26</title>
<g id="a_node26"><a xlink:href="../../d0/dfe/class_syntax_analyzer.html#a94c8a6ab5c0e53cae22edb1a840a27ce" target="_top" xlink:title=" ">
<polygon fill="none" stroke="black" points="1663,-1065.11 1663,-1084.11 1813,-1084.11 1813,-1065.11 1663,-1065.11"/>
<text text-anchor="middle" x="1738" y="-1072.11" font-family="Helvetica,sans-Serif" font-size="10.00">SyntaxAnalyzer::syntaxVariable</text>
</a>
</g>
</g>
<!-- Node15&#45;&gt;Node26 -->
<g id="edge67" class="edge">
<title>Node15&#45;&gt;Node26</title>
<path fill="none" stroke="midnightblue" d="M876.22,-1100.31C1049.85,-1095.13 1471.83,-1082.52 1652.56,-1077.13"/>
<polygon fill="midnightblue" stroke="midnightblue" points="1652.92,-1080.62 1662.81,-1076.82 1652.71,-1073.62 1652.92,-1080.62"/>
</g>
<!-- Node16&#45;&gt;Node2 -->
<g id="edge25" class="edge">
<title>Node16&#45;&gt;Node2</title>
<path fill="none" stroke="midnightblue" d="M991.55,-1150.52C1000.78,-1184.78 1035.37,-1299.93 1100,-1370.61 1193.48,-1472.84 1228.97,-1530.61 1367.5,-1530.61 1367.5,-1530.61 1367.5,-1530.61 1548.5,-1530.61 1579.5,-1530.61 1768.84,-1487.83 1861.51,-1466.46"/>
<polygon fill="midnightblue" stroke="midnightblue" points="1862.55,-1469.81 1871.51,-1464.15 1860.98,-1462.99 1862.55,-1469.81"/>
</g>
<!-- Node16&#45;&gt;Node4 -->
<g id="edge28" class="edge">
<title>Node16&#45;&gt;Node4</title>
<path fill="none" stroke="midnightblue" d="M989.78,-1150.14C993.63,-1191.66 1014.1,-1358.96 1100,-1455.61 1283.54,-1662.12 1388.88,-1667.1 1658,-1729.61 1727.27,-1745.69 1754.98,-1762.55 1818,-1729.61 1924.97,-1673.69 1911.12,-1610.23 1973,-1506.61 1991.14,-1476.23 1981.45,-1457.8 2009,-1435.61 2015.17,-1430.64 2022.49,-1426.96 2030.09,-1424.23"/>
<polygon fill="midnightblue" stroke="midnightblue" points="2031.24,-1427.54 2039.78,-1421.27 2029.2,-1420.84 2031.24,-1427.54"/>
</g>
<!-- Node16&#45;&gt;Node7 -->
<g id="edge26" class="edge">
<title>Node16&#45;&gt;Node7</title>
<path fill="none" stroke="midnightblue" d="M1003.27,-1130.94C1050.09,-1098.33 1199.71,-986.94 1264,-853.61 1315.81,-746.14 1232.7,-686.11 1300,-587.61 1339.28,-530.11 1396.57,-568.3 1437,-511.61 1490.46,-436.65 1406.09,-370.85 1473,-307.61 1584.66,-202.06 1668.58,-249.83 1818,-285.61 1844.48,-291.95 1871.93,-307 1890.37,-318.57"/>
<polygon fill="midnightblue" stroke="midnightblue" points="1888.6,-321.59 1898.9,-324.08 1892.4,-315.71 1888.6,-321.59"/>
</g>
<!-- Node16&#45;&gt;Node8 -->
<g id="edge27" class="edge">
<title>Node16&#45;&gt;Node8</title>
<path fill="none" stroke="midnightblue" d="M1046.93,-1131.1C1256.4,-1096.71 1962.74,-980.43 1973,-974.61 2019.55,-948.18 2055.34,-893.94 2071.9,-865.28"/>
<polygon fill="midnightblue" stroke="midnightblue" points="2075.1,-866.74 2076.94,-856.3 2068.99,-863.31 2075.1,-866.74"/>
</g>
<!-- Node17 -->
<g id="node17" class="node">
<title>Node17</title>
<g id="a_node17"><a xlink:href="../../df/d3f/_syntax_8hpp.html#ae7d62ca130413d4c96863327c1af81a4" target="_top" xlink:title="Возвращает истину, если value находится среди значений cont.">
<polygon fill="none" stroke="black" points="1531.5,-1407.11 1531.5,-1426.11 1563.5,-1426.11 1563.5,-1407.11 1531.5,-1407.11"/>
<text text-anchor="middle" x="1547.5" y="-1414.11" font-family="Helvetica,sans-Serif" font-size="10.00">isIn</text>
</a>
</g>
</g>
<!-- Node16&#45;&gt;Node17 -->
<g id="edge29" class="edge">
<title>Node16&#45;&gt;Node17</title>
<path fill="none" stroke="midnightblue" d="M991.92,-1150.37C1001.62,-1181.08 1035.88,-1276.29 1100,-1321.61 1235.75,-1417.53 1448.76,-1420.04 1521.32,-1417.82"/>
<polygon fill="midnightblue" stroke="midnightblue" points="1521.49,-1421.31 1531.36,-1417.45 1521.23,-1414.32 1521.49,-1421.31"/>
</g>
<!-- Node18 -->
<g id="node18" class="node">
<title>Node18</title>
<g id="a_node18"><a xlink:href="../../d0/dfe/class_syntax_analyzer.html#a3dfb6634a4bcdc61da5b1bafd1f3d136" target="_top" xlink:title=" ">
<polygon fill="none" stroke="black" points="1100,-1293.11 1100,-1312.11 1264,-1312.11 1264,-1293.11 1100,-1293.11"/>
<text text-anchor="middle" x="1182" y="-1300.11" font-family="Helvetica,sans-Serif" font-size="10.00">SyntaxAnalyzer::syntaxSimpleExpr</text>
</a>
</g>
</g>
<!-- Node16&#45;&gt;Node18 -->
<g id="edge30" class="edge">
<title>Node16&#45;&gt;Node18</title>
<path fill="none" stroke="midnightblue" d="M996.89,-1150.3C1014.12,-1171.08 1057.02,-1220.78 1100,-1254.61 1116.43,-1267.54 1136.66,-1279.53 1152.79,-1288.29"/>
<polygon fill="midnightblue" stroke="midnightblue" points="1151.29,-1291.45 1161.76,-1293.06 1154.57,-1285.27 1151.29,-1291.45"/>
</g>
<!-- Node18&#45;&gt;Node2 -->
<g id="edge31" class="edge">
<title>Node18&#45;&gt;Node2</title>
<path fill="none" stroke="midnightblue" d="M1201.94,-1312.12C1224.99,-1323.63 1265.14,-1343.47 1300,-1359.61 1376.21,-1394.89 1392.03,-1413.3 1473,-1435.61 1552.88,-1457.61 1575.3,-1453.48 1658,-1458.61 1720.72,-1462.49 1792.29,-1460.82 1843.52,-1458.58"/>
<polygon fill="midnightblue" stroke="midnightblue" points="1843.98,-1462.06 1853.81,-1458.1 1843.66,-1455.07 1843.98,-1462.06"/>
</g>
<!-- Node18&#45;&gt;Node4 -->
<g id="edge34" class="edge">
<title>Node18&#45;&gt;Node4</title>
<path fill="none" stroke="midnightblue" d="M1191.37,-1312.33C1209.3,-1332.57 1253.53,-1379.48 1300,-1405.61 1370.21,-1445.08 1393.89,-1444.47 1473,-1459.61 1691.35,-1501.38 1768.78,-1561.45 1973,-1473.61 1994.37,-1464.41 1988.97,-1447.44 2009,-1435.61 2015.43,-1431.8 2022.63,-1428.75 2029.92,-1426.31"/>
<polygon fill="midnightblue" stroke="midnightblue" points="2031.29,-1429.55 2039.87,-1423.33 2029.28,-1422.85 2031.29,-1429.55"/>
</g>
<!-- Node18&#45;&gt;Node7 -->
<g id="edge32" class="edge">
<title>Node18&#45;&gt;Node7</title>
<path fill="none" stroke="midnightblue" d="M1186.94,-1293.09C1212.32,-1231.5 1354.35,-882.52 1437,-587.61 1458.19,-511.98 1427.89,-478.89 1473,-414.61 1528.47,-335.55 1565.08,-326.94 1658,-300.61 1726.42,-281.22 1747.89,-288.72 1818,-300.61 1840.22,-304.37 1864.18,-312.79 1882.41,-320.18"/>
<polygon fill="midnightblue" stroke="midnightblue" points="1881.07,-323.42 1891.65,-324.04 1883.77,-316.96 1881.07,-323.42"/>
</g>
<!-- Node18&#45;&gt;Node8 -->
<g id="edge33" class="edge">
<title>Node18&#45;&gt;Node8</title>
<path fill="none" stroke="midnightblue" d="M1197.67,-1292.93C1239.54,-1265.54 1363.61,-1185.98 1473,-1131.61 1552.6,-1092.04 1572.16,-1078.69 1658,-1055.61 1794.45,-1018.91 1853.49,-1087.99 1973,-1012.61 2029.03,-977.27 2062.35,-901.47 2075.49,-865.85"/>
<polygon fill="midnightblue" stroke="midnightblue" points="2078.88,-866.77 2078.93,-856.18 2072.28,-864.43 2078.88,-866.77"/>
</g>
<!-- Node18&#45;&gt;Node17 -->
<g id="edge35" class="edge">
<title>Node18&#45;&gt;Node17</title>
<path fill="none" stroke="midnightblue" d="M1232.45,-1312.11C1295.68,-1324.69 1401.24,-1347.32 1437,-1364.61 1455.25,-1373.43 1455.1,-1383.1 1473,-1392.61 1488.26,-1400.71 1506.76,-1406.74 1521.39,-1410.72"/>
<polygon fill="midnightblue" stroke="midnightblue" points="1520.69,-1414.16 1531.25,-1413.26 1522.44,-1407.38 1520.69,-1414.16"/>
</g>
<!-- Node19 -->
<g id="node19" class="node">
<title>Node19</title>
<g id="a_node19"><a xlink:href="../../d0/dfe/class_syntax_analyzer.html#a1e9b913cc8c2861927d7c05d10f1822d" target="_top" xlink:title=" ">
<polygon fill="none" stroke="black" points="1300,-1293.11 1300,-1312.11 1437,-1312.11 1437,-1293.11 1300,-1293.11"/>
<text text-anchor="middle" x="1368.5" y="-1300.11" font-family="Helvetica,sans-Serif" font-size="10.00">SyntaxAnalyzer::syntaxTerm</text>
</a>
</g>
</g>
<!-- Node18&#45;&gt;Node19 -->
<g id="edge36" class="edge">
<title>Node18&#45;&gt;Node19</title>
<path fill="none" stroke="midnightblue" d="M1264.19,-1302.61C1272.65,-1302.61 1281.23,-1302.61 1289.64,-1302.61"/>
<polygon fill="midnightblue" stroke="midnightblue" points="1289.81,-1306.11 1299.81,-1302.61 1289.81,-1299.11 1289.81,-1306.11"/>
</g>
<!-- Node19&#45;&gt;Node2 -->
<g id="edge37" class="edge">
<title>Node19&#45;&gt;Node2</title>
<path fill="none" stroke="midnightblue" d="M1412.06,-1312.12C1420.6,-1314.88 1429.31,-1318.33 1437,-1322.61 1455.71,-1333.01 1454.25,-1344.27 1473,-1354.61 1533.36,-1387.88 1561.9,-1363.87 1622,-1397.61 1640.93,-1408.23 1638.16,-1421.79 1658,-1430.61 1716.75,-1456.7 1790.49,-1460.95 1843.45,-1459.72"/>
<polygon fill="midnightblue" stroke="midnightblue" points="1843.87,-1463.21 1853.75,-1459.4 1843.65,-1456.21 1843.87,-1463.21"/>
</g>
<!-- Node19&#45;&gt;Node4 -->
<g id="edge40" class="edge">
<title>Node19&#45;&gt;Node4</title>
<path fill="none" stroke="midnightblue" d="M1437.09,-1311.85C1500.75,-1321.39 1590.86,-1337.28 1622,-1354.61 1642.33,-1365.92 1636.9,-1382.81 1658,-1392.61 1722.67,-1422.62 1931.63,-1420.98 2029.95,-1418.39"/>
<polygon fill="midnightblue" stroke="midnightblue" points="2030.06,-1421.88 2039.96,-1418.11 2029.87,-1414.89 2030.06,-1421.88"/>
</g>
<!-- Node19&#45;&gt;Node7 -->
<g id="edge38" class="edge">
<title>Node19&#45;&gt;Node7</title>
<path fill="none" stroke="midnightblue" d="M1370.53,-1293.07C1380.41,-1201.36 1458.7,-478.38 1473,-461.61 1517.73,-409.16 1564.67,-456.87 1622,-418.61 1643.3,-404.39 1635.85,-386.46 1658,-373.61 1717.78,-338.9 1798.13,-331.52 1852.43,-331.12"/>
<polygon fill="midnightblue" stroke="midnightblue" points="1852.59,-334.62 1862.59,-331.13 1852.59,-327.62 1852.59,-334.62"/>
</g>
<!-- Node19&#45;&gt;Node8 -->
<g id="edge39" class="edge">
<title>Node19&#45;&gt;Node8</title>
<path fill="none" stroke="midnightblue" d="M1437.13,-1304.84C1488.05,-1306.89 1559.51,-1310.54 1622,-1316.61 1638.08,-1318.16 1641.88,-1320.49 1658,-1321.61 1728.94,-1326.51 1748.32,-1335.82 1818,-1321.61 1891.36,-1306.64 1923.95,-1312.17 1973,-1255.61 2075.88,-1136.96 2082.95,-931.39 2082.48,-866.7"/>
<polygon fill="midnightblue" stroke="midnightblue" points="2085.98,-866.26 2082.33,-856.31 2078.98,-866.36 2085.98,-866.26"/>
</g>
<!-- Node19&#45;&gt;Node17 -->
<g id="edge41" class="edge">
<title>Node19&#45;&gt;Node17</title>
<path fill="none" stroke="midnightblue" d="M1411.32,-1312.14C1420.47,-1315.62 1429.62,-1320.31 1437,-1326.61 1462.41,-1348.3 1447.31,-1371.25 1473,-1392.61 1486.75,-1404.04 1506.1,-1410.07 1521.5,-1413.23"/>
<polygon fill="midnightblue" stroke="midnightblue" points="1520.95,-1416.69 1531.4,-1414.99 1522.17,-1409.79 1520.95,-1416.69"/>
</g>
<!-- Node20 -->
<g id="node20" class="node">
<title>Node20</title>
<g id="a_node20"><a xlink:href="../../d0/dfe/class_syntax_analyzer.html#a3af9b5161a2cef6fdd26b0bb60334ac4" target="_top" xlink:title=" ">
<polygon fill="none" stroke="black" points="1476,-1141.11 1476,-1160.11 1619,-1160.11 1619,-1141.11 1476,-1141.11"/>
<text text-anchor="middle" x="1547.5" y="-1148.11" font-family="Helvetica,sans-Serif" font-size="10.00">SyntaxAnalyzer::syntaxFactor</text>
</a>
</g>
</g>
<!-- Node19&#45;&gt;Node20 -->
<g id="edge42" class="edge">
<title>Node19&#45;&gt;Node20</title>
<path fill="none" stroke="midnightblue" d="M1380.57,-1293.1C1410,-1267.83 1490.43,-1198.76 1527.42,-1166.99"/>
<polygon fill="midnightblue" stroke="midnightblue" points="1530.13,-1169.28 1535.43,-1160.11 1525.57,-1163.97 1530.13,-1169.28"/>
</g>
<!-- Node20&#45;&gt;Node2 -->
<g id="edge43" class="edge">
<title>Node20&#45;&gt;Node2</title>
<path fill="none" stroke="midnightblue" d="M1552.55,-1160.34C1564.69,-1188.57 1603.4,-1271.61 1658,-1321.61 1723.25,-1381.35 1820.33,-1422.17 1873.75,-1441.6"/>
<polygon fill="midnightblue" stroke="midnightblue" points="1872.61,-1444.91 1883.21,-1444.98 1874.97,-1438.32 1872.61,-1444.91"/>
</g>
<!-- Node20&#45;&gt;Node3 -->
<g id="edge48" class="edge">
<title>Node20&#45;&gt;Node3</title>
<path fill="none" stroke="midnightblue" d="M1578.33,-1160.17C1668.79,-1189.16 1940.14,-1276.14 2042.41,-1308.92"/>
<polygon fill="midnightblue" stroke="midnightblue" points="2041.46,-1312.29 2052.05,-1312.01 2043.6,-1305.62 2041.46,-1312.29"/>
</g>
<!-- Node20&#45;&gt;Node4 -->
<g id="edge54" class="edge">
<title>Node20&#45;&gt;Node4</title>
<path fill="none" stroke="midnightblue" d="M1560.34,-1160.22C1579.78,-1175.64 1620.07,-1206.14 1658,-1225.61 1725.29,-1260.14 1748.55,-1253.65 1818,-1283.61 1907.28,-1322.11 2009,-1376.46 2055.85,-1402.12"/>
<polygon fill="midnightblue" stroke="midnightblue" points="2054.28,-1405.25 2064.73,-1407 2057.65,-1399.12 2054.28,-1405.25"/>
</g>
<!-- Node20&#45;&gt;Node7 -->
<g id="edge44" class="edge">
<title>Node20&#45;&gt;Node7</title>
<path fill="none" stroke="midnightblue" d="M1549.42,-1140.69C1555.74,-1073.99 1594.5,-690.32 1658,-594.61 1705.43,-523.11 1758.57,-548.49 1818,-486.61 1858.22,-444.73 1889.87,-382.95 1904.18,-352.28"/>
<polygon fill="midnightblue" stroke="midnightblue" points="1907.38,-353.7 1908.36,-343.15 1901.02,-350.79 1907.38,-353.7"/>
</g>
<!-- Node20&#45;&gt;Node8 -->
<g id="edge49" class="edge">
<title>Node20&#45;&gt;Node8</title>
<path fill="none" stroke="midnightblue" d="M1602.78,-1141.06C1620.39,-1138 1640.02,-1134.62 1658,-1131.61 1797.87,-1108.15 1859.9,-1166.17 1973,-1080.61 2045.16,-1026.01 2071.29,-911.99 2079.12,-866.23"/>
<polygon fill="midnightblue" stroke="midnightblue" points="2082.61,-866.57 2080.73,-856.15 2075.7,-865.47 2082.61,-866.57"/>
</g>
<!-- Node20&#45;&gt;Node13 -->
<g id="edge55" class="edge">
<title>Node20&#45;&gt;Node13</title>
<path fill="none" stroke="midnightblue" d="M1556.36,-1141.1C1585.16,-1106.26 1685.2,-985.26 1722.68,-939.93"/>
<polygon fill="midnightblue" stroke="midnightblue" points="1725.43,-942.09 1729.11,-932.15 1720.04,-937.63 1725.43,-942.09"/>
</g>
<!-- Node20&#45;&gt;Node16 -->
<g id="edge61" class="edge">
<title>Node20&#45;&gt;Node16</title>
<path fill="none" stroke="midnightblue" d="M1475.62,-1149.33C1370.39,-1147.45 1173.64,-1143.92 1065.34,-1141.97"/>
<polygon fill="midnightblue" stroke="midnightblue" points="1065.2,-1138.47 1055.14,-1141.79 1065.08,-1145.47 1065.2,-1138.47"/>
</g>
<!-- Node20&#45;&gt;Node20 -->
<g id="edge62" class="edge">
<title>Node20&#45;&gt;Node20</title>
<path fill="none" stroke="midnightblue" d="M1520.07,-1160.36C1506.72,-1169.17 1515.86,-1178.61 1547.5,-1178.61 1569.25,-1178.61 1580.37,-1174.15 1580.86,-1168.5"/>
<polygon fill="midnightblue" stroke="midnightblue" points="1583.65,-1166.39 1574.93,-1160.36 1577.99,-1170.51 1583.65,-1166.39"/>
</g>
<!-- Node21 -->
<g id="node21" class="node">
<title>Node21</title>
<g id="a_node21"><a xlink:href="../../d0/dfe/class_syntax_analyzer.html#a9952c4a2db0a1382b9c94f40dd535fae" target="_top" xlink:title=" ">
<polygon fill="none" stroke="black" points="1854.5,-609.11 1854.5,-628.11 1972.5,-628.11 1972.5,-609.11 1854.5,-609.11"/>
<text text-anchor="middle" x="1913.5" y="-616.11" font-family="Helvetica,sans-Serif" font-size="10.00">SyntaxAnalyzer::eatAdv</text>
</a>
</g>
</g>
<!-- Node20&#45;&gt;Node21 -->
<g id="edge45" class="edge">
<title>Node20&#45;&gt;Node21</title>
<path fill="none" stroke="midnightblue" d="M1549.03,-1141.03C1552.82,-1076.68 1577.89,-707.51 1658,-637.61 1715.04,-587.83 1809.31,-596.03 1865.71,-607"/>
<polygon fill="midnightblue" stroke="midnightblue" points="1865.28,-610.48 1875.78,-609.06 1866.69,-603.62 1865.28,-610.48"/>
</g>
<!-- Node22 -->
<g id="node22" class="node">
<title>Node22</title>
<g id="a_node22"><a xlink:href="../../db/dc1/class_token.html#a014ced0a9ea72ae21fad0d4f116d0a73" target="_top" xlink:title=" ">
<polygon fill="none" stroke="black" points="1699,-1141.11 1699,-1160.11 1777,-1160.11 1777,-1141.11 1699,-1141.11"/>
<text text-anchor="middle" x="1738" y="-1148.11" font-family="Helvetica,sans-Serif" font-size="10.00">Token::getInfo</text>
</a>
</g>
</g>
<!-- Node20&#45;&gt;Node22 -->
<g id="edge50" class="edge">
<title>Node20&#45;&gt;Node22</title>
<path fill="none" stroke="midnightblue" d="M1619.23,-1150.61C1642.48,-1150.61 1667.77,-1150.61 1688.94,-1150.61"/>
<polygon fill="midnightblue" stroke="midnightblue" points="1688.97,-1154.11 1698.97,-1150.61 1688.97,-1147.11 1688.97,-1154.11"/>
</g>
<!-- Node20&#45;&gt;Node25 -->
<g id="edge56" class="edge">
<title>Node20&#45;&gt;Node25</title>
<path fill="none" stroke="midnightblue" d="M1559.04,-1160.44C1573.84,-1174.47 1601.28,-1201.35 1622,-1226.61 1639.83,-1248.34 1635.29,-1262.04 1658,-1278.61 1663.97,-1282.96 1670.74,-1286.53 1677.75,-1289.47"/>
<polygon fill="midnightblue" stroke="midnightblue" points="1676.8,-1292.85 1687.4,-1293.08 1679.26,-1286.29 1676.8,-1292.85"/>
</g>
<!-- Node20&#45;&gt;Node26 -->
<g id="edge63" class="edge">
<title>Node20&#45;&gt;Node26</title>
<path fill="none" stroke="midnightblue" d="M1566.73,-1140.92C1588.17,-1129.77 1625.03,-1111.36 1658,-1098.61 1668.86,-1094.4 1680.78,-1090.45 1691.99,-1087.02"/>
<polygon fill="midnightblue" stroke="midnightblue" points="1693.04,-1090.36 1701.62,-1084.14 1691.04,-1083.65 1693.04,-1090.36"/>
</g>
<!-- Node21&#45;&gt;Node8 -->
<g id="edge46" class="edge">
<title>Node21&#45;&gt;Node8</title>
<path fill="none" stroke="midnightblue" d="M1948.97,-628.18C1957.51,-631.71 1966.16,-636.42 1973,-642.61 2031.56,-695.51 2064.44,-787.41 2076.57,-827.25"/>
<polygon fill="midnightblue" stroke="midnightblue" points="2073.26,-828.43 2079.44,-837.04 2079.98,-826.46 2073.26,-828.43"/>
</g>
<!-- Node21&#45;&gt;Node9 -->
<g id="edge47" class="edge">
<title>Node21&#45;&gt;Node9</title>
<path fill="none" stroke="midnightblue" d="M1924.98,-609.1C1952.83,-583.83 2028.94,-514.76 2063.94,-482.99"/>
<polygon fill="midnightblue" stroke="midnightblue" points="2066.47,-485.42 2071.53,-476.11 2061.77,-480.24 2066.47,-485.42"/>
</g>
<!-- Node22&#45;&gt;Node4 -->
<g id="edge52" class="edge">
<title>Node22&#45;&gt;Node4</title>
<path fill="none" stroke="midnightblue" d="M1757.51,-1160.18C1806.32,-1185.65 1937.25,-1255.37 1973,-1288.61 1993.59,-1307.75 1991.21,-1318.84 2009,-1340.61 2026.55,-1362.07 2048.91,-1384.76 2064.23,-1399.7"/>
<polygon fill="midnightblue" stroke="midnightblue" points="2061.92,-1402.33 2071.54,-1406.76 2066.78,-1397.29 2061.92,-1402.33"/>
</g>
<!-- Node23 -->
<g id="node23" class="node">
<title>Node23</title>
<g id="a_node23"><a xlink:href="../../db/dc1/class_token.html#a942fcc40ffdf54c98b7b641c792a26bc" target="_top" xlink:title="Возвращает константную ссылку на строковое представление токена">
<polygon fill="none" stroke="black" points="1876.5,-1141.11 1876.5,-1160.11 1950.5,-1160.11 1950.5,-1141.11 1876.5,-1141.11"/>
<text text-anchor="middle" x="1913.5" y="-1148.11" font-family="Helvetica,sans-Serif" font-size="10.00">Token::getStr</text>
</a>
</g>
</g>
<!-- Node22&#45;&gt;Node23 -->
<g id="edge51" class="edge">
<title>Node22&#45;&gt;Node23</title>
<path fill="none" stroke="midnightblue" d="M1777.08,-1150.61C1803.26,-1150.61 1838.18,-1150.61 1866.01,-1150.61"/>
<polygon fill="midnightblue" stroke="midnightblue" points="1866.29,-1154.11 1876.29,-1150.61 1866.29,-1147.11 1866.29,-1154.11"/>
</g>
<!-- Node24 -->
<g id="node24" class="node">
<title>Node24</title>
<g id="a_node24"><a xlink:href="../../db/dc1/class_token.html#af3b5fdf2261d637af820d4adb62e6109" target="_top" xlink:title=" ">
<polygon fill="none" stroke="black" points="1882,-1179.11 1882,-1198.11 1945,-1198.11 1945,-1179.11 1882,-1179.11"/>
<text text-anchor="middle" x="1913.5" y="-1186.11" font-family="Helvetica,sans-Serif" font-size="10.00">Token::line</text>
</a>
</g>
</g>
<!-- Node22&#45;&gt;Node24 -->
<g id="edge53" class="edge">
<title>Node22&#45;&gt;Node24</title>
<path fill="none" stroke="midnightblue" d="M1777.08,-1158.94C1805.06,-1165.07 1843.04,-1173.39 1871.65,-1179.66"/>
<polygon fill="midnightblue" stroke="midnightblue" points="1871.22,-1183.15 1881.74,-1181.87 1872.72,-1176.31 1871.22,-1183.15"/>
</g>
<!-- Node25&#45;&gt;Node2 -->
<g id="edge57" class="edge">
<title>Node25&#45;&gt;Node2</title>
<path fill="none" stroke="midnightblue" d="M1788.05,-1312.19C1798.52,-1315.65 1809.1,-1320.32 1818,-1326.61 1858.99,-1355.56 1889.4,-1407.89 1903.6,-1435.83"/>
<polygon fill="midnightblue" stroke="midnightblue" points="1900.52,-1437.51 1908.08,-1444.93 1906.8,-1434.41 1900.52,-1437.51"/>
</g>
<!-- Node25&#45;&gt;Node7 -->
<g id="edge58" class="edge">
<title>Node25&#45;&gt;Node7</title>
<path fill="none" stroke="midnightblue" d="M1746.91,-1293.04C1763.63,-1272.19 1802.31,-1220.41 1818,-1169.61 1892.9,-927.07 1818.63,-850.97 1854,-599.61 1867.15,-506.14 1895.36,-396.69 1907.15,-353.03"/>
<polygon fill="midnightblue" stroke="midnightblue" points="1910.58,-353.74 1909.84,-343.17 1903.83,-351.9 1910.58,-353.74"/>
</g>
<!-- Node25&#45;&gt;Node8 -->
<g id="edge59" class="edge">
<title>Node25&#45;&gt;Node8</title>
<path fill="none" stroke="midnightblue" d="M1799.44,-1293.09C1852.32,-1281.67 1927.59,-1257.42 1973,-1207.61 2066.24,-1105.32 2079.82,-925.79 2081.72,-866.34"/>
<polygon fill="midnightblue" stroke="midnightblue" points="2085.22,-866.19 2081.96,-856.11 2078.22,-866.02 2085.22,-866.19"/>
</g>
<!-- Node25&#45;&gt;Node16 -->
<g id="edge60" class="edge">
<title>Node25&#45;&gt;Node16</title>
<path fill="none" stroke="midnightblue" d="M1693.06,-1293.09C1563.74,-1265.08 1184.75,-1183 1043.17,-1152.34"/>
<polygon fill="midnightblue" stroke="midnightblue" points="1043.51,-1148.83 1033,-1150.13 1042.03,-1155.67 1043.51,-1148.83"/>
</g>
<!-- Node26&#45;&gt;Node2 -->
<g id="edge64" class="edge">
<title>Node26&#45;&gt;Node2</title>
<path fill="none" stroke="midnightblue" d="M1759.12,-1084.22C1777.1,-1093.82 1802.87,-1110.2 1818,-1131.61 1853.95,-1182.48 1895.57,-1372.69 1908.48,-1434.83"/>
<polygon fill="midnightblue" stroke="midnightblue" points="1905.1,-1435.79 1910.55,-1444.88 1911.96,-1434.38 1905.1,-1435.79"/>
</g>
<!-- Node26&#45;&gt;Node7 -->
<g id="edge65" class="edge">
<title>Node26&#45;&gt;Node7</title>
<path fill="none" stroke="midnightblue" d="M1746.75,-1064.99C1763.15,-1044.04 1801.25,-992.07 1818,-941.61 1866.14,-796.54 1829.55,-750.48 1854,-599.61 1869.1,-506.43 1896.22,-396.82 1907.44,-353.07"/>
<polygon fill="midnightblue" stroke="midnightblue" points="1910.87,-353.75 1909.98,-343.19 1904.1,-352 1910.87,-353.75"/>
</g>
<!-- Node26&#45;&gt;Node8 -->
<g id="edge66" class="edge">
<title>Node26&#45;&gt;Node8</title>
<path fill="none" stroke="midnightblue" d="M1813.03,-1084.05C1862.33,-1086.5 1926.38,-1081.9 1973,-1050.61 2039.11,-1006.23 2068.2,-908.22 2077.96,-866.27"/>
<polygon fill="midnightblue" stroke="midnightblue" points="2081.39,-866.97 2080.12,-856.45 2074.55,-865.46 2081.39,-866.97"/>
</g>
<!-- Node27&#45;&gt;Node2 -->
<g id="edge71" class="edge">
<title>Node27&#45;&gt;Node2</title>
<path fill="none" stroke="midnightblue" d="M1047.5,-1749.07C1121.71,-1737.81 1253.74,-1720.61 1367.5,-1720.61 1367.5,-1720.61 1367.5,-1720.61 1548.5,-1720.61 1668.75,-1720.61 1721.81,-1768.77 1818,-1696.61 1891.16,-1641.72 1907.71,-1521.94 1911.43,-1474.52"/>
<polygon fill="midnightblue" stroke="midnightblue" points="1914.94,-1474.55 1912.11,-1464.34 1907.95,-1474.08 1914.94,-1474.55"/>
</g>
<!-- Node28&#45;&gt;Node2 -->
<g id="edge73" class="edge">
<title>Node28&#45;&gt;Node2</title>
<path fill="none" stroke="midnightblue" d="M808.95,-982.27C825.95,-1000.38 861.3,-1041.39 876,-1083.61 895.67,-1140.08 870.18,-1577.86 912,-1620.61 953.97,-1663.51 1120.98,-1644.61 1181,-1644.61 1181,-1644.61 1181,-1644.61 1548.5,-1644.61 1668.75,-1644.61 1716.83,-1685.6 1818,-1620.61 1871.6,-1586.17 1897.98,-1509.92 1907.8,-1474.02"/>
<polygon fill="midnightblue" stroke="midnightblue" points="1911.21,-1474.82 1910.33,-1464.26 1904.43,-1473.07 1911.21,-1474.82"/>
</g>
<!-- Node28&#45;&gt;Node7 -->
<g id="edge74" class="edge">
<title>Node28&#45;&gt;Node7</title>
<path fill="none" stroke="midnightblue" d="M823.93,-963.06C911.31,-928.43 1206.15,-807.24 1264,-726.61 1320.48,-647.88 1255.48,-597.65 1300,-511.61 1339.43,-435.4 1394.08,-449.89 1437,-375.61 1468.28,-321.47 1423.45,-277.74 1473,-239.61 1489.06,-227.24 1790.7,-231.35 1818,-242.61 1854.3,-257.56 1884.56,-293.64 1900.46,-315.61"/>
<polygon fill="midnightblue" stroke="midnightblue" points="1897.77,-317.87 1906.37,-324.06 1903.5,-313.86 1897.77,-317.87"/>
</g>
<!-- Node28&#45;&gt;Node8 -->
<g id="edge75" class="edge">
<title>Node28&#45;&gt;Node8</title>
<path fill="none" stroke="midnightblue" d="M864.08,-976.58C1079.1,-988.92 1768.75,-1021.21 1973,-941.61 2014.06,-925.6 2050.07,-886.87 2068.64,-864.11"/>
<polygon fill="midnightblue" stroke="midnightblue" points="2071.41,-866.25 2074.88,-856.25 2065.92,-861.9 2071.41,-866.25"/>
</g>
<!-- Node28&#45;&gt;Node12 -->
<g id="edge77" class="edge">
<title>Node28&#45;&gt;Node12</title>
<path fill="none" stroke="midnightblue" d="M749.63,-963.03C717.17,-953.54 675.53,-939.52 649.17,-928.97"/>
<polygon fill="midnightblue" stroke="midnightblue" points="650.45,-925.71 639.87,-925.11 647.77,-932.18 650.45,-925.71"/>
</g>
<!-- Node28&#45;&gt;Node16 -->
<g id="edge76" class="edge">
<title>Node28&#45;&gt;Node16</title>
<path fill="none" stroke="midnightblue" d="M810.12,-982.12C840.78,-1009.6 929.76,-1089.32 968.55,-1124.08"/>
<polygon fill="midnightblue" stroke="midnightblue" points="966.25,-1126.71 976.03,-1130.78 970.92,-1121.5 966.25,-1126.71"/>
</g>
<!-- Node29&#45;&gt;Node2 -->
<g id="edge79" class="edge">
<title>Node29&#45;&gt;Node2</title>
<path fill="none" stroke="midnightblue" d="M834.66,-925.21C849.61,-931.04 865.89,-940.06 876,-953.61 931.61,-1028.08 879.49,-1072.53 912,-1159.61 993.11,-1376.82 949.13,-1606.61 1181,-1606.61 1181,-1606.61 1181,-1606.61 1548.5,-1606.61 1688.98,-1606.61 1838.04,-1509.01 1891.74,-1470.22"/>
<polygon fill="midnightblue" stroke="midnightblue" points="1894.08,-1472.85 1900.08,-1464.11 1889.94,-1467.2 1894.08,-1472.85"/>
</g>
<!-- Node29&#45;&gt;Node7 -->
<g id="edge80" class="edge">
<title>Node29&#45;&gt;Node7</title>
<path fill="none" stroke="midnightblue" d="M809.71,-906C828.73,-888.45 871.35,-850.7 912,-825.61 1058.55,-735.14 1163.27,-803.29 1264,-663.61 1349.26,-545.37 1234.14,-467.65 1300,-337.61 1347.18,-244.44 1376.87,-219.4 1473,-178.61 1614.22,-118.68 1685.38,-90.5 1818,-167.61 1873.08,-199.63 1898.71,-277.08 1908.07,-313.74"/>
<polygon fill="midnightblue" stroke="midnightblue" points="1904.73,-314.81 1910.47,-323.71 1911.54,-313.17 1904.73,-314.81"/>
</g>
<!-- Node29&#45;&gt;Node8 -->
<g id="edge81" class="edge">
<title>Node29&#45;&gt;Node8</title>
<path fill="none" stroke="midnightblue" d="M858.46,-906.07C933.27,-894.81 1066.35,-877.61 1181,-877.61 1181,-877.61 1181,-877.61 1369.5,-877.61 1637.83,-877.61 1705.49,-881.5 1973,-860.61 1983.92,-859.75 1995.43,-858.58 2006.71,-857.27"/>
<polygon fill="midnightblue" stroke="midnightblue" points="2007.47,-860.7 2016.98,-856.03 2006.63,-853.75 2007.47,-860.7"/>
</g>
<!-- Node29&#45;&gt;Node12 -->
<g id="edge83" class="edge">
<title>Node29&#45;&gt;Node12</title>
<path fill="none" stroke="midnightblue" d="M723.96,-922.28C714.52,-922.38 704.86,-922.38 695.44,-922.26"/>
<polygon fill="midnightblue" stroke="midnightblue" points="695.39,-918.76 685.34,-922.1 695.28,-925.76 695.39,-918.76"/>
</g>
<!-- Node29&#45;&gt;Node16 -->
<g id="edge82" class="edge">
<title>Node29&#45;&gt;Node16</title>
<path fill="none" stroke="midnightblue" d="M828.05,-925.22C843.56,-931.49 862.3,-940.89 876,-953.61 929.4,-1003.16 965.36,-1084.25 979.83,-1121.18"/>
<polygon fill="midnightblue" stroke="midnightblue" points="976.65,-1122.66 983.49,-1130.76 983.19,-1120.17 976.65,-1122.66"/>
</g>
<!-- Node30&#45;&gt;Node7 -->
<g id="edge85" class="edge">
<title>Node30&#45;&gt;Node7</title>
<path fill="none" stroke="midnightblue" d="M1579.82,-471.03C1592.94,-466.85 1608.3,-461.73 1622,-456.61 1718.38,-420.54 1829.77,-371.16 1882.22,-347.43"/>
<polygon fill="midnightblue" stroke="midnightblue" points="1883.94,-350.49 1891.61,-343.18 1881.05,-344.12 1883.94,-350.49"/>
</g>
<!-- Node30&#45;&gt;Node8 -->
<g id="edge86" class="edge">
<title>Node30&#45;&gt;Node8</title>
<path fill="none" stroke="midnightblue" d="M1620.82,-472.04C1713.17,-465.23 1872.97,-467.93 1973,-550.61 2060.7,-623.09 2077.84,-772.87 2081.19,-826.75"/>
<polygon fill="midnightblue" stroke="midnightblue" points="2077.71,-827.19 2081.73,-837 2084.7,-826.83 2077.71,-827.19"/>
</g>
<!-- Node31 -->
<g id="node31" class="node">
<title>Node31</title>
<g id="a_node31"><a xlink:href="../../d0/dfe/class_syntax_analyzer.html#adad79b2219ae143b49203a836713bec9" target="_top" xlink:title=" ">
<polygon fill="none" stroke="black" points="1658,-647.11 1658,-666.11 1818,-666.11 1818,-647.11 1658,-647.11"/>
<text text-anchor="middle" x="1738" y="-654.11" font-family="Helvetica,sans-Serif" font-size="10.00">SyntaxAnalyzer::syntaxConstDecl</text>
</a>
</g>
</g>
<!-- Node30&#45;&gt;Node31 -->
<g id="edge87" class="edge">
<title>Node30&#45;&gt;Node31</title>
<path fill="none" stroke="midnightblue" d="M1558.9,-490.32C1589.6,-518.98 1680.07,-603.45 1718.93,-639.73"/>
<polygon fill="midnightblue" stroke="midnightblue" points="1716.7,-642.44 1726.4,-646.7 1721.48,-637.32 1716.7,-642.44"/>
</g>
<!-- Node31&#45;&gt;Node2 -->
<g id="edge88" class="edge">
<title>Node31&#45;&gt;Node2</title>
<path fill="none" stroke="midnightblue" d="M1806.85,-666.2C1811.02,-668.74 1814.81,-671.83 1818,-675.61 1856.22,-720.87 1845.14,-1149.02 1854,-1207.61 1867,-1293.6 1894.73,-1393.81 1906.75,-1435.2"/>
<polygon fill="midnightblue" stroke="midnightblue" points="1903.4,-1436.22 1909.57,-1444.84 1910.12,-1434.26 1903.4,-1436.22"/>
</g>
<!-- Node31&#45;&gt;Node7 -->
<g id="edge89" class="edge">
<title>Node31&#45;&gt;Node7</title>
<path fill="none" stroke="midnightblue" d="M1748.02,-647.03C1763.79,-629.94 1796.69,-592.58 1818,-556.61 1860,-485.69 1893.09,-392.62 1906.29,-352.91"/>
<polygon fill="midnightblue" stroke="midnightblue" points="1909.62,-353.98 1909.41,-343.39 1902.97,-351.8 1909.62,-353.98"/>
</g>
<!-- Node31&#45;&gt;Node8 -->
<g id="edge91" class="edge">
<title>Node31&#45;&gt;Node8</title>
<path fill="none" stroke="midnightblue" d="M1803.51,-647.09C1853.32,-643.04 1922.11,-644.95 1973,-675.61 2031.46,-710.82 2063.89,-790.76 2076.19,-827.5"/>
<polygon fill="midnightblue" stroke="midnightblue" points="2072.86,-828.58 2079.24,-837.03 2079.52,-826.44 2072.86,-828.58"/>
</g>
<!-- Node31&#45;&gt;Node10 -->
<g id="edge92" class="edge">
<title>Node31&#45;&gt;Node10</title>
<path fill="none" stroke="midnightblue" d="M1782.78,-666.19C1805.99,-671.28 1834.68,-677.56 1859.17,-682.93"/>
<polygon fill="midnightblue" stroke="midnightblue" points="1858.52,-686.36 1869.03,-685.09 1860.01,-679.53 1858.52,-686.36"/>
</g>
<!-- Node31&#45;&gt;Node21 -->
<g id="edge90" class="edge">
<title>Node31&#45;&gt;Node21</title>
<path fill="none" stroke="midnightblue" d="M1782.78,-647.02C1805.99,-641.93 1834.68,-635.65 1859.17,-630.28"/>
<polygon fill="midnightblue" stroke="midnightblue" points="1860.01,-633.68 1869.03,-628.13 1858.52,-626.85 1860.01,-633.68"/>
</g>
<!-- Node32&#45;&gt;Node7 -->
<g id="edge94" class="edge">
<title>Node32&#45;&gt;Node7</title>
<path fill="none" stroke="midnightblue" d="M1374.82,-346.72C1391.57,-315.95 1443.9,-222.9 1473,-205.61 1544.06,-163.38 1575.45,-190.83 1658,-186.61 1729.02,-182.97 1755.58,-152.53 1818,-186.61 1868.24,-214.03 1895.76,-280.88 1906.75,-314.14"/>
<polygon fill="midnightblue" stroke="midnightblue" points="1903.52,-315.54 1909.86,-324.03 1910.2,-313.44 1903.52,-315.54"/>
</g>
<!-- Node32&#45;&gt;Node8 -->
<g id="edge95" class="edge">
<title>Node32&#45;&gt;Node8</title>
<path fill="none" stroke="midnightblue" d="M1436.38,-350.72C1559.23,-343.78 1822.05,-347.53 1973,-486.61 2074.97,-580.55 2082.77,-766.29 2082.47,-826.94"/>
<polygon fill="midnightblue" stroke="midnightblue" points="2078.97,-827.01 2082.33,-837.05 2085.97,-827.1 2078.97,-827.01"/>
</g>
<!-- Node33 -->
<g id="node33" class="node">
<title>Node33</title>
<g id="a_node33"><a xlink:href="../../d0/dfe/class_syntax_analyzer.html#a8f6dda26a96ec0e5e75bea5eed577856" target="_top" xlink:title=" ">
<polygon fill="none" stroke="black" points="1473,-571.11 1473,-590.11 1622,-590.11 1622,-571.11 1473,-571.11"/>
<text text-anchor="middle" x="1547.5" y="-578.11" font-family="Helvetica,sans-Serif" font-size="10.00">SyntaxAnalyzer::syntaxVarDecl</text>
</a>
</g>
</g>
<!-- Node32&#45;&gt;Node33 -->
<g id="edge96" class="edge">
<title>Node32&#45;&gt;Node33</title>
<path fill="none" stroke="midnightblue" d="M1375.93,-366.24C1391.69,-389.68 1433.8,-451.3 1473,-499.61 1491.54,-522.46 1514.57,-547.33 1529.86,-563.4"/>
<polygon fill="midnightblue" stroke="midnightblue" points="1527.64,-566.14 1537.08,-570.94 1532.7,-561.3 1527.64,-566.14"/>
</g>
<!-- Node33&#45;&gt;Node2 -->
<g id="edge97" class="edge">
<title>Node33&#45;&gt;Node2</title>
<path fill="none" stroke="midnightblue" d="M1549.3,-590.19C1555.1,-658.11 1592.42,-1066.79 1658,-1169.61 1704.95,-1243.22 1759.88,-1218.44 1818,-1283.61 1860.58,-1331.35 1891.71,-1401.55 1905.15,-1435.21"/>
<polygon fill="midnightblue" stroke="midnightblue" points="1901.99,-1436.74 1908.89,-1444.78 1908.51,-1434.19 1901.99,-1436.74"/>
</g>
<!-- Node33&#45;&gt;Node7 -->
<g id="edge98" class="edge">
<title>Node33&#45;&gt;Node7</title>
<path fill="none" stroke="midnightblue" d="M1568.42,-571.03C1614.47,-548.48 1730.98,-488.97 1818,-423.61 1848.12,-400.98 1878.97,-369.79 1896.9,-350.69"/>
<polygon fill="midnightblue" stroke="midnightblue" points="1899.52,-353.02 1903.76,-343.31 1894.39,-348.26 1899.52,-353.02"/>
</g>
<!-- Node33&#45;&gt;Node8 -->
<g id="edge99" class="edge">
<title>Node33&#45;&gt;Node8</title>
<path fill="none" stroke="midnightblue" d="M1582.78,-571.05C1660.15,-551.65 1851.07,-516.2 1973,-599.61 2051.97,-653.63 2074.31,-778.55 2080.12,-826.95"/>
<polygon fill="midnightblue" stroke="midnightblue" points="2076.65,-827.48 2081.21,-837.04 2083.61,-826.72 2076.65,-827.48"/>
</g>
<!-- Node34 -->
<g id="node34" class="node">
<title>Node34</title>
<g id="a_node34"><a xlink:href="../../d0/dfe/class_syntax_analyzer.html#a5d262eb9e2236dde3bd043eea0b0e957" target="_top" xlink:title=" ">
<polygon fill="none" stroke="black" points="1659,-685.11 1659,-704.11 1817,-704.11 1817,-685.11 1659,-685.11"/>
<text text-anchor="middle" x="1738" y="-692.11" font-family="Helvetica,sans-Serif" font-size="10.00">SyntaxAnalyzer::syntaxTypeSpec</text>
</a>
</g>
</g>
<!-- Node33&#45;&gt;Node34 -->
<g id="edge100" class="edge">
<title>Node33&#45;&gt;Node34</title>
<path fill="none" stroke="midnightblue" d="M1562.96,-590.17C1578.27,-600.58 1602.82,-618.08 1622,-635.61 1639.66,-651.74 1637.45,-663.37 1658,-675.61 1661.68,-677.8 1665.6,-679.74 1669.65,-681.45"/>
<polygon fill="midnightblue" stroke="midnightblue" points="1668.7,-684.83 1679.29,-685.06 1671.15,-678.28 1668.7,-684.83"/>
</g>
<!-- Node34&#45;&gt;Node2 -->
<g id="edge101" class="edge">
<title>Node34&#45;&gt;Node2</title>
<path fill="none" stroke="midnightblue" d="M1743.66,-704.34C1757.5,-733.67 1798.57,-824.1 1818,-903.61 1850.29,-1035.77 1830.28,-1073.63 1854,-1207.61 1869.16,-1293.25 1895.72,-1393.65 1907.08,-1435.15"/>
<polygon fill="midnightblue" stroke="midnightblue" points="1903.72,-1436.1 1909.75,-1444.81 1910.46,-1434.24 1903.72,-1436.1"/>
</g>
<!-- Node34&#45;&gt;Node8 -->
<g id="edge103" class="edge">
<title>Node34&#45;&gt;Node8</title>
<path fill="none" stroke="midnightblue" d="M1804.28,-704.13C1852.79,-713.01 1919.54,-729.14 1973,-756.61 2010.19,-775.71 2046.16,-809.25 2066.06,-829.55"/>
<polygon fill="midnightblue" stroke="midnightblue" points="2063.64,-832.09 2073.1,-836.87 2068.69,-827.24 2063.64,-832.09"/>
</g>
<!-- Node34&#45;&gt;Node21 -->
<g id="edge102" class="edge">
<title>Node34&#45;&gt;Node21</title>
<path fill="none" stroke="midnightblue" d="M1789.04,-685.03C1798.82,-682.47 1808.86,-679.35 1818,-675.61 1844.66,-664.67 1872.61,-646.91 1891.13,-634.12"/>
<polygon fill="midnightblue" stroke="midnightblue" points="1893.25,-636.91 1899.42,-628.29 1889.23,-631.18 1893.25,-636.91"/>
</g>
</g>
</svg>
