<?xml version="1.0" encoding="UTF-8" standalone="no"?>
<!DOCTYPE svg PUBLIC "-//W3C//DTD SVG 1.1//EN"
 "http://www.w3.org/Graphics/SVG/1.1/DTD/svg11.dtd">
<!-- Generated by graphviz version 3.0.0 (20220413.0106)
 -->
<!-- Title: SyntaxAnalyzer::syntaxBlock Pages: 1 -->
<svg width="2510pt" height="2274pt"
 viewBox="0.00 0.00 2510.00 2274.10" xmlns="http://www.w3.org/2000/svg" xmlns:xlink="http://www.w3.org/1999/xlink">
<g id="graph0" class="graph" transform="scale(1 1) rotate(0) translate(4 2270.1)">
<title>SyntaxAnalyzer::syntaxBlock</title>
<!-- Node1 -->
<g id="node1" class="node">
<title>Node1</title>
<g id="a_node1"><a xlink:title=" ">
<polygon fill="#bfbfbf" stroke="black" points="0,-261.6 0,-280.6 140,-280.6 140,-261.6 0,-261.6"/>
<text text-anchor="middle" x="70" y="-268.6" font-family="Helvetica,sans-Serif" font-size="10.00">SyntaxAnalyzer::syntaxBlock</text>
</a>
</g>
</g>
<!-- Node2 -->
<g id="node2" class="node">
<title>Node2</title>
<g id="a_node2"><a xlink:href="../../d7/d7c/class_a_s_t_factory.html#a8d1d4c9d01ab2e366d1af6bbaeaf7bef" target="_top" xlink:title=" ">
<polygon fill="none" stroke="black" points="2199,-1629.6 2199,-1648.6 2318,-1648.6 2318,-1629.6 2199,-1629.6"/>
<text text-anchor="middle" x="2258.5" y="-1636.6" font-family="Helvetica,sans-Serif" font-size="10.00">ASTFactory::createAST</text>
</a>
</g>
</g>
<!-- Node1&#45;&gt;Node2 -->
<g id="edge1" class="edge">
<title>Node1&#45;&gt;Node2</title>
<path fill="none" stroke="midnightblue" d="M71.86,-280.97C84.88,-428.88 244.23,-2190.1 452.5,-2190.1 452.5,-2190.1 452.5,-2190.1 1528,-2190.1 1820.39,-2190.1 1967.92,-2235.9 2163,-2018.1 2211.05,-1964.45 2181.78,-1930.03 2199,-1860.1 2217.39,-1785.39 2241.48,-1697.09 2252.08,-1658.63"/>
<polygon fill="midnightblue" stroke="midnightblue" points="2255.52,-1659.33 2254.81,-1648.76 2248.78,-1657.47 2255.52,-1659.33"/>
</g>
<!-- Node6 -->
<g id="node6" class="node">
<title>Node6</title>
<g id="a_node6"><a xlink:href="../../d0/dfe/class_syntax_analyzer.html#a5770afdc4d32d2c38550f27f9ffd949a" target="_top" xlink:title=" ">
<polygon fill="none" stroke="black" points="176,-318.6 176,-337.6 347,-337.6 347,-318.6 176,-318.6"/>
<text text-anchor="middle" x="261.5" y="-325.6" font-family="Helvetica,sans-Serif" font-size="10.00">SyntaxAnalyzer::syntaxCompoundSt</text>
</a>
</g>
</g>
<!-- Node1&#45;&gt;Node6 -->
<g id="edge5" class="edge">
<title>Node1&#45;&gt;Node6</title>
<path fill="none" stroke="midnightblue" d="M102.72,-280.64C134.56,-290.22 183.77,-305.02 218.76,-315.54"/>
<polygon fill="midnightblue" stroke="midnightblue" points="218.09,-319 228.68,-318.53 220.11,-312.29 218.09,-319"/>
</g>
<!-- Node30 -->
<g id="node30" class="node">
<title>Node30</title>
<g id="a_node30"><a xlink:href="../../d0/dfe/class_syntax_analyzer.html#a58a0f927ad0a45e4ce837a98e98330aa" target="_top" xlink:title=" ">
<polygon fill="none" stroke="black" points="1819.5,-719.6 1819.5,-738.6 1965.5,-738.6 1965.5,-719.6 1819.5,-719.6"/>
<text text-anchor="middle" x="1892.5" y="-726.6" font-family="Helvetica,sans-Serif" font-size="10.00">SyntaxAnalyzer::syntaxConsts</text>
</a>
</g>
</g>
<!-- Node1&#45;&gt;Node30 -->
<g id="edge98" class="edge">
<title>Node1&#45;&gt;Node30</title>
<path fill="none" stroke="midnightblue" d="M140.1,-269.57C228.96,-267.95 388.03,-266.24 524,-271.1 642.23,-275.32 671.2,-290.1 789.5,-290.1 789.5,-290.1 789.5,-290.1 973,-290.1 1167.07,-290.1 1228.97,-241.63 1409,-314.1 1633.18,-404.33 1826.49,-643.3 1878.04,-710.99"/>
<polygon fill="midnightblue" stroke="midnightblue" points="1875.55,-713.5 1884.36,-719.38 1881.14,-709.28 1875.55,-713.5"/>
</g>
<!-- Node32 -->
<g id="node32" class="node">
<title>Node32</title>
<g id="a_node32"><a xlink:href="../../d0/dfe/class_syntax_analyzer.html#a738f9b4cb7edf93c56af1b6974caad1a" target="_top" xlink:title=" ">
<polygon fill="none" stroke="black" points="1646,-699.6 1646,-718.6 1781,-718.6 1781,-699.6 1646,-699.6"/>
<text text-anchor="middle" x="1713.5" y="-706.6" font-family="Helvetica,sans-Serif" font-size="10.00">SyntaxAnalyzer::syntaxVars</text>
</a>
</g>
</g>
<!-- Node1&#45;&gt;Node32 -->
<g id="edge107" class="edge">
<title>Node1&#45;&gt;Node32</title>
<path fill="none" stroke="midnightblue" d="M79.99,-261.58C119.6,-220.69 284.09,-62.1 452.5,-62.1 452.5,-62.1 452.5,-62.1 623.5,-62.1 990.14,-62.1 1109.13,-103.15 1409,-314.1 1448.17,-341.66 1646.81,-617.3 1699.6,-691.04"/>
<polygon fill="midnightblue" stroke="midnightblue" points="1696.89,-693.26 1705.55,-699.36 1702.58,-689.19 1696.89,-693.26"/>
</g>
<!-- Node3 -->
<g id="node3" class="node">
<title>Node3</title>
<g id="a_node3"><a xlink:href="../../d0/d11/class_i_token.html#a3e73305ee0ac36d0bf5f26b649589b24" target="_top" xlink:title=" ">
<polygon fill="none" stroke="black" points="2376.5,-869.6 2376.5,-888.6 2479.5,-888.6 2479.5,-869.6 2376.5,-869.6"/>
<text text-anchor="middle" x="2428" y="-876.6" font-family="Helvetica,sans-Serif" font-size="10.00">IToken::getAdvType</text>
</a>
</g>
</g>
<!-- Node2&#45;&gt;Node3 -->
<g id="edge2" class="edge">
<title>Node2&#45;&gt;Node3</title>
<path fill="none" stroke="midnightblue" d="M2262.57,-1629.21C2272.24,-1597.7 2302.32,-1496.72 2318,-1411.1 2344.01,-1269.02 2321.98,-1228.95 2354,-1088.1 2370.36,-1016.12 2403.26,-934.52 2418.67,-898.24"/>
<polygon fill="midnightblue" stroke="midnightblue" points="2421.96,-899.44 2422.69,-888.87 2415.53,-896.68 2421.96,-899.44"/>
</g>
<!-- Node4 -->
<g id="node4" class="node">
<title>Node4</title>
<g id="a_node4"><a xlink:href="../../d0/d11/class_i_token.html#ac7f0a800d7a9e8608bab0360c76d735a" target="_top" xlink:title="Получение типа токена">
<polygon fill="none" stroke="black" points="2385,-1572.6 2385,-1591.6 2471,-1591.6 2471,-1572.6 2385,-1572.6"/>
<text text-anchor="middle" x="2428" y="-1579.6" font-family="Helvetica,sans-Serif" font-size="10.00">IToken::getType</text>
</a>
</g>
</g>
<!-- Node2&#45;&gt;Node4 -->
<g id="edge3" class="edge">
<title>Node2&#45;&gt;Node4</title>
<path fill="none" stroke="midnightblue" d="M2287.54,-1629.56C2315.44,-1620.06 2358.43,-1605.43 2389.31,-1594.92"/>
<polygon fill="midnightblue" stroke="midnightblue" points="2390.53,-1598.21 2398.87,-1591.67 2388.28,-1591.58 2390.53,-1598.21"/>
</g>
<!-- Node5 -->
<g id="node5" class="node">
<title>Node5</title>
<g id="a_node5"><a xlink:href="../../db/dc1/class_token.html#a1f07fa2fffeb2f7ab803ef8b424eae8a" target="_top" xlink:title=" ">
<polygon fill="none" stroke="black" points="2391,-1629.6 2391,-1648.6 2465,-1648.6 2465,-1629.6 2391,-1629.6"/>
<text text-anchor="middle" x="2428" y="-1636.6" font-family="Helvetica,sans-Serif" font-size="10.00">Token::setStr</text>
</a>
</g>
</g>
<!-- Node2&#45;&gt;Node5 -->
<g id="edge4" class="edge">
<title>Node2&#45;&gt;Node5</title>
<path fill="none" stroke="midnightblue" d="M2318.08,-1639.1C2338.56,-1639.1 2361.24,-1639.1 2380.58,-1639.1"/>
<polygon fill="midnightblue" stroke="midnightblue" points="2380.66,-1642.6 2390.65,-1639.1 2380.65,-1635.6 2380.66,-1642.6"/>
</g>
<!-- Node6&#45;&gt;Node2 -->
<g id="edge6" class="edge">
<title>Node6&#45;&gt;Node2</title>
<path fill="none" stroke="midnightblue" d="M263.36,-337.71C276.04,-478.29 427.78,-2114.1 621.5,-2114.1 621.5,-2114.1 621.5,-2114.1 1162.5,-2114.1 1387.35,-2114.1 2010.48,-2128.31 2163,-1963.1 2225.45,-1895.45 2170.55,-1846.66 2199,-1759.1 2211.28,-1721.3 2233.36,-1680.29 2246.6,-1657.33"/>
<polygon fill="midnightblue" stroke="midnightblue" points="2249.65,-1659.06 2251.68,-1648.66 2243.6,-1655.52 2249.65,-1659.06"/>
</g>
<!-- Node7 -->
<g id="node7" class="node">
<title>Node7</title>
<g id="a_node7"><a xlink:href="../../d0/dfe/class_syntax_analyzer.html#ae1d3434e5cc4b4bcd5a3a245814a44f0" target="_top" xlink:title=" ">
<polygon fill="none" stroke="black" points="2208,-508.6 2208,-527.6 2309,-527.6 2309,-508.6 2208,-508.6"/>
<text text-anchor="middle" x="2258.5" y="-515.6" font-family="Helvetica,sans-Serif" font-size="10.00">SyntaxAnalyzer::eat</text>
</a>
</g>
</g>
<!-- Node6&#45;&gt;Node7 -->
<g id="edge7" class="edge">
<title>Node6&#45;&gt;Node7</title>
<path fill="none" stroke="midnightblue" d="M271.08,-318.33C317.79,-266.29 548.15,-24.1 789.5,-24.1 789.5,-24.1 789.5,-24.1 1714.5,-24.1 1915.33,-24.1 2014.75,56.37 2163,-79.1 2226.36,-137 2250.64,-420.09 2256.19,-498.14"/>
<polygon fill="midnightblue" stroke="midnightblue" points="2252.72,-498.74 2256.9,-508.48 2259.71,-498.26 2252.72,-498.74"/>
</g>
<!-- Node8 -->
<g id="node8" class="node">
<title>Node8</title>
<g id="a_node8"><a xlink:href="../../d0/dfe/class_syntax_analyzer.html#a3ae6c7319e61cd669c417f189b098374" target="_top" xlink:title=" ">
<polygon fill="none" stroke="black" points="2362,-1097.6 2362,-1116.6 2494,-1116.6 2494,-1097.6 2362,-1097.6"/>
<text text-anchor="middle" x="2428" y="-1104.6" font-family="Helvetica,sans-Serif" font-size="10.00">SyntaxAnalyzer::getCurTok</text>
</a>
</g>
</g>
<!-- Node6&#45;&gt;Node8 -->
<g id="edge10" class="edge">
<title>Node6&#45;&gt;Node8</title>
<path fill="none" stroke="midnightblue" d="M262.42,-337.88C261.62,-468.48 260.13,-1867.08 560,-2102.1 607.21,-2139.1 692.29,-2266.1 1712.5,-2266.1 1712.5,-2266.1 1712.5,-2266.1 2084,-2266.1 2229.52,-2266.1 2256.55,-2169 2318,-2037.1 2362.61,-1941.34 2341.64,-1668.01 2354,-1563.1 2374,-1393.32 2411.33,-1190.01 2423.24,-1126.81"/>
<polygon fill="midnightblue" stroke="midnightblue" points="2426.74,-1127.16 2425.16,-1116.68 2419.86,-1125.86 2426.74,-1127.16"/>
</g>
<!-- Node10 -->
<g id="node10" class="node">
<title>Node10</title>
<g id="a_node10"><a xlink:href="../../d0/d11/class_i_token.html#a4fa3435db7157ca7316d4e4aee1df4c0" target="_top" xlink:title="Устанавливает дополнительный тип токена">
<polygon fill="none" stroke="black" points="2207,-926.6 2207,-945.6 2310,-945.6 2310,-926.6 2207,-926.6"/>
<text text-anchor="middle" x="2258.5" y="-933.6" font-family="Helvetica,sans-Serif" font-size="10.00">IToken::setAdvType</text>
</a>
</g>
</g>
<!-- Node6&#45;&gt;Node10 -->
<g id="edge11" class="edge">
<title>Node6&#45;&gt;Node10</title>
<path fill="none" stroke="midnightblue" d="M347,-328.1C419.75,-328.1 527.54,-328.1 621.5,-328.1 621.5,-328.1 621.5,-328.1 1162.5,-328.1 1441.05,-328.1 1410.93,-577.1 1645,-728.1 1778.79,-814.41 1834.71,-796.5 1967,-885.1 1984.79,-897.01 1983.29,-908.75 2003,-917.1 2065.16,-943.42 2143.46,-945.14 2196.69,-942.22"/>
<polygon fill="midnightblue" stroke="midnightblue" points="2197.22,-945.7 2206.98,-941.58 2196.79,-938.71 2197.22,-945.7"/>
</g>
<!-- Node11 -->
<g id="node11" class="node">
<title>Node11</title>
<g id="a_node11"><a xlink:href="../../d0/dfe/class_syntax_analyzer.html#a6df61a82ef9de3c17b78be89a321a087" target="_top" xlink:title=" ">
<polygon fill="none" stroke="black" points="383,-280.6 383,-299.6 524,-299.6 524,-280.6 383,-280.6"/>
<text text-anchor="middle" x="453.5" y="-287.6" font-family="Helvetica,sans-Serif" font-size="10.00">SyntaxAnalyzer::syntaxStList</text>
</a>
</g>
</g>
<!-- Node6&#45;&gt;Node11 -->
<g id="edge12" class="edge">
<title>Node6&#45;&gt;Node11</title>
<path fill="none" stroke="midnightblue" d="M310.45,-318.51C336.08,-313.38 367.84,-307.03 394.82,-301.64"/>
<polygon fill="midnightblue" stroke="midnightblue" points="395.78,-305.01 404.9,-299.62 394.41,-298.15 395.78,-305.01"/>
</g>
<!-- Node7&#45;&gt;Node8 -->
<g id="edge8" class="edge">
<title>Node7&#45;&gt;Node8</title>
<path fill="none" stroke="midnightblue" d="M2299.39,-527.65C2306.58,-531.09 2313.27,-535.76 2318,-542.1 2365.56,-605.82 2336.77,-820.47 2354,-898.1 2369.99,-970.16 2403.07,-1051.72 2418.6,-1087.97"/>
<polygon fill="midnightblue" stroke="midnightblue" points="2415.47,-1089.55 2422.65,-1097.33 2421.89,-1086.77 2415.47,-1089.55"/>
</g>
<!-- Node9 -->
<g id="node9" class="node">
<title>Node9</title>
<g id="a_node9"><a xlink:href="../../d0/dfe/class_syntax_analyzer.html#a9e41370d8d74fbd2e77648d2071e7dfe" target="_top" xlink:title=" ">
<polygon fill="none" stroke="black" points="2354,-584.6 2354,-603.6 2502,-603.6 2502,-584.6 2354,-584.6"/>
<text text-anchor="middle" x="2428" y="-591.6" font-family="Helvetica,sans-Serif" font-size="10.00">SyntaxAnalyzer::getNextToken</text>
</a>
</g>
</g>
<!-- Node7&#45;&gt;Node9 -->
<g id="edge9" class="edge">
<title>Node7&#45;&gt;Node9</title>
<path fill="none" stroke="midnightblue" d="M2283.54,-527.61C2294.16,-531.9 2306.76,-537.12 2318,-542.1 2345.72,-554.38 2376.9,-569.38 2398.79,-580.11"/>
<polygon fill="midnightblue" stroke="midnightblue" points="2397.34,-583.29 2407.85,-584.57 2400.43,-577.01 2397.34,-583.29"/>
</g>
<!-- Node11&#45;&gt;Node7 -->
<g id="edge13" class="edge">
<title>Node11&#45;&gt;Node7</title>
<path fill="none" stroke="midnightblue" d="M489.38,-280.54C500.76,-276.77 513.23,-271.94 524,-266.1 541.82,-256.44 541.96,-247.33 560,-238.1 807.57,-111.38 882.38,-62.1 1160.5,-62.1 1160.5,-62.1 1160.5,-62.1 1714.5,-62.1 1921.55,-62.1 2016.23,-42.06 2163,-188.1 2251.53,-276.19 2258.44,-441.19 2258.04,-498.16"/>
<polygon fill="midnightblue" stroke="midnightblue" points="2254.54,-498.28 2257.88,-508.33 2261.54,-498.39 2254.54,-498.28"/>
</g>
<!-- Node11&#45;&gt;Node8 -->
<g id="edge14" class="edge">
<title>Node11&#45;&gt;Node8</title>
<path fill="none" stroke="midnightblue" d="M506.23,-280.56C571.87,-269.3 688.68,-252.1 789.5,-252.1 789.5,-252.1 789.5,-252.1 973,-252.1 1091.39,-252.1 1121.26,-250.44 1239,-238.1 1420.68,-219.05 1463.15,-191.41 1645,-174.1 1803.48,-159.01 1843.82,-164.77 2003,-162.1 2143.7,-159.74 2226.36,-87.3 2318,-194.1 2369,-253.54 2338.93,-821.24 2354,-898.1 2368.2,-970.53 2402.18,-1051.91 2418.27,-1088.04"/>
<polygon fill="midnightblue" stroke="midnightblue" points="2415.17,-1089.69 2422.47,-1097.37 2421.55,-1086.82 2415.17,-1089.69"/>
</g>
<!-- Node12 -->
<g id="node12" class="node">
<title>Node12</title>
<g id="a_node12"><a xlink:href="../../d0/dfe/class_syntax_analyzer.html#a7f54bde730006b1b863290415809ab4e" target="_top" xlink:title=" ">
<polygon fill="none" stroke="black" points="560,-1002.6 560,-1021.6 685,-1021.6 685,-1002.6 560,-1002.6"/>
<text text-anchor="middle" x="622.5" y="-1009.6" font-family="Helvetica,sans-Serif" font-size="10.00">SyntaxAnalyzer::syntaxSt</text>
</a>
</g>
</g>
<!-- Node11&#45;&gt;Node12 -->
<g id="edge15" class="edge">
<title>Node11&#45;&gt;Node12</title>
<path fill="none" stroke="midnightblue" d="M456.73,-299.76C474.45,-376.37 592.22,-885.53 616.95,-992.43"/>
<polygon fill="midnightblue" stroke="midnightblue" points="613.61,-993.52 619.27,-1002.47 620.43,-991.94 613.61,-993.52"/>
</g>
<!-- Node12&#45;&gt;Node6 -->
<g id="edge65" class="edge">
<title>Node12&#45;&gt;Node6</title>
<path fill="none" stroke="midnightblue" d="M616.35,-1002.29C577.12,-927.55 325.42,-447.99 272.33,-346.82"/>
<polygon fill="midnightblue" stroke="midnightblue" points="275.32,-345 267.57,-337.77 269.12,-348.25 275.32,-345"/>
</g>
<!-- Node12&#45;&gt;Node7 -->
<g id="edge16" class="edge">
<title>Node12&#45;&gt;Node7</title>
<path fill="none" stroke="midnightblue" d="M627.01,-1002.56C652.45,-934.73 815.18,-522.09 1084,-312.1 1154.89,-256.72 1187.07,-264.09 1275,-245.1 1467.89,-203.44 2004.99,-125.89 2163,-244.1 2184.43,-260.13 2235.51,-438.77 2252.16,-498.66"/>
<polygon fill="midnightblue" stroke="midnightblue" points="2248.81,-499.69 2254.85,-508.39 2255.56,-497.82 2248.81,-499.69"/>
</g>
<!-- Node12&#45;&gt;Node8 -->
<g id="edge17" class="edge">
<title>Node12&#45;&gt;Node8</title>
<path fill="none" stroke="midnightblue" d="M623.97,-1021.76C628.57,-1114.79 666.53,-1850.1 721,-1929.1 845.33,-2109.43 941.46,-2152.1 1160.5,-2152.1 1160.5,-2152.1 1160.5,-2152.1 1528,-2152.1 1890.19,-2152.1 2141.74,-2268.51 2318,-1952.1 2360.25,-1876.26 2343.13,-1649.23 2354,-1563.1 2375.4,-1393.49 2411.8,-1190.07 2423.36,-1126.83"/>
<polygon fill="midnightblue" stroke="midnightblue" points="2426.86,-1127.16 2425.22,-1116.69 2419.97,-1125.9 2426.86,-1127.16"/>
</g>
<!-- Node13 -->
<g id="node13" class="node">
<title>Node13</title>
<g id="a_node13"><a xlink:href="../../d0/dfe/class_syntax_analyzer.html#af0905389742c4f842207bb2c073afbfa" target="_top" xlink:title=" ">
<polygon fill="none" stroke="black" points="2014.5,-1382.6 2014.5,-1401.6 2151.5,-1401.6 2151.5,-1382.6 2014.5,-1382.6"/>
<text text-anchor="middle" x="2083" y="-1389.6" font-family="Helvetica,sans-Serif" font-size="10.00">SyntaxAnalyzer::lookFoward</text>
</a>
</g>
</g>
<!-- Node12&#45;&gt;Node13 -->
<g id="edge18" class="edge">
<title>Node12&#45;&gt;Node13</title>
<path fill="none" stroke="midnightblue" d="M635.51,-1021.88C706.61,-1079.06 1081.59,-1370.72 1445,-1464.1 1668.83,-1521.61 1948.66,-1438.45 2046.37,-1404.99"/>
<polygon fill="midnightblue" stroke="midnightblue" points="2047.75,-1408.21 2056.05,-1401.63 2045.46,-1401.6 2047.75,-1408.21"/>
</g>
<!-- Node15 -->
<g id="node15" class="node">
<title>Node15</title>
<g id="a_node15"><a xlink:href="../../d0/dfe/class_syntax_analyzer.html#a31fc5887c158652feb946f89270b4b36" target="_top" xlink:title=" ">
<polygon fill="none" stroke="black" points="1084,-888.6 1084,-907.6 1239,-907.6 1239,-888.6 1084,-888.6"/>
<text text-anchor="middle" x="1161.5" y="-895.6" font-family="Helvetica,sans-Serif" font-size="10.00">SyntaxAnalyzer::syntaxAssignSt</text>
</a>
</g>
</g>
<!-- Node12&#45;&gt;Node15 -->
<g id="edge20" class="edge">
<title>Node12&#45;&gt;Node15</title>
<path fill="none" stroke="midnightblue" d="M668.36,-1002.58C766.28,-981.79 998.92,-932.4 1105.48,-909.78"/>
<polygon fill="midnightblue" stroke="midnightblue" points="1106.33,-913.18 1115.39,-907.68 1104.88,-906.33 1106.33,-913.18"/>
</g>
<!-- Node22 -->
<g id="node22" class="node">
<title>Node22</title>
<g id="a_node22"><a xlink:href="../../d0/dfe/class_syntax_analyzer.html#a2db43946bee3e973ce1cf293b262e271" target="_top" xlink:title=" ">
<polygon fill="none" stroke="black" points="2012.5,-1078.6 2012.5,-1097.6 2153.5,-1097.6 2153.5,-1078.6 2012.5,-1078.6"/>
<text text-anchor="middle" x="2083" y="-1085.6" font-family="Helvetica,sans-Serif" font-size="10.00">SyntaxAnalyzer::syntaxCallSt</text>
</a>
</g>
</g>
<!-- Node12&#45;&gt;Node22 -->
<g id="edge64" class="edge">
<title>Node12&#45;&gt;Node22</title>
<path fill="none" stroke="midnightblue" d="M663.09,-1021.61C680.71,-1025.37 701.77,-1029.24 721,-1031.1 782.49,-1037.03 798.23,-1031.98 860,-1031.1 1156.09,-1026.88 1229.88,-1012.1 1526,-1012.1 1526,-1012.1 1526,-1012.1 1714.5,-1012.1 1776.87,-1012.1 1951.52,-1054.61 2035.61,-1076.05"/>
<polygon fill="midnightblue" stroke="midnightblue" points="2034.84,-1079.46 2045.4,-1078.55 2036.58,-1072.68 2034.84,-1079.46"/>
</g>
<!-- Node24 -->
<g id="node24" class="node">
<title>Node24</title>
<g id="a_node24"><a xlink:href="../../d0/dfe/class_syntax_analyzer.html#a67bc7e3cfb57c9d4d25d60913aef3a87" target="_top" xlink:title=" ">
<polygon fill="none" stroke="black" points="896,-1973.6 896,-1992.6 1048,-1992.6 1048,-1973.6 896,-1973.6"/>
<text text-anchor="middle" x="972" y="-1980.6" font-family="Helvetica,sans-Serif" font-size="10.00">SyntaxAnalyzer::syntaxEmptySt</text>
</a>
</g>
</g>
<!-- Node12&#45;&gt;Node24 -->
<g id="edge66" class="edge">
<title>Node12&#45;&gt;Node24</title>
<path fill="none" stroke="midnightblue" d="M623.32,-1021.83C621.92,-1107.07 615.47,-1726.77 721,-1871.1 763.46,-1929.17 843.01,-1957.72 901.01,-1971.36"/>
<polygon fill="midnightblue" stroke="midnightblue" points="900.32,-1974.79 910.85,-1973.58 901.86,-1967.96 900.32,-1974.79"/>
</g>
<!-- Node25 -->
<g id="node25" class="node">
<title>Node25</title>
<g id="a_node25"><a xlink:href="../../d0/dfe/class_syntax_analyzer.html#a82e8472ea6d1064871de0d05eaa8b374" target="_top" xlink:title=" ">
<polygon fill="none" stroke="black" points="721,-1002.6 721,-1021.6 860,-1021.6 860,-1002.6 721,-1002.6"/>
<text text-anchor="middle" x="790.5" y="-1009.6" font-family="Helvetica,sans-Serif" font-size="10.00">SyntaxAnalyzer::syntaxForSt</text>
</a>
</g>
</g>
<!-- Node12&#45;&gt;Node25 -->
<g id="edge68" class="edge">
<title>Node12&#45;&gt;Node25</title>
<path fill="none" stroke="midnightblue" d="M685.31,-1005.55C693.66,-1005.39 702.31,-1005.32 710.91,-1005.36"/>
<polygon fill="midnightblue" stroke="midnightblue" points="710.91,-1008.86 720.94,-1005.44 710.97,-1001.86 710.91,-1008.86"/>
</g>
<!-- Node27 -->
<g id="node27" class="node">
<title>Node27</title>
<g id="a_node27"><a xlink:href="../../d0/dfe/class_syntax_analyzer.html#a779e006875d35926152773989f4b1e5a" target="_top" xlink:title=" ">
<polygon fill="none" stroke="black" points="1096,-841.6 1096,-860.6 1227,-860.6 1227,-841.6 1096,-841.6"/>
<text text-anchor="middle" x="1161.5" y="-848.6" font-family="Helvetica,sans-Serif" font-size="10.00">SyntaxAnalyzer::syntaxIfSt</text>
</a>
</g>
</g>
<!-- Node12&#45;&gt;Node27 -->
<g id="edge81" class="edge">
<title>Node12&#45;&gt;Node27</title>
<path fill="none" stroke="midnightblue" d="M630.75,-1002.35C646.5,-987.72 685.31,-963.04 721,-949.1 844.79,-900.76 996.97,-869.57 1085.92,-856.58"/>
<polygon fill="midnightblue" stroke="midnightblue" points="1086.5,-860.03 1095.91,-855.16 1085.52,-853.1 1086.5,-860.03"/>
</g>
<!-- Node28 -->
<g id="node28" class="node">
<title>Node28</title>
<g id="a_node28"><a xlink:href="../../d0/dfe/class_syntax_analyzer.html#a55e935b2aa7f20b66e9228e977582fcd" target="_top" xlink:title=" ">
<polygon fill="none" stroke="black" points="1085,-1752.6 1085,-1771.6 1238,-1771.6 1238,-1752.6 1085,-1752.6"/>
<text text-anchor="middle" x="1161.5" y="-1759.6" font-family="Helvetica,sans-Serif" font-size="10.00">SyntaxAnalyzer::syntaxReturnSt</text>
</a>
</g>
</g>
<!-- Node12&#45;&gt;Node28 -->
<g id="edge87" class="edge">
<title>Node12&#45;&gt;Node28</title>
<path fill="none" stroke="midnightblue" d="M624.05,-1021.6C628.91,-1103.38 665.42,-1686.75 721,-1738.1 832.5,-1841.13 1035.64,-1798.7 1121.03,-1774.53"/>
<polygon fill="midnightblue" stroke="midnightblue" points="1122.21,-1777.83 1130.84,-1771.68 1120.26,-1771.1 1122.21,-1777.83"/>
</g>
<!-- Node29 -->
<g id="node29" class="node">
<title>Node29</title>
<g id="a_node29"><a xlink:href="../../d0/dfe/class_syntax_analyzer.html#a64dad7f0b22b08d182483469d3a1aa79" target="_top" xlink:title=" ">
<polygon fill="none" stroke="black" points="1087,-1876.6 1087,-1895.6 1236,-1895.6 1236,-1876.6 1087,-1876.6"/>
<text text-anchor="middle" x="1161.5" y="-1883.6" font-family="Helvetica,sans-Serif" font-size="10.00">SyntaxAnalyzer::syntaxWhileSt</text>
</a>
</g>
</g>
<!-- Node12&#45;&gt;Node29 -->
<g id="edge92" class="edge">
<title>Node12&#45;&gt;Node29</title>
<path fill="none" stroke="midnightblue" d="M623.24,-1021.6C621.52,-1101.41 614.82,-1654.97 721,-1773.1 810.57,-1872.75 976.39,-1885.7 1076.75,-1885.98"/>
<polygon fill="midnightblue" stroke="midnightblue" points="1076.86,-1889.48 1086.86,-1885.96 1076.85,-1882.48 1076.86,-1889.48"/>
</g>
<!-- Node14 -->
<g id="node14" class="node">
<title>Node14</title>
<g id="a_node14"><a xlink:href="../../d1/d34/class_list.html#a49c179636e084dfbf7a52acd46acaf01" target="_top" xlink:title=" ">
<polygon fill="none" stroke="black" points="2231,-1382.6 2231,-1401.6 2286,-1401.6 2286,-1382.6 2231,-1382.6"/>
<text text-anchor="middle" x="2258.5" y="-1389.6" font-family="Helvetica,sans-Serif" font-size="10.00">List::size</text>
</a>
</g>
</g>
<!-- Node13&#45;&gt;Node14 -->
<g id="edge19" class="edge">
<title>Node13&#45;&gt;Node14</title>
<path fill="none" stroke="midnightblue" d="M2151.58,-1392.1C2174.97,-1392.1 2200.31,-1392.1 2220.35,-1392.1"/>
<polygon fill="midnightblue" stroke="midnightblue" points="2220.59,-1395.6 2230.59,-1392.1 2220.59,-1388.6 2220.59,-1395.6"/>
</g>
<!-- Node15&#45;&gt;Node2 -->
<g id="edge21" class="edge">
<title>Node15&#45;&gt;Node2</title>
<path fill="none" stroke="midnightblue" d="M1162.48,-907.77C1162.52,-988.66 1166.69,-1552.64 1275,-1672.1 1352.18,-1757.23 1411.09,-1734.1 1526,-1734.1 1526,-1734.1 1526,-1734.1 1893.5,-1734.1 2013.75,-1734.1 2050.74,-1753.2 2163,-1710.1 2194.07,-1698.17 2223.69,-1672.86 2241.24,-1655.92"/>
<polygon fill="midnightblue" stroke="midnightblue" points="2243.78,-1658.32 2248.41,-1648.79 2238.85,-1653.36 2243.78,-1658.32"/>
</g>
<!-- Node15&#45;&gt;Node7 -->
<g id="edge22" class="edge">
<title>Node15&#45;&gt;Node7</title>
<path fill="none" stroke="midnightblue" d="M1213.41,-888.48C1223.25,-884.36 1232.51,-878.48 1239,-870.1 1339.08,-740.87 1171.59,-630.68 1275,-504.1 1281.8,-495.77 1634.37,-391.7 1645,-390.1 1758.83,-372.96 2060.24,-338.23 2163,-390.1 2208.44,-413.03 2237.43,-469.27 2250.1,-498.99"/>
<polygon fill="midnightblue" stroke="midnightblue" points="2246.88,-500.36 2253.91,-508.29 2253.36,-497.71 2246.88,-500.36"/>
</g>
<!-- Node15&#45;&gt;Node8 -->
<g id="edge23" class="edge">
<title>Node15&#45;&gt;Node8</title>
<path fill="none" stroke="midnightblue" d="M1189.93,-888.56C1204.58,-883.34 1222.87,-876.62 1239,-870.1 1422,-796.14 1451.9,-730.99 1645,-690.1 1938.37,-627.98 2098.26,-534.05 2318,-738.1 2371.41,-787.7 2333.95,-828.02 2354,-898.1 2374.3,-969.06 2405.23,-1051.17 2419.41,-1087.77"/>
<polygon fill="midnightblue" stroke="midnightblue" points="2416.2,-1089.18 2423.09,-1097.22 2422.72,-1086.63 2416.2,-1089.18"/>
</g>
<!-- Node16 -->
<g id="node16" class="node">
<title>Node16</title>
<g id="a_node16"><a xlink:href="../../d0/dfe/class_syntax_analyzer.html#ae8d09db1b25ec882248aeed978c13a4d" target="_top" xlink:title=" ">
<polygon fill="none" stroke="black" points="1275,-1211.6 1275,-1230.6 1409,-1230.6 1409,-1211.6 1275,-1211.6"/>
<text text-anchor="middle" x="1342" y="-1218.6" font-family="Helvetica,sans-Serif" font-size="10.00">SyntaxAnalyzer::syntaxExpr</text>
</a>
</g>
</g>
<!-- Node15&#45;&gt;Node16 -->
<g id="edge24" class="edge">
<title>Node15&#45;&gt;Node16</title>
<path fill="none" stroke="midnightblue" d="M1167.84,-907.77C1192.73,-952.81 1297.53,-1142.44 1330.81,-1202.66"/>
<polygon fill="midnightblue" stroke="midnightblue" points="1327.78,-1204.41 1335.68,-1211.47 1333.91,-1201.02 1327.78,-1204.41"/>
</g>
<!-- Node23 -->
<g id="node23" class="node">
<title>Node23</title>
<g id="a_node23"><a xlink:href="../../d0/dfe/class_syntax_analyzer.html#a94c8a6ab5c0e53cae22edb1a840a27ce" target="_top" xlink:title=" ">
<polygon fill="none" stroke="black" points="2008,-1002.6 2008,-1021.6 2158,-1021.6 2158,-1002.6 2008,-1002.6"/>
<text text-anchor="middle" x="2083" y="-1009.6" font-family="Helvetica,sans-Serif" font-size="10.00">SyntaxAnalyzer::syntaxVariable</text>
</a>
</g>
</g>
<!-- Node15&#45;&gt;Node23 -->
<g id="edge63" class="edge">
<title>Node15&#45;&gt;Node23</title>
<path fill="none" stroke="midnightblue" d="M1220.23,-888.57C1291.78,-877.61 1417.53,-861.1 1526,-861.1 1526,-861.1 1526,-861.1 1714.5,-861.1 1785.96,-861.1 1982.48,-960.01 2054.82,-997.73"/>
<polygon fill="midnightblue" stroke="midnightblue" points="2053.3,-1000.89 2063.79,-1002.42 2056.55,-994.68 2053.3,-1000.89"/>
</g>
<!-- Node16&#45;&gt;Node2 -->
<g id="edge25" class="edge">
<title>Node16&#45;&gt;Node2</title>
<path fill="none" stroke="midnightblue" d="M1348.56,-1230.62C1375.09,-1275.15 1493.79,-1464.39 1645,-1553.1 1819.59,-1655.53 2069.17,-1653.74 2188.63,-1645.68"/>
<polygon fill="midnightblue" stroke="midnightblue" points="2189.01,-1649.16 2198.74,-1644.96 2188.52,-1642.18 2189.01,-1649.16"/>
</g>
<!-- Node16&#45;&gt;Node4 -->
<g id="edge28" class="edge">
<title>Node16&#45;&gt;Node4</title>
<path fill="none" stroke="midnightblue" d="M1344.96,-1230.99C1352.36,-1266.25 1381.48,-1387.79 1445,-1464.1 1512.98,-1545.77 1548.56,-1550.49 1645,-1595.1 1917.66,-1721.23 2043.19,-1779.47 2318,-1658.1 2339.28,-1648.7 2335.43,-1634.11 2354,-1620.1 2366.48,-1610.68 2381.63,-1602.37 2394.89,-1595.94"/>
<polygon fill="midnightblue" stroke="midnightblue" points="2396.58,-1599.02 2404.14,-1591.61 2393.6,-1592.68 2396.58,-1599.02"/>
</g>
<!-- Node16&#45;&gt;Node7 -->
<g id="edge26" class="edge">
<title>Node16&#45;&gt;Node7</title>
<path fill="none" stroke="midnightblue" d="M1352.08,-1211.32C1398.49,-1161.32 1607.02,-936.52 1609,-932.1 1642.72,-856.68 1588.81,-622.65 1645,-562.1 1718.4,-483 2058.71,-501.48 2197.91,-512.68"/>
<polygon fill="midnightblue" stroke="midnightblue" points="2197.73,-516.18 2207.98,-513.51 2198.3,-509.2 2197.73,-516.18"/>
</g>
<!-- Node16&#45;&gt;Node8 -->
<g id="edge27" class="edge">
<title>Node16&#45;&gt;Node8</title>
<path fill="none" stroke="midnightblue" d="M1409.13,-1221.58C1567.74,-1221.5 1981.56,-1214 2318,-1144.1 2344.35,-1138.62 2373.14,-1128.67 2394.51,-1120.46"/>
<polygon fill="midnightblue" stroke="midnightblue" points="2396.03,-1123.63 2404.07,-1116.72 2393.48,-1117.11 2396.03,-1123.63"/>
</g>
<!-- Node17 -->
<g id="node17" class="node">
<title>Node17</title>
<g id="a_node17"><a xlink:href="../../db/d0e/sup_8hpp.html#ae7d62ca130413d4c96863327c1af81a4" target="_top" xlink:title="Возвращает истину, если value находится среди значений cont.">
<polygon fill="none" stroke="black" points="1876.5,-1268.6 1876.5,-1287.6 1908.5,-1287.6 1908.5,-1268.6 1876.5,-1268.6"/>
<text text-anchor="middle" x="1892.5" y="-1275.6" font-family="Helvetica,sans-Serif" font-size="10.00">isIn</text>
</a>
</g>
</g>
<!-- Node16&#45;&gt;Node17 -->
<g id="edge29" class="edge">
<title>Node16&#45;&gt;Node17</title>
<path fill="none" stroke="midnightblue" d="M1409.16,-1227.97C1530.8,-1240.62 1784.94,-1267.03 1866.05,-1275.45"/>
<polygon fill="midnightblue" stroke="midnightblue" points="1866,-1278.97 1876.31,-1276.52 1866.73,-1272.01 1866,-1278.97"/>
</g>
<!-- Node18 -->
<g id="node18" class="node">
<title>Node18</title>
<g id="a_node18"><a xlink:href="../../d0/dfe/class_syntax_analyzer.html#a3dfb6634a4bcdc61da5b1bafd1f3d136" target="_top" xlink:title=" ">
<polygon fill="none" stroke="black" points="1445,-1306.6 1445,-1325.6 1609,-1325.6 1609,-1306.6 1445,-1306.6"/>
<text text-anchor="middle" x="1527" y="-1313.6" font-family="Helvetica,sans-Serif" font-size="10.00">SyntaxAnalyzer::syntaxSimpleExpr</text>
</a>
</g>
</g>
<!-- Node16&#45;&gt;Node18 -->
<g id="edge30" class="edge">
<title>Node16&#45;&gt;Node18</title>
<path fill="none" stroke="midnightblue" d="M1361.55,-1230.73C1393.97,-1247.56 1461.06,-1282.39 1498.76,-1301.96"/>
<polygon fill="midnightblue" stroke="midnightblue" points="1497.18,-1305.08 1507.67,-1306.58 1500.41,-1298.87 1497.18,-1305.08"/>
</g>
<!-- Node18&#45;&gt;Node2 -->
<g id="edge31" class="edge">
<title>Node18&#45;&gt;Node2</title>
<path fill="none" stroke="midnightblue" d="M1530.47,-1325.66C1539.49,-1358.56 1573.9,-1467.92 1645,-1520.1 1688.67,-1552.15 2038.04,-1606.77 2188.73,-1629.12"/>
<polygon fill="midnightblue" stroke="midnightblue" points="2188.39,-1632.61 2198.8,-1630.61 2189.41,-1625.68 2188.39,-1632.61"/>
</g>
<!-- Node18&#45;&gt;Node4 -->
<g id="edge34" class="edge">
<title>Node18&#45;&gt;Node4</title>
<path fill="none" stroke="midnightblue" d="M1548.64,-1325.64C1571.96,-1336.38 1611.09,-1354.26 1645,-1369.1 1721.46,-1402.54 1740.3,-1411.66 1818,-1442.1 1899.42,-1474 1918.47,-1486.7 2003,-1509.1 2134.64,-1543.97 2293.82,-1566.2 2374.56,-1576.1"/>
<polygon fill="midnightblue" stroke="midnightblue" points="2374.6,-1579.64 2384.95,-1577.36 2375.44,-1572.69 2374.6,-1579.64"/>
</g>
<!-- Node18&#45;&gt;Node7 -->
<g id="edge32" class="edge">
<title>Node18&#45;&gt;Node7</title>
<path fill="none" stroke="midnightblue" d="M1532.03,-1306.22C1545.47,-1272.84 1589.03,-1160.86 1609,-1064.1 1625.87,-982.33 1602.78,-762.13 1645,-690.1 1732.94,-540.05 1830.52,-554.43 2003,-532.1 2069.24,-523.52 2145.84,-520.19 2197.56,-518.9"/>
<polygon fill="midnightblue" stroke="midnightblue" points="2197.64,-522.4 2207.56,-518.67 2197.48,-515.4 2197.64,-522.4"/>
</g>
<!-- Node18&#45;&gt;Node8 -->
<g id="edge33" class="edge">
<title>Node18&#45;&gt;Node8</title>
<path fill="none" stroke="midnightblue" d="M1562.03,-1325.62C1678.8,-1356.16 2069.67,-1440.6 2318,-1279.1 2375.18,-1241.91 2408.09,-1163.07 2420.83,-1126.49"/>
<polygon fill="midnightblue" stroke="midnightblue" points="2424.16,-1127.57 2424.01,-1116.97 2417.52,-1125.34 2424.16,-1127.57"/>
</g>
<!-- Node18&#45;&gt;Node17 -->
<g id="edge35" class="edge">
<title>Node18&#45;&gt;Node17</title>
<path fill="none" stroke="midnightblue" d="M1580.58,-1306.6C1600.68,-1303.22 1623.85,-1299.63 1645,-1297.1 1725.54,-1287.47 1821.5,-1281.7 1866.23,-1279.34"/>
<polygon fill="midnightblue" stroke="midnightblue" points="1866.64,-1282.83 1876.45,-1278.82 1866.28,-1275.84 1866.64,-1282.83"/>
</g>
<!-- Node19 -->
<g id="node19" class="node">
<title>Node19</title>
<g id="a_node19"><a xlink:href="../../d0/dfe/class_syntax_analyzer.html#a1e9b913cc8c2861927d7c05d10f1822d" target="_top" xlink:title=" ">
<polygon fill="none" stroke="black" points="1645,-1306.6 1645,-1325.6 1782,-1325.6 1782,-1306.6 1645,-1306.6"/>
<text text-anchor="middle" x="1713.5" y="-1313.6" font-family="Helvetica,sans-Serif" font-size="10.00">SyntaxAnalyzer::syntaxTerm</text>
</a>
</g>
</g>
<!-- Node18&#45;&gt;Node19 -->
<g id="edge36" class="edge">
<title>Node18&#45;&gt;Node19</title>
<path fill="none" stroke="midnightblue" d="M1609.19,-1316.1C1617.65,-1316.1 1626.23,-1316.1 1634.64,-1316.1"/>
<polygon fill="midnightblue" stroke="midnightblue" points="1634.81,-1319.6 1644.81,-1316.1 1634.81,-1312.6 1634.81,-1319.6"/>
</g>
<!-- Node19&#45;&gt;Node2 -->
<g id="edge37" class="edge">
<title>Node19&#45;&gt;Node2</title>
<path fill="none" stroke="midnightblue" d="M1717.94,-1325.92C1728.39,-1354.31 1762.46,-1437.35 1818,-1482.1 1822.14,-1485.44 2115.84,-1589.16 2220.76,-1626.15"/>
<polygon fill="midnightblue" stroke="midnightblue" points="2219.71,-1629.49 2230.31,-1629.52 2222.04,-1622.89 2219.71,-1629.49"/>
</g>
<!-- Node19&#45;&gt;Node4 -->
<g id="edge40" class="edge">
<title>Node19&#45;&gt;Node4</title>
<path fill="none" stroke="midnightblue" d="M1727.16,-1325.74C1765.98,-1354.76 1887.64,-1441.72 2003,-1482.1 2136.67,-1528.88 2182.63,-1488.5 2318,-1530.1 2348.03,-1539.33 2380.24,-1555.57 2401.8,-1567.45"/>
<polygon fill="midnightblue" stroke="midnightblue" points="2400.19,-1570.56 2410.63,-1572.4 2403.62,-1564.45 2400.19,-1570.56"/>
</g>
<!-- Node19&#45;&gt;Node7 -->
<g id="edge38" class="edge">
<title>Node19&#45;&gt;Node7</title>
<path fill="none" stroke="midnightblue" d="M1714.91,-1306.52C1718.05,-1236.92 1740.38,-808.6 1818,-710.1 1921.26,-579.05 2010.69,-630.21 2163,-562.1 2184.95,-552.28 2209.56,-540.81 2228.17,-532.04"/>
<polygon fill="midnightblue" stroke="midnightblue" points="2229.76,-535.16 2237.3,-527.72 2226.77,-528.83 2229.76,-535.16"/>
</g>
<!-- Node19&#45;&gt;Node8 -->
<g id="edge39" class="edge">
<title>Node19&#45;&gt;Node8</title>
<path fill="none" stroke="midnightblue" d="M1782.25,-1312.28C1930.17,-1303.51 2272.52,-1280.58 2318,-1254.1 2369.78,-1223.95 2404.42,-1158.44 2419.08,-1126.04"/>
<polygon fill="midnightblue" stroke="midnightblue" points="2422.33,-1127.33 2423.13,-1116.76 2415.92,-1124.53 2422.33,-1127.33"/>
</g>
<!-- Node19&#45;&gt;Node17 -->
<g id="edge41" class="edge">
<title>Node19&#45;&gt;Node17</title>
<path fill="none" stroke="midnightblue" d="M1759.16,-1306.51C1792.98,-1299.25 1838.21,-1289.54 1866.08,-1283.56"/>
<polygon fill="midnightblue" stroke="midnightblue" points="1867.15,-1286.91 1876.19,-1281.39 1865.68,-1280.06 1867.15,-1286.91"/>
</g>
<!-- Node20 -->
<g id="node20" class="node">
<title>Node20</title>
<g id="a_node20"><a xlink:href="../../d0/dfe/class_syntax_analyzer.html#a3af9b5161a2cef6fdd26b0bb60334ac4" target="_top" xlink:title=" ">
<polygon fill="none" stroke="black" points="1821,-1126.6 1821,-1145.6 1964,-1145.6 1964,-1126.6 1821,-1126.6"/>
<text text-anchor="middle" x="1892.5" y="-1133.6" font-family="Helvetica,sans-Serif" font-size="10.00">SyntaxAnalyzer::syntaxFactor</text>
</a>
</g>
</g>
<!-- Node19&#45;&gt;Node20 -->
<g id="edge42" class="edge">
<title>Node19&#45;&gt;Node20</title>
<path fill="none" stroke="midnightblue" d="M1724.02,-1306.42C1752.59,-1277.36 1837.91,-1190.6 1874.51,-1153.37"/>
<polygon fill="midnightblue" stroke="midnightblue" points="1877.42,-1155.41 1881.94,-1145.82 1872.43,-1150.5 1877.42,-1155.41"/>
</g>
<!-- Node20&#45;&gt;Node2 -->
<g id="edge43" class="edge">
<title>Node20&#45;&gt;Node2</title>
<path fill="none" stroke="midnightblue" d="M1900.7,-1145.76C1915.32,-1165.82 1948.66,-1213.92 1967,-1259.1 1993.11,-1323.43 1967.52,-1351.42 2003,-1411.1 2034.44,-1463.98 2181.98,-1580.83 2236.87,-1623.29"/>
<polygon fill="midnightblue" stroke="midnightblue" points="2234.79,-1626.11 2244.85,-1629.44 2239.07,-1620.56 2234.79,-1626.11"/>
</g>
<!-- Node20&#45;&gt;Node3 -->
<g id="edge48" class="edge">
<title>Node20&#45;&gt;Node3</title>
<path fill="none" stroke="midnightblue" d="M1964.25,-1139.79C2020.38,-1140.11 2099.66,-1134.61 2163,-1107.1 2277.04,-1057.56 2377.97,-940.83 2413.46,-896.55"/>
<polygon fill="midnightblue" stroke="midnightblue" points="2416.21,-898.71 2419.67,-888.7 2410.72,-894.37 2416.21,-898.71"/>
</g>
<!-- Node20&#45;&gt;Node4 -->
<g id="edge50" class="edge">
<title>Node20&#45;&gt;Node4</title>
<path fill="none" stroke="midnightblue" d="M1922.43,-1145.61C1996.76,-1171.31 2197.11,-1248.71 2318,-1373.1 2374.05,-1430.77 2408.28,-1523.06 2421.16,-1562.84"/>
<polygon fill="midnightblue" stroke="midnightblue" points="2417.89,-1564.1 2424.23,-1572.59 2424.57,-1562 2417.89,-1564.1"/>
</g>
<!-- Node20&#45;&gt;Node7 -->
<g id="edge44" class="edge">
<title>Node20&#45;&gt;Node7</title>
<path fill="none" stroke="midnightblue" d="M1893.87,-1126.48C1896.03,-1083.08 1910.48,-903.22 2003,-803.1 2055.32,-746.48 2108.15,-790.27 2163,-736.1 2221.07,-678.75 2245.83,-579.82 2254.08,-537.85"/>
<polygon fill="midnightblue" stroke="midnightblue" points="2257.56,-538.29 2255.94,-527.82 2250.67,-537.01 2257.56,-538.29"/>
</g>
<!-- Node20&#45;&gt;Node8 -->
<g id="edge49" class="edge">
<title>Node20&#45;&gt;Node8</title>
<path fill="none" stroke="midnightblue" d="M1964.17,-1139.06C1977.09,-1139.49 1990.45,-1139.87 2003,-1140.1 2074.1,-1141.4 2092.03,-1144.52 2163,-1140.1 2229.48,-1135.96 2304.83,-1126.01 2357.97,-1118.11"/>
<polygon fill="midnightblue" stroke="midnightblue" points="2358.59,-1121.56 2367.96,-1116.61 2357.55,-1114.64 2358.59,-1121.56"/>
</g>
<!-- Node20&#45;&gt;Node13 -->
<g id="edge51" class="edge">
<title>Node20&#45;&gt;Node13</title>
<path fill="none" stroke="midnightblue" d="M1903.97,-1145.84C1919.97,-1161.3 1950.39,-1193.13 1967,-1226.1 1996.29,-1284.25 1958.05,-1321 2003,-1368.1 2006.68,-1371.95 2010.95,-1375.19 2015.58,-1377.92"/>
<polygon fill="midnightblue" stroke="midnightblue" points="2014.32,-1381.2 2024.83,-1382.55 2017.45,-1374.94 2014.32,-1381.2"/>
</g>
<!-- Node20&#45;&gt;Node16 -->
<g id="edge57" class="edge">
<title>Node20&#45;&gt;Node16</title>
<path fill="none" stroke="midnightblue" d="M1820.81,-1140.02C1732.17,-1145.92 1575.97,-1159.58 1445,-1188.1 1421.98,-1193.11 1396.78,-1201.24 1377.19,-1208.17"/>
<polygon fill="midnightblue" stroke="midnightblue" points="1375.99,-1204.88 1367.77,-1211.56 1378.37,-1211.47 1375.99,-1204.88"/>
</g>
<!-- Node20&#45;&gt;Node20 -->
<g id="edge58" class="edge">
<title>Node20&#45;&gt;Node20</title>
<path fill="none" stroke="midnightblue" d="M1865.07,-1145.86C1851.72,-1154.66 1860.86,-1164.1 1892.5,-1164.1 1914.25,-1164.1 1925.37,-1159.64 1925.86,-1153.99"/>
<polygon fill="midnightblue" stroke="midnightblue" points="1928.65,-1151.88 1919.93,-1145.86 1922.99,-1156 1928.65,-1151.88"/>
</g>
<!-- Node21 -->
<g id="node21" class="node">
<title>Node21</title>
<g id="a_node21"><a xlink:href="../../d0/dfe/class_syntax_analyzer.html#a9952c4a2db0a1382b9c94f40dd535fae" target="_top" xlink:title=" ">
<polygon fill="none" stroke="black" points="2199.5,-850.6 2199.5,-869.6 2317.5,-869.6 2317.5,-850.6 2199.5,-850.6"/>
<text text-anchor="middle" x="2258.5" y="-857.6" font-family="Helvetica,sans-Serif" font-size="10.00">SyntaxAnalyzer::eatAdv</text>
</a>
</g>
</g>
<!-- Node20&#45;&gt;Node21 -->
<g id="edge45" class="edge">
<title>Node20&#45;&gt;Node21</title>
<path fill="none" stroke="midnightblue" d="M1894.19,-1126.5C1897.56,-1087.69 1915.85,-941.49 2003,-879.1 2061.34,-837.34 2147.69,-840.81 2203.29,-848.99"/>
<polygon fill="midnightblue" stroke="midnightblue" points="2202.87,-852.47 2213.29,-850.57 2203.96,-845.55 2202.87,-852.47"/>
</g>
<!-- Node20&#45;&gt;Node22 -->
<g id="edge52" class="edge">
<title>Node20&#45;&gt;Node22</title>
<path fill="none" stroke="midnightblue" d="M1931.19,-1126.5C1960.86,-1118.95 2002.39,-1108.37 2034.36,-1100.23"/>
<polygon fill="midnightblue" stroke="midnightblue" points="2035.55,-1103.54 2044.37,-1097.68 2033.82,-1096.76 2035.55,-1103.54"/>
</g>
<!-- Node20&#45;&gt;Node23 -->
<g id="edge59" class="edge">
<title>Node20&#45;&gt;Node23</title>
<path fill="none" stroke="midnightblue" d="M1907.98,-1126.57C1940.46,-1105.21 2019.38,-1053.29 2058.8,-1027.36"/>
<polygon fill="midnightblue" stroke="midnightblue" points="2061.04,-1030.08 2067.47,-1021.66 2057.19,-1024.23 2061.04,-1030.08"/>
</g>
<!-- Node21&#45;&gt;Node8 -->
<g id="edge46" class="edge">
<title>Node21&#45;&gt;Node8</title>
<path fill="none" stroke="midnightblue" d="M2294.43,-869.63C2302.86,-873.16 2311.35,-877.87 2318,-884.1 2380.49,-942.64 2411.64,-1044.65 2422.45,-1087.38"/>
<polygon fill="midnightblue" stroke="midnightblue" points="2419.06,-1088.24 2424.82,-1097.13 2425.86,-1086.58 2419.06,-1088.24"/>
</g>
<!-- Node21&#45;&gt;Node9 -->
<g id="edge47" class="edge">
<title>Node21&#45;&gt;Node9</title>
<path fill="none" stroke="midnightblue" d="M2265.66,-850.32C2290.44,-810.96 2383.08,-663.85 2415.61,-612.18"/>
<polygon fill="midnightblue" stroke="midnightblue" points="2418.59,-614.02 2420.96,-603.69 2412.67,-610.29 2418.59,-614.02"/>
</g>
<!-- Node22&#45;&gt;Node2 -->
<g id="edge53" class="edge">
<title>Node22&#45;&gt;Node2</title>
<path fill="none" stroke="midnightblue" d="M2087.01,-1097.66C2107.23,-1161.86 2223.23,-1530.27 2251.36,-1619.59"/>
<polygon fill="midnightblue" stroke="midnightblue" points="2248.06,-1620.78 2254.41,-1629.27 2254.74,-1618.68 2248.06,-1620.78"/>
</g>
<!-- Node22&#45;&gt;Node7 -->
<g id="edge54" class="edge">
<title>Node22&#45;&gt;Node7</title>
<path fill="none" stroke="midnightblue" d="M2105.36,-1078.46C2123.65,-1069.06 2149.17,-1052.97 2163,-1031.1 2164.71,-1028.4 2236.93,-631.29 2253.94,-537.69"/>
<polygon fill="midnightblue" stroke="midnightblue" points="2257.39,-538.3 2255.73,-527.83 2250.5,-537.05 2257.39,-538.3"/>
</g>
<!-- Node22&#45;&gt;Node8 -->
<g id="edge55" class="edge">
<title>Node22&#45;&gt;Node8</title>
<path fill="none" stroke="midnightblue" d="M2152.91,-1097.62C2168.07,-1099.39 2184.05,-1101.03 2199,-1102.1 2249.74,-1105.73 2306.99,-1106.98 2351.42,-1107.32"/>
<polygon fill="midnightblue" stroke="midnightblue" points="2351.54,-1110.82 2361.56,-1107.38 2351.59,-1103.82 2351.54,-1110.82"/>
</g>
<!-- Node22&#45;&gt;Node16 -->
<g id="edge56" class="edge">
<title>Node22&#45;&gt;Node16</title>
<path fill="none" stroke="midnightblue" d="M2012.38,-1085.59C1892.83,-1083.47 1642.3,-1088.61 1445,-1157.1 1413.66,-1167.98 1381.98,-1189.96 1362.42,-1205.1"/>
<polygon fill="midnightblue" stroke="midnightblue" points="1360,-1202.56 1354.34,-1211.51 1364.35,-1208.05 1360,-1202.56"/>
</g>
<!-- Node23&#45;&gt;Node2 -->
<g id="edge60" class="edge">
<title>Node23&#45;&gt;Node2</title>
<path fill="none" stroke="midnightblue" d="M2106.14,-1021.67C2124.67,-1030.93 2150.11,-1046.86 2163,-1069.1 2201.32,-1135.21 2185.47,-1335.89 2199,-1411.1 2213.09,-1489.4 2239.58,-1580.48 2251.47,-1619.61"/>
<polygon fill="midnightblue" stroke="midnightblue" points="2248.13,-1620.68 2254.41,-1629.21 2254.83,-1618.63 2248.13,-1620.68"/>
</g>
<!-- Node23&#45;&gt;Node7 -->
<g id="edge61" class="edge">
<title>Node23&#45;&gt;Node7</title>
<path fill="none" stroke="midnightblue" d="M2094.77,-1002.42C2111.91,-986.4 2145.27,-952.6 2163,-917.1 2230.23,-782.46 2250.87,-598.09 2256.02,-537.95"/>
<polygon fill="midnightblue" stroke="midnightblue" points="2259.53,-537.87 2256.85,-527.62 2252.56,-537.31 2259.53,-537.87"/>
</g>
<!-- Node23&#45;&gt;Node8 -->
<g id="edge62" class="edge">
<title>Node23&#45;&gt;Node8</title>
<path fill="none" stroke="midnightblue" d="M2121.8,-1021.68C2168.16,-1033.53 2249.07,-1054.54 2318,-1074.1 2340.88,-1080.59 2366.33,-1088.27 2386.88,-1094.59"/>
<polygon fill="midnightblue" stroke="midnightblue" points="2385.96,-1097.96 2396.54,-1097.57 2388.02,-1091.27 2385.96,-1097.96"/>
</g>
<!-- Node24&#45;&gt;Node2 -->
<g id="edge67" class="edge">
<title>Node24&#45;&gt;Node2</title>
<path fill="none" stroke="midnightblue" d="M1048.01,-1988.59C1122.35,-1993.56 1239.47,-2000.1 1341,-2000.1 1341,-2000.1 1341,-2000.1 1893.5,-2000.1 2020.65,-2000.1 2073.08,-1993.99 2163,-1904.1 2233.36,-1833.77 2251.58,-1707.61 2256.09,-1658.97"/>
<polygon fill="midnightblue" stroke="midnightblue" points="2259.59,-1659.09 2256.93,-1648.84 2252.61,-1658.52 2259.59,-1659.09"/>
</g>
<!-- Node25&#45;&gt;Node2 -->
<g id="edge69" class="edge">
<title>Node25&#45;&gt;Node2</title>
<path fill="none" stroke="midnightblue" d="M795.71,-1021.63C821.61,-1080.51 961.1,-1401.1 1048,-1672.1 1067.75,-1733.69 1036.5,-1769.2 1084,-1813.1 1097.23,-1825.32 1483.17,-1886.1 1526,-1886.1 1526,-1886.1 1526,-1886.1 1714.5,-1886.1 1764.95,-1886.1 2126.65,-1850.08 2163,-1815.1 2213.56,-1766.44 2153.57,-1711.67 2198.8,-1656.23"/>
<polygon fill="midnightblue" stroke="midnightblue" points="2201.44,-1658.52 2205.55,-1648.75 2196.25,-1653.83 2201.44,-1658.52"/>
</g>
<!-- Node25&#45;&gt;Node7 -->
<g id="edge70" class="edge">
<title>Node25&#45;&gt;Node7</title>
<path fill="none" stroke="midnightblue" d="M794.33,-1002.36C811.73,-943.83 909.35,-635.15 1084,-451.1 1212.23,-315.96 1265.29,-287.16 1445,-238.1 1489.39,-225.98 2122.5,-239.45 2163,-269.1 2239.16,-324.86 2253.95,-450.02 2256.81,-498.44"/>
<polygon fill="midnightblue" stroke="midnightblue" points="2253.32,-498.72 2257.3,-508.54 2260.31,-498.38 2253.32,-498.72"/>
</g>
<!-- Node25&#45;&gt;Node8 -->
<g id="edge71" class="edge">
<title>Node25&#45;&gt;Node8</title>
<path fill="none" stroke="midnightblue" d="M791.28,-1021.68C789.98,-1100.94 791.81,-1651.27 1084,-1905.1 1336.79,-2124.7 1483.38,-2062.54 1818,-2075.1 2059.03,-2084.14 2211.9,-2080.71 2318,-1864.1 2377.27,-1743.1 2335.35,-1696.53 2354,-1563.1 2377.67,-1393.79 2412.55,-1190.17 2423.55,-1126.85"/>
<polygon fill="midnightblue" stroke="midnightblue" points="2427.05,-1127.16 2425.32,-1116.7 2420.15,-1125.96 2427.05,-1127.16"/>
</g>
<!-- Node25&#45;&gt;Node12 -->
<g id="edge80" class="edge">
<title>Node25&#45;&gt;Node12</title>
<path fill="none" stroke="midnightblue" d="M720.94,-1018.76C712.55,-1018.86 703.95,-1018.88 695.51,-1018.8"/>
<polygon fill="midnightblue" stroke="midnightblue" points="695.36,-1015.29 685.31,-1018.65 695.26,-1022.29 695.36,-1015.29"/>
</g>
<!-- Node26 -->
<g id="node26" class="node">
<title>Node26</title>
<g id="a_node26"><a xlink:href="../../d0/dfe/class_syntax_analyzer.html#aea3a3d1860938d64edf651bdc4016c04" target="_top" xlink:title=" ">
<polygon fill="none" stroke="black" points="902.5,-983.6 902.5,-1002.6 1041.5,-1002.6 1041.5,-983.6 902.5,-983.6"/>
<text text-anchor="middle" x="972" y="-990.6" font-family="Helvetica,sans-Serif" font-size="10.00">SyntaxAnalyzer::syntaxIterSt</text>
</a>
</g>
</g>
<!-- Node25&#45;&gt;Node26 -->
<g id="edge72" class="edge">
<title>Node25&#45;&gt;Node26</title>
<path fill="none" stroke="midnightblue" d="M860.13,-1004.83C870.63,-1003.72 881.54,-1002.57 892.24,-1001.44"/>
<polygon fill="midnightblue" stroke="midnightblue" points="892.83,-1004.89 902.41,-1000.36 892.1,-997.93 892.83,-1004.89"/>
</g>
<!-- Node26&#45;&gt;Node2 -->
<g id="edge73" class="edge">
<title>Node26&#45;&gt;Node2</title>
<path fill="none" stroke="midnightblue" d="M974.02,-1002.67C983.4,-1090.38 1054.97,-1751.76 1084,-1781.1 1118.94,-1816.41 1476.33,-1848.1 1526,-1848.1 1526,-1848.1 1526,-1848.1 1714.5,-1848.1 1815.37,-1848.1 2077.76,-1832.05 2163,-1778.1 2208.66,-1749.2 2237.71,-1689.39 2250.29,-1658.5"/>
<polygon fill="midnightblue" stroke="midnightblue" points="2253.67,-1659.46 2254.05,-1648.88 2247.15,-1656.91 2253.67,-1659.46"/>
</g>
<!-- Node26&#45;&gt;Node3 -->
<g id="edge75" class="edge">
<title>Node26&#45;&gt;Node3</title>
<path fill="none" stroke="midnightblue" d="M1003.59,-983.48C1019.61,-976.78 1037.94,-966.11 1048,-950.1 1107.16,-855.97 1033.83,-550.31 1084,-451.1 1282.32,-58.91 1564.13,-109.33 2003,-86.1 2142.8,-78.7 2215.69,9.46 2318,-86.1 2360.89,-126.16 2344.18,-555.23 2354,-613.1 2370.02,-707.55 2405.58,-816.82 2420.36,-860.07"/>
<polygon fill="midnightblue" stroke="midnightblue" points="2417.07,-861.28 2423.64,-869.59 2423.69,-859 2417.07,-861.28"/>
</g>
<!-- Node26&#45;&gt;Node4 -->
<g id="edge77" class="edge">
<title>Node26&#45;&gt;Node4</title>
<path fill="none" stroke="midnightblue" d="M973.05,-1002.78C973.62,-1090.25 981.37,-1744.72 1084,-1905.1 1253.29,-2169.63 1398.44,-2228.1 1712.5,-2228.1 1712.5,-2228.1 1712.5,-2228.1 2084,-2228.1 2188.55,-2228.1 2245.59,-2279.51 2318,-2204.1 2408.05,-2110.31 2283.16,-1729.13 2354,-1620.1 2360.87,-1609.52 2371.69,-1601.72 2382.91,-1596.04"/>
<polygon fill="midnightblue" stroke="midnightblue" points="2384.69,-1599.07 2392.35,-1591.75 2381.8,-1592.7 2384.69,-1599.07"/>
</g>
<!-- Node26&#45;&gt;Node7 -->
<g id="edge74" class="edge">
<title>Node26&#45;&gt;Node7</title>
<path fill="none" stroke="midnightblue" d="M1000.05,-983.51C1016.09,-976.54 1035.65,-965.59 1048,-950.1 1082.19,-907.23 1064.47,-883.33 1084,-832.1 1156.18,-642.75 1125.57,-554.96 1275,-418.1 1421.44,-283.97 1995.25,-211.83 2163,-318.1 2227.19,-358.76 2248.61,-456.04 2255.02,-498.13"/>
<polygon fill="midnightblue" stroke="midnightblue" points="2251.58,-498.81 2256.43,-508.23 2258.52,-497.84 2251.58,-498.81"/>
</g>
<!-- Node26&#45;&gt;Node8 -->
<g id="edge76" class="edge">
<title>Node26&#45;&gt;Node8</title>
<path fill="none" stroke="midnightblue" d="M1041.79,-987.42C1115.67,-981.83 1236.56,-974.1 1341,-974.1 1341,-974.1 1341,-974.1 1714.5,-974.1 1828.73,-974.1 1855.43,-997.57 1967,-1022.1 1983.11,-1025.64 1986.93,-1027.41 2003,-1031.1 2089.74,-1051.01 2111.43,-1056.23 2199,-1072.1 2249.82,-1081.31 2307.29,-1090.12 2351.82,-1096.6"/>
<polygon fill="midnightblue" stroke="midnightblue" points="2351.58,-1100.1 2361.98,-1098.07 2352.59,-1093.17 2351.58,-1100.1"/>
</g>
<!-- Node26&#45;&gt;Node15 -->
<g id="edge78" class="edge">
<title>Node26&#45;&gt;Node15</title>
<path fill="none" stroke="midnightblue" d="M992.01,-983.47C1025.23,-966.64 1093.96,-931.81 1132.59,-912.24"/>
<polygon fill="midnightblue" stroke="midnightblue" points="1134.38,-915.26 1141.72,-907.61 1131.22,-909.01 1134.38,-915.26"/>
</g>
<!-- Node26&#45;&gt;Node20 -->
<g id="edge79" class="edge">
<title>Node26&#45;&gt;Node20</title>
<path fill="none" stroke="midnightblue" d="M1034.33,-1002.65C1198.17,-1028.16 1645.45,-1097.79 1820.2,-1125"/>
<polygon fill="midnightblue" stroke="midnightblue" points="1819.89,-1128.49 1830.31,-1126.57 1820.97,-1121.58 1819.89,-1128.49"/>
</g>
<!-- Node27&#45;&gt;Node2 -->
<g id="edge82" class="edge">
<title>Node27&#45;&gt;Node2</title>
<path fill="none" stroke="midnightblue" d="M1213.4,-860.73C1223.24,-864.84 1232.5,-870.72 1239,-879.1 1288.41,-942.8 1245.52,-1165.06 1275,-1240.1 1320.69,-1356.43 1353.62,-1378.84 1445,-1464.1 1637.3,-1643.51 1740.21,-1650.46 2003,-1661.1 2074.05,-1663.97 2092.35,-1669.21 2163,-1661.1 2180.02,-1659.14 2198.44,-1655.27 2214.45,-1651.31"/>
<polygon fill="midnightblue" stroke="midnightblue" points="2215.77,-1654.58 2224.59,-1648.71 2214.03,-1647.8 2215.77,-1654.58"/>
</g>
<!-- Node27&#45;&gt;Node7 -->
<g id="edge83" class="edge">
<title>Node27&#45;&gt;Node7</title>
<path fill="none" stroke="midnightblue" d="M1162.23,-841.41C1161.42,-793.37 1164.29,-578.44 1275,-466.1 1290.1,-450.78 1623.73,-355.3 1645,-352.1 1758.83,-334.96 2063.49,-294.24 2163,-352.1 2218.08,-384.12 2243.71,-461.58 2253.07,-498.23"/>
<polygon fill="midnightblue" stroke="midnightblue" points="2249.73,-499.3 2255.47,-508.2 2256.54,-497.66 2249.73,-499.3"/>
</g>
<!-- Node27&#45;&gt;Node8 -->
<g id="edge84" class="edge">
<title>Node27&#45;&gt;Node8</title>
<path fill="none" stroke="midnightblue" d="M1163.8,-841.39C1171.71,-783.44 1215.17,-483.46 1275,-416.1 1470.27,-196.27 1597.47,-176.1 1891.5,-176.1 1891.5,-176.1 1891.5,-176.1 2084,-176.1 2426.59,-176.1 2281.58,-563.25 2354,-898.1 2369.6,-970.24 2402.88,-1051.76 2418.53,-1087.99"/>
<polygon fill="midnightblue" stroke="midnightblue" points="2415.4,-1089.58 2422.62,-1097.34 2421.82,-1086.78 2415.4,-1089.58"/>
</g>
<!-- Node27&#45;&gt;Node12 -->
<g id="edge86" class="edge">
<title>Node27&#45;&gt;Node12</title>
<path fill="none" stroke="midnightblue" d="M1128.17,-860.61C1054.19,-876.63 867.67,-909.82 721,-967.1 699.51,-975.49 676.89,-987.78 658.86,-997.6"/>
<polygon fill="midnightblue" stroke="midnightblue" points="656.99,-994.63 649.87,-1002.48 660.33,-1000.78 656.99,-994.63"/>
</g>
<!-- Node27&#45;&gt;Node16 -->
<g id="edge85" class="edge">
<title>Node27&#45;&gt;Node16</title>
<path fill="none" stroke="midnightblue" d="M1209.47,-860.61C1220.35,-864.74 1231.05,-870.65 1239,-879.1 1328.17,-973.88 1339.68,-1143.34 1340.94,-1201.14"/>
<polygon fill="midnightblue" stroke="midnightblue" points="1337.44,-1201.49 1341.08,-1211.44 1344.44,-1201.4 1337.44,-1201.49"/>
</g>
<!-- Node28&#45;&gt;Node2 -->
<g id="edge88" class="edge">
<title>Node28&#45;&gt;Node2</title>
<path fill="none" stroke="midnightblue" d="M1238.02,-1765.39C1311.53,-1768.3 1426.41,-1772.1 1526,-1772.1 1526,-1772.1 1526,-1772.1 1893.5,-1772.1 2013.75,-1772.1 2055.93,-1802.85 2163,-1748.1 2202.57,-1727.87 2232.69,-1683.31 2247.44,-1657.87"/>
<polygon fill="midnightblue" stroke="midnightblue" points="2250.66,-1659.29 2252.5,-1648.86 2244.55,-1655.87 2250.66,-1659.29"/>
</g>
<!-- Node28&#45;&gt;Node7 -->
<g id="edge89" class="edge">
<title>Node28&#45;&gt;Node7</title>
<path fill="none" stroke="midnightblue" d="M1162.24,-1752.46C1160.12,-1650.97 1156.29,-775.86 1645,-466.1 1742.49,-404.31 2055.83,-385.23 2163,-428.1 2199.08,-442.53 2229.23,-478.02 2245.2,-499.87"/>
<polygon fill="midnightblue" stroke="midnightblue" points="2242.53,-502.15 2251.15,-508.3 2248.25,-498.11 2242.53,-502.15"/>
</g>
<!-- Node28&#45;&gt;Node8 -->
<g id="edge90" class="edge">
<title>Node28&#45;&gt;Node8</title>
<path fill="none" stroke="midnightblue" d="M1211.95,-1771.62C1231.54,-1775.2 1254.28,-1779.12 1275,-1782.1 1667.24,-1838.45 1808.02,-2038.21 2163,-1862.1 2265.01,-1811.49 2271.31,-1761.95 2318,-1658.1 2405.3,-1463.93 2422.97,-1200.2 2426.28,-1126.78"/>
<polygon fill="midnightblue" stroke="midnightblue" points="2429.79,-1126.8 2426.7,-1116.66 2422.79,-1126.51 2429.79,-1126.8"/>
</g>
<!-- Node28&#45;&gt;Node16 -->
<g id="edge91" class="edge">
<title>Node28&#45;&gt;Node16</title>
<path fill="none" stroke="midnightblue" d="M1165.75,-1752.25C1186.96,-1687.97 1305.64,-1328.26 1334.62,-1240.44"/>
<polygon fill="midnightblue" stroke="midnightblue" points="1338.02,-1241.3 1337.83,-1230.71 1331.37,-1239.11 1338.02,-1241.3"/>
</g>
<!-- Node29&#45;&gt;Node2 -->
<g id="edge93" class="edge">
<title>Node29&#45;&gt;Node2</title>
<path fill="none" stroke="midnightblue" d="M1227.81,-1895.61C1243.25,-1897.48 1259.68,-1899.15 1275,-1900.1 1472.14,-1912.32 2009.51,-1986.41 2163,-1862.1 2228.23,-1809.27 2249.19,-1703.24 2255.26,-1659.09"/>
<polygon fill="midnightblue" stroke="midnightblue" points="2258.75,-1659.41 2256.53,-1649.05 2251.8,-1658.53 2258.75,-1659.41"/>
</g>
<!-- Node29&#45;&gt;Node7 -->
<g id="edge94" class="edge">
<title>Node29&#45;&gt;Node7</title>
<path fill="none" stroke="midnightblue" d="M1172.51,-1876.53C1189.74,-1859.32 1224.55,-1821.2 1239,-1781.1 1326.41,-1538.54 1203.88,-1449.93 1275,-1202.1 1360.91,-902.75 1468.77,-864.17 1609,-586.1 1626.01,-552.37 1613.79,-530.38 1645,-509.1 1691.17,-477.62 2028.3,-484 2163,-498.1 2178.72,-499.74 2195.67,-502.89 2210.82,-506.21"/>
<polygon fill="midnightblue" stroke="midnightblue" points="2210.46,-509.71 2220.98,-508.51 2212.01,-502.89 2210.46,-509.71"/>
</g>
<!-- Node29&#45;&gt;Node8 -->
<g id="edge95" class="edge">
<title>Node29&#45;&gt;Node8</title>
<path fill="none" stroke="midnightblue" d="M1191.87,-1895.7C1214.43,-1902.83 1246.46,-1912.44 1275,-1919.1 1659.81,-2008.9 1833.13,-2180.65 2163,-1963.1 2256.88,-1901.18 2272.97,-1866.15 2318,-1763.1 2324.62,-1747.95 2406.72,-1234.31 2423.87,-1126.73"/>
<polygon fill="midnightblue" stroke="midnightblue" points="2427.36,-1127.06 2425.48,-1116.64 2420.45,-1125.96 2427.36,-1127.06"/>
</g>
<!-- Node29&#45;&gt;Node12 -->
<g id="edge97" class="edge">
<title>Node29&#45;&gt;Node12</title>
<path fill="none" stroke="midnightblue" d="M1114.59,-1895.63C1024.2,-1905.63 823.08,-1904.66 721,-1791.1 617.03,-1675.43 621.29,-1142.28 623.13,-1032"/>
<polygon fill="midnightblue" stroke="midnightblue" points="626.63,-1031.73 623.31,-1021.67 619.63,-1031.61 626.63,-1031.73"/>
</g>
<!-- Node29&#45;&gt;Node16 -->
<g id="edge96" class="edge">
<title>Node29&#45;&gt;Node16</title>
<path fill="none" stroke="midnightblue" d="M1172.03,-1876.34C1188.51,-1858.84 1222.21,-1820.28 1239,-1781.1 1323.99,-1582.8 1338.2,-1315.44 1340.54,-1241.03"/>
<polygon fill="midnightblue" stroke="midnightblue" points="1344.05,-1240.88 1340.83,-1230.79 1337.05,-1240.69 1344.05,-1240.88"/>
</g>
<!-- Node30&#45;&gt;Node7 -->
<g id="edge99" class="edge">
<title>Node30&#45;&gt;Node7</title>
<path fill="none" stroke="midnightblue" d="M1922.74,-719.6C1944.77,-712.48 1975.74,-702.54 2003,-694.1 2073.92,-672.13 2102.28,-688.82 2163,-646.1 2204.04,-617.22 2234.43,-564.86 2248.61,-536.89"/>
<polygon fill="midnightblue" stroke="midnightblue" points="2251.82,-538.3 2253.09,-527.78 2245.54,-535.21 2251.82,-538.3"/>
</g>
<!-- Node30&#45;&gt;Node8 -->
<g id="edge100" class="edge">
<title>Node30&#45;&gt;Node8</title>
<path fill="none" stroke="midnightblue" d="M1965.6,-721.21C2058.09,-715.22 2218.4,-719.29 2318,-803.1 2320.9,-805.54 2396.82,-1021.18 2420.21,-1087.75"/>
<polygon fill="midnightblue" stroke="midnightblue" points="2416.99,-1089.14 2423.6,-1097.42 2423.59,-1086.82 2416.99,-1089.14"/>
</g>
<!-- Node31 -->
<g id="node31" class="node">
<title>Node31</title>
<g id="a_node31"><a xlink:href="../../d0/dfe/class_syntax_analyzer.html#adad79b2219ae143b49203a836713bec9" target="_top" xlink:title=" ">
<polygon fill="none" stroke="black" points="2003,-888.6 2003,-907.6 2163,-907.6 2163,-888.6 2003,-888.6"/>
<text text-anchor="middle" x="2083" y="-895.6" font-family="Helvetica,sans-Serif" font-size="10.00">SyntaxAnalyzer::syntaxConstDecl</text>
</a>
</g>
</g>
<!-- Node30&#45;&gt;Node31 -->
<g id="edge101" class="edge">
<title>Node30&#45;&gt;Node31</title>
<path fill="none" stroke="midnightblue" d="M1922.8,-738.67C1937.53,-744.67 1954.79,-753.66 1967,-766.1 1992.9,-792.49 1979.28,-812.74 2003,-841.1 2017.47,-858.39 2038.29,-873.13 2054.93,-883.29"/>
<polygon fill="midnightblue" stroke="midnightblue" points="2053.28,-886.38 2063.67,-888.45 2056.84,-880.35 2053.28,-886.38"/>
</g>
<!-- Node31&#45;&gt;Node2 -->
<g id="edge102" class="edge">
<title>Node31&#45;&gt;Node2</title>
<path fill="none" stroke="midnightblue" d="M2095.67,-907.75C2113.75,-923.49 2148,-956.59 2163,-993.1 2233.86,-1165.58 2167.72,-1227.28 2199,-1411.1 2212.35,-1489.53 2239.23,-1580.54 2251.34,-1619.63"/>
<polygon fill="midnightblue" stroke="midnightblue" points="2248.01,-1620.72 2254.34,-1629.22 2254.69,-1618.64 2248.01,-1620.72"/>
</g>
<!-- Node31&#45;&gt;Node7 -->
<g id="edge103" class="edge">
<title>Node31&#45;&gt;Node7</title>
<path fill="none" stroke="midnightblue" d="M2104.12,-888.48C2122.1,-878.89 2147.87,-862.51 2163,-841.1 2232.9,-742.19 2251.56,-591.68 2256.13,-537.99"/>
<polygon fill="midnightblue" stroke="midnightblue" points="2259.64,-538.03 2256.92,-527.79 2252.66,-537.49 2259.64,-538.03"/>
</g>
<!-- Node31&#45;&gt;Node8 -->
<g id="edge105" class="edge">
<title>Node31&#45;&gt;Node8</title>
<path fill="none" stroke="midnightblue" d="M2142.08,-888.57C2192.53,-883.43 2265.52,-883.79 2318,-917.1 2381.1,-957.14 2411.56,-1047.68 2422.3,-1087.58"/>
<polygon fill="midnightblue" stroke="midnightblue" points="2418.95,-1088.59 2424.82,-1097.41 2425.73,-1086.85 2418.95,-1088.59"/>
</g>
<!-- Node31&#45;&gt;Node10 -->
<g id="edge106" class="edge">
<title>Node31&#45;&gt;Node10</title>
<path fill="none" stroke="midnightblue" d="M2127.78,-907.69C2150.99,-912.77 2179.68,-919.05 2204.17,-924.42"/>
<polygon fill="midnightblue" stroke="midnightblue" points="2203.52,-927.86 2214.03,-926.58 2205.01,-921.02 2203.52,-927.86"/>
</g>
<!-- Node31&#45;&gt;Node21 -->
<g id="edge104" class="edge">
<title>Node31&#45;&gt;Node21</title>
<path fill="none" stroke="midnightblue" d="M2127.78,-888.51C2150.99,-883.43 2179.68,-877.14 2204.17,-871.78"/>
<polygon fill="midnightblue" stroke="midnightblue" points="2205.01,-875.18 2214.03,-869.62 2203.52,-868.34 2205.01,-875.18"/>
</g>
<!-- Node32&#45;&gt;Node7 -->
<g id="edge108" class="edge">
<title>Node32&#45;&gt;Node7</title>
<path fill="none" stroke="midnightblue" d="M1722.5,-699.39C1738.54,-680.59 1776.67,-639.22 1818,-618.1 1884.09,-584.32 2093.53,-545.7 2197.61,-527.95"/>
<polygon fill="midnightblue" stroke="midnightblue" points="2198.37,-531.37 2207.64,-526.25 2197.2,-524.47 2198.37,-531.37"/>
</g>
<!-- Node32&#45;&gt;Node8 -->
<g id="edge109" class="edge">
<title>Node32&#45;&gt;Node8</title>
<path fill="none" stroke="midnightblue" d="M1715.61,-718.92C1722.54,-778.92 1761.45,-1096.1 1818,-1173.1 1863.26,-1234.73 1921.34,-1197.77 1967,-1259.1 2008.46,-1314.79 1948.55,-1368.03 2003,-1411.1 2112.81,-1497.94 2203.51,-1491.67 2318,-1411.1 2414.09,-1343.47 2425.9,-1182.85 2427.03,-1126.8"/>
<polygon fill="midnightblue" stroke="midnightblue" points="2430.53,-1126.81 2427.13,-1116.77 2423.53,-1126.74 2430.53,-1126.81"/>
</g>
<!-- Node33 -->
<g id="node33" class="node">
<title>Node33</title>
<g id="a_node33"><a xlink:href="../../d0/dfe/class_syntax_analyzer.html#a8f6dda26a96ec0e5e75bea5eed577856" target="_top" xlink:title=" ">
<polygon fill="none" stroke="black" points="1818,-775.6 1818,-794.6 1967,-794.6 1967,-775.6 1818,-775.6"/>
<text text-anchor="middle" x="1892.5" y="-782.6" font-family="Helvetica,sans-Serif" font-size="10.00">SyntaxAnalyzer::syntaxVarDecl</text>
</a>
</g>
</g>
<!-- Node32&#45;&gt;Node33 -->
<g id="edge110" class="edge">
<title>Node32&#45;&gt;Node33</title>
<path fill="none" stroke="midnightblue" d="M1743.32,-718.62C1755.38,-722.79 1769.47,-727.91 1782,-733.1 1810.29,-744.81 1841.78,-760 1863.71,-770.94"/>
<polygon fill="midnightblue" stroke="midnightblue" points="1862.27,-774.13 1872.77,-775.49 1865.41,-767.87 1862.27,-774.13"/>
</g>
<!-- Node33&#45;&gt;Node2 -->
<g id="edge111" class="edge">
<title>Node33&#45;&gt;Node2</title>
<path fill="none" stroke="midnightblue" d="M1895.93,-794.6C1906.18,-834.07 1947.92,-988.47 2003,-1107.1 2061.1,-1232.23 2104.06,-1248.36 2163,-1373.1 2204.98,-1461.93 2239.16,-1574.75 2252.01,-1619.52"/>
<polygon fill="midnightblue" stroke="midnightblue" points="2248.65,-1620.49 2254.75,-1629.15 2255.39,-1618.58 2248.65,-1620.49"/>
</g>
<!-- Node33&#45;&gt;Node7 -->
<g id="edge112" class="edge">
<title>Node33&#45;&gt;Node7</title>
<path fill="none" stroke="midnightblue" d="M1950.63,-775.54C2009.56,-763.19 2101.3,-736.69 2163,-684.1 2210.82,-643.33 2239.62,-571.97 2251.36,-537.63"/>
<polygon fill="midnightblue" stroke="midnightblue" points="2254.77,-538.47 2254.58,-527.88 2248.12,-536.28 2254.77,-538.47"/>
</g>
<!-- Node33&#45;&gt;Node8 -->
<g id="edge113" class="edge">
<title>Node33&#45;&gt;Node8</title>
<path fill="none" stroke="midnightblue" d="M1907.96,-794.66C1923.96,-805.79 1949.74,-825.42 1967,-847.1 1988.79,-874.46 1976.96,-893.74 2003,-917.1 2114.63,-1017.25 2183.99,-970.77 2318,-1038.1 2349.7,-1054.02 2383.89,-1076.65 2405.36,-1091.6"/>
<polygon fill="midnightblue" stroke="midnightblue" points="2403.55,-1094.6 2413.74,-1097.49 2407.58,-1088.87 2403.55,-1094.6"/>
</g>
<!-- Node34 -->
<g id="node34" class="node">
<title>Node34</title>
<g id="a_node34"><a xlink:href="../../d0/dfe/class_syntax_analyzer.html#a5d262eb9e2236dde3bd043eea0b0e957" target="_top" xlink:title=" ">
<polygon fill="none" stroke="black" points="2004,-812.6 2004,-831.6 2162,-831.6 2162,-812.6 2004,-812.6"/>
<text text-anchor="middle" x="2083" y="-819.6" font-family="Helvetica,sans-Serif" font-size="10.00">SyntaxAnalyzer::syntaxTypeSpec</text>
</a>
</g>
</g>
<!-- Node33&#45;&gt;Node34 -->
<g id="edge114" class="edge">
<title>Node33&#45;&gt;Node34</title>
<path fill="none" stroke="midnightblue" d="M1942.04,-794.63C1966.79,-799.49 1997.09,-805.43 2023.16,-810.55"/>
<polygon fill="midnightblue" stroke="midnightblue" points="2022.81,-814.05 2033.29,-812.54 2024.16,-807.18 2022.81,-814.05"/>
</g>
<!-- Node34&#45;&gt;Node2 -->
<g id="edge115" class="edge">
<title>Node34&#45;&gt;Node2</title>
<path fill="none" stroke="midnightblue" d="M2106.71,-831.73C2125.35,-840.95 2150.61,-856.77 2163,-879.1 2220.5,-982.7 2180.2,-1294.11 2199,-1411.1 2211.63,-1489.65 2238.88,-1580.6 2251.21,-1619.65"/>
<polygon fill="midnightblue" stroke="midnightblue" points="2247.9,-1620.77 2254.27,-1629.24 2254.57,-1618.64 2247.9,-1620.77"/>
</g>
<!-- Node34&#45;&gt;Node3 -->
<g id="edge118" class="edge">
<title>Node34&#45;&gt;Node3</title>
<path fill="none" stroke="midnightblue" d="M2119.35,-812.6C2165.93,-801.73 2249.92,-787.88 2318,-808.1 2353.8,-818.73 2388.84,-845.26 2409.15,-862.7"/>
<polygon fill="midnightblue" stroke="midnightblue" points="2407.1,-865.56 2416.92,-869.55 2411.73,-860.31 2407.1,-865.56"/>
</g>
<!-- Node34&#45;&gt;Node7 -->
<g id="edge116" class="edge">
<title>Node34&#45;&gt;Node7</title>
<path fill="none" stroke="midnightblue" d="M2139.95,-812.46C2148.44,-809.03 2156.52,-804.39 2163,-798.1 2165.47,-795.7 2230.21,-600.54 2251.08,-537.5"/>
<polygon fill="midnightblue" stroke="midnightblue" points="2254.53,-538.24 2254.34,-527.64 2247.88,-536.04 2254.53,-538.24"/>
</g>
<!-- Node34&#45;&gt;Node8 -->
<g id="edge119" class="edge">
<title>Node34&#45;&gt;Node8</title>
<path fill="none" stroke="midnightblue" d="M2131.1,-812.54C2182.2,-804.98 2263.72,-801.4 2318,-841.1 2339.38,-856.73 2400.25,-1029.35 2420.42,-1087.85"/>
<polygon fill="midnightblue" stroke="midnightblue" points="2417.14,-1089.06 2423.69,-1097.38 2423.76,-1086.78 2417.14,-1089.06"/>
</g>
<!-- Node34&#45;&gt;Node21 -->
<g id="edge117" class="edge">
<title>Node34&#45;&gt;Node21</title>
<path fill="none" stroke="midnightblue" d="M2127.78,-831.69C2150.99,-836.77 2179.68,-843.05 2204.17,-848.42"/>
<polygon fill="midnightblue" stroke="midnightblue" points="2203.52,-851.86 2214.03,-850.58 2205.01,-845.02 2203.52,-851.86"/>
</g>
</g>
</svg>
