<?xml version="1.0" encoding="UTF-8" standalone="no"?>
<!DOCTYPE svg PUBLIC "-//W3C//DTD SVG 1.1//EN"
 "http://www.w3.org/Graphics/SVG/1.1/DTD/svg11.dtd">
<!-- Generated by graphviz version 3.0.0 (20220413.0106)
 -->
<!-- Title: SyntaxAnalyzer::getCurTok Pages: 1 -->
<svg width="3449pt" height="1764pt"
 viewBox="0.00 0.00 3449.00 1764.42" xmlns="http://www.w3.org/2000/svg" xmlns:xlink="http://www.w3.org/1999/xlink">
<g id="graph0" class="graph" transform="scale(1 1) rotate(0) translate(4 1760.42)">
<title>SyntaxAnalyzer::getCurTok</title>
<!-- Node1 -->
<g id="node1" class="node">
<title>Node1</title>
<g id="a_node1"><a xlink:title=" ">
<polygon fill="#bfbfbf" stroke="black" points="3309,-674.98 3309,-693.98 3441,-693.98 3441,-674.98 3309,-674.98"/>
<text text-anchor="middle" x="3375" y="-681.98" font-family="Helvetica,sans-Serif" font-size="10.00">SyntaxAnalyzer::getCurTok</text>
</a>
</g>
</g>
<!-- Node2 -->
<g id="node2" class="node">
<title>Node2</title>
<g id="a_node2"><a xlink:href="../../d0/dfe/class_syntax_analyzer.html#addbd9bc0fe0dae8cd2ddb4fbafea0fcc" target="_top" xlink:title="Синтаксический анализ токенов, переданных анализатору.">
<polygon fill="none" stroke="black" points="213,-1652.98 213,-1671.98 365,-1671.98 365,-1652.98 213,-1652.98"/>
<text text-anchor="middle" x="289" y="-1659.98" font-family="Helvetica,sans-Serif" font-size="10.00">SyntaxAnalyzer::analyzeTokens</text>
</a>
</g>
</g>
<!-- Node1&#45;&gt;Node2 -->
<g id="edge1" class="edge">
<title>Node1&#45;&gt;Node2</title>
<path fill="none" stroke="midnightblue" d="M3373.46,-704.27C3369.59,-840.08 3344.09,-1631.06 3273,-1707.48 3201.74,-1784.1 3145.63,-1747.48 3041,-1747.48 3041,-1747.48 3041,-1747.48 664,-1747.48 529.16,-1747.48 373.63,-1694.3 314.51,-1672.07"/>
<polygon fill="midnightblue" stroke="midnightblue" points="3376.97,-704.2 3373.75,-694.1 3369.97,-704 3376.97,-704.2"/>
</g>
<!-- Node6 -->
<g id="node6" class="node">
<title>Node6</title>
<g id="a_node6"><a xlink:href="../../d0/dfe/class_syntax_analyzer.html#ae1d3434e5cc4b4bcd5a3a245814a44f0" target="_top" xlink:title="Пропускает текущий токен, если он указанного типа. Иначе выбрасывается исключение">
<polygon fill="none" stroke="black" points="3163.5,-940.98 3163.5,-959.98 3264.5,-959.98 3264.5,-940.98 3163.5,-940.98"/>
<text text-anchor="middle" x="3214" y="-947.98" font-family="Helvetica,sans-Serif" font-size="10.00">SyntaxAnalyzer::eat</text>
</a>
</g>
</g>
<!-- Node1&#45;&gt;Node6 -->
<g id="edge5" class="edge">
<title>Node1&#45;&gt;Node6</title>
<path fill="none" stroke="midnightblue" d="M3362.85,-703.14C3331.6,-755.41 3244,-901.97 3220.73,-940.89"/>
<polygon fill="midnightblue" stroke="midnightblue" points="3366.03,-704.64 3368.15,-694.26 3360.02,-701.05 3366.03,-704.64"/>
</g>
<!-- Node7 -->
<g id="node7" class="node">
<title>Node7</title>
<g id="a_node7"><a xlink:href="../../d0/dfe/class_syntax_analyzer.html#a3e87b8ffb5f24f1db097bfb6aaeb8c2d" target="_top" xlink:title=" ">
<polygon fill="none" stroke="black" points="1846,-351.98 1846,-370.98 2001,-370.98 2001,-351.98 1846,-351.98"/>
<text text-anchor="middle" x="1923.5" y="-358.98" font-family="Helvetica,sans-Serif" font-size="10.00">SyntaxAnalyzer::syntaxAssignSt</text>
</a>
</g>
</g>
<!-- Node1&#45;&gt;Node7 -->
<g id="edge78" class="edge">
<title>Node1&#45;&gt;Node7</title>
<path fill="none" stroke="midnightblue" d="M3371.83,-664.96C3363.11,-589.8 3328.44,-320.18 3273,-257.48 3200.16,-175.1 3150.97,-171.48 3041,-171.48 3041,-171.48 3041,-171.48 2849.5,-171.48 2668,-171.48 2201.7,-178.24 2037,-254.48 1987.83,-277.24 1946.52,-330.22 1931.04,-351.94"/>
<polygon fill="midnightblue" stroke="midnightblue" points="3368.36,-665.41 3372.97,-674.95 3375.31,-664.62 3368.36,-665.41"/>
</g>
<!-- Node8 -->
<g id="node8" class="node">
<title>Node8</title>
<g id="a_node8"><a xlink:href="../../d0/dfe/class_syntax_analyzer.html#acef4b19447f253a6e25d762733ca8ede" target="_top" xlink:title=" ">
<polygon fill="none" stroke="black" points="1681,-541.98 1681,-560.98 1810,-560.98 1810,-541.98 1681,-541.98"/>
<text text-anchor="middle" x="1745.5" y="-548.98" font-family="Helvetica,sans-Serif" font-size="10.00">SyntaxAnalyzer::syntaxIter</text>
</a>
</g>
</g>
<!-- Node1&#45;&gt;Node8 -->
<g id="edge88" class="edge">
<title>Node1&#45;&gt;Node8</title>
<path fill="none" stroke="midnightblue" d="M3365.9,-665.52C3334.92,-596.34 3216.82,-361.48 3041,-361.48 3041,-361.48 3041,-361.48 2670.5,-361.48 2308.15,-361.48 1881.95,-503.4 1772.92,-541.93"/>
<polygon fill="midnightblue" stroke="midnightblue" points="3362.75,-667.07 3369.98,-674.82 3369.16,-664.25 3362.75,-667.07"/>
</g>
<!-- Node9 -->
<g id="node9" class="node">
<title>Node9</title>
<g id="a_node9"><a xlink:href="../../d0/dfe/class_syntax_analyzer.html#afd2005539c57ee2575cab3c50d061cd9" target="_top" xlink:title=" ">
<polygon fill="none" stroke="black" points="1506,-655.98 1506,-674.98 1645,-674.98 1645,-655.98 1506,-655.98"/>
<text text-anchor="middle" x="1575.5" y="-662.98" font-family="Helvetica,sans-Serif" font-size="10.00">SyntaxAnalyzer::syntaxForSt</text>
</a>
</g>
</g>
<!-- Node1&#45;&gt;Node9 -->
<g id="edge85" class="edge">
<title>Node1&#45;&gt;Node9</title>
<path fill="none" stroke="midnightblue" d="M3372.95,-664.53C3368.05,-579.16 3344.55,-245.84 3273,-175.48 3198.28,-102.01 3145.79,-133.48 3041,-133.48 3041,-133.48 3041,-133.48 2670.5,-133.48 2387.08,-133.48 2301.57,-104.85 2037,-206.48 1793.59,-299.98 1614.51,-598.47 1581.85,-655.88"/>
<polygon fill="midnightblue" stroke="midnightblue" points="3369.47,-664.89 3373.51,-674.68 3376.46,-664.5 3369.47,-664.89"/>
</g>
<!-- Node10 -->
<g id="node10" class="node">
<title>Node10</title>
<g id="a_node10"><a xlink:href="../../d0/dfe/class_syntax_analyzer.html#a1332b189c9be3ef8969eda9f078a97b3" target="_top" xlink:title=" ">
<polygon fill="none" stroke="black" points="1345,-684.98 1345,-703.98 1470,-703.98 1470,-684.98 1345,-684.98"/>
<text text-anchor="middle" x="1407.5" y="-691.98" font-family="Helvetica,sans-Serif" font-size="10.00">SyntaxAnalyzer::syntaxSt</text>
</a>
</g>
</g>
<!-- Node1&#45;&gt;Node10 -->
<g id="edge93" class="edge">
<title>Node1&#45;&gt;Node10</title>
<path fill="none" stroke="midnightblue" d="M3373.48,-664.7C3370.65,-573.95 3354.14,-198.74 3273,-122.48 3197.36,-51.39 3144.81,-95.48 3041,-95.48 3041,-95.48 3041,-95.48 1744.5,-95.48 1462.51,-95.48 1414.78,-606.7 1409.14,-684.59"/>
<polygon fill="midnightblue" stroke="midnightblue" points="3369.99,-665.05 3373.77,-674.94 3376.98,-664.84 3369.99,-665.05"/>
</g>
<!-- Node11 -->
<g id="node11" class="node">
<title>Node11</title>
<g id="a_node11"><a xlink:href="../../d0/dfe/class_syntax_analyzer.html#a44506791ee9420b418715a9e87908aeb" target="_top" xlink:title=" ">
<polygon fill="none" stroke="black" points="1169,-997.98 1169,-1016.98 1300,-1016.98 1300,-997.98 1169,-997.98"/>
<text text-anchor="middle" x="1234.5" y="-1004.98" font-family="Helvetica,sans-Serif" font-size="10.00">SyntaxAnalyzer::syntaxIfSt</text>
</a>
</g>
</g>
<!-- Node1&#45;&gt;Node11 -->
<g id="edge87" class="edge">
<title>Node1&#45;&gt;Node11</title>
<path fill="none" stroke="midnightblue" d="M3373.91,-704.52C3373.03,-800.63 3363.92,-1212.92 3273,-1292.48 3072.06,-1468.33 2939.52,-1311.48 2672.5,-1311.48 2672.5,-1311.48 2672.5,-1311.48 2484,-1311.48 2199.64,-1311.48 2123.52,-1325.44 1846,-1263.48 1613.43,-1211.56 1533.91,-1217.74 1345,-1072.48 1323.29,-1055.79 1331.99,-1037.35 1309,-1022.48 1305.83,-1020.43 1302.43,-1018.65 1298.9,-1017.11"/>
<polygon fill="midnightblue" stroke="midnightblue" points="3377.41,-704.44 3373.98,-694.41 3370.41,-704.39 3377.41,-704.44"/>
</g>
<!-- Node12 -->
<g id="node12" class="node">
<title>Node12</title>
<g id="a_node12"><a xlink:href="../../d0/dfe/class_syntax_analyzer.html#a01d109f26cc4d069b40fed83435e3141" target="_top" xlink:title=" ">
<polygon fill="none" stroke="black" points="1164,-384.98 1164,-403.98 1305,-403.98 1305,-384.98 1164,-384.98"/>
<text text-anchor="middle" x="1234.5" y="-391.98" font-family="Helvetica,sans-Serif" font-size="10.00">SyntaxAnalyzer::syntaxStList</text>
</a>
</g>
</g>
<!-- Node1&#45;&gt;Node12 -->
<g id="edge94" class="edge">
<title>Node1&#45;&gt;Node12</title>
<path fill="none" stroke="midnightblue" d="M3373.81,-664.58C3372.48,-569.1 3361.59,-159.35 3273,-77.48 3196.99,-7.24 3144.49,-57.48 3041,-57.48 3041,-57.48 3041,-57.48 1574.5,-57.48 1463.41,-57.48 1424.48,-78.88 1345,-156.48 1274.05,-225.75 1244.53,-349.63 1237.33,-384.89"/>
<polygon fill="midnightblue" stroke="midnightblue" points="3370.31,-664.66 3373.93,-674.62 3377.31,-664.58 3370.31,-664.66"/>
</g>
<!-- Node13 -->
<g id="node13" class="node">
<title>Node13</title>
<g id="a_node13"><a xlink:href="../../d0/dfe/class_syntax_analyzer.html#a1390f811b111005b207bd039d2623dd4" target="_top" xlink:title=" ">
<polygon fill="none" stroke="black" points="953,-684.98 953,-703.98 1124,-703.98 1124,-684.98 953,-684.98"/>
<text text-anchor="middle" x="1038.5" y="-691.98" font-family="Helvetica,sans-Serif" font-size="10.00">SyntaxAnalyzer::syntaxCompoundSt</text>
</a>
</g>
</g>
<!-- Node1&#45;&gt;Node13 -->
<g id="edge80" class="edge">
<title>Node1&#45;&gt;Node13</title>
<path fill="none" stroke="midnightblue" d="M3374.06,-664.81C3373.94,-565.87 3368.03,-124.07 3273,-36.48 3196.98,33.59 3144.39,-19.48 3041,-19.48 3041,-19.48 3041,-19.48 1406.5,-19.48 1089.03,-19.48 1044.65,-602.9 1039.98,-684.94"/>
<polygon fill="midnightblue" stroke="midnightblue" points="3370.56,-664.9 3374.06,-674.9 3377.56,-664.91 3370.56,-664.9"/>
</g>
<!-- Node15 -->
<g id="node15" class="node">
<title>Node15</title>
<g id="a_node15"><a xlink:href="../../d0/dfe/class_syntax_analyzer.html#a4dc8338b4fc879f36e63f27fe3ce7041" target="_top" xlink:title=" ">
<polygon fill="none" stroke="black" points="589,-1567.98 589,-1586.98 741,-1586.98 741,-1567.98 589,-1567.98"/>
<text text-anchor="middle" x="665" y="-1574.98" font-family="Helvetica,sans-Serif" font-size="10.00">SyntaxAnalyzer::syntaxFuncDef</text>
</a>
</g>
</g>
<!-- Node1&#45;&gt;Node15 -->
<g id="edge86" class="edge">
<title>Node1&#45;&gt;Node15</title>
<path fill="none" stroke="midnightblue" d="M3373.29,-704.39C3368.5,-834.57 3338.86,-1561.23 3273,-1631.48 3201.44,-1707.82 3145.63,-1671.48 3041,-1671.48 3041,-1671.48 3041,-1671.48 1037.5,-1671.48 919.69,-1671.48 890.04,-1655.67 777,-1622.48 744.28,-1612.88 707.93,-1597.11 686.03,-1587.02"/>
<polygon fill="midnightblue" stroke="midnightblue" points="3376.8,-704.39 3373.66,-694.27 3369.8,-704.14 3376.8,-704.39"/>
</g>
<!-- Node16 -->
<g id="node16" class="node">
<title>Node16</title>
<g id="a_node16"><a xlink:href="../../d0/dfe/class_syntax_analyzer.html#ada547456d19f4a7490f57f7dc9bfed94" target="_top" xlink:title=" ">
<polygon fill="none" stroke="black" points="401,-1567.98 401,-1586.98 553,-1586.98 553,-1567.98 401,-1567.98"/>
<text text-anchor="middle" x="477" y="-1574.98" font-family="Helvetica,sans-Serif" font-size="10.00">SyntaxAnalyzer::syntaxProgram</text>
</a>
</g>
</g>
<!-- Node1&#45;&gt;Node16 -->
<g id="edge89" class="edge">
<title>Node1&#45;&gt;Node16</title>
<path fill="none" stroke="midnightblue" d="M3373.38,-704.35C3369.05,-837.42 3341.47,-1596.15 3273,-1669.48 3201.59,-1745.96 3145.63,-1709.48 3041,-1709.48 3041,-1709.48 3041,-1709.48 846,-1709.48 701.09,-1709.48 541.93,-1617.67 493.08,-1587.19"/>
<polygon fill="midnightblue" stroke="midnightblue" points="3376.89,-704.15 3373.71,-694.05 3369.89,-703.93 3376.89,-704.15"/>
</g>
<!-- Node17 -->
<g id="node17" class="node">
<title>Node17</title>
<g id="a_node17"><a xlink:href="../../d0/dfe/class_syntax_analyzer.html#a4a85e884f3f202c24ce09cc0c0e281b1" target="_top" xlink:title=" ">
<polygon fill="none" stroke="black" points="1160,-921.98 1160,-940.98 1309,-940.98 1309,-921.98 1160,-921.98"/>
<text text-anchor="middle" x="1234.5" y="-928.98" font-family="Helvetica,sans-Serif" font-size="10.00">SyntaxAnalyzer::syntaxWhileSt</text>
</a>
</g>
</g>
<!-- Node1&#45;&gt;Node17 -->
<g id="edge100" class="edge">
<title>Node1&#45;&gt;Node17</title>
<path fill="none" stroke="midnightblue" d="M3371.92,-704.08C3360.32,-802.2 3294.74,-1235.48 3041,-1235.48 3041,-1235.48 3041,-1235.48 2484,-1235.48 1965.25,-1235.48 1837.34,-1143.91 1345,-980.48 1311.99,-969.52 1275.45,-952.01 1254.03,-941.16"/>
<polygon fill="midnightblue" stroke="midnightblue" points="3375.41,-704.38 3373.05,-694.05 3368.45,-703.59 3375.41,-704.38"/>
</g>
<!-- Node18 -->
<g id="node18" class="node">
<title>Node18</title>
<g id="a_node18"><a xlink:href="../../d0/dfe/class_syntax_analyzer.html#a21f6ed68cce9f38063319d350afc1239" target="_top" xlink:title=" ">
<polygon fill="none" stroke="black" points="2969.5,-579.98 2969.5,-598.98 3110.5,-598.98 3110.5,-579.98 2969.5,-579.98"/>
<text text-anchor="middle" x="3040" y="-586.98" font-family="Helvetica,sans-Serif" font-size="10.00">SyntaxAnalyzer::syntaxCallSt</text>
</a>
</g>
</g>
<!-- Node1&#45;&gt;Node18 -->
<g id="edge79" class="edge">
<title>Node1&#45;&gt;Node18</title>
<path fill="none" stroke="midnightblue" d="M3356.62,-667.99C3337.68,-651.13 3305.7,-625.71 3273,-613.48 3220.85,-593.98 3157.79,-588.5 3110.59,-587.61"/>
<polygon fill="midnightblue" stroke="midnightblue" points="3354.38,-670.69 3364.13,-674.85 3359.1,-665.52 3354.38,-670.69"/>
</g>
<!-- Node19 -->
<g id="node19" class="node">
<title>Node19</title>
<g id="a_node19"><a xlink:href="../../d0/dfe/class_syntax_analyzer.html#a0d5fca8c5ec85c61bcf65df3693ce384" target="_top" xlink:title=" ">
<polygon fill="none" stroke="black" points="2779,-579.98 2779,-598.98 2922,-598.98 2922,-579.98 2779,-579.98"/>
<text text-anchor="middle" x="2850.5" y="-586.98" font-family="Helvetica,sans-Serif" font-size="10.00">SyntaxAnalyzer::syntaxFactor</text>
</a>
</g>
</g>
<!-- Node1&#45;&gt;Node19 -->
<g id="edge84" class="edge">
<title>Node1&#45;&gt;Node19</title>
<path fill="none" stroke="midnightblue" d="M3361.7,-666.39C3344.77,-643.14 3311.9,-603.62 3273,-585.48 3140.68,-523.79 2958.61,-560.68 2884.69,-579.97"/>
<polygon fill="midnightblue" stroke="midnightblue" points="3358.95,-668.56 3367.58,-674.7 3364.66,-664.52 3358.95,-668.56"/>
</g>
<!-- Node20 -->
<g id="node20" class="node">
<title>Node20</title>
<g id="a_node20"><a xlink:href="../../d0/dfe/class_syntax_analyzer.html#a1f83850370eb120ec67a6cc19ce99e2e" target="_top" xlink:title=" ">
<polygon fill="none" stroke="black" points="2603,-807.98 2603,-826.98 2740,-826.98 2740,-807.98 2603,-807.98"/>
<text text-anchor="middle" x="2671.5" y="-814.98" font-family="Helvetica,sans-Serif" font-size="10.00">SyntaxAnalyzer::syntaxTerm</text>
</a>
</g>
</g>
<!-- Node1&#45;&gt;Node20 -->
<g id="edge95" class="edge">
<title>Node1&#45;&gt;Node20</title>
<path fill="none" stroke="midnightblue" d="M3298.79,-675.93C3215.14,-668.58 3076.55,-662.92 2961,-689.48 2855.21,-713.8 2840.37,-752.14 2740,-793.48 2727.46,-798.65 2713.37,-803.76 2701.31,-807.94"/>
<polygon fill="midnightblue" stroke="midnightblue" points="3298.69,-679.43 3308.97,-676.85 3299.32,-672.46 3298.69,-679.43"/>
</g>
<!-- Node21 -->
<g id="node21" class="node">
<title>Node21</title>
<g id="a_node21"><a xlink:href="../../d0/dfe/class_syntax_analyzer.html#a65d458f8a460cd5153c013f9dc2b6d90" target="_top" xlink:title=" ">
<polygon fill="none" stroke="black" points="2403,-826.98 2403,-845.98 2567,-845.98 2567,-826.98 2403,-826.98"/>
<text text-anchor="middle" x="2485" y="-833.98" font-family="Helvetica,sans-Serif" font-size="10.00">SyntaxAnalyzer::syntaxSimpleExpr</text>
</a>
</g>
</g>
<!-- Node1&#45;&gt;Node21 -->
<g id="edge92" class="edge">
<title>Node1&#45;&gt;Node21</title>
<path fill="none" stroke="midnightblue" d="M3335.28,-697.16C3237.09,-728.55 2969.88,-809.31 2740,-836.48 2682.52,-843.28 2617.22,-843.1 2567.22,-841.32"/>
<polygon fill="midnightblue" stroke="midnightblue" points="3336.61,-700.41 3345.06,-694.01 3334.46,-693.74 3336.61,-700.41"/>
</g>
<!-- Node22 -->
<g id="node22" class="node">
<title>Node22</title>
<g id="a_node22"><a xlink:href="../../d0/dfe/class_syntax_analyzer.html#a3c3f51ab7cdb341ac4fa460e352150ae" target="_top" xlink:title=" ">
<polygon fill="none" stroke="black" points="2233,-769.98 2233,-788.98 2367,-788.98 2367,-769.98 2233,-769.98"/>
<text text-anchor="middle" x="2300" y="-776.98" font-family="Helvetica,sans-Serif" font-size="10.00">SyntaxAnalyzer::syntaxExpr</text>
</a>
</g>
</g>
<!-- Node1&#45;&gt;Node22 -->
<g id="edge83" class="edge">
<title>Node1&#45;&gt;Node22</title>
<path fill="none" stroke="midnightblue" d="M3322.82,-672.94C3306.94,-669.88 3289.32,-667 3273,-665.48 3220.78,-660.61 3207.44,-665.35 3155,-665.48 3068.78,-665.7 3046.91,-659.11 2961,-666.48 2877.94,-673.61 2856.9,-677.35 2776,-697.48 2759.63,-701.55 2756.18,-704.73 2740,-709.48 2663.87,-731.82 2645.15,-739.81 2567,-753.48 2499.47,-765.3 2421.28,-772.14 2367.24,-775.81"/>
<polygon fill="midnightblue" stroke="midnightblue" points="3322.48,-676.45 3332.97,-674.97 3323.85,-669.58 3322.48,-676.45"/>
</g>
<!-- Node23 -->
<g id="node23" class="node">
<title>Node23</title>
<g id="a_node23"><a xlink:href="../../d0/dfe/class_syntax_analyzer.html#ad43214817dbe71119316f653b4cbbefb" target="_top" xlink:title=" ">
<polygon fill="none" stroke="black" points="2037,-1234.98 2037,-1253.98 2197,-1253.98 2197,-1234.98 2037,-1234.98"/>
<text text-anchor="middle" x="2117" y="-1241.98" font-family="Helvetica,sans-Serif" font-size="10.00">SyntaxAnalyzer::syntaxConstDecl</text>
</a>
</g>
</g>
<!-- Node1&#45;&gt;Node23 -->
<g id="edge81" class="edge">
<title>Node1&#45;&gt;Node23</title>
<path fill="none" stroke="midnightblue" d="M3374.34,-704.26C3375.62,-806.62 3375.77,-1274.87 3273,-1363.48 3188.22,-1436.58 2381.01,-1293.24 2168.87,-1254.02"/>
<polygon fill="midnightblue" stroke="midnightblue" points="3377.83,-704.05 3374.19,-694.1 3370.84,-704.15 3377.83,-704.05"/>
</g>
<!-- Node24 -->
<g id="node24" class="node">
<title>Node24</title>
<g id="a_node24"><a xlink:href="../../d0/dfe/class_syntax_analyzer.html#a177c60c88c15c37d6f5cf0c41a35190b" target="_top" xlink:title=" ">
<polygon fill="none" stroke="black" points="1850.5,-1234.98 1850.5,-1253.98 1996.5,-1253.98 1996.5,-1234.98 1850.5,-1234.98"/>
<text text-anchor="middle" x="1923.5" y="-1241.98" font-family="Helvetica,sans-Serif" font-size="10.00">SyntaxAnalyzer::syntaxConsts</text>
</a>
</g>
</g>
<!-- Node1&#45;&gt;Node24 -->
<g id="edge82" class="edge">
<title>Node1&#45;&gt;Node24</title>
<path fill="none" stroke="midnightblue" d="M3373.27,-704.46C3368.42,-832.06 3338.98,-1529.81 3273,-1594.48 3069.19,-1794.28 2095.13,-1328.25 1944.17,-1254.22"/>
<polygon fill="midnightblue" stroke="midnightblue" points="3376.78,-704.33 3373.65,-694.21 3369.78,-704.07 3376.78,-704.33"/>
</g>
<!-- Node25 -->
<g id="node25" class="node">
<title>Node25</title>
<g id="a_node25"><a xlink:href="../../d0/dfe/class_syntax_analyzer.html#a24dfeabcc9335e5f3f040f7cf0c64fd9" target="_top" xlink:title=" ">
<polygon fill="none" stroke="black" points="2040.5,-731.98 2040.5,-750.98 2193.5,-750.98 2193.5,-731.98 2040.5,-731.98"/>
<text text-anchor="middle" x="2117" y="-738.98" font-family="Helvetica,sans-Serif" font-size="10.00">SyntaxAnalyzer::syntaxReturnSt</text>
</a>
</g>
</g>
<!-- Node1&#45;&gt;Node25 -->
<g id="edge90" class="edge">
<title>Node1&#45;&gt;Node25</title>
<path fill="none" stroke="midnightblue" d="M3366.28,-665.46C3352.66,-634.77 3321.17,-575.28 3273,-550.48 3212.13,-519.14 3187.46,-547.37 3119,-546.48 3048.78,-545.57 3031.08,-541.96 2961,-546.48 2632.33,-567.71 2248.3,-695.61 2144.81,-731.89"/>
<polygon fill="midnightblue" stroke="midnightblue" points="3363.06,-666.84 3370.21,-674.67 3369.5,-664.1 3363.06,-666.84"/>
</g>
<!-- Node26 -->
<g id="node26" class="node">
<title>Node26</title>
<g id="a_node26"><a xlink:href="../../d0/dfe/class_syntax_analyzer.html#aee174af1cc97011051b2a8a87d2a5e7d" target="_top" xlink:title=" ">
<polygon fill="none" stroke="black" points="2045.5,-351.98 2045.5,-370.98 2188.5,-370.98 2188.5,-351.98 2045.5,-351.98"/>
<text text-anchor="middle" x="2117" y="-358.98" font-family="Helvetica,sans-Serif" font-size="10.00">SyntaxAnalyzer::syntaxSelect</text>
</a>
</g>
</g>
<!-- Node1&#45;&gt;Node26 -->
<g id="edge91" class="edge">
<title>Node1&#45;&gt;Node26</title>
<path fill="none" stroke="midnightblue" d="M3371.78,-664.38C3363.41,-592.76 3331.27,-351.83 3273,-306.48 3096.65,-169.24 2353.55,-312.29 2162.78,-351.92"/>
<polygon fill="midnightblue" stroke="midnightblue" points="3368.34,-665.17 3372.95,-674.71 3375.3,-664.38 3368.34,-665.17"/>
</g>
<!-- Node27 -->
<g id="node27" class="node">
<title>Node27</title>
<g id="a_node27"><a xlink:href="../../d0/dfe/class_syntax_analyzer.html#a5ef8e691db1611dd73eff73f011b7780" target="_top" xlink:title=" ">
<polygon fill="none" stroke="black" points="2961,-1529.98 2961,-1548.98 3119,-1548.98 3119,-1529.98 2961,-1529.98"/>
<text text-anchor="middle" x="3040" y="-1536.98" font-family="Helvetica,sans-Serif" font-size="10.00">SyntaxAnalyzer::syntaxTypeSpec</text>
</a>
</g>
</g>
<!-- Node1&#45;&gt;Node27 -->
<g id="edge96" class="edge">
<title>Node1&#45;&gt;Node27</title>
<path fill="none" stroke="midnightblue" d="M3373.05,-704.19C3367.09,-824.48 3333.01,-1456.53 3273,-1515.48 3223.02,-1564.57 3134.64,-1558.27 3082.59,-1549.03"/>
<polygon fill="midnightblue" stroke="midnightblue" points="3376.55,-704.34 3373.54,-694.18 3369.56,-704 3376.55,-704.34"/>
</g>
<!-- Node28 -->
<g id="node28" class="node">
<title>Node28</title>
<g id="a_node28"><a xlink:href="../../d0/dfe/class_syntax_analyzer.html#a51ff8c81c92f9f81aacae95e4c12d00a" target="_top" xlink:title=" ">
<polygon fill="none" stroke="black" points="2776,-1500.98 2776,-1519.98 2925,-1519.98 2925,-1500.98 2776,-1500.98"/>
<text text-anchor="middle" x="2850.5" y="-1507.98" font-family="Helvetica,sans-Serif" font-size="10.00">SyntaxAnalyzer::syntaxVarDecl</text>
</a>
</g>
</g>
<!-- Node1&#45;&gt;Node28 -->
<g id="edge97" class="edge">
<title>Node1&#45;&gt;Node28</title>
<path fill="none" stroke="midnightblue" d="M3373.07,-704.52C3367.12,-828.2 3332.88,-1484.67 3273,-1548.48 3177.73,-1650 3095.13,-1613.78 2961,-1576.48 2921.22,-1565.42 2881.44,-1535.59 2862.66,-1520.11"/>
<polygon fill="midnightblue" stroke="midnightblue" points="3376.58,-704.4 3373.55,-694.25 3369.58,-704.07 3376.58,-704.4"/>
</g>
<!-- Node29 -->
<g id="node29" class="node">
<title>Node29</title>
<g id="a_node29"><a xlink:href="../../d0/dfe/class_syntax_analyzer.html#a9a934470c35c197885531feb377ef5bc" target="_top" xlink:title=" ">
<polygon fill="none" stroke="black" points="2604,-1453.98 2604,-1472.98 2739,-1472.98 2739,-1453.98 2604,-1453.98"/>
<text text-anchor="middle" x="2671.5" y="-1460.98" font-family="Helvetica,sans-Serif" font-size="10.00">SyntaxAnalyzer::syntaxVars</text>
</a>
</g>
</g>
<!-- Node1&#45;&gt;Node29 -->
<g id="edge99" class="edge">
<title>Node1&#45;&gt;Node29</title>
<path fill="none" stroke="midnightblue" d="M3372.86,-704.17C3366.05,-817.97 3329.29,-1388.2 3273,-1439.48 3196.64,-1509.05 2879.18,-1485.36 2739.25,-1471.06"/>
<polygon fill="midnightblue" stroke="midnightblue" points="3376.35,-704.29 3373.45,-694.1 3369.37,-703.88 3376.35,-704.29"/>
</g>
<!-- Node30 -->
<g id="node30" class="node">
<title>Node30</title>
<g id="a_node30"><a xlink:href="../../d0/dfe/class_syntax_analyzer.html#a1aec3b17f02af497c91b295509c6dded" target="_top" xlink:title=" ">
<polygon fill="none" stroke="black" points="2965,-313.98 2965,-332.98 3115,-332.98 3115,-313.98 2965,-313.98"/>
<text text-anchor="middle" x="3040" y="-320.98" font-family="Helvetica,sans-Serif" font-size="10.00">SyntaxAnalyzer::syntaxVariable</text>
</a>
</g>
</g>
<!-- Node1&#45;&gt;Node30 -->
<g id="edge98" class="edge">
<title>Node1&#45;&gt;Node30</title>
<path fill="none" stroke="midnightblue" d="M3370.96,-664.62C3360.47,-598.76 3323.6,-389.36 3273,-347.48 3222.31,-305.53 3142.49,-307.17 3090.95,-313.96"/>
<polygon fill="midnightblue" stroke="midnightblue" points="3367.56,-665.52 3372.56,-674.86 3374.48,-664.44 3367.56,-665.52"/>
</g>
<!-- Node31 -->
<g id="node31" class="node">
<title>Node31</title>
<g id="a_node31"><a xlink:href="../../d0/dfe/class_syntax_analyzer.html#a9952c4a2db0a1382b9c94f40dd535fae" target="_top" xlink:title="Пропускает текущий токен, если он указанного типа. Иначе выбрасывается исключение">
<polygon fill="none" stroke="black" points="3155,-1263.98 3155,-1282.98 3273,-1282.98 3273,-1263.98 3155,-1263.98"/>
<text text-anchor="middle" x="3214" y="-1270.98" font-family="Helvetica,sans-Serif" font-size="10.00">SyntaxAnalyzer::eatAdv</text>
</a>
</g>
</g>
<!-- Node1&#45;&gt;Node31 -->
<g id="edge75" class="edge">
<title>Node1&#45;&gt;Node31</title>
<path fill="none" stroke="midnightblue" d="M3372.95,-704.47C3367.86,-794.6 3343.03,-1162.47 3273,-1249.48 3267.94,-1255.76 3260.96,-1260.42 3253.6,-1263.86"/>
<polygon fill="midnightblue" stroke="midnightblue" points="3376.46,-704.45 3373.51,-694.27 3369.47,-704.06 3376.46,-704.45"/>
</g>
<!-- Node3 -->
<g id="node3" class="node">
<title>Node3</title>
<g id="a_node3"><a xlink:href="../../d1/d80/namespace_analyze.html#a1597f9f086c3276d0287917efbed14b8" target="_top" xlink:title=" ">
<polygon fill="none" stroke="black" points="74,-1671.98 74,-1690.98 177,-1690.98 177,-1671.98 74,-1671.98"/>
<text text-anchor="middle" x="125.5" y="-1678.98" font-family="Helvetica,sans-Serif" font-size="10.00">Analyze::analyzeFile</text>
</a>
</g>
</g>
<!-- Node2&#45;&gt;Node3 -->
<g id="edge2" class="edge">
<title>Node2&#45;&gt;Node3</title>
<path fill="none" stroke="midnightblue" d="M202.76,-1672.51C194.11,-1673.53 185.53,-1674.54 177.41,-1675.49"/>
<polygon fill="midnightblue" stroke="midnightblue" points="203.4,-1675.96 212.92,-1671.31 202.58,-1669.01 203.4,-1675.96"/>
</g>
<!-- Node5 -->
<g id="node5" class="node">
<title>Node5</title>
<g id="a_node5"><a xlink:href="../../db/df9/test_semantic_8cpp.html#a804faf7fd199a3c491020f1f2caa618b" target="_top" xlink:title="Тест семантического анализа Паскаля">
<polygon fill="none" stroke="black" points="105,-1633.98 105,-1652.98 146,-1652.98 146,-1633.98 105,-1633.98"/>
<text text-anchor="middle" x="125.5" y="-1640.98" font-family="Helvetica,sans-Serif" font-size="10.00">TEST</text>
</a>
</g>
</g>
<!-- Node2&#45;&gt;Node5 -->
<g id="edge4" class="edge">
<title>Node2&#45;&gt;Node5</title>
<path fill="none" stroke="midnightblue" d="M202.84,-1652.46C181.63,-1649.97 160.83,-1647.52 146.31,-1645.81"/>
<polygon fill="midnightblue" stroke="midnightblue" points="202.58,-1655.96 212.92,-1653.65 203.4,-1649.01 202.58,-1655.96"/>
</g>
<!-- Node4 -->
<g id="node4" class="node">
<title>Node4</title>
<g id="a_node4"><a xlink:href="../../d3/db4/graph_draw_8cpp.html#a3c04138a5bfe5d72780bb7e82a18e627" target="_top" xlink:title=" ">
<polygon fill="none" stroke="black" points="0,-1671.98 0,-1690.98 38,-1690.98 38,-1671.98 0,-1671.98"/>
<text text-anchor="middle" x="19" y="-1678.98" font-family="Helvetica,sans-Serif" font-size="10.00">main</text>
</a>
</g>
</g>
<!-- Node3&#45;&gt;Node4 -->
<g id="edge3" class="edge">
<title>Node3&#45;&gt;Node4</title>
<path fill="none" stroke="midnightblue" d="M63.7,-1681.48C54.49,-1681.48 45.64,-1681.48 38.35,-1681.48"/>
<polygon fill="midnightblue" stroke="midnightblue" points="63.78,-1684.98 73.78,-1681.48 63.78,-1677.98 63.78,-1684.98"/>
</g>
<!-- Node6&#45;&gt;Node7 -->
<g id="edge6" class="edge">
<title>Node6&#45;&gt;Node7</title>
<path fill="none" stroke="midnightblue" d="M3211.28,-930.4C3204.45,-855.44 3176.74,-593.5 3119,-537.48 3055.94,-476.31 3011.69,-513.77 2925,-499.48 2532.1,-434.74 2430.71,-440.09 2037,-380.48 2017.9,-377.59 1997.04,-374.15 1978.52,-370.99"/>
<polygon fill="midnightblue" stroke="midnightblue" points="3207.83,-931.11 3212.2,-940.76 3214.8,-930.49 3207.83,-931.11"/>
</g>
<!-- Node6&#45;&gt;Node8 -->
<g id="edge53" class="edge">
<title>Node6&#45;&gt;Node8</title>
<path fill="none" stroke="midnightblue" d="M3211.09,-930.41C3203.83,-858.87 3175.52,-618.05 3119,-570.48 3073.4,-532.11 2911.09,-551.48 2851.5,-551.48 2851.5,-551.48 2851.5,-551.48 2116,-551.48 2008.71,-551.48 1883.9,-551.48 1810.25,-551.48"/>
<polygon fill="midnightblue" stroke="midnightblue" points="3207.64,-931.12 3212.1,-940.72 3214.61,-930.43 3207.64,-931.12"/>
</g>
<!-- Node6&#45;&gt;Node9 -->
<g id="edge50" class="edge">
<title>Node6&#45;&gt;Node9</title>
<path fill="none" stroke="midnightblue" d="M3203.69,-931.97C3189.34,-905.45 3159.2,-857.12 3119,-832.48 2802.62,-638.61 2672.05,-665.48 2301,-665.48 2301,-665.48 2301,-665.48 1922.5,-665.48 1826.24,-665.48 1714.91,-665.48 1645.1,-665.48"/>
<polygon fill="midnightblue" stroke="midnightblue" points="3200.67,-933.74 3208.41,-940.98 3206.87,-930.49 3200.67,-933.74"/>
</g>
<!-- Node6&#45;&gt;Node10 -->
<g id="edge58" class="edge">
<title>Node6&#45;&gt;Node10</title>
<path fill="none" stroke="midnightblue" d="M3166.86,-962.5C3098.49,-979.23 2966.02,-1007.48 2851.5,-1007.48 2851.5,-1007.48 2851.5,-1007.48 2116,-1007.48 1808.42,-1007.48 1484.99,-757.02 1420.19,-704.19"/>
<polygon fill="midnightblue" stroke="midnightblue" points="3168,-965.82 3176.87,-960.02 3166.32,-959.03 3168,-965.82"/>
</g>
<!-- Node6&#45;&gt;Node11 -->
<g id="edge52" class="edge">
<title>Node6&#45;&gt;Node11</title>
<path fill="none" stroke="midnightblue" d="M3198.79,-967.97C3181.92,-987.47 3151.88,-1018.39 3119,-1034.48 3010.44,-1087.62 2972.37,-1083.48 2851.5,-1083.48 2851.5,-1083.48 2851.5,-1083.48 1574.5,-1083.48 1454.47,-1083.48 1316.21,-1037.56 1260.58,-1017.11"/>
<polygon fill="midnightblue" stroke="midnightblue" points="3201.62,-970.05 3205.39,-960.14 3196.27,-965.53 3201.62,-970.05"/>
</g>
<!-- Node6&#45;&gt;Node12 -->
<g id="edge59" class="edge">
<title>Node6&#45;&gt;Node12</title>
<path fill="none" stroke="midnightblue" d="M3213.09,-930.45C3213.09,-831.62 3207.98,-397 3119,-304.48 3086.56,-270.76 2679.9,-133.48 2118,-133.48 2118,-133.48 2118,-133.48 1574.5,-133.48 1406.26,-133.48 1270.35,-337.8 1241.27,-384.88"/>
<polygon fill="midnightblue" stroke="midnightblue" points="3209.59,-930.56 3213.07,-940.57 3216.59,-930.58 3209.59,-930.56"/>
</g>
<!-- Node6&#45;&gt;Node13 -->
<g id="edge45" class="edge">
<title>Node6&#45;&gt;Node13</title>
<path fill="none" stroke="midnightblue" d="M3203.88,-969.55C3189.75,-996.86 3159.88,-1046.55 3119,-1071.48 3015.73,-1134.45 2972.45,-1121.48 2851.5,-1121.48 2851.5,-1121.48 2851.5,-1121.48 2299,-1121.48 1976.12,-1121.48 1899.38,-1197.48 1576.5,-1197.48 1576.5,-1197.48 1576.5,-1197.48 1406.5,-1197.48 1309.43,-1197.48 1186.58,-1063.42 1160,-1026.48 1080.13,-915.49 1047.97,-745.94 1041.01,-704.08"/>
<polygon fill="midnightblue" stroke="midnightblue" points="3207.17,-970.79 3208.51,-960.28 3200.91,-967.66 3207.17,-970.79"/>
</g>
<!-- Node6&#45;&gt;Node15 -->
<g id="edge51" class="edge">
<title>Node6&#45;&gt;Node15</title>
<path fill="none" stroke="midnightblue" d="M3209.28,-970.25C3193.38,-1054.5 3131.35,-1380.12 3119,-1398.48 3060.96,-1484.83 3022.68,-1493.67 2925,-1529.48 2740.72,-1597.05 2682.27,-1577.48 2486,-1577.48 2486,-1577.48 2486,-1577.48 1037.5,-1577.48 934.79,-1577.48 816.11,-1577.48 741.07,-1577.48"/>
<polygon fill="midnightblue" stroke="midnightblue" points="3212.76,-970.69 3211.17,-960.22 3205.88,-969.39 3212.76,-970.69"/>
</g>
<!-- Node6&#45;&gt;Node16 -->
<g id="edge54" class="edge">
<title>Node6&#45;&gt;Node16</title>
<path fill="none" stroke="midnightblue" d="M3211.49,-970.46C3206.79,-1018.23 3188.3,-1140.03 3119,-1206.48 3043.8,-1278.59 2776.69,-1349.48 2672.5,-1349.48 2672.5,-1349.48 2672.5,-1349.48 2484,-1349.48 2234.76,-1349.48 2173.74,-1387.48 1924.5,-1387.48 1924.5,-1387.48 1924.5,-1387.48 1574.5,-1387.48 1334.34,-1387.48 1279.66,-1463.48 1039.5,-1463.48 1039.5,-1463.48 1039.5,-1463.48 846,-1463.48 705.21,-1463.48 547.14,-1540.56 495.4,-1567.96"/>
<polygon fill="midnightblue" stroke="midnightblue" points="3215,-970.49 3212.39,-960.22 3208.02,-969.88 3215,-970.49"/>
</g>
<!-- Node6&#45;&gt;Node17 -->
<g id="edge74" class="edge">
<title>Node6&#45;&gt;Node17</title>
<path fill="none" stroke="midnightblue" d="M3190.11,-965.37C3171.64,-976.69 3144.6,-991.78 3119,-1000.48 3004.86,-1039.29 2972.06,-1045.48 2851.5,-1045.48 2851.5,-1045.48 2851.5,-1045.48 2116,-1045.48 1791.53,-1045.48 1405.34,-968.4 1278.31,-941.01"/>
<polygon fill="midnightblue" stroke="midnightblue" points="3192.07,-968.27 3198.69,-959.99 3188.36,-962.33 3192.07,-968.27"/>
</g>
<!-- Node6&#45;&gt;Node18 -->
<g id="edge24" class="edge">
<title>Node6&#45;&gt;Node18</title>
<path fill="none" stroke="midnightblue" d="M3205.83,-931.42C3190.98,-892.48 3155.24,-801.24 3119,-727.48 3094.73,-678.08 3060.77,-621.64 3047.08,-599.31"/>
<polygon fill="midnightblue" stroke="midnightblue" points="3202.62,-932.85 3209.44,-940.96 3209.17,-930.37 3202.62,-932.85"/>
</g>
<!-- Node6&#45;&gt;Node19 -->
<g id="edge49" class="edge">
<title>Node6&#45;&gt;Node19</title>
<path fill="none" stroke="midnightblue" d="M3206.81,-930.8C3194.68,-894.69 3164.91,-816.84 3119,-765.48 3044.71,-682.39 2922.7,-621.49 2873.29,-599"/>
<polygon fill="midnightblue" stroke="midnightblue" points="3203.57,-932.18 3210,-940.6 3210.23,-930 3203.57,-932.18"/>
</g>
<!-- Node6&#45;&gt;Node20 -->
<g id="edge60" class="edge">
<title>Node6&#45;&gt;Node20</title>
<path fill="none" stroke="midnightblue" d="M3196.72,-933.97C3179.18,-917.27 3149.64,-892.17 3119,-879.48 2992.45,-827.1 2830.27,-817.36 2740.31,-816.44"/>
<polygon fill="midnightblue" stroke="midnightblue" points="3194.3,-936.49 3203.9,-940.98 3199.19,-931.49 3194.3,-936.49"/>
</g>
<!-- Node6&#45;&gt;Node21 -->
<g id="edge57" class="edge">
<title>Node6&#45;&gt;Node21</title>
<path fill="none" stroke="midnightblue" d="M3181.25,-937.15C3163.29,-930.17 3140.24,-922.13 3119,-917.48 2893.99,-868.3 2829.44,-911.59 2603,-869.48 2572.29,-863.77 2537.98,-853.64 2514.5,-846.1"/>
<polygon fill="midnightblue" stroke="midnightblue" points="3180.07,-940.45 3190.66,-940.89 3182.66,-933.94 3180.07,-940.45"/>
</g>
<!-- Node6&#45;&gt;Node22 -->
<g id="edge48" class="edge">
<title>Node6&#45;&gt;Node22</title>
<path fill="none" stroke="midnightblue" d="M3153.08,-954.89C3014.58,-962.7 2664.11,-968.73 2403,-855.48 2364.91,-838.96 2327.76,-805.72 2310.7,-789.22"/>
<polygon fill="midnightblue" stroke="midnightblue" points="3153.7,-958.36 3163.47,-954.28 3153.28,-951.37 3153.7,-958.36"/>
</g>
<!-- Node6&#45;&gt;Node23 -->
<g id="edge46" class="edge">
<title>Node6&#45;&gt;Node23</title>
<path fill="none" stroke="midnightblue" d="M3211.26,-970.35C3206.17,-1015.11 3187.05,-1123.8 3119,-1173.48 3022.6,-1243.87 2970.87,-1197.48 2851.5,-1197.48 2851.5,-1197.48 2851.5,-1197.48 2484,-1197.48 2367.4,-1197.48 2231.61,-1221.24 2162.84,-1234.97"/>
<polygon fill="midnightblue" stroke="midnightblue" points="3214.76,-970.5 3212.29,-960.19 3207.8,-969.79 3214.76,-970.5"/>
</g>
<!-- Node6&#45;&gt;Node24 -->
<g id="edge47" class="edge">
<title>Node6&#45;&gt;Node24</title>
<path fill="none" stroke="midnightblue" d="M3209.47,-970.17C3201.31,-1009.2 3177.23,-1096.06 3119,-1135.48 3020.15,-1202.4 2970.87,-1159.48 2851.5,-1159.48 2851.5,-1159.48 2851.5,-1159.48 2299,-1159.48 2163.99,-1159.48 2008.24,-1212.67 1949.04,-1234.9"/>
<polygon fill="midnightblue" stroke="midnightblue" points="3212.91,-970.78 3211.4,-960.3 3206.04,-969.44 3212.91,-970.78"/>
</g>
<!-- Node6&#45;&gt;Node25 -->
<g id="edge55" class="edge">
<title>Node6&#45;&gt;Node25</title>
<path fill="none" stroke="midnightblue" d="M3153.14,-948.93C3017.53,-944.22 2677.37,-925.78 2403,-855.48 2325.8,-835.7 2306.65,-828.91 2233,-798.48 2197.58,-783.85 2157.84,-763.15 2135.58,-751.14"/>
<polygon fill="midnightblue" stroke="midnightblue" points="3153.2,-952.43 3163.31,-949.27 3153.44,-945.43 3153.2,-952.43"/>
</g>
<!-- Node6&#45;&gt;Node26 -->
<g id="edge56" class="edge">
<title>Node6&#45;&gt;Node26</title>
<path fill="none" stroke="midnightblue" d="M3212.05,-930.56C3207.69,-847.43 3186.75,-529.47 3119,-461.48 3056.98,-399.25 3012.06,-435.31 2925,-423.48 2654.36,-386.71 2329.46,-370.03 2188.73,-364.14"/>
<polygon fill="midnightblue" stroke="midnightblue" points="3208.56,-930.86 3212.56,-940.68 3215.56,-930.51 3208.56,-930.86"/>
</g>
<!-- Node6&#45;&gt;Node27 -->
<g id="edge61" class="edge">
<title>Node6&#45;&gt;Node27</title>
<path fill="none" stroke="midnightblue" d="M3209.03,-970.22C3199.35,-1018.59 3173.93,-1146.95 3155,-1254.48 3137.59,-1353.36 3169.72,-1390.84 3119,-1477.48 3105.02,-1501.37 3078.04,-1519.62 3059.78,-1529.94"/>
<polygon fill="midnightblue" stroke="midnightblue" points="3212.51,-970.67 3211.05,-960.18 3205.65,-969.29 3212.51,-970.67"/>
</g>
<!-- Node6&#45;&gt;Node28 -->
<g id="edge68" class="edge">
<title>Node6&#45;&gt;Node28</title>
<path fill="none" stroke="midnightblue" d="M3209.93,-970.27C3198.99,-1038.89 3160.36,-1265.76 3119,-1325.48 3084.68,-1375.04 2921.55,-1470.61 2868.33,-1500.98"/>
<polygon fill="midnightblue" stroke="midnightblue" points="3213.44,-970.43 3211.54,-960.01 3206.53,-969.34 3213.44,-970.43"/>
</g>
<!-- Node6&#45;&gt;Node29 -->
<g id="edge73" class="edge">
<title>Node6&#45;&gt;Node29</title>
<path fill="none" stroke="midnightblue" d="M3210.1,-970.51C3200.23,-1036 3165.91,-1242.23 3119,-1287.48 3067.02,-1337.63 3023.53,-1289.33 2961,-1325.48 2940.86,-1337.13 2944.27,-1350.45 2925,-1363.48 2856.27,-1409.98 2762.7,-1439.81 2710.93,-1453.91"/>
<polygon fill="midnightblue" stroke="midnightblue" points="3213.61,-970.7 3211.61,-960.3 3206.69,-969.68 3213.61,-970.7"/>
</g>
<!-- Node6&#45;&gt;Node30 -->
<g id="edge69" class="edge">
<title>Node6&#45;&gt;Node30</title>
<path fill="none" stroke="midnightblue" d="M3212.85,-930.73C3211.6,-859.18 3201.29,-608.01 3119,-423.48 3102.23,-385.88 3068.34,-349.85 3051.29,-333.16"/>
<polygon fill="midnightblue" stroke="midnightblue" points="3209.35,-931.02 3212.98,-940.97 3216.35,-930.93 3209.35,-931.02"/>
</g>
<!-- Node7&#45;&gt;Node8 -->
<g id="edge7" class="edge">
<title>Node7&#45;&gt;Node8</title>
<path fill="none" stroke="midnightblue" d="M1863.86,-374.89C1857.48,-377.77 1851.36,-381.26 1846,-385.48 1790.32,-429.36 1758.83,-513.68 1749.48,-541.97"/>
<polygon fill="midnightblue" stroke="midnightblue" points="1865.36,-378.06 1873.35,-371.1 1862.76,-371.56 1865.36,-378.06"/>
</g>
<!-- Node7&#45;&gt;Node10 -->
<g id="edge23" class="edge">
<title>Node7&#45;&gt;Node10</title>
<path fill="none" stroke="midnightblue" d="M1874.07,-374.17C1864.55,-377.35 1854.8,-381.13 1846,-385.48 1660.56,-477.24 1466.98,-642.92 1419.49,-684.71"/>
<polygon fill="midnightblue" stroke="midnightblue" points="1875.38,-377.42 1883.85,-371.06 1873.26,-370.75 1875.38,-377.42"/>
</g>
<!-- Node8&#45;&gt;Node9 -->
<g id="edge8" class="edge">
<title>Node8&#45;&gt;Node9</title>
<path fill="none" stroke="midnightblue" d="M1721.85,-566.85C1686.71,-590.69 1620.08,-635.91 1590.85,-655.74"/>
<polygon fill="midnightblue" stroke="midnightblue" points="1724.16,-569.52 1730.47,-561.01 1720.23,-563.72 1724.16,-569.52"/>
</g>
<!-- Node9&#45;&gt;Node10 -->
<g id="edge9" class="edge">
<title>Node9&#45;&gt;Node10</title>
<path fill="none" stroke="midnightblue" d="M1495.46,-672.55C1473.42,-676.32 1451,-680.8 1434.45,-684.89"/>
<polygon fill="midnightblue" stroke="midnightblue" points="1496.26,-675.96 1505.54,-670.87 1495.1,-669.06 1496.26,-675.96"/>
</g>
<!-- Node10&#45;&gt;Node9 -->
<g id="edge10" class="edge">
<title>Node10&#45;&gt;Node9</title>
<path fill="none" stroke="midnightblue" d="M1480.34,-688.63C1504.78,-684.6 1530.54,-679.54 1548.93,-674.99"/>
<polygon fill="midnightblue" stroke="midnightblue" points="1479.66,-685.19 1470.34,-690.23 1480.76,-692.1 1479.66,-685.19"/>
</g>
<!-- Node10&#45;&gt;Node11 -->
<g id="edge11" class="edge">
<title>Node10&#45;&gt;Node11</title>
<path fill="none" stroke="midnightblue" d="M1401.86,-713.77C1391.74,-757.98 1364.06,-867.15 1309,-941.48 1290.74,-966.14 1259.1,-985.59 1244,-997.67"/>
<polygon fill="midnightblue" stroke="midnightblue" points="1405.28,-714.52 1404.06,-704 1398.45,-712.98 1405.28,-714.52"/>
</g>
<!-- Node10&#45;&gt;Node12 -->
<g id="edge13" class="edge">
<title>Node10&#45;&gt;Node12</title>
<path fill="none" stroke="midnightblue" d="M1395.87,-675.83C1363.27,-618.64 1265.46,-447.05 1241.06,-404.24"/>
<polygon fill="midnightblue" stroke="midnightblue" points="1393.01,-677.89 1401,-684.84 1399.09,-674.42 1393.01,-677.89"/>
</g>
<!-- Node10&#45;&gt;Node17 -->
<g id="edge21" class="edge">
<title>Node10&#45;&gt;Node17</title>
<path fill="none" stroke="midnightblue" d="M1390.61,-712.38C1353.62,-759.68 1263.18,-885.56 1240.65,-921.84"/>
<polygon fill="midnightblue" stroke="midnightblue" points="1393.58,-714.27 1397.06,-704.26 1388.1,-709.91 1393.58,-714.27"/>
</g>
<!-- Node11&#45;&gt;Node10 -->
<g id="edge12" class="edge">
<title>Node11&#45;&gt;Node10</title>
<path fill="none" stroke="midnightblue" d="M1274.05,-992.26C1286.52,-983.6 1299.55,-972.24 1309,-959.48 1372.41,-873.88 1399.5,-742.08 1405.28,-704.44"/>
<polygon fill="midnightblue" stroke="midnightblue" points="1272.02,-989.4 1265.56,-997.8 1275.85,-995.26 1272.02,-989.4"/>
</g>
<!-- Node12&#45;&gt;Node13 -->
<g id="edge14" class="edge">
<title>Node12&#45;&gt;Node13</title>
<path fill="none" stroke="midnightblue" d="M1221.67,-412.78C1184.91,-469.61 1073.55,-641.83 1045.81,-684.73"/>
<polygon fill="midnightblue" stroke="midnightblue" points="1224.77,-414.42 1227.26,-404.12 1218.9,-410.62 1224.77,-414.42"/>
</g>
<!-- Node13&#45;&gt;Node10 -->
<g id="edge20" class="edge">
<title>Node13&#45;&gt;Node10</title>
<path fill="none" stroke="midnightblue" d="M1134.36,-694.48C1200.61,-694.48 1287.14,-694.48 1344.66,-694.48"/>
<polygon fill="midnightblue" stroke="midnightblue" points="1134.32,-690.98 1124.32,-694.48 1134.32,-697.98 1134.32,-690.98"/>
</g>
<!-- Node14 -->
<g id="node14" class="node">
<title>Node14</title>
<g id="a_node14"><a xlink:href="../../d0/dfe/class_syntax_analyzer.html#a500e4e0cd0605ebbee4ab452948fa2ca" target="_top" xlink:title=" ">
<polygon fill="none" stroke="black" points="777,-1415.98 777,-1434.98 917,-1434.98 917,-1415.98 777,-1415.98"/>
<text text-anchor="middle" x="847" y="-1422.98" font-family="Helvetica,sans-Serif" font-size="10.00">SyntaxAnalyzer::syntaxBlock</text>
</a>
</g>
</g>
<!-- Node13&#45;&gt;Node14 -->
<g id="edge15" class="edge">
<title>Node13&#45;&gt;Node14</title>
<path fill="none" stroke="midnightblue" d="M1032.5,-713.76C1004.77,-820.73 870.37,-1339.18 850.47,-1415.97"/>
<polygon fill="midnightblue" stroke="midnightblue" points="1035.91,-714.55 1035.03,-703.99 1029.14,-712.79 1035.91,-714.55"/>
</g>
<!-- Node14&#45;&gt;Node15 -->
<g id="edge16" class="edge">
<title>Node14&#45;&gt;Node15</title>
<path fill="none" stroke="midnightblue" d="M827.07,-1441.47C789.66,-1473.06 707.3,-1542.6 677.26,-1567.98"/>
<polygon fill="midnightblue" stroke="midnightblue" points="829.36,-1444.12 834.74,-1434.99 824.84,-1438.77 829.36,-1444.12"/>
</g>
<!-- Node14&#45;&gt;Node16 -->
<g id="edge19" class="edge">
<title>Node14&#45;&gt;Node16</title>
<path fill="none" stroke="midnightblue" d="M766.88,-1418.04C713.77,-1416.49 643.76,-1421.34 589,-1449.48 535.11,-1477.18 496.07,-1543.19 482.88,-1567.91"/>
<polygon fill="midnightblue" stroke="midnightblue" points="766.81,-1421.54 776.94,-1418.41 767.07,-1414.54 766.81,-1421.54"/>
</g>
<!-- Node15&#45;&gt;Node16 -->
<g id="edge17" class="edge">
<title>Node15&#45;&gt;Node16</title>
<path fill="none" stroke="midnightblue" d="M578.85,-1577.48C570.26,-1577.48 561.57,-1577.48 553.1,-1577.48"/>
<polygon fill="midnightblue" stroke="midnightblue" points="578.88,-1580.98 588.88,-1577.48 578.88,-1573.98 578.88,-1580.98"/>
</g>
<!-- Node16&#45;&gt;Node2 -->
<g id="edge18" class="edge">
<title>Node16&#45;&gt;Node2</title>
<path fill="none" stroke="midnightblue" d="M445.51,-1591.42C407.55,-1608.76 343.73,-1637.93 310.9,-1652.93"/>
<polygon fill="midnightblue" stroke="midnightblue" points="447.38,-1594.41 455.02,-1587.07 444.47,-1588.04 447.38,-1594.41"/>
</g>
<!-- Node17&#45;&gt;Node10 -->
<g id="edge22" class="edge">
<title>Node17&#45;&gt;Node10</title>
<path fill="none" stroke="midnightblue" d="M1251.28,-913.72C1288.22,-866.51 1378.88,-740.33 1401.38,-704.08"/>
<polygon fill="midnightblue" stroke="midnightblue" points="1248.33,-911.81 1244.84,-921.82 1253.81,-916.17 1248.33,-911.81"/>
</g>
<!-- Node18&#45;&gt;Node10 -->
<g id="edge44" class="edge">
<title>Node18&#45;&gt;Node10</title>
<path fill="none" stroke="midnightblue" d="M2999.69,-576.72C2835.7,-523.7 2210.41,-323.48 2118,-323.48 2118,-323.48 2118,-323.48 1744.5,-323.48 1543.33,-323.48 1431.23,-626.87 1411.62,-684.94"/>
<polygon fill="midnightblue" stroke="midnightblue" points="2998.78,-580.11 3009.37,-579.86 3000.94,-573.45 2998.78,-580.11"/>
</g>
<!-- Node18&#45;&gt;Node19 -->
<g id="edge25" class="edge">
<title>Node18&#45;&gt;Node19</title>
<path fill="none" stroke="midnightblue" d="M2959.21,-589.48C2946.91,-589.48 2934.28,-589.48 2922.19,-589.48"/>
<polygon fill="midnightblue" stroke="midnightblue" points="2959.45,-592.98 2969.45,-589.48 2959.45,-585.98 2959.45,-592.98"/>
</g>
<!-- Node19&#45;&gt;Node8 -->
<g id="edge27" class="edge">
<title>Node19&#45;&gt;Node8</title>
<path fill="none" stroke="midnightblue" d="M2783.4,-600.57C2710.72,-611.79 2590.39,-627.48 2486,-627.48 2486,-627.48 2486,-627.48 2116,-627.48 1985.67,-627.48 1834.69,-581.56 1773.91,-561.11"/>
<polygon fill="midnightblue" stroke="midnightblue" points="2783.99,-604.02 2793.34,-599.02 2782.91,-597.11 2783.99,-604.02"/>
</g>
<!-- Node19&#45;&gt;Node19 -->
<g id="edge26" class="edge">
<title>Node19&#45;&gt;Node19</title>
<path fill="none" stroke="midnightblue" d="M2883.86,-607.37C2883.37,-613.02 2872.25,-617.48 2850.5,-617.48 2818.86,-617.48 2809.72,-608.05 2823.07,-599.24"/>
<polygon fill="midnightblue" stroke="midnightblue" points="2886.65,-605.26 2877.93,-599.24 2880.99,-609.38 2886.65,-605.26"/>
</g>
<!-- Node19&#45;&gt;Node20 -->
<g id="edge28" class="edge">
<title>Node19&#45;&gt;Node20</title>
<path fill="none" stroke="midnightblue" d="M2835.87,-607.04C2800.56,-652.53 2706.95,-773.1 2679.91,-807.94"/>
<polygon fill="midnightblue" stroke="midnightblue" points="2838.75,-609.03 2842.12,-598.99 2833.22,-604.74 2838.75,-609.03"/>
</g>
<!-- Node20&#45;&gt;Node21 -->
<g id="edge29" class="edge">
<title>Node20&#45;&gt;Node21</title>
<path fill="none" stroke="midnightblue" d="M2592.65,-825.5C2584.2,-826.37 2575.59,-827.26 2567.11,-828.13"/>
<polygon fill="midnightblue" stroke="midnightblue" points="2593.26,-828.96 2602.85,-824.45 2592.54,-821.99 2593.26,-828.96"/>
</g>
<!-- Node21&#45;&gt;Node22 -->
<g id="edge30" class="edge">
<title>Node21&#45;&gt;Node22</title>
<path fill="none" stroke="midnightblue" d="M2443.8,-823.96C2410.04,-813.45 2362.51,-798.64 2331.73,-789.05"/>
<polygon fill="midnightblue" stroke="midnightblue" points="2442.78,-827.31 2453.37,-826.94 2444.86,-820.63 2442.78,-827.31"/>
</g>
<!-- Node22&#45;&gt;Node7 -->
<g id="edge31" class="edge">
<title>Node22&#45;&gt;Node7</title>
<path fill="none" stroke="midnightblue" d="M2279.58,-763.31C2234.23,-725.02 2118.95,-624.73 2037,-527.48 1990.56,-472.37 1945.67,-397.85 1930.18,-371.34"/>
<polygon fill="midnightblue" stroke="midnightblue" points="2277.55,-766.17 2287.45,-769.92 2282.05,-760.81 2277.55,-766.17"/>
</g>
<!-- Node22&#45;&gt;Node11 -->
<g id="edge37" class="edge">
<title>Node22&#45;&gt;Node11</title>
<path fill="none" stroke="midnightblue" d="M2287.61,-797.73C2270.86,-823.04 2237.19,-868.48 2197,-893.48 2090.23,-959.89 2050.23,-969.48 1924.5,-969.48 1924.5,-969.48 1924.5,-969.48 1744.5,-969.48 1584.33,-969.48 1396.59,-988.43 1300.07,-999.56"/>
<polygon fill="midnightblue" stroke="midnightblue" points="2290.69,-799.4 2293.18,-789.1 2284.81,-795.61 2290.69,-799.4"/>
</g>
<!-- Node22&#45;&gt;Node17 -->
<g id="edge43" class="edge">
<title>Node22&#45;&gt;Node17</title>
<path fill="none" stroke="midnightblue" d="M2277.91,-794.86C2222.8,-833.48 2068.74,-931.48 1924.5,-931.48 1924.5,-931.48 1924.5,-931.48 1574.5,-931.48 1483.13,-931.48 1377.9,-931.48 1309.23,-931.48"/>
<polygon fill="midnightblue" stroke="midnightblue" points="2280.05,-797.63 2286.17,-788.99 2276,-791.93 2280.05,-797.63"/>
</g>
<!-- Node22&#45;&gt;Node18 -->
<g id="edge32" class="edge">
<title>Node22&#45;&gt;Node18</title>
<path fill="none" stroke="midnightblue" d="M2358.04,-767.89C2468.56,-744.91 2719.13,-690.24 2925,-626.48 2941.25,-621.45 2944.87,-618.87 2961,-613.48 2975.92,-608.5 2992.56,-603.32 3006.63,-599.06"/>
<polygon fill="midnightblue" stroke="midnightblue" points="2357.18,-764.5 2348.1,-769.95 2358.6,-771.35 2357.18,-764.5"/>
</g>
<!-- Node22&#45;&gt;Node19 -->
<g id="edge36" class="edge">
<title>Node22&#45;&gt;Node19</title>
<path fill="none" stroke="midnightblue" d="M2325.96,-764.78C2346.18,-753.36 2375.71,-737.78 2403,-727.48 2547.63,-672.93 2594.61,-693.99 2740,-641.48 2773.65,-629.33 2810.9,-610.39 2832.12,-599.03"/>
<polygon fill="midnightblue" stroke="midnightblue" points="2324.03,-761.85 2317.1,-769.86 2327.51,-767.92 2324.03,-761.85"/>
</g>
<!-- Node22&#45;&gt;Node23 -->
<g id="edge33" class="edge">
<title>Node22&#45;&gt;Node23</title>
<path fill="none" stroke="midnightblue" d="M2291.44,-798.9C2260.51,-878.35 2144.2,-1177.18 2121.76,-1234.82"/>
<polygon fill="midnightblue" stroke="midnightblue" points="2294.85,-799.78 2295.22,-789.19 2288.33,-797.24 2294.85,-799.78"/>
</g>
<!-- Node22&#45;&gt;Node25 -->
<g id="edge38" class="edge">
<title>Node22&#45;&gt;Node25</title>
<path fill="none" stroke="midnightblue" d="M2243.36,-767.8C2217.69,-762.41 2187.61,-756.1 2163.35,-751"/>
<polygon fill="midnightblue" stroke="midnightblue" points="2242.82,-771.26 2253.33,-769.89 2244.26,-764.41 2242.82,-771.26"/>
</g>
<!-- Node22&#45;&gt;Node26 -->
<g id="edge40" class="edge">
<title>Node22&#45;&gt;Node26</title>
<path fill="none" stroke="midnightblue" d="M2290.83,-760.62C2259.22,-687.61 2145.5,-425 2122.19,-371.17"/>
<polygon fill="midnightblue" stroke="midnightblue" points="2287.69,-762.18 2294.88,-769.97 2294.12,-759.4 2287.69,-762.18"/>
</g>
<!-- Node23&#45;&gt;Node24 -->
<g id="edge34" class="edge">
<title>Node23&#45;&gt;Node24</title>
<path fill="none" stroke="midnightblue" d="M2026.71,-1244.48C2016.64,-1244.48 2006.47,-1244.48 1996.66,-1244.48"/>
<polygon fill="midnightblue" stroke="midnightblue" points="2026.73,-1247.98 2036.73,-1244.48 2026.73,-1240.98 2026.73,-1247.98"/>
</g>
<!-- Node24&#45;&gt;Node14 -->
<g id="edge35" class="edge">
<title>Node24&#45;&gt;Node14</title>
<path fill="none" stroke="midnightblue" d="M1840.17,-1244.48C1770.07,-1244.48 1666.67,-1244.48 1576.5,-1244.48 1576.5,-1244.48 1576.5,-1244.48 1233.5,-1244.48 1070.84,-1244.48 903.05,-1378.16 859.08,-1415.75"/>
<polygon fill="midnightblue" stroke="midnightblue" points="1840.27,-1247.98 1850.27,-1244.48 1840.27,-1240.98 1840.27,-1247.98"/>
</g>
<!-- Node25&#45;&gt;Node10 -->
<g id="edge39" class="edge">
<title>Node25&#45;&gt;Node10</title>
<path fill="none" stroke="midnightblue" d="M2030.13,-735.78C1885.53,-726.17 1596.86,-707 1470.34,-698.59"/>
<polygon fill="midnightblue" stroke="midnightblue" points="2030.08,-739.28 2040.29,-736.45 2030.54,-732.3 2030.08,-739.28"/>
</g>
<!-- Node26&#45;&gt;Node7 -->
<g id="edge41" class="edge">
<title>Node26&#45;&gt;Node7</title>
<path fill="none" stroke="midnightblue" d="M2035.01,-361.48C2023.77,-361.48 2012.24,-361.48 2001.09,-361.48"/>
<polygon fill="midnightblue" stroke="midnightblue" points="2035.24,-364.98 2045.24,-361.48 2035.24,-357.98 2035.24,-364.98"/>
</g>
<!-- Node26&#45;&gt;Node19 -->
<g id="edge42" class="edge">
<title>Node26&#45;&gt;Node19</title>
<path fill="none" stroke="midnightblue" d="M2134.28,-378.16C2155.21,-398.6 2193.58,-432.82 2233,-451.48 2417.88,-539 2660.58,-572.25 2778.74,-583.84"/>
<polygon fill="midnightblue" stroke="midnightblue" points="2136.7,-375.63 2127.15,-371.06 2131.77,-380.59 2136.7,-375.63"/>
</g>
<!-- Node27&#45;&gt;Node15 -->
<g id="edge62" class="edge">
<title>Node27&#45;&gt;Node15</title>
<path fill="none" stroke="midnightblue" d="M3005.46,-1552.68C2941.68,-1576.56 2798.05,-1624.48 2672.5,-1624.48 2672.5,-1624.48 2672.5,-1624.48 1037.5,-1624.48 919.18,-1624.48 781.33,-1600.73 711.52,-1586.99"/>
<polygon fill="midnightblue" stroke="midnightblue" points="3006.89,-1555.89 3015,-1549.07 3004.41,-1549.34 3006.89,-1555.89"/>
</g>
<!-- Node27&#45;&gt;Node27 -->
<g id="edge63" class="edge">
<title>Node27&#45;&gt;Node27</title>
<path fill="none" stroke="midnightblue" d="M3072.56,-1557.76C3071.63,-1563.22 3060.78,-1567.48 3040,-1567.48 3009.07,-1567.48 3000.13,-1558.05 3013.18,-1549.24"/>
<polygon fill="midnightblue" stroke="midnightblue" points="3075.31,-1555.58 3066.82,-1549.24 3069.51,-1559.49 3075.31,-1555.58"/>
</g>
<!-- Node27&#45;&gt;Node28 -->
<g id="edge64" class="edge">
<title>Node27&#45;&gt;Node28</title>
<path fill="none" stroke="midnightblue" d="M2967.04,-1528.35C2949.28,-1525.61 2930.41,-1522.69 2913.19,-1520.02"/>
<polygon fill="midnightblue" stroke="midnightblue" points="2966.93,-1531.88 2977.35,-1529.95 2968,-1524.96 2966.93,-1531.88"/>
</g>
<!-- Node28&#45;&gt;Node15 -->
<g id="edge65" class="edge">
<title>Node28&#45;&gt;Node15</title>
<path fill="none" stroke="midnightblue" d="M2765.57,-1507.23C2691.9,-1504.65 2581.86,-1501.48 2486,-1501.48 2486,-1501.48 2486,-1501.48 1037.5,-1501.48 906.49,-1501.48 754.68,-1547.41 693.57,-1567.86"/>
<polygon fill="midnightblue" stroke="midnightblue" points="2765.6,-1510.73 2775.72,-1507.59 2765.85,-1503.73 2765.6,-1510.73"/>
</g>
<!-- Node28&#45;&gt;Node29 -->
<g id="edge66" class="edge">
<title>Node28&#45;&gt;Node29</title>
<path fill="none" stroke="midnightblue" d="M2803.97,-1498.39C2774.31,-1490.52 2736.13,-1480.38 2708.57,-1473.06"/>
<polygon fill="midnightblue" stroke="midnightblue" points="2803.12,-1501.79 2813.68,-1500.97 2804.91,-1495.02 2803.12,-1501.79"/>
</g>
<!-- Node29&#45;&gt;Node14 -->
<g id="edge67" class="edge">
<title>Node29&#45;&gt;Node14</title>
<path fill="none" stroke="midnightblue" d="M2603.3,-1452.39C2529.42,-1441.18 2407.09,-1425.48 2301,-1425.48 2301,-1425.48 2301,-1425.48 1233.5,-1425.48 1122.9,-1425.48 994.46,-1425.48 917.29,-1425.48"/>
<polygon fill="midnightblue" stroke="midnightblue" points="2602.99,-1455.88 2613.4,-1453.94 2604.05,-1448.96 2602.99,-1455.88"/>
</g>
<!-- Node30&#45;&gt;Node7 -->
<g id="edge70" class="edge">
<title>Node30&#45;&gt;Node7</title>
<path fill="none" stroke="midnightblue" d="M2988.15,-311.75C2891.09,-290.43 2672.49,-247.48 2486,-247.48 2486,-247.48 2486,-247.48 2299,-247.48 2155.94,-247.48 1994.94,-324.56 1942.23,-351.96"/>
<polygon fill="midnightblue" stroke="midnightblue" points="2987.47,-315.19 2997.99,-313.93 2988.98,-308.35 2987.47,-315.19"/>
</g>
<!-- Node30&#45;&gt;Node19 -->
<g id="edge71" class="edge">
<title>Node30&#45;&gt;Node19</title>
<path fill="none" stroke="midnightblue" d="M3026.3,-341.49C2989.87,-393.19 2885.81,-540.81 2858.26,-579.89"/>
<polygon fill="midnightblue" stroke="midnightblue" points="3029.2,-343.45 3032.1,-333.26 3023.48,-339.42 3029.2,-343.45"/>
</g>
<!-- Node30&#45;&gt;Node26 -->
<g id="edge72" class="edge">
<title>Node30&#45;&gt;Node26</title>
<path fill="none" stroke="midnightblue" d="M2954.56,-326.36C2832.73,-330.59 2600.57,-338.9 2403,-347.48 2329.88,-350.66 2246.22,-354.83 2188.56,-357.79"/>
<polygon fill="midnightblue" stroke="midnightblue" points="2954.7,-329.86 2964.57,-326.02 2954.46,-322.86 2954.7,-329.86"/>
</g>
<!-- Node31&#45;&gt;Node19 -->
<g id="edge76" class="edge">
<title>Node31&#45;&gt;Node19</title>
<path fill="none" stroke="midnightblue" d="M3203.11,-1254.76C3149.64,-1153.59 2896.19,-674.03 2856.68,-599.29"/>
<polygon fill="midnightblue" stroke="midnightblue" points="3200.12,-1256.61 3207.89,-1263.81 3206.31,-1253.34 3200.12,-1256.61"/>
</g>
<!-- Node31&#45;&gt;Node27 -->
<g id="edge77" class="edge">
<title>Node31&#45;&gt;Node27</title>
<path fill="none" stroke="midnightblue" d="M3207.32,-1293.19C3195.57,-1331.63 3165.68,-1418.02 3119,-1477.48 3101.48,-1499.8 3074.4,-1518.97 3057.19,-1529.86"/>
<polygon fill="midnightblue" stroke="midnightblue" points="3210.78,-1293.87 3210.28,-1283.29 3204.07,-1291.87 3210.78,-1293.87"/>
</g>
</g>
</svg>
