<?xml version="1.0" encoding="UTF-8" standalone="no"?>
<!DOCTYPE svg PUBLIC "-//W3C//DTD SVG 1.1//EN"
 "http://www.w3.org/Graphics/SVG/1.1/DTD/svg11.dtd">
<!-- Generated by graphviz version 3.0.0 (20220413.0106)
 -->
<!-- Title: SyntaxAnalyzer::syntaxCallSt Pages: 1 -->
<svg width="3126pt" height="284pt"
 viewBox="0.00 0.00 3126.00 284.00" xmlns="http://www.w3.org/2000/svg" xmlns:xlink="http://www.w3.org/1999/xlink">
<g id="graph0" class="graph" transform="scale(1 1) rotate(0) translate(4 280)">
<title>SyntaxAnalyzer::syntaxCallSt</title>
<!-- Node1 -->
<g id="node1" class="node">
<title>Node1</title>
<g id="a_node1"><a xlink:title=" ">
<polygon fill="#bfbfbf" stroke="black" points="2977,-133.5 2977,-152.5 3118,-152.5 3118,-133.5 2977,-133.5"/>
<text text-anchor="middle" x="3047.5" y="-140.5" font-family="Helvetica,sans-Serif" font-size="10.00">SyntaxAnalyzer::syntaxCallSt</text>
</a>
</g>
</g>
<!-- Node2 -->
<g id="node2" class="node">
<title>Node2</title>
<g id="a_node2"><a xlink:href="../../d0/dfe/class_syntax_analyzer.html#a3af9b5161a2cef6fdd26b0bb60334ac4" target="_top" xlink:title=" ">
<polygon fill="none" stroke="black" points="2798,-133.5 2798,-152.5 2941,-152.5 2941,-133.5 2798,-133.5"/>
<text text-anchor="middle" x="2869.5" y="-140.5" font-family="Helvetica,sans-Serif" font-size="10.00">SyntaxAnalyzer::syntaxFactor</text>
</a>
</g>
</g>
<!-- Node1&#45;&gt;Node2 -->
<g id="edge1" class="edge">
<title>Node1&#45;&gt;Node2</title>
<path fill="none" stroke="midnightblue" d="M2966.68,-143C2958.21,-143 2949.64,-143 2941.29,-143"/>
<polygon fill="midnightblue" stroke="midnightblue" points="2966.94,-146.5 2976.94,-143 2966.94,-139.5 2966.94,-146.5"/>
</g>
<!-- Node5 -->
<g id="node5" class="node">
<title>Node5</title>
<g id="a_node5"><a xlink:href="../../d0/dfe/class_syntax_analyzer.html#a7f54bde730006b1b863290415809ab4e" target="_top" xlink:title=" ">
<polygon fill="none" stroke="black" points="1336,-164.5 1336,-183.5 1461,-183.5 1461,-164.5 1336,-164.5"/>
<text text-anchor="middle" x="1398.5" y="-171.5" font-family="Helvetica,sans-Serif" font-size="10.00">SyntaxAnalyzer::syntaxSt</text>
</a>
</g>
</g>
<!-- Node1&#45;&gt;Node5 -->
<g id="edge40" class="edge">
<title>Node1&#45;&gt;Node5</title>
<path fill="none" stroke="midnightblue" d="M3023.98,-158.1C2969.75,-192.95 2826.66,-276 2694.5,-276 2694.5,-276 2694.5,-276 1754.5,-276 1621.44,-276 1470.85,-208.99 1418.57,-183.6"/>
<polygon fill="midnightblue" stroke="midnightblue" points="3026.01,-160.96 3032.47,-152.57 3022.18,-155.09 3026.01,-160.96"/>
</g>
<!-- Node2&#45;&gt;Node2 -->
<g id="edge2" class="edge">
<title>Node2&#45;&gt;Node2</title>
<path fill="none" stroke="midnightblue" d="M2902.48,-160.89C2902,-166.54 2891.01,-171 2869.5,-171 2838.22,-171 2829.18,-161.57 2842.37,-152.76"/>
<polygon fill="midnightblue" stroke="midnightblue" points="2905.31,-158.83 2896.63,-152.76 2899.63,-162.92 2905.31,-158.83"/>
</g>
<!-- Node3 -->
<g id="node3" class="node">
<title>Node3</title>
<g id="a_node3"><a xlink:href="../../d0/dfe/class_syntax_analyzer.html#aea3a3d1860938d64edf651bdc4016c04" target="_top" xlink:title=" ">
<polygon fill="none" stroke="black" points="1686,-183.5 1686,-202.5 1825,-202.5 1825,-183.5 1686,-183.5"/>
<text text-anchor="middle" x="1755.5" y="-190.5" font-family="Helvetica,sans-Serif" font-size="10.00">SyntaxAnalyzer::syntaxIterSt</text>
</a>
</g>
</g>
<!-- Node2&#45;&gt;Node3 -->
<g id="edge3" class="edge">
<title>Node2&#45;&gt;Node3</title>
<path fill="none" stroke="midnightblue" d="M2822.48,-155.02C2754.31,-171.74 2622.21,-200 2508,-200 2508,-200 2508,-200 2138,-200 2028.53,-200 1901.43,-197.08 1825.07,-195.02"/>
<polygon fill="midnightblue" stroke="midnightblue" points="2823.61,-158.35 2832.47,-152.54 2821.92,-151.55 2823.61,-158.35"/>
</g>
<!-- Node17 -->
<g id="node17" class="node">
<title>Node17</title>
<g id="a_node17"><a xlink:href="../../d0/dfe/class_syntax_analyzer.html#a1e9b913cc8c2861927d7c05d10f1822d" target="_top" xlink:title=" ">
<polygon fill="none" stroke="black" points="2625,-76.5 2625,-95.5 2762,-95.5 2762,-76.5 2625,-76.5"/>
<text text-anchor="middle" x="2693.5" y="-83.5" font-family="Helvetica,sans-Serif" font-size="10.00">SyntaxAnalyzer::syntaxTerm</text>
</a>
</g>
</g>
<!-- Node2&#45;&gt;Node17 -->
<g id="edge22" class="edge">
<title>Node2&#45;&gt;Node17</title>
<path fill="none" stroke="midnightblue" d="M2829.87,-130.34C2797.79,-119.84 2752.86,-105.12 2723.72,-95.57"/>
<polygon fill="midnightblue" stroke="midnightblue" points="2828.78,-133.67 2839.38,-133.46 2830.96,-127.02 2828.78,-133.67"/>
</g>
<!-- Node4 -->
<g id="node4" class="node">
<title>Node4</title>
<g id="a_node4"><a xlink:href="../../d0/dfe/class_syntax_analyzer.html#a82e8472ea6d1064871de0d05eaa8b374" target="_top" xlink:title=" ">
<polygon fill="none" stroke="black" points="1500.5,-183.5 1500.5,-202.5 1639.5,-202.5 1639.5,-183.5 1500.5,-183.5"/>
<text text-anchor="middle" x="1570" y="-190.5" font-family="Helvetica,sans-Serif" font-size="10.00">SyntaxAnalyzer::syntaxForSt</text>
</a>
</g>
</g>
<!-- Node3&#45;&gt;Node4 -->
<g id="edge4" class="edge">
<title>Node3&#45;&gt;Node4</title>
<path fill="none" stroke="midnightblue" d="M1675.85,-193C1663.75,-193 1651.35,-193 1639.51,-193"/>
<polygon fill="midnightblue" stroke="midnightblue" points="1675.91,-196.5 1685.91,-193 1675.91,-189.5 1675.91,-196.5"/>
</g>
<!-- Node4&#45;&gt;Node5 -->
<g id="edge5" class="edge">
<title>Node4&#45;&gt;Node5</title>
<path fill="none" stroke="midnightblue" d="M1523.9,-181.9C1504.71,-179.01 1482.02,-176.31 1461.31,-174.4"/>
<polygon fill="midnightblue" stroke="midnightblue" points="1523.46,-185.37 1533.88,-183.47 1524.55,-178.46 1523.46,-185.37"/>
</g>
<!-- Node5&#45;&gt;Node4 -->
<g id="edge6" class="edge">
<title>Node5&#45;&gt;Node4</title>
<path fill="none" stroke="midnightblue" d="M1444.66,-185.11C1461.65,-187.66 1481.39,-190.08 1500.06,-191.92"/>
<polygon fill="midnightblue" stroke="midnightblue" points="1444.89,-181.6 1434.47,-183.5 1443.8,-188.52 1444.89,-181.6"/>
</g>
<!-- Node6 -->
<g id="node6" class="node">
<title>Node6</title>
<g id="a_node6"><a xlink:href="../../d0/dfe/class_syntax_analyzer.html#a779e006875d35926152773989f4b1e5a" target="_top" xlink:title=" ">
<polygon fill="none" stroke="black" points="1160,-202.5 1160,-221.5 1291,-221.5 1291,-202.5 1160,-202.5"/>
<text text-anchor="middle" x="1225.5" y="-209.5" font-family="Helvetica,sans-Serif" font-size="10.00">SyntaxAnalyzer::syntaxIfSt</text>
</a>
</g>
</g>
<!-- Node5&#45;&gt;Node6 -->
<g id="edge7" class="edge">
<title>Node5&#45;&gt;Node6</title>
<path fill="none" stroke="midnightblue" d="M1325.65,-183.29C1297.89,-189.15 1268.16,-196.41 1248.57,-202.39"/>
<polygon fill="midnightblue" stroke="midnightblue" points="1326.68,-186.66 1335.77,-181.21 1325.26,-179.8 1326.68,-186.66"/>
</g>
<!-- Node7 -->
<g id="node7" class="node">
<title>Node7</title>
<g id="a_node7"><a xlink:href="../../d0/dfe/class_syntax_analyzer.html#a6df61a82ef9de3c17b78be89a321a087" target="_top" xlink:title=" ">
<polygon fill="none" stroke="black" points="1155,-126.5 1155,-145.5 1296,-145.5 1296,-126.5 1155,-126.5"/>
<text text-anchor="middle" x="1225.5" y="-133.5" font-family="Helvetica,sans-Serif" font-size="10.00">SyntaxAnalyzer::syntaxStList</text>
</a>
</g>
</g>
<!-- Node5&#45;&gt;Node7 -->
<g id="edge9" class="edge">
<title>Node5&#45;&gt;Node7</title>
<path fill="none" stroke="midnightblue" d="M1344.29,-162.18C1320.18,-156.82 1292.06,-150.57 1269.34,-145.52"/>
<polygon fill="midnightblue" stroke="midnightblue" points="1343.83,-165.66 1354.35,-164.41 1345.35,-158.82 1343.83,-165.66"/>
</g>
<!-- Node16 -->
<g id="node16" class="node">
<title>Node16</title>
<g id="a_node16"><a xlink:href="../../d0/dfe/class_syntax_analyzer.html#a64dad7f0b22b08d182483469d3a1aa79" target="_top" xlink:title=" ">
<polygon fill="none" stroke="black" points="1151,-88.5 1151,-107.5 1300,-107.5 1300,-88.5 1151,-88.5"/>
<text text-anchor="middle" x="1225.5" y="-95.5" font-family="Helvetica,sans-Serif" font-size="10.00">SyntaxAnalyzer::syntaxWhileSt</text>
</a>
</g>
</g>
<!-- Node5&#45;&gt;Node16 -->
<g id="edge20" class="edge">
<title>Node5&#45;&gt;Node16</title>
<path fill="none" stroke="midnightblue" d="M1383.18,-157.67C1364.73,-142.33 1331.3,-120.9 1300,-108 1299.63,-107.85 1299.27,-107.7 1298.9,-107.55"/>
<polygon fill="midnightblue" stroke="midnightblue" points="1380.96,-160.39 1390.75,-164.45 1385.63,-155.17 1380.96,-160.39"/>
</g>
<!-- Node6&#45;&gt;Node5 -->
<g id="edge8" class="edge">
<title>Node6&#45;&gt;Node5</title>
<path fill="none" stroke="midnightblue" d="M1301.02,-202.14C1328.03,-196.38 1356.54,-189.38 1375.49,-183.59"/>
<polygon fill="midnightblue" stroke="midnightblue" points="1300.22,-198.73 1291.15,-204.2 1301.66,-205.58 1300.22,-198.73"/>
</g>
<!-- Node8 -->
<g id="node8" class="node">
<title>Node8</title>
<g id="a_node8"><a xlink:href="../../d0/dfe/class_syntax_analyzer.html#a5770afdc4d32d2c38550f27f9ffd949a" target="_top" xlink:title=" ">
<polygon fill="none" stroke="black" points="944,-126.5 944,-145.5 1115,-145.5 1115,-126.5 944,-126.5"/>
<text text-anchor="middle" x="1029.5" y="-133.5" font-family="Helvetica,sans-Serif" font-size="10.00">SyntaxAnalyzer::syntaxCompoundSt</text>
</a>
</g>
</g>
<!-- Node7&#45;&gt;Node8 -->
<g id="edge10" class="edge">
<title>Node7&#45;&gt;Node8</title>
<path fill="none" stroke="midnightblue" d="M1144.7,-136C1134.97,-136 1125.01,-136 1115.21,-136"/>
<polygon fill="midnightblue" stroke="midnightblue" points="1144.74,-139.5 1154.74,-136 1144.74,-132.5 1144.74,-139.5"/>
</g>
<!-- Node8&#45;&gt;Node5 -->
<g id="edge19" class="edge">
<title>Node8&#45;&gt;Node5</title>
<path fill="none" stroke="midnightblue" d="M1094.84,-147.11C1112.96,-149.98 1132.72,-152.86 1151,-155 1213.77,-162.36 1285.89,-167.54 1335.83,-170.61"/>
<polygon fill="midnightblue" stroke="midnightblue" points="1095.39,-143.66 1084.96,-145.53 1094.28,-150.57 1095.39,-143.66"/>
</g>
<!-- Node9 -->
<g id="node9" class="node">
<title>Node9</title>
<g id="a_node9"><a xlink:href="../../d0/dfe/class_syntax_analyzer.html#a2b54bac50e114b68e83c80d869b6ac7c" target="_top" xlink:title=" ">
<polygon fill="none" stroke="black" points="768,-57.5 768,-76.5 908,-76.5 908,-57.5 768,-57.5"/>
<text text-anchor="middle" x="838" y="-64.5" font-family="Helvetica,sans-Serif" font-size="10.00">SyntaxAnalyzer::syntaxBlock</text>
</a>
</g>
</g>
<!-- Node8&#45;&gt;Node9 -->
<g id="edge11" class="edge">
<title>Node8&#45;&gt;Node9</title>
<path fill="none" stroke="midnightblue" d="M992.7,-122.96C955.52,-109.43 898.25,-88.57 865.13,-76.51"/>
<polygon fill="midnightblue" stroke="midnightblue" points="991.56,-126.27 1002.15,-126.41 993.95,-119.7 991.56,-126.27"/>
</g>
<!-- Node10 -->
<g id="node10" class="node">
<title>Node10</title>
<g id="a_node10"><a xlink:href="../../d0/dfe/class_syntax_analyzer.html#ae04232a95c6423677e600927c82851e4" target="_top" xlink:title=" ">
<polygon fill="none" stroke="black" points="580,-38.5 580,-57.5 732,-57.5 732,-38.5 580,-38.5"/>
<text text-anchor="middle" x="656" y="-45.5" font-family="Helvetica,sans-Serif" font-size="10.00">SyntaxAnalyzer::syntaxFuncDef</text>
</a>
</g>
</g>
<!-- Node9&#45;&gt;Node10 -->
<g id="edge12" class="edge">
<title>Node9&#45;&gt;Node10</title>
<path fill="none" stroke="midnightblue" d="M757.95,-58.66C749.39,-57.75 740.69,-56.83 732.18,-55.94"/>
<polygon fill="midnightblue" stroke="midnightblue" points="757.61,-62.14 767.92,-59.71 758.34,-55.18 757.61,-62.14"/>
</g>
<!-- Node11 -->
<g id="node11" class="node">
<title>Node11</title>
<g id="a_node11"><a xlink:href="../../d0/dfe/class_syntax_analyzer.html#a8b337bd5b4a90cd5bd804a936e408e4b" target="_top" xlink:title=" ">
<polygon fill="none" stroke="black" points="392,-57.5 392,-76.5 544,-76.5 544,-57.5 392,-57.5"/>
<text text-anchor="middle" x="468" y="-64.5" font-family="Helvetica,sans-Serif" font-size="10.00">SyntaxAnalyzer::syntaxProgram</text>
</a>
</g>
</g>
<!-- Node9&#45;&gt;Node11 -->
<g id="edge18" class="edge">
<title>Node9&#45;&gt;Node11</title>
<path fill="none" stroke="midnightblue" d="M757.46,-67C694.21,-67 606.34,-67 544.24,-67"/>
<polygon fill="midnightblue" stroke="midnightblue" points="757.78,-70.5 767.78,-67 757.78,-63.5 757.78,-70.5"/>
</g>
<!-- Node10&#45;&gt;Node11 -->
<g id="edge13" class="edge">
<title>Node10&#45;&gt;Node11</title>
<path fill="none" stroke="midnightblue" d="M569.85,-56.7C561.26,-57.58 552.57,-58.46 544.1,-59.33"/>
<polygon fill="midnightblue" stroke="midnightblue" points="570.29,-60.17 579.88,-55.67 569.58,-53.21 570.29,-60.17"/>
</g>
<!-- Node12 -->
<g id="node12" class="node">
<title>Node12</title>
<g id="a_node12"><a xlink:href="../../d0/dfe/class_syntax_analyzer.html#a96cd5f6a041dae613d1c75175e26592e" target="_top" xlink:title=" ">
<polygon fill="none" stroke="black" points="213,-57.5 213,-76.5 356,-76.5 356,-57.5 213,-57.5"/>
<text text-anchor="middle" x="284.5" y="-64.5" font-family="Helvetica,sans-Serif" font-size="10.00">SyntaxAnalyzer::parseTokens</text>
</a>
</g>
</g>
<!-- Node11&#45;&gt;Node12 -->
<g id="edge14" class="edge">
<title>Node11&#45;&gt;Node12</title>
<path fill="none" stroke="midnightblue" d="M381.84,-67C373.26,-67 364.61,-67 356.21,-67"/>
<polygon fill="midnightblue" stroke="midnightblue" points="381.87,-70.5 391.87,-67 381.87,-63.5 381.87,-70.5"/>
</g>
<!-- Node13 -->
<g id="node13" class="node">
<title>Node13</title>
<g id="a_node13"><a xlink:href="../../d1/d80/namespace_analyze.html#a1597f9f086c3276d0287917efbed14b8" target="_top" xlink:title=" ">
<polygon fill="none" stroke="black" points="74,-76.5 74,-95.5 177,-95.5 177,-76.5 74,-76.5"/>
<text text-anchor="middle" x="125.5" y="-83.5" font-family="Helvetica,sans-Serif" font-size="10.00">Analyze::analyzeFile</text>
</a>
</g>
</g>
<!-- Node12&#45;&gt;Node13 -->
<g id="edge15" class="edge">
<title>Node12&#45;&gt;Node13</title>
<path fill="none" stroke="midnightblue" d="M202.61,-76.79C193.92,-77.84 185.26,-78.89 177.08,-79.88"/>
<polygon fill="midnightblue" stroke="midnightblue" points="203.3,-80.23 212.81,-75.56 202.46,-73.28 203.3,-80.23"/>
</g>
<!-- Node15 -->
<g id="node15" class="node">
<title>Node15</title>
<g id="a_node15"><a xlink:href="../../db/df9/test_semantic_8cpp.html#a804faf7fd199a3c491020f1f2caa618b" target="_top" xlink:title="Тест семантического анализа Паскаля">
<polygon fill="none" stroke="black" points="105,-38.5 105,-57.5 146,-57.5 146,-38.5 105,-38.5"/>
<text text-anchor="middle" x="125.5" y="-45.5" font-family="Helvetica,sans-Serif" font-size="10.00">TEST</text>
</a>
</g>
</g>
<!-- Node12&#45;&gt;Node15 -->
<g id="edge17" class="edge">
<title>Node12&#45;&gt;Node15</title>
<path fill="none" stroke="midnightblue" d="M202.76,-57.23C181.6,-54.67 160.65,-52.13 146.08,-50.37"/>
<polygon fill="midnightblue" stroke="midnightblue" points="202.46,-60.72 212.81,-58.44 203.3,-53.77 202.46,-60.72"/>
</g>
<!-- Node14 -->
<g id="node14" class="node">
<title>Node14</title>
<g id="a_node14"><a xlink:href="../../d3/db4/graph_draw_8cpp.html#a3c04138a5bfe5d72780bb7e82a18e627" target="_top" xlink:title=" ">
<polygon fill="none" stroke="black" points="0,-76.5 0,-95.5 38,-95.5 38,-76.5 0,-76.5"/>
<text text-anchor="middle" x="19" y="-83.5" font-family="Helvetica,sans-Serif" font-size="10.00">main</text>
</a>
</g>
</g>
<!-- Node13&#45;&gt;Node14 -->
<g id="edge16" class="edge">
<title>Node13&#45;&gt;Node14</title>
<path fill="none" stroke="midnightblue" d="M63.7,-86C54.49,-86 45.64,-86 38.35,-86"/>
<polygon fill="midnightblue" stroke="midnightblue" points="63.78,-89.5 73.78,-86 63.78,-82.5 63.78,-89.5"/>
</g>
<!-- Node16&#45;&gt;Node5 -->
<g id="edge21" class="edge">
<title>Node16&#45;&gt;Node5</title>
<path fill="none" stroke="midnightblue" d="M1251.57,-110.56C1266.04,-114.82 1284.41,-119.57 1300,-126 1326.1,-136.76 1353.69,-153.45 1372.83,-164.39"/>
<polygon fill="midnightblue" stroke="midnightblue" points="1252.4,-107.15 1241.82,-107.52 1250.32,-113.84 1252.4,-107.15"/>
</g>
<!-- Node18 -->
<g id="node18" class="node">
<title>Node18</title>
<g id="a_node18"><a xlink:href="../../d0/dfe/class_syntax_analyzer.html#a3dfb6634a4bcdc61da5b1bafd1f3d136" target="_top" xlink:title=" ">
<polygon fill="none" stroke="black" points="2425,-76.5 2425,-95.5 2589,-95.5 2589,-76.5 2425,-76.5"/>
<text text-anchor="middle" x="2507" y="-83.5" font-family="Helvetica,sans-Serif" font-size="10.00">SyntaxAnalyzer::syntaxSimpleExpr</text>
</a>
</g>
</g>
<!-- Node17&#45;&gt;Node18 -->
<g id="edge23" class="edge">
<title>Node17&#45;&gt;Node18</title>
<path fill="none" stroke="midnightblue" d="M2614.65,-86C2606.2,-86 2597.59,-86 2589.11,-86"/>
<polygon fill="midnightblue" stroke="midnightblue" points="2614.85,-89.5 2624.85,-86 2614.85,-82.5 2614.85,-89.5"/>
</g>
<!-- Node19 -->
<g id="node19" class="node">
<title>Node19</title>
<g id="a_node19"><a xlink:href="../../d0/dfe/class_syntax_analyzer.html#ae8d09db1b25ec882248aeed978c13a4d" target="_top" xlink:title=" ">
<polygon fill="none" stroke="black" points="2255,-76.5 2255,-95.5 2389,-95.5 2389,-76.5 2255,-76.5"/>
<text text-anchor="middle" x="2322" y="-83.5" font-family="Helvetica,sans-Serif" font-size="10.00">SyntaxAnalyzer::syntaxExpr</text>
</a>
</g>
</g>
<!-- Node18&#45;&gt;Node19 -->
<g id="edge24" class="edge">
<title>Node18&#45;&gt;Node19</title>
<path fill="none" stroke="midnightblue" d="M2414.81,-86C2406.17,-86 2397.53,-86 2389.19,-86"/>
<polygon fill="midnightblue" stroke="midnightblue" points="2414.93,-89.5 2424.93,-86 2414.93,-82.5 2414.93,-89.5"/>
</g>
<!-- Node19&#45;&gt;Node1 -->
<g id="edge28" class="edge">
<title>Node19&#45;&gt;Node1</title>
<path fill="none" stroke="midnightblue" d="M2374.7,-74.46C2390.73,-71.4 2408.52,-68.52 2425,-67 2574.14,-53.23 2613.5,-47.51 2762,-67 2859.07,-79.74 2970.11,-115.95 3019.91,-133.38"/>
<polygon fill="midnightblue" stroke="midnightblue" points="2373.57,-71.12 2364.44,-76.49 2374.93,-77.98 2373.57,-71.12"/>
</g>
<!-- Node19&#45;&gt;Node2 -->
<g id="edge32" class="edge">
<title>Node19&#45;&gt;Node2</title>
<path fill="none" stroke="midnightblue" d="M2378.91,-97.44C2393.83,-100.22 2409.99,-102.96 2425,-105 2556.14,-122.79 2710.29,-133.78 2797.98,-139.11"/>
<polygon fill="midnightblue" stroke="midnightblue" points="2379.27,-93.95 2368.8,-95.53 2377.97,-100.83 2379.27,-93.95"/>
</g>
<!-- Node19&#45;&gt;Node6 -->
<g id="edge33" class="edge">
<title>Node19&#45;&gt;Node6</title>
<path fill="none" stroke="midnightblue" d="M2307.28,-103.69C2289.4,-125.44 2256.01,-161.82 2219,-181 2109.14,-237.92 2070.23,-238 1946.5,-238 1946.5,-238 1946.5,-238 1569,-238 1471.95,-238 1359.87,-227.49 1291.09,-219.84"/>
<polygon fill="midnightblue" stroke="midnightblue" points="2310.23,-105.6 2313.76,-95.61 2304.77,-101.22 2310.23,-105.6"/>
</g>
<!-- Node19&#45;&gt;Node16 -->
<g id="edge39" class="edge">
<title>Node19&#45;&gt;Node16</title>
<path fill="none" stroke="midnightblue" d="M2252.89,-74.91C2178,-63.69 2054.01,-48 1946.5,-48 1946.5,-48 1946.5,-48 1569,-48 1458.13,-48 1329.17,-73.97 1265.78,-88.48"/>
<polygon fill="midnightblue" stroke="midnightblue" points="2252.71,-78.42 2263.12,-76.46 2253.76,-71.5 2252.71,-78.42"/>
</g>
<!-- Node20 -->
<g id="node20" class="node">
<title>Node20</title>
<g id="a_node20"><a xlink:href="../../d0/dfe/class_syntax_analyzer.html#a31fc5887c158652feb946f89270b4b36" target="_top" xlink:title=" ">
<polygon fill="none" stroke="black" points="1868,-150.5 1868,-169.5 2023,-169.5 2023,-150.5 1868,-150.5"/>
<text text-anchor="middle" x="1945.5" y="-157.5" font-family="Helvetica,sans-Serif" font-size="10.00">SyntaxAnalyzer::syntaxAssignSt</text>
</a>
</g>
</g>
<!-- Node19&#45;&gt;Node20 -->
<g id="edge25" class="edge">
<title>Node19&#45;&gt;Node20</title>
<path fill="none" stroke="midnightblue" d="M2262.76,-97.51C2189.06,-112.07 2063.45,-136.89 1994.8,-150.46"/>
<polygon fill="midnightblue" stroke="midnightblue" points="2263.68,-100.89 2272.81,-95.52 2262.32,-94.03 2263.68,-100.89"/>
</g>
<!-- Node21 -->
<g id="node21" class="node">
<title>Node21</title>
<g id="a_node21"><a xlink:href="../../d0/dfe/class_syntax_analyzer.html#adad79b2219ae143b49203a836713bec9" target="_top" xlink:title=" ">
<polygon fill="none" stroke="black" points="2059,-0.5 2059,-19.5 2219,-19.5 2219,-0.5 2059,-0.5"/>
<text text-anchor="middle" x="2139" y="-7.5" font-family="Helvetica,sans-Serif" font-size="10.00">SyntaxAnalyzer::syntaxConstDecl</text>
</a>
</g>
</g>
<!-- Node19&#45;&gt;Node21 -->
<g id="edge29" class="edge">
<title>Node19&#45;&gt;Node21</title>
<path fill="none" stroke="midnightblue" d="M2295.55,-71.43C2275.26,-60.22 2245.9,-44.84 2219,-34 2205.31,-28.48 2189.84,-23.52 2176.25,-19.56"/>
<polygon fill="midnightblue" stroke="midnightblue" points="2294.02,-74.59 2304.46,-76.42 2297.44,-68.48 2294.02,-74.59"/>
</g>
<!-- Node23 -->
<g id="node23" class="node">
<title>Node23</title>
<g id="a_node23"><a xlink:href="../../d0/dfe/class_syntax_analyzer.html#a55e935b2aa7f20b66e9228e977582fcd" target="_top" xlink:title=" ">
<polygon fill="none" stroke="black" points="1679,-79.5 1679,-98.5 1832,-98.5 1832,-79.5 1679,-79.5"/>
<text text-anchor="middle" x="1755.5" y="-86.5" font-family="Helvetica,sans-Serif" font-size="10.00">SyntaxAnalyzer::syntaxReturnSt</text>
</a>
</g>
</g>
<!-- Node19&#45;&gt;Node23 -->
<g id="edge34" class="edge">
<title>Node19&#45;&gt;Node23</title>
<path fill="none" stroke="midnightblue" d="M2244.68,-86.41C2136.55,-86.98 1939.94,-88.03 1832.16,-88.6"/>
<polygon fill="midnightblue" stroke="midnightblue" points="2244.88,-89.9 2254.86,-86.35 2244.84,-82.9 2244.88,-89.9"/>
</g>
<!-- Node24 -->
<g id="node24" class="node">
<title>Node24</title>
<g id="a_node24"><a xlink:href="../../d0/dfe/class_syntax_analyzer.html#a1264dcb50cb09c564a36125c21043298" target="_top" xlink:title=" ">
<polygon fill="none" stroke="black" points="2067.5,-152.5 2067.5,-171.5 2210.5,-171.5 2210.5,-152.5 2067.5,-152.5"/>
<text text-anchor="middle" x="2139" y="-159.5" font-family="Helvetica,sans-Serif" font-size="10.00">SyntaxAnalyzer::syntaxSelect</text>
</a>
</g>
</g>
<!-- Node19&#45;&gt;Node24 -->
<g id="edge36" class="edge">
<title>Node19&#45;&gt;Node24</title>
<path fill="none" stroke="midnightblue" d="M2295.55,-100.57C2275.26,-111.78 2245.9,-127.16 2219,-138 2205.31,-143.52 2189.84,-148.48 2176.25,-152.44"/>
<polygon fill="midnightblue" stroke="midnightblue" points="2297.44,-103.52 2304.46,-95.58 2294.02,-97.41 2297.44,-103.52"/>
</g>
<!-- Node20&#45;&gt;Node3 -->
<g id="edge26" class="edge">
<title>Node20&#45;&gt;Node3</title>
<path fill="none" stroke="midnightblue" d="M1880.52,-171.23C1857.88,-175.2 1832.66,-179.63 1810.89,-183.45"/>
<polygon fill="midnightblue" stroke="midnightblue" points="1881.13,-174.68 1890.37,-169.5 1879.92,-167.78 1881.13,-174.68"/>
</g>
<!-- Node20&#45;&gt;Node5 -->
<g id="edge27" class="edge">
<title>Node20&#45;&gt;Node5</title>
<path fill="none" stroke="midnightblue" d="M1857.73,-162.23C1747.08,-165.07 1558.47,-169.92 1461.34,-172.41"/>
<polygon fill="midnightblue" stroke="midnightblue" points="1857.95,-165.72 1867.86,-161.97 1857.77,-158.73 1857.95,-165.72"/>
</g>
<!-- Node22 -->
<g id="node22" class="node">
<title>Node22</title>
<g id="a_node22"><a xlink:href="../../d0/dfe/class_syntax_analyzer.html#a58a0f927ad0a45e4ce837a98e98330aa" target="_top" xlink:title=" ">
<polygon fill="none" stroke="black" points="1497,-0.5 1497,-19.5 1643,-19.5 1643,-0.5 1497,-0.5"/>
<text text-anchor="middle" x="1570" y="-7.5" font-family="Helvetica,sans-Serif" font-size="10.00">SyntaxAnalyzer::syntaxConsts</text>
</a>
</g>
</g>
<!-- Node21&#45;&gt;Node22 -->
<g id="edge30" class="edge">
<title>Node21&#45;&gt;Node22</title>
<path fill="none" stroke="midnightblue" d="M2048.6,-10C1936.53,-10 1746.61,-10 1643.26,-10"/>
<polygon fill="midnightblue" stroke="midnightblue" points="2048.86,-13.5 2058.86,-10 2048.86,-6.5 2048.86,-13.5"/>
</g>
<!-- Node22&#45;&gt;Node9 -->
<g id="edge31" class="edge">
<title>Node22&#45;&gt;Node9</title>
<path fill="none" stroke="midnightblue" d="M1486.5,-16.44C1341.44,-27.77 1043.32,-51.05 908.24,-61.59"/>
<polygon fill="midnightblue" stroke="midnightblue" points="1486.97,-19.92 1496.67,-15.65 1486.43,-12.94 1486.97,-19.92"/>
</g>
<!-- Node23&#45;&gt;Node5 -->
<g id="edge35" class="edge">
<title>Node23&#45;&gt;Node5</title>
<path fill="none" stroke="midnightblue" d="M1686.33,-100.33C1634.11,-109.59 1560.48,-123.92 1497,-141 1472.15,-147.69 1444.41,-157.29 1424.89,-164.42"/>
<polygon fill="midnightblue" stroke="midnightblue" points="1687.24,-103.72 1696.48,-98.54 1686.03,-96.83 1687.24,-103.72"/>
</g>
<!-- Node24&#45;&gt;Node2 -->
<g id="edge38" class="edge">
<title>Node24&#45;&gt;Node2</title>
<path fill="none" stroke="midnightblue" d="M2220.99,-159.98C2339.69,-157 2567.89,-151.23 2762,-146 2773.56,-145.69 2785.82,-145.35 2797.75,-145.02"/>
<polygon fill="midnightblue" stroke="midnightblue" points="2220.8,-156.48 2210.9,-160.23 2220.98,-163.48 2220.8,-156.48"/>
</g>
<!-- Node24&#45;&gt;Node20 -->
<g id="edge37" class="edge">
<title>Node24&#45;&gt;Node20</title>
<path fill="none" stroke="midnightblue" d="M2057.01,-161.15C2045.77,-161.04 2034.24,-160.92 2023.09,-160.8"/>
<polygon fill="midnightblue" stroke="midnightblue" points="2057.2,-164.66 2067.24,-161.26 2057.27,-157.66 2057.2,-164.66"/>
</g>
</g>
</svg>
