<?xml version="1.0" encoding="UTF-8" standalone="no"?>
<!DOCTYPE svg PUBLIC "-//W3C//DTD SVG 1.1//EN"
 "http://www.w3.org/Graphics/SVG/1.1/DTD/svg11.dtd">
<!-- Generated by graphviz version 3.0.0 (20220413.0106)
 -->
<!-- Title: SyntaxAnalyzer::syntaxFactor Pages: 1 -->
<svg width="2958pt" height="284pt"
 viewBox="0.00 0.00 2958.00 284.00" xmlns="http://www.w3.org/2000/svg" xmlns:xlink="http://www.w3.org/1999/xlink">
<g id="graph0" class="graph" transform="scale(1 1) rotate(0) translate(4 280)">
<title>SyntaxAnalyzer::syntaxFactor</title>
<!-- Node1 -->
<g id="node1" class="node">
<title>Node1</title>
<g id="a_node1"><a xlink:title=" ">
<polygon fill="#bfbfbf" stroke="black" points="2807,-66.5 2807,-85.5 2950,-85.5 2950,-66.5 2807,-66.5"/>
<text text-anchor="middle" x="2878.5" y="-73.5" font-family="Helvetica,sans-Serif" font-size="10.00">SyntaxAnalyzer::syntaxFactor</text>
</a>
</g>
</g>
<!-- Node1&#45;&gt;Node1 -->
<g id="edge1" class="edge">
<title>Node1&#45;&gt;Node1</title>
<path fill="none" stroke="midnightblue" d="M2911.48,-93.89C2911,-99.54 2900.01,-104 2878.5,-104 2847.22,-104 2838.18,-94.57 2851.37,-85.76"/>
<polygon fill="midnightblue" stroke="midnightblue" points="2914.31,-91.83 2905.63,-85.76 2908.63,-95.92 2914.31,-91.83"/>
</g>
<!-- Node2 -->
<g id="node2" class="node">
<title>Node2</title>
<g id="a_node2"><a xlink:href="../../d0/dfe/class_syntax_analyzer.html#acef4b19447f253a6e25d762733ca8ede" target="_top" xlink:title=" ">
<polygon fill="none" stroke="black" points="1700,-28.5 1700,-47.5 1829,-47.5 1829,-28.5 1700,-28.5"/>
<text text-anchor="middle" x="1764.5" y="-35.5" font-family="Helvetica,sans-Serif" font-size="10.00">SyntaxAnalyzer::syntaxIter</text>
</a>
</g>
</g>
<!-- Node1&#45;&gt;Node2 -->
<g id="edge2" class="edge">
<title>Node1&#45;&gt;Node2</title>
<path fill="none" stroke="midnightblue" d="M2841.08,-63.07C2776.62,-41.38 2637.82,0 2517,0 2517,0 2517,0 2147,0 2032.35,0 1899.27,-17.2 1824.46,-28.46"/>
<polygon fill="midnightblue" stroke="midnightblue" points="2840.18,-66.46 2850.77,-66.37 2842.44,-59.84 2840.18,-66.46"/>
</g>
<!-- Node16 -->
<g id="node16" class="node">
<title>Node16</title>
<g id="a_node16"><a xlink:href="../../d0/dfe/class_syntax_analyzer.html#a1f83850370eb120ec67a6cc19ce99e2e" target="_top" xlink:title=" ">
<polygon fill="none" stroke="black" points="2634,-104.5 2634,-123.5 2771,-123.5 2771,-104.5 2634,-104.5"/>
<text text-anchor="middle" x="2702.5" y="-111.5" font-family="Helvetica,sans-Serif" font-size="10.00">SyntaxAnalyzer::syntaxTerm</text>
</a>
</g>
</g>
<!-- Node1&#45;&gt;Node16 -->
<g id="edge21" class="edge">
<title>Node1&#45;&gt;Node16</title>
<path fill="none" stroke="midnightblue" d="M2823.69,-87.75C2799.08,-93.13 2770.31,-99.41 2747.09,-104.48"/>
<polygon fill="midnightblue" stroke="midnightblue" points="2824.57,-91.14 2833.59,-85.59 2823.08,-84.3 2824.57,-91.14"/>
</g>
<!-- Node3 -->
<g id="node3" class="node">
<title>Node3</title>
<g id="a_node3"><a xlink:href="../../d0/dfe/class_syntax_analyzer.html#afd2005539c57ee2575cab3c50d061cd9" target="_top" xlink:title=" ">
<polygon fill="none" stroke="black" points="1509.5,-28.5 1509.5,-47.5 1648.5,-47.5 1648.5,-28.5 1509.5,-28.5"/>
<text text-anchor="middle" x="1579" y="-35.5" font-family="Helvetica,sans-Serif" font-size="10.00">SyntaxAnalyzer::syntaxForSt</text>
</a>
</g>
</g>
<!-- Node2&#45;&gt;Node3 -->
<g id="edge3" class="edge">
<title>Node2&#45;&gt;Node3</title>
<path fill="none" stroke="midnightblue" d="M1689.6,-38C1676.04,-38 1661.95,-38 1648.56,-38"/>
<polygon fill="midnightblue" stroke="midnightblue" points="1689.84,-41.5 1699.84,-38 1689.84,-34.5 1689.84,-41.5"/>
</g>
<!-- Node4 -->
<g id="node4" class="node">
<title>Node4</title>
<g id="a_node4"><a xlink:href="../../d0/dfe/class_syntax_analyzer.html#a1332b189c9be3ef8969eda9f078a97b3" target="_top" xlink:title=" ">
<polygon fill="none" stroke="black" points="1345,-123.5 1345,-142.5 1470,-142.5 1470,-123.5 1345,-123.5"/>
<text text-anchor="middle" x="1407.5" y="-130.5" font-family="Helvetica,sans-Serif" font-size="10.00">SyntaxAnalyzer::syntaxSt</text>
</a>
</g>
</g>
<!-- Node3&#45;&gt;Node4 -->
<g id="edge4" class="edge">
<title>Node3&#45;&gt;Node4</title>
<path fill="none" stroke="midnightblue" d="M1508.49,-51.75C1507.65,-52.16 1506.82,-52.58 1506,-53 1468.02,-72.56 1428.66,-106.03 1414.23,-123.38"/>
<polygon fill="midnightblue" stroke="midnightblue" points="1510.05,-54.88 1517.7,-47.55 1507.15,-48.51 1510.05,-54.88"/>
</g>
<!-- Node4&#45;&gt;Node3 -->
<g id="edge5" class="edge">
<title>Node4&#45;&gt;Node3</title>
<path fill="none" stroke="midnightblue" d="M1435.58,-117.38C1454.36,-103.55 1480.49,-84.14 1506,-71 1525.56,-60.93 1550.24,-53.78 1565.04,-47.53"/>
<polygon fill="midnightblue" stroke="midnightblue" points="1433.5,-114.56 1427.49,-123.3 1437.63,-120.21 1433.5,-114.56"/>
</g>
<!-- Node5 -->
<g id="node5" class="node">
<title>Node5</title>
<g id="a_node5"><a xlink:href="../../d0/dfe/class_syntax_analyzer.html#a44506791ee9420b418715a9e87908aeb" target="_top" xlink:title=" ">
<polygon fill="none" stroke="black" points="1169,-199.5 1169,-218.5 1300,-218.5 1300,-199.5 1169,-199.5"/>
<text text-anchor="middle" x="1234.5" y="-206.5" font-family="Helvetica,sans-Serif" font-size="10.00">SyntaxAnalyzer::syntaxIfSt</text>
</a>
</g>
</g>
<!-- Node4&#45;&gt;Node5 -->
<g id="edge6" class="edge">
<title>Node4&#45;&gt;Node5</title>
<path fill="none" stroke="midnightblue" d="M1373.03,-147.68C1354.75,-158.25 1331.33,-171.79 1309,-181 1289.63,-188.99 1265.96,-194.38 1250.82,-199.48"/>
<polygon fill="midnightblue" stroke="midnightblue" points="1374.91,-150.63 1381.83,-142.61 1371.42,-144.57 1374.91,-150.63"/>
</g>
<!-- Node6 -->
<g id="node6" class="node">
<title>Node6</title>
<g id="a_node6"><a xlink:href="../../d0/dfe/class_syntax_analyzer.html#a01d109f26cc4d069b40fed83435e3141" target="_top" xlink:title=" ">
<polygon fill="none" stroke="black" points="1164,-85.5 1164,-104.5 1305,-104.5 1305,-85.5 1164,-85.5"/>
<text text-anchor="middle" x="1234.5" y="-92.5" font-family="Helvetica,sans-Serif" font-size="10.00">SyntaxAnalyzer::syntaxStList</text>
</a>
</g>
</g>
<!-- Node4&#45;&gt;Node6 -->
<g id="edge8" class="edge">
<title>Node4&#45;&gt;Node6</title>
<path fill="none" stroke="midnightblue" d="M1353.29,-121.18C1329.18,-115.82 1301.06,-109.57 1278.34,-104.52"/>
<polygon fill="midnightblue" stroke="midnightblue" points="1352.83,-124.66 1363.35,-123.41 1354.35,-117.82 1352.83,-124.66"/>
</g>
<!-- Node15 -->
<g id="node15" class="node">
<title>Node15</title>
<g id="a_node15"><a xlink:href="../../d0/dfe/class_syntax_analyzer.html#a4a85e884f3f202c24ce09cc0c0e281b1" target="_top" xlink:title=" ">
<polygon fill="none" stroke="black" points="1160,-161.5 1160,-180.5 1309,-180.5 1309,-161.5 1160,-161.5"/>
<text text-anchor="middle" x="1234.5" y="-168.5" font-family="Helvetica,sans-Serif" font-size="10.00">SyntaxAnalyzer::syntaxWhileSt</text>
</a>
</g>
</g>
<!-- Node4&#45;&gt;Node15 -->
<g id="edge19" class="edge">
<title>Node4&#45;&gt;Node15</title>
<path fill="none" stroke="midnightblue" d="M1334.65,-142.29C1306.89,-148.15 1277.16,-155.41 1257.57,-161.39"/>
<polygon fill="midnightblue" stroke="midnightblue" points="1335.68,-145.66 1344.77,-140.21 1334.26,-138.8 1335.68,-145.66"/>
</g>
<!-- Node5&#45;&gt;Node4 -->
<g id="edge7" class="edge">
<title>Node5&#45;&gt;Node4</title>
<path fill="none" stroke="midnightblue" d="M1309.74,-198.34C1350.64,-180.4 1385.45,-156.61 1399.75,-142.55"/>
<polygon fill="midnightblue" stroke="midnightblue" points="1308.21,-195.18 1300.36,-202.3 1310.94,-201.63 1308.21,-195.18"/>
</g>
<!-- Node7 -->
<g id="node7" class="node">
<title>Node7</title>
<g id="a_node7"><a xlink:href="../../d0/dfe/class_syntax_analyzer.html#a1390f811b111005b207bd039d2623dd4" target="_top" xlink:title=" ">
<polygon fill="none" stroke="black" points="953,-123.5 953,-142.5 1124,-142.5 1124,-123.5 953,-123.5"/>
<text text-anchor="middle" x="1038.5" y="-130.5" font-family="Helvetica,sans-Serif" font-size="10.00">SyntaxAnalyzer::syntaxCompoundSt</text>
</a>
</g>
</g>
<!-- Node6&#45;&gt;Node7 -->
<g id="edge9" class="edge">
<title>Node6&#45;&gt;Node7</title>
<path fill="none" stroke="midnightblue" d="M1174.59,-106.54C1146.92,-111.96 1114.34,-118.34 1088.1,-123.48"/>
<polygon fill="midnightblue" stroke="midnightblue" points="1175.4,-109.95 1184.55,-104.59 1174.06,-103.08 1175.4,-109.95"/>
</g>
<!-- Node7&#45;&gt;Node4 -->
<g id="edge18" class="edge">
<title>Node7&#45;&gt;Node4</title>
<path fill="none" stroke="midnightblue" d="M1134.36,-133C1200.61,-133 1287.14,-133 1344.66,-133"/>
<polygon fill="midnightblue" stroke="midnightblue" points="1134.32,-129.5 1124.32,-133 1134.32,-136.5 1134.32,-129.5"/>
</g>
<!-- Node8 -->
<g id="node8" class="node">
<title>Node8</title>
<g id="a_node8"><a xlink:href="../../d0/dfe/class_syntax_analyzer.html#a500e4e0cd0605ebbee4ab452948fa2ca" target="_top" xlink:title=" ">
<polygon fill="none" stroke="black" points="777,-189.5 777,-208.5 917,-208.5 917,-189.5 777,-189.5"/>
<text text-anchor="middle" x="847" y="-196.5" font-family="Helvetica,sans-Serif" font-size="10.00">SyntaxAnalyzer::syntaxBlock</text>
</a>
</g>
</g>
<!-- Node7&#45;&gt;Node8 -->
<g id="edge10" class="edge">
<title>Node7&#45;&gt;Node8</title>
<path fill="none" stroke="midnightblue" d="M1000.1,-146.03C963.33,-158.83 908.09,-178.07 875.28,-189.5"/>
<polygon fill="midnightblue" stroke="midnightblue" points="1001.65,-149.19 1009.95,-142.6 999.35,-142.58 1001.65,-149.19"/>
</g>
<!-- Node9 -->
<g id="node9" class="node">
<title>Node9</title>
<g id="a_node9"><a xlink:href="../../d0/dfe/class_syntax_analyzer.html#a4dc8338b4fc879f36e63f27fe3ce7041" target="_top" xlink:title=" ">
<polygon fill="none" stroke="black" points="589,-170.5 589,-189.5 741,-189.5 741,-170.5 589,-170.5"/>
<text text-anchor="middle" x="665" y="-177.5" font-family="Helvetica,sans-Serif" font-size="10.00">SyntaxAnalyzer::syntaxFuncDef</text>
</a>
</g>
</g>
<!-- Node8&#45;&gt;Node9 -->
<g id="edge11" class="edge">
<title>Node8&#45;&gt;Node9</title>
<path fill="none" stroke="midnightblue" d="M766.95,-190.66C758.39,-189.75 749.69,-188.83 741.18,-187.94"/>
<polygon fill="midnightblue" stroke="midnightblue" points="766.61,-194.14 776.92,-191.71 767.34,-187.18 766.61,-194.14"/>
</g>
<!-- Node10 -->
<g id="node10" class="node">
<title>Node10</title>
<g id="a_node10"><a xlink:href="../../d0/dfe/class_syntax_analyzer.html#ada547456d19f4a7490f57f7dc9bfed94" target="_top" xlink:title=" ">
<polygon fill="none" stroke="black" points="401,-189.5 401,-208.5 553,-208.5 553,-189.5 401,-189.5"/>
<text text-anchor="middle" x="477" y="-196.5" font-family="Helvetica,sans-Serif" font-size="10.00">SyntaxAnalyzer::syntaxProgram</text>
</a>
</g>
</g>
<!-- Node8&#45;&gt;Node10 -->
<g id="edge17" class="edge">
<title>Node8&#45;&gt;Node10</title>
<path fill="none" stroke="midnightblue" d="M766.46,-199C703.21,-199 615.34,-199 553.24,-199"/>
<polygon fill="midnightblue" stroke="midnightblue" points="766.78,-202.5 776.78,-199 766.78,-195.5 766.78,-202.5"/>
</g>
<!-- Node9&#45;&gt;Node10 -->
<g id="edge12" class="edge">
<title>Node9&#45;&gt;Node10</title>
<path fill="none" stroke="midnightblue" d="M578.85,-188.7C570.26,-189.58 561.57,-190.46 553.1,-191.33"/>
<polygon fill="midnightblue" stroke="midnightblue" points="579.29,-192.17 588.88,-187.67 578.58,-185.21 579.29,-192.17"/>
</g>
<!-- Node11 -->
<g id="node11" class="node">
<title>Node11</title>
<g id="a_node11"><a xlink:href="../../d0/dfe/class_syntax_analyzer.html#addbd9bc0fe0dae8cd2ddb4fbafea0fcc" target="_top" xlink:title="Синтаксический анализ токенов, переданных анализатору.">
<polygon fill="none" stroke="black" points="213,-189.5 213,-208.5 365,-208.5 365,-189.5 213,-189.5"/>
<text text-anchor="middle" x="289" y="-196.5" font-family="Helvetica,sans-Serif" font-size="10.00">SyntaxAnalyzer::analyzeTokens</text>
</a>
</g>
</g>
<!-- Node10&#45;&gt;Node11 -->
<g id="edge13" class="edge">
<title>Node10&#45;&gt;Node11</title>
<path fill="none" stroke="midnightblue" d="M390.85,-199C382.26,-199 373.57,-199 365.1,-199"/>
<polygon fill="midnightblue" stroke="midnightblue" points="390.88,-202.5 400.88,-199 390.88,-195.5 390.88,-202.5"/>
</g>
<!-- Node12 -->
<g id="node12" class="node">
<title>Node12</title>
<g id="a_node12"><a xlink:href="../../d1/d80/namespace_analyze.html#a1597f9f086c3276d0287917efbed14b8" target="_top" xlink:title=" ">
<polygon fill="none" stroke="black" points="74,-208.5 74,-227.5 177,-227.5 177,-208.5 74,-208.5"/>
<text text-anchor="middle" x="125.5" y="-215.5" font-family="Helvetica,sans-Serif" font-size="10.00">Analyze::analyzeFile</text>
</a>
</g>
</g>
<!-- Node11&#45;&gt;Node12 -->
<g id="edge14" class="edge">
<title>Node11&#45;&gt;Node12</title>
<path fill="none" stroke="midnightblue" d="M202.76,-209.03C194.11,-210.05 185.53,-211.06 177.41,-212.01"/>
<polygon fill="midnightblue" stroke="midnightblue" points="203.4,-212.48 212.92,-207.83 202.58,-205.52 203.4,-212.48"/>
</g>
<!-- Node14 -->
<g id="node14" class="node">
<title>Node14</title>
<g id="a_node14"><a xlink:href="../../db/df9/test_semantic_8cpp.html#a804faf7fd199a3c491020f1f2caa618b" target="_top" xlink:title="Тест семантического анализа Паскаля">
<polygon fill="none" stroke="black" points="105,-170.5 105,-189.5 146,-189.5 146,-170.5 105,-170.5"/>
<text text-anchor="middle" x="125.5" y="-177.5" font-family="Helvetica,sans-Serif" font-size="10.00">TEST</text>
</a>
</g>
</g>
<!-- Node11&#45;&gt;Node14 -->
<g id="edge16" class="edge">
<title>Node11&#45;&gt;Node14</title>
<path fill="none" stroke="midnightblue" d="M202.84,-188.98C181.63,-186.49 160.83,-184.04 146.31,-182.33"/>
<polygon fill="midnightblue" stroke="midnightblue" points="202.58,-192.48 212.92,-190.17 203.4,-185.52 202.58,-192.48"/>
</g>
<!-- Node13 -->
<g id="node13" class="node">
<title>Node13</title>
<g id="a_node13"><a xlink:href="../../d3/db4/graph_draw_8cpp.html#a3c04138a5bfe5d72780bb7e82a18e627" target="_top" xlink:title=" ">
<polygon fill="none" stroke="black" points="0,-208.5 0,-227.5 38,-227.5 38,-208.5 0,-208.5"/>
<text text-anchor="middle" x="19" y="-215.5" font-family="Helvetica,sans-Serif" font-size="10.00">main</text>
</a>
</g>
</g>
<!-- Node12&#45;&gt;Node13 -->
<g id="edge15" class="edge">
<title>Node12&#45;&gt;Node13</title>
<path fill="none" stroke="midnightblue" d="M63.7,-218C54.49,-218 45.64,-218 38.35,-218"/>
<polygon fill="midnightblue" stroke="midnightblue" points="63.78,-221.5 73.78,-218 63.78,-214.5 63.78,-221.5"/>
</g>
<!-- Node15&#45;&gt;Node4 -->
<g id="edge20" class="edge">
<title>Node15&#45;&gt;Node4</title>
<path fill="none" stroke="midnightblue" d="M1318.58,-159.29C1342.92,-153.92 1367.53,-147.77 1384.49,-142.59"/>
<polygon fill="midnightblue" stroke="midnightblue" points="1317.58,-155.92 1308.55,-161.45 1319.06,-162.76 1317.58,-155.92"/>
</g>
<!-- Node17 -->
<g id="node17" class="node">
<title>Node17</title>
<g id="a_node17"><a xlink:href="../../d0/dfe/class_syntax_analyzer.html#a65d458f8a460cd5153c013f9dc2b6d90" target="_top" xlink:title=" ">
<polygon fill="none" stroke="black" points="2434,-104.5 2434,-123.5 2598,-123.5 2598,-104.5 2434,-104.5"/>
<text text-anchor="middle" x="2516" y="-111.5" font-family="Helvetica,sans-Serif" font-size="10.00">SyntaxAnalyzer::syntaxSimpleExpr</text>
</a>
</g>
</g>
<!-- Node16&#45;&gt;Node17 -->
<g id="edge22" class="edge">
<title>Node16&#45;&gt;Node17</title>
<path fill="none" stroke="midnightblue" d="M2623.65,-114C2615.2,-114 2606.59,-114 2598.11,-114"/>
<polygon fill="midnightblue" stroke="midnightblue" points="2623.85,-117.5 2633.85,-114 2623.85,-110.5 2623.85,-117.5"/>
</g>
<!-- Node18 -->
<g id="node18" class="node">
<title>Node18</title>
<g id="a_node18"><a xlink:href="../../d0/dfe/class_syntax_analyzer.html#a3c3f51ab7cdb341ac4fa460e352150ae" target="_top" xlink:title=" ">
<polygon fill="none" stroke="black" points="2264,-142.5 2264,-161.5 2398,-161.5 2398,-142.5 2264,-142.5"/>
<text text-anchor="middle" x="2331" y="-149.5" font-family="Helvetica,sans-Serif" font-size="10.00">SyntaxAnalyzer::syntaxExpr</text>
</a>
</g>
</g>
<!-- Node17&#45;&gt;Node18 -->
<g id="edge23" class="edge">
<title>Node17&#45;&gt;Node18</title>
<path fill="none" stroke="midnightblue" d="M2458.75,-125.68C2432.79,-131.07 2402.38,-137.39 2377.85,-142.48"/>
<polygon fill="midnightblue" stroke="midnightblue" points="2459.74,-129.05 2468.82,-123.59 2458.32,-122.2 2459.74,-129.05"/>
</g>
<!-- Node18&#45;&gt;Node1 -->
<g id="edge33" class="edge">
<title>Node18&#45;&gt;Node1</title>
<path fill="none" stroke="midnightblue" d="M2408.1,-158.81C2496.91,-164.46 2647.37,-166.86 2771,-133 2807.21,-123.08 2844.85,-99.17 2864.22,-85.68"/>
<polygon fill="midnightblue" stroke="midnightblue" points="2408.32,-155.31 2398.11,-158.14 2407.86,-162.3 2408.32,-155.31"/>
</g>
<!-- Node18&#45;&gt;Node5 -->
<g id="edge34" class="edge">
<title>Node18&#45;&gt;Node5</title>
<path fill="none" stroke="midnightblue" d="M2300.15,-165.51C2280.12,-174.05 2252.94,-184.63 2228,-191 2109.58,-221.25 2077.72,-228 1955.5,-228 1955.5,-228 1955.5,-228 1578,-228 1481.08,-228 1368.96,-220.32 1300.15,-214.73"/>
<polygon fill="midnightblue" stroke="midnightblue" points="2301.58,-168.7 2309.36,-161.51 2298.79,-162.28 2301.58,-168.7"/>
</g>
<!-- Node18&#45;&gt;Node15 -->
<g id="edge40" class="edge">
<title>Node18&#45;&gt;Node15</title>
<path fill="none" stroke="midnightblue" d="M2261.89,-163.09C2187,-174.31 2063.01,-190 1955.5,-190 1955.5,-190 1955.5,-190 1578,-190 1485.25,-190 1378.58,-182.97 1309.26,-177.46"/>
<polygon fill="midnightblue" stroke="midnightblue" points="2262.76,-166.5 2272.12,-161.54 2261.71,-159.58 2262.76,-166.5"/>
</g>
<!-- Node19 -->
<g id="node19" class="node">
<title>Node19</title>
<g id="a_node19"><a xlink:href="../../d0/dfe/class_syntax_analyzer.html#a3e87b8ffb5f24f1db097bfb6aaeb8c2d" target="_top" xlink:title=" ">
<polygon fill="none" stroke="black" points="1877,-47.5 1877,-66.5 2032,-66.5 2032,-47.5 1877,-47.5"/>
<text text-anchor="middle" x="1954.5" y="-54.5" font-family="Helvetica,sans-Serif" font-size="10.00">SyntaxAnalyzer::syntaxAssignSt</text>
</a>
</g>
</g>
<!-- Node18&#45;&gt;Node19 -->
<g id="edge24" class="edge">
<title>Node18&#45;&gt;Node19</title>
<path fill="none" stroke="midnightblue" d="M2267.89,-140.52C2214.5,-130.16 2135.65,-113.72 2068,-95 2037.8,-86.64 2003.8,-74.81 1981.16,-66.58"/>
<polygon fill="midnightblue" stroke="midnightblue" points="2267.4,-143.99 2277.88,-142.44 2268.72,-137.11 2267.4,-143.99"/>
</g>
<!-- Node20 -->
<g id="node20" class="node">
<title>Node20</title>
<g id="a_node20"><a xlink:href="../../d0/dfe/class_syntax_analyzer.html#a21f6ed68cce9f38063319d350afc1239" target="_top" xlink:title=" ">
<polygon fill="none" stroke="black" points="2077.5,-66.5 2077.5,-85.5 2218.5,-85.5 2218.5,-66.5 2077.5,-66.5"/>
<text text-anchor="middle" x="2148" y="-73.5" font-family="Helvetica,sans-Serif" font-size="10.00">SyntaxAnalyzer::syntaxCallSt</text>
</a>
</g>
</g>
<!-- Node18&#45;&gt;Node20 -->
<g id="edge27" class="edge">
<title>Node18&#45;&gt;Node20</title>
<path fill="none" stroke="midnightblue" d="M2304.55,-137.43C2284.26,-126.22 2254.9,-110.84 2228,-100 2214.31,-94.48 2198.84,-89.52 2185.25,-85.56"/>
<polygon fill="midnightblue" stroke="midnightblue" points="2303.02,-140.59 2313.46,-142.42 2306.44,-134.48 2303.02,-140.59"/>
</g>
<!-- Node21 -->
<g id="node21" class="node">
<title>Node21</title>
<g id="a_node21"><a xlink:href="../../d0/dfe/class_syntax_analyzer.html#ad43214817dbe71119316f653b4cbbefb" target="_top" xlink:title=" ">
<polygon fill="none" stroke="black" points="2068,-256.5 2068,-275.5 2228,-275.5 2228,-256.5 2068,-256.5"/>
<text text-anchor="middle" x="2148" y="-263.5" font-family="Helvetica,sans-Serif" font-size="10.00">SyntaxAnalyzer::syntaxConstDecl</text>
</a>
</g>
</g>
<!-- Node18&#45;&gt;Node21 -->
<g id="edge30" class="edge">
<title>Node18&#45;&gt;Node21</title>
<path fill="none" stroke="midnightblue" d="M2314.95,-169.16C2296.39,-189.31 2262.98,-222.48 2228,-242 2216.98,-248.15 2204.21,-252.9 2192.18,-256.5"/>
<polygon fill="midnightblue" stroke="midnightblue" points="2317.64,-171.4 2321.74,-161.63 2312.44,-166.71 2317.64,-171.4"/>
</g>
<!-- Node23 -->
<g id="node23" class="node">
<title>Node23</title>
<g id="a_node23"><a xlink:href="../../d0/dfe/class_syntax_analyzer.html#a24dfeabcc9335e5f3f040f7cf0c64fd9" target="_top" xlink:title=" ">
<polygon fill="none" stroke="black" points="1688,-142.5 1688,-161.5 1841,-161.5 1841,-142.5 1688,-142.5"/>
<text text-anchor="middle" x="1764.5" y="-149.5" font-family="Helvetica,sans-Serif" font-size="10.00">SyntaxAnalyzer::syntaxReturnSt</text>
</a>
</g>
</g>
<!-- Node18&#45;&gt;Node23 -->
<g id="edge35" class="edge">
<title>Node18&#45;&gt;Node23</title>
<path fill="none" stroke="midnightblue" d="M2253.68,-152C2145.55,-152 1948.94,-152 1841.16,-152"/>
<polygon fill="midnightblue" stroke="midnightblue" points="2253.86,-155.5 2263.86,-152 2253.86,-148.5 2253.86,-155.5"/>
</g>
<!-- Node24 -->
<g id="node24" class="node">
<title>Node24</title>
<g id="a_node24"><a xlink:href="../../d0/dfe/class_syntax_analyzer.html#aee174af1cc97011051b2a8a87d2a5e7d" target="_top" xlink:title=" ">
<polygon fill="none" stroke="black" points="2076.5,-28.5 2076.5,-47.5 2219.5,-47.5 2219.5,-28.5 2076.5,-28.5"/>
<text text-anchor="middle" x="2148" y="-35.5" font-family="Helvetica,sans-Serif" font-size="10.00">SyntaxAnalyzer::syntaxSelect</text>
</a>
</g>
</g>
<!-- Node18&#45;&gt;Node24 -->
<g id="edge37" class="edge">
<title>Node18&#45;&gt;Node24</title>
<path fill="none" stroke="midnightblue" d="M2316.19,-134.49C2298.21,-112.92 2264.72,-76.73 2228,-57 2220.79,-53.13 2212.8,-50.04 2204.74,-47.57"/>
<polygon fill="midnightblue" stroke="midnightblue" points="2313.67,-136.95 2322.7,-142.49 2319.1,-132.53 2313.67,-136.95"/>
</g>
<!-- Node19&#45;&gt;Node2 -->
<g id="edge25" class="edge">
<title>Node19&#45;&gt;Node2</title>
<path fill="none" stroke="midnightblue" d="M1866.67,-48.22C1854.01,-46.95 1841.18,-45.65 1829.1,-44.43"/>
<polygon fill="midnightblue" stroke="midnightblue" points="1866.46,-51.72 1876.76,-49.24 1867.16,-44.76 1866.46,-51.72"/>
</g>
<!-- Node19&#45;&gt;Node4 -->
<g id="edge26" class="edge">
<title>Node19&#45;&gt;Node4</title>
<path fill="none" stroke="midnightblue" d="M1866.42,-59.44C1775.57,-63.36 1629.45,-73.55 1506,-100 1479.96,-105.58 1451.21,-115.84 1431.72,-123.45"/>
<polygon fill="midnightblue" stroke="midnightblue" points="1866.82,-62.92 1876.67,-59.01 1866.53,-55.93 1866.82,-62.92"/>
</g>
<!-- Node20&#45;&gt;Node1 -->
<g id="edge28" class="edge">
<title>Node20&#45;&gt;Node1</title>
<path fill="none" stroke="midnightblue" d="M2228.79,-76C2372.09,-76 2670.73,-76 2806.99,-76"/>
<polygon fill="midnightblue" stroke="midnightblue" points="2228.75,-72.5 2218.75,-76 2228.75,-79.5 2228.75,-72.5"/>
</g>
<!-- Node20&#45;&gt;Node4 -->
<g id="edge29" class="edge">
<title>Node20&#45;&gt;Node4</title>
<path fill="none" stroke="midnightblue" d="M2066.79,-82.19C1918.24,-93.66 1603.34,-117.96 1470.1,-128.25"/>
<polygon fill="midnightblue" stroke="midnightblue" points="2067.49,-85.65 2077.19,-81.39 2066.95,-78.67 2067.49,-85.65"/>
</g>
<!-- Node22 -->
<g id="node22" class="node">
<title>Node22</title>
<g id="a_node22"><a xlink:href="../../d0/dfe/class_syntax_analyzer.html#a177c60c88c15c37d6f5cf0c41a35190b" target="_top" xlink:title=" ">
<polygon fill="none" stroke="black" points="1506,-256.5 1506,-275.5 1652,-275.5 1652,-256.5 1506,-256.5"/>
<text text-anchor="middle" x="1579" y="-263.5" font-family="Helvetica,sans-Serif" font-size="10.00">SyntaxAnalyzer::syntaxConsts</text>
</a>
</g>
</g>
<!-- Node21&#45;&gt;Node22 -->
<g id="edge31" class="edge">
<title>Node21&#45;&gt;Node22</title>
<path fill="none" stroke="midnightblue" d="M2057.6,-266C1945.53,-266 1755.61,-266 1652.26,-266"/>
<polygon fill="midnightblue" stroke="midnightblue" points="2057.86,-269.5 2067.86,-266 2057.86,-262.5 2057.86,-269.5"/>
</g>
<!-- Node22&#45;&gt;Node8 -->
<g id="edge32" class="edge">
<title>Node22&#45;&gt;Node8</title>
<path fill="none" stroke="midnightblue" d="M1495.85,-258.58C1411.56,-250.96 1276.62,-238.72 1160,-228 1076.44,-220.32 980.3,-211.37 917.08,-205.46"/>
<polygon fill="midnightblue" stroke="midnightblue" points="1495.6,-262.07 1505.88,-259.49 1496.23,-255.1 1495.6,-262.07"/>
</g>
<!-- Node23&#45;&gt;Node4 -->
<g id="edge36" class="edge">
<title>Node23&#45;&gt;Node4</title>
<path fill="none" stroke="midnightblue" d="M1677.69,-147.41C1613.64,-143.98 1527.61,-139.38 1470.23,-136.3"/>
<polygon fill="midnightblue" stroke="midnightblue" points="1677.61,-150.91 1687.78,-147.95 1677.98,-143.92 1677.61,-150.91"/>
</g>
<!-- Node24&#45;&gt;Node1 -->
<g id="edge39" class="edge">
<title>Node24&#45;&gt;Node1</title>
<path fill="none" stroke="midnightblue" d="M2229.62,-42.21C2373.23,-49.7 2670.99,-65.23 2806.99,-72.32"/>
<polygon fill="midnightblue" stroke="midnightblue" points="2229.72,-38.71 2219.55,-41.68 2229.36,-45.7 2229.72,-38.71"/>
</g>
<!-- Node24&#45;&gt;Node19 -->
<g id="edge38" class="edge">
<title>Node24&#45;&gt;Node19</title>
<path fill="none" stroke="midnightblue" d="M2066.01,-46.04C2054.77,-47.15 2043.24,-48.29 2032.09,-49.4"/>
<polygon fill="midnightblue" stroke="midnightblue" points="2066.63,-49.49 2076.24,-45.02 2065.94,-42.53 2066.63,-49.49"/>
</g>
</g>
</svg>
