<?xml version="1.0" encoding="UTF-8" standalone="no"?>
<!DOCTYPE svg PUBLIC "-//W3C//DTD SVG 1.1//EN"
 "http://www.w3.org/Graphics/SVG/1.1/DTD/svg11.dtd">
<!-- Generated by graphviz version 3.0.0 (20220413.0106)
 -->
<!-- Title: SyntaxAnalyzer::syntaxEmptySt Pages: 1 -->
<svg width="1731pt" height="165pt"
 viewBox="0.00 0.00 1731.00 165.07" xmlns="http://www.w3.org/2000/svg" xmlns:xlink="http://www.w3.org/1999/xlink">
<g id="graph0" class="graph" transform="scale(1 1) rotate(0) translate(4 161.07)">
<title>SyntaxAnalyzer::syntaxEmptySt</title>
<!-- Node1 -->
<g id="node1" class="node">
<title>Node1</title>
<g id="a_node1"><a xlink:title=" ">
<polygon fill="#bfbfbf" stroke="black" points="1571,-80.57 1571,-99.57 1723,-99.57 1723,-80.57 1571,-80.57"/>
<text text-anchor="middle" x="1647" y="-87.57" font-family="Helvetica,sans-Serif" font-size="10.00">SyntaxAnalyzer::syntaxEmptySt</text>
</a>
</g>
</g>
<!-- Node2 -->
<g id="node2" class="node">
<title>Node2</title>
<g id="a_node2"><a xlink:href="../../d0/dfe/class_syntax_analyzer.html#a1332b189c9be3ef8969eda9f078a97b3" target="_top" xlink:title=" ">
<polygon fill="none" stroke="black" points="1410,-80.57 1410,-99.57 1535,-99.57 1535,-80.57 1410,-80.57"/>
<text text-anchor="middle" x="1472.5" y="-87.57" font-family="Helvetica,sans-Serif" font-size="10.00">SyntaxAnalyzer::syntaxSt</text>
</a>
</g>
</g>
<!-- Node1&#45;&gt;Node2 -->
<g id="edge1" class="edge">
<title>Node1&#45;&gt;Node2</title>
<path fill="none" stroke="midnightblue" d="M1560.76,-90.07C1552.15,-90.07 1543.52,-90.07 1535.23,-90.07"/>
<polygon fill="midnightblue" stroke="midnightblue" points="1560.84,-93.57 1570.84,-90.07 1560.84,-86.57 1560.84,-93.57"/>
</g>
<!-- Node3 -->
<g id="node3" class="node">
<title>Node3</title>
<g id="a_node3"><a xlink:href="../../d0/dfe/class_syntax_analyzer.html#afd2005539c57ee2575cab3c50d061cd9" target="_top" xlink:title=" ">
<polygon fill="none" stroke="black" points="1230,-137.57 1230,-156.57 1369,-156.57 1369,-137.57 1230,-137.57"/>
<text text-anchor="middle" x="1299.5" y="-144.57" font-family="Helvetica,sans-Serif" font-size="10.00">SyntaxAnalyzer::syntaxForSt</text>
</a>
</g>
</g>
<!-- Node2&#45;&gt;Node3 -->
<g id="edge2" class="edge">
<title>Node2&#45;&gt;Node3</title>
<path fill="none" stroke="midnightblue" d="M1418.94,-103.2C1404.5,-108.5 1388.75,-114.3 1374,-119.07 1353.31,-125.75 1328.75,-131.71 1313.91,-137.51"/>
<polygon fill="midnightblue" stroke="midnightblue" points="1420.51,-106.35 1428.7,-99.64 1418.1,-99.78 1420.51,-106.35"/>
</g>
<!-- Node4 -->
<g id="node4" class="node">
<title>Node4</title>
<g id="a_node4"><a xlink:href="../../d0/dfe/class_syntax_analyzer.html#a44506791ee9420b418715a9e87908aeb" target="_top" xlink:title=" ">
<polygon fill="none" stroke="black" points="1234,-99.57 1234,-118.57 1365,-118.57 1365,-99.57 1234,-99.57"/>
<text text-anchor="middle" x="1299.5" y="-106.57" font-family="Helvetica,sans-Serif" font-size="10.00">SyntaxAnalyzer::syntaxIfSt</text>
</a>
</g>
</g>
<!-- Node2&#45;&gt;Node4 -->
<g id="edge4" class="edge">
<title>Node2&#45;&gt;Node4</title>
<path fill="none" stroke="midnightblue" d="M1399.72,-91.37C1377.62,-93.57 1354.27,-96.53 1335.78,-99.56"/>
<polygon fill="midnightblue" stroke="midnightblue" points="1400.14,-94.85 1409.77,-90.41 1399.48,-87.88 1400.14,-94.85"/>
</g>
<!-- Node5 -->
<g id="node5" class="node">
<title>Node5</title>
<g id="a_node5"><a xlink:href="../../d0/dfe/class_syntax_analyzer.html#a01d109f26cc4d069b40fed83435e3141" target="_top" xlink:title=" ">
<polygon fill="none" stroke="black" points="1229,-61.57 1229,-80.57 1370,-80.57 1370,-61.57 1229,-61.57"/>
<text text-anchor="middle" x="1299.5" y="-68.57" font-family="Helvetica,sans-Serif" font-size="10.00">SyntaxAnalyzer::syntaxStList</text>
</a>
</g>
</g>
<!-- Node2&#45;&gt;Node5 -->
<g id="edge6" class="edge">
<title>Node2&#45;&gt;Node5</title>
<path fill="none" stroke="midnightblue" d="M1399.72,-82.09C1389.97,-81.01 1379.98,-79.9 1370.27,-78.82"/>
<polygon fill="midnightblue" stroke="midnightblue" points="1399.44,-85.58 1409.77,-83.21 1400.21,-78.62 1399.44,-85.58"/>
</g>
<!-- Node15 -->
<g id="node15" class="node">
<title>Node15</title>
<g id="a_node15"><a xlink:href="../../d0/dfe/class_syntax_analyzer.html#a4a85e884f3f202c24ce09cc0c0e281b1" target="_top" xlink:title=" ">
<polygon fill="none" stroke="black" points="1225,-23.57 1225,-42.57 1374,-42.57 1374,-23.57 1225,-23.57"/>
<text text-anchor="middle" x="1299.5" y="-30.57" font-family="Helvetica,sans-Serif" font-size="10.00">SyntaxAnalyzer::syntaxWhileSt</text>
</a>
</g>
</g>
<!-- Node2&#45;&gt;Node15 -->
<g id="edge18" class="edge">
<title>Node2&#45;&gt;Node15</title>
<path fill="none" stroke="midnightblue" d="M1452.93,-75.34C1433.49,-64.87 1401.95,-52.09 1374,-43.07 1373.5,-42.9 1372.99,-42.74 1372.49,-42.58"/>
<polygon fill="midnightblue" stroke="midnightblue" points="1451.27,-78.42 1461.67,-80.41 1454.78,-72.36 1451.27,-78.42"/>
</g>
<!-- Node3&#45;&gt;Node2 -->
<g id="edge3" class="edge">
<title>Node3&#45;&gt;Node2</title>
<path fill="none" stroke="midnightblue" d="M1378.73,-135.43C1412.98,-123.85 1445.74,-109.88 1461.67,-99.72"/>
<polygon fill="midnightblue" stroke="midnightblue" points="1377.44,-132.17 1369.04,-138.63 1379.64,-138.82 1377.44,-132.17"/>
</g>
<!-- Node4&#45;&gt;Node2 -->
<g id="edge5" class="edge">
<title>Node4&#45;&gt;Node2</title>
<path fill="none" stroke="midnightblue" d="M1375.22,-107.47C1396.37,-105.3 1418.42,-102.49 1436.07,-99.6"/>
<polygon fill="midnightblue" stroke="midnightblue" points="1374.87,-103.98 1365.26,-108.44 1375.55,-110.95 1374.87,-103.98"/>
</g>
<!-- Node6 -->
<g id="node6" class="node">
<title>Node6</title>
<g id="a_node6"><a xlink:href="../../d0/dfe/class_syntax_analyzer.html#a1390f811b111005b207bd039d2623dd4" target="_top" xlink:title=" ">
<polygon fill="none" stroke="black" points="1018,-23.57 1018,-42.57 1189,-42.57 1189,-23.57 1018,-23.57"/>
<text text-anchor="middle" x="1103.5" y="-30.57" font-family="Helvetica,sans-Serif" font-size="10.00">SyntaxAnalyzer::syntaxCompoundSt</text>
</a>
</g>
</g>
<!-- Node5&#45;&gt;Node6 -->
<g id="edge7" class="edge">
<title>Node5&#45;&gt;Node6</title>
<path fill="none" stroke="midnightblue" d="M1239.59,-59.53C1211.92,-54.11 1179.34,-47.73 1153.1,-42.59"/>
<polygon fill="midnightblue" stroke="midnightblue" points="1239.06,-62.99 1249.55,-61.48 1240.4,-56.12 1239.06,-62.99"/>
</g>
<!-- Node6&#45;&gt;Node2 -->
<g id="edge17" class="edge">
<title>Node6&#45;&gt;Node2</title>
<path fill="none" stroke="midnightblue" d="M1144.43,-20.72C1198.19,-6.21 1296.07,12.72 1374,-14.07 1412.77,-27.39 1447.96,-63.14 1463.33,-80.43"/>
<polygon fill="midnightblue" stroke="midnightblue" points="1143.3,-17.4 1134.6,-23.46 1145.18,-24.14 1143.3,-17.4"/>
</g>
<!-- Node7 -->
<g id="node7" class="node">
<title>Node7</title>
<g id="a_node7"><a xlink:href="../../d0/dfe/class_syntax_analyzer.html#a500e4e0cd0605ebbee4ab452948fa2ca" target="_top" xlink:title=" ">
<polygon fill="none" stroke="black" points="842,-23.57 842,-42.57 982,-42.57 982,-23.57 842,-23.57"/>
<text text-anchor="middle" x="912" y="-30.57" font-family="Helvetica,sans-Serif" font-size="10.00">SyntaxAnalyzer::syntaxBlock</text>
</a>
</g>
</g>
<!-- Node6&#45;&gt;Node7 -->
<g id="edge8" class="edge">
<title>Node6&#45;&gt;Node7</title>
<path fill="none" stroke="midnightblue" d="M1007.63,-33.07C999.02,-33.07 990.41,-33.07 982.08,-33.07"/>
<polygon fill="midnightblue" stroke="midnightblue" points="1007.73,-36.57 1017.73,-33.07 1007.73,-29.57 1007.73,-36.57"/>
</g>
<!-- Node8 -->
<g id="node8" class="node">
<title>Node8</title>
<g id="a_node8"><a xlink:href="../../d0/dfe/class_syntax_analyzer.html#a4dc8338b4fc879f36e63f27fe3ce7041" target="_top" xlink:title=" ">
<polygon fill="none" stroke="black" points="654,-42.57 654,-61.57 806,-61.57 806,-42.57 654,-42.57"/>
<text text-anchor="middle" x="730" y="-49.57" font-family="Helvetica,sans-Serif" font-size="10.00">SyntaxAnalyzer::syntaxFuncDef</text>
</a>
</g>
</g>
<!-- Node7&#45;&gt;Node8 -->
<g id="edge9" class="edge">
<title>Node7&#45;&gt;Node8</title>
<path fill="none" stroke="midnightblue" d="M831.95,-41.41C823.39,-42.31 814.69,-43.23 806.18,-44.13"/>
<polygon fill="midnightblue" stroke="midnightblue" points="832.34,-44.89 841.92,-40.36 831.61,-37.93 832.34,-44.89"/>
</g>
<!-- Node9 -->
<g id="node9" class="node">
<title>Node9</title>
<g id="a_node9"><a xlink:href="../../d0/dfe/class_syntax_analyzer.html#ada547456d19f4a7490f57f7dc9bfed94" target="_top" xlink:title=" ">
<polygon fill="none" stroke="black" points="466,-23.57 466,-42.57 618,-42.57 618,-23.57 466,-23.57"/>
<text text-anchor="middle" x="542" y="-30.57" font-family="Helvetica,sans-Serif" font-size="10.00">SyntaxAnalyzer::syntaxProgram</text>
</a>
</g>
</g>
<!-- Node7&#45;&gt;Node9 -->
<g id="edge16" class="edge">
<title>Node7&#45;&gt;Node9</title>
<path fill="none" stroke="midnightblue" d="M831.46,-33.07C768.21,-33.07 680.34,-33.07 618.24,-33.07"/>
<polygon fill="midnightblue" stroke="midnightblue" points="831.78,-36.57 841.78,-33.07 831.78,-29.57 831.78,-36.57"/>
</g>
<!-- Node8&#45;&gt;Node9 -->
<g id="edge10" class="edge">
<title>Node8&#45;&gt;Node9</title>
<path fill="none" stroke="midnightblue" d="M643.85,-43.37C635.26,-42.49 626.57,-41.6 618.1,-40.74"/>
<polygon fill="midnightblue" stroke="midnightblue" points="643.58,-46.86 653.88,-44.39 644.29,-39.89 643.58,-46.86"/>
</g>
<!-- Node10 -->
<g id="node10" class="node">
<title>Node10</title>
<g id="a_node10"><a xlink:href="../../d0/dfe/class_syntax_analyzer.html#addbd9bc0fe0dae8cd2ddb4fbafea0fcc" target="_top" xlink:title="Синтаксический анализ токенов, переданных анализатору.">
<polygon fill="none" stroke="black" points="278,-23.57 278,-42.57 430,-42.57 430,-23.57 278,-23.57"/>
<text text-anchor="middle" x="354" y="-30.57" font-family="Helvetica,sans-Serif" font-size="10.00">SyntaxAnalyzer::analyzeTokens</text>
</a>
</g>
</g>
<!-- Node9&#45;&gt;Node10 -->
<g id="edge11" class="edge">
<title>Node9&#45;&gt;Node10</title>
<path fill="none" stroke="midnightblue" d="M455.85,-33.07C447.26,-33.07 438.57,-33.07 430.1,-33.07"/>
<polygon fill="midnightblue" stroke="midnightblue" points="455.88,-36.57 465.88,-33.07 455.88,-29.57 455.88,-36.57"/>
</g>
<!-- Node11 -->
<g id="node11" class="node">
<title>Node11</title>
<g id="a_node11"><a xlink:href="../../d1/d80/namespace_analyze.html#ad5b883abd31a279f5b95a9aa52415437" target="_top" xlink:title="Анализ файла inName и вывод в outName .dot описания ДАС. Так же выводит в стандартный поток вывода по...">
<polygon fill="none" stroke="black" points="139,-42.57 139,-61.57 242,-61.57 242,-42.57 139,-42.57"/>
<text text-anchor="middle" x="190.5" y="-49.57" font-family="Helvetica,sans-Serif" font-size="10.00">Analyze::analyzeFile</text>
</a>
</g>
</g>
<!-- Node10&#45;&gt;Node11 -->
<g id="edge12" class="edge">
<title>Node10&#45;&gt;Node11</title>
<path fill="none" stroke="midnightblue" d="M267.76,-43.09C259.11,-44.11 250.53,-45.12 242.41,-46.08"/>
<polygon fill="midnightblue" stroke="midnightblue" points="268.4,-46.54 277.92,-41.9 267.58,-39.59 268.4,-46.54"/>
</g>
<!-- Node14 -->
<g id="node14" class="node">
<title>Node14</title>
<g id="a_node14"><a xlink:href="../../db/df9/test_semantic_8cpp.html#a804faf7fd199a3c491020f1f2caa618b" target="_top" xlink:title="Тест семантического анализа Паскаля">
<polygon fill="none" stroke="black" points="170,-4.57 170,-23.57 211,-23.57 211,-4.57 170,-4.57"/>
<text text-anchor="middle" x="190.5" y="-11.57" font-family="Helvetica,sans-Serif" font-size="10.00">TEST</text>
</a>
</g>
</g>
<!-- Node10&#45;&gt;Node14 -->
<g id="edge15" class="edge">
<title>Node10&#45;&gt;Node14</title>
<path fill="none" stroke="midnightblue" d="M267.84,-23.05C246.63,-20.55 225.83,-18.1 211.31,-16.4"/>
<polygon fill="midnightblue" stroke="midnightblue" points="267.58,-26.54 277.92,-24.23 268.4,-19.59 267.58,-26.54"/>
</g>
<!-- Node12 -->
<g id="node12" class="node">
<title>Node12</title>
<g id="a_node12"><a xlink:href="../../d1/d80/namespace_analyze.html#af385d2d3d600a7392cb177a3171f193f" target="_top" xlink:title="Анализ файла inName и вывод в &quot;output.svg&quot; .dot описания ДАС. Так же выводит в стандартный поток выво...">
<polygon fill="none" stroke="black" points="0,-61.57 0,-80.57 103,-80.57 103,-61.57 0,-61.57"/>
<text text-anchor="middle" x="51.5" y="-68.57" font-family="Helvetica,sans-Serif" font-size="10.00">Analyze::analyzeFile</text>
</a>
</g>
</g>
<!-- Node11&#45;&gt;Node12 -->
<g id="edge13" class="edge">
<title>Node11&#45;&gt;Node12</title>
<path fill="none" stroke="midnightblue" d="M128.96,-60.46C120.42,-61.65 111.71,-62.85 103.37,-64.01"/>
<polygon fill="midnightblue" stroke="midnightblue" points="129.45,-63.93 138.88,-59.09 128.49,-56.99 129.45,-63.93"/>
</g>
<!-- Node13 -->
<g id="node13" class="node">
<title>Node13</title>
<g id="a_node13"><a xlink:href="../../d3/db4/graph_draw_8cpp.html#a3c04138a5bfe5d72780bb7e82a18e627" target="_top" xlink:title=" ">
<polygon fill="none" stroke="black" points="32.5,-23.57 32.5,-42.57 70.5,-42.57 70.5,-23.57 32.5,-23.57"/>
<text text-anchor="middle" x="51.5" y="-30.57" font-family="Helvetica,sans-Serif" font-size="10.00">main</text>
</a>
</g>
</g>
<!-- Node11&#45;&gt;Node13 -->
<g id="edge14" class="edge">
<title>Node11&#45;&gt;Node13</title>
<path fill="none" stroke="midnightblue" d="M128.92,-43.66C107.72,-40.72 85.5,-37.64 70.52,-35.57"/>
<polygon fill="midnightblue" stroke="midnightblue" points="128.49,-47.14 138.88,-45.05 129.45,-40.2 128.49,-47.14"/>
</g>
<!-- Node15&#45;&gt;Node2 -->
<g id="edge19" class="edge">
<title>Node15&#45;&gt;Node2</title>
<path fill="none" stroke="midnightblue" d="M1323.62,-46.04C1338.2,-50.78 1357.35,-55.69 1374,-61.07 1392.15,-66.93 1411.82,-74.37 1428.7,-80.5"/>
<polygon fill="midnightblue" stroke="midnightblue" points="1324.51,-42.64 1313.91,-42.62 1322.18,-49.25 1324.51,-42.64"/>
</g>
</g>
</svg>
