<?xml version="1.0" encoding="UTF-8" standalone="no"?>
<!DOCTYPE svg PUBLIC "-//W3C//DTD SVG 1.1//EN"
 "http://www.w3.org/Graphics/SVG/1.1/DTD/svg11.dtd">
<!-- Generated by graphviz version 3.0.0 (20220413.0106)
 -->
<!-- Title: SyntaxAnalyzer::parseTokens Pages: 1 -->
<svg width="2532pt" height="2015pt"
 viewBox="0.00 0.00 2532.00 2015.31" xmlns="http://www.w3.org/2000/svg" xmlns:xlink="http://www.w3.org/1999/xlink">
<g id="graph0" class="graph" transform="scale(1 1) rotate(0) translate(4 2011.31)">
<title>SyntaxAnalyzer::parseTokens</title>
<!-- Node1 -->
<g id="node1" class="node">
<title>Node1</title>
<g id="a_node1"><a xlink:title=" ">
<polygon fill="#bfbfbf" stroke="black" points="0,-60.43 0,-79.43 143,-79.43 143,-60.43 0,-60.43"/>
<text text-anchor="middle" x="71.5" y="-67.43" font-family="Helvetica,sans-Serif" font-size="10.00">SyntaxAnalyzer::parseTokens</text>
</a>
</g>
</g>
<!-- Node2 -->
<g id="node2" class="node">
<title>Node2</title>
<g id="a_node2"><a xlink:href="../../d0/dfe/class_syntax_analyzer.html#a3ae6c7319e61cd669c417f189b098374" target="_top" xlink:title=" ">
<polygon fill="none" stroke="black" points="2384,-421.43 2384,-440.43 2516,-440.43 2516,-421.43 2384,-421.43"/>
<text text-anchor="middle" x="2450" y="-428.43" font-family="Helvetica,sans-Serif" font-size="10.00">SyntaxAnalyzer::getCurTok</text>
</a>
</g>
</g>
<!-- Node1&#45;&gt;Node2 -->
<g id="edge1" class="edge">
<title>Node1&#45;&gt;Node2</title>
<path fill="none" stroke="midnightblue" d="M108.84,-60.39C173.93,-44.16 314.95,-12.93 436,-12.93 436,-12.93 436,-12.93 2106,-12.93 2210.64,-12.93 2260.31,28.89 2340,-38.93 2398.72,-88.9 2436.56,-338.74 2446.43,-411.2"/>
<polygon fill="midnightblue" stroke="midnightblue" points="2442.98,-411.8 2447.77,-421.25 2449.91,-410.87 2442.98,-411.8"/>
</g>
<!-- Node3 -->
<g id="node3" class="node">
<title>Node3</title>
<g id="a_node3"><a xlink:href="../../d0/dfe/class_syntax_analyzer.html#aeb59cd0062ff3238bcf625c7e20fc5ec" target="_top" xlink:title=" ">
<polygon fill="none" stroke="black" points="179,-292.43 179,-311.43 331,-311.43 331,-292.43 179,-292.43"/>
<text text-anchor="middle" x="255" y="-299.43" font-family="Helvetica,sans-Serif" font-size="10.00">SyntaxAnalyzer::syntaxProgram</text>
</a>
</g>
</g>
<!-- Node1&#45;&gt;Node3 -->
<g id="edge2" class="edge">
<title>Node1&#45;&gt;Node3</title>
<path fill="none" stroke="midnightblue" d="M80.07,-79.6C107.8,-115.05 204.12,-238.17 240.21,-284.3"/>
<polygon fill="midnightblue" stroke="midnightblue" points="237.48,-286.49 246.4,-292.21 242.99,-282.18 237.48,-286.49"/>
</g>
<!-- Node3&#45;&gt;Node2 -->
<g id="edge9" class="edge">
<title>Node3&#45;&gt;Node2</title>
<path fill="none" stroke="midnightblue" d="M260.52,-292.17C273.37,-265.45 312.72,-190.32 367,-148.93 465.36,-73.92 503.8,-50.93 627.5,-50.93 627.5,-50.93 627.5,-50.93 2106,-50.93 2211.16,-50.93 2260.02,-17.65 2340,-85.93 2441,-172.15 2449.52,-351.24 2449.42,-411.02"/>
<polygon fill="midnightblue" stroke="midnightblue" points="2445.92,-411.28 2449.31,-421.32 2452.92,-411.36 2445.92,-411.28"/>
</g>
<!-- Node4 -->
<g id="node4" class="node">
<title>Node4</title>
<g id="a_node4"><a xlink:href="../../d7/d7c/class_a_s_t_factory.html#a64619ed3c409fbb187debf67bc39d484" target="_top" xlink:title=" ">
<polygon fill="none" stroke="black" points="2221,-1485.43 2221,-1504.43 2340,-1504.43 2340,-1485.43 2221,-1485.43"/>
<text text-anchor="middle" x="2280.5" y="-1492.43" font-family="Helvetica,sans-Serif" font-size="10.00">ASTFactory::createAST</text>
</a>
</g>
</g>
<!-- Node3&#45;&gt;Node4 -->
<g id="edge3" class="edge">
<title>Node3&#45;&gt;Node4</title>
<path fill="none" stroke="midnightblue" d="M255.96,-311.83C255.69,-450.09 260.87,-1988.93 627.5,-1988.93 627.5,-1988.93 627.5,-1988.93 1915.5,-1988.93 2035.83,-1988.93 2095.64,-2043.52 2185,-1962.93 2219.31,-1931.98 2265.55,-1599.86 2276.9,-1514.72"/>
<polygon fill="midnightblue" stroke="midnightblue" points="2280.37,-1515.17 2278.22,-1504.8 2273.43,-1514.25 2280.37,-1515.17"/>
</g>
<!-- Node7 -->
<g id="node7" class="node">
<title>Node7</title>
<g id="a_node7"><a xlink:href="../../d0/dfe/class_syntax_analyzer.html#ae1d3434e5cc4b4bcd5a3a245814a44f0" target="_top" xlink:title=" ">
<polygon fill="none" stroke="black" points="2230,-839.43 2230,-858.43 2331,-858.43 2331,-839.43 2230,-839.43"/>
<text text-anchor="middle" x="2280.5" y="-846.43" font-family="Helvetica,sans-Serif" font-size="10.00">SyntaxAnalyzer::eat</text>
</a>
</g>
</g>
<!-- Node3&#45;&gt;Node7 -->
<g id="edge6" class="edge">
<title>Node3&#45;&gt;Node7</title>
<path fill="none" stroke="midnightblue" d="M291.24,-311.46C421.79,-346.71 890.37,-472.43 1279,-566.93 1479.63,-615.71 1999.12,-683.04 2185,-772.93 2215.9,-787.87 2245.77,-814.6 2263.39,-832.05"/>
<polygon fill="midnightblue" stroke="midnightblue" points="2261.07,-834.68 2270.58,-839.34 2266.05,-829.76 2261.07,-834.68"/>
</g>
<!-- Node9 -->
<g id="node9" class="node">
<title>Node9</title>
<g id="a_node9"><a xlink:href="../../d0/d11/class_i_token.html#a4fa3435db7157ca7316d4e4aee1df4c0" target="_top" xlink:title=" ">
<polygon fill="none" stroke="black" points="2229,-383.43 2229,-402.43 2332,-402.43 2332,-383.43 2229,-383.43"/>
<text text-anchor="middle" x="2280.5" y="-390.43" font-family="Helvetica,sans-Serif" font-size="10.00">IToken::setAdvType</text>
</a>
</g>
</g>
<!-- Node3&#45;&gt;Node9 -->
<g id="edge10" class="edge">
<title>Node3&#45;&gt;Node9</title>
<path fill="none" stroke="midnightblue" d="M266.96,-292.27C309.76,-255.58 471.01,-126.93 627.5,-126.93 627.5,-126.93 627.5,-126.93 1915.5,-126.93 2083.78,-126.93 2226.14,-314.54 2267.43,-374.64"/>
<polygon fill="midnightblue" stroke="midnightblue" points="2264.68,-376.82 2273.18,-383.14 2270.48,-372.9 2264.68,-376.82"/>
</g>
<!-- Node10 -->
<g id="node10" class="node">
<title>Node10</title>
<g id="a_node10"><a xlink:href="../../d0/dfe/class_syntax_analyzer.html#aa93b0d722276e335971360e093f19a8e" target="_top" xlink:title=" ">
<polygon fill="none" stroke="black" points="367,-543.43 367,-562.43 507,-562.43 507,-543.43 367,-543.43"/>
<text text-anchor="middle" x="437" y="-550.43" font-family="Helvetica,sans-Serif" font-size="10.00">SyntaxAnalyzer::syntaxBlock</text>
</a>
</g>
</g>
<!-- Node3&#45;&gt;Node10 -->
<g id="edge11" class="edge">
<title>Node3&#45;&gt;Node10</title>
<path fill="none" stroke="midnightblue" d="M260.38,-311.63C273.74,-340.67 316.21,-428.74 367,-490.93 381.31,-508.44 400.68,-525.4 415.26,-537.14"/>
<polygon fill="midnightblue" stroke="midnightblue" points="413.19,-539.97 423.21,-543.41 417.53,-534.47 413.19,-539.97"/>
</g>
<!-- Node5 -->
<g id="node5" class="node">
<title>Node5</title>
<g id="a_node5"><a xlink:href="../../d0/d11/class_i_token.html#ac8ca7f7e601ae49ad573167a4e9429cb" target="_top" xlink:title=" ">
<polygon fill="none" stroke="black" points="2398.5,-1409.43 2398.5,-1428.43 2501.5,-1428.43 2501.5,-1409.43 2398.5,-1409.43"/>
<text text-anchor="middle" x="2450" y="-1416.43" font-family="Helvetica,sans-Serif" font-size="10.00">IToken::getAdvType</text>
</a>
</g>
</g>
<!-- Node4&#45;&gt;Node5 -->
<g id="edge4" class="edge">
<title>Node4&#45;&gt;Node5</title>
<path fill="none" stroke="midnightblue" d="M2302.71,-1485.3C2332.04,-1472 2385.13,-1447.91 2418.65,-1432.7"/>
<polygon fill="midnightblue" stroke="midnightblue" points="2420.3,-1435.79 2427.96,-1428.47 2417.41,-1429.42 2420.3,-1435.79"/>
</g>
<!-- Node6 -->
<g id="node6" class="node">
<title>Node6</title>
<g id="a_node6"><a xlink:href="../../d0/d11/class_i_token.html#a568cb9d98839eff3fd758f419a76b092" target="_top" xlink:title="Получение типа токена">
<polygon fill="none" stroke="black" points="2407,-1561.43 2407,-1580.43 2493,-1580.43 2493,-1561.43 2407,-1561.43"/>
<text text-anchor="middle" x="2450" y="-1568.43" font-family="Helvetica,sans-Serif" font-size="10.00">IToken::getType</text>
</a>
</g>
</g>
<!-- Node4&#45;&gt;Node6 -->
<g id="edge5" class="edge">
<title>Node4&#45;&gt;Node6</title>
<path fill="none" stroke="midnightblue" d="M2305.54,-1504.44C2316.16,-1508.73 2328.76,-1513.94 2340,-1518.93 2367.72,-1531.21 2398.9,-1546.21 2420.79,-1556.94"/>
<polygon fill="midnightblue" stroke="midnightblue" points="2419.34,-1560.12 2429.85,-1561.39 2422.43,-1553.84 2419.34,-1560.12"/>
</g>
<!-- Node7&#45;&gt;Node2 -->
<g id="edge7" class="edge">
<title>Node7&#45;&gt;Node2</title>
<path fill="none" stroke="midnightblue" d="M2285.31,-839.41C2306.71,-786.02 2411.93,-523.43 2441.35,-450.02"/>
<polygon fill="midnightblue" stroke="midnightblue" points="2444.65,-451.2 2445.12,-440.61 2438.15,-448.59 2444.65,-451.2"/>
</g>
<!-- Node8 -->
<g id="node8" class="node">
<title>Node8</title>
<g id="a_node8"><a xlink:href="../../d0/dfe/class_syntax_analyzer.html#a9e41370d8d74fbd2e77648d2071e7dfe" target="_top" xlink:title=" ">
<polygon fill="none" stroke="black" points="2376,-725.43 2376,-744.43 2524,-744.43 2524,-725.43 2376,-725.43"/>
<text text-anchor="middle" x="2450" y="-732.43" font-family="Helvetica,sans-Serif" font-size="10.00">SyntaxAnalyzer::getNextToken</text>
</a>
</g>
</g>
<!-- Node7&#45;&gt;Node8 -->
<g id="edge8" class="edge">
<title>Node7&#45;&gt;Node8</title>
<path fill="none" stroke="midnightblue" d="M2295.49,-839.4C2324.36,-819.75 2390.78,-774.55 2426.04,-750.56"/>
<polygon fill="midnightblue" stroke="midnightblue" points="2428.39,-753.18 2434.69,-744.66 2424.46,-747.4 2428.39,-753.18"/>
</g>
<!-- Node10&#45;&gt;Node4 -->
<g id="edge12" class="edge">
<title>Node10&#45;&gt;Node4</title>
<path fill="none" stroke="midnightblue" d="M438.45,-562.6C444.43,-686.12 513.2,-1950.93 819.5,-1950.93 819.5,-1950.93 819.5,-1950.93 1915.5,-1950.93 2035.71,-1950.93 2094.66,-2007.24 2185,-1927.93 2217.03,-1899.8 2264.42,-1595.91 2276.57,-1514.76"/>
<polygon fill="midnightblue" stroke="midnightblue" points="2280.1,-1514.86 2278.11,-1504.46 2273.17,-1513.83 2280.1,-1514.86"/>
</g>
<!-- Node11 -->
<g id="node11" class="node">
<title>Node11</title>
<g id="a_node11"><a xlink:href="../../d0/dfe/class_syntax_analyzer.html#a2c0c19bfe9775405a5b6985cf1c8854c" target="_top" xlink:title=" ">
<polygon fill="none" stroke="black" points="543,-763.43 543,-782.43 714,-782.43 714,-763.43 543,-763.43"/>
<text text-anchor="middle" x="628.5" y="-770.43" font-family="Helvetica,sans-Serif" font-size="10.00">SyntaxAnalyzer::syntaxCompoundSt</text>
</a>
</g>
</g>
<!-- Node10&#45;&gt;Node11 -->
<g id="edge13" class="edge">
<title>Node10&#45;&gt;Node11</title>
<path fill="none" stroke="midnightblue" d="M446.39,-562.66C475.8,-596.81 574.53,-711.43 612.47,-755.48"/>
<polygon fill="midnightblue" stroke="midnightblue" points="610.03,-758.01 619.21,-763.3 615.34,-753.44 610.03,-758.01"/>
</g>
<!-- Node31 -->
<g id="node31" class="node">
<title>Node31</title>
<g id="a_node31"><a xlink:href="../../d0/dfe/class_syntax_analyzer.html#a9dc26002a15e26254df5a115511b872c" target="_top" xlink:title=" ">
<polygon fill="none" stroke="black" points="1841.5,-514.43 1841.5,-533.43 1987.5,-533.43 1987.5,-514.43 1841.5,-514.43"/>
<text text-anchor="middle" x="1914.5" y="-521.43" font-family="Helvetica,sans-Serif" font-size="10.00">SyntaxAnalyzer::syntaxConsts</text>
</a>
</g>
</g>
<!-- Node10&#45;&gt;Node31 -->
<g id="edge87" class="edge">
<title>Node10&#45;&gt;Node31</title>
<path fill="none" stroke="midnightblue" d="M496.96,-543.39C571.77,-532.13 704.85,-514.93 819.5,-514.93 819.5,-514.93 819.5,-514.93 1550,-514.93 1646.62,-514.93 1757.63,-518.14 1831.3,-520.73"/>
<polygon fill="midnightblue" stroke="midnightblue" points="1831.32,-524.23 1841.44,-521.09 1831.57,-517.24 1831.32,-524.23"/>
</g>
<!-- Node33 -->
<g id="node33" class="node">
<title>Node33</title>
<g id="a_node33"><a xlink:href="../../d0/dfe/class_syntax_analyzer.html#a31a844667194ddf21425e3c2e6f2a007" target="_top" xlink:title=" ">
<polygon fill="none" stroke="black" points="1668,-562.43 1668,-581.43 1803,-581.43 1803,-562.43 1668,-562.43"/>
<text text-anchor="middle" x="1735.5" y="-569.43" font-family="Helvetica,sans-Serif" font-size="10.00">SyntaxAnalyzer::syntaxVars</text>
</a>
</g>
</g>
<!-- Node10&#45;&gt;Node33 -->
<g id="edge96" class="edge">
<title>Node10&#45;&gt;Node33</title>
<path fill="none" stroke="midnightblue" d="M507.27,-552.93C583.71,-552.93 710.38,-552.93 819.5,-552.93 819.5,-552.93 819.5,-552.93 1356,-552.93 1460.68,-552.93 1581.45,-560.27 1657.87,-565.82"/>
<polygon fill="midnightblue" stroke="midnightblue" points="1657.66,-569.32 1667.89,-566.56 1658.17,-562.33 1657.66,-569.32"/>
</g>
<!-- Node11&#45;&gt;Node4 -->
<g id="edge14" class="edge">
<title>Node11&#45;&gt;Node4</title>
<path fill="none" stroke="midnightblue" d="M630.32,-782.44C640.03,-892.1 737.17,-1912.93 988.5,-1912.93 988.5,-1912.93 988.5,-1912.93 1915.5,-1912.93 2035.58,-1912.93 2093.5,-1971.68 2185,-1893.93 2244.35,-1843.5 2271.28,-1587.82 2277.85,-1514.56"/>
<polygon fill="midnightblue" stroke="midnightblue" points="2281.35,-1514.7 2278.73,-1504.43 2274.38,-1514.09 2281.35,-1514.7"/>
</g>
<!-- Node11&#45;&gt;Node7 -->
<g id="edge15" class="edge">
<title>Node11&#45;&gt;Node7</title>
<path fill="none" stroke="midnightblue" d="M714,-772.93C786.75,-772.93 894.54,-772.93 988.5,-772.93 988.5,-772.93 988.5,-772.93 1550,-772.93 1799.87,-772.93 2095.31,-817.58 2219.64,-838.43"/>
<polygon fill="midnightblue" stroke="midnightblue" points="2219.27,-841.92 2229.71,-840.13 2220.44,-835.02 2219.27,-841.92"/>
</g>
<!-- Node12 -->
<g id="node12" class="node">
<title>Node12</title>
<g id="a_node12"><a xlink:href="../../d0/dfe/class_syntax_analyzer.html#a79a0e444afd499634f445f0b8919dd0f" target="_top" xlink:title=" ">
<polygon fill="none" stroke="black" points="750,-725.43 750,-744.43 891,-744.43 891,-725.43 750,-725.43"/>
<text text-anchor="middle" x="820.5" y="-732.43" font-family="Helvetica,sans-Serif" font-size="10.00">SyntaxAnalyzer::syntaxStList</text>
</a>
</g>
</g>
<!-- Node11&#45;&gt;Node12 -->
<g id="edge16" class="edge">
<title>Node11&#45;&gt;Node12</title>
<path fill="none" stroke="midnightblue" d="M677.45,-763.34C703.08,-758.21 734.84,-751.86 761.82,-746.46"/>
<polygon fill="midnightblue" stroke="midnightblue" points="762.78,-749.84 771.9,-744.45 761.41,-742.98 762.78,-749.84"/>
</g>
<!-- Node12&#45;&gt;Node2 -->
<g id="edge18" class="edge">
<title>Node12&#45;&gt;Node2</title>
<path fill="none" stroke="midnightblue" d="M824.03,-725.29C845.79,-644.93 1008.81,-88.93 1354,-88.93 1354,-88.93 1354,-88.93 2106,-88.93 2212.83,-88.93 2259.64,-73.53 2340,-143.93 2422.75,-216.41 2442.92,-358.56 2447.63,-410.94"/>
<polygon fill="midnightblue" stroke="midnightblue" points="2444.16,-411.52 2448.45,-421.21 2451.14,-410.96 2444.16,-411.52"/>
</g>
<!-- Node12&#45;&gt;Node7 -->
<g id="edge17" class="edge">
<title>Node12&#45;&gt;Node7</title>
<path fill="none" stroke="midnightblue" d="M891.13,-734.93C960.43,-734.93 1069.82,-734.93 1164.5,-734.93 1164.5,-734.93 1164.5,-734.93 1550,-734.93 1622.68,-734.93 2152.4,-786.8 2185,-796.93 2211.62,-805.2 2239.23,-821.43 2257.68,-833.57"/>
<polygon fill="midnightblue" stroke="midnightblue" points="2255.95,-836.63 2266.2,-839.31 2259.87,-830.82 2255.95,-836.63"/>
</g>
<!-- Node13 -->
<g id="node13" class="node">
<title>Node13</title>
<g id="a_node13"><a xlink:href="../../d0/dfe/class_syntax_analyzer.html#affae37bc1fa3a4016dcffad4affbfcbd" target="_top" xlink:title=" ">
<polygon fill="none" stroke="black" points="927,-972.43 927,-991.43 1052,-991.43 1052,-972.43 927,-972.43"/>
<text text-anchor="middle" x="989.5" y="-979.43" font-family="Helvetica,sans-Serif" font-size="10.00">SyntaxAnalyzer::syntaxSt</text>
</a>
</g>
</g>
<!-- Node12&#45;&gt;Node13 -->
<g id="edge19" class="edge">
<title>Node12&#45;&gt;Node13</title>
<path fill="none" stroke="midnightblue" d="M828.28,-744.53C840.79,-762.3 868.32,-801.52 891,-834.93 922.24,-880.93 958.22,-935.64 976.49,-963.55"/>
<polygon fill="midnightblue" stroke="midnightblue" points="973.78,-965.79 982.18,-972.25 979.64,-961.96 973.78,-965.79"/>
</g>
<!-- Node13&#45;&gt;Node2 -->
<g id="edge21" class="edge">
<title>Node13&#45;&gt;Node2</title>
<path fill="none" stroke="midnightblue" d="M995.89,-972.29C1036.79,-900.1 1306.61,-441.93 1667,-254.93 1933.12,-116.84 2087.61,-47.12 2340,-208.93 2412.64,-255.5 2438.41,-365.76 2446.13,-411.02"/>
<polygon fill="midnightblue" stroke="midnightblue" points="2442.69,-411.72 2447.72,-421.04 2449.61,-410.62 2442.69,-411.72"/>
</g>
<!-- Node13&#45;&gt;Node7 -->
<g id="edge20" class="edge">
<title>Node13&#45;&gt;Node7</title>
<path fill="none" stroke="midnightblue" d="M1005.03,-972.36C1052.8,-941.87 1210.19,-848.93 1354,-848.93 1354,-848.93 1354,-848.93 1915.5,-848.93 2022.56,-848.93 2147.34,-848.93 2219.49,-848.93"/>
<polygon fill="midnightblue" stroke="midnightblue" points="2219.75,-852.43 2229.75,-848.93 2219.75,-845.43 2219.75,-852.43"/>
</g>
<!-- Node13&#45;&gt;Node11 -->
<g id="edge73" class="edge">
<title>Node13&#45;&gt;Node11</title>
<path fill="none" stroke="midnightblue" d="M972.05,-972.35C914.78,-939.01 723.91,-827.89 654.78,-787.64"/>
<polygon fill="midnightblue" stroke="midnightblue" points="656.26,-784.46 645.86,-782.45 652.74,-790.51 656.26,-784.46"/>
</g>
<!-- Node14 -->
<g id="node14" class="node">
<title>Node14</title>
<g id="a_node14"><a xlink:href="../../d0/dfe/class_syntax_analyzer.html#af0905389742c4f842207bb2c073afbfa" target="_top" xlink:title=" ">
<polygon fill="none" stroke="black" points="2036.5,-1865.43 2036.5,-1884.43 2173.5,-1884.43 2173.5,-1865.43 2036.5,-1865.43"/>
<text text-anchor="middle" x="2105" y="-1872.43" font-family="Helvetica,sans-Serif" font-size="10.00">SyntaxAnalyzer::lookFoward</text>
</a>
</g>
</g>
<!-- Node13&#45;&gt;Node14 -->
<g id="edge22" class="edge">
<title>Node13&#45;&gt;Node14</title>
<path fill="none" stroke="midnightblue" d="M991.28,-991.55C996.92,-1059.75 1032.81,-1470.4 1088,-1580.93 1161.3,-1727.72 1189.92,-1836.93 1354,-1836.93 1354,-1836.93 1354,-1836.93 1736.5,-1836.93 1842.02,-1836.93 1963.69,-1852.62 2037.17,-1863.84"/>
<polygon fill="midnightblue" stroke="midnightblue" points="2036.8,-1867.32 2047.21,-1865.39 2037.86,-1860.4 2036.8,-1867.32"/>
</g>
<!-- Node16 -->
<g id="node16" class="node">
<title>Node16</title>
<g id="a_node16"><a xlink:href="../../d0/dfe/class_syntax_analyzer.html#ae57b60364b17a4772143fe9a6c3bc2c7" target="_top" xlink:title=" ">
<polygon fill="none" stroke="black" points="1088,-1048.43 1088,-1067.43 1243,-1067.43 1243,-1048.43 1088,-1048.43"/>
<text text-anchor="middle" x="1165.5" y="-1055.43" font-family="Helvetica,sans-Serif" font-size="10.00">SyntaxAnalyzer::syntaxAssignSt</text>
</a>
</g>
</g>
<!-- Node13&#45;&gt;Node16 -->
<g id="edge24" class="edge">
<title>Node13&#45;&gt;Node16</title>
<path fill="none" stroke="midnightblue" d="M1012.54,-991.55C1043.13,-1004.91 1098.62,-1029.15 1133.42,-1044.35"/>
<polygon fill="midnightblue" stroke="midnightblue" points="1132.08,-1047.58 1142.64,-1048.38 1134.88,-1041.17 1132.08,-1047.58"/>
</g>
<!-- Node26 -->
<g id="node26" class="node">
<title>Node26</title>
<g id="a_node26"><a xlink:href="../../d0/dfe/class_syntax_analyzer.html#a9321de68e44f3918a71256a3c1cd481b" target="_top" xlink:title=" ">
<polygon fill="none" stroke="black" points="2034.5,-1143.43 2034.5,-1162.43 2175.5,-1162.43 2175.5,-1143.43 2034.5,-1143.43"/>
<text text-anchor="middle" x="2105" y="-1150.43" font-family="Helvetica,sans-Serif" font-size="10.00">SyntaxAnalyzer::syntaxCallSt</text>
</a>
</g>
</g>
<!-- Node13&#45;&gt;Node26 -->
<g id="edge72" class="edge">
<title>Node13&#45;&gt;Node26</title>
<path fill="none" stroke="midnightblue" d="M1030.09,-972.42C1047.71,-968.65 1068.77,-964.78 1088,-962.93 1156.57,-956.31 1174.47,-955.88 1243,-962.93 1579.86,-997.55 1660.9,-1034.1 1989,-1117.93 2014.78,-1124.51 2043.4,-1133.22 2065.64,-1140.3"/>
<polygon fill="midnightblue" stroke="midnightblue" points="2064.78,-1143.7 2075.37,-1143.43 2066.92,-1137.04 2064.78,-1143.7"/>
</g>
<!-- Node28 -->
<g id="node28" class="node">
<title>Node28</title>
<g id="a_node28"><a xlink:href="../../d0/dfe/class_syntax_analyzer.html#a22a01f23b6ce49e9cdded69dd21f3935" target="_top" xlink:title=" ">
<polygon fill="none" stroke="black" points="1279,-1751.43 1279,-1770.43 1431,-1770.43 1431,-1751.43 1279,-1751.43"/>
<text text-anchor="middle" x="1355" y="-1758.43" font-family="Helvetica,sans-Serif" font-size="10.00">SyntaxAnalyzer::syntaxEmptySt</text>
</a>
</g>
</g>
<!-- Node13&#45;&gt;Node28 -->
<g id="edge74" class="edge">
<title>Node13&#45;&gt;Node28</title>
<path fill="none" stroke="midnightblue" d="M991.17,-991.76C996.59,-1063.53 1039.47,-1510.29 1279,-1736.93 1283.26,-1740.96 1288.2,-1744.32 1293.48,-1747.11"/>
<polygon fill="midnightblue" stroke="midnightblue" points="1292.05,-1750.3 1302.6,-1751.29 1294.97,-1743.94 1292.05,-1750.3"/>
</g>
<!-- Node29 -->
<g id="node29" class="node">
<title>Node29</title>
<g id="a_node29"><a xlink:href="../../d0/dfe/class_syntax_analyzer.html#addd3ca96f66a5261f904e2e0c78a898a" target="_top" xlink:title=" ">
<polygon fill="none" stroke="black" points="1100,-972.43 1100,-991.43 1231,-991.43 1231,-972.43 1100,-972.43"/>
<text text-anchor="middle" x="1165.5" y="-979.43" font-family="Helvetica,sans-Serif" font-size="10.00">SyntaxAnalyzer::syntaxIfSt</text>
</a>
</g>
</g>
<!-- Node13&#45;&gt;Node29 -->
<g id="edge76" class="edge">
<title>Node13&#45;&gt;Node29</title>
<path fill="none" stroke="midnightblue" d="M1052.34,-975.43C1064.39,-975.18 1077.16,-975.11 1089.58,-975.24"/>
<polygon fill="midnightblue" stroke="midnightblue" points="1089.87,-978.74 1099.92,-975.38 1089.97,-971.74 1089.87,-978.74"/>
</g>
<!-- Node30 -->
<g id="node30" class="node">
<title>Node30</title>
<g id="a_node30"><a xlink:href="../../d0/dfe/class_syntax_analyzer.html#a35bb1125afde4b827a0dd8f3bce8dc58" target="_top" xlink:title=" ">
<polygon fill="none" stroke="black" points="1091,-1105.43 1091,-1124.43 1240,-1124.43 1240,-1105.43 1091,-1105.43"/>
<text text-anchor="middle" x="1165.5" y="-1112.43" font-family="Helvetica,sans-Serif" font-size="10.00">SyntaxAnalyzer::syntaxWhileSt</text>
</a>
</g>
</g>
<!-- Node13&#45;&gt;Node30 -->
<g id="edge82" class="edge">
<title>Node13&#45;&gt;Node30</title>
<path fill="none" stroke="midnightblue" d="M1003.78,-991.43C1021.47,-1008.8 1054.45,-1044.14 1088,-1067.93 1106.23,-1080.85 1129.51,-1091.73 1145.58,-1100.33"/>
<polygon fill="midnightblue" stroke="midnightblue" points="1144.11,-1103.52 1154.54,-1105.38 1147.55,-1097.42 1144.11,-1103.52"/>
</g>
<!-- Node15 -->
<g id="node15" class="node">
<title>Node15</title>
<g id="a_node15"><a xlink:href="../../d1/d34/class_list.html#a49c179636e084dfbf7a52acd46acaf01" target="_top" xlink:title=" ">
<polygon fill="none" stroke="black" points="2253,-1865.43 2253,-1884.43 2308,-1884.43 2308,-1865.43 2253,-1865.43"/>
<text text-anchor="middle" x="2280.5" y="-1872.43" font-family="Helvetica,sans-Serif" font-size="10.00">List::size</text>
</a>
</g>
</g>
<!-- Node14&#45;&gt;Node15 -->
<g id="edge23" class="edge">
<title>Node14&#45;&gt;Node15</title>
<path fill="none" stroke="midnightblue" d="M2173.58,-1874.93C2196.97,-1874.93 2222.31,-1874.93 2242.35,-1874.93"/>
<polygon fill="midnightblue" stroke="midnightblue" points="2242.59,-1878.43 2252.59,-1874.93 2242.59,-1871.43 2242.59,-1878.43"/>
</g>
<!-- Node16&#45;&gt;Node2 -->
<g id="edge27" class="edge">
<title>Node16&#45;&gt;Node2</title>
<path fill="none" stroke="midnightblue" d="M1182.35,-1048.34C1198.72,-1037.96 1224.41,-1020.28 1243,-1000.93 1454.53,-780.71 1492.79,-706.21 1631,-433.93 1652.76,-391.06 1634.64,-367.48 1667,-331.93 1768.53,-220.39 2209.96,-167.52 2340,-243.93 2403.67,-281.34 2433.82,-371.51 2444.39,-411.39"/>
<polygon fill="midnightblue" stroke="midnightblue" points="2441.03,-412.38 2446.87,-421.22 2447.82,-410.67 2441.03,-412.38"/>
</g>
<!-- Node16&#45;&gt;Node4 -->
<g id="edge25" class="edge">
<title>Node16&#45;&gt;Node4</title>
<path fill="none" stroke="midnightblue" d="M1203.52,-1067.52C1218.26,-1073.28 1233.85,-1082.24 1243,-1095.93 1307.98,-1193.16 1195.7,-1538.86 1279,-1620.93 1314.89,-1656.29 2141.44,-1686.25 2185,-1660.93 2240.08,-1628.9 2265.71,-1551.45 2275.07,-1514.79"/>
<polygon fill="midnightblue" stroke="midnightblue" points="2278.54,-1515.36 2277.47,-1504.82 2271.73,-1513.73 2278.54,-1515.36"/>
</g>
<!-- Node16&#45;&gt;Node7 -->
<g id="edge26" class="edge">
<title>Node16&#45;&gt;Node7</title>
<path fill="none" stroke="midnightblue" d="M1243.27,-1053.01C1415.81,-1040.19 1845.71,-998.34 2185,-882.93 2202.13,-877.1 2204.12,-870.44 2221,-863.93 2223.11,-863.11 2225.27,-862.33 2227.47,-861.58"/>
<polygon fill="midnightblue" stroke="midnightblue" points="2228.78,-864.84 2237.26,-858.49 2226.67,-858.16 2228.78,-864.84"/>
</g>
<!-- Node17 -->
<g id="node17" class="node">
<title>Node17</title>
<g id="a_node17"><a xlink:href="../../d0/dfe/class_syntax_analyzer.html#a53b0048490647d82a92a77ed1ffb013d" target="_top" xlink:title=" ">
<polygon fill="none" stroke="black" points="1288,-1105.43 1288,-1124.43 1422,-1124.43 1422,-1105.43 1288,-1105.43"/>
<text text-anchor="middle" x="1355" y="-1112.43" font-family="Helvetica,sans-Serif" font-size="10.00">SyntaxAnalyzer::syntaxExpr</text>
</a>
</g>
</g>
<!-- Node16&#45;&gt;Node17 -->
<g id="edge28" class="edge">
<title>Node16&#45;&gt;Node17</title>
<path fill="none" stroke="midnightblue" d="M1197.88,-1067.47C1229.39,-1077.04 1278.08,-1091.85 1312.7,-1102.37"/>
<polygon fill="midnightblue" stroke="midnightblue" points="1311.93,-1105.8 1322.51,-1105.36 1313.96,-1099.1 1311.93,-1105.8"/>
</g>
<!-- Node27 -->
<g id="node27" class="node">
<title>Node27</title>
<g id="a_node27"><a xlink:href="../../d0/dfe/class_syntax_analyzer.html#a8d3dc6feefe1957f1c81cbc7b8318559" target="_top" xlink:title=" ">
<polygon fill="none" stroke="black" points="2030,-1295.43 2030,-1314.43 2180,-1314.43 2180,-1295.43 2030,-1295.43"/>
<text text-anchor="middle" x="2105" y="-1302.43" font-family="Helvetica,sans-Serif" font-size="10.00">SyntaxAnalyzer::syntaxVariable</text>
</a>
</g>
</g>
<!-- Node16&#45;&gt;Node27 -->
<g id="edge71" class="edge">
<title>Node16&#45;&gt;Node27</title>
<path fill="none" stroke="midnightblue" d="M1203.49,-1067.54C1218.22,-1073.31 1233.82,-1082.26 1243,-1095.93 1303.77,-1186.37 1202.55,-1507.29 1279,-1584.93 1363.21,-1670.46 1427.97,-1608.93 1548,-1608.93 1548,-1608.93 1548,-1608.93 1736.5,-1608.93 1905.3,-1608.93 1892.33,-1466.29 2025,-1361.93 2043.73,-1347.19 2065.78,-1331.41 2081.81,-1320.2"/>
<polygon fill="midnightblue" stroke="midnightblue" points="2083.83,-1323.06 2090.04,-1314.47 2079.83,-1317.31 2083.83,-1323.06"/>
</g>
<!-- Node17&#45;&gt;Node2 -->
<g id="edge31" class="edge">
<title>Node17&#45;&gt;Node2</title>
<path fill="none" stroke="midnightblue" d="M1369.96,-1105.35C1416.45,-1072.6 1566.76,-959.56 1631,-824.93 1683.52,-714.87 1618.09,-664.63 1667,-552.93 1673.03,-539.16 1827.31,-352.98 1840,-344.93 1934.18,-285.17 2239.54,-252.47 2340,-300.93 2389.34,-324.72 2424.52,-382.55 2440.07,-412.41"/>
<polygon fill="midnightblue" stroke="midnightblue" points="2436.96,-414.02 2444.58,-421.37 2443.21,-410.87 2436.96,-414.02"/>
</g>
<!-- Node17&#45;&gt;Node4 -->
<g id="edge29" class="edge">
<title>Node17&#45;&gt;Node4</title>
<path fill="none" stroke="midnightblue" d="M1361.81,-1124.64C1376.61,-1148.65 1418,-1211.55 1467,-1248.93 1683.37,-1413.95 1758.98,-1443.64 2025,-1500.93 2086.87,-1514.25 2159.16,-1510.79 2210.85,-1505.15"/>
<polygon fill="midnightblue" stroke="midnightblue" points="2211.37,-1508.62 2220.9,-1504 2210.57,-1501.66 2211.37,-1508.62"/>
</g>
<!-- Node17&#45;&gt;Node6 -->
<g id="edge32" class="edge">
<title>Node17&#45;&gt;Node6</title>
<path fill="none" stroke="midnightblue" d="M1358.92,-1124.81C1368.87,-1156.91 1404.33,-1259.62 1467,-1318.93 1664.39,-1505.7 1761.62,-1502 2025,-1568.93 2161.08,-1603.51 2200.29,-1606.89 2340,-1592.93 2360.35,-1590.89 2382.53,-1586.77 2401.54,-1582.64"/>
<polygon fill="midnightblue" stroke="midnightblue" points="2402.45,-1586.03 2411.45,-1580.43 2400.92,-1579.2 2402.45,-1586.03"/>
</g>
<!-- Node17&#45;&gt;Node7 -->
<g id="edge30" class="edge">
<title>Node17&#45;&gt;Node7</title>
<path fill="none" stroke="midnightblue" d="M1422.16,-1105.83C1613.54,-1079.26 2155.96,-1002.07 2185,-976.93 2224.85,-942.42 2182.67,-900.11 2221,-863.93 2221.17,-863.77 2221.33,-863.61 2221.5,-863.46"/>
<polygon fill="midnightblue" stroke="midnightblue" points="2223.78,-866.14 2229.95,-857.53 2219.75,-860.41 2223.78,-866.14"/>
</g>
<!-- Node18 -->
<g id="node18" class="node">
<title>Node18</title>
<g id="a_node18"><a xlink:href="../../df/d3f/_syntax_8hpp.html#ae7d62ca130413d4c96863327c1af81a4" target="_top" xlink:title="Возвращает истину, если value находится среди значений cont.">
<polygon fill="none" stroke="black" points="1898.5,-1143.43 1898.5,-1162.43 1930.5,-1162.43 1930.5,-1143.43 1898.5,-1143.43"/>
<text text-anchor="middle" x="1914.5" y="-1150.43" font-family="Helvetica,sans-Serif" font-size="10.00">isIn</text>
</a>
</g>
</g>
<!-- Node17&#45;&gt;Node18 -->
<g id="edge33" class="edge">
<title>Node17&#45;&gt;Node18</title>
<path fill="none" stroke="midnightblue" d="M1422.14,-1119.44C1545.68,-1127.86 1806.39,-1145.63 1888.31,-1151.21"/>
<polygon fill="midnightblue" stroke="midnightblue" points="1888.23,-1154.71 1898.44,-1151.9 1888.71,-1147.73 1888.23,-1154.71"/>
</g>
<!-- Node19 -->
<g id="node19" class="node">
<title>Node19</title>
<g id="a_node19"><a xlink:href="../../d0/dfe/class_syntax_analyzer.html#a920d9565d4aa2e3815ff9e7146f45a0b" target="_top" xlink:title=" ">
<polygon fill="none" stroke="black" points="1467,-1181.43 1467,-1200.43 1631,-1200.43 1631,-1181.43 1467,-1181.43"/>
<text text-anchor="middle" x="1549" y="-1188.43" font-family="Helvetica,sans-Serif" font-size="10.00">SyntaxAnalyzer::syntaxSimpleExpr</text>
</a>
</g>
</g>
<!-- Node17&#45;&gt;Node19 -->
<g id="edge34" class="edge">
<title>Node17&#45;&gt;Node19</title>
<path fill="none" stroke="midnightblue" d="M1374.1,-1124.44C1395.77,-1135.58 1433.38,-1154.15 1467,-1166.93 1478.03,-1171.12 1490.12,-1175.04 1501.53,-1178.46"/>
<polygon fill="midnightblue" stroke="midnightblue" points="1500.74,-1181.88 1511.32,-1181.32 1502.71,-1175.16 1500.74,-1181.88"/>
</g>
<!-- Node19&#45;&gt;Node2 -->
<g id="edge37" class="edge">
<title>Node19&#45;&gt;Node2</title>
<path fill="none" stroke="midnightblue" d="M1554.52,-1181.03C1587.38,-1109.27 1789.71,-670.17 1840,-629.93 1893.45,-587.16 1939.03,-637.71 1989,-590.93 2025.93,-556.35 1985.83,-514.96 2025,-482.93 2038.34,-472.02 2255.74,-449.55 2373.91,-438.05"/>
<polygon fill="midnightblue" stroke="midnightblue" points="2374.37,-441.52 2383.98,-437.07 2373.69,-434.55 2374.37,-441.52"/>
</g>
<!-- Node19&#45;&gt;Node4 -->
<g id="edge35" class="edge">
<title>Node19&#45;&gt;Node4</title>
<path fill="none" stroke="midnightblue" d="M1564.22,-1200.51C1605.39,-1227.92 1728.82,-1307.84 1840,-1356.93 1903.65,-1385.03 1935.12,-1360.91 1989,-1404.93 2014.27,-1425.58 1997.7,-1451.04 2025,-1468.93 2079.79,-1504.83 2155.93,-1507.99 2210.62,-1504.23"/>
<polygon fill="midnightblue" stroke="midnightblue" points="2211.23,-1507.69 2220.92,-1503.42 2210.68,-1500.71 2211.23,-1507.69"/>
</g>
<!-- Node19&#45;&gt;Node6 -->
<g id="edge38" class="edge">
<title>Node19&#45;&gt;Node6</title>
<path fill="none" stroke="midnightblue" d="M1557.52,-1200.46C1575.15,-1222.44 1621.09,-1277.69 1667,-1315.93 1809.97,-1435 1851.73,-1465.13 2025,-1532.93 2156.7,-1584.46 2198.65,-1582.46 2340,-1577.93 2358.54,-1577.33 2378.83,-1576.17 2396.83,-1574.96"/>
<polygon fill="midnightblue" stroke="midnightblue" points="2397.11,-1578.45 2406.84,-1574.27 2396.63,-1571.47 2397.11,-1578.45"/>
</g>
<!-- Node19&#45;&gt;Node7 -->
<g id="edge36" class="edge">
<title>Node19&#45;&gt;Node7</title>
<path fill="none" stroke="midnightblue" d="M1588.69,-1181.36C1723.19,-1147.94 2163.48,-1037.24 2185,-1014.93 2232.89,-965.26 2172.63,-913.12 2221,-863.93 2221.16,-863.76 2221.32,-863.6 2221.49,-863.44"/>
<polygon fill="midnightblue" stroke="midnightblue" points="2223.8,-866.09 2229.73,-857.31 2219.62,-860.47 2223.8,-866.09"/>
</g>
<!-- Node19&#45;&gt;Node18 -->
<g id="edge39" class="edge">
<title>Node19&#45;&gt;Node18</title>
<path fill="none" stroke="midnightblue" d="M1631,-1183.96C1680.92,-1179.49 1746.22,-1173.35 1804,-1166.93 1832.97,-1163.71 1866.17,-1159.37 1888.35,-1156.38"/>
<polygon fill="midnightblue" stroke="midnightblue" points="1888.85,-1159.85 1898.28,-1155.03 1887.9,-1152.91 1888.85,-1159.85"/>
</g>
<!-- Node20 -->
<g id="node20" class="node">
<title>Node20</title>
<g id="a_node20"><a xlink:href="../../d0/dfe/class_syntax_analyzer.html#a7721cf7d36d549f81fd05c40dba02f67" target="_top" xlink:title=" ">
<polygon fill="none" stroke="black" points="1667,-1219.43 1667,-1238.43 1804,-1238.43 1804,-1219.43 1667,-1219.43"/>
<text text-anchor="middle" x="1735.5" y="-1226.43" font-family="Helvetica,sans-Serif" font-size="10.00">SyntaxAnalyzer::syntaxTerm</text>
</a>
</g>
</g>
<!-- Node19&#45;&gt;Node20 -->
<g id="edge40" class="edge">
<title>Node19&#45;&gt;Node20</title>
<path fill="none" stroke="midnightblue" d="M1596.56,-1200.52C1621.34,-1205.62 1652.02,-1211.94 1678.14,-1217.32"/>
<polygon fill="midnightblue" stroke="midnightblue" points="1677.78,-1220.82 1688.28,-1219.41 1679.19,-1213.96 1677.78,-1220.82"/>
</g>
<!-- Node20&#45;&gt;Node2 -->
<g id="edge43" class="edge">
<title>Node20&#45;&gt;Node2</title>
<path fill="none" stroke="midnightblue" d="M1740.91,-1219.15C1766.31,-1162.66 1896.08,-872.29 1989,-629.93 2006.51,-584.25 1987.17,-556.93 2025,-525.93 2134.28,-436.36 2204.62,-523.39 2340,-482.93 2370.27,-473.88 2402.68,-457.46 2424.21,-445.49"/>
<polygon fill="midnightblue" stroke="midnightblue" points="2426.04,-448.48 2433.02,-440.51 2422.59,-442.39 2426.04,-448.48"/>
</g>
<!-- Node20&#45;&gt;Node4 -->
<g id="edge41" class="edge">
<title>Node20&#45;&gt;Node4</title>
<path fill="none" stroke="midnightblue" d="M1744.95,-1238.49C1761.47,-1256.66 1799.97,-1296.34 1840,-1318.93 1900.59,-1353.12 1935.69,-1322.22 1989,-1366.93 2015.2,-1388.9 1997.94,-1414.02 2025,-1434.93 2040.37,-1446.8 2148.86,-1469.6 2219.15,-1483.42"/>
<polygon fill="midnightblue" stroke="midnightblue" points="2218.74,-1486.91 2229.22,-1485.39 2220.08,-1480.04 2218.74,-1486.91"/>
</g>
<!-- Node20&#45;&gt;Node6 -->
<g id="edge44" class="edge">
<title>Node20&#45;&gt;Node6</title>
<path fill="none" stroke="midnightblue" d="M1742.99,-1238.66C1758.22,-1261.1 1798.18,-1317.55 1840,-1356.93 1913.54,-1426.17 1935.37,-1442.36 2025,-1488.93 2106.95,-1531.5 2130.45,-1539.79 2221,-1557.93 2280.45,-1569.84 2350.24,-1572.16 2396.8,-1572.09"/>
<polygon fill="midnightblue" stroke="midnightblue" points="2396.97,-1575.59 2406.95,-1572.04 2396.93,-1568.59 2396.97,-1575.59"/>
</g>
<!-- Node20&#45;&gt;Node7 -->
<g id="edge42" class="edge">
<title>Node20&#45;&gt;Node7</title>
<path fill="none" stroke="midnightblue" d="M1804.16,-1224.43C1857.35,-1218.44 1931.77,-1204.48 1989,-1171.93 2009.22,-1160.42 2005.02,-1145.84 2025,-1133.93 2088.25,-1096.23 2135.74,-1145.66 2185,-1090.93 2253.33,-1015 2152.23,-939.46 2221,-863.93 2221.24,-863.67 2221.48,-863.41 2221.73,-863.15"/>
<polygon fill="midnightblue" stroke="midnightblue" points="2224,-865.82 2229.78,-856.94 2219.72,-860.28 2224,-865.82"/>
</g>
<!-- Node20&#45;&gt;Node18 -->
<g id="edge45" class="edge">
<title>Node20&#45;&gt;Node18</title>
<path fill="none" stroke="midnightblue" d="M1770.03,-1219.36C1781.17,-1215.57 1793.42,-1210.72 1804,-1204.93 1821.78,-1195.19 1822.1,-1186.44 1840,-1176.93 1855.26,-1168.82 1873.76,-1162.8 1888.39,-1158.81"/>
<polygon fill="midnightblue" stroke="midnightblue" points="1889.44,-1162.16 1898.25,-1156.27 1887.69,-1155.38 1889.44,-1162.16"/>
</g>
<!-- Node21 -->
<g id="node21" class="node">
<title>Node21</title>
<g id="a_node21"><a xlink:href="../../d0/dfe/class_syntax_analyzer.html#ab9b415ddd671b4884ab31cdf194f6c64" target="_top" xlink:title=" ">
<polygon fill="none" stroke="black" points="1843,-1272.43 1843,-1291.43 1986,-1291.43 1986,-1272.43 1843,-1272.43"/>
<text text-anchor="middle" x="1914.5" y="-1279.43" font-family="Helvetica,sans-Serif" font-size="10.00">SyntaxAnalyzer::syntaxFactor</text>
</a>
</g>
</g>
<!-- Node20&#45;&gt;Node21 -->
<g id="edge46" class="edge">
<title>Node20&#45;&gt;Node21</title>
<path fill="none" stroke="midnightblue" d="M1768.55,-1238.52C1797.5,-1247.19 1840.27,-1260 1871.86,-1269.46"/>
<polygon fill="midnightblue" stroke="midnightblue" points="1871.1,-1272.88 1881.69,-1272.4 1873.11,-1266.18 1871.1,-1272.88"/>
</g>
<!-- Node21&#45;&gt;Node2 -->
<g id="edge53" class="edge">
<title>Node21&#45;&gt;Node2</title>
<path fill="none" stroke="midnightblue" d="M1986.2,-1275.16C2043.97,-1266.76 2125.5,-1248.11 2185,-1206.93 2280.97,-1140.5 2296.73,-1103.33 2340,-994.93 2386.35,-878.81 2352.44,-838.72 2376,-715.93 2395.38,-614.9 2429.45,-496.45 2443.1,-450.51"/>
<polygon fill="midnightblue" stroke="midnightblue" points="2446.53,-451.26 2446.04,-440.67 2439.82,-449.25 2446.53,-451.26"/>
</g>
<!-- Node21&#45;&gt;Node4 -->
<g id="edge47" class="edge">
<title>Node21&#45;&gt;Node4</title>
<path fill="none" stroke="midnightblue" d="M1936.66,-1291.59C1952.64,-1299.73 1974.26,-1312.64 1989,-1328.93 2012.74,-1355.16 1997.53,-1377.62 2025,-1399.93 2082.16,-1446.34 2119.08,-1410.12 2185,-1442.93 2203.15,-1451.96 2203.46,-1460.76 2221,-1470.93 2227.66,-1474.79 2235.06,-1478.33 2242.3,-1481.45"/>
<polygon fill="midnightblue" stroke="midnightblue" points="2241.4,-1484.86 2251.98,-1485.42 2244.05,-1478.38 2241.4,-1484.86"/>
</g>
<!-- Node21&#45;&gt;Node5 -->
<g id="edge52" class="edge">
<title>Node21&#45;&gt;Node5</title>
<path fill="none" stroke="midnightblue" d="M1936,-1291.54C1957.64,-1301.28 1992.99,-1315.99 2025,-1323.93 2161.87,-1357.88 2205.32,-1320.13 2340,-1361.93 2371.62,-1371.74 2404.93,-1390.58 2426.27,-1403.91"/>
<polygon fill="midnightblue" stroke="midnightblue" points="2424.61,-1406.99 2434.92,-1409.41 2428.37,-1401.09 2424.61,-1406.99"/>
</g>
<!-- Node21&#45;&gt;Node6 -->
<g id="edge58" class="edge">
<title>Node21&#45;&gt;Node6</title>
<path fill="none" stroke="midnightblue" d="M1919.97,-1291.62C1932.69,-1318.17 1971.59,-1392.93 2025,-1434.93 2138.14,-1523.9 2310.98,-1555.39 2396.84,-1565.95"/>
<polygon fill="midnightblue" stroke="midnightblue" points="2396.52,-1569.44 2406.87,-1567.14 2397.35,-1562.49 2396.52,-1569.44"/>
</g>
<!-- Node21&#45;&gt;Node7 -->
<g id="edge48" class="edge">
<title>Node21&#45;&gt;Node7</title>
<path fill="none" stroke="midnightblue" d="M1928.32,-1272.38C1948.11,-1258.05 1987.73,-1230.94 2025,-1214.93 2092.65,-1185.86 2132.36,-1223.42 2185,-1171.93 2272.35,-1086.49 2280.05,-925.09 2279.94,-868.86"/>
<polygon fill="midnightblue" stroke="midnightblue" points="2283.44,-868.48 2279.83,-858.52 2276.44,-868.55 2283.44,-868.48"/>
</g>
<!-- Node21&#45;&gt;Node14 -->
<g id="edge59" class="edge">
<title>Node21&#45;&gt;Node14</title>
<path fill="none" stroke="midnightblue" d="M1918.61,-1291.72C1940.26,-1359.81 2068.22,-1762.38 2097.87,-1855.64"/>
<polygon fill="midnightblue" stroke="midnightblue" points="2094.55,-1856.76 2100.92,-1865.23 2101.22,-1854.64 2094.55,-1856.76"/>
</g>
<!-- Node21&#45;&gt;Node17 -->
<g id="edge65" class="edge">
<title>Node21&#45;&gt;Node17</title>
<path fill="none" stroke="midnightblue" d="M1842.93,-1282.7C1751.7,-1281.05 1589.97,-1269 1467,-1209.93 1427.26,-1190.84 1390.32,-1153.88 1370.69,-1132.12"/>
<polygon fill="midnightblue" stroke="midnightblue" points="1373.29,-1129.77 1364.05,-1124.59 1368.04,-1134.4 1373.29,-1129.77"/>
</g>
<!-- Node21&#45;&gt;Node21 -->
<g id="edge66" class="edge">
<title>Node21&#45;&gt;Node21</title>
<path fill="none" stroke="midnightblue" d="M1887.07,-1291.68C1873.72,-1300.49 1882.86,-1309.93 1914.5,-1309.93 1936.25,-1309.93 1947.37,-1305.47 1947.86,-1299.82"/>
<polygon fill="midnightblue" stroke="midnightblue" points="1950.65,-1297.71 1941.93,-1291.68 1944.99,-1301.83 1950.65,-1297.71"/>
</g>
<!-- Node22 -->
<g id="node22" class="node">
<title>Node22</title>
<g id="a_node22"><a xlink:href="../../d0/dfe/class_syntax_analyzer.html#a9952c4a2db0a1382b9c94f40dd535fae" target="_top" xlink:title=" ">
<polygon fill="none" stroke="black" points="2221.5,-611.43 2221.5,-630.43 2339.5,-630.43 2339.5,-611.43 2221.5,-611.43"/>
<text text-anchor="middle" x="2280.5" y="-618.43" font-family="Helvetica,sans-Serif" font-size="10.00">SyntaxAnalyzer::eatAdv</text>
</a>
</g>
</g>
<!-- Node21&#45;&gt;Node22 -->
<g id="edge49" class="edge">
<title>Node21&#45;&gt;Node22</title>
<path fill="none" stroke="midnightblue" d="M1922.54,-1272.14C1936.06,-1253.19 1966.32,-1210.01 1989,-1171.93 2110.03,-968.69 2236.33,-710.48 2270.52,-639.63"/>
<polygon fill="midnightblue" stroke="midnightblue" points="2273.7,-641.09 2274.89,-630.56 2267.4,-638.05 2273.7,-641.09"/>
</g>
<!-- Node23 -->
<g id="node23" class="node">
<title>Node23</title>
<g id="a_node23"><a xlink:href="../../db/dc1/class_token.html#a014ced0a9ea72ae21fad0d4f116d0a73" target="_top" xlink:title=" ">
<polygon fill="none" stroke="black" points="2066,-1371.43 2066,-1390.43 2144,-1390.43 2144,-1371.43 2066,-1371.43"/>
<text text-anchor="middle" x="2105" y="-1378.43" font-family="Helvetica,sans-Serif" font-size="10.00">Token::getInfo</text>
</a>
</g>
</g>
<!-- Node21&#45;&gt;Node23 -->
<g id="edge54" class="edge">
<title>Node21&#45;&gt;Node23</title>
<path fill="none" stroke="midnightblue" d="M1931.55,-1291.6C1946.63,-1300.82 1969.7,-1315.29 1989,-1328.93 2005.56,-1340.62 2007,-1347.6 2025,-1356.93 2034.74,-1361.98 2045.73,-1366.15 2056.33,-1369.52"/>
<polygon fill="midnightblue" stroke="midnightblue" points="2055.34,-1372.88 2065.92,-1372.4 2057.35,-1366.17 2055.34,-1372.88"/>
</g>
<!-- Node21&#45;&gt;Node26 -->
<g id="edge60" class="edge">
<title>Node21&#45;&gt;Node26</title>
<path fill="none" stroke="midnightblue" d="M1924.35,-1272.37C1946.05,-1249.12 2001.82,-1190.5 2025,-1176.93 2032.64,-1172.45 2041.19,-1168.74 2049.77,-1165.69"/>
<polygon fill="midnightblue" stroke="midnightblue" points="2051.02,-1168.96 2059.42,-1162.51 2048.83,-1162.31 2051.02,-1168.96"/>
</g>
<!-- Node21&#45;&gt;Node27 -->
<g id="edge67" class="edge">
<title>Node21&#45;&gt;Node27</title>
<path fill="none" stroke="midnightblue" d="M1986.23,-1290.56C1997.1,-1291.88 2008.43,-1293.27 2019.57,-1294.62"/>
<polygon fill="midnightblue" stroke="midnightblue" points="2019.38,-1298.13 2029.73,-1295.86 2020.23,-1291.18 2019.38,-1298.13"/>
</g>
<!-- Node22&#45;&gt;Node2 -->
<g id="edge50" class="edge">
<title>Node22&#45;&gt;Node2</title>
<path fill="none" stroke="midnightblue" d="M2314.38,-611.43C2323.3,-607.83 2332.55,-603.07 2340,-596.93 2390.62,-555.18 2426.22,-483.76 2441.15,-449.86"/>
<polygon fill="midnightblue" stroke="midnightblue" points="2444.39,-451.19 2445.12,-440.62 2437.96,-448.43 2444.39,-451.19"/>
</g>
<!-- Node22&#45;&gt;Node8 -->
<g id="edge51" class="edge">
<title>Node22&#45;&gt;Node8</title>
<path fill="none" stroke="midnightblue" d="M2295.49,-630.45C2324.36,-650.1 2390.78,-695.3 2426.04,-719.3"/>
<polygon fill="midnightblue" stroke="midnightblue" points="2424.46,-722.46 2434.69,-725.19 2428.39,-716.67 2424.46,-722.46"/>
</g>
<!-- Node23&#45;&gt;Node6 -->
<g id="edge56" class="edge">
<title>Node23&#45;&gt;Node6</title>
<path fill="none" stroke="midnightblue" d="M2144.38,-1388.89C2157.77,-1392.61 2172.55,-1397.82 2185,-1404.93 2203.85,-1415.68 2202.22,-1427.04 2221,-1437.93 2269.03,-1465.78 2291.63,-1448.68 2340,-1475.93 2377.65,-1497.14 2413.95,-1532.78 2433.7,-1553.85"/>
<polygon fill="midnightblue" stroke="midnightblue" points="2431.3,-1556.42 2440.65,-1561.41 2436.45,-1551.68 2431.3,-1556.42"/>
</g>
<!-- Node24 -->
<g id="node24" class="node">
<title>Node24</title>
<g id="a_node24"><a xlink:href="../../db/dc1/class_token.html#a942fcc40ffdf54c98b7b641c792a26bc" target="_top" xlink:title="Возвращает константную ссылку на строковое представление токена">
<polygon fill="none" stroke="black" points="2243.5,-1371.43 2243.5,-1390.43 2317.5,-1390.43 2317.5,-1371.43 2243.5,-1371.43"/>
<text text-anchor="middle" x="2280.5" y="-1378.43" font-family="Helvetica,sans-Serif" font-size="10.00">Token::getStr</text>
</a>
</g>
</g>
<!-- Node23&#45;&gt;Node24 -->
<g id="edge55" class="edge">
<title>Node23&#45;&gt;Node24</title>
<path fill="none" stroke="midnightblue" d="M2144.08,-1380.93C2170.26,-1380.93 2205.18,-1380.93 2233.01,-1380.93"/>
<polygon fill="midnightblue" stroke="midnightblue" points="2233.29,-1384.43 2243.29,-1380.93 2233.29,-1377.43 2233.29,-1384.43"/>
</g>
<!-- Node25 -->
<g id="node25" class="node">
<title>Node25</title>
<g id="a_node25"><a xlink:href="../../db/dc1/class_token.html#af3b5fdf2261d637af820d4adb62e6109" target="_top" xlink:title=" ">
<polygon fill="none" stroke="black" points="2249,-1409.43 2249,-1428.43 2312,-1428.43 2312,-1409.43 2249,-1409.43"/>
<text text-anchor="middle" x="2280.5" y="-1416.43" font-family="Helvetica,sans-Serif" font-size="10.00">Token::line</text>
</a>
</g>
</g>
<!-- Node23&#45;&gt;Node25 -->
<g id="edge57" class="edge">
<title>Node23&#45;&gt;Node25</title>
<path fill="none" stroke="midnightblue" d="M2144.08,-1389.27C2172.06,-1395.4 2210.04,-1403.71 2238.65,-1409.98"/>
<polygon fill="midnightblue" stroke="midnightblue" points="2238.22,-1413.47 2248.74,-1412.19 2239.72,-1406.63 2238.22,-1413.47"/>
</g>
<!-- Node26&#45;&gt;Node2 -->
<g id="edge63" class="edge">
<title>Node26&#45;&gt;Node2</title>
<path fill="none" stroke="midnightblue" d="M2157.18,-1143.42C2167.08,-1139.98 2176.88,-1135.29 2185,-1128.93 2291.17,-1045.69 2289.43,-993 2340,-867.93 2366.02,-803.56 2359.39,-783.33 2376,-715.93 2400.62,-616.05 2431.68,-496.93 2443.81,-450.66"/>
<polygon fill="midnightblue" stroke="midnightblue" points="2447.26,-451.32 2446.41,-440.76 2440.49,-449.54 2447.26,-451.32"/>
</g>
<!-- Node26&#45;&gt;Node4 -->
<g id="edge61" class="edge">
<title>Node26&#45;&gt;Node4</title>
<path fill="none" stroke="midnightblue" d="M2113.26,-1162.72C2128.71,-1184.03 2165.07,-1236.63 2185,-1285.93 2211.03,-1350.29 2186.78,-1377.52 2221,-1437.93 2230.09,-1453.97 2245.03,-1468.41 2257.54,-1478.75"/>
<polygon fill="midnightblue" stroke="midnightblue" points="2255.7,-1481.76 2265.71,-1485.22 2260.04,-1476.27 2255.7,-1481.76"/>
</g>
<!-- Node26&#45;&gt;Node7 -->
<g id="edge62" class="edge">
<title>Node26&#45;&gt;Node7</title>
<path fill="none" stroke="midnightblue" d="M2162.57,-1143.35C2170.89,-1139.91 2178.75,-1135.24 2185,-1128.93 2225.07,-1088.45 2203.04,-1059.98 2221,-1005.93 2237.66,-955.77 2260.14,-897.73 2271.78,-868.26"/>
<polygon fill="midnightblue" stroke="midnightblue" points="2275.12,-869.34 2275.55,-858.76 2268.61,-866.76 2275.12,-869.34"/>
</g>
<!-- Node26&#45;&gt;Node17 -->
<g id="edge64" class="edge">
<title>Node26&#45;&gt;Node17</title>
<path fill="none" stroke="midnightblue" d="M2054.65,-1143.42C2034.38,-1139.87 2010.64,-1136.16 1989,-1133.93 1788.95,-1113.29 1551.61,-1112.44 1432.4,-1113.64"/>
<polygon fill="midnightblue" stroke="midnightblue" points="1432.24,-1110.14 1422.28,-1113.75 1432.32,-1117.14 1432.24,-1110.14"/>
</g>
<!-- Node27&#45;&gt;Node2 -->
<g id="edge70" class="edge">
<title>Node27&#45;&gt;Node2</title>
<path fill="none" stroke="midnightblue" d="M2145.23,-1314.45C2197.73,-1324.6 2290.02,-1332.87 2340,-1280.93 2383.61,-1235.6 2366.15,-778.06 2376,-715.93 2392.1,-614.33 2428.05,-496.2 2442.65,-450.43"/>
<polygon fill="midnightblue" stroke="midnightblue" points="2446.07,-451.22 2445.8,-440.63 2439.41,-449.08 2446.07,-451.22"/>
</g>
<!-- Node27&#45;&gt;Node4 -->
<g id="edge68" class="edge">
<title>Node27&#45;&gt;Node4</title>
<path fill="none" stroke="midnightblue" d="M2124.35,-1314.56C2141.82,-1324.49 2167.91,-1341.39 2185,-1361.93 2208.91,-1390.66 2199.27,-1407.52 2221,-1437.93 2231.85,-1453.11 2247.01,-1467.75 2259.18,-1478.39"/>
<polygon fill="midnightblue" stroke="midnightblue" points="2257.15,-1481.26 2267.03,-1485.08 2261.68,-1475.93 2257.15,-1481.26"/>
</g>
<!-- Node27&#45;&gt;Node7 -->
<g id="edge69" class="edge">
<title>Node27&#45;&gt;Node7</title>
<path fill="none" stroke="midnightblue" d="M2124.3,-1295.41C2142.5,-1284.98 2169.84,-1266.55 2185,-1242.93 2265.46,-1117.5 2277.47,-929.85 2279.22,-868.85"/>
<polygon fill="midnightblue" stroke="midnightblue" points="2282.72,-868.76 2279.44,-858.69 2275.72,-868.61 2282.72,-868.76"/>
</g>
<!-- Node28&#45;&gt;Node4 -->
<g id="edge75" class="edge">
<title>Node28&#45;&gt;Node4</title>
<path fill="none" stroke="midnightblue" d="M1431.05,-1760.93C1507.41,-1760.93 1629.2,-1760.93 1734.5,-1760.93 1734.5,-1760.93 1734.5,-1760.93 1915.5,-1760.93 2035.75,-1760.93 2088.81,-1809.09 2185,-1736.93 2258.16,-1682.04 2274.71,-1562.27 2278.43,-1514.84"/>
<polygon fill="midnightblue" stroke="midnightblue" points="2281.94,-1514.87 2279.11,-1504.66 2274.95,-1514.4 2281.94,-1514.87"/>
</g>
<!-- Node29&#45;&gt;Node2 -->
<g id="edge79" class="edge">
<title>Node29&#45;&gt;Node2</title>
<path fill="none" stroke="midnightblue" d="M1175.42,-972.14C1223.67,-919.1 1457.55,-660.05 1631,-433.93 1648.11,-411.62 1644.75,-399.11 1667,-381.93 1718.3,-342.31 1750.06,-367.86 1804,-331.93 1823.63,-318.85 1818.9,-303.48 1840,-292.93 1939.43,-243.18 2241.57,-223.22 2340,-274.93 2395.93,-304.31 2429.12,-376.83 2442.34,-411.66"/>
<polygon fill="midnightblue" stroke="midnightblue" points="2439.09,-412.97 2445.8,-421.17 2445.67,-410.57 2439.09,-412.97"/>
</g>
<!-- Node29&#45;&gt;Node4 -->
<g id="edge77" class="edge">
<title>Node29&#45;&gt;Node4</title>
<path fill="none" stroke="midnightblue" d="M1184.95,-991.59C1202.11,-1001.43 1227.34,-1018.17 1243,-1038.93 1270.19,-1074.97 1259.08,-1093.41 1279,-1133.93 1379.64,-1338.59 1319.93,-1570.93 1548,-1570.93 1548,-1570.93 1548,-1570.93 1736.5,-1570.93 1937.17,-1570.93 1987.65,-1555.26 2185,-1518.93 2202.09,-1515.78 2220.68,-1511.3 2236.81,-1507.05"/>
<polygon fill="midnightblue" stroke="midnightblue" points="2237.75,-1510.43 2246.5,-1504.46 2235.94,-1503.66 2237.75,-1510.43"/>
</g>
<!-- Node29&#45;&gt;Node7 -->
<g id="edge78" class="edge">
<title>Node29&#45;&gt;Node7</title>
<path fill="none" stroke="midnightblue" d="M1199.06,-972.36C1253.83,-956.69 1368.14,-925.81 1467,-910.93 1783.26,-863.33 1867,-897.06 2185,-862.93 2196.22,-861.72 2208.16,-860.17 2219.63,-858.54"/>
<polygon fill="midnightblue" stroke="midnightblue" points="2220.18,-861.99 2229.57,-857.09 2219.17,-855.07 2220.18,-861.99"/>
</g>
<!-- Node29&#45;&gt;Node13 -->
<g id="edge81" class="edge">
<title>Node29&#45;&gt;Node13</title>
<path fill="none" stroke="midnightblue" d="M1099.92,-988.47C1087.76,-988.7 1074.98,-988.74 1062.61,-988.59"/>
<polygon fill="midnightblue" stroke="midnightblue" points="1062.39,-985.08 1052.34,-988.42 1062.28,-992.08 1062.39,-985.08"/>
</g>
<!-- Node29&#45;&gt;Node17 -->
<g id="edge80" class="edge">
<title>Node29&#45;&gt;Node17</title>
<path fill="none" stroke="midnightblue" d="M1179.98,-991.49C1211.93,-1014.15 1292.5,-1071.3 1331.78,-1099.17"/>
<polygon fill="midnightblue" stroke="midnightblue" points="1330.2,-1102.34 1340.39,-1105.27 1334.25,-1096.63 1330.2,-1102.34"/>
</g>
<!-- Node30&#45;&gt;Node4 -->
<g id="edge83" class="edge">
<title>Node30&#45;&gt;Node4</title>
<path fill="none" stroke="midnightblue" d="M1169.05,-1124.43C1179.42,-1163.31 1218.99,-1314.09 1243,-1439.93 1253.31,-1493.98 1239.98,-1646.12 1279,-1684.93 1364.61,-1770.07 1427.26,-1722.93 1548,-1722.93 1548,-1722.93 1548,-1722.93 1915.5,-1722.93 1975.63,-1722.93 2135.82,-1733.51 2185,-1698.93 2248.17,-1654.5 2270.14,-1556.89 2276.87,-1514.84"/>
<polygon fill="midnightblue" stroke="midnightblue" points="2280.36,-1515.16 2278.35,-1504.76 2273.43,-1514.14 2280.36,-1515.16"/>
</g>
<!-- Node30&#45;&gt;Node7 -->
<g id="edge84" class="edge">
<title>Node30&#45;&gt;Node7</title>
<path fill="none" stroke="midnightblue" d="M1169,-1124.44C1179.16,-1163.36 1218.01,-1314.28 1243,-1439.93 1252.71,-1488.73 1241.09,-1628.69 1279,-1660.93 1338.89,-1711.85 1559.91,-1659.48 1631,-1625.93 1820.54,-1536.45 1832.17,-1457.99 1989,-1318.93 2005.24,-1304.53 2007.09,-1298.19 2025,-1285.93 2090.44,-1241.13 2134.82,-1268.34 2185,-1206.93 2270.8,-1101.93 2279.37,-926.9 2279.72,-868.54"/>
<polygon fill="midnightblue" stroke="midnightblue" points="2283.22,-868.47 2279.7,-858.48 2276.22,-868.48 2283.22,-868.47"/>
</g>
<!-- Node30&#45;&gt;Node13 -->
<g id="edge86" class="edge">
<title>Node30&#45;&gt;Node13</title>
<path fill="none" stroke="midnightblue" d="M1121.86,-1105.33C1110.45,-1100.01 1098.4,-1093.3 1088,-1085.93 1052.58,-1060.82 1017.79,-1022.83 1000.97,-1000.05"/>
<polygon fill="midnightblue" stroke="midnightblue" points="1003.66,-997.79 995.08,-991.57 997.91,-1001.78 1003.66,-997.79"/>
</g>
<!-- Node30&#45;&gt;Node17 -->
<g id="edge85" class="edge">
<title>Node30&#45;&gt;Node17</title>
<path fill="none" stroke="midnightblue" d="M1240.07,-1114.93C1252.41,-1114.93 1265.24,-1114.93 1277.66,-1114.93"/>
<polygon fill="midnightblue" stroke="midnightblue" points="1277.96,-1118.43 1287.96,-1114.93 1277.96,-1111.43 1277.96,-1118.43"/>
</g>
<!-- Node31&#45;&gt;Node2 -->
<g id="edge89" class="edge">
<title>Node31&#45;&gt;Node2</title>
<path fill="none" stroke="midnightblue" d="M1918.99,-514.11C1929.62,-485.89 1964.64,-404.6 2025,-373.93 2149.81,-310.51 2204.04,-340.52 2340,-373.93 2372.52,-381.92 2406.09,-401.5 2427.23,-415.48"/>
<polygon fill="midnightblue" stroke="midnightblue" points="2425.51,-418.55 2435.75,-421.26 2429.44,-412.75 2425.51,-418.55"/>
</g>
<!-- Node31&#45;&gt;Node7 -->
<g id="edge88" class="edge">
<title>Node31&#45;&gt;Node7</title>
<path fill="none" stroke="midnightblue" d="M1939.15,-533.48C1961.15,-542.14 1994.95,-554.91 2025,-563.93 2095,-584.95 2130.02,-553.77 2185,-601.93 2255.04,-663.27 2273.41,-782.41 2278.03,-829.29"/>
<polygon fill="midnightblue" stroke="midnightblue" points="2274.55,-829.69 2278.91,-839.34 2281.52,-829.08 2274.55,-829.69"/>
</g>
<!-- Node32 -->
<g id="node32" class="node">
<title>Node32</title>
<g id="a_node32"><a xlink:href="../../d0/dfe/class_syntax_analyzer.html#a3fd39f49d75b604d41e41f86b22cdca3" target="_top" xlink:title=" ">
<polygon fill="none" stroke="black" points="2025,-535.43 2025,-554.43 2185,-554.43 2185,-535.43 2025,-535.43"/>
<text text-anchor="middle" x="2105" y="-542.43" font-family="Helvetica,sans-Serif" font-size="10.00">SyntaxAnalyzer::syntaxConstDecl</text>
</a>
</g>
</g>
<!-- Node31&#45;&gt;Node32 -->
<g id="edge90" class="edge">
<title>Node31&#45;&gt;Node32</title>
<path fill="none" stroke="midnightblue" d="M1987.57,-531.96C1996.41,-532.94 2005.52,-533.96 2014.57,-534.96"/>
<polygon fill="midnightblue" stroke="midnightblue" points="2014.42,-538.47 2024.74,-536.1 2015.19,-531.51 2014.42,-538.47"/>
</g>
<!-- Node32&#45;&gt;Node2 -->
<g id="edge94" class="edge">
<title>Node32&#45;&gt;Node2</title>
<path fill="none" stroke="midnightblue" d="M2185.2,-548.09C2231.9,-547.24 2291.21,-541.34 2340,-520.93 2378.97,-504.62 2414.82,-469.55 2434.12,-448.32"/>
<polygon fill="midnightblue" stroke="midnightblue" points="2436.89,-450.48 2440.9,-440.68 2431.65,-445.84 2436.89,-450.48"/>
</g>
<!-- Node32&#45;&gt;Node4 -->
<g id="edge91" class="edge">
<title>Node32&#45;&gt;Node4</title>
<path fill="none" stroke="midnightblue" d="M2128.85,-554.48C2147.57,-563.66 2172.88,-579.45 2185,-601.93 2273.23,-765.61 2145.06,-1268.19 2221,-1437.93 2228.51,-1454.7 2243.41,-1469.1 2256.29,-1479.23"/>
<polygon fill="midnightblue" stroke="midnightblue" points="2254.26,-1482.08 2264.37,-1485.25 2258.44,-1476.47 2254.26,-1482.08"/>
</g>
<!-- Node32&#45;&gt;Node7 -->
<g id="edge92" class="edge">
<title>Node32&#45;&gt;Node7</title>
<path fill="none" stroke="midnightblue" d="M2161.95,-554.56C2170.44,-557.99 2178.52,-562.64 2185,-568.93 2204.59,-587.93 2256.89,-768.74 2274,-829.28"/>
<polygon fill="midnightblue" stroke="midnightblue" points="2270.69,-830.45 2276.77,-839.12 2277.43,-828.55 2270.69,-830.45"/>
</g>
<!-- Node32&#45;&gt;Node9 -->
<g id="edge95" class="edge">
<title>Node32&#45;&gt;Node9</title>
<path fill="none" stroke="midnightblue" d="M2116.85,-535.42C2145.7,-510.15 2224.54,-441.08 2260.8,-409.31"/>
<polygon fill="midnightblue" stroke="midnightblue" points="2263.44,-411.65 2268.65,-402.43 2258.82,-406.39 2263.44,-411.65"/>
</g>
<!-- Node32&#45;&gt;Node22 -->
<g id="edge93" class="edge">
<title>Node32&#45;&gt;Node22</title>
<path fill="none" stroke="midnightblue" d="M2143.14,-554.48C2156.55,-558.38 2171.66,-563.3 2185,-568.93 2209.95,-579.44 2236.86,-594.67 2255.55,-605.93"/>
<polygon fill="midnightblue" stroke="midnightblue" points="2253.92,-609.03 2264.28,-611.25 2257.57,-603.05 2253.92,-609.03"/>
</g>
<!-- Node33&#45;&gt;Node2 -->
<g id="edge98" class="edge">
<title>Node33&#45;&gt;Node2</title>
<path fill="none" stroke="midnightblue" d="M1743.82,-562.22C1773.55,-523.72 1890.08,-381.55 2025,-332.93 2156.75,-285.44 2209.48,-290.17 2340,-340.93 2379.58,-356.32 2415.45,-392.02 2434.54,-413.54"/>
<polygon fill="midnightblue" stroke="midnightblue" points="2432.05,-416.01 2441.23,-421.29 2437.34,-411.43 2432.05,-416.01"/>
</g>
<!-- Node33&#45;&gt;Node7 -->
<g id="edge97" class="edge">
<title>Node33&#45;&gt;Node7</title>
<path fill="none" stroke="midnightblue" d="M1761.79,-581.56C1811.75,-600.46 1926.79,-643.31 2025,-674.93 2095.43,-697.6 2124.24,-678.7 2185,-720.93 2226.21,-749.57 2256.52,-802.03 2270.65,-830.07"/>
<polygon fill="midnightblue" stroke="midnightblue" points="2267.58,-831.76 2275.11,-839.21 2273.87,-828.69 2267.58,-831.76"/>
</g>
<!-- Node34 -->
<g id="node34" class="node">
<title>Node34</title>
<g id="a_node34"><a xlink:href="../../d0/dfe/class_syntax_analyzer.html#a3106ad7f9a5cf50b2c277c28401422ec" target="_top" xlink:title=" ">
<polygon fill="none" stroke="black" points="1840,-562.43 1840,-581.43 1989,-581.43 1989,-562.43 1840,-562.43"/>
<text text-anchor="middle" x="1914.5" y="-569.43" font-family="Helvetica,sans-Serif" font-size="10.00">SyntaxAnalyzer::syntaxVarDecl</text>
</a>
</g>
</g>
<!-- Node33&#45;&gt;Node34 -->
<g id="edge99" class="edge">
<title>Node33&#45;&gt;Node34</title>
<path fill="none" stroke="midnightblue" d="M1803.16,-571.93C1811.85,-571.93 1820.84,-571.93 1829.76,-571.93"/>
<polygon fill="midnightblue" stroke="midnightblue" points="1829.78,-575.43 1839.78,-571.93 1829.78,-568.43 1829.78,-575.43"/>
</g>
<!-- Node34&#45;&gt;Node2 -->
<g id="edge102" class="edge">
<title>Node34&#45;&gt;Node2</title>
<path fill="none" stroke="midnightblue" d="M1956.29,-562.39C1968,-558.03 1980.02,-551.79 1989,-542.93 2019.07,-513.23 1990.6,-479.46 2025,-454.93 2079.08,-416.36 2267.09,-420.19 2373.7,-425.85"/>
<polygon fill="midnightblue" stroke="midnightblue" points="2373.58,-429.35 2383.75,-426.4 2373.96,-422.36 2373.58,-429.35"/>
</g>
<!-- Node34&#45;&gt;Node4 -->
<g id="edge100" class="edge">
<title>Node34&#45;&gt;Node4</title>
<path fill="none" stroke="midnightblue" d="M1921.78,-581.77C1955.48,-635.17 2116.07,-896.47 2185,-1133.93 2222.93,-1264.59 2160.83,-1315.9 2221,-1437.93 2229.18,-1454.51 2244.21,-1469 2256.99,-1479.21"/>
<polygon fill="midnightblue" stroke="midnightblue" points="2254.89,-1482.01 2264.96,-1485.29 2259.13,-1476.44 2254.89,-1482.01"/>
</g>
<!-- Node34&#45;&gt;Node7 -->
<g id="edge101" class="edge">
<title>Node34&#45;&gt;Node7</title>
<path fill="none" stroke="midnightblue" d="M1928.29,-581.63C1948.05,-596.19 1987.63,-623.72 2025,-639.93 2092.56,-669.22 2126.74,-637.9 2185,-682.93 2234.96,-721.53 2262.88,-794.53 2273.91,-829.42"/>
<polygon fill="midnightblue" stroke="midnightblue" points="2270.65,-830.75 2276.9,-839.31 2277.35,-828.72 2270.65,-830.75"/>
</g>
<!-- Node34&#45;&gt;Node9 -->
<g id="edge103" class="edge">
<title>Node34&#45;&gt;Node9</title>
<path fill="none" stroke="midnightblue" d="M1958.44,-562.4C1969.67,-558.09 1980.89,-551.87 1989,-542.93 2028.13,-499.79 1980.2,-454.15 2025,-416.93 2080.59,-370.74 2168.46,-373.6 2225.03,-381.8"/>
<polygon fill="midnightblue" stroke="midnightblue" points="2224.79,-385.31 2235.21,-383.39 2225.87,-378.39 2224.79,-385.31"/>
</g>
<!-- Node35 -->
<g id="node35" class="node">
<title>Node35</title>
<g id="a_node35"><a xlink:href="../../d0/dfe/class_syntax_analyzer.html#a59b8fda4a98347e67033502aec8d2e4f" target="_top" xlink:title=" ">
<polygon fill="none" stroke="black" points="2026,-611.43 2026,-630.43 2184,-630.43 2184,-611.43 2026,-611.43"/>
<text text-anchor="middle" x="2105" y="-618.43" font-family="Helvetica,sans-Serif" font-size="10.00">SyntaxAnalyzer::syntaxTypeSpec</text>
</a>
</g>
</g>
<!-- Node34&#45;&gt;Node35 -->
<g id="edge104" class="edge">
<title>Node34&#45;&gt;Node35</title>
<path fill="none" stroke="midnightblue" d="M1952.29,-581.49C1982.39,-589.32 2025.14,-600.43 2057.59,-608.86"/>
<polygon fill="midnightblue" stroke="midnightblue" points="2056.74,-612.26 2067.3,-611.39 2058.5,-605.48 2056.74,-612.26"/>
</g>
<!-- Node35&#45;&gt;Node2 -->
<g id="edge107" class="edge">
<title>Node35&#45;&gt;Node2</title>
<path fill="none" stroke="midnightblue" d="M2164.85,-611.33C2214.45,-601.27 2285.79,-582.03 2340,-547.93 2382.06,-521.46 2418.6,-474.8 2436.77,-449.13"/>
<polygon fill="midnightblue" stroke="midnightblue" points="2439.79,-450.91 2442.61,-440.69 2434.04,-446.92 2439.79,-450.91"/>
</g>
<!-- Node35&#45;&gt;Node4 -->
<g id="edge105" class="edge">
<title>Node35&#45;&gt;Node4</title>
<path fill="none" stroke="midnightblue" d="M2108.28,-630.56C2118.73,-675.13 2162.61,-866.05 2185,-1024.93 2197.86,-1116.15 2181.54,-1354.68 2221,-1437.93 2228.92,-1454.64 2243.96,-1469.12 2256.8,-1479.3"/>
<polygon fill="midnightblue" stroke="midnightblue" points="2254.74,-1482.13 2264.83,-1485.35 2258.95,-1476.54 2254.74,-1482.13"/>
</g>
<!-- Node35&#45;&gt;Node22 -->
<g id="edge106" class="edge">
<title>Node35&#45;&gt;Node22</title>
<path fill="none" stroke="midnightblue" d="M2184.12,-620.93C2193.11,-620.93 2202.22,-620.93 2211.06,-620.93"/>
<polygon fill="midnightblue" stroke="midnightblue" points="2211.3,-624.43 2221.3,-620.93 2211.3,-617.43 2211.3,-624.43"/>
</g>
</g>
</svg>
