<?xml version="1.0" encoding="UTF-8" standalone="no"?>
<!DOCTYPE svg PUBLIC "-//W3C//DTD SVG 1.1//EN"
 "http://www.w3.org/Graphics/SVG/1.1/DTD/svg11.dtd">
<!-- Generated by graphviz version 3.0.0 (20220413.0106)
 -->
<!-- Title: List::end Pages: 1 -->
<svg width="727pt" height="104pt"
 viewBox="0.00 0.00 727.00 104.00" xmlns="http://www.w3.org/2000/svg" xmlns:xlink="http://www.w3.org/1999/xlink">
<g id="graph0" class="graph" transform="scale(1 1) rotate(0) translate(4 100)">
<title>List::end</title>
<!-- Node1 -->
<g id="node1" class="node">
<title>Node1</title>
<g id="a_node1"><a xlink:title="Конец списка">
<polygon fill="#bfbfbf" stroke="black" points="666,-19.5 666,-38.5 719,-38.5 719,-19.5 666,-19.5"/>
<text text-anchor="middle" x="692.5" y="-26.5" font-family="Helvetica,sans-Serif" font-size="10.00">List::end</text>
</a>
</g>
</g>
<!-- Node2 -->
<g id="node2" class="node">
<title>Node2</title>
<g id="a_node2"><a xlink:href="../../da/d5a/class_lexer.html#a473a8abf892384a3e2769651318d7ab1" target="_top" xlink:title="Анализирует текст программы">
<polygon fill="none" stroke="black" points="497,-38.5 497,-57.5 630,-57.5 630,-38.5 497,-38.5"/>
<text text-anchor="middle" x="563.5" y="-45.5" font-family="Helvetica,sans-Serif" font-size="10.00">Lexer::analyzeProgramText</text>
</a>
</g>
</g>
<!-- Node1&#45;&gt;Node2 -->
<g id="edge1" class="edge">
<title>Node1&#45;&gt;Node2</title>
<path fill="none" stroke="midnightblue" d="M655.77,-34.34C647.16,-35.63 637.71,-37.05 628.24,-38.46"/>
<polygon fill="midnightblue" stroke="midnightblue" points="656.43,-37.79 665.8,-32.84 655.39,-30.86 656.43,-37.79"/>
</g>
<!-- Node10 -->
<g id="node10" class="node">
<title>Node10</title>
<g id="a_node10"><a xlink:href="../../d9/d2f/test_list_8cpp.html#a256bae2f0eb49473b98778cf8613ffeb" target="_top" xlink:title=" ">
<polygon fill="none" stroke="black" points="543,-0.5 543,-19.5 584,-19.5 584,-0.5 543,-0.5"/>
<text text-anchor="middle" x="563.5" y="-7.5" font-family="Helvetica,sans-Serif" font-size="10.00">TEST</text>
</a>
</g>
</g>
<!-- Node1&#45;&gt;Node10 -->
<g id="edge9" class="edge">
<title>Node1&#45;&gt;Node10</title>
<path fill="none" stroke="midnightblue" d="M655.67,-23.64C632.56,-20.18 603.37,-15.82 584.34,-12.97"/>
<polygon fill="midnightblue" stroke="midnightblue" points="655.39,-27.14 665.8,-25.16 656.43,-20.21 655.39,-27.14"/>
</g>
<!-- Node3 -->
<g id="node3" class="node">
<title>Node3</title>
<g id="a_node3"><a xlink:href="../../da/d5a/class_lexer.html#a240680b247c9b95a1bbd802716b20f39" target="_top" xlink:title="Анализирует файл">
<polygon fill="none" stroke="black" points="368,-38.5 368,-57.5 461,-57.5 461,-38.5 368,-38.5"/>
<text text-anchor="middle" x="414.5" y="-45.5" font-family="Helvetica,sans-Serif" font-size="10.00">Lexer::analyzeFile</text>
</a>
</g>
</g>
<!-- Node2&#45;&gt;Node3 -->
<g id="edge2" class="edge">
<title>Node2&#45;&gt;Node3</title>
<path fill="none" stroke="midnightblue" d="M486.64,-48C478.03,-48 469.46,-48 461.41,-48"/>
<polygon fill="midnightblue" stroke="midnightblue" points="486.74,-51.5 496.74,-48 486.74,-44.5 486.74,-51.5"/>
</g>
<!-- Node4 -->
<g id="node4" class="node">
<title>Node4</title>
<g id="a_node4"><a xlink:href="../../d6/d1a/class_analyzer.html#aaa75d76110c2f35ca78714bef24f4962" target="_top" xlink:title=" ">
<polygon fill="none" stroke="black" points="226,-76.5 226,-95.5 332,-95.5 332,-76.5 226,-76.5"/>
<text text-anchor="middle" x="279" y="-83.5" font-family="Helvetica,sans-Serif" font-size="10.00">Analyzer::analyzeFile</text>
</a>
</g>
</g>
<!-- Node3&#45;&gt;Node4 -->
<g id="edge3" class="edge">
<title>Node3&#45;&gt;Node4</title>
<path fill="none" stroke="midnightblue" d="M369.97,-60.39C351.69,-65.59 330.75,-71.55 313.68,-76.41"/>
<polygon fill="midnightblue" stroke="midnightblue" points="371.15,-63.69 379.81,-57.59 369.24,-56.96 371.15,-63.69"/>
</g>
<!-- Node7 -->
<g id="node7" class="node">
<title>Node7</title>
<g id="a_node7"><a xlink:href="../../d0/d0f/test_lexer__1_8cpp.html#a685fd1876eec959aa220812db64464f1" target="_top" xlink:title=" ">
<polygon fill="none" stroke="black" points="237.5,-38.5 237.5,-57.5 320.5,-57.5 320.5,-38.5 237.5,-38.5"/>
<text text-anchor="middle" x="279" y="-45.5" font-family="Helvetica,sans-Serif" font-size="10.00">checkEqualLex</text>
</a>
</g>
</g>
<!-- Node3&#45;&gt;Node7 -->
<g id="edge6" class="edge">
<title>Node3&#45;&gt;Node7</title>
<path fill="none" stroke="midnightblue" d="M357.72,-48C345.37,-48 332.51,-48 320.89,-48"/>
<polygon fill="midnightblue" stroke="midnightblue" points="357.93,-51.5 367.93,-48 357.93,-44.5 357.93,-51.5"/>
</g>
<!-- Node9 -->
<g id="node9" class="node">
<title>Node9</title>
<g id="a_node9"><a xlink:href="../../db/df9/test_semantic_8cpp.html#a804faf7fd199a3c491020f1f2caa618b" target="_top" xlink:title="Тест семантического анализа Паскаля">
<polygon fill="none" stroke="black" points="258.5,-0.5 258.5,-19.5 299.5,-19.5 299.5,-0.5 258.5,-0.5"/>
<text text-anchor="middle" x="279" y="-7.5" font-family="Helvetica,sans-Serif" font-size="10.00">TEST</text>
</a>
</g>
</g>
<!-- Node3&#45;&gt;Node9 -->
<g id="edge8" class="edge">
<title>Node3&#45;&gt;Node9</title>
<path fill="none" stroke="midnightblue" d="M369.95,-35.61C346.22,-28.85 318.01,-20.82 299.59,-15.58"/>
<polygon fill="midnightblue" stroke="midnightblue" points="369.24,-39.04 379.81,-38.41 371.15,-32.31 369.24,-39.04"/>
</g>
<!-- Node5 -->
<g id="node5" class="node">
<title>Node5</title>
<g id="a_node5"><a xlink:href="../../d3/db4/graph_draw_8cpp.html#a33bc391d1718919ab8e74041e88a93d7" target="_top" xlink:title=" ">
<polygon fill="none" stroke="black" points="74,-76.5 74,-95.5 190,-95.5 190,-76.5 74,-76.5"/>
<text text-anchor="middle" x="132" y="-83.5" font-family="Helvetica,sans-Serif" font-size="10.00">analyzePascalProgram</text>
</a>
</g>
</g>
<!-- Node4&#45;&gt;Node5 -->
<g id="edge4" class="edge">
<title>Node4&#45;&gt;Node5</title>
<path fill="none" stroke="midnightblue" d="M215.51,-86C207.09,-86 198.49,-86 190.18,-86"/>
<polygon fill="midnightblue" stroke="midnightblue" points="215.65,-89.5 225.65,-86 215.65,-82.5 215.65,-89.5"/>
</g>
<!-- Node6 -->
<g id="node6" class="node">
<title>Node6</title>
<g id="a_node6"><a xlink:href="../../d3/db4/graph_draw_8cpp.html#a3c04138a5bfe5d72780bb7e82a18e627" target="_top" xlink:title=" ">
<polygon fill="none" stroke="black" points="0,-76.5 0,-95.5 38,-95.5 38,-76.5 0,-76.5"/>
<text text-anchor="middle" x="19" y="-83.5" font-family="Helvetica,sans-Serif" font-size="10.00">main</text>
</a>
</g>
</g>
<!-- Node5&#45;&gt;Node6 -->
<g id="edge5" class="edge">
<title>Node5&#45;&gt;Node6</title>
<path fill="none" stroke="midnightblue" d="M63.62,-86C54.3,-86 45.44,-86 38.18,-86"/>
<polygon fill="midnightblue" stroke="midnightblue" points="63.87,-89.5 73.87,-86 63.87,-82.5 63.87,-89.5"/>
</g>
<!-- Node8 -->
<g id="node8" class="node">
<title>Node8</title>
<g id="a_node8"><a xlink:href="../../d0/d0f/test_lexer__1_8cpp.html#a42b988f5ceb814376db8a2df3c933b15" target="_top" xlink:title="Тест разбора простых математических выражений">
<polygon fill="none" stroke="black" points="111.5,-38.5 111.5,-57.5 152.5,-57.5 152.5,-38.5 111.5,-38.5"/>
<text text-anchor="middle" x="132" y="-45.5" font-family="Helvetica,sans-Serif" font-size="10.00">TEST</text>
</a>
</g>
</g>
<!-- Node7&#45;&gt;Node8 -->
<g id="edge7" class="edge">
<title>Node7&#45;&gt;Node8</title>
<path fill="none" stroke="midnightblue" d="M226.88,-48C201.23,-48 171.66,-48 152.67,-48"/>
<polygon fill="midnightblue" stroke="midnightblue" points="227.22,-51.5 237.22,-48 227.22,-44.5 227.22,-51.5"/>
</g>
</g>
</svg>
