<?xml version="1.0" encoding="UTF-8" standalone="no"?>
<!DOCTYPE svg PUBLIC "-//W3C//DTD SVG 1.1//EN"
 "http://www.w3.org/Graphics/SVG/1.1/DTD/svg11.dtd">
<!-- Generated by graphviz version 3.0.0 (20220413.0106)
 -->
<!-- Title: List::operator[] Pages: 1 -->
<svg width="268pt" height="66pt"
 viewBox="0.00 0.00 268.00 66.00" xmlns="http://www.w3.org/2000/svg" xmlns:xlink="http://www.w3.org/1999/xlink">
<g id="graph0" class="graph" transform="scale(1 1) rotate(0) translate(4 62)">
<title>List::operator[]</title>
<!-- Node1 -->
<g id="node1" class="node">
<title>Node1</title>
<g id="a_node1"><a xlink:title=" ">
<polygon fill="#bfbfbf" stroke="black" points="181,-19.5 181,-38.5 260,-38.5 260,-19.5 181,-19.5"/>
<text text-anchor="middle" x="220.5" y="-26.5" font-family="Helvetica,sans-Serif" font-size="10.00">List::operator[]</text>
</a>
</g>
</g>
<!-- Node2 -->
<g id="node2" class="node">
<title>Node2</title>
<g id="a_node2"><a xlink:href="../../d4/da4/class_queue.html#a886b09e0d03c7b89f5475e1450a76464" target="_top" xlink:title="Возвращает ссылку на значение в главе очереди">
<polygon fill="none" stroke="black" points="77,-38.5 77,-57.5 145,-57.5 145,-38.5 77,-38.5"/>
<text text-anchor="middle" x="111" y="-45.5" font-family="Helvetica,sans-Serif" font-size="10.00">Queue::pick</text>
</a>
</g>
</g>
<!-- Node1&#45;&gt;Node2 -->
<g id="edge1" class="edge">
<title>Node1&#45;&gt;Node2</title>
<path fill="none" stroke="midnightblue" d="M170.94,-37.58C162.25,-39.12 153.39,-40.68 145.26,-42.12"/>
<polygon fill="midnightblue" stroke="midnightblue" points="171.76,-40.99 180.99,-35.81 170.54,-34.1 171.76,-40.99"/>
</g>
<!-- Node4 -->
<g id="node4" class="node">
<title>Node4</title>
<g id="a_node4"><a xlink:href="../../d0/d14/class_stack.html#a1a5f5b9d939b621e1c2cf1cdb815f789" target="_top" xlink:title="Возвращает ссылку на значение на вершине стека">
<polygon fill="none" stroke="black" points="78.5,-0.5 78.5,-19.5 143.5,-19.5 143.5,-0.5 78.5,-0.5"/>
<text text-anchor="middle" x="111" y="-7.5" font-family="Helvetica,sans-Serif" font-size="10.00">Stack::pick</text>
</a>
</g>
</g>
<!-- Node1&#45;&gt;Node4 -->
<g id="edge3" class="edge">
<title>Node1&#45;&gt;Node4</title>
<path fill="none" stroke="midnightblue" d="M171.01,-20.43C161.68,-18.78 152.14,-17.09 143.52,-15.57"/>
<polygon fill="midnightblue" stroke="midnightblue" points="170.54,-23.9 180.99,-22.19 171.76,-17.01 170.54,-23.9"/>
</g>
<!-- Node3 -->
<g id="node3" class="node">
<title>Node3</title>
<g id="a_node3"><a xlink:href="../../d1/ddc/test_queue_8cpp.html#aeca6e5d9af6c9e307055a404d678da45" target="_top" xlink:title="Тест взятия первого элемента">
<polygon fill="none" stroke="black" points="0,-38.5 0,-57.5 41,-57.5 41,-38.5 0,-38.5"/>
<text text-anchor="middle" x="20.5" y="-45.5" font-family="Helvetica,sans-Serif" font-size="10.00">TEST</text>
</a>
</g>
</g>
<!-- Node2&#45;&gt;Node3 -->
<g id="edge2" class="edge">
<title>Node2&#45;&gt;Node3</title>
<path fill="none" stroke="midnightblue" d="M66.51,-48C57.66,-48 48.77,-48 41.25,-48"/>
<polygon fill="midnightblue" stroke="midnightblue" points="66.79,-51.5 76.79,-48 66.79,-44.5 66.79,-51.5"/>
</g>
<!-- Node5 -->
<g id="node5" class="node">
<title>Node5</title>
<g id="a_node5"><a xlink:href="../../d9/df1/test_stack_8cpp.html#aedf1705910ebac83375f579e9e810fcf" target="_top" xlink:title="Тест взятия первого элемента">
<polygon fill="none" stroke="black" points="0,-0.5 0,-19.5 41,-19.5 41,-0.5 0,-0.5"/>
<text text-anchor="middle" x="20.5" y="-7.5" font-family="Helvetica,sans-Serif" font-size="10.00">TEST</text>
</a>
</g>
</g>
<!-- Node4&#45;&gt;Node5 -->
<g id="edge4" class="edge">
<title>Node4&#45;&gt;Node5</title>
<path fill="none" stroke="midnightblue" d="M67.97,-10C58.56,-10 49.02,-10 41.04,-10"/>
<polygon fill="midnightblue" stroke="midnightblue" points="68.05,-13.5 78.05,-10 68.05,-6.5 68.05,-13.5"/>
</g>
</g>
</svg>
