<?xml version="1.0" encoding="UTF-8" standalone="no"?>
<!DOCTYPE svg PUBLIC "-//W3C//DTD SVG 1.1//EN"
 "http://www.w3.org/Graphics/SVG/1.1/DTD/svg11.dtd">
<!-- Generated by graphviz version 3.0.0 (20220413.0106)
 -->
<!-- Title: List::begin Pages: 1 -->
<svg width="444pt" height="85pt"
 viewBox="0.00 0.00 444.00 85.00" xmlns="http://www.w3.org/2000/svg" xmlns:xlink="http://www.w3.org/1999/xlink">
<g id="graph0" class="graph" transform="scale(1 1) rotate(0) translate(4 81)">
<title>List::begin</title>
<!-- Node1 -->
<g id="node1" class="node">
<title>Node1</title>
<g id="a_node1"><a xlink:title="Итератор для начала списка">
<polygon fill="#bfbfbf" stroke="black" points="375,-19.5 375,-38.5 436,-38.5 436,-19.5 375,-19.5"/>
<text text-anchor="middle" x="405.5" y="-26.5" font-family="Helvetica,sans-Serif" font-size="10.00">List::begin</text>
</a>
</g>
</g>
<!-- Node2 -->
<g id="node2" class="node">
<title>Node2</title>
<g id="a_node2"><a xlink:href="../../da/d5a/class_lexer.html#a473a8abf892384a3e2769651318d7ab1" target="_top" xlink:title="Анализирует текст программы">
<polygon fill="none" stroke="black" points="206,-38.5 206,-57.5 339,-57.5 339,-38.5 206,-38.5"/>
<text text-anchor="middle" x="272.5" y="-45.5" font-family="Helvetica,sans-Serif" font-size="10.00">Lexer::analyzeProgramText</text>
</a>
</g>
</g>
<!-- Node1&#45;&gt;Node2 -->
<g id="edge1" class="edge">
<title>Node1&#45;&gt;Node2</title>
<path fill="none" stroke="midnightblue" d="M364.86,-34.75C356.73,-35.93 347.97,-37.2 339.2,-38.47"/>
<polygon fill="midnightblue" stroke="midnightblue" points="365.38,-38.21 374.77,-33.31 364.38,-31.28 365.38,-38.21"/>
</g>
<!-- Node6 -->
<g id="node6" class="node">
<title>Node6</title>
<g id="a_node6"><a xlink:href="../../d9/d2f/test_list_8cpp.html#a256bae2f0eb49473b98778cf8613ffeb" target="_top" xlink:title=" ">
<polygon fill="none" stroke="black" points="252,-0.5 252,-19.5 293,-19.5 293,-0.5 252,-0.5"/>
<text text-anchor="middle" x="272.5" y="-7.5" font-family="Helvetica,sans-Serif" font-size="10.00">TEST</text>
</a>
</g>
</g>
<!-- Node1&#45;&gt;Node6 -->
<g id="edge5" class="edge">
<title>Node1&#45;&gt;Node6</title>
<path fill="none" stroke="midnightblue" d="M364.69,-23.23C341.09,-19.8 312.2,-15.61 293.35,-12.88"/>
<polygon fill="midnightblue" stroke="midnightblue" points="364.38,-26.72 374.77,-24.69 365.38,-19.79 364.38,-26.72"/>
</g>
<!-- Node3 -->
<g id="node3" class="node">
<title>Node3</title>
<g id="a_node3"><a xlink:href="../../da/d5a/class_lexer.html#a240680b247c9b95a1bbd802716b20f39" target="_top" xlink:title="Анализирует файл">
<polygon fill="none" stroke="black" points="77,-38.5 77,-57.5 170,-57.5 170,-38.5 77,-38.5"/>
<text text-anchor="middle" x="123.5" y="-45.5" font-family="Helvetica,sans-Serif" font-size="10.00">Lexer::analyzeFile</text>
</a>
</g>
</g>
<!-- Node2&#45;&gt;Node3 -->
<g id="edge2" class="edge">
<title>Node2&#45;&gt;Node3</title>
<path fill="none" stroke="midnightblue" d="M195.64,-48C187.03,-48 178.46,-48 170.41,-48"/>
<polygon fill="midnightblue" stroke="midnightblue" points="195.74,-51.5 205.74,-48 195.74,-44.5 195.74,-51.5"/>
</g>
<!-- Node4 -->
<g id="node4" class="node">
<title>Node4</title>
<g id="a_node4"><a xlink:href="../../df/d0a/main_8cpp.html#a3c04138a5bfe5d72780bb7e82a18e627" target="_top" xlink:title=" ">
<polygon fill="none" stroke="black" points="1.5,-57.5 1.5,-76.5 39.5,-76.5 39.5,-57.5 1.5,-57.5"/>
<text text-anchor="middle" x="20.5" y="-64.5" font-family="Helvetica,sans-Serif" font-size="10.00">main</text>
</a>
</g>
</g>
<!-- Node3&#45;&gt;Node4 -->
<g id="edge3" class="edge">
<title>Node3&#45;&gt;Node4</title>
<path fill="none" stroke="midnightblue" d="M66.84,-58.47C56.98,-60.33 47.39,-62.13 39.59,-63.6"/>
<polygon fill="midnightblue" stroke="midnightblue" points="67.55,-61.9 76.73,-56.61 66.25,-55.02 67.55,-61.9"/>
</g>
<!-- Node5 -->
<g id="node5" class="node">
<title>Node5</title>
<g id="a_node5"><a xlink:href="../../d0/d0f/test_lexer__1_8cpp.html#a42b988f5ceb814376db8a2df3c933b15" target="_top" xlink:title="Тест разбора простых математических выражений">
<polygon fill="none" stroke="black" points="0,-19.5 0,-38.5 41,-38.5 41,-19.5 0,-19.5"/>
<text text-anchor="middle" x="20.5" y="-26.5" font-family="Helvetica,sans-Serif" font-size="10.00">TEST</text>
</a>
</g>
</g>
<!-- Node3&#45;&gt;Node5 -->
<g id="edge4" class="edge">
<title>Node3&#45;&gt;Node5</title>
<path fill="none" stroke="midnightblue" d="M66.72,-37.51C57.53,-35.78 48.58,-34.09 41.09,-32.69"/>
<polygon fill="midnightblue" stroke="midnightblue" points="66.25,-40.98 76.73,-39.39 67.55,-34.1 66.25,-40.98"/>
</g>
</g>
</svg>
