<?xml version="1.0" encoding="UTF-8" standalone="no"?>
<!DOCTYPE svg PUBLIC "-//W3C//DTD SVG 1.1//EN"
 "http://www.w3.org/Graphics/SVG/1.1/DTD/svg11.dtd">
<!-- Generated by graphviz version 3.0.0 (20220413.0106)
 -->
<!-- Title: List::size Pages: 1 -->
<svg width="2874pt" height="467pt"
 viewBox="0.00 0.00 2874.00 467.00" xmlns="http://www.w3.org/2000/svg" xmlns:xlink="http://www.w3.org/1999/xlink">
<g id="graph0" class="graph" transform="scale(1 1) rotate(0) translate(4 463)">
<title>List::size</title>
<!-- Node1 -->
<g id="node1" class="node">
<title>Node1</title>
<g id="a_node1"><a xlink:title=" ">
<polygon fill="#bfbfbf" stroke="black" points="2811,-133.5 2811,-152.5 2866,-152.5 2866,-133.5 2811,-133.5"/>
<text text-anchor="middle" x="2838.5" y="-140.5" font-family="Helvetica,sans-Serif" font-size="10.00">List::size</text>
</a>
</g>
</g>
<!-- Node2 -->
<g id="node2" class="node">
<title>Node2</title>
<g id="a_node2"><a xlink:href="../../d0/d0f/test_lexer__1_8cpp.html#a685fd1876eec959aa220812db64464f1" target="_top" xlink:title=" ">
<polygon fill="none" stroke="black" points="2665,-413.5 2665,-432.5 2748,-432.5 2748,-413.5 2665,-413.5"/>
<text text-anchor="middle" x="2706.5" y="-420.5" font-family="Helvetica,sans-Serif" font-size="10.00">checkEqualLex</text>
</a>
</g>
</g>
<!-- Node1&#45;&gt;Node2 -->
<g id="edge1" class="edge">
<title>Node1&#45;&gt;Node2</title>
<path fill="none" stroke="midnightblue" d="M2837.02,-162.71C2835.02,-206.12 2824.99,-311.54 2775,-380 2763.94,-395.15 2745.77,-406.28 2731.07,-413.41"/>
<polygon fill="midnightblue" stroke="midnightblue" points="2840.52,-162.75 2837.38,-152.63 2833.52,-162.5 2840.52,-162.75"/>
</g>
<!-- Node4 -->
<g id="node4" class="node">
<title>Node4</title>
<g id="a_node4"><a xlink:href="../../df/d0a/main_8cpp.html#af50a7ab232af26f0f371f58cd3b3441f" target="_top" xlink:title=" ">
<polygon fill="none" stroke="black" points="2680,-351.5 2680,-370.5 2733,-370.5 2733,-351.5 2680,-351.5"/>
<text text-anchor="middle" x="2706.5" y="-358.5" font-family="Helvetica,sans-Serif" font-size="10.00">highlight</text>
</a>
</g>
</g>
<!-- Node1&#45;&gt;Node4 -->
<g id="edge3" class="edge">
<title>Node1&#45;&gt;Node4</title>
<path fill="none" stroke="midnightblue" d="M2832.34,-162.24C2823.69,-192.34 2804.27,-251.6 2775,-295 2759.42,-318.1 2734.77,-339.62 2719.96,-351.48"/>
<polygon fill="midnightblue" stroke="midnightblue" points="2835.73,-163.13 2835.04,-152.55 2828.98,-161.25 2835.73,-163.13"/>
</g>
<!-- Node6 -->
<g id="node6" class="node">
<title>Node6</title>
<g id="a_node6"><a xlink:href="../../d0/dfe/class_syntax_analyzer.html#af0905389742c4f842207bb2c073afbfa" target="_top" xlink:title=" ">
<polygon fill="none" stroke="black" points="2638,-266.5 2638,-285.5 2775,-285.5 2775,-266.5 2638,-266.5"/>
<text text-anchor="middle" x="2706.5" y="-273.5" font-family="Helvetica,sans-Serif" font-size="10.00">SyntaxAnalyzer::lookFoward</text>
</a>
</g>
</g>
<!-- Node1&#45;&gt;Node6 -->
<g id="edge5" class="edge">
<title>Node1&#45;&gt;Node6</title>
<path fill="none" stroke="midnightblue" d="M2820.83,-160.06C2793.27,-188.25 2739.1,-243.67 2717.12,-266.16"/>
<polygon fill="midnightblue" stroke="midnightblue" points="2823.66,-162.16 2828.15,-152.57 2818.66,-157.27 2823.66,-162.16"/>
</g>
<!-- Node27 -->
<g id="node27" class="node">
<title>Node27</title>
<g id="a_node27"><a xlink:href="../../d1/d34/class_list.html#afde529b40dee618ee58faf1414b7be8c" target="_top" xlink:title="Удаление из конца списка">
<polygon fill="none" stroke="black" points="2668.5,-152.5 2668.5,-171.5 2744.5,-171.5 2744.5,-152.5 2668.5,-152.5"/>
<text text-anchor="middle" x="2706.5" y="-159.5" font-family="Helvetica,sans-Serif" font-size="10.00">List::popBack</text>
</a>
</g>
</g>
<!-- Node1&#45;&gt;Node27 -->
<g id="edge41" class="edge">
<title>Node1&#45;&gt;Node27</title>
<path fill="none" stroke="midnightblue" d="M2800.53,-148.4C2783.12,-150.95 2762.39,-153.98 2744.93,-156.53"/>
<polygon fill="midnightblue" stroke="midnightblue" points="2801.49,-151.8 2810.88,-146.89 2800.48,-144.87 2801.49,-151.8"/>
</g>
<!-- Node32 -->
<g id="node32" class="node">
<title>Node32</title>
<g id="a_node32"><a xlink:href="../../d1/d34/class_list.html#a0932514a25b68c813750998115a7ad45" target="_top" xlink:title="Безопасная функция для удаления, т.к. учитывается изменение указателя на начало и конец списка">
<polygon fill="none" stroke="black" points="2490.5,-114.5 2490.5,-133.5 2570.5,-133.5 2570.5,-114.5 2490.5,-114.5"/>
<text text-anchor="middle" x="2530.5" y="-121.5" font-family="Helvetica,sans-Serif" font-size="10.00">List::removeAt</text>
</a>
</g>
</g>
<!-- Node1&#45;&gt;Node32 -->
<g id="edge49" class="edge">
<title>Node1&#45;&gt;Node32</title>
<path fill="none" stroke="midnightblue" d="M2800.69,-140.71C2742.58,-137.11 2630.11,-130.12 2570.61,-126.43"/>
<polygon fill="midnightblue" stroke="midnightblue" points="2800.68,-144.22 2810.88,-141.35 2801.12,-137.23 2800.68,-144.22"/>
</g>
<!-- Node35 -->
<g id="node35" class="node">
<title>Node35</title>
<g id="a_node35"><a xlink:href="../../d4/da4/class_queue.html#a913c31fd96f7e1e4a607c2b884b7b236" target="_top" xlink:title="Возвращает размер очереди">
<polygon fill="none" stroke="black" points="2673,-76.5 2673,-95.5 2740,-95.5 2740,-76.5 2673,-76.5"/>
<text text-anchor="middle" x="2706.5" y="-83.5" font-family="Helvetica,sans-Serif" font-size="10.00">Queue::size</text>
</a>
</g>
</g>
<!-- Node1&#45;&gt;Node35 -->
<g id="edge50" class="edge">
<title>Node1&#45;&gt;Node35</title>
<path fill="none" stroke="midnightblue" d="M2812.04,-128.49C2800.86,-122.4 2787.46,-115.47 2775,-110 2762.93,-104.7 2749.28,-99.67 2737.43,-95.6"/>
<polygon fill="midnightblue" stroke="midnightblue" points="2810.4,-131.58 2820.85,-133.36 2813.79,-125.46 2810.4,-131.58"/>
</g>
<!-- Node37 -->
<g id="node37" class="node">
<title>Node37</title>
<g id="a_node37"><a xlink:href="../../d0/d14/class_stack.html#afd897bd6ebbb129691666d7c33e7ea09" target="_top" xlink:title="Возвращает размер стека">
<polygon fill="none" stroke="black" points="2674.5,-38.5 2674.5,-57.5 2738.5,-57.5 2738.5,-38.5 2674.5,-38.5"/>
<text text-anchor="middle" x="2706.5" y="-45.5" font-family="Helvetica,sans-Serif" font-size="10.00">Stack::size</text>
</a>
</g>
</g>
<!-- Node1&#45;&gt;Node37 -->
<g id="edge52" class="edge">
<title>Node1&#45;&gt;Node37</title>
<path fill="none" stroke="midnightblue" d="M2827.1,-124.81C2816.26,-107.45 2797.69,-81.82 2775,-67 2764.19,-59.94 2750.77,-55.47 2738.74,-52.66"/>
<polygon fill="midnightblue" stroke="midnightblue" points="2824.16,-126.71 2832.31,-133.48 2830.16,-123.1 2824.16,-126.71"/>
</g>
<!-- Node39 -->
<g id="node39" class="node">
<title>Node39</title>
<g id="a_node39"><a xlink:href="../../d9/d2f/test_list_8cpp.html#a53592e7d9a334ad86b210e95da1b63cf" target="_top" xlink:title="Тест конструктора из размера">
<polygon fill="none" stroke="black" points="2686,-0.5 2686,-19.5 2727,-19.5 2727,-0.5 2686,-0.5"/>
<text text-anchor="middle" x="2706.5" y="-7.5" font-family="Helvetica,sans-Serif" font-size="10.00">TEST</text>
</a>
</g>
</g>
<!-- Node1&#45;&gt;Node39 -->
<g id="edge54" class="edge">
<title>Node1&#45;&gt;Node39</title>
<path fill="none" stroke="midnightblue" d="M2832.1,-123.75C2823.95,-98.27 2806.07,-53.71 2775,-29 2761.28,-18.09 2741.64,-13.44 2727.08,-11.46"/>
<polygon fill="midnightblue" stroke="midnightblue" points="2828.76,-124.82 2835,-133.39 2835.47,-122.8 2828.76,-124.82"/>
</g>
<!-- Node3 -->
<g id="node3" class="node">
<title>Node3</title>
<g id="a_node3"><a xlink:href="../../d0/d0f/test_lexer__1_8cpp.html#a42b988f5ceb814376db8a2df3c933b15" target="_top" xlink:title="Тест разбора простых математических выражений">
<polygon fill="none" stroke="black" points="2510,-439.5 2510,-458.5 2551,-458.5 2551,-439.5 2510,-439.5"/>
<text text-anchor="middle" x="2530.5" y="-446.5" font-family="Helvetica,sans-Serif" font-size="10.00">TEST</text>
</a>
</g>
</g>
<!-- Node2&#45;&gt;Node3 -->
<g id="edge2" class="edge">
<title>Node2&#45;&gt;Node3</title>
<path fill="none" stroke="midnightblue" d="M2654.74,-430.59C2620.07,-435.77 2576.05,-442.34 2551.1,-446.07"/>
<polygon fill="midnightblue" stroke="midnightblue" points="2655.33,-434.04 2664.7,-429.1 2654.3,-427.11 2655.33,-434.04"/>
</g>
<!-- Node5 -->
<g id="node5" class="node">
<title>Node5</title>
<g id="a_node5"><a xlink:href="../../df/d0a/main_8cpp.html#a3c04138a5bfe5d72780bb7e82a18e627" target="_top" xlink:title=" ">
<polygon fill="none" stroke="black" points="2511.5,-401.5 2511.5,-420.5 2549.5,-420.5 2549.5,-401.5 2511.5,-401.5"/>
<text text-anchor="middle" x="2530.5" y="-408.5" font-family="Helvetica,sans-Serif" font-size="10.00">main</text>
</a>
</g>
</g>
<!-- Node4&#45;&gt;Node5 -->
<g id="edge4" class="edge">
<title>Node4&#45;&gt;Node5</title>
<path fill="none" stroke="midnightblue" d="M2670.08,-371.18C2633.63,-381.65 2578.27,-397.56 2549.81,-405.74"/>
<polygon fill="midnightblue" stroke="midnightblue" points="2671.18,-374.5 2679.83,-368.38 2669.25,-367.78 2671.18,-374.5"/>
</g>
<!-- Node7 -->
<g id="node7" class="node">
<title>Node7</title>
<g id="a_node7"><a xlink:href="../../d0/dfe/class_syntax_analyzer.html#a3af9b5161a2cef6fdd26b0bb60334ac4" target="_top" xlink:title=" ">
<polygon fill="none" stroke="black" points="2459,-266.5 2459,-285.5 2602,-285.5 2602,-266.5 2459,-266.5"/>
<text text-anchor="middle" x="2530.5" y="-273.5" font-family="Helvetica,sans-Serif" font-size="10.00">SyntaxAnalyzer::syntaxFactor</text>
</a>
</g>
</g>
<!-- Node6&#45;&gt;Node7 -->
<g id="edge6" class="edge">
<title>Node6&#45;&gt;Node7</title>
<path fill="none" stroke="midnightblue" d="M2627.53,-276C2619.11,-276 2610.58,-276 2602.25,-276"/>
<polygon fill="midnightblue" stroke="midnightblue" points="2627.73,-279.5 2637.73,-276 2627.73,-272.5 2627.73,-279.5"/>
</g>
<!-- Node10 -->
<g id="node10" class="node">
<title>Node10</title>
<g id="a_node10"><a xlink:href="../../d0/dfe/class_syntax_analyzer.html#a7f54bde730006b1b863290415809ab4e" target="_top" xlink:title=" ">
<polygon fill="none" stroke="black" points="1200,-230.5 1200,-249.5 1325,-249.5 1325,-230.5 1200,-230.5"/>
<text text-anchor="middle" x="1262.5" y="-237.5" font-family="Helvetica,sans-Serif" font-size="10.00">SyntaxAnalyzer::syntaxSt</text>
</a>
</g>
</g>
<!-- Node6&#45;&gt;Node10 -->
<g id="edge40" class="edge">
<title>Node6&#45;&gt;Node10</title>
<path fill="none" stroke="midnightblue" d="M2676.42,-289.84C2617.37,-316.64 2478.54,-373 2355.5,-373 2355.5,-373 2355.5,-373 1611.5,-373 1498.14,-373 1462.92,-374.63 1361,-325 1322.24,-306.12 1286.77,-267.75 1271.47,-249.74"/>
<polygon fill="midnightblue" stroke="midnightblue" points="2677.9,-293.01 2685.53,-285.66 2674.98,-286.65 2677.9,-293.01"/>
</g>
<!-- Node7&#45;&gt;Node7 -->
<g id="edge7" class="edge">
<title>Node7&#45;&gt;Node7</title>
<path fill="none" stroke="midnightblue" d="M2563.48,-293.89C2563,-299.54 2552.01,-304 2530.5,-304 2499.22,-304 2490.18,-294.57 2503.37,-285.76"/>
<polygon fill="midnightblue" stroke="midnightblue" points="2566.31,-291.83 2557.63,-285.76 2560.63,-295.92 2566.31,-291.83"/>
</g>
<!-- Node8 -->
<g id="node8" class="node">
<title>Node8</title>
<g id="a_node8"><a xlink:href="../../d0/dfe/class_syntax_analyzer.html#aea3a3d1860938d64edf651bdc4016c04" target="_top" xlink:title=" ">
<polygon fill="none" stroke="black" points="1543,-211.5 1543,-230.5 1682,-230.5 1682,-211.5 1543,-211.5"/>
<text text-anchor="middle" x="1612.5" y="-218.5" font-family="Helvetica,sans-Serif" font-size="10.00">SyntaxAnalyzer::syntaxIterSt</text>
</a>
</g>
</g>
<!-- Node7&#45;&gt;Node8 -->
<g id="edge8" class="edge">
<title>Node7&#45;&gt;Node8</title>
<path fill="none" stroke="midnightblue" d="M2448.67,-266.48C2440.01,-265.58 2431.33,-264.74 2423,-264 2149.11,-239.77 1821.78,-227.48 1682.11,-223.02"/>
<polygon fill="midnightblue" stroke="midnightblue" points="2448.49,-269.98 2458.8,-267.55 2449.22,-263.02 2448.49,-269.98"/>
</g>
<!-- Node21 -->
<g id="node21" class="node">
<title>Node21</title>
<g id="a_node21"><a xlink:href="../../d0/dfe/class_syntax_analyzer.html#a1e9b913cc8c2861927d7c05d10f1822d" target="_top" xlink:title=" ">
<polygon fill="none" stroke="black" points="2286,-285.5 2286,-304.5 2423,-304.5 2423,-285.5 2286,-285.5"/>
<text text-anchor="middle" x="2354.5" y="-292.5" font-family="Helvetica,sans-Serif" font-size="10.00">SyntaxAnalyzer::syntaxTerm</text>
</a>
</g>
</g>
<!-- Node7&#45;&gt;Node21 -->
<g id="edge26" class="edge">
<title>Node7&#45;&gt;Node21</title>
<path fill="none" stroke="midnightblue" d="M2448.88,-284.8C2440.23,-285.75 2431.5,-286.7 2423.02,-287.63"/>
<polygon fill="midnightblue" stroke="midnightblue" points="2449.42,-288.27 2458.98,-283.7 2448.66,-281.31 2449.42,-288.27"/>
</g>
<!-- Node9 -->
<g id="node9" class="node">
<title>Node9</title>
<g id="a_node9"><a xlink:href="../../d0/dfe/class_syntax_analyzer.html#a82e8472ea6d1064871de0d05eaa8b374" target="_top" xlink:title=" ">
<polygon fill="none" stroke="black" points="1361,-211.5 1361,-230.5 1500,-230.5 1500,-211.5 1361,-211.5"/>
<text text-anchor="middle" x="1430.5" y="-218.5" font-family="Helvetica,sans-Serif" font-size="10.00">SyntaxAnalyzer::syntaxForSt</text>
</a>
</g>
</g>
<!-- Node8&#45;&gt;Node9 -->
<g id="edge9" class="edge">
<title>Node8&#45;&gt;Node9</title>
<path fill="none" stroke="midnightblue" d="M1532.65,-221C1521.83,-221 1510.79,-221 1500.17,-221"/>
<polygon fill="midnightblue" stroke="midnightblue" points="1532.94,-224.5 1542.94,-221 1532.94,-217.5 1532.94,-224.5"/>
</g>
<!-- Node9&#45;&gt;Node10 -->
<g id="edge10" class="edge">
<title>Node9&#45;&gt;Node10</title>
<path fill="none" stroke="midnightblue" d="M1350.37,-223.31C1331.96,-225.36 1313.3,-227.88 1298.01,-230.45"/>
<polygon fill="midnightblue" stroke="midnightblue" points="1350.97,-226.77 1360.54,-222.23 1350.23,-219.81 1350.97,-226.77"/>
</g>
<!-- Node10&#45;&gt;Node9 -->
<g id="edge11" class="edge">
<title>Node10&#45;&gt;Node9</title>
<path fill="none" stroke="midnightblue" d="M1335.14,-238.49C1355.95,-236.32 1377.72,-233.46 1395.1,-230.53"/>
<polygon fill="midnightblue" stroke="midnightblue" points="1334.63,-235.03 1325.03,-239.5 1335.33,-241.99 1334.63,-235.03"/>
</g>
<!-- Node11 -->
<g id="node11" class="node">
<title>Node11</title>
<g id="a_node11"><a xlink:href="../../d0/dfe/class_syntax_analyzer.html#a779e006875d35926152773989f4b1e5a" target="_top" xlink:title=" ">
<polygon fill="none" stroke="black" points="1024,-211.5 1024,-230.5 1155,-230.5 1155,-211.5 1024,-211.5"/>
<text text-anchor="middle" x="1089.5" y="-218.5" font-family="Helvetica,sans-Serif" font-size="10.00">SyntaxAnalyzer::syntaxIfSt</text>
</a>
</g>
</g>
<!-- Node10&#45;&gt;Node11 -->
<g id="edge12" class="edge">
<title>Node10&#45;&gt;Node11</title>
<path fill="none" stroke="midnightblue" d="M1216.08,-228.91C1197.45,-226.13 1175.53,-223.52 1155.26,-221.63"/>
<polygon fill="midnightblue" stroke="midnightblue" points="1215.65,-232.39 1226.07,-230.47 1216.73,-225.47 1215.65,-232.39"/>
</g>
<!-- Node12 -->
<g id="node12" class="node">
<title>Node12</title>
<g id="a_node12"><a xlink:href="../../d0/dfe/class_syntax_analyzer.html#a6df61a82ef9de3c17b78be89a321a087" target="_top" xlink:title=" ">
<polygon fill="none" stroke="black" points="1019,-287.5 1019,-306.5 1160,-306.5 1160,-287.5 1019,-287.5"/>
<text text-anchor="middle" x="1089.5" y="-294.5" font-family="Helvetica,sans-Serif" font-size="10.00">SyntaxAnalyzer::syntaxStList</text>
</a>
</g>
</g>
<!-- Node10&#45;&gt;Node12 -->
<g id="edge14" class="edge">
<title>Node10&#45;&gt;Node12</title>
<path fill="none" stroke="midnightblue" d="M1223.77,-252.88C1205.7,-259.02 1183.75,-266.44 1164,-273 1149.48,-277.83 1133.32,-283.12 1119.85,-287.5"/>
<polygon fill="midnightblue" stroke="midnightblue" points="1225.03,-256.14 1233.37,-249.61 1222.77,-249.52 1225.03,-256.14"/>
</g>
<!-- Node20 -->
<g id="node20" class="node">
<title>Node20</title>
<g id="a_node20"><a xlink:href="../../d0/dfe/class_syntax_analyzer.html#a64dad7f0b22b08d182483469d3a1aa79" target="_top" xlink:title=" ">
<polygon fill="none" stroke="black" points="1015,-173.5 1015,-192.5 1164,-192.5 1164,-173.5 1015,-173.5"/>
<text text-anchor="middle" x="1089.5" y="-180.5" font-family="Helvetica,sans-Serif" font-size="10.00">SyntaxAnalyzer::syntaxWhileSt</text>
</a>
</g>
</g>
<!-- Node10&#45;&gt;Node20 -->
<g id="edge24" class="edge">
<title>Node10&#45;&gt;Node20</title>
<path fill="none" stroke="midnightblue" d="M1242.93,-225.27C1223.49,-214.81 1191.95,-202.02 1164,-193 1163.5,-192.84 1162.99,-192.68 1162.49,-192.52"/>
<polygon fill="midnightblue" stroke="midnightblue" points="1241.27,-228.35 1251.67,-230.34 1244.78,-222.3 1241.27,-228.35"/>
</g>
<!-- Node11&#45;&gt;Node10 -->
<g id="edge13" class="edge">
<title>Node11&#45;&gt;Node10</title>
<path fill="none" stroke="midnightblue" d="M1135.67,-232.05C1155.29,-234.98 1178.58,-237.73 1199.77,-239.65"/>
<polygon fill="midnightblue" stroke="midnightblue" points="1136.2,-228.59 1125.78,-230.5 1135.11,-235.51 1136.2,-228.59"/>
</g>
<!-- Node13 -->
<g id="node13" class="node">
<title>Node13</title>
<g id="a_node13"><a xlink:href="../../d0/dfe/class_syntax_analyzer.html#a5770afdc4d32d2c38550f27f9ffd949a" target="_top" xlink:title=" ">
<polygon fill="none" stroke="black" points="808,-268.5 808,-287.5 979,-287.5 979,-268.5 808,-268.5"/>
<text text-anchor="middle" x="893.5" y="-275.5" font-family="Helvetica,sans-Serif" font-size="10.00">SyntaxAnalyzer::syntaxCompoundSt</text>
</a>
</g>
</g>
<!-- Node12&#45;&gt;Node13 -->
<g id="edge15" class="edge">
<title>Node12&#45;&gt;Node13</title>
<path fill="none" stroke="midnightblue" d="M1008.7,-289.18C998.97,-288.23 989.01,-287.26 979.21,-286.3"/>
<polygon fill="midnightblue" stroke="midnightblue" points="1008.44,-292.68 1018.74,-290.17 1009.12,-285.71 1008.44,-292.68"/>
</g>
<!-- Node13&#45;&gt;Node10 -->
<g id="edge23" class="edge">
<title>Node13&#45;&gt;Node10</title>
<path fill="none" stroke="midnightblue" d="M989.36,-268.18C1055.61,-261.32 1142.14,-252.36 1199.66,-246.4"/>
<polygon fill="midnightblue" stroke="midnightblue" points="988.91,-264.71 979.32,-269.22 989.63,-271.67 988.91,-264.71"/>
</g>
<!-- Node14 -->
<g id="node14" class="node">
<title>Node14</title>
<g id="a_node14"><a xlink:href="../../d0/dfe/class_syntax_analyzer.html#a2b54bac50e114b68e83c80d869b6ac7c" target="_top" xlink:title=" ">
<polygon fill="none" stroke="black" points="632,-268.5 632,-287.5 772,-287.5 772,-268.5 632,-268.5"/>
<text text-anchor="middle" x="702" y="-275.5" font-family="Helvetica,sans-Serif" font-size="10.00">SyntaxAnalyzer::syntaxBlock</text>
</a>
</g>
</g>
<!-- Node13&#45;&gt;Node14 -->
<g id="edge16" class="edge">
<title>Node13&#45;&gt;Node14</title>
<path fill="none" stroke="midnightblue" d="M797.63,-278C789.02,-278 780.41,-278 772.08,-278"/>
<polygon fill="midnightblue" stroke="midnightblue" points="797.73,-281.5 807.73,-278 797.73,-274.5 797.73,-281.5"/>
</g>
<!-- Node15 -->
<g id="node15" class="node">
<title>Node15</title>
<g id="a_node15"><a xlink:href="../../d0/dfe/class_syntax_analyzer.html#ae04232a95c6423677e600927c82851e4" target="_top" xlink:title=" ">
<polygon fill="none" stroke="black" points="444,-249.5 444,-268.5 596,-268.5 596,-249.5 444,-249.5"/>
<text text-anchor="middle" x="520" y="-256.5" font-family="Helvetica,sans-Serif" font-size="10.00">SyntaxAnalyzer::syntaxFuncDef</text>
</a>
</g>
</g>
<!-- Node14&#45;&gt;Node15 -->
<g id="edge17" class="edge">
<title>Node14&#45;&gt;Node15</title>
<path fill="none" stroke="midnightblue" d="M621.95,-269.66C613.39,-268.75 604.69,-267.83 596.18,-266.94"/>
<polygon fill="midnightblue" stroke="midnightblue" points="621.61,-273.14 631.92,-270.71 622.34,-266.18 621.61,-273.14"/>
</g>
<!-- Node16 -->
<g id="node16" class="node">
<title>Node16</title>
<g id="a_node16"><a xlink:href="../../d0/dfe/class_syntax_analyzer.html#a8b337bd5b4a90cd5bd804a936e408e4b" target="_top" xlink:title=" ">
<polygon fill="none" stroke="black" points="256,-268.5 256,-287.5 408,-287.5 408,-268.5 256,-268.5"/>
<text text-anchor="middle" x="332" y="-275.5" font-family="Helvetica,sans-Serif" font-size="10.00">SyntaxAnalyzer::syntaxProgram</text>
</a>
</g>
</g>
<!-- Node14&#45;&gt;Node16 -->
<g id="edge22" class="edge">
<title>Node14&#45;&gt;Node16</title>
<path fill="none" stroke="midnightblue" d="M621.46,-278C558.21,-278 470.34,-278 408.24,-278"/>
<polygon fill="midnightblue" stroke="midnightblue" points="621.78,-281.5 631.78,-278 621.78,-274.5 621.78,-281.5"/>
</g>
<!-- Node15&#45;&gt;Node16 -->
<g id="edge18" class="edge">
<title>Node15&#45;&gt;Node16</title>
<path fill="none" stroke="midnightblue" d="M433.85,-267.7C425.26,-268.58 416.57,-269.46 408.1,-270.33"/>
<polygon fill="midnightblue" stroke="midnightblue" points="434.29,-271.17 443.88,-266.67 433.58,-264.21 434.29,-271.17"/>
</g>
<!-- Node17 -->
<g id="node17" class="node">
<title>Node17</title>
<g id="a_node17"><a xlink:href="../../d0/dfe/class_syntax_analyzer.html#a96cd5f6a041dae613d1c75175e26592e" target="_top" xlink:title=" ">
<polygon fill="none" stroke="black" points="77,-268.5 77,-287.5 220,-287.5 220,-268.5 77,-268.5"/>
<text text-anchor="middle" x="148.5" y="-275.5" font-family="Helvetica,sans-Serif" font-size="10.00">SyntaxAnalyzer::parseTokens</text>
</a>
</g>
</g>
<!-- Node16&#45;&gt;Node17 -->
<g id="edge19" class="edge">
<title>Node16&#45;&gt;Node17</title>
<path fill="none" stroke="midnightblue" d="M245.84,-278C237.26,-278 228.61,-278 220.21,-278"/>
<polygon fill="midnightblue" stroke="midnightblue" points="245.87,-281.5 255.87,-278 245.87,-274.5 245.87,-281.5"/>
</g>
<!-- Node18 -->
<g id="node18" class="node">
<title>Node18</title>
<g id="a_node18"><a xlink:href="../../d3/db4/graph_draw_8cpp.html#a3c04138a5bfe5d72780bb7e82a18e627" target="_top" xlink:title=" ">
<polygon fill="none" stroke="black" points="1.5,-287.5 1.5,-306.5 39.5,-306.5 39.5,-287.5 1.5,-287.5"/>
<text text-anchor="middle" x="20.5" y="-294.5" font-family="Helvetica,sans-Serif" font-size="10.00">main</text>
</a>
</g>
</g>
<!-- Node17&#45;&gt;Node18 -->
<g id="edge20" class="edge">
<title>Node17&#45;&gt;Node18</title>
<path fill="none" stroke="midnightblue" d="M74.24,-289.05C61.4,-290.98 49.15,-292.83 39.69,-294.26"/>
<polygon fill="midnightblue" stroke="midnightblue" points="74.76,-292.51 84.13,-287.56 73.72,-285.59 74.76,-292.51"/>
</g>
<!-- Node19 -->
<g id="node19" class="node">
<title>Node19</title>
<g id="a_node19"><a xlink:href="../../dd/de9/test_syntax_8cpp.html#ac491df98e51a6bba8b808af414b6614f" target="_top" xlink:title="Тест синтаксического анализа Паскаля, простой тест">
<polygon fill="none" stroke="black" points="0,-249.5 0,-268.5 41,-268.5 41,-249.5 0,-249.5"/>
<text text-anchor="middle" x="20.5" y="-256.5" font-family="Helvetica,sans-Serif" font-size="10.00">TEST</text>
</a>
</g>
</g>
<!-- Node17&#45;&gt;Node19 -->
<g id="edge21" class="edge">
<title>Node17&#45;&gt;Node19</title>
<path fill="none" stroke="midnightblue" d="M73.88,-266.9C61.78,-265.07 50.22,-263.33 41.05,-261.95"/>
<polygon fill="midnightblue" stroke="midnightblue" points="73.72,-270.41 84.13,-268.44 74.76,-263.49 73.72,-270.41"/>
</g>
<!-- Node20&#45;&gt;Node10 -->
<g id="edge25" class="edge">
<title>Node20&#45;&gt;Node10</title>
<path fill="none" stroke="midnightblue" d="M1113.62,-195.98C1128.2,-200.71 1147.35,-205.62 1164,-211 1182.15,-216.86 1201.82,-224.31 1218.7,-230.43"/>
<polygon fill="midnightblue" stroke="midnightblue" points="1114.51,-192.58 1103.91,-192.55 1112.18,-199.18 1114.51,-192.58"/>
</g>
<!-- Node22 -->
<g id="node22" class="node">
<title>Node22</title>
<g id="a_node22"><a xlink:href="../../d0/dfe/class_syntax_analyzer.html#a3dfb6634a4bcdc61da5b1bafd1f3d136" target="_top" xlink:title=" ">
<polygon fill="none" stroke="black" points="2086,-285.5 2086,-304.5 2250,-304.5 2250,-285.5 2086,-285.5"/>
<text text-anchor="middle" x="2168" y="-292.5" font-family="Helvetica,sans-Serif" font-size="10.00">SyntaxAnalyzer::syntaxSimpleExpr</text>
</a>
</g>
</g>
<!-- Node21&#45;&gt;Node22 -->
<g id="edge27" class="edge">
<title>Node21&#45;&gt;Node22</title>
<path fill="none" stroke="midnightblue" d="M2275.65,-295C2267.2,-295 2258.59,-295 2250.11,-295"/>
<polygon fill="midnightblue" stroke="midnightblue" points="2275.85,-298.5 2285.85,-295 2275.85,-291.5 2275.85,-298.5"/>
</g>
<!-- Node23 -->
<g id="node23" class="node">
<title>Node23</title>
<g id="a_node23"><a xlink:href="../../d0/dfe/class_syntax_analyzer.html#ae8d09db1b25ec882248aeed978c13a4d" target="_top" xlink:title=" ">
<polygon fill="none" stroke="black" points="1916,-249.5 1916,-268.5 2050,-268.5 2050,-249.5 1916,-249.5"/>
<text text-anchor="middle" x="1983" y="-256.5" font-family="Helvetica,sans-Serif" font-size="10.00">SyntaxAnalyzer::syntaxExpr</text>
</a>
</g>
</g>
<!-- Node22&#45;&gt;Node23 -->
<g id="edge28" class="edge">
<title>Node22&#45;&gt;Node23</title>
<path fill="none" stroke="midnightblue" d="M2108.53,-283.5C2084,-278.67 2055.82,-273.13 2032.47,-268.53"/>
<polygon fill="midnightblue" stroke="midnightblue" points="2107.95,-286.95 2118.44,-285.45 2109.3,-280.08 2107.95,-286.95"/>
</g>
<!-- Node23&#45;&gt;Node7 -->
<g id="edge35" class="edge">
<title>Node23&#45;&gt;Node7</title>
<path fill="none" stroke="midnightblue" d="M2060.65,-261.39C2166.54,-264.69 2356.08,-270.6 2458.74,-273.79"/>
<polygon fill="midnightblue" stroke="midnightblue" points="2060.46,-257.88 2050.36,-261.07 2060.25,-264.88 2060.46,-257.88"/>
</g>
<!-- Node23&#45;&gt;Node11 -->
<g id="edge36" class="edge">
<title>Node23&#45;&gt;Node11</title>
<path fill="none" stroke="midnightblue" d="M1934.99,-246.95C1877.45,-232.89 1776.83,-210.46 1689,-202 1543.89,-188.02 1506.69,-196.89 1361,-202 1290.54,-204.47 1209.96,-210.55 1155.2,-215.18"/>
<polygon fill="midnightblue" stroke="midnightblue" points="1934.33,-250.4 1944.87,-249.39 1936,-243.6 1934.33,-250.4"/>
</g>
<!-- Node23&#45;&gt;Node20 -->
<g id="edge39" class="edge">
<title>Node23&#45;&gt;Node20</title>
<path fill="none" stroke="midnightblue" d="M1959.71,-243.96C1939.66,-231.07 1908.97,-212.91 1880,-202 1766.65,-159.31 1734.62,-145 1613.5,-145 1613.5,-145 1613.5,-145 1429.5,-145 1327.49,-145 1209.28,-162.2 1142.85,-173.46"/>
<polygon fill="midnightblue" stroke="midnightblue" points="1957.85,-246.92 1968.13,-249.47 1961.68,-241.06 1957.85,-246.92"/>
</g>
<!-- Node24 -->
<g id="node24" class="node">
<title>Node24</title>
<g id="a_node24"><a xlink:href="../../d0/dfe/class_syntax_analyzer.html#a31fc5887c158652feb946f89270b4b36" target="_top" xlink:title=" ">
<polygon fill="none" stroke="black" points="1725,-249.5 1725,-268.5 1880,-268.5 1880,-249.5 1725,-249.5"/>
<text text-anchor="middle" x="1802.5" y="-256.5" font-family="Helvetica,sans-Serif" font-size="10.00">SyntaxAnalyzer::syntaxAssignSt</text>
</a>
</g>
</g>
<!-- Node23&#45;&gt;Node24 -->
<g id="edge29" class="edge">
<title>Node23&#45;&gt;Node24</title>
<path fill="none" stroke="midnightblue" d="M1905.6,-259C1897.17,-259 1888.58,-259 1880.15,-259"/>
<polygon fill="midnightblue" stroke="midnightblue" points="1905.79,-262.5 1915.79,-259 1905.79,-255.5 1905.79,-262.5"/>
</g>
<!-- Node25 -->
<g id="node25" class="node">
<title>Node25</title>
<g id="a_node25"><a xlink:href="../../d0/dfe/class_syntax_analyzer.html#a2db43946bee3e973ce1cf293b262e271" target="_top" xlink:title=" ">
<polygon fill="none" stroke="black" points="1732,-325.5 1732,-344.5 1873,-344.5 1873,-325.5 1732,-325.5"/>
<text text-anchor="middle" x="1802.5" y="-332.5" font-family="Helvetica,sans-Serif" font-size="10.00">SyntaxAnalyzer::syntaxCallSt</text>
</a>
</g>
</g>
<!-- Node23&#45;&gt;Node25 -->
<g id="edge32" class="edge">
<title>Node23&#45;&gt;Node25</title>
<path fill="none" stroke="midnightblue" d="M1956.52,-273.5C1936.22,-284.68 1906.85,-300.04 1880,-311 1866.6,-316.47 1851.46,-321.46 1838.21,-325.45"/>
<polygon fill="midnightblue" stroke="midnightblue" points="1958.41,-276.46 1965.44,-268.53 1955,-270.34 1958.41,-276.46"/>
</g>
<!-- Node26 -->
<g id="node26" class="node">
<title>Node26</title>
<g id="a_node26"><a xlink:href="../../d0/dfe/class_syntax_analyzer.html#a55e935b2aa7f20b66e9228e977582fcd" target="_top" xlink:title=" ">
<polygon fill="none" stroke="black" points="1536,-287.5 1536,-306.5 1689,-306.5 1689,-287.5 1536,-287.5"/>
<text text-anchor="middle" x="1612.5" y="-294.5" font-family="Helvetica,sans-Serif" font-size="10.00">SyntaxAnalyzer::syntaxReturnSt</text>
</a>
</g>
</g>
<!-- Node23&#45;&gt;Node26 -->
<g id="edge37" class="edge">
<title>Node23&#45;&gt;Node26</title>
<path fill="none" stroke="midnightblue" d="M1926.76,-270.47C1911.65,-273.28 1895.24,-276.04 1880,-278 1815.93,-286.22 1742.71,-291.12 1689.25,-293.88"/>
<polygon fill="midnightblue" stroke="midnightblue" points="1927.81,-273.83 1936.98,-268.52 1926.5,-266.95 1927.81,-273.83"/>
</g>
<!-- Node24&#45;&gt;Node8 -->
<g id="edge30" class="edge">
<title>Node24&#45;&gt;Node8</title>
<path fill="none" stroke="midnightblue" d="M1744.06,-247.39C1717.33,-241.99 1685.91,-235.64 1660.6,-230.52"/>
<polygon fill="midnightblue" stroke="midnightblue" points="1743.56,-250.86 1754.06,-249.41 1744.95,-244 1743.56,-250.86"/>
</g>
<!-- Node24&#45;&gt;Node10 -->
<g id="edge31" class="edge">
<title>Node24&#45;&gt;Node10</title>
<path fill="none" stroke="midnightblue" d="M1714.67,-255.93C1605.5,-252.08 1420.84,-245.56 1325.13,-242.18"/>
<polygon fill="midnightblue" stroke="midnightblue" points="1714.87,-259.44 1724.99,-256.3 1715.12,-252.45 1714.87,-259.44"/>
</g>
<!-- Node25&#45;&gt;Node7 -->
<g id="edge33" class="edge">
<title>Node25&#45;&gt;Node7</title>
<path fill="none" stroke="midnightblue" d="M1883.12,-340.06C2001.89,-345.88 2231.94,-350.41 2423,-314 2453.85,-308.12 2487.74,-294.75 2508.82,-285.54"/>
<polygon fill="midnightblue" stroke="midnightblue" points="1883.19,-336.56 1873.02,-339.55 1882.83,-343.55 1883.19,-336.56"/>
</g>
<!-- Node25&#45;&gt;Node10 -->
<g id="edge34" class="edge">
<title>Node25&#45;&gt;Node10</title>
<path fill="none" stroke="midnightblue" d="M1721.5,-338.68C1631.52,-340.39 1482.15,-335.82 1361,-296 1328.18,-285.21 1294.13,-262.57 1276.25,-249.62"/>
<polygon fill="midnightblue" stroke="midnightblue" points="1721.71,-342.18 1731.63,-338.46 1721.56,-335.18 1721.71,-342.18"/>
</g>
<!-- Node26&#45;&gt;Node10 -->
<g id="edge38" class="edge">
<title>Node26&#45;&gt;Node10</title>
<path fill="none" stroke="midnightblue" d="M1525.81,-293.69C1477.07,-290.59 1415.14,-284.59 1361,-273 1334.96,-267.42 1306.21,-257.16 1286.71,-249.55"/>
<polygon fill="midnightblue" stroke="midnightblue" points="1525.8,-297.2 1536,-294.31 1526.23,-290.21 1525.8,-297.2"/>
</g>
<!-- Node28 -->
<g id="node28" class="node">
<title>Node28</title>
<g id="a_node28"><a xlink:href="../../d1/d34/class_list.html#a4d4612ce942a94cf46978587fc7943dd" target="_top" xlink:title="очищает память, выделенную под узлы списка">
<polygon fill="none" stroke="black" points="2501,-152.5 2501,-171.5 2560,-171.5 2560,-152.5 2501,-152.5"/>
<text text-anchor="middle" x="2530.5" y="-159.5" font-family="Helvetica,sans-Serif" font-size="10.00">List::clear</text>
</a>
</g>
</g>
<!-- Node27&#45;&gt;Node28 -->
<g id="edge42" class="edge">
<title>Node27&#45;&gt;Node28</title>
<path fill="none" stroke="midnightblue" d="M2657.92,-162C2626.62,-162 2586.68,-162 2560.16,-162"/>
<polygon fill="midnightblue" stroke="midnightblue" points="2658.17,-165.5 2668.17,-162 2658.17,-158.5 2658.17,-165.5"/>
</g>
<!-- Node27&#45;&gt;Node32 -->
<g id="edge46" class="edge">
<title>Node27&#45;&gt;Node32</title>
<path fill="none" stroke="midnightblue" d="M2658.37,-151.71C2630.87,-145.7 2596.57,-138.21 2570.58,-132.53"/>
<polygon fill="midnightblue" stroke="midnightblue" points="2657.66,-155.13 2668.17,-153.85 2659.15,-148.29 2657.66,-155.13"/>
</g>
<!-- Node34 -->
<g id="node34" class="node">
<title>Node34</title>
<g id="a_node34"><a xlink:href="../../d9/d2f/test_list_8cpp.html#a744706668fa4ed42a12207ac119c3965" target="_top" xlink:title="Тест размера после удаления из конца">
<polygon fill="none" stroke="black" points="2510,-190.5 2510,-209.5 2551,-209.5 2551,-190.5 2510,-190.5"/>
<text text-anchor="middle" x="2530.5" y="-197.5" font-family="Helvetica,sans-Serif" font-size="10.00">TEST</text>
</a>
</g>
</g>
<!-- Node27&#45;&gt;Node34 -->
<g id="edge48" class="edge">
<title>Node27&#45;&gt;Node34</title>
<path fill="none" stroke="midnightblue" d="M2658.16,-172.34C2623.17,-179.98 2577.3,-190 2551.45,-195.64"/>
<polygon fill="midnightblue" stroke="midnightblue" points="2659.15,-175.71 2668.17,-170.15 2657.66,-168.87 2659.15,-175.71"/>
</g>
<!-- Node29 -->
<g id="node29" class="node">
<title>Node29</title>
<g id="a_node29"><a xlink:href="../../d1/d34/class_list.html#a18f2ee8a1d7f0e262070efc561a81bfb" target="_top" xlink:title="Конструктор из другого списка">
<polygon fill="none" stroke="black" points="2327.5,-152.5 2327.5,-171.5 2381.5,-171.5 2381.5,-152.5 2327.5,-152.5"/>
<text text-anchor="middle" x="2354.5" y="-159.5" font-family="Helvetica,sans-Serif" font-size="10.00">List::List</text>
</a>
</g>
</g>
<!-- Node28&#45;&gt;Node29 -->
<g id="edge43" class="edge">
<title>Node28&#45;&gt;Node29</title>
<path fill="none" stroke="midnightblue" d="M2490.51,-162C2457.33,-162 2410.59,-162 2381.71,-162"/>
<polygon fill="midnightblue" stroke="midnightblue" points="2490.77,-165.5 2500.77,-162 2490.77,-158.5 2490.77,-165.5"/>
</g>
<!-- Node30 -->
<g id="node30" class="node">
<title>Node30</title>
<g id="a_node30"><a xlink:href="../../d1/d34/class_list.html#afb55438b3b6d88e618481384e2bdd40e" target="_top" xlink:title=" ">
<polygon fill="none" stroke="black" points="2315,-114.5 2315,-133.5 2394,-133.5 2394,-114.5 2315,-114.5"/>
<text text-anchor="middle" x="2354.5" y="-121.5" font-family="Helvetica,sans-Serif" font-size="10.00">List::operator=</text>
</a>
</g>
</g>
<!-- Node28&#45;&gt;Node30 -->
<g id="edge44" class="edge">
<title>Node28&#45;&gt;Node30</title>
<path fill="none" stroke="midnightblue" d="M2490.66,-153.52C2461.86,-147.23 2422.79,-138.69 2394.06,-132.42"/>
<polygon fill="midnightblue" stroke="midnightblue" points="2490.25,-157.01 2500.77,-155.73 2491.74,-150.17 2490.25,-157.01"/>
</g>
<!-- Node31 -->
<g id="node31" class="node">
<title>Node31</title>
<g id="a_node31"><a xlink:href="../../d1/d34/class_list.html#a2b58189090f6e5ce52939c9195e59e85" target="_top" xlink:title="Деструктор">
<polygon fill="none" stroke="black" points="2325,-76.5 2325,-95.5 2384,-95.5 2384,-76.5 2325,-76.5"/>
<text text-anchor="middle" x="2354.5" y="-83.5" font-family="Helvetica,sans-Serif" font-size="10.00">List::~List</text>
</a>
</g>
</g>
<!-- Node28&#45;&gt;Node31 -->
<g id="edge45" class="edge">
<title>Node28&#45;&gt;Node31</title>
<path fill="none" stroke="midnightblue" d="M2491.22,-155.73C2480.31,-152.89 2468.75,-148.82 2459,-143 2439.02,-131.08 2442.91,-117.03 2423,-105 2411.22,-97.89 2396.69,-93.35 2384.13,-90.5"/>
<polygon fill="midnightblue" stroke="midnightblue" points="2490.45,-159.14 2500.98,-158 2492.04,-152.32 2490.45,-159.14"/>
</g>
<!-- Node33 -->
<g id="node33" class="node">
<title>Node33</title>
<g id="a_node33"><a xlink:href="../../d9/d2f/test_list_8cpp.html#afbc53743ea2ceea766182ca473dde64b" target="_top" xlink:title="Тест размера списка после удаления">
<polygon fill="none" stroke="black" points="2334,-38.5 2334,-57.5 2375,-57.5 2375,-38.5 2334,-38.5"/>
<text text-anchor="middle" x="2354.5" y="-45.5" font-family="Helvetica,sans-Serif" font-size="10.00">TEST</text>
</a>
</g>
</g>
<!-- Node32&#45;&gt;Node33 -->
<g id="edge47" class="edge">
<title>Node32&#45;&gt;Node33</title>
<path fill="none" stroke="midnightblue" d="M2480.47,-114.55C2473,-112.06 2465.59,-108.93 2459,-105 2439.02,-93.08 2442.91,-79.03 2423,-67 2408.31,-58.12 2389.32,-53.26 2375.23,-50.68"/>
<polygon fill="midnightblue" stroke="midnightblue" points="2479.69,-117.97 2490.28,-117.48 2481.69,-111.27 2479.69,-117.97"/>
</g>
<!-- Node36 -->
<g id="node36" class="node">
<title>Node36</title>
<g id="a_node36"><a xlink:href="../../d1/ddc/test_queue_8cpp.html#a4c587fd9d2cb75d2710ff2a2b06e5a28" target="_top" xlink:title="Тест вставки">
<polygon fill="none" stroke="black" points="2510,-76.5 2510,-95.5 2551,-95.5 2551,-76.5 2510,-76.5"/>
<text text-anchor="middle" x="2530.5" y="-83.5" font-family="Helvetica,sans-Serif" font-size="10.00">TEST</text>
</a>
</g>
</g>
<!-- Node35&#45;&gt;Node36 -->
<g id="edge51" class="edge">
<title>Node35&#45;&gt;Node36</title>
<path fill="none" stroke="midnightblue" d="M2662.65,-86C2627.04,-86 2578,-86 2551.11,-86"/>
<polygon fill="midnightblue" stroke="midnightblue" points="2662.77,-89.5 2672.77,-86 2662.77,-82.5 2662.77,-89.5"/>
</g>
<!-- Node38 -->
<g id="node38" class="node">
<title>Node38</title>
<g id="a_node38"><a xlink:href="../../d9/df1/test_stack_8cpp.html#ae47a79e650f9708a927b0cf6e480cfe2" target="_top" xlink:title="Тест вставки">
<polygon fill="none" stroke="black" points="2510,-38.5 2510,-57.5 2551,-57.5 2551,-38.5 2510,-38.5"/>
<text text-anchor="middle" x="2530.5" y="-45.5" font-family="Helvetica,sans-Serif" font-size="10.00">TEST</text>
</a>
</g>
</g>
<!-- Node37&#45;&gt;Node38 -->
<g id="edge53" class="edge">
<title>Node37&#45;&gt;Node38</title>
<path fill="none" stroke="midnightblue" d="M2664.26,-48C2628.48,-48 2578.28,-48 2551,-48"/>
<polygon fill="midnightblue" stroke="midnightblue" points="2664.39,-51.5 2674.39,-48 2664.39,-44.5 2664.39,-51.5"/>
</g>
</g>
</svg>
