<?xml version="1.0" encoding="UTF-8" standalone="no"?>
<!DOCTYPE svg PUBLIC "-//W3C//DTD SVG 1.1//EN"
 "http://www.w3.org/Graphics/SVG/1.1/DTD/svg11.dtd">
<!-- Generated by graphviz version 2.43.0 (0)
 -->
<!-- Title: List::operator= Pages: 1 -->
<svg width="473pt" height="66pt"
 viewBox="0.00 0.00 473.00 66.00" xmlns="http://www.w3.org/2000/svg" xmlns:xlink="http://www.w3.org/1999/xlink">
<g id="graph0" class="graph" transform="scale(1 1) rotate(0) translate(4 62)">
<title>List::operator=</title>
<!-- Node1 -->
<g id="node1" class="node">
<title>Node1</title>
<g id="a_node1"><a xlink:title=" ">
<polygon fill="#bfbfbf" stroke="black" points="0,-19.5 0,-38.5 89,-38.5 89,-19.5 0,-19.5"/>
<text text-anchor="middle" x="44.5" y="-26.5" font-family="Helvetica,sans-Serif" font-size="10.00">List::operator=</text>
</a>
</g>
</g>
<!-- Node2 -->
<g id="node2" class="node">
<title>Node2</title>
<g id="a_node2"><a xlink:href="../../d1/d34/class_list.html#ab130f4e1fe1c3fee570cf06f144d4154" target="_top" xlink:title="очищает память, выделенную под узлы списка">
<polygon fill="none" stroke="black" points="136.5,-38.5 136.5,-57.5 200.5,-57.5 200.5,-38.5 136.5,-38.5"/>
<text text-anchor="middle" x="168.5" y="-45.5" font-family="Helvetica,sans-Serif" font-size="10.00">List::clear</text>
</a>
</g>
</g>
<!-- Node1&#45;&gt;Node2 -->
<g id="edge1" class="edge">
<title>Node1&#45;&gt;Node2</title>
<path fill="none" stroke="midnightblue" d="M89.2,-35.81C101.26,-37.68 114.3,-39.71 126.21,-41.57"/>
<polygon fill="midnightblue" stroke="midnightblue" points="125.92,-45.07 136.34,-43.15 127,-38.15 125.92,-45.07"/>
</g>
<!-- Node5 -->
<g id="node5" class="node">
<title>Node5</title>
<g id="a_node5"><a xlink:href="../../d1/d34/class_list.html#a0c471cf5c09edf2dcbdf1f37cac53e45" target="_top" xlink:title="Вставка в конец списка">
<polygon fill="none" stroke="black" points="125,-0.5 125,-19.5 212,-19.5 212,-0.5 125,-0.5"/>
<text text-anchor="middle" x="168.5" y="-7.5" font-family="Helvetica,sans-Serif" font-size="10.00">List::pushBack</text>
</a>
</g>
</g>
<!-- Node1&#45;&gt;Node5 -->
<g id="edge4" class="edge">
<title>Node1&#45;&gt;Node5</title>
<path fill="none" stroke="midnightblue" d="M89.2,-22.19C97.55,-20.89 106.38,-19.52 114.98,-18.18"/>
<polygon fill="midnightblue" stroke="midnightblue" points="115.58,-21.63 124.92,-16.63 114.5,-14.71 115.58,-21.63"/>
</g>
<!-- Node3 -->
<g id="node3" class="node">
<title>Node3</title>
<g id="a_node3"><a xlink:href="../../d1/d34/class_list.html#afde529b40dee618ee58faf1414b7be8c" target="_top" xlink:title="Удаление из конца списка">
<polygon fill="none" stroke="black" points="268,-38.5 268,-57.5 350,-57.5 350,-38.5 268,-38.5"/>
<text text-anchor="middle" x="309" y="-45.5" font-family="Helvetica,sans-Serif" font-size="10.00">List::popBack</text>
</a>
</g>
</g>
<!-- Node2&#45;&gt;Node3 -->
<g id="edge2" class="edge">
<title>Node2&#45;&gt;Node3</title>
<path fill="none" stroke="midnightblue" d="M200.58,-48C217.42,-48 238.63,-48 257.74,-48"/>
<polygon fill="midnightblue" stroke="midnightblue" points="257.81,-51.5 267.81,-48 257.81,-44.5 257.81,-51.5"/>
</g>
<!-- Node4 -->
<g id="node4" class="node">
<title>Node4</title>
<g id="a_node4"><a xlink:href="../../d1/d34/class_list.html#a49c179636e084dfbf7a52acd46acaf01" target="_top" xlink:title=" ">
<polygon fill="none" stroke="black" points="406,-38.5 406,-57.5 465,-57.5 465,-38.5 406,-38.5"/>
<text text-anchor="middle" x="435.5" y="-45.5" font-family="Helvetica,sans-Serif" font-size="10.00">List::size</text>
</a>
</g>
</g>
<!-- Node3&#45;&gt;Node4 -->
<g id="edge3" class="edge">
<title>Node3&#45;&gt;Node4</title>
<path fill="none" stroke="midnightblue" d="M350.08,-48C364.72,-48 381.25,-48 395.77,-48"/>
<polygon fill="midnightblue" stroke="midnightblue" points="395.94,-51.5 405.94,-48 395.94,-44.5 395.94,-51.5"/>
</g>
<!-- Node6 -->
<g id="node6" class="node">
<title>Node6</title>
<g id="a_node6"><a xlink:href="../../dc/d8f/class_node.html#a5f29dc4844746c7e7780933173d31a4a" target="_top" xlink:title="Присоединяет узел pNext в качестве следующего узла">
<polygon fill="none" stroke="black" points="248,-0.5 248,-19.5 370,-19.5 370,-0.5 248,-0.5"/>
<text text-anchor="middle" x="309" y="-7.5" font-family="Helvetica,sans-Serif" font-size="10.00">Node::connectAsNext</text>
</a>
</g>
</g>
<!-- Node5&#45;&gt;Node6 -->
<g id="edge5" class="edge">
<title>Node5&#45;&gt;Node6</title>
<path fill="none" stroke="midnightblue" d="M212.18,-10C220.3,-10 228.98,-10 237.69,-10"/>
<polygon fill="midnightblue" stroke="midnightblue" points="237.89,-13.5 247.89,-10 237.89,-6.5 237.89,-13.5"/>
</g>
</g>
</svg>
