<?xml version="1.0" encoding="UTF-8" standalone="no"?>
<!DOCTYPE svg PUBLIC "-//W3C//DTD SVG 1.1//EN"
 "http://www.w3.org/Graphics/SVG/1.1/DTD/svg11.dtd">
<!-- Generated by graphviz version 3.0.0 (20220413.0106)
 -->
<!-- Title: List::pushBack Pages: 1 -->
<svg width="464pt" height="218pt"
 viewBox="0.00 0.00 464.00 218.00" xmlns="http://www.w3.org/2000/svg" xmlns:xlink="http://www.w3.org/1999/xlink">
<g id="graph0" class="graph" transform="scale(1 1) rotate(0) translate(4 214)">
<title>List::pushBack</title>
<!-- Node1 -->
<g id="node1" class="node">
<title>Node1</title>
<g id="a_node1"><a xlink:title="Вставка в конец списка">
<polygon fill="#bfbfbf" stroke="black" points="375,-95.5 375,-114.5 456,-114.5 456,-95.5 375,-95.5"/>
<text text-anchor="middle" x="415.5" y="-102.5" font-family="Helvetica,sans-Serif" font-size="10.00">List::pushBack</text>
</a>
</g>
</g>
<!-- Node2 -->
<g id="node2" class="node">
<title>Node2</title>
<g id="a_node2"><a xlink:href="../../da/d5a/class_lexer.html#a631e3b1ed369600a9c0b05fe568255f1" target="_top" xlink:title="Добавляет в шаблоны для определения токена новый шаблон">
<polygon fill="none" stroke="black" points="216,-190.5 216,-209.5 329,-209.5 329,-190.5 216,-190.5"/>
<text text-anchor="middle" x="272.5" y="-197.5" font-family="Helvetica,sans-Serif" font-size="10.00">Lexer::addTokenTemp</text>
</a>
</g>
</g>
<!-- Node1&#45;&gt;Node2 -->
<g id="edge1" class="edge">
<title>Node1&#45;&gt;Node2</title>
<path fill="none" stroke="midnightblue" d="M401.21,-122.89C387.47,-140.17 364.47,-165.89 339,-181 332.48,-184.87 325.13,-187.99 317.77,-190.49"/>
<polygon fill="midnightblue" stroke="midnightblue" points="404.18,-124.77 407.52,-114.72 398.64,-120.49 404.18,-124.77"/>
</g>
<!-- Node3 -->
<g id="node3" class="node">
<title>Node3</title>
<g id="a_node3"><a xlink:href="../../da/d5a/class_lexer.html#a473a8abf892384a3e2769651318d7ab1" target="_top" xlink:title="Анализирует текст программы">
<polygon fill="none" stroke="black" points="206,-152.5 206,-171.5 339,-171.5 339,-152.5 206,-152.5"/>
<text text-anchor="middle" x="272.5" y="-159.5" font-family="Helvetica,sans-Serif" font-size="10.00">Lexer::analyzeProgramText</text>
</a>
</g>
</g>
<!-- Node1&#45;&gt;Node3 -->
<g id="edge2" class="edge">
<title>Node1&#45;&gt;Node3</title>
<path fill="none" stroke="midnightblue" d="M389.01,-119.31C374.62,-127 356.14,-136.27 339,-143 330.07,-146.51 320.24,-149.7 310.96,-152.42"/>
<polygon fill="midnightblue" stroke="midnightblue" points="390.7,-122.37 397.82,-114.52 387.36,-116.22 390.7,-122.37"/>
</g>
<!-- Node7 -->
<g id="node7" class="node">
<title>Node7</title>
<g id="a_node7"><a xlink:href="../../d1/d34/class_list.html#a5b64c96fbb494d6f4a42ed232e6d96e7" target="_top" xlink:title="Конструктор из initializer_list.">
<polygon fill="none" stroke="black" points="245.5,-114.5 245.5,-133.5 299.5,-133.5 299.5,-114.5 245.5,-114.5"/>
<text text-anchor="middle" x="272.5" y="-121.5" font-family="Helvetica,sans-Serif" font-size="10.00">List::List</text>
</a>
</g>
</g>
<!-- Node1&#45;&gt;Node7 -->
<g id="edge6" class="edge">
<title>Node1&#45;&gt;Node7</title>
<path fill="none" stroke="midnightblue" d="M364.66,-111.72C342.67,-114.68 317.75,-118.04 299.52,-120.49"/>
<polygon fill="midnightblue" stroke="midnightblue" points="365.41,-115.15 374.85,-110.34 364.47,-108.21 365.41,-115.15"/>
</g>
<!-- Node8 -->
<g id="node8" class="node">
<title>Node8</title>
<g id="a_node8"><a xlink:href="../../d1/d34/class_list.html#afb55438b3b6d88e618481384e2bdd40e" target="_top" xlink:title=" ">
<polygon fill="none" stroke="black" points="233,-76.5 233,-95.5 312,-95.5 312,-76.5 233,-76.5"/>
<text text-anchor="middle" x="272.5" y="-83.5" font-family="Helvetica,sans-Serif" font-size="10.00">List::operator=</text>
</a>
</g>
</g>
<!-- Node1&#45;&gt;Node8 -->
<g id="edge7" class="edge">
<title>Node1&#45;&gt;Node8</title>
<path fill="none" stroke="midnightblue" d="M364.46,-98.26C347.34,-95.95 328.47,-93.41 312.37,-91.24"/>
<polygon fill="midnightblue" stroke="midnightblue" points="364.47,-101.79 374.85,-99.66 365.41,-94.85 364.47,-101.79"/>
</g>
<!-- Node9 -->
<g id="node9" class="node">
<title>Node9</title>
<g id="a_node9"><a xlink:href="../../d4/da4/class_queue.html#a5922a27c16bc172458703580f8fd3257" target="_top" xlink:title="Вставляет значение в хвост очереди">
<polygon fill="none" stroke="black" points="237,-38.5 237,-57.5 308,-57.5 308,-38.5 237,-38.5"/>
<text text-anchor="middle" x="272.5" y="-45.5" font-family="Helvetica,sans-Serif" font-size="10.00">Queue::push</text>
</a>
</g>
</g>
<!-- Node1&#45;&gt;Node9 -->
<g id="edge8" class="edge">
<title>Node1&#45;&gt;Node9</title>
<path fill="none" stroke="midnightblue" d="M389.01,-90.69C374.62,-83 356.14,-73.73 339,-67 329.19,-63.15 318.29,-59.68 308.23,-56.79"/>
<polygon fill="midnightblue" stroke="midnightblue" points="387.36,-93.78 397.82,-95.48 390.7,-87.63 387.36,-93.78"/>
</g>
<!-- Node11 -->
<g id="node11" class="node">
<title>Node11</title>
<g id="a_node11"><a xlink:href="../../d9/d2f/test_list_8cpp.html#a8f60f28a842f3b90e02e86c026421ff7" target="_top" xlink:title="Тест размера после вставки в конец">
<polygon fill="none" stroke="black" points="252,-0.5 252,-19.5 293,-19.5 293,-0.5 252,-0.5"/>
<text text-anchor="middle" x="272.5" y="-7.5" font-family="Helvetica,sans-Serif" font-size="10.00">TEST</text>
</a>
</g>
</g>
<!-- Node1&#45;&gt;Node11 -->
<g id="edge10" class="edge">
<title>Node1&#45;&gt;Node11</title>
<path fill="none" stroke="midnightblue" d="M401.21,-87.11C387.47,-69.83 364.47,-44.11 339,-29 324.85,-20.6 306.75,-15.72 293.17,-13.02"/>
<polygon fill="midnightblue" stroke="midnightblue" points="398.64,-89.51 407.52,-95.28 404.18,-85.23 398.64,-89.51"/>
</g>
<!-- Node4 -->
<g id="node4" class="node">
<title>Node4</title>
<g id="a_node4"><a xlink:href="../../da/d5a/class_lexer.html#a240680b247c9b95a1bbd802716b20f39" target="_top" xlink:title="Анализирует файл">
<polygon fill="none" stroke="black" points="77,-152.5 77,-171.5 170,-171.5 170,-152.5 77,-152.5"/>
<text text-anchor="middle" x="123.5" y="-159.5" font-family="Helvetica,sans-Serif" font-size="10.00">Lexer::analyzeFile</text>
</a>
</g>
</g>
<!-- Node3&#45;&gt;Node4 -->
<g id="edge3" class="edge">
<title>Node3&#45;&gt;Node4</title>
<path fill="none" stroke="midnightblue" d="M195.64,-162C187.03,-162 178.46,-162 170.41,-162"/>
<polygon fill="midnightblue" stroke="midnightblue" points="195.74,-165.5 205.74,-162 195.74,-158.5 195.74,-165.5"/>
</g>
<!-- Node5 -->
<g id="node5" class="node">
<title>Node5</title>
<g id="a_node5"><a xlink:href="../../df/d0a/main_8cpp.html#a3c04138a5bfe5d72780bb7e82a18e627" target="_top" xlink:title=" ">
<polygon fill="none" stroke="black" points="1.5,-171.5 1.5,-190.5 39.5,-190.5 39.5,-171.5 1.5,-171.5"/>
<text text-anchor="middle" x="20.5" y="-178.5" font-family="Helvetica,sans-Serif" font-size="10.00">main</text>
</a>
</g>
</g>
<!-- Node4&#45;&gt;Node5 -->
<g id="edge4" class="edge">
<title>Node4&#45;&gt;Node5</title>
<path fill="none" stroke="midnightblue" d="M66.84,-172.47C56.98,-174.33 47.39,-176.13 39.59,-177.6"/>
<polygon fill="midnightblue" stroke="midnightblue" points="67.55,-175.9 76.73,-170.61 66.25,-169.02 67.55,-175.9"/>
</g>
<!-- Node6 -->
<g id="node6" class="node">
<title>Node6</title>
<g id="a_node6"><a xlink:href="../../d0/d0f/test_lexer__1_8cpp.html#a42b988f5ceb814376db8a2df3c933b15" target="_top" xlink:title="Тест разбора простых математических выражений">
<polygon fill="none" stroke="black" points="0,-133.5 0,-152.5 41,-152.5 41,-133.5 0,-133.5"/>
<text text-anchor="middle" x="20.5" y="-140.5" font-family="Helvetica,sans-Serif" font-size="10.00">TEST</text>
</a>
</g>
</g>
<!-- Node4&#45;&gt;Node6 -->
<g id="edge5" class="edge">
<title>Node4&#45;&gt;Node6</title>
<path fill="none" stroke="midnightblue" d="M66.72,-151.51C57.53,-149.78 48.58,-148.09 41.09,-146.69"/>
<polygon fill="midnightblue" stroke="midnightblue" points="66.25,-154.98 76.73,-153.39 67.55,-148.1 66.25,-154.98"/>
</g>
<!-- Node10 -->
<g id="node10" class="node">
<title>Node10</title>
<g id="a_node10"><a xlink:href="../../d1/ddc/test_queue_8cpp.html#a4c587fd9d2cb75d2710ff2a2b06e5a28" target="_top" xlink:title="Тест вставки">
<polygon fill="none" stroke="black" points="103,-38.5 103,-57.5 144,-57.5 144,-38.5 103,-38.5"/>
<text text-anchor="middle" x="123.5" y="-45.5" font-family="Helvetica,sans-Serif" font-size="10.00">TEST</text>
</a>
</g>
</g>
<!-- Node9&#45;&gt;Node10 -->
<g id="edge9" class="edge">
<title>Node9&#45;&gt;Node10</title>
<path fill="none" stroke="midnightblue" d="M226.46,-48C198.95,-48 165.13,-48 144.2,-48"/>
<polygon fill="midnightblue" stroke="midnightblue" points="226.66,-51.5 236.66,-48 226.66,-44.5 226.66,-51.5"/>
</g>
</g>
</svg>
