<?xml version="1.0" encoding="UTF-8" standalone="no"?>
<!DOCTYPE svg PUBLIC "-//W3C//DTD SVG 1.1//EN"
 "http://www.w3.org/Graphics/SVG/1.1/DTD/svg11.dtd">
<!-- Generated by graphviz version 3.0.0 (20220413.0106)
 -->
<!-- Title: include/Lexer.hpp Pages: 1 -->
<svg width="722pt" height="151pt"
 viewBox="0.00 0.00 721.50 151.00" xmlns="http://www.w3.org/2000/svg" xmlns:xlink="http://www.w3.org/1999/xlink">
<g id="graph0" class="graph" transform="scale(1 1) rotate(0) translate(4 147)">
<title>include/Lexer.hpp</title>
<!-- Node1 -->
<g id="node1" class="node">
<title>Node1</title>
<g id="a_node1"><a xlink:title="Лексер">
<polygon fill="#bfbfbf" stroke="black" points="274.5,-123.5 274.5,-142.5 366.5,-142.5 366.5,-123.5 274.5,-123.5"/>
<text text-anchor="middle" x="320.5" y="-130.5" font-family="Helvetica,sans-Serif" font-size="10.00">include/Lexer.hpp</text>
</a>
</g>
</g>
<!-- Node2 -->
<g id="node2" class="node">
<title>Node2</title>
<g id="a_node2"><a xlink:href="../../d3/d0a/_analyze_8cpp.html" target="_top" xlink:title="Функции анализа кода на языке Pascal &#45; Реализация">
<polygon fill="none" stroke="black" points="0,-67.5 0,-86.5 85,-86.5 85,-67.5 0,-67.5"/>
<text text-anchor="middle" x="42.5" y="-74.5" font-family="Helvetica,sans-Serif" font-size="10.00">src/Analyze.cpp</text>
</a>
</g>
</g>
<!-- Node1&#45;&gt;Node2 -->
<g id="edge1" class="edge">
<title>Node1&#45;&gt;Node2</title>
<path fill="none" stroke="midnightblue" d="M266.58,-121.53C213.71,-111.26 134.15,-95.8 85.43,-86.34"/>
<polygon fill="midnightblue" stroke="midnightblue" points="265.97,-124.97 276.45,-123.44 267.3,-118.1 265.97,-124.97"/>
</g>
<!-- Node3 -->
<g id="node3" class="node">
<title>Node3</title>
<g id="a_node3"><a xlink:href="../../dd/d5d/_lexer_8cpp.html" target="_top" xlink:title=" ">
<polygon fill="none" stroke="black" points="103,-67.5 103,-86.5 178,-86.5 178,-67.5 103,-67.5"/>
<text text-anchor="middle" x="140.5" y="-74.5" font-family="Helvetica,sans-Serif" font-size="10.00">src/Lexer.cpp</text>
</a>
</g>
</g>
<!-- Node1&#45;&gt;Node3 -->
<g id="edge2" class="edge">
<title>Node1&#45;&gt;Node3</title>
<path fill="none" stroke="midnightblue" d="M282.39,-120.57C248.44,-110.38 199.51,-95.7 168.89,-86.52"/>
<polygon fill="midnightblue" stroke="midnightblue" points="281.39,-123.92 291.98,-123.44 283.41,-117.22 281.39,-123.92"/>
</g>
<!-- Node4 -->
<g id="node4" class="node">
<title>Node4</title>
<g id="a_node4"><a xlink:href="../../dd/d68/lexer_test_rules_8hpp.html" target="_top" xlink:title=" ">
<polygon fill="none" stroke="black" points="196,-67.5 196,-86.5 343,-86.5 343,-67.5 196,-67.5"/>
<text text-anchor="middle" x="269.5" y="-74.5" font-family="Helvetica,sans-Serif" font-size="10.00">tests/lexer/lexerTestRules.hpp</text>
</a>
</g>
</g>
<!-- Node1&#45;&gt;Node4 -->
<g id="edge3" class="edge">
<title>Node1&#45;&gt;Node4</title>
<path fill="none" stroke="midnightblue" d="M305.12,-115.72C296.13,-106.2 285.14,-94.56 277.76,-86.75"/>
<polygon fill="midnightblue" stroke="midnightblue" points="302.67,-118.22 312.08,-123.08 307.76,-113.41 302.67,-118.22"/>
</g>
<!-- Node5 -->
<g id="node5" class="node">
<title>Node5</title>
<g id="a_node5"><a xlink:href="../../d0/d0f/test_lexer__1_8cpp.html" target="_top" xlink:title="Тесты для лексера">
<polygon fill="none" stroke="black" points="268,-0.5 268,-30.5 373,-30.5 373,-0.5 268,-0.5"/>
<text text-anchor="start" x="276" y="-18.5" font-family="Helvetica,sans-Serif" font-size="10.00">tests/lexer/testLexer</text>
<text text-anchor="middle" x="320.5" y="-7.5" font-family="Helvetica,sans-Serif" font-size="10.00">_1.cpp</text>
</a>
</g>
</g>
<!-- Node1&#45;&gt;Node5 -->
<g id="edge5" class="edge">
<title>Node1&#45;&gt;Node5</title>
<path fill="none" stroke="midnightblue" d="M335.95,-115.55C342.4,-107.57 349.16,-97.46 352.5,-87 358.96,-66.77 345.26,-44.66 333.82,-30.69"/>
<polygon fill="midnightblue" stroke="midnightblue" points="333.15,-113.44 329.25,-123.29 338.44,-118.02 333.15,-113.44"/>
</g>
<!-- Node6 -->
<g id="node6" class="node">
<title>Node6</title>
<g id="a_node6"><a xlink:href="../../db/df9/test_semantic_8cpp.html" target="_top" xlink:title=" ">
<polygon fill="none" stroke="black" points="399.5,-67.5 399.5,-86.5 559.5,-86.5 559.5,-67.5 399.5,-67.5"/>
<text text-anchor="middle" x="479.5" y="-74.5" font-family="Helvetica,sans-Serif" font-size="10.00">tests/semantic/testSemantic.cpp</text>
</a>
</g>
</g>
<!-- Node1&#45;&gt;Node6 -->
<g id="edge6" class="edge">
<title>Node1&#45;&gt;Node6</title>
<path fill="none" stroke="midnightblue" d="M355.33,-120.17C385.27,-110 427.72,-95.59 454.42,-86.52"/>
<polygon fill="midnightblue" stroke="midnightblue" points="354.04,-116.91 345.69,-123.44 356.29,-123.54 354.04,-116.91"/>
</g>
<!-- Node7 -->
<g id="node7" class="node">
<title>Node7</title>
<g id="a_node7"><a xlink:href="../../dd/de9/test_syntax_8cpp.html" target="_top" xlink:title=" ">
<polygon fill="none" stroke="black" points="577.5,-67.5 577.5,-86.5 713.5,-86.5 713.5,-67.5 577.5,-67.5"/>
<text text-anchor="middle" x="645.5" y="-74.5" font-family="Helvetica,sans-Serif" font-size="10.00">tests/syntax/testSyntax.cpp</text>
</a>
</g>
</g>
<!-- Node1&#45;&gt;Node7 -->
<g id="edge7" class="edge">
<title>Node1&#45;&gt;Node7</title>
<path fill="none" stroke="midnightblue" d="M376.59,-122.68C437.75,-112.52 534.82,-96.39 594.08,-86.54"/>
<polygon fill="midnightblue" stroke="midnightblue" points="376.01,-119.23 366.72,-124.32 377.16,-126.13 376.01,-119.23"/>
</g>
<!-- Node4&#45;&gt;Node5 -->
<g id="edge4" class="edge">
<title>Node4&#45;&gt;Node5</title>
<path fill="none" stroke="midnightblue" d="M283.38,-59.81C291.23,-50.65 300.95,-39.3 308.48,-30.52"/>
<polygon fill="midnightblue" stroke="midnightblue" points="280.66,-57.6 276.81,-67.48 285.97,-62.16 280.66,-57.6"/>
</g>
</g>
</svg>
