<?xml version="1.0" encoding="UTF-8" standalone="no"?>
<!DOCTYPE svg PUBLIC "-//W3C//DTD SVG 1.1//EN"
 "http://www.w3.org/Graphics/SVG/1.1/DTD/svg11.dtd">
<!-- Generated by graphviz version 3.0.0 (20220413.0106)
 -->
<!-- Title: include/List.hpp Pages: 1 -->
<svg width="1265pt" height="263pt"
 viewBox="0.00 0.00 1264.56 263.00" xmlns="http://www.w3.org/2000/svg" xmlns:xlink="http://www.w3.org/1999/xlink">
<g id="graph0" class="graph" transform="scale(1 1) rotate(0) translate(4 259)">
<title>include/List.hpp</title>
<!-- Node1 -->
<g id="node1" class="node">
<title>Node1</title>
<g id="a_node1"><a xlink:title=" ">
<polygon fill="#bfbfbf" stroke="black" points="512.56,-235.5 512.56,-254.5 597.56,-254.5 597.56,-235.5 512.56,-235.5"/>
<text text-anchor="middle" x="555.06" y="-242.5" font-family="Helvetica,sans-Serif" font-size="10.00">include/List.hpp</text>
</a>
</g>
</g>
<!-- Node2 -->
<g id="node2" class="node">
<title>Node2</title>
<g id="a_node2"><a xlink:href="../../d0/d7c/_analyze_8hpp.html" target="_top" xlink:title=" ">
<polygon fill="none" stroke="black" points="384.06,-62 384.06,-81 486.06,-81 486.06,-62 384.06,-62"/>
<text text-anchor="middle" x="435.06" y="-69" font-family="Helvetica,sans-Serif" font-size="10.00">include/Analyze.hpp</text>
</a>
</g>
</g>
<!-- Node1&#45;&gt;Node2 -->
<g id="edge1" class="edge">
<title>Node1&#45;&gt;Node2</title>
<path fill="none" stroke="midnightblue" d="M502.34,-244.15C423.84,-243.12 282.02,-236.03 250.06,-199 229.33,-174.99 260.37,-140.11 281.06,-123 310.33,-98.79 351.55,-86.07 383.98,-79.46"/>
<polygon fill="midnightblue" stroke="midnightblue" points="502.48,-247.65 512.51,-244.25 502.55,-240.65 502.48,-247.65"/>
</g>
<!-- Node5 -->
<g id="node5" class="node">
<title>Node5</title>
<g id="a_node5"><a xlink:href="../../d5/d24/_lexer_8hpp.html" target="_top" xlink:title=" ">
<polygon fill="none" stroke="black" points="259.06,-179.5 259.06,-198.5 351.06,-198.5 351.06,-179.5 259.06,-179.5"/>
<text text-anchor="middle" x="305.06" y="-186.5" font-family="Helvetica,sans-Serif" font-size="10.00">include/Lexer.hpp</text>
</a>
</g>
</g>
<!-- Node1&#45;&gt;Node5 -->
<g id="edge4" class="edge">
<title>Node1&#45;&gt;Node5</title>
<path fill="none" stroke="midnightblue" d="M505.43,-233.28C458.19,-223.08 388.02,-207.92 344.48,-198.52"/>
<polygon fill="midnightblue" stroke="midnightblue" points="504.93,-236.75 515.44,-235.44 506.41,-229.91 504.93,-236.75"/>
</g>
<!-- Node7 -->
<g id="node7" class="node">
<title>Node7</title>
<g id="a_node7"><a xlink:href="../../dd/d68/lexer_test_rules_8hpp.html" target="_top" xlink:title=" ">
<polygon fill="none" stroke="black" points="15.56,-123.5 15.56,-142.5 162.56,-142.5 162.56,-123.5 15.56,-123.5"/>
<text text-anchor="middle" x="89.06" y="-130.5" font-family="Helvetica,sans-Serif" font-size="10.00">tests/lexer/lexerTestRules.hpp</text>
</a>
</g>
</g>
<!-- Node1&#45;&gt;Node7 -->
<g id="edge38" class="edge">
<title>Node1&#45;&gt;Node7</title>
<path fill="none" stroke="midnightblue" d="M502.42,-242.62C434.55,-239.58 313.54,-229.89 215.06,-199 171.14,-185.23 124.15,-156.89 102.01,-142.62"/>
<polygon fill="midnightblue" stroke="midnightblue" points="502.3,-246.11 512.44,-243.03 502.6,-239.12 502.3,-246.11"/>
</g>
<!-- Node8 -->
<g id="node8" class="node">
<title>Node8</title>
<g id="a_node8"><a xlink:href="../../d0/d0f/test_lexer__1_8cpp.html" target="_top" xlink:title="Тесты для лексера">
<polygon fill="none" stroke="black" points="87.56,-56.5 87.56,-86.5 192.56,-86.5 192.56,-56.5 87.56,-56.5"/>
<text text-anchor="start" x="95.56" y="-74.5" font-family="Helvetica,sans-Serif" font-size="10.00">tests/lexer/testLexer</text>
<text text-anchor="middle" x="140.06" y="-63.5" font-family="Helvetica,sans-Serif" font-size="10.00">_1.cpp</text>
</a>
</g>
</g>
<!-- Node1&#45;&gt;Node8 -->
<g id="edge39" class="edge">
<title>Node1&#45;&gt;Node8</title>
<path fill="none" stroke="midnightblue" d="M502.05,-243.14C375.68,-239.8 62.98,-223.39 6.06,-143 -18.25,-108.67 40.17,-89.72 87.4,-80.33"/>
<polygon fill="midnightblue" stroke="midnightblue" points="502.17,-246.65 512.25,-243.39 502.34,-239.65 502.17,-246.65"/>
</g>
<!-- Node9 -->
<g id="node9" class="node">
<title>Node9</title>
<g id="a_node9"><a xlink:href="../../db/df9/test_semantic_8cpp.html" target="_top" xlink:title=" ">
<polygon fill="none" stroke="black" points="696.06,-62 696.06,-81 856.06,-81 856.06,-62 696.06,-62"/>
<text text-anchor="middle" x="776.06" y="-69" font-family="Helvetica,sans-Serif" font-size="10.00">tests/semantic/testSemantic.cpp</text>
</a>
</g>
</g>
<!-- Node1&#45;&gt;Node9 -->
<g id="edge40" class="edge">
<title>Node1&#45;&gt;Node9</title>
<path fill="none" stroke="midnightblue" d="M607.88,-242.3C674.39,-238.92 783.04,-228.86 808.06,-199 837.88,-163.4 799.42,-103.7 782.91,-81.32"/>
<polygon fill="midnightblue" stroke="midnightblue" points="607.41,-238.82 597.58,-242.79 607.74,-245.81 607.41,-238.82"/>
</g>
<!-- Node10 -->
<g id="node10" class="node">
<title>Node10</title>
<g id="a_node10"><a xlink:href="../../dd/de9/test_syntax_8cpp.html" target="_top" xlink:title=" ">
<polygon fill="none" stroke="black" points="504.06,-62 504.06,-81 640.06,-81 640.06,-62 504.06,-62"/>
<text text-anchor="middle" x="572.06" y="-69" font-family="Helvetica,sans-Serif" font-size="10.00">tests/syntax/testSyntax.cpp</text>
</a>
</g>
</g>
<!-- Node1&#45;&gt;Node10 -->
<g id="edge42" class="edge">
<title>Node1&#45;&gt;Node10</title>
<path fill="none" stroke="midnightblue" d="M556.95,-224.85C560.63,-187.73 568.6,-107.33 571.21,-81.02"/>
<polygon fill="midnightblue" stroke="midnightblue" points="553.43,-224.96 555.92,-235.26 560.39,-225.65 553.43,-224.96"/>
</g>
<!-- Node11 -->
<g id="node11" class="node">
<title>Node11</title>
<g id="a_node11"><a xlink:href="../../db/dfd/_pascal_rules_8hpp.html" target="_top" xlink:title=" ">
<polygon fill="none" stroke="black" points="426.56,-123.5 426.56,-142.5 549.56,-142.5 549.56,-123.5 426.56,-123.5"/>
<text text-anchor="middle" x="488.06" y="-130.5" font-family="Helvetica,sans-Serif" font-size="10.00">include/PascalRules.hpp</text>
</a>
</g>
</g>
<!-- Node1&#45;&gt;Node11 -->
<g id="edge12" class="edge">
<title>Node1&#45;&gt;Node11</title>
<path fill="none" stroke="midnightblue" d="M544.48,-226.64C529.93,-202.74 504.28,-160.63 493.29,-142.59"/>
<polygon fill="midnightblue" stroke="midnightblue" points="541.61,-228.65 549.8,-235.37 547.59,-225.01 541.61,-228.65"/>
</g>
<!-- Node12 -->
<g id="node12" class="node">
<title>Node12</title>
<g id="a_node12"><a xlink:href="../../df/d3f/_syntax_8hpp.html" target="_top" xlink:title=" ">
<polygon fill="none" stroke="black" points="644.06,-123.5 644.06,-142.5 742.06,-142.5 742.06,-123.5 644.06,-123.5"/>
<text text-anchor="middle" x="693.06" y="-130.5" font-family="Helvetica,sans-Serif" font-size="10.00">include/Syntax.hpp</text>
</a>
</g>
</g>
<!-- Node1&#45;&gt;Node12 -->
<g id="edge17" class="edge">
<title>Node1&#45;&gt;Node12</title>
<path fill="none" stroke="midnightblue" d="M573.73,-229.12C603.02,-205.77 658.84,-161.27 682.28,-142.59"/>
<polygon fill="midnightblue" stroke="midnightblue" points="571.52,-226.4 565.88,-235.37 575.89,-231.87 571.52,-226.4"/>
</g>
<!-- Node14 -->
<g id="node14" class="node">
<title>Node14</title>
<g id="a_node14"><a xlink:href="../../db/d42/_visitor_8hpp.html" target="_top" xlink:title=" ">
<polygon fill="none" stroke="black" points="703.06,-179.5 703.06,-198.5 799.06,-198.5 799.06,-179.5 703.06,-179.5"/>
<text text-anchor="middle" x="751.06" y="-186.5" font-family="Helvetica,sans-Serif" font-size="10.00">include/Visitor.hpp</text>
</a>
</g>
</g>
<!-- Node1&#45;&gt;Node14 -->
<g id="edge22" class="edge">
<title>Node1&#45;&gt;Node14</title>
<path fill="none" stroke="midnightblue" d="M596.08,-232.7C633.07,-222.51 686.66,-207.74 720.14,-198.52"/>
<polygon fill="midnightblue" stroke="midnightblue" points="594.82,-229.41 586.11,-235.44 596.68,-236.16 594.82,-229.41"/>
</g>
<!-- Node20 -->
<g id="node20" class="node">
<title>Node20</title>
<g id="a_node20"><a xlink:href="../../d9/d2f/test_list_8cpp.html" target="_top" xlink:title="Тесты для двусвязного списка">
<polygon fill="none" stroke="black" points="874.56,-179.5 874.56,-198.5 1013.56,-198.5 1013.56,-179.5 874.56,-179.5"/>
<text text-anchor="middle" x="944.06" y="-186.5" font-family="Helvetica,sans-Serif" font-size="10.00">tests/structures/testList.cpp</text>
</a>
</g>
</g>
<!-- Node1&#45;&gt;Node20 -->
<g id="edge41" class="edge">
<title>Node1&#45;&gt;Node20</title>
<path fill="none" stroke="midnightblue" d="M607.94,-236.66C679.54,-226.72 807.04,-209.02 882.74,-198.51"/>
<polygon fill="midnightblue" stroke="midnightblue" points="607.22,-233.22 597.8,-238.07 608.18,-240.16 607.22,-233.22"/>
</g>
<!-- Node3 -->
<g id="node3" class="node">
<title>Node3</title>
<g id="a_node3"><a xlink:href="../../d3/db4/graph_draw_8cpp.html" target="_top" xlink:title=" ">
<polygon fill="none" stroke="black" points="350.56,-0.5 350.56,-19.5 431.56,-19.5 431.56,-0.5 350.56,-0.5"/>
<text text-anchor="middle" x="391.06" y="-7.5" font-family="Helvetica,sans-Serif" font-size="10.00">graphDraw.cpp</text>
</a>
</g>
</g>
<!-- Node2&#45;&gt;Node3 -->
<g id="edge2" class="edge">
<title>Node2&#45;&gt;Node3</title>
<path fill="none" stroke="midnightblue" d="M422.73,-53.84C414.48,-42.67 403.94,-28.43 397.35,-19.51"/>
<polygon fill="midnightblue" stroke="midnightblue" points="419.99,-56.02 428.75,-61.98 425.62,-51.85 419.99,-56.02"/>
</g>
<!-- Node4 -->
<g id="node4" class="node">
<title>Node4</title>
<g id="a_node4"><a xlink:href="../../df/d0a/main_8cpp.html" target="_top" xlink:title=" ">
<polygon fill="none" stroke="black" points="450.06,-0.5 450.06,-19.5 506.06,-19.5 506.06,-0.5 450.06,-0.5"/>
<text text-anchor="middle" x="478.06" y="-7.5" font-family="Helvetica,sans-Serif" font-size="10.00">main.cpp</text>
</a>
</g>
</g>
<!-- Node2&#45;&gt;Node4 -->
<g id="edge3" class="edge">
<title>Node2&#45;&gt;Node4</title>
<path fill="none" stroke="midnightblue" d="M447.1,-53.84C455.17,-42.67 465.46,-28.43 471.91,-19.51"/>
<polygon fill="midnightblue" stroke="midnightblue" points="444.24,-51.82 441.22,-61.98 449.91,-55.92 444.24,-51.82"/>
</g>
<!-- Node5&#45;&gt;Node2 -->
<g id="edge5" class="edge">
<title>Node5&#45;&gt;Node2</title>
<path fill="none" stroke="midnightblue" d="M294.19,-170.06C287.27,-156.08 281.28,-136.79 291.06,-123 311.97,-93.5 351.52,-81.1 383.89,-75.95"/>
<polygon fill="midnightblue" stroke="midnightblue" points="291.3,-172.06 299.18,-179.14 297.43,-168.69 291.3,-172.06"/>
</g>
<!-- Node6 -->
<g id="node6" class="node">
<title>Node6</title>
<g id="a_node6"><a xlink:href="../../dd/d5d/_lexer_8cpp.html" target="_top" xlink:title="Лексер">
<polygon fill="none" stroke="black" points="333.56,-123.5 333.56,-142.5 408.56,-142.5 408.56,-123.5 333.56,-123.5"/>
<text text-anchor="middle" x="371.06" y="-130.5" font-family="Helvetica,sans-Serif" font-size="10.00">src/Lexer.cpp</text>
</a>
</g>
</g>
<!-- Node5&#45;&gt;Node6 -->
<g id="edge6" class="edge">
<title>Node5&#45;&gt;Node6</title>
<path fill="none" stroke="midnightblue" d="M323.61,-172.82C335.43,-163.15 350.34,-150.95 360.26,-142.83"/>
<polygon fill="midnightblue" stroke="midnightblue" points="321.18,-170.28 315.66,-179.32 325.62,-175.7 321.18,-170.28"/>
</g>
<!-- Node5&#45;&gt;Node7 -->
<g id="edge7" class="edge">
<title>Node5&#45;&gt;Node7</title>
<path fill="none" stroke="midnightblue" d="M260.89,-176.96C220.1,-166.76 160.34,-151.82 123.12,-142.52"/>
<polygon fill="midnightblue" stroke="midnightblue" points="260.28,-180.41 270.83,-179.44 261.98,-173.62 260.28,-180.41"/>
</g>
<!-- Node5&#45;&gt;Node8 -->
<g id="edge9" class="edge">
<title>Node5&#45;&gt;Node8</title>
<path fill="none" stroke="midnightblue" d="M284.07,-173.31C252.09,-150.92 191.55,-108.54 160.12,-86.55"/>
<polygon fill="midnightblue" stroke="midnightblue" points="282.45,-176.45 292.65,-179.32 286.47,-170.72 282.45,-176.45"/>
</g>
<!-- Node5&#45;&gt;Node9 -->
<g id="edge10" class="edge">
<title>Node5&#45;&gt;Node9</title>
<path fill="none" stroke="midnightblue" d="M361.49,-185.65C474.63,-180.46 721,-166.58 751.06,-143 770.47,-127.77 774.84,-96.31 775.8,-81.1"/>
<polygon fill="midnightblue" stroke="midnightblue" points="361.12,-182.16 351.29,-186.11 361.44,-189.16 361.12,-182.16"/>
</g>
<!-- Node5&#45;&gt;Node10 -->
<g id="edge11" class="edge">
<title>Node5&#45;&gt;Node10</title>
<path fill="none" stroke="midnightblue" d="M305.82,-169.39C307.44,-154.69 312.1,-134.76 325.06,-123 328.82,-119.59 457.16,-94.54 527.31,-81.05"/>
<polygon fill="midnightblue" stroke="midnightblue" points="302.32,-169.16 305.08,-179.39 309.3,-169.67 302.32,-169.16"/>
</g>
<!-- Node7&#45;&gt;Node8 -->
<g id="edge8" class="edge">
<title>Node7&#45;&gt;Node8</title>
<path fill="none" stroke="midnightblue" d="M102.93,-115.81C110.79,-106.65 120.51,-95.3 128.04,-86.52"/>
<polygon fill="midnightblue" stroke="midnightblue" points="100.21,-113.6 96.36,-123.48 105.53,-118.16 100.21,-113.6"/>
</g>
<!-- Node11&#45;&gt;Node2 -->
<g id="edge13" class="edge">
<title>Node11&#45;&gt;Node2</title>
<path fill="none" stroke="midnightblue" d="M473.8,-116C463.77,-104.74 450.74,-90.1 442.64,-81.01"/>
<polygon fill="midnightblue" stroke="midnightblue" points="471.2,-118.34 480.46,-123.48 476.42,-113.68 471.2,-118.34"/>
</g>
<!-- Node11&#45;&gt;Node8 -->
<g id="edge14" class="edge">
<title>Node11&#45;&gt;Node8</title>
<path fill="none" stroke="midnightblue" d="M428.31,-121.78C361.98,-110.44 255.97,-92.32 192.67,-81.5"/>
<polygon fill="midnightblue" stroke="midnightblue" points="427.75,-125.24 438.2,-123.48 428.93,-118.34 427.75,-125.24"/>
</g>
<!-- Node11&#45;&gt;Node9 -->
<g id="edge15" class="edge">
<title>Node11&#45;&gt;Node9</title>
<path fill="none" stroke="midnightblue" d="M539.35,-121.4C595.19,-109.87 683.36,-91.65 734.87,-81.01"/>
<polygon fill="midnightblue" stroke="midnightblue" points="538.4,-118.02 529.32,-123.48 539.82,-124.88 538.4,-118.02"/>
</g>
<!-- Node11&#45;&gt;Node10 -->
<g id="edge16" class="edge">
<title>Node11&#45;&gt;Node10</title>
<path fill="none" stroke="midnightblue" d="M508.37,-117.61C524.52,-106.17 546.58,-90.55 560.04,-81.01"/>
<polygon fill="midnightblue" stroke="midnightblue" points="506.23,-114.84 500.09,-123.48 510.27,-120.55 506.23,-114.84"/>
</g>
<!-- Node12&#45;&gt;Node2 -->
<g id="edge18" class="edge">
<title>Node12&#45;&gt;Node2</title>
<path fill="none" stroke="midnightblue" d="M644.91,-121.25C604.79,-112.25 546.15,-98.98 495.06,-87 486.92,-85.09 478.17,-83 469.94,-81.01"/>
<polygon fill="midnightblue" stroke="midnightblue" points="644.17,-124.67 654.69,-123.44 645.7,-117.84 644.17,-124.67"/>
</g>
<!-- Node12&#45;&gt;Node9 -->
<g id="edge20" class="edge">
<title>Node12&#45;&gt;Node9</title>
<path fill="none" stroke="midnightblue" d="M713.13,-117.61C729.09,-106.17 750.88,-90.55 764.19,-81.01"/>
<polygon fill="midnightblue" stroke="midnightblue" points="711.04,-114.8 704.95,-123.48 715.11,-120.49 711.04,-114.8"/>
</g>
<!-- Node12&#45;&gt;Node10 -->
<g id="edge21" class="edge">
<title>Node12&#45;&gt;Node10</title>
<path fill="none" stroke="midnightblue" d="M666.66,-119.02C643.19,-107.48 609.56,-90.94 589.36,-81.01"/>
<polygon fill="midnightblue" stroke="midnightblue" points="665.2,-122.2 675.72,-123.48 668.29,-115.92 665.2,-122.2"/>
</g>
<!-- Node13 -->
<g id="node13" class="node">
<title>Node13</title>
<g id="a_node13"><a xlink:href="../../d1/daa/_syntax_8cpp.html" target="_top" xlink:title=" ">
<polygon fill="none" stroke="black" points="844.06,-0.5 844.06,-19.5 924.06,-19.5 924.06,-0.5 844.06,-0.5"/>
<text text-anchor="middle" x="884.06" y="-7.5" font-family="Helvetica,sans-Serif" font-size="10.00">src/Syntax.cpp</text>
</a>
</g>
</g>
<!-- Node12&#45;&gt;Node13 -->
<g id="edge19" class="edge">
<title>Node12&#45;&gt;Node13</title>
<path fill="none" stroke="midnightblue" d="M685.12,-113.61C679.22,-96.79 674.2,-72.13 687.06,-56 706.3,-31.86 792.2,-19.64 844,-14.37"/>
<polygon fill="midnightblue" stroke="midnightblue" points="682.03,-115.34 688.94,-123.37 688.55,-112.78 682.03,-115.34"/>
</g>
<!-- Node14&#45;&gt;Node2 -->
<g id="edge34" class="edge">
<title>Node14&#45;&gt;Node2</title>
<path fill="none" stroke="midnightblue" d="M717.95,-175.9C653.9,-152.49 514.39,-101.5 458.7,-81.14"/>
<polygon fill="midnightblue" stroke="midnightblue" points="716.97,-179.27 727.56,-179.41 719.37,-172.69 716.97,-179.27"/>
</g>
<!-- Node14&#45;&gt;Node9 -->
<g id="edge37" class="edge">
<title>Node14&#45;&gt;Node9</title>
<path fill="none" stroke="midnightblue" d="M766.77,-171.88C773.48,-163.88 780.57,-153.66 784.06,-143 791.03,-121.69 784.04,-95.05 779.42,-81.43"/>
<polygon fill="midnightblue" stroke="midnightblue" points="764.15,-169.56 760.08,-179.34 769.36,-174.24 764.15,-169.56"/>
</g>
<!-- Node14&#45;&gt;Node11 -->
<g id="edge35" class="edge">
<title>Node14&#45;&gt;Node11</title>
<path fill="none" stroke="midnightblue" d="M699.48,-177.41C649.77,-167.2 575.53,-151.96 529.53,-142.52"/>
<polygon fill="midnightblue" stroke="midnightblue" points="698.88,-180.86 709.38,-179.44 700.29,-174 698.88,-180.86"/>
</g>
<!-- Node15 -->
<g id="node15" class="node">
<title>Node15</title>
<g id="a_node15"><a xlink:href="../../d4/dcb/_a_s_t_8hpp.html" target="_top" xlink:title=" ">
<polygon fill="none" stroke="black" points="874.06,-123.5 874.06,-142.5 962.06,-142.5 962.06,-123.5 874.06,-123.5"/>
<text text-anchor="middle" x="918.06" y="-130.5" font-family="Helvetica,sans-Serif" font-size="10.00">include/AST.hpp</text>
</a>
</g>
</g>
<!-- Node14&#45;&gt;Node15 -->
<g id="edge23" class="edge">
<title>Node14&#45;&gt;Node15</title>
<path fill="none" stroke="midnightblue" d="M787.23,-176.3C818.69,-166.13 863.55,-151.62 891.72,-142.52"/>
<polygon fill="midnightblue" stroke="midnightblue" points="785.96,-173.04 777.52,-179.44 788.11,-179.7 785.96,-173.04"/>
</g>
<!-- Node19 -->
<g id="node19" class="node">
<title>Node19</title>
<g id="a_node19"><a xlink:href="../../dc/d65/_visitor_8cpp.html" target="_top" xlink:title=" ">
<polygon fill="none" stroke="black" points="1177.56,-62 1177.56,-81 1256.56,-81 1256.56,-62 1177.56,-62"/>
<text text-anchor="middle" x="1217.06" y="-69" font-family="Helvetica,sans-Serif" font-size="10.00">src/Visitor.cpp</text>
</a>
</g>
</g>
<!-- Node14&#45;&gt;Node19 -->
<g id="edge36" class="edge">
<title>Node14&#45;&gt;Node19</title>
<path fill="none" stroke="midnightblue" d="M808.12,-177.53C852.68,-169.06 916.06,-156.38 971.06,-143 1059.91,-121.38 1081.28,-112.67 1169.06,-87 1175.57,-85.09 1182.57,-83 1189.16,-81.02"/>
<polygon fill="midnightblue" stroke="midnightblue" points="807.23,-174.13 798.06,-179.43 808.53,-181.01 807.23,-174.13"/>
</g>
<!-- Node15&#45;&gt;Node2 -->
<g id="edge27" class="edge">
<title>Node15&#45;&gt;Node2</title>
<path fill="none" stroke="midnightblue" d="M863.52,-128.5C782.65,-122.78 626.33,-109.74 495.06,-87 485.87,-85.41 476,-83.22 466.97,-81.03"/>
<polygon fill="midnightblue" stroke="midnightblue" points="863.73,-132.02 873.95,-129.22 864.22,-125.03 863.73,-132.02"/>
</g>
<!-- Node15&#45;&gt;Node9 -->
<g id="edge32" class="edge">
<title>Node15&#45;&gt;Node9</title>
<path fill="none" stroke="midnightblue" d="M888.18,-119.48C860.6,-107.92 820.39,-91.08 796.36,-81.01"/>
<polygon fill="midnightblue" stroke="midnightblue" points="887.14,-122.84 897.71,-123.48 889.84,-116.38 887.14,-122.84"/>
</g>
<!-- Node15&#45;&gt;Node10 -->
<g id="edge33" class="edge">
<title>Node15&#45;&gt;Node10</title>
<path fill="none" stroke="midnightblue" d="M864.03,-122.71C797.61,-111.29 685.82,-92.06 621.55,-81.01"/>
<polygon fill="midnightblue" stroke="midnightblue" points="863.43,-126.16 873.88,-124.4 864.62,-119.26 863.43,-126.16"/>
</g>
<!-- Node15&#45;&gt;Node13 -->
<g id="edge30" class="edge">
<title>Node15&#45;&gt;Node13</title>
<path fill="none" stroke="midnightblue" d="M911.65,-113.85C908.86,-105.69 905.65,-95.91 903.06,-87 896.06,-62.97 889.3,-34.22 886.06,-19.95"/>
<polygon fill="midnightblue" stroke="midnightblue" points="908.39,-115.14 914.98,-123.43 915.01,-112.84 908.39,-115.14"/>
</g>
<!-- Node16 -->
<g id="node16" class="node">
<title>Node16</title>
<g id="a_node16"><a xlink:href="../../d4/d0d/_a_s_t_factory_8hpp.html" target="_top" xlink:title=" ">
<polygon fill="none" stroke="black" points="912.06,-62 912.06,-81 1032.06,-81 1032.06,-62 912.06,-62"/>
<text text-anchor="middle" x="972.06" y="-69" font-family="Helvetica,sans-Serif" font-size="10.00">include/ASTFactory.hpp</text>
</a>
</g>
</g>
<!-- Node15&#45;&gt;Node16 -->
<g id="edge24" class="edge">
<title>Node15&#45;&gt;Node16</title>
<path fill="none" stroke="midnightblue" d="M932.58,-116C942.8,-104.74 956.08,-90.1 964.33,-81.01"/>
<polygon fill="midnightblue" stroke="midnightblue" points="929.92,-113.72 925.79,-123.48 935.11,-118.42 929.92,-113.72"/>
</g>
<!-- Node17 -->
<g id="node17" class="node">
<title>Node17</title>
<g id="a_node17"><a xlink:href="../../d4/dfc/_a_s_t_factory_8cpp.html" target="_top" xlink:title=" ">
<polygon fill="none" stroke="black" points="975.56,-0.5 975.56,-19.5 1078.56,-19.5 1078.56,-0.5 975.56,-0.5"/>
<text text-anchor="middle" x="1027.06" y="-7.5" font-family="Helvetica,sans-Serif" font-size="10.00">src/ASTFactory.cpp</text>
</a>
</g>
</g>
<!-- Node15&#45;&gt;Node17 -->
<g id="edge29" class="edge">
<title>Node15&#45;&gt;Node17</title>
<path fill="none" stroke="midnightblue" d="M972.04,-126.34C997.39,-120.66 1025.42,-109.38 1041.06,-87 1055.51,-66.33 1041.18,-35.03 1032.55,-19.86"/>
<polygon fill="midnightblue" stroke="midnightblue" points="971.24,-122.93 962.12,-128.31 972.61,-129.79 971.24,-122.93"/>
</g>
<!-- Node18 -->
<g id="node18" class="node">
<title>Node18</title>
<g id="a_node18"><a xlink:href="../../d0/d91/_a_s_t_8cpp.html" target="_top" xlink:title=" ">
<polygon fill="none" stroke="black" points="1088.56,-62 1088.56,-81 1159.56,-81 1159.56,-62 1088.56,-62"/>
<text text-anchor="middle" x="1124.06" y="-69" font-family="Helvetica,sans-Serif" font-size="10.00">src/AST.cpp</text>
</a>
</g>
</g>
<!-- Node15&#45;&gt;Node18 -->
<g id="edge28" class="edge">
<title>Node15&#45;&gt;Node18</title>
<path fill="none" stroke="midnightblue" d="M957.41,-120.67C988.95,-111.58 1034.35,-98.48 1074.06,-87 1080.74,-85.07 1087.93,-82.98 1094.71,-81.02"/>
<polygon fill="midnightblue" stroke="midnightblue" points="956.32,-117.34 947.68,-123.47 958.25,-124.06 956.32,-117.34"/>
</g>
<!-- Node15&#45;&gt;Node19 -->
<g id="edge31" class="edge">
<title>Node15&#45;&gt;Node19</title>
<path fill="none" stroke="midnightblue" d="M972.52,-124.1C1023.62,-116.25 1102,-103.08 1169.06,-87 1176.17,-85.29 1183.78,-83.15 1190.8,-81.03"/>
<polygon fill="midnightblue" stroke="midnightblue" points="971.72,-120.68 962.36,-125.65 972.77,-127.6 971.72,-120.68"/>
</g>
<!-- Node16&#45;&gt;Node13 -->
<g id="edge26" class="edge">
<title>Node16&#45;&gt;Node13</title>
<path fill="none" stroke="midnightblue" d="M950.78,-56.11C933.85,-44.67 910.75,-29.05 896.64,-19.51"/>
<polygon fill="midnightblue" stroke="midnightblue" points="949.2,-59.27 959.45,-61.98 953.12,-53.47 949.2,-59.27"/>
</g>
<!-- Node16&#45;&gt;Node17 -->
<g id="edge25" class="edge">
<title>Node16&#45;&gt;Node17</title>
<path fill="none" stroke="midnightblue" d="M986.85,-54.5C997.26,-43.24 1010.78,-28.6 1019.19,-19.51"/>
<polygon fill="midnightblue" stroke="midnightblue" points="984.15,-52.26 979.94,-61.98 989.29,-57.01 984.15,-52.26"/>
</g>
</g>
</svg>
