<?xml version="1.0" encoding="UTF-8" standalone="no"?>
<!DOCTYPE svg PUBLIC "-//W3C//DTD SVG 1.1//EN"
 "http://www.w3.org/Graphics/SVG/1.1/DTD/svg11.dtd">
<!-- Generated by graphviz version 3.0.0 (20220413.0106)
 -->
<!-- Title: src/SyntExp.cpp Pages: 1 -->
<svg width="375pt" height="196pt"
 viewBox="0.00 0.00 375.06 196.00" xmlns="http://www.w3.org/2000/svg" xmlns:xlink="http://www.w3.org/1999/xlink">
<g id="graph0" class="graph" transform="scale(1 1) rotate(0) translate(4 192)">
<title>src/SyntExp.cpp</title>
<!-- Node1 -->
<g id="node1" class="node">
<title>Node1</title>
<g id="a_node1"><a xlink:title=" ">
<polygon fill="#bfbfbf" stroke="black" points="86.06,-168.5 86.06,-187.5 172.06,-187.5 172.06,-168.5 86.06,-168.5"/>
<text text-anchor="middle" x="129.06" y="-175.5" font-family="Helvetica,sans-Serif" font-size="10.00">src/SyntExp.cpp</text>
</a>
</g>
</g>
<!-- Node2 -->
<g id="node2" class="node">
<title>Node2</title>
<g id="a_node2"><a xlink:href="../../da/dbf/_synt_exp_8hpp.html" target="_top" xlink:title="Исключения анализатора">
<polygon fill="none" stroke="black" points="63.06,-112.5 63.06,-131.5 133.06,-131.5 133.06,-112.5 63.06,-112.5"/>
<text text-anchor="middle" x="98.06" y="-119.5" font-family="Helvetica,sans-Serif" font-size="10.00">SyntExp.hpp</text>
</a>
</g>
</g>
<!-- Node1&#45;&gt;Node2 -->
<g id="edge1" class="edge">
<title>Node1&#45;&gt;Node2</title>
<path fill="none" stroke="midnightblue" d="M123.94,-168.08C119.65,-160.61 113.4,-149.72 108.11,-140.52"/>
<polygon fill="midnightblue" stroke="midnightblue" points="111.1,-138.68 103.08,-131.75 105.02,-142.17 111.1,-138.68"/>
</g>
<!-- Node3 -->
<g id="node3" class="node">
<title>Node3</title>
<g id="a_node3"><a xlink:title=" ">
<polygon fill="none" stroke="#bfbfbf" points="12.56,-56.5 12.56,-75.5 71.56,-75.5 71.56,-56.5 12.56,-56.5"/>
<text text-anchor="middle" x="42.06" y="-63.5" font-family="Helvetica,sans-Serif" font-size="10.00">stdexcept</text>
</a>
</g>
</g>
<!-- Node1&#45;&gt;Node3 -->
<g id="edge8" class="edge">
<title>Node1&#45;&gt;Node3</title>
<path fill="none" stroke="midnightblue" d="M104.28,-168.41C87.47,-161.29 66.17,-149.47 54.06,-132 44.76,-118.59 42.09,-100.03 41.55,-86.17"/>
<polygon fill="midnightblue" stroke="midnightblue" points="45.05,-85.84 41.5,-75.85 38.05,-85.87 45.05,-85.84"/>
</g>
<!-- Node4 -->
<g id="node4" class="node">
<title>Node4</title>
<g id="a_node4"><a xlink:title=" ">
<polygon fill="none" stroke="#bfbfbf" points="79.56,-0.5 79.56,-19.5 120.56,-19.5 120.56,-0.5 79.56,-0.5"/>
<text text-anchor="middle" x="100.06" y="-7.5" font-family="Helvetica,sans-Serif" font-size="10.00">string</text>
</a>
</g>
</g>
<!-- Node1&#45;&gt;Node4 -->
<g id="edge9" class="edge">
<title>Node1&#45;&gt;Node4</title>
<path fill="none" stroke="midnightblue" d="M105.39,-168.44C86.75,-160.87 60.85,-148.48 42.06,-132 19.25,-112 12.14,-104.94 3.06,-76 0.4,-67.52 -1.73,-63.49 3.06,-56 17.61,-33.2 47.02,-21.78 69.65,-16.17"/>
<polygon fill="midnightblue" stroke="midnightblue" points="70.5,-19.57 79.5,-13.98 68.98,-12.73 70.5,-19.57"/>
</g>
<!-- Node5 -->
<g id="node5" class="node">
<title>Node5</title>
<g id="a_node5"><a xlink:href="../../de/d32/_token_8hpp.html" target="_top" xlink:title="Классы для работы с токенами анализатора">
<polygon fill="none" stroke="black" points="128.06,-56.5 128.06,-75.5 190.06,-75.5 190.06,-56.5 128.06,-56.5"/>
<text text-anchor="middle" x="159.06" y="-63.5" font-family="Helvetica,sans-Serif" font-size="10.00">Token.hpp</text>
</a>
</g>
</g>
<!-- Node1&#45;&gt;Node5 -->
<g id="edge10" class="edge">
<title>Node1&#45;&gt;Node5</title>
<path fill="none" stroke="midnightblue" d="M131.61,-168.39C134.28,-159.35 138.56,-144.7 142.06,-132 146.32,-116.52 150.91,-98.89 154.25,-85.9"/>
<polygon fill="midnightblue" stroke="midnightblue" points="157.73,-86.41 156.82,-75.85 150.95,-84.67 157.73,-86.41"/>
</g>
<!-- Node7 -->
<g id="node7" class="node">
<title>Node7</title>
<g id="a_node7"><a xlink:title=" ">
<polygon fill="none" stroke="#bfbfbf" points="189.56,-112.5 189.56,-131.5 258.56,-131.5 258.56,-112.5 189.56,-112.5"/>
<text text-anchor="middle" x="224.06" y="-119.5" font-family="Helvetica,sans-Serif" font-size="10.00">fmt/format.h</text>
</a>
</g>
</g>
<!-- Node1&#45;&gt;Node7 -->
<g id="edge7" class="edge">
<title>Node1&#45;&gt;Node7</title>
<path fill="none" stroke="midnightblue" d="M144.32,-168.32C159.28,-159.82 182.31,-146.73 199.78,-136.8"/>
<polygon fill="midnightblue" stroke="midnightblue" points="201.87,-139.64 208.83,-131.65 198.41,-133.55 201.87,-139.64"/>
</g>
<!-- Node8 -->
<g id="node8" class="node">
<title>Node8</title>
<g id="a_node8"><a xlink:title=" ">
<polygon fill="none" stroke="#bfbfbf" points="277.06,-112.5 277.06,-131.5 367.06,-131.5 367.06,-112.5 277.06,-112.5"/>
<text text-anchor="middle" x="322.06" y="-119.5" font-family="Helvetica,sans-Serif" font-size="10.00">magic_enum.hpp</text>
</a>
</g>
</g>
<!-- Node1&#45;&gt;Node8 -->
<g id="edge11" class="edge">
<title>Node1&#45;&gt;Node8</title>
<path fill="none" stroke="midnightblue" d="M159.64,-168.44C192.67,-159.2 245.44,-144.44 281.82,-134.26"/>
<polygon fill="midnightblue" stroke="midnightblue" points="282.93,-137.58 291.62,-131.52 281.05,-130.84 282.93,-137.58"/>
</g>
<!-- Node2&#45;&gt;Node3 -->
<g id="edge2" class="edge">
<title>Node2&#45;&gt;Node3</title>
<path fill="none" stroke="midnightblue" d="M89.06,-112.32C80.86,-104.42 68.55,-92.55 58.59,-82.94"/>
<polygon fill="midnightblue" stroke="midnightblue" points="60.85,-80.26 51.22,-75.83 55.99,-85.29 60.85,-80.26"/>
</g>
<!-- Node2&#45;&gt;Node4 -->
<g id="edge3" class="edge">
<title>Node2&#45;&gt;Node4</title>
<path fill="none" stroke="midnightblue" d="M98.21,-112.37C98.54,-94.62 99.28,-53.67 99.72,-29.6"/>
<polygon fill="midnightblue" stroke="midnightblue" points="103.22,-29.65 99.9,-19.59 96.22,-29.53 103.22,-29.65"/>
</g>
<!-- Node2&#45;&gt;Node5 -->
<g id="edge4" class="edge">
<title>Node2&#45;&gt;Node5</title>
<path fill="none" stroke="midnightblue" d="M107.86,-112.32C116.88,-104.34 130.46,-92.31 141.38,-82.65"/>
<polygon fill="midnightblue" stroke="midnightblue" points="143.91,-85.08 149.08,-75.83 139.27,-79.84 143.91,-85.08"/>
</g>
<!-- Node5&#45;&gt;Node4 -->
<g id="edge6" class="edge">
<title>Node5&#45;&gt;Node4</title>
<path fill="none" stroke="midnightblue" d="M149.58,-56.32C140.86,-48.34 127.71,-36.31 117.16,-26.65"/>
<polygon fill="midnightblue" stroke="midnightblue" points="119.45,-24 109.71,-19.83 114.72,-29.17 119.45,-24"/>
</g>
<!-- Node6 -->
<g id="node6" class="node">
<title>Node6</title>
<g id="a_node6"><a xlink:title=" ">
<polygon fill="none" stroke="#bfbfbf" points="139.06,-0.5 139.06,-19.5 179.06,-19.5 179.06,-0.5 139.06,-0.5"/>
<text text-anchor="middle" x="159.06" y="-7.5" font-family="Helvetica,sans-Serif" font-size="10.00">regex</text>
</a>
</g>
</g>
<!-- Node5&#45;&gt;Node6 -->
<g id="edge5" class="edge">
<title>Node5&#45;&gt;Node6</title>
<path fill="none" stroke="midnightblue" d="M159.06,-56.08C159.06,-49.01 159.06,-38.86 159.06,-29.99"/>
<polygon fill="midnightblue" stroke="midnightblue" points="162.56,-29.75 159.06,-19.75 155.56,-29.75 162.56,-29.75"/>
</g>
</g>
</svg>
