<?xml version="1.0" encoding="UTF-8" standalone="no"?>
<!DOCTYPE svg PUBLIC "-//W3C//DTD SVG 1.1//EN"
 "http://www.w3.org/Graphics/SVG/1.1/DTD/svg11.dtd">
<!-- Generated by graphviz version 2.43.0 (0)
 -->
<!-- Title: SyntaxAnalyzer::syntaxIfSt Pages: 1 -->
<svg width="1447pt" height="85pt"
 viewBox="0.00 0.00 1447.00 85.00" xmlns="http://www.w3.org/2000/svg" xmlns:xlink="http://www.w3.org/1999/xlink">
<g id="graph0" class="graph" transform="scale(1 1) rotate(0) translate(4 81)">
<title>SyntaxAnalyzer::syntaxIfSt</title>
<!-- Node1 -->
<g id="node1" class="node">
<title>Node1</title>
<g id="a_node1"><a xlink:title=" ">
<polygon fill="#bfbfbf" stroke="black" points="1290,-19.5 1290,-38.5 1439,-38.5 1439,-19.5 1290,-19.5"/>
<text text-anchor="middle" x="1364.5" y="-26.5" font-family="Helvetica,sans-Serif" font-size="10.00">SyntaxAnalyzer::syntaxIfSt</text>
</a>
</g>
</g>
<!-- Node2 -->
<g id="node2" class="node">
<title>Node2</title>
<g id="a_node2"><a xlink:href="../../d0/dfe/class_syntax_analyzer.html#affae37bc1fa3a4016dcffad4affbfcbd" target="_top" xlink:title=" ">
<polygon fill="none" stroke="black" points="1112,-19.5 1112,-38.5 1254,-38.5 1254,-19.5 1112,-19.5"/>
<text text-anchor="middle" x="1183" y="-26.5" font-family="Helvetica,sans-Serif" font-size="10.00">SyntaxAnalyzer::syntaxSt</text>
</a>
</g>
</g>
<!-- Node1&#45;&gt;Node2 -->
<g id="edge1" class="edge">
<title>Node1&#45;&gt;Node2</title>
<path fill="none" stroke="midnightblue" d="M1279.93,-22.26C1271.34,-22.22 1262.66,-22.27 1254.23,-22.39"/>
<polygon fill="midnightblue" stroke="midnightblue" points="1279.94,-25.76 1289.97,-22.35 1280,-18.76 1279.94,-25.76"/>
</g>
<!-- Node2&#45;&gt;Node1 -->
<g id="edge2" class="edge">
<title>Node2&#45;&gt;Node1</title>
<path fill="none" stroke="midnightblue" d="M1264.5,-35.72C1272.98,-35.78 1281.58,-35.75 1289.97,-35.65"/>
<polygon fill="midnightblue" stroke="midnightblue" points="1264.27,-32.22 1254.23,-35.61 1264.19,-39.21 1264.27,-32.22"/>
</g>
<!-- Node3 -->
<g id="node3" class="node">
<title>Node3</title>
<g id="a_node3"><a xlink:href="../../d0/dfe/class_syntax_analyzer.html#a79a0e444afd499634f445f0b8919dd0f" target="_top" xlink:title=" ">
<polygon fill="none" stroke="black" points="911.5,-57.5 911.5,-76.5 1070.5,-76.5 1070.5,-57.5 911.5,-57.5"/>
<text text-anchor="middle" x="991" y="-64.5" font-family="Helvetica,sans-Serif" font-size="10.00">SyntaxAnalyzer::syntaxStList</text>
</a>
</g>
</g>
<!-- Node2&#45;&gt;Node3 -->
<g id="edge3" class="edge">
<title>Node2&#45;&gt;Node3</title>
<path fill="none" stroke="midnightblue" d="M1123.95,-40.61C1096.93,-46.01 1065.18,-52.36 1039.6,-57.48"/>
<polygon fill="midnightblue" stroke="midnightblue" points="1124.94,-43.98 1134.05,-38.59 1123.56,-37.12 1124.94,-43.98"/>
</g>
<!-- Node10 -->
<g id="node10" class="node">
<title>Node10</title>
<g id="a_node10"><a xlink:href="../../d0/dfe/class_syntax_analyzer.html#a35bb1125afde4b827a0dd8f3bce8dc58" target="_top" xlink:title=" ">
<polygon fill="none" stroke="black" points="906,-19.5 906,-38.5 1076,-38.5 1076,-19.5 906,-19.5"/>
<text text-anchor="middle" x="991" y="-26.5" font-family="Helvetica,sans-Serif" font-size="10.00">SyntaxAnalyzer::syntaxWhileSt</text>
</a>
</g>
</g>
<!-- Node2&#45;&gt;Node10 -->
<g id="edge11" class="edge">
<title>Node2&#45;&gt;Node10</title>
<path fill="none" stroke="midnightblue" d="M1101.59,-22.32C1093.15,-22.24 1084.55,-22.23 1076.07,-22.29"/>
<polygon fill="midnightblue" stroke="midnightblue" points="1101.74,-25.82 1111.79,-22.46 1101.84,-18.82 1101.74,-25.82"/>
</g>
<!-- Node4 -->
<g id="node4" class="node">
<title>Node4</title>
<g id="a_node4"><a xlink:href="../../d0/dfe/class_syntax_analyzer.html#a2c0c19bfe9775405a5b6985cf1c8854c" target="_top" xlink:title=" ">
<polygon fill="none" stroke="black" points="676,-19.5 676,-38.5 870,-38.5 870,-19.5 676,-19.5"/>
<text text-anchor="middle" x="773" y="-26.5" font-family="Helvetica,sans-Serif" font-size="10.00">SyntaxAnalyzer::syntaxCompoundSt</text>
</a>
</g>
</g>
<!-- Node3&#45;&gt;Node4 -->
<g id="edge4" class="edge">
<title>Node3&#45;&gt;Node4</title>
<path fill="none" stroke="midnightblue" d="M925.91,-55.72C894.83,-50.26 857.91,-43.76 828.25,-38.54"/>
<polygon fill="midnightblue" stroke="midnightblue" points="925.32,-59.17 935.77,-57.46 926.53,-52.28 925.32,-59.17"/>
</g>
<!-- Node4&#45;&gt;Node2 -->
<g id="edge10" class="edge">
<title>Node4&#45;&gt;Node2</title>
<path fill="none" stroke="midnightblue" d="M837.79,-17.94C859.38,-14.7 883.67,-11.6 906,-10 981.36,-4.6 1000.74,-3.31 1076,-10 1096.86,-11.85 1119.75,-15.72 1138.91,-19.49"/>
<polygon fill="midnightblue" stroke="midnightblue" points="837.11,-14.5 827.76,-19.49 838.18,-21.42 837.11,-14.5"/>
</g>
<!-- Node5 -->
<g id="node5" class="node">
<title>Node5</title>
<g id="a_node5"><a xlink:href="../../d0/dfe/class_syntax_analyzer.html#aa93b0d722276e335971360e093f19a8e" target="_top" xlink:title=" ">
<polygon fill="none" stroke="black" points="481,-19.5 481,-38.5 640,-38.5 640,-19.5 481,-19.5"/>
<text text-anchor="middle" x="560.5" y="-26.5" font-family="Helvetica,sans-Serif" font-size="10.00">SyntaxAnalyzer::syntaxBlock</text>
</a>
</g>
</g>
<!-- Node4&#45;&gt;Node5 -->
<g id="edge5" class="edge">
<title>Node4&#45;&gt;Node5</title>
<path fill="none" stroke="midnightblue" d="M665.81,-29C657.13,-29 648.46,-29 640.03,-29"/>
<polygon fill="midnightblue" stroke="midnightblue" points="665.99,-32.5 675.99,-29 665.99,-25.5 665.99,-32.5"/>
</g>
<!-- Node6 -->
<g id="node6" class="node">
<title>Node6</title>
<g id="a_node6"><a xlink:href="../../d0/dfe/class_syntax_analyzer.html#aeb59cd0062ff3238bcf625c7e20fc5ec" target="_top" xlink:title=" ">
<polygon fill="none" stroke="black" points="272,-19.5 272,-38.5 445,-38.5 445,-19.5 272,-19.5"/>
<text text-anchor="middle" x="358.5" y="-26.5" font-family="Helvetica,sans-Serif" font-size="10.00">SyntaxAnalyzer::syntaxProgram</text>
</a>
</g>
</g>
<!-- Node5&#45;&gt;Node6 -->
<g id="edge6" class="edge">
<title>Node5&#45;&gt;Node6</title>
<path fill="none" stroke="midnightblue" d="M470.51,-29C462.07,-29 453.52,-29 445.11,-29"/>
<polygon fill="midnightblue" stroke="midnightblue" points="470.74,-32.5 480.74,-29 470.74,-25.5 470.74,-32.5"/>
</g>
<!-- Node7 -->
<g id="node7" class="node">
<title>Node7</title>
<g id="a_node7"><a xlink:href="../../d0/dfe/class_syntax_analyzer.html#a0472b9d7f2855f118acf9cb7c67ab5a7" target="_top" xlink:title=" ">
<polygon fill="none" stroke="black" points="77,-19.5 77,-38.5 236,-38.5 236,-19.5 77,-19.5"/>
<text text-anchor="middle" x="156.5" y="-26.5" font-family="Helvetica,sans-Serif" font-size="10.00">SyntaxAnalyzer::parseTokens</text>
</a>
</g>
</g>
<!-- Node6&#45;&gt;Node7 -->
<g id="edge7" class="edge">
<title>Node6&#45;&gt;Node7</title>
<path fill="none" stroke="midnightblue" d="M261.74,-29C253.14,-29 244.49,-29 236.05,-29"/>
<polygon fill="midnightblue" stroke="midnightblue" points="261.81,-32.5 271.81,-29 261.81,-25.5 261.81,-32.5"/>
</g>
<!-- Node8 -->
<g id="node8" class="node">
<title>Node8</title>
<g id="a_node8"><a xlink:href="../../df/d0a/main_8cpp.html#a3c04138a5bfe5d72780bb7e82a18e627" target="_top" xlink:title=" ">
<polygon fill="none" stroke="black" points="0,-38.5 0,-57.5 41,-57.5 41,-38.5 0,-38.5"/>
<text text-anchor="middle" x="20.5" y="-45.5" font-family="Helvetica,sans-Serif" font-size="10.00">main</text>
</a>
</g>
</g>
<!-- Node7&#45;&gt;Node8 -->
<g id="edge8" class="edge">
<title>Node7&#45;&gt;Node8</title>
<path fill="none" stroke="midnightblue" d="M78.06,-39.98C64.37,-41.92 51.27,-43.78 41.13,-45.22"/>
<polygon fill="midnightblue" stroke="midnightblue" points="78.7,-43.42 88.11,-38.56 77.72,-36.49 78.7,-43.42"/>
</g>
<!-- Node9 -->
<g id="node9" class="node">
<title>Node9</title>
<g id="a_node9"><a xlink:href="../../dd/de9/test_syntax_8cpp.html#ac491df98e51a6bba8b808af414b6614f" target="_top" xlink:title="Тест синтаксического анализа Паскаля, простой тест">
<polygon fill="none" stroke="black" points="0,-0.5 0,-19.5 41,-19.5 41,-0.5 0,-0.5"/>
<text text-anchor="middle" x="20.5" y="-7.5" font-family="Helvetica,sans-Serif" font-size="10.00">TEST</text>
</a>
</g>
</g>
<!-- Node7&#45;&gt;Node9 -->
<g id="edge9" class="edge">
<title>Node7&#45;&gt;Node9</title>
<path fill="none" stroke="midnightblue" d="M78.06,-18.02C64.37,-16.08 51.27,-14.22 41.13,-12.78"/>
<polygon fill="midnightblue" stroke="midnightblue" points="77.72,-21.51 88.11,-19.44 78.7,-14.58 77.72,-21.51"/>
</g>
<!-- Node10&#45;&gt;Node2 -->
<g id="edge12" class="edge">
<title>Node10&#45;&gt;Node2</title>
<path fill="none" stroke="midnightblue" d="M1086.18,-35.75C1094.8,-35.75 1103.43,-35.69 1111.79,-35.54"/>
<polygon fill="midnightblue" stroke="midnightblue" points="1086.09,-32.25 1076.07,-35.71 1086.06,-39.25 1086.09,-32.25"/>
</g>
</g>
</svg>
