<?xml version="1.0" encoding="UTF-8" standalone="no"?>
<!DOCTYPE svg PUBLIC "-//W3C//DTD SVG 1.1//EN"
 "http://www.w3.org/Graphics/SVG/1.1/DTD/svg11.dtd">
<!-- Generated by graphviz version 2.43.0 (0)
 -->
<!-- Title: SyntaxAnalyzer::syntaxTypeSpec Pages: 1 -->
<svg width="539pt" height="66pt"
 viewBox="0.00 0.00 539.00 66.00" xmlns="http://www.w3.org/2000/svg" xmlns:xlink="http://www.w3.org/1999/xlink">
<g id="graph0" class="graph" transform="scale(1 1) rotate(0) translate(4 62)">
<title>SyntaxAnalyzer::syntaxTypeSpec</title>
<!-- Node1 -->
<g id="node1" class="node">
<title>Node1</title>
<g id="a_node1"><a xlink:title=" ">
<polygon fill="#bfbfbf" stroke="black" points="0,-19.5 0,-38.5 178,-38.5 178,-19.5 0,-19.5"/>
<text text-anchor="middle" x="89" y="-26.5" font-family="Helvetica,sans-Serif" font-size="10.00">SyntaxAnalyzer::syntaxTypeSpec</text>
</a>
</g>
</g>
<!-- Node2 -->
<g id="node2" class="node">
<title>Node2</title>
<g id="a_node2"><a xlink:href="../../d0/dfe/class_syntax_analyzer.html#a5d17bcae2fd7dc11d0710e046c4c3280" target="_top" xlink:title=" ">
<polygon fill="none" stroke="black" points="214,-0.5 214,-19.5 329,-19.5 329,-0.5 214,-0.5"/>
<text text-anchor="middle" x="271.5" y="-7.5" font-family="Helvetica,sans-Serif" font-size="10.00">SyntaxAnalyzer::eat</text>
</a>
</g>
</g>
<!-- Node1&#45;&gt;Node2 -->
<g id="edge1" class="edge">
<title>Node1&#45;&gt;Node2</title>
<path fill="none" stroke="midnightblue" d="M178.13,-19.72C186.79,-18.81 195.47,-17.9 203.85,-17.02"/>
<polygon fill="midnightblue" stroke="midnightblue" points="204.34,-20.48 213.91,-15.96 203.6,-13.52 204.34,-20.48"/>
</g>
<!-- Node3 -->
<g id="node3" class="node">
<title>Node3</title>
<g id="a_node3"><a xlink:href="../../d0/dfe/class_syntax_analyzer.html#a3ae6c7319e61cd669c417f189b098374" target="_top" xlink:title=" ">
<polygon fill="none" stroke="black" points="374,-38.5 374,-57.5 522,-57.5 522,-38.5 374,-38.5"/>
<text text-anchor="middle" x="448" y="-45.5" font-family="Helvetica,sans-Serif" font-size="10.00">SyntaxAnalyzer::getCurTok</text>
</a>
</g>
</g>
<!-- Node1&#45;&gt;Node3 -->
<g id="edge4" class="edge">
<title>Node1&#45;&gt;Node3</title>
<path fill="none" stroke="midnightblue" d="M178.25,-33.7C234.91,-36.71 308.04,-40.6 363.7,-43.57"/>
<polygon fill="midnightblue" stroke="midnightblue" points="363.71,-47.07 373.89,-44.11 364.09,-40.08 363.71,-47.07"/>
</g>
<!-- Node2&#45;&gt;Node3 -->
<g id="edge2" class="edge">
<title>Node2&#45;&gt;Node3</title>
<path fill="none" stroke="midnightblue" d="M316.53,-19.59C339.87,-24.67 368.73,-30.96 393.37,-36.32"/>
<polygon fill="midnightblue" stroke="midnightblue" points="392.77,-39.77 403.28,-38.48 394.26,-32.93 392.77,-39.77"/>
</g>
<!-- Node4 -->
<g id="node4" class="node">
<title>Node4</title>
<g id="a_node4"><a xlink:href="../../d0/dfe/class_syntax_analyzer.html#a9e41370d8d74fbd2e77648d2071e7dfe" target="_top" xlink:title=" ">
<polygon fill="none" stroke="black" points="365,-0.5 365,-19.5 531,-19.5 531,-0.5 365,-0.5"/>
<text text-anchor="middle" x="448" y="-7.5" font-family="Helvetica,sans-Serif" font-size="10.00">SyntaxAnalyzer::getNextToken</text>
</a>
</g>
</g>
<!-- Node2&#45;&gt;Node4 -->
<g id="edge3" class="edge">
<title>Node2&#45;&gt;Node4</title>
<path fill="none" stroke="midnightblue" d="M329.16,-10C337.38,-10 346.02,-10 354.73,-10"/>
<polygon fill="midnightblue" stroke="midnightblue" points="354.96,-13.5 364.96,-10 354.96,-6.5 354.96,-13.5"/>
</g>
</g>
</svg>
