<?xml version="1.0" encoding="UTF-8" standalone="no"?>
<!DOCTYPE svg PUBLIC "-//W3C//DTD SVG 1.1//EN"
 "http://www.w3.org/Graphics/SVG/1.1/DTD/svg11.dtd">
<!-- Generated by graphviz version 2.43.0 (0)
 -->
<!-- Title: SyntaxAnalyzer::syntaxExpr Pages: 1 -->
<svg width="1336pt" height="578pt"
 viewBox="0.00 0.00 1336.00 578.00" xmlns="http://www.w3.org/2000/svg" xmlns:xlink="http://www.w3.org/1999/xlink">
<g id="graph0" class="graph" transform="scale(1 1) rotate(0) translate(4 574)">
<title>SyntaxAnalyzer::syntaxExpr</title>
<!-- Node1 -->
<g id="node1" class="node">
<title>Node1</title>
<g id="a_node1"><a xlink:title=" ">
<polygon fill="#bfbfbf" stroke="black" points="0,-446.5 0,-465.5 154,-465.5 154,-446.5 0,-446.5"/>
<text text-anchor="middle" x="77" y="-453.5" font-family="Helvetica,sans-Serif" font-size="10.00">SyntaxAnalyzer::syntaxExpr</text>
</a>
</g>
</g>
<!-- Node2 -->
<g id="node2" class="node">
<title>Node2</title>
<g id="a_node2"><a xlink:href="../../d0/dfe/class_syntax_analyzer.html#a5d17bcae2fd7dc11d0710e046c4c3280" target="_top" xlink:title=" ">
<polygon fill="none" stroke="black" points="1011,-446.5 1011,-465.5 1126,-465.5 1126,-446.5 1011,-446.5"/>
<text text-anchor="middle" x="1068.5" y="-453.5" font-family="Helvetica,sans-Serif" font-size="10.00">SyntaxAnalyzer::eat</text>
</a>
</g>
</g>
<!-- Node1&#45;&gt;Node2 -->
<g id="edge1" class="edge">
<title>Node1&#45;&gt;Node2</title>
<path fill="none" stroke="midnightblue" d="M93.33,-465.59C114.35,-478.31 153.66,-500.59 190,-513 318.85,-556.99 354.84,-570 491,-570 491,-570 491,-570 687.5,-570 818.91,-570 851.3,-545.34 975,-501 998.33,-492.64 1023.56,-480.11 1041.76,-470.4"/>
<polygon fill="midnightblue" stroke="midnightblue" points="1043.47,-473.45 1050.6,-465.61 1040.14,-467.3 1043.47,-473.45"/>
</g>
<!-- Node3 -->
<g id="node3" class="node">
<title>Node3</title>
<g id="a_node3"><a xlink:href="../../d0/dfe/class_syntax_analyzer.html#a3ae6c7319e61cd669c417f189b098374" target="_top" xlink:title=" ">
<polygon fill="none" stroke="black" points="1171,-332.5 1171,-351.5 1319,-351.5 1319,-332.5 1171,-332.5"/>
<text text-anchor="middle" x="1245" y="-339.5" font-family="Helvetica,sans-Serif" font-size="10.00">SyntaxAnalyzer::getCurTok</text>
</a>
</g>
</g>
<!-- Node1&#45;&gt;Node3 -->
<g id="edge4" class="edge">
<title>Node1&#45;&gt;Node3</title>
<path fill="none" stroke="midnightblue" d="M79.39,-446.45C85.49,-407.67 113.03,-259.77 190,-171 290.79,-54.75 337.14,0 491,0 491,0 491,0 890,0 999.92,0 1044.08,-0.7 1126,-74 1203.5,-143.35 1232.49,-272.99 1241.01,-322.29"/>
<polygon fill="midnightblue" stroke="midnightblue" points="1237.57,-322.98 1242.64,-332.28 1244.48,-321.85 1237.57,-322.98"/>
</g>
<!-- Node5 -->
<g id="node5" class="node">
<title>Node5</title>
<g id="a_node5"><a xlink:href="../../d0/d11/class_i_token.html#a568cb9d98839eff3fd758f419a76b092" target="_top" xlink:title="Получение типа токена">
<polygon fill="none" stroke="black" points="1022.5,-142.5 1022.5,-161.5 1114.5,-161.5 1114.5,-142.5 1022.5,-142.5"/>
<text text-anchor="middle" x="1068.5" y="-149.5" font-family="Helvetica,sans-Serif" font-size="10.00">IToken::getType</text>
</a>
</g>
</g>
<!-- Node1&#45;&gt;Node5 -->
<g id="edge5" class="edge">
<title>Node1&#45;&gt;Node5</title>
<path fill="none" stroke="midnightblue" d="M85.23,-446.3C117.76,-403.42 255.91,-229.75 414,-154 639.4,-46 729.57,-67.74 975,-115 997.79,-119.39 1022.09,-129.34 1040.07,-137.82"/>
<polygon fill="midnightblue" stroke="midnightblue" points="1038.83,-141.11 1049.35,-142.33 1041.89,-134.81 1038.83,-141.11"/>
</g>
<!-- Node6 -->
<g id="node6" class="node">
<title>Node6</title>
<g id="a_node6"><a xlink:href="../../df/d3f/_syntax_8hpp.html#ae7d62ca130413d4c96863327c1af81a4" target="_top" xlink:title="Возвращает истину, если value находится среди значений cont.">
<polygon fill="none" stroke="black" points="669.5,-446.5 669.5,-465.5 703.5,-465.5 703.5,-446.5 669.5,-446.5"/>
<text text-anchor="middle" x="686.5" y="-453.5" font-family="Helvetica,sans-Serif" font-size="10.00">isIn</text>
</a>
</g>
</g>
<!-- Node1&#45;&gt;Node6 -->
<g id="edge6" class="edge">
<title>Node1&#45;&gt;Node6</title>
<path fill="none" stroke="midnightblue" d="M143.02,-465.52C158.39,-467.38 174.74,-469.05 190,-470 358.56,-480.49 401.42,-480.18 570,-470 600.81,-468.14 635.99,-463.51 659.34,-460.08"/>
<polygon fill="midnightblue" stroke="midnightblue" points="660.12,-463.51 669.49,-458.56 659.08,-456.58 660.12,-463.51"/>
</g>
<!-- Node7 -->
<g id="node7" class="node">
<title>Node7</title>
<g id="a_node7"><a xlink:href="../../d0/dfe/class_syntax_analyzer.html#a920d9565d4aa2e3815ff9e7146f45a0b" target="_top" xlink:title=" ">
<polygon fill="none" stroke="black" points="190,-351.5 190,-370.5 378,-370.5 378,-351.5 190,-351.5"/>
<text text-anchor="middle" x="284" y="-358.5" font-family="Helvetica,sans-Serif" font-size="10.00">SyntaxAnalyzer::syntaxSimpleExpr</text>
</a>
</g>
</g>
<!-- Node1&#45;&gt;Node7 -->
<g id="edge7" class="edge">
<title>Node1&#45;&gt;Node7</title>
<path fill="none" stroke="midnightblue" d="M98.78,-446.37C135.33,-429.43 211.21,-394.27 253.28,-374.77"/>
<polygon fill="midnightblue" stroke="midnightblue" points="254.86,-377.9 262.47,-370.52 251.92,-371.55 254.86,-377.9"/>
</g>
<!-- Node2&#45;&gt;Node3 -->
<g id="edge2" class="edge">
<title>Node2&#45;&gt;Node3</title>
<path fill="none" stroke="midnightblue" d="M1095.75,-446.44C1105.51,-442.48 1116.51,-437.52 1126,-432 1163.72,-410.07 1203.18,-377.76 1225.56,-358.41"/>
<polygon fill="midnightblue" stroke="midnightblue" points="1228.04,-360.89 1233.27,-351.68 1223.44,-355.62 1228.04,-360.89"/>
</g>
<!-- Node4 -->
<g id="node4" class="node">
<title>Node4</title>
<g id="a_node4"><a xlink:href="../../d0/dfe/class_syntax_analyzer.html#a9e41370d8d74fbd2e77648d2071e7dfe" target="_top" xlink:title=" ">
<polygon fill="none" stroke="black" points="1162,-446.5 1162,-465.5 1328,-465.5 1328,-446.5 1162,-446.5"/>
<text text-anchor="middle" x="1245" y="-453.5" font-family="Helvetica,sans-Serif" font-size="10.00">SyntaxAnalyzer::getNextToken</text>
</a>
</g>
</g>
<!-- Node2&#45;&gt;Node4 -->
<g id="edge3" class="edge">
<title>Node2&#45;&gt;Node4</title>
<path fill="none" stroke="midnightblue" d="M1126.16,-456C1134.38,-456 1143.02,-456 1151.73,-456"/>
<polygon fill="midnightblue" stroke="midnightblue" points="1151.96,-459.5 1161.96,-456 1151.96,-452.5 1151.96,-459.5"/>
</g>
<!-- Node7&#45;&gt;Node2 -->
<g id="edge8" class="edge">
<title>Node7&#45;&gt;Node2</title>
<path fill="none" stroke="midnightblue" d="M305.44,-370.63C355.4,-393.64 488.25,-451.62 606,-475 691.99,-492.07 715.36,-482.78 803,-485 879.42,-486.94 899.44,-496.57 975,-485 995.16,-481.91 1016.97,-475.25 1034.34,-469.09"/>
<polygon fill="midnightblue" stroke="midnightblue" points="1035.83,-472.27 1044.01,-465.55 1033.42,-465.7 1035.83,-472.27"/>
</g>
<!-- Node7&#45;&gt;Node3 -->
<g id="edge9" class="edge">
<title>Node7&#45;&gt;Node3</title>
<path fill="none" stroke="midnightblue" d="M287.95,-351.23C298.64,-317.61 338.74,-205.98 414,-154 485.58,-104.56 519.45,-124.7 606,-116 836.07,-92.86 933.57,-4.79 1126,-133 1195.08,-179.02 1228.1,-279.97 1239.35,-322.5"/>
<polygon fill="midnightblue" stroke="midnightblue" points="1236.02,-323.58 1241.86,-332.42 1242.8,-321.86 1236.02,-323.58"/>
</g>
<!-- Node7&#45;&gt;Node5 -->
<g id="edge10" class="edge">
<title>Node7&#45;&gt;Node5</title>
<path fill="none" stroke="midnightblue" d="M294.36,-351.46C330.43,-315.48 465.36,-187.86 606,-144 748.21,-99.65 927.23,-123.93 1014.61,-140.55"/>
<polygon fill="midnightblue" stroke="midnightblue" points="1014.07,-144.01 1024.56,-142.48 1015.41,-137.14 1014.07,-144.01"/>
</g>
<!-- Node7&#45;&gt;Node6 -->
<g id="edge11" class="edge">
<title>Node7&#45;&gt;Node6</title>
<path fill="none" stroke="midnightblue" d="M378.1,-363.16C435.43,-367.33 509.3,-377.95 570,-404 588.63,-411.99 587.99,-422.69 606,-432 622.91,-440.74 643.54,-446.85 659.54,-450.72"/>
<polygon fill="midnightblue" stroke="midnightblue" points="658.77,-454.14 669.3,-452.94 660.33,-447.31 658.77,-454.14"/>
</g>
<!-- Node8 -->
<g id="node8" class="node">
<title>Node8</title>
<g id="a_node8"><a xlink:href="../../d0/dfe/class_syntax_analyzer.html#a7721cf7d36d549f81fd05c40dba02f67" target="_top" xlink:title=" ">
<polygon fill="none" stroke="black" points="414,-332.5 414,-351.5 570,-351.5 570,-332.5 414,-332.5"/>
<text text-anchor="middle" x="492" y="-339.5" font-family="Helvetica,sans-Serif" font-size="10.00">SyntaxAnalyzer::syntaxTerm</text>
</a>
</g>
</g>
<!-- Node7&#45;&gt;Node8 -->
<g id="edge12" class="edge">
<title>Node7&#45;&gt;Node8</title>
<path fill="none" stroke="midnightblue" d="M378.06,-352.42C386.55,-351.63 395.13,-350.84 403.56,-350.06"/>
<polygon fill="midnightblue" stroke="midnightblue" points="404.14,-353.53 413.77,-349.12 403.49,-346.56 404.14,-353.53"/>
</g>
<!-- Node8&#45;&gt;Node2 -->
<g id="edge13" class="edge">
<title>Node8&#45;&gt;Node2</title>
<path fill="none" stroke="midnightblue" d="M530.8,-351.56C543.35,-354.93 557.34,-358.91 570,-363 658.99,-391.78 684.98,-392.04 767,-437 784.54,-446.61 784.03,-457.68 803,-464 874.65,-487.88 963.36,-477.79 1017.67,-467.51"/>
<polygon fill="midnightblue" stroke="midnightblue" points="1018.59,-470.9 1027.72,-465.53 1017.24,-464.03 1018.59,-470.9"/>
</g>
<!-- Node8&#45;&gt;Node3 -->
<g id="edge14" class="edge">
<title>Node8&#45;&gt;Node3</title>
<path fill="none" stroke="midnightblue" d="M507.98,-332.36C579.81,-287.45 895.05,-105.16 1126,-209 1178.59,-232.64 1217.25,-292.59 1234.32,-323.28"/>
<polygon fill="midnightblue" stroke="midnightblue" points="1231.26,-324.99 1239.09,-332.13 1237.43,-321.66 1231.26,-324.99"/>
</g>
<!-- Node8&#45;&gt;Node5 -->
<g id="edge15" class="edge">
<title>Node8&#45;&gt;Node5</title>
<path fill="none" stroke="midnightblue" d="M496.16,-332.19C506.36,-302.3 541.59,-212.24 606,-176 674.01,-137.73 905.12,-143.76 1012.2,-148.87"/>
<polygon fill="midnightblue" stroke="midnightblue" points="1012.32,-152.38 1022.48,-149.37 1012.66,-145.39 1012.32,-152.38"/>
</g>
<!-- Node8&#45;&gt;Node6 -->
<g id="edge16" class="edge">
<title>Node8&#45;&gt;Node6</title>
<path fill="none" stroke="midnightblue" d="M543.47,-351.61C552.97,-355.04 562.31,-359.7 570,-366 595.84,-387.19 580.07,-410.93 606,-432 621.05,-444.23 642.24,-450.23 658.96,-453.18"/>
<polygon fill="midnightblue" stroke="midnightblue" points="658.78,-456.69 669.19,-454.71 659.81,-449.77 658.78,-456.69"/>
</g>
<!-- Node9 -->
<g id="node9" class="node">
<title>Node9</title>
<g id="a_node9"><a xlink:href="../../d0/dfe/class_syntax_analyzer.html#ab9b415ddd671b4884ab31cdf194f6c64" target="_top" xlink:title=" ">
<polygon fill="none" stroke="black" points="606,-332.5 606,-351.5 767,-351.5 767,-332.5 606,-332.5"/>
<text text-anchor="middle" x="686.5" y="-339.5" font-family="Helvetica,sans-Serif" font-size="10.00">SyntaxAnalyzer::syntaxFactor</text>
</a>
</g>
</g>
<!-- Node8&#45;&gt;Node9 -->
<g id="edge17" class="edge">
<title>Node8&#45;&gt;Node9</title>
<path fill="none" stroke="midnightblue" d="M570.19,-342C578.52,-342 587.04,-342 595.51,-342"/>
<polygon fill="midnightblue" stroke="midnightblue" points="595.78,-345.5 605.78,-342 595.78,-338.5 595.78,-345.5"/>
</g>
<!-- Node9&#45;&gt;Node1 -->
<g id="edge31" class="edge">
<title>Node9&#45;&gt;Node1</title>
<path fill="none" stroke="midnightblue" d="M634.47,-351.58C523.09,-372.48 258.65,-422.1 138.85,-444.58"/>
<polygon fill="midnightblue" stroke="midnightblue" points="137.93,-441.19 128.75,-446.48 139.22,-448.07 137.93,-441.19"/>
</g>
<!-- Node9&#45;&gt;Node2 -->
<g id="edge18" class="edge">
<title>Node9&#45;&gt;Node2</title>
<path fill="none" stroke="midnightblue" d="M700.42,-351.57C716.35,-363.5 744.15,-384.67 767,-404 783.57,-418.02 783.07,-428.41 803,-437 866.09,-464.18 945.49,-466.13 1000.76,-463.03"/>
<polygon fill="midnightblue" stroke="midnightblue" points="1001.03,-466.52 1010.79,-462.4 1000.59,-459.53 1001.03,-466.52"/>
</g>
<!-- Node9&#45;&gt;Node3 -->
<g id="edge19" class="edge">
<title>Node9&#45;&gt;Node3</title>
<path fill="none" stroke="midnightblue" d="M767.23,-342C871.76,-342 1054.26,-342 1160.58,-342"/>
<polygon fill="midnightblue" stroke="midnightblue" points="1160.63,-345.5 1170.63,-342 1160.63,-338.5 1160.63,-345.5"/>
</g>
<!-- Node9&#45;&gt;Node5 -->
<g id="edge24" class="edge">
<title>Node9&#45;&gt;Node5</title>
<path fill="none" stroke="midnightblue" d="M696.84,-332.36C715.46,-313.61 759.2,-271.88 803,-247 873.29,-207.07 963.39,-179.03 1018.22,-164.22"/>
<polygon fill="midnightblue" stroke="midnightblue" points="1019.27,-167.56 1028.03,-161.61 1017.47,-160.8 1019.27,-167.56"/>
</g>
<!-- Node10 -->
<g id="node10" class="node">
<title>Node10</title>
<g id="a_node10"><a xlink:href="../../db/dc1/class_token.html#a014ced0a9ea72ae21fad0d4f116d0a73" target="_top" xlink:title=" ">
<polygon fill="none" stroke="black" points="846.5,-294.5 846.5,-313.5 931.5,-313.5 931.5,-294.5 846.5,-294.5"/>
<text text-anchor="middle" x="889" y="-301.5" font-family="Helvetica,sans-Serif" font-size="10.00">Token::getInfo</text>
</a>
</g>
</g>
<!-- Node9&#45;&gt;Node10 -->
<g id="edge20" class="edge">
<title>Node9&#45;&gt;Node10</title>
<path fill="none" stroke="midnightblue" d="M737.84,-332.46C767.96,-326.75 806.14,-319.51 836.47,-313.77"/>
<polygon fill="midnightblue" stroke="midnightblue" points="837.26,-317.18 846.43,-311.88 835.96,-310.3 837.26,-317.18"/>
</g>
<!-- Node13 -->
<g id="node13" class="node">
<title>Node13</title>
<g id="a_node13"><a xlink:href="../../d0/dfe/class_syntax_analyzer.html#af0905389742c4f842207bb2c073afbfa" target="_top" xlink:title=" ">
<polygon fill="none" stroke="black" points="811.5,-256.5 811.5,-275.5 966.5,-275.5 966.5,-256.5 811.5,-256.5"/>
<text text-anchor="middle" x="889" y="-263.5" font-family="Helvetica,sans-Serif" font-size="10.00">SyntaxAnalyzer::lookFoward</text>
</a>
</g>
</g>
<!-- Node9&#45;&gt;Node13 -->
<g id="edge25" class="edge">
<title>Node9&#45;&gt;Node13</title>
<path fill="none" stroke="midnightblue" d="M703.79,-332.4C725.67,-319.88 766.1,-298.02 803,-285 810.42,-282.38 818.33,-280.04 826.24,-277.98"/>
<polygon fill="midnightblue" stroke="midnightblue" points="827.34,-281.31 836.2,-275.51 825.65,-274.52 827.34,-281.31"/>
</g>
<!-- Node15 -->
<g id="node15" class="node">
<title>Node15</title>
<g id="a_node15"><a xlink:href="../../d0/dfe/class_syntax_analyzer.html#a9321de68e44f3918a71256a3c1cd481b" target="_top" xlink:title=" ">
<polygon fill="none" stroke="black" points="808.5,-408.5 808.5,-427.5 969.5,-427.5 969.5,-408.5 808.5,-408.5"/>
<text text-anchor="middle" x="889" y="-415.5" font-family="Helvetica,sans-Serif" font-size="10.00">SyntaxAnalyzer::syntaxCallSt</text>
</a>
</g>
</g>
<!-- Node9&#45;&gt;Node15 -->
<g id="edge27" class="edge">
<title>Node9&#45;&gt;Node15</title>
<path fill="none" stroke="midnightblue" d="M703.79,-351.6C725.67,-364.12 766.1,-385.98 803,-399 810.42,-401.62 818.33,-403.96 826.24,-406.02"/>
<polygon fill="midnightblue" stroke="midnightblue" points="825.65,-409.48 836.2,-408.49 827.34,-402.69 825.65,-409.48"/>
</g>
<!-- Node16 -->
<g id="node16" class="node">
<title>Node16</title>
<g id="a_node16"><a xlink:href="../../d0/dfe/class_syntax_analyzer.html#a8d3dc6feefe1957f1c81cbc7b8318559" target="_top" xlink:title=" ">
<polygon fill="none" stroke="black" points="803,-370.5 803,-389.5 975,-389.5 975,-370.5 803,-370.5"/>
<text text-anchor="middle" x="889" y="-377.5" font-family="Helvetica,sans-Serif" font-size="10.00">SyntaxAnalyzer::syntaxVariable</text>
</a>
</g>
</g>
<!-- Node9&#45;&gt;Node16 -->
<g id="edge32" class="edge">
<title>Node9&#45;&gt;Node16</title>
<path fill="none" stroke="midnightblue" d="M737.84,-351.54C765.13,-356.71 799.04,-363.14 827.73,-368.58"/>
<polygon fill="midnightblue" stroke="midnightblue" points="827.17,-372.03 837.64,-370.46 828.47,-365.16 827.17,-372.03"/>
</g>
<!-- Node10&#45;&gt;Node5 -->
<g id="edge22" class="edge">
<title>Node10&#45;&gt;Node5</title>
<path fill="none" stroke="midnightblue" d="M931.75,-302.17C946.7,-299.7 962.83,-294.72 975,-285 1004.2,-261.67 989.54,-239.6 1011,-209 1021.66,-193.8 1036.53,-178.98 1048.34,-168.26"/>
<polygon fill="midnightblue" stroke="midnightblue" points="1050.77,-170.79 1055.94,-161.55 1046.13,-165.55 1050.77,-170.79"/>
</g>
<!-- Node11 -->
<g id="node11" class="node">
<title>Node11</title>
<g id="a_node11"><a xlink:href="../../db/dc1/class_token.html#a942fcc40ffdf54c98b7b641c792a26bc" target="_top" xlink:title="Возвращает константную ссылку на строковое представление токена">
<polygon fill="none" stroke="black" points="1028.5,-256.5 1028.5,-275.5 1108.5,-275.5 1108.5,-256.5 1028.5,-256.5"/>
<text text-anchor="middle" x="1068.5" y="-263.5" font-family="Helvetica,sans-Serif" font-size="10.00">Token::getStr</text>
</a>
</g>
</g>
<!-- Node10&#45;&gt;Node11 -->
<g id="edge21" class="edge">
<title>Node10&#45;&gt;Node11</title>
<path fill="none" stroke="midnightblue" d="M931.62,-295.09C957.51,-289.55 990.95,-282.39 1018.17,-276.56"/>
<polygon fill="midnightblue" stroke="midnightblue" points="1019.23,-279.91 1028.27,-274.4 1017.76,-273.07 1019.23,-279.91"/>
</g>
<!-- Node12 -->
<g id="node12" class="node">
<title>Node12</title>
<g id="a_node12"><a xlink:href="../../db/dc1/class_token.html#af3b5fdf2261d637af820d4adb62e6109" target="_top" xlink:title=" ">
<polygon fill="none" stroke="black" points="1034.5,-294.5 1034.5,-313.5 1102.5,-313.5 1102.5,-294.5 1034.5,-294.5"/>
<text text-anchor="middle" x="1068.5" y="-301.5" font-family="Helvetica,sans-Serif" font-size="10.00">Token::line</text>
</a>
</g>
</g>
<!-- Node10&#45;&gt;Node12 -->
<g id="edge23" class="edge">
<title>Node10&#45;&gt;Node12</title>
<path fill="none" stroke="midnightblue" d="M931.62,-304C959.42,-304 995.92,-304 1024.08,-304"/>
<polygon fill="midnightblue" stroke="midnightblue" points="1024.44,-307.5 1034.44,-304 1024.44,-300.5 1024.44,-307.5"/>
</g>
<!-- Node14 -->
<g id="node14" class="node">
<title>Node14</title>
<g id="a_node14"><a xlink:href="../../d1/d34/class_list.html#a49c179636e084dfbf7a52acd46acaf01" target="_top" xlink:title=" ">
<polygon fill="none" stroke="black" points="1039,-218.5 1039,-237.5 1098,-237.5 1098,-218.5 1039,-218.5"/>
<text text-anchor="middle" x="1068.5" y="-225.5" font-family="Helvetica,sans-Serif" font-size="10.00">List::size</text>
</a>
</g>
</g>
<!-- Node13&#45;&gt;Node14 -->
<g id="edge26" class="edge">
<title>Node13&#45;&gt;Node14</title>
<path fill="none" stroke="midnightblue" d="M934.79,-256.41C963.75,-250.21 1001.06,-242.22 1028.75,-236.3"/>
<polygon fill="midnightblue" stroke="midnightblue" points="1029.8,-239.65 1038.85,-234.13 1028.33,-232.81 1029.8,-239.65"/>
</g>
<!-- Node15&#45;&gt;Node1 -->
<g id="edge30" class="edge">
<title>Node15&#45;&gt;Node1</title>
<path fill="none" stroke="midnightblue" d="M872.67,-427.57C850.38,-440.93 807.27,-464.69 767,-475 518.51,-538.59 444.17,-521.53 190,-487 164.28,-483.51 136.14,-475.7 114.49,-468.79"/>
<polygon fill="midnightblue" stroke="midnightblue" points="115.32,-465.38 104.73,-465.6 113.15,-472.03 115.32,-465.38"/>
</g>
<!-- Node15&#45;&gt;Node2 -->
<g id="edge28" class="edge">
<title>Node15&#45;&gt;Node2</title>
<path fill="none" stroke="midnightblue" d="M934.79,-427.59C958.53,-432.67 987.88,-438.96 1012.94,-444.32"/>
<polygon fill="midnightblue" stroke="midnightblue" points="1012.52,-447.81 1023.03,-446.48 1013.99,-440.96 1012.52,-447.81"/>
</g>
<!-- Node15&#45;&gt;Node3 -->
<g id="edge29" class="edge">
<title>Node15&#45;&gt;Node3</title>
<path fill="none" stroke="midnightblue" d="M950.95,-408.49C998.79,-400.64 1066.95,-388.61 1126,-375 1151.82,-369.05 1180.45,-361.08 1203.05,-354.46"/>
<polygon fill="midnightblue" stroke="midnightblue" points="1204.05,-357.81 1212.65,-351.62 1202.07,-351.1 1204.05,-357.81"/>
</g>
<!-- Node16&#45;&gt;Node2 -->
<g id="edge33" class="edge">
<title>Node16&#45;&gt;Node2</title>
<path fill="none" stroke="midnightblue" d="M945.23,-389.54C955.32,-392.07 965.61,-395.18 975,-399 1001.19,-409.65 1028.42,-427.36 1046.49,-440.22"/>
<polygon fill="midnightblue" stroke="midnightblue" points="1044.91,-443.4 1055.06,-446.44 1049.02,-437.73 1044.91,-443.4"/>
</g>
<!-- Node16&#45;&gt;Node3 -->
<g id="edge34" class="edge">
<title>Node16&#45;&gt;Node3</title>
<path fill="none" stroke="midnightblue" d="M975.24,-371.68C1020.12,-367.21 1076.06,-361.5 1126,-356 1137.18,-354.77 1148.95,-353.43 1160.56,-352.08"/>
<polygon fill="midnightblue" stroke="midnightblue" points="1161.16,-355.53 1170.69,-350.89 1160.35,-348.58 1161.16,-355.53"/>
</g>
</g>
</svg>
