<?xml version="1.0" encoding="UTF-8" standalone="no"?>
<!DOCTYPE svg PUBLIC "-//W3C//DTD SVG 1.1//EN"
 "http://www.w3.org/Graphics/SVG/1.1/DTD/svg11.dtd">
<!-- Generated by graphviz version 2.43.0 (0)
 -->
<!-- Title: SyntaxAnalyzer::syntaxStList Pages: 1 -->
<svg width="1939pt" height="1052pt"
 viewBox="0.00 0.00 1939.00 1051.69" xmlns="http://www.w3.org/2000/svg" xmlns:xlink="http://www.w3.org/1999/xlink">
<g id="graph0" class="graph" transform="scale(1 1) rotate(0) translate(4 1047.69)">
<title>SyntaxAnalyzer::syntaxStList</title>
<!-- Node1 -->
<g id="node1" class="node">
<title>Node1</title>
<g id="a_node1"><a xlink:title=" ">
<polygon fill="#bfbfbf" stroke="black" points="0,-834.19 0,-853.19 159,-853.19 159,-834.19 0,-834.19"/>
<text text-anchor="middle" x="79.5" y="-841.19" font-family="Helvetica,sans-Serif" font-size="10.00">SyntaxAnalyzer::syntaxStList</text>
</a>
</g>
</g>
<!-- Node2 -->
<g id="node2" class="node">
<title>Node2</title>
<g id="a_node2"><a xlink:href="../../d0/dfe/class_syntax_analyzer.html#a5d17bcae2fd7dc11d0710e046c4c3280" target="_top" xlink:title=" ">
<polygon fill="none" stroke="black" points="1614,-720.19 1614,-739.19 1729,-739.19 1729,-720.19 1614,-720.19"/>
<text text-anchor="middle" x="1671.5" y="-727.19" font-family="Helvetica,sans-Serif" font-size="10.00">SyntaxAnalyzer::eat</text>
</a>
</g>
</g>
<!-- Node1&#45;&gt;Node2 -->
<g id="edge1" class="edge">
<title>Node1&#45;&gt;Node2</title>
<path fill="none" stroke="midnightblue" d="M98.93,-853.21C153.73,-880.61 321.04,-957.69 469,-957.69 469,-957.69 469,-957.69 1290.5,-957.69 1419.17,-957.69 1473.41,-998.64 1578,-923.69 1637.6,-880.98 1660.21,-789.52 1667.49,-749.32"/>
<polygon fill="midnightblue" stroke="midnightblue" points="1670.95,-749.87 1669.16,-739.43 1664.05,-748.71 1670.95,-749.87"/>
</g>
<!-- Node3 -->
<g id="node3" class="node">
<title>Node3</title>
<g id="a_node3"><a xlink:href="../../d0/dfe/class_syntax_analyzer.html#a3ae6c7319e61cd669c417f189b098374" target="_top" xlink:title=" ">
<polygon fill="none" stroke="black" points="1774,-226.19 1774,-245.19 1922,-245.19 1922,-226.19 1774,-226.19"/>
<text text-anchor="middle" x="1848" y="-233.19" font-family="Helvetica,sans-Serif" font-size="10.00">SyntaxAnalyzer::getCurTok</text>
</a>
</g>
</g>
<!-- Node1&#45;&gt;Node3 -->
<g id="edge4" class="edge">
<title>Node1&#45;&gt;Node3</title>
<path fill="none" stroke="midnightblue" d="M80.36,-834.01C79.54,-740.93 85.29,-7.69 469,-7.69 469,-7.69 469,-7.69 1493,-7.69 1598.62,-7.69 1640.53,22.01 1729,-35.69 1795.81,-79.27 1829.84,-174.96 1841.84,-216.17"/>
<polygon fill="midnightblue" stroke="midnightblue" points="1838.54,-217.36 1844.6,-226.05 1845.28,-215.48 1838.54,-217.36"/>
</g>
<!-- Node5 -->
<g id="node5" class="node">
<title>Node5</title>
<g id="a_node5"><a xlink:href="../../d0/dfe/class_syntax_analyzer.html#affae37bc1fa3a4016dcffad4affbfcbd" target="_top" xlink:title=" ">
<polygon fill="none" stroke="black" points="195,-644.19 195,-663.19 337,-663.19 337,-644.19 195,-644.19"/>
<text text-anchor="middle" x="266" y="-651.19" font-family="Helvetica,sans-Serif" font-size="10.00">SyntaxAnalyzer::syntaxSt</text>
</a>
</g>
</g>
<!-- Node1&#45;&gt;Node5 -->
<g id="edge5" class="edge">
<title>Node1&#45;&gt;Node5</title>
<path fill="none" stroke="midnightblue" d="M89.9,-834.01C119.38,-803.65 210.28,-710.04 248.16,-671.04"/>
<polygon fill="midnightblue" stroke="midnightblue" points="250.94,-673.2 255.39,-663.58 245.92,-668.32 250.94,-673.2"/>
</g>
<!-- Node2&#45;&gt;Node3 -->
<g id="edge2" class="edge">
<title>Node2&#45;&gt;Node3</title>
<path fill="none" stroke="midnightblue" d="M1708.62,-720.18C1716.24,-716.7 1723.6,-712.01 1729,-705.69 1789.46,-635 1833.51,-335.77 1844.39,-255.55"/>
<polygon fill="midnightblue" stroke="midnightblue" points="1847.9,-255.73 1845.76,-245.35 1840.96,-254.8 1847.9,-255.73"/>
</g>
<!-- Node4 -->
<g id="node4" class="node">
<title>Node4</title>
<g id="a_node4"><a xlink:href="../../d0/dfe/class_syntax_analyzer.html#a9e41370d8d74fbd2e77648d2071e7dfe" target="_top" xlink:title=" ">
<polygon fill="none" stroke="black" points="1765,-720.19 1765,-739.19 1931,-739.19 1931,-720.19 1765,-720.19"/>
<text text-anchor="middle" x="1848" y="-727.19" font-family="Helvetica,sans-Serif" font-size="10.00">SyntaxAnalyzer::getNextToken</text>
</a>
</g>
</g>
<!-- Node2&#45;&gt;Node4 -->
<g id="edge3" class="edge">
<title>Node2&#45;&gt;Node4</title>
<path fill="none" stroke="midnightblue" d="M1729.16,-729.69C1737.38,-729.69 1746.02,-729.69 1754.73,-729.69"/>
<polygon fill="midnightblue" stroke="midnightblue" points="1754.96,-733.19 1764.96,-729.69 1754.96,-726.19 1754.96,-733.19"/>
</g>
<!-- Node5&#45;&gt;Node2 -->
<g id="edge6" class="edge">
<title>Node5&#45;&gt;Node2</title>
<path fill="none" stroke="midnightblue" d="M274.47,-663.47C312.04,-711.46 486.16,-919.69 679,-919.69 679,-919.69 679,-919.69 1290.5,-919.69 1418.97,-919.69 1470.21,-959.59 1578,-889.69 1629.26,-856.45 1655.44,-784.15 1665.49,-749.28"/>
<polygon fill="midnightblue" stroke="midnightblue" points="1668.94,-749.94 1668.2,-739.37 1662.18,-748.09 1668.94,-749.94"/>
</g>
<!-- Node5&#45;&gt;Node3 -->
<g id="edge7" class="edge">
<title>Node5&#45;&gt;Node3</title>
<path fill="none" stroke="midnightblue" d="M267.18,-644.09C268.72,-574.34 281.81,-145.86 373,-64.69 423.89,-19.39 610.87,-45.69 679,-45.69 679,-45.69 679,-45.69 1493,-45.69 1598.52,-45.69 1637.87,-18.49 1729,-71.69 1787.2,-105.67 1824.5,-181.02 1839.5,-216.5"/>
<polygon fill="midnightblue" stroke="midnightblue" points="1836.41,-218.21 1843.43,-226.14 1842.89,-215.56 1836.41,-218.21"/>
</g>
<!-- Node6 -->
<g id="node6" class="node">
<title>Node6</title>
<g id="a_node6"><a xlink:href="../../d0/dfe/class_syntax_analyzer.html#af0905389742c4f842207bb2c073afbfa" target="_top" xlink:title=" ">
<polygon fill="none" stroke="black" points="1414.5,-112.19 1414.5,-131.19 1569.5,-131.19 1569.5,-112.19 1414.5,-112.19"/>
<text text-anchor="middle" x="1492" y="-119.19" font-family="Helvetica,sans-Serif" font-size="10.00">SyntaxAnalyzer::lookFoward</text>
</a>
</g>
</g>
<!-- Node5&#45;&gt;Node6 -->
<g id="edge8" class="edge">
<title>Node5&#45;&gt;Node6</title>
<path fill="none" stroke="midnightblue" d="M269.21,-644C286.28,-571.9 403.89,-121.69 679,-121.69 679,-121.69 679,-121.69 1096,-121.69 1202.04,-121.69 1324.1,-121.69 1404.13,-121.69"/>
<polygon fill="midnightblue" stroke="midnightblue" points="1404.17,-125.19 1414.17,-121.69 1404.17,-118.19 1404.17,-125.19"/>
</g>
<!-- Node8 -->
<g id="node8" class="node">
<title>Node8</title>
<g id="a_node8"><a xlink:href="../../d0/dfe/class_syntax_analyzer.html#ae57b60364b17a4772143fe9a6c3bc2c7" target="_top" xlink:title=" ">
<polygon fill="none" stroke="black" points="383,-587.19 383,-606.19 557,-606.19 557,-587.19 383,-587.19"/>
<text text-anchor="middle" x="470" y="-594.19" font-family="Helvetica,sans-Serif" font-size="10.00">SyntaxAnalyzer::syntaxAssignSt</text>
</a>
</g>
</g>
<!-- Node5&#45;&gt;Node8 -->
<g id="edge10" class="edge">
<title>Node5&#45;&gt;Node8</title>
<path fill="none" stroke="midnightblue" d="M290.67,-644.06C311.94,-635.68 344.17,-623.66 373,-615.69 382.87,-612.96 393.4,-610.47 403.75,-608.24"/>
<polygon fill="midnightblue" stroke="midnightblue" points="404.51,-611.66 413.59,-606.2 403.09,-604.81 404.51,-611.66"/>
</g>
<!-- Node18 -->
<g id="node18" class="node">
<title>Node18</title>
<g id="a_node18"><a xlink:href="../../d0/dfe/class_syntax_analyzer.html#a9321de68e44f3918a71256a3c1cd481b" target="_top" xlink:title=" ">
<polygon fill="none" stroke="black" points="1411.5,-682.19 1411.5,-701.19 1572.5,-701.19 1572.5,-682.19 1411.5,-682.19"/>
<text text-anchor="middle" x="1492" y="-689.19" font-family="Helvetica,sans-Serif" font-size="10.00">SyntaxAnalyzer::syntaxCallSt</text>
</a>
</g>
</g>
<!-- Node5&#45;&gt;Node18 -->
<g id="edge46" class="edge">
<title>Node5&#45;&gt;Node18</title>
<path fill="none" stroke="midnightblue" d="M284.89,-663.21C333.98,-688.71 475.61,-758.25 603,-781.69 926.1,-841.15 1323.07,-740.4 1449.97,-704.02"/>
<polygon fill="midnightblue" stroke="midnightblue" points="1451.04,-707.35 1459.68,-701.21 1449.1,-700.63 1451.04,-707.35"/>
</g>
<!-- Node20 -->
<g id="node20" class="node">
<title>Node20</title>
<g id="a_node20"><a xlink:href="../../d0/dfe/class_syntax_analyzer.html#a2c0c19bfe9775405a5b6985cf1c8854c" target="_top" xlink:title=" ">
<polygon fill="none" stroke="black" points="373,-986.19 373,-1005.19 567,-1005.19 567,-986.19 373,-986.19"/>
<text text-anchor="middle" x="470" y="-993.19" font-family="Helvetica,sans-Serif" font-size="10.00">SyntaxAnalyzer::syntaxCompoundSt</text>
</a>
</g>
</g>
<!-- Node5&#45;&gt;Node20 -->
<g id="edge47" class="edge">
<title>Node5&#45;&gt;Node20</title>
<path fill="none" stroke="midnightblue" d="M268.39,-663.21C274.38,-701.24 300.97,-844.55 373,-933.69 390.09,-954.84 416.38,-971.11 437.14,-981.66"/>
<polygon fill="midnightblue" stroke="midnightblue" points="435.71,-984.86 446.23,-986.11 438.78,-978.57 435.71,-984.86"/>
</g>
<!-- Node22 -->
<g id="node22" class="node">
<title>Node22</title>
<g id="a_node22"><a xlink:href="../../d0/dfe/class_syntax_analyzer.html#a22a01f23b6ce49e9cdded69dd21f3935" target="_top" xlink:title=" ">
<polygon fill="none" stroke="black" points="383.5,-74.19 383.5,-93.19 556.5,-93.19 556.5,-74.19 383.5,-74.19"/>
<text text-anchor="middle" x="470" y="-81.19" font-family="Helvetica,sans-Serif" font-size="10.00">SyntaxAnalyzer::syntaxEmptySt</text>
</a>
</g>
</g>
<!-- Node5&#45;&gt;Node22 -->
<g id="edge51" class="edge">
<title>Node5&#45;&gt;Node22</title>
<path fill="none" stroke="midnightblue" d="M267.49,-644.1C271.08,-577.97 295.27,-189.68 373,-107.69 376.6,-103.89 380.71,-100.66 385.14,-97.91"/>
<polygon fill="midnightblue" stroke="midnightblue" points="386.84,-100.97 394.04,-93.19 383.56,-94.78 386.84,-100.97"/>
</g>
<!-- Node23 -->
<g id="node23" class="node">
<title>Node23</title>
<g id="a_node23"><a xlink:href="../../d0/dfe/class_syntax_analyzer.html#addd3ca96f66a5261f904e2e0c78a898a" target="_top" xlink:title=" ">
<polygon fill="none" stroke="black" points="395.5,-625.19 395.5,-644.19 544.5,-644.19 544.5,-625.19 395.5,-625.19"/>
<text text-anchor="middle" x="470" y="-632.19" font-family="Helvetica,sans-Serif" font-size="10.00">SyntaxAnalyzer::syntaxIfSt</text>
</a>
</g>
</g>
<!-- Node5&#45;&gt;Node23 -->
<g id="edge52" class="edge">
<title>Node5&#45;&gt;Node23</title>
<path fill="none" stroke="midnightblue" d="M308.85,-644.16C330.99,-641.09 358.97,-638.11 385.33,-635.9"/>
<polygon fill="midnightblue" stroke="midnightblue" points="385.65,-639.39 395.34,-635.09 385.09,-632.41 385.65,-639.39"/>
</g>
<!-- Node24 -->
<g id="node24" class="node">
<title>Node24</title>
<g id="a_node24"><a xlink:href="../../d0/dfe/class_syntax_analyzer.html#a35bb1125afde4b827a0dd8f3bce8dc58" target="_top" xlink:title=" ">
<polygon fill="none" stroke="black" points="385,-663.19 385,-682.19 555,-682.19 555,-663.19 385,-663.19"/>
<text text-anchor="middle" x="470" y="-670.19" font-family="Helvetica,sans-Serif" font-size="10.00">SyntaxAnalyzer::syntaxWhileSt</text>
</a>
</g>
</g>
<!-- Node5&#45;&gt;Node24 -->
<g id="edge57" class="edge">
<title>Node5&#45;&gt;Node24</title>
<path fill="none" stroke="midnightblue" d="M337.08,-653.82C363.41,-655.79 392.83,-658.72 417.2,-661.84"/>
<polygon fill="midnightblue" stroke="midnightblue" points="416.93,-665.33 427.31,-663.18 417.86,-658.39 416.93,-665.33"/>
</g>
<!-- Node7 -->
<g id="node7" class="node">
<title>Node7</title>
<g id="a_node7"><a xlink:href="../../d1/d34/class_list.html#a49c179636e084dfbf7a52acd46acaf01" target="_top" xlink:title=" ">
<polygon fill="none" stroke="black" points="1642,-112.19 1642,-131.19 1701,-131.19 1701,-112.19 1642,-112.19"/>
<text text-anchor="middle" x="1671.5" y="-119.19" font-family="Helvetica,sans-Serif" font-size="10.00">List::size</text>
</a>
</g>
</g>
<!-- Node6&#45;&gt;Node7 -->
<g id="edge9" class="edge">
<title>Node6&#45;&gt;Node7</title>
<path fill="none" stroke="midnightblue" d="M1569.56,-121.69C1590.9,-121.69 1613.19,-121.69 1631.38,-121.69"/>
<polygon fill="midnightblue" stroke="midnightblue" points="1631.58,-125.19 1641.58,-121.69 1631.58,-118.19 1631.58,-125.19"/>
</g>
<!-- Node8&#45;&gt;Node2 -->
<g id="edge11" class="edge">
<title>Node8&#45;&gt;Node2</title>
<path fill="none" stroke="midnightblue" d="M532.91,-606.2C544.41,-608.73 556.19,-611.86 567,-615.69 584.05,-621.73 586.89,-626.46 603,-634.69 686.89,-677.57 702.08,-703.98 793,-728.69 1087.85,-808.82 1459.3,-764.01 1606.35,-740.84"/>
<polygon fill="midnightblue" stroke="midnightblue" points="1607.22,-744.25 1616.55,-739.22 1606.12,-737.34 1607.22,-744.25"/>
</g>
<!-- Node8&#45;&gt;Node3 -->
<g id="edge12" class="edge">
<title>Node8&#45;&gt;Node3</title>
<path fill="none" stroke="midnightblue" d="M471.53,-586.96C474.59,-540.5 493.95,-339.39 603,-235.69 768.54,-78.28 865.56,-83.69 1094,-83.69 1094,-83.69 1094,-83.69 1493,-83.69 1598.23,-83.69 1634.84,-55.72 1729,-102.69 1780.37,-128.32 1819.38,-186.9 1836.87,-217.03"/>
<polygon fill="midnightblue" stroke="midnightblue" points="1834.01,-219.08 1841.97,-226.07 1840.11,-215.64 1834.01,-219.08"/>
</g>
<!-- Node9 -->
<g id="node9" class="node">
<title>Node9</title>
<g id="a_node9"><a xlink:href="../../d0/dfe/class_syntax_analyzer.html#a53b0048490647d82a92a77ed1ffb013d" target="_top" xlink:title=" ">
<polygon fill="none" stroke="black" points="603,-606.19 603,-625.19 757,-625.19 757,-606.19 603,-606.19"/>
<text text-anchor="middle" x="680" y="-613.19" font-family="Helvetica,sans-Serif" font-size="10.00">SyntaxAnalyzer::syntaxExpr</text>
</a>
</g>
</g>
<!-- Node8&#45;&gt;Node9 -->
<g id="edge13" class="edge">
<title>Node8&#45;&gt;Node9</title>
<path fill="none" stroke="midnightblue" d="M557.1,-604.56C568.86,-605.63 580.93,-606.73 592.69,-607.81"/>
<polygon fill="midnightblue" stroke="midnightblue" points="592.65,-611.32 602.93,-608.74 593.29,-604.35 592.65,-611.32"/>
</g>
<!-- Node19 -->
<g id="node19" class="node">
<title>Node19</title>
<g id="a_node19"><a xlink:href="../../d0/dfe/class_syntax_analyzer.html#a8d3dc6feefe1957f1c81cbc7b8318559" target="_top" xlink:title=" ">
<polygon fill="none" stroke="black" points="1406,-264.19 1406,-283.19 1578,-283.19 1578,-264.19 1406,-264.19"/>
<text text-anchor="middle" x="1492" y="-271.19" font-family="Helvetica,sans-Serif" font-size="10.00">SyntaxAnalyzer::syntaxVariable</text>
</a>
</g>
</g>
<!-- Node8&#45;&gt;Node19 -->
<g id="edge45" class="edge">
<title>Node8&#45;&gt;Node19</title>
<path fill="none" stroke="midnightblue" d="M475.14,-586.83C501.69,-525.39 654.12,-197.69 886,-197.69 886,-197.69 886,-197.69 1096,-197.69 1228.46,-197.69 1381.47,-239.41 1451.87,-261.03"/>
<polygon fill="midnightblue" stroke="midnightblue" points="1451.05,-264.44 1461.64,-264.07 1453.13,-257.76 1451.05,-264.44"/>
</g>
<!-- Node9&#45;&gt;Node2 -->
<g id="edge14" class="edge">
<title>Node9&#45;&gt;Node2</title>
<path fill="none" stroke="midnightblue" d="M690.44,-625.24C708.5,-642.85 750.01,-680.13 793,-696.69 918.59,-745.06 959.42,-729.69 1094,-729.69 1094,-729.69 1094,-729.69 1290.5,-729.69 1400.14,-729.69 1527.56,-729.69 1603.48,-729.69"/>
<polygon fill="midnightblue" stroke="midnightblue" points="1603.85,-733.19 1613.85,-729.69 1603.85,-726.19 1603.85,-733.19"/>
</g>
<!-- Node9&#45;&gt;Node3 -->
<g id="edge15" class="edge">
<title>Node9&#45;&gt;Node3</title>
<path fill="none" stroke="midnightblue" d="M744.86,-625.23C825.87,-636.49 969.97,-653.69 1094,-653.69 1094,-653.69 1094,-653.69 1493,-653.69 1704.84,-653.69 1816.05,-337.19 1841.36,-255"/>
<polygon fill="midnightblue" stroke="midnightblue" points="1844.78,-255.79 1844.31,-245.21 1838.07,-253.77 1844.78,-255.79"/>
</g>
<!-- Node10 -->
<g id="node10" class="node">
<title>Node10</title>
<g id="a_node10"><a xlink:href="../../d0/d11/class_i_token.html#a568cb9d98839eff3fd758f419a76b092" target="_top" xlink:title="Получение типа токена">
<polygon fill="none" stroke="black" points="1625.5,-378.19 1625.5,-397.19 1717.5,-397.19 1717.5,-378.19 1625.5,-378.19"/>
<text text-anchor="middle" x="1671.5" y="-385.19" font-family="Helvetica,sans-Serif" font-size="10.00">IToken::getType</text>
</a>
</g>
</g>
<!-- Node9&#45;&gt;Node10 -->
<g id="edge16" class="edge">
<title>Node9&#45;&gt;Node10</title>
<path fill="none" stroke="midnightblue" d="M687.55,-605.94C703.06,-583.69 744.36,-528.97 793,-501.69 1069.41,-346.65 1470.18,-367.46 1615.37,-381.38"/>
<polygon fill="midnightblue" stroke="midnightblue" points="1615.09,-384.87 1625.38,-382.37 1615.77,-377.9 1615.09,-384.87"/>
</g>
<!-- Node11 -->
<g id="node11" class="node">
<title>Node11</title>
<g id="a_node11"><a xlink:href="../../df/d3f/_syntax_8hpp.html#ae7d62ca130413d4c96863327c1af81a4" target="_top" xlink:title="Возвращает истину, если value находится среди значений cont.">
<polygon fill="none" stroke="black" points="1272.5,-568.19 1272.5,-587.19 1306.5,-587.19 1306.5,-568.19 1272.5,-568.19"/>
<text text-anchor="middle" x="1289.5" y="-575.19" font-family="Helvetica,sans-Serif" font-size="10.00">isIn</text>
</a>
</g>
</g>
<!-- Node9&#45;&gt;Node11 -->
<g id="edge17" class="edge">
<title>Node9&#45;&gt;Node11</title>
<path fill="none" stroke="midnightblue" d="M757.02,-610.94C893.8,-602.38 1175.25,-584.78 1262.28,-579.33"/>
<polygon fill="midnightblue" stroke="midnightblue" points="1262.59,-582.82 1272.35,-578.7 1262.15,-575.83 1262.59,-582.82"/>
</g>
<!-- Node12 -->
<g id="node12" class="node">
<title>Node12</title>
<g id="a_node12"><a xlink:href="../../d0/dfe/class_syntax_analyzer.html#a920d9565d4aa2e3815ff9e7146f45a0b" target="_top" xlink:title=" ">
<polygon fill="none" stroke="black" points="793,-511.19 793,-530.19 981,-530.19 981,-511.19 793,-511.19"/>
<text text-anchor="middle" x="887" y="-518.19" font-family="Helvetica,sans-Serif" font-size="10.00">SyntaxAnalyzer::syntaxSimpleExpr</text>
</a>
</g>
</g>
<!-- Node9&#45;&gt;Node12 -->
<g id="edge18" class="edge">
<title>Node9&#45;&gt;Node12</title>
<path fill="none" stroke="midnightblue" d="M701.64,-606.1C724.11,-595.66 761.1,-578.47 793,-563.69 814.07,-553.93 837.83,-542.94 856.06,-534.52"/>
<polygon fill="midnightblue" stroke="midnightblue" points="857.7,-537.62 865.31,-530.25 854.76,-531.26 857.7,-537.62"/>
</g>
<!-- Node12&#45;&gt;Node2 -->
<g id="edge19" class="edge">
<title>Node12&#45;&gt;Node2</title>
<path fill="none" stroke="midnightblue" d="M912.9,-530.33C938.65,-540.03 980.18,-554.92 1017,-564.69 1262.41,-629.83 1341.38,-580.58 1578,-672.69 1604.35,-682.95 1631.55,-700.73 1649.57,-713.71"/>
<polygon fill="midnightblue" stroke="midnightblue" points="1647.98,-716.89 1658.11,-720 1652.13,-711.25 1647.98,-716.89"/>
</g>
<!-- Node12&#45;&gt;Node3 -->
<g id="edge20" class="edge">
<title>Node12&#45;&gt;Node3</title>
<path fill="none" stroke="midnightblue" d="M898.88,-511.13C938.12,-477.09 1076.93,-360.23 1209,-292.69 1291.34,-250.58 1314.83,-241.22 1406,-225.69 1531.58,-204.3 1680.15,-214.93 1768.82,-225"/>
<polygon fill="midnightblue" stroke="midnightblue" points="1768.46,-228.48 1778.8,-226.16 1769.27,-221.53 1768.46,-228.48"/>
</g>
<!-- Node12&#45;&gt;Node10 -->
<g id="edge21" class="edge">
<title>Node12&#45;&gt;Node10</title>
<path fill="none" stroke="midnightblue" d="M916.14,-511.14C942.07,-502.63 981.76,-490.38 1017,-482.69 1263.12,-428.96 1328.79,-438.54 1578,-401.69 1590.05,-399.91 1602.98,-397.97 1615.24,-396.12"/>
<polygon fill="midnightblue" stroke="midnightblue" points="1615.98,-399.55 1625.34,-394.59 1614.93,-392.62 1615.98,-399.55"/>
</g>
<!-- Node12&#45;&gt;Node11 -->
<g id="edge22" class="edge">
<title>Node12&#45;&gt;Node11</title>
<path fill="none" stroke="midnightblue" d="M955.03,-530.23C1044.94,-543.03 1200.42,-565.16 1262.14,-573.94"/>
<polygon fill="midnightblue" stroke="midnightblue" points="1261.82,-577.43 1272.21,-575.37 1262.81,-570.5 1261.82,-577.43"/>
</g>
<!-- Node13 -->
<g id="node13" class="node">
<title>Node13</title>
<g id="a_node13"><a xlink:href="../../d0/dfe/class_syntax_analyzer.html#a7721cf7d36d549f81fd05c40dba02f67" target="_top" xlink:title=" ">
<polygon fill="none" stroke="black" points="1017,-492.19 1017,-511.19 1173,-511.19 1173,-492.19 1017,-492.19"/>
<text text-anchor="middle" x="1095" y="-499.19" font-family="Helvetica,sans-Serif" font-size="10.00">SyntaxAnalyzer::syntaxTerm</text>
</a>
</g>
</g>
<!-- Node12&#45;&gt;Node13 -->
<g id="edge23" class="edge">
<title>Node12&#45;&gt;Node13</title>
<path fill="none" stroke="midnightblue" d="M981.06,-512.11C989.55,-511.33 998.13,-510.53 1006.56,-509.76"/>
<polygon fill="midnightblue" stroke="midnightblue" points="1007.14,-513.22 1016.77,-508.81 1006.49,-506.25 1007.14,-513.22"/>
</g>
<!-- Node13&#45;&gt;Node2 -->
<g id="edge24" class="edge">
<title>Node13&#45;&gt;Node2</title>
<path fill="none" stroke="midnightblue" d="M1153.55,-511.22C1273.58,-531.45 1542.49,-578.69 1578,-601.69 1620.01,-628.91 1649.15,-682.41 1662.41,-710.86"/>
<polygon fill="midnightblue" stroke="midnightblue" points="1659.27,-712.43 1666.57,-720.11 1665.66,-709.56 1659.27,-712.43"/>
</g>
<!-- Node13&#45;&gt;Node3 -->
<g id="edge25" class="edge">
<title>Node13&#45;&gt;Node3</title>
<path fill="none" stroke="midnightblue" d="M1173.14,-498.97C1228.09,-496.73 1303.65,-493.05 1370,-487.69 1533.04,-474.52 1600.46,-507.85 1729,-406.69 1783.2,-364.04 1822.27,-289.7 1838.57,-254.81"/>
<polygon fill="midnightblue" stroke="midnightblue" points="1841.93,-255.87 1842.89,-245.32 1835.56,-252.97 1841.93,-255.87"/>
</g>
<!-- Node13&#45;&gt;Node10 -->
<g id="edge26" class="edge">
<title>Node13&#45;&gt;Node10</title>
<path fill="none" stroke="midnightblue" d="M1171.46,-492.17C1305.87,-475.19 1573.21,-441.28 1578,-439.69 1603.76,-431.15 1630.51,-415.22 1648.57,-403.23"/>
<polygon fill="midnightblue" stroke="midnightblue" points="1650.87,-405.9 1657.18,-397.38 1646.94,-400.11 1650.87,-405.9"/>
</g>
<!-- Node13&#45;&gt;Node11 -->
<g id="edge27" class="edge">
<title>Node13&#45;&gt;Node11</title>
<path fill="none" stroke="midnightblue" d="M1136.26,-511.27C1148.43,-514.95 1161.58,-519.72 1173,-525.69 1190.96,-535.08 1190.99,-544.38 1209,-553.69 1225.91,-562.44 1246.54,-568.54 1262.54,-572.41"/>
<polygon fill="midnightblue" stroke="midnightblue" points="1261.77,-575.83 1272.3,-574.63 1263.33,-569 1261.77,-575.83"/>
</g>
<!-- Node14 -->
<g id="node14" class="node">
<title>Node14</title>
<g id="a_node14"><a xlink:href="../../d0/dfe/class_syntax_analyzer.html#ab9b415ddd671b4884ab31cdf194f6c64" target="_top" xlink:title=" ">
<polygon fill="none" stroke="black" points="1209,-302.19 1209,-321.19 1370,-321.19 1370,-302.19 1209,-302.19"/>
<text text-anchor="middle" x="1289.5" y="-309.19" font-family="Helvetica,sans-Serif" font-size="10.00">SyntaxAnalyzer::syntaxFactor</text>
</a>
</g>
</g>
<!-- Node13&#45;&gt;Node14 -->
<g id="edge28" class="edge">
<title>Node13&#45;&gt;Node14</title>
<path fill="none" stroke="midnightblue" d="M1105.81,-492.01C1136.57,-461.65 1231.41,-368.04 1270.93,-329.04"/>
<polygon fill="midnightblue" stroke="midnightblue" points="1273.82,-331.1 1278.48,-321.58 1268.9,-326.12 1273.82,-331.1"/>
</g>
<!-- Node14&#45;&gt;Node2 -->
<g id="edge29" class="edge">
<title>Node14&#45;&gt;Node2</title>
<path fill="none" stroke="midnightblue" d="M1304.59,-321.33C1349.12,-352.3 1489.13,-453.74 1578,-563.69 1616.75,-611.64 1648.22,-678.04 1662.39,-710.41"/>
<polygon fill="midnightblue" stroke="midnightblue" points="1659.35,-712.2 1666.51,-720 1665.78,-709.43 1659.35,-712.2"/>
</g>
<!-- Node14&#45;&gt;Node3 -->
<g id="edge30" class="edge">
<title>Node14&#45;&gt;Node3</title>
<path fill="none" stroke="midnightblue" d="M1307.6,-302.15C1334.57,-287.31 1385.96,-259.82 1406,-254.69 1527.52,-223.57 1673.94,-224.48 1763.74,-229.18"/>
<polygon fill="midnightblue" stroke="midnightblue" points="1763.68,-232.68 1773.86,-229.74 1764.07,-225.69 1763.68,-232.68"/>
</g>
<!-- Node14&#45;&gt;Node6 -->
<g id="edge36" class="edge">
<title>Node14&#45;&gt;Node6</title>
<path fill="none" stroke="midnightblue" d="M1300.72,-302.01C1332.89,-271.52 1432.36,-177.26 1473.21,-138.55"/>
<polygon fill="midnightblue" stroke="midnightblue" points="1475.71,-141 1480.56,-131.58 1470.9,-135.92 1475.71,-141"/>
</g>
<!-- Node14&#45;&gt;Node9 -->
<g id="edge41" class="edge">
<title>Node14&#45;&gt;Node9</title>
<path fill="none" stroke="midnightblue" d="M1255.09,-302.13C1169.15,-279.69 937.11,-232.95 793,-335.69 704.63,-398.69 685.94,-543.25 682.02,-595.98"/>
<polygon fill="midnightblue" stroke="midnightblue" points="678.53,-595.83 681.38,-606.04 685.51,-596.28 678.53,-595.83"/>
</g>
<!-- Node14&#45;&gt;Node10 -->
<g id="edge35" class="edge">
<title>Node14&#45;&gt;Node10</title>
<path fill="none" stroke="midnightblue" d="M1338.24,-321.24C1408.78,-335.35 1540.52,-361.7 1615.17,-376.63"/>
<polygon fill="midnightblue" stroke="midnightblue" points="1614.83,-380.13 1625.32,-378.65 1616.2,-373.26 1614.83,-380.13"/>
</g>
<!-- Node15 -->
<g id="node15" class="node">
<title>Node15</title>
<g id="a_node15"><a xlink:href="../../db/dc1/class_token.html#a014ced0a9ea72ae21fad0d4f116d0a73" target="_top" xlink:title=" ">
<polygon fill="none" stroke="black" points="1449.5,-302.19 1449.5,-321.19 1534.5,-321.19 1534.5,-302.19 1449.5,-302.19"/>
<text text-anchor="middle" x="1492" y="-309.19" font-family="Helvetica,sans-Serif" font-size="10.00">Token::getInfo</text>
</a>
</g>
</g>
<!-- Node14&#45;&gt;Node15 -->
<g id="edge31" class="edge">
<title>Node14&#45;&gt;Node15</title>
<path fill="none" stroke="midnightblue" d="M1370.03,-311.69C1393.33,-311.69 1418.2,-311.69 1439.28,-311.69"/>
<polygon fill="midnightblue" stroke="midnightblue" points="1439.31,-315.19 1449.31,-311.69 1439.31,-308.19 1439.31,-315.19"/>
</g>
<!-- Node14&#45;&gt;Node18 -->
<g id="edge37" class="edge">
<title>Node14&#45;&gt;Node18</title>
<path fill="none" stroke="midnightblue" d="M1295.66,-321.47C1322.36,-372.07 1445.04,-604.59 1481.04,-672.82"/>
<polygon fill="midnightblue" stroke="midnightblue" points="1478.11,-674.77 1485.88,-681.98 1484.31,-671.5 1478.11,-674.77"/>
</g>
<!-- Node14&#45;&gt;Node19 -->
<g id="edge42" class="edge">
<title>Node14&#45;&gt;Node19</title>
<path fill="none" stroke="midnightblue" d="M1340.84,-302.15C1368.13,-296.98 1402.04,-290.55 1430.73,-285.11"/>
<polygon fill="midnightblue" stroke="midnightblue" points="1431.47,-288.54 1440.64,-283.24 1430.17,-281.66 1431.47,-288.54"/>
</g>
<!-- Node15&#45;&gt;Node10 -->
<g id="edge33" class="edge">
<title>Node15&#45;&gt;Node10</title>
<path fill="none" stroke="midnightblue" d="M1534.74,-319.36C1549.02,-323.04 1564.74,-328.3 1578,-335.69 1596.96,-346.26 1595.31,-357.66 1614,-368.69 1617.46,-370.73 1621.17,-372.59 1624.98,-374.28"/>
<polygon fill="midnightblue" stroke="midnightblue" points="1623.96,-377.64 1634.54,-378.12 1626.56,-371.14 1623.96,-377.64"/>
</g>
<!-- Node16 -->
<g id="node16" class="node">
<title>Node16</title>
<g id="a_node16"><a xlink:href="../../db/dc1/class_token.html#a942fcc40ffdf54c98b7b641c792a26bc" target="_top" xlink:title="Возвращает константную ссылку на строковое представление токена">
<polygon fill="none" stroke="black" points="1631.5,-302.19 1631.5,-321.19 1711.5,-321.19 1711.5,-302.19 1631.5,-302.19"/>
<text text-anchor="middle" x="1671.5" y="-309.19" font-family="Helvetica,sans-Serif" font-size="10.00">Token::getStr</text>
</a>
</g>
</g>
<!-- Node15&#45;&gt;Node16 -->
<g id="edge32" class="edge">
<title>Node15&#45;&gt;Node16</title>
<path fill="none" stroke="midnightblue" d="M1534.62,-311.69C1560.51,-311.69 1593.95,-311.69 1621.17,-311.69"/>
<polygon fill="midnightblue" stroke="midnightblue" points="1621.27,-315.19 1631.27,-311.69 1621.27,-308.19 1621.27,-315.19"/>
</g>
<!-- Node17 -->
<g id="node17" class="node">
<title>Node17</title>
<g id="a_node17"><a xlink:href="../../db/dc1/class_token.html#af3b5fdf2261d637af820d4adb62e6109" target="_top" xlink:title=" ">
<polygon fill="none" stroke="black" points="1637.5,-340.19 1637.5,-359.19 1705.5,-359.19 1705.5,-340.19 1637.5,-340.19"/>
<text text-anchor="middle" x="1671.5" y="-347.19" font-family="Helvetica,sans-Serif" font-size="10.00">Token::line</text>
</a>
</g>
</g>
<!-- Node15&#45;&gt;Node17 -->
<g id="edge34" class="edge">
<title>Node15&#45;&gt;Node17</title>
<path fill="none" stroke="midnightblue" d="M1534.62,-320.6C1562.54,-326.58 1599.24,-334.44 1627.46,-340.48"/>
<polygon fill="midnightblue" stroke="midnightblue" points="1626.93,-343.94 1637.44,-342.61 1628.39,-337.1 1626.93,-343.94"/>
</g>
<!-- Node18&#45;&gt;Node2 -->
<g id="edge38" class="edge">
<title>Node18&#45;&gt;Node2</title>
<path fill="none" stroke="midnightblue" d="M1537.79,-701.28C1561.53,-706.36 1590.88,-712.65 1615.94,-718.01"/>
<polygon fill="midnightblue" stroke="midnightblue" points="1615.52,-721.5 1626.03,-720.17 1616.99,-714.66 1615.52,-721.5"/>
</g>
<!-- Node18&#45;&gt;Node3 -->
<g id="edge39" class="edge">
<title>Node18&#45;&gt;Node3</title>
<path fill="none" stroke="midnightblue" d="M1540.18,-701.19C1592.58,-708.83 1676.68,-712.01 1729,-667.69 1794.32,-612.37 1834.57,-332.6 1844.55,-255.43"/>
<polygon fill="midnightblue" stroke="midnightblue" points="1848.06,-255.57 1845.85,-245.21 1841.12,-254.69 1848.06,-255.57"/>
</g>
<!-- Node18&#45;&gt;Node9 -->
<g id="edge40" class="edge">
<title>Node18&#45;&gt;Node9</title>
<path fill="none" stroke="midnightblue" d="M1411.39,-699.1C1280.34,-709.07 1011.91,-719.99 793,-667.69 761.07,-660.06 727.27,-642.96 705.26,-630.44"/>
<polygon fill="midnightblue" stroke="midnightblue" points="706.99,-627.4 696.58,-625.4 703.47,-633.45 706.99,-627.4"/>
</g>
<!-- Node19&#45;&gt;Node2 -->
<g id="edge43" class="edge">
<title>Node19&#45;&gt;Node2</title>
<path fill="none" stroke="midnightblue" d="M1565.35,-283.31C1569.99,-285.84 1574.28,-288.93 1578,-292.69 1593.18,-308.05 1651.98,-627.57 1666.99,-710.28"/>
<polygon fill="midnightblue" stroke="midnightblue" points="1663.55,-710.92 1668.78,-720.13 1670.44,-709.67 1663.55,-710.92"/>
</g>
<!-- Node19&#45;&gt;Node3 -->
<g id="edge44" class="edge">
<title>Node19&#45;&gt;Node3</title>
<path fill="none" stroke="midnightblue" d="M1578.24,-265.37C1623.12,-260.9 1679.06,-255.19 1729,-249.69 1740.18,-248.46 1751.95,-247.12 1763.56,-245.77"/>
<polygon fill="midnightblue" stroke="midnightblue" points="1764.16,-249.22 1773.69,-244.58 1763.35,-242.27 1764.16,-249.22"/>
</g>
<!-- Node20&#45;&gt;Node1 -->
<g id="edge50" class="edge">
<title>Node20&#45;&gt;Node1</title>
<path fill="none" stroke="midnightblue" d="M372.99,-1004.21C318.15,-1005.06 249.65,-999.06 195,-971.69 145.66,-946.99 107.81,-891.1 90.63,-862.03"/>
<polygon fill="midnightblue" stroke="midnightblue" points="93.63,-860.22 85.61,-853.29 87.56,-863.7 93.63,-860.22"/>
</g>
<!-- Node20&#45;&gt;Node2 -->
<g id="edge49" class="edge">
<title>Node20&#45;&gt;Node2</title>
<path fill="none" stroke="midnightblue" d="M567.02,-995.69C651.13,-995.69 776.67,-995.69 886,-995.69 886,-995.69 886,-995.69 1290.5,-995.69 1418.72,-995.69 1475.5,-1048.73 1578,-971.69 1650.91,-916.89 1666.35,-797.07 1669.62,-749.61"/>
<polygon fill="midnightblue" stroke="midnightblue" points="1673.13,-749.61 1670.21,-739.43 1666.14,-749.21 1673.13,-749.61"/>
</g>
<!-- Node21 -->
<g id="node21" class="node">
<title>Node21</title>
<g id="a_node21"><a xlink:href="../../da/dbb/class_compound_a_s_t.html#a596c1d112edc624fe50ed8a261ffd532" target="_top" xlink:title=" ">
<polygon fill="none" stroke="black" points="612,-1024.19 612,-1043.19 748,-1043.19 748,-1024.19 612,-1024.19"/>
<text text-anchor="middle" x="680" y="-1031.19" font-family="Helvetica,sans-Serif" font-size="10.00">CompoundAST::addChild</text>
</a>
</g>
</g>
<!-- Node20&#45;&gt;Node21 -->
<g id="edge48" class="edge">
<title>Node20&#45;&gt;Node21</title>
<path fill="none" stroke="midnightblue" d="M523.22,-1005.23C551.65,-1010.43 587.02,-1016.89 616.87,-1022.34"/>
<polygon fill="midnightblue" stroke="midnightblue" points="616.29,-1025.79 626.76,-1024.15 617.55,-1018.91 616.29,-1025.79"/>
</g>
<!-- Node23&#45;&gt;Node2 -->
<g id="edge53" class="edge">
<title>Node23&#45;&gt;Node2</title>
<path fill="none" stroke="midnightblue" d="M544.85,-640.42C553,-643.52 560.64,-647.81 567,-653.69 610.4,-693.8 557.03,-744.55 603,-781.69 655.48,-824.09 1141.57,-817.58 1209,-819.69 1372.92,-824.83 1426.06,-881.41 1578,-819.69 1613.6,-805.23 1643.02,-769.75 1658.56,-747.91"/>
<polygon fill="midnightblue" stroke="midnightblue" points="1661.57,-749.71 1664.34,-739.48 1655.8,-745.74 1661.57,-749.71"/>
</g>
<!-- Node23&#45;&gt;Node3 -->
<g id="edge54" class="edge">
<title>Node23&#45;&gt;Node3</title>
<path fill="none" stroke="midnightblue" d="M544.75,-626.47C552.64,-623.77 560.24,-620.25 567,-615.69 718.99,-513.23 642.3,-375.04 793,-270.69 978.54,-142.22 1062.82,-159.69 1288.5,-159.69 1288.5,-159.69 1288.5,-159.69 1493,-159.69 1611.74,-159.69 1747.98,-201.07 1811.26,-222.76"/>
<polygon fill="midnightblue" stroke="midnightblue" points="1810.17,-226.09 1820.77,-226.07 1812.47,-219.48 1810.17,-226.09"/>
</g>
<!-- Node23&#45;&gt;Node5 -->
<g id="edge56" class="edge">
<title>Node23&#45;&gt;Node5</title>
<path fill="none" stroke="midnightblue" d="M427.31,-644.2C404.14,-647.41 374.54,-650.54 347.08,-652.78"/>
<polygon fill="midnightblue" stroke="midnightblue" points="346.78,-649.29 337.08,-653.56 347.33,-656.27 346.78,-649.29"/>
</g>
<!-- Node23&#45;&gt;Node9 -->
<g id="edge55" class="edge">
<title>Node23&#45;&gt;Node9</title>
<path fill="none" stroke="midnightblue" d="M544.63,-627.97C560.06,-626.56 576.47,-625.06 592.33,-623.61"/>
<polygon fill="midnightblue" stroke="midnightblue" points="593.02,-627.06 602.66,-622.66 592.38,-620.09 593.02,-627.06"/>
</g>
<!-- Node24&#45;&gt;Node2 -->
<g id="edge58" class="edge">
<title>Node24&#45;&gt;Node2</title>
<path fill="none" stroke="midnightblue" d="M476.29,-682.37C491.7,-709.5 539.49,-786.44 603,-819.69 797.86,-921.72 874.04,-881.69 1094,-881.69 1094,-881.69 1094,-881.69 1290.5,-881.69 1418.72,-881.69 1466.36,-920.75 1578,-857.69 1621.8,-832.95 1650.33,-777.93 1662.98,-748.74"/>
<polygon fill="midnightblue" stroke="midnightblue" points="1666.31,-749.83 1666.92,-739.25 1659.85,-747.14 1666.31,-749.83"/>
</g>
<!-- Node24&#45;&gt;Node5 -->
<g id="edge60" class="edge">
<title>Node24&#45;&gt;Node5</title>
<path fill="none" stroke="midnightblue" d="M384.7,-671.43C362.41,-669.56 339,-667.13 318.99,-664.57"/>
<polygon fill="midnightblue" stroke="midnightblue" points="319.23,-661.07 308.85,-663.22 318.31,-668.01 319.23,-661.07"/>
</g>
<!-- Node24&#45;&gt;Node9 -->
<g id="edge59" class="edge">
<title>Node24&#45;&gt;Node9</title>
<path fill="none" stroke="midnightblue" d="M525.61,-663.18C539.21,-660.45 553.71,-657.25 567,-653.69 593.32,-646.65 622.44,-636.7 644.39,-628.75"/>
<polygon fill="midnightblue" stroke="midnightblue" points="645.75,-631.98 653.94,-625.26 643.34,-625.41 645.75,-631.98"/>
</g>
</g>
</svg>
