<?xml version="1.0" encoding="UTF-8" standalone="no"?>
<!DOCTYPE svg PUBLIC "-//W3C//DTD SVG 1.1//EN"
 "http://www.w3.org/Graphics/SVG/1.1/DTD/svg11.dtd">
<!-- Generated by graphviz version 2.43.0 (0)
 -->
<!-- Title: SyntaxAnalyzer::syntaxSt Pages: 1 -->
<svg width="1757pt" height="1003pt"
 viewBox="0.00 0.00 1757.00 1003.19" xmlns="http://www.w3.org/2000/svg" xmlns:xlink="http://www.w3.org/1999/xlink">
<g id="graph0" class="graph" transform="scale(1 1) rotate(0) translate(4 999.19)">
<title>SyntaxAnalyzer::syntaxSt</title>
<!-- Node1 -->
<g id="node1" class="node">
<title>Node1</title>
<g id="a_node1"><a xlink:title=" ">
<polygon fill="#bfbfbf" stroke="black" points="0,-745.95 0,-764.95 142,-764.95 142,-745.95 0,-745.95"/>
<text text-anchor="middle" x="71" y="-752.95" font-family="Helvetica,sans-Serif" font-size="10.00">SyntaxAnalyzer::syntaxSt</text>
</a>
</g>
</g>
<!-- Node2 -->
<g id="node2" class="node">
<title>Node2</title>
<g id="a_node2"><a xlink:href="../../d0/dfe/class_syntax_analyzer.html#a5d17bcae2fd7dc11d0710e046c4c3280" target="_top" xlink:title=" ">
<polygon fill="none" stroke="black" points="1432,-688.95 1432,-707.95 1547,-707.95 1547,-688.95 1432,-688.95"/>
<text text-anchor="middle" x="1489.5" y="-695.95" font-family="Helvetica,sans-Serif" font-size="10.00">SyntaxAnalyzer::eat</text>
</a>
</g>
</g>
<!-- Node1&#45;&gt;Node2 -->
<g id="edge1" class="edge">
<title>Node1&#45;&gt;Node2</title>
<path fill="none" stroke="midnightblue" d="M76.71,-765.21C89.17,-789.71 125.66,-853.59 178,-877.45 248.37,-909.53 274.7,-879.62 352,-877.45 724.02,-867.03 819.2,-879.41 1188,-829.45 1281.64,-816.77 1321.23,-843.22 1396,-785.45 1424.31,-763.58 1404.26,-736.04 1432,-713.45 1432.16,-713.32 1432.33,-713.19 1432.49,-713.06"/>
<polygon fill="midnightblue" stroke="midnightblue" points="1433.94,-716.29 1440.49,-707.96 1430.17,-710.39 1433.94,-716.29"/>
</g>
<!-- Node3 -->
<g id="node3" class="node">
<title>Node3</title>
<g id="a_node3"><a xlink:href="../../d0/dfe/class_syntax_analyzer.html#a3ae6c7319e61cd669c417f189b098374" target="_top" xlink:title=" ">
<polygon fill="none" stroke="black" points="1592,-384.95 1592,-403.95 1740,-403.95 1740,-384.95 1592,-384.95"/>
<text text-anchor="middle" x="1666" y="-391.95" font-family="Helvetica,sans-Serif" font-size="10.00">SyntaxAnalyzer::getCurTok</text>
</a>
</g>
</g>
<!-- Node1&#45;&gt;Node3 -->
<g id="edge4" class="edge">
<title>Node1&#45;&gt;Node3</title>
<path fill="none" stroke="midnightblue" d="M72.37,-745.81C76.22,-658.96 116.53,-14.45 464,-14.45 464,-14.45 464,-14.45 1311,-14.45 1416.34,-14.45 1464.6,29.18 1547,-36.45 1655.68,-123.03 1665.25,-312.25 1665.36,-374.3"/>
<polygon fill="midnightblue" stroke="midnightblue" points="1661.86,-374.63 1665.28,-384.65 1668.86,-374.68 1661.86,-374.63"/>
</g>
<!-- Node5 -->
<g id="node5" class="node">
<title>Node5</title>
<g id="a_node5"><a xlink:href="../../d0/dfe/class_syntax_analyzer.html#af0905389742c4f842207bb2c073afbfa" target="_top" xlink:title=" ">
<polygon fill="none" stroke="black" points="1232.5,-536.95 1232.5,-555.95 1387.5,-555.95 1387.5,-536.95 1232.5,-536.95"/>
<text text-anchor="middle" x="1310" y="-543.95" font-family="Helvetica,sans-Serif" font-size="10.00">SyntaxAnalyzer::lookFoward</text>
</a>
</g>
</g>
<!-- Node1&#45;&gt;Node5 -->
<g id="edge5" class="edge">
<title>Node1&#45;&gt;Node5</title>
<path fill="none" stroke="midnightblue" d="M115.09,-764.97C134.25,-768.73 157.14,-772.6 178,-774.45 255.03,-781.3 275.2,-783.53 352,-774.45 747.78,-727.69 835.74,-655.37 1224,-565.45 1234.27,-563.08 1245.25,-560.58 1255.79,-558.22"/>
<polygon fill="midnightblue" stroke="midnightblue" points="1256.74,-561.59 1265.73,-555.99 1255.21,-554.76 1256.74,-561.59"/>
</g>
<!-- Node7 -->
<g id="node7" class="node">
<title>Node7</title>
<g id="a_node7"><a xlink:href="../../d0/dfe/class_syntax_analyzer.html#ae57b60364b17a4772143fe9a6c3bc2c7" target="_top" xlink:title=" ">
<polygon fill="none" stroke="black" points="178,-441.95 178,-460.95 352,-460.95 352,-441.95 178,-441.95"/>
<text text-anchor="middle" x="265" y="-448.95" font-family="Helvetica,sans-Serif" font-size="10.00">SyntaxAnalyzer::syntaxAssignSt</text>
</a>
</g>
</g>
<!-- Node1&#45;&gt;Node7 -->
<g id="edge7" class="edge">
<title>Node1&#45;&gt;Node7</title>
<path fill="none" stroke="midnightblue" d="M78.17,-745.68C105.54,-702.36 216.18,-527.18 252.43,-469.77"/>
<polygon fill="midnightblue" stroke="midnightblue" points="255.57,-471.36 257.95,-461.04 249.65,-467.62 255.57,-471.36"/>
</g>
<!-- Node17 -->
<g id="node17" class="node">
<title>Node17</title>
<g id="a_node17"><a xlink:href="../../d0/dfe/class_syntax_analyzer.html#a9321de68e44f3918a71256a3c1cd481b" target="_top" xlink:title=" ">
<polygon fill="none" stroke="black" points="1229.5,-574.95 1229.5,-593.95 1390.5,-593.95 1390.5,-574.95 1229.5,-574.95"/>
<text text-anchor="middle" x="1310" y="-581.95" font-family="Helvetica,sans-Serif" font-size="10.00">SyntaxAnalyzer::syntaxCallSt</text>
</a>
</g>
</g>
<!-- Node1&#45;&gt;Node17 -->
<g id="edge43" class="edge">
<title>Node1&#45;&gt;Node17</title>
<path fill="none" stroke="midnightblue" d="M86.29,-765.12C105.93,-777.78 142.86,-799.3 178,-807.45 397.25,-858.34 990.43,-839.29 1188,-731.45 1242.72,-701.59 1282.48,-635.95 1299.63,-603.45"/>
<polygon fill="midnightblue" stroke="midnightblue" points="1302.95,-604.65 1304.39,-594.15 1296.72,-601.46 1302.95,-604.65"/>
</g>
<!-- Node19 -->
<g id="node19" class="node">
<title>Node19</title>
<g id="a_node19"><a xlink:href="../../d0/dfe/class_syntax_analyzer.html#a2c0c19bfe9775405a5b6985cf1c8854c" target="_top" xlink:title=" ">
<polygon fill="none" stroke="black" points="994,-935.95 994,-954.95 1188,-954.95 1188,-935.95 994,-935.95"/>
<text text-anchor="middle" x="1091" y="-942.95" font-family="Helvetica,sans-Serif" font-size="10.00">SyntaxAnalyzer::syntaxCompoundSt</text>
</a>
</g>
</g>
<!-- Node1&#45;&gt;Node19 -->
<g id="edge44" class="edge">
<title>Node1&#45;&gt;Node19</title>
<path fill="none" stroke="midnightblue" d="M74.82,-765.16C83.97,-794.73 115.94,-883.99 178,-921.45 287.2,-987.38 336.44,-945.45 464,-945.45 464,-945.45 464,-945.45 673,-945.45 778.74,-945.45 899.57,-945.45 983.84,-945.45"/>
<polygon fill="midnightblue" stroke="midnightblue" points="983.94,-948.95 993.94,-945.45 983.94,-941.95 983.94,-948.95"/>
</g>
<!-- Node22 -->
<g id="node22" class="node">
<title>Node22</title>
<g id="a_node22"><a xlink:href="../../d0/dfe/class_syntax_analyzer.html#a22a01f23b6ce49e9cdded69dd21f3935" target="_top" xlink:title=" ">
<polygon fill="none" stroke="black" points="178.5,-707.95 178.5,-726.95 351.5,-726.95 351.5,-707.95 178.5,-707.95"/>
<text text-anchor="middle" x="265" y="-714.95" font-family="Helvetica,sans-Serif" font-size="10.00">SyntaxAnalyzer::syntaxEmptySt</text>
</a>
</g>
</g>
<!-- Node1&#45;&gt;Node22 -->
<g id="edge51" class="edge">
<title>Node1&#45;&gt;Node22</title>
<path fill="none" stroke="midnightblue" d="M120.45,-745.86C146.47,-740.71 178.73,-734.33 206.07,-728.92"/>
<polygon fill="midnightblue" stroke="midnightblue" points="206.77,-732.35 215.9,-726.97 205.41,-725.48 206.77,-732.35"/>
</g>
<!-- Node23 -->
<g id="node23" class="node">
<title>Node23</title>
<g id="a_node23"><a xlink:href="../../d0/dfe/class_syntax_analyzer.html#addd3ca96f66a5261f904e2e0c78a898a" target="_top" xlink:title=" ">
<polygon fill="none" stroke="black" points="190.5,-669.95 190.5,-688.95 339.5,-688.95 339.5,-669.95 190.5,-669.95"/>
<text text-anchor="middle" x="265" y="-676.95" font-family="Helvetica,sans-Serif" font-size="10.00">SyntaxAnalyzer::syntaxIfSt</text>
</a>
</g>
</g>
<!-- Node1&#45;&gt;Node23 -->
<g id="edge52" class="edge">
<title>Node1&#45;&gt;Node23</title>
<path fill="none" stroke="midnightblue" d="M79.37,-745.84C96.16,-730.61 138.82,-704 178,-689.45 178.88,-689.13 179.76,-688.81 180.65,-688.49"/>
<polygon fill="midnightblue" stroke="midnightblue" points="182,-691.73 190.41,-685.29 179.82,-685.08 182,-691.73"/>
</g>
<!-- Node24 -->
<g id="node24" class="node">
<title>Node24</title>
<g id="a_node24"><a xlink:href="../../d0/dfe/class_syntax_analyzer.html#a35bb1125afde4b827a0dd8f3bce8dc58" target="_top" xlink:title=" ">
<polygon fill="none" stroke="black" points="180,-745.95 180,-764.95 350,-764.95 350,-745.95 180,-745.95"/>
<text text-anchor="middle" x="265" y="-752.95" font-family="Helvetica,sans-Serif" font-size="10.00">SyntaxAnalyzer::syntaxWhileSt</text>
</a>
</g>
</g>
<!-- Node1&#45;&gt;Node24 -->
<g id="edge57" class="edge">
<title>Node1&#45;&gt;Node24</title>
<path fill="none" stroke="midnightblue" d="M142.13,-748.93C151.1,-748.77 160.39,-748.69 169.67,-748.7"/>
<polygon fill="midnightblue" stroke="midnightblue" points="169.69,-752.2 179.7,-748.75 169.72,-745.2 169.69,-752.2"/>
</g>
<!-- Node2&#45;&gt;Node3 -->
<g id="edge2" class="edge">
<title>Node2&#45;&gt;Node3</title>
<path fill="none" stroke="midnightblue" d="M1496.11,-688.68C1520.98,-645.36 1621.53,-470.18 1654.49,-412.77"/>
<polygon fill="midnightblue" stroke="midnightblue" points="1657.56,-414.45 1659.5,-404.04 1651.49,-410.97 1657.56,-414.45"/>
</g>
<!-- Node4 -->
<g id="node4" class="node">
<title>Node4</title>
<g id="a_node4"><a xlink:href="../../d0/dfe/class_syntax_analyzer.html#a9e41370d8d74fbd2e77648d2071e7dfe" target="_top" xlink:title=" ">
<polygon fill="none" stroke="black" points="1583,-688.95 1583,-707.95 1749,-707.95 1749,-688.95 1583,-688.95"/>
<text text-anchor="middle" x="1666" y="-695.95" font-family="Helvetica,sans-Serif" font-size="10.00">SyntaxAnalyzer::getNextToken</text>
</a>
</g>
</g>
<!-- Node2&#45;&gt;Node4 -->
<g id="edge3" class="edge">
<title>Node2&#45;&gt;Node4</title>
<path fill="none" stroke="midnightblue" d="M1547.16,-698.45C1555.38,-698.45 1564.02,-698.45 1572.73,-698.45"/>
<polygon fill="midnightblue" stroke="midnightblue" points="1572.96,-701.95 1582.96,-698.45 1572.96,-694.95 1572.96,-701.95"/>
</g>
<!-- Node6 -->
<g id="node6" class="node">
<title>Node6</title>
<g id="a_node6"><a xlink:href="../../d1/d34/class_list.html#a49c179636e084dfbf7a52acd46acaf01" target="_top" xlink:title=" ">
<polygon fill="none" stroke="black" points="1460,-536.95 1460,-555.95 1519,-555.95 1519,-536.95 1460,-536.95"/>
<text text-anchor="middle" x="1489.5" y="-543.95" font-family="Helvetica,sans-Serif" font-size="10.00">List::size</text>
</a>
</g>
</g>
<!-- Node5&#45;&gt;Node6 -->
<g id="edge6" class="edge">
<title>Node5&#45;&gt;Node6</title>
<path fill="none" stroke="midnightblue" d="M1387.56,-546.45C1408.9,-546.45 1431.19,-546.45 1449.38,-546.45"/>
<polygon fill="midnightblue" stroke="midnightblue" points="1449.58,-549.95 1459.58,-546.45 1449.58,-542.95 1449.58,-549.95"/>
</g>
<!-- Node7&#45;&gt;Node2 -->
<g id="edge8" class="edge">
<title>Node7&#45;&gt;Node2</title>
<path fill="none" stroke="midnightblue" d="M277.02,-461.14C322.24,-499.86 499.36,-641.45 671,-641.45 671,-641.45 671,-641.45 881,-641.45 907.71,-641.45 1269.59,-676.85 1421.79,-691.86"/>
<polygon fill="midnightblue" stroke="midnightblue" points="1421.65,-695.36 1431.95,-692.86 1422.34,-688.39 1421.65,-695.36"/>
</g>
<!-- Node7&#45;&gt;Node3 -->
<g id="edge9" class="edge">
<title>Node7&#45;&gt;Node3</title>
<path fill="none" stroke="midnightblue" d="M269.97,-441.59C295.44,-380.15 442.01,-52.45 671,-52.45 671,-52.45 671,-52.45 1311,-52.45 1416.43,-52.45 1463.61,-11.95 1547,-76.45 1644.83,-152.13 1661.56,-317.68 1664.42,-374.69"/>
<polygon fill="midnightblue" stroke="midnightblue" points="1660.93,-375.02 1664.83,-384.87 1667.92,-374.73 1660.93,-375.02"/>
</g>
<!-- Node8 -->
<g id="node8" class="node">
<title>Node8</title>
<g id="a_node8"><a xlink:href="../../d0/dfe/class_syntax_analyzer.html#a53b0048490647d82a92a77ed1ffb013d" target="_top" xlink:title=" ">
<polygon fill="none" stroke="black" points="388,-441.95 388,-460.95 542,-460.95 542,-441.95 388,-441.95"/>
<text text-anchor="middle" x="465" y="-448.95" font-family="Helvetica,sans-Serif" font-size="10.00">SyntaxAnalyzer::syntaxExpr</text>
</a>
</g>
</g>
<!-- Node7&#45;&gt;Node8 -->
<g id="edge10" class="edge">
<title>Node7&#45;&gt;Node8</title>
<path fill="none" stroke="midnightblue" d="M352.27,-451.45C360.72,-451.45 369.29,-451.45 377.73,-451.45"/>
<polygon fill="midnightblue" stroke="midnightblue" points="377.96,-454.95 387.96,-451.45 377.96,-447.95 377.96,-454.95"/>
</g>
<!-- Node18 -->
<g id="node18" class="node">
<title>Node18</title>
<g id="a_node18"><a xlink:href="../../d0/dfe/class_syntax_analyzer.html#a8d3dc6feefe1957f1c81cbc7b8318559" target="_top" xlink:title=" ">
<polygon fill="none" stroke="black" points="1224,-346.95 1224,-365.95 1396,-365.95 1396,-346.95 1224,-346.95"/>
<text text-anchor="middle" x="1310" y="-353.95" font-family="Helvetica,sans-Serif" font-size="10.00">SyntaxAnalyzer::syntaxVariable</text>
</a>
</g>
</g>
<!-- Node7&#45;&gt;Node18 -->
<g id="edge42" class="edge">
<title>Node7&#45;&gt;Node18</title>
<path fill="none" stroke="midnightblue" d="M291,-441.9C343.34,-422.39 468.63,-378.24 578,-359.45 803.14,-320.78 1073.06,-335 1213.49,-346.86"/>
<polygon fill="midnightblue" stroke="midnightblue" points="1213.53,-350.38 1223.79,-347.75 1214.13,-343.4 1213.53,-350.38"/>
</g>
<!-- Node8&#45;&gt;Node2 -->
<g id="edge11" class="edge">
<title>Node8&#45;&gt;Node2</title>
<path fill="none" stroke="midnightblue" d="M485.55,-461.03C570.6,-502.08 917.9,-663.29 1224,-712.45 1291.82,-723.35 1370.55,-716.76 1424.36,-709.39"/>
<polygon fill="midnightblue" stroke="midnightblue" points="1425.04,-712.82 1434.45,-707.95 1424.05,-705.89 1425.04,-712.82"/>
</g>
<!-- Node8&#45;&gt;Node3 -->
<g id="edge12" class="edge">
<title>Node8&#45;&gt;Node3</title>
<path fill="none" stroke="midnightblue" d="M469.11,-441.9C479.39,-411.86 515.27,-318.48 578,-271.45 767.04,-129.74 853.74,-128.45 1090,-128.45 1090,-128.45 1090,-128.45 1311,-128.45 1424.07,-128.45 1458.71,-152.82 1547,-223.45 1600.86,-266.54 1640.09,-340.67 1656.5,-375.42"/>
<polygon fill="midnightblue" stroke="midnightblue" points="1653.49,-377.25 1660.85,-384.87 1659.85,-374.32 1653.49,-377.25"/>
</g>
<!-- Node9 -->
<g id="node9" class="node">
<title>Node9</title>
<g id="a_node9"><a xlink:href="../../d0/d11/class_i_token.html#a568cb9d98839eff3fd758f419a76b092" target="_top" xlink:title="Получение типа токена">
<polygon fill="none" stroke="black" points="1443.5,-232.95 1443.5,-251.95 1535.5,-251.95 1535.5,-232.95 1443.5,-232.95"/>
<text text-anchor="middle" x="1489.5" y="-239.95" font-family="Helvetica,sans-Serif" font-size="10.00">IToken::getType</text>
</a>
</g>
</g>
<!-- Node8&#45;&gt;Node9 -->
<g id="edge13" class="edge">
<title>Node8&#45;&gt;Node9</title>
<path fill="none" stroke="midnightblue" d="M475.25,-441.68C493.32,-423.13 535.3,-382.58 578,-359.45 748.45,-267.14 802.61,-259.16 994,-228.45 1094.94,-212.26 1121.77,-226.12 1224,-225.45 1300.44,-224.96 1319.87,-218.52 1396,-225.45 1408.96,-226.63 1422.81,-228.73 1435.75,-231.05"/>
<polygon fill="midnightblue" stroke="midnightblue" points="1435.42,-234.55 1445.9,-232.95 1436.71,-227.67 1435.42,-234.55"/>
</g>
<!-- Node10 -->
<g id="node10" class="node">
<title>Node10</title>
<g id="a_node10"><a xlink:href="../../df/d3f/_syntax_8hpp.html#ae7d62ca130413d4c96863327c1af81a4" target="_top" xlink:title="Возвращает истину, если value находится среди значений cont.">
<polygon fill="none" stroke="black" points="1074,-441.95 1074,-460.95 1108,-460.95 1108,-441.95 1074,-441.95"/>
<text text-anchor="middle" x="1091" y="-448.95" font-family="Helvetica,sans-Serif" font-size="10.00">isIn</text>
</a>
</g>
</g>
<!-- Node8&#45;&gt;Node10 -->
<g id="edge14" class="edge">
<title>Node8&#45;&gt;Node10</title>
<path fill="none" stroke="midnightblue" d="M511.55,-441.94C531.8,-438.18 555.99,-434.31 578,-432.45 763.44,-416.84 987.73,-439.43 1063.53,-448.22"/>
<polygon fill="midnightblue" stroke="midnightblue" points="1063.27,-451.71 1073.61,-449.41 1064.09,-444.76 1063.27,-451.71"/>
</g>
<!-- Node11 -->
<g id="node11" class="node">
<title>Node11</title>
<g id="a_node11"><a xlink:href="../../d0/dfe/class_syntax_analyzer.html#a920d9565d4aa2e3815ff9e7146f45a0b" target="_top" xlink:title=" ">
<polygon fill="none" stroke="black" points="578,-441.95 578,-460.95 766,-460.95 766,-441.95 578,-441.95"/>
<text text-anchor="middle" x="672" y="-448.95" font-family="Helvetica,sans-Serif" font-size="10.00">SyntaxAnalyzer::syntaxSimpleExpr</text>
</a>
</g>
</g>
<!-- Node8&#45;&gt;Node11 -->
<g id="edge15" class="edge">
<title>Node8&#45;&gt;Node11</title>
<path fill="none" stroke="midnightblue" d="M542.04,-451.45C550.4,-451.45 559,-451.45 567.62,-451.45"/>
<polygon fill="midnightblue" stroke="midnightblue" points="567.72,-454.95 577.72,-451.45 567.72,-447.95 567.72,-454.95"/>
</g>
<!-- Node11&#45;&gt;Node2 -->
<g id="edge16" class="edge">
<title>Node11&#45;&gt;Node2</title>
<path fill="none" stroke="midnightblue" d="M695.18,-460.97C720.73,-471.81 764.07,-489.76 802,-503.45 825.15,-511.81 1200.25,-631.97 1224,-638.45 1294.63,-657.72 1377.03,-675.72 1430.85,-686.88"/>
<polygon fill="midnightblue" stroke="midnightblue" points="1430.39,-690.36 1440.89,-688.95 1431.81,-683.5 1430.39,-690.36"/>
</g>
<!-- Node11&#45;&gt;Node3 -->
<g id="edge17" class="edge">
<title>Node11&#45;&gt;Node3</title>
<path fill="none" stroke="midnightblue" d="M751.02,-460.96C767.81,-462.72 785.48,-464.34 802,-465.45 887.17,-471.17 908.64,-469.34 994,-470.45 1080.21,-471.58 1101.98,-476.41 1188,-470.45 1348.71,-459.32 1388.44,-448.92 1547,-420.45 1569.62,-416.39 1594.5,-411.04 1615.55,-406.26"/>
<polygon fill="midnightblue" stroke="midnightblue" points="1616.59,-409.61 1625.55,-403.96 1615.02,-402.79 1616.59,-409.61"/>
</g>
<!-- Node11&#45;&gt;Node9 -->
<g id="edge18" class="edge">
<title>Node11&#45;&gt;Node9</title>
<path fill="none" stroke="midnightblue" d="M684.23,-441.9C723.54,-409.14 859.82,-301.3 994,-262.45 1148.13,-217.84 1340.54,-227.67 1433.36,-236.26"/>
<polygon fill="midnightblue" stroke="midnightblue" points="1433.08,-239.75 1443.37,-237.22 1433.75,-232.78 1433.08,-239.75"/>
</g>
<!-- Node11&#45;&gt;Node10 -->
<g id="edge19" class="edge">
<title>Node11&#45;&gt;Node10</title>
<path fill="none" stroke="midnightblue" d="M766.06,-451.45C861.9,-451.45 1005.26,-451.45 1063.74,-451.45"/>
<polygon fill="midnightblue" stroke="midnightblue" points="1063.96,-454.95 1073.96,-451.45 1063.96,-447.95 1063.96,-454.95"/>
</g>
<!-- Node12 -->
<g id="node12" class="node">
<title>Node12</title>
<g id="a_node12"><a xlink:href="../../d0/dfe/class_syntax_analyzer.html#a7721cf7d36d549f81fd05c40dba02f67" target="_top" xlink:title=" ">
<polygon fill="none" stroke="black" points="802,-365.95 802,-384.95 958,-384.95 958,-365.95 802,-365.95"/>
<text text-anchor="middle" x="880" y="-372.95" font-family="Helvetica,sans-Serif" font-size="10.00">SyntaxAnalyzer::syntaxTerm</text>
</a>
</g>
</g>
<!-- Node11&#45;&gt;Node12 -->
<g id="edge20" class="edge">
<title>Node11&#45;&gt;Node12</title>
<path fill="none" stroke="midnightblue" d="M699.09,-441.83C735.7,-428.32 802.42,-403.71 843.51,-388.55"/>
<polygon fill="midnightblue" stroke="midnightblue" points="844.95,-391.75 853.12,-385 842.53,-385.18 844.95,-391.75"/>
</g>
<!-- Node12&#45;&gt;Node2 -->
<g id="edge21" class="edge">
<title>Node12&#45;&gt;Node2</title>
<path fill="none" stroke="midnightblue" d="M891.1,-385C910.29,-402.89 953.71,-442.2 994,-470.45 1090.67,-538.26 1114.54,-559.15 1224,-603.45 1297.04,-633.02 1322.78,-617.33 1396,-646.45 1420.93,-656.37 1447.42,-671.83 1465.64,-683.32"/>
<polygon fill="midnightblue" stroke="midnightblue" points="1464.05,-686.46 1474.36,-688.91 1467.83,-680.57 1464.05,-686.46"/>
</g>
<!-- Node12&#45;&gt;Node3 -->
<g id="edge22" class="edge">
<title>Node12&#45;&gt;Node3</title>
<path fill="none" stroke="midnightblue" d="M928.36,-385C948.5,-388.65 972.31,-392.42 994,-394.45 1238.74,-417.42 1301.37,-412.81 1547,-403.45 1558.19,-403.03 1569.97,-402.37 1581.58,-401.61"/>
<polygon fill="midnightblue" stroke="midnightblue" points="1581.98,-405.09 1591.72,-400.91 1581.5,-398.11 1581.98,-405.09"/>
</g>
<!-- Node12&#45;&gt;Node9 -->
<g id="edge23" class="edge">
<title>Node12&#45;&gt;Node9</title>
<path fill="none" stroke="midnightblue" d="M901.7,-365.95C954.23,-342.36 1097.51,-281.23 1224,-256.45 1295.22,-242.5 1379.16,-240.43 1433.06,-240.9"/>
<polygon fill="midnightblue" stroke="midnightblue" points="1433.06,-244.4 1443.1,-241.02 1433.14,-237.4 1433.06,-244.4"/>
</g>
<!-- Node12&#45;&gt;Node10 -->
<g id="edge24" class="edge">
<title>Node12&#45;&gt;Node10</title>
<path fill="none" stroke="midnightblue" d="M921.26,-385.04C933.43,-388.71 946.58,-393.49 958,-399.45 975.96,-408.84 975.77,-418.58 994,-427.45 1016.26,-438.29 1043.88,-444.53 1063.77,-447.92"/>
<polygon fill="midnightblue" stroke="midnightblue" points="1063.24,-451.38 1073.67,-449.48 1064.33,-444.46 1063.24,-451.38"/>
</g>
<!-- Node13 -->
<g id="node13" class="node">
<title>Node13</title>
<g id="a_node13"><a xlink:href="../../d0/dfe/class_syntax_analyzer.html#ab9b415ddd671b4884ab31cdf194f6c64" target="_top" xlink:title=" ">
<polygon fill="none" stroke="black" points="1010.5,-365.95 1010.5,-384.95 1171.5,-384.95 1171.5,-365.95 1010.5,-365.95"/>
<text text-anchor="middle" x="1091" y="-372.95" font-family="Helvetica,sans-Serif" font-size="10.00">SyntaxAnalyzer::syntaxFactor</text>
</a>
</g>
</g>
<!-- Node12&#45;&gt;Node13 -->
<g id="edge25" class="edge">
<title>Node12&#45;&gt;Node13</title>
<path fill="none" stroke="midnightblue" d="M958.23,-375.45C971.89,-375.45 986.22,-375.45 1000.19,-375.45"/>
<polygon fill="midnightblue" stroke="midnightblue" points="1000.29,-378.95 1010.29,-375.45 1000.29,-371.95 1000.29,-378.95"/>
</g>
<!-- Node13&#45;&gt;Node2 -->
<g id="edge26" class="edge">
<title>Node13&#45;&gt;Node2</title>
<path fill="none" stroke="midnightblue" d="M1126.14,-385C1187.01,-403.51 1315.46,-449.46 1396,-527.45 1441.95,-571.95 1470.56,-644.26 1482.32,-678.83"/>
<polygon fill="midnightblue" stroke="midnightblue" points="1479.1,-680.24 1485.55,-688.65 1485.75,-678.06 1479.1,-680.24"/>
</g>
<!-- Node13&#45;&gt;Node3 -->
<g id="edge27" class="edge">
<title>Node13&#45;&gt;Node3</title>
<path fill="none" stroke="midnightblue" d="M1171.67,-378.1C1279.77,-381.68 1471.98,-388.05 1581.85,-391.7"/>
<polygon fill="midnightblue" stroke="midnightblue" points="1581.78,-395.2 1591.89,-392.03 1582.01,-388.2 1581.78,-395.2"/>
</g>
<!-- Node13&#45;&gt;Node5 -->
<g id="edge33" class="edge">
<title>Node13&#45;&gt;Node5</title>
<path fill="none" stroke="midnightblue" d="M1117.6,-385.13C1138.99,-394.38 1168.97,-410.21 1188,-432.45 1216.01,-465.19 1191.98,-493.64 1224,-522.45 1228.53,-526.53 1233.7,-529.92 1239.2,-532.73"/>
<polygon fill="midnightblue" stroke="midnightblue" points="1238.16,-536.1 1248.72,-536.95 1240.99,-529.7 1238.16,-536.1"/>
</g>
<!-- Node13&#45;&gt;Node8 -->
<g id="edge38" class="edge">
<title>Node13&#45;&gt;Node8</title>
<path fill="none" stroke="midnightblue" d="M1036.24,-365.94C1012.36,-362.17 983.86,-358.31 958,-356.45 888.84,-351.5 870.68,-346.93 802,-356.45 689.04,-372.12 560.66,-416.06 500.52,-438.26"/>
<polygon fill="midnightblue" stroke="midnightblue" points="498.93,-435.12 490.78,-441.89 501.38,-441.68 498.93,-435.12"/>
</g>
<!-- Node13&#45;&gt;Node9 -->
<g id="edge32" class="edge">
<title>Node13&#45;&gt;Node9</title>
<path fill="none" stroke="midnightblue" d="M1105.54,-365.74C1128.69,-349.58 1177.85,-317.21 1224,-299.45 1261.56,-285 1367.32,-264.36 1433.17,-252.29"/>
<polygon fill="midnightblue" stroke="midnightblue" points="1434.17,-255.67 1443.38,-250.43 1432.91,-248.78 1434.17,-255.67"/>
</g>
<!-- Node14 -->
<g id="node14" class="node">
<title>Node14</title>
<g id="a_node14"><a xlink:href="../../db/dc1/class_token.html#a014ced0a9ea72ae21fad0d4f116d0a73" target="_top" xlink:title=" ">
<polygon fill="none" stroke="black" points="1267.5,-308.95 1267.5,-327.95 1352.5,-327.95 1352.5,-308.95 1267.5,-308.95"/>
<text text-anchor="middle" x="1310" y="-315.95" font-family="Helvetica,sans-Serif" font-size="10.00">Token::getInfo</text>
</a>
</g>
</g>
<!-- Node13&#45;&gt;Node14 -->
<g id="edge28" class="edge">
<title>Node13&#45;&gt;Node14</title>
<path fill="none" stroke="midnightblue" d="M1123.06,-365.94C1149.72,-357.91 1189.23,-346.34 1224,-337.45 1234.77,-334.7 1246.36,-331.97 1257.41,-329.46"/>
<polygon fill="midnightblue" stroke="midnightblue" points="1258.38,-332.83 1267.38,-327.23 1256.85,-326 1258.38,-332.83"/>
</g>
<!-- Node13&#45;&gt;Node17 -->
<g id="edge34" class="edge">
<title>Node13&#45;&gt;Node17</title>
<path fill="none" stroke="midnightblue" d="M1119.58,-385.13C1141.27,-394.13 1170.65,-409.61 1188,-432.45 1225.04,-481.22 1179.75,-523.12 1224,-565.45 1225.48,-566.86 1227.03,-568.18 1228.66,-569.41"/>
<polygon fill="midnightblue" stroke="midnightblue" points="1226.95,-572.47 1237.29,-574.81 1230.67,-566.54 1226.95,-572.47"/>
</g>
<!-- Node13&#45;&gt;Node18 -->
<g id="edge39" class="edge">
<title>Node13&#45;&gt;Node18</title>
<path fill="none" stroke="midnightblue" d="M1171.57,-368.49C1185.29,-367.29 1199.69,-366.03 1213.77,-364.79"/>
<polygon fill="midnightblue" stroke="midnightblue" points="1214.31,-368.26 1223.96,-363.9 1213.7,-361.28 1214.31,-368.26"/>
</g>
<!-- Node14&#45;&gt;Node9 -->
<g id="edge30" class="edge">
<title>Node14&#45;&gt;Node9</title>
<path fill="none" stroke="midnightblue" d="M1352.74,-310.79C1367.02,-307.11 1382.74,-301.85 1396,-294.45 1414.96,-283.88 1413.31,-272.49 1432,-261.45 1435.46,-259.41 1439.17,-257.55 1442.98,-255.87"/>
<polygon fill="midnightblue" stroke="midnightblue" points="1444.56,-259 1452.54,-252.03 1441.96,-252.5 1444.56,-259"/>
</g>
<!-- Node15 -->
<g id="node15" class="node">
<title>Node15</title>
<g id="a_node15"><a xlink:href="../../db/dc1/class_token.html#a942fcc40ffdf54c98b7b641c792a26bc" target="_top" xlink:title="Возвращает константную ссылку на строковое представление токена">
<polygon fill="none" stroke="black" points="1449.5,-308.95 1449.5,-327.95 1529.5,-327.95 1529.5,-308.95 1449.5,-308.95"/>
<text text-anchor="middle" x="1489.5" y="-315.95" font-family="Helvetica,sans-Serif" font-size="10.00">Token::getStr</text>
</a>
</g>
</g>
<!-- Node14&#45;&gt;Node15 -->
<g id="edge29" class="edge">
<title>Node14&#45;&gt;Node15</title>
<path fill="none" stroke="midnightblue" d="M1352.62,-318.45C1378.51,-318.45 1411.95,-318.45 1439.17,-318.45"/>
<polygon fill="midnightblue" stroke="midnightblue" points="1439.27,-321.95 1449.27,-318.45 1439.27,-314.95 1439.27,-321.95"/>
</g>
<!-- Node16 -->
<g id="node16" class="node">
<title>Node16</title>
<g id="a_node16"><a xlink:href="../../db/dc1/class_token.html#af3b5fdf2261d637af820d4adb62e6109" target="_top" xlink:title=" ">
<polygon fill="none" stroke="black" points="1455.5,-270.95 1455.5,-289.95 1523.5,-289.95 1523.5,-270.95 1455.5,-270.95"/>
<text text-anchor="middle" x="1489.5" y="-277.95" font-family="Helvetica,sans-Serif" font-size="10.00">Token::line</text>
</a>
</g>
</g>
<!-- Node14&#45;&gt;Node16 -->
<g id="edge31" class="edge">
<title>Node14&#45;&gt;Node16</title>
<path fill="none" stroke="midnightblue" d="M1352.62,-309.54C1380.54,-303.57 1417.24,-295.71 1445.46,-289.67"/>
<polygon fill="midnightblue" stroke="midnightblue" points="1446.39,-293.05 1455.44,-287.53 1444.93,-286.2 1446.39,-293.05"/>
</g>
<!-- Node17&#45;&gt;Node2 -->
<g id="edge35" class="edge">
<title>Node17&#45;&gt;Node2</title>
<path fill="none" stroke="midnightblue" d="M1360.78,-594.06C1372.78,-597.56 1385.24,-602.25 1396,-608.45 1428.77,-627.37 1458.56,-660.49 1475.04,-680.85"/>
<polygon fill="midnightblue" stroke="midnightblue" points="1472.31,-683.04 1481.26,-688.71 1477.8,-678.7 1472.31,-683.04"/>
</g>
<!-- Node17&#45;&gt;Node3 -->
<g id="edge36" class="edge">
<title>Node17&#45;&gt;Node3</title>
<path fill="none" stroke="midnightblue" d="M1380.96,-593.96C1430.55,-597.24 1496.89,-594.38 1547,-565.45 1607.56,-530.49 1644.07,-450.42 1658.22,-413.61"/>
<polygon fill="midnightblue" stroke="midnightblue" points="1661.57,-414.65 1661.76,-404.06 1655.01,-412.22 1661.57,-414.65"/>
</g>
<!-- Node17&#45;&gt;Node8 -->
<g id="edge37" class="edge">
<title>Node17&#45;&gt;Node8</title>
<path fill="none" stroke="midnightblue" d="M1245.89,-574.9C1119.19,-555.66 824.89,-510.65 578,-470.45 562.83,-467.98 546.52,-465.26 531.16,-462.66"/>
<polygon fill="midnightblue" stroke="midnightblue" points="531.68,-459.2 521.23,-460.97 530.51,-466.1 531.68,-459.2"/>
</g>
<!-- Node18&#45;&gt;Node2 -->
<g id="edge40" class="edge">
<title>Node18&#45;&gt;Node2</title>
<path fill="none" stroke="midnightblue" d="M1317.63,-366.24C1332.56,-388.49 1369.57,-444.77 1396,-494.45 1431.24,-560.7 1465.91,-642.97 1480.84,-679.48"/>
<polygon fill="midnightblue" stroke="midnightblue" points="1477.66,-680.95 1484.67,-688.9 1484.15,-678.31 1477.66,-680.95"/>
</g>
<!-- Node18&#45;&gt;Node3 -->
<g id="edge41" class="edge">
<title>Node18&#45;&gt;Node3</title>
<path fill="none" stroke="midnightblue" d="M1396.24,-364.77C1441.12,-369.24 1497.06,-374.95 1547,-380.45 1558.18,-381.69 1569.95,-383.03 1581.56,-384.38"/>
<polygon fill="midnightblue" stroke="midnightblue" points="1581.35,-387.88 1591.69,-385.56 1582.16,-380.92 1581.35,-387.88"/>
</g>
<!-- Node19&#45;&gt;Node2 -->
<g id="edge46" class="edge">
<title>Node19&#45;&gt;Node2</title>
<path fill="none" stroke="midnightblue" d="M1113.26,-955.06C1166.55,-977.54 1307.86,-1027.12 1396,-964.45 1478.24,-905.98 1488,-768.9 1488.69,-717.96"/>
<polygon fill="midnightblue" stroke="midnightblue" points="1492.19,-717.97 1488.72,-707.96 1485.19,-717.94 1492.19,-717.97"/>
</g>
<!-- Node20 -->
<g id="node20" class="node">
<title>Node20</title>
<g id="a_node20"><a xlink:href="../../da/dbb/class_compound_a_s_t.html#a596c1d112edc624fe50ed8a261ffd532" target="_top" xlink:title=" ">
<polygon fill="none" stroke="black" points="1242,-935.95 1242,-954.95 1378,-954.95 1378,-935.95 1242,-935.95"/>
<text text-anchor="middle" x="1310" y="-942.95" font-family="Helvetica,sans-Serif" font-size="10.00">CompoundAST::addChild</text>
</a>
</g>
</g>
<!-- Node19&#45;&gt;Node20 -->
<g id="edge45" class="edge">
<title>Node19&#45;&gt;Node20</title>
<path fill="none" stroke="midnightblue" d="M1188.13,-945.45C1202.72,-945.45 1217.62,-945.45 1231.75,-945.45"/>
<polygon fill="midnightblue" stroke="midnightblue" points="1231.88,-948.95 1241.88,-945.45 1231.88,-941.95 1231.88,-948.95"/>
</g>
<!-- Node21 -->
<g id="node21" class="node">
<title>Node21</title>
<g id="a_node21"><a xlink:href="../../d0/dfe/class_syntax_analyzer.html#a79a0e444afd499634f445f0b8919dd0f" target="_top" xlink:title=" ">
<polygon fill="none" stroke="black" points="1230.5,-897.95 1230.5,-916.95 1389.5,-916.95 1389.5,-897.95 1230.5,-897.95"/>
<text text-anchor="middle" x="1310" y="-904.95" font-family="Helvetica,sans-Serif" font-size="10.00">SyntaxAnalyzer::syntaxStList</text>
</a>
</g>
</g>
<!-- Node19&#45;&gt;Node21 -->
<g id="edge47" class="edge">
<title>Node19&#45;&gt;Node21</title>
<path fill="none" stroke="midnightblue" d="M1146.48,-935.91C1176.27,-930.7 1213.36,-924.2 1244.59,-918.73"/>
<polygon fill="midnightblue" stroke="midnightblue" points="1245.25,-922.17 1254.5,-917 1244.05,-915.28 1245.25,-922.17"/>
</g>
<!-- Node21&#45;&gt;Node1 -->
<g id="edge50" class="edge">
<title>Node21&#45;&gt;Node1</title>
<path fill="none" stroke="midnightblue" d="M1230.35,-909.59C1006.47,-914.67 369.57,-921.83 178,-845.45 139.2,-829.98 104.42,-794.31 85.96,-772.81"/>
<polygon fill="midnightblue" stroke="midnightblue" points="88.59,-770.51 79.5,-765.08 83.22,-775 88.59,-770.51"/>
</g>
<!-- Node21&#45;&gt;Node2 -->
<g id="edge48" class="edge">
<title>Node21&#45;&gt;Node2</title>
<path fill="none" stroke="midnightblue" d="M1371.17,-897.83C1380.21,-894.39 1388.87,-889.74 1396,-883.45 1426.77,-856.32 1413.88,-835.26 1432,-798.45 1446.38,-769.24 1465.4,-736.61 1477.29,-716.81"/>
<polygon fill="midnightblue" stroke="midnightblue" points="1480.33,-718.56 1482.51,-708.19 1474.34,-714.93 1480.33,-718.56"/>
</g>
<!-- Node21&#45;&gt;Node3 -->
<g id="edge49" class="edge">
<title>Node21&#45;&gt;Node3</title>
<path fill="none" stroke="midnightblue" d="M1362.38,-897.91C1373.96,-894.43 1385.83,-889.75 1396,-883.45 1480.82,-830.99 1495.36,-802.78 1547,-717.45 1610.93,-611.81 1648.58,-466.04 1660.69,-413.94"/>
<polygon fill="midnightblue" stroke="midnightblue" points="1664.13,-414.56 1662.94,-404.03 1657.31,-413.01 1664.13,-414.56"/>
</g>
<!-- Node23&#45;&gt;Node1 -->
<g id="edge56" class="edge">
<title>Node23&#45;&gt;Node1</title>
<path fill="none" stroke="midnightblue" d="M245.46,-688.96C227.75,-693.85 200.51,-699.1 178,-707.45 153.48,-716.55 127.59,-730.38 107.54,-741.09"/>
<polygon fill="midnightblue" stroke="midnightblue" points="105.67,-738.12 98.48,-745.91 108.96,-744.3 105.67,-738.12"/>
</g>
<!-- Node23&#45;&gt;Node2 -->
<g id="edge53" class="edge">
<title>Node23&#45;&gt;Node2</title>
<path fill="none" stroke="midnightblue" d="M339.53,-686.45C470.8,-698.55 754.19,-722.9 994,-731.45 1080.17,-734.53 1101.78,-732.08 1188,-731.45 1280.45,-730.79 1305.47,-747.24 1396,-728.45 1412.97,-724.93 1415.59,-719.02 1432,-713.45 1434.57,-712.58 1437.22,-711.73 1439.9,-710.9"/>
<polygon fill="midnightblue" stroke="midnightblue" points="1441.09,-714.2 1449.69,-708.01 1439.11,-707.48 1441.09,-714.2"/>
</g>
<!-- Node23&#45;&gt;Node3 -->
<g id="edge54" class="edge">
<title>Node23&#45;&gt;Node3</title>
<path fill="none" stroke="midnightblue" d="M270.44,-669.68C300.49,-603.99 475.95,-227.28 578,-158.45 691.71,-81.77 741.85,-90.45 879,-90.45 879,-90.45 879,-90.45 1311,-90.45 1418.6,-90.45 1463.16,-77.02 1547,-144.45 1623.17,-205.72 1652.83,-327.74 1661.77,-375.07"/>
<polygon fill="midnightblue" stroke="midnightblue" points="1658.33,-375.71 1663.54,-384.94 1665.22,-374.48 1658.33,-375.71"/>
</g>
<!-- Node23&#45;&gt;Node8 -->
<g id="edge55" class="edge">
<title>Node23&#45;&gt;Node8</title>
<path fill="none" stroke="midnightblue" d="M274.26,-669.95C304.51,-635.11 409.59,-514.11 448.95,-468.78"/>
<polygon fill="midnightblue" stroke="midnightblue" points="451.79,-470.85 455.71,-461 446.51,-466.26 451.79,-470.85"/>
</g>
<!-- Node24&#45;&gt;Node1 -->
<g id="edge60" class="edge">
<title>Node24&#45;&gt;Node1</title>
<path fill="none" stroke="midnightblue" d="M179.7,-762.16C170.59,-762.23 161.33,-762.22 152.27,-762.12"/>
<polygon fill="midnightblue" stroke="midnightblue" points="152.18,-758.62 142.13,-761.98 152.08,-765.62 152.18,-758.62"/>
</g>
<!-- Node24&#45;&gt;Node2 -->
<g id="edge58" class="edge">
<title>Node24&#45;&gt;Node2</title>
<path fill="none" stroke="midnightblue" d="M305.7,-764.98C455.33,-798.88 996.89,-903.54 1396,-746.45 1416.2,-738.5 1412.96,-723.87 1432,-713.45 1432.96,-712.93 1433.93,-712.42 1434.93,-711.93"/>
<polygon fill="midnightblue" stroke="midnightblue" points="1436.38,-715.12 1444.2,-707.98 1433.63,-708.68 1436.38,-715.12"/>
</g>
<!-- Node24&#45;&gt;Node8 -->
<g id="edge59" class="edge">
<title>Node24&#45;&gt;Node8</title>
<path fill="none" stroke="midnightblue" d="M337.27,-745.8C342.58,-743.3 347.58,-740.23 352,-736.45 435.43,-665.19 457.13,-523.59 462.41,-471.39"/>
<polygon fill="midnightblue" stroke="midnightblue" points="465.92,-471.42 463.35,-461.14 458.95,-470.78 465.92,-471.42"/>
</g>
</g>
</svg>
