<?xml version="1.0" encoding="UTF-8" standalone="no"?>
<!DOCTYPE svg PUBLIC "-//W3C//DTD SVG 1.1//EN"
 "http://www.w3.org/Graphics/SVG/1.1/DTD/svg11.dtd">
<!-- Generated by graphviz version 3.0.0 (20220413.0106)
 -->
<!-- Title: analyzePascalProgram Pages: 1 -->
<svg width="903pt" height="287pt"
 viewBox="0.00 0.00 903.00 287.00" xmlns="http://www.w3.org/2000/svg" xmlns:xlink="http://www.w3.org/1999/xlink">
<g id="graph0" class="graph" transform="scale(1 1) rotate(0) translate(4 283)">
<title>analyzePascalProgram</title>
<!-- Node1 -->
<g id="node1" class="node">
<title>Node1</title>
<g id="a_node1"><a xlink:title=" ">
<polygon fill="#bfbfbf" stroke="black" points="0,-107.5 0,-126.5 116,-126.5 116,-107.5 0,-107.5"/>
<text text-anchor="middle" x="58" y="-114.5" font-family="Helvetica,sans-Serif" font-size="10.00">analyzePascalProgram</text>
</a>
</g>
</g>
<!-- Node2 -->
<g id="node2" class="node">
<title>Node2</title>
<g id="a_node2"><a xlink:href="../../d6/d1a/class_analyzer.html#a39ecdc1f31b74ef853f20312d0025a36" target="_top" xlink:title=" ">
<polygon fill="none" stroke="black" points="184,-183.5 184,-202.5 285,-202.5 285,-183.5 184,-183.5"/>
<text text-anchor="middle" x="234.5" y="-190.5" font-family="Helvetica,sans-Serif" font-size="10.00">Analyzer::addVisitor</text>
</a>
</g>
</g>
<!-- Node1&#45;&gt;Node2 -->
<g id="edge1" class="edge">
<title>Node1&#45;&gt;Node2</title>
<path fill="none" stroke="midnightblue" d="M71.54,-126.51C88.77,-139.15 121.17,-161.35 152,-174 158.92,-176.84 166.34,-179.3 173.8,-181.43"/>
<polygon fill="midnightblue" stroke="midnightblue" points="173.01,-184.84 183.57,-184.03 174.81,-178.08 173.01,-184.84"/>
</g>
<!-- Node3 -->
<g id="node3" class="node">
<title>Node3</title>
<g id="a_node3"><a xlink:href="../../d6/d1a/class_analyzer.html#aaa75d76110c2f35ca78714bef24f4962" target="_top" xlink:title=" ">
<polygon fill="none" stroke="black" points="181.5,-145.5 181.5,-164.5 287.5,-164.5 287.5,-145.5 181.5,-145.5"/>
<text text-anchor="middle" x="234.5" y="-152.5" font-family="Helvetica,sans-Serif" font-size="10.00">Analyzer::analyzeFile</text>
</a>
</g>
</g>
<!-- Node1&#45;&gt;Node3 -->
<g id="edge2" class="edge">
<title>Node1&#45;&gt;Node3</title>
<path fill="none" stroke="midnightblue" d="M103.03,-126.59C126.37,-131.67 155.23,-137.96 179.87,-143.32"/>
<polygon fill="midnightblue" stroke="midnightblue" points="179.27,-146.77 189.78,-145.48 180.76,-139.93 179.27,-146.77"/>
</g>
<!-- Node14 -->
<g id="node14" class="node">
<title>Node14</title>
<g id="a_node14"><a xlink:href="../../d1/d0c/namespace_pascal_rules.html#a32cd5d2936870d166896898ad6cd968e" target="_top" xlink:title="Возвращает шаблоны токинов языка Pascal.">
<polygon fill="none" stroke="black" points="152,-107.5 152,-126.5 317,-126.5 317,-107.5 152,-107.5"/>
<text text-anchor="middle" x="234.5" y="-114.5" font-family="Helvetica,sans-Serif" font-size="10.00">PascalRules::getPascalTemplates</text>
</a>
</g>
</g>
<!-- Node1&#45;&gt;Node14 -->
<g id="edge13" class="edge">
<title>Node1&#45;&gt;Node14</title>
<path fill="none" stroke="midnightblue" d="M116.14,-117C124.35,-117 132.98,-117 141.66,-117"/>
<polygon fill="midnightblue" stroke="midnightblue" points="141.86,-120.5 151.86,-117 141.86,-113.5 141.86,-120.5"/>
</g>
<!-- Node15 -->
<g id="node15" class="node">
<title>Node15</title>
<g id="a_node15"><a xlink:href="../../d1/d0c/namespace_pascal_rules.html#a5b3c3dcb5bb75fd385bd175120039ea2" target="_top" xlink:title=" ">
<polygon fill="none" stroke="black" points="171.5,-58 171.5,-88 297.5,-88 297.5,-58 171.5,-58"/>
<text text-anchor="start" x="179.5" y="-76" font-family="Helvetica,sans-Serif" font-size="10.00">PascalRules::getStandart</text>
<text text-anchor="middle" x="234.5" y="-65" font-family="Helvetica,sans-Serif" font-size="10.00">Funcs</text>
</a>
</g>
</g>
<!-- Node1&#45;&gt;Node15 -->
<g id="edge14" class="edge">
<title>Node1&#45;&gt;Node15</title>
<path fill="none" stroke="midnightblue" d="M96.86,-107.45C116.51,-102.5 141.14,-96.29 164.06,-90.51"/>
<polygon fill="midnightblue" stroke="midnightblue" points="164.91,-93.9 173.75,-88.07 163.2,-87.12 164.91,-93.9"/>
</g>
<!-- Node16 -->
<g id="node16" class="node">
<title>Node16</title>
<g id="a_node16"><a xlink:href="../../d6/d1a/class_analyzer.html#ad6a504688e610850ecd202acb8de5c51" target="_top" xlink:title=" ">
<polygon fill="none" stroke="black" points="173,-19.5 173,-38.5 296,-38.5 296,-19.5 173,-19.5"/>
<text text-anchor="middle" x="234.5" y="-26.5" font-family="Helvetica,sans-Serif" font-size="10.00">Analyzer::highlightOutput</text>
</a>
</g>
</g>
<!-- Node1&#45;&gt;Node16 -->
<g id="edge15" class="edge">
<title>Node1&#45;&gt;Node16</title>
<path fill="none" stroke="midnightblue" d="M68.97,-107.38C85.07,-92.39 118.43,-63.54 152,-48 157.32,-45.54 162.99,-43.38 168.76,-41.49"/>
<polygon fill="midnightblue" stroke="midnightblue" points="169.97,-44.78 178.54,-38.56 167.96,-38.08 169.97,-44.78"/>
</g>
<!-- Node4 -->
<g id="node4" class="node">
<title>Node4</title>
<g id="a_node4"><a xlink:href="../../da/d5a/class_lexer.html#a240680b247c9b95a1bbd802716b20f39" target="_top" xlink:title="Анализирует файл">
<polygon fill="none" stroke="black" points="353,-145.5 353,-164.5 446,-164.5 446,-145.5 353,-145.5"/>
<text text-anchor="middle" x="399.5" y="-152.5" font-family="Helvetica,sans-Serif" font-size="10.00">Lexer::analyzeFile</text>
</a>
</g>
</g>
<!-- Node3&#45;&gt;Node4 -->
<g id="edge3" class="edge">
<title>Node3&#45;&gt;Node4</title>
<path fill="none" stroke="midnightblue" d="M287.52,-155C305.13,-155 324.86,-155 342.74,-155"/>
<polygon fill="midnightblue" stroke="midnightblue" points="342.74,-158.5 352.74,-155 342.74,-151.5 342.74,-158.5"/>
</g>
<!-- Node5 -->
<g id="node5" class="node">
<title>Node5</title>
<g id="a_node5"><a xlink:href="../../da/d5a/class_lexer.html#a473a8abf892384a3e2769651318d7ab1" target="_top" xlink:title="Анализирует текст программы">
<polygon fill="none" stroke="black" points="482,-145.5 482,-164.5 615,-164.5 615,-145.5 482,-145.5"/>
<text text-anchor="middle" x="548.5" y="-152.5" font-family="Helvetica,sans-Serif" font-size="10.00">Lexer::analyzeProgramText</text>
</a>
</g>
</g>
<!-- Node4&#45;&gt;Node5 -->
<g id="edge4" class="edge">
<title>Node4&#45;&gt;Node5</title>
<path fill="none" stroke="midnightblue" d="M446.21,-155C454.32,-155 462.97,-155 471.66,-155"/>
<polygon fill="midnightblue" stroke="midnightblue" points="471.86,-158.5 481.86,-155 471.86,-151.5 471.86,-158.5"/>
</g>
<!-- Node6 -->
<g id="node6" class="node">
<title>Node6</title>
<g id="a_node6"><a xlink:href="../../d1/d34/class_list.html#ab62bcc4a78278e99a01cacea8ee22423" target="_top" xlink:title="Итератор для начала списка">
<polygon fill="none" stroke="black" points="669,-259.5 669,-278.5 730,-278.5 730,-259.5 669,-259.5"/>
<text text-anchor="middle" x="699.5" y="-266.5" font-family="Helvetica,sans-Serif" font-size="10.00">List::begin</text>
</a>
</g>
</g>
<!-- Node5&#45;&gt;Node6 -->
<g id="edge5" class="edge">
<title>Node5&#45;&gt;Node6</title>
<path fill="none" stroke="midnightblue" d="M557.52,-164.6C573.57,-183.27 611.49,-224.87 651,-250 653.94,-251.87 657.09,-253.61 660.32,-255.22"/>
<polygon fill="midnightblue" stroke="midnightblue" points="658.97,-258.45 669.52,-259.4 661.87,-252.08 658.97,-258.45"/>
</g>
<!-- Node7 -->
<g id="node7" class="node">
<title>Node7</title>
<g id="a_node7"><a xlink:href="../../dd/d5d/_lexer_8cpp.html#a0f45215a7e2c46f1cfbaf626be68fe07" target="_top" xlink:title=" ">
<polygon fill="none" stroke="black" points="655.5,-221.5 655.5,-240.5 743.5,-240.5 743.5,-221.5 655.5,-221.5"/>
<text text-anchor="middle" x="699.5" y="-228.5" font-family="Helvetica,sans-Serif" font-size="10.00">countFromBegin</text>
</a>
</g>
</g>
<!-- Node5&#45;&gt;Node7 -->
<g id="edge6" class="edge">
<title>Node5&#45;&gt;Node7</title>
<path fill="none" stroke="midnightblue" d="M564.98,-164.54C584.6,-176.43 619.64,-197 651,-212 654.88,-213.85 658.98,-215.69 663.1,-217.44"/>
<polygon fill="midnightblue" stroke="midnightblue" points="662.02,-220.78 672.6,-221.35 664.68,-214.31 662.02,-220.78"/>
</g>
<!-- Node8 -->
<g id="node8" class="node">
<title>Node8</title>
<g id="a_node8"><a xlink:href="../../d1/d34/class_list.html#a56026b900ba2e5a6c894797b57e9bdf1" target="_top" xlink:title="Конец списка">
<polygon fill="none" stroke="black" points="673,-183.5 673,-202.5 726,-202.5 726,-183.5 673,-183.5"/>
<text text-anchor="middle" x="699.5" y="-190.5" font-family="Helvetica,sans-Serif" font-size="10.00">List::end</text>
</a>
</g>
</g>
<!-- Node5&#45;&gt;Node8 -->
<g id="edge7" class="edge">
<title>Node5&#45;&gt;Node8</title>
<path fill="none" stroke="midnightblue" d="M587.1,-164.59C610.27,-170.5 639.82,-178.04 662.67,-183.86"/>
<polygon fill="midnightblue" stroke="midnightblue" points="662.09,-187.33 672.64,-186.41 663.82,-180.54 662.09,-187.33"/>
</g>
<!-- Node9 -->
<g id="node9" class="node">
<title>Node9</title>
<g id="a_node9"><a xlink:href="../../db/dc1/class_token.html#aa5d6826fae7d616e2cfe3e27b5dd594a" target="_top" xlink:title="Возвращает константную ссылку на строковое представление токена">
<polygon fill="none" stroke="black" points="662.5,-145.5 662.5,-164.5 736.5,-164.5 736.5,-145.5 662.5,-145.5"/>
<text text-anchor="middle" x="699.5" y="-152.5" font-family="Helvetica,sans-Serif" font-size="10.00">Token::getStr</text>
</a>
</g>
</g>
<!-- Node5&#45;&gt;Node9 -->
<g id="edge8" class="edge">
<title>Node5&#45;&gt;Node9</title>
<path fill="none" stroke="midnightblue" d="M615.29,-155C627.83,-155 640.7,-155 652.47,-155"/>
<polygon fill="midnightblue" stroke="midnightblue" points="652.48,-158.5 662.48,-155 652.48,-151.5 652.48,-158.5"/>
</g>
<!-- Node10 -->
<g id="node10" class="node">
<title>Node10</title>
<g id="a_node10"><a xlink:href="../../da/d5a/class_lexer.html#a50d38d21286cb6b84e9a24d267b3b6e0" target="_top" xlink:title="Возвращает строку, у которой убраны пустые символы в начале и конце">
<polygon fill="none" stroke="black" points="651,-107.5 651,-126.5 748,-126.5 748,-107.5 651,-107.5"/>
<text text-anchor="middle" x="699.5" y="-114.5" font-family="Helvetica,sans-Serif" font-size="10.00">Lexer::getTrimmed</text>
</a>
</g>
</g>
<!-- Node5&#45;&gt;Node10 -->
<g id="edge9" class="edge">
<title>Node5&#45;&gt;Node10</title>
<path fill="none" stroke="midnightblue" d="M587.1,-145.41C606.58,-140.44 630.57,-134.32 651.3,-129.04"/>
<polygon fill="midnightblue" stroke="midnightblue" points="652.35,-132.38 661.17,-126.52 650.62,-125.6 652.35,-132.38"/>
</g>
<!-- Node11 -->
<g id="node11" class="node">
<title>Node11</title>
<g id="a_node11"><a xlink:href="../../d0/d11/class_i_token.html#a968b6332dda18b7049a4737be3ffd036" target="_top" xlink:title="Получение типа токена">
<polygon fill="none" stroke="black" points="656.5,-69.5 656.5,-88.5 742.5,-88.5 742.5,-69.5 656.5,-69.5"/>
<text text-anchor="middle" x="699.5" y="-76.5" font-family="Helvetica,sans-Serif" font-size="10.00">IToken::getType</text>
</a>
</g>
</g>
<!-- Node5&#45;&gt;Node11 -->
<g id="edge10" class="edge">
<title>Node5&#45;&gt;Node11</title>
<path fill="none" stroke="midnightblue" d="M564.98,-145.46C584.6,-133.57 619.64,-113 651,-98 654.88,-96.15 658.98,-94.31 663.1,-92.56"/>
<polygon fill="midnightblue" stroke="midnightblue" points="664.68,-95.69 672.6,-88.65 662.02,-89.22 664.68,-95.69"/>
</g>
<!-- Node12 -->
<g id="node12" class="node">
<title>Node12</title>
<g id="a_node12"><a xlink:href="../../d1/d34/class_list.html#a0c471cf5c09edf2dcbdf1f37cac53e45" target="_top" xlink:title="Вставка в конец списка">
<polygon fill="none" stroke="black" points="659,-31.5 659,-50.5 740,-50.5 740,-31.5 659,-31.5"/>
<text text-anchor="middle" x="699.5" y="-38.5" font-family="Helvetica,sans-Serif" font-size="10.00">List::pushBack</text>
</a>
</g>
</g>
<!-- Node5&#45;&gt;Node12 -->
<g id="edge11" class="edge">
<title>Node5&#45;&gt;Node12</title>
<path fill="none" stroke="midnightblue" d="M557.52,-145.4C573.57,-126.73 611.49,-85.13 651,-60 653.94,-58.13 657.09,-56.39 660.32,-54.78"/>
<polygon fill="midnightblue" stroke="midnightblue" points="661.87,-57.92 669.52,-50.6 658.97,-51.55 661.87,-57.92"/>
</g>
<!-- Node13 -->
<g id="node13" class="node">
<title>Node13</title>
<g id="a_node13"><a xlink:href="../../dc/d8f/class_node.html#a5f29dc4844746c7e7780933173d31a4a" target="_top" xlink:title="Присоединяет узел pNext в качестве следующего узла">
<polygon fill="none" stroke="black" points="784,-31.5 784,-50.5 895,-50.5 895,-31.5 784,-31.5"/>
<text text-anchor="middle" x="839.5" y="-38.5" font-family="Helvetica,sans-Serif" font-size="10.00">Node::connectAsNext</text>
</a>
</g>
</g>
<!-- Node12&#45;&gt;Node13 -->
<g id="edge12" class="edge">
<title>Node12&#45;&gt;Node13</title>
<path fill="none" stroke="midnightblue" d="M740.05,-41C750.58,-41 762.24,-41 773.74,-41"/>
<polygon fill="midnightblue" stroke="midnightblue" points="773.78,-44.5 783.78,-41 773.78,-37.5 773.78,-44.5"/>
</g>
<!-- Node17 -->
<g id="node17" class="node">
<title>Node17</title>
<g id="a_node17"><a xlink:href="../../da/d5a/class_lexer.html#adbeec9404aa60bf4320f23e4b90bfc30" target="_top" xlink:title=" ">
<polygon fill="none" stroke="black" points="361,-38.5 361,-57.5 438,-57.5 438,-38.5 361,-38.5"/>
<text text-anchor="middle" x="399.5" y="-45.5" font-family="Helvetica,sans-Serif" font-size="10.00">Lexer::getText</text>
</a>
</g>
</g>
<!-- Node16&#45;&gt;Node17 -->
<g id="edge16" class="edge">
<title>Node16&#45;&gt;Node17</title>
<path fill="none" stroke="midnightblue" d="M296.2,-36.07C314.18,-38.17 333.62,-40.44 350.68,-42.43"/>
<polygon fill="midnightblue" stroke="midnightblue" points="350.61,-45.94 360.95,-43.62 351.42,-38.99 350.61,-45.94"/>
</g>
<!-- Node18 -->
<g id="node18" class="node">
<title>Node18</title>
<g id="a_node18"><a xlink:href="../../d1/d34/class_list.html#a49c179636e084dfbf7a52acd46acaf01" target="_top" xlink:title=" ">
<polygon fill="none" stroke="black" points="372,-0.5 372,-19.5 427,-19.5 427,-0.5 372,-0.5"/>
<text text-anchor="middle" x="399.5" y="-7.5" font-family="Helvetica,sans-Serif" font-size="10.00">List::size</text>
</a>
</g>
</g>
<!-- Node16&#45;&gt;Node18 -->
<g id="edge17" class="edge">
<title>Node16&#45;&gt;Node18</title>
<path fill="none" stroke="midnightblue" d="M296.2,-21.93C318.19,-19.36 342.35,-16.54 361.67,-14.29"/>
<polygon fill="midnightblue" stroke="midnightblue" points="362.33,-17.74 371.86,-13.11 361.52,-10.79 362.33,-17.74"/>
</g>
</g>
</svg>
