<?xml version="1.0" encoding="UTF-8" standalone="no"?>
<!DOCTYPE svg PUBLIC "-//W3C//DTD SVG 1.1//EN"
 "http://www.w3.org/Graphics/SVG/1.1/DTD/svg11.dtd">
<!-- Generated by graphviz version 3.0.0 (20220413.0106)
 -->
<!-- Title: src/AST.cpp Pages: 1 -->
<svg width="543pt" height="252pt"
 viewBox="0.00 0.00 543.00 252.00" xmlns="http://www.w3.org/2000/svg" xmlns:xlink="http://www.w3.org/1999/xlink">
<g id="graph0" class="graph" transform="scale(1 1) rotate(0) translate(4 248)">
<title>src/AST.cpp</title>
<!-- Node1 -->
<g id="node1" class="node">
<title>Node1</title>
<g id="a_node1"><a xlink:title=" ">
<polygon fill="#bfbfbf" stroke="black" points="315.5,-224.5 315.5,-243.5 386.5,-243.5 386.5,-224.5 315.5,-224.5"/>
<text text-anchor="middle" x="351" y="-231.5" font-family="Helvetica,sans-Serif" font-size="10.00">src/AST.cpp</text>
</a>
</g>
</g>
<!-- Node2 -->
<g id="node2" class="node">
<title>Node2</title>
<g id="a_node2"><a xlink:href="../../d4/dcb/_a_s_t_8hpp.html" target="_top" xlink:title=" ">
<polygon fill="none" stroke="black" points="324,-168.5 324,-187.5 378,-187.5 378,-168.5 324,-168.5"/>
<text text-anchor="middle" x="351" y="-175.5" font-family="Helvetica,sans-Serif" font-size="10.00">AST.hpp</text>
</a>
</g>
</g>
<!-- Node1&#45;&gt;Node2 -->
<g id="edge1" class="edge">
<title>Node1&#45;&gt;Node2</title>
<path fill="none" stroke="midnightblue" d="M351,-224.08C351,-217.01 351,-206.86 351,-197.99"/>
<polygon fill="midnightblue" stroke="midnightblue" points="354.5,-197.75 351,-187.75 347.5,-197.75 354.5,-197.75"/>
</g>
<!-- Node3 -->
<g id="node3" class="node">
<title>Node3</title>
<g id="a_node3"><a xlink:title=" ">
<polygon fill="none" stroke="#bfbfbf" points="0,-0.5 0,-19.5 44,-19.5 44,-0.5 0,-0.5"/>
<text text-anchor="middle" x="22" y="-7.5" font-family="Helvetica,sans-Serif" font-size="10.00">vector</text>
</a>
</g>
</g>
<!-- Node2&#45;&gt;Node3 -->
<g id="edge2" class="edge">
<title>Node2&#45;&gt;Node3</title>
<path fill="none" stroke="midnightblue" d="M328.89,-168.44C287.69,-152.22 196.77,-115.09 124,-76 94.81,-60.32 62.84,-39.26 42.62,-25.43"/>
<polygon fill="midnightblue" stroke="midnightblue" points="44.42,-22.42 34.2,-19.62 40.44,-28.18 44.42,-22.42"/>
</g>
<!-- Node4 -->
<g id="node4" class="node">
<title>Node4</title>
<g id="a_node4"><a xlink:title=" ">
<polygon fill="none" stroke="#bfbfbf" points="438.5,-112.5 438.5,-131.5 489.5,-131.5 489.5,-112.5 438.5,-112.5"/>
<text text-anchor="middle" x="464" y="-119.5" font-family="Helvetica,sans-Serif" font-size="10.00">memory</text>
</a>
</g>
</g>
<!-- Node2&#45;&gt;Node4 -->
<g id="edge3" class="edge">
<title>Node2&#45;&gt;Node4</title>
<path fill="none" stroke="midnightblue" d="M368.91,-168.44C387.25,-159.68 416.01,-145.94 437.09,-135.86"/>
<polygon fill="midnightblue" stroke="midnightblue" points="438.67,-138.99 446.18,-131.52 435.65,-132.67 438.67,-138.99"/>
</g>
<!-- Node5 -->
<g id="node5" class="node">
<title>Node5</title>
<g id="a_node5"><a xlink:href="../../de/d32/_token_8hpp.html" target="_top" xlink:title=" ">
<polygon fill="none" stroke="black" points="261,-56.5 261,-75.5 323,-75.5 323,-56.5 261,-56.5"/>
<text text-anchor="middle" x="292" y="-63.5" font-family="Helvetica,sans-Serif" font-size="10.00">Token.hpp</text>
</a>
</g>
</g>
<!-- Node2&#45;&gt;Node5 -->
<g id="edge4" class="edge">
<title>Node2&#45;&gt;Node5</title>
<path fill="none" stroke="midnightblue" d="M341.07,-168.3C332.02,-159.86 318.9,-146.27 311,-132 302.99,-117.53 298.05,-99.35 295.22,-85.89"/>
<polygon fill="midnightblue" stroke="midnightblue" points="298.62,-85.06 293.32,-75.89 291.75,-86.37 298.62,-85.06"/>
</g>
<!-- Node8 -->
<g id="node8" class="node">
<title>Node8</title>
<g id="a_node8"><a xlink:href="../../db/d42/_visitor_8hpp.html" target="_top" xlink:title=" ">
<polygon fill="none" stroke="black" points="320,-112.5 320,-131.5 382,-131.5 382,-112.5 320,-112.5"/>
<text text-anchor="middle" x="351" y="-119.5" font-family="Helvetica,sans-Serif" font-size="10.00">Visitor.hpp</text>
</a>
</g>
</g>
<!-- Node2&#45;&gt;Node8 -->
<g id="edge7" class="edge">
<title>Node2&#45;&gt;Node8</title>
<path fill="none" stroke="midnightblue" d="M351,-168.08C351,-161.01 351,-150.86 351,-141.99"/>
<polygon fill="midnightblue" stroke="midnightblue" points="354.5,-141.75 351,-131.75 347.5,-141.75 354.5,-141.75"/>
</g>
<!-- Node14 -->
<g id="node14" class="node">
<title>Node14</title>
<g id="a_node14"><a xlink:href="../../d8/de6/_a_s_tclasses_8hpp.html" target="_top" xlink:title=" ">
<polygon fill="none" stroke="black" points="447,-56.5 447,-75.5 535,-75.5 535,-56.5 447,-56.5"/>
<text text-anchor="middle" x="491" y="-63.5" font-family="Helvetica,sans-Serif" font-size="10.00">ASTclasses.hpp</text>
</a>
</g>
</g>
<!-- Node2&#45;&gt;Node14 -->
<g id="edge17" class="edge">
<title>Node2&#45;&gt;Node14</title>
<path fill="none" stroke="midnightblue" d="M361.09,-168.41C375.97,-155.8 404.78,-131.65 430,-112 443.23,-101.69 458.42,-90.48 470.32,-81.84"/>
<polygon fill="midnightblue" stroke="midnightblue" points="472.65,-84.47 478.71,-75.78 468.55,-78.8 472.65,-84.47"/>
</g>
<!-- Node6 -->
<g id="node6" class="node">
<title>Node6</title>
<g id="a_node6"><a xlink:title=" ">
<polygon fill="none" stroke="#bfbfbf" points="330.5,-0.5 330.5,-19.5 371.5,-19.5 371.5,-0.5 330.5,-0.5"/>
<text text-anchor="middle" x="351" y="-7.5" font-family="Helvetica,sans-Serif" font-size="10.00">string</text>
</a>
</g>
</g>
<!-- Node5&#45;&gt;Node6 -->
<g id="edge5" class="edge">
<title>Node5&#45;&gt;Node6</title>
<path fill="none" stroke="midnightblue" d="M301.48,-56.32C310.2,-48.34 323.34,-36.31 333.9,-26.65"/>
<polygon fill="midnightblue" stroke="midnightblue" points="336.33,-29.17 341.35,-19.83 331.61,-24 336.33,-29.17"/>
</g>
<!-- Node7 -->
<g id="node7" class="node">
<title>Node7</title>
<g id="a_node7"><a xlink:title=" ">
<polygon fill="none" stroke="#bfbfbf" points="272,-0.5 272,-19.5 312,-19.5 312,-0.5 272,-0.5"/>
<text text-anchor="middle" x="292" y="-7.5" font-family="Helvetica,sans-Serif" font-size="10.00">regex</text>
</a>
</g>
</g>
<!-- Node5&#45;&gt;Node7 -->
<g id="edge6" class="edge">
<title>Node5&#45;&gt;Node7</title>
<path fill="none" stroke="midnightblue" d="M292,-56.08C292,-49.01 292,-38.86 292,-29.99"/>
<polygon fill="midnightblue" stroke="midnightblue" points="295.5,-29.75 292,-19.75 288.5,-29.75 295.5,-29.75"/>
</g>
<!-- Node8&#45;&gt;Node5 -->
<g id="edge10" class="edge">
<title>Node8&#45;&gt;Node5</title>
<path fill="none" stroke="midnightblue" d="M341.52,-112.32C332.8,-104.34 319.66,-92.31 309.1,-82.65"/>
<polygon fill="midnightblue" stroke="midnightblue" points="311.39,-80 301.65,-75.83 306.67,-85.17 311.39,-80"/>
</g>
<!-- Node8&#45;&gt;Node6 -->
<g id="edge9" class="edge">
<title>Node8&#45;&gt;Node6</title>
<path fill="none" stroke="midnightblue" d="M351,-112.37C351,-94.62 351,-53.67 351,-29.6"/>
<polygon fill="midnightblue" stroke="midnightblue" points="354.5,-29.59 351,-19.59 347.5,-29.59 354.5,-29.59"/>
</g>
<!-- Node9 -->
<g id="node9" class="node">
<title>Node9</title>
<g id="a_node9"><a xlink:title=" ">
<polygon fill="none" stroke="#bfbfbf" points="379,-56.5 379,-75.5 429,-75.5 429,-56.5 379,-56.5"/>
<text text-anchor="middle" x="404" y="-63.5" font-family="Helvetica,sans-Serif" font-size="10.00">fstream</text>
</a>
</g>
</g>
<!-- Node8&#45;&gt;Node9 -->
<g id="edge8" class="edge">
<title>Node8&#45;&gt;Node9</title>
<path fill="none" stroke="midnightblue" d="M359.75,-112.08C367.47,-104.22 378.9,-92.57 388.22,-83.08"/>
<polygon fill="midnightblue" stroke="midnightblue" points="390.9,-85.34 395.41,-75.75 385.91,-80.44 390.9,-85.34"/>
</g>
<!-- Node10 -->
<g id="node10" class="node">
<title>Node10</title>
<g id="a_node10"><a xlink:href="../../d5/df9/_list_8cpp.html" target="_top" xlink:title="Двусвязный список">
<polygon fill="none" stroke="black" points="133.5,-56.5 133.5,-75.5 184.5,-75.5 184.5,-56.5 133.5,-56.5"/>
<text text-anchor="middle" x="159" y="-63.5" font-family="Helvetica,sans-Serif" font-size="10.00">List.cpp</text>
</a>
</g>
</g>
<!-- Node8&#45;&gt;Node10 -->
<g id="edge11" class="edge">
<title>Node8&#45;&gt;Node10</title>
<path fill="none" stroke="midnightblue" d="M320.58,-112.44C286.27,-102.79 230.54,-87.12 194.33,-76.94"/>
<polygon fill="midnightblue" stroke="midnightblue" points="195.25,-73.56 184.67,-74.22 193.35,-80.3 195.25,-73.56"/>
</g>
<!-- Node8&#45;&gt;Node14 -->
<g id="edge16" class="edge">
<title>Node8&#45;&gt;Node14</title>
<path fill="none" stroke="midnightblue" d="M373.18,-112.44C396.43,-103.48 433.15,-89.31 459.42,-79.18"/>
<polygon fill="midnightblue" stroke="midnightblue" points="460.85,-82.38 468.92,-75.52 458.33,-75.85 460.85,-82.38"/>
</g>
<!-- Node10&#45;&gt;Node3 -->
<g id="edge13" class="edge">
<title>Node10&#45;&gt;Node3</title>
<path fill="none" stroke="midnightblue" d="M137.29,-56.44C114.65,-47.52 78.93,-33.44 53.25,-23.32"/>
<polygon fill="midnightblue" stroke="midnightblue" points="54.19,-19.93 43.61,-19.52 51.63,-26.44 54.19,-19.93"/>
</g>
<!-- Node11 -->
<g id="node11" class="node">
<title>Node11</title>
<g id="a_node11"><a xlink:title=" ">
<polygon fill="none" stroke="#bfbfbf" points="62.5,-0.5 62.5,-19.5 111.5,-19.5 111.5,-0.5 62.5,-0.5"/>
<text text-anchor="middle" x="87" y="-7.5" font-family="Helvetica,sans-Serif" font-size="10.00">cstddef</text>
</a>
</g>
</g>
<!-- Node10&#45;&gt;Node11 -->
<g id="edge12" class="edge">
<title>Node10&#45;&gt;Node11</title>
<path fill="none" stroke="midnightblue" d="M147.43,-56.32C136.58,-48.18 120.12,-35.84 107.12,-26.09"/>
<polygon fill="midnightblue" stroke="midnightblue" points="108.88,-23.03 98.78,-19.83 104.68,-28.63 108.88,-23.03"/>
</g>
<!-- Node12 -->
<g id="node12" class="node">
<title>Node12</title>
<g id="a_node12"><a xlink:title=" ">
<polygon fill="none" stroke="#bfbfbf" points="129.5,-0.5 129.5,-19.5 188.5,-19.5 188.5,-0.5 129.5,-0.5"/>
<text text-anchor="middle" x="159" y="-7.5" font-family="Helvetica,sans-Serif" font-size="10.00">stdexcept</text>
</a>
</g>
</g>
<!-- Node10&#45;&gt;Node12 -->
<g id="edge14" class="edge">
<title>Node10&#45;&gt;Node12</title>
<path fill="none" stroke="midnightblue" d="M159,-56.08C159,-49.01 159,-38.86 159,-29.99"/>
<polygon fill="midnightblue" stroke="midnightblue" points="162.5,-29.75 159,-19.75 155.5,-29.75 162.5,-29.75"/>
</g>
<!-- Node13 -->
<g id="node13" class="node">
<title>Node13</title>
<g id="a_node13"><a xlink:title=" ">
<polygon fill="none" stroke="#bfbfbf" points="206.5,-0.5 206.5,-19.5 253.5,-19.5 253.5,-0.5 206.5,-0.5"/>
<text text-anchor="middle" x="230" y="-7.5" font-family="Helvetica,sans-Serif" font-size="10.00">iterator</text>
</a>
</g>
</g>
<!-- Node10&#45;&gt;Node13 -->
<g id="edge15" class="edge">
<title>Node10&#45;&gt;Node13</title>
<path fill="none" stroke="midnightblue" d="M170.41,-56.32C181.11,-48.18 197.34,-35.84 210.16,-26.09"/>
<polygon fill="midnightblue" stroke="midnightblue" points="212.54,-28.67 218.39,-19.83 208.31,-23.1 212.54,-28.67"/>
</g>
</g>
</svg>
