<?xml version="1.0" encoding="UTF-8" standalone="no"?>
<!DOCTYPE svg PUBLIC "-//W3C//DTD SVG 1.1//EN"
 "http://www.w3.org/Graphics/SVG/1.1/DTD/svg11.dtd">
<!-- Generated by graphviz version 3.0.0 (20220413.0106)
 -->
<!-- Title: IVisitor::visit Pages: 1 -->
<svg width="230pt" height="826pt"
 viewBox="0.00 0.00 230.00 826.00" xmlns="http://www.w3.org/2000/svg" xmlns:xlink="http://www.w3.org/1999/xlink">
<g id="graph0" class="graph" transform="scale(1 1) rotate(0) translate(4 822)">
<title>IVisitor::visit</title>
<!-- Node1 -->
<g id="node1" class="node">
<title>Node1</title>
<g id="a_node1"><a xlink:title=" ">
<polygon fill="#bfbfbf" stroke="black" points="152,-399.5 152,-418.5 222,-418.5 222,-399.5 152,-399.5"/>
<text text-anchor="middle" x="187" y="-406.5" font-family="Helvetica,sans-Serif" font-size="10.00">IVisitor::visit</text>
</a>
</g>
</g>
<!-- Node2 -->
<g id="node2" class="node">
<title>Node2</title>
<g id="a_node2"><a xlink:href="../../de/db2/class_program_a_s_t.html#adf015c45c078803cd3115ad34013941e" target="_top" xlink:title=" ">
<polygon fill="none" stroke="black" points="4.5,-798.5 4.5,-817.5 111.5,-817.5 111.5,-798.5 4.5,-798.5"/>
<text text-anchor="middle" x="58" y="-805.5" font-family="Helvetica,sans-Serif" font-size="10.00">ProgramAST::accept</text>
</a>
</g>
</g>
<!-- Node1&#45;&gt;Node2 -->
<g id="edge1" class="edge">
<title>Node1&#45;&gt;Node2</title>
<path fill="none" stroke="midnightblue" d="M184.97,-428.56C180.91,-498.36 163.84,-733.97 116,-789 112.65,-792.86 108.49,-795.93 103.96,-798.39"/>
<polygon fill="midnightblue" stroke="midnightblue" points="188.47,-428.68 185.53,-418.51 181.48,-428.29 188.47,-428.68"/>
</g>
<!-- Node3 -->
<g id="node3" class="node">
<title>Node3</title>
<g id="a_node3"><a xlink:href="../../dc/d19/class_function_a_s_t.html#a5a5517883d55e186ab4f9a361189a335" target="_top" xlink:title=" ">
<polygon fill="none" stroke="black" points="4.5,-760.5 4.5,-779.5 111.5,-779.5 111.5,-760.5 4.5,-760.5"/>
<text text-anchor="middle" x="58" y="-767.5" font-family="Helvetica,sans-Serif" font-size="10.00">FunctionAST::accept</text>
</a>
</g>
</g>
<!-- Node1&#45;&gt;Node3 -->
<g id="edge2" class="edge">
<title>Node1&#45;&gt;Node3</title>
<path fill="none" stroke="midnightblue" d="M184.52,-428.68C179.24,-493.99 159.24,-702.23 116,-751 112.54,-754.9 108.26,-758 103.6,-760.47"/>
<polygon fill="midnightblue" stroke="midnightblue" points="188.02,-428.77 185.32,-418.52 181.05,-428.22 188.02,-428.77"/>
</g>
<!-- Node4 -->
<g id="node4" class="node">
<title>Node4</title>
<g id="a_node4"><a xlink:href="../../d0/de0/class_block_a_s_t.html#a7695b1931cd5a767216a789df30bc229" target="_top" xlink:title=" ">
<polygon fill="none" stroke="black" points="10.5,-722.5 10.5,-741.5 105.5,-741.5 105.5,-722.5 10.5,-722.5"/>
<text text-anchor="middle" x="58" y="-729.5" font-family="Helvetica,sans-Serif" font-size="10.00">BlockAST::accept</text>
</a>
</g>
</g>
<!-- Node1&#45;&gt;Node4 -->
<g id="edge3" class="edge">
<title>Node1&#45;&gt;Node4</title>
<path fill="none" stroke="midnightblue" d="M183.96,-428.82C177.35,-489.38 154.67,-670.45 116,-713 112.49,-716.86 108.18,-719.94 103.51,-722.39"/>
<polygon fill="midnightblue" stroke="midnightblue" points="187.46,-428.99 185.04,-418.68 180.5,-428.25 187.46,-428.99"/>
</g>
<!-- Node5 -->
<g id="node5" class="node">
<title>Node5</title>
<g id="a_node5"><a xlink:href="../../d6/d7c/class_var_decl_a_s_t.html#a55b75b733c74659e60b69d770504876e" target="_top" xlink:title=" ">
<polygon fill="none" stroke="black" points="6,-684.5 6,-703.5 110,-703.5 110,-684.5 6,-684.5"/>
<text text-anchor="middle" x="58" y="-691.5" font-family="Helvetica,sans-Serif" font-size="10.00">VarDeclAST::accept</text>
</a>
</g>
</g>
<!-- Node1&#45;&gt;Node5 -->
<g id="edge4" class="edge">
<title>Node1&#45;&gt;Node5</title>
<path fill="none" stroke="midnightblue" d="M186.76,-428.9C187.5,-477.62 182.52,-604.05 116,-675 112.36,-678.88 107.91,-681.97 103.11,-684.43"/>
<polygon fill="midnightblue" stroke="midnightblue" points="190.25,-428.66 186.5,-418.75 183.26,-428.84 190.25,-428.66"/>
</g>
<!-- Node6 -->
<g id="node6" class="node">
<title>Node6</title>
<g id="a_node6"><a xlink:href="../../d2/db9/class_type_spec_a_s_t.html#aac50ec3076900267c5e9d1565e8ab835" target="_top" xlink:title=" ">
<polygon fill="none" stroke="black" points="1.5,-646.5 1.5,-665.5 114.5,-665.5 114.5,-646.5 1.5,-646.5"/>
<text text-anchor="middle" x="58" y="-653.5" font-family="Helvetica,sans-Serif" font-size="10.00">TypeSpecAST::accept</text>
</a>
</g>
</g>
<!-- Node1&#45;&gt;Node6 -->
<g id="edge5" class="edge">
<title>Node1&#45;&gt;Node6</title>
<path fill="none" stroke="midnightblue" d="M185.7,-428.98C183.95,-472.76 173.62,-577.98 116,-637 112.21,-640.88 107.61,-643.97 102.68,-646.43"/>
<polygon fill="midnightblue" stroke="midnightblue" points="189.21,-428.88 185.99,-418.79 182.21,-428.68 189.21,-428.88"/>
</g>
<!-- Node7 -->
<g id="node7" class="node">
<title>Node7</title>
<g id="a_node7"><a xlink:href="../../d8/d88/class_arr_spec_a_s_t.html#a2e6ea1c236c46289160c199472e18f6c" target="_top" xlink:title=" ">
<polygon fill="none" stroke="black" points="5.5,-608.5 5.5,-627.5 110.5,-627.5 110.5,-608.5 5.5,-608.5"/>
<text text-anchor="middle" x="58" y="-615.5" font-family="Helvetica,sans-Serif" font-size="10.00">ArrSpecAST::accept</text>
</a>
</g>
</g>
<!-- Node1&#45;&gt;Node7 -->
<g id="edge6" class="edge">
<title>Node1&#45;&gt;Node7</title>
<path fill="none" stroke="midnightblue" d="M184.22,-429.26C179.77,-467.74 164.73,-551.77 116,-599 112.03,-602.85 107.26,-605.92 102.19,-608.36"/>
<polygon fill="midnightblue" stroke="midnightblue" points="187.75,-429.18 185.29,-418.87 180.79,-428.46 187.75,-429.18"/>
</g>
<!-- Node8 -->
<g id="node8" class="node">
<title>Node8</title>
<g id="a_node8"><a xlink:href="../../d6/d94/class_const_a_s_t.html#a4d7b08f4c47d235bea5ed0f2b87d3445" target="_top" xlink:title=" ">
<polygon fill="none" stroke="black" points="10.5,-570.5 10.5,-589.5 105.5,-589.5 105.5,-570.5 10.5,-570.5"/>
<text text-anchor="middle" x="58" y="-577.5" font-family="Helvetica,sans-Serif" font-size="10.00">ConstAST::accept</text>
</a>
</g>
</g>
<!-- Node1&#45;&gt;Node8 -->
<g id="edge7" class="edge">
<title>Node1&#45;&gt;Node8</title>
<path fill="none" stroke="midnightblue" d="M182.2,-428.76C174.98,-461 156.26,-524.93 116,-561 111.65,-564.9 106.47,-568 101.04,-570.47"/>
<polygon fill="midnightblue" stroke="midnightblue" points="185.66,-429.28 184.29,-418.77 178.81,-427.85 185.66,-429.28"/>
</g>
<!-- Node9 -->
<g id="node9" class="node">
<title>Node9</title>
<g id="a_node9"><a xlink:href="../../da/dbb/class_compound_a_s_t.html#af3df246f456db171a6c152567cfa1582" target="_top" xlink:title=" ">
<polygon fill="none" stroke="black" points="0,-532.5 0,-551.5 116,-551.5 116,-532.5 0,-532.5"/>
<text text-anchor="middle" x="58" y="-539.5" font-family="Helvetica,sans-Serif" font-size="10.00">CompoundAST::accept</text>
</a>
</g>
</g>
<!-- Node1&#45;&gt;Node9 -->
<g id="edge8" class="edge">
<title>Node1&#45;&gt;Node9</title>
<path fill="none" stroke="midnightblue" d="M179.12,-428.05C169.07,-453.3 147.99,-497.6 116,-523 111.1,-526.89 105.36,-530 99.45,-532.48"/>
<polygon fill="midnightblue" stroke="midnightblue" points="182.47,-429.1 182.76,-418.51 175.93,-426.6 182.47,-429.1"/>
</g>
<!-- Node10 -->
<g id="node10" class="node">
<title>Node10</title>
<g id="a_node10"><a xlink:href="../../d8/d90/class_number_a_s_t.html#a521b93d7eb553aa30d3f11f0ba5e0754" target="_top" xlink:title=" ">
<polygon fill="none" stroke="black" points="6,-494.5 6,-513.5 110,-513.5 110,-494.5 6,-494.5"/>
<text text-anchor="middle" x="58" y="-501.5" font-family="Helvetica,sans-Serif" font-size="10.00">NumberAST::accept</text>
</a>
</g>
</g>
<!-- Node1&#45;&gt;Node10 -->
<g id="edge9" class="edge">
<title>Node1&#45;&gt;Node10</title>
<path fill="none" stroke="midnightblue" d="M173.49,-427.19C160.83,-444.34 139.77,-469.63 116,-485 110.13,-488.8 103.43,-491.91 96.73,-494.43"/>
<polygon fill="midnightblue" stroke="midnightblue" points="176.65,-428.79 179.62,-418.62 170.96,-424.71 176.65,-428.79"/>
</g>
<!-- Node11 -->
<g id="node11" class="node">
<title>Node11</title>
<g id="a_node11"><a xlink:href="../../d0/d21/class_string_a_s_t.html#af9159f6956aba13305962f6879fe365d" target="_top" xlink:title=" ">
<polygon fill="none" stroke="black" points="10.5,-456.5 10.5,-475.5 105.5,-475.5 105.5,-456.5 10.5,-456.5"/>
<text text-anchor="middle" x="58" y="-463.5" font-family="Helvetica,sans-Serif" font-size="10.00">StringAST::accept</text>
</a>
</g>
</g>
<!-- Node1&#45;&gt;Node11 -->
<g id="edge10" class="edge">
<title>Node1&#45;&gt;Node11</title>
<path fill="none" stroke="midnightblue" d="M161.36,-423.76C148.18,-431.29 131.51,-440.27 116,-447 108.06,-450.45 99.27,-453.66 91.03,-456.42"/>
<polygon fill="midnightblue" stroke="midnightblue" points="163.39,-426.63 170.27,-418.58 159.87,-420.57 163.39,-426.63"/>
</g>
<!-- Node12 -->
<g id="node12" class="node">
<title>Node12</title>
<g id="a_node12"><a xlink:href="../../d2/dc9/class_bin_op_a_s_t.html#aa8fd6e575b06311fb5e1190995670dcf" target="_top" xlink:title=" ">
<polygon fill="none" stroke="black" points="9.5,-418.5 9.5,-437.5 106.5,-437.5 106.5,-418.5 9.5,-418.5"/>
<text text-anchor="middle" x="58" y="-425.5" font-family="Helvetica,sans-Serif" font-size="10.00">BinOpAST::accept</text>
</a>
</g>
</g>
<!-- Node1&#45;&gt;Node12 -->
<g id="edge11" class="edge">
<title>Node1&#45;&gt;Node12</title>
<path fill="none" stroke="midnightblue" d="M141.91,-415.6C130.63,-417.28 118.44,-419.11 106.97,-420.82"/>
<polygon fill="midnightblue" stroke="midnightblue" points="142.59,-419.03 151.97,-414.09 141.56,-412.11 142.59,-419.03"/>
</g>
<!-- Node13 -->
<g id="node13" class="node">
<title>Node13</title>
<g id="a_node13"><a xlink:href="../../dc/de8/class_un_op_a_s_t.html#a6cda966c30a22dc5e40b7980a2ffcc68" target="_top" xlink:title=" ">
<polygon fill="none" stroke="black" points="10.5,-380.5 10.5,-399.5 105.5,-399.5 105.5,-380.5 10.5,-380.5"/>
<text text-anchor="middle" x="58" y="-387.5" font-family="Helvetica,sans-Serif" font-size="10.00">UnOpAST::accept</text>
</a>
</g>
</g>
<!-- Node1&#45;&gt;Node13 -->
<g id="edge12" class="edge">
<title>Node1&#45;&gt;Node13</title>
<path fill="none" stroke="midnightblue" d="M141.93,-402.41C130.17,-400.65 117.43,-398.74 105.54,-396.96"/>
<polygon fill="midnightblue" stroke="midnightblue" points="141.56,-405.89 151.97,-403.91 142.59,-398.97 141.56,-405.89"/>
</g>
<!-- Node14 -->
<g id="node14" class="node">
<title>Node14</title>
<g id="a_node14"><a xlink:href="../../db/db7/class_no_op_a_s_t.html#a2da3cd0efff2413730213b2495decd7e" target="_top" xlink:title=" ">
<polygon fill="none" stroke="black" points="10.5,-342.5 10.5,-361.5 105.5,-361.5 105.5,-342.5 10.5,-342.5"/>
<text text-anchor="middle" x="58" y="-349.5" font-family="Helvetica,sans-Serif" font-size="10.00">NoOpAST::accept</text>
</a>
</g>
</g>
<!-- Node1&#45;&gt;Node14 -->
<g id="edge13" class="edge">
<title>Node1&#45;&gt;Node14</title>
<path fill="none" stroke="midnightblue" d="M161.36,-394.24C148.18,-386.71 131.51,-377.73 116,-371 108.06,-367.55 99.27,-364.34 91.03,-361.58"/>
<polygon fill="midnightblue" stroke="midnightblue" points="159.87,-397.43 170.27,-399.42 163.39,-391.37 159.87,-397.43"/>
</g>
<!-- Node15 -->
<g id="node15" class="node">
<title>Node15</title>
<g id="a_node15"><a xlink:href="../../d7/db1/class_assign_a_s_t.html#ab237f77d2beb08cc50ea5a96ff1f7df4" target="_top" xlink:title=" ">
<polygon fill="none" stroke="black" points="8,-304.5 8,-323.5 108,-323.5 108,-304.5 8,-304.5"/>
<text text-anchor="middle" x="58" y="-311.5" font-family="Helvetica,sans-Serif" font-size="10.00">AssignAST::accept</text>
</a>
</g>
</g>
<!-- Node1&#45;&gt;Node15 -->
<g id="edge14" class="edge">
<title>Node1&#45;&gt;Node15</title>
<path fill="none" stroke="midnightblue" d="M173.49,-390.81C160.83,-373.66 139.77,-348.37 116,-333 110.13,-329.2 103.43,-326.09 96.73,-323.57"/>
<polygon fill="midnightblue" stroke="midnightblue" points="170.96,-393.29 179.62,-399.38 176.65,-389.21 170.96,-393.29"/>
</g>
<!-- Node16 -->
<g id="node16" class="node">
<title>Node16</title>
<g id="a_node16"><a xlink:href="../../dc/dff/class_var_a_s_t.html#aacf5155cef2df2c6404f8861da3b90ae" target="_top" xlink:title=" ">
<polygon fill="none" stroke="black" points="15.5,-266.5 15.5,-285.5 100.5,-285.5 100.5,-266.5 15.5,-266.5"/>
<text text-anchor="middle" x="58" y="-273.5" font-family="Helvetica,sans-Serif" font-size="10.00">VarAST::accept</text>
</a>
</g>
</g>
<!-- Node1&#45;&gt;Node16 -->
<g id="edge15" class="edge">
<title>Node1&#45;&gt;Node16</title>
<path fill="none" stroke="midnightblue" d="M179.12,-389.95C169.07,-364.7 147.99,-320.4 116,-295 111.1,-291.11 105.36,-288 99.45,-285.52"/>
<polygon fill="midnightblue" stroke="midnightblue" points="175.93,-391.4 182.76,-399.49 182.47,-388.9 175.93,-391.4"/>
</g>
<!-- Node17 -->
<g id="node17" class="node">
<title>Node17</title>
<g id="a_node17"><a xlink:href="../../d5/df8/class_select_a_s_t.html#afd44ee4a5dceb34a05e1bdc0b7928e1f" target="_top" xlink:title=" ">
<polygon fill="none" stroke="black" points="9,-228.5 9,-247.5 107,-247.5 107,-228.5 9,-228.5"/>
<text text-anchor="middle" x="58" y="-235.5" font-family="Helvetica,sans-Serif" font-size="10.00">SelectAST::accept</text>
</a>
</g>
</g>
<!-- Node1&#45;&gt;Node17 -->
<g id="edge16" class="edge">
<title>Node1&#45;&gt;Node17</title>
<path fill="none" stroke="midnightblue" d="M182.2,-389.24C174.98,-357 156.26,-293.07 116,-257 111.65,-253.1 106.47,-250 101.04,-247.53"/>
<polygon fill="midnightblue" stroke="midnightblue" points="178.81,-390.15 184.29,-399.23 185.66,-388.72 178.81,-390.15"/>
</g>
<!-- Node18 -->
<g id="node18" class="node">
<title>Node18</title>
<g id="a_node18"><a xlink:href="../../da/dd1/class_call_a_s_t.html#aa4260777496618a9e74cb016c836460c" target="_top" xlink:title=" ">
<polygon fill="none" stroke="black" points="15,-190.5 15,-209.5 101,-209.5 101,-190.5 15,-190.5"/>
<text text-anchor="middle" x="58" y="-197.5" font-family="Helvetica,sans-Serif" font-size="10.00">CallAST::accept</text>
</a>
</g>
</g>
<!-- Node1&#45;&gt;Node18 -->
<g id="edge17" class="edge">
<title>Node1&#45;&gt;Node18</title>
<path fill="none" stroke="midnightblue" d="M184.22,-388.74C179.77,-350.26 164.73,-266.23 116,-219 111.73,-214.86 106.54,-211.62 101.04,-209.09"/>
<polygon fill="midnightblue" stroke="midnightblue" points="180.79,-389.54 185.29,-399.13 187.75,-388.82 180.79,-389.54"/>
</g>
<!-- Node19 -->
<g id="node19" class="node">
<title>Node19</title>
<g id="a_node19"><a xlink:href="../../d8/de5/class_return_a_s_t.html#ac43364719929e960aa7e3aa3a7312d41" target="_top" xlink:title=" ">
<polygon fill="none" stroke="black" points="9,-152.5 9,-171.5 107,-171.5 107,-152.5 9,-152.5"/>
<text text-anchor="middle" x="58" y="-159.5" font-family="Helvetica,sans-Serif" font-size="10.00">ReturnAST::accept</text>
</a>
</g>
</g>
<!-- Node1&#45;&gt;Node19 -->
<g id="edge18" class="edge">
<title>Node1&#45;&gt;Node19</title>
<path fill="none" stroke="midnightblue" d="M185.7,-389.02C183.95,-345.24 173.62,-240.02 116,-181 112.21,-177.12 107.61,-174.03 102.68,-171.57"/>
<polygon fill="midnightblue" stroke="midnightblue" points="182.21,-389.32 185.99,-399.21 189.21,-389.12 182.21,-389.32"/>
</g>
<!-- Node20 -->
<g id="node20" class="node">
<title>Node20</title>
<g id="a_node20"><a xlink:href="../../d7/d6b/class_if_a_s_t.html#add0f12feecd08230a0a5a5e72da48f2b" target="_top" xlink:title=" ">
<polygon fill="none" stroke="black" points="20,-114.5 20,-133.5 96,-133.5 96,-114.5 20,-114.5"/>
<text text-anchor="middle" x="58" y="-121.5" font-family="Helvetica,sans-Serif" font-size="10.00">IfAST::accept</text>
</a>
</g>
</g>
<!-- Node1&#45;&gt;Node20 -->
<g id="edge19" class="edge">
<title>Node1&#45;&gt;Node20</title>
<path fill="none" stroke="midnightblue" d="M186.76,-389.1C187.5,-340.38 182.52,-213.95 116,-143 110.65,-137.29 103.54,-133.3 96.16,-130.5"/>
<polygon fill="midnightblue" stroke="midnightblue" points="183.26,-389.16 186.5,-399.25 190.25,-389.34 183.26,-389.16"/>
</g>
<!-- Node21 -->
<g id="node21" class="node">
<title>Node21</title>
<g id="a_node21"><a xlink:href="../../dc/da0/class_while_a_s_t.html#a8ceecca5d27e7947a2ef3052a6d34227" target="_top" xlink:title=" ">
<polygon fill="none" stroke="black" points="11,-76.5 11,-95.5 105,-95.5 105,-76.5 11,-76.5"/>
<text text-anchor="middle" x="58" y="-83.5" font-family="Helvetica,sans-Serif" font-size="10.00">WhileAST::accept</text>
</a>
</g>
</g>
<!-- Node1&#45;&gt;Node21 -->
<g id="edge20" class="edge">
<title>Node1&#45;&gt;Node21</title>
<path fill="none" stroke="midnightblue" d="M183.96,-389.18C177.35,-328.62 154.67,-147.55 116,-105 112.49,-101.14 108.18,-98.06 103.51,-95.61"/>
<polygon fill="midnightblue" stroke="midnightblue" points="180.5,-389.75 185.04,-399.32 187.46,-389.01 180.5,-389.75"/>
</g>
<!-- Node22 -->
<g id="node22" class="node">
<title>Node22</title>
<g id="a_node22"><a xlink:href="../../d6/dbc/class_iteration_a_s_t.html#a1f6f4a1de33e80eb8900a58e24b65753" target="_top" xlink:title=" ">
<polygon fill="none" stroke="black" points="5.5,-38.5 5.5,-57.5 110.5,-57.5 110.5,-38.5 5.5,-38.5"/>
<text text-anchor="middle" x="58" y="-45.5" font-family="Helvetica,sans-Serif" font-size="10.00">IterationAST::accept</text>
</a>
</g>
</g>
<!-- Node1&#45;&gt;Node22 -->
<g id="edge21" class="edge">
<title>Node1&#45;&gt;Node22</title>
<path fill="none" stroke="midnightblue" d="M184.52,-389.32C179.24,-324.01 159.24,-115.77 116,-67 112.54,-63.1 108.26,-60 103.6,-57.53"/>
<polygon fill="midnightblue" stroke="midnightblue" points="181.05,-389.78 185.32,-399.48 188.02,-389.23 181.05,-389.78"/>
</g>
<!-- Node23 -->
<g id="node23" class="node">
<title>Node23</title>
<g id="a_node23"><a xlink:href="../../d4/d3f/class_for_a_s_t.html#a9f86920b3fdcc1cfc5b6be8cfd8bf900" target="_top" xlink:title=" ">
<polygon fill="none" stroke="black" points="16,-0.5 16,-19.5 100,-19.5 100,-0.5 16,-0.5"/>
<text text-anchor="middle" x="58" y="-7.5" font-family="Helvetica,sans-Serif" font-size="10.00">ForAST::accept</text>
</a>
</g>
</g>
<!-- Node1&#45;&gt;Node23 -->
<g id="edge22" class="edge">
<title>Node1&#45;&gt;Node23</title>
<path fill="none" stroke="midnightblue" d="M184.97,-389.44C180.91,-319.64 163.84,-84.03 116,-29 111.76,-24.12 106.23,-20.49 100.28,-17.79"/>
<polygon fill="midnightblue" stroke="midnightblue" points="181.48,-389.71 185.53,-399.49 188.47,-389.32 181.48,-389.71"/>
</g>
</g>
</svg>
