<?xml version="1.0" encoding="UTF-8" standalone="no"?>
<!DOCTYPE svg PUBLIC "-//W3C//DTD SVG 1.1//EN"
 "http://www.w3.org/Graphics/SVG/1.1/DTD/svg11.dtd">
<!-- Generated by graphviz version 3.0.0 (20220413.0106)
 -->
<!-- Title: src/Token.cpp Pages: 1 -->
<svg width="839pt" height="140pt"
 viewBox="0.00 0.00 839.00 140.00" xmlns="http://www.w3.org/2000/svg" xmlns:xlink="http://www.w3.org/1999/xlink">
<g id="graph0" class="graph" transform="scale(1 1) rotate(0) translate(4 136)">
<title>src/Token.cpp</title>
<!-- Node1 -->
<g id="node1" class="node">
<title>Node1</title>
<g id="a_node1"><a xlink:title=" ">
<polygon fill="#bfbfbf" stroke="black" points="357,-112.5 357,-131.5 435,-131.5 435,-112.5 357,-112.5"/>
<text text-anchor="middle" x="396" y="-119.5" font-family="Helvetica,sans-Serif" font-size="10.00">src/Token.cpp</text>
</a>
</g>
</g>
<!-- Node2 -->
<g id="node2" class="node">
<title>Node2</title>
<g id="a_node2"><a xlink:href="../../de/d32/_token_8hpp.html" target="_top" xlink:title=" ">
<polygon fill="none" stroke="black" points="48,-56.5 48,-75.5 110,-75.5 110,-56.5 48,-56.5"/>
<text text-anchor="middle" x="79" y="-63.5" font-family="Helvetica,sans-Serif" font-size="10.00">Token.hpp</text>
</a>
</g>
</g>
<!-- Node1&#45;&gt;Node2 -->
<g id="edge1" class="edge">
<title>Node1&#45;&gt;Node2</title>
<path fill="none" stroke="midnightblue" d="M356.81,-114.32C296.52,-104.05 181.57,-84.47 120.13,-74.01"/>
<polygon fill="midnightblue" stroke="midnightblue" points="120.47,-70.51 110.03,-72.29 119.3,-77.42 120.47,-70.51"/>
</g>
<!-- Node5 -->
<g id="node5" class="node">
<title>Node5</title>
<g id="a_node5"><a xlink:href="../../db/d47/magic__enum_8hpp.html" target="_top" xlink:title=" ">
<polygon fill="none" stroke="black" points="351,-56.5 351,-75.5 441,-75.5 441,-56.5 351,-56.5"/>
<text text-anchor="middle" x="396" y="-63.5" font-family="Helvetica,sans-Serif" font-size="10.00">magic_enum.hpp</text>
</a>
</g>
</g>
<!-- Node1&#45;&gt;Node5 -->
<g id="edge4" class="edge">
<title>Node1&#45;&gt;Node5</title>
<path fill="none" stroke="midnightblue" d="M396,-112.08C396,-105.01 396,-94.86 396,-85.99"/>
<polygon fill="midnightblue" stroke="midnightblue" points="399.5,-85.75 396,-75.75 392.5,-85.75 399.5,-85.75"/>
</g>
<!-- Node17 -->
<g id="node17" class="node">
<title>Node17</title>
<g id="a_node17"><a xlink:title=" ">
<polygon fill="none" stroke="#bfbfbf" points="459.5,-56.5 459.5,-75.5 528.5,-75.5 528.5,-56.5 459.5,-56.5"/>
<text text-anchor="middle" x="494" y="-63.5" font-family="Helvetica,sans-Serif" font-size="10.00">fmt/format.h</text>
</a>
</g>
</g>
<!-- Node1&#45;&gt;Node17 -->
<g id="edge17" class="edge">
<title>Node1&#45;&gt;Node17</title>
<path fill="none" stroke="midnightblue" d="M411.75,-112.32C427.32,-103.74 451.38,-90.49 469.46,-80.52"/>
<polygon fill="midnightblue" stroke="midnightblue" points="471.22,-83.55 478.29,-75.65 467.85,-77.42 471.22,-83.55"/>
</g>
<!-- Node3 -->
<g id="node3" class="node">
<title>Node3</title>
<g id="a_node3"><a xlink:title=" ">
<polygon fill="none" stroke="#bfbfbf" points="58.5,-0.5 58.5,-19.5 99.5,-19.5 99.5,-0.5 58.5,-0.5"/>
<text text-anchor="middle" x="79" y="-7.5" font-family="Helvetica,sans-Serif" font-size="10.00">string</text>
</a>
</g>
</g>
<!-- Node2&#45;&gt;Node3 -->
<g id="edge2" class="edge">
<title>Node2&#45;&gt;Node3</title>
<path fill="none" stroke="midnightblue" d="M79,-56.08C79,-49.01 79,-38.86 79,-29.99"/>
<polygon fill="midnightblue" stroke="midnightblue" points="82.5,-29.75 79,-19.75 75.5,-29.75 82.5,-29.75"/>
</g>
<!-- Node4 -->
<g id="node4" class="node">
<title>Node4</title>
<g id="a_node4"><a xlink:title=" ">
<polygon fill="none" stroke="#bfbfbf" points="0,-0.5 0,-19.5 40,-19.5 40,-0.5 0,-0.5"/>
<text text-anchor="middle" x="20" y="-7.5" font-family="Helvetica,sans-Serif" font-size="10.00">regex</text>
</a>
</g>
</g>
<!-- Node2&#45;&gt;Node4 -->
<g id="edge3" class="edge">
<title>Node2&#45;&gt;Node4</title>
<path fill="none" stroke="midnightblue" d="M69.52,-56.32C60.8,-48.34 47.66,-36.31 37.1,-26.65"/>
<polygon fill="midnightblue" stroke="midnightblue" points="39.39,-24 29.65,-19.83 34.67,-29.17 39.39,-24"/>
</g>
<!-- Node5&#45;&gt;Node3 -->
<g id="edge15" class="edge">
<title>Node5&#45;&gt;Node3</title>
<path fill="none" stroke="midnightblue" d="M350.9,-59.85C296.07,-53.17 200.6,-40.18 109.5,-19.82"/>
<polygon fill="midnightblue" stroke="midnightblue" points="110.09,-16.37 99.56,-17.57 108.54,-23.19 110.09,-16.37"/>
</g>
<!-- Node6 -->
<g id="node6" class="node">
<title>Node6</title>
<g id="a_node6"><a xlink:title=" ">
<polygon fill="none" stroke="#bfbfbf" points="118,-0.5 118,-19.5 156,-19.5 156,-0.5 118,-0.5"/>
<text text-anchor="middle" x="137" y="-7.5" font-family="Helvetica,sans-Serif" font-size="10.00">array</text>
</a>
</g>
</g>
<!-- Node5&#45;&gt;Node6 -->
<g id="edge5" class="edge">
<title>Node5&#45;&gt;Node6</title>
<path fill="none" stroke="midnightblue" d="M350.93,-57.85C306.22,-50.39 235.61,-37.64 166,-20.02"/>
<polygon fill="midnightblue" stroke="midnightblue" points="166.75,-16.6 156.19,-17.5 165.01,-23.38 166.75,-16.6"/>
</g>
<!-- Node7 -->
<g id="node7" class="node">
<title>Node7</title>
<g id="a_node7"><a xlink:title=" ">
<polygon fill="none" stroke="#bfbfbf" points="174.5,-0.5 174.5,-19.5 223.5,-19.5 223.5,-0.5 174.5,-0.5"/>
<text text-anchor="middle" x="199" y="-7.5" font-family="Helvetica,sans-Serif" font-size="10.00">cassert</text>
</a>
</g>
</g>
<!-- Node5&#45;&gt;Node7 -->
<g id="edge6" class="edge">
<title>Node5&#45;&gt;Node7</title>
<path fill="none" stroke="midnightblue" d="M364.78,-56.44C328.98,-46.63 270.47,-30.59 233.39,-20.43"/>
<polygon fill="midnightblue" stroke="midnightblue" points="234.1,-16.99 223.53,-17.73 232.25,-23.74 234.1,-16.99"/>
</g>
<!-- Node8 -->
<g id="node8" class="node">
<title>Node8</title>
<g id="a_node8"><a xlink:title=" ">
<polygon fill="none" stroke="#bfbfbf" points="242,-0.5 242,-19.5 288,-19.5 288,-0.5 242,-0.5"/>
<text text-anchor="middle" x="265" y="-7.5" font-family="Helvetica,sans-Serif" font-size="10.00">cstdint</text>
</a>
</g>
</g>
<!-- Node5&#45;&gt;Node8 -->
<g id="edge7" class="edge">
<title>Node5&#45;&gt;Node8</title>
<path fill="none" stroke="midnightblue" d="M375.24,-56.44C353.68,-47.56 319.74,-33.56 295.21,-23.45"/>
<polygon fill="midnightblue" stroke="midnightblue" points="296.24,-20.09 285.66,-19.52 293.57,-26.56 296.24,-20.09"/>
</g>
<!-- Node9 -->
<g id="node9" class="node">
<title>Node9</title>
<g id="a_node9"><a xlink:title=" ">
<polygon fill="none" stroke="#bfbfbf" points="306.5,-0.5 306.5,-19.5 355.5,-19.5 355.5,-0.5 306.5,-0.5"/>
<text text-anchor="middle" x="331" y="-7.5" font-family="Helvetica,sans-Serif" font-size="10.00">cstddef</text>
</a>
</g>
</g>
<!-- Node5&#45;&gt;Node9 -->
<g id="edge8" class="edge">
<title>Node5&#45;&gt;Node9</title>
<path fill="none" stroke="midnightblue" d="M385.56,-56.32C375.85,-48.26 361.18,-36.08 349.5,-26.37"/>
<polygon fill="midnightblue" stroke="midnightblue" points="351.56,-23.53 341.63,-19.83 347.09,-28.92 351.56,-23.53"/>
</g>
<!-- Node10 -->
<g id="node10" class="node">
<title>Node10</title>
<g id="a_node10"><a xlink:title=" ">
<polygon fill="none" stroke="#bfbfbf" points="373.5,-0.5 373.5,-19.5 418.5,-19.5 418.5,-0.5 373.5,-0.5"/>
<text text-anchor="middle" x="396" y="-7.5" font-family="Helvetica,sans-Serif" font-size="10.00">iosfwd</text>
</a>
</g>
</g>
<!-- Node5&#45;&gt;Node10 -->
<g id="edge9" class="edge">
<title>Node5&#45;&gt;Node10</title>
<path fill="none" stroke="midnightblue" d="M396,-56.08C396,-49.01 396,-38.86 396,-29.99"/>
<polygon fill="midnightblue" stroke="midnightblue" points="399.5,-29.75 396,-19.75 392.5,-29.75 399.5,-29.75"/>
</g>
<!-- Node11 -->
<g id="node11" class="node">
<title>Node11</title>
<g id="a_node11"><a xlink:title=" ">
<polygon fill="none" stroke="#bfbfbf" points="437,-0.5 437,-19.5 477,-19.5 477,-0.5 437,-0.5"/>
<text text-anchor="middle" x="457" y="-7.5" font-family="Helvetica,sans-Serif" font-size="10.00">limits</text>
</a>
</g>
</g>
<!-- Node5&#45;&gt;Node11 -->
<g id="edge10" class="edge">
<title>Node5&#45;&gt;Node11</title>
<path fill="none" stroke="midnightblue" d="M405.8,-56.32C414.82,-48.34 428.41,-36.31 439.32,-26.65"/>
<polygon fill="midnightblue" stroke="midnightblue" points="441.85,-29.08 447.02,-19.83 437.21,-23.84 441.85,-29.08"/>
</g>
<!-- Node12 -->
<g id="node12" class="node">
<title>Node12</title>
<g id="a_node12"><a xlink:title=" ">
<polygon fill="none" stroke="#bfbfbf" points="495,-0.5 495,-19.5 557,-19.5 557,-0.5 495,-0.5"/>
<text text-anchor="middle" x="526" y="-7.5" font-family="Helvetica,sans-Serif" font-size="10.00">type_traits</text>
</a>
</g>
</g>
<!-- Node5&#45;&gt;Node12 -->
<g id="edge11" class="edge">
<title>Node5&#45;&gt;Node12</title>
<path fill="none" stroke="midnightblue" d="M416.6,-56.44C437.99,-47.56 471.68,-33.56 496.02,-23.45"/>
<polygon fill="midnightblue" stroke="midnightblue" points="497.61,-26.58 505.5,-19.52 494.92,-20.12 497.61,-26.58"/>
</g>
<!-- Node13 -->
<g id="node13" class="node">
<title>Node13</title>
<g id="a_node13"><a xlink:title=" ">
<polygon fill="none" stroke="#bfbfbf" points="575.5,-0.5 575.5,-19.5 614.5,-19.5 614.5,-0.5 575.5,-0.5"/>
<text text-anchor="middle" x="595" y="-7.5" font-family="Helvetica,sans-Serif" font-size="10.00">utility</text>
</a>
</g>
</g>
<!-- Node5&#45;&gt;Node13 -->
<g id="edge12" class="edge">
<title>Node5&#45;&gt;Node13</title>
<path fill="none" stroke="midnightblue" d="M429.98,-56.45C462.37,-48.21 512.71,-35.14 565.5,-20.05"/>
<polygon fill="midnightblue" stroke="midnightblue" points="566.73,-23.34 575.38,-17.21 564.8,-16.61 566.73,-23.34"/>
</g>
<!-- Node14 -->
<g id="node14" class="node">
<title>Node14</title>
<g id="a_node14"><a xlink:title=" ">
<polygon fill="none" stroke="#bfbfbf" points="633,-0.5 633,-19.5 679,-19.5 679,-0.5 633,-0.5"/>
<text text-anchor="middle" x="656" y="-7.5" font-family="Helvetica,sans-Serif" font-size="10.00">variant</text>
</a>
</g>
</g>
<!-- Node5&#45;&gt;Node14 -->
<g id="edge13" class="edge">
<title>Node5&#45;&gt;Node14</title>
<path fill="none" stroke="midnightblue" d="M441.22,-57.17C485.22,-49.3 554.17,-36.34 622.86,-20.12"/>
<polygon fill="midnightblue" stroke="midnightblue" points="624.07,-23.43 632.99,-17.71 622.45,-16.62 624.07,-23.43"/>
</g>
<!-- Node15 -->
<g id="node15" class="node">
<title>Node15</title>
<g id="a_node15"><a xlink:title=" ">
<polygon fill="none" stroke="#bfbfbf" points="697,-0.5 697,-19.5 747,-19.5 747,-0.5 697,-0.5"/>
<text text-anchor="middle" x="722" y="-7.5" font-family="Helvetica,sans-Serif" font-size="10.00">optional</text>
</a>
</g>
</g>
<!-- Node5&#45;&gt;Node15 -->
<g id="edge14" class="edge">
<title>Node5&#45;&gt;Node15</title>
<path fill="none" stroke="midnightblue" d="M441.02,-57.59C444.39,-57.05 447.75,-56.51 451,-56 553.05,-39.9 581.95,-41.54 686.78,-20.07"/>
<polygon fill="midnightblue" stroke="midnightblue" points="687.74,-23.44 696.82,-17.99 686.32,-16.59 687.74,-23.44"/>
</g>
<!-- Node16 -->
<g id="node16" class="node">
<title>Node16</title>
<g id="a_node16"><a xlink:title=" ">
<polygon fill="none" stroke="#bfbfbf" points="765,-0.5 765,-19.5 831,-19.5 831,-0.5 765,-0.5"/>
<text text-anchor="middle" x="798" y="-7.5" font-family="Helvetica,sans-Serif" font-size="10.00">string_view</text>
</a>
</g>
</g>
<!-- Node5&#45;&gt;Node16 -->
<g id="edge16" class="edge">
<title>Node5&#45;&gt;Node16</title>
<path fill="none" stroke="midnightblue" d="M441.3,-57.42C444.58,-56.92 447.84,-56.45 451,-56 583,-37.42 619.64,-42.09 754.69,-20.09"/>
<polygon fill="midnightblue" stroke="midnightblue" points="755.29,-23.54 764.58,-18.46 754.15,-16.63 755.29,-23.54"/>
</g>
</g>
</svg>
