<?xml version="1.0" encoding="UTF-8" standalone="no"?>
<!DOCTYPE svg PUBLIC "-//W3C//DTD SVG 1.1//EN"
 "http://www.w3.org/Graphics/SVG/1.1/DTD/svg11.dtd">
<!-- Generated by graphviz version 3.0.0 (20220413.0106)
 -->
<!-- Title: include/AST.hpp Pages: 1 -->
<svg width="634pt" height="196pt"
 viewBox="0.00 0.00 634.00 196.00" xmlns="http://www.w3.org/2000/svg" xmlns:xlink="http://www.w3.org/1999/xlink">
<g id="graph0" class="graph" transform="scale(1 1) rotate(0) translate(4 192)">
<title>include/AST.hpp</title>
<!-- Node1 -->
<g id="node1" class="node">
<title>Node1</title>
<g id="a_node1"><a xlink:title=" ">
<polygon fill="#bfbfbf" stroke="black" points="398,-168.5 398,-187.5 486,-187.5 486,-168.5 398,-168.5"/>
<text text-anchor="middle" x="442" y="-175.5" font-family="Helvetica,sans-Serif" font-size="10.00">include/AST.hpp</text>
</a>
</g>
</g>
<!-- Node2 -->
<g id="node2" class="node">
<title>Node2</title>
<g id="a_node2"><a xlink:title=" ">
<polygon fill="none" stroke="#bfbfbf" points="0,-0.5 0,-19.5 44,-19.5 44,-0.5 0,-0.5"/>
<text text-anchor="middle" x="22" y="-7.5" font-family="Helvetica,sans-Serif" font-size="10.00">vector</text>
</a>
</g>
</g>
<!-- Node1&#45;&gt;Node2 -->
<g id="edge1" class="edge">
<title>Node1&#45;&gt;Node2</title>
<path fill="none" stroke="midnightblue" d="M418.1,-168.46C370.96,-151.51 262.77,-112.15 173,-76 130.19,-58.76 81.21,-37.36 50.94,-23.94"/>
<polygon fill="midnightblue" stroke="midnightblue" points="51.98,-20.57 41.42,-19.71 49.14,-26.97 51.98,-20.57"/>
</g>
<!-- Node3 -->
<g id="node3" class="node">
<title>Node3</title>
<g id="a_node3"><a xlink:title=" ">
<polygon fill="none" stroke="#bfbfbf" points="529.5,-112.5 529.5,-131.5 580.5,-131.5 580.5,-112.5 529.5,-112.5"/>
<text text-anchor="middle" x="555" y="-119.5" font-family="Helvetica,sans-Serif" font-size="10.00">memory</text>
</a>
</g>
</g>
<!-- Node1&#45;&gt;Node3 -->
<g id="edge2" class="edge">
<title>Node1&#45;&gt;Node3</title>
<path fill="none" stroke="midnightblue" d="M459.91,-168.44C478.25,-159.68 507.01,-145.94 528.09,-135.86"/>
<polygon fill="midnightblue" stroke="midnightblue" points="529.67,-138.99 537.18,-131.52 526.65,-132.67 529.67,-138.99"/>
</g>
<!-- Node4 -->
<g id="node4" class="node">
<title>Node4</title>
<g id="a_node4"><a xlink:href="../../de/d32/_token_8hpp.html" target="_top" xlink:title=" ">
<polygon fill="none" stroke="black" points="352,-56.5 352,-75.5 414,-75.5 414,-56.5 352,-56.5"/>
<text text-anchor="middle" x="383" y="-63.5" font-family="Helvetica,sans-Serif" font-size="10.00">Token.hpp</text>
</a>
</g>
</g>
<!-- Node1&#45;&gt;Node4 -->
<g id="edge3" class="edge">
<title>Node1&#45;&gt;Node4</title>
<path fill="none" stroke="midnightblue" d="M432.07,-168.3C423.02,-159.86 409.9,-146.27 402,-132 393.99,-117.53 389.05,-99.35 386.22,-85.89"/>
<polygon fill="midnightblue" stroke="midnightblue" points="389.62,-85.06 384.32,-75.89 382.75,-86.37 389.62,-85.06"/>
</g>
<!-- Node7 -->
<g id="node7" class="node">
<title>Node7</title>
<g id="a_node7"><a xlink:href="../../db/d42/_visitor_8hpp.html" target="_top" xlink:title=" ">
<polygon fill="none" stroke="black" points="411,-112.5 411,-131.5 473,-131.5 473,-112.5 411,-112.5"/>
<text text-anchor="middle" x="442" y="-119.5" font-family="Helvetica,sans-Serif" font-size="10.00">Visitor.hpp</text>
</a>
</g>
</g>
<!-- Node1&#45;&gt;Node7 -->
<g id="edge6" class="edge">
<title>Node1&#45;&gt;Node7</title>
<path fill="none" stroke="midnightblue" d="M442,-168.08C442,-161.01 442,-150.86 442,-141.99"/>
<polygon fill="midnightblue" stroke="midnightblue" points="445.5,-141.75 442,-131.75 438.5,-141.75 445.5,-141.75"/>
</g>
<!-- Node14 -->
<g id="node14" class="node">
<title>Node14</title>
<g id="a_node14"><a xlink:href="../../d8/de6/_a_s_tclasses_8hpp.html" target="_top" xlink:title=" ">
<polygon fill="none" stroke="black" points="538,-56.5 538,-75.5 626,-75.5 626,-56.5 538,-56.5"/>
<text text-anchor="middle" x="582" y="-63.5" font-family="Helvetica,sans-Serif" font-size="10.00">ASTclasses.hpp</text>
</a>
</g>
</g>
<!-- Node1&#45;&gt;Node14 -->
<g id="edge17" class="edge">
<title>Node1&#45;&gt;Node14</title>
<path fill="none" stroke="midnightblue" d="M452.09,-168.41C466.97,-155.8 495.78,-131.65 521,-112 534.23,-101.69 549.42,-90.48 561.32,-81.84"/>
<polygon fill="midnightblue" stroke="midnightblue" points="563.65,-84.47 569.71,-75.78 559.55,-78.8 563.65,-84.47"/>
</g>
<!-- Node5 -->
<g id="node5" class="node">
<title>Node5</title>
<g id="a_node5"><a xlink:title=" ">
<polygon fill="none" stroke="#bfbfbf" points="421.5,-0.5 421.5,-19.5 462.5,-19.5 462.5,-0.5 421.5,-0.5"/>
<text text-anchor="middle" x="442" y="-7.5" font-family="Helvetica,sans-Serif" font-size="10.00">string</text>
</a>
</g>
</g>
<!-- Node4&#45;&gt;Node5 -->
<g id="edge4" class="edge">
<title>Node4&#45;&gt;Node5</title>
<path fill="none" stroke="midnightblue" d="M392.48,-56.32C401.2,-48.34 414.34,-36.31 424.9,-26.65"/>
<polygon fill="midnightblue" stroke="midnightblue" points="427.33,-29.17 432.35,-19.83 422.61,-24 427.33,-29.17"/>
</g>
<!-- Node6 -->
<g id="node6" class="node">
<title>Node6</title>
<g id="a_node6"><a xlink:title=" ">
<polygon fill="none" stroke="#bfbfbf" points="363,-0.5 363,-19.5 403,-19.5 403,-0.5 363,-0.5"/>
<text text-anchor="middle" x="383" y="-7.5" font-family="Helvetica,sans-Serif" font-size="10.00">regex</text>
</a>
</g>
</g>
<!-- Node4&#45;&gt;Node6 -->
<g id="edge5" class="edge">
<title>Node4&#45;&gt;Node6</title>
<path fill="none" stroke="midnightblue" d="M383,-56.08C383,-49.01 383,-38.86 383,-29.99"/>
<polygon fill="midnightblue" stroke="midnightblue" points="386.5,-29.75 383,-19.75 379.5,-29.75 386.5,-29.75"/>
</g>
<!-- Node7&#45;&gt;Node4 -->
<g id="edge9" class="edge">
<title>Node7&#45;&gt;Node4</title>
<path fill="none" stroke="midnightblue" d="M432.52,-112.32C423.8,-104.34 410.66,-92.31 400.1,-82.65"/>
<polygon fill="midnightblue" stroke="midnightblue" points="402.39,-80 392.65,-75.83 397.67,-85.17 402.39,-80"/>
</g>
<!-- Node7&#45;&gt;Node5 -->
<g id="edge8" class="edge">
<title>Node7&#45;&gt;Node5</title>
<path fill="none" stroke="midnightblue" d="M442,-112.37C442,-94.62 442,-53.67 442,-29.6"/>
<polygon fill="midnightblue" stroke="midnightblue" points="445.5,-29.59 442,-19.59 438.5,-29.59 445.5,-29.59"/>
</g>
<!-- Node8 -->
<g id="node8" class="node">
<title>Node8</title>
<g id="a_node8"><a xlink:title=" ">
<polygon fill="none" stroke="#bfbfbf" points="470,-56.5 470,-75.5 520,-75.5 520,-56.5 470,-56.5"/>
<text text-anchor="middle" x="495" y="-63.5" font-family="Helvetica,sans-Serif" font-size="10.00">fstream</text>
</a>
</g>
</g>
<!-- Node7&#45;&gt;Node8 -->
<g id="edge7" class="edge">
<title>Node7&#45;&gt;Node8</title>
<path fill="none" stroke="midnightblue" d="M450.75,-112.08C458.47,-104.22 469.9,-92.57 479.22,-83.08"/>
<polygon fill="midnightblue" stroke="midnightblue" points="481.9,-85.34 486.41,-75.75 476.91,-80.44 481.9,-85.34"/>
</g>
<!-- Node9 -->
<g id="node9" class="node">
<title>Node9</title>
<g id="a_node9"><a xlink:href="../../d5/df9/_list_8cpp.html" target="_top" xlink:title="Двусвязный список">
<polygon fill="none" stroke="black" points="182.5,-56.5 182.5,-75.5 233.5,-75.5 233.5,-56.5 182.5,-56.5"/>
<text text-anchor="middle" x="208" y="-63.5" font-family="Helvetica,sans-Serif" font-size="10.00">List.cpp</text>
</a>
</g>
</g>
<!-- Node7&#45;&gt;Node9 -->
<g id="edge10" class="edge">
<title>Node7&#45;&gt;Node9</title>
<path fill="none" stroke="midnightblue" d="M410.93,-113.83C367.58,-103.83 289.18,-85.73 243.56,-75.21"/>
<polygon fill="midnightblue" stroke="midnightblue" points="244.33,-71.79 233.8,-72.95 242.76,-78.61 244.33,-71.79"/>
</g>
<!-- Node7&#45;&gt;Node14 -->
<g id="edge16" class="edge">
<title>Node7&#45;&gt;Node14</title>
<path fill="none" stroke="midnightblue" d="M464.18,-112.44C487.43,-103.48 524.15,-89.31 550.42,-79.18"/>
<polygon fill="midnightblue" stroke="midnightblue" points="551.85,-82.38 559.92,-75.52 549.33,-75.85 551.85,-82.38"/>
</g>
<!-- Node9&#45;&gt;Node2 -->
<g id="edge13" class="edge">
<title>Node9&#45;&gt;Node2</title>
<path fill="none" stroke="midnightblue" d="M182.14,-57.49C148.7,-47.79 90.48,-30.88 54.21,-20.35"/>
<polygon fill="midnightblue" stroke="midnightblue" points="54.74,-16.86 44.16,-17.43 52.79,-23.58 54.74,-16.86"/>
</g>
<!-- Node10 -->
<g id="node10" class="node">
<title>Node10</title>
<g id="a_node10"><a xlink:title=" ">
<polygon fill="none" stroke="#bfbfbf" points="62.5,-0.5 62.5,-19.5 111.5,-19.5 111.5,-0.5 62.5,-0.5"/>
<text text-anchor="middle" x="87" y="-7.5" font-family="Helvetica,sans-Serif" font-size="10.00">cstddef</text>
</a>
</g>
</g>
<!-- Node9&#45;&gt;Node10 -->
<g id="edge11" class="edge">
<title>Node9&#45;&gt;Node10</title>
<path fill="none" stroke="midnightblue" d="M188.83,-56.44C169.09,-47.64 138.11,-33.81 115.51,-23.72"/>
<polygon fill="midnightblue" stroke="midnightblue" points="116.64,-20.4 106.08,-19.52 113.79,-26.79 116.64,-20.4"/>
</g>
<!-- Node11 -->
<g id="node11" class="node">
<title>Node11</title>
<g id="a_node11"><a xlink:title=" ">
<polygon fill="none" stroke="#bfbfbf" points="130,-0.5 130,-19.5 202,-19.5 202,-0.5 130,-0.5"/>
<text text-anchor="middle" x="166" y="-7.5" font-family="Helvetica,sans-Serif" font-size="10.00">initializer_list</text>
</a>
</g>
</g>
<!-- Node9&#45;&gt;Node11 -->
<g id="edge12" class="edge">
<title>Node9&#45;&gt;Node11</title>
<path fill="none" stroke="midnightblue" d="M201.06,-56.08C195.07,-48.38 186.25,-37.03 178.95,-27.65"/>
<polygon fill="midnightblue" stroke="midnightblue" points="181.71,-25.5 172.81,-19.75 176.18,-29.79 181.71,-25.5"/>
</g>
<!-- Node12 -->
<g id="node12" class="node">
<title>Node12</title>
<g id="a_node12"><a xlink:title=" ">
<polygon fill="none" stroke="#bfbfbf" points="220.5,-0.5 220.5,-19.5 279.5,-19.5 279.5,-0.5 220.5,-0.5"/>
<text text-anchor="middle" x="250" y="-7.5" font-family="Helvetica,sans-Serif" font-size="10.00">stdexcept</text>
</a>
</g>
</g>
<!-- Node9&#45;&gt;Node12 -->
<g id="edge14" class="edge">
<title>Node9&#45;&gt;Node12</title>
<path fill="none" stroke="midnightblue" d="M214.94,-56.08C220.93,-48.38 229.75,-37.03 237.05,-27.65"/>
<polygon fill="midnightblue" stroke="midnightblue" points="239.82,-29.79 243.19,-19.75 234.29,-25.5 239.82,-29.79"/>
</g>
<!-- Node13 -->
<g id="node13" class="node">
<title>Node13</title>
<g id="a_node13"><a xlink:title=" ">
<polygon fill="none" stroke="#bfbfbf" points="297.5,-0.5 297.5,-19.5 344.5,-19.5 344.5,-0.5 297.5,-0.5"/>
<text text-anchor="middle" x="321" y="-7.5" font-family="Helvetica,sans-Serif" font-size="10.00">iterator</text>
</a>
</g>
</g>
<!-- Node9&#45;&gt;Node13 -->
<g id="edge15" class="edge">
<title>Node9&#45;&gt;Node13</title>
<path fill="none" stroke="midnightblue" d="M225.91,-56.44C244.25,-47.68 273.01,-33.94 294.09,-23.86"/>
<polygon fill="midnightblue" stroke="midnightblue" points="295.67,-26.99 303.18,-19.52 292.65,-20.67 295.67,-26.99"/>
</g>
</g>
</svg>
