<?xml version="1.0" encoding="UTF-8" standalone="no"?>
<!DOCTYPE svg PUBLIC "-//W3C//DTD SVG 1.1//EN"
 "http://www.w3.org/Graphics/SVG/1.1/DTD/svg11.dtd">
<!-- Generated by graphviz version 2.43.0 (0)
 -->
<!-- Title: side_include/magic_enum.hpp Pages: 1 -->
<svg width="836pt" height="95pt"
 viewBox="0.00 0.00 835.50 95.00" xmlns="http://www.w3.org/2000/svg" xmlns:xlink="http://www.w3.org/1999/xlink">
<g id="graph0" class="graph" transform="scale(1 1) rotate(0) translate(4 91)">
<title>side_include/magic_enum.hpp</title>
<!-- Node1 -->
<g id="node1" class="node">
<title>Node1</title>
<g id="a_node1"><a xlink:title=" ">
<polygon fill="#bfbfbf" stroke="black" points="340,-56.5 340,-86.5 450,-86.5 450,-56.5 340,-56.5"/>
<text text-anchor="start" x="348" y="-74.5" font-family="Helvetica,sans-Serif" font-size="10.00">side_include/magic</text>
<text text-anchor="middle" x="395" y="-63.5" font-family="Helvetica,sans-Serif" font-size="10.00">_enum.hpp</text>
</a>
</g>
</g>
<!-- Node2 -->
<g id="node2" class="node">
<title>Node2</title>
<g id="a_node2"><a xlink:title=" ">
<polygon fill="none" stroke="#bfbfbf" points="0,-0.5 0,-19.5 42,-19.5 42,-0.5 0,-0.5"/>
<text text-anchor="middle" x="21" y="-7.5" font-family="Helvetica,sans-Serif" font-size="10.00">array</text>
</a>
</g>
</g>
<!-- Node1&#45;&gt;Node2 -->
<g id="edge1" class="edge">
<title>Node1&#45;&gt;Node2</title>
<path fill="none" stroke="midnightblue" d="M339.74,-64.9C273.47,-57.62 158.96,-43.29 52.18,-19.99"/>
<polygon fill="midnightblue" stroke="midnightblue" points="52.72,-16.52 42.2,-17.78 51.21,-23.36 52.72,-16.52"/>
</g>
<!-- Node3 -->
<g id="node3" class="node">
<title>Node3</title>
<g id="a_node3"><a xlink:title=" ">
<polygon fill="none" stroke="#bfbfbf" points="60,-0.5 60,-19.5 112,-19.5 112,-0.5 60,-0.5"/>
<text text-anchor="middle" x="86" y="-7.5" font-family="Helvetica,sans-Serif" font-size="10.00">cassert</text>
</a>
</g>
</g>
<!-- Node1&#45;&gt;Node3 -->
<g id="edge2" class="edge">
<title>Node1&#45;&gt;Node3</title>
<path fill="none" stroke="midnightblue" d="M339.93,-61.51C286.61,-52.54 203.28,-37.84 122.2,-20.15"/>
<polygon fill="midnightblue" stroke="midnightblue" points="122.84,-16.71 112.33,-17.98 121.34,-23.54 122.84,-16.71"/>
</g>
<!-- Node4 -->
<g id="node4" class="node">
<title>Node4</title>
<g id="a_node4"><a xlink:title=" ">
<polygon fill="none" stroke="#bfbfbf" points="130,-0.5 130,-19.5 180,-19.5 180,-0.5 130,-0.5"/>
<text text-anchor="middle" x="155" y="-7.5" font-family="Helvetica,sans-Serif" font-size="10.00">cstdint</text>
</a>
</g>
</g>
<!-- Node1&#45;&gt;Node4 -->
<g id="edge3" class="edge">
<title>Node1&#45;&gt;Node4</title>
<path fill="none" stroke="midnightblue" d="M339.85,-57.27C300.59,-47.79 246.35,-34.55 190.03,-20.23"/>
<polygon fill="midnightblue" stroke="midnightblue" points="190.79,-16.81 180.24,-17.74 189.06,-23.6 190.79,-16.81"/>
</g>
<!-- Node5 -->
<g id="node5" class="node">
<title>Node5</title>
<g id="a_node5"><a xlink:title=" ">
<polygon fill="none" stroke="#bfbfbf" points="198.5,-0.5 198.5,-19.5 251.5,-19.5 251.5,-0.5 198.5,-0.5"/>
<text text-anchor="middle" x="225" y="-7.5" font-family="Helvetica,sans-Serif" font-size="10.00">cstddef</text>
</a>
</g>
</g>
<!-- Node1&#45;&gt;Node5 -->
<g id="edge4" class="edge">
<title>Node1&#45;&gt;Node5</title>
<path fill="none" stroke="midnightblue" d="M354.71,-56.4C325.68,-46.24 286.92,-32.67 259.35,-23.02"/>
<polygon fill="midnightblue" stroke="midnightblue" points="260.33,-19.66 249.74,-19.66 258.02,-26.26 260.33,-19.66"/>
</g>
<!-- Node6 -->
<g id="node6" class="node">
<title>Node6</title>
<g id="a_node6"><a xlink:title=" ">
<polygon fill="none" stroke="#bfbfbf" points="270,-0.5 270,-19.5 318,-19.5 318,-0.5 270,-0.5"/>
<text text-anchor="middle" x="294" y="-7.5" font-family="Helvetica,sans-Serif" font-size="10.00">iosfwd</text>
</a>
</g>
</g>
<!-- Node1&#45;&gt;Node6 -->
<g id="edge5" class="edge">
<title>Node1&#45;&gt;Node6</title>
<path fill="none" stroke="midnightblue" d="M371.06,-56.4C354.87,-46.86 333.59,-34.32 317.5,-24.84"/>
<polygon fill="midnightblue" stroke="midnightblue" points="319.09,-21.72 308.7,-19.66 315.54,-27.75 319.09,-21.72"/>
</g>
<!-- Node7 -->
<g id="node7" class="node">
<title>Node7</title>
<g id="a_node7"><a xlink:title=" ">
<polygon fill="none" stroke="#bfbfbf" points="336,-0.5 336,-19.5 380,-19.5 380,-0.5 336,-0.5"/>
<text text-anchor="middle" x="358" y="-7.5" font-family="Helvetica,sans-Serif" font-size="10.00">limits</text>
</a>
</g>
</g>
<!-- Node1&#45;&gt;Node7 -->
<g id="edge6" class="edge">
<title>Node1&#45;&gt;Node7</title>
<path fill="none" stroke="midnightblue" d="M386.23,-56.4C381.02,-48.02 374.37,-37.33 368.83,-28.42"/>
<polygon fill="midnightblue" stroke="midnightblue" points="371.64,-26.3 363.38,-19.66 365.69,-30 371.64,-26.3"/>
</g>
<!-- Node8 -->
<g id="node8" class="node">
<title>Node8</title>
<g id="a_node8"><a xlink:title=" ">
<polygon fill="none" stroke="#bfbfbf" points="398.5,-0.5 398.5,-19.5 467.5,-19.5 467.5,-0.5 398.5,-0.5"/>
<text text-anchor="middle" x="433" y="-7.5" font-family="Helvetica,sans-Serif" font-size="10.00">type_traits</text>
</a>
</g>
</g>
<!-- Node1&#45;&gt;Node8 -->
<g id="edge7" class="edge">
<title>Node1&#45;&gt;Node8</title>
<path fill="none" stroke="midnightblue" d="M404.01,-56.4C409.41,-47.93 416.33,-37.1 422.05,-28.14"/>
<polygon fill="midnightblue" stroke="midnightblue" points="425.04,-29.97 427.47,-19.66 419.14,-26.2 425.04,-29.97"/>
</g>
<!-- Node9 -->
<g id="node9" class="node">
<title>Node9</title>
<g id="a_node9"><a xlink:title=" ">
<polygon fill="none" stroke="#bfbfbf" points="485.5,-0.5 485.5,-19.5 530.5,-19.5 530.5,-0.5 485.5,-0.5"/>
<text text-anchor="middle" x="508" y="-7.5" font-family="Helvetica,sans-Serif" font-size="10.00">utility</text>
</a>
</g>
</g>
<!-- Node1&#45;&gt;Node9 -->
<g id="edge8" class="edge">
<title>Node1&#45;&gt;Node9</title>
<path fill="none" stroke="midnightblue" d="M421.78,-56.4C440.06,-46.77 464.15,-34.09 482.21,-24.58"/>
<polygon fill="midnightblue" stroke="midnightblue" points="484.34,-27.41 491.56,-19.66 481.08,-21.22 484.34,-27.41"/>
</g>
<!-- Node10 -->
<g id="node10" class="node">
<title>Node10</title>
<g id="a_node10"><a xlink:title=" ">
<polygon fill="none" stroke="#bfbfbf" points="548.5,-0.5 548.5,-19.5 599.5,-19.5 599.5,-0.5 548.5,-0.5"/>
<text text-anchor="middle" x="574" y="-7.5" font-family="Helvetica,sans-Serif" font-size="10.00">variant</text>
</a>
</g>
</g>
<!-- Node1&#45;&gt;Node10 -->
<g id="edge9" class="edge">
<title>Node1&#45;&gt;Node10</title>
<path fill="none" stroke="midnightblue" d="M437.42,-56.4C468.31,-46.13 509.66,-32.39 538.74,-22.72"/>
<polygon fill="midnightblue" stroke="midnightblue" points="540.09,-25.96 548.48,-19.48 537.88,-19.32 540.09,-25.96"/>
</g>
<!-- Node11 -->
<g id="node11" class="node">
<title>Node11</title>
<g id="a_node11"><a xlink:title=" ">
<polygon fill="none" stroke="#bfbfbf" points="618,-0.5 618,-19.5 674,-19.5 674,-0.5 618,-0.5"/>
<text text-anchor="middle" x="646" y="-7.5" font-family="Helvetica,sans-Serif" font-size="10.00">optional</text>
</a>
</g>
</g>
<!-- Node1&#45;&gt;Node11 -->
<g id="edge10" class="edge">
<title>Node1&#45;&gt;Node11</title>
<path fill="none" stroke="midnightblue" d="M450,-57.63C490.96,-48.02 548.53,-34.46 607.81,-20.27"/>
<polygon fill="midnightblue" stroke="midnightblue" points="608.81,-23.63 617.72,-17.9 607.18,-16.83 608.81,-23.63"/>
</g>
<!-- Node12 -->
<g id="node12" class="node">
<title>Node12</title>
<g id="a_node12"><a xlink:title=" ">
<polygon fill="none" stroke="#bfbfbf" points="692,-0.5 692,-19.5 736,-19.5 736,-0.5 692,-0.5"/>
<text text-anchor="middle" x="714" y="-7.5" font-family="Helvetica,sans-Serif" font-size="10.00">string</text>
</a>
</g>
</g>
<!-- Node1&#45;&gt;Node12 -->
<g id="edge11" class="edge">
<title>Node1&#45;&gt;Node12</title>
<path fill="none" stroke="midnightblue" d="M450.03,-62.68C506.1,-54.29 595.69,-39.78 681.79,-20.08"/>
<polygon fill="midnightblue" stroke="midnightblue" points="682.77,-23.45 691.73,-17.78 681.19,-16.63 682.77,-23.45"/>
</g>
<!-- Node13 -->
<g id="node13" class="node">
<title>Node13</title>
<g id="a_node13"><a xlink:title=" ">
<polygon fill="none" stroke="#bfbfbf" points="754.5,-0.5 754.5,-19.5 827.5,-19.5 827.5,-0.5 754.5,-0.5"/>
<text text-anchor="middle" x="791" y="-7.5" font-family="Helvetica,sans-Serif" font-size="10.00">string_view</text>
</a>
</g>
</g>
<!-- Node1&#45;&gt;Node13 -->
<g id="edge12" class="edge">
<title>Node1&#45;&gt;Node13</title>
<path fill="none" stroke="midnightblue" d="M450.3,-63.39C517.37,-54.57 634.11,-38.6 744.4,-20.03"/>
<polygon fill="midnightblue" stroke="midnightblue" points="745.1,-23.46 754.37,-18.34 743.93,-16.56 745.1,-23.46"/>
</g>
</g>
</svg>
