<?xml version="1.0" encoding="UTF-8" standalone="no"?>
<!DOCTYPE svg PUBLIC "-//W3C//DTD SVG 1.1//EN"
 "http://www.w3.org/Graphics/SVG/1.1/DTD/svg11.dtd">
<!-- Generated by graphviz version 3.0.0 (20220413.0106)
 -->
<!-- Title: src/Analyze.cpp Pages: 1 -->
<svg width="1162pt" height="364pt"
 viewBox="0.00 0.00 1162.39 364.00" xmlns="http://www.w3.org/2000/svg" xmlns:xlink="http://www.w3.org/1999/xlink">
<g id="graph0" class="graph" transform="scale(1 1) rotate(0) translate(4 360)">
<title>src/Analyze.cpp</title>
<!-- Node1 -->
<g id="node1" class="node">
<title>Node1</title>
<g id="a_node1"><a xlink:title=" ">
<polygon fill="#bfbfbf" stroke="black" points="530.5,-336.5 530.5,-355.5 615.5,-355.5 615.5,-336.5 530.5,-336.5"/>
<text text-anchor="middle" x="573" y="-343.5" font-family="Helvetica,sans-Serif" font-size="10.00">src/Analyze.cpp</text>
</a>
</g>
</g>
<!-- Node2 -->
<g id="node2" class="node">
<title>Node2</title>
<g id="a_node2"><a xlink:href="../../d0/d7c/_analyze_8hpp.html" target="_top" xlink:title="Функции анализа кода на языке Pascal.">
<polygon fill="none" stroke="black" points="161,-224.5 161,-243.5 229,-243.5 229,-224.5 161,-224.5"/>
<text text-anchor="middle" x="195" y="-231.5" font-family="Helvetica,sans-Serif" font-size="10.00">Analyze.hpp</text>
</a>
</g>
</g>
<!-- Node1&#45;&gt;Node2 -->
<g id="edge1" class="edge">
<title>Node1&#45;&gt;Node2</title>
<path fill="none" stroke="midnightblue" d="M530.46,-338.98C485.12,-331.98 411.54,-318.91 350,-300 303.44,-285.69 251.69,-262.41 221.32,-247.93"/>
<polygon fill="midnightblue" stroke="midnightblue" points="222.78,-244.75 212.25,-243.57 219.74,-251.06 222.78,-244.75"/>
</g>
<!-- Node3 -->
<g id="node3" class="node">
<title>Node3</title>
<g id="a_node3"><a xlink:title=" ">
<polygon fill="none" stroke="#bfbfbf" points="93.5,-0.5 93.5,-19.5 134.5,-19.5 134.5,-0.5 93.5,-0.5"/>
<text text-anchor="middle" x="114" y="-7.5" font-family="Helvetica,sans-Serif" font-size="10.00">string</text>
</a>
</g>
</g>
<!-- Node1&#45;&gt;Node3 -->
<g id="edge13" class="edge">
<title>Node1&#45;&gt;Node3</title>
<path fill="none" stroke="midnightblue" d="M530.4,-341.34C397.61,-329.37 0,-289 0,-235 0,-235 0,-235 0,-121 0,-74.11 50.55,-40.89 84.33,-23.93"/>
<polygon fill="midnightblue" stroke="midnightblue" points="85.87,-27.07 93.36,-19.58 82.83,-20.77 85.87,-27.07"/>
</g>
<!-- Node4 -->
<g id="node4" class="node">
<title>Node4</title>
<g id="a_node4"><a xlink:href="../../dc/d72/_list_8hpp.html" target="_top" xlink:title="Двусвязный список &#45; интерфейс">
<polygon fill="none" stroke="black" points="445.5,-168.5 445.5,-187.5 496.5,-187.5 496.5,-168.5 445.5,-168.5"/>
<text text-anchor="middle" x="471" y="-175.5" font-family="Helvetica,sans-Serif" font-size="10.00">List.hpp</text>
</a>
</g>
</g>
<!-- Node1&#45;&gt;Node4 -->
<g id="edge17" class="edge">
<title>Node1&#45;&gt;Node4</title>
<path fill="none" stroke="midnightblue" d="M530.16,-344.77C495.88,-342.04 449.73,-332.08 426,-300 401.8,-267.28 434.57,-220.1 455.67,-195.43"/>
<polygon fill="midnightblue" stroke="midnightblue" points="458.51,-197.51 462.53,-187.71 453.27,-192.86 458.51,-197.51"/>
</g>
<!-- Node7 -->
<g id="node7" class="node">
<title>Node7</title>
<g id="a_node7"><a xlink:title=" ">
<polygon fill="none" stroke="#bfbfbf" points="951,-112.5 951,-131.5 995,-131.5 995,-112.5 951,-112.5"/>
<text text-anchor="middle" x="973" y="-119.5" font-family="Helvetica,sans-Serif" font-size="10.00">vector</text>
</a>
</g>
</g>
<!-- Node1&#45;&gt;Node7 -->
<g id="edge14" class="edge">
<title>Node1&#45;&gt;Node7</title>
<path fill="none" stroke="midnightblue" d="M615.74,-343.32C661.72,-339.94 735.79,-329.87 792,-300 868.6,-259.3 934.67,-176.15 960.92,-140.2"/>
<polygon fill="midnightblue" stroke="midnightblue" points="963.99,-141.92 966.98,-131.75 958.31,-137.84 963.99,-141.92"/>
</g>
<!-- Node13 -->
<g id="node13" class="node">
<title>Node13</title>
<g id="a_node13"><a xlink:title=" ">
<polygon fill="none" stroke="#bfbfbf" points="435,-280.5 435,-299.5 489,-299.5 489,-280.5 435,-280.5"/>
<text text-anchor="middle" x="462" y="-287.5" font-family="Helvetica,sans-Serif" font-size="10.00">iostream</text>
</a>
</g>
</g>
<!-- Node1&#45;&gt;Node13 -->
<g id="edge15" class="edge">
<title>Node1&#45;&gt;Node13</title>
<path fill="none" stroke="midnightblue" d="M555.17,-336.32C537.28,-327.62 509.52,-314.12 488.95,-304.11"/>
<polygon fill="midnightblue" stroke="midnightblue" points="490.31,-300.88 479.79,-299.65 487.25,-307.18 490.31,-300.88"/>
</g>
<!-- Node14 -->
<g id="node14" class="node">
<title>Node14</title>
<g id="a_node14"><a xlink:title=" ">
<polygon fill="none" stroke="#bfbfbf" points="507.5,-280.5 507.5,-299.5 576.5,-299.5 576.5,-280.5 507.5,-280.5"/>
<text text-anchor="middle" x="542" y="-287.5" font-family="Helvetica,sans-Serif" font-size="10.00">fmt/format.h</text>
</a>
</g>
</g>
<!-- Node1&#45;&gt;Node14 -->
<g id="edge16" class="edge">
<title>Node1&#45;&gt;Node14</title>
<path fill="none" stroke="midnightblue" d="M567.88,-336.08C563.59,-328.61 557.34,-317.72 552.06,-308.52"/>
<polygon fill="midnightblue" stroke="midnightblue" points="555.04,-306.68 547.02,-299.75 548.97,-310.17 555.04,-306.68"/>
</g>
<!-- Node15 -->
<g id="node15" class="node">
<title>Node15</title>
<g id="a_node15"><a xlink:href="../../d5/d24/_lexer_8hpp.html" target="_top" xlink:title="Лексер">
<polygon fill="none" stroke="black" points="251.5,-224.5 251.5,-243.5 310.5,-243.5 310.5,-224.5 251.5,-224.5"/>
<text text-anchor="middle" x="281" y="-231.5" font-family="Helvetica,sans-Serif" font-size="10.00">Lexer.hpp</text>
</a>
</g>
</g>
<!-- Node1&#45;&gt;Node15 -->
<g id="edge18" class="edge">
<title>Node1&#45;&gt;Node15</title>
<path fill="none" stroke="midnightblue" d="M530.48,-337.87C493.32,-330.82 438.37,-318.41 393,-300 359.28,-286.32 323.42,-263.95 301.61,-249.35"/>
<polygon fill="midnightblue" stroke="midnightblue" points="303.41,-246.34 293.17,-243.62 299.48,-252.13 303.41,-246.34"/>
</g>
<!-- Node17 -->
<g id="node17" class="node">
<title>Node17</title>
<g id="a_node17"><a xlink:href="../../df/d3f/_syntax_8hpp.html" target="_top" xlink:title="Синтаксический анализатор">
<polygon fill="none" stroke="black" points="945,-224.5 945,-243.5 1009,-243.5 1009,-224.5 945,-224.5"/>
<text text-anchor="middle" x="977" y="-231.5" font-family="Helvetica,sans-Serif" font-size="10.00">Syntax.hpp</text>
</a>
</g>
</g>
<!-- Node1&#45;&gt;Node17 -->
<g id="edge23" class="edge">
<title>Node1&#45;&gt;Node17</title>
<path fill="none" stroke="midnightblue" d="M615.8,-343.38C697.23,-339.68 870.99,-328.6 923,-300 942.83,-289.1 958.36,-267.74 967.58,-252.48"/>
<polygon fill="midnightblue" stroke="midnightblue" points="970.79,-253.93 972.71,-243.51 964.71,-250.46 970.79,-253.93"/>
</g>
<!-- Node20 -->
<g id="node20" class="node">
<title>Node20</title>
<g id="a_node20"><a xlink:href="../../da/dbf/_synt_exp_8hpp.html" target="_top" xlink:title="Исключения анализатора">
<polygon fill="none" stroke="black" points="587,-168.5 587,-187.5 657,-187.5 657,-168.5 587,-168.5"/>
<text text-anchor="middle" x="622" y="-175.5" font-family="Helvetica,sans-Serif" font-size="10.00">SyntExp.hpp</text>
</a>
</g>
</g>
<!-- Node1&#45;&gt;Node20 -->
<g id="edge30" class="edge">
<title>Node1&#45;&gt;Node20</title>
<path fill="none" stroke="midnightblue" d="M575.63,-336.08C583.35,-309.95 606,-233.21 616.52,-197.58"/>
<polygon fill="midnightblue" stroke="midnightblue" points="620,-198.15 619.47,-187.57 613.28,-196.17 620,-198.15"/>
</g>
<!-- Node21 -->
<g id="node21" class="node">
<title>Node21</title>
<g id="a_node21"><a xlink:href="../../d4/dcb/_a_s_t_8hpp.html" target="_top" xlink:title="Узлы ДАС">
<polygon fill="none" stroke="black" points="789,-168.5 789,-187.5 843,-187.5 843,-168.5 789,-168.5"/>
<text text-anchor="middle" x="816" y="-175.5" font-family="Helvetica,sans-Serif" font-size="10.00">AST.hpp</text>
</a>
</g>
</g>
<!-- Node1&#45;&gt;Node21 -->
<g id="edge34" class="edge">
<title>Node1&#45;&gt;Node21</title>
<path fill="none" stroke="midnightblue" d="M615.8,-339.98C666.61,-333.23 747.3,-319.75 770,-300 800.56,-273.41 810.89,-224.28 814.33,-197.53"/>
<polygon fill="midnightblue" stroke="midnightblue" points="817.81,-197.89 815.42,-187.57 810.85,-197.13 817.81,-197.89"/>
</g>
<!-- Node23 -->
<g id="node23" class="node">
<title>Node23</title>
<g id="a_node23"><a xlink:href="../../db/dfd/_pascal_rules_8hpp.html" target="_top" xlink:title="Правила языка Паскаль">
<polygon fill="none" stroke="black" points="671.5,-280.5 671.5,-299.5 760.5,-299.5 760.5,-280.5 671.5,-280.5"/>
<text text-anchor="middle" x="716" y="-287.5" font-family="Helvetica,sans-Serif" font-size="10.00">PascalRules.hpp</text>
</a>
</g>
</g>
<!-- Node1&#45;&gt;Node23 -->
<g id="edge39" class="edge">
<title>Node1&#45;&gt;Node23</title>
<path fill="none" stroke="midnightblue" d="M595.66,-336.44C619.4,-327.48 656.91,-313.31 683.74,-303.18"/>
<polygon fill="midnightblue" stroke="midnightblue" points="685.33,-306.32 693.45,-299.52 682.86,-299.77 685.33,-306.32"/>
</g>
<!-- Node24 -->
<g id="node24" class="node">
<title>Node24</title>
<g id="a_node24"><a xlink:href="../../db/d42/_visitor_8hpp.html" target="_top" xlink:title="Посетители для обхода ДАС">
<polygon fill="none" stroke="black" points="671,-224.5 671,-243.5 733,-243.5 733,-224.5 671,-224.5"/>
<text text-anchor="middle" x="702" y="-231.5" font-family="Helvetica,sans-Serif" font-size="10.00">Visitor.hpp</text>
</a>
</g>
</g>
<!-- Node1&#45;&gt;Node24 -->
<g id="edge53" class="edge">
<title>Node1&#45;&gt;Node24</title>
<path fill="none" stroke="midnightblue" d="M583.12,-336.37C604.98,-317.73 656.81,-273.53 684.25,-250.13"/>
<polygon fill="midnightblue" stroke="midnightblue" points="686.59,-252.74 691.92,-243.59 682.04,-247.42 686.59,-252.74"/>
</g>
<!-- Node2&#45;&gt;Node3 -->
<g id="edge2" class="edge">
<title>Node2&#45;&gt;Node3</title>
<path fill="none" stroke="midnightblue" d="M160.7,-226.43C139.25,-220.36 113.27,-208.97 100,-188 68.32,-137.94 92.1,-63.28 105.92,-29.17"/>
<polygon fill="midnightblue" stroke="midnightblue" points="109.3,-30.18 109.98,-19.61 102.85,-27.45 109.3,-30.18"/>
</g>
<!-- Node2&#45;&gt;Node4 -->
<g id="edge3" class="edge">
<title>Node2&#45;&gt;Node4</title>
<path fill="none" stroke="midnightblue" d="M229.12,-226.32C281.58,-216.06 381.59,-196.49 435.1,-186.02"/>
<polygon fill="midnightblue" stroke="midnightblue" points="436.01,-189.41 445.16,-184.06 434.67,-182.54 436.01,-189.41"/>
</g>
<!-- Node11 -->
<g id="node11" class="node">
<title>Node11</title>
<g id="a_node11"><a xlink:href="../../de/d32/_token_8hpp.html" target="_top" xlink:title="Классы для работы с токенами анализатора">
<polygon fill="none" stroke="black" points="679,-56.5 679,-75.5 741,-75.5 741,-56.5 679,-56.5"/>
<text text-anchor="middle" x="710" y="-63.5" font-family="Helvetica,sans-Serif" font-size="10.00">Token.hpp</text>
</a>
</g>
</g>
<!-- Node2&#45;&gt;Node11 -->
<g id="edge10" class="edge">
<title>Node2&#45;&gt;Node11</title>
<path fill="none" stroke="midnightblue" d="M194.67,-224.23C194.34,-201.52 196.93,-140.59 232,-112 265.52,-84.67 558.89,-72.08 668.73,-68.29"/>
<polygon fill="midnightblue" stroke="midnightblue" points="668.89,-71.79 678.77,-67.95 668.66,-64.79 668.89,-71.79"/>
</g>
<!-- Node5 -->
<g id="node5" class="node">
<title>Node5</title>
<g id="a_node5"><a xlink:title=" ">
<polygon fill="none" stroke="#bfbfbf" points="256.5,-112.5 256.5,-131.5 305.5,-131.5 305.5,-112.5 256.5,-112.5"/>
<text text-anchor="middle" x="281" y="-119.5" font-family="Helvetica,sans-Serif" font-size="10.00">cstddef</text>
</a>
</g>
</g>
<!-- Node4&#45;&gt;Node5 -->
<g id="edge4" class="edge">
<title>Node4&#45;&gt;Node5</title>
<path fill="none" stroke="midnightblue" d="M445.38,-169.72C411.86,-160.19 353.01,-143.47 315.57,-132.83"/>
<polygon fill="midnightblue" stroke="midnightblue" points="316.19,-129.36 305.62,-130 314.28,-136.1 316.19,-129.36"/>
</g>
<!-- Node6 -->
<g id="node6" class="node">
<title>Node6</title>
<g id="a_node6"><a xlink:title=" ">
<polygon fill="none" stroke="#bfbfbf" points="324,-112.5 324,-131.5 396,-131.5 396,-112.5 324,-112.5"/>
<text text-anchor="middle" x="360" y="-119.5" font-family="Helvetica,sans-Serif" font-size="10.00">initializer_list</text>
</a>
</g>
</g>
<!-- Node4&#45;&gt;Node6 -->
<g id="edge5" class="edge">
<title>Node4&#45;&gt;Node6</title>
<path fill="none" stroke="midnightblue" d="M453.17,-168.32C435.28,-159.62 407.52,-146.12 386.95,-136.11"/>
<polygon fill="midnightblue" stroke="midnightblue" points="388.31,-132.88 377.79,-131.65 385.25,-139.18 388.31,-132.88"/>
</g>
<!-- Node4&#45;&gt;Node7 -->
<g id="edge6" class="edge">
<title>Node4&#45;&gt;Node7</title>
<path fill="none" stroke="midnightblue" d="M496.89,-174.55C564.12,-168.13 749.74,-150.07 904,-132 916.03,-130.59 929.23,-128.9 940.83,-127.37"/>
<polygon fill="midnightblue" stroke="midnightblue" points="941.5,-130.81 950.96,-126.02 940.58,-123.88 941.5,-130.81"/>
</g>
<!-- Node8 -->
<g id="node8" class="node">
<title>Node8</title>
<g id="a_node8"><a xlink:title=" ">
<polygon fill="none" stroke="#bfbfbf" points="546.5,-112.5 546.5,-131.5 605.5,-131.5 605.5,-112.5 546.5,-112.5"/>
<text text-anchor="middle" x="576" y="-119.5" font-family="Helvetica,sans-Serif" font-size="10.00">stdexcept</text>
</a>
</g>
</g>
<!-- Node4&#45;&gt;Node8 -->
<g id="edge7" class="edge">
<title>Node4&#45;&gt;Node8</title>
<path fill="none" stroke="midnightblue" d="M487.87,-168.32C504.71,-159.66 530.81,-146.24 550.24,-136.25"/>
<polygon fill="midnightblue" stroke="midnightblue" points="551.88,-139.34 559.17,-131.65 548.68,-133.12 551.88,-139.34"/>
</g>
<!-- Node9 -->
<g id="node9" class="node">
<title>Node9</title>
<g id="a_node9"><a xlink:title=" ">
<polygon fill="none" stroke="#bfbfbf" points="414.5,-112.5 414.5,-131.5 461.5,-131.5 461.5,-112.5 414.5,-112.5"/>
<text text-anchor="middle" x="438" y="-119.5" font-family="Helvetica,sans-Serif" font-size="10.00">iterator</text>
</a>
</g>
</g>
<!-- Node4&#45;&gt;Node9 -->
<g id="edge8" class="edge">
<title>Node4&#45;&gt;Node9</title>
<path fill="none" stroke="midnightblue" d="M465.55,-168.08C460.99,-160.61 454.33,-149.72 448.71,-140.52"/>
<polygon fill="midnightblue" stroke="midnightblue" points="451.55,-138.46 443.35,-131.75 445.58,-142.11 451.55,-138.46"/>
</g>
<!-- Node10 -->
<g id="node10" class="node">
<title>Node10</title>
<g id="a_node10"><a xlink:title=" ">
<polygon fill="none" stroke="#bfbfbf" points="479.5,-112.5 479.5,-131.5 528.5,-131.5 528.5,-112.5 479.5,-112.5"/>
<text text-anchor="middle" x="504" y="-119.5" font-family="Helvetica,sans-Serif" font-size="10.00">List.tpp</text>
</a>
</g>
</g>
<!-- Node4&#45;&gt;Node10 -->
<g id="edge9" class="edge">
<title>Node4&#45;&gt;Node10</title>
<path fill="none" stroke="midnightblue" d="M476.45,-168.08C481.01,-160.61 487.67,-149.72 493.29,-140.52"/>
<polygon fill="midnightblue" stroke="midnightblue" points="496.42,-142.11 498.65,-131.75 490.45,-138.46 496.42,-142.11"/>
</g>
<!-- Node11&#45;&gt;Node3 -->
<g id="edge11" class="edge">
<title>Node11&#45;&gt;Node3</title>
<path fill="none" stroke="midnightblue" d="M678.82,-60.1C668.98,-58.65 658.05,-57.15 648,-56 457.15,-34.13 226.77,-18.26 144.79,-12.94"/>
<polygon fill="midnightblue" stroke="midnightblue" points="144.87,-9.44 134.66,-12.29 144.42,-16.43 144.87,-9.44"/>
</g>
<!-- Node12 -->
<g id="node12" class="node">
<title>Node12</title>
<g id="a_node12"><a xlink:title=" ">
<polygon fill="none" stroke="#bfbfbf" points="690,-0.5 690,-19.5 730,-19.5 730,-0.5 690,-0.5"/>
<text text-anchor="middle" x="710" y="-7.5" font-family="Helvetica,sans-Serif" font-size="10.00">regex</text>
</a>
</g>
</g>
<!-- Node11&#45;&gt;Node12 -->
<g id="edge12" class="edge">
<title>Node11&#45;&gt;Node12</title>
<path fill="none" stroke="midnightblue" d="M710,-56.08C710,-49.01 710,-38.86 710,-29.99"/>
<polygon fill="midnightblue" stroke="midnightblue" points="713.5,-29.75 710,-19.75 706.5,-29.75 713.5,-29.75"/>
</g>
<!-- Node15&#45;&gt;Node3 -->
<g id="edge19" class="edge">
<title>Node15&#45;&gt;Node3</title>
<path fill="none" stroke="midnightblue" d="M260.14,-224.43C228.35,-210.22 168.29,-178.65 138,-132 117.47,-100.38 113.83,-55.03 113.55,-29.79"/>
<polygon fill="midnightblue" stroke="midnightblue" points="117.05,-29.74 113.62,-19.72 110.05,-29.7 117.05,-29.74"/>
</g>
<!-- Node15&#45;&gt;Node4 -->
<g id="edge22" class="edge">
<title>Node15&#45;&gt;Node4</title>
<path fill="none" stroke="midnightblue" d="M310.69,-224.56C344.41,-214.98 399.41,-199.35 435.41,-189.12"/>
<polygon fill="midnightblue" stroke="midnightblue" points="436.81,-192.36 445.47,-186.25 434.9,-185.62 436.81,-192.36"/>
</g>
<!-- Node15&#45;&gt;Node11 -->
<g id="edge21" class="edge">
<title>Node15&#45;&gt;Node11</title>
<path fill="none" stroke="midnightblue" d="M271.71,-224.39C263.42,-216.02 251.86,-202.48 247,-188 236.26,-155.97 224.3,-137.01 247,-112 275.07,-81.07 560.09,-70.74 668.48,-67.92"/>
<polygon fill="midnightblue" stroke="midnightblue" points="668.79,-71.41 678.7,-67.66 668.61,-64.41 668.79,-71.41"/>
</g>
<!-- Node16 -->
<g id="node16" class="node">
<title>Node16</title>
<g id="a_node16"><a xlink:title=" ">
<polygon fill="none" stroke="#bfbfbf" points="256,-168.5 256,-187.5 306,-187.5 306,-168.5 256,-168.5"/>
<text text-anchor="middle" x="281" y="-175.5" font-family="Helvetica,sans-Serif" font-size="10.00">fstream</text>
</a>
</g>
</g>
<!-- Node15&#45;&gt;Node16 -->
<g id="edge20" class="edge">
<title>Node15&#45;&gt;Node16</title>
<path fill="none" stroke="midnightblue" d="M281,-224.08C281,-217.01 281,-206.86 281,-197.99"/>
<polygon fill="midnightblue" stroke="midnightblue" points="284.5,-197.75 281,-187.75 277.5,-197.75 284.5,-197.75"/>
</g>
<!-- Node17&#45;&gt;Node4 -->
<g id="edge26" class="edge">
<title>Node17&#45;&gt;Node4</title>
<path fill="none" stroke="midnightblue" d="M944.96,-229.58C855.12,-219.99 601.18,-192.89 506.86,-182.83"/>
<polygon fill="midnightblue" stroke="midnightblue" points="507,-179.32 496.68,-181.74 506.26,-186.28 507,-179.32"/>
</g>
<!-- Node17&#45;&gt;Node7 -->
<g id="edge24" class="edge">
<title>Node17&#45;&gt;Node7</title>
<path fill="none" stroke="midnightblue" d="M976.69,-224.37C976.04,-206.62 974.55,-165.67 973.68,-141.6"/>
<polygon fill="midnightblue" stroke="midnightblue" points="977.17,-141.46 973.31,-131.59 970.18,-141.71 977.17,-141.46"/>
</g>
<!-- Node17&#45;&gt;Node11 -->
<g id="edge27" class="edge">
<title>Node17&#45;&gt;Node11</title>
<path fill="none" stroke="midnightblue" d="M983.21,-224.49C998.14,-202.93 1032.74,-145.48 1004,-112 971.94,-74.66 824.61,-67.98 751.45,-67"/>
<polygon fill="midnightblue" stroke="midnightblue" points="751.26,-63.5 741.22,-66.89 751.18,-70.5 751.26,-63.5"/>
</g>
<!-- Node18 -->
<g id="node18" class="node">
<title>Node18</title>
<g id="a_node18"><a xlink:title=" ">
<polygon fill="none" stroke="#bfbfbf" points="1051,-168.5 1051,-187.5 1141,-187.5 1141,-168.5 1051,-168.5"/>
<text text-anchor="middle" x="1096" y="-175.5" font-family="Helvetica,sans-Serif" font-size="10.00">magic_enum.hpp</text>
</a>
</g>
</g>
<!-- Node17&#45;&gt;Node18 -->
<g id="edge25" class="edge">
<title>Node17&#45;&gt;Node18</title>
<path fill="none" stroke="midnightblue" d="M995.86,-224.44C1015.27,-215.64 1045.73,-201.81 1067.96,-191.72"/>
<polygon fill="midnightblue" stroke="midnightblue" points="1069.57,-194.84 1077.23,-187.52 1066.68,-188.46 1069.57,-194.84"/>
</g>
<!-- Node19 -->
<g id="node19" class="node">
<title>Node19</title>
<g id="a_node19"><a xlink:href="../../d8/de6/_a_s_tclasses_8hpp.html" target="_top" xlink:title="Базовые классы ДАС: абстрактный посетитель и абстрактный узел">
<polygon fill="none" stroke="black" points="807,-112.5 807,-131.5 895,-131.5 895,-112.5 807,-112.5"/>
<text text-anchor="middle" x="851" y="-119.5" font-family="Helvetica,sans-Serif" font-size="10.00">ASTclasses.hpp</text>
</a>
</g>
</g>
<!-- Node17&#45;&gt;Node19 -->
<g id="edge28" class="edge">
<title>Node17&#45;&gt;Node19</title>
<path fill="none" stroke="midnightblue" d="M967.11,-224.37C945.86,-205.81 895.57,-161.91 868.68,-138.44"/>
<polygon fill="midnightblue" stroke="midnightblue" points="870.68,-135.53 860.84,-131.59 866.07,-140.8 870.68,-135.53"/>
</g>
<!-- Node19&#45;&gt;Node11 -->
<g id="edge29" class="edge">
<title>Node19&#45;&gt;Node11</title>
<path fill="none" stroke="midnightblue" d="M828.66,-112.44C805.25,-103.48 768.26,-89.31 741.81,-79.18"/>
<polygon fill="midnightblue" stroke="midnightblue" points="742.83,-75.82 732.24,-75.52 740.32,-82.36 742.83,-75.82"/>
</g>
<!-- Node20&#45;&gt;Node3 -->
<g id="edge31" class="edge">
<title>Node20&#45;&gt;Node3</title>
<path fill="none" stroke="midnightblue" d="M623.99,-168.13C626.53,-154.26 629.08,-127.43 615,-112 551.02,-41.87 243.97,-18.41 144.89,-12.6"/>
<polygon fill="midnightblue" stroke="midnightblue" points="144.83,-9.09 134.65,-12.02 144.44,-16.08 144.83,-9.09"/>
</g>
<!-- Node20&#45;&gt;Node8 -->
<g id="edge32" class="edge">
<title>Node20&#45;&gt;Node8</title>
<path fill="none" stroke="midnightblue" d="M614.4,-168.08C607.77,-160.3 597.98,-148.8 589.94,-139.37"/>
<polygon fill="midnightblue" stroke="midnightblue" points="592.6,-137.09 583.45,-131.75 587.27,-141.63 592.6,-137.09"/>
</g>
<!-- Node20&#45;&gt;Node11 -->
<g id="edge33" class="edge">
<title>Node20&#45;&gt;Node11</title>
<path fill="none" stroke="midnightblue" d="M628.91,-168.37C643.49,-150.14 677.66,-107.43 696.66,-83.68"/>
<polygon fill="midnightblue" stroke="midnightblue" points="699.61,-85.59 703.13,-75.59 694.15,-81.21 699.61,-85.59"/>
</g>
<!-- Node21&#45;&gt;Node7 -->
<g id="edge35" class="edge">
<title>Node21&#45;&gt;Node7</title>
<path fill="none" stroke="midnightblue" d="M840.88,-168.44C868.07,-159.09 911.69,-144.09 941.31,-133.9"/>
<polygon fill="midnightblue" stroke="midnightblue" points="942.46,-137.21 950.78,-130.64 940.18,-130.59 942.46,-137.21"/>
</g>
<!-- Node21&#45;&gt;Node11 -->
<g id="edge37" class="edge">
<title>Node21&#45;&gt;Node11</title>
<path fill="none" stroke="midnightblue" d="M843.07,-169.41C875.96,-158.84 924.68,-138.02 904,-112 885.29,-88.45 802.38,-76.12 751.19,-70.64"/>
<polygon fill="midnightblue" stroke="midnightblue" points="751.4,-67.15 741.1,-69.61 750.69,-74.11 751.4,-67.15"/>
</g>
<!-- Node21&#45;&gt;Node19 -->
<g id="edge38" class="edge">
<title>Node21&#45;&gt;Node19</title>
<path fill="none" stroke="midnightblue" d="M821.78,-168.08C826.67,-160.53 833.83,-149.49 839.83,-140.23"/>
<polygon fill="midnightblue" stroke="midnightblue" points="842.83,-142.05 845.33,-131.75 836.95,-138.24 842.83,-142.05"/>
</g>
<!-- Node22 -->
<g id="node22" class="node">
<title>Node22</title>
<g id="a_node22"><a xlink:title=" ">
<polygon fill="none" stroke="#bfbfbf" points="738.5,-112.5 738.5,-131.5 789.5,-131.5 789.5,-112.5 738.5,-112.5"/>
<text text-anchor="middle" x="764" y="-119.5" font-family="Helvetica,sans-Serif" font-size="10.00">memory</text>
</a>
</g>
</g>
<!-- Node21&#45;&gt;Node22 -->
<g id="edge36" class="edge">
<title>Node21&#45;&gt;Node22</title>
<path fill="none" stroke="midnightblue" d="M807.41,-168.08C799.84,-160.22 788.62,-148.57 779.49,-139.08"/>
<polygon fill="midnightblue" stroke="midnightblue" points="781.88,-136.53 772.43,-131.75 776.84,-141.38 781.88,-136.53"/>
</g>
<!-- Node23&#45;&gt;Node3 -->
<g id="edge41" class="edge">
<title>Node23&#45;&gt;Node3</title>
<path fill="none" stroke="midnightblue" d="M671.46,-285.71C540.39,-275.98 164.39,-247.82 152,-244 96.26,-226.82 38,-237.32 38,-179 38,-179 38,-179 38,-121 38,-81.28 71.96,-45.5 94.48,-26.15"/>
<polygon fill="midnightblue" stroke="midnightblue" points="96.98,-28.63 102.46,-19.57 92.52,-23.24 96.98,-28.63"/>
</g>
<!-- Node23&#45;&gt;Node4 -->
<g id="edge43" class="edge">
<title>Node23&#45;&gt;Node4</title>
<path fill="none" stroke="midnightblue" d="M696.78,-280.37C653.84,-261.09 549.96,-214.45 499.49,-191.79"/>
<polygon fill="midnightblue" stroke="midnightblue" points="500.69,-188.49 490.14,-187.59 497.82,-194.88 500.69,-188.49"/>
</g>
<!-- Node23&#45;&gt;Node7 -->
<g id="edge40" class="edge">
<title>Node23&#45;&gt;Node7</title>
<path fill="none" stroke="midnightblue" d="M727.96,-280.48C756.45,-260.29 830.76,-208.17 895,-168 912.56,-157.02 932.84,-145.35 948.32,-136.65"/>
<polygon fill="midnightblue" stroke="midnightblue" points="950.25,-139.58 957.27,-131.64 946.83,-133.47 950.25,-139.58"/>
</g>
<!-- Node23&#45;&gt;Node11 -->
<g id="edge42" class="edge">
<title>Node23&#45;&gt;Node11</title>
<path fill="none" stroke="midnightblue" d="M760.75,-285.01C880.19,-273.41 1194.53,-236.08 1150,-168 1106.19,-101.01 852.15,-76.62 751.27,-69.5"/>
<polygon fill="midnightblue" stroke="midnightblue" points="751.37,-66 741.15,-68.81 750.89,-72.98 751.37,-66"/>
</g>
<!-- Node23&#45;&gt;Node24 -->
<g id="edge44" class="edge">
<title>Node23&#45;&gt;Node24</title>
<path fill="none" stroke="midnightblue" d="M713.69,-280.08C711.83,-272.93 709.16,-262.64 706.85,-253.69"/>
<polygon fill="midnightblue" stroke="midnightblue" points="710.17,-252.55 704.27,-243.75 703.39,-254.31 710.17,-252.55"/>
</g>
<!-- Node24&#45;&gt;Node3 -->
<g id="edge46" class="edge">
<title>Node24&#45;&gt;Node3</title>
<path fill="none" stroke="midnightblue" d="M670.83,-232.2C593.88,-228.97 390.69,-212.83 247,-132 196.89,-103.81 150.04,-53.55 127.7,-27.57"/>
<polygon fill="midnightblue" stroke="midnightblue" points="130.22,-25.13 121.09,-19.76 124.88,-29.65 130.22,-25.13"/>
</g>
<!-- Node24&#45;&gt;Node4 -->
<g id="edge49" class="edge">
<title>Node24&#45;&gt;Node4</title>
<path fill="none" stroke="midnightblue" d="M670.85,-225.72C628.12,-215.73 551.52,-197.82 506.58,-187.32"/>
<polygon fill="midnightblue" stroke="midnightblue" points="507.22,-183.87 496.69,-185.01 505.63,-190.69 507.22,-183.87"/>
</g>
<!-- Node24&#45;&gt;Node11 -->
<g id="edge48" class="edge">
<title>Node24&#45;&gt;Node11</title>
<path fill="none" stroke="midnightblue" d="M702.43,-224.08C703.69,-197.95 707.39,-121.21 709.1,-85.58"/>
<polygon fill="midnightblue" stroke="midnightblue" points="712.6,-85.73 709.59,-75.57 705.61,-85.39 712.6,-85.73"/>
</g>
<!-- Node24&#45;&gt;Node16 -->
<g id="edge45" class="edge">
<title>Node24&#45;&gt;Node16</title>
<path fill="none" stroke="midnightblue" d="M670.64,-230.48C605.16,-224.95 449.28,-210.46 320,-188 318.73,-187.78 317.44,-187.54 316.13,-187.3"/>
<polygon fill="midnightblue" stroke="midnightblue" points="316.59,-183.82 306.09,-185.22 315.18,-190.67 316.59,-183.82"/>
</g>
<!-- Node24&#45;&gt;Node19 -->
<g id="edge50" class="edge">
<title>Node24&#45;&gt;Node19</title>
<path fill="none" stroke="midnightblue" d="M711.76,-224.16C726.21,-211.23 754.36,-186.69 780,-168 795.38,-156.79 813.52,-145.32 827.61,-136.77"/>
<polygon fill="midnightblue" stroke="midnightblue" points="829.45,-139.75 836.22,-131.6 825.85,-133.75 829.45,-139.75"/>
</g>
<!-- Node24&#45;&gt;Node20 -->
<g id="edge52" class="edge">
<title>Node24&#45;&gt;Node20</title>
<path fill="none" stroke="midnightblue" d="M689.15,-224.32C676.78,-215.98 657.87,-203.21 643.26,-193.35"/>
<polygon fill="midnightblue" stroke="midnightblue" points="645.07,-190.35 634.82,-187.65 641.15,-196.15 645.07,-190.35"/>
</g>
<!-- Node24&#45;&gt;Node21 -->
<g id="edge51" class="edge">
<title>Node24&#45;&gt;Node21</title>
<path fill="none" stroke="midnightblue" d="M720.06,-224.44C738.57,-215.68 767.58,-201.94 788.86,-191.86"/>
<polygon fill="midnightblue" stroke="midnightblue" points="790.48,-194.96 798.02,-187.52 787.49,-188.63 790.48,-194.96"/>
</g>
<!-- Node24&#45;&gt;Node22 -->
<g id="edge47" class="edge">
<title>Node24&#45;&gt;Node22</title>
<path fill="none" stroke="midnightblue" d="M706.87,-224.37C717.05,-206.3 740.79,-164.18 754.24,-140.31"/>
<polygon fill="midnightblue" stroke="midnightblue" points="757.3,-142.02 759.16,-131.59 751.2,-138.58 757.3,-142.02"/>
</g>
</g>
</svg>
