<?xml version="1.0" encoding="UTF-8" standalone="no"?>
<!DOCTYPE svg PUBLIC "-//W3C//DTD SVG 1.1//EN"
 "http://www.w3.org/Graphics/SVG/1.1/DTD/svg11.dtd">
<!-- Generated by graphviz version 3.0.0 (20220413.0106)
 -->
<!-- Title: include/PascalSyntax.hpp Pages: 1 -->
<svg width="624pt" height="84pt"
 viewBox="0.00 0.00 623.50 84.00" xmlns="http://www.w3.org/2000/svg" xmlns:xlink="http://www.w3.org/1999/xlink">
<g id="graph0" class="graph" transform="scale(1 1) rotate(0) translate(4 80)">
<title>include/PascalSyntax.hpp</title>
<!-- Node1 -->
<g id="node1" class="node">
<title>Node1</title>
<g id="a_node1"><a xlink:title=" ">
<polygon fill="#bfbfbf" stroke="black" points="164.5,-56.5 164.5,-75.5 292.5,-75.5 292.5,-56.5 164.5,-56.5"/>
<text text-anchor="middle" x="228.5" y="-63.5" font-family="Helvetica,sans-Serif" font-size="10.00">include/PascalSyntax.hpp</text>
</a>
</g>
</g>
<!-- Node2 -->
<g id="node2" class="node">
<title>Node2</title>
<g id="a_node2"><a xlink:href="../../d3/db4/graph_draw_8cpp.html" target="_top" xlink:title=" ">
<polygon fill="none" stroke="black" points="0,-0.5 0,-19.5 81,-19.5 81,-0.5 0,-0.5"/>
<text text-anchor="middle" x="40.5" y="-7.5" font-family="Helvetica,sans-Serif" font-size="10.00">graphDraw.cpp</text>
</a>
</g>
</g>
<!-- Node1&#45;&gt;Node2 -->
<g id="edge1" class="edge">
<title>Node1&#45;&gt;Node2</title>
<path fill="none" stroke="midnightblue" d="M188.7,-53.57C153.23,-43.38 102.13,-28.7 70.15,-19.52"/>
<polygon fill="midnightblue" stroke="midnightblue" points="188.13,-57.05 198.71,-56.44 190.07,-50.32 188.13,-57.05"/>
</g>
<!-- Node3 -->
<g id="node3" class="node">
<title>Node3</title>
<g id="a_node3"><a xlink:href="../../df/d0a/main_8cpp.html" target="_top" xlink:title=" ">
<polygon fill="none" stroke="black" points="99.5,-0.5 99.5,-19.5 155.5,-19.5 155.5,-0.5 99.5,-0.5"/>
<text text-anchor="middle" x="127.5" y="-7.5" font-family="Helvetica,sans-Serif" font-size="10.00">main.cpp</text>
</a>
</g>
</g>
<!-- Node1&#45;&gt;Node3 -->
<g id="edge2" class="edge">
<title>Node1&#45;&gt;Node3</title>
<path fill="none" stroke="midnightblue" d="M203.42,-51.59C184.74,-41.61 159.8,-28.27 143.69,-19.65"/>
<polygon fill="midnightblue" stroke="midnightblue" points="201.8,-54.7 212.27,-56.32 205.1,-48.52 201.8,-54.7"/>
</g>
<!-- Node4 -->
<g id="node4" class="node">
<title>Node4</title>
<g id="a_node4"><a xlink:href="../../dd/d15/_pascal_syntax_8cpp.html" target="_top" xlink:title=" ">
<polygon fill="none" stroke="black" points="173.5,-0.5 173.5,-19.5 283.5,-19.5 283.5,-0.5 173.5,-0.5"/>
<text text-anchor="middle" x="228.5" y="-7.5" font-family="Helvetica,sans-Serif" font-size="10.00">src/PascalSyntax.cpp</text>
</a>
</g>
</g>
<!-- Node1&#45;&gt;Node4 -->
<g id="edge3" class="edge">
<title>Node1&#45;&gt;Node4</title>
<path fill="none" stroke="midnightblue" d="M228.5,-45.8C228.5,-36.91 228.5,-26.78 228.5,-19.75"/>
<polygon fill="midnightblue" stroke="midnightblue" points="225,-46.08 228.5,-56.08 232,-46.08 225,-46.08"/>
</g>
<!-- Node5 -->
<g id="node5" class="node">
<title>Node5</title>
<g id="a_node5"><a xlink:href="../../db/df9/test_semantic_8cpp.html" target="_top" xlink:title=" ">
<polygon fill="none" stroke="black" points="301.5,-0.5 301.5,-19.5 461.5,-19.5 461.5,-0.5 301.5,-0.5"/>
<text text-anchor="middle" x="381.5" y="-7.5" font-family="Helvetica,sans-Serif" font-size="10.00">tests/semantic/testSemantic.cpp</text>
</a>
</g>
</g>
<!-- Node1&#45;&gt;Node5 -->
<g id="edge4" class="edge">
<title>Node1&#45;&gt;Node5</title>
<path fill="none" stroke="midnightblue" d="M262.39,-53.04C291.18,-42.88 331.79,-28.55 357.37,-19.52"/>
<polygon fill="midnightblue" stroke="midnightblue" points="261.01,-49.81 252.74,-56.44 263.34,-56.42 261.01,-49.81"/>
</g>
<!-- Node6 -->
<g id="node6" class="node">
<title>Node6</title>
<g id="a_node6"><a xlink:href="../../dd/de9/test_syntax_8cpp.html" target="_top" xlink:title=" ">
<polygon fill="none" stroke="black" points="479.5,-0.5 479.5,-19.5 615.5,-19.5 615.5,-0.5 479.5,-0.5"/>
<text text-anchor="middle" x="547.5" y="-7.5" font-family="Helvetica,sans-Serif" font-size="10.00">tests/syntax/testSyntax.cpp</text>
</a>
</g>
</g>
<!-- Node1&#45;&gt;Node6 -->
<g id="edge5" class="edge">
<title>Node1&#45;&gt;Node6</title>
<path fill="none" stroke="midnightblue" d="M289.18,-54.73C349.47,-44.52 440.82,-29.06 497.19,-19.52"/>
<polygon fill="midnightblue" stroke="midnightblue" points="288.32,-51.32 279.05,-56.44 289.49,-58.23 288.32,-51.32"/>
</g>
</g>
</svg>
