<?xml version="1.0" encoding="UTF-8" standalone="no"?>
<!DOCTYPE svg PUBLIC "-//W3C//DTD SVG 1.1//EN"
 "http://www.w3.org/Graphics/SVG/1.1/DTD/svg11.dtd">
<!-- Generated by graphviz version 3.0.0 (20220413.0106)
 -->
<!-- Title: SemanticVisitor::getValue Pages: 1 -->
<svg width="458pt" height="66pt"
 viewBox="0.00 0.00 458.00 66.00" xmlns="http://www.w3.org/2000/svg" xmlns:xlink="http://www.w3.org/1999/xlink">
<g id="graph0" class="graph" transform="scale(1 1) rotate(0) translate(4 62)">
<title>SemanticVisitor::getValue</title>
<!-- Node1 -->
<g id="node1" class="node">
<title>Node1</title>
<g id="a_node1"><a xlink:title=" ">
<polygon fill="#bfbfbf" stroke="black" points="322,-19.5 322,-38.5 450,-38.5 450,-19.5 322,-19.5"/>
<text text-anchor="middle" x="386" y="-26.5" font-family="Helvetica,sans-Serif" font-size="10.00">SemanticVisitor::getValue</text>
</a>
</g>
</g>
<!-- Node2 -->
<g id="node2" class="node">
<title>Node2</title>
<g id="a_node2"><a xlink:href="../../dd/dad/class_semantic_visitor.html#a57140fbe5abb6b09a42abc3994e0fa54" target="_top" xlink:title=" ">
<polygon fill="none" stroke="black" points="144,-38.5 144,-57.5 286,-57.5 286,-38.5 144,-38.5"/>
<text text-anchor="middle" x="215" y="-45.5" font-family="Helvetica,sans-Serif" font-size="10.00">SemanticVisitor::getSubType</text>
</a>
</g>
</g>
<!-- Node1&#45;&gt;Node2 -->
<g id="edge1" class="edge">
<title>Node1&#45;&gt;Node2</title>
<path fill="none" stroke="midnightblue" d="M311.4,-37.27C302.97,-38.22 294.39,-39.19 286,-40.13"/>
<polygon fill="midnightblue" stroke="midnightblue" points="312.04,-40.72 321.59,-36.13 311.26,-33.77 312.04,-40.72"/>
</g>
<!-- Node4 -->
<g id="node4" class="node">
<title>Node4</title>
<g id="a_node4"><a xlink:href="../../dd/dad/class_semantic_visitor.html#acec505e2c5fc2f49a80b7a41832fefbf" target="_top" xlink:title=" ">
<polygon fill="none" stroke="black" points="161,-0.5 161,-19.5 269,-19.5 269,-0.5 161,-0.5"/>
<text text-anchor="middle" x="215" y="-7.5" font-family="Helvetica,sans-Serif" font-size="10.00">SemanticVisitor::visit</text>
</a>
</g>
</g>
<!-- Node1&#45;&gt;Node4 -->
<g id="edge3" class="edge">
<title>Node1&#45;&gt;Node4</title>
<path fill="none" stroke="midnightblue" d="M311.37,-20.72C297.21,-19.13 282.63,-17.49 269.26,-15.99"/>
<polygon fill="midnightblue" stroke="midnightblue" points="311.26,-24.23 321.59,-21.87 312.04,-17.28 311.26,-24.23"/>
</g>
<!-- Node3 -->
<g id="node3" class="node">
<title>Node3</title>
<g id="a_node3"><a xlink:href="../../dd/dad/class_semantic_visitor.html#a1bdd0de54198ad56d2b31f946a2dcff6" target="_top" xlink:title=" ">
<polygon fill="none" stroke="black" points="0,-38.5 0,-57.5 108,-57.5 108,-38.5 0,-38.5"/>
<text text-anchor="middle" x="54" y="-45.5" font-family="Helvetica,sans-Serif" font-size="10.00">SemanticVisitor::visit</text>
</a>
</g>
</g>
<!-- Node2&#45;&gt;Node3 -->
<g id="edge2" class="edge">
<title>Node2&#45;&gt;Node3</title>
<path fill="none" stroke="midnightblue" d="M133.65,-48C124.98,-48 116.33,-48 108.11,-48"/>
<polygon fill="midnightblue" stroke="midnightblue" points="133.8,-51.5 143.8,-48 133.8,-44.5 133.8,-51.5"/>
</g>
</g>
</svg>
