<?xml version="1.0" encoding="UTF-8" standalone="no"?>
<!DOCTYPE svg PUBLIC "-//W3C//DTD SVG 1.1//EN"
 "http://www.w3.org/Graphics/SVG/1.1/DTD/svg11.dtd">
<!-- Generated by graphviz version 3.0.0 (20220413.0106)
 -->
<!-- Title: SemanticVisitor::visit Pages: 1 -->
<svg width="761pt" height="287pt"
 viewBox="0.00 0.00 761.00 287.41" xmlns="http://www.w3.org/2000/svg" xmlns:xlink="http://www.w3.org/1999/xlink">
<g id="graph0" class="graph" transform="scale(1 1) rotate(0) translate(4 283.41)">
<title>SemanticVisitor::visit</title>
<!-- Node1 -->
<g id="node1" class="node">
<title>Node1</title>
<g id="a_node1"><a xlink:title=" ">
<polygon fill="#bfbfbf" stroke="black" points="0,-76.5 0,-95.5 108,-95.5 108,-76.5 0,-76.5"/>
<text text-anchor="middle" x="54" y="-83.5" font-family="Helvetica,sans-Serif" font-size="10.00">SemanticVisitor::visit</text>
</a>
</g>
</g>
<!-- Node2 -->
<g id="node2" class="node">
<title>Node2</title>
<g id="a_node2"><a xlink:href="../../dd/dad/class_semantic_visitor.html#aa10747b1413aed0668d09d68cbdb9d5e" target="_top" xlink:title=" ">
<polygon fill="none" stroke="black" points="144,-190.5 144,-209.5 280,-209.5 280,-190.5 144,-190.5"/>
<text text-anchor="middle" x="212" y="-197.5" font-family="Helvetica,sans-Serif" font-size="10.00">SemanticVisitor::getDefined</text>
</a>
</g>
</g>
<!-- Node1&#45;&gt;Node2 -->
<g id="edge1" class="edge">
<title>Node1&#45;&gt;Node2</title>
<path fill="none" stroke="midnightblue" d="M68.03,-95.52C94.81,-115.09 156.25,-159.99 189.19,-184.06"/>
<polygon fill="midnightblue" stroke="midnightblue" points="187.54,-187.19 197.67,-190.26 191.67,-181.54 187.54,-187.19"/>
</g>
<!-- Node5 -->
<g id="node5" class="node">
<title>Node5</title>
<g id="a_node5"><a xlink:href="../../db/dc1/class_token.html#aa5d6826fae7d616e2cfe3e27b5dd594a" target="_top" xlink:title="Возвращает константную ссылку на строковое представление токена">
<polygon fill="none" stroke="black" points="679,-190.5 679,-209.5 753,-209.5 753,-190.5 679,-190.5"/>
<text text-anchor="middle" x="716" y="-197.5" font-family="Helvetica,sans-Serif" font-size="10.00">Token::getStr</text>
</a>
</g>
</g>
<!-- Node1&#45;&gt;Node5 -->
<g id="edge12" class="edge">
<title>Node1&#45;&gt;Node5</title>
<path fill="none" stroke="midnightblue" d="M94.23,-95.56C109.66,-99.01 127.58,-102.63 144,-105 254.07,-120.87 539.43,-102.49 643,-143 665.09,-151.64 685.83,-169.49 699.32,-182.93"/>
<polygon fill="midnightblue" stroke="midnightblue" points="696.91,-185.48 706.38,-190.23 701.94,-180.61 696.91,-185.48"/>
</g>
<!-- Node8 -->
<g id="node8" class="node">
<title>Node8</title>
<g id="a_node8"><a xlink:href="../../dd/dad/class_semantic_visitor.html#a7e2681f9965e7aa34cd55bc5614310d8" target="_top" xlink:title="Создает копию посетителя, которая посещает ptr и возвращает результат">
<polygon fill="none" stroke="black" points="148,-76.5 148,-95.5 276,-95.5 276,-76.5 148,-76.5"/>
<text text-anchor="middle" x="212" y="-83.5" font-family="Helvetica,sans-Serif" font-size="10.00">SemanticVisitor::getValue</text>
</a>
</g>
</g>
<!-- Node1&#45;&gt;Node8 -->
<g id="edge13" class="edge">
<title>Node1&#45;&gt;Node8</title>
<path fill="none" stroke="midnightblue" d="M108.25,-86C117.68,-86 127.66,-86 137.53,-86"/>
<polygon fill="midnightblue" stroke="midnightblue" points="137.76,-89.5 147.76,-86 137.76,-82.5 137.76,-89.5"/>
</g>
<!-- Node10 -->
<g id="node10" class="node">
<title>Node10</title>
<g id="a_node10"><a xlink:href="../../db/d0e/sup_8hpp.html#ae7d62ca130413d4c96863327c1af81a4" target="_top" xlink:title="Возвращает истину, если value находится среди значений cont.">
<polygon fill="none" stroke="black" points="196,-38.5 196,-57.5 228,-57.5 228,-38.5 196,-38.5"/>
<text text-anchor="middle" x="212" y="-45.5" font-family="Helvetica,sans-Serif" font-size="10.00">isIn</text>
</a>
</g>
</g>
<!-- Node1&#45;&gt;Node10 -->
<g id="edge15" class="edge">
<title>Node1&#45;&gt;Node10</title>
<path fill="none" stroke="midnightblue" d="M94.37,-76.41C122.99,-69.44 160.89,-60.21 185.6,-54.19"/>
<polygon fill="midnightblue" stroke="midnightblue" points="186.75,-57.51 195.63,-51.74 185.09,-50.71 186.75,-57.51"/>
</g>
<!-- Node11 -->
<g id="node11" class="node">
<title>Node11</title>
<g id="a_node11"><a xlink:href="../../dd/dad/class_semantic_visitor.html#a875ded9e50d07a91b08f8b0343b8f0f8" target="_top" xlink:title="Аналог return для посетителя">
<polygon fill="none" stroke="black" points="152.5,-0.5 152.5,-19.5 271.5,-19.5 271.5,-0.5 152.5,-0.5"/>
<text text-anchor="middle" x="212" y="-7.5" font-family="Helvetica,sans-Serif" font-size="10.00">SemanticVisitor::Return</text>
</a>
</g>
</g>
<!-- Node1&#45;&gt;Node11 -->
<g id="edge16" class="edge">
<title>Node1&#45;&gt;Node11</title>
<path fill="none" stroke="midnightblue" d="M67.3,-76.45C83.88,-63.98 114.72,-42.18 144,-29 149.1,-26.7 154.54,-24.62 160.04,-22.74"/>
<polygon fill="midnightblue" stroke="midnightblue" points="161.47,-25.96 169.93,-19.59 159.34,-19.29 161.47,-25.96"/>
</g>
<!-- Node3 -->
<g id="node3" class="node">
<title>Node3</title>
<g id="a_node3"><a xlink:href="../../dd/dad/class_semantic_visitor.html#a44b32ee220302ba2d55c0c36a191a51f" target="_top" xlink:title=" ">
<polygon fill="none" stroke="black" points="316,-190.5 316,-209.5 465,-209.5 465,-190.5 316,-190.5"/>
<text text-anchor="middle" x="390.5" y="-197.5" font-family="Helvetica,sans-Serif" font-size="10.00">SemanticVisitor::checkDefined</text>
</a>
</g>
</g>
<!-- Node2&#45;&gt;Node3 -->
<g id="edge2" class="edge">
<title>Node2&#45;&gt;Node3</title>
<path fill="none" stroke="midnightblue" d="M280.23,-200C288.63,-200 297.31,-200 305.92,-200"/>
<polygon fill="midnightblue" stroke="midnightblue" points="305.98,-203.5 315.98,-200 305.98,-196.5 305.98,-203.5"/>
</g>
<!-- Node2&#45;&gt;Node5 -->
<g id="edge11" class="edge">
<title>Node2&#45;&gt;Node5</title>
<path fill="none" stroke="midnightblue" d="M225.43,-209.66C243.93,-223.36 280.38,-247.8 316,-257 456.91,-293.39 504.02,-283.17 643,-240 660.86,-234.45 679.27,-224.13 693,-215.36"/>
<polygon fill="midnightblue" stroke="midnightblue" points="695.28,-218.05 701.7,-209.62 691.42,-212.21 695.28,-218.05"/>
</g>
<!-- Node6 -->
<g id="node6" class="node">
<title>Node6</title>
<g id="a_node6"><a xlink:href="../../dd/dad/class_semantic_visitor.html#a77366aa5cb857ad347b0e487287f5d99" target="_top" xlink:title=" ">
<polygon fill="none" stroke="black" points="506.5,-152.5 506.5,-171.5 637.5,-171.5 637.5,-152.5 506.5,-152.5"/>
<text text-anchor="middle" x="572" y="-159.5" font-family="Helvetica,sans-Serif" font-size="10.00">SemanticVisitor::checkVar</text>
</a>
</g>
</g>
<!-- Node2&#45;&gt;Node6 -->
<g id="edge7" class="edge">
<title>Node2&#45;&gt;Node6</title>
<path fill="none" stroke="midnightblue" d="M258.72,-190.47C276.53,-187.05 297.15,-183.43 316,-181 376.34,-173.21 445.17,-168.31 496.09,-165.45"/>
<polygon fill="midnightblue" stroke="midnightblue" points="496.56,-168.93 506.35,-164.88 496.17,-161.94 496.56,-168.93"/>
</g>
<!-- Node7 -->
<g id="node7" class="node">
<title>Node7</title>
<g id="a_node7"><a xlink:href="../../dd/dad/class_semantic_visitor.html#a57d5d38a8fe988e01d4c51fd06e01037" target="_top" xlink:title=" ">
<polygon fill="none" stroke="black" points="326,-228.5 326,-247.5 455,-247.5 455,-228.5 326,-228.5"/>
<text text-anchor="middle" x="390.5" y="-235.5" font-family="Helvetica,sans-Serif" font-size="10.00">SemanticVisitor::getConst</text>
</a>
</g>
</g>
<!-- Node2&#45;&gt;Node7 -->
<g id="edge8" class="edge">
<title>Node2&#45;&gt;Node7</title>
<path fill="none" stroke="midnightblue" d="M257.54,-209.59C281.14,-214.67 310.33,-220.96 335.25,-226.32"/>
<polygon fill="midnightblue" stroke="midnightblue" points="334.77,-229.8 345.28,-228.48 336.24,-222.95 334.77,-229.8"/>
</g>
<!-- Node4 -->
<g id="node4" class="node">
<title>Node4</title>
<g id="a_node4"><a xlink:href="../../dd/dad/class_semantic_visitor.html#a2d725cf78ec050f19b089c651ae2eca0" target="_top" xlink:title=" ">
<polygon fill="none" stroke="black" points="501,-190.5 501,-209.5 643,-209.5 643,-190.5 501,-190.5"/>
<text text-anchor="middle" x="572" y="-197.5" font-family="Helvetica,sans-Serif" font-size="10.00">SemanticVisitor::checkConst</text>
</a>
</g>
</g>
<!-- Node3&#45;&gt;Node4 -->
<g id="edge3" class="edge">
<title>Node3&#45;&gt;Node4</title>
<path fill="none" stroke="midnightblue" d="M465.03,-200C473.42,-200 482.02,-200 490.5,-200"/>
<polygon fill="midnightblue" stroke="midnightblue" points="490.77,-203.5 500.77,-200 490.77,-196.5 490.77,-203.5"/>
</g>
<!-- Node3&#45;&gt;Node6 -->
<g id="edge5" class="edge">
<title>Node3&#45;&gt;Node6</title>
<path fill="none" stroke="midnightblue" d="M436.8,-190.41C460.91,-185.31 490.75,-178.99 516.17,-173.61"/>
<polygon fill="midnightblue" stroke="midnightblue" points="516.97,-177.02 526.03,-171.52 515.52,-170.17 516.97,-177.02"/>
</g>
<!-- Node4&#45;&gt;Node5 -->
<g id="edge4" class="edge">
<title>Node4&#45;&gt;Node5</title>
<path fill="none" stroke="midnightblue" d="M643.17,-200C651.81,-200 660.48,-200 668.64,-200"/>
<polygon fill="midnightblue" stroke="midnightblue" points="668.68,-203.5 678.68,-200 668.68,-196.5 668.68,-203.5"/>
</g>
<!-- Node6&#45;&gt;Node5 -->
<g id="edge6" class="edge">
<title>Node6&#45;&gt;Node5</title>
<path fill="none" stroke="midnightblue" d="M608.83,-171.59C627.16,-176.49 649.68,-182.52 669.25,-187.76"/>
<polygon fill="midnightblue" stroke="midnightblue" points="668.61,-191.21 679.18,-190.41 670.42,-184.45 668.61,-191.21"/>
</g>
<!-- Node7&#45;&gt;Node4 -->
<g id="edge9" class="edge">
<title>Node7&#45;&gt;Node4</title>
<path fill="none" stroke="midnightblue" d="M436.8,-228.41C460.91,-223.31 490.75,-216.99 516.17,-211.61"/>
<polygon fill="midnightblue" stroke="midnightblue" points="516.97,-215.02 526.03,-209.52 515.52,-208.17 516.97,-215.02"/>
</g>
<!-- Node7&#45;&gt;Node5 -->
<g id="edge10" class="edge">
<title>Node7&#45;&gt;Node5</title>
<path fill="none" stroke="midnightblue" d="M455.2,-236.4C506.27,-234.34 579.63,-229.66 643,-219 653.14,-217.29 663.92,-214.82 673.97,-212.21"/>
<polygon fill="midnightblue" stroke="midnightblue" points="674.98,-215.56 683.73,-209.58 673.16,-208.8 674.98,-215.56"/>
</g>
<!-- Node9 -->
<g id="node9" class="node">
<title>Node9</title>
<g id="a_node9"><a xlink:href="../../da/dc8/class_a_s_t.html#a2be6b7f1a62e69bf7c408a314cd09a87" target="_top" xlink:title=" ">
<polygon fill="none" stroke="black" points="355.5,-76.5 355.5,-95.5 425.5,-95.5 425.5,-76.5 355.5,-76.5"/>
<text text-anchor="middle" x="390.5" y="-83.5" font-family="Helvetica,sans-Serif" font-size="10.00">AST::accept</text>
</a>
</g>
</g>
<!-- Node8&#45;&gt;Node9 -->
<g id="edge14" class="edge">
<title>Node8&#45;&gt;Node9</title>
<path fill="none" stroke="midnightblue" d="M276.22,-86C299.07,-86 324.36,-86 345.23,-86"/>
<polygon fill="midnightblue" stroke="midnightblue" points="345.4,-89.5 355.4,-86 345.4,-82.5 345.4,-89.5"/>
</g>
</g>
</svg>
