<?xml version="1.0" encoding="UTF-8" standalone="no"?>
<!DOCTYPE svg PUBLIC "-//W3C//DTD SVG 1.1//EN"
 "http://www.w3.org/Graphics/SVG/1.1/DTD/svg11.dtd">
<!-- Generated by graphviz version 3.0.0 (20220413.0106)
 -->
<!-- Title: SemanticVisitor::checkDefined Pages: 1 -->
<svg width="445pt" height="66pt"
 viewBox="0.00 0.00 445.00 66.00" xmlns="http://www.w3.org/2000/svg" xmlns:xlink="http://www.w3.org/1999/xlink">
<g id="graph0" class="graph" transform="scale(1 1) rotate(0) translate(4 62)">
<title>SemanticVisitor::checkDefined</title>
<!-- Node1 -->
<g id="node1" class="node">
<title>Node1</title>
<g id="a_node1"><a xlink:title=" ">
<polygon fill="#bfbfbf" stroke="black" points="0,-19.5 0,-38.5 149,-38.5 149,-19.5 0,-19.5"/>
<text text-anchor="middle" x="74.5" y="-26.5" font-family="Helvetica,sans-Serif" font-size="10.00">SemanticVisitor::checkDefined</text>
</a>
</g>
</g>
<!-- Node2 -->
<g id="node2" class="node">
<title>Node2</title>
<g id="a_node2"><a xlink:href="../../dd/dad/class_semantic_visitor.html#a2d725cf78ec050f19b089c651ae2eca0" target="_top" xlink:title=" ">
<polygon fill="none" stroke="black" points="185,-38.5 185,-57.5 327,-57.5 327,-38.5 185,-38.5"/>
<text text-anchor="middle" x="256" y="-45.5" font-family="Helvetica,sans-Serif" font-size="10.00">SemanticVisitor::checkConst</text>
</a>
</g>
</g>
<!-- Node1&#45;&gt;Node2 -->
<g id="edge1" class="edge">
<title>Node1&#45;&gt;Node2</title>
<path fill="none" stroke="midnightblue" d="M149.03,-36.78C157.52,-37.68 166.21,-38.6 174.78,-39.51"/>
<polygon fill="midnightblue" stroke="midnightblue" points="174.46,-42.99 184.77,-40.57 175.2,-36.03 174.46,-42.99"/>
</g>
<!-- Node4 -->
<g id="node4" class="node">
<title>Node4</title>
<g id="a_node4"><a xlink:href="../../dd/dad/class_semantic_visitor.html#a77366aa5cb857ad347b0e487287f5d99" target="_top" xlink:title=" ">
<polygon fill="none" stroke="black" points="190.5,-0.5 190.5,-19.5 321.5,-19.5 321.5,-0.5 190.5,-0.5"/>
<text text-anchor="middle" x="256" y="-7.5" font-family="Helvetica,sans-Serif" font-size="10.00">SemanticVisitor::checkVar</text>
</a>
</g>
</g>
<!-- Node1&#45;&gt;Node4 -->
<g id="edge3" class="edge">
<title>Node1&#45;&gt;Node4</title>
<path fill="none" stroke="midnightblue" d="M149.03,-21.22C159.34,-20.13 169.95,-19 180.28,-17.91"/>
<polygon fill="midnightblue" stroke="midnightblue" points="180.92,-21.36 190.5,-16.83 180.19,-14.4 180.92,-21.36"/>
</g>
<!-- Node3 -->
<g id="node3" class="node">
<title>Node3</title>
<g id="a_node3"><a xlink:href="../../db/dc1/class_token.html#aa5d6826fae7d616e2cfe3e27b5dd594a" target="_top" xlink:title="Возвращает константную ссылку на строковое представление токена">
<polygon fill="none" stroke="black" points="363,-19.5 363,-38.5 437,-38.5 437,-19.5 363,-19.5"/>
<text text-anchor="middle" x="400" y="-26.5" font-family="Helvetica,sans-Serif" font-size="10.00">Token::getStr</text>
</a>
</g>
</g>
<!-- Node2&#45;&gt;Node3 -->
<g id="edge2" class="edge">
<title>Node2&#45;&gt;Node3</title>
<path fill="none" stroke="midnightblue" d="M327.17,-38.61C335.81,-37.45 344.48,-36.3 352.64,-35.2"/>
<polygon fill="midnightblue" stroke="midnightblue" points="353.24,-38.65 362.68,-33.86 352.31,-31.72 353.24,-38.65"/>
</g>
<!-- Node4&#45;&gt;Node3 -->
<g id="edge4" class="edge">
<title>Node4&#45;&gt;Node3</title>
<path fill="none" stroke="midnightblue" d="M321.77,-18.67C332.19,-20.06 342.79,-21.48 352.67,-22.8"/>
<polygon fill="midnightblue" stroke="midnightblue" points="352.29,-26.28 362.66,-24.14 353.21,-19.34 352.29,-26.28"/>
</g>
</g>
</svg>
