<?xml version="1.0" encoding="UTF-8" standalone="no"?>
<!DOCTYPE svg PUBLIC "-//W3C//DTD SVG 1.1//EN"
 "http://www.w3.org/Graphics/SVG/1.1/DTD/svg11.dtd">
<!-- Generated by graphviz version 3.0.0 (20220413.0106)
 -->
<!-- Title: SemanticVisitor::visit Pages: 1 -->
<svg width="564pt" height="142pt"
 viewBox="0.00 0.00 564.00 142.00" xmlns="http://www.w3.org/2000/svg" xmlns:xlink="http://www.w3.org/1999/xlink">
<g id="graph0" class="graph" transform="scale(1 1) rotate(0) translate(4 138)">
<title>SemanticVisitor::visit</title>
<!-- Node1 -->
<g id="node1" class="node">
<title>Node1</title>
<g id="a_node1"><a xlink:title=" ">
<polygon fill="#bfbfbf" stroke="black" points="0,-38.5 0,-57.5 108,-57.5 108,-38.5 0,-38.5"/>
<text text-anchor="middle" x="54" y="-45.5" font-family="Helvetica,sans-Serif" font-size="10.00">SemanticVisitor::visit</text>
</a>
</g>
</g>
<!-- Node2 -->
<g id="node2" class="node">
<title>Node2</title>
<g id="a_node2"><a xlink:href="../../dd/dad/class_semantic_visitor.html#ae5a2583ca3d8f7b290d590a80a176877" target="_top" xlink:title=" ">
<polygon fill="none" stroke="black" points="145.5,-76.5 145.5,-95.5 270.5,-95.5 270.5,-76.5 145.5,-76.5"/>
<text text-anchor="middle" x="208" y="-83.5" font-family="Helvetica,sans-Serif" font-size="10.00">SemanticVisitor::getFunc</text>
</a>
</g>
</g>
<!-- Node1&#45;&gt;Node2 -->
<g id="edge1" class="edge">
<title>Node1&#45;&gt;Node2</title>
<path fill="none" stroke="midnightblue" d="M93.36,-57.59C113.32,-62.58 137.93,-68.73 159.13,-74.03"/>
<polygon fill="midnightblue" stroke="midnightblue" points="158.37,-77.45 168.92,-76.48 160.07,-70.66 158.37,-77.45"/>
</g>
<!-- Node5 -->
<g id="node5" class="node">
<title>Node5</title>
<g id="a_node5"><a xlink:href="../../dd/dad/class_semantic_visitor.html#a7e2681f9965e7aa34cd55bc5614310d8" target="_top" xlink:title=" ">
<polygon fill="none" stroke="black" points="144,-38.5 144,-57.5 272,-57.5 272,-38.5 144,-38.5"/>
<text text-anchor="middle" x="208" y="-45.5" font-family="Helvetica,sans-Serif" font-size="10.00">SemanticVisitor::getValue</text>
</a>
</g>
</g>
<!-- Node1&#45;&gt;Node5 -->
<g id="edge5" class="edge">
<title>Node1&#45;&gt;Node5</title>
<path fill="none" stroke="midnightblue" d="M108.16,-48C116.47,-48 125.18,-48 133.84,-48"/>
<polygon fill="midnightblue" stroke="midnightblue" points="133.95,-51.5 143.95,-48 133.95,-44.5 133.95,-51.5"/>
</g>
<!-- Node7 -->
<g id="node7" class="node">
<title>Node7</title>
<g id="a_node7"><a xlink:href="../../dd/dad/class_semantic_visitor.html#a875ded9e50d07a91b08f8b0343b8f0f8" target="_top" xlink:title="Аналог return для посетителя, т.к. сигнатура функции предполагает возвращение void.">
<polygon fill="none" stroke="black" points="148.5,-0.5 148.5,-19.5 267.5,-19.5 267.5,-0.5 148.5,-0.5"/>
<text text-anchor="middle" x="208" y="-7.5" font-family="Helvetica,sans-Serif" font-size="10.00">SemanticVisitor::Return</text>
</a>
</g>
</g>
<!-- Node1&#45;&gt;Node7 -->
<g id="edge7" class="edge">
<title>Node1&#45;&gt;Node7</title>
<path fill="none" stroke="midnightblue" d="M93.36,-38.41C113.32,-33.42 137.93,-27.27 159.13,-21.97"/>
<polygon fill="midnightblue" stroke="midnightblue" points="160.07,-25.34 168.92,-19.52 158.37,-18.55 160.07,-25.34"/>
</g>
<!-- Node3 -->
<g id="node3" class="node">
<title>Node3</title>
<g id="a_node3"><a xlink:href="../../dd/dad/class_semantic_visitor.html#a2a1ffedc7dc1d345d4020cabd39d23e0" target="_top" xlink:title=" ">
<polygon fill="none" stroke="black" points="308,-114.5 308,-133.5 446,-133.5 446,-114.5 308,-114.5"/>
<text text-anchor="middle" x="377" y="-121.5" font-family="Helvetica,sans-Serif" font-size="10.00">SemanticVisitor::checkFunc</text>
</a>
</g>
</g>
<!-- Node2&#45;&gt;Node3 -->
<g id="edge2" class="edge">
<title>Node2&#45;&gt;Node3</title>
<path fill="none" stroke="midnightblue" d="M251.14,-95.59C273.38,-100.65 300.85,-106.9 324.36,-112.25"/>
<polygon fill="midnightblue" stroke="midnightblue" points="323.63,-115.67 334.16,-114.48 325.19,-108.85 323.63,-115.67"/>
</g>
<!-- Node4 -->
<g id="node4" class="node">
<title>Node4</title>
<g id="a_node4"><a xlink:href="../../db/dc1/class_token.html#aa5d6826fae7d616e2cfe3e27b5dd594a" target="_top" xlink:title="Возвращает константную ссылку на строковое представление токена">
<polygon fill="none" stroke="black" points="482,-95.5 482,-114.5 556,-114.5 556,-95.5 482,-95.5"/>
<text text-anchor="middle" x="519" y="-102.5" font-family="Helvetica,sans-Serif" font-size="10.00">Token::getStr</text>
</a>
</g>
</g>
<!-- Node2&#45;&gt;Node4 -->
<g id="edge4" class="edge">
<title>Node2&#45;&gt;Node4</title>
<path fill="none" stroke="midnightblue" d="M270.79,-89.8C330.06,-93.44 418.23,-98.87 471.69,-102.15"/>
<polygon fill="midnightblue" stroke="midnightblue" points="471.71,-105.66 481.91,-102.78 472.14,-98.67 471.71,-105.66"/>
</g>
<!-- Node3&#45;&gt;Node4 -->
<g id="edge3" class="edge">
<title>Node3&#45;&gt;Node4</title>
<path fill="none" stroke="midnightblue" d="M446.36,-114.72C454.95,-113.56 463.57,-112.39 471.71,-111.28"/>
<polygon fill="midnightblue" stroke="midnightblue" points="472.28,-114.74 481.72,-109.92 471.34,-107.8 472.28,-114.74"/>
</g>
<!-- Node6 -->
<g id="node6" class="node">
<title>Node6</title>
<g id="a_node6"><a xlink:href="../../da/dc8/class_a_s_t.html#a2be6b7f1a62e69bf7c408a314cd09a87" target="_top" xlink:title=" ">
<polygon fill="none" stroke="black" points="342,-38.5 342,-57.5 412,-57.5 412,-38.5 342,-38.5"/>
<text text-anchor="middle" x="377" y="-45.5" font-family="Helvetica,sans-Serif" font-size="10.00">AST::accept</text>
</a>
</g>
</g>
<!-- Node5&#45;&gt;Node6 -->
<g id="edge6" class="edge">
<title>Node5&#45;&gt;Node6</title>
<path fill="none" stroke="midnightblue" d="M272.14,-48C291.99,-48 313.49,-48 331.75,-48"/>
<polygon fill="midnightblue" stroke="midnightblue" points="331.8,-51.5 341.8,-48 331.8,-44.5 331.8,-51.5"/>
</g>
</g>
</svg>
