<?xml version="1.0" encoding="UTF-8" standalone="no"?>
<!DOCTYPE svg PUBLIC "-//W3C//DTD SVG 1.1//EN"
 "http://www.w3.org/Graphics/SVG/1.1/DTD/svg11.dtd">
<!-- Generated by graphviz version 3.0.0 (20220413.0106)
 -->
<!-- Title: SemanticVisitor::visit Pages: 1 -->
<svg width="389pt" height="142pt"
 viewBox="0.00 0.00 389.00 142.00" xmlns="http://www.w3.org/2000/svg" xmlns:xlink="http://www.w3.org/1999/xlink">
<g id="graph0" class="graph" transform="scale(1 1) rotate(0) translate(4 138)">
<title>SemanticVisitor::visit</title>
<!-- Node1 -->
<g id="node1" class="node">
<title>Node1</title>
<g id="a_node1"><a xlink:title=" ">
<polygon fill="#bfbfbf" stroke="black" points="0,-57.5 0,-76.5 108,-76.5 108,-57.5 0,-57.5"/>
<text text-anchor="middle" x="54" y="-64.5" font-family="Helvetica,sans-Serif" font-size="10.00">SemanticVisitor::visit</text>
</a>
</g>
</g>
<!-- Node2 -->
<g id="node2" class="node">
<title>Node2</title>
<g id="a_node2"><a xlink:href="../../d0/d11/class_i_token.html#ac7f0a800d7a9e8608bab0360c76d735a" target="_top" xlink:title="Получение типа токена">
<polygon fill="none" stroke="black" points="165,-114.5 165,-133.5 251,-133.5 251,-114.5 165,-114.5"/>
<text text-anchor="middle" x="208" y="-121.5" font-family="Helvetica,sans-Serif" font-size="10.00">IToken::getType</text>
</a>
</g>
</g>
<!-- Node1&#45;&gt;Node2 -->
<g id="edge1" class="edge">
<title>Node1&#45;&gt;Node2</title>
<path fill="none" stroke="midnightblue" d="M75.6,-76.57C93.47,-84.68 120.15,-96.34 144,-105 150.06,-107.2 156.51,-109.35 162.88,-111.37"/>
<polygon fill="midnightblue" stroke="midnightblue" points="162.18,-114.82 172.77,-114.43 164.25,-108.13 162.18,-114.82"/>
</g>
<!-- Node3 -->
<g id="node3" class="node">
<title>Node3</title>
<g id="a_node3"><a xlink:href="../../dd/dad/class_semantic_visitor.html#aa68ccc7853fd99ddb5664502ecc7754f" target="_top" xlink:title="Создает копию посетителя, которая посещает ptr и возвращает результат">
<polygon fill="none" stroke="black" points="144,-76.5 144,-95.5 272,-95.5 272,-76.5 144,-76.5"/>
<text text-anchor="middle" x="208" y="-83.5" font-family="Helvetica,sans-Serif" font-size="10.00">SemanticVisitor::getValue</text>
</a>
</g>
</g>
<!-- Node1&#45;&gt;Node3 -->
<g id="edge2" class="edge">
<title>Node1&#45;&gt;Node3</title>
<path fill="none" stroke="midnightblue" d="M108.16,-73.65C116.47,-74.68 125.18,-75.77 133.84,-76.85"/>
<polygon fill="midnightblue" stroke="midnightblue" points="133.59,-80.35 143.95,-78.12 134.46,-73.41 133.59,-80.35"/>
</g>
<!-- Node5 -->
<g id="node5" class="node">
<title>Node5</title>
<g id="a_node5"><a xlink:href="../../d3/da8/sup_algs_8hpp.html#ae7d62ca130413d4c96863327c1af81a4" target="_top" xlink:title="Возвращает истину, если value находится среди значений cont.">
<polygon fill="none" stroke="black" points="192,-38.5 192,-57.5 224,-57.5 224,-38.5 192,-38.5"/>
<text text-anchor="middle" x="208" y="-45.5" font-family="Helvetica,sans-Serif" font-size="10.00">isIn</text>
</a>
</g>
</g>
<!-- Node1&#45;&gt;Node5 -->
<g id="edge4" class="edge">
<title>Node1&#45;&gt;Node5</title>
<path fill="none" stroke="midnightblue" d="M108.16,-60.35C133.16,-57.23 161.78,-53.65 181.77,-51.15"/>
<polygon fill="midnightblue" stroke="midnightblue" points="182.42,-54.6 191.91,-49.89 181.55,-47.65 182.42,-54.6"/>
</g>
<!-- Node6 -->
<g id="node6" class="node">
<title>Node6</title>
<g id="a_node6"><a xlink:href="../../dd/dad/class_semantic_visitor.html#a875ded9e50d07a91b08f8b0343b8f0f8" target="_top" xlink:title="Аналог return для посетителя">
<polygon fill="none" stroke="black" points="148.5,-0.5 148.5,-19.5 267.5,-19.5 267.5,-0.5 148.5,-0.5"/>
<text text-anchor="middle" x="208" y="-7.5" font-family="Helvetica,sans-Serif" font-size="10.00">SemanticVisitor::Return</text>
</a>
</g>
</g>
<!-- Node1&#45;&gt;Node6 -->
<g id="edge5" class="edge">
<title>Node1&#45;&gt;Node6</title>
<path fill="none" stroke="midnightblue" d="M75.6,-57.43C93.47,-49.32 120.15,-37.66 144,-29 150.06,-26.8 156.51,-24.65 162.88,-22.63"/>
<polygon fill="midnightblue" stroke="midnightblue" points="164.25,-25.87 172.77,-19.57 162.18,-19.18 164.25,-25.87"/>
</g>
<!-- Node4 -->
<g id="node4" class="node">
<title>Node4</title>
<g id="a_node4"><a xlink:href="../../d3/d96/class_i_a_s_t.html#a86a33b4e7990941edb1817c708243a7c" target="_top" xlink:title=" ">
<polygon fill="none" stroke="black" points="308,-76.5 308,-95.5 381,-95.5 381,-76.5 308,-76.5"/>
<text text-anchor="middle" x="344.5" y="-83.5" font-family="Helvetica,sans-Serif" font-size="10.00">IAST::accept</text>
</a>
</g>
</g>
<!-- Node3&#45;&gt;Node4 -->
<g id="edge3" class="edge">
<title>Node3&#45;&gt;Node4</title>
<path fill="none" stroke="midnightblue" d="M272.31,-86C280.93,-86 289.64,-86 297.87,-86"/>
<polygon fill="midnightblue" stroke="midnightblue" points="297.99,-89.5 307.99,-86 297.99,-82.5 297.99,-89.5"/>
</g>
</g>
</svg>
