<?xml version="1.0" encoding="UTF-8" standalone="no"?>
<!DOCTYPE svg PUBLIC "-//W3C//DTD SVG 1.1//EN"
 "http://www.w3.org/Graphics/SVG/1.1/DTD/svg11.dtd">
<!-- Generated by graphviz version 3.0.0 (20220413.0106)
 -->
<!-- Title: SemanticVisitor::getConst Pages: 1 -->
<svg width="425pt" height="47pt"
 viewBox="0.00 0.00 425.00 47.00" xmlns="http://www.w3.org/2000/svg" xmlns:xlink="http://www.w3.org/1999/xlink">
<g id="graph0" class="graph" transform="scale(1 1) rotate(0) translate(4 43)">
<title>SemanticVisitor::getConst</title>
<!-- Node1 -->
<g id="node1" class="node">
<title>Node1</title>
<g id="a_node1"><a xlink:title=" ">
<polygon fill="#bfbfbf" stroke="black" points="0,-0.5 0,-19.5 129,-19.5 129,-0.5 0,-0.5"/>
<text text-anchor="middle" x="64.5" y="-7.5" font-family="Helvetica,sans-Serif" font-size="10.00">SemanticVisitor::getConst</text>
</a>
</g>
</g>
<!-- Node2 -->
<g id="node2" class="node">
<title>Node2</title>
<g id="a_node2"><a xlink:href="../../dd/dad/class_semantic_visitor.html#a2d725cf78ec050f19b089c651ae2eca0" target="_top" xlink:title=" ">
<polygon fill="none" stroke="black" points="165,-19.5 165,-38.5 307,-38.5 307,-19.5 165,-19.5"/>
<text text-anchor="middle" x="236" y="-26.5" font-family="Helvetica,sans-Serif" font-size="10.00">SemanticVisitor::checkConst</text>
</a>
</g>
</g>
<!-- Node1&#45;&gt;Node2 -->
<g id="edge1" class="edge">
<title>Node1&#45;&gt;Node2</title>
<path fill="none" stroke="midnightblue" d="M129.1,-17.13C137.47,-18.07 146.14,-19.04 154.74,-20"/>
<polygon fill="midnightblue" stroke="midnightblue" points="154.46,-23.49 164.79,-21.13 155.24,-16.54 154.46,-23.49"/>
</g>
<!-- Node3 -->
<g id="node3" class="node">
<title>Node3</title>
<g id="a_node3"><a xlink:href="../../db/dc1/class_token.html#aa5d6826fae7d616e2cfe3e27b5dd594a" target="_top" xlink:title="Возвращает константную ссылку на строковое представление токена">
<polygon fill="none" stroke="black" points="343,-0.5 343,-19.5 417,-19.5 417,-0.5 343,-0.5"/>
<text text-anchor="middle" x="380" y="-7.5" font-family="Helvetica,sans-Serif" font-size="10.00">Token::getStr</text>
</a>
</g>
</g>
<!-- Node1&#45;&gt;Node3 -->
<g id="edge3" class="edge">
<title>Node1&#45;&gt;Node3</title>
<path fill="none" stroke="midnightblue" d="M129.32,-10C189.57,-10 278.5,-10 332.37,-10"/>
<polygon fill="midnightblue" stroke="midnightblue" points="332.66,-13.5 342.66,-10 332.66,-6.5 332.66,-13.5"/>
</g>
<!-- Node2&#45;&gt;Node3 -->
<g id="edge2" class="edge">
<title>Node2&#45;&gt;Node3</title>
<path fill="none" stroke="midnightblue" d="M307.17,-19.61C315.81,-18.45 324.48,-17.3 332.64,-16.2"/>
<polygon fill="midnightblue" stroke="midnightblue" points="333.24,-19.65 342.68,-14.86 332.31,-12.72 333.24,-19.65"/>
</g>
</g>
</svg>
