<?xml version="1.0" encoding="UTF-8" standalone="no"?>
<!DOCTYPE svg PUBLIC "-//W3C//DTD SVG 1.1//EN"
 "http://www.w3.org/Graphics/SVG/1.1/DTD/svg11.dtd">
<!-- Generated by graphviz version 3.0.0 (20220413.0106)
 -->
<!-- Title: SemanticVisitor::getDefined Pages: 1 -->
<svg width="617pt" height="83pt"
 viewBox="0.00 0.00 617.00 82.98" xmlns="http://www.w3.org/2000/svg" xmlns:xlink="http://www.w3.org/1999/xlink">
<g id="graph0" class="graph" transform="scale(1 1) rotate(0) translate(4 78.98)">
<title>SemanticVisitor::getDefined</title>
<!-- Node1 -->
<g id="node1" class="node">
<title>Node1</title>
<g id="a_node1"><a xlink:title=" ">
<polygon fill="#bfbfbf" stroke="black" points="0,-17.48 0,-36.48 136,-36.48 136,-17.48 0,-17.48"/>
<text text-anchor="middle" x="68" y="-24.48" font-family="Helvetica,sans-Serif" font-size="10.00">SemanticVisitor::getDefined</text>
</a>
</g>
</g>
<!-- Node2 -->
<g id="node2" class="node">
<title>Node2</title>
<g id="a_node2"><a xlink:href="../../dd/dad/class_semantic_visitor.html#a44b32ee220302ba2d55c0c36a191a51f" target="_top" xlink:title=" ">
<polygon fill="none" stroke="black" points="172,-55.48 172,-74.48 321,-74.48 321,-55.48 172,-55.48"/>
<text text-anchor="middle" x="246.5" y="-62.48" font-family="Helvetica,sans-Serif" font-size="10.00">SemanticVisitor::checkDefined</text>
</a>
</g>
</g>
<!-- Node1&#45;&gt;Node2 -->
<g id="edge1" class="edge">
<title>Node1&#45;&gt;Node2</title>
<path fill="none" stroke="midnightblue" d="M113.54,-36.57C137.14,-41.65 166.33,-47.93 191.25,-53.3"/>
<polygon fill="midnightblue" stroke="midnightblue" points="190.77,-56.77 201.28,-55.46 192.24,-49.93 190.77,-56.77"/>
</g>
<!-- Node4 -->
<g id="node4" class="node">
<title>Node4</title>
<g id="a_node4"><a xlink:href="../../db/dc1/class_token.html#aa5d6826fae7d616e2cfe3e27b5dd594a" target="_top" xlink:title="Возвращает константную ссылку на строковое представление токена">
<polygon fill="none" stroke="black" points="535,-17.48 535,-36.48 609,-36.48 609,-17.48 535,-17.48"/>
<text text-anchor="middle" x="572" y="-24.48" font-family="Helvetica,sans-Serif" font-size="10.00">Token::getStr</text>
</a>
</g>
</g>
<!-- Node1&#45;&gt;Node4 -->
<g id="edge7" class="edge">
<title>Node1&#45;&gt;Node4</title>
<path fill="none" stroke="midnightblue" d="M131.6,-17.47C215.56,-6.25 369.13,8.87 499,-7.98 509.88,-9.39 521.46,-11.95 532.08,-14.75"/>
<polygon fill="midnightblue" stroke="midnightblue" points="531.34,-18.18 541.91,-17.47 533.21,-11.43 531.34,-18.18"/>
</g>
<!-- Node5 -->
<g id="node5" class="node">
<title>Node5</title>
<g id="a_node5"><a xlink:href="../../dd/dad/class_semantic_visitor.html#a77366aa5cb857ad347b0e487287f5d99" target="_top" xlink:title=" ">
<polygon fill="none" stroke="black" points="362.5,-17.48 362.5,-36.48 493.5,-36.48 493.5,-17.48 362.5,-17.48"/>
<text text-anchor="middle" x="428" y="-24.48" font-family="Helvetica,sans-Serif" font-size="10.00">SemanticVisitor::checkVar</text>
</a>
</g>
</g>
<!-- Node1&#45;&gt;Node5 -->
<g id="edge6" class="edge">
<title>Node1&#45;&gt;Node5</title>
<path fill="none" stroke="midnightblue" d="M136.34,-26.98C197.73,-26.98 288.31,-26.98 352,-26.98"/>
<polygon fill="midnightblue" stroke="midnightblue" points="352.38,-30.48 362.38,-26.98 352.38,-23.48 352.38,-30.48"/>
</g>
<!-- Node3 -->
<g id="node3" class="node">
<title>Node3</title>
<g id="a_node3"><a xlink:href="../../dd/dad/class_semantic_visitor.html#a2d725cf78ec050f19b089c651ae2eca0" target="_top" xlink:title=" ">
<polygon fill="none" stroke="black" points="357,-55.48 357,-74.48 499,-74.48 499,-55.48 357,-55.48"/>
<text text-anchor="middle" x="428" y="-62.48" font-family="Helvetica,sans-Serif" font-size="10.00">SemanticVisitor::checkConst</text>
</a>
</g>
</g>
<!-- Node2&#45;&gt;Node3 -->
<g id="edge2" class="edge">
<title>Node2&#45;&gt;Node3</title>
<path fill="none" stroke="midnightblue" d="M321.03,-64.98C329.42,-64.98 338.02,-64.98 346.5,-64.98"/>
<polygon fill="midnightblue" stroke="midnightblue" points="346.77,-68.48 356.77,-64.98 346.77,-61.48 346.77,-68.48"/>
</g>
<!-- Node2&#45;&gt;Node5 -->
<g id="edge4" class="edge">
<title>Node2&#45;&gt;Node5</title>
<path fill="none" stroke="midnightblue" d="M292.8,-55.39C316.91,-50.28 346.75,-43.97 372.17,-38.59"/>
<polygon fill="midnightblue" stroke="midnightblue" points="372.97,-41.99 382.03,-36.5 371.52,-35.14 372.97,-41.99"/>
</g>
<!-- Node3&#45;&gt;Node4 -->
<g id="edge3" class="edge">
<title>Node3&#45;&gt;Node4</title>
<path fill="none" stroke="midnightblue" d="M464.83,-55.39C483.16,-50.48 505.68,-44.46 525.25,-39.22"/>
<polygon fill="midnightblue" stroke="midnightblue" points="526.42,-42.53 535.18,-36.56 524.61,-35.77 526.42,-42.53"/>
</g>
<!-- Node5&#45;&gt;Node4 -->
<g id="edge5" class="edge">
<title>Node5&#45;&gt;Node4</title>
<path fill="none" stroke="midnightblue" d="M493.77,-26.98C504.08,-26.98 514.57,-26.98 524.36,-26.98"/>
<polygon fill="midnightblue" stroke="midnightblue" points="524.66,-30.48 534.66,-26.98 524.66,-23.48 524.66,-30.48"/>
</g>
</g>
</svg>
