<?xml version="1.0" encoding="UTF-8" standalone="no"?>
<!DOCTYPE svg PUBLIC "-//W3C//DTD SVG 1.1//EN"
 "http://www.w3.org/Graphics/SVG/1.1/DTD/svg11.dtd">
<!-- Generated by graphviz version 3.0.0 (20220413.0106)
 -->
<!-- Title: SemanticVisitor::checkDefined Pages: 1 -->
<svg width="473pt" height="28pt"
 viewBox="0.00 0.00 473.00 28.00" xmlns="http://www.w3.org/2000/svg" xmlns:xlink="http://www.w3.org/1999/xlink">
<g id="graph0" class="graph" transform="scale(1 1) rotate(0) translate(4 24)">
<title>SemanticVisitor::checkDefined</title>
<!-- Node1 -->
<g id="node1" class="node">
<title>Node1</title>
<g id="a_node1"><a xlink:title=" ">
<polygon fill="#bfbfbf" stroke="black" points="316,-0.5 316,-19.5 465,-19.5 465,-0.5 316,-0.5"/>
<text text-anchor="middle" x="390.5" y="-7.5" font-family="Helvetica,sans-Serif" font-size="10.00">SemanticVisitor::checkDefined</text>
</a>
</g>
</g>
<!-- Node2 -->
<g id="node2" class="node">
<title>Node2</title>
<g id="a_node2"><a xlink:href="../../dd/dad/class_semantic_visitor.html#aa10747b1413aed0668d09d68cbdb9d5e" target="_top" xlink:title=" ">
<polygon fill="none" stroke="black" points="144,-0.5 144,-19.5 280,-19.5 280,-0.5 144,-0.5"/>
<text text-anchor="middle" x="212" y="-7.5" font-family="Helvetica,sans-Serif" font-size="10.00">SemanticVisitor::getDefined</text>
</a>
</g>
</g>
<!-- Node1&#45;&gt;Node2 -->
<g id="edge1" class="edge">
<title>Node1&#45;&gt;Node2</title>
<path fill="none" stroke="midnightblue" d="M305.88,-10C297.29,-10 288.64,-10 280.25,-10"/>
<polygon fill="midnightblue" stroke="midnightblue" points="305.93,-13.5 315.93,-10 305.93,-6.5 305.93,-13.5"/>
</g>
<!-- Node3 -->
<g id="node3" class="node">
<title>Node3</title>
<g id="a_node3"><a xlink:href="../../dd/dad/class_semantic_visitor.html#a1bdd0de54198ad56d2b31f946a2dcff6" target="_top" xlink:title=" ">
<polygon fill="none" stroke="black" points="0,-0.5 0,-19.5 108,-19.5 108,-0.5 0,-0.5"/>
<text text-anchor="middle" x="54" y="-7.5" font-family="Helvetica,sans-Serif" font-size="10.00">SemanticVisitor::visit</text>
</a>
</g>
</g>
<!-- Node2&#45;&gt;Node3 -->
<g id="edge2" class="edge">
<title>Node2&#45;&gt;Node3</title>
<path fill="none" stroke="midnightblue" d="M133.85,-10C125.22,-10 116.59,-10 108.36,-10"/>
<polygon fill="midnightblue" stroke="midnightblue" points="133.94,-13.5 143.94,-10 133.94,-6.5 133.94,-13.5"/>
</g>
</g>
</svg>
