<?xml version="1.0" encoding="UTF-8" standalone="no"?>
<!DOCTYPE svg PUBLIC "-//W3C//DTD SVG 1.1//EN"
 "http://www.w3.org/Graphics/SVG/1.1/DTD/svg11.dtd">
<!-- Generated by graphviz version 3.0.0 (20220413.0106)
 -->
<!-- Title: include/AST.hpp Pages: 1 -->
<svg width="862pt" height="140pt"
 viewBox="0.00 0.00 861.50 140.00" xmlns="http://www.w3.org/2000/svg" xmlns:xlink="http://www.w3.org/1999/xlink">
<g id="graph0" class="graph" transform="scale(1 1) rotate(0) translate(4 136)">
<title>include/AST.hpp</title>
<!-- Node1 -->
<g id="node1" class="node">
<title>Node1</title>
<g id="a_node1"><a xlink:title=" ">
<polygon fill="#bfbfbf" stroke="black" points="291.5,-112.5 291.5,-131.5 379.5,-131.5 379.5,-112.5 291.5,-112.5"/>
<text text-anchor="middle" x="335.5" y="-119.5" font-family="Helvetica,sans-Serif" font-size="10.00">include/AST.hpp</text>
</a>
</g>
</g>
<!-- Node2 -->
<g id="node2" class="node">
<title>Node2</title>
<g id="a_node2"><a xlink:href="../../d4/d0d/_a_s_t_factory_8hpp.html" target="_top" xlink:title=" ">
<polygon fill="none" stroke="black" points="56.5,-56.5 56.5,-75.5 176.5,-75.5 176.5,-56.5 56.5,-56.5"/>
<text text-anchor="middle" x="116.5" y="-63.5" font-family="Helvetica,sans-Serif" font-size="10.00">include/ASTFactory.hpp</text>
</a>
</g>
</g>
<!-- Node1&#45;&gt;Node2 -->
<g id="edge1" class="edge">
<title>Node1&#45;&gt;Node2</title>
<path fill="none" stroke="midnightblue" d="M290.99,-110.02C249.62,-99.82 188.86,-84.84 151.04,-75.52"/>
<polygon fill="midnightblue" stroke="midnightblue" points="290.25,-113.45 300.8,-112.44 291.93,-106.65 290.25,-113.45"/>
</g>
<!-- Node3 -->
<g id="node3" class="node">
<title>Node3</title>
<g id="a_node3"><a xlink:href="../../d4/dfc/_a_s_t_factory_8cpp.html" target="_top" xlink:title=" ">
<polygon fill="none" stroke="black" points="0,-0.5 0,-19.5 103,-19.5 103,-0.5 0,-0.5"/>
<text text-anchor="middle" x="51.5" y="-7.5" font-family="Helvetica,sans-Serif" font-size="10.00">src/ASTFactory.cpp</text>
</a>
</g>
</g>
<!-- Node1&#45;&gt;Node3 -->
<g id="edge8" class="edge">
<title>Node1&#45;&gt;Node3</title>
<path fill="none" stroke="midnightblue" d="M281.1,-120.58C206.13,-118.71 76.96,-110.43 47.5,-76 33.97,-60.2 41.96,-33.53 47.52,-19.78"/>
<polygon fill="midnightblue" stroke="midnightblue" points="281.23,-124.08 291.3,-120.8 281.38,-117.08 281.23,-124.08"/>
</g>
<!-- Node4 -->
<g id="node4" class="node">
<title>Node4</title>
<g id="a_node4"><a xlink:href="../../d1/daa/_syntax_8cpp.html" target="_top" xlink:title=" ">
<polygon fill="none" stroke="black" points="132.5,-0.5 132.5,-19.5 212.5,-19.5 212.5,-0.5 132.5,-0.5"/>
<text text-anchor="middle" x="172.5" y="-7.5" font-family="Helvetica,sans-Serif" font-size="10.00">src/Syntax.cpp</text>
</a>
</g>
</g>
<!-- Node1&#45;&gt;Node4 -->
<g id="edge9" class="edge">
<title>Node1&#45;&gt;Node4</title>
<path fill="none" stroke="midnightblue" d="M291.82,-109.35C269.9,-102.1 243.78,-91.22 223.5,-76 202.39,-60.16 185.28,-33.51 177.32,-19.77"/>
<polygon fill="midnightblue" stroke="midnightblue" points="290.96,-112.75 301.55,-112.43 293.07,-106.07 290.96,-112.75"/>
</g>
<!-- Node5 -->
<g id="node5" class="node">
<title>Node5</title>
<g id="a_node5"><a xlink:href="../../d0/d7c/_analyze_8hpp.html" target="_top" xlink:title=" ">
<polygon fill="none" stroke="black" points="232.5,-56.5 232.5,-75.5 334.5,-75.5 334.5,-56.5 232.5,-56.5"/>
<text text-anchor="middle" x="283.5" y="-63.5" font-family="Helvetica,sans-Serif" font-size="10.00">include/Analyze.hpp</text>
</a>
</g>
</g>
<!-- Node1&#45;&gt;Node5 -->
<g id="edge4" class="edge">
<title>Node1&#45;&gt;Node5</title>
<path fill="none" stroke="midnightblue" d="M319.82,-104.72C310.66,-95.2 299.45,-83.56 291.93,-75.75"/>
<polygon fill="midnightblue" stroke="midnightblue" points="317.46,-107.31 326.91,-112.08 322.5,-102.45 317.46,-107.31"/>
</g>
<!-- Node8 -->
<g id="node8" class="node">
<title>Node8</title>
<g id="a_node8"><a xlink:href="../../d0/d91/_a_s_t_8cpp.html" target="_top" xlink:title=" ">
<polygon fill="none" stroke="black" points="353,-56.5 353,-75.5 424,-75.5 424,-56.5 353,-56.5"/>
<text text-anchor="middle" x="388.5" y="-63.5" font-family="Helvetica,sans-Serif" font-size="10.00">src/AST.cpp</text>
</a>
</g>
</g>
<!-- Node1&#45;&gt;Node8 -->
<g id="edge7" class="edge">
<title>Node1&#45;&gt;Node8</title>
<path fill="none" stroke="midnightblue" d="M351.48,-104.72C360.82,-95.2 372.25,-83.56 379.91,-75.75"/>
<polygon fill="midnightblue" stroke="midnightblue" points="348.76,-102.49 344.25,-112.08 353.75,-107.4 348.76,-102.49"/>
</g>
<!-- Node9 -->
<g id="node9" class="node">
<title>Node9</title>
<g id="a_node9"><a xlink:href="../../dc/d65/_visitor_8cpp.html" target="_top" xlink:title=" ">
<polygon fill="none" stroke="black" points="442,-56.5 442,-75.5 521,-75.5 521,-56.5 442,-56.5"/>
<text text-anchor="middle" x="481.5" y="-63.5" font-family="Helvetica,sans-Serif" font-size="10.00">src/Visitor.cpp</text>
</a>
</g>
</g>
<!-- Node1&#45;&gt;Node9 -->
<g id="edge10" class="edge">
<title>Node1&#45;&gt;Node9</title>
<path fill="none" stroke="midnightblue" d="M368.2,-108.91C395.65,-98.75 434.17,-84.51 458.47,-75.52"/>
<polygon fill="midnightblue" stroke="midnightblue" points="366.8,-105.69 358.63,-112.44 369.23,-112.26 366.8,-105.69"/>
</g>
<!-- Node10 -->
<g id="node10" class="node">
<title>Node10</title>
<g id="a_node10"><a xlink:href="../../db/df9/test_semantic_8cpp.html" target="_top" xlink:title=" ">
<polygon fill="none" stroke="black" points="539.5,-56.5 539.5,-75.5 699.5,-75.5 699.5,-56.5 539.5,-56.5"/>
<text text-anchor="middle" x="619.5" y="-63.5" font-family="Helvetica,sans-Serif" font-size="10.00">tests/semantic/testSemantic.cpp</text>
</a>
</g>
</g>
<!-- Node1&#45;&gt;Node10 -->
<g id="edge11" class="edge">
<title>Node1&#45;&gt;Node10</title>
<path fill="none" stroke="midnightblue" d="M389.56,-110.72C443.12,-100.54 524.2,-85.12 574.39,-75.58"/>
<polygon fill="midnightblue" stroke="midnightblue" points="388.73,-107.32 379.56,-112.62 390.04,-114.19 388.73,-107.32"/>
</g>
<!-- Node11 -->
<g id="node11" class="node">
<title>Node11</title>
<g id="a_node11"><a xlink:href="../../dd/de9/test_syntax_8cpp.html" target="_top" xlink:title=" ">
<polygon fill="none" stroke="black" points="717.5,-56.5 717.5,-75.5 853.5,-75.5 853.5,-56.5 717.5,-56.5"/>
<text text-anchor="middle" x="785.5" y="-63.5" font-family="Helvetica,sans-Serif" font-size="10.00">tests/syntax/testSyntax.cpp</text>
</a>
</g>
</g>
<!-- Node1&#45;&gt;Node11 -->
<g id="edge12" class="edge">
<title>Node1&#45;&gt;Node11</title>
<path fill="none" stroke="midnightblue" d="M390.02,-114.46C472.25,-104.59 627.91,-85.91 717.46,-75.16"/>
<polygon fill="midnightblue" stroke="midnightblue" points="389.39,-111.01 379.88,-115.67 390.23,-117.96 389.39,-111.01"/>
</g>
<!-- Node2&#45;&gt;Node3 -->
<g id="edge2" class="edge">
<title>Node2&#45;&gt;Node3</title>
<path fill="none" stroke="midnightblue" d="M98.23,-49.82C86.58,-40.15 71.9,-27.95 62.13,-19.83"/>
<polygon fill="midnightblue" stroke="midnightblue" points="96.13,-52.63 106.06,-56.32 100.6,-47.24 96.13,-52.63"/>
</g>
<!-- Node2&#45;&gt;Node4 -->
<g id="edge3" class="edge">
<title>Node2&#45;&gt;Node4</title>
<path fill="none" stroke="midnightblue" d="M132.83,-49.25C142.76,-39.67 155.09,-27.79 163.34,-19.83"/>
<polygon fill="midnightblue" stroke="midnightblue" points="130.27,-46.86 125.5,-56.32 135.13,-51.9 130.27,-46.86"/>
</g>
<!-- Node6 -->
<g id="node6" class="node">
<title>Node6</title>
<g id="a_node6"><a xlink:href="../../d3/db4/graph_draw_8cpp.html" target="_top" xlink:title=" ">
<polygon fill="none" stroke="black" points="237,-0.5 237,-19.5 318,-19.5 318,-0.5 237,-0.5"/>
<text text-anchor="middle" x="277.5" y="-7.5" font-family="Helvetica,sans-Serif" font-size="10.00">graphDraw.cpp</text>
</a>
</g>
</g>
<!-- Node5&#45;&gt;Node6 -->
<g id="edge5" class="edge">
<title>Node5&#45;&gt;Node6</title>
<path fill="none" stroke="midnightblue" d="M281.4,-46.1C280.4,-37.14 279.26,-26.86 278.47,-19.75"/>
<polygon fill="midnightblue" stroke="midnightblue" points="277.93,-46.53 282.51,-56.08 284.88,-45.76 277.93,-46.53"/>
</g>
<!-- Node7 -->
<g id="node7" class="node">
<title>Node7</title>
<g id="a_node7"><a xlink:href="../../df/d0a/main_8cpp.html" target="_top" xlink:title=" ">
<polygon fill="none" stroke="black" points="336.5,-0.5 336.5,-19.5 392.5,-19.5 392.5,-0.5 336.5,-0.5"/>
<text text-anchor="middle" x="364.5" y="-7.5" font-family="Helvetica,sans-Serif" font-size="10.00">main.cpp</text>
</a>
</g>
</g>
<!-- Node5&#45;&gt;Node7 -->
<g id="edge6" class="edge">
<title>Node5&#45;&gt;Node7</title>
<path fill="none" stroke="midnightblue" d="M305.07,-50.62C319.86,-40.76 339.01,-27.99 351.52,-19.65"/>
<polygon fill="midnightblue" stroke="midnightblue" points="302.89,-47.86 296.51,-56.32 306.78,-53.69 302.89,-47.86"/>
</g>
</g>
</svg>
