<?xml version="1.0" encoding="UTF-8" standalone="no"?>
<!DOCTYPE svg PUBLIC "-//W3C//DTD SVG 1.1//EN"
 "http://www.w3.org/Graphics/SVG/1.1/DTD/svg11.dtd">
<!-- Generated by graphviz version 3.0.0 (20220413.0106)
 -->
<!-- Title: include/AST.hpp Pages: 1 -->
<svg width="462pt" height="140pt"
 viewBox="0.00 0.00 461.50 140.00" xmlns="http://www.w3.org/2000/svg" xmlns:xlink="http://www.w3.org/1999/xlink">
<g id="graph0" class="graph" transform="scale(1 1) rotate(0) translate(4 136)">
<title>include/AST.hpp</title>
<!-- Node1 -->
<g id="node1" class="node">
<title>Node1</title>
<g id="a_node1"><a xlink:title=" ">
<polygon fill="#bfbfbf" stroke="black" points="272,-112.5 272,-131.5 360,-131.5 360,-112.5 272,-112.5"/>
<text text-anchor="middle" x="316" y="-119.5" font-family="Helvetica,sans-Serif" font-size="10.00">include/AST.hpp</text>
</a>
</g>
</g>
<!-- Node2 -->
<g id="node2" class="node">
<title>Node2</title>
<g id="a_node2"><a xlink:href="../../df/d3f/_syntax_8hpp.html" target="_top" xlink:title=" ">
<polygon fill="none" stroke="black" points="90,-56.5 90,-75.5 188,-75.5 188,-56.5 90,-56.5"/>
<text text-anchor="middle" x="139" y="-63.5" font-family="Helvetica,sans-Serif" font-size="10.00">include/Syntax.hpp</text>
</a>
</g>
</g>
<!-- Node1&#45;&gt;Node2 -->
<g id="edge1" class="edge">
<title>Node1&#45;&gt;Node2</title>
<path fill="none" stroke="midnightblue" d="M278.1,-109.44C244.72,-99.26 196.9,-84.66 166.91,-75.52"/>
<polygon fill="midnightblue" stroke="midnightblue" points="277.37,-112.87 287.95,-112.44 279.41,-106.18 277.37,-112.87"/>
</g>
<!-- Node5 -->
<g id="node5" class="node">
<title>Node5</title>
<g id="a_node5"><a xlink:href="../../dd/de9/test_syntax_8cpp.html" target="_top" xlink:title=" ">
<polygon fill="none" stroke="black" points="172,-0.5 172,-19.5 308,-19.5 308,-0.5 172,-0.5"/>
<text text-anchor="middle" x="240" y="-7.5" font-family="Helvetica,sans-Serif" font-size="10.00">tests/syntax/testSyntax.cpp</text>
</a>
</g>
</g>
<!-- Node1&#45;&gt;Node5 -->
<g id="edge9" class="edge">
<title>Node1&#45;&gt;Node5</title>
<path fill="none" stroke="midnightblue" d="M291.75,-106.85C280.33,-99.06 267.4,-88.45 259,-76 247.03,-58.26 242.48,-32.89 240.85,-19.71"/>
<polygon fill="midnightblue" stroke="midnightblue" points="290.17,-109.99 300.47,-112.46 293.96,-104.11 290.17,-109.99"/>
</g>
<!-- Node6 -->
<g id="node6" class="node">
<title>Node6</title>
<g id="a_node6"><a xlink:href="../../db/d42/_visitor_8hpp.html" target="_top" xlink:title=" ">
<polygon fill="none" stroke="black" points="268,-56.5 268,-75.5 364,-75.5 364,-56.5 268,-56.5"/>
<text text-anchor="middle" x="316" y="-63.5" font-family="Helvetica,sans-Serif" font-size="10.00">include/Visitor.hpp</text>
</a>
</g>
</g>
<!-- Node1&#45;&gt;Node6 -->
<g id="edge5" class="edge">
<title>Node1&#45;&gt;Node6</title>
<path fill="none" stroke="midnightblue" d="M309.53,-102.1C308.9,-93.14 309.34,-82.86 310.87,-75.75"/>
<polygon fill="midnightblue" stroke="midnightblue" points="306.07,-102.62 310.83,-112.08 313.01,-101.71 306.07,-102.62"/>
</g>
<!-- Node8 -->
<g id="node8" class="node">
<title>Node8</title>
<g id="a_node8"><a xlink:href="../../d0/d91/_a_s_t_8cpp.html" target="_top" xlink:title=" ">
<polygon fill="none" stroke="black" points="382.5,-56.5 382.5,-75.5 453.5,-75.5 453.5,-56.5 382.5,-56.5"/>
<text text-anchor="middle" x="418" y="-63.5" font-family="Helvetica,sans-Serif" font-size="10.00">src/AST.cpp</text>
</a>
</g>
</g>
<!-- Node1&#45;&gt;Node8 -->
<g id="edge8" class="edge">
<title>Node1&#45;&gt;Node8</title>
<path fill="none" stroke="midnightblue" d="M341.33,-107.59C360.19,-97.61 385.38,-84.27 401.65,-75.65"/>
<polygon fill="midnightblue" stroke="midnightblue" points="339.59,-104.55 332.39,-112.32 342.86,-110.74 339.59,-104.55"/>
</g>
<!-- Node3 -->
<g id="node3" class="node">
<title>Node3</title>
<g id="a_node3"><a xlink:href="../../df/d0a/main_8cpp.html" target="_top" xlink:title=" ">
<polygon fill="none" stroke="black" points="0,-0.5 0,-19.5 56,-19.5 56,-0.5 0,-0.5"/>
<text text-anchor="middle" x="28" y="-7.5" font-family="Helvetica,sans-Serif" font-size="10.00">main.cpp</text>
</a>
</g>
</g>
<!-- Node2&#45;&gt;Node3 -->
<g id="edge2" class="edge">
<title>Node2&#45;&gt;Node3</title>
<path fill="none" stroke="midnightblue" d="M111.99,-51.86C91.41,-41.85 63.66,-28.35 45.79,-19.65"/>
<polygon fill="midnightblue" stroke="midnightblue" points="110.64,-55.1 121.17,-56.32 113.7,-48.8 110.64,-55.1"/>
</g>
<!-- Node4 -->
<g id="node4" class="node">
<title>Node4</title>
<g id="a_node4"><a xlink:href="../../d1/daa/_syntax_8cpp.html" target="_top" xlink:title=" ">
<polygon fill="none" stroke="black" points="74,-0.5 74,-19.5 154,-19.5 154,-0.5 74,-0.5"/>
<text text-anchor="middle" x="114" y="-7.5" font-family="Helvetica,sans-Serif" font-size="10.00">src/Syntax.cpp</text>
</a>
</g>
</g>
<!-- Node2&#45;&gt;Node4 -->
<g id="edge3" class="edge">
<title>Node2&#45;&gt;Node4</title>
<path fill="none" stroke="midnightblue" d="M130.66,-46.98C126.42,-37.82 121.45,-27.09 118.05,-19.75"/>
<polygon fill="midnightblue" stroke="midnightblue" points="127.49,-48.48 134.87,-56.08 133.85,-45.54 127.49,-48.48"/>
</g>
<!-- Node2&#45;&gt;Node5 -->
<g id="edge4" class="edge">
<title>Node2&#45;&gt;Node5</title>
<path fill="none" stroke="midnightblue" d="M164.08,-51.59C182.76,-41.61 207.7,-28.27 223.81,-19.65"/>
<polygon fill="midnightblue" stroke="midnightblue" points="162.4,-48.52 155.23,-56.32 165.7,-54.7 162.4,-48.52"/>
</g>
<!-- Node6&#45;&gt;Node1 -->
<g id="edge6" class="edge">
<title>Node6&#45;&gt;Node1</title>
<path fill="none" stroke="midnightblue" d="M322.46,-85.69C323.11,-94.64 322.68,-104.93 321.17,-112.08"/>
<polygon fill="midnightblue" stroke="midnightblue" points="325.92,-85.2 321.13,-75.75 318.98,-86.13 325.92,-85.2"/>
</g>
<!-- Node7 -->
<g id="node7" class="node">
<title>Node7</title>
<g id="a_node7"><a xlink:href="../../dc/d65/_visitor_8cpp.html" target="_top" xlink:title=" ">
<polygon fill="none" stroke="black" points="326.5,-0.5 326.5,-19.5 405.5,-19.5 405.5,-0.5 326.5,-0.5"/>
<text text-anchor="middle" x="366" y="-7.5" font-family="Helvetica,sans-Serif" font-size="10.00">src/Visitor.cpp</text>
</a>
</g>
</g>
<!-- Node6&#45;&gt;Node7 -->
<g id="edge7" class="edge">
<title>Node6&#45;&gt;Node7</title>
<path fill="none" stroke="midnightblue" d="M331.08,-48.72C339.89,-39.2 350.67,-27.56 357.9,-19.75"/>
<polygon fill="midnightblue" stroke="midnightblue" points="328.48,-46.37 324.26,-56.08 333.62,-51.12 328.48,-46.37"/>
</g>
</g>
</svg>
