<?xml version="1.0" encoding="UTF-8" standalone="no"?>
<!DOCTYPE svg PUBLIC "-//W3C//DTD SVG 1.1//EN"
 "http://www.w3.org/Graphics/SVG/1.1/DTD/svg11.dtd">
<!-- Generated by graphviz version 3.0.0 (20220413.0106)
 -->
<!-- Title: FunctionAST Pages: 1 -->
<svg width="118pt" height="209pt"
 viewBox="0.00 0.00 117.50 209.00" xmlns="http://www.w3.org/2000/svg" xmlns:xlink="http://www.w3.org/1999/xlink">
<g id="graph0" class="graph" transform="scale(1 1) rotate(0) translate(4 205)">
<title>FunctionAST</title>
<!-- Node1 -->
<g id="node1" class="node">
<title>Node1</title>
<g id="a_node1"><a xlink:title="Узел, представляющий определение функции">
<polygon fill="#bfbfbf" stroke="black" points="0,-0.5 0,-19.5 74,-19.5 74,-0.5 0,-0.5"/>
<text text-anchor="middle" x="37" y="-7.5" font-family="Helvetica,sans-Serif" font-size="10.00">FunctionAST</text>
</a>
</g>
</g>
<!-- Node2 -->
<g id="node2" class="node">
<title>Node2</title>
<g id="a_node2"><a xlink:href="../../d3/d96/class_i_a_s_t.html" target="_top" xlink:title="Базовый класс узлов абстрактного синтаксического дерева">
<polygon fill="none" stroke="black" points="70.5,-57.5 70.5,-76.5 109.5,-76.5 109.5,-57.5 70.5,-57.5"/>
<text text-anchor="middle" x="90" y="-64.5" font-family="Helvetica,sans-Serif" font-size="10.00">IAST</text>
</a>
</g>
</g>
<!-- Node2&#45;&gt;Node1 -->
<g id="edge1" class="edge">
<title>Node2&#45;&gt;Node1</title>
<path fill="none" stroke="midnightblue" d="M74.7,-50.12C65.16,-40.22 53.25,-27.86 45.4,-19.71"/>
<polygon fill="midnightblue" stroke="midnightblue" points="72.26,-52.63 81.72,-57.41 77.3,-47.78 72.26,-52.63"/>
</g>
<!-- Node3 -->
<g id="node3" class="node">
<title>Node3</title>
<g id="a_node3"><a xlink:href="../../db/dc1/class_token.html" target="_top" xlink:title="Класс, представляющий токен">
<polygon fill="none" stroke="black" points="19,-124.5 19,-143.5 63,-143.5 63,-124.5 19,-124.5"/>
<text text-anchor="middle" x="41" y="-131.5" font-family="Helvetica,sans-Serif" font-size="10.00">Token</text>
</a>
</g>
</g>
<!-- Node3&#45;&gt;Node1 -->
<g id="edge4" class="edge">
<title>Node3&#45;&gt;Node1</title>
<path fill="none" stroke="#9a32cd" stroke-dasharray="5,2" d="M38.07,-114.3C36.52,-103.44 34.78,-89.48 34,-77 33.45,-68.13 33.71,-65.88 34,-57 34.42,-44.04 35.51,-29.06 36.25,-19.81"/>
<polygon fill="#9a32cd" stroke="#9a32cd" points="34.63,-114.93 39.57,-124.3 41.55,-113.89 34.63,-114.93"/>
<text text-anchor="middle" x="47.5" y="-64.5" font-family="Helvetica,sans-Serif" font-size="10.00"> name</text>
</g>
<!-- Node3&#45;&gt;Node2 -->
<g id="edge2" class="edge">
<title>Node3&#45;&gt;Node2</title>
<path fill="none" stroke="#9a32cd" stroke-dasharray="5,2" d="M53.89,-115.9C63.41,-103.27 75.98,-86.6 83.5,-76.63"/>
<polygon fill="#9a32cd" stroke="#9a32cd" points="50.83,-114.14 47.61,-124.23 56.42,-118.36 50.83,-114.14"/>
<text text-anchor="middle" x="82.5" y="-98" font-family="Helvetica,sans-Serif" font-size="10.00"> token</text>
</g>
<!-- Node4 -->
<g id="node4" class="node">
<title>Node4</title>
<g id="a_node4"><a xlink:href="../../dd/dfe/class_base_token.html" target="_top" xlink:title="Класс&#45;родитель для классов, работающих с токенами">
<polygon fill="none" stroke="black" points="8,-181.5 8,-200.5 74,-200.5 74,-181.5 8,-181.5"/>
<text text-anchor="middle" x="41" y="-188.5" font-family="Helvetica,sans-Serif" font-size="10.00">BaseToken</text>
</a>
</g>
</g>
<!-- Node4&#45;&gt;Node3 -->
<g id="edge3" class="edge">
<title>Node4&#45;&gt;Node3</title>
<path fill="none" stroke="midnightblue" d="M41,-171.12C41,-161.82 41,-151.06 41,-143.71"/>
<polygon fill="midnightblue" stroke="midnightblue" points="37.5,-171.41 41,-181.41 44.5,-171.41 37.5,-171.41"/>
</g>
</g>
</svg>
