<?xml version="1.0" encoding="UTF-8" standalone="no"?>
<!DOCTYPE svg PUBLIC "-//W3C//DTD SVG 1.1//EN"
 "http://www.w3.org/Graphics/SVG/1.1/DTD/svg11.dtd">
<!-- Generated by graphviz version 2.43.0 (0)
 -->
<!-- Title: Queue::push Pages: 1 -->
<svg width="366pt" height="28pt"
 viewBox="0.00 0.00 366.00 28.00" xmlns="http://www.w3.org/2000/svg" xmlns:xlink="http://www.w3.org/1999/xlink">
<g id="graph0" class="graph" transform="scale(1 1) rotate(0) translate(4 24)">
<title>Queue::push</title>
<!-- Node1 -->
<g id="node1" class="node">
<title>Node1</title>
<g id="a_node1"><a xlink:title="Вставляет значение в хвост очереди">
<polygon fill="#bfbfbf" stroke="black" points="0,-0.5 0,-19.5 77,-19.5 77,-0.5 0,-0.5"/>
<text text-anchor="middle" x="38.5" y="-7.5" font-family="Helvetica,sans-Serif" font-size="10.00">Queue::push</text>
</a>
</g>
</g>
<!-- Node2 -->
<g id="node2" class="node">
<title>Node2</title>
<g id="a_node2"><a xlink:href="../../d1/d34/class_list.html#a0c471cf5c09edf2dcbdf1f37cac53e45" target="_top" xlink:title="Вставка в конец списка">
<polygon fill="none" stroke="black" points="113,-0.5 113,-19.5 200,-19.5 200,-0.5 113,-0.5"/>
<text text-anchor="middle" x="156.5" y="-7.5" font-family="Helvetica,sans-Serif" font-size="10.00">List::pushBack</text>
</a>
</g>
</g>
<!-- Node1&#45;&gt;Node2 -->
<g id="edge1" class="edge">
<title>Node1&#45;&gt;Node2</title>
<path fill="none" stroke="midnightblue" d="M77.16,-10C85.34,-10 94.14,-10 102.78,-10"/>
<polygon fill="midnightblue" stroke="midnightblue" points="102.8,-13.5 112.8,-10 102.8,-6.5 102.8,-13.5"/>
</g>
<!-- Node3 -->
<g id="node3" class="node">
<title>Node3</title>
<g id="a_node3"><a xlink:href="../../dc/d8f/class_node.html#a5f29dc4844746c7e7780933173d31a4a" target="_top" xlink:title="Присоединяет узел pNext в качестве следующего узла">
<polygon fill="none" stroke="black" points="236,-0.5 236,-19.5 358,-19.5 358,-0.5 236,-0.5"/>
<text text-anchor="middle" x="297" y="-7.5" font-family="Helvetica,sans-Serif" font-size="10.00">Node::connectAsNext</text>
</a>
</g>
</g>
<!-- Node2&#45;&gt;Node3 -->
<g id="edge2" class="edge">
<title>Node2&#45;&gt;Node3</title>
<path fill="none" stroke="midnightblue" d="M200.18,-10C208.3,-10 216.98,-10 225.69,-10"/>
<polygon fill="midnightblue" stroke="midnightblue" points="225.89,-13.5 235.89,-10 225.89,-6.5 225.89,-13.5"/>
</g>
</g>
</svg>
