<?xml version="1.0" encoding="UTF-8" standalone="no"?>
<!DOCTYPE svg PUBLIC "-//W3C//DTD SVG 1.1//EN"
 "http://www.w3.org/Graphics/SVG/1.1/DTD/svg11.dtd">
<!-- Generated by graphviz version 3.0.0 (20220413.0106)
 -->
<!-- Title: main.cpp Pages: 1 -->
<svg width="1028pt" height="420pt"
 viewBox="0.00 0.00 1028.37 420.00" xmlns="http://www.w3.org/2000/svg" xmlns:xlink="http://www.w3.org/1999/xlink">
<g id="graph0" class="graph" transform="scale(1 1) rotate(0) translate(4 416)">
<title>main.cpp</title>
<!-- Node1 -->
<g id="node1" class="node">
<title>Node1</title>
<g id="a_node1"><a xlink:title=" ">
<polygon fill="#bfbfbf" stroke="black" points="566.37,-392.5 566.37,-411.5 622.37,-411.5 622.37,-392.5 566.37,-392.5"/>
<text text-anchor="middle" x="594.37" y="-399.5" font-family="Helvetica,sans-Serif" font-size="10.00">main.cpp</text>
</a>
</g>
</g>
<!-- Node2 -->
<g id="node2" class="node">
<title>Node2</title>
<g id="a_node2"><a xlink:title=" ">
<polygon fill="none" stroke="#bfbfbf" points="467.87,-336.5 467.87,-355.5 502.87,-355.5 502.87,-336.5 467.87,-336.5"/>
<text text-anchor="middle" x="485.37" y="-343.5" font-family="Helvetica,sans-Serif" font-size="10.00">map</text>
</a>
</g>
</g>
<!-- Node1&#45;&gt;Node2 -->
<g id="edge1" class="edge">
<title>Node1&#45;&gt;Node2</title>
<path fill="none" stroke="midnightblue" d="M576.86,-392.32C559.3,-383.62 532.04,-370.12 511.84,-360.11"/>
<polygon fill="midnightblue" stroke="midnightblue" points="513.35,-356.96 502.84,-355.65 510.24,-363.23 513.35,-356.96"/>
</g>
<!-- Node3 -->
<g id="node3" class="node">
<title>Node3</title>
<g id="a_node3"><a xlink:title=" ">
<polygon fill="none" stroke="#bfbfbf" points="885.87,-0.5 885.87,-19.5 926.87,-19.5 926.87,-0.5 885.87,-0.5"/>
<text text-anchor="middle" x="906.37" y="-7.5" font-family="Helvetica,sans-Serif" font-size="10.00">string</text>
</a>
</g>
</g>
<!-- Node1&#45;&gt;Node3 -->
<g id="edge2" class="edge">
<title>Node1&#45;&gt;Node3</title>
<path fill="none" stroke="midnightblue" d="M622.65,-399.81C717.79,-395.04 1020.37,-373.4 1020.37,-291 1020.37,-291 1020.37,-291 1020.37,-121 1020.37,-74.11 969.82,-40.89 936.04,-23.93"/>
<polygon fill="midnightblue" stroke="midnightblue" points="937.54,-20.77 927.01,-19.58 934.5,-27.07 937.54,-20.77"/>
</g>
<!-- Node4 -->
<g id="node4" class="node">
<title>Node4</title>
<g id="a_node4"><a xlink:title=" ">
<polygon fill="none" stroke="#bfbfbf" points="607.37,-336.5 607.37,-355.5 661.37,-355.5 661.37,-336.5 607.37,-336.5"/>
<text text-anchor="middle" x="634.37" y="-343.5" font-family="Helvetica,sans-Serif" font-size="10.00">iostream</text>
</a>
</g>
</g>
<!-- Node1&#45;&gt;Node4 -->
<g id="edge3" class="edge">
<title>Node1&#45;&gt;Node4</title>
<path fill="none" stroke="midnightblue" d="M600.97,-392.08C606.62,-384.46 614.91,-373.26 621.82,-363.94"/>
<polygon fill="midnightblue" stroke="midnightblue" points="624.75,-365.87 627.89,-355.75 619.12,-361.7 624.75,-365.87"/>
</g>
<!-- Node5 -->
<g id="node5" class="node">
<title>Node5</title>
<g id="a_node5"><a xlink:href="../../d0/d7c/_analyze_8hpp.html" target="_top" xlink:title="Функции анализа кода на языке Pascal.">
<polygon fill="none" stroke="black" points="521.37,-336.5 521.37,-355.5 589.37,-355.5 589.37,-336.5 521.37,-336.5"/>
<text text-anchor="middle" x="555.37" y="-343.5" font-family="Helvetica,sans-Serif" font-size="10.00">Analyze.hpp</text>
</a>
</g>
</g>
<!-- Node1&#45;&gt;Node5 -->
<g id="edge4" class="edge">
<title>Node1&#45;&gt;Node5</title>
<path fill="none" stroke="midnightblue" d="M587.93,-392.08C582.42,-384.46 574.34,-373.26 567.6,-363.94"/>
<polygon fill="midnightblue" stroke="midnightblue" points="570.38,-361.81 561.69,-355.75 564.71,-365.91 570.38,-361.81"/>
</g>
<!-- Node5&#45;&gt;Node3 -->
<g id="edge5" class="edge">
<title>Node5&#45;&gt;Node3</title>
<path fill="none" stroke="midnightblue" d="M589.59,-337.1C690.92,-313.6 982.37,-245.12 982.37,-235 982.37,-235 982.37,-235 982.37,-121 982.37,-81.28 948.4,-45.5 925.89,-26.15"/>
<polygon fill="midnightblue" stroke="midnightblue" points="927.85,-23.24 917.91,-19.57 923.39,-28.63 927.85,-23.24"/>
</g>
<!-- Node6 -->
<g id="node6" class="node">
<title>Node6</title>
<g id="a_node6"><a xlink:title=" ">
<polygon fill="none" stroke="#bfbfbf" points="169.37,-112.5 169.37,-131.5 213.37,-131.5 213.37,-112.5 169.37,-112.5"/>
<text text-anchor="middle" x="191.37" y="-119.5" font-family="Helvetica,sans-Serif" font-size="10.00">vector</text>
</a>
</g>
</g>
<!-- Node5&#45;&gt;Node6 -->
<g id="edge6" class="edge">
<title>Node5&#45;&gt;Node6</title>
<path fill="none" stroke="midnightblue" d="M545.28,-336.18C513.04,-308.32 408.8,-220.95 310.37,-168 282.16,-152.82 247.72,-140.4 223.17,-132.48"/>
<polygon fill="midnightblue" stroke="midnightblue" points="224.21,-129.14 213.62,-129.47 222.1,-135.82 224.21,-129.14"/>
</g>
<!-- Node7 -->
<g id="node7" class="node">
<title>Node7</title>
<g id="a_node7"><a xlink:href="../../dc/d72/_list_8hpp.html" target="_top" xlink:title=" ">
<polygon fill="none" stroke="black" points="455.87,-168.5 455.87,-187.5 506.87,-187.5 506.87,-168.5 455.87,-168.5"/>
<text text-anchor="middle" x="481.37" y="-175.5" font-family="Helvetica,sans-Serif" font-size="10.00">List.hpp</text>
</a>
</g>
</g>
<!-- Node5&#45;&gt;Node7 -->
<g id="edge7" class="edge">
<title>Node5&#45;&gt;Node7</title>
<path fill="none" stroke="midnightblue" d="M549.03,-336.28C537.02,-319.34 510.82,-280.43 496.37,-244 490.42,-229.01 486.51,-211.1 484.17,-197.88"/>
<polygon fill="midnightblue" stroke="midnightblue" points="487.57,-196.97 482.52,-187.66 480.66,-198.09 487.57,-196.97"/>
</g>
<!-- Node13 -->
<g id="node13" class="node">
<title>Node13</title>
<g id="a_node13"><a xlink:href="../../d5/d24/_lexer_8hpp.html" target="_top" xlink:title="Лексер">
<polygon fill="none" stroke="black" points="785.87,-224.5 785.87,-243.5 844.87,-243.5 844.87,-224.5 785.87,-224.5"/>
<text text-anchor="middle" x="815.37" y="-231.5" font-family="Helvetica,sans-Serif" font-size="10.00">Lexer.hpp</text>
</a>
</g>
</g>
<!-- Node5&#45;&gt;Node13 -->
<g id="edge14" class="edge">
<title>Node5&#45;&gt;Node13</title>
<path fill="none" stroke="midnightblue" d="M581.3,-336.42C606.58,-327.85 646,-313.99 679.37,-300 718.49,-283.6 762.59,-261.91 789.69,-248.2"/>
<polygon fill="midnightblue" stroke="midnightblue" points="791.53,-251.19 798.86,-243.54 788.36,-244.95 791.53,-251.19"/>
</g>
<!-- Node17 -->
<g id="node17" class="node">
<title>Node17</title>
<g id="a_node17"><a xlink:href="../../df/d3f/_syntax_8hpp.html" target="_top" xlink:title="Синтаксический анализатор">
<polygon fill="none" stroke="black" points="130.37,-224.5 130.37,-243.5 194.37,-243.5 194.37,-224.5 130.37,-224.5"/>
<text text-anchor="middle" x="162.37" y="-231.5" font-family="Helvetica,sans-Serif" font-size="10.00">Syntax.hpp</text>
</a>
</g>
</g>
<!-- Node5&#45;&gt;Node17 -->
<g id="edge21" class="edge">
<title>Node5&#45;&gt;Node17</title>
<path fill="none" stroke="midnightblue" d="M521.29,-337.86C517.94,-337.21 514.59,-336.58 511.37,-336 408.67,-317.54 378.07,-333.86 279.37,-300 243.24,-287.61 205.28,-264.33 182.73,-249.26"/>
<polygon fill="midnightblue" stroke="midnightblue" points="184.56,-246.28 174.33,-243.55 180.63,-252.07 184.56,-246.28"/>
</g>
<!-- Node20 -->
<g id="node20" class="node">
<title>Node20</title>
<g id="a_node20"><a xlink:href="../../da/dbf/_synt_exp_8hpp.html" target="_top" xlink:title="Исключения анализатора">
<polygon fill="none" stroke="black" points="626.37,-168.5 626.37,-187.5 696.37,-187.5 696.37,-168.5 626.37,-168.5"/>
<text text-anchor="middle" x="661.37" y="-175.5" font-family="Helvetica,sans-Serif" font-size="10.00">SyntExp.hpp</text>
</a>
</g>
</g>
<!-- Node5&#45;&gt;Node20 -->
<g id="edge28" class="edge">
<title>Node5&#45;&gt;Node20</title>
<path fill="none" stroke="midnightblue" d="M589.71,-336.76C609.49,-330.17 633,-318.83 646.37,-300 668.05,-269.47 666.93,-223.35 664.17,-197.77"/>
<polygon fill="midnightblue" stroke="midnightblue" points="667.6,-197.06 662.86,-187.59 660.66,-197.96 667.6,-197.06"/>
</g>
<!-- Node21 -->
<g id="node21" class="node">
<title>Node21</title>
<g id="a_node21"><a xlink:href="../../d4/dcb/_a_s_t_8hpp.html" target="_top" xlink:title="Узлы ДАС">
<polygon fill="none" stroke="black" points="247.37,-168.5 247.37,-187.5 301.37,-187.5 301.37,-168.5 247.37,-168.5"/>
<text text-anchor="middle" x="274.37" y="-175.5" font-family="Helvetica,sans-Serif" font-size="10.00">AST.hpp</text>
</a>
</g>
</g>
<!-- Node5&#45;&gt;Node21 -->
<g id="edge32" class="edge">
<title>Node5&#45;&gt;Node21</title>
<path fill="none" stroke="midnightblue" d="M521.27,-337.97C517.92,-337.3 514.58,-336.63 511.37,-336 426.61,-319.34 386.61,-355.44 320.37,-300 289.3,-274 279.18,-224.63 275.91,-197.68"/>
<polygon fill="midnightblue" stroke="midnightblue" points="279.38,-197.24 274.88,-187.64 272.42,-197.95 279.38,-197.24"/>
</g>
<!-- Node23 -->
<g id="node23" class="node">
<title>Node23</title>
<g id="a_node23"><a xlink:href="../../db/dfd/_pascal_rules_8hpp.html" target="_top" xlink:title="Правила языка Паскаль">
<polygon fill="none" stroke="black" points="547.87,-280.5 547.87,-299.5 636.87,-299.5 636.87,-280.5 547.87,-280.5"/>
<text text-anchor="middle" x="592.37" y="-287.5" font-family="Helvetica,sans-Serif" font-size="10.00">PascalRules.hpp</text>
</a>
</g>
</g>
<!-- Node5&#45;&gt;Node23 -->
<g id="edge37" class="edge">
<title>Node5&#45;&gt;Node23</title>
<path fill="none" stroke="midnightblue" d="M561.48,-336.08C566.65,-328.53 574.21,-317.49 580.56,-308.23"/>
<polygon fill="midnightblue" stroke="midnightblue" points="583.61,-309.98 586.37,-299.75 577.83,-306.02 583.61,-309.98"/>
</g>
<!-- Node24 -->
<g id="node24" class="node">
<title>Node24</title>
<g id="a_node24"><a xlink:href="../../db/d42/_visitor_8hpp.html" target="_top" xlink:title="Посетители для обхода ДАС">
<polygon fill="none" stroke="black" points="505.37,-224.5 505.37,-243.5 567.37,-243.5 567.37,-224.5 505.37,-224.5"/>
<text text-anchor="middle" x="536.37" y="-231.5" font-family="Helvetica,sans-Serif" font-size="10.00">Visitor.hpp</text>
</a>
</g>
</g>
<!-- Node5&#45;&gt;Node24 -->
<g id="edge51" class="edge">
<title>Node5&#45;&gt;Node24</title>
<path fill="none" stroke="midnightblue" d="M551.38,-336.25C547.54,-327.34 541.92,-313.02 539.37,-300 536.34,-284.57 535.72,-266.7 535.78,-253.6"/>
<polygon fill="midnightblue" stroke="midnightblue" points="539.28,-253.57 535.97,-243.51 532.28,-253.44 539.28,-253.57"/>
</g>
<!-- Node7&#45;&gt;Node6 -->
<g id="edge10" class="edge">
<title>Node7&#45;&gt;Node6</title>
<path fill="none" stroke="midnightblue" d="M455.81,-173.52C410.77,-167.17 314.18,-152.66 223.53,-132.06"/>
<polygon fill="midnightblue" stroke="midnightblue" points="224.17,-128.62 213.64,-129.79 222.6,-135.44 224.17,-128.62"/>
</g>
<!-- Node8 -->
<g id="node8" class="node">
<title>Node8</title>
<g id="a_node8"><a xlink:title=" ">
<polygon fill="none" stroke="#bfbfbf" points="523.87,-112.5 523.87,-131.5 572.87,-131.5 572.87,-112.5 523.87,-112.5"/>
<text text-anchor="middle" x="548.37" y="-119.5" font-family="Helvetica,sans-Serif" font-size="10.00">cstddef</text>
</a>
</g>
</g>
<!-- Node7&#45;&gt;Node8 -->
<g id="edge8" class="edge">
<title>Node7&#45;&gt;Node8</title>
<path fill="none" stroke="midnightblue" d="M492.13,-168.32C502.13,-160.26 517.25,-148.08 529.3,-138.37"/>
<polygon fill="midnightblue" stroke="midnightblue" points="531.82,-140.83 537.41,-131.83 527.43,-135.38 531.82,-140.83"/>
</g>
<!-- Node9 -->
<g id="node9" class="node">
<title>Node9</title>
<g id="a_node9"><a xlink:title=" ">
<polygon fill="none" stroke="#bfbfbf" points="301.37,-112.5 301.37,-131.5 373.37,-131.5 373.37,-112.5 301.37,-112.5"/>
<text text-anchor="middle" x="337.37" y="-119.5" font-family="Helvetica,sans-Serif" font-size="10.00">initializer_list</text>
</a>
</g>
</g>
<!-- Node7&#45;&gt;Node9 -->
<g id="edge9" class="edge">
<title>Node7&#45;&gt;Node9</title>
<path fill="none" stroke="midnightblue" d="M458.55,-168.44C434.54,-159.44 396.54,-145.19 369.5,-135.05"/>
<polygon fill="midnightblue" stroke="midnightblue" points="370.67,-131.75 360.08,-131.52 368.21,-138.3 370.67,-131.75"/>
</g>
<!-- Node10 -->
<g id="node10" class="node">
<title>Node10</title>
<g id="a_node10"><a xlink:title=" ">
<polygon fill="none" stroke="#bfbfbf" points="590.87,-112.5 590.87,-131.5 649.87,-131.5 649.87,-112.5 590.87,-112.5"/>
<text text-anchor="middle" x="620.37" y="-119.5" font-family="Helvetica,sans-Serif" font-size="10.00">stdexcept</text>
</a>
</g>
</g>
<!-- Node7&#45;&gt;Node10 -->
<g id="edge11" class="edge">
<title>Node7&#45;&gt;Node10</title>
<path fill="none" stroke="midnightblue" d="M503.39,-168.44C526.47,-159.48 562.93,-145.31 589.01,-135.18"/>
<polygon fill="midnightblue" stroke="midnightblue" points="590.39,-138.4 598.45,-131.52 587.86,-131.88 590.39,-138.4"/>
</g>
<!-- Node11 -->
<g id="node11" class="node">
<title>Node11</title>
<g id="a_node11"><a xlink:title=" ">
<polygon fill="none" stroke="#bfbfbf" points="391.87,-112.5 391.87,-131.5 438.87,-131.5 438.87,-112.5 391.87,-112.5"/>
<text text-anchor="middle" x="415.37" y="-119.5" font-family="Helvetica,sans-Serif" font-size="10.00">iterator</text>
</a>
</g>
</g>
<!-- Node7&#45;&gt;Node11 -->
<g id="edge12" class="edge">
<title>Node7&#45;&gt;Node11</title>
<path fill="none" stroke="midnightblue" d="M470.76,-168.32C460.91,-160.26 446.02,-148.08 434.15,-138.37"/>
<polygon fill="midnightblue" stroke="midnightblue" points="436.12,-135.46 426.17,-131.83 431.69,-140.88 436.12,-135.46"/>
</g>
<!-- Node12 -->
<g id="node12" class="node">
<title>Node12</title>
<g id="a_node12"><a xlink:title=" ">
<polygon fill="none" stroke="#bfbfbf" points="456.87,-112.5 456.87,-131.5 505.87,-131.5 505.87,-112.5 456.87,-112.5"/>
<text text-anchor="middle" x="481.37" y="-119.5" font-family="Helvetica,sans-Serif" font-size="10.00">List.tpp</text>
</a>
</g>
</g>
<!-- Node7&#45;&gt;Node12 -->
<g id="edge13" class="edge">
<title>Node7&#45;&gt;Node12</title>
<path fill="none" stroke="midnightblue" d="M481.37,-168.08C481.37,-161.01 481.37,-150.86 481.37,-141.99"/>
<polygon fill="midnightblue" stroke="midnightblue" points="484.87,-141.75 481.37,-131.75 477.87,-141.75 484.87,-141.75"/>
</g>
<!-- Node13&#45;&gt;Node3 -->
<g id="edge15" class="edge">
<title>Node13&#45;&gt;Node3</title>
<path fill="none" stroke="midnightblue" d="M827.94,-224.4C838.99,-216.22 854.78,-202.98 864.37,-188 896.81,-137.32 904.23,-64.03 905.9,-29.86"/>
<polygon fill="midnightblue" stroke="midnightblue" points="909.41,-29.63 906.28,-19.51 902.41,-29.37 909.41,-29.63"/>
</g>
<!-- Node13&#45;&gt;Node7 -->
<g id="edge20" class="edge">
<title>Node13&#45;&gt;Node7</title>
<path fill="none" stroke="midnightblue" d="M785.73,-228.21C724.35,-218.28 583.55,-195.52 517.2,-184.79"/>
<polygon fill="midnightblue" stroke="midnightblue" points="517.65,-181.32 507.22,-183.18 516.53,-188.23 517.65,-181.32"/>
</g>
<!-- Node14 -->
<g id="node14" class="node">
<title>Node14</title>
<g id="a_node14"><a xlink:title=" ">
<polygon fill="none" stroke="#bfbfbf" points="790.37,-168.5 790.37,-187.5 840.37,-187.5 840.37,-168.5 790.37,-168.5"/>
<text text-anchor="middle" x="815.37" y="-175.5" font-family="Helvetica,sans-Serif" font-size="10.00">fstream</text>
</a>
</g>
</g>
<!-- Node13&#45;&gt;Node14 -->
<g id="edge16" class="edge">
<title>Node13&#45;&gt;Node14</title>
<path fill="none" stroke="midnightblue" d="M815.37,-224.08C815.37,-217.01 815.37,-206.86 815.37,-197.99"/>
<polygon fill="midnightblue" stroke="midnightblue" points="818.87,-197.75 815.37,-187.75 811.87,-197.75 818.87,-197.75"/>
</g>
<!-- Node15 -->
<g id="node15" class="node">
<title>Node15</title>
<g id="a_node15"><a xlink:href="../../de/d32/_token_8hpp.html" target="_top" xlink:title="Классы для работы с токенами анализатора">
<polygon fill="none" stroke="black" points="666.37,-56.5 666.37,-75.5 728.37,-75.5 728.37,-56.5 666.37,-56.5"/>
<text text-anchor="middle" x="697.37" y="-63.5" font-family="Helvetica,sans-Serif" font-size="10.00">Token.hpp</text>
</a>
</g>
</g>
<!-- Node13&#45;&gt;Node15 -->
<g id="edge17" class="edge">
<title>Node13&#45;&gt;Node15</title>
<path fill="none" stroke="midnightblue" d="M825.85,-224.17C839.35,-211.66 859.9,-188.08 849.37,-168 825.33,-122.15 770.05,-93.68 733.21,-79.09"/>
<polygon fill="midnightblue" stroke="midnightblue" points="734.4,-75.8 723.81,-75.5 731.91,-82.34 734.4,-75.8"/>
</g>
<!-- Node15&#45;&gt;Node3 -->
<g id="edge18" class="edge">
<title>Node15&#45;&gt;Node3</title>
<path fill="none" stroke="midnightblue" d="M728.66,-56.92C768.38,-46.65 836.47,-29.06 875.83,-18.89"/>
<polygon fill="midnightblue" stroke="midnightblue" points="876.84,-22.24 885.65,-16.35 875.09,-15.47 876.84,-22.24"/>
</g>
<!-- Node16 -->
<g id="node16" class="node">
<title>Node16</title>
<g id="a_node16"><a xlink:title=" ">
<polygon fill="none" stroke="#bfbfbf" points="677.37,-0.5 677.37,-19.5 717.37,-19.5 717.37,-0.5 677.37,-0.5"/>
<text text-anchor="middle" x="697.37" y="-7.5" font-family="Helvetica,sans-Serif" font-size="10.00">regex</text>
</a>
</g>
</g>
<!-- Node15&#45;&gt;Node16 -->
<g id="edge19" class="edge">
<title>Node15&#45;&gt;Node16</title>
<path fill="none" stroke="midnightblue" d="M697.37,-56.08C697.37,-49.01 697.37,-38.86 697.37,-29.99"/>
<polygon fill="midnightblue" stroke="midnightblue" points="700.87,-29.75 697.37,-19.75 693.87,-29.75 700.87,-29.75"/>
</g>
<!-- Node17&#45;&gt;Node6 -->
<g id="edge22" class="edge">
<title>Node17&#45;&gt;Node6</title>
<path fill="none" stroke="midnightblue" d="M164.64,-224.37C169.34,-206.54 180.22,-165.3 186.55,-141.27"/>
<polygon fill="midnightblue" stroke="midnightblue" points="189.94,-142.15 189.1,-131.59 183.17,-140.37 189.94,-142.15"/>
</g>
<!-- Node17&#45;&gt;Node7 -->
<g id="edge24" class="edge">
<title>Node17&#45;&gt;Node7</title>
<path fill="none" stroke="midnightblue" d="M194.42,-227.58C254.31,-217.44 382.81,-195.68 445.5,-185.07"/>
<polygon fill="midnightblue" stroke="midnightblue" points="446.41,-188.47 455.69,-183.35 445.24,-181.57 446.41,-188.47"/>
</g>
<!-- Node17&#45;&gt;Node15 -->
<g id="edge25" class="edge">
<title>Node17&#45;&gt;Node15</title>
<path fill="none" stroke="midnightblue" d="M130.3,-233.35C95.82,-231.78 42.44,-223.32 16.37,-188 -3.69,-160.82 -6.72,-136.66 16.37,-112 60.07,-65.32 514.32,-65.37 655.65,-66.53"/>
<polygon fill="midnightblue" stroke="midnightblue" points="656.01,-70.03 666.04,-66.62 656.07,-63.03 656.01,-70.03"/>
</g>
<!-- Node18 -->
<g id="node18" class="node">
<title>Node18</title>
<g id="a_node18"><a xlink:title=" ">
<polygon fill="none" stroke="#bfbfbf" points="25.37,-168.5 25.37,-187.5 115.37,-187.5 115.37,-168.5 25.37,-168.5"/>
<text text-anchor="middle" x="70.37" y="-175.5" font-family="Helvetica,sans-Serif" font-size="10.00">magic_enum.hpp</text>
</a>
</g>
</g>
<!-- Node17&#45;&gt;Node18 -->
<g id="edge23" class="edge">
<title>Node17&#45;&gt;Node18</title>
<path fill="none" stroke="midnightblue" d="M147.59,-224.32C133.1,-215.82 110.8,-202.73 93.87,-192.8"/>
<polygon fill="midnightblue" stroke="midnightblue" points="95.51,-189.7 85.11,-187.65 91.97,-195.74 95.51,-189.7"/>
</g>
<!-- Node19 -->
<g id="node19" class="node">
<title>Node19</title>
<g id="a_node19"><a xlink:href="../../d8/de6/_a_s_tclasses_8hpp.html" target="_top" xlink:title="Базовые классы ДАС: абстрактный посетитель и абстрактный узел">
<polygon fill="none" stroke="black" points="25.37,-112.5 25.37,-131.5 113.37,-131.5 113.37,-112.5 25.37,-112.5"/>
<text text-anchor="middle" x="69.37" y="-119.5" font-family="Helvetica,sans-Serif" font-size="10.00">ASTclasses.hpp</text>
</a>
</g>
</g>
<!-- Node17&#45;&gt;Node19 -->
<g id="edge26" class="edge">
<title>Node17&#45;&gt;Node19</title>
<path fill="none" stroke="midnightblue" d="M158.55,-224.38C152.51,-211.31 139.82,-186.09 124.37,-168 114.5,-156.45 101.41,-145.61 90.47,-137.46"/>
<polygon fill="midnightblue" stroke="midnightblue" points="92.42,-134.55 82.27,-131.54 88.33,-140.23 92.42,-134.55"/>
</g>
<!-- Node19&#45;&gt;Node15 -->
<g id="edge27" class="edge">
<title>Node19&#45;&gt;Node15</title>
<path fill="none" stroke="midnightblue" d="M113.65,-113.78C118.28,-113.13 122.91,-112.52 127.37,-112 324.6,-88.95 561.64,-74.44 655.84,-69.21"/>
<polygon fill="midnightblue" stroke="midnightblue" points="656.29,-72.69 666.08,-68.64 655.91,-65.7 656.29,-72.69"/>
</g>
<!-- Node20&#45;&gt;Node3 -->
<g id="edge29" class="edge">
<title>Node20&#45;&gt;Node3</title>
<path fill="none" stroke="midnightblue" d="M674.2,-168.31C714.05,-141.3 836.02,-58.67 885.34,-25.25"/>
<polygon fill="midnightblue" stroke="midnightblue" points="887.35,-28.11 893.67,-19.61 883.43,-22.32 887.35,-28.11"/>
</g>
<!-- Node20&#45;&gt;Node10 -->
<g id="edge30" class="edge">
<title>Node20&#45;&gt;Node10</title>
<path fill="none" stroke="midnightblue" d="M654.6,-168.08C648.81,-160.46 640.31,-149.26 633.23,-139.94"/>
<polygon fill="midnightblue" stroke="midnightblue" points="635.85,-137.6 627.01,-131.75 630.27,-141.83 635.85,-137.6"/>
</g>
<!-- Node20&#45;&gt;Node15 -->
<g id="edge31" class="edge">
<title>Node20&#45;&gt;Node15</title>
<path fill="none" stroke="midnightblue" d="M669.32,-168.48C676.73,-159.96 687.37,-146.13 692.37,-132 697.62,-117.15 698.64,-99.22 698.48,-85.96"/>
<polygon fill="midnightblue" stroke="midnightblue" points="701.96,-85.57 698.1,-75.71 694.97,-85.83 701.96,-85.57"/>
</g>
<!-- Node21&#45;&gt;Node6 -->
<g id="edge33" class="edge">
<title>Node21&#45;&gt;Node6</title>
<path fill="none" stroke="midnightblue" d="M261.03,-168.32C248.21,-159.98 228.58,-147.21 213.43,-137.35"/>
<polygon fill="midnightblue" stroke="midnightblue" points="214.96,-134.17 204.67,-131.65 211.14,-140.04 214.96,-134.17"/>
</g>
<!-- Node21&#45;&gt;Node15 -->
<g id="edge35" class="edge">
<title>Node21&#45;&gt;Node15</title>
<path fill="none" stroke="midnightblue" d="M247.32,-170.09C216.92,-161.72 170.48,-146.87 160.37,-132 155.37,-124.65 154.35,-118.54 160.37,-112 193.72,-75.74 535.76,-68.68 655.91,-67.32"/>
<polygon fill="midnightblue" stroke="midnightblue" points="656.21,-70.82 666.17,-67.21 656.13,-63.82 656.21,-70.82"/>
</g>
<!-- Node21&#45;&gt;Node19 -->
<g id="edge36" class="edge">
<title>Node21&#45;&gt;Node19</title>
<path fill="none" stroke="midnightblue" d="M247.15,-169.83C212.51,-160.7 152.3,-144.85 111.66,-134.14"/>
<polygon fill="midnightblue" stroke="midnightblue" points="112.34,-130.7 101.78,-131.54 110.56,-137.47 112.34,-130.7"/>
</g>
<!-- Node22 -->
<g id="node22" class="node">
<title>Node22</title>
<g id="a_node22"><a xlink:title=" ">
<polygon fill="none" stroke="#bfbfbf" points="231.87,-112.5 231.87,-131.5 282.87,-131.5 282.87,-112.5 231.87,-112.5"/>
<text text-anchor="middle" x="257.37" y="-119.5" font-family="Helvetica,sans-Serif" font-size="10.00">memory</text>
</a>
</g>
</g>
<!-- Node21&#45;&gt;Node22 -->
<g id="edge34" class="edge">
<title>Node21&#45;&gt;Node22</title>
<path fill="none" stroke="midnightblue" d="M271.56,-168.08C269.28,-160.85 266,-150.41 263.16,-141.4"/>
<polygon fill="midnightblue" stroke="midnightblue" points="266.46,-140.24 260.12,-131.75 259.79,-142.34 266.46,-140.24"/>
</g>
<!-- Node23&#45;&gt;Node3 -->
<g id="edge39" class="edge">
<title>Node23&#45;&gt;Node3</title>
<path fill="none" stroke="midnightblue" d="M637.19,-287.44C690.77,-284.21 782.25,-274.3 854.37,-244 899.86,-224.89 944.37,-228.34 944.37,-179 944.37,-179 944.37,-179 944.37,-121 944.37,-86.81 927.77,-49.76 916.51,-28.57"/>
<polygon fill="midnightblue" stroke="midnightblue" points="919.55,-26.83 911.65,-19.77 913.42,-30.22 919.55,-26.83"/>
</g>
<!-- Node23&#45;&gt;Node6 -->
<g id="edge38" class="edge">
<title>Node23&#45;&gt;Node6</title>
<path fill="none" stroke="midnightblue" d="M573.51,-280.4C554.08,-271.49 522.97,-257.06 496.37,-244 429.99,-211.41 417.14,-195.18 348.37,-168 297.06,-147.72 280.11,-148.02 223.26,-132.2"/>
<polygon fill="midnightblue" stroke="midnightblue" points="223.96,-128.76 213.38,-129.4 222.05,-135.5 223.96,-128.76"/>
</g>
<!-- Node23&#45;&gt;Node7 -->
<g id="edge41" class="edge">
<title>Node23&#45;&gt;Node7</title>
<path fill="none" stroke="midnightblue" d="M592.49,-280.4C592.24,-266.89 589.9,-240.56 576.37,-224 561.29,-205.54 536.86,-194.2 516.56,-187.52"/>
<polygon fill="midnightblue" stroke="midnightblue" points="517.56,-184.17 506.98,-184.61 515.53,-190.87 517.56,-184.17"/>
</g>
<!-- Node23&#45;&gt;Node15 -->
<g id="edge40" class="edge">
<title>Node23&#45;&gt;Node15</title>
<path fill="none" stroke="midnightblue" d="M608.34,-280.37C634.14,-265.45 684.19,-232.12 705.37,-188 721.4,-154.6 711.61,-109.95 703.93,-85.29"/>
<polygon fill="midnightblue" stroke="midnightblue" points="707.23,-84.14 700.74,-75.76 700.59,-86.36 707.23,-84.14"/>
</g>
<!-- Node23&#45;&gt;Node24 -->
<g id="edge42" class="edge">
<title>Node23&#45;&gt;Node24</title>
<path fill="none" stroke="midnightblue" d="M583.37,-280.32C575.17,-272.42 562.86,-260.55 552.9,-250.94"/>
<polygon fill="midnightblue" stroke="midnightblue" points="555.16,-248.26 545.53,-243.83 550.3,-253.29 555.16,-248.26"/>
</g>
<!-- Node24&#45;&gt;Node3 -->
<g id="edge44" class="edge">
<title>Node24&#45;&gt;Node3</title>
<path fill="none" stroke="midnightblue" d="M567.41,-228.82C602.44,-223.19 660.4,-211.1 705.37,-188 787.34,-145.89 862.87,-62.88 892.79,-27.55"/>
<polygon fill="midnightblue" stroke="midnightblue" points="895.67,-29.57 899.4,-19.65 890.3,-25.08 895.67,-29.57"/>
</g>
<!-- Node24&#45;&gt;Node7 -->
<g id="edge47" class="edge">
<title>Node24&#45;&gt;Node7</title>
<path fill="none" stroke="midnightblue" d="M527.29,-224.08C519.2,-216.14 507.17,-204.34 497.46,-194.8"/>
<polygon fill="midnightblue" stroke="midnightblue" points="499.87,-192.26 490.28,-187.75 494.96,-197.25 499.87,-192.26"/>
</g>
<!-- Node24&#45;&gt;Node14 -->
<g id="edge43" class="edge">
<title>Node24&#45;&gt;Node14</title>
<path fill="none" stroke="midnightblue" d="M567.52,-227.59C613.37,-219.52 701.68,-203.61 776.37,-188 777.63,-187.74 778.92,-187.46 780.21,-187.18"/>
<polygon fill="midnightblue" stroke="midnightblue" points="781.22,-190.54 790.23,-184.96 779.71,-183.71 781.22,-190.54"/>
</g>
<!-- Node24&#45;&gt;Node15 -->
<g id="edge46" class="edge">
<title>Node24&#45;&gt;Node15</title>
<path fill="none" stroke="midnightblue" d="M547.23,-224.26C576.42,-200.73 654.71,-137.47 659.37,-132 671.67,-117.58 682.23,-98.63 689.07,-84.92"/>
<polygon fill="midnightblue" stroke="midnightblue" points="692.37,-86.15 693.55,-75.62 686.06,-83.11 692.37,-86.15"/>
</g>
<!-- Node24&#45;&gt;Node19 -->
<g id="edge48" class="edge">
<title>Node24&#45;&gt;Node19</title>
<path fill="none" stroke="midnightblue" d="M505.03,-230.52C450.22,-225.69 333.72,-213.21 238.37,-188 187.14,-174.45 130.1,-150.57 97.12,-135.83"/>
<polygon fill="midnightblue" stroke="midnightblue" points="98.24,-132.49 87.69,-131.57 95.36,-138.87 98.24,-132.49"/>
</g>
<!-- Node24&#45;&gt;Node20 -->
<g id="edge50" class="edge">
<title>Node24&#45;&gt;Node20</title>
<path fill="none" stroke="midnightblue" d="M556.17,-224.44C576.65,-215.6 608.85,-201.69 632.23,-191.59"/>
<polygon fill="midnightblue" stroke="midnightblue" points="633.86,-194.7 641.65,-187.52 631.09,-188.27 633.86,-194.7"/>
</g>
<!-- Node24&#45;&gt;Node21 -->
<g id="edge49" class="edge">
<title>Node24&#45;&gt;Node21</title>
<path fill="none" stroke="midnightblue" d="M505.28,-226.59C456.74,-216.59 363.13,-197.29 311.25,-186.6"/>
<polygon fill="midnightblue" stroke="midnightblue" points="311.96,-183.17 301.45,-184.58 310.54,-190.03 311.96,-183.17"/>
</g>
<!-- Node24&#45;&gt;Node22 -->
<g id="edge45" class="edge">
<title>Node24&#45;&gt;Node22</title>
<path fill="none" stroke="midnightblue" d="M519.42,-224.31C493.38,-211.15 441.77,-185.81 396.37,-168 361.77,-154.43 321.25,-141.65 292.91,-133.21"/>
<polygon fill="midnightblue" stroke="midnightblue" points="293.64,-129.77 283.06,-130.3 291.66,-136.48 293.64,-129.77"/>
</g>
</g>
</svg>
