<?xml version="1.0" encoding="UTF-8" standalone="no"?>
<!DOCTYPE svg PUBLIC "-//W3C//DTD SVG 1.1//EN"
 "http://www.w3.org/Graphics/SVG/1.1/DTD/svg11.dtd">
<!-- Generated by graphviz version 3.0.0 (20220413.0106)
 -->
<!-- Title: include/sup.hpp Pages: 1 -->
<svg width="929pt" height="252pt"
 viewBox="0.00 0.00 928.76 252.00" xmlns="http://www.w3.org/2000/svg" xmlns:xlink="http://www.w3.org/1999/xlink">
<g id="graph0" class="graph" transform="scale(1 1) rotate(0) translate(4 248)">
<title>include/sup.hpp</title>
<!-- Node1 -->
<g id="node1" class="node">
<title>Node1</title>
<g id="a_node1"><a xlink:title=" ">
<polygon fill="#bfbfbf" stroke="black" points="454.5,-224.5 454.5,-243.5 538.5,-243.5 538.5,-224.5 454.5,-224.5"/>
<text text-anchor="middle" x="496.5" y="-231.5" font-family="Helvetica,sans-Serif" font-size="10.00">include/sup.hpp</text>
</a>
</g>
</g>
<!-- Node2 -->
<g id="node2" class="node">
<title>Node2</title>
<g id="a_node2"><a xlink:href="../../df/d3f/_syntax_8hpp.html" target="_top" xlink:title=" ">
<polygon fill="none" stroke="black" points="209.5,-112.5 209.5,-131.5 307.5,-131.5 307.5,-112.5 209.5,-112.5"/>
<text text-anchor="middle" x="258.5" y="-119.5" font-family="Helvetica,sans-Serif" font-size="10.00">include/Syntax.hpp</text>
</a>
</g>
</g>
<!-- Node1&#45;&gt;Node2 -->
<g id="edge1" class="edge">
<title>Node1&#45;&gt;Node2</title>
<path fill="none" stroke="midnightblue" d="M468.73,-220.16C419.62,-197.47 318.72,-150.83 277.09,-131.59"/>
<polygon fill="midnightblue" stroke="midnightblue" points="467.28,-223.35 477.82,-224.37 470.22,-217 467.28,-223.35"/>
</g>
<!-- Node9 -->
<g id="node9" class="node">
<title>Node9</title>
<g id="a_node9"><a xlink:href="../../db/d42/_visitor_8hpp.html" target="_top" xlink:title=" ">
<polygon fill="none" stroke="black" points="448.5,-168.5 448.5,-187.5 544.5,-187.5 544.5,-168.5 448.5,-168.5"/>
<text text-anchor="middle" x="496.5" y="-175.5" font-family="Helvetica,sans-Serif" font-size="10.00">include/Visitor.hpp</text>
</a>
</g>
</g>
<!-- Node1&#45;&gt;Node9 -->
<g id="edge8" class="edge">
<title>Node1&#45;&gt;Node9</title>
<path fill="none" stroke="midnightblue" d="M496.5,-213.8C496.5,-204.91 496.5,-194.78 496.5,-187.75"/>
<polygon fill="midnightblue" stroke="midnightblue" points="493,-214.08 496.5,-224.08 500,-214.08 493,-214.08"/>
</g>
<!-- Node12 -->
<g id="node12" class="node">
<title>Node12</title>
<g id="a_node12"><a xlink:href="../../d4/dfc/_a_s_t_factory_8cpp.html" target="_top" xlink:title=" ">
<polygon fill="none" stroke="black" points="747,-0.5 747,-19.5 850,-19.5 850,-0.5 747,-0.5"/>
<text text-anchor="middle" x="798.5" y="-7.5" font-family="Helvetica,sans-Serif" font-size="10.00">src/ASTFactory.cpp</text>
</a>
</g>
</g>
<!-- Node1&#45;&gt;Node12 -->
<g id="edge23" class="edge">
<title>Node1&#45;&gt;Node12</title>
<path fill="none" stroke="midnightblue" d="M549.02,-231.26C641.48,-225.01 831.45,-197.26 915.5,-76 936.02,-46.4 888.8,-28.81 848.35,-19.55"/>
<polygon fill="midnightblue" stroke="midnightblue" points="548.55,-227.78 538.78,-231.89 548.98,-234.77 548.55,-227.78"/>
</g>
<!-- Node3 -->
<g id="node3" class="node">
<title>Node3</title>
<g id="a_node3"><a xlink:href="../../d0/d7c/_analyze_8hpp.html" target="_top" xlink:title=" ">
<polygon fill="none" stroke="black" points="32.5,-56.5 32.5,-75.5 134.5,-75.5 134.5,-56.5 32.5,-56.5"/>
<text text-anchor="middle" x="83.5" y="-63.5" font-family="Helvetica,sans-Serif" font-size="10.00">include/Analyze.hpp</text>
</a>
</g>
</g>
<!-- Node2&#45;&gt;Node3 -->
<g id="edge2" class="edge">
<title>Node2&#45;&gt;Node3</title>
<path fill="none" stroke="midnightblue" d="M221.03,-109.44C188.03,-99.26 140.74,-84.66 111.1,-75.52"/>
<polygon fill="midnightblue" stroke="midnightblue" points="220.18,-112.84 230.77,-112.44 222.25,-106.15 220.18,-112.84"/>
</g>
<!-- Node6 -->
<g id="node6" class="node">
<title>Node6</title>
<g id="a_node6"><a xlink:href="../../d1/daa/_syntax_8cpp.html" target="_top" xlink:title=" ">
<polygon fill="none" stroke="black" points="492.5,-0.5 492.5,-19.5 572.5,-19.5 572.5,-0.5 492.5,-0.5"/>
<text text-anchor="middle" x="532.5" y="-7.5" font-family="Helvetica,sans-Serif" font-size="10.00">src/Syntax.cpp</text>
</a>
</g>
</g>
<!-- Node2&#45;&gt;Node6 -->
<g id="edge5" class="edge">
<title>Node2&#45;&gt;Node6</title>
<path fill="none" stroke="midnightblue" d="M224.84,-108.66C196.52,-96.45 163.33,-76.65 181.5,-56 201.79,-32.94 404.61,-18.45 492.37,-13.21"/>
<polygon fill="midnightblue" stroke="midnightblue" points="223.6,-111.93 234.18,-112.5 226.26,-105.46 223.6,-111.93"/>
</g>
<!-- Node7 -->
<g id="node7" class="node">
<title>Node7</title>
<g id="a_node7"><a xlink:href="../../db/df9/test_semantic_8cpp.html" target="_top" xlink:title=" ">
<polygon fill="none" stroke="black" points="344.5,-56.5 344.5,-75.5 504.5,-75.5 504.5,-56.5 344.5,-56.5"/>
<text text-anchor="middle" x="424.5" y="-63.5" font-family="Helvetica,sans-Serif" font-size="10.00">tests/semantic/testSemantic.cpp</text>
</a>
</g>
</g>
<!-- Node2&#45;&gt;Node7 -->
<g id="edge6" class="edge">
<title>Node2&#45;&gt;Node7</title>
<path fill="none" stroke="midnightblue" d="M294.45,-109.3C325.73,-99.13 370.32,-84.62 398.32,-75.52"/>
<polygon fill="midnightblue" stroke="midnightblue" points="293.23,-106.02 284.8,-112.44 295.4,-112.68 293.23,-106.02"/>
</g>
<!-- Node8 -->
<g id="node8" class="node">
<title>Node8</title>
<g id="a_node8"><a xlink:href="../../dd/de9/test_syntax_8cpp.html" target="_top" xlink:title=" ">
<polygon fill="none" stroke="black" points="190.5,-56.5 190.5,-75.5 326.5,-75.5 326.5,-56.5 190.5,-56.5"/>
<text text-anchor="middle" x="258.5" y="-63.5" font-family="Helvetica,sans-Serif" font-size="10.00">tests/syntax/testSyntax.cpp</text>
</a>
</g>
</g>
<!-- Node2&#45;&gt;Node8 -->
<g id="edge7" class="edge">
<title>Node2&#45;&gt;Node8</title>
<path fill="none" stroke="midnightblue" d="M258.5,-101.8C258.5,-92.91 258.5,-82.78 258.5,-75.75"/>
<polygon fill="midnightblue" stroke="midnightblue" points="255,-102.08 258.5,-112.08 262,-102.08 255,-102.08"/>
</g>
<!-- Node4 -->
<g id="node4" class="node">
<title>Node4</title>
<g id="a_node4"><a xlink:href="../../d3/db4/graph_draw_8cpp.html" target="_top" xlink:title=" ">
<polygon fill="none" stroke="black" points="0,-0.5 0,-19.5 81,-19.5 81,-0.5 0,-0.5"/>
<text text-anchor="middle" x="40.5" y="-7.5" font-family="Helvetica,sans-Serif" font-size="10.00">graphDraw.cpp</text>
</a>
</g>
</g>
<!-- Node3&#45;&gt;Node4 -->
<g id="edge3" class="edge">
<title>Node3&#45;&gt;Node4</title>
<path fill="none" stroke="midnightblue" d="M70.08,-48.14C62.59,-38.74 53.56,-27.4 47.47,-19.75"/>
<polygon fill="midnightblue" stroke="midnightblue" points="67.43,-50.44 76.4,-56.08 72.91,-46.08 67.43,-50.44"/>
</g>
<!-- Node5 -->
<g id="node5" class="node">
<title>Node5</title>
<g id="a_node5"><a xlink:href="../../df/d0a/main_8cpp.html" target="_top" xlink:title=" ">
<polygon fill="none" stroke="black" points="99.5,-0.5 99.5,-19.5 155.5,-19.5 155.5,-0.5 99.5,-0.5"/>
<text text-anchor="middle" x="127.5" y="-7.5" font-family="Helvetica,sans-Serif" font-size="10.00">main.cpp</text>
</a>
</g>
</g>
<!-- Node3&#45;&gt;Node5 -->
<g id="edge4" class="edge">
<title>Node3&#45;&gt;Node5</title>
<path fill="none" stroke="midnightblue" d="M97.23,-48.14C104.9,-38.74 114.13,-27.4 120.37,-19.75"/>
<polygon fill="midnightblue" stroke="midnightblue" points="94.37,-46.12 90.77,-56.08 99.8,-50.54 94.37,-46.12"/>
</g>
<!-- Node9&#45;&gt;Node3 -->
<g id="edge20" class="edge">
<title>Node9&#45;&gt;Node3</title>
<path fill="none" stroke="midnightblue" d="M438.19,-174.25C377.42,-169.98 280.13,-159.19 200.5,-132 159.38,-117.96 115.9,-89.75 95.46,-75.56"/>
<polygon fill="midnightblue" stroke="midnightblue" points="438.14,-177.75 448.35,-174.93 438.61,-170.77 438.14,-177.75"/>
</g>
<!-- Node9&#45;&gt;Node7 -->
<g id="edge22" class="edge">
<title>Node9&#45;&gt;Node7</title>
<path fill="none" stroke="midnightblue" d="M485.34,-159.96C469.74,-136.12 441.98,-93.71 430.12,-75.59"/>
<polygon fill="midnightblue" stroke="midnightblue" points="482.45,-161.92 490.85,-168.37 488.3,-158.08 482.45,-161.92"/>
</g>
<!-- Node10 -->
<g id="node10" class="node">
<title>Node10</title>
<g id="a_node10"><a xlink:href="../../d4/dcb/_a_s_t_8hpp.html" target="_top" xlink:title=" ">
<polygon fill="none" stroke="black" points="488.5,-112.5 488.5,-131.5 576.5,-131.5 576.5,-112.5 488.5,-112.5"/>
<text text-anchor="middle" x="532.5" y="-119.5" font-family="Helvetica,sans-Serif" font-size="10.00">include/AST.hpp</text>
</a>
</g>
</g>
<!-- Node9&#45;&gt;Node10 -->
<g id="edge9" class="edge">
<title>Node9&#45;&gt;Node10</title>
<path fill="none" stroke="midnightblue" d="M508.12,-159.57C514.32,-150.27 521.67,-139.25 526.67,-131.75"/>
<polygon fill="midnightblue" stroke="midnightblue" points="505.08,-157.82 502.44,-168.08 510.9,-161.7 505.08,-157.82"/>
</g>
<!-- Node14 -->
<g id="node14" class="node">
<title>Node14</title>
<g id="a_node14"><a xlink:href="../../dc/d65/_visitor_8cpp.html" target="_top" xlink:title=" ">
<polygon fill="none" stroke="black" points="827,-56.5 827,-75.5 906,-75.5 906,-56.5 827,-56.5"/>
<text text-anchor="middle" x="866.5" y="-63.5" font-family="Helvetica,sans-Serif" font-size="10.00">src/Visitor.cpp</text>
</a>
</g>
</g>
<!-- Node9&#45;&gt;Node14 -->
<g id="edge21" class="edge">
<title>Node9&#45;&gt;Node14</title>
<path fill="none" stroke="midnightblue" d="M535.15,-165.51C609.71,-143.34 771.89,-95.13 837.79,-75.53"/>
<polygon fill="midnightblue" stroke="midnightblue" points="533.81,-162.26 525.23,-168.46 535.81,-168.97 533.81,-162.26"/>
</g>
<!-- Node10&#45;&gt;Node3 -->
<g id="edge13" class="edge">
<title>Node10&#45;&gt;Node3</title>
<path fill="none" stroke="midnightblue" d="M478.24,-114.47C390.82,-103.96 219.99,-83.42 134.62,-73.15"/>
<polygon fill="midnightblue" stroke="midnightblue" points="477.87,-117.96 488.22,-115.67 478.71,-111.01 477.87,-117.96"/>
</g>
<!-- Node10&#45;&gt;Node6 -->
<g id="edge16" class="edge">
<title>Node10&#45;&gt;Node6</title>
<path fill="none" stroke="midnightblue" d="M532.5,-102.35C532.5,-78.25 532.5,-37.31 532.5,-19.59"/>
<polygon fill="midnightblue" stroke="midnightblue" points="529,-102.37 532.5,-112.37 536,-102.37 529,-102.37"/>
</g>
<!-- Node10&#45;&gt;Node7 -->
<g id="edge18" class="edge">
<title>Node10&#45;&gt;Node7</title>
<path fill="none" stroke="midnightblue" d="M505.95,-107.73C485.95,-97.73 459.11,-84.31 441.81,-75.65"/>
<polygon fill="midnightblue" stroke="midnightblue" points="504.64,-110.98 515.15,-112.32 507.77,-104.72 504.64,-110.98"/>
</g>
<!-- Node10&#45;&gt;Node8 -->
<g id="edge19" class="edge">
<title>Node10&#45;&gt;Node8</title>
<path fill="none" stroke="midnightblue" d="M479.09,-110.47C427.3,-100.27 349.73,-84.98 301.71,-75.52"/>
<polygon fill="midnightblue" stroke="midnightblue" points="478.6,-113.94 489.08,-112.44 479.95,-107.08 478.6,-113.94"/>
</g>
<!-- Node11 -->
<g id="node11" class="node">
<title>Node11</title>
<g id="a_node11"><a xlink:href="../../d4/d0d/_a_s_t_factory_8hpp.html" target="_top" xlink:title=" ">
<polygon fill="none" stroke="black" points="650.5,-56.5 650.5,-75.5 770.5,-75.5 770.5,-56.5 650.5,-56.5"/>
<text text-anchor="middle" x="710.5" y="-63.5" font-family="Helvetica,sans-Serif" font-size="10.00">include/ASTFactory.hpp</text>
</a>
</g>
</g>
<!-- Node10&#45;&gt;Node11 -->
<g id="edge10" class="edge">
<title>Node10&#45;&gt;Node11</title>
<path fill="none" stroke="midnightblue" d="M570.62,-109.44C604.18,-99.26 652.27,-84.66 682.43,-75.52"/>
<polygon fill="midnightblue" stroke="midnightblue" points="569.26,-106.19 560.7,-112.44 571.29,-112.89 569.26,-106.19"/>
</g>
<!-- Node10&#45;&gt;Node12 -->
<g id="edge15" class="edge">
<title>Node10&#45;&gt;Node12</title>
<path fill="none" stroke="midnightblue" d="M586.97,-117.66C650.93,-112.64 751.81,-100.94 779.5,-76 795.75,-61.36 798.42,-33.68 798.66,-19.64"/>
<polygon fill="midnightblue" stroke="midnightblue" points="586.36,-114.2 576.65,-118.44 586.89,-121.18 586.36,-114.2"/>
</g>
<!-- Node13 -->
<g id="node13" class="node">
<title>Node13</title>
<g id="a_node13"><a xlink:href="../../d0/d91/_a_s_t_8cpp.html" target="_top" xlink:title=" ">
<polygon fill="none" stroke="black" points="561,-56.5 561,-75.5 632,-75.5 632,-56.5 561,-56.5"/>
<text text-anchor="middle" x="596.5" y="-63.5" font-family="Helvetica,sans-Serif" font-size="10.00">src/AST.cpp</text>
</a>
</g>
</g>
<!-- Node10&#45;&gt;Node13 -->
<g id="edge14" class="edge">
<title>Node10&#45;&gt;Node13</title>
<path fill="none" stroke="midnightblue" d="M550.49,-105.82C561.96,-96.15 576.41,-83.95 586.03,-75.83"/>
<polygon fill="midnightblue" stroke="midnightblue" points="548.17,-103.2 542.78,-112.32 552.68,-108.55 548.17,-103.2"/>
</g>
<!-- Node10&#45;&gt;Node14 -->
<g id="edge17" class="edge">
<title>Node10&#45;&gt;Node14</title>
<path fill="none" stroke="midnightblue" d="M586.77,-112.37C643.19,-103.38 734.05,-88.84 812.5,-76 817.19,-75.23 822.11,-74.42 826.99,-73.61"/>
<polygon fill="midnightblue" stroke="midnightblue" points="585.97,-108.96 576.64,-113.99 587.07,-115.87 585.97,-108.96"/>
</g>
<!-- Node11&#45;&gt;Node6 -->
<g id="edge12" class="edge">
<title>Node11&#45;&gt;Node6</title>
<path fill="none" stroke="midnightblue" d="M672.38,-53.44C638.82,-43.26 590.73,-28.66 560.57,-19.52"/>
<polygon fill="midnightblue" stroke="midnightblue" points="671.71,-56.89 682.3,-56.44 673.74,-50.19 671.71,-56.89"/>
</g>
<!-- Node11&#45;&gt;Node12 -->
<g id="edge11" class="edge">
<title>Node11&#45;&gt;Node12</title>
<path fill="none" stroke="midnightblue" d="M733.48,-50.9C749.61,-41 770.68,-28.07 784.4,-19.65"/>
<polygon fill="midnightblue" stroke="midnightblue" points="731.33,-48.11 724.64,-56.32 734.99,-54.08 731.33,-48.11"/>
</g>
</g>
</svg>
