<?xml version="1.0" encoding="UTF-8" standalone="no"?>
<!DOCTYPE svg PUBLIC "-//W3C//DTD SVG 1.1//EN"
 "http://www.w3.org/Graphics/SVG/1.1/DTD/svg11.dtd">
<!-- Generated by graphviz version 3.0.0 (20220413.0106)
 -->
<!-- Title: ASTFactory::createAST Pages: 1 -->
<svg width="3365pt" height="1032pt"
 viewBox="0.00 0.00 3365.00 1032.35" xmlns="http://www.w3.org/2000/svg" xmlns:xlink="http://www.w3.org/1999/xlink">
<g id="graph0" class="graph" transform="scale(1 1) rotate(0) translate(4 1028.35)">
<title>ASTFactory::createAST</title>
<!-- Node1 -->
<g id="node1" class="node">
<title>Node1</title>
<g id="a_node1"><a xlink:title=" ">
<polygon fill="#bfbfbf" stroke="black" points="3238,-561.14 3238,-580.14 3357,-580.14 3357,-561.14 3238,-561.14"/>
<text text-anchor="middle" x="3297.5" y="-568.14" font-family="Helvetica,sans-Serif" font-size="10.00">ASTFactory::createAST</text>
</a>
</g>
</g>
<!-- Node2 -->
<g id="node2" class="node">
<title>Node2</title>
<g id="a_node2"><a xlink:href="../../d7/d7c/class_a_s_t_factory.html#aa4647507a830972309beb5db2d84ce96" target="_top" xlink:title="Возвращает &quot;глубокую копию&quot; указателя на тип typePtr.">
<polygon fill="none" stroke="black" points="3046.5,-808.14 3046.5,-827.14 3199.5,-827.14 3199.5,-808.14 3046.5,-808.14"/>
<text text-anchor="middle" x="3123" y="-815.14" font-family="Helvetica,sans-Serif" font-size="10.00">ASTFactory::createCopyOfType</text>
</a>
</g>
</g>
<!-- Node1&#45;&gt;Node2 -->
<g id="edge1" class="edge">
<title>Node1&#45;&gt;Node2</title>
<path fill="none" stroke="midnightblue" d="M3293.79,-590.41C3286.81,-633.71 3264.18,-737.52 3202,-793.64 3194.95,-800 3186.25,-804.67 3177.25,-808.11"/>
<polygon fill="midnightblue" stroke="midnightblue" points="3297.28,-590.74 3295.3,-580.33 3290.36,-589.7 3297.28,-590.74"/>
</g>
<!-- Node3 -->
<g id="node3" class="node">
<title>Node3</title>
<g id="a_node3"><a xlink:href="../../d0/dfe/class_syntax_analyzer.html#a51ff8c81c92f9f81aacae95e4c12d00a" target="_top" xlink:title=" ">
<polygon fill="none" stroke="black" points="2859,-864.14 2859,-883.14 3008,-883.14 3008,-864.14 2859,-864.14"/>
<text text-anchor="middle" x="2933.5" y="-871.14" font-family="Helvetica,sans-Serif" font-size="10.00">SyntaxAnalyzer::syntaxVarDecl</text>
</a>
</g>
</g>
<!-- Node1&#45;&gt;Node3 -->
<g id="edge70" class="edge">
<title>Node1&#45;&gt;Node3</title>
<path fill="none" stroke="midnightblue" d="M3296.78,-590.4C3296.34,-643.29 3287.08,-788.58 3202,-854.64 3172.77,-877.34 3076.66,-879.17 3008.02,-877.3"/>
<polygon fill="midnightblue" stroke="midnightblue" points="3300.28,-590.31 3296.76,-580.31 3293.28,-590.32 3300.28,-590.31"/>
</g>
<!-- Node4 -->
<g id="node4" class="node">
<title>Node4</title>
<g id="a_node4"><a xlink:href="../../d0/dfe/class_syntax_analyzer.html#a4dc8338b4fc879f36e63f27fe3ce7041" target="_top" xlink:title=" ">
<polygon fill="none" stroke="black" points="654,-883.14 654,-902.14 806,-902.14 806,-883.14 654,-883.14"/>
<text text-anchor="middle" x="730" y="-890.14" font-family="Helvetica,sans-Serif" font-size="10.00">SyntaxAnalyzer::syntaxFuncDef</text>
</a>
</g>
</g>
<!-- Node1&#45;&gt;Node4 -->
<g id="edge58" class="edge">
<title>Node1&#45;&gt;Node4</title>
<path fill="none" stroke="midnightblue" d="M3294.54,-590.61C3287.13,-661.78 3258.32,-901.36 3202,-948.64 3110.71,-1025.27 3053.69,-967.64 2934.5,-967.64 2934.5,-967.64 2934.5,-967.64 1102.5,-967.64 971.89,-967.64 820.47,-922.55 759.04,-902.29"/>
<polygon fill="midnightblue" stroke="midnightblue" points="3298.06,-590.65 3295.58,-580.35 3291.09,-589.94 3298.06,-590.65"/>
</g>
<!-- Node5 -->
<g id="node5" class="node">
<title>Node5</title>
<g id="a_node5"><a xlink:href="../../d0/dfe/class_syntax_analyzer.html#ada547456d19f4a7490f57f7dc9bfed94" target="_top" xlink:title=" ">
<polygon fill="none" stroke="black" points="466,-883.14 466,-902.14 618,-902.14 618,-883.14 466,-883.14"/>
<text text-anchor="middle" x="542" y="-890.14" font-family="Helvetica,sans-Serif" font-size="10.00">SyntaxAnalyzer::syntaxProgram</text>
</a>
</g>
</g>
<!-- Node1&#45;&gt;Node5 -->
<g id="edge61" class="edge">
<title>Node1&#45;&gt;Node5</title>
<path fill="none" stroke="midnightblue" d="M3294.92,-590.82C3288.57,-666.12 3262.37,-929 3202,-981.64 3112.03,-1060.09 3053.87,-1005.64 2934.5,-1005.64 2934.5,-1005.64 2934.5,-1005.64 911,-1005.64 770.65,-1005.64 612.93,-929.6 560.78,-902.27"/>
<polygon fill="midnightblue" stroke="midnightblue" points="3298.44,-590.66 3295.77,-580.41 3291.47,-590.09 3298.44,-590.66"/>
</g>
<!-- Node12 -->
<g id="node12" class="node">
<title>Node12</title>
<g id="a_node12"><a xlink:href="../../d0/dfe/class_syntax_analyzer.html#a500e4e0cd0605ebbee4ab452948fa2ca" target="_top" xlink:title=" ">
<polygon fill="none" stroke="black" points="842,-784.14 842,-803.14 982,-803.14 982,-784.14 842,-784.14"/>
<text text-anchor="middle" x="912" y="-791.14" font-family="Helvetica,sans-Serif" font-size="10.00">SyntaxAnalyzer::syntaxBlock</text>
</a>
</g>
</g>
<!-- Node1&#45;&gt;Node12 -->
<g id="edge29" class="edge">
<title>Node1&#45;&gt;Node12</title>
<path fill="none" stroke="midnightblue" d="M3291.81,-590.36C3282,-626.87 3255.65,-704.65 3202,-741.64 3103.13,-809.79 3054.58,-779.64 2934.5,-779.64 2934.5,-779.64 2934.5,-779.64 1298.5,-779.64 1187.83,-779.64 1059.41,-785.47 982.26,-789.61"/>
<polygon fill="midnightblue" stroke="midnightblue" points="3295.26,-590.99 3294.33,-580.44 3288.47,-589.27 3295.26,-590.99"/>
</g>
<!-- Node13 -->
<g id="node13" class="node">
<title>Node13</title>
<g id="a_node13"><a xlink:href="../../d0/dfe/class_syntax_analyzer.html#a3e87b8ffb5f24f1db097bfb6aaeb8c2d" target="_top" xlink:title=" ">
<polygon fill="none" stroke="black" points="1928,-333.14 1928,-352.14 2083,-352.14 2083,-333.14 1928,-333.14"/>
<text text-anchor="middle" x="2005.5" y="-340.14" font-family="Helvetica,sans-Serif" font-size="10.00">SyntaxAnalyzer::syntaxAssignSt</text>
</a>
</g>
</g>
<!-- Node1&#45;&gt;Node13 -->
<g id="edge15" class="edge">
<title>Node1&#45;&gt;Node13</title>
<path fill="none" stroke="midnightblue" d="M3294.33,-550.83C3286.17,-480.17 3255.13,-242 3202,-190.64 3114.61,-106.15 3056.06,-133.64 2934.5,-133.64 2934.5,-133.64 2934.5,-133.64 2381.5,-133.64 2262.65,-133.64 2218.93,-120.31 2119,-184.64 2059.54,-222.92 2021.93,-304.71 2010.33,-332.87"/>
<polygon fill="midnightblue" stroke="midnightblue" points="3290.88,-551.46 3295.47,-561.01 3297.83,-550.68 3290.88,-551.46"/>
</g>
<!-- Node14 -->
<g id="node14" class="node">
<title>Node14</title>
<g id="a_node14"><a xlink:href="../../d0/dfe/class_syntax_analyzer.html#acef4b19447f253a6e25d762733ca8ede" target="_top" xlink:title=" ">
<polygon fill="none" stroke="black" points="1754.5,-523.14 1754.5,-542.14 1883.5,-542.14 1883.5,-523.14 1754.5,-523.14"/>
<text text-anchor="middle" x="1819" y="-530.14" font-family="Helvetica,sans-Serif" font-size="10.00">SyntaxAnalyzer::syntaxIter</text>
</a>
</g>
</g>
<!-- Node1&#45;&gt;Node14 -->
<g id="edge60" class="edge">
<title>Node1&#45;&gt;Node14</title>
<path fill="none" stroke="midnightblue" d="M3227.52,-576.41C3154.73,-582 3036.62,-589.64 2934.5,-589.64 2934.5,-589.64 2934.5,-589.64 2753.5,-589.64 2425.72,-589.64 2034.4,-554.19 1883.58,-539.2"/>
<polygon fill="midnightblue" stroke="midnightblue" points="3228.23,-579.87 3237.93,-575.61 3227.68,-572.89 3228.23,-579.87"/>
</g>
<!-- Node15 -->
<g id="node15" class="node">
<title>Node15</title>
<g id="a_node15"><a xlink:href="../../d0/dfe/class_syntax_analyzer.html#afd2005539c57ee2575cab3c50d061cd9" target="_top" xlink:title=" ">
<polygon fill="none" stroke="black" points="1571,-551.14 1571,-570.14 1710,-570.14 1710,-551.14 1571,-551.14"/>
<text text-anchor="middle" x="1640.5" y="-558.14" font-family="Helvetica,sans-Serif" font-size="10.00">SyntaxAnalyzer::syntaxForSt</text>
</a>
</g>
</g>
<!-- Node1&#45;&gt;Node15 -->
<g id="edge57" class="edge">
<title>Node1&#45;&gt;Node15</title>
<path fill="none" stroke="midnightblue" d="M3256.58,-583.08C3239.85,-587.91 3220.12,-593.12 3202,-596.64 3084.51,-619.47 3054.18,-627.64 2934.5,-627.64 2934.5,-627.64 2934.5,-627.64 2004.5,-627.64 1879.53,-627.64 1734.33,-588.76 1672.22,-570.24"/>
<polygon fill="midnightblue" stroke="midnightblue" points="3257.96,-586.32 3266.56,-580.14 3255.98,-579.61 3257.96,-586.32"/>
</g>
<!-- Node17 -->
<g id="node17" class="node">
<title>Node17</title>
<g id="a_node17"><a xlink:href="../../d0/dfe/class_syntax_analyzer.html#a44506791ee9420b418715a9e87908aeb" target="_top" xlink:title=" ">
<polygon fill="none" stroke="black" points="1234,-651.14 1234,-670.14 1365,-670.14 1365,-651.14 1234,-651.14"/>
<text text-anchor="middle" x="1299.5" y="-658.14" font-family="Helvetica,sans-Serif" font-size="10.00">SyntaxAnalyzer::syntaxIfSt</text>
</a>
</g>
</g>
<!-- Node1&#45;&gt;Node17 -->
<g id="edge59" class="edge">
<title>Node1&#45;&gt;Node17</title>
<path fill="none" stroke="midnightblue" d="M3289.3,-589.91C3276.73,-620.57 3247.7,-679.82 3202,-707.64 3099.62,-769.94 3054.35,-741.64 2934.5,-741.64 2934.5,-741.64 2934.5,-741.64 1639.5,-741.64 1517.87,-741.64 1378.26,-691.7 1323.88,-670.25"/>
<polygon fill="midnightblue" stroke="midnightblue" points="3292.65,-590.94 3293.05,-580.36 3286.14,-588.38 3292.65,-590.94"/>
</g>
<!-- Node19 -->
<g id="node19" class="node">
<title>Node19</title>
<g id="a_node19"><a xlink:href="../../d0/dfe/class_syntax_analyzer.html#a1390f811b111005b207bd039d2623dd4" target="_top" xlink:title=" ">
<polygon fill="none" stroke="black" points="1018,-551.14 1018,-570.14 1189,-570.14 1189,-551.14 1018,-551.14"/>
<text text-anchor="middle" x="1103.5" y="-558.14" font-family="Helvetica,sans-Serif" font-size="10.00">SyntaxAnalyzer::syntaxCompoundSt</text>
</a>
</g>
</g>
<!-- Node1&#45;&gt;Node19 -->
<g id="edge51" class="edge">
<title>Node1&#45;&gt;Node19</title>
<path fill="none" stroke="midnightblue" d="M3295.8,-550.83C3292.4,-466.79 3274.64,-141.16 3202,-76.64 3157.45,-37.06 2994.09,-57.64 2934.5,-57.64 2934.5,-57.64 2934.5,-57.64 1471.5,-57.64 1217.47,-57.64 1120.56,-481.5 1106.38,-551.04"/>
<polygon fill="midnightblue" stroke="midnightblue" points="3292.31,-551.17 3296.19,-561.03 3299.31,-550.9 3292.31,-551.17"/>
</g>
<!-- Node20 -->
<g id="node20" class="node">
<title>Node20</title>
<g id="a_node20"><a xlink:href="../../d0/dfe/class_syntax_analyzer.html#a4a85e884f3f202c24ce09cc0c0e281b1" target="_top" xlink:title=" ">
<polygon fill="none" stroke="black" points="1225,-475.14 1225,-494.14 1374,-494.14 1374,-475.14 1225,-475.14"/>
<text text-anchor="middle" x="1299.5" y="-482.14" font-family="Helvetica,sans-Serif" font-size="10.00">SyntaxAnalyzer::syntaxWhileSt</text>
</a>
</g>
</g>
<!-- Node1&#45;&gt;Node20 -->
<g id="edge75" class="edge">
<title>Node1&#45;&gt;Node20</title>
<path fill="none" stroke="midnightblue" d="M3295.28,-550.87C3290.03,-472.39 3266.54,-184.17 3202,-125.64 3113.38,-45.27 3054.13,-95.64 2934.5,-95.64 2934.5,-95.64 2934.5,-95.64 1639.5,-95.64 1431.67,-95.64 1322.12,-415.12 1303.4,-475.02"/>
<polygon fill="midnightblue" stroke="midnightblue" points="3291.79,-551.12 3295.93,-560.88 3298.78,-550.67 3291.79,-551.12"/>
</g>
<!-- Node21 -->
<g id="node21" class="node">
<title>Node21</title>
<g id="a_node21"><a xlink:href="../../d0/dfe/class_syntax_analyzer.html#a21f6ed68cce9f38063319d350afc1239" target="_top" xlink:title=" ">
<polygon fill="none" stroke="black" points="3052.5,-485.14 3052.5,-504.14 3193.5,-504.14 3193.5,-485.14 3052.5,-485.14"/>
<text text-anchor="middle" x="3123" y="-492.14" font-family="Helvetica,sans-Serif" font-size="10.00">SyntaxAnalyzer::syntaxCallSt</text>
</a>
</g>
</g>
<!-- Node1&#45;&gt;Node21 -->
<g id="edge30" class="edge">
<title>Node1&#45;&gt;Node21</title>
<path fill="none" stroke="midnightblue" d="M3265.48,-556.97C3230.91,-541.74 3175.9,-517.51 3145.67,-504.19"/>
<polygon fill="midnightblue" stroke="midnightblue" points="3264.09,-560.18 3274.65,-561.01 3266.91,-553.78 3264.09,-560.18"/>
</g>
<!-- Node22 -->
<g id="node22" class="node">
<title>Node22</title>
<g id="a_node22"><a xlink:href="../../d0/dfe/class_syntax_analyzer.html#a0d5fca8c5ec85c61bcf65df3693ce384" target="_top" xlink:title=" ">
<polygon fill="none" stroke="black" points="2862,-390.14 2862,-409.14 3005,-409.14 3005,-390.14 2862,-390.14"/>
<text text-anchor="middle" x="2933.5" y="-397.14" font-family="Helvetica,sans-Serif" font-size="10.00">SyntaxAnalyzer::syntaxFactor</text>
</a>
</g>
</g>
<!-- Node1&#45;&gt;Node22 -->
<g id="edge56" class="edge">
<title>Node1&#45;&gt;Node22</title>
<path fill="none" stroke="midnightblue" d="M3283.39,-552.71C3266.79,-531.28 3236.2,-495.79 3202,-475.64 3139.92,-439.06 3059.3,-419.3 3002.86,-409.18"/>
<polygon fill="midnightblue" stroke="midnightblue" points="3280.8,-555.08 3289.62,-560.95 3286.38,-550.86 3280.8,-555.08"/>
</g>
<!-- Node23 -->
<g id="node23" class="node">
<title>Node23</title>
<g id="a_node23"><a xlink:href="../../d0/dfe/class_syntax_analyzer.html#a1f83850370eb120ec67a6cc19ce99e2e" target="_top" xlink:title=" ">
<polygon fill="none" stroke="black" points="2686,-314.14 2686,-333.14 2823,-333.14 2823,-314.14 2686,-314.14"/>
<text text-anchor="middle" x="2754.5" y="-321.14" font-family="Helvetica,sans-Serif" font-size="10.00">SyntaxAnalyzer::syntaxTerm</text>
</a>
</g>
</g>
<!-- Node1&#45;&gt;Node23 -->
<g id="edge65" class="edge">
<title>Node1&#45;&gt;Node23</title>
<path fill="none" stroke="midnightblue" d="M3290.66,-551.39C3279.38,-517.7 3251.28,-448.37 3202,-413.64 3087.27,-332.78 2916.99,-320.78 2823.34,-321.03"/>
<polygon fill="midnightblue" stroke="midnightblue" points="3287.35,-552.53 3293.73,-560.98 3294.01,-550.39 3287.35,-552.53"/>
</g>
<!-- Node24 -->
<g id="node24" class="node">
<title>Node24</title>
<g id="a_node24"><a xlink:href="../../d0/dfe/class_syntax_analyzer.html#a65d458f8a460cd5153c013f9dc2b6d90" target="_top" xlink:title=" ">
<polygon fill="none" stroke="black" points="2486,-314.14 2486,-333.14 2650,-333.14 2650,-314.14 2486,-314.14"/>
<text text-anchor="middle" x="2568" y="-321.14" font-family="Helvetica,sans-Serif" font-size="10.00">SyntaxAnalyzer::syntaxSimpleExpr</text>
</a>
</g>
</g>
<!-- Node1&#45;&gt;Node24 -->
<g id="edge64" class="edge">
<title>Node1&#45;&gt;Node24</title>
<path fill="none" stroke="midnightblue" d="M3294.76,-550.81C3289.64,-505.64 3270.4,-394.96 3202,-342.64 3019.36,-202.92 2915.21,-286.15 2686,-304.64 2663.03,-306.49 2637.76,-310.36 2616.6,-314.13"/>
<polygon fill="midnightblue" stroke="midnightblue" points="3291.28,-551.22 3295.78,-560.81 3298.25,-550.51 3291.28,-551.22"/>
</g>
<!-- Node25 -->
<g id="node25" class="node">
<title>Node25</title>
<g id="a_node25"><a xlink:href="../../d0/dfe/class_syntax_analyzer.html#a3c3f51ab7cdb341ac4fa460e352150ae" target="_top" xlink:title=" ">
<polygon fill="none" stroke="black" points="2315.5,-390.14 2315.5,-409.14 2449.5,-409.14 2449.5,-390.14 2315.5,-390.14"/>
<text text-anchor="middle" x="2382.5" y="-397.14" font-family="Helvetica,sans-Serif" font-size="10.00">SyntaxAnalyzer::syntaxExpr</text>
</a>
</g>
</g>
<!-- Node1&#45;&gt;Node25 -->
<g id="edge55" class="edge">
<title>Node1&#45;&gt;Node25</title>
<path fill="none" stroke="midnightblue" d="M3227.52,-564.86C3154.73,-559.27 3036.62,-551.64 2934.5,-551.64 2934.5,-551.64 2934.5,-551.64 2753.5,-551.64 2602.8,-551.64 2441.73,-442.42 2396.15,-409.15"/>
<polygon fill="midnightblue" stroke="midnightblue" points="3227.68,-568.39 3237.93,-565.67 3228.23,-561.41 3227.68,-568.39"/>
</g>
<!-- Node26 -->
<g id="node26" class="node">
<title>Node26</title>
<g id="a_node26"><a xlink:href="../../d0/dfe/class_syntax_analyzer.html#ad43214817dbe71119316f653b4cbbefb" target="_top" xlink:title=" ">
<polygon fill="none" stroke="black" points="2119,-10.14 2119,-29.14 2279,-29.14 2279,-10.14 2119,-10.14"/>
<text text-anchor="middle" x="2199" y="-17.14" font-family="Helvetica,sans-Serif" font-size="10.00">SyntaxAnalyzer::syntaxConstDecl</text>
</a>
</g>
</g>
<!-- Node1&#45;&gt;Node26 -->
<g id="edge52" class="edge">
<title>Node1&#45;&gt;Node26</title>
<path fill="none" stroke="midnightblue" d="M3296.02,-550.67C3293.48,-463.03 3278.6,-113.78 3202,-43.64 3113.97,36.97 3053.87,-19.64 2934.5,-19.64 2934.5,-19.64 2934.5,-19.64 2567,-19.64 2467.76,-19.64 2353.43,-19.64 2279.11,-19.64"/>
<polygon fill="midnightblue" stroke="midnightblue" points="3292.53,-550.94 3296.29,-560.84 3299.52,-550.75 3292.53,-550.94"/>
</g>
<!-- Node28 -->
<g id="node28" class="node">
<title>Node28</title>
<g id="a_node28"><a xlink:href="../../d0/dfe/class_syntax_analyzer.html#a24dfeabcc9335e5f3f040f7cf0c64fd9" target="_top" xlink:title=" ">
<polygon fill="none" stroke="black" points="2122.5,-656.14 2122.5,-675.14 2275.5,-675.14 2275.5,-656.14 2122.5,-656.14"/>
<text text-anchor="middle" x="2199" y="-663.14" font-family="Helvetica,sans-Serif" font-size="10.00">SyntaxAnalyzer::syntaxReturnSt</text>
</a>
</g>
</g>
<!-- Node1&#45;&gt;Node28 -->
<g id="edge62" class="edge">
<title>Node1&#45;&gt;Node28</title>
<path fill="none" stroke="midnightblue" d="M3280.24,-587.45C3262.69,-604.4 3233.06,-629.7 3202,-641.64 3090.58,-684.46 3053.87,-665.64 2934.5,-665.64 2934.5,-665.64 2934.5,-665.64 2567,-665.64 2466.17,-665.64 2349.76,-665.64 2275.56,-665.64"/>
<polygon fill="midnightblue" stroke="midnightblue" points="3282.78,-589.86 3287.41,-580.33 3277.85,-584.89 3282.78,-589.86"/>
</g>
<!-- Node29 -->
<g id="node29" class="node">
<title>Node29</title>
<g id="a_node29"><a xlink:href="../../d0/dfe/class_syntax_analyzer.html#aee174af1cc97011051b2a8a87d2a5e7d" target="_top" xlink:title=" ">
<polygon fill="none" stroke="black" points="2127.5,-314.14 2127.5,-333.14 2270.5,-333.14 2270.5,-314.14 2127.5,-314.14"/>
<text text-anchor="middle" x="2199" y="-321.14" font-family="Helvetica,sans-Serif" font-size="10.00">SyntaxAnalyzer::syntaxSelect</text>
</a>
</g>
</g>
<!-- Node1&#45;&gt;Node29 -->
<g id="edge63" class="edge">
<title>Node1&#45;&gt;Node29</title>
<path fill="none" stroke="midnightblue" d="M3293.38,-550.87C3283.18,-488.9 3248.75,-300.37 3202,-263.64 3155.17,-226.85 2994.05,-247.64 2934.5,-247.64 2934.5,-247.64 2934.5,-247.64 2567,-247.64 2437.52,-247.64 2287.57,-293.56 2227.22,-314.01"/>
<polygon fill="midnightblue" stroke="midnightblue" points="3289.95,-551.59 3295,-560.9 3296.86,-550.47 3289.95,-551.59"/>
</g>
<!-- Node30 -->
<g id="node30" class="node">
<title>Node30</title>
<g id="a_node30"><a xlink:href="../../d0/dfe/class_syntax_analyzer.html#ac33091b7dd671e839b031a26058096bd" target="_top" xlink:title=" ">
<polygon fill="none" stroke="black" points="2492,-694.14 2492,-713.14 2644,-713.14 2644,-694.14 2492,-694.14"/>
<text text-anchor="middle" x="2568" y="-701.14" font-family="Helvetica,sans-Serif" font-size="10.00">SyntaxAnalyzer::syntaxEmptySt</text>
</a>
</g>
</g>
<!-- Node1&#45;&gt;Node30 -->
<g id="edge53" class="edge">
<title>Node1&#45;&gt;Node30</title>
<path fill="none" stroke="midnightblue" d="M3286.8,-589.32C3272.29,-615.03 3242.27,-660.32 3202,-679.64 3105.51,-725.92 2789.87,-715.7 2644.07,-708.14"/>
<polygon fill="midnightblue" stroke="midnightblue" points="3290.05,-590.68 3291.75,-580.22 3283.9,-587.33 3290.05,-590.68"/>
</g>
<!-- Node31 -->
<g id="node31" class="node">
<title>Node31</title>
<g id="a_node31"><a xlink:href="../../d0/dfe/class_syntax_analyzer.html#a5ef8e691db1611dd73eff73f011b7780" target="_top" xlink:title=" ">
<polygon fill="none" stroke="black" points="3044,-902.14 3044,-921.14 3202,-921.14 3202,-902.14 3044,-902.14"/>
<text text-anchor="middle" x="3123" y="-909.14" font-family="Helvetica,sans-Serif" font-size="10.00">SyntaxAnalyzer::syntaxTypeSpec</text>
</a>
</g>
</g>
<!-- Node1&#45;&gt;Node31 -->
<g id="edge66" class="edge">
<title>Node1&#45;&gt;Node31</title>
<path fill="none" stroke="midnightblue" d="M3296.65,-590.42C3295.98,-645.57 3286.36,-802.54 3202,-887.64 3195.72,-893.98 3187.8,-898.65 3179.44,-902.09"/>
<polygon fill="midnightblue" stroke="midnightblue" points="3300.16,-590.27 3296.69,-580.26 3293.16,-590.25 3300.16,-590.27"/>
</g>
<!-- Node32 -->
<g id="node32" class="node">
<title>Node32</title>
<g id="a_node32"><a xlink:href="../../d0/dfe/class_syntax_analyzer.html#a1aec3b17f02af497c91b295509c6dded" target="_top" xlink:title=" ">
<polygon fill="none" stroke="black" points="3048,-200.14 3048,-219.14 3198,-219.14 3198,-200.14 3048,-200.14"/>
<text text-anchor="middle" x="3123" y="-207.14" font-family="Helvetica,sans-Serif" font-size="10.00">SyntaxAnalyzer::syntaxVariable</text>
</a>
</g>
</g>
<!-- Node1&#45;&gt;Node32 -->
<g id="edge71" class="edge">
<title>Node1&#45;&gt;Node32</title>
<path fill="none" stroke="midnightblue" d="M3297.07,-550.78C3297.61,-493.29 3291.1,-325.01 3202,-233.64 3195.87,-227.35 3188.13,-222.7 3179.92,-219.26"/>
<polygon fill="midnightblue" stroke="midnightblue" points="3293.57,-550.96 3296.89,-561.02 3300.57,-551.09 3293.57,-550.96"/>
</g>
<!-- Node2&#45;&gt;Node2 -->
<g id="edge2" class="edge">
<title>Node2&#45;&gt;Node2</title>
<path fill="none" stroke="midnightblue" d="M3155.56,-835.91C3154.63,-841.38 3143.78,-845.64 3123,-845.64 3092.07,-845.64 3083.13,-836.2 3096.18,-827.4"/>
<polygon fill="midnightblue" stroke="midnightblue" points="3158.31,-833.73 3149.82,-827.4 3152.51,-837.64 3158.31,-833.73"/>
</g>
<!-- Node2&#45;&gt;Node3 -->
<g id="edge3" class="edge">
<title>Node2&#45;&gt;Node3</title>
<path fill="none" stroke="midnightblue" d="M3080,-830.18C3045.58,-840.46 2997.61,-854.79 2966.31,-864.14"/>
<polygon fill="midnightblue" stroke="midnightblue" points="3081.19,-833.48 3089.77,-827.26 3079.18,-826.77 3081.19,-833.48"/>
</g>
<!-- Node3&#45;&gt;Node4 -->
<g id="edge4" class="edge">
<title>Node3&#45;&gt;Node4</title>
<path fill="none" stroke="midnightblue" d="M2848.55,-873.64C2774.88,-873.64 2664.83,-873.64 2569,-873.64 2569,-873.64 2569,-873.64 1102.5,-873.64 999.66,-873.64 881,-880.99 806.01,-886.55"/>
<polygon fill="midnightblue" stroke="midnightblue" points="2848.7,-877.14 2858.7,-873.64 2848.7,-870.14 2848.7,-877.14"/>
</g>
<!-- Node11 -->
<g id="node11" class="node">
<title>Node11</title>
<g id="a_node11"><a xlink:href="../../d0/dfe/class_syntax_analyzer.html#a9a934470c35c197885531feb377ef5bc" target="_top" xlink:title=" ">
<polygon fill="none" stroke="black" points="2315,-819.14 2315,-838.14 2450,-838.14 2450,-819.14 2315,-819.14"/>
<text text-anchor="middle" x="2382.5" y="-826.14" font-family="Helvetica,sans-Serif" font-size="10.00">SyntaxAnalyzer::syntaxVars</text>
</a>
</g>
</g>
<!-- Node3&#45;&gt;Node11 -->
<g id="edge11" class="edge">
<title>Node3&#45;&gt;Node11</title>
<path fill="none" stroke="midnightblue" d="M2852.79,-862.91C2842.77,-861.72 2832.66,-860.6 2823,-859.64 2691.12,-846.57 2536.45,-836.99 2450.24,-832.16"/>
<polygon fill="midnightblue" stroke="midnightblue" points="2852.41,-866.39 2862.76,-864.12 2853.26,-859.44 2852.41,-866.39"/>
</g>
<!-- Node4&#45;&gt;Node5 -->
<g id="edge5" class="edge">
<title>Node4&#45;&gt;Node5</title>
<path fill="none" stroke="midnightblue" d="M643.85,-892.64C635.26,-892.64 626.57,-892.64 618.1,-892.64"/>
<polygon fill="midnightblue" stroke="midnightblue" points="643.88,-896.14 653.88,-892.64 643.88,-889.14 643.88,-896.14"/>
</g>
<!-- Node6 -->
<g id="node6" class="node">
<title>Node6</title>
<g id="a_node6"><a xlink:href="../../d0/dfe/class_syntax_analyzer.html#addbd9bc0fe0dae8cd2ddb4fbafea0fcc" target="_top" xlink:title="Синтаксический анализ токенов, переданных анализатору.">
<polygon fill="none" stroke="black" points="278,-883.14 278,-902.14 430,-902.14 430,-883.14 278,-883.14"/>
<text text-anchor="middle" x="354" y="-890.14" font-family="Helvetica,sans-Serif" font-size="10.00">SyntaxAnalyzer::analyzeTokens</text>
</a>
</g>
</g>
<!-- Node5&#45;&gt;Node6 -->
<g id="edge6" class="edge">
<title>Node5&#45;&gt;Node6</title>
<path fill="none" stroke="midnightblue" d="M455.85,-892.64C447.26,-892.64 438.57,-892.64 430.1,-892.64"/>
<polygon fill="midnightblue" stroke="midnightblue" points="455.88,-896.14 465.88,-892.64 455.88,-889.14 455.88,-896.14"/>
</g>
<!-- Node7 -->
<g id="node7" class="node">
<title>Node7</title>
<g id="a_node7"><a xlink:href="../../d1/d80/namespace_analyze.html#ad5b883abd31a279f5b95a9aa52415437" target="_top" xlink:title="Анализ файла inName и вывод в outName .dot описания ДАС. Так же выводит в стандартный поток вывода по...">
<polygon fill="none" stroke="black" points="139,-902.14 139,-921.14 242,-921.14 242,-902.14 139,-902.14"/>
<text text-anchor="middle" x="190.5" y="-909.14" font-family="Helvetica,sans-Serif" font-size="10.00">Analyze::analyzeFile</text>
</a>
</g>
</g>
<!-- Node6&#45;&gt;Node7 -->
<g id="edge7" class="edge">
<title>Node6&#45;&gt;Node7</title>
<path fill="none" stroke="midnightblue" d="M267.76,-902.67C259.11,-903.68 250.53,-904.69 242.41,-905.65"/>
<polygon fill="midnightblue" stroke="midnightblue" points="268.4,-906.12 277.92,-901.47 267.58,-899.16 268.4,-906.12"/>
</g>
<!-- Node10 -->
<g id="node10" class="node">
<title>Node10</title>
<g id="a_node10"><a xlink:href="../../db/df9/test_semantic_8cpp.html#a804faf7fd199a3c491020f1f2caa618b" target="_top" xlink:title="Тест семантического анализа Паскаля">
<polygon fill="none" stroke="black" points="170,-864.14 170,-883.14 211,-883.14 211,-864.14 170,-864.14"/>
<text text-anchor="middle" x="190.5" y="-871.14" font-family="Helvetica,sans-Serif" font-size="10.00">TEST</text>
</a>
</g>
</g>
<!-- Node6&#45;&gt;Node10 -->
<g id="edge10" class="edge">
<title>Node6&#45;&gt;Node10</title>
<path fill="none" stroke="midnightblue" d="M267.84,-882.62C246.63,-880.12 225.83,-877.68 211.31,-875.97"/>
<polygon fill="midnightblue" stroke="midnightblue" points="267.58,-886.11 277.92,-883.81 268.4,-879.16 267.58,-886.11"/>
</g>
<!-- Node8 -->
<g id="node8" class="node">
<title>Node8</title>
<g id="a_node8"><a xlink:href="../../d1/d80/namespace_analyze.html#af385d2d3d600a7392cb177a3171f193f" target="_top" xlink:title="Анализ файла inName и вывод в &quot;output.svg&quot; .dot описания ДАС. Так же выводит в стандартный поток выво...">
<polygon fill="none" stroke="black" points="0,-921.14 0,-940.14 103,-940.14 103,-921.14 0,-921.14"/>
<text text-anchor="middle" x="51.5" y="-928.14" font-family="Helvetica,sans-Serif" font-size="10.00">Analyze::analyzeFile</text>
</a>
</g>
</g>
<!-- Node7&#45;&gt;Node8 -->
<g id="edge8" class="edge">
<title>Node7&#45;&gt;Node8</title>
<path fill="none" stroke="midnightblue" d="M128.96,-920.03C120.42,-921.22 111.71,-922.43 103.37,-923.58"/>
<polygon fill="midnightblue" stroke="midnightblue" points="129.45,-923.5 138.88,-918.66 128.49,-916.57 129.45,-923.5"/>
</g>
<!-- Node9 -->
<g id="node9" class="node">
<title>Node9</title>
<g id="a_node9"><a xlink:href="../../d3/db4/graph_draw_8cpp.html#a3c04138a5bfe5d72780bb7e82a18e627" target="_top" xlink:title=" ">
<polygon fill="none" stroke="black" points="32.5,-883.14 32.5,-902.14 70.5,-902.14 70.5,-883.14 32.5,-883.14"/>
<text text-anchor="middle" x="51.5" y="-890.14" font-family="Helvetica,sans-Serif" font-size="10.00">main</text>
</a>
</g>
</g>
<!-- Node7&#45;&gt;Node9 -->
<g id="edge9" class="edge">
<title>Node7&#45;&gt;Node9</title>
<path fill="none" stroke="midnightblue" d="M128.92,-903.24C107.72,-900.3 85.5,-897.22 70.52,-895.14"/>
<polygon fill="midnightblue" stroke="midnightblue" points="128.49,-906.71 138.88,-904.62 129.45,-899.78 128.49,-906.71"/>
</g>
<!-- Node11&#45;&gt;Node12 -->
<g id="edge12" class="edge">
<title>Node11&#45;&gt;Node12</title>
<path fill="none" stroke="midnightblue" d="M2304.38,-825.71C2228.58,-823.08 2109.59,-819.64 2006.5,-819.64 2006.5,-819.64 2006.5,-819.64 1298.5,-819.64 1187.65,-819.64 1059.28,-808.8 982.2,-801.12"/>
<polygon fill="midnightblue" stroke="midnightblue" points="2304.67,-829.22 2314.79,-826.07 2304.92,-822.22 2304.67,-829.22"/>
</g>
<!-- Node12&#45;&gt;Node4 -->
<g id="edge13" class="edge">
<title>Node12&#45;&gt;Node4</title>
<path fill="none" stroke="midnightblue" d="M884.6,-808.16C847.27,-828.69 780.05,-865.66 748.39,-883.07"/>
<polygon fill="midnightblue" stroke="midnightblue" points="886.34,-811.2 893.41,-803.31 882.96,-805.06 886.34,-811.2"/>
</g>
<!-- Node12&#45;&gt;Node5 -->
<g id="edge14" class="edge">
<title>Node12&#45;&gt;Node5</title>
<path fill="none" stroke="midnightblue" d="M865.38,-805.91C791.07,-825.9 645.45,-865.08 578.37,-883.12"/>
<polygon fill="midnightblue" stroke="midnightblue" points="866.63,-809.2 875.38,-803.22 864.81,-802.44 866.63,-809.2"/>
</g>
<!-- Node13&#45;&gt;Node14 -->
<g id="edge16" class="edge">
<title>Node13&#45;&gt;Node14</title>
<path fill="none" stroke="midnightblue" d="M1987.92,-359.72C1950.28,-398.48 1859.36,-492.1 1829.61,-522.75"/>
<polygon fill="midnightblue" stroke="midnightblue" points="1990.64,-361.93 1995.1,-352.32 1985.62,-357.06 1990.64,-361.93"/>
</g>
<!-- Node16 -->
<g id="node16" class="node">
<title>Node16</title>
<g id="a_node16"><a xlink:href="../../d0/dfe/class_syntax_analyzer.html#a1332b189c9be3ef8969eda9f078a97b3" target="_top" xlink:title=" ">
<polygon fill="none" stroke="black" points="1410,-551.14 1410,-570.14 1535,-570.14 1535,-551.14 1410,-551.14"/>
<text text-anchor="middle" x="1472.5" y="-558.14" font-family="Helvetica,sans-Serif" font-size="10.00">SyntaxAnalyzer::syntaxSt</text>
</a>
</g>
</g>
<!-- Node13&#45;&gt;Node16 -->
<g id="edge28" class="edge">
<title>Node13&#45;&gt;Node16</title>
<path fill="none" stroke="midnightblue" d="M1917.7,-352.89C1826.28,-366.67 1680.66,-397.32 1571,-461.64 1530.01,-485.68 1494.37,-531.35 1480.12,-551.12"/>
<polygon fill="midnightblue" stroke="midnightblue" points="1918.37,-356.33 1927.75,-351.41 1917.35,-349.4 1918.37,-356.33"/>
</g>
<!-- Node14&#45;&gt;Node15 -->
<g id="edge17" class="edge">
<title>Node14&#45;&gt;Node15</title>
<path fill="none" stroke="midnightblue" d="M1747.8,-543.77C1732.47,-546.21 1716.37,-548.76 1701.48,-551.12"/>
<polygon fill="midnightblue" stroke="midnightblue" points="1748.42,-547.22 1757.75,-542.2 1747.33,-540.31 1748.42,-547.22"/>
</g>
<!-- Node15&#45;&gt;Node16 -->
<g id="edge18" class="edge">
<title>Node15&#45;&gt;Node16</title>
<path fill="none" stroke="midnightblue" d="M1560.27,-553.89C1551.81,-553.87 1543.3,-553.93 1535.09,-554.09"/>
<polygon fill="midnightblue" stroke="midnightblue" points="1560.52,-557.4 1570.54,-553.97 1560.57,-550.4 1560.52,-557.4"/>
</g>
<!-- Node16&#45;&gt;Node15 -->
<g id="edge19" class="edge">
<title>Node16&#45;&gt;Node15</title>
<path fill="none" stroke="midnightblue" d="M1545.23,-567.33C1553.63,-567.42 1562.18,-567.41 1570.54,-567.3"/>
<polygon fill="midnightblue" stroke="midnightblue" points="1545.14,-563.83 1535.09,-567.18 1545.04,-570.83 1545.14,-563.83"/>
</g>
<!-- Node16&#45;&gt;Node17 -->
<g id="edge20" class="edge">
<title>Node16&#45;&gt;Node17</title>
<path fill="none" stroke="midnightblue" d="M1437.67,-574.92C1398.38,-595.72 1335.81,-632.99 1311.07,-650.99"/>
<polygon fill="midnightblue" stroke="midnightblue" points="1439.38,-577.97 1446.64,-570.25 1436.15,-571.76 1439.38,-577.97"/>
</g>
<!-- Node18 -->
<g id="node18" class="node">
<title>Node18</title>
<g id="a_node18"><a xlink:href="../../d0/dfe/class_syntax_analyzer.html#a01d109f26cc4d069b40fed83435e3141" target="_top" xlink:title=" ">
<polygon fill="none" stroke="black" points="1229,-532.14 1229,-551.14 1370,-551.14 1370,-532.14 1229,-532.14"/>
<text text-anchor="middle" x="1299.5" y="-539.14" font-family="Helvetica,sans-Serif" font-size="10.00">SyntaxAnalyzer::syntaxStList</text>
</a>
</g>
</g>
<!-- Node16&#45;&gt;Node18 -->
<g id="edge22" class="edge">
<title>Node16&#45;&gt;Node18</title>
<path fill="none" stroke="midnightblue" d="M1399.72,-552.66C1389.97,-551.58 1379.98,-550.47 1370.27,-549.39"/>
<polygon fill="midnightblue" stroke="midnightblue" points="1399.44,-556.15 1409.77,-553.78 1400.21,-549.2 1399.44,-556.15"/>
</g>
<!-- Node16&#45;&gt;Node20 -->
<g id="edge26" class="edge">
<title>Node16&#45;&gt;Node20</title>
<path fill="none" stroke="midnightblue" d="M1449.38,-546.1C1420.17,-530.69 1368.45,-507.44 1334.32,-494.16"/>
<polygon fill="midnightblue" stroke="midnightblue" points="1447.91,-549.28 1458.37,-550.99 1451.26,-543.13 1447.91,-549.28"/>
</g>
<!-- Node17&#45;&gt;Node16 -->
<g id="edge21" class="edge">
<title>Node17&#45;&gt;Node16</title>
<path fill="none" stroke="midnightblue" d="M1334.42,-646.31C1373.78,-625.47 1436.42,-588.15 1461.06,-570.19"/>
<polygon fill="midnightblue" stroke="midnightblue" points="1332.69,-643.27 1325.44,-650.99 1335.92,-649.48 1332.69,-643.27"/>
</g>
<!-- Node18&#45;&gt;Node19 -->
<g id="edge23" class="edge">
<title>Node18&#45;&gt;Node19</title>
<path fill="none" stroke="midnightblue" d="M1218.7,-549.45C1208.97,-550.41 1199.01,-551.38 1189.21,-552.34"/>
<polygon fill="midnightblue" stroke="midnightblue" points="1219.12,-552.93 1228.74,-548.47 1218.44,-545.96 1219.12,-552.93"/>
</g>
<!-- Node19&#45;&gt;Node12 -->
<g id="edge24" class="edge">
<title>Node19&#45;&gt;Node12</title>
<path fill="none" stroke="midnightblue" d="M1088.14,-578.29C1050.52,-624.55 949.95,-748.21 920.94,-783.88"/>
<polygon fill="midnightblue" stroke="midnightblue" points="1091,-580.32 1094.6,-570.35 1085.57,-575.9 1091,-580.32"/>
</g>
<!-- Node19&#45;&gt;Node16 -->
<g id="edge25" class="edge">
<title>Node19&#45;&gt;Node16</title>
<path fill="none" stroke="midnightblue" d="M1199.36,-560.64C1265.61,-560.64 1352.14,-560.64 1409.66,-560.64"/>
<polygon fill="midnightblue" stroke="midnightblue" points="1199.32,-557.14 1189.32,-560.64 1199.32,-564.14 1199.32,-557.14"/>
</g>
<!-- Node20&#45;&gt;Node16 -->
<g id="edge27" class="edge">
<title>Node20&#45;&gt;Node16</title>
<path fill="none" stroke="midnightblue" d="M1322.69,-499.22C1351.92,-514.63 1403.61,-537.86 1437.72,-551.13"/>
<polygon fill="midnightblue" stroke="midnightblue" points="1324.15,-496.03 1313.69,-494.32 1320.8,-502.17 1324.15,-496.03"/>
</g>
<!-- Node21&#45;&gt;Node16 -->
<g id="edge50" class="edge">
<title>Node21&#45;&gt;Node16</title>
<path fill="none" stroke="midnightblue" d="M3042.29,-491.72C2830.65,-484.83 2237.21,-471.18 1746,-513.64 1663.73,-520.75 1569,-539.52 1515.69,-551.08"/>
<polygon fill="midnightblue" stroke="midnightblue" points="3042.27,-495.22 3052.38,-492.05 3042.5,-488.22 3042.27,-495.22"/>
</g>
<!-- Node21&#45;&gt;Node22 -->
<g id="edge31" class="edge">
<title>Node21&#45;&gt;Node22</title>
<path fill="none" stroke="midnightblue" d="M3093.82,-480.36C3055.06,-460.72 2986.33,-425.9 2953.28,-409.15"/>
<polygon fill="midnightblue" stroke="midnightblue" points="3092.49,-483.61 3102.99,-485.01 3095.65,-477.36 3092.49,-483.61"/>
</g>
<!-- Node22&#45;&gt;Node14 -->
<g id="edge33" class="edge">
<title>Node22&#45;&gt;Node14</title>
<path fill="none" stroke="midnightblue" d="M2851.77,-410.04C2842.08,-411.27 2832.32,-412.49 2823,-413.64 2468.18,-457.37 2042.37,-506.92 1883.68,-525.29"/>
<polygon fill="midnightblue" stroke="midnightblue" points="2852.35,-413.5 2861.83,-408.77 2851.47,-406.55 2852.35,-413.5"/>
</g>
<!-- Node22&#45;&gt;Node22 -->
<g id="edge32" class="edge">
<title>Node22&#45;&gt;Node22</title>
<path fill="none" stroke="midnightblue" d="M2966.86,-417.53C2966.37,-423.18 2955.25,-427.64 2933.5,-427.64 2901.86,-427.64 2892.72,-418.2 2906.07,-409.4"/>
<polygon fill="midnightblue" stroke="midnightblue" points="2969.65,-415.42 2960.93,-409.4 2963.99,-419.54 2969.65,-415.42"/>
</g>
<!-- Node22&#45;&gt;Node23 -->
<g id="edge34" class="edge">
<title>Node22&#45;&gt;Node23</title>
<path fill="none" stroke="midnightblue" d="M2904.71,-385.48C2882.78,-374.54 2851.29,-359.35 2823,-347.64 2810.47,-342.45 2796.38,-337.33 2784.32,-333.16"/>
<polygon fill="midnightblue" stroke="midnightblue" points="2903.27,-388.67 2913.77,-390.03 2906.41,-382.41 2903.27,-388.67"/>
</g>
<!-- Node23&#45;&gt;Node24 -->
<g id="edge35" class="edge">
<title>Node23&#45;&gt;Node24</title>
<path fill="none" stroke="midnightblue" d="M2675.65,-323.64C2667.2,-323.64 2658.59,-323.64 2650.11,-323.64"/>
<polygon fill="midnightblue" stroke="midnightblue" points="2675.85,-327.14 2685.85,-323.64 2675.85,-320.14 2675.85,-327.14"/>
</g>
<!-- Node24&#45;&gt;Node25 -->
<g id="edge36" class="edge">
<title>Node24&#45;&gt;Node25</title>
<path fill="none" stroke="midnightblue" d="M2534.47,-337.11C2497.73,-352.33 2438.85,-376.71 2406.55,-390.09"/>
<polygon fill="midnightblue" stroke="midnightblue" points="2535.86,-340.32 2543.76,-333.26 2533.18,-333.86 2535.86,-340.32"/>
</g>
<!-- Node25&#45;&gt;Node13 -->
<g id="edge37" class="edge">
<title>Node25&#45;&gt;Node13</title>
<path fill="none" stroke="midnightblue" d="M2308.72,-388.58C2239.1,-377.99 2135.19,-362.2 2069.16,-352.16"/>
<polygon fill="midnightblue" stroke="midnightblue" points="2308.32,-392.06 2318.73,-390.1 2309.37,-385.13 2308.32,-392.06"/>
</g>
<!-- Node25&#45;&gt;Node17 -->
<g id="edge43" class="edge">
<title>Node25&#45;&gt;Node17</title>
<path fill="none" stroke="midnightblue" d="M2345.06,-412.59C2264.33,-440.93 2063.93,-509.26 1892,-551.64 1702.66,-598.31 1474.79,-634.89 1365.37,-651.27"/>
<polygon fill="midnightblue" stroke="midnightblue" points="2346.48,-415.8 2354.75,-409.18 2344.16,-409.2 2346.48,-415.8"/>
</g>
<!-- Node25&#45;&gt;Node20 -->
<g id="edge49" class="edge">
<title>Node25&#45;&gt;Node20</title>
<path fill="none" stroke="midnightblue" d="M2305.06,-399.64C2229.28,-399.64 2109.87,-399.64 2006.5,-399.64 2006.5,-399.64 2006.5,-399.64 1639.5,-399.64 1516.63,-399.64 1376.03,-452.82 1322.63,-475.05"/>
<polygon fill="midnightblue" stroke="midnightblue" points="2305.45,-403.14 2315.45,-399.64 2305.45,-396.14 2305.45,-403.14"/>
</g>
<!-- Node25&#45;&gt;Node21 -->
<g id="edge38" class="edge">
<title>Node25&#45;&gt;Node21</title>
<path fill="none" stroke="midnightblue" d="M2459.64,-410.12C2468.53,-411.32 2477.46,-412.51 2486,-413.64 2691.81,-440.8 2935.29,-471.37 3052.33,-485.98"/>
<polygon fill="midnightblue" stroke="midnightblue" points="2460.03,-406.64 2449.65,-408.76 2459.09,-413.57 2460.03,-406.64"/>
</g>
<!-- Node25&#45;&gt;Node22 -->
<g id="edge42" class="edge">
<title>Node25&#45;&gt;Node22</title>
<path fill="none" stroke="midnightblue" d="M2459.63,-399.64C2566.19,-399.64 2758.33,-399.64 2861.85,-399.64"/>
<polygon fill="midnightblue" stroke="midnightblue" points="2459.59,-396.14 2449.59,-399.64 2459.59,-403.14 2459.59,-396.14"/>
</g>
<!-- Node25&#45;&gt;Node26 -->
<g id="edge39" class="edge">
<title>Node25&#45;&gt;Node26</title>
<path fill="none" stroke="midnightblue" d="M2372.44,-380.68C2339.79,-312.31 2228.74,-79.8 2204.64,-29.35"/>
<polygon fill="midnightblue" stroke="midnightblue" points="2369.36,-382.35 2376.83,-389.86 2375.68,-379.33 2369.36,-382.35"/>
</g>
<!-- Node25&#45;&gt;Node28 -->
<g id="edge44" class="edge">
<title>Node25&#45;&gt;Node28</title>
<path fill="none" stroke="midnightblue" d="M2374.91,-419.35C2361.39,-457.78 2327.64,-544.16 2279,-603.64 2260.9,-625.77 2233.57,-644.99 2216.26,-655.95"/>
<polygon fill="midnightblue" stroke="midnightblue" points="2378.38,-420.03 2378.32,-409.44 2371.76,-417.76 2378.38,-420.03"/>
</g>
<!-- Node25&#45;&gt;Node29 -->
<g id="edge46" class="edge">
<title>Node25&#45;&gt;Node29</title>
<path fill="none" stroke="midnightblue" d="M2339.27,-386.67C2331.01,-383.5 2322.57,-379.81 2315,-375.64 2297.25,-365.85 2297,-356.96 2279,-347.64 2267.42,-341.64 2254.09,-336.87 2241.72,-333.22"/>
<polygon fill="midnightblue" stroke="midnightblue" points="2338.22,-390.01 2348.81,-390.13 2340.61,-383.43 2338.22,-390.01"/>
</g>
<!-- Node27 -->
<g id="node27" class="node">
<title>Node27</title>
<g id="a_node27"><a xlink:href="../../d0/dfe/class_syntax_analyzer.html#a177c60c88c15c37d6f5cf0c41a35190b" target="_top" xlink:title=" ">
<polygon fill="none" stroke="black" points="1746,-10.14 1746,-29.14 1892,-29.14 1892,-10.14 1746,-10.14"/>
<text text-anchor="middle" x="1819" y="-17.14" font-family="Helvetica,sans-Serif" font-size="10.00">SyntaxAnalyzer::syntaxConsts</text>
</a>
</g>
</g>
<!-- Node26&#45;&gt;Node27 -->
<g id="edge40" class="edge">
<title>Node26&#45;&gt;Node27</title>
<path fill="none" stroke="midnightblue" d="M2108.36,-19.64C2042.3,-19.64 1953.61,-19.64 1892.11,-19.64"/>
<polygon fill="midnightblue" stroke="midnightblue" points="2108.76,-23.14 2118.76,-19.64 2108.76,-16.14 2108.76,-23.14"/>
</g>
<!-- Node27&#45;&gt;Node12 -->
<g id="edge41" class="edge">
<title>Node27&#45;&gt;Node12</title>
<path fill="none" stroke="midnightblue" d="M1735.7,-19.64C1665.9,-19.64 1563.14,-19.64 1473.5,-19.64 1473.5,-19.64 1473.5,-19.64 1298.5,-19.64 939.34,-19.64 914.8,-695.67 913.12,-784.13"/>
<polygon fill="midnightblue" stroke="midnightblue" points="1735.75,-23.14 1745.75,-19.64 1735.75,-16.14 1735.75,-23.14"/>
</g>
<!-- Node28&#45;&gt;Node16 -->
<g id="edge45" class="edge">
<title>Node28&#45;&gt;Node16</title>
<path fill="none" stroke="midnightblue" d="M2112.18,-667.07C2020.76,-667.2 1872.14,-663.42 1746,-641.64 1652.62,-625.51 1546.03,-588.01 1498.57,-570.27"/>
<polygon fill="midnightblue" stroke="midnightblue" points="2112.23,-670.57 2122.22,-667.04 2112.21,-663.57 2112.23,-670.57"/>
</g>
<!-- Node29&#45;&gt;Node13 -->
<g id="edge47" class="edge">
<title>Node29&#45;&gt;Node13</title>
<path fill="none" stroke="midnightblue" d="M2117.01,-331.67C2105.77,-332.79 2094.24,-333.93 2083.09,-335.04"/>
<polygon fill="midnightblue" stroke="midnightblue" points="2117.63,-335.13 2127.24,-330.66 2116.94,-328.16 2117.63,-335.13"/>
</g>
<!-- Node29&#45;&gt;Node22 -->
<g id="edge48" class="edge">
<title>Node29&#45;&gt;Node22</title>
<path fill="none" stroke="midnightblue" d="M2280.88,-332.03C2425.32,-347.02 2725.28,-378.14 2861.93,-392.32"/>
<polygon fill="midnightblue" stroke="midnightblue" points="2281.06,-328.53 2270.75,-330.98 2280.34,-335.49 2281.06,-328.53"/>
</g>
<!-- Node30&#45;&gt;Node16 -->
<g id="edge54" class="edge">
<title>Node30&#45;&gt;Node16</title>
<path fill="none" stroke="midnightblue" d="M2481.54,-703.64C2407.16,-703.64 2296.45,-703.64 2200,-703.64 2200,-703.64 2200,-703.64 2004.5,-703.64 1808.97,-703.64 1750.85,-705.36 1571,-628.64 1536.07,-613.74 1500.98,-585.13 1484.01,-570.21"/>
<polygon fill="midnightblue" stroke="midnightblue" points="2481.79,-707.14 2491.79,-703.64 2481.79,-700.14 2481.79,-707.14"/>
</g>
<!-- Node31&#45;&gt;Node3 -->
<g id="edge69" class="edge">
<title>Node31&#45;&gt;Node3</title>
<path fill="none" stroke="midnightblue" d="M3064.72,-900.03C3038.05,-894.62 3006.72,-888.27 2981.47,-883.16"/>
<polygon fill="midnightblue" stroke="midnightblue" points="3064.19,-903.49 3074.69,-902.05 3065.58,-896.63 3064.19,-903.49"/>
</g>
<!-- Node31&#45;&gt;Node4 -->
<g id="edge67" class="edge">
<title>Node31&#45;&gt;Node4</title>
<path fill="none" stroke="midnightblue" d="M3033.47,-911.64C2959.24,-911.64 2850.45,-911.64 2755.5,-911.64 2755.5,-911.64 2755.5,-911.64 1102.5,-911.64 999.66,-911.64 881,-904.29 806.01,-898.73"/>
<polygon fill="midnightblue" stroke="midnightblue" points="3033.71,-915.14 3043.71,-911.64 3033.71,-908.14 3033.71,-915.14"/>
</g>
<!-- Node31&#45;&gt;Node31 -->
<g id="edge68" class="edge">
<title>Node31&#45;&gt;Node31</title>
<path fill="none" stroke="midnightblue" d="M3155.56,-929.91C3154.63,-935.38 3143.78,-939.64 3123,-939.64 3092.07,-939.64 3083.13,-930.2 3096.18,-921.4"/>
<polygon fill="midnightblue" stroke="midnightblue" points="3158.31,-927.73 3149.82,-921.4 3152.51,-931.64 3158.31,-927.73"/>
</g>
<!-- Node32&#45;&gt;Node13 -->
<g id="edge72" class="edge">
<title>Node32&#45;&gt;Node13</title>
<path fill="none" stroke="midnightblue" d="M3055.35,-198.55C2982.07,-187.33 2860.74,-171.64 2755.5,-171.64 2755.5,-171.64 2755.5,-171.64 2381.5,-171.64 2224.8,-171.64 2061.77,-296.78 2017.92,-332.95"/>
<polygon fill="midnightblue" stroke="midnightblue" points="3054.95,-202.03 3065.37,-200.1 3056.02,-195.11 3054.95,-202.03"/>
</g>
<!-- Node32&#45;&gt;Node22 -->
<g id="edge73" class="edge">
<title>Node32&#45;&gt;Node22</title>
<path fill="none" stroke="midnightblue" d="M3105.15,-226.72C3066.9,-265.48 2974.5,-359.1 2944.26,-389.75"/>
<polygon fill="midnightblue" stroke="midnightblue" points="3107.91,-228.9 3112.44,-219.32 3102.93,-223.98 3107.91,-228.9"/>
</g>
<!-- Node32&#45;&gt;Node29 -->
<g id="edge74" class="edge">
<title>Node32&#45;&gt;Node29</title>
<path fill="none" stroke="midnightblue" d="M3037.71,-209.64C2963.43,-209.64 2852.28,-209.64 2755.5,-209.64 2755.5,-209.64 2755.5,-209.64 2567,-209.64 2454.49,-209.64 2419.5,-191.96 2315,-233.64 2269.08,-251.95 2226.39,-294.59 2208.65,-313.86"/>
<polygon fill="midnightblue" stroke="midnightblue" points="3037.94,-213.14 3047.94,-209.64 3037.94,-206.14 3037.94,-213.14"/>
</g>
</g>
</svg>
