<?xml version="1.0" encoding="UTF-8" standalone="no"?>
<!DOCTYPE svg PUBLIC "-//W3C//DTD SVG 1.1//EN"
 "http://www.w3.org/Graphics/SVG/1.1/DTD/svg11.dtd">
<!-- Generated by graphviz version 3.0.0 (20220413.0106)
 -->
<!-- Title: ASTFactory::createAST Pages: 1 -->
<svg width="3300pt" height="1032pt"
 viewBox="0.00 0.00 3300.00 1032.35" xmlns="http://www.w3.org/2000/svg" xmlns:xlink="http://www.w3.org/1999/xlink">
<g id="graph0" class="graph" transform="scale(1 1) rotate(0) translate(4 1028.35)">
<title>ASTFactory::createAST</title>
<!-- Node1 -->
<g id="node1" class="node">
<title>Node1</title>
<g id="a_node1"><a xlink:title=" ">
<polygon fill="#bfbfbf" stroke="black" points="3173,-561.14 3173,-580.14 3292,-580.14 3292,-561.14 3173,-561.14"/>
<text text-anchor="middle" x="3232.5" y="-568.14" font-family="Helvetica,sans-Serif" font-size="10.00">ASTFactory::createAST</text>
</a>
</g>
</g>
<!-- Node2 -->
<g id="node2" class="node">
<title>Node2</title>
<g id="a_node2"><a xlink:href="../../d7/d7c/class_a_s_t_factory.html#aa4647507a830972309beb5db2d84ce96" target="_top" xlink:title="Возвращает &quot;глубокую копию&quot; указателя на тип typePtr.">
<polygon fill="none" stroke="black" points="2981.5,-808.14 2981.5,-827.14 3134.5,-827.14 3134.5,-808.14 2981.5,-808.14"/>
<text text-anchor="middle" x="3058" y="-815.14" font-family="Helvetica,sans-Serif" font-size="10.00">ASTFactory::createCopyOfType</text>
</a>
</g>
</g>
<!-- Node1&#45;&gt;Node2 -->
<g id="edge1" class="edge">
<title>Node1&#45;&gt;Node2</title>
<path fill="none" stroke="midnightblue" d="M3228.79,-590.41C3221.81,-633.71 3199.18,-737.52 3137,-793.64 3129.95,-800 3121.25,-804.67 3112.25,-808.11"/>
<polygon fill="midnightblue" stroke="midnightblue" points="3232.28,-590.74 3230.3,-580.33 3225.36,-589.7 3232.28,-590.74"/>
</g>
<!-- Node3 -->
<g id="node3" class="node">
<title>Node3</title>
<g id="a_node3"><a xlink:href="../../d0/dfe/class_syntax_analyzer.html#a51ff8c81c92f9f81aacae95e4c12d00a" target="_top" xlink:title=" ">
<polygon fill="none" stroke="black" points="2794,-864.14 2794,-883.14 2943,-883.14 2943,-864.14 2794,-864.14"/>
<text text-anchor="middle" x="2868.5" y="-871.14" font-family="Helvetica,sans-Serif" font-size="10.00">SyntaxAnalyzer::syntaxVarDecl</text>
</a>
</g>
</g>
<!-- Node1&#45;&gt;Node3 -->
<g id="edge69" class="edge">
<title>Node1&#45;&gt;Node3</title>
<path fill="none" stroke="midnightblue" d="M3231.78,-590.4C3231.34,-643.29 3222.08,-788.58 3137,-854.64 3107.77,-877.34 3011.66,-879.17 2943.02,-877.3"/>
<polygon fill="midnightblue" stroke="midnightblue" points="3235.28,-590.31 3231.76,-580.31 3228.28,-590.32 3235.28,-590.31"/>
</g>
<!-- Node4 -->
<g id="node4" class="node">
<title>Node4</title>
<g id="a_node4"><a xlink:href="../../d0/dfe/class_syntax_analyzer.html#a4dc8338b4fc879f36e63f27fe3ce7041" target="_top" xlink:title=" ">
<polygon fill="none" stroke="black" points="589,-883.14 589,-902.14 741,-902.14 741,-883.14 589,-883.14"/>
<text text-anchor="middle" x="665" y="-890.14" font-family="Helvetica,sans-Serif" font-size="10.00">SyntaxAnalyzer::syntaxFuncDef</text>
</a>
</g>
</g>
<!-- Node1&#45;&gt;Node4 -->
<g id="edge57" class="edge">
<title>Node1&#45;&gt;Node4</title>
<path fill="none" stroke="midnightblue" d="M3229.54,-590.61C3222.13,-661.78 3193.32,-901.36 3137,-948.64 3045.71,-1025.27 2988.69,-967.64 2869.5,-967.64 2869.5,-967.64 2869.5,-967.64 1037.5,-967.64 906.89,-967.64 755.47,-922.55 694.04,-902.29"/>
<polygon fill="midnightblue" stroke="midnightblue" points="3233.06,-590.65 3230.58,-580.35 3226.09,-589.94 3233.06,-590.65"/>
</g>
<!-- Node5 -->
<g id="node5" class="node">
<title>Node5</title>
<g id="a_node5"><a xlink:href="../../d0/dfe/class_syntax_analyzer.html#ada547456d19f4a7490f57f7dc9bfed94" target="_top" xlink:title=" ">
<polygon fill="none" stroke="black" points="401,-883.14 401,-902.14 553,-902.14 553,-883.14 401,-883.14"/>
<text text-anchor="middle" x="477" y="-890.14" font-family="Helvetica,sans-Serif" font-size="10.00">SyntaxAnalyzer::syntaxProgram</text>
</a>
</g>
</g>
<!-- Node1&#45;&gt;Node5 -->
<g id="edge60" class="edge">
<title>Node1&#45;&gt;Node5</title>
<path fill="none" stroke="midnightblue" d="M3229.92,-590.82C3223.57,-666.12 3197.37,-929 3137,-981.64 3047.03,-1060.09 2988.87,-1005.64 2869.5,-1005.64 2869.5,-1005.64 2869.5,-1005.64 846,-1005.64 705.65,-1005.64 547.93,-929.6 495.78,-902.27"/>
<polygon fill="midnightblue" stroke="midnightblue" points="3233.44,-590.66 3230.77,-580.41 3226.47,-590.09 3233.44,-590.66"/>
</g>
<!-- Node11 -->
<g id="node11" class="node">
<title>Node11</title>
<g id="a_node11"><a xlink:href="../../d0/dfe/class_syntax_analyzer.html#a500e4e0cd0605ebbee4ab452948fa2ca" target="_top" xlink:title=" ">
<polygon fill="none" stroke="black" points="777,-784.14 777,-803.14 917,-803.14 917,-784.14 777,-784.14"/>
<text text-anchor="middle" x="847" y="-791.14" font-family="Helvetica,sans-Serif" font-size="10.00">SyntaxAnalyzer::syntaxBlock</text>
</a>
</g>
</g>
<!-- Node1&#45;&gt;Node11 -->
<g id="edge28" class="edge">
<title>Node1&#45;&gt;Node11</title>
<path fill="none" stroke="midnightblue" d="M3226.81,-590.36C3217,-626.87 3190.65,-704.65 3137,-741.64 3038.13,-809.79 2989.58,-779.64 2869.5,-779.64 2869.5,-779.64 2869.5,-779.64 1233.5,-779.64 1122.83,-779.64 994.41,-785.47 917.26,-789.61"/>
<polygon fill="midnightblue" stroke="midnightblue" points="3230.26,-590.99 3229.33,-580.44 3223.47,-589.27 3230.26,-590.99"/>
</g>
<!-- Node12 -->
<g id="node12" class="node">
<title>Node12</title>
<g id="a_node12"><a xlink:href="../../d0/dfe/class_syntax_analyzer.html#a3e87b8ffb5f24f1db097bfb6aaeb8c2d" target="_top" xlink:title=" ">
<polygon fill="none" stroke="black" points="1863,-333.14 1863,-352.14 2018,-352.14 2018,-333.14 1863,-333.14"/>
<text text-anchor="middle" x="1940.5" y="-340.14" font-family="Helvetica,sans-Serif" font-size="10.00">SyntaxAnalyzer::syntaxAssignSt</text>
</a>
</g>
</g>
<!-- Node1&#45;&gt;Node12 -->
<g id="edge14" class="edge">
<title>Node1&#45;&gt;Node12</title>
<path fill="none" stroke="midnightblue" d="M3229.33,-550.83C3221.17,-480.17 3190.13,-242 3137,-190.64 3049.61,-106.15 2991.06,-133.64 2869.5,-133.64 2869.5,-133.64 2869.5,-133.64 2316.5,-133.64 2197.57,-133.64 2153.98,-121.23 2054,-185.64 1994.8,-223.77 1957.02,-304.99 1945.36,-332.95"/>
<polygon fill="midnightblue" stroke="midnightblue" points="3225.88,-551.46 3230.47,-561.01 3232.83,-550.68 3225.88,-551.46"/>
</g>
<!-- Node13 -->
<g id="node13" class="node">
<title>Node13</title>
<g id="a_node13"><a xlink:href="../../d0/dfe/class_syntax_analyzer.html#acef4b19447f253a6e25d762733ca8ede" target="_top" xlink:title=" ">
<polygon fill="none" stroke="black" points="1689.5,-523.14 1689.5,-542.14 1818.5,-542.14 1818.5,-523.14 1689.5,-523.14"/>
<text text-anchor="middle" x="1754" y="-530.14" font-family="Helvetica,sans-Serif" font-size="10.00">SyntaxAnalyzer::syntaxIter</text>
</a>
</g>
</g>
<!-- Node1&#45;&gt;Node13 -->
<g id="edge59" class="edge">
<title>Node1&#45;&gt;Node13</title>
<path fill="none" stroke="midnightblue" d="M3162.52,-576.41C3089.73,-582 2971.62,-589.64 2869.5,-589.64 2869.5,-589.64 2869.5,-589.64 2688.5,-589.64 2360.72,-589.64 1969.4,-554.19 1818.58,-539.2"/>
<polygon fill="midnightblue" stroke="midnightblue" points="3163.23,-579.87 3172.93,-575.61 3162.68,-572.89 3163.23,-579.87"/>
</g>
<!-- Node14 -->
<g id="node14" class="node">
<title>Node14</title>
<g id="a_node14"><a xlink:href="../../d0/dfe/class_syntax_analyzer.html#afd2005539c57ee2575cab3c50d061cd9" target="_top" xlink:title=" ">
<polygon fill="none" stroke="black" points="1506,-551.14 1506,-570.14 1645,-570.14 1645,-551.14 1506,-551.14"/>
<text text-anchor="middle" x="1575.5" y="-558.14" font-family="Helvetica,sans-Serif" font-size="10.00">SyntaxAnalyzer::syntaxForSt</text>
</a>
</g>
</g>
<!-- Node1&#45;&gt;Node14 -->
<g id="edge56" class="edge">
<title>Node1&#45;&gt;Node14</title>
<path fill="none" stroke="midnightblue" d="M3191.58,-583.08C3174.85,-587.91 3155.12,-593.12 3137,-596.64 3019.51,-619.47 2989.18,-627.64 2869.5,-627.64 2869.5,-627.64 2869.5,-627.64 1939.5,-627.64 1814.53,-627.64 1669.33,-588.76 1607.22,-570.24"/>
<polygon fill="midnightblue" stroke="midnightblue" points="3192.96,-586.32 3201.56,-580.14 3190.98,-579.61 3192.96,-586.32"/>
</g>
<!-- Node16 -->
<g id="node16" class="node">
<title>Node16</title>
<g id="a_node16"><a xlink:href="../../d0/dfe/class_syntax_analyzer.html#a44506791ee9420b418715a9e87908aeb" target="_top" xlink:title=" ">
<polygon fill="none" stroke="black" points="1169,-651.14 1169,-670.14 1300,-670.14 1300,-651.14 1169,-651.14"/>
<text text-anchor="middle" x="1234.5" y="-658.14" font-family="Helvetica,sans-Serif" font-size="10.00">SyntaxAnalyzer::syntaxIfSt</text>
</a>
</g>
</g>
<!-- Node1&#45;&gt;Node16 -->
<g id="edge58" class="edge">
<title>Node1&#45;&gt;Node16</title>
<path fill="none" stroke="midnightblue" d="M3224.3,-589.91C3211.73,-620.57 3182.7,-679.82 3137,-707.64 3034.62,-769.94 2989.35,-741.64 2869.5,-741.64 2869.5,-741.64 2869.5,-741.64 1574.5,-741.64 1452.87,-741.64 1313.26,-691.7 1258.88,-670.25"/>
<polygon fill="midnightblue" stroke="midnightblue" points="3227.65,-590.94 3228.05,-580.36 3221.14,-588.38 3227.65,-590.94"/>
</g>
<!-- Node18 -->
<g id="node18" class="node">
<title>Node18</title>
<g id="a_node18"><a xlink:href="../../d0/dfe/class_syntax_analyzer.html#a1390f811b111005b207bd039d2623dd4" target="_top" xlink:title=" ">
<polygon fill="none" stroke="black" points="953,-551.14 953,-570.14 1124,-570.14 1124,-551.14 953,-551.14"/>
<text text-anchor="middle" x="1038.5" y="-558.14" font-family="Helvetica,sans-Serif" font-size="10.00">SyntaxAnalyzer::syntaxCompoundSt</text>
</a>
</g>
</g>
<!-- Node1&#45;&gt;Node18 -->
<g id="edge50" class="edge">
<title>Node1&#45;&gt;Node18</title>
<path fill="none" stroke="midnightblue" d="M3230.8,-550.83C3227.4,-466.79 3209.64,-141.16 3137,-76.64 3092.45,-37.06 2929.09,-57.64 2869.5,-57.64 2869.5,-57.64 2869.5,-57.64 1406.5,-57.64 1152.47,-57.64 1055.56,-481.5 1041.38,-551.04"/>
<polygon fill="midnightblue" stroke="midnightblue" points="3227.31,-551.17 3231.19,-561.03 3234.31,-550.9 3227.31,-551.17"/>
</g>
<!-- Node19 -->
<g id="node19" class="node">
<title>Node19</title>
<g id="a_node19"><a xlink:href="../../d0/dfe/class_syntax_analyzer.html#a4a85e884f3f202c24ce09cc0c0e281b1" target="_top" xlink:title=" ">
<polygon fill="none" stroke="black" points="1160,-475.14 1160,-494.14 1309,-494.14 1309,-475.14 1160,-475.14"/>
<text text-anchor="middle" x="1234.5" y="-482.14" font-family="Helvetica,sans-Serif" font-size="10.00">SyntaxAnalyzer::syntaxWhileSt</text>
</a>
</g>
</g>
<!-- Node1&#45;&gt;Node19 -->
<g id="edge74" class="edge">
<title>Node1&#45;&gt;Node19</title>
<path fill="none" stroke="midnightblue" d="M3230.28,-550.87C3225.03,-472.39 3201.54,-184.17 3137,-125.64 3048.38,-45.27 2989.13,-95.64 2869.5,-95.64 2869.5,-95.64 2869.5,-95.64 1574.5,-95.64 1366.67,-95.64 1257.12,-415.12 1238.4,-475.02"/>
<polygon fill="midnightblue" stroke="midnightblue" points="3226.79,-551.12 3230.93,-560.88 3233.78,-550.67 3226.79,-551.12"/>
</g>
<!-- Node20 -->
<g id="node20" class="node">
<title>Node20</title>
<g id="a_node20"><a xlink:href="../../d0/dfe/class_syntax_analyzer.html#a21f6ed68cce9f38063319d350afc1239" target="_top" xlink:title=" ">
<polygon fill="none" stroke="black" points="2987.5,-485.14 2987.5,-504.14 3128.5,-504.14 3128.5,-485.14 2987.5,-485.14"/>
<text text-anchor="middle" x="3058" y="-492.14" font-family="Helvetica,sans-Serif" font-size="10.00">SyntaxAnalyzer::syntaxCallSt</text>
</a>
</g>
</g>
<!-- Node1&#45;&gt;Node20 -->
<g id="edge29" class="edge">
<title>Node1&#45;&gt;Node20</title>
<path fill="none" stroke="midnightblue" d="M3200.48,-556.97C3165.91,-541.74 3110.9,-517.51 3080.67,-504.19"/>
<polygon fill="midnightblue" stroke="midnightblue" points="3199.09,-560.18 3209.65,-561.01 3201.91,-553.78 3199.09,-560.18"/>
</g>
<!-- Node21 -->
<g id="node21" class="node">
<title>Node21</title>
<g id="a_node21"><a xlink:href="../../d0/dfe/class_syntax_analyzer.html#a0d5fca8c5ec85c61bcf65df3693ce384" target="_top" xlink:title=" ">
<polygon fill="none" stroke="black" points="2797,-390.14 2797,-409.14 2940,-409.14 2940,-390.14 2797,-390.14"/>
<text text-anchor="middle" x="2868.5" y="-397.14" font-family="Helvetica,sans-Serif" font-size="10.00">SyntaxAnalyzer::syntaxFactor</text>
</a>
</g>
</g>
<!-- Node1&#45;&gt;Node21 -->
<g id="edge55" class="edge">
<title>Node1&#45;&gt;Node21</title>
<path fill="none" stroke="midnightblue" d="M3218.39,-552.71C3201.79,-531.28 3171.2,-495.79 3137,-475.64 3074.92,-439.06 2994.3,-419.3 2937.86,-409.18"/>
<polygon fill="midnightblue" stroke="midnightblue" points="3215.8,-555.08 3224.62,-560.95 3221.38,-550.86 3215.8,-555.08"/>
</g>
<!-- Node22 -->
<g id="node22" class="node">
<title>Node22</title>
<g id="a_node22"><a xlink:href="../../d0/dfe/class_syntax_analyzer.html#a1f83850370eb120ec67a6cc19ce99e2e" target="_top" xlink:title=" ">
<polygon fill="none" stroke="black" points="2621,-314.14 2621,-333.14 2758,-333.14 2758,-314.14 2621,-314.14"/>
<text text-anchor="middle" x="2689.5" y="-321.14" font-family="Helvetica,sans-Serif" font-size="10.00">SyntaxAnalyzer::syntaxTerm</text>
</a>
</g>
</g>
<!-- Node1&#45;&gt;Node22 -->
<g id="edge64" class="edge">
<title>Node1&#45;&gt;Node22</title>
<path fill="none" stroke="midnightblue" d="M3225.66,-551.39C3214.38,-517.7 3186.28,-448.37 3137,-413.64 3022.27,-332.78 2851.99,-320.78 2758.34,-321.03"/>
<polygon fill="midnightblue" stroke="midnightblue" points="3222.35,-552.53 3228.73,-560.98 3229.01,-550.39 3222.35,-552.53"/>
</g>
<!-- Node23 -->
<g id="node23" class="node">
<title>Node23</title>
<g id="a_node23"><a xlink:href="../../d0/dfe/class_syntax_analyzer.html#a65d458f8a460cd5153c013f9dc2b6d90" target="_top" xlink:title=" ">
<polygon fill="none" stroke="black" points="2421,-314.14 2421,-333.14 2585,-333.14 2585,-314.14 2421,-314.14"/>
<text text-anchor="middle" x="2503" y="-321.14" font-family="Helvetica,sans-Serif" font-size="10.00">SyntaxAnalyzer::syntaxSimpleExpr</text>
</a>
</g>
</g>
<!-- Node1&#45;&gt;Node23 -->
<g id="edge63" class="edge">
<title>Node1&#45;&gt;Node23</title>
<path fill="none" stroke="midnightblue" d="M3229.76,-550.81C3224.64,-505.64 3205.4,-394.96 3137,-342.64 2954.36,-202.92 2850.21,-286.15 2621,-304.64 2598.03,-306.49 2572.76,-310.36 2551.6,-314.13"/>
<polygon fill="midnightblue" stroke="midnightblue" points="3226.28,-551.22 3230.78,-560.81 3233.25,-550.51 3226.28,-551.22"/>
</g>
<!-- Node24 -->
<g id="node24" class="node">
<title>Node24</title>
<g id="a_node24"><a xlink:href="../../d0/dfe/class_syntax_analyzer.html#a3c3f51ab7cdb341ac4fa460e352150ae" target="_top" xlink:title=" ">
<polygon fill="none" stroke="black" points="2250.5,-390.14 2250.5,-409.14 2384.5,-409.14 2384.5,-390.14 2250.5,-390.14"/>
<text text-anchor="middle" x="2317.5" y="-397.14" font-family="Helvetica,sans-Serif" font-size="10.00">SyntaxAnalyzer::syntaxExpr</text>
</a>
</g>
</g>
<!-- Node1&#45;&gt;Node24 -->
<g id="edge54" class="edge">
<title>Node1&#45;&gt;Node24</title>
<path fill="none" stroke="midnightblue" d="M3162.52,-564.86C3089.73,-559.27 2971.62,-551.64 2869.5,-551.64 2869.5,-551.64 2869.5,-551.64 2688.5,-551.64 2537.8,-551.64 2376.73,-442.42 2331.15,-409.15"/>
<polygon fill="midnightblue" stroke="midnightblue" points="3162.68,-568.39 3172.93,-565.67 3163.23,-561.41 3162.68,-568.39"/>
</g>
<!-- Node25 -->
<g id="node25" class="node">
<title>Node25</title>
<g id="a_node25"><a xlink:href="../../d0/dfe/class_syntax_analyzer.html#ad43214817dbe71119316f653b4cbbefb" target="_top" xlink:title=" ">
<polygon fill="none" stroke="black" points="2054,-10.14 2054,-29.14 2214,-29.14 2214,-10.14 2054,-10.14"/>
<text text-anchor="middle" x="2134" y="-17.14" font-family="Helvetica,sans-Serif" font-size="10.00">SyntaxAnalyzer::syntaxConstDecl</text>
</a>
</g>
</g>
<!-- Node1&#45;&gt;Node25 -->
<g id="edge51" class="edge">
<title>Node1&#45;&gt;Node25</title>
<path fill="none" stroke="midnightblue" d="M3231.02,-550.67C3228.48,-463.03 3213.6,-113.78 3137,-43.64 3048.97,36.97 2988.87,-19.64 2869.5,-19.64 2869.5,-19.64 2869.5,-19.64 2502,-19.64 2402.76,-19.64 2288.43,-19.64 2214.11,-19.64"/>
<polygon fill="midnightblue" stroke="midnightblue" points="3227.53,-550.94 3231.29,-560.84 3234.52,-550.75 3227.53,-550.94"/>
</g>
<!-- Node27 -->
<g id="node27" class="node">
<title>Node27</title>
<g id="a_node27"><a xlink:href="../../d0/dfe/class_syntax_analyzer.html#a24dfeabcc9335e5f3f040f7cf0c64fd9" target="_top" xlink:title=" ">
<polygon fill="none" stroke="black" points="2057.5,-656.14 2057.5,-675.14 2210.5,-675.14 2210.5,-656.14 2057.5,-656.14"/>
<text text-anchor="middle" x="2134" y="-663.14" font-family="Helvetica,sans-Serif" font-size="10.00">SyntaxAnalyzer::syntaxReturnSt</text>
</a>
</g>
</g>
<!-- Node1&#45;&gt;Node27 -->
<g id="edge61" class="edge">
<title>Node1&#45;&gt;Node27</title>
<path fill="none" stroke="midnightblue" d="M3215.24,-587.45C3197.69,-604.4 3168.06,-629.7 3137,-641.64 3025.58,-684.46 2988.87,-665.64 2869.5,-665.64 2869.5,-665.64 2869.5,-665.64 2502,-665.64 2401.17,-665.64 2284.76,-665.64 2210.56,-665.64"/>
<polygon fill="midnightblue" stroke="midnightblue" points="3217.78,-589.86 3222.41,-580.33 3212.85,-584.89 3217.78,-589.86"/>
</g>
<!-- Node28 -->
<g id="node28" class="node">
<title>Node28</title>
<g id="a_node28"><a xlink:href="../../d0/dfe/class_syntax_analyzer.html#aee174af1cc97011051b2a8a87d2a5e7d" target="_top" xlink:title=" ">
<polygon fill="none" stroke="black" points="2062.5,-314.14 2062.5,-333.14 2205.5,-333.14 2205.5,-314.14 2062.5,-314.14"/>
<text text-anchor="middle" x="2134" y="-321.14" font-family="Helvetica,sans-Serif" font-size="10.00">SyntaxAnalyzer::syntaxSelect</text>
</a>
</g>
</g>
<!-- Node1&#45;&gt;Node28 -->
<g id="edge62" class="edge">
<title>Node1&#45;&gt;Node28</title>
<path fill="none" stroke="midnightblue" d="M3228.38,-550.87C3218.18,-488.9 3183.75,-300.37 3137,-263.64 3090.17,-226.85 2929.05,-247.64 2869.5,-247.64 2869.5,-247.64 2869.5,-247.64 2502,-247.64 2372.52,-247.64 2222.57,-293.56 2162.22,-314.01"/>
<polygon fill="midnightblue" stroke="midnightblue" points="3224.95,-551.59 3230,-560.9 3231.86,-550.47 3224.95,-551.59"/>
</g>
<!-- Node29 -->
<g id="node29" class="node">
<title>Node29</title>
<g id="a_node29"><a xlink:href="../../d0/dfe/class_syntax_analyzer.html#ac33091b7dd671e839b031a26058096bd" target="_top" xlink:title=" ">
<polygon fill="none" stroke="black" points="2427,-694.14 2427,-713.14 2579,-713.14 2579,-694.14 2427,-694.14"/>
<text text-anchor="middle" x="2503" y="-701.14" font-family="Helvetica,sans-Serif" font-size="10.00">SyntaxAnalyzer::syntaxEmptySt</text>
</a>
</g>
</g>
<!-- Node1&#45;&gt;Node29 -->
<g id="edge52" class="edge">
<title>Node1&#45;&gt;Node29</title>
<path fill="none" stroke="midnightblue" d="M3221.8,-589.32C3207.29,-615.03 3177.27,-660.32 3137,-679.64 3040.51,-725.92 2724.87,-715.7 2579.07,-708.14"/>
<polygon fill="midnightblue" stroke="midnightblue" points="3225.05,-590.68 3226.75,-580.22 3218.9,-587.33 3225.05,-590.68"/>
</g>
<!-- Node30 -->
<g id="node30" class="node">
<title>Node30</title>
<g id="a_node30"><a xlink:href="../../d0/dfe/class_syntax_analyzer.html#a5ef8e691db1611dd73eff73f011b7780" target="_top" xlink:title=" ">
<polygon fill="none" stroke="black" points="2979,-902.14 2979,-921.14 3137,-921.14 3137,-902.14 2979,-902.14"/>
<text text-anchor="middle" x="3058" y="-909.14" font-family="Helvetica,sans-Serif" font-size="10.00">SyntaxAnalyzer::syntaxTypeSpec</text>
</a>
</g>
</g>
<!-- Node1&#45;&gt;Node30 -->
<g id="edge65" class="edge">
<title>Node1&#45;&gt;Node30</title>
<path fill="none" stroke="midnightblue" d="M3231.65,-590.42C3230.98,-645.57 3221.36,-802.54 3137,-887.64 3130.72,-893.98 3122.8,-898.65 3114.44,-902.09"/>
<polygon fill="midnightblue" stroke="midnightblue" points="3235.16,-590.27 3231.69,-580.26 3228.16,-590.25 3235.16,-590.27"/>
</g>
<!-- Node31 -->
<g id="node31" class="node">
<title>Node31</title>
<g id="a_node31"><a xlink:href="../../d0/dfe/class_syntax_analyzer.html#a1aec3b17f02af497c91b295509c6dded" target="_top" xlink:title=" ">
<polygon fill="none" stroke="black" points="2983,-200.14 2983,-219.14 3133,-219.14 3133,-200.14 2983,-200.14"/>
<text text-anchor="middle" x="3058" y="-207.14" font-family="Helvetica,sans-Serif" font-size="10.00">SyntaxAnalyzer::syntaxVariable</text>
</a>
</g>
</g>
<!-- Node1&#45;&gt;Node31 -->
<g id="edge70" class="edge">
<title>Node1&#45;&gt;Node31</title>
<path fill="none" stroke="midnightblue" d="M3232.07,-550.78C3232.61,-493.29 3226.1,-325.01 3137,-233.64 3130.87,-227.35 3123.13,-222.7 3114.92,-219.26"/>
<polygon fill="midnightblue" stroke="midnightblue" points="3228.57,-550.96 3231.89,-561.02 3235.57,-551.09 3228.57,-550.96"/>
</g>
<!-- Node2&#45;&gt;Node2 -->
<g id="edge2" class="edge">
<title>Node2&#45;&gt;Node2</title>
<path fill="none" stroke="midnightblue" d="M3090.56,-835.91C3089.63,-841.38 3078.78,-845.64 3058,-845.64 3027.07,-845.64 3018.13,-836.2 3031.18,-827.4"/>
<polygon fill="midnightblue" stroke="midnightblue" points="3093.31,-833.73 3084.82,-827.4 3087.51,-837.64 3093.31,-833.73"/>
</g>
<!-- Node2&#45;&gt;Node3 -->
<g id="edge3" class="edge">
<title>Node2&#45;&gt;Node3</title>
<path fill="none" stroke="midnightblue" d="M3015,-830.18C2980.58,-840.46 2932.61,-854.79 2901.31,-864.14"/>
<polygon fill="midnightblue" stroke="midnightblue" points="3016.19,-833.48 3024.77,-827.26 3014.18,-826.77 3016.19,-833.48"/>
</g>
<!-- Node3&#45;&gt;Node4 -->
<g id="edge4" class="edge">
<title>Node3&#45;&gt;Node4</title>
<path fill="none" stroke="midnightblue" d="M2783.55,-873.64C2709.88,-873.64 2599.83,-873.64 2504,-873.64 2504,-873.64 2504,-873.64 1037.5,-873.64 934.66,-873.64 816,-880.99 741.01,-886.55"/>
<polygon fill="midnightblue" stroke="midnightblue" points="2783.7,-877.14 2793.7,-873.64 2783.7,-870.14 2783.7,-877.14"/>
</g>
<!-- Node10 -->
<g id="node10" class="node">
<title>Node10</title>
<g id="a_node10"><a xlink:href="../../d0/dfe/class_syntax_analyzer.html#a9a934470c35c197885531feb377ef5bc" target="_top" xlink:title=" ">
<polygon fill="none" stroke="black" points="2250,-819.14 2250,-838.14 2385,-838.14 2385,-819.14 2250,-819.14"/>
<text text-anchor="middle" x="2317.5" y="-826.14" font-family="Helvetica,sans-Serif" font-size="10.00">SyntaxAnalyzer::syntaxVars</text>
</a>
</g>
</g>
<!-- Node3&#45;&gt;Node10 -->
<g id="edge10" class="edge">
<title>Node3&#45;&gt;Node10</title>
<path fill="none" stroke="midnightblue" d="M2787.79,-862.91C2777.77,-861.72 2767.66,-860.6 2758,-859.64 2626.12,-846.57 2471.45,-836.99 2385.24,-832.16"/>
<polygon fill="midnightblue" stroke="midnightblue" points="2787.41,-866.39 2797.76,-864.12 2788.26,-859.44 2787.41,-866.39"/>
</g>
<!-- Node4&#45;&gt;Node5 -->
<g id="edge5" class="edge">
<title>Node4&#45;&gt;Node5</title>
<path fill="none" stroke="midnightblue" d="M578.85,-892.64C570.26,-892.64 561.57,-892.64 553.1,-892.64"/>
<polygon fill="midnightblue" stroke="midnightblue" points="578.88,-896.14 588.88,-892.64 578.88,-889.14 578.88,-896.14"/>
</g>
<!-- Node6 -->
<g id="node6" class="node">
<title>Node6</title>
<g id="a_node6"><a xlink:href="../../d0/dfe/class_syntax_analyzer.html#addbd9bc0fe0dae8cd2ddb4fbafea0fcc" target="_top" xlink:title="Синтаксический анализ токенов, переданных анализатору.">
<polygon fill="none" stroke="black" points="213,-883.14 213,-902.14 365,-902.14 365,-883.14 213,-883.14"/>
<text text-anchor="middle" x="289" y="-890.14" font-family="Helvetica,sans-Serif" font-size="10.00">SyntaxAnalyzer::analyzeTokens</text>
</a>
</g>
</g>
<!-- Node5&#45;&gt;Node6 -->
<g id="edge6" class="edge">
<title>Node5&#45;&gt;Node6</title>
<path fill="none" stroke="midnightblue" d="M390.85,-892.64C382.26,-892.64 373.57,-892.64 365.1,-892.64"/>
<polygon fill="midnightblue" stroke="midnightblue" points="390.88,-896.14 400.88,-892.64 390.88,-889.14 390.88,-896.14"/>
</g>
<!-- Node7 -->
<g id="node7" class="node">
<title>Node7</title>
<g id="a_node7"><a xlink:href="../../d1/d80/namespace_analyze.html#a1597f9f086c3276d0287917efbed14b8" target="_top" xlink:title=" ">
<polygon fill="none" stroke="black" points="74,-902.14 74,-921.14 177,-921.14 177,-902.14 74,-902.14"/>
<text text-anchor="middle" x="125.5" y="-909.14" font-family="Helvetica,sans-Serif" font-size="10.00">Analyze::analyzeFile</text>
</a>
</g>
</g>
<!-- Node6&#45;&gt;Node7 -->
<g id="edge7" class="edge">
<title>Node6&#45;&gt;Node7</title>
<path fill="none" stroke="midnightblue" d="M202.76,-902.67C194.11,-903.68 185.53,-904.69 177.41,-905.65"/>
<polygon fill="midnightblue" stroke="midnightblue" points="203.4,-906.12 212.92,-901.47 202.58,-899.16 203.4,-906.12"/>
</g>
<!-- Node9 -->
<g id="node9" class="node">
<title>Node9</title>
<g id="a_node9"><a xlink:href="../../db/df9/test_semantic_8cpp.html#a804faf7fd199a3c491020f1f2caa618b" target="_top" xlink:title="Тест семантического анализа Паскаля">
<polygon fill="none" stroke="black" points="105,-864.14 105,-883.14 146,-883.14 146,-864.14 105,-864.14"/>
<text text-anchor="middle" x="125.5" y="-871.14" font-family="Helvetica,sans-Serif" font-size="10.00">TEST</text>
</a>
</g>
</g>
<!-- Node6&#45;&gt;Node9 -->
<g id="edge9" class="edge">
<title>Node6&#45;&gt;Node9</title>
<path fill="none" stroke="midnightblue" d="M202.84,-882.62C181.63,-880.12 160.83,-877.68 146.31,-875.97"/>
<polygon fill="midnightblue" stroke="midnightblue" points="202.58,-886.11 212.92,-883.81 203.4,-879.16 202.58,-886.11"/>
</g>
<!-- Node8 -->
<g id="node8" class="node">
<title>Node8</title>
<g id="a_node8"><a xlink:href="../../d3/db4/graph_draw_8cpp.html#a3c04138a5bfe5d72780bb7e82a18e627" target="_top" xlink:title=" ">
<polygon fill="none" stroke="black" points="0,-902.14 0,-921.14 38,-921.14 38,-902.14 0,-902.14"/>
<text text-anchor="middle" x="19" y="-909.14" font-family="Helvetica,sans-Serif" font-size="10.00">main</text>
</a>
</g>
</g>
<!-- Node7&#45;&gt;Node8 -->
<g id="edge8" class="edge">
<title>Node7&#45;&gt;Node8</title>
<path fill="none" stroke="midnightblue" d="M63.7,-911.64C54.49,-911.64 45.64,-911.64 38.35,-911.64"/>
<polygon fill="midnightblue" stroke="midnightblue" points="63.78,-915.14 73.78,-911.64 63.78,-908.14 63.78,-915.14"/>
</g>
<!-- Node10&#45;&gt;Node11 -->
<g id="edge11" class="edge">
<title>Node10&#45;&gt;Node11</title>
<path fill="none" stroke="midnightblue" d="M2239.38,-825.71C2163.58,-823.08 2044.59,-819.64 1941.5,-819.64 1941.5,-819.64 1941.5,-819.64 1233.5,-819.64 1122.65,-819.64 994.28,-808.8 917.2,-801.12"/>
<polygon fill="midnightblue" stroke="midnightblue" points="2239.67,-829.22 2249.79,-826.07 2239.92,-822.22 2239.67,-829.22"/>
</g>
<!-- Node11&#45;&gt;Node4 -->
<g id="edge12" class="edge">
<title>Node11&#45;&gt;Node4</title>
<path fill="none" stroke="midnightblue" d="M819.6,-808.16C782.27,-828.69 715.05,-865.66 683.39,-883.07"/>
<polygon fill="midnightblue" stroke="midnightblue" points="821.34,-811.2 828.41,-803.31 817.96,-805.06 821.34,-811.2"/>
</g>
<!-- Node11&#45;&gt;Node5 -->
<g id="edge13" class="edge">
<title>Node11&#45;&gt;Node5</title>
<path fill="none" stroke="midnightblue" d="M800.38,-805.91C726.07,-825.9 580.45,-865.08 513.37,-883.12"/>
<polygon fill="midnightblue" stroke="midnightblue" points="801.63,-809.2 810.38,-803.22 799.81,-802.44 801.63,-809.2"/>
</g>
<!-- Node12&#45;&gt;Node13 -->
<g id="edge15" class="edge">
<title>Node12&#45;&gt;Node13</title>
<path fill="none" stroke="midnightblue" d="M1922.92,-359.72C1885.28,-398.48 1794.36,-492.1 1764.61,-522.75"/>
<polygon fill="midnightblue" stroke="midnightblue" points="1925.64,-361.93 1930.1,-352.32 1920.62,-357.06 1925.64,-361.93"/>
</g>
<!-- Node15 -->
<g id="node15" class="node">
<title>Node15</title>
<g id="a_node15"><a xlink:href="../../d0/dfe/class_syntax_analyzer.html#a1332b189c9be3ef8969eda9f078a97b3" target="_top" xlink:title=" ">
<polygon fill="none" stroke="black" points="1345,-551.14 1345,-570.14 1470,-570.14 1470,-551.14 1345,-551.14"/>
<text text-anchor="middle" x="1407.5" y="-558.14" font-family="Helvetica,sans-Serif" font-size="10.00">SyntaxAnalyzer::syntaxSt</text>
</a>
</g>
</g>
<!-- Node12&#45;&gt;Node15 -->
<g id="edge27" class="edge">
<title>Node12&#45;&gt;Node15</title>
<path fill="none" stroke="midnightblue" d="M1852.7,-352.89C1761.28,-366.67 1615.66,-397.32 1506,-461.64 1465.01,-485.68 1429.37,-531.35 1415.12,-551.12"/>
<polygon fill="midnightblue" stroke="midnightblue" points="1853.37,-356.33 1862.75,-351.41 1852.35,-349.4 1853.37,-356.33"/>
</g>
<!-- Node13&#45;&gt;Node14 -->
<g id="edge16" class="edge">
<title>Node13&#45;&gt;Node14</title>
<path fill="none" stroke="midnightblue" d="M1682.8,-543.77C1667.47,-546.21 1651.37,-548.76 1636.48,-551.12"/>
<polygon fill="midnightblue" stroke="midnightblue" points="1683.42,-547.22 1692.75,-542.2 1682.33,-540.31 1683.42,-547.22"/>
</g>
<!-- Node14&#45;&gt;Node15 -->
<g id="edge17" class="edge">
<title>Node14&#45;&gt;Node15</title>
<path fill="none" stroke="midnightblue" d="M1495.27,-553.89C1486.81,-553.87 1478.3,-553.93 1470.09,-554.09"/>
<polygon fill="midnightblue" stroke="midnightblue" points="1495.52,-557.4 1505.54,-553.97 1495.57,-550.4 1495.52,-557.4"/>
</g>
<!-- Node15&#45;&gt;Node14 -->
<g id="edge18" class="edge">
<title>Node15&#45;&gt;Node14</title>
<path fill="none" stroke="midnightblue" d="M1480.23,-567.33C1488.63,-567.42 1497.18,-567.41 1505.54,-567.3"/>
<polygon fill="midnightblue" stroke="midnightblue" points="1480.14,-563.83 1470.09,-567.18 1480.04,-570.83 1480.14,-563.83"/>
</g>
<!-- Node15&#45;&gt;Node16 -->
<g id="edge19" class="edge">
<title>Node15&#45;&gt;Node16</title>
<path fill="none" stroke="midnightblue" d="M1372.67,-574.92C1333.38,-595.72 1270.81,-632.99 1246.07,-650.99"/>
<polygon fill="midnightblue" stroke="midnightblue" points="1374.38,-577.97 1381.64,-570.25 1371.15,-571.76 1374.38,-577.97"/>
</g>
<!-- Node17 -->
<g id="node17" class="node">
<title>Node17</title>
<g id="a_node17"><a xlink:href="../../d0/dfe/class_syntax_analyzer.html#a01d109f26cc4d069b40fed83435e3141" target="_top" xlink:title=" ">
<polygon fill="none" stroke="black" points="1164,-532.14 1164,-551.14 1305,-551.14 1305,-532.14 1164,-532.14"/>
<text text-anchor="middle" x="1234.5" y="-539.14" font-family="Helvetica,sans-Serif" font-size="10.00">SyntaxAnalyzer::syntaxStList</text>
</a>
</g>
</g>
<!-- Node15&#45;&gt;Node17 -->
<g id="edge21" class="edge">
<title>Node15&#45;&gt;Node17</title>
<path fill="none" stroke="midnightblue" d="M1334.72,-552.66C1324.97,-551.58 1314.98,-550.47 1305.27,-549.39"/>
<polygon fill="midnightblue" stroke="midnightblue" points="1334.44,-556.15 1344.77,-553.78 1335.21,-549.2 1334.44,-556.15"/>
</g>
<!-- Node15&#45;&gt;Node19 -->
<g id="edge25" class="edge">
<title>Node15&#45;&gt;Node19</title>
<path fill="none" stroke="midnightblue" d="M1384.38,-546.1C1355.17,-530.69 1303.45,-507.44 1269.32,-494.16"/>
<polygon fill="midnightblue" stroke="midnightblue" points="1382.91,-549.28 1393.37,-550.99 1386.26,-543.13 1382.91,-549.28"/>
</g>
<!-- Node16&#45;&gt;Node15 -->
<g id="edge20" class="edge">
<title>Node16&#45;&gt;Node15</title>
<path fill="none" stroke="midnightblue" d="M1269.42,-646.31C1308.78,-625.47 1371.42,-588.15 1396.06,-570.19"/>
<polygon fill="midnightblue" stroke="midnightblue" points="1267.69,-643.27 1260.44,-650.99 1270.92,-649.48 1267.69,-643.27"/>
</g>
<!-- Node17&#45;&gt;Node18 -->
<g id="edge22" class="edge">
<title>Node17&#45;&gt;Node18</title>
<path fill="none" stroke="midnightblue" d="M1153.7,-549.45C1143.97,-550.41 1134.01,-551.38 1124.21,-552.34"/>
<polygon fill="midnightblue" stroke="midnightblue" points="1154.12,-552.93 1163.74,-548.47 1153.44,-545.96 1154.12,-552.93"/>
</g>
<!-- Node18&#45;&gt;Node11 -->
<g id="edge23" class="edge">
<title>Node18&#45;&gt;Node11</title>
<path fill="none" stroke="midnightblue" d="M1023.14,-578.29C985.52,-624.55 884.95,-748.21 855.94,-783.88"/>
<polygon fill="midnightblue" stroke="midnightblue" points="1026,-580.32 1029.6,-570.35 1020.57,-575.9 1026,-580.32"/>
</g>
<!-- Node18&#45;&gt;Node15 -->
<g id="edge24" class="edge">
<title>Node18&#45;&gt;Node15</title>
<path fill="none" stroke="midnightblue" d="M1134.36,-560.64C1200.61,-560.64 1287.14,-560.64 1344.66,-560.64"/>
<polygon fill="midnightblue" stroke="midnightblue" points="1134.32,-557.14 1124.32,-560.64 1134.32,-564.14 1134.32,-557.14"/>
</g>
<!-- Node19&#45;&gt;Node15 -->
<g id="edge26" class="edge">
<title>Node19&#45;&gt;Node15</title>
<path fill="none" stroke="midnightblue" d="M1257.69,-499.22C1286.92,-514.63 1338.61,-537.86 1372.72,-551.13"/>
<polygon fill="midnightblue" stroke="midnightblue" points="1259.15,-496.03 1248.69,-494.32 1255.8,-502.17 1259.15,-496.03"/>
</g>
<!-- Node20&#45;&gt;Node15 -->
<g id="edge49" class="edge">
<title>Node20&#45;&gt;Node15</title>
<path fill="none" stroke="midnightblue" d="M2977.29,-491.72C2765.65,-484.83 2172.21,-471.18 1681,-513.64 1598.73,-520.75 1504,-539.52 1450.69,-551.08"/>
<polygon fill="midnightblue" stroke="midnightblue" points="2977.27,-495.22 2987.38,-492.05 2977.5,-488.22 2977.27,-495.22"/>
</g>
<!-- Node20&#45;&gt;Node21 -->
<g id="edge30" class="edge">
<title>Node20&#45;&gt;Node21</title>
<path fill="none" stroke="midnightblue" d="M3028.82,-480.36C2990.06,-460.72 2921.33,-425.9 2888.28,-409.15"/>
<polygon fill="midnightblue" stroke="midnightblue" points="3027.49,-483.61 3037.99,-485.01 3030.65,-477.36 3027.49,-483.61"/>
</g>
<!-- Node21&#45;&gt;Node13 -->
<g id="edge32" class="edge">
<title>Node21&#45;&gt;Node13</title>
<path fill="none" stroke="midnightblue" d="M2786.77,-410.04C2777.08,-411.27 2767.32,-412.49 2758,-413.64 2403.18,-457.37 1977.37,-506.92 1818.68,-525.29"/>
<polygon fill="midnightblue" stroke="midnightblue" points="2787.35,-413.5 2796.83,-408.77 2786.47,-406.55 2787.35,-413.5"/>
</g>
<!-- Node21&#45;&gt;Node21 -->
<g id="edge31" class="edge">
<title>Node21&#45;&gt;Node21</title>
<path fill="none" stroke="midnightblue" d="M2901.86,-417.53C2901.37,-423.18 2890.25,-427.64 2868.5,-427.64 2836.86,-427.64 2827.72,-418.2 2841.07,-409.4"/>
<polygon fill="midnightblue" stroke="midnightblue" points="2904.65,-415.42 2895.93,-409.4 2898.99,-419.54 2904.65,-415.42"/>
</g>
<!-- Node21&#45;&gt;Node22 -->
<g id="edge33" class="edge">
<title>Node21&#45;&gt;Node22</title>
<path fill="none" stroke="midnightblue" d="M2839.71,-385.48C2817.78,-374.54 2786.29,-359.35 2758,-347.64 2745.47,-342.45 2731.38,-337.33 2719.32,-333.16"/>
<polygon fill="midnightblue" stroke="midnightblue" points="2838.27,-388.67 2848.77,-390.03 2841.41,-382.41 2838.27,-388.67"/>
</g>
<!-- Node22&#45;&gt;Node23 -->
<g id="edge34" class="edge">
<title>Node22&#45;&gt;Node23</title>
<path fill="none" stroke="midnightblue" d="M2610.65,-323.64C2602.2,-323.64 2593.59,-323.64 2585.11,-323.64"/>
<polygon fill="midnightblue" stroke="midnightblue" points="2610.85,-327.14 2620.85,-323.64 2610.85,-320.14 2610.85,-327.14"/>
</g>
<!-- Node23&#45;&gt;Node24 -->
<g id="edge35" class="edge">
<title>Node23&#45;&gt;Node24</title>
<path fill="none" stroke="midnightblue" d="M2469.47,-337.11C2432.73,-352.33 2373.85,-376.71 2341.55,-390.09"/>
<polygon fill="midnightblue" stroke="midnightblue" points="2470.86,-340.32 2478.76,-333.26 2468.18,-333.86 2470.86,-340.32"/>
</g>
<!-- Node24&#45;&gt;Node12 -->
<g id="edge36" class="edge">
<title>Node24&#45;&gt;Node12</title>
<path fill="none" stroke="midnightblue" d="M2243.72,-388.58C2174.1,-377.99 2070.19,-362.2 2004.16,-352.16"/>
<polygon fill="midnightblue" stroke="midnightblue" points="2243.32,-392.06 2253.73,-390.1 2244.37,-385.13 2243.32,-392.06"/>
</g>
<!-- Node24&#45;&gt;Node16 -->
<g id="edge42" class="edge">
<title>Node24&#45;&gt;Node16</title>
<path fill="none" stroke="midnightblue" d="M2280.06,-412.59C2199.33,-440.93 1998.93,-509.26 1827,-551.64 1637.66,-598.31 1409.79,-634.89 1300.37,-651.27"/>
<polygon fill="midnightblue" stroke="midnightblue" points="2281.48,-415.8 2289.75,-409.18 2279.16,-409.2 2281.48,-415.8"/>
</g>
<!-- Node24&#45;&gt;Node19 -->
<g id="edge48" class="edge">
<title>Node24&#45;&gt;Node19</title>
<path fill="none" stroke="midnightblue" d="M2240.06,-399.64C2164.28,-399.64 2044.87,-399.64 1941.5,-399.64 1941.5,-399.64 1941.5,-399.64 1574.5,-399.64 1451.63,-399.64 1311.03,-452.82 1257.63,-475.05"/>
<polygon fill="midnightblue" stroke="midnightblue" points="2240.45,-403.14 2250.45,-399.64 2240.45,-396.14 2240.45,-403.14"/>
</g>
<!-- Node24&#45;&gt;Node20 -->
<g id="edge37" class="edge">
<title>Node24&#45;&gt;Node20</title>
<path fill="none" stroke="midnightblue" d="M2394.64,-410.12C2403.53,-411.32 2412.46,-412.51 2421,-413.64 2626.81,-440.8 2870.29,-471.37 2987.33,-485.98"/>
<polygon fill="midnightblue" stroke="midnightblue" points="2395.03,-406.64 2384.65,-408.76 2394.09,-413.57 2395.03,-406.64"/>
</g>
<!-- Node24&#45;&gt;Node21 -->
<g id="edge41" class="edge">
<title>Node24&#45;&gt;Node21</title>
<path fill="none" stroke="midnightblue" d="M2394.63,-399.64C2501.19,-399.64 2693.33,-399.64 2796.85,-399.64"/>
<polygon fill="midnightblue" stroke="midnightblue" points="2394.59,-396.14 2384.59,-399.64 2394.59,-403.14 2394.59,-396.14"/>
</g>
<!-- Node24&#45;&gt;Node25 -->
<g id="edge38" class="edge">
<title>Node24&#45;&gt;Node25</title>
<path fill="none" stroke="midnightblue" d="M2307.44,-380.68C2274.79,-312.31 2163.74,-79.8 2139.64,-29.35"/>
<polygon fill="midnightblue" stroke="midnightblue" points="2304.36,-382.35 2311.83,-389.86 2310.68,-379.33 2304.36,-382.35"/>
</g>
<!-- Node24&#45;&gt;Node27 -->
<g id="edge43" class="edge">
<title>Node24&#45;&gt;Node27</title>
<path fill="none" stroke="midnightblue" d="M2309.91,-419.35C2296.39,-457.78 2262.64,-544.16 2214,-603.64 2195.9,-625.77 2168.57,-644.99 2151.26,-655.95"/>
<polygon fill="midnightblue" stroke="midnightblue" points="2313.38,-420.03 2313.32,-409.44 2306.76,-417.76 2313.38,-420.03"/>
</g>
<!-- Node24&#45;&gt;Node28 -->
<g id="edge45" class="edge">
<title>Node24&#45;&gt;Node28</title>
<path fill="none" stroke="midnightblue" d="M2274.27,-386.67C2266.01,-383.5 2257.57,-379.81 2250,-375.64 2232.25,-365.85 2232,-356.96 2214,-347.64 2202.42,-341.64 2189.09,-336.87 2176.72,-333.22"/>
<polygon fill="midnightblue" stroke="midnightblue" points="2273.22,-390.01 2283.81,-390.13 2275.61,-383.43 2273.22,-390.01"/>
</g>
<!-- Node26 -->
<g id="node26" class="node">
<title>Node26</title>
<g id="a_node26"><a xlink:href="../../d0/dfe/class_syntax_analyzer.html#a177c60c88c15c37d6f5cf0c41a35190b" target="_top" xlink:title=" ">
<polygon fill="none" stroke="black" points="1681,-10.14 1681,-29.14 1827,-29.14 1827,-10.14 1681,-10.14"/>
<text text-anchor="middle" x="1754" y="-17.14" font-family="Helvetica,sans-Serif" font-size="10.00">SyntaxAnalyzer::syntaxConsts</text>
</a>
</g>
</g>
<!-- Node25&#45;&gt;Node26 -->
<g id="edge39" class="edge">
<title>Node25&#45;&gt;Node26</title>
<path fill="none" stroke="midnightblue" d="M2043.36,-19.64C1977.3,-19.64 1888.61,-19.64 1827.11,-19.64"/>
<polygon fill="midnightblue" stroke="midnightblue" points="2043.76,-23.14 2053.76,-19.64 2043.76,-16.14 2043.76,-23.14"/>
</g>
<!-- Node26&#45;&gt;Node11 -->
<g id="edge40" class="edge">
<title>Node26&#45;&gt;Node11</title>
<path fill="none" stroke="midnightblue" d="M1670.7,-19.64C1600.9,-19.64 1498.14,-19.64 1408.5,-19.64 1408.5,-19.64 1408.5,-19.64 1233.5,-19.64 874.34,-19.64 849.8,-695.67 848.12,-784.13"/>
<polygon fill="midnightblue" stroke="midnightblue" points="1670.75,-23.14 1680.75,-19.64 1670.75,-16.14 1670.75,-23.14"/>
</g>
<!-- Node27&#45;&gt;Node15 -->
<g id="edge44" class="edge">
<title>Node27&#45;&gt;Node15</title>
<path fill="none" stroke="midnightblue" d="M2047.18,-667.07C1955.76,-667.2 1807.14,-663.42 1681,-641.64 1587.62,-625.51 1481.03,-588.01 1433.57,-570.27"/>
<polygon fill="midnightblue" stroke="midnightblue" points="2047.23,-670.57 2057.22,-667.04 2047.21,-663.57 2047.23,-670.57"/>
</g>
<!-- Node28&#45;&gt;Node12 -->
<g id="edge46" class="edge">
<title>Node28&#45;&gt;Node12</title>
<path fill="none" stroke="midnightblue" d="M2052.01,-331.67C2040.77,-332.79 2029.24,-333.93 2018.09,-335.04"/>
<polygon fill="midnightblue" stroke="midnightblue" points="2052.63,-335.13 2062.24,-330.66 2051.94,-328.16 2052.63,-335.13"/>
</g>
<!-- Node28&#45;&gt;Node21 -->
<g id="edge47" class="edge">
<title>Node28&#45;&gt;Node21</title>
<path fill="none" stroke="midnightblue" d="M2215.88,-332.03C2360.32,-347.02 2660.28,-378.14 2796.93,-392.32"/>
<polygon fill="midnightblue" stroke="midnightblue" points="2216.06,-328.53 2205.75,-330.98 2215.34,-335.49 2216.06,-328.53"/>
</g>
<!-- Node29&#45;&gt;Node15 -->
<g id="edge53" class="edge">
<title>Node29&#45;&gt;Node15</title>
<path fill="none" stroke="midnightblue" d="M2416.54,-703.64C2342.16,-703.64 2231.45,-703.64 2135,-703.64 2135,-703.64 2135,-703.64 1939.5,-703.64 1743.97,-703.64 1685.85,-705.36 1506,-628.64 1471.07,-613.74 1435.98,-585.13 1419.01,-570.21"/>
<polygon fill="midnightblue" stroke="midnightblue" points="2416.79,-707.14 2426.79,-703.64 2416.79,-700.14 2416.79,-707.14"/>
</g>
<!-- Node30&#45;&gt;Node3 -->
<g id="edge68" class="edge">
<title>Node30&#45;&gt;Node3</title>
<path fill="none" stroke="midnightblue" d="M2999.72,-900.03C2973.05,-894.62 2941.72,-888.27 2916.47,-883.16"/>
<polygon fill="midnightblue" stroke="midnightblue" points="2999.19,-903.49 3009.69,-902.05 3000.58,-896.63 2999.19,-903.49"/>
</g>
<!-- Node30&#45;&gt;Node4 -->
<g id="edge66" class="edge">
<title>Node30&#45;&gt;Node4</title>
<path fill="none" stroke="midnightblue" d="M2968.47,-911.64C2894.24,-911.64 2785.45,-911.64 2690.5,-911.64 2690.5,-911.64 2690.5,-911.64 1037.5,-911.64 934.66,-911.64 816,-904.29 741.01,-898.73"/>
<polygon fill="midnightblue" stroke="midnightblue" points="2968.71,-915.14 2978.71,-911.64 2968.71,-908.14 2968.71,-915.14"/>
</g>
<!-- Node30&#45;&gt;Node30 -->
<g id="edge67" class="edge">
<title>Node30&#45;&gt;Node30</title>
<path fill="none" stroke="midnightblue" d="M3090.56,-929.91C3089.63,-935.38 3078.78,-939.64 3058,-939.64 3027.07,-939.64 3018.13,-930.2 3031.18,-921.4"/>
<polygon fill="midnightblue" stroke="midnightblue" points="3093.31,-927.73 3084.82,-921.4 3087.51,-931.64 3093.31,-927.73"/>
</g>
<!-- Node31&#45;&gt;Node12 -->
<g id="edge71" class="edge">
<title>Node31&#45;&gt;Node12</title>
<path fill="none" stroke="midnightblue" d="M2990.35,-198.55C2917.07,-187.33 2795.74,-171.64 2690.5,-171.64 2690.5,-171.64 2690.5,-171.64 2316.5,-171.64 2159.8,-171.64 1996.77,-296.78 1952.92,-332.95"/>
<polygon fill="midnightblue" stroke="midnightblue" points="2989.95,-202.03 3000.37,-200.1 2991.02,-195.11 2989.95,-202.03"/>
</g>
<!-- Node31&#45;&gt;Node21 -->
<g id="edge72" class="edge">
<title>Node31&#45;&gt;Node21</title>
<path fill="none" stroke="midnightblue" d="M3040.15,-226.72C3001.9,-265.48 2909.5,-359.1 2879.26,-389.75"/>
<polygon fill="midnightblue" stroke="midnightblue" points="3042.91,-228.9 3047.44,-219.32 3037.93,-223.98 3042.91,-228.9"/>
</g>
<!-- Node31&#45;&gt;Node28 -->
<g id="edge73" class="edge">
<title>Node31&#45;&gt;Node28</title>
<path fill="none" stroke="midnightblue" d="M2972.71,-209.64C2898.43,-209.64 2787.28,-209.64 2690.5,-209.64 2690.5,-209.64 2690.5,-209.64 2502,-209.64 2389.49,-209.64 2354.5,-191.96 2250,-233.64 2204.08,-251.95 2161.39,-294.59 2143.65,-313.86"/>
<polygon fill="midnightblue" stroke="midnightblue" points="2972.94,-213.14 2982.94,-209.64 2972.94,-206.14 2972.94,-213.14"/>
</g>
</g>
</svg>
