<?xml version="1.0" encoding="UTF-8" standalone="no"?>
<!DOCTYPE svg PUBLIC "-//W3C//DTD SVG 1.1//EN"
 "http://www.w3.org/Graphics/SVG/1.1/DTD/svg11.dtd">
<!-- Generated by graphviz version 3.0.0 (20220413.0106)
 -->
<!-- Title: ASTFactory::createCopyOfType Pages: 1 -->
<svg width="569pt" height="218pt"
 viewBox="0.00 0.00 569.00 218.00" xmlns="http://www.w3.org/2000/svg" xmlns:xlink="http://www.w3.org/1999/xlink">
<g id="graph0" class="graph" transform="scale(1 1) rotate(0) translate(4 214)">
<title>ASTFactory::createCopyOfType</title>
<!-- Node1 -->
<g id="node1" class="node">
<title>Node1</title>
<g id="a_node1"><a xlink:title="Возвращает &quot;глубокую копию&quot; указателя на тип typePtr.">
<polygon fill="#bfbfbf" stroke="black" points="0,-95.5 0,-114.5 153,-114.5 153,-95.5 0,-95.5"/>
<text text-anchor="middle" x="76.5" y="-102.5" font-family="Helvetica,sans-Serif" font-size="10.00">ASTFactory::createCopyOfType</text>
</a>
</g>
</g>
<!-- Node1&#45;&gt;Node1 -->
<g id="edge12" class="edge">
<title>Node1&#45;&gt;Node1</title>
<path fill="none" stroke="midnightblue" d="M49.99,-114.76C37.09,-123.57 45.93,-133 76.5,-133 97.04,-133 107.77,-128.74 108.69,-123.27"/>
<polygon fill="midnightblue" stroke="midnightblue" points="111.47,-121.14 103.01,-114.76 105.64,-125.02 111.47,-121.14"/>
</g>
<!-- Node2 -->
<g id="node2" class="node">
<title>Node2</title>
<g id="a_node2"><a xlink:href="../../d7/d7c/class_a_s_t_factory.html#a31d959009ba9e91a58a5c15e986d130b" target="_top" xlink:title=" ">
<polygon fill="none" stroke="black" points="189,-114.5 189,-133.5 308,-133.5 308,-114.5 189,-114.5"/>
<text text-anchor="middle" x="248.5" y="-121.5" font-family="Helvetica,sans-Serif" font-size="10.00">ASTFactory::createAST</text>
</a>
</g>
</g>
<!-- Node1&#45;&gt;Node2 -->
<g id="edge1" class="edge">
<title>Node1&#45;&gt;Node2</title>
<path fill="none" stroke="midnightblue" d="M153.05,-113.44C161.57,-114.4 170.2,-115.36 178.62,-116.3"/>
<polygon fill="midnightblue" stroke="midnightblue" points="178.44,-119.8 188.76,-117.44 179.21,-112.85 178.44,-119.8"/>
</g>
<!-- Node3 -->
<g id="node3" class="node">
<title>Node3</title>
<g id="a_node3"><a xlink:href="../../d0/d11/class_i_token.html#a3e73305ee0ac36d0bf5f26b649589b24" target="_top" xlink:title=" ">
<polygon fill="none" stroke="black" points="458,-190.5 458,-209.5 561,-209.5 561,-190.5 458,-190.5"/>
<text text-anchor="middle" x="509.5" y="-197.5" font-family="Helvetica,sans-Serif" font-size="10.00">IToken::getAdvType</text>
</a>
</g>
</g>
<!-- Node1&#45;&gt;Node3 -->
<g id="edge13" class="edge">
<title>Node1&#45;&gt;Node3</title>
<path fill="none" stroke="midnightblue" d="M102.93,-114.58C125.36,-122.81 159.06,-134.64 189,-143 256.93,-161.96 274.58,-164.55 344,-177 378.17,-183.13 416.58,-188.58 447.69,-192.63"/>
<polygon fill="midnightblue" stroke="midnightblue" points="447.58,-196.15 457.94,-193.95 448.47,-189.21 447.58,-196.15"/>
</g>
<!-- Node4 -->
<g id="node4" class="node">
<title>Node4</title>
<g id="a_node4"><a xlink:href="../../db/dc1/class_token.html#ab9a75d3f89e77051d87462654e7576de" target="_top" xlink:title=" ">
<polygon fill="none" stroke="black" points="344,-76.5 344,-95.5 422,-95.5 422,-76.5 344,-76.5"/>
<text text-anchor="middle" x="383" y="-83.5" font-family="Helvetica,sans-Serif" font-size="10.00">Token::getInfo</text>
</a>
</g>
</g>
<!-- Node1&#45;&gt;Node4 -->
<g id="edge14" class="edge">
<title>Node1&#45;&gt;Node4</title>
<path fill="none" stroke="midnightblue" d="M153.16,-100.28C209.61,-96.76 285.05,-92.05 333.59,-89.02"/>
<polygon fill="midnightblue" stroke="midnightblue" points="334.06,-92.5 343.82,-88.38 333.63,-85.51 334.06,-92.5"/>
</g>
<!-- Node6 -->
<g id="node6" class="node">
<title>Node6</title>
<g id="a_node6"><a xlink:href="../../d0/d11/class_i_token.html#ac7f0a800d7a9e8608bab0360c76d735a" target="_top" xlink:title="Получение типа токена">
<polygon fill="none" stroke="black" points="466.5,-0.5 466.5,-19.5 552.5,-19.5 552.5,-0.5 466.5,-0.5"/>
<text text-anchor="middle" x="509.5" y="-7.5" font-family="Helvetica,sans-Serif" font-size="10.00">IToken::getType</text>
</a>
</g>
</g>
<!-- Node1&#45;&gt;Node6 -->
<g id="edge15" class="edge">
<title>Node1&#45;&gt;Node6</title>
<path fill="none" stroke="midnightblue" d="M108.81,-95.4C158.33,-80.49 257.94,-51.68 344,-34 381.24,-26.35 423.72,-20.22 456.18,-16.07"/>
<polygon fill="midnightblue" stroke="midnightblue" points="456.86,-19.51 466.35,-14.79 455.99,-12.56 456.86,-19.51"/>
</g>
<!-- Node2&#45;&gt;Node3 -->
<g id="edge2" class="edge">
<title>Node2&#45;&gt;Node3</title>
<path fill="none" stroke="midnightblue" d="M282.04,-133.55C328.66,-147.23 414.5,-172.42 466.06,-187.55"/>
<polygon fill="midnightblue" stroke="midnightblue" points="465.31,-190.97 475.89,-190.43 467.28,-184.26 465.31,-190.97"/>
</g>
<!-- Node2&#45;&gt;Node4 -->
<g id="edge3" class="edge">
<title>Node2&#45;&gt;Node4</title>
<path fill="none" stroke="midnightblue" d="M282.94,-114.41C299.88,-109.55 320.66,-103.59 338.81,-98.39"/>
<polygon fill="midnightblue" stroke="midnightblue" points="339.93,-101.71 348.58,-95.59 338,-94.98 339.93,-101.71"/>
</g>
<!-- Node2&#45;&gt;Node6 -->
<g id="edge10" class="edge">
<title>Node2&#45;&gt;Node6</title>
<path fill="none" stroke="midnightblue" d="M263.39,-114.34C281.38,-102.15 313.98,-81.06 344,-67 383.44,-48.52 430.6,-32.79 464.29,-22.56"/>
<polygon fill="midnightblue" stroke="midnightblue" points="465.71,-25.79 474.29,-19.57 463.71,-19.08 465.71,-25.79"/>
</g>
<!-- Node10 -->
<g id="node10" class="node">
<title>Node10</title>
<g id="a_node10"><a xlink:href="../../db/dc1/class_token.html#a1f07fa2fffeb2f7ab803ef8b424eae8a" target="_top" xlink:title=" ">
<polygon fill="none" stroke="black" points="346,-114.5 346,-133.5 420,-133.5 420,-114.5 346,-114.5"/>
<text text-anchor="middle" x="383" y="-121.5" font-family="Helvetica,sans-Serif" font-size="10.00">Token::setStr</text>
</a>
</g>
</g>
<!-- Node2&#45;&gt;Node10 -->
<g id="edge11" class="edge">
<title>Node2&#45;&gt;Node10</title>
<path fill="none" stroke="midnightblue" d="M308,-124C317.27,-124 326.74,-124 335.68,-124"/>
<polygon fill="midnightblue" stroke="midnightblue" points="335.89,-127.5 345.89,-124 335.89,-120.5 335.89,-127.5"/>
</g>
<!-- Node4&#45;&gt;Node3 -->
<g id="edge4" class="edge">
<title>Node4&#45;&gt;Node3</title>
<path fill="none" stroke="midnightblue" d="M409.31,-95.67C413.91,-98.22 418.39,-101.31 422,-105 448.15,-131.71 430.5,-155.68 458,-181 459.71,-182.57 461.56,-184.02 463.51,-185.35"/>
<polygon fill="midnightblue" stroke="midnightblue" points="462.12,-188.59 472.55,-190.46 465.57,-182.49 462.12,-188.59"/>
</g>
<!-- Node5 -->
<g id="node5" class="node">
<title>Node5</title>
<g id="a_node5"><a xlink:href="../../db/dc1/class_token.html#aa5d6826fae7d616e2cfe3e27b5dd594a" target="_top" xlink:title="Возвращает константную ссылку на строковое представление токена">
<polygon fill="none" stroke="black" points="472.5,-114.5 472.5,-133.5 546.5,-133.5 546.5,-114.5 472.5,-114.5"/>
<text text-anchor="middle" x="509.5" y="-121.5" font-family="Helvetica,sans-Serif" font-size="10.00">Token::getStr</text>
</a>
</g>
</g>
<!-- Node4&#45;&gt;Node5 -->
<g id="edge5" class="edge">
<title>Node4&#45;&gt;Node5</title>
<path fill="none" stroke="midnightblue" d="M415.42,-95.59C431.19,-100.4 450.51,-106.3 467.44,-111.47"/>
<polygon fill="midnightblue" stroke="midnightblue" points="466.51,-114.84 477.09,-114.41 468.55,-108.15 466.51,-114.84"/>
</g>
<!-- Node4&#45;&gt;Node6 -->
<g id="edge6" class="edge">
<title>Node4&#45;&gt;Node6</title>
<path fill="none" stroke="midnightblue" d="M400.7,-76.34C407.5,-72.19 415.3,-67.12 422,-62 439.24,-48.82 439.51,-40.36 458,-29 461.18,-27.05 464.59,-25.24 468.09,-23.58"/>
<polygon fill="midnightblue" stroke="midnightblue" points="469.65,-26.72 477.44,-19.55 466.87,-20.3 469.65,-26.72"/>
</g>
<!-- Node7 -->
<g id="node7" class="node">
<title>Node7</title>
<g id="a_node7"><a xlink:href="../../db/dc1/class_token.html#a81497d9f05f9c69ba4ab8e9c62a391d1" target="_top" xlink:title=" ">
<polygon fill="none" stroke="black" points="478,-76.5 478,-95.5 541,-95.5 541,-76.5 478,-76.5"/>
<text text-anchor="middle" x="509.5" y="-83.5" font-family="Helvetica,sans-Serif" font-size="10.00">Token::line</text>
</a>
</g>
</g>
<!-- Node4&#45;&gt;Node7 -->
<g id="edge7" class="edge">
<title>Node4&#45;&gt;Node7</title>
<path fill="none" stroke="midnightblue" d="M422.03,-86C436.42,-86 452.85,-86 467.49,-86"/>
<polygon fill="midnightblue" stroke="midnightblue" points="467.79,-89.5 477.79,-86 467.79,-82.5 467.79,-89.5"/>
</g>
<!-- Node8 -->
<g id="node8" class="node">
<title>Node8</title>
<g id="a_node8"><a xlink:href="../../db/dc1/class_token.html#a715f99ebacdd636c283d15dc8656631c" target="_top" xlink:title=" ">
<polygon fill="none" stroke="black" points="477.5,-38.5 477.5,-57.5 541.5,-57.5 541.5,-38.5 477.5,-38.5"/>
<text text-anchor="middle" x="509.5" y="-45.5" font-family="Helvetica,sans-Serif" font-size="10.00">Token::pos</text>
</a>
</g>
</g>
<!-- Node4&#45;&gt;Node8 -->
<g id="edge8" class="edge">
<title>Node4&#45;&gt;Node8</title>
<path fill="none" stroke="midnightblue" d="M415.42,-76.41C431.19,-71.6 450.51,-65.7 467.44,-60.53"/>
<polygon fill="midnightblue" stroke="midnightblue" points="468.55,-63.85 477.09,-57.59 466.51,-57.16 468.55,-63.85"/>
</g>
<!-- Node9 -->
<g id="node9" class="node">
<title>Node9</title>
<g id="a_node9"><a xlink:href="../../db/dc1/class_token.html#a913f22d91c68c0b0f8c2d593b14deca2" target="_top" xlink:title=" ">
<polygon fill="none" stroke="black" points="464,-152.5 464,-171.5 555,-171.5 555,-152.5 464,-152.5"/>
<text text-anchor="middle" x="509.5" y="-159.5" font-family="Helvetica,sans-Serif" font-size="10.00">Token::posInLine</text>
</a>
</g>
</g>
<!-- Node4&#45;&gt;Node9 -->
<g id="edge9" class="edge">
<title>Node4&#45;&gt;Node9</title>
<path fill="none" stroke="midnightblue" d="M406.47,-95.61C411.77,-98.31 417.26,-101.49 422,-105 440.69,-118.86 438.62,-130.13 458,-143 460.9,-144.92 464.02,-146.69 467.23,-148.3"/>
<polygon fill="midnightblue" stroke="midnightblue" points="465.89,-151.54 476.44,-152.45 468.76,-145.15 465.89,-151.54"/>
</g>
</g>
</svg>
