<?xml version="1.0" encoding="UTF-8" standalone="no"?>
<!DOCTYPE svg PUBLIC "-//W3C//DTD SVG 1.1//EN"
 "http://www.w3.org/Graphics/SVG/1.1/DTD/svg11.dtd">
<!-- Generated by graphviz version 3.0.0 (20220413.0106)
 -->
<!-- Title: ASTFactory::createAST Pages: 1 -->
<svg width="380pt" height="218pt"
 viewBox="0.00 0.00 380.00 218.00" xmlns="http://www.w3.org/2000/svg" xmlns:xlink="http://www.w3.org/1999/xlink">
<g id="graph0" class="graph" transform="scale(1 1) rotate(0) translate(4 214)">
<title>ASTFactory::createAST</title>
<!-- Node1 -->
<g id="node1" class="node">
<title>Node1</title>
<g id="a_node1"><a xlink:title=" ">
<polygon fill="#bfbfbf" stroke="black" points="0,-133.5 0,-152.5 119,-152.5 119,-133.5 0,-133.5"/>
<text text-anchor="middle" x="59.5" y="-140.5" font-family="Helvetica,sans-Serif" font-size="10.00">ASTFactory::createAST</text>
</a>
</g>
</g>
<!-- Node2 -->
<g id="node2" class="node">
<title>Node2</title>
<g id="a_node2"><a xlink:href="../../d0/d11/class_i_token.html#aa0b191c52b609726899a0db5115ec0ef" target="_top" xlink:title=" ">
<polygon fill="none" stroke="black" points="269,-190.5 269,-209.5 372,-209.5 372,-190.5 269,-190.5"/>
<text text-anchor="middle" x="320.5" y="-197.5" font-family="Helvetica,sans-Serif" font-size="10.00">IToken::getAdvType</text>
</a>
</g>
</g>
<!-- Node1&#45;&gt;Node2 -->
<g id="edge1" class="edge">
<title>Node1&#45;&gt;Node2</title>
<path fill="none" stroke="midnightblue" d="M103.85,-152.54C148.49,-162.36 218.11,-177.69 266.11,-188.25"/>
<polygon fill="midnightblue" stroke="midnightblue" points="265.49,-191.7 276.01,-190.43 266.99,-184.86 265.49,-191.7"/>
</g>
<!-- Node3 -->
<g id="node3" class="node">
<title>Node3</title>
<g id="a_node3"><a xlink:href="../../db/dc1/class_token.html#ab9a75d3f89e77051d87462654e7576de" target="_top" xlink:title=" ">
<polygon fill="none" stroke="black" points="155,-114.5 155,-133.5 233,-133.5 233,-114.5 155,-114.5"/>
<text text-anchor="middle" x="194" y="-121.5" font-family="Helvetica,sans-Serif" font-size="10.00">Token::getInfo</text>
</a>
</g>
</g>
<!-- Node1&#45;&gt;Node3 -->
<g id="edge2" class="edge">
<title>Node1&#45;&gt;Node3</title>
<path fill="none" stroke="midnightblue" d="M119,-134.61C127.68,-133.37 136.53,-132.1 144.96,-130.89"/>
<polygon fill="midnightblue" stroke="midnightblue" points="145.58,-134.34 154.99,-129.45 144.59,-127.41 145.58,-134.34"/>
</g>
<!-- Node3&#45;&gt;Node2 -->
<g id="edge3" class="edge">
<title>Node3&#45;&gt;Node2</title>
<path fill="none" stroke="midnightblue" d="M205.33,-133.57C219.02,-145.87 244.35,-167.27 269,-181 272.54,-182.97 276.32,-184.81 280.16,-186.52"/>
<polygon fill="midnightblue" stroke="midnightblue" points="279.15,-189.89 289.73,-190.47 281.82,-183.42 279.15,-189.89"/>
</g>
<!-- Node4 -->
<g id="node4" class="node">
<title>Node4</title>
<g id="a_node4"><a xlink:href="../../db/dc1/class_token.html#aa5d6826fae7d616e2cfe3e27b5dd594a" target="_top" xlink:title="Возвращает константную ссылку на строковое представление токена">
<polygon fill="none" stroke="black" points="283.5,-152.5 283.5,-171.5 357.5,-171.5 357.5,-152.5 283.5,-152.5"/>
<text text-anchor="middle" x="320.5" y="-159.5" font-family="Helvetica,sans-Serif" font-size="10.00">Token::getStr</text>
</a>
</g>
</g>
<!-- Node3&#45;&gt;Node4 -->
<g id="edge4" class="edge">
<title>Node3&#45;&gt;Node4</title>
<path fill="none" stroke="midnightblue" d="M226.42,-133.59C242.19,-138.4 261.51,-144.3 278.44,-149.47"/>
<polygon fill="midnightblue" stroke="midnightblue" points="277.51,-152.84 288.09,-152.41 279.55,-146.15 277.51,-152.84"/>
</g>
<!-- Node5 -->
<g id="node5" class="node">
<title>Node5</title>
<g id="a_node5"><a xlink:href="../../d0/d11/class_i_token.html#a968b6332dda18b7049a4737be3ffd036" target="_top" xlink:title="Получение типа токена">
<polygon fill="none" stroke="black" points="277.5,-114.5 277.5,-133.5 363.5,-133.5 363.5,-114.5 277.5,-114.5"/>
<text text-anchor="middle" x="320.5" y="-121.5" font-family="Helvetica,sans-Serif" font-size="10.00">IToken::getType</text>
</a>
</g>
</g>
<!-- Node3&#45;&gt;Node5 -->
<g id="edge5" class="edge">
<title>Node3&#45;&gt;Node5</title>
<path fill="none" stroke="midnightblue" d="M233.03,-124C243.76,-124 255.63,-124 267.05,-124"/>
<polygon fill="midnightblue" stroke="midnightblue" points="267.36,-127.5 277.36,-124 267.36,-120.5 267.36,-127.5"/>
</g>
<!-- Node6 -->
<g id="node6" class="node">
<title>Node6</title>
<g id="a_node6"><a xlink:href="../../db/dc1/class_token.html#a81497d9f05f9c69ba4ab8e9c62a391d1" target="_top" xlink:title=" ">
<polygon fill="none" stroke="black" points="289,-76.5 289,-95.5 352,-95.5 352,-76.5 289,-76.5"/>
<text text-anchor="middle" x="320.5" y="-83.5" font-family="Helvetica,sans-Serif" font-size="10.00">Token::line</text>
</a>
</g>
</g>
<!-- Node3&#45;&gt;Node6 -->
<g id="edge6" class="edge">
<title>Node3&#45;&gt;Node6</title>
<path fill="none" stroke="midnightblue" d="M226.42,-114.41C242.43,-109.52 262.1,-103.52 279.22,-98.3"/>
<polygon fill="midnightblue" stroke="midnightblue" points="280.41,-101.59 288.95,-95.32 278.37,-94.89 280.41,-101.59"/>
</g>
<!-- Node7 -->
<g id="node7" class="node">
<title>Node7</title>
<g id="a_node7"><a xlink:href="../../db/dc1/class_token.html#a715f99ebacdd636c283d15dc8656631c" target="_top" xlink:title=" ">
<polygon fill="none" stroke="black" points="288.5,-38.5 288.5,-57.5 352.5,-57.5 352.5,-38.5 288.5,-38.5"/>
<text text-anchor="middle" x="320.5" y="-45.5" font-family="Helvetica,sans-Serif" font-size="10.00">Token::pos</text>
</a>
</g>
</g>
<!-- Node3&#45;&gt;Node7 -->
<g id="edge7" class="edge">
<title>Node3&#45;&gt;Node7</title>
<path fill="none" stroke="midnightblue" d="M205.33,-114.43C219.02,-102.13 244.35,-80.73 269,-67 272.54,-65.03 276.32,-63.19 280.16,-61.48"/>
<polygon fill="midnightblue" stroke="midnightblue" points="281.82,-64.58 289.73,-57.53 279.15,-58.11 281.82,-64.58"/>
</g>
<!-- Node8 -->
<g id="node8" class="node">
<title>Node8</title>
<g id="a_node8"><a xlink:href="../../db/dc1/class_token.html#a913f22d91c68c0b0f8c2d593b14deca2" target="_top" xlink:title=" ">
<polygon fill="none" stroke="black" points="275,-0.5 275,-19.5 366,-19.5 366,-0.5 275,-0.5"/>
<text text-anchor="middle" x="320.5" y="-7.5" font-family="Helvetica,sans-Serif" font-size="10.00">Token::posInLine</text>
</a>
</g>
</g>
<!-- Node3&#45;&gt;Node8 -->
<g id="edge8" class="edge">
<title>Node3&#45;&gt;Node8</title>
<path fill="none" stroke="midnightblue" d="M200.17,-114.21C210.68,-95.2 236.33,-53.04 269,-29 271.48,-27.17 274.17,-25.5 276.95,-23.97"/>
<polygon fill="midnightblue" stroke="midnightblue" points="278.6,-27.07 286.1,-19.58 275.57,-20.75 278.6,-27.07"/>
</g>
</g>
</svg>
