<?xml version="1.0" encoding="UTF-8" standalone="no"?>
<!DOCTYPE svg PUBLIC "-//W3C//DTD SVG 1.1//EN"
 "http://www.w3.org/Graphics/SVG/1.1/DTD/svg11.dtd">
<!-- Generated by graphviz version 3.0.0 (20220413.0106)
 -->
<!-- Title: ASTFactory::createAST Pages: 1 -->
<svg width="2628pt" height="1055pt"
 viewBox="0.00 0.00 2628.00 1055.04" xmlns="http://www.w3.org/2000/svg" xmlns:xlink="http://www.w3.org/1999/xlink">
<g id="graph0" class="graph" transform="scale(1 1) rotate(0) translate(4 1051.04)">
<title>ASTFactory::createAST</title>
<!-- Node1 -->
<g id="node1" class="node">
<title>Node1</title>
<g id="a_node1"><a xlink:title=" ">
<polygon fill="#bfbfbf" stroke="black" points="2501,-575 2501,-594 2620,-594 2620,-575 2501,-575"/>
<text text-anchor="middle" x="2560.5" y="-582" font-family="Helvetica,sans-Serif" font-size="10.00">ASTFactory::createAST</text>
</a>
</g>
</g>
<!-- Node2 -->
<g id="node2" class="node">
<title>Node2</title>
<g id="a_node2"><a xlink:href="../../d7/d7c/class_a_s_t_factory.html#aa4647507a830972309beb5db2d84ce96" target="_top" xlink:title="Возвращает &quot;глубокую копию&quot; указателя на тип typePtr.">
<polygon fill="none" stroke="black" points="2312,-822 2312,-841 2465,-841 2465,-822 2312,-822"/>
<text text-anchor="middle" x="2388.5" y="-829" font-family="Helvetica,sans-Serif" font-size="10.00">ASTFactory::createCopyOfType</text>
</a>
</g>
</g>
<!-- Node1&#45;&gt;Node2 -->
<g id="edge1" class="edge">
<title>Node1&#45;&gt;Node2</title>
<path fill="none" stroke="midnightblue" d="M2556.75,-604.23C2549.69,-647.45 2526.92,-751.09 2465,-807.5 2458.09,-813.8 2449.52,-818.44 2440.66,-821.87"/>
<polygon fill="midnightblue" stroke="midnightblue" points="2560.24,-604.58 2558.28,-594.17 2553.32,-603.53 2560.24,-604.58"/>
</g>
<!-- Node3 -->
<g id="node3" class="node">
<title>Node3</title>
<g id="a_node3"><a xlink:href="../../d6/d00/class_pascal_syntax_analyzer.html#a2e2096e84e73d49649b909bda93b3752" target="_top" xlink:title=" ">
<polygon fill="none" stroke="black" points="2163,-872.5 2163,-902.5 2276,-902.5 2276,-872.5 2163,-872.5"/>
<text text-anchor="start" x="2171" y="-890.5" font-family="Helvetica,sans-Serif" font-size="10.00">PascalSyntaxAnalyzer</text>
<text text-anchor="middle" x="2219.5" y="-879.5" font-family="Helvetica,sans-Serif" font-size="10.00">::syntaxVarDecl</text>
</a>
</g>
</g>
<!-- Node1&#45;&gt;Node3 -->
<g id="edge67" class="edge">
<title>Node1&#45;&gt;Node3</title>
<path fill="none" stroke="midnightblue" d="M2559.75,-604.23C2559.25,-657.05 2549.86,-802.16 2465,-868.5 2411.67,-910.2 2330.27,-907.43 2276.24,-899.34"/>
<polygon fill="midnightblue" stroke="midnightblue" points="2563.25,-604.16 2559.75,-594.16 2556.25,-604.16 2563.25,-604.16"/>
</g>
<!-- Node4 -->
<g id="node4" class="node">
<title>Node4</title>
<g id="a_node4"><a xlink:href="../../d6/d00/class_pascal_syntax_analyzer.html#afc7e8b0293dc9d194d6d8ebc708e1718" target="_top" xlink:title=" ">
<polygon fill="none" stroke="black" points="375,-897.5 375,-927.5 488,-927.5 488,-897.5 375,-897.5"/>
<text text-anchor="start" x="383" y="-915.5" font-family="Helvetica,sans-Serif" font-size="10.00">PascalSyntaxAnalyzer</text>
<text text-anchor="middle" x="431.5" y="-904.5" font-family="Helvetica,sans-Serif" font-size="10.00">::syntaxFuncDef</text>
</a>
</g>
</g>
<!-- Node1&#45;&gt;Node4 -->
<g id="edge55" class="edge">
<title>Node1&#45;&gt;Node4</title>
<path fill="none" stroke="midnightblue" d="M2557.72,-604.16C2550.77,-676.34 2522.9,-925.2 2465,-974.5 2382.01,-1045.16 2329.49,-993.5 2220.5,-993.5 2220.5,-993.5 2220.5,-993.5 728.5,-993.5 629.67,-993.5 518.65,-950.97 465,-927.55"/>
<polygon fill="midnightblue" stroke="midnightblue" points="2561.21,-604.43 2558.66,-594.14 2554.24,-603.77 2561.21,-604.43"/>
</g>
<!-- Node5 -->
<g id="node5" class="node">
<title>Node5</title>
<g id="a_node5"><a xlink:href="../../d6/d00/class_pascal_syntax_analyzer.html#a99dc990814a355dae3fcb44cb42a1d2a" target="_top" xlink:title=" ">
<polygon fill="none" stroke="black" points="226,-897.5 226,-927.5 339,-927.5 339,-897.5 226,-897.5"/>
<text text-anchor="start" x="234" y="-915.5" font-family="Helvetica,sans-Serif" font-size="10.00">PascalSyntaxAnalyzer</text>
<text text-anchor="middle" x="282.5" y="-904.5" font-family="Helvetica,sans-Serif" font-size="10.00">::syntaxProgram</text>
</a>
</g>
</g>
<!-- Node1&#45;&gt;Node5 -->
<g id="edge58" class="edge">
<title>Node1&#45;&gt;Node5</title>
<path fill="none" stroke="midnightblue" d="M2558.06,-604.22C2552.09,-680.11 2526.67,-951.73 2465,-1006.5 2383.33,-1079.03 2329.73,-1031.5 2220.5,-1031.5 2220.5,-1031.5 2220.5,-1031.5 579.5,-1031.5 469.28,-1031.5 351.56,-959.59 304.6,-927.57"/>
<polygon fill="midnightblue" stroke="midnightblue" points="2561.56,-604.38 2558.83,-594.14 2554.58,-603.85 2561.56,-604.38"/>
</g>
<!-- Node9 -->
<g id="node9" class="node">
<title>Node9</title>
<g id="a_node9"><a xlink:href="../../d6/d00/class_pascal_syntax_analyzer.html#ab01912c3436af8d368fb00fc4f7362d7" target="_top" xlink:title=" ">
<polygon fill="none" stroke="black" points="524,-809.5 524,-839.5 637,-839.5 637,-809.5 524,-809.5"/>
<text text-anchor="start" x="532" y="-827.5" font-family="Helvetica,sans-Serif" font-size="10.00">PascalSyntaxAnalyzer</text>
<text text-anchor="middle" x="580.5" y="-816.5" font-family="Helvetica,sans-Serif" font-size="10.00">::syntaxBlock</text>
</a>
</g>
</g>
<!-- Node1&#45;&gt;Node9 -->
<g id="edge26" class="edge">
<title>Node1&#45;&gt;Node9</title>
<path fill="none" stroke="midnightblue" d="M2554.76,-603.92C2544.88,-639.85 2518.42,-716.25 2465,-751.5 2413.46,-785.51 2139.08,-805.5 1773.5,-805.5 1773.5,-805.5 1773.5,-805.5 877.5,-805.5 793.56,-805.5 696.51,-813.2 637.08,-818.8"/>
<polygon fill="midnightblue" stroke="midnightblue" points="2558.17,-604.72 2557.31,-594.16 2551.4,-602.95 2558.17,-604.72"/>
</g>
<!-- Node10 -->
<g id="node10" class="node">
<title>Node10</title>
<g id="a_node10"><a xlink:href="../../d6/d00/class_pascal_syntax_analyzer.html#a1483de526ade4687ddb1d1c0c804b15c" target="_top" xlink:title=" ">
<polygon fill="none" stroke="black" points="1418,-338.5 1418,-368.5 1531,-368.5 1531,-338.5 1418,-338.5"/>
<text text-anchor="start" x="1426" y="-356.5" font-family="Helvetica,sans-Serif" font-size="10.00">PascalSyntaxAnalyzer</text>
<text text-anchor="middle" x="1474.5" y="-345.5" font-family="Helvetica,sans-Serif" font-size="10.00">::syntaxAssignSt</text>
</a>
</g>
</g>
<!-- Node1&#45;&gt;Node10 -->
<g id="edge12" class="edge">
<title>Node1&#45;&gt;Node10</title>
<path fill="none" stroke="midnightblue" d="M2557.71,-564.83C2550.61,-491.41 2522.04,-234.87 2465,-180.5 2385.03,-104.26 2330.99,-135.5 2220.5,-135.5 2220.5,-135.5 2220.5,-135.5 1771.5,-135.5 1677.15,-135.5 1641.37,-134.43 1567,-192.5 1516.83,-231.68 1489.53,-306.56 1479.74,-338.48"/>
<polygon fill="midnightblue" stroke="midnightblue" points="2554.24,-565.35 2558.66,-574.98 2561.21,-564.69 2554.24,-565.35"/>
</g>
<!-- Node11 -->
<g id="node11" class="node">
<title>Node11</title>
<g id="a_node11"><a xlink:href="../../d6/d00/class_pascal_syntax_analyzer.html#a2c49546e46d84e7785ef131a1cfc7ff7" target="_top" xlink:title=" ">
<polygon fill="none" stroke="black" points="1269,-528.5 1269,-558.5 1382,-558.5 1382,-528.5 1269,-528.5"/>
<text text-anchor="start" x="1277" y="-546.5" font-family="Helvetica,sans-Serif" font-size="10.00">PascalSyntaxAnalyzer</text>
<text text-anchor="middle" x="1325.5" y="-535.5" font-family="Helvetica,sans-Serif" font-size="10.00">::syntaxIter</text>
</a>
</g>
</g>
<!-- Node1&#45;&gt;Node11 -->
<g id="edge57" class="edge">
<title>Node1&#45;&gt;Node11</title>
<path fill="none" stroke="midnightblue" d="M2490.54,-590.63C2422.09,-596.18 2314.13,-603.5 2220.5,-603.5 2220.5,-603.5 2220.5,-603.5 2069.5,-603.5 1811.97,-603.5 1505.85,-567.24 1382.3,-551.1"/>
<polygon fill="midnightblue" stroke="midnightblue" points="2491.08,-594.1 2500.76,-589.79 2490.51,-587.12 2491.08,-594.1"/>
</g>
<!-- Node12 -->
<g id="node12" class="node">
<title>Node12</title>
<g id="a_node12"><a xlink:href="../../d6/d00/class_pascal_syntax_analyzer.html#aeab55be1d74a8810d1ea8aa51ba8e820" target="_top" xlink:title=" ">
<polygon fill="none" stroke="black" points="1120,-534.5 1120,-564.5 1233,-564.5 1233,-534.5 1120,-534.5"/>
<text text-anchor="start" x="1128" y="-552.5" font-family="Helvetica,sans-Serif" font-size="10.00">PascalSyntaxAnalyzer</text>
<text text-anchor="middle" x="1176.5" y="-541.5" font-family="Helvetica,sans-Serif" font-size="10.00">::syntaxForSt</text>
</a>
</g>
</g>
<!-- Node1&#45;&gt;Node12 -->
<g id="edge54" class="edge">
<title>Node1&#45;&gt;Node12</title>
<path fill="none" stroke="midnightblue" d="M2520.84,-597.02C2503.86,-602.14 2483.59,-607.73 2465,-611.5 2357.7,-633.27 2329.98,-641.5 2220.5,-641.5 2220.5,-641.5 2220.5,-641.5 1473.5,-641.5 1371.25,-641.5 1257.73,-590.82 1205.99,-564.69"/>
<polygon fill="midnightblue" stroke="midnightblue" points="2521.89,-600.36 2530.42,-594.08 2519.83,-593.67 2521.89,-600.36"/>
</g>
<!-- Node14 -->
<g id="node14" class="node">
<title>Node14</title>
<g id="a_node14"><a xlink:href="../../d6/d00/class_pascal_syntax_analyzer.html#ada2725df1a0f0ca0aab5d02466661f01" target="_top" xlink:title=" ">
<polygon fill="none" stroke="black" points="822,-654.5 822,-684.5 935,-684.5 935,-654.5 822,-654.5"/>
<text text-anchor="start" x="830" y="-672.5" font-family="Helvetica,sans-Serif" font-size="10.00">PascalSyntaxAnalyzer</text>
<text text-anchor="middle" x="878.5" y="-661.5" font-family="Helvetica,sans-Serif" font-size="10.00">::syntaxIfSt</text>
</a>
</g>
</g>
<!-- Node1&#45;&gt;Node14 -->
<g id="edge56" class="edge">
<title>Node1&#45;&gt;Node14</title>
<path fill="none" stroke="midnightblue" d="M2552.42,-604.05C2540.03,-635.12 2511.25,-695.07 2465,-722.5 2409.41,-755.47 2128.87,-767.5 1773.5,-767.5 1773.5,-767.5 1773.5,-767.5 1175.5,-767.5 1071.3,-767.5 956.44,-712.09 905.87,-684.6"/>
<polygon fill="midnightblue" stroke="midnightblue" points="2555.82,-604.95 2556.12,-594.36 2549.28,-602.46 2555.82,-604.95"/>
</g>
<!-- Node16 -->
<g id="node16" class="node">
<title>Node16</title>
<g id="a_node16"><a xlink:href="../../d6/d00/class_pascal_syntax_analyzer.html#ada208f0427fef2e977e420bb5e87450a" target="_top" xlink:title=" ">
<polygon fill="none" stroke="black" points="673,-534.5 673,-564.5 786,-564.5 786,-534.5 673,-534.5"/>
<text text-anchor="start" x="681" y="-552.5" font-family="Helvetica,sans-Serif" font-size="10.00">PascalSyntaxAnalyzer</text>
<text text-anchor="middle" x="729.5" y="-541.5" font-family="Helvetica,sans-Serif" font-size="10.00">::syntaxCompoundSt</text>
</a>
</g>
</g>
<!-- Node1&#45;&gt;Node16 -->
<g id="edge48" class="edge">
<title>Node1&#45;&gt;Node16</title>
<path fill="none" stroke="midnightblue" d="M2558.87,-564.53C2555.71,-479.15 2538.78,-146.03 2465,-79.5 2384.02,-6.49 2329.53,-59.5 2220.5,-59.5 2220.5,-59.5 2220.5,-59.5 1026.5,-59.5 798.91,-59.5 741.64,-451.59 732.09,-534.3"/>
<polygon fill="midnightblue" stroke="midnightblue" points="2555.37,-564.82 2559.22,-574.69 2562.37,-564.57 2555.37,-564.82"/>
</g>
<!-- Node17 -->
<g id="node17" class="node">
<title>Node17</title>
<g id="a_node17"><a xlink:href="../../d6/d00/class_pascal_syntax_analyzer.html#a1c3d21ae52633cd67f4a9d98305e303e" target="_top" xlink:title=" ">
<polygon fill="none" stroke="black" points="822,-432.5 822,-462.5 935,-462.5 935,-432.5 822,-432.5"/>
<text text-anchor="start" x="830" y="-450.5" font-family="Helvetica,sans-Serif" font-size="10.00">PascalSyntaxAnalyzer</text>
<text text-anchor="middle" x="878.5" y="-439.5" font-family="Helvetica,sans-Serif" font-size="10.00">::syntaxWhileSt</text>
</a>
</g>
</g>
<!-- Node1&#45;&gt;Node17 -->
<g id="edge72" class="edge">
<title>Node1&#45;&gt;Node17</title>
<path fill="none" stroke="midnightblue" d="M2558.41,-564.65C2553.59,-484.5 2531.37,-186.21 2465,-125.5 2384.29,-51.68 2329.88,-97.5 2220.5,-97.5 2220.5,-97.5 2220.5,-97.5 1175.5,-97.5 997.24,-97.5 904.31,-365.47 883.86,-432.46"/>
<polygon fill="midnightblue" stroke="midnightblue" points="2554.93,-565.05 2559,-574.83 2561.92,-564.65 2554.93,-565.05"/>
</g>
<!-- Node18 -->
<g id="node18" class="node">
<title>Node18</title>
<g id="a_node18"><a xlink:href="../../d6/d00/class_pascal_syntax_analyzer.html#a17fc2ae65eb01ca8a797c5af969eebae" target="_top" xlink:title=" ">
<polygon fill="none" stroke="black" points="2332,-490.5 2332,-520.5 2445,-520.5 2445,-490.5 2332,-490.5"/>
<text text-anchor="start" x="2340" y="-508.5" font-family="Helvetica,sans-Serif" font-size="10.00">PascalSyntaxAnalyzer</text>
<text text-anchor="middle" x="2388.5" y="-497.5" font-family="Helvetica,sans-Serif" font-size="10.00">::syntaxCallSt</text>
</a>
</g>
</g>
<!-- Node1&#45;&gt;Node18 -->
<g id="edge27" class="edge">
<title>Node1&#45;&gt;Node18</title>
<path fill="none" stroke="midnightblue" d="M2529.82,-570.71C2499.68,-556.7 2453.13,-535.07 2422.01,-520.61"/>
<polygon fill="midnightblue" stroke="midnightblue" points="2528.45,-573.93 2538.99,-574.97 2531.4,-567.58 2528.45,-573.93"/>
</g>
<!-- Node19 -->
<g id="node19" class="node">
<title>Node19</title>
<g id="a_node19"><a xlink:href="../../d6/d00/class_pascal_syntax_analyzer.html#add958b54cb4edebc082e2a246b6adb10" target="_top" xlink:title=" ">
<polygon fill="none" stroke="black" points="2163,-398.5 2163,-428.5 2276,-428.5 2276,-398.5 2163,-398.5"/>
<text text-anchor="start" x="2171" y="-416.5" font-family="Helvetica,sans-Serif" font-size="10.00">PascalSyntaxAnalyzer</text>
<text text-anchor="middle" x="2219.5" y="-405.5" font-family="Helvetica,sans-Serif" font-size="10.00">::syntaxFactor</text>
</a>
</g>
</g>
<!-- Node1&#45;&gt;Node19 -->
<g id="edge53" class="edge">
<title>Node1&#45;&gt;Node19</title>
<path fill="none" stroke="midnightblue" d="M2547.77,-566.17C2531.84,-542.78 2501.19,-502.7 2465,-480.5 2406.48,-444.59 2328.49,-427.57 2276.49,-419.75"/>
<polygon fill="midnightblue" stroke="midnightblue" points="2545.04,-568.39 2553.49,-574.79 2550.88,-564.53 2545.04,-568.39"/>
</g>
<!-- Node20 -->
<g id="node20" class="node">
<title>Node20</title>
<g id="a_node20"><a xlink:href="../../d6/d00/class_pascal_syntax_analyzer.html#a2a47b3776a55323696ebcc18a9699b57" target="_top" xlink:title=" ">
<polygon fill="none" stroke="black" points="2014,-316.5 2014,-346.5 2127,-346.5 2127,-316.5 2014,-316.5"/>
<text text-anchor="start" x="2022" y="-334.5" font-family="Helvetica,sans-Serif" font-size="10.00">PascalSyntaxAnalyzer</text>
<text text-anchor="middle" x="2070.5" y="-323.5" font-family="Helvetica,sans-Serif" font-size="10.00">::syntaxTerm</text>
</a>
</g>
</g>
<!-- Node1&#45;&gt;Node20 -->
<g id="edge62" class="edge">
<title>Node1&#45;&gt;Node20</title>
<path fill="none" stroke="midnightblue" d="M2553.74,-564.79C2542.59,-530.28 2514.67,-459.1 2465,-422.5 2362.96,-347.32 2208.85,-332.94 2127.06,-330.98"/>
<polygon fill="midnightblue" stroke="midnightblue" points="2550.48,-566.1 2556.78,-574.62 2557.17,-564.03 2550.48,-566.1"/>
</g>
<!-- Node21 -->
<g id="node21" class="node">
<title>Node21</title>
<g id="a_node21"><a xlink:href="../../d6/d00/class_pascal_syntax_analyzer.html#aca0a489432741e00e3d268ccd6452781" target="_top" xlink:title=" ">
<polygon fill="none" stroke="black" points="1865,-316.5 1865,-346.5 1978,-346.5 1978,-316.5 1865,-316.5"/>
<text text-anchor="start" x="1873" y="-334.5" font-family="Helvetica,sans-Serif" font-size="10.00">PascalSyntaxAnalyzer</text>
<text text-anchor="middle" x="1921.5" y="-323.5" font-family="Helvetica,sans-Serif" font-size="10.00">::syntaxSimpleExpr</text>
</a>
</g>
</g>
<!-- Node1&#45;&gt;Node21 -->
<g id="edge61" class="edge">
<title>Node1&#45;&gt;Node21</title>
<path fill="none" stroke="midnightblue" d="M2557.85,-564.37C2552.93,-518.5 2534.07,-406.06 2465,-352.5 2317.9,-238.42 2074.88,-287.86 1971.5,-316.42"/>
<polygon fill="midnightblue" stroke="midnightblue" points="2554.39,-564.9 2558.82,-574.52 2561.35,-564.23 2554.39,-564.9"/>
</g>
<!-- Node22 -->
<g id="node22" class="node">
<title>Node22</title>
<g id="a_node22"><a xlink:href="../../d6/d00/class_pascal_syntax_analyzer.html#ad459363d50d2dd23b8b0b2baee6be658" target="_top" xlink:title=" ">
<polygon fill="none" stroke="black" points="1716,-404.5 1716,-434.5 1829,-434.5 1829,-404.5 1716,-404.5"/>
<text text-anchor="start" x="1724" y="-422.5" font-family="Helvetica,sans-Serif" font-size="10.00">PascalSyntaxAnalyzer</text>
<text text-anchor="middle" x="1772.5" y="-411.5" font-family="Helvetica,sans-Serif" font-size="10.00">::syntaxExpr</text>
</a>
</g>
</g>
<!-- Node1&#45;&gt;Node22 -->
<g id="edge52" class="edge">
<title>Node1&#45;&gt;Node22</title>
<path fill="none" stroke="midnightblue" d="M2490.54,-578.37C2422.09,-572.82 2314.13,-565.5 2220.5,-565.5 2220.5,-565.5 2220.5,-565.5 2069.5,-565.5 1952.03,-565.5 1832.89,-471.88 1790.08,-434.57"/>
<polygon fill="midnightblue" stroke="midnightblue" points="2490.51,-581.88 2500.76,-579.21 2491.08,-574.9 2490.51,-581.88"/>
</g>
<!-- Node23 -->
<g id="node23" class="node">
<title>Node23</title>
<g id="a_node23"><a xlink:href="../../d6/d00/class_pascal_syntax_analyzer.html#aa85cd72cb0382779d740d228fbeaa8da" target="_top" xlink:title=" ">
<polygon fill="none" stroke="black" points="1567,-0.5 1567,-30.5 1680,-30.5 1680,-0.5 1567,-0.5"/>
<text text-anchor="start" x="1575" y="-18.5" font-family="Helvetica,sans-Serif" font-size="10.00">PascalSyntaxAnalyzer</text>
<text text-anchor="middle" x="1623.5" y="-7.5" font-family="Helvetica,sans-Serif" font-size="10.00">::syntaxConstDecl</text>
</a>
</g>
</g>
<!-- Node1&#45;&gt;Node23 -->
<g id="edge49" class="edge">
<title>Node1&#45;&gt;Node23</title>
<path fill="none" stroke="midnightblue" d="M2559.07,-564.69C2556.74,-476.2 2542.57,-118.29 2465,-45.5 2385.28,29.31 2329.83,-18.5 2220.5,-18.5 2220.5,-18.5 2220.5,-18.5 1920.5,-18.5 1836.73,-18.5 1739.64,-17.28 1680.14,-16.4"/>
<polygon fill="midnightblue" stroke="midnightblue" points="2555.58,-565.01 2559.32,-574.93 2562.58,-564.85 2555.58,-565.01"/>
</g>
<!-- Node25 -->
<g id="node25" class="node">
<title>Node25</title>
<g id="a_node25"><a xlink:href="../../d6/d00/class_pascal_syntax_analyzer.html#a64ecaf3b371cf72ffcc81058e27ee463" target="_top" xlink:title=" ">
<polygon fill="none" stroke="black" points="1567,-670.5 1567,-700.5 1680,-700.5 1680,-670.5 1567,-670.5"/>
<text text-anchor="start" x="1575" y="-688.5" font-family="Helvetica,sans-Serif" font-size="10.00">PascalSyntaxAnalyzer</text>
<text text-anchor="middle" x="1623.5" y="-677.5" font-family="Helvetica,sans-Serif" font-size="10.00">::syntaxReturnSt</text>
</a>
</g>
</g>
<!-- Node1&#45;&gt;Node25 -->
<g id="edge59" class="edge">
<title>Node1&#45;&gt;Node25</title>
<path fill="none" stroke="midnightblue" d="M2543.22,-601.26C2525.65,-618.16 2496.01,-643.43 2465,-655.5 2363.24,-695.1 2329.69,-679.5 2220.5,-679.5 2220.5,-679.5 2220.5,-679.5 1920.5,-679.5 1836.72,-679.5 1739.63,-681.93 1680.14,-683.7"/>
<polygon fill="midnightblue" stroke="midnightblue" points="2545.75,-603.68 2550.4,-594.16 2540.83,-598.7 2545.75,-603.68"/>
</g>
<!-- Node26 -->
<g id="node26" class="node">
<title>Node26</title>
<g id="a_node26"><a xlink:href="../../d6/d00/class_pascal_syntax_analyzer.html#ae443cbc65ec18c6277b095da042ec7a2" target="_top" xlink:title=" ">
<polygon fill="none" stroke="black" points="1567,-319.5 1567,-349.5 1680,-349.5 1680,-319.5 1567,-319.5"/>
<text text-anchor="start" x="1575" y="-337.5" font-family="Helvetica,sans-Serif" font-size="10.00">PascalSyntaxAnalyzer</text>
<text text-anchor="middle" x="1623.5" y="-326.5" font-family="Helvetica,sans-Serif" font-size="10.00">::syntaxSelect</text>
</a>
</g>
</g>
<!-- Node1&#45;&gt;Node26 -->
<g id="edge60" class="edge">
<title>Node1&#45;&gt;Node26</title>
<path fill="none" stroke="midnightblue" d="M2559.83,-564.54C2559.55,-510.37 2550.74,-359.74 2465,-286.5 2381.44,-215.12 2330.4,-249.5 2220.5,-249.5 2220.5,-249.5 2220.5,-249.5 1920.5,-249.5 1820.25,-249.5 1708.06,-295.1 1655.2,-319.5"/>
<polygon fill="midnightblue" stroke="midnightblue" points="2556.33,-564.82 2559.78,-574.84 2563.33,-564.86 2556.33,-564.82"/>
</g>
<!-- Node27 -->
<g id="node27" class="node">
<title>Node27</title>
<g id="a_node27"><a xlink:href="../../d6/d00/class_pascal_syntax_analyzer.html#a2cbb9da12f9194bf4c71b8045f5f4ba4" target="_top" xlink:title=" ">
<polygon fill="none" stroke="black" points="1865,-708.5 1865,-738.5 1978,-738.5 1978,-708.5 1865,-708.5"/>
<text text-anchor="start" x="1873" y="-726.5" font-family="Helvetica,sans-Serif" font-size="10.00">PascalSyntaxAnalyzer</text>
<text text-anchor="middle" x="1921.5" y="-715.5" font-family="Helvetica,sans-Serif" font-size="10.00">::syntaxEmptySt</text>
</a>
</g>
</g>
<!-- Node1&#45;&gt;Node27 -->
<g id="edge50" class="edge">
<title>Node1&#45;&gt;Node27</title>
<path fill="none" stroke="midnightblue" d="M2549.76,-603.08C2535.19,-628.68 2505.1,-673.84 2465,-693.5 2380.62,-734.87 2098.95,-730.02 1978.22,-725.83"/>
<polygon fill="midnightblue" stroke="midnightblue" points="2552.98,-604.48 2554.72,-594.03 2546.84,-601.11 2552.98,-604.48"/>
</g>
<!-- Node28 -->
<g id="node28" class="node">
<title>Node28</title>
<g id="a_node28"><a xlink:href="../../d6/d00/class_pascal_syntax_analyzer.html#a81e6761557e6f305e3fa087676c40ce5" target="_top" xlink:title=" ">
<polygon fill="none" stroke="black" points="2332,-916.5 2332,-946.5 2445,-946.5 2445,-916.5 2332,-916.5"/>
<text text-anchor="start" x="2340" y="-934.5" font-family="Helvetica,sans-Serif" font-size="10.00">PascalSyntaxAnalyzer</text>
<text text-anchor="middle" x="2388.5" y="-923.5" font-family="Helvetica,sans-Serif" font-size="10.00">::syntaxTypeSpec</text>
</a>
</g>
</g>
<!-- Node1&#45;&gt;Node28 -->
<g id="edge63" class="edge">
<title>Node1&#45;&gt;Node28</title>
<path fill="none" stroke="midnightblue" d="M2559.29,-604.31C2557.65,-658.9 2545.72,-813.3 2465,-901.5 2459.38,-907.64 2452.34,-912.54 2444.84,-916.45"/>
<polygon fill="midnightblue" stroke="midnightblue" points="2562.79,-604.31 2559.5,-594.24 2555.79,-604.16 2562.79,-604.31"/>
</g>
<!-- Node29 -->
<g id="node29" class="node">
<title>Node29</title>
<g id="a_node29"><a xlink:href="../../d6/d00/class_pascal_syntax_analyzer.html#a29143dd884dc4a19bfa64da0ac1640b7" target="_top" xlink:title=" ">
<polygon fill="none" stroke="black" points="2332,-190.5 2332,-220.5 2445,-220.5 2445,-190.5 2332,-190.5"/>
<text text-anchor="start" x="2340" y="-208.5" font-family="Helvetica,sans-Serif" font-size="10.00">PascalSyntaxAnalyzer</text>
<text text-anchor="middle" x="2388.5" y="-197.5" font-family="Helvetica,sans-Serif" font-size="10.00">::syntaxVariable</text>
</a>
</g>
</g>
<!-- Node1&#45;&gt;Node29 -->
<g id="edge68" class="edge">
<title>Node1&#45;&gt;Node29</title>
<path fill="none" stroke="midnightblue" d="M2559.94,-564.66C2560.16,-506.46 2552.96,-334.08 2465,-235.5 2459.55,-229.4 2452.7,-224.52 2445.36,-220.62"/>
<polygon fill="midnightblue" stroke="midnightblue" points="2556.44,-564.68 2559.82,-574.72 2563.44,-564.77 2556.44,-564.68"/>
</g>
<!-- Node2&#45;&gt;Node2 -->
<g id="edge2" class="edge">
<title>Node2&#45;&gt;Node2</title>
<path fill="none" stroke="midnightblue" d="M2419.94,-849.77C2419.04,-855.24 2408.56,-859.5 2388.5,-859.5 2358.64,-859.5 2350.01,-850.07 2362.61,-841.26"/>
<polygon fill="midnightblue" stroke="midnightblue" points="2422.78,-847.73 2414.39,-841.26 2416.92,-851.55 2422.78,-847.73"/>
</g>
<!-- Node2&#45;&gt;Node3 -->
<g id="edge3" class="edge">
<title>Node2&#45;&gt;Node3</title>
<path fill="none" stroke="midnightblue" d="M2349.3,-844.31C2324.36,-852.67 2291.68,-863.63 2265.48,-872.42"/>
<polygon fill="midnightblue" stroke="midnightblue" points="2350.42,-847.62 2358.79,-841.13 2348.2,-840.99 2350.42,-847.62"/>
</g>
<!-- Node3&#45;&gt;Node4 -->
<g id="edge4" class="edge">
<title>Node3&#45;&gt;Node4</title>
<path fill="none" stroke="midnightblue" d="M2152.77,-889.6C2092.79,-891.33 2001.7,-893.5 1922.5,-893.5 1922.5,-893.5 1922.5,-893.5 728.5,-893.5 644.56,-893.5 547.51,-901.2 488.08,-906.8"/>
<polygon fill="midnightblue" stroke="midnightblue" points="2152.97,-893.09 2162.86,-889.3 2152.76,-886.09 2152.97,-893.09"/>
</g>
<!-- Node8 -->
<g id="node8" class="node">
<title>Node8</title>
<g id="a_node8"><a xlink:href="../../d6/d00/class_pascal_syntax_analyzer.html#a22068acd135646a22afaa40d098742ed" target="_top" xlink:title=" ">
<polygon fill="none" stroke="black" points="1716,-834.5 1716,-864.5 1829,-864.5 1829,-834.5 1716,-834.5"/>
<text text-anchor="start" x="1724" y="-852.5" font-family="Helvetica,sans-Serif" font-size="10.00">PascalSyntaxAnalyzer</text>
<text text-anchor="middle" x="1772.5" y="-841.5" font-family="Helvetica,sans-Serif" font-size="10.00">::syntaxVars</text>
</a>
</g>
</g>
<!-- Node3&#45;&gt;Node8 -->
<g id="edge8" class="edge">
<title>Node3&#45;&gt;Node8</title>
<path fill="none" stroke="midnightblue" d="M2152.76,-881.73C2144.1,-880.98 2135.34,-880.22 2127,-879.5 2021.76,-870.43 1898.88,-860.05 1829.22,-854.18"/>
<polygon fill="midnightblue" stroke="midnightblue" points="2152.59,-885.23 2162.86,-882.61 2153.2,-878.26 2152.59,-885.23"/>
</g>
<!-- Node4&#45;&gt;Node5 -->
<g id="edge5" class="edge">
<title>Node4&#45;&gt;Node5</title>
<path fill="none" stroke="midnightblue" d="M364.92,-912.5C356.32,-912.5 347.57,-912.5 339.15,-912.5"/>
<polygon fill="midnightblue" stroke="midnightblue" points="364.93,-916 374.93,-912.5 364.93,-909 364.93,-916"/>
</g>
<!-- Node6 -->
<g id="node6" class="node">
<title>Node6</title>
<g id="a_node6"><a xlink:href="../../d6/d00/class_pascal_syntax_analyzer.html#a5eb6b9f8834aefdea576873bd6d3ef28" target="_top" xlink:title="Синтаксический анализ токенов, переданных анализатору.">
<polygon fill="none" stroke="black" points="77,-897.5 77,-927.5 190,-927.5 190,-897.5 77,-897.5"/>
<text text-anchor="start" x="85" y="-915.5" font-family="Helvetica,sans-Serif" font-size="10.00">PascalSyntaxAnalyzer</text>
<text text-anchor="middle" x="133.5" y="-904.5" font-family="Helvetica,sans-Serif" font-size="10.00">::analyzeTokens</text>
</a>
</g>
</g>
<!-- Node5&#45;&gt;Node6 -->
<g id="edge6" class="edge">
<title>Node5&#45;&gt;Node6</title>
<path fill="none" stroke="midnightblue" d="M215.92,-912.5C207.32,-912.5 198.57,-912.5 190.15,-912.5"/>
<polygon fill="midnightblue" stroke="midnightblue" points="215.93,-916 225.93,-912.5 215.93,-909 215.93,-916"/>
</g>
<!-- Node7 -->
<g id="node7" class="node">
<title>Node7</title>
<g id="a_node7"><a xlink:href="../../db/df9/test_semantic_8cpp.html#a804faf7fd199a3c491020f1f2caa618b" target="_top" xlink:title="Тест семантического анализа Паскаля">
<polygon fill="none" stroke="black" points="0,-903 0,-922 41,-922 41,-903 0,-903"/>
<text text-anchor="middle" x="20.5" y="-910" font-family="Helvetica,sans-Serif" font-size="10.00">TEST</text>
</a>
</g>
</g>
<!-- Node6&#45;&gt;Node7 -->
<g id="edge7" class="edge">
<title>Node6&#45;&gt;Node7</title>
<path fill="none" stroke="midnightblue" d="M66.58,-912.5C57.37,-912.5 48.56,-912.5 41.21,-912.5"/>
<polygon fill="midnightblue" stroke="midnightblue" points="66.67,-916 76.67,-912.5 66.67,-909 66.67,-916"/>
</g>
<!-- Node8&#45;&gt;Node9 -->
<g id="edge9" class="edge">
<title>Node8&#45;&gt;Node9</title>
<path fill="none" stroke="midnightblue" d="M1705.77,-848.45C1645.78,-847.59 1554.69,-846.5 1475.5,-846.5 1475.5,-846.5 1475.5,-846.5 877.5,-846.5 793.51,-846.5 696.47,-837.58 637.05,-831.1"/>
<polygon fill="midnightblue" stroke="midnightblue" points="1705.81,-851.95 1715.86,-848.6 1705.91,-844.95 1705.81,-851.95"/>
</g>
<!-- Node9&#45;&gt;Node4 -->
<g id="edge10" class="edge">
<title>Node9&#45;&gt;Node4</title>
<path fill="none" stroke="midnightblue" d="M547.79,-845.36C530.33,-856.65 508.17,-870.67 488,-882.5 479.4,-887.54 469.9,-892.79 461.23,-897.46"/>
<polygon fill="midnightblue" stroke="midnightblue" points="549.98,-848.11 556.46,-839.73 546.17,-842.24 549.98,-848.11"/>
</g>
<!-- Node9&#45;&gt;Node5 -->
<g id="edge11" class="edge">
<title>Node9&#45;&gt;Node5</title>
<path fill="none" stroke="midnightblue" d="M519.09,-842.46C464.67,-858.64 385.58,-882.15 334.33,-897.39"/>
<polygon fill="midnightblue" stroke="midnightblue" points="520.36,-845.73 528.95,-839.53 518.37,-839.02 520.36,-845.73"/>
</g>
<!-- Node10&#45;&gt;Node11 -->
<g id="edge13" class="edge">
<title>Node10&#45;&gt;Node11</title>
<path fill="none" stroke="midnightblue" d="M1455.32,-377C1424.69,-416.59 1363.65,-495.48 1338.13,-528.46"/>
<polygon fill="midnightblue" stroke="midnightblue" points="1458.37,-378.78 1461.72,-368.73 1452.83,-374.49 1458.37,-378.78"/>
</g>
<!-- Node13 -->
<g id="node13" class="node">
<title>Node13</title>
<g id="a_node13"><a xlink:href="../../d6/d00/class_pascal_syntax_analyzer.html#af92e2fd2112e0b98c1d419e9068ffd49" target="_top" xlink:title=" ">
<polygon fill="none" stroke="black" points="971,-534.5 971,-564.5 1084,-564.5 1084,-534.5 971,-534.5"/>
<text text-anchor="start" x="979" y="-552.5" font-family="Helvetica,sans-Serif" font-size="10.00">PascalSyntaxAnalyzer</text>
<text text-anchor="middle" x="1027.5" y="-541.5" font-family="Helvetica,sans-Serif" font-size="10.00">::syntaxSt</text>
</a>
</g>
</g>
<!-- Node10&#45;&gt;Node13 -->
<g id="edge25" class="edge">
<title>Node10&#45;&gt;Node13</title>
<path fill="none" stroke="midnightblue" d="M1407.92,-369.89C1334.89,-389.65 1214.67,-426.8 1120,-478.5 1091.24,-494.21 1062.01,-518.7 1044.56,-534.42"/>
<polygon fill="midnightblue" stroke="midnightblue" points="1409.15,-373.18 1417.91,-367.21 1407.34,-366.42 1409.15,-373.18"/>
</g>
<!-- Node11&#45;&gt;Node12 -->
<g id="edge14" class="edge">
<title>Node11&#45;&gt;Node12</title>
<path fill="none" stroke="midnightblue" d="M1258.92,-546.18C1250.32,-546.53 1241.57,-546.88 1233.15,-547.23"/>
<polygon fill="midnightblue" stroke="midnightblue" points="1259.08,-549.67 1268.93,-545.77 1258.79,-542.68 1259.08,-549.67"/>
</g>
<!-- Node12&#45;&gt;Node13 -->
<g id="edge15" class="edge">
<title>Node12&#45;&gt;Node13</title>
<path fill="none" stroke="midnightblue" d="M1109.92,-542.78C1101.32,-542.71 1092.57,-542.76 1084.15,-542.93"/>
<polygon fill="midnightblue" stroke="midnightblue" points="1109.88,-546.28 1119.93,-542.93 1109.98,-539.29 1109.88,-546.28"/>
</g>
<!-- Node13&#45;&gt;Node12 -->
<g id="edge16" class="edge">
<title>Node13&#45;&gt;Node12</title>
<path fill="none" stroke="midnightblue" d="M1094.16,-556.22C1102.76,-556.29 1111.51,-556.24 1119.93,-556.07"/>
<polygon fill="midnightblue" stroke="midnightblue" points="1094.2,-552.72 1084.15,-556.07 1094.1,-559.72 1094.2,-552.72"/>
</g>
<!-- Node13&#45;&gt;Node14 -->
<g id="edge17" class="edge">
<title>Node13&#45;&gt;Node14</title>
<path fill="none" stroke="midnightblue" d="M993.46,-570.73C961.84,-594.78 915.7,-632.99 893.06,-654.32"/>
<polygon fill="midnightblue" stroke="midnightblue" points="995.67,-573.44 1001.56,-564.64 991.47,-567.85 995.67,-573.44"/>
</g>
<!-- Node15 -->
<g id="node15" class="node">
<title>Node15</title>
<g id="a_node15"><a xlink:href="../../d6/d00/class_pascal_syntax_analyzer.html#acdfdfaf0ac3d4ed0be3e240ecc4ff535" target="_top" xlink:title=" ">
<polygon fill="none" stroke="black" points="822,-512.5 822,-542.5 935,-542.5 935,-512.5 822,-512.5"/>
<text text-anchor="start" x="830" y="-530.5" font-family="Helvetica,sans-Serif" font-size="10.00">PascalSyntaxAnalyzer</text>
<text text-anchor="middle" x="878.5" y="-519.5" font-family="Helvetica,sans-Serif" font-size="10.00">::syntaxStList</text>
</a>
</g>
</g>
<!-- Node13&#45;&gt;Node15 -->
<g id="edge19" class="edge">
<title>Node13&#45;&gt;Node15</title>
<path fill="none" stroke="midnightblue" d="M960.92,-539.69C952.32,-538.4 943.57,-537.09 935.15,-535.83"/>
<polygon fill="midnightblue" stroke="midnightblue" points="960.52,-543.16 970.93,-541.18 961.55,-536.24 960.52,-543.16"/>
</g>
<!-- Node13&#45;&gt;Node17 -->
<g id="edge23" class="edge">
<title>Node13&#45;&gt;Node17</title>
<path fill="none" stroke="midnightblue" d="M1003.04,-528.12C977.57,-508.41 936.84,-480 909.17,-462.54"/>
<polygon fill="midnightblue" stroke="midnightblue" points="1001.03,-530.99 1011.05,-534.44 1005.36,-525.5 1001.03,-530.99"/>
</g>
<!-- Node14&#45;&gt;Node13 -->
<g id="edge18" class="edge">
<title>Node14&#45;&gt;Node13</title>
<path fill="none" stroke="midnightblue" d="M912.56,-648.26C944.18,-624.2 990.29,-586.01 1012.93,-564.69"/>
<polygon fill="midnightblue" stroke="midnightblue" points="910.35,-645.54 904.46,-654.35 914.55,-651.14 910.35,-645.54"/>
</g>
<!-- Node15&#45;&gt;Node16 -->
<g id="edge20" class="edge">
<title>Node15&#45;&gt;Node16</title>
<path fill="none" stroke="midnightblue" d="M811.92,-537.31C803.32,-538.6 794.57,-539.91 786.15,-541.17"/>
<polygon fill="midnightblue" stroke="midnightblue" points="812.55,-540.76 821.93,-535.82 811.52,-533.84 812.55,-540.76"/>
</g>
<!-- Node16&#45;&gt;Node9 -->
<g id="edge21" class="edge">
<title>Node16&#45;&gt;Node9</title>
<path fill="none" stroke="midnightblue" d="M715.52,-573.78C685.86,-629.27 613.8,-764.08 589.59,-809.37"/>
<polygon fill="midnightblue" stroke="midnightblue" points="718.76,-575.15 720.39,-564.68 712.59,-571.85 718.76,-575.15"/>
</g>
<!-- Node16&#45;&gt;Node13 -->
<g id="edge22" class="edge">
<title>Node16&#45;&gt;Node13</title>
<path fill="none" stroke="midnightblue" d="M796.24,-551.11C804.9,-551.27 813.66,-551.41 822,-551.5 872.22,-552.05 884.78,-552.05 935,-551.5 946.6,-551.37 959.02,-551.16 970.86,-550.91"/>
<polygon fill="midnightblue" stroke="midnightblue" points="796.21,-547.61 786.14,-550.91 796.07,-554.61 796.21,-547.61"/>
</g>
<!-- Node17&#45;&gt;Node13 -->
<g id="edge24" class="edge">
<title>Node17&#45;&gt;Node13</title>
<path fill="none" stroke="midnightblue" d="M903.19,-469.06C928.65,-488.74 969.17,-517 996.75,-534.41"/>
<polygon fill="midnightblue" stroke="midnightblue" points="905.2,-466.18 895.17,-462.74 900.86,-471.68 905.2,-466.18"/>
</g>
<!-- Node18&#45;&gt;Node13 -->
<g id="edge47" class="edge">
<title>Node18&#45;&gt;Node13</title>
<path fill="none" stroke="midnightblue" d="M2321.6,-512.77C2257.74,-519.17 2158.11,-527.5 2071.5,-527.5 2071.5,-527.5 2071.5,-527.5 1920.5,-527.5 1630.92,-527.5 1558.52,-512.67 1269,-518.5 1202.74,-519.83 1185.5,-514.37 1120,-524.5 1105.35,-526.77 1089.7,-530.53 1075.55,-534.46"/>
<polygon fill="midnightblue" stroke="midnightblue" points="2322.33,-516.21 2331.93,-511.72 2321.62,-509.25 2322.33,-516.21"/>
</g>
<!-- Node18&#45;&gt;Node19 -->
<g id="edge28" class="edge">
<title>Node18&#45;&gt;Node19</title>
<path fill="none" stroke="midnightblue" d="M2351.12,-485.46C2320.04,-468.34 2276,-444.07 2247.84,-428.56"/>
<polygon fill="midnightblue" stroke="midnightblue" points="2349.48,-488.55 2359.92,-490.31 2352.85,-482.42 2349.48,-488.55"/>
</g>
<!-- Node19&#45;&gt;Node11 -->
<g id="edge30" class="edge">
<title>Node19&#45;&gt;Node11</title>
<path fill="none" stroke="midnightblue" d="M2152.82,-426.06C2144.15,-427.61 2135.37,-429.13 2127,-430.5 1848.24,-476.05 1513.05,-519.82 1382.43,-536.46"/>
<polygon fill="midnightblue" stroke="midnightblue" points="2153.71,-429.45 2162.92,-424.23 2152.46,-422.57 2153.71,-429.45"/>
</g>
<!-- Node19&#45;&gt;Node19 -->
<g id="edge29" class="edge">
<title>Node19&#45;&gt;Node19</title>
<path fill="none" stroke="midnightblue" d="M2245.8,-438.96C2242.53,-443.68 2233.77,-447 2219.5,-447 2196.09,-447 2187.49,-438.06 2193.71,-428.66"/>
<polygon fill="midnightblue" stroke="midnightblue" points="2249.28,-438.48 2245.29,-428.66 2242.29,-438.82 2249.28,-438.48"/>
</g>
<!-- Node19&#45;&gt;Node20 -->
<g id="edge31" class="edge">
<title>Node19&#45;&gt;Node20</title>
<path fill="none" stroke="midnightblue" d="M2183.16,-393.18C2166.22,-383.5 2145.61,-371.81 2127,-361.5 2118.19,-356.61 2108.54,-351.37 2099.8,-346.65"/>
<polygon fill="midnightblue" stroke="midnightblue" points="2181.74,-396.4 2192.16,-398.33 2185.22,-390.33 2181.74,-396.4"/>
</g>
<!-- Node20&#45;&gt;Node21 -->
<g id="edge32" class="edge">
<title>Node20&#45;&gt;Node21</title>
<path fill="none" stroke="midnightblue" d="M2003.92,-331.5C1995.32,-331.5 1986.57,-331.5 1978.15,-331.5"/>
<polygon fill="midnightblue" stroke="midnightblue" points="2003.93,-335 2013.93,-331.5 2003.93,-328 2003.93,-335"/>
</g>
<!-- Node21&#45;&gt;Node22 -->
<g id="edge33" class="edge">
<title>Node21&#45;&gt;Node22</title>
<path fill="none" stroke="midnightblue" d="M1886.58,-351.81C1859.85,-367.81 1823.18,-389.76 1798.93,-404.28"/>
<polygon fill="midnightblue" stroke="midnightblue" points="1888.45,-354.77 1895.23,-346.63 1884.85,-348.76 1888.45,-354.77"/>
</g>
<!-- Node22&#45;&gt;Node10 -->
<g id="edge34" class="edge">
<title>Node22&#45;&gt;Node10</title>
<path fill="none" stroke="midnightblue" d="M1705.95,-404.88C1653.52,-393.19 1580.81,-376.98 1531.18,-365.91"/>
<polygon fill="midnightblue" stroke="midnightblue" points="1705.3,-408.33 1715.82,-407.09 1706.83,-401.49 1705.3,-408.33"/>
</g>
<!-- Node22&#45;&gt;Node14 -->
<g id="edge40" class="edge">
<title>Node22&#45;&gt;Node14</title>
<path fill="none" stroke="midnightblue" d="M1727.96,-438.73C1656.79,-469.54 1510.58,-530.29 1382,-567.5 1222.52,-613.65 1028.71,-646.69 935.24,-661.23"/>
<polygon fill="midnightblue" stroke="midnightblue" points="1729.71,-441.78 1737.49,-434.59 1726.92,-435.36 1729.71,-441.78"/>
</g>
<!-- Node22&#45;&gt;Node17 -->
<g id="edge46" class="edge">
<title>Node22&#45;&gt;Node17</title>
<path fill="none" stroke="midnightblue" d="M1705.77,-418.45C1645.78,-417.59 1554.69,-416.5 1475.5,-416.5 1475.5,-416.5 1475.5,-416.5 1175.5,-416.5 1091.41,-416.5 994.6,-429.03 935.24,-438.16"/>
<polygon fill="midnightblue" stroke="midnightblue" points="1705.81,-421.95 1715.86,-418.6 1705.91,-414.95 1705.81,-421.95"/>
</g>
<!-- Node22&#45;&gt;Node18 -->
<g id="edge35" class="edge">
<title>Node22&#45;&gt;Node18</title>
<path fill="none" stroke="midnightblue" d="M1839.31,-428.72C1960.87,-445.74 2218.51,-481.83 2331.93,-497.72"/>
<polygon fill="midnightblue" stroke="midnightblue" points="1839.78,-425.25 1829.39,-427.33 1838.81,-432.18 1839.78,-425.25"/>
</g>
<!-- Node22&#45;&gt;Node19 -->
<g id="edge39" class="edge">
<title>Node22&#45;&gt;Node19</title>
<path fill="none" stroke="midnightblue" d="M1839.27,-418.61C1926.86,-417.43 2080.3,-415.36 2162.59,-414.25"/>
<polygon fill="midnightblue" stroke="midnightblue" points="1839.13,-415.11 1829.18,-418.75 1839.23,-422.11 1839.13,-415.11"/>
</g>
<!-- Node22&#45;&gt;Node23 -->
<g id="edge36" class="edge">
<title>Node22&#45;&gt;Node23</title>
<path fill="none" stroke="midnightblue" d="M1762.39,-394.47C1734.75,-318.49 1652.34,-92.01 1630.09,-30.86"/>
<polygon fill="midnightblue" stroke="midnightblue" points="1759.21,-395.96 1765.92,-404.16 1765.79,-393.56 1759.21,-395.96"/>
</g>
<!-- Node22&#45;&gt;Node25 -->
<g id="edge41" class="edge">
<title>Node22&#45;&gt;Node25</title>
<path fill="none" stroke="midnightblue" d="M1762.34,-444.4C1747.64,-482.97 1716.7,-558.8 1680,-617.5 1667.8,-637.01 1650.68,-657.16 1638.7,-670.41"/>
<polygon fill="midnightblue" stroke="midnightblue" points="1765.8,-445.15 1766.04,-434.56 1759.25,-442.69 1765.8,-445.15"/>
</g>
<!-- Node22&#45;&gt;Node26 -->
<g id="edge43" class="edge">
<title>Node22&#45;&gt;Node26</title>
<path fill="none" stroke="midnightblue" d="M1733.09,-399.46C1727.3,-396.23 1721.45,-392.85 1716,-389.5 1699.41,-379.3 1696.59,-374.7 1680,-364.5 1671.7,-359.39 1662.46,-354.21 1653.94,-349.62"/>
<polygon fill="midnightblue" stroke="midnightblue" points="1731.61,-402.64 1742.06,-404.38 1734.97,-396.5 1731.61,-402.64"/>
</g>
<!-- Node24 -->
<g id="node24" class="node">
<title>Node24</title>
<g id="a_node24"><a xlink:href="../../d6/d00/class_pascal_syntax_analyzer.html#aa73dd3ea39d6257f4113757061233534" target="_top" xlink:title=" ">
<polygon fill="none" stroke="black" points="1269,-0.5 1269,-30.5 1382,-30.5 1382,-0.5 1269,-0.5"/>
<text text-anchor="start" x="1277" y="-18.5" font-family="Helvetica,sans-Serif" font-size="10.00">PascalSyntaxAnalyzer</text>
<text text-anchor="middle" x="1325.5" y="-7.5" font-family="Helvetica,sans-Serif" font-size="10.00">::syntaxConsts</text>
</a>
</g>
</g>
<!-- Node23&#45;&gt;Node24 -->
<g id="edge37" class="edge">
<title>Node23&#45;&gt;Node24</title>
<path fill="none" stroke="midnightblue" d="M1556.62,-15.5C1504.22,-15.5 1431.71,-15.5 1382.18,-15.5"/>
<polygon fill="midnightblue" stroke="midnightblue" points="1556.82,-19 1566.82,-15.5 1556.82,-12 1556.82,-19"/>
</g>
<!-- Node24&#45;&gt;Node9 -->
<g id="edge38" class="edge">
<title>Node24&#45;&gt;Node9</title>
<path fill="none" stroke="midnightblue" d="M1258.77,-16.55C1198.78,-17.41 1107.69,-18.5 1028.5,-18.5 1028.5,-18.5 1028.5,-18.5 877.5,-18.5 702.16,-18.5 599.12,-699.14 583.56,-809.47"/>
<polygon fill="midnightblue" stroke="midnightblue" points="1258.91,-20.05 1268.86,-16.4 1258.81,-13.05 1258.91,-20.05"/>
</g>
<!-- Node25&#45;&gt;Node13 -->
<g id="edge42" class="edge">
<title>Node25&#45;&gt;Node13</title>
<path fill="none" stroke="midnightblue" d="M1556.5,-686.34C1484.68,-685.78 1366.98,-680.51 1269,-655.5 1187.21,-634.62 1098.03,-588.56 1054.86,-564.62"/>
<polygon fill="midnightblue" stroke="midnightblue" points="1556.74,-689.84 1566.76,-686.39 1556.78,-682.84 1556.74,-689.84"/>
</g>
<!-- Node26&#45;&gt;Node10 -->
<g id="edge44" class="edge">
<title>Node26&#45;&gt;Node10</title>
<path fill="none" stroke="midnightblue" d="M1556.92,-342.98C1548.32,-344.09 1539.57,-345.22 1531.15,-346.31"/>
<polygon fill="midnightblue" stroke="midnightblue" points="1557.46,-346.44 1566.93,-341.68 1556.56,-339.49 1557.46,-346.44"/>
</g>
<!-- Node26&#45;&gt;Node19 -->
<g id="edge45" class="edge">
<title>Node26&#45;&gt;Node19</title>
<path fill="none" stroke="midnightblue" d="M1690.26,-343.25C1808.03,-358.91 2052.89,-391.47 2162.88,-406.1"/>
<polygon fill="midnightblue" stroke="midnightblue" points="1690.67,-339.77 1680.3,-341.92 1689.75,-346.71 1690.67,-339.77"/>
</g>
<!-- Node27&#45;&gt;Node13 -->
<g id="edge51" class="edge">
<title>Node27&#45;&gt;Node13</title>
<path fill="none" stroke="midnightblue" d="M1854.58,-724.95C1736.09,-726.28 1479.81,-723.31 1269,-680.5 1201.33,-666.76 1179.8,-671.03 1120,-636.5 1086.97,-617.43 1056.57,-584.09 1040.48,-564.69"/>
<polygon fill="midnightblue" stroke="midnightblue" points="1854.97,-728.45 1864.93,-724.82 1854.88,-721.45 1854.97,-728.45"/>
</g>
<!-- Node28&#45;&gt;Node3 -->
<g id="edge66" class="edge">
<title>Node28&#45;&gt;Node3</title>
<path fill="none" stroke="midnightblue" d="M2322.06,-914.26C2306.88,-910.26 2290.86,-906.04 2276.15,-902.16"/>
<polygon fill="midnightblue" stroke="midnightblue" points="2321.33,-917.69 2331.89,-916.85 2323.11,-910.92 2321.33,-917.69"/>
</g>
<!-- Node28&#45;&gt;Node4 -->
<g id="edge64" class="edge">
<title>Node28&#45;&gt;Node4</title>
<path fill="none" stroke="midnightblue" d="M2321.51,-931.5C2257.58,-931.5 2157.9,-931.5 2071.5,-931.5 2071.5,-931.5 2071.5,-931.5 728.5,-931.5 644.56,-931.5 547.51,-923.8 488.08,-918.2"/>
<polygon fill="midnightblue" stroke="midnightblue" points="2321.84,-935 2331.84,-931.5 2321.84,-928 2321.84,-935"/>
</g>
<!-- Node28&#45;&gt;Node28 -->
<g id="edge65" class="edge">
<title>Node28&#45;&gt;Node28</title>
<path fill="none" stroke="midnightblue" d="M2418.35,-956.96C2414.65,-961.68 2404.7,-965 2388.5,-965 2361.92,-965 2352.16,-956.06 2359.22,-946.66"/>
<polygon fill="midnightblue" stroke="midnightblue" points="2421.83,-956.45 2417.78,-946.66 2414.84,-956.84 2421.83,-956.45"/>
</g>
<!-- Node29&#45;&gt;Node10 -->
<g id="edge69" class="edge">
<title>Node29&#45;&gt;Node10</title>
<path fill="none" stroke="midnightblue" d="M2321.81,-194.95C2258.03,-185.62 2158.39,-173.5 2071.5,-173.5 2071.5,-173.5 2071.5,-173.5 1771.5,-173.5 1644.9,-173.5 1526.36,-295.2 1488.23,-338.46"/>
<polygon fill="midnightblue" stroke="midnightblue" points="2321.33,-198.41 2331.73,-196.42 2322.35,-191.49 2321.33,-198.41"/>
</g>
<!-- Node29&#45;&gt;Node19 -->
<g id="edge70" class="edge">
<title>Node29&#45;&gt;Node19</title>
<path fill="none" stroke="midnightblue" d="M2368.85,-228.72C2334.34,-271.71 2261.39,-362.58 2232.57,-398.46"/>
<polygon fill="midnightblue" stroke="midnightblue" points="2371.69,-230.78 2375.22,-220.79 2366.23,-226.4 2371.69,-230.78"/>
</g>
<!-- Node29&#45;&gt;Node26 -->
<g id="edge71" class="edge">
<title>Node29&#45;&gt;Node26</title>
<path fill="none" stroke="midnightblue" d="M2321.52,-207.48C2257.59,-209.23 2157.91,-211.5 2071.5,-211.5 2071.5,-211.5 2071.5,-211.5 1920.5,-211.5 1828.99,-211.5 1797.56,-193.99 1716,-235.5 1678.04,-254.82 1647.81,-296.71 1633.5,-319.31"/>
<polygon fill="midnightblue" stroke="midnightblue" points="2321.95,-210.97 2331.85,-207.2 2321.76,-203.97 2321.95,-210.97"/>
</g>
</g>
</svg>
