<?xml version="1.0" encoding="UTF-8" standalone="no"?>
<!DOCTYPE svg PUBLIC "-//W3C//DTD SVG 1.1//EN"
 "http://www.w3.org/Graphics/SVG/1.1/DTD/svg11.dtd">
<!-- Generated by graphviz version 3.0.0 (20220413.0106)
 -->
<!-- Title: Token::setStr Pages: 1 -->
<svg width="3105pt" height="857pt"
 viewBox="0.00 0.00 3105.00 857.30" xmlns="http://www.w3.org/2000/svg" xmlns:xlink="http://www.w3.org/1999/xlink">
<g id="graph0" class="graph" transform="scale(1 1) rotate(0) translate(4 853.3)">
<title>Token::setStr</title>
<!-- Node1 -->
<g id="node1" class="node">
<title>Node1</title>
<g id="a_node1"><a xlink:title=" ">
<polygon fill="#bfbfbf" stroke="black" points="3023,-422.62 3023,-441.62 3097,-441.62 3097,-422.62 3023,-422.62"/>
<text text-anchor="middle" x="3060" y="-429.62" font-family="Helvetica,sans-Serif" font-size="10.00">Token::setStr</text>
</a>
</g>
</g>
<!-- Node2 -->
<g id="node2" class="node">
<title>Node2</title>
<g id="a_node2"><a xlink:href="../../d7/d7c/class_a_s_t_factory.html#a8d1d4c9d01ab2e366d1af6bbaeaf7bef" target="_top" xlink:title=" ">
<polygon fill="none" stroke="black" points="2868,-422.62 2868,-441.62 2987,-441.62 2987,-422.62 2868,-422.62"/>
<text text-anchor="middle" x="2927.5" y="-429.62" font-family="Helvetica,sans-Serif" font-size="10.00">ASTFactory::createAST</text>
</a>
</g>
</g>
<!-- Node1&#45;&gt;Node2 -->
<g id="edge1" class="edge">
<title>Node1&#45;&gt;Node2</title>
<path fill="none" stroke="midnightblue" d="M3012.86,-432.12C3004.63,-432.12 2995.96,-432.12 2987.44,-432.12"/>
<polygon fill="midnightblue" stroke="midnightblue" points="3012.99,-435.62 3022.99,-432.12 3012.99,-428.62 3012.99,-435.62"/>
</g>
<!-- Node3 -->
<g id="node3" class="node">
<title>Node3</title>
<g id="a_node3"><a xlink:href="../../d0/dfe/class_syntax_analyzer.html#a31fc5887c158652feb946f89270b4b36" target="_top" xlink:title=" ">
<polygon fill="none" stroke="black" points="1744,-417.62 1744,-436.62 1899,-436.62 1899,-417.62 1744,-417.62"/>
<text text-anchor="middle" x="1821.5" y="-424.62" font-family="Helvetica,sans-Serif" font-size="10.00">SyntaxAnalyzer::syntaxAssignSt</text>
</a>
</g>
</g>
<!-- Node2&#45;&gt;Node3 -->
<g id="edge2" class="edge">
<title>Node2&#45;&gt;Node3</title>
<path fill="none" stroke="midnightblue" d="M2909.3,-415.64C2891.39,-399.39 2861.84,-375.03 2832,-361.12 2721.79,-309.71 2687.11,-299.12 2565.5,-299.12 2565.5,-299.12 2565.5,-299.12 2186,-299.12 2072.51,-299.12 2039.33,-301.44 1935,-346.12 1892.74,-364.21 1850.92,-400.39 1832.4,-417.6"/>
<polygon fill="midnightblue" stroke="midnightblue" points="2906.95,-418.23 2916.66,-422.46 2911.71,-413.1 2906.95,-418.23"/>
</g>
<!-- Node4 -->
<g id="node4" class="node">
<title>Node4</title>
<g id="a_node4"><a xlink:href="../../d0/dfe/class_syntax_analyzer.html#aea3a3d1860938d64edf651bdc4016c04" target="_top" xlink:title=" ">
<polygon fill="none" stroke="black" points="1569,-379.62 1569,-398.62 1708,-398.62 1708,-379.62 1569,-379.62"/>
<text text-anchor="middle" x="1638.5" y="-386.62" font-family="Helvetica,sans-Serif" font-size="10.00">SyntaxAnalyzer::syntaxIterSt</text>
</a>
</g>
</g>
<!-- Node2&#45;&gt;Node4 -->
<g id="edge49" class="edge">
<title>Node2&#45;&gt;Node4</title>
<path fill="none" stroke="midnightblue" d="M2918.62,-412.98C2905.43,-383.57 2875.93,-327.89 2832,-301.12 2729.73,-238.78 2685.27,-261.12 2565.5,-261.12 2565.5,-261.12 2565.5,-261.12 2001,-261.12 1859.19,-261.12 1703.1,-349.73 1654.67,-379.49"/>
<polygon fill="midnightblue" stroke="midnightblue" points="2915.56,-414.72 2922.74,-422.52 2921.99,-411.95 2915.56,-414.72"/>
</g>
<!-- Node5 -->
<g id="node5" class="node">
<title>Node5</title>
<g id="a_node5"><a xlink:href="../../d0/dfe/class_syntax_analyzer.html#a82e8472ea6d1064871de0d05eaa8b374" target="_top" xlink:title=" ">
<polygon fill="none" stroke="black" points="1394,-379.62 1394,-398.62 1533,-398.62 1533,-379.62 1394,-379.62"/>
<text text-anchor="middle" x="1463.5" y="-386.62" font-family="Helvetica,sans-Serif" font-size="10.00">SyntaxAnalyzer::syntaxForSt</text>
</a>
</g>
</g>
<!-- Node2&#45;&gt;Node5 -->
<g id="edge46" class="edge">
<title>Node2&#45;&gt;Node5</title>
<path fill="none" stroke="midnightblue" d="M2922.45,-412.38C2913.51,-374.4 2888.28,-291.5 2832,-253.12 2733.53,-185.95 2684.69,-223.12 2565.5,-223.12 2565.5,-223.12 2565.5,-223.12 1820.5,-223.12 1671.5,-223.12 1517.5,-344.04 1475.59,-379.47"/>
<polygon fill="midnightblue" stroke="midnightblue" points="2919.05,-413.23 2924.63,-422.23 2925.88,-411.71 2919.05,-413.23"/>
</g>
<!-- Node7 -->
<g id="node7" class="node">
<title>Node7</title>
<g id="a_node7"><a xlink:href="../../d0/dfe/class_syntax_analyzer.html#a779e006875d35926152773989f4b1e5a" target="_top" xlink:title=" ">
<polygon fill="none" stroke="black" points="1024,-579.62 1024,-598.62 1155,-598.62 1155,-579.62 1024,-579.62"/>
<text text-anchor="middle" x="1089.5" y="-586.62" font-family="Helvetica,sans-Serif" font-size="10.00">SyntaxAnalyzer::syntaxIfSt</text>
</a>
</g>
</g>
<!-- Node2&#45;&gt;Node7 -->
<g id="edge48" class="edge">
<title>Node2&#45;&gt;Node7</title>
<path fill="none" stroke="midnightblue" d="M2924.75,-452.26C2919.61,-498.19 2900.33,-611.07 2832,-667.12 2738.82,-743.54 2686.01,-717.12 2565.5,-717.12 2565.5,-717.12 2565.5,-717.12 1462.5,-717.12 1317.02,-717.12 1156.1,-628.5 1106.15,-598.74"/>
<polygon fill="midnightblue" stroke="midnightblue" points="2928.25,-452.39 2925.77,-442.09 2921.29,-451.69 2928.25,-452.39"/>
</g>
<!-- Node9 -->
<g id="node9" class="node">
<title>Node9</title>
<g id="a_node9"><a xlink:href="../../d0/dfe/class_syntax_analyzer.html#a5770afdc4d32d2c38550f27f9ffd949a" target="_top" xlink:title=" ">
<polygon fill="none" stroke="black" points="808,-417.62 808,-436.62 979,-436.62 979,-417.62 808,-417.62"/>
<text text-anchor="middle" x="893.5" y="-424.62" font-family="Helvetica,sans-Serif" font-size="10.00">SyntaxAnalyzer::syntaxCompoundSt</text>
</a>
</g>
</g>
<!-- Node2&#45;&gt;Node9 -->
<g id="edge38" class="edge">
<title>Node2&#45;&gt;Node9</title>
<path fill="none" stroke="midnightblue" d="M2926.02,-412.46C2923.64,-362.86 2909.92,-232.32 2832,-172.12 2737.86,-99.38 2684.46,-147.12 2565.5,-147.12 2565.5,-147.12 2565.5,-147.12 1278,-147.12 1090.46,-147.12 933.38,-368.24 900.73,-417.48"/>
<polygon fill="midnightblue" stroke="midnightblue" points="2922.52,-412.64 2926.39,-422.5 2929.52,-412.38 2922.52,-412.64"/>
</g>
<!-- Node10 -->
<g id="node10" class="node">
<title>Node10</title>
<g id="a_node10"><a xlink:href="../../d0/dfe/class_syntax_analyzer.html#a2b54bac50e114b68e83c80d869b6ac7c" target="_top" xlink:title=" ">
<polygon fill="none" stroke="black" points="632,-417.62 632,-436.62 772,-436.62 772,-417.62 632,-417.62"/>
<text text-anchor="middle" x="702" y="-424.62" font-family="Helvetica,sans-Serif" font-size="10.00">SyntaxAnalyzer::syntaxBlock</text>
</a>
</g>
</g>
<!-- Node2&#45;&gt;Node10 -->
<g id="edge22" class="edge">
<title>Node2&#45;&gt;Node10</title>
<path fill="none" stroke="midnightblue" d="M2924.01,-451.9C2915.22,-518.4 2883.36,-732.06 2832,-774.12 2740.13,-849.35 2684.25,-793.12 2565.5,-793.12 2565.5,-793.12 2565.5,-793.12 1088.5,-793.12 1012.17,-793.12 850.5,-716.05 808,-672.12 737.86,-599.6 711.04,-472.92 704.62,-436.91"/>
<polygon fill="midnightblue" stroke="midnightblue" points="2927.49,-452.26 2925.31,-441.9 2920.55,-451.37 2927.49,-452.26"/>
</g>
<!-- Node11 -->
<g id="node11" class="node">
<title>Node11</title>
<g id="a_node11"><a xlink:href="../../d0/dfe/class_syntax_analyzer.html#ae04232a95c6423677e600927c82851e4" target="_top" xlink:title=" ">
<polygon fill="none" stroke="black" points="444,-99.62 444,-118.62 596,-118.62 596,-99.62 444,-99.62"/>
<text text-anchor="middle" x="520" y="-106.62" font-family="Helvetica,sans-Serif" font-size="10.00">SyntaxAnalyzer::syntaxFuncDef</text>
</a>
</g>
</g>
<!-- Node2&#45;&gt;Node11 -->
<g id="edge47" class="edge">
<title>Node2&#45;&gt;Node11</title>
<path fill="none" stroke="midnightblue" d="M2924.6,-412.23C2917.29,-340.25 2888.56,-94.89 2832,-45.12 2742.52,33.63 2684.69,-15.12 2565.5,-15.12 2565.5,-15.12 2565.5,-15.12 892.5,-15.12 755.78,-15.12 599.17,-75.69 542.71,-99.58"/>
<polygon fill="midnightblue" stroke="midnightblue" points="2921.16,-412.97 2925.62,-422.58 2928.12,-412.28 2921.16,-412.97"/>
</g>
<!-- Node12 -->
<g id="node12" class="node">
<title>Node12</title>
<g id="a_node12"><a xlink:href="../../d0/dfe/class_syntax_analyzer.html#a8b337bd5b4a90cd5bd804a936e408e4b" target="_top" xlink:title=" ">
<polygon fill="none" stroke="black" points="256,-417.62 256,-436.62 408,-436.62 408,-417.62 256,-417.62"/>
<text text-anchor="middle" x="332" y="-424.62" font-family="Helvetica,sans-Serif" font-size="10.00">SyntaxAnalyzer::syntaxProgram</text>
</a>
</g>
</g>
<!-- Node2&#45;&gt;Node12 -->
<g id="edge50" class="edge">
<title>Node2&#45;&gt;Node12</title>
<path fill="none" stroke="midnightblue" d="M2924.49,-451.89C2916.89,-522.39 2887.49,-759.72 2832,-807.12 2741.57,-884.35 2684.42,-831.12 2565.5,-831.12 2565.5,-831.12 2565.5,-831.12 701,-831.12 480.42,-831.12 356.96,-497.88 336.16,-436.7"/>
<polygon fill="midnightblue" stroke="midnightblue" points="2927.99,-452.04 2925.56,-441.73 2921.03,-451.31 2927.99,-452.04"/>
</g>
<!-- Node16 -->
<g id="node16" class="node">
<title>Node16</title>
<g id="a_node16"><a xlink:href="../../d0/dfe/class_syntax_analyzer.html#a64dad7f0b22b08d182483469d3a1aa79" target="_top" xlink:title=" ">
<polygon fill="none" stroke="black" points="1015,-512.62 1015,-531.62 1164,-531.62 1164,-512.62 1015,-512.62"/>
<text text-anchor="middle" x="1089.5" y="-519.62" font-family="Helvetica,sans-Serif" font-size="10.00">SyntaxAnalyzer::syntaxWhileSt</text>
</a>
</g>
</g>
<!-- Node2&#45;&gt;Node16 -->
<g id="edge65" class="edge">
<title>Node2&#45;&gt;Node16</title>
<path fill="none" stroke="midnightblue" d="M2922.79,-452.08C2914.32,-491.77 2889.63,-580.6 2832,-625.12 2736.36,-698.99 2686.35,-679.12 2565.5,-679.12 2565.5,-679.12 2565.5,-679.12 1820.5,-679.12 1538.55,-679.12 1208.75,-565.79 1115.93,-531.7"/>
<polygon fill="midnightblue" stroke="midnightblue" points="2926.27,-452.55 2924.81,-442.05 2919.4,-451.17 2926.27,-452.55"/>
</g>
<!-- Node17 -->
<g id="node17" class="node">
<title>Node17</title>
<g id="a_node17"><a xlink:href="../../d0/dfe/class_syntax_analyzer.html#a2db43946bee3e973ce1cf293b262e271" target="_top" xlink:title=" ">
<polygon fill="none" stroke="black" points="2681.5,-555.62 2681.5,-574.62 2822.5,-574.62 2822.5,-555.62 2681.5,-555.62"/>
<text text-anchor="middle" x="2752" y="-562.62" font-family="Helvetica,sans-Serif" font-size="10.00">SyntaxAnalyzer::syntaxCallSt</text>
</a>
</g>
</g>
<!-- Node2&#45;&gt;Node17 -->
<g id="edge23" class="edge">
<title>Node2&#45;&gt;Node17</title>
<path fill="none" stroke="midnightblue" d="M2915.33,-450.5C2899.66,-474.75 2868.91,-517.16 2832,-541.12 2822.38,-547.36 2811.06,-552.04 2800.04,-555.53"/>
<polygon fill="midnightblue" stroke="midnightblue" points="2918.39,-452.21 2920.75,-441.88 2912.46,-448.48 2918.39,-452.21"/>
</g>
<!-- Node18 -->
<g id="node18" class="node">
<title>Node18</title>
<g id="a_node18"><a xlink:href="../../d0/dfe/class_syntax_analyzer.html#a3af9b5161a2cef6fdd26b0bb60334ac4" target="_top" xlink:title=" ">
<polygon fill="none" stroke="black" points="2493,-489.62 2493,-508.62 2636,-508.62 2636,-489.62 2493,-489.62"/>
<text text-anchor="middle" x="2564.5" y="-496.62" font-family="Helvetica,sans-Serif" font-size="10.00">SyntaxAnalyzer::syntaxFactor</text>
</a>
</g>
</g>
<!-- Node2&#45;&gt;Node18 -->
<g id="edge45" class="edge">
<title>Node2&#45;&gt;Node18</title>
<path fill="none" stroke="midnightblue" d="M2912.01,-449.26C2895.05,-467.87 2865.04,-496.48 2832,-508.12 2754.06,-535.57 2655.24,-520.36 2602.56,-508.64"/>
<polygon fill="midnightblue" stroke="midnightblue" points="2914.65,-451.55 2918.65,-441.74 2909.41,-446.92 2914.65,-451.55"/>
</g>
<!-- Node19 -->
<g id="node19" class="node">
<title>Node19</title>
<g id="a_node19"><a xlink:href="../../d0/dfe/class_syntax_analyzer.html#a1e9b913cc8c2861927d7c05d10f1822d" target="_top" xlink:title=" ">
<polygon fill="none" stroke="black" points="2312.5,-441.62 2312.5,-460.62 2449.5,-460.62 2449.5,-441.62 2312.5,-441.62"/>
<text text-anchor="middle" x="2381" y="-448.62" font-family="Helvetica,sans-Serif" font-size="10.00">SyntaxAnalyzer::syntaxTerm</text>
</a>
</g>
</g>
<!-- Node2&#45;&gt;Node19 -->
<g id="edge53" class="edge">
<title>Node2&#45;&gt;Node19</title>
<path fill="none" stroke="midnightblue" d="M2857.8,-434.51C2752.84,-438.18 2553.77,-445.12 2449.52,-448.76"/>
<polygon fill="midnightblue" stroke="midnightblue" points="2858.1,-438 2867.97,-434.16 2857.85,-431.01 2858.1,-438"/>
</g>
<!-- Node20 -->
<g id="node20" class="node">
<title>Node20</title>
<g id="a_node20"><a xlink:href="../../d0/dfe/class_syntax_analyzer.html#a3dfb6634a4bcdc61da5b1bafd1f3d136" target="_top" xlink:title=" ">
<polygon fill="none" stroke="black" points="2105,-441.62 2105,-460.62 2269,-460.62 2269,-441.62 2105,-441.62"/>
<text text-anchor="middle" x="2187" y="-448.62" font-family="Helvetica,sans-Serif" font-size="10.00">SyntaxAnalyzer::syntaxSimpleExpr</text>
</a>
</g>
</g>
<!-- Node2&#45;&gt;Node20 -->
<g id="edge52" class="edge">
<title>Node2&#45;&gt;Node20</title>
<path fill="none" stroke="midnightblue" d="M2857.62,-428.45C2742.81,-423.15 2505.16,-415.69 2305,-432.12 2282.13,-433.99 2256.99,-437.84 2235.89,-441.58"/>
<polygon fill="midnightblue" stroke="midnightblue" points="2857.52,-431.95 2867.67,-428.92 2857.85,-424.95 2857.52,-431.95"/>
</g>
<!-- Node21 -->
<g id="node21" class="node">
<title>Node21</title>
<g id="a_node21"><a xlink:href="../../d0/dfe/class_syntax_analyzer.html#ae8d09db1b25ec882248aeed978c13a4d" target="_top" xlink:title=" ">
<polygon fill="none" stroke="black" points="1935,-522.62 1935,-541.62 2069,-541.62 2069,-522.62 1935,-522.62"/>
<text text-anchor="middle" x="2002" y="-529.62" font-family="Helvetica,sans-Serif" font-size="10.00">SyntaxAnalyzer::syntaxExpr</text>
</a>
</g>
</g>
<!-- Node2&#45;&gt;Node21 -->
<g id="edge44" class="edge">
<title>Node2&#45;&gt;Node21</title>
<path fill="none" stroke="midnightblue" d="M2921.1,-451.77C2910.52,-485.97 2883.47,-555.51 2832,-584.12 2549.66,-741.04 2126.71,-583.53 2025.39,-541.71"/>
<polygon fill="midnightblue" stroke="midnightblue" points="2924.51,-452.59 2923.97,-442 2917.79,-450.61 2924.51,-452.59"/>
</g>
<!-- Node22 -->
<g id="node22" class="node">
<title>Node22</title>
<g id="a_node22"><a xlink:href="../../d0/dfe/class_syntax_analyzer.html#a55e935b2aa7f20b66e9228e977582fcd" target="_top" xlink:title=" ">
<polygon fill="none" stroke="black" points="1745,-455.62 1745,-474.62 1898,-474.62 1898,-455.62 1745,-455.62"/>
<text text-anchor="middle" x="1821.5" y="-462.62" font-family="Helvetica,sans-Serif" font-size="10.00">SyntaxAnalyzer::syntaxReturnSt</text>
</a>
</g>
</g>
<!-- Node2&#45;&gt;Node22 -->
<g id="edge51" class="edge">
<title>Node2&#45;&gt;Node22</title>
<path fill="none" stroke="midnightblue" d="M2861.13,-421.2C2851.39,-419.93 2841.45,-418.84 2832,-418.12 2745.14,-411.49 2723.11,-417.34 2636,-417.12 2399.91,-416.51 2340.13,-410.76 2105,-432.12 2033.45,-438.62 1951.97,-448.39 1894.97,-455.61"/>
<polygon fill="midnightblue" stroke="midnightblue" points="2860.8,-424.69 2871.18,-422.58 2861.75,-417.75 2860.8,-424.69"/>
</g>
<!-- Node23 -->
<g id="node23" class="node">
<title>Node23</title>
<g id="a_node23"><a xlink:href="../../d0/dfe/class_syntax_analyzer.html#adad79b2219ae143b49203a836713bec9" target="_top" xlink:title=" ">
<polygon fill="none" stroke="black" points="2672,-745.62 2672,-764.62 2832,-764.62 2832,-745.62 2672,-745.62"/>
<text text-anchor="middle" x="2752" y="-752.62" font-family="Helvetica,sans-Serif" font-size="10.00">SyntaxAnalyzer::syntaxConstDecl</text>
</a>
</g>
</g>
<!-- Node2&#45;&gt;Node23 -->
<g id="edge39" class="edge">
<title>Node2&#45;&gt;Node23</title>
<path fill="none" stroke="midnightblue" d="M2926.25,-451.85C2924.5,-504.88 2912.24,-651.77 2832,-731.12 2825.58,-737.47 2817.53,-742.14 2809.05,-745.59"/>
<polygon fill="midnightblue" stroke="midnightblue" points="2929.75,-451.84 2926.49,-441.76 2922.76,-451.67 2929.75,-451.84"/>
</g>
<!-- Node25 -->
<g id="node25" class="node">
<title>Node25</title>
<g id="a_node25"><a xlink:href="../../d0/dfe/class_syntax_analyzer.html#a67bc7e3cfb57c9d4d25d60913aef3a87" target="_top" xlink:title=" ">
<polygon fill="none" stroke="black" points="2305,-175.62 2305,-194.62 2457,-194.62 2457,-175.62 2305,-175.62"/>
<text text-anchor="middle" x="2381" y="-182.62" font-family="Helvetica,sans-Serif" font-size="10.00">SyntaxAnalyzer::syntaxEmptySt</text>
</a>
</g>
</g>
<!-- Node2&#45;&gt;Node25 -->
<g id="edge42" class="edge">
<title>Node2&#45;&gt;Node25</title>
<path fill="none" stroke="midnightblue" d="M2924.87,-412.36C2919.98,-367.41 2901.18,-257.64 2832,-209.12 2773.47,-168.07 2569.18,-173.39 2457.07,-179.8"/>
<polygon fill="midnightblue" stroke="midnightblue" points="2921.38,-412.7 2925.83,-422.31 2928.35,-412.02 2921.38,-412.7"/>
</g>
<!-- Node26 -->
<g id="node26" class="node">
<title>Node26</title>
<g id="a_node26"><a xlink:href="../../d0/dfe/class_syntax_analyzer.html#a5d262eb9e2236dde3bd043eea0b0e957" target="_top" xlink:title=" ">
<polygon fill="none" stroke="black" points="1200,-43.62 1200,-62.62 1358,-62.62 1358,-43.62 1200,-43.62"/>
<text text-anchor="middle" x="1279" y="-50.62" font-family="Helvetica,sans-Serif" font-size="10.00">SyntaxAnalyzer::syntaxTypeSpec</text>
</a>
</g>
</g>
<!-- Node2&#45;&gt;Node26 -->
<g id="edge54" class="edge">
<title>Node2&#45;&gt;Node26</title>
<path fill="none" stroke="midnightblue" d="M2923.83,-412.31C2914.54,-346.62 2881.54,-137.73 2832,-95.12 2741.51,-17.29 2684.85,-62.12 2565.5,-62.12 2565.5,-62.12 2565.5,-62.12 1637.5,-62.12 1541.27,-62.12 1430.51,-58.82 1358.09,-56.21"/>
<polygon fill="midnightblue" stroke="midnightblue" points="2920.4,-413.1 2925.24,-422.52 2927.34,-412.14 2920.4,-413.1"/>
</g>
<!-- Node27 -->
<g id="node27" class="node">
<title>Node27</title>
<g id="a_node27"><a xlink:href="../../d0/dfe/class_syntax_analyzer.html#a8f6dda26a96ec0e5e75bea5eed577856" target="_top" xlink:title=" ">
<polygon fill="none" stroke="black" points="1015,-99.62 1015,-118.62 1164,-118.62 1164,-99.62 1015,-99.62"/>
<text text-anchor="middle" x="1089.5" y="-106.62" font-family="Helvetica,sans-Serif" font-size="10.00">SyntaxAnalyzer::syntaxVarDecl</text>
</a>
</g>
</g>
<!-- Node2&#45;&gt;Node27 -->
<g id="edge61" class="edge">
<title>Node2&#45;&gt;Node27</title>
<path fill="none" stroke="midnightblue" d="M2927.08,-412.52C2927.52,-358.08 2920.52,-204.3 2832,-133.12 2739.32,-58.59 2684.42,-109.12 2565.5,-109.12 2565.5,-109.12 2565.5,-109.12 1462.5,-109.12 1359.01,-109.12 1239.31,-109.12 1164.26,-109.12"/>
<polygon fill="midnightblue" stroke="midnightblue" points="2923.58,-412.51 2926.9,-422.57 2930.58,-412.63 2923.58,-412.51"/>
</g>
<!-- Node29 -->
<g id="node29" class="node">
<title>Node29</title>
<g id="a_node29"><a xlink:href="../../d0/dfe/class_syntax_analyzer.html#a94c8a6ab5c0e53cae22edb1a840a27ce" target="_top" xlink:title=" ">
<polygon fill="none" stroke="black" points="2677,-479.62 2677,-498.62 2827,-498.62 2827,-479.62 2677,-479.62"/>
<text text-anchor="middle" x="2752" y="-486.62" font-family="Helvetica,sans-Serif" font-size="10.00">SyntaxAnalyzer::syntaxVariable</text>
</a>
</g>
</g>
<!-- Node2&#45;&gt;Node29 -->
<g id="edge62" class="edge">
<title>Node2&#45;&gt;Node29</title>
<path fill="none" stroke="midnightblue" d="M2890.28,-445.15C2872.74,-451.37 2851.33,-458.81 2832,-465.12 2816.74,-470.1 2799.71,-475.31 2785.38,-479.61"/>
<polygon fill="midnightblue" stroke="midnightblue" points="2891.87,-448.3 2900.12,-441.65 2889.53,-441.71 2891.87,-448.3"/>
</g>
<!-- Node3&#45;&gt;Node4 -->
<g id="edge3" class="edge">
<title>Node3&#45;&gt;Node4</title>
<path fill="none" stroke="midnightblue" d="M1764.86,-415.43C1739.19,-410.05 1709.11,-403.73 1684.85,-398.64"/>
<polygon fill="midnightblue" stroke="midnightblue" points="1764.32,-418.9 1774.83,-417.53 1765.76,-412.05 1764.32,-418.9"/>
</g>
<!-- Node6 -->
<g id="node6" class="node">
<title>Node6</title>
<g id="a_node6"><a xlink:href="../../d0/dfe/class_syntax_analyzer.html#a7f54bde730006b1b863290415809ab4e" target="_top" xlink:title=" ">
<polygon fill="none" stroke="black" points="1216.5,-455.62 1216.5,-474.62 1341.5,-474.62 1341.5,-455.62 1216.5,-455.62"/>
<text text-anchor="middle" x="1279" y="-462.62" font-family="Helvetica,sans-Serif" font-size="10.00">SyntaxAnalyzer::syntaxSt</text>
</a>
</g>
</g>
<!-- Node3&#45;&gt;Node6 -->
<g id="edge21" class="edge">
<title>Node3&#45;&gt;Node6</title>
<path fill="none" stroke="midnightblue" d="M1733.87,-433.21C1624.15,-440.92 1437.82,-454.02 1341.59,-460.79"/>
<polygon fill="midnightblue" stroke="midnightblue" points="1734.19,-436.69 1743.92,-432.5 1733.7,-429.71 1734.19,-436.69"/>
</g>
<!-- Node4&#45;&gt;Node5 -->
<g id="edge4" class="edge">
<title>Node4&#45;&gt;Node5</title>
<path fill="none" stroke="midnightblue" d="M1558.41,-389.12C1549.97,-389.12 1541.44,-389.12 1533.13,-389.12"/>
<polygon fill="midnightblue" stroke="midnightblue" points="1558.63,-392.62 1568.63,-389.12 1558.63,-385.62 1558.63,-392.62"/>
</g>
<!-- Node5&#45;&gt;Node6 -->
<g id="edge5" class="edge">
<title>Node5&#45;&gt;Node6</title>
<path fill="none" stroke="midnightblue" d="M1398.33,-402.4C1396.87,-402.97 1395.42,-403.54 1394,-404.12 1354.44,-420.03 1308.63,-442.06 1289.33,-455.55"/>
<polygon fill="midnightblue" stroke="midnightblue" points="1400,-405.51 1408.11,-398.69 1397.52,-398.96 1400,-405.51"/>
</g>
<!-- Node6&#45;&gt;Node5 -->
<g id="edge6" class="edge">
<title>Node6&#45;&gt;Node5</title>
<path fill="none" stroke="midnightblue" d="M1325.06,-451.62C1345.85,-442.7 1370.99,-431.37 1394,-422.12 1414.11,-414.03 1438.12,-405.97 1451.71,-398.83"/>
<polygon fill="midnightblue" stroke="midnightblue" points="1323.67,-448.41 1315.83,-455.54 1326.41,-454.85 1323.67,-448.41"/>
</g>
<!-- Node6&#45;&gt;Node7 -->
<g id="edge7" class="edge">
<title>Node6&#45;&gt;Node7</title>
<path fill="none" stroke="midnightblue" d="M1244.25,-480.09C1221.59,-493.89 1191.05,-514.27 1164,-532.12 1139.58,-548.23 1110.44,-567.17 1097.4,-579.43"/>
<polygon fill="midnightblue" stroke="midnightblue" points="1246.35,-482.92 1253.14,-474.79 1242.76,-476.91 1246.35,-482.92"/>
</g>
<!-- Node8 -->
<g id="node8" class="node">
<title>Node8</title>
<g id="a_node8"><a xlink:href="../../d0/dfe/class_syntax_analyzer.html#a6df61a82ef9de3c17b78be89a321a087" target="_top" xlink:title=" ">
<polygon fill="none" stroke="black" points="1019,-455.62 1019,-474.62 1160,-474.62 1160,-455.62 1019,-455.62"/>
<text text-anchor="middle" x="1089.5" y="-462.62" font-family="Helvetica,sans-Serif" font-size="10.00">SyntaxAnalyzer::syntaxStList</text>
</a>
</g>
</g>
<!-- Node6&#45;&gt;Node8 -->
<g id="edge9" class="edge">
<title>Node6&#45;&gt;Node8</title>
<path fill="none" stroke="midnightblue" d="M1206.09,-465.12C1191.07,-465.12 1175.25,-465.12 1160.31,-465.12"/>
<polygon fill="midnightblue" stroke="midnightblue" points="1206.35,-468.62 1216.35,-465.12 1206.35,-461.62 1206.35,-468.62"/>
</g>
<!-- Node6&#45;&gt;Node16 -->
<g id="edge19" class="edge">
<title>Node6&#45;&gt;Node16</title>
<path fill="none" stroke="midnightblue" d="M1216.38,-477.46C1178.73,-488.02 1133.2,-502.59 1108.53,-512.45"/>
<polygon fill="midnightblue" stroke="midnightblue" points="1217.56,-480.77 1226.27,-474.73 1215.7,-474.02 1217.56,-480.77"/>
</g>
<!-- Node7&#45;&gt;Node6 -->
<g id="edge8" class="edge">
<title>Node7&#45;&gt;Node6</title>
<path fill="none" stroke="midnightblue" d="M1126.57,-574.19C1138.5,-566.87 1151.84,-558.14 1164,-550.12 1204.3,-523.52 1252.37,-491.32 1270.55,-474.63"/>
<polygon fill="midnightblue" stroke="midnightblue" points="1124.54,-571.32 1117.77,-579.47 1128.14,-577.33 1124.54,-571.32"/>
</g>
<!-- Node8&#45;&gt;Node9 -->
<g id="edge10" class="edge">
<title>Node8&#45;&gt;Node9</title>
<path fill="none" stroke="midnightblue" d="M1029.59,-453.58C1001.92,-448.16 969.34,-441.77 943.1,-436.64"/>
<polygon fill="midnightblue" stroke="midnightblue" points="1029.06,-457.04 1039.55,-455.53 1030.4,-450.17 1029.06,-457.04"/>
</g>
<!-- Node9&#45;&gt;Node6 -->
<g id="edge18" class="edge">
<title>Node9&#45;&gt;Node6</title>
<path fill="none" stroke="midnightblue" d="M989.22,-431.59C1040.98,-434.59 1106.14,-439.27 1164,-446.12 1184.72,-448.57 1207.42,-452.16 1227.07,-455.57"/>
<polygon fill="midnightblue" stroke="midnightblue" points="989.24,-428.09 979.06,-431.02 988.84,-435.08 989.24,-428.09"/>
</g>
<!-- Node9&#45;&gt;Node10 -->
<g id="edge11" class="edge">
<title>Node9&#45;&gt;Node10</title>
<path fill="none" stroke="midnightblue" d="M797.63,-427.12C789.02,-427.12 780.41,-427.12 772.08,-427.12"/>
<polygon fill="midnightblue" stroke="midnightblue" points="797.73,-430.62 807.73,-427.12 797.73,-423.62 797.73,-430.62"/>
</g>
<!-- Node10&#45;&gt;Node11 -->
<g id="edge12" class="edge">
<title>Node10&#45;&gt;Node11</title>
<path fill="none" stroke="midnightblue" d="M690.5,-408.57C656.77,-348.97 551.87,-163.64 526.54,-118.91"/>
<polygon fill="midnightblue" stroke="midnightblue" points="687.64,-410.62 695.61,-417.6 693.73,-407.17 687.64,-410.62"/>
</g>
<!-- Node10&#45;&gt;Node12 -->
<g id="edge17" class="edge">
<title>Node10&#45;&gt;Node12</title>
<path fill="none" stroke="midnightblue" d="M621.46,-427.12C558.21,-427.12 470.34,-427.12 408.24,-427.12"/>
<polygon fill="midnightblue" stroke="midnightblue" points="621.78,-430.62 631.78,-427.12 621.78,-423.62 621.78,-430.62"/>
</g>
<!-- Node11&#45;&gt;Node12 -->
<g id="edge13" class="edge">
<title>Node11&#45;&gt;Node12</title>
<path fill="none" stroke="midnightblue" d="M508.37,-127.29C473.74,-186.49 364.95,-372.49 338.73,-417.32"/>
<polygon fill="midnightblue" stroke="midnightblue" points="511.41,-129.03 513.43,-118.63 505.36,-125.5 511.41,-129.03"/>
</g>
<!-- Node13 -->
<g id="node13" class="node">
<title>Node13</title>
<g id="a_node13"><a xlink:href="../../d0/dfe/class_syntax_analyzer.html#a96cd5f6a041dae613d1c75175e26592e" target="_top" xlink:title=" ">
<polygon fill="none" stroke="black" points="77,-417.62 77,-436.62 220,-436.62 220,-417.62 77,-417.62"/>
<text text-anchor="middle" x="148.5" y="-424.62" font-family="Helvetica,sans-Serif" font-size="10.00">SyntaxAnalyzer::parseTokens</text>
</a>
</g>
</g>
<!-- Node12&#45;&gt;Node13 -->
<g id="edge14" class="edge">
<title>Node12&#45;&gt;Node13</title>
<path fill="none" stroke="midnightblue" d="M245.84,-427.12C237.26,-427.12 228.61,-427.12 220.21,-427.12"/>
<polygon fill="midnightblue" stroke="midnightblue" points="245.87,-430.62 255.87,-427.12 245.87,-423.62 245.87,-430.62"/>
</g>
<!-- Node14 -->
<g id="node14" class="node">
<title>Node14</title>
<g id="a_node14"><a xlink:href="../../d3/db4/graph_draw_8cpp.html#a3c04138a5bfe5d72780bb7e82a18e627" target="_top" xlink:title=" ">
<polygon fill="none" stroke="black" points="1.5,-436.62 1.5,-455.62 39.5,-455.62 39.5,-436.62 1.5,-436.62"/>
<text text-anchor="middle" x="20.5" y="-443.62" font-family="Helvetica,sans-Serif" font-size="10.00">main</text>
</a>
</g>
</g>
<!-- Node13&#45;&gt;Node14 -->
<g id="edge15" class="edge">
<title>Node13&#45;&gt;Node14</title>
<path fill="none" stroke="midnightblue" d="M74.24,-438.16C61.4,-440.1 49.15,-441.95 39.69,-443.37"/>
<polygon fill="midnightblue" stroke="midnightblue" points="74.76,-441.62 84.13,-436.67 73.72,-434.7 74.76,-441.62"/>
</g>
<!-- Node15 -->
<g id="node15" class="node">
<title>Node15</title>
<g id="a_node15"><a xlink:href="../../dd/de9/test_syntax_8cpp.html#ac491df98e51a6bba8b808af414b6614f" target="_top" xlink:title="Тест синтаксического анализа Паскаля, простой тест">
<polygon fill="none" stroke="black" points="0,-398.62 0,-417.62 41,-417.62 41,-398.62 0,-398.62"/>
<text text-anchor="middle" x="20.5" y="-405.62" font-family="Helvetica,sans-Serif" font-size="10.00">TEST</text>
</a>
</g>
</g>
<!-- Node13&#45;&gt;Node15 -->
<g id="edge16" class="edge">
<title>Node13&#45;&gt;Node15</title>
<path fill="none" stroke="midnightblue" d="M73.88,-416.01C61.78,-414.19 50.22,-412.45 41.05,-411.06"/>
<polygon fill="midnightblue" stroke="midnightblue" points="73.72,-419.53 84.13,-417.56 74.76,-412.61 73.72,-419.53"/>
</g>
<!-- Node16&#45;&gt;Node6 -->
<g id="edge20" class="edge">
<title>Node16&#45;&gt;Node6</title>
<path fill="none" stroke="midnightblue" d="M1152.02,-509.79C1189.9,-499.18 1235.76,-484.49 1260.36,-474.62"/>
<polygon fill="midnightblue" stroke="midnightblue" points="1150.79,-506.5 1142.08,-512.54 1152.65,-513.25 1150.79,-506.5"/>
</g>
<!-- Node17&#45;&gt;Node6 -->
<g id="edge37" class="edge">
<title>Node17&#45;&gt;Node6</title>
<path fill="none" stroke="midnightblue" d="M2685.18,-576.33C2555.21,-597.47 2256.22,-641.12 2003,-641.12 2003,-641.12 2003,-641.12 1820.5,-641.12 1603.88,-641.12 1361.37,-511.73 1296.62,-474.83"/>
<polygon fill="midnightblue" stroke="midnightblue" points="2686.06,-579.73 2695.37,-574.66 2684.93,-572.83 2686.06,-579.73"/>
</g>
<!-- Node17&#45;&gt;Node18 -->
<g id="edge24" class="edge">
<title>Node17&#45;&gt;Node18</title>
<path fill="none" stroke="midnightblue" d="M2707.46,-552.58C2695.87,-549.05 2683.41,-545.09 2672,-541.12 2642.72,-530.91 2609.58,-517.55 2588.15,-508.66"/>
<polygon fill="midnightblue" stroke="midnightblue" points="2706.78,-556.03 2717.36,-555.55 2708.79,-549.32 2706.78,-556.03"/>
</g>
<!-- Node18&#45;&gt;Node4 -->
<g id="edge26" class="edge">
<title>Node18&#45;&gt;Node4</title>
<path fill="none" stroke="midnightblue" d="M2482.9,-499.57C2390.8,-498.82 2235.9,-493.63 2105,-470.12 2010.89,-453.21 1993.02,-425.49 1899,-408.12 1834.92,-396.28 1760.67,-391.75 1708.04,-390.05"/>
<polygon fill="midnightblue" stroke="midnightblue" points="2482.97,-503.07 2492.99,-499.64 2483.01,-496.07 2482.97,-503.07"/>
</g>
<!-- Node18&#45;&gt;Node18 -->
<g id="edge25" class="edge">
<title>Node18&#45;&gt;Node18</title>
<path fill="none" stroke="midnightblue" d="M2598.61,-517.01C2598.11,-522.66 2586.74,-527.12 2564.5,-527.12 2532.15,-527.12 2522.8,-517.68 2536.45,-508.87"/>
<polygon fill="midnightblue" stroke="midnightblue" points="2601.33,-514.8 2592.55,-508.87 2595.72,-518.98 2601.33,-514.8"/>
</g>
<!-- Node18&#45;&gt;Node19 -->
<g id="edge27" class="edge">
<title>Node18&#45;&gt;Node19</title>
<path fill="none" stroke="midnightblue" d="M2517.16,-486.86C2486.42,-478.73 2446.65,-468.21 2418.23,-460.7"/>
<polygon fill="midnightblue" stroke="midnightblue" points="2516.64,-490.34 2527.21,-489.52 2518.43,-483.58 2516.64,-490.34"/>
</g>
<!-- Node19&#45;&gt;Node20 -->
<g id="edge28" class="edge">
<title>Node19&#45;&gt;Node20</title>
<path fill="none" stroke="midnightblue" d="M2302.05,-451.12C2291.24,-451.12 2280.1,-451.12 2269.23,-451.12"/>
<polygon fill="midnightblue" stroke="midnightblue" points="2302.31,-454.62 2312.31,-451.12 2302.31,-447.62 2302.31,-454.62"/>
</g>
<!-- Node20&#45;&gt;Node21 -->
<g id="edge29" class="edge">
<title>Node20&#45;&gt;Node21</title>
<path fill="none" stroke="midnightblue" d="M2154.97,-464.85C2117.95,-481.24 2057,-508.22 2024.68,-522.52"/>
<polygon fill="midnightblue" stroke="midnightblue" points="2156.56,-467.97 2164.29,-460.73 2153.73,-461.57 2156.56,-467.97"/>
</g>
<!-- Node21&#45;&gt;Node3 -->
<g id="edge30" class="edge">
<title>Node21&#45;&gt;Node3</title>
<path fill="none" stroke="midnightblue" d="M1985.66,-515.15C1967.05,-495.6 1933.81,-463.89 1899,-446.12 1891.44,-442.26 1883.06,-439.15 1874.69,-436.67"/>
<polygon fill="midnightblue" stroke="midnightblue" points="1983.11,-517.54 1992.49,-522.47 1988.23,-512.77 1983.11,-517.54"/>
</g>
<!-- Node21&#45;&gt;Node7 -->
<g id="edge33" class="edge">
<title>Node21&#45;&gt;Node7</title>
<path fill="none" stroke="midnightblue" d="M1947.31,-543.54C1931.79,-546.46 1914.78,-549.28 1899,-551.12 1623.67,-583.08 1292.64,-588.34 1155.2,-589.08"/>
<polygon fill="midnightblue" stroke="midnightblue" points="1948.11,-546.95 1957.27,-541.62 1946.79,-540.08 1948.11,-546.95"/>
</g>
<!-- Node21&#45;&gt;Node16 -->
<g id="edge36" class="edge">
<title>Node21&#45;&gt;Node16</title>
<path fill="none" stroke="midnightblue" d="M1924.67,-535.12C1851.51,-537.74 1737.98,-541.12 1639.5,-541.12 1639.5,-541.12 1639.5,-541.12 1462.5,-541.12 1358.87,-541.12 1239.21,-533.67 1164.2,-528.1"/>
<polygon fill="midnightblue" stroke="midnightblue" points="1924.85,-538.61 1934.72,-534.75 1924.6,-531.62 1924.85,-538.61"/>
</g>
<!-- Node21&#45;&gt;Node17 -->
<g id="edge31" class="edge">
<title>Node21&#45;&gt;Node17</title>
<path fill="none" stroke="midnightblue" d="M2079.22,-535.48C2224.9,-541.91 2540.87,-555.85 2681.3,-562.04"/>
<polygon fill="midnightblue" stroke="midnightblue" points="2079.17,-531.97 2069.03,-535.03 2078.86,-538.97 2079.17,-531.97"/>
</g>
<!-- Node21&#45;&gt;Node18 -->
<g id="edge32" class="edge">
<title>Node21&#45;&gt;Node18</title>
<path fill="none" stroke="midnightblue" d="M2079.4,-527.62C2188.4,-521.2 2387.02,-509.51 2492.8,-503.28"/>
<polygon fill="midnightblue" stroke="midnightblue" points="2078.91,-524.14 2069.14,-528.22 2079.33,-531.13 2078.91,-524.14"/>
</g>
<!-- Node21&#45;&gt;Node22 -->
<g id="edge34" class="edge">
<title>Node21&#45;&gt;Node22</title>
<path fill="none" stroke="midnightblue" d="M1965.7,-518.86C1931,-505.84 1878.89,-486.28 1848.03,-474.7"/>
<polygon fill="midnightblue" stroke="midnightblue" points="1964.83,-522.28 1975.43,-522.52 1967.29,-515.73 1964.83,-522.28"/>
</g>
<!-- Node22&#45;&gt;Node6 -->
<g id="edge35" class="edge">
<title>Node22&#45;&gt;Node6</title>
<path fill="none" stroke="midnightblue" d="M1734.75,-465.12C1625.23,-465.12 1438.36,-465.12 1341.81,-465.12"/>
<polygon fill="midnightblue" stroke="midnightblue" points="1734.78,-468.62 1744.78,-465.12 1734.78,-461.62 1734.78,-468.62"/>
</g>
<!-- Node24 -->
<g id="node24" class="node">
<title>Node24</title>
<g id="a_node24"><a xlink:href="../../d0/dfe/class_syntax_analyzer.html#a58a0f927ad0a45e4ce837a98e98330aa" target="_top" xlink:title=" ">
<polygon fill="none" stroke="black" points="2114,-745.62 2114,-764.62 2260,-764.62 2260,-745.62 2114,-745.62"/>
<text text-anchor="middle" x="2187" y="-752.62" font-family="Helvetica,sans-Serif" font-size="10.00">SyntaxAnalyzer::syntaxConsts</text>
</a>
</g>
</g>
<!-- Node23&#45;&gt;Node24 -->
<g id="edge40" class="edge">
<title>Node23&#45;&gt;Node24</title>
<path fill="none" stroke="midnightblue" d="M2661.64,-755.12C2550.38,-755.12 2362.52,-755.12 2260.02,-755.12"/>
<polygon fill="midnightblue" stroke="midnightblue" points="2661.83,-758.62 2671.83,-755.12 2661.83,-751.62 2661.83,-758.62"/>
</g>
<!-- Node24&#45;&gt;Node10 -->
<g id="edge41" class="edge">
<title>Node24&#45;&gt;Node10</title>
<path fill="none" stroke="midnightblue" d="M2103.79,-755.12C2030.11,-755.12 1919.09,-755.12 1822.5,-755.12 1822.5,-755.12 1822.5,-755.12 1088.5,-755.12 886.83,-755.12 736.93,-491.51 708.05,-436.93"/>
<polygon fill="midnightblue" stroke="midnightblue" points="2103.93,-758.62 2113.93,-755.12 2103.93,-751.62 2103.93,-758.62"/>
</g>
<!-- Node25&#45;&gt;Node6 -->
<g id="edge43" class="edge">
<title>Node25&#45;&gt;Node6</title>
<path fill="none" stroke="midnightblue" d="M2294.84,-185.12C2218.43,-185.12 2103.22,-185.12 2003,-185.12 2003,-185.12 2003,-185.12 1637.5,-185.12 1458.15,-185.12 1315.23,-406.24 1285.64,-455.48"/>
<polygon fill="midnightblue" stroke="midnightblue" points="2294.89,-188.62 2304.89,-185.12 2294.89,-181.62 2294.89,-188.62"/>
</g>
<!-- Node26&#45;&gt;Node11 -->
<g id="edge55" class="edge">
<title>Node26&#45;&gt;Node11</title>
<path fill="none" stroke="midnightblue" d="M1189.73,-59.65C1039.56,-70.75 736.98,-93.14 596.21,-103.55"/>
<polygon fill="midnightblue" stroke="midnightblue" points="1190.12,-63.13 1199.84,-58.9 1189.61,-56.14 1190.12,-63.13"/>
</g>
<!-- Node26&#45;&gt;Node26 -->
<g id="edge56" class="edge">
<title>Node26&#45;&gt;Node26</title>
<path fill="none" stroke="midnightblue" d="M1313.48,-71.01C1312.98,-76.66 1301.48,-81.12 1279,-81.12 1246.3,-81.12 1236.84,-71.68 1250.64,-62.87"/>
<polygon fill="midnightblue" stroke="midnightblue" points="1316.17,-68.76 1307.36,-62.87 1310.58,-72.97 1316.17,-68.76"/>
</g>
<!-- Node26&#45;&gt;Node27 -->
<g id="edge57" class="edge">
<title>Node26&#45;&gt;Node27</title>
<path fill="none" stroke="midnightblue" d="M1236,-65.66C1201.58,-75.94 1153.61,-90.27 1122.31,-99.61"/>
<polygon fill="midnightblue" stroke="midnightblue" points="1237.19,-68.96 1245.77,-62.74 1235.18,-62.25 1237.19,-68.96"/>
</g>
<!-- Node27&#45;&gt;Node11 -->
<g id="edge58" class="edge">
<title>Node27&#45;&gt;Node11</title>
<path fill="none" stroke="midnightblue" d="M1004.81,-109.12C894.53,-109.12 702.19,-109.12 596.29,-109.12"/>
<polygon fill="midnightblue" stroke="midnightblue" points="1004.89,-112.62 1014.89,-109.12 1004.89,-105.62 1004.89,-112.62"/>
</g>
<!-- Node28 -->
<g id="node28" class="node">
<title>Node28</title>
<g id="a_node28"><a xlink:href="../../d0/dfe/class_syntax_analyzer.html#a738f9b4cb7edf93c56af1b6974caad1a" target="_top" xlink:title=" ">
<polygon fill="none" stroke="black" points="826,-258.62 826,-277.62 961,-277.62 961,-258.62 826,-258.62"/>
<text text-anchor="middle" x="893.5" y="-265.62" font-family="Helvetica,sans-Serif" font-size="10.00">SyntaxAnalyzer::syntaxVars</text>
</a>
</g>
</g>
<!-- Node27&#45;&gt;Node28 -->
<g id="edge59" class="edge">
<title>Node27&#45;&gt;Node28</title>
<path fill="none" stroke="midnightblue" d="M1036.71,-122.17C1029.12,-125.16 1021.64,-128.78 1015,-133.12 961.09,-168.35 916.25,-233.72 900.52,-258.37"/>
<polygon fill="midnightblue" stroke="midnightblue" points="1038.11,-125.39 1046.33,-118.71 1035.74,-118.8 1038.11,-125.39"/>
</g>
<!-- Node28&#45;&gt;Node10 -->
<g id="edge60" class="edge">
<title>Node28&#45;&gt;Node10</title>
<path fill="none" stroke="midnightblue" d="M872.86,-284.59C833.44,-317.67 745.76,-391.23 714.42,-417.54"/>
<polygon fill="midnightblue" stroke="midnightblue" points="875.52,-286.93 880.93,-277.82 871.02,-281.57 875.52,-286.93"/>
</g>
<!-- Node29&#45;&gt;Node3 -->
<g id="edge63" class="edge">
<title>Node29&#45;&gt;Node3</title>
<path fill="none" stroke="midnightblue" d="M2730.25,-473.74C2676.03,-435.12 2524.42,-337.12 2382,-337.12 2382,-337.12 2382,-337.12 2186,-337.12 2053.37,-337.12 1901.29,-394.27 1844.98,-417.48"/>
<polygon fill="midnightblue" stroke="midnightblue" points="2728.23,-476.59 2738.39,-479.61 2732.33,-470.92 2728.23,-476.59"/>
</g>
<!-- Node29&#45;&gt;Node18 -->
<g id="edge64" class="edge">
<title>Node29&#45;&gt;Node18</title>
<path fill="none" stroke="midnightblue" d="M2666.74,-493.66C2656.52,-494.21 2646.17,-494.77 2636.18,-495.31"/>
<polygon fill="midnightblue" stroke="midnightblue" points="2667.09,-497.14 2676.89,-493.11 2666.71,-490.15 2667.09,-497.14"/>
</g>
</g>
</svg>
