<?xml version="1.0" encoding="UTF-8" standalone="no"?>
<!DOCTYPE svg PUBLIC "-//W3C//DTD SVG 1.1//EN"
 "http://www.w3.org/Graphics/SVG/1.1/DTD/svg11.dtd">
<!-- Generated by graphviz version 3.0.0 (20220413.0106)
 -->
<!-- Title: Token::getInfo Pages: 1 -->
<svg width="244pt" height="218pt"
 viewBox="0.00 0.00 244.00 218.00" xmlns="http://www.w3.org/2000/svg" xmlns:xlink="http://www.w3.org/1999/xlink">
<g id="graph0" class="graph" transform="scale(1 1) rotate(0) translate(4 214)">
<title>Token::getInfo</title>
<!-- Node1 -->
<g id="node1" class="node">
<title>Node1</title>
<g id="a_node1"><a xlink:title=" ">
<polygon fill="#bfbfbf" stroke="black" points="0,-95.5 0,-114.5 78,-114.5 78,-95.5 0,-95.5"/>
<text text-anchor="middle" x="39" y="-102.5" font-family="Helvetica,sans-Serif" font-size="10.00">Token::getInfo</text>
</a>
</g>
</g>
<!-- Node2 -->
<g id="node2" class="node">
<title>Node2</title>
<g id="a_node2"><a xlink:href="../../dd/dfe/class_base_token.html#a800db3c8e8a3e81d20e85206cd5b2927" target="_top" xlink:title=" ">
<polygon fill="none" stroke="black" points="114,-190.5 114,-209.5 236,-209.5 236,-190.5 114,-190.5"/>
<text text-anchor="middle" x="175" y="-197.5" font-family="Helvetica,sans-Serif" font-size="10.00">BaseToken::getAdvType</text>
</a>
</g>
</g>
<!-- Node1&#45;&gt;Node2 -->
<g id="edge1" class="edge">
<title>Node1&#45;&gt;Node2</title>
<path fill="none" stroke="midnightblue" d="M46.84,-114.65C58.71,-130.7 84.69,-162.92 114,-181 117.36,-183.07 120.96,-184.93 124.67,-186.61"/>
<polygon fill="midnightblue" stroke="midnightblue" points="123.47,-189.9 134.05,-190.39 126.09,-183.41 123.47,-189.9"/>
</g>
<!-- Node3 -->
<g id="node3" class="node">
<title>Node3</title>
<g id="a_node3"><a xlink:href="../../db/dc1/class_token.html#aa5d6826fae7d616e2cfe3e27b5dd594a" target="_top" xlink:title="Возвращает константную ссылку на строковое представление токена">
<polygon fill="none" stroke="black" points="138,-152.5 138,-171.5 212,-171.5 212,-152.5 138,-152.5"/>
<text text-anchor="middle" x="175" y="-159.5" font-family="Helvetica,sans-Serif" font-size="10.00">Token::getStr</text>
</a>
</g>
</g>
<!-- Node1&#45;&gt;Node3 -->
<g id="edge2" class="edge">
<title>Node1&#45;&gt;Node3</title>
<path fill="none" stroke="midnightblue" d="M56.67,-114.58C71.42,-122.81 93.7,-134.64 114,-143 119.37,-145.21 125.1,-147.32 130.81,-149.28"/>
<polygon fill="midnightblue" stroke="midnightblue" points="129.73,-152.61 140.32,-152.43 131.92,-145.97 129.73,-152.61"/>
</g>
<!-- Node4 -->
<g id="node4" class="node">
<title>Node4</title>
<g id="a_node4"><a xlink:href="../../dd/dfe/class_base_token.html#adf680862efcd78640cb9442b6918dd4d" target="_top" xlink:title="Получение типа токена">
<polygon fill="none" stroke="black" points="122.5,-114.5 122.5,-133.5 227.5,-133.5 227.5,-114.5 122.5,-114.5"/>
<text text-anchor="middle" x="175" y="-121.5" font-family="Helvetica,sans-Serif" font-size="10.00">BaseToken::getType</text>
</a>
</g>
</g>
<!-- Node1&#45;&gt;Node4 -->
<g id="edge3" class="edge">
<title>Node1&#45;&gt;Node4</title>
<path fill="none" stroke="midnightblue" d="M78.04,-110.39C88.69,-111.9 100.55,-113.59 112.21,-115.24"/>
<polygon fill="midnightblue" stroke="midnightblue" points="111.96,-118.74 122.35,-116.68 112.94,-111.81 111.96,-118.74"/>
</g>
<!-- Node5 -->
<g id="node5" class="node">
<title>Node5</title>
<g id="a_node5"><a xlink:href="../../db/dc1/class_token.html#a81497d9f05f9c69ba4ab8e9c62a391d1" target="_top" xlink:title=" ">
<polygon fill="none" stroke="black" points="143.5,-76.5 143.5,-95.5 206.5,-95.5 206.5,-76.5 143.5,-76.5"/>
<text text-anchor="middle" x="175" y="-83.5" font-family="Helvetica,sans-Serif" font-size="10.00">Token::line</text>
</a>
</g>
</g>
<!-- Node1&#45;&gt;Node5 -->
<g id="edge4" class="edge">
<title>Node1&#45;&gt;Node5</title>
<path fill="none" stroke="midnightblue" d="M78.04,-99.61C95.25,-97.17 115.61,-94.28 133.14,-91.79"/>
<polygon fill="midnightblue" stroke="midnightblue" points="133.67,-95.25 143.08,-90.38 132.69,-88.32 133.67,-95.25"/>
</g>
<!-- Node6 -->
<g id="node6" class="node">
<title>Node6</title>
<g id="a_node6"><a xlink:href="../../db/dc1/class_token.html#a715f99ebacdd636c283d15dc8656631c" target="_top" xlink:title=" ">
<polygon fill="none" stroke="black" points="143,-38.5 143,-57.5 207,-57.5 207,-38.5 143,-38.5"/>
<text text-anchor="middle" x="175" y="-45.5" font-family="Helvetica,sans-Serif" font-size="10.00">Token::pos</text>
</a>
</g>
</g>
<!-- Node1&#45;&gt;Node6 -->
<g id="edge5" class="edge">
<title>Node1&#45;&gt;Node6</title>
<path fill="none" stroke="midnightblue" d="M56.67,-95.42C71.42,-87.19 93.7,-75.36 114,-67 120.03,-64.52 126.52,-62.16 132.91,-60"/>
<polygon fill="midnightblue" stroke="midnightblue" points="134.38,-63.2 142.81,-56.79 132.22,-56.54 134.38,-63.2"/>
</g>
<!-- Node7 -->
<g id="node7" class="node">
<title>Node7</title>
<g id="a_node7"><a xlink:href="../../db/dc1/class_token.html#a913f22d91c68c0b0f8c2d593b14deca2" target="_top" xlink:title=" ">
<polygon fill="none" stroke="black" points="129.5,-0.5 129.5,-19.5 220.5,-19.5 220.5,-0.5 129.5,-0.5"/>
<text text-anchor="middle" x="175" y="-7.5" font-family="Helvetica,sans-Serif" font-size="10.00">Token::posInLine</text>
</a>
</g>
</g>
<!-- Node1&#45;&gt;Node7 -->
<g id="edge6" class="edge">
<title>Node1&#45;&gt;Node7</title>
<path fill="none" stroke="midnightblue" d="M46.84,-95.35C58.71,-79.3 84.69,-47.08 114,-29 117.36,-26.93 120.96,-25.07 124.67,-23.39"/>
<polygon fill="midnightblue" stroke="midnightblue" points="126.09,-26.59 134.05,-19.61 123.47,-20.1 126.09,-26.59"/>
</g>
</g>
</svg>
