<?xml version="1.0" encoding="UTF-8" standalone="no"?>
<!DOCTYPE svg PUBLIC "-//W3C//DTD SVG 1.1//EN"
 "http://www.w3.org/Graphics/SVG/1.1/DTD/svg11.dtd">
<!-- Generated by graphviz version 3.0.0 (20220413.0106)
 -->
<!-- Title: Token::pos Pages: 1 -->
<svg width="3591pt" height="1040pt"
 viewBox="0.00 0.00 3591.00 1039.91" xmlns="http://www.w3.org/2000/svg" xmlns:xlink="http://www.w3.org/1999/xlink">
<g id="graph0" class="graph" transform="scale(1 1) rotate(0) translate(4 1035.91)">
<title>Token::pos</title>
<!-- Node1 -->
<g id="node1" class="node">
<title>Node1</title>
<g id="a_node1"><a xlink:title=" ">
<polygon fill="#bfbfbf" stroke="black" points="3519,-783.46 3519,-802.46 3583,-802.46 3583,-783.46 3519,-783.46"/>
<text text-anchor="middle" x="3551" y="-790.46" font-family="Helvetica,sans-Serif" font-size="10.00">Token::pos</text>
</a>
</g>
</g>
<!-- Node2 -->
<g id="node2" class="node">
<title>Node2</title>
<g id="a_node2"><a xlink:href="../../db/dc1/class_token.html#ab9a75d3f89e77051d87462654e7576de" target="_top" xlink:title=" ">
<polygon fill="none" stroke="black" points="3405,-783.46 3405,-802.46 3483,-802.46 3483,-783.46 3405,-783.46"/>
<text text-anchor="middle" x="3444" y="-790.46" font-family="Helvetica,sans-Serif" font-size="10.00">Token::getInfo</text>
</a>
</g>
</g>
<!-- Node1&#45;&gt;Node2 -->
<g id="edge1" class="edge">
<title>Node1&#45;&gt;Node2</title>
<path fill="none" stroke="midnightblue" d="M3508.54,-792.96C3500.23,-792.96 3491.54,-792.96 3483.35,-792.96"/>
<polygon fill="midnightblue" stroke="midnightblue" points="3508.78,-796.46 3518.78,-792.96 3508.78,-789.46 3508.78,-796.46"/>
</g>
<!-- Node3 -->
<g id="node3" class="node">
<title>Node3</title>
<g id="a_node3"><a xlink:href="../../df/d7c/class_analyze_exception.html#aa4e8534e7478ad3fed1904b669a17363" target="_top" xlink:title=" ">
<polygon fill="none" stroke="black" points="3238,-821.96 3238,-851.96 3369,-851.96 3369,-821.96 3238,-821.96"/>
<text text-anchor="start" x="3246" y="-839.96" font-family="Helvetica,sans-Serif" font-size="10.00">AnalyzeException::Analyze</text>
<text text-anchor="middle" x="3303.5" y="-828.96" font-family="Helvetica,sans-Serif" font-size="10.00">Exception</text>
</a>
</g>
</g>
<!-- Node2&#45;&gt;Node3 -->
<g id="edge2" class="edge">
<title>Node2&#45;&gt;Node3</title>
<path fill="none" stroke="midnightblue" d="M3403.34,-805.56C3387.31,-810.65 3368.67,-816.57 3351.92,-821.89"/>
<polygon fill="midnightblue" stroke="midnightblue" points="3404.48,-808.87 3412.95,-802.5 3402.36,-802.2 3404.48,-808.87"/>
</g>
<!-- Node4 -->
<g id="node4" class="node">
<title>Node4</title>
<g id="a_node4"><a xlink:href="../../d7/d7c/class_a_s_t_factory.html#a31d959009ba9e91a58a5c15e986d130b" target="_top" xlink:title=" ">
<polygon fill="none" stroke="black" points="3244,-584.46 3244,-603.46 3363,-603.46 3363,-584.46 3244,-584.46"/>
<text text-anchor="middle" x="3303.5" y="-591.46" font-family="Helvetica,sans-Serif" font-size="10.00">ASTFactory::createAST</text>
</a>
</g>
</g>
<!-- Node2&#45;&gt;Node4 -->
<g id="edge3" class="edge">
<title>Node2&#45;&gt;Node4</title>
<path fill="none" stroke="midnightblue" d="M3430.6,-775.14C3402.11,-734.21 3332.82,-634.65 3311.11,-603.46"/>
<polygon fill="midnightblue" stroke="midnightblue" points="3427.73,-777.15 3436.32,-783.36 3433.48,-773.15 3427.73,-777.15"/>
</g>
<!-- Node5 -->
<g id="node5" class="node">
<title>Node5</title>
<g id="a_node5"><a xlink:href="../../d7/d7c/class_a_s_t_factory.html#aa4647507a830972309beb5db2d84ce96" target="_top" xlink:title="Возвращает &quot;глубокую копию&quot; указателя на тип typePtr.">
<polygon fill="none" stroke="black" points="3046.5,-944.46 3046.5,-963.46 3199.5,-963.46 3199.5,-944.46 3046.5,-944.46"/>
<text text-anchor="middle" x="3123" y="-951.46" font-family="Helvetica,sans-Serif" font-size="10.00">ASTFactory::createCopyOfType</text>
</a>
</g>
</g>
<!-- Node2&#45;&gt;Node5 -->
<g id="edge79" class="edge">
<title>Node2&#45;&gt;Node5</title>
<path fill="none" stroke="midnightblue" d="M3394.67,-783.34C3349.1,-777.22 3281.47,-776.14 3238,-811.96 3194.04,-848.18 3243.19,-895.61 3202,-934.96 3197.97,-938.81 3193.29,-941.92 3188.27,-944.43"/>
<polygon fill="midnightblue" stroke="midnightblue" points="3394.21,-786.81 3404.62,-784.8 3395.23,-779.89 3394.21,-786.81"/>
</g>
<!-- Node4&#45;&gt;Node5 -->
<g id="edge4" class="edge">
<title>Node4&#45;&gt;Node5</title>
<path fill="none" stroke="midnightblue" d="M3295.14,-612.86C3282.38,-646.1 3255.8,-717.33 3238,-778.96 3218.26,-847.32 3252.01,-884.34 3202,-934.96 3198.28,-938.73 3193.94,-941.79 3189.26,-944.29"/>
<polygon fill="midnightblue" stroke="midnightblue" points="3298.43,-614.06 3298.77,-603.47 3291.9,-611.54 3298.43,-614.06"/>
</g>
<!-- Node6 -->
<g id="node6" class="node">
<title>Node6</title>
<g id="a_node6"><a xlink:href="../../d0/dfe/class_syntax_analyzer.html#a51ff8c81c92f9f81aacae95e4c12d00a" target="_top" xlink:title=" ">
<polygon fill="none" stroke="black" points="2859,-888.46 2859,-907.46 3008,-907.46 3008,-888.46 2859,-888.46"/>
<text text-anchor="middle" x="2933.5" y="-895.46" font-family="Helvetica,sans-Serif" font-size="10.00">SyntaxAnalyzer::syntaxVarDecl</text>
</a>
</g>
</g>
<!-- Node4&#45;&gt;Node6 -->
<g id="edge73" class="edge">
<title>Node4&#45;&gt;Node6</title>
<path fill="none" stroke="midnightblue" d="M3295.7,-613.1C3276.18,-667.57 3220.23,-820.53 3202,-835.96 3185.65,-849.8 3060.38,-874.77 2987.21,-888.42"/>
<polygon fill="midnightblue" stroke="midnightblue" points="3299.03,-614.18 3299.09,-603.58 3292.43,-611.83 3299.03,-614.18"/>
</g>
<!-- Node7 -->
<g id="node7" class="node">
<title>Node7</title>
<g id="a_node7"><a xlink:href="../../d0/dfe/class_syntax_analyzer.html#a4dc8338b4fc879f36e63f27fe3ce7041" target="_top" xlink:title=" ">
<polygon fill="none" stroke="black" points="654,-869.46 654,-888.46 806,-888.46 806,-869.46 654,-869.46"/>
<text text-anchor="middle" x="730" y="-876.46" font-family="Helvetica,sans-Serif" font-size="10.00">SyntaxAnalyzer::syntaxFuncDef</text>
</a>
</g>
</g>
<!-- Node4&#45;&gt;Node7 -->
<g id="edge61" class="edge">
<title>Node4&#45;&gt;Node7</title>
<path fill="none" stroke="midnightblue" d="M3298.55,-613.36C3289.36,-653.09 3262.55,-743.53 3202,-785.96 3103.76,-854.79 3054.46,-821.96 2934.5,-821.96 2934.5,-821.96 2934.5,-821.96 2567,-821.96 2317.32,-821.96 2256.18,-859.96 2006.5,-859.96 2006.5,-859.96 2006.5,-859.96 1102.5,-859.96 999.66,-859.96 881,-867.31 806.01,-872.87"/>
<polygon fill="midnightblue" stroke="midnightblue" points="3301.97,-614.1 3300.69,-603.58 3295.14,-612.6 3301.97,-614.1"/>
</g>
<!-- Node8 -->
<g id="node8" class="node">
<title>Node8</title>
<g id="a_node8"><a xlink:href="../../d0/dfe/class_syntax_analyzer.html#ada547456d19f4a7490f57f7dc9bfed94" target="_top" xlink:title=" ">
<polygon fill="none" stroke="black" points="466,-869.46 466,-888.46 618,-888.46 618,-869.46 466,-869.46"/>
<text text-anchor="middle" x="542" y="-876.46" font-family="Helvetica,sans-Serif" font-size="10.00">SyntaxAnalyzer::syntaxProgram</text>
</a>
</g>
</g>
<!-- Node4&#45;&gt;Node8 -->
<g id="edge64" class="edge">
<title>Node4&#45;&gt;Node8</title>
<path fill="none" stroke="midnightblue" d="M3296.03,-613.66C3283.67,-651.7 3256.33,-738.04 3238,-811.96 3218.47,-890.72 3262.92,-937.35 3202,-990.96 3112.52,-1069.69 3053.69,-1009.96 2934.5,-1009.96 2934.5,-1009.96 2934.5,-1009.96 911,-1009.96 766.21,-1009.96 606.97,-918.84 558.09,-888.59"/>
<polygon fill="midnightblue" stroke="midnightblue" points="3299.45,-614.46 3299.22,-603.87 3292.79,-612.29 3299.45,-614.46"/>
</g>
<!-- Node15 -->
<g id="node15" class="node">
<title>Node15</title>
<g id="a_node15"><a xlink:href="../../d0/dfe/class_syntax_analyzer.html#a500e4e0cd0605ebbee4ab452948fa2ca" target="_top" xlink:title=" ">
<polygon fill="none" stroke="black" points="842,-793.46 842,-812.46 982,-812.46 982,-793.46 842,-793.46"/>
<text text-anchor="middle" x="912" y="-800.46" font-family="Helvetica,sans-Serif" font-size="10.00">SyntaxAnalyzer::syntaxBlock</text>
</a>
</g>
</g>
<!-- Node4&#45;&gt;Node15 -->
<g id="edge32" class="edge">
<title>Node4&#45;&gt;Node15</title>
<path fill="none" stroke="midnightblue" d="M3296.4,-613.27C3284.44,-647.67 3254.39,-718.99 3202,-751.96 3100.66,-815.73 3054.24,-783.96 2934.5,-783.96 2934.5,-783.96 2934.5,-783.96 1298.5,-783.96 1187.77,-783.96 1059.36,-791.87 982.24,-797.49"/>
<polygon fill="midnightblue" stroke="midnightblue" points="3299.82,-614.09 3299.66,-603.5 3293.18,-611.88 3299.82,-614.09"/>
</g>
<!-- Node16 -->
<g id="node16" class="node">
<title>Node16</title>
<g id="a_node16"><a xlink:href="../../d0/dfe/class_syntax_analyzer.html#a3e87b8ffb5f24f1db097bfb6aaeb8c2d" target="_top" xlink:title=" ">
<polygon fill="none" stroke="black" points="1928,-470.46 1928,-489.46 2083,-489.46 2083,-470.46 1928,-470.46"/>
<text text-anchor="middle" x="2005.5" y="-477.46" font-family="Helvetica,sans-Serif" font-size="10.00">SyntaxAnalyzer::syntaxAssignSt</text>
</a>
</g>
</g>
<!-- Node4&#45;&gt;Node16 -->
<g id="edge18" class="edge">
<title>Node4&#45;&gt;Node16</title>
<path fill="none" stroke="midnightblue" d="M3235.58,-605.05C3162,-616.26 3040.16,-631.96 2934.5,-631.96 2934.5,-631.96 2934.5,-631.96 2381.5,-631.96 2229.06,-631.96 2065.61,-522.74 2019.34,-489.47"/>
<polygon fill="midnightblue" stroke="midnightblue" points="3236.29,-608.48 3245.64,-603.5 3235.22,-601.56 3236.29,-608.48"/>
</g>
<!-- Node17 -->
<g id="node17" class="node">
<title>Node17</title>
<g id="a_node17"><a xlink:href="../../d0/dfe/class_syntax_analyzer.html#acef4b19447f253a6e25d762733ca8ede" target="_top" xlink:title=" ">
<polygon fill="none" stroke="black" points="1754.5,-465.46 1754.5,-484.46 1883.5,-484.46 1883.5,-465.46 1754.5,-465.46"/>
<text text-anchor="middle" x="1819" y="-472.46" font-family="Helvetica,sans-Serif" font-size="10.00">SyntaxAnalyzer::syntaxIter</text>
</a>
</g>
</g>
<!-- Node4&#45;&gt;Node17 -->
<g id="edge63" class="edge">
<title>Node4&#45;&gt;Node17</title>
<path fill="none" stroke="midnightblue" d="M3273.25,-607.81C3253.53,-616.6 3226.71,-627.48 3202,-633.96 3085.96,-664.37 3054.46,-669.96 2934.5,-669.96 2934.5,-669.96 2934.5,-669.96 2198,-669.96 2034.44,-669.96 1870.93,-523.97 1829.83,-484.63"/>
<polygon fill="midnightblue" stroke="midnightblue" points="3274.93,-610.89 3282.59,-603.57 3272.04,-604.52 3274.93,-610.89"/>
</g>
<!-- Node18 -->
<g id="node18" class="node">
<title>Node18</title>
<g id="a_node18"><a xlink:href="../../d0/dfe/class_syntax_analyzer.html#afd2005539c57ee2575cab3c50d061cd9" target="_top" xlink:title=" ">
<polygon fill="none" stroke="black" points="1571,-465.46 1571,-484.46 1710,-484.46 1710,-465.46 1571,-465.46"/>
<text text-anchor="middle" x="1640.5" y="-472.46" font-family="Helvetica,sans-Serif" font-size="10.00">SyntaxAnalyzer::syntaxForSt</text>
</a>
</g>
</g>
<!-- Node4&#45;&gt;Node18 -->
<g id="edge60" class="edge">
<title>Node4&#45;&gt;Node18</title>
<path fill="none" stroke="midnightblue" d="M3284.77,-610.35C3265.79,-626.92 3234.05,-651.89 3202,-664.96 3090.5,-710.43 3054.92,-707.96 2934.5,-707.96 2934.5,-707.96 2934.5,-707.96 2004.5,-707.96 1836.38,-707.96 1683.96,-528.77 1649,-484.67"/>
<polygon fill="midnightblue" stroke="midnightblue" points="3287.19,-612.88 3292.32,-603.61 3282.53,-607.66 3287.19,-612.88"/>
</g>
<!-- Node20 -->
<g id="node20" class="node">
<title>Node20</title>
<g id="a_node20"><a xlink:href="../../d0/dfe/class_syntax_analyzer.html#a44506791ee9420b418715a9e87908aeb" target="_top" xlink:title=" ">
<polygon fill="none" stroke="black" points="1234,-266.46 1234,-285.46 1365,-285.46 1365,-266.46 1234,-266.46"/>
<text text-anchor="middle" x="1299.5" y="-273.46" font-family="Helvetica,sans-Serif" font-size="10.00">SyntaxAnalyzer::syntaxIfSt</text>
</a>
</g>
</g>
<!-- Node4&#45;&gt;Node20 -->
<g id="edge62" class="edge">
<title>Node4&#45;&gt;Node20</title>
<path fill="none" stroke="midnightblue" d="M3301.08,-574.2C3295,-495.76 3268.42,-207.87 3202,-151.96 3156.46,-113.62 2994.03,-137.96 2934.5,-137.96 2934.5,-137.96 2934.5,-137.96 1818,-137.96 1618.55,-137.96 1390.02,-234.84 1321.17,-266.25"/>
<polygon fill="midnightblue" stroke="midnightblue" points="3297.59,-574.49 3301.83,-584.2 3304.57,-573.97 3297.59,-574.49"/>
</g>
<!-- Node22 -->
<g id="node22" class="node">
<title>Node22</title>
<g id="a_node22"><a xlink:href="../../d0/dfe/class_syntax_analyzer.html#a1390f811b111005b207bd039d2623dd4" target="_top" xlink:title=" ">
<polygon fill="none" stroke="black" points="1018,-332.46 1018,-351.46 1189,-351.46 1189,-332.46 1018,-332.46"/>
<text text-anchor="middle" x="1103.5" y="-339.46" font-family="Helvetica,sans-Serif" font-size="10.00">SyntaxAnalyzer::syntaxCompoundSt</text>
</a>
</g>
</g>
<!-- Node4&#45;&gt;Node22 -->
<g id="edge54" class="edge">
<title>Node4&#45;&gt;Node22</title>
<path fill="none" stroke="midnightblue" d="M3302.03,-574.05C3299.48,-483.6 3284.05,-112.73 3202,-39.96 3112.9,39.07 3053.6,-23.96 2934.5,-23.96 2934.5,-23.96 2934.5,-23.96 1639.5,-23.96 1440.89,-23.96 1382.51,-69.97 1225,-190.96 1169.94,-233.25 1125.14,-305.87 1110,-332.13"/>
<polygon fill="midnightblue" stroke="midnightblue" points="3298.54,-574.16 3302.3,-584.07 3305.53,-573.98 3298.54,-574.16"/>
</g>
<!-- Node23 -->
<g id="node23" class="node">
<title>Node23</title>
<g id="a_node23"><a xlink:href="../../d0/dfe/class_syntax_analyzer.html#a4a85e884f3f202c24ce09cc0c0e281b1" target="_top" xlink:title=" ">
<polygon fill="none" stroke="black" points="1225,-200.46 1225,-219.46 1374,-219.46 1374,-200.46 1225,-200.46"/>
<text text-anchor="middle" x="1299.5" y="-207.46" font-family="Helvetica,sans-Serif" font-size="10.00">SyntaxAnalyzer::syntaxWhileSt</text>
</a>
</g>
</g>
<!-- Node4&#45;&gt;Node23 -->
<g id="edge78" class="edge">
<title>Node4&#45;&gt;Node23</title>
<path fill="none" stroke="midnightblue" d="M3301.22,-573.72C3295.6,-492.04 3270.34,-188.08 3202,-126.96 3112.93,-47.3 3053.99,-99.96 2934.5,-99.96 2934.5,-99.96 2934.5,-99.96 1639.5,-99.96 1509.87,-99.96 1365.38,-173.63 1317.16,-200.39"/>
<polygon fill="midnightblue" stroke="midnightblue" points="3297.75,-574.36 3301.91,-584.1 3304.74,-573.9 3297.75,-574.36"/>
</g>
<!-- Node24 -->
<g id="node24" class="node">
<title>Node24</title>
<g id="a_node24"><a xlink:href="../../d0/dfe/class_syntax_analyzer.html#a21f6ed68cce9f38063319d350afc1239" target="_top" xlink:title=" ">
<polygon fill="none" stroke="black" points="3052.5,-418.46 3052.5,-437.46 3193.5,-437.46 3193.5,-418.46 3052.5,-418.46"/>
<text text-anchor="middle" x="3123" y="-425.46" font-family="Helvetica,sans-Serif" font-size="10.00">SyntaxAnalyzer::syntaxCallSt</text>
</a>
</g>
</g>
<!-- Node4&#45;&gt;Node24 -->
<g id="edge33" class="edge">
<title>Node4&#45;&gt;Node24</title>
<path fill="none" stroke="midnightblue" d="M3290.99,-575.85C3273.95,-550.11 3239.92,-502.56 3202,-470.96 3185.13,-456.9 3162.98,-445.21 3146.59,-437.58"/>
<polygon fill="midnightblue" stroke="midnightblue" points="3288.08,-577.81 3296.47,-584.28 3293.95,-573.99 3288.08,-577.81"/>
</g>
<!-- Node25 -->
<g id="node25" class="node">
<title>Node25</title>
<g id="a_node25"><a xlink:href="../../d0/dfe/class_syntax_analyzer.html#a0d5fca8c5ec85c61bcf65df3693ce384" target="_top" xlink:title=" ">
<polygon fill="none" stroke="black" points="2862,-432.46 2862,-451.46 3005,-451.46 3005,-432.46 2862,-432.46"/>
<text text-anchor="middle" x="2933.5" y="-439.46" font-family="Helvetica,sans-Serif" font-size="10.00">SyntaxAnalyzer::syntaxFactor</text>
</a>
</g>
</g>
<!-- Node4&#45;&gt;Node25 -->
<g id="edge59" class="edge">
<title>Node4&#45;&gt;Node25</title>
<path fill="none" stroke="midnightblue" d="M3286.36,-577.28C3267.69,-558.92 3235.23,-529.79 3202,-512.96 3137.38,-480.22 3056.11,-461.42 3000.2,-451.49"/>
<polygon fill="midnightblue" stroke="midnightblue" points="3283.94,-579.81 3293.48,-584.42 3288.9,-574.87 3283.94,-579.81"/>
</g>
<!-- Node26 -->
<g id="node26" class="node">
<title>Node26</title>
<g id="a_node26"><a xlink:href="../../d0/dfe/class_syntax_analyzer.html#a1f83850370eb120ec67a6cc19ce99e2e" target="_top" xlink:title=" ">
<polygon fill="none" stroke="black" points="2686,-242.46 2686,-261.46 2823,-261.46 2823,-242.46 2686,-242.46"/>
<text text-anchor="middle" x="2754.5" y="-249.46" font-family="Helvetica,sans-Serif" font-size="10.00">SyntaxAnalyzer::syntaxTerm</text>
</a>
</g>
</g>
<!-- Node4&#45;&gt;Node26 -->
<g id="edge68" class="edge">
<title>Node4&#45;&gt;Node26</title>
<path fill="none" stroke="midnightblue" d="M3303.24,-574.08C3304.17,-516.75 3298.13,-350.44 3202,-275.96 3144.7,-231.56 2933.39,-239.17 2823.26,-246.53"/>
<polygon fill="midnightblue" stroke="midnightblue" points="3299.74,-574.23 3302.98,-584.31 3306.73,-574.41 3299.74,-574.23"/>
</g>
<!-- Node27 -->
<g id="node27" class="node">
<title>Node27</title>
<g id="a_node27"><a xlink:href="../../d0/dfe/class_syntax_analyzer.html#a65d458f8a460cd5153c013f9dc2b6d90" target="_top" xlink:title=" ">
<polygon fill="none" stroke="black" points="2486,-209.46 2486,-228.46 2650,-228.46 2650,-209.46 2486,-209.46"/>
<text text-anchor="middle" x="2568" y="-216.46" font-family="Helvetica,sans-Serif" font-size="10.00">SyntaxAnalyzer::syntaxSimpleExpr</text>
</a>
</g>
</g>
<!-- Node4&#45;&gt;Node27 -->
<g id="edge67" class="edge">
<title>Node4&#45;&gt;Node27</title>
<path fill="none" stroke="midnightblue" d="M3299.96,-574.24C3290.73,-505.98 3256.63,-281.64 3202,-238.96 3118.45,-173.67 2801.48,-195.41 2650.24,-210.1"/>
<polygon fill="midnightblue" stroke="midnightblue" points="3296.53,-575 3301.31,-584.45 3303.47,-574.08 3296.53,-575"/>
</g>
<!-- Node28 -->
<g id="node28" class="node">
<title>Node28</title>
<g id="a_node28"><a xlink:href="../../d0/dfe/class_syntax_analyzer.html#a3c3f51ab7cdb341ac4fa460e352150ae" target="_top" xlink:title=" ">
<polygon fill="none" stroke="black" points="2315.5,-247.46 2315.5,-266.46 2449.5,-266.46 2449.5,-247.46 2315.5,-247.46"/>
<text text-anchor="middle" x="2382.5" y="-254.46" font-family="Helvetica,sans-Serif" font-size="10.00">SyntaxAnalyzer::syntaxExpr</text>
</a>
</g>
</g>
<!-- Node4&#45;&gt;Node28 -->
<g id="edge58" class="edge">
<title>Node4&#45;&gt;Node28</title>
<path fill="none" stroke="midnightblue" d="M3300.54,-574.31C3292.82,-501 3261.9,-245.15 3202,-194.96 3110.65,-118.4 3053.69,-175.96 2934.5,-175.96 2934.5,-175.96 2934.5,-175.96 2753.5,-175.96 2634.13,-175.96 2600.09,-164.85 2486,-199.96 2451.36,-210.62 2415.34,-234.01 2396.6,-247.28"/>
<polygon fill="midnightblue" stroke="midnightblue" points="3297.08,-574.85 3301.59,-584.44 3304.05,-574.14 3297.08,-574.85"/>
</g>
<!-- Node29 -->
<g id="node29" class="node">
<title>Node29</title>
<g id="a_node29"><a xlink:href="../../d0/dfe/class_syntax_analyzer.html#ad43214817dbe71119316f653b4cbbefb" target="_top" xlink:title=" ">
<polygon fill="none" stroke="black" points="2119,-52.46 2119,-71.46 2279,-71.46 2279,-52.46 2119,-52.46"/>
<text text-anchor="middle" x="2199" y="-59.46" font-family="Helvetica,sans-Serif" font-size="10.00">SyntaxAnalyzer::syntaxConstDecl</text>
</a>
</g>
</g>
<!-- Node4&#45;&gt;Node29 -->
<g id="edge55" class="edge">
<title>Node4&#45;&gt;Node29</title>
<path fill="none" stroke="midnightblue" d="M3301.62,-573.88C3297.43,-487.99 3276.45,-152.92 3202,-85.96 3113.25,-6.14 3053.87,-61.96 2934.5,-61.96 2934.5,-61.96 2934.5,-61.96 2567,-61.96 2467.76,-61.96 2353.43,-61.96 2279.11,-61.96"/>
<polygon fill="midnightblue" stroke="midnightblue" points="3298.14,-574.26 3302.1,-584.09 3305.13,-573.94 3298.14,-574.26"/>
</g>
<!-- Node31 -->
<g id="node31" class="node">
<title>Node31</title>
<g id="a_node31"><a xlink:href="../../d0/dfe/class_syntax_analyzer.html#a24dfeabcc9335e5f3f040f7cf0c64fd9" target="_top" xlink:title=" ">
<polygon fill="none" stroke="black" points="2122.5,-285.46 2122.5,-304.46 2275.5,-304.46 2275.5,-285.46 2122.5,-285.46"/>
<text text-anchor="middle" x="2199" y="-292.46" font-family="Helvetica,sans-Serif" font-size="10.00">SyntaxAnalyzer::syntaxReturnSt</text>
</a>
</g>
</g>
<!-- Node4&#45;&gt;Node31 -->
<g id="edge65" class="edge">
<title>Node4&#45;&gt;Node31</title>
<path fill="none" stroke="midnightblue" d="M3297.35,-574.42C3286.39,-536.66 3257.12,-453.48 3202,-408.96 3132.09,-352.49 3096.45,-367.88 3008,-351.96 2741.75,-304.03 2419.38,-295.95 2275.58,-294.89"/>
<polygon fill="midnightblue" stroke="midnightblue" points="3294.02,-575.5 3300.07,-584.19 3300.76,-573.62 3294.02,-575.5"/>
</g>
<!-- Node32 -->
<g id="node32" class="node">
<title>Node32</title>
<g id="a_node32"><a xlink:href="../../d0/dfe/class_syntax_analyzer.html#aee174af1cc97011051b2a8a87d2a5e7d" target="_top" xlink:title=" ">
<polygon fill="none" stroke="black" points="2127.5,-470.46 2127.5,-489.46 2270.5,-489.46 2270.5,-470.46 2127.5,-470.46"/>
<text text-anchor="middle" x="2199" y="-477.46" font-family="Helvetica,sans-Serif" font-size="10.00">SyntaxAnalyzer::syntaxSelect</text>
</a>
</g>
</g>
<!-- Node4&#45;&gt;Node32 -->
<g id="edge66" class="edge">
<title>Node4&#45;&gt;Node32</title>
<path fill="none" stroke="midnightblue" d="M3233.75,-593.96C3159.83,-593.96 3038.84,-593.96 2934.5,-593.96 2934.5,-593.96 2934.5,-593.96 2753.5,-593.96 2555.86,-593.96 2506.45,-569.04 2315,-519.96 2282.85,-511.72 2246.88,-498.54 2223.87,-489.58"/>
<polygon fill="midnightblue" stroke="midnightblue" points="3233.86,-597.46 3243.86,-593.96 3233.86,-590.46 3233.86,-597.46"/>
</g>
<!-- Node33 -->
<g id="node33" class="node">
<title>Node33</title>
<g id="a_node33"><a xlink:href="../../d0/dfe/class_syntax_analyzer.html#ac33091b7dd671e839b031a26058096bd" target="_top" xlink:title=" ">
<polygon fill="none" stroke="black" points="2492,-736.46 2492,-755.46 2644,-755.46 2644,-736.46 2492,-736.46"/>
<text text-anchor="middle" x="2568" y="-743.46" font-family="Helvetica,sans-Serif" font-size="10.00">SyntaxAnalyzer::syntaxEmptySt</text>
</a>
</g>
</g>
<!-- Node4&#45;&gt;Node33 -->
<g id="edge56" class="edge">
<title>Node4&#45;&gt;Node33</title>
<path fill="none" stroke="midnightblue" d="M3294.18,-612.9C3280.06,-642.38 3248.38,-698.31 3202,-721.96 3106.66,-770.57 2790.42,-759.14 2644.27,-750.86"/>
<polygon fill="midnightblue" stroke="midnightblue" points="3297.42,-614.22 3298.43,-603.67 3291.07,-611.29 3297.42,-614.22"/>
</g>
<!-- Node34 -->
<g id="node34" class="node">
<title>Node34</title>
<g id="a_node34"><a xlink:href="../../d0/dfe/class_syntax_analyzer.html#a5ef8e691db1611dd73eff73f011b7780" target="_top" xlink:title=" ">
<polygon fill="none" stroke="black" points="3044,-888.46 3044,-907.46 3202,-907.46 3202,-888.46 3044,-888.46"/>
<text text-anchor="middle" x="3123" y="-895.46" font-family="Helvetica,sans-Serif" font-size="10.00">SyntaxAnalyzer::syntaxTypeSpec</text>
</a>
</g>
</g>
<!-- Node4&#45;&gt;Node34 -->
<g id="edge69" class="edge">
<title>Node4&#45;&gt;Node34</title>
<path fill="none" stroke="midnightblue" d="M3295.85,-613.19C3274.23,-675.68 3207.01,-869.17 3202,-873.96 3195.34,-880.32 3187.03,-885 3178.35,-888.43"/>
<polygon fill="midnightblue" stroke="midnightblue" points="3299.17,-614.32 3299.13,-603.73 3292.55,-612.04 3299.17,-614.32"/>
</g>
<!-- Node35 -->
<g id="node35" class="node">
<title>Node35</title>
<g id="a_node35"><a xlink:href="../../d0/dfe/class_syntax_analyzer.html#a1aec3b17f02af497c91b295509c6dded" target="_top" xlink:title=" ">
<polygon fill="none" stroke="black" points="3048,-522.46 3048,-541.46 3198,-541.46 3198,-522.46 3048,-522.46"/>
<text text-anchor="middle" x="3123" y="-529.46" font-family="Helvetica,sans-Serif" font-size="10.00">SyntaxAnalyzer::syntaxVariable</text>
</a>
</g>
</g>
<!-- Node4&#45;&gt;Node35 -->
<g id="edge74" class="edge">
<title>Node4&#45;&gt;Node35</title>
<path fill="none" stroke="midnightblue" d="M3265.44,-581.09C3231.51,-569.3 3182.07,-552.13 3151.53,-541.52"/>
<polygon fill="midnightblue" stroke="midnightblue" points="3264.41,-584.43 3275,-584.41 3266.7,-577.82 3264.41,-584.43"/>
</g>
<!-- Node5&#45;&gt;Node5 -->
<g id="edge5" class="edge">
<title>Node5&#45;&gt;Node5</title>
<path fill="none" stroke="midnightblue" d="M3156.73,-971.85C3156.24,-977.5 3144.99,-981.96 3123,-981.96 3091.01,-981.96 3081.76,-972.52 3095.26,-963.71"/>
<polygon fill="midnightblue" stroke="midnightblue" points="3159.49,-969.69 3150.74,-963.71 3153.85,-973.84 3159.49,-969.69"/>
</g>
<!-- Node5&#45;&gt;Node6 -->
<g id="edge6" class="edge">
<title>Node5&#45;&gt;Node6</title>
<path fill="none" stroke="midnightblue" d="M3070.01,-941.96C3061.29,-939.76 3052.36,-937.38 3044,-934.96 3015.29,-926.63 2982.9,-915.46 2960.85,-907.58"/>
<polygon fill="midnightblue" stroke="midnightblue" points="3069.17,-945.36 3079.72,-944.37 3070.86,-938.57 3069.17,-945.36"/>
</g>
<!-- Node6&#45;&gt;Node7 -->
<g id="edge7" class="edge">
<title>Node6&#45;&gt;Node7</title>
<path fill="none" stroke="midnightblue" d="M2848.55,-897.96C2774.88,-897.96 2664.83,-897.96 2569,-897.96 2569,-897.96 2569,-897.96 1102.5,-897.96 999.66,-897.96 881,-890.61 806.01,-885.05"/>
<polygon fill="midnightblue" stroke="midnightblue" points="2848.7,-901.46 2858.7,-897.96 2848.7,-894.46 2848.7,-901.46"/>
</g>
<!-- Node14 -->
<g id="node14" class="node">
<title>Node14</title>
<g id="a_node14"><a xlink:href="../../d0/dfe/class_syntax_analyzer.html#a9a934470c35c197885531feb377ef5bc" target="_top" xlink:title=" ">
<polygon fill="none" stroke="black" points="2315,-850.46 2315,-869.46 2450,-869.46 2450,-850.46 2315,-850.46"/>
<text text-anchor="middle" x="2382.5" y="-857.46" font-family="Helvetica,sans-Serif" font-size="10.00">SyntaxAnalyzer::syntaxVars</text>
</a>
</g>
</g>
<!-- Node6&#45;&gt;Node14 -->
<g id="edge14" class="edge">
<title>Node6&#45;&gt;Node14</title>
<path fill="none" stroke="midnightblue" d="M2854.25,-887.25C2843.75,-886.02 2833.12,-884.88 2823,-883.96 2691.16,-871.95 2536.47,-865.2 2450.25,-862.09"/>
<polygon fill="midnightblue" stroke="midnightblue" points="2853.9,-890.73 2864.24,-888.45 2854.73,-883.78 2853.9,-890.73"/>
</g>
<!-- Node7&#45;&gt;Node8 -->
<g id="edge8" class="edge">
<title>Node7&#45;&gt;Node8</title>
<path fill="none" stroke="midnightblue" d="M643.85,-878.96C635.26,-878.96 626.57,-878.96 618.1,-878.96"/>
<polygon fill="midnightblue" stroke="midnightblue" points="643.88,-882.46 653.88,-878.96 643.88,-875.46 643.88,-882.46"/>
</g>
<!-- Node9 -->
<g id="node9" class="node">
<title>Node9</title>
<g id="a_node9"><a xlink:href="../../d0/dfe/class_syntax_analyzer.html#addbd9bc0fe0dae8cd2ddb4fbafea0fcc" target="_top" xlink:title="Синтаксический анализ токенов, переданных анализатору.">
<polygon fill="none" stroke="black" points="278,-869.46 278,-888.46 430,-888.46 430,-869.46 278,-869.46"/>
<text text-anchor="middle" x="354" y="-876.46" font-family="Helvetica,sans-Serif" font-size="10.00">SyntaxAnalyzer::analyzeTokens</text>
</a>
</g>
</g>
<!-- Node8&#45;&gt;Node9 -->
<g id="edge9" class="edge">
<title>Node8&#45;&gt;Node9</title>
<path fill="none" stroke="midnightblue" d="M455.85,-878.96C447.26,-878.96 438.57,-878.96 430.1,-878.96"/>
<polygon fill="midnightblue" stroke="midnightblue" points="455.88,-882.46 465.88,-878.96 455.88,-875.46 455.88,-882.46"/>
</g>
<!-- Node10 -->
<g id="node10" class="node">
<title>Node10</title>
<g id="a_node10"><a xlink:href="../../d1/d80/namespace_analyze.html#ad5b883abd31a279f5b95a9aa52415437" target="_top" xlink:title="Анализ файла inName и вывод в outName .dot описания ДАС. Так же выводит в стандартный поток вывода по...">
<polygon fill="none" stroke="black" points="139,-888.46 139,-907.46 242,-907.46 242,-888.46 139,-888.46"/>
<text text-anchor="middle" x="190.5" y="-895.46" font-family="Helvetica,sans-Serif" font-size="10.00">Analyze::analyzeFile</text>
</a>
</g>
</g>
<!-- Node9&#45;&gt;Node10 -->
<g id="edge10" class="edge">
<title>Node9&#45;&gt;Node10</title>
<path fill="none" stroke="midnightblue" d="M267.76,-888.99C259.11,-890 250.53,-891.01 242.41,-891.97"/>
<polygon fill="midnightblue" stroke="midnightblue" points="268.4,-892.43 277.92,-887.79 267.58,-885.48 268.4,-892.43"/>
</g>
<!-- Node13 -->
<g id="node13" class="node">
<title>Node13</title>
<g id="a_node13"><a xlink:href="../../db/df9/test_semantic_8cpp.html#a804faf7fd199a3c491020f1f2caa618b" target="_top" xlink:title="Тест семантического анализа Паскаля">
<polygon fill="none" stroke="black" points="170,-850.46 170,-869.46 211,-869.46 211,-850.46 170,-850.46"/>
<text text-anchor="middle" x="190.5" y="-857.46" font-family="Helvetica,sans-Serif" font-size="10.00">TEST</text>
</a>
</g>
</g>
<!-- Node9&#45;&gt;Node13 -->
<g id="edge13" class="edge">
<title>Node9&#45;&gt;Node13</title>
<path fill="none" stroke="midnightblue" d="M267.84,-868.94C246.63,-866.44 225.83,-864 211.31,-862.29"/>
<polygon fill="midnightblue" stroke="midnightblue" points="267.58,-872.43 277.92,-870.13 268.4,-865.48 267.58,-872.43"/>
</g>
<!-- Node11 -->
<g id="node11" class="node">
<title>Node11</title>
<g id="a_node11"><a xlink:href="../../d1/d80/namespace_analyze.html#af385d2d3d600a7392cb177a3171f193f" target="_top" xlink:title="Анализ файла inName и вывод в &quot;output.svg&quot; .dot описания ДАС. Так же выводит в стандартный поток выво...">
<polygon fill="none" stroke="black" points="0,-907.46 0,-926.46 103,-926.46 103,-907.46 0,-907.46"/>
<text text-anchor="middle" x="51.5" y="-914.46" font-family="Helvetica,sans-Serif" font-size="10.00">Analyze::analyzeFile</text>
</a>
</g>
</g>
<!-- Node10&#45;&gt;Node11 -->
<g id="edge11" class="edge">
<title>Node10&#45;&gt;Node11</title>
<path fill="none" stroke="midnightblue" d="M128.96,-906.35C120.42,-907.54 111.71,-908.75 103.37,-909.9"/>
<polygon fill="midnightblue" stroke="midnightblue" points="129.45,-909.82 138.88,-904.98 128.49,-902.89 129.45,-909.82"/>
</g>
<!-- Node12 -->
<g id="node12" class="node">
<title>Node12</title>
<g id="a_node12"><a xlink:href="../../d3/db4/graph_draw_8cpp.html#a3c04138a5bfe5d72780bb7e82a18e627" target="_top" xlink:title=" ">
<polygon fill="none" stroke="black" points="32.5,-869.46 32.5,-888.46 70.5,-888.46 70.5,-869.46 32.5,-869.46"/>
<text text-anchor="middle" x="51.5" y="-876.46" font-family="Helvetica,sans-Serif" font-size="10.00">main</text>
</a>
</g>
</g>
<!-- Node10&#45;&gt;Node12 -->
<g id="edge12" class="edge">
<title>Node10&#45;&gt;Node12</title>
<path fill="none" stroke="midnightblue" d="M128.92,-889.56C107.72,-886.62 85.5,-883.53 70.52,-881.46"/>
<polygon fill="midnightblue" stroke="midnightblue" points="128.49,-893.03 138.88,-890.94 129.45,-886.1 128.49,-893.03"/>
</g>
<!-- Node14&#45;&gt;Node15 -->
<g id="edge15" class="edge">
<title>Node14&#45;&gt;Node15</title>
<path fill="none" stroke="midnightblue" d="M2313.3,-848.87C2238.31,-837.65 2114.15,-821.96 2006.5,-821.96 2006.5,-821.96 2006.5,-821.96 1298.5,-821.96 1187.77,-821.96 1059.36,-814.04 982.24,-808.43"/>
<polygon fill="midnightblue" stroke="midnightblue" points="2313.14,-852.38 2323.55,-850.42 2314.18,-845.46 2313.14,-852.38"/>
</g>
<!-- Node15&#45;&gt;Node7 -->
<g id="edge16" class="edge">
<title>Node15&#45;&gt;Node7</title>
<path fill="none" stroke="midnightblue" d="M884.61,-817.41C863.68,-828.53 833.47,-843.83 806,-854.96 792.69,-860.35 777.69,-865.35 764.61,-869.38"/>
<polygon fill="midnightblue" stroke="midnightblue" points="886.38,-820.43 893.54,-812.62 883.07,-814.26 886.38,-820.43"/>
</g>
<!-- Node15&#45;&gt;Node8 -->
<g id="edge17" class="edge">
<title>Node15&#45;&gt;Node8</title>
<path fill="none" stroke="midnightblue" d="M854.86,-814.55C782.07,-829.58 656.51,-855.52 589.05,-869.45"/>
<polygon fill="midnightblue" stroke="midnightblue" points="855.68,-817.96 864.77,-812.51 854.26,-811.1 855.68,-817.96"/>
</g>
<!-- Node16&#45;&gt;Node17 -->
<g id="edge19" class="edge">
<title>Node16&#45;&gt;Node17</title>
<path fill="none" stroke="midnightblue" d="M1917.77,-477.61C1906.23,-477.29 1894.57,-476.98 1883.53,-476.68"/>
<polygon fill="midnightblue" stroke="midnightblue" points="1917.77,-481.11 1927.86,-477.88 1917.96,-474.11 1917.77,-481.11"/>
</g>
<!-- Node19 -->
<g id="node19" class="node">
<title>Node19</title>
<g id="a_node19"><a xlink:href="../../d0/dfe/class_syntax_analyzer.html#a1332b189c9be3ef8969eda9f078a97b3" target="_top" xlink:title=" ">
<polygon fill="none" stroke="black" points="1410,-332.46 1410,-351.46 1535,-351.46 1535,-332.46 1410,-332.46"/>
<text text-anchor="middle" x="1472.5" y="-339.46" font-family="Helvetica,sans-Serif" font-size="10.00">SyntaxAnalyzer::syntaxSt</text>
</a>
</g>
</g>
<!-- Node16&#45;&gt;Node19 -->
<g id="edge31" class="edge">
<title>Node16&#45;&gt;Node19</title>
<path fill="none" stroke="midnightblue" d="M1949.83,-468.28C1837.37,-444.22 1589.09,-390.86 1571,-384.96 1542.69,-375.71 1511.42,-361.09 1492.12,-351.51"/>
<polygon fill="midnightblue" stroke="midnightblue" points="1949.12,-471.71 1959.63,-470.38 1950.59,-464.86 1949.12,-471.71"/>
</g>
<!-- Node17&#45;&gt;Node18 -->
<g id="edge20" class="edge">
<title>Node17&#45;&gt;Node18</title>
<path fill="none" stroke="midnightblue" d="M1744.08,-474.96C1732.85,-474.96 1721.31,-474.96 1710.2,-474.96"/>
<polygon fill="midnightblue" stroke="midnightblue" points="1744.28,-478.46 1754.28,-474.96 1744.28,-471.46 1744.28,-478.46"/>
</g>
<!-- Node18&#45;&gt;Node19 -->
<g id="edge21" class="edge">
<title>Node18&#45;&gt;Node19</title>
<path fill="none" stroke="midnightblue" d="M1620.2,-460.36C1605.9,-452.98 1586.32,-443.98 1571,-432.96 1536.16,-407.9 1502.89,-369.69 1485.67,-351.46"/>
<polygon fill="midnightblue" stroke="midnightblue" points="1618.68,-463.51 1629.14,-465.2 1622.02,-457.36 1618.68,-463.51"/>
</g>
<!-- Node19&#45;&gt;Node18 -->
<g id="edge22" class="edge">
<title>Node19&#45;&gt;Node18</title>
<path fill="none" stroke="midnightblue" d="M1483.33,-360.18C1499.74,-384.03 1534.51,-424.71 1571,-450.96 1578.5,-456.35 1587.02,-461.26 1595.44,-465.37"/>
<polygon fill="midnightblue" stroke="midnightblue" points="1486.18,-358.13 1477.81,-351.64 1480.3,-361.93 1486.18,-358.13"/>
</g>
<!-- Node19&#45;&gt;Node20 -->
<g id="edge23" class="edge">
<title>Node19&#45;&gt;Node20</title>
<path fill="none" stroke="midnightblue" d="M1447.56,-327.86C1419.73,-314.96 1373.38,-296.76 1340.14,-285.46"/>
<polygon fill="midnightblue" stroke="midnightblue" points="1446.39,-331.18 1456.92,-332.35 1449.42,-324.87 1446.39,-331.18"/>
</g>
<!-- Node21 -->
<g id="node21" class="node">
<title>Node21</title>
<g id="a_node21"><a xlink:href="../../d0/dfe/class_syntax_analyzer.html#a01d109f26cc4d069b40fed83435e3141" target="_top" xlink:title=" ">
<polygon fill="none" stroke="black" points="1229,-351.46 1229,-370.46 1370,-370.46 1370,-351.46 1229,-351.46"/>
<text text-anchor="middle" x="1299.5" y="-358.46" font-family="Helvetica,sans-Serif" font-size="10.00">SyntaxAnalyzer::syntaxStList</text>
</a>
</g>
</g>
<!-- Node19&#45;&gt;Node21 -->
<g id="edge25" class="edge">
<title>Node19&#45;&gt;Node21</title>
<path fill="none" stroke="midnightblue" d="M1399.72,-349.93C1389.97,-351.02 1379.98,-352.13 1370.27,-353.21"/>
<polygon fill="midnightblue" stroke="midnightblue" points="1400.21,-353.4 1409.77,-348.82 1399.44,-346.44 1400.21,-353.4"/>
</g>
<!-- Node19&#45;&gt;Node23 -->
<g id="edge29" class="edge">
<title>Node19&#45;&gt;Node23</title>
<path fill="none" stroke="midnightblue" d="M1459.45,-324.55C1441.51,-304.46 1406.4,-272.23 1374,-247.96 1360.18,-237.6 1344.09,-227.15 1330.5,-219.54"/>
<polygon fill="midnightblue" stroke="midnightblue" points="1456.91,-326.97 1466.03,-332.36 1462.26,-322.46 1456.91,-326.97"/>
</g>
<!-- Node20&#45;&gt;Node19 -->
<g id="edge24" class="edge">
<title>Node20&#45;&gt;Node19</title>
<path fill="none" stroke="midnightblue" d="M1324.47,-290.07C1352.3,-302.97 1398.62,-321.16 1431.84,-332.45"/>
<polygon fill="midnightblue" stroke="midnightblue" points="1325.65,-286.75 1315.12,-285.58 1322.62,-293.06 1325.65,-286.75"/>
</g>
<!-- Node21&#45;&gt;Node22 -->
<g id="edge26" class="edge">
<title>Node21&#45;&gt;Node22</title>
<path fill="none" stroke="midnightblue" d="M1218.7,-353.14C1208.97,-352.19 1199.01,-351.21 1189.21,-350.25"/>
<polygon fill="midnightblue" stroke="midnightblue" points="1218.44,-356.63 1228.74,-354.12 1219.12,-349.67 1218.44,-356.63"/>
</g>
<!-- Node22&#45;&gt;Node15 -->
<g id="edge27" class="edge">
<title>Node22&#45;&gt;Node15</title>
<path fill="none" stroke="midnightblue" d="M1094.59,-361.21C1062.21,-439.98 940.43,-736.23 916.94,-793.38"/>
<polygon fill="midnightblue" stroke="midnightblue" points="1097.98,-362.17 1098.54,-351.59 1091.5,-359.5 1097.98,-362.17"/>
</g>
<!-- Node22&#45;&gt;Node19 -->
<g id="edge28" class="edge">
<title>Node22&#45;&gt;Node19</title>
<path fill="none" stroke="midnightblue" d="M1199.36,-341.96C1265.61,-341.96 1352.14,-341.96 1409.66,-341.96"/>
<polygon fill="midnightblue" stroke="midnightblue" points="1199.32,-338.46 1189.32,-341.96 1199.32,-345.46 1199.32,-338.46"/>
</g>
<!-- Node23&#45;&gt;Node19 -->
<g id="edge30" class="edge">
<title>Node23&#45;&gt;Node19</title>
<path fill="none" stroke="midnightblue" d="M1316.34,-226.06C1331.53,-237.19 1354.93,-251.67 1374,-265.96 1403.65,-288.17 1435.59,-317.06 1454.54,-332.38"/>
<polygon fill="midnightblue" stroke="midnightblue" points="1318.08,-222.99 1308.04,-219.6 1313.78,-228.51 1318.08,-222.99"/>
</g>
<!-- Node24&#45;&gt;Node19 -->
<g id="edge53" class="edge">
<title>Node24&#45;&gt;Node19</title>
<path fill="none" stroke="midnightblue" d="M3042.12,-417.74C2906.82,-401.33 2623.82,-370.96 2383.5,-370.96 2383.5,-370.96 2383.5,-370.96 1818,-370.96 1718.82,-370.96 1604.13,-358.87 1535.29,-350.31"/>
<polygon fill="midnightblue" stroke="midnightblue" points="3042.04,-421.25 3052.39,-418.99 3042.89,-414.3 3042.04,-421.25"/>
</g>
<!-- Node24&#45;&gt;Node25 -->
<g id="edge34" class="edge">
<title>Node24&#45;&gt;Node25</title>
<path fill="none" stroke="midnightblue" d="M3042.21,-433.92C3029.91,-434.83 3017.28,-435.78 3005.19,-436.68"/>
<polygon fill="midnightblue" stroke="midnightblue" points="3042.74,-437.39 3052.45,-433.15 3042.22,-430.41 3042.74,-437.39"/>
</g>
<!-- Node25&#45;&gt;Node17 -->
<g id="edge36" class="edge">
<title>Node25&#45;&gt;Node17</title>
<path fill="none" stroke="midnightblue" d="M2851.66,-441.96C2778,-441.96 2666.19,-441.96 2569,-441.96 2569,-441.96 2569,-441.96 2198,-441.96 2087.17,-441.96 1958.74,-456.21 1883.72,-465.98"/>
<polygon fill="midnightblue" stroke="midnightblue" points="2851.8,-445.46 2861.8,-441.96 2851.8,-438.46 2851.8,-445.46"/>
</g>
<!-- Node25&#45;&gt;Node25 -->
<g id="edge35" class="edge">
<title>Node25&#45;&gt;Node25</title>
<path fill="none" stroke="midnightblue" d="M2966.86,-459.85C2966.37,-465.5 2955.25,-469.96 2933.5,-469.96 2901.86,-469.96 2892.72,-460.52 2906.07,-451.71"/>
<polygon fill="midnightblue" stroke="midnightblue" points="2969.65,-457.74 2960.93,-451.71 2963.99,-461.86 2969.65,-457.74"/>
</g>
<!-- Node25&#45;&gt;Node26 -->
<g id="edge37" class="edge">
<title>Node25&#45;&gt;Node26</title>
<path fill="none" stroke="midnightblue" d="M2916.59,-424.88C2880.48,-386.12 2793.26,-292.49 2764.71,-261.85"/>
<polygon fill="midnightblue" stroke="midnightblue" points="2914.1,-427.34 2923.48,-432.27 2919.22,-422.57 2914.1,-427.34"/>
</g>
<!-- Node26&#45;&gt;Node27 -->
<g id="edge38" class="edge">
<title>Node26&#45;&gt;Node27</title>
<path fill="none" stroke="midnightblue" d="M2690.17,-240.63C2668.05,-236.67 2643.46,-232.28 2622.25,-228.48"/>
<polygon fill="midnightblue" stroke="midnightblue" points="2689.67,-244.1 2700.13,-242.41 2690.91,-237.21 2689.67,-244.1"/>
</g>
<!-- Node27&#45;&gt;Node28 -->
<g id="edge39" class="edge">
<title>Node27&#45;&gt;Node28</title>
<path fill="none" stroke="midnightblue" d="M2510.59,-230.64C2484.57,-236.03 2454.07,-242.34 2429.47,-247.44"/>
<polygon fill="midnightblue" stroke="midnightblue" points="2511.61,-234 2520.7,-228.55 2510.19,-227.15 2511.61,-234"/>
</g>
<!-- Node28&#45;&gt;Node16 -->
<g id="edge40" class="edge">
<title>Node28&#45;&gt;Node16</title>
<path fill="none" stroke="midnightblue" d="M2356.6,-271.76C2285.24,-314.2 2081.35,-435.44 2022.55,-470.41"/>
<polygon fill="midnightblue" stroke="midnightblue" points="2358.58,-274.66 2365.39,-266.54 2355,-268.64 2358.58,-274.66"/>
</g>
<!-- Node28&#45;&gt;Node20 -->
<g id="edge46" class="edge">
<title>Node28&#45;&gt;Node20</title>
<path fill="none" stroke="midnightblue" d="M2305.06,-256.96C2229.28,-256.96 2109.87,-256.96 2006.5,-256.96 2006.5,-256.96 2006.5,-256.96 1639.5,-256.96 1543.86,-256.96 1433.28,-264.59 1365.11,-270.18"/>
<polygon fill="midnightblue" stroke="midnightblue" points="2305.45,-260.46 2315.45,-256.96 2305.45,-253.46 2305.45,-260.46"/>
</g>
<!-- Node28&#45;&gt;Node23 -->
<g id="edge52" class="edge">
<title>Node28&#45;&gt;Node23</title>
<path fill="none" stroke="midnightblue" d="M2346.05,-244.01C2280.13,-221.13 2133.84,-175.96 2006.5,-175.96 2006.5,-175.96 2006.5,-175.96 1639.5,-175.96 1540.87,-175.96 1426.9,-190.38 1359.42,-200.44"/>
<polygon fill="midnightblue" stroke="midnightblue" points="2344.95,-247.34 2355.55,-247.35 2347.27,-240.73 2344.95,-247.34"/>
</g>
<!-- Node28&#45;&gt;Node24 -->
<g id="edge41" class="edge">
<title>Node28&#45;&gt;Node24</title>
<path fill="none" stroke="midnightblue" d="M2460.13,-257.54C2580.88,-260.87 2820.95,-277.3 3008,-351.96 3049.53,-368.53 3091.55,-401.75 3110.93,-418.23"/>
<polygon fill="midnightblue" stroke="midnightblue" points="2459.97,-254.04 2449.88,-257.28 2459.79,-261.04 2459.97,-254.04"/>
</g>
<!-- Node28&#45;&gt;Node25 -->
<g id="edge45" class="edge">
<title>Node28&#45;&gt;Node25</title>
<path fill="none" stroke="midnightblue" d="M2421.81,-269.87C2525.99,-304.97 2812.77,-401.61 2904.14,-432.4"/>
<polygon fill="midnightblue" stroke="midnightblue" points="2422.61,-266.44 2412.02,-266.57 2420.38,-273.08 2422.61,-266.44"/>
</g>
<!-- Node28&#45;&gt;Node29 -->
<g id="edge42" class="edge">
<title>Node28&#45;&gt;Node29</title>
<path fill="none" stroke="midnightblue" d="M2365.68,-239.96C2328.8,-200.34 2238.04,-102.83 2209.05,-71.69"/>
<polygon fill="midnightblue" stroke="midnightblue" points="2363.12,-242.35 2372.5,-247.29 2368.25,-237.58 2363.12,-242.35"/>
</g>
<!-- Node28&#45;&gt;Node31 -->
<g id="edge47" class="edge">
<title>Node28&#45;&gt;Node31</title>
<path fill="none" stroke="midnightblue" d="M2325.71,-268.64C2299.97,-274.03 2269.8,-280.34 2245.47,-285.44"/>
<polygon fill="midnightblue" stroke="midnightblue" points="2326.63,-272.02 2335.7,-266.55 2325.19,-265.17 2326.63,-272.02"/>
</g>
<!-- Node28&#45;&gt;Node32 -->
<g id="edge49" class="edge">
<title>Node28&#45;&gt;Node32</title>
<path fill="none" stroke="midnightblue" d="M2367.26,-274.46C2330.91,-319.11 2235.65,-436.16 2207.77,-470.41"/>
<polygon fill="midnightblue" stroke="midnightblue" points="2370.1,-276.5 2373.7,-266.54 2364.67,-272.09 2370.1,-276.5"/>
</g>
<!-- Node30 -->
<g id="node30" class="node">
<title>Node30</title>
<g id="a_node30"><a xlink:href="../../d0/dfe/class_syntax_analyzer.html#a177c60c88c15c37d6f5cf0c41a35190b" target="_top" xlink:title=" ">
<polygon fill="none" stroke="black" points="1746,-52.46 1746,-71.46 1892,-71.46 1892,-52.46 1746,-52.46"/>
<text text-anchor="middle" x="1819" y="-59.46" font-family="Helvetica,sans-Serif" font-size="10.00">SyntaxAnalyzer::syntaxConsts</text>
</a>
</g>
</g>
<!-- Node29&#45;&gt;Node30 -->
<g id="edge43" class="edge">
<title>Node29&#45;&gt;Node30</title>
<path fill="none" stroke="midnightblue" d="M2108.36,-61.96C2042.3,-61.96 1953.61,-61.96 1892.11,-61.96"/>
<polygon fill="midnightblue" stroke="midnightblue" points="2108.76,-65.46 2118.76,-61.96 2108.76,-58.46 2108.76,-65.46"/>
</g>
<!-- Node30&#45;&gt;Node15 -->
<g id="edge44" class="edge">
<title>Node30&#45;&gt;Node15</title>
<path fill="none" stroke="midnightblue" d="M1735.7,-61.96C1665.9,-61.96 1563.14,-61.96 1473.5,-61.96 1473.5,-61.96 1473.5,-61.96 1298.5,-61.96 952.28,-61.96 916.54,-706.46 913.3,-793.32"/>
<polygon fill="midnightblue" stroke="midnightblue" points="1735.75,-65.46 1745.75,-61.96 1735.75,-58.46 1735.75,-65.46"/>
</g>
<!-- Node31&#45;&gt;Node19 -->
<g id="edge48" class="edge">
<title>Node31&#45;&gt;Node19</title>
<path fill="none" stroke="midnightblue" d="M2111.78,-300.55C1963.65,-310.16 1664.36,-329.58 1535.17,-337.96"/>
<polygon fill="midnightblue" stroke="midnightblue" points="2112.42,-304.02 2122.18,-299.88 2111.97,-297.03 2112.42,-304.02"/>
</g>
<!-- Node32&#45;&gt;Node16 -->
<g id="edge50" class="edge">
<title>Node32&#45;&gt;Node16</title>
<path fill="none" stroke="midnightblue" d="M2117.01,-479.96C2105.77,-479.96 2094.24,-479.96 2083.09,-479.96"/>
<polygon fill="midnightblue" stroke="midnightblue" points="2117.24,-483.46 2127.24,-479.96 2117.24,-476.46 2117.24,-483.46"/>
</g>
<!-- Node32&#45;&gt;Node25 -->
<g id="edge51" class="edge">
<title>Node32&#45;&gt;Node25</title>
<path fill="none" stroke="midnightblue" d="M2280.78,-479.13C2399.7,-477.39 2628.83,-472.08 2823,-455.96 2836.75,-454.82 2851.43,-453.21 2865.43,-451.49"/>
<polygon fill="midnightblue" stroke="midnightblue" points="2280.61,-475.63 2270.66,-479.27 2280.71,-482.63 2280.61,-475.63"/>
</g>
<!-- Node33&#45;&gt;Node19 -->
<g id="edge57" class="edge">
<title>Node33&#45;&gt;Node19</title>
<path fill="none" stroke="midnightblue" d="M2481.54,-745.96C2407.16,-745.96 2296.45,-745.96 2200,-745.96 2200,-745.96 2200,-745.96 1818,-745.96 1603.69,-745.96 1494.5,-412.73 1476.26,-351.55"/>
<polygon fill="midnightblue" stroke="midnightblue" points="2481.79,-749.46 2491.79,-745.96 2481.79,-742.46 2481.79,-749.46"/>
</g>
<!-- Node34&#45;&gt;Node6 -->
<g id="edge72" class="edge">
<title>Node34&#45;&gt;Node6</title>
<path fill="none" stroke="midnightblue" d="M3033.77,-897.96C3025.16,-897.96 3016.48,-897.96 3008.03,-897.96"/>
<polygon fill="midnightblue" stroke="midnightblue" points="3033.84,-901.46 3043.84,-897.96 3033.84,-894.46 3033.84,-901.46"/>
</g>
<!-- Node34&#45;&gt;Node7 -->
<g id="edge70" class="edge">
<title>Node34&#45;&gt;Node7</title>
<path fill="none" stroke="midnightblue" d="M3060.92,-909.18C3043.84,-912.03 3025.23,-914.88 3008,-916.96 2896.27,-930.44 2868.04,-935.96 2755.5,-935.96 2755.5,-935.96 2755.5,-935.96 1102.5,-935.96 985.96,-935.96 956.73,-926.44 842,-905.96 816.23,-901.36 787.52,-894.32 765.76,-888.59"/>
<polygon fill="midnightblue" stroke="midnightblue" points="3061.51,-912.63 3070.78,-907.5 3060.34,-905.73 3061.51,-912.63"/>
</g>
<!-- Node34&#45;&gt;Node34 -->
<g id="edge71" class="edge">
<title>Node34&#45;&gt;Node34</title>
<path fill="none" stroke="midnightblue" d="M3156.73,-915.85C3156.24,-921.5 3144.99,-925.96 3123,-925.96 3091.01,-925.96 3081.76,-916.52 3095.26,-907.71"/>
<polygon fill="midnightblue" stroke="midnightblue" points="3159.49,-913.69 3150.74,-907.71 3153.85,-917.84 3159.49,-913.69"/>
</g>
<!-- Node35&#45;&gt;Node16 -->
<g id="edge75" class="edge">
<title>Node35&#45;&gt;Node16</title>
<path fill="none" stroke="midnightblue" d="M3037.81,-536.07C3027.77,-536.43 3017.66,-536.75 3008,-536.96 2941.79,-538.41 2925.22,-537.4 2859,-536.96 2617.11,-535.34 2555.95,-541.31 2315,-519.96 2227.73,-512.22 2205.79,-510.92 2119,-498.96 2099.28,-496.24 2077.7,-492.73 2058.77,-489.46"/>
<polygon fill="midnightblue" stroke="midnightblue" points="3037.96,-539.56 3047.81,-535.68 3037.69,-532.57 3037.96,-539.56"/>
</g>
<!-- Node35&#45;&gt;Node25 -->
<g id="edge76" class="edge">
<title>Node35&#45;&gt;Node25</title>
<path fill="none" stroke="midnightblue" d="M3088.27,-518.38C3074.44,-512.63 3058.34,-505.71 3044,-498.96 3010.84,-483.34 2973.13,-463.16 2951.73,-451.47"/>
<polygon fill="midnightblue" stroke="midnightblue" points="3087.31,-521.76 3097.89,-522.34 3089.97,-515.29 3087.31,-521.76"/>
</g>
<!-- Node35&#45;&gt;Node32 -->
<g id="edge77" class="edge">
<title>Node35&#45;&gt;Node32</title>
<path fill="none" stroke="midnightblue" d="M3037.75,-526.91C2963.48,-522.9 2852.35,-517.96 2755.5,-517.96 2755.5,-517.96 2755.5,-517.96 2567,-517.96 2456.66,-517.96 2328.66,-500.75 2256.71,-489.5"/>
<polygon fill="midnightblue" stroke="midnightblue" points="3037.8,-530.42 3047.97,-527.47 3038.18,-523.43 3037.8,-530.42"/>
</g>
</g>
</svg>
