<?xml version="1.0" encoding="UTF-8" standalone="no"?>
<!DOCTYPE svg PUBLIC "-//W3C//DTD SVG 1.1//EN"
 "http://www.w3.org/Graphics/SVG/1.1/DTD/svg11.dtd">
<!-- Generated by graphviz version 3.0.0 (20220413.0106)
 -->
<!-- Title: Token::getInfo Pages: 1 -->
<svg width="213pt" height="142pt"
 viewBox="0.00 0.00 213.00 142.00" xmlns="http://www.w3.org/2000/svg" xmlns:xlink="http://www.w3.org/1999/xlink">
<g id="graph0" class="graph" transform="scale(1 1) rotate(0) translate(4 138)">
<title>Token::getInfo</title>
<!-- Node1 -->
<g id="node1" class="node">
<title>Node1</title>
<g id="a_node1"><a xlink:title=" ">
<polygon fill="#bfbfbf" stroke="black" points="0,-57.5 0,-76.5 78,-76.5 78,-57.5 0,-57.5"/>
<text text-anchor="middle" x="39" y="-64.5" font-family="Helvetica,sans-Serif" font-size="10.00">Token::getInfo</text>
</a>
</g>
</g>
<!-- Node2 -->
<g id="node2" class="node">
<title>Node2</title>
<g id="a_node2"><a xlink:href="../../db/dc1/class_token.html#aa5d6826fae7d616e2cfe3e27b5dd594a" target="_top" xlink:title="Возвращает константную ссылку на строковое представление токена">
<polygon fill="none" stroke="black" points="122.5,-114.5 122.5,-133.5 196.5,-133.5 196.5,-114.5 122.5,-114.5"/>
<text text-anchor="middle" x="159.5" y="-121.5" font-family="Helvetica,sans-Serif" font-size="10.00">Token::getStr</text>
</a>
</g>
</g>
<!-- Node1&#45;&gt;Node2 -->
<g id="edge1" class="edge">
<title>Node1&#45;&gt;Node2</title>
<path fill="none" stroke="midnightblue" d="M57.77,-76.57C72.65,-84.48 94.52,-95.85 114,-105 117.85,-106.81 121.92,-108.64 125.97,-110.42"/>
<polygon fill="midnightblue" stroke="midnightblue" points="124.7,-113.69 135.27,-114.45 127.48,-107.27 124.7,-113.69"/>
</g>
<!-- Node3 -->
<g id="node3" class="node">
<title>Node3</title>
<g id="a_node3"><a xlink:href="../../d0/d11/class_i_token.html#ac7f0a800d7a9e8608bab0360c76d735a" target="_top" xlink:title="Получение типа токена">
<polygon fill="none" stroke="black" points="116.5,-76.5 116.5,-95.5 202.5,-95.5 202.5,-76.5 116.5,-76.5"/>
<text text-anchor="middle" x="159.5" y="-83.5" font-family="Helvetica,sans-Serif" font-size="10.00">IToken::getType</text>
</a>
</g>
</g>
<!-- Node1&#45;&gt;Node3 -->
<g id="edge2" class="edge">
<title>Node1&#45;&gt;Node3</title>
<path fill="none" stroke="midnightblue" d="M78.15,-73.12C87.09,-74.55 96.77,-76.1 106.21,-77.62"/>
<polygon fill="midnightblue" stroke="midnightblue" points="105.89,-81.11 116.32,-79.24 107,-74.2 105.89,-81.11"/>
</g>
<!-- Node4 -->
<g id="node4" class="node">
<title>Node4</title>
<g id="a_node4"><a xlink:href="../../db/dc1/class_token.html#a81497d9f05f9c69ba4ab8e9c62a391d1" target="_top" xlink:title=" ">
<polygon fill="none" stroke="black" points="128,-38.5 128,-57.5 191,-57.5 191,-38.5 128,-38.5"/>
<text text-anchor="middle" x="159.5" y="-45.5" font-family="Helvetica,sans-Serif" font-size="10.00">Token::line</text>
</a>
</g>
</g>
<!-- Node1&#45;&gt;Node4 -->
<g id="edge3" class="edge">
<title>Node1&#45;&gt;Node4</title>
<path fill="none" stroke="midnightblue" d="M78.15,-60.88C90.85,-58.85 105.05,-56.57 117.93,-54.5"/>
<polygon fill="midnightblue" stroke="midnightblue" points="118.61,-57.94 127.93,-52.9 117.5,-51.03 118.61,-57.94"/>
</g>
<!-- Node5 -->
<g id="node5" class="node">
<title>Node5</title>
<g id="a_node5"><a xlink:href="../../db/dc1/class_token.html#a913f22d91c68c0b0f8c2d593b14deca2" target="_top" xlink:title=" ">
<polygon fill="none" stroke="black" points="114,-0.5 114,-19.5 205,-19.5 205,-0.5 114,-0.5"/>
<text text-anchor="middle" x="159.5" y="-7.5" font-family="Helvetica,sans-Serif" font-size="10.00">Token::posInLine</text>
</a>
</g>
</g>
<!-- Node1&#45;&gt;Node5 -->
<g id="edge4" class="edge">
<title>Node1&#45;&gt;Node5</title>
<path fill="none" stroke="midnightblue" d="M57.77,-57.43C72.65,-49.52 94.52,-38.15 114,-29 117.85,-27.19 121.92,-25.36 125.97,-23.58"/>
<polygon fill="midnightblue" stroke="midnightblue" points="127.48,-26.73 135.27,-19.55 124.7,-20.31 127.48,-26.73"/>
</g>
</g>
</svg>
