<?xml version="1.0" encoding="UTF-8" standalone="no"?>
<!DOCTYPE svg PUBLIC "-//W3C//DTD SVG 1.1//EN"
 "http://www.w3.org/Graphics/SVG/1.1/DTD/svg11.dtd">
<!-- Generated by graphviz version 3.0.0 (20220413.0106)
 -->
<!-- Title: Token::setStr Pages: 1 -->
<svg width="3444pt" height="966pt"
 viewBox="0.00 0.00 3444.00 965.59" xmlns="http://www.w3.org/2000/svg" xmlns:xlink="http://www.w3.org/1999/xlink">
<g id="graph0" class="graph" transform="scale(1 1) rotate(0) translate(4 961.59)">
<title>Token::setStr</title>
<!-- Node1 -->
<g id="node1" class="node">
<title>Node1</title>
<g id="a_node1"><a xlink:title=" ">
<polygon fill="#bfbfbf" stroke="black" points="3362,-498.88 3362,-517.88 3436,-517.88 3436,-498.88 3362,-498.88"/>
<text text-anchor="middle" x="3399" y="-505.88" font-family="Helvetica,sans-Serif" font-size="10.00">Token::setStr</text>
</a>
</g>
</g>
<!-- Node2 -->
<g id="node2" class="node">
<title>Node2</title>
<g id="a_node2"><a xlink:href="../../d7/d7c/class_a_s_t_factory.html#a8d1d4c9d01ab2e366d1af6bbaeaf7bef" target="_top" xlink:title=" ">
<polygon fill="none" stroke="black" points="3199,-517.88 3199,-536.88 3318,-536.88 3318,-517.88 3199,-517.88"/>
<text text-anchor="middle" x="3258.5" y="-524.88" font-family="Helvetica,sans-Serif" font-size="10.00">ASTFactory::createAST</text>
</a>
</g>
</g>
<!-- Node1&#45;&gt;Node2 -->
<g id="edge1" class="edge">
<title>Node1&#45;&gt;Node2</title>
<path fill="none" stroke="midnightblue" d="M3351.91,-514.71C3341.09,-516.19 3329.43,-517.79 3318.15,-519.34"/>
<polygon fill="midnightblue" stroke="midnightblue" points="3352.54,-518.15 3361.97,-513.33 3351.59,-511.22 3352.54,-518.15"/>
</g>
<!-- Node32 -->
<g id="node32" class="node">
<title>Node32</title>
<g id="a_node32"><a xlink:href="../../dc/d19/class_function_a_s_t.html#af730d55a37f07b7dc006fe2206fca4e3" target="_top" xlink:title=" ">
<polygon fill="none" stroke="black" points="3191,-479.88 3191,-498.88 3326,-498.88 3326,-479.88 3191,-479.88"/>
<text text-anchor="middle" x="3258.5" y="-486.88" font-family="Helvetica,sans-Serif" font-size="10.00">FunctionAST::FunctionAST</text>
</a>
</g>
</g>
<!-- Node1&#45;&gt;Node32 -->
<g id="edge73" class="edge">
<title>Node1&#45;&gt;Node32</title>
<path fill="none" stroke="midnightblue" d="M3351.85,-502.05C3343.61,-500.92 3334.89,-499.73 3326.22,-498.54"/>
<polygon fill="midnightblue" stroke="midnightblue" points="3351.59,-505.55 3361.97,-503.44 3352.54,-498.62 3351.59,-505.55"/>
</g>
<!-- Node3 -->
<g id="node3" class="node">
<title>Node3</title>
<g id="a_node3"><a xlink:href="../../d0/dfe/class_syntax_analyzer.html#a31fc5887c158652feb946f89270b4b36" target="_top" xlink:title=" ">
<polygon fill="none" stroke="black" points="1887,-479.88 1887,-498.88 2042,-498.88 2042,-479.88 1887,-479.88"/>
<text text-anchor="middle" x="1964.5" y="-486.88" font-family="Helvetica,sans-Serif" font-size="10.00">SyntaxAnalyzer::syntaxAssignSt</text>
</a>
</g>
</g>
<!-- Node2&#45;&gt;Node3 -->
<g id="edge2" class="edge">
<title>Node2&#45;&gt;Node3</title>
<path fill="none" stroke="midnightblue" d="M3206.01,-538.84C3189.77,-541.93 3171.72,-544.85 3155,-546.38 3088.61,-552.49 3071.64,-548.21 3005,-546.38 2644.33,-536.5 2214.07,-507.37 2042.06,-495.02"/>
<polygon fill="midnightblue" stroke="midnightblue" points="3206.72,-542.26 3215.85,-536.9 3205.36,-535.4 3206.72,-542.26"/>
</g>
<!-- Node4 -->
<g id="node4" class="node">
<title>Node4</title>
<g id="a_node4"><a xlink:href="../../d0/dfe/class_syntax_analyzer.html#a931f1efdd45180108ad5c8a3f7fd86b2" target="_top" xlink:title=" ">
<polygon fill="none" stroke="black" points="1713.5,-450.88 1713.5,-469.88 1842.5,-469.88 1842.5,-450.88 1713.5,-450.88"/>
<text text-anchor="middle" x="1778" y="-457.88" font-family="Helvetica,sans-Serif" font-size="10.00">SyntaxAnalyzer::syntaxIter</text>
</a>
</g>
</g>
<!-- Node2&#45;&gt;Node4 -->
<g id="edge54" class="edge">
<title>Node2&#45;&gt;Node4</title>
<path fill="none" stroke="midnightblue" d="M3194.8,-512.08C3193.46,-510.94 3192.19,-509.7 3191,-508.38 3128.3,-438.59 3222.1,-365.96 3155,-300.38 3071.11,-218.41 3011.29,-261.38 2894,-261.38 2894,-261.38 2894,-261.38 2157,-261.38 1992.36,-261.38 1829.01,-411.04 1788.52,-450.79"/>
<polygon fill="midnightblue" stroke="midnightblue" points="3192.93,-515.05 3203.16,-517.79 3196.87,-509.26 3192.93,-515.05"/>
</g>
<!-- Node5 -->
<g id="node5" class="node">
<title>Node5</title>
<g id="a_node5"><a xlink:href="../../d0/dfe/class_syntax_analyzer.html#a82e8472ea6d1064871de0d05eaa8b374" target="_top" xlink:title=" ">
<polygon fill="none" stroke="black" points="1530,-469.88 1530,-488.88 1669,-488.88 1669,-469.88 1530,-469.88"/>
<text text-anchor="middle" x="1599.5" y="-476.88" font-family="Helvetica,sans-Serif" font-size="10.00">SyntaxAnalyzer::syntaxForSt</text>
</a>
</g>
</g>
<!-- Node2&#45;&gt;Node5 -->
<g id="edge51" class="edge">
<title>Node2&#45;&gt;Node5</title>
<path fill="none" stroke="midnightblue" d="M3194.29,-511.74C3193.13,-510.69 3192.03,-509.58 3191,-508.38 3113.72,-419.24 3240.56,-326.61 3155,-245.38 3070.57,-165.23 3010.41,-223.38 2894,-223.38 2894,-223.38 2894,-223.38 1963.5,-223.38 1789.22,-223.38 1639.75,-422.9 1607.11,-469.66"/>
<polygon fill="midnightblue" stroke="midnightblue" points="3192.53,-514.79 3202.71,-517.74 3196.59,-509.09 3192.53,-514.79"/>
</g>
<!-- Node7 -->
<g id="node7" class="node">
<title>Node7</title>
<g id="a_node7"><a xlink:href="../../d0/dfe/class_syntax_analyzer.html#a779e006875d35926152773989f4b1e5a" target="_top" xlink:title=" ">
<polygon fill="none" stroke="black" points="1160,-726.88 1160,-745.88 1291,-745.88 1291,-726.88 1160,-726.88"/>
<text text-anchor="middle" x="1225.5" y="-733.88" font-family="Helvetica,sans-Serif" font-size="10.00">SyntaxAnalyzer::syntaxIfSt</text>
</a>
</g>
</g>
<!-- Node2&#45;&gt;Node7 -->
<g id="edge53" class="edge">
<title>Node2&#45;&gt;Node7</title>
<path fill="none" stroke="midnightblue" d="M3257.78,-547.09C3257.42,-603.22 3247.99,-764.81 3155,-840.38 3064.43,-914 3010.71,-869.38 2894,-869.38 2894,-869.38 2894,-869.38 2157,-869.38 1973.01,-869.38 1516.97,-795.57 1336,-762.38 1311.4,-757.87 1284.03,-751.37 1262.8,-746"/>
<polygon fill="midnightblue" stroke="midnightblue" points="3261.28,-547.04 3257.75,-537.05 3254.28,-547.06 3261.28,-547.04"/>
</g>
<!-- Node9 -->
<g id="node9" class="node">
<title>Node9</title>
<g id="a_node9"><a xlink:href="../../d0/dfe/class_syntax_analyzer.html#a5770afdc4d32d2c38550f27f9ffd949a" target="_top" xlink:title=" ">
<polygon fill="none" stroke="black" points="944,-517.88 944,-536.88 1115,-536.88 1115,-517.88 944,-517.88"/>
<text text-anchor="middle" x="1029.5" y="-524.88" font-family="Helvetica,sans-Serif" font-size="10.00">SyntaxAnalyzer::syntaxCompoundSt</text>
</a>
</g>
</g>
<!-- Node2&#45;&gt;Node9 -->
<g id="edge45" class="edge">
<title>Node2&#45;&gt;Node9</title>
<path fill="none" stroke="midnightblue" d="M3194.24,-511.79C3193.1,-510.73 3192.01,-509.59 3191,-508.38 3141.18,-448.99 3211.17,-214.82 3155,-161.38 3112.92,-121.35 2952.08,-147.38 2894,-147.38 2894,-147.38 2894,-147.38 1777,-147.38 1440.34,-147.38 1102.11,-458.13 1040.45,-517.61"/>
<polygon fill="midnightblue" stroke="midnightblue" points="3192.43,-514.8 3202.58,-517.85 3196.55,-509.14 3192.43,-514.8"/>
</g>
<!-- Node10 -->
<g id="node10" class="node">
<title>Node10</title>
<g id="a_node10"><a xlink:href="../../d0/dfe/class_syntax_analyzer.html#a2b54bac50e114b68e83c80d869b6ac7c" target="_top" xlink:title=" ">
<polygon fill="none" stroke="black" points="768,-517.88 768,-536.88 908,-536.88 908,-517.88 768,-517.88"/>
<text text-anchor="middle" x="838" y="-524.88" font-family="Helvetica,sans-Serif" font-size="10.00">SyntaxAnalyzer::syntaxBlock</text>
</a>
</g>
</g>
<!-- Node2&#45;&gt;Node10 -->
<g id="edge23" class="edge">
<title>Node2&#45;&gt;Node10</title>
<path fill="none" stroke="midnightblue" d="M3254.58,-546.99C3244.19,-613.89 3206.89,-831.4 3155,-875.38 3065.85,-950.96 3010.87,-907.38 2894,-907.38 2894,-907.38 2894,-907.38 1224.5,-907.38 1144.89,-907.38 981.77,-822.63 944,-782.38 872.24,-705.93 846.42,-573.67 840.45,-537.03"/>
<polygon fill="midnightblue" stroke="midnightblue" points="3258.06,-547.37 3256.11,-536.96 3251.14,-546.32 3258.06,-547.37"/>
</g>
<!-- Node11 -->
<g id="node11" class="node">
<title>Node11</title>
<g id="a_node11"><a xlink:href="../../d0/dfe/class_syntax_analyzer.html#ae04232a95c6423677e600927c82851e4" target="_top" xlink:title=" ">
<polygon fill="none" stroke="black" points="580,-127.88 580,-146.88 732,-146.88 732,-127.88 580,-127.88"/>
<text text-anchor="middle" x="656" y="-134.88" font-family="Helvetica,sans-Serif" font-size="10.00">SyntaxAnalyzer::syntaxFuncDef</text>
</a>
</g>
</g>
<!-- Node2&#45;&gt;Node11 -->
<g id="edge52" class="edge">
<title>Node2&#45;&gt;Node11</title>
<path fill="none" stroke="midnightblue" d="M3194.12,-511.75C3193.02,-510.7 3191.97,-509.58 3191,-508.38 3125.3,-427.94 3228.61,-115.66 3155,-42.38 3072.58,39.67 3010.31,-23.38 2894,-23.38 2894,-23.38 2894,-23.38 1028.5,-23.38 909.98,-23.38 879.54,-40.31 768,-80.38 732.32,-93.2 693.55,-115.13 672.59,-127.73"/>
<polygon fill="midnightblue" stroke="midnightblue" points="3192.05,-514.58 3202.16,-517.76 3196.24,-508.97 3192.05,-514.58"/>
</g>
<!-- Node12 -->
<g id="node12" class="node">
<title>Node12</title>
<g id="a_node12"><a xlink:href="../../d0/dfe/class_syntax_analyzer.html#a8b337bd5b4a90cd5bd804a936e408e4b" target="_top" xlink:title=" ">
<polygon fill="none" stroke="black" points="392,-517.88 392,-536.88 544,-536.88 544,-517.88 392,-517.88"/>
<text text-anchor="middle" x="468" y="-524.88" font-family="Helvetica,sans-Serif" font-size="10.00">SyntaxAnalyzer::syntaxProgram</text>
</a>
</g>
</g>
<!-- Node2&#45;&gt;Node12 -->
<g id="edge55" class="edge">
<title>Node2&#45;&gt;Node12</title>
<path fill="none" stroke="midnightblue" d="M3255.11,-547.13C3246.07,-618.55 3211.52,-861.84 3155,-911.38 3067.03,-988.5 3010.98,-945.38 2894,-945.38 2894,-945.38 2894,-945.38 837,-945.38 611.72,-945.38 491.67,-599.12 471.92,-536.9"/>
<polygon fill="midnightblue" stroke="midnightblue" points="3258.59,-547.55 3256.35,-537.2 3251.64,-546.69 3258.59,-547.55"/>
</g>
<!-- Node17 -->
<g id="node17" class="node">
<title>Node17</title>
<g id="a_node17"><a xlink:href="../../d0/dfe/class_syntax_analyzer.html#a64dad7f0b22b08d182483469d3a1aa79" target="_top" xlink:title=" ">
<polygon fill="none" stroke="black" points="1151,-631.88 1151,-650.88 1300,-650.88 1300,-631.88 1151,-631.88"/>
<text text-anchor="middle" x="1225.5" y="-638.88" font-family="Helvetica,sans-Serif" font-size="10.00">SyntaxAnalyzer::syntaxWhileSt</text>
</a>
</g>
</g>
<!-- Node2&#45;&gt;Node17 -->
<g id="edge72" class="edge">
<title>Node2&#45;&gt;Node17</title>
<path fill="none" stroke="midnightblue" d="M3254.94,-547.08C3247.97,-591.95 3224.31,-701.97 3155,-754.38 3061.45,-825.13 3011.29,-793.38 2894,-793.38 2894,-793.38 2894,-793.38 1963.5,-793.38 1680.13,-793.38 1609.84,-753.28 1336,-680.38 1305.77,-672.34 1272.01,-659.74 1250.07,-651.05"/>
<polygon fill="midnightblue" stroke="midnightblue" points="3258.4,-547.54 3256.36,-537.15 3251.48,-546.55 3258.4,-547.54"/>
</g>
<!-- Node18 -->
<g id="node18" class="node">
<title>Node18</title>
<g id="a_node18"><a xlink:href="../../d0/dfe/class_syntax_analyzer.html#a2db43946bee3e973ce1cf293b262e271" target="_top" xlink:title=" ">
<polygon fill="none" stroke="black" points="3009.5,-517.88 3009.5,-536.88 3150.5,-536.88 3150.5,-517.88 3009.5,-517.88"/>
<text text-anchor="middle" x="3080" y="-524.88" font-family="Helvetica,sans-Serif" font-size="10.00">SyntaxAnalyzer::syntaxCallSt</text>
</a>
</g>
</g>
<!-- Node2&#45;&gt;Node18 -->
<g id="edge24" class="edge">
<title>Node2&#45;&gt;Node18</title>
<path fill="none" stroke="midnightblue" d="M3188.42,-527.38C3175.97,-527.38 3162.99,-527.38 3150.53,-527.38"/>
<polygon fill="midnightblue" stroke="midnightblue" points="3188.73,-530.88 3198.73,-527.38 3188.73,-523.88 3188.73,-530.88"/>
</g>
<!-- Node19 -->
<g id="node19" class="node">
<title>Node19</title>
<g id="a_node19"><a xlink:href="../../d0/dfe/class_syntax_analyzer.html#a3af9b5161a2cef6fdd26b0bb60334ac4" target="_top" xlink:title=" ">
<polygon fill="none" stroke="black" points="2821.5,-461.88 2821.5,-480.88 2964.5,-480.88 2964.5,-461.88 2821.5,-461.88"/>
<text text-anchor="middle" x="2893" y="-468.88" font-family="Helvetica,sans-Serif" font-size="10.00">SyntaxAnalyzer::syntaxFactor</text>
</a>
</g>
</g>
<!-- Node2&#45;&gt;Node19 -->
<g id="edge50" class="edge">
<title>Node2&#45;&gt;Node19</title>
<path fill="none" stroke="midnightblue" d="M3198.42,-515.99C3184.22,-513.37 3169.09,-510.69 3155,-508.38 3090.75,-497.88 3017.32,-487.63 2964.74,-480.59"/>
<polygon fill="midnightblue" stroke="midnightblue" points="3198.09,-519.49 3208.57,-517.88 3199.37,-512.61 3198.09,-519.49"/>
</g>
<!-- Node20 -->
<g id="node20" class="node">
<title>Node20</title>
<g id="a_node20"><a xlink:href="../../d0/dfe/class_syntax_analyzer.html#a1e9b913cc8c2861927d7c05d10f1822d" target="_top" xlink:title=" ">
<polygon fill="none" stroke="black" points="2644,-669.88 2644,-688.88 2781,-688.88 2781,-669.88 2644,-669.88"/>
<text text-anchor="middle" x="2712.5" y="-676.88" font-family="Helvetica,sans-Serif" font-size="10.00">SyntaxAnalyzer::syntaxTerm</text>
</a>
</g>
</g>
<!-- Node2&#45;&gt;Node20 -->
<g id="edge59" class="edge">
<title>Node2&#45;&gt;Node20</title>
<path fill="none" stroke="midnightblue" d="M3248.86,-546.25C3234.25,-575.62 3201.65,-631.39 3155,-655.38 3025.81,-721.82 2846.35,-703.14 2761.54,-688.89"/>
<polygon fill="midnightblue" stroke="midnightblue" points="3252.1,-547.59 3253.27,-537.06 3245.79,-544.56 3252.1,-547.59"/>
</g>
<!-- Node21 -->
<g id="node21" class="node">
<title>Node21</title>
<g id="a_node21"><a xlink:href="../../d0/dfe/class_syntax_analyzer.html#a3dfb6634a4bcdc61da5b1bafd1f3d136" target="_top" xlink:title=" ">
<polygon fill="none" stroke="black" points="2444,-669.88 2444,-688.88 2608,-688.88 2608,-669.88 2444,-669.88"/>
<text text-anchor="middle" x="2526" y="-676.88" font-family="Helvetica,sans-Serif" font-size="10.00">SyntaxAnalyzer::syntaxSimpleExpr</text>
</a>
</g>
</g>
<!-- Node2&#45;&gt;Node21 -->
<g id="edge58" class="edge">
<title>Node2&#45;&gt;Node21</title>
<path fill="none" stroke="midnightblue" d="M3251.83,-546.6C3240.23,-582.11 3210.1,-657.39 3155,-690.38 3057.57,-748.74 2757.06,-709.15 2644,-698.38 2621.77,-696.27 2597.37,-692.53 2576.63,-688.93"/>
<polygon fill="midnightblue" stroke="midnightblue" points="3255.21,-547.54 3254.85,-536.95 3248.52,-545.45 3255.21,-547.54"/>
</g>
<!-- Node22 -->
<g id="node22" class="node">
<title>Node22</title>
<g id="a_node22"><a xlink:href="../../d0/dfe/class_syntax_analyzer.html#ae8d09db1b25ec882248aeed978c13a4d" target="_top" xlink:title=" ">
<polygon fill="none" stroke="black" points="2274,-669.88 2274,-688.88 2408,-688.88 2408,-669.88 2274,-669.88"/>
<text text-anchor="middle" x="2341" y="-676.88" font-family="Helvetica,sans-Serif" font-size="10.00">SyntaxAnalyzer::syntaxExpr</text>
</a>
</g>
</g>
<!-- Node2&#45;&gt;Node22 -->
<g id="edge49" class="edge">
<title>Node2&#45;&gt;Node22</title>
<path fill="none" stroke="midnightblue" d="M3253.34,-546.78C3243.71,-586.5 3215.92,-676.92 3155,-719.38 3058.94,-786.35 3011.1,-755.38 2894,-755.38 2894,-755.38 2894,-755.38 2711.5,-755.38 2581.17,-755.38 2430.19,-709.46 2369.41,-689.01"/>
<polygon fill="midnightblue" stroke="midnightblue" points="3256.76,-547.54 3255.58,-537.01 3249.93,-545.97 3256.76,-547.54"/>
</g>
<!-- Node23 -->
<g id="node23" class="node">
<title>Node23</title>
<g id="a_node23"><a xlink:href="../../d0/dfe/class_syntax_analyzer.html#adad79b2219ae143b49203a836713bec9" target="_top" xlink:title=" ">
<polygon fill="none" stroke="black" points="2078,-821.88 2078,-840.88 2238,-840.88 2238,-821.88 2078,-821.88"/>
<text text-anchor="middle" x="2158" y="-828.88" font-family="Helvetica,sans-Serif" font-size="10.00">SyntaxAnalyzer::syntaxConstDecl</text>
</a>
</g>
</g>
<!-- Node2&#45;&gt;Node23 -->
<g id="edge46" class="edge">
<title>Node2&#45;&gt;Node23</title>
<path fill="none" stroke="midnightblue" d="M3257,-547.16C3254.51,-599.5 3239.87,-742.09 3155,-807.38 3062.67,-878.42 3010.49,-831.38 2894,-831.38 2894,-831.38 2894,-831.38 2525,-831.38 2426.19,-831.38 2312.38,-831.38 2238.25,-831.38"/>
<polygon fill="midnightblue" stroke="midnightblue" points="3260.51,-547.03 3257.38,-536.91 3253.51,-546.77 3260.51,-547.03"/>
</g>
<!-- Node25 -->
<g id="node25" class="node">
<title>Node25</title>
<g id="a_node25"><a xlink:href="../../d0/dfe/class_syntax_analyzer.html#a55e935b2aa7f20b66e9228e977582fcd" target="_top" xlink:title=" ">
<polygon fill="none" stroke="black" points="2081.5,-631.88 2081.5,-650.88 2234.5,-650.88 2234.5,-631.88 2081.5,-631.88"/>
<text text-anchor="middle" x="2158" y="-638.88" font-family="Helvetica,sans-Serif" font-size="10.00">SyntaxAnalyzer::syntaxReturnSt</text>
</a>
</g>
</g>
<!-- Node2&#45;&gt;Node25 -->
<g id="edge56" class="edge">
<title>Node2&#45;&gt;Node25</title>
<path fill="none" stroke="midnightblue" d="M3243.53,-545.13C3225.59,-566.45 3192.29,-601.35 3155,-617.38 3047.99,-663.4 3010.49,-641.38 2894,-641.38 2894,-641.38 2894,-641.38 2525,-641.38 2424.6,-641.38 2308.72,-641.38 2234.7,-641.38"/>
<polygon fill="midnightblue" stroke="midnightblue" points="3246.41,-547.13 3250.04,-537.17 3241,-542.69 3246.41,-547.13"/>
</g>
<!-- Node26 -->
<g id="node26" class="node">
<title>Node26</title>
<g id="a_node26"><a xlink:href="../../d0/dfe/class_syntax_analyzer.html#a1264dcb50cb09c564a36125c21043298" target="_top" xlink:title=" ">
<polygon fill="none" stroke="black" points="2086.5,-403.88 2086.5,-422.88 2229.5,-422.88 2229.5,-403.88 2086.5,-403.88"/>
<text text-anchor="middle" x="2158" y="-410.88" font-family="Helvetica,sans-Serif" font-size="10.00">SyntaxAnalyzer::syntaxSelect</text>
</a>
</g>
</g>
<!-- Node2&#45;&gt;Node26 -->
<g id="edge57" class="edge">
<title>Node2&#45;&gt;Node26</title>
<path fill="none" stroke="midnightblue" d="M3195.72,-512.42C3194.06,-511.18 3192.48,-509.84 3191,-508.38 3151.88,-469.96 3193,-429.91 3155,-390.38 3069.86,-301.82 3016.85,-299.38 2894,-299.38 2894,-299.38 2894,-299.38 2711.5,-299.38 2505.33,-299.38 2264.66,-376.46 2185.62,-403.86"/>
<polygon fill="midnightblue" stroke="midnightblue" points="3194.26,-515.63 3204.62,-517.82 3197.89,-509.64 3194.26,-515.63"/>
</g>
<!-- Node27 -->
<g id="node27" class="node">
<title>Node27</title>
<g id="a_node27"><a xlink:href="../../d0/dfe/class_syntax_analyzer.html#a67bc7e3cfb57c9d4d25d60913aef3a87" target="_top" xlink:title=" ">
<polygon fill="none" stroke="black" points="2817,-175.88 2817,-194.88 2969,-194.88 2969,-175.88 2817,-175.88"/>
<text text-anchor="middle" x="2893" y="-182.88" font-family="Helvetica,sans-Serif" font-size="10.00">SyntaxAnalyzer::syntaxEmptySt</text>
</a>
</g>
</g>
<!-- Node2&#45;&gt;Node27 -->
<g id="edge47" class="edge">
<title>Node2&#45;&gt;Node27</title>
<path fill="none" stroke="midnightblue" d="M3194.27,-511.77C3193.12,-510.71 3192.02,-509.58 3191,-508.38 3104.14,-406.54 3250.97,-302.69 3155,-209.38 3095.46,-151.5 2988.17,-163.95 2931.47,-175.87"/>
<polygon fill="midnightblue" stroke="midnightblue" points="3192.48,-514.79 3202.64,-517.79 3196.57,-509.11 3192.48,-514.79"/>
</g>
<!-- Node28 -->
<g id="node28" class="node">
<title>Node28</title>
<g id="a_node28"><a xlink:href="../../d0/dfe/class_syntax_analyzer.html#a5d262eb9e2236dde3bd043eea0b0e957" target="_top" xlink:title=" ">
<polygon fill="none" stroke="black" points="1336,-99.88 1336,-118.88 1494,-118.88 1494,-99.88 1336,-99.88"/>
<text text-anchor="middle" x="1415" y="-106.88" font-family="Helvetica,sans-Serif" font-size="10.00">SyntaxAnalyzer::syntaxTypeSpec</text>
</a>
</g>
</g>
<!-- Node2&#45;&gt;Node28 -->
<g id="edge60" class="edge">
<title>Node2&#45;&gt;Node28</title>
<path fill="none" stroke="midnightblue" d="M3194.23,-511.8C3193.09,-510.73 3192.01,-509.6 3191,-508.38 3137.45,-444.04 3214.32,-192.46 3155,-133.38 3072.46,-51.18 3010.49,-109.38 2894,-109.38 2894,-109.38 2894,-109.38 1777,-109.38 1679.54,-109.38 1567.29,-109.38 1494.17,-109.38"/>
<polygon fill="midnightblue" stroke="midnightblue" points="3192.41,-514.8 3202.55,-517.88 3196.54,-509.15 3192.41,-514.8"/>
</g>
<!-- Node29 -->
<g id="node29" class="node">
<title>Node29</title>
<g id="a_node29"><a xlink:href="../../d0/dfe/class_syntax_analyzer.html#a8f6dda26a96ec0e5e75bea5eed577856" target="_top" xlink:title=" ">
<polygon fill="none" stroke="black" points="1151,-75.88 1151,-94.88 1300,-94.88 1300,-75.88 1151,-75.88"/>
<text text-anchor="middle" x="1225.5" y="-82.88" font-family="Helvetica,sans-Serif" font-size="10.00">SyntaxAnalyzer::syntaxVarDecl</text>
</a>
</g>
</g>
<!-- Node2&#45;&gt;Node29 -->
<g id="edge67" class="edge">
<title>Node2&#45;&gt;Node29</title>
<path fill="none" stroke="midnightblue" d="M3194.13,-511.74C3193.02,-510.69 3191.98,-509.57 3191,-508.38 3131.04,-435.55 3222.74,-151.04 3155,-85.38 3071.58,-4.54 3010.17,-71.38 2894,-71.38 2894,-71.38 2894,-71.38 1598.5,-71.38 1494.93,-71.38 1375.26,-76.87 1300.23,-80.97"/>
<polygon fill="midnightblue" stroke="midnightblue" points="3192.08,-514.57 3202.19,-517.73 3196.26,-508.96 3192.08,-514.57"/>
</g>
<!-- Node31 -->
<g id="node31" class="node">
<title>Node31</title>
<g id="a_node31"><a xlink:href="../../d0/dfe/class_syntax_analyzer.html#a94c8a6ab5c0e53cae22edb1a840a27ce" target="_top" xlink:title=" ">
<polygon fill="none" stroke="black" points="3005,-399.88 3005,-418.88 3155,-418.88 3155,-399.88 3005,-399.88"/>
<text text-anchor="middle" x="3080" y="-406.88" font-family="Helvetica,sans-Serif" font-size="10.00">SyntaxAnalyzer::syntaxVariable</text>
</a>
</g>
</g>
<!-- Node2&#45;&gt;Node31 -->
<g id="edge68" class="edge">
<title>Node2&#45;&gt;Node31</title>
<path fill="none" stroke="midnightblue" d="M3201.56,-514.09C3197.88,-512.41 3194.32,-510.51 3191,-508.38 3170.3,-495.11 3172.83,-483.31 3155,-466.38 3135.59,-447.97 3110.46,-429.61 3095.05,-418.89"/>
<polygon fill="midnightblue" stroke="midnightblue" points="3200.33,-517.37 3210.91,-517.87 3202.95,-510.88 3200.33,-517.37"/>
</g>
<!-- Node3&#45;&gt;Node4 -->
<g id="edge3" class="edge">
<title>Node3&#45;&gt;Node4</title>
<path fill="none" stroke="midnightblue" d="M1892.69,-478.25C1875.21,-475.51 1856.65,-472.59 1839.7,-469.93"/>
<polygon fill="midnightblue" stroke="midnightblue" points="1892.41,-481.75 1902.83,-479.85 1893.5,-474.84 1892.41,-481.75"/>
</g>
<!-- Node6 -->
<g id="node6" class="node">
<title>Node6</title>
<g id="a_node6"><a xlink:href="../../d0/dfe/class_syntax_analyzer.html#a7f54bde730006b1b863290415809ab4e" target="_top" xlink:title=" ">
<polygon fill="none" stroke="black" points="1352.5,-555.88 1352.5,-574.88 1477.5,-574.88 1477.5,-555.88 1352.5,-555.88"/>
<text text-anchor="middle" x="1415" y="-562.88" font-family="Helvetica,sans-Serif" font-size="10.00">SyntaxAnalyzer::syntaxSt</text>
</a>
</g>
</g>
<!-- Node3&#45;&gt;Node6 -->
<g id="edge22" class="edge">
<title>Node3&#45;&gt;Node6</title>
<path fill="none" stroke="midnightblue" d="M1884.96,-500.29C1775.13,-515.53 1577.89,-542.91 1477.83,-556.8"/>
<polygon fill="midnightblue" stroke="midnightblue" points="1885.57,-503.74 1894.99,-498.89 1884.6,-496.8 1885.57,-503.74"/>
</g>
<!-- Node4&#45;&gt;Node5 -->
<g id="edge4" class="edge">
<title>Node4&#45;&gt;Node5</title>
<path fill="none" stroke="midnightblue" d="M1703.08,-468.34C1691.85,-469.55 1680.31,-470.79 1669.2,-471.99"/>
<polygon fill="midnightblue" stroke="midnightblue" points="1703.71,-471.79 1713.28,-467.24 1702.96,-464.83 1703.71,-471.79"/>
</g>
<!-- Node5&#45;&gt;Node6 -->
<g id="edge5" class="edge">
<title>Node5&#45;&gt;Node6</title>
<path fill="none" stroke="midnightblue" d="M1544.37,-492.96C1539.49,-495.07 1534.65,-497.24 1530,-499.38 1490.41,-517.64 1444.25,-541.55 1425.07,-555.71"/>
<polygon fill="midnightblue" stroke="midnightblue" points="1545.89,-496.12 1553.74,-489 1543.16,-489.67 1545.89,-496.12"/>
</g>
<!-- Node6&#45;&gt;Node5 -->
<g id="edge6" class="edge">
<title>Node6&#45;&gt;Node5</title>
<path fill="none" stroke="midnightblue" d="M1458.27,-551.54C1479.62,-541.58 1506.02,-528.44 1530,-517.38 1550.87,-507.76 1575.84,-497.5 1589.11,-489.11"/>
<polygon fill="midnightblue" stroke="midnightblue" points="1456.77,-548.38 1449.15,-555.74 1459.7,-554.74 1456.77,-548.38"/>
</g>
<!-- Node6&#45;&gt;Node7 -->
<g id="edge7" class="edge">
<title>Node6&#45;&gt;Node7</title>
<path fill="none" stroke="midnightblue" d="M1391.51,-581.32C1349.31,-616.42 1260.16,-698.3 1233.92,-726.78"/>
<polygon fill="midnightblue" stroke="midnightblue" points="1393.76,-584 1399.29,-574.96 1389.33,-578.58 1393.76,-584"/>
</g>
<!-- Node8 -->
<g id="node8" class="node">
<title>Node8</title>
<g id="a_node8"><a xlink:href="../../d0/dfe/class_syntax_analyzer.html#a6df61a82ef9de3c17b78be89a321a087" target="_top" xlink:title=" ">
<polygon fill="none" stroke="black" points="1155,-517.88 1155,-536.88 1296,-536.88 1296,-517.88 1155,-517.88"/>
<text text-anchor="middle" x="1225.5" y="-524.88" font-family="Helvetica,sans-Serif" font-size="10.00">SyntaxAnalyzer::syntaxStList</text>
</a>
</g>
</g>
<!-- Node6&#45;&gt;Node8 -->
<g id="edge9" class="edge">
<title>Node6&#45;&gt;Node8</title>
<path fill="none" stroke="midnightblue" d="M1356.72,-553.78C1330.05,-548.37 1298.72,-542.02 1273.47,-536.9"/>
<polygon fill="midnightblue" stroke="midnightblue" points="1356.19,-557.24 1366.69,-555.8 1357.58,-550.38 1356.19,-557.24"/>
</g>
<!-- Node6&#45;&gt;Node17 -->
<g id="edge20" class="edge">
<title>Node6&#45;&gt;Node17</title>
<path fill="none" stroke="midnightblue" d="M1367.32,-578.38C1325.81,-593.62 1267.68,-617.89 1240.97,-631.71"/>
<polygon fill="midnightblue" stroke="midnightblue" points="1368.74,-581.59 1376.96,-574.9 1366.36,-575 1368.74,-581.59"/>
</g>
<!-- Node7&#45;&gt;Node6 -->
<g id="edge8" class="edge">
<title>Node7&#45;&gt;Node6</title>
<path fill="none" stroke="midnightblue" d="M1249.03,-720.41C1291.28,-685.28 1380.5,-603.33 1406.65,-574.92"/>
<polygon fill="midnightblue" stroke="midnightblue" points="1246.76,-717.75 1241.24,-726.79 1251.2,-723.17 1246.76,-717.75"/>
</g>
<!-- Node8&#45;&gt;Node9 -->
<g id="edge10" class="edge">
<title>Node8&#45;&gt;Node9</title>
<path fill="none" stroke="midnightblue" d="M1144.7,-527.38C1134.97,-527.38 1125.01,-527.38 1115.21,-527.38"/>
<polygon fill="midnightblue" stroke="midnightblue" points="1144.74,-530.88 1154.74,-527.38 1144.74,-523.88 1144.74,-530.88"/>
</g>
<!-- Node9&#45;&gt;Node6 -->
<g id="edge19" class="edge">
<title>Node9&#45;&gt;Node6</title>
<path fill="none" stroke="midnightblue" d="M1094.57,-538.51C1112.77,-541.4 1132.63,-544.28 1151,-546.38 1219.79,-554.28 1299.1,-559.48 1352.49,-562.41"/>
<polygon fill="midnightblue" stroke="midnightblue" points="1095.08,-535.05 1084.65,-536.92 1093.97,-541.96 1095.08,-535.05"/>
</g>
<!-- Node9&#45;&gt;Node10 -->
<g id="edge11" class="edge">
<title>Node9&#45;&gt;Node10</title>
<path fill="none" stroke="midnightblue" d="M933.63,-527.38C925.02,-527.38 916.41,-527.38 908.08,-527.38"/>
<polygon fill="midnightblue" stroke="midnightblue" points="933.73,-530.88 943.73,-527.38 933.73,-523.88 933.73,-530.88"/>
</g>
<!-- Node10&#45;&gt;Node11 -->
<g id="edge12" class="edge">
<title>Node10&#45;&gt;Node11</title>
<path fill="none" stroke="midnightblue" d="M828.24,-508.41C796.08,-438.72 685.1,-198.28 661.46,-147.04"/>
<polygon fill="midnightblue" stroke="midnightblue" points="825.18,-510.13 832.55,-517.74 831.54,-507.2 825.18,-510.13"/>
</g>
<!-- Node10&#45;&gt;Node12 -->
<g id="edge18" class="edge">
<title>Node10&#45;&gt;Node12</title>
<path fill="none" stroke="midnightblue" d="M757.46,-527.38C694.21,-527.38 606.34,-527.38 544.24,-527.38"/>
<polygon fill="midnightblue" stroke="midnightblue" points="757.78,-530.88 767.78,-527.38 757.78,-523.88 757.78,-530.88"/>
</g>
<!-- Node11&#45;&gt;Node12 -->
<g id="edge13" class="edge">
<title>Node11&#45;&gt;Node12</title>
<path fill="none" stroke="midnightblue" d="M645.95,-156.36C612.71,-226.05 498.04,-466.49 473.6,-517.73"/>
<polygon fill="midnightblue" stroke="midnightblue" points="649.26,-157.56 650.4,-147.03 642.94,-154.54 649.26,-157.56"/>
</g>
<!-- Node13 -->
<g id="node13" class="node">
<title>Node13</title>
<g id="a_node13"><a xlink:href="../../d0/dfe/class_syntax_analyzer.html#a96cd5f6a041dae613d1c75175e26592e" target="_top" xlink:title="Синтаксический анализ токенов, переданных анализатору.">
<polygon fill="none" stroke="black" points="213,-517.88 213,-536.88 356,-536.88 356,-517.88 213,-517.88"/>
<text text-anchor="middle" x="284.5" y="-524.88" font-family="Helvetica,sans-Serif" font-size="10.00">SyntaxAnalyzer::parseTokens</text>
</a>
</g>
</g>
<!-- Node12&#45;&gt;Node13 -->
<g id="edge14" class="edge">
<title>Node12&#45;&gt;Node13</title>
<path fill="none" stroke="midnightblue" d="M381.84,-527.38C373.26,-527.38 364.61,-527.38 356.21,-527.38"/>
<polygon fill="midnightblue" stroke="midnightblue" points="381.87,-530.88 391.87,-527.38 381.87,-523.88 381.87,-530.88"/>
</g>
<!-- Node14 -->
<g id="node14" class="node">
<title>Node14</title>
<g id="a_node14"><a xlink:href="../../d1/d80/namespace_analyze.html#a1597f9f086c3276d0287917efbed14b8" target="_top" xlink:title=" ">
<polygon fill="none" stroke="black" points="74,-536.88 74,-555.88 177,-555.88 177,-536.88 74,-536.88"/>
<text text-anchor="middle" x="125.5" y="-543.88" font-family="Helvetica,sans-Serif" font-size="10.00">Analyze::analyzeFile</text>
</a>
</g>
</g>
<!-- Node13&#45;&gt;Node14 -->
<g id="edge15" class="edge">
<title>Node13&#45;&gt;Node14</title>
<path fill="none" stroke="midnightblue" d="M202.61,-537.17C193.92,-538.23 185.26,-539.27 177.08,-540.26"/>
<polygon fill="midnightblue" stroke="midnightblue" points="203.3,-540.62 212.81,-535.94 202.46,-533.67 203.3,-540.62"/>
</g>
<!-- Node16 -->
<g id="node16" class="node">
<title>Node16</title>
<g id="a_node16"><a xlink:href="../../db/df9/test_semantic_8cpp.html#a804faf7fd199a3c491020f1f2caa618b" target="_top" xlink:title="Тест семантического анализа Паскаля">
<polygon fill="none" stroke="black" points="105,-498.88 105,-517.88 146,-517.88 146,-498.88 105,-498.88"/>
<text text-anchor="middle" x="125.5" y="-505.88" font-family="Helvetica,sans-Serif" font-size="10.00">TEST</text>
</a>
</g>
</g>
<!-- Node13&#45;&gt;Node16 -->
<g id="edge17" class="edge">
<title>Node13&#45;&gt;Node16</title>
<path fill="none" stroke="midnightblue" d="M202.76,-517.61C181.6,-515.05 160.65,-512.52 146.08,-510.75"/>
<polygon fill="midnightblue" stroke="midnightblue" points="202.46,-521.1 212.81,-518.83 203.3,-514.15 202.46,-521.1"/>
</g>
<!-- Node15 -->
<g id="node15" class="node">
<title>Node15</title>
<g id="a_node15"><a xlink:href="../../d3/db4/graph_draw_8cpp.html#a3c04138a5bfe5d72780bb7e82a18e627" target="_top" xlink:title=" ">
<polygon fill="none" stroke="black" points="0,-536.88 0,-555.88 38,-555.88 38,-536.88 0,-536.88"/>
<text text-anchor="middle" x="19" y="-543.88" font-family="Helvetica,sans-Serif" font-size="10.00">main</text>
</a>
</g>
</g>
<!-- Node14&#45;&gt;Node15 -->
<g id="edge16" class="edge">
<title>Node14&#45;&gt;Node15</title>
<path fill="none" stroke="midnightblue" d="M63.7,-546.38C54.49,-546.38 45.64,-546.38 38.35,-546.38"/>
<polygon fill="midnightblue" stroke="midnightblue" points="63.78,-549.88 73.78,-546.38 63.78,-542.88 63.78,-549.88"/>
</g>
<!-- Node17&#45;&gt;Node6 -->
<g id="edge21" class="edge">
<title>Node17&#45;&gt;Node6</title>
<path fill="none" stroke="midnightblue" d="M1273.23,-628.37C1314.77,-613.12 1372.92,-588.84 1399.6,-575.03"/>
<polygon fill="midnightblue" stroke="midnightblue" points="1271.8,-625.17 1263.59,-631.86 1274.18,-631.75 1271.8,-625.17"/>
</g>
<!-- Node18&#45;&gt;Node6 -->
<g id="edge44" class="edge">
<title>Node18&#45;&gt;Node6</title>
<path fill="none" stroke="midnightblue" d="M2999.41,-532.53C2836.15,-542.91 2468.12,-565.38 2342,-565.38 2342,-565.38 2342,-565.38 1777,-565.38 1671.87,-565.38 1549.51,-565.38 1477.64,-565.38"/>
<polygon fill="midnightblue" stroke="midnightblue" points="2999.64,-536.02 3009.39,-531.89 2999.19,-529.04 2999.64,-536.02"/>
</g>
<!-- Node18&#45;&gt;Node19 -->
<g id="edge25" class="edge">
<title>Node18&#45;&gt;Node19</title>
<path fill="none" stroke="midnightblue" d="M3037.56,-514.84C3003.6,-504.56 2956.27,-490.23 2925.39,-480.89"/>
<polygon fill="midnightblue" stroke="midnightblue" points="3036.61,-518.21 3047.2,-517.76 3038.64,-511.51 3036.61,-518.21"/>
</g>
<!-- Node19&#45;&gt;Node4 -->
<g id="edge27" class="edge">
<title>Node19&#45;&gt;Node4</title>
<path fill="none" stroke="midnightblue" d="M2811.24,-464.42C2737.32,-458.65 2624.89,-451.38 2527,-451.38 2527,-451.38 2527,-451.38 2157,-451.38 2046.39,-451.38 1917.63,-455.28 1842.53,-457.95"/>
<polygon fill="midnightblue" stroke="midnightblue" points="2811.16,-467.92 2821.41,-465.22 2811.72,-460.94 2811.16,-467.92"/>
</g>
<!-- Node19&#45;&gt;Node19 -->
<g id="edge26" class="edge">
<title>Node19&#45;&gt;Node19</title>
<path fill="none" stroke="midnightblue" d="M2926.73,-489.28C2926.24,-494.93 2914.99,-499.38 2893,-499.38 2861.01,-499.38 2851.76,-489.95 2865.26,-481.14"/>
<polygon fill="midnightblue" stroke="midnightblue" points="2929.49,-487.12 2920.74,-481.14 2923.85,-491.27 2929.49,-487.12"/>
</g>
<!-- Node19&#45;&gt;Node20 -->
<g id="edge28" class="edge">
<title>Node19&#45;&gt;Node20</title>
<path fill="none" stroke="midnightblue" d="M2876.99,-488.87C2840.94,-530.89 2750.33,-636.47 2722.06,-669.41"/>
<polygon fill="midnightblue" stroke="midnightblue" points="2879.77,-491.01 2883.63,-481.14 2874.46,-486.45 2879.77,-491.01"/>
</g>
<!-- Node20&#45;&gt;Node21 -->
<g id="edge29" class="edge">
<title>Node20&#45;&gt;Node21</title>
<path fill="none" stroke="midnightblue" d="M2633.65,-679.38C2625.2,-679.38 2616.59,-679.38 2608.11,-679.38"/>
<polygon fill="midnightblue" stroke="midnightblue" points="2633.85,-682.88 2643.85,-679.38 2633.85,-675.88 2633.85,-682.88"/>
</g>
<!-- Node21&#45;&gt;Node22 -->
<g id="edge30" class="edge">
<title>Node21&#45;&gt;Node22</title>
<path fill="none" stroke="midnightblue" d="M2433.81,-679.38C2425.17,-679.38 2416.53,-679.38 2408.19,-679.38"/>
<polygon fill="midnightblue" stroke="midnightblue" points="2433.93,-682.88 2443.93,-679.38 2433.93,-675.88 2433.93,-682.88"/>
</g>
<!-- Node22&#45;&gt;Node3 -->
<g id="edge31" class="edge">
<title>Node22&#45;&gt;Node3</title>
<path fill="none" stroke="midnightblue" d="M2314.82,-664.8C2294.31,-653.04 2264.5,-636.24 2238,-622.38 2145.17,-573.84 2032,-520.4 1986.21,-499.01"/>
<polygon fill="midnightblue" stroke="midnightblue" points="2313.13,-667.87 2323.55,-669.82 2316.62,-661.8 2313.13,-667.87"/>
</g>
<!-- Node22&#45;&gt;Node7 -->
<g id="edge37" class="edge">
<title>Node22&#45;&gt;Node7</title>
<path fill="none" stroke="midnightblue" d="M2302.54,-692.18C2235.69,-713.84 2091.08,-755.38 1965.5,-755.38 1965.5,-755.38 1965.5,-755.38 1598.5,-755.38 1490.67,-755.38 1365.48,-747.32 1291.3,-741.7"/>
<polygon fill="midnightblue" stroke="midnightblue" points="2303.79,-695.45 2312.2,-689.01 2301.61,-688.8 2303.79,-695.45"/>
</g>
<!-- Node22&#45;&gt;Node17 -->
<g id="edge43" class="edge">
<title>Node22&#45;&gt;Node17</title>
<path fill="none" stroke="midnightblue" d="M2263.32,-679.38C2187.62,-679.38 2068.58,-679.38 1965.5,-679.38 1965.5,-679.38 1965.5,-679.38 1598.5,-679.38 1486.68,-679.38 1356.92,-662.18 1283.99,-650.92"/>
<polygon fill="midnightblue" stroke="midnightblue" points="2263.7,-682.88 2273.7,-679.38 2263.7,-675.88 2263.7,-682.88"/>
</g>
<!-- Node22&#45;&gt;Node18 -->
<g id="edge32" class="edge">
<title>Node22&#45;&gt;Node18</title>
<path fill="none" stroke="midnightblue" d="M2398.21,-667.79C2538.83,-638.79 2903.77,-563.52 3032.9,-536.89"/>
<polygon fill="midnightblue" stroke="midnightblue" points="2397.17,-664.43 2388.09,-669.88 2398.59,-671.29 2397.17,-664.43"/>
</g>
<!-- Node22&#45;&gt;Node19 -->
<g id="edge36" class="edge">
<title>Node22&#45;&gt;Node19</title>
<path fill="none" stroke="midnightblue" d="M2356.93,-662C2375.37,-641.63 2408.66,-608.25 2444,-589.38 2567.29,-523.58 2729.59,-492.75 2821.16,-479.72"/>
<polygon fill="midnightblue" stroke="midnightblue" points="2354.2,-659.81 2350.19,-669.61 2359.44,-664.45 2354.2,-659.81"/>
</g>
<!-- Node22&#45;&gt;Node23 -->
<g id="edge33" class="edge">
<title>Node22&#45;&gt;Node23</title>
<path fill="none" stroke="midnightblue" d="M2321.94,-695.89C2301.76,-714.19 2267.99,-744.42 2238,-769.38 2215.09,-788.46 2187.54,-809.71 2171.77,-821.73"/>
<polygon fill="midnightblue" stroke="midnightblue" points="2324.41,-698.37 2329.46,-689.05 2319.7,-693.19 2324.41,-698.37"/>
</g>
<!-- Node22&#45;&gt;Node25 -->
<g id="edge38" class="edge">
<title>Node22&#45;&gt;Node25</title>
<path fill="none" stroke="midnightblue" d="M2284.36,-667.7C2258.69,-662.31 2228.61,-656 2204.35,-650.9"/>
<polygon fill="midnightblue" stroke="midnightblue" points="2283.82,-671.17 2294.33,-669.8 2285.26,-664.32 2283.82,-671.17"/>
</g>
<!-- Node22&#45;&gt;Node26 -->
<g id="edge40" class="edge">
<title>Node22&#45;&gt;Node26</title>
<path fill="none" stroke="midnightblue" d="M2329.6,-660.9C2311.87,-629.76 2274.18,-565.18 2238,-513.38 2213.93,-478.92 2182.07,-440.53 2167.24,-423.03"/>
<polygon fill="midnightblue" stroke="midnightblue" points="2326.65,-662.8 2334.63,-669.78 2332.74,-659.35 2326.65,-662.8"/>
</g>
<!-- Node24 -->
<g id="node24" class="node">
<title>Node24</title>
<g id="a_node24"><a xlink:href="../../d0/dfe/class_syntax_analyzer.html#a58a0f927ad0a45e4ce837a98e98330aa" target="_top" xlink:title=" ">
<polygon fill="none" stroke="black" points="1705,-859.88 1705,-878.88 1851,-878.88 1851,-859.88 1705,-859.88"/>
<text text-anchor="middle" x="1778" y="-866.88" font-family="Helvetica,sans-Serif" font-size="10.00">SyntaxAnalyzer::syntaxConsts</text>
</a>
</g>
</g>
<!-- Node23&#45;&gt;Node24 -->
<g id="edge34" class="edge">
<title>Node23&#45;&gt;Node24</title>
<path fill="none" stroke="midnightblue" d="M2067.77,-840.36C2001.66,-847 1912.73,-855.94 1851.11,-862.14"/>
<polygon fill="midnightblue" stroke="midnightblue" points="2068.16,-843.83 2077.76,-839.35 2067.46,-836.87 2068.16,-843.83"/>
</g>
<!-- Node24&#45;&gt;Node10 -->
<g id="edge35" class="edge">
<title>Node24&#45;&gt;Node10</title>
<path fill="none" stroke="midnightblue" d="M1694.66,-869.38C1621.49,-869.38 1511.62,-869.38 1416,-869.38 1416,-869.38 1416,-869.38 1224.5,-869.38 1018.27,-869.38 870.89,-592.12 843.57,-536.89"/>
<polygon fill="midnightblue" stroke="midnightblue" points="1694.74,-872.88 1704.74,-869.38 1694.74,-865.88 1694.74,-872.88"/>
</g>
<!-- Node25&#45;&gt;Node6 -->
<g id="edge39" class="edge">
<title>Node25&#45;&gt;Node6</title>
<path fill="none" stroke="midnightblue" d="M2070.88,-633.52C1949.97,-622.33 1723.06,-600.78 1530,-579.38 1513.05,-577.51 1494.71,-575.32 1477.8,-573.24"/>
<polygon fill="midnightblue" stroke="midnightblue" points="2070.9,-637.03 2081.18,-634.47 2071.54,-630.06 2070.9,-637.03"/>
</g>
<!-- Node26&#45;&gt;Node3 -->
<g id="edge41" class="edge">
<title>Node26&#45;&gt;Node3</title>
<path fill="none" stroke="midnightblue" d="M2123.06,-426.86C2084.71,-442.08 2023.26,-466.46 1989.56,-479.84"/>
<polygon fill="midnightblue" stroke="midnightblue" points="2124.74,-429.95 2132.75,-423.01 2122.16,-423.45 2124.74,-429.95"/>
</g>
<!-- Node26&#45;&gt;Node19 -->
<g id="edge42" class="edge">
<title>Node26&#45;&gt;Node19</title>
<path fill="none" stroke="midnightblue" d="M2239.71,-409.89C2358.99,-406.22 2588.95,-404.83 2781,-437.38 2811.4,-442.54 2845.11,-453.68 2867.32,-461.8"/>
<polygon fill="midnightblue" stroke="midnightblue" points="2239.45,-406.4 2229.57,-410.22 2239.68,-413.4 2239.45,-406.4"/>
</g>
<!-- Node27&#45;&gt;Node6 -->
<g id="edge48" class="edge">
<title>Node27&#45;&gt;Node6</title>
<path fill="none" stroke="midnightblue" d="M2806.66,-185.38C2732.69,-185.38 2622.78,-185.38 2527,-185.38 2527,-185.38 2527,-185.38 1777,-185.38 1566.34,-185.38 1441.47,-496.13 1419.5,-555.61"/>
<polygon fill="midnightblue" stroke="midnightblue" points="2806.85,-188.88 2816.85,-185.38 2806.85,-181.88 2806.85,-188.88"/>
</g>
<!-- Node28&#45;&gt;Node11 -->
<g id="edge61" class="edge">
<title>Node28&#45;&gt;Node11</title>
<path fill="none" stroke="midnightblue" d="M1325.73,-112.65C1175.56,-118.2 872.98,-129.4 732.21,-134.6"/>
<polygon fill="midnightblue" stroke="midnightblue" points="1325.98,-116.14 1335.84,-112.28 1325.72,-109.15 1325.98,-116.14"/>
</g>
<!-- Node28&#45;&gt;Node28 -->
<g id="edge62" class="edge">
<title>Node28&#45;&gt;Node28</title>
<path fill="none" stroke="midnightblue" d="M1449.48,-127.28C1448.98,-132.93 1437.48,-137.38 1415,-137.38 1382.3,-137.38 1372.84,-127.95 1386.64,-119.14"/>
<polygon fill="midnightblue" stroke="midnightblue" points="1452.17,-125.03 1443.36,-119.14 1446.58,-129.24 1452.17,-125.03"/>
</g>
<!-- Node28&#45;&gt;Node29 -->
<g id="edge63" class="edge">
<title>Node28&#45;&gt;Node29</title>
<path fill="none" stroke="midnightblue" d="M1329.5,-98.57C1319.71,-97.32 1309.79,-96.05 1300.17,-94.81"/>
<polygon fill="midnightblue" stroke="midnightblue" points="1329.26,-102.07 1339.63,-99.86 1330.15,-95.12 1329.26,-102.07"/>
</g>
<!-- Node29&#45;&gt;Node11 -->
<g id="edge64" class="edge">
<title>Node29&#45;&gt;Node11</title>
<path fill="none" stroke="midnightblue" d="M1140.72,-81.17C1132.04,-80.85 1123.34,-80.58 1115,-80.38 1039.02,-78.65 1019.64,-72.95 944,-80.38 852.75,-89.36 747.5,-114.01 693.35,-127.78"/>
<polygon fill="midnightblue" stroke="midnightblue" points="1140.76,-84.67 1150.89,-81.56 1141.03,-77.68 1140.76,-84.67"/>
</g>
<!-- Node30 -->
<g id="node30" class="node">
<title>Node30</title>
<g id="a_node30"><a xlink:href="../../d0/dfe/class_syntax_analyzer.html#a738f9b4cb7edf93c56af1b6974caad1a" target="_top" xlink:title=" ">
<polygon fill="none" stroke="black" points="962,-89.88 962,-108.88 1097,-108.88 1097,-89.88 962,-89.88"/>
<text text-anchor="middle" x="1029.5" y="-96.88" font-family="Helvetica,sans-Serif" font-size="10.00">SyntaxAnalyzer::syntaxVars</text>
</a>
</g>
</g>
<!-- Node29&#45;&gt;Node30 -->
<g id="edge65" class="edge">
<title>Node29&#45;&gt;Node30</title>
<path fill="none" stroke="midnightblue" d="M1140.83,-91.42C1126.2,-92.48 1111.15,-93.56 1097.06,-94.58"/>
<polygon fill="midnightblue" stroke="midnightblue" points="1141.16,-94.91 1150.88,-90.7 1140.65,-87.93 1141.16,-94.91"/>
</g>
<!-- Node30&#45;&gt;Node10 -->
<g id="edge66" class="edge">
<title>Node30&#45;&gt;Node10</title>
<path fill="none" stroke="midnightblue" d="M1019.94,-118.72C986.75,-193.68 867.25,-463.58 843.23,-517.84"/>
<polygon fill="midnightblue" stroke="midnightblue" points="1023.34,-119.69 1024.19,-109.13 1016.94,-116.86 1023.34,-119.69"/>
</g>
<!-- Node31&#45;&gt;Node3 -->
<g id="edge69" class="edge">
<title>Node31&#45;&gt;Node3</title>
<path fill="none" stroke="midnightblue" d="M3044.92,-396.32C3023.48,-388.74 2995.02,-379.83 2969,-375.38 2664.53,-323.35 2581.64,-348.69 2274,-376.38 2186.87,-384.23 2158.69,-360.61 2078,-394.38 2031.55,-413.83 1989.97,-459.6 1973.27,-479.67"/>
<polygon fill="midnightblue" stroke="midnightblue" points="3043.95,-399.7 3054.55,-399.8 3046.33,-393.11 3043.95,-399.7"/>
</g>
<!-- Node31&#45;&gt;Node19 -->
<g id="edge70" class="edge">
<title>Node31&#45;&gt;Node19</title>
<path fill="none" stroke="midnightblue" d="M3040.59,-422.26C3005.43,-434.04 2954.19,-451.21 2922.53,-461.82"/>
<polygon fill="midnightblue" stroke="midnightblue" points="3042.13,-425.43 3050.5,-418.94 3039.91,-418.8 3042.13,-425.43"/>
</g>
<!-- Node31&#45;&gt;Node26 -->
<g id="edge71" class="edge">
<title>Node31&#45;&gt;Node26</title>
<path fill="none" stroke="midnightblue" d="M3005.35,-398.49C2931.66,-388.54 2814.99,-375.38 2713.5,-375.38 2713.5,-375.38 2713.5,-375.38 2525,-375.38 2414.96,-375.38 2287.3,-392.59 2215.55,-403.84"/>
<polygon fill="midnightblue" stroke="midnightblue" points="3005.07,-401.98 3015.45,-399.87 3006.02,-395.05 3005.07,-401.98"/>
</g>
</g>
</svg>
