<?xml version="1.0" encoding="UTF-8" standalone="no"?>
<!DOCTYPE svg PUBLIC "-//W3C//DTD SVG 1.1//EN"
 "http://www.w3.org/Graphics/SVG/1.1/DTD/svg11.dtd">
<!-- Generated by graphviz version 3.0.0 (20220413.0106)
 -->
<!-- Title: magic_enum::detail::value Pages: 1 -->
<svg width="1844pt" height="796pt"
 viewBox="0.00 0.00 1844.00 796.00" xmlns="http://www.w3.org/2000/svg" xmlns:xlink="http://www.w3.org/1999/xlink">
<g id="graph0" class="graph" transform="scale(1 1) rotate(0) translate(4 792)">
<title>magic_enum::detail::value</title>
<!-- Node1 -->
<g id="node1" class="node">
<title>Node1</title>
<g id="a_node1"><a xlink:title=" ">
<polygon fill="#bfbfbf" stroke="black" points="1736,-267 1736,-297 1836,-297 1836,-267 1736,-267"/>
<text text-anchor="start" x="1744" y="-285" font-family="Helvetica,sans-Serif" font-size="10.00">magic_enum::detail</text>
<text text-anchor="middle" x="1786" y="-274" font-family="Helvetica,sans-Serif" font-size="10.00">::value</text>
</a>
</g>
</g>
<!-- Node2 -->
<g id="node2" class="node">
<title>Node2</title>
<g id="a_node2"><a xlink:href="../../dc/d8f/class_node.html#a74fc31aee03a749d0c1a59260695d39c" target="_top" xlink:title="Создает узел из value и присоединяет в качестве следующего узла к вызывающему">
<polygon fill="none" stroke="black" points="1583.5,-768.5 1583.5,-787.5 1694.5,-787.5 1694.5,-768.5 1583.5,-768.5"/>
<text text-anchor="middle" x="1639" y="-775.5" font-family="Helvetica,sans-Serif" font-size="10.00">Node::connectAsNext</text>
</a>
</g>
</g>
<!-- Node1&#45;&gt;Node2 -->
<g id="edge1" class="edge">
<title>Node1&#45;&gt;Node2</title>
<path fill="none" stroke="midnightblue" d="M1783.86,-307.39C1779.37,-396.1 1760.12,-690.48 1700,-759 1696.61,-762.86 1692.45,-765.94 1687.9,-768.4"/>
<polygon fill="midnightblue" stroke="midnightblue" points="1787.36,-307.33 1784.35,-297.17 1780.37,-306.99 1787.36,-307.33"/>
</g>
<!-- Node3 -->
<g id="node3" class="node">
<title>Node3</title>
<g id="a_node3"><a xlink:href="../../dc/d8f/class_node.html#ae134cf81f361013712098991e97de25c" target="_top" xlink:title="Создает узел из value и присоединяет в качестве предыдущего узла к вызывающему">
<polygon fill="none" stroke="black" points="1583.5,-730.5 1583.5,-749.5 1694.5,-749.5 1694.5,-730.5 1583.5,-730.5"/>
<text text-anchor="middle" x="1639" y="-737.5" font-family="Helvetica,sans-Serif" font-size="10.00">Node::connectAsPrev</text>
</a>
</g>
</g>
<!-- Node1&#45;&gt;Node3 -->
<g id="edge2" class="edge">
<title>Node1&#45;&gt;Node3</title>
<path fill="none" stroke="midnightblue" d="M1783.2,-307.11C1776.79,-389.88 1752.62,-652.48 1700,-716 1694.78,-722.31 1687.65,-726.97 1680.14,-730.41"/>
<polygon fill="midnightblue" stroke="midnightblue" points="1786.69,-307.32 1783.95,-297.08 1779.71,-306.79 1786.69,-307.32"/>
</g>
<!-- Node4 -->
<g id="node4" class="node">
<title>Node4</title>
<g id="a_node4"><a xlink:href="../../dd/d3d/namespacemagic__enum_1_1detail.html#a4179723a67a48dd525fc0985356d3ccc" target="_top" xlink:title=" ">
<polygon fill="none" stroke="black" points="1218.5,-687 1218.5,-717 1318.5,-717 1318.5,-687 1218.5,-687"/>
<text text-anchor="start" x="1226.5" y="-705" font-family="Helvetica,sans-Serif" font-size="10.00">magic_enum::detail</text>
<text text-anchor="middle" x="1268.5" y="-694" font-family="Helvetica,sans-Serif" font-size="10.00">::fuse_enum</text>
</a>
</g>
</g>
<!-- Node1&#45;&gt;Node4 -->
<g id="edge3" class="edge">
<title>Node1&#45;&gt;Node4</title>
<path fill="none" stroke="midnightblue" d="M1782.38,-307.22C1774.23,-380.73 1747.05,-592.64 1700,-641 1599.19,-744.6 1408.3,-727.34 1318.52,-712.06"/>
<polygon fill="midnightblue" stroke="midnightblue" points="1785.88,-307.35 1783.48,-297.03 1778.92,-306.6 1785.88,-307.35"/>
</g>
<!-- Node7 -->
<g id="node7" class="node">
<title>Node7</title>
<g id="a_node7"><a xlink:href="../../dd/d3d/namespacemagic__enum_1_1detail.html#a61ad087c3ddc2f2a03df9e8a262d0f33" target="_top" xlink:title=" ">
<polygon fill="none" stroke="black" points="1412,-643 1412,-673 1512,-673 1512,-643 1412,-643"/>
<text text-anchor="start" x="1420" y="-661" font-family="Helvetica,sans-Serif" font-size="10.00">magic_enum::detail</text>
<text text-anchor="middle" x="1462" y="-650" font-family="Helvetica,sans-Serif" font-size="10.00">::fuse_one_enum</text>
</a>
</g>
</g>
<!-- Node1&#45;&gt;Node7 -->
<g id="edge6" class="edge">
<title>Node1&#45;&gt;Node7</title>
<path fill="none" stroke="midnightblue" d="M1781.58,-307.59C1771.95,-375.77 1742.55,-559.48 1700,-601 1649.88,-649.92 1565.51,-659.41 1512.12,-660.01"/>
<polygon fill="midnightblue" stroke="midnightblue" points="1785.1,-307.7 1783,-297.32 1778.16,-306.74 1785.1,-307.7"/>
</g>
<!-- Node8 -->
<g id="node8" class="node">
<title>Node8</title>
<g id="a_node8"><a xlink:href="../../df/d3f/_syntax_8hpp.html#ae7d62ca130413d4c96863327c1af81a4" target="_top" xlink:title="Возвращает истину, если value находится среди значений cont.">
<polygon fill="none" stroke="black" points="1623,-383.5 1623,-402.5 1655,-402.5 1655,-383.5 1623,-383.5"/>
<text text-anchor="middle" x="1639" y="-390.5" font-family="Helvetica,sans-Serif" font-size="10.00">isIn</text>
</a>
</g>
</g>
<!-- Node1&#45;&gt;Node8 -->
<g id="edge8" class="edge">
<title>Node1&#45;&gt;Node8</title>
<path fill="none" stroke="midnightblue" d="M1757.19,-303.29C1725.79,-327.33 1676.04,-365.41 1652.78,-383.22"/>
<polygon fill="midnightblue" stroke="midnightblue" points="1759.33,-306.06 1765.14,-297.2 1755.07,-300.5 1759.33,-306.06"/>
</g>
<!-- Node28 -->
<g id="node28" class="node">
<title>Node28</title>
<g id="a_node28"><a xlink:href="../../d1/d34/class_list.html#abd67e40b26c56704a82f993e073b1113" target="_top" xlink:title="Конструктор из вектора">
<polygon fill="none" stroke="black" points="1435,-269.5 1435,-288.5 1489,-288.5 1489,-269.5 1435,-269.5"/>
<text text-anchor="middle" x="1462" y="-276.5" font-family="Helvetica,sans-Serif" font-size="10.00">List::List</text>
</a>
</g>
</g>
<!-- Node1&#45;&gt;Node28 -->
<g id="edge41" class="edge">
<title>Node1&#45;&gt;Node28</title>
<path fill="none" stroke="midnightblue" d="M1725.66,-281.45C1655.07,-280.79 1540.35,-279.72 1489.13,-279.24"/>
<polygon fill="midnightblue" stroke="midnightblue" points="1725.71,-284.95 1735.74,-281.54 1725.78,-277.95 1725.71,-284.95"/>
</g>
<!-- Node29 -->
<g id="node29" class="node">
<title>Node29</title>
<g id="a_node29"><a xlink:href="../../dd/d3d/namespacemagic__enum_1_1detail.html#a1f435c2b919eb3622324d94892c8bc0b" target="_top" xlink:title=" ">
<polygon fill="none" stroke="black" points="1589,-561 1589,-591 1689,-591 1689,-561 1589,-561"/>
<text text-anchor="start" x="1597" y="-579" font-family="Helvetica,sans-Serif" font-size="10.00">magic_enum::detail</text>
<text text-anchor="middle" x="1639" y="-568" font-family="Helvetica,sans-Serif" font-size="10.00">::log2</text>
</a>
</g>
</g>
<!-- Node1&#45;&gt;Node29 -->
<g id="edge42" class="edge">
<title>Node1&#45;&gt;Node29</title>
<path fill="none" stroke="midnightblue" d="M1772.82,-306.69C1743.78,-365.58 1671.1,-512.94 1647.52,-560.76"/>
<polygon fill="midnightblue" stroke="midnightblue" points="1776.12,-307.91 1777.41,-297.39 1769.85,-304.81 1776.12,-307.91"/>
</g>
<!-- Node33 -->
<g id="node33" class="node">
<title>Node33</title>
<g id="a_node33"><a xlink:href="../../dc/d8f/class_node.html#ac61530da000a6b84ec4e91b8d77a8563" target="_top" xlink:title="Конструктор из значения">
<polygon fill="none" stroke="black" points="1605,-158.5 1605,-177.5 1673,-177.5 1673,-158.5 1605,-158.5"/>
<text text-anchor="middle" x="1639" y="-165.5" font-family="Helvetica,sans-Serif" font-size="10.00">Node::Node</text>
</a>
</g>
</g>
<!-- Node1&#45;&gt;Node33 -->
<g id="edge47" class="edge">
<title>Node1&#45;&gt;Node33</title>
<path fill="none" stroke="midnightblue" d="M1767.77,-258.7C1752,-238.75 1727.06,-210.4 1700,-192 1691.28,-186.07 1680.87,-181.26 1671.2,-177.54"/>
<polygon fill="midnightblue" stroke="midnightblue" points="1765.05,-260.92 1773.94,-266.69 1770.59,-256.64 1765.05,-260.92"/>
</g>
<!-- Node34 -->
<g id="node34" class="node">
<title>Node34</title>
<g id="a_node34"><a xlink:href="../../dd/d86/structmagic__enum_1_1detail_1_1constexpr__hash__t_3_01_value_00_01std_1_1enable__if__t_3_01is__e9e2c5e2956f56ac40bc9b9bfd6fddd64.html#af454e39b460f5ba1a141e1bd7f361bca" target="_top" xlink:title=" ">
<polygon fill="none" stroke="black" points="1578,-76.5 1578,-139.5 1700,-139.5 1700,-76.5 1578,-76.5"/>
<text text-anchor="start" x="1586" y="-127.5" font-family="Helvetica,sans-Serif" font-size="10.00">magic_enum::detail</text>
<text text-anchor="start" x="1586" y="-116.5" font-family="Helvetica,sans-Serif" font-size="10.00">::constexpr_hash_t&lt;</text>
<text text-anchor="start" x="1586" y="-105.5" font-family="Helvetica,sans-Serif" font-size="10.00"> Value, std::enable_if</text>
<text text-anchor="start" x="1586" y="-94.5" font-family="Helvetica,sans-Serif" font-size="10.00">_t&lt; is_enum_v&lt; Value &gt;</text>
<text text-anchor="middle" x="1639" y="-83.5" font-family="Helvetica,sans-Serif" font-size="10.00"> &gt; &gt;::operator()</text>
</a>
</g>
</g>
<!-- Node1&#45;&gt;Node34 -->
<g id="edge48" class="edge">
<title>Node1&#45;&gt;Node34</title>
<path fill="none" stroke="midnightblue" d="M1773.18,-257.46C1758.69,-229.1 1732.08,-182.08 1700,-149 1696.84,-145.74 1693.38,-142.58 1689.77,-139.57"/>
<polygon fill="midnightblue" stroke="midnightblue" points="1770.18,-259.29 1777.79,-266.66 1776.44,-256.15 1770.18,-259.29"/>
</g>
<!-- Node35 -->
<g id="node35" class="node">
<title>Node35</title>
<g id="a_node35"><a xlink:href="../../d4/da4/class_queue.html#a5922a27c16bc172458703580f8fd3257" target="_top" xlink:title="Вставляет значение в хвост очереди">
<polygon fill="none" stroke="black" points="1426.5,-79.5 1426.5,-98.5 1497.5,-98.5 1497.5,-79.5 1426.5,-79.5"/>
<text text-anchor="middle" x="1462" y="-86.5" font-family="Helvetica,sans-Serif" font-size="10.00">Queue::push</text>
</a>
</g>
</g>
<!-- Node1&#45;&gt;Node35 -->
<g id="edge49" class="edge">
<title>Node1&#45;&gt;Node35</title>
<path fill="none" stroke="midnightblue" d="M1757.66,-260.7C1741.57,-248.94 1720.42,-234.77 1700,-225 1648.77,-200.49 1620.6,-224.56 1578,-187 1549.06,-161.48 1571.77,-132.55 1542,-108 1529.59,-97.77 1512.57,-92.88 1497.5,-90.61"/>
<polygon fill="midnightblue" stroke="midnightblue" points="1755.94,-263.78 1766.05,-266.94 1760.12,-258.16 1755.94,-263.78"/>
</g>
<!-- Node37 -->
<g id="node37" class="node">
<title>Node37</title>
<g id="a_node37"><a xlink:href="../../d0/d14/class_stack.html#afe9c04792cf96ebfd021c14e9114b42e" target="_top" xlink:title="Кладет значение на вершину стека">
<polygon fill="none" stroke="black" points="1428,-38.5 1428,-57.5 1496,-57.5 1496,-38.5 1428,-38.5"/>
<text text-anchor="middle" x="1462" y="-45.5" font-family="Helvetica,sans-Serif" font-size="10.00">Stack::push</text>
</a>
</g>
</g>
<!-- Node1&#45;&gt;Node37 -->
<g id="edge51" class="edge">
<title>Node1&#45;&gt;Node37</title>
<path fill="none" stroke="midnightblue" d="M1783.31,-256.74C1778.72,-210.49 1761.83,-112.76 1700,-67 1639.78,-22.43 1545.82,-31.51 1496.23,-40.57"/>
<polygon fill="midnightblue" stroke="midnightblue" points="1779.83,-257.16 1784.19,-266.82 1786.8,-256.55 1779.83,-257.16"/>
</g>
<!-- Node39 -->
<g id="node39" class="node">
<title>Node39</title>
<g id="a_node39"><a xlink:href="../../d1/d34/class_list.html#a0c471cf5c09edf2dcbdf1f37cac53e45" target="_top" xlink:title="Вставка в конец списка">
<polygon fill="none" stroke="black" points="1598.5,-234.5 1598.5,-253.5 1679.5,-253.5 1679.5,-234.5 1598.5,-234.5"/>
<text text-anchor="middle" x="1639" y="-241.5" font-family="Helvetica,sans-Serif" font-size="10.00">List::pushBack</text>
</a>
</g>
</g>
<!-- Node1&#45;&gt;Node39 -->
<g id="edge53" class="edge">
<title>Node1&#45;&gt;Node39</title>
<path fill="none" stroke="midnightblue" d="M1726.19,-266.59C1709.44,-262.2 1691.68,-257.54 1676.66,-253.61"/>
<polygon fill="midnightblue" stroke="midnightblue" points="1725.35,-269.99 1735.91,-269.13 1727.12,-263.21 1725.35,-269.99"/>
</g>
<!-- Node46 -->
<g id="node46" class="node">
<title>Node46</title>
<g id="a_node46"><a xlink:href="../../d1/d34/class_list.html#acb6c6809e6effc1253c26127793c6a75" target="_top" xlink:title="Вставка в начало списка">
<polygon fill="none" stroke="black" points="1598.5,-0.5 1598.5,-19.5 1679.5,-19.5 1679.5,-0.5 1598.5,-0.5"/>
<text text-anchor="middle" x="1639" y="-7.5" font-family="Helvetica,sans-Serif" font-size="10.00">List::pushFront</text>
</a>
</g>
</g>
<!-- Node1&#45;&gt;Node46 -->
<g id="edge63" class="edge">
<title>Node1&#45;&gt;Node46</title>
<path fill="none" stroke="midnightblue" d="M1783.19,-256.9C1778.34,-207.76 1760.94,-98.09 1700,-34 1694.05,-27.74 1686.25,-23.07 1678.25,-19.61"/>
<polygon fill="midnightblue" stroke="midnightblue" points="1779.71,-257.31 1784.09,-266.96 1786.68,-256.69 1779.71,-257.31"/>
</g>
<!-- Node5 -->
<g id="node5" class="node">
<title>Node5</title>
<g id="a_node5"><a xlink:href="../../dd/d3d/namespacemagic__enum_1_1detail.html#ac517a7398df2a04d6b2a7bc0e83b54e2" target="_top" xlink:title=" ">
<polygon fill="none" stroke="black" points="1033.5,-687 1033.5,-717 1133.5,-717 1133.5,-687 1033.5,-687"/>
<text text-anchor="start" x="1041.5" y="-705" font-family="Helvetica,sans-Serif" font-size="10.00">magic_enum::detail</text>
<text text-anchor="middle" x="1083.5" y="-694" font-family="Helvetica,sans-Serif" font-size="10.00">::fuse_enum</text>
</a>
</g>
</g>
<!-- Node4&#45;&gt;Node5 -->
<g id="edge4" class="edge">
<title>Node4&#45;&gt;Node5</title>
<path fill="none" stroke="midnightblue" d="M1208.36,-702C1184.23,-702 1156.67,-702 1133.68,-702"/>
<polygon fill="midnightblue" stroke="midnightblue" points="1208.46,-705.5 1218.46,-702 1208.46,-698.5 1208.46,-705.5"/>
</g>
<!-- Node6 -->
<g id="node6" class="node">
<title>Node6</title>
<g id="a_node6"><a xlink:href="../../d6/da6/namespacemagic__enum_1_1ostream__operators.html#abc5726104c1c1de46c91e4040b520217" target="_top" xlink:title=" ">
<polygon fill="none" stroke="black" points="1026.5,-736 1026.5,-766 1140.5,-766 1140.5,-736 1026.5,-736"/>
<text text-anchor="start" x="1034.5" y="-754" font-family="Helvetica,sans-Serif" font-size="10.00">magic_enum::ostream</text>
<text text-anchor="middle" x="1083.5" y="-743" font-family="Helvetica,sans-Serif" font-size="10.00">_operators::operator&lt;&lt;</text>
</a>
</g>
</g>
<!-- Node4&#45;&gt;Node6 -->
<g id="edge5" class="edge">
<title>Node4&#45;&gt;Node6</title>
<path fill="none" stroke="midnightblue" d="M1208.68,-717.75C1186.93,-723.57 1162.33,-730.16 1140.8,-735.92"/>
<polygon fill="midnightblue" stroke="midnightblue" points="1209.7,-721.1 1218.46,-715.13 1207.89,-714.34 1209.7,-721.1"/>
</g>
<!-- Node7&#45;&gt;Node4 -->
<g id="edge7" class="edge">
<title>Node7&#45;&gt;Node4</title>
<path fill="none" stroke="midnightblue" d="M1401.71,-671.62C1375.06,-677.75 1343.98,-684.89 1318.65,-690.71"/>
<polygon fill="midnightblue" stroke="midnightblue" points="1402.72,-674.98 1411.68,-669.33 1401.15,-668.16 1402.72,-674.98"/>
</g>
<!-- Node9 -->
<g id="node9" class="node">
<title>Node9</title>
<g id="a_node9"><a xlink:href="../../df/d0a/main_8cpp.html#af50a7ab232af26f0f371f58cd3b3441f" target="_top" xlink:title=" ">
<polygon fill="none" stroke="black" points="487.5,-288.5 487.5,-307.5 540.5,-307.5 540.5,-288.5 487.5,-288.5"/>
<text text-anchor="middle" x="514" y="-295.5" font-family="Helvetica,sans-Serif" font-size="10.00">highlight</text>
</a>
</g>
</g>
<!-- Node8&#45;&gt;Node9 -->
<g id="edge9" class="edge">
<title>Node8&#45;&gt;Node9</title>
<path fill="none" stroke="midnightblue" d="M1613.69,-380.67C1594.67,-371.57 1567.28,-359.65 1542,-353 1343.94,-300.9 1289.3,-298 1084.5,-298 1084.5,-298 1084.5,-298 900.5,-298 764.97,-298 602.64,-298 540.72,-298"/>
<polygon fill="midnightblue" stroke="midnightblue" points="1612.31,-383.89 1622.83,-385.13 1615.38,-377.6 1612.31,-383.89"/>
</g>
<!-- Node11 -->
<g id="node11" class="node">
<title>Node11</title>
<g id="a_node11"><a xlink:href="../../d0/dfe/class_syntax_analyzer.html#a3fd39f49d75b604d41e41f86b22cdca3" target="_top" xlink:title=" ">
<polygon fill="none" stroke="black" points="1382,-478.5 1382,-497.5 1542,-497.5 1542,-478.5 1382,-478.5"/>
<text text-anchor="middle" x="1462" y="-485.5" font-family="Helvetica,sans-Serif" font-size="10.00">SyntaxAnalyzer::syntaxConstDecl</text>
</a>
</g>
</g>
<!-- Node8&#45;&gt;Node11 -->
<g id="edge11" class="edge">
<title>Node8&#45;&gt;Node11</title>
<path fill="none" stroke="midnightblue" d="M1619.98,-409.31C1601.56,-425.22 1571.55,-449.14 1542,-464 1530.09,-469.99 1516.41,-474.79 1503.81,-478.48"/>
<polygon fill="midnightblue" stroke="midnightblue" points="1622.38,-411.86 1627.58,-402.62 1617.76,-406.6 1622.38,-411.86"/>
</g>
<!-- Node17 -->
<g id="node17" class="node">
<title>Node17</title>
<g id="a_node17"><a xlink:href="../../d0/dfe/class_syntax_analyzer.html#a53b0048490647d82a92a77ed1ffb013d" target="_top" xlink:title=" ">
<polygon fill="none" stroke="black" points="1395,-402.5 1395,-421.5 1529,-421.5 1529,-402.5 1395,-402.5"/>
<text text-anchor="middle" x="1462" y="-409.5" font-family="Helvetica,sans-Serif" font-size="10.00">SyntaxAnalyzer::syntaxExpr</text>
</a>
</g>
</g>
<!-- Node8&#45;&gt;Node17 -->
<g id="edge18" class="edge">
<title>Node8&#45;&gt;Node17</title>
<path fill="none" stroke="midnightblue" d="M1612.71,-395.75C1590.93,-398.11 1558.49,-401.63 1529.36,-404.79"/>
<polygon fill="midnightblue" stroke="midnightblue" points="1613.21,-399.21 1622.78,-394.65 1612.46,-392.25 1613.21,-399.21"/>
</g>
<!-- Node26 -->
<g id="node26" class="node">
<title>Node26</title>
<g id="a_node26"><a xlink:href="../../d0/dfe/class_syntax_analyzer.html#a7721cf7d36d549f81fd05c40dba02f67" target="_top" xlink:title=" ">
<polygon fill="none" stroke="black" points="833,-610.5 833,-629.5 970,-629.5 970,-610.5 833,-610.5"/>
<text text-anchor="middle" x="901.5" y="-617.5" font-family="Helvetica,sans-Serif" font-size="10.00">SyntaxAnalyzer::syntaxTerm</text>
</a>
</g>
</g>
<!-- Node8&#45;&gt;Node26 -->
<g id="edge40" class="edge">
<title>Node8&#45;&gt;Node26</title>
<path fill="none" stroke="midnightblue" d="M1613.73,-403.73C1594.53,-411.94 1566.9,-423.16 1542,-431 1472.29,-452.95 1436.35,-420.13 1382,-469 1346.25,-501.14 1382.89,-540.17 1346,-571 1280.01,-626.15 1240.42,-592.04 1155,-602 1092.58,-609.28 1021.11,-614.04 970.17,-616.83"/>
<polygon fill="midnightblue" stroke="midnightblue" points="1615.16,-406.93 1622.95,-399.74 1612.38,-400.5 1615.16,-406.93"/>
</g>
<!-- Node27 -->
<g id="node27" class="node">
<title>Node27</title>
<g id="a_node27"><a xlink:href="../../d0/dfe/class_syntax_analyzer.html#a920d9565d4aa2e3815ff9e7146f45a0b" target="_top" xlink:title=" ">
<polygon fill="none" stroke="black" points="623.5,-572.5 623.5,-591.5 787.5,-591.5 787.5,-572.5 623.5,-572.5"/>
<text text-anchor="middle" x="705.5" y="-579.5" font-family="Helvetica,sans-Serif" font-size="10.00">SyntaxAnalyzer::syntaxSimpleExpr</text>
</a>
</g>
</g>
<!-- Node8&#45;&gt;Node27 -->
<g id="edge39" class="edge">
<title>Node8&#45;&gt;Node27</title>
<path fill="none" stroke="midnightblue" d="M1612.89,-388.62C1562.49,-380.07 1445.33,-361.44 1346,-355 1115.2,-340.05 1023.74,-271.4 827,-393 755.83,-436.99 719.21,-540.4 709.31,-572.39"/>
<polygon fill="midnightblue" stroke="midnightblue" points="1612.42,-392.09 1622.87,-390.33 1613.6,-385.19 1612.42,-392.09"/>
</g>
<!-- Node10 -->
<g id="node10" class="node">
<title>Node10</title>
<g id="a_node10"><a xlink:href="../../df/d0a/main_8cpp.html#a3c04138a5bfe5d72780bb7e82a18e627" target="_top" xlink:title=" ">
<polygon fill="none" stroke="black" points="1.5,-288.5 1.5,-307.5 39.5,-307.5 39.5,-288.5 1.5,-288.5"/>
<text text-anchor="middle" x="20.5" y="-295.5" font-family="Helvetica,sans-Serif" font-size="10.00">main</text>
</a>
</g>
</g>
<!-- Node9&#45;&gt;Node10 -->
<g id="edge10" class="edge">
<title>Node9&#45;&gt;Node10</title>
<path fill="none" stroke="midnightblue" d="M477.02,-298C379.32,-298 111.65,-298 39.58,-298"/>
<polygon fill="midnightblue" stroke="midnightblue" points="477.27,-301.5 487.27,-298 477.27,-294.5 477.27,-301.5"/>
</g>
<!-- Node12 -->
<g id="node12" class="node">
<title>Node12</title>
<g id="a_node12"><a xlink:href="../../d0/dfe/class_syntax_analyzer.html#a9dc26002a15e26254df5a115511b872c" target="_top" xlink:title=" ">
<polygon fill="none" stroke="black" points="632.5,-629.5 632.5,-648.5 778.5,-648.5 778.5,-629.5 632.5,-629.5"/>
<text text-anchor="middle" x="705.5" y="-636.5" font-family="Helvetica,sans-Serif" font-size="10.00">SyntaxAnalyzer::syntaxConsts</text>
</a>
</g>
</g>
<!-- Node11&#45;&gt;Node12 -->
<g id="edge12" class="edge">
<title>Node11&#45;&gt;Node12</title>
<path fill="none" stroke="midnightblue" d="M1388.29,-502.81C1386.06,-504.38 1383.95,-506.1 1382,-508 1340.2,-548.55 1392.26,-598.61 1346,-634 1258.53,-700.91 922.62,-667.12 775.82,-648.52"/>
<polygon fill="midnightblue" stroke="midnightblue" points="1390.51,-505.57 1397.39,-497.51 1386.99,-499.52 1390.51,-505.57"/>
</g>
<!-- Node13 -->
<g id="node13" class="node">
<title>Node13</title>
<g id="a_node13"><a xlink:href="../../d0/dfe/class_syntax_analyzer.html#aa93b0d722276e335971360e093f19a8e" target="_top" xlink:title=" ">
<polygon fill="none" stroke="black" points="444,-392.5 444,-411.5 584,-411.5 584,-392.5 444,-392.5"/>
<text text-anchor="middle" x="514" y="-399.5" font-family="Helvetica,sans-Serif" font-size="10.00">SyntaxAnalyzer::syntaxBlock</text>
</a>
</g>
</g>
<!-- Node12&#45;&gt;Node13 -->
<g id="edge13" class="edge">
<title>Node12&#45;&gt;Node13</title>
<path fill="none" stroke="midnightblue" d="M660.58,-625.68C646.41,-619.81 631.43,-611.74 620,-601 559.06,-543.78 526.63,-443.16 517.63,-411.69"/>
<polygon fill="midnightblue" stroke="midnightblue" points="659.62,-629.06 670.21,-629.41 662.15,-622.53 659.62,-629.06"/>
</g>
<!-- Node14 -->
<g id="node14" class="node">
<title>Node14</title>
<g id="a_node14"><a xlink:href="../../d0/dfe/class_syntax_analyzer.html#aeb59cd0062ff3238bcf625c7e20fc5ec" target="_top" xlink:title=" ">
<polygon fill="none" stroke="black" points="256,-383.5 256,-402.5 408,-402.5 408,-383.5 256,-383.5"/>
<text text-anchor="middle" x="332" y="-390.5" font-family="Helvetica,sans-Serif" font-size="10.00">SyntaxAnalyzer::syntaxProgram</text>
</a>
</g>
</g>
<!-- Node13&#45;&gt;Node14 -->
<g id="edge14" class="edge">
<title>Node13&#45;&gt;Node14</title>
<path fill="none" stroke="midnightblue" d="M433.67,-398.03C425.2,-397.61 416.6,-397.18 408.18,-396.76"/>
<polygon fill="midnightblue" stroke="midnightblue" points="433.76,-401.54 443.92,-398.55 434.11,-394.55 433.76,-401.54"/>
</g>
<!-- Node15 -->
<g id="node15" class="node">
<title>Node15</title>
<g id="a_node15"><a xlink:href="../../d0/dfe/class_syntax_analyzer.html#a0472b9d7f2855f118acf9cb7c67ab5a7" target="_top" xlink:title=" ">
<polygon fill="none" stroke="black" points="77,-364.5 77,-383.5 220,-383.5 220,-364.5 77,-364.5"/>
<text text-anchor="middle" x="148.5" y="-371.5" font-family="Helvetica,sans-Serif" font-size="10.00">SyntaxAnalyzer::parseTokens</text>
</a>
</g>
</g>
<!-- Node14&#45;&gt;Node15 -->
<g id="edge15" class="edge">
<title>Node14&#45;&gt;Node15</title>
<path fill="none" stroke="midnightblue" d="M245.84,-384.09C237.26,-383.19 228.61,-382.28 220.21,-381.4"/>
<polygon fill="midnightblue" stroke="midnightblue" points="245.56,-387.57 255.87,-385.13 246.29,-380.61 245.56,-387.57"/>
</g>
<!-- Node15&#45;&gt;Node10 -->
<g id="edge16" class="edge">
<title>Node15&#45;&gt;Node10</title>
<path fill="none" stroke="midnightblue" d="M122.87,-359.14C97.54,-343.87 58.85,-320.53 37.33,-307.55"/>
<polygon fill="midnightblue" stroke="midnightblue" points="121.17,-362.21 131.54,-364.37 124.79,-356.21 121.17,-362.21"/>
</g>
<!-- Node16 -->
<g id="node16" class="node">
<title>Node16</title>
<g id="a_node16"><a xlink:href="../../dd/de9/test_syntax_8cpp.html#ac491df98e51a6bba8b808af414b6614f" target="_top" xlink:title="Тест синтаксического анализа Паскаля, простой тест">
<polygon fill="none" stroke="black" points="0,-364.5 0,-383.5 41,-383.5 41,-364.5 0,-364.5"/>
<text text-anchor="middle" x="20.5" y="-371.5" font-family="Helvetica,sans-Serif" font-size="10.00">TEST</text>
</a>
</g>
</g>
<!-- Node15&#45;&gt;Node16 -->
<g id="edge17" class="edge">
<title>Node15&#45;&gt;Node16</title>
<path fill="none" stroke="midnightblue" d="M66.74,-374C57.29,-374 48.42,-374 41.08,-374"/>
<polygon fill="midnightblue" stroke="midnightblue" points="66.77,-377.5 76.77,-374 66.77,-370.5 66.77,-377.5"/>
</g>
<!-- Node18 -->
<g id="node18" class="node">
<title>Node18</title>
<g id="a_node18"><a xlink:href="../../d0/dfe/class_syntax_analyzer.html#ae57b60364b17a4772143fe9a6c3bc2c7" target="_top" xlink:title=" ">
<polygon fill="none" stroke="black" points="1191,-364.5 1191,-383.5 1346,-383.5 1346,-364.5 1191,-364.5"/>
<text text-anchor="middle" x="1268.5" y="-371.5" font-family="Helvetica,sans-Serif" font-size="10.00">SyntaxAnalyzer::syntaxAssignSt</text>
</a>
</g>
</g>
<!-- Node17&#45;&gt;Node18 -->
<g id="edge19" class="edge">
<title>Node17&#45;&gt;Node18</title>
<path fill="none" stroke="midnightblue" d="M1402.85,-400.46C1375.54,-395.04 1343.37,-388.66 1317.48,-383.52"/>
<polygon fill="midnightblue" stroke="midnightblue" points="1402.19,-403.9 1412.68,-402.41 1403.55,-397.03 1402.19,-403.9"/>
</g>
<!-- Node20 -->
<g id="node20" class="node">
<title>Node20</title>
<g id="a_node20"><a xlink:href="../../d0/dfe/class_syntax_analyzer.html#addd3ca96f66a5261f904e2e0c78a898a" target="_top" xlink:title=" ">
<polygon fill="none" stroke="black" points="836,-478.5 836,-497.5 967,-497.5 967,-478.5 836,-478.5"/>
<text text-anchor="middle" x="901.5" y="-485.5" font-family="Helvetica,sans-Serif" font-size="10.00">SyntaxAnalyzer::syntaxIfSt</text>
</a>
</g>
</g>
<!-- Node17&#45;&gt;Node20 -->
<g id="edge37" class="edge">
<title>Node17&#45;&gt;Node20</title>
<path fill="none" stroke="midnightblue" d="M1417.47,-424.58C1405.89,-428.1 1393.42,-432.05 1382,-436 1365.78,-441.61 1362.72,-446.12 1346,-450 1213.89,-480.68 1054.48,-487.15 967.29,-488.19"/>
<polygon fill="midnightblue" stroke="midnightblue" points="1418.81,-427.83 1427.38,-421.6 1416.79,-421.13 1418.81,-427.83"/>
</g>
<!-- Node23 -->
<g id="node23" class="node">
<title>Node23</title>
<g id="a_node23"><a xlink:href="../../d0/dfe/class_syntax_analyzer.html#a35bb1125afde4b827a0dd8f3bce8dc58" target="_top" xlink:title=" ">
<polygon fill="none" stroke="black" points="827,-440.5 827,-459.5 976,-459.5 976,-440.5 827,-440.5"/>
<text text-anchor="middle" x="901.5" y="-447.5" font-family="Helvetica,sans-Serif" font-size="10.00">SyntaxAnalyzer::syntaxWhileSt</text>
</a>
</g>
</g>
<!-- Node17&#45;&gt;Node23 -->
<g id="edge38" class="edge">
<title>Node17&#45;&gt;Node23</title>
<path fill="none" stroke="midnightblue" d="M1401.17,-423.29C1383.47,-426.25 1364,-429.13 1346,-431 1216.26,-444.45 1064.22,-448.42 976.07,-449.57"/>
<polygon fill="midnightblue" stroke="midnightblue" points="1402.1,-426.68 1411.36,-421.55 1400.92,-419.79 1402.1,-426.68"/>
</g>
<!-- Node24 -->
<g id="node24" class="node">
<title>Node24</title>
<g id="a_node24"><a xlink:href="../../d0/dfe/class_syntax_analyzer.html#a9321de68e44f3918a71256a3c1cd481b" target="_top" xlink:title=" ">
<polygon fill="none" stroke="black" points="1198,-402.5 1198,-421.5 1339,-421.5 1339,-402.5 1198,-402.5"/>
<text text-anchor="middle" x="1268.5" y="-409.5" font-family="Helvetica,sans-Serif" font-size="10.00">SyntaxAnalyzer::syntaxCallSt</text>
</a>
</g>
</g>
<!-- Node17&#45;&gt;Node24 -->
<g id="edge29" class="edge">
<title>Node17&#45;&gt;Node24</title>
<path fill="none" stroke="midnightblue" d="M1384.59,-412C1369.62,-412 1354,-412 1339.26,-412"/>
<polygon fill="midnightblue" stroke="midnightblue" points="1384.83,-415.5 1394.83,-412 1384.83,-408.5 1384.83,-415.5"/>
</g>
<!-- Node25 -->
<g id="node25" class="node">
<title>Node25</title>
<g id="a_node25"><a xlink:href="../../d0/dfe/class_syntax_analyzer.html#ab9b415ddd671b4884ab31cdf194f6c64" target="_top" xlink:title=" ">
<polygon fill="none" stroke="black" points="1012,-516.5 1012,-535.5 1155,-535.5 1155,-516.5 1012,-516.5"/>
<text text-anchor="middle" x="1083.5" y="-523.5" font-family="Helvetica,sans-Serif" font-size="10.00">SyntaxAnalyzer::syntaxFactor</text>
</a>
</g>
</g>
<!-- Node17&#45;&gt;Node25 -->
<g id="edge36" class="edge">
<title>Node17&#45;&gt;Node25</title>
<path fill="none" stroke="midnightblue" d="M1399.47,-425.36C1393.2,-428.24 1387.23,-431.74 1382,-436 1356.09,-457.09 1373.92,-483.65 1346,-502 1285.71,-541.63 1200.03,-541.43 1143.39,-535.51"/>
<polygon fill="midnightblue" stroke="midnightblue" points="1400.87,-428.57 1408.81,-421.57 1398.23,-422.09 1400.87,-428.57"/>
</g>
<!-- Node19 -->
<g id="node19" class="node">
<title>Node19</title>
<g id="a_node19"><a xlink:href="../../d0/dfe/class_syntax_analyzer.html#affae37bc1fa3a4016dcffad4affbfcbd" target="_top" xlink:title=" ">
<polygon fill="none" stroke="black" points="1021,-402.5 1021,-421.5 1146,-421.5 1146,-402.5 1021,-402.5"/>
<text text-anchor="middle" x="1083.5" y="-409.5" font-family="Helvetica,sans-Serif" font-size="10.00">SyntaxAnalyzer::syntaxSt</text>
</a>
</g>
</g>
<!-- Node18&#45;&gt;Node19 -->
<g id="edge20" class="edge">
<title>Node18&#45;&gt;Node19</title>
<path fill="none" stroke="midnightblue" d="M1211.25,-385.68C1185.29,-391.07 1154.88,-397.39 1130.35,-402.48"/>
<polygon fill="midnightblue" stroke="midnightblue" points="1212.24,-389.05 1221.32,-383.59 1210.82,-382.2 1212.24,-389.05"/>
</g>
<!-- Node19&#45;&gt;Node20 -->
<g id="edge21" class="edge">
<title>Node19&#45;&gt;Node20</title>
<path fill="none" stroke="midnightblue" d="M1045.81,-426.46C1025.74,-437 1000.12,-450.59 976,-460 956.36,-467.67 932.56,-473.17 917.47,-478.42"/>
<polygon fill="midnightblue" stroke="midnightblue" points="1047.65,-429.44 1054.9,-421.71 1044.41,-423.24 1047.65,-429.44"/>
</g>
<!-- Node21 -->
<g id="node21" class="node">
<title>Node21</title>
<g id="a_node21"><a xlink:href="../../d0/dfe/class_syntax_analyzer.html#a79a0e444afd499634f445f0b8919dd0f" target="_top" xlink:title=" ">
<polygon fill="none" stroke="black" points="831,-402.5 831,-421.5 972,-421.5 972,-402.5 831,-402.5"/>
<text text-anchor="middle" x="901.5" y="-409.5" font-family="Helvetica,sans-Serif" font-size="10.00">SyntaxAnalyzer::syntaxStList</text>
</a>
</g>
</g>
<!-- Node19&#45;&gt;Node21 -->
<g id="edge23" class="edge">
<title>Node19&#45;&gt;Node21</title>
<path fill="none" stroke="midnightblue" d="M1010.74,-412C998.02,-412 984.8,-412 972.15,-412"/>
<polygon fill="midnightblue" stroke="midnightblue" points="1010.81,-415.5 1020.81,-412 1010.81,-408.5 1010.81,-415.5"/>
</g>
<!-- Node19&#45;&gt;Node23 -->
<g id="edge27" class="edge">
<title>Node19&#45;&gt;Node23</title>
<path fill="none" stroke="midnightblue" d="M1010.67,-420.54C980.4,-426.51 947.26,-434.15 925.75,-440.38"/>
<polygon fill="midnightblue" stroke="midnightblue" points="1011.65,-423.91 1020.81,-418.58 1010.32,-417.04 1011.65,-423.91"/>
</g>
<!-- Node20&#45;&gt;Node19 -->
<g id="edge22" class="edge">
<title>Node20&#45;&gt;Node19</title>
<path fill="none" stroke="midnightblue" d="M976.76,-477.4C1020.67,-459.32 1059.22,-435.54 1075.05,-421.51"/>
<polygon fill="midnightblue" stroke="midnightblue" points="975.3,-474.21 967.31,-481.17 977.89,-480.71 975.3,-474.21"/>
</g>
<!-- Node22 -->
<g id="node22" class="node">
<title>Node22</title>
<g id="a_node22"><a xlink:href="../../d0/dfe/class_syntax_analyzer.html#a2c0c19bfe9775405a5b6985cf1c8854c" target="_top" xlink:title=" ">
<polygon fill="none" stroke="black" points="620,-392.5 620,-411.5 791,-411.5 791,-392.5 620,-392.5"/>
<text text-anchor="middle" x="705.5" y="-399.5" font-family="Helvetica,sans-Serif" font-size="10.00">SyntaxAnalyzer::syntaxCompoundSt</text>
</a>
</g>
</g>
<!-- Node21&#45;&gt;Node22 -->
<g id="edge24" class="edge">
<title>Node21&#45;&gt;Node22</title>
<path fill="none" stroke="midnightblue" d="M820.7,-407.89C810.97,-407.39 801.01,-406.87 791.21,-406.37"/>
<polygon fill="midnightblue" stroke="midnightblue" points="820.57,-411.38 830.74,-408.4 820.93,-404.39 820.57,-411.38"/>
</g>
<!-- Node22&#45;&gt;Node13 -->
<g id="edge25" class="edge">
<title>Node22&#45;&gt;Node13</title>
<path fill="none" stroke="midnightblue" d="M609.63,-402C601.02,-402 592.41,-402 584.08,-402"/>
<polygon fill="midnightblue" stroke="midnightblue" points="609.73,-405.5 619.73,-402 609.73,-398.5 609.73,-405.5"/>
</g>
<!-- Node22&#45;&gt;Node19 -->
<g id="edge26" class="edge">
<title>Node22&#45;&gt;Node19</title>
<path fill="none" stroke="midnightblue" d="M801.17,-393.23C852.91,-389.84 918.07,-387.87 976,-393 996.95,-394.85 1019.96,-398.72 1039.21,-402.49"/>
<polygon fill="midnightblue" stroke="midnightblue" points="800.75,-389.75 791.01,-393.92 801.22,-396.73 800.75,-389.75"/>
</g>
<!-- Node23&#45;&gt;Node19 -->
<g id="edge28" class="edge">
<title>Node23&#45;&gt;Node19</title>
<path fill="none" stroke="midnightblue" d="M986.01,-439.1C1012.9,-433.56 1040.56,-427.04 1059.34,-421.59"/>
<polygon fill="midnightblue" stroke="midnightblue" points="985.27,-435.68 976.16,-441.1 986.66,-442.54 985.27,-435.68"/>
</g>
<!-- Node24&#45;&gt;Node19 -->
<g id="edge35" class="edge">
<title>Node24&#45;&gt;Node19</title>
<path fill="none" stroke="midnightblue" d="M1187.75,-412C1173.84,-412 1159.56,-412 1146.22,-412"/>
<polygon fill="midnightblue" stroke="midnightblue" points="1187.79,-415.5 1197.79,-412 1187.79,-408.5 1187.79,-415.5"/>
</g>
<!-- Node24&#45;&gt;Node25 -->
<g id="edge30" class="edge">
<title>Node24&#45;&gt;Node25</title>
<path fill="none" stroke="midnightblue" d="M1243.29,-427.08C1205.04,-450.91 1131.7,-496.59 1099.87,-516.42"/>
<polygon fill="midnightblue" stroke="midnightblue" points="1245.58,-429.78 1252.21,-421.52 1241.87,-423.84 1245.58,-429.78"/>
</g>
<!-- Node25&#45;&gt;Node25 -->
<g id="edge31" class="edge">
<title>Node25&#45;&gt;Node25</title>
<path fill="none" stroke="midnightblue" d="M1117.61,-543.89C1117.11,-549.54 1105.74,-554 1083.5,-554 1051.15,-554 1041.8,-544.57 1055.45,-535.76"/>
<polygon fill="midnightblue" stroke="midnightblue" points="1120.33,-541.69 1111.55,-535.76 1114.72,-545.87 1120.33,-541.69"/>
</g>
<!-- Node25&#45;&gt;Node26 -->
<g id="edge32" class="edge">
<title>Node25&#45;&gt;Node26</title>
<path fill="none" stroke="midnightblue" d="M1055,-540.36C1017.81,-559.78 952.5,-593.89 920.8,-610.44"/>
<polygon fill="midnightblue" stroke="midnightblue" points="1057.01,-543.26 1064.25,-535.53 1053.77,-537.06 1057.01,-543.26"/>
</g>
<!-- Node26&#45;&gt;Node27 -->
<g id="edge33" class="edge">
<title>Node26&#45;&gt;Node27</title>
<path fill="none" stroke="midnightblue" d="M841.59,-608.46C813.92,-603.04 781.34,-596.66 755.1,-591.52"/>
<polygon fill="midnightblue" stroke="midnightblue" points="841.06,-611.92 851.55,-610.41 842.4,-605.05 841.06,-611.92"/>
</g>
<!-- Node27&#45;&gt;Node17 -->
<g id="edge34" class="edge">
<title>Node27&#45;&gt;Node17</title>
<path fill="none" stroke="midnightblue" d="M797.69,-587.51C954.05,-594.98 1264.41,-600.62 1346,-534 1381.94,-504.65 1348.27,-467.86 1382,-436 1388.67,-429.7 1396.94,-425.05 1405.6,-421.62"/>
<polygon fill="midnightblue" stroke="midnightblue" points="797.78,-584.01 787.62,-587.01 797.43,-591 797.78,-584.01"/>
</g>
<!-- Node29&#45;&gt;Node7 -->
<g id="edge45" class="edge">
<title>Node29&#45;&gt;Node7</title>
<path fill="none" stroke="midnightblue" d="M1607.37,-596.64C1588.98,-608.41 1564.8,-622.79 1542,-633 1532.55,-637.23 1522.16,-641.06 1512.12,-644.38"/>
<polygon fill="midnightblue" stroke="midnightblue" points="1609.42,-599.49 1615.9,-591.11 1605.61,-593.62 1609.42,-599.49"/>
</g>
<!-- Node30 -->
<g id="node30" class="node">
<title>Node30</title>
<g id="a_node30"><a xlink:href="../../d2/da7/namespacemagic__enum.html#ac742536af999bab8c08c7a6e0e3be00a" target="_top" xlink:title=" ">
<polygon fill="none" stroke="black" points="1399.5,-604.5 1399.5,-623.5 1524.5,-623.5 1524.5,-604.5 1399.5,-604.5"/>
<text text-anchor="middle" x="1462" y="-611.5" font-family="Helvetica,sans-Serif" font-size="10.00">magic_enum::enum_fuse</text>
</a>
</g>
</g>
<!-- Node29&#45;&gt;Node30 -->
<g id="edge43" class="edge">
<title>Node29&#45;&gt;Node30</title>
<path fill="none" stroke="midnightblue" d="M1578.88,-588.84C1555.28,-593.96 1528.59,-599.76 1506.78,-604.49"/>
<polygon fill="midnightblue" stroke="midnightblue" points="1579.76,-592.23 1588.79,-586.69 1578.27,-585.39 1579.76,-592.23"/>
</g>
<!-- Node31 -->
<g id="node31" class="node">
<title>Node31</title>
<g id="a_node31"><a xlink:href="../../d2/da7/namespacemagic__enum.html#a10afd249be413488bff44f848e8d6fa2" target="_top" xlink:title=" ">
<polygon fill="none" stroke="black" points="1397.5,-566.5 1397.5,-585.5 1526.5,-585.5 1526.5,-566.5 1397.5,-566.5"/>
<text text-anchor="middle" x="1462" y="-573.5" font-family="Helvetica,sans-Serif" font-size="10.00">magic_enum::enum_value</text>
</a>
</g>
</g>
<!-- Node29&#45;&gt;Node31 -->
<g id="edge44" class="edge">
<title>Node29&#45;&gt;Node31</title>
<path fill="none" stroke="midnightblue" d="M1578.58,-576C1561.83,-576 1543.55,-576 1526.56,-576"/>
<polygon fill="midnightblue" stroke="midnightblue" points="1578.79,-579.5 1588.79,-576 1578.79,-572.5 1578.79,-579.5"/>
</g>
<!-- Node32 -->
<g id="node32" class="node">
<title>Node32</title>
<g id="a_node32"><a xlink:href="../../dd/d3d/namespacemagic__enum_1_1detail.html#a678b3b1ee79a8bb50b3e4c94de401a91" target="_top" xlink:title=" ">
<polygon fill="none" stroke="black" points="1412,-517 1412,-547 1512,-547 1512,-517 1412,-517"/>
<text text-anchor="start" x="1420" y="-535" font-family="Helvetica,sans-Serif" font-size="10.00">magic_enum::detail</text>
<text text-anchor="middle" x="1462" y="-524" font-family="Helvetica,sans-Serif" font-size="10.00">::is_sparse</text>
</a>
</g>
</g>
<!-- Node29&#45;&gt;Node32 -->
<g id="edge46" class="edge">
<title>Node29&#45;&gt;Node32</title>
<path fill="none" stroke="midnightblue" d="M1579.01,-561.17C1557.28,-555.7 1532.92,-549.58 1512.15,-544.36"/>
<polygon fill="midnightblue" stroke="midnightblue" points="1578.24,-564.58 1588.79,-563.63 1579.94,-557.79 1578.24,-564.58"/>
</g>
<!-- Node36 -->
<g id="node36" class="node">
<title>Node36</title>
<g id="a_node36"><a xlink:href="../../d1/ddc/test_queue_8cpp.html#a4c587fd9d2cb75d2710ff2a2b06e5a28" target="_top" xlink:title="Тест вставки">
<polygon fill="none" stroke="black" points="1248,-79.5 1248,-98.5 1289,-98.5 1289,-79.5 1248,-79.5"/>
<text text-anchor="middle" x="1268.5" y="-86.5" font-family="Helvetica,sans-Serif" font-size="10.00">TEST</text>
</a>
</g>
</g>
<!-- Node35&#45;&gt;Node36 -->
<g id="edge50" class="edge">
<title>Node35&#45;&gt;Node36</title>
<path fill="none" stroke="midnightblue" d="M1416.22,-89C1375.94,-89 1318.68,-89 1289.01,-89"/>
<polygon fill="midnightblue" stroke="midnightblue" points="1416.32,-92.5 1426.32,-89 1416.32,-85.5 1416.32,-92.5"/>
</g>
<!-- Node38 -->
<g id="node38" class="node">
<title>Node38</title>
<g id="a_node38"><a xlink:href="../../d9/df1/test_stack_8cpp.html#ae47a79e650f9708a927b0cf6e480cfe2" target="_top" xlink:title="Тест вставки">
<polygon fill="none" stroke="black" points="1248,-38.5 1248,-57.5 1289,-57.5 1289,-38.5 1248,-38.5"/>
<text text-anchor="middle" x="1268.5" y="-45.5" font-family="Helvetica,sans-Serif" font-size="10.00">TEST</text>
</a>
</g>
</g>
<!-- Node37&#45;&gt;Node38 -->
<g id="edge52" class="edge">
<title>Node37&#45;&gt;Node38</title>
<path fill="none" stroke="midnightblue" d="M1417.55,-48C1377.22,-48 1319.04,-48 1289.04,-48"/>
<polygon fill="midnightblue" stroke="midnightblue" points="1417.64,-51.5 1427.64,-48 1417.64,-44.5 1417.64,-51.5"/>
</g>
<!-- Node39&#45;&gt;Node28 -->
<g id="edge59" class="edge">
<title>Node39&#45;&gt;Node28</title>
<path fill="none" stroke="midnightblue" d="M1588.16,-253.97C1555.95,-260.41 1515.32,-268.54 1489.25,-273.75"/>
<polygon fill="midnightblue" stroke="midnightblue" points="1589.17,-257.34 1598.29,-251.94 1587.8,-250.47 1589.17,-257.34"/>
</g>
<!-- Node39&#45;&gt;Node35 -->
<g id="edge61" class="edge">
<title>Node39&#45;&gt;Node35</title>
<path fill="none" stroke="midnightblue" d="M1590.49,-229.83C1585.88,-227.09 1581.59,-223.85 1578,-220 1542.34,-181.77 1580.33,-143.56 1542,-108 1530.11,-96.97 1512.96,-92.01 1497.67,-89.9"/>
<polygon fill="midnightblue" stroke="midnightblue" points="1589.16,-233.07 1599.66,-234.47 1592.32,-226.83 1589.16,-233.07"/>
</g>
<!-- Node40 -->
<g id="node40" class="node">
<title>Node40</title>
<g id="a_node40"><a xlink:href="../../da/d5a/class_lexer.html#ad7f60235e0e2ceb2a4536237e0a07830" target="_top" xlink:title="Добавляет в шаблоны для определения токена новый шаблон">
<polygon fill="none" stroke="black" points="1405.5,-155.5 1405.5,-174.5 1518.5,-174.5 1518.5,-155.5 1405.5,-155.5"/>
<text text-anchor="middle" x="1462" y="-162.5" font-family="Helvetica,sans-Serif" font-size="10.00">Lexer::addTokenTemp</text>
</a>
</g>
</g>
<!-- Node39&#45;&gt;Node40 -->
<g id="edge54" class="edge">
<title>Node39&#45;&gt;Node40</title>
<path fill="none" stroke="midnightblue" d="M1597.91,-230.6C1591.02,-227.57 1584.12,-224.03 1578,-220 1559.11,-207.54 1561.74,-195.06 1542,-184 1534.86,-180 1526.9,-176.84 1518.86,-174.34"/>
<polygon fill="midnightblue" stroke="midnightblue" points="1596.63,-233.86 1607.21,-234.42 1599.29,-227.39 1596.63,-233.86"/>
</g>
<!-- Node41 -->
<g id="node41" class="node">
<title>Node41</title>
<g id="a_node41"><a xlink:href="../../da/d5a/class_lexer.html#a473a8abf892384a3e2769651318d7ab1" target="_top" xlink:title="Анализирует текст программы">
<polygon fill="none" stroke="black" points="1395.5,-231.5 1395.5,-250.5 1528.5,-250.5 1528.5,-231.5 1395.5,-231.5"/>
<text text-anchor="middle" x="1462" y="-238.5" font-family="Helvetica,sans-Serif" font-size="10.00">Lexer::analyzeProgramText</text>
</a>
</g>
</g>
<!-- Node39&#45;&gt;Node41 -->
<g id="edge55" class="edge">
<title>Node39&#45;&gt;Node41</title>
<path fill="none" stroke="midnightblue" d="M1588.04,-243.14C1569.56,-242.83 1548.31,-242.46 1528.64,-242.13"/>
<polygon fill="midnightblue" stroke="midnightblue" points="1588.23,-246.65 1598.29,-243.32 1588.35,-239.65 1588.23,-246.65"/>
</g>
<!-- Node44 -->
<g id="node44" class="node">
<title>Node44</title>
<g id="a_node44"><a xlink:href="../../d1/d34/class_list.html#afb55438b3b6d88e618481384e2bdd40e" target="_top" xlink:title=" ">
<polygon fill="none" stroke="black" points="1422.5,-117.5 1422.5,-136.5 1501.5,-136.5 1501.5,-117.5 1422.5,-117.5"/>
<text text-anchor="middle" x="1462" y="-124.5" font-family="Helvetica,sans-Serif" font-size="10.00">List::operator=</text>
</a>
</g>
</g>
<!-- Node39&#45;&gt;Node44 -->
<g id="edge60" class="edge">
<title>Node39&#45;&gt;Node44</title>
<path fill="none" stroke="midnightblue" d="M1592.72,-230.22C1587.39,-227.39 1582.32,-224.01 1578,-220 1551.22,-195.09 1570.51,-168.91 1542,-146 1530.68,-136.9 1515.67,-132.04 1501.79,-129.49"/>
<polygon fill="midnightblue" stroke="midnightblue" points="1591.32,-233.43 1601.86,-234.49 1594.28,-227.09 1591.32,-233.43"/>
</g>
<!-- Node45 -->
<g id="node45" class="node">
<title>Node45</title>
<g id="a_node45"><a xlink:href="../../d9/d2f/test_list_8cpp.html#a8f60f28a842f3b90e02e86c026421ff7" target="_top" xlink:title="Тест размера после вставки в конец">
<polygon fill="none" stroke="black" points="1441.5,-193.5 1441.5,-212.5 1482.5,-212.5 1482.5,-193.5 1441.5,-193.5"/>
<text text-anchor="middle" x="1462" y="-200.5" font-family="Helvetica,sans-Serif" font-size="10.00">TEST</text>
</a>
</g>
</g>
<!-- Node39&#45;&gt;Node45 -->
<g id="edge62" class="edge">
<title>Node39&#45;&gt;Node45</title>
<path fill="none" stroke="midnightblue" d="M1588.21,-232.33C1553.08,-224.1 1507.92,-213.53 1482.56,-207.58"/>
<polygon fill="midnightblue" stroke="midnightblue" points="1587.76,-235.82 1598.29,-234.7 1589.35,-229.01 1587.76,-235.82"/>
</g>
<!-- Node42 -->
<g id="node42" class="node">
<title>Node42</title>
<g id="a_node42"><a xlink:href="../../da/d5a/class_lexer.html#afcb6ff36e1b746fec7df3a9ea7f63fff" target="_top" xlink:title="Анализирует файл">
<polygon fill="none" stroke="black" points="1222,-231.5 1222,-250.5 1315,-250.5 1315,-231.5 1222,-231.5"/>
<text text-anchor="middle" x="1268.5" y="-238.5" font-family="Helvetica,sans-Serif" font-size="10.00">Lexer::analyzeFile</text>
</a>
</g>
</g>
<!-- Node41&#45;&gt;Node42 -->
<g id="edge56" class="edge">
<title>Node41&#45;&gt;Node42</title>
<path fill="none" stroke="midnightblue" d="M1385.32,-241C1361.58,-241 1336.12,-241 1315.14,-241"/>
<polygon fill="midnightblue" stroke="midnightblue" points="1385.36,-244.5 1395.36,-241 1385.36,-237.5 1385.36,-244.5"/>
</g>
<!-- Node42&#45;&gt;Node10 -->
<g id="edge57" class="edge">
<title>Node42&#45;&gt;Node10</title>
<path fill="none" stroke="midnightblue" d="M1211.59,-245.72C1140.01,-251.35 1012.12,-260 902.5,-260 902.5,-260 902.5,-260 331,-260 219.48,-260 87.03,-284.61 39.55,-294.22"/>
<polygon fill="midnightblue" stroke="midnightblue" points="1212.04,-249.2 1221.73,-244.91 1211.49,-242.22 1212.04,-249.2"/>
</g>
<!-- Node43 -->
<g id="node43" class="node">
<title>Node43</title>
<g id="a_node43"><a xlink:href="../../d0/d0f/test_lexer__1_8cpp.html#a42b988f5ceb814376db8a2df3c933b15" target="_top" xlink:title="Тест разбора простых математических выражений">
<polygon fill="none" stroke="black" points="1063,-212.5 1063,-231.5 1104,-231.5 1104,-212.5 1063,-212.5"/>
<text text-anchor="middle" x="1083.5" y="-219.5" font-family="Helvetica,sans-Serif" font-size="10.00">TEST</text>
</a>
</g>
</g>
<!-- Node42&#45;&gt;Node43 -->
<g id="edge58" class="edge">
<title>Node42&#45;&gt;Node43</title>
<path fill="none" stroke="midnightblue" d="M1211.73,-235.21C1175.13,-231.41 1129.48,-226.67 1104,-224.03"/>
<polygon fill="midnightblue" stroke="midnightblue" points="1211.49,-238.7 1221.79,-236.25 1212.21,-231.74 1211.49,-238.7"/>
</g>
<!-- Node46&#45;&gt;Node37 -->
<g id="edge64" class="edge">
<title>Node46&#45;&gt;Node37</title>
<path fill="none" stroke="midnightblue" d="M1588.17,-20.82C1558.66,-27.23 1522.07,-35.17 1496.09,-40.81"/>
<polygon fill="midnightblue" stroke="midnightblue" points="1589.26,-24.17 1598.29,-18.62 1587.77,-17.32 1589.26,-24.17"/>
</g>
<!-- Node47 -->
<g id="node47" class="node">
<title>Node47</title>
<g id="a_node47"><a xlink:href="../../d9/d2f/test_list_8cpp.html#a4938ee6237f7cba8d51cf0eb85fffa24" target="_top" xlink:title="Тест значений после вставки в конец">
<polygon fill="none" stroke="black" points="1441.5,-0.5 1441.5,-19.5 1482.5,-19.5 1482.5,-0.5 1441.5,-0.5"/>
<text text-anchor="middle" x="1462" y="-7.5" font-family="Helvetica,sans-Serif" font-size="10.00">TEST</text>
</a>
</g>
</g>
<!-- Node46&#45;&gt;Node47 -->
<g id="edge65" class="edge">
<title>Node46&#45;&gt;Node47</title>
<path fill="none" stroke="midnightblue" d="M1588.21,-10C1553.08,-10 1507.92,-10 1482.56,-10"/>
<polygon fill="midnightblue" stroke="midnightblue" points="1588.29,-13.5 1598.29,-10 1588.29,-6.5 1588.29,-13.5"/>
</g>
</g>
</svg>
