<?xml version="1.0" encoding="UTF-8" standalone="no"?>
<!DOCTYPE svg PUBLIC "-//W3C//DTD SVG 1.1//EN"
 "http://www.w3.org/Graphics/SVG/1.1/DTD/svg11.dtd">
<!-- Generated by graphviz version 3.0.0 (20220413.0106)
 -->
<!-- Title: magic_enum::detail::is_sparse Pages: 1 -->
<svg width="380pt" height="39pt"
 viewBox="0.00 0.00 380.00 39.00" xmlns="http://www.w3.org/2000/svg" xmlns:xlink="http://www.w3.org/1999/xlink">
<g id="graph0" class="graph" transform="scale(1 1) rotate(0) translate(4 35)">
<title>magic_enum::detail::is_sparse</title>
<!-- Node1 -->
<g id="node1" class="node">
<title>Node1</title>
<g id="a_node1"><a xlink:title=" ">
<polygon fill="#bfbfbf" stroke="black" points="0,-0.5 0,-30.5 100,-30.5 100,-0.5 0,-0.5"/>
<text text-anchor="start" x="8" y="-18.5" font-family="Helvetica,sans-Serif" font-size="10.00">magic_enum::detail</text>
<text text-anchor="middle" x="50" y="-7.5" font-family="Helvetica,sans-Serif" font-size="10.00">::is_sparse</text>
</a>
</g>
</g>
<!-- Node2 -->
<g id="node2" class="node">
<title>Node2</title>
<g id="a_node2"><a xlink:href="../../dd/d3d/namespacemagic__enum_1_1detail.html#a1f435c2b919eb3622324d94892c8bc0b" target="_top" xlink:title=" ">
<polygon fill="none" stroke="black" points="136,-0.5 136,-30.5 236,-30.5 236,-0.5 136,-0.5"/>
<text text-anchor="start" x="144" y="-18.5" font-family="Helvetica,sans-Serif" font-size="10.00">magic_enum::detail</text>
<text text-anchor="middle" x="186" y="-7.5" font-family="Helvetica,sans-Serif" font-size="10.00">::log2</text>
</a>
</g>
</g>
<!-- Node1&#45;&gt;Node2 -->
<g id="edge1" class="edge">
<title>Node1&#45;&gt;Node2</title>
<path fill="none" stroke="midnightblue" d="M100.14,-15.5C108.42,-15.5 117.1,-15.5 125.61,-15.5"/>
<polygon fill="midnightblue" stroke="midnightblue" points="125.87,-19 135.87,-15.5 125.87,-12 125.87,-19"/>
</g>
<!-- Node3 -->
<g id="node3" class="node">
<title>Node3</title>
<g id="a_node3"><a xlink:href="../../dd/d3d/namespacemagic__enum_1_1detail.html#a8e06754b490522d8ae02cd8983e3fcbf" target="_top" xlink:title=" ">
<polygon fill="none" stroke="black" points="272,-0.5 272,-30.5 372,-30.5 372,-0.5 272,-0.5"/>
<text text-anchor="start" x="280" y="-18.5" font-family="Helvetica,sans-Serif" font-size="10.00">magic_enum::detail</text>
<text text-anchor="middle" x="322" y="-7.5" font-family="Helvetica,sans-Serif" font-size="10.00">::value</text>
</a>
</g>
</g>
<!-- Node2&#45;&gt;Node3 -->
<g id="edge2" class="edge">
<title>Node2&#45;&gt;Node3</title>
<path fill="none" stroke="midnightblue" d="M236.14,-15.5C244.42,-15.5 253.1,-15.5 261.61,-15.5"/>
<polygon fill="midnightblue" stroke="midnightblue" points="261.87,-19 271.87,-15.5 261.87,-12 261.87,-19"/>
</g>
</g>
</svg>
