<?xml version="1.0" encoding="UTF-8" standalone="no"?>
<!DOCTYPE svg PUBLIC "-//W3C//DTD SVG 1.1//EN"
 "http://www.w3.org/Graphics/SVG/1.1/DTD/svg11.dtd">
<!-- Generated by graphviz version 3.0.0 (20220413.0106)
 -->
<!-- Title: magic_enum::detail::fuse_enum Pages: 1 -->
<svg width="680pt" height="141pt"
 viewBox="0.00 0.00 680.00 140.50" xmlns="http://www.w3.org/2000/svg" xmlns:xlink="http://www.w3.org/1999/xlink">
<g id="graph0" class="graph" transform="scale(1 1) rotate(0) translate(4 136.5)">
<title>magic_enum::detail::fuse_enum</title>
<!-- Node1 -->
<g id="node1" class="node">
<title>Node1</title>
<g id="a_node1"><a xlink:title=" ">
<polygon fill="#bfbfbf" stroke="black" points="0,-22.5 0,-52.5 100,-52.5 100,-22.5 0,-22.5"/>
<text text-anchor="start" x="8" y="-40.5" font-family="Helvetica,sans-Serif" font-size="10.00">magic_enum::detail</text>
<text text-anchor="middle" x="50" y="-29.5" font-family="Helvetica,sans-Serif" font-size="10.00">::fuse_enum</text>
</a>
</g>
</g>
<!-- Node2 -->
<g id="node2" class="node">
<title>Node2</title>
<g id="a_node2"><a xlink:href="../../dd/d3d/namespacemagic__enum_1_1detail.html#a4179723a67a48dd525fc0985356d3ccc" target="_top" xlink:title=" ">
<polygon fill="none" stroke="black" points="136,-0.5 136,-30.5 236,-30.5 236,-0.5 136,-0.5"/>
<text text-anchor="start" x="144" y="-18.5" font-family="Helvetica,sans-Serif" font-size="10.00">magic_enum::detail</text>
<text text-anchor="middle" x="186" y="-7.5" font-family="Helvetica,sans-Serif" font-size="10.00">::fuse_enum</text>
</a>
</g>
</g>
<!-- Node1&#45;&gt;Node2 -->
<g id="edge1" class="edge">
<title>Node1&#45;&gt;Node2</title>
<path fill="none" stroke="midnightblue" d="M100.14,-29.43C108.51,-28.06 117.29,-26.62 125.89,-25.2"/>
<polygon fill="midnightblue" stroke="midnightblue" points="126.57,-28.64 135.87,-23.57 125.44,-21.73 126.57,-28.64"/>
</g>
<!-- Node3 -->
<g id="node3" class="node">
<title>Node3</title>
<g id="a_node3"><a xlink:href="../../dd/d3d/namespacemagic__enum_1_1detail.html#a61ad087c3ddc2f2a03df9e8a262d0f33" target="_top" xlink:title=" ">
<polygon fill="none" stroke="black" points="272,-44.5 272,-74.5 372,-74.5 372,-44.5 272,-44.5"/>
<text text-anchor="start" x="280" y="-62.5" font-family="Helvetica,sans-Serif" font-size="10.00">magic_enum::detail</text>
<text text-anchor="middle" x="322" y="-51.5" font-family="Helvetica,sans-Serif" font-size="10.00">::fuse_one_enum</text>
</a>
</g>
</g>
<!-- Node1&#45;&gt;Node3 -->
<g id="edge8" class="edge">
<title>Node1&#45;&gt;Node3</title>
<path fill="none" stroke="midnightblue" d="M100.21,-41.51C145.65,-45.21 213.23,-50.72 261.65,-54.66"/>
<polygon fill="midnightblue" stroke="midnightblue" points="261.42,-58.16 271.67,-55.48 261.99,-51.18 261.42,-58.16"/>
</g>
<!-- Node2&#45;&gt;Node3 -->
<g id="edge2" class="edge">
<title>Node2&#45;&gt;Node3</title>
<path fill="none" stroke="midnightblue" d="M232.74,-30.52C243.19,-33.95 254.41,-37.63 265.22,-41.19"/>
<polygon fill="midnightblue" stroke="midnightblue" points="264.42,-44.6 275.01,-44.4 266.6,-37.95 264.42,-44.6"/>
</g>
<!-- Node6 -->
<g id="node6" class="node">
<title>Node6</title>
<g id="a_node6"><a xlink:href="../../dd/d3d/namespacemagic__enum_1_1detail.html#a8e06754b490522d8ae02cd8983e3fcbf" target="_top" xlink:title=" ">
<polygon fill="none" stroke="black" points="572,-19.5 572,-49.5 672,-49.5 672,-19.5 572,-19.5"/>
<text text-anchor="start" x="580" y="-37.5" font-family="Helvetica,sans-Serif" font-size="10.00">magic_enum::detail</text>
<text text-anchor="middle" x="622" y="-26.5" font-family="Helvetica,sans-Serif" font-size="10.00">::value</text>
</a>
</g>
</g>
<!-- Node2&#45;&gt;Node6 -->
<g id="edge7" class="edge">
<title>Node2&#45;&gt;Node6</title>
<path fill="none" stroke="midnightblue" d="M236.36,-17.66C316.64,-21.18 475.16,-28.12 561.52,-31.9"/>
<polygon fill="midnightblue" stroke="midnightblue" points="561.54,-35.4 571.68,-32.34 561.85,-28.41 561.54,-35.4"/>
</g>
<!-- Node4 -->
<g id="node4" class="node">
<title>Node4</title>
<g id="a_node4"><a xlink:href="../../d2/da7/namespacemagic__enum.html#acd7a26786c1149f4b264ee7c4b22f809" target="_top" xlink:title=" ">
<polygon fill="none" stroke="black" points="408,-113 408,-132 536,-132 536,-113 408,-113"/>
<text text-anchor="middle" x="472" y="-120" font-family="Helvetica,sans-Serif" font-size="10.00">magic_enum::enum_index</text>
</a>
</g>
</g>
<!-- Node3&#45;&gt;Node4 -->
<g id="edge3" class="edge">
<title>Node3&#45;&gt;Node4</title>
<path fill="none" stroke="midnightblue" d="M349.2,-74.67C365.71,-83.82 387.67,-95.26 408,-103.5 413.56,-105.76 419.49,-107.89 425.41,-109.85"/>
<polygon fill="midnightblue" stroke="midnightblue" points="424.69,-113.29 435.28,-112.98 426.81,-106.62 424.69,-113.29"/>
</g>
<!-- Node5 -->
<g id="node5" class="node">
<title>Node5</title>
<g id="a_node5"><a xlink:href="../../dd/d3d/namespacemagic__enum_1_1detail.html#a1f435c2b919eb3622324d94892c8bc0b" target="_top" xlink:title=" ">
<polygon fill="none" stroke="black" points="422,-63.5 422,-93.5 522,-93.5 522,-63.5 422,-63.5"/>
<text text-anchor="start" x="430" y="-81.5" font-family="Helvetica,sans-Serif" font-size="10.00">magic_enum::detail</text>
<text text-anchor="middle" x="472" y="-70.5" font-family="Helvetica,sans-Serif" font-size="10.00">::log2</text>
</a>
</g>
</g>
<!-- Node3&#45;&gt;Node5 -->
<g id="edge4" class="edge">
<title>Node3&#45;&gt;Node5</title>
<path fill="none" stroke="midnightblue" d="M372.28,-65.83C384.89,-67.45 398.58,-69.2 411.63,-70.88"/>
<polygon fill="midnightblue" stroke="midnightblue" points="411.57,-74.4 421.93,-72.2 412.46,-67.46 411.57,-74.4"/>
</g>
<!-- Node3&#45;&gt;Node6 -->
<g id="edge6" class="edge">
<title>Node3&#45;&gt;Node6</title>
<path fill="none" stroke="midnightblue" d="M372.21,-55.37C424.19,-51.01 506.15,-44.13 561.67,-39.48"/>
<polygon fill="midnightblue" stroke="midnightblue" points="562.05,-42.96 571.72,-38.63 561.46,-35.98 562.05,-42.96"/>
</g>
<!-- Node5&#45;&gt;Node6 -->
<g id="edge5" class="edge">
<title>Node5&#45;&gt;Node6</title>
<path fill="none" stroke="midnightblue" d="M522.28,-63.85C535.01,-60.06 548.85,-55.95 562.02,-52.03"/>
<polygon fill="midnightblue" stroke="midnightblue" points="563.35,-55.29 571.93,-49.09 561.35,-48.58 563.35,-55.29"/>
</g>
</g>
</svg>
