<?xml version="1.0" encoding="UTF-8" standalone="no"?>
<!DOCTYPE svg PUBLIC "-//W3C//DTD SVG 1.1//EN"
 "http://www.w3.org/Graphics/SVG/1.1/DTD/svg11.dtd">
<!-- Generated by graphviz version 3.0.0 (20220413.0106)
 -->
<!-- Title: magic_enum::detail::fuse_one_enum Pages: 1 -->
<svg width="394pt" height="88pt"
 viewBox="0.00 0.00 394.00 88.00" xmlns="http://www.w3.org/2000/svg" xmlns:xlink="http://www.w3.org/1999/xlink">
<g id="graph0" class="graph" transform="scale(1 1) rotate(0) translate(4 84)">
<title>magic_enum::detail::fuse_one_enum</title>
<!-- Node1 -->
<g id="node1" class="node">
<title>Node1</title>
<g id="a_node1"><a xlink:title=" ">
<polygon fill="#bfbfbf" stroke="black" points="286,-24.5 286,-54.5 386,-54.5 386,-24.5 286,-24.5"/>
<text text-anchor="start" x="294" y="-42.5" font-family="Helvetica,sans-Serif" font-size="10.00">magic_enum::detail</text>
<text text-anchor="middle" x="336" y="-31.5" font-family="Helvetica,sans-Serif" font-size="10.00">::fuse_one_enum</text>
</a>
</g>
</g>
<!-- Node2 -->
<g id="node2" class="node">
<title>Node2</title>
<g id="a_node2"><a xlink:href="../../dd/d3d/namespacemagic__enum_1_1detail.html#a4179723a67a48dd525fc0985356d3ccc" target="_top" xlink:title=" ">
<polygon fill="none" stroke="black" points="150,-24.5 150,-54.5 250,-54.5 250,-24.5 150,-24.5"/>
<text text-anchor="start" x="158" y="-42.5" font-family="Helvetica,sans-Serif" font-size="10.00">magic_enum::detail</text>
<text text-anchor="middle" x="200" y="-31.5" font-family="Helvetica,sans-Serif" font-size="10.00">::fuse_enum</text>
</a>
</g>
</g>
<!-- Node1&#45;&gt;Node2 -->
<g id="edge1" class="edge">
<title>Node1&#45;&gt;Node2</title>
<path fill="none" stroke="midnightblue" d="M275.6,-39.5C267.09,-39.5 258.41,-39.5 250.13,-39.5"/>
<polygon fill="midnightblue" stroke="midnightblue" points="275.86,-43 285.86,-39.5 275.86,-36 275.86,-43"/>
</g>
<!-- Node3 -->
<g id="node3" class="node">
<title>Node3</title>
<g id="a_node3"><a xlink:href="../../dd/d3d/namespacemagic__enum_1_1detail.html#ac517a7398df2a04d6b2a7bc0e83b54e2" target="_top" xlink:title=" ">
<polygon fill="none" stroke="black" points="7,-49.5 7,-79.5 107,-79.5 107,-49.5 7,-49.5"/>
<text text-anchor="start" x="15" y="-67.5" font-family="Helvetica,sans-Serif" font-size="10.00">magic_enum::detail</text>
<text text-anchor="middle" x="57" y="-56.5" font-family="Helvetica,sans-Serif" font-size="10.00">::fuse_enum</text>
</a>
</g>
</g>
<!-- Node2&#45;&gt;Node3 -->
<g id="edge2" class="edge">
<title>Node2&#45;&gt;Node3</title>
<path fill="none" stroke="midnightblue" d="M139.8,-50C128.9,-51.93 117.62,-53.93 107.05,-55.8"/>
<polygon fill="midnightblue" stroke="midnightblue" points="140.45,-53.44 149.69,-48.24 139.23,-46.54 140.45,-53.44"/>
</g>
<!-- Node4 -->
<g id="node4" class="node">
<title>Node4</title>
<g id="a_node4"><a xlink:href="../../d6/da6/namespacemagic__enum_1_1ostream__operators.html#abc5726104c1c1de46c91e4040b520217" target="_top" xlink:title=" ">
<polygon fill="none" stroke="black" points="0,-0.5 0,-30.5 114,-30.5 114,-0.5 0,-0.5"/>
<text text-anchor="start" x="8" y="-18.5" font-family="Helvetica,sans-Serif" font-size="10.00">magic_enum::ostream</text>
<text text-anchor="middle" x="57" y="-7.5" font-family="Helvetica,sans-Serif" font-size="10.00">_operators::operator&lt;&lt;</text>
</a>
</g>
</g>
<!-- Node2&#45;&gt;Node4 -->
<g id="edge3" class="edge">
<title>Node2&#45;&gt;Node4</title>
<path fill="none" stroke="midnightblue" d="M139.6,-29.39C131.21,-27.96 122.61,-26.5 114.28,-25.08"/>
<polygon fill="midnightblue" stroke="midnightblue" points="139.24,-32.88 149.69,-31.11 140.41,-25.98 139.24,-32.88"/>
</g>
</g>
</svg>
