<?xml version="1.0" encoding="UTF-8" standalone="no"?>
<!DOCTYPE svg PUBLIC "-//W3C//DTD SVG 1.1//EN"
 "http://www.w3.org/Graphics/SVG/1.1/DTD/svg11.dtd">
<!-- Generated by graphviz version 3.0.0 (20220413.0106)
 -->
<!-- Title: isIn Pages: 1 -->
<svg width="1592pt" height="321pt"
 viewBox="0.00 0.00 1592.00 321.00" xmlns="http://www.w3.org/2000/svg" xmlns:xlink="http://www.w3.org/1999/xlink">
<g id="graph0" class="graph" transform="scale(1 1) rotate(0) translate(4 317)">
<title>isIn</title>
<!-- Node1 -->
<g id="node1" class="node">
<title>Node1</title>
<g id="a_node1"><a xlink:title="Возвращает истину, если value находится среди значений cont.">
<polygon fill="#bfbfbf" stroke="black" points="1552,-85.5 1552,-104.5 1584,-104.5 1584,-85.5 1552,-85.5"/>
<text text-anchor="middle" x="1568" y="-92.5" font-family="Helvetica,sans-Serif" font-size="10.00">isIn</text>
</a>
</g>
</g>
<!-- Node2 -->
<g id="node2" class="node">
<title>Node2</title>
<g id="a_node2"><a xlink:href="../../df/d0a/main_8cpp.html#af50a7ab232af26f0f371f58cd3b3441f" target="_top" xlink:title=" ">
<polygon fill="none" stroke="black" points="487.5,-293.5 487.5,-312.5 540.5,-312.5 540.5,-293.5 487.5,-293.5"/>
<text text-anchor="middle" x="514" y="-300.5" font-family="Helvetica,sans-Serif" font-size="10.00">highlight</text>
</a>
</g>
</g>
<!-- Node1&#45;&gt;Node2 -->
<g id="edge1" class="edge">
<title>Node1&#45;&gt;Node2</title>
<path fill="none" stroke="midnightblue" d="M1557.23,-113.99C1548.13,-130.42 1533.37,-154.13 1516,-171 1426.7,-257.73 1393.99,-304 1269.5,-304 1269.5,-304 1269.5,-304 900.5,-304 764.97,-304 602.64,-303.37 540.72,-303.11"/>
<polygon fill="midnightblue" stroke="midnightblue" points="1560.51,-115.29 1562.14,-104.82 1554.34,-111.98 1560.51,-115.29"/>
</g>
<!-- Node4 -->
<g id="node4" class="node">
<title>Node4</title>
<g id="a_node4"><a xlink:href="../../d0/dfe/class_syntax_analyzer.html#a53b0048490647d82a92a77ed1ffb013d" target="_top" xlink:title=" ">
<polygon fill="none" stroke="black" points="1382,-142.5 1382,-161.5 1516,-161.5 1516,-142.5 1382,-142.5"/>
<text text-anchor="middle" x="1449" y="-149.5" font-family="Helvetica,sans-Serif" font-size="10.00">SyntaxAnalyzer::syntaxExpr</text>
</a>
</g>
</g>
<!-- Node1&#45;&gt;Node4 -->
<g id="edge3" class="edge">
<title>Node1&#45;&gt;Node4</title>
<path fill="none" stroke="midnightblue" d="M1542.49,-106.94C1520.83,-117.49 1489.64,-132.69 1469.59,-142.46"/>
<polygon fill="midnightblue" stroke="midnightblue" points="1544.25,-109.98 1551.7,-102.45 1541.18,-103.69 1544.25,-109.98"/>
</g>
<!-- Node17 -->
<g id="node17" class="node">
<title>Node17</title>
<g id="a_node17"><a xlink:href="../../d0/dfe/class_syntax_analyzer.html#a7721cf7d36d549f81fd05c40dba02f67" target="_top" xlink:title=" ">
<polygon fill="none" stroke="black" points="833,-104.5 833,-123.5 970,-123.5 970,-104.5 833,-104.5"/>
<text text-anchor="middle" x="901.5" y="-111.5" font-family="Helvetica,sans-Serif" font-size="10.00">SyntaxAnalyzer::syntaxTerm</text>
</a>
</g>
</g>
<!-- Node1&#45;&gt;Node17 -->
<g id="edge29" class="edge">
<title>Node1&#45;&gt;Node17</title>
<path fill="none" stroke="midnightblue" d="M1541.56,-93.45C1462.74,-88.98 1215.59,-77.47 1012,-95 990.47,-96.85 966.82,-100.72 947.03,-104.49"/>
<polygon fill="midnightblue" stroke="midnightblue" points="1541.76,-96.97 1551.95,-94.06 1542.17,-89.98 1541.76,-96.97"/>
</g>
<!-- Node18 -->
<g id="node18" class="node">
<title>Node18</title>
<g id="a_node18"><a xlink:href="../../d0/dfe/class_syntax_analyzer.html#a920d9565d4aa2e3815ff9e7146f45a0b" target="_top" xlink:title=" ">
<polygon fill="none" stroke="black" points="623.5,-66.5 623.5,-85.5 787.5,-85.5 787.5,-66.5 623.5,-66.5"/>
<text text-anchor="middle" x="705.5" y="-73.5" font-family="Helvetica,sans-Serif" font-size="10.00">SyntaxAnalyzer::syntaxSimpleExpr</text>
</a>
</g>
</g>
<!-- Node1&#45;&gt;Node18 -->
<g id="edge28" class="edge">
<title>Node1&#45;&gt;Node18</title>
<path fill="none" stroke="midnightblue" d="M1542.74,-81.58C1493.06,-55.39 1375.48,0 1269.5,0 1269.5,0 1269.5,0 1082.5,0 949.97,0 796.28,-45.92 734.41,-66.37"/>
<polygon fill="midnightblue" stroke="midnightblue" points="1541.28,-84.77 1551.75,-86.4 1544.59,-78.6 1541.28,-84.77"/>
</g>
<!-- Node3 -->
<g id="node3" class="node">
<title>Node3</title>
<g id="a_node3"><a xlink:href="../../df/d0a/main_8cpp.html#a3c04138a5bfe5d72780bb7e82a18e627" target="_top" xlink:title=" ">
<polygon fill="none" stroke="black" points="1.5,-290.5 1.5,-309.5 39.5,-309.5 39.5,-290.5 1.5,-290.5"/>
<text text-anchor="middle" x="20.5" y="-297.5" font-family="Helvetica,sans-Serif" font-size="10.00">main</text>
</a>
</g>
</g>
<!-- Node2&#45;&gt;Node3 -->
<g id="edge2" class="edge">
<title>Node2&#45;&gt;Node3</title>
<path fill="none" stroke="midnightblue" d="M477.02,-302.78C379.32,-302.18 111.65,-300.55 39.58,-300.11"/>
<polygon fill="midnightblue" stroke="midnightblue" points="477.25,-306.28 487.27,-302.84 477.29,-299.28 477.25,-306.28"/>
</g>
<!-- Node5 -->
<g id="node5" class="node">
<title>Node5</title>
<g id="a_node5"><a xlink:href="../../d0/dfe/class_syntax_analyzer.html#ae57b60364b17a4772143fe9a6c3bc2c7" target="_top" xlink:title=" ">
<polygon fill="none" stroke="black" points="1191,-218.5 1191,-237.5 1346,-237.5 1346,-218.5 1191,-218.5"/>
<text text-anchor="middle" x="1268.5" y="-225.5" font-family="Helvetica,sans-Serif" font-size="10.00">SyntaxAnalyzer::syntaxAssignSt</text>
</a>
</g>
</g>
<!-- Node4&#45;&gt;Node5 -->
<g id="edge4" class="edge">
<title>Node4&#45;&gt;Node5</title>
<path fill="none" stroke="midnightblue" d="M1422.52,-166.5C1402.22,-177.68 1372.85,-193.04 1346,-204 1332.6,-209.47 1317.46,-214.46 1304.21,-218.45"/>
<polygon fill="midnightblue" stroke="midnightblue" points="1424.41,-169.46 1431.44,-161.53 1421,-163.34 1424.41,-169.46"/>
</g>
<!-- Node7 -->
<g id="node7" class="node">
<title>Node7</title>
<g id="a_node7"><a xlink:href="../../d0/dfe/class_syntax_analyzer.html#addd3ca96f66a5261f904e2e0c78a898a" target="_top" xlink:title=" ">
<polygon fill="none" stroke="black" points="836,-256.5 836,-275.5 967,-275.5 967,-256.5 836,-256.5"/>
<text text-anchor="middle" x="901.5" y="-263.5" font-family="Helvetica,sans-Serif" font-size="10.00">SyntaxAnalyzer::syntaxIfSt</text>
</a>
</g>
</g>
<!-- Node4&#45;&gt;Node7 -->
<g id="edge26" class="edge">
<title>Node4&#45;&gt;Node7</title>
<path fill="none" stroke="midnightblue" d="M1435.5,-169.68C1418.31,-192.35 1385.02,-230.67 1346,-247 1215.9,-301.45 1045.17,-287.76 958.38,-275.53"/>
<polygon fill="midnightblue" stroke="midnightblue" points="1438.36,-171.7 1441.47,-161.57 1432.72,-167.55 1438.36,-171.7"/>
</g>
<!-- Node14 -->
<g id="node14" class="node">
<title>Node14</title>
<g id="a_node14"><a xlink:href="../../d0/dfe/class_syntax_analyzer.html#a35bb1125afde4b827a0dd8f3bce8dc58" target="_top" xlink:title=" ">
<polygon fill="none" stroke="black" points="827,-142.5 827,-161.5 976,-161.5 976,-142.5 827,-142.5"/>
<text text-anchor="middle" x="901.5" y="-149.5" font-family="Helvetica,sans-Serif" font-size="10.00">SyntaxAnalyzer::syntaxWhileSt</text>
</a>
</g>
</g>
<!-- Node4&#45;&gt;Node14 -->
<g id="edge27" class="edge">
<title>Node4&#45;&gt;Node14</title>
<path fill="none" stroke="midnightblue" d="M1396.3,-163.54C1380.27,-166.6 1362.48,-169.48 1346,-171 1216.12,-182.99 1064.12,-170.82 976.02,-161.2"/>
<polygon fill="midnightblue" stroke="midnightblue" points="1397.43,-166.88 1406.56,-161.51 1396.07,-160.02 1397.43,-166.88"/>
</g>
<!-- Node15 -->
<g id="node15" class="node">
<title>Node15</title>
<g id="a_node15"><a xlink:href="../../d0/dfe/class_syntax_analyzer.html#a9321de68e44f3918a71256a3c1cd481b" target="_top" xlink:title=" ">
<polygon fill="none" stroke="black" points="1198,-142.5 1198,-161.5 1339,-161.5 1339,-142.5 1198,-142.5"/>
<text text-anchor="middle" x="1268.5" y="-149.5" font-family="Helvetica,sans-Serif" font-size="10.00">SyntaxAnalyzer::syntaxCallSt</text>
</a>
</g>
</g>
<!-- Node4&#45;&gt;Node15 -->
<g id="edge18" class="edge">
<title>Node4&#45;&gt;Node15</title>
<path fill="none" stroke="midnightblue" d="M1371.57,-152C1360.82,-152 1349.81,-152 1339.19,-152"/>
<polygon fill="midnightblue" stroke="midnightblue" points="1371.79,-155.5 1381.79,-152 1371.79,-148.5 1371.79,-155.5"/>
</g>
<!-- Node16 -->
<g id="node16" class="node">
<title>Node16</title>
<g id="a_node16"><a xlink:href="../../d0/dfe/class_syntax_analyzer.html#ab9b415ddd671b4884ab31cdf194f6c64" target="_top" xlink:title=" ">
<polygon fill="none" stroke="black" points="1012,-104.5 1012,-123.5 1155,-123.5 1155,-104.5 1012,-104.5"/>
<text text-anchor="middle" x="1083.5" y="-111.5" font-family="Helvetica,sans-Serif" font-size="10.00">SyntaxAnalyzer::syntaxFactor</text>
</a>
</g>
</g>
<!-- Node4&#45;&gt;Node16 -->
<g id="edge25" class="edge">
<title>Node4&#45;&gt;Node16</title>
<path fill="none" stroke="midnightblue" d="M1392.76,-140.55C1377.65,-137.73 1361.24,-134.97 1346,-133 1281.67,-124.7 1207.93,-119.75 1155.19,-117"/>
<polygon fill="midnightblue" stroke="midnightblue" points="1392.5,-144.06 1402.98,-142.49 1393.81,-137.18 1392.5,-144.06"/>
</g>
<!-- Node6 -->
<g id="node6" class="node">
<title>Node6</title>
<g id="a_node6"><a xlink:href="../../d0/dfe/class_syntax_analyzer.html#affae37bc1fa3a4016dcffad4affbfcbd" target="_top" xlink:title=" ">
<polygon fill="none" stroke="black" points="1021,-218.5 1021,-237.5 1146,-237.5 1146,-218.5 1021,-218.5"/>
<text text-anchor="middle" x="1083.5" y="-225.5" font-family="Helvetica,sans-Serif" font-size="10.00">SyntaxAnalyzer::syntaxSt</text>
</a>
</g>
</g>
<!-- Node5&#45;&gt;Node6 -->
<g id="edge5" class="edge">
<title>Node5&#45;&gt;Node6</title>
<path fill="none" stroke="midnightblue" d="M1180.7,-228C1168.98,-228 1157.16,-228 1146.01,-228"/>
<polygon fill="midnightblue" stroke="midnightblue" points="1180.95,-231.5 1190.95,-228 1180.95,-224.5 1180.95,-231.5"/>
</g>
<!-- Node6&#45;&gt;Node7 -->
<g id="edge6" class="edge">
<title>Node6&#45;&gt;Node7</title>
<path fill="none" stroke="midnightblue" d="M1010.67,-236.54C980.4,-242.51 947.26,-250.15 925.75,-256.38"/>
<polygon fill="midnightblue" stroke="midnightblue" points="1011.65,-239.91 1020.81,-234.58 1010.32,-233.04 1011.65,-239.91"/>
</g>
<!-- Node8 -->
<g id="node8" class="node">
<title>Node8</title>
<g id="a_node8"><a xlink:href="../../d0/dfe/class_syntax_analyzer.html#a79a0e444afd499634f445f0b8919dd0f" target="_top" xlink:title=" ">
<polygon fill="none" stroke="black" points="831,-218.5 831,-237.5 972,-237.5 972,-218.5 831,-218.5"/>
<text text-anchor="middle" x="901.5" y="-225.5" font-family="Helvetica,sans-Serif" font-size="10.00">SyntaxAnalyzer::syntaxStList</text>
</a>
</g>
</g>
<!-- Node6&#45;&gt;Node8 -->
<g id="edge8" class="edge">
<title>Node6&#45;&gt;Node8</title>
<path fill="none" stroke="midnightblue" d="M1010.74,-228C998.02,-228 984.8,-228 972.15,-228"/>
<polygon fill="midnightblue" stroke="midnightblue" points="1010.81,-231.5 1020.81,-228 1010.81,-224.5 1010.81,-231.5"/>
</g>
<!-- Node6&#45;&gt;Node14 -->
<g id="edge16" class="edge">
<title>Node6&#45;&gt;Node14</title>
<path fill="none" stroke="midnightblue" d="M1059.98,-214.69C1045.73,-209.37 1027.2,-203.2 1012,-195 994.16,-185.38 993.9,-176.51 976,-167 972.33,-165.05 968.46,-163.22 964.51,-161.52"/>
<polygon fill="midnightblue" stroke="midnightblue" points="1058.9,-218.02 1069.49,-218.42 1061.46,-211.51 1058.9,-218.02"/>
</g>
<!-- Node7&#45;&gt;Node6 -->
<g id="edge7" class="edge">
<title>Node7&#45;&gt;Node6</title>
<path fill="none" stroke="midnightblue" d="M977.28,-256.88C1006.78,-250.99 1038.52,-243.63 1059.34,-237.59"/>
<polygon fill="midnightblue" stroke="midnightblue" points="976.53,-253.46 967.38,-258.81 977.87,-260.33 976.53,-253.46"/>
</g>
<!-- Node9 -->
<g id="node9" class="node">
<title>Node9</title>
<g id="a_node9"><a xlink:href="../../d0/dfe/class_syntax_analyzer.html#a2c0c19bfe9775405a5b6985cf1c8854c" target="_top" xlink:title=" ">
<polygon fill="none" stroke="black" points="620,-218.5 620,-237.5 791,-237.5 791,-218.5 620,-218.5"/>
<text text-anchor="middle" x="705.5" y="-225.5" font-family="Helvetica,sans-Serif" font-size="10.00">SyntaxAnalyzer::syntaxCompoundSt</text>
</a>
</g>
</g>
<!-- Node8&#45;&gt;Node9 -->
<g id="edge9" class="edge">
<title>Node8&#45;&gt;Node9</title>
<path fill="none" stroke="midnightblue" d="M820.7,-228C810.97,-228 801.01,-228 791.21,-228"/>
<polygon fill="midnightblue" stroke="midnightblue" points="820.74,-231.5 830.74,-228 820.74,-224.5 820.74,-231.5"/>
</g>
<!-- Node9&#45;&gt;Node6 -->
<g id="edge15" class="edge">
<title>Node9&#45;&gt;Node6</title>
<path fill="none" stroke="midnightblue" d="M765.5,-216.81C785,-213.62 806.86,-210.58 827,-209 893.02,-203.83 910.04,-203.16 976,-209 996.95,-210.85 1019.96,-214.72 1039.21,-218.49"/>
<polygon fill="midnightblue" stroke="midnightblue" points="764.82,-213.38 755.54,-218.49 765.98,-220.28 764.82,-213.38"/>
</g>
<!-- Node10 -->
<g id="node10" class="node">
<title>Node10</title>
<g id="a_node10"><a xlink:href="../../d0/dfe/class_syntax_analyzer.html#aa93b0d722276e335971360e093f19a8e" target="_top" xlink:title=" ">
<polygon fill="none" stroke="black" points="444,-219.5 444,-238.5 584,-238.5 584,-219.5 444,-219.5"/>
<text text-anchor="middle" x="514" y="-226.5" font-family="Helvetica,sans-Serif" font-size="10.00">SyntaxAnalyzer::syntaxBlock</text>
</a>
</g>
</g>
<!-- Node9&#45;&gt;Node10 -->
<g id="edge10" class="edge">
<title>Node9&#45;&gt;Node10</title>
<path fill="none" stroke="midnightblue" d="M609.63,-228.5C601.02,-228.55 592.41,-228.59 584.08,-228.64"/>
<polygon fill="midnightblue" stroke="midnightblue" points="609.75,-232 619.73,-228.45 609.71,-225 609.75,-232"/>
</g>
<!-- Node11 -->
<g id="node11" class="node">
<title>Node11</title>
<g id="a_node11"><a xlink:href="../../d0/dfe/class_syntax_analyzer.html#aeb59cd0062ff3238bcf625c7e20fc5ec" target="_top" xlink:title=" ">
<polygon fill="none" stroke="black" points="256,-238.5 256,-257.5 408,-257.5 408,-238.5 256,-238.5"/>
<text text-anchor="middle" x="332" y="-245.5" font-family="Helvetica,sans-Serif" font-size="10.00">SyntaxAnalyzer::syntaxProgram</text>
</a>
</g>
</g>
<!-- Node10&#45;&gt;Node11 -->
<g id="edge11" class="edge">
<title>Node10&#45;&gt;Node11</title>
<path fill="none" stroke="midnightblue" d="M433.95,-237.34C425.39,-238.25 416.69,-239.17 408.18,-240.06"/>
<polygon fill="midnightblue" stroke="midnightblue" points="434.34,-240.82 443.92,-236.29 433.61,-233.86 434.34,-240.82"/>
</g>
<!-- Node12 -->
<g id="node12" class="node">
<title>Node12</title>
<g id="a_node12"><a xlink:href="../../d0/dfe/class_syntax_analyzer.html#a0472b9d7f2855f118acf9cb7c67ab5a7" target="_top" xlink:title=" ">
<polygon fill="none" stroke="black" points="77,-247.5 77,-266.5 220,-266.5 220,-247.5 77,-247.5"/>
<text text-anchor="middle" x="148.5" y="-254.5" font-family="Helvetica,sans-Serif" font-size="10.00">SyntaxAnalyzer::parseTokens</text>
</a>
</g>
</g>
<!-- Node11&#45;&gt;Node12 -->
<g id="edge12" class="edge">
<title>Node11&#45;&gt;Node12</title>
<path fill="none" stroke="midnightblue" d="M245.84,-252.22C237.26,-252.65 228.61,-253.08 220.21,-253.49"/>
<polygon fill="midnightblue" stroke="midnightblue" points="246.05,-255.72 255.87,-251.73 245.71,-248.73 246.05,-255.72"/>
</g>
<!-- Node12&#45;&gt;Node3 -->
<g id="edge13" class="edge">
<title>Node12&#45;&gt;Node3</title>
<path fill="none" stroke="midnightblue" d="M109.97,-269.81C86.74,-277.74 57.95,-287.56 39.65,-293.8"/>
<polygon fill="midnightblue" stroke="midnightblue" points="111.2,-273.09 119.54,-266.54 108.94,-266.46 111.2,-273.09"/>
</g>
<!-- Node13 -->
<g id="node13" class="node">
<title>Node13</title>
<g id="a_node13"><a xlink:href="../../dd/de9/test_syntax_8cpp.html#ac491df98e51a6bba8b808af414b6614f" target="_top" xlink:title="Тест синтаксического анализа Паскаля, простой тест">
<polygon fill="none" stroke="black" points="0,-247.5 0,-266.5 41,-266.5 41,-247.5 0,-247.5"/>
<text text-anchor="middle" x="20.5" y="-254.5" font-family="Helvetica,sans-Serif" font-size="10.00">TEST</text>
</a>
</g>
</g>
<!-- Node12&#45;&gt;Node13 -->
<g id="edge14" class="edge">
<title>Node12&#45;&gt;Node13</title>
<path fill="none" stroke="midnightblue" d="M66.74,-257C57.29,-257 48.42,-257 41.08,-257"/>
<polygon fill="midnightblue" stroke="midnightblue" points="66.77,-260.5 76.77,-257 66.77,-253.5 66.77,-260.5"/>
</g>
<!-- Node14&#45;&gt;Node6 -->
<g id="edge17" class="edge">
<title>Node14&#45;&gt;Node6</title>
<path fill="none" stroke="midnightblue" d="M925.82,-165.11C940.7,-170.38 960.11,-176.56 976,-185 993.9,-194.51 994.16,-203.38 1012,-213 1015.53,-214.9 1019.24,-216.7 1023.03,-218.36"/>
<polygon fill="midnightblue" stroke="midnightblue" points="926.94,-161.79 916.34,-161.59 924.5,-168.35 926.94,-161.79"/>
</g>
<!-- Node15&#45;&gt;Node6 -->
<g id="edge24" class="edge">
<title>Node15&#45;&gt;Node6</title>
<path fill="none" stroke="midnightblue" d="M1235.06,-165.47C1198.42,-180.69 1139.7,-205.08 1107.49,-218.45"/>
<polygon fill="midnightblue" stroke="midnightblue" points="1236.43,-168.69 1244.32,-161.63 1233.75,-162.23 1236.43,-168.69"/>
</g>
<!-- Node15&#45;&gt;Node16 -->
<g id="edge19" class="edge">
<title>Node15&#45;&gt;Node16</title>
<path fill="none" stroke="midnightblue" d="M1211.25,-140.32C1185.29,-134.93 1154.88,-128.61 1130.35,-123.52"/>
<polygon fill="midnightblue" stroke="midnightblue" points="1210.82,-143.8 1221.32,-142.41 1212.24,-136.95 1210.82,-143.8"/>
</g>
<!-- Node16&#45;&gt;Node16 -->
<g id="edge20" class="edge">
<title>Node16&#45;&gt;Node16</title>
<path fill="none" stroke="midnightblue" d="M1117.61,-131.89C1117.11,-137.54 1105.74,-142 1083.5,-142 1051.15,-142 1041.8,-132.57 1055.45,-123.76"/>
<polygon fill="midnightblue" stroke="midnightblue" points="1120.33,-129.69 1111.55,-123.76 1114.72,-133.87 1120.33,-129.69"/>
</g>
<!-- Node16&#45;&gt;Node17 -->
<g id="edge21" class="edge">
<title>Node16&#45;&gt;Node17</title>
<path fill="none" stroke="midnightblue" d="M1001.84,-114C991.29,-114 980.57,-114 970.27,-114"/>
<polygon fill="midnightblue" stroke="midnightblue" points="1001.88,-117.5 1011.88,-114 1001.88,-110.5 1001.88,-117.5"/>
</g>
<!-- Node17&#45;&gt;Node18 -->
<g id="edge22" class="edge">
<title>Node17&#45;&gt;Node18</title>
<path fill="none" stroke="midnightblue" d="M841.59,-102.46C813.92,-97.04 781.34,-90.66 755.1,-85.52"/>
<polygon fill="midnightblue" stroke="midnightblue" points="841.06,-105.92 851.55,-104.41 842.4,-99.05 841.06,-105.92"/>
</g>
<!-- Node18&#45;&gt;Node4 -->
<g id="edge23" class="edge">
<title>Node18&#45;&gt;Node4</title>
<path fill="none" stroke="midnightblue" d="M798.01,-72.53C923.35,-69.85 1154.67,-72.33 1346,-116 1374.19,-122.44 1405.38,-134.16 1425.75,-142.47"/>
<polygon fill="midnightblue" stroke="midnightblue" points="797.61,-69.04 787.7,-72.77 797.78,-76.04 797.61,-69.04"/>
</g>
</g>
</svg>
